# Wavefront OBJ exported by MilkShape 3D

v 6.011990 31.744207 -8.597188
v 3.987626 20.292351 -8.597188
v 3.516056 31.744207 -8.597188
v 6.011990 31.744207 0.006281
v 3.516056 31.744207 0.006281
v 3.987626 20.292351 0.006280
v 3.120239 20.282787 -8.597188
v 3.120239 20.282787 0.006281
v 1.020135 31.744207 -8.597188
v 1.020135 31.744207 0.006281
v 1.586781 33.652767 -8.597188
v 1.586781 33.652767 0.006281
v 3.516056 34.443310 -8.597188
v 3.516056 34.443310 0.006281
v 5.445331 33.652767 -8.597188
v 5.445331 33.652767 0.006281
# 16 vertices

vt 0.000000 1.000000
vt 0.000000 0.000000
vt 0.125000 0.000000
vt 0.125000 1.000000
vt 0.250000 1.000000
vt 0.250000 0.000000
vt 0.375000 0.000000
vt 0.375000 1.000000
vt 0.500000 1.000000
vt 0.500000 0.000000
vt 0.625000 0.000000
vt 0.625000 1.000000
vt 0.750000 1.000000
vt 0.750000 0.000000
vt 0.875000 0.000000
vt 0.875000 1.000000
vt 1.000000 1.000000
vt 1.000000 0.000000
# 18 texture coordinates

vn 0.000000 -0.000000 1.000000
vn 0.998386 0.056794 0.000000
vn 0.646836 -0.762629 0.000000
vn -0.403556 -0.914955 0.000000
vn -0.820993 -0.570938 0.000000
vn 0.000000 0.000000 0.000000
vn -0.998559 0.053667 0.000000
vn -0.741659 0.670777 0.000000
vn 0.000000 1.000000 0.000000
vn 0.741657 0.670779 0.000000
# 10 normals

g '
s 2
f 4/1/1 5/1/1 6/1/1
s 1
f 1/2/2 4/1/2 2/3/3
f 4/1/2 6/4/3 2/3/3
s 2
f 6/1/1 5/1/1 8/1/1
s 1
f 2/3/3 6/4/3 8/5/4
f 2/3/3 8/5/4 7/6/5
s 2
f 7/1/6 7/1/6 3/1/6
f 8/1/1 5/1/1 8/1/1
s 1
f 7/6/5 8/5/4 7/7/5
f 8/5/4 8/8/4 7/7/5
s 2
f 8/1/1 5/1/1 10/1/1
s 1
f 7/7/5 8/8/4 10/9/7
f 7/7/5 10/9/7 9/10/7
s 2
f 10/1/1 5/1/1 12/1/1
s 1
f 9/10/7 10/9/7 11/11/8
f 10/9/7 12/12/8 11/11/8
s 2
f 12/1/1 5/1/1 14/1/1
s 1
f 11/11/8 12/12/8 14/13/9
f 11/11/8 14/13/9 13/14/9
s 2
f 14/1/1 5/1/1 16/1/1
s 1
f 13/14/9 14/13/9 15/15/10
f 14/13/9 16/16/10 15/15/10
s 2
f 16/1/1 5/1/1 4/1/1
s 1
f 15/15/10 16/16/10 4/17/2
f 15/15/10 4/17/2 1/18/2
# 25 triangles in group

# 25 triangles total

