# Wavefront OBJ exported by MilkShape 3D

v 15.421534 10.043142 -8.509884
v 14.918795 6.936071 -8.509884
v 14.402115 5.503244 -8.509884
v 12.109819 2.429402 -8.509884
v 9.454868 1.474618 -8.509884
v 7.243816 1.686170 -8.509884
v 5.436575 2.696127 -8.509884
v 4.083807 3.923170 -8.509884
v 4.078939 31.016039 -8.509884
v 4.072664 35.165684 -8.509884
v 15.421534 10.043142 0.024915
v 14.918795 6.936071 0.024915
v 14.402115 5.503244 0.024915
v 12.109819 2.429402 0.024915
v 9.454868 1.474618 0.024915
v 7.243816 1.686170 0.024915
v 5.436575 2.696127 0.024915
v 4.083807 3.923170 0.024915
v 4.078939 31.016039 0.024915
v 4.072664 35.165684 0.024915
v 19.470242 10.018003 0.024913
v 18.016863 5.847867 0.024913
v 16.531260 3.749300 0.024913
v 13.096268 0.884549 0.024913
v 9.738205 -0.214347 0.024913
v 6.323466 -0.115607 0.024913
v 3.383329 0.679219 0.024913
v 0.053469 2.371266 0.024913
v 0.023092 31.016039 0.024913
v -3.576687 32.226444 0.024913
v 19.470242 10.018003 -8.509886
v 18.016863 5.847867 -8.509886
v 16.531260 3.749300 -8.509886
v 13.096268 0.884549 -8.509886
v 9.738205 -0.214347 -8.509886
v 6.323466 -0.115607 -8.509886
v 3.383329 0.679219 -8.509886
v 0.053469 2.371266 -8.509886
v 0.023092 31.016039 -8.509886
v -3.576694 32.226444 -8.509886
v -3.574571 32.221943 0.025958
v 15.246384 13.369814 -8.509853
v 15.246384 13.369814 0.024878
v 19.454918 14.271618 0.024878
v 19.454918 14.271618 -8.509853
v 14.619789 15.744326 -8.509853
v 14.619789 15.744326 0.024878
v 18.748167 17.582323 0.024878
v 18.748167 17.582323 -8.509853
v 12.896883 18.117510 -8.509853
v 12.896883 18.117510 0.024878
v 15.804415 21.368093 0.024878
v 15.804415 21.368093 -8.509853
v 10.817507 19.623857 -8.509853
v 10.817507 19.623857 0.024878
v 12.264772 23.178061 0.024878
v 12.264772 23.178061 -8.509853
v 8.699112 19.898138 -8.509853
v 8.699112 19.898138 0.024878
v 7.716472 22.430033 0.024878
v 7.716472 22.430033 -8.509853
v 5.859506 18.663527 -8.509853
v 5.859506 18.663527 0.024878
v 5.222747 20.063993 0.024878
v 5.222747 20.063993 -8.509853
v 4.001223 17.127199 -8.509853
v 4.001223 17.127199 0.024878
v 3.938181 18.663004 0.024878
v 3.938181 18.663004 -8.509853
# 69 vertices

vt 0.000000 1.000000
vt 0.000000 0.000000
vt 0.000000 0.111111
vt 0.250000 0.000000
vt 0.250000 0.111111
vt 0.000000 0.222222
vt 0.250000 0.222222
vt 0.000000 0.333333
vt 0.250000 0.333333
vt 0.000000 0.444444
vt 0.250000 0.444444
vt 0.000000 0.555556
vt 0.250000 0.555556
vt 0.000000 0.666667
vt 0.250000 0.666667
vt 0.000000 0.777778
vt 0.250000 0.777778
vt 0.000000 0.888889
vt 0.250000 0.888889
vt 0.250000 1.000000
vt 0.500000 0.111111
vt 0.500000 0.000000
vt 0.500000 0.222222
vt 0.500000 0.333333
vt 0.500000 0.444444
vt 0.500000 0.555556
vt 0.500000 0.666667
vt 0.500000 0.777778
vt 0.500000 0.888889
vt 0.500000 1.000000
vt 0.750000 0.000000
vt 0.750000 0.111111
vt 0.750000 0.222222
vt 0.750000 0.333333
vt 0.750000 0.444444
vt 0.750000 0.555556
vt 0.750000 0.666667
vt 0.750000 0.777778
vt 0.750000 0.888889
vt 0.750000 1.000000
# 40 texture coordinates

vn -0.358962 0.933352 0.000291
vn -0.987161 0.159727 0.000000
vn -0.968103 0.250553 0.000000
vn -0.698028 0.112944 0.707107
vn -0.683073 0.176785 0.708631
vn -0.880714 0.473649 0.000000
vn -0.619357 0.333091 0.710948
vn -0.595288 0.803512 0.000000
vn -0.411708 0.555719 0.722270
vn -0.124592 0.992208 0.000000
vn -0.087016 0.692963 0.715703
vn 0.297904 0.954596 0.000000
vn 0.208363 0.667671 0.714703
vn 0.583599 0.812042 0.000000
vn 0.411331 0.572342 0.709387
vn 0.914253 0.405144 0.000000
vn 0.616924 0.273385 0.738014
vn 1.000000 0.000846 0.000000
vn 0.707106 0.000598 0.707107
vn 0.625490 -0.322215 0.710591
vn 0.667716 -0.232713 0.707107
vn 0.517182 -0.477805 0.710088
vn 0.339426 -0.612997 0.713459
vn 0.100484 -0.694565 0.712378
vn -0.102840 -0.697109 0.709551
vn -0.253101 -0.658240 0.708985
vn -0.552835 -0.339599 0.760951
vn -0.511781 -0.368266 0.776184
vn -0.225362 -0.670233 0.707107
vn 0.944293 -0.329106 0.000000
vn 0.888978 -0.457949 0.000000
vn 0.734516 -0.678592 0.000000
vn 0.484413 -0.874840 0.000000
vn 0.143181 -0.989697 0.000000
vn -0.145943 -0.989293 0.000000
vn -0.358895 -0.933378 0.000000
vn -0.852076 -0.523418 0.000000
vn -0.811697 -0.584079 0.000000
vn -0.318709 -0.947852 0.000000
vn -0.992693 -0.120666 0.000000
vn -0.998617 -0.052577 0.000000
vn -0.893190 -0.047022 0.447214
vn -0.692799 -0.132978 0.708764
vn 0.447210 0.001620 0.894427
vn 0.703576 0.051029 0.708786
vn 0.999994 0.003602 0.000000
vn 0.990002 0.141050 0.000000
vn -0.928409 -0.371559 0.000000
vn -0.614009 -0.339649 0.712483
vn 0.654385 0.245842 0.715082
vn 0.871830 0.489808 0.000000
vn -0.743259 -0.669003 0.000000
vn -0.469883 -0.523116 0.711027
vn 0.484539 0.504528 0.714615
vn 0.578887 0.815408 0.000000
vn -0.446126 -0.894970 0.000000
vn -0.201548 -0.667457 0.716854
vn 0.180325 0.666929 0.722972
vn 0.045593 0.998960 0.000000
vn 0.048870 -0.998805 0.000000
vn 0.160240 -0.676805 0.718511
vn -0.243444 0.648696 0.721061
vn -0.533824 0.845596 0.000000
vn 0.482426 -0.875937 0.000000
vn 0.396078 -0.582010 0.710202
vn -0.498326 0.501400 0.707297
vn -0.721198 0.692729 0.000000
vn 0.637183 -0.770712 0.000000
vn 0.284957 -0.344673 0.894427
vn -0.659254 0.604470 0.447214
vn -0.737069 0.675818 0.000000
# 71 normals

g b
s 2
f 10/1/1 41/1/1 20/1/1
s 1
f 1/2/2 2/3/3 11/4/4
f 2/3/3 12/5/5 11/4/4
f 2/3/3 3/6/6 13/7/7
f 2/3/3 13/7/7 12/5/5
f 3/6/6 4/8/8 13/7/7
f 4/8/8 14/9/9 13/7/7
f 4/8/8 5/10/10 15/11/11
f 4/8/8 15/11/11 14/9/9
f 5/10/10 6/12/12 15/11/11
f 6/12/12 16/13/13 15/11/11
f 6/12/12 7/14/14 17/15/15
f 6/12/12 17/15/15 16/13/13
f 7/14/14 8/16/16 17/15/15
f 8/16/16 18/17/17 17/15/15
f 8/16/16 9/18/18 19/19/19
f 8/16/16 19/19/19 18/17/17
f 9/18/18 10/1/18 19/19/19
f 10/1/18 20/20/19 19/19/19
f 11/4/4 12/5/5 22/21/20
f 11/4/4 22/21/20 21/22/21
f 12/5/5 13/7/7 22/21/20
f 13/7/7 23/23/22 22/21/20
f 13/7/7 14/9/9 24/24/23
f 13/7/7 24/24/23 23/23/22
f 14/9/9 15/11/11 24/24/23
f 15/11/11 25/25/24 24/24/23
f 15/11/11 16/13/13 26/26/25
f 15/11/11 26/26/25 25/25/24
f 16/13/13 17/15/15 26/26/25
f 17/15/15 27/27/26 26/26/25
f 17/15/15 18/17/17 28/28/27
f 17/15/15 28/28/27 27/27/26
f 18/17/17 19/19/19 28/28/27
f 19/19/19 29/29/28 28/28/27
f 19/19/19 20/20/19 30/30/29
f 19/19/19 30/30/29 29/29/28
f 21/22/21 22/21/20 31/31/30
f 22/21/20 32/32/31 31/31/30
f 22/21/20 23/23/22 33/33/32
f 22/21/20 33/33/32 32/32/31
f 23/23/22 24/24/23 33/33/32
f 24/24/23 34/34/33 33/33/32
f 24/24/23 25/25/24 35/35/34
f 24/24/23 35/35/34 34/34/33
f 25/25/24 26/26/25 35/35/34
f 26/26/25 36/36/35 35/35/34
f 26/26/25 27/27/26 37/37/36
f 26/26/25 37/37/36 36/36/35
f 27/27/26 28/28/27 37/37/36
f 28/28/27 38/38/37 37/37/36
f 28/28/27 29/29/28 39/39/38
f 28/28/27 39/39/38 38/38/37
f 29/29/28 30/30/29 39/39/38
f 30/30/29 40/40/39 39/39/38
s 2
f 40/1/1 41/1/1 10/1/1
s 3
f 42/1/40 1/1/41 11/1/42
f 42/1/40 11/1/42 43/1/43
f 43/1/43 11/1/42 21/1/44
f 43/1/43 21/1/44 44/1/45
f 44/1/45 21/1/44 31/1/46
f 44/1/45 31/1/46 45/1/47
f 46/1/48 42/1/40 43/1/43
f 46/1/48 43/1/43 47/1/49
f 47/1/49 43/1/43 44/1/45
f 47/1/49 44/1/45 48/1/50
f 48/1/50 44/1/45 45/1/47
f 48/1/50 45/1/47 49/1/51
f 50/1/52 46/1/48 47/1/49
f 50/1/52 47/1/49 51/1/53
f 51/1/53 47/1/49 48/1/50
f 51/1/53 48/1/50 52/1/54
f 52/1/54 48/1/50 49/1/51
f 52/1/54 49/1/51 53/1/55
f 54/1/56 50/1/52 51/1/53
f 54/1/56 51/1/53 55/1/57
f 55/1/57 51/1/53 52/1/54
f 55/1/57 52/1/54 56/1/58
f 56/1/58 52/1/54 53/1/55
f 56/1/58 53/1/55 57/1/59
f 58/1/60 54/1/56 55/1/57
f 58/1/60 55/1/57 59/1/61
f 59/1/61 55/1/57 56/1/58
f 59/1/61 56/1/58 60/1/62
f 60/1/62 56/1/58 57/1/59
f 60/1/62 57/1/59 61/1/63
f 62/1/64 58/1/60 59/1/61
f 62/1/64 59/1/61 63/1/65
f 63/1/65 59/1/61 60/1/62
f 63/1/65 60/1/62 64/1/66
f 64/1/66 60/1/62 61/1/63
f 64/1/66 61/1/63 65/1/67
f 66/1/68 62/1/64 63/1/65
f 66/1/68 63/1/65 67/1/69
f 67/1/69 63/1/65 64/1/66
f 67/1/69 64/1/66 68/1/70
f 68/1/70 64/1/66 65/1/67
f 68/1/70 65/1/67 69/1/71
# 98 triangles in group

# 98 triangles total

