# Wavefront OBJ exported by MilkShape 3D

v 4.864249 8.088757 -8.558298
v 3.994114 11.671925 -8.558298
v 3.962242 14.167156 -8.558298
v 4.047466 16.397923 -8.558298
v 5.578392 19.631512 -8.558298
v 8.467042 21.525421 -8.558298
v 11.705165 21.336090 -8.558298
v 12.954610 20.010078 -8.558298
v 13.756957 16.842121 -8.558298
v 16.025980 15.761297 -8.558298
v 4.864249 8.088757 -0.025522
v 3.994114 11.671925 -0.025522
v 3.962242 14.167156 -0.025522
v 4.047466 16.397923 -0.025522
v 5.578392 19.631512 -0.025522
v 8.467042 21.525421 -0.025522
v 11.705165 21.336090 -0.025522
v 12.954610 20.010078 -0.025522
v 13.756957 16.842121 -0.025522
v 16.025980 15.761297 -0.025522
v 0.654330 7.509287 -0.025522
v 0.009892 11.463308 -0.025522
v 0.304951 14.734409 -0.025522
v 1.816250 18.269989 -0.025522
v 4.514909 21.018509 -0.025522
v 8.007761 22.891605 -0.025522
v 11.992192 23.082375 -0.025522
v 15.391551 21.843803 -0.025522
v 17.601648 19.730602 -0.025522
v 18.189241 16.953245 -0.025522
v 0.654330 7.509287 -8.558298
v 0.009892 11.463308 -8.558298
v 0.304951 14.734409 -8.558298
v 1.816250 18.269989 -8.558298
v 4.514909 21.018509 -8.558298
v 8.007761 22.891605 -8.558298
v 11.992192 23.082375 -8.558298
v 15.391551 21.843803 -8.558298
v 17.601648 19.730602 -8.558298
v 18.189241 16.953245 -8.558298
v 16.025923 15.756264 -0.026021
v 6.272665 5.611824 -8.558286
v 6.272665 5.611824 -0.025508
v 2.357046 3.345715 -0.025508
v 2.357046 3.345715 -8.558286
v 7.862505 4.088845 -8.558286
v 7.862505 4.088845 -0.025508
v 5.656064 0.663048 -0.025508
v 5.656064 0.663048 -8.558286
v 10.245473 3.315430 -8.558286
v 10.245473 3.315430 -0.025508
v 9.939734 -0.334350 -0.025508
v 9.939734 -0.334350 -8.558286
v 12.809598 3.298741 -8.558286
v 12.809598 3.298741 -0.025508
v 13.820067 0.789101 -0.025508
v 13.820067 0.789101 -8.558286
v 15.625184 4.697769 -8.558286
v 15.625184 4.697769 -0.025508
v 16.782278 3.595715 -0.025508
v 16.782278 3.595715 -8.558286
v 17.219912 6.867140 -8.558286
v 17.219912 6.867140 -0.025508
v 18.076437 6.074726 -0.025508
v 18.076437 6.074726 -8.558286
v 18.134951 8.757854 -8.558286
v 18.134951 8.757854 -0.025508
v 18.716173 8.388327 -0.026498
v 18.716925 8.389670 -0.025508
v 18.716925 8.389670 -8.558286
# 70 vertices

vt 0.000000 1.000000
vt 0.000000 0.000000
vt 0.000000 0.111111
vt 0.250000 0.000000
vt 0.250000 0.111111
vt 0.000000 0.222222
vt 0.250000 0.222222
vt 0.000000 0.333333
vt 0.250000 0.333333
vt 0.000000 0.444444
vt 0.250000 0.444444
vt 0.000000 0.555556
vt 0.250000 0.555556
vt 0.000000 0.666667
vt 0.250000 0.666667
vt 0.000000 0.777778
vt 0.250000 0.777778
vt 0.000000 0.888889
vt 0.250000 0.888889
vt 0.250000 1.000000
vt 0.500000 0.111111
vt 0.500000 0.000000
vt 0.500000 0.222222
vt 0.500000 0.333333
vt 0.500000 0.444444
vt 0.500000 0.555556
vt 0.500000 0.666667
vt 0.500000 0.777778
vt 0.500000 0.888889
vt 0.500000 1.000000
vt 0.750000 0.000000
vt 0.750000 0.111111
vt 0.750000 0.222222
vt 0.750000 0.333333
vt 0.750000 0.444444
vt 0.750000 0.555556
vt 0.750000 0.666667
vt 0.750000 0.777778
vt 0.750000 0.888889
vt 0.750000 1.000000
# 40 texture coordinates

vn 0.535580 0.844485 0.000090
vn 0.971758 0.235981 0.000000
vn 0.992135 0.125171 0.000000
vn 0.687136 0.166864 0.707107
vn 0.699309 0.088227 0.709354
vn 0.999919 -0.012706 0.000000
vn 0.706935 -0.008983 0.707222
vn 0.971295 -0.237879 0.000000
vn 0.679719 -0.166470 0.714331
vn 0.754225 -0.656616 0.000000
vn 0.523076 -0.455381 0.720430
vn 0.258011 -0.966142 0.000000
vn 0.177649 -0.665222 0.725204
vn -0.423007 -0.906127 0.000000
vn -0.287952 -0.616825 0.732537
vn -0.876687 -0.481062 0.000000
vn -0.609738 -0.334580 0.718523
vn -0.773054 -0.634340 0.000000
vn -0.518769 -0.425684 0.741399
vn -0.430043 -0.902808 0.000000
vn -0.304086 -0.638382 0.707107
vn -0.703847 -0.025210 0.709904
vn -0.697898 -0.113745 0.707107
vn -0.681399 0.171780 0.711468
vn -0.582385 0.390020 0.713241
vn -0.421764 0.562478 0.711150
vn -0.186273 0.672948 0.715851
vn 0.105155 0.692109 0.714092
vn 0.369283 0.594023 0.714679
vn 0.603527 0.336123 0.723033
vn 0.691794 0.146360 0.707107
vn 0.484139 -0.874991 0.000000
vn -0.986977 -0.160860 0.000000
vn -0.999359 -0.035794 0.000000
vn -0.969662 0.244450 0.000000
vn -0.830887 0.556441 0.000000
vn -0.599915 0.800064 0.000000
vn -0.266770 0.963760 0.000000
vn 0.150211 0.988654 0.000000
vn 0.527960 0.849269 0.000000
vn 0.873647 0.486561 0.000000
vn 0.978344 0.206984 0.000000
vn 0.482588 -0.875847 -0.000513
vn 0.817732 0.575599 0.000000
vn 0.869296 0.494293 0.000000
vn 0.777521 0.442111 0.447213
vn 0.533471 0.459055 0.710407
vn -0.413938 -0.169278 0.894427
vn -0.593154 -0.366324 0.716921
vn -0.925591 -0.378526 0.000000
vn -0.749807 -0.661657 0.000000
vn 0.576989 0.816752 0.000000
vn 0.312047 0.625548 0.715064
vn -0.354879 -0.602120 0.715201
vn -0.369904 -0.929070 0.000000
vn 0.210174 0.977664 0.000000
vn 0.076229 0.699234 0.710817
vn -0.041950 -0.695454 0.717345
vn 0.113063 -0.993588 0.000000
vn -0.147552 0.989054 0.000000
vn -0.210762 0.665851 0.715697
vn 0.296911 -0.631780 0.716029
vn 0.565405 -0.824814 0.000000
vn -0.579715 0.814819 0.000000
vn -0.490798 0.496455 0.715996
vn 0.536418 -0.454028 0.711417
vn 0.830335 -0.557264 0.000000
vn -0.840319 0.542092 0.000000
vn -0.615379 0.345606 0.708425
vn 0.646654 -0.281705 0.708859
vn 0.942685 -0.333683 0.000000
vn -0.900126 0.435629 0.000000
vn -0.402549 0.194819 0.894427
vn 0.862041 -0.238505 0.447214
vn 0.963791 -0.266657 0.000000
# 75 normals

g Cylinder02
s 2
f 66/1/1 67/1/1 68/1/1
s 1
f 1/2/2 2/3/3 11/4/4
f 2/3/3 12/5/5 11/4/4
f 2/3/3 3/6/6 13/7/7
f 2/3/3 13/7/7 12/5/5
f 3/6/6 4/8/8 13/7/7
f 4/8/8 14/9/9 13/7/7
f 4/8/8 5/10/10 15/11/11
f 4/8/8 15/11/11 14/9/9
f 5/10/10 6/12/12 15/11/11
f 6/12/12 16/13/13 15/11/11
f 6/12/12 7/14/14 17/15/15
f 6/12/12 17/15/15 16/13/13
f 7/14/14 8/16/16 17/15/15
f 8/16/16 18/17/17 17/15/15
f 8/16/16 9/18/18 19/19/19
f 8/16/16 19/19/19 18/17/17
f 9/18/18 10/1/20 19/19/19
f 10/1/20 20/20/21 19/19/19
f 11/4/4 12/5/5 22/21/22
f 11/4/4 22/21/22 21/22/23
f 12/5/5 13/7/7 22/21/22
f 13/7/7 23/23/24 22/21/22
f 13/7/7 14/9/9 24/24/25
f 13/7/7 24/24/25 23/23/24
f 14/9/9 15/11/11 24/24/25
f 15/11/11 25/25/26 24/24/25
f 15/11/11 16/13/13 26/26/27
f 15/11/11 26/26/27 25/25/26
f 16/13/13 17/15/15 26/26/27
f 17/15/15 27/27/28 26/26/27
f 17/15/15 18/17/17 28/28/29
f 17/15/15 28/28/29 27/27/28
f 18/17/17 19/19/19 28/28/29
f 19/19/19 29/29/30 28/28/29
f 19/19/19 20/20/21 30/30/31
f 19/19/19 30/30/31 29/29/30
s 2
f 30/1/32 41/1/32 40/1/32
s 1
f 21/22/23 22/21/22 31/31/33
f 22/21/22 32/32/34 31/31/33
f 22/21/22 23/23/24 33/33/35
f 22/21/22 33/33/35 32/32/34
f 23/23/24 24/24/25 33/33/35
f 24/24/25 34/34/36 33/33/35
f 24/24/25 25/25/26 35/35/37
f 24/24/25 35/35/37 34/34/36
f 25/25/26 26/26/27 35/35/37
f 26/26/27 36/36/38 35/35/37
f 26/26/27 27/27/28 37/37/39
f 26/26/27 37/37/39 36/36/38
f 27/27/28 28/28/29 37/37/39
f 28/28/29 38/38/40 37/37/39
f 28/28/29 29/29/30 39/39/41
f 28/28/29 39/39/41 38/38/40
f 29/29/30 30/30/31 39/39/41
f 30/30/31 40/40/42 39/39/41
s 2
f 70/1/1 66/1/1 68/1/1
f 40/1/32 41/1/32 10/1/43
s 3
f 42/1/44 1/1/45 11/1/46
f 42/1/44 11/1/46 43/1/47
f 43/1/47 11/1/46 21/1/48
f 43/1/47 21/1/48 44/1/49
f 44/1/49 21/1/48 31/1/50
f 44/1/49 31/1/50 45/1/51
f 46/1/52 42/1/44 43/1/47
f 46/1/52 43/1/47 47/1/53
f 47/1/53 43/1/47 44/1/49
f 47/1/53 44/1/49 48/1/54
f 48/1/54 44/1/49 45/1/51
f 48/1/54 45/1/51 49/1/55
f 50/1/56 46/1/52 47/1/53
f 50/1/56 47/1/53 51/1/57
f 51/1/57 47/1/53 48/1/54
f 51/1/57 48/1/54 52/1/58
f 52/1/58 48/1/54 49/1/55
f 52/1/58 49/1/55 53/1/59
f 54/1/60 50/1/56 51/1/57
f 54/1/60 51/1/57 55/1/61
f 55/1/61 51/1/57 52/1/58
f 55/1/61 52/1/58 56/1/62
f 56/1/62 52/1/58 53/1/59
f 56/1/62 53/1/59 57/1/63
f 58/1/64 54/1/60 55/1/61
f 58/1/64 55/1/61 59/1/65
f 59/1/65 55/1/61 56/1/62
f 59/1/65 56/1/62 60/1/66
f 60/1/66 56/1/62 57/1/63
f 60/1/66 57/1/63 61/1/67
f 62/1/68 58/1/64 59/1/65
f 62/1/68 59/1/65 63/1/69
f 63/1/69 59/1/65 60/1/66
f 63/1/69 60/1/66 64/1/70
f 64/1/70 60/1/66 61/1/67
f 64/1/70 61/1/67 65/1/71
f 66/1/72 62/1/68 63/1/69
f 66/1/72 63/1/69 67/1/73
f 67/1/73 63/1/69 64/1/70
f 67/1/73 64/1/70 69/1/74
f 69/1/74 64/1/70 65/1/71
f 69/1/74 65/1/71 70/1/75
# 100 triangles in group

# 100 triangles total

