# Wavefront OBJ exported by MilkShape 3D

v 6.468445 20.671459 -8.607859
v 5.669304 18.762901 -8.607859
v 6.468445 20.671459 -0.004387
v 3.740029 20.671459 -0.004387
v 5.669304 18.762901 -0.004387
v 3.740029 17.972351 -8.607859
v 3.740029 17.972351 -0.004387
v 1.810761 18.762901 -8.607859
v 1.810761 18.762901 -0.004387
v 1.011621 20.671459 -8.607859
v 1.011621 20.671459 -0.004387
v 1.810761 22.580017 -8.607859
v 1.810761 22.580017 -0.004387
v 3.740029 23.370567 -8.607859
v 3.740029 23.370567 -0.004387
v 5.669304 22.580017 -8.607859
v 5.669304 22.580017 -0.004387
v 6.463892 2.431453 -8.607859
v 5.664752 0.522899 -8.607859
v 6.463892 2.431453 -0.004387
v 3.735476 2.431453 -0.004387
v 5.664752 0.522899 -0.004387
v 3.735476 -0.267651 -8.607859
v 3.735476 -0.267651 -0.004387
v 1.806209 0.522899 -8.607859
v 1.806209 0.522899 -0.004387
v 1.007068 2.431453 -8.607859
v 1.007068 2.431453 -0.004387
v 1.806209 4.340013 -8.607859
v 1.806209 4.340013 -0.004387
v 3.735476 5.130561 -8.607859
v 3.735476 5.130561 -0.004387
v 5.664752 4.340013 -8.607859
v 5.664752 4.340013 -0.004387
# 34 vertices

vt 0.000000 1.000000
vt 0.000000 0.000000
vt 0.125000 0.000000
vt 0.125000 1.000000
vt 0.250000 1.000000
vt 0.250000 0.000000
vt 0.375000 0.000000
vt 0.375000 1.000000
vt 0.500000 1.000000
vt 0.500000 0.000000
vt 0.625000 0.000000
vt 0.625000 1.000000
vt 0.750000 1.000000
vt 0.750000 0.000000
vt 0.875000 0.000000
vt 0.875000 1.000000
vt 1.000000 1.000000
vt 1.000000 0.000000
# 18 texture coordinates

vn 0.000000 -0.000000 1.000000
vn 1.000000 0.000000 0.000000
vn 0.704401 -0.709802 0.000000
vn -0.000001 -1.000000 0.000000
vn -0.704402 -0.709802 0.000000
vn -1.000000 0.000000 0.000000
vn -0.704402 0.709802 0.000000
vn -0.000001 1.000000 0.000000
vn 0.704401 0.709802 0.000000
# 9 normals

g :
s 2
f 3/1/1 4/1/1 5/1/1
s 1
f 1/2/2 3/1/2 2/3/3
f 3/1/2 5/4/3 2/3/3
s 2
f 5/1/1 4/1/1 7/1/1
s 1
f 2/3/3 5/4/3 7/5/4
f 2/3/3 7/5/4 6/6/4
s 2
f 7/1/1 4/1/1 9/1/1
s 1
f 6/6/4 7/5/4 8/7/5
f 7/5/4 9/8/5 8/7/5
s 2
f 9/1/1 4/1/1 11/1/1
s 1
f 8/7/5 9/8/5 11/9/6
f 8/7/5 11/9/6 10/10/6
s 2
f 11/1/1 4/1/1 13/1/1
s 1
f 10/10/6 11/9/6 12/11/7
f 11/9/6 13/12/7 12/11/7
s 2
f 13/1/1 4/1/1 15/1/1
s 1
f 12/11/7 13/12/7 15/13/8
f 12/11/7 15/13/8 14/14/8
s 2
f 15/1/1 4/1/1 17/1/1
s 1
f 14/14/8 15/13/8 16/15/9
f 15/13/8 17/16/9 16/15/9
s 2
f 17/1/1 4/1/1 3/1/1
s 1
f 16/15/9 17/16/9 3/17/2
f 16/15/9 3/17/2 1/18/2
s 2
f 20/1/1 21/1/1 22/1/1
s 1
f 18/2/2 20/1/2 19/3/3
f 20/1/2 22/4/3 19/3/3
s 2
f 22/1/1 21/1/1 24/1/1
s 1
f 19/3/3 22/4/3 24/5/4
f 19/3/3 24/5/4 23/6/4
s 2
f 24/1/1 21/1/1 26/1/1
s 1
f 23/6/4 24/5/4 25/7/5
f 24/5/4 26/8/5 25/7/5
s 2
f 26/1/1 21/1/1 28/1/1
s 1
f 25/7/5 26/8/5 28/9/6
f 25/7/5 28/9/6 27/10/6
s 2
f 28/1/1 21/1/1 30/1/1
s 1
f 27/10/6 28/9/6 29/11/7
f 28/9/6 30/12/7 29/11/7
s 2
f 30/1/1 21/1/1 32/1/1
s 1
f 29/11/7 30/12/7 32/13/8
f 29/11/7 32/13/8 31/14/8
s 2
f 32/1/1 21/1/1 34/1/1
s 1
f 31/14/8 32/13/8 33/15/9
f 32/13/8 34/16/9 33/15/9
s 2
f 34/1/1 21/1/1 20/1/1
s 1
f 33/15/9 34/16/9 20/17/2
f 33/15/9 20/17/2 18/18/2
# 48 triangles in group

# 48 triangles total

