# Wavefront OBJ exported by MilkShape 3D

v 7.582410 3.456674 -8.601736
v 5.649945 0.681453 -8.601736
v 7.582410 3.456674 0.001735
v 3.720670 2.590007 0.001735
v 5.649945 0.681453 0.001734
v 3.720670 -0.109097 -8.601736
v 3.720670 -0.109097 0.001735
v 1.791394 0.681453 -8.601736
v 1.791394 0.681453 0.001734
v 0.992265 2.590007 -8.601736
v 0.992265 2.590007 0.001735
v 1.724725 4.498568 -8.601736
v 1.724725 4.498568 0.001735
v 3.654000 5.422449 -8.601736
v 3.654000 5.422449 0.001735
v 5.849943 5.031900 -8.601736
v 5.849943 5.031900 0.001735
v 8.438148 0.708451 -8.601728
v 8.438148 0.708451 0.001727
v 6.434190 -0.013243 -8.601728
v 6.434190 -0.013243 0.001727
v 7.868143 -2.387352 -8.601728
v 7.868143 -2.387352 0.001727
v 6.204217 -2.061200 -8.601728
v 6.204217 -2.061200 0.001727
v 6.411249 -4.569682 -8.601728
v 6.411249 -4.569682 0.001727
v 5.181115 -3.958860 -8.601728
v 5.181115 -3.958860 0.001727
v 4.533436 -6.164447 -8.601728
v 4.533436 -6.164447 0.001727
v 3.778951 -5.324115 -8.601728
v 3.778951 -5.324115 0.001727
v 1.225645 -7.573570 -8.601728
v 1.225645 -7.573570 0.001727
v 1.246717 -6.634953 -8.601728
v 1.246717 -6.634953 0.001727
# 37 vertices

vt 0.000000 1.000000
vt 0.000000 0.000000
vt 0.125000 0.000000
vt 0.125000 1.000000
vt 0.250000 1.000000
vt 0.250000 0.000000
vt 0.375000 0.000000
vt 0.375000 1.000000
vt 0.500000 1.000000
vt 0.500000 0.000000
vt 0.625000 0.000000
vt 0.625000 1.000000
vt 0.750000 1.000000
vt 0.750000 0.000000
vt 0.875000 0.000000
vt 0.875000 1.000000
vt 1.000000 1.000000
vt 1.000000 0.000000
# 18 texture coordinates

vn 0.529620 0.164911 0.832050
vn 0.000000 -0.000000 1.000000
vn -0.160818 -0.181552 0.970142
vn -0.999748 0.022445 0.000000
vn 0.379167 -0.925328 0.000000
vn 0.000000 -1.000000 0.000000
vn -0.704403 -0.709801 0.000000
vn -0.999887 -0.015043 0.000000
vn -0.734873 0.678205 0.000000
vn -0.134885 0.990861 0.000000
vn 0.441216 0.897401 0.000000
vn 0.672733 0.739886 0.000000
vn 0.989938 0.141498 0.000000
vn 0.954784 0.297300 0.000000
vn 0.697616 -0.015488 0.716305
vn -0.574586 -0.343160 0.743029
vn -0.663077 -0.748551 0.000000
vn -0.980917 -0.194425 0.000000
vn 0.950249 -0.311490 0.000000
vn 0.629600 -0.307213 0.713599
vn -0.681428 0.165798 0.712858
vn -0.933186 0.359395 0.000000
vn 0.776901 -0.629623 0.000000
vn 0.503338 -0.492286 0.710145
vn -0.582350 0.394604 0.710744
vn -0.766346 0.642428 0.000000
vn 0.567905 -0.823094 0.000000
vn 0.339031 -0.616442 0.710674
vn -0.439320 0.549702 0.710511
vn -0.544244 0.838927 0.000000
vn 0.391921 -0.919999 0.000000
vn 0.175272 -0.411436 0.894427
vn -0.411183 0.794310 0.447214
vn -0.459717 0.888066 0.000000
# 34 normals

g ,
s 2
f 3/1/1 4/1/2 5/1/3
s 1
f 34/2/4 35/1/4 36/3/4
f 35/1/4 37/4/4 36/3/4
s 2
f 5/1/3 4/1/2 7/1/2
s 1
f 2/3/5 5/4/5 7/5/6
f 2/3/5 7/5/6 6/6/6
s 2
f 7/1/2 4/1/2 9/1/2
s 1
f 6/6/6 7/5/6 8/7/7
f 7/5/6 9/8/7 8/7/7
s 2
f 9/1/2 4/1/2 11/1/2
s 1
f 8/7/7 9/8/7 11/9/8
f 8/7/7 11/9/8 10/10/8
s 2
f 11/1/2 4/1/2 13/1/2
s 1
f 10/10/8 11/9/8 12/11/9
f 11/9/8 13/12/9 12/11/9
s 2
f 13/1/2 4/1/2 15/1/2
s 1
f 12/11/9 13/12/9 15/13/10
f 12/11/9 15/13/10 14/14/10
s 2
f 15/1/2 4/1/2 17/1/2
s 1
f 14/14/10 15/13/10 16/15/11
f 15/13/10 17/16/11 16/15/11
s 2
f 17/1/2 4/1/2 3/1/1
s 1
f 16/15/11 17/16/11 3/17/12
f 16/15/11 3/17/12 1/18/12
s 2
f 18/1/13 1/1/14 3/1/1
f 18/1/13 3/1/1 19/1/15
f 19/1/15 3/1/1 5/1/3
f 19/1/15 5/1/3 21/1/16
f 21/1/16 5/1/3 2/1/17
f 21/1/16 2/1/17 20/1/18
f 22/1/19 18/1/13 19/1/15
f 22/1/19 19/1/15 23/1/20
f 23/1/20 19/1/15 21/1/16
f 23/1/20 21/1/16 25/1/21
f 25/1/21 21/1/16 20/1/18
f 25/1/21 20/1/18 24/1/22
f 26/1/23 22/1/19 23/1/20
f 26/1/23 23/1/20 27/1/24
f 27/1/24 23/1/20 25/1/21
f 27/1/24 25/1/21 29/1/25
f 29/1/25 25/1/21 24/1/22
f 29/1/25 24/1/22 28/1/26
f 30/1/27 26/1/23 27/1/24
f 30/1/27 27/1/24 31/1/28
f 31/1/28 27/1/24 29/1/25
f 31/1/28 29/1/25 33/1/29
f 33/1/29 29/1/25 28/1/26
f 33/1/29 28/1/26 32/1/30
f 34/1/31 30/1/27 31/1/28
f 34/1/31 31/1/28 35/1/32
f 35/1/32 31/1/28 33/1/29
f 35/1/32 33/1/29 37/1/33
f 37/1/33 33/1/29 32/1/30
f 37/1/33 32/1/30 36/1/34
# 54 triangles in group

# 54 triangles total

