# Wavefront OBJ exported by MilkShape 3D

v 1.003437 13.306026 0.022696
v 1.003437 9.840685 0.022696
v 13.370972 13.306026 0.022696
v 13.370972 9.840685 0.022696
v 13.370972 13.306026 -8.611586
v 13.370972 9.840685 -8.611586
v 1.003437 13.306026 -8.611586
v 1.003437 9.840685 -8.611586
# 8 vertices

vt 0.000000 1.000000
vt 0.000000 0.000000
vt 1.000000 1.000000
vt 1.000000 0.000000
# 4 texture coordinates

vn 0.000000 0.000000 1.000000
vn 1.000000 0.000000 0.000000
vn -1.000000 0.000000 0.000000
vn 0.000000 1.000000 0.000000
vn 0.000000 -1.000000 0.000000
# 5 normals

g -
s 1
f 1/1/1 2/2/1 3/3/1
f 2/2/1 4/4/1 3/3/1
s 2
f 3/1/2 4/2/2 5/3/2
f 4/2/2 6/4/2 5/3/2
f 7/1/3 8/2/3 1/3/3
f 8/2/3 2/4/3 1/3/3
s 3
f 7/1/4 1/2/4 5/3/4
f 1/2/4 3/4/4 5/3/4
f 2/1/5 8/2/5 4/3/5
f 8/2/5 6/4/5 4/3/5
# 10 triangles in group

# 10 triangles total

