# Wavefront OBJ exported by MilkShape 3D

v 18.822977 16.142849 -8.562344
v 13.970932 16.058283 -8.562344
v 3.346148 16.078100 -8.562344
v 18.822977 16.142849 -0.011557
v 13.970932 16.058283 -0.011557
v 3.346148 16.078100 -0.011557
v 18.822971 14.591747 -0.011557
v 13.970926 14.583147 -0.011557
v 3.346144 14.609903 -0.011557
v 18.822971 14.591747 -8.562344
v 13.970926 14.583147 -8.562344
v 3.346144 14.609903 -8.562344
v 18.261206 18.681118 -8.562342
v 13.896337 17.433117 -8.562342
v 13.896337 17.433117 -0.011558
v 18.261206 18.681118 -0.011558
v 17.318159 20.376499 -8.562342
v 13.566640 18.812294 -8.562342
v 13.566640 18.812294 -0.011558
v 17.318159 20.376499 -0.011558
v 15.433443 22.433758 -8.562342
v 12.724044 20.388611 -8.562342
v 12.724044 20.388611 -0.011558
v 15.433443 22.433758 -0.011558
v 12.871807 23.638416 -8.562342
v 11.740197 21.326790 -8.562342
v 11.740197 21.326790 -0.011558
v 12.871807 23.638416 -0.011558
v 10.207657 23.918941 -8.562342
v 10.177055 22.117733 -8.562342
v 10.177055 22.117733 -0.011558
v 10.207657 23.918941 -0.011558
v 7.962320 23.700863 -8.562342
v 8.467806 22.289227 -8.562342
v 8.467806 22.289227 -0.011558
v 7.962320 23.700863 -0.011558
v 6.165314 23.090565 -8.562342
v 6.810241 21.781506 -8.562342
v 6.810241 21.781506 -0.011558
v 6.165314 23.090565 -0.011558
v 4.278034 22.062767 -8.562342
v 5.288451 20.666393 -8.562342
v 5.288451 20.666393 -0.011558
v 4.278034 22.062767 -0.011558
v 2.201641 19.886539 -8.562342
v 4.046675 18.836391 -8.562342
v 4.046675 18.836391 -0.011558
v 2.201641 19.886539 -0.011558
v 0.908935 17.303215 -8.562342
v 3.384833 16.854416 -8.562342
v 3.384833 16.854416 -0.011558
v 0.908935 17.303215 -0.011558
v 0.139993 14.048355 -8.562342
v 3.381045 13.866932 -8.562342
v 3.381045 13.866932 -0.011558
v 0.139993 14.048355 -0.011558
v -0.002736 11.097929 -8.562342
v 3.614718 11.599941 -8.562342
v 3.614718 11.599941 -0.011558
v -0.002736 11.097929 -0.011558
v 0.573175 7.163283 -8.562342
v 4.402429 8.733259 -8.562342
v 4.402429 8.733259 -0.011558
v 0.573175 7.163283 -0.011558
v 2.240741 3.609011 -8.562342
v 5.871195 6.464458 -8.562342
v 5.871195 6.464458 -0.011558
v 2.240741 3.609011 -0.011558
v 4.882103 1.186240 -8.562342
v 7.593437 5.067348 -8.562342
v 7.593437 5.067348 -0.011558
v 4.882103 1.186240 -0.011558
v 7.171752 0.121608 -8.562342
v 8.712864 4.408370 -8.562342
v 8.712864 4.408370 -0.011558
v 7.171752 0.121608 -0.011558
v 9.238486 -0.215042 -8.562342
v 9.646144 4.092894 -8.562342
v 9.646144 4.092894 -0.011558
v 9.238486 -0.215042 -0.011558
v 11.077306 -0.177414 -8.562342
v 10.807318 3.915515 -8.562342
v 10.807318 3.915515 -0.011558
v 11.077306 -0.177414 -0.011558
v 13.532002 0.661880 -8.562342
v 12.716297 3.868193 -8.562342
v 12.716297 3.868193 -0.011558
v 13.532002 0.661880 -0.011558
v 15.912931 2.605452 -8.562342
v 14.653532 4.486773 -8.562342
v 14.653532 4.486773 -0.011558
v 15.912931 2.605452 -0.011558
v 18.091059 5.977607 -8.562342
v 16.793602 6.471786 -8.562342
v 16.793602 6.471786 -0.011558
v 18.091059 5.977607 -0.011558
v 18.860521 8.928715 -8.562342
v 18.205936 9.297129 -8.562342
v 18.205936 9.297129 -0.011558
v 18.860521 8.928715 -0.011558
# 100 vertices

vt 0.000000 1.000000
vt 0.000000 0.000000
vt 0.000000 0.500000
vt 0.250000 0.500000
vt 0.250000 0.000000
vt 0.250000 1.000000
vt 0.500000 0.000000
vt 0.500000 0.500000
vt 0.500000 1.000000
vt 0.750000 0.500000
vt 0.750000 0.000000
vt 0.750000 1.000000
# 12 texture coordinates

vn 0.994076 0.108688 0.000000
vn 0.700826 0.076626 0.709204
vn 1.000000 -0.000004 0.000000
vn 0.490474 0.871456 0.000000
vn 0.001865 0.999998 0.000000
vn 0.000834 0.447213 0.894427
vn 0.001319 0.707106 0.707107
vn 0.000000 0.000000 1.000000
vn 0.001253 -0.707106 0.707107
vn -0.000264 -0.707106 0.707108
vn -0.001781 -0.707105 0.707107
vn -0.000373 -1.000000 0.000000
vn 0.001772 -0.999998 0.000000
vn -0.002518 -0.999997 0.000000
vn -0.993477 -0.114032 0.000000
vn -0.998531 -0.054178 0.000000
vn -0.893114 -0.048458 0.447214
vn -0.695097 -0.122594 0.708386
vn 0.669356 0.217452 0.710406
vn 0.916593 0.399822 0.000000
vn -0.949281 -0.314429 0.000000
vn -0.647333 -0.278038 0.709686
vn 0.587539 0.389552 0.709258
vn 0.787654 0.616118 0.000000
vn -0.827263 -0.561815 0.000000
vn -0.536191 -0.454815 0.711086
vn 0.451672 0.536215 0.713068
vn 0.538533 0.842604 0.000000
vn -0.616445 -0.787398 0.000000
vn -0.377288 -0.594026 0.710484
vn 0.226695 0.665107 0.711507
vn 0.214324 0.976763 0.000000
vn -0.339369 -0.940653 0.000000
vn -0.154635 -0.684484 0.712439
vn 0.026639 0.705001 0.708705
vn -0.029675 0.999560 0.000000
vn 0.031622 -0.999500 0.000000
vn 0.115536 -0.691265 0.713305
vn -0.121726 0.694424 0.709195
vn -0.248073 0.968741 0.000000
vn 0.397213 -0.917727 0.000000
vn 0.349831 -0.609392 0.711519
vn -0.264754 0.654427 0.708259
vn -0.427431 0.904048 0.000000
vn 0.678672 -0.734442 0.000000
vn 0.532836 -0.457775 0.711707
vn -0.398107 0.579786 0.710886
vn -0.648677 0.761064 0.000000
vn 0.875103 -0.483937 0.000000
vn 0.644848 -0.282832 0.710054
vn -0.554571 0.433021 0.710594
vn -0.845679 0.533692 0.000000
vn 0.976828 -0.214025 0.000000
vn 0.698950 -0.075684 0.711155
vn -0.652903 0.265939 0.709221
vn -0.952589 0.304261 0.000000
vn 0.999443 0.033373 0.000000
vn 0.705045 0.048065 0.707532
vn -0.695504 0.119997 0.708432
vn -0.994013 0.109260 0.000000
vn 0.987574 0.157153 0.000000
vn 0.690064 0.149298 0.708182
vn -0.705538 -0.011382 0.708580
vn -0.996732 -0.080781 0.000000
vn 0.932354 0.361547 0.000000
vn 0.626247 0.320293 0.710794
vn -0.683069 -0.169191 0.710487
vn -0.942349 -0.334632 0.000000
vn 0.778171 0.628053 0.000000
vn 0.497564 0.496903 0.710998
vn -0.591041 -0.377084 0.713077
vn -0.765276 -0.643702 0.000000
vn 0.590560 0.806994 0.000000
vn 0.388116 0.590020 0.707985
vn -0.420216 -0.564064 0.710810
vn -0.511748 -0.859135 0.000000
vn 0.447050 0.894509 0.000000
vn 0.271168 0.651234 0.708775
vn -0.237636 -0.662840 0.710051
vn -0.249799 -0.968298 0.000000
vn 0.264715 0.964327 0.000000
vn 0.146912 0.690454 0.708301
vn -0.071097 -0.702214 0.708407
vn -0.040098 -0.999196 0.000000
vn 0.109127 0.994028 0.000000
vn 0.047317 0.704888 0.707738
vn 0.086356 -0.698015 0.710857
vn 0.224883 -0.974386 0.000000
vn -0.085933 0.996301 0.000000
vn -0.138403 0.688936 0.711485
vn 0.303675 -0.633048 0.712062
vn 0.536919 -0.843634 0.000000
vn -0.438804 0.898583 0.000000
vn -0.396468 0.576249 0.714668
vn 0.498788 -0.495746 0.710948
vn 0.779237 -0.626729 0.000000
vn -0.762425 0.647076 0.000000
vn -0.586122 0.386340 0.712181
vn 0.627576 -0.317016 0.711090
vn 0.935614 -0.353026 0.000000
vn -0.894470 0.447128 0.000000
vn -0.400019 0.199962 0.894427
vn 0.865491 -0.225665 0.447214
vn 0.967649 -0.252302 0.000000
# 104 normals

g e
s 2
f 1/1/1 4/1/2 7/1/3
s 1
f 97/2/4 98/3/4 99/4/4
f 97/2/4 99/4/4 100/5/4
f 2/3/5 3/1/5 5/4/6
f 3/1/5 6/6/7 5/4/6
f 4/5/8 5/4/6 7/7/9
f 5/4/6 8/8/10 7/7/9
f 5/4/6 6/6/7 9/9/11
f 5/4/6 9/9/11 8/8/10
f 7/7/9 8/8/10 11/10/12
f 7/7/9 11/10/12 10/11/13
f 8/8/10 9/9/11 11/10/12
f 9/9/11 12/12/14 11/10/12
s 2
f 10/1/3 1/1/1 7/1/3
f 14/1/15 2/1/16 5/1/17
f 14/1/15 5/1/17 15/1/18
f 15/1/18 5/1/17 4/1/2
f 15/1/18 4/1/2 16/1/19
f 16/1/19 4/1/2 1/1/1
f 16/1/19 1/1/1 13/1/20
f 18/1/21 14/1/15 15/1/18
f 18/1/21 15/1/18 19/1/22
f 19/1/22 15/1/18 16/1/19
f 19/1/22 16/1/19 20/1/23
f 20/1/23 16/1/19 13/1/20
f 20/1/23 13/1/20 17/1/24
f 22/1/25 18/1/21 19/1/22
f 22/1/25 19/1/22 23/1/26
f 23/1/26 19/1/22 20/1/23
f 23/1/26 20/1/23 24/1/27
f 24/1/27 20/1/23 17/1/24
f 24/1/27 17/1/24 21/1/28
f 26/1/29 22/1/25 23/1/26
f 26/1/29 23/1/26 27/1/30
f 27/1/30 23/1/26 24/1/27
f 27/1/30 24/1/27 28/1/31
f 28/1/31 24/1/27 21/1/28
f 28/1/31 21/1/28 25/1/32
f 30/1/33 26/1/29 27/1/30
f 30/1/33 27/1/30 31/1/34
f 31/1/34 27/1/30 28/1/31
f 31/1/34 28/1/31 32/1/35
f 32/1/35 28/1/31 25/1/32
f 32/1/35 25/1/32 29/1/36
f 34/1/37 30/1/33 31/1/34
f 34/1/37 31/1/34 35/1/38
f 35/1/38 31/1/34 32/1/35
f 35/1/38 32/1/35 36/1/39
f 36/1/39 32/1/35 29/1/36
f 36/1/39 29/1/36 33/1/40
f 38/1/41 34/1/37 35/1/38
f 38/1/41 35/1/38 39/1/42
f 39/1/42 35/1/38 36/1/39
f 39/1/42 36/1/39 40/1/43
f 40/1/43 36/1/39 33/1/40
f 40/1/43 33/1/40 37/1/44
f 42/1/45 38/1/41 39/1/42
f 42/1/45 39/1/42 43/1/46
f 43/1/46 39/1/42 40/1/43
f 43/1/46 40/1/43 44/1/47
f 44/1/47 40/1/43 37/1/44
f 44/1/47 37/1/44 41/1/48
f 46/1/49 42/1/45 43/1/46
f 46/1/49 43/1/46 47/1/50
f 47/1/50 43/1/46 44/1/47
f 47/1/50 44/1/47 48/1/51
f 48/1/51 44/1/47 41/1/48
f 48/1/51 41/1/48 45/1/52
f 50/1/53 46/1/49 47/1/50
f 50/1/53 47/1/50 51/1/54
f 51/1/54 47/1/50 48/1/51
f 51/1/54 48/1/51 52/1/55
f 52/1/55 48/1/51 45/1/52
f 52/1/55 45/1/52 49/1/56
f 54/1/57 50/1/53 51/1/54
f 54/1/57 51/1/54 55/1/58
f 55/1/58 51/1/54 52/1/55
f 55/1/58 52/1/55 56/1/59
f 56/1/59 52/1/55 49/1/56
f 56/1/59 49/1/56 53/1/60
f 58/1/61 54/1/57 55/1/58
f 58/1/61 55/1/58 59/1/62
f 59/1/62 55/1/58 56/1/59
f 59/1/62 56/1/59 60/1/63
f 60/1/63 56/1/59 53/1/60
f 60/1/63 53/1/60 57/1/64
f 62/1/65 58/1/61 59/1/62
f 62/1/65 59/1/62 63/1/66
f 63/1/66 59/1/62 60/1/63
f 63/1/66 60/1/63 64/1/67
f 64/1/67 60/1/63 57/1/64
f 64/1/67 57/1/64 61/1/68
f 66/1/69 62/1/65 63/1/66
f 66/1/69 63/1/66 67/1/70
f 67/1/70 63/1/66 64/1/67
f 67/1/70 64/1/67 68/1/71
f 68/1/71 64/1/67 61/1/68
f 68/1/71 61/1/68 65/1/72
f 70/1/73 66/1/69 67/1/70
f 70/1/73 67/1/70 71/1/74
f 71/1/74 67/1/70 68/1/71
f 71/1/74 68/1/71 72/1/75
f 72/1/75 68/1/71 65/1/72
f 72/1/75 65/1/72 69/1/76
f 74/1/77 70/1/73 71/1/74
f 74/1/77 71/1/74 75/1/78
f 75/1/78 71/1/74 72/1/75
f 75/1/78 72/1/75 76/1/79
f 76/1/79 72/1/75 69/1/76
f 76/1/79 69/1/76 73/1/80
f 78/1/81 74/1/77 75/1/78
f 78/1/81 75/1/78 79/1/82
f 79/1/82 75/1/78 76/1/79
f 79/1/82 76/1/79 80/1/83
f 80/1/83 76/1/79 73/1/80
f 80/1/83 73/1/80 77/1/84
f 82/1/85 78/1/81 79/1/82
f 82/1/85 79/1/82 83/1/86
f 83/1/86 79/1/82 80/1/83
f 83/1/86 80/1/83 84/1/87
f 84/1/87 80/1/83 77/1/84
f 84/1/87 77/1/84 81/1/88
f 86/1/89 82/1/85 83/1/86
f 86/1/89 83/1/86 87/1/90
f 87/1/90 83/1/86 84/1/87
f 87/1/90 84/1/87 88/1/91
f 88/1/91 84/1/87 81/1/88
f 88/1/91 81/1/88 85/1/92
f 90/1/93 86/1/89 87/1/90
f 90/1/93 87/1/90 91/1/94
f 91/1/94 87/1/90 88/1/91
f 91/1/94 88/1/91 92/1/95
f 92/1/95 88/1/91 85/1/92
f 92/1/95 85/1/92 89/1/96
f 94/1/97 90/1/93 91/1/94
f 94/1/97 91/1/94 95/1/98
f 95/1/98 91/1/94 92/1/95
f 95/1/98 92/1/95 96/1/99
f 96/1/99 92/1/95 89/1/96
f 96/1/99 89/1/96 93/1/100
f 98/1/101 94/1/97 95/1/98
f 98/1/101 95/1/98 99/1/102
f 99/1/102 95/1/98 96/1/99
f 99/1/102 96/1/99 100/1/103
f 100/1/103 96/1/99 93/1/100
f 100/1/103 93/1/100 97/1/104
# 146 triangles in group

# 146 triangles total

