# Wavefront OBJ exported by MilkShape 3D

v 20.330271 21.936237 -8.576160
v 20.330271 21.936237 -0.007170
v 20.330256 20.874960 -4.291666
v 12.120423 20.085590 -8.576160
v 12.494836 19.211069 -4.291666
v 12.120423 20.085590 -0.007170
v 14.472842 21.891724 -8.576160
v 14.472842 21.891724 -0.007170
v 20.330259 19.917665 -0.007170
v 12.869940 18.334639 -0.007172
v 16.253033 19.859573 -0.007172
v 20.330259 19.917665 -8.576160
v 12.869940 18.334639 -8.576159
v 16.253033 19.859573 -8.576159
v 12.120404 20.085609 -0.007173
v 12.494855 19.211086 -4.291666
v 12.120404 20.085609 -8.576157
v 12.059033 23.389389 -8.576157
v 10.874772 21.685133 -8.576157
v 12.059033 23.389389 -0.007173
v 10.874772 21.685133 -0.007173
v 9.073125 23.794294 -8.576157
v 9.382476 22.501026 -8.576157
v 9.073125 23.794294 -0.007173
v 9.382476 22.501026 -0.007173
v 6.375578 23.549114 -8.576157
v 7.427877 22.520130 -8.576157
v 6.375578 23.549114 -0.007173
v 7.427877 22.520130 -0.007173
v 3.701343 22.410055 -8.576157
v 5.493414 21.398514 -8.576157
v 3.701343 22.410055 -0.007173
v 5.493414 21.398514 -0.007173
v 1.259846 20.129219 -8.576157
v 4.239170 18.977043 -8.576157
v 1.259846 20.129219 -0.007173
v 4.239170 18.977043 -0.007173
v 0.006613 17.042791 -8.576157
v 4.101116 16.909060 -8.576157
v 0.006613 17.042791 -0.007173
v 4.101116 16.909060 -0.007173
v -0.020067 14.004459 -8.576157
v 4.171299 14.340832 -8.576157
v -0.020067 14.004459 -0.007173
v 4.171299 14.340832 -0.007173
v 0.897724 11.450768 -8.576157
v 4.383930 13.006121 -8.576157
v 0.897724 11.450768 -0.007173
v 4.383930 13.006121 -0.007173
v 2.414600 9.510875 -8.576157
v 5.345358 10.831516 -8.576157
v 2.414600 9.510875 -0.007173
v 5.345358 10.831516 -0.007173
v 4.098431 8.391093 -8.576157
v 6.052847 9.916626 -8.576157
v 4.098431 8.391093 -0.007173
v 6.052847 9.916626 -0.007173
v 5.316031 7.904778 -8.576157
v 6.487402 9.408198 -8.576157
v 5.316031 7.904778 -0.007173
v 6.487402 9.408198 -0.007173
v 7.092649 7.552626 -8.576157
v 7.667288 8.765670 -8.576157
v 7.092649 7.552626 -0.007173
v 7.667288 8.765670 -0.007173
v 10.609571 7.506320 -8.576157
v 10.324254 8.721593 -8.576157
v 10.609571 7.506320 -0.007173
v 10.324254 8.721593 -0.007173
v 13.577273 8.517795 -8.576157
v 12.139192 10.061255 -8.576157
v 13.577273 8.517795 -0.007173
v 12.139192 10.061255 -0.007173
v 15.966784 10.667673 -8.576157
v 13.140967 11.980736 -8.576157
v 15.966784 10.667673 -0.007173
v 13.140967 11.980736 -0.007173
v 17.134081 12.905338 -8.576157
v 13.278010 13.631552 -8.576157
v 17.134081 12.905338 -0.007173
v 13.278010 13.631552 -0.007173
v 17.389643 15.455236 -8.576157
v 13.283290 15.331814 -8.576157
v 17.389643 15.455236 -0.007173
v 13.283290 15.331814 -0.007173
v 17.098230 17.841209 -8.576157
v 13.226874 16.653448 -8.576157
v 17.098230 17.841209 -0.007173
v 13.226874 16.653448 -0.007173
v 3.373623 5.711459 -0.007173
v 2.127781 6.424679 -0.007173
v 2.127781 6.424679 -8.576157
v 3.373623 5.711459 -8.576157
v 3.472179 4.765990 -0.007173
v 0.724898 4.838137 -0.007173
v 0.724898 4.838137 -8.576157
v 3.472179 4.765990 -8.576157
v 3.696880 4.306666 -0.007173
v 0.239363 3.127141 -0.007173
v 0.239363 3.127141 -8.576157
v 3.696880 4.306666 -8.576157
v 4.005749 3.920831 -0.007173
v 0.626150 1.704454 -0.007173
v 0.626150 1.704454 -8.576157
v 4.005749 3.920831 -8.576157
v 4.235523 3.739639 -0.007173
v 2.483356 0.167482 -0.007173
v 2.483356 0.167482 -8.576157
v 4.235523 3.739639 -8.576157
v 5.583342 3.558761 -0.007173
v 3.831203 -0.013343 -0.007173
v 3.831203 -0.013343 -8.576157
v 5.583342 3.558761 -8.576157
v 9.716622 3.223598 -0.007173
v 9.176206 -0.491987 -0.007173
v 9.176206 -0.491987 -8.576157
v 9.716622 3.223598 -8.576157
v 15.642371 2.992235 -0.007173
v 14.467799 -0.712744 -0.007173
v 14.467799 -0.712744 -8.576157
v 15.642371 2.992235 -8.576157
v 17.618402 2.233537 -0.007173
v 16.665697 -1.039153 -0.007173
v 16.665697 -1.039153 -8.576157
v 17.618402 2.233537 -8.576157
v 19.189447 0.977650 -0.007173
v 17.616377 -1.410990 -0.007173
v 17.616377 -1.410990 -8.576157
v 19.189447 0.977650 -8.576157
v 20.245203 -1.377009 -0.007173
v 18.299742 -2.040446 -0.007173
v 18.299742 -2.040446 -8.576157
v 20.245203 -1.377009 -8.576157
v 20.252268 -3.977184 -0.007173
v 18.640505 -3.871302 -0.007173
v 18.640505 -3.871302 -8.576157
v 20.252268 -3.977184 -8.576157
v 18.374708 -6.986932 -0.007173
v 17.213663 -6.196871 -0.007173
v 17.213663 -6.196871 -8.576157
v 18.374708 -6.986932 -8.576157
v 16.286348 -8.768112 -0.007173
v 15.215030 -7.490257 -0.007173
v 15.215030 -7.490257 -8.576157
v 16.286348 -8.768112 -8.576157
v 13.142383 -10.389161 -0.007173
v 12.619855 -8.129967 -0.007173
v 12.619855 -8.129967 -8.576157
v 13.142383 -10.389161 -8.576157
v 9.967095 -11.145799 -0.007173
v 9.795125 -8.277649 -0.007173
v 9.795125 -8.277649 -8.576157
v 9.967095 -11.145799 -8.576157
v 5.417395 -11.122331 -0.007173
v 6.257879 -8.029846 -0.007173
v 6.257879 -8.029846 -8.576157
v 5.417395 -11.122331 -8.576157
v 1.399365 -9.884202 -0.007173
v 3.493320 -7.097672 -0.007173
v 3.493320 -7.097672 -8.576157
v 1.399365 -9.884202 -8.576157
v -1.155161 -8.105484 -0.007173
v 1.873966 -5.801775 -0.007173
v 1.873966 -5.801775 -8.576157
v -1.155161 -8.105484 -8.576157
v -1.943363 -6.605096 -0.007173
v 1.531697 -5.131861 -0.007173
v 1.531697 -5.131861 -8.576157
v -1.943363 -6.605096 -8.576157
v -1.577350 -5.049746 -0.007173
v 1.513500 -4.969049 -0.007173
v 1.513500 -4.969049 -8.576157
v -1.577350 -5.049746 -8.576157
v -0.832186 -3.709052 -0.007173
v 1.464009 -4.320314 -0.007173
v 1.464009 -4.320314 -8.576157
v -0.832186 -3.709052 -8.576157
v 0.635908 -2.031981 -0.007173
v 1.822041 -3.013240 -0.007173
v 1.822041 -3.013240 -8.576157
v 0.635908 -2.031981 -8.576157
v 2.884067 0.652017 -0.007173
v 4.095646 0.271066 -0.007173
v 4.095646 0.271066 -8.576157
v 2.884067 0.652017 -8.576157
# 185 vertices

vt 0.000000 1.000000
vt 0.000000 0.000000
vt 0.000000 0.500000
vt 0.250000 0.500000
vt 0.250000 0.000000
vt 0.250000 1.000000
vt 0.500000 0.000000
vt 0.500000 0.500000
vt 0.500000 1.000000
vt 0.750000 0.500000
vt 0.750000 0.000000
vt 0.750000 1.000000
# 12 texture coordinates

vn 1.000000 -0.000010 0.000001
vn -0.861242 -0.508194 0.000000
vn -0.919290 -0.393580 0.000000
vn -0.794944 -0.516461 0.318328
vn -0.007599 0.999971 0.000000
vn -0.003398 0.447200 0.894427
vn -0.005374 0.707086 0.707107
vn 0.149240 -0.988801 0.000000
vn -0.410934 0.911665 0.000000
vn -0.194372 -0.043234 0.979975
vn 0.183776 -0.407709 0.894427
vn -0.783551 -0.276679 0.556324
vn 0.010074 -0.707035 0.707107
vn 0.000001 -0.000001 1.000000
vn -0.953301 -0.302022 0.000005
vn 0.014247 -0.999898 0.000000
vn 0.712818 -0.087472 0.695873
vn 0.396816 0.511175 0.762389
vn 0.935906 -0.350270 -0.037295
vn 0.935733 -0.350763 0.036991
vn -0.252206 -0.107961 0.961632
vn 0.695843 -0.114015 -0.709086
vn 0.353850 0.510579 -0.783645
vn -0.326843 -0.139910 -0.934665
vn 0.282959 0.640360 0.714054
vn 0.235779 0.380011 0.894427
vn 0.527220 0.849729 0.000000
vn 0.270615 0.962688 0.000000
vn -0.698808 -0.715309 0.000000
vn -0.415932 -0.563625 0.713672
vn 0.042129 0.703845 0.709103
vn -0.015641 0.999878 0.000000
vn -0.331885 -0.943320 0.000000
vn -0.119251 -0.687258 0.716559
vn -0.135765 0.690032 0.710931
vn -0.294598 0.955621 0.000000
vn 0.165921 -0.986139 0.000000
vn 0.237875 -0.653743 0.718357
vn -0.347968 0.610032 0.711884
vn -0.593723 0.804670 0.000000
vn 0.653552 -0.756882 0.000000
vn 0.546412 -0.428244 0.719751
vn -0.545837 0.437675 0.714495
vn -0.863185 0.504887 0.000000
vn 0.942185 -0.335092 0.000000
vn 0.686036 -0.141121 0.713750
vn -0.677772 0.180835 0.712688
vn -0.991068 0.133356 0.000000
vn 0.999376 -0.035335 0.000000
vn 0.706754 -0.002824 0.707454
vn -0.698019 -0.076105 0.712024
vn -0.974202 -0.225680 0.000000
vn 0.997491 0.070787 0.000000
vn 0.701813 0.080679 0.707777
vn -0.632850 -0.306343 0.711094
vn -0.848406 -0.529347 0.000000
vn 0.970412 0.241456 0.000000
vn 0.666374 0.228543 0.709728
vn -0.504735 -0.489415 0.711137
vn -0.639018 -0.769192 0.000000
vn 0.879131 0.476580 0.000000
vn 0.590399 0.384930 0.709407
vn -0.307166 -0.461889 0.832050
vn -0.553751 -0.832682 0.000000
vn 0.780975 0.624563 0.000000
vn 0.544877 0.450529 0.707201
vn 0.299948 0.953956 0.000000
vn 0.676166 0.736749 0.000000
vn 0.407618 0.571334 0.712338
vn -0.061485 -0.310193 0.948683
vn -0.094935 -0.699382 0.708415
vn -0.194432 -0.980916 0.000000
vn -0.073861 -0.997269 0.000000
vn 0.332904 0.942961 0.000000
vn 0.122100 0.687095 0.716235
vn 0.070285 -0.698967 0.711692
vn 0.213440 -0.976956 0.000000
vn -0.196062 0.980591 0.000000
vn -0.282568 0.629477 0.723819
vn 0.312537 -0.627060 0.713524
vn 0.563617 -0.826036 0.000000
vn -0.707528 0.706685 0.000000
vn -0.564275 0.412412 0.715200
vn 0.527993 -0.462715 0.712122
vn 0.825697 -0.564114 0.000000
vn -0.939690 0.342028 0.000000
vn -0.684723 0.149358 0.713335
vn 0.657741 -0.243482 0.712807
vn 0.974531 -0.224254 0.000000
vn -0.998418 0.056229 0.000000
vn -0.706546 0.020971 0.707356
vn 0.704933 -0.018486 0.709033
vn 0.998855 0.047842 0.000000
vn -0.999926 -0.012149 0.000000
vn -0.706759 -0.019375 0.707189
vn 0.688217 0.148814 0.710078
vn 0.953802 0.300435 0.000000
vn -0.995190 -0.097960 0.000000
vn -0.697687 -0.108121 0.708196
vn 0.825013 0.345477 0.447214
vn 0.922392 0.386255 0.000000
vn 0.669896 -0.111483 0.734038
vn 0.669595 -0.592995 0.447214
vn -0.315887 0.316568 0.894427
vn -0.509658 0.489931 0.707260
vn -0.706346 0.707867 0.000000
vn -0.735191 0.677860 0.000000
vn 0.897808 -0.440387 0.000000
vn 0.748630 -0.662988 0.000000
vn 0.662388 0.233175 0.711949
vn -0.586347 0.380801 0.714974
vn -0.911221 0.411917 0.000000
vn 0.975819 0.218582 0.000000
vn 0.581297 0.399248 0.709010
vn -0.692053 0.067945 0.718642
vn -0.996234 -0.086707 0.000000
vn 0.863715 0.503980 0.000000
vn 0.477276 0.518956 0.709149
vn -0.617836 -0.311648 0.721910
vn -0.778987 -0.627040 0.000000
vn 0.731066 0.682307 0.000000
vn 0.211957 0.662640 0.718319
vn -0.337628 -0.607098 0.719333
vn -0.311859 -0.950128 0.000000
vn 0.471993 0.881602 0.000000
vn 0.069461 0.703578 0.707215
vn -0.083713 -0.702057 0.707183
vn -0.103807 -0.994597 0.000000
vn 0.115648 0.993290 0.000000
vn 0.037445 0.706046 0.707176
vn -0.051877 -0.705112 0.707196
vn -0.057534 -0.998344 0.000000
vn 0.066900 0.997760 0.000000
vn 0.179227 0.679631 0.711322
vn -0.054307 -0.704577 0.707546
vn -0.111965 -0.993712 0.000000
vn 0.147239 0.989101 0.000000
vn 0.380827 0.591350 0.710828
vn -0.155543 -0.687735 0.709103
vn -0.293458 -0.955972 0.000000
vn 0.451838 0.892100 0.000000
vn 0.584553 0.381694 0.715966
vn -0.333942 -0.617078 0.712529
vn -0.581976 -0.813206 0.000000
vn 0.738831 0.673891 0.000000
vn 0.693164 0.098665 0.713995
vn -0.563727 -0.398791 0.723310
vn -0.923086 -0.384594 0.000000
vn 0.960271 0.279068 0.000000
vn 0.646752 -0.253207 0.719443
vn -0.684231 0.038113 0.728269
vn -0.952132 0.305686 0.000000
vn 0.983506 -0.180874 0.000000
vn 0.508537 -0.485948 0.710806
vn -0.535719 0.449320 0.714924
vn -0.660850 0.750518 0.000000
vn 0.790187 -0.612866 0.000000
vn 0.370074 -0.600082 0.709187
vn -0.314446 0.628456 0.711454
vn -0.344884 0.938645 0.000000
vn 0.588840 -0.808250 0.000000
vn 0.217996 -0.670236 0.709410
vn -0.125380 0.694467 0.708517
vn -0.115044 0.993360 0.000000
vn 0.385289 -0.922796 0.000000
vn 0.052370 -0.702906 0.709352
vn -0.008147 0.706473 0.707693
vn 0.029234 0.999573 0.000000
vn 0.153789 -0.988104 0.000000
vn -0.140706 -0.689490 0.710496
vn 0.108645 0.696110 0.709667
vn 0.238023 0.971259 0.000000
vn -0.102580 -0.994725 0.000000
vn -0.340582 -0.615365 0.710865
vn 0.299914 0.635008 0.711910
vn 0.530228 0.847855 0.000000
vn -0.390939 -0.920416 0.000000
vn -0.559040 -0.417920 0.716113
vn 0.509463 0.480034 0.714154
vn 0.818170 0.574977 0.000000
vn -0.693599 -0.720361 0.000000
vn -0.686464 -0.001680 0.727162
vn 0.658768 0.242399 0.712227
vn 0.973424 0.229010 0.000000
vn -0.968878 -0.247541 0.000000
vn -0.644191 0.284204 0.710103
vn 0.703555 0.070294 0.707155
vn 0.996143 0.087748 0.000000
vn -0.948315 0.317332 0.000000
vn -0.562115 0.426066 0.708868
vn 0.701938 -0.026583 0.711742
vn 0.988263 -0.152765 0.000000
vn -0.837689 0.546148 0.000000
vn -0.538745 0.457961 0.707125
vn 0.652572 -0.260340 0.711599
vn 0.880785 -0.473516 0.000000
vn -0.757195 0.653189 0.000000
vn -0.342836 0.287165 0.894427
vn 0.735406 -0.509095 0.447214
vn 0.822209 -0.569185 0.000000
vn -0.766604 0.642120 0.000000
# 201 normals

g g
s 2
f 1/1/1 2/1/1 3/1/1
f 4/1/2 5/1/3 6/1/4
s 1
f 1/2/5 7/3/5 8/4/6
f 1/2/5 8/4/6 2/5/7
f 14/3/8 13/1/9 11/4/10
f 13/1/9 10/6/11 11/4/10
s 2
f 2/1/1 9/1/1 3/1/1
f 15/1/3 16/1/3 10/1/12
s 1
f 2/5/7 8/4/6 9/7/13
f 8/4/6 11/8/10 9/7/13
f 8/4/6 6/6/14 10/9/11
f 8/4/6 10/9/11 11/8/10
s 2
f 9/1/1 12/1/1 3/1/1
f 10/1/12 16/1/3 13/1/15
s 1
f 9/7/13 11/8/10 14/10/8
f 9/7/13 14/10/8 12/11/16
f 11/8/10 10/9/11 14/10/8
f 10/9/11 13/12/9 14/10/8
s 2
f 12/1/1 1/1/1 3/1/1
f 13/1/15 16/1/3 17/1/3
s 3
f 15/1/17 6/1/18 5/1/19
f 15/1/17 5/1/19 16/1/20
f 10/1/21 6/1/18 15/1/17
f 16/1/20 5/1/19 4/1/22
f 16/1/20 4/1/22 17/1/23
f 17/1/23 4/1/22 13/1/24
s 2
f 20/1/25 8/1/26 7/1/27
f 20/1/25 7/1/27 18/1/28
f 19/1/29 4/1/2 6/1/4
f 19/1/29 6/1/4 21/1/30
f 21/1/30 6/1/4 8/1/26
f 21/1/30 8/1/26 20/1/25
f 24/1/31 20/1/25 18/1/28
f 24/1/31 18/1/28 22/1/32
f 23/1/33 19/1/29 21/1/30
f 23/1/33 21/1/30 25/1/34
f 25/1/34 21/1/30 20/1/25
f 25/1/34 20/1/25 24/1/31
f 28/1/35 24/1/31 22/1/32
f 28/1/35 22/1/32 26/1/36
f 27/1/37 23/1/33 25/1/34
f 27/1/37 25/1/34 29/1/38
f 29/1/38 25/1/34 24/1/31
f 29/1/38 24/1/31 28/1/35
f 32/1/39 28/1/35 26/1/36
f 32/1/39 26/1/36 30/1/40
f 31/1/41 27/1/37 29/1/38
f 31/1/41 29/1/38 33/1/42
f 33/1/42 29/1/38 28/1/35
f 33/1/42 28/1/35 32/1/39
f 36/1/43 32/1/39 30/1/40
f 36/1/43 30/1/40 34/1/44
f 35/1/45 31/1/41 33/1/42
f 35/1/45 33/1/42 37/1/46
f 37/1/46 33/1/42 32/1/39
f 37/1/46 32/1/39 36/1/43
f 40/1/47 36/1/43 34/1/44
f 40/1/47 34/1/44 38/1/48
f 39/1/49 35/1/45 37/1/46
f 39/1/49 37/1/46 41/1/50
f 41/1/50 37/1/46 36/1/43
f 41/1/50 36/1/43 40/1/47
f 44/1/51 40/1/47 38/1/48
f 44/1/51 38/1/48 42/1/52
f 43/1/53 39/1/49 41/1/50
f 43/1/53 41/1/50 45/1/54
f 45/1/54 41/1/50 40/1/47
f 45/1/54 40/1/47 44/1/51
f 48/1/55 44/1/51 42/1/52
f 48/1/55 42/1/52 46/1/56
f 47/1/57 43/1/53 45/1/54
f 47/1/57 45/1/54 49/1/58
f 49/1/58 45/1/54 44/1/51
f 49/1/58 44/1/51 48/1/55
f 52/1/59 48/1/55 46/1/56
f 52/1/59 46/1/56 50/1/60
f 51/1/61 47/1/57 49/1/58
f 51/1/61 49/1/58 53/1/62
f 53/1/62 49/1/58 48/1/55
f 53/1/62 48/1/55 52/1/59
f 56/1/63 52/1/59 50/1/60
f 56/1/63 50/1/60 54/1/64
f 55/1/65 51/1/61 53/1/62
f 55/1/65 53/1/62 57/1/66
f 57/1/66 53/1/62 52/1/59
f 57/1/66 52/1/59 56/1/63
f 182/1/67 183/1/67 184/1/67
f 182/1/67 184/1/67 185/1/67
f 59/1/68 55/1/65 57/1/66
f 59/1/68 57/1/66 61/1/69
f 61/1/69 57/1/66 56/1/63
f 61/1/69 56/1/63 60/1/70
f 64/1/71 60/1/70 58/1/72
f 64/1/71 58/1/72 62/1/73
f 63/1/74 59/1/68 61/1/69
f 63/1/74 61/1/69 65/1/75
f 65/1/75 61/1/69 60/1/70
f 65/1/75 60/1/70 64/1/71
f 68/1/76 64/1/71 62/1/73
f 68/1/76 62/1/73 66/1/77
f 67/1/78 63/1/74 65/1/75
f 67/1/78 65/1/75 69/1/79
f 69/1/79 65/1/75 64/1/71
f 69/1/79 64/1/71 68/1/76
f 72/1/80 68/1/76 66/1/77
f 72/1/80 66/1/77 70/1/81
f 71/1/82 67/1/78 69/1/79
f 71/1/82 69/1/79 73/1/83
f 73/1/83 69/1/79 68/1/76
f 73/1/83 68/1/76 72/1/80
f 76/1/84 72/1/80 70/1/81
f 76/1/84 70/1/81 74/1/85
f 75/1/86 71/1/82 73/1/83
f 75/1/86 73/1/83 77/1/87
f 77/1/87 73/1/83 72/1/80
f 77/1/87 72/1/80 76/1/84
f 80/1/88 76/1/84 74/1/85
f 80/1/88 74/1/85 78/1/89
f 79/1/90 75/1/86 77/1/87
f 79/1/90 77/1/87 81/1/91
f 81/1/91 77/1/87 76/1/84
f 81/1/91 76/1/84 80/1/88
f 84/1/92 80/1/88 78/1/89
f 84/1/92 78/1/89 82/1/93
f 83/1/94 79/1/90 81/1/91
f 83/1/94 81/1/91 85/1/95
f 85/1/95 81/1/91 80/1/88
f 85/1/95 80/1/88 84/1/92
f 88/1/96 84/1/92 82/1/93
f 88/1/96 82/1/93 86/1/97
f 87/1/98 83/1/94 85/1/95
f 87/1/98 85/1/95 89/1/99
f 89/1/99 85/1/95 84/1/92
f 89/1/99 84/1/92 88/1/96
f 11/1/100 88/1/96 86/1/97
f 11/1/100 86/1/97 14/1/101
f 13/1/15 87/1/98 89/1/99
f 13/1/15 89/1/99 10/1/12
f 10/1/12 89/1/99 88/1/96
f 10/1/12 88/1/96 11/1/100
s 3
f 90/1/102 60/1/103 56/1/104
f 90/1/102 56/1/104 91/1/105
f 91/1/105 56/1/104 54/1/106
f 91/1/105 54/1/106 92/1/107
f 93/1/108 58/1/109 60/1/103
f 93/1/108 60/1/103 90/1/102
f 94/1/110 90/1/102 91/1/105
f 94/1/110 91/1/105 95/1/111
f 95/1/111 91/1/105 92/1/107
f 95/1/111 92/1/107 96/1/112
f 97/1/113 93/1/108 90/1/102
f 97/1/113 90/1/102 94/1/110
f 98/1/114 94/1/110 95/1/111
f 98/1/114 95/1/111 99/1/115
f 99/1/115 95/1/111 96/1/112
f 99/1/115 96/1/112 100/1/116
f 101/1/117 97/1/113 94/1/110
f 101/1/117 94/1/110 98/1/114
f 102/1/118 98/1/114 99/1/115
f 102/1/118 99/1/115 103/1/119
f 103/1/119 99/1/115 100/1/116
f 103/1/119 100/1/116 104/1/120
f 105/1/121 101/1/117 98/1/114
f 105/1/121 98/1/114 102/1/118
f 106/1/122 102/1/118 103/1/119
f 106/1/122 103/1/119 107/1/123
f 107/1/123 103/1/119 104/1/120
f 107/1/123 104/1/120 108/1/124
f 109/1/125 105/1/121 102/1/118
f 109/1/125 102/1/118 106/1/122
f 110/1/126 106/1/122 107/1/123
f 110/1/126 107/1/123 111/1/127
f 111/1/127 107/1/123 108/1/124
f 111/1/127 108/1/124 112/1/128
f 113/1/129 109/1/125 106/1/122
f 113/1/129 106/1/122 110/1/126
f 114/1/130 110/1/126 111/1/127
f 114/1/130 111/1/127 115/1/131
f 115/1/131 111/1/127 112/1/128
f 115/1/131 112/1/128 116/1/132
f 117/1/133 113/1/129 110/1/126
f 117/1/133 110/1/126 114/1/130
f 118/1/134 114/1/130 115/1/131
f 118/1/134 115/1/131 119/1/135
f 119/1/135 115/1/131 116/1/132
f 119/1/135 116/1/132 120/1/136
f 121/1/137 117/1/133 114/1/130
f 121/1/137 114/1/130 118/1/134
f 122/1/138 118/1/134 119/1/135
f 122/1/138 119/1/135 123/1/139
f 123/1/139 119/1/135 120/1/136
f 123/1/139 120/1/136 124/1/140
f 125/1/141 121/1/137 118/1/134
f 125/1/141 118/1/134 122/1/138
f 126/1/142 122/1/138 123/1/139
f 126/1/142 123/1/139 127/1/143
f 127/1/143 123/1/139 124/1/140
f 127/1/143 124/1/140 128/1/144
f 129/1/145 125/1/141 122/1/138
f 129/1/145 122/1/138 126/1/142
f 130/1/146 126/1/142 127/1/143
f 130/1/146 127/1/143 131/1/147
f 131/1/147 127/1/143 128/1/144
f 131/1/147 128/1/144 132/1/148
f 133/1/149 129/1/145 126/1/142
f 133/1/149 126/1/142 130/1/146
f 134/1/150 130/1/146 131/1/147
f 134/1/150 131/1/147 135/1/151
f 135/1/151 131/1/147 132/1/148
f 135/1/151 132/1/148 136/1/152
f 137/1/153 133/1/149 130/1/146
f 137/1/153 130/1/146 134/1/150
f 138/1/154 134/1/150 135/1/151
f 138/1/154 135/1/151 139/1/155
f 139/1/155 135/1/151 136/1/152
f 139/1/155 136/1/152 140/1/156
f 141/1/157 137/1/153 134/1/150
f 141/1/157 134/1/150 138/1/154
f 142/1/158 138/1/154 139/1/155
f 142/1/158 139/1/155 143/1/159
f 143/1/159 139/1/155 140/1/156
f 143/1/159 140/1/156 144/1/160
f 145/1/161 141/1/157 138/1/154
f 145/1/161 138/1/154 142/1/158
f 146/1/162 142/1/158 143/1/159
f 146/1/162 143/1/159 147/1/163
f 147/1/163 143/1/159 144/1/160
f 147/1/163 144/1/160 148/1/164
f 149/1/165 145/1/161 142/1/158
f 149/1/165 142/1/158 146/1/162
f 150/1/166 146/1/162 147/1/163
f 150/1/166 147/1/163 151/1/167
f 151/1/167 147/1/163 148/1/164
f 151/1/167 148/1/164 152/1/168
f 153/1/169 149/1/165 146/1/162
f 153/1/169 146/1/162 150/1/166
f 154/1/170 150/1/166 151/1/167
f 154/1/170 151/1/167 155/1/171
f 155/1/171 151/1/167 152/1/168
f 155/1/171 152/1/168 156/1/172
f 157/1/173 153/1/169 150/1/166
f 157/1/173 150/1/166 154/1/170
f 158/1/174 154/1/170 155/1/171
f 158/1/174 155/1/171 159/1/175
f 159/1/175 155/1/171 156/1/172
f 159/1/175 156/1/172 160/1/176
f 161/1/177 157/1/173 154/1/170
f 161/1/177 154/1/170 158/1/174
f 162/1/178 158/1/174 159/1/175
f 162/1/178 159/1/175 163/1/179
f 163/1/179 159/1/175 160/1/176
f 163/1/179 160/1/176 164/1/180
f 165/1/181 161/1/177 158/1/174
f 165/1/181 158/1/174 162/1/178
f 166/1/182 162/1/178 163/1/179
f 166/1/182 163/1/179 167/1/183
f 167/1/183 163/1/179 164/1/180
f 167/1/183 164/1/180 168/1/184
f 169/1/185 165/1/181 162/1/178
f 169/1/185 162/1/178 166/1/182
f 170/1/186 166/1/182 167/1/183
f 170/1/186 167/1/183 171/1/187
f 171/1/187 167/1/183 168/1/184
f 171/1/187 168/1/184 172/1/188
f 173/1/189 169/1/185 166/1/182
f 173/1/189 166/1/182 170/1/186
f 174/1/190 170/1/186 171/1/187
f 174/1/190 171/1/187 175/1/191
f 175/1/191 171/1/187 172/1/188
f 175/1/191 172/1/188 176/1/192
f 177/1/193 173/1/189 170/1/186
f 177/1/193 170/1/186 174/1/190
f 178/1/194 174/1/190 175/1/191
f 178/1/194 175/1/191 179/1/195
f 179/1/195 175/1/191 176/1/192
f 179/1/195 176/1/192 180/1/196
f 181/1/197 177/1/193 174/1/190
f 181/1/197 174/1/190 178/1/194
f 182/1/198 178/1/194 179/1/195
f 182/1/198 179/1/195 183/1/199
f 183/1/199 179/1/195 180/1/196
f 183/1/199 180/1/196 184/1/200
f 185/1/201 181/1/197 178/1/194
f 185/1/201 178/1/194 182/1/198
# 284 triangles in group

# 284 triangles total

