# Wavefront OBJ exported by MilkShape 3D

v 13.959138 0.008128 -8.573963
v 13.959138 0.008128 -0.004973
v 0.018782 0.008128 -8.573828
v 13.964211 34.077625 -8.573959
v 0.012897 34.077625 -0.005032
v 13.964211 34.077625 -0.004975
v 9.377755 2.361520 -8.573963
v 9.377755 2.361520 -0.004973
v 9.408723 31.814312 -8.573963
v 9.408723 31.814312 -0.004973
v 0.018365 0.008128 -0.004973
v 4.599747 2.361520 -0.004973
v 4.652115 31.814312 -0.004973
v 0.013325 34.077625 -8.573959
v 4.599747 2.361520 -8.573963
v 4.652115 31.814312 -8.573963
# 16 vertices

vt 0.000000 1.000000
vt 0.000000 0.000000
vt 0.000000 0.500000
vt 0.250000 0.500000
vt 0.250000 0.000000
vt 0.250000 1.000000
vt 0.500000 0.000000
vt 0.500000 0.500000
vt 0.500000 1.000000
vt 0.750000 0.500000
vt 0.750000 0.000000
vt 0.750000 1.000000
# 12 texture coordinates

vn 0.000000 -1.000000 0.000000
vn 0.000000 1.000000 0.000000
vn 0.456926 0.889505 0.000000
vn 0.853774 0.520643 0.000000
vn 0.554161 0.337935 0.760727
vn 0.323095 0.628975 0.707107
vn 0.999999 -0.001051 0.000000
vn 0.707106 -0.000743 0.707107
vn -0.323109 0.628972 0.707103
vn -0.553959 0.338888 0.760450
vn -0.707106 0.001257 0.707107
vn -0.853042 0.521843 -0.000007
vn -0.456959 0.889488 -0.000022
vn -0.999998 0.001778 0.000000
vn 0.397969 -0.801012 0.447215
vn 0.198984 -0.400493 0.894433
vn 0.444943 -0.895559 0.000000
vn -0.196093 -0.401922 0.894431
vn -0.392197 -0.803856 0.447210
vn -0.438484 -0.898739 -0.000011
# 20 normals

g I
s 2
f 1/1/1 2/1/1 3/1/1
f 4/1/2 5/1/2 6/1/2
s 1
f 1/2/3 7/3/4 8/4/5
f 1/2/3 8/4/5 2/5/6
f 7/3/4 9/1/7 8/4/5
f 9/1/7 10/6/8 8/4/5
s 2
f 2/1/1 11/1/1 3/1/1
s 1
f 2/5/6 8/4/5 11/7/9
f 8/4/5 12/8/10 11/7/9
f 8/4/5 10/6/8 13/9/11
f 8/4/5 13/9/11 12/8/10
f 11/7/9 12/8/10 15/10/12
f 11/7/9 15/10/12 3/11/13
f 12/8/10 13/9/11 15/10/12
f 13/9/11 16/12/14 15/10/12
s 2
f 14/1/2 5/1/2 4/1/2
s 3
f 6/1/15 10/1/16 9/1/17
f 6/1/15 9/1/17 4/1/17
f 5/1/18 13/1/19 10/1/16
f 5/1/18 10/1/16 6/1/15
f 14/1/20 16/1/20 13/1/19
f 14/1/20 13/1/19 5/1/18
s 2
f 1/1/1 2/1/1 3/1/1
f 4/1/2 5/1/2 6/1/2
s 1
f 1/2/3 7/3/4 8/4/5
f 1/2/3 8/4/5 2/5/6
f 7/3/4 9/1/7 8/4/5
f 9/1/7 10/6/8 8/4/5
s 2
f 2/1/1 11/1/1 3/1/1
s 1
f 2/5/6 8/4/5 11/7/9
f 8/4/5 12/8/10 11/7/9
f 8/4/5 10/6/8 13/9/11
f 8/4/5 13/9/11 12/8/10
f 11/7/9 12/8/10 15/10/12
f 11/7/9 15/10/12 3/11/13
f 12/8/10 13/9/11 15/10/12
f 13/9/11 16/12/14 15/10/12
s 2
f 14/1/2 5/1/2 4/1/2
s 3
f 6/1/15 10/1/16 9/1/17
f 6/1/15 9/1/17 4/1/17
f 5/1/18 13/1/19 10/1/16
f 5/1/18 10/1/16 6/1/15
f 14/1/20 16/1/20 13/1/19
f 14/1/20 13/1/19 5/1/18
# 44 triangles in group

# 44 triangles total

