# Wavefront OBJ exported by MilkShape 3D

v 10.925224 -0.011485 -8.570278
v 10.925224 -0.011485 -0.001286
v 0.386825 -0.011485 -8.571966
v 7.366556 23.844297 -8.570274
v 0.009677 20.794250 -0.002028
v 7.366556 23.844297 -0.001289
v 7.462499 2.341264 -8.570278
v 7.462499 2.341264 -0.001286
v 7.360902 19.891716 -8.570278
v 7.360902 19.891716 -0.001286
v 0.388438 -0.011485 -0.001286
v 0.009630 20.789495 -0.001289
v 3.851163 2.341264 -0.001286
v 3.765743 19.891716 -0.001286
v 0.388438 -0.011485 -8.570278
v 0.009630 20.789495 -8.570274
v 3.851163 2.341264 -8.570278
v 3.765743 19.891716 -8.570278
v 8.182049 33.438885 -8.570934
v 8.182049 33.438885 -0.000630
v 7.459928 31.582064 -8.570936
v 7.459928 31.582064 -0.000628
v 5.716577 30.812939 -8.570936
v 5.716577 30.812937 -0.000627
v 3.973226 31.582064 -8.570936
v 3.973226 31.582064 -0.000628
v 3.251104 33.438885 -8.570934
v 3.251104 33.438885 -0.000630
v 3.973226 35.295708 -8.570936
v 3.973226 35.295708 -0.000630
v 5.716577 36.064831 -8.570936
v 5.716577 36.064831 -0.000629
v 7.459928 35.295708 -8.570936
v 7.459928 35.295708 -0.000630
v 5.716577 33.438885 -0.000630
# 35 vertices

vt 0.000000 1.000000
vt 0.000000 0.000000
vt 0.000000 0.500000
vt 0.250000 0.500000
vt 0.250000 0.000000
vt 0.250000 1.000000
vt 0.500000 0.000000
vt 0.500000 0.500000
vt 0.500000 1.000000
vt 0.750000 0.500000
vt 0.750000 0.000000
vt 0.750000 1.000000
vt 0.125000 0.500000
vt 0.125000 1.000000
vt 0.375000 0.500000
vt 0.375000 1.000000
vt 0.625000 0.500000
vt 0.625000 1.000000
vt 0.875000 0.500000
vt 0.875000 1.000000
vt 1.000000 1.000000
vt 1.000000 0.500000
# 22 texture coordinates

vn 0.000000 -1.000000 0.000000
vn -0.383229 0.923653 -0.000255
vn 0.561999 0.827138 0.000000
vn 0.882384 0.470531 0.000000
vn 0.584821 0.311856 0.748819
vn 0.397393 0.584875 0.707107
vn 0.999983 0.005789 0.000000
vn 0.707095 0.004093 0.707107
vn -0.397393 0.584875 0.707107
vn -0.585547 0.308247 0.749746
vn -0.707098 -0.003442 0.707107
vn -0.884878 0.465823 0.000000
vn -0.561999 0.827138 0.000000
vn -0.999988 -0.004867 0.000000
vn 0.894426 -0.001279 0.447214
vn 0.447213 -0.000638 0.894427
vn 0.999999 -0.001430 0.000000
vn -0.103964 -0.434960 0.894428
vn -0.207928 -0.869923 0.447214
vn -0.232470 -0.972604 0.000000
vn 0.000000 0.000001 1.000000
vn 1.000000 -0.000000 0.000000
vn 0.722695 -0.691167 -0.000000
vn -0.722694 -0.691168 -0.000000
vn -1.000000 -0.000000 0.000000
vn -0.722694 0.691168 0.000000
vn 0.000000 1.000000 0.000000
vn 0.722694 0.691168 0.000000
# 28 normals

g i part 1
s 2
f 1/1/1 2/1/1 3/1/1
f 4/1/2 5/1/2 6/1/2
s 1
f 1/2/3 7/3/4 8/4/5
f 1/2/3 8/4/5 2/5/6
f 7/3/4 9/1/7 8/4/5
f 9/1/7 10/6/8 8/4/5
s 2
f 2/1/1 11/1/1 3/1/1
s 1
f 2/5/6 8/4/5 11/7/9
f 8/4/5 13/8/10 11/7/9
f 8/4/5 10/6/8 14/9/11
f 8/4/5 14/9/11 13/8/10
f 11/7/9 13/8/10 17/10/12
f 11/7/9 17/10/12 15/11/13
f 13/8/10 14/9/11 17/10/12
f 14/9/11 18/12/14 17/10/12
s 2
f 16/1/2 5/1/2 4/1/2
s 3
f 6/1/15 10/1/16 9/1/17
f 6/1/15 9/1/17 4/1/17
f 12/1/18 14/1/19 10/1/16
f 12/1/18 10/1/16 6/1/15
f 16/1/20 18/1/20 14/1/19
f 16/1/20 14/1/19 12/1/18
s 2
f 1/1/1 2/1/1 3/1/1
f 4/1/2 5/1/2 6/1/2
s 1
f 1/2/3 7/3/4 8/4/5
f 1/2/3 8/4/5 2/5/6
f 7/3/4 9/1/7 8/4/5
f 9/1/7 10/6/8 8/4/5
s 2
f 2/1/1 11/1/1 3/1/1
s 1
f 2/5/6 8/4/5 11/7/9
f 8/4/5 13/8/10 11/7/9
f 8/4/5 10/6/8 14/9/11
f 8/4/5 14/9/11 13/8/10
f 11/7/9 13/8/10 17/10/12
f 11/7/9 17/10/12 15/11/13
f 13/8/10 14/9/11 17/10/12
f 14/9/11 18/12/14 17/10/12
s 2
f 16/1/2 5/1/2 4/1/2
s 3
f 6/1/15 10/1/16 9/1/17
f 6/1/15 9/1/17 4/1/17
f 12/1/18 14/1/19 10/1/16
f 12/1/18 10/1/16 6/1/15
f 16/1/20 18/1/20 14/1/19
f 16/1/20 14/1/19 12/1/18
# 44 triangles in group

g i part 2
s 2
f 20/1/21 35/1/21 22/1/21
s 1
f 19/3/22 20/1/22 21/13/23
f 20/1/22 22/14/23 21/13/23
s 2
f 22/1/21 35/1/21 24/1/21
s 1
f 21/13/23 22/14/23 24/6/1
f 21/13/23 24/6/1 23/4/1
s 2
f 24/1/21 35/1/21 26/1/21
s 1
f 23/4/1 24/6/1 25/15/24
f 24/6/1 26/16/24 25/15/24
s 2
f 26/1/21 35/1/21 28/1/21
s 1
f 25/15/24 26/16/24 28/9/25
f 25/15/24 28/9/25 27/8/25
s 2
f 28/1/21 35/1/21 30/1/21
s 1
f 27/8/25 28/9/25 29/17/26
f 28/9/25 30/18/26 29/17/26
s 2
f 30/1/21 35/1/21 32/1/21
s 1
f 29/17/26 30/18/26 32/12/27
f 29/17/26 32/12/27 31/10/27
s 2
f 32/1/21 35/1/21 34/1/21
s 1
f 31/10/27 32/12/27 33/19/28
f 32/12/27 34/20/28 33/19/28
s 2
f 34/1/21 35/1/21 20/1/21
s 1
f 33/19/28 34/20/28 20/21/22
f 33/19/28 20/21/22 19/22/22
# 24 triangles in group

# 68 triangles total

