# Wavefront OBJ exported by MilkShape 3D

v 13.118345 7.699478 -8.664332
v 13.118345 7.699478 0.011330
v 17.859043 33.291740 -8.664332
v 17.855232 33.291740 0.010679
v 17.859043 33.291740 0.011330
v 13.418139 31.187912 -8.664332
v 13.418139 31.187912 0.011330
v 8.828035 7.699478 0.011330
v 4.241174 33.291740 0.011330
v 8.835924 31.187920 0.011330
v 8.828035 7.699478 -8.664332
v 4.241174 33.291740 -8.664332
v 8.835924 31.187920 -8.664332
v 12.182808 4.595610 -8.664330
v 12.182808 4.595610 0.011329
v 8.830252 5.203312 0.011329
v 8.830252 5.203312 -8.664330
v 10.918846 2.559710 -8.664330
v 10.918846 2.559710 0.011329
v 8.627573 3.239177 0.011329
v 8.627573 3.239177 -8.664330
v 9.246576 0.944443 -8.664330
v 9.246576 0.944443 0.011329
v 7.899866 1.921113 0.011329
v 7.899866 1.921113 -8.664330
v 6.813177 0.107669 -8.664330
v 6.813177 0.107669 0.011329
v 6.866628 1.424594 0.011329
v 6.866628 1.424594 -8.664330
v 4.675821 -0.183359 -8.664330
v 4.675821 -0.183359 0.011329
v 6.070650 1.715627 0.011329
v 6.070650 1.715627 -8.664330
v 1.936868 0.490297 -8.664330
v 1.936868 0.490297 0.011329
v 5.342920 2.908646 0.011329
v 5.342920 2.908646 -8.664330
v 0.522854 1.876715 -8.664330
v 0.522854 1.876715 0.011329
v 4.756944 4.188873 0.011329
v 4.756944 4.188873 -8.664330
v 0.038982 3.824006 -8.664330
v 0.038982 3.824006 0.011329
v 4.040800 5.174879 0.011329
v 4.040800 5.174879 -8.664330
v 0.735412 5.313341 -8.664330
v 0.735412 5.313341 0.011329
v 2.541424 5.951199 0.011274
v 2.544359 5.952238 0.011329
v 2.544359 5.952238 -8.664330
# 50 vertices

vt 0.000000 1.000000
vt 0.000000 0.000000
vt 0.000000 0.500000
vt 0.250000 0.500000
vt 0.250000 0.000000
vt 0.250000 1.000000
vt 0.500000 0.000000
vt 0.500000 0.500000
vt 0.500000 1.000000
vt 0.750000 0.500000
vt 0.750000 0.000000
vt 0.750000 1.000000
# 12 texture coordinates

vn -0.333026 0.942918 0.000000
vn 0.999919 -0.012762 0.000000
vn 0.841593 -0.540112 0.000000
vn 0.544467 -0.349424 0.762534
vn 0.707049 -0.009024 0.707107
vn 0.428127 -0.903719 0.000000
vn 0.302731 -0.639026 0.707107
vn -0.707107 0.000237 0.707107
vn -0.541856 -0.347725 0.765166
vn -0.294376 -0.642917 0.707107
vn 0.000000 1.000000 0.000000
vn -0.841610 -0.540085 0.000000
vn -1.000000 0.000336 0.000000
vn -0.416310 -0.909223 0.000000
vn 0.928612 -0.371052 0.000000
vn 0.957454 -0.288586 0.000000
vn 0.856373 -0.258120 0.447214
vn 0.628575 -0.317880 0.709821
vn -0.447213 -0.000397 0.894427
vn -0.706283 0.023789 0.707529
vn -1.000000 -0.000888 0.000000
vn -0.997671 0.068215 0.000000
vn 0.803413 -0.595422 0.000000
vn 0.529544 -0.464956 0.709506
vn -0.681308 0.163764 0.713443
vn -0.931824 0.362911 0.000000
vn 0.583870 -0.811847 0.000000
vn 0.320405 -0.621839 0.714603
vn -0.525705 0.449639 0.722121
vn -0.606041 0.795433 0.000000
vn 0.262880 -0.964829 0.000000
vn 0.140546 -0.691457 0.708614
vn -0.127600 0.669120 0.732118
vn 0.090876 0.995862 0.000000
vn 0.010498 -0.999945 0.000000
vn -0.081424 -0.696753 0.712675
vn 0.372216 0.579681 0.724862
vn 0.719296 0.694704 0.000000
vn -0.405351 -0.914161 0.000000
vn -0.392454 -0.574451 0.718321
vn 0.617242 0.343850 0.707658
vn 0.892146 0.451747 0.000000
vn -0.817650 -0.575716 0.000000
vn -0.633032 -0.286747 0.719060
vn 0.620708 0.335442 0.708661
vn 0.846214 0.532844 0.000000
vn -0.999787 -0.020620 0.000000
vn -0.672651 0.146519 0.725309
vn 0.495920 0.491993 0.715546
vn 0.591051 0.806634 0.000000
vn -0.905855 0.423588 0.000000
vn -0.405111 0.189434 0.894427
vn 0.412316 0.793722 0.447214
vn 0.460984 0.887409 0.000000
# 54 normals

g J
s 2
f 46/1/1 47/1/1 48/1/1
s 1
f 1/2/2 6/3/3 7/4/4
f 1/2/2 7/4/4 2/5/5
f 6/3/3 3/1/6 7/4/4
f 3/1/6 5/6/7 7/4/4
f 2/5/5 7/4/4 8/7/8
f 7/4/4 10/8/9 8/7/8
f 7/4/4 5/6/7 9/9/10
f 7/4/4 9/9/10 10/8/9
s 2
f 9/1/11 4/1/11 12/1/11
s 1
f 8/7/8 10/8/9 13/10/12
f 8/7/8 13/10/12 11/11/13
f 10/8/9 9/9/10 13/10/12
f 9/9/10 12/12/14 13/10/12
s 2
f 50/1/1 46/1/1 48/1/1
f 12/1/11 4/1/11 3/1/11
s 3
f 14/1/15 1/1/16 2/1/17
f 14/1/15 2/1/17 15/1/18
f 15/1/18 2/1/17 8/1/19
f 15/1/18 8/1/19 16/1/20
f 16/1/20 8/1/19 11/1/21
f 16/1/20 11/1/21 17/1/22
f 18/1/23 14/1/15 15/1/18
f 18/1/23 15/1/18 19/1/24
f 19/1/24 15/1/18 16/1/20
f 19/1/24 16/1/20 20/1/25
f 20/1/25 16/1/20 17/1/22
f 20/1/25 17/1/22 21/1/26
f 22/1/27 18/1/23 19/1/24
f 22/1/27 19/1/24 23/1/28
f 23/1/28 19/1/24 20/1/25
f 23/1/28 20/1/25 24/1/29
f 24/1/29 20/1/25 21/1/26
f 24/1/29 21/1/26 25/1/30
f 26/1/31 22/1/27 23/1/28
f 26/1/31 23/1/28 27/1/32
f 27/1/32 23/1/28 24/1/29
f 27/1/32 24/1/29 28/1/33
f 28/1/33 24/1/29 25/1/30
f 28/1/33 25/1/30 29/1/34
f 30/1/35 26/1/31 27/1/32
f 30/1/35 27/1/32 31/1/36
f 31/1/36 27/1/32 28/1/33
f 31/1/36 28/1/33 32/1/37
f 32/1/37 28/1/33 29/1/34
f 32/1/37 29/1/34 33/1/38
f 34/1/39 30/1/35 31/1/36
f 34/1/39 31/1/36 35/1/40
f 35/1/40 31/1/36 32/1/37
f 35/1/40 32/1/37 36/1/41
f 36/1/41 32/1/37 33/1/38
f 36/1/41 33/1/38 37/1/42
f 38/1/43 34/1/39 35/1/40
f 38/1/43 35/1/40 39/1/44
f 39/1/44 35/1/40 36/1/41
f 39/1/44 36/1/41 40/1/45
f 40/1/45 36/1/41 37/1/42
f 40/1/45 37/1/42 41/1/46
f 42/1/47 38/1/43 39/1/44
f 42/1/47 39/1/44 43/1/48
f 43/1/48 39/1/44 40/1/45
f 43/1/48 40/1/45 44/1/49
f 44/1/49 40/1/45 41/1/46
f 44/1/49 41/1/46 45/1/50
f 46/1/51 42/1/47 43/1/48
f 46/1/51 43/1/48 47/1/52
f 47/1/52 43/1/48 44/1/49
f 47/1/52 44/1/49 49/1/53
f 49/1/53 44/1/49 45/1/50
f 49/1/53 45/1/50 50/1/54
# 70 triangles in group

# 70 triangles total

