# Wavefront OBJ exported by MilkShape 3D

v -4.623824 -6.777524 -8.662842
v -4.623824 -6.777524 0.012817
v -4.623334 -6.778672 -8.662788
v 7.688743 22.864100 -8.662844
v 7.688362 22.865135 0.011931
v 7.688743 22.864100 0.012818
v 7.532983 -3.025675 -8.662844
v 7.661975 19.806860 -8.662844
v 7.661975 19.806860 0.012818
v 7.532983 -3.025675 0.012818
v -2.983550 -6.337129 0.012817
v 0.090754 20.006958 0.012818
v 3.785597 -4.239965 0.012818
v 3.828478 19.306870 0.012818
v -2.983550 -6.337129 -8.662842
v 0.090754 20.006958 -8.662844
v 3.828478 19.306870 -8.662844
v 3.785597 -4.239965 -8.662844
v 6.577550 -6.379346 -8.662842
v 6.577550 -6.379346 0.012817
v 3.680479 -6.603349 0.012817
v 3.680479 -6.603349 -8.662842
v 4.824301 -8.746890 -8.662842
v 4.824301 -8.746890 0.012817
v 3.210977 -8.064292 0.012817
v 3.210977 -8.064292 -8.662842
v 3.307977 -9.860245 -8.662842
v 3.307977 -9.860245 0.012817
v 2.515417 -8.758494 0.012817
v 2.515417 -8.758494 -8.662842
v 1.172911 -10.722713 -8.662842
v 1.172911 -10.722713 0.012817
v 1.578527 -8.993579 0.012817
v 1.578527 -8.993579 -8.662842
v -1.336569 -10.851879 -8.662842
v -1.336569 -10.851879 0.012817
v 0.713923 -8.792983 0.012817
v 0.713923 -8.792983 -8.662842
v -4.032603 -10.347191 -8.662842
v -4.032603 -10.347191 0.012817
v -0.019167 -8.332484 0.012817
v -0.019167 -8.332484 -8.662842
v -5.026198 -9.150832 -8.662842
v -5.026198 -9.150832 0.012817
v -0.981928 -7.405096 0.012817
v -0.981928 -7.405096 -8.662842
v -5.144732 -8.106757 -8.662842
v -5.144732 -8.106757 0.012817
v -1.701479 -6.855943 0.012817
v -1.701479 -6.855943 -8.662842
v 8.207588 31.944416 -8.663509
v 8.207588 31.944416 0.013483
v 7.485467 30.158890 -8.663513
v 7.485467 30.158890 0.013487
v 5.742116 29.419300 -8.663513
v 5.742116 29.419300 0.013488
v 3.998765 30.158890 -8.663513
v 3.998765 30.158890 0.013487
v 3.276643 31.944416 -8.663509
v 3.276643 31.944416 0.013483
v 3.998765 33.729939 -8.663513
v 3.998765 33.729942 0.013485
v 5.742116 34.469532 -8.663513
v 5.742116 34.469532 0.013486
v 7.485467 33.729939 -8.663513
v 7.485467 33.729942 0.013485
v 5.742116 31.944416 0.013483
# 67 vertices

vt 0.000000 0.000000
vt 0.000000 0.500000
vt 0.250000 0.500000
vt 0.250000 0.000000
vt 0.000000 1.000000
vt 0.250000 1.000000
vt 0.500000 0.000000
vt 0.500000 0.500000
vt 0.500000 1.000000
vt 0.750000 0.500000
vt 0.750000 0.000000
vt 0.750000 1.000000
vt 0.125000 0.500000
vt 0.125000 1.000000
vt 0.375000 0.500000
vt 0.375000 1.000000
vt 0.625000 0.500000
vt 0.625000 1.000000
vt 0.875000 0.500000
vt 0.875000 1.000000
vt 1.000000 1.000000
vt 1.000000 0.500000
# 22 texture coordinates

vn 0.999984 -0.005649 0.000000
vn 0.999974 -0.007202 0.000000
vn 0.707088 -0.005093 0.707107
vn 0.707096 -0.003995 0.707107
vn 0.999962 -0.008755 0.000000
vn 0.707080 -0.006191 0.707107
vn -0.259305 0.965795 -0.000142
vn -0.707106 0.001288 0.707107
vn -0.469356 -0.388885 0.792764
vn -0.130180 -0.695020 0.707107
vn -0.352103 0.935961 0.000000
vn -0.770030 -0.638008 0.000000
vn -0.999998 0.001821 0.000000
vn -0.184102 -0.982907 0.000000
vn 0.922257 -0.386576 0.000000
vn 0.961733 -0.273990 0.000000
vn 0.860200 -0.245064 0.447214
vn 0.609877 -0.347606 0.712194
vn -0.446772 0.019871 0.894427
vn -0.698082 0.093428 0.709897
vn -0.999012 0.044434 0.000000
vn -0.975383 0.220520 0.000000
vn 0.740426 -0.672138 0.000000
vn 0.470758 -0.522851 0.710643
vn -0.623027 0.314965 0.715985
vn -0.808469 0.588539 0.000000
vn 0.523020 -0.852320 0.000000
vn 0.317155 -0.629246 0.709551
vn -0.396661 0.571332 0.718498
vn -0.410857 0.911700 0.000000
vn 0.270142 -0.962821 0.000000
vn 0.113205 -0.693559 0.711449
vn -0.062225 0.695399 0.715925
vn 0.071313 0.997454 0.000000
vn -0.027234 -0.999629 0.000000
vn -0.074855 -0.700917 0.709304
vn 0.233343 0.662854 0.711460
vn 0.435294 0.900288 0.000000
vn -0.400141 -0.916453 0.000000
vn -0.416828 -0.547052 0.725940
vn 0.415245 0.570277 0.708771
vn 0.642831 0.766008 0.000000
vn -0.876521 -0.481363 0.000000
vn -0.661857 -0.207575 0.720318
vn 0.470380 0.527267 0.707624
vn 0.636642 0.771160 0.000000
vn -0.998863 0.047665 0.000000
vn -0.681953 0.147324 0.716404
vn 0.375899 0.595585 0.709915
vn 0.455923 0.890019 0.000000
vn -0.931059 0.364869 0.000000
vn -0.416382 0.163175 0.894427
vn 0.335516 0.829113 0.447214
vn 0.375119 0.926977 0.000000
vn 0.000000 0.000001 1.000000
vn 1.000000 0.000000 0.000000
vn 0.713057 -0.701106 0.000000
vn 0.000000 -1.000000 0.000000
vn -0.713057 -0.701106 0.000000
vn -1.000000 0.000000 -0.000000
vn -0.713057 0.701106 -0.000000
vn 0.000000 1.000000 -0.000000
vn 0.713058 0.701105 -0.000000
# 63 normals

g j part 1
s 1
f 7/1/1 8/2/2 9/3/3
f 7/1/1 9/3/3 10/4/4
f 8/2/2 4/5/5 9/3/3
f 4/5/5 6/6/6 9/3/3
s 2
f 2/5/7 11/5/7 3/5/7
s 1
f 10/4/4 9/3/3 13/7/8
f 9/3/3 14/8/9 13/7/8
f 9/3/3 6/6/6 12/9/10
f 9/3/3 12/9/10 14/8/9
s 2
f 11/5/7 15/5/7 3/5/7
f 12/5/11 5/5/11 16/5/11
s 1
f 13/7/8 14/8/9 17/10/12
f 13/7/8 17/10/12 18/11/13
f 14/8/9 12/9/10 17/10/12
f 12/9/10 16/12/14 17/10/12
s 2
f 16/5/11 5/5/11 4/5/11
s 3
f 19/5/15 7/5/16 10/5/17
f 19/5/15 10/5/17 20/5/18
f 20/5/18 10/5/17 13/5/19
f 20/5/18 13/5/19 21/5/20
f 21/5/20 13/5/19 18/5/21
f 21/5/20 18/5/21 22/5/22
f 23/5/23 19/5/15 20/5/18
f 23/5/23 20/5/18 24/5/24
f 24/5/24 20/5/18 21/5/20
f 24/5/24 21/5/20 25/5/25
f 25/5/25 21/5/20 22/5/22
f 25/5/25 22/5/22 26/5/26
f 27/5/27 23/5/23 24/5/24
f 27/5/27 24/5/24 28/5/28
f 28/5/28 24/5/24 25/5/25
f 28/5/28 25/5/25 29/5/29
f 29/5/29 25/5/25 26/5/26
f 29/5/29 26/5/26 30/5/30
f 31/5/31 27/5/27 28/5/28
f 31/5/31 28/5/28 32/5/32
f 32/5/32 28/5/28 29/5/29
f 32/5/32 29/5/29 33/5/33
f 33/5/33 29/5/29 30/5/30
f 33/5/33 30/5/30 34/5/34
f 35/5/35 31/5/31 32/5/32
f 35/5/35 32/5/32 36/5/36
f 36/5/36 32/5/32 33/5/33
f 36/5/36 33/5/33 37/5/37
f 37/5/37 33/5/33 34/5/34
f 37/5/37 34/5/34 38/5/38
f 39/5/39 35/5/35 36/5/36
f 39/5/39 36/5/36 40/5/40
f 40/5/40 36/5/36 37/5/37
f 40/5/40 37/5/37 41/5/41
f 41/5/41 37/5/37 38/5/38
f 41/5/41 38/5/38 42/5/42
f 43/5/43 39/5/39 40/5/40
f 43/5/43 40/5/40 44/5/44
f 44/5/44 40/5/40 41/5/41
f 44/5/44 41/5/41 45/5/45
f 45/5/45 41/5/41 42/5/42
f 45/5/45 42/5/42 46/5/46
f 47/5/47 43/5/43 44/5/44
f 47/5/47 44/5/44 48/5/48
f 48/5/48 44/5/44 45/5/45
f 48/5/48 45/5/45 49/5/49
f 49/5/49 45/5/45 46/5/46
f 49/5/49 46/5/46 50/5/50
f 1/5/51 47/5/47 48/5/48
f 1/5/51 48/5/48 2/5/52
f 2/5/52 48/5/48 49/5/49
f 2/5/52 49/5/49 11/5/53
f 11/5/53 49/5/49 50/5/50
f 11/5/53 50/5/50 15/5/54
# 70 triangles in group

g j part 2
s 2
f 52/5/55 67/5/55 54/5/55
s 1
f 51/2/56 52/5/56 53/13/57
f 52/5/56 54/14/57 53/13/57
s 2
f 54/5/55 67/5/55 56/5/55
s 1
f 53/13/57 54/14/57 56/6/58
f 53/13/57 56/6/58 55/3/58
s 2
f 56/5/55 67/5/55 58/5/55
s 1
f 55/3/58 56/6/58 57/15/59
f 56/6/58 58/16/59 57/15/59
s 2
f 58/5/55 67/5/55 60/5/55
s 1
f 57/15/59 58/16/59 60/9/60
f 57/15/59 60/9/60 59/8/60
s 2
f 60/5/55 67/5/55 62/5/55
s 1
f 59/8/60 60/9/60 61/17/61
f 60/9/60 62/18/61 61/17/61
s 2
f 62/5/55 67/5/55 64/5/55
s 1
f 61/17/61 62/18/61 64/12/62
f 61/17/61 64/12/62 63/10/62
s 2
f 64/5/55 67/5/55 66/5/55
s 1
f 63/10/62 64/12/62 65/19/63
f 64/12/62 66/20/63 65/19/63
s 2
f 66/5/55 67/5/55 52/5/55
s 1
f 65/19/63 66/20/63 52/21/56
f 65/19/63 52/21/56 51/22/56
# 24 triangles in group

# 94 triangles total

