# Wavefront OBJ exported by MilkShape 3D

v 11.102900 -0.000010 -8.684769
v 11.102900 -0.000010 -0.009108
v 5.762228 -0.000006 -4.346939
v 7.481883 34.481785 -8.684767
v 4.220503 33.356785 -4.346939
v 7.481883 34.481785 -0.009109
v 7.385523 1.427645 -8.684769
v 7.385523 1.427645 -0.009108
v 7.493132 31.682339 -8.684769
v 7.493132 31.682339 -0.009108
v 0.296544 -0.000006 -0.009108
v 0.000928 31.940115 -0.009109
v 3.638937 1.427645 -0.009108
v 3.596670 30.890675 -0.009108
v 0.296544 -0.000006 -8.684769
v 0.000928 31.940115 -8.684767
v 3.638937 1.427645 -8.684769
v 3.596670 30.890675 -8.684769
# 18 vertices

vt 0.000000 1.000000
vt 0.000000 0.000000
vt 0.000000 0.500000
vt 0.250000 0.500000
vt 0.250000 0.000000
vt 0.250000 1.000000
vt 0.500000 0.000000
vt 0.500000 0.500000
vt 0.500000 1.000000
vt 0.750000 0.500000
vt 0.750000 0.000000
vt 0.750000 1.000000
# 12 texture coordinates

vn -0.000001 -1.000000 0.000000
vn -0.323892 0.946092 0.001849
vn -0.321940 0.946760 0.000000
vn -0.323892 0.946092 -0.001849
vn 0.358519 0.933523 0.000000
vn 0.825178 0.564873 0.000000
vn 0.524433 0.358999 0.772069
vn 0.253511 0.660100 0.707107
vn 0.999994 -0.003557 0.000000
vn 0.707102 -0.002515 0.707107
vn -0.319985 0.947421 -0.001849
vn -0.277753 0.650271 0.707107
vn -0.534785 0.352551 0.767927
vn -0.707106 -0.001014 0.707107
vn -0.319985 0.947421 0.001849
vn -0.834902 0.550399 0.000000
vn -0.392803 0.919623 0.000000
vn -0.999999 -0.001435 0.000000
vn 0.894420 0.003594 0.447214
vn 0.447210 0.001798 0.894427
vn 0.999992 0.004018 0.000000
vn -0.125295 -0.429303 0.894427
vn -0.250590 -0.858606 0.447214
vn -0.280168 -0.959951 0.000000
# 24 normals

g l
s 2
f 1/1/1 2/1/1 3/1/1
f 4/1/2 5/1/3 6/1/4
s 1
f 1/2/5 7/3/6 8/4/7
f 1/2/5 8/4/7 2/5/8
f 7/3/6 9/1/9 8/4/7
f 9/1/9 10/6/10 8/4/7
s 2
f 2/1/1 11/1/1 3/1/1
f 6/1/4 5/1/3 12/1/11
s 1
f 2/5/8 8/4/7 11/7/12
f 8/4/7 13/8/13 11/7/12
f 8/4/7 10/6/10 14/9/14
f 8/4/7 14/9/14 13/8/13
s 2
f 11/1/1 15/1/1 3/1/1
f 12/1/11 5/1/3 16/1/15
s 1
f 11/7/12 13/8/13 17/10/16
f 11/7/12 17/10/16 15/11/17
f 13/8/13 14/9/14 17/10/16
f 14/9/14 18/12/18 17/10/16
s 2
f 15/1/1 1/1/1 3/1/1
f 16/1/15 5/1/3 4/1/2
s 3
f 6/1/19 10/1/20 9/1/21
f 6/1/19 9/1/21 4/1/21
f 12/1/22 14/1/23 10/1/20
f 12/1/22 10/1/20 6/1/19
f 16/1/24 18/1/24 14/1/23
f 16/1/24 14/1/23 12/1/22
s 2
f 1/1/1 2/1/1 3/1/1
f 4/1/2 5/1/3 6/1/4
s 1
f 1/2/5 7/3/6 8/4/7
f 1/2/5 8/4/7 2/5/8
f 7/3/6 9/1/9 8/4/7
f 9/1/9 10/6/10 8/4/7
s 2
f 2/1/1 11/1/1 3/1/1
f 6/1/4 5/1/3 12/1/11
s 1
f 2/5/8 8/4/7 11/7/12
f 8/4/7 13/8/13 11/7/12
f 8/4/7 10/6/10 14/9/14
f 8/4/7 14/9/14 13/8/13
s 2
f 11/1/1 15/1/1 3/1/1
f 12/1/11 5/1/3 16/1/15
s 1
f 11/7/12 13/8/13 17/10/16
f 11/7/12 17/10/16 15/11/17
f 13/8/13 14/9/14 17/10/16
f 14/9/14 18/12/18 17/10/16
s 2
f 15/1/1 1/1/1 3/1/1
f 16/1/15 5/1/3 4/1/2
s 3
f 6/1/19 10/1/20 9/1/21
f 6/1/19 9/1/21 4/1/21
f 12/1/22 14/1/23 10/1/20
f 12/1/22 10/1/20 6/1/19
f 16/1/24 18/1/24 14/1/23
f 16/1/24 14/1/23 12/1/22
# 52 triangles in group

# 52 triangles total

