# Wavefront OBJ exported by MilkShape 3D

v 16.615276 1.515829 -8.619412
v 14.400766 1.557506 -8.619412
v 11.829340 2.374808 -8.619412
v 9.400770 4.124154 -8.619412
v 7.186483 7.450769 -8.619412
v 5.900770 11.350928 -8.619412
v 5.400766 15.537877 -8.619412
v 5.400766 19.939905 -8.619412
v 5.972197 23.911768 -8.619412
v 7.257910 27.596842 -8.619412
v 9.824038 30.721235 -8.619429
v 16.615276 1.515829 0.009154
v 14.400766 1.557506 0.009154
v 11.829340 2.374808 0.009154
v 9.400770 4.124154 0.009154
v 7.186483 7.450769 0.009154
v 5.900770 11.350928 0.009154
v 5.400766 15.537877 0.009154
v 5.400766 19.939905 0.009154
v 5.972197 23.911768 0.009154
v 7.257910 27.596842 0.009154
v 9.824038 30.721235 0.009125
v 17.290562 -0.053269 0.009151
v 14.835649 -0.163178 0.009151
v 10.692793 0.582439 0.009151
v 6.192793 2.977042 0.009151
v 2.764219 6.733826 0.009151
v 0.764221 10.992457 0.009151
v -0.021493 15.968043 0.009151
v -0.021493 20.800236 0.009151
v 1.549934 25.417356 0.009151
v 3.978504 29.102423 0.009151
v 7.544172 32.063034 0.009125
v 17.290562 -0.053269 -8.619417
v 14.835649 -0.163178 -8.619417
v 10.692793 0.582439 -8.619417
v 6.192793 2.977042 -8.619417
v 2.764219 6.733826 -8.619417
v 0.764221 10.992457 -8.619417
v -0.021493 15.968043 -8.619417
v -0.021493 20.800236 -8.619417
v 1.549934 25.417356 -8.619417
v 3.978504 29.102423 -8.619417
v 7.544172 32.063034 -8.619429
v 18.866512 1.914619 -8.619441
v 18.866512 1.914619 0.009099
v 20.341797 0.496112 0.009099
v 20.341797 0.496112 -8.619441
v 21.632996 3.257076 -8.619441
v 21.632996 3.257076 0.009099
v 23.658291 1.938972 0.009099
v 23.658291 1.938972 -8.619441
v 23.655872 5.248422 -8.619441
v 23.655872 5.248422 0.009099
v 26.031170 3.629161 0.009099
v 26.031170 3.629161 -8.619441
v 24.893047 7.062181 -8.619441
v 24.893047 7.062181 0.009099
v 28.868355 6.547009 0.009099
v 28.868355 6.547009 -8.619441
v 26.139122 10.521560 -8.619441
v 26.139122 10.521560 0.009099
v 31.014412 10.508262 0.009099
v 31.014412 10.508262 -8.619441
v 26.728268 15.824992 -8.619441
v 26.728268 15.824992 0.009099
v 32.003567 15.109084 0.009099
v 32.003567 15.109084 -8.619441
v 26.549088 19.978807 -8.619441
v 26.549088 19.978807 0.009099
v 31.911869 21.094679 0.009099
v 31.911869 21.094679 -8.619441
v 26.001820 23.605927 -8.619441
v 26.001820 23.605927 0.009099
v 30.139622 25.825926 0.009099
v 30.139622 25.825926 -8.619441
v 24.769558 27.188459 -8.619441
v 24.769558 27.188459 0.009099
v 28.344864 28.718386 0.009099
v 28.344864 28.718386 -8.619441
v 23.474545 29.407763 -8.619441
v 23.474545 29.407763 0.009099
v 25.799835 31.125864 0.009099
v 25.799835 31.125864 -8.619441
v 21.474579 31.352461 -8.619441
v 21.474579 31.352461 0.009099
v 23.487274 32.819675 0.009099
v 23.487274 32.819675 -8.619441
v 19.287079 32.356167 -8.619441
v 19.287079 32.356167 0.009099
v 20.424774 34.074329 0.009099
v 20.424774 34.074329 -8.619441
v 17.474579 32.732563 -8.619441
v 17.474579 32.732563 0.009099
v 16.674770 34.576237 0.009099
v 16.674770 34.576237 -8.619441
v 14.287077 32.795307 -8.619441
v 14.287077 32.795307 0.009099
v 13.737272 34.388065 0.009099
v 13.737272 34.388065 -8.619441
v 11.787077 32.105236 -8.619441
v 11.787077 32.105236 0.009099
v 10.674772 33.697926 0.009099
v 10.674772 33.697926 -8.619441
v 9.824038 30.721235 -8.619429
v 9.824038 30.721235 0.009125
v 7.544172 32.063034 0.009125
v 7.544172 32.063034 -8.619429
# 108 vertices

vt 0.000000 0.000000
vt 0.000000 0.100000
vt 0.250000 0.100000
vt 0.250000 0.000000
vt 0.000000 0.200000
vt 0.250000 0.200000
vt 0.000000 0.300000
vt 0.250000 0.300000
vt 0.000000 0.400000
vt 0.250000 0.400000
vt 0.000000 0.500000
vt 0.250000 0.500000
vt 0.000000 0.600000
vt 0.250000 0.600000
vt 0.000000 0.700000
vt 0.250000 0.700000
vt 0.000000 0.800000
vt 0.250000 0.800000
vt 0.000000 0.900000
vt 0.250000 0.900000
vt 0.000000 1.000000
vt 0.250000 1.000000
vt 0.500000 0.000000
vt 0.500000 0.100000
vt 0.500000 0.200000
vt 0.500000 0.300000
vt 0.500000 0.400000
vt 0.500000 0.500000
vt 0.500000 0.600000
vt 0.500000 0.700000
vt 0.500000 0.800000
vt 0.500000 0.900000
vt 0.500000 1.000000
vt 0.750000 0.100000
vt 0.750000 0.000000
vt 0.750000 0.200000
vt 0.750000 0.300000
vt 0.750000 0.400000
vt 0.750000 0.500000
vt 0.750000 0.600000
vt 0.750000 0.700000
vt 0.750000 0.800000
vt 0.750000 0.900000
vt 0.750000 1.000000
# 44 texture coordinates

vn 0.018817 0.999823 0.000000
vn 0.162556 0.986699 0.000000
vn 0.114341 0.694039 0.710800
vn 0.013306 0.706981 0.707107
vn 0.449305 0.893378 0.000000
vn 0.315703 0.627730 0.711538
vn 0.720049 0.693923 0.000000
vn 0.505005 0.486681 0.712819
vn 0.899199 0.437539 0.000000
vn 0.632942 0.307982 0.710304
vn 0.976192 0.216909 0.000000
vn 0.688548 0.152995 0.708868
vn 0.998235 0.059393 0.000000
vn 0.705234 0.041960 0.707731
vn 0.997449 -0.071384 0.000000
vn 0.704401 -0.050411 0.708009
vn 0.971506 -0.237014 0.000000
vn 0.685358 -0.167203 0.708750
vn 0.871938 -0.489616 0.000000
vn 0.611739 -0.343505 0.712587
vn 0.772767 -0.634689 0.000000
vn 0.546432 -0.448789 0.707107
vn 0.031626 -0.706400 0.707106
vn -0.046957 -0.703340 0.709301
vn -0.230095 -0.664070 0.711384
vn -0.430361 -0.554476 0.712282
vn -0.584454 -0.390822 0.711106
vn -0.672585 -0.206465 0.710635
vn -0.703857 -0.055232 0.708191
vn -0.692887 0.114681 0.711868
vn -0.632465 0.309718 0.709974
vn -0.523903 0.469108 0.710959
vn -0.451705 0.544026 0.707106
vn -0.066615 -0.997779 0.000000
vn 0.044726 -0.998999 0.000000
vn -0.327396 -0.944887 0.000000
vn -0.613143 -0.789972 0.000000
vn -0.831271 -0.555868 0.000000
vn -0.955972 -0.293457 0.000000
vn -0.996935 -0.078230 0.000000
vn -0.986578 0.163291 0.000000
vn -0.898097 0.439798 0.000000
vn -0.744994 0.667072 0.000000
vn -0.638811 0.769364 0.000000
vn -0.264046 0.964510 0.000000
vn -0.174427 0.984670 0.000000
vn -0.156002 0.880718 0.447213
vn -0.247954 0.658988 0.710108
vn 0.079264 -0.440127 0.894430
vn 0.178100 -0.682113 0.709226
vn 0.177203 -0.984174 0.000000
vn 0.326982 -0.945031 0.000000
vn -0.531135 0.847287 0.000000
vn -0.436162 0.551226 0.711275
vn 0.325592 -0.625756 0.708816
vn 0.522276 -0.852776 0.000000
vn -0.746197 0.665725 0.000000
vn -0.555955 0.434519 0.708595
vn 0.443279 -0.549266 0.708386
vn 0.673789 -0.738924 0.000000
vn -0.870528 0.492119 0.000000
vn -0.640495 0.293610 0.709619
vn 0.547504 -0.442756 0.710075
vn 0.832125 -0.554588 0.000000
vn -0.964427 0.264349 0.000000
vn -0.692397 0.132329 0.709278
vn 0.647827 -0.275330 0.710291
vn 0.953428 -0.301622 0.000000
vn -0.998235 0.059396 0.000000
vn -0.706154 0.005715 0.708035
vn 0.698544 -0.095749 0.709133
vn 0.998187 -0.060197 0.000000
vn -0.702055 -0.080539 0.707554
vn 0.696600 0.090489 0.711731
vn 0.970247 0.242117 0.000000
vn -0.977991 -0.208646 0.000000
vn -0.680079 -0.188840 0.708401
vn 0.643113 0.290257 0.708631
vn 0.882428 0.470448 0.000000
vn -0.922289 -0.386502 0.000000
vn -0.631399 -0.314926 0.708630
vn 0.564611 0.421325 0.709718
vn 0.746879 0.664960 0.000000
vn -0.814827 -0.579704 0.000000
vn -0.534383 -0.458629 0.709996
vn 0.463631 0.533078 0.707725
vn 0.624088 0.781354 0.000000
vn -0.611652 -0.791127 0.000000
vn -0.363241 -0.601305 0.711680
vn 0.369116 0.600382 0.709433
vn 0.452673 0.891677 0.000000
vn -0.347759 -0.937584 0.000000
vn -0.194694 -0.677693 0.709103
vn 0.210742 0.672270 0.709677
vn 0.216377 0.976310 0.000000
vn -0.142655 -0.989772 0.000000
vn -0.057311 -0.703428 0.708452
vn 0.047571 0.703973 0.708632
vn 0.001608 0.999999 0.000000
vn 0.076279 -0.997087 0.000000
vn 0.121352 -0.693270 0.710388
vn -0.082065 0.701344 0.708083
vn -0.168333 0.985730 0.000000
vn 0.374386 -0.927273 0.000000
vn 0.336557 -0.616526 0.711776
vn -0.213535 0.671307 0.709754
vn -0.384761 0.923016 0.000000
vn 0.576218 -0.817296 0.000000
vn 0.257699 -0.365500 0.894428
vn -0.414034 0.792828 0.447213
vn -0.462908 0.886407 0.000000
# 111 normals

g O
s 1
f 1/1/1 2/2/2 13/3/3
f 1/1/1 13/3/3 12/4/4
f 2/2/2 3/5/5 13/3/3
f 3/5/5 14/6/6 13/3/3
f 3/5/5 4/7/7 15/8/8
f 3/5/5 15/8/8 14/6/6
f 4/7/7 5/9/9 15/8/8
f 5/9/9 16/10/10 15/8/8
f 5/9/9 6/11/11 17/12/12
f 5/9/9 17/12/12 16/10/10
f 6/11/11 7/13/13 17/12/12
f 7/13/13 18/14/14 17/12/12
f 7/13/13 8/15/15 19/16/16
f 7/13/13 19/16/16 18/14/14
f 8/15/15 9/17/17 19/16/16
f 9/17/17 20/18/18 19/16/16
f 9/17/17 10/19/19 21/20/20
f 9/17/17 21/20/20 20/18/18
f 10/19/19 11/21/21 21/20/20
f 11/21/21 22/22/22 21/20/20
f 12/4/4 13/3/3 23/23/23
f 13/3/3 24/24/24 23/23/23
f 13/3/3 14/6/6 25/25/25
f 13/3/3 25/25/25 24/24/24
f 14/6/6 15/8/8 25/25/25
f 15/8/8 26/26/26 25/25/25
f 15/8/8 16/10/10 27/27/27
f 15/8/8 27/27/27 26/26/26
f 16/10/10 17/12/12 27/27/27
f 17/12/12 28/28/28 27/27/27
f 17/12/12 18/14/14 29/29/29
f 17/12/12 29/29/29 28/28/28
f 18/14/14 19/16/16 29/29/29
f 19/16/16 30/30/30 29/29/29
f 19/16/16 20/18/18 31/31/31
f 19/16/16 31/31/31 30/30/30
f 20/18/18 21/20/20 31/31/31
f 21/20/20 32/32/32 31/31/31
f 21/20/20 22/22/22 33/33/33
f 21/20/20 33/33/33 32/32/32
f 23/23/23 24/24/24 35/34/34
f 23/23/23 35/34/34 34/35/35
f 24/24/24 25/25/25 35/34/34
f 25/25/25 36/36/36 35/34/34
f 25/25/25 26/26/26 37/37/37
f 25/25/25 37/37/37 36/36/36
f 26/26/26 27/27/27 37/37/37
f 27/27/27 38/38/38 37/37/37
f 27/27/27 28/28/28 39/39/39
f 27/27/27 39/39/39 38/38/38
f 28/28/28 29/29/29 39/39/39
f 29/29/29 40/40/40 39/39/39
f 29/29/29 30/30/30 41/41/41
f 29/29/29 41/41/41 40/40/40
f 30/30/30 31/31/31 41/41/41
f 31/31/31 42/42/42 41/41/41
f 31/31/31 32/32/32 43/43/43
f 31/31/31 43/43/43 42/42/42
f 32/32/32 33/33/33 43/43/43
f 33/33/33 44/44/44 43/43/43
s 3
f 45/21/45 1/21/46 12/21/47
f 45/21/45 12/21/47 46/21/48
f 46/21/48 12/21/47 23/21/49
f 46/21/48 23/21/49 47/21/50
f 47/21/50 23/21/49 34/21/51
f 47/21/50 34/21/51 48/21/52
f 49/21/53 45/21/45 46/21/48
f 49/21/53 46/21/48 50/21/54
f 50/21/54 46/21/48 47/21/50
f 50/21/54 47/21/50 51/21/55
f 51/21/55 47/21/50 48/21/52
f 51/21/55 48/21/52 52/21/56
f 53/21/57 49/21/53 50/21/54
f 53/21/57 50/21/54 54/21/58
f 54/21/58 50/21/54 51/21/55
f 54/21/58 51/21/55 55/21/59
f 55/21/59 51/21/55 52/21/56
f 55/21/59 52/21/56 56/21/60
f 57/21/61 53/21/57 54/21/58
f 57/21/61 54/21/58 58/21/62
f 58/21/62 54/21/58 55/21/59
f 58/21/62 55/21/59 59/21/63
f 59/21/63 55/21/59 56/21/60
f 59/21/63 56/21/60 60/21/64
f 61/21/65 57/21/61 58/21/62
f 61/21/65 58/21/62 62/21/66
f 62/21/66 58/21/62 59/21/63
f 62/21/66 59/21/63 63/21/67
f 63/21/67 59/21/63 60/21/64
f 63/21/67 60/21/64 64/21/68
f 65/21/69 61/21/65 62/21/66
f 65/21/69 62/21/66 66/21/70
f 66/21/70 62/21/66 63/21/67
f 66/21/70 63/21/67 67/21/71
f 67/21/71 63/21/67 64/21/68
f 67/21/71 64/21/68 68/21/72
f 69/21/40 65/21/69 66/21/70
f 69/21/40 66/21/70 70/21/73
f 70/21/73 66/21/70 67/21/71
f 70/21/73 67/21/71 71/21/74
f 71/21/74 67/21/71 68/21/72
f 71/21/74 68/21/72 72/21/75
f 73/21/76 69/21/40 70/21/73
f 73/21/76 70/21/73 74/21/77
f 74/21/77 70/21/73 71/21/74
f 74/21/77 71/21/74 75/21/78
f 75/21/78 71/21/74 72/21/75
f 75/21/78 72/21/75 76/21/79
f 77/21/80 73/21/76 74/21/77
f 77/21/80 74/21/77 78/21/81
f 78/21/81 74/21/77 75/21/78
f 78/21/81 75/21/78 79/21/82
f 79/21/82 75/21/78 76/21/79
f 79/21/82 76/21/79 80/21/83
f 81/21/84 77/21/80 78/21/81
f 81/21/84 78/21/81 82/21/85
f 82/21/85 78/21/81 79/21/82
f 82/21/85 79/21/82 83/21/86
f 83/21/86 79/21/82 80/21/83
f 83/21/86 80/21/83 84/21/87
f 85/21/88 81/21/84 82/21/85
f 85/21/88 82/21/85 86/21/89
f 86/21/89 82/21/85 83/21/86
f 86/21/89 83/21/86 87/21/90
f 87/21/90 83/21/86 84/21/87
f 87/21/90 84/21/87 88/21/91
f 89/21/92 85/21/88 86/21/89
f 89/21/92 86/21/89 90/21/93
f 90/21/93 86/21/89 87/21/90
f 90/21/93 87/21/90 91/21/94
f 91/21/94 87/21/90 88/21/91
f 91/21/94 88/21/91 92/21/95
f 93/21/96 89/21/92 90/21/93
f 93/21/96 90/21/93 94/21/97
f 94/21/97 90/21/93 91/21/94
f 94/21/97 91/21/94 95/21/98
f 95/21/98 91/21/94 92/21/95
f 95/21/98 92/21/95 96/21/99
f 97/21/100 93/21/96 94/21/97
f 97/21/100 94/21/97 98/21/101
f 98/21/101 94/21/97 95/21/98
f 98/21/101 95/21/98 99/21/102
f 99/21/102 95/21/98 96/21/99
f 99/21/102 96/21/99 100/21/103
f 101/21/104 97/21/100 98/21/101
f 101/21/104 98/21/101 102/21/105
f 102/21/105 98/21/101 99/21/102
f 102/21/105 99/21/102 103/21/106
f 103/21/106 99/21/102 100/21/103
f 103/21/106 100/21/103 104/21/107
f 105/21/108 101/21/104 102/21/105
f 105/21/108 102/21/105 106/21/109
f 106/21/109 102/21/105 103/21/106
f 106/21/109 103/21/106 107/21/110
f 107/21/110 103/21/106 104/21/107
f 107/21/110 104/21/107 108/21/111
# 156 triangles in group

# 156 triangles total

