# Wavefront OBJ exported by MilkShape 3D

v 3.390322 -8.914028 0.012793
v 0.001905 -10.658886 0.012793
v 7.309580 -8.914028 0.012793
v 11.031328 -10.658878 0.012793
v 7.309580 -8.914028 -8.621487
v 11.031328 -10.658878 -8.621487
v 3.390322 -8.914028 -8.621487
v 0.001905 -10.658886 -8.621487
v 3.390299 18.919275 -8.621485
v 3.390299 18.919275 0.012791
v 7.309610 16.169275 -8.621485
v 7.309610 16.169275 0.012791
v 3.390299 18.919275 -8.621485
v 3.390299 18.919275 0.012791
v 7.309614 17.835943 -8.621485
v 7.309614 17.835943 0.012791
v 0.015299 20.210964 -8.621485
v 0.015299 20.210964 0.012791
v 7.309610 23.169296 -8.621485
v 7.309610 23.169296 0.012791
v 0.015299 20.210964 -8.621485
v 0.015299 20.210964 0.012791
v 7.309610 23.169296 -8.621485
v 7.309610 23.169296 0.012791
v 10.837370 21.750336 0.012791
v 10.615187 19.254864 0.012791
v 10.615187 19.254864 -8.621485
v 10.837370 21.750336 -8.621485
v 13.650167 22.814123 0.012791
v 13.469091 19.524408 0.012791
v 13.469091 19.524408 -8.621485
v 13.650167 22.814123 -8.621485
v 16.934813 22.515570 0.012791
v 15.017805 18.823006 0.012791
v 15.017805 18.823006 -8.621485
v 16.934813 22.515570 -8.621485
v 20.253847 20.244316 0.012791
v 16.698755 17.094259 0.012791
v 16.698755 17.094259 -8.621485
v 20.253847 20.244316 -8.621485
v 22.386538 16.144552 0.012791
v 17.732721 15.194021 0.012791
v 17.732721 15.194021 -8.621485
v 22.386538 16.144552 -8.621485
v 22.870264 11.647898 0.012791
v 18.582293 11.690676 0.012791
v 18.582293 11.690676 -8.621485
v 22.870264 11.647898 -8.621485
v 22.122946 6.713346 0.012791
v 18.662985 7.291898 0.012791
v 18.662985 7.291898 -8.621485
v 22.122946 6.713346 -8.621485
v 19.788473 2.762984 0.012791
v 17.330832 3.575545 0.012791
v 17.330832 3.575545 -8.621485
v 19.788473 2.762984 -8.621485
v 16.105536 -0.048524 0.012791
v 15.513815 1.387099 0.012791
v 15.513815 1.387099 -8.621485
v 16.105536 -0.048524 -8.621485
v 12.871759 -0.626043 0.012791
v 12.914255 0.631281 0.012791
v 12.914255 0.631281 -8.621485
v 12.871759 -0.626043 -8.621485
v 9.412893 -0.032426 0.012791
v 9.873068 1.371024 0.012791
v 9.873068 1.371024 -8.621485
v 9.412893 -0.032426 -8.621485
v 7.171416 1.198081 0.012791
v 7.114546 4.307224 0.012791
v 7.114546 4.307224 -8.621485
v 7.171415 1.198081 -8.621485
# 72 vertices

vt 0.000000 1.000000
vt 0.000000 0.000000
vt 1.000000 1.000000
vt 1.000000 0.000000
# 4 texture coordinates

vn 0.000000 0.000000 1.000000
vn 0.424490 0.905433 0.000000
vn -0.457814 0.889048 0.000000
vn -0.375834 0.926687 0.000000
vn 0.000001 -1.000000 0.000000
vn -1.000000 -0.000001 0.000000
vn -0.894427 -0.000001 0.447214
vn -0.447214 -0.000000 0.894427
vn 0.447214 -0.000000 0.894427
vn 0.707107 -0.000001 0.707107
vn 1.000000 -0.000001 0.000000
vn -0.357439 -0.933937 0.000000
vn -0.252747 -0.660393 0.707107
vn 0.316228 0.000000 0.948683
vn -0.159851 -0.417669 0.894427
vn 0.894427 0.000001 0.447214
vn 0.000000 0.000000 0.000000
vn -0.346143 0.606247 0.715996
vn -0.664417 0.598790 0.447214
vn 0.305162 -0.326919 0.894427
vn 0.352068 -0.593135 0.724043
vn 0.682364 -0.731013 0.000000
vn 0.304564 -0.952492 0.000000
vn -0.628856 0.777522 0.000000
vn -0.742841 0.669468 0.000000
vn -0.041169 0.697769 0.715139
vn -0.053707 -0.694275 0.717703
vn -0.251167 -0.967944 0.000000
vn -0.210408 0.977614 0.000000
vn 0.291703 0.632763 0.717301
vn -0.366294 -0.598349 0.712606
vn -0.625171 -0.780488 0.000000
vn 0.255921 0.966698 0.000000
vn 0.558697 0.417585 0.716576
vn -0.547268 -0.443111 0.710036
vn -0.831448 -0.555603 0.000000
vn 0.690583 0.723253 0.000000
vn 0.683027 0.160422 0.712558
vn -0.645561 -0.281915 0.709771
vn -0.947812 -0.318830 0.000000
vn 0.937246 0.348669 0.000000
vn 0.703019 -0.045544 0.709711
vn -0.695647 -0.115729 0.709001
vn -0.995826 -0.091273 0.000000
vn 0.999768 0.021551 0.000000
vn 0.644100 -0.277371 0.712882
vn -0.698265 0.071405 0.712269
vn -0.975030 0.222073 0.000000
vn 0.961768 -0.273867 0.000000
vn 0.492988 -0.498691 0.712930
vn -0.629324 0.311725 0.711884
vn -0.837987 0.545691 0.000000
vn 0.789149 -0.614201 0.000000
vn 0.228733 -0.659587 0.715979
vn -0.436914 0.537828 0.721004
vn -0.460515 0.887652 0.000000
vn 0.474975 -0.879999 0.000000
vn -0.038555 -0.701295 0.711828
vn -0.077049 0.691983 0.717790
vn 0.066499 0.997787 0.000000
vn 0.061643 -0.998098 0.000000
vn -0.268355 -0.649492 0.711439
vn 0.288453 0.630928 0.720225
vn 0.586216 0.810155 -0.000000
vn -0.276553 -0.960999 0.000000
vn -0.215211 -0.392026 0.894427
vn 0.651871 0.612425 0.447214
vn 0.728814 0.684712 -0.000000
vn -0.481226 -0.876596 0.000000
# 69 normals

g p
s 1
f 1/1/1 2/2/1 3/3/1
f 2/2/1 4/4/1 3/3/1
s 2
f 3/1/2 4/2/2 5/3/2
f 4/2/2 6/4/2 5/3/2
f 7/1/3 8/2/3 1/3/3
f 8/2/3 2/4/3 1/3/3
s 3
f 21/1/4 22/2/4 23/3/4
f 22/2/4 24/4/4 23/3/4
f 2/1/5 8/2/5 4/3/5
f 8/2/5 6/4/5 4/3/5
s 4
f 9/1/6 7/1/6 1/1/7
f 9/1/6 1/1/7 10/1/8
f 10/1/8 1/1/7 3/1/9
f 10/1/8 3/1/9 12/1/10
f 12/1/10 3/1/9 5/1/11
f 12/1/10 5/1/11 11/1/11
f 13/1/12 9/1/6 10/1/8
f 13/1/12 10/1/8 14/1/13
f 15/1/11 9/1/6 13/1/12
f 14/1/13 10/1/8 12/1/10
f 14/1/13 12/1/10 16/1/14
f 17/1/12 13/1/12 14/1/13
f 17/1/12 14/1/13 18/1/15
f 18/1/15 14/1/13 16/1/14
f 18/1/15 16/1/14 20/1/16
f 20/1/16 16/1/14 15/1/11
f 20/1/16 15/1/11 19/1/11
f 21/1/17 17/1/12 18/1/15
f 21/1/17 18/1/15 22/1/17
f 23/1/17 19/1/11 17/1/12
f 23/1/17 17/1/12 21/1/17
f 22/1/17 18/1/15 20/1/16
f 22/1/17 20/1/16 24/1/17
f 24/1/17 20/1/16 19/1/11
f 24/1/17 19/1/11 23/1/17
s 5
f 25/1/18 16/1/19 12/1/20
f 25/1/18 12/1/20 26/1/21
f 26/1/21 12/1/20 11/1/22
f 26/1/21 11/1/22 27/1/23
f 28/1/24 15/1/25 16/1/19
f 28/1/24 16/1/19 25/1/18
f 29/1/26 25/1/18 26/1/21
f 29/1/26 26/1/21 30/1/27
f 30/1/27 26/1/21 27/1/23
f 30/1/27 27/1/23 31/1/28
f 32/1/29 28/1/24 25/1/18
f 32/1/29 25/1/18 29/1/26
f 33/1/30 29/1/26 30/1/27
f 33/1/30 30/1/27 34/1/31
f 34/1/31 30/1/27 31/1/28
f 34/1/31 31/1/28 35/1/32
f 36/1/33 32/1/29 29/1/26
f 36/1/33 29/1/26 33/1/30
f 37/1/34 33/1/30 34/1/31
f 37/1/34 34/1/31 38/1/35
f 38/1/35 34/1/31 35/1/32
f 38/1/35 35/1/32 39/1/36
f 40/1/37 36/1/33 33/1/30
f 40/1/37 33/1/30 37/1/34
f 41/1/38 37/1/34 38/1/35
f 41/1/38 38/1/35 42/1/39
f 42/1/39 38/1/35 39/1/36
f 42/1/39 39/1/36 43/1/40
f 44/1/41 40/1/37 37/1/34
f 44/1/41 37/1/34 41/1/38
f 45/1/42 41/1/38 42/1/39
f 45/1/42 42/1/39 46/1/43
f 46/1/43 42/1/39 43/1/40
f 46/1/43 43/1/40 47/1/44
f 48/1/45 44/1/41 41/1/38
f 48/1/45 41/1/38 45/1/42
f 49/1/46 45/1/42 46/1/43
f 49/1/46 46/1/43 50/1/47
f 50/1/47 46/1/43 47/1/44
f 50/1/47 47/1/44 51/1/48
f 52/1/49 48/1/45 45/1/42
f 52/1/49 45/1/42 49/1/46
f 53/1/50 49/1/46 50/1/47
f 53/1/50 50/1/47 54/1/51
f 54/1/51 50/1/47 51/1/48
f 54/1/51 51/1/48 55/1/52
f 56/1/53 52/1/49 49/1/46
f 56/1/53 49/1/46 53/1/50
f 57/1/54 53/1/50 54/1/51
f 57/1/54 54/1/51 58/1/55
f 58/1/55 54/1/51 55/1/52
f 58/1/55 55/1/52 59/1/56
f 60/1/57 56/1/53 53/1/50
f 60/1/57 53/1/50 57/1/54
f 61/1/58 57/1/54 58/1/55
f 61/1/58 58/1/55 62/1/59
f 62/1/59 58/1/55 59/1/56
f 62/1/59 59/1/56 63/1/60
f 64/1/61 60/1/57 57/1/54
f 64/1/61 57/1/54 61/1/58
f 65/1/62 61/1/58 62/1/59
f 65/1/62 62/1/59 66/1/63
f 66/1/63 62/1/59 63/1/60
f 66/1/63 63/1/60 67/1/64
f 68/1/65 64/1/61 61/1/58
f 68/1/65 61/1/58 65/1/62
f 69/1/66 65/1/62 66/1/63
f 69/1/66 66/1/63 70/1/67
f 70/1/67 66/1/63 67/1/64
f 70/1/67 67/1/64 71/1/68
f 72/1/69 68/1/65 65/1/62
f 72/1/69 65/1/62 69/1/66
# 107 triangles in group

# 107 triangles total

