# Wavefront OBJ exported by MilkShape 3D

v 16.679108 0.679612 -8.619972
v 14.464594 0.721289 -8.619972
v 14.464594 0.721289 0.008594
v 16.679108 0.679612 0.008594
v 11.984074 1.493134 -8.619972
v 11.984074 1.493134 0.008594
v 9.555506 3.197025 -8.619972
v 9.555506 3.197025 0.008594
v 7.204861 6.387275 -8.619972
v 7.204861 6.387275 0.008594
v 5.919147 10.287437 -8.619972
v 5.919147 10.287437 0.008594
v 5.419144 14.474392 -8.619972
v 5.419144 14.474392 0.008594
v 5.419144 18.876419 -8.619972
v 5.419144 18.876419 0.008594
v 5.990574 22.848282 -8.619972
v 5.990574 22.848282 0.008594
v 7.276287 26.533344 -8.619972
v 7.276287 26.533344 0.008594
v 9.842411 29.657730 -8.619987
v 9.842411 29.657730 0.008565
v 11.872787 -0.530025 0.008312
v 6.665716 2.004459 0.008591
v 2.918959 5.670333 0.008591
v 0.782596 9.928967 0.008591
v -0.003118 14.904556 0.008591
v -0.003118 19.736748 0.008591
v 1.568309 24.353867 0.008591
v 3.996880 28.038918 0.008591
v 7.562548 30.999527 0.008565
v 6.665716 2.004459 -8.619976
v 11.872787 -0.530025 -8.622160
v 2.918959 5.670333 -8.619976
v 0.782596 9.928967 -8.619976
v -0.003118 14.904556 -8.619976
v -0.003118 19.736748 -8.619976
v 1.568309 24.353867 -8.619976
v 3.996880 28.038918 -8.619976
v 7.562548 30.999527 -8.619987
v 18.793980 0.987494 -8.620001
v 18.793980 0.987494 0.008539
v 20.083233 -0.465136 0.008146
v 20.083233 -0.465136 -8.623264
v 21.560459 2.239039 -8.620001
v 21.560459 2.239039 0.008539
v 23.585758 0.920937 0.008539
v 23.585758 0.920937 -8.620001
v 23.674248 4.184929 -8.620001
v 23.674248 4.184929 0.008539
v 26.004093 2.611122 0.008539
v 26.004093 2.611122 -8.620001
v 24.911423 5.998687 -8.620001
v 24.911423 5.998687 0.008539
v 28.886726 5.483516 0.008539
v 28.886726 5.483516 -8.620001
v 26.157494 9.458069 -8.620001
v 26.157494 9.458069 0.008539
v 31.032787 9.444771 0.008539
v 31.032787 9.444771 -8.620001
v 26.746643 14.761505 -8.620001
v 26.746643 14.761505 0.008539
v 32.021950 14.045597 0.008539
v 32.021950 14.045597 -8.620001
v 26.567459 18.915321 -8.620001
v 26.567459 18.915321 0.008539
v 31.930252 20.031193 0.008539
v 31.930252 20.031193 -8.620001
v 26.020195 22.542439 -8.620001
v 26.020195 22.542439 0.008539
v 30.158001 24.762436 0.008539
v 30.158001 24.762436 -8.620001
v 24.787933 26.124966 -8.620001
v 24.787933 26.124966 0.008539
v 28.363235 27.654881 0.008539
v 28.363235 27.654881 -8.620001
v 23.492920 28.344257 -8.620001
v 23.492920 28.344257 0.008539
v 25.818207 30.062359 0.008539
v 25.818207 30.062359 -8.620001
v 21.492954 30.288956 -8.620001
v 21.492954 30.288956 0.008539
v 23.505646 31.756172 0.008539
v 23.505646 31.756172 -8.620001
v 19.305435 31.292698 -8.619995
v 19.305454 31.292664 0.008539
v 20.443150 33.010826 0.008539
v 20.443150 33.010826 -8.620001
v 17.492950 31.669060 -8.620001
v 17.492950 31.669060 0.008539
v 16.693146 33.512733 0.008539
v 16.693146 33.512733 -8.620001
v 14.305447 31.731804 -8.620001
v 14.305447 31.731804 0.008539
v 13.755644 33.324562 0.008539
v 13.755644 33.324562 -8.620001
v 11.805447 31.041729 -8.620001
v 11.805447 31.041729 0.008539
v 10.693146 32.634422 0.008539
v 10.693146 32.634422 -8.620001
v 18.154816 -5.571174 0.007753
v 22.172188 -3.629478 0.007753
v 22.172188 -3.629478 -8.626528
v 18.154816 -5.571174 -8.626528
v 32.028008 -9.909055 0.007751
v 32.028008 -9.909055 -8.626526
v 32.032269 -9.224868 0.007751
v 32.032269 -9.224868 -8.626526
v 24.297668 -8.371314 0.007751
v 24.297668 -8.371314 -8.626526
v 25.362644 -6.762616 0.007751
v 25.362644 -6.762616 -8.626526
v 27.947784 -9.379659 0.007751
v 27.947784 -9.379659 -8.626526
v 28.379189 -8.420911 0.007751
v 28.379189 -8.420911 -8.626526
# 116 vertices

vt 0.000000 0.000000
vt 0.000000 0.100000
vt 0.250000 0.100000
vt 0.250000 0.000000
vt 0.000000 0.200000
vt 0.250000 0.200000
vt 0.000000 0.300000
vt 0.250000 0.300000
vt 0.000000 0.400000
vt 0.250000 0.400000
vt 0.000000 0.500000
vt 0.250000 0.500000
vt 0.000000 0.600000
vt 0.250000 0.600000
vt 0.000000 0.700000
vt 0.250000 0.700000
vt 0.000000 0.800000
vt 0.250000 0.800000
vt 0.000000 0.900000
vt 0.250000 0.900000
vt 0.000000 1.000000
vt 0.250000 1.000000
vt 0.500000 0.000000
vt 0.500000 0.200000
vt 0.500000 0.300000
vt 0.500000 0.400000
vt 0.500000 0.500000
vt 0.500000 0.600000
vt 0.500000 0.700000
vt 0.500000 0.800000
vt 0.500000 0.900000
vt 0.500000 1.000000
vt 0.750000 0.300000
vt 0.750000 0.200000
vt 0.750000 0.400000
vt 0.750000 0.500000
vt 0.750000 0.600000
vt 0.750000 0.700000
vt 0.750000 0.800000
vt 0.750000 0.900000
vt 0.750000 1.000000
vt 1.000000 1.000000
vt 1.000000 0.000000
# 43 texture coordinates

vn 0.018816 0.999823 0.000000
vn 0.159557 0.987189 0.000000
vn 0.142423 0.881168 0.450843
vn 0.013304 0.706905 0.707183
vn 0.441019 0.897498 0.000000
vn 0.309934 0.630736 0.711416
vn 0.698853 0.715266 0.000000
vn 0.490896 0.502403 0.711767
vn 0.888502 0.458872 0.000000
vn 0.624302 0.322424 0.711541
vn 0.976192 0.216909 0.000000
vn 0.688548 0.152995 0.708868
vn 0.998235 0.059393 0.000000
vn 0.705234 0.041960 0.707731
vn 0.997449 -0.071384 0.000000
vn 0.704401 -0.050411 0.708009
vn 0.971506 -0.237014 0.000000
vn 0.685358 -0.167204 0.708750
vn 0.871938 -0.489617 0.000000
vn 0.611739 -0.343505 0.712587
vn 0.772767 -0.634690 0.000000
vn 0.546432 -0.448789 0.707107
vn -0.162550 -0.334038 0.928438
vn -0.404577 -0.574316 0.711673
vn -0.567145 -0.414070 0.711964
vn -0.669201 -0.214951 0.711313
vn -0.703857 -0.055232 0.708191
vn -0.692887 0.114681 0.711868
vn -0.632464 0.309718 0.709974
vn -0.523902 0.469109 0.710959
vn -0.451705 0.544026 0.707106
vn -0.575925 -0.817503 0.000000
vn -0.437649 -0.899146 0.000000
vn -0.807650 -0.589662 0.000000
vn -0.952091 -0.305816 0.000000
vn -0.996935 -0.078230 0.000000
vn -0.986578 0.163291 0.000000
vn -0.898096 0.439799 0.000000
vn -0.744993 0.667072 0.000000
vn -0.638811 0.769364 0.000000
vn -0.235485 0.971878 0.000000
vn -0.144061 0.989569 0.000000
vn -0.128830 0.885027 0.447358
vn -0.229243 0.665479 0.710341
vn 0.000082 -0.000524 1.000000
vn 0.116369 -0.294199 0.948633
vn -0.506263 0.862379 0.000000
vn -0.418797 0.564703 0.711140
vn 0.309399 -0.633450 0.709235
vn 0.367969 -0.929838 0.000000
vn 0.507625 -0.861578 0.000000
vn -0.731116 0.682253 0.000000
vn -0.550660 0.440317 0.709151
vn 0.437149 -0.554278 0.708291
vn 0.663740 -0.747964 0.000000
vn -0.870528 0.492119 0.000000
vn -0.640495 0.293610 0.709619
vn 0.542517 -0.448297 0.710426
vn 0.829220 -0.558922 0.000000
vn -0.964427 0.264348 0.000000
vn -0.692397 0.132329 0.709278
vn 0.647827 -0.275330 0.710291
vn 0.953427 -0.301623 0.000000
vn -0.998235 0.059396 0.000000
vn -0.706154 0.005715 0.708035
vn 0.698543 -0.095749 0.709133
vn 0.998187 -0.060197 0.000000
vn -0.702055 -0.080539 0.707554
vn 0.696600 0.090489 0.711731
vn 0.970247 0.242117 0.000000
vn -0.977991 -0.208645 0.000000
vn -0.680079 -0.188840 0.708401
vn 0.643112 0.290258 0.708631
vn 0.882426 0.470451 0.000000
vn -0.922288 -0.386503 0.000000
vn -0.631398 -0.314927 0.708630
vn 0.564610 0.421326 0.709718
vn 0.746878 0.664961 0.000000
vn -0.814826 -0.579705 0.000000
vn -0.534383 -0.458629 0.709996
vn 0.463631 0.533077 0.707725
vn 0.624089 0.781353 0.000000
vn -0.611655 -0.791125 0.000000
vn -0.363243 -0.601304 0.711680
vn 0.369116 0.600382 0.709433
vn 0.452673 0.891676 0.000000
vn -0.347757 -0.937585 -0.000002
vn -0.194690 -0.677694 0.709102
vn 0.210742 0.672270 0.709677
vn 0.216377 0.976310 0.000000
vn -0.142650 -0.989773 -0.000001
vn -0.057311 -0.703428 0.708452
vn 0.047571 0.703973 0.708632
vn 0.001608 0.999999 0.000000
vn 0.076279 -0.997087 0.000000
vn 0.121353 -0.693270 0.710388
vn -0.082065 0.701344 0.708083
vn -0.168333 0.985730 0.000000
vn 0.374387 -0.927272 0.000000
vn 0.336557 -0.616526 0.711776
vn -0.213535 0.671307 0.709754
vn -0.384762 0.923016 0.000000
vn 0.576218 -0.817296 0.000000
vn 0.257699 -0.365500 0.894428
vn -0.414035 0.792827 0.447213
vn -0.462909 0.886406 0.000000
vn 0.834550 0.550932 0.000000
vn -0.625870 -0.779928 0.000000
vn 0.999981 -0.006228 0.000000
vn 0.000000 0.000000 0.000000
vn -0.185494 -0.406930 0.894427
vn -0.414777 -0.909923 0.000000
vn 0.626697 0.638162 0.447214
vn 0.700669 0.713487 0.000000
vn -0.258649 -0.657046 0.708090
vn -0.316656 -0.948540 0.000000
vn 0.393876 0.583688 0.710049
vn 0.632949 0.774193 0.000000
vn -0.156022 -0.688883 0.707882
vn -0.174921 -0.984582 0.000000
vn 0.215844 0.669968 0.710320
vn 0.396399 0.918078 0.000000
vn -0.115084 -0.886992 0.447214
vn -0.128668 -0.991688 0.000000
vn 0.096121 0.436762 0.894427
vn 0.214933 0.976629 0.000000
# 126 normals

g Q
s 1
f 1/1/1 2/2/2 3/3/3
f 1/1/1 3/3/3 4/4/4
f 2/2/2 5/5/5 3/3/3
f 5/5/5 6/6/6 3/3/3
f 5/5/5 7/7/7 8/8/8
f 5/5/5 8/8/8 6/6/6
f 7/7/7 9/9/9 8/8/8
f 9/9/9 10/10/10 8/8/8
f 9/9/9 11/11/11 12/12/12
f 9/9/9 12/12/12 10/10/10
f 11/11/11 13/13/13 12/12/12
f 13/13/13 14/14/14 12/12/12
f 13/13/13 15/15/15 16/16/16
f 13/13/13 16/16/16 14/14/14
f 15/15/15 17/17/17 16/16/16
f 17/17/17 18/18/18 16/16/16
f 17/17/17 19/19/19 20/20/20
f 17/17/17 20/20/20 18/18/18
f 19/19/19 21/21/21 20/20/20
f 21/21/21 22/22/22 20/20/20
f 4/4/4 3/3/3 23/23/23
f 3/3/3 6/6/6 23/24/23
f 6/6/6 8/8/8 23/24/23
f 8/8/8 24/25/24 23/24/23
f 8/8/8 10/10/10 25/26/25
f 8/8/8 25/26/25 24/25/24
f 10/10/10 12/12/12 25/26/25
f 12/12/12 26/27/26 25/26/25
f 12/12/12 14/14/14 27/28/27
f 12/12/12 27/28/27 26/27/26
f 14/14/14 16/16/16 27/28/27
f 16/16/16 28/29/28 27/28/27
f 16/16/16 18/18/18 29/30/29
f 16/16/16 29/30/29 28/29/28
f 18/18/18 20/20/20 29/30/29
f 20/20/20 30/31/30 29/30/29
f 20/20/20 22/22/22 31/32/31
f 20/20/20 31/32/31 30/31/30
f 23/24/23 24/25/24 32/33/32
f 23/24/23 32/33/32 33/34/33
f 24/25/24 25/26/25 32/33/32
f 25/26/25 34/35/34 32/33/32
f 25/26/25 26/27/26 35/36/35
f 25/26/25 35/36/35 34/35/34
f 26/27/26 27/28/27 35/36/35
f 27/28/27 36/37/36 35/36/35
f 27/28/27 28/29/28 37/38/37
f 27/28/27 37/38/37 36/37/36
f 28/29/28 29/30/29 37/38/37
f 29/30/29 38/39/38 37/38/37
f 29/30/29 30/31/30 39/40/39
f 29/30/29 39/40/39 38/39/38
f 30/31/30 31/32/31 39/40/39
f 31/32/31 40/41/40 39/40/39
s 3
f 41/21/41 1/21/42 4/21/43
f 41/21/41 4/21/43 42/21/44
f 42/21/44 4/21/43 23/21/45
f 42/21/44 23/21/45 43/21/46
f 45/21/47 41/21/41 42/21/44
f 45/21/47 42/21/44 46/21/48
f 46/21/48 42/21/44 43/21/46
f 46/21/48 43/21/46 47/21/49
f 47/21/49 43/21/46 44/21/50
f 47/21/49 44/21/50 48/21/51
f 49/21/52 45/21/47 46/21/48
f 49/21/52 46/21/48 50/21/53
f 50/21/53 46/21/48 47/21/49
f 50/21/53 47/21/49 51/21/54
f 51/21/54 47/21/49 48/21/51
f 51/21/54 48/21/51 52/21/55
f 53/21/56 49/21/52 50/21/53
f 53/21/56 50/21/53 54/21/57
f 54/21/57 50/21/53 51/21/54
f 54/21/57 51/21/54 55/21/58
f 55/21/58 51/21/54 52/21/55
f 55/21/58 52/21/55 56/21/59
f 57/21/60 53/21/56 54/21/57
f 57/21/60 54/21/57 58/21/61
f 58/21/61 54/21/57 55/21/58
f 58/21/61 55/21/58 59/21/62
f 59/21/62 55/21/58 56/21/59
f 59/21/62 56/21/59 60/21/63
f 61/21/64 57/21/60 58/21/61
f 61/21/64 58/21/61 62/21/65
f 62/21/65 58/21/61 59/21/62
f 62/21/65 59/21/62 63/21/66
f 63/21/66 59/21/62 60/21/63
f 63/21/66 60/21/63 64/21/67
f 65/21/36 61/21/64 62/21/65
f 65/21/36 62/21/65 66/21/68
f 66/21/68 62/21/65 63/21/66
f 66/21/68 63/21/66 67/21/69
f 67/21/69 63/21/66 64/21/67
f 67/21/69 64/21/67 68/21/70
f 69/21/71 65/21/36 66/21/68
f 69/21/71 66/21/68 70/21/72
f 70/21/72 66/21/68 67/21/69
f 70/21/72 67/21/69 71/21/73
f 71/21/73 67/21/69 68/21/70
f 71/21/73 68/21/70 72/21/74
f 73/21/75 69/21/71 70/21/72
f 73/21/75 70/21/72 74/21/76
f 74/21/76 70/21/72 71/21/73
f 74/21/76 71/21/73 75/21/77
f 75/21/77 71/21/73 72/21/74
f 75/21/77 72/21/74 76/21/78
f 77/21/79 73/21/75 74/21/76
f 77/21/79 74/21/76 78/21/80
f 78/21/80 74/21/76 75/21/77
f 78/21/80 75/21/77 79/21/81
f 79/21/81 75/21/77 76/21/78
f 79/21/81 76/21/78 80/21/82
f 81/21/83 77/21/79 78/21/80
f 81/21/83 78/21/80 82/21/84
f 82/21/84 78/21/80 79/21/81
f 82/21/84 79/21/81 83/21/85
f 83/21/85 79/21/81 80/21/82
f 83/21/85 80/21/82 84/21/86
f 85/21/87 81/21/83 82/21/84
f 85/21/87 82/21/84 86/21/88
f 86/21/88 82/21/84 83/21/85
f 86/21/88 83/21/85 87/21/89
f 87/21/89 83/21/85 84/21/86
f 87/21/89 84/21/86 88/21/90
f 89/21/91 85/21/87 86/21/88
f 89/21/91 86/21/88 90/21/92
f 90/21/92 86/21/88 87/21/89
f 90/21/92 87/21/89 91/21/93
f 91/21/93 87/21/89 88/21/90
f 91/21/93 88/21/90 92/21/94
f 93/21/95 89/21/91 90/21/92
f 93/21/95 90/21/92 94/21/96
f 94/21/96 90/21/92 91/21/93
f 94/21/96 91/21/93 95/21/97
f 95/21/97 91/21/93 92/21/94
f 95/21/97 92/21/94 96/21/98
f 97/21/99 93/21/95 94/21/96
f 97/21/99 94/21/96 98/21/100
f 98/21/100 94/21/96 95/21/97
f 98/21/100 95/21/97 99/21/101
f 99/21/101 95/21/97 96/21/98
f 99/21/101 96/21/98 100/21/102
f 21/21/103 97/21/99 98/21/100
f 21/21/103 98/21/100 22/21/104
f 22/21/104 98/21/100 99/21/101
f 22/21/104 99/21/101 31/21/105
f 31/21/105 99/21/101 100/21/102
f 31/21/105 100/21/102 40/21/106
s 1
f 23/21/23 101/1/45 43/42/45
f 101/1/45 102/43/45 43/42/45
s 2
f 43/21/107 102/1/107 44/42/107
f 102/1/107 103/43/107 44/42/107
f 33/21/108 104/1/108 23/42/108
f 104/1/108 101/43/108 23/42/108
s 3
f 105/21/109 106/1/109 107/42/109
f 106/1/109 108/43/109 107/42/109
s 4
f 85/21/110 85/21/110 81/21/110
f 85/21/110 81/21/110 81/21/110
f 81/21/110 81/21/110 82/21/110
f 81/21/110 82/21/110 82/21/110
f 82/21/110 82/21/110 85/21/110
f 82/21/110 85/21/110 85/21/110
f 101/21/111 101/21/111 104/21/112
f 101/21/111 104/21/112 104/21/112
f 102/21/113 102/21/113 101/21/111
f 102/21/113 101/21/111 101/21/111
f 104/21/112 104/21/112 103/21/114
f 104/21/112 103/21/114 103/21/114
f 103/21/114 103/21/114 102/21/113
f 103/21/114 102/21/113 102/21/113
f 85/21/110 85/21/110 81/21/110
f 85/21/110 81/21/110 81/21/110
f 81/21/110 81/21/110 82/21/110
f 81/21/110 82/21/110 82/21/110
f 82/21/110 82/21/110 85/21/110
f 82/21/110 85/21/110 85/21/110
f 101/21/111 101/21/111 104/21/112
f 101/21/111 104/21/112 104/21/112
f 102/21/113 102/21/113 101/21/111
f 102/21/113 101/21/111 101/21/111
f 104/21/112 104/21/112 103/21/114
f 104/21/112 103/21/114 103/21/114
f 103/21/114 103/21/114 102/21/113
f 103/21/114 102/21/113 102/21/113
f 85/21/110 85/21/110 81/21/110
f 85/21/110 81/21/110 81/21/110
f 81/21/110 81/21/110 82/21/110
f 81/21/110 82/21/110 82/21/110
f 82/21/110 82/21/110 85/21/110
f 82/21/110 85/21/110 85/21/110
f 101/21/111 101/21/111 104/21/112
f 101/21/111 104/21/112 104/21/112
f 102/21/113 102/21/113 101/21/111
f 102/21/113 101/21/111 101/21/111
f 104/21/112 104/21/112 103/21/114
f 104/21/112 103/21/114 103/21/114
f 103/21/114 103/21/114 102/21/113
f 103/21/114 102/21/113 102/21/113
f 85/21/110 85/21/110 81/21/110
f 85/21/110 81/21/110 81/21/110
f 81/21/110 81/21/110 82/21/110
f 81/21/110 82/21/110 82/21/110
f 82/21/110 82/21/110 85/21/110
f 82/21/110 85/21/110 85/21/110
f 101/21/111 101/21/111 104/21/112
f 101/21/111 104/21/112 104/21/112
f 102/21/113 102/21/113 101/21/111
f 102/21/113 101/21/111 101/21/111
f 104/21/112 104/21/112 103/21/114
f 104/21/112 103/21/114 103/21/114
f 103/21/114 103/21/114 102/21/113
f 103/21/114 102/21/113 102/21/113
f 85/21/110 85/21/110 81/21/110
f 85/21/110 81/21/110 81/21/110
f 81/21/110 81/21/110 82/21/110
f 81/21/110 82/21/110 82/21/110
f 82/21/110 82/21/110 85/21/110
f 82/21/110 85/21/110 85/21/110
f 101/21/111 101/21/111 104/21/112
f 101/21/111 104/21/112 104/21/112
f 102/21/113 102/21/113 101/21/111
f 102/21/113 101/21/111 101/21/111
f 104/21/112 104/21/112 103/21/114
f 104/21/112 103/21/114 103/21/114
f 103/21/114 103/21/114 102/21/113
f 103/21/114 102/21/113 102/21/113
f 85/21/110 85/21/110 81/21/110
f 85/21/110 81/21/110 81/21/110
f 81/21/110 81/21/110 82/21/110
f 81/21/110 82/21/110 82/21/110
f 82/21/110 82/21/110 85/21/110
f 82/21/110 85/21/110 85/21/110
f 101/21/111 101/21/111 104/21/112
f 101/21/111 104/21/112 104/21/112
f 102/21/113 102/21/113 101/21/111
f 102/21/113 101/21/111 101/21/111
f 104/21/112 104/21/112 103/21/114
f 104/21/112 103/21/114 103/21/114
f 103/21/114 103/21/114 102/21/113
f 103/21/114 102/21/113 102/21/113
f 85/21/110 85/21/110 81/21/110
f 85/21/110 81/21/110 81/21/110
f 81/21/110 81/21/110 82/21/110
f 81/21/110 82/21/110 82/21/110
f 82/21/110 82/21/110 85/21/110
f 82/21/110 85/21/110 85/21/110
f 101/21/111 101/21/111 104/21/112
f 101/21/111 104/21/112 104/21/112
f 102/21/113 102/21/113 101/21/111
f 102/21/113 101/21/111 101/21/111
f 104/21/112 104/21/112 103/21/114
f 104/21/112 103/21/114 103/21/114
f 103/21/114 103/21/114 102/21/113
f 103/21/114 102/21/113 102/21/113
f 85/21/110 85/21/110 81/21/110
f 85/21/110 81/21/110 81/21/110
f 81/21/110 81/21/110 82/21/110
f 81/21/110 82/21/110 82/21/110
f 82/21/110 82/21/110 85/21/110
f 82/21/110 85/21/110 85/21/110
f 101/21/111 101/21/111 104/21/112
f 101/21/111 104/21/112 104/21/112
f 102/21/113 102/21/113 101/21/111
f 102/21/113 101/21/111 101/21/111
f 104/21/112 104/21/112 103/21/114
f 104/21/112 103/21/114 103/21/114
f 103/21/114 103/21/114 102/21/113
f 103/21/114 102/21/113 102/21/113
f 85/21/110 85/21/110 81/21/110
f 85/21/110 81/21/110 81/21/110
f 81/21/110 81/21/110 82/21/110
f 81/21/110 82/21/110 82/21/110
f 82/21/110 82/21/110 85/21/110
f 82/21/110 85/21/110 85/21/110
f 101/21/111 101/21/111 104/21/112
f 101/21/111 104/21/112 104/21/112
f 102/21/113 102/21/113 101/21/111
f 102/21/113 101/21/111 101/21/111
f 104/21/112 104/21/112 103/21/114
f 104/21/112 103/21/114 103/21/114
f 103/21/114 103/21/114 102/21/113
f 103/21/114 102/21/113 102/21/113
f 85/21/110 85/21/110 81/21/110
f 85/21/110 81/21/110 81/21/110
f 81/21/110 81/21/110 82/21/110
f 81/21/110 82/21/110 82/21/110
f 82/21/110 82/21/110 85/21/110
f 82/21/110 85/21/110 85/21/110
f 101/21/111 101/21/111 104/21/112
f 101/21/111 104/21/112 104/21/112
f 102/21/113 102/21/113 101/21/111
f 102/21/113 101/21/111 101/21/111
f 104/21/112 104/21/112 103/21/114
f 104/21/112 103/21/114 103/21/114
f 103/21/114 103/21/114 102/21/113
f 103/21/114 102/21/113 102/21/113
f 109/21/115 101/21/111 104/21/112
f 109/21/115 104/21/112 110/21/116
f 111/21/117 102/21/113 101/21/111
f 111/21/117 101/21/111 109/21/115
f 112/21/118 103/21/114 102/21/113
f 112/21/118 102/21/113 111/21/117
f 113/21/119 109/21/115 110/21/116
f 113/21/119 110/21/116 114/21/120
f 115/21/121 111/21/117 109/21/115
f 115/21/121 109/21/115 113/21/119
f 116/21/122 112/21/118 111/21/117
f 116/21/122 111/21/117 115/21/121
f 105/21/123 113/21/119 114/21/120
f 105/21/123 114/21/120 106/21/124
f 107/21/125 115/21/121 113/21/119
f 107/21/125 113/21/119 105/21/123
f 108/21/126 116/21/122 115/21/121
f 108/21/126 115/21/121 107/21/125
# 314 triangles in group

# 314 triangles total

