# Wavefront OBJ exported by MilkShape 3D

v 4.674782 30.734636 0.004708
v 4.710103 2.693824 0.004708
v 9.093700 30.734636 0.004708
v 9.145336 2.693824 0.004708
v 9.093700 30.734636 -8.629574
v 9.145336 2.693824 -8.629574
v 4.674782 30.734636 -8.629574
v 4.710103 2.693824 -8.629574
v 0.027588 -0.001853 0.004706
v 0.027588 -0.001853 -8.629572
v 13.827887 -0.001853 0.004706
v 13.827887 -0.001853 -8.629572
v 9.093693 32.952095 0.004706
v 9.101851 30.744524 0.004705
v 9.093693 32.952095 -8.629572
v 0.109590 32.952095 -8.629572
v 0.109590 32.952095 0.004706
v 13.593744 33.063980 0.004706
v 13.601704 31.358854 0.004706
v 13.593744 33.063980 -8.629572
v 13.593744 31.351210 -8.629572
v 18.138195 32.668797 0.004706
v 17.241226 30.298204 0.004706
v 18.138195 32.668797 -8.629572
v 17.228943 30.293306 -8.629572
v 21.776962 31.394407 0.004706
v 19.061882 28.388769 0.004706
v 21.776962 31.394407 -8.629572
v 19.039806 28.387800 -8.629572
v 24.581642 28.566111 0.004706
v 20.077717 26.118460 0.004706
v 24.581642 28.566111 -8.629572
v 20.050846 26.132730 -8.629572
v 25.586681 25.453413 0.004706
v 20.159348 25.316725 0.004706
v 25.586681 25.453413 -8.629572
v 20.140869 25.341745 -8.629572
v 25.127926 21.853140 0.004706
v 20.159523 23.277946 0.004706
v 25.127926 21.853140 -8.629572
v 20.149235 23.308392 -8.629572
v 23.660503 19.220718 0.004706
v 19.532055 21.095711 0.004706
v 23.660503 19.220718 -8.629572
v 19.529633 21.118994 -8.629572
v 20.956406 17.281395 0.004706
v 18.051731 19.311049 0.004706
v 20.956406 17.281395 -8.629572
v 18.054413 19.327776 -8.629572
v 17.605007 16.190746 0.004706
v 15.855831 17.860254 0.004706
v 17.605007 16.190746 -8.629572
v 15.862112 17.869173 -8.629572
v 12.668716 15.499792 0.004706
v 11.882576 16.917599 0.004706
v 12.668716 15.499792 -8.629572
v 11.889730 16.921095 -8.629572
v 9.062360 15.516296 0.004706
v 9.033971 16.902884 0.004706
v 9.062359 15.516296 -8.629572
v 9.041906 16.902687 -8.629572
v 23.918713 0.035485 -8.629572
v 27.533550 2.047887 -8.629572
v 27.533550 2.047887 0.004706
v 23.918713 0.035485 0.004706
v 23.918713 0.035485 -8.629572
v 32.676437 0.047900 -8.629572
v 32.676437 0.047900 0.004706
v 23.918713 0.035485 0.004706
# 69 vertices

vt 0.000000 1.000000
vt 0.000000 0.000000
vt 1.000000 1.000000
vt 1.000000 0.000000
# 4 texture coordinates

vn 0.000000 0.000000 1.000000
vn 0.999998 0.001841 0.000000
vn -0.999999 -0.001260 0.000000
vn 0.000000 1.000000 0.000000
vn -0.008286 0.999966 0.000000
vn -0.011574 0.706987 0.707132
vn 0.000000 -1.000000 0.000000
vn -0.446248 0.775153 0.447214
vn -0.223124 0.387576 0.894427
vn -0.498920 0.866648 0.000000
vn 0.223123 0.387577 0.894427
vn 0.446246 0.775155 0.447214
vn 0.498918 0.866649 0.000000
vn 0.447600 0.000694 0.894234
vn 0.316357 0.000490 0.948640
vn -0.436917 -0.899502 0.000000
vn -0.390790 -0.804539 0.447214
vn -0.195395 -0.402269 0.894427
vn 0.035005 0.705750 0.707596
vn 0.012324 0.999924 0.000000
vn -0.002982 -0.999995 0.000975
vn 0.135267 -0.990809 0.001007
vn -0.143957 -0.989584 0.000953
vn 0.176850 0.682087 0.709565
vn 0.169109 0.985597 0.000000
vn -0.441093 -0.897461 0.001193
vn -0.594194 -0.804320 0.001476
vn 0.417335 0.560698 0.715157
vn 0.467637 0.883921 0.000000
vn -0.797344 -0.603522 0.001935
vn -0.861000 -0.508601 0.002186
vn 0.623486 0.314608 0.715742
vn 0.810257 0.586075 0.000000
vn -0.950805 -0.309780 0.002519
vn -0.977672 -0.210125 0.002322
vn 0.699333 0.012975 0.714679
vn 0.986083 0.166251 0.000000
vn -0.997432 -0.071579 0.002292
vn -0.999232 -0.039148 0.001708
vn 0.650791 -0.261420 0.712833
vn 0.968088 -0.250610 0.000000
vn -0.995802 0.091520 0.001828
vn -0.983089 0.183125 0.001446
vn 0.485778 -0.503193 0.714714
vn 0.793555 -0.608499 0.000000
vn -0.915041 0.403357 0.001720
vn -0.850797 0.525493 0.001337
vn 0.284733 -0.643163 0.710822
vn 0.496890 -0.867814 0.000000
vn -0.704462 0.709740 0.001473
vn -0.631845 0.775095 0.000974
vn 0.097859 -0.300705 0.948683
vn 0.309457 -0.950914 0.000000
vn -0.451551 0.892245 0.000926
vn -0.343728 0.939069 0.000506
vn -0.002539 -0.554694 0.832050
vn 0.001418 -0.999999 0.000000
vn -0.156961 0.987605 0.000483
vn -0.081732 0.996654 0.000192
vn -0.002047 -0.447209 0.894427
vn -0.004576 -0.999990 0.000000
vn -0.005815 0.999983 0.000186
vn 0.692794 0.721136 0.000000
vn 0.818455 0.574570 0.000000
vn 0.732049 0.513911 0.447214
vn 0.370749 0.585809 0.720675
vn -0.361642 -0.263088 0.894427
vn -0.571806 -0.415978 0.707107
vn -0.808656 -0.588282 0.000000
vn 0.000000 0.000000 0.000000
vn 0.362442 0.932006 0.000000
vn 0.256285 0.659028 0.707107
# 72 normals

g R
s 1
f 1/1/1 2/2/1 3/3/1
f 2/2/1 4/4/1 3/3/1
s 2
f 4/2/2 6/4/2 5/3/2
f 7/1/3 8/2/3 1/3/3
f 8/2/3 2/4/3 1/3/3
s 3
f 16/1/4 17/2/4 15/3/5
f 17/2/4 13/4/6 15/3/5
f 9/1/7 10/2/7 11/3/7
f 10/2/7 12/4/7 11/3/7
s 4
f 9/1/8 2/1/9 8/1/10
f 9/1/8 8/1/10 10/1/10
f 11/1/11 4/1/12 2/1/9
f 11/1/11 2/1/9 9/1/8
f 12/1/13 6/1/13 4/1/12
f 12/1/13 4/1/12 11/1/11
s 3
f 13/1/6 3/1/1 4/1/14
f 13/1/6 4/1/14 14/1/15
f 14/1/15 4/1/14 5/1/2
s 4
f 16/1/16 7/1/16 1/1/17
f 16/1/16 1/1/17 17/1/18
f 17/1/18 1/1/17 3/1/1
f 17/1/18 3/1/1 13/1/1
s 3
f 18/1/19 13/1/6 14/1/15
f 18/1/19 14/1/15 19/1/1
f 20/1/20 15/1/5 13/1/6
f 20/1/20 13/1/6 18/1/19
s 4
f 19/1/21 14/1/22 5/1/22
f 19/1/21 5/1/22 21/1/23
s 3
f 22/1/24 18/1/19 19/1/1
f 22/1/24 19/1/1 23/1/1
f 24/1/25 20/1/20 18/1/19
f 24/1/25 18/1/19 22/1/24
s 4
f 23/1/26 19/1/21 21/1/23
f 23/1/26 21/1/23 25/1/27
s 3
f 26/1/28 22/1/24 23/1/1
f 26/1/28 23/1/1 27/1/1
f 28/1/29 24/1/25 22/1/24
f 28/1/29 22/1/24 26/1/28
s 4
f 27/1/30 23/1/26 25/1/27
f 27/1/30 25/1/27 29/1/31
s 3
f 30/1/32 26/1/28 27/1/1
f 30/1/32 27/1/1 31/1/1
f 32/1/33 28/1/29 26/1/28
f 32/1/33 26/1/28 30/1/32
s 4
f 31/1/34 27/1/30 29/1/31
f 31/1/34 29/1/31 33/1/35
s 3
f 34/1/36 30/1/32 31/1/1
f 34/1/36 31/1/1 35/1/1
f 36/1/37 32/1/33 30/1/32
f 36/1/37 30/1/32 34/1/36
s 4
f 35/1/38 31/1/34 33/1/35
f 35/1/38 33/1/35 37/1/39
s 3
f 38/1/40 34/1/36 35/1/1
f 38/1/40 35/1/1 39/1/1
f 40/1/41 36/1/37 34/1/36
f 40/1/41 34/1/36 38/1/40
s 4
f 39/1/42 35/1/38 37/1/39
f 39/1/42 37/1/39 41/1/43
s 3
f 42/1/44 38/1/40 39/1/1
f 42/1/44 39/1/1 43/1/1
f 44/1/45 40/1/41 38/1/40
f 44/1/45 38/1/40 42/1/44
s 4
f 43/1/46 39/1/42 41/1/43
f 43/1/46 41/1/43 45/1/47
s 3
f 46/1/48 42/1/44 43/1/1
f 46/1/48 43/1/1 47/1/1
f 48/1/49 44/1/45 42/1/44
f 48/1/49 42/1/44 46/1/48
s 4
f 47/1/50 43/1/46 45/1/47
f 47/1/50 45/1/47 49/1/51
s 3
f 50/1/52 46/1/48 47/1/1
f 50/1/52 47/1/1 51/1/1
f 52/1/53 48/1/49 46/1/48
f 52/1/53 46/1/48 50/1/52
s 4
f 51/1/54 47/1/50 49/1/51
f 51/1/54 49/1/51 53/1/55
s 3
f 54/1/56 50/1/52 51/1/1
f 54/1/56 51/1/1 55/1/1
f 66/1/57 67/1/57 68/1/57
f 66/1/57 68/1/57 69/1/57
s 4
f 55/1/58 51/1/54 53/1/55
f 55/1/58 53/1/55 57/1/59
s 3
f 58/1/60 54/1/56 55/1/1
f 58/1/60 55/1/1 59/1/1
f 60/1/61 56/1/61 54/1/56
f 60/1/61 54/1/56 58/1/60
s 4
f 59/1/62 55/1/58 57/1/59
f 59/1/62 57/1/59 61/1/62
f 63/1/63 52/1/64 50/1/65
f 63/1/63 50/1/65 64/1/66
f 64/1/66 50/1/65 54/1/67
f 64/1/66 54/1/67 65/1/68
f 65/1/68 54/1/67 56/1/69
f 65/1/68 56/1/69 62/1/69
f 66/1/70 62/1/69 63/1/63
f 67/1/71 63/1/63 64/1/66
f 67/1/71 64/1/66 68/1/72
f 68/1/72 64/1/66 65/1/68
f 68/1/72 65/1/68 69/1/70
f 69/1/70 65/1/68 62/1/69
f 69/1/70 62/1/69 66/1/70
# 101 triangles in group

# 101 triangles total

