# Wavefront OBJ exported by MilkShape 3D

v 3.843097 2.045102 0.014110
v 0.398170 0.014441 0.014110
v 7.719491 2.045102 0.014110
v 11.625960 0.014441 0.014110
v 7.719491 2.045102 -8.620171
v 11.625960 0.014441 -8.620171
v 3.843097 2.045102 -8.620171
v 0.398170 0.014441 -8.620171
v 3.843122 18.622038 -8.620169
v 3.843122 18.622038 0.014109
v 7.719465 15.968184 -8.620169
v 7.719465 15.968184 0.014109
v 3.843122 18.622038 -8.620169
v 3.843122 18.622038 0.014109
v 7.719465 17.968203 -8.620169
v 7.719465 17.968203 0.014109
v -0.003033 20.045109 -8.620169
v -0.003033 20.045109 0.014109
v 7.719465 22.814337 -8.620169
v 7.719465 22.814337 0.014109
v 10.411773 21.581572 0.014109
v 10.334849 19.508680 0.014109
v 10.334849 19.508680 -8.620169
v 10.411773 21.581572 -8.620169
v 12.604966 22.838224 0.014109
v 11.449300 19.559689 0.014109
v 11.449300 19.559689 -8.620169
v 12.604966 22.838224 -8.620169
v 14.661101 22.672709 0.014109
v 13.470130 18.263643 0.014109
v 13.470130 18.263643 -8.620169
v 14.661101 22.672709 -8.620169
v 16.094902 21.576693 0.014109
v 14.805573 18.128843 0.014109
v 14.805573 18.128843 -8.620169
v 16.094902 21.576693 -8.620169
v 16.464977 20.158857 0.014109
v 16.050919 18.854368 0.014109
v 16.050919 18.854368 -8.620169
v 16.464977 20.158857 -8.620169
# 40 vertices

vt 0.000000 1.000000
vt 0.000000 0.000000
vt 1.000000 1.000000
vt 1.000000 0.000000
# 4 texture coordinates

vn 0.000000 0.000000 1.000000
vn 0.461227 0.887282 0.000000
vn -0.507806 0.861471 0.000000
vn -0.337546 0.941309 0.000000
vn 0.000000 -1.000000 0.000000
vn -1.000000 0.000001 0.000000
vn -0.894427 0.000001 0.447214
vn -0.447214 0.000001 0.894427
vn 0.447214 0.000001 0.894427
vn 0.707107 0.000001 0.707107
vn 1.000000 0.000002 0.000000
vn -0.347007 -0.937862 0.000000
vn -0.245371 -0.663169 0.707107
vn 0.316228 0.000000 0.948683
vn 0.953138 -0.302536 0.000000
vn -0.155186 -0.419425 0.894427
vn 0.894427 0.000000 0.447214
vn -0.427321 0.554986 0.713714
vn -0.717226 0.534403 0.447214
vn 0.359712 -0.265721 0.894427
vn 0.407023 -0.538127 0.738073
vn 0.804339 -0.594170 0.000000
vn 0.326630 -0.945152 0.000000
vn -0.713580 0.700573 0.000000
vn -0.801883 0.597480 0.000000
vn -0.080945 0.687905 0.721273
vn -0.107919 -0.683419 0.722006
vn -0.359667 -0.933081 0.000000
vn -0.317279 0.948332 0.000000
vn 0.310750 0.620546 0.719970
vn -0.281570 -0.639054 0.715771
vn -0.253070 -0.967448 0.000000
vn 0.265502 0.964110 0.000000
vn 0.613882 0.313784 0.724354
vn 0.072869 -0.687418 0.722597
vn 0.315809 -0.948823 0.000000
vn 0.764245 0.644926 0.000000
vn 0.432716 0.112945 0.894427
vn 0.450247 -0.772837 0.447214
vn 0.503391 -0.864058 0.000000
vn 0.967583 0.252553 0.000000
# 41 normals

g r
s 1
f 1/1/1 2/2/1 3/3/1
f 2/2/1 4/4/1 3/3/1
s 2
f 3/1/2 4/2/2 5/3/2
f 4/2/2 6/4/2 5/3/2
f 7/1/3 8/2/3 1/3/3
f 8/2/3 2/4/3 1/3/3
s 3
f 17/1/4 18/2/4 19/3/4
f 18/2/4 20/4/4 19/3/4
f 2/1/5 8/2/5 4/3/5
f 8/2/5 6/4/5 4/3/5
s 4
f 9/1/6 7/1/6 1/1/7
f 9/1/6 1/1/7 10/1/8
f 10/1/8 1/1/7 3/1/9
f 10/1/8 3/1/9 12/1/10
f 12/1/10 3/1/9 5/1/11
f 12/1/10 5/1/11 11/1/11
f 13/1/12 9/1/6 10/1/8
f 13/1/12 10/1/8 14/1/13
f 15/1/11 9/1/6 13/1/12
f 14/1/13 10/1/8 12/1/10
f 14/1/13 12/1/10 16/1/14
f 37/1/15 38/1/15 39/1/15
f 37/1/15 39/1/15 40/1/15
f 17/1/12 13/1/12 14/1/13
f 17/1/12 14/1/13 18/1/16
f 18/1/16 14/1/13 16/1/14
f 18/1/16 16/1/14 20/1/17
f 20/1/17 16/1/14 15/1/11
f 20/1/17 15/1/11 19/1/11
s 5
f 21/1/18 16/1/19 12/1/20
f 21/1/18 12/1/20 22/1/21
f 22/1/21 12/1/20 11/1/22
f 22/1/21 11/1/22 23/1/23
f 24/1/24 15/1/25 16/1/19
f 24/1/24 16/1/19 21/1/18
f 25/1/26 21/1/18 22/1/21
f 25/1/26 22/1/21 26/1/27
f 26/1/27 22/1/21 23/1/23
f 26/1/27 23/1/23 27/1/28
f 28/1/29 24/1/24 21/1/18
f 28/1/29 21/1/18 25/1/26
f 29/1/30 25/1/26 26/1/27
f 29/1/30 26/1/27 30/1/31
f 30/1/31 26/1/27 27/1/28
f 30/1/31 27/1/28 31/1/32
f 32/1/33 28/1/29 25/1/26
f 32/1/33 25/1/26 29/1/30
f 33/1/34 29/1/30 30/1/31
f 33/1/34 30/1/31 34/1/35
f 34/1/35 30/1/31 31/1/32
f 34/1/35 31/1/32 35/1/36
f 36/1/37 32/1/33 29/1/30
f 36/1/37 29/1/30 33/1/34
f 37/1/38 33/1/34 34/1/35
f 37/1/38 34/1/35 38/1/39
f 38/1/39 34/1/35 35/1/36
f 38/1/39 35/1/36 39/1/40
f 40/1/41 36/1/37 33/1/34
f 40/1/41 33/1/34 37/1/38
# 59 triangles in group

# 59 triangles total

