# Wavefront OBJ exported by MilkShape 3D

v 16.072908 29.616169 -0.016193
v 19.352648 23.153622 -0.016193
v 16.527727 32.177238 -0.016193
v 19.352655 33.782623 -0.016193
v 16.527727 32.177238 -8.650475
v 19.352655 33.782623 -8.650475
v 16.072908 29.616169 -8.650475
v 19.352648 23.153622 -8.650475
v 11.484343 32.287888 -8.650473
v 11.484343 32.287888 -0.016195
v 11.402021 34.076859 -8.650473
v 11.402021 34.076859 -0.016195
v 7.443663 32.253593 -8.650473
v 7.443663 32.253593 -0.016195
v 6.585485 33.825424 -8.650473
v 6.585485 33.825424 -0.016195
v 4.481215 29.843872 -8.650473
v 4.481215 29.843872 -0.016195
v 2.218223 31.454876 -8.650473
v 2.218223 31.454876 -0.016195
v 3.520727 27.082367 -8.650473
v 3.520727 27.082367 -0.016195
v 0.013819 27.282265 -8.650473
v 0.013819 27.282265 -0.016195
v 4.653708 24.537533 -8.650473
v 4.653708 24.537533 -0.016195
v 0.441240 22.272129 -8.650473
v 0.441240 22.272129 -0.016195
v 7.355227 21.991121 -8.650473
v 7.355227 21.991121 -0.016195
v 4.388025 18.087706 -8.650473
v 4.388025 18.087706 -0.016195
v 18.261850 15.793352 -8.650473
v 18.261850 15.793352 -0.016195
v 15.102259 11.659140 -8.650473
v 15.102259 11.659140 -0.016195
v 21.024614 12.582863 -8.650473
v 21.024614 12.582863 -0.016195
v 16.377851 10.259684 -8.650473
v 16.377851 10.259684 -0.016195
v 21.813137 8.074224 -8.650473
v 21.813137 8.074224 -0.016195
v 17.435484 7.949672 -8.650473
v 17.435484 7.949672 -0.016195
v 20.630877 4.320415 -8.650473
v 20.630877 4.320415 -0.016195
v 17.211142 5.132060 -8.650473
v 17.211142 5.132060 -0.016195
v 17.331797 1.170384 -8.650473
v 17.331797 1.170384 -0.016195
v 15.290369 2.622767 -8.650473
v 15.290369 2.622767 -0.016195
v 12.603312 -0.289378 -8.650473
v 12.603312 -0.289378 -0.016195
v 12.002295 1.511084 -8.650473
v 12.002295 1.511084 -0.016195
v 6.252873 0.520435 -8.650473
v 6.252873 0.520435 -0.016195
v 6.633017 2.129795 -8.650473
v 6.633017 2.129795 -0.016195
v 2.051829 1.879265 -8.650473
v 2.051829 1.879265 -0.016195
v 1.938369 6.122633 -8.650473
v 1.938369 6.122633 -0.016195
v 0.191687 0.192571 -8.650473
v 0.191687 0.192571 -0.016195
v 0.122656 10.457689 -8.650473
v 0.122656 10.457689 -0.016195
# 68 vertices

vt 0.000000 1.000000
vt 0.000000 0.000000
vt 1.000000 1.000000
vt 1.000000 0.000000
# 4 texture coordinates

vn 0.000000 0.000000 1.000000
vn -0.494082 0.869415 0.000000
vn -0.891736 -0.452556 0.000000
vn -0.999977 -0.006725 0.000000
vn 1.000000 -0.000001 0.000000
vn -0.343489 -0.939157 0.000000
vn -0.503176 -0.864184 0.000000
vn -0.450054 -0.772950 0.447214
vn -0.116426 -0.685840 0.718379
vn 0.155410 0.419342 0.894427
vn 0.152925 0.683642 0.713616
vn 0.347509 0.937677 0.000000
vn 0.082596 0.996583 0.000000
vn 0.227341 -0.973815 0.000000
vn 0.307029 -0.616576 0.724960
vn -0.138526 0.685378 0.714890
vn -0.342921 0.939364 0.000000
vn 0.761178 -0.648543 0.000000
vn 0.604071 -0.343450 0.719125
vn -0.441595 0.534458 0.720659
vn -0.778027 0.628231 0.000000
vn 0.996036 -0.088957 0.000000
vn 0.673861 0.117902 0.729391
vn -0.663467 0.203794 0.719916
vn -0.994709 0.102728 0.000000
vn 0.852466 0.522783 0.000000
vn 0.543361 0.442726 0.713269
vn -0.657193 -0.206843 0.724785
vn -0.859572 -0.511015 0.000000
vn 0.625928 0.779881 0.000000
vn 0.395825 0.583217 0.709353
vn -0.466136 -0.527761 0.710060
vn -0.590407 -0.807106 0.000000
vn 0.589738 0.807595 0.000000
vn 0.476872 0.515770 0.711741
vn -0.418697 -0.565658 0.710439
vn -0.670508 -0.741902 0.000000
vn 0.861084 0.508463 0.000000
vn 0.653330 0.238724 0.718450
vn -0.565702 -0.417895 0.710876
vn -0.861669 -0.507470 0.000000
vn 0.999886 0.015098 0.000000
vn 0.690472 -0.102288 0.716090
vn -0.673117 -0.180086 0.717275
vn -0.996087 -0.088373 0.000000
vn 0.890977 -0.454048 0.000000
vn 0.558105 -0.417547 0.717059
vn -0.669098 0.183987 0.720039
vn -0.894076 0.447916 0.000000
vn 0.572254 -0.820076 0.000000
vn 0.305418 -0.628291 0.715521
vn -0.458557 0.519723 0.720843
vn -0.497355 0.867547 0.000000
vn 0.157655 -0.987494 0.000000
vn 0.009996 -0.699825 0.714244
vn -0.125340 0.688070 0.714737
vn -0.031114 0.999516 0.000000
vn -0.187636 -0.982239 0.000000
vn -0.175228 -0.683646 0.708466
vn 0.210665 0.660378 0.720779
vn 0.488800 0.872396 0.000000
vn 0.021261 -0.999774 0.000000
vn 0.258985 -0.608410 0.750176
vn 0.529211 0.455658 0.715760
vn 0.851583 0.524220 0.000000
vn 0.671725 -0.740801 0.000000
vn 0.300405 -0.331296 0.894427
vn 0.824986 0.345540 0.447214
vn 0.922362 0.386326 0.000000
# 69 normals

g S
s 1
f 1/1/1 2/2/1 3/3/1
f 2/2/1 4/4/1 3/3/1
s 2
f 3/1/2 4/2/2 5/3/2
f 4/2/2 6/4/2 5/3/2
f 7/1/3 8/2/3 1/3/3
f 8/2/3 2/4/3 1/3/3
s 3
f 65/1/4 66/2/4 67/3/4
f 66/2/4 68/4/4 67/3/4
f 2/1/5 8/2/5 4/3/5
f 8/2/5 6/4/5 4/3/5
s 4
f 9/1/6 7/1/7 1/1/8
f 9/1/6 1/1/8 10/1/9
f 10/1/9 1/1/8 3/1/10
f 10/1/9 3/1/10 12/1/11
f 12/1/11 3/1/10 5/1/12
f 12/1/11 5/1/12 11/1/13
f 13/1/14 9/1/6 10/1/9
f 13/1/14 10/1/9 14/1/15
f 14/1/15 10/1/9 12/1/11
f 14/1/15 12/1/11 16/1/16
f 16/1/16 12/1/11 11/1/13
f 16/1/16 11/1/13 15/1/17
f 17/1/18 13/1/14 14/1/15
f 17/1/18 14/1/15 18/1/19
f 18/1/19 14/1/15 16/1/16
f 18/1/19 16/1/16 20/1/20
f 20/1/20 16/1/16 15/1/17
f 20/1/20 15/1/17 19/1/21
f 21/1/22 17/1/18 18/1/19
f 21/1/22 18/1/19 22/1/23
f 22/1/23 18/1/19 20/1/20
f 22/1/23 20/1/20 24/1/24
f 24/1/24 20/1/20 19/1/21
f 24/1/24 19/1/21 23/1/25
f 25/1/26 21/1/22 22/1/23
f 25/1/26 22/1/23 26/1/27
f 26/1/27 22/1/23 24/1/24
f 26/1/27 24/1/24 28/1/28
f 28/1/28 24/1/24 23/1/25
f 28/1/28 23/1/25 27/1/29
f 29/1/30 25/1/26 26/1/27
f 29/1/30 26/1/27 30/1/31
f 30/1/31 26/1/27 28/1/28
f 30/1/31 28/1/28 32/1/32
f 32/1/32 28/1/28 27/1/29
f 32/1/32 27/1/29 31/1/33
f 33/1/34 29/1/30 30/1/31
f 33/1/34 30/1/31 34/1/35
f 34/1/35 30/1/31 32/1/32
f 34/1/35 32/1/32 36/1/36
f 36/1/36 32/1/32 31/1/33
f 36/1/36 31/1/33 35/1/37
f 37/1/38 33/1/34 34/1/35
f 37/1/38 34/1/35 38/1/39
f 38/1/39 34/1/35 36/1/36
f 38/1/39 36/1/36 40/1/40
f 40/1/40 36/1/36 35/1/37
f 40/1/40 35/1/37 39/1/41
f 41/1/42 37/1/38 38/1/39
f 41/1/42 38/1/39 42/1/43
f 42/1/43 38/1/39 40/1/40
f 42/1/43 40/1/40 44/1/44
f 44/1/44 40/1/40 39/1/41
f 44/1/44 39/1/41 43/1/45
f 45/1/46 41/1/42 42/1/43
f 45/1/46 42/1/43 46/1/47
f 46/1/47 42/1/43 44/1/44
f 46/1/47 44/1/44 48/1/48
f 48/1/48 44/1/44 43/1/45
f 48/1/48 43/1/45 47/1/49
f 49/1/50 45/1/46 46/1/47
f 49/1/50 46/1/47 50/1/51
f 50/1/51 46/1/47 48/1/48
f 50/1/51 48/1/48 52/1/52
f 52/1/52 48/1/48 47/1/49
f 52/1/52 47/1/49 51/1/53
f 53/1/54 49/1/50 50/1/51
f 53/1/54 50/1/51 54/1/55
f 54/1/55 50/1/51 52/1/52
f 54/1/55 52/1/52 56/1/56
f 56/1/56 52/1/52 51/1/53
f 56/1/56 51/1/53 55/1/57
f 57/1/58 53/1/54 54/1/55
f 57/1/58 54/1/55 58/1/59
f 58/1/59 54/1/55 56/1/56
f 58/1/59 56/1/56 60/1/60
f 60/1/60 56/1/56 55/1/57
f 60/1/60 55/1/57 59/1/61
f 61/1/62 57/1/58 58/1/59
f 61/1/62 58/1/59 62/1/63
f 62/1/63 58/1/59 60/1/60
f 62/1/63 60/1/60 64/1/64
f 64/1/64 60/1/60 59/1/61
f 64/1/64 59/1/61 63/1/65
f 65/1/66 61/1/62 62/1/63
f 65/1/66 62/1/63 66/1/67
f 66/1/67 62/1/63 64/1/64
f 66/1/67 64/1/64 68/1/68
f 68/1/68 64/1/64 63/1/65
f 68/1/68 63/1/65 67/1/69
# 100 triangles in group

# 100 triangles total

