# Wavefront OBJ exported by MilkShape 3D

v 11.114848 19.382034 0.002855
v 13.319402 15.485599 0.002855
v 11.372710 21.957647 0.002855
v 13.319406 22.716450 0.002855
v 11.372710 21.957647 -8.631429
v 13.319406 22.716450 -8.631429
v 11.114848 19.382034 -8.631429
v 13.319402 15.485599 -8.631429
v 0.226490 -0.245801 -8.631427
v 0.226490 -0.245801 0.002853
v 0.234476 7.293067 -8.631427
v 0.234476 7.293067 0.002853
v 7.897260 21.477371 -8.631427
v 7.897260 21.477371 0.002853
v 7.840538 22.916616 -8.631427
v 7.840538 22.916616 0.002853
v 5.223898 21.509594 -8.631427
v 5.223898 21.509594 0.002853
v 4.521412 22.745569 -8.631427
v 4.521412 22.745569 0.002853
v 3.238003 19.870274 -8.631427
v 3.238003 19.870274 0.002853
v 1.622995 20.966232 -8.631427
v 1.622995 20.966232 0.002853
v 2.742787 18.158302 -8.631427
v 2.742787 18.158302 0.002853
v -0.007192 17.683184 -8.631427
v -0.007192 17.683184 0.002853
v 3.356872 16.538174 -8.631427
v 3.356872 16.538174 0.002853
v 0.231797 14.385919 -8.631427
v 0.231797 14.385919 0.002853
v 4.996295 15.028087 -8.631427
v 4.996295 15.028087 0.002853
v 1.840454 12.205951 -8.631427
v 1.840454 12.205951 0.002853
v 12.567723 10.978448 -8.631427
v 12.567723 10.978448 0.002853
v 10.168189 7.221522 -8.631427
v 10.168189 7.221522 0.002853
v 14.638234 8.405478 -8.631427
v 14.638234 8.405478 0.002853
v 11.269435 6.158360 -8.631427
v 11.269435 6.158360 0.002853
v 15.126054 5.171611 -8.631427
v 15.126054 5.171611 0.002853
v 11.609366 4.975764 -8.631427
v 11.609366 4.975764 0.002853
v 14.311353 2.451240 -8.631427
v 14.311353 2.451240 0.002853
v 11.510322 3.225625 -8.631427
v 11.510322 3.225625 0.002853
v 11.815696 0.474948 -8.631427
v 11.815696 0.474948 0.002853
v 10.575599 1.574111 -8.631427
v 10.575599 1.574111 0.002853
v 8.668363 -0.740334 -8.631427
v 8.668363 -0.740334 0.002853
v 8.254184 0.540077 -8.631427
v 8.254184 0.540077 0.002853
v 4.292204 -0.189419 -8.631427
v 4.292204 -0.189419 0.002853
v 4.609721 1.460975 -8.631427
v 4.609721 1.460975 0.002853
v 1.619447 0.346092 -8.631427
v 1.619447 0.346092 0.002853
v 2.041257 4.399507 -8.631427
v 2.041257 4.399507 0.002853
# 68 vertices

vt 0.000000 1.000000
vt 0.000000 0.000000
vt 1.000000 1.000000
vt 1.000000 0.000000
# 4 texture coordinates

vn 0.000000 0.000000 1.000000
vn -0.363175 0.931721 0.000000
vn -0.870350 -0.492433 0.000000
vn -0.999999 0.001059 0.000000
vn 1.000000 -0.000001 0.000000
vn -0.381229 -0.924480 0.000000
vn -0.545703 -0.837979 0.000000
vn -0.488092 -0.749511 0.447214
vn -0.136688 -0.680749 0.719650
vn 0.117174 0.431590 0.894427
vn 0.112003 0.694170 0.711044
vn 0.262011 0.965065 0.000000
vn 0.053622 0.998561 0.000000
vn 0.215826 -0.976432 0.000000
vn 0.305392 -0.615626 0.726457
vn -0.149617 0.680943 0.716890
vn -0.376283 0.926505 0.000000
vn 0.775218 -0.631694 0.000000
vn 0.614906 -0.318997 0.721202
vn -0.465692 0.515369 0.719393
vn -0.799034 0.601286 0.000000
vn 0.997525 -0.070308 0.000000
vn 0.682581 0.103922 0.723384
vn -0.667684 0.195654 0.718274
vn -0.994651 0.103289 0.000000
vn 0.869919 0.493195 0.000000
vn 0.546236 0.435418 0.715568
vn -0.671457 -0.177098 0.719571
vn -0.900358 -0.435150 0.000000
vn 0.613238 0.789898 0.000000
vn 0.383379 0.591145 0.709625
vn -0.504713 -0.486341 0.713258
vn -0.621358 -0.783527 0.000000
vn 0.584566 0.811346 0.000000
vn 0.482720 0.507900 0.713456
vn -0.406985 -0.575725 0.709157
vn -0.637923 -0.770101 0.000000
vn 0.875897 0.482499 0.000000
vn 0.659817 0.221459 0.718051
vn -0.562366 -0.410405 0.717853
vn -0.899377 -0.437175 0.000000
vn 0.999992 0.003893 0.000000
vn 0.692040 -0.101165 0.714735
vn -0.692713 -0.117647 0.711553
vn -0.998480 -0.055109 0.000000
vn 0.881657 -0.471891 0.000000
vn 0.529161 -0.446218 0.721719
vn -0.683669 0.144400 0.715364
vn -0.934691 0.355461 0.000000
vn 0.539371 -0.842068 0.000000
vn 0.317726 -0.627690 0.710673
vn -0.517552 0.457577 0.723024
vn -0.587520 0.809210 0.000000
vn 0.203993 -0.978972 0.000000
vn 0.026374 -0.696902 0.716681
vn -0.137374 0.675395 0.724548
vn 0.029111 0.999576 0.000000
vn -0.148841 -0.988861 0.000000
vn -0.122085 -0.696278 0.707313
vn 0.298907 0.624598 0.721479
vn 0.608090 0.793868 0.000000
vn -0.000636 -1.000000 0.000000
vn 0.140806 -0.678243 0.721221
vn 0.555651 0.435691 0.708114
vn 0.818787 0.574097 0.000000
vn 0.391077 -0.920358 0.000000
vn 0.174895 -0.411597 0.894427
vn 0.758672 0.473726 0.447214
vn 0.848221 0.529642 0.000000
# 69 normals

g s
s 1
f 1/1/1 2/2/1 3/3/1
f 2/2/1 4/4/1 3/3/1
s 2
f 3/1/2 4/2/2 5/3/2
f 4/2/2 6/4/2 5/3/2
f 7/1/3 8/2/3 1/3/3
f 8/2/3 2/4/3 1/3/3
s 3
f 9/1/4 10/2/4 11/3/4
f 10/2/4 12/4/4 11/3/4
f 2/1/5 8/2/5 4/3/5
f 8/2/5 6/4/5 4/3/5
s 4
f 13/1/6 7/1/7 1/1/8
f 13/1/6 1/1/8 14/1/9
f 14/1/9 1/1/8 3/1/10
f 14/1/9 3/1/10 16/1/11
f 16/1/11 3/1/10 5/1/12
f 16/1/11 5/1/12 15/1/13
f 17/1/14 13/1/6 14/1/9
f 17/1/14 14/1/9 18/1/15
f 18/1/15 14/1/9 16/1/11
f 18/1/15 16/1/11 20/1/16
f 20/1/16 16/1/11 15/1/13
f 20/1/16 15/1/13 19/1/17
f 21/1/18 17/1/14 18/1/15
f 21/1/18 18/1/15 22/1/19
f 22/1/19 18/1/15 20/1/16
f 22/1/19 20/1/16 24/1/20
f 24/1/20 20/1/16 19/1/17
f 24/1/20 19/1/17 23/1/21
f 25/1/22 21/1/18 22/1/19
f 25/1/22 22/1/19 26/1/23
f 26/1/23 22/1/19 24/1/20
f 26/1/23 24/1/20 28/1/24
f 28/1/24 24/1/20 23/1/21
f 28/1/24 23/1/21 27/1/25
f 29/1/26 25/1/22 26/1/23
f 29/1/26 26/1/23 30/1/27
f 30/1/27 26/1/23 28/1/24
f 30/1/27 28/1/24 32/1/28
f 32/1/28 28/1/24 27/1/25
f 32/1/28 27/1/25 31/1/29
f 33/1/30 29/1/26 30/1/27
f 33/1/30 30/1/27 34/1/31
f 34/1/31 30/1/27 32/1/28
f 34/1/31 32/1/28 36/1/32
f 36/1/32 32/1/28 31/1/29
f 36/1/32 31/1/29 35/1/33
f 37/1/34 33/1/30 34/1/31
f 37/1/34 34/1/31 38/1/35
f 38/1/35 34/1/31 36/1/32
f 38/1/35 36/1/32 40/1/36
f 40/1/36 36/1/32 35/1/33
f 40/1/36 35/1/33 39/1/37
f 41/1/38 37/1/34 38/1/35
f 41/1/38 38/1/35 42/1/39
f 42/1/39 38/1/35 40/1/36
f 42/1/39 40/1/36 44/1/40
f 44/1/40 40/1/36 39/1/37
f 44/1/40 39/1/37 43/1/41
f 45/1/42 41/1/38 42/1/39
f 45/1/42 42/1/39 46/1/43
f 46/1/43 42/1/39 44/1/40
f 46/1/43 44/1/40 48/1/44
f 48/1/44 44/1/40 43/1/41
f 48/1/44 43/1/41 47/1/45
f 49/1/46 45/1/42 46/1/43
f 49/1/46 46/1/43 50/1/47
f 50/1/47 46/1/43 48/1/44
f 50/1/47 48/1/44 52/1/48
f 52/1/48 48/1/44 47/1/45
f 52/1/48 47/1/45 51/1/49
f 53/1/50 49/1/46 50/1/47
f 53/1/50 50/1/47 54/1/51
f 54/1/51 50/1/47 52/1/48
f 54/1/51 52/1/48 56/1/52
f 56/1/52 52/1/48 51/1/49
f 56/1/52 51/1/49 55/1/53
f 57/1/54 53/1/50 54/1/51
f 57/1/54 54/1/51 58/1/55
f 58/1/55 54/1/51 56/1/52
f 58/1/55 56/1/52 60/1/56
f 60/1/56 56/1/52 55/1/53
f 60/1/56 55/1/53 59/1/57
f 61/1/58 57/1/54 58/1/55
f 61/1/58 58/1/55 62/1/59
f 62/1/59 58/1/55 60/1/56
f 62/1/59 60/1/56 64/1/60
f 64/1/60 60/1/56 59/1/57
f 64/1/60 59/1/57 63/1/61
f 65/1/62 61/1/58 62/1/59
f 65/1/62 62/1/59 66/1/63
f 66/1/63 62/1/59 64/1/60
f 66/1/63 64/1/60 68/1/64
f 68/1/64 64/1/60 63/1/61
f 68/1/64 63/1/61 67/1/65
f 9/1/66 65/1/62 66/1/63
f 9/1/66 66/1/63 10/1/67
f 10/1/67 66/1/63 68/1/64
f 10/1/67 68/1/64 12/1/68
f 12/1/68 68/1/64 67/1/65
f 12/1/68 67/1/65 11/1/69
# 100 triangles in group

# 100 triangles total

