# Wavefront OBJ exported by MilkShape 3D

v 7.445789 22.330738 -0.007859
v 7.445930 20.868069 -0.007859
v 12.687134 22.342381 -0.007859
v 12.687134 20.857235 -0.007859
v 12.687134 22.342381 -8.642139
v 12.687134 20.857235 -8.642139
v 7.447224 22.333282 -8.642139
v 7.445930 20.868071 -8.642139
v -0.002459 21.639809 -8.642138
v -0.002459 20.801174 -8.642138
v -0.002459 21.639809 -0.007861
v -0.002459 20.801174 -0.007861
v 6.825069 29.708786 -0.007861
v 7.445797 29.611694 -0.007861
v 7.445782 29.641083 -8.642138
v 6.825069 29.708786 -8.642138
v 2.756132 23.398430 -0.007861
v 2.756132 23.398430 -8.642138
v 5.583699 26.812206 -0.007861
v 7.445797 26.934288 -8.642138
v 5.583699 26.812206 -8.642138
v 3.571439 20.842945 -0.007859
v 3.571439 4.472030 -0.007859
v 7.418598 4.472030 -0.007859
v 7.418598 4.472030 -8.642139
v 3.571439 20.842947 -8.642139
v 3.571439 4.472030 -8.642139
v 13.404007 4.407196 -0.007861
v 13.404007 4.407196 -8.642138
v 12.527130 4.419250 -0.007861
v 12.527130 4.419250 -8.642138
v 3.956692 1.935988 -0.007861
v 3.956692 1.935988 -8.642138
v 7.798031 3.831602 -0.007861
v 7.798031 3.831602 -8.642138
v 5.421346 0.292246 -0.007861
v 5.421346 0.292246 -8.642138
v 8.215718 3.063589 -0.007861
v 8.215718 3.063589 -8.642138
v 7.473461 -0.361833 -0.007861
v 7.473461 -0.361833 -8.642138
v 8.869459 2.600027 -0.007861
v 8.869459 2.600027 -8.642138
v 10.065002 0.232069 -0.007861
v 10.065002 0.232069 -8.642138
v 9.866144 2.417914 -0.007861
v 9.866144 2.417914 -8.642138
v 12.078157 1.952708 -0.007861
v 12.078157 1.952708 -8.642138
v 11.205952 2.873743 -0.007861
v 11.205952 2.873743 -8.642138
v 5.586277 26.804981 -0.007860
# 52 vertices

vt 0.000000 1.000000
vt 0.000000 0.000000
vt 1.000000 1.000000
vt 1.000000 0.000000
# 4 texture coordinates

vn 0.000000 0.000000 1.000000
vn 1.000000 0.000000 0.000000
vn -1.000000 0.000000 0.000000
vn -0.001736 0.999998 0.000294
vn -0.001399 0.707053 0.707159
vn 0.005026 -0.948669 0.316231
vn 0.001616 -0.999999 -0.000000
vn -0.002067 -0.999998 -0.000000
vn 0.131519 0.991312 0.001682
vn 0.154536 0.987981 0.003363
vn 0.108430 0.994104 0.000000
vn 0.008981 -0.999960 -0.000000
vn 0.004016 -0.447196 0.894427
vn -0.580600 0.592104 0.558853
vn -0.480810 0.754203 0.447214
vn 0.316212 -0.000000 0.948689
vn 0.832042 0.000087 0.554713
vn -0.621770 0.783200 0.000000
vn -0.537562 0.843225 0.000000
vn -0.827351 0.561685 0.000000
vn -0.831682 0.454580 0.318844
vn -0.649935 0.278539 0.707107
vn -0.919147 0.393914 0.000000
vn 0.999999 -0.001667 -0.000000
vn 0.013745 0.999906 0.000000
vn -0.653909 -0.231813 0.720185
vn -0.442141 -0.067168 0.894427
vn -0.988657 -0.150188 0.000000
vn -0.858774 -0.512355 0.000000
vn 0.616952 0.345390 0.707160
vn 0.769511 0.455909 0.447214
vn 0.866518 0.499146 0.000000
vn 0.860339 0.509723 0.000000
vn -0.430250 -0.546715 0.718322
vn -0.465992 -0.884789 0.000000
vn 0.485273 0.502890 0.715270
vn 0.796759 0.604297 0.000000
vn -0.091938 -0.689633 0.718299
vn 0.049239 -0.998787 0.000000
vn 0.223404 0.662926 0.714576
vn 0.455099 0.890441 0.000000
vn 0.261776 -0.646907 0.716229
vn 0.520963 -0.853579 0.000000
vn -0.111042 0.687892 0.717269
vn 0.517532 -0.473916 0.712435
vn 0.815378 -0.578929 0.000000
vn -0.441157 0.537888 0.718371
vn -0.483380 0.875410 0.000000
vn 0.786954 -0.425092 0.447214
vn 0.879842 -0.475267 0.000000
vn -0.339934 0.290594 0.894427
vn -0.760117 0.649787 0.000000
# 52 normals

g t
s 1
f 1/1/1 2/2/1 3/3/1
f 2/2/1 4/4/1 3/3/1
s 2
f 3/1/2 4/2/2 5/3/2
f 4/2/2 6/4/2 5/3/2
f 9/1/3 10/2/3 11/3/3
f 10/2/3 12/4/3 11/3/3
s 3
f 7/1/4 1/2/5 5/3/4
f 1/2/5 3/4/4 5/3/4
f 2/1/6 8/2/7 4/3/8
f 8/2/7 6/4/8 4/3/8
f 13/1/9 14/1/10 15/1/9
f 13/1/9 15/1/9 16/1/11
f 10/1/12 8/1/7 2/1/6
f 10/1/12 2/1/6 12/1/13
f 12/1/13 2/1/6 1/1/5
f 12/1/13 1/1/5 11/1/1
s 4
f 17/1/14 11/1/15 1/1/16
f 52/1/1 1/1/16 14/1/17
f 14/1/17 1/1/16 7/1/2
f 18/1/18 9/1/19 11/1/15
f 18/1/18 11/1/15 17/1/14
f 14/1/17 7/1/2 20/1/2
f 21/1/20 18/1/18 17/1/14
f 21/1/20 17/1/14 19/1/21
f 13/1/22 19/1/21 14/1/17
f 14/1/17 20/1/2 15/1/2
f 16/1/23 21/1/20 19/1/21
f 16/1/23 19/1/21 13/1/22
s 1
f 22/1/1 23/2/1 2/3/1
f 23/2/1 24/4/1 2/3/1
s 2
f 2/1/24 24/2/24 8/3/24
f 24/2/24 25/4/24 8/3/24
f 26/1/3 27/2/3 22/3/3
f 27/2/3 23/4/3 22/3/3
s 3
f 28/1/25 29/2/25 30/3/25
f 29/2/25 31/4/25 30/3/25
s 4
f 32/1/26 23/1/27 27/1/28
f 32/1/26 27/1/28 33/1/29
f 34/1/30 24/1/31 23/1/27
f 34/1/30 23/1/27 32/1/26
f 35/1/32 25/1/33 24/1/31
f 35/1/32 24/1/31 34/1/30
f 36/1/34 32/1/26 33/1/29
f 36/1/34 33/1/29 37/1/35
f 38/1/36 34/1/30 32/1/26
f 38/1/36 32/1/26 36/1/34
f 39/1/37 35/1/32 34/1/30
f 39/1/37 34/1/30 38/1/36
f 40/1/38 36/1/34 37/1/35
f 40/1/38 37/1/35 41/1/39
f 42/1/40 38/1/36 36/1/34
f 42/1/40 36/1/34 40/1/38
f 43/1/41 39/1/37 38/1/36
f 43/1/41 38/1/36 42/1/40
f 44/1/42 40/1/38 41/1/39
f 44/1/42 41/1/39 45/1/43
f 46/1/44 42/1/40 40/1/38
f 46/1/44 40/1/38 44/1/42
f 47/1/25 43/1/41 42/1/40
f 47/1/25 42/1/40 46/1/44
f 48/1/45 44/1/42 45/1/43
f 48/1/45 45/1/43 49/1/46
f 50/1/47 46/1/44 44/1/42
f 50/1/47 44/1/42 48/1/45
f 51/1/48 47/1/25 46/1/44
f 51/1/48 46/1/44 50/1/47
f 28/1/49 48/1/45 49/1/46
f 28/1/49 49/1/46 29/1/50
f 30/1/51 50/1/47 48/1/45
f 30/1/51 48/1/45 28/1/49
f 31/1/52 51/1/48 50/1/47
f 31/1/52 50/1/47 30/1/51
f 17/1/14 1/1/16 52/1/1
# 73 triangles in group

# 73 triangles total

