# Wavefront OBJ exported by MilkShape 3D

v 13.544823 22.298901 -0.001041
v 16.852516 20.121223 -0.001041
v 20.722710 22.300381 -0.001041
v 20.769711 20.095934 -0.001041
v 20.722710 22.300381 -8.635324
v 20.769711 20.095934 -8.635324
v 13.544823 22.298901 -8.635324
v 16.852516 20.121223 -8.635324
v 16.852543 5.505867 -0.001043
v 16.852543 5.505867 -8.635322
v 20.801720 3.521262 -8.635322
v 16.852543 4.198204 -0.001043
v 16.852543 4.198204 -8.635322
v 16.902515 -0.488499 -0.001043
v 16.900162 -0.483102 -8.635322
v 24.512857 2.302374 -0.001043
v 24.511059 2.304446 -8.635322
v 12.775620 0.424274 -0.001043
v 12.544849 2.445213 -0.001043
v 12.544849 2.445213 -8.635322
v 12.775620 0.424274 -8.635322
v 9.174315 -0.531857 -0.001043
v 10.288111 2.419124 -0.001043
v 10.288111 2.419124 -8.635322
v 9.174315 -0.531857 -8.635322
v 6.388676 0.428489 -0.001043
v 8.624123 3.275635 -0.001043
v 8.624123 3.275635 -8.635322
v 6.388676 0.428489 -8.635322
v 4.483103 2.246574 -0.001043
v 7.837405 4.303745 -0.001043
v 7.837405 4.303745 -8.635322
v 4.483103 2.246574 -8.635322
v 3.752913 5.602851 -0.001043
v 7.490626 5.639801 -0.001043
v 7.490626 5.639801 -8.635322
v 3.752913 5.602851 -8.635322
v 3.752930 20.833649 -0.001043
v 7.490603 20.870575 -0.001043
v 7.490603 20.870575 -8.635322
v 3.752930 20.833649 -8.635322
v -0.009889 22.288780 -0.001043
v 7.490603 22.332115 -0.001043
v 7.490603 22.332115 -8.635322
v -0.009889 22.288780 -8.635322
v 20.804026 3.522757 -0.001043
# 46 vertices

vt 0.000000 1.000000
vt 0.000000 0.000000
vt 1.000000 1.000000
vt 1.000000 0.000000
# 4 texture coordinates

vn 0.000000 0.000000 1.000000
vn 0.999773 0.021316 0.000000
vn -0.549892 -0.835236 0.000000
vn -0.000206 1.000000 0.000000
vn 0.344300 -0.938860 -0.000681
vn -0.707107 -0.000001 0.707107
vn -0.447214 -0.000001 0.894427
vn -1.000000 -0.000002 0.000000
vn 0.344314 0.403222 0.847856
vn 0.894473 0.001790 0.447118
vn 0.924353 0.381539 -0.000206
vn 0.999998 0.001931 0.000000
vn -0.005778 0.999983 0.000000
vn -0.707021 -0.007365 0.707154
vn -0.999943 -0.010662 0.000000
vn 0.312130 0.950039 -0.000042
vn 0.220996 0.671624 0.707164
vn 0.284788 -0.636882 0.716434
vn 0.607594 -0.656376 0.447214
vn -0.259025 0.364563 0.894427
vn -0.281388 0.632620 0.721535
vn -0.579198 0.815187 0.000000
vn -0.209227 0.977867 0.000000
vn 0.552902 -0.833246 0.000000
vn 0.679311 -0.733850 0.000000
vn -0.094970 -0.686559 0.720845
vn 0.103772 0.689910 0.716419
vn 0.309351 0.950948 0.000000
vn 0.064929 -0.997890 0.000000
vn -0.406363 -0.569693 0.714367
vn 0.407309 0.568485 0.714790
vn 0.697065 0.717008 0.000000
vn -0.456715 -0.889613 0.000000
vn -0.635576 -0.276067 0.720993
vn 0.607850 0.348749 0.713367
vn 0.926338 0.376694 0.000000
vn -0.817729 -0.575603 0.000000
vn -0.703508 -0.050234 0.708910
vn 0.694467 0.118855 0.709640
vn 0.996436 0.084348 0.000000
vn -0.989802 -0.142449 0.000000
vn -0.438037 -0.474684 0.763412
vn 0.707107 0.000001 0.707107
vn 1.000000 0.000001 0.000000
vn -0.930042 -0.367452 0.000000
vn -0.161302 -0.417111 0.894427
vn 0.894427 0.000000 0.447214
vn -0.360683 -0.932689 0.000000
# 48 normals

g u
s 1
f 1/1/1 2/2/1 3/3/1
f 2/2/1 4/4/1 3/3/1
s 2
f 3/1/2 4/2/2 5/3/2
f 4/2/2 6/4/2 5/3/2
f 7/1/3 8/2/3 1/3/3
f 8/2/3 2/4/3 1/3/3
s 3
f 7/1/4 1/2/4 5/3/4
f 1/2/4 3/4/4 5/3/4
f 14/1/5 15/2/5 16/3/5
f 15/2/5 17/4/5 16/3/5
s 4
f 9/1/6 2/1/7 8/1/8
f 9/1/6 8/1/8 10/1/8
f 46/1/9 4/1/10 2/1/7
f 46/1/9 2/1/7 9/1/6
f 11/1/11 6/1/12 4/1/10
f 11/1/11 4/1/10 46/1/9
f 42/1/13 43/1/13 44/1/13
f 42/1/13 44/1/13 45/1/13
f 14/1/14 12/1/15 13/1/15
f 14/1/14 13/1/15 15/1/15
f 17/1/16 11/1/11 46/1/9
f 17/1/16 46/1/9 16/1/17
s 5
f 18/1/18 12/1/19 9/1/20
f 18/1/18 9/1/20 19/1/21
f 19/1/21 9/1/20 10/1/22
f 19/1/21 10/1/22 20/1/23
f 21/1/24 13/1/25 12/1/19
f 21/1/24 12/1/19 18/1/18
f 22/1/26 18/1/18 19/1/21
f 22/1/26 19/1/21 23/1/27
f 23/1/27 19/1/21 20/1/23
f 23/1/27 20/1/23 24/1/28
f 25/1/29 21/1/24 18/1/18
f 25/1/29 18/1/18 22/1/26
f 26/1/30 22/1/26 23/1/27
f 26/1/30 23/1/27 27/1/31
f 27/1/31 23/1/27 24/1/28
f 27/1/31 24/1/28 28/1/32
f 29/1/33 25/1/29 22/1/26
f 29/1/33 22/1/26 26/1/30
f 30/1/34 26/1/30 27/1/31
f 30/1/34 27/1/31 31/1/35
f 31/1/35 27/1/31 28/1/32
f 31/1/35 28/1/32 32/1/36
f 33/1/37 29/1/33 26/1/30
f 33/1/37 26/1/30 30/1/34
f 34/1/38 30/1/34 31/1/35
f 34/1/38 31/1/35 35/1/39
f 35/1/39 31/1/35 32/1/36
f 35/1/39 32/1/36 36/1/40
f 37/1/41 33/1/37 30/1/34
f 37/1/41 30/1/34 34/1/38
f 38/1/42 34/1/38 35/1/39
f 38/1/42 35/1/39 39/1/43
f 39/1/43 35/1/39 36/1/40
f 39/1/43 36/1/40 40/1/44
f 41/1/45 37/1/41 34/1/38
f 41/1/45 34/1/38 38/1/42
f 42/1/46 38/1/42 39/1/43
f 42/1/46 39/1/43 43/1/47
f 43/1/47 39/1/43 40/1/44
f 43/1/47 40/1/44 44/1/44
f 45/1/48 41/1/45 38/1/42
f 45/1/48 38/1/42 42/1/46
s 4
f 46/1/9 9/1/6 14/1/14
f 16/1/17 46/1/9 14/1/14
# 66 triangles in group

# 66 triangles total

