# Wavefront OBJ exported by MilkShape 3D

v 0.027107 22.834379 -0.001041
v 3.037960 21.036304 -0.001041
v 10.553782 22.834379 -0.001041
v 7.193071 21.036304 -0.001041
v 10.553782 22.834379 -8.635323
v 7.193071 21.036304 -8.635323
v 0.027107 22.834379 -8.635323
v 3.037960 21.036304 -8.635323
v 23.977362 22.796247 -0.001043
v 23.977362 22.796247 -8.635321
v 16.953978 22.773710 -0.001043
v 16.953978 22.773710 -8.635321
v 12.104231 -0.003249 -0.001043
v 12.104231 -0.003249 -8.635321
v 13.645540 5.948092 -0.001043
v 13.645540 5.948092 -8.635321
v 12.910810 -0.003245 -0.001043
v 12.910810 -0.003245 -8.635321
v 21.810186 21.402859 -0.001043
v 21.810186 21.402859 -8.635321
v 19.914381 21.380142 -0.001043
v 19.914381 21.380142 -8.635321
# 22 vertices

vt 0.000000 1.000000
vt 0.000000 0.000000
vt 1.000000 1.000000
vt 1.000000 0.000000
# 4 texture coordinates

vn 0.000000 0.000000 1.000000
vn 0.471751 -0.881732 0.000000
vn -0.512726 -0.858553 0.000000
vn 0.000000 1.000000 0.000000
vn -0.003209 0.999995 0.000000
vn -0.564600 -0.550691 0.614790
vn -0.410705 -0.176979 0.894427
vn -0.918364 -0.395737 0.000000
vn -0.357932 -0.933748 0.000000
vn -0.218909 0.268720 0.938013
vn 0.822383 0.351692 0.447214
vn 0.617332 0.786703 0.000000
vn 0.919452 0.393203 0.000000
vn 0.234273 -0.604814 0.761128
vn 0.722388 -0.691488 0.000000
vn 0.574210 -0.386943 0.721497
vn 0.696405 -0.717649 0.000000
vn -0.471638 -0.380108 0.795660
vn -0.997781 -0.066577 0.000000
vn 0.483719 -0.752341 0.447214
vn 0.540814 -0.841142 0.000000
vn -0.190471 -0.404624 0.894427
vn -0.425906 -0.904767 0.000000
# 23 normals

g v
s 1
f 1/1/1 2/2/1 3/3/1
f 2/2/1 4/4/1 3/3/1
s 2
f 3/1/2 4/2/2 5/3/2
f 4/2/2 6/4/2 5/3/2
f 7/1/3 8/2/3 1/3/3
f 8/2/3 2/4/3 1/3/3
s 3
f 7/1/4 1/2/4 5/3/4
f 1/2/4 3/4/4 5/3/4
f 9/1/5 10/2/5 11/3/5
f 10/2/5 12/4/5 11/3/5
s 4
f 13/1/6 2/1/7 8/1/8
f 13/1/6 8/1/8 14/1/9
f 15/1/10 4/1/11 2/1/7
f 15/1/10 2/1/7 13/1/6
f 16/1/12 6/1/13 4/1/11
f 16/1/12 4/1/11 15/1/10
f 17/1/14 13/1/6 14/1/9
f 17/1/14 14/1/9 18/1/15
f 15/1/10 15/1/10 13/1/6
f 15/1/10 13/1/6 17/1/14
f 18/1/15 16/1/12 16/1/12
f 16/1/12 16/1/12 15/1/10
f 16/1/12 15/1/10 15/1/10
f 19/1/16 17/1/14 18/1/15
f 19/1/16 18/1/15 20/1/17
f 21/1/18 15/1/10 17/1/14
f 21/1/18 17/1/14 19/1/16
f 22/1/19 16/1/12 15/1/10
f 22/1/19 15/1/10 21/1/18
f 9/1/20 19/1/16 20/1/17
f 9/1/20 20/1/17 10/1/21
f 11/1/22 21/1/18 19/1/16
f 11/1/22 19/1/16 9/1/20
f 12/1/23 22/1/19 21/1/18
f 12/1/23 21/1/18 11/1/22
# 35 triangles in group

# 35 triangles total

