# Wavefront OBJ exported by MilkShape 3D

v 0.035606 33.466949 0.044413
v 3.188102 31.639715 0.044413
v 11.622622 33.510788 0.044413
v 8.275070 31.612143 0.044413
v 11.622622 33.510788 -8.589868
v 8.275070 31.612143 -8.589868
v 0.035606 33.466949 -8.589868
v 3.188102 31.639715 -8.589868
v 14.402292 -0.003105 0.044412
v 14.402292 -0.003105 -8.589866
v 16.132233 8.612179 0.044412
v 16.132233 8.612179 -8.589866
v 15.330851 -0.003075 0.044412
v 15.330851 -0.003075 -8.589866
v 16.132233 8.612179 0.044412
v 16.132233 8.612179 -8.589866
v 22.834499 20.964308 0.044412
v 22.834499 20.964308 -8.589866
v 21.842354 24.039682 0.044412
v 21.842354 24.039682 -8.589866
v 24.106560 31.413828 0.044412
v 24.106560 31.413828 -8.589866
v 24.106560 31.413828 0.044412
v 24.106560 31.413828 -8.589866
v 24.106560 31.413828 -8.589866
v 19.132229 31.362112 -8.589866
v 19.132229 31.362112 0.044412
v 24.106560 31.413828 0.044412
v 27.856533 33.679592 -8.589866
v 15.715540 33.612171 -8.589866
v 15.715540 33.612171 0.044412
v 27.856533 33.679592 0.044412
v 32.153641 8.467583 0.044412
v 30.330898 -0.006697 0.044412
v 30.330898 -0.006697 -8.589866
v 32.153641 8.467583 -8.589866
v 32.153641 8.467583 0.044412
v 31.247547 -0.003096 0.044412
v 31.247547 -0.003096 -8.589866
v 32.153641 8.467583 -8.589866
v 40.416534 31.976744 0.044412
v 42.528481 31.957314 0.044412
v 42.528481 31.957314 -8.589866
v 40.416534 31.976744 -8.589866
v 36.048981 33.567741 0.044412
v 45.714249 33.548126 0.044412
v 45.714249 33.548126 -8.589866
v 36.048981 33.567741 -8.589866
# 48 vertices

vt 0.000000 1.000000
vt 0.000000 0.000000
vt 1.000000 1.000000
vt 1.000000 0.000000
# 4 texture coordinates

vn 0.000000 0.000000 1.000000
vn 0.493347 -0.869833 0.000000
vn -0.501469 -0.865176 0.000000
vn -0.003783 0.999993 0.000000
vn 0.000000 0.000000 0.000000
vn -0.586345 -0.518849 0.622089
vn -0.421525 -0.149388 0.894427
vn -0.942558 -0.334042 0.000000
vn -0.374428 -0.927256 0.000000
vn 0.423201 0.144572 0.894427
vn 0.846401 0.289144 0.447214
vn 0.946306 0.323273 0.000000
vn 0.240346 -0.596519 0.765767
vn 0.747401 -0.664373 0.000000
vn -0.663141 0.245446 0.707107
vn -0.937823 0.347113 0.000000
vn 0.665758 -0.238256 0.707107
vn 0.941524 -0.336946 0.000000
vn -0.296566 0.109767 0.948683
vn 0.002029 0.999998 0.000000
vn -0.005553 0.999985 0.000000
vn 0.517142 -0.855900 0.000000
vn -0.937827 -0.347102 0.000000
vn -0.845901 -0.533339 0.000000
vn -0.838818 -0.310457 0.447214
vn -0.582884 -0.577051 0.572065
vn 0.231273 -0.382770 0.894427
vn -0.549998 -0.835166 0.000000
vn -0.245967 -0.373498 0.894427
vn 0.462545 -0.765540 0.447214
vn 0.422015 0.147998 0.894427
vn 0.844030 0.295995 0.447214
vn -0.421117 -0.150534 0.894427
vn -0.584691 -0.520553 0.622223
vn -0.941646 -0.336605 0.000000
vn -0.371100 -0.928593 0.000000
vn 0.943654 0.330933 0.000000
vn -0.667101 0.234470 0.707107
vn 0.242721 -0.595501 0.765810
vn 0.750208 -0.661202 0.000000
vn -0.943424 0.331590 0.000000
vn -0.434390 -0.412947 0.800487
vn 0.567837 -0.379824 0.730270
vn 0.654376 -0.756170 0.000000
vn -0.992399 -0.123061 0.000000
vn -0.153070 -0.420202 0.894427
vn 0.399584 -0.800208 0.447214
vn 0.446748 -0.894660 0.000000
vn -0.342274 -0.939600 0.000000
# 49 normals

g W
s 1
f 1/1/1 2/2/1 3/3/1
f 2/2/1 4/4/1 3/3/1
s 2
f 3/1/2 4/2/2 5/3/2
f 4/2/2 6/4/2 5/3/2
f 7/1/3 8/2/3 1/3/3
f 8/2/3 2/4/3 1/3/3
s 3
f 7/1/4 1/2/4 5/3/4
f 1/2/4 3/4/4 5/3/4
f 21/1/5 22/2/5 23/3/5
f 22/2/5 24/4/5 23/3/5
s 4
f 9/1/6 2/1/7 8/1/8
f 9/1/6 8/1/8 10/1/9
f 11/1/10 4/1/11 2/1/7
f 11/1/10 2/1/7 9/1/6
f 12/1/12 6/1/12 4/1/11
f 12/1/12 4/1/11 11/1/10
f 13/1/13 9/1/6 10/1/9
f 13/1/13 10/1/9 14/1/14
f 15/1/15 11/1/10 9/1/6
f 15/1/15 9/1/6 13/1/13
f 14/1/14 12/1/12 16/1/16
f 16/1/16 12/1/12 11/1/10
f 16/1/16 11/1/10 15/1/15
f 17/1/17 13/1/13 14/1/14
f 17/1/17 14/1/14 18/1/18
f 19/1/19 15/1/15 13/1/13
f 19/1/19 13/1/13 17/1/17
f 20/1/16 16/1/16 15/1/15
f 20/1/16 15/1/15 19/1/19
f 45/1/20 46/1/20 47/1/20
f 45/1/20 47/1/20 48/1/20
f 23/1/1 19/1/19 17/1/17
f 23/1/1 17/1/17 21/1/5
f 22/1/5 20/1/16 24/1/5
f 29/1/21 30/1/21 31/1/21
f 29/1/21 31/1/21 32/1/21
s 5
f 25/1/22 24/1/5 20/1/23
f 26/1/24 20/1/23 19/1/25
f 26/1/24 19/1/25 27/1/26
f 27/1/26 19/1/25 23/1/1
f 27/1/26 23/1/1 28/1/27
f 28/1/27 23/1/1 24/1/5
f 28/1/27 24/1/5 25/1/22
f 30/1/28 26/1/24 27/1/26
f 30/1/28 27/1/26 31/1/29
f 31/1/29 27/1/26 28/1/27
f 31/1/29 28/1/27 32/1/30
f 32/1/30 28/1/27 25/1/22
f 32/1/30 25/1/22 29/1/22
f 33/1/31 21/1/32 17/1/33
f 33/1/31 17/1/33 34/1/34
f 34/1/34 17/1/33 18/1/35
f 34/1/34 18/1/35 35/1/36
f 36/1/37 22/1/37 21/1/32
f 36/1/37 21/1/32 33/1/31
f 37/1/38 33/1/31 34/1/34
f 37/1/38 34/1/34 38/1/39
f 38/1/39 34/1/34 35/1/36
f 38/1/39 35/1/36 39/1/40
f 39/1/40 36/1/37 40/1/41
f 40/1/41 36/1/37 33/1/31
f 40/1/41 33/1/31 37/1/38
f 41/1/42 37/1/38 38/1/39
f 41/1/42 38/1/39 42/1/43
f 42/1/43 38/1/39 39/1/40
f 42/1/43 39/1/40 43/1/44
f 44/1/45 40/1/41 37/1/38
f 44/1/45 37/1/38 41/1/42
f 45/1/46 41/1/42 42/1/43
f 45/1/46 42/1/43 46/1/47
f 46/1/47 42/1/43 43/1/44
f 46/1/47 43/1/44 47/1/48
f 48/1/49 44/1/45 41/1/42
f 48/1/49 41/1/42 45/1/46
# 74 triangles in group

# 74 triangles total

