# Wavefront OBJ exported by MilkShape 3D

v 0.040308 22.651667 -0.044230
v 2.467772 21.178308 -0.044230
v 9.452524 22.680616 -0.044230
v 6.599943 21.160097 -0.044230
v 9.452524 22.680616 -8.678511
v 6.599943 21.160097 -8.678511
v 0.040308 22.651667 -8.678511
v 2.467772 21.178308 -8.678511
v 19.593319 21.029135 -0.044232
v 19.593319 21.029135 -8.678509
v 19.593319 21.029135 -0.044232
v 10.843813 0.014946 -0.044232
v 10.843813 0.014946 -8.678509
v 12.449045 5.971087 -0.044232
v 12.449045 5.971087 -8.678509
v 11.598085 0.014969 -0.044232
v 11.598085 0.014969 -8.678509
v 18.160023 13.995014 -0.044232
v 18.160023 13.995014 -8.678509
v 17.287415 16.159302 -0.044232
v 17.287415 16.159302 -8.678509
v 28.419971 22.651590 -0.044232
v 35.219669 22.638578 -0.044232
v 35.219669 22.638578 -8.678509
v 28.419971 22.651590 -8.678509
v 23.108959 22.592093 -8.678509
v 12.707727 22.547567 -8.678509
v 12.707727 22.547567 -0.044232
v 23.108959 22.592093 -0.044232
v 15.552637 20.994982 -8.678509
v 15.552637 20.994982 -0.044232
v 25.463352 6.208937 -0.044232
v 23.849396 0.003349 -0.044232
v 23.849396 0.003349 -8.678509
v 25.463352 6.208937 -8.678509
v 24.660667 0.014946 -0.044232
v 24.660667 0.014946 -8.678509
v 31.175365 21.200872 -0.044232
v 32.890911 21.188044 -0.044232
v 32.890911 21.188044 -8.678509
v 31.175365 21.200872 -8.678509
# 41 vertices

vt 0.000000 1.000000
vt 0.000000 0.000000
vt 1.000000 1.000000
vt 1.000000 0.000000
# 4 texture coordinates

vn 0.000000 0.000000 1.000000
vn 0.470382 -0.882463 0.000000
vn -0.518860 -0.854859 0.000000
vn -0.003076 0.999995 0.000000
vn 0.000000 0.000000 0.000000
vn -0.574659 -0.536463 0.618041
vn -0.415830 -0.164577 0.894427
vn -0.929824 -0.368006 0.000000
vn -0.365474 -0.930822 0.000000
vn -0.204483 0.284996 0.936464
vn 0.834678 0.321424 0.447214
vn 0.642804 0.766031 0.000000
vn 0.933198 0.359363 0.000000
vn 0.228479 -0.611995 0.757139
vn 0.699476 -0.714656 0.000000
vn 0.640101 -0.300450 0.707107
vn 0.905240 -0.424901 0.000000
vn -0.285653 0.135656 0.948683
vn -0.903313 0.428982 0.000000
vn 0.001914 0.999998 0.000000
vn -0.004281 0.999991 0.000000
vn 0.766606 -0.642118 0.000000
vn -0.941263 -0.337674 0.000000
vn -0.835503 -0.549486 0.000000
vn -0.841891 -0.302025 0.447214
vn -0.548542 -0.604541 0.577609
vn 0.492486 -0.038532 0.869467
vn -0.479046 -0.877790 0.000000
vn -0.214236 -0.392559 0.894427
vn 0.363349 -0.817299 0.447214
vn 0.406236 -0.913768 0.000000
vn -0.221073 0.254288 0.941522
vn -0.414274 -0.168455 0.894427
vn -0.568600 -0.542264 0.618582
vn -0.926345 -0.376676 0.000000
vn -0.353394 -0.935475 0.000000
vn 0.646157 0.763204 0.000000
vn 0.243986 -0.599928 0.761943
vn 0.736641 -0.676284 0.000000
vn -0.490411 -0.371487 0.788349
vn 0.576940 -0.379370 0.723338
vn 0.694700 -0.719300 0.000000
vn -0.997273 -0.073797 0.000000
vn -0.208346 -0.395717 0.894427
vn 0.472887 -0.759196 0.447214
vn 0.528704 -0.848806 0.000000
vn -0.465875 -0.884851 0.000000
# 47 normals

g w
s 1
f 1/1/1 2/2/1 3/3/1
f 2/2/1 4/4/1 3/3/1
s 2
f 3/1/2 4/2/2 5/3/2
f 4/2/2 6/4/2 5/3/2
f 7/1/3 8/2/3 1/3/3
f 8/2/3 2/4/3 1/3/3
s 3
f 7/1/4 1/2/4 5/3/4
f 1/2/4 3/4/4 5/3/4
f 9/1/5 10/2/5 11/3/5
f 10/2/5 10/4/5 9/3/5
s 4
f 12/1/6 2/1/7 8/1/8
f 12/1/6 8/1/8 13/1/9
f 14/1/10 4/1/11 2/1/7
f 14/1/10 2/1/7 12/1/6
f 15/1/12 6/1/13 4/1/11
f 15/1/12 4/1/11 14/1/10
f 16/1/14 12/1/6 13/1/9
f 16/1/14 13/1/9 17/1/15
f 14/1/10 14/1/10 12/1/6
f 14/1/10 12/1/6 16/1/14
f 17/1/15 15/1/12 15/1/12
f 15/1/12 15/1/12 14/1/10
f 15/1/12 14/1/10 14/1/10
f 18/1/16 16/1/14 17/1/15
f 18/1/16 17/1/15 19/1/17
f 20/1/18 14/1/10 16/1/14
f 20/1/18 16/1/14 18/1/16
f 21/1/19 15/1/12 14/1/10
f 21/1/19 14/1/10 20/1/18
f 22/1/20 23/1/20 24/1/20
f 22/1/20 24/1/20 25/1/20
f 9/1/1 20/1/18 18/1/16
f 9/1/1 18/1/16 9/1/1
f 10/1/5 21/1/19 10/1/5
f 26/1/21 27/1/21 28/1/21
f 26/1/21 28/1/21 29/1/21
s 5
f 10/1/22 10/1/22 21/1/23
f 30/1/24 21/1/23 20/1/25
f 30/1/24 20/1/25 31/1/26
f 31/1/26 20/1/25 9/1/27
f 31/1/26 9/1/27 9/1/27
f 9/1/27 9/1/27 10/1/22
f 9/1/27 10/1/22 10/1/22
f 27/1/28 30/1/24 31/1/26
f 27/1/28 31/1/26 28/1/29
f 28/1/29 31/1/26 9/1/27
f 28/1/29 9/1/27 29/1/30
f 29/1/30 9/1/27 10/1/22
f 29/1/30 10/1/22 26/1/31
f 32/1/32 9/1/27 18/1/33
f 32/1/32 18/1/33 33/1/34
f 33/1/34 18/1/33 19/1/35
f 33/1/34 19/1/35 34/1/36
f 35/1/37 10/1/22 9/1/27
f 35/1/37 9/1/27 32/1/32
f 32/1/32 32/1/32 33/1/34
f 32/1/32 33/1/34 36/1/38
f 36/1/38 33/1/34 34/1/36
f 36/1/38 34/1/36 37/1/39
f 37/1/39 35/1/37 35/1/37
f 35/1/37 35/1/37 32/1/32
f 35/1/37 32/1/32 32/1/32
f 38/1/40 32/1/32 36/1/38
f 38/1/40 36/1/38 39/1/41
f 39/1/41 36/1/38 37/1/39
f 39/1/41 37/1/39 40/1/42
f 41/1/43 35/1/37 32/1/32
f 41/1/43 32/1/32 38/1/40
f 22/1/44 38/1/40 39/1/41
f 22/1/44 39/1/41 23/1/45
f 23/1/45 39/1/41 40/1/42
f 23/1/45 40/1/42 24/1/46
f 25/1/47 41/1/43 38/1/40
f 25/1/47 38/1/40 22/1/44
# 74 triangles in group

# 74 triangles total

