# Wavefront OBJ exported by MilkShape 3D

v -0.034474 22.069118 0.012792
v 3.148301 20.072382 0.012792
v 10.084919 22.069118 0.012792
v 8.286764 20.072382 0.012792
v 10.084919 22.069118 -8.621489
v 8.286764 20.072382 -8.621489
v -0.034474 22.069118 -8.621489
v 3.148301 20.072382 -8.621489
v 9.231659 11.344826 0.012790
v 9.231659 11.344826 -8.621487
v 11.741882 14.533925 0.012790
v 11.741882 14.533925 -8.621487
v 10.196392 9.883299 0.012790
v 10.196392 9.883299 -8.621487
v 12.629692 13.072399 0.012790
v 12.629692 13.072399 -8.621487
v 15.385468 2.239055 0.012790
v 15.385468 2.239055 -8.621487
v 20.190565 2.197389 0.012790
v 20.190565 2.197389 -8.621487
v 12.857651 -0.004536 0.012790
v 12.857651 -0.004536 -8.621487
v 23.455564 -0.004536 0.012790
v 23.455564 -0.004536 -8.621487
v 18.338045 20.614054 -8.621487
v 15.908558 20.575600 -8.621487
v 15.908558 20.575600 0.012790
v 18.338045 20.614054 0.012790
v 21.035666 22.140162 -8.621487
v 13.585936 22.132864 -8.621487
v 13.585936 22.132864 0.012790
v 21.035666 22.140162 0.012790
v 4.279751 1.466630 0.012790
v 1.898304 1.419846 0.012790
v 1.898304 1.419846 -8.621487
v 4.279751 1.466630 -8.621487
v 7.018914 -0.004460 0.012790
v 0.075805 -0.017377 0.012790
v 0.075805 -0.017377 -8.621487
v 7.018914 -0.004460 -8.621487
# 40 vertices

vt 0.000000 1.000000
vt 0.000000 0.000000
vt 1.000000 1.000000
vt 1.000000 0.000000
# 4 texture coordinates

vn 0.000000 0.000000 1.000000
vn 0.743092 -0.669189 0.000000
vn -0.531434 -0.847100 0.000000
vn 0.000000 1.000000 0.000000
vn 0.000000 -1.000000 0.000000
vn -0.455062 -0.317192 0.832050
vn -0.366883 -0.255728 0.894427
vn -0.820375 -0.571825 0.000000
vn 0.268300 0.167377 0.948683
vn 0.758868 0.473413 0.447214
vn 0.848440 0.529292 0.000000
vn 0.001860 -0.999998 0.000000
vn 0.455442 0.316647 0.832050
vn -0.261640 -0.177607 0.948683
vn -0.608536 -0.098524 0.787386
vn -0.827380 -0.561643 0.000000
vn -0.917504 0.397726 0.000000
vn 0.460578 0.529374 0.712482
vn 0.745035 0.667025 0.000000
vn 0.821059 0.570843 0.000000
vn -0.593729 0.668944 0.447214
vn -0.663809 0.747902 0.000000
vn 0.250052 0.370775 0.894427
vn 0.559133 0.829078 0.000000
vn -0.990562 0.137067 0.000000
vn -0.823213 0.567733 0.000000
vn -0.736304 0.507796 0.447214
vn -0.518655 -0.292783 0.803290
vn 0.356585 -0.269902 0.894427
vn 0.496481 -0.494180 0.713647
vn 0.797348 -0.603520 0.000000
vn 0.605188 -0.796083 0.000000
vn -0.556889 -0.830587 0.000000
vn -0.249048 -0.371450 0.894427
vn 0.440408 -0.778486 0.447214
vn 0.492391 -0.870374 0.000000
vn 0.479816 0.322769 0.815841
vn 0.731722 -0.514376 0.447214
vn -0.359682 0.265761 0.894427
vn -0.527165 0.467052 0.709901
vn -0.804273 0.594260 0.000000
vn -0.686319 0.727301 0.000000
vn 0.991955 -0.126594 0.000000
vn 0.818090 -0.575090 0.000000
vn 0.211595 0.393989 0.894427
vn -0.553849 0.702319 0.447214
vn -0.619222 0.785216 0.000000
vn 0.473141 0.880987 0.000000
# 48 normals

g x
s 1
f 1/1/1 2/2/1 3/3/1
f 2/2/1 4/4/1 3/3/1
s 2
f 3/1/2 4/2/2 5/3/2
f 4/2/2 6/4/2 5/3/2
f 7/1/3 8/2/3 1/3/3
f 8/2/3 2/4/3 1/3/3
s 3
f 7/1/4 1/2/4 5/3/4
f 1/2/4 3/4/4 5/3/4
f 21/1/5 22/2/5 23/3/5
f 22/2/5 24/4/5 23/3/5
s 4
f 9/1/6 2/1/7 8/1/8
f 9/1/6 8/1/8 10/1/8
f 11/1/9 4/1/10 2/1/7
f 11/1/9 2/1/7 9/1/6
f 12/1/11 6/1/11 4/1/10
f 12/1/11 4/1/10 11/1/9
f 37/1/12 38/1/12 39/1/12
f 37/1/12 39/1/12 40/1/12
f 15/1/13 11/1/9 9/1/6
f 15/1/13 9/1/6 13/1/14
f 29/1/4 30/1/4 31/1/4
f 29/1/4 31/1/4 32/1/4
f 17/1/15 13/1/14 14/1/16
f 17/1/15 14/1/16 18/1/17
f 19/1/18 15/1/13 13/1/14
f 19/1/18 13/1/14 17/1/15
f 20/1/19 16/1/20 15/1/13
f 20/1/19 15/1/13 19/1/18
f 21/1/21 17/1/15 18/1/17
f 21/1/21 18/1/17 22/1/22
f 23/1/23 19/1/18 17/1/15
f 23/1/23 17/1/15 21/1/21
f 24/1/24 20/1/19 19/1/18
f 24/1/24 19/1/18 23/1/23
s 5
f 26/1/25 12/1/26 11/1/27
f 26/1/25 11/1/27 27/1/28
f 27/1/28 11/1/27 15/1/29
f 27/1/28 15/1/29 28/1/30
f 28/1/30 15/1/29 16/1/31
f 28/1/30 16/1/31 25/1/32
f 30/1/33 26/1/25 27/1/28
f 30/1/33 27/1/28 31/1/34
f 31/1/34 27/1/28 28/1/30
f 31/1/34 28/1/30 32/1/35
f 32/1/35 28/1/30 25/1/32
f 32/1/35 25/1/32 29/1/36
f 33/1/37 13/1/38 9/1/39
f 33/1/37 9/1/39 34/1/40
f 34/1/40 9/1/39 10/1/41
f 34/1/40 10/1/41 35/1/42
f 36/1/43 14/1/44 13/1/38
f 36/1/43 13/1/38 33/1/37
f 37/1/45 33/1/37 34/1/40
f 37/1/45 34/1/40 38/1/46
f 38/1/46 34/1/40 35/1/42
f 38/1/46 35/1/42 39/1/47
f 40/1/48 36/1/43 33/1/37
f 40/1/48 33/1/37 37/1/45
# 58 triangles in group

# 58 triangles total

