# Wavefront OBJ exported by MilkShape 3D

v 21.211868 30.932579 0.001351
v 0.006584 0.844853 0.001351
v 27.836079 32.942513 0.001350
v 6.412386 1.790329 0.001350
v 27.836079 32.942513 -8.632929
v 6.412386 1.790329 -8.632929
v 21.211868 30.932579 -8.632929
v 0.006584 0.844853 -8.632929
v 0.006530 0.038388 0.001349
v 0.006530 0.038388 -8.632927
v 6.412386 1.790329 0.001350
v 6.412386 1.790329 -8.632929
v 26.827412 -0.078923 0.001349
v 26.827412 -0.078923 -8.632927
v 23.699039 1.830217 0.001349
v 23.699039 1.830217 -8.632927
v 22.545200 32.932594 -8.632927
v 22.545200 32.932594 0.001349
v 27.836079 32.942513 -8.632929
v 27.836079 32.942513 0.001350
v 3.745223 32.799271 -8.632927
v 7.078515 30.865936 -8.632927
v 7.078515 30.865936 0.001349
v 3.745223 32.799271 0.001349
v 2.981047 24.798662 -8.632927
v 3.842673 24.799898 -8.632927
v 3.842673 24.799898 0.001349
v 2.981047 24.798662 0.001349
v 28.431511 8.600605 0.068805
v 28.431511 8.600605 -8.700382
v 27.694981 8.617306 0.068805
v 27.694981 8.617306 -8.700382
# 32 vertices

vt 0.000000 1.000000
vt 0.000000 0.000000
vt 1.000000 1.000000
vt 1.000000 0.000000
# 4 texture coordinates

vn 0.000000 -0.000000 1.000000
vn 0.823961 -0.566647 0.000000
vn -0.817391 0.576083 0.000000
vn -0.001875 0.999998 0.000000
vn 0.022669 0.999743 0.000000
vn -0.535362 -0.267060 0.801291
vn -0.707107 0.000045 0.707107
vn -1.000000 0.000066 0.000000
vn -0.450350 -0.892852 0.000000
vn -0.001631 0.707104 0.707107
vn 0.000000 0.000000 0.000000
vn 0.252418 -0.571675 0.780687
vn 0.821225 -0.570605 0.000000
vn -0.432249 0.501485 0.749449
vn -0.326580 0.945170 0.000000
vn 0.001434 -0.999999 0.000000
vn 0.339500 -0.940606 0.000000
vn 0.004715 -0.999989 0.000000
vn 0.004217 -0.894417 0.447214
vn 0.443736 -0.486862 0.752373
vn -0.003171 0.447203 0.894427
vn -0.265988 0.551925 0.790335
vn -0.007092 0.999975 0.000000
vn -0.859135 0.511749 0.000000
vn 0.882315 -0.470659 0.000000
vn 0.394583 -0.210485 0.894427
vn -0.890375 0.085044 0.447214
vn -0.995469 0.095082 0.000000
vn 0.879020 -0.165929 0.446980
vn 0.983347 -0.181736 0.000000
vn -0.387738 0.220325 0.895051
vn -0.861738 0.507354 0.000000
# 32 normals

g Z
s 1
f 1/1/1 2/2/1 3/3/1
f 2/2/1 4/4/1 3/3/1
s 2
f 3/1/2 4/2/2 5/3/2
f 4/2/2 6/4/2 5/3/2
f 7/1/3 8/2/3 1/3/3
f 8/2/3 2/4/3 1/3/3
s 3
f 17/1/4 18/2/4 19/3/4
f 18/2/4 20/4/4 19/3/4
f 29/1/5 30/2/5 31/3/5
f 30/2/5 32/4/5 31/3/5
s 4
f 9/1/6 2/1/7 8/1/8
f 9/1/6 8/1/8 10/1/9
f 11/1/10 4/1/11 2/1/7
f 11/1/10 2/1/7 9/1/6
f 10/1/9 6/1/11 12/1/4
f 12/1/4 6/1/11 4/1/11
f 12/1/4 4/1/11 11/1/10
f 13/1/12 9/1/6 10/1/9
f 13/1/12 10/1/9 14/1/13
f 15/1/14 11/1/10 9/1/6
f 15/1/14 9/1/6 13/1/12
f 16/1/15 12/1/4 11/1/10
f 16/1/15 11/1/10 15/1/14
f 25/1/16 26/1/16 27/1/16
f 25/1/16 27/1/16 28/1/16
f 19/1/11 5/1/11 7/1/11
f 18/1/1 1/1/1 3/1/1
f 18/1/1 3/1/1 20/1/11
f 20/1/11 3/1/1 5/1/11
f 20/1/11 5/1/11 19/1/11
s 5
f 22/1/17 7/1/18 1/1/19
f 22/1/17 1/1/19 23/1/20
f 23/1/20 1/1/19 18/1/21
f 23/1/20 18/1/21 24/1/22
f 24/1/22 18/1/21 17/1/23
f 24/1/22 17/1/23 21/1/24
f 26/1/25 22/1/17 23/1/20
f 26/1/25 23/1/20 27/1/26
f 27/1/26 23/1/20 24/1/22
f 27/1/26 24/1/22 28/1/27
f 28/1/27 24/1/22 21/1/24
f 28/1/27 21/1/24 25/1/28
s 4
f 29/1/29 13/1/12 14/1/13
f 29/1/29 14/1/13 30/1/30
f 31/1/31 15/1/14 13/1/12
f 31/1/31 13/1/12 29/1/29
f 32/1/32 16/1/15 15/1/14
f 32/1/32 15/1/14 31/1/31
# 48 triangles in group

# 48 triangles total

