0
SECTION
2
HEADER
999
DXF File Generated by LightWave 3D(TM)
0
ENDSEC
0
SECTION
2
TABLES
0
ENDSEC
0
SECTION
2
BLOCKS
0
ENDSEC
0
SECTION
2
ENTITIES
0
3DFACE
8
0
70
0
10
0.000000
20
-3.073673
30
144.829453
11
25.202938
21
3.646437
31
131.127380
12
56.126602
22
56.276432
32
144.829453
13
0.000000
23
52.842552
33
185.999725
0
3DFACE
8
0
70
0
10
0.977954
20
153.758667
30
340.863525
11
10.544052
21
156.989792
31
340.824158
12
9.499233
22
167.355072
32
341.674652
13
1.322814
23
169.097626
33
341.978394
0
3DFACE
8
0
70
0
10
-1.187133
20
50.721329
30
-56.031586
11
-1.661200
21
105.985352
31
-67.927116
12
42.554832
22
102.507462
32
-51.928528
13
37.261444
23
53.670166
33
-45.395756
0
3DFACE
8
0
70
0
10
-2.113071
20
131.618652
30
-85.120872
11
-2.112425
21
142.178741
31
-82.801979
12
0.752113
22
141.378937
32
-83.022217
13
1.226103
23
132.798996
33
-84.916061
0
3DFACE
8
0
70
0
10
49.396351
20
122.656532
30
19.399452
11
0.022309
21
136.841003
31
23.488136
12
0.000000
22
129.010437
32
94.200928
13
45.352390
23
118.444244
33
94.442726
0
3DFACE
8
0
70
0
10
0.000000
20
129.010437
30
94.200928
11
0.000000
21
132.331863
31
127.474380
12
42.853214
22
116.135384
32
125.827713
13
45.352390
23
118.444244
33
94.442726
0
3DFACE
8
0
70
0
10
28.488487
20
38.510521
30
24.953327
11
65.673569
21
75.903557
31
23.049866
12
56.582664
22
56.233162
32
95.394882
13
24.455627
23
7.897467
33
96.343826
0
3DFACE
8
0
70
0
10
65.841187
20
-150.658356
30
96.465302
11
46.566746
21
-150.658356
31
150.493790
12
29.831587
22
-150.658356
32
135.196854
13
35.989368
23
-150.658356
33
97.673012
0
3DFACE
8
0
70
0
10
65.673569
20
75.903557
30
23.049866
11
49.396351
21
122.656532
31
19.399452
12
45.352390
22
118.444244
32
94.442726
13
56.582664
23
56.233162
33
95.394882
0
3DFACE
8
0
70
0
10
56.582664
20
56.233162
30
95.394882
11
45.352390
21
118.444244
31
94.442726
12
42.853214
22
116.135384
32
125.827713
13
56.126602
23
56.276432
33
144.829453
0
3DFACE
8
0
70
0
10
0.000000
20
30.641190
30
24.953327
11
28.488487
21
38.510521
31
24.953327
12
24.455627
22
7.897467
32
96.343826
13
0.000000
23
-2.428066
33
96.580124
0
3DFACE
8
0
70
0
10
0.000000
20
-2.428066
30
96.580124
11
24.455627
21
7.897467
31
96.343826
12
25.202938
22
3.646437
32
131.127380
13
0.000000
23
-3.073673
33
144.829453
0
3DFACE
8
0
70
0
10
-0.733928
20
134.614182
30
-15.057059
11
39.434486
21
126.001732
31
-17.541069
12
37.014874
22
123.420372
32
-42.704388
13
-1.433702
23
130.554459
33
-51.157143
0
3DFACE
8
0
70
0
10
0.022309
20
136.841003
30
23.488136
11
49.396351
21
122.656532
31
19.399452
12
39.434486
22
126.001732
32
-17.541069
13
-0.733928
23
134.614182
33
-15.057059
0
3DFACE
8
0
70
0
10
63.872204
20
-149.421570
30
-44.161194
11
37.987122
21
-149.904907
31
-44.144180
12
32.506531
22
-149.879730
32
-44.670525
13
47.465099
23
-149.421570
33
-44.886009
0
3DFACE
8
0
70
0
10
84.861511
20
-150.883957
30
25.593168
11
47.465099
21
-151.223877
31
25.593168
12
37.987122
22
-149.904907
32
-44.144180
13
63.872204
23
-149.421570
33
-44.161194
0
3DFACE
8
0
70
0
10
73.600403
20
88.050087
30
-25.613359
11
42.554832
21
102.507462
31
-51.928528
12
37.014874
22
123.420372
32
-42.704388
13
39.434486
23
126.001732
33
-17.541069
0
3DFACE
8
0
70
0
10
49.396351
20
122.656532
30
19.399452
11
65.673569
21
75.903557
31
23.049866
12
73.600403
22
88.050087
32
-25.613359
13
39.434486
23
126.001732
33
-17.541069
0
3DFACE
8
0
70
0
10
0.000000
20
23.480217
30
-24.124083
11
-1.187133
21
50.721329
31
-56.031586
12
37.261444
22
53.670166
32
-45.395756
13
40.182980
23
32.623844
33
-24.333324
0
3DFACE
8
0
70
0
10
28.488487
20
38.510521
30
24.953327
11
0.000000
21
30.641190
31
24.953327
12
0.000000
22
23.480217
32
-24.124083
13
40.182980
23
32.623844
33
-24.333324
0
3DFACE
8
0
70
0
10
58.252430
20
-80.889191
30
-71.605057
11
48.486301
21
-80.889191
31
-72.795517
12
49.233860
22
-50.519684
32
-58.979000
13
56.232388
23
-50.519684
33
-58.979000
0
3DFACE
8
0
70
0
10
39.582390
20
-81.238548
30
-72.441597
11
42.853214
21
-50.661156
31
-58.979000
12
49.233860
22
-50.519684
32
-58.979000
13
48.486301
23
-80.889191
33
-72.795517
0
3DFACE
8
0
70
0
10
42.844643
20
-81.257721
30
-71.577110
11
45.190990
21
-50.668934
31
-58.979000
12
42.853214
22
-50.661156
32
-58.979000
13
39.582390
23
-81.238548
33
-72.441597
0
3DFACE
8
0
70
0
10
70.746063
20
-80.938469
30
-38.719952
11
58.252430
21
-80.889191
31
-71.605057
12
56.232388
22
-50.519684
32
-58.979000
13
65.185471
23
-53.299500
33
-9.387181
0
3DFACE
8
0
70
0
10
48.486301
20
-81.303703
30
-38.719952
11
49.233860
21
-52.399815
31
-9.387181
12
45.190990
22
-50.668934
32
-58.979000
13
42.844643
23
-81.257721
33
-71.577110
0
3DFACE
8
0
70
0
10
48.486301
20
-81.303703
30
-38.719952
11
70.746063
21
-80.938469
31
-38.719952
12
65.185471
22
-53.299500
32
-9.387181
13
49.233860
23
-52.399815
33
-9.387181
0
3DFACE
8
0
70
0
10
58.252430
20
-107.921051
30
-48.384312
11
48.486301
21
-107.921051
31
-48.533119
12
48.486301
22
-80.889191
32
-72.795517
13
58.252430
23
-80.889191
33
-71.605057
0
3DFACE
8
0
70
0
10
39.582390
20
-108.308510
30
-48.488884
11
39.582390
21
-81.238548
31
-72.441597
12
48.486301
22
-80.889191
32
-72.795517
13
48.486301
23
-107.921051
33
-48.533119
0
3DFACE
8
0
70
0
10
42.844643
20
-108.329781
30
-48.380817
11
42.844643
21
-81.257721
31
-71.577110
12
39.582390
22
-81.238548
32
-72.441597
13
39.582390
23
-108.308510
33
-48.488884
0
3DFACE
8
0
70
0
10
70.746063
20
-108.717216
30
-17.742218
11
58.252430
21
-107.921051
31
-48.384312
12
58.252430
22
-80.889191
32
-71.605057
13
70.746063
23
-80.938469
33
-38.719952
0
3DFACE
8
0
70
0
10
48.486301
20
-109.082443
30
-17.742218
11
48.486301
21
-81.303703
31
-38.719952
12
42.844643
22
-81.257721
32
-71.577110
13
42.844643
23
-108.329781
33
-48.380817
0
3DFACE
8
0
70
0
10
48.486301
20
-109.082443
30
-17.742218
11
70.746063
21
-108.717216
31
-17.742218
12
70.746063
22
-80.938469
32
-38.719952
13
48.486301
23
-81.303703
33
-38.719952
0
3DFACE
8
0
70
0
10
63.872204
20
-149.421570
30
-44.161194
11
47.465099
21
-149.421570
31
-44.886009
12
48.486301
22
-107.921051
32
-48.533119
13
58.252430
23
-107.921051
33
-48.384312
0
3DFACE
8
0
70
0
10
32.506531
20
-149.879730
30
-44.670525
11
39.582390
21
-108.308510
31
-48.488884
12
48.486301
22
-107.921051
32
-48.533119
13
47.465099
23
-149.421570
33
-44.886009
0
3DFACE
8
0
70
0
10
37.987122
20
-149.904907
30
-44.144180
11
42.844643
21
-108.329781
31
-48.380817
12
39.582390
22
-108.308510
32
-48.488884
13
32.506531
23
-149.879730
33
-44.670525
0
3DFACE
8
0
70
0
10
84.861511
20
-150.883957
30
25.593168
11
63.872204
21
-149.421570
31
-44.161194
12
58.252430
22
-107.921051
32
-48.384312
13
70.746063
23
-108.717216
33
-17.742218
0
3DFACE
8
0
70
0
10
47.465099
20
-151.223877
30
25.593168
11
48.486301
21
-109.082443
31
-17.742218
12
42.844643
22
-108.329781
32
-48.380817
13
37.987122
23
-149.904907
33
-44.144180
0
3DFACE
8
0
70
0
10
47.465099
20
-151.223877
30
25.593168
11
84.861511
21
-150.883957
31
25.593168
12
70.746063
22
-108.717216
32
-17.742218
13
48.486301
23
-109.082443
33
-17.742218
0
3DFACE
8
0
70
0
10
45.201004
20
-60.827942
30
114.470261
11
24.455627
21
7.897467
31
96.343826
12
56.582664
22
56.233162
32
95.394882
13
56.582664
23
-60.827942
33
114.043236
0
3DFACE
8
0
70
0
10
45.201004
20
-60.827942
30
114.470261
11
42.853214
21
-60.827942
31
127.738014
12
25.202938
22
3.646437
32
131.127380
13
24.455627
23
7.897467
33
96.343826
0
3DFACE
8
0
70
0
10
42.853214
20
-60.827942
30
127.738014
11
49.233860
21
-60.827942
31
133.146744
12
56.126602
22
56.276432
32
144.829453
13
25.202938
23
3.646437
33
131.127380
0
3DFACE
8
0
70
0
10
49.233860
20
-60.827942
30
133.146744
11
56.582664
21
-60.827942
31
114.043236
12
56.582664
22
56.233162
32
95.394882
13
56.126602
23
56.276432
33
144.829453
0
3DFACE
8
0
70
0
10
39.331406
20
-96.402977
30
97.834190
11
45.201004
21
-60.827942
31
114.470261
12
56.582664
22
-60.827942
32
114.043236
13
57.314430
23
-96.402977
33
97.159485
0
3DFACE
8
0
70
0
10
35.621899
20
-96.402977
30
118.797226
11
42.853214
21
-60.827942
31
127.738014
12
45.201004
22
-60.827942
32
114.470261
13
39.331406
23
-96.402977
33
97.834190
0
3DFACE
8
0
70
0
10
45.703323
20
-96.402977
30
127.343002
11
49.233860
21
-60.827942
31
133.146744
12
42.853214
22
-60.827942
32
127.738014
13
35.621899
23
-96.402977
33
118.797226
0
3DFACE
8
0
70
0
10
45.703323
20
-96.402977
30
127.343002
11
57.314430
21
-96.402977
31
97.159485
12
56.582664
22
-60.827942
32
114.043236
13
49.233860
23
-60.827942
33
133.146744
0
3DFACE
8
0
70
0
10
35.989368
20
-150.658356
30
97.673012
11
39.331406
21
-96.402977
31
97.834190
12
57.314430
22
-96.402977
32
97.159485
13
65.841187
23
-150.658356
33
96.465302
0
3DFACE
8
0
70
0
10
29.831587
20
-150.658356
30
135.196854
11
35.621899
21
-96.402977
31
118.797226
12
39.331406
22
-96.402977
32
97.834190
13
35.989368
23
-150.658356
33
97.673012
0
3DFACE
8
0
70
0
10
46.566746
20
-150.658356
30
150.493790
11
45.703323
21
-96.402977
31
127.343002
12
35.621899
22
-96.402977
32
118.797226
13
29.831587
23
-150.658356
33
135.196854
0
3DFACE
8
0
70
0
10
46.566746
20
-150.658356
30
150.493790
11
65.841187
21
-150.658356
31
96.465302
12
57.314430
22
-96.402977
32
97.159485
13
45.703323
23
-96.402977
33
127.343002
0
3DFACE
8
0
70
0
10
0.819086
20
150.471069
30
247.960419
11
0.711480
21
145.896637
31
231.832809
12
25.349224
22
184.931183
32
227.372543
13
37.262543
23
173.361008
33
245.897842
0
3DFACE
8
0
70
0
10
9.499233
20
167.355072
30
341.674652
11
26.223009
21
194.859207
31
300.794189
12
2.172469
22
200.743118
32
301.473602
13
1.322814
23
169.097626
33
341.978394
0
3DFACE
8
0
70
0
10
10.544052
20
156.989792
30
340.824158
11
29.016251
21
160.170593
31
301.604492
12
26.223009
22
194.859207
32
300.794189
13
9.499233
23
167.355072
33
341.674652
0
3DFACE
8
0
70
0
10
0.977954
20
153.758667
30
340.863525
11
0.853091
21
149.432480
31
300.896545
12
29.016251
22
160.170593
32
301.604492
13
10.544052
23
156.989792
33
340.824158
0
3DFACE
8
0
70
0
10
53.820637
20
247.785675
30
234.879593
11
53.911438
21
231.526016
31
233.457932
12
50.188110
22
232.362366
32
228.480438
13
50.065079
23
237.931808
33
228.963455
0
3DFACE
8
0
70
0
10
35.899975
20
199.479218
30
248.294388
11
37.262543
21
173.361008
31
245.897842
12
25.349224
22
184.931183
32
227.372543
13
24.060068
23
202.140182
33
228.902557
0
3DFACE
8
0
70
0
10
50.065079
20
237.931808
30
228.963455
11
23.256260
21
213.391647
31
229.888107
12
34.424751
22
232.320847
32
251.216446
13
53.820637
23
247.785675
33
234.879593
0
3DFACE
8
0
70
0
10
50.188110
20
232.362366
30
228.480438
11
24.060068
21
202.140182
31
228.902557
12
23.256260
22
213.391647
32
229.888107
13
50.065079
23
237.931808
33
228.963455
0
3DFACE
8
0
70
0
10
53.911438
20
231.526016
30
233.457932
11
35.899975
21
199.479218
31
248.294388
12
24.060068
22
202.140182
32
228.902557
13
50.188110
23
232.362366
33
228.480438
0
3DFACE
8
0
70
0
10
53.911438
20
231.526016
30
233.457932
11
53.820637
21
247.785675
31
234.879593
12
34.424751
22
232.320847
32
251.216446
13
35.899975
23
199.479218
33
248.294388
0
3DFACE
8
0
70
0
10
21.684187
20
226.011978
30
240.900894
11
10.155419
21
229.668854
31
241.286392
12
3.670317
22
242.373306
32
252.268906
13
34.424751
23
232.320847
33
251.216446
0
3DFACE
8
0
70
0
10
10.596779
20
219.745255
30
229.924667
11
2.610518
21
215.147690
31
222.272385
12
3.670317
22
242.373306
32
252.268906
13
10.155419
23
229.668854
33
241.286392
0
3DFACE
8
0
70
0
10
17.772318
20
219.097839
30
232.819687
11
23.256260
21
213.391647
31
229.888107
12
2.610518
22
215.147690
32
222.272385
13
10.596779
23
219.745255
33
229.924667
0
3DFACE
8
0
70
0
10
17.772318
20
219.097839
30
232.819687
11
21.684187
21
226.011978
31
240.900894
12
34.424751
22
232.320847
32
251.216446
13
23.256260
23
213.391647
33
229.888107
0
3DFACE
8
0
70
0
10
57.456364
20
299.736298
30
200.396088
11
59.927677
21
296.820648
31
199.316879
12
58.531406
22
294.533600
32
199.043228
13
53.977356
23
296.720245
33
200.669724
0
3DFACE
8
0
70
0
10
10.155419
20
229.668854
30
241.286392
11
55.678013
21
257.806549
31
227.223770
12
56.994003
22
248.528778
32
220.385971
13
10.596779
23
219.745255
33
229.924667
0
3DFACE
8
0
70
0
10
62.153160
20
250.165527
30
221.731705
11
56.994003
21
248.528778
31
220.385971
12
64.965927
22
256.262207
32
216.742706
13
70.231415
23
259.679474
33
217.062576
0
3DFACE
8
0
70
0
10
55.678013
20
257.806549
30
227.223770
11
62.799164
21
264.813263
31
222.333481
12
64.965927
22
256.262207
32
216.742706
13
56.994003
23
248.528778
33
220.385971
0
3DFACE
8
0
70
0
10
95.245445
20
264.401215
30
194.317322
11
94.977356
21
263.127106
31
191.640884
12
94.711594
22
267.652191
32
191.895111
13
94.520988
23
268.977814
33
194.282852
0
3DFACE
8
0
70
0
10
21.684187
20
226.011978
30
240.900894
11
17.772318
21
219.097839
31
232.819687
12
62.153160
22
250.165527
32
221.731705
13
63.869747
23
256.858917
33
226.736649
0
3DFACE
8
0
70
0
10
63.869747
20
256.858917
30
226.736649
11
71.253693
21
266.556305
31
220.697464
12
62.799164
22
264.813263
32
222.333481
13
55.678013
23
257.806549
33
227.223770
0
3DFACE
8
0
70
0
10
17.772318
20
219.097839
30
232.819687
11
10.596779
21
219.745255
31
229.924667
12
56.994003
22
248.528778
32
220.385971
13
62.153160
23
250.165527
33
221.731705
0
3DFACE
8
0
70
0
10
62.483242
20
283.743530
30
210.672073
11
62.191940
21
290.538055
31
206.613068
12
58.346214
22
285.865784
32
207.505753
13
57.830956
23
282.900513
33
209.635681
0
3DFACE
8
0
70
0
10
71.253693
20
266.556305
30
220.697464
11
62.483242
21
283.743530
31
210.672073
12
57.830956
22
282.900513
32
209.635681
13
62.799164
23
264.813263
33
222.333481
0
3DFACE
8
0
70
0
10
64.164253
20
280.612244
30
207.583542
11
62.428368
21
279.383820
31
206.274826
12
63.482616
22
283.717957
32
204.273376
13
64.820480
23
287.373230
33
204.457245
0
3DFACE
8
0
70
0
10
70.231415
20
259.679474
30
217.062576
11
64.965927
21
256.262207
31
216.742706
12
62.428368
22
279.383820
32
206.274826
13
64.164253
23
280.612244
33
207.583542
0
3DFACE
8
0
70
0
10
43.262825
20
284.351044
30
197.441635
11
41.751003
21
286.777527
31
199.534775
12
42.935658
22
288.213165
32
198.854889
13
45.031490
23
286.254089
33
197.027817
0
3DFACE
8
0
70
0
10
64.965927
20
256.262207
30
216.742706
11
62.799164
21
264.813263
31
222.333481
12
57.830956
22
282.900513
32
209.635681
13
62.428368
23
279.383820
33
206.274826
0
3DFACE
8
0
70
0
10
62.483242
20
283.743530
30
210.672073
11
64.164253
21
280.612244
31
207.583542
12
64.820480
22
287.373230
32
204.457245
13
62.191940
23
290.538055
33
206.613068
0
3DFACE
8
0
70
0
10
70.231415
20
259.679474
30
217.062576
11
64.164253
21
280.612244
31
207.583542
12
62.483242
22
283.743530
32
210.672073
13
71.253693
23
266.556305
33
220.697464
0
3DFACE
8
0
70
0
10
60.287777
20
294.231903
30
204.114792
11
57.456364
21
299.736298
31
200.396088
12
53.977356
22
296.720245
32
200.669724
13
55.389359
23
293.204803
33
202.882172
0
3DFACE
8
0
70
0
10
58.346214
20
285.865784
30
207.505753
11
55.389359
21
293.204803
31
202.882172
12
60.181137
22
290.923035
32
200.787766
13
63.482616
23
283.717957
33
204.273376
0
3DFACE
8
0
70
0
10
63.482616
20
283.717957
30
204.273376
11
60.181137
21
290.923035
31
200.787766
12
62.429520
22
291.984589
32
201.946671
13
64.820480
23
287.373230
33
204.457245
0
3DFACE
8
0
70
0
10
71.359283
20
287.877930
30
189.763992
11
69.037834
21
290.832092
31
190.224380
12
68.560944
22
291.560852
32
192.542816
13
70.586891
23
289.110443
33
192.434937
0
3DFACE
8
0
70
0
10
58.346214
20
285.865784
30
207.505753
11
62.191940
21
290.538055
31
206.613068
12
60.287777
22
294.231903
32
204.114792
13
55.389359
23
293.204803
33
202.882172
0
3DFACE
8
0
70
0
10
55.389359
20
293.204803
30
202.882172
11
53.977356
21
296.720245
31
200.669724
12
58.531406
22
294.533600
32
199.043228
13
60.181137
23
290.923035
33
200.787766
0
3DFACE
8
0
70
0
10
62.429520
20
291.984589
30
201.946671
11
60.181137
21
290.923035
31
200.787766
12
58.531406
22
294.533600
32
199.043228
13
59.927677
23
296.820648
33
199.316879
0
3DFACE
8
0
70
0
10
60.287777
20
294.231903
30
204.114792
11
62.429520
21
291.984589
31
201.946671
12
59.927677
22
296.820648
32
199.316879
13
57.456364
23
299.736298
33
200.396088
0
3DFACE
8
0
70
0
10
63.869747
20
256.858917
30
226.736649
11
67.669106
21
254.916672
31
224.524399
12
74.324684
22
263.625366
32
219.086212
13
71.253693
23
266.556305
33
220.697464
0
3DFACE
8
0
70
0
10
71.253693
20
266.556305
30
220.697464
11
74.324684
21
263.625366
31
219.086212
12
73.400703
22
257.442169
32
215.819839
13
70.231415
23
259.679474
33
217.062576
0
3DFACE
8
0
70
0
10
70.231415
20
259.679474
30
217.062576
11
73.400703
21
257.442169
31
215.819839
12
66.119171
22
248.897675
32
220.025070
13
62.153160
23
250.165527
33
221.731705
0
3DFACE
8
0
70
0
10
62.153160
20
250.165527
30
221.731705
11
66.119171
21
248.897675
31
220.025070
12
67.669106
22
254.916672
32
224.524399
13
63.869747
23
256.858917
33
226.736649
0
3DFACE
8
0
70
0
10
67.669106
20
254.916672
30
224.524399
11
73.498375
21
251.050293
31
221.787933
12
76.656433
22
260.821136
32
218.108032
13
74.324684
23
263.625366
33
219.086212
0
3DFACE
8
0
70
0
10
74.324684
20
263.625366
30
219.086212
11
76.656433
21
260.821136
31
218.108032
12
76.616714
22
255.902161
32
214.103622
13
73.400703
23
257.442169
33
215.819839
0
3DFACE
8
0
70
0
10
73.400703
20
257.442169
30
215.819839
11
76.616714
21
255.902161
31
214.103622
12
72.690521
22
246.338089
32
216.813553
13
66.119171
23
248.897675
33
220.025070
0
3DFACE
8
0
70
0
10
66.119171
20
248.897675
30
220.025070
11
72.690521
21
246.338089
31
216.813553
12
73.498375
22
251.050293
32
221.787933
13
67.669106
23
254.916672
33
224.524399
0
3DFACE
8
0
70
0
10
73.498375
20
251.050293
30
221.787933
11
78.845535
21
250.876907
31
217.212097
12
78.077347
22
260.538910
32
216.432907
13
76.656433
23
260.821136
33
218.108032
0
3DFACE
8
0
70
0
10
76.656433
20
260.821136
30
218.108032
11
78.077347
21
260.538910
31
216.432907
12
78.486320
22
257.399719
32
211.661697
13
76.616714
23
255.902161
33
214.103622
0
3DFACE
8
0
70
0
10
76.616714
20
255.902161
30
214.103622
11
78.486320
21
257.399719
31
211.661697
12
78.341232
22
247.878769
32
211.782715
13
72.690521
23
246.338089
33
216.813553
0
3DFACE
8
0
70
0
10
72.690521
20
246.338089
30
216.813553
11
78.341232
21
247.878769
31
211.782715
12
78.845535
22
250.876907
32
217.212097
13
73.498375
23
251.050293
33
221.787933
0
3DFACE
8
0
70
0
10
78.845535
20
250.876907
30
217.212097
11
81.475098
21
252.576904
31
213.807404
12
80.396477
22
261.245117
32
213.453018
13
78.077347
23
260.538910
33
216.432907
0
3DFACE
8
0
70
0
10
78.077347
20
260.538910
30
216.432907
11
80.396477
21
261.245117
31
213.453018
12
80.769363
22
258.595825
32
209.046768
13
78.486320
23
257.399719
33
211.661697
0
3DFACE
8
0
70
0
10
78.486320
20
257.399719
30
211.661697
11
80.769363
21
258.595825
31
209.046768
12
81.004395
22
250.040085
32
208.835052
13
78.341232
23
247.878769
33
211.782715
0
3DFACE
8
0
70
0
10
78.341232
20
247.878769
30
211.782715
11
81.004395
21
250.040085
31
208.835052
12
81.475098
22
252.576904
32
213.807404
13
78.845535
23
250.876907
33
217.212097
0
3DFACE
8
0
70
0
10
81.475098
20
252.576904
30
213.807404
11
84.032158
21
253.809280
31
210.764221
12
83.066406
22
261.606598
32
210.443604
13
80.396477
23
261.245117
33
213.453018
0
3DFACE
8
0
70
0
10
80.396477
20
261.245117
30
213.453018
11
83.066406
21
261.606598
31
210.443604
12
83.400497
22
259.223663
32
206.478531
13
80.769363
23
258.595825
33
209.046768
0
3DFACE
8
0
70
0
10
80.769363
20
258.595825
30
209.046768
11
83.400497
21
259.223663
31
206.478531
12
83.606598
22
251.527054
32
206.289764
13
81.004395
23
250.040085
33
208.835052
0
3DFACE
8
0
70
0
10
81.004395
20
250.040085
30
208.835052
11
83.606598
21
251.527054
31
206.289764
12
84.032158
22
253.809280
32
210.764221
13
81.475098
23
252.576904
33
213.807404
0
3DFACE
8
0
70
0
10
84.032158
20
253.809280
30
210.764221
11
86.803352
21
255.432007
31
207.310791
12
85.279411
22
262.325500
32
207.655533
13
83.066406
23
261.606598
33
210.443604
0
3DFACE
8
0
70
0
10
83.066406
20
261.606598
30
210.443604
11
85.279411
21
262.325500
31
207.655533
12
85.561440
22
260.498077
32
203.908203
13
83.400497
23
259.223663
33
206.478531
0
3DFACE
8
0
70
0
10
83.400497
20
259.223663
30
206.478531
11
85.561440
21
260.498077
31
203.908203
12
86.368279
22
253.665588
32
203.150513
13
83.606598
23
251.527054
33
206.289764
0
3DFACE
8
0
70
0
10
83.606598
20
251.527054
30
206.289764
11
86.368279
21
253.665588
31
203.150513
12
86.803352
22
255.432007
32
207.310791
13
84.032158
23
253.809280
33
210.764221
0
3DFACE
8
0
70
0
10
86.803352
20
255.432007
30
207.310791
11
88.984184
21
257.360229
31
204.181671
12
87.081085
22
263.363586
32
205.068253
13
85.279411
23
262.325500
33
207.655533
0
3DFACE
8
0
70
0
10
85.279411
20
262.325500
30
207.655533
11
87.081085
21
263.363586
31
205.068253
12
87.284218
22
262.005524
32
201.562775
13
85.561440
23
260.498077
33
203.908203
0
3DFACE
8
0
70
0
10
85.561440
20
260.498077
30
203.908203
11
87.284218
21
262.005524
31
201.562775
12
88.517464
22
256.025665
32
200.343796
13
86.368279
23
253.665588
33
203.150513
0
3DFACE
8
0
70
0
10
86.368279
20
253.665588
30
203.150513
11
88.517464
21
256.025665
31
200.343796
12
88.984184
22
257.360229
32
204.181671
13
86.803352
23
255.432007
33
207.310791
0
3DFACE
8
0
70
0
10
88.984184
20
257.360229
30
204.181671
11
90.915565
21
260.058990
31
200.801453
12
89.114738
22
265.415863
32
201.705170
13
87.081085
23
263.363586
33
205.068253
0
3DFACE
8
0
70
0
10
87.081085
20
263.363586
30
205.068253
11
89.114738
21
265.415863
31
201.705170
12
89.283707
22
264.246368
32
198.529007
13
87.284218
23
262.005524
33
201.562775
0
3DFACE
8
0
70
0
10
87.284218
20
262.005524
30
201.562775
11
89.283707
21
264.246368
31
198.529007
12
90.477478
22
258.904297
32
197.333252
13
88.517464
23
256.025665
33
200.343796
0
3DFACE
8
0
70
0
10
88.517464
20
256.025665
30
200.343796
11
90.477478
21
258.904297
31
197.333252
12
90.915565
22
260.058990
32
200.801453
13
88.984184
23
257.360229
33
204.181671
0
3DFACE
8
0
70
0
10
90.915565
20
260.058990
30
200.801453
11
93.006935
21
262.741089
31
197.304749
12
91.817291
22
267.738281
32
197.646240
13
89.114738
23
265.415863
33
201.705170
0
3DFACE
8
0
70
0
10
89.114738
20
265.415863
30
201.705170
11
91.817291
21
267.738281
31
197.646240
12
92.013649
22
266.452911
32
194.891846
13
89.283707
23
264.246368
33
198.529007
0
3DFACE
8
0
70
0
10
89.283707
20
264.246368
30
198.529007
11
92.013649
21
266.452911
31
194.891846
12
92.675392
22
261.494873
32
194.256149
13
90.477478
23
258.904297
33
197.333252
0
3DFACE
8
0
70
0
10
90.477478
20
258.904297
30
197.333252
11
92.675392
21
261.494873
31
194.256149
12
93.006935
22
262.741089
32
197.304749
13
90.915565
23
260.058990
33
200.801453
0
3DFACE
8
0
70
0
10
93.006935
20
262.741089
30
197.304749
11
95.245445
21
264.401215
31
194.317322
12
94.520988
22
268.977814
32
194.282852
13
91.817291
23
267.738281
33
197.646240
0
3DFACE
8
0
70
0
10
91.817291
20
267.738281
30
197.646240
11
94.520988
21
268.977814
31
194.282852
12
94.711594
22
267.652191
32
191.895111
13
92.013649
23
266.452911
33
194.891846
0
3DFACE
8
0
70
0
10
92.013649
20
266.452911
30
194.891846
11
94.711594
21
267.652191
31
191.895111
12
94.977356
22
263.127106
32
191.640884
13
92.675392
23
261.494873
33
194.256149
0
3DFACE
8
0
70
0
10
92.675392
20
261.494873
30
194.256149
11
94.977356
21
263.127106
31
191.640884
12
95.245445
22
264.401215
32
194.317322
13
93.006935
23
262.741089
33
197.304749
0
3DFACE
8
0
70
0
10
62.428368
20
279.383820
30
206.274826
11
57.787910
21
278.324341
31
204.615997
12
59.193863
22
282.193329
32
203.035492
13
63.482616
23
283.717957
33
204.273376
0
3DFACE
8
0
70
0
10
63.482616
20
283.717957
30
204.273376
11
59.193863
21
282.193329
31
203.035492
12
54.734550
22
284.454254
32
205.945175
13
58.346214
23
285.865784
33
207.505753
0
3DFACE
8
0
70
0
10
58.346214
20
285.865784
30
207.505753
11
54.734550
21
284.454254
31
205.945175
12
53.938351
22
281.754883
32
207.714325
13
57.830956
23
282.900513
33
209.635681
0
3DFACE
8
0
70
0
10
57.830956
20
282.900513
30
209.635681
11
53.938351
21
281.754883
31
207.714325
12
57.787910
22
278.324341
32
204.615997
13
62.428368
23
279.383820
33
206.274826
0
3DFACE
8
0
70
0
10
57.787910
20
278.324341
30
204.615997
11
54.861431
21
278.448639
31
203.452652
12
56.395126
22
281.882874
32
202.165878
13
59.193863
23
282.193329
33
203.035492
0
3DFACE
8
0
70
0
10
59.193863
20
282.193329
30
203.035492
11
56.395126
21
281.882874
31
202.165878
12
52.496292
22
284.105560
32
204.795105
13
54.734550
23
284.454254
33
205.945175
0
3DFACE
8
0
70
0
10
54.734550
20
284.454254
30
205.945175
11
52.496292
21
284.105560
31
204.795105
12
51.581612
22
281.678772
32
206.294876
13
53.938351
23
281.754883
33
207.714325
0
3DFACE
8
0
70
0
10
53.938351
20
281.754883
30
207.714325
11
51.581612
21
281.678772
31
206.294876
12
54.861431
22
278.448639
32
203.452652
13
57.787910
23
278.324341
33
204.615997
0
3DFACE
8
0
70
0
10
54.861431
20
278.448639
30
203.452652
11
51.136795
21
278.292969
31
201.964264
12
53.399704
22
281.012634
32
201.297699
13
56.395126
23
281.882874
33
202.165878
0
3DFACE
8
0
70
0
10
56.395126
20
281.882874
30
202.165878
11
53.399704
21
281.012634
31
201.297699
12
50.404346
22
283.593414
32
203.768936
13
52.496292
23
284.105560
33
204.795105
0
3DFACE
8
0
70
0
10
52.496292
20
284.105560
30
204.795105
11
50.404346
21
283.593414
31
203.768936
12
48.908012
22
281.566315
32
204.773239
13
51.581612
23
281.678772
33
206.294876
0
3DFACE
8
0
70
0
10
51.581612
20
281.678772
30
206.294876
11
48.908012
21
281.566315
31
204.773239
12
51.136795
22
278.292969
32
201.964264
13
54.861431
23
278.448639
33
203.452652
0
3DFACE
8
0
70
0
10
51.136795
20
278.292969
30
201.964264
11
47.487965
21
280.910034
31
199.866867
12
50.335052
22
282.501862
32
199.832520
13
53.399704
23
281.012634
33
201.297699
0
3DFACE
8
0
70
0
10
53.399704
20
281.012634
30
201.297699
11
50.335052
21
282.501862
31
199.832520
12
48.444397
22
285.272797
32
202.326126
13
50.404346
23
283.593414
33
203.768936
0
3DFACE
8
0
70
0
10
50.404346
20
283.593414
30
203.768936
11
48.444397
21
285.272797
31
202.326126
12
46.426739
22
283.951599
32
202.808701
13
48.908012
23
281.566315
33
204.773239
0
3DFACE
8
0
70
0
10
48.908012
20
281.566315
30
204.773239
11
46.426739
21
283.951599
31
202.808701
12
47.487965
22
280.910034
32
199.866867
13
51.136795
23
278.292969
33
201.964264
0
3DFACE
8
0
70
0
10
47.487965
20
280.910034
30
199.866867
11
45.529415
21
283.307159
31
198.579880
12
47.907402
22
285.014679
32
198.401337
13
50.335052
23
282.501862
33
199.832520
0
3DFACE
8
0
70
0
10
50.335052
20
282.501862
30
199.832520
11
47.907402
21
285.014679
31
198.401337
12
45.970119
22
287.422241
32
200.557861
13
48.444397
23
285.272797
33
202.326126
0
3DFACE
8
0
70
0
10
48.444397
20
285.272797
30
202.326126
11
45.970119
21
287.422241
31
200.557861
12
44.315125
22
286.062988
32
201.104980
13
46.426739
23
283.951599
33
202.808701
0
3DFACE
8
0
70
0
10
46.426739
20
283.951599
30
202.808701
11
44.315125
21
286.062988
31
201.104980
12
45.529415
22
283.307159
32
198.579880
13
47.487965
23
280.910034
33
199.866867
0
3DFACE
8
0
70
0
10
45.529415
20
283.307159
30
198.579880
11
43.262825
21
284.351044
31
197.441635
12
45.031490
22
286.254089
32
197.027817
13
47.907402
23
285.014679
33
198.401337
0
3DFACE
8
0
70
0
10
47.907402
20
285.014679
30
198.401337
11
45.031490
21
286.254089
31
197.027817
12
42.935658
22
288.213165
32
198.854889
13
45.970119
23
287.422241
33
200.557861
0
3DFACE
8
0
70
0
10
45.970119
20
287.422241
30
200.557861
11
42.935658
21
288.213165
31
198.854889
12
41.751003
22
286.777527
32
199.534775
13
44.315125
23
286.062988
33
201.104980
0
3DFACE
8
0
70
0
10
44.315125
20
286.062988
30
201.104980
11
41.751003
21
286.777527
31
199.534775
12
43.262825
22
284.351044
32
197.441635
13
45.529415
23
283.307159
33
198.579880
0
3DFACE
8
0
70
0
10
64.820480
20
287.373230
30
204.457245
11
67.807777
21
286.652435
31
201.232178
12
65.595879
22
289.316925
32
203.568085
13
62.191940
23
290.538055
33
206.613068
0
3DFACE
8
0
70
0
10
62.191940
20
290.538055
30
206.613068
11
65.595879
21
289.316925
31
203.568085
12
63.588123
22
292.714447
32
201.711029
13
60.287777
23
294.231903
33
204.114792
0
3DFACE
8
0
70
0
10
60.287777
20
294.231903
30
204.114792
11
63.588123
21
292.714447
31
201.711029
12
65.345863
22
290.862274
32
199.458694
13
62.429520
23
291.984589
33
201.946671
0
3DFACE
8
0
70
0
10
62.429520
20
291.984589
30
201.946671
11
65.345863
21
290.862274
31
199.458694
12
67.807777
22
286.652435
32
201.232178
13
64.820480
23
287.373230
33
204.457245
0
3DFACE
8
0
70
0
10
67.807777
20
286.652435
30
201.232178
11
69.180878
21
286.785095
31
198.203445
12
67.668739
22
288.736389
32
201.036270
13
65.595879
23
289.316925
33
203.568085
0
3DFACE
8
0
70
0
10
65.595879
20
289.316925
30
203.568085
11
67.668739
21
288.736389
31
201.036270
12
65.384346
22
291.844849
32
200.300659
13
63.588123
23
292.714447
33
201.711029
0
3DFACE
8
0
70
0
10
63.588123
20
292.714447
30
201.711029
11
65.384346
21
291.844849
31
200.300659
12
66.489456
22
290.576813
32
197.743134
13
65.345863
23
290.862274
33
199.458694
0
3DFACE
8
0
70
0
10
65.345863
20
290.862274
30
199.458694
11
66.489456
21
290.576813
31
197.743134
12
69.180878
22
286.785095
32
198.203445
13
67.807777
23
286.652435
33
201.232178
0
3DFACE
8
0
70
0
10
69.180878
20
286.785095
30
198.203445
11
70.404686
21
287.357239
31
193.587738
12
69.451271
22
288.795868
32
196.493820
13
67.668739
23
288.736389
33
201.036270
0
3DFACE
8
0
70
0
10
67.668739
20
288.736389
30
201.036270
11
69.451271
21
288.795868
31
196.493820
12
67.221413
22
291.539703
32
196.476105
13
65.384346
23
291.844849
33
200.300659
0
3DFACE
8
0
70
0
10
65.384346
20
291.844849
30
200.300659
11
67.221413
21
291.539703
31
196.476105
12
67.837448
22
290.671417
32
193.937851
13
66.489456
23
290.576813
33
197.743134
0
3DFACE
8
0
70
0
10
66.489456
20
290.576813
30
197.743134
11
67.837448
21
290.671417
31
193.937851
12
70.404686
22
287.357239
32
193.587738
13
69.180878
23
286.785095
33
198.203445
0
3DFACE
8
0
70
0
10
70.404686
20
287.357239
30
193.587738
11
71.359283
21
287.877930
31
189.763992
12
70.586891
22
289.110443
32
192.434937
13
69.451271
23
288.795868
33
196.493820
0
3DFACE
8
0
70
0
10
69.451271
20
288.795868
30
196.493820
11
70.586891
21
289.110443
31
192.434937
12
68.560944
22
291.560852
32
192.542816
13
67.221413
23
291.539703
33
196.476105
0
3DFACE
8
0
70
0
10
67.221413
20
291.539703
30
196.476105
11
68.560944
21
291.560852
31
192.542816
12
69.037834
22
290.832092
32
190.224380
13
67.837448
23
290.671417
33
193.937851
0
3DFACE
8
0
70
0
10
67.837448
20
290.671417
30
193.937851
11
69.037834
21
290.832092
31
190.224380
12
71.359283
22
287.877930
32
189.763992
13
70.404686
23
287.357239
33
193.587738
0
3DFACE
8
0
70
0
10
0.000000
20
-3.073673
30
144.829453
11
0.000000
21
52.842552
31
185.999725
12
-56.126602
22
56.276432
32
144.829453
13
-25.202938
23
3.646437
33
131.127380
0
3DFACE
8
0
70
0
10
0.977954
20
153.758667
30
340.863525
11
1.322814
21
169.097626
31
341.978394
12
-6.927563
22
167.763382
32
341.698914
13
-8.442440
23
157.418198
33
340.847107
0
3DFACE
8
0
70
0
10
-1.187133
20
50.721329
30
-56.031586
11
-39.207138
21
53.456642
31
-43.865986
12
-45.175663
22
102.262497
32
-50.173458
13
-1.661200
23
105.985352
33
-67.927116
0
3DFACE
8
0
70
0
10
-2.113071
20
131.618652
30
-85.120872
11
-5.451527
21
132.780350
31
-84.782478
12
-4.976488
22
141.362930
32
-82.907616
13
-2.112425
23
142.178741
33
-82.801979
0
3DFACE
8
0
70
0
10
-49.351734
20
122.380821
30
21.374929
11
-45.352390
21
118.444244
31
94.442726
12
0.000000
22
129.010437
32
94.200928
13
0.022309
23
136.841003
33
23.488136
0
3DFACE
8
0
70
0
10
0.000000
20
129.010437
30
94.200928
11
-45.352390
21
118.444244
31
94.442726
12
-42.853214
22
116.135384
32
125.827713
13
0.000000
23
132.331863
33
127.474380
0
3DFACE
8
0
70
0
10
-28.488487
20
38.510521
30
24.953327
11
-24.455627
21
7.897467
31
96.343826
12
-56.582664
22
56.233162
32
95.394882
13
-65.068565
23
75.538498
33
25.665392
0
3DFACE
8
0
70
0
10
-65.841187
20
-150.658356
30
96.465302
11
-35.989368
21
-150.658356
31
97.673012
12
-29.831587
22
-150.658356
32
135.196854
13
-46.566746
23
-150.658356
33
150.493790
0
3DFACE
8
0
70
0
10
-65.068565
20
75.538498
30
25.665392
11
-56.582664
21
56.233162
31
95.394882
12
-45.352390
22
118.444244
32
94.442726
13
-49.351734
23
122.380821
33
21.374929
0
3DFACE
8
0
70
0
10
-56.582664
20
56.233162
30
95.394882
11
-56.126602
21
56.276432
31
144.829453
12
-42.853214
22
116.135384
32
125.827713
13
-45.352390
23
118.444244
33
94.442726
0
3DFACE
8
0
70
0
10
0.000000
20
30.641190
30
24.953327
11
0.000000
21
-2.428066
31
96.580124
12
-24.455627
22
7.897467
32
96.343826
13
-28.488487
23
38.510521
33
24.953327
0
3DFACE
8
0
70
0
10
0.000000
20
-2.428066
30
96.580124
11
0.000000
21
-3.073673
31
144.829453
12
-25.202938
22
3.646437
32
131.127380
13
-24.455627
23
7.897467
33
96.343826
0
3DFACE
8
0
70
0
10
-0.733928
20
134.614182
30
-15.057059
11
-1.433702
21
130.554459
31
-51.157143
12
-39.453705
22
123.206871
32
-41.174618
13
-40.894062
23
125.777443
33
-15.934078
0
3DFACE
8
0
70
0
10
0.022309
20
136.841003
30
23.488136
11
-0.733928
21
134.614182
31
-15.057059
12
-40.894062
22
125.777443
32
-15.934078
13
-49.351734
23
122.380821
33
21.374929
0
3DFACE
8
0
70
0
10
-63.872204
20
-149.421570
30
-44.161194
11
-47.465099
21
-149.421570
31
-44.886009
12
-32.506531
22
-149.879730
32
-44.670525
13
-37.987122
23
-149.904907
33
-44.144180
0
3DFACE
8
0
70
0
10
-84.861511
20
-150.883957
30
25.593168
11
-63.872204
21
-149.421570
31
-44.161194
12
-37.987122
22
-149.904907
32
-44.144180
13
-47.465099
23
-151.223877
33
25.593168
0
3DFACE
8
0
70
0
10
-75.026260
20
87.635071
30
-22.640049
11
-40.894062
21
125.777443
31
-15.934078
12
-39.453705
22
123.206871
32
-41.174618
13
-45.175663
23
102.262497
33
-50.173458
0
3DFACE
8
0
70
0
10
-49.351734
20
122.380821
30
21.374929
11
-40.894062
21
125.777443
31
-15.934078
12
-75.026260
22
87.635071
32
-22.640049
13
-65.068565
23
75.538498
33
25.665392
0
3DFACE
8
0
70
0
10
0.000000
20
23.480217
30
-24.124083
11
-40.182980
21
32.623844
31
-24.333324
12
-39.207138
22
53.456642
32
-43.865986
13
-1.187133
23
50.721329
33
-56.031586
0
3DFACE
8
0
70
0
10
-28.488487
20
38.510521
30
24.953327
11
-40.182980
21
32.623844
31
-24.333324
12
0.000000
22
23.480217
32
-24.124083
13
0.000000
23
30.641190
33
24.953327
0
3DFACE
8
0
70
0
10
-58.252430
20
-80.889191
30
-71.605057
11
-56.232388
21
-50.519684
31
-58.979000
12
-49.233860
22
-50.519684
32
-58.979000
13
-48.486301
23
-80.889191
33
-72.795517
0
3DFACE
8
0
70
0
10
-39.582390
20
-81.238548
30
-72.441597
11
-48.486301
21
-80.889191
31
-72.795517
12
-49.233860
22
-50.519684
32
-58.979000
13
-42.853214
23
-50.661156
33
-58.979000
0
3DFACE
8
0
70
0
10
-42.844643
20
-81.257721
30
-71.577110
11
-39.582390
21
-81.238548
31
-72.441597
12
-42.853214
22
-50.661156
32
-58.979000
13
-45.190990
23
-50.668934
33
-58.979000
0
3DFACE
8
0
70
0
10
-70.746063
20
-80.938469
30
-38.719952
11
-65.185471
21
-53.299500
31
-9.387181
12
-56.232388
22
-50.519684
32
-58.979000
13
-58.252430
23
-80.889191
33
-71.605057
0
3DFACE
8
0
70
0
10
-48.486301
20
-81.303703
30
-38.719952
11
-42.844643
21
-81.257721
31
-71.577110
12
-45.190990
22
-50.668934
32
-58.979000
13
-49.233860
23
-52.399815
33
-9.387181
0
3DFACE
8
0
70
0
10
-48.486301
20
-81.303703
30
-38.719952
11
-49.233860
21
-52.399815
31
-9.387181
12
-65.185471
22
-53.299500
32
-9.387181
13
-70.746063
23
-80.938469
33
-38.719952
0
3DFACE
8
0
70
0
10
-58.252430
20
-107.921051
30
-48.384312
11
-58.252430
21
-80.889191
31
-71.605057
12
-48.486301
22
-80.889191
32
-72.795517
13
-48.486301
23
-107.921051
33
-48.533119
0
3DFACE
8
0
70
0
10
-39.582390
20
-108.308510
30
-48.488884
11
-48.486301
21
-107.921051
31
-48.533119
12
-48.486301
22
-80.889191
32
-72.795517
13
-39.582390
23
-81.238548
33
-72.441597
0
3DFACE
8
0
70
0
10
-42.844643
20
-108.329781
30
-48.380817
11
-39.582390
21
-108.308510
31
-48.488884
12
-39.582390
22
-81.238548
32
-72.441597
13
-42.844643
23
-81.257721
33
-71.577110
0
3DFACE
8
0
70
0
10
-70.746063
20
-108.717216
30
-17.742218
11
-70.746063
21
-80.938469
31
-38.719952
12
-58.252430
22
-80.889191
32
-71.605057
13
-58.252430
23
-107.921051
33
-48.384312
0
3DFACE
8
0
70
0
10
-48.486301
20
-109.082443
30
-17.742218
11
-42.844643
21
-108.329781
31
-48.380817
12
-42.844643
22
-81.257721
32
-71.577110
13
-48.486301
23
-81.303703
33
-38.719952
0
3DFACE
8
0
70
0
10
-48.486301
20
-109.082443
30
-17.742218
11
-48.486301
21
-81.303703
31
-38.719952
12
-70.746063
22
-80.938469
32
-38.719952
13
-70.746063
23
-108.717216
33
-17.742218
0
3DFACE
8
0
70
0
10
-63.872204
20
-149.421570
30
-44.161194
11
-58.252430
21
-107.921051
31
-48.384312
12
-48.486301
22
-107.921051
32
-48.533119
13
-47.465099
23
-149.421570
33
-44.886009
0
3DFACE
8
0
70
0
10
-32.506531
20
-149.879730
30
-44.670525
11
-47.465099
21
-149.421570
31
-44.886009
12
-48.486301
22
-107.921051
32
-48.533119
13
-39.582390
23
-108.308510
33
-48.488884
0
3DFACE
8
0
70
0
10
-37.987122
20
-149.904907
30
-44.144180
11
-32.506531
21
-149.879730
31
-44.670525
12
-39.582390
22
-108.308510
32
-48.488884
13
-42.844643
23
-108.329781
33
-48.380817
0
3DFACE
8
0
70
0
10
-84.861511
20
-150.883957
30
25.593168
11
-70.746063
21
-108.717216
31
-17.742218
12
-58.252430
22
-107.921051
32
-48.384312
13
-63.872204
23
-149.421570
33
-44.161194
0
3DFACE
8
0
70
0
10
-47.465099
20
-151.223877
30
25.593168
11
-37.987122
21
-149.904907
31
-44.144180
12
-42.844643
22
-108.329781
32
-48.380817
13
-48.486301
23
-109.082443
33
-17.742218
0
3DFACE
8
0
70
0
10
-47.465099
20
-151.223877
30
25.593168
11
-48.486301
21
-109.082443
31
-17.742218
12
-70.746063
22
-108.717216
32
-17.742218
13
-84.861511
23
-150.883957
33
25.593168
0
3DFACE
8
0
70
0
10
-45.201004
20
-60.827942
30
114.470261
11
-56.582664
21
-60.827942
31
114.043236
12
-56.582664
22
56.233162
32
95.394882
13
-24.455627
23
7.897467
33
96.343826
0
3DFACE
8
0
70
0
10
-45.201004
20
-60.827942
30
114.470261
11
-24.455627
21
7.897467
31
96.343826
12
-25.202938
22
3.646437
32
131.127380
13
-42.853214
23
-60.827942
33
127.738014
0
3DFACE
8
0
70
0
10
-42.853214
20
-60.827942
30
127.738014
11
-25.202938
21
3.646437
31
131.127380
12
-56.126602
22
56.276432
32
144.829453
13
-49.233860
23
-60.827942
33
133.146744
0
3DFACE
8
0
70
0
10
-49.233860
20
-60.827942
30
133.146744
11
-56.126602
21
56.276432
31
144.829453
12
-56.582664
22
56.233162
32
95.394882
13
-56.582664
23
-60.827942
33
114.043236
0
3DFACE
8
0
70
0
10
-39.331406
20
-96.402977
30
97.834190
11
-57.314430
21
-96.402977
31
97.159485
12
-56.582664
22
-60.827942
32
114.043236
13
-45.201004
23
-60.827942
33
114.470261
0
3DFACE
8
0
70
0
10
-35.621899
20
-96.402977
30
118.797226
11
-39.331406
21
-96.402977
31
97.834190
12
-45.201004
22
-60.827942
32
114.470261
13
-42.853214
23
-60.827942
33
127.738014
0
3DFACE
8
0
70
0
10
-45.703323
20
-96.402977
30
127.343002
11
-35.621899
21
-96.402977
31
118.797226
12
-42.853214
22
-60.827942
32
127.738014
13
-49.233860
23
-60.827942
33
133.146744
0
3DFACE
8
0
70
0
10
-45.703323
20
-96.402977
30
127.343002
11
-49.233860
21
-60.827942
31
133.146744
12
-56.582664
22
-60.827942
32
114.043236
13
-57.314430
23
-96.402977
33
97.159485
0
3DFACE
8
0
70
0
10
-35.989368
20
-150.658356
30
97.673012
11
-65.841187
21
-150.658356
31
96.465302
12
-57.314430
22
-96.402977
32
97.159485
13
-39.331406
23
-96.402977
33
97.834190
0
3DFACE
8
0
70
0
10
-29.831587
20
-150.658356
30
135.196854
11
-35.989368
21
-150.658356
31
97.673012
12
-39.331406
22
-96.402977
32
97.834190
13
-35.621899
23
-96.402977
33
118.797226
0
3DFACE
8
0
70
0
10
-46.566746
20
-150.658356
30
150.493790
11
-29.831587
21
-150.658356
31
135.196854
12
-35.621899
22
-96.402977
32
118.797226
13
-45.703323
23
-96.402977
33
127.343002
0
3DFACE
8
0
70
0
10
-46.566746
20
-150.658356
30
150.493790
11
-45.703323
21
-96.402977
31
127.343002
12
-57.314430
22
-96.402977
32
97.159485
13
-65.841187
23
-150.658356
33
96.465302
0
3DFACE
8
0
70
0
10
0.819086
20
150.471069
30
247.960419
11
-34.531036
21
175.107697
31
245.999222
12
-22.035583
22
186.183273
32
227.452011
13
0.711480
23
145.896637
33
231.832809
0
3DFACE
8
0
70
0
10
-6.927563
20
167.763382
30
341.698914
11
1.322814
21
169.097626
31
341.978394
12
2.172469
22
200.743118
32
301.473602
13
-22.196218
23
196.313141
33
300.900574
0
3DFACE
8
0
70
0
10
-8.442440
20
157.418198
30
340.847107
11
-6.927563
21
167.763382
31
341.698914
12
-22.196218
22
196.313141
32
300.900574
13
-26.825764
23
161.428604
33
301.671722
0
3DFACE
8
0
70
0
10
0.977954
20
153.758667
30
340.863525
11
-8.442440
21
157.418198
31
340.847107
12
-26.825764
22
161.428604
32
301.671722
13
0.853091
23
149.432480
33
300.896545
0
3DFACE
8
0
70
0
10
-45.851208
20
251.729660
30
235.279587
11
-42.945835
21
241.425690
31
229.295654
12
-43.524467
22
235.780197
32
228.793945
13
-47.301529
23
235.212448
33
233.795532
0
3DFACE
8
0
70
0
10
-31.637905
20
201.507629
30
248.442810
11
-19.678677
21
203.458466
31
228.999405
12
-22.035583
22
186.183273
32
227.452011
13
-34.531036
23
175.107697
33
245.999222
0
3DFACE
8
0
70
0
10
-42.945835
20
241.425690
30
229.295654
11
-45.851208
21
251.729660
31
235.279587
12
-27.801544
22
234.607834
32
251.428177
13
-18.102734
23
214.735611
33
229.995697
0
3DFACE
8
0
70
0
10
-43.524467
20
235.780197
30
228.793945
11
-42.945835
21
241.425690
31
229.295654
12
-18.102734
22
214.735611
32
229.995697
13
-19.678677
23
203.458466
33
228.999405
0
3DFACE
8
0
70
0
10
-47.301529
20
235.212448
30
233.795532
11
-43.524467
21
235.780197
31
228.793945
12
-19.678677
22
203.458466
32
228.999405
13
-31.637905
23
201.507629
33
248.442810
0
3DFACE
8
0
70
0
10
-47.301529
20
235.212448
30
233.795532
11
-31.637905
21
201.507629
31
248.442810
12
-27.801544
22
234.607834
32
251.428177
13
-45.851208
23
251.729660
33
235.279587
0
3DFACE
8
0
70
0
10
-15.591852
20
227.325455
30
241.016525
11
-27.801544
21
234.607834
31
251.428177
12
3.670317
22
242.373306
32
252.268906
13
-3.812855
23
230.170074
33
241.331497
0
3DFACE
8
0
70
0
10
-5.013143
20
220.271347
30
229.968597
11
-3.812855
21
230.170074
31
241.331497
12
3.670317
22
242.373306
32
252.268906
13
2.610518
23
215.147690
33
222.272385
0
3DFACE
8
0
70
0
10
-12.215480
20
220.107681
30
232.903946
11
-5.013143
21
220.271347
31
229.968597
12
2.610518
22
215.147690
32
222.272385
13
-18.102734
23
214.735611
33
229.995697
0
3DFACE
8
0
70
0
10
-12.215480
20
220.107681
30
232.903946
11
-18.102734
21
214.735611
31
229.995697
12
-27.801544
22
234.607834
32
251.428177
13
-15.591852
23
227.325455
33
241.016525
0
3DFACE
8
0
70
0
10
-44.284416
20
304.623566
30
201.040680
11
-41.154095
21
301.242584
31
201.257080
12
-45.916920
22
299.463654
32
199.676910
13
-47.058498
23
301.911133
33
199.978882
0
3DFACE
8
0
70
0
10
-3.812855
20
230.170074
30
241.331497
11
-5.013143
21
220.271347
31
229.968597
12
-48.944447
22
252.712143
32
220.809143
13
-46.801716
23
262.039795
33
227.677322
0
3DFACE
8
0
70
0
10
-53.940681
20
254.792679
30
222.205292
11
-61.117325
21
265.142914
31
217.653214
12
-56.188885
22
261.220520
32
217.267624
13
-48.944447
23
252.712143
33
220.809143
0
3DFACE
8
0
70
0
10
-46.801716
20
262.039795
30
227.677322
11
-48.944447
21
252.712143
31
220.809143
12
-56.188885
22
261.220520
32
217.267624
13
-53.235531
23
269.750061
33
222.883224
0
3DFACE
8
0
70
0
10
-85.560402
20
272.044769
30
195.161362
11
-84.386787
21
276.686554
31
195.155838
12
-84.706024
22
275.334137
32
192.757736
13
-85.415817
23
270.703552
33
192.470352
0
3DFACE
8
0
70
0
10
-15.591852
20
227.325455
30
241.016525
11
-55.048969
21
261.757111
31
227.259506
12
-53.940681
22
254.792679
32
222.205292
13
-12.215480
23
220.107681
33
232.903946
0
3DFACE
8
0
70
0
10
-55.048969
20
261.757111
30
227.259506
11
-46.801716
21
262.039795
31
227.677322
12
-53.235531
22
269.750061
32
222.883224
13
-61.486771
23
272.250122
33
221.338409
0
3DFACE
8
0
70
0
10
-12.215480
20
220.107681
30
232.903946
11
-53.940681
21
254.792679
31
222.205292
12
-48.944447
22
252.712143
32
220.809143
13
-5.013143
23
220.271347
33
229.968597
0
3DFACE
8
0
70
0
10
-51.021561
20
288.922974
30
211.306458
11
-46.475613
21
287.640167
31
210.212769
12
-46.676235
22
290.687012
32
208.101273
13
-50.009281
23
295.776733
33
207.275925
0
3DFACE
8
0
70
0
10
-61.486771
20
272.250122
30
221.338409
11
-53.235531
21
269.750061
31
222.883224
12
-46.475613
22
287.640167
32
210.212769
13
-51.021561
23
288.922974
33
211.306458
0
3DFACE
8
0
70
0
10
-53.010040
20
285.893677
30
208.219421
11
-52.953850
21
292.809875
31
205.134048
12
-52.004124
22
288.977325
32
204.915771
13
-51.405010
23
284.487183
33
206.884705
0
3DFACE
8
0
70
0
10
-61.117325
20
265.142914
30
217.653214
11
-53.010040
21
285.893677
31
208.219421
12
-51.405010
22
284.487183
32
206.884705
13
-56.188885
23
261.220520
33
217.267624
0
3DFACE
8
0
70
0
10
-31.798746
20
287.758148
30
197.855881
11
-33.359615
21
289.837799
31
197.467896
12
-31.072514
22
291.621307
32
199.277740
13
-30.045847
23
290.066833
33
199.939926
0
3DFACE
8
0
70
0
10
-56.188885
20
261.220520
30
217.267624
11
-51.405010
21
284.487183
31
206.884705
12
-46.475613
22
287.640167
32
210.212769
13
-53.235531
23
269.750061
33
222.883224
0
3DFACE
8
0
70
0
10
-51.021561
20
288.922974
30
211.306458
11
-50.009281
21
295.776733
31
207.275925
12
-52.953850
22
292.809875
32
205.134048
13
-53.010040
23
285.893677
33
208.219421
0
3DFACE
8
0
70
0
10
-61.117325
20
265.142914
30
217.653214
11
-61.486771
21
272.250122
31
221.338409
12
-51.021561
22
288.922974
32
211.306458
13
-53.010040
23
285.893677
33
208.219421
0
3DFACE
8
0
70
0
10
-47.712242
20
299.333527
30
204.771240
11
-42.945251
21
297.828186
31
203.473083
12
-41.154095
22
301.242584
32
201.257080
13
-44.284416
23
304.623566
33
201.040680
0
3DFACE
8
0
70
0
10
-46.676235
20
290.687012
30
208.101273
11
-52.004124
21
288.977325
31
204.915771
12
-47.951302
22
295.967957
32
201.425415
13
-42.945251
23
297.828186
33
203.473083
0
3DFACE
8
0
70
0
10
-52.004124
20
288.977325
30
204.915771
11
-52.953850
21
292.809875
31
205.134048
12
-50.078209
22
297.256775
32
202.617294
13
-47.951302
23
295.967957
33
201.425415
0
3DFACE
8
0
70
0
10
-59.371368
20
293.902344
30
190.512177
11
-58.477455
21
295.088501
31
193.182770
12
-56.198528
22
297.387817
32
193.280457
13
-56.745552
23
296.688202
33
190.962357
0
3DFACE
8
0
70
0
10
-46.676235
20
290.687012
30
208.101273
11
-42.945251
21
297.828186
31
203.473083
12
-47.712242
22
299.333527
32
204.771240
13
-50.009281
23
295.776733
33
207.275925
0
3DFACE
8
0
70
0
10
-42.945251
20
297.828186
30
203.473083
11
-47.951302
21
295.967957
31
201.425415
12
-45.916920
22
299.463654
32
199.676910
13
-41.154095
23
301.242584
33
201.257080
0
3DFACE
8
0
70
0
10
-50.078209
20
297.256775
30
202.617294
11
-47.058498
21
301.911133
31
199.978882
12
-45.916920
22
299.463654
32
199.676910
13
-47.951302
23
295.967957
33
201.425415
0
3DFACE
8
0
70
0
10
-47.712242
20
299.333527
30
204.771240
11
-44.284416
21
304.623566
31
201.040680
12
-47.058498
22
301.911133
32
199.978882
13
-50.078209
23
297.256775
33
202.617294
0
3DFACE
8
0
70
0
10
-55.048969
20
261.757111
30
227.259506
11
-61.486771
21
272.250122
31
221.338409
12
-64.823807
22
269.521210
32
219.739182
13
-59.009956
23
260.088501
33
225.070190
0
3DFACE
8
0
70
0
10
-61.486771
20
272.250122
30
221.338409
11
-61.117325
21
265.142914
31
217.653214
12
-64.482025
22
263.121704
32
216.426117
13
-64.823807
23
269.521210
33
219.739182
0
3DFACE
8
0
70
0
10
-61.117325
20
265.142914
30
217.653214
11
-53.940681
21
254.792679
31
222.205292
12
-58.004948
22
253.815506
32
220.524628
13
-64.482025
23
263.121704
33
216.426117
0
3DFACE
8
0
70
0
10
-53.940681
20
254.792679
30
222.205292
11
-55.048969
21
261.757111
31
227.259506
12
-59.009956
22
260.088501
32
225.070190
13
-58.004948
23
253.815506
33
220.524628
0
3DFACE
8
0
70
0
10
-59.009956
20
260.088501
30
225.070190
11
-64.823807
21
269.521210
31
219.739182
12
-67.410896
22
266.852905
32
218.765686
13
-65.166222
23
256.611969
33
222.361725
0
3DFACE
8
0
70
0
10
-64.823807
20
269.521210
30
219.739182
11
-64.482025
21
263.121704
31
216.426117
12
-67.827415
22
261.810577
32
214.728683
13
-67.410896
23
266.852905
33
218.765686
0
3DFACE
8
0
70
0
10
-64.482025
20
263.121704
30
216.426117
11
-58.004948
21
253.815506
31
220.524628
12
-64.779274
22
251.717575
32
217.351578
13
-67.827415
23
261.810577
33
214.728683
0
3DFACE
8
0
70
0
10
-58.004948
20
253.815506
30
220.524628
11
-59.009956
21
260.088501
31
225.070190
12
-65.166222
22
256.611969
32
222.361725
13
-64.779274
23
251.717575
33
217.351578
0
3DFACE
8
0
70
0
10
-65.166222
20
256.611969
30
222.361725
11
-67.410896
21
266.852905
31
218.765686
12
-68.851303
22
266.680603
32
217.101135
13
-70.508148
23
256.857025
33
217.827713
0
3DFACE
8
0
70
0
10
-67.410896
20
266.852905
30
218.765686
11
-67.827415
21
261.810577
31
214.728683
12
-69.549446
22
263.491974
32
212.311264
13
-68.851303
23
266.680603
33
217.101135
0
3DFACE
8
0
70
0
10
-67.827415
20
261.810577
30
214.728683
11
-64.779274
21
251.717575
31
217.351578
12
-70.273529
22
253.731308
32
212.372711
13
-69.549446
23
263.491974
33
212.311264
0
3DFACE
8
0
70
0
10
-64.779274
20
251.717575
30
217.351578
11
-65.166222
21
256.611969
31
222.361725
12
-70.508148
22
256.857025
32
217.827713
13
-70.273529
23
253.731308
33
212.372711
0
3DFACE
8
0
70
0
10
-70.508148
20
256.857025
30
217.827713
11
-68.851303
21
266.680603
31
217.101135
12
-71.091888
22
267.592224
32
214.145706
13
-72.972824
23
258.804321
33
214.454193
0
3DFACE
8
0
70
0
10
-68.851303
20
266.680603
30
217.101135
11
-69.549446
21
263.491974
31
212.311264
12
-71.710030
22
264.900513
32
209.723083
13
-71.091888
23
267.592224
33
214.145706
0
3DFACE
8
0
70
0
10
-69.549446
20
263.491974
30
212.311264
11
-70.273529
21
253.731308
31
212.372711
12
-72.732880
22
256.152435
32
209.458694
13
-71.710030
23
264.900513
33
209.723083
0
3DFACE
8
0
70
0
10
-70.273529
20
253.731308
30
212.372711
11
-70.508148
21
256.857025
31
217.827713
12
-72.972824
22
258.804321
32
214.454193
13
-72.732880
23
256.152435
33
209.458694
0
3DFACE
8
0
70
0
10
-72.972824
20
258.804321
30
214.454193
11
-71.091888
21
267.592224
31
214.145706
12
-73.714211
22
268.181244
32
211.161987
13
-75.406410
23
260.269470
33
211.439407
0
3DFACE
8
0
70
0
10
-71.091888
20
267.592224
30
214.145706
11
-71.710030
21
264.900513
31
209.723083
12
-74.270042
22
265.757629
32
207.181488
13
-73.714211
23
268.181244
33
211.161987
0
3DFACE
8
0
70
0
10
-71.710030
20
264.900513
30
209.723083
11
-72.732880
21
256.152435
31
209.458694
12
-75.190186
22
257.881195
32
206.943375
13
-74.270042
23
265.757629
33
207.181488
0
3DFACE
8
0
70
0
10
-72.732880
20
256.152435
30
209.458694
11
-72.972824
21
258.804321
31
214.454193
12
-75.406410
22
260.269470
32
211.439407
13
-75.190186
23
257.881195
33
206.943375
0
3DFACE
8
0
70
0
10
-75.406410
20
260.269470
30
211.439407
11
-73.714211
21
268.181244
31
211.161987
12
-75.847267
22
269.098877
32
208.397964
13
-78.015686
23
262.153809
33
208.019211
0
3DFACE
8
0
70
0
10
-73.714211
20
268.181244
30
211.161987
11
-74.270042
21
265.757629
31
207.181488
12
-76.299797
22
267.239258
32
204.638153
13
-75.847267
23
269.098877
33
208.397964
0
3DFACE
8
0
70
0
10
-74.270042
20
265.757629
30
207.181488
11
-75.190186
21
257.881195
31
206.943375
12
-77.744507
22
260.292877
32
203.840195
13
-76.299797
23
267.239258
33
204.638153
0
3DFACE
8
0
70
0
10
-75.190186
20
257.881195
30
206.943375
11
-75.406410
21
260.269470
31
211.439407
12
-78.015686
22
262.153809
32
208.019211
13
-77.744507
23
260.292877
33
203.840195
0
3DFACE
8
0
70
0
10
-78.015686
20
262.153809
30
208.019211
11
-75.847267
21
269.098877
31
208.397964
12
-77.539566
22
270.310242
32
205.833466
13
-80.006363
23
264.306366
33
204.921143
0
3DFACE
8
0
70
0
10
-75.847267
20
269.098877
30
208.397964
11
-76.299797
21
267.239258
31
204.638153
12
-77.869720
22
268.925018
32
202.317917
13
-77.539566
23
270.310242
33
205.833466
0
3DFACE
8
0
70
0
10
-76.299797
20
267.239258
30
204.638153
11
-77.744507
21
260.292877
31
203.840195
12
-79.664978
22
262.885925
32
201.066956
13
-77.869720
23
268.925018
33
202.317917
0
3DFACE
8
0
70
0
10
-77.744507
20
260.292877
30
203.840195
11
-78.015686
21
262.153809
31
208.019211
12
-80.006363
22
264.306366
32
204.921143
13
-79.664978
23
262.885925
33
201.066956
0
3DFACE
8
0
70
0
10
-80.006363
20
264.306366
30
204.921143
11
-77.539566
21
270.310242
31
205.833466
12
-79.362587
22
272.580902
32
202.502609
13
-81.672493
23
267.231445
33
201.575958
0
3DFACE
8
0
70
0
10
-77.539566
20
270.310242
30
205.833466
11
-77.869720
21
268.925018
31
202.317917
12
-79.641891
22
271.386627
32
199.317307
13
-79.362587
23
272.580902
33
202.502609
0
3DFACE
8
0
70
0
10
-77.869720
20
268.925018
30
202.317917
11
-79.664978
21
262.885925
31
201.066956
12
-81.344208
22
265.998260
32
198.092789
13
-79.641891
23
271.386627
33
199.317307
0
3DFACE
8
0
70
0
10
-79.664978
20
262.885925
30
201.066956
11
-80.006363
21
264.306366
31
204.921143
12
-81.672493
22
267.231445
32
201.575958
13
-81.344208
23
265.998260
33
198.092789
0
3DFACE
8
0
70
0
10
-81.672493
20
267.231445
30
201.575958
11
-79.362587
21
272.580902
31
202.502609
12
-81.821449
22
275.187317
32
198.484909
13
-83.495071
23
270.155212
33
198.116608
0
3DFACE
8
0
70
0
10
-79.362587
20
272.580902
30
202.502609
11
-79.641891
21
271.386627
31
199.317307
12
-82.141075
22
273.876831
32
195.720657
13
-81.821449
23
275.187317
33
198.484909
0
3DFACE
8
0
70
0
10
-79.641891
20
271.386627
30
199.317307
11
-81.344208
21
265.998260
31
198.092789
12
-83.283272
22
268.837189
32
195.053177
13
-82.141075
23
273.876831
33
195.720657
0
3DFACE
8
0
70
0
10
-81.344208
20
265.998260
30
198.092789
11
-81.672493
21
267.231445
31
201.575958
12
-83.495071
22
270.155212
32
198.116608
13
-83.283272
23
268.837189
33
195.053177
0
3DFACE
8
0
70
0
10
-83.495071
20
270.155212
30
198.116608
11
-81.821449
21
275.187317
31
198.484909
12
-84.386787
22
276.686554
32
195.155838
13
-85.560402
23
272.044769
33
195.161362
0
3DFACE
8
0
70
0
10
-81.821449
20
275.187317
30
198.484909
11
-82.141075
21
273.876831
31
195.720657
12
-84.706024
22
275.334137
32
192.757736
13
-84.386787
23
276.686554
33
195.155838
0
3DFACE
8
0
70
0
10
-82.141075
20
273.876831
30
195.720657
11
-83.283272
21
268.837189
31
195.053177
12
-85.415817
22
270.703552
32
192.470352
13
-84.706024
23
275.334137
33
192.757736
0
3DFACE
8
0
70
0
10
-83.283272
20
268.837189
30
195.053177
11
-83.495071
21
270.155212
31
198.116608
12
-85.560402
22
272.044769
32
195.161362
13
-85.415817
23
270.703552
33
192.470352
0
3DFACE
8
0
70
0
10
-51.405010
20
284.487183
30
206.884705
11
-52.004124
21
288.977325
31
204.915771
12
-47.890579
22
287.037231
32
203.621567
13
-46.890232
23
282.992004
33
205.169693
0
3DFACE
8
0
70
0
10
-52.004124
20
288.977325
30
204.915771
11
-46.676235
21
290.687012
31
208.101273
12
-43.224739
22
288.923340
32
206.492371
13
-47.890579
23
287.037231
33
203.621567
0
3DFACE
8
0
70
0
10
-46.676235
20
290.687012
30
208.101273
11
-46.475613
21
287.640167
31
210.212769
12
-42.714508
22
286.122559
32
208.242050
13
-43.224739
23
288.923340
33
206.492371
0
3DFACE
8
0
70
0
10
-46.475613
20
287.640167
30
210.212769
11
-51.405010
21
284.487183
31
206.884705
12
-46.890232
22
282.992004
32
205.169693
13
-42.714508
23
286.122559
33
208.242050
0
3DFACE
8
0
70
0
10
-46.890232
20
282.992004
30
205.169693
11
-47.890579
21
287.037231
31
203.621567
12
-45.135044
22
286.466705
32
202.719025
13
-43.962196
23
282.853424
33
203.974854
0
3DFACE
8
0
70
0
10
-47.890579
20
287.037231
30
203.621567
11
-43.224739
21
288.923340
31
206.492371
12
-41.030521
22
288.363708
32
205.315002
13
-45.135044
23
286.466705
33
202.719025
0
3DFACE
8
0
70
0
10
-43.224739
20
288.923340
30
206.492371
11
-42.714508
21
286.122559
31
208.242050
12
-40.373436
22
285.829315
32
206.795563
13
-41.030521
23
288.363708
33
205.315002
0
3DFACE
8
0
70
0
10
-42.714508
20
286.122559
30
208.242050
11
-46.890232
21
282.992004
31
205.169693
12
-43.962196
22
282.853424
32
203.974854
13
-40.373436
23
285.829315
33
206.795563
0
3DFACE
8
0
70
0
10
-43.962196
20
282.853424
30
203.974854
11
-45.135044
21
286.466705
31
202.719025
12
-42.241199
22
285.313141
32
201.813736
13
-40.267437
23
282.360016
33
202.445282
0
3DFACE
8
0
70
0
10
-45.135044
20
286.466705
30
202.719025
11
-41.030521
21
288.363708
31
205.315002
12
-38.999084
22
287.653473
32
204.262863
13
-42.241199
23
285.313141
33
201.813736
0
3DFACE
8
0
70
0
10
-41.030521
20
288.363708
30
205.315002
11
-40.373436
21
285.829315
31
206.795563
12
-37.720493
22
285.471100
32
205.243378
13
-38.999084
23
287.653473
33
204.262863
0
3DFACE
8
0
70
0
10
-40.373436
20
285.829315
30
206.795563
11
-43.962196
21
282.853424
31
203.974854
12
-40.267437
22
282.360016
32
202.445282
13
-37.720493
23
285.471100
33
205.243378
0
3DFACE
8
0
70
0
10
-40.267437
20
282.360016
30
202.445282
11
-42.241199
21
285.313141
31
201.813736
12
-39.034447
22
286.538757
32
200.320007
13
-36.364349
23
284.673309
33
200.317276
0
3DFACE
8
0
70
0
10
-42.241199
20
285.313141
30
201.813736
11
-38.999084
21
287.653473
31
204.262863
12
-36.870922
22
289.167969
32
202.803574
13
-39.034447
23
286.538757
33
200.320007
0
3DFACE
8
0
70
0
10
-38.999084
20
287.653473
30
204.262863
11
-37.720493
21
285.471100
31
205.243378
12
-35.000938
22
287.650665
32
203.258942
13
-36.870922
23
289.167969
33
202.803574
0
3DFACE
8
0
70
0
10
-37.720493
20
285.471100
30
205.243378
11
-40.267437
21
282.360016
31
202.445282
12
-36.364349
22
284.673309
32
200.317276
13
-35.000938
23
287.650665
33
203.258942
0
3DFACE
8
0
70
0
10
-36.364349
20
284.673309
30
200.317276
11
-39.034447
21
286.538757
31
200.320007
12
-36.354443
22
288.852966
32
198.870316
13
-34.165363
23
286.913422
33
199.016434
0
3DFACE
8
0
70
0
10
-39.034447
20
286.538757
30
200.320007
11
-36.870922
21
289.167969
31
202.803574
12
-34.179642
22
291.106567
32
201.013824
13
-36.354443
23
288.852966
33
198.870316
0
3DFACE
8
0
70
0
10
-36.870922
20
289.167969
30
202.803574
11
-35.000938
21
287.650665
31
203.258942
12
-32.676075
22
289.584473
32
201.537720
13
-34.179642
23
291.106567
33
201.013824
0
3DFACE
8
0
70
0
10
-35.000938
20
287.650665
30
203.258942
11
-36.364349
21
284.673309
31
200.317276
12
-34.165363
22
286.913422
32
199.016434
13
-32.676075
23
289.584473
33
201.537720
0
3DFACE
8
0
70
0
10
-34.165363
20
286.913422
30
199.016434
11
-36.354443
21
288.852966
31
198.870316
12
-33.359615
22
289.837799
32
197.467896
13
-31.798746
23
287.758148
33
197.855881
0
3DFACE
8
0
70
0
10
-36.354443
20
288.852966
30
198.870316
11
-34.179642
21
291.106567
31
201.013824
12
-31.072514
22
291.621307
32
199.277740
13
-33.359615
23
289.837799
33
197.467896
0
3DFACE
8
0
70
0
10
-34.179642
20
291.106567
30
201.013824
11
-32.676075
21
289.584473
31
201.537720
12
-30.045847
22
290.066833
32
199.939926
13
-31.072514
23
291.621307
33
199.277740
0
3DFACE
8
0
70
0
10
-32.676075
20
289.584473
30
201.537720
11
-34.165363
21
286.913422
31
199.016434
12
-31.798746
22
287.758148
32
197.855881
13
-30.045847
23
290.066833
33
199.939926
0
3DFACE
8
0
70
0
10
-52.953850
20
292.809875
30
205.134048
11
-50.009281
21
295.776733
31
207.275925
12
-53.517735
22
294.852539
32
204.263870
13
-55.994583
23
292.349640
33
201.938324
0
3DFACE
8
0
70
0
10
-50.009281
20
295.776733
30
207.275925
11
-47.712242
21
299.333527
31
204.771240
12
-51.152020
22
298.105469
32
202.399338
13
-53.517735
23
294.852539
33
204.263870
0
3DFACE
8
0
70
0
10
-47.712242
20
299.333527
30
204.771240
11
-50.078209
21
297.256775
31
202.617294
12
-53.093220
22
296.389252
32
200.157501
13
-51.152020
23
298.105469
33
202.399338
0
3DFACE
8
0
70
0
10
-50.078209
20
297.256775
30
202.617294
11
-52.953850
21
292.809875
31
205.134048
12
-55.994583
22
292.349640
32
201.938324
13
-53.093220
23
296.389252
33
200.157501
0
3DFACE
8
0
70
0
10
-55.994583
20
292.349640
30
201.938324
11
-53.517735
21
294.852539
31
204.263870
12
-55.635365
22
294.452545
32
201.752213
13
-57.339714
23
292.605988
33
198.924667
0
3DFACE
8
0
70
0
10
-53.517735
20
294.852539
30
204.263870
11
-51.152020
21
298.105469
31
202.399338
12
-53.028564
22
297.391022
32
201.005600
13
-55.635365
23
294.452545
33
201.752213
0
3DFACE
8
0
70
0
10
-51.152020
20
298.105469
30
202.399338
11
-53.093220
21
296.389252
31
200.157501
12
-54.257057
22
296.203979
32
198.453262
13
-53.028564
23
297.391022
33
201.005600
0
3DFACE
8
0
70
0
10
-53.093220
20
296.389252
30
200.157501
11
-55.994583
21
292.349640
31
201.938324
12
-57.339714
22
292.605988
32
198.924667
13
-54.257057
23
296.203979
33
198.453262
0
3DFACE
8
0
70
0
10
-57.339714
20
292.605988
30
198.924667
11
-55.635365
21
294.452545
31
201.752213
12
-57.391197
22
294.670776
32
197.228683
13
-58.485939
23
293.291931
33
194.323914
0
3DFACE
8
0
70
0
10
-55.635365
20
294.452545
30
201.752213
11
-53.028564
21
297.391022
31
201.005600
12
-54.878616
22
297.247589
32
197.199615
13
-57.391197
23
294.670776
33
197.228683
0
3DFACE
8
0
70
0
10
-53.028564
20
297.391022
30
201.005600
11
-54.257057
21
296.203979
31
198.453262
12
-55.578114
22
296.419464
32
194.662582
13
-54.878616
23
297.247589
33
197.199615
0
3DFACE
8
0
70
0
10
-54.257057
20
296.203979
30
198.453262
11
-57.339714
21
292.605988
31
198.924667
12
-58.485939
22
293.291931
32
194.323914
13
-55.578114
23
296.419464
33
194.662582
0
3DFACE
8
0
70
0
10
-58.485939
20
293.291931
30
194.323914
11
-57.391197
21
294.670776
31
197.228683
12
-58.477455
22
295.088501
32
193.182770
13
-59.371368
23
293.902344
33
190.512177
0
3DFACE
8
0
70
0
10
-57.391197
20
294.670776
30
197.228683
11
-54.878616
21
297.247589
31
197.199615
12
-56.198528
22
297.387817
32
193.280457
13
-58.477455
23
295.088501
33
193.182770
0
3DFACE
8
0
70
0
10
-54.878616
20
297.247589
30
197.199615
11
-55.578114
21
296.419464
31
194.662582
12
-56.745552
22
296.688202
32
190.962357
13
-56.198528
23
297.387817
33
193.280457
0
3DFACE
8
0
70
0
10
-55.578114
20
296.419464
30
194.662582
11
-58.485939
21
293.291931
31
194.323914
12
-59.371368
22
293.902344
32
190.512177
13
-56.745552
23
296.688202
33
190.962357
0
3DFACE
8
0
70
0
10
11.589731
20
115.338615
30
-60.747269
11
42.554832
21
102.507462
31
-51.928528
12
-1.661200
22
105.985352
32
-67.927116
13
-1.627374
23
114.886421
33
-64.297401
0
3DFACE
8
0
70
0
10
11.589731
20
115.338615
30
-60.747269
11
9.558262
21
122.807739
31
-53.635345
12
37.014874
22
123.420372
32
-42.704388
13
42.554832
23
102.507462
33
-51.928528
0
3DFACE
8
0
70
0
10
9.558262
20
122.807739
30
-53.635345
11
-1.494107
21
124.085281
31
-55.598148
12
-1.433702
22
130.554459
32
-51.157143
13
37.014874
23
123.420372
33
-42.704388
0
3DFACE
8
0
70
0
10
-12.448480
20
122.746323
30
-53.195091
11
-39.453705
21
123.206871
31
-41.174618
12
-1.433702
22
130.554459
32
-51.157143
13
-1.494107
23
124.085281
33
-55.598148
0
3DFACE
8
0
70
0
10
-14.696537
20
115.265198
30
-60.221405
11
-45.175663
21
102.262497
31
-50.173458
12
-39.453705
22
123.206871
32
-41.174618
13
-12.448480
23
122.746323
33
-53.195091
0
3DFACE
8
0
70
0
10
-14.696537
20
115.265198
30
-60.221405
11
-1.627374
21
114.886421
31
-64.297401
12
-1.661200
22
105.985352
32
-67.927116
13
-45.175663
23
102.262497
33
-50.173458
0
3DFACE
8
0
70
0
10
-1.855029
20
111.349495
30
-76.521553
11
13.200092
21
118.178978
31
-74.074005
12
11.589731
22
115.338615
32
-60.747269
13
-1.627374
23
114.886421
33
-64.297401
0
3DFACE
8
0
70
0
10
13.200092
20
118.178978
30
-74.074005
11
10.976556
21
133.452301
31
-63.217014
12
9.558262
22
122.807739
32
-53.635345
13
11.589731
23
115.338615
33
-60.747269
0
3DFACE
8
0
70
0
10
10.976556
20
133.452301
30
-63.217014
11
-1.681085
21
140.100906
31
-61.541561
12
-1.494107
22
124.085281
32
-55.598148
13
9.558262
23
122.807739
33
-53.635345
0
3DFACE
8
0
70
0
10
-14.337736
20
133.381592
30
-62.710594
11
-12.448480
21
122.746323
31
-53.195091
12
-1.494107
22
124.085281
32
-55.598148
13
-1.681085
23
140.100906
33
-61.541561
0
3DFACE
8
0
70
0
10
-16.859341
20
118.095055
30
-73.472656
11
-14.696537
21
115.265198
31
-60.221405
12
-12.448480
22
122.746323
32
-53.195091
13
-14.337736
23
133.381592
33
-62.710594
0
3DFACE
8
0
70
0
10
-1.855029
20
111.349495
30
-76.521553
11
-1.627374
21
114.886421
31
-64.297401
12
-14.696537
22
115.265198
32
-60.221405
13
-16.859341
23
118.095055
33
-73.472656
0
3DFACE
8
0
70
0
10
-2.113071
20
131.618652
30
-85.120872
11
1.226103
21
132.798996
31
-84.916061
12
13.200092
22
118.178978
32
-74.074005
13
-1.855029
23
111.349495
33
-76.521553
0
3DFACE
8
0
70
0
10
1.226103
20
132.798996
30
-84.916061
11
0.752113
21
141.378937
31
-83.022217
12
10.976556
22
133.452301
32
-63.217014
13
13.200092
23
118.178978
33
-74.074005
0
3DFACE
8
0
70
0
10
0.752113
20
141.378937
30
-83.022217
11
-2.112425
21
142.178741
31
-82.801979
12
-1.681085
22
140.100906
32
-61.541561
13
10.976556
23
133.452301
33
-63.217014
0
3DFACE
8
0
70
0
10
-4.976488
20
141.362930
30
-82.907616
11
-14.337736
21
133.381592
31
-62.710594
12
-1.681085
22
140.100906
32
-61.541561
13
-2.112425
23
142.178741
33
-82.801979
0
3DFACE
8
0
70
0
10
-5.451527
20
132.780350
30
-84.782478
11
-16.859341
21
118.095055
31
-73.472656
12
-14.337736
22
133.381592
32
-62.710594
13
-4.976488
23
141.362930
33
-82.907616
0
3DFACE
8
0
70
0
10
-2.113071
20
131.618652
30
-85.120872
11
-1.855029
21
111.349495
31
-76.521553
12
-16.859341
22
118.095055
32
-73.472656
13
-5.451527
23
132.780350
33
-84.782478
0
3DFACE
8
0
70
0
10
3.175085
20
229.885925
30
274.940247
11
2.172469
21
200.743118
31
301.473602
12
26.223009
22
194.859207
32
300.794189
13
29.887970
23
222.219147
33
274.244598
0
3DFACE
8
0
70
0
10
0.972712
20
156.769867
30
268.069916
11
32.873589
21
171.090622
31
269.480743
12
29.016251
22
160.170593
32
301.604492
13
0.853091
23
149.432480
33
300.896545
0
3DFACE
8
0
70
0
10
3.175085
20
229.885925
30
274.940247
11
-24.039471
21
224.114456
31
274.410919
12
-22.196218
22
196.313141
32
300.900574
13
2.172469
23
200.743118
33
301.473602
0
3DFACE
8
0
70
0
10
0.972712
20
156.769867
30
268.069916
11
0.853091
21
149.432480
31
300.896545
12
-26.825764
22
161.428604
32
301.671722
13
-30.216375
23
172.623627
33
269.569580
0
3DFACE
8
0
70
0
10
34.424751
20
232.320847
30
251.216446
11
3.670317
21
242.373306
31
252.268906
12
3.175085
22
229.885925
32
274.940247
13
29.887970
23
222.219147
33
274.244598
0
3DFACE
8
0
70
0
10
34.424751
20
232.320847
30
251.216446
11
29.887970
21
222.219147
31
274.244598
12
32.873589
22
171.090622
32
269.480743
13
37.262543
23
173.361008
33
245.897842
0
3DFACE
8
0
70
0
10
37.262543
20
173.361008
30
245.897842
11
32.873589
21
171.090622
31
269.480743
12
0.972712
22
156.769867
32
268.069916
13
0.819086
23
150.471069
33
247.960419
0
3DFACE
8
0
70
0
10
-27.801544
20
234.607834
30
251.428177
11
-24.039471
21
224.114456
31
274.410919
12
3.175085
22
229.885925
32
274.940247
13
3.670317
23
242.373306
33
252.268906
0
3DFACE
8
0
70
0
10
-27.801544
20
234.607834
30
251.428177
11
-34.531036
21
175.107697
31
245.999222
12
-30.216375
22
172.623627
32
269.569580
13
-24.039471
23
224.114456
33
274.410919
0
3DFACE
8
0
70
0
10
-34.531036
20
175.107697
30
245.999222
11
0.819086
21
150.471069
31
247.960419
12
0.972712
22
156.769867
32
268.069916
13
-30.216375
23
172.623627
33
269.569580
0
3DFACE
8
0
70
0
10
14.702668
20
218.388092
30
292.744110
11
18.187870
21
221.716400
31
291.515686
12
14.881911
22
223.205444
32
291.651093
13
14.881911
23
223.205444
33
291.651093
0
3DFACE
8
0
70
0
10
14.702668
20
218.388092
30
292.744110
11
19.453831
21
218.362701
31
291.209595
12
18.187870
22
221.716400
32
291.515686
13
18.187870
23
221.716400
33
291.515686
0
3DFACE
8
0
70
0
10
17.941717
20
215.106674
30
290.911072
11
19.453831
21
218.362701
31
291.209595
12
14.702668
22
218.388092
32
292.744110
13
14.702668
23
218.388092
33
292.744110
0
3DFACE
8
0
70
0
10
14.537396
20
213.851425
30
290.794861
11
17.941717
21
215.106674
31
290.911072
12
14.702668
22
218.388092
32
292.744110
13
14.702668
23
218.388092
33
292.744110
0
3DFACE
8
0
70
0
10
14.537396
20
213.851425
30
290.794861
11
14.702668
21
218.388092
31
292.744110
12
11.231591
22
215.334488
32
290.930237
13
11.231591
23
215.334488
33
290.930237
0
3DFACE
8
0
70
0
10
11.231591
20
215.334488
30
290.930237
11
14.702668
21
218.388092
31
292.744110
12
9.960705
22
218.691299
32
291.237915
13
9.960705
23
218.691299
33
291.237915
0
3DFACE
8
0
70
0
10
14.702668
20
218.388092
30
292.744110
11
11.472666
21
221.953262
31
291.536560
12
9.960705
22
218.691299
32
291.237915
13
9.960705
23
218.691299
33
291.237915
0
3DFACE
8
0
70
0
10
14.702668
20
218.388092
30
292.744110
11
14.881911
21
223.205444
31
291.651093
12
11.472666
22
221.953262
32
291.536560
13
11.472666
23
221.953262
33
291.536560
0
3DFACE
8
0
70
0
10
18.187870
20
221.716400
30
291.515686
11
20.354383
21
224.048233
31
287.714630
12
15.005449
22
226.459976
32
287.933716
13
14.881911
23
223.205444
33
291.651093
0
3DFACE
8
0
70
0
10
19.453831
20
218.362701
30
291.209595
11
22.399412
21
218.624741
31
287.220551
12
20.354383
22
224.048233
32
287.714630
13
18.187870
23
221.716400
33
291.515686
0
3DFACE
8
0
70
0
10
19.951929
20
213.360931
30
286.737793
11
22.399412
21
218.624741
31
287.220551
12
19.453831
22
218.362701
32
291.209595
13
17.941717
23
215.106674
33
290.911072
0
3DFACE
8
0
70
0
10
14.445722
20
211.328934
30
286.549042
11
19.951929
21
213.360931
31
286.737793
12
17.941717
22
215.106674
32
290.911072
13
14.537396
23
213.851425
33
290.794861
0
3DFACE
8
0
70
0
10
14.445722
20
211.328934
30
286.549042
11
14.537396
21
213.851425
31
290.794861
12
11.231591
22
215.334488
32
290.930237
13
9.097157
23
213.724915
33
286.768005
0
3DFACE
8
0
70
0
10
9.097157
20
213.724915
30
286.768005
11
11.231591
21
215.334488
31
290.930237
12
9.960705
22
218.691299
32
291.237915
13
7.039210
23
219.156433
33
287.266388
0
3DFACE
8
0
70
0
10
9.960705
20
218.691299
30
291.237915
11
11.472666
21
221.953262
31
291.536560
12
9.486322
22
224.436035
32
287.749268
13
7.039210
23
219.156433
33
287.266388
0
3DFACE
8
0
70
0
10
11.472666
20
221.953262
30
291.536560
11
14.881911
21
223.205444
31
291.651093
12
15.005449
22
226.459976
32
287.933716
13
9.486322
23
224.436035
33
287.749268
0
3DFACE
8
0
70
0
10
20.354383
20
224.048233
30
287.714630
11
20.370304
21
224.495834
31
282.794434
12
15.021808
22
226.906891
32
283.013367
13
15.005449
23
226.459976
33
287.933716
0
3DFACE
8
0
70
0
10
22.399412
20
218.624741
30
287.220551
11
22.414299
21
219.074203
31
282.300690
12
20.370304
22
224.495834
32
282.794434
13
20.354383
23
224.048233
33
287.714630
0
3DFACE
8
0
70
0
10
19.951929
20
213.360931
30
286.737793
11
19.965815
21
213.812210
31
281.818237
12
22.414299
22
219.074203
32
282.300690
13
22.399412
23
218.624741
33
287.220551
0
3DFACE
8
0
70
0
10
14.445722
20
211.328934
30
286.549042
11
14.459202
21
211.780975
31
281.629639
12
19.965815
22
213.812210
32
281.818237
13
19.951929
23
213.360931
33
286.737793
0
3DFACE
8
0
70
0
10
14.445722
20
211.328934
30
286.549042
11
9.097157
21
213.724915
31
286.768005
12
9.111043
22
214.176178
32
281.848450
13
14.459202
23
211.780975
33
281.629639
0
3DFACE
8
0
70
0
10
9.097157
20
213.724915
30
286.768005
11
7.039210
21
219.156433
31
287.266388
12
7.054098
22
219.605881
32
282.346497
13
9.111043
23
214.176178
33
281.848450
0
3DFACE
8
0
70
0
10
7.039210
20
219.156433
30
287.266388
11
9.486322
21
224.436035
31
287.749268
12
9.502243
22
224.883667
32
282.829102
13
7.054098
23
219.605881
33
282.346497
0
3DFACE
8
0
70
0
10
9.486322
20
224.436035
30
287.749268
11
15.005449
21
226.459976
31
287.933716
12
15.021808
22
226.906891
32
283.013367
13
9.502243
23
224.883667
33
282.829102
0
3DFACE
8
0
70
0
10
18.228508
20
222.890121
30
278.634613
11
14.923248
21
224.377960
31
278.769836
12
15.021808
22
226.906891
32
283.013367
13
20.370304
23
224.495834
33
282.794434
0
3DFACE
8
0
70
0
10
22.414299
20
219.074203
30
282.300690
11
19.492807
21
219.539368
31
278.329132
12
18.228508
22
222.890121
32
278.634613
13
20.370304
23
224.495834
33
282.794434
0
3DFACE
8
0
70
0
10
19.965815
20
213.812210
30
281.818237
11
17.979061
21
216.286316
31
278.031128
12
19.492807
22
219.539368
32
278.329132
13
22.414299
23
219.074203
33
282.300690
0
3DFACE
8
0
70
0
10
14.459202
20
211.780975
30
281.629639
11
14.574076
21
215.032318
31
277.915100
12
17.979061
22
216.286316
32
278.031128
13
19.965815
23
213.812210
33
281.818237
0
3DFACE
8
0
70
0
10
14.459202
20
211.780975
30
281.629639
11
9.111043
21
214.176178
31
281.848450
12
11.268936
22
216.514069
32
278.050293
13
14.574076
23
215.032318
33
277.915100
0
3DFACE
8
0
70
0
10
9.111043
20
214.176178
30
281.848450
11
7.054098
21
219.605881
31
282.346497
12
9.999681
22
219.867966
32
278.357422
13
11.268936
23
216.514069
33
278.050293
0
3DFACE
8
0
70
0
10
7.054098
20
219.605881
30
282.346497
11
9.502243
21
224.883667
31
282.829102
12
11.513305
22
223.127014
32
278.655518
13
9.999681
23
219.867966
33
278.357422
0
3DFACE
8
0
70
0
10
11.513305
20
223.127014
30
278.655518
11
9.502243
21
224.883667
31
282.829102
12
15.021808
22
226.906891
32
283.013367
13
14.923248
23
224.377960
33
278.769836
0
3DFACE
8
0
70
0
10
14.750846
20
219.842545
30
276.822906
11
14.923248
21
224.377960
31
278.769836
12
18.228508
22
222.890121
32
278.634613
13
18.228508
23
222.890121
33
278.634613
0
3DFACE
8
0
70
0
10
19.492807
20
219.539368
30
278.329132
11
14.750846
21
219.842545
31
276.822906
12
18.228508
22
222.890121
32
278.634613
13
18.228508
23
222.890121
33
278.634613
0
3DFACE
8
0
70
0
10
17.979061
20
216.286316
30
278.031128
11
14.750846
21
219.842545
31
276.822906
12
19.492807
22
219.539368
32
278.329132
13
19.492807
23
219.539368
33
278.329132
0
3DFACE
8
0
70
0
10
14.574076
20
215.032318
30
277.915100
11
14.750846
21
219.842545
31
276.822906
12
17.979061
22
216.286316
32
278.031128
13
17.979061
23
216.286316
33
278.031128
0
3DFACE
8
0
70
0
10
14.574076
20
215.032318
30
277.915100
11
11.268936
21
216.514069
31
278.050293
12
14.750846
22
219.842545
32
276.822906
13
14.750846
23
219.842545
33
276.822906
0
3DFACE
8
0
70
0
10
11.268936
20
216.514069
30
278.050293
11
9.999681
21
219.867966
31
278.357422
12
14.750846
22
219.842545
32
276.822906
13
14.750846
23
219.842545
33
276.822906
0
3DFACE
8
0
70
0
10
9.999681
20
219.867966
30
278.357422
11
11.513305
21
223.127014
31
278.655518
12
14.750846
22
219.842545
32
276.822906
13
14.750846
23
219.842545
33
276.822906
0
3DFACE
8
0
70
0
10
14.750846
20
219.842545
30
276.822906
11
11.513305
21
223.127014
31
278.655518
12
14.923248
22
224.377960
32
278.769836
13
14.923248
23
224.377960
33
278.769836
0
3DFACE
8
0
70
0
10
0.468238
20
167.676926
30
357.701233
11
0.639495
21
174.775513
31
356.127228
12
-4.318341
22
172.886734
32
355.943298
13
-4.318341
23
172.886734
33
355.943298
0
3DFACE
8
0
70
0
10
0.468238
20
167.676926
30
357.701233
11
-4.318341
21
172.886734
31
355.943298
12
-6.465976
22
168.062912
32
355.480896
13
-6.465976
23
168.062912
33
355.480896
0
3DFACE
8
0
70
0
10
-4.544769
20
163.138718
30
355.010681
11
0.468238
21
167.676926
31
357.701233
12
-6.465976
22
168.062912
32
355.480896
13
-6.465976
23
168.062912
33
355.480896
0
3DFACE
8
0
70
0
10
0.313682
20
161.004639
30
354.810181
11
0.468238
21
167.676926
31
357.701233
12
-4.544769
22
163.138718
32
355.010681
13
-4.544769
23
163.138718
33
355.010681
0
3DFACE
8
0
70
0
10
0.313682
20
161.004639
30
354.810181
11
5.262627
21
162.901978
31
354.997040
12
0.468238
22
167.676926
32
357.701233
13
0.468238
23
167.676926
33
357.701233
0
3DFACE
8
0
70
0
10
5.262627
20
162.901978
30
354.997040
11
7.409302
21
167.713135
31
355.459778
12
0.468238
22
167.676926
32
357.701233
13
0.468238
23
167.676926
33
357.701233
0
3DFACE
8
0
70
0
10
0.468238
20
167.676926
30
357.701233
11
7.409302
21
167.713135
31
355.459778
12
5.496988
22
172.628845
32
355.927063
13
5.496988
23
172.628845
33
355.927063
0
3DFACE
8
0
70
0
10
0.468238
20
167.676926
30
357.701233
11
5.496988
21
172.628845
31
355.927063
12
0.639495
22
174.775513
32
356.127228
13
0.639495
23
174.775513
33
356.127228
0
3DFACE
8
0
70
0
10
-4.318341
20
172.886734
30
355.943298
11
0.639495
21
174.775513
31
356.127228
12
0.758981
22
179.582123
32
350.690399
13
-7.268095
23
176.531586
33
350.394531
0
3DFACE
8
0
70
0
10
-6.465976
20
168.062912
30
355.480896
11
-4.318341
21
172.886734
31
355.943298
12
-7.268095
22
176.531586
32
350.394531
13
-10.744700
23
168.723602
33
349.646881
0
3DFACE
8
0
70
0
10
-7.633045
20
160.755157
30
348.885071
11
-4.544769
21
163.138718
31
355.010681
12
-6.465976
22
168.062912
32
355.480896
13
-10.744700
23
168.723602
33
349.646881
0
3DFACE
8
0
70
0
10
0.228246
20
157.309875
30
348.560608
11
0.313682
21
161.004639
31
354.810181
12
-4.544769
22
163.138718
32
355.010681
13
-7.633045
23
160.755157
33
348.885071
0
3DFACE
8
0
70
0
10
0.228246
20
157.309875
30
348.560608
11
8.231963
21
160.382797
31
348.864288
12
5.262627
22
162.901978
32
354.997040
13
0.313682
23
161.004639
33
354.810181
0
3DFACE
8
0
70
0
10
8.231963
20
160.382797
30
348.864288
11
11.705971
21
168.157684
31
349.612732
12
7.409302
22
167.713135
32
355.459778
13
5.262627
23
162.901978
33
354.997040
0
3DFACE
8
0
70
0
10
7.409302
20
167.713135
30
355.459778
11
11.705971
21
168.157684
31
349.612732
12
8.617681
22
176.103912
32
350.366791
13
5.496988
23
172.628845
33
355.927063
0
3DFACE
8
0
70
0
10
5.496988
20
172.628845
30
355.927063
11
8.617681
21
176.103912
31
350.366791
12
0.758981
22
179.582123
32
350.690399
13
0.639495
23
174.775513
33
356.127228
0
3DFACE
8
0
70
0
10
-7.268095
20
176.531586
30
350.394531
11
0.758981
21
179.582123
31
350.690399
12
0.772429
22
180.259232
32
343.470398
13
-7.255361
23
177.210434
33
343.174774
0
3DFACE
8
0
70
0
10
-10.744700
20
168.723602
30
349.646881
11
-7.268095
21
176.531586
31
350.394531
12
-7.255361
22
177.210434
32
343.174774
13
-10.733611
23
169.406662
33
342.427673
0
3DFACE
8
0
70
0
10
-7.633045
20
160.755157
30
348.885071
11
-10.744700
21
168.723602
31
349.646881
12
-10.733611
22
169.406662
32
342.427673
13
-7.623492
23
161.442490
33
341.666382
0
3DFACE
8
0
70
0
10
0.228246
20
157.309875
30
348.560608
11
-7.633045
21
160.755157
31
348.885071
12
-7.623492
22
161.442490
32
341.666382
13
0.237196
23
157.998993
33
341.342072
0
3DFACE
8
0
70
0
10
0.228246
20
157.309875
30
348.560608
11
0.237196
21
157.998993
31
341.342072
12
8.241517
22
161.070129
32
341.645569
13
8.231963
23
160.382797
33
348.864288
0
3DFACE
8
0
70
0
10
8.231963
20
160.382797
30
348.864288
11
8.241517
21
161.070129
31
341.645569
12
11.717060
22
168.840744
32
342.393555
13
11.705971
23
168.157684
33
349.612732
0
3DFACE
8
0
70
0
10
11.705971
20
168.157684
30
349.612732
11
11.717060
21
168.840744
31
342.393555
12
8.630415
22
176.782761
32
343.147064
13
8.617681
23
176.103912
33
350.366791
0
3DFACE
8
0
70
0
10
8.617681
20
176.103912
30
350.366791
11
8.630415
21
176.782761
31
343.147064
12
0.772429
22
180.259232
32
343.470398
13
0.758981
23
179.582123
33
350.690399
0
3DFACE
8
0
70
0
10
-4.286682
20
174.668167
30
337.042175
11
-7.255361
21
177.210434
31
343.174774
12
0.772429
22
180.259232
32
343.470398
13
0.672275
23
176.554153
33
337.225708
0
3DFACE
8
0
70
0
10
-10.733611
20
169.406662
30
342.427673
11
-7.255361
21
177.210434
31
343.174774
12
-4.286682
22
174.668167
32
337.042175
13
-6.436945
23
169.851212
33
336.580627
0
3DFACE
8
0
70
0
10
-7.623492
20
161.442490
30
341.666382
11
-10.733611
21
169.406662
31
342.427673
12
-6.436945
22
169.851212
32
336.580627
13
-4.518257
23
164.933914
33
336.111267
0
3DFACE
8
0
70
0
10
0.237196
20
157.998993
30
341.342072
11
-7.623492
21
161.442490
31
341.666382
12
-4.518257
22
164.933914
32
336.111267
13
0.339183
23
162.802689
33
335.911133
0
3DFACE
8
0
70
0
10
0.237196
20
157.998993
30
341.342072
11
0.339183
21
162.802689
31
335.911133
12
5.289139
22
164.697205
32
336.097626
13
8.241517
23
161.070129
33
341.645569
0
3DFACE
8
0
70
0
10
8.241517
20
161.070129
30
341.645569
11
5.289139
21
164.697205
31
336.097626
12
7.438333
22
169.501434
32
336.559540
13
11.717060
23
168.840744
33
342.393555
0
3DFACE
8
0
70
0
10
11.717060
20
168.840744
30
342.393555
11
7.438333
21
169.501434
31
336.559540
12
5.528648
22
174.410309
32
337.025940
13
8.630415
23
176.782761
33
343.147064
0
3DFACE
8
0
70
0
10
5.528648
20
174.410309
30
337.025940
11
0.672275
21
176.554153
31
337.225708
12
0.772429
22
180.259232
32
343.470398
13
8.630415
23
176.782761
33
343.147064
0
3DFACE
8
0
70
0
10
0.504122
20
169.887421
30
334.339172
11
-4.286682
21
174.668167
31
337.042175
12
0.672275
22
176.554153
32
337.225708
13
0.672275
23
176.554153
33
337.225708
0
3DFACE
8
0
70
0
10
-6.436945
20
169.851212
30
336.580627
11
-4.286682
21
174.668167
31
337.042175
12
0.504122
22
169.887421
32
334.339172
13
0.504122
23
169.887421
33
334.339172
0
3DFACE
8
0
70
0
10
-4.518257
20
164.933914
30
336.111267
11
-6.436945
21
169.851212
31
336.580627
12
0.504122
22
169.887421
32
334.339172
13
0.504122
23
169.887421
33
334.339172
0
3DFACE
8
0
70
0
10
0.339183
20
162.802689
30
335.911133
11
-4.518257
21
164.933914
31
336.111267
12
0.504122
22
169.887421
32
334.339172
13
0.504122
23
169.887421
33
334.339172
0
3DFACE
8
0
70
0
10
0.339183
20
162.802689
30
335.911133
11
0.504122
21
169.887421
31
334.339172
12
5.289139
22
164.697205
32
336.097626
13
5.289139
23
164.697205
33
336.097626
0
3DFACE
8
0
70
0
10
5.289139
20
164.697205
30
336.097626
11
0.504122
21
169.887421
31
334.339172
12
7.438333
22
169.501434
32
336.559540
13
7.438333
23
169.501434
33
336.559540
0
3DFACE
8
0
70
0
10
7.438333
20
169.501434
30
336.559540
11
0.504122
21
169.887421
31
334.339172
12
5.528648
22
174.410309
32
337.025940
13
5.528648
23
174.410309
33
337.025940
0
3DFACE
8
0
70
0
10
0.504122
20
169.887421
30
334.339172
11
0.672275
21
176.554153
31
337.225708
12
5.528648
22
174.410309
32
337.025940
13
5.528648
23
174.410309
33
337.025940
0
3DFACE
8
0
70
0
10
-9.160608
20
219.214111
30
292.815308
11
-8.994304
21
224.054214
31
291.726593
12
-12.399722
22
222.795410
32
291.610779
13
-12.399722
23
222.795410
33
291.610779
0
3DFACE
8
0
70
0
10
-9.160608
20
219.214111
30
292.815308
11
-12.399722
21
222.795410
31
291.610779
12
-13.902570
22
219.517288
32
291.309113
13
-13.902570
23
219.517288
33
291.309113
0
3DFACE
8
0
70
0
10
-12.622748
20
216.144257
30
290.998444
11
-9.160608
21
219.214111
31
292.815308
12
-13.902570
22
219.517288
32
291.309113
13
-13.902570
23
219.517288
33
291.309113
0
3DFACE
8
0
70
0
10
-9.313294
20
214.654449
30
290.861847
11
-9.160608
21
219.214111
31
292.815308
12
-12.622748
22
216.144257
32
290.998444
13
-12.622748
23
216.144257
33
290.998444
0
3DFACE
8
0
70
0
10
-9.313294
20
214.654449
30
290.861847
11
-5.912623
21
215.916473
31
290.979279
12
-9.160608
22
219.214111
32
292.815308
13
-9.160608
23
219.214111
33
292.815308
0
3DFACE
8
0
70
0
10
-5.912623
20
215.916473
30
290.979279
11
-4.409444
21
219.188690
31
291.280792
12
-9.160608
22
219.214111
32
292.815308
13
-9.160608
23
219.214111
33
292.815308
0
3DFACE
8
0
70
0
10
-9.160608
20
219.214111
30
292.815308
11
-4.409444
21
219.188690
31
291.280792
12
-5.684519
22
222.558517
32
291.589905
13
-5.684519
23
222.558517
33
291.589905
0
3DFACE
8
0
70
0
10
-9.160608
20
219.214111
30
292.815308
11
-5.684519
21
222.558517
31
291.589905
12
-8.994304
22
224.054214
32
291.726593
13
-8.994304
23
224.054214
33
291.726593
0
3DFACE
8
0
70
0
10
-12.399722
20
222.795410
30
291.610779
11
-8.994304
21
224.054214
31
291.726593
12
-8.878940
22
227.322723
32
288.011932
13
-14.391785
23
225.288086
33
287.825409
0
3DFACE
8
0
70
0
10
-13.902570
20
219.517288
30
291.309113
11
-12.399722
21
222.795410
31
291.610779
12
-14.391785
22
225.288086
32
287.825409
13
-16.824062
23
219.982452
33
287.337555
0
3DFACE
8
0
70
0
10
-14.751747
20
214.524597
30
286.834412
11
-12.622748
21
216.144257
31
290.998444
12
-13.902570
22
219.517288
32
291.309113
13
-16.824062
23
219.982452
33
287.337555
0
3DFACE
8
0
70
0
10
-9.397370
20
212.117661
30
286.613495
11
-9.313294
21
214.654449
31
290.861847
12
-12.622748
22
216.144257
32
290.998444
13
-14.751747
23
214.524597
33
286.834412
0
3DFACE
8
0
70
0
10
-9.397370
20
212.117661
30
286.613495
11
-3.896976
21
214.160614
31
286.804199
12
-5.912623
22
215.916473
32
290.979279
13
-9.313294
23
214.654449
33
290.861847
0
3DFACE
8
0
70
0
10
-3.896976
20
214.160614
30
286.804199
11
-1.463861
21
219.450760
31
287.291718
12
-4.409444
22
219.188690
32
291.280792
13
-5.912623
23
215.916473
33
290.979279
0
3DFACE
8
0
70
0
10
-4.409444
20
219.188690
30
291.280792
11
-1.463861
21
219.450760
31
287.291718
12
-3.523723
22
224.900253
32
287.790741
13
-5.684519
23
222.558517
33
291.589905
0
3DFACE
8
0
70
0
10
-5.684519
20
222.558517
30
291.589905
11
-3.523723
21
224.900253
31
287.790741
12
-8.878940
22
227.322723
32
288.011932
13
-8.994304
23
224.054214
33
291.726593
0
3DFACE
8
0
70
0
10
-14.391785
20
225.288086
30
287.825409
11
-8.878940
21
227.322723
31
288.011932
12
-8.862579
22
227.769608
32
283.091553
13
-14.375864
23
225.735687
33
282.905212
0
3DFACE
8
0
70
0
10
-16.824062
20
219.982452
30
287.337555
11
-14.391785
21
225.288086
31
287.825409
12
-14.375864
22
225.735687
32
282.905212
13
-16.809175
23
220.431870
33
282.417694
0
3DFACE
8
0
70
0
10
-14.751747
20
214.524597
30
286.834412
11
-16.824062
21
219.982452
31
287.337555
12
-16.809175
22
220.431870
32
282.417694
13
-14.737861
23
214.975891
33
281.914856
0
3DFACE
8
0
70
0
10
-9.397370
20
212.117661
30
286.613495
11
-14.751747
21
214.524597
31
286.834412
12
-14.737861
22
214.975891
32
281.914856
13
-9.383891
23
212.569702
33
281.694092
0
3DFACE
8
0
70
0
10
-9.397370
20
212.117661
30
286.613495
11
-9.383891
21
212.569702
31
281.694092
12
-3.883091
22
214.611893
32
281.884644
13
-3.896976
23
214.160614
33
286.804199
0
3DFACE
8
0
70
0
10
-3.896976
20
214.160614
30
286.804199
11
-3.883091
21
214.611893
31
281.884644
12
-1.448974
22
219.900192
32
282.371857
13
-1.463861
23
219.450760
33
287.291718
0
3DFACE
8
0
70
0
10
-1.463861
20
219.450760
30
287.291718
11
-1.448974
21
219.900192
31
282.371857
12
-3.507802
22
225.347916
32
282.870575
13
-3.523723
23
224.900253
33
287.790741
0
3DFACE
8
0
70
0
10
-3.523723
20
224.900253
30
287.790741
11
-3.507802
21
225.347916
31
282.870575
12
-8.862579
22
227.769608
32
283.091553
13
-8.878940
23
227.322723
33
288.011932
0
3DFACE
8
0
70
0
10
-12.359083
20
223.969131
30
278.729706
11
-14.375864
21
225.735687
31
282.905212
12
-8.862579
22
227.769608
32
283.091553
13
-8.952967
23
225.226730
33
278.845306
0
3DFACE
8
0
70
0
10
-16.809175
20
220.431870
30
282.417694
11
-14.375864
21
225.735687
31
282.905212
12
-12.359083
22
223.969131
32
278.729706
13
-13.863594
23
220.693985
33
278.428619
0
3DFACE
8
0
70
0
10
-14.737861
20
214.975891
30
281.914856
11
-16.809175
21
220.431870
31
282.417694
12
-13.863594
22
220.693985
32
278.428619
13
-12.585403
23
217.323868
33
278.118500
0
3DFACE
8
0
70
0
10
-9.383891
20
212.569702
30
281.694092
11
-14.737861
21
214.975891
31
281.914856
12
-12.585403
22
217.323868
32
278.118500
13
-9.276616
23
215.835312
33
277.982086
0
3DFACE
8
0
70
0
10
-9.383891
20
212.569702
30
281.694092
11
-9.276616
21
215.835312
31
277.982086
12
-5.875278
22
217.096085
32
278.099335
13
-3.883091
23
214.611893
33
281.884644
0
3DFACE
8
0
70
0
10
-3.883091
20
214.611893
30
281.884644
11
-5.875278
21
217.096085
31
278.099335
12
-4.370468
22
220.365387
32
278.400299
13
-1.448974
23
219.900192
33
282.371857
0
3DFACE
8
0
70
0
10
-1.448974
20
219.900192
30
282.371857
11
-4.370468
21
220.365387
31
278.400299
12
-5.643880
22
223.732239
32
278.708832
13
-3.507802
23
225.347916
33
282.870575
0
3DFACE
8
0
70
0
10
-5.643880
20
223.732239
30
278.708832
11
-8.952967
21
225.226730
31
278.845306
12
-8.862579
22
227.769608
32
283.091553
13
-3.507802
23
225.347916
33
282.870575
0
3DFACE
8
0
70
0
10
-9.112432
20
220.668533
30
276.894104
11
-12.359083
21
223.969131
31
278.729706
12
-8.952967
22
225.226730
32
278.845306
13
-8.952967
23
225.226730
33
278.845306
0
3DFACE
8
0
70
0
10
-13.863594
20
220.693985
30
278.428619
11
-12.359083
21
223.969131
31
278.729706
12
-9.112432
22
220.668533
32
276.894104
13
-9.112432
23
220.668533
33
276.894104
0
3DFACE
8
0
70
0
10
-12.585403
20
217.323868
30
278.118500
11
-13.863594
21
220.693985
31
278.428619
12
-9.112432
22
220.668533
32
276.894104
13
-9.112432
23
220.668533
33
276.894104
0
3DFACE
8
0
70
0
10
-9.276616
20
215.835312
30
277.982086
11
-12.585403
21
217.323868
31
278.118500
12
-9.112432
22
220.668533
32
276.894104
13
-9.112432
23
220.668533
33
276.894104
0
3DFACE
8
0
70
0
10
-9.276616
20
215.835312
30
277.982086
11
-9.112432
21
220.668533
31
276.894104
12
-5.875278
22
217.096085
32
278.099335
13
-5.875278
23
217.096085
33
278.099335
0
3DFACE
8
0
70
0
10
-5.875278
20
217.096085
30
278.099335
11
-9.112432
21
220.668533
31
276.894104
12
-4.370468
22
220.365387
32
278.400299
13
-4.370468
23
220.365387
33
278.400299
0
3DFACE
8
0
70
0
10
-4.370468
20
220.365387
30
278.400299
11
-9.112432
21
220.668533
31
276.894104
12
-5.643880
22
223.732239
32
278.708832
13
-5.643880
23
223.732239
33
278.708832
0
3DFACE
8
0
70
0
10
-9.112432
20
220.668533
30
276.894104
11
-8.952967
21
225.226730
31
278.845306
12
-5.643880
22
223.732239
32
278.708832
13
-5.643880
23
223.732239
33
278.708832
0
3DFACE
8
0
70
0
10
29.016251
20
160.170593
30
301.604492
11
32.873589
21
171.090622
31
269.480743
12
29.887970
22
222.219147
32
274.244598
13
26.223009
23
194.859207
33
300.794189
0
3DFACE
8
0
70
0
10
-26.825764
20
161.428604
30
301.671722
11
-22.196218
21
196.313141
31
300.900574
12
-24.039471
22
224.114456
32
274.410919
13
-30.216375
23
172.623627
33
269.569580
0
3DFACE
8
0
70
0
10
49.233860
20
-50.519684
30
-58.979000
11
46.890556
21
6.591644
31
-58.371025
12
53.402954
22
4.552007
32
-53.994049
13
56.232388
23
-50.519684
33
-58.979000
0
3DFACE
8
0
70
0
10
46.890556
20
6.591644
30
-58.371025
11
49.233860
21
-50.519684
31
-58.979000
12
42.853214
22
-50.661156
32
-58.979000
13
39.944466
23
4.889777
33
-54.718903
0
3DFACE
8
0
70
0
10
42.853214
20
-50.661156
30
-58.979000
11
45.190990
21
-50.668934
31
-58.979000
12
41.934017
22
3.410043
32
-51.543468
13
39.944466
23
4.889777
33
-54.718903
0
3DFACE
8
0
70
0
10
53.402954
20
4.552007
30
-53.994049
11
65.185471
21
-5.334409
31
3.269931
12
65.185471
22
-53.299500
32
-9.387181
13
56.232388
23
-50.519684
33
-58.979000
0
3DFACE
8
0
70
0
10
45.190990
20
-50.668934
30
-58.979000
11
49.233860
21
-52.399815
31
-9.387181
12
38.703163
22
-6.252206
32
8.044635
13
41.934017
23
3.410043
33
-51.543468
0
3DFACE
8
0
70
0
10
65.673569
20
75.903557
30
23.049866
11
28.488487
21
38.510521
31
24.953327
12
38.703163
22
-6.252206
32
8.044635
13
65.185471
23
-5.334409
33
3.269931
0
3DFACE
8
0
70
0
10
-46.890556
20
6.591644
30
-58.371025
11
-39.944466
21
4.889777
31
-54.718903
12
-42.853214
22
-50.661156
32
-58.979000
13
-49.233860
23
-50.519684
33
-58.979000
0
3DFACE
8
0
70
0
10
-39.944466
20
4.889777
30
-54.718903
11
-39.207138
21
53.456642
31
-43.865986
12
-40.182980
22
32.623844
32
-24.333324
13
-41.934017
23
3.410043
33
-51.543468
0
3DFACE
8
0
70
0
10
-53.402954
20
4.552007
30
-53.994049
11
-56.232388
21
-50.519684
31
-58.979000
12
-65.185471
22
-53.299500
32
-9.387181
13
-65.185471
23
-5.334409
33
3.269931
0
3DFACE
8
0
70
0
10
-45.190990
20
-50.668934
30
-58.979000
11
-41.934017
21
3.410043
31
-51.543468
12
-38.703163
22
-6.252206
32
8.044635
13
-49.233860
23
-52.399815
33
-9.387181
0
3DFACE
8
0
70
0
10
-65.185471
20
-5.334409
30
3.269931
11
-65.185471
21
-53.299500
31
-9.387181
12
-49.233860
22
-52.399815
32
-9.387181
13
-38.703163
23
-6.252206
33
8.044635
0
3DFACE
8
0
70
0
10
42.554832
20
102.507462
30
-51.928528
11
73.600403
21
88.050087
31
-25.613359
12
53.402954
22
4.552007
32
-53.994049
13
46.890556
23
6.591644
33
-58.371025
0
3DFACE
8
0
70
0
10
42.554832
20
102.507462
30
-51.928528
11
46.890556
21
6.591644
31
-58.371025
12
39.944466
22
4.889777
32
-54.718903
13
37.261444
23
53.670166
33
-45.395756
0
3DFACE
8
0
70
0
10
37.261444
20
53.670166
30
-45.395756
11
39.944466
21
4.889777
31
-54.718903
12
41.934017
22
3.410043
32
-51.543468
13
40.182980
23
32.623844
33
-24.333324
0
3DFACE
8
0
70
0
10
65.673569
20
75.903557
30
23.049866
11
65.185471
21
-5.334409
31
3.269931
12
53.402954
22
4.552007
32
-53.994049
13
73.600403
23
88.050087
33
-25.613359
0
3DFACE
8
0
70
0
10
38.703163
20
-6.252206
30
8.044635
11
28.488487
21
38.510521
31
24.953327
12
40.182980
22
32.623844
32
-24.333324
13
41.934017
23
3.410043
33
-51.543468
0
3DFACE
8
0
70
0
10
65.185471
20
-5.334409
30
3.269931
11
38.703163
21
-6.252206
31
8.044635
12
49.233860
22
-52.399815
32
-9.387181
13
65.185471
23
-53.299500
33
-9.387181
0
3DFACE
8
0
70
0
10
-45.175663
20
102.262497
30
-50.173458
11
-46.890556
21
6.591644
31
-58.371025
12
-53.402954
22
4.552007
32
-53.994049
13
-75.026260
23
87.635071
33
-22.640049
0
3DFACE
8
0
70
0
10
-49.233860
20
-50.519684
30
-58.979000
11
-56.232388
21
-50.519684
31
-58.979000
12
-53.402954
22
4.552007
32
-53.994049
13
-46.890556
23
6.591644
33
-58.371025
0
3DFACE
8
0
70
0
10
-45.175663
20
102.262497
30
-50.173458
11
-39.207138
21
53.456642
31
-43.865986
12
-39.944466
22
4.889777
32
-54.718903
13
-46.890556
23
6.591644
33
-58.371025
0
3DFACE
8
0
70
0
10
-42.853214
20
-50.661156
30
-58.979000
11
-39.944466
21
4.889777
31
-54.718903
12
-41.934017
22
3.410043
32
-51.543468
13
-45.190990
23
-50.668934
33
-58.979000
0
3DFACE
8
0
70
0
10
-65.068565
20
75.538498
30
25.665392
11
-75.026260
21
87.635071
31
-22.640049
12
-53.402954
22
4.552007
32
-53.994049
13
-65.185471
23
-5.334409
33
3.269931
0
3DFACE
8
0
70
0
10
-38.703163
20
-6.252206
30
8.044635
11
-41.934017
21
3.410043
31
-51.543468
12
-40.182980
22
32.623844
32
-24.333324
13
-28.488487
23
38.510521
33
24.953327
0
3DFACE
8
0
70
0
10
-65.068565
20
75.538498
30
25.665392
11
-65.185471
21
-5.334409
31
3.269931
12
-38.703163
22
-6.252206
32
8.044635
13
-28.488487
23
38.510521
33
24.953327
0
3DFACE
8
0
70
0
10
33.064152
20
168.165237
30
183.983902
11
0.963670
21
175.045944
31
181.504395
12
2.610518
22
215.147690
32
222.272385
13
23.256260
23
213.391647
33
229.888107
0
3DFACE
8
0
70
0
10
33.064152
20
168.165237
30
183.983902
11
23.256260
21
213.391647
31
229.888107
12
25.349224
22
184.931183
32
227.372543
13
35.318336
23
144.799866
33
193.340118
0
3DFACE
8
0
70
0
10
35.318336
20
144.799866
30
193.340118
11
25.349224
21
184.931183
31
227.372543
12
0.711480
22
145.896637
32
231.832809
13
0.280500
23
123.242920
33
207.266983
0
3DFACE
8
0
70
0
10
-31.358925
20
169.380417
30
184.037735
11
-18.102734
21
214.735611
31
229.995697
12
2.610518
22
215.147690
32
222.272385
13
0.963670
23
175.045944
33
181.504395
0
3DFACE
8
0
70
0
10
-31.358925
20
169.380417
30
184.037735
11
-34.317806
21
145.820160
31
193.374924
12
-22.035583
22
186.183273
32
227.452011
13
-18.102734
23
214.735611
33
229.995697
0
3DFACE
8
0
70
0
10
-34.317806
20
145.820160
30
193.374924
11
0.280500
21
123.242920
31
207.266983
12
0.711480
22
145.896637
32
231.832809
13
-22.035583
23
186.183273
33
227.452011
0
3DFACE
8
0
70
0
10
56.126602
20
56.276432
30
144.829453
11
42.853214
21
116.135384
31
125.827713
12
38.746387
22
150.536850
32
160.125549
13
43.284348
23
114.809265
33
166.656052
0
3DFACE
8
0
70
0
10
0.463974
20
157.130630
30
157.710541
11
-37.966614
21
151.514755
31
160.154495
12
-31.358925
22
169.380417
32
184.037735
13
0.963670
23
175.045944
33
181.504395
0
3DFACE
8
0
70
0
10
-56.126602
20
56.276432
30
144.829453
11
-43.149807
21
115.273705
31
166.661789
12
-37.966614
22
151.514755
32
160.154495
13
-42.853214
23
116.135384
33
125.827713
0
3DFACE
8
0
70
0
10
-56.126602
20
56.276432
30
144.829453
11
0.000000
21
52.842552
31
185.999725
12
0.000000
22
81.971802
32
187.395782
13
-43.149807
23
115.273705
33
166.661789
0
3DFACE
8
0
70
0
10
0.463974
20
157.130630
30
157.710541
11
0.963670
21
175.045944
31
181.504395
12
33.064152
22
168.165237
32
183.983902
13
38.746387
23
150.536850
33
160.125549
0
3DFACE
8
0
70
0
10
42.853214
20
116.135384
30
125.827713
11
0.000000
21
132.331863
31
127.474380
12
0.463974
22
157.130630
32
157.710541
13
38.746387
23
150.536850
33
160.125549
0
3DFACE
8
0
70
0
10
38.746387
20
150.536850
30
160.125549
11
33.064152
21
168.165237
31
183.983902
12
35.318336
22
144.799866
32
193.340118
13
43.284348
23
114.809265
33
166.656052
0
3DFACE
8
0
70
0
10
43.284348
20
114.809265
30
166.656052
11
35.318336
21
144.799866
31
193.340118
12
0.280500
22
123.242920
32
207.266983
13
0.000000
23
81.971802
33
187.395782
0
3DFACE
8
0
70
0
10
56.126602
20
56.276432
30
144.829453
11
43.284348
21
114.809265
31
166.656052
12
0.000000
22
81.971802
32
187.395782
13
0.000000
23
52.842552
33
185.999725
0
3DFACE
8
0
70
0
10
-42.853214
20
116.135384
30
125.827713
11
-37.966614
21
151.514755
31
160.154495
12
0.463974
22
157.130630
32
157.710541
13
0.000000
23
132.331863
33
127.474380
0
3DFACE
8
0
70
0
10
-43.149807
20
115.273705
30
166.661789
11
-34.317806
21
145.820160
31
193.374924
12
-31.358925
22
169.380417
32
184.037735
13
-37.966614
23
151.514755
33
160.154495
0
3DFACE
8
0
70
0
10
-43.149807
20
115.273705
30
166.661789
11
0.000000
21
81.971802
31
187.395782
12
0.280500
22
123.242920
32
207.266983
13
-34.317806
23
145.820160
33
193.374924
0
3DFACE
8
0
70
0
10
10.155419
20
229.668854
30
241.286392
11
21.684187
21
226.011978
31
240.900894
12
63.869747
22
256.858917
32
226.736649
13
55.678013
23
257.806549
33
227.223770
0
3DFACE
8
0
70
0
10
-55.048969
20
261.757111
30
227.259506
11
-15.591852
21
227.325455
31
241.016525
12
-3.812855
22
230.170074
32
241.331497
13
-46.801716
23
262.039795
33
227.677322
0
ENDSEC
0
EOF
