0
SECTION
2
HEADER
999
DXF File Generated by LightWave 3D(TM)
0
ENDSEC
0
SECTION
2
TABLES
0
ENDSEC
0
SECTION
2
BLOCKS
0
ENDSEC
0
SECTION
2
ENTITIES
0
3DFACE
8
0
70
0
10
0.000000
20
-3.217420
30
144.894592
11
25.214273
21
3.496203
31
131.186356
12
56.151844
22
56.075397
32
144.894592
13
0.000000
23
52.644833
33
186.083374
0
3DFACE
8
0
70
0
10
0.851935
20
150.204788
30
344.175934
11
10.408467
21
153.458786
31
344.175293
12
9.332530
22
163.796799
32
345.139099
13
1.152356
23
165.507095
33
345.458313
0
3DFACE
8
0
70
0
10
-1.034159
20
52.183823
30
-56.809200
11
-1.447137
21
107.763100
31
-67.470177
12
42.727314
22
103.890625
32
-51.406666
13
37.389961
23
54.867821
33
-45.987236
0
3DFACE
8
0
70
0
10
-1.840780
20
133.802261
30
-84.114723
11
-1.840218
21
144.320450
31
-81.550720
12
1.024527
22
143.522507
32
-81.782295
13
1.498623
23
134.976456
33
-83.874100
0
3DFACE
8
0
70
0
10
49.397552
20
122.467384
30
20.537195
11
0.019434
21
136.613907
31
24.830942
12
0.000000
22
128.739197
32
94.243294
13
45.372787
23
118.183205
33
94.485207
0
3DFACE
8
0
70
0
10
0.000000
20
128.739197
30
94.243294
11
0.000000
21
132.057419
31
127.531708
12
42.872486
22
115.876572
32
125.884300
13
45.372787
23
118.183205
33
94.485207
0
3DFACE
8
0
70
0
10
28.501299
20
38.326637
30
24.964550
11
65.639984
21
75.577354
31
23.171196
12
56.608112
22
56.032173
32
95.437790
13
24.466627
23
7.743130
33
96.387161
0
3DFACE
8
0
70
0
10
65.870796
20
-150.659653
30
96.508690
11
46.587688
21
-150.659653
31
150.561478
12
29.845003
22
-150.659653
32
135.257660
13
36.005554
23
-150.659653
33
97.716942
0
3DFACE
8
0
70
0
10
65.639984
20
75.577354
30
23.171196
11
49.397552
21
122.467384
31
20.537195
12
45.372787
22
118.183205
32
94.485207
13
56.608112
23
56.032173
33
95.437790
0
3DFACE
8
0
70
0
10
56.608112
20
56.032173
30
95.437790
11
45.372787
21
118.183205
31
94.485207
12
42.872486
22
115.876572
32
125.884300
13
56.151844
23
56.075397
33
144.894592
0
3DFACE
8
0
70
0
10
0.000000
20
30.464899
30
24.964550
11
28.501299
21
38.326637
31
24.964550
12
24.466627
22
7.743130
32
96.387161
13
0.000000
23
-2.572437
33
96.623558
0
3DFACE
8
0
70
0
10
0.000000
20
-2.572437
30
96.623558
11
24.466627
21
7.743130
31
96.387161
12
25.214273
22
3.496203
32
131.186356
13
0.000000
23
-3.217420
33
144.894592
0
3DFACE
8
0
70
0
10
-0.639354
20
135.242325
30
-13.842234
11
39.531849
21
126.644684
31
-16.424740
12
37.175163
22
124.622139
32
-41.702217
13
-1.248955
23
131.981766
33
-50.107136
0
3DFACE
8
0
70
0
10
0.019434
20
136.613907
30
24.830942
11
49.397552
21
122.467384
31
20.537195
12
39.531849
22
126.644684
32
-16.424740
13
-0.639354
23
135.242325
33
-13.842234
0
3DFACE
8
0
70
0
10
63.900932
20
-149.424072
30
-44.181053
11
38.004204
21
-149.906921
31
-44.164032
12
32.521152
22
-149.881775
32
-44.690613
13
47.486446
23
-149.424072
33
-44.906197
0
3DFACE
8
0
70
0
10
84.899681
20
-150.885025
30
25.604677
11
47.486446
21
-151.224625
31
25.604677
12
38.004204
22
-149.906921
32
-44.164032
13
63.900932
23
-149.424072
33
-44.181053
0
3DFACE
8
0
70
0
10
73.698410
20
88.810051
30
-25.290165
11
42.727314
21
103.890625
31
-51.406666
12
37.175163
22
124.622139
32
-41.702217
13
39.531849
23
126.644684
33
-16.424740
0
3DFACE
8
0
70
0
10
49.397552
20
122.467384
30
20.537195
11
65.639984
21
75.577354
31
23.171196
12
73.698410
22
88.810051
32
-25.290165
13
39.531849
23
126.644684
33
-16.424740
0
3DFACE
8
0
70
0
10
0.000000
20
23.310841
30
-24.134932
11
-1.034159
21
52.183823
31
-56.809200
12
37.389961
22
54.867821
32
-45.987236
13
40.201050
23
32.445641
33
-24.344269
0
3DFACE
8
0
70
0
10
28.501299
20
38.326637
30
24.964550
11
0.000000
21
30.464899
31
24.964550
12
0.000000
22
23.310841
32
-24.134932
13
40.201050
23
32.445641
33
-24.344269
0
3DFACE
8
0
70
0
10
58.278629
20
-80.957832
30
-71.637260
11
48.508106
21
-80.957832
31
-72.828262
12
49.256004
22
-50.617638
32
-59.005524
13
56.257679
23
-50.617638
33
-59.005524
0
3DFACE
8
0
70
0
10
39.600193
20
-81.306847
30
-72.474174
11
42.872486
21
-50.758972
31
-59.005524
12
49.256004
22
-50.617638
32
-59.005524
13
48.508106
23
-80.957832
33
-72.828262
0
3DFACE
8
0
70
0
10
42.863911
20
-81.326004
30
-71.609299
11
45.211315
21
-50.766739
31
-59.005524
12
42.872486
22
-50.758972
32
-59.005524
13
39.600193
23
-81.306847
33
-72.474174
0
3DFACE
8
0
70
0
10
70.777878
20
-81.007057
30
-38.737366
11
58.278629
21
-80.957832
31
-71.637260
12
56.257679
22
-50.617638
32
-59.005524
13
65.214783
23
-53.394768
33
-9.391403
0
3DFACE
8
0
70
0
10
48.508106
20
-81.371948
30
-38.737366
11
49.256004
21
-52.495953
31
-9.391403
12
45.211315
22
-50.766739
32
-59.005524
13
42.863911
23
-81.326004
33
-71.609299
0
3DFACE
8
0
70
0
10
48.508106
20
-81.371948
30
-38.737366
11
70.777878
21
-81.007057
31
-38.737366
12
65.214783
22
-53.394768
32
-9.391403
13
49.256004
23
-52.495953
33
-9.391403
0
3DFACE
8
0
70
0
10
58.278629
20
-107.963600
30
-48.406071
11
48.508106
21
-107.963600
31
-48.554947
12
48.508106
22
-80.957832
32
-72.828262
13
58.278629
23
-80.957832
33
-71.637260
0
3DFACE
8
0
70
0
10
39.600193
20
-108.350677
30
-48.510693
11
39.600193
21
-81.306847
31
-72.474174
12
48.508106
22
-80.957832
32
-72.828262
13
48.508106
23
-107.963600
33
-48.554947
0
3DFACE
8
0
70
0
10
42.863911
20
-108.371933
30
-48.402576
11
42.863911
21
-81.326004
31
-71.609299
12
39.600193
22
-81.306847
32
-72.474174
13
39.600193
23
-108.350677
33
-48.510693
0
3DFACE
8
0
70
0
10
70.777878
20
-108.758995
30
-17.750196
11
58.278629
21
-107.963600
31
-48.406071
12
58.278629
22
-80.957832
32
-71.637260
13
70.777878
23
-81.007057
33
-38.737366
0
3DFACE
8
0
70
0
10
48.508106
20
-109.123871
30
-17.750196
11
48.508106
21
-81.371948
31
-38.737366
12
42.863911
22
-81.326004
32
-71.609299
13
42.863911
23
-108.371933
33
-48.402576
0
3DFACE
8
0
70
0
10
48.508106
20
-109.123871
30
-17.750196
11
70.777878
21
-108.758995
31
-17.750196
12
70.777878
22
-81.007057
32
-38.737366
13
48.508106
23
-81.371948
33
-38.737366
0
3DFACE
8
0
70
0
10
63.900932
20
-149.424072
30
-44.181053
11
47.486446
21
-149.424072
31
-44.906197
12
48.508106
22
-107.963600
32
-48.554947
13
58.278629
23
-107.963600
33
-48.406071
0
3DFACE
8
0
70
0
10
32.521152
20
-149.881775
30
-44.690613
11
39.600193
21
-108.350677
31
-48.510693
12
48.508106
22
-107.963600
32
-48.554947
13
47.486446
23
-149.424072
33
-44.906197
0
3DFACE
8
0
70
0
10
38.004204
20
-149.906921
30
-44.164032
11
42.863911
21
-108.371933
31
-48.402576
12
39.600193
22
-108.350677
32
-48.510693
13
32.521152
23
-149.881775
33
-44.690613
0
3DFACE
8
0
70
0
10
84.899681
20
-150.885025
30
25.604677
11
63.900932
21
-149.424072
31
-44.181053
12
58.278629
22
-107.963600
32
-48.406071
13
70.777878
23
-108.758995
33
-17.750196
0
3DFACE
8
0
70
0
10
47.486446
20
-151.224625
30
25.604677
11
48.508106
21
-109.123871
31
-17.750196
12
42.863911
22
-108.371933
32
-48.402576
13
38.004204
23
-149.906921
33
-44.164032
0
3DFACE
8
0
70
0
10
47.486446
20
-151.224625
30
25.604677
11
84.899681
21
-150.885025
31
25.604677
12
70.777878
22
-108.758995
32
-17.750196
13
48.508106
23
-109.123871
33
-17.750196
0
3DFACE
8
0
70
0
10
45.221333
20
-60.915943
30
114.521744
11
24.466627
21
7.743130
31
96.387161
12
56.608112
22
56.032173
32
95.437790
13
56.608112
23
-60.915943
33
114.094528
0
3DFACE
8
0
70
0
10
45.221333
20
-60.915943
30
114.521744
11
42.872486
21
-60.915943
31
127.795464
12
25.214273
22
3.496203
32
131.186356
13
24.466627
23
7.743130
33
96.387161
0
3DFACE
8
0
70
0
10
42.872486
20
-60.915943
30
127.795464
11
49.256004
21
-60.915943
31
133.206619
12
56.151844
22
56.075397
32
144.894592
13
25.214273
23
3.496203
33
131.186356
0
3DFACE
8
0
70
0
10
49.256004
20
-60.915943
30
133.206619
11
56.608112
21
-60.915943
31
114.094528
12
56.608112
22
56.032173
32
95.437790
13
56.151844
23
56.075397
33
144.894592
0
3DFACE
8
0
70
0
10
39.349094
20
-96.456642
30
97.878189
11
45.221333
21
-60.915943
31
114.521744
12
56.608112
22
-60.915943
32
114.094528
13
57.340210
23
-96.456642
33
97.203186
0
3DFACE
8
0
70
0
10
35.637920
20
-96.456642
30
118.850655
11
42.872486
21
-60.915943
31
127.795464
12
45.221333
22
-60.915943
32
114.521744
13
39.349094
23
-96.456642
33
97.878189
0
3DFACE
8
0
70
0
10
45.723877
20
-96.456642
30
127.400276
11
49.256004
21
-60.915943
31
133.206619
12
42.872486
22
-60.915943
32
127.795464
13
35.637920
23
-96.456642
33
118.850655
0
3DFACE
8
0
70
0
10
45.723877
20
-96.456642
30
127.400276
11
57.340210
21
-96.456642
31
97.203186
12
56.608112
22
-60.915943
32
114.094528
13
49.256004
23
-60.915943
33
133.206619
0
3DFACE
8
0
70
0
10
36.005554
20
-150.659653
30
97.716942
11
39.349094
21
-96.456642
31
97.878189
12
57.340210
22
-96.456642
32
97.203186
13
65.870796
23
-150.659653
33
96.508690
0
3DFACE
8
0
70
0
10
29.845003
20
-150.659653
30
135.257660
11
35.637920
21
-96.456642
31
118.850655
12
39.349094
22
-96.456642
32
97.878189
13
36.005554
23
-150.659653
33
97.716942
0
3DFACE
8
0
70
0
10
46.587688
20
-150.659653
30
150.561478
11
45.723877
21
-96.456642
31
127.400276
12
35.637920
22
-96.456642
32
118.850655
13
29.845003
23
-150.659653
33
135.257660
0
3DFACE
8
0
70
0
10
46.587688
20
-150.659653
30
150.561478
11
65.870796
21
-150.659653
31
96.508690
12
57.340210
22
-96.456642
32
97.203186
13
45.723877
23
-96.456642
33
127.400276
0
3DFACE
8
0
70
0
10
0.713539
20
147.919083
30
251.159149
11
0.619799
21
143.517441
31
234.968155
12
25.130964
22
182.662674
32
230.946121
13
37.083038
23
170.929810
33
249.361984
0
3DFACE
8
0
70
0
10
9.332530
20
163.796799
30
345.139099
11
25.953819
21
191.777908
31
304.541199
12
1.892524
22
197.551971
32
305.272095
13
1.152356
23
165.507095
33
345.458313
0
3DFACE
8
0
70
0
10
10.408467
20
153.458786
30
344.175293
11
28.874634
21
157.114838
31
304.965118
12
25.953819
22
191.777908
32
304.541199
13
9.332530
23
163.796799
33
345.139099
0
3DFACE
8
0
70
0
10
0.851935
20
150.204788
30
344.175934
11
0.743162
21
146.315582
31
304.128876
12
28.874634
22
157.114838
32
304.965118
13
10.408467
23
153.458786
33
344.175293
0
3DFACE
8
0
70
0
10
53.251995
20
245.530289
30
239.217636
11
53.442841
21
229.296860
31
237.599304
12
49.719040
22
230.172028
32
232.624680
13
49.562870
23
235.732574
33
233.174667
0
3DFACE
8
0
70
0
10
35.611767
20
197.016220
30
252.057739
11
37.083038
21
170.929810
31
249.361984
12
25.130964
22
182.662674
32
230.946121
13
23.768824
23
199.845566
33
232.673218
0
3DFACE
8
0
70
0
10
49.562870
20
235.732574
30
233.174667
11
22.912651
21
211.076385
31
233.788879
12
33.970940
22
229.797012
32
255.364044
13
53.251995
23
245.530289
33
239.217636
0
3DFACE
8
0
70
0
10
49.719040
20
230.172028
30
232.624680
11
23.768824
21
199.845566
31
232.673218
12
22.912651
22
211.076385
32
233.788879
13
49.562870
23
235.732574
33
233.174667
0
3DFACE
8
0
70
0
10
53.442841
20
229.296860
30
237.599304
11
35.611767
21
197.016220
31
252.057739
12
23.768824
22
199.845566
32
232.673218
13
49.719040
23
230.172028
33
232.624680
0
3DFACE
8
0
70
0
10
53.442841
20
229.296860
30
237.599304
11
53.251995
21
245.530289
31
239.217636
12
33.970940
22
229.797012
32
255.364044
13
35.611767
23
197.016220
33
252.057739
0
3DFACE
8
0
70
0
10
21.277617
20
223.553986
30
244.955841
11
9.741163
21
227.149353
31
245.374680
12
3.197360
22
239.674606
32
256.507141
13
33.970940
23
229.797012
33
255.364044
0
3DFACE
8
0
70
0
10
10.232012
20
217.369995
30
233.889679
11
2.274126
21
212.830338
31
226.172653
12
3.197360
22
239.674606
32
256.507141
13
9.741163
23
227.149353
33
245.374680
0
3DFACE
8
0
70
0
10
17.404692
20
216.721466
30
236.784882
11
22.912651
21
211.076385
31
233.788879
12
2.274126
22
212.830338
32
226.172653
13
10.232012
23
217.369995
33
233.889679
0
3DFACE
8
0
70
0
10
17.404692
20
216.721466
30
236.784882
11
21.277617
21
223.553986
31
244.955841
12
33.970940
22
229.797012
32
255.364044
13
22.912651
23
211.076385
33
233.788879
0
3DFACE
8
0
70
0
10
56.505547
20
297.838257
30
205.354614
11
58.994164
21
294.955902
31
204.241592
12
57.619228
22
292.667725
32
203.937134
13
53.058620
23
294.803589
33
205.585770
0
3DFACE
8
0
70
0
10
9.741163
20
227.149353
30
245.374680
11
55.041183
21
255.640686
31
231.679764
12
56.417110
22
246.456100
32
224.725189
13
10.232012
23
217.369995
33
233.889679
0
3DFACE
8
0
70
0
10
61.558277
20
248.102661
30
226.097107
11
56.417110
21
246.456100
31
224.725189
12
64.325851
22
254.268158
32
221.181931
13
69.559166
23
257.707520
33
221.549835
0
3DFACE
8
0
70
0
10
55.041183
20
255.640686
30
231.679764
11
62.102440
21
262.735931
31
226.879684
12
64.325851
22
254.268158
32
221.181931
13
56.417110
23
246.456100
33
224.725189
0
3DFACE
8
0
70
0
10
94.498383
20
262.826599
30
198.874390
11
94.240982
21
261.581879
31
196.179489
12
93.939957
22
266.102783
32
196.490906
13
93.738945
23
267.399475
33
198.897034
0
3DFACE
8
0
70
0
10
21.277617
20
223.553986
30
244.955841
11
17.404692
21
216.721466
31
236.784882
12
61.558277
22
248.102661
32
226.097107
13
63.226749
23
254.742813
33
231.189499
0
3DFACE
8
0
70
0
10
63.226749
20
254.742813
30
231.189499
11
70.529945
21
264.542786
31
225.273743
12
62.102440
22
262.735931
32
226.879684
13
55.041183
23
255.640686
33
231.679764
0
3DFACE
8
0
70
0
10
17.404692
20
216.721466
30
236.784882
11
10.232012
21
217.369995
31
233.889679
12
56.417110
22
246.456100
32
224.725189
13
61.558277
23
248.102661
33
226.097107
0
3DFACE
8
0
70
0
10
61.647240
20
281.779449
30
215.444305
11
61.303669
21
288.610260
31
211.467041
12
57.502426
22
283.912018
32
212.296860
13
57.010849
23
280.922974
33
214.390701
0
3DFACE
8
0
70
0
10
70.529945
20
264.542786
30
225.273743
11
61.647240
21
281.779449
31
215.444305
12
57.010849
22
280.922974
32
214.390701
13
62.102440
23
262.735931
33
226.879684
0
3DFACE
8
0
70
0
10
63.348598
20
278.698578
30
212.316711
11
61.625435
21
277.477142
31
210.989548
12
62.644421
22
281.835449
32
209.042130
13
63.951118
23
285.491394
33
209.273605
0
3DFACE
8
0
70
0
10
69.559166
20
257.707520
30
221.549835
11
64.325851
21
254.268158
31
221.181931
12
61.625435
22
277.477142
32
210.989548
13
63.348598
23
278.698578
33
212.316711
0
3DFACE
8
0
70
0
10
42.460724
20
282.431702
30
202.187576
11
40.934399
21
284.820313
31
204.310135
12
42.105938
22
286.268372
32
203.649063
13
44.211739
23
284.346680
33
201.799255
0
3DFACE
8
0
70
0
10
64.325851
20
254.268158
30
221.181931
11
62.102440
21
262.735931
31
226.879684
12
57.010849
22
280.922974
32
214.390701
13
61.625435
23
277.477142
33
210.989548
0
3DFACE
8
0
70
0
10
61.647240
20
281.779449
30
215.444305
11
63.348598
21
278.698578
31
212.316711
12
63.951118
22
285.491394
32
209.273605
13
61.303669
23
288.610260
33
211.467041
0
3DFACE
8
0
70
0
10
69.559166
20
257.707520
30
221.549835
11
63.348598
21
278.698578
31
212.316711
12
61.647240
22
281.779449
32
215.444305
13
70.529945
23
264.542786
33
225.273743
0
3DFACE
8
0
70
0
10
59.374493
20
292.316498
30
209.010742
11
56.505547
21
297.838257
31
205.354614
12
53.058620
22
294.803589
32
205.585770
13
54.495083
23
291.276611
33
207.757721
0
3DFACE
8
0
70
0
10
57.502426
20
283.912018
30
212.296860
11
54.495083
21
291.276611
31
207.757721
12
59.293804
22
289.052155
32
205.639877
13
62.644421
23
281.835449
33
209.042130
0
3DFACE
8
0
70
0
10
62.644421
20
281.835449
30
209.042130
11
59.293804
21
289.052155
31
205.639877
12
61.528954
22
290.111511
32
206.815918
13
63.951118
23
285.491394
33
209.273605
0
3DFACE
8
0
70
0
10
70.471176
20
286.208160
30
194.585129
11
68.130989
21
289.139435
31
195.080032
12
67.649406
22
289.836884
32
197.408615
13
69.690651
23
287.402924
33
197.272476
0
3DFACE
8
0
70
0
10
57.502426
20
283.912018
30
212.296860
11
61.303669
21
288.610260
31
211.467041
12
59.374493
22
292.316498
32
209.010742
13
54.495083
23
291.276611
33
207.757721
0
3DFACE
8
0
70
0
10
54.495083
20
291.276611
30
207.757721
11
53.058620
21
294.803589
31
205.585770
12
57.619228
22
292.667725
32
203.937134
13
59.293804
23
289.052155
33
205.639877
0
3DFACE
8
0
70
0
10
61.528954
20
290.111511
30
206.815918
11
59.293804
21
289.052155
31
205.639877
12
57.619228
22
292.667725
32
203.937134
13
58.994164
23
294.955902
33
204.241592
0
3DFACE
8
0
70
0
10
59.374493
20
292.316498
30
209.010742
11
61.528954
21
290.111511
31
206.815918
12
58.994164
22
294.955902
32
204.241592
13
56.505547
23
297.838257
33
205.354614
0
3DFACE
8
0
70
0
10
63.226749
20
254.742813
30
231.189499
11
67.033813
21
252.847427
31
228.955811
12
73.617180
22
261.649567
32
223.628433
13
70.529945
23
264.542786
33
225.273743
0
3DFACE
8
0
70
0
10
70.529945
20
264.542786
30
225.273743
11
73.617180
21
261.649567
31
223.628433
12
72.739487
22
255.502609
32
220.281952
13
69.559166
23
257.707520
33
221.549835
0
3DFACE
8
0
70
0
10
69.559166
20
257.707520
30
221.549835
11
72.739487
21
255.502609
31
220.281952
12
65.527390
22
246.875336
32
224.377670
13
61.558277
23
248.102661
33
226.097107
0
3DFACE
8
0
70
0
10
61.558277
20
248.102661
30
226.097107
11
65.527390
21
246.875336
31
224.377670
12
67.033813
22
252.847427
32
228.955811
13
63.226749
23
254.742813
33
231.189499
0
3DFACE
8
0
70
0
10
67.033813
20
252.847427
30
228.955811
11
72.881424
21
249.044708
31
226.175797
12
75.965576
22
258.870819
32
222.617310
13
73.617180
23
261.649567
33
223.628433
0
3DFACE
8
0
70
0
10
73.617180
20
261.649567
30
223.628433
11
75.965576
21
258.870819
31
222.617310
12
75.961662
22
254.000015
32
218.548813
13
72.739487
23
255.502609
33
220.281952
0
3DFACE
8
0
70
0
10
72.739487
20
255.502609
30
220.281952
11
75.961662
21
254.000015
31
218.548813
12
72.107353
22
244.386612
32
221.138855
13
65.527390
23
246.875336
33
224.377670
0
3DFACE
8
0
70
0
10
65.527390
20
246.875336
30
224.377670
11
72.107353
21
244.386612
31
221.138855
12
72.881424
22
249.044708
32
226.175797
13
67.033813
23
252.847427
33
228.955811
0
3DFACE
8
0
70
0
10
72.881424
20
249.044708
30
226.175797
11
78.222527
21
248.951584
31
221.599823
12
77.386330
22
258.615845
32
220.938995
13
75.965576
23
258.870819
33
222.617310
0
3DFACE
8
0
70
0
10
75.965576
20
258.870819
30
222.617310
11
77.386330
21
258.615845
31
220.938995
12
77.817810
22
255.535202
32
216.125610
13
75.961662
23
254.000015
33
218.548813
0
3DFACE
8
0
70
0
10
75.961662
20
254.000015
30
218.548813
11
77.817810
21
255.535202
31
216.125610
12
77.740417
22
246.013458
32
216.128708
13
72.107353
23
244.386612
33
221.138855
0
3DFACE
8
0
70
0
10
72.107353
20
244.386612
30
221.138855
11
77.740417
21
246.013458
31
216.128708
12
78.222527
22
248.951584
32
221.599823
13
72.881424
23
249.044708
33
226.175797
0
3DFACE
8
0
70
0
10
78.222527
20
248.951584
30
221.599823
11
80.836571
21
250.704224
31
218.216263
12
79.696686
22
259.368774
32
217.968231
13
77.386330
23
258.615845
33
220.938995
0
3DFACE
8
0
70
0
10
77.386330
20
258.615845
30
220.938995
11
79.696686
21
259.368774
31
217.968231
12
80.088776
22
256.773376
32
213.526047
13
77.817810
23
255.535202
33
216.125610
0
3DFACE
8
0
70
0
10
77.817810
20
255.535202
30
216.125610
11
80.088776
21
256.773376
31
213.526047
12
80.385063
22
248.222198
32
213.208130
13
77.740417
23
246.013458
33
216.128708
0
3DFACE
8
0
70
0
10
77.740417
20
246.013458
30
216.128708
11
80.385063
21
248.222198
31
213.208130
12
80.836571
22
250.704224
32
218.216263
13
78.222527
23
248.951584
33
221.599823
0
3DFACE
8
0
70
0
10
80.836571
20
250.704224
30
218.216263
11
83.381294
21
251.984879
31
215.188736
12
82.359756
22
259.779419
32
214.964066
13
79.696686
23
259.368774
33
217.968231
0
3DFACE
8
0
70
0
10
79.696686
20
259.368774
30
217.968231
11
82.359756
21
259.779419
31
214.964066
12
82.711327
22
257.444794
32
210.966553
13
80.088776
23
256.773376
33
213.526047
0
3DFACE
8
0
70
0
10
80.088776
20
256.773376
30
213.526047
11
82.711327
21
257.444794
31
210.966553
12
82.973259
22
249.751862
32
210.681992
13
80.385063
23
248.222198
33
213.208130
0
3DFACE
8
0
70
0
10
80.385063
20
248.222198
30
213.208130
11
82.973259
21
249.751862
31
210.681992
12
83.381294
22
251.984879
32
215.188736
13
80.836571
23
250.704224
33
218.216263
0
3DFACE
8
0
70
0
10
83.381294
20
251.984879
30
215.188736
11
86.136818
21
253.661850
31
211.755798
12
84.563927
22
260.542419
32
212.185333
13
82.359756
23
259.779419
33
214.964066
0
3DFACE
8
0
70
0
10
82.359756
20
259.779419
30
214.964066
11
84.563927
21
260.542419
31
212.185333
12
84.859520
22
258.760284
32
208.412582
13
82.711327
23
257.444794
33
210.966553
0
3DFACE
8
0
70
0
10
82.711327
20
257.444794
30
210.966553
11
84.859520
21
258.760284
31
208.412582
12
85.715782
22
251.940933
32
207.569794
13
82.973259
23
249.751862
33
210.681992
0
3DFACE
8
0
70
0
10
82.973259
20
249.751862
30
210.681992
11
85.715782
21
251.940933
31
207.569794
12
86.136818
22
253.661850
32
211.755798
13
83.381294
23
251.984879
33
215.188736
0
3DFACE
8
0
70
0
10
86.136818
20
253.661850
30
211.755798
11
88.300316
21
255.637650
31
208.650726
12
86.354919
22
261.620117
32
209.611145
13
84.563927
23
260.542419
33
212.185333
0
3DFACE
8
0
70
0
10
84.563927
20
260.542419
30
212.185333
11
86.354919
21
261.620117
31
209.611145
12
86.568314
22
260.303986
32
206.086197
13
84.859520
23
258.760284
33
208.412582
0
3DFACE
8
0
70
0
10
84.859520
20
258.760284
30
208.412582
11
86.568314
21
260.303986
31
206.086197
12
87.844635
22
254.344803
32
204.792664
13
85.715782
23
251.940933
33
207.569794
0
3DFACE
8
0
70
0
10
85.715782
20
251.940933
30
207.569794
11
87.844635
21
254.344803
31
204.792664
12
88.300316
22
255.637650
32
208.650726
13
86.136818
23
253.661850
33
211.755798
0
3DFACE
8
0
70
0
10
88.300316
20
255.637650
30
208.650726
11
90.208618
21
258.385834
31
205.303864
12
88.369614
22
263.722046
32
206.273636
13
86.354919
23
261.620117
33
209.611145
0
3DFACE
8
0
70
0
10
86.354919
20
261.620117
30
209.611145
11
88.369614
21
263.722046
31
206.273636
12
88.547569
22
262.590515
32
203.080536
13
86.568314
23
260.303986
33
206.086197
0
3DFACE
8
0
70
0
10
86.568314
20
260.303986
30
206.086197
11
88.547569
21
262.590515
31
203.080536
12
89.780334
22
257.268799
32
201.818008
13
87.844635
23
254.344803
33
204.792664
0
3DFACE
8
0
70
0
10
87.844635
20
254.344803
30
204.792664
11
89.780334
21
257.268799
31
201.818008
12
90.208618
22
258.385834
32
205.303864
13
88.300316
23
255.637650
33
208.650726
0
3DFACE
8
0
70
0
10
90.208618
20
258.385834
30
205.303864
11
92.276299
21
261.119659
31
201.840607
12
91.049637
22
266.106018
32
202.244095
13
88.369614
23
263.722046
33
206.273636
0
3DFACE
8
0
70
0
10
88.369614
20
263.722046
30
206.273636
11
91.049637
21
266.106018
31
202.244095
12
91.255959
22
264.853943
32
199.471588
13
88.547569
23
262.590515
33
203.080536
0
3DFACE
8
0
70
0
10
88.547569
20
262.590515
30
203.080536
11
91.255959
21
264.853943
31
199.471588
12
91.955223
22
259.906860
32
198.773560
13
89.780334
23
257.268799
33
201.818008
0
3DFACE
8
0
70
0
10
89.780334
20
257.268799
30
201.818008
11
91.955223
21
259.906860
31
198.773560
12
92.276299
22
261.119659
32
201.840607
13
90.208618
23
258.385834
33
205.303864
0
3DFACE
8
0
70
0
10
92.276299
20
261.119659
30
201.840607
11
94.498383
21
262.826599
31
198.874390
12
93.738945
22
267.399475
32
198.897034
13
91.049637
23
266.106018
33
202.244095
0
3DFACE
8
0
70
0
10
91.049637
20
266.106018
30
202.244095
11
93.738945
21
267.399475
31
198.897034
12
93.939957
22
266.102783
32
196.490906
13
91.255959
23
264.853943
33
199.471588
0
3DFACE
8
0
70
0
10
91.255959
20
264.853943
30
199.471588
11
93.939957
21
266.102783
31
196.490906
12
94.240982
22
261.581879
32
196.179489
13
91.955223
23
259.906860
33
198.773560
0
3DFACE
8
0
70
0
10
91.955223
20
259.906860
30
198.773560
11
94.240982
21
261.581879
31
196.179489
12
94.498383
22
262.826599
32
198.874390
13
92.276299
23
261.119659
33
201.840607
0
3DFACE
8
0
70
0
10
61.625435
20
277.477142
30
210.989548
11
57.001915
21
276.412140
31
209.310608
12
58.375992
22
280.302765
32
207.778839
13
62.644421
23
281.835449
33
209.042130
0
3DFACE
8
0
70
0
10
62.644421
20
281.835449
30
209.042130
11
58.375992
21
280.302765
31
207.778839
12
53.908863
22
282.500214
32
210.712952
13
57.502426
23
283.912018
33
212.296860
0
3DFACE
8
0
70
0
10
57.502426
20
283.912018
30
212.296860
11
53.908863
21
282.500214
31
210.712952
12
53.134571
22
279.779358
32
212.448822
13
57.010849
23
280.922974
33
214.390701
0
3DFACE
8
0
70
0
10
57.010849
20
280.922974
30
214.390701
11
53.134571
21
279.779358
31
212.448822
12
57.001915
22
276.412140
32
209.310608
13
61.625435
23
277.477142
33
210.989548
0
3DFACE
8
0
70
0
10
57.001915
20
276.412140
30
209.310608
11
54.080124
21
276.533386
31
208.144363
12
55.585178
22
279.986938
32
206.901215
13
58.375992
23
280.302765
33
207.778839
0
3DFACE
8
0
70
0
10
58.375992
20
280.302765
30
207.778839
11
55.585178
21
279.986938
31
206.901215
12
51.677738
22
282.152710
32
209.554871
13
53.908863
23
282.500214
33
210.712952
0
3DFACE
8
0
70
0
10
53.908863
20
282.500214
30
210.712952
11
51.677738
21
282.152710
31
209.554871
12
50.783028
22
279.706604
32
211.024460
13
53.134571
23
279.779358
33
212.448822
0
3DFACE
8
0
70
0
10
53.134571
20
279.779358
30
212.448822
11
50.783028
21
279.706604
31
211.024460
12
54.080124
22
276.533386
32
208.144363
13
57.001915
23
276.412140
33
209.310608
0
3DFACE
8
0
70
0
10
54.080124
20
276.533386
30
208.144363
11
50.363735
21
276.374390
31
206.648392
12
52.602177
22
279.111023
32
206.017853
13
55.585178
23
279.986938
33
206.901215
0
3DFACE
8
0
70
0
10
55.585178
20
279.986938
30
206.901215
11
52.602177
21
279.111023
31
206.017853
12
49.593803
22
281.641479
32
208.518982
13
51.677738
23
282.152710
33
209.554871
0
3DFACE
8
0
70
0
10
51.677738
20
282.152710
30
209.554871
11
49.593803
21
281.641479
31
208.518982
12
48.115490
22
279.597046
32
209.496994
13
50.783028
23
279.706604
33
211.024460
0
3DFACE
8
0
70
0
10
50.783028
20
279.706604
30
211.024460
11
48.115490
21
279.597046
31
209.496994
12
50.363735
22
276.374390
32
206.648392
13
54.080124
23
276.533386
33
208.144363
0
3DFACE
8
0
70
0
10
50.363735
20
276.374390
30
206.648392
11
46.702763
21
278.991638
31
204.577332
12
49.532494
22
280.597839
32
204.566254
13
52.602177
23
279.111023
33
206.017853
0
3DFACE
8
0
70
0
10
52.602177
20
279.111023
30
206.017853
11
49.532494
21
280.597839
31
204.566254
12
47.625294
22
283.323914
32
207.093445
13
49.593803
23
281.641479
33
208.518982
0
3DFACE
8
0
70
0
10
49.593803
20
281.641479
30
208.518982
11
47.625294
21
283.323914
31
207.093445
12
45.621552
22
281.987488
32
207.557434
13
48.115490
23
279.597046
33
209.496994
0
3DFACE
8
0
70
0
10
48.115490
20
279.597046
30
209.496994
11
45.621552
21
281.987488
31
207.557434
12
46.702763
22
278.991638
32
204.577332
13
50.363735
23
276.374390
33
206.648392
0
3DFACE
8
0
70
0
10
46.702763
20
278.991638
30
204.577332
11
44.730476
21
281.389130
31
203.316605
12
47.091030
22
283.109680
32
203.162094
13
49.532494
23
280.597839
33
204.566254
0
3DFACE
8
0
70
0
10
49.532494
20
280.597839
30
204.566254
11
47.091030
21
283.109680
31
203.162094
12
45.140045
22
285.476349
32
205.347382
13
47.625294
23
283.323914
33
207.093445
0
3DFACE
8
0
70
0
10
47.625294
20
283.323914
30
207.093445
11
45.140045
21
285.476349
31
205.347382
12
43.498600
22
284.103333
32
205.875916
13
45.621552
23
281.987488
33
207.557434
0
3DFACE
8
0
70
0
10
45.621552
20
281.987488
30
207.557434
11
43.498600
21
284.103333
31
205.875916
12
44.730476
22
281.389130
32
203.316605
13
46.702763
23
278.991638
33
204.577332
0
3DFACE
8
0
70
0
10
44.730476
20
281.389130
30
203.316605
11
42.460724
21
282.431702
31
202.187576
12
44.211739
22
284.346680
32
201.799255
13
47.091030
23
283.109680
33
203.162094
0
3DFACE
8
0
70
0
10
47.091030
20
283.109680
30
203.162094
11
44.211739
21
284.346680
31
201.799255
12
42.105938
22
286.268372
32
203.649063
13
45.140045
23
285.476349
33
205.347382
0
3DFACE
8
0
70
0
10
45.140045
20
285.476349
30
205.347382
11
42.105938
21
286.268372
31
203.649063
12
40.934399
22
284.820313
32
204.310135
13
43.498600
23
284.103333
33
205.875916
0
3DFACE
8
0
70
0
10
43.498600
20
284.103333
30
205.875916
11
40.934399
21
284.820313
31
204.310135
12
42.460724
22
282.431702
32
202.187576
13
44.730476
23
281.389130
33
203.316605
0
3DFACE
8
0
70
0
10
63.951118
20
285.491394
30
209.273605
11
66.937523
21
284.827301
31
206.041199
12
64.709518
22
287.447357
32
208.409225
13
61.303669
23
288.610260
33
211.467041
0
3DFACE
8
0
70
0
10
61.303669
20
288.610260
30
211.467041
11
64.709518
21
287.447357
31
208.409225
12
62.679157
22
290.849945
32
206.590836
13
59.374493
23
292.316498
33
209.010742
0
3DFACE
8
0
70
0
10
59.374493
20
292.316498
30
209.010742
11
62.679157
21
290.849945
31
206.590836
12
64.447510
22
289.037903
32
204.316101
13
61.528954
23
290.111511
33
206.815918
0
3DFACE
8
0
70
0
10
61.528954
20
290.111511
30
206.815918
11
64.447510
21
289.037903
31
204.316101
12
66.937523
22
284.827301
32
206.041199
13
63.951118
23
285.491394
33
209.273605
0
3DFACE
8
0
70
0
10
66.937523
20
284.827301
30
206.041199
11
68.306503
21
285.003845
31
203.013824
12
66.782288
22
286.910004
32
205.871155
13
64.709518
23
287.447357
33
208.409225
0
3DFACE
8
0
70
0
10
64.709518
20
287.447357
30
208.409225
11
66.782288
21
286.910004
31
205.871155
12
64.478157
22
290.009247
32
205.171036
13
62.679157
23
290.849945
33
206.590836
0
3DFACE
8
0
70
0
10
62.679157
20
290.849945
30
206.590836
11
64.478157
21
290.009247
31
205.171036
12
65.590744
22
288.780029
32
202.597305
13
64.447510
23
289.037903
33
204.316101
0
3DFACE
8
0
70
0
10
64.447510
20
289.037903
30
204.316101
11
65.590744
21
288.780029
31
202.597305
12
68.306503
22
285.003845
32
203.013824
13
66.937523
23
284.827301
33
206.041199
0
3DFACE
8
0
70
0
10
68.306503
20
285.003845
30
203.013824
11
69.522957
21
285.637177
31
198.403717
12
68.560226
22
287.033936
32
201.328690
13
66.782288
23
286.910004
33
205.871155
0
3DFACE
8
0
70
0
10
66.782288
20
286.910004
30
205.871155
11
68.560226
21
287.033936
31
201.328690
12
66.313286
22
289.760986
32
201.342545
13
64.478157
23
290.009247
33
205.171036
0
3DFACE
8
0
70
0
10
64.478157
20
290.009247
30
205.171036
11
66.313286
21
289.760986
31
201.342545
12
66.934753
22
288.927734
32
198.792419
13
65.590744
23
288.780029
33
202.597305
0
3DFACE
8
0
70
0
10
65.590744
20
288.780029
30
202.597305
11
66.934753
21
288.927734
31
198.792419
12
69.522957
22
285.637177
32
198.403717
13
68.306503
23
285.003845
33
203.013824
0
3DFACE
8
0
70
0
10
69.522957
20
285.637177
30
198.403717
11
70.471176
21
286.208160
31
194.585129
12
69.690651
22
287.402924
32
197.272476
13
68.560226
23
287.033936
33
201.328690
0
3DFACE
8
0
70
0
10
68.560226
20
287.033936
30
201.328690
11
69.690651
21
287.402924
31
197.272476
12
67.649406
22
289.836884
32
197.408615
13
66.313286
23
289.760986
33
201.342545
0
3DFACE
8
0
70
0
10
66.313286
20
289.760986
30
201.342545
11
67.649406
21
289.836884
31
197.408615
12
68.130989
22
289.139435
32
195.080032
13
66.934753
23
288.927734
33
198.792419
0
3DFACE
8
0
70
0
10
66.934753
20
288.927734
30
198.792419
11
68.130989
21
289.139435
31
195.080032
12
70.471176
22
286.208160
32
194.585129
13
69.522957
23
285.637177
33
198.403717
0
3DFACE
8
0
70
0
10
0.000000
20
-3.217420
30
144.894592
11
0.000000
21
52.644833
31
186.083374
12
-56.151844
22
56.075397
32
144.894592
13
-25.214273
23
3.496203
33
131.186356
0
3DFACE
8
0
70
0
10
0.851935
20
150.204788
30
344.175934
11
1.152356
21
165.507095
31
345.458313
12
-7.092246
22
164.152039
32
345.160217
13
-8.577668
23
153.831406
33
344.195282
0
3DFACE
8
0
70
0
10
-1.034159
20
52.183823
30
-56.809200
11
-39.084938
21
54.682076
31
-44.654591
12
-45.010426
22
103.677536
32
-49.877750
13
-1.447137
23
107.763100
33
-67.470177
0
3DFACE
8
0
70
0
10
-1.840780
20
133.802261
30
-84.114723
11
-5.179558
21
134.960220
31
-83.757721
12
-4.704548
22
143.508575
32
-81.682457
13
-1.840218
23
144.320450
33
-81.550720
0
3DFACE
8
0
70
0
10
-49.358688
20
122.227501
30
22.258114
11
-45.372787
21
118.183205
31
94.485207
12
0.000000
22
128.739197
32
94.243294
13
0.019434
23
136.613907
33
24.830942
0
3DFACE
8
0
70
0
10
0.000000
20
128.739197
30
94.243294
11
-45.372787
21
118.183205
31
94.485207
12
-42.872486
22
115.876572
32
125.884300
13
0.000000
23
132.057419
33
127.531708
0
3DFACE
8
0
70
0
10
-28.501299
20
38.326637
30
24.964550
11
-24.466627
21
7.743130
31
96.387161
12
-56.608112
22
56.032173
32
95.437790
13
-65.112946
23
75.259789
33
25.449684
0
3DFACE
8
0
70
0
10
-65.870796
20
-150.659653
30
96.508690
11
-36.005554
21
-150.659653
31
97.716942
12
-29.845003
22
-150.659653
32
135.257660
13
-46.587688
23
-150.659653
33
150.561478
0
3DFACE
8
0
70
0
10
-65.112946
20
75.259789
30
25.449684
11
-56.608112
21
56.032173
31
95.437790
12
-45.372787
22
118.183205
32
94.485207
13
-49.358688
23
122.227501
33
22.258114
0
3DFACE
8
0
70
0
10
-56.608112
20
56.032173
30
95.437790
11
-56.151844
21
56.075397
31
144.894592
12
-42.872486
22
115.876572
32
125.884300
13
-45.372787
23
118.183205
33
94.485207
0
3DFACE
8
0
70
0
10
0.000000
20
30.464899
30
24.964550
11
0.000000
21
-2.572437
31
96.623558
12
-24.466627
22
7.743130
32
96.387161
13
-28.501299
23
38.326637
33
24.964550
0
3DFACE
8
0
70
0
10
0.000000
20
-2.572437
30
96.623558
11
0.000000
21
-3.217420
31
144.894592
12
-25.214273
22
3.496203
32
131.186356
13
-24.466627
23
7.743130
33
96.387161
0
3DFACE
8
0
70
0
10
-0.639354
20
135.242325
30
-13.842234
11
-1.248955
21
131.981766
31
-50.107136
12
-39.299732
22
124.436394
32
-40.369576
13
-40.803337
23
126.449562
33
-15.024826
0
3DFACE
8
0
70
0
10
0.019434
20
136.613907
30
24.830942
11
-0.639354
21
135.242325
31
-13.842234
12
-40.803337
22
126.449562
32
-15.024826
13
-49.358688
23
122.227501
33
22.258114
0
3DFACE
8
0
70
0
10
-63.900932
20
-149.424072
30
-44.181053
11
-47.486446
21
-149.424072
31
-44.906197
12
-32.521152
22
-149.881775
32
-44.690613
13
-38.004204
23
-149.906921
33
-44.164032
0
3DFACE
8
0
70
0
10
-84.899681
20
-150.885025
30
25.604677
11
-63.900932
21
-149.424072
31
-44.181053
12
-38.004204
22
-149.906921
32
-44.164032
13
-47.486446
23
-151.224625
33
25.604677
0
3DFACE
8
0
70
0
10
-74.940529
20
88.449028
30
-22.699997
11
-40.803337
21
126.449562
31
-15.024826
12
-39.299732
22
124.436394
32
-40.369576
13
-45.010426
23
103.677536
33
-49.877750
0
3DFACE
8
0
70
0
10
-49.358688
20
122.227501
30
22.258114
11
-40.803337
21
126.449562
31
-15.024826
12
-74.940529
22
88.449028
32
-22.699997
13
-65.112946
23
75.259789
33
25.449684
0
3DFACE
8
0
70
0
10
0.000000
20
23.310841
30
-24.134932
11
-40.201050
21
32.445641
31
-24.344269
12
-39.084938
22
54.682076
32
-44.654591
13
-1.034159
23
52.183823
33
-56.809200
0
3DFACE
8
0
70
0
10
-28.501299
20
38.326637
30
24.964550
11
-40.201050
21
32.445641
31
-24.344269
12
0.000000
22
23.310841
32
-24.134932
13
0.000000
23
30.464899
33
24.964550
0
3DFACE
8
0
70
0
10
-58.278629
20
-80.957832
30
-71.637260
11
-56.257679
21
-50.617638
31
-59.005524
12
-49.256004
22
-50.617638
32
-59.005524
13
-48.508106
23
-80.957832
33
-72.828262
0
3DFACE
8
0
70
0
10
-39.600193
20
-81.306847
30
-72.474174
11
-48.508106
21
-80.957832
31
-72.828262
12
-49.256004
22
-50.617638
32
-59.005524
13
-42.872486
23
-50.758972
33
-59.005524
0
3DFACE
8
0
70
0
10
-42.863911
20
-81.326004
30
-71.609299
11
-39.600193
21
-81.306847
31
-72.474174
12
-42.872486
22
-50.758972
32
-59.005524
13
-45.211315
23
-50.766739
33
-59.005524
0
3DFACE
8
0
70
0
10
-70.777878
20
-81.007057
30
-38.737366
11
-65.214783
21
-53.394768
31
-9.391403
12
-56.257679
22
-50.617638
32
-59.005524
13
-58.278629
23
-80.957832
33
-71.637260
0
3DFACE
8
0
70
0
10
-48.508106
20
-81.371948
30
-38.737366
11
-42.863911
21
-81.326004
31
-71.609299
12
-45.211315
22
-50.766739
32
-59.005524
13
-49.256004
23
-52.495953
33
-9.391403
0
3DFACE
8
0
70
0
10
-48.508106
20
-81.371948
30
-38.737366
11
-49.256004
21
-52.495953
31
-9.391403
12
-65.214783
22
-53.394768
32
-9.391403
13
-70.777878
23
-81.007057
33
-38.737366
0
3DFACE
8
0
70
0
10
-58.278629
20
-107.963600
30
-48.406071
11
-58.278629
21
-80.957832
31
-71.637260
12
-48.508106
22
-80.957832
32
-72.828262
13
-48.508106
23
-107.963600
33
-48.554947
0
3DFACE
8
0
70
0
10
-39.600193
20
-108.350677
30
-48.510693
11
-48.508106
21
-107.963600
31
-48.554947
12
-48.508106
22
-80.957832
32
-72.828262
13
-39.600193
23
-81.306847
33
-72.474174
0
3DFACE
8
0
70
0
10
-42.863911
20
-108.371933
30
-48.402576
11
-39.600193
21
-108.350677
31
-48.510693
12
-39.600193
22
-81.306847
32
-72.474174
13
-42.863911
23
-81.326004
33
-71.609299
0
3DFACE
8
0
70
0
10
-70.777878
20
-108.758995
30
-17.750196
11
-70.777878
21
-81.007057
31
-38.737366
12
-58.278629
22
-80.957832
32
-71.637260
13
-58.278629
23
-107.963600
33
-48.406071
0
3DFACE
8
0
70
0
10
-48.508106
20
-109.123871
30
-17.750196
11
-42.863911
21
-108.371933
31
-48.402576
12
-42.863911
22
-81.326004
32
-71.609299
13
-48.508106
23
-81.371948
33
-38.737366
0
3DFACE
8
0
70
0
10
-48.508106
20
-109.123871
30
-17.750196
11
-48.508106
21
-81.371948
31
-38.737366
12
-70.777878
22
-81.007057
32
-38.737366
13
-70.777878
23
-108.758995
33
-17.750196
0
3DFACE
8
0
70
0
10
-63.900932
20
-149.424072
30
-44.181053
11
-58.278629
21
-107.963600
31
-48.406071
12
-48.508106
22
-107.963600
32
-48.554947
13
-47.486446
23
-149.424072
33
-44.906197
0
3DFACE
8
0
70
0
10
-32.521152
20
-149.881775
30
-44.690613
11
-47.486446
21
-149.424072
31
-44.906197
12
-48.508106
22
-107.963600
32
-48.554947
13
-39.600193
23
-108.350677
33
-48.510693
0
3DFACE
8
0
70
0
10
-38.004204
20
-149.906921
30
-44.164032
11
-32.521152
21
-149.881775
31
-44.690613
12
-39.600193
22
-108.350677
32
-48.510693
13
-42.863911
23
-108.371933
33
-48.402576
0
3DFACE
8
0
70
0
10
-84.899681
20
-150.885025
30
25.604677
11
-70.777878
21
-108.758995
31
-17.750196
12
-58.278629
22
-107.963600
32
-48.406071
13
-63.900932
23
-149.424072
33
-44.181053
0
3DFACE
8
0
70
0
10
-47.486446
20
-151.224625
30
25.604677
11
-38.004204
21
-149.906921
31
-44.164032
12
-42.863911
22
-108.371933
32
-48.402576
13
-48.508106
23
-109.123871
33
-17.750196
0
3DFACE
8
0
70
0
10
-47.486446
20
-151.224625
30
25.604677
11
-48.508106
21
-109.123871
31
-17.750196
12
-70.777878
22
-108.758995
32
-17.750196
13
-84.899681
23
-150.885025
33
25.604677
0
3DFACE
8
0
70
0
10
-45.221333
20
-60.915943
30
114.521744
11
-56.608112
21
-60.915943
31
114.094528
12
-56.608112
22
56.032173
32
95.437790
13
-24.466627
23
7.743130
33
96.387161
0
3DFACE
8
0
70
0
10
-45.221333
20
-60.915943
30
114.521744
11
-24.466627
21
7.743130
31
96.387161
12
-25.214273
22
3.496203
32
131.186356
13
-42.872486
23
-60.915943
33
127.795464
0
3DFACE
8
0
70
0
10
-42.872486
20
-60.915943
30
127.795464
11
-25.214273
21
3.496203
31
131.186356
12
-56.151844
22
56.075397
32
144.894592
13
-49.256004
23
-60.915943
33
133.206619
0
3DFACE
8
0
70
0
10
-49.256004
20
-60.915943
30
133.206619
11
-56.151844
21
56.075397
31
144.894592
12
-56.608112
22
56.032173
32
95.437790
13
-56.608112
23
-60.915943
33
114.094528
0
3DFACE
8
0
70
0
10
-39.349094
20
-96.456642
30
97.878189
11
-57.340210
21
-96.456642
31
97.203186
12
-56.608112
22
-60.915943
32
114.094528
13
-45.221333
23
-60.915943
33
114.521744
0
3DFACE
8
0
70
0
10
-35.637920
20
-96.456642
30
118.850655
11
-39.349094
21
-96.456642
31
97.878189
12
-45.221333
22
-60.915943
32
114.521744
13
-42.872486
23
-60.915943
33
127.795464
0
3DFACE
8
0
70
0
10
-45.723877
20
-96.456642
30
127.400276
11
-35.637920
21
-96.456642
31
118.850655
12
-42.872486
22
-60.915943
32
127.795464
13
-49.256004
23
-60.915943
33
133.206619
0
3DFACE
8
0
70
0
10
-45.723877
20
-96.456642
30
127.400276
11
-49.256004
21
-60.915943
31
133.206619
12
-56.608112
22
-60.915943
32
114.094528
13
-57.340210
23
-96.456642
33
97.203186
0
3DFACE
8
0
70
0
10
-36.005554
20
-150.659653
30
97.716942
11
-65.870796
21
-150.659653
31
96.508690
12
-57.340210
22
-96.456642
32
97.203186
13
-39.349094
23
-96.456642
33
97.878189
0
3DFACE
8
0
70
0
10
-29.845003
20
-150.659653
30
135.257660
11
-36.005554
21
-150.659653
31
97.716942
12
-39.349094
22
-96.456642
32
97.878189
13
-35.637920
23
-96.456642
33
118.850655
0
3DFACE
8
0
70
0
10
-46.587688
20
-150.659653
30
150.561478
11
-29.845003
21
-150.659653
31
135.257660
12
-35.637920
22
-96.456642
32
118.850655
13
-45.723877
23
-96.456642
33
127.400276
0
3DFACE
8
0
70
0
10
-46.587688
20
-150.659653
30
150.561478
11
-45.723877
21
-96.456642
31
127.400276
12
-57.340210
22
-96.456642
32
97.203186
13
-65.870796
23
-150.659653
33
96.508690
0
3DFACE
8
0
70
0
10
0.713539
20
147.919083
30
251.159149
11
-34.703510
21
172.449249
31
249.450302
12
-22.244320
22
183.751892
32
231.015366
13
0.619799
23
143.517441
33
234.968155
0
3DFACE
8
0
70
0
10
-7.092246
20
164.152039
30
345.160217
11
1.152356
21
165.507095
31
345.458313
12
1.892524
22
197.551971
32
305.272095
13
-22.445921
23
193.042664
33
304.633881
0
3DFACE
8
0
70
0
10
-8.577668
20
153.831406
30
344.195282
11
-7.092246
21
164.152039
31
345.160217
12
-22.445921
22
193.042664
32
304.633881
13
-26.966412
23
158.209198
33
305.023712
0
3DFACE
8
0
70
0
10
0.851935
20
150.204788
30
344.175934
11
-8.577668
21
153.831406
31
344.195282
12
-26.966412
22
158.209198
32
305.023712
13
0.743162
23
146.315582
33
304.128876
0
3DFACE
8
0
70
0
10
-46.309505
20
248.961166
30
239.566086
11
-43.361012
21
238.771942
31
233.464050
12
-43.914074
22
233.145233
32
232.897766
13
-47.684689
23
232.503693
33
237.893387
0
3DFACE
8
0
70
0
10
-31.898907
20
198.780792
30
252.187042
11
-19.952021
21
200.992325
31
232.757584
12
-22.244320
22
183.751892
32
231.015366
13
-34.703510
23
172.449249
33
249.450302
0
3DFACE
8
0
70
0
10
-43.361012
20
238.771942
30
233.464050
11
-46.309505
21
248.961166
31
239.566086
12
-28.201204
22
231.786469
32
255.548492
13
-18.423208
23
212.245483
33
233.882599
0
3DFACE
8
0
70
0
10
-43.914074
20
233.145233
30
232.897766
11
-43.361012
21
238.771942
31
233.464050
12
-18.423208
22
212.245483
32
233.882599
13
-19.952021
23
200.992325
33
232.757584
0
3DFACE
8
0
70
0
10
-47.684689
20
232.503693
30
237.893387
11
-43.914074
21
233.145233
31
232.897766
12
-19.952021
22
200.992325
32
232.757584
13
-31.898907
23
198.780792
33
252.187042
0
3DFACE
8
0
70
0
10
-47.684689
20
232.503693
30
237.893387
11
-31.898907
21
198.780792
31
252.187042
12
-28.201204
22
231.786469
32
255.548492
13
-46.309505
23
248.961166
33
239.566086
0
3DFACE
8
0
70
0
10
-15.970340
20
224.696594
30
245.056564
11
-28.201204
21
231.786469
31
255.548492
12
3.197360
22
239.674606
32
256.507141
13
-4.215902
23
227.585419
33
245.413956
0
3DFACE
8
0
70
0
10
-5.367884
20
217.827667
30
233.927948
11
-4.215902
21
227.585419
31
245.413956
12
3.197360
22
239.674606
32
256.507141
13
2.274126
23
212.830338
33
226.172653
0
3DFACE
8
0
70
0
10
-12.563906
20
217.599945
30
236.858292
11
-5.367884
21
217.827667
31
233.927948
12
2.274126
22
212.830338
32
226.172653
13
-18.423208
23
212.245483
33
233.882599
0
3DFACE
8
0
70
0
10
-12.563906
20
217.599945
30
236.858292
11
-18.423208
21
212.245483
31
233.882599
12
-28.201204
22
231.786469
32
255.548492
13
-15.970340
23
224.696594
33
245.056564
0
3DFACE
8
0
70
0
10
-45.030937
20
302.089752
30
205.916138
11
-41.887768
21
298.737610
31
206.097427
12
-46.630245
22
296.956421
32
204.489151
13
-47.783314
23
299.384155
33
204.818298
0
3DFACE
8
0
70
0
10
-4.215902
20
227.585419
30
245.413956
11
-5.367884
21
217.827667
31
233.927948
12
-49.404823
22
250.095245
32
225.093842
13
-47.308685
23
259.323273
33
232.074860
0
3DFACE
8
0
70
0
10
-54.404060
20
252.127869
30
226.509659
11
-61.619518
21
262.460266
31
222.064362
12
-56.679821
22
258.581421
32
221.639191
13
-49.404823
23
250.095245
33
225.093842
0
3DFACE
8
0
70
0
10
-47.308685
20
259.323273
30
232.074860
11
-49.404823
21
250.095245
31
225.093842
12
-56.679821
22
258.581421
32
221.639191
13
-53.771175
23
267.030518
33
227.358597
0
3DFACE
8
0
70
0
10
-86.061348
20
269.475830
30
199.609665
11
-84.910645
21
274.105438
31
199.657532
12
-85.223709
22
272.785400
32
197.242371
13
-85.911552
23
268.172729
33
196.902084
0
3DFACE
8
0
70
0
10
-15.970340
20
224.696594
30
245.056564
11
-55.542618
21
259.003845
31
231.644989
12
-54.404060
22
252.127869
32
226.509659
13
-12.563906
23
217.599945
33
236.858292
0
3DFACE
8
0
70
0
10
-55.542618
20
259.003845
30
231.644989
11
-47.308685
21
259.323273
31
232.074860
12
-53.771175
22
267.030518
32
227.358597
13
-62.021580
23
269.495941
33
225.832092
0
3DFACE
8
0
70
0
10
-12.563906
20
217.599945
30
236.858292
11
-54.404060
21
252.127869
31
226.509659
12
-49.404823
22
250.095245
32
225.093842
13
-5.367884
23
217.827667
33
233.927948
0
3DFACE
8
0
70
0
10
-51.662514
20
286.285065
30
215.996933
11
-47.118755
21
285.046051
31
214.893433
12
-47.336239
22
288.106049
32
212.815643
13
-50.690868
23
293.167450
33
212.044464
0
3DFACE
8
0
70
0
10
-62.021580
20
269.495941
30
225.832092
11
-53.771175
21
267.030518
31
227.358597
12
-47.118755
22
285.046051
32
214.893433
13
-51.662514
23
286.285065
33
215.996933
0
3DFACE
8
0
70
0
10
-53.631721
20
283.292908
30
212.870636
11
-53.613625
21
290.220764
31
209.863205
12
-52.645046
22
286.410675
32
209.601730
13
-52.022545
23
281.916595
33
211.520859
0
3DFACE
8
0
70
0
10
-61.619518
20
262.460266
30
222.064362
11
-53.631721
21
283.292908
31
212.870636
12
-52.022545
22
281.916595
32
211.520859
13
-56.679821
23
258.581421
33
221.639191
0
3DFACE
8
0
70
0
10
-32.473907
20
285.395630
30
202.548431
11
-34.043903
21
287.464233
31
202.182632
12
-31.771481
22
289.233124
32
204.017426
13
-30.737572
23
287.681732
33
204.663071
0
3DFACE
8
0
70
0
10
-56.679821
20
258.581421
30
221.639191
11
-52.022545
21
281.916595
31
211.520859
12
-47.118755
22
285.046051
32
214.893433
13
-53.771175
23
267.030518
33
227.358597
0
3DFACE
8
0
70
0
10
-51.662514
20
286.285065
30
215.996933
11
-50.690868
21
293.167450
31
212.044464
12
-53.613625
22
290.220764
32
209.863205
13
-53.631721
23
283.292908
33
212.870636
0
3DFACE
8
0
70
0
10
-61.619518
20
262.460266
30
222.064362
11
-62.021580
21
269.495941
31
225.832092
12
-51.662514
22
286.285065
32
215.996933
13
-53.631721
23
283.292908
33
212.870636
0
3DFACE
8
0
70
0
10
-48.419441
20
296.754395
30
209.582596
11
-43.654522
21
295.298584
31
208.272491
12
-41.887768
22
298.737610
32
206.097427
13
-45.030937
23
302.089752
33
205.916138
0
3DFACE
8
0
70
0
10
-47.336239
20
288.106049
30
212.815643
11
-52.645046
21
286.410675
31
209.601730
12
-48.639904
22
293.440765
32
206.195343
13
-43.654522
23
295.298584
33
208.272491
0
3DFACE
8
0
70
0
10
-52.645046
20
286.410675
30
209.601730
11
-53.613625
21
290.220764
31
209.863205
12
-50.769230
22
294.697784
32
207.400116
13
-48.639904
23
293.440765
33
206.195343
0
3DFACE
8
0
70
0
10
-60.028030
20
291.448792
30
195.236908
11
-59.141636
21
292.603271
31
197.923935
12
-56.880020
22
294.905792
32
198.051208
13
-57.422691
23
294.233734
33
195.722900
0
3DFACE
8
0
70
0
10
-47.336239
20
288.106049
30
212.815643
11
-43.654522
21
295.298584
31
208.272491
12
-48.419441
22
296.754395
32
209.582596
13
-50.690868
23
293.167450
33
212.044464
0
3DFACE
8
0
70
0
10
-43.654522
20
295.298584
30
208.272491
11
-48.639904
21
293.440765
31
206.195343
12
-46.630245
22
296.956421
32
204.489151
13
-41.887768
23
298.737610
33
206.097427
0
3DFACE
8
0
70
0
10
-50.769230
20
294.697784
30
207.400116
11
-47.783314
21
299.384155
31
204.818298
12
-46.630245
22
296.956421
32
204.489151
13
-48.639904
23
293.440765
33
206.195343
0
3DFACE
8
0
70
0
10
-48.419441
20
296.754395
30
209.582596
11
-45.030937
21
302.089752
31
205.916138
12
-47.783314
22
299.384155
32
204.818298
13
-50.769230
23
294.697784
33
207.400116
0
3DFACE
8
0
70
0
10
-55.542618
20
259.003845
30
231.644989
11
-62.021580
21
269.495941
31
225.832092
12
-65.340584
22
266.778351
32
224.197266
13
-59.490490
23
257.346466
33
229.431274
0
3DFACE
8
0
70
0
10
-62.021580
20
269.495941
30
225.832092
11
-61.619518
21
262.460266
31
222.064362
12
-64.970070
22
260.443268
32
220.810089
13
-65.340584
23
266.778351
33
224.197266
0
3DFACE
8
0
70
0
10
-61.619518
20
262.460266
30
222.064362
11
-54.404060
21
252.127869
31
226.509659
12
-58.458759
22
251.153412
32
224.812851
13
-64.970070
23
260.443268
33
220.810089
0
3DFACE
8
0
70
0
10
-54.404060
20
252.127869
30
226.509659
11
-55.542618
21
259.003845
31
231.644989
12
-59.490490
22
257.346466
32
229.431274
13
-58.458759
23
251.153412
33
224.812851
0
3DFACE
8
0
70
0
10
-59.490490
20
257.346466
30
229.431274
11
-65.340584
21
266.778351
31
224.197266
12
-67.911423
22
264.117950
32
223.190231
13
-65.622948
23
253.882828
33
226.675659
0
3DFACE
8
0
70
0
10
-65.340584
20
266.778351
30
224.197266
11
-64.970070
21
260.443268
31
220.810089
12
-68.304955
22
259.139801
32
219.093323
13
-67.911423
23
264.117950
33
223.190231
0
3DFACE
8
0
70
0
10
-64.970070
20
260.443268
30
220.810089
11
-58.458759
21
251.153412
31
224.812851
12
-65.215561
22
249.066284
32
221.607544
13
-68.304955
23
259.139801
33
219.093323
0
3DFACE
8
0
70
0
10
-58.458759
20
251.153412
30
224.812851
11
-59.490490
21
257.346466
31
229.431274
12
-65.622948
22
253.882828
32
226.675659
13
-65.215561
23
249.066284
33
221.607544
0
3DFACE
8
0
70
0
10
-65.622948
20
253.882828
30
226.675659
11
-67.911423
21
264.117950
31
223.190231
12
-69.349159
22
263.958496
32
221.521118
13
-70.959503
23
254.153748
33
222.136124
0
3DFACE
8
0
70
0
10
-67.911423
20
264.117950
30
223.190231
11
-68.304955
21
259.139801
31
219.093323
12
-70.032547
22
260.834900
32
216.691483
13
-69.349159
23
263.958496
33
221.521118
0
3DFACE
8
0
70
0
10
-68.304955
20
259.139801
30
219.093323
11
-65.215561
21
249.066284
31
221.607544
12
-70.712318
22
251.104614
32
216.642670
13
-70.032547
23
260.834900
33
216.691483
0
3DFACE
8
0
70
0
10
-65.215561
20
249.066284
30
221.607544
11
-65.622948
21
253.882828
31
226.675659
12
-70.959503
22
254.153748
32
222.136124
13
-70.712318
23
251.104614
33
216.642670
0
3DFACE
8
0
70
0
10
-70.959503
20
254.153748
30
222.136124
11
-69.349159
21
263.958496
31
221.521118
12
-71.591087
22
264.890167
32
218.571671
13
-73.429901
23
256.121490
33
218.779724
0
3DFACE
8
0
70
0
10
-69.349159
20
263.958496
30
221.521118
11
-70.032547
21
260.834900
31
216.691483
12
-72.196831
22
262.257874
32
214.115219
13
-71.591087
23
264.890167
33
218.571671
0
3DFACE
8
0
70
0
10
-70.032547
20
260.834900
30
216.691483
11
-70.712318
21
251.104614
31
216.642670
12
-73.179420
22
253.539368
32
213.751419
13
-72.196831
23
262.257874
33
214.115219
0
3DFACE
8
0
70
0
10
-70.712318
20
251.104614
30
216.642670
11
-70.959503
21
254.153748
31
222.136124
12
-73.429901
22
256.121490
32
218.779724
13
-73.179420
23
253.539368
33
213.751419
0
3DFACE
8
0
70
0
10
-73.429901
20
256.121490
30
218.779724
11
-71.591087
21
264.890167
31
218.571671
12
-74.212692
22
265.498779
32
215.589859
13
-75.867058
23
257.604614
33
215.776917
0
3DFACE
8
0
70
0
10
-71.591087
20
264.890167
30
218.571671
11
-72.196831
21
262.257874
31
214.115219
12
-74.757423
22
263.128784
32
211.578934
13
-74.212692
23
265.498779
33
215.589859
0
3DFACE
8
0
70
0
10
-72.196831
20
262.257874
30
214.115219
11
-73.179420
21
253.539368
31
213.751419
12
-75.641380
22
255.279388
32
211.251373
13
-74.757423
23
263.128784
33
211.578934
0
3DFACE
8
0
70
0
10
-73.179420
20
253.539368
30
213.751419
11
-73.429901
21
256.121490
31
218.779724
12
-75.867058
22
257.604614
32
215.776917
13
-75.641380
23
255.279388
33
211.251373
0
3DFACE
8
0
70
0
10
-75.867058
20
257.604614
30
215.776917
11
-74.212692
21
265.498779
31
215.589859
12
-76.347206
22
266.434723
32
212.832092
13
-78.481537
23
259.509216
33
212.372925
0
3DFACE
8
0
70
0
10
-74.212692
20
265.498779
30
215.589859
11
-74.757423
21
263.128784
31
211.578934
12
-76.791336
22
264.624481
32
209.048492
13
-76.347206
23
266.434723
33
212.832092
0
3DFACE
8
0
70
0
10
-74.757423
20
263.128784
30
211.578934
11
-75.641380
21
255.279388
31
211.251373
12
-78.203262
22
257.706085
32
208.170609
13
-76.791336
23
264.624481
33
209.048492
0
3DFACE
8
0
70
0
10
-75.641380
20
255.279388
30
211.251373
11
-75.867058
21
257.604614
31
215.776917
12
-78.481537
22
259.509216
32
212.372925
13
-78.203262
23
257.706085
33
208.170609
0
3DFACE
8
0
70
0
10
-78.481537
20
259.509216
30
212.372925
11
-76.347206
21
266.434723
31
212.832092
12
-78.042923
22
267.662994
32
210.277756
13
-80.479378
23
261.680206
33
209.294891
0
3DFACE
8
0
70
0
10
-76.347206
20
266.434723
30
212.832092
11
-76.791336
21
264.624481
31
209.048492
12
-78.366966
22
266.323273
32
206.744034
13
-78.042923
23
267.662994
33
210.277756
0
3DFACE
8
0
70
0
10
-76.791336
20
264.624481
30
209.048492
11
-78.203262
21
257.706085
31
208.170609
12
-80.132889
22
260.312653
32
205.422638
13
-78.366966
23
266.323273
33
206.744034
0
3DFACE
8
0
70
0
10
-78.203262
20
257.706085
30
208.170609
11
-78.481537
21
259.509216
31
212.372925
12
-80.479378
22
261.680206
32
209.294891
13
-80.132889
23
260.312653
33
205.422638
0
3DFACE
8
0
70
0
10
-80.479378
20
261.680206
30
209.294891
11
-78.042923
21
267.662994
31
210.277756
12
-79.874130
22
269.954987
32
206.968323
13
-82.156609
23
264.625214
33
205.978561
0
3DFACE
8
0
70
0
10
-78.042923
20
267.662994
30
210.277756
11
-78.366966
21
266.323273
31
206.744034
12
-80.148193
22
268.801910
32
203.767273
13
-79.874130
23
269.954987
33
206.968323
0
3DFACE
8
0
70
0
10
-78.366966
20
266.323273
30
206.744034
11
-80.132889
21
260.312653
31
205.422638
12
-81.823975
22
263.439911
32
202.479675
13
-80.148193
23
268.801910
33
203.767273
0
3DFACE
8
0
70
0
10
-80.132889
20
260.312653
30
205.422638
11
-80.479378
21
261.680206
31
209.294891
12
-82.156609
22
264.625214
32
205.978561
13
-81.823975
23
263.439911
33
202.479675
0
3DFACE
8
0
70
0
10
-82.156609
20
264.625214
30
205.978561
11
-79.874130
21
269.954987
31
206.968323
12
-82.341850
22
272.586029
32
202.974701
13
-83.990143
23
267.569275
33
202.547836
0
3DFACE
8
0
70
0
10
-79.874130
20
269.954987
30
206.968323
11
-80.148193
21
268.801910
31
203.767273
12
-82.655563
22
271.312073
32
200.193604
13
-82.341850
23
272.586029
33
202.974701
0
3DFACE
8
0
70
0
10
-80.148193
20
268.801910
30
203.767273
11
-81.823975
21
263.439911
31
202.479675
12
-83.773376
22
266.294037
32
199.467896
13
-82.655563
23
271.312073
33
200.193604
0
3DFACE
8
0
70
0
10
-81.823975
20
263.439911
30
202.479675
11
-82.156609
21
264.625214
31
205.978561
12
-83.990143
22
267.569275
32
202.547836
13
-83.773376
23
266.294037
33
199.467896
0
3DFACE
8
0
70
0
10
-83.990143
20
267.569275
30
202.547836
11
-82.341850
21
272.586029
31
202.974701
12
-84.910645
22
274.105438
32
199.657532
13
-86.061348
23
269.475830
33
199.609665
0
3DFACE
8
0
70
0
10
-82.341850
20
272.586029
30
202.974701
11
-82.655563
21
271.312073
31
200.193604
12
-85.223709
22
272.785400
32
197.242371
13
-84.910645
23
274.105438
33
199.657532
0
3DFACE
8
0
70
0
10
-82.655563
20
271.312073
30
200.193604
11
-83.773376
21
266.294037
31
199.467896
12
-85.911552
22
268.172729
32
196.902084
13
-85.223709
23
272.785400
33
197.242371
0
3DFACE
8
0
70
0
10
-83.773376
20
266.294037
30
199.467896
11
-83.990143
21
267.569275
31
202.547836
12
-86.061348
22
269.475830
32
199.609665
13
-85.911552
23
268.172729
33
196.902084
0
3DFACE
8
0
70
0
10
-52.022545
20
281.916595
30
211.520859
11
-52.645046
21
286.410675
31
209.601730
12
-48.529251
22
284.516510
32
208.289413
13
-47.508511
23
280.472565
33
209.792953
0
3DFACE
8
0
70
0
10
-52.645046
20
286.410675
30
209.601730
11
-47.336239
21
288.106049
31
212.815643
12
-43.882210
22
286.387878
32
211.189651
13
-48.529251
23
284.516510
33
208.289413
0
3DFACE
8
0
70
0
10
-47.336239
20
288.106049
30
212.815643
11
-47.118755
21
285.046051
31
214.893433
12
-43.357033
22
283.578827
32
212.908569
13
-43.882210
23
286.387878
33
211.189651
0
3DFACE
8
0
70
0
10
-47.118755
20
285.046051
30
214.893433
11
-52.022545
21
281.916595
31
211.520859
12
-47.508511
22
280.472565
32
209.792953
13
-43.357033
23
283.578827
33
212.908569
0
3DFACE
8
0
70
0
10
-47.508511
20
280.472565
30
209.792953
11
-48.529251
21
284.516510
31
208.289413
12
-45.776070
22
283.974457
32
207.383072
13
-44.585361
23
280.365143
33
208.599274
0
3DFACE
8
0
70
0
10
-48.529251
20
284.516510
30
208.289413
11
-43.882210
21
286.387878
31
211.189651
12
-41.689449
22
285.856934
32
210.007782
13
-45.776070
23
283.974457
33
207.383072
0
3DFACE
8
0
70
0
10
-43.882210
20
286.387878
30
211.189651
11
-43.357033
21
283.578827
31
212.908569
12
-41.019135
22
283.317230
32
211.460632
13
-41.689449
23
285.856934
33
210.007782
0
3DFACE
8
0
70
0
10
-43.357033
20
283.578827
30
212.908569
11
-47.508511
21
280.472565
31
209.792953
12
-44.585361
22
280.365143
32
208.599274
13
-41.019135
23
283.317230
33
211.460632
0
3DFACE
8
0
70
0
10
-44.585361
20
280.365143
30
208.599274
11
-45.776070
21
283.974457
31
207.383072
12
-42.881557
22
282.852051
32
206.467392
13
-40.895008
23
279.912323
33
207.067429
0
3DFACE
8
0
70
0
10
-45.776070
20
283.974457
30
207.383072
11
-41.689449
21
285.856934
31
210.007782
12
-39.658222
22
285.173370
32
208.949280
13
-42.881557
23
282.852051
33
206.467392
0
3DFACE
8
0
70
0
10
-41.689449
20
285.856934
30
210.007782
11
-41.019135
21
283.317230
31
211.460632
12
-38.369595
22
282.993805
32
209.906570
13
-39.658222
23
285.173370
33
208.949280
0
3DFACE
8
0
70
0
10
-41.019135
20
283.317230
30
211.460632
11
-44.585361
21
280.365143
31
208.599274
12
-40.895008
22
279.912323
32
207.067429
13
-38.369595
23
282.993805
33
209.906570
0
3DFACE
8
0
70
0
10
-40.895008
20
279.912323
30
207.067429
11
-42.881557
21
282.852051
31
206.467392
12
-39.688087
22
284.109558
32
204.990921
13
-37.012539
23
282.265411
33
204.969711
0
3DFACE
8
0
70
0
10
-42.881557
20
282.852051
30
206.467392
11
-39.658222
21
285.173370
31
208.949280
12
-37.543175
22
286.712372
32
207.509384
13
-39.688087
23
284.109558
33
204.990921
0
3DFACE
8
0
70
0
10
-39.658222
20
285.173370
30
208.949280
11
-38.369595
21
282.993805
31
209.906570
12
-35.668087
22
285.205353
32
207.949661
13
-37.543175
23
286.712372
33
207.509384
0
3DFACE
8
0
70
0
10
-38.369595
20
282.993805
30
209.906570
11
-40.895008
21
279.912323
31
207.067429
12
-37.012539
22
282.265411
32
204.969711
13
-35.668087
23
285.205353
33
207.949661
0
3DFACE
8
0
70
0
10
-37.012539
20
282.265411
30
204.969711
11
-39.688087
21
284.109558
31
204.990921
12
-37.026787
22
286.448608
32
203.570648
13
-34.830795
23
284.526215
33
203.696899
0
3DFACE
8
0
70
0
10
-39.688087
20
284.109558
30
204.990921
11
-37.543175
21
286.712372
31
207.509384
12
-34.868889
22
288.681396
32
205.744583
13
-37.026787
23
286.448608
33
203.570648
0
3DFACE
8
0
70
0
10
-37.543175
20
286.712372
30
207.509384
11
-35.668087
21
285.205353
31
207.949661
12
-33.359360
22
287.166656
32
206.252884
13
-34.868889
23
288.681396
33
205.744583
0
3DFACE
8
0
70
0
10
-35.668087
20
285.205353
30
207.949661
11
-37.012539
21
282.265411
31
204.969711
12
-34.830795
22
284.526215
32
203.696899
13
-33.359360
23
287.166656
33
206.252884
0
3DFACE
8
0
70
0
10
-34.830795
20
284.526215
30
203.696899
11
-37.026787
21
286.448608
31
203.570648
12
-34.043903
22
287.464233
32
202.182632
13
-32.473907
23
285.395630
33
202.548431
0
3DFACE
8
0
70
0
10
-37.026787
20
286.448608
30
203.570648
11
-34.868889
21
288.681396
31
205.744583
12
-31.771481
22
289.233124
32
204.017426
13
-34.043903
23
287.464233
33
202.182632
0
3DFACE
8
0
70
0
10
-34.868889
20
288.681396
30
205.744583
11
-33.359360
21
287.166656
31
206.252884
12
-30.737572
22
287.681732
32
204.663071
13
-31.771481
23
289.233124
33
204.017426
0
3DFACE
8
0
70
0
10
-33.359360
20
287.166656
30
206.252884
11
-34.830795
21
284.526215
31
203.696899
12
-32.473907
22
285.395630
32
202.548431
13
-30.737572
23
287.681732
33
204.663071
0
3DFACE
8
0
70
0
10
-53.613625
20
290.220764
30
209.863205
11
-50.690868
21
293.167450
31
212.044464
12
-54.187756
22
292.262848
32
209.015350
13
-56.646576
23
289.783356
33
206.656357
0
3DFACE
8
0
70
0
10
-50.690868
20
293.167450
30
212.044464
11
-48.419441
21
296.754395
31
209.582596
12
-51.845570
22
295.539581
32
207.190460
13
-54.187756
23
292.262848
33
209.015350
0
3DFACE
8
0
70
0
10
-48.419441
20
296.754395
30
209.582596
11
-50.769230
21
294.697784
31
207.400116
12
-53.773746
22
293.845856
32
204.924850
13
-51.845570
23
295.539581
33
207.190460
0
3DFACE
8
0
70
0
10
-50.769230
20
294.697784
30
207.400116
11
-53.613625
21
290.220764
31
209.863205
12
-56.646576
22
289.783356
32
206.656357
13
-53.773746
23
293.845856
33
204.924850
0
3DFACE
8
0
70
0
10
-56.646576
20
289.783356
30
206.656357
11
-54.187756
21
292.262848
31
209.015350
12
-56.299534
22
291.882568
32
206.494843
13
-57.991196
23
290.067474
33
203.642120
0
3DFACE
8
0
70
0
10
-54.187756
20
292.262848
30
209.015350
11
-51.845570
21
295.539581
31
207.190460
12
-53.714542
22
294.833862
32
205.785141
13
-56.299534
23
291.882568
33
206.494843
0
3DFACE
8
0
70
0
10
-51.845570
20
295.539581
30
207.190460
11
-53.773746
21
293.845856
31
204.924850
12
-54.934605
22
293.675140
32
203.215927
13
-53.714542
23
294.833862
33
205.785141
0
3DFACE
8
0
70
0
10
-53.773746
20
293.845856
30
204.924850
11
-56.646576
21
289.783356
31
206.656357
12
-57.991196
22
290.067474
32
203.642120
13
-54.934605
23
293.675140
33
203.215927
0
3DFACE
8
0
70
0
10
-57.991196
20
290.067474
30
203.642120
11
-56.299534
21
291.882568
31
206.494843
12
-58.054214
22
292.144501
32
201.968872
13
-59.140057
23
290.799774
33
199.045029
0
3DFACE
8
0
70
0
10
-56.299534
20
291.882568
30
206.494843
11
-53.714542
21
294.833862
31
205.785141
12
-55.560986
22
294.726318
32
201.972824
13
-58.054214
23
292.144501
33
201.968872
0
3DFACE
8
0
70
0
10
-53.714542
20
294.833862
30
205.785141
11
-54.934605
21
293.675140
31
203.215927
12
-56.255161
22
293.928040
32
199.423767
13
-55.560986
23
294.726318
33
201.972824
0
3DFACE
8
0
70
0
10
-54.934605
20
293.675140
30
203.215927
11
-57.991196
21
290.067474
31
203.642120
12
-59.140057
22
290.799774
32
199.045029
13
-56.255161
23
293.928040
33
199.423767
0
3DFACE
8
0
70
0
10
-59.140057
20
290.799774
30
199.045029
11
-58.054214
21
292.144501
31
201.968872
12
-59.141636
22
292.603271
32
197.923935
13
-60.028030
23
291.448792
33
195.236908
0
3DFACE
8
0
70
0
10
-58.054214
20
292.144501
30
201.968872
11
-55.560986
21
294.726318
31
201.972824
12
-56.880020
22
294.905792
32
198.051208
13
-59.141636
23
292.603271
33
197.923935
0
3DFACE
8
0
70
0
10
-55.560986
20
294.726318
30
201.972824
11
-56.255161
21
293.928040
31
199.423767
12
-57.422691
22
294.233734
32
195.722900
13
-56.880020
23
294.905792
33
198.051208
0
3DFACE
8
0
70
0
10
-56.255161
20
293.928040
30
199.423767
11
-59.140057
21
290.799774
31
199.045029
12
-60.028030
22
291.448792
32
195.236908
13
-57.422691
23
294.233734
33
195.722900
0
3DFACE
8
0
70
0
10
11.790988
20
116.954567
30
-60.029388
11
42.727314
21
103.890625
31
-51.406666
12
-1.447137
22
107.763100
32
-67.470177
13
-1.417670
23
116.591606
33
-63.630505
0
3DFACE
8
0
70
0
10
11.790988
20
116.954567
30
-60.029388
11
9.745388
21
124.274139
31
-52.738594
12
37.175163
22
124.622139
32
-41.702217
13
42.727314
23
103.890625
33
-51.406666
0
3DFACE
8
0
70
0
10
9.745388
20
124.274139
30
-52.738594
11
-1.301577
21
125.605400
31
-54.704350
12
-1.248955
22
131.981766
32
-50.107136
13
37.175163
23
124.622139
33
-41.702217
0
3DFACE
8
0
70
0
10
-12.263172
20
124.220665
30
-52.355076
11
-39.299732
21
124.436394
31
-40.369576
12
-1.248955
22
131.981766
32
-50.107136
13
-1.301577
23
125.605400
33
-54.704350
0
3DFACE
8
0
70
0
10
-14.497451
20
116.890724
30
-59.571285
11
-45.010426
21
103.677536
31
-49.877750
12
-39.299732
22
124.436394
32
-40.369576
13
-12.263172
23
124.220665
33
-52.355076
0
3DFACE
8
0
70
0
10
-14.497451
20
116.890724
30
-59.571285
11
-1.417670
21
116.591606
31
-63.630505
12
-1.447137
22
107.763100
32
-67.470177
13
-45.010426
23
103.677536
33
-49.877750
0
3DFACE
8
0
70
0
10
-1.615990
20
113.323280
30
-75.959702
11
13.437099
21
120.092407
31
-73.313347
12
11.790988
22
116.954567
32
-60.029388
13
-1.417670
23
116.591606
33
-63.630505
0
3DFACE
8
0
70
0
10
13.437099
20
120.092407
30
-73.313347
11
11.194163
21
135.140198
31
-62.092865
12
9.745388
22
124.274139
32
-52.738594
13
11.790988
23
116.954567
33
-60.029388
0
3DFACE
8
0
70
0
10
11.194163
20
135.140198
30
-62.092865
11
-1.464460
21
141.767883
31
-60.294991
12
-1.301577
22
125.605400
32
-54.704350
13
9.745388
23
124.274139
33
-52.738594
0
3DFACE
8
0
70
0
10
-14.122220
20
135.078690
30
-61.651707
11
-12.263172
21
124.220665
31
-52.355076
12
-1.301577
22
125.605400
32
-54.704350
13
-1.464460
23
141.767883
33
-60.294991
0
3DFACE
8
0
70
0
10
-16.624817
20
120.019394
30
-72.789490
11
-14.497451
21
116.890724
31
-59.571285
12
-12.263172
22
124.220665
32
-52.355076
13
-14.122220
23
135.078690
33
-61.651707
0
3DFACE
8
0
70
0
10
-1.615990
20
113.323280
30
-75.959702
11
-1.417670
21
116.591606
31
-63.630505
12
-14.497451
22
116.890724
32
-59.571285
13
-16.624817
23
120.019394
33
-72.789490
0
3DFACE
8
0
70
0
10
-1.840780
20
133.802261
30
-84.114723
11
1.498623
21
134.976456
31
-83.874100
12
13.437099
22
120.092407
32
-73.313347
13
-1.615990
23
113.323280
33
-75.959702
0
3DFACE
8
0
70
0
10
1.498623
20
134.976456
30
-83.874100
11
1.024527
21
143.522507
31
-81.782295
12
11.194163
22
135.140198
32
-62.092865
13
13.437099
23
120.092407
33
-73.313347
0
3DFACE
8
0
70
0
10
1.024527
20
143.522507
30
-81.782295
11
-1.840218
21
144.320450
31
-81.550720
12
-1.464460
22
141.767883
32
-60.294991
13
11.194163
23
135.140198
33
-62.092865
0
3DFACE
8
0
70
0
10
-4.704548
20
143.508575
30
-81.682457
11
-14.122220
21
135.078690
31
-61.651707
12
-1.464460
22
141.767883
32
-60.294991
13
-1.840218
23
144.320450
33
-81.550720
0
3DFACE
8
0
70
0
10
-5.179558
20
134.960220
30
-83.757721
11
-16.624817
21
120.019394
31
-72.789490
12
-14.122220
22
135.078690
32
-61.651707
13
-4.704548
23
143.508575
33
-81.682457
0
3DFACE
8
0
70
0
10
-1.840780
20
133.802261
30
-84.114723
11
-1.615990
21
113.323280
31
-75.959702
12
-16.624817
22
120.019394
32
-72.789490
13
-5.179558
23
134.960220
33
-83.757721
0
3DFACE
8
0
70
0
10
2.765943
20
226.947464
30
279.050385
11
1.892524
21
197.551971
31
305.272095
12
25.953819
22
191.777908
32
304.541199
13
29.491018
23
219.422668
33
278.287750
0
3DFACE
8
0
70
0
10
0.847369
20
153.998749
30
271.354187
11
32.699337
21
168.390533
31
272.937378
12
28.874634
22
157.114838
32
304.965118
13
0.743162
23
146.315582
33
304.128876
0
3DFACE
8
0
70
0
10
2.765943
20
226.947464
30
279.050385
11
-24.396158
21
221.071442
31
278.432617
12
-22.445921
22
193.042664
32
304.633881
13
1.892524
23
197.551971
33
305.272095
0
3DFACE
8
0
70
0
10
0.847369
20
153.998749
30
271.354187
11
0.743162
21
146.315582
31
304.128876
12
-26.966412
22
158.209198
32
305.023712
13
-30.384535
23
169.724106
33
273.014771
0
3DFACE
8
0
70
0
10
33.970940
20
229.797012
30
255.364044
11
3.197360
21
239.674606
31
256.507141
12
2.765943
22
226.947464
32
279.050385
13
29.491018
23
219.422668
33
278.287750
0
3DFACE
8
0
70
0
10
33.970940
20
229.797012
30
255.364044
11
29.491018
21
219.422668
31
278.287750
12
32.699337
22
168.390533
32
272.937378
13
37.083038
23
170.929810
33
249.361984
0
3DFACE
8
0
70
0
10
37.083038
20
170.929810
30
249.361984
11
32.699337
21
168.390533
31
272.937378
12
0.847369
22
153.998749
32
271.354187
13
0.713539
23
147.919083
33
251.159149
0
3DFACE
8
0
70
0
10
-28.201204
20
231.786469
30
255.548492
11
-24.396158
21
221.071442
31
278.432617
12
2.765943
22
226.947464
32
279.050385
13
3.197360
23
239.674606
33
256.507141
0
3DFACE
8
0
70
0
10
-28.201204
20
231.786469
30
255.548492
11
-34.703510
21
172.449249
31
249.450302
12
-30.384535
22
169.724106
32
273.014771
13
-24.396158
23
221.071442
33
278.432617
0
3DFACE
8
0
70
0
10
-34.703510
20
172.449249
30
249.450302
11
0.713539
21
147.919083
31
251.159149
12
0.847369
22
153.998749
32
271.354187
13
-30.384535
23
169.724106
33
273.014771
0
3DFACE
8
0
70
0
10
14.337152
20
215.318527
30
296.745117
11
17.803371
21
218.670944
31
295.556732
12
14.493299
22
220.141006
32
295.706696
13
14.493299
23
220.141006
33
295.706696
0
3DFACE
8
0
70
0
10
14.337152
20
215.318527
30
296.745117
11
19.084364
21
215.331635
31
295.212830
12
17.803371
22
218.670944
32
295.556732
13
17.803371
23
218.670944
33
295.556732
0
3DFACE
8
0
70
0
10
17.588938
20
212.077332
30
294.875488
11
19.084364
21
215.331635
31
295.212830
12
14.337152
22
215.318527
32
296.745117
13
14.337152
23
215.318527
33
296.745117
0
3DFACE
8
0
70
0
10
14.193177
20
210.810608
30
294.742279
11
17.588938
21
212.077332
31
294.875488
12
14.337152
22
215.318527
32
296.745117
13
14.337152
23
215.318527
33
296.745117
0
3DFACE
8
0
70
0
10
14.193177
20
210.810608
30
294.742279
11
14.337152
21
215.318527
31
296.745117
12
10.883237
22
212.275467
32
294.892242
13
10.883237
23
212.275467
33
294.892242
0
3DFACE
8
0
70
0
10
10.883237
20
212.275467
30
294.892242
11
14.337152
21
215.318527
31
296.745117
12
9.597954
22
215.617462
32
295.237488
13
9.597954
23
215.617462
33
295.237488
0
3DFACE
8
0
70
0
10
14.337152
20
215.318527
30
296.745117
11
11.093247
21
218.876984
31
295.574921
12
9.597954
22
215.617462
32
295.237488
13
9.597954
23
215.617462
33
295.237488
0
3DFACE
8
0
70
0
10
14.337152
20
215.318527
30
296.745117
11
14.493299
21
220.141006
31
295.706696
12
11.093247
22
218.876984
32
295.574921
13
11.093247
23
218.876984
33
295.574921
0
3DFACE
8
0
70
0
10
17.803371
20
218.670944
30
295.556732
11
19.956539
21
221.052322
31
291.781464
12
14.600916
22
223.433090
32
292.024109
13
14.493299
23
220.141006
33
295.706696
0
3DFACE
8
0
70
0
10
19.084364
20
215.331635
30
295.212830
11
22.026318
21
215.651794
31
291.226044
12
19.956539
22
221.052322
32
291.781464
13
17.803371
23
218.670944
33
295.556732
0
3DFACE
8
0
70
0
10
19.605946
20
210.390121
30
290.680481
11
22.026318
21
215.651794
31
291.226044
12
19.084364
22
215.331635
32
295.212830
13
17.588938
23
212.077332
33
294.875488
0
3DFACE
8
0
70
0
10
14.113316
20
208.339691
30
290.464294
11
19.605946
21
210.390121
31
290.680481
12
17.588938
22
212.077332
32
294.875488
13
14.193177
23
210.810608
33
294.742279
0
3DFACE
8
0
70
0
10
14.113316
20
208.339691
30
290.464294
11
14.193177
21
210.810608
31
294.742279
12
10.883237
22
212.275467
32
294.892242
13
8.758016
23
210.706741
33
290.706818
0
3DFACE
8
0
70
0
10
8.758016
20
210.706741
30
290.706818
11
10.883237
21
212.275467
31
294.892242
12
9.597954
22
215.617462
32
295.237488
13
6.676983
23
216.114288
33
291.265961
0
3DFACE
8
0
70
0
10
9.597954
20
215.617462
30
295.237488
11
11.093247
21
218.876984
31
295.574921
12
9.097033
22
221.389679
32
291.811646
13
6.676983
23
216.114288
33
291.265961
0
3DFACE
8
0
70
0
10
11.093247
20
218.876984
30
295.574921
11
14.493299
21
220.141006
31
295.706696
12
14.600916
22
223.433090
32
292.024109
13
9.097033
23
221.389679
33
291.811646
0
3DFACE
8
0
70
0
10
19.956539
20
221.052322
30
291.781464
11
19.970409
21
221.555664
31
286.862732
12
14.615168
22
223.935776
32
287.105225
13
14.600916
23
223.433090
33
292.024109
0
3DFACE
8
0
70
0
10
22.026318
20
215.651794
30
291.226044
11
22.039288
21
216.156677
31
286.307587
12
19.970409
22
221.555664
32
286.862732
13
19.956539
23
221.052322
33
291.781464
0
3DFACE
8
0
70
0
10
19.605946
20
210.390121
30
290.680481
11
19.618040
21
210.896622
31
285.762329
12
22.039288
22
216.156677
32
286.307587
13
22.026318
23
215.651794
33
291.226044
0
3DFACE
8
0
70
0
10
14.113316
20
208.339691
30
290.464294
11
14.125058
21
208.846878
31
285.546234
12
19.618040
22
210.896622
32
285.762329
13
19.605946
23
210.390121
33
290.680481
0
3DFACE
8
0
70
0
10
14.113316
20
208.339691
30
290.464294
11
8.758016
21
210.706741
31
290.706818
12
8.770111
22
211.213242
32
285.788635
13
14.125058
23
208.846878
33
285.546234
0
3DFACE
8
0
70
0
10
8.758016
20
210.706741
30
290.706818
11
6.676983
21
216.114288
31
291.265961
12
6.689952
22
216.619202
32
286.347534
13
8.770111
23
211.213242
33
285.788635
0
3DFACE
8
0
70
0
10
6.676983
20
216.114288
30
291.265961
11
9.097033
21
221.389679
31
291.811646
12
9.110902
22
221.893021
32
286.892914
13
6.689952
23
216.619202
33
286.347534
0
3DFACE
8
0
70
0
10
9.097033
20
221.389679
30
291.811646
11
14.600916
21
223.433090
31
292.024109
12
14.615168
22
223.935776
32
287.105225
13
9.110902
23
221.893021
33
286.892914
0
3DFACE
8
0
70
0
10
17.838774
20
219.990250
30
282.679443
11
14.529308
21
221.459290
31
282.829224
12
14.615168
22
223.935776
32
287.105225
13
19.970409
23
221.555664
33
286.862732
0
3DFACE
8
0
70
0
10
22.039288
20
216.156677
30
286.307587
11
19.118319
21
216.653503
31
282.336060
12
17.838774
22
219.990250
32
282.679443
13
19.970409
23
221.555664
33
286.862732
0
3DFACE
8
0
70
0
10
19.618040
20
210.896622
30
285.762329
11
17.621471
21
213.401779
31
281.999207
12
19.118319
22
216.653503
32
282.336060
13
22.039288
23
216.156677
33
286.307587
0
3DFACE
8
0
70
0
10
14.125058
20
208.846878
30
285.546234
11
14.225130
21
212.136139
31
281.866150
12
17.621471
22
213.401779
32
281.999207
13
19.618040
23
210.896622
33
285.762329
0
3DFACE
8
0
70
0
10
14.125058
20
208.846878
30
285.546234
11
8.770111
21
211.213242
31
285.788635
12
10.915770
22
213.599930
32
282.015930
13
14.225130
23
212.136139
33
281.866150
0
3DFACE
8
0
70
0
10
8.770111
20
211.213242
30
285.788635
11
6.689952
21
216.619202
31
286.347534
12
9.631907
22
216.939362
32
282.360718
13
10.915770
23
213.599930
33
282.015930
0
3DFACE
8
0
70
0
10
6.689952
20
216.619202
30
286.347534
11
9.110902
21
221.893021
31
286.892914
12
11.128650
22
220.196304
32
282.697601
13
9.631907
23
216.939362
33
282.360718
0
3DFACE
8
0
70
0
10
11.128650
20
220.196304
30
282.697601
11
9.110902
21
221.893021
31
286.892914
12
14.615168
22
223.935776
32
287.105225
13
14.529308
23
221.459290
33
282.829224
0
3DFACE
8
0
70
0
10
14.379121
20
216.952469
30
280.828491
11
14.529308
21
221.459290
31
282.829224
12
17.838774
22
219.990250
32
282.679443
13
17.838774
23
219.990250
33
282.679443
0
3DFACE
8
0
70
0
10
19.118319
20
216.653503
30
282.336060
11
14.379121
21
216.952469
31
280.828491
12
17.838774
22
219.990250
32
282.679443
13
17.838774
23
219.990250
33
282.679443
0
3DFACE
8
0
70
0
10
17.621471
20
213.401779
30
281.999207
11
14.379121
21
216.952469
31
280.828491
12
19.118319
22
216.653503
32
282.336060
13
19.118319
23
216.653503
33
282.336060
0
3DFACE
8
0
70
0
10
14.225130
20
212.136139
30
281.866150
11
14.379121
21
216.952469
31
280.828491
12
17.621471
22
213.401779
32
281.999207
13
17.621471
23
213.401779
33
281.999207
0
3DFACE
8
0
70
0
10
14.225130
20
212.136139
30
281.866150
11
10.915770
21
213.599930
31
282.015930
12
14.379121
22
216.952469
32
280.828491
13
14.379121
23
216.952469
33
280.828491
0
3DFACE
8
0
70
0
10
10.915770
20
213.599930
30
282.015930
11
9.631907
21
216.939362
31
282.360718
12
14.379121
22
216.952469
32
280.828491
13
14.379121
23
216.952469
33
280.828491
0
3DFACE
8
0
70
0
10
9.631907
20
216.939362
30
282.360718
11
11.128650
21
220.196304
31
282.697601
12
14.379121
22
216.952469
32
280.828491
13
14.379121
23
216.952469
33
280.828491
0
3DFACE
8
0
70
0
10
14.379121
20
216.952469
30
280.828491
11
11.128650
21
220.196304
31
282.697601
12
14.529308
22
221.459290
32
282.829224
13
14.529308
23
221.459290
33
282.829224
0
3DFACE
8
0
70
0
10
0.300866
20
163.912842
30
361.178009
11
0.450054
21
171.015564
31
359.680237
12
-4.500369
22
169.115921
32
359.473022
13
-4.500369
23
169.115921
33
359.473022
0
3DFACE
8
0
70
0
10
0.300866
20
163.912842
30
361.178009
11
-4.500369
21
169.115921
31
359.473022
12
-6.632819
22
164.300308
32
358.956787
13
-6.632819
23
164.300308
33
358.956787
0
3DFACE
8
0
70
0
10
-4.697619
20
159.397339
30
358.433746
11
0.300866
21
163.912842
31
361.178009
12
-6.632819
22
164.300308
32
358.956787
13
-6.632819
23
164.300308
33
358.956787
0
3DFACE
8
0
70
0
10
0.166226
20
157.284317
30
358.212097
11
0.300866
21
163.912842
31
361.178009
12
-4.697619
22
159.397339
32
358.433746
13
-4.697619
23
159.397339
33
358.433746
0
3DFACE
8
0
70
0
10
0.166226
20
157.284317
30
358.212097
11
5.108904
21
159.191422
31
358.421875
12
0.300866
22
163.912842
32
361.178009
13
0.300866
23
163.912842
33
361.178009
0
3DFACE
8
0
70
0
10
5.108904
20
159.191422
30
358.421875
11
7.240518
21
163.996033
31
358.938385
12
0.300866
22
163.912842
32
361.178009
13
0.300866
23
163.912842
33
361.178009
0
3DFACE
8
0
70
0
10
0.300866
20
163.912842
30
361.178009
11
7.240518
21
163.996033
31
358.938385
12
5.313066
22
168.891602
32
359.458862
13
5.313066
23
168.891602
33
359.458862
0
3DFACE
8
0
70
0
10
0.300866
20
163.912842
30
361.178009
11
5.313066
21
168.891602
31
359.458862
12
0.450054
22
171.015564
32
359.680237
13
0.450054
23
171.015564
33
359.680237
0
3DFACE
8
0
70
0
10
-4.500369
20
169.115921
30
359.473022
11
0.450054
21
171.015564
31
359.680237
12
0.554144
22
175.873550
32
354.291840
13
-7.460281
23
172.804749
33
353.958069
0
3DFACE
8
0
70
0
10
-6.632819
20
164.300308
30
358.956787
11
-4.500369
21
169.115921
31
359.473022
12
-7.460281
22
172.804749
32
353.958069
13
-10.912098
23
165.010330
33
353.123230
0
3DFACE
8
0
70
0
10
-7.778203
20
157.076385
30
352.276093
11
-4.697619
21
159.397339
31
358.433746
12
-6.632819
22
164.300308
32
358.956787
13
-10.912098
23
165.010330
33
353.123230
0
3DFACE
8
0
70
0
10
0.091799
20
153.664230
30
351.917419
11
0.166226
21
157.284317
31
358.212097
12
-4.697619
22
159.397339
32
358.433746
13
-7.778203
23
157.076385
33
352.276093
0
3DFACE
8
0
70
0
10
0.091799
20
153.664230
30
351.917419
11
8.085876
21
156.752472
31
352.257996
12
5.108904
22
159.191422
32
358.421875
13
0.166226
23
157.284317
33
358.212097
0
3DFACE
8
0
70
0
10
8.085876
20
156.752472
30
352.257996
11
11.535430
21
164.518036
31
353.093506
12
7.240518
22
163.996033
32
358.938385
13
5.108904
23
159.191422
33
358.421875
0
3DFACE
8
0
70
0
10
7.240518
20
163.996033
30
358.938385
11
11.535430
21
164.518036
31
353.093506
12
8.421889
22
172.432709
32
353.933929
13
5.313066
23
168.891602
33
359.458862
0
3DFACE
8
0
70
0
10
5.313066
20
168.891602
30
359.458862
11
8.421889
21
172.432709
31
353.933929
12
0.554144
22
175.873550
32
354.291840
13
0.450054
23
171.015564
33
359.680237
0
3DFACE
8
0
70
0
10
-7.460281
20
172.804749
30
353.958069
11
0.554144
21
175.873550
31
354.291840
12
0.565859
22
176.629822
32
347.073547
13
-7.449187
23
173.562546
33
346.739990
0
3DFACE
8
0
70
0
10
-10.912098
20
165.010330
30
353.123230
11
-7.460281
21
172.804749
31
353.958069
12
-7.449187
22
173.562546
32
346.739990
13
-10.902438
23
165.771820
33
345.905670
0
3DFACE
8
0
70
0
10
-7.778203
20
157.076385
30
352.276093
11
-10.912098
21
165.010330
31
353.123230
12
-10.902438
22
165.771820
32
345.905670
13
-7.769881
23
157.841553
33
345.058929
0
3DFACE
8
0
70
0
10
0.091799
20
153.664230
30
351.917419
11
-7.778203
21
157.076385
31
352.276093
12
-7.769881
22
157.841553
32
345.058929
13
0.099596
23
154.430939
33
344.700439
0
3DFACE
8
0
70
0
10
0.091799
20
153.664230
30
351.917419
11
0.099596
21
154.430939
31
344.700439
12
8.094197
22
157.517639
32
345.040802
13
8.085876
23
156.752472
33
352.257996
0
3DFACE
8
0
70
0
10
8.085876
20
156.752472
30
352.257996
11
8.094197
21
157.517639
31
345.040802
12
11.545091
22
165.279495
32
345.875916
13
11.535430
23
164.518036
33
353.093506
0
3DFACE
8
0
70
0
10
11.535430
20
164.518036
30
353.093506
11
11.545091
21
165.279495
31
345.875916
12
8.432981
22
173.190506
32
346.715851
13
8.421889
23
172.432709
33
353.933929
0
3DFACE
8
0
70
0
10
8.421889
20
172.432709
30
353.933929
11
8.432981
21
173.190506
31
346.715851
12
0.565859
22
176.629822
32
347.073547
13
0.554144
23
175.873550
33
354.291840
0
3DFACE
8
0
70
0
10
-4.472789
20
171.103500
30
340.576263
11
-7.449187
21
173.562546
31
346.739990
12
0.565859
22
176.629822
32
347.073547
13
0.478611
23
173.000717
33
340.783112
0
3DFACE
8
0
70
0
10
-10.902438
20
165.771820
30
345.905670
11
-7.449187
21
173.562546
31
346.739990
12
-4.472789
22
171.103500
32
340.576263
13
-6.607529
23
166.293839
33
340.060760
0
3DFACE
8
0
70
0
10
-7.769881
20
157.841553
30
345.058929
11
-10.902438
21
165.771820
31
345.905670
12
-6.607529
22
166.293839
32
340.060760
13
-4.674524
23
161.396881
33
339.538483
0
3DFACE
8
0
70
0
10
0.099596
20
154.430939
30
344.700439
11
-7.769881
21
157.841553
31
345.058929
12
-4.674524
22
161.396881
32
339.538483
13
0.188441
23
159.286346
33
339.317139
0
3DFACE
8
0
70
0
10
0.099596
20
154.430939
30
344.700439
11
0.188441
21
159.286346
31
339.317139
12
5.131999
22
161.190964
32
339.526611
13
8.094197
23
157.517639
33
345.040802
0
3DFACE
8
0
70
0
10
8.094197
20
157.517639
30
345.040802
11
5.131999
21
161.190964
31
339.526611
12
7.265808
22
165.989594
32
340.042358
13
11.545091
23
165.279495
33
345.875916
0
3DFACE
8
0
70
0
10
11.545091
20
165.279495
30
345.875916
11
7.265808
21
165.989594
31
340.042358
12
5.340645
22
170.879196
32
340.562103
13
8.432981
23
173.190506
33
346.715851
0
3DFACE
8
0
70
0
10
5.340645
20
170.879196
30
340.562103
11
0.478611
21
173.000717
31
340.783112
12
0.565859
22
176.629822
32
347.073547
13
8.432981
23
173.190506
33
346.715851
0
3DFACE
8
0
70
0
10
0.332126
20
166.377014
30
337.821167
11
-4.472789
21
171.103500
31
340.576263
12
0.478611
22
173.000717
32
340.783112
13
0.478611
23
173.000717
33
340.783112
0
3DFACE
8
0
70
0
10
-6.607529
20
166.293839
30
340.060760
11
-4.472789
21
171.103500
31
340.576263
12
0.332126
22
166.377014
32
337.821167
13
0.332126
23
166.377014
33
337.821167
0
3DFACE
8
0
70
0
10
-4.674524
20
161.396881
30
339.538483
11
-6.607529
21
166.293839
31
340.060760
12
0.332126
22
166.377014
32
337.821167
13
0.332126
23
166.377014
33
337.821167
0
3DFACE
8
0
70
0
10
0.188441
20
159.286346
30
339.317139
11
-4.674524
21
161.396881
31
339.538483
12
0.332126
22
166.377014
32
337.821167
13
0.332126
23
166.377014
33
337.821167
0
3DFACE
8
0
70
0
10
0.188441
20
159.286346
30
339.317139
11
0.332126
21
166.377014
31
337.821167
12
5.131999
22
161.190964
32
339.526611
13
5.131999
23
161.190964
33
339.526611
0
3DFACE
8
0
70
0
10
5.131999
20
161.190964
30
339.526611
11
0.332126
21
166.377014
31
337.821167
12
7.265808
22
165.989594
32
340.042358
13
7.265808
23
165.989594
33
340.042358
0
3DFACE
8
0
70
0
10
7.265808
20
165.989594
30
340.042358
11
0.332126
21
166.377014
31
337.821167
12
5.340645
22
170.879196
32
340.562103
13
5.340645
23
170.879196
33
340.562103
0
3DFACE
8
0
70
0
10
0.332126
20
166.377014
30
337.821167
11
0.478611
21
173.000717
31
340.783112
12
5.340645
22
170.879196
32
340.562103
13
5.340645
23
170.879196
33
340.562103
0
3DFACE
8
0
70
0
10
-9.509243
20
216.037048
30
296.807098
11
-9.364368
21
220.879379
31
295.772461
12
-12.761086
22
219.609589
32
295.639557
13
-12.761086
23
219.609589
33
295.639557
0
3DFACE
8
0
70
0
10
-9.509243
20
216.037048
30
296.807098
11
-12.761086
21
219.609589
31
295.639557
12
-14.248439
22
216.336029
32
295.299530
13
-14.248439
23
216.336029
33
295.299530
0
3DFACE
8
0
70
0
10
-12.955372
20
212.979904
30
294.951630
11
-9.509243
21
216.037048
31
296.807098
12
-14.248439
22
216.336029
32
295.299530
13
-14.248439
23
216.336029
33
295.299530
0
3DFACE
8
0
70
0
10
-9.642253
20
211.509171
30
294.800659
11
-9.509243
21
216.037048
31
296.807098
12
-12.955372
22
212.979904
32
294.951630
13
-12.955372
23
212.979904
33
294.951630
0
3DFACE
8
0
70
0
10
-9.642253
20
211.509171
30
294.800659
11
-6.249671
21
212.781754
31
294.934906
12
-9.509243
22
216.037048
32
296.807098
13
-9.509243
23
216.037048
33
296.807098
0
3DFACE
8
0
70
0
10
-6.249671
20
212.781754
30
294.934906
11
-4.762029
21
216.050171
31
295.274872
12
-9.509243
22
216.037048
32
296.807098
13
-9.509243
23
216.037048
33
296.807098
0
3DFACE
8
0
70
0
10
-9.509243
20
216.037048
30
296.807098
11
-4.762029
21
216.050171
31
295.274872
12
-6.050961
22
219.403488
32
295.621399
13
-6.050961
23
219.403488
33
295.621399
0
3DFACE
8
0
70
0
10
-9.509243
20
216.037048
30
296.807098
11
-6.050961
21
219.403488
31
295.621399
12
-9.364368
22
220.879379
32
295.772461
13
-9.364368
23
220.879379
33
295.772461
0
3DFACE
8
0
70
0
10
-12.761086
20
219.609589
30
295.639557
11
-9.364368
21
220.879379
31
295.772461
12
-9.263869
22
224.183609
32
292.092255
13
-14.762281
23
222.130875
33
291.877960
0
3DFACE
8
0
70
0
10
-14.248439
20
216.336029
30
295.299530
11
-12.761086
21
219.609589
31
295.639557
12
-14.762281
22
222.130875
32
291.877960
13
-17.169411
23
216.832840
33
291.327972
0
3DFACE
8
0
70
0
10
-15.075859
20
211.402420
30
290.764648
11
-12.955372
21
212.979904
31
294.951630
12
-14.248439
22
216.336029
32
295.299530
13
-17.169411
23
216.832840
33
291.327972
0
3DFACE
8
0
70
0
10
-9.715496
20
209.025803
30
290.520447
11
-9.642253
21
211.509171
31
294.800659
12
-12.955372
22
212.979904
32
294.951630
13
-15.075859
23
211.402420
33
290.764648
0
3DFACE
8
0
70
0
10
-9.715496
20
209.025803
30
290.520447
11
-4.227930
21
211.085785
31
290.738342
12
-6.249671
22
212.781754
32
294.934906
13
-9.642253
23
211.509171
33
294.800659
0
3DFACE
8
0
70
0
10
-4.227930
20
211.085785
30
290.738342
11
-1.820073
21
216.370316
31
291.288055
12
-4.762029
22
216.050171
32
295.274872
13
-6.249671
23
212.781754
33
294.934906
0
3DFACE
8
0
70
0
10
-4.762029
20
216.050171
30
295.274872
11
-1.820073
21
216.370316
31
291.288055
12
-3.902774
22
221.793518
32
291.847778
13
-6.050961
23
219.403488
33
295.621399
0
3DFACE
8
0
70
0
10
-6.050961
20
219.403488
30
295.621399
11
-3.902774
21
221.793518
31
291.847778
12
-9.263869
22
224.183609
32
292.092255
13
-9.364368
23
220.879379
33
295.772461
0
3DFACE
8
0
70
0
10
-14.762281
20
222.130875
30
291.877960
11
-9.263869
21
224.183609
31
292.092255
12
-9.249618
22
224.686249
32
287.173370
13
-14.748412
23
222.634216
33
286.959229
0
3DFACE
8
0
70
0
10
-17.169411
20
216.832840
30
291.327972
11
-14.762281
21
222.130875
31
291.877960
12
-14.748412
22
222.634216
32
286.959229
13
-17.156441
23
217.337738
33
286.409515
0
3DFACE
8
0
70
0
10
-15.075859
20
211.402420
30
290.764648
11
-17.169411
21
216.832840
31
291.327972
12
-17.156441
22
217.337738
32
286.409515
13
-15.063764
23
211.908890
33
285.846466
0
3DFACE
8
0
70
0
10
-9.715496
20
209.025803
30
290.520447
11
-15.075859
21
211.402420
31
290.764648
12
-15.063764
22
211.908890
32
285.846466
13
-9.703753
23
209.533005
33
285.602386
0
3DFACE
8
0
70
0
10
-9.715496
20
209.025803
30
290.520447
11
-9.703753
21
209.533005
31
285.602386
12
-4.215834
22
211.592255
32
285.820160
13
-4.227930
23
211.085785
33
290.738342
0
3DFACE
8
0
70
0
10
-4.227930
20
211.085785
30
290.738342
11
-4.215834
21
211.592255
31
285.820160
12
-1.807104
22
216.875198
32
286.369629
13
-1.820073
23
216.370316
33
291.288055
0
3DFACE
8
0
70
0
10
-1.820073
20
216.370316
30
291.288055
11
-1.807104
21
216.875198
31
286.369629
12
-3.888904
22
222.296860
32
286.929047
13
-3.902774
23
221.793518
33
291.847778
0
3DFACE
8
0
70
0
10
-3.902774
20
221.793518
30
291.847778
11
-3.888904
21
222.296860
31
286.929047
12
-9.249618
22
224.686249
32
287.173370
13
-9.263869
23
224.183609
33
292.092255
0
3DFACE
8
0
70
0
10
-12.725683
20
220.928909
30
282.762299
11
-14.748412
21
222.634216
31
286.959229
12
-9.249618
22
224.686249
32
287.173370
13
-9.328358
23
222.197632
33
282.894989
0
3DFACE
8
0
70
0
10
-17.156441
20
217.337738
30
286.409515
11
-14.748412
21
222.634216
31
286.959229
12
-12.725683
22
220.928909
32
282.762299
13
-14.214486
23
217.657913
33
282.422760
0
3DFACE
8
0
70
0
10
-15.063764
20
211.908890
30
285.846466
11
-17.156441
21
217.337738
31
286.409515
12
-14.214486
22
217.657913
32
282.422760
13
-12.922839
23
214.304352
33
282.075348
0
3DFACE
8
0
70
0
10
-9.703753
20
209.533005
30
285.602386
11
-15.063764
21
211.908890
31
285.846466
12
-12.922839
22
214.304352
32
282.075348
13
-9.610302
23
212.834702
33
281.924500
0
3DFACE
8
0
70
0
10
-9.703753
20
209.533005
30
285.602386
11
-9.610302
21
212.834702
31
281.924500
12
-6.217139
22
214.106186
32
282.058594
13
-4.215834
23
211.592255
33
285.820160
0
3DFACE
8
0
70
0
10
-4.215834
20
211.592255
30
285.820160
11
-6.217139
21
214.106186
31
282.058594
12
-4.728076
22
217.372055
32
282.398071
13
-1.807104
23
216.875198
33
286.369629
0
3DFACE
8
0
70
0
10
-1.807104
20
216.875198
30
286.369629
11
-4.728076
21
217.372055
31
282.398071
12
-6.015560
22
220.722794
32
282.744080
13
-3.888904
23
222.296860
33
286.929047
0
3DFACE
8
0
70
0
10
-6.015560
20
220.722794
30
282.744080
11
-9.328358
21
222.197632
31
282.894989
12
-9.249618
22
224.686249
32
287.173370
13
-3.888904
23
222.296860
33
286.929047
0
3DFACE
8
0
70
0
10
-9.467275
20
217.670990
30
280.890472
11
-12.725683
21
220.928909
31
282.762299
12
-9.328358
22
222.197632
32
282.894989
13
-9.328358
23
222.197632
33
282.894989
0
3DFACE
8
0
70
0
10
-14.214486
20
217.657913
30
282.422760
11
-12.725683
21
220.928909
31
282.762299
12
-9.467275
22
217.670990
32
280.890472
13
-9.467275
23
217.670990
33
280.890472
0
3DFACE
8
0
70
0
10
-12.922839
20
214.304352
30
282.075348
11
-14.214486
21
217.657913
31
282.422760
12
-9.467275
22
217.670990
32
280.890472
13
-9.467275
23
217.670990
33
280.890472
0
3DFACE
8
0
70
0
10
-9.610302
20
212.834702
30
281.924500
11
-12.922839
21
214.304352
31
282.075348
12
-9.467275
22
217.670990
32
280.890472
13
-9.467275
23
217.670990
33
280.890472
0
3DFACE
8
0
70
0
10
-9.610302
20
212.834702
30
281.924500
11
-9.467275
21
217.670990
31
280.890472
12
-6.217139
22
214.106186
32
282.058594
13
-6.217139
23
214.106186
33
282.058594
0
3DFACE
8
0
70
0
10
-6.217139
20
214.106186
30
282.058594
11
-9.467275
21
217.670990
31
280.890472
12
-4.728076
22
217.372055
32
282.398071
13
-4.728076
23
217.372055
33
282.398071
0
3DFACE
8
0
70
0
10
-4.728076
20
217.372055
30
282.398071
11
-9.467275
21
217.670990
31
280.890472
12
-6.015560
22
220.722794
32
282.744080
13
-6.015560
23
220.722794
33
282.744080
0
3DFACE
8
0
70
0
10
-9.467275
20
217.670990
30
280.890472
11
-9.328358
21
222.197632
31
282.894989
12
-6.015560
22
220.722794
32
282.744080
13
-6.015560
23
220.722794
33
282.744080
0
3DFACE
8
0
70
0
10
28.874634
20
157.114838
30
304.965118
11
32.699337
21
168.390533
31
272.937378
12
29.491018
22
219.422668
32
278.287750
13
25.953819
23
191.777908
33
304.541199
0
3DFACE
8
0
70
0
10
-26.966412
20
158.209198
30
305.023712
11
-22.445921
21
193.042664
31
304.633881
12
-24.396158
22
221.071442
32
278.432617
13
-30.384535
23
169.724106
33
273.014771
0
3DFACE
8
0
70
0
10
49.256004
20
-50.617638
30
-59.005524
11
46.911644
21
6.438568
31
-58.397278
12
53.426971
22
4.400899
32
-54.018333
13
56.257679
23
-50.617638
33
-59.005524
0
3DFACE
8
0
70
0
10
46.911644
20
6.438568
30
-58.397278
11
49.256004
21
-50.617638
31
-59.005524
12
42.872486
22
-50.758972
32
-59.005524
13
39.962429
23
4.738344
33
-54.743511
0
3DFACE
8
0
70
0
10
42.872486
20
-50.758972
30
-59.005524
11
45.211315
21
-50.766739
31
-59.005524
12
41.952877
22
3.260037
32
-51.566650
13
39.962429
23
4.738344
33
-54.743511
0
3DFACE
8
0
70
0
10
53.426971
20
4.400899
30
-54.018333
11
65.214783
21
-5.475975
31
3.271402
12
65.214783
22
-53.394768
32
-9.391403
13
56.257679
23
-50.617638
33
-59.005524
0
3DFACE
8
0
70
0
10
45.211315
20
-50.766739
30
-59.005524
11
49.256004
21
-52.495953
31
-9.391403
12
38.720570
22
-6.392885
32
8.048253
13
41.952877
23
3.260037
33
-51.566650
0
3DFACE
8
0
70
0
10
65.639984
20
75.577354
30
23.171196
11
28.501299
21
38.326637
31
24.964550
12
38.720570
22
-6.392885
32
8.048253
13
65.214783
23
-5.475975
33
3.271402
0
3DFACE
8
0
70
0
10
-46.911644
20
6.438568
30
-58.397278
11
-39.962429
21
4.738344
31
-54.743511
12
-42.872486
22
-50.758972
32
-59.005524
13
-49.256004
23
-50.617638
33
-59.005524
0
3DFACE
8
0
70
0
10
-39.962429
20
4.738344
30
-54.743511
11
-39.084938
21
54.682076
31
-44.654591
12
-40.201050
22
32.445641
32
-24.344269
13
-41.952877
23
3.260037
33
-51.566650
0
3DFACE
8
0
70
0
10
-53.426971
20
4.400899
30
-54.018333
11
-56.257679
21
-50.617638
31
-59.005524
12
-65.214783
22
-53.394768
32
-9.391403
13
-65.214783
23
-5.475975
33
3.271402
0
3DFACE
8
0
70
0
10
-45.211315
20
-50.766739
30
-59.005524
11
-41.952877
21
3.260037
31
-51.566650
12
-38.720570
22
-6.392885
32
8.048253
13
-49.256004
23
-52.495953
33
-9.391403
0
3DFACE
8
0
70
0
10
-65.214783
20
-5.475975
30
3.271402
11
-65.214783
21
-53.394768
31
-9.391403
12
-49.256004
22
-52.495953
32
-9.391403
13
-38.720570
23
-6.392885
33
8.048253
0
3DFACE
8
0
70
0
10
42.727314
20
103.890625
30
-51.406666
11
73.698410
21
88.810051
31
-25.290165
12
53.426971
22
4.400899
32
-54.018333
13
46.911644
23
6.438568
33
-58.397278
0
3DFACE
8
0
70
0
10
42.727314
20
103.890625
30
-51.406666
11
46.911644
21
6.438568
31
-58.397278
12
39.962429
22
4.738344
32
-54.743511
13
37.389961
23
54.867821
33
-45.987236
0
3DFACE
8
0
70
0
10
37.389961
20
54.867821
30
-45.987236
11
39.962429
21
4.738344
31
-54.743511
12
41.952877
22
3.260037
32
-51.566650
13
40.201050
23
32.445641
33
-24.344269
0
3DFACE
8
0
70
0
10
65.639984
20
75.577354
30
23.171196
11
65.214783
21
-5.475975
31
3.271402
12
53.426971
22
4.400899
32
-54.018333
13
73.698410
23
88.810051
33
-25.290165
0
3DFACE
8
0
70
0
10
38.720570
20
-6.392885
30
8.048253
11
28.501299
21
38.326637
31
24.964550
12
40.201050
22
32.445641
32
-24.344269
13
41.952877
23
3.260037
33
-51.566650
0
3DFACE
8
0
70
0
10
65.214783
20
-5.475975
30
3.271402
11
38.720570
21
-6.392885
31
8.048253
12
49.256004
22
-52.495953
32
-9.391403
13
65.214783
23
-53.394768
33
-9.391403
0
3DFACE
8
0
70
0
10
-45.010426
20
103.677536
30
-49.877750
11
-46.911644
21
6.438568
31
-58.397278
12
-53.426971
22
4.400899
32
-54.018333
13
-74.940529
23
88.449028
33
-22.699997
0
3DFACE
8
0
70
0
10
-49.256004
20
-50.617638
30
-59.005524
11
-56.257679
21
-50.617638
31
-59.005524
12
-53.426971
22
4.400899
32
-54.018333
13
-46.911644
23
6.438568
33
-58.397278
0
3DFACE
8
0
70
0
10
-45.010426
20
103.677536
30
-49.877750
11
-39.084938
21
54.682076
31
-44.654591
12
-39.962429
22
4.738344
32
-54.743511
13
-46.911644
23
6.438568
33
-58.397278
0
3DFACE
8
0
70
0
10
-42.872486
20
-50.758972
30
-59.005524
11
-39.962429
21
4.738344
31
-54.743511
12
-41.952877
22
3.260037
32
-51.566650
13
-45.211315
23
-50.766739
33
-59.005524
0
3DFACE
8
0
70
0
10
-65.112946
20
75.259789
30
25.449684
11
-74.940529
21
88.449028
31
-22.699997
12
-53.426971
22
4.400899
32
-54.018333
13
-65.214783
23
-5.475975
33
3.271402
0
3DFACE
8
0
70
0
10
-38.720570
20
-6.392885
30
8.048253
11
-41.952877
21
3.260037
31
-51.566650
12
-40.201050
22
32.445641
32
-24.344269
13
-28.501299
23
38.326637
33
24.964550
0
3DFACE
8
0
70
0
10
-65.112946
20
75.259789
30
25.449684
11
-65.214783
21
-5.475975
31
3.271402
12
-38.720570
22
-6.392885
32
8.048253
13
-28.501299
23
38.326637
33
24.964550
0
3DFACE
8
0
70
0
10
32.958328
20
167.580826
30
186.645874
11
0.839491
21
174.522552
31
184.399857
12
2.274126
22
212.830338
32
226.172653
13
22.912651
23
211.076385
33
233.788879
0
3DFACE
8
0
70
0
10
32.958328
20
167.580826
30
186.645874
11
22.912651
21
211.076385
31
233.788879
12
25.130964
22
182.662674
32
230.946121
13
35.262779
23
143.681610
33
195.117920
0
3DFACE
8
0
70
0
10
35.262779
20
143.681610
30
195.117920
11
25.130964
21
182.662674
31
230.946121
12
0.619799
22
143.517441
32
234.968155
13
0.244355
23
121.370232
33
208.255081
0
3DFACE
8
0
70
0
10
-31.472836
20
168.637909
30
186.692780
11
-18.423208
21
212.245483
31
233.882599
12
2.274126
22
212.830338
32
226.172653
13
0.839491
23
174.522552
33
184.399857
0
3DFACE
8
0
70
0
10
-31.472836
20
168.637909
30
186.692780
11
-34.391178
21
144.569168
31
195.148254
12
-22.244320
22
183.751892
32
231.015366
13
-18.423208
23
212.245483
33
233.882599
0
3DFACE
8
0
70
0
10
-34.391178
20
144.569168
30
195.148254
11
0.244355
21
121.370232
31
208.255081
12
0.619799
22
143.517441
32
234.968155
13
-22.244320
23
183.751892
33
231.015366
0
3DFACE
8
0
70
0
10
56.151844
20
56.075397
30
144.894592
11
42.872486
21
115.876572
31
125.884300
12
38.707783
22
150.757416
32
161.887436
13
43.293999
23
114.497597
33
167.015335
0
3DFACE
8
0
70
0
10
0.404186
20
157.424515
30
159.699844
11
-38.028492
21
151.608093
31
161.912643
12
-31.472836
22
168.637909
32
186.692780
13
0.839491
23
174.522552
33
184.399857
0
3DFACE
8
0
70
0
10
-56.151844
20
56.075397
30
144.894592
11
-43.176796
21
114.901657
31
167.020340
12
-38.028492
22
151.608093
32
161.912643
13
-42.872486
23
115.876572
33
125.884300
0
3DFACE
8
0
70
0
10
-56.151844
20
56.075397
30
144.894592
11
0.000000
21
52.644833
31
186.083374
12
0.000000
22
80.609245
32
186.588486
13
-43.176796
23
114.901657
33
167.020340
0
3DFACE
8
0
70
0
10
0.404186
20
157.424515
30
159.699844
11
0.839491
21
174.522552
31
184.399857
12
32.958328
22
167.580826
32
186.645874
13
38.707783
23
150.757416
33
161.887436
0
3DFACE
8
0
70
0
10
42.872486
20
115.876572
30
125.884300
11
0.000000
21
132.057419
31
127.531708
12
0.404186
22
157.424515
32
159.699844
13
38.707783
23
150.757416
33
161.887436
0
3DFACE
8
0
70
0
10
38.707783
20
150.757416
30
161.887436
11
32.958328
21
167.580826
31
186.645874
12
35.262779
22
143.681610
32
195.117920
13
43.293999
23
114.497597
33
167.015335
0
3DFACE
8
0
70
0
10
43.293999
20
114.497597
30
167.015335
11
35.262779
21
143.681610
31
195.117920
12
0.244355
22
121.370232
32
208.255081
13
0.000000
23
80.609245
33
186.588486
0
3DFACE
8
0
70
0
10
56.151844
20
56.075397
30
144.894592
11
43.293999
21
114.497597
31
167.015335
12
0.000000
22
80.609245
32
186.588486
13
0.000000
23
52.644833
33
186.083374
0
3DFACE
8
0
70
0
10
-42.872486
20
115.876572
30
125.884300
11
-38.028492
21
151.608093
31
161.912643
12
0.404186
22
157.424515
32
159.699844
13
0.000000
23
132.057419
33
127.531708
0
3DFACE
8
0
70
0
10
-43.176796
20
114.901657
30
167.020340
11
-34.391178
21
144.569168
31
195.148254
12
-31.472836
22
168.637909
32
186.692780
13
-38.028492
23
151.608093
33
161.912643
0
3DFACE
8
0
70
0
10
-43.176796
20
114.901657
30
167.020340
11
0.000000
21
80.609245
31
186.588486
12
0.244355
22
121.370232
32
208.255081
13
-34.391178
23
144.569168
33
195.148254
0
3DFACE
8
0
70
0
10
9.741163
20
227.149353
30
245.374680
11
21.277617
21
223.553986
31
244.955841
12
63.226749
22
254.742813
32
231.189499
13
55.041183
23
255.640686
33
231.679764
0
3DFACE
8
0
70
0
10
-55.542618
20
259.003845
30
231.644989
11
-15.970340
21
224.696594
31
245.056564
12
-4.215902
22
227.585419
32
245.413956
13
-47.308685
23
259.323273
33
232.074860
0
ENDSEC
0
EOF
