0
SECTION
2
HEADER
999
DXF File Generated by LightWave 3D(TM)
0
ENDSEC
0
SECTION
2
TABLES
0
ENDSEC
0
SECTION
2
BLOCKS
0
ENDSEC
0
SECTION
2
ENTITIES
0
3DFACE
8
0
70
0
10
0.000000
20
10.792336
30
138.545212
11
24.109367
21
18.138126
31
125.437683
12
53.691235
22
75.668274
32
138.545212
13
0.000000
23
71.914680
33
177.929077
0
3DFACE
8
0
70
0
10
0.000000
20
175.075302
30
332.014832
11
9.048426
21
178.817963
31
332.072968
12
7.822215
22
190.033447
32
333.147675
13
0.000000
23
191.693863
33
333.466095
0
3DFACE
8
0
70
0
10
0.000000
20
73.728943
30
-55.083752
11
0.000000
21
135.058289
31
-63.777664
12
41.842770
22
130.193268
32
-47.778740
13
36.471436
23
76.234238
33
-44.017220
0
3DFACE
8
0
70
0
10
0.000000
20
164.135422
30
-79.001541
11
0.000000
21
175.606522
31
-76.261551
12
2.732237
22
174.728271
32
-76.457306
13
3.184873
23
165.406693
33
-78.683846
0
3DFACE
8
0
70
0
10
47.097572
20
148.444794
30
21.679363
11
0.000000
21
164.005066
31
25.353256
12
0.000000
22
155.174225
32
90.113487
13
43.384518
23
143.624268
33
90.344795
0
3DFACE
8
0
70
0
10
0.000000
20
155.174225
30
90.113487
11
0.000000
21
158.804886
31
121.943184
12
40.993786
22
141.100433
32
120.367966
13
43.384518
23
143.624268
33
90.344795
0
3DFACE
8
0
70
0
10
27.252354
20
56.248257
30
23.870586
11
62.357029
21
96.840569
31
23.192087
12
54.127506
22
75.620972
32
91.255638
13
23.394482
23
22.784950
33
92.163406
0
3DFACE
8
0
70
0
10
62.984291
20
-150.533310
30
92.279610
11
44.546185
21
-150.533310
31
143.963760
12
28.537174
22
-150.533310
32
129.330582
13
34.427769
23
-150.533310
33
93.434921
0
3DFACE
8
0
70
0
10
62.357029
20
96.840569
30
23.192087
11
47.097572
21
148.444794
31
21.679363
12
43.384518
22
143.624268
32
90.344795
13
54.127506
23
75.620972
33
91.255638
0
3DFACE
8
0
70
0
10
54.127506
20
75.620972
30
91.255638
11
43.384518
21
143.624268
31
90.344795
12
40.993786
22
141.100433
32
120.367966
13
53.691235
23
75.668274
33
138.545212
0
3DFACE
8
0
70
0
10
0.000000
20
47.646244
30
23.870586
11
27.252354
21
56.248257
31
23.870586
12
23.394482
22
22.784950
32
92.163406
13
0.000000
23
11.498053
33
92.389450
0
3DFACE
8
0
70
0
10
0.000000
20
11.498053
30
92.389450
11
23.394482
21
22.784950
31
92.163406
12
24.109367
22
18.138126
32
125.437683
13
0.000000
23
10.792336
33
138.545212
0
3DFACE
8
0
70
0
10
0.000000
20
163.641281
30
-11.700422
11
38.312435
21
154.151306
31
-13.738611
12
36.471436
22
152.683533
32
-38.020222
13
0.000000
23
161.132660
33
-46.500324
0
3DFACE
8
0
70
0
10
0.000000
20
164.005066
30
25.353256
11
47.097572
21
148.444794
31
21.679363
12
38.312435
22
154.151306
32
-13.738611
13
0.000000
23
163.641281
33
-11.700422
0
3DFACE
8
0
70
0
10
61.100750
20
-149.181381
30
-42.245010
11
36.338833
21
-149.709717
31
-42.228737
12
31.096052
22
-149.682190
32
-42.732239
13
45.405560
23
-149.181381
33
-42.938377
0
3DFACE
8
0
70
0
10
81.179321
20
-150.779922
30
24.482664
11
45.405560
21
-151.151489
31
24.482664
12
36.338833
22
-149.709717
32
-42.228737
13
61.100750
23
-149.181381
33
-42.245010
0
3DFACE
8
0
70
0
10
70.886993
20
112.769875
30
-22.685003
11
41.842770
21
130.193268
31
-47.778740
12
36.471436
22
152.683533
32
-38.020222
13
38.312435
23
154.151306
33
-13.738611
0
3DFACE
8
0
70
0
10
47.097572
20
148.444794
30
21.679363
11
62.357029
21
96.840569
31
23.192087
12
70.886993
22
112.769875
32
-22.685003
13
38.312435
23
154.151306
33
-13.738611
0
3DFACE
8
0
70
0
10
0.000000
20
39.818542
30
-23.077322
11
0.000000
21
73.728943
31
-55.083752
12
36.471436
22
76.234238
32
-44.017220
13
38.439411
23
49.813492
33
-23.277485
0
3DFACE
8
0
70
0
10
27.252354
20
56.248257
30
23.870586
11
0.000000
21
47.646244
31
23.870586
12
0.000000
22
39.818542
32
-23.077322
13
38.439411
23
49.813492
33
-23.277485
0
3DFACE
8
0
70
0
10
55.724819
20
-74.268250
30
-68.498070
11
46.382446
21
-74.268250
31
-69.636871
12
47.097572
22
-41.071167
32
-56.419861
13
53.792427
23
-41.071167
33
-56.419861
0
3DFACE
8
0
70
0
10
37.864887
20
-74.650131
30
-69.298309
11
40.993786
21
-41.225811
31
-56.419861
12
47.097572
22
-41.071167
32
-56.419861
13
46.382446
23
-74.268250
33
-69.636871
0
3DFACE
8
0
70
0
10
40.985584
20
-74.671089
30
-68.471336
11
43.230125
21
-41.234310
31
-56.419861
12
40.993786
22
-41.225811
32
-56.419861
13
37.864887
23
-74.650131
33
-69.298309
0
3DFACE
8
0
70
0
10
67.676346
20
-74.322113
30
-37.039867
11
55.724819
21
-74.268250
31
-68.498070
12
53.792427
22
-41.071167
32
-56.419861
13
62.357029
23
-44.109798
33
-8.979866
0
3DFACE
8
0
70
0
10
46.382446
20
-74.721359
30
-37.039867
11
47.097572
21
-43.126350
31
-8.979866
12
43.230125
22
-41.234310
32
-56.419861
13
40.985584
23
-74.671089
33
-68.471336
0
3DFACE
8
0
70
0
10
46.382446
20
-74.721359
30
-37.039867
11
67.676346
21
-74.322113
31
-37.039867
12
62.357029
22
-44.109798
32
-8.979866
13
47.097572
23
-43.126350
33
-8.979866
0
3DFACE
8
0
70
0
10
55.724819
20
-103.816925
30
-46.284885
11
46.382446
21
-103.816925
31
-46.427238
12
46.382446
22
-74.268250
32
-69.636871
13
55.724819
23
-74.268250
33
-68.498070
0
3DFACE
8
0
70
0
10
37.864887
20
-104.240456
30
-46.384918
11
37.864887
21
-74.650131
31
-69.298309
12
46.382446
22
-74.268250
32
-69.636871
13
46.382446
23
-103.816925
33
-46.427238
0
3DFACE
8
0
70
0
10
40.985584
20
-104.263718
30
-46.281544
11
40.985584
21
-74.671089
31
-68.471336
12
37.864887
22
-74.650131
32
-69.298309
13
37.864887
23
-104.240456
33
-46.384918
0
3DFACE
8
0
70
0
10
67.676346
20
-104.687218
30
-16.972370
11
55.724819
21
-103.816925
31
-46.284885
12
55.724819
22
-74.268250
32
-68.498070
13
67.676346
23
-74.322113
33
-37.039867
0
3DFACE
8
0
70
0
10
46.382446
20
-105.086456
30
-16.972370
11
46.382446
21
-74.721359
31
-37.039867
12
40.985584
22
-74.671089
32
-68.471336
13
40.985584
23
-104.263718
33
-46.281544
0
3DFACE
8
0
70
0
10
46.382446
20
-105.086456
30
-16.972370
11
67.676346
21
-104.687218
31
-16.972370
12
67.676346
22
-74.322113
32
-37.039867
13
46.382446
23
-74.721359
33
-37.039867
0
3DFACE
8
0
70
0
10
61.100750
20
-149.181381
30
-42.245010
11
45.405560
21
-149.181381
31
-42.938377
12
46.382446
22
-103.816925
32
-46.427238
13
55.724819
23
-103.816925
33
-46.284885
0
3DFACE
8
0
70
0
10
31.096052
20
-149.682190
30
-42.732239
11
37.864887
21
-104.240456
31
-46.384918
12
46.382446
22
-103.816925
32
-46.427238
13
45.405560
23
-149.181381
33
-42.938377
0
3DFACE
8
0
70
0
10
36.338833
20
-149.709717
30
-42.228737
11
40.985584
21
-104.263718
31
-46.281544
12
37.864887
22
-104.240456
32
-46.384918
13
31.096052
23
-149.682190
33
-42.732239
0
3DFACE
8
0
70
0
10
81.179321
20
-150.779922
30
24.482664
11
61.100750
21
-149.181381
31
-42.245010
12
55.724819
22
-103.816925
32
-46.284885
13
67.676346
23
-104.687218
33
-16.972370
0
3DFACE
8
0
70
0
10
45.405560
20
-151.151489
30
24.482664
11
46.382446
21
-105.086456
31
-16.972370
12
40.985584
22
-104.263718
32
-46.281544
13
36.338833
23
-149.709717
33
-42.228737
0
3DFACE
8
0
70
0
10
45.405560
20
-151.151489
30
24.482664
11
81.179321
21
-150.779922
31
24.482664
12
67.676346
22
-104.687218
32
-16.972370
13
46.382446
23
-105.086456
33
-16.972370
0
3DFACE
8
0
70
0
10
43.239704
20
-52.339184
30
109.503319
11
23.394482
21
22.784950
31
92.163406
12
54.127506
22
75.620972
32
91.255638
13
54.127506
23
-52.339184
33
109.094826
0
3DFACE
8
0
70
0
10
43.239704
20
-52.339184
30
109.503319
11
40.993786
21
-52.339184
31
122.195381
12
24.109367
22
18.138126
32
125.437683
13
23.394482
23
22.784950
33
92.163406
0
3DFACE
8
0
70
0
10
40.993786
20
-52.339184
30
122.195381
11
47.097572
21
-52.339184
31
127.369415
12
53.691235
22
75.668274
32
138.545212
13
24.109367
23
18.138126
33
125.437683
0
3DFACE
8
0
70
0
10
47.097572
20
-52.339184
30
127.369415
11
54.127506
21
-52.339184
31
109.094826
12
54.127506
22
75.620972
32
91.255638
13
53.691235
23
75.668274
33
138.545212
0
3DFACE
8
0
70
0
10
37.624790
20
-91.226456
30
93.589096
11
43.239704
21
-52.339184
31
109.503319
12
54.127506
22
-52.339184
32
109.094826
13
54.827522
23
-91.226456
33
92.943672
0
3DFACE
8
0
70
0
10
34.076244
20
-91.226456
30
113.642540
11
40.993786
21
-52.339184
31
122.195381
12
43.239704
22
-52.339184
32
109.503319
13
37.624790
23
-91.226456
33
93.589096
0
3DFACE
8
0
70
0
10
43.720226
20
-91.226456
30
121.817505
11
47.097572
21
-52.339184
31
127.369415
12
40.993786
22
-52.339184
32
122.195381
13
34.076244
23
-91.226456
33
113.642540
0
3DFACE
8
0
70
0
10
43.720226
20
-91.226456
30
121.817505
11
54.827522
21
-91.226456
31
92.943672
12
54.127506
22
-52.339184
32
109.094826
13
47.097572
23
-52.339184
33
127.369415
0
3DFACE
8
0
70
0
10
34.427769
20
-150.533310
30
93.434921
11
37.624790
21
-91.226456
31
93.589096
12
54.827522
22
-91.226456
32
92.943672
13
62.984291
23
-150.533310
33
92.279610
0
3DFACE
8
0
70
0
10
28.537174
20
-150.533310
30
129.330582
11
34.076244
21
-91.226456
31
113.642540
12
37.624790
22
-91.226456
32
93.589096
13
34.427769
23
-150.533310
33
93.434921
0
3DFACE
8
0
70
0
10
44.546185
20
-150.533310
30
143.963760
11
43.720226
21
-91.226456
31
121.817505
12
34.076244
22
-91.226456
32
113.642540
13
28.537174
23
-150.533310
33
129.330582
0
3DFACE
8
0
70
0
10
44.546185
20
-150.533310
30
143.963760
11
62.984291
21
-150.533310
31
92.279610
12
54.827522
22
-91.226456
32
92.943672
13
43.720226
23
-91.226456
33
121.817505
0
3DFACE
8
0
70
0
10
0.000000
20
174.104645
30
242.974670
11
0.000000
21
169.526398
31
227.419525
12
22.550318
22
213.086761
32
224.204544
13
34.193748
23
200.156540
33
241.651062
0
3DFACE
8
0
70
0
10
7.822215
20
190.033447
30
333.147675
11
23.006514
21
221.734741
31
294.789612
12
0.000000
22
227.313889
32
295.531921
13
0.000000
23
191.693863
33
333.466095
0
3DFACE
8
0
70
0
10
9.048426
20
178.817963
30
332.072968
11
26.613020
21
183.872665
31
294.630798
12
23.006514
22
221.734741
32
294.789612
13
7.822215
23
190.033447
33
333.147675
0
3DFACE
8
0
70
0
10
0.000000
20
175.075302
30
332.014832
11
0.000000
21
171.508362
31
293.639801
12
26.613020
22
183.872665
32
294.630798
13
9.048426
23
178.817963
33
332.072968
0
3DFACE
8
0
70
0
10
47.099548
20
282.777008
30
233.437408
11
47.926224
21
265.030701
31
231.536987
12
44.373329
22
265.965546
32
226.782455
13
44.010895
23
272.044586
33
227.426743
0
3DFACE
8
0
70
0
10
32.090694
20
228.748657
30
244.683548
11
34.193748
21
200.156540
31
241.651062
12
22.550318
22
213.086761
32
224.204544
13
20.781479
23
231.879059
33
226.157806
0
3DFACE
8
0
70
0
10
44.010895
20
272.044586
30
227.426743
11
19.627825
21
244.135544
31
227.431732
12
29.459309
22
264.523621
32
248.477859
13
47.099548
23
282.777008
33
233.437408
0
3DFACE
8
0
70
0
10
44.373329
20
265.965546
30
226.782455
11
20.781479
21
231.879059
31
226.157806
12
19.627825
22
244.135544
32
227.431732
13
44.010895
23
272.044586
33
227.426743
0
3DFACE
8
0
70
0
10
47.926224
20
265.030701
30
231.536987
11
32.090694
21
228.748657
31
244.683548
12
20.781479
22
231.879059
32
226.157806
13
44.373329
23
265.965546
33
226.782455
0
3DFACE
8
0
70
0
10
47.926224
20
265.030701
30
231.536987
11
47.099548
21
282.777008
31
233.437408
12
29.459309
22
264.523621
32
248.477859
13
32.090694
23
228.748657
33
244.683548
0
3DFACE
8
0
70
0
10
17.663412
20
257.494354
30
238.352219
11
6.616395
21
261.016998
31
238.785553
12
0.000000
22
274.157013
32
249.657425
13
29.459309
23
264.523621
33
248.477859
0
3DFACE
8
0
70
0
10
7.403246
20
250.613815
30
227.611511
11
0.000000
21
245.567795
31
220.120972
12
0.000000
22
274.157013
32
249.657425
13
6.616395
23
261.016998
33
238.785553
0
3DFACE
8
0
70
0
10
14.222394
20
250.075424
30
230.390259
11
19.627825
21
244.135544
31
227.431732
12
0.000000
22
245.567795
32
220.120972
13
7.403246
23
250.613815
33
227.611511
0
3DFACE
8
0
70
0
10
14.222394
20
250.075424
30
230.390259
11
17.663412
21
257.494354
31
238.352219
12
29.459309
22
264.523621
32
248.477859
13
19.627825
23
244.135544
33
227.431732
0
3DFACE
8
0
70
0
10
47.738171
20
340.769836
30
202.314255
11
50.222076
21
337.777527
31
201.191498
12
49.048843
22
335.234680
32
200.833359
13
44.659035
23
337.311005
33
202.436356
0
3DFACE
8
0
70
0
10
6.616395
20
261.016998
30
238.785553
11
48.365719
21
294.073792
31
226.461685
12
50.063629
22
284.230469
32
219.604630
13
7.403246
23
250.613815
33
227.611511
0
3DFACE
8
0
70
0
10
54.848675
20
286.199066
30
220.975998
11
50.063629
21
284.230469
31
219.604630
12
57.195736
22
293.172729
32
216.427460
13
61.977207
23
297.139435
33
216.884338
0
3DFACE
8
0
70
0
10
48.365719
20
294.073792
30
226.461685
11
54.711094
21
302.222900
31
222.068100
12
57.195736
22
293.172729
32
216.427460
13
50.063629
23
284.230469
33
219.604630
0
3DFACE
8
0
70
0
10
85.269157
20
304.271912
30
195.431000
11
85.092674
21
302.951294
31
192.819351
12
84.578468
22
307.908264
32
193.231140
13
84.319763
23
309.271454
33
195.565811
0
3DFACE
8
0
70
0
10
17.663412
20
257.494354
30
238.352219
11
14.222394
21
250.075424
31
230.390259
12
54.848675
22
286.199066
32
220.975998
13
56.129124
23
293.423676
33
226.008804
0
3DFACE
8
0
70
0
10
56.129124
20
293.423676
30
226.008804
11
62.570679
21
304.578979
31
220.616196
12
54.711094
22
302.222900
32
222.068100
13
48.365719
23
294.073792
33
226.461685
0
3DFACE
8
0
70
0
10
14.222394
20
250.075424
30
230.390259
11
7.403246
21
250.613815
31
227.611511
12
50.063629
22
284.230469
32
219.604630
13
54.848675
23
286.199066
33
220.975998
0
3DFACE
8
0
70
0
10
53.379593
20
323.267548
30
211.589737
11
52.715221
21
330.792969
31
207.954956
12
49.378212
22
325.489319
32
208.608536
13
49.062222
23
322.160034
33
210.534546
0
3DFACE
8
0
70
0
10
62.570679
20
304.578979
30
220.616196
11
53.379593
21
323.267548
31
211.589737
12
49.062222
22
322.160034
32
210.534546
13
54.711094
23
302.222900
33
222.068100
0
3DFACE
8
0
70
0
10
55.132603
20
320.056885
30
208.530655
11
53.571899
21
318.682678
31
207.221344
12
54.316067
22
323.528717
32
205.472504
13
55.360847
23
327.566101
33
205.793457
0
3DFACE
8
0
70
0
10
61.977207
20
297.139435
30
216.884338
11
57.195736
21
293.172729
31
216.427460
12
53.571899
22
318.682678
32
207.221344
13
55.132603
23
320.056885
33
208.530655
0
3DFACE
8
0
70
0
10
35.307896
20
323.477997
30
198.817337
11
33.759411
21
325.957458
31
200.896866
12
34.791706
22
327.599030
32
200.306458
13
36.863346
23
325.646484
33
198.502258
0
3DFACE
8
0
70
0
10
57.195736
20
293.172729
30
216.427460
11
54.711094
21
302.222900
31
222.068100
12
49.062222
22
322.160034
32
210.534546
13
53.571899
23
318.682678
33
207.221344
0
3DFACE
8
0
70
0
10
53.379593
20
323.267548
30
211.589737
11
55.132603
21
320.056885
31
208.530655
12
55.360847
22
327.566101
32
205.793457
13
52.715221
23
330.792969
33
207.954956
0
3DFACE
8
0
70
0
10
61.977207
20
297.139435
30
216.884338
11
55.132603
21
320.056885
31
208.530655
12
53.379593
22
323.267548
32
211.589737
13
62.570679
23
304.578979
33
220.616196
0
3DFACE
8
0
70
0
10
50.714954
20
334.802643
30
205.687973
11
47.738171
21
340.769836
31
202.314255
12
44.659035
22
337.311005
32
202.436356
13
46.185997
23
333.485931
33
204.433456
0
3DFACE
8
0
70
0
10
49.378212
20
325.489319
30
208.608536
11
46.185997
21
333.485931
31
204.433456
12
50.805294
22
331.331116
32
202.380371
13
54.316067
23
323.528717
33
205.472504
0
3DFACE
8
0
70
0
10
54.316067
20
323.528717
30
205.472504
11
50.805294
21
331.331116
31
202.380371
12
52.850716
22
332.553986
32
203.545563
13
55.360847
23
327.566101
33
205.793457
0
3DFACE
8
0
70
0
10
61.455513
20
328.994904
30
191.798752
11
59.103867
21
332.079193
31
192.334106
12
58.614582
22
332.760803
32
194.576736
13
60.659016
23
330.198914
33
194.395767
0
3DFACE
8
0
70
0
10
49.378212
20
325.489319
30
208.608536
11
52.715221
21
330.792969
31
207.954956
12
50.714954
22
334.802643
32
205.687973
13
46.185997
23
333.485931
33
204.433456
0
3DFACE
8
0
70
0
10
46.185997
20
333.485931
30
204.433456
11
44.659035
21
337.311005
31
202.436356
12
49.048843
22
335.234680
32
200.833359
13
50.805294
23
331.331116
33
202.380371
0
3DFACE
8
0
70
0
10
52.850716
20
332.553986
30
203.545563
11
50.805294
21
331.331116
31
202.380371
12
49.048843
22
335.234680
32
200.833359
13
50.222076
23
337.777527
33
201.191498
0
3DFACE
8
0
70
0
10
50.714954
20
334.802643
30
205.687973
11
52.850716
21
332.553986
31
203.545563
12
50.222076
22
337.777527
32
201.191498
13
47.738171
23
340.769836
33
202.314255
0
3DFACE
8
0
70
0
10
56.129124
20
293.423676
30
226.008804
11
59.808018
21
291.546570
31
223.844421
12
65.618416
22
301.574036
32
218.986938
13
62.570679
23
304.578979
33
220.616196
0
3DFACE
8
0
70
0
10
62.570679
20
304.578979
30
220.616196
11
65.618416
21
301.574036
31
218.986938
12
65.080009
22
294.875702
32
215.633224
13
61.977207
23
297.139435
33
216.884338
0
3DFACE
8
0
70
0
10
61.977207
20
297.139435
30
216.884338
11
65.080009
21
294.875702
31
215.633224
12
58.652309
22
285.041229
32
219.319244
13
54.848675
23
286.199066
33
220.975998
0
3DFACE
8
0
70
0
10
54.848675
20
286.199066
30
220.975998
11
58.652309
21
285.041229
31
219.319244
12
59.808018
22
291.546570
32
223.844421
13
56.129124
23
293.423676
33
226.008804
0
3DFACE
8
0
70
0
10
59.808018
20
291.546570
30
223.844421
11
65.500587
21
287.662506
31
221.121002
12
67.964401
22
298.645325
32
217.963425
13
65.618416
23
301.574036
33
218.986938
0
3DFACE
8
0
70
0
10
65.618416
20
301.574036
30
218.986938
11
67.964401
21
298.645325
31
217.963425
12
68.191399
22
293.391327
32
213.953506
13
65.080009
23
294.875702
33
215.633224
0
3DFACE
8
0
70
0
10
65.080009
20
294.875702
30
215.633224
11
68.191399
21
293.391327
31
213.953506
12
64.980446
22
282.625824
32
216.189835
13
58.652309
23
285.041229
33
219.319244
0
3DFACE
8
0
70
0
10
58.652309
20
285.041229
30
219.319244
11
64.980446
21
282.625824
31
216.189835
12
65.500587
22
287.662506
32
221.121002
13
59.808018
23
291.546570
33
223.844421
0
3DFACE
8
0
70
0
10
65.500587
20
287.662506
30
221.121002
11
70.553192
21
287.864929
31
216.762909
12
69.317795
22
298.460266
32
216.358063
13
67.964401
23
298.645325
33
217.963425
0
3DFACE
8
0
70
0
10
67.964401
20
298.645325
30
217.963425
11
69.317795
21
298.460266
31
216.358063
12
69.874115
22
295.203949
32
211.679993
13
68.191399
23
293.391327
33
213.953506
0
3DFACE
8
0
70
0
10
68.191399
20
293.391327
30
213.953506
11
69.874115
21
295.203949
31
211.679993
12
70.236549
22
284.734222
32
211.456360
13
64.980446
23
282.625824
33
216.189835
0
3DFACE
8
0
70
0
10
64.980446
20
282.625824
30
216.189835
11
70.236549
21
284.734222
31
211.456360
12
70.553192
22
287.864929
32
216.762909
13
65.500587
23
287.662506
33
221.121002
0
3DFACE
8
0
70
0
10
70.553192
20
287.864929
30
216.762909
11
72.945076
21
289.966217
31
213.578049
12
71.463638
22
299.445984
32
213.544678
13
69.317795
23
298.460266
33
216.358063
0
3DFACE
8
0
70
0
10
69.317795
20
298.460266
30
216.358063
11
71.463638
21
299.445984
31
213.544678
12
71.961151
22
296.711456
32
209.232834
13
69.874115
23
295.203949
33
211.679993
0
3DFACE
8
0
70
0
10
69.874115
20
295.203949
30
211.679993
11
71.961151
21
296.711456
31
209.232834
12
72.638382
22
287.327667
32
208.724686
13
70.236549
23
284.734222
33
211.456360
0
3DFACE
8
0
70
0
10
70.236549
20
284.734222
30
211.456360
11
72.638382
21
287.327667
31
208.724686
12
72.945076
22
289.966217
32
213.578049
13
70.553192
23
287.864929
33
216.762909
0
3DFACE
8
0
70
0
10
72.945076
20
289.966217
30
213.578049
11
75.291389
21
291.539398
31
210.722794
12
73.958107
22
300.071198
32
210.692764
13
71.463638
23
299.445984
33
213.544678
0
3DFACE
8
0
70
0
10
71.463638
20
299.445984
30
213.544678
11
73.958107
21
300.071198
31
210.692764
12
74.405869
22
297.610046
32
206.812119
13
71.961151
23
296.711456
33
209.232834
0
3DFACE
8
0
70
0
10
71.961151
20
296.711456
30
209.232834
11
74.405869
21
297.610046
31
206.812119
12
75.015381
22
289.164764
32
206.354767
13
72.638382
23
287.327667
33
208.724686
0
3DFACE
8
0
70
0
10
72.638382
20
287.327667
30
208.724686
11
75.015381
21
289.164764
31
206.354767
12
75.291389
22
291.539398
32
210.722794
13
72.945076
23
289.966217
33
213.578049
0
3DFACE
8
0
70
0
10
75.291389
20
291.539398
30
210.722794
11
77.817223
21
293.566925
31
207.490555
12
76.002304
22
301.060394
32
208.063156
13
73.958107
23
300.071198
33
210.692764
0
3DFACE
8
0
70
0
10
73.958107
20
300.071198
30
210.692764
11
76.002304
21
301.060394
31
208.063156
12
76.371536
22
299.198364
32
204.410507
13
74.405869
23
297.610046
33
206.812119
0
3DFACE
8
0
70
0
10
74.405869
20
297.610046
30
206.812119
11
76.371536
21
299.198364
31
204.410507
12
77.506279
22
291.747925
32
203.441177
13
75.015381
23
289.164764
33
206.354767
0
3DFACE
8
0
70
0
10
75.015381
20
289.164764
30
206.354767
11
77.506279
21
291.747925
31
203.441177
12
77.817223
22
293.566925
32
207.490555
13
75.291389
23
291.539398
33
210.722794
0
3DFACE
8
0
70
0
10
77.817223
20
293.566925
30
207.490555
11
79.767899
21
295.894379
31
204.577301
12
77.640808
22
302.374573
32
205.635315
13
76.002304
23
301.060394
33
208.063156
0
3DFACE
8
0
70
0
10
76.002304
20
301.060394
30
208.063156
11
77.640808
21
302.374573
31
205.635315
12
77.910355
22
301.015839
32
202.230652
13
76.371536
23
299.198364
33
204.410507
0
3DFACE
8
0
70
0
10
76.371536
20
299.198364
30
204.410507
11
77.910355
21
301.015839
31
202.230652
12
79.404755
22
294.538086
32
200.851624
13
77.506279
23
291.747925
33
203.441177
0
3DFACE
8
0
70
0
10
77.506279
20
291.747925
30
203.441177
11
79.404755
21
294.538086
31
200.851624
12
79.767899
22
295.894379
32
204.577301
13
77.817223
23
293.566925
33
207.490555
0
3DFACE
8
0
70
0
10
79.767899
20
295.894379
30
204.577301
11
81.438324
21
299.068542
31
201.451401
12
79.439224
22
304.841492
32
202.504120
13
77.640808
23
302.374573
33
205.635315
0
3DFACE
8
0
70
0
10
77.640808
20
302.374573
30
205.635315
11
79.439224
21
304.841492
31
202.504120
12
79.666756
22
303.677063
32
199.421158
13
77.910355
23
301.015839
33
202.230652
0
3DFACE
8
0
70
0
10
77.910355
20
301.015839
30
202.230652
11
79.666756
21
303.677063
31
199.421158
12
81.093231
22
297.899109
32
198.085968
13
79.404755
23
294.538086
33
200.851624
0
3DFACE
8
0
70
0
10
79.404755
20
294.538086
30
200.851624
11
81.093231
21
297.899109
31
198.085968
12
81.438324
22
299.068542
32
201.451401
13
79.767899
23
295.894379
33
204.577301
0
3DFACE
8
0
70
0
10
81.438324
20
299.068542
30
201.451401
11
83.256790
21
302.237183
31
198.215530
12
81.848801
22
307.662689
32
198.721954
13
79.439224
23
304.841492
33
202.504120
0
3DFACE
8
0
70
0
10
79.439224
20
304.841492
30
202.504120
11
81.848801
21
307.662689
31
198.721954
12
82.109726
22
306.357483
32
196.038177
13
79.666756
23
303.677063
33
199.421158
0
3DFACE
8
0
70
0
10
79.666756
20
303.677063
30
199.421158
11
82.109726
21
306.357483
31
196.038177
12
83.018158
22
300.957581
32
195.248611
13
81.093231
23
297.899109
33
198.085968
0
3DFACE
8
0
70
0
10
81.093231
20
297.899109
30
198.085968
11
83.018158
21
300.957581
31
195.248611
12
83.256790
22
302.237183
32
198.215530
13
81.438324
23
299.068542
33
201.451401
0
3DFACE
8
0
70
0
10
83.256790
20
302.237183
30
198.215530
11
85.269157
21
304.271912
31
195.431000
12
84.319763
22
309.271454
32
195.565811
13
81.848801
23
307.662689
33
198.721954
0
3DFACE
8
0
70
0
10
81.848801
20
307.662689
30
198.721954
11
84.319763
21
309.271454
31
195.565811
12
84.578468
22
307.908264
32
193.231140
13
82.109726
23
306.357483
33
196.038177
0
3DFACE
8
0
70
0
10
82.109726
20
306.357483
30
196.038177
11
84.578468
21
307.908264
31
193.231140
12
85.092674
22
302.951294
32
192.819351
13
83.018158
23
300.957581
33
195.248611
0
3DFACE
8
0
70
0
10
83.018158
20
300.957581
30
195.248611
11
85.092674
21
302.951294
31
192.819351
12
85.269157
22
304.271912
32
195.431000
13
83.256790
23
302.237183
33
198.215530
0
3DFACE
8
0
70
0
10
53.571899
20
318.682678
30
207.221344
11
49.273537
21
317.365051
31
205.564041
12
50.378014
22
321.704407
32
204.202026
13
54.316067
23
323.528717
33
205.472504
0
3DFACE
8
0
70
0
10
54.316067
20
323.528717
30
205.472504
11
50.378014
21
321.704407
31
204.202026
12
46.069195
22
323.835052
32
207.038040
13
49.378212
23
325.489319
33
208.608536
0
3DFACE
8
0
70
0
10
49.378212
20
325.489319
30
208.608536
11
46.069195
21
323.835052
31
207.038040
12
45.472263
22
320.795319
32
208.627380
13
49.062222
23
322.160034
33
210.534546
0
3DFACE
8
0
70
0
10
49.062222
20
322.160034
30
210.534546
11
45.472263
21
320.795319
31
208.627380
12
49.273537
22
317.365051
32
205.564041
13
53.571899
23
318.682678
33
207.221344
0
3DFACE
8
0
70
0
10
49.273537
20
317.365051
30
205.564041
11
46.518475
21
317.402039
31
204.435669
12
47.768646
22
321.261963
32
203.339249
13
50.378014
23
321.704407
33
204.202026
0
3DFACE
8
0
70
0
10
50.378014
20
321.704407
30
204.202026
11
47.768646
21
321.261963
31
203.339249
12
43.988281
22
323.388885
32
205.909180
13
46.069195
23
323.835052
33
207.038040
0
3DFACE
8
0
70
0
10
46.069195
20
323.835052
30
207.038040
11
43.988281
21
323.388885
31
205.909180
12
43.264065
22
320.650421
32
207.250122
13
45.472263
23
320.795319
33
208.627380
0
3DFACE
8
0
70
0
10
45.472263
20
320.795319
30
208.627380
11
43.264065
21
320.650421
31
207.250122
12
46.518475
22
317.402039
32
204.435669
13
49.273537
23
317.365051
33
205.564041
0
3DFACE
8
0
70
0
10
46.518475
20
317.402039
30
204.435669
11
43.028862
21
317.108032
31
202.980911
12
45.005028
22
320.201385
32
202.456360
13
47.768646
23
321.261963
33
203.339249
0
3DFACE
8
0
70
0
10
47.768646
20
321.261963
30
203.339249
11
45.005028
21
320.201385
31
202.456360
12
42.053318
22
322.768127
32
204.894104
13
43.988281
23
323.388885
33
205.909180
0
3DFACE
8
0
70
0
10
43.988281
20
323.388885
30
205.909180
11
42.053318
21
322.768127
31
204.894104
12
40.760189
22
320.454590
32
205.771713
13
43.264065
23
320.650421
33
207.250122
0
3DFACE
8
0
70
0
10
43.264065
20
320.650421
30
207.250122
11
40.760189
21
320.454590
31
205.771713
12
43.028862
22
317.108032
32
202.980911
13
46.518475
23
317.402039
33
204.435669
0
3DFACE
8
0
70
0
10
43.028862
20
317.108032
30
202.980911
11
39.460648
21
319.855469
31
201.043365
12
42.046349
22
321.725922
32
201.087265
13
45.005028
23
320.201385
33
202.456360
0
3DFACE
8
0
70
0
10
45.005028
20
320.201385
30
202.456360
11
42.046349
21
321.725922
31
201.087265
12
40.121605
22
324.549927
32
203.560593
13
42.053318
23
322.768127
33
204.894104
0
3DFACE
8
0
70
0
10
42.053318
20
322.768127
30
204.894104
11
40.121605
21
324.549927
31
203.560593
12
38.301186
22
322.997803
32
203.960617
13
40.760189
23
320.454590
33
205.771713
0
3DFACE
8
0
70
0
10
40.760189
20
320.454590
30
205.771713
11
38.301186
21
322.997803
31
203.960617
12
39.460648
22
319.855469
32
201.043365
13
43.028862
23
317.108032
33
202.980911
0
3DFACE
8
0
70
0
10
39.460648
20
319.855469
30
201.043365
11
37.491966
21
322.412842
31
199.884644
12
39.629898
22
324.390869
32
199.791870
13
42.046349
23
321.725922
33
201.087265
0
3DFACE
8
0
70
0
10
42.046349
20
321.725922
30
201.087265
11
39.629898
21
324.390869
31
199.791870
12
37.681747
22
326.827332
32
201.928955
13
40.121605
23
324.549927
33
203.560593
0
3DFACE
8
0
70
0
10
40.121605
20
324.549927
30
203.560593
11
37.681747
21
326.827332
31
201.928955
12
36.204319
22
325.249786
32
202.391678
13
38.301186
23
322.997803
33
203.960617
0
3DFACE
8
0
70
0
10
38.301186
20
322.997803
30
203.960617
11
36.204319
21
325.249786
31
202.391678
12
37.491966
22
322.412842
32
199.884644
13
39.460648
23
319.855469
33
201.043365
0
3DFACE
8
0
70
0
10
37.491966
20
322.412842
30
199.884644
11
35.307896
21
323.477997
31
198.817337
12
36.863346
22
325.646484
32
198.502258
13
39.629898
23
324.390869
33
199.791870
0
3DFACE
8
0
70
0
10
39.629898
20
324.390869
30
199.791870
11
36.863346
21
325.646484
31
198.502258
12
34.791706
22
327.599030
32
200.306458
13
37.681747
23
326.827332
33
201.928955
0
3DFACE
8
0
70
0
10
37.681747
20
326.827332
30
201.928955
11
34.791706
21
327.599030
31
200.306458
12
33.759411
22
325.957458
32
200.896866
13
36.204319
23
325.249786
33
202.391678
0
3DFACE
8
0
70
0
10
36.204319
20
325.249786
30
202.391678
11
33.759411
21
325.957458
31
200.896866
12
35.307896
22
323.477997
32
198.817337
13
37.491966
23
322.412842
33
199.884644
0
3DFACE
8
0
70
0
10
55.360847
20
327.566101
30
205.793457
11
58.201984
21
327.052124
31
202.701874
12
55.974201
22
329.752655
32
205.020737
13
52.715221
23
330.792969
33
207.954956
0
3DFACE
8
0
70
0
10
52.715221
20
330.792969
30
207.954956
11
55.974201
21
329.752655
31
205.020737
12
53.893063
22
333.414764
32
203.356049
13
50.714954
23
334.802643
33
205.687973
0
3DFACE
8
0
70
0
10
50.714954
20
334.802643
30
205.687973
11
53.893063
21
333.414764
31
203.356049
12
55.647232
22
331.576233
32
201.144470
13
52.850716
23
332.553986
33
203.545563
0
3DFACE
8
0
70
0
10
52.850716
20
332.553986
30
203.545563
11
55.647232
21
331.576233
31
201.144470
12
58.201984
22
327.052124
32
202.701874
13
55.360847
23
327.566101
33
205.793457
0
3DFACE
8
0
70
0
10
58.201984
20
327.052124
30
202.701874
11
59.480495
21
327.378906
31
199.818314
12
57.949623
22
329.321014
32
202.591415
13
55.974201
23
329.752655
33
205.020737
0
3DFACE
8
0
70
0
10
55.974201
20
329.752655
30
205.020737
11
57.949623
21
329.321014
31
202.591415
12
55.625912
22
332.614563
32
201.987305
13
53.893063
23
333.414764
33
203.356049
0
3DFACE
8
0
70
0
10
53.893063
20
333.414764
30
203.356049
11
55.625912
21
332.614563
31
201.987305
12
56.734669
22
331.388519
32
199.500580
13
55.647232
23
331.576233
33
201.144470
0
3DFACE
8
0
70
0
10
55.647232
20
331.576233
30
201.144470
11
56.734669
21
331.388519
31
199.500580
12
59.480495
22
327.378906
32
199.818314
13
58.201984
23
327.052124
33
202.701874
0
3DFACE
8
0
70
0
10
59.480495
20
327.378906
30
199.818314
11
60.592648
21
328.236389
31
195.431488
12
59.614872
22
329.646545
32
198.259781
13
57.949623
23
329.321014
33
202.591415
0
3DFACE
8
0
70
0
10
57.949623
20
329.321014
30
202.591415
11
59.614872
21
329.646545
31
198.259781
12
57.362843
22
332.520996
32
198.329819
13
55.625912
23
332.614563
33
201.987305
0
3DFACE
8
0
70
0
10
55.625912
20
332.614563
30
201.987305
11
57.362843
21
332.520996
31
198.329819
12
57.990307
22
331.703400
32
195.872726
13
56.734669
23
331.388519
33
199.500580
0
3DFACE
8
0
70
0
10
56.734669
20
331.388519
30
199.500580
11
57.990307
21
331.703400
31
195.872726
12
60.592648
22
328.236389
32
195.431488
13
59.480495
23
327.378906
33
199.818314
0
3DFACE
8
0
70
0
10
60.592648
20
328.236389
30
195.431488
11
61.455513
21
328.994904
31
191.798752
12
60.659016
22
330.198914
32
194.395767
13
59.614872
23
329.646545
33
198.259781
0
3DFACE
8
0
70
0
10
59.614872
20
329.646545
30
198.259781
11
60.659016
21
330.198914
31
194.395767
12
58.614582
22
332.760803
32
194.576736
13
57.362843
23
332.520996
33
198.329819
0
3DFACE
8
0
70
0
10
57.362843
20
332.520996
30
198.329819
11
58.614582
21
332.760803
31
194.576736
12
59.103867
22
332.079193
32
192.334106
13
57.990307
23
331.703400
33
195.872726
0
3DFACE
8
0
70
0
10
57.990307
20
331.703400
30
195.872726
11
59.103867
21
332.079193
31
192.334106
12
61.455513
22
328.994904
32
191.798752
13
60.592648
23
328.236389
33
195.431488
0
3DFACE
8
0
70
0
10
0.000000
20
10.792336
30
138.545212
11
0.000000
21
71.914680
31
177.929077
12
-53.691235
22
75.668274
32
138.545212
13
-24.109367
23
18.138126
33
125.437683
0
3DFACE
8
0
70
0
10
0.000000
20
175.075302
30
332.014832
11
0.000000
21
191.693863
31
333.466095
12
-7.822215
22
190.033447
32
333.147675
13
-9.048426
23
178.817963
33
332.072968
0
3DFACE
8
0
70
0
10
0.000000
20
73.728943
30
-55.083752
11
-36.471436
21
76.234238
31
-44.017220
12
-41.842770
22
130.193268
32
-47.778740
13
0.000000
23
135.058289
33
-63.777664
0
3DFACE
8
0
70
0
10
0.000000
20
164.135422
30
-79.001541
11
-3.184873
21
165.406693
31
-78.683846
12
-2.732237
22
174.728271
32
-76.457306
13
0.000000
23
175.606522
33
-76.261551
0
3DFACE
8
0
70
0
10
-47.097572
20
148.444794
30
21.679363
11
-43.384518
21
143.624268
31
90.344795
12
0.000000
22
155.174225
32
90.113487
13
0.000000
23
164.005066
33
25.353256
0
3DFACE
8
0
70
0
10
0.000000
20
155.174225
30
90.113487
11
-43.384518
21
143.624268
31
90.344795
12
-40.993786
22
141.100433
32
120.367966
13
0.000000
23
158.804886
33
121.943184
0
3DFACE
8
0
70
0
10
-27.252354
20
56.248257
30
23.870586
11
-23.394482
21
22.784950
31
92.163406
12
-54.127506
22
75.620972
32
91.255638
13
-62.357029
23
96.840569
33
23.192087
0
3DFACE
8
0
70
0
10
-62.984291
20
-150.533310
30
92.279610
11
-34.427769
21
-150.533310
31
93.434921
12
-28.537174
22
-150.533310
32
129.330582
13
-44.546185
23
-150.533310
33
143.963760
0
3DFACE
8
0
70
0
10
-62.357029
20
96.840569
30
23.192087
11
-54.127506
21
75.620972
31
91.255638
12
-43.384518
22
143.624268
32
90.344795
13
-47.097572
23
148.444794
33
21.679363
0
3DFACE
8
0
70
0
10
-54.127506
20
75.620972
30
91.255638
11
-53.691235
21
75.668274
31
138.545212
12
-40.993786
22
141.100433
32
120.367966
13
-43.384518
23
143.624268
33
90.344795
0
3DFACE
8
0
70
0
10
0.000000
20
47.646244
30
23.870586
11
0.000000
21
11.498053
31
92.389450
12
-23.394482
22
22.784950
32
92.163406
13
-27.252354
23
56.248257
33
23.870586
0
3DFACE
8
0
70
0
10
0.000000
20
11.498053
30
92.389450
11
0.000000
21
10.792336
31
138.545212
12
-24.109367
22
18.138126
32
125.437683
13
-23.394482
23
22.784950
33
92.163406
0
3DFACE
8
0
70
0
10
0.000000
20
163.641281
30
-11.700422
11
0.000000
21
161.132660
31
-46.500324
12
-36.471436
22
152.683533
32
-38.020222
13
-38.312435
23
154.151306
33
-13.738611
0
3DFACE
8
0
70
0
10
0.000000
20
164.005066
30
25.353256
11
0.000000
21
163.641281
31
-11.700422
12
-38.312435
22
154.151306
32
-13.738611
13
-47.097572
23
148.444794
33
21.679363
0
3DFACE
8
0
70
0
10
-61.100750
20
-149.181381
30
-42.245010
11
-45.405560
21
-149.181381
31
-42.938377
12
-31.096052
22
-149.682190
32
-42.732239
13
-36.338833
23
-149.709717
33
-42.228737
0
3DFACE
8
0
70
0
10
-81.179321
20
-150.779922
30
24.482664
11
-61.100750
21
-149.181381
31
-42.245010
12
-36.338833
22
-149.709717
32
-42.228737
13
-45.405560
23
-151.151489
33
24.482664
0
3DFACE
8
0
70
0
10
-70.886993
20
112.769875
30
-22.685003
11
-38.312435
21
154.151306
31
-13.738611
12
-36.471436
22
152.683533
32
-38.020222
13
-41.842770
23
130.193268
33
-47.778740
0
3DFACE
8
0
70
0
10
-47.097572
20
148.444794
30
21.679363
11
-38.312435
21
154.151306
31
-13.738611
12
-70.886993
22
112.769875
32
-22.685003
13
-62.357029
23
96.840569
33
23.192087
0
3DFACE
8
0
70
0
10
0.000000
20
39.818542
30
-23.077322
11
-38.439411
21
49.813492
31
-23.277485
12
-36.471436
22
76.234238
32
-44.017220
13
0.000000
23
73.728943
33
-55.083752
0
3DFACE
8
0
70
0
10
-27.252354
20
56.248257
30
23.870586
11
-38.439411
21
49.813492
31
-23.277485
12
0.000000
22
39.818542
32
-23.077322
13
0.000000
23
47.646244
33
23.870586
0
3DFACE
8
0
70
0
10
-55.724819
20
-74.268250
30
-68.498070
11
-53.792427
21
-41.071167
31
-56.419861
12
-47.097572
22
-41.071167
32
-56.419861
13
-46.382446
23
-74.268250
33
-69.636871
0
3DFACE
8
0
70
0
10
-37.864887
20
-74.650131
30
-69.298309
11
-46.382446
21
-74.268250
31
-69.636871
12
-47.097572
22
-41.071167
32
-56.419861
13
-40.993786
23
-41.225811
33
-56.419861
0
3DFACE
8
0
70
0
10
-40.985584
20
-74.671089
30
-68.471336
11
-37.864887
21
-74.650131
31
-69.298309
12
-40.993786
22
-41.225811
32
-56.419861
13
-43.230125
23
-41.234310
33
-56.419861
0
3DFACE
8
0
70
0
10
-67.676346
20
-74.322113
30
-37.039867
11
-62.357029
21
-44.109798
31
-8.979866
12
-53.792427
22
-41.071167
32
-56.419861
13
-55.724819
23
-74.268250
33
-68.498070
0
3DFACE
8
0
70
0
10
-46.382446
20
-74.721359
30
-37.039867
11
-40.985584
21
-74.671089
31
-68.471336
12
-43.230125
22
-41.234310
32
-56.419861
13
-47.097572
23
-43.126350
33
-8.979866
0
3DFACE
8
0
70
0
10
-46.382446
20
-74.721359
30
-37.039867
11
-47.097572
21
-43.126350
31
-8.979866
12
-62.357029
22
-44.109798
32
-8.979866
13
-67.676346
23
-74.322113
33
-37.039867
0
3DFACE
8
0
70
0
10
-55.724819
20
-103.816925
30
-46.284885
11
-55.724819
21
-74.268250
31
-68.498070
12
-46.382446
22
-74.268250
32
-69.636871
13
-46.382446
23
-103.816925
33
-46.427238
0
3DFACE
8
0
70
0
10
-37.864887
20
-104.240456
30
-46.384918
11
-46.382446
21
-103.816925
31
-46.427238
12
-46.382446
22
-74.268250
32
-69.636871
13
-37.864887
23
-74.650131
33
-69.298309
0
3DFACE
8
0
70
0
10
-40.985584
20
-104.263718
30
-46.281544
11
-37.864887
21
-104.240456
31
-46.384918
12
-37.864887
22
-74.650131
32
-69.298309
13
-40.985584
23
-74.671089
33
-68.471336
0
3DFACE
8
0
70
0
10
-67.676346
20
-104.687218
30
-16.972370
11
-67.676346
21
-74.322113
31
-37.039867
12
-55.724819
22
-74.268250
32
-68.498070
13
-55.724819
23
-103.816925
33
-46.284885
0
3DFACE
8
0
70
0
10
-46.382446
20
-105.086456
30
-16.972370
11
-40.985584
21
-104.263718
31
-46.281544
12
-40.985584
22
-74.671089
32
-68.471336
13
-46.382446
23
-74.721359
33
-37.039867
0
3DFACE
8
0
70
0
10
-46.382446
20
-105.086456
30
-16.972370
11
-46.382446
21
-74.721359
31
-37.039867
12
-67.676346
22
-74.322113
32
-37.039867
13
-67.676346
23
-104.687218
33
-16.972370
0
3DFACE
8
0
70
0
10
-61.100750
20
-149.181381
30
-42.245010
11
-55.724819
21
-103.816925
31
-46.284885
12
-46.382446
22
-103.816925
32
-46.427238
13
-45.405560
23
-149.181381
33
-42.938377
0
3DFACE
8
0
70
0
10
-31.096052
20
-149.682190
30
-42.732239
11
-45.405560
21
-149.181381
31
-42.938377
12
-46.382446
22
-103.816925
32
-46.427238
13
-37.864887
23
-104.240456
33
-46.384918
0
3DFACE
8
0
70
0
10
-36.338833
20
-149.709717
30
-42.228737
11
-31.096052
21
-149.682190
31
-42.732239
12
-37.864887
22
-104.240456
32
-46.384918
13
-40.985584
23
-104.263718
33
-46.281544
0
3DFACE
8
0
70
0
10
-81.179321
20
-150.779922
30
24.482664
11
-67.676346
21
-104.687218
31
-16.972370
12
-55.724819
22
-103.816925
32
-46.284885
13
-61.100750
23
-149.181381
33
-42.245010
0
3DFACE
8
0
70
0
10
-45.405560
20
-151.151489
30
24.482664
11
-36.338833
21
-149.709717
31
-42.228737
12
-40.985584
22
-104.263718
32
-46.281544
13
-46.382446
23
-105.086456
33
-16.972370
0
3DFACE
8
0
70
0
10
-45.405560
20
-151.151489
30
24.482664
11
-46.382446
21
-105.086456
31
-16.972370
12
-67.676346
22
-104.687218
32
-16.972370
13
-81.179321
23
-150.779922
33
24.482664
0
3DFACE
8
0
70
0
10
-43.239704
20
-52.339184
30
109.503319
11
-54.127506
21
-52.339184
31
109.094826
12
-54.127506
22
75.620972
32
91.255638
13
-23.394482
23
22.784950
33
92.163406
0
3DFACE
8
0
70
0
10
-43.239704
20
-52.339184
30
109.503319
11
-23.394482
21
22.784950
31
92.163406
12
-24.109367
22
18.138126
32
125.437683
13
-40.993786
23
-52.339184
33
122.195381
0
3DFACE
8
0
70
0
10
-40.993786
20
-52.339184
30
122.195381
11
-24.109367
21
18.138126
31
125.437683
12
-53.691235
22
75.668274
32
138.545212
13
-47.097572
23
-52.339184
33
127.369415
0
3DFACE
8
0
70
0
10
-47.097572
20
-52.339184
30
127.369415
11
-53.691235
21
75.668274
31
138.545212
12
-54.127506
22
75.620972
32
91.255638
13
-54.127506
23
-52.339184
33
109.094826
0
3DFACE
8
0
70
0
10
-37.624790
20
-91.226456
30
93.589096
11
-54.827522
21
-91.226456
31
92.943672
12
-54.127506
22
-52.339184
32
109.094826
13
-43.239704
23
-52.339184
33
109.503319
0
3DFACE
8
0
70
0
10
-34.076244
20
-91.226456
30
113.642540
11
-37.624790
21
-91.226456
31
93.589096
12
-43.239704
22
-52.339184
32
109.503319
13
-40.993786
23
-52.339184
33
122.195381
0
3DFACE
8
0
70
0
10
-43.720226
20
-91.226456
30
121.817505
11
-34.076244
21
-91.226456
31
113.642540
12
-40.993786
22
-52.339184
32
122.195381
13
-47.097572
23
-52.339184
33
127.369415
0
3DFACE
8
0
70
0
10
-43.720226
20
-91.226456
30
121.817505
11
-47.097572
21
-52.339184
31
127.369415
12
-54.127506
22
-52.339184
32
109.094826
13
-54.827522
23
-91.226456
33
92.943672
0
3DFACE
8
0
70
0
10
-34.427769
20
-150.533310
30
93.434921
11
-62.984291
21
-150.533310
31
92.279610
12
-54.827522
22
-91.226456
32
92.943672
13
-37.624790
23
-91.226456
33
93.589096
0
3DFACE
8
0
70
0
10
-28.537174
20
-150.533310
30
129.330582
11
-34.427769
21
-150.533310
31
93.434921
12
-37.624790
22
-91.226456
32
93.589096
13
-34.076244
23
-91.226456
33
113.642540
0
3DFACE
8
0
70
0
10
-44.546185
20
-150.533310
30
143.963760
11
-28.537174
21
-150.533310
31
129.330582
12
-34.076244
22
-91.226456
32
113.642540
13
-43.720226
23
-91.226456
33
121.817505
0
3DFACE
8
0
70
0
10
-44.546185
20
-150.533310
30
143.963760
11
-43.720226
21
-91.226456
31
121.817505
12
-54.827522
22
-91.226456
32
92.943672
13
-62.984291
23
-150.533310
33
92.279610
0
3DFACE
8
0
70
0
10
0.000000
20
174.104645
30
242.974670
11
-34.193748
21
200.156540
31
241.651062
12
-22.550318
22
213.086761
32
224.204544
13
0.000000
23
169.526398
33
227.419525
0
3DFACE
8
0
70
0
10
-7.822215
20
190.033447
30
333.147675
11
0.000000
21
191.693863
31
333.466095
12
0.000000
22
227.313889
32
295.531921
13
-23.006514
23
221.734741
33
294.789612
0
3DFACE
8
0
70
0
10
-9.048426
20
178.817963
30
332.072968
11
-7.822215
21
190.033447
31
333.147675
12
-23.006514
22
221.734741
32
294.789612
13
-26.613020
23
183.872665
33
294.630798
0
3DFACE
8
0
70
0
10
0.000000
20
175.075302
30
332.014832
11
-9.048426
21
178.817963
31
332.072968
12
-26.613020
22
183.872665
32
294.630798
13
0.000000
23
171.508362
33
293.639801
0
3DFACE
8
0
70
0
10
-47.099548
20
282.777008
30
233.437408
11
-44.010895
21
272.044586
31
227.426743
12
-44.373329
22
265.965546
32
226.782455
13
-47.926224
23
265.030701
33
231.536987
0
3DFACE
8
0
70
0
10
-32.090694
20
228.748657
30
244.683548
11
-20.781479
21
231.879059
31
226.157806
12
-22.550318
22
213.086761
32
224.204544
13
-34.193748
23
200.156540
33
241.651062
0
3DFACE
8
0
70
0
10
-44.010895
20
272.044586
30
227.426743
11
-47.099548
21
282.777008
31
233.437408
12
-29.459309
22
264.523621
32
248.477859
13
-19.627825
23
244.135544
33
227.431732
0
3DFACE
8
0
70
0
10
-44.373329
20
265.965546
30
226.782455
11
-44.010895
21
272.044586
31
227.426743
12
-19.627825
22
244.135544
32
227.431732
13
-20.781479
23
231.879059
33
226.157806
0
3DFACE
8
0
70
0
10
-47.926224
20
265.030701
30
231.536987
11
-44.373329
21
265.965546
31
226.782455
12
-20.781479
22
231.879059
32
226.157806
13
-32.090694
23
228.748657
33
244.683548
0
3DFACE
8
0
70
0
10
-47.926224
20
265.030701
30
231.536987
11
-32.090694
21
228.748657
31
244.683548
12
-29.459309
22
264.523621
32
248.477859
13
-47.099548
23
282.777008
33
233.437408
0
3DFACE
8
0
70
0
10
-17.663412
20
257.494354
30
238.352219
11
-29.459309
21
264.523621
31
248.477859
12
0.000000
22
274.157013
32
249.657425
13
-6.616395
23
261.016998
33
238.785553
0
3DFACE
8
0
70
0
10
-7.403246
20
250.613815
30
227.611511
11
-6.616395
21
261.016998
31
238.785553
12
0.000000
22
274.157013
32
249.657425
13
0.000000
23
245.567795
33
220.120972
0
3DFACE
8
0
70
0
10
-14.222394
20
250.075424
30
230.390259
11
-7.403246
21
250.613815
31
227.611511
12
0.000000
22
245.567795
32
220.120972
13
-19.627825
23
244.135544
33
227.431732
0
3DFACE
8
0
70
0
10
-14.222394
20
250.075424
30
230.390259
11
-19.627825
21
244.135544
31
227.431732
12
-29.459309
22
264.523621
32
248.477859
13
-17.663412
23
257.494354
33
238.352219
0
3DFACE
8
0
70
0
10
-47.738171
20
340.769836
30
202.314255
11
-44.659035
21
337.311005
31
202.436356
12
-49.048843
22
335.234680
32
200.833359
13
-50.222076
23
337.777527
33
201.191498
0
3DFACE
8
0
70
0
10
-6.616395
20
261.016998
30
238.785553
11
-7.403246
21
250.613815
31
227.611511
12
-50.063629
22
284.230469
32
219.604630
13
-48.365719
23
294.073792
33
226.461685
0
3DFACE
8
0
70
0
10
-54.848675
20
286.199066
30
220.975998
11
-61.977207
21
297.139435
31
216.884338
12
-57.195736
22
293.172729
32
216.427460
13
-50.063629
23
284.230469
33
219.604630
0
3DFACE
8
0
70
0
10
-48.365719
20
294.073792
30
226.461685
11
-50.063629
21
284.230469
31
219.604630
12
-57.195736
22
293.172729
32
216.427460
13
-54.711094
23
302.222900
33
222.068100
0
3DFACE
8
0
70
0
10
-85.269157
20
304.271912
30
195.431000
11
-84.319763
21
309.271454
31
195.565811
12
-84.578468
22
307.908264
32
193.231140
13
-85.092674
23
302.951294
33
192.819351
0
3DFACE
8
0
70
0
10
-17.663412
20
257.494354
30
238.352219
11
-56.129124
21
293.423676
31
226.008804
12
-54.848675
22
286.199066
32
220.975998
13
-14.222394
23
250.075424
33
230.390259
0
3DFACE
8
0
70
0
10
-56.129124
20
293.423676
30
226.008804
11
-48.365719
21
294.073792
31
226.461685
12
-54.711094
22
302.222900
32
222.068100
13
-62.570679
23
304.578979
33
220.616196
0
3DFACE
8
0
70
0
10
-14.222394
20
250.075424
30
230.390259
11
-54.848675
21
286.199066
31
220.975998
12
-50.063629
22
284.230469
32
219.604630
13
-7.403246
23
250.613815
33
227.611511
0
3DFACE
8
0
70
0
10
-53.379593
20
323.267548
30
211.589737
11
-49.062222
21
322.160034
31
210.534546
12
-49.378212
22
325.489319
32
208.608536
13
-52.715221
23
330.792969
33
207.954956
0
3DFACE
8
0
70
0
10
-62.570679
20
304.578979
30
220.616196
11
-54.711094
21
302.222900
31
222.068100
12
-49.062222
22
322.160034
32
210.534546
13
-53.379593
23
323.267548
33
211.589737
0
3DFACE
8
0
70
0
10
-55.132603
20
320.056885
30
208.530655
11
-55.360847
21
327.566101
31
205.793457
12
-54.316067
22
323.528717
32
205.472504
13
-53.571899
23
318.682678
33
207.221344
0
3DFACE
8
0
70
0
10
-61.977207
20
297.139435
30
216.884338
11
-55.132603
21
320.056885
31
208.530655
12
-53.571899
22
318.682678
32
207.221344
13
-57.195736
23
293.172729
33
216.427460
0
3DFACE
8
0
70
0
10
-35.307896
20
323.477997
30
198.817337
11
-36.863346
21
325.646484
31
198.502258
12
-34.791706
22
327.599030
32
200.306458
13
-33.759411
23
325.957458
33
200.896866
0
3DFACE
8
0
70
0
10
-57.195736
20
293.172729
30
216.427460
11
-53.571899
21
318.682678
31
207.221344
12
-49.062222
22
322.160034
32
210.534546
13
-54.711094
23
302.222900
33
222.068100
0
3DFACE
8
0
70
0
10
-53.379593
20
323.267548
30
211.589737
11
-52.715221
21
330.792969
31
207.954956
12
-55.360847
22
327.566101
32
205.793457
13
-55.132603
23
320.056885
33
208.530655
0
3DFACE
8
0
70
0
10
-61.977207
20
297.139435
30
216.884338
11
-62.570679
21
304.578979
31
220.616196
12
-53.379593
22
323.267548
32
211.589737
13
-55.132603
23
320.056885
33
208.530655
0
3DFACE
8
0
70
0
10
-50.714954
20
334.802643
30
205.687973
11
-46.185997
21
333.485931
31
204.433456
12
-44.659035
22
337.311005
32
202.436356
13
-47.738171
23
340.769836
33
202.314255
0
3DFACE
8
0
70
0
10
-49.378212
20
325.489319
30
208.608536
11
-54.316067
21
323.528717
31
205.472504
12
-50.805294
22
331.331116
32
202.380371
13
-46.185997
23
333.485931
33
204.433456
0
3DFACE
8
0
70
0
10
-54.316067
20
323.528717
30
205.472504
11
-55.360847
21
327.566101
31
205.793457
12
-52.850716
22
332.553986
32
203.545563
13
-50.805294
23
331.331116
33
202.380371
0
3DFACE
8
0
70
0
10
-61.455513
20
328.994904
30
191.798752
11
-60.659016
21
330.198914
31
194.395767
12
-58.614582
22
332.760803
32
194.576736
13
-59.103867
23
332.079193
33
192.334106
0
3DFACE
8
0
70
0
10
-49.378212
20
325.489319
30
208.608536
11
-46.185997
21
333.485931
31
204.433456
12
-50.714954
22
334.802643
32
205.687973
13
-52.715221
23
330.792969
33
207.954956
0
3DFACE
8
0
70
0
10
-46.185997
20
333.485931
30
204.433456
11
-50.805294
21
331.331116
31
202.380371
12
-49.048843
22
335.234680
32
200.833359
13
-44.659035
23
337.311005
33
202.436356
0
3DFACE
8
0
70
0
10
-52.850716
20
332.553986
30
203.545563
11
-50.222076
21
337.777527
31
201.191498
12
-49.048843
22
335.234680
32
200.833359
13
-50.805294
23
331.331116
33
202.380371
0
3DFACE
8
0
70
0
10
-50.714954
20
334.802643
30
205.687973
11
-47.738171
21
340.769836
31
202.314255
12
-50.222076
22
337.777527
32
201.191498
13
-52.850716
23
332.553986
33
203.545563
0
3DFACE
8
0
70
0
10
-56.129124
20
293.423676
30
226.008804
11
-62.570679
21
304.578979
31
220.616196
12
-65.618416
22
301.574036
32
218.986938
13
-59.808018
23
291.546570
33
223.844421
0
3DFACE
8
0
70
0
10
-62.570679
20
304.578979
30
220.616196
11
-61.977207
21
297.139435
31
216.884338
12
-65.080009
22
294.875702
32
215.633224
13
-65.618416
23
301.574036
33
218.986938
0
3DFACE
8
0
70
0
10
-61.977207
20
297.139435
30
216.884338
11
-54.848675
21
286.199066
31
220.975998
12
-58.652309
22
285.041229
32
219.319244
13
-65.080009
23
294.875702
33
215.633224
0
3DFACE
8
0
70
0
10
-54.848675
20
286.199066
30
220.975998
11
-56.129124
21
293.423676
31
226.008804
12
-59.808018
22
291.546570
32
223.844421
13
-58.652309
23
285.041229
33
219.319244
0
3DFACE
8
0
70
0
10
-59.808018
20
291.546570
30
223.844421
11
-65.618416
21
301.574036
31
218.986938
12
-67.964401
22
298.645325
32
217.963425
13
-65.500587
23
287.662506
33
221.121002
0
3DFACE
8
0
70
0
10
-65.618416
20
301.574036
30
218.986938
11
-65.080009
21
294.875702
31
215.633224
12
-68.191399
22
293.391327
32
213.953506
13
-67.964401
23
298.645325
33
217.963425
0
3DFACE
8
0
70
0
10
-65.080009
20
294.875702
30
215.633224
11
-58.652309
21
285.041229
31
219.319244
12
-64.980446
22
282.625824
32
216.189835
13
-68.191399
23
293.391327
33
213.953506
0
3DFACE
8
0
70
0
10
-58.652309
20
285.041229
30
219.319244
11
-59.808018
21
291.546570
31
223.844421
12
-65.500587
22
287.662506
32
221.121002
13
-64.980446
23
282.625824
33
216.189835
0
3DFACE
8
0
70
0
10
-65.500587
20
287.662506
30
221.121002
11
-67.964401
21
298.645325
31
217.963425
12
-69.317795
22
298.460266
32
216.358063
13
-70.553192
23
287.864929
33
216.762909
0
3DFACE
8
0
70
0
10
-67.964401
20
298.645325
30
217.963425
11
-68.191399
21
293.391327
31
213.953506
12
-69.874115
22
295.203949
32
211.679993
13
-69.317795
23
298.460266
33
216.358063
0
3DFACE
8
0
70
0
10
-68.191399
20
293.391327
30
213.953506
11
-64.980446
21
282.625824
31
216.189835
12
-70.236549
22
284.734222
32
211.456360
13
-69.874115
23
295.203949
33
211.679993
0
3DFACE
8
0
70
0
10
-64.980446
20
282.625824
30
216.189835
11
-65.500587
21
287.662506
31
221.121002
12
-70.553192
22
287.864929
32
216.762909
13
-70.236549
23
284.734222
33
211.456360
0
3DFACE
8
0
70
0
10
-70.553192
20
287.864929
30
216.762909
11
-69.317795
21
298.460266
31
216.358063
12
-71.463638
22
299.445984
32
213.544678
13
-72.945076
23
289.966217
33
213.578049
0
3DFACE
8
0
70
0
10
-69.317795
20
298.460266
30
216.358063
11
-69.874115
21
295.203949
31
211.679993
12
-71.961151
22
296.711456
32
209.232834
13
-71.463638
23
299.445984
33
213.544678
0
3DFACE
8
0
70
0
10
-69.874115
20
295.203949
30
211.679993
11
-70.236549
21
284.734222
31
211.456360
12
-72.638382
22
287.327667
32
208.724686
13
-71.961151
23
296.711456
33
209.232834
0
3DFACE
8
0
70
0
10
-70.236549
20
284.734222
30
211.456360
11
-70.553192
21
287.864929
31
216.762909
12
-72.945076
22
289.966217
32
213.578049
13
-72.638382
23
287.327667
33
208.724686
0
3DFACE
8
0
70
0
10
-72.945076
20
289.966217
30
213.578049
11
-71.463638
21
299.445984
31
213.544678
12
-73.958107
22
300.071198
32
210.692764
13
-75.291389
23
291.539398
33
210.722794
0
3DFACE
8
0
70
0
10
-71.463638
20
299.445984
30
213.544678
11
-71.961151
21
296.711456
31
209.232834
12
-74.405869
22
297.610046
32
206.812119
13
-73.958107
23
300.071198
33
210.692764
0
3DFACE
8
0
70
0
10
-71.961151
20
296.711456
30
209.232834
11
-72.638382
21
287.327667
31
208.724686
12
-75.015381
22
289.164764
32
206.354767
13
-74.405869
23
297.610046
33
206.812119
0
3DFACE
8
0
70
0
10
-72.638382
20
287.327667
30
208.724686
11
-72.945076
21
289.966217
31
213.578049
12
-75.291389
22
291.539398
32
210.722794
13
-75.015381
23
289.164764
33
206.354767
0
3DFACE
8
0
70
0
10
-75.291389
20
291.539398
30
210.722794
11
-73.958107
21
300.071198
31
210.692764
12
-76.002304
22
301.060394
32
208.063156
13
-77.817223
23
293.566925
33
207.490555
0
3DFACE
8
0
70
0
10
-73.958107
20
300.071198
30
210.692764
11
-74.405869
21
297.610046
31
206.812119
12
-76.371536
22
299.198364
32
204.410507
13
-76.002304
23
301.060394
33
208.063156
0
3DFACE
8
0
70
0
10
-74.405869
20
297.610046
30
206.812119
11
-75.015381
21
289.164764
31
206.354767
12
-77.506279
22
291.747925
32
203.441177
13
-76.371536
23
299.198364
33
204.410507
0
3DFACE
8
0
70
0
10
-75.015381
20
289.164764
30
206.354767
11
-75.291389
21
291.539398
31
210.722794
12
-77.817223
22
293.566925
32
207.490555
13
-77.506279
23
291.747925
33
203.441177
0
3DFACE
8
0
70
0
10
-77.817223
20
293.566925
30
207.490555
11
-76.002304
21
301.060394
31
208.063156
12
-77.640808
22
302.374573
32
205.635315
13
-79.767899
23
295.894379
33
204.577301
0
3DFACE
8
0
70
0
10
-76.002304
20
301.060394
30
208.063156
11
-76.371536
21
299.198364
31
204.410507
12
-77.910355
22
301.015839
32
202.230652
13
-77.640808
23
302.374573
33
205.635315
0
3DFACE
8
0
70
0
10
-76.371536
20
299.198364
30
204.410507
11
-77.506279
21
291.747925
31
203.441177
12
-79.404755
22
294.538086
32
200.851624
13
-77.910355
23
301.015839
33
202.230652
0
3DFACE
8
0
70
0
10
-77.506279
20
291.747925
30
203.441177
11
-77.817223
21
293.566925
31
207.490555
12
-79.767899
22
295.894379
32
204.577301
13
-79.404755
23
294.538086
33
200.851624
0
3DFACE
8
0
70
0
10
-79.767899
20
295.894379
30
204.577301
11
-77.640808
21
302.374573
31
205.635315
12
-79.439224
22
304.841492
32
202.504120
13
-81.438324
23
299.068542
33
201.451401
0
3DFACE
8
0
70
0
10
-77.640808
20
302.374573
30
205.635315
11
-77.910355
21
301.015839
31
202.230652
12
-79.666756
22
303.677063
32
199.421158
13
-79.439224
23
304.841492
33
202.504120
0
3DFACE
8
0
70
0
10
-77.910355
20
301.015839
30
202.230652
11
-79.404755
21
294.538086
31
200.851624
12
-81.093231
22
297.899109
32
198.085968
13
-79.666756
23
303.677063
33
199.421158
0
3DFACE
8
0
70
0
10
-79.404755
20
294.538086
30
200.851624
11
-79.767899
21
295.894379
31
204.577301
12
-81.438324
22
299.068542
32
201.451401
13
-81.093231
23
297.899109
33
198.085968
0
3DFACE
8
0
70
0
10
-81.438324
20
299.068542
30
201.451401
11
-79.439224
21
304.841492
31
202.504120
12
-81.848801
22
307.662689
32
198.721954
13
-83.256790
23
302.237183
33
198.215530
0
3DFACE
8
0
70
0
10
-79.439224
20
304.841492
30
202.504120
11
-79.666756
21
303.677063
31
199.421158
12
-82.109726
22
306.357483
32
196.038177
13
-81.848801
23
307.662689
33
198.721954
0
3DFACE
8
0
70
0
10
-79.666756
20
303.677063
30
199.421158
11
-81.093231
21
297.899109
31
198.085968
12
-83.018158
22
300.957581
32
195.248611
13
-82.109726
23
306.357483
33
196.038177
0
3DFACE
8
0
70
0
10
-81.093231
20
297.899109
30
198.085968
11
-81.438324
21
299.068542
31
201.451401
12
-83.256790
22
302.237183
32
198.215530
13
-83.018158
23
300.957581
33
195.248611
0
3DFACE
8
0
70
0
10
-83.256790
20
302.237183
30
198.215530
11
-81.848801
21
307.662689
31
198.721954
12
-84.319763
22
309.271454
32
195.565811
13
-85.269157
23
304.271912
33
195.431000
0
3DFACE
8
0
70
0
10
-81.848801
20
307.662689
30
198.721954
11
-82.109726
21
306.357483
31
196.038177
12
-84.578468
22
307.908264
32
193.231140
13
-84.319763
23
309.271454
33
195.565811
0
3DFACE
8
0
70
0
10
-82.109726
20
306.357483
30
196.038177
11
-83.018158
21
300.957581
31
195.248611
12
-85.092674
22
302.951294
32
192.819351
13
-84.578468
23
307.908264
33
193.231140
0
3DFACE
8
0
70
0
10
-83.018158
20
300.957581
30
195.248611
11
-83.256790
21
302.237183
31
198.215530
12
-85.269157
22
304.271912
32
195.431000
13
-85.092674
23
302.951294
33
192.819351
0
3DFACE
8
0
70
0
10
-53.571899
20
318.682678
30
207.221344
11
-54.316067
21
323.528717
31
205.472504
12
-50.378014
22
321.704407
32
204.202026
13
-49.273537
23
317.365051
33
205.564041
0
3DFACE
8
0
70
0
10
-54.316067
20
323.528717
30
205.472504
11
-49.378212
21
325.489319
31
208.608536
12
-46.069195
22
323.835052
32
207.038040
13
-50.378014
23
321.704407
33
204.202026
0
3DFACE
8
0
70
0
10
-49.378212
20
325.489319
30
208.608536
11
-49.062222
21
322.160034
31
210.534546
12
-45.472263
22
320.795319
32
208.627380
13
-46.069195
23
323.835052
33
207.038040
0
3DFACE
8
0
70
0
10
-49.062222
20
322.160034
30
210.534546
11
-53.571899
21
318.682678
31
207.221344
12
-49.273537
22
317.365051
32
205.564041
13
-45.472263
23
320.795319
33
208.627380
0
3DFACE
8
0
70
0
10
-49.273537
20
317.365051
30
205.564041
11
-50.378014
21
321.704407
31
204.202026
12
-47.768646
22
321.261963
32
203.339249
13
-46.518475
23
317.402039
33
204.435669
0
3DFACE
8
0
70
0
10
-50.378014
20
321.704407
30
204.202026
11
-46.069195
21
323.835052
31
207.038040
12
-43.988281
22
323.388885
32
205.909180
13
-47.768646
23
321.261963
33
203.339249
0
3DFACE
8
0
70
0
10
-46.069195
20
323.835052
30
207.038040
11
-45.472263
21
320.795319
31
208.627380
12
-43.264065
22
320.650421
32
207.250122
13
-43.988281
23
323.388885
33
205.909180
0
3DFACE
8
0
70
0
10
-45.472263
20
320.795319
30
208.627380
11
-49.273537
21
317.365051
31
205.564041
12
-46.518475
22
317.402039
32
204.435669
13
-43.264065
23
320.650421
33
207.250122
0
3DFACE
8
0
70
0
10
-46.518475
20
317.402039
30
204.435669
11
-47.768646
21
321.261963
31
203.339249
12
-45.005028
22
320.201385
32
202.456360
13
-43.028862
23
317.108032
33
202.980911
0
3DFACE
8
0
70
0
10
-47.768646
20
321.261963
30
203.339249
11
-43.988281
21
323.388885
31
205.909180
12
-42.053318
22
322.768127
32
204.894104
13
-45.005028
23
320.201385
33
202.456360
0
3DFACE
8
0
70
0
10
-43.988281
20
323.388885
30
205.909180
11
-43.264065
21
320.650421
31
207.250122
12
-40.760189
22
320.454590
32
205.771713
13
-42.053318
23
322.768127
33
204.894104
0
3DFACE
8
0
70
0
10
-43.264065
20
320.650421
30
207.250122
11
-46.518475
21
317.402039
31
204.435669
12
-43.028862
22
317.108032
32
202.980911
13
-40.760189
23
320.454590
33
205.771713
0
3DFACE
8
0
70
0
10
-43.028862
20
317.108032
30
202.980911
11
-45.005028
21
320.201385
31
202.456360
12
-42.046349
22
321.725922
32
201.087265
13
-39.460648
23
319.855469
33
201.043365
0
3DFACE
8
0
70
0
10
-45.005028
20
320.201385
30
202.456360
11
-42.053318
21
322.768127
31
204.894104
12
-40.121605
22
324.549927
32
203.560593
13
-42.046349
23
321.725922
33
201.087265
0
3DFACE
8
0
70
0
10
-42.053318
20
322.768127
30
204.894104
11
-40.760189
21
320.454590
31
205.771713
12
-38.301186
22
322.997803
32
203.960617
13
-40.121605
23
324.549927
33
203.560593
0
3DFACE
8
0
70
0
10
-40.760189
20
320.454590
30
205.771713
11
-43.028862
21
317.108032
31
202.980911
12
-39.460648
22
319.855469
32
201.043365
13
-38.301186
23
322.997803
33
203.960617
0
3DFACE
8
0
70
0
10
-39.460648
20
319.855469
30
201.043365
11
-42.046349
21
321.725922
31
201.087265
12
-39.629898
22
324.390869
32
199.791870
13
-37.491966
23
322.412842
33
199.884644
0
3DFACE
8
0
70
0
10
-42.046349
20
321.725922
30
201.087265
11
-40.121605
21
324.549927
31
203.560593
12
-37.681747
22
326.827332
32
201.928955
13
-39.629898
23
324.390869
33
199.791870
0
3DFACE
8
0
70
0
10
-40.121605
20
324.549927
30
203.560593
11
-38.301186
21
322.997803
31
203.960617
12
-36.204319
22
325.249786
32
202.391678
13
-37.681747
23
326.827332
33
201.928955
0
3DFACE
8
0
70
0
10
-38.301186
20
322.997803
30
203.960617
11
-39.460648
21
319.855469
31
201.043365
12
-37.491966
22
322.412842
32
199.884644
13
-36.204319
23
325.249786
33
202.391678
0
3DFACE
8
0
70
0
10
-37.491966
20
322.412842
30
199.884644
11
-39.629898
21
324.390869
31
199.791870
12
-36.863346
22
325.646484
32
198.502258
13
-35.307896
23
323.477997
33
198.817337
0
3DFACE
8
0
70
0
10
-39.629898
20
324.390869
30
199.791870
11
-37.681747
21
326.827332
31
201.928955
12
-34.791706
22
327.599030
32
200.306458
13
-36.863346
23
325.646484
33
198.502258
0
3DFACE
8
0
70
0
10
-37.681747
20
326.827332
30
201.928955
11
-36.204319
21
325.249786
31
202.391678
12
-33.759411
22
325.957458
32
200.896866
13
-34.791706
23
327.599030
33
200.306458
0
3DFACE
8
0
70
0
10
-36.204319
20
325.249786
30
202.391678
11
-37.491966
21
322.412842
31
199.884644
12
-35.307896
22
323.477997
32
198.817337
13
-33.759411
23
325.957458
33
200.896866
0
3DFACE
8
0
70
0
10
-55.360847
20
327.566101
30
205.793457
11
-52.715221
21
330.792969
31
207.954956
12
-55.974201
22
329.752655
32
205.020737
13
-58.201984
23
327.052124
33
202.701874
0
3DFACE
8
0
70
0
10
-52.715221
20
330.792969
30
207.954956
11
-50.714954
21
334.802643
31
205.687973
12
-53.893063
22
333.414764
32
203.356049
13
-55.974201
23
329.752655
33
205.020737
0
3DFACE
8
0
70
0
10
-50.714954
20
334.802643
30
205.687973
11
-52.850716
21
332.553986
31
203.545563
12
-55.647232
22
331.576233
32
201.144470
13
-53.893063
23
333.414764
33
203.356049
0
3DFACE
8
0
70
0
10
-52.850716
20
332.553986
30
203.545563
11
-55.360847
21
327.566101
31
205.793457
12
-58.201984
22
327.052124
32
202.701874
13
-55.647232
23
331.576233
33
201.144470
0
3DFACE
8
0
70
0
10
-58.201984
20
327.052124
30
202.701874
11
-55.974201
21
329.752655
31
205.020737
12
-57.949623
22
329.321014
32
202.591415
13
-59.480495
23
327.378906
33
199.818314
0
3DFACE
8
0
70
0
10
-55.974201
20
329.752655
30
205.020737
11
-53.893063
21
333.414764
31
203.356049
12
-55.625912
22
332.614563
32
201.987305
13
-57.949623
23
329.321014
33
202.591415
0
3DFACE
8
0
70
0
10
-53.893063
20
333.414764
30
203.356049
11
-55.647232
21
331.576233
31
201.144470
12
-56.734669
22
331.388519
32
199.500580
13
-55.625912
23
332.614563
33
201.987305
0
3DFACE
8
0
70
0
10
-55.647232
20
331.576233
30
201.144470
11
-58.201984
21
327.052124
31
202.701874
12
-59.480495
22
327.378906
32
199.818314
13
-56.734669
23
331.388519
33
199.500580
0
3DFACE
8
0
70
0
10
-59.480495
20
327.378906
30
199.818314
11
-57.949623
21
329.321014
31
202.591415
12
-59.614872
22
329.646545
32
198.259781
13
-60.592648
23
328.236389
33
195.431488
0
3DFACE
8
0
70
0
10
-57.949623
20
329.321014
30
202.591415
11
-55.625912
21
332.614563
31
201.987305
12
-57.362843
22
332.520996
32
198.329819
13
-59.614872
23
329.646545
33
198.259781
0
3DFACE
8
0
70
0
10
-55.625912
20
332.614563
30
201.987305
11
-56.734669
21
331.388519
31
199.500580
12
-57.990307
22
331.703400
32
195.872726
13
-57.362843
23
332.520996
33
198.329819
0
3DFACE
8
0
70
0
10
-56.734669
20
331.388519
30
199.500580
11
-59.480495
21
327.378906
31
199.818314
12
-60.592648
22
328.236389
32
195.431488
13
-57.990307
23
331.703400
33
195.872726
0
3DFACE
8
0
70
0
10
-60.592648
20
328.236389
30
195.431488
11
-59.614872
21
329.646545
31
198.259781
12
-60.659016
22
330.198914
32
194.395767
13
-61.455513
23
328.994904
33
191.798752
0
3DFACE
8
0
70
0
10
-59.614872
20
329.646545
30
198.259781
11
-57.362843
21
332.520996
31
198.329819
12
-58.614582
22
332.760803
32
194.576736
13
-60.659016
23
330.198914
33
194.395767
0
3DFACE
8
0
70
0
10
-57.362843
20
332.520996
30
198.329819
11
-57.990307
21
331.703400
31
195.872726
12
-59.103867
22
332.079193
32
192.334106
13
-58.614582
23
332.760803
33
194.576736
0
3DFACE
8
0
70
0
10
-57.990307
20
331.703400
30
195.872726
11
-60.592648
21
328.236389
31
195.431488
12
-61.455513
22
328.994904
32
191.798752
13
-59.103867
23
332.079193
33
192.334106
0
3DFACE
8
0
70
0
10
12.537148
20
144.887146
30
-56.187492
11
41.842770
21
130.193268
31
-47.778740
12
0.000000
22
135.058289
32
-63.777664
13
0.000000
23
144.636795
33
-59.862572
0
3DFACE
8
0
70
0
10
12.537148
20
144.887146
30
-56.187492
11
10.496042
21
152.714005
31
-49.045685
12
36.471436
22
152.683533
32
-38.020222
13
41.842770
23
130.193268
33
-47.778740
0
3DFACE
8
0
70
0
10
10.496042
20
152.714005
30
-49.045685
11
0.000000
21
154.268509
31
-51.073872
12
0.000000
22
161.132660
32
-46.500324
13
36.471436
23
152.683533
33
-38.020222
0
3DFACE
8
0
70
0
10
-10.496042
20
152.714005
30
-49.045685
11
-36.471436
21
152.683533
31
-38.020222
12
0.000000
22
161.132660
32
-46.500324
13
0.000000
23
154.268509
33
-51.073872
0
3DFACE
8
0
70
0
10
-12.537148
20
144.887146
30
-56.187492
11
-41.842770
21
130.193268
31
-47.778740
12
-36.471436
22
152.683533
32
-38.020222
13
-10.496042
23
152.714005
33
-49.045685
0
3DFACE
8
0
70
0
10
-12.537148
20
144.887146
30
-56.187492
11
0.000000
21
144.636795
31
-59.862572
12
0.000000
22
135.058289
32
-63.777664
13
-41.842770
23
130.193268
33
-47.778740
0
3DFACE
8
0
70
0
10
0.000000
20
141.412933
30
-71.752396
11
14.336747
21
148.718079
31
-68.785751
12
12.537148
22
144.887146
32
-56.187492
13
0.000000
23
144.636795
33
-59.862572
0
3DFACE
8
0
70
0
10
14.336747
20
148.718079
30
-68.785751
11
12.073568
21
164.913635
31
-57.676460
12
10.496042
22
152.714005
32
-49.045685
13
12.537148
23
144.887146
33
-56.187492
0
3DFACE
8
0
70
0
10
12.073568
20
164.913635
30
-57.676460
11
0.000000
21
172.176682
31
-55.985794
12
0.000000
22
154.268509
32
-51.073872
13
10.496042
23
152.714005
33
-49.045685
0
3DFACE
8
0
70
0
10
-12.073568
20
164.913635
30
-57.676460
11
-10.496042
21
152.714005
31
-49.045685
12
0.000000
22
154.268509
32
-51.073872
13
0.000000
23
172.176682
33
-55.985794
0
3DFACE
8
0
70
0
10
-14.336747
20
148.718079
30
-68.785751
11
-12.537148
21
144.887146
31
-56.187492
12
-10.496042
22
152.714005
32
-49.045685
13
-12.073568
23
164.913635
33
-57.676460
0
3DFACE
8
0
70
0
10
0.000000
20
141.412933
30
-71.752396
11
0.000000
21
144.636795
31
-59.862572
12
-12.537148
22
144.887146
32
-56.187492
13
-14.336747
23
148.718079
33
-68.785751
0
3DFACE
8
0
70
0
10
0.000000
20
164.135422
30
-79.001541
11
3.184873
21
165.406693
31
-78.683846
12
14.336747
22
148.718079
32
-68.785751
13
0.000000
23
141.412933
33
-71.752396
0
3DFACE
8
0
70
0
10
3.184873
20
165.406693
30
-78.683846
11
2.732237
21
174.728271
31
-76.457306
12
12.073568
22
164.913635
32
-57.676460
13
14.336747
23
148.718079
33
-68.785751
0
3DFACE
8
0
70
0
10
2.732237
20
174.728271
30
-76.457306
11
0.000000
21
175.606522
31
-76.261551
12
0.000000
22
172.176682
32
-55.985794
13
12.073568
23
164.913635
33
-57.676460
0
3DFACE
8
0
70
0
10
-2.732237
20
174.728271
30
-76.457306
11
-12.073568
21
164.913635
31
-57.676460
12
0.000000
22
172.176682
32
-55.985794
13
0.000000
23
175.606522
33
-76.261551
0
3DFACE
8
0
70
0
10
-3.184873
20
165.406693
30
-78.683846
11
-14.336747
21
148.718079
31
-68.785751
12
-12.073568
22
164.913635
32
-57.676460
13
-2.732237
23
174.728271
33
-76.457306
0
3DFACE
8
0
70
0
10
0.000000
20
164.135422
30
-79.001541
11
0.000000
21
141.412933
31
-71.752396
12
-14.336747
22
148.718079
32
-68.785751
13
-3.184873
23
165.406693
33
-78.683846
0
3DFACE
8
0
70
0
10
0.000000
20
259.823059
30
270.975891
11
0.000000
21
227.313889
31
295.531921
12
23.006514
22
221.734741
32
294.789612
13
25.555105
23
252.556030
33
270.189667
0
3DFACE
8
0
70
0
10
0.000000
20
180.436417
30
262.386810
11
30.048735
21
196.866913
31
264.164490
12
26.613020
22
183.872665
32
294.630798
13
0.000000
23
171.508362
33
293.639801
0
3DFACE
8
0
70
0
10
0.000000
20
259.823059
30
270.975891
11
-25.555105
21
252.556030
31
270.189667
12
-23.006514
22
221.734741
32
294.789612
13
0.000000
23
227.313889
33
295.531921
0
3DFACE
8
0
70
0
10
0.000000
20
180.436417
30
262.386810
11
0.000000
21
171.508362
31
293.639801
12
-26.613020
22
183.872665
32
294.630798
13
-30.048735
23
196.866913
33
264.164490
0
3DFACE
8
0
70
0
10
29.459309
20
264.523621
30
248.477859
11
0.000000
21
274.157013
31
249.657425
12
0.000000
22
259.823059
32
270.975891
13
25.555105
23
252.556030
33
270.189667
0
3DFACE
8
0
70
0
10
29.459309
20
264.523621
30
248.477859
11
25.555105
21
252.556030
31
270.189667
12
30.048735
22
196.866913
32
264.164490
13
34.193748
23
200.156540
33
241.651062
0
3DFACE
8
0
70
0
10
34.193748
20
200.156540
30
241.651062
11
30.048735
21
196.866913
31
264.164490
12
0.000000
22
180.436417
32
262.386810
13
0.000000
23
174.104645
33
242.974670
0
3DFACE
8
0
70
0
10
-29.459309
20
264.523621
30
248.477859
11
-25.555105
21
252.556030
31
270.189667
12
0.000000
22
259.823059
32
270.975891
13
0.000000
23
274.157013
33
249.657425
0
3DFACE
8
0
70
0
10
-29.459309
20
264.523621
30
248.477859
11
-34.193748
21
200.156540
31
241.651062
12
-30.048735
22
196.866913
32
264.164490
13
-25.555105
23
252.556030
33
270.189667
0
3DFACE
8
0
70
0
10
-34.193748
20
200.156540
30
241.651062
11
0.000000
21
174.104645
31
242.974670
12
0.000000
22
180.436417
32
262.386810
13
-30.048735
23
196.866913
33
264.164490
0
3DFACE
8
0
70
0
10
11.311776
20
247.192993
30
287.723969
11
14.493731
21
250.979401
31
286.660522
12
11.311776
22
252.464020
32
286.821106
13
11.311776
23
252.464020
33
286.821106
0
3DFACE
8
0
70
0
10
11.311776
20
247.192993
30
287.723969
11
15.811749
21
247.395233
31
286.272705
12
14.493731
22
250.979401
32
286.660522
13
14.493731
23
250.979401
33
286.660522
0
3DFACE
8
0
70
0
10
14.493731
20
243.811096
30
285.884918
11
15.811749
21
247.395233
31
286.272705
12
11.311776
22
247.192993
32
287.723969
13
11.311776
23
247.192993
33
287.723969
0
3DFACE
8
0
70
0
10
11.311776
20
242.326477
30
285.724304
11
14.493731
21
243.811096
31
285.884918
12
11.311776
22
247.192993
32
287.723969
13
11.311776
23
247.192993
33
287.723969
0
3DFACE
8
0
70
0
10
11.311776
20
242.326477
30
285.724304
11
11.311776
21
247.192993
31
287.723969
12
8.129821
22
243.811096
32
285.884918
13
8.129821
23
243.811096
33
285.884918
0
3DFACE
8
0
70
0
10
8.129821
20
243.811096
30
285.884918
11
11.311776
21
247.192993
31
287.723969
12
6.811801
22
247.395233
32
286.272705
13
6.811801
23
247.395233
33
286.272705
0
3DFACE
8
0
70
0
10
11.311776
20
247.192993
30
287.723969
11
8.129821
21
250.979401
31
286.660522
12
6.811801
22
247.395233
32
286.272705
13
6.811801
23
247.395233
33
286.272705
0
3DFACE
8
0
70
0
10
11.311776
20
247.192993
30
287.723969
11
11.311776
21
252.464020
31
286.821106
12
8.129821
22
250.979401
32
286.660522
13
8.129821
23
250.979401
33
286.660522
0
3DFACE
8
0
70
0
10
14.493731
20
250.979401
30
286.660522
11
16.460300
21
253.723984
31
283.100739
12
11.311776
22
256.126160
32
283.360657
13
11.311776
23
252.464020
33
286.821106
0
3DFACE
8
0
70
0
10
15.811749
20
247.395233
30
286.272705
11
18.592886
21
247.924652
31
282.473328
12
16.460300
22
253.723984
32
283.100739
13
14.493731
23
250.979401
33
286.660522
0
3DFACE
8
0
70
0
10
16.460300
20
242.125366
30
281.845886
11
18.592886
21
247.924652
31
282.473328
12
15.811749
22
247.395233
32
286.272705
13
14.493731
23
243.811096
33
285.884918
0
3DFACE
8
0
70
0
10
11.311776
20
239.723221
30
281.585968
11
16.460300
21
242.125366
31
281.845886
12
14.493731
22
243.811096
32
285.884918
13
11.311776
23
242.326477
33
285.724304
0
3DFACE
8
0
70
0
10
11.311776
20
239.723221
30
281.585968
11
11.311776
21
242.326477
31
285.724304
12
8.129821
22
243.811096
32
285.884918
13
6.163248
23
242.125366
33
281.845886
0
3DFACE
8
0
70
0
10
6.163248
20
242.125366
30
281.845886
11
8.129821
21
243.811096
31
285.884918
12
6.811801
22
247.395233
32
286.272705
13
4.030663
23
247.924652
33
282.473328
0
3DFACE
8
0
70
0
10
6.811801
20
247.395233
30
286.272705
11
8.129821
21
250.979401
31
286.660522
12
6.163248
22
253.723984
32
283.100739
13
4.030663
23
247.924652
33
282.473328
0
3DFACE
8
0
70
0
10
8.129821
20
250.979401
30
286.660522
11
11.311776
21
252.464020
31
286.821106
12
11.311776
22
256.126160
32
283.360657
13
6.163248
23
253.723984
33
283.100739
0
3DFACE
8
0
70
0
10
16.460300
20
253.723984
30
283.100739
11
16.460300
21
254.378372
31
278.404510
12
11.311776
22
256.780548
32
278.664398
13
11.311776
23
256.126160
33
283.360657
0
3DFACE
8
0
70
0
10
18.592886
20
247.924652
30
282.473328
11
18.592886
21
248.579025
31
277.777069
12
16.460300
22
254.378372
32
278.404510
13
16.460300
23
253.723984
33
283.100739
0
3DFACE
8
0
70
0
10
16.460300
20
242.125366
30
281.845886
11
16.460300
21
242.779770
31
277.149628
12
18.592886
22
248.579025
32
277.777069
13
18.592886
23
247.924652
33
282.473328
0
3DFACE
8
0
70
0
10
11.311776
20
239.723221
30
281.585968
11
11.311776
21
240.377625
31
276.889709
12
16.460300
22
242.779770
32
277.149628
13
16.460300
23
242.125366
33
281.845886
0
3DFACE
8
0
70
0
10
11.311776
20
239.723221
30
281.585968
11
6.163248
21
242.125366
31
281.845886
12
6.163248
22
242.779770
32
277.149628
13
11.311776
23
240.377625
33
276.889709
0
3DFACE
8
0
70
0
10
6.163248
20
242.125366
30
281.845886
11
4.030663
21
247.924652
31
282.473328
12
4.030663
22
248.579025
32
277.777069
13
6.163248
23
242.779770
33
277.149628
0
3DFACE
8
0
70
0
10
4.030663
20
247.924652
30
282.473328
11
6.163248
21
253.723984
31
283.100739
12
6.163248
22
254.378372
32
278.404510
13
4.030663
23
248.579025
33
277.777069
0
3DFACE
8
0
70
0
10
6.163248
20
253.723984
30
283.100739
11
11.311776
21
256.126160
31
283.360657
12
11.311776
22
256.780548
32
278.664398
13
6.163248
23
254.378372
33
278.404510
0
3DFACE
8
0
70
0
10
14.493731
20
252.692627
30
274.365448
11
11.311776
21
254.177261
31
274.526062
12
11.311776
22
256.780548
32
278.664398
13
16.460300
23
254.378372
33
278.404510
0
3DFACE
8
0
70
0
10
18.592886
20
248.579025
30
277.777069
11
15.811749
21
249.108475
31
273.977661
12
14.493731
22
252.692627
32
274.365448
13
16.460300
23
254.378372
33
278.404510
0
3DFACE
8
0
70
0
10
16.460300
20
242.779770
30
277.149628
11
14.493731
21
245.524307
31
273.589905
12
15.811749
22
249.108475
32
273.977661
13
18.592886
23
248.579025
33
277.777069
0
3DFACE
8
0
70
0
10
11.311776
20
240.377625
30
276.889709
11
11.311776
21
244.039688
31
273.429230
12
14.493731
22
245.524307
32
273.589905
13
16.460300
23
242.779770
33
277.149628
0
3DFACE
8
0
70
0
10
11.311776
20
240.377625
30
276.889709
11
6.163248
21
242.779770
31
277.149628
12
8.129821
22
245.524307
32
273.589905
13
11.311776
23
244.039688
33
273.429230
0
3DFACE
8
0
70
0
10
6.163248
20
242.779770
30
277.149628
11
4.030663
21
248.579025
31
277.777069
12
6.811801
22
249.108475
32
273.977661
13
8.129821
23
245.524307
33
273.589905
0
3DFACE
8
0
70
0
10
4.030663
20
248.579025
30
277.777069
11
6.163248
21
254.378372
31
278.404510
12
8.129821
22
252.692627
32
274.365448
13
6.811801
23
249.108475
33
273.977661
0
3DFACE
8
0
70
0
10
8.129821
20
252.692627
30
274.365448
11
6.163248
21
254.378372
31
278.404510
12
11.311776
22
256.780548
32
278.664398
13
11.311776
23
254.177261
33
274.526062
0
3DFACE
8
0
70
0
10
11.311776
20
249.310684
30
272.526428
11
11.311776
21
254.177261
31
274.526062
12
14.493731
22
252.692627
32
274.365448
13
14.493731
23
252.692627
33
274.365448
0
3DFACE
8
0
70
0
10
15.811749
20
249.108475
30
273.977661
11
11.311776
21
249.310684
31
272.526428
12
14.493731
22
252.692627
32
274.365448
13
14.493731
23
252.692627
33
274.365448
0
3DFACE
8
0
70
0
10
14.493731
20
245.524307
30
273.589905
11
11.311776
21
249.310684
31
272.526428
12
15.811749
22
249.108475
32
273.977661
13
15.811749
23
249.108475
33
273.977661
0
3DFACE
8
0
70
0
10
11.311776
20
244.039688
30
273.429230
11
11.311776
21
249.310684
31
272.526428
12
14.493731
22
245.524307
32
273.589905
13
14.493731
23
245.524307
33
273.589905
0
3DFACE
8
0
70
0
10
11.311776
20
244.039688
30
273.429230
11
8.129821
21
245.524307
31
273.589905
12
11.311776
22
249.310684
32
272.526428
13
11.311776
23
249.310684
33
272.526428
0
3DFACE
8
0
70
0
10
8.129821
20
245.524307
30
273.589905
11
6.811801
21
249.108475
31
273.977661
12
11.311776
22
249.310684
32
272.526428
13
11.311776
23
249.310684
33
272.526428
0
3DFACE
8
0
70
0
10
6.811801
20
249.108475
30
273.977661
11
8.129821
21
252.692627
31
274.365448
12
11.311776
22
249.310684
32
272.526428
13
11.311776
23
249.310684
33
272.526428
0
3DFACE
8
0
70
0
10
11.311776
20
249.310684
30
272.526428
11
8.129821
21
252.692627
31
274.365448
12
11.311776
22
254.177261
32
274.526062
13
11.311776
23
254.177261
33
274.526062
0
3DFACE
8
0
70
0
10
-0.791824
20
189.651474
30
348.481720
11
-0.791824
21
197.389786
31
347.156281
12
-5.463204
22
195.210236
32
346.920471
13
-5.463204
23
195.210236
33
346.920471
0
3DFACE
8
0
70
0
10
-0.791824
20
189.651474
30
348.481720
11
-5.463204
21
195.210236
31
346.920471
12
-7.398170
22
189.948349
32
346.351166
13
-7.398170
23
189.948349
33
346.351166
0
3DFACE
8
0
70
0
10
-5.463204
20
184.686508
30
345.781830
11
-0.791824
21
189.651474
31
348.481720
12
-7.398170
22
189.948349
32
346.351166
13
-7.398170
23
189.948349
33
346.351166
0
3DFACE
8
0
70
0
10
-0.791824
20
182.506958
30
345.546021
11
-0.791824
21
189.651474
31
348.481720
12
-5.463204
22
184.686508
32
345.781830
13
-5.463204
23
184.686508
33
345.781830
0
3DFACE
8
0
70
0
10
-0.791824
20
182.506958
30
345.546021
11
3.879555
21
184.686508
31
345.781830
12
-0.791824
22
189.651474
32
348.481720
13
-0.791824
23
189.651474
33
348.481720
0
3DFACE
8
0
70
0
10
3.879555
20
184.686508
30
345.781830
11
5.814521
21
189.948349
31
346.351166
12
-0.791824
22
189.651474
32
348.481720
13
-0.791824
23
189.651474
33
348.481720
0
3DFACE
8
0
70
0
10
-0.791824
20
189.651474
30
348.481720
11
5.814521
21
189.948349
31
346.351166
12
3.879555
22
195.210236
32
346.920471
13
3.879555
23
195.210236
33
346.920471
0
3DFACE
8
0
70
0
10
-0.791824
20
189.651474
30
348.481720
11
3.879555
21
195.210236
31
346.920471
12
-0.791824
22
197.389786
32
347.156281
13
-0.791824
23
197.389786
33
347.156281
0
3DFACE
8
0
70
0
10
-5.463204
20
195.210236
30
346.920471
11
-0.791824
21
197.389786
31
347.156281
12
-0.791824
22
202.766037
32
342.076050
13
-8.350299
23
199.239532
33
341.694489
0
3DFACE
8
0
70
0
10
-7.398170
20
189.948349
30
346.351166
11
-5.463204
21
195.210236
31
346.920471
12
-8.350299
22
199.239532
32
341.694489
13
-11.481114
23
190.725555
33
340.773315
0
3DFACE
8
0
70
0
10
-8.350299
20
182.211716
30
339.852203
11
-5.463204
21
184.686508
31
345.781830
12
-7.398170
22
189.948349
32
346.351166
13
-11.481114
23
190.725555
33
340.773315
0
3DFACE
8
0
70
0
10
-0.791824
20
178.685150
30
339.470642
11
-0.791824
21
182.506958
31
345.546021
12
-5.463204
22
184.686508
32
345.781830
13
-8.350299
23
182.211716
33
339.852203
0
3DFACE
8
0
70
0
10
-0.791824
20
178.685150
30
339.470642
11
6.766652
21
182.211716
31
339.852203
12
3.879555
22
184.686508
32
345.781830
13
-0.791824
23
182.506958
33
345.546021
0
3DFACE
8
0
70
0
10
6.766652
20
182.211716
30
339.852203
11
9.897467
21
190.725555
31
340.773315
12
5.814521
22
189.948349
32
346.351166
13
3.879555
23
184.686508
33
345.781830
0
3DFACE
8
0
70
0
10
5.814521
20
189.948349
30
346.351166
11
9.897467
21
190.725555
31
340.773315
12
6.766652
22
199.239532
32
341.694489
13
3.879555
23
195.210236
33
346.920471
0
3DFACE
8
0
70
0
10
3.879555
20
195.210236
30
346.920471
11
6.766652
21
199.239532
31
341.694489
12
-0.791824
22
202.766037
32
342.076050
13
-0.791824
23
197.389786
33
347.156281
0
3DFACE
8
0
70
0
10
-8.350299
20
199.239532
30
341.694489
11
-0.791824
21
202.766037
31
342.076050
12
-0.791824
22
203.726730
32
335.181488
13
-8.350299
23
200.200226
33
334.799988
0
3DFACE
8
0
70
0
10
-11.481114
20
190.725555
30
340.773315
11
-8.350299
21
199.239532
31
341.694489
12
-8.350299
22
200.200226
32
334.799988
13
-11.481114
23
191.686295
33
333.878815
0
3DFACE
8
0
70
0
10
-8.350299
20
182.211716
30
339.852203
11
-11.481114
21
190.725555
31
340.773315
12
-11.481114
22
191.686295
32
333.878815
13
-8.350299
23
183.172424
33
332.957672
0
3DFACE
8
0
70
0
10
-0.791824
20
178.685150
30
339.470642
11
-8.350299
21
182.211716
31
339.852203
12
-8.350299
22
183.172424
32
332.957672
13
-0.791824
23
179.645844
33
332.576141
0
3DFACE
8
0
70
0
10
-0.791824
20
178.685150
30
339.470642
11
-0.791824
21
179.645844
31
332.576141
12
6.766652
22
183.172424
32
332.957672
13
6.766652
23
182.211716
33
339.852203
0
3DFACE
8
0
70
0
10
6.766652
20
182.211716
30
339.852203
11
6.766652
21
183.172424
31
332.957672
12
9.897467
22
191.686295
32
333.878815
13
9.897467
23
190.725555
33
340.773315
0
3DFACE
8
0
70
0
10
9.897467
20
190.725555
30
340.773315
11
9.897467
21
191.686295
31
333.878815
12
6.766652
22
200.200226
32
334.799988
13
6.766652
23
199.239532
33
341.694489
0
3DFACE
8
0
70
0
10
6.766652
20
199.239532
30
341.694489
11
6.766652
21
200.200226
31
334.799988
12
-0.791824
22
203.726730
32
335.181488
13
-0.791824
23
202.766037
33
342.076050
0
3DFACE
8
0
70
0
10
-5.463204
20
197.725403
30
328.870331
11
-8.350299
21
200.200226
31
334.799988
12
-0.791824
22
203.726730
32
335.181488
13
-0.791824
23
199.904922
33
329.106110
0
3DFACE
8
0
70
0
10
-11.481114
20
191.686295
30
333.878815
11
-8.350299
21
200.200226
31
334.799988
12
-5.463204
22
197.725403
32
328.870331
13
-7.398170
23
192.463516
33
328.300995
0
3DFACE
8
0
70
0
10
-8.350299
20
183.172424
30
332.957672
11
-11.481114
21
191.686295
31
333.878815
12
-7.398170
22
192.463516
32
328.300995
13
-5.463204
23
187.201675
33
327.731689
0
3DFACE
8
0
70
0
10
-0.791824
20
179.645844
30
332.576141
11
-8.350299
21
183.172424
31
332.957672
12
-5.463204
22
187.201675
32
327.731689
13
-0.791824
23
185.022095
33
327.495911
0
3DFACE
8
0
70
0
10
-0.791824
20
179.645844
30
332.576141
11
-0.791824
21
185.022095
31
327.495911
12
3.879555
22
187.201675
32
327.731689
13
6.766652
23
183.172424
33
332.957672
0
3DFACE
8
0
70
0
10
6.766652
20
183.172424
30
332.957672
11
3.879555
21
187.201675
31
327.731689
12
5.814521
22
192.463516
32
328.300995
13
9.897467
23
191.686295
33
333.878815
0
3DFACE
8
0
70
0
10
9.897467
20
191.686295
30
333.878815
11
5.814521
21
192.463516
31
328.300995
12
3.879555
22
197.725403
32
328.870331
13
6.766652
23
200.200226
33
334.799988
0
3DFACE
8
0
70
0
10
3.879555
20
197.725403
30
328.870331
11
-0.791824
21
199.904922
31
329.106110
12
-0.791824
22
203.726730
32
335.181488
13
6.766652
23
200.200226
33
334.799988
0
3DFACE
8
0
70
0
10
-0.791824
20
192.760376
30
326.170441
11
-5.463204
21
197.725403
31
328.870331
12
-0.791824
22
199.904922
32
329.106110
13
-0.791824
23
199.904922
33
329.106110
0
3DFACE
8
0
70
0
10
-7.398170
20
192.463516
30
328.300995
11
-5.463204
21
197.725403
31
328.870331
12
-0.791824
22
192.760376
32
326.170441
13
-0.791824
23
192.760376
33
326.170441
0
3DFACE
8
0
70
0
10
-5.463204
20
187.201675
30
327.731689
11
-7.398170
21
192.463516
31
328.300995
12
-0.791824
22
192.760376
32
326.170441
13
-0.791824
23
192.760376
33
326.170441
0
3DFACE
8
0
70
0
10
-0.791824
20
185.022095
30
327.495911
11
-5.463204
21
187.201675
31
327.731689
12
-0.791824
22
192.760376
32
326.170441
13
-0.791824
23
192.760376
33
326.170441
0
3DFACE
8
0
70
0
10
-0.791824
20
185.022095
30
327.495911
11
-0.791824
21
192.760376
31
326.170441
12
3.879555
22
187.201675
32
327.731689
13
3.879555
23
187.201675
33
327.731689
0
3DFACE
8
0
70
0
10
3.879555
20
187.201675
30
327.731689
11
-0.791824
21
192.760376
31
326.170441
12
5.814521
22
192.463516
32
328.300995
13
5.814521
23
192.463516
33
328.300995
0
3DFACE
8
0
70
0
10
5.814521
20
192.463516
30
328.300995
11
-0.791824
21
192.760376
31
326.170441
12
3.879555
22
197.725403
32
328.870331
13
3.879555
23
197.725403
33
328.870331
0
3DFACE
8
0
70
0
10
-0.791824
20
192.760376
30
326.170441
11
-0.791824
21
199.904922
31
329.106110
12
3.879555
22
197.725403
32
328.870331
13
3.879555
23
197.725403
33
328.870331
0
3DFACE
8
0
70
0
10
-11.311776
20
247.192993
30
287.723969
11
-11.311776
21
252.464020
31
286.821106
12
-14.493731
22
250.979401
32
286.660522
13
-14.493731
23
250.979401
33
286.660522
0
3DFACE
8
0
70
0
10
-11.311776
20
247.192993
30
287.723969
11
-14.493731
21
250.979401
31
286.660522
12
-15.811749
22
247.395233
32
286.272705
13
-15.811749
23
247.395233
33
286.272705
0
3DFACE
8
0
70
0
10
-14.493731
20
243.811096
30
285.884918
11
-11.311776
21
247.192993
31
287.723969
12
-15.811749
22
247.395233
32
286.272705
13
-15.811749
23
247.395233
33
286.272705
0
3DFACE
8
0
70
0
10
-11.311776
20
242.326477
30
285.724304
11
-11.311776
21
247.192993
31
287.723969
12
-14.493731
22
243.811096
32
285.884918
13
-14.493731
23
243.811096
33
285.884918
0
3DFACE
8
0
70
0
10
-11.311776
20
242.326477
30
285.724304
11
-8.129821
21
243.811096
31
285.884918
12
-11.311776
22
247.192993
32
287.723969
13
-11.311776
23
247.192993
33
287.723969
0
3DFACE
8
0
70
0
10
-8.129821
20
243.811096
30
285.884918
11
-6.811801
21
247.395233
31
286.272705
12
-11.311776
22
247.192993
32
287.723969
13
-11.311776
23
247.192993
33
287.723969
0
3DFACE
8
0
70
0
10
-11.311776
20
247.192993
30
287.723969
11
-6.811801
21
247.395233
31
286.272705
12
-8.129821
22
250.979401
32
286.660522
13
-8.129821
23
250.979401
33
286.660522
0
3DFACE
8
0
70
0
10
-11.311776
20
247.192993
30
287.723969
11
-8.129821
21
250.979401
31
286.660522
12
-11.311776
22
252.464020
32
286.821106
13
-11.311776
23
252.464020
33
286.821106
0
3DFACE
8
0
70
0
10
-14.493731
20
250.979401
30
286.660522
11
-11.311776
21
252.464020
31
286.821106
12
-11.311776
22
256.126160
32
283.360657
13
-16.460300
23
253.723984
33
283.100739
0
3DFACE
8
0
70
0
10
-15.811749
20
247.395233
30
286.272705
11
-14.493731
21
250.979401
31
286.660522
12
-16.460300
22
253.723984
32
283.100739
13
-18.592886
23
247.924652
33
282.473328
0
3DFACE
8
0
70
0
10
-16.460300
20
242.125366
30
281.845886
11
-14.493731
21
243.811096
31
285.884918
12
-15.811749
22
247.395233
32
286.272705
13
-18.592886
23
247.924652
33
282.473328
0
3DFACE
8
0
70
0
10
-11.311776
20
239.723221
30
281.585968
11
-11.311776
21
242.326477
31
285.724304
12
-14.493731
22
243.811096
32
285.884918
13
-16.460300
23
242.125366
33
281.845886
0
3DFACE
8
0
70
0
10
-11.311776
20
239.723221
30
281.585968
11
-6.163248
21
242.125366
31
281.845886
12
-8.129821
22
243.811096
32
285.884918
13
-11.311776
23
242.326477
33
285.724304
0
3DFACE
8
0
70
0
10
-6.163248
20
242.125366
30
281.845886
11
-4.030663
21
247.924652
31
282.473328
12
-6.811801
22
247.395233
32
286.272705
13
-8.129821
23
243.811096
33
285.884918
0
3DFACE
8
0
70
0
10
-6.811801
20
247.395233
30
286.272705
11
-4.030663
21
247.924652
31
282.473328
12
-6.163248
22
253.723984
32
283.100739
13
-8.129821
23
250.979401
33
286.660522
0
3DFACE
8
0
70
0
10
-8.129821
20
250.979401
30
286.660522
11
-6.163248
21
253.723984
31
283.100739
12
-11.311776
22
256.126160
32
283.360657
13
-11.311776
23
252.464020
33
286.821106
0
3DFACE
8
0
70
0
10
-16.460300
20
253.723984
30
283.100739
11
-11.311776
21
256.126160
31
283.360657
12
-11.311776
22
256.780548
32
278.664398
13
-16.460300
23
254.378372
33
278.404510
0
3DFACE
8
0
70
0
10
-18.592886
20
247.924652
30
282.473328
11
-16.460300
21
253.723984
31
283.100739
12
-16.460300
22
254.378372
32
278.404510
13
-18.592886
23
248.579025
33
277.777069
0
3DFACE
8
0
70
0
10
-16.460300
20
242.125366
30
281.845886
11
-18.592886
21
247.924652
31
282.473328
12
-18.592886
22
248.579025
32
277.777069
13
-16.460300
23
242.779770
33
277.149628
0
3DFACE
8
0
70
0
10
-11.311776
20
239.723221
30
281.585968
11
-16.460300
21
242.125366
31
281.845886
12
-16.460300
22
242.779770
32
277.149628
13
-11.311776
23
240.377625
33
276.889709
0
3DFACE
8
0
70
0
10
-11.311776
20
239.723221
30
281.585968
11
-11.311776
21
240.377625
31
276.889709
12
-6.163248
22
242.779770
32
277.149628
13
-6.163248
23
242.125366
33
281.845886
0
3DFACE
8
0
70
0
10
-6.163248
20
242.125366
30
281.845886
11
-6.163248
21
242.779770
31
277.149628
12
-4.030663
22
248.579025
32
277.777069
13
-4.030663
23
247.924652
33
282.473328
0
3DFACE
8
0
70
0
10
-4.030663
20
247.924652
30
282.473328
11
-4.030663
21
248.579025
31
277.777069
12
-6.163248
22
254.378372
32
278.404510
13
-6.163248
23
253.723984
33
283.100739
0
3DFACE
8
0
70
0
10
-6.163248
20
253.723984
30
283.100739
11
-6.163248
21
254.378372
31
278.404510
12
-11.311776
22
256.780548
32
278.664398
13
-11.311776
23
256.126160
33
283.360657
0
3DFACE
8
0
70
0
10
-14.493731
20
252.692627
30
274.365448
11
-16.460300
21
254.378372
31
278.404510
12
-11.311776
22
256.780548
32
278.664398
13
-11.311776
23
254.177261
33
274.526062
0
3DFACE
8
0
70
0
10
-18.592886
20
248.579025
30
277.777069
11
-16.460300
21
254.378372
31
278.404510
12
-14.493731
22
252.692627
32
274.365448
13
-15.811749
23
249.108475
33
273.977661
0
3DFACE
8
0
70
0
10
-16.460300
20
242.779770
30
277.149628
11
-18.592886
21
248.579025
31
277.777069
12
-15.811749
22
249.108475
32
273.977661
13
-14.493731
23
245.524307
33
273.589905
0
3DFACE
8
0
70
0
10
-11.311776
20
240.377625
30
276.889709
11
-16.460300
21
242.779770
31
277.149628
12
-14.493731
22
245.524307
32
273.589905
13
-11.311776
23
244.039688
33
273.429230
0
3DFACE
8
0
70
0
10
-11.311776
20
240.377625
30
276.889709
11
-11.311776
21
244.039688
31
273.429230
12
-8.129821
22
245.524307
32
273.589905
13
-6.163248
23
242.779770
33
277.149628
0
3DFACE
8
0
70
0
10
-6.163248
20
242.779770
30
277.149628
11
-8.129821
21
245.524307
31
273.589905
12
-6.811801
22
249.108475
32
273.977661
13
-4.030663
23
248.579025
33
277.777069
0
3DFACE
8
0
70
0
10
-4.030663
20
248.579025
30
277.777069
11
-6.811801
21
249.108475
31
273.977661
12
-8.129821
22
252.692627
32
274.365448
13
-6.163248
23
254.378372
33
278.404510
0
3DFACE
8
0
70
0
10
-8.129821
20
252.692627
30
274.365448
11
-11.311776
21
254.177261
31
274.526062
12
-11.311776
22
256.780548
32
278.664398
13
-6.163248
23
254.378372
33
278.404510
0
3DFACE
8
0
70
0
10
-11.311776
20
249.310684
30
272.526428
11
-14.493731
21
252.692627
31
274.365448
12
-11.311776
22
254.177261
32
274.526062
13
-11.311776
23
254.177261
33
274.526062
0
3DFACE
8
0
70
0
10
-15.811749
20
249.108475
30
273.977661
11
-14.493731
21
252.692627
31
274.365448
12
-11.311776
22
249.310684
32
272.526428
13
-11.311776
23
249.310684
33
272.526428
0
3DFACE
8
0
70
0
10
-14.493731
20
245.524307
30
273.589905
11
-15.811749
21
249.108475
31
273.977661
12
-11.311776
22
249.310684
32
272.526428
13
-11.311776
23
249.310684
33
272.526428
0
3DFACE
8
0
70
0
10
-11.311776
20
244.039688
30
273.429230
11
-14.493731
21
245.524307
31
273.589905
12
-11.311776
22
249.310684
32
272.526428
13
-11.311776
23
249.310684
33
272.526428
0
3DFACE
8
0
70
0
10
-11.311776
20
244.039688
30
273.429230
11
-11.311776
21
249.310684
31
272.526428
12
-8.129821
22
245.524307
32
273.589905
13
-8.129821
23
245.524307
33
273.589905
0
3DFACE
8
0
70
0
10
-8.129821
20
245.524307
30
273.589905
11
-11.311776
21
249.310684
31
272.526428
12
-6.811801
22
249.108475
32
273.977661
13
-6.811801
23
249.108475
33
273.977661
0
3DFACE
8
0
70
0
10
-6.811801
20
249.108475
30
273.977661
11
-11.311776
21
249.310684
31
272.526428
12
-8.129821
22
252.692627
32
274.365448
13
-8.129821
23
252.692627
33
274.365448
0
3DFACE
8
0
70
0
10
-11.311776
20
249.310684
30
272.526428
11
-11.311776
21
254.177261
31
274.526062
12
-8.129821
22
252.692627
32
274.365448
13
-8.129821
23
252.692627
33
274.365448
0
3DFACE
8
0
70
0
10
26.613020
20
183.872665
30
294.630798
11
30.048735
21
196.866913
31
264.164490
12
25.555105
22
252.556030
32
270.189667
13
23.006514
23
221.734741
33
294.789612
0
3DFACE
8
0
70
0
10
-26.613020
20
183.872665
30
294.630798
11
-23.006514
21
221.734741
31
294.789612
12
-25.555105
22
252.556030
32
270.189667
13
-30.048735
23
196.866913
33
264.164490
0
3DFACE
8
0
70
0
10
47.097572
20
-41.071167
30
-56.419861
11
44.855942
21
21.357550
31
-55.838268
12
51.085762
22
19.128010
32
-51.651215
13
53.792427
23
-41.071167
33
-56.419861
0
3DFACE
8
0
70
0
10
44.855942
20
21.357550
30
-55.838268
11
47.097572
21
-41.071167
31
-56.419861
12
40.993786
22
-41.225811
32
-56.419861
13
38.211250
23
19.497229
33
-52.344616
0
3DFACE
8
0
70
0
10
40.993786
20
-41.225811
30
-56.419861
11
43.230125
21
-41.234310
31
-56.419861
12
40.114471
22
17.879723
32
-49.306965
13
38.211250
23
19.497229
33
-52.344616
0
3DFACE
8
0
70
0
10
51.085762
20
19.128010
30
-51.651215
11
62.357029
21
8.321113
31
3.128047
12
62.357029
22
-44.109798
32
-8.979866
13
53.792427
23
-41.071167
33
-56.419861
0
3DFACE
8
0
70
0
10
43.230125
20
-41.234310
30
-56.419861
11
47.097572
21
-43.126350
31
-8.979866
12
37.023808
22
7.317864
32
7.695573
13
40.114471
23
17.879723
33
-49.306965
0
3DFACE
8
0
70
0
10
62.357029
20
96.840569
30
23.192087
11
27.252354
21
56.248257
31
23.870586
12
37.023808
22
7.317864
32
7.695573
13
62.357029
23
8.321113
33
3.128047
0
3DFACE
8
0
70
0
10
-44.855942
20
21.357550
30
-55.838268
11
-38.211250
21
19.497229
31
-52.344616
12
-40.993786
22
-41.225811
32
-56.419861
13
-47.097572
23
-41.071167
33
-56.419861
0
3DFACE
8
0
70
0
10
-38.211250
20
19.497229
30
-52.344616
11
-36.471436
21
76.234238
31
-44.017220
12
-38.439411
22
49.813492
32
-23.277485
13
-40.114471
23
17.879723
33
-49.306965
0
3DFACE
8
0
70
0
10
-51.085762
20
19.128010
30
-51.651215
11
-53.792427
21
-41.071167
31
-56.419861
12
-62.357029
22
-44.109798
32
-8.979866
13
-62.357029
23
8.321113
33
3.128047
0
3DFACE
8
0
70
0
10
-43.230125
20
-41.234310
30
-56.419861
11
-40.114471
21
17.879723
31
-49.306965
12
-37.023808
22
7.317864
32
7.695573
13
-47.097572
23
-43.126350
33
-8.979866
0
3DFACE
8
0
70
0
10
-62.357029
20
8.321113
30
3.128047
11
-62.357029
21
-44.109798
31
-8.979866
12
-47.097572
22
-43.126350
32
-8.979866
13
-37.023808
23
7.317864
33
7.695573
0
3DFACE
8
0
70
0
10
41.842770
20
130.193268
30
-47.778740
11
70.886993
21
112.769875
31
-22.685003
12
51.085762
22
19.128010
32
-51.651215
13
44.855942
23
21.357550
33
-55.838268
0
3DFACE
8
0
70
0
10
41.842770
20
130.193268
30
-47.778740
11
44.855942
21
21.357550
31
-55.838268
12
38.211250
22
19.497229
32
-52.344616
13
36.471436
23
76.234238
33
-44.017220
0
3DFACE
8
0
70
0
10
36.471436
20
76.234238
30
-44.017220
11
38.211250
21
19.497229
31
-52.344616
12
40.114471
22
17.879723
32
-49.306965
13
38.439411
23
49.813492
33
-23.277485
0
3DFACE
8
0
70
0
10
62.357029
20
96.840569
30
23.192087
11
62.357029
21
8.321113
31
3.128047
12
51.085762
22
19.128010
32
-51.651215
13
70.886993
23
112.769875
33
-22.685003
0
3DFACE
8
0
70
0
10
37.023808
20
7.317864
30
7.695573
11
27.252354
21
56.248257
31
23.870586
12
38.439411
22
49.813492
32
-23.277485
13
40.114471
23
17.879723
33
-49.306965
0
3DFACE
8
0
70
0
10
62.357029
20
8.321113
30
3.128047
11
37.023808
21
7.317864
31
7.695573
12
47.097572
22
-43.126350
32
-8.979866
13
62.357029
23
-44.109798
33
-8.979866
0
3DFACE
8
0
70
0
10
-41.842770
20
130.193268
30
-47.778740
11
-44.855942
21
21.357550
31
-55.838268
12
-51.085762
22
19.128010
32
-51.651215
13
-70.886993
23
112.769875
33
-22.685003
0
3DFACE
8
0
70
0
10
-47.097572
20
-41.071167
30
-56.419861
11
-53.792427
21
-41.071167
31
-56.419861
12
-51.085762
22
19.128010
32
-51.651215
13
-44.855942
23
21.357550
33
-55.838268
0
3DFACE
8
0
70
0
10
-41.842770
20
130.193268
30
-47.778740
11
-36.471436
21
76.234238
31
-44.017220
12
-38.211250
22
19.497229
32
-52.344616
13
-44.855942
23
21.357550
33
-55.838268
0
3DFACE
8
0
70
0
10
-40.993786
20
-41.225811
30
-56.419861
11
-38.211250
21
19.497229
31
-52.344616
12
-40.114471
22
17.879723
32
-49.306965
13
-43.230125
23
-41.234310
33
-56.419861
0
3DFACE
8
0
70
0
10
-62.357029
20
96.840569
30
23.192087
11
-70.886993
21
112.769875
31
-22.685003
12
-51.085762
22
19.128010
32
-51.651215
13
-62.357029
23
8.321113
33
3.128047
0
3DFACE
8
0
70
0
10
-37.023808
20
7.317864
30
7.695573
11
-40.114471
21
17.879723
31
-49.306965
12
-38.439411
22
49.813492
32
-23.277485
13
-27.252354
23
56.248257
33
23.870586
0
3DFACE
8
0
70
0
10
-62.357029
20
96.840569
30
23.192087
11
-62.357029
21
8.321113
31
3.128047
12
-37.023808
22
7.317864
32
7.695573
13
-27.252354
23
56.248257
33
23.870586
0
3DFACE
8
0
70
0
10
30.736588
20
198.355072
30
180.884186
11
0.000000
21
205.559540
31
178.943314
12
0.000000
22
245.567795
32
220.120972
13
19.627825
23
244.135544
33
227.431732
0
3DFACE
8
0
70
0
10
30.736588
20
198.355072
30
180.884186
11
19.627825
21
244.135544
31
227.431732
12
22.550318
22
213.086761
32
224.204544
13
33.257336
23
171.428802
33
188.138092
0
3DFACE
8
0
70
0
10
33.257336
20
171.428802
30
188.138092
11
22.550318
21
213.086761
31
224.204544
12
0.000000
22
169.526398
32
227.419525
13
0.000000
23
145.712143
33
199.957428
0
3DFACE
8
0
70
0
10
-30.736588
20
198.355072
30
180.884186
11
-19.627825
21
244.135544
31
227.431732
12
0.000000
22
245.567795
32
220.120972
13
0.000000
23
205.559540
33
178.943314
0
3DFACE
8
0
70
0
10
-30.736588
20
198.355072
30
180.884186
11
-33.257336
21
171.428802
31
188.138092
12
-22.550318
22
213.086761
32
224.204544
13
-19.627825
23
244.135544
33
227.431732
0
3DFACE
8
0
70
0
10
-33.257336
20
171.428802
30
188.138092
11
0.000000
21
145.712143
31
199.957428
12
0.000000
22
169.526398
32
227.419525
13
-22.550318
23
213.086761
33
224.204544
0
3DFACE
8
0
70
0
10
53.691235
20
75.668274
30
138.545212
11
40.993786
21
141.100433
31
120.367966
12
36.650661
22
180.545959
32
156.334198
13
41.333614
23
139.865402
33
159.956573
0
3DFACE
8
0
70
0
10
0.000000
20
187.561935
30
154.444122
11
-36.650661
21
180.545959
31
156.334198
12
-30.736588
22
198.355072
32
180.884186
13
0.000000
23
205.559540
33
178.943314
0
3DFACE
8
0
70
0
10
-53.691235
20
75.668274
30
138.545212
11
-41.333614
21
139.865402
31
159.956573
12
-36.650661
22
180.545959
32
156.334198
13
-40.993786
23
141.100433
33
120.367966
0
3DFACE
8
0
70
0
10
-53.691235
20
75.668274
30
138.545212
11
0.000000
21
71.914680
31
177.929077
12
0.000000
22
101.406639
32
177.654236
13
-41.333614
23
139.865402
33
159.956573
0
3DFACE
8
0
70
0
10
0.000000
20
187.561935
30
154.444122
11
0.000000
21
205.559540
31
178.943314
12
30.736588
22
198.355072
32
180.884186
13
36.650661
23
180.545959
33
156.334198
0
3DFACE
8
0
70
0
10
40.993786
20
141.100433
30
120.367966
11
0.000000
21
158.804886
31
121.943184
12
0.000000
22
187.561935
32
154.444122
13
36.650661
23
180.545959
33
156.334198
0
3DFACE
8
0
70
0
10
36.650661
20
180.545959
30
156.334198
11
30.736588
21
198.355072
31
180.884186
12
33.257336
22
171.428802
32
188.138092
13
41.333614
23
139.865402
33
159.956573
0
3DFACE
8
0
70
0
10
41.333614
20
139.865402
30
159.956573
11
33.257336
21
171.428802
31
188.138092
12
0.000000
22
145.712143
32
199.957428
13
0.000000
23
101.406639
33
177.654236
0
3DFACE
8
0
70
0
10
53.691235
20
75.668274
30
138.545212
11
41.333614
21
139.865402
31
159.956573
12
0.000000
22
101.406639
32
177.654236
13
0.000000
23
71.914680
33
177.929077
0
3DFACE
8
0
70
0
10
-40.993786
20
141.100433
30
120.367966
11
-36.650661
21
180.545959
31
156.334198
12
0.000000
22
187.561935
32
154.444122
13
0.000000
23
158.804886
33
121.943184
0
3DFACE
8
0
70
0
10
-41.333614
20
139.865402
30
159.956573
11
-33.257336
21
171.428802
31
188.138092
12
-30.736588
22
198.355072
32
180.884186
13
-36.650661
23
180.545959
33
156.334198
0
3DFACE
8
0
70
0
10
-41.333614
20
139.865402
30
159.956573
11
0.000000
21
101.406639
31
177.654236
12
0.000000
22
145.712143
32
199.957428
13
-33.257336
23
171.428802
33
188.138092
0
3DFACE
8
0
70
0
10
6.616395
20
261.016998
30
238.785553
11
17.663412
21
257.494354
31
238.352219
12
56.129124
22
293.423676
32
226.008804
13
48.365719
23
294.073792
33
226.461685
0
3DFACE
8
0
70
0
10
-56.129124
20
293.423676
30
226.008804
11
-17.663412
21
257.494354
31
238.352219
12
-6.616395
22
261.016998
32
238.785553
13
-48.365719
23
294.073792
33
226.461685
0
ENDSEC
0
EOF
