0
SECTION
2
HEADER
999
DXF File Generated by LightWave 3D(TM)
0
ENDSEC
0
SECTION
2
TABLES
0
ENDSEC
0
SECTION
2
BLOCKS
0
ENDSEC
0
SECTION
2
ENTITIES
0
3DFACE
8
0
70
0
10
0.000000
20
6.578873
30
140.454803
11
24.441669
21
13.734536
31
127.166603
12
54.431267
22
69.775673
32
140.454803
13
0.000000
23
66.119232
33
180.381500
0
3DFACE
8
0
70
0
10
-7.600498
20
184.142075
30
320.132324
11
0.824543
21
189.442566
31
320.219025
12
-2.255398
22
199.772186
32
321.192108
13
-10.280185
23
199.577835
33
321.417816
0
3DFACE
8
0
70
0
10
9.864675
20
63.312263
30
-52.608261
11
13.660411
21
122.060440
31
-64.703056
12
52.696842
22
117.579803
32
-41.466255
13
44.622391
23
65.723244
33
-35.598564
0
3DFACE
8
0
70
0
10
17.278429
20
149.073868
30
-81.490349
11
17.273256
21
160.392487
31
-79.405731
12
20.003740
22
159.463058
32
-79.091949
13
20.460602
23
150.254837
33
-80.709824
0
3DFACE
8
0
70
0
10
47.281132
20
140.390900
30
27.545351
11
0.180979
21
156.842636
31
22.411203
12
0.000000
22
147.223831
32
91.355537
13
43.982494
23
135.972809
33
91.590034
0
3DFACE
8
0
70
0
10
0.000000
20
147.223831
30
91.355537
11
0.000000
21
150.760529
31
123.623947
12
41.558807
22
133.514297
32
122.027016
13
43.982494
23
135.972809
33
91.590034
0
3DFACE
8
0
70
0
10
27.627975
20
50.858292
30
24.199598
11
60.297997
21
90.162689
31
34.511089
12
54.873554
22
69.729599
32
92.513428
13
23.716932
23
18.261091
33
93.433708
0
3DFACE
8
0
70
0
10
63.852413
20
-150.571320
30
93.551514
11
45.160172
21
-150.571320
31
145.948044
12
28.930508
22
-150.571320
32
131.113159
13
34.902290
23
-150.571320
33
94.722748
0
3DFACE
8
0
70
0
10
60.297997
20
90.162689
30
34.511089
11
47.281132
21
140.390900
31
27.545351
12
43.982494
22
135.972809
32
91.590034
13
54.873554
23
69.729599
33
92.513428
0
3DFACE
8
0
70
0
10
54.873554
20
69.729599
30
92.513428
11
43.982494
21
135.972809
31
91.590034
12
41.558807
22
133.514297
32
122.027016
13
54.431267
23
69.775673
33
140.454803
0
3DFACE
8
0
70
0
10
0.000000
20
42.478916
30
24.199598
11
27.627975
21
50.858292
31
24.199598
12
23.716932
22
18.261091
32
93.433708
13
0.000000
23
7.266323
33
93.662865
0
3DFACE
8
0
70
0
10
0.000000
20
7.266323
30
93.662865
11
23.716932
21
18.261091
31
93.433708
12
24.441669
22
13.734536
32
127.166603
13
0.000000
23
6.578873
33
140.454803
0
3DFACE
8
0
70
0
10
6.235980
20
153.686920
30
-14.458540
11
44.517349
21
143.444336
31
-9.513498
12
46.596607
22
140.228638
32
-33.915192
13
11.838890
23
148.624191
33
-48.964184
0
3DFACE
8
0
70
0
10
0.180979
20
156.842636
30
22.411203
11
47.281132
21
140.390900
31
27.545351
12
44.517349
22
143.444336
32
-9.513498
13
6.235980
23
153.686920
33
-14.458540
0
3DFACE
8
0
70
0
10
61.942909
20
-149.254379
30
-42.827278
11
36.839699
21
-149.769028
31
-42.810780
12
31.524654
22
-149.742218
32
-43.321224
13
46.031391
23
-149.254379
33
-43.530205
0
3DFACE
8
0
70
0
10
82.298225
20
-150.811523
30
24.820112
11
46.031391
21
-151.173492
31
24.820112
12
36.839699
22
-149.769028
32
-42.810780
13
61.942909
23
-149.254379
33
-42.827278
0
3DFACE
8
0
70
0
10
76.958717
20
101.922066
30
-10.622547
11
52.696842
21
117.579803
31
-41.466255
12
46.596607
22
140.228638
32
-33.915192
13
44.517349
23
143.444336
33
-9.513498
0
3DFACE
8
0
70
0
10
47.281132
20
140.390900
30
27.545351
11
60.297997
21
90.162689
31
34.511089
12
76.958717
22
101.922066
32
-10.622547
13
44.517349
23
143.444336
33
-9.513498
0
3DFACE
8
0
70
0
10
0.000000
20
34.853817
30
-23.395401
11
9.864675
21
63.312263
31
-52.608261
12
44.622391
22
65.723244
32
-35.598564
13
38.969231
23
44.590073
33
-23.598322
0
3DFACE
8
0
70
0
10
27.627975
20
50.858292
30
24.199598
11
0.000000
21
42.478916
31
24.199598
12
0.000000
22
34.853817
32
-23.395401
13
38.969231
23
44.590073
33
-23.598322
0
3DFACE
8
0
70
0
10
56.492882
20
-76.280159
30
-69.442184
11
47.021744
21
-76.280159
31
-70.596687
12
47.746723
22
-43.942287
32
-57.197506
13
54.533855
23
-43.942287
33
-57.197506
0
3DFACE
8
0
70
0
10
38.386784
20
-76.652153
30
-70.253456
11
41.558807
21
-44.092930
31
-57.197506
12
47.746723
22
-43.942287
32
-57.197506
13
47.021744
23
-76.280159
33
-70.596687
0
3DFACE
8
0
70
0
10
41.550495
20
-76.672569
30
-69.415085
11
43.825974
21
-44.101212
31
-57.197506
12
41.558807
22
-44.092930
32
-57.197506
13
38.386784
23
-76.652153
33
-70.253456
0
3DFACE
8
0
70
0
10
68.609138
20
-76.332626
30
-37.550392
11
56.492882
21
-76.280159
31
-69.442184
12
54.533855
22
-43.942287
32
-57.197506
13
63.216503
23
-46.902275
33
-9.103637
0
3DFACE
8
0
70
0
10
47.021744
20
-76.721535
30
-37.550392
11
47.746723
21
-45.944279
31
-9.103637
12
43.825974
22
-44.101212
32
-57.197506
13
41.550495
23
-76.672569
33
-69.415085
0
3DFACE
8
0
70
0
10
47.021744
20
-76.721535
30
-37.550392
11
68.609138
21
-76.332626
31
-37.550392
12
63.216503
22
-46.902275
32
-9.103637
13
47.746723
23
-45.944279
33
-9.103637
0
3DFACE
8
0
70
0
10
56.492882
20
-105.064049
30
-46.922836
11
47.021744
21
-105.064049
31
-47.067150
12
47.021744
22
-76.280159
32
-70.596687
13
56.492882
23
-76.280159
33
-69.442184
0
3DFACE
8
0
70
0
10
38.386784
20
-105.476616
30
-47.024250
11
38.386784
21
-76.652153
31
-70.253456
12
47.021744
22
-76.280159
32
-70.596687
13
47.021744
23
-105.064049
33
-47.067150
0
3DFACE
8
0
70
0
10
41.550495
20
-105.499268
30
-46.919449
11
41.550495
21
-76.672569
31
-69.415085
12
38.386784
22
-76.652153
32
-70.253456
13
38.386784
23
-105.476616
33
-47.024250
0
3DFACE
8
0
70
0
10
68.609138
20
-105.911812
30
-17.206305
11
56.492882
21
-105.064049
31
-46.922836
12
56.492882
22
-76.280159
32
-69.442184
13
68.609138
23
-76.332626
33
-37.550392
0
3DFACE
8
0
70
0
10
47.021744
20
-106.300720
30
-17.206305
11
47.021744
21
-76.721535
31
-37.550392
12
41.550495
22
-76.672569
32
-69.415085
13
41.550495
23
-105.499268
33
-46.919449
0
3DFACE
8
0
70
0
10
47.021744
20
-106.300720
30
-17.206305
11
68.609138
21
-105.911812
31
-17.206305
12
68.609138
22
-76.332626
32
-37.550392
13
47.021744
23
-76.721535
33
-37.550392
0
3DFACE
8
0
70
0
10
61.942909
20
-149.254379
30
-42.827278
11
46.031391
21
-149.254379
31
-43.530205
12
47.021744
22
-105.064049
32
-47.067150
13
56.492882
23
-105.064049
33
-46.922836
0
3DFACE
8
0
70
0
10
31.524654
20
-149.742218
30
-43.321224
11
38.386784
21
-105.476616
31
-47.024250
12
47.021744
22
-105.064049
32
-47.067150
13
46.031391
23
-149.254379
33
-43.530205
0
3DFACE
8
0
70
0
10
36.839699
20
-149.769028
30
-42.810780
11
41.550495
21
-105.499268
31
-46.919449
12
38.386784
22
-105.476616
32
-47.024250
13
31.524654
23
-149.742218
33
-43.321224
0
3DFACE
8
0
70
0
10
82.298225
20
-150.811523
30
24.820112
11
61.942909
21
-149.254379
31
-42.827278
12
56.492882
22
-105.064049
32
-46.922836
13
68.609138
23
-105.911812
33
-17.206305
0
3DFACE
8
0
70
0
10
46.031391
20
-151.173492
30
24.820112
11
47.021744
21
-106.300720
31
-17.206305
12
41.550495
22
-105.499268
32
-46.919449
13
36.839699
23
-149.769028
33
-42.810780
0
3DFACE
8
0
70
0
10
46.031391
20
-151.173492
30
24.820112
11
82.298225
21
-150.811523
31
24.820112
12
68.609138
22
-105.911812
32
-17.206305
13
47.021744
23
-106.300720
33
-17.206305
0
3DFACE
8
0
70
0
10
43.835682
20
-54.918663
30
111.012619
11
23.716932
21
18.261091
31
93.433708
12
54.873554
22
69.729599
32
92.513428
13
54.873554
23
-54.918663
33
110.598495
0
3DFACE
8
0
70
0
10
43.835682
20
-54.918663
30
111.012619
11
41.558807
21
-54.918663
31
123.879623
12
24.441669
22
13.734536
32
127.166603
13
23.716932
23
18.261091
33
93.433708
0
3DFACE
8
0
70
0
10
41.558807
20
-54.918663
30
123.879623
11
47.746723
21
-54.918663
31
129.124969
12
54.431267
22
69.775673
32
140.454803
13
24.441669
23
13.734536
33
127.166603
0
3DFACE
8
0
70
0
10
47.746723
20
-54.918663
30
129.124969
11
54.873554
21
-54.918663
31
110.598495
12
54.873554
22
69.729599
32
92.513428
13
54.431267
23
69.775673
33
140.454803
0
3DFACE
8
0
70
0
10
38.143379
20
-92.799446
30
94.879051
11
43.835682
21
-54.918663
31
111.012619
12
54.873554
22
-54.918663
32
110.598495
13
55.583218
23
-92.799446
33
94.224731
0
3DFACE
8
0
70
0
10
34.545921
20
-92.799446
30
115.208893
11
41.558807
21
-54.918663
31
123.879623
12
43.835682
22
-54.918663
32
111.012619
13
38.143379
23
-92.799446
33
94.879051
0
3DFACE
8
0
70
0
10
44.322830
20
-92.799446
30
123.496536
11
47.746723
21
-54.918663
31
129.124969
12
41.558807
22
-54.918663
32
123.879623
13
34.545921
23
-92.799446
33
115.208893
0
3DFACE
8
0
70
0
10
44.322830
20
-92.799446
30
123.496536
11
55.583218
21
-92.799446
31
94.224731
12
54.873554
22
-54.918663
32
110.598495
13
47.746723
23
-54.918663
33
129.124969
0
3DFACE
8
0
70
0
10
34.902290
20
-150.571320
30
94.722748
11
38.143379
21
-92.799446
31
94.879051
12
55.583218
22
-92.799446
32
94.224731
13
63.852413
23
-150.571320
33
93.551514
0
3DFACE
8
0
70
0
10
28.930508
20
-150.571320
30
131.113159
11
34.545921
21
-92.799446
31
115.208893
12
38.143379
22
-92.799446
32
94.879051
13
34.902290
23
-150.571320
33
94.722748
0
3DFACE
8
0
70
0
10
45.160172
20
-150.571320
30
145.948044
11
44.322830
21
-92.799446
31
123.496536
12
34.545921
22
-92.799446
32
115.208893
13
28.930508
23
-150.571320
33
131.113159
0
3DFACE
8
0
70
0
10
45.160172
20
-150.571320
30
145.948044
11
63.852413
21
-150.571320
31
93.551514
12
55.583218
22
-92.799446
32
94.224731
13
44.322830
23
-92.799446
33
123.496536
0
3DFACE
8
0
70
0
10
-6.293414
20
181.848297
30
229.926773
11
-5.457161
21
176.963287
31
214.238998
12
9.532427
22
225.055191
32
210.886414
13
23.370422
23
214.659012
33
228.671555
0
3DFACE
8
0
70
0
10
-2.255398
20
199.772186
30
321.192108
11
6.919209
21
233.915894
31
282.538727
12
-16.788256
22
232.947296
32
282.953979
13
-10.280185
23
199.577835
33
321.417816
0
3DFACE
8
0
70
0
10
0.824543
20
189.442566
30
320.219025
11
17.977356
21
197.410904
31
282.376038
12
6.919209
22
233.915894
32
282.538727
13
-2.255398
23
199.772186
33
321.192108
0
3DFACE
8
0
70
0
10
-7.600498
20
184.142075
30
320.132324
11
-6.595999
21
180.307144
31
281.308044
12
17.977356
22
197.410904
32
282.376038
13
0.824543
23
189.442566
33
320.219025
0
3DFACE
8
0
70
0
10
14.026580
20
302.968781
30
222.407227
11
20.570984
21
285.263550
31
219.812912
12
16.968555
22
285.128876
32
214.934875
13
14.707448
23
291.181427
33
215.797134
0
3DFACE
8
0
70
0
10
14.987138
20
243.459015
30
231.948746
11
23.370422
21
214.659012
31
228.671555
12
9.532427
22
225.055191
32
210.886414
13
3.510080
23
243.594208
33
213.018784
0
3DFACE
8
0
70
0
10
14.707448
20
291.181427
30
215.797134
11
-0.703270
21
255.498322
31
214.486588
12
2.750028
22
278.405701
32
236.529709
13
14.026580
23
302.968781
33
222.407227
0
3DFACE
8
0
70
0
10
16.968555
20
285.128876
30
214.934875
11
3.510080
21
243.594208
31
213.018784
12
-0.703270
22
255.498322
32
214.486588
13
14.707448
23
291.181427
33
215.797134
0
3DFACE
8
0
70
0
10
20.570984
20
285.263550
30
219.812912
11
14.987138
21
243.459015
31
231.948746
12
3.510080
22
243.594208
32
213.018784
13
16.968555
23
285.128876
33
214.934875
0
3DFACE
8
0
70
0
10
20.570984
20
285.263550
30
219.812912
11
14.026580
21
302.968781
31
222.407227
12
2.750028
22
278.405701
32
236.529709
13
14.987138
23
243.459015
33
231.948746
0
3DFACE
8
0
70
0
10
-6.380628
20
267.907898
30
225.800858
11
-17.979145
21
267.782928
31
226.067780
12
-28.187132
22
277.664185
32
237.223816
13
2.750028
23
278.405701
33
236.529709
0
3DFACE
8
0
70
0
10
-14.237099
20
258.233307
30
214.549423
11
-19.988390
21
251.273315
31
206.728302
12
-28.187132
22
277.664185
32
237.223816
13
-17.979145
23
267.782928
33
226.067780
0
3DFACE
8
0
70
0
10
-7.548627
20
259.723053
30
217.494736
11
-0.703270
21
255.498322
31
214.486588
12
-19.988390
22
251.273315
32
206.728302
13
-14.237099
23
258.233307
33
214.549423
0
3DFACE
8
0
70
0
10
-7.548627
20
259.723053
30
217.494736
11
-6.380628
21
267.907898
31
225.800858
12
2.750028
22
278.405701
32
236.529709
13
-0.703270
23
255.498322
33
214.486588
0
3DFACE
8
0
70
0
10
-7.005368
20
361.744720
30
194.126114
11
-3.465933
21
359.968262
31
192.897217
12
-3.457763
22
357.002686
32
192.309616
13
-8.343435
23
357.062897
33
193.875397
0
3DFACE
8
0
70
0
10
-17.979145
20
267.782928
30
226.067780
11
11.439850
21
314.971527
31
215.884293
12
16.587711
22
305.819611
32
208.524200
13
-14.237099
23
258.233307
33
214.549423
0
3DFACE
8
0
70
0
10
20.410580
20
309.501434
30
210.145569
11
16.587711
21
305.819611
31
208.524200
12
20.240831
22
317.598175
32
205.941864
13
23.276285
23
323.423157
33
206.766449
0
3DFACE
8
0
70
0
10
11.439850
20
314.971527
30
215.884293
11
14.497300
21
325.690186
31
212.055664
12
20.240831
22
317.598175
32
205.941864
13
16.587711
23
305.819611
33
208.524200
0
3DFACE
8
0
70
0
10
42.777660
20
340.204834
30
186.184647
11
43.195133
21
338.787079
31
183.439865
12
40.716732
22
343.863678
32
184.165970
13
39.872807
23
345.150055
33
186.619644
0
3DFACE
8
0
70
0
10
-6.380628
20
267.907898
30
225.800858
11
-7.548627
21
259.723053
31
217.494736
12
20.410580
22
309.501434
32
210.145569
13
18.973282
23
317.205902
33
215.641586
0
3DFACE
8
0
70
0
10
18.973282
20
317.205902
30
215.641586
11
20.969137
21
331.142426
31
210.987350
12
14.497300
22
325.690186
32
212.055664
13
11.439850
23
314.971527
33
215.884293
0
3DFACE
8
0
70
0
10
-7.548627
20
259.723053
30
217.494736
11
-14.237099
21
258.233307
31
214.549423
12
16.587711
22
305.819611
32
208.524200
13
20.410580
23
309.501434
33
210.145569
0
3DFACE
8
0
70
0
10
5.271518
20
346.566895
30
202.613007
11
1.638310
21
353.871338
31
199.388092
12
0.743190
22
347.234985
32
199.567657
13
1.760672
23
343.745178
33
201.300034
0
3DFACE
8
0
70
0
10
20.969137
20
331.142426
30
210.987350
11
5.271518
21
346.566895
31
202.613007
12
1.760672
22
343.745178
32
201.300034
13
14.497300
23
325.690186
33
212.055664
0
3DFACE
8
0
70
0
10
8.224128
20
344.219727
30
199.381470
11
7.353473
21
342.268799
31
197.907928
12
6.121395
22
347.467010
32
196.467697
13
5.425218
23
351.892487
33
197.097458
0
3DFACE
8
0
70
0
10
23.276285
20
323.423157
30
206.766449
11
20.240831
21
317.598175
31
205.941864
12
7.353473
22
342.268799
32
197.907928
13
8.224128
23
344.219727
33
199.381470
0
3DFACE
8
0
70
0
10
-11.249383
20
339.909790
30
188.954147
11
-13.675336
21
341.577362
31
191.140762
12
-13.368918
22
343.615906
32
190.681839
13
-10.668432
23
342.667206
33
188.824738
0
3DFACE
8
0
70
0
10
20.240831
20
317.598175
30
205.941864
11
14.497300
21
325.690186
31
212.055664
12
1.760672
22
343.745178
32
201.300034
13
7.353473
23
342.268799
33
197.907928
0
3DFACE
8
0
70
0
10
5.271518
20
346.566895
30
202.613007
11
8.224128
21
344.219727
31
199.381470
12
5.425218
22
351.892487
32
197.097458
13
1.638310
23
353.871338
33
199.388092
0
3DFACE
8
0
70
0
10
23.276285
20
323.423157
30
206.766449
11
8.224128
21
344.219727
31
199.381470
12
5.271518
22
346.566895
32
202.613007
13
20.969137
23
331.142426
33
210.987350
0
3DFACE
8
0
70
0
10
-1.825634
20
357.057465
30
197.271561
11
-7.005368
21
361.744720
31
194.126114
12
-8.343435
22
357.062897
32
193.875397
13
-5.388505
23
353.907379
33
195.714081
0
3DFACE
8
0
70
0
10
0.743190
20
347.234985
30
199.567657
11
-5.388505
21
353.907379
31
195.714081
12
-0.250047
22
353.851471
32
193.693649
13
6.121395
23
347.467010
33
196.467697
0
3DFACE
8
0
70
0
10
6.121395
20
347.467010
30
196.467697
11
-0.250047
21
353.851471
31
193.693649
12
1.092667
22
355.862885
32
195.044006
13
5.425218
23
351.892487
33
197.097458
0
3DFACE
8
0
70
0
10
10.640394
20
356.447510
30
183.262024
11
7.175890
21
358.532349
31
183.919327
12
6.404488
22
358.907776
32
186.219009
13
9.360630
23
357.215302
33
185.944946
0
3DFACE
8
0
70
0
10
0.743190
20
347.234985
30
199.567657
11
1.638310
21
353.871338
31
199.388092
12
-1.825634
22
357.057465
32
197.271561
13
-5.388505
23
353.907379
33
195.714081
0
3DFACE
8
0
70
0
10
-5.388505
20
353.907379
30
195.714081
11
-8.343435
21
357.062897
31
193.875397
12
-3.457763
22
357.002686
32
192.309616
13
-0.250047
23
353.851471
33
193.693649
0
3DFACE
8
0
70
0
10
1.092667
20
355.862885
30
195.044006
11
-0.250047
21
353.851471
31
193.693649
12
-3.457763
22
357.002686
32
192.309616
13
-3.465933
23
359.968262
33
192.897217
0
3DFACE
8
0
70
0
10
-1.825634
20
357.057465
30
197.271561
11
1.092667
21
355.862885
31
195.044006
12
-3.465933
22
359.968262
32
192.897217
13
-7.005368
23
361.744720
33
194.126114
0
3DFACE
8
0
70
0
10
18.973282
20
317.205902
30
215.641586
11
23.146496
21
316.703613
31
213.467255
12
24.986301
22
329.289703
32
209.267776
13
20.969137
23
331.142426
33
210.987350
0
3DFACE
8
0
70
0
10
20.969137
20
331.142426
30
210.987350
11
24.986301
21
329.289703
31
209.267776
12
27.048616
22
322.278168
32
205.474792
13
23.276285
23
323.423157
33
206.766449
0
3DFACE
8
0
70
0
10
23.276285
20
323.423157
30
206.766449
11
27.048616
21
322.278168
31
205.474792
12
24.441238
22
309.705719
32
208.521576
13
20.410580
23
309.501434
33
210.145569
0
3DFACE
8
0
70
0
10
20.410580
20
309.501434
30
210.145569
11
24.441238
21
309.705719
31
208.521576
12
23.146496
22
316.703613
32
213.467255
13
18.973282
23
317.205902
33
215.641586
0
3DFACE
8
0
70
0
10
23.146496
20
316.703613
30
213.467255
11
29.954681
21
314.830383
31
210.681366
12
28.306854
22
327.191010
32
208.141724
13
24.986301
23
329.289703
33
209.267776
0
3DFACE
8
0
70
0
10
24.986301
20
329.289703
30
209.267776
11
28.306854
21
327.191010
31
208.141724
12
30.553827
22
321.926086
32
203.788071
13
27.048616
23
322.278168
33
205.474792
0
3DFACE
8
0
70
0
10
27.048616
20
322.278168
30
205.474792
11
30.553827
21
321.926086
31
203.788071
12
31.336994
22
309.496460
32
205.411728
13
24.441238
23
309.705719
33
208.521576
0
3DFACE
8
0
70
0
10
24.441238
20
309.705719
30
208.521576
11
31.336994
21
309.496460
31
205.411728
12
29.954681
22
314.830383
32
210.681366
13
23.146496
23
316.703613
33
213.467255
0
3DFACE
8
0
70
0
10
29.954681
20
314.830383
30
210.681366
11
34.739460
21
316.949982
31
206.418701
12
29.675402
22
327.550842
32
206.546631
13
28.306854
23
327.191010
33
208.141724
0
3DFACE
8
0
70
0
10
28.306854
20
327.191010
30
208.141724
11
29.675402
21
327.550842
31
206.546631
12
31.509567
22
324.488342
32
201.632767
13
30.553827
23
321.926086
33
203.788071
0
3DFACE
8
0
70
0
10
30.553827
20
321.926086
30
203.788071
11
31.509567
21
324.488342
31
201.632767
12
35.670284
22
313.645233
32
200.859818
13
31.336994
23
309.496460
33
205.411728
0
3DFACE
8
0
70
0
10
31.336994
20
309.496460
30
205.411728
11
35.670284
21
313.645233
31
200.859818
12
34.739460
22
316.949982
32
206.418701
13
29.954681
23
314.830383
33
210.681366
0
3DFACE
8
0
70
0
10
34.739460
20
316.949982
30
206.418701
11
36.297768
21
320.083771
31
203.368423
12
31.367155
22
329.454590
32
203.818588
13
29.675402
23
327.550842
33
206.546631
0
3DFACE
8
0
70
0
10
29.675402
20
327.550842
30
206.546631
11
31.367155
21
329.454590
31
203.818588
12
32.954254
22
326.894409
32
199.300034
13
31.509567
23
324.488342
33
201.632767
0
3DFACE
8
0
70
0
10
31.509567
20
324.488342
30
201.632767
11
32.954254
21
326.894409
31
199.300034
12
37.068687
22
317.284180
32
198.289749
13
35.670284
23
313.645233
33
200.859818
0
3DFACE
8
0
70
0
10
35.670284
20
313.645233
30
200.859818
11
37.068687
21
317.284180
31
198.289749
12
36.297768
22
320.083771
32
203.368423
13
34.739460
23
316.949982
33
206.418701
0
3DFACE
8
0
70
0
10
36.297768
20
320.083771
30
203.368423
11
37.989277
21
322.650970
31
200.626709
12
33.521030
22
331.119263
32
201.042923
13
31.367155
23
329.454590
33
203.818588
0
3DFACE
8
0
70
0
10
31.367155
20
329.454590
30
203.818588
11
33.521030
21
331.119263
31
201.042923
12
34.958363
22
328.802490
32
196.972885
13
32.954254
23
326.894409
33
199.300034
0
3DFACE
8
0
70
0
10
32.954254
20
326.894409
30
199.300034
11
34.958363
21
328.802490
31
196.972885
12
38.695232
22
320.122925
32
196.051636
13
37.068687
23
317.284180
33
198.289749
0
3DFACE
8
0
70
0
10
37.068687
20
317.284180
30
198.289749
11
38.695232
21
320.122925
31
196.051636
12
37.989277
22
322.650970
32
200.626709
13
36.297768
23
320.083771
33
203.368423
0
3DFACE
8
0
70
0
10
37.989277
20
322.650970
30
200.626709
11
39.679173
21
325.782806
31
197.536591
12
35.106907
22
332.992371
32
198.500412
13
33.521030
23
331.119263
33
201.042923
0
3DFACE
8
0
70
0
10
33.521030
20
331.119263
30
201.042923
11
35.106907
21
332.992371
31
198.500412
12
36.244785
22
331.262878
32
194.691849
13
34.958363
23
328.802490
33
196.972885
0
3DFACE
8
0
70
0
10
34.958363
20
328.802490
30
196.972885
11
36.244785
21
331.262878
31
194.691849
12
40.152435
22
323.818268
32
193.310547
13
38.695232
23
320.122925
33
196.051636
0
3DFACE
8
0
70
0
10
38.695232
20
320.122925
30
196.051636
11
40.152435
21
323.818268
31
193.310547
12
39.679173
22
325.782806
32
197.536591
13
37.989277
23
322.650970
33
200.626709
0
3DFACE
8
0
70
0
10
39.679173
20
325.782806
30
197.536591
11
40.694618
21
329.028625
31
194.774536
12
36.178898
22
335.053253
32
196.170395
13
35.106907
23
332.992371
33
198.500412
0
3DFACE
8
0
70
0
10
35.106907
20
332.992371
30
198.500412
11
36.178898
21
335.053253
31
196.170395
12
37.029896
22
333.807556
32
192.638687
13
36.244785
23
331.262878
33
194.691849
0
3DFACE
8
0
70
0
10
36.244785
20
331.262878
30
194.691849
11
37.029896
21
333.807556
31
192.638687
12
40.947540
22
327.528351
32
190.898941
13
40.152435
23
323.818268
33
193.310547
0
3DFACE
8
0
70
0
10
40.152435
20
323.818268
30
193.310547
11
40.947540
21
327.528351
31
190.898941
12
40.694618
22
329.028625
32
194.774536
13
39.679173
23
325.782806
33
197.536591
0
3DFACE
8
0
70
0
10
40.694618
20
329.028625
30
194.774536
11
41.109188
21
333.087067
31
191.844162
12
36.954567
22
338.412659
32
193.206223
13
36.178898
23
335.053253
33
196.170395
0
3DFACE
8
0
70
0
10
36.178898
20
335.053253
30
196.170395
11
36.954567
21
338.412659
31
193.206223
12
37.690632
22
337.348816
32
190.009491
13
37.029896
23
333.807556
33
192.638687
0
3DFACE
8
0
70
0
10
37.029896
20
333.807556
30
192.638687
11
37.690632
21
337.348816
31
190.009491
12
41.309284
22
331.786011
32
188.343094
13
40.947540
23
327.528351
33
190.898941
0
3DFACE
8
0
70
0
10
40.947540
20
327.528351
30
190.898941
11
41.309284
21
331.786011
31
188.343094
12
41.109188
22
333.087067
32
191.844162
13
40.694618
23
329.028625
33
194.774536
0
3DFACE
8
0
70
0
10
41.109188
20
333.087067
30
191.844162
11
41.642948
21
337.211273
31
188.814743
12
38.155346
22
342.410522
32
189.631027
13
36.954567
23
338.412659
33
193.206223
0
3DFACE
8
0
70
0
10
36.954567
20
338.412659
30
193.206223
11
38.155346
21
342.410522
31
189.631027
12
38.978600
22
341.199768
32
186.829056
13
37.690632
23
337.348816
33
190.009491
0
3DFACE
8
0
70
0
10
37.690632
20
337.348816
30
190.009491
11
38.978600
21
341.199768
31
186.829056
12
41.986393
22
335.824371
32
185.712112
13
41.309284
23
331.786011
33
188.343094
0
3DFACE
8
0
70
0
10
41.309284
20
331.786011
30
188.343094
11
41.986393
21
335.824371
31
185.712112
12
41.642948
22
337.211273
32
188.814743
13
41.109188
23
333.087067
33
191.844162
0
3DFACE
8
0
70
0
10
41.642948
20
337.211273
30
188.814743
11
42.777660
21
340.204834
31
186.184647
12
39.872807
22
345.150055
32
186.619644
13
38.155346
23
342.410522
33
189.631027
0
3DFACE
8
0
70
0
10
38.155346
20
342.410522
30
189.631027
11
39.872807
21
345.150055
31
186.619644
12
40.716732
22
343.863678
32
184.165970
13
38.978600
23
341.199768
33
186.829056
0
3DFACE
8
0
70
0
10
38.978600
20
341.199768
30
186.829056
11
40.716732
21
343.863678
31
184.165970
12
43.195133
22
338.787079
32
183.439865
13
41.986393
23
335.824371
33
185.712112
0
3DFACE
8
0
70
0
10
41.986393
20
335.824371
30
185.712112
11
43.195133
21
338.787079
31
183.439865
12
42.777660
22
340.204834
32
186.184647
13
41.642948
23
337.211273
33
188.814743
0
3DFACE
8
0
70
0
10
7.353473
20
342.268799
30
197.907928
11
3.929353
21
339.290710
31
195.981812
12
3.250775
22
344.097260
32
194.907303
13
6.121395
23
347.467010
33
196.467697
0
3DFACE
8
0
70
0
10
6.121395
20
347.467010
30
196.467697
11
3.250775
21
344.097260
31
194.907303
12
-1.608981
22
344.313049
32
197.738342
13
0.743190
23
347.234985
33
199.567657
0
3DFACE
8
0
70
0
10
0.743190
20
347.234985
30
199.567657
11
-1.608981
21
344.313049
31
197.738342
12
-0.975707
22
341.016510
32
199.141495
13
1.760672
23
343.745178
33
201.300034
0
3DFACE
8
0
70
0
10
1.760672
20
343.745178
30
201.300034
11
-0.975707
21
341.016510
31
199.141495
12
3.929353
22
339.290710
32
195.981812
13
7.353473
23
342.268799
33
197.907928
0
3DFACE
8
0
70
0
10
3.929353
20
339.290710
30
195.981812
11
1.385690
21
338.265106
31
194.734253
12
1.035982
22
342.631897
32
193.902069
13
3.250775
23
344.097260
33
194.907303
0
3DFACE
8
0
70
0
10
3.250775
20
344.097260
30
194.907303
11
1.035982
21
342.631897
31
193.902069
12
-3.328390
22
343.069702
32
196.483109
13
-1.608981
23
344.313049
33
197.738342
0
3DFACE
8
0
70
0
10
-1.608981
20
344.313049
30
197.738342
11
-3.328390
21
343.069702
31
196.483109
12
-2.933472
22
340.033478
32
197.649780
13
-0.975707
23
341.016510
33
199.141495
0
3DFACE
8
0
70
0
10
-0.975707
20
341.016510
30
199.141495
11
-2.933472
21
340.033478
31
197.649780
12
1.385690
22
338.265106
32
194.734253
13
3.929353
23
339.290710
33
195.981812
0
3DFACE
8
0
70
0
10
1.385690
20
338.265106
30
194.734253
11
-1.704176
21
336.632385
31
193.108887
12
-1.079423
22
340.499207
32
192.834549
13
1.035982
23
342.631897
33
193.902069
0
3DFACE
8
0
70
0
10
1.035982
20
342.631897
30
193.902069
11
-1.079423
21
340.499207
31
192.834549
12
-4.848113
22
341.713135
32
195.339508
13
-3.328390
23
343.069702
33
196.483109
0
3DFACE
8
0
70
0
10
-3.328390
20
343.069702
30
196.483109
11
-4.848113
21
341.713135
31
195.339508
12
-5.143498
22
338.886505
32
196.041367
13
-2.933472
23
340.033478
33
197.649780
0
3DFACE
8
0
70
0
10
-2.933472
20
340.033478
30
197.649780
11
-5.143498
21
338.886505
31
196.041367
12
-1.704176
22
336.632385
32
193.108887
13
1.385690
23
338.265106
33
194.734253
0
3DFACE
8
0
70
0
10
-1.704176
20
336.632385
30
193.108887
11
-6.039202
21
337.973358
31
191.165237
12
-4.387535
22
340.853241
32
191.420639
13
-1.079423
23
340.499207
33
192.834549
0
3DFACE
8
0
70
0
10
-1.079423
20
340.499207
30
192.834549
11
-4.387535
21
340.853241
31
191.420639
12
-7.310701
22
342.716766
32
194.016296
13
-4.848113
23
341.713135
33
195.339508
0
3DFACE
8
0
70
0
10
-4.848113
20
341.713135
30
195.339508
11
-7.310701
21
342.716766
31
194.016296
12
-8.378524
22
340.441254
32
194.256317
13
-5.143498
23
338.886505
33
196.041367
0
3DFACE
8
0
70
0
10
-5.143498
20
338.886505
30
196.041367
11
-8.378524
21
340.441254
31
194.256317
12
-6.039202
22
337.973358
32
191.165237
13
-1.704176
23
336.632385
33
193.108887
0
3DFACE
8
0
70
0
10
-6.039202
20
337.973358
30
191.165237
11
-8.836190
21
339.719849
31
190.061127
12
-7.646131
22
342.526764
32
190.169266
13
-4.387535
23
340.853241
33
191.420639
0
3DFACE
8
0
70
0
10
-4.387535
20
340.853241
30
191.420639
11
-7.646131
21
342.526764
31
190.169266
12
-10.432940
22
343.994141
32
192.399139
13
-7.310701
23
342.716766
33
194.016296
0
3DFACE
8
0
70
0
10
-7.310701
20
342.716766
30
194.016296
11
-10.432940
21
343.994141
31
192.399139
12
-11.170944
22
341.834442
32
192.713593
13
-8.378524
23
340.441254
33
194.256317
0
3DFACE
8
0
70
0
10
-8.378524
20
340.441254
30
194.256317
11
-11.170944
21
341.834442
31
192.713593
12
-8.836190
22
339.719849
32
190.061127
13
-6.039202
23
337.973358
33
191.165237
0
3DFACE
8
0
70
0
10
-8.836190
20
339.719849
30
190.061127
11
-11.249383
21
339.909790
31
188.954147
12
-10.668432
22
342.667206
32
188.824738
13
-7.646131
23
342.526764
33
190.169266
0
3DFACE
8
0
70
0
10
-7.646131
20
342.526764
30
190.169266
11
-10.668432
21
342.667206
31
188.824738
12
-13.368918
22
343.615906
32
190.681839
13
-10.432940
23
343.994141
33
192.399139
0
3DFACE
8
0
70
0
10
-10.432940
20
343.994141
30
192.399139
11
-13.368918
21
343.615906
31
190.681839
12
-13.675336
22
341.577362
32
191.140762
13
-11.170944
23
341.834442
33
192.713593
0
3DFACE
8
0
70
0
10
-11.170944
20
341.834442
30
192.713593
11
-13.675336
21
341.577362
31
191.140762
12
-11.249383
22
339.909790
32
188.954147
13
-8.836190
23
339.719849
33
190.061127
0
3DFACE
8
0
70
0
10
5.425218
20
351.892487
30
197.097458
11
8.290661
21
352.695465
31
194.048477
12
5.093275
22
354.348358
32
196.485367
13
1.638310
23
353.871338
33
199.388092
0
3DFACE
8
0
70
0
10
1.638310
20
353.871338
30
199.388092
11
5.093275
21
354.348358
31
196.485367
12
1.686159
22
357.159790
32
194.955582
13
-1.825634
23
357.057465
33
197.271561
0
3DFACE
8
0
70
0
10
-1.825634
20
357.057465
30
197.271561
11
1.686159
21
357.159790
31
194.955582
12
4.091377
22
356.188782
32
192.666092
13
1.092667
23
355.862885
33
195.044006
0
3DFACE
8
0
70
0
10
1.092667
20
355.862885
30
195.044006
11
4.091377
21
356.188782
31
192.666092
12
8.290661
22
352.695465
32
194.048477
13
5.425218
23
351.892487
33
197.097458
0
3DFACE
8
0
70
0
10
8.290661
20
352.695465
30
194.048477
11
9.373902
21
353.673645
31
191.200363
12
7.118188
22
354.854340
32
194.078156
13
5.093275
23
354.348358
33
196.485367
0
3DFACE
8
0
70
0
10
5.093275
20
354.348358
30
196.485367
11
7.118188
21
354.854340
31
194.078156
12
3.623703
22
357.168091
32
193.589844
13
1.686159
23
357.159790
33
194.955582
0
3DFACE
8
0
70
0
10
1.686159
20
357.159790
30
194.955582
11
3.623703
21
357.168091
31
193.589844
12
5.188997
22
356.533997
32
191.034088
13
4.091377
23
356.188782
33
192.666092
0
3DFACE
8
0
70
0
10
4.091377
20
356.188782
30
192.666092
11
5.188997
21
356.533997
31
191.034088
12
9.373902
22
353.673645
32
191.200363
13
8.290661
23
352.695465
33
194.048477
0
3DFACE
8
0
70
0
10
9.373902
20
353.673645
30
191.200363
11
10.107502
21
355.176941
31
186.857269
12
8.574775
22
356.061920
32
189.780014
13
7.118188
23
354.854340
33
194.078156
0
3DFACE
8
0
70
0
10
7.118188
20
354.854340
30
194.078156
11
8.574775
21
356.061920
31
189.780014
12
5.304380
22
357.974457
32
189.952209
13
3.623703
23
357.168091
33
193.589844
0
3DFACE
8
0
70
0
10
3.623703
20
357.168091
30
193.589844
11
5.304380
21
357.974457
31
189.952209
12
6.260615
22
357.535248
32
187.432556
13
5.188997
23
356.533997
33
191.034088
0
3DFACE
8
0
70
0
10
5.188997
20
356.533997
30
191.034088
11
6.260615
21
357.535248
31
187.432556
12
10.107502
22
355.176941
32
186.857269
13
9.373902
23
353.673645
33
191.200363
0
3DFACE
8
0
70
0
10
10.107502
20
355.176941
30
186.857269
11
10.640394
21
356.447510
31
183.262024
12
9.360630
22
357.215302
32
185.944946
13
8.574775
23
356.061920
33
189.780014
0
3DFACE
8
0
70
0
10
8.574775
20
356.061920
30
189.780014
11
9.360630
21
357.215302
31
185.944946
12
6.404488
22
358.907776
32
186.219009
13
5.304380
23
357.974457
33
189.952209
0
3DFACE
8
0
70
0
10
5.304380
20
357.974457
30
189.952209
11
6.404488
21
358.907776
31
186.219009
12
7.175890
22
358.532349
32
183.919327
13
6.260615
23
357.535248
33
187.432556
0
3DFACE
8
0
70
0
10
6.260615
20
357.535248
30
187.432556
11
7.175890
21
358.532349
31
183.919327
12
10.640394
22
356.447510
32
183.262024
13
10.107502
23
355.176941
33
186.857269
0
3DFACE
8
0
70
0
10
0.000000
20
6.578873
30
140.454803
11
0.000000
21
66.119232
31
180.381500
12
-54.431267
22
69.775673
32
140.454803
13
-24.441669
23
13.734536
33
127.166603
0
3DFACE
8
0
70
0
10
-7.600498
20
184.142075
30
320.132324
11
-10.280185
21
199.577835
31
321.417816
12
-17.729822
22
196.308670
32
321.025909
13
-17.157127
23
185.808914
33
320.061859
0
3DFACE
8
0
70
0
10
9.864675
20
63.312263
30
-52.608261
11
-28.324472
21
67.429214
31
-47.863556
12
-30.993277
22
119.536987
32
-55.537575
13
13.660411
23
122.060440
33
-64.703056
0
3DFACE
8
0
70
0
10
17.278429
20
149.073868
30
-81.490349
11
14.090508
21
150.403778
31
-81.780861
12
14.538967
22
159.590851
32
-80.010780
13
17.273256
23
160.392487
33
-79.405731
0
3DFACE
8
0
70
0
10
-46.919170
20
142.593903
30
11.706892
11
-43.982494
21
135.972809
31
91.590034
12
0.000000
22
147.223831
32
91.355537
13
0.180979
23
156.842636
33
22.411203
0
3DFACE
8
0
70
0
10
0.000000
20
147.223831
30
91.355537
11
-43.982494
21
135.972809
31
91.590034
12
-41.558807
22
133.514297
32
122.027016
13
0.000000
23
150.760529
33
123.623947
0
3DFACE
8
0
70
0
10
-27.627975
20
50.858292
30
24.199598
11
-23.716932
21
18.261091
31
93.433708
12
-54.873554
22
69.729599
32
92.513428
13
-64.422882
23
93.079453
33
13.541019
0
3DFACE
8
0
70
0
10
-63.852413
20
-150.571320
30
93.551514
11
-34.902290
21
-150.571320
31
94.722748
12
-28.930508
22
-150.571320
32
131.113159
13
-45.160172
23
-150.571320
33
145.948044
0
3DFACE
8
0
70
0
10
-64.422882
20
93.079453
30
13.541019
11
-54.873554
21
69.729599
31
92.513428
12
-43.982494
22
135.972809
32
91.590034
13
-46.919170
23
142.593903
33
11.706892
0
3DFACE
8
0
70
0
10
-54.873554
20
69.729599
30
92.513428
11
-54.431267
21
69.775673
31
140.454803
12
-41.558807
22
133.514297
32
122.027016
13
-43.982494
23
135.972809
33
91.590034
0
3DFACE
8
0
70
0
10
0.000000
20
42.478916
30
24.199598
11
0.000000
21
7.266323
31
93.662865
12
-23.716932
22
18.261091
32
93.433708
13
-27.627975
23
50.858292
33
24.199598
0
3DFACE
8
0
70
0
10
0.000000
20
7.266323
30
93.662865
11
0.000000
21
6.578873
31
140.454803
12
-24.441669
22
13.734536
32
127.166603
13
-23.716932
23
18.261091
33
93.433708
0
3DFACE
8
0
70
0
10
6.235980
20
153.686920
30
-14.458540
11
11.838890
21
148.624191
31
-48.964184
12
-26.350260
22
141.934570
32
-46.180183
13
-32.111717
23
145.236420
33
-22.397604
0
3DFACE
8
0
70
0
10
0.180979
20
156.842636
30
22.411203
11
6.235980
21
153.686920
31
-14.458540
12
-32.111717
22
145.236420
32
-22.397604
13
-46.919170
23
142.593903
33
11.706892
0
3DFACE
8
0
70
0
10
-61.942909
20
-149.254379
30
-42.827278
11
-46.031391
21
-149.254379
31
-43.530205
12
-31.524654
22
-149.742218
32
-43.321224
13
-36.839699
23
-149.769028
33
-42.810780
0
3DFACE
8
0
70
0
10
-82.298225
20
-150.811523
30
24.820112
11
-61.942909
21
-149.254379
31
-42.827278
12
-36.839699
22
-149.769028
32
-42.810780
13
-46.031391
23
-151.173492
33
24.820112
0
3DFACE
8
0
70
0
10
-64.823029
20
105.237801
30
-34.461163
11
-32.111717
21
145.236420
31
-22.397604
12
-26.350260
22
141.934570
32
-46.180183
13
-30.993277
23
119.536987
33
-55.537575
0
3DFACE
8
0
70
0
10
-46.919170
20
142.593903
30
11.706892
11
-32.111717
21
145.236420
31
-22.397604
12
-64.823029
22
105.237801
32
-34.461163
13
-64.422882
23
93.079453
33
13.541019
0
3DFACE
8
0
70
0
10
0.000000
20
34.853817
30
-23.395401
11
-38.969231
21
44.590073
31
-23.598322
12
-28.324472
22
67.429214
32
-47.863556
13
9.864675
23
63.312263
33
-52.608261
0
3DFACE
8
0
70
0
10
-27.627975
20
50.858292
30
24.199598
11
-38.969231
21
44.590073
31
-23.598322
12
0.000000
22
34.853817
32
-23.395401
13
0.000000
23
42.478916
33
24.199598
0
3DFACE
8
0
70
0
10
-56.492882
20
-76.280159
30
-69.442184
11
-54.533855
21
-43.942287
31
-57.197506
12
-47.746723
22
-43.942287
32
-57.197506
13
-47.021744
23
-76.280159
33
-70.596687
0
3DFACE
8
0
70
0
10
-38.386784
20
-76.652153
30
-70.253456
11
-47.021744
21
-76.280159
31
-70.596687
12
-47.746723
22
-43.942287
32
-57.197506
13
-41.558807
23
-44.092930
33
-57.197506
0
3DFACE
8
0
70
0
10
-41.550495
20
-76.672569
30
-69.415085
11
-38.386784
21
-76.652153
31
-70.253456
12
-41.558807
22
-44.092930
32
-57.197506
13
-43.825974
23
-44.101212
33
-57.197506
0
3DFACE
8
0
70
0
10
-68.609138
20
-76.332626
30
-37.550392
11
-63.216503
21
-46.902275
31
-9.103637
12
-54.533855
22
-43.942287
32
-57.197506
13
-56.492882
23
-76.280159
33
-69.442184
0
3DFACE
8
0
70
0
10
-47.021744
20
-76.721535
30
-37.550392
11
-41.550495
21
-76.672569
31
-69.415085
12
-43.825974
22
-44.101212
32
-57.197506
13
-47.746723
23
-45.944279
33
-9.103637
0
3DFACE
8
0
70
0
10
-47.021744
20
-76.721535
30
-37.550392
11
-47.746723
21
-45.944279
31
-9.103637
12
-63.216503
22
-46.902275
32
-9.103637
13
-68.609138
23
-76.332626
33
-37.550392
0
3DFACE
8
0
70
0
10
-56.492882
20
-105.064049
30
-46.922836
11
-56.492882
21
-76.280159
31
-69.442184
12
-47.021744
22
-76.280159
32
-70.596687
13
-47.021744
23
-105.064049
33
-47.067150
0
3DFACE
8
0
70
0
10
-38.386784
20
-105.476616
30
-47.024250
11
-47.021744
21
-105.064049
31
-47.067150
12
-47.021744
22
-76.280159
32
-70.596687
13
-38.386784
23
-76.652153
33
-70.253456
0
3DFACE
8
0
70
0
10
-41.550495
20
-105.499268
30
-46.919449
11
-38.386784
21
-105.476616
31
-47.024250
12
-38.386784
22
-76.652153
32
-70.253456
13
-41.550495
23
-76.672569
33
-69.415085
0
3DFACE
8
0
70
0
10
-68.609138
20
-105.911812
30
-17.206305
11
-68.609138
21
-76.332626
31
-37.550392
12
-56.492882
22
-76.280159
32
-69.442184
13
-56.492882
23
-105.064049
33
-46.922836
0
3DFACE
8
0
70
0
10
-47.021744
20
-106.300720
30
-17.206305
11
-41.550495
21
-105.499268
31
-46.919449
12
-41.550495
22
-76.672569
32
-69.415085
13
-47.021744
23
-76.721535
33
-37.550392
0
3DFACE
8
0
70
0
10
-47.021744
20
-106.300720
30
-17.206305
11
-47.021744
21
-76.721535
31
-37.550392
12
-68.609138
22
-76.332626
32
-37.550392
13
-68.609138
23
-105.911812
33
-17.206305
0
3DFACE
8
0
70
0
10
-61.942909
20
-149.254379
30
-42.827278
11
-56.492882
21
-105.064049
31
-46.922836
12
-47.021744
22
-105.064049
32
-47.067150
13
-46.031391
23
-149.254379
33
-43.530205
0
3DFACE
8
0
70
0
10
-31.524654
20
-149.742218
30
-43.321224
11
-46.031391
21
-149.254379
31
-43.530205
12
-47.021744
22
-105.064049
32
-47.067150
13
-38.386784
23
-105.476616
33
-47.024250
0
3DFACE
8
0
70
0
10
-36.839699
20
-149.769028
30
-42.810780
11
-31.524654
21
-149.742218
31
-43.321224
12
-38.386784
22
-105.476616
32
-47.024250
13
-41.550495
23
-105.499268
33
-46.919449
0
3DFACE
8
0
70
0
10
-82.298225
20
-150.811523
30
24.820112
11
-68.609138
21
-105.911812
31
-17.206305
12
-56.492882
22
-105.064049
32
-46.922836
13
-61.942909
23
-149.254379
33
-42.827278
0
3DFACE
8
0
70
0
10
-46.031391
20
-151.173492
30
24.820112
11
-36.839699
21
-149.769028
31
-42.810780
12
-41.550495
22
-105.499268
32
-46.919449
13
-47.021744
23
-106.300720
33
-17.206305
0
3DFACE
8
0
70
0
10
-46.031391
20
-151.173492
30
24.820112
11
-47.021744
21
-106.300720
31
-17.206305
12
-68.609138
22
-105.911812
32
-17.206305
13
-82.298225
23
-150.811523
33
24.820112
0
3DFACE
8
0
70
0
10
-43.835682
20
-54.918663
30
111.012619
11
-54.873554
21
-54.918663
31
110.598495
12
-54.873554
22
69.729599
32
92.513428
13
-23.716932
23
18.261091
33
93.433708
0
3DFACE
8
0
70
0
10
-43.835682
20
-54.918663
30
111.012619
11
-23.716932
21
18.261091
31
93.433708
12
-24.441669
22
13.734536
32
127.166603
13
-41.558807
23
-54.918663
33
123.879623
0
3DFACE
8
0
70
0
10
-41.558807
20
-54.918663
30
123.879623
11
-24.441669
21
13.734536
31
127.166603
12
-54.431267
22
69.775673
32
140.454803
13
-47.746723
23
-54.918663
33
129.124969
0
3DFACE
8
0
70
0
10
-47.746723
20
-54.918663
30
129.124969
11
-54.431267
21
69.775673
31
140.454803
12
-54.873554
22
69.729599
32
92.513428
13
-54.873554
23
-54.918663
33
110.598495
0
3DFACE
8
0
70
0
10
-38.143379
20
-92.799446
30
94.879051
11
-55.583218
21
-92.799446
31
94.224731
12
-54.873554
22
-54.918663
32
110.598495
13
-43.835682
23
-54.918663
33
111.012619
0
3DFACE
8
0
70
0
10
-34.545921
20
-92.799446
30
115.208893
11
-38.143379
21
-92.799446
31
94.879051
12
-43.835682
22
-54.918663
32
111.012619
13
-41.558807
23
-54.918663
33
123.879623
0
3DFACE
8
0
70
0
10
-44.322830
20
-92.799446
30
123.496536
11
-34.545921
21
-92.799446
31
115.208893
12
-41.558807
22
-54.918663
32
123.879623
13
-47.746723
23
-54.918663
33
129.124969
0
3DFACE
8
0
70
0
10
-44.322830
20
-92.799446
30
123.496536
11
-47.746723
21
-54.918663
31
129.124969
12
-54.873554
22
-54.918663
32
110.598495
13
-55.583218
23
-92.799446
33
94.224731
0
3DFACE
8
0
70
0
10
-34.902290
20
-150.571320
30
94.722748
11
-63.852413
21
-150.571320
31
93.551514
12
-55.583218
22
-92.799446
32
94.224731
13
-38.143379
23
-92.799446
33
94.879051
0
3DFACE
8
0
70
0
10
-28.930508
20
-150.571320
30
131.113159
11
-34.902290
21
-150.571320
31
94.722748
12
-38.143379
22
-92.799446
32
94.879051
13
-34.545921
23
-92.799446
33
115.208893
0
3DFACE
8
0
70
0
10
-45.160172
20
-150.571320
30
145.948044
11
-28.930508
21
-150.571320
31
131.113159
12
-34.545921
22
-92.799446
32
115.208893
13
-44.322830
23
-92.799446
33
123.496536
0
3DFACE
8
0
70
0
10
-45.160172
20
-150.571320
30
145.948044
11
-44.322830
21
-92.799446
31
123.496536
12
-55.583218
22
-92.799446
32
94.224731
13
-63.852413
23
-150.571320
33
93.551514
0
3DFACE
8
0
70
0
10
-6.293414
20
181.848297
30
229.926773
11
-44.347733
21
199.842636
31
227.976822
12
-34.925892
22
214.434128
32
210.341644
13
-5.457161
23
176.963287
33
214.238998
0
3DFACE
8
0
70
0
10
-17.729822
20
196.308670
30
321.025909
11
-10.280185
21
199.577835
31
321.417816
12
-16.788256
22
232.947296
32
282.953979
13
-38.036602
23
221.582809
33
281.809753
0
3DFACE
8
0
70
0
10
-17.157127
20
185.808914
30
320.061859
11
-17.729822
21
196.308670
31
321.025909
12
-38.036602
22
221.582809
32
281.809753
13
-34.913177
23
186.739548
33
281.915222
0
3DFACE
8
0
70
0
10
-7.600498
20
184.142075
30
320.132324
11
-17.157127
21
185.808914
31
320.061859
12
-34.913177
22
186.739548
32
281.915222
13
-6.595999
23
180.307144
33
281.308044
0
3DFACE
8
0
70
0
10
-75.110382
20
269.513702
30
219.665863
11
-69.245308
21
261.544373
31
213.520477
12
-68.016312
22
256.137146
32
212.786346
13
-71.234467
23
253.993164
33
217.499268
0
3DFACE
8
0
70
0
10
-47.718559
20
226.252655
30
230.931458
11
-37.085739
21
232.412003
31
212.355057
12
-34.925892
22
214.434128
32
210.341644
13
-44.347733
23
199.842636
33
227.976822
0
3DFACE
8
0
70
0
10
-69.245308
20
261.544373
30
213.520477
11
-75.110382
21
269.513702
31
219.665863
12
-53.613811
22
259.006134
32
235.078583
13
-38.789238
23
244.098114
33
213.749268
0
3DFACE
8
0
70
0
10
-68.016312
20
256.137146
30
212.786346
11
-69.245308
21
261.544373
31
213.520477
12
-38.789238
22
244.098114
32
213.749268
13
-37.085739
23
232.412003
33
212.355057
0
3DFACE
8
0
70
0
10
-71.234467
20
253.993164
30
217.499268
11
-68.016312
21
256.137146
31
212.786346
12
-37.085739
22
232.412003
32
212.355057
13
-47.718559
23
226.252655
33
230.931458
0
3DFACE
8
0
70
0
10
-71.234467
20
253.993164
30
217.499268
11
-47.718559
21
226.252655
31
230.931458
12
-53.613811
22
259.006134
32
235.078583
13
-75.110382
23
269.513702
33
219.665863
0
3DFACE
8
0
70
0
10
-40.355991
20
256.766052
30
225.008514
11
-53.613811
21
259.006134
31
235.078583
12
-28.187132
22
277.664185
32
237.223816
13
-30.677378
23
263.531097
33
225.758789
0
3DFACE
8
0
70
0
10
-28.548939
20
253.770477
30
214.248260
11
-30.677378
21
263.531097
31
225.758789
12
-28.187132
22
277.664185
32
237.223816
13
-19.988390
23
251.273315
33
206.728302
0
3DFACE
8
0
70
0
10
-35.045570
20
251.156754
30
216.917252
11
-28.548939
21
253.770477
31
214.248260
12
-19.988390
22
251.273315
32
206.728302
13
-38.789238
23
244.098114
33
213.749268
0
3DFACE
8
0
70
0
10
-35.045570
20
251.156754
30
216.917252
11
-38.789238
21
244.098114
31
213.749268
12
-53.613811
22
259.006134
32
235.078583
13
-40.355991
23
256.766052
33
225.008514
0
3DFACE
8
0
70
0
10
-93.547882
20
320.287750
30
189.708481
11
-89.553024
21
318.701874
31
189.850067
12
-92.831070
22
315.183258
32
187.966675
13
-94.767838
23
316.788086
33
188.360245
0
3DFACE
8
0
70
0
10
-30.677378
20
263.531097
30
225.758789
11
-28.548939
21
253.770477
31
214.248260
12
-78.190430
22
270.333923
32
205.623947
13
-79.412659
23
279.062592
33
212.775848
0
3DFACE
8
0
70
0
10
-83.268082
20
270.251465
30
206.899887
11
-92.994713
21
277.079163
31
202.718567
12
-87.380753
22
275.539001
32
202.344513
13
-78.190430
23
270.333923
33
205.623947
0
3DFACE
8
0
70
0
10
-79.412659
20
279.062592
30
212.775848
11
-78.190430
21
270.333923
31
205.623947
12
-87.380753
22
275.539001
32
202.344513
13
-87.691284
23
283.813507
33
208.287964
0
3DFACE
8
0
70
0
10
-116.689789
20
275.367493
30
180.400040
11
-117.209351
21
279.759674
31
180.636627
12
-117.054527
22
278.701172
32
178.253876
13
-116.146111
23
274.519409
33
177.755066
0
3DFACE
8
0
70
0
10
-40.355991
20
256.766052
30
225.008514
11
-86.518074
21
275.656281
31
212.058197
12
-83.268082
22
270.251465
32
206.899887
13
-35.045570
23
251.156754
33
216.917252
0
3DFACE
8
0
70
0
10
-86.518074
20
275.656281
30
212.058197
11
-79.412659
21
279.062592
31
212.775848
12
-87.691284
22
283.813507
32
208.287964
13
-95.705093
23
282.844116
33
206.594650
0
3DFACE
8
0
70
0
10
-35.045570
20
251.156754
30
216.917252
11
-83.268082
21
270.251465
31
206.899887
12
-78.190430
22
270.333923
32
205.623947
13
-28.548939
23
253.770477
33
214.248260
0
3DFACE
8
0
70
0
10
-92.871582
20
302.632202
30
198.265289
11
-88.539406
21
303.540680
31
197.344849
12
-89.904816
22
306.338806
32
195.486298
13
-94.704895
23
309.433899
33
194.845200
0
3DFACE
8
0
70
0
10
-95.705093
20
282.844116
30
206.594650
11
-87.691284
21
283.813507
31
208.287964
12
-88.539406
22
303.540680
32
197.344849
13
-92.871582
23
302.632202
33
198.265289
0
3DFACE
8
0
70
0
10
-93.449738
20
299.419769
30
195.023590
11
-96.060310
21
305.776154
31
192.458939
12
-93.793030
22
302.853699
32
192.065063
13
-91.568993
23
298.978973
33
193.728073
0
3DFACE
8
0
70
0
10
-92.994713
20
277.079163
30
202.718567
11
-93.449738
21
299.419769
31
195.023590
12
-91.568993
22
298.978973
32
193.728073
13
-87.380753
23
275.539001
33
202.344513
0
3DFACE
8
0
70
0
10
-76.251404
20
311.008392
30
186.115128
11
-78.413300
21
312.267792
31
185.808624
12
-77.187569
22
314.706177
32
187.783890
13
-75.682289
23
313.675385
33
188.364059
0
3DFACE
8
0
70
0
10
-87.380753
20
275.539001
30
202.344513
11
-91.568993
21
298.978973
31
193.728073
12
-88.539406
22
303.540680
32
197.344849
13
-87.691284
23
283.813507
33
208.287964
0
3DFACE
8
0
70
0
10
-92.871582
20
302.632202
30
198.265289
11
-94.704895
21
309.433899
31
194.845200
12
-96.060310
22
305.776154
32
192.458939
13
-93.449738
23
299.419769
33
195.023590
0
3DFACE
8
0
70
0
10
-92.994713
20
277.079163
30
202.718567
11
-95.705093
21
282.844116
31
206.594650
12
-92.871582
22
302.632202
32
198.265289
13
-93.449738
23
299.419769
33
195.023590
0
3DFACE
8
0
70
0
10
-94.214981
20
313.783020
30
192.772552
11
-89.637299
21
314.689178
31
191.664261
12
-89.553024
22
318.701874
32
189.850067
13
-93.547882
23
320.287750
33
189.708481
0
3DFACE
8
0
70
0
10
-89.904816
20
306.338806
30
195.486298
11
-93.793030
21
302.853699
31
192.065063
12
-93.121803
22
311.058075
32
189.323624
13
-89.637299
23
314.689178
33
191.664261
0
3DFACE
8
0
70
0
10
-93.793030
20
302.853699
30
192.065063
11
-96.060310
21
305.776154
31
192.458939
12
-95.402122
22
311.141327
32
190.448044
13
-93.121803
23
311.058075
33
189.323624
0
3DFACE
8
0
70
0
10
-102.067680
20
305.345123
30
178.134399
11
-101.738075
21
306.505951
31
180.819748
12
-100.710869
22
309.480286
32
181.163574
13
-100.926422
23
308.857391
33
178.861694
0
3DFACE
8
0
70
0
10
-89.904816
20
306.338806
30
195.486298
11
-89.637299
21
314.689178
31
191.664261
12
-94.214981
22
313.783020
32
192.772552
13
-94.704895
23
309.433899
33
194.845200
0
3DFACE
8
0
70
0
10
-89.637299
20
314.689178
30
191.664261
11
-93.121803
21
311.058075
31
189.323624
12
-92.831070
22
315.183258
32
187.966675
13
-89.553024
23
318.701874
33
189.850067
0
3DFACE
8
0
70
0
10
-95.402122
20
311.141327
30
190.448044
11
-94.767838
21
316.788086
31
188.360245
12
-92.831070
22
315.183258
32
187.966675
13
-93.121803
23
311.058075
33
189.323624
0
3DFACE
8
0
70
0
10
-94.214981
20
313.783020
30
192.772552
11
-93.547882
21
320.287750
31
189.708481
12
-94.767838
22
316.788086
32
188.360245
13
-95.402122
23
311.141327
33
190.448044
0
3DFACE
8
0
70
0
10
-86.518074
20
275.656281
30
212.058197
11
-95.705093
21
282.844116
31
206.594650
12
-97.676216
22
279.278320
32
204.792648
13
-89.439308
23
272.833191
33
209.726639
0
3DFACE
8
0
70
0
10
-95.705093
20
282.844116
30
206.594650
11
-92.994713
21
277.079163
31
202.718567
12
-95.264832
22
274.101440
32
201.319717
13
-97.676216
23
279.278320
33
204.792648
0
3DFACE
8
0
70
0
10
-92.994713
20
277.079163
30
202.718567
11
-83.268082
21
270.251465
31
206.899887
12
-86.536354
22
267.989807
32
205.097794
13
-95.264832
23
274.101440
33
201.319717
0
3DFACE
8
0
70
0
10
-83.268082
20
270.251465
30
206.899887
11
-86.518074
21
275.656281
31
212.058197
12
-89.439308
22
272.833191
32
209.726639
13
-86.536354
23
267.989807
33
205.097794
0
3DFACE
8
0
70
0
10
-89.439308
20
272.833191
30
209.726639
11
-97.676216
21
279.278320
31
204.792648
12
-99.037796
22
276.025909
32
203.634476
13
-93.728035
23
267.653412
33
206.748901
0
3DFACE
8
0
70
0
10
-97.676216
20
279.278320
30
204.792648
11
-95.264832
21
274.101440
31
201.319717
12
-97.769455
22
271.807800
32
199.504257
13
-99.037796
23
276.025909
33
203.634476
0
3DFACE
8
0
70
0
10
-95.264832
20
274.101440
30
201.319717
11
-86.536354
21
267.989807
31
205.097794
12
-91.859955
22
263.864746
32
201.724457
13
-97.769455
23
271.807800
33
199.504257
0
3DFACE
8
0
70
0
10
-86.536354
20
267.989807
30
205.097794
11
-89.439308
21
272.833191
31
209.726639
12
-93.728035
22
267.653412
32
206.748901
13
-91.859955
23
263.864746
33
201.724457
0
3DFACE
8
0
70
0
10
-93.728035
20
267.653412
30
206.748901
11
-99.037796
21
276.025909
31
203.634476
12
-100.245094
22
275.453369
32
201.966888
13
-98.522499
23
266.223206
33
202.199524
0
3DFACE
8
0
70
0
10
-99.037796
20
276.025909
30
203.634476
11
-97.769455
21
271.807800
31
199.504257
12
-99.835678
22
272.810608
32
197.180939
13
-100.245094
23
275.453369
33
201.966888
0
3DFACE
8
0
70
0
10
-97.769455
20
271.807800
30
199.504257
11
-91.859955
21
263.864746
31
201.724457
12
-97.357224
22
264.000702
32
196.816299
13
-99.835678
23
272.810608
33
197.180939
0
3DFACE
8
0
70
0
10
-91.859955
20
263.864746
30
201.724457
11
-93.728035
21
267.653412
31
206.748901
12
-98.522499
22
266.223206
32
202.199524
13
-97.357224
23
264.000702
33
196.816299
0
3DFACE
8
0
70
0
10
-98.522499
20
266.223206
30
202.199524
11
-100.245094
21
275.453369
31
201.966888
12
-102.515327
22
275.614960
32
199.071228
13
-101.318306
23
267.259521
33
198.935654
0
3DFACE
8
0
70
0
10
-100.245094
20
275.453369
30
201.966888
11
-99.835678
21
272.810608
31
197.180939
12
-102.197296
22
273.414703
32
194.664902
13
-102.515327
23
275.614960
33
199.071228
0
3DFACE
8
0
70
0
10
-99.835678
20
272.810608
30
197.180939
11
-97.357224
21
264.000702
31
196.816299
12
-100.293648
22
265.435730
32
194.015625
13
-102.197296
23
273.414703
33
194.664902
0
3DFACE
8
0
70
0
10
-97.357224
20
264.000702
30
196.816299
11
-98.522499
21
266.223206
31
202.199524
12
-101.318306
22
267.259521
32
198.935654
13
-100.293648
23
265.435730
33
194.015625
0
3DFACE
8
0
70
0
10
-101.318306
20
267.259521
30
198.935654
11
-102.515327
21
275.614960
31
199.071228
12
-105.010841
22
275.348938
32
196.119583
13
-103.932739
23
267.852020
33
195.999405
0
3DFACE
8
0
70
0
10
-102.515327
20
275.614960
30
199.071228
11
-102.197296
21
273.414703
31
194.664902
12
-104.726341
22
273.377686
32
192.155136
13
-105.010841
23
275.348938
33
196.119583
0
3DFACE
8
0
70
0
10
-102.197296
20
273.414703
30
194.664902
11
-100.293648
21
265.435730
31
194.015625
12
-103.010201
22
266.223236
32
191.572174
13
-104.726341
23
273.377686
33
192.155136
0
3DFACE
8
0
70
0
10
-100.293648
20
265.435730
30
194.015625
11
-101.318306
21
267.259521
31
198.935654
12
-103.932739
22
267.852020
32
195.999405
13
-103.010201
23
266.223236
33
191.572174
0
3DFACE
8
0
70
0
10
-103.932739
20
267.852020
30
195.999405
11
-105.010841
21
275.348938
31
196.119583
12
-107.186913
22
275.536438
32
193.412094
13
-106.835777
23
268.764557
33
192.681580
0
3DFACE
8
0
70
0
10
-105.010841
20
275.348938
30
196.119583
11
-104.726341
21
273.377686
31
192.155136
12
-106.995979
22
274.080383
32
189.688995
13
-107.186913
23
275.536438
33
193.412094
0
3DFACE
8
0
70
0
10
-104.726341
20
273.377686
30
192.155136
11
-103.010201
21
266.223236
31
191.572174
12
-106.029755
22
267.601746
32
188.583817
13
-106.995979
23
274.080383
33
189.688995
0
3DFACE
8
0
70
0
10
-103.010201
20
266.223236
30
191.572174
11
-103.932739
21
267.852020
31
195.999405
12
-106.835777
22
268.764557
32
192.681580
13
-106.029755
23
267.601746
33
188.583817
0
3DFACE
8
0
70
0
10
-106.835777
20
268.764557
30
192.681580
11
-107.186913
21
275.536438
31
193.412094
12
-109.074890
22
276.128326
32
190.925980
13
-109.281494
23
270.107208
33
189.706589
0
3DFACE
8
0
70
0
10
-107.186913
20
275.536438
30
193.412094
11
-106.995979
21
274.080383
31
189.688995
12
-108.930832
22
275.112610
32
187.463394
13
-109.074890
23
276.128326
33
190.925980
0
3DFACE
8
0
70
0
10
-106.995979
20
274.080383
30
189.688995
11
-106.029755
21
267.601746
31
188.583817
12
-108.551399
22
269.335510
32
185.942688
13
-108.930832
23
275.112610
33
187.463394
0
3DFACE
8
0
70
0
10
-106.029755
20
267.601746
30
188.583817
11
-106.835777
21
268.764557
31
192.681580
12
-109.281494
22
270.107208
32
189.706589
13
-108.551399
23
269.335510
33
185.942688
0
3DFACE
8
0
70
0
10
-109.281494
20
270.107208
30
189.706589
11
-109.074890
21
276.128326
31
190.925980
12
-111.433121
22
277.634491
32
187.740906
13
-111.696693
23
272.246094
33
186.536102
0
3DFACE
8
0
70
0
10
-109.074890
20
276.128326
30
190.925980
11
-108.930832
21
275.112610
31
187.463394
12
-111.303818
22
276.780823
32
184.606857
13
-111.433121
23
277.634491
33
187.740906
0
3DFACE
8
0
70
0
10
-108.930832
20
275.112610
30
187.463394
11
-108.551399
21
269.335510
31
185.942688
12
-111.034706
22
271.610748
32
183.137543
13
-111.303818
23
276.780823
33
184.606857
0
3DFACE
8
0
70
0
10
-108.551399
20
269.335510
30
185.942688
11
-109.281494
21
270.107208
31
189.706589
12
-111.696693
22
272.246094
32
186.536102
13
-111.034706
23
271.610748
33
183.137543
0
3DFACE
8
0
70
0
10
-111.696693
20
272.246094
30
186.536102
11
-111.433121
21
277.634491
31
187.740906
12
-114.462486
22
279.223328
32
183.883209
13
-114.256027
23
274.320618
33
183.250702
0
3DFACE
8
0
70
0
10
-111.433121
20
277.634491
30
187.740906
11
-111.303818
21
276.780823
31
184.606857
12
-114.324844
22
278.226074
32
181.148743
13
-114.462486
23
279.223328
33
183.883209
0
3DFACE
8
0
70
0
10
-111.303818
20
276.780823
30
184.606857
11
-111.034706
21
271.610748
31
183.137543
12
-113.664284
22
273.542755
32
180.249573
13
-114.324844
23
278.226074
33
181.148743
0
3DFACE
8
0
70
0
10
-111.034706
20
271.610748
30
183.137543
11
-111.696693
21
272.246094
31
186.536102
12
-114.256027
22
274.320618
32
183.250702
13
-113.664284
23
273.542755
33
180.249573
0
3DFACE
8
0
70
0
10
-114.256027
20
274.320618
30
183.250702
11
-114.462486
21
279.223328
31
183.883209
12
-117.209351
22
279.759674
32
180.636627
13
-116.689789
23
275.367493
33
180.400040
0
3DFACE
8
0
70
0
10
-114.462486
20
279.223328
30
183.883209
11
-114.324844
21
278.226074
31
181.148743
12
-117.054527
22
278.701172
32
178.253876
13
-117.209351
23
279.759674
33
180.636627
0
3DFACE
8
0
70
0
10
-114.324844
20
278.226074
30
181.148743
11
-113.664284
21
273.542755
31
180.249573
12
-116.146111
22
274.519409
32
177.755066
13
-117.054527
23
278.701172
33
178.253876
0
3DFACE
8
0
70
0
10
-113.664284
20
273.542755
30
180.249573
11
-114.256027
21
274.320618
31
183.250702
12
-116.689789
22
275.367493
32
180.400040
13
-116.146111
23
274.519409
33
177.755066
0
3DFACE
8
0
70
0
10
-91.568993
20
298.978973
30
193.728073
11
-93.793030
21
302.853699
31
192.065063
12
-89.574448
22
303.008759
32
190.890625
13
-87.171410
23
299.696625
33
192.187057
0
3DFACE
8
0
70
0
10
-93.793030
20
302.853699
30
192.065063
11
-89.904816
21
306.338806
31
195.486298
12
-86.316010
22
306.404114
32
193.988098
13
-89.574448
23
303.008759
33
190.890625
0
3DFACE
8
0
70
0
10
-89.904816
20
306.338806
30
195.486298
11
-88.539406
21
303.540680
31
197.344849
12
-84.782074
22
303.967529
32
195.524689
13
-86.316010
23
306.404114
33
193.988098
0
3DFACE
8
0
70
0
10
-88.539406
20
303.540680
30
197.344849
11
-91.568993
21
298.978973
31
193.728073
12
-87.171410
22
299.696625
32
192.187057
13
-84.782074
23
303.967529
33
195.524689
0
3DFACE
8
0
70
0
10
-87.171410
20
299.696625
30
192.187057
11
-89.574448
21
303.008759
31
190.890625
12
-87.022392
22
303.749237
32
190.111115
13
-84.629738
23
300.901154
33
191.155304
0
3DFACE
8
0
70
0
10
-89.574448
20
303.008759
30
190.890625
11
-86.316010
21
306.404114
31
193.988098
12
-84.250206
22
306.949188
32
192.919891
13
-87.022392
23
303.749237
33
190.111115
0
3DFACE
8
0
70
0
10
-86.316010
20
306.404114
30
193.988098
11
-84.782074
21
303.967529
31
195.524689
12
-82.692337
22
304.825745
32
194.218231
13
-84.250206
23
306.949188
33
192.919891
0
3DFACE
8
0
70
0
10
-84.782074
20
303.967529
30
195.524689
11
-87.171410
21
299.696625
31
192.187057
12
-84.629738
22
300.901154
32
191.155304
13
-82.692337
23
304.825745
33
194.218231
0
3DFACE
8
0
70
0
10
-84.629738
20
300.901154
30
191.155304
11
-87.022392
21
303.749237
31
190.111115
12
-84.124435
22
304.020325
32
189.297913
13
-81.299286
23
302.133850
33
189.812271
0
3DFACE
8
0
70
0
10
-87.022392
20
303.749237
30
190.111115
11
-84.250206
21
306.949188
31
192.919891
12
-82.259651
22
307.273651
32
191.954315
13
-84.124435
23
304.020325
33
189.297913
0
3DFACE
8
0
70
0
10
-84.250206
20
306.949188
30
192.919891
11
-82.692337
21
304.825745
31
194.218231
12
-80.311378
22
305.763794
32
192.819183
13
-82.259651
23
307.273651
33
191.954315
0
3DFACE
8
0
70
0
10
-82.692337
20
304.825745
30
194.218231
11
-84.629738
21
300.901154
31
191.155304
12
-81.299286
22
302.133850
32
189.812271
13
-80.311378
23
305.763794
33
192.819183
0
3DFACE
8
0
70
0
10
-81.299286
20
302.133850
30
189.812271
11
-84.124435
21
304.020325
31
189.297913
12
-81.887573
22
306.610168
32
188.079666
13
-78.886055
23
306.050598
33
188.078323
0
3DFACE
8
0
70
0
10
-84.124435
20
304.020325
30
189.297913
11
-82.259651
21
307.273651
31
191.954315
12
-81.067680
22
309.675446
32
190.744064
13
-81.887573
23
306.610168
33
188.079666
0
3DFACE
8
0
70
0
10
-82.259651
20
307.273651
30
191.954315
11
-80.311378
21
305.763794
31
192.819183
12
-78.877289
22
309.063629
32
191.170624
13
-81.067680
23
309.675446
33
190.744064
0
3DFACE
8
0
70
0
10
-80.311378
20
305.763794
30
192.819183
11
-81.299286
21
302.133850
31
189.812271
12
-78.886055
22
306.050598
32
188.078323
13
-78.877289
23
309.063629
33
191.170624
0
3DFACE
8
0
70
0
10
-78.886055
20
306.050598
30
188.078323
11
-81.887573
21
306.610168
31
188.079666
12
-80.541039
22
309.968079
32
186.955170
13
-77.911797
23
309.129730
33
187.069199
0
3DFACE
8
0
70
0
10
-81.887573
20
306.610168
30
188.079666
11
-81.067680
21
309.675446
31
190.744064
12
-79.584839
22
312.741486
32
189.274261
13
-80.541039
23
309.968079
33
186.955170
0
3DFACE
8
0
70
0
10
-81.067680
20
309.675446
30
190.744064
11
-78.877289
21
309.063629
31
191.170624
12
-77.696571
22
311.963440
32
189.747864
13
-79.584839
23
312.741486
33
189.274261
0
3DFACE
8
0
70
0
10
-78.877289
20
309.063629
30
191.170624
11
-78.886055
21
306.050598
31
188.078323
12
-77.911797
22
309.129730
32
187.069199
13
-77.696571
23
311.963440
33
189.747864
0
3DFACE
8
0
70
0
10
-77.911797
20
309.129730
30
187.069199
11
-80.541039
21
309.968079
31
186.955170
12
-78.413300
22
312.267792
32
185.808624
13
-76.251404
23
311.008392
33
186.115128
0
3DFACE
8
0
70
0
10
-80.541039
20
309.968079
30
186.955170
11
-79.584839
21
312.741486
31
189.274261
12
-77.187569
22
314.706177
32
187.783890
13
-78.413300
23
312.267792
33
185.808624
0
3DFACE
8
0
70
0
10
-79.584839
20
312.741486
30
189.274261
11
-77.696571
21
311.963440
31
189.747864
12
-75.682289
22
313.675385
32
188.364059
13
-77.187569
23
314.706177
33
187.783890
0
3DFACE
8
0
70
0
10
-77.696571
20
311.963440
30
189.747864
11
-77.911797
21
309.129730
31
187.069199
12
-76.251404
22
311.008392
32
186.115128
13
-75.682289
23
313.675385
33
188.364059
0
3DFACE
8
0
70
0
10
-96.060310
20
305.776154
30
192.458939
11
-94.704895
21
309.433899
31
194.845200
12
-97.334091
22
307.391907
32
191.716782
13
-98.488945
23
304.368591
33
189.208893
0
3DFACE
8
0
70
0
10
-94.704895
20
309.433899
30
194.845200
11
-94.214981
21
313.783020
31
192.772552
12
-96.640259
22
311.430542
32
190.238159
13
-97.334091
23
307.391907
33
191.716782
0
3DFACE
8
0
70
0
10
-94.214981
20
313.783020
30
192.772552
11
-95.402122
21
311.141327
31
190.448044
12
-97.625008
22
309.305542
32
187.876816
13
-96.640259
23
311.430542
33
190.238159
0
3DFACE
8
0
70
0
10
-95.402122
20
311.141327
30
190.448044
11
-96.060310
21
305.776154
31
192.458939
12
-98.488945
22
304.368591
32
189.208893
13
-97.625008
23
309.305542
33
187.876816
0
3DFACE
8
0
70
0
10
-98.488945
20
304.368591
30
189.208893
11
-97.334091
21
307.391907
31
191.716782
12
-98.994179
22
306.366730
32
189.171539
13
-99.758263
23
304.297852
33
186.257477
0
3DFACE
8
0
70
0
10
-97.334091
20
307.391907
30
191.716782
11
-96.640259
21
311.430542
31
190.238159
12
-97.951866
22
310.122559
32
188.758499
13
-98.994179
23
306.366730
33
189.171539
0
3DFACE
8
0
70
0
10
-96.640259
20
311.430542
30
190.238159
11
-97.625008
21
309.305542
31
187.876816
12
-98.552437
22
308.801117
32
186.167328
13
-97.951866
23
310.122559
33
188.758499
0
3DFACE
8
0
70
0
10
-97.625008
20
309.305542
30
187.876816
11
-98.488945
21
304.368591
31
189.208893
12
-99.758263
22
304.297852
32
186.257477
13
-98.552437
23
308.801117
33
186.167328
0
3DFACE
8
0
70
0
10
-99.758263
20
304.297852
30
186.257477
11
-98.994179
21
306.366730
31
189.171539
12
-100.612862
22
306.227783
32
184.743607
13
-101.041931
23
304.835510
33
181.811935
0
3DFACE
8
0
70
0
10
-98.994179
20
306.366730
30
189.171539
11
-97.951866
21
310.122559
31
188.758499
12
-99.497772
22
309.556915
32
184.993683
13
-100.612862
23
306.227783
33
184.743607
0
3DFACE
8
0
70
0
10
-97.951866
20
310.122559
30
188.758499
11
-98.552437
21
308.801117
31
186.167328
12
-99.794243
22
308.777008
32
182.465591
13
-99.497772
23
309.556915
33
184.993683
0
3DFACE
8
0
70
0
10
-98.552437
20
308.801117
30
186.167328
11
-99.758263
21
304.297852
31
186.257477
12
-101.041931
22
304.835510
32
181.811935
13
-99.794243
23
308.777008
33
182.465591
0
3DFACE
8
0
70
0
10
-101.041931
20
304.835510
30
181.811935
11
-100.612862
21
306.227783
31
184.743607
12
-101.738075
22
306.505951
32
180.819748
13
-102.067680
23
305.345123
33
178.134399
0
3DFACE
8
0
70
0
10
-100.612862
20
306.227783
30
184.743607
11
-99.497772
21
309.556915
31
184.993683
12
-100.710869
22
309.480286
32
181.163574
13
-101.738075
23
306.505951
33
180.819748
0
3DFACE
8
0
70
0
10
-99.497772
20
309.556915
30
184.993683
11
-99.794243
21
308.777008
31
182.465591
12
-100.926422
22
308.857391
32
178.861694
13
-100.710869
23
309.480286
33
181.163574
0
3DFACE
8
0
70
0
10
-99.794243
20
308.777008
30
182.465591
11
-101.041931
21
304.835510
31
181.811935
12
-102.067680
22
305.345123
32
178.134399
13
-100.926422
23
308.857391
33
178.861694
0
3DFACE
8
0
70
0
10
25.335144
20
131.862045
30
-55.589508
11
52.696842
21
117.579803
31
-41.466255
12
13.660411
22
122.060440
32
-64.703056
13
13.389575
23
131.634735
33
-61.342388
0
3DFACE
8
0
70
0
10
25.335144
20
131.862045
30
-55.589508
11
22.426844
21
140.031494
31
-49.261341
12
46.596607
22
140.228638
32
-33.915192
13
52.696842
23
117.579803
33
-41.466255
0
3DFACE
8
0
70
0
10
22.426844
20
140.031494
30
-49.261341
11
12.322543
21
141.629303
31
-53.132610
12
11.838890
22
148.624191
32
-48.964184
13
46.596607
23
140.228638
33
-33.915192
0
3DFACE
8
0
70
0
10
1.433610
20
140.522476
30
-52.791061
11
-26.350260
21
141.934570
31
-46.180183
12
11.838890
22
148.624191
32
-48.964184
13
12.322543
23
141.629303
33
-53.132610
0
3DFACE
8
0
70
0
10
0.259475
20
132.448471
30
-59.805630
11
-30.993277
21
119.536987
31
-55.537575
12
-26.350260
22
141.934570
32
-46.180183
13
1.433610
23
140.522476
33
-52.791061
0
3DFACE
8
0
70
0
10
0.259475
20
132.448471
30
-59.805630
11
13.389575
21
131.634735
31
-61.342388
12
13.660411
22
122.060440
32
-64.703056
13
-30.993277
23
119.536987
33
-55.537575
0
3DFACE
8
0
70
0
10
15.212351
20
127.612442
30
-72.998955
11
29.346478
21
134.577637
31
-68.044403
12
25.335144
22
131.862045
32
-55.589508
13
13.389575
23
131.634735
33
-61.342388
0
3DFACE
8
0
70
0
10
29.346478
20
134.577637
30
-68.044403
11
25.889891
21
151.158676
31
-58.272907
12
22.426844
22
140.031494
32
-49.261341
13
25.335144
23
131.862045
33
-55.589508
0
3DFACE
8
0
70
0
10
25.889891
20
151.158676
30
-58.272907
11
13.819624
21
158.604202
31
-59.027115
12
12.322543
22
141.629303
32
-53.132610
13
22.426844
23
140.031494
33
-49.261341
0
3DFACE
8
0
70
0
10
1.741432
20
151.723404
30
-62.333138
11
1.433610
21
140.522476
31
-52.791061
12
12.322543
22
141.629303
32
-53.132610
13
13.819624
23
158.604202
33
-59.027115
0
3DFACE
8
0
70
0
10
0.671414
20
135.248215
30
-72.865707
11
0.259475
21
132.448471
31
-59.805630
12
1.433610
22
140.522476
32
-52.791061
13
1.741432
23
151.723404
33
-62.333138
0
3DFACE
8
0
70
0
10
15.212351
20
127.612442
30
-72.998955
11
13.389575
21
131.634735
31
-61.342388
12
0.259475
22
132.448471
32
-59.805630
13
0.671414
23
135.248215
33
-72.865707
0
3DFACE
8
0
70
0
10
17.278429
20
149.073868
30
-81.490349
11
20.460602
21
150.254837
31
-80.709824
12
29.346478
22
134.577637
32
-68.044403
13
15.212351
23
127.612442
33
-72.998955
0
3DFACE
8
0
70
0
10
20.460602
20
150.254837
30
-80.709824
11
20.003740
21
159.463058
31
-79.091949
12
25.889891
22
151.158676
32
-58.272907
13
29.346478
23
134.577637
33
-68.044403
0
3DFACE
8
0
70
0
10
20.003740
20
159.463058
30
-79.091949
11
17.273256
21
160.392487
31
-79.405731
12
13.819624
22
158.604202
32
-59.027115
13
25.889891
23
151.158676
33
-58.272907
0
3DFACE
8
0
70
0
10
14.538967
20
159.590851
30
-80.010780
11
1.741432
21
151.723404
31
-62.333138
12
13.819624
22
158.604202
32
-59.027115
13
17.273256
23
160.392487
33
-79.405731
0
3DFACE
8
0
70
0
10
14.090508
20
150.403778
30
-81.780861
11
0.671414
21
135.248215
31
-72.865707
12
1.741432
22
151.723404
32
-62.333138
13
14.538967
23
159.590851
33
-80.010780
0
3DFACE
8
0
70
0
10
17.278429
20
149.073868
30
-81.490349
11
15.212351
21
127.612442
31
-72.998955
12
0.671414
22
135.248215
32
-72.865707
13
14.090508
23
150.403778
33
-81.780861
0
3DFACE
8
0
70
0
10
-24.450136
20
263.702759
30
258.491364
11
-16.788256
21
232.947296
31
282.953979
12
6.919209
22
233.915894
32
282.538727
13
2.066512
23
265.002136
33
258.136566
0
3DFACE
8
0
70
0
10
-7.490493
20
188.378006
30
249.510956
11
19.525404
21
210.740982
31
251.465775
12
17.977356
22
197.410904
32
282.376038
13
-6.595999
23
180.307144
33
281.308044
0
3DFACE
8
0
70
0
10
-24.450136
20
263.702759
30
258.491364
11
-47.103596
21
248.924881
31
256.996765
12
-38.036602
22
221.582809
32
281.809753
13
-16.788256
23
232.947296
33
282.953979
0
3DFACE
8
0
70
0
10
-7.490493
20
188.378006
30
249.510956
11
-6.595999
21
180.307144
31
281.308044
12
-34.913177
22
186.739548
32
281.915222
13
-39.987587
23
197.737259
33
250.856842
0
3DFACE
8
0
70
0
10
2.750028
20
278.405701
30
236.529709
11
-28.187132
21
277.664185
31
237.223816
12
-24.450136
22
263.702759
32
258.491364
13
2.066512
23
265.002136
33
258.136566
0
3DFACE
8
0
70
0
10
2.750028
20
278.405701
30
236.529709
11
2.066512
21
265.002136
31
258.136566
12
19.525404
22
210.740982
32
251.465775
13
23.370422
23
214.659012
33
228.671555
0
3DFACE
8
0
70
0
10
23.370422
20
214.659012
30
228.671555
11
19.525404
21
210.740982
31
251.465775
12
-7.490493
22
188.378006
32
249.510956
13
-6.293414
23
181.848297
33
229.926773
0
3DFACE
8
0
70
0
10
-53.613811
20
259.006134
30
235.078583
11
-47.103596
21
248.924881
31
256.996765
12
-24.450136
22
263.702759
32
258.491364
13
-28.187132
23
277.664185
33
237.223816
0
3DFACE
8
0
70
0
10
-53.613811
20
259.006134
30
235.078583
11
-44.347733
21
199.842636
31
227.976822
12
-39.987587
22
197.737259
32
250.856842
13
-47.103596
23
248.924881
33
256.996765
0
3DFACE
8
0
70
0
10
-44.347733
20
199.842636
30
227.976822
11
-6.293414
21
181.848297
31
229.926773
12
-7.490493
22
188.378006
32
249.510956
13
-39.987587
23
197.737259
33
250.856842
0
3DFACE
8
0
70
0
10
-10.484851
20
255.067368
30
275.487030
11
-8.394674
21
259.670258
31
274.547089
12
-11.848375
22
260.061707
32
274.665588
13
-11.848375
23
260.061707
33
274.665588
0
3DFACE
8
0
70
0
10
-10.484851
20
255.067368
30
275.487030
11
-6.179526
21
256.682434
31
274.117249
12
-8.394674
22
259.670258
32
274.547089
13
-8.394674
23
259.670258
33
274.547089
0
3DFACE
8
0
70
0
10
-6.523183
20
252.869186
30
273.635620
11
-6.179526
21
256.682434
31
274.117249
12
-10.484851
22
255.067368
32
275.487030
13
-10.484851
23
255.067368
33
275.487030
0
3DFACE
8
0
70
0
10
-9.220767
20
250.498138
30
273.384827
11
-6.523183
21
252.869186
31
273.635620
12
-10.484851
22
255.067368
32
275.487030
13
-10.484851
23
255.067368
33
275.487030
0
3DFACE
8
0
70
0
10
-9.220767
20
250.498138
30
273.384827
11
-10.484851
21
255.067368
31
275.487030
12
-12.669731
22
250.936981
32
273.504150
13
-12.669731
23
250.936981
33
273.504150
0
3DFACE
8
0
70
0
10
-12.669731
20
250.936981
30
273.504150
11
-10.484851
21
255.067368
31
275.487030
12
-14.853232
22
253.895065
32
273.923187
13
-14.853232
23
253.895065
33
273.923187
0
3DFACE
8
0
70
0
10
-10.484851
20
255.067368
30
275.487030
11
-14.514312
21
257.660889
31
274.404022
12
-14.853232
22
253.895065
32
273.923187
13
-14.853232
23
253.895065
33
273.923187
0
3DFACE
8
0
70
0
10
-10.484851
20
255.067368
30
275.487030
11
-11.848375
21
260.061707
31
274.665588
12
-14.514312
22
257.660889
32
274.404022
13
-14.514312
23
257.660889
33
274.404022
0
3DFACE
8
0
70
0
10
-8.394674
20
259.670258
30
274.547089
11
-7.187609
21
262.982544
31
271.039825
12
-12.780355
22
263.596313
32
271.231842
13
-11.848375
23
260.061707
33
274.665588
0
3DFACE
8
0
70
0
10
-6.179526
20
256.682434
30
274.117249
11
-3.581748
21
258.123260
31
270.337097
12
-7.187609
22
262.982544
32
271.039825
13
-8.394674
23
259.670258
33
274.547089
0
3DFACE
8
0
70
0
10
-4.134820
20
251.919388
30
269.555725
11
-3.581748
21
258.123260
31
270.337097
12
-6.179526
22
256.682434
32
274.117249
13
-6.523183
23
252.869186
33
273.635620
0
3DFACE
8
0
70
0
10
-8.513120
20
248.093872
30
269.154510
11
-4.134820
21
251.919388
31
269.555725
12
-6.523183
22
252.869186
32
273.635620
13
-9.220767
23
250.498138
33
273.384827
0
3DFACE
8
0
70
0
10
-8.513120
20
248.093872
30
269.154510
11
-9.220767
21
250.498138
31
273.384827
12
-12.669731
22
250.936981
32
273.504150
13
-14.093281
23
248.831879
33
269.348633
0
3DFACE
8
0
70
0
10
-14.093281
20
248.831879
30
269.348633
11
-12.669731
21
250.936981
31
273.504150
12
-14.853232
22
253.895065
32
273.923187
13
-17.616102
23
253.613266
33
270.023041
0
3DFACE
8
0
70
0
10
-14.853232
20
253.895065
30
273.923187
11
-14.514312
21
257.660889
31
274.404022
12
-17.075619
22
259.692963
32
270.802338
13
-17.616102
23
253.613266
33
270.023041
0
3DFACE
8
0
70
0
10
-14.514312
20
257.660889
30
274.404022
11
-11.848375
21
260.061707
31
274.665588
12
-12.780355
22
263.596313
32
271.231842
13
-17.075619
23
259.692963
33
270.802338
0
3DFACE
8
0
70
0
10
-7.187609
20
262.982544
30
271.039825
11
-7.296725
21
263.711304
31
266.295441
12
-12.892470
22
264.330231
32
266.488373
13
-12.780355
23
263.596313
33
271.231842
0
3DFACE
8
0
70
0
10
-3.581748
20
258.123260
30
270.337097
11
-3.683777
21
258.839630
31
265.590424
12
-7.296725
22
263.711304
32
266.295441
13
-7.187609
23
262.982544
33
271.039825
0
3DFACE
8
0
70
0
10
-4.134820
20
251.919388
30
269.555725
11
-4.229983
21
252.623154
31
264.806946
12
-3.683777
22
258.839630
32
265.590424
13
-3.581748
23
258.123260
33
270.337097
0
3DFACE
8
0
70
0
10
-8.513120
20
248.093872
30
269.154510
11
-8.605506
21
248.792419
31
264.404877
12
-4.229983
22
252.623154
32
264.806946
13
-4.134820
23
251.919388
33
269.555725
0
3DFACE
8
0
70
0
10
-8.513120
20
248.093872
30
269.154510
11
-14.093281
21
248.831879
31
269.348633
12
-14.188444
22
249.535614
32
264.599823
13
-8.605506
23
248.792419
33
264.404877
0
3DFACE
8
0
70
0
10
-14.093281
20
248.831879
30
269.348633
11
-17.616102
21
253.613266
31
270.023041
12
-17.718132
22
254.329605
32
265.276428
13
-14.188444
23
249.535614
33
264.599823
0
3DFACE
8
0
70
0
10
-17.616102
20
253.613266
30
270.023041
11
-17.075619
21
259.692963
31
270.802338
12
-17.184736
22
260.421753
32
266.057953
13
-17.718132
23
254.329605
33
265.276428
0
3DFACE
8
0
70
0
10
-17.075619
20
259.692963
30
270.802338
11
-12.780355
21
263.596313
31
271.231842
12
-12.892470
22
264.330231
32
266.488373
13
-17.184736
23
260.421753
33
266.057953
0
3DFACE
8
0
70
0
10
-8.673192
20
261.565887
30
262.123718
11
-12.131680
21
261.965637
31
262.243744
12
-12.892470
22
264.330231
32
266.488373
13
-7.296725
23
263.711304
33
266.295441
0
3DFACE
8
0
70
0
10
-3.683777
20
258.839630
30
265.590424
11
-6.446645
21
258.557831
31
261.690338
12
-8.673192
22
261.565887
32
262.123718
13
-7.296725
23
263.711304
33
266.295441
0
3DFACE
8
0
70
0
10
-4.229983
20
252.623154
30
264.806946
11
-6.779126
21
254.724274
31
261.205170
12
-6.446645
22
258.557831
32
261.690338
13
-3.683777
23
258.839630
33
265.590424
0
3DFACE
8
0
70
0
10
-8.605506
20
248.792419
30
264.404877
11
-9.472143
21
252.344803
31
260.952911
12
-6.779126
22
254.724274
32
261.205170
13
-4.229983
23
252.623154
33
264.806946
0
3DFACE
8
0
70
0
10
-8.605506
20
248.792419
30
264.404877
11
-14.188444
21
249.535614
31
264.599823
12
-12.925673
22
252.792053
32
261.073669
13
-9.472143
23
252.344803
33
260.952911
0
3DFACE
8
0
70
0
10
-14.188444
20
249.535614
30
264.599823
11
-17.718132
21
254.329605
31
265.276428
12
-15.120352
22
255.770493
32
261.496246
13
-12.925673
23
252.792053
33
261.073669
0
3DFACE
8
0
70
0
10
-17.718132
20
254.329605
30
265.276428
11
-17.184736
21
260.421753
31
266.057953
12
-14.792830
22
259.556488
32
261.980652
13
-15.120352
23
255.770493
33
261.496246
0
3DFACE
8
0
70
0
10
-14.792830
20
259.556488
30
261.980652
11
-17.184736
21
260.421753
31
266.057953
12
-12.892470
22
264.330231
32
266.488373
13
-12.131680
23
261.965637
33
262.243744
0
3DFACE
8
0
70
0
10
-10.815027
20
257.385498
30
260.126465
11
-12.131680
21
261.965637
31
262.243744
12
-8.673192
22
261.565887
32
262.123718
13
-8.673192
23
261.565887
33
262.123718
0
3DFACE
8
0
70
0
10
-6.446645
20
258.557831
30
261.690338
11
-10.815027
21
257.385498
31
260.126465
12
-8.673192
22
261.565887
32
262.123718
13
-8.673192
23
261.565887
33
262.123718
0
3DFACE
8
0
70
0
10
-6.779126
20
254.724274
30
261.205170
11
-10.815027
21
257.385498
31
260.126465
12
-6.446645
22
258.557831
32
261.690338
13
-6.446645
23
258.557831
33
261.690338
0
3DFACE
8
0
70
0
10
-9.472143
20
252.344803
30
260.952911
11
-10.815027
21
257.385498
31
260.126465
12
-6.779126
22
254.724274
32
261.205170
13
-6.779126
23
254.724274
33
261.205170
0
3DFACE
8
0
70
0
10
-9.472143
20
252.344803
30
260.952911
11
-12.925673
21
252.792053
31
261.073669
12
-10.815027
22
257.385498
32
260.126465
13
-10.815027
23
257.385498
33
260.126465
0
3DFACE
8
0
70
0
10
-12.925673
20
252.792053
30
261.073669
11
-15.120352
21
255.770493
31
261.496246
12
-10.815027
22
257.385498
32
260.126465
13
-10.815027
23
257.385498
33
260.126465
0
3DFACE
8
0
70
0
10
-15.120352
20
255.770493
30
261.496246
11
-14.792830
21
259.556488
31
261.980652
12
-10.815027
22
257.385498
32
260.126465
13
-10.815027
23
257.385498
33
260.126465
0
3DFACE
8
0
70
0
10
-10.815027
20
257.385498
30
260.126465
11
-14.792830
21
259.556488
31
261.980652
12
-12.131680
22
261.965637
32
262.243744
13
-12.131680
23
261.965637
33
262.243744
0
3DFACE
8
0
70
0
10
-10.905895
20
197.503113
30
336.636017
11
-12.237332
21
204.595520
31
335.235443
12
-16.452789
22
201.507889
32
334.954987
13
-16.452789
23
201.507889
33
334.954987
0
3DFACE
8
0
70
0
10
-10.905895
20
197.503113
30
336.636017
11
-16.452789
21
201.507889
31
334.954987
12
-17.459085
22
196.295395
32
334.403137
13
-17.459085
23
196.295395
33
334.403137
0
3DFACE
8
0
70
0
10
-14.678281
20
191.940353
30
333.903656
11
-10.905895
21
197.503113
31
336.636017
12
-17.459085
22
196.295395
32
334.403137
13
-17.459085
23
196.295395
33
334.403137
0
3DFACE
8
0
70
0
10
-9.698175
20
190.938400
30
333.735840
11
-10.905895
21
197.503113
31
336.636017
12
-14.678281
22
191.940353
32
333.903656
13
-14.678281
23
191.940353
33
333.903656
0
3DFACE
8
0
70
0
10
-9.698175
20
190.938400
30
333.735840
11
-5.423333
21
193.948288
31
333.997009
12
-10.905895
22
197.503113
32
336.636017
13
-10.905895
23
197.503113
33
336.636017
0
3DFACE
8
0
70
0
10
-5.423333
20
193.948288
30
333.997009
11
-4.399677
21
199.262268
31
334.547699
12
-10.905895
22
197.503113
32
336.636017
13
-10.905895
23
197.503113
33
336.636017
0
3DFACE
8
0
70
0
10
-10.905895
20
197.503113
30
336.636017
11
-4.399677
21
199.262268
31
334.547699
12
-7.239892
22
203.695129
32
335.066437
13
-7.239892
23
203.695129
33
335.066437
0
3DFACE
8
0
70
0
10
-10.905895
20
197.503113
30
336.636017
11
-7.239892
21
203.695129
31
335.066437
12
-12.237332
22
204.595520
32
335.235443
13
-12.237332
23
204.595520
33
335.235443
0
3DFACE
8
0
70
0
10
-16.452789
20
201.507889
30
334.954987
11
-12.237332
21
204.595520
31
335.235443
12
-13.158305
22
209.550735
32
330.062958
13
-19.945053
23
204.507187
33
329.598114
0
3DFACE
8
0
70
0
10
-17.459085
20
196.295395
30
334.403137
11
-16.452789
21
201.507889
31
334.954987
12
-19.945053
22
204.507187
32
329.598114
13
-21.556147
23
196.100403
33
328.702057
0
3DFACE
8
0
70
0
10
-17.077429
20
189.069580
30
327.900635
11
-14.678281
21
191.940353
31
333.903656
12
-17.459085
22
196.295395
32
334.403137
13
-21.556147
23
196.100403
33
328.702057
0
3DFACE
8
0
70
0
10
-9.025546
20
187.387772
30
327.628937
11
-9.698175
21
190.938400
31
333.735840
12
-14.678281
22
191.940353
32
333.903656
13
-17.077429
23
189.069580
33
327.900635
0
3DFACE
8
0
70
0
10
-9.025546
20
187.387772
30
327.628937
11
-2.082713
21
192.228073
31
328.043091
12
-5.423333
22
193.948288
32
333.997009
13
-9.698175
23
190.938400
33
333.735840
0
3DFACE
8
0
70
0
10
-2.082713
20
192.228073
30
328.043091
11
-0.425579
21
200.900864
31
328.935913
12
-4.399677
22
199.262268
32
334.547699
13
-5.423333
23
193.948288
33
333.997009
0
3DFACE
8
0
70
0
10
-4.399677
20
199.262268
30
334.547699
11
-0.425579
21
200.900864
31
328.935913
12
-5.060421
22
208.135117
32
329.788086
13
-7.239892
23
203.695129
33
335.066437
0
3DFACE
8
0
70
0
10
-7.239892
20
203.695129
30
335.066437
11
-5.060421
21
208.135117
31
329.788086
12
-13.158305
22
209.550735
32
330.062958
13
-12.237332
23
204.595520
33
335.235443
0
3DFACE
8
0
70
0
10
-19.945053
20
204.507187
30
329.598114
11
-13.158305
21
209.550735
31
330.062958
12
-13.250469
22
210.483719
32
323.076385
13
-20.032328
23
205.428329
33
322.610016
0
3DFACE
8
0
70
0
10
-21.556147
20
196.100403
30
328.702057
11
-19.945053
21
204.507187
31
329.598114
12
-20.032328
22
205.428329
32
322.610016
13
-21.632143
23
196.992599
33
321.710388
0
3DFACE
8
0
70
0
10
-17.077429
20
189.069580
30
327.900635
11
-21.556147
21
196.100403
31
328.702057
12
-21.632143
22
196.992599
32
321.710388
13
-17.142900
23
189.932541
33
320.905640
0
3DFACE
8
0
70
0
10
-9.025546
20
187.387772
30
327.628937
11
-17.077429
21
189.069580
31
327.900635
12
-17.142900
22
189.932541
32
320.905640
13
-9.086884
23
188.238571
33
320.632660
0
3DFACE
8
0
70
0
10
-9.025546
20
187.387772
30
327.628937
11
-9.086884
21
188.238571
31
320.632660
12
-2.148186
22
193.091003
32
321.048157
13
-2.082713
23
192.228073
33
328.043091
0
3DFACE
8
0
70
0
10
-2.082713
20
192.228073
30
328.043091
11
-2.148186
21
193.091003
31
321.048157
12
-0.501576
22
201.793091
32
321.944244
13
-0.425579
23
200.900864
33
328.935913
0
3DFACE
8
0
70
0
10
-0.425579
20
200.900864
30
328.935913
11
-0.501576
21
201.793091
31
321.944244
12
-5.147694
22
209.056198
32
322.799927
13
-5.060421
23
208.135117
33
329.788086
0
3DFACE
8
0
70
0
10
-5.060421
20
208.135117
30
329.788086
11
-5.147694
21
209.056198
31
322.799927
12
-13.250469
22
210.483719
32
323.076385
13
-13.158305
23
209.550735
33
330.062958
0
3DFACE
8
0
70
0
10
-16.669767
20
203.890579
30
316.656158
11
-20.032328
21
205.428329
31
322.610016
12
-13.250469
22
210.483719
32
323.076385
13
-12.461992
23
206.997528
33
316.938995
0
3DFACE
8
0
70
0
10
-21.632143
20
196.992599
30
321.710388
11
-20.032328
21
205.428329
31
322.610016
12
-16.669767
22
203.890579
32
316.656158
13
-17.658047
23
198.631241
33
316.098602
0
3DFACE
8
0
70
0
10
-17.142900
20
189.932541
30
320.905640
11
-21.632143
21
196.992599
31
321.710388
12
-17.658047
22
198.631241
32
316.098602
13
-14.859982
23
194.228989
33
315.593719
0
3DFACE
8
0
70
0
10
-9.086884
20
188.238571
30
320.632660
11
-17.142900
21
189.932541
31
320.905640
12
-14.859982
22
194.228989
32
315.593719
13
-9.872947
23
193.207382
33
315.423737
0
3DFACE
8
0
70
0
10
-9.086884
20
188.238571
30
320.632660
11
-9.872947
21
193.207382
31
315.423737
12
-5.605031
22
196.236893
32
315.687073
13
-2.148186
23
193.091003
33
321.048157
0
3DFACE
8
0
70
0
10
-2.148186
20
193.091003
30
321.048157
11
-5.605031
21
196.236893
31
315.687073
12
-4.598639
22
201.598053
32
316.243164
13
-0.501576
23
201.793091
33
321.944244
0
3DFACE
8
0
70
0
10
-0.501576
20
201.793091
30
321.944244
11
-4.598639
21
201.598053
31
316.243164
12
-7.456869
22
206.077835
32
316.767609
13
-5.147694
23
209.056198
33
322.799927
0
3DFACE
8
0
70
0
10
-7.456869
20
206.077835
30
316.767609
11
-12.461992
21
206.997528
31
316.938995
12
-13.250469
22
210.483719
32
323.076385
13
-5.147694
23
209.056198
33
322.799927
0
3DFACE
8
0
70
0
10
-11.151826
20
200.390350
30
314.010284
11
-16.669767
21
203.890579
31
316.656158
12
-12.461992
22
206.997528
32
316.938995
13
-12.461992
23
206.997528
33
316.938995
0
3DFACE
8
0
70
0
10
-17.658047
20
198.631241
30
316.098602
11
-16.669767
21
203.890579
31
316.656158
12
-11.151826
22
200.390350
32
314.010284
13
-11.151826
23
200.390350
33
314.010284
0
3DFACE
8
0
70
0
10
-14.859982
20
194.228989
30
315.593719
11
-17.658047
21
198.631241
31
316.098602
12
-11.151826
22
200.390350
32
314.010284
13
-11.151826
23
200.390350
33
314.010284
0
3DFACE
8
0
70
0
10
-9.872947
20
193.207382
30
315.423737
11
-14.859982
21
194.228989
31
315.593719
12
-11.151826
22
200.390350
32
314.010284
13
-11.151826
23
200.390350
33
314.010284
0
3DFACE
8
0
70
0
10
-9.872947
20
193.207382
30
315.423737
11
-11.151826
21
200.390350
31
314.010284
12
-5.605031
22
196.236893
32
315.687073
13
-5.605031
23
196.236893
33
315.687073
0
3DFACE
8
0
70
0
10
-5.605031
20
196.236893
30
315.687073
11
-11.151826
21
200.390350
31
314.010284
12
-4.598639
22
201.598053
32
316.243164
13
-4.598639
23
201.598053
33
316.243164
0
3DFACE
8
0
70
0
10
-4.598639
20
201.598053
30
316.243164
11
-11.151826
21
200.390350
31
314.010284
12
-7.456869
22
206.077835
32
316.767609
13
-7.456869
23
206.077835
33
316.767609
0
3DFACE
8
0
70
0
10
-11.151826
20
200.390350
30
314.010284
11
-12.461992
21
206.997528
31
316.938995
12
-7.456869
22
206.077835
32
316.767609
13
-7.456869
23
206.077835
33
316.767609
0
3DFACE
8
0
70
0
10
-32.288319
20
248.060715
30
274.999176
11
-33.583263
21
252.861908
31
274.148193
12
-36.269478
22
250.517441
32
273.895325
13
-36.269478
23
250.517441
33
273.895325
0
3DFACE
8
0
70
0
10
-32.288319
20
248.060715
30
274.999176
11
-36.269478
21
250.517441
31
273.895325
12
-36.656700
22
246.888412
32
273.435333
13
-36.656700
23
246.888412
33
273.435333
0
3DFACE
8
0
70
0
10
-34.520565
20
244.067978
30
273.036682
11
-32.288319
21
248.060715
31
274.999176
12
-36.656700
22
246.888412
32
273.435333
13
-36.656700
23
246.888412
33
273.435333
0
3DFACE
8
0
70
0
10
-31.090944
20
243.686417
30
272.925690
11
-32.288319
21
248.060715
31
274.999176
12
-34.520565
22
244.067978
32
273.036682
13
-34.520565
23
244.067978
33
273.036682
0
3DFACE
8
0
70
0
10
-31.090944
20
243.686417
30
272.925690
11
-28.374016
21
246.000198
31
273.168213
12
-32.288319
22
248.060715
32
274.999176
13
-32.288319
23
248.060715
33
274.999176
0
3DFACE
8
0
70
0
10
-28.374016
20
246.000198
30
273.168213
11
-27.982994
21
249.675735
31
273.629395
12
-32.288319
22
248.060715
32
274.999176
13
-32.288319
23
248.060715
33
274.999176
0
3DFACE
8
0
70
0
10
-32.288319
20
248.060715
30
274.999176
11
-27.982994
21
249.675735
31
273.629395
12
-30.149841
22
252.526871
32
274.038422
13
-30.149841
23
252.526871
33
274.038422
0
3DFACE
8
0
70
0
10
-32.288319
20
248.060715
30
274.999176
11
-30.149841
21
252.526871
31
274.038422
12
-33.583263
22
252.861908
32
274.148193
13
-33.583263
23
252.861908
33
274.148193
0
3DFACE
8
0
70
0
10
-36.269478
20
250.517441
30
273.895325
11
-33.583263
21
252.861908
31
274.148193
12
-34.471924
22
256.278137
32
270.695770
13
-38.800468
23
252.465515
33
270.280609
0
3DFACE
8
0
70
0
10
-36.656700
20
246.888412
30
273.435333
11
-36.269478
21
250.517441
31
273.895325
12
-38.800468
22
252.465515
32
270.280609
13
-39.419571
23
246.606598
33
269.535217
0
3DFACE
8
0
70
0
10
-35.972912
20
242.048431
30
268.893585
11
-34.520565
21
244.067978
31
273.036682
12
-36.656700
22
246.888412
32
273.435333
13
-39.419571
23
246.606598
33
269.535217
0
3DFACE
8
0
70
0
10
-30.423582
20
241.403534
30
268.712799
11
-31.090944
21
243.686417
31
272.925690
12
-34.520565
22
244.067978
32
273.036682
13
-35.972912
23
242.048431
33
268.893585
0
3DFACE
8
0
70
0
10
-30.423582
20
241.403534
30
268.712799
11
-26.014452
21
245.135895
31
269.100677
12
-28.374016
22
246.000198
32
273.168213
13
-31.090944
23
243.686417
33
272.925690
0
3DFACE
8
0
70
0
10
-26.014452
20
245.135895
30
269.100677
11
-25.385212
21
251.116608
31
269.849243
12
-27.982994
22
249.675735
32
273.629395
13
-28.374016
23
246.000198
33
273.168213
0
3DFACE
8
0
70
0
10
-27.982994
20
249.675735
30
273.629395
11
-25.385212
21
251.116608
31
269.849243
12
-28.912455
22
255.755066
32
270.518066
13
-30.149841
23
252.526871
33
274.038422
0
3DFACE
8
0
70
0
10
-30.149841
20
252.526871
30
274.038422
11
-28.912455
21
255.755066
31
270.518066
12
-34.471924
22
256.278137
32
270.695770
13
-33.583263
23
252.861908
33
274.148193
0
3DFACE
8
0
70
0
10
-38.800468
20
252.465515
30
270.280609
11
-34.471924
21
256.278137
31
270.695770
12
-34.584042
22
257.011993
32
265.952301
13
-38.909580
23
253.194275
33
265.536224
0
3DFACE
8
0
70
0
10
-39.419571
20
246.606598
30
269.535217
11
-38.800468
21
252.465515
31
270.280609
12
-38.909580
22
253.194275
32
265.536224
13
-39.521595
23
247.322922
33
264.788605
0
3DFACE
8
0
70
0
10
-35.972912
20
242.048431
30
268.893585
11
-39.419571
21
246.606598
31
269.535217
12
-39.521595
22
247.322922
32
264.788605
13
-36.068081
23
242.752167
33
264.144806
0
3DFACE
8
0
70
0
10
-30.423582
20
241.403534
30
268.712799
11
-35.972912
21
242.048431
31
268.893585
12
-36.068081
22
242.752167
32
264.144806
13
-30.515965
23
242.102066
33
263.963135
0
3DFACE
8
0
70
0
10
-30.423582
20
241.403534
30
268.712799
11
-30.515965
21
242.102066
31
263.963135
12
-26.109615
22
245.839630
32
264.351929
13
-26.014452
23
245.135895
33
269.100677
0
3DFACE
8
0
70
0
10
-26.014452
20
245.135895
30
269.100677
11
-26.109615
21
245.839630
31
264.351929
12
-25.487244
22
251.832962
32
265.102570
13
-25.385212
23
251.116608
33
269.849243
0
3DFACE
8
0
70
0
10
-25.385212
20
251.116608
30
269.849243
11
-25.487244
21
251.832962
31
265.102570
12
-29.021572
22
256.483826
32
265.773682
13
-28.912455
23
255.755066
33
270.518066
0
3DFACE
8
0
70
0
10
-28.912455
20
255.755066
30
270.518066
11
-29.021572
21
256.483826
31
265.773682
12
-34.584042
22
257.011993
32
265.952301
13
-34.471924
23
256.278137
33
270.695770
0
3DFACE
8
0
70
0
10
-36.547997
20
252.413055
30
261.471985
11
-38.909580
21
253.194275
31
265.536224
12
-34.584042
22
257.011993
32
265.952301
13
-33.866566
23
254.765854
33
261.726349
0
3DFACE
8
0
70
0
10
-39.521595
20
247.322922
30
264.788605
11
-38.909580
21
253.194275
31
265.536224
12
-36.547997
22
252.413055
32
261.471985
13
-36.923820
23
248.763840
33
261.008392
0
3DFACE
8
0
70
0
10
-36.068081
20
242.752167
30
264.144806
11
-39.521595
21
247.322922
31
264.788605
12
-36.923820
22
248.763840
32
261.008392
13
-34.776508
23
245.923050
33
260.606262
0
3DFACE
8
0
70
0
10
-30.515965
20
242.102066
30
263.963135
11
-36.068081
21
242.752167
31
264.144806
12
-34.776508
22
245.923050
32
260.606262
13
-31.342318
23
245.533081
33
260.493805
0
3DFACE
8
0
70
0
10
-30.515965
20
242.102066
30
263.963135
11
-31.342318
21
245.533081
31
260.493805
12
-28.629957
22
247.855301
32
260.737732
13
-26.109615
23
245.839630
33
264.351929
0
3DFACE
8
0
70
0
10
-26.109615
20
245.839630
30
264.351929
11
-28.629957
21
247.855301
31
260.737732
12
-28.250111
22
251.551147
32
261.202484
13
-25.487244
23
251.832962
33
265.102570
0
3DFACE
8
0
70
0
10
-25.487244
20
251.832962
30
265.102570
11
-28.250111
21
251.551147
31
261.202484
12
-30.428356
22
254.422470
32
261.615082
13
-29.021572
23
256.483826
33
265.773682
0
3DFACE
8
0
70
0
10
-30.428356
20
254.422470
30
261.615082
11
-33.866566
21
254.765854
31
261.726349
12
-34.584042
22
257.011993
32
265.952301
13
-29.021572
23
256.483826
33
265.773682
0
3DFACE
8
0
70
0
10
-32.618492
20
250.378860
30
259.638611
11
-36.547997
21
252.413055
31
261.471985
12
-33.866566
22
254.765854
32
261.726349
13
-33.866566
23
254.765854
33
261.726349
0
3DFACE
8
0
70
0
10
-36.923820
20
248.763840
30
261.008392
11
-36.547997
21
252.413055
31
261.471985
12
-32.618492
22
250.378860
32
259.638611
13
-32.618492
23
250.378860
33
259.638611
0
3DFACE
8
0
70
0
10
-34.776508
20
245.923050
30
260.606262
11
-36.923820
21
248.763840
31
261.008392
12
-32.618492
22
250.378860
32
259.638611
13
-32.618492
23
250.378860
33
259.638611
0
3DFACE
8
0
70
0
10
-31.342318
20
245.533081
30
260.493805
11
-34.776508
21
245.923050
31
260.606262
12
-32.618492
22
250.378860
32
259.638611
13
-32.618492
23
250.378860
33
259.638611
0
3DFACE
8
0
70
0
10
-31.342318
20
245.533081
30
260.493805
11
-32.618492
21
250.378860
31
259.638611
12
-28.629957
22
247.855301
32
260.737732
13
-28.629957
23
247.855301
33
260.737732
0
3DFACE
8
0
70
0
10
-28.629957
20
247.855301
30
260.737732
11
-32.618492
21
250.378860
31
259.638611
12
-28.250111
22
251.551147
32
261.202484
13
-28.250111
23
251.551147
33
261.202484
0
3DFACE
8
0
70
0
10
-28.250111
20
251.551147
30
261.202484
11
-32.618492
21
250.378860
31
259.638611
12
-30.428356
22
254.422470
32
261.615082
13
-30.428356
23
254.422470
33
261.615082
0
3DFACE
8
0
70
0
10
-32.618492
20
250.378860
30
259.638611
11
-33.866566
21
254.765854
31
261.726349
12
-30.428356
22
254.422470
32
261.615082
13
-30.428356
23
254.422470
33
261.615082
0
3DFACE
8
0
70
0
10
17.977356
20
197.410904
30
282.376038
11
19.525404
21
210.740982
31
251.465775
12
2.066512
22
265.002136
32
258.136566
13
6.919209
23
233.915894
33
282.538727
0
3DFACE
8
0
70
0
10
-34.913177
20
186.739548
30
281.915222
11
-38.036602
21
221.582809
31
281.809753
12
-47.103596
22
248.924881
32
256.996765
13
-39.987587
23
197.737259
33
250.856842
0
3DFACE
8
0
70
0
10
47.746723
20
-43.942287
30
-57.197506
11
45.474197
21
16.870634
31
-56.607895
12
51.789886
22
14.698800
32
-52.363129
13
54.533855
23
-43.942287
33
-57.197506
0
3DFACE
8
0
70
0
10
45.474197
20
16.870634
30
-56.607895
11
47.746723
21
-43.942287
31
-57.197506
12
41.558807
22
-44.092930
32
-57.197506
13
38.737919
23
15.058463
33
-53.066090
0
3DFACE
8
0
70
0
10
41.558807
20
-44.092930
30
-57.197506
11
43.825974
21
-44.101212
31
-57.197506
12
40.667374
22
13.482821
32
-49.986572
13
38.737919
23
15.058463
33
-53.066090
0
3DFACE
8
0
70
0
10
51.789886
20
14.698800
30
-52.363129
11
63.216503
21
4.171609
31
3.171161
12
63.216503
22
-46.902275
32
-9.103637
13
54.533855
23
-43.942287
33
-57.197506
0
3DFACE
8
0
70
0
10
43.825974
20
-44.101212
30
-57.197506
11
47.746723
21
-45.944279
31
-9.103637
12
37.534115
22
3.194327
32
7.801642
13
40.667374
23
13.482821
33
-49.986572
0
3DFACE
8
0
70
0
10
60.297997
20
90.162689
30
34.511089
11
27.627975
21
50.858292
31
24.199598
12
37.534115
22
3.194327
32
7.801642
13
63.216503
23
4.171609
33
3.171161
0
3DFACE
8
0
70
0
10
-45.474197
20
16.870634
30
-56.607895
11
-38.737919
21
15.058463
31
-53.066090
12
-41.558807
22
-44.092930
32
-57.197506
13
-47.746723
23
-43.942287
33
-57.197506
0
3DFACE
8
0
70
0
10
-38.737919
20
15.058463
30
-53.066090
11
-28.324472
21
67.429214
31
-47.863556
12
-38.969231
22
44.590073
32
-23.598322
13
-40.667374
23
13.482821
33
-49.986572
0
3DFACE
8
0
70
0
10
-51.789886
20
14.698800
30
-52.363129
11
-54.533855
21
-43.942287
31
-57.197506
12
-63.216503
22
-46.902275
32
-9.103637
13
-63.216503
23
4.171609
33
3.171161
0
3DFACE
8
0
70
0
10
-43.825974
20
-44.101212
30
-57.197506
11
-40.667374
21
13.482821
31
-49.986572
12
-37.534115
22
3.194327
32
7.801642
13
-47.746723
23
-45.944279
33
-9.103637
0
3DFACE
8
0
70
0
10
-63.216503
20
4.171609
30
3.171161
11
-63.216503
21
-46.902275
31
-9.103637
12
-47.746723
22
-45.944279
32
-9.103637
13
-37.534115
23
3.194327
33
7.801642
0
3DFACE
8
0
70
0
10
52.696842
20
117.579803
30
-41.466255
11
76.958717
21
101.922066
31
-10.622547
12
51.789886
22
14.698800
32
-52.363129
13
45.474197
23
16.870634
33
-56.607895
0
3DFACE
8
0
70
0
10
52.696842
20
117.579803
30
-41.466255
11
45.474197
21
16.870634
31
-56.607895
12
38.737919
22
15.058463
32
-53.066090
13
44.622391
23
65.723244
33
-35.598564
0
3DFACE
8
0
70
0
10
44.622391
20
65.723244
30
-35.598564
11
38.737919
21
15.058463
31
-53.066090
12
40.667374
22
13.482821
32
-49.986572
13
38.969231
23
44.590073
33
-23.598322
0
3DFACE
8
0
70
0
10
60.297997
20
90.162689
30
34.511089
11
63.216503
21
4.171609
31
3.171161
12
51.789886
22
14.698800
32
-52.363129
13
76.958717
23
101.922066
33
-10.622547
0
3DFACE
8
0
70
0
10
37.534115
20
3.194327
30
7.801642
11
27.627975
21
50.858292
31
24.199598
12
38.969231
22
44.590073
32
-23.598322
13
40.667374
23
13.482821
33
-49.986572
0
3DFACE
8
0
70
0
10
63.216503
20
4.171609
30
3.171161
11
37.534115
21
3.194327
31
7.801642
12
47.746723
22
-45.944279
32
-9.103637
13
63.216503
23
-46.902275
33
-9.103637
0
3DFACE
8
0
70
0
10
-30.993277
20
119.536987
30
-55.537575
11
-45.474197
21
16.870634
31
-56.607895
12
-51.789886
22
14.698800
32
-52.363129
13
-64.823029
23
105.237801
33
-34.461163
0
3DFACE
8
0
70
0
10
-47.746723
20
-43.942287
30
-57.197506
11
-54.533855
21
-43.942287
31
-57.197506
12
-51.789886
22
14.698800
32
-52.363129
13
-45.474197
23
16.870634
33
-56.607895
0
3DFACE
8
0
70
0
10
-30.993277
20
119.536987
30
-55.537575
11
-28.324472
21
67.429214
31
-47.863556
12
-38.737919
22
15.058463
32
-53.066090
13
-45.474197
23
16.870634
33
-56.607895
0
3DFACE
8
0
70
0
10
-41.558807
20
-44.092930
30
-57.197506
11
-38.737919
21
15.058463
31
-53.066090
12
-40.667374
22
13.482821
32
-49.986572
13
-43.825974
23
-44.101212
33
-57.197506
0
3DFACE
8
0
70
0
10
-64.422882
20
93.079453
30
13.541019
11
-64.823029
21
105.237801
31
-34.461163
12
-51.789886
22
14.698800
32
-52.363129
13
-63.216503
23
4.171609
33
3.171161
0
3DFACE
8
0
70
0
10
-37.534115
20
3.194327
30
7.801642
11
-40.667374
21
13.482821
31
-49.986572
12
-38.969231
22
44.590073
32
-23.598322
13
-27.627975
23
50.858292
33
24.199598
0
3DFACE
8
0
70
0
10
-64.422882
20
93.079453
30
13.541019
11
-63.216503
21
4.171609
31
3.171161
12
-37.534115
22
3.194327
32
7.801642
13
-27.627975
23
50.858292
33
24.199598
0
3DFACE
8
0
70
0
10
24.221813
20
201.031113
30
170.281128
11
-7.354650
21
202.380264
31
166.977295
12
-19.988390
22
251.273315
32
206.728302
13
-0.703270
23
255.498322
33
214.486588
0
3DFACE
8
0
70
0
10
24.221813
20
201.031113
30
170.281128
11
-0.703270
21
255.498322
31
214.486588
12
9.532427
22
225.055191
32
210.886414
13
29.611876
23
176.032120
33
182.005646
0
3DFACE
8
0
70
0
10
29.611876
20
176.032120
30
182.005646
11
9.532427
21
225.055191
31
210.886414
12
-5.457161
22
176.963287
32
214.238998
13
-2.150873
23
150.054306
33
198.061798
0
3DFACE
8
0
70
0
10
-37.242359
20
190.723312
30
169.912048
11
-38.789238
21
244.098114
31
213.749268
12
-19.988390
22
251.273315
32
206.728302
13
-7.354650
23
202.380264
33
166.977295
0
3DFACE
8
0
70
0
10
-37.242359
20
190.723312
30
169.912048
11
-37.265965
21
167.377289
31
181.767044
12
-34.925892
22
214.434128
32
210.341644
13
-38.789238
23
244.098114
33
213.749268
0
3DFACE
8
0
70
0
10
-37.265965
20
167.377289
30
181.767044
11
-2.150873
21
150.054306
31
198.061798
12
-5.457161
22
176.963287
32
214.238998
13
-34.925892
23
214.434128
33
210.341644
0
3DFACE
8
0
70
0
10
54.431267
20
69.775673
30
140.454803
11
41.558807
21
133.514297
31
122.027016
12
33.953121
22
176.723495
32
149.488983
13
41.343651
23
136.096878
33
160.654114
0
3DFACE
8
0
70
0
10
-3.535845
20
178.930405
30
146.280884
11
-39.898380
21
168.428528
31
149.290665
12
-37.242359
22
190.723312
32
169.912048
13
-7.354650
23
202.380264
33
166.977295
0
3DFACE
8
0
70
0
10
-54.431267
20
69.775673
30
140.454803
11
-42.371593
21
132.157120
31
160.614731
12
-39.898380
22
168.428528
32
149.290665
13
-41.558807
23
133.514297
33
122.027016
0
3DFACE
8
0
70
0
10
-54.431267
20
69.775673
30
140.454803
11
0.000000
21
66.119232
31
180.381500
12
0.000000
22
102.262756
32
185.392090
13
-42.371593
23
132.157120
33
160.614731
0
3DFACE
8
0
70
0
10
-3.535845
20
178.930405
30
146.280884
11
-7.354650
21
202.380264
31
166.977295
12
24.221813
22
201.031113
32
170.281128
13
33.953121
23
176.723495
33
149.488983
0
3DFACE
8
0
70
0
10
41.558807
20
133.514297
30
122.027016
11
0.000000
21
150.760529
31
123.623947
12
-3.535845
22
178.930405
32
146.280884
13
33.953121
23
176.723495
33
149.488983
0
3DFACE
8
0
70
0
10
33.953121
20
176.723495
30
149.488983
11
24.221813
21
201.031113
31
170.281128
12
29.611876
22
176.032120
32
182.005646
13
41.343651
23
136.096878
33
160.654114
0
3DFACE
8
0
70
0
10
41.343651
20
136.096878
30
160.654114
11
29.611876
21
176.032120
31
182.005646
12
-2.150873
22
150.054306
32
198.061798
13
0.000000
23
102.262756
33
185.392090
0
3DFACE
8
0
70
0
10
54.431267
20
69.775673
30
140.454803
11
41.343651
21
136.096878
31
160.654114
12
0.000000
22
102.262756
32
185.392090
13
0.000000
23
66.119232
33
180.381500
0
3DFACE
8
0
70
0
10
-41.558807
20
133.514297
30
122.027016
11
-39.898380
21
168.428528
31
149.290665
12
-3.535845
22
178.930405
32
146.280884
13
0.000000
23
150.760529
33
123.623947
0
3DFACE
8
0
70
0
10
-42.371593
20
132.157120
30
160.614731
11
-37.265965
21
167.377289
31
181.767044
12
-37.242359
22
190.723312
32
169.912048
13
-39.898380
23
168.428528
33
149.290665
0
3DFACE
8
0
70
0
10
-42.371593
20
132.157120
30
160.614731
11
0.000000
21
102.262756
31
185.392090
12
-2.150873
22
150.054306
32
198.061798
13
-37.265965
23
167.377289
33
181.767044
0
3DFACE
8
0
70
0
10
-17.979145
20
267.782928
30
226.067780
11
-6.380628
21
267.907898
31
225.800858
12
18.973282
22
317.205902
32
215.641586
13
11.439850
23
314.971527
33
215.884293
0
3DFACE
8
0
70
0
10
-86.518074
20
275.656281
30
212.058197
11
-40.355991
21
256.766052
31
225.008514
12
-30.677378
22
263.531097
32
225.758789
13
-79.412659
23
279.062592
33
212.775848
0
ENDSEC
0
EOF
