0
SECTION
2
HEADER
999
DXF File Generated by LightWave 3D(TM)
0
ENDSEC
0
SECTION
2
TABLES
0
ENDSEC
0
SECTION
2
BLOCKS
0
ENDSEC
0
SECTION
2
ENTITIES
0
3DFACE
8
0
70
0
10
0.000000
20
-2.786196
30
144.699158
11
25.180265
21
3.946886
31
131.009415
12
56.076111
22
56.678474
32
144.699158
13
0.000000
23
53.237965
33
185.832397
0
3DFACE
8
0
70
0
10
0.830846
20
163.051239
30
332.075073
11
10.372302
21
166.313019
31
331.947754
12
9.292983
22
176.697174
32
332.528137
13
1.123830
23
178.416672
33
332.789703
0
3DFACE
8
0
70
0
10
-1.008559
20
46.986557
30
-54.008602
11
-1.411314
21
101.440918
31
-68.976265
12
42.693867
22
98.902763
32
-52.739120
13
37.357155
23
50.553246
33
-43.485531
0
3DFACE
8
0
70
0
10
-1.795213
20
126.042267
30
-87.527107
11
-1.794664
21
136.705765
31
-85.821938
12
1.066046
22
135.897690
32
-85.986702
13
1.539486
23
127.233536
33
-87.380402
0
3DFACE
8
0
70
0
10
49.327618
20
123.014122
30
17.045765
11
0.018953
21
137.356766
31
20.153744
12
0.000000
22
129.552887
32
94.116180
13
45.311588
23
118.966293
33
94.357765
0
3DFACE
8
0
70
0
10
0.000000
20
129.552887
30
94.116180
11
0.000000
21
132.880707
31
127.359703
12
42.814663
22
116.652969
32
125.714516
13
45.311588
23
118.966293
33
94.357765
0
3DFACE
8
0
70
0
10
28.462858
20
38.878269
30
24.930880
11
65.541504
21
76.597107
31
23.381279
12
56.531761
22
56.635120
32
95.309067
13
24.433628
23
8.206121
33
96.257156
0
3DFACE
8
0
70
0
10
65.781952
20
-150.655762
30
96.378525
11
46.524853
21
-150.655762
31
150.358398
12
29.804750
22
-150.655762
32
135.075241
13
35.956993
23
-150.655762
33
97.585144
0
3DFACE
8
0
70
0
10
65.541504
20
76.597107
30
23.381279
11
49.327618
21
123.014122
31
17.045765
12
45.311588
22
118.966293
32
94.357765
13
56.531761
23
56.635120
33
95.309067
0
3DFACE
8
0
70
0
10
56.531761
20
56.635120
30
95.309067
11
45.311588
21
118.966293
31
94.357765
12
42.814663
22
116.652969
32
125.714516
13
56.076111
23
56.678474
33
144.699158
0
3DFACE
8
0
70
0
10
0.000000
20
30.993748
30
24.930880
11
28.462858
21
38.878269
31
24.930880
12
24.433628
22
8.206121
32
96.257156
13
0.000000
23
-2.139343
33
96.493240
0
3DFACE
8
0
70
0
10
0.000000
20
-2.139343
30
96.493240
11
24.433628
21
8.206121
31
96.257156
12
25.180265
22
3.946886
32
131.009415
13
0.000000
23
-2.786196
33
144.699158
0
3DFACE
8
0
70
0
10
-0.623527
20
132.968811
30
-18.040825
11
39.491085
21
124.267563
31
-19.898283
12
37.147675
22
120.276825
32
-44.774502
13
-1.218037
23
126.890060
33
-53.700310
0
3DFACE
8
0
70
0
10
0.018953
20
137.356766
30
20.153744
11
49.327618
21
123.014122
31
17.045765
12
39.491085
22
124.267563
32
-19.898283
13
-0.623527
23
132.968811
33
-18.040825
0
3DFACE
8
0
70
0
10
63.814747
20
-149.416595
30
-44.121464
11
37.952946
21
-149.900864
31
-44.104465
12
32.477287
22
-149.875626
32
-44.630337
13
47.422398
23
-149.416595
33
-44.845631
0
3DFACE
8
0
70
0
10
84.785172
20
-150.881790
30
25.570145
11
47.422398
21
-151.222382
31
25.570145
12
37.952946
22
-149.900864
32
-44.104465
13
63.814747
23
-149.416595
33
-44.121464
0
3DFACE
8
0
70
0
10
73.609238
20
85.983452
30
-25.662220
11
42.693867
21
98.902763
31
-52.739120
12
37.147675
22
120.276825
32
-44.774502
13
39.491085
23
124.267563
33
-19.898283
0
3DFACE
8
0
70
0
10
49.327618
20
123.014122
30
17.045765
11
65.541504
21
76.597107
31
23.381279
12
73.609238
22
85.983452
32
-25.662220
13
39.491085
23
124.267563
33
-19.898283
0
3DFACE
8
0
70
0
10
0.000000
20
23.818953
30
-24.102381
11
-1.008559
21
46.986557
31
-54.008602
12
37.357155
22
50.553246
32
-43.485531
13
40.146828
23
32.980228
33
-24.311434
0
3DFACE
8
0
70
0
10
28.462858
20
38.878269
30
24.930880
11
0.000000
21
30.993748
31
24.930880
12
0.000000
22
23.818953
32
-24.102381
13
40.146828
23
32.980228
33
-24.311434
0
3DFACE
8
0
70
0
10
58.200027
20
-80.751923
30
-71.540642
11
48.442680
21
-80.751923
31
-72.730034
12
49.189568
22
-50.323795
32
-58.925941
13
56.181801
23
-50.323795
33
-58.925941
0
3DFACE
8
0
70
0
10
39.546783
20
-81.101952
30
-72.376427
11
42.814663
21
-50.465538
31
-58.925941
12
49.189568
22
-50.323795
32
-58.925941
13
48.442680
23
-80.751923
33
-72.730034
0
3DFACE
8
0
70
0
10
42.806099
20
-81.121162
30
-71.512718
11
45.150337
21
-50.473328
31
-58.925941
12
42.814663
22
-50.465538
32
-58.925941
13
39.546783
23
-81.101952
33
-72.376427
0
3DFACE
8
0
70
0
10
70.682419
20
-80.801292
30
-38.685120
11
58.200027
21
-80.751923
31
-71.540642
12
56.181801
22
-50.323795
32
-58.925941
13
65.126823
23
-53.108974
33
-9.378736
0
3DFACE
8
0
70
0
10
48.442680
20
-81.167236
30
-38.685120
11
49.189568
21
-52.207554
31
-9.378736
12
45.150337
22
-50.473328
32
-58.925941
13
42.806099
23
-81.121162
33
-71.512718
0
3DFACE
8
0
70
0
10
48.442680
20
-81.167236
30
-38.685120
11
70.682419
21
-80.801292
31
-38.685120
12
65.126823
22
-53.108974
32
-9.378736
13
49.189568
23
-52.207554
33
-9.378736
0
3DFACE
8
0
70
0
10
58.200027
20
-107.835960
30
-48.340786
11
48.442680
21
-107.835960
31
-48.489460
12
48.442680
22
-80.751923
32
-72.730034
13
58.200027
23
-80.751923
33
-71.540642
0
3DFACE
8
0
70
0
10
39.546783
20
-108.224167
30
-48.445263
11
39.546783
21
-81.101952
31
-72.376427
12
48.442680
22
-80.751923
32
-72.730034
13
48.442680
23
-107.835960
33
-48.489460
0
3DFACE
8
0
70
0
10
42.806099
20
-108.245483
30
-48.337296
11
42.806099
21
-81.121162
31
-71.512718
12
39.546783
22
-81.101952
32
-72.376427
13
39.546783
23
-108.224167
33
-48.445263
0
3DFACE
8
0
70
0
10
70.682419
20
-108.633667
30
-17.726255
11
58.200027
21
-107.835960
31
-48.340786
12
58.200027
22
-80.751923
32
-71.540642
13
70.682419
23
-80.801292
33
-38.685120
0
3DFACE
8
0
70
0
10
48.442680
20
-108.999603
30
-17.726255
11
48.442680
21
-81.167236
31
-38.685120
12
42.806099
22
-81.121162
32
-71.512718
13
42.806099
23
-108.245483
33
-48.337296
0
3DFACE
8
0
70
0
10
48.442680
20
-108.999603
30
-17.726255
11
70.682419
21
-108.633667
31
-17.726255
12
70.682419
22
-80.801292
32
-38.685120
13
48.442680
23
-81.167236
33
-38.685120
0
3DFACE
8
0
70
0
10
63.814747
20
-149.416595
30
-44.121464
11
47.422398
21
-149.416595
31
-44.845631
12
48.442680
22
-107.835960
32
-48.489460
13
58.200027
23
-107.835960
33
-48.340786
0
3DFACE
8
0
70
0
10
32.477287
20
-149.875626
30
-44.630337
11
39.546783
21
-108.224167
31
-48.445263
12
48.442680
22
-107.835960
32
-48.489460
13
47.422398
23
-149.416595
33
-44.845631
0
3DFACE
8
0
70
0
10
37.952946
20
-149.900864
30
-44.104465
11
42.806099
21
-108.245483
31
-48.337296
12
39.546783
22
-108.224167
32
-48.445263
13
32.477287
23
-149.875626
33
-44.630337
0
3DFACE
8
0
70
0
10
84.785172
20
-150.881790
30
25.570145
11
63.814747
21
-149.416595
31
-44.121464
12
58.200027
22
-107.835960
32
-48.340786
13
70.682419
23
-108.633667
33
-17.726255
0
3DFACE
8
0
70
0
10
47.422398
20
-151.222382
30
25.570145
11
48.442680
21
-108.999603
31
-17.726255
12
42.806099
22
-108.245483
32
-48.337296
13
37.952946
23
-149.900864
33
-44.104465
0
3DFACE
8
0
70
0
10
47.422398
20
-151.222382
30
25.570145
11
84.785172
21
-150.881790
31
25.570145
12
70.682419
22
-108.633667
32
-17.726255
13
48.442680
23
-108.999603
33
-17.726255
0
3DFACE
8
0
70
0
10
45.160339
20
-60.651951
30
114.367279
11
24.433628
21
8.206121
31
96.257156
12
56.531761
22
56.635120
32
95.309067
13
56.531761
23
-60.651951
33
113.940643
0
3DFACE
8
0
70
0
10
45.160339
20
-60.651951
30
114.367279
11
42.814663
21
-60.651951
31
127.623100
12
25.180265
22
3.946886
32
131.009415
13
24.433628
23
8.206121
33
96.257156
0
3DFACE
8
0
70
0
10
42.814663
20
-60.651951
30
127.623100
11
49.189568
21
-60.651951
31
133.026962
12
56.076111
22
56.678474
32
144.699158
13
25.180265
23
3.946886
33
131.009415
0
3DFACE
8
0
70
0
10
49.189568
20
-60.651951
30
133.026962
11
56.531761
21
-60.651951
31
113.940643
12
56.531761
22
56.635120
32
95.309067
13
56.076111
23
56.678474
33
144.699158
0
3DFACE
8
0
70
0
10
39.296024
20
-96.295654
30
97.746178
11
45.160339
21
-60.651951
31
114.367279
12
56.531761
22
-60.651951
32
113.940643
13
57.262871
23
-96.295654
33
97.072083
0
3DFACE
8
0
70
0
10
35.589855
20
-96.295654
30
118.690353
11
42.814663
21
-60.651951
31
127.623100
12
45.160339
22
-60.651951
32
114.367279
13
39.296024
23
-96.295654
33
97.746178
0
3DFACE
8
0
70
0
10
45.662209
20
-96.295654
30
127.228447
11
49.189568
21
-60.651951
31
133.026962
12
42.814663
22
-60.651951
32
127.623100
13
35.589855
23
-96.295654
33
118.690353
0
3DFACE
8
0
70
0
10
45.662209
20
-96.295654
30
127.228447
11
57.262871
21
-96.295654
31
97.072083
12
56.531761
22
-60.651951
32
113.940643
13
49.189568
23
-60.651951
33
133.026962
0
3DFACE
8
0
70
0
10
35.956993
20
-150.655762
30
97.585144
11
39.296024
21
-96.295654
31
97.746178
12
57.262871
22
-96.295654
32
97.072083
13
65.781952
23
-150.655762
33
96.378525
0
3DFACE
8
0
70
0
10
29.804750
20
-150.655762
30
135.075241
11
35.589855
21
-96.295654
31
118.690353
12
39.296024
22
-96.295654
32
97.746178
13
35.956993
23
-150.655762
33
97.585144
0
3DFACE
8
0
70
0
10
46.524853
20
-150.655762
30
150.358398
11
45.662209
21
-96.295654
31
127.228447
12
35.589855
22
-96.295654
32
118.690353
13
29.804750
23
-150.655762
33
135.075241
0
3DFACE
8
0
70
0
10
46.524853
20
-150.655762
30
150.358398
11
65.781952
21
-150.655762
31
96.378525
12
57.262871
22
-96.295654
32
97.072083
13
45.662209
23
-96.295654
33
127.228447
0
3DFACE
8
0
70
0
10
0.695875
20
157.353775
30
239.425705
11
0.604456
21
152.353012
31
223.448151
12
25.060854
22
191.412445
32
217.965652
13
37.002071
23
180.344589
33
236.753281
0
3DFACE
8
0
70
0
10
9.292983
20
176.697174
30
332.528137
11
25.874508
21
203.234650
31
291.003662
12
1.845676
22
209.026688
32
291.542175
13
1.123830
23
178.416672
33
332.789703
0
3DFACE
8
0
70
0
10
10.372302
20
166.313019
30
331.947754
11
28.811302
21
168.545212
31
292.707733
12
25.874508
22
203.234650
32
291.003662
13
9.292983
23
176.697174
33
332.528137
0
3DFACE
8
0
70
0
10
0.830846
20
163.051239
30
332.075073
11
0.724765
21
157.690384
31
292.292969
12
28.811302
22
168.545212
32
292.707733
13
10.372302
23
166.313019
33
331.947754
0
3DFACE
8
0
70
0
10
53.086689
20
254.693268
30
223.854370
11
53.293049
21
238.376663
31
222.840698
12
49.574455
22
239.068268
32
217.852158
13
49.413280
23
244.657043
33
218.194992
0
3DFACE
8
0
70
0
10
35.515743
20
206.565277
30
238.472015
11
37.002071
21
180.344589
31
236.753281
12
25.060854
22
191.412445
32
217.965652
13
23.689137
23
208.681305
33
219.050812
0
3DFACE
8
0
70
0
10
49.413280
20
244.657043
30
218.194992
11
22.825916
21
219.967682
31
219.748077
12
33.851124
22
239.511200
32
240.557510
13
53.086689
23
254.693268
33
223.854370
0
3DFACE
8
0
70
0
10
49.574455
20
239.068268
30
217.852158
11
23.689137
21
208.681305
31
219.050812
12
22.825916
22
219.967682
32
219.748077
13
49.413280
23
244.657043
33
218.194992
0
3DFACE
8
0
70
0
10
53.293049
20
238.376663
30
222.840698
11
35.515743
21
206.565277
31
238.472015
12
23.689137
22
208.681305
32
219.050812
13
49.574455
23
239.068268
33
217.852158
0
3DFACE
8
0
70
0
10
53.293049
20
238.376663
30
222.840698
11
53.086689
21
254.693268
31
223.854370
12
33.851124
22
239.511200
32
240.557510
13
35.515743
23
206.565277
33
238.472015
0
3DFACE
8
0
70
0
10
21.183270
20
232.869232
30
230.423386
11
9.661984
21
236.475632
31
230.721024
12
3.118210
22
249.417725
32
241.369095
13
33.851124
23
239.511200
33
240.557510
0
3DFACE
8
0
70
0
10
10.159944
20
226.264221
30
219.628906
11
2.217831
21
221.430832
31
212.109802
12
3.118210
22
249.417725
32
241.369095
13
9.661984
23
236.475632
33
230.721024
0
3DFACE
8
0
70
0
10
17.321987
20
225.725967
30
222.532272
11
22.825916
21
219.967682
31
219.748077
12
2.217831
22
221.430832
32
212.109802
13
10.159944
23
226.264221
33
219.628906
0
3DFACE
8
0
70
0
10
17.321987
20
225.725967
30
222.532272
11
21.183270
21
232.869232
31
230.423386
12
33.851124
22
239.511200
32
240.557510
13
22.825916
23
219.967682
33
219.748077
0
3DFACE
8
0
70
0
10
56.275333
20
305.845978
30
188.159332
11
58.763153
21
302.921600
31
187.151337
12
57.393532
22
300.617401
32
186.933411
13
52.838360
23
302.811493
33
188.505692
0
3DFACE
8
0
70
0
10
9.661984
20
236.475632
30
230.721024
11
54.862579
21
264.545013
31
215.962753
12
56.246010
22
255.093781
32
209.365219
13
10.159944
23
226.264221
33
219.628906
0
3DFACE
8
0
70
0
10
61.377041
20
256.797638
30
210.666199
11
56.246010
21
255.093781
31
209.365219
12
64.133560
22
262.795563
32
205.533783
13
69.354370
23
266.258728
33
205.767090
0
3DFACE
8
0
70
0
10
54.862579
20
264.545013
30
215.962753
11
61.904366
21
271.482422
31
210.905823
12
64.133560
22
262.795563
32
205.533783
13
56.246010
23
255.093781
33
209.365219
0
3DFACE
8
0
70
0
10
94.246376
20
270.581818
30
182.934921
11
93.991028
21
269.236237
31
180.294128
12
93.684868
22
273.776093
32
180.437500
13
93.482491
23
275.162659
33
182.789108
0
3DFACE
8
0
70
0
10
21.183270
20
232.869232
30
230.423386
11
17.321987
21
225.725967
31
222.532272
12
61.377041
22
256.797638
32
210.666199
13
63.035553
23
263.635529
33
215.496857
0
3DFACE
8
0
70
0
10
63.035553
20
263.635529
30
215.496857
11
70.315636
21
273.241608
31
209.227020
12
61.904366
22
271.482422
32
210.905823
13
54.862579
23
264.545013
33
215.962753
0
3DFACE
8
0
70
0
10
17.321987
20
225.725967
30
222.532272
11
10.159944
21
226.264221
31
219.628906
12
56.246010
22
255.093781
32
209.365219
13
61.377041
23
256.797638
33
210.666199
0
3DFACE
8
0
70
0
10
61.427841
20
290.136902
30
198.802551
11
61.076508
21
296.832550
31
194.586166
12
57.287678
22
292.153503
32
195.591187
13
56.800537
23
289.235840
33
197.789566
0
3DFACE
8
0
70
0
10
70.315636
20
273.241608
30
209.227020
11
61.427841
21
290.136902
31
198.802551
12
56.800537
22
289.235840
32
197.789566
13
61.904366
23
271.482422
33
210.905823
0
3DFACE
8
0
70
0
10
63.129993
20
286.939056
30
195.794510
11
61.411285
21
285.665558
31
194.518234
12
62.423260
22
289.960510
32
192.414703
13
63.723186
23
293.631805
33
192.509552
0
3DFACE
8
0
70
0
10
69.354370
20
266.258728
30
205.767090
11
64.133560
21
262.795563
31
205.533783
12
61.411285
22
285.665558
32
194.518234
13
63.129993
23
286.939056
33
195.794510
0
3DFACE
8
0
70
0
10
42.273911
20
290.286346
30
185.584457
11
40.747463
21
292.754211
31
187.615677
12
41.915272
22
294.181488
32
186.901825
13
44.019653
23
292.191803
33
185.124664
0
3DFACE
8
0
70
0
10
64.133560
20
262.795563
30
205.533783
11
61.904366
21
271.482422
31
210.905823
12
56.800537
22
289.235840
32
197.789566
13
61.411285
23
285.665558
33
194.518234
0
3DFACE
8
0
70
0
10
61.427841
20
290.136902
30
198.802551
11
63.129993
21
286.939056
31
195.794510
12
63.723186
22
293.631805
32
192.509552
13
61.076508
23
296.832550
33
194.586166
0
3DFACE
8
0
70
0
10
69.354370
20
266.258728
30
205.767090
11
63.129993
21
286.939056
31
195.794510
12
61.427841
22
290.136902
32
198.802551
13
70.315636
23
273.241608
33
209.227020
0
3DFACE
8
0
70
0
10
59.146126
20
300.452576
30
192.003510
11
56.275333
21
305.845978
31
188.159332
12
52.838360
22
302.811493
32
188.505692
13
54.276642
23
299.360138
33
190.798767
0
3DFACE
8
0
70
0
10
57.287678
20
292.153503
30
195.591187
11
54.276642
21
299.360138
31
190.798767
12
59.069649
22
297.060394
32
188.761627
13
62.423260
23
289.960510
33
192.414703
0
3DFACE
8
0
70
0
10
62.423260
20
289.960510
30
192.414703
11
59.069649
21
297.060394
31
188.761627
12
61.299538
22
298.166656
32
189.892517
13
63.723186
23
293.631805
33
192.509552
0
3DFACE
8
0
70
0
10
70.231033
20
293.820862
30
177.826477
11
67.891205
21
296.772247
31
178.215530
12
67.409576
22
297.555176
32
180.512756
13
69.450333
23
295.114716
33
180.463547
0
3DFACE
8
0
70
0
10
57.287678
20
292.153503
30
195.591187
11
61.076508
21
296.832550
31
194.586166
12
59.146126
22
300.452576
32
192.003510
13
54.276642
23
299.360138
33
190.798767
0
3DFACE
8
0
70
0
10
54.276642
20
299.360138
30
190.798767
11
52.838360
21
302.811493
31
188.505692
12
57.393532
22
300.617401
32
186.933411
13
59.069649
23
297.060394
33
188.761627
0
3DFACE
8
0
70
0
10
61.299538
20
298.166656
30
189.892517
11
59.069649
21
297.060394
31
188.761627
12
57.393532
22
300.617401
32
186.933411
13
58.763153
23
302.921600
33
187.151337
0
3DFACE
8
0
70
0
10
59.146126
20
300.452576
30
192.003510
11
61.299538
21
298.166656
31
189.892517
12
58.763153
22
302.921600
32
187.151337
13
56.275333
23
305.845978
33
188.159332
0
3DFACE
8
0
70
0
10
63.035553
20
263.635529
30
215.496857
11
66.838432
21
261.659180
31
213.334763
12
73.401054
22
270.286804
32
207.689133
13
70.315636
23
273.241608
33
209.227020
0
3DFACE
8
0
70
0
10
70.315636
20
273.241608
30
209.227020
11
73.401054
21
270.286804
31
207.689133
12
72.531906
22
264.007019
32
204.580307
13
69.354370
23
266.258728
33
205.767090
0
3DFACE
8
0
70
0
10
69.354370
20
266.258728
30
205.767090
11
72.531906
21
264.007019
31
204.580307
12
65.341011
22
255.509079
32
208.992279
13
61.377041
23
256.797638
33
210.666199
0
3DFACE
8
0
70
0
10
61.377041
20
256.797638
30
210.666199
11
65.341011
21
255.509079
31
208.992279
12
66.838432
22
261.659180
32
213.334763
13
63.035553
23
263.635529
33
215.496857
0
3DFACE
8
0
70
0
10
66.838432
20
261.659180
30
213.334763
11
72.680626
21
257.754242
31
210.696152
12
75.748749
22
267.468964
32
206.780518
13
73.401054
23
270.286804
33
207.689133
0
3DFACE
8
0
70
0
10
73.401054
20
270.286804
30
207.689133
11
75.748749
21
267.468964
31
206.780518
12
75.750488
22
262.441620
32
202.903702
13
72.531906
23
264.007019
33
204.580307
0
3DFACE
8
0
70
0
10
72.531906
20
264.007019
30
204.580307
11
75.750488
21
262.441620
31
202.903702
12
71.912994
22
252.903931
32
205.847031
13
65.341011
23
255.509079
33
208.992279
0
3DFACE
8
0
70
0
10
65.341011
20
255.509079
30
208.992279
11
71.912994
21
252.903931
31
205.847031
12
72.680626
22
257.754242
32
210.696152
13
66.838432
23
261.659180
33
213.334763
0
3DFACE
8
0
70
0
10
72.680626
20
257.754242
30
210.696152
11
78.013199
21
257.498596
31
206.130173
12
77.167458
22
267.153534
32
205.114578
13
75.748749
23
267.468964
33
206.780518
0
3DFACE
8
0
70
0
10
75.748749
20
267.468964
30
206.780518
11
77.167458
21
267.153534
31
205.114578
12
77.601883
22
263.892578
32
200.428238
13
75.750488
23
262.441620
33
202.903702
0
3DFACE
8
0
70
0
10
75.750488
20
262.441620
30
202.903702
11
77.601883
21
263.892578
31
200.428238
12
77.535263
22
254.355240
32
200.784180
13
71.912994
23
252.903931
33
205.847031
0
3DFACE
8
0
70
0
10
71.912994
20
252.903931
30
205.847031
11
77.535263
21
254.355240
31
200.784180
12
78.013199
22
257.498596
32
206.130173
13
72.680626
23
257.754242
33
210.696152
0
3DFACE
8
0
70
0
10
78.013199
20
257.498596
30
206.130173
11
80.621086
21
259.132813
31
202.688156
12
79.473160
22
267.801483
32
202.121475
13
77.167458
23
267.153534
33
205.114578
0
3DFACE
8
0
70
0
10
77.167458
20
267.153534
30
205.114578
11
79.473160
21
267.801483
31
202.121475
12
79.867714
22
265.039856
32
197.787415
13
77.601883
23
263.892578
33
200.428238
0
3DFACE
8
0
70
0
10
77.601883
20
263.892578
30
200.428238
11
79.867714
21
265.039856
31
197.787415
12
80.173248
22
256.463226
32
197.786896
13
77.535263
23
254.355240
33
200.784180
0
3DFACE
8
0
70
0
10
77.535263
20
254.355240
30
200.784180
11
80.173248
21
256.463226
31
197.786896
12
80.621086
22
259.132813
32
202.688156
13
78.013199
23
257.498596
33
206.130173
0
3DFACE
8
0
70
0
10
80.621086
20
259.132813
30
202.688156
11
83.160248
21
260.307312
31
199.618683
12
82.131363
22
268.105560
32
199.107254
13
79.473160
23
267.801483
33
202.121475
0
3DFACE
8
0
70
0
10
79.473160
20
267.801483
30
202.121475
11
82.131363
21
268.105560
31
199.107254
12
82.485191
22
265.621399
32
195.207047
13
79.867714
23
265.039856
33
197.787415
0
3DFACE
8
0
70
0
10
79.867714
20
265.039856
30
197.787415
11
82.485191
21
265.621399
31
195.207047
12
82.755554
22
257.905487
32
195.208099
13
80.173248
23
256.463226
33
197.786896
0
3DFACE
8
0
70
0
10
80.173248
20
256.463226
30
197.786896
11
82.755554
21
257.905487
31
195.208099
12
83.160248
22
260.307312
32
199.618683
13
80.621086
23
259.132813
33
202.688156
0
3DFACE
8
0
70
0
10
83.160248
20
260.307312
30
199.618683
11
85.909386
21
261.864166
31
196.129959
12
84.331001
22
268.770477
32
196.305374
13
82.131363
23
268.105560
33
199.107254
0
3DFACE
8
0
70
0
10
82.131363
20
268.105560
30
199.107254
11
84.331001
21
268.770477
31
196.305374
12
84.628319
22
266.847809
32
192.608917
13
82.485191
23
265.621399
33
195.207047
0
3DFACE
8
0
70
0
10
82.485191
20
265.621399
30
195.207047
11
84.628319
21
266.847809
31
192.608917
12
85.491158
22
259.986969
32
192.020233
13
82.755554
23
257.905487
33
195.208099
0
3DFACE
8
0
70
0
10
82.755554
20
257.905487
30
195.208099
11
85.491158
21
259.986969
31
192.020233
12
85.909386
22
261.864166
32
196.129959
13
83.160248
23
260.307312
33
199.618683
0
3DFACE
8
0
70
0
10
85.909386
20
261.864166
30
196.129959
11
88.067078
21
263.731873
31
192.957779
12
86.117767
22
269.757629
32
193.696320
13
84.331001
23
268.770477
33
196.305374
0
3DFACE
8
0
70
0
10
84.331001
20
268.770477
30
196.305374
11
86.117767
21
269.757629
31
193.696320
12
86.332481
22
268.310699
32
190.229813
13
84.628319
23
266.847809
33
192.608917
0
3DFACE
8
0
70
0
10
84.628319
20
266.847809
30
192.608917
11
86.332481
21
268.310699
31
190.229813
12
87.613792
22
262.295410
32
189.159241
13
85.491158
23
259.986969
33
192.020233
0
3DFACE
8
0
70
0
10
85.491158
20
259.986969
30
192.020233
11
87.613792
21
262.295410
31
189.159241
12
88.067078
22
263.731873
32
192.957779
13
85.909386
23
261.864166
33
196.129959
0
3DFACE
8
0
70
0
10
88.067078
20
263.731873
30
192.957779
11
89.969025
21
266.364227
31
189.516190
12
88.126617
22
271.743134
32
190.287888
13
86.117767
23
269.757629
33
193.696320
0
3DFACE
8
0
70
0
10
86.117767
20
269.757629
30
193.696320
11
88.126617
21
271.743134
31
190.287888
12
88.305733
22
270.493195
32
187.145493
13
86.332481
23
268.310699
33
190.229813
0
3DFACE
8
0
70
0
10
86.332481
20
268.310699
30
190.229813
11
88.305733
21
270.493195
31
187.145493
12
89.542900
22
265.117462
32
186.082199
13
87.613792
23
262.295410
33
189.159241
0
3DFACE
8
0
70
0
10
87.613792
20
262.295410
30
189.159241
11
89.542900
21
265.117462
31
186.082199
12
89.969025
22
266.364227
32
189.516190
13
88.067078
23
263.731873
33
192.957779
0
3DFACE
8
0
70
0
10
89.969025
20
266.364227
30
189.516190
11
92.030045
21
268.978149
31
185.958801
12
90.799271
22
273.986633
32
186.178055
13
88.126617
23
271.743134
33
190.287888
0
3DFACE
8
0
70
0
10
88.126617
20
271.743134
30
190.287888
11
90.799271
21
273.986633
31
186.178055
12
91.006874
22
272.631348
32
183.459473
13
88.305733
23
270.493195
33
187.145493
0
3DFACE
8
0
70
0
10
88.305733
20
270.493195
30
187.145493
11
91.006874
21
272.631348
31
183.459473
12
91.711067
22
267.650940
32
182.945847
13
89.542900
23
265.117462
33
186.082199
0
3DFACE
8
0
70
0
10
89.542900
20
265.117462
30
186.082199
11
91.711067
21
267.650940
31
182.945847
12
92.030045
22
268.978149
32
185.958801
13
89.969025
23
266.364227
33
189.516190
0
3DFACE
8
0
70
0
10
92.030045
20
268.978149
30
185.958801
11
94.246376
21
270.581818
31
182.934921
12
93.482491
22
275.162659
32
182.789108
13
90.799271
23
273.986633
33
186.178055
0
3DFACE
8
0
70
0
10
90.799271
20
273.986633
30
186.178055
11
93.482491
21
275.162659
31
182.789108
12
93.684868
22
273.776093
32
180.437500
13
91.006874
23
272.631348
33
183.459473
0
3DFACE
8
0
70
0
10
91.006874
20
272.631348
30
183.459473
11
93.684868
21
273.776093
31
180.437500
12
93.991028
22
269.236237
32
180.294128
13
91.711067
23
267.650940
33
182.945847
0
3DFACE
8
0
70
0
10
91.711067
20
267.650940
30
182.945847
11
93.991028
21
269.236237
31
180.294128
12
94.246376
22
270.581818
32
182.934921
13
92.030045
23
268.978149
33
185.958801
0
3DFACE
8
0
70
0
10
61.411285
20
285.665558
30
194.518234
11
56.797001
21
284.532928
31
192.889267
12
58.164097
22
288.374939
32
191.216965
13
62.423260
23
289.960510
33
192.414703
0
3DFACE
8
0
70
0
10
62.423260
20
289.960510
30
192.414703
11
58.164097
21
288.374939
31
191.216965
12
53.702076
22
290.677979
32
194.068314
13
57.287678
23
292.153503
33
195.591187
0
3DFACE
8
0
70
0
10
57.287678
20
292.153503
30
195.591187
11
53.702076
21
290.677979
31
194.068314
12
52.932339
22
288.015625
32
195.900253
13
56.800537
23
289.235840
33
197.789566
0
3DFACE
8
0
70
0
10
56.800537
20
289.235840
30
197.789566
11
52.932339
21
288.015625
31
195.900253
12
56.797001
22
284.532928
32
192.889267
13
61.411285
23
285.665558
33
194.518234
0
3DFACE
8
0
70
0
10
56.797001
20
284.532928
30
192.889267
11
53.880096
21
284.608765
31
191.725662
12
55.378494
22
288.023651
32
190.357132
13
58.164097
23
288.374939
33
191.216965
0
3DFACE
8
0
70
0
10
58.164097
20
288.374939
30
191.216965
11
55.378494
21
288.023651
31
190.357132
12
51.475246
22
290.285370
32
192.929199
13
53.702076
23
290.677979
33
194.068314
0
3DFACE
8
0
70
0
10
53.702076
20
290.677979
30
194.068314
11
51.475246
21
290.285370
31
192.929199
12
50.584953
22
287.888367
32
194.485657
13
52.932339
23
288.015625
33
195.900253
0
3DFACE
8
0
70
0
10
52.932339
20
288.015625
30
195.900253
11
50.584953
21
287.888367
31
194.485657
12
53.880096
22
284.608765
32
191.725662
13
56.797001
23
284.532928
33
192.889267
0
3DFACE
8
0
70
0
10
53.880096
20
284.608765
30
191.725662
11
50.170288
21
284.391174
31
190.244629
12
52.401688
22
287.111145
32
189.512360
13
55.378494
23
288.023651
33
190.357132
0
3DFACE
8
0
70
0
10
55.378494
20
288.023651
30
190.357132
11
52.401688
21
287.111145
31
189.512360
12
49.395531
22
289.733429
32
191.917740
13
51.475246
23
290.285370
33
192.929199
0
3DFACE
8
0
70
0
10
51.475246
20
290.285370
30
192.929199
11
49.395531
21
289.733429
31
191.917740
12
47.922157
22
287.720123
32
192.970016
13
50.584953
23
287.888367
33
194.485657
0
3DFACE
8
0
70
0
10
50.584953
20
287.888367
30
194.485657
11
47.922157
21
287.720123
31
192.970016
12
50.170288
22
284.391174
32
190.244629
13
53.880096
23
284.608765
33
191.725662
0
3DFACE
8
0
70
0
10
50.170288
20
284.391174
30
190.244629
11
46.512592
21
286.932922
31
188.088089
12
49.335571
22
288.544006
32
188.014313
13
52.401688
23
287.111145
33
189.512360
0
3DFACE
8
0
70
0
10
52.401688
20
287.111145
30
189.512360
11
49.335571
21
288.544006
31
188.014313
12
47.428463
22
291.364258
32
190.437103
13
49.395531
23
289.733429
33
191.917740
0
3DFACE
8
0
70
0
10
49.395531
20
289.733429
30
191.917740
11
47.428463
21
291.364258
31
190.437103
12
45.429764
22
290.040680
32
190.951492
13
47.922157
23
287.720123
33
192.970016
0
3DFACE
8
0
70
0
10
47.922157
20
287.720123
30
192.970016
11
45.429764
21
290.040680
31
190.951492
12
46.512592
22
286.932922
32
188.088089
13
50.170288
23
284.391174
33
190.244629
0
3DFACE
8
0
70
0
10
46.512592
20
286.932922
30
188.088089
11
44.540939
21
289.285797
31
186.745544
12
46.895390
22
291.005737
32
186.525192
13
49.335571
23
288.544006
33
188.014313
0
3DFACE
8
0
70
0
10
49.335571
20
288.544006
30
188.014313
11
46.895390
21
291.005737
31
186.525192
12
44.945011
22
293.453461
32
188.620346
13
47.428463
23
291.364258
33
190.437103
0
3DFACE
8
0
70
0
10
47.428463
20
291.364258
30
190.437103
11
44.945011
21
293.453461
31
188.620346
12
43.308033
22
292.095978
32
189.199936
13
45.429764
23
290.040680
33
190.951492
0
3DFACE
8
0
70
0
10
45.429764
20
290.040680
30
190.951492
11
43.308033
21
292.095978
31
189.199936
12
44.540939
22
289.285797
32
186.745544
13
46.512592
23
286.932922
33
188.088089
0
3DFACE
8
0
70
0
10
44.540939
20
289.285797
30
186.745544
11
42.273911
21
290.286346
31
185.584457
12
44.019653
22
292.191803
32
185.124664
13
46.895390
23
291.005737
33
186.525192
0
3DFACE
8
0
70
0
10
46.895390
20
291.005737
30
186.525192
11
44.019653
21
292.191803
31
185.124664
12
41.915272
22
294.181488
32
186.901825
13
44.945011
23
293.453461
33
188.620346
0
3DFACE
8
0
70
0
10
44.945011
20
293.453461
30
188.620346
11
41.915272
21
294.181488
31
186.901825
12
40.747463
22
292.754211
32
187.615677
13
43.308033
23
292.095978
33
189.199936
0
3DFACE
8
0
70
0
10
43.308033
20
292.095978
30
189.199936
11
40.747463
21
292.754211
31
187.615677
12
42.273911
22
290.286346
32
185.584457
13
44.540939
23
289.285797
33
186.745544
0
3DFACE
8
0
70
0
10
63.723186
20
293.631805
30
192.509552
11
66.705215
21
292.852020
31
189.306381
12
64.477821
22
295.560059
32
191.574753
13
61.076508
23
296.832550
33
194.586166
0
3DFACE
8
0
70
0
10
61.076508
20
296.832550
30
194.586166
11
64.477821
21
295.560059
31
191.574753
12
62.446781
22
298.899261
32
189.639389
13
59.146126
23
300.452576
33
192.003510
0
3DFACE
8
0
70
0
10
59.146126
20
300.452576
30
192.003510
11
62.446781
21
298.899261
31
189.639389
12
64.214294
22
297.003418
32
187.434921
13
61.299538
23
298.166656
33
189.892517
0
3DFACE
8
0
70
0
10
61.299538
20
298.166656
30
189.892517
11
64.214294
21
297.003418
31
187.434921
12
66.705215
22
292.852020
32
189.306381
13
63.723186
23
293.631805
33
192.509552
0
3DFACE
8
0
70
0
10
66.705215
20
292.852020
30
189.306381
11
68.071602
21
292.919830
31
186.279053
12
66.547630
22
294.931549
32
189.060562
13
64.477821
23
295.560059
33
191.574753
0
3DFACE
8
0
70
0
10
64.477821
20
295.560059
30
191.574753
11
66.547630
21
294.931549
31
189.060562
12
64.243660
22
298.007477
32
188.251831
13
62.446781
23
298.899261
33
189.639389
0
3DFACE
8
0
70
0
10
62.446781
20
298.899261
30
189.639389
11
64.243660
21
298.007477
31
188.251831
12
65.355850
22
296.683746
32
185.728775
13
64.214294
23
297.003418
33
187.434921
0
3DFACE
8
0
70
0
10
64.214294
20
297.003418
30
187.434921
11
65.355850
21
296.683746
31
185.728775
12
68.071602
22
292.919830
32
186.279053
13
66.705215
23
292.852020
33
189.306381
0
3DFACE
8
0
70
0
10
68.071602
20
292.919830
30
186.279053
11
69.285156
21
293.387238
31
181.656769
12
68.322327
22
294.891815
32
184.523651
13
66.547630
23
294.931549
33
189.060562
0
3DFACE
8
0
70
0
10
66.547630
20
294.931549
30
189.060562
11
68.322327
21
294.891815
31
184.523651
12
66.075890
22
297.621216
32
184.440445
13
64.243660
23
298.007477
33
188.251831
0
3DFACE
8
0
70
0
10
64.243660
20
298.007477
30
188.251831
11
66.075890
21
297.621216
31
184.440445
12
66.697334
22
296.694336
32
181.927094
13
65.355850
23
296.683746
33
185.728775
0
3DFACE
8
0
70
0
10
65.355850
20
296.683746
30
185.728775
11
66.697334
21
296.694336
31
181.927094
12
69.285156
22
293.387238
32
181.656769
13
68.071602
23
292.919830
33
186.279053
0
3DFACE
8
0
70
0
10
69.285156
20
293.387238
30
181.656769
11
70.231033
21
293.820862
31
177.826477
12
69.450333
22
295.114716
32
180.463547
13
68.322327
23
294.891815
33
184.523651
0
3DFACE
8
0
70
0
10
68.322327
20
294.891815
30
184.523651
11
69.450333
21
295.114716
31
180.463547
12
67.409576
22
297.555176
32
180.512756
13
66.075890
23
297.621216
33
184.440445
0
3DFACE
8
0
70
0
10
66.075890
20
297.621216
30
184.440445
11
67.409576
21
297.555176
31
180.512756
12
67.891205
22
296.772247
32
178.215530
13
66.697334
23
296.694336
33
181.927094
0
3DFACE
8
0
70
0
10
66.697334
20
296.694336
30
181.927094
11
67.891205
21
296.772247
31
178.215530
12
70.231033
22
293.820862
32
177.826477
13
69.285156
23
293.387238
33
181.656769
0
3DFACE
8
0
70
0
10
0.000000
20
-2.786196
30
144.699158
11
0.000000
21
53.237965
31
185.832397
12
-56.076111
22
56.678474
32
144.699158
13
-25.180265
23
3.946886
33
131.009415
0
3DFACE
8
0
70
0
10
0.830846
20
163.051239
30
332.075073
11
1.123830
21
178.416672
31
332.789703
12
-7.108157
22
177.045029
32
332.548737
13
-8.586823
23
166.677979
33
331.967255
0
3DFACE
8
0
70
0
10
-1.008559
20
46.986557
30
-54.008602
11
-39.010170
21
50.371326
31
-42.185879
12
-44.920460
22
98.694069
32
-51.248055
13
-1.411314
23
101.440918
33
-68.976265
0
3DFACE
8
0
70
0
10
-1.795213
20
126.042267
30
-87.527107
11
-5.129301
21
127.217644
31
-87.266899
12
-4.654970
22
135.884048
32
-85.889336
13
-1.794664
23
136.705765
33
-85.821938
0
3DFACE
8
0
70
0
10
-49.289711
20
122.779205
30
18.724081
11
-45.311588
21
118.966293
31
94.357765
12
0.000000
22
129.552887
32
94.116180
13
0.018953
23
137.356766
33
20.153744
0
3DFACE
8
0
70
0
10
0.000000
20
129.552887
30
94.116180
11
-45.311588
21
118.966293
31
94.357765
12
-42.814663
22
116.652969
32
125.714516
13
0.000000
23
132.880707
33
127.359703
0
3DFACE
8
0
70
0
10
-28.462858
20
38.878269
30
24.930880
11
-24.433628
21
8.206121
31
96.257156
12
-56.531761
22
56.635120
32
95.309067
13
-65.027512
23
76.286072
33
25.603363
0
3DFACE
8
0
70
0
10
-65.781952
20
-150.655762
30
96.378525
11
-35.956993
21
-150.655762
31
97.585144
12
-29.804750
22
-150.655762
32
135.075241
13
-46.524853
23
-150.655762
33
150.358398
0
3DFACE
8
0
70
0
10
-65.027512
20
76.286072
30
25.603363
11
-56.531761
21
56.635120
31
95.309067
12
-45.311588
22
118.966293
32
94.357765
13
-49.289711
23
122.779205
33
18.724081
0
3DFACE
8
0
70
0
10
-56.531761
20
56.635120
30
95.309067
11
-56.076111
21
56.678474
31
144.699158
12
-42.814663
22
116.652969
32
125.714516
13
-45.311588
23
118.966293
33
94.357765
0
3DFACE
8
0
70
0
10
0.000000
20
30.993748
30
24.930880
11
0.000000
21
-2.139343
31
96.493240
12
-24.433628
22
8.206121
32
96.257156
13
-28.462858
23
38.878269
33
24.930880
0
3DFACE
8
0
70
0
10
0.000000
20
-2.139343
30
96.493240
11
0.000000
21
-2.786196
31
144.699158
12
-25.180265
22
3.946886
32
131.009415
13
-24.433628
23
8.206121
33
96.257156
0
3DFACE
8
0
70
0
10
-0.623527
20
132.968811
30
-18.040825
11
-1.218037
21
126.890060
31
-53.700310
12
-39.219650
22
120.094894
32
-43.474846
13
-40.731102
23
124.076469
33
-18.533026
0
3DFACE
8
0
70
0
10
0.018953
20
137.356766
30
20.153744
11
-0.623527
21
132.968811
31
-18.040825
12
-40.731102
22
124.076469
32
-18.533026
13
-49.289711
23
122.779205
33
18.724081
0
3DFACE
8
0
70
0
10
-63.814747
20
-149.416595
30
-44.121464
11
-47.422398
21
-149.416595
31
-44.845631
12
-32.477287
22
-149.875626
32
-44.630337
13
-37.952946
23
-149.900864
33
-44.104465
0
3DFACE
8
0
70
0
10
-84.785172
20
-150.881790
30
25.570145
11
-63.814747
21
-149.416595
31
-44.121464
12
-37.952946
22
-149.900864
32
-44.104465
13
-47.422398
23
-151.222382
33
25.570145
0
3DFACE
8
0
70
0
10
-74.820618
20
85.629875
30
-23.136169
11
-40.731102
21
124.076469
31
-18.533026
12
-39.219650
22
120.094894
32
-43.474846
13
-44.920460
23
98.694069
33
-51.248055
0
3DFACE
8
0
70
0
10
-49.289711
20
122.779205
30
18.724081
11
-40.731102
21
124.076469
31
-18.533026
12
-74.820618
22
85.629875
32
-23.136169
13
-65.027512
23
76.286072
33
25.603363
0
3DFACE
8
0
70
0
10
0.000000
20
23.818953
30
-24.102381
11
-40.146828
21
32.980228
31
-24.311434
12
-39.010170
22
50.371326
32
-42.185879
13
-1.008559
23
46.986557
33
-54.008602
0
3DFACE
8
0
70
0
10
-28.462858
20
38.878269
30
24.930880
11
-40.146828
21
32.980228
31
-24.311434
12
0.000000
22
23.818953
32
-24.102381
13
0.000000
23
30.993748
33
24.930880
0
3DFACE
8
0
70
0
10
-58.200027
20
-80.751923
30
-71.540642
11
-56.181801
21
-50.323795
31
-58.925941
12
-49.189568
22
-50.323795
32
-58.925941
13
-48.442680
23
-80.751923
33
-72.730034
0
3DFACE
8
0
70
0
10
-39.546783
20
-81.101952
30
-72.376427
11
-48.442680
21
-80.751923
31
-72.730034
12
-49.189568
22
-50.323795
32
-58.925941
13
-42.814663
23
-50.465538
33
-58.925941
0
3DFACE
8
0
70
0
10
-42.806099
20
-81.121162
30
-71.512718
11
-39.546783
21
-81.101952
31
-72.376427
12
-42.814663
22
-50.465538
32
-58.925941
13
-45.150337
23
-50.473328
33
-58.925941
0
3DFACE
8
0
70
0
10
-70.682419
20
-80.801292
30
-38.685120
11
-65.126823
21
-53.108974
31
-9.378736
12
-56.181801
22
-50.323795
32
-58.925941
13
-58.200027
23
-80.751923
33
-71.540642
0
3DFACE
8
0
70
0
10
-48.442680
20
-81.167236
30
-38.685120
11
-42.806099
21
-81.121162
31
-71.512718
12
-45.150337
22
-50.473328
32
-58.925941
13
-49.189568
23
-52.207554
33
-9.378736
0
3DFACE
8
0
70
0
10
-48.442680
20
-81.167236
30
-38.685120
11
-49.189568
21
-52.207554
31
-9.378736
12
-65.126823
22
-53.108974
32
-9.378736
13
-70.682419
23
-80.801292
33
-38.685120
0
3DFACE
8
0
70
0
10
-58.200027
20
-107.835960
30
-48.340786
11
-58.200027
21
-80.751923
31
-71.540642
12
-48.442680
22
-80.751923
32
-72.730034
13
-48.442680
23
-107.835960
33
-48.489460
0
3DFACE
8
0
70
0
10
-39.546783
20
-108.224167
30
-48.445263
11
-48.442680
21
-107.835960
31
-48.489460
12
-48.442680
22
-80.751923
32
-72.730034
13
-39.546783
23
-81.101952
33
-72.376427
0
3DFACE
8
0
70
0
10
-42.806099
20
-108.245483
30
-48.337296
11
-39.546783
21
-108.224167
31
-48.445263
12
-39.546783
22
-81.101952
32
-72.376427
13
-42.806099
23
-81.121162
33
-71.512718
0
3DFACE
8
0
70
0
10
-70.682419
20
-108.633667
30
-17.726255
11
-70.682419
21
-80.801292
31
-38.685120
12
-58.200027
22
-80.751923
32
-71.540642
13
-58.200027
23
-107.835960
33
-48.340786
0
3DFACE
8
0
70
0
10
-48.442680
20
-108.999603
30
-17.726255
11
-42.806099
21
-108.245483
31
-48.337296
12
-42.806099
22
-81.121162
32
-71.512718
13
-48.442680
23
-81.167236
33
-38.685120
0
3DFACE
8
0
70
0
10
-48.442680
20
-108.999603
30
-17.726255
11
-48.442680
21
-81.167236
31
-38.685120
12
-70.682419
22
-80.801292
32
-38.685120
13
-70.682419
23
-108.633667
33
-17.726255
0
3DFACE
8
0
70
0
10
-63.814747
20
-149.416595
30
-44.121464
11
-58.200027
21
-107.835960
31
-48.340786
12
-48.442680
22
-107.835960
32
-48.489460
13
-47.422398
23
-149.416595
33
-44.845631
0
3DFACE
8
0
70
0
10
-32.477287
20
-149.875626
30
-44.630337
11
-47.422398
21
-149.416595
31
-44.845631
12
-48.442680
22
-107.835960
32
-48.489460
13
-39.546783
23
-108.224167
33
-48.445263
0
3DFACE
8
0
70
0
10
-37.952946
20
-149.900864
30
-44.104465
11
-32.477287
21
-149.875626
31
-44.630337
12
-39.546783
22
-108.224167
32
-48.445263
13
-42.806099
23
-108.245483
33
-48.337296
0
3DFACE
8
0
70
0
10
-84.785172
20
-150.881790
30
25.570145
11
-70.682419
21
-108.633667
31
-17.726255
12
-58.200027
22
-107.835960
32
-48.340786
13
-63.814747
23
-149.416595
33
-44.121464
0
3DFACE
8
0
70
0
10
-47.422398
20
-151.222382
30
25.570145
11
-37.952946
21
-149.900864
31
-44.104465
12
-42.806099
22
-108.245483
32
-48.337296
13
-48.442680
23
-108.999603
33
-17.726255
0
3DFACE
8
0
70
0
10
-47.422398
20
-151.222382
30
25.570145
11
-48.442680
21
-108.999603
31
-17.726255
12
-70.682419
22
-108.633667
32
-17.726255
13
-84.785172
23
-150.881790
33
25.570145
0
3DFACE
8
0
70
0
10
-45.160339
20
-60.651951
30
114.367279
11
-56.531761
21
-60.651951
31
113.940643
12
-56.531761
22
56.635120
32
95.309067
13
-24.433628
23
8.206121
33
96.257156
0
3DFACE
8
0
70
0
10
-45.160339
20
-60.651951
30
114.367279
11
-24.433628
21
8.206121
31
96.257156
12
-25.180265
22
3.946886
32
131.009415
13
-42.814663
23
-60.651951
33
127.623100
0
3DFACE
8
0
70
0
10
-42.814663
20
-60.651951
30
127.623100
11
-25.180265
21
3.946886
31
131.009415
12
-56.076111
22
56.678474
32
144.699158
13
-49.189568
23
-60.651951
33
133.026962
0
3DFACE
8
0
70
0
10
-49.189568
20
-60.651951
30
133.026962
11
-56.076111
21
56.678474
31
144.699158
12
-56.531761
22
56.635120
32
95.309067
13
-56.531761
23
-60.651951
33
113.940643
0
3DFACE
8
0
70
0
10
-39.296024
20
-96.295654
30
97.746178
11
-57.262871
21
-96.295654
31
97.072083
12
-56.531761
22
-60.651951
32
113.940643
13
-45.160339
23
-60.651951
33
114.367279
0
3DFACE
8
0
70
0
10
-35.589855
20
-96.295654
30
118.690353
11
-39.296024
21
-96.295654
31
97.746178
12
-45.160339
22
-60.651951
32
114.367279
13
-42.814663
23
-60.651951
33
127.623100
0
3DFACE
8
0
70
0
10
-45.662209
20
-96.295654
30
127.228447
11
-35.589855
21
-96.295654
31
118.690353
12
-42.814663
22
-60.651951
32
127.623100
13
-49.189568
23
-60.651951
33
133.026962
0
3DFACE
8
0
70
0
10
-45.662209
20
-96.295654
30
127.228447
11
-49.189568
21
-60.651951
31
133.026962
12
-56.531761
22
-60.651951
32
113.940643
13
-57.262871
23
-96.295654
33
97.072083
0
3DFACE
8
0
70
0
10
-35.956993
20
-150.655762
30
97.585144
11
-65.781952
21
-150.655762
31
96.378525
12
-57.262871
22
-96.295654
32
97.072083
13
-39.296024
23
-96.295654
33
97.746178
0
3DFACE
8
0
70
0
10
-29.804750
20
-150.655762
30
135.075241
11
-35.956993
21
-150.655762
31
97.585144
12
-39.296024
22
-96.295654
32
97.746178
13
-35.589855
23
-96.295654
33
118.690353
0
3DFACE
8
0
70
0
10
-46.524853
20
-150.655762
30
150.358398
11
-29.804750
21
-150.655762
31
135.075241
12
-35.589855
22
-96.295654
32
118.690353
13
-45.662209
23
-96.295654
33
127.228447
0
3DFACE
8
0
70
0
10
-46.524853
20
-150.655762
30
150.358398
11
-45.662209
21
-96.295654
31
127.228447
12
-57.262871
22
-96.295654
32
97.072083
13
-65.781952
23
-150.655762
33
96.378525
0
3DFACE
8
0
70
0
10
0.695875
20
157.353775
30
239.425705
11
-34.681450
21
181.832733
31
236.839417
12
-22.245668
22
192.479248
32
218.033173
13
0.604456
23
152.353012
33
223.448151
0
3DFACE
8
0
70
0
10
-7.108157
20
177.045029
30
332.548737
11
1.123830
21
178.416672
31
332.789703
12
1.845676
22
209.026688
32
291.542175
13
-22.453447
23
204.473389
33
291.094025
0
3DFACE
8
0
70
0
10
-8.586823
20
166.677979
30
331.967255
11
-7.108157
21
177.045029
31
332.548737
12
-22.453447
22
204.473389
32
291.094025
13
-26.950317
23
169.617050
33
292.764893
0
3DFACE
8
0
70
0
10
0.830846
20
163.051239
30
332.075073
11
-8.586823
21
166.677979
31
331.967255
12
-26.950317
22
169.617050
32
292.764893
13
0.724765
23
157.690384
33
292.292969
0
3DFACE
8
0
70
0
10
-46.316059
20
258.053528
30
224.194214
11
-43.364948
21
247.633789
31
218.477203
12
-43.913193
22
241.980164
32
218.118500
13
-47.677437
23
241.517441
33
223.127518
0
3DFACE
8
0
70
0
10
-31.894794
20
208.293457
30
238.598114
11
-19.966816
21
209.804428
31
219.133087
12
-22.245668
22
192.479248
32
218.033173
13
-34.681450
23
181.832733
33
236.839417
0
3DFACE
8
0
70
0
10
-43.364948
20
247.633789
30
218.477203
11
-46.316059
21
258.053528
31
224.194214
12
-28.224215
22
241.459686
32
240.737381
13
-18.447609
23
221.112717
33
219.839478
0
3DFACE
8
0
70
0
10
-43.913193
20
241.980164
30
218.118500
11
-43.364948
21
247.633789
31
218.477203
12
-18.447609
22
221.112717
32
219.839478
13
-19.966816
23
209.804428
33
219.133087
0
3DFACE
8
0
70
0
10
-47.677437
20
241.517441
30
223.127518
11
-43.913193
21
241.980164
31
218.118500
12
-19.966816
22
209.804428
32
219.133087
13
-31.894794
23
208.293457
33
238.598114
0
3DFACE
8
0
70
0
10
-47.677437
20
241.517441
30
223.127518
11
-31.894794
21
208.293457
31
238.598114
12
-28.224215
22
241.459686
32
240.737381
13
-46.316059
23
258.053528
33
224.194214
0
3DFACE
8
0
70
0
10
-16.007376
20
233.988342
30
230.521606
11
-28.224215
21
241.459686
31
240.737381
12
3.118210
22
249.417725
32
241.369095
13
-4.273499
23
236.902664
33
230.759323
0
3DFACE
8
0
70
0
10
-5.416225
20
226.712479
30
219.666245
11
-4.273499
21
236.902664
31
230.759323
12
3.118210
22
249.417725
32
241.369095
13
2.217831
23
221.430832
33
212.109802
0
3DFACE
8
0
70
0
10
-12.601035
20
226.586395
30
222.603851
11
-5.416225
21
226.712479
31
219.666245
12
2.217831
22
221.430832
32
212.109802
13
-18.447609
23
221.112717
33
219.839478
0
3DFACE
8
0
70
0
10
-12.601035
20
226.586395
30
222.603851
11
-18.447609
21
221.112717
31
219.839478
12
-28.224215
22
241.459686
32
240.737381
13
-16.007376
23
233.988342
33
230.521606
0
3DFACE
8
0
70
0
10
-45.084778
20
310.009918
30
188.706955
11
-41.944042
21
306.664459
31
189.004684
12
-46.676575
22
304.817749
32
187.471756
13
-47.829819
23
307.258575
33
187.713760
0
3DFACE
8
0
70
0
10
-4.273499
20
236.902664
30
230.759323
11
-5.416225
21
226.712479
31
219.666245
12
-49.407307
22
258.657990
32
209.724762
13
-47.321499
23
268.151642
33
216.348083
0
3DFACE
8
0
70
0
10
-54.399921
20
260.739838
30
211.068542
11
-61.611263
21
270.913483
31
206.268890
12
-56.676804
22
267.019989
32
205.979721
13
-49.407307
23
258.657990
33
209.724762
0
3DFACE
8
0
70
0
10
-47.321499
20
268.151642
30
216.348083
11
-49.407307
21
258.657990
31
209.724762
12
-56.676804
22
267.019989
32
205.979721
13
-53.779339
23
275.688477
33
211.372879
0
3DFACE
8
0
70
0
10
-86.018196
20
277.094025
30
183.651993
11
-84.872734
21
281.730408
31
183.530762
12
-85.184387
22
280.320892
32
181.170380
13
-85.867783
23
275.691284
33
180.998825
0
3DFACE
8
0
70
0
10
-16.007376
20
233.988342
30
230.521606
11
-55.541641
21
267.808716
31
215.941071
12
-54.399921
22
260.739838
32
211.068542
13
-12.601035
23
226.586395
33
222.603851
0
3DFACE
8
0
70
0
10
-55.541641
20
267.808716
30
215.941071
11
-47.321499
21
268.151642
31
216.348083
12
-53.779339
22
275.688477
32
211.372879
13
-62.017899
23
278.092682
33
209.771561
0
3DFACE
8
0
70
0
10
-12.601035
20
226.586395
30
222.603851
11
-54.399921
21
260.739838
31
211.068542
12
-49.407307
22
258.657990
32
209.724762
13
-5.416225
23
226.712479
33
219.666245
0
3DFACE
8
0
70
0
10
-51.690281
20
294.549683
30
199.341507
11
-47.153320
21
293.273956
31
198.279846
12
-47.373158
22
296.261078
32
196.097137
13
-50.726425
23
301.295776
33
195.149323
0
3DFACE
8
0
70
0
10
-62.017899
20
278.092682
30
209.771561
11
-53.779339
21
275.688477
31
211.372879
12
-47.153320
22
293.273956
32
198.279846
13
-51.690281
23
294.549683
33
199.341507
0
3DFACE
8
0
70
0
10
-53.653656
20
291.438751
30
196.334732
11
-53.641594
21
298.263733
31
193.084549
12
-52.671421
22
294.441467
32
192.960464
13
-52.046112
23
290.013550
33
195.036392
0
3DFACE
8
0
70
0
10
-61.611263
20
270.913483
30
206.268890
11
-53.653656
21
291.438751
31
196.334732
12
-52.046112
22
290.013550
32
195.036392
13
-56.676804
23
267.019989
33
205.979721
0
3DFACE
8
0
70
0
10
-32.534317
20
293.189178
30
185.936386
11
-34.103519
21
295.245087
31
185.498535
12
-31.836641
22
297.085175
32
187.261063
13
-30.803055
23
295.556671
33
187.959885
0
3DFACE
8
0
70
0
10
-56.676804
20
267.019989
30
205.979721
11
-52.046112
21
290.013550
31
195.036392
12
-47.153320
22
293.273956
32
198.279846
13
-53.779339
23
275.688477
33
211.372879
0
3DFACE
8
0
70
0
10
-51.690281
20
294.549683
30
199.341507
11
-50.726425
21
301.295776
31
195.149323
12
-53.641594
22
298.263733
32
193.084549
13
-53.653656
23
291.438751
33
196.334732
0
3DFACE
8
0
70
0
10
-61.611263
20
270.913483
30
206.268890
11
-62.017899
21
278.092682
31
209.771561
12
-51.690281
22
294.549683
32
199.341507
13
-53.653656
23
291.438751
33
196.334732
0
3DFACE
8
0
70
0
10
-48.462265
20
304.799011
30
192.561218
11
-43.704437
21
303.299164
31
191.300812
12
-41.944042
22
306.664459
32
189.004684
13
-45.084778
23
310.009918
33
188.706955
0
3DFACE
8
0
70
0
10
-47.373158
20
296.261078
30
196.097137
11
-52.671421
21
294.441467
31
192.960464
12
-48.679482
22
301.358521
32
189.303345
13
-43.704437
23
303.299164
33
191.300812
0
3DFACE
8
0
70
0
10
-52.671421
20
294.441467
30
192.960464
11
-53.641594
21
298.263733
31
193.084549
12
-50.806168
22
302.658478
32
190.462250
13
-48.679482
23
301.358521
33
189.303345
0
3DFACE
8
0
70
0
10
-60.046398
20
298.953491
30
178.462112
11
-59.162453
21
300.207886
31
181.098892
12
-56.906776
22
302.519653
32
181.139435
13
-57.447994
23
301.761597
33
178.842484
0
3DFACE
8
0
70
0
10
-47.373158
20
296.261078
30
196.097137
11
-43.704437
21
303.299164
31
191.300812
12
-48.462265
22
304.799011
32
192.561218
13
-50.726425
23
301.295776
33
195.149323
0
3DFACE
8
0
70
0
10
-43.704437
20
303.299164
30
191.300812
11
-48.679482
21
301.358521
31
189.303345
12
-46.676575
22
304.817749
32
187.471756
13
-41.944042
23
306.664459
33
189.004684
0
3DFACE
8
0
70
0
10
-50.806168
20
302.658478
30
190.462250
11
-47.829819
21
307.258575
31
187.713760
12
-46.676575
22
304.817749
32
187.471756
13
-48.679482
23
301.358521
33
189.303345
0
3DFACE
8
0
70
0
10
-48.462265
20
304.799011
30
192.561218
11
-45.084778
21
310.009918
31
188.706955
12
-47.829819
22
307.258575
32
187.713760
13
-50.806168
23
302.658478
33
190.462250
0
3DFACE
8
0
70
0
10
-55.541641
20
267.808716
30
215.941071
11
-62.017899
21
278.092682
31
209.771561
12
-65.329346
22
275.309875
32
208.243881
13
-59.481838
23
266.065491
33
213.798462
0
3DFACE
8
0
70
0
10
-62.017899
20
278.092682
30
209.771561
11
-61.611263
21
270.913483
31
206.268890
12
-64.954819
22
268.845825
32
205.095398
13
-65.329346
23
275.309875
33
208.243881
0
3DFACE
8
0
70
0
10
-61.611263
20
270.913483
30
206.268890
11
-54.399921
21
260.739838
31
211.068542
12
-58.447361
22
259.699005
32
209.416702
13
-64.954819
23
268.845825
33
205.095398
0
3DFACE
8
0
70
0
10
-54.399921
20
260.739838
30
211.068542
11
-55.541641
21
267.808716
31
215.941071
12
-59.481838
22
266.065491
32
213.798462
13
-58.447361
23
259.699005
33
209.416702
0
3DFACE
8
0
70
0
10
-59.481838
20
266.065491
30
213.798462
11
-65.329346
21
275.309875
31
208.243881
12
-67.893967
22
272.607910
32
207.339249
13
-65.601845
23
262.492676
33
211.183624
0
3DFACE
8
0
70
0
10
-65.329346
20
275.309875
30
208.243881
11
-64.954819
21
268.845825
31
205.095398
12
-68.283318
22
267.475464
32
203.434708
13
-67.893967
23
272.607910
33
207.339249
0
3DFACE
8
0
70
0
10
-64.954819
20
268.845825
30
205.095398
11
-58.447361
21
259.699005
31
209.416702
12
-65.191795
22
257.487152
32
206.304123
13
-68.283318
23
267.475464
33
203.434708
0
3DFACE
8
0
70
0
10
-58.447361
20
259.699005
30
209.416702
11
-59.481838
21
266.065491
31
213.798462
12
-65.601845
22
262.492676
32
211.183624
13
-65.191795
23
257.487152
33
206.304123
0
3DFACE
8
0
70
0
10
-65.601845
20
262.492676
30
211.183624
11
-67.893967
21
272.607910
31
207.339249
12
-69.329247
22
272.386169
32
205.682297
13
-70.929970
23
262.593536
33
206.653183
0
3DFACE
8
0
70
0
10
-67.893967
20
272.607910
30
207.339249
11
-68.283318
21
267.475464
31
203.434708
12
-70.009331
22
269.083038
32
200.980118
13
-69.329247
23
272.386169
33
205.682297
0
3DFACE
8
0
70
0
10
-68.283318
20
267.475464
30
203.434708
11
-65.191795
21
257.487152
31
206.304123
12
-70.681152
22
259.341522
32
201.285431
13
-70.009331
23
269.083038
33
200.980118
0
3DFACE
8
0
70
0
10
-65.191795
20
257.487152
30
206.304123
11
-65.601845
21
262.492676
31
211.183624
12
-70.929970
22
262.593536
32
206.653183
13
-70.681152
23
259.341522
33
201.285431
0
3DFACE
8
0
70
0
10
-70.929970
20
262.593536
30
206.653183
11
-69.329247
21
272.386169
31
205.682297
12
-71.568199
22
273.209106
32
202.709961
13
-73.397766
23
264.438446
33
203.237656
0
3DFACE
8
0
70
0
10
-69.329247
20
272.386169
30
205.682297
11
-70.009331
21
269.083038
31
200.980118
12
-72.171127
22
270.411346
32
198.362015
13
-71.568199
23
273.209106
33
202.709961
0
3DFACE
8
0
70
0
10
-70.009331
20
269.083038
30
200.980118
11
-70.681152
21
259.341522
31
201.285431
12
-73.145973
22
261.670868
32
198.316727
13
-72.171127
23
270.411346
33
198.362015
0
3DFACE
8
0
70
0
10
-70.681152
20
259.341522
30
201.285431
11
-70.929970
21
262.593536
31
206.653183
12
-73.397766
22
264.438446
32
203.237656
13
-73.145973
23
261.670868
33
198.316727
0
3DFACE
8
0
70
0
10
-73.397766
20
264.438446
30
203.237656
11
-71.568199
21
273.209106
31
202.709961
12
-74.185974
22
273.707123
32
199.717560
13
-75.832024
23
265.811249
33
200.192307
0
3DFACE
8
0
70
0
10
-71.568199
20
273.209106
30
202.709961
11
-72.171127
21
270.411346
31
198.362015
12
-74.728180
22
271.188263
32
195.804276
13
-74.185974
23
273.707123
33
199.717560
0
3DFACE
8
0
70
0
10
-72.171127
20
270.411346
30
198.362015
11
-73.145973
21
261.670868
31
198.316727
12
-75.605179
22
263.319092
32
195.763382
13
-74.728180
23
271.188263
33
195.804276
0
3DFACE
8
0
70
0
10
-73.145973
20
261.670868
30
198.316727
11
-73.397766
21
264.438446
31
203.237656
12
-75.832024
22
265.811249
32
200.192307
13
-75.605179
23
263.319092
33
195.763382
0
3DFACE
8
0
70
0
10
-75.832024
20
265.811249
30
200.192307
11
-74.185974
21
273.707123
31
199.717560
12
-76.317688
22
274.541321
32
196.936127
13
-78.443611
23
267.591003
33
196.731812
0
3DFACE
8
0
70
0
10
-74.185974
20
273.707123
30
199.717560
11
-74.728180
21
271.188263
31
195.804276
12
-76.759857
22
272.591187
32
193.229080
13
-76.317688
23
274.541321
33
196.936127
0
3DFACE
8
0
70
0
10
-74.728180
20
271.188263
30
195.804276
11
-75.605179
21
263.319092
31
195.763382
12
-78.164619
22
265.633331
32
192.606186
13
-76.759857
23
272.591187
33
193.229080
0
3DFACE
8
0
70
0
10
-75.605179
20
263.319092
30
195.763382
11
-75.832024
21
265.811249
31
200.192307
12
-78.443611
22
267.591003
32
196.731812
13
-78.164619
23
265.633331
33
192.606186
0
3DFACE
8
0
70
0
10
-78.443611
20
267.591003
30
196.731812
11
-76.317688
21
274.541321
31
196.936127
12
-78.011536
22
275.675995
32
194.346436
13
-80.439743
23
269.649902
33
193.586029
0
3DFACE
8
0
70
0
10
-76.317688
20
274.541321
30
196.936127
11
-76.759857
21
272.591187
31
193.229080
12
-78.334152
22
274.205994
32
190.871353
13
-78.011536
23
275.675995
33
194.346436
0
3DFACE
8
0
70
0
10
-76.759857
20
272.591187
30
193.229080
11
-78.164619
21
265.633331
31
192.606186
12
-80.092949
22
268.140259
32
189.773621
13
-78.334152
23
274.205994
33
190.871353
0
3DFACE
8
0
70
0
10
-78.164619
20
265.633331
30
192.606186
11
-78.443611
21
267.591003
31
196.731812
12
-80.439743
22
269.649902
32
193.586029
13
-80.092949
23
268.140259
33
189.773621
0
3DFACE
8
0
70
0
10
-80.439743
20
269.649902
30
193.586029
11
-78.011536
21
275.675995
31
194.346436
12
-79.841431
22
277.847626
32
190.965393
13
-82.116341
23
272.475037
33
190.174179
0
3DFACE
8
0
70
0
10
-78.011536
20
275.675995
30
194.346436
11
-78.334152
21
274.205994
31
190.871353
12
-80.114288
22
276.576599
32
187.815201
13
-79.841431
23
277.847626
33
190.965393
0
3DFACE
8
0
70
0
10
-78.334152
20
274.205994
30
190.871353
11
-80.092949
21
268.140259
31
189.773621
12
-81.783501
22
271.161469
32
186.727478
13
-80.114288
23
276.576599
33
187.815201
0
3DFACE
8
0
70
0
10
-80.092949
20
268.140259
30
189.773621
11
-80.439743
21
269.649902
31
193.586029
12
-82.116341
22
272.475037
32
190.174179
13
-81.783501
23
271.161469
33
186.727478
0
3DFACE
8
0
70
0
10
-82.116341
20
272.475037
30
190.174179
11
-79.841431
21
277.847626
31
190.965393
12
-82.307053
22
280.333069
32
186.890564
13
-83.949005
23
275.294861
33
186.648544
0
3DFACE
8
0
70
0
10
-79.841431
20
277.847626
30
190.965393
11
-80.114288
21
276.576599
31
187.815201
12
-82.619377
22
278.956390
32
184.163620
13
-82.307053
23
280.333069
33
186.890564
0
3DFACE
8
0
70
0
10
-80.114288
20
276.576599
30
187.815201
11
-81.783501
21
271.161469
31
186.727478
12
-83.731766
22
273.906464
32
183.623001
13
-82.619377
23
278.956390
33
184.163620
0
3DFACE
8
0
70
0
10
-81.783501
20
271.161469
30
186.727478
11
-82.116341
21
272.475037
31
190.174179
12
-83.949005
22
275.294861
32
186.648544
13
-83.731766
23
273.906464
33
183.623001
0
3DFACE
8
0
70
0
10
-83.949005
20
275.294861
30
186.648544
11
-82.307053
21
280.333069
31
186.890564
12
-84.872734
22
281.730408
32
183.530762
13
-86.018196
23
277.094025
33
183.651993
0
3DFACE
8
0
70
0
10
-82.307053
20
280.333069
30
186.890564
11
-82.619377
21
278.956390
31
184.163620
12
-85.184387
22
280.320892
32
181.170380
13
-84.872734
23
281.730408
33
183.530762
0
3DFACE
8
0
70
0
10
-82.619377
20
278.956390
30
184.163620
11
-83.731766
21
273.906464
31
183.623001
12
-85.867783
22
275.691284
32
180.998825
13
-85.184387
23
280.320892
33
181.170380
0
3DFACE
8
0
70
0
10
-83.731766
20
273.906464
30
183.623001
11
-83.949005
21
275.294861
31
186.648544
12
-86.018196
22
277.094025
32
183.651993
13
-85.867783
23
275.691284
33
180.998825
0
3DFACE
8
0
70
0
10
-52.046112
20
290.013550
30
195.036392
11
-52.671421
21
294.441467
31
192.960464
12
-48.561108
22
292.501862
32
191.714890
13
-47.538601
23
288.509705
33
193.359665
0
3DFACE
8
0
70
0
10
-52.671421
20
294.441467
30
192.960464
11
-47.373158
21
296.261078
31
196.097137
12
-43.923626
22
294.485535
32
194.533218
13
-48.561108
23
292.501862
33
191.714890
0
3DFACE
8
0
70
0
10
-47.373158
20
296.261078
30
196.097137
11
-47.153320
21
293.273956
31
198.279846
12
-43.396839
22
291.736816
32
196.348602
13
-43.923626
23
294.485535
33
194.533218
0
3DFACE
8
0
70
0
10
-47.153320
20
293.273956
30
198.279846
11
-52.046112
21
290.013550
31
195.036392
12
-47.538601
22
288.509705
32
193.359665
13
-43.396839
23
291.736816
33
196.348602
0
3DFACE
8
0
70
0
10
-47.538601
20
288.509705
30
193.359665
11
-48.561108
21
292.501862
31
191.714890
12
-45.812206
22
291.929047
32
190.827072
13
-44.620377
23
288.361542
33
192.169327
0
3DFACE
8
0
70
0
10
-48.561108
20
292.501862
30
191.714890
11
-43.923626
21
294.485535
31
194.533218
12
-41.734211
22
293.913239
32
193.370895
13
-45.812206
23
291.929047
33
190.827072
0
3DFACE
8
0
70
0
10
-43.923626
20
294.485535
30
194.533218
11
-43.396839
21
291.736816
31
196.348602
12
-41.062763
22
291.424561
32
194.911026
13
-41.734211
23
293.913239
33
193.370895
0
3DFACE
8
0
70
0
10
-43.396839
20
291.736816
30
196.348602
11
-47.538601
21
288.509705
31
193.359665
12
-44.620377
22
288.361542
32
192.169327
13
-41.062763
23
291.424561
33
194.911026
0
3DFACE
8
0
70
0
10
-44.620377
20
288.361542
30
192.169327
11
-45.812206
21
291.929047
31
190.827072
12
-42.921700
22
290.775055
32
189.950760
13
-40.935951
23
287.856171
33
190.653290
0
3DFACE
8
0
70
0
10
-45.812206
20
291.929047
30
190.827072
11
-41.734211
21
293.913239
31
193.370895
12
-39.705902
22
293.192505
32
192.337372
13
-42.921700
23
290.775055
33
189.950760
0
3DFACE
8
0
70
0
10
-41.734211
20
293.913239
30
193.370895
11
-41.062763
21
291.424561
31
194.911026
12
-38.417515
22
291.046936
32
193.369446
13
-39.705902
23
293.192505
33
192.337372
0
3DFACE
8
0
70
0
10
-41.062763
20
291.424561
30
194.911026
11
-44.620377
21
288.361542
31
192.169327
12
-40.935951
22
287.856171
32
190.653290
13
-38.417515
23
291.046936
33
193.369446
0
3DFACE
8
0
70
0
10
-40.935951
20
287.856171
30
190.653290
11
-42.921700
21
290.775055
31
189.950760
12
-39.734856
22
291.983337
32
188.428467
13
-37.062244
23
290.139221
33
188.470749
0
3DFACE
8
0
70
0
10
-42.921700
20
290.775055
30
189.950760
11
-39.705902
21
293.192505
31
192.337372
12
-37.595928
22
294.682861
32
190.842743
13
-39.734856
23
291.983337
33
188.428467
0
3DFACE
8
0
70
0
10
-39.705902
20
293.192505
30
192.337372
11
-38.417515
21
291.046936
31
193.369446
12
-35.722694
22
293.192261
32
191.334000
13
-37.595928
23
294.682861
33
190.842743
0
3DFACE
8
0
70
0
10
-38.417515
20
291.046936
30
193.369446
11
-40.935951
21
287.856171
31
190.653290
12
-37.062244
22
290.139221
32
188.470749
13
-35.722694
23
293.192261
33
191.334000
0
3DFACE
8
0
70
0
10
-37.062244
20
290.139221
30
188.470749
11
-39.734856
21
291.983337
31
188.428467
12
-37.080284
22
294.275879
32
186.923615
13
-34.886318
23
292.358276
33
187.116425
0
3DFACE
8
0
70
0
10
-39.734856
20
291.983337
30
188.428467
11
-37.595928
21
294.682861
31
190.842743
12
-34.928116
22
296.592438
32
189.007721
13
-37.080284
23
294.275879
33
186.923615
0
3DFACE
8
0
70
0
10
-37.595928
20
294.682861
30
190.842743
11
-35.722694
21
293.192261
31
191.334000
12
-33.419792
22
295.096191
32
189.567581
13
-34.928116
23
296.592438
33
189.007721
0
3DFACE
8
0
70
0
10
-35.722694
20
293.192261
30
191.334000
11
-37.062244
21
290.139221
31
188.470749
12
-34.886318
22
292.358276
32
187.116425
13
-33.419792
23
295.096191
33
189.567581
0
3DFACE
8
0
70
0
10
-34.886318
20
292.358276
30
187.116425
11
-37.080284
21
294.275879
31
186.923615
12
-34.103519
22
295.245087
32
185.498535
13
-32.534317
23
293.189178
33
185.936386
0
3DFACE
8
0
70
0
10
-37.080284
20
294.275879
30
186.923615
11
-34.928116
21
296.592438
31
189.007721
12
-31.836641
22
297.085175
32
187.261063
13
-34.103519
23
295.245087
33
185.498535
0
3DFACE
8
0
70
0
10
-34.928116
20
296.592438
30
189.007721
11
-33.419792
21
295.096191
31
189.567581
12
-30.803055
22
295.556671
32
187.959885
13
-31.836641
23
297.085175
33
187.261063
0
3DFACE
8
0
70
0
10
-33.419792
20
295.096191
30
189.567581
11
-34.886318
21
292.358276
31
187.116425
12
-32.534317
22
293.189178
32
185.936386
13
-30.803055
23
295.556671
33
187.959885
0
3DFACE
8
0
70
0
10
-53.641594
20
298.263733
30
193.084549
11
-50.726425
21
301.295776
31
195.149323
12
-54.216526
22
300.276306
32
192.165878
13
-56.669010
23
297.705963
33
189.906326
0
3DFACE
8
0
70
0
10
-50.726425
20
301.295776
30
195.149323
11
-48.462265
21
304.799011
31
192.561218
12
-51.881378
22
303.492249
32
190.224182
13
-54.216526
23
300.276306
33
192.165878
0
3DFACE
8
0
70
0
10
-48.462265
20
304.799011
30
192.561218
11
-50.806168
21
302.658478
31
190.462250
12
-53.804764
22
301.712372
32
188.028610
13
-51.881378
23
303.492249
33
190.224182
0
3DFACE
8
0
70
0
10
-50.806168
20
302.658478
30
190.462250
11
-53.641594
21
298.263733
31
193.084549
12
-56.669010
22
297.705963
32
189.906326
13
-53.804764
23
301.712372
33
188.028610
0
3DFACE
8
0
70
0
10
-56.669010
20
297.705963
30
189.906326
11
-54.216526
21
300.276306
31
192.165878
12
-56.324383
22
299.801605
32
189.668808
13
-58.011646
23
297.879120
33
186.891785
0
3DFACE
8
0
70
0
10
-54.216526
20
300.276306
30
192.165878
11
-51.881378
21
303.492249
31
190.224182
12
-53.746498
22
302.732666
32
188.850739
13
-56.324383
23
299.801605
33
189.668808
0
3DFACE
8
0
70
0
10
-51.881378
20
303.492249
30
190.224182
11
-53.804764
21
301.712372
31
188.028610
12
-54.963501
22
301.478027
32
186.332062
13
-53.746498
23
302.732666
33
188.850739
0
3DFACE
8
0
70
0
10
-53.804764
20
301.712372
30
188.028610
11
-56.669010
21
297.705963
31
189.906326
12
-58.011646
22
297.879120
32
186.891785
13
-54.963501
23
301.478027
33
186.332062
0
3DFACE
8
0
70
0
10
-58.011646
20
297.879120
30
186.891785
11
-56.324383
21
299.801605
31
189.668808
12
-58.076389
22
299.897125
32
185.147980
13
-59.159290
23
298.443481
33
182.282211
0
3DFACE
8
0
70
0
10
-56.324383
20
299.801605
30
189.668808
11
-53.746498
21
302.732666
31
188.850739
12
-55.589752
22
302.484222
32
185.055130
13
-58.076389
23
299.897125
33
185.147980
0
3DFACE
8
0
70
0
10
-53.746498
20
302.732666
30
188.850739
11
-54.963501
21
301.478027
31
186.332062
12
-56.282104
22
301.591583
32
182.542816
13
-55.589752
23
302.484222
33
185.055130
0
3DFACE
8
0
70
0
10
-54.963501
20
301.478027
30
186.332062
11
-58.011646
21
297.879120
31
186.891785
12
-59.159290
22
298.443481
32
182.282211
13
-56.282104
23
301.591583
33
182.542816
0
3DFACE
8
0
70
0
10
-59.159290
20
298.443481
30
182.282211
11
-58.076389
21
299.897125
31
185.147980
12
-59.162453
22
300.207886
32
181.098892
13
-60.046398
23
298.953491
33
178.462112
0
3DFACE
8
0
70
0
10
-58.076389
20
299.897125
30
185.147980
11
-55.589752
21
302.484222
31
185.055130
12
-56.906776
22
302.519653
32
181.139435
13
-59.162453
23
300.207886
33
181.098892
0
3DFACE
8
0
70
0
10
-55.589752
20
302.484222
30
185.055130
11
-56.282104
21
301.591583
31
182.542816
12
-57.447994
22
301.761597
32
178.842484
13
-56.906776
23
302.519653
33
181.139435
0
3DFACE
8
0
70
0
10
-56.282104
20
301.591583
30
182.542816
11
-59.159290
21
298.443481
31
182.282211
12
-60.046398
22
298.953491
32
178.462112
13
-57.447994
23
301.761597
33
178.842484
0
3DFACE
8
0
70
0
10
11.805998
20
111.183372
30
-62.329693
11
42.693867
21
98.902763
31
-52.739120
12
-1.411314
22
101.440918
32
-68.976265
13
-1.382576
23
110.523323
33
-65.873596
0
3DFACE
8
0
70
0
10
11.805998
20
111.183372
30
-62.329693
11
9.761072
21
119.031723
31
-55.690197
12
37.147675
22
120.276825
32
-44.774502
13
42.693867
23
98.902763
33
-52.739120
0
3DFACE
8
0
70
0
10
9.761072
20
119.031723
30
-55.690197
11
-1.269356
21
120.187744
31
-57.747787
12
-1.218037
22
126.890060
32
-53.700310
13
37.147675
23
120.276825
33
-44.774502
0
3DFACE
8
0
70
0
10
-12.216529
20
118.979378
30
-55.316166
11
-39.219650
21
120.094894
31
-43.474846
12
-1.218037
22
126.890060
32
-53.700310
13
-1.269356
23
120.187744
33
-57.747787
0
3DFACE
8
0
70
0
10
-14.445463
20
111.120827
30
-61.882935
11
-44.920460
21
98.694069
31
-51.248055
12
-39.219650
22
120.094894
32
-43.474846
13
-12.216529
23
118.979378
33
-55.316166
0
3DFACE
8
0
70
0
10
-14.445463
20
111.120827
30
-61.882935
11
-1.382576
21
110.523323
31
-65.873596
12
-1.411314
22
101.440918
32
-68.976265
13
-44.920460
23
98.694069
33
-51.248055
0
3DFACE
8
0
70
0
10
-1.575986
20
106.308235
30
-77.825653
11
13.455411
21
113.268684
31
-75.734657
12
11.805998
22
111.183372
32
-62.329693
13
-1.382576
23
110.523323
33
-65.873596
0
3DFACE
8
0
70
0
10
13.455411
20
113.268684
30
-75.734657
11
11.212599
21
129.111649
31
-65.816170
12
9.761072
22
119.031723
32
-55.690197
13
11.805998
23
111.183372
33
-62.329693
0
3DFACE
8
0
70
0
10
11.212599
20
129.111649
30
-65.816170
11
-1.428208
21
135.828430
31
-64.567001
12
-1.269356
22
120.187744
32
-57.747787
13
9.761072
23
119.031723
33
-55.690197
0
3DFACE
8
0
70
0
10
-14.068173
20
129.051422
30
-65.385933
11
-12.216529
21
118.979378
31
-55.316166
12
-1.269356
22
120.187744
32
-57.747787
13
-1.428208
23
135.828430
33
-64.567001
0
3DFACE
8
0
70
0
10
-16.564219
20
113.197166
30
-75.223770
11
-14.445463
21
111.120827
31
-61.882935
12
-12.216529
22
118.979378
32
-55.316166
13
-14.068173
23
129.051422
33
-65.385933
0
3DFACE
8
0
70
0
10
-1.575986
20
106.308235
30
-77.825653
11
-1.382576
21
110.523323
31
-65.873596
12
-14.445463
22
111.120827
32
-61.882935
13
-16.564219
23
113.197166
33
-75.223770
0
3DFACE
8
0
70
0
10
-1.795213
20
126.042267
30
-87.527107
11
1.539486
21
127.233536
31
-87.380402
12
13.455411
22
113.268684
32
-75.734657
13
-1.575986
23
106.308235
33
-77.825653
0
3DFACE
8
0
70
0
10
1.539486
20
127.233536
30
-87.380402
11
1.066046
21
135.897690
31
-85.986702
12
11.212599
22
129.111649
32
-65.816170
13
13.455411
23
113.268684
33
-75.734657
0
3DFACE
8
0
70
0
10
1.066046
20
135.897690
30
-85.986702
11
-1.794664
21
136.705765
31
-85.821938
12
-1.428208
22
135.828430
32
-64.567001
13
11.212599
23
129.111649
33
-65.816170
0
3DFACE
8
0
70
0
10
-4.654970
20
135.884048
30
-85.889336
11
-14.068173
21
129.051422
31
-65.385933
12
-1.428208
22
135.828430
32
-64.567001
13
-1.794664
23
136.705765
33
-85.821938
0
3DFACE
8
0
70
0
10
-5.129301
20
127.217644
30
-87.266899
11
-16.564219
21
113.197166
31
-75.223770
12
-14.068173
22
129.051422
32
-65.385933
13
-4.654970
23
135.884048
33
-85.889336
0
3DFACE
8
0
70
0
10
-1.795213
20
126.042267
30
-87.527107
11
-1.575986
21
106.308235
31
-77.825653
12
-16.564219
22
113.197166
32
-75.223770
13
-5.129301
23
127.217644
33
-87.266899
0
3DFACE
8
0
70
0
10
2.697473
20
237.498383
30
264.315521
11
1.845676
21
209.026688
31
291.542175
12
25.874508
22
203.234650
32
291.003662
13
29.386530
23
229.957321
33
263.802795
0
3DFACE
8
0
70
0
10
0.826392
20
164.180969
30
259.333527
11
32.625423
21
178.663605
31
260.355194
12
28.811302
22
168.545212
32
292.707733
13
0.724765
23
157.690384
33
292.292969
0
3DFACE
8
0
70
0
10
2.697473
20
237.498383
30
264.315521
11
-24.417791
21
231.572098
31
263.944092
12
-22.453447
22
204.473389
32
291.094025
13
1.845676
23
209.026688
33
291.542175
0
3DFACE
8
0
70
0
10
0.826392
20
164.180969
30
259.333527
11
0.724765
21
157.690384
31
292.292969
12
-26.950317
22
169.617050
32
292.764893
13
-30.367924
23
179.969696
33
260.430664
0
3DFACE
8
0
70
0
10
33.851124
20
239.511200
30
240.557510
11
3.118210
21
249.417725
31
241.369095
12
2.697473
22
237.498383
32
264.315521
13
29.386530
23
229.957321
33
263.802795
0
3DFACE
8
0
70
0
10
33.851124
20
239.511200
30
240.557510
11
29.386530
21
229.957321
31
263.802795
12
32.625423
22
178.663605
32
260.355194
13
37.002071
23
180.344589
33
236.753281
0
3DFACE
8
0
70
0
10
37.002071
20
180.344589
30
236.753281
11
32.625423
21
178.663605
31
260.355194
12
0.826392
22
164.180969
32
259.333527
13
0.695875
23
157.353775
33
239.425705
0
3DFACE
8
0
70
0
10
-28.224215
20
241.459686
30
240.737381
11
-24.417791
21
231.572098
31
263.944092
12
2.697473
22
237.498383
32
264.315521
13
3.118210
23
249.417725
33
241.369095
0
3DFACE
8
0
70
0
10
-28.224215
20
241.459686
30
240.737381
11
-34.681450
21
181.832733
31
236.839417
12
-30.367924
22
179.969696
32
260.430664
13
-24.417791
23
231.572098
33
263.944092
0
3DFACE
8
0
70
0
10
-34.681450
20
181.832733
30
236.839417
11
0.695875
21
157.353775
31
239.425705
12
0.826392
22
164.180969
32
259.333527
13
-30.367924
23
179.969696
33
260.430664
0
3DFACE
8
0
70
0
10
14.259138
20
226.511093
30
282.374146
11
17.717442
21
229.826813
31
281.062256
12
14.411418
22
231.301605
32
281.161316
13
14.411418
23
231.301605
33
281.161316
0
3DFACE
8
0
70
0
10
14.259138
20
226.511093
30
282.374146
11
18.998985
21
226.471771
31
280.840820
12
17.717442
22
229.826813
32
281.062256
13
17.717442
23
229.826813
33
281.062256
0
3DFACE
8
0
70
0
10
17.508316
20
223.200043
30
280.625793
11
18.998985
21
226.471771
31
280.840820
12
14.259138
22
226.511093
32
282.374146
13
14.259138
23
226.511093
33
282.374146
0
3DFACE
8
0
70
0
10
14.118727
20
221.924438
30
280.543060
11
17.508316
21
223.200043
31
280.625793
12
14.259138
22
226.511093
32
282.374146
13
14.259138
23
226.511093
33
282.374146
0
3DFACE
8
0
70
0
10
14.118727
20
221.924438
30
280.543060
11
14.259138
21
226.511093
31
282.374146
12
10.812833
22
223.394150
32
280.642090
13
10.812833
23
223.394150
33
280.642090
0
3DFACE
8
0
70
0
10
10.812833
20
223.394150
30
280.642090
11
14.259138
21
226.511093
31
282.374146
12
9.527103
22
226.751770
32
280.864868
13
9.527103
23
226.751770
33
280.864868
0
3DFACE
8
0
70
0
10
14.259138
20
226.511093
30
282.374146
11
11.017644
21
230.028625
31
281.079987
12
9.527103
22
226.751770
32
280.864868
13
9.527103
23
226.751770
33
280.864868
0
3DFACE
8
0
70
0
10
14.259138
20
226.511093
30
282.374146
11
14.411418
21
231.301605
31
281.161316
12
11.017644
22
230.028625
32
281.079987
13
11.017644
23
230.028625
33
281.079987
0
3DFACE
8
0
70
0
10
17.717442
20
229.826813
30
281.062256
11
19.865448
21
232.074860
31
277.207977
12
14.516372
22
234.463165
32
277.368195
13
14.411418
23
231.301605
33
281.161316
0
3DFACE
8
0
70
0
10
18.998985
20
226.471771
30
280.840820
11
21.936192
21
226.648834
31
276.850677
12
19.865448
22
232.074860
32
277.207977
13
17.717442
23
229.826813
33
281.062256
0
3DFACE
8
0
70
0
10
19.523531
20
221.358856
30
276.502960
11
21.936192
21
226.648834
31
276.850677
12
18.998985
22
226.471771
32
280.840820
13
17.508316
23
223.200043
33
280.625793
0
3DFACE
8
0
70
0
10
14.040842
20
219.294067
30
276.368469
11
19.523531
21
221.358856
31
276.502960
12
17.508316
22
223.200043
32
280.625793
13
14.118727
23
221.924438
33
280.543060
0
3DFACE
8
0
70
0
10
14.040842
20
219.294067
30
276.368469
11
14.118727
21
221.924438
31
280.543060
12
10.812833
22
223.394150
32
280.642090
13
8.692081
23
221.668945
33
276.528625
0
3DFACE
8
0
70
0
10
8.692081
20
221.668945
30
276.528625
11
10.812833
21
223.394150
31
280.642090
12
9.527103
22
226.751770
32
280.864868
13
6.610361
23
227.101822
33
276.889557
0
3DFACE
8
0
70
0
10
9.527103
20
226.751770
30
280.864868
11
11.017644
21
230.028625
31
281.079987
12
9.022705
22
232.405243
32
277.237396
13
6.610361
23
227.101822
33
276.889557
0
3DFACE
8
0
70
0
10
11.017644
20
230.028625
30
281.079987
11
14.411418
21
231.301605
31
281.161316
12
14.516372
22
234.463165
32
277.368195
13
9.022705
23
232.405243
33
277.237396
0
3DFACE
8
0
70
0
10
19.865448
20
232.074860
30
277.207977
11
19.878973
21
232.399063
31
272.284790
12
14.530271
22
234.786774
32
272.444916
13
14.516372
23
234.463165
33
277.368195
0
3DFACE
8
0
70
0
10
21.936192
20
226.648834
30
276.850677
11
21.948841
21
226.974609
31
271.927765
12
19.878973
22
232.399063
32
272.284790
13
19.865448
23
232.074860
33
277.207977
0
3DFACE
8
0
70
0
10
19.523531
20
221.358856
30
276.502960
11
19.535328
21
221.686142
31
271.580353
12
21.948841
22
226.974609
32
271.927765
13
21.936192
23
226.648834
33
276.850677
0
3DFACE
8
0
70
0
10
14.040842
20
219.294067
30
276.368469
11
14.052294
21
219.622009
31
271.445953
12
19.535328
22
221.686142
32
271.580353
13
19.523531
23
221.358856
33
276.502960
0
3DFACE
8
0
70
0
10
14.040842
20
219.294067
30
276.368469
11
8.692081
21
221.668945
31
276.528625
12
8.703877
22
221.996262
32
271.606018
13
14.052294
23
219.622009
33
271.445953
0
3DFACE
8
0
70
0
10
8.692081
20
221.668945
30
276.528625
11
6.610361
21
227.101822
31
276.889557
12
6.623009
22
227.427582
32
271.966675
13
8.703877
23
221.996262
33
271.606018
0
3DFACE
8
0
70
0
10
6.610361
20
227.101822
30
276.889557
11
9.022705
21
232.405243
31
277.237396
12
9.036231
22
232.729492
32
272.314240
13
6.623009
23
227.427582
33
271.966675
0
3DFACE
8
0
70
0
10
9.022705
20
232.405243
30
277.237396
11
14.516372
21
234.463165
31
277.368195
12
14.530271
22
234.786774
32
272.444916
13
9.036231
23
232.729492
33
272.314240
0
3DFACE
8
0
70
0
10
17.751966
20
230.677155
30
268.173401
11
14.446537
21
232.150940
31
268.272247
12
14.530271
22
234.786774
32
272.444916
13
19.878973
23
232.399063
33
272.284790
0
3DFACE
8
0
70
0
10
21.948841
20
226.974609
30
271.927765
11
19.032101
21
227.324646
31
267.952454
12
17.751966
22
230.677155
32
268.173401
13
19.878973
23
232.399063
33
272.284790
0
3DFACE
8
0
70
0
10
19.535328
20
221.686142
30
271.580353
11
17.540045
21
224.055405
31
267.737885
12
19.032101
22
227.324646
32
267.952454
13
21.948841
23
226.974609
33
271.927765
0
3DFACE
8
0
70
0
10
14.052294
20
219.622009
30
271.445953
11
14.149888
21
222.780869
31
267.655304
12
17.540045
22
224.055405
32
267.737885
13
19.535328
23
221.686142
33
271.580353
0
3DFACE
8
0
70
0
10
14.052294
20
219.622009
30
271.445953
11
8.703877
21
221.996262
31
271.606018
12
10.844561
22
224.249481
32
267.754150
13
14.149888
23
222.780869
33
267.655304
0
3DFACE
8
0
70
0
10
8.703877
20
221.996262
30
271.606018
11
6.623009
21
227.427582
31
271.966675
12
9.560216
22
227.604614
32
267.976501
13
10.844561
23
224.249481
33
267.754150
0
3DFACE
8
0
70
0
10
6.623009
20
227.427582
30
271.966675
11
9.036231
21
232.729492
31
272.314240
12
11.052171
22
230.878998
32
268.191132
13
9.560216
23
227.604614
33
267.976501
0
3DFACE
8
0
70
0
10
11.052171
20
230.878998
30
268.191132
11
9.036231
21
232.729492
31
272.314240
12
14.530271
22
234.786774
32
272.444916
13
14.446537
23
232.150940
33
268.272247
0
3DFACE
8
0
70
0
10
14.300067
20
227.565292
30
266.443207
11
14.446537
21
232.150940
31
268.272247
12
17.751966
22
230.677155
32
268.173401
13
17.751966
23
230.677155
33
268.173401
0
3DFACE
8
0
70
0
10
19.032101
20
227.324646
30
267.952454
11
14.300067
21
227.565292
31
266.443207
12
17.751966
22
230.677155
32
268.173401
13
17.751966
23
230.677155
33
268.173401
0
3DFACE
8
0
70
0
10
17.540045
20
224.055405
30
267.737885
11
14.300067
21
227.565292
31
266.443207
12
19.032101
22
227.324646
32
267.952454
13
19.032101
23
227.324646
33
267.952454
0
3DFACE
8
0
70
0
10
14.149888
20
222.780869
30
267.655304
11
14.300067
21
227.565292
31
266.443207
12
17.540045
22
224.055405
32
267.737885
13
17.540045
23
224.055405
33
267.737885
0
3DFACE
8
0
70
0
10
14.149888
20
222.780869
30
267.655304
11
10.844561
21
224.249481
31
267.754150
12
14.300067
22
227.565292
32
266.443207
13
14.300067
23
227.565292
33
266.443207
0
3DFACE
8
0
70
0
10
10.844561
20
224.249481
30
267.754150
11
9.560216
21
227.604614
31
267.976501
12
14.300067
22
227.565292
32
266.443207
13
14.300067
23
227.565292
33
266.443207
0
3DFACE
8
0
70
0
10
9.560216
20
227.604614
30
267.976501
11
11.052171
21
230.878998
31
268.191132
12
14.300067
22
227.565292
32
266.443207
13
14.300067
23
227.565292
33
266.443207
0
3DFACE
8
0
70
0
10
14.300067
20
227.565292
30
266.443207
11
11.052171
21
230.878998
31
268.191132
12
14.446537
22
232.150940
32
268.272247
13
14.446537
23
232.150940
33
268.272247
0
3DFACE
8
0
70
0
10
0.274035
20
177.395798
30
348.521973
11
0.419531
21
184.451050
31
346.767517
12
-4.522696
22
182.539154
32
346.634735
13
-4.522696
23
182.539154
33
346.634735
0
3DFACE
8
0
70
0
10
0.274035
20
177.395798
30
348.521973
11
-4.522696
21
182.539154
31
346.634735
12
-6.649723
22
177.698685
32
346.298523
13
-6.649723
23
177.698685
33
346.298523
0
3DFACE
8
0
70
0
10
-4.715063
20
172.772690
30
345.955719
11
0.274035
21
177.395798
31
348.521973
12
-6.649723
22
177.698685
32
346.298523
13
-6.649723
23
177.698685
33
346.298523
0
3DFACE
8
0
70
0
10
0.142728
20
170.651825
30
345.808838
11
0.274035
21
177.395798
31
348.521973
12
-4.715063
22
172.772690
32
345.955719
13
-4.715063
23
172.772690
33
345.955719
0
3DFACE
8
0
70
0
10
0.142728
20
170.651825
30
345.808838
11
5.077401
21
172.571030
31
345.944122
12
0.274035
22
177.395798
32
348.521973
13
0.274035
23
177.395798
33
348.521973
0
3DFACE
8
0
70
0
10
5.077401
20
172.571030
30
345.944122
11
7.203613
21
177.400711
31
346.280609
12
0.274035
22
177.395798
32
348.521973
13
0.274035
23
177.395798
33
348.521973
0
3DFACE
8
0
70
0
10
0.274035
20
177.395798
30
348.521973
11
7.203613
21
177.400711
31
346.280609
12
5.276508
22
182.319489
32
346.620911
13
5.276508
23
182.319489
33
346.620911
0
3DFACE
8
0
70
0
10
0.274035
20
177.395798
30
348.521973
11
5.276508
21
182.319489
31
346.620911
12
0.419531
22
184.451050
32
346.767517
13
0.419531
23
184.451050
33
346.767517
0
3DFACE
8
0
70
0
10
-4.522696
20
182.539154
30
346.634735
11
0.419531
21
184.451050
31
346.767517
12
0.521044
22
189.116959
32
341.216431
13
-7.480008
23
186.028244
33
341.003021
0
3DFACE
8
0
70
0
10
-6.649723
20
177.698685
30
346.298523
11
-4.522696
21
182.539154
31
346.634735
12
-7.480008
22
186.028244
32
341.003021
13
-10.923015
23
178.193710
33
340.459534
0
3DFACE
8
0
70
0
10
-7.790060
20
170.222473
30
339.903992
11
-4.715063
21
172.772690
31
345.955719
12
-6.649723
22
177.698685
32
346.298523
13
-10.923015
23
178.193710
33
340.459534
0
3DFACE
8
0
70
0
10
0.070144
20
166.797470
30
339.666290
11
0.142728
21
170.651825
31
345.808838
12
-4.715063
22
172.772690
32
345.955719
13
-7.790060
23
170.222473
33
339.903992
0
3DFACE
8
0
70
0
10
0.070144
20
166.797470
30
339.666290
11
8.051350
21
169.905228
31
339.886353
12
5.077401
22
172.571030
32
345.944122
13
0.142728
23
170.651825
33
345.808838
0
3DFACE
8
0
70
0
10
8.051350
20
169.905228
30
339.886353
11
11.492150
21
177.711517
31
340.430542
12
7.203613
22
177.400711
32
346.280609
13
5.077401
23
172.571030
33
345.944122
0
3DFACE
8
0
70
0
10
7.203613
20
177.400711
30
346.280609
11
11.492150
21
177.711517
31
340.430542
12
8.379045
22
185.663834
32
340.979492
13
5.276508
23
182.319489
33
346.620911
0
3DFACE
8
0
70
0
10
5.276508
20
182.319489
30
346.620911
11
8.379045
21
185.663834
31
340.979492
12
0.521044
22
189.116959
32
341.216431
13
0.419531
23
184.451050
33
346.767517
0
3DFACE
8
0
70
0
10
-7.480008
20
186.028244
30
341.003021
11
0.521044
21
189.116959
31
341.216431
12
0.532469
22
189.609924
32
333.991577
13
-7.469189
23
186.522675
33
333.778381
0
3DFACE
8
0
70
0
10
-10.923015
20
178.193710
30
340.459534
11
-7.480008
21
186.028244
31
341.003021
12
-7.469189
22
186.522675
32
333.778381
13
-10.913593
23
178.691757
33
333.235352
0
3DFACE
8
0
70
0
10
-7.790060
20
170.222473
30
339.903992
11
-10.923015
21
178.193710
31
340.459534
12
-10.913593
22
178.691757
32
333.235352
13
-7.781943
23
170.724136
33
332.680237
0
3DFACE
8
0
70
0
10
0.070144
20
166.797470
30
339.666290
11
-7.790060
21
170.222473
31
339.903992
12
-7.781943
22
170.724136
32
332.680237
13
0.077748
23
167.300659
33
332.442719
0
3DFACE
8
0
70
0
10
0.070144
20
166.797470
30
339.666290
11
0.077748
21
167.300659
31
332.442719
12
8.059465
22
170.406906
32
332.662598
13
8.051350
23
169.905228
33
339.886353
0
3DFACE
8
0
70
0
10
8.051350
20
169.905228
30
339.886353
11
8.059465
21
170.406906
31
332.662598
12
11.501571
22
178.209595
32
333.206360
13
11.492150
23
177.711517
33
340.430542
0
3DFACE
8
0
70
0
10
11.492150
20
177.711517
30
340.430542
11
11.501571
21
178.209595
31
333.206360
12
8.389865
22
186.158325
32
333.754852
13
8.379045
23
185.663834
33
340.979492
0
3DFACE
8
0
70
0
10
8.379045
20
185.663834
30
340.979492
11
8.389865
21
186.158325
31
333.754852
12
0.532469
22
189.609924
32
333.991577
13
0.521044
23
189.116959
33
341.216431
0
3DFACE
8
0
70
0
10
-4.495798
20
183.837234
30
327.720764
11
-7.469189
21
186.522675
31
333.778381
12
0.532469
22
189.609924
32
333.991577
13
0.447380
23
185.746735
33
327.853180
0
3DFACE
8
0
70
0
10
-10.913593
20
178.691757
30
333.235352
11
-7.469189
21
186.522675
31
333.778381
12
-4.495798
22
183.837234
32
327.720764
13
-6.625058
23
179.002579
33
327.385284
0
3DFACE
8
0
70
0
10
-7.781943
20
170.724136
30
332.680237
11
-10.913593
21
178.691757
31
333.235352
12
-6.625058
22
179.002579
32
327.385284
13
-4.692539
23
174.082489
33
327.043182
0
3DFACE
8
0
70
0
10
0.077748
20
167.300659
30
332.442719
11
-7.781943
21
170.724136
31
332.680237
12
-4.692539
22
174.082489
32
327.043182
13
0.164393
23
171.964066
33
326.896606
0
3DFACE
8
0
70
0
10
0.077748
20
167.300659
30
332.442719
11
0.164393
21
171.964066
31
326.896606
12
5.099925
22
173.880814
32
327.031616
13
8.059465
23
170.406906
33
332.662598
0
3DFACE
8
0
70
0
10
8.059465
20
170.406906
30
332.662598
11
5.099925
21
173.880814
31
327.031616
12
7.228276
22
178.704605
32
327.367371
13
11.501571
23
178.209595
33
333.206360
0
3DFACE
8
0
70
0
10
11.501571
20
178.209595
30
333.206360
11
7.228276
21
178.704605
31
327.367371
12
5.303405
22
183.617538
32
327.706909
13
8.389865
23
186.158325
33
333.754852
0
3DFACE
8
0
70
0
10
5.303405
20
183.617538
30
327.706909
11
0.447380
21
185.746735
31
327.853180
12
0.532469
22
189.609924
32
333.991577
13
8.389865
23
186.158325
33
333.754852
0
3DFACE
8
0
70
0
10
0.304521
20
179.007507
30
325.143890
11
-4.495798
21
183.837234
31
327.720764
12
0.447380
22
185.746735
32
327.853180
13
0.447380
23
185.746735
33
327.853180
0
3DFACE
8
0
70
0
10
-6.625058
20
179.002579
30
327.385284
11
-4.495798
21
183.837234
31
327.720764
12
0.304521
22
179.007507
32
325.143890
13
0.304521
23
179.007507
33
325.143890
0
3DFACE
8
0
70
0
10
-4.692539
20
174.082489
30
327.043182
11
-6.625058
21
179.002579
31
327.385284
12
0.304521
22
179.007507
32
325.143890
13
0.304521
23
179.007507
33
325.143890
0
3DFACE
8
0
70
0
10
0.164393
20
171.964066
30
326.896606
11
-4.692539
21
174.082489
31
327.043182
12
0.304521
22
179.007507
32
325.143890
13
0.304521
23
179.007507
33
325.143890
0
3DFACE
8
0
70
0
10
0.164393
20
171.964066
30
326.896606
11
0.304521
21
179.007507
31
325.143890
12
5.099925
22
173.880814
32
327.031616
13
5.099925
23
173.880814
33
327.031616
0
3DFACE
8
0
70
0
10
5.099925
20
173.880814
30
327.031616
11
0.304521
21
179.007507
31
325.143890
12
7.228276
22
178.704605
32
327.367371
13
7.228276
23
178.704605
33
327.367371
0
3DFACE
8
0
70
0
10
7.228276
20
178.704605
30
327.367371
11
0.304521
21
179.007507
31
325.143890
12
5.303405
22
183.617538
32
327.706909
13
5.303405
23
183.617538
33
327.706909
0
3DFACE
8
0
70
0
10
0.304521
20
179.007507
30
325.143890
11
0.447380
21
185.746735
31
327.853180
12
5.303405
22
183.617538
32
327.706909
13
5.303405
23
183.617538
33
327.706909
0
3DFACE
8
0
70
0
10
-9.550741
20
227.214844
30
282.434601
11
-9.409453
21
232.024765
31
281.225433
12
-12.799975
22
230.746124
32
281.143066
13
-12.799975
23
230.746124
33
281.143066
0
3DFACE
8
0
70
0
10
-9.550741
20
227.214844
30
282.434601
11
-12.799975
21
230.746124
31
281.143066
12
-14.282773
22
227.455521
32
280.925385
13
-14.282773
23
227.455521
33
280.925385
0
3DFACE
8
0
70
0
10
-12.989452
20
224.084045
30
280.700012
11
-9.550741
21
227.214844
31
282.434601
12
-14.282773
22
227.455521
32
280.925385
13
-14.282773
23
227.455521
33
280.925385
0
3DFACE
8
0
70
0
10
-9.680459
20
222.608597
30
280.599976
11
-9.550741
21
227.214844
31
282.434601
12
-12.989452
22
224.084045
32
280.700012
13
-12.989452
23
224.084045
33
280.700012
0
3DFACE
8
0
70
0
10
-9.680459
20
222.608597
30
280.599976
11
-6.293970
21
223.889969
31
280.683716
12
-9.550741
22
227.214844
32
282.434601
13
-9.550741
23
227.214844
33
282.434601
0
3DFACE
8
0
70
0
10
-6.293970
20
223.889969
30
280.683716
11
-4.810890
21
227.175522
31
280.901306
12
-9.550741
22
227.214844
32
282.434601
13
-9.550741
23
227.214844
33
282.434601
0
3DFACE
8
0
70
0
10
-9.550741
20
227.214844
30
282.434601
11
-4.810890
21
227.175522
31
280.901306
12
-6.100178
22
230.544281
32
281.125305
13
-6.100178
23
230.544281
33
281.125305
0
3DFACE
8
0
70
0
10
-9.550741
20
227.214844
30
282.434601
11
-6.100178
21
230.544281
31
281.125305
12
-9.409453
22
232.024765
32
281.225433
13
-9.409453
23
232.024765
33
281.225433
0
3DFACE
8
0
70
0
10
-12.799975
20
230.746124
30
281.143066
11
-9.409453
21
232.024765
31
281.225433
12
-9.311441
22
235.198196
32
277.434662
13
-14.799771
23
233.131149
33
277.302063
0
3DFACE
8
0
70
0
10
-14.282773
20
227.455521
30
280.925385
11
-12.799975
21
230.746124
31
281.143066
12
-14.799771
22
233.131149
32
277.302063
13
-17.199514
23
227.805557
33
276.950073
0
3DFACE
8
0
70
0
10
-15.105586
20
222.350266
30
276.585022
11
-12.989452
21
224.084045
31
280.700012
12
-14.282773
22
227.455521
32
280.925385
13
-17.199514
23
227.805557
33
276.950073
0
3DFACE
8
0
70
0
10
-9.751888
20
219.966034
30
276.423248
11
-9.680459
21
222.608597
31
280.599976
12
-12.989452
22
224.084045
32
280.700012
13
-15.105586
23
222.350266
33
276.585022
0
3DFACE
8
0
70
0
10
-9.751888
20
219.966034
30
276.423248
11
-4.274137
21
222.040176
31
276.559326
12
-6.293970
22
223.889969
32
280.683716
13
-9.680459
23
222.608597
33
280.599976
0
3DFACE
8
0
70
0
10
-4.274137
20
222.040176
30
276.559326
11
-1.873683
21
227.352585
31
276.911133
12
-4.810890
22
227.175522
32
280.901306
13
-6.293970
23
223.889969
33
280.683716
0
3DFACE
8
0
70
0
10
-4.810890
20
227.175522
30
280.901306
11
-1.873683
21
227.352585
31
276.911133
12
-3.957030
22
232.800766
32
277.272614
13
-6.100178
23
230.544281
33
281.125305
0
3DFACE
8
0
70
0
10
-6.100178
20
230.544281
30
281.125305
11
-3.957030
21
232.800766
31
277.272614
12
-9.311441
22
235.198196
32
277.434662
13
-9.409453
23
232.024765
33
281.225433
0
3DFACE
8
0
70
0
10
-14.799771
20
233.131149
30
277.302063
11
-9.311441
21
235.198196
31
277.434662
12
-9.297544
22
235.521805
32
272.511353
13
-14.786245
23
233.455383
33
272.378906
0
3DFACE
8
0
70
0
10
-17.199514
20
227.805557
30
276.950073
11
-14.799771
21
233.131149
31
277.302063
12
-14.786245
22
233.455383
32
272.378906
13
-17.186865
23
228.131332
33
272.027161
0
3DFACE
8
0
70
0
10
-15.105586
20
222.350266
30
276.585022
11
-17.199514
21
227.805557
31
276.950073
12
-17.186865
22
228.131332
32
272.027161
13
-15.093789
23
222.677612
33
271.662415
0
3DFACE
8
0
70
0
10
-9.751888
20
219.966034
30
276.423248
11
-15.105586
21
222.350266
31
276.585022
12
-15.093789
22
222.677612
32
271.662415
13
-9.740436
23
220.293991
33
271.500732
0
3DFACE
8
0
70
0
10
-9.751888
20
219.966034
30
276.423248
11
-9.740436
21
220.293991
31
271.500732
12
-4.262340
22
222.367493
32
271.636749
13
-4.274137
23
222.040176
33
276.559326
0
3DFACE
8
0
70
0
10
-4.274137
20
222.040176
30
276.559326
11
-4.262340
21
222.367493
31
271.636749
12
-1.861035
22
227.678345
32
271.988220
13
-1.873683
23
227.352585
33
276.911133
0
3DFACE
8
0
70
0
10
-1.873683
20
227.352585
30
276.911133
11
-1.861035
21
227.678345
31
271.988220
12
-3.943503
22
233.125000
32
272.349457
13
-3.957030
23
232.800766
33
277.272614
0
3DFACE
8
0
70
0
10
-3.957030
20
232.800766
30
277.272614
11
-3.943503
21
233.125000
31
272.349457
12
-9.297544
22
235.521805
32
272.511353
13
-9.311441
23
235.198196
33
277.434662
0
3DFACE
8
0
70
0
10
-12.765449
20
231.596436
30
268.254211
11
-14.786245
21
233.455383
31
272.378906
12
-9.297544
22
235.521805
32
272.511353
13
-9.374333
23
232.874039
33
268.336395
0
3DFACE
8
0
70
0
10
-17.186865
20
228.131332
30
272.027161
11
-14.786245
21
233.455383
31
272.378906
12
-12.765449
22
231.596436
32
268.254211
13
-14.249660
23
228.308365
33
268.036987
0
3DFACE
8
0
70
0
10
-15.093789
20
222.677612
30
271.662415
11
-17.186865
21
228.131332
31
272.027161
12
-14.249660
22
228.308365
32
268.036987
13
-12.957726
23
224.939377
33
267.812103
0
3DFACE
8
0
70
0
10
-9.740436
20
220.293991
30
271.500732
11
-15.093789
21
222.677612
31
271.662415
12
-12.957726
22
224.939377
32
267.812103
13
-9.649298
23
223.465057
33
267.712219
0
3DFACE
8
0
70
0
10
-9.740436
20
220.293991
30
271.500732
11
-9.649298
21
223.465057
31
267.712219
12
-6.262242
22
224.745331
32
267.795807
13
-4.262340
23
222.367493
33
271.636749
0
3DFACE
8
0
70
0
10
-4.262340
20
222.367493
30
271.636749
11
-6.262242
21
224.745331
31
267.795807
12
-4.777777
22
228.028397
32
268.012909
13
-1.861035
23
227.678345
33
271.988220
0
3DFACE
8
0
70
0
10
-1.861035
20
227.678345
30
271.988220
11
-4.777777
21
228.028397
31
268.012909
12
-6.065653
22
231.394638
32
268.236450
13
-3.943503
23
233.125000
33
272.349457
0
3DFACE
8
0
70
0
10
-6.065653
20
231.394638
30
268.236450
11
-9.374333
21
232.874039
31
268.336395
12
-9.297544
22
235.521805
32
272.511353
13
-3.943503
23
233.125000
33
272.349457
0
3DFACE
8
0
70
0
10
-9.509810
20
228.269043
30
266.503693
11
-12.765449
21
231.596436
31
268.254211
12
-9.374333
22
232.874039
32
268.336395
13
-9.374333
23
232.874039
33
268.336395
0
3DFACE
8
0
70
0
10
-14.249660
20
228.308365
30
268.036987
11
-12.765449
21
231.596436
31
268.254211
12
-9.509810
22
228.269043
32
266.503693
13
-9.509810
23
228.269043
33
266.503693
0
3DFACE
8
0
70
0
10
-12.957726
20
224.939377
30
267.812103
11
-14.249660
21
228.308365
31
268.036987
12
-9.509810
22
228.269043
32
266.503693
13
-9.509810
23
228.269043
33
266.503693
0
3DFACE
8
0
70
0
10
-9.649298
20
223.465057
30
267.712219
11
-12.957726
21
224.939377
31
267.812103
12
-9.509810
22
228.269043
32
266.503693
13
-9.509810
23
228.269043
33
266.503693
0
3DFACE
8
0
70
0
10
-9.649298
20
223.465057
30
267.712219
11
-9.509810
21
228.269043
31
266.503693
12
-6.262242
22
224.745331
32
267.795807
13
-6.262242
23
224.745331
33
267.795807
0
3DFACE
8
0
70
0
10
-6.262242
20
224.745331
30
267.795807
11
-9.509810
21
228.269043
31
266.503693
12
-4.777777
22
228.028397
32
268.012909
13
-4.777777
23
228.028397
33
268.012909
0
3DFACE
8
0
70
0
10
-4.777777
20
228.028397
30
268.012909
11
-9.509810
21
228.269043
31
266.503693
12
-6.065653
22
231.394638
32
268.236450
13
-6.065653
23
231.394638
33
268.236450
0
3DFACE
8
0
70
0
10
-9.509810
20
228.269043
30
266.503693
11
-9.374333
21
232.874039
31
268.336395
12
-6.065653
22
231.394638
32
268.236450
13
-6.065653
23
231.394638
33
268.236450
0
3DFACE
8
0
70
0
10
28.811302
20
168.545212
30
292.707733
11
32.625423
21
178.663605
31
260.355194
12
29.386530
22
229.957321
32
263.802795
13
25.874508
23
203.234650
33
291.003662
0
3DFACE
8
0
70
0
10
-26.950317
20
169.617050
30
292.764893
11
-22.453447
21
204.473389
31
291.094025
12
-24.417791
22
231.572098
32
263.944092
13
-30.367924
23
179.969696
33
260.430664
0
3DFACE
8
0
70
0
10
49.189568
20
-50.323795
30
-58.925941
11
46.848373
21
6.897779
31
-58.318516
12
53.354912
22
4.854204
32
-53.945477
13
56.181801
23
-50.323795
33
-58.925941
0
3DFACE
8
0
70
0
10
46.848373
20
6.897779
30
-58.318516
11
49.189568
21
-50.323795
31
-58.925941
12
42.814663
22
-50.465538
32
-58.925941
13
39.908531
23
5.192626
33
-54.669678
0
3DFACE
8
0
70
0
10
42.814663
20
-50.465538
30
-58.925941
11
45.150337
21
-50.473328
31
-58.925941
12
41.896290
22
3.710036
32
-51.497101
13
39.908531
23
5.192626
33
-54.669678
0
3DFACE
8
0
70
0
10
53.354912
20
4.854204
30
-53.945477
11
65.126823
21
-5.051296
31
3.266989
12
65.126823
22
-53.108974
32
-9.378736
13
56.181801
23
-50.323795
33
-58.925941
0
3DFACE
8
0
70
0
10
45.150337
20
-50.473328
30
-58.925941
11
49.189568
21
-52.207554
31
-9.378736
12
38.668346
22
-5.970864
32
8.037398
13
41.896290
23
3.710036
33
-51.497101
0
3DFACE
8
0
70
0
10
65.541504
20
76.597107
30
23.381279
11
28.462858
21
38.878269
31
24.930880
12
38.668346
22
-5.970864
32
8.037398
13
65.126823
23
-5.051296
33
3.266989
0
3DFACE
8
0
70
0
10
-46.848373
20
6.897779
30
-58.318516
11
-39.908531
21
5.192626
31
-54.669678
12
-42.814663
22
-50.465538
32
-58.925941
13
-49.189568
23
-50.323795
33
-58.925941
0
3DFACE
8
0
70
0
10
-39.908531
20
5.192626
30
-54.669678
11
-39.010170
21
50.371326
31
-42.185879
12
-40.146828
22
32.980228
32
-24.311434
13
-41.896290
23
3.710036
33
-51.497101
0
3DFACE
8
0
70
0
10
-53.354912
20
4.854204
30
-53.945477
11
-56.181801
21
-50.323795
31
-58.925941
12
-65.126823
22
-53.108974
32
-9.378736
13
-65.126823
23
-5.051296
33
3.266989
0
3DFACE
8
0
70
0
10
-45.150337
20
-50.473328
30
-58.925941
11
-41.896290
21
3.710036
31
-51.497101
12
-38.668346
22
-5.970864
32
8.037398
13
-49.189568
23
-52.207554
33
-9.378736
0
3DFACE
8
0
70
0
10
-65.126823
20
-5.051296
30
3.266989
11
-65.126823
21
-53.108974
31
-9.378736
12
-49.189568
22
-52.207554
32
-9.378736
13
-38.668346
23
-5.970864
33
8.037398
0
3DFACE
8
0
70
0
10
42.693867
20
98.902763
30
-52.739120
11
73.609238
21
85.983452
31
-25.662220
12
53.354912
22
4.854204
32
-53.945477
13
46.848373
23
6.897779
33
-58.318516
0
3DFACE
8
0
70
0
10
42.693867
20
98.902763
30
-52.739120
11
46.848373
21
6.897779
31
-58.318516
12
39.908531
22
5.192626
32
-54.669678
13
37.357155
23
50.553246
33
-43.485531
0
3DFACE
8
0
70
0
10
37.357155
20
50.553246
30
-43.485531
11
39.908531
21
5.192626
31
-54.669678
12
41.896290
22
3.710036
32
-51.497101
13
40.146828
23
32.980228
33
-24.311434
0
3DFACE
8
0
70
0
10
65.541504
20
76.597107
30
23.381279
11
65.126823
21
-5.051296
31
3.266989
12
53.354912
22
4.854204
32
-53.945477
13
73.609238
23
85.983452
33
-25.662220
0
3DFACE
8
0
70
0
10
38.668346
20
-5.970864
30
8.037398
11
28.462858
21
38.878269
31
24.930880
12
40.146828
22
32.980228
32
-24.311434
13
41.896290
23
3.710036
33
-51.497101
0
3DFACE
8
0
70
0
10
65.126823
20
-5.051296
30
3.266989
11
38.668346
21
-5.970864
31
8.037398
12
49.189568
22
-52.207554
32
-9.378736
13
65.126823
23
-53.108974
33
-9.378736
0
3DFACE
8
0
70
0
10
-44.920460
20
98.694069
30
-51.248055
11
-46.848373
21
6.897779
31
-58.318516
12
-53.354912
22
4.854204
32
-53.945477
13
-74.820618
23
85.629875
33
-23.136169
0
3DFACE
8
0
70
0
10
-49.189568
20
-50.323795
30
-58.925941
11
-56.181801
21
-50.323795
31
-58.925941
12
-53.354912
22
4.854204
32
-53.945477
13
-46.848373
23
6.897779
33
-58.318516
0
3DFACE
8
0
70
0
10
-44.920460
20
98.694069
30
-51.248055
11
-39.010170
21
50.371326
31
-42.185879
12
-39.908531
22
5.192626
32
-54.669678
13
-46.848373
23
6.897779
33
-58.318516
0
3DFACE
8
0
70
0
10
-42.814663
20
-50.465538
30
-58.925941
11
-39.908531
21
5.192626
31
-54.669678
12
-41.896290
22
3.710036
32
-51.497101
13
-45.150337
23
-50.473328
33
-58.925941
0
3DFACE
8
0
70
0
10
-65.027512
20
76.286072
30
25.603363
11
-74.820618
21
85.629875
31
-23.136169
12
-53.354912
22
4.854204
32
-53.945477
13
-65.126823
23
-5.051296
33
3.266989
0
3DFACE
8
0
70
0
10
-38.668346
20
-5.970864
30
8.037398
11
-41.896290
21
3.710036
31
-51.497101
12
-40.146828
22
32.980228
32
-24.311434
13
-28.462858
23
38.878269
33
24.930880
0
3DFACE
8
0
70
0
10
-65.027512
20
76.286072
30
25.603363
11
-65.126823
21
-5.051296
31
3.266989
12
-38.668346
22
-5.970864
32
8.037398
13
-28.462858
23
38.878269
33
24.930880
0
3DFACE
8
0
70
0
10
32.894840
20
170.120453
30
176.916153
11
0.818710
21
176.549438
31
173.801880
12
2.217831
22
221.430832
32
212.109802
13
22.825916
23
219.967682
33
219.748077
0
3DFACE
8
0
70
0
10
32.894840
20
170.120453
30
176.916153
11
22.825916
21
219.967682
31
219.748077
12
25.060854
22
191.412445
32
217.965652
13
35.203953
23
148.095322
33
188.631317
0
3DFACE
8
0
70
0
10
35.203953
20
148.095322
30
188.631317
11
25.060854
21
191.412445
31
217.965652
12
0.604456
22
152.353012
32
223.448151
13
0.238306
23
128.291229
33
204.678467
0
3DFACE
8
0
70
0
10
-31.446125
20
171.155746
30
176.961884
11
-18.447609
21
221.112717
31
219.839478
12
2.217831
22
221.430832
32
212.109802
13
0.818710
23
176.549438
33
173.801880
0
3DFACE
8
0
70
0
10
-31.446125
20
171.155746
30
176.961884
11
-34.353928
21
148.964569
31
188.660904
12
-22.245668
22
192.479248
32
218.033173
13
-18.447609
23
221.112717
33
219.839478
0
3DFACE
8
0
70
0
10
-34.353928
20
148.964569
30
188.660904
11
0.238306
21
128.291229
31
204.678467
12
0.604456
22
152.353012
32
223.448151
13
-22.245668
23
192.479248
33
218.033173
0
3DFACE
8
0
70
0
10
56.076111
20
56.678474
30
144.699158
11
42.814663
21
116.652969
31
125.714516
12
38.646744
22
150.189636
32
155.429367
13
43.234058
23
115.672424
33
165.740677
0
3DFACE
8
0
70
0
10
0.394181
20
156.359390
30
152.396255
11
-37.984264
21
151.022797
31
155.453949
12
-31.446125
22
171.155746
32
176.961884
13
0.818710
23
176.549438
33
173.801880
0
3DFACE
8
0
70
0
10
-56.076111
20
56.678474
30
144.699158
11
-43.119759
21
116.068153
31
165.745560
12
-37.984264
22
151.022797
32
155.453949
13
-42.814663
23
116.652969
33
125.714516
0
3DFACE
8
0
70
0
10
-56.076111
20
56.678474
30
144.699158
11
0.000000
21
53.237965
31
185.832397
12
0.000000
22
85.547699
32
189.667252
13
-43.119759
23
116.068153
33
165.745560
0
3DFACE
8
0
70
0
10
0.394181
20
156.359390
30
152.396255
11
0.818710
21
176.549438
31
173.801880
12
32.894840
22
170.120453
32
176.916153
13
38.646744
23
150.189636
33
155.429367
0
3DFACE
8
0
70
0
10
42.814663
20
116.652969
30
125.714516
11
0.000000
21
132.880707
31
127.359703
12
0.394181
22
156.359390
32
152.396255
13
38.646744
23
150.189636
33
155.429367
0
3DFACE
8
0
70
0
10
38.646744
20
150.189636
30
155.429367
11
32.894840
21
170.120453
31
176.916153
12
35.203953
22
148.095322
32
188.631317
13
43.234058
23
115.672424
33
165.740677
0
3DFACE
8
0
70
0
10
43.234058
20
115.672424
30
165.740677
11
35.203953
21
148.095322
31
188.631317
12
0.238306
22
128.291229
32
204.678467
13
0.000000
23
85.547699
33
189.667252
0
3DFACE
8
0
70
0
10
56.076111
20
56.678474
30
144.699158
11
43.234058
21
115.672424
31
165.740677
12
0.000000
22
85.547699
32
189.667252
13
0.000000
23
53.237965
33
185.832397
0
3DFACE
8
0
70
0
10
-42.814663
20
116.652969
30
125.714516
11
-37.984264
21
151.022797
31
155.453949
12
0.394181
22
156.359390
32
152.396255
13
0.000000
23
132.880707
33
127.359703
0
3DFACE
8
0
70
0
10
-43.119759
20
116.068153
30
165.745560
11
-34.353928
21
148.964569
31
188.660904
12
-31.446125
22
171.155746
32
176.961884
13
-37.984264
23
151.022797
33
155.453949
0
3DFACE
8
0
70
0
10
-43.119759
20
116.068153
30
165.745560
11
0.000000
21
85.547699
31
189.667252
12
0.238306
22
128.291229
32
204.678467
13
-34.353928
23
148.964569
33
188.660904
0
3DFACE
8
0
70
0
10
9.661984
20
236.475632
30
230.721024
11
21.183270
21
232.869232
31
230.423386
12
63.035553
22
263.635529
32
215.496857
13
54.862579
23
264.545013
33
215.962753
0
3DFACE
8
0
70
0
10
-55.541641
20
267.808716
30
215.941071
11
-16.007376
21
233.988342
31
230.521606
12
-4.273499
22
236.902664
32
230.759323
13
-47.321499
23
268.151642
33
216.348083
0
ENDSEC
0
EOF
