0
SECTION
2
HEADER
999
DXF File Generated by LightWave 3D(TM)
0
ENDSEC
0
SECTION
2
TABLES
0
ENDSEC
0
SECTION
2
BLOCKS
0
ENDSEC
0
SECTION
2
ENTITIES
0
3DFACE
8
0
70
0
10
0.000000
20
1.114544
30
142.931305
11
24.872625
21
8.023639
31
129.408813
12
55.391003
22
62.133720
32
142.931305
13
0.000000
23
58.603271
33
183.561981
0
3DFACE
8
0
70
0
10
-12.534324
20
184.374481
30
313.975525
11
-4.473607
21
190.463470
31
314.085907
12
-8.770291
22
199.996887
32
315.005707
13
-16.953756
23
198.705460
33
315.169678
0
3DFACE
8
0
70
0
10
15.965963
20
53.094509
30
-51.221725
11
22.172949
21
109.206261
31
-65.649269
12
59.613930
22
105.055054
32
-37.730282
13
49.798271
23
55.414406
33
-30.391504
0
3DFACE
8
0
70
0
10
28.089325
20
134.460007
30
-83.565804
11
28.080866
21
145.485962
31
-81.908356
12
30.822464
22
144.541550
32
-81.270287
13
31.284039
23
135.564835
33
-82.492729
0
3DFACE
8
0
70
0
10
47.443260
20
130.316071
30
31.298746
11
0.130671
21
147.024597
31
20.559240
12
0.000000
22
136.913193
32
92.966316
13
44.757996
23
126.049850
33
93.204948
0
3DFACE
8
0
70
0
10
0.000000
20
136.913193
30
92.966316
11
0.000000
21
140.328018
31
125.803688
12
42.291573
22
123.676048
32
124.178596
13
44.757996
23
126.049850
33
93.204948
0
3DFACE
8
0
70
0
10
28.115114
20
43.868191
30
24.626286
11
59.103809
21
81.827385
31
41.843513
12
55.841084
22
62.089233
32
94.144630
13
24.135109
23
12.394218
33
95.081139
0
3DFACE
8
0
70
0
10
64.978264
20
-150.620590
30
95.201019
11
45.956436
21
-150.620590
31
148.521408
12
29.440611
22
-150.620590
32
133.424957
13
35.517689
23
-150.620590
33
96.392899
0
3DFACE
8
0
70
0
10
59.103809
20
81.827385
30
41.843513
11
47.443260
21
130.316071
31
31.298746
12
44.757996
22
126.049850
32
93.204948
13
55.841084
23
62.089233
33
94.144630
0
3DFACE
8
0
70
0
10
55.841084
20
62.089233
30
94.144630
11
44.757996
21
126.049850
31
93.204948
12
42.291573
22
123.676048
32
124.178596
13
55.391003
23
62.133720
33
142.931305
0
3DFACE
8
0
70
0
10
0.000000
20
35.777550
30
24.626286
11
28.115114
21
43.868191
31
24.626286
12
24.135109
22
12.394218
32
95.081139
13
0.000000
23
1.778305
33
95.314331
0
3DFACE
8
0
70
0
10
0.000000
20
1.778305
30
95.314331
11
24.135109
21
12.394218
31
95.081139
12
24.872625
22
8.023639
32
129.408813
13
0.000000
23
1.114544
33
142.931305
0
3DFACE
8
0
70
0
10
10.032129
20
142.180939
30
-16.374382
11
48.465248
21
131.657593
31
-6.987114
12
53.026611
22
127.406258
32
-31.580725
13
19.194302
23
135.612061
33
-50.858238
0
3DFACE
8
0
70
0
10
0.130671
20
147.024597
30
20.559240
11
47.443260
21
130.316071
31
31.298746
12
48.465248
22
131.657593
32
-6.987114
13
10.032129
23
142.180939
33
-16.374382
0
3DFACE
8
0
70
0
10
63.035088
20
-149.349030
30
-43.582413
11
37.489258
21
-149.845947
31
-43.565620
12
32.080498
22
-149.820053
32
-44.085068
13
46.843018
23
-149.349030
33
-44.297729
0
3DFACE
8
0
70
0
10
83.749313
20
-150.852524
30
25.257740
11
46.843018
21
-151.202011
31
25.257740
12
37.489258
22
-149.845947
32
-43.565620
13
63.035088
23
-149.349030
33
-43.582413
0
3DFACE
8
0
70
0
10
80.967796
20
90.780617
30
-3.077135
11
59.613930
21
105.055054
31
-37.730282
12
53.026611
22
127.406258
32
-31.580725
13
48.465248
23
131.657593
33
-6.987114
0
3DFACE
8
0
70
0
10
47.443260
20
130.316071
30
31.298746
11
59.103809
21
81.827385
31
41.843513
12
80.967796
22
90.780617
32
-3.077135
13
48.465248
23
131.657593
33
-6.987114
0
3DFACE
8
0
70
0
10
0.000000
20
28.415195
30
-23.807909
11
15.965963
21
53.094509
31
-51.221725
12
49.798271
22
55.414406
32
-30.391504
13
39.656334
23
37.815964
33
-24.014410
0
3DFACE
8
0
70
0
10
28.115114
20
43.868191
30
24.626286
11
0.000000
21
35.777550
31
24.626286
12
0.000000
22
28.415195
32
-23.807909
13
39.656334
23
37.815964
33
-24.014410
0
3DFACE
8
0
70
0
10
57.488968
20
-78.889343
30
-70.666595
11
47.850834
21
-78.889343
31
-71.841454
12
48.588596
22
-47.665768
32
-58.206013
13
55.495399
23
-47.665768
33
-58.206013
0
3DFACE
8
0
70
0
10
39.063622
20
-79.248520
30
-71.492172
11
42.291573
21
-47.811218
31
-58.206013
12
48.588596
22
-47.665768
32
-58.206013
13
47.850834
23
-78.889343
33
-71.841454
0
3DFACE
8
0
70
0
10
42.283115
20
-79.268234
30
-70.639015
11
44.598713
21
-47.819214
31
-58.206013
12
42.291573
22
-47.811218
32
-58.206013
13
39.063622
23
-79.248520
33
-71.492172
0
3DFACE
8
0
70
0
10
69.818855
20
-78.940002
30
-38.212482
11
57.488968
21
-78.889343
31
-70.666595
12
55.495399
22
-47.665768
32
-58.206013
13
64.331139
23
-50.523758
33
-9.264153
0
3DFACE
8
0
70
0
10
47.850834
20
-79.315514
30
-38.212482
11
48.588596
21
-49.598774
31
-9.264153
12
44.598713
22
-47.819214
32
-58.206013
13
42.283115
23
-79.268234
33
-70.639015
0
3DFACE
8
0
70
0
10
47.850834
20
-79.315514
30
-38.212482
11
69.818855
21
-78.940002
31
-38.212482
12
64.331139
22
-50.523758
32
-9.264153
13
48.588596
23
-49.598774
33
-9.264153
0
3DFACE
8
0
70
0
10
57.488968
20
-106.681404
30
-47.750183
11
47.850834
21
-106.681404
31
-47.897041
12
47.850834
22
-78.889343
32
-71.841454
13
57.488968
23
-78.889343
33
-70.666595
0
3DFACE
8
0
70
0
10
39.063622
20
-107.079758
30
-47.853382
11
39.063622
21
-79.248520
31
-71.492172
12
47.850834
22
-78.889343
32
-71.841454
13
47.850834
23
-106.681404
33
-47.897041
0
3DFACE
8
0
70
0
10
42.283115
20
-107.101631
30
-47.746735
11
42.283115
21
-79.268234
31
-70.639015
12
39.063622
22
-79.248520
32
-71.492172
13
39.063622
23
-107.079758
33
-47.853382
0
3DFACE
8
0
70
0
10
69.818855
20
-107.499962
30
-17.509686
11
57.488968
21
-106.681404
31
-47.750183
12
57.488968
22
-78.889343
32
-70.666595
13
69.818855
23
-78.940002
33
-38.212482
0
3DFACE
8
0
70
0
10
47.850834
20
-107.875458
30
-17.509686
11
47.850834
21
-79.315514
31
-38.212482
12
42.283115
22
-79.268234
32
-70.639015
13
42.283115
23
-107.101631
33
-47.746735
0
3DFACE
8
0
70
0
10
47.850834
20
-107.875458
30
-17.509686
11
69.818855
21
-107.499962
31
-17.509686
12
69.818855
22
-78.940002
32
-38.212482
13
47.850834
23
-79.315514
33
-38.212482
0
3DFACE
8
0
70
0
10
63.035088
20
-149.349030
30
-43.582413
11
46.843018
21
-149.349030
31
-44.297729
12
47.850834
22
-106.681404
32
-47.897041
13
57.488968
23
-106.681404
33
-47.750183
0
3DFACE
8
0
70
0
10
32.080498
20
-149.820053
30
-44.085068
11
39.063622
21
-107.079758
31
-47.853382
12
47.850834
22
-106.681404
32
-47.897041
13
46.843018
23
-149.349030
33
-44.297729
0
3DFACE
8
0
70
0
10
37.489258
20
-149.845947
30
-43.565620
11
42.283115
21
-107.101631
31
-47.746735
12
39.063622
22
-107.079758
32
-47.853382
13
32.080498
23
-149.820053
33
-44.085068
0
3DFACE
8
0
70
0
10
83.749313
20
-150.852524
30
25.257740
11
63.035088
21
-149.349030
31
-43.582413
12
57.488968
22
-106.681404
32
-47.750183
13
69.818855
23
-107.499962
33
-17.509686
0
3DFACE
8
0
70
0
10
46.843018
20
-151.202011
30
25.257740
11
47.850834
21
-107.875458
31
-17.509686
12
42.283115
22
-107.101631
32
-47.746735
13
37.489258
23
-149.845947
33
-43.565620
0
3DFACE
8
0
70
0
10
46.843018
20
-151.202011
30
25.257740
11
83.749313
21
-150.852524
31
25.257740
12
69.818855
22
-107.499962
32
-17.509686
13
47.850834
23
-107.875458
33
-17.509686
0
3DFACE
8
0
70
0
10
44.608593
20
-58.263920
30
112.970001
11
24.135109
21
12.394218
31
95.081139
12
55.841084
22
62.089233
32
94.144630
13
55.841084
23
-58.263920
33
112.548576
0
3DFACE
8
0
70
0
10
44.608593
20
-58.263920
30
112.970001
11
42.291573
21
-58.263920
31
126.063866
12
24.872625
22
8.023639
32
129.408813
13
24.135109
23
12.394218
33
95.081139
0
3DFACE
8
0
70
0
10
42.291573
20
-58.263920
30
126.063866
11
48.588596
21
-58.263920
31
131.401703
12
55.391003
22
62.133720
32
142.931305
13
24.872625
23
8.023639
33
129.408813
0
3DFACE
8
0
70
0
10
48.588596
20
-58.263920
30
131.401703
11
55.841084
21
-58.263920
31
112.548576
12
55.841084
22
62.089233
32
94.144630
13
55.391003
23
62.133720
33
142.931305
0
3DFACE
8
0
70
0
10
38.815926
20
-94.839417
30
96.551964
11
44.608593
21
-58.263920
31
112.970001
12
55.841084
22
-58.263920
32
112.548576
13
56.563263
23
-94.839417
33
95.886101
0
3DFACE
8
0
70
0
10
35.155037
20
-94.839417
30
117.240257
11
42.291573
21
-58.263920
31
126.063866
12
44.608593
22
-58.263920
32
112.970001
13
38.815926
23
-94.839417
33
96.551964
0
3DFACE
8
0
70
0
10
45.104328
20
-94.839417
30
125.674034
11
48.588596
21
-58.263920
31
131.401703
12
42.291573
22
-58.263920
32
126.063866
13
35.155037
23
-94.839417
33
117.240257
0
3DFACE
8
0
70
0
10
45.104328
20
-94.839417
30
125.674034
11
56.563263
21
-94.839417
31
95.886101
12
55.841084
22
-58.263920
32
112.548576
13
48.588596
23
-58.263920
33
131.401703
0
3DFACE
8
0
70
0
10
35.517689
20
-150.620590
30
96.392899
11
38.815926
21
-94.839417
31
96.551964
12
56.563263
22
-94.839417
32
95.886101
13
64.978264
23
-150.620590
33
95.201019
0
3DFACE
8
0
70
0
10
29.440611
20
-150.620590
30
133.424957
11
35.155037
21
-94.839417
31
117.240257
12
38.815926
22
-94.839417
32
96.551964
13
35.517689
23
-150.620590
33
96.392899
0
3DFACE
8
0
70
0
10
45.956436
20
-150.620590
30
148.521408
11
45.104328
21
-94.839417
31
125.674034
12
35.155037
22
-94.839417
32
117.240257
13
29.440611
23
-150.620590
33
133.424957
0
3DFACE
8
0
70
0
10
45.956436
20
-150.620590
30
148.521408
11
64.978264
21
-150.620590
31
95.201019
12
56.563263
22
-94.839417
32
95.886101
13
45.104328
23
-94.839417
33
125.674034
0
3DFACE
8
0
70
0
10
-10.413029
20
181.378006
30
222.211487
11
-9.033909
21
176.395691
31
206.299835
12
1.058593
22
226.194122
32
202.863388
13
16.412306
23
217.487885
33
221.016708
0
3DFACE
8
0
70
0
10
-8.770291
20
199.996887
30
315.005707
11
-3.547276
21
234.789261
31
275.869507
12
-27.731638
22
229.952408
32
276.067261
13
-16.953756
23
198.705460
33
315.169678
0
3DFACE
8
0
70
0
10
-4.473607
20
190.463470
30
314.085907
11
12.470236
21
200.002853
31
275.655365
12
-3.547276
22
234.789261
32
275.869507
13
-8.770291
23
199.996887
33
315.005707
0
3DFACE
8
0
70
0
10
-12.534324
20
184.374481
30
313.975525
11
-10.893899
21
180.497192
31
274.515289
12
12.470236
22
200.002853
32
275.655365
13
-4.473607
23
190.463470
33
314.085907
0
3DFACE
8
0
70
0
10
-7.926212
20
306.977966
30
216.238525
11
2.481241
21
289.811829
31
213.087158
12
-1.150670
22
289.069305
32
208.084213
13
-4.692353
23
294.936401
33
209.122589
0
3DFACE
8
0
70
0
10
3.817433
20
245.749481
30
224.534546
11
16.412306
21
217.487885
31
221.016708
12
1.058593
22
226.194122
32
202.863388
13
-7.798666
23
244.166031
33
205.169525
0
3DFACE
8
0
70
0
10
-4.692353
20
294.936401
30
209.122589
11
-14.047256
21
255.572922
31
206.809570
12
-14.841399
22
279.275391
32
229.782669
13
-7.926212
23
306.977966
33
216.238525
0
3DFACE
8
0
70
0
10
-1.150670
20
289.069305
30
208.084213
11
-7.798666
21
244.166031
31
205.169525
12
-14.047256
22
255.572922
32
206.809570
13
-4.692353
23
294.936401
33
209.122589
0
3DFACE
8
0
70
0
10
2.481241
20
289.811829
30
213.087158
11
3.817433
21
245.749481
31
224.534546
12
-7.798666
22
244.166031
32
205.169525
13
-1.150670
23
289.069305
33
208.084213
0
3DFACE
8
0
70
0
10
2.481241
20
289.811829
30
213.087158
11
-7.926212
21
306.977966
31
216.238525
12
-14.841399
22
279.275391
32
229.782669
13
3.817433
23
245.749481
33
224.534546
0
3DFACE
8
0
70
0
10
-22.178825
20
267.054382
30
218.523697
11
-34.116066
21
264.762390
31
218.683929
12
-46.644699
22
272.361603
32
230.165192
13
-14.841399
23
279.275391
33
229.782669
0
3DFACE
8
0
70
0
10
-28.440056
20
256.021576
30
206.804260
11
-33.105865
21
248.130142
31
198.675064
12
-46.644699
22
272.361603
32
230.165192
13
-34.116066
23
264.762390
33
218.683929
0
3DFACE
8
0
70
0
10
-21.842419
20
258.664276
30
209.890015
11
-14.047256
21
255.572922
31
206.809570
12
-33.105865
22
248.130142
32
198.675064
13
-28.440056
23
256.021576
33
206.804260
0
3DFACE
8
0
70
0
10
-21.842419
20
258.664276
30
209.890015
11
-22.178825
21
267.054382
31
218.523697
12
-14.841399
22
279.275391
32
229.782669
13
-14.047256
23
255.572922
33
206.809570
0
3DFACE
8
0
70
0
10
-43.677269
20
364.534760
30
189.921265
11
-39.453079
21
363.567535
31
188.595947
12
-38.630619
22
360.456360
32
187.832153
13
-43.799561
23
359.283447
33
189.392532
0
3DFACE
8
0
70
0
10
-34.116066
20
264.762390
30
218.683929
11
-13.134386
21
319.086121
31
210.013779
12
-5.665462
22
310.665710
32
202.209747
13
-28.440056
23
256.021576
33
206.804260
0
3DFACE
8
0
70
0
10
-2.515645
20
315.253662
30
204.026230
11
-5.665462
21
310.665710
31
202.209747
12
-4.413195
22
323.810455
32
200.051285
13
-2.593577
23
330.566528
33
201.153824
0
3DFACE
8
0
70
0
10
-13.134386
20
319.086121
30
210.013779
11
-12.352049
21
331.039856
31
206.576874
12
-4.413195
22
323.810455
32
200.051285
13
-5.665462
23
310.665710
33
202.209747
0
3DFACE
8
0
70
0
10
14.152627
20
352.757721
30
181.038635
11
14.979355
21
351.342987
31
178.173157
12
11.147915
22
356.334412
32
179.142822
13
9.903421
23
357.517883
33
181.705109
0
3DFACE
8
0
70
0
10
-22.178825
20
267.054382
30
218.523697
11
-21.842419
21
258.664276
31
209.890015
12
-2.515645
22
315.253662
32
204.026230
13
-5.801746
23
322.980316
33
209.915146
0
3DFACE
8
0
70
0
10
-5.801746
20
322.980316
30
209.915146
11
-6.879962
21
338.184784
31
205.777512
12
-12.352049
22
331.039856
32
206.576874
13
-13.134386
23
319.086121
33
210.013779
0
3DFACE
8
0
70
0
10
-21.842419
20
258.664276
30
209.890015
11
-28.440056
21
256.021576
31
206.804260
12
-5.665462
22
310.665710
32
202.209747
13
-2.515645
23
315.253662
33
204.026230
0
3DFACE
8
0
70
0
10
-26.944538
20
351.211517
30
197.857147
11
-32.593262
21
358.161011
31
194.921829
12
-31.796001
22
350.947540
32
194.749527
13
-29.868637
23
347.463989
33
196.347855
0
3DFACE
8
0
70
0
10
-6.879962
20
338.184784
30
205.777512
11
-26.944538
21
351.211517
31
197.857147
12
-29.868637
22
347.463989
32
196.347855
13
-12.352049
23
331.039856
33
206.576874
0
3DFACE
8
0
70
0
10
-23.196575
20
349.489136
30
194.466141
11
-23.586010
21
347.267700
31
192.859955
12
-26.170574
22
352.517639
32
191.642380
13
-28.060537
23
357.022278
33
192.509476
0
3DFACE
8
0
70
0
10
-2.593577
20
330.566528
30
201.153824
11
-4.413195
21
323.810455
31
200.051285
12
-23.586010
22
347.267700
32
192.859955
13
-23.196575
23
349.489136
33
194.466141
0
3DFACE
8
0
70
0
10
-42.261597
20
340.759216
30
183.462143
11
-45.258987
21
341.864716
31
185.751160
12
-45.452480
22
344.077606
32
185.387070
13
-42.352768
23
343.780518
33
183.470306
0
3DFACE
8
0
70
0
10
-4.413195
20
323.810455
30
200.051285
11
-12.352049
21
331.039856
31
206.576874
12
-29.868637
22
347.463989
32
196.347855
13
-23.586010
23
347.267700
33
192.859955
0
3DFACE
8
0
70
0
10
-26.944538
20
351.211517
30
197.857147
11
-23.196575
21
349.489136
31
194.466141
12
-28.060537
22
357.022278
32
192.509476
13
-32.593262
23
358.161011
33
194.921829
0
3DFACE
8
0
70
0
10
-2.593577
20
330.566528
30
201.153824
11
-23.196575
21
349.489136
31
194.466141
12
-26.944538
22
351.211517
32
197.857147
13
-6.879962
23
338.184784
33
205.777512
0
3DFACE
8
0
70
0
10
-37.032749
20
360.757965
30
192.908890
11
-43.677269
21
364.534760
31
189.921265
12
-43.799561
22
359.283447
32
189.392532
13
-39.892303
23
356.626160
33
191.120209
0
3DFACE
8
0
70
0
10
-31.796001
20
350.947540
30
194.749527
11
-39.892303
21
356.626160
31
191.120209
12
-34.454929
22
357.855835
32
189.098114
13
-26.170574
23
352.517639
33
191.642380
0
3DFACE
8
0
70
0
10
-26.170574
20
352.517639
30
191.642380
11
-34.454929
21
357.855835
31
189.098114
12
-33.609512
22
360.261108
32
190.594543
13
-28.060537
23
357.022278
33
192.509476
0
3DFACE
8
0
70
0
10
-23.522728
20
363.424438
30
178.677521
11
-27.722713
21
364.831940
31
179.437637
12
-28.678509
22
364.990082
32
181.798996
13
-25.121349
23
363.880951
33
181.447525
0
3DFACE
8
0
70
0
10
-31.796001
20
350.947540
30
194.749527
11
-32.593262
21
358.161011
31
194.921829
12
-37.032749
22
360.757965
32
192.908890
13
-39.892303
23
356.626160
33
191.120209
0
3DFACE
8
0
70
0
10
-39.892303
20
356.626160
30
191.120209
11
-43.799561
21
359.283447
31
189.392532
12
-38.630619
22
360.456360
32
187.832153
13
-34.454929
23
357.855835
33
189.098114
0
3DFACE
8
0
70
0
10
-33.609512
20
360.261108
30
190.594543
11
-34.454929
21
357.855835
31
189.098114
12
-38.630619
22
360.456360
32
187.832153
13
-39.453079
23
363.567535
33
188.595947
0
3DFACE
8
0
70
0
10
-37.032749
20
360.757965
30
192.908890
11
-33.609512
21
360.261108
31
190.594543
12
-39.453079
22
363.567535
32
188.595947
13
-43.677269
23
364.534760
33
189.921265
0
3DFACE
8
0
70
0
10
-5.801746
20
322.980316
30
209.915146
11
-1.314071
21
323.330109
31
207.710236
12
-2.222275
22
337.093140
32
203.970520
13
-6.879962
23
338.184784
33
205.777512
0
3DFACE
8
0
70
0
10
-6.879962
20
338.184784
30
205.777512
11
-2.222275
21
337.093140
31
203.970520
12
1.617535
22
330.133820
32
199.816010
13
-2.593577
23
330.566528
33
201.153824
0
3DFACE
8
0
70
0
10
-2.593577
20
330.566528
30
201.153824
11
1.617535
21
330.133820
31
199.816010
12
1.651019
22
316.275085
32
202.408569
13
-2.515645
23
315.253662
33
204.026230
0
3DFACE
8
0
70
0
10
-2.515645
20
315.253662
30
204.026230
11
1.651019
21
316.275085
31
202.408569
12
-1.314071
22
323.330109
32
207.710236
13
-5.801746
23
322.980316
33
209.915146
0
3DFACE
8
0
70
0
10
-1.314071
20
323.330109
30
207.710236
11
6.225173
21
322.731934
31
204.845932
12
1.749665
22
335.563843
32
202.753738
13
-2.222275
23
337.093140
33
203.970520
0
3DFACE
8
0
70
0
10
-2.222275
20
337.093140
30
203.970520
11
1.749665
21
335.563843
31
202.753738
12
5.374367
22
330.480164
32
198.105896
13
1.617535
23
330.133820
33
199.816010
0
3DFACE
8
0
70
0
10
1.617535
20
330.133820
30
199.816010
11
5.374367
21
330.480164
31
198.105896
12
8.905530
22
317.406342
32
199.279968
13
1.651019
23
316.275085
33
202.408569
0
3DFACE
8
0
70
0
10
1.651019
20
316.275085
30
202.408569
11
8.905530
21
317.406342
31
199.279968
12
6.225173
22
322.731934
32
204.845932
13
-1.314071
23
323.330109
33
207.710236
0
3DFACE
8
0
70
0
10
6.225173
20
322.731934
30
204.845932
11
10.800430
21
325.961365
31
200.615906
12
3.119257
22
336.250000
32
201.152145
13
1.749665
23
335.563843
33
202.753738
0
3DFACE
8
0
70
0
10
1.749665
20
335.563843
30
202.753738
11
3.119257
21
336.250000
31
201.152145
12
5.821552
22
333.428833
32
196.021606
13
5.374367
23
330.480164
33
198.105896
0
3DFACE
8
0
70
0
10
5.374367
20
330.480164
30
198.105896
11
5.821552
21
333.428833
31
196.021606
12
12.583162
22
322.681580
32
194.824356
13
8.905530
23
317.406342
33
199.279968
0
3DFACE
8
0
70
0
10
8.905530
20
317.406342
30
199.279968
11
12.583162
21
322.681580
31
194.824356
12
10.800430
22
325.961365
32
200.615906
13
6.225173
23
322.731934
33
204.845932
0
3DFACE
8
0
70
0
10
10.800430
20
325.961365
30
200.615906
11
11.773870
21
329.639893
31
197.641434
12
4.484899
22
338.664337
32
198.464783
13
3.119257
23
336.250000
33
201.152145
0
3DFACE
8
0
70
0
10
3.119257
20
336.250000
30
201.152145
11
4.484899
21
338.664337
31
198.464783
12
6.812714
22
336.316162
32
193.754868
13
5.821552
23
333.428833
33
196.021606
0
3DFACE
8
0
70
0
10
5.821552
20
333.428833
30
196.021606
11
6.812714
21
336.316162
31
193.754868
12
13.281681
22
326.856384
32
192.354401
13
12.583162
23
322.681580
33
194.824356
0
3DFACE
8
0
70
0
10
12.583162
20
322.681580
30
194.824356
11
13.281681
21
326.856384
31
192.354401
12
11.773870
22
329.639893
32
197.641434
13
10.800430
23
325.961365
33
200.615906
0
3DFACE
8
0
70
0
10
11.773870
20
329.639893
30
197.641434
11
13.002734
21
332.743469
31
194.961746
12
6.388186
22
340.919769
32
195.721893
13
4.484899
23
338.664337
33
198.464783
0
3DFACE
8
0
70
0
10
4.484899
20
338.664337
30
198.464783
11
6.388186
21
340.919769
31
195.721893
12
8.499290
22
338.786713
32
191.477188
13
6.812714
23
336.316162
33
193.754868
0
3DFACE
8
0
70
0
10
6.812714
20
336.316162
30
193.754868
11
8.499290
21
338.786713
31
191.477188
12
14.381158
22
330.225525
32
190.196030
13
13.281681
23
326.856384
33
192.354401
0
3DFACE
8
0
70
0
10
13.281681
20
326.856384
30
192.354401
11
14.381158
21
330.225525
31
190.196030
12
13.002734
22
332.743469
32
194.961746
13
11.773870
23
329.639893
33
197.641434
0
3DFACE
8
0
70
0
10
13.002734
20
332.743469
30
194.961746
11
14.103507
21
336.463501
31
191.952332
12
7.645159
22
343.282837
32
193.222870
13
6.388186
23
340.919769
33
195.721893
0
3DFACE
8
0
70
0
10
6.388186
20
340.919769
30
195.721893
11
7.645159
21
343.282837
31
193.222870
12
9.306308
22
341.710754
32
189.267212
13
8.499290
23
338.786713
33
191.477188
0
3DFACE
8
0
70
0
10
8.499290
20
338.786713
30
191.477188
11
9.306308
21
341.710754
31
189.267212
12
15.114601
22
334.495941
32
187.561462
13
14.381158
23
330.225525
33
190.196030
0
3DFACE
8
0
70
0
10
14.381158
20
330.225525
30
190.196030
11
15.114601
21
334.495941
31
187.561462
12
14.103507
22
336.463501
32
191.952332
13
13.002734
23
332.743469
33
194.961746
0
3DFACE
8
0
70
0
10
14.103507
20
336.463501
30
191.952332
11
14.463466
21
340.181030
31
189.281067
12
8.315987
22
345.744446
32
190.946732
13
7.645159
23
343.282837
33
193.222870
0
3DFACE
8
0
70
0
10
7.645159
20
343.282837
30
193.222870
11
8.315987
21
345.744446
31
190.946732
12
9.562676
22
344.628510
32
187.292068
13
9.306308
23
341.710754
33
189.267212
0
3DFACE
8
0
70
0
10
9.306308
20
341.710754
30
189.267212
11
9.562676
21
344.628510
31
187.292068
12
15.139563
22
338.663727
32
185.263733
13
15.114601
23
334.495941
33
187.561462
0
3DFACE
8
0
70
0
10
15.114601
20
334.495941
30
187.561462
11
15.139563
21
338.663727
31
185.263733
12
14.463466
22
340.181030
32
189.281067
13
14.103507
23
336.463501
33
191.952332
0
3DFACE
8
0
70
0
10
14.463466
20
340.181030
30
189.281067
11
14.001820
21
344.668030
31
186.474106
12
8.374343
22
349.557159
32
188.083694
13
8.315987
23
345.744446
33
190.946732
0
3DFACE
8
0
70
0
10
8.315987
20
345.744446
30
190.946732
11
8.374343
21
349.557159
31
188.083694
12
9.456735
22
348.608246
32
184.776703
13
9.562676
23
344.628510
33
187.292068
0
3DFACE
8
0
70
0
10
9.562676
20
344.628510
30
187.292068
11
9.456735
21
348.608246
31
184.776703
12
14.576916
22
343.349915
32
182.844925
13
15.139563
23
338.663727
33
185.263733
0
3DFACE
8
0
70
0
10
15.139563
20
338.663727
30
185.263733
11
14.576916
21
343.349915
31
182.844925
12
14.001820
22
344.668030
32
186.474106
13
14.463466
23
340.181030
33
189.281067
0
3DFACE
8
0
70
0
10
14.001820
20
344.668030
30
186.474106
11
13.637270
21
349.261871
31
183.575134
12
8.724110
22
354.163239
32
184.634018
13
8.374343
23
349.557159
33
188.083694
0
3DFACE
8
0
70
0
10
8.374343
20
349.557159
30
188.083694
11
8.724110
21
354.163239
31
184.634018
12
9.931329
22
353.066010
32
181.721390
13
9.456735
23
348.608246
33
184.776703
0
3DFACE
8
0
70
0
10
9.456735
20
348.608246
30
184.776703
11
9.931329
21
353.066010
31
181.721390
12
14.381362
22
347.873108
32
180.347198
13
14.576916
23
343.349915
33
182.844925
0
3DFACE
8
0
70
0
10
14.576916
20
343.349915
30
182.844925
11
14.381362
21
347.873108
31
180.347198
12
13.637270
22
349.261871
32
183.575134
13
14.001820
23
344.668030
33
186.474106
0
3DFACE
8
0
70
0
10
13.637270
20
349.261871
30
183.575134
11
14.152627
21
352.757721
31
181.038635
12
9.903421
22
357.517883
32
181.705109
13
8.724110
23
354.163239
33
184.634018
0
3DFACE
8
0
70
0
10
8.724110
20
354.163239
30
184.634018
11
9.903421
21
357.517883
31
181.705109
12
11.147915
22
356.334412
32
179.142822
13
9.931329
23
353.066010
33
181.721390
0
3DFACE
8
0
70
0
10
9.931329
20
353.066010
30
181.721390
11
11.147915
21
356.334412
31
179.142822
12
14.979355
22
351.342987
32
178.173157
13
14.381362
23
347.873108
33
180.347198
0
3DFACE
8
0
70
0
10
14.381362
20
347.873108
30
180.347198
11
14.979355
21
351.342987
31
178.173157
12
14.152627
22
352.757721
32
181.038635
13
13.637270
23
349.261871
33
183.575134
0
3DFACE
8
0
70
0
10
-23.586010
20
347.267700
30
192.859955
11
-26.381578
21
343.404633
31
190.724030
12
-28.281334
22
348.343292
32
189.858429
13
-26.170574
23
352.517639
33
191.642380
0
3DFACE
8
0
70
0
10
-26.170574
20
352.517639
30
191.642380
11
-28.281334
21
348.343292
31
189.858429
12
-33.469845
22
347.376556
32
192.716888
13
-31.796001
23
350.947540
33
194.749527
0
3DFACE
8
0
70
0
10
-31.796001
20
350.947540
30
194.749527
11
-33.469845
21
347.376556
31
192.716888
12
-31.996048
22
344.023712
32
193.989609
13
-29.868637
23
347.463989
33
196.347855
0
3DFACE
8
0
70
0
10
-29.868637
20
347.463989
30
196.347855
11
-31.996048
21
344.023712
31
193.989609
12
-26.381578
22
343.404633
32
190.724030
13
-23.586010
23
347.267700
33
192.859955
0
3DFACE
8
0
70
0
10
-26.381578
20
343.404633
30
190.724030
11
-28.759731
21
341.784027
31
189.382355
12
-30.205822
22
346.319580
32
188.742981
13
-28.281334
23
348.343292
33
189.858429
0
3DFACE
8
0
70
0
10
-28.281334
20
348.343292
30
189.858429
11
-30.205822
21
346.319580
31
188.742981
12
-34.926231
22
345.705536
32
191.360703
13
-33.469845
23
347.376556
33
192.716888
0
3DFACE
8
0
70
0
10
-33.469845
20
347.376556
30
192.716888
11
-34.926231
21
345.705536
31
191.360703
12
-33.765942
22
342.581482
32
192.404495
13
-31.996048
23
344.023712
33
193.989609
0
3DFACE
8
0
70
0
10
-31.996048
20
344.023712
30
193.989609
11
-33.765942
21
342.581482
31
192.404495
12
-28.759731
22
341.784027
32
189.382355
13
-26.381578
23
343.404633
33
190.724030
0
3DFACE
8
0
70
0
10
-28.759731
20
341.784027
30
189.382355
11
-31.550928
21
339.413208
31
187.622406
12
-31.858345
22
343.621185
32
187.532867
13
-30.205822
23
346.319580
33
188.742981
0
3DFACE
8
0
70
0
10
-30.205822
20
346.319580
30
188.742981
11
-31.858345
21
343.621185
31
187.532867
12
-36.148232
22
343.961151
32
190.114944
13
-34.926231
23
345.705536
33
191.360703
0
3DFACE
8
0
70
0
10
-34.926231
20
345.705536
30
191.360703
11
-36.148232
21
343.961151
31
190.114944
12
-35.756409
22
340.913727
32
190.690582
13
-33.765942
23
342.581482
33
192.404495
0
3DFACE
8
0
70
0
10
-33.765942
20
342.581482
30
192.404495
11
-35.756409
21
340.913727
31
190.690582
12
-31.550928
22
339.413208
32
187.622406
13
-28.759731
23
341.784027
33
189.382355
0
3DFACE
8
0
70
0
10
-31.550928
20
339.413208
30
187.622406
11
-36.374714
21
339.881470
31
185.668045
12
-35.377445
22
343.271729
32
186.081161
13
-31.858345
23
343.621185
33
187.532867
0
3DFACE
8
0
70
0
10
-31.858345
20
343.621185
30
187.532867
11
-35.377445
21
343.271729
31
186.081161
12
-38.952446
22
344.474304
32
188.794479
13
-36.148232
23
343.961151
33
190.114944
0
3DFACE
8
0
70
0
10
-36.148232
20
343.961151
30
190.114944
11
-38.952446
21
344.474304
31
188.794479
12
-39.494232
22
341.837433
32
188.918213
13
-35.756409
23
340.913727
33
190.690582
0
3DFACE
8
0
70
0
10
-35.756409
20
340.913727
30
190.690582
11
-39.494232
21
341.837433
31
188.918213
12
-36.374714
22
339.881470
32
185.668045
13
-31.550928
23
339.413208
33
187.622406
0
3DFACE
8
0
70
0
10
-36.374714
20
339.881470
30
185.668045
11
-39.713520
21
341.092590
31
184.602386
12
-39.183434
22
344.304230
32
184.860016
13
-35.377445
23
343.271729
33
186.081161
0
3DFACE
8
0
70
0
10
-35.377445
20
343.271729
30
186.081161
11
-39.183434
21
344.304230
31
184.860016
12
-42.512836
22
345.120667
32
187.182465
13
-38.952446
23
344.474304
33
188.794479
0
3DFACE
8
0
70
0
10
-38.952446
20
344.474304
30
188.794479
11
-42.512836
21
345.120667
31
187.182465
12
-42.736965
22
342.680359
32
187.389328
13
-39.494232
23
341.837433
33
188.918213
0
3DFACE
8
0
70
0
10
-39.494232
20
341.837433
30
188.918213
11
-42.736965
21
342.680359
31
187.389328
12
-39.713520
22
341.092590
32
184.602386
13
-36.374714
23
339.881470
33
185.668045
0
3DFACE
8
0
70
0
10
-39.713520
20
341.092590
30
184.602386
11
-42.261597
21
340.759216
31
183.462143
12
-42.352768
22
343.780518
32
183.470306
13
-39.183434
23
344.304230
33
184.860016
0
3DFACE
8
0
70
0
10
-39.183434
20
344.304230
30
184.860016
11
-42.352768
21
343.780518
31
183.470306
12
-45.452480
22
344.077606
32
185.387070
13
-42.512836
23
345.120667
33
187.182465
0
3DFACE
8
0
70
0
10
-42.512836
20
345.120667
30
187.182465
11
-45.452480
21
344.077606
31
185.387070
12
-45.258987
22
341.864716
32
185.751160
13
-42.736965
23
342.680359
33
187.389328
0
3DFACE
8
0
70
0
10
-42.736965
20
342.680359
30
187.389328
11
-45.258987
21
341.864716
31
185.751160
12
-42.261597
22
340.759216
32
183.462143
13
-39.713520
23
341.092590
33
184.602386
0
3DFACE
8
0
70
0
10
-28.060537
20
357.022278
30
192.509476
11
-25.210541
21
358.617279
31
189.463516
12
-29.042974
22
359.561768
32
192.013519
13
-32.593262
23
358.161011
33
194.921829
0
3DFACE
8
0
70
0
10
-32.593262
20
358.161011
30
194.921829
11
-29.042974
21
359.561768
31
192.013519
12
-33.332592
22
361.776794
32
190.579834
13
-37.032749
23
360.757965
33
192.908890
0
3DFACE
8
0
70
0
10
-37.032749
20
360.757965
30
192.908890
11
-33.332592
21
361.776794
31
190.579834
12
-30.506210
22
361.382751
32
188.209732
13
-33.609512
23
360.261108
33
190.594543
0
3DFACE
8
0
70
0
10
-33.609512
20
360.261108
30
190.594543
11
-30.506210
21
361.382751
31
188.209732
12
-25.210541
22
358.617279
32
189.463516
13
-28.060537
23
357.022278
33
192.509476
0
3DFACE
8
0
70
0
10
-25.210541
20
358.617279
30
189.463516
11
-24.276510
21
359.978912
31
186.618103
12
-27.007647
22
360.636414
32
189.600494
13
-29.042974
23
359.561768
33
192.013519
0
3DFACE
8
0
70
0
10
-29.042974
20
359.561768
30
192.013519
11
-27.007647
21
360.636414
31
189.600494
12
-31.276270
22
362.284515
32
189.201965
13
-33.332592
23
361.776794
33
190.579834
0
3DFACE
8
0
70
0
10
-33.332592
20
361.776794
30
190.579834
11
-31.276270
21
362.284515
31
189.201965
12
-29.415180
22
362.051666
32
186.571991
13
-30.506210
23
361.382751
33
188.209732
0
3DFACE
8
0
70
0
10
-30.506210
20
361.382751
30
188.209732
11
-29.415180
21
362.051666
31
186.571991
12
-24.276510
22
359.978912
32
186.618103
13
-25.210541
23
358.617279
33
189.463516
0
3DFACE
8
0
70
0
10
-24.276510
20
359.978912
30
186.618103
11
-23.817472
21
361.857544
31
182.273209
12
-25.715635
22
362.371460
32
185.291763
13
-27.007647
23
360.636414
33
189.600494
0
3DFACE
8
0
70
0
10
-27.007647
20
360.636414
30
189.600494
11
-25.715635
21
362.371460
31
185.291763
12
-29.657202
22
363.637939
32
185.548065
13
-31.276270
23
362.284515
33
189.201965
0
3DFACE
8
0
70
0
10
-31.276270
20
362.284515
30
189.201965
11
-29.657202
21
363.637939
31
185.548065
12
-28.486736
22
363.463745
32
182.960495
13
-29.415180
23
362.051666
33
186.571991
0
3DFACE
8
0
70
0
10
-29.415180
20
362.051666
30
186.571991
11
-28.486736
21
363.463745
31
182.960495
12
-23.817472
22
361.857544
32
182.273209
13
-24.276510
23
359.978912
33
186.618103
0
3DFACE
8
0
70
0
10
-23.817472
20
361.857544
30
182.273209
11
-23.522728
21
363.424438
31
178.677521
12
-25.121349
22
363.880951
32
181.447525
13
-25.715635
23
362.371460
33
185.291763
0
3DFACE
8
0
70
0
10
-25.715635
20
362.371460
30
185.291763
11
-25.121349
21
363.880951
31
181.447525
12
-28.678509
22
364.990082
32
181.798996
13
-29.657202
23
363.637939
33
185.548065
0
3DFACE
8
0
70
0
10
-29.657202
20
363.637939
30
185.548065
11
-28.678509
21
364.990082
31
181.798996
12
-27.722713
22
364.831940
32
179.437637
13
-28.486736
23
363.463745
33
182.960495
0
3DFACE
8
0
70
0
10
-28.486736
20
363.463745
30
182.960495
11
-27.722713
21
364.831940
31
179.437637
12
-23.522728
22
363.424438
32
178.677521
13
-23.817472
23
361.857544
33
182.273209
0
3DFACE
8
0
70
0
10
0.000000
20
1.114544
30
142.931305
11
0.000000
21
58.603271
31
183.561981
12
-55.391003
22
62.133720
32
142.931305
13
-24.872625
23
8.023639
33
129.408813
0
3DFACE
8
0
70
0
10
-12.534324
20
184.374481
30
313.975525
11
-16.953756
21
198.705460
31
315.169678
12
-24.188889
22
194.568115
32
314.721100
13
-22.461578
23
184.768036
33
313.816772
0
3DFACE
8
0
70
0
10
15.965963
20
53.094509
30
-51.221725
11
-23.477608
21
58.135925
31
-50.440285
12
-24.453665
22
108.177383
32
-60.731750
13
22.172949
23
109.206261
33
-65.649269
0
3DFACE
8
0
70
0
10
28.089325
20
134.460007
30
-83.565804
11
24.885212
21
135.802490
31
-84.243484
12
25.333044
22
144.745422
32
-82.772232
13
28.080866
23
145.485962
33
-81.908356
0
3DFACE
8
0
70
0
10
-47.181919
20
133.830551
30
5.408651
11
-44.757996
21
126.049850
31
93.204948
12
0.000000
22
136.913193
32
92.966316
13
0.130671
23
147.024597
33
20.559240
0
3DFACE
8
0
70
0
10
0.000000
20
136.913193
30
92.966316
11
-44.757996
21
126.049850
31
93.204948
12
-42.291573
22
123.676048
32
124.178596
13
0.000000
23
140.328018
33
125.803688
0
3DFACE
8
0
70
0
10
-28.115114
20
43.868191
30
24.626286
11
-24.135109
21
12.394218
31
95.081139
12
-55.841084
22
62.089233
32
94.144630
13
-66.179611
23
86.480492
33
7.565114
0
3DFACE
8
0
70
0
10
-64.978264
20
-150.620590
30
95.201019
11
-35.517689
21
-150.620590
31
96.392899
12
-29.440611
22
-150.620590
32
133.424957
13
-45.956436
23
-150.620590
33
148.521408
0
3DFACE
8
0
70
0
10
-66.179611
20
86.480492
30
7.565114
11
-55.841084
21
62.089233
31
94.144630
12
-44.757996
22
126.049850
32
93.204948
13
-47.181919
23
133.830551
33
5.408651
0
3DFACE
8
0
70
0
10
-55.841084
20
62.089233
30
94.144630
11
-55.391003
21
62.133720
31
142.931305
12
-42.291573
22
123.676048
32
124.178596
13
-44.757996
23
126.049850
33
93.204948
0
3DFACE
8
0
70
0
10
0.000000
20
35.777550
30
24.626286
11
0.000000
21
1.778305
31
95.314331
12
-24.135109
22
12.394218
32
95.081139
13
-28.115114
23
43.868191
33
24.626286
0
3DFACE
8
0
70
0
10
0.000000
20
1.778305
30
95.314331
11
0.000000
21
1.114544
31
142.931305
12
-24.872625
22
8.023639
32
129.408813
13
-24.135109
23
12.394218
33
95.081139
0
3DFACE
8
0
70
0
10
10.032129
20
142.180939
30
-16.374382
11
19.194302
21
135.612061
31
-50.858238
12
-20.249269
22
130.127762
32
-51.629505
13
-28.509443
23
134.516464
33
-28.047916
0
3DFACE
8
0
70
0
10
0.130671
20
147.024597
30
20.559240
11
10.032129
21
142.180939
31
-16.374382
12
-28.509443
22
134.516464
32
-28.047916
13
-47.181919
23
133.830551
33
5.408651
0
3DFACE
8
0
70
0
10
-63.035088
20
-149.349030
30
-43.582413
11
-46.843018
21
-149.349030
31
-44.297729
12
-32.080498
22
-149.820053
32
-44.085068
13
-37.489258
23
-149.845947
33
-43.565620
0
3DFACE
8
0
70
0
10
-83.749313
20
-150.852524
30
25.257740
11
-63.035088
21
-149.349030
31
-43.582413
12
-37.489258
22
-149.845947
32
-43.565620
13
-46.843018
23
-151.202011
33
25.257740
0
3DFACE
8
0
70
0
10
-61.453434
20
96.070244
30
-42.044556
11
-28.509443
21
134.516464
31
-28.047916
12
-20.249269
22
130.127762
32
-51.629505
13
-24.453665
23
108.177383
33
-60.731750
0
3DFACE
8
0
70
0
10
-47.181919
20
133.830551
30
5.408651
11
-28.509443
21
134.516464
31
-28.047916
12
-61.453434
22
96.070244
32
-42.044556
13
-66.179611
23
86.480492
33
7.565114
0
3DFACE
8
0
70
0
10
0.000000
20
28.415195
30
-23.807909
11
-39.656334
21
37.815964
31
-24.014410
12
-23.477608
22
58.135925
32
-50.440285
13
15.965963
23
53.094509
33
-51.221725
0
3DFACE
8
0
70
0
10
-28.115114
20
43.868191
30
24.626286
11
-39.656334
21
37.815964
31
-24.014410
12
0.000000
22
28.415195
32
-23.807909
13
0.000000
23
35.777550
33
24.626286
0
3DFACE
8
0
70
0
10
-57.488968
20
-78.889343
30
-70.666595
11
-55.495399
21
-47.665768
31
-58.206013
12
-48.588596
22
-47.665768
32
-58.206013
13
-47.850834
23
-78.889343
33
-71.841454
0
3DFACE
8
0
70
0
10
-39.063622
20
-79.248520
30
-71.492172
11
-47.850834
21
-78.889343
31
-71.841454
12
-48.588596
22
-47.665768
32
-58.206013
13
-42.291573
23
-47.811218
33
-58.206013
0
3DFACE
8
0
70
0
10
-42.283115
20
-79.268234
30
-70.639015
11
-39.063622
21
-79.248520
31
-71.492172
12
-42.291573
22
-47.811218
32
-58.206013
13
-44.598713
23
-47.819214
33
-58.206013
0
3DFACE
8
0
70
0
10
-69.818855
20
-78.940002
30
-38.212482
11
-64.331139
21
-50.523758
31
-9.264153
12
-55.495399
22
-47.665768
32
-58.206013
13
-57.488968
23
-78.889343
33
-70.666595
0
3DFACE
8
0
70
0
10
-47.850834
20
-79.315514
30
-38.212482
11
-42.283115
21
-79.268234
31
-70.639015
12
-44.598713
22
-47.819214
32
-58.206013
13
-48.588596
23
-49.598774
33
-9.264153
0
3DFACE
8
0
70
0
10
-47.850834
20
-79.315514
30
-38.212482
11
-48.588596
21
-49.598774
31
-9.264153
12
-64.331139
22
-50.523758
32
-9.264153
13
-69.818855
23
-78.940002
33
-38.212482
0
3DFACE
8
0
70
0
10
-57.488968
20
-106.681404
30
-47.750183
11
-57.488968
21
-78.889343
31
-70.666595
12
-47.850834
22
-78.889343
32
-71.841454
13
-47.850834
23
-106.681404
33
-47.897041
0
3DFACE
8
0
70
0
10
-39.063622
20
-107.079758
30
-47.853382
11
-47.850834
21
-106.681404
31
-47.897041
12
-47.850834
22
-78.889343
32
-71.841454
13
-39.063622
23
-79.248520
33
-71.492172
0
3DFACE
8
0
70
0
10
-42.283115
20
-107.101631
30
-47.746735
11
-39.063622
21
-107.079758
31
-47.853382
12
-39.063622
22
-79.248520
32
-71.492172
13
-42.283115
23
-79.268234
33
-70.639015
0
3DFACE
8
0
70
0
10
-69.818855
20
-107.499962
30
-17.509686
11
-69.818855
21
-78.940002
31
-38.212482
12
-57.488968
22
-78.889343
32
-70.666595
13
-57.488968
23
-106.681404
33
-47.750183
0
3DFACE
8
0
70
0
10
-47.850834
20
-107.875458
30
-17.509686
11
-42.283115
21
-107.101631
31
-47.746735
12
-42.283115
22
-79.268234
32
-70.639015
13
-47.850834
23
-79.315514
33
-38.212482
0
3DFACE
8
0
70
0
10
-47.850834
20
-107.875458
30
-17.509686
11
-47.850834
21
-79.315514
31
-38.212482
12
-69.818855
22
-78.940002
32
-38.212482
13
-69.818855
23
-107.499962
33
-17.509686
0
3DFACE
8
0
70
0
10
-63.035088
20
-149.349030
30
-43.582413
11
-57.488968
21
-106.681404
31
-47.750183
12
-47.850834
22
-106.681404
32
-47.897041
13
-46.843018
23
-149.349030
33
-44.297729
0
3DFACE
8
0
70
0
10
-32.080498
20
-149.820053
30
-44.085068
11
-46.843018
21
-149.349030
31
-44.297729
12
-47.850834
22
-106.681404
32
-47.897041
13
-39.063622
23
-107.079758
33
-47.853382
0
3DFACE
8
0
70
0
10
-37.489258
20
-149.845947
30
-43.565620
11
-32.080498
21
-149.820053
31
-44.085068
12
-39.063622
22
-107.079758
32
-47.853382
13
-42.283115
23
-107.101631
33
-47.746735
0
3DFACE
8
0
70
0
10
-83.749313
20
-150.852524
30
25.257740
11
-69.818855
21
-107.499962
31
-17.509686
12
-57.488968
22
-106.681404
32
-47.750183
13
-63.035088
23
-149.349030
33
-43.582413
0
3DFACE
8
0
70
0
10
-46.843018
20
-151.202011
30
25.257740
11
-37.489258
21
-149.845947
31
-43.565620
12
-42.283115
22
-107.101631
32
-47.746735
13
-47.850834
23
-107.875458
33
-17.509686
0
3DFACE
8
0
70
0
10
-46.843018
20
-151.202011
30
25.257740
11
-47.850834
21
-107.875458
31
-17.509686
12
-69.818855
22
-107.499962
32
-17.509686
13
-83.749313
23
-150.852524
33
25.257740
0
3DFACE
8
0
70
0
10
-44.608593
20
-58.263920
30
112.970001
11
-55.841084
21
-58.263920
31
112.548576
12
-55.841084
22
62.089233
32
94.144630
13
-24.135109
23
12.394218
33
95.081139
0
3DFACE
8
0
70
0
10
-44.608593
20
-58.263920
30
112.970001
11
-24.135109
21
12.394218
31
95.081139
12
-24.872625
22
8.023639
32
129.408813
13
-42.291573
23
-58.263920
33
126.063866
0
3DFACE
8
0
70
0
10
-42.291573
20
-58.263920
30
126.063866
11
-24.872625
21
8.023639
31
129.408813
12
-55.391003
22
62.133720
32
142.931305
13
-48.588596
23
-58.263920
33
131.401703
0
3DFACE
8
0
70
0
10
-48.588596
20
-58.263920
30
131.401703
11
-55.391003
21
62.133720
31
142.931305
12
-55.841084
22
62.089233
32
94.144630
13
-55.841084
23
-58.263920
33
112.548576
0
3DFACE
8
0
70
0
10
-38.815926
20
-94.839417
30
96.551964
11
-56.563263
21
-94.839417
31
95.886101
12
-55.841084
22
-58.263920
32
112.548576
13
-44.608593
23
-58.263920
33
112.970001
0
3DFACE
8
0
70
0
10
-35.155037
20
-94.839417
30
117.240257
11
-38.815926
21
-94.839417
31
96.551964
12
-44.608593
22
-58.263920
32
112.970001
13
-42.291573
23
-58.263920
33
126.063866
0
3DFACE
8
0
70
0
10
-45.104328
20
-94.839417
30
125.674034
11
-35.155037
21
-94.839417
31
117.240257
12
-42.291573
22
-58.263920
32
126.063866
13
-48.588596
23
-58.263920
33
131.401703
0
3DFACE
8
0
70
0
10
-45.104328
20
-94.839417
30
125.674034
11
-48.588596
21
-58.263920
31
131.401703
12
-55.841084
22
-58.263920
32
112.548576
13
-56.563263
23
-94.839417
33
95.886101
0
3DFACE
8
0
70
0
10
-35.517689
20
-150.620590
30
96.392899
11
-64.978264
21
-150.620590
31
95.201019
12
-56.563263
22
-94.839417
32
95.886101
13
-38.815926
23
-94.839417
33
96.551964
0
3DFACE
8
0
70
0
10
-29.440611
20
-150.620590
30
133.424957
11
-35.517689
21
-150.620590
31
96.392899
12
-38.815926
22
-94.839417
32
96.551964
13
-35.155037
23
-94.839417
33
117.240257
0
3DFACE
8
0
70
0
10
-45.956436
20
-150.620590
30
148.521408
11
-29.440611
21
-150.620590
31
133.424957
12
-35.155037
22
-94.839417
32
117.240257
13
-45.104328
23
-94.839417
33
125.674034
0
3DFACE
8
0
70
0
10
-45.956436
20
-150.620590
30
148.521408
11
-45.104328
21
-94.839417
31
125.674034
12
-56.563263
22
-94.839417
32
95.886101
13
-64.978264
23
-150.620590
33
95.201019
0
3DFACE
8
0
70
0
10
-10.413029
20
181.378006
30
222.211487
11
-51.126030
21
194.264450
31
219.826889
12
-43.106377
22
209.546509
32
201.930435
13
-9.033909
23
176.395691
33
206.299835
0
3DFACE
8
0
70
0
10
-24.188889
20
194.568115
30
314.721100
11
-16.953756
21
198.705460
31
315.169678
12
-27.731638
22
229.952408
32
276.067261
13
-47.854179
23
215.458176
33
274.621002
0
3DFACE
8
0
70
0
10
-22.461578
20
184.768036
30
313.816772
11
-24.188889
21
194.568115
31
314.721100
12
-47.854179
22
215.458176
32
274.621002
13
-40.441666
23
183.276337
33
274.866211
0
3DFACE
8
0
70
0
10
-12.534324
20
184.374481
30
313.975525
11
-22.461578
21
184.768036
31
313.816772
12
-40.441666
22
183.276337
32
274.866211
13
-10.893899
23
180.497192
33
274.515289
0
3DFACE
8
0
70
0
10
-93.213882
20
254.539886
30
211.543686
11
-85.623383
21
248.482758
31
205.223633
12
-83.385345
22
243.627136
32
204.404663
13
-86.367729
23
240.798080
33
209.124802
0
3DFACE
8
0
70
0
10
-57.982231
20
218.779907
30
222.792343
11
-47.797756
21
226.638809
31
204.032806
12
-43.106377
22
209.546509
32
201.930435
13
-51.126030
23
194.264450
33
219.826889
0
3DFACE
8
0
70
0
10
-85.623383
20
248.482758
30
205.223633
11
-93.213882
21
254.539886
31
211.543686
12
-69.329529
22
248.868149
32
227.297501
13
-51.346714
23
237.704071
33
205.546844
0
3DFACE
8
0
70
0
10
-83.385345
20
243.627136
30
204.404663
11
-85.623383
21
248.482758
31
205.223633
12
-51.346714
22
237.704071
32
205.546844
13
-47.797756
23
226.638809
33
204.032806
0
3DFACE
8
0
70
0
10
-86.367729
20
240.798080
30
209.124802
11
-83.385345
21
243.627136
31
204.404663
12
-47.797756
22
226.638809
32
204.032806
13
-57.982231
23
218.779907
33
222.792343
0
3DFACE
8
0
70
0
10
-86.367729
20
240.798080
30
209.124802
11
-57.982231
21
218.779907
31
222.792343
12
-69.329529
22
248.868149
32
227.297501
13
-93.213882
23
254.539886
33
211.543686
0
3DFACE
8
0
70
0
10
-55.186428
20
249.590515
30
217.166748
11
-69.329529
21
248.868149
31
227.297501
12
-46.644699
22
272.361603
32
230.165192
13
-46.427155
23
258.098053
33
218.154755
0
3DFACE
8
0
70
0
10
-42.408726
20
249.026489
30
206.288498
11
-46.427155
21
258.098053
31
218.154755
12
-46.644699
22
272.361603
32
230.165192
13
-33.105865
23
248.130142
33
198.675064
0
3DFACE
8
0
70
0
10
-48.682209
20
245.237320
30
208.901001
11
-42.408726
21
249.026489
31
206.288498
12
-33.105865
22
248.130142
32
198.675064
13
-51.346714
23
237.704071
33
205.546844
0
3DFACE
8
0
70
0
10
-48.682209
20
245.237320
30
208.901001
11
-51.346714
21
237.704071
31
205.546844
12
-69.329529
22
248.868149
32
227.297501
13
-55.186428
23
249.590515
33
217.166748
0
3DFACE
8
0
70
0
10
-123.009964
20
299.554413
30
182.355652
11
-118.481079
21
299.155670
31
182.498764
12
-120.991753
22
294.907867
32
180.394470
13
-123.393089
23
295.886139
33
180.825928
0
3DFACE
8
0
70
0
10
-46.427155
20
258.098053
30
218.154755
11
-42.408726
21
249.026489
31
206.288498
12
-96.379570
22
255.044800
32
197.242783
13
-99.441978
23
262.801819
33
204.690308
0
3DFACE
8
0
70
0
10
-101.604103
20
253.732483
30
198.467667
11
-112.910095
21
257.926147
31
194.221420
12
-106.818726
22
257.886230
32
193.890488
13
-96.379570
23
255.044800
33
197.242783
0
3DFACE
8
0
70
0
10
-99.441978
20
262.801819
30
204.690308
11
-96.379570
21
255.044800
31
197.242783
12
-106.818726
22
257.886230
32
193.890488
13
-108.891937
23
265.401520
33
200.124344
0
3DFACE
8
0
70
0
10
-136.687683
20
251.130554
30
171.131958
11
-138.117218
21
255.023911
31
171.458633
12
-137.714218
22
254.197617
32
169.017822
13
-135.929947
23
250.608749
33
168.437439
0
3DFACE
8
0
70
0
10
-55.186428
20
249.590515
30
217.166748
11
-106.067101
21
257.854736
31
203.778275
12
-101.604103
22
253.732483
32
198.467667
13
-48.682209
23
245.237320
33
208.901001
0
3DFACE
8
0
70
0
10
-106.067101
20
257.854736
30
203.778275
11
-99.441978
21
262.801819
31
204.690308
12
-108.891937
22
265.401520
32
200.124344
13
-116.924934
23
262.481110
33
198.254578
0
3DFACE
8
0
70
0
10
-48.682209
20
245.237320
30
208.901001
11
-101.604103
21
253.732483
31
198.467667
12
-96.379570
22
255.044800
32
197.242783
13
-42.408726
23
249.026489
33
206.288498
0
3DFACE
8
0
70
0
10
-118.220619
20
282.347534
30
190.411270
11
-113.939621
21
284.446686
31
189.574203
12
-115.971535
22
286.846100
32
187.759811
13
-121.651779
23
288.508942
33
187.141693
0
3DFACE
8
0
70
0
10
-116.924934
20
262.481110
30
198.254578
11
-108.891937
21
265.401520
31
200.124344
12
-113.939621
22
284.446686
32
189.574203
13
-118.220619
23
282.347534
33
190.411270
0
3DFACE
8
0
70
0
10
-118.045586
20
279.268890
30
187.002838
11
-122.162941
21
284.738617
31
184.565582
12
-119.140610
22
282.589935
32
184.102448
13
-115.987137
23
279.414490
33
185.701538
0
3DFACE
8
0
70
0
10
-112.910095
20
257.926147
30
194.221420
11
-118.045586
21
279.268890
31
187.002838
12
-115.987137
22
279.414490
32
185.701538
13
-106.818726
23
257.886230
33
193.890488
0
3DFACE
8
0
70
0
10
-102.795677
20
295.458618
30
178.600067
11
-105.327820
21
296.131989
31
178.304916
12
-104.665756
22
298.764038
32
180.424057
13
-102.868431
23
298.130737
33
180.995819
0
3DFACE
8
0
70
0
10
-106.818726
20
257.886230
30
193.890488
11
-115.987137
21
279.414490
31
185.701538
12
-113.939621
22
284.446686
32
189.574203
13
-108.891937
23
265.401520
33
200.124344
0
3DFACE
8
0
70
0
10
-118.220619
20
282.347534
30
190.411270
11
-121.651779
21
288.508942
31
187.141693
12
-122.162941
22
284.738617
32
184.565582
13
-118.045586
23
279.268890
33
187.002838
0
3DFACE
8
0
70
0
10
-112.910095
20
257.926147
30
194.221420
11
-116.924934
21
262.481110
31
198.254578
12
-118.220619
22
282.347534
32
190.411270
13
-118.045586
23
279.268890
33
187.002838
0
3DFACE
8
0
70
0
10
-122.154457
20
292.928864
30
185.203918
11
-117.618195
21
295.154816
31
184.184525
12
-118.481079
22
299.155670
32
182.498764
13
-123.009964
23
299.554413
33
182.355652
0
3DFACE
8
0
70
0
10
-115.971535
20
286.846100
30
187.759811
11
-119.140610
21
282.589935
31
184.102448
12
-120.322594
22
290.780670
32
181.614014
13
-117.618195
23
295.154816
33
184.184525
0
3DFACE
8
0
70
0
10
-119.140610
20
282.589935
30
184.102448
11
-122.162941
21
284.738617
31
184.565582
12
-122.717339
22
290.163757
32
182.723541
13
-120.322594
23
290.780670
33
181.614014
0
3DFACE
8
0
70
0
10
-128.078415
20
283.325623
30
169.896011
11
-128.044037
21
284.398224
31
172.670151
12
-127.685585
22
287.516479
32
173.141098
13
-127.729805
23
286.970520
33
170.775970
0
3DFACE
8
0
70
0
10
-115.971535
20
286.846100
30
187.759811
11
-117.618195
21
295.154816
31
184.184525
12
-122.154457
22
292.928864
32
185.203918
13
-121.651779
23
288.508942
33
187.141693
0
3DFACE
8
0
70
0
10
-117.618195
20
295.154816
30
184.184525
11
-120.322594
21
290.780670
31
181.614014
12
-120.991753
22
294.907867
32
180.394470
13
-118.481079
23
299.155670
33
182.498764
0
3DFACE
8
0
70
0
10
-122.717339
20
290.163757
30
182.723541
11
-123.393089
21
295.886139
31
180.825928
12
-120.991753
22
294.907867
32
180.394470
13
-120.322594
23
290.780670
33
181.614014
0
3DFACE
8
0
70
0
10
-122.154457
20
292.928864
30
185.203918
11
-123.009964
21
299.554413
31
182.355652
12
-123.393089
22
295.886139
32
180.825928
13
-122.717339
23
290.163757
33
182.723541
0
3DFACE
8
0
70
0
10
-106.067101
20
257.854736
30
203.778275
11
-116.924934
21
262.481110
31
198.254578
12
-118.198174
22
258.704315
32
196.306458
13
-108.488083
23
254.566803
33
201.304108
0
3DFACE
8
0
70
0
10
-116.924934
20
262.481110
30
198.254578
11
-112.910095
21
257.926147
31
194.221420
12
-114.636024
22
254.620773
32
192.700043
13
-118.198174
23
258.704315
33
196.306458
0
3DFACE
8
0
70
0
10
-112.910095
20
257.926147
30
194.221420
11
-101.604103
21
253.732483
31
198.467667
12
-104.512909
22
250.888809
32
196.545029
13
-114.636024
23
254.620773
33
192.700043
0
3DFACE
8
0
70
0
10
-101.604103
20
253.732483
30
198.467667
11
-106.067101
21
257.854736
31
203.778275
12
-108.488083
22
254.566803
32
201.304108
13
-104.512909
23
250.888809
33
196.545029
0
3DFACE
8
0
70
0
10
-108.488083
20
254.566803
30
201.304108
11
-118.198174
21
258.704315
31
196.306458
12
-118.927414
22
255.366867
32
195.034668
13
-111.862015
23
248.785889
33
198.111237
0
3DFACE
8
0
70
0
10
-118.198174
20
258.704315
30
196.306458
11
-114.636024
21
254.620773
31
192.700043
12
-116.740417
22
251.923874
32
190.769455
13
-118.927414
23
255.366867
33
195.034668
0
3DFACE
8
0
70
0
10
-114.636024
20
254.620773
30
192.700043
11
-104.512909
21
250.888809
31
196.545029
12
-109.172150
22
245.882446
32
192.965164
13
-116.740417
23
251.923874
33
190.769455
0
3DFACE
8
0
70
0
10
-104.512909
20
250.888809
30
196.545029
11
-108.488083
21
254.566803
31
201.304108
12
-111.862015
22
248.785889
32
198.111237
13
-109.172150
23
245.882446
33
192.965164
0
3DFACE
8
0
70
0
10
-111.862015
20
248.785889
30
198.111237
11
-118.927414
21
255.366867
31
195.034668
12
-120.035683
22
254.591537
32
193.308899
13
-116.467926
23
246.451355
33
193.390167
0
3DFACE
8
0
70
0
10
-118.927414
20
255.366867
30
195.034668
11
-116.740417
21
251.923874
31
190.769455
12
-119.036201
22
252.428223
32
188.397400
13
-120.035683
23
254.591537
33
193.308899
0
3DFACE
8
0
70
0
10
-116.740417
20
251.923874
30
190.769455
11
-109.172150
21
245.882446
31
192.965164
12
-114.793976
22
244.867874
32
187.899460
13
-119.036201
23
252.428223
33
188.397400
0
3DFACE
8
0
70
0
10
-109.172150
20
245.882446
30
192.965164
11
-111.862015
21
248.785889
31
198.111237
12
-116.467926
22
246.451355
32
193.390167
13
-114.793976
23
244.867874
33
187.899460
0
3DFACE
8
0
70
0
10
-116.467926
20
246.451355
30
193.390167
11
-120.035683
21
254.591537
31
193.308899
12
-122.370476
22
254.275055
32
190.334503
13
-119.502991
23
246.842255
33
190.049896
0
3DFACE
8
0
70
0
10
-120.035683
20
254.591537
30
193.308899
11
-119.036201
21
252.428223
31
188.397400
12
-121.555984
22
252.491180
32
185.816757
13
-122.370476
23
254.275055
33
190.334503
0
3DFACE
8
0
70
0
10
-119.036201
20
252.428223
30
188.397400
11
-114.793976
21
244.867874
31
187.899460
12
-118.050682
22
245.588211
32
185.034561
13
-121.555984
23
252.491180
33
185.816757
0
3DFACE
8
0
70
0
10
-114.793976
20
244.867874
30
187.899460
11
-116.467926
21
246.451355
31
193.390167
12
-119.502991
22
246.842255
32
190.049896
13
-118.050682
23
245.588211
33
185.034561
0
3DFACE
8
0
70
0
10
-119.502991
20
246.842255
30
190.049896
11
-122.370476
21
254.275055
31
190.334503
12
-124.850563
22
253.504379
32
187.290237
13
-122.271294
23
246.850647
33
187.037048
0
3DFACE
8
0
70
0
10
-122.370476
20
254.275055
30
190.334503
11
-121.555984
21
252.491180
31
185.816757
12
-124.121407
22
251.912872
32
183.226364
13
-124.850563
23
253.504379
33
187.290237
0
3DFACE
8
0
70
0
10
-121.555984
20
252.491180
30
185.816757
11
-118.050682
21
245.588211
31
185.034561
12
-120.964844
22
245.742233
32
182.524536
13
-124.121407
23
251.912872
33
183.226364
0
3DFACE
8
0
70
0
10
-118.050682
20
245.588211
30
185.034561
11
-119.502991
21
246.842255
31
190.049896
12
-122.271294
22
246.850647
32
187.037048
13
-120.964844
23
245.742233
33
182.524536
0
3DFACE
8
0
70
0
10
-122.271294
20
246.850647
30
187.037048
11
-124.850563
21
253.504379
31
187.290237
12
-127.095627
22
253.225388
32
184.508682
13
-125.394142
23
247.092087
33
183.637634
0
3DFACE
8
0
70
0
10
-124.850563
20
253.504379
30
187.290237
11
-124.121407
21
251.912872
31
183.226364
12
-126.567108
22
252.081924
32
180.699356
13
-127.095627
23
253.225388
33
184.508682
0
3DFACE
8
0
70
0
10
-124.121407
20
251.912872
30
183.226364
11
-120.964844
21
245.742233
31
182.524536
12
-124.298149
22
246.381210
32
179.466522
13
-126.567108
23
252.081924
33
180.699356
0
3DFACE
8
0
70
0
10
-120.964844
20
245.742233
30
182.524536
11
-122.271294
21
246.850647
31
187.037048
12
-125.394142
22
247.092087
32
183.637634
13
-124.298149
23
246.381210
33
179.466522
0
3DFACE
8
0
70
0
10
-125.394142
20
247.092087
30
183.637634
11
-127.095627
21
253.225388
31
184.508682
12
-129.128235
22
253.384521
32
181.965164
13
-128.135361
23
247.826538
33
180.601761
0
3DFACE
8
0
70
0
10
-127.095627
20
253.225388
30
184.508682
11
-126.567108
21
252.081924
31
180.699356
12
-128.737671
22
252.628967
32
178.428879
13
-129.128235
23
253.384521
33
181.965164
0
3DFACE
8
0
70
0
10
-126.567108
20
252.081924
30
180.699356
11
-124.298149
21
246.381210
31
179.466522
12
-127.194542
22
247.451248
32
176.775696
13
-128.737671
23
252.628967
33
178.428879
0
3DFACE
8
0
70
0
10
-124.298149
20
246.381210
30
179.466522
11
-125.394142
21
247.092087
31
183.637634
12
-128.135361
22
247.826538
32
180.601761
13
-127.194542
23
247.451248
33
176.775696
0
3DFACE
8
0
70
0
10
-128.135361
20
247.826538
30
180.601761
11
-129.128235
21
253.384521
31
181.965164
12
-131.822235
22
254.292328
32
178.723831
13
-131.001846
23
249.304794
33
177.383560
0
3DFACE
8
0
70
0
10
-129.128235
20
253.384521
30
181.965164
11
-128.737671
21
252.628967
31
178.428879
12
-131.481247
22
253.672897
32
175.524185
13
-131.822235
23
254.292328
33
178.723831
0
3DFACE
8
0
70
0
10
-128.737671
20
252.628967
30
178.428879
11
-127.194542
21
247.451248
31
176.775696
12
-130.159409
22
249.030228
32
173.929932
13
-131.481247
23
253.672897
33
175.524185
0
3DFACE
8
0
70
0
10
-127.194542
20
247.451248
30
176.775696
11
-128.135361
21
247.826538
31
180.601761
12
-131.001846
22
249.304794
32
177.383560
13
-130.159409
23
249.030228
33
173.929932
0
3DFACE
8
0
70
0
10
-131.001846
20
249.304794
30
177.383560
11
-131.822235
21
254.292328
31
178.723831
12
-135.218582
22
255.122467
32
174.790359
13
-134.007797
23
250.686005
33
174.046173
0
3DFACE
8
0
70
0
10
-131.822235
20
254.292328
30
178.723831
11
-131.481247
21
253.672897
31
175.524185
12
-134.842514
22
254.359848
32
171.993317
13
-135.218582
23
255.122467
33
174.790359
0
3DFACE
8
0
70
0
10
-131.481247
20
253.672897
30
175.524185
11
-130.159409
21
249.030228
31
173.929932
12
-133.211761
22
250.251801
32
170.992126
13
-134.842514
23
254.359848
33
171.993317
0
3DFACE
8
0
70
0
10
-130.159409
20
249.030228
30
173.929932
11
-131.001846
21
249.304794
31
177.383560
12
-134.007797
22
250.686005
32
174.046173
13
-133.211761
23
250.251801
33
170.992126
0
3DFACE
8
0
70
0
10
-134.007797
20
250.686005
30
174.046173
11
-135.218582
21
255.122467
31
174.790359
12
-138.117218
22
255.023911
32
171.458633
13
-136.687683
23
251.130554
33
171.131958
0
3DFACE
8
0
70
0
10
-135.218582
20
255.122467
30
174.790359
11
-134.842514
21
254.359848
31
171.993317
12
-137.714218
22
254.197617
32
169.017822
13
-138.117218
23
255.023911
33
171.458633
0
3DFACE
8
0
70
0
10
-134.842514
20
254.359848
30
171.993317
11
-133.211761
21
250.251801
31
170.992126
12
-135.929947
22
250.608749
32
168.437439
13
-137.714218
23
254.197617
33
169.017822
0
3DFACE
8
0
70
0
10
-133.211761
20
250.251801
30
170.992126
11
-134.007797
21
250.686005
31
174.046173
12
-136.687683
22
251.130554
32
171.131958
13
-135.929947
23
250.608749
33
168.437439
0
3DFACE
8
0
70
0
10
-115.987137
20
279.414490
30
185.701538
11
-119.140610
21
282.589935
31
184.102448
12
-114.800354
22
283.940399
32
182.979462
13
-111.584610
23
281.344116
33
184.225143
0
3DFACE
8
0
70
0
10
-119.140610
20
282.589935
30
184.102448
11
-115.971535
21
286.846100
31
187.759811
12
-112.254440
22
287.957428
32
186.294235
13
-114.800354
23
283.940399
33
182.979462
0
3DFACE
8
0
70
0
10
-115.971535
20
286.846100
30
187.759811
11
-113.939621
21
284.446686
31
189.574203
12
-110.127998
22
285.952454
32
187.795532
13
-112.254440
23
287.957428
33
186.294235
0
3DFACE
8
0
70
0
10
-113.939621
20
284.446686
30
189.574203
11
-115.987137
21
279.414490
31
185.701538
12
-111.584610
22
281.344116
32
184.225143
13
-110.127998
23
285.952454
33
187.795532
0
3DFACE
8
0
70
0
10
-111.584610
20
281.344116
30
184.225143
11
-114.800354
21
283.940399
31
182.979462
12
-112.320381
22
285.374207
32
182.250641
13
-109.214531
23
283.219147
33
183.253082
0
3DFACE
8
0
70
0
10
-114.800354
20
283.940399
30
182.979462
11
-112.254440
21
287.957428
31
186.294235
12
-110.228745
22
289.089722
32
185.258362
13
-112.320381
23
285.374207
33
182.250641
0
3DFACE
8
0
70
0
10
-112.254440
20
287.957428
30
186.294235
11
-110.127998
21
285.952454
31
187.795532
12
-108.145317
22
287.396362
32
186.527618
13
-110.228745
23
289.089722
33
185.258362
0
3DFACE
8
0
70
0
10
-110.127998
20
285.952454
30
187.795532
11
-111.584610
21
281.344116
31
184.225143
12
-109.214531
22
283.219147
32
183.253082
13
-108.145317
23
287.396362
33
186.527618
0
3DFACE
8
0
70
0
10
-109.214531
20
283.219147
30
183.253082
11
-112.320381
21
285.374207
31
182.250641
12
-109.374046
22
286.443542
32
181.476074
13
-106.030533
23
285.339539
33
181.976669
0
3DFACE
8
0
70
0
10
-112.320381
20
285.374207
30
182.250641
11
-110.228745
21
289.089722
31
185.258362
12
-108.230560
22
289.980072
32
184.317474
13
-109.374046
23
286.443542
33
181.476074
0
3DFACE
8
0
70
0
10
-110.228745
20
289.089722
30
185.258362
11
-108.145317
21
287.396362
31
186.527618
12
-105.877876
22
288.996674
32
185.172287
13
-108.230560
23
289.980072
33
184.317474
0
3DFACE
8
0
70
0
10
-108.145317
20
287.396362
30
186.527618
11
-109.214531
21
283.219147
31
183.253082
12
-106.030533
22
285.339539
32
181.976669
13
-105.877876
23
288.996674
33
185.172287
0
3DFACE
8
0
70
0
10
-106.030533
20
285.339539
30
181.976669
11
-109.374046
21
286.443542
31
181.476074
12
-107.637299
22
289.598511
32
180.359421
13
-104.401749
23
289.845215
33
180.381439
0
3DFACE
8
0
70
0
10
-109.374046
20
286.443542
30
181.476074
11
-108.230560
21
289.980072
31
184.317474
12
-107.539154
22
292.684784
32
183.190475
13
-107.637299
23
289.598511
33
180.359421
0
3DFACE
8
0
70
0
10
-108.230560
20
289.980072
30
184.317474
11
-105.877876
21
288.996674
31
185.172287
12
-105.134163
22
292.655548
32
183.633652
13
-107.539154
23
292.684784
33
183.190475
0
3DFACE
8
0
70
0
10
-105.877876
20
288.996674
30
185.172287
11
-106.030533
21
285.339539
31
181.976669
12
-104.401749
22
289.845215
32
180.381439
13
-105.134163
23
292.655548
33
183.633652
0
3DFACE
8
0
70
0
10
-104.401749
20
289.845215
30
180.381439
11
-107.637299
21
289.598511
31
180.359421
12
-107.007851
22
293.271210
32
179.355576
13
-104.090637
23
293.145050
33
179.478439
0
3DFACE
8
0
70
0
10
-107.637299
20
289.598511
30
180.359421
11
-107.539154
21
292.684784
31
183.190475
12
-106.704674
22
296.134735
32
181.830841
13
-107.007851
23
293.271210
33
179.355576
0
3DFACE
8
0
70
0
10
-107.539154
20
292.684784
30
183.190475
11
-105.134163
21
292.655548
31
183.633652
12
-104.570969
22
295.860107
32
182.310272
13
-106.704674
23
296.134735
33
181.830841
0
3DFACE
8
0
70
0
10
-105.134163
20
292.655548
30
183.633652
11
-104.401749
21
289.845215
31
180.381439
12
-104.090637
22
293.145050
32
179.478439
13
-104.570969
23
295.860107
33
182.310272
0
3DFACE
8
0
70
0
10
-104.090637
20
293.145050
30
179.478439
11
-107.007851
21
293.271210
31
179.355576
12
-105.327820
22
296.131989
32
178.304916
13
-102.795677
23
295.458618
33
178.600067
0
3DFACE
8
0
70
0
10
-107.007851
20
293.271210
30
179.355576
11
-106.704674
21
296.134735
31
181.830841
12
-104.665756
22
298.764038
32
180.424057
13
-105.327820
23
296.131989
33
178.304916
0
3DFACE
8
0
70
0
10
-106.704674
20
296.134735
30
181.830841
11
-104.570969
21
295.860107
31
182.310272
12
-102.868431
22
298.130737
32
180.995819
13
-104.665756
23
298.764038
33
180.424057
0
3DFACE
8
0
70
0
10
-104.570969
20
295.860107
30
182.310272
11
-104.090637
21
293.145050
31
179.478439
12
-102.795677
22
295.458618
32
178.600067
13
-102.868431
23
298.130737
33
180.995819
0
3DFACE
8
0
70
0
10
-122.162941
20
284.738617
30
184.565582
11
-121.651779
21
288.508942
31
187.141693
12
-123.846642
22
285.961365
32
183.846893
13
-124.302765
23
282.868866
33
181.175278
0
3DFACE
8
0
70
0
10
-121.651779
20
288.508942
30
187.141693
11
-122.154457
21
292.928864
31
185.203918
12
-124.064148
22
290.099945
32
182.500809
13
-123.846642
23
285.961365
33
183.846893
0
3DFACE
8
0
70
0
10
-122.154457
20
292.928864
30
185.203918
11
-122.717339
21
290.163757
31
182.723541
12
-124.545410
22
287.897217
32
180.007645
13
-124.064148
23
290.099945
33
182.500809
0
3DFACE
8
0
70
0
10
-122.717339
20
290.163757
30
182.723541
11
-122.162941
21
284.738617
31
184.565582
12
-124.302765
22
282.868866
32
181.175278
13
-124.545410
23
287.897217
33
180.007645
0
3DFACE
8
0
70
0
10
-124.302765
20
282.868866
30
181.175278
11
-123.846642
21
285.961365
31
183.846893
12
-125.288292
22
284.636078
32
181.197449
13
-125.558487
23
282.586487
33
178.152954
0
3DFACE
8
0
70
0
10
-123.846642
20
285.961365
30
183.846893
11
-124.064148
21
290.099945
31
182.500809
12
-125.089005
22
288.544525
32
180.927841
13
-125.288292
23
284.636078
33
181.197449
0
3DFACE
8
0
70
0
10
-124.064148
20
290.099945
30
182.500809
11
-124.545410
21
287.897217
31
180.007645
12
-125.361900
22
287.234344
32
178.237183
13
-125.089005
23
288.544525
33
180.927841
0
3DFACE
8
0
70
0
10
-124.545410
20
287.897217
30
180.007645
11
-124.302765
21
282.868866
31
181.175278
12
-125.558487
22
282.586487
32
178.152954
13
-125.361900
23
287.234344
33
178.237183
0
3DFACE
8
0
70
0
10
-125.558487
20
282.586487
30
178.152954
11
-125.288292
21
284.636078
31
181.197449
12
-126.869133
22
284.260620
32
176.666443
13
-126.949707
23
282.951508
33
173.632584
0
3DFACE
8
0
70
0
10
-125.288292
20
284.636078
30
181.197449
11
-125.089005
21
288.544525
31
180.927841
12
-126.501846
22
287.747375
32
177.056091
13
-126.869133
23
284.260620
33
176.666443
0
3DFACE
8
0
70
0
10
-125.089005
20
288.544525
30
180.927841
11
-125.361900
21
287.234344
31
178.237183
12
-126.589554
22
287.039276
32
174.454102
13
-126.501846
23
287.747375
33
177.056091
0
3DFACE
8
0
70
0
10
-125.361900
20
287.234344
30
178.237183
11
-125.558487
21
282.586487
31
178.152954
12
-126.949707
22
282.951508
32
173.632584
13
-126.589554
23
287.039276
33
174.454102
0
3DFACE
8
0
70
0
10
-126.949707
20
282.951508
30
173.632584
11
-126.869133
21
284.260620
31
176.666443
12
-128.044037
22
284.398224
32
172.670151
13
-128.078415
23
283.325623
33
169.896011
0
3DFACE
8
0
70
0
10
-126.869133
20
284.260620
30
176.666443
11
-126.501846
21
287.747375
31
177.056091
12
-127.685585
22
287.516479
32
173.141098
13
-128.044037
23
284.398224
33
172.670151
0
3DFACE
8
0
70
0
10
-126.501846
20
287.747375
30
177.056091
11
-126.589554
21
287.039276
31
174.454102
12
-127.729805
22
286.970520
32
170.775970
13
-127.685585
23
287.516479
33
173.141098
0
3DFACE
8
0
70
0
10
-126.589554
20
287.039276
30
174.454102
11
-126.949707
21
282.951508
31
173.632584
12
-128.078415
22
283.325623
32
169.896011
13
-127.729805
23
286.970520
33
170.775970
0
3DFACE
8
0
70
0
10
33.355949
20
118.823212
30
-55.552906
11
59.613930
21
105.055054
31
-37.730282
12
22.172949
22
109.206261
32
-65.649269
13
21.730064
23
118.610855
33
-62.641888
0
3DFACE
8
0
70
0
10
33.355949
20
118.823212
30
-55.552906
11
29.887623
21
127.063484
31
-49.722973
12
53.026611
22
127.406258
32
-31.580725
13
59.613930
23
105.055054
33
-37.730282
0
3DFACE
8
0
70
0
10
29.887623
20
127.063484
30
-49.722973
11
19.985199
21
128.657578
31
-54.777191
12
19.194302
22
135.612061
32
-50.858238
13
53.026611
23
127.406258
33
-31.580725
0
3DFACE
8
0
70
0
10
8.799702
20
127.846687
30
-55.492771
11
-20.249269
21
130.127762
31
-51.629505
12
19.194302
22
135.612061
32
-50.858238
13
19.985199
23
128.657578
33
-54.777191
0
3DFACE
8
0
70
0
10
8.167176
20
119.758751
30
-62.444725
11
-24.453665
21
108.177383
31
-60.731750
12
-20.249269
22
130.127762
32
-51.629505
13
8.799702
23
127.846687
33
-55.492771
0
3DFACE
8
0
70
0
10
8.167176
20
119.758751
30
-62.444725
11
21.730064
21
118.610855
31
-62.641888
12
22.172949
22
109.206261
32
-65.649269
13
-24.453665
23
108.177383
33
-60.731750
0
3DFACE
8
0
70
0
10
24.710764
20
114.160316
30
-74.201691
11
38.780346
21
120.795593
31
-67.986732
12
33.355949
22
118.823212
32
-55.552906
13
21.730064
23
118.610855
33
-62.641888
0
3DFACE
8
0
70
0
10
38.780346
20
120.795593
30
-67.986732
11
34.555515
21
137.327377
31
-59.044685
12
29.887623
22
127.063484
32
-49.722973
13
33.355949
23
118.823212
33
-55.552906
0
3DFACE
8
0
70
0
10
34.555515
20
137.327377
30
-59.044685
11
22.433304
21
144.753693
31
-61.357834
12
19.985199
22
128.657578
32
-54.777191
13
29.887623
23
127.063484
33
-49.722973
0
3DFACE
8
0
70
0
10
10.298134
20
138.228317
30
-65.681671
11
8.799702
21
127.846687
31
-55.492771
12
19.985199
22
128.657578
32
-54.777191
13
22.433304
23
144.753693
33
-61.357834
0
3DFACE
8
0
70
0
10
9.975947
20
121.865410
30
-75.867805
11
8.167176
21
119.758751
31
-62.444725
12
8.799702
22
127.846687
32
-55.492771
13
10.298134
23
138.228317
33
-65.681671
0
3DFACE
8
0
70
0
10
24.710764
20
114.160316
30
-74.201691
11
21.730064
21
118.610855
31
-62.641888
12
8.167176
22
119.758751
32
-62.444725
13
9.975947
23
121.865410
33
-75.867805
0
3DFACE
8
0
70
0
10
28.089325
20
134.460007
30
-83.565804
11
31.284039
21
135.564835
31
-82.492729
12
38.780346
22
120.795593
32
-67.986732
13
24.710764
23
114.160316
33
-74.201691
0
3DFACE
8
0
70
0
10
31.284039
20
135.564835
30
-82.492729
11
30.822464
21
144.541550
31
-81.270287
12
34.555515
22
137.327377
32
-59.044685
13
38.780346
23
120.795593
33
-67.986732
0
3DFACE
8
0
70
0
10
30.822464
20
144.541550
30
-81.270287
11
28.080866
21
145.485962
31
-81.908356
12
22.433304
22
144.753693
32
-61.357834
13
34.555515
23
137.327377
33
-59.044685
0
3DFACE
8
0
70
0
10
25.333044
20
144.745422
30
-82.772232
11
10.298134
21
138.228317
31
-65.681671
12
22.433304
22
144.753693
32
-61.357834
13
28.080866
23
145.485962
33
-81.908356
0
3DFACE
8
0
70
0
10
24.885212
20
135.802490
30
-84.243484
11
9.975947
21
121.865410
31
-75.867805
12
10.298134
22
138.228317
32
-65.681671
13
25.333044
23
144.745422
33
-82.772232
0
3DFACE
8
0
70
0
10
28.089325
20
134.460007
30
-83.565804
11
24.710764
21
114.160316
31
-74.201691
12
9.975947
22
121.865410
32
-75.867805
13
24.885212
23
135.802490
33
-84.243484
0
3DFACE
8
0
70
0
10
-40.428883
20
258.910461
30
251.536072
11
-27.731638
21
229.952408
31
276.067261
12
-3.547276
22
234.789261
32
275.869507
13
-13.343369
23
265.283356
33
251.465546
0
3DFACE
8
0
70
0
10
-12.385709
20
187.891586
30
242.081161
11
12.761751
21
213.258102
31
244.191986
12
12.470236
22
200.002853
32
275.655365
13
-10.893899
23
180.497192
33
274.515289
0
3DFACE
8
0
70
0
10
-40.428883
20
258.910461
30
251.536072
11
-61.126526
21
240.083557
31
249.513519
12
-47.854179
22
215.458176
32
274.621002
13
-27.731638
23
229.952408
33
276.067261
0
3DFACE
8
0
70
0
10
-12.385709
20
187.891586
30
242.081161
11
-10.893899
21
180.497192
31
274.515289
12
-40.441666
22
183.276337
32
274.866211
13
-46.596458
23
192.875809
33
243.149139
0
3DFACE
8
0
70
0
10
-14.841399
20
279.275391
30
229.782669
11
-46.644699
21
272.361603
31
230.165192
12
-40.428883
22
258.910461
32
251.536072
13
-13.343369
23
265.283356
33
251.465546
0
3DFACE
8
0
70
0
10
-14.841399
20
279.275391
30
229.782669
11
-13.343369
21
265.283356
31
251.465546
12
12.761751
22
213.258102
32
244.191986
13
16.412306
23
217.487885
33
221.016708
0
3DFACE
8
0
70
0
10
16.412306
20
217.487885
30
221.016708
11
12.761751
21
213.258102
31
244.191986
12
-12.385709
22
187.891586
32
242.081161
13
-10.413029
23
181.378006
33
222.211487
0
3DFACE
8
0
70
0
10
-69.329529
20
248.868149
30
227.297501
11
-61.126526
21
240.083557
31
249.513519
12
-40.428883
22
258.910461
32
251.536072
13
-46.644699
23
272.361603
33
230.165192
0
3DFACE
8
0
70
0
10
-69.329529
20
248.868149
30
227.297501
11
-51.126030
21
194.264450
31
219.826889
12
-46.596458
22
192.875809
32
243.149139
13
-61.126526
23
240.083557
33
249.513519
0
3DFACE
8
0
70
0
10
-51.126030
20
194.264450
30
219.826889
11
-10.413029
21
181.378006
31
222.211487
12
-12.385709
22
187.891586
32
242.081161
13
-46.596458
23
192.875809
33
243.149139
0
3DFACE
8
0
70
0
10
-24.728725
20
252.821396
30
268.817566
11
-23.365948
21
257.783234
31
267.965118
12
-26.991354
22
257.510101
32
268.058228
13
-26.991354
23
257.510101
33
268.058228
0
3DFACE
8
0
70
0
10
-24.728725
20
252.821396
30
268.817566
11
-20.561287
21
255.239349
31
267.494324
12
-23.365948
22
257.783234
32
267.965118
13
-23.365948
23
257.783234
33
267.965118
0
3DFACE
8
0
70
0
10
-20.259909
20
251.400162
30
266.935120
11
-20.561287
21
255.239349
31
267.494324
12
-24.728725
22
252.821396
32
268.817566
13
-24.728725
23
252.821396
33
268.817566
0
3DFACE
8
0
70
0
10
-22.634418
20
248.568787
30
266.615692
11
-20.259909
21
251.400162
31
266.935120
12
-24.728725
22
252.821396
32
268.817566
13
-24.728725
23
252.821396
33
268.817566
0
3DFACE
8
0
70
0
10
-22.634418
20
248.568787
30
266.615692
11
-24.728725
21
252.821396
31
268.817566
12
-26.254822
22
248.371582
32
266.709930
13
-26.254822
23
248.371582
33
266.709930
0
3DFACE
8
0
70
0
10
-26.254822
20
248.371582
30
266.709930
11
-24.728725
21
252.821396
31
268.817566
12
-29.004156
22
250.870392
32
267.161987
13
-29.004156
23
250.870392
33
267.161987
0
3DFACE
8
0
70
0
10
-24.728725
20
252.821396
30
268.817566
11
-29.310539
21
254.633636
31
267.720062
12
-29.004156
22
250.870392
32
267.161987
13
-29.004156
23
250.870392
33
267.161987
0
3DFACE
8
0
70
0
10
-24.728725
20
252.821396
30
268.817566
11
-26.991354
21
257.510101
31
268.058228
12
-29.310539
22
254.633636
32
267.720062
13
-29.310539
23
254.633636
33
267.720062
0
3DFACE
8
0
70
0
10
-23.365948
20
257.783234
30
267.965118
11
-22.669422
21
261.355865
31
264.472046
12
-28.541645
22
260.882904
32
264.623322
13
-26.991354
23
257.510101
33
268.058228
0
3DFACE
8
0
70
0
10
-20.561287
20
255.239349
30
267.494324
11
-18.093662
21
257.200684
31
263.697754
12
-22.669422
22
261.355865
32
264.472046
13
-23.365948
23
257.783234
33
267.965118
0
3DFACE
8
0
70
0
10
-17.599403
20
250.933655
30
262.789429
11
-18.093662
21
257.200684
31
263.697754
12
-20.561287
22
255.239349
32
267.494324
13
-20.259909
23
251.400162
33
266.935120
0
3DFACE
8
0
70
0
10
-21.465113
20
246.368256
30
262.280609
11
-17.599403
21
250.933655
31
262.789429
12
-20.259909
22
251.400162
32
266.935120
13
-22.634418
23
248.568787
33
266.615692
0
3DFACE
8
0
70
0
10
-21.465113
20
246.368256
30
262.280609
11
-22.634418
21
248.568787
31
266.615692
12
-26.254822
22
248.371582
32
266.709930
13
-27.323915
23
246.094254
33
262.434753
0
3DFACE
8
0
70
0
10
-27.323915
20
246.094254
30
262.434753
11
-26.254822
21
248.371582
31
266.709930
12
-29.004156
22
250.870392
32
267.161987
13
-31.754515
23
250.131592
33
263.159973
0
3DFACE
8
0
70
0
10
-29.004156
20
250.870392
30
267.161987
11
-29.310539
21
254.633636
31
267.720062
12
-32.262196
22
256.199707
32
264.065369
13
-31.754515
23
250.131592
33
263.159973
0
3DFACE
8
0
70
0
10
-29.310539
20
254.633636
30
267.720062
11
-26.991354
21
257.510101
31
268.058228
12
-28.541645
22
260.882904
32
264.623322
13
-32.262196
23
256.199707
33
264.065369
0
3DFACE
8
0
70
0
10
-22.669422
20
261.355865
30
264.472046
11
-22.856293
21
262.132233
31
259.656189
12
-28.733654
22
261.667877
32
259.809082
13
-28.541645
23
260.882904
33
264.623322
0
3DFACE
8
0
70
0
10
-18.093662
20
257.200684
30
263.697754
11
-18.268396
21
257.956238
31
258.877991
12
-22.856293
22
262.132233
32
259.656189
13
-22.669422
23
261.355865
33
264.472046
0
3DFACE
8
0
70
0
10
-17.599403
20
250.933655
30
262.789429
11
-17.762379
21
251.668106
31
257.965942
12
-18.268396
22
257.956238
32
258.877991
13
-18.093662
23
257.200684
33
263.697754
0
3DFACE
8
0
70
0
10
-21.465113
20
246.368256
30
262.280609
11
-21.623331
21
247.093964
31
257.455566
12
-17.762379
22
251.668106
32
257.965942
13
-17.599403
23
250.933655
33
262.789429
0
3DFACE
8
0
70
0
10
-21.465113
20
246.368256
30
262.280609
11
-27.323915
21
246.094254
31
262.434753
12
-27.486893
22
246.828766
32
257.611237
13
-21.623331
23
247.093964
33
257.455566
0
3DFACE
8
0
70
0
10
-27.323915
20
246.094254
30
262.434753
11
-31.754515
21
250.131592
31
263.159973
12
-31.929247
22
250.887161
32
258.340179
13
-27.486893
23
246.828766
33
257.611237
0
3DFACE
8
0
70
0
10
-31.754515
20
250.131592
30
263.159973
11
-32.262196
21
256.199707
31
264.065369
12
-32.449070
22
256.976105
32
259.249481
13
-31.929247
23
250.887161
33
258.340179
0
3DFACE
8
0
70
0
10
-32.262196
20
256.199707
30
264.065369
11
-28.541645
21
260.882904
31
264.623322
12
-28.733654
22
261.667877
32
259.809082
13
-32.449070
23
256.976105
33
259.249481
0
3DFACE
8
0
70
0
10
-23.842936
20
259.795105
30
255.352966
11
-27.476540
21
259.535950
31
255.448715
12
-28.733654
22
261.667877
32
259.809082
13
-22.856293
23
262.132233
33
259.656189
0
3DFACE
8
0
70
0
10
-18.268396
20
257.956238
30
258.877991
11
-21.018753
21
257.217407
31
254.875946
12
-23.842936
22
259.795105
32
255.352966
13
-22.856293
23
262.132233
33
259.656189
0
3DFACE
8
0
70
0
10
-17.762379
20
251.668106
30
257.965942
11
-20.698235
21
253.344238
31
254.310608
12
-21.018753
22
257.217407
32
254.875946
13
-18.268396
23
257.956238
33
258.877991
0
3DFACE
8
0
70
0
10
-21.623331
20
247.093964
30
257.455566
11
-23.064922
21
250.498688
31
253.988632
12
-20.698235
22
253.344238
32
254.310608
13
-17.762379
23
251.668106
33
257.965942
0
3DFACE
8
0
70
0
10
-21.623331
20
247.093964
30
257.455566
11
-27.486893
21
246.828766
31
257.611237
12
-26.693146
22
250.315628
32
254.085403
13
-23.064922
23
250.498688
33
253.988632
0
3DFACE
8
0
70
0
10
-27.486893
20
246.828766
30
257.611237
11
-31.929247
21
250.887161
31
258.340179
12
-29.461622
22
252.848511
32
254.543594
13
-26.693146
23
250.315628
33
254.085403
0
3DFACE
8
0
70
0
10
-31.929247
20
250.887161
30
258.340179
11
-32.449070
21
256.976105
31
259.249481
12
-29.787527
22
256.645538
32
255.107910
13
-29.461622
23
252.848511
33
254.543594
0
3DFACE
8
0
70
0
10
-29.787527
20
256.645538
30
255.107910
11
-32.449070
21
256.976105
31
259.249481
12
-28.733654
22
261.667877
32
259.809082
13
-27.476540
23
259.535950
33
255.448715
0
3DFACE
8
0
70
0
10
-25.294186
20
255.266464
30
253.220367
11
-27.476540
21
259.535950
31
255.448715
12
-23.842936
22
259.795105
32
255.352966
13
-23.842936
23
259.795105
33
255.352966
0
3DFACE
8
0
70
0
10
-21.018753
20
257.217407
30
254.875946
11
-25.294186
21
255.266464
31
253.220367
12
-23.842936
22
259.795105
32
255.352966
13
-23.842936
23
259.795105
33
255.352966
0
3DFACE
8
0
70
0
10
-20.698235
20
253.344238
30
254.310608
11
-25.294186
21
255.266464
31
253.220367
12
-21.018753
22
257.217407
32
254.875946
13
-21.018753
23
257.217407
33
254.875946
0
3DFACE
8
0
70
0
10
-23.064922
20
250.498688
30
253.988632
11
-25.294186
21
255.266464
31
253.220367
12
-20.698235
22
253.344238
32
254.310608
13
-20.698235
23
253.344238
33
254.310608
0
3DFACE
8
0
70
0
10
-23.064922
20
250.498688
30
253.988632
11
-26.693146
21
250.315628
31
254.085403
12
-25.294186
22
255.266464
32
253.220367
13
-25.294186
23
255.266464
33
253.220367
0
3DFACE
8
0
70
0
10
-26.693146
20
250.315628
30
254.085403
11
-29.461622
21
252.848511
31
254.543594
12
-25.294186
22
255.266464
32
253.220367
13
-25.294186
23
255.266464
33
253.220367
0
3DFACE
8
0
70
0
10
-29.461622
20
252.848511
30
254.543594
11
-29.787527
21
256.645538
31
255.107910
12
-25.294186
22
255.266464
32
253.220367
13
-25.294186
23
255.266464
33
253.220367
0
3DFACE
8
0
70
0
10
-25.294186
20
255.266464
30
253.220367
11
-29.787527
21
256.645538
31
255.107910
12
-27.476540
22
259.535950
32
255.448715
13
-27.476540
23
259.535950
33
255.448715
0
3DFACE
8
0
70
0
10
-17.463772
20
196.635208
30
330.652985
11
-19.659288
21
203.150665
31
329.196625
12
-23.592451
22
199.608917
32
328.879883
13
-23.592451
23
199.608917
33
328.879883
0
3DFACE
8
0
70
0
10
-17.463772
20
196.635208
30
330.652985
11
-23.592451
21
199.608917
31
328.879883
12
-24.005901
22
194.570343
32
328.330109
13
-24.005901
23
194.570343
33
328.330109
0
3DFACE
8
0
70
0
10
-20.673012
20
190.873291
30
327.870483
11
-17.463772
21
196.635208
31
330.652985
12
-24.005901
22
194.570343
32
328.330109
13
-24.005901
23
194.570343
33
328.330109
0
3DFACE
8
0
70
0
10
-15.475162
20
190.598282
30
327.747223
11
-17.463772
21
196.635208
31
330.652985
12
-20.673012
22
190.873291
32
327.870483
13
-20.673012
23
190.873291
33
327.870483
0
3DFACE
8
0
70
0
10
-15.475162
20
190.598282
30
327.747223
11
-11.439468
21
194.020538
31
328.030365
12
-17.463772
22
196.635208
32
330.652985
13
-17.463772
23
196.635208
33
330.652985
0
3DFACE
8
0
70
0
10
-11.439468
20
194.020538
30
328.030365
11
-11.002080
21
199.220657
31
328.577637
12
-17.463772
22
196.635208
32
330.652985
13
-17.463772
23
196.635208
33
330.652985
0
3DFACE
8
0
70
0
10
-17.463772
20
196.635208
30
330.652985
11
-11.002080
21
199.220657
31
328.577637
12
-14.437538
22
203.037247
32
329.070801
13
-14.437538
23
203.037247
33
329.070801
0
3DFACE
8
0
70
0
10
-17.463772
20
196.635208
30
330.652985
11
-14.437538
21
203.037247
31
329.070801
12
-19.659288
22
203.150665
32
329.196625
13
-19.659288
23
203.150665
33
329.196625
0
3DFACE
8
0
70
0
10
-23.592451
20
199.608917
30
328.879883
11
-19.659288
21
203.150665
31
329.196625
12
-21.181732
22
207.731094
32
323.923462
13
-27.486952
23
201.925919
33
323.391724
0
3DFACE
8
0
70
0
10
-24.005901
20
194.570343
30
328.330109
11
-23.592451
21
199.608917
31
328.879883
12
-27.486952
22
201.925919
32
323.391724
13
-28.129599
23
193.814713
33
322.496338
0
3DFACE
8
0
70
0
10
-22.772642
20
187.853867
30
321.764435
11
-20.673012
21
190.873291
31
327.870483
12
-24.005901
22
194.570343
32
328.330109
13
-28.129599
23
193.814713
33
322.496338
0
3DFACE
8
0
70
0
10
-14.369987
20
187.311752
30
321.564911
11
-15.475162
21
190.598282
31
327.747223
12
-20.673012
22
190.873291
32
327.870483
13
-22.772642
23
187.853867
33
321.764435
0
3DFACE
8
0
70
0
10
-14.369987
20
187.311752
30
321.564911
11
-7.795301
21
192.804535
31
322.008453
12
-11.439468
22
194.020538
32
328.030365
13
-15.475162
23
190.598282
33
327.747223
0
3DFACE
8
0
70
0
10
-7.795301
20
192.804535
30
322.008453
11
-7.088972
21
201.339050
31
322.896881
12
-11.002080
22
199.220657
32
328.577637
13
-11.439468
23
194.020538
33
328.030365
0
3DFACE
8
0
70
0
10
-11.002080
20
199.220657
30
328.577637
11
-7.088972
21
201.339050
31
322.896881
12
-12.715456
22
207.612381
32
323.717010
13
-14.437538
23
203.037247
33
329.070801
0
3DFACE
8
0
70
0
10
-14.437538
20
203.037247
30
329.070801
11
-12.715456
21
207.612381
31
323.717010
12
-21.181732
22
207.731094
32
323.923462
13
-19.659288
23
203.150665
33
329.196625
0
3DFACE
8
0
70
0
10
-27.486952
20
201.925919
30
323.391724
11
-21.181732
21
207.731094
31
323.923462
12
-21.339571
22
208.641647
32
316.816010
13
-27.636419
23
202.816605
33
316.281616
0
3DFACE
8
0
70
0
10
-28.129599
20
193.814713
30
322.496338
11
-27.486952
21
201.925919
31
323.391724
12
-27.636419
22
202.816605
32
316.281616
13
-28.259748
23
194.656967
33
315.380005
0
3DFACE
8
0
70
0
10
-22.772642
20
187.853867
30
321.764435
11
-28.129599
21
193.814713
31
322.496338
12
-28.259748
22
194.656967
32
315.380005
13
-22.884771
23
188.647186
33
314.642334
0
3DFACE
8
0
70
0
10
-14.369987
20
187.311752
30
321.564911
11
-22.772642
21
187.853867
31
321.764435
12
-22.884771
22
188.647186
32
314.642334
13
-14.475032
23
188.084671
33
314.440582
0
3DFACE
8
0
70
0
10
-14.369987
20
187.311752
30
321.564911
11
-14.475032
21
188.084671
31
314.440582
12
-7.907430
22
193.597824
32
314.886383
13
-7.795301
23
192.804535
33
322.008453
0
3DFACE
8
0
70
0
10
-7.795301
20
192.804535
30
322.008453
11
-7.907430
21
193.597824
31
314.886383
12
-7.219123
22
202.181305
32
315.780518
13
-7.088972
23
201.339050
33
322.896881
0
3DFACE
8
0
70
0
10
-7.088972
20
201.339050
30
322.896881
11
-7.219123
21
202.181305
31
315.780518
12
-12.864919
22
208.503052
32
316.606873
13
-12.715456
23
207.612381
33
323.717010
0
3DFACE
8
0
70
0
10
-12.715456
20
207.612381
30
323.717010
11
-12.864919
21
208.503052
31
316.606873
12
-21.339571
22
208.641647
32
316.816010
13
-21.181732
23
207.731094
33
323.923462
0
3DFACE
8
0
70
0
10
-23.964045
20
201.892471
30
310.258942
11
-27.636419
21
202.816605
31
316.281616
12
-21.339571
22
208.641647
32
316.816010
13
-20.044037
23
205.466568
33
310.579865
0
3DFACE
8
0
70
0
10
-28.259748
20
194.656967
30
315.380005
11
-27.636419
21
202.816605
31
316.281616
12
-23.964045
22
201.892471
32
310.258942
13
-24.346642
23
196.775375
33
309.699188
0
3DFACE
8
0
70
0
10
-22.884771
20
188.647186
30
314.642334
11
-28.259748
21
194.656967
31
315.380005
12
-24.346642
22
196.775375
32
309.699188
13
-20.984188
23
192.999313
33
309.230164
0
3DFACE
8
0
70
0
10
-14.475032
20
188.084671
30
314.440582
11
-22.884771
21
188.647186
31
314.642334
12
-20.984188
22
192.999313
32
309.230164
13
-15.774472
23
192.691422
33
309.103088
0
3DFACE
8
0
70
0
10
-14.475032
20
188.084671
30
314.440582
11
-15.774472
21
192.691422
31
309.103088
12
-11.750645
22
196.146576
32
309.390015
13
-7.907430
23
193.597824
33
314.886383
0
3DFACE
8
0
70
0
10
-7.907430
20
193.597824
30
314.886383
11
-11.750645
21
196.146576
31
309.390015
12
-11.342820
22
201.425690
32
309.946777
13
-7.219123
23
202.181305
33
315.780518
0
3DFACE
8
0
70
0
10
-7.219123
20
202.181305
30
315.780518
11
-11.342820
21
201.425690
31
309.946777
12
-14.809132
22
205.320786
32
310.449829
13
-12.864919
23
208.503052
33
316.606873
0
3DFACE
8
0
70
0
10
-14.809132
20
205.320786
30
310.449829
11
-20.044037
21
205.466568
31
310.579865
12
-21.339571
22
208.641647
32
316.816010
13
-12.864919
23
208.503052
33
316.606873
0
3DFACE
8
0
70
0
10
-17.884949
20
199.360809
30
307.623901
11
-23.964045
21
201.892471
31
310.258942
12
-20.044037
22
205.466568
32
310.579865
13
-20.044037
23
205.466568
33
310.579865
0
3DFACE
8
0
70
0
10
-24.346642
20
196.775375
30
309.699188
11
-23.964045
21
201.892471
31
310.258942
12
-17.884949
22
199.360809
32
307.623901
13
-17.884949
23
199.360809
33
307.623901
0
3DFACE
8
0
70
0
10
-20.984188
20
192.999313
30
309.230164
11
-24.346642
21
196.775375
31
309.699188
12
-17.884949
22
199.360809
32
307.623901
13
-17.884949
23
199.360809
33
307.623901
0
3DFACE
8
0
70
0
10
-15.774472
20
192.691422
30
309.103088
11
-20.984188
21
192.999313
31
309.230164
12
-17.884949
22
199.360809
32
307.623901
13
-17.884949
23
199.360809
33
307.623901
0
3DFACE
8
0
70
0
10
-15.774472
20
192.691422
30
309.103088
11
-17.884949
21
199.360809
31
307.623901
12
-11.750645
22
196.146576
32
309.390015
13
-11.750645
23
196.146576
33
309.390015
0
3DFACE
8
0
70
0
10
-11.750645
20
196.146576
30
309.390015
11
-17.884949
21
199.360809
31
307.623901
12
-11.342820
22
201.425690
32
309.946777
13
-11.342820
23
201.425690
33
309.946777
0
3DFACE
8
0
70
0
10
-11.342820
20
201.425690
30
309.946777
11
-17.884949
21
199.360809
31
307.623901
12
-14.809132
22
205.320786
32
310.449829
13
-14.809132
23
205.320786
33
310.449829
0
3DFACE
8
0
70
0
10
-17.884949
20
199.360809
30
307.623901
11
-20.044037
21
205.466568
31
310.579865
12
-14.809132
22
205.320786
32
310.449829
13
-14.809132
23
205.320786
33
310.449829
0
3DFACE
8
0
70
0
10
-45.951923
20
241.839020
30
267.982086
11
-48.086315
21
246.225067
31
267.172119
12
-50.443417
22
243.436951
32
266.848907
13
-50.443417
23
243.436951
33
266.848907
0
3DFACE
8
0
70
0
10
-45.951923
20
241.839020
30
267.982086
11
-50.443417
21
243.436951
31
266.848907
12
-50.227356
22
239.888031
32
266.326508
13
-50.227356
23
239.888031
33
266.326508
0
3DFACE
8
0
70
0
10
-47.566589
20
237.604950
30
265.909424
11
-45.951923
21
241.839020
31
267.982086
12
-50.227356
22
239.888031
32
266.326508
13
-50.227356
23
239.888031
33
266.326508
0
3DFACE
8
0
70
0
10
-43.982361
20
237.891953
30
265.829437
11
-45.951923
21
241.839020
31
267.982086
12
-47.566589
22
237.604950
32
265.909424
13
-47.566589
23
237.604950
33
265.909424
0
3DFACE
8
0
70
0
10
-43.982361
20
237.891953
30
265.829437
11
-41.571674
21
240.633560
31
266.134613
12
-45.951923
22
241.839020
32
267.982086
13
-45.951923
23
241.839020
33
267.982086
0
3DFACE
8
0
70
0
10
-41.571674
20
240.633560
30
266.134613
11
-41.784489
21
244.256973
31
266.658875
12
-45.951923
22
241.839020
32
267.982086
13
-45.951923
23
241.839020
33
267.982086
0
3DFACE
8
0
70
0
10
-45.951923
20
241.839020
30
267.982086
11
-41.784489
21
244.256973
31
266.658875
12
-44.498833
22
246.586548
32
267.093964
13
-44.498833
23
246.586548
33
267.093964
0
3DFACE
8
0
70
0
10
-45.951923
20
241.839020
30
267.982086
11
-44.498833
21
246.586548
31
267.093964
12
-48.086315
22
246.225067
32
267.172119
13
-48.086315
23
246.225067
33
267.172119
0
3DFACE
8
0
70
0
10
-50.443417
20
243.436951
30
266.848907
11
-48.086315
21
246.225067
31
267.172119
12
-49.555607
22
249.412231
32
263.705231
13
-53.338383
23
244.871277
33
263.171844
0
3DFACE
8
0
70
0
10
-50.227356
20
239.888031
30
266.326508
11
-50.443417
21
243.436951
31
266.848907
12
-53.338383
22
244.871277
32
263.171844
13
-52.977715
23
239.149231
33
262.324493
0
3DFACE
8
0
70
0
10
-48.689537
20
235.461716
30
261.655487
11
-47.566589
21
237.604950
31
265.909424
12
-50.227356
22
239.888031
32
266.326508
13
-52.977715
23
239.149231
33
262.324493
0
3DFACE
8
0
70
0
10
-42.888378
20
235.881683
30
261.524109
11
-43.982361
21
237.891953
31
265.829437
12
-47.566589
22
237.604950
32
265.909424
13
-48.689537
23
235.461716
33
261.655487
0
3DFACE
8
0
70
0
10
-42.888378
20
235.881683
30
261.524109
11
-38.965027
21
240.301102
31
262.010162
12
-41.571674
22
240.633560
32
266.134613
13
-43.982361
23
237.891953
33
265.829437
0
3DFACE
8
0
70
0
10
-38.965027
20
240.301102
30
262.010162
11
-39.316860
21
246.218292
31
262.862274
12
-41.784489
22
244.256973
32
266.658875
13
-41.571674
23
240.633560
33
266.134613
0
3DFACE
8
0
70
0
10
-41.784489
20
244.256973
30
266.658875
11
-39.316860
21
246.218292
31
262.862274
12
-43.745609
22
250.027390
32
263.578522
13
-44.498833
23
246.586548
33
267.093964
0
3DFACE
8
0
70
0
10
-44.498833
20
246.586548
30
267.093964
11
-43.745609
21
250.027390
31
263.578522
12
-49.555607
22
249.412231
32
263.705231
13
-48.086315
23
246.225067
33
267.172119
0
3DFACE
8
0
70
0
10
-53.338383
20
244.871277
30
263.171844
11
-49.555607
21
249.412231
31
263.705231
12
-49.747616
22
250.197205
32
258.890991
13
-53.525253
23
245.647675
33
258.355988
0
3DFACE
8
0
70
0
10
-52.977715
20
239.149231
30
262.324493
11
-53.338383
21
244.871277
31
263.171844
12
-53.525253
22
245.647675
32
258.355988
13
-53.152447
23
239.904770
33
257.504700
0
3DFACE
8
0
70
0
10
-48.689537
20
235.461716
30
261.655487
11
-52.977715
21
239.149231
31
262.324493
12
-53.152447
22
239.904770
32
257.504700
13
-48.852520
23
236.196198
33
256.831970
0
3DFACE
8
0
70
0
10
-42.888378
20
235.881683
30
261.524109
11
-48.689537
21
235.461716
31
261.655487
12
-48.852520
22
236.196198
32
256.831970
13
-43.046600
23
236.607391
33
256.699036
0
3DFACE
8
0
70
0
10
-42.888378
20
235.881683
30
261.524109
11
-43.046600
21
236.607391
31
256.699036
12
-39.128006
22
241.035583
32
257.186646
13
-38.965027
23
240.301102
33
262.010162
0
3DFACE
8
0
70
0
10
-38.965027
20
240.301102
30
262.010162
11
-39.128006
21
241.035583
31
257.186646
12
-39.491596
22
246.973846
32
258.042480
13
-39.316860
23
246.218292
33
262.862274
0
3DFACE
8
0
70
0
10
-39.316860
20
246.218292
30
262.862274
11
-39.491596
21
246.973846
31
258.042480
12
-43.932480
22
250.803802
32
258.762695
13
-43.745609
23
250.027390
33
263.578522
0
3DFACE
8
0
70
0
10
-43.745609
20
250.027390
30
263.578522
11
-43.932480
21
250.803802
31
258.762695
12
-49.747616
22
250.197205
32
258.890991
13
-49.555607
23
249.412231
33
263.705231
0
3DFACE
8
0
70
0
10
-50.920410
20
245.448837
30
254.236771
11
-53.525253
21
245.647675
31
258.355988
12
-49.747616
22
250.197205
32
258.890991
13
-48.571499
23
248.250870
33
254.562576
0
3DFACE
8
0
70
0
10
-53.152447
20
239.904770
30
257.504700
11
-53.525253
21
245.647675
31
258.355988
12
-50.920410
22
245.448837
32
254.236771
13
-50.684822
23
241.866119
33
253.708084
0
3DFACE
8
0
70
0
10
-48.852520
20
236.196198
30
256.831970
11
-53.152447
21
239.904770
31
257.504700
12
-50.684822
22
241.866119
32
253.708084
13
-48.004913
23
239.549042
33
253.284866
0
3DFACE
8
0
70
0
10
-43.046600
20
236.607391
30
256.699036
11
-48.852520
21
236.196198
31
256.831970
12
-48.004913
22
239.549042
32
253.284866
13
-44.412865
23
239.821854
33
253.202377
0
3DFACE
8
0
70
0
10
-43.046600
20
236.607391
30
256.699036
11
-44.412865
21
239.821854
31
253.202377
12
-42.009998
22
242.577652
32
253.510071
13
-39.128006
23
241.035583
33
257.186646
0
3DFACE
8
0
70
0
10
-39.128006
20
241.035583
30
257.186646
11
-42.009998
21
242.577652
31
253.510071
12
-42.241951
22
246.235062
32
254.040466
13
-39.491596
23
246.973846
33
258.042480
0
3DFACE
8
0
70
0
10
-39.491596
20
246.973846
30
258.042480
11
-42.241951
21
246.235062
31
254.040466
12
-44.975815
22
248.598389
32
254.481842
13
-43.932480
23
250.803802
33
258.762695
0
3DFACE
8
0
70
0
10
-44.975815
20
248.598389
30
254.481842
11
-48.571499
21
248.250870
31
254.562576
12
-49.747616
22
250.197205
32
258.890991
13
-43.932480
23
250.803802
33
258.762695
0
3DFACE
8
0
70
0
10
-46.517384
20
244.284073
30
252.384872
11
-50.920410
21
245.448837
31
254.236771
12
-48.571499
22
248.250870
32
254.562576
13
-48.571499
23
248.250870
33
254.562576
0
3DFACE
8
0
70
0
10
-50.684822
20
241.866119
30
253.708084
11
-50.920410
21
245.448837
31
254.236771
12
-46.517384
22
244.284073
32
252.384872
13
-46.517384
23
244.284073
33
252.384872
0
3DFACE
8
0
70
0
10
-48.004913
20
239.549042
30
253.284866
11
-50.684822
21
241.866119
31
253.708084
12
-46.517384
22
244.284073
32
252.384872
13
-46.517384
23
244.284073
33
252.384872
0
3DFACE
8
0
70
0
10
-44.412865
20
239.821854
30
253.202377
11
-48.004913
21
239.549042
31
253.284866
12
-46.517384
22
244.284073
32
252.384872
13
-46.517384
23
244.284073
33
252.384872
0
3DFACE
8
0
70
0
10
-44.412865
20
239.821854
30
253.202377
11
-46.517384
21
244.284073
31
252.384872
12
-42.009998
22
242.577652
32
253.510071
13
-42.009998
23
242.577652
33
253.510071
0
3DFACE
8
0
70
0
10
-42.009998
20
242.577652
30
253.510071
11
-46.517384
21
244.284073
31
252.384872
12
-42.241951
22
246.235062
32
254.040466
13
-42.241951
23
246.235062
33
254.040466
0
3DFACE
8
0
70
0
10
-42.241951
20
246.235062
30
254.040466
11
-46.517384
21
244.284073
31
252.384872
12
-44.975815
22
248.598389
32
254.481842
13
-44.975815
23
248.598389
33
254.481842
0
3DFACE
8
0
70
0
10
-46.517384
20
244.284073
30
252.384872
11
-48.571499
21
248.250870
31
254.562576
12
-44.975815
22
248.598389
32
254.481842
13
-44.975815
23
248.598389
33
254.481842
0
3DFACE
8
0
70
0
10
12.470236
20
200.002853
30
275.655365
11
12.761751
21
213.258102
31
244.191986
12
-13.343369
22
265.283356
32
251.465546
13
-3.547276
23
234.789261
33
275.869507
0
3DFACE
8
0
70
0
10
-40.441666
20
183.276337
30
274.866211
11
-47.854179
21
215.458176
31
274.621002
12
-61.126526
22
240.083557
32
249.513519
13
-46.596458
23
192.875809
33
243.149139
0
3DFACE
8
0
70
0
10
48.588596
20
-47.665768
30
-58.206013
11
46.276001
21
11.051673
31
-57.606007
12
52.703049
22
8.954677
32
-53.286400
13
55.495399
23
-47.665768
33
-58.206013
0
3DFACE
8
0
70
0
10
46.276001
20
11.051673
30
-57.606007
11
48.588596
21
-47.665768
31
-58.206013
12
42.291573
22
-47.811218
32
-58.206013
13
39.420948
23
9.301946
33
-54.001751
0
3DFACE
8
0
70
0
10
42.291573
20
-47.811218
30
-58.206013
11
44.598713
21
-47.819214
31
-58.206013
12
41.384422
22
7.780597
32
-50.867935
13
39.420948
23
9.301946
33
-54.001751
0
3DFACE
8
0
70
0
10
52.703049
20
8.954677
30
-53.286400
11
64.331139
21
-1.209771
31
3.227075
12
64.331139
22
-50.523758
32
-9.264153
13
55.495399
23
-47.665768
33
-58.206013
0
3DFACE
8
0
70
0
10
44.598713
20
-47.819214
30
-58.206013
11
48.588596
21
-49.598774
31
-9.264153
12
38.195915
22
-2.153378
32
7.939201
13
41.384422
23
7.780597
33
-50.867935
0
3DFACE
8
0
70
0
10
59.103809
20
81.827385
30
41.843513
11
28.115114
21
43.868191
31
24.626286
12
38.195915
22
-2.153378
32
7.939201
13
64.331139
23
-1.209771
33
3.227075
0
3DFACE
8
0
70
0
10
-46.276001
20
11.051673
30
-57.606007
11
-39.420948
21
9.301946
31
-54.001751
12
-42.291573
22
-47.811218
32
-58.206013
13
-48.588596
23
-47.665768
33
-58.206013
0
3DFACE
8
0
70
0
10
-39.420948
20
9.301946
30
-54.001751
11
-23.477608
21
58.135925
31
-50.440285
12
-39.656334
22
37.815964
32
-24.014410
13
-41.384422
23
7.780597
33
-50.867935
0
3DFACE
8
0
70
0
10
-52.703049
20
8.954677
30
-53.286400
11
-55.495399
21
-47.665768
31
-58.206013
12
-64.331139
22
-50.523758
32
-9.264153
13
-64.331139
23
-1.209771
33
3.227075
0
3DFACE
8
0
70
0
10
-44.598713
20
-47.819214
30
-58.206013
11
-41.384422
21
7.780597
31
-50.867935
12
-38.195915
22
-2.153378
32
7.939201
13
-48.588596
23
-49.598774
33
-9.264153
0
3DFACE
8
0
70
0
10
-64.331139
20
-1.209771
30
3.227075
11
-64.331139
21
-50.523758
31
-9.264153
12
-48.588596
22
-49.598774
32
-9.264153
13
-38.195915
23
-2.153378
33
7.939201
0
3DFACE
8
0
70
0
10
59.613930
20
105.055054
30
-37.730282
11
80.967796
21
90.780617
31
-3.077135
12
52.703049
22
8.954677
32
-53.286400
13
46.276001
23
11.051673
33
-57.606007
0
3DFACE
8
0
70
0
10
59.613930
20
105.055054
30
-37.730282
11
46.276001
21
11.051673
31
-57.606007
12
39.420948
22
9.301946
32
-54.001751
13
49.798271
23
55.414406
33
-30.391504
0
3DFACE
8
0
70
0
10
49.798271
20
55.414406
30
-30.391504
11
39.420948
21
9.301946
31
-54.001751
12
41.384422
22
7.780597
32
-50.867935
13
39.656334
23
37.815964
33
-24.014410
0
3DFACE
8
0
70
0
10
59.103809
20
81.827385
30
41.843513
11
64.331139
21
-1.209771
31
3.227075
12
52.703049
22
8.954677
32
-53.286400
13
80.967796
23
90.780617
33
-3.077135
0
3DFACE
8
0
70
0
10
38.195915
20
-2.153378
30
7.939201
11
28.115114
21
43.868191
31
24.626286
12
39.656334
22
37.815964
32
-24.014410
13
41.384422
23
7.780597
33
-50.867935
0
3DFACE
8
0
70
0
10
64.331139
20
-1.209771
30
3.227075
11
38.195915
21
-2.153378
31
7.939201
12
48.588596
22
-49.598774
32
-9.264153
13
64.331139
23
-50.523758
33
-9.264153
0
3DFACE
8
0
70
0
10
-24.453665
20
108.177383
30
-60.731750
11
-46.276001
21
11.051673
31
-57.606007
12
-52.703049
22
8.954677
32
-53.286400
13
-61.453434
23
96.070244
33
-42.044556
0
3DFACE
8
0
70
0
10
-48.588596
20
-47.665768
30
-58.206013
11
-55.495399
21
-47.665768
31
-58.206013
12
-52.703049
22
8.954677
32
-53.286400
13
-46.276001
23
11.051673
33
-57.606007
0
3DFACE
8
0
70
0
10
-24.453665
20
108.177383
30
-60.731750
11
-23.477608
21
58.135925
31
-50.440285
12
-39.420948
22
9.301946
32
-54.001751
13
-46.276001
23
11.051673
33
-57.606007
0
3DFACE
8
0
70
0
10
-42.291573
20
-47.811218
30
-58.206013
11
-39.420948
21
9.301946
31
-54.001751
12
-41.384422
22
7.780597
32
-50.867935
13
-44.598713
23
-47.819214
33
-58.206013
0
3DFACE
8
0
70
0
10
-66.179611
20
86.480492
30
7.565114
11
-61.453434
21
96.070244
31
-42.044556
12
-52.703049
22
8.954677
32
-53.286400
13
-64.331139
23
-1.209771
33
3.227075
0
3DFACE
8
0
70
0
10
-38.195915
20
-2.153378
30
7.939201
11
-41.384422
21
7.780597
31
-50.867935
12
-39.656334
22
37.815964
32
-24.014410
13
-28.115114
23
43.868191
33
24.626286
0
3DFACE
8
0
70
0
10
-66.179611
20
86.480492
30
7.565114
11
-64.331139
21
-1.209771
31
3.227075
12
-38.195915
22
-2.153378
32
7.939201
13
-28.115114
23
43.868191
33
24.626286
0
3DFACE
8
0
70
0
10
20.117697
20
196.508926
30
163.887314
11
-12.192731
21
194.358765
31
159.572784
12
-33.105865
22
248.130142
32
198.675064
13
-14.047256
23
255.572922
33
206.809570
0
3DFACE
8
0
70
0
10
20.117697
20
196.508926
30
163.887314
11
-14.047256
21
255.572922
31
206.809570
12
1.058593
22
226.194122
32
202.863388
13
27.452393
23
173.271896
33
178.951355
0
3DFACE
8
0
70
0
10
27.452393
20
173.271896
30
178.951355
11
1.058593
21
226.194122
31
202.863388
12
-9.033909
22
176.395691
32
206.299835
13
-3.560895
23
147.895767
33
198.217514
0
3DFACE
8
0
70
0
10
-41.700405
20
180.352310
30
163.255249
11
-51.346714
21
237.704071
31
205.546844
12
-33.105865
22
248.130142
32
198.675064
13
-12.192731
23
194.358765
33
159.572784
0
3DFACE
8
0
70
0
10
-41.700405
20
180.352310
30
163.255249
11
-40.132809
21
159.706161
31
178.542725
12
-43.106377
22
209.546509
32
201.930435
13
-51.346714
23
237.704071
33
205.546844
0
3DFACE
8
0
70
0
10
-40.132809
20
159.706161
30
178.542725
11
-3.560895
21
147.895767
31
198.217514
12
-9.033909
22
176.395691
32
206.299835
13
-43.106377
23
209.546509
33
201.930435
0
3DFACE
8
0
70
0
10
55.391003
20
62.133720
30
142.931305
11
42.291573
21
123.676048
31
124.178596
12
32.451210
22
168.381653
32
145.657974
13
41.704906
23
128.617645
33
162.403915
0
3DFACE
8
0
70
0
10
-5.864305
20
167.693665
30
141.468689
11
-42.310265
21
155.379944
31
145.318314
12
-41.700405
22
180.352310
32
163.255249
13
-12.192731
23
194.358765
33
159.572784
0
3DFACE
8
0
70
0
10
-55.391003
20
62.133720
30
142.931305
11
-43.408516
21
122.442368
31
162.336456
12
-42.310265
22
155.379944
32
145.318314
13
-42.291573
23
123.676048
33
124.178596
0
3DFACE
8
0
70
0
10
-55.391003
20
62.133720
30
142.931305
11
0.000000
21
58.603271
31
183.561981
12
0.000000
22
98.569984
32
192.471558
13
-43.408516
23
122.442368
33
162.336456
0
3DFACE
8
0
70
0
10
-5.864305
20
167.693665
30
141.468689
11
-12.192731
21
194.358765
31
159.572784
12
20.117697
22
196.508926
32
163.887314
13
32.451210
23
168.381653
33
145.657974
0
3DFACE
8
0
70
0
10
42.291573
20
123.676048
30
124.178596
11
0.000000
21
140.328018
31
125.803688
12
-5.864305
22
167.693665
32
141.468689
13
32.451210
23
168.381653
33
145.657974
0
3DFACE
8
0
70
0
10
32.451210
20
168.381653
30
145.657974
11
20.117697
21
196.508926
31
163.887314
12
27.452393
22
173.271896
32
178.951355
13
41.704906
23
128.617645
33
162.403915
0
3DFACE
8
0
70
0
10
41.704906
20
128.617645
30
162.403915
11
27.452393
21
173.271896
31
178.951355
12
-3.560895
22
147.895767
32
198.217514
13
0.000000
23
98.569984
33
192.471558
0
3DFACE
8
0
70
0
10
55.391003
20
62.133720
30
142.931305
11
41.704906
21
128.617645
31
162.403915
12
0.000000
22
98.569984
32
192.471558
13
0.000000
23
58.603271
33
183.561981
0
3DFACE
8
0
70
0
10
-42.291573
20
123.676048
30
124.178596
11
-42.310265
21
155.379944
31
145.318314
12
-5.864305
22
167.693665
32
141.468689
13
0.000000
23
140.328018
33
125.803688
0
3DFACE
8
0
70
0
10
-43.408516
20
122.442368
30
162.336456
11
-40.132809
21
159.706161
31
178.542725
12
-41.700405
22
180.352310
32
163.255249
13
-42.310265
23
155.379944
33
145.318314
0
3DFACE
8
0
70
0
10
-43.408516
20
122.442368
30
162.336456
11
0.000000
21
98.569984
31
192.471558
12
-3.560895
22
147.895767
32
198.217514
13
-40.132809
23
159.706161
33
178.542725
0
3DFACE
8
0
70
0
10
-34.116066
20
264.762390
30
218.683929
11
-22.178825
21
267.054382
31
218.523697
12
-5.801746
22
322.980316
32
209.915146
13
-13.134386
23
319.086121
33
210.013779
0
3DFACE
8
0
70
0
10
-106.067101
20
257.854736
30
203.778275
11
-55.186428
21
249.590515
31
217.166748
12
-46.427155
22
258.098053
32
218.154755
13
-99.441978
23
262.801819
33
204.690308
0
ENDSEC
0
EOF
