0
SECTION
2
HEADER
999
DXF File Generated by LightWave 3D(TM)
0
ENDSEC
0
SECTION
2
TABLES
0
ENDSEC
0
SECTION
2
BLOCKS
0
ENDSEC
0
SECTION
2
ENTITIES
0
3DFACE
8
0
70
0
10
5.464314
20
1.022593
30
146.562347
11
40.978733
21
23.514702
31
158.732941
12
50.304691
22
80.832954
32
143.284363
13
-2.521664
23
55.139206
33
188.225204
0
3DFACE
8
0
70
0
10
-7.634072
20
183.583649
30
312.315674
11
2.318769
21
185.591171
31
311.951538
12
2.509776
22
195.753372
32
311.805908
13
-5.452726
23
198.365433
33
311.951538
0
3DFACE
8
0
70
0
10
-0.027748
20
38.239296
30
-49.156078
11
-7.434094
21
88.428047
31
-72.835976
12
36.341682
22
94.386765
32
-55.314205
13
39.332661
23
44.977512
33
-38.452492
0
3DFACE
8
0
70
0
10
-10.519493
20
109.336113
30
-95.407173
11
-12.072338
21
119.858879
31
-95.374901
12
-9.095527
22
119.445969
32
-95.363037
13
-7.360119
23
110.959473
33
-95.389252
0
3DFACE
8
0
70
0
10
36.870262
20
128.807159
30
11.256166
11
-14.761336
21
135.286057
31
11.256166
12
-13.399996
22
128.855728
32
95.328041
13
33.497822
23
124.807854
33
95.572739
0
3DFACE
8
0
70
0
10
-13.399996
20
128.855728
30
95.328041
11
-13.874362
21
132.070221
31
128.999619
12
31.326399
22
122.232803
32
127.333244
13
33.497822
23
124.807854
33
95.572739
0
3DFACE
8
0
70
0
10
31.099630
20
39.706406
30
25.251894
11
51.127068
21
87.305290
31
25.251894
12
50.746529
22
59.413860
32
99.197456
13
38.702488
23
11.521805
33
126.123665
0
3DFACE
8
0
70
0
10
136.217056
20
-93.985786
30
123.731430
11
118.222939
21
-111.221680
31
175.551743
12
102.599396
22
-114.000748
32
159.038910
13
108.348152
23
-104.524864
33
122.448982
0
3DFACE
8
0
70
0
10
51.127068
20
87.305290
30
25.251894
11
36.870262
21
128.807159
31
11.256166
12
33.497822
22
124.807854
32
95.572739
13
50.746529
23
59.413860
33
99.197456
0
3DFACE
8
0
70
0
10
50.746529
20
59.413860
30
99.197456
11
33.497822
21
124.807854
31
95.572739
12
31.326399
22
122.232803
32
127.333244
13
50.304691
23
80.832954
33
143.284363
0
3DFACE
8
0
70
0
10
0.649143
20
33.652378
30
25.251894
11
31.099630
21
39.706406
31
25.251894
12
38.702488
22
11.521805
32
126.123665
13
5.372108
23
1.647419
33
97.735710
0
3DFACE
8
0
70
0
10
5.372108
20
1.647419
30
97.735710
11
38.702488
21
11.521805
31
126.123665
12
40.978733
22
23.514702
32
158.732941
13
5.464314
23
1.022593
33
146.562347
0
3DFACE
8
0
70
0
10
-13.039922
20
126.415665
30
-26.518276
11
28.318321
21
123.225632
31
-26.311399
12
27.509357
22
115.393600
32
-50.768738
13
-11.387823
23
115.220299
33
-61.472321
0
3DFACE
8
0
70
0
10
-14.761336
20
135.286057
30
11.256166
11
36.870262
21
128.807159
31
11.256166
12
28.318321
22
123.225632
32
-26.311399
13
-13.039922
23
126.415665
33
-26.518276
0
3DFACE
8
0
70
0
10
133.919617
20
-117.426720
30
-44.689583
11
109.933418
21
-127.031548
31
-44.672367
12
104.807526
22
-128.950027
32
-45.205009
13
118.602333
23
-123.238098
33
-45.423073
0
3DFACE
8
0
70
0
10
154.057724
20
-111.312576
30
25.899391
11
119.271606
21
-124.865227
31
25.899391
12
109.933418
22
-127.031548
32
-44.672367
13
133.919617
23
-117.426720
33
-44.689583
0
3DFACE
8
0
70
0
10
58.802338
20
92.042221
30
-25.469357
11
36.341682
21
94.386765
31
-55.314205
12
27.509357
22
115.393600
32
-50.768738
13
28.318321
23
123.225632
33
-26.311399
0
3DFACE
8
0
70
0
10
36.870262
20
128.807159
30
11.256166
11
51.127068
21
87.305290
31
25.251894
12
58.802338
22
92.042221
32
-25.469357
13
28.318321
23
123.225632
33
-26.311399
0
3DFACE
8
0
70
0
10
1.671876
20
26.721872
30
-24.412727
11
-0.027748
21
38.239296
31
-49.156078
12
39.332661
22
44.977512
32
-38.452492
13
44.203262
23
38.534069
33
-24.624474
0
3DFACE
8
0
70
0
10
31.099630
20
39.706406
30
25.251894
11
0.649143
21
33.652378
31
25.251894
12
1.671876
22
26.721872
32
-24.412727
13
44.203262
23
38.534069
33
-24.624474
0
3DFACE
8
0
70
0
10
103.224335
20
-57.545876
30
-72.461815
11
94.106926
21
-61.005028
31
-73.666519
12
83.527428
22
-33.322495
32
-59.684685
13
90.061073
23
-30.843624
33
-59.684685
0
3DFACE
8
0
70
0
10
85.924187
20
-64.474174
30
-73.308365
11
77.623146
21
-35.710243
31
-59.684685
12
83.527428
22
-33.322495
32
-59.684685
13
94.106926
23
-61.005028
33
-73.666519
0
3DFACE
8
0
70
0
10
88.976868
20
-63.336006
30
-72.433533
11
79.808533
21
-34.889229
31
-59.684685
12
77.623146
22
-35.710243
32
-59.684685
13
85.924187
23
-64.474174
33
-73.308365
0
3DFACE
8
0
70
0
10
114.906372
20
-53.165134
30
-39.183235
11
103.224335
21
-57.545876
31
-72.461815
12
90.061073
22
-30.843624
32
-59.684685
13
99.451698
23
-30.182087
33
-9.499499
0
3DFACE
8
0
70
0
10
94.260849
20
-61.379246
30
-39.183235
11
84.225594
21
-35.019894
31
-9.499499
12
79.808533
22
-34.889229
32
-59.684685
13
88.976868
23
-63.336006
33
-72.433533
0
3DFACE
8
0
70
0
10
94.260849
20
-61.379246
30
-39.183235
11
114.906372
21
-53.165134
31
-39.183235
12
99.451698
22
-30.182087
32
-9.499499
13
84.225594
23
-35.019894
33
-9.499499
0
3DFACE
8
0
70
0
10
113.262337
20
-81.950363
30
-48.963230
11
104.144913
21
-85.409523
31
-49.113819
12
94.106926
22
-61.005028
32
-73.666519
13
103.224335
23
-57.545876
33
-72.461815
0
3DFACE
8
0
70
0
10
95.976334
20
-88.913071
30
-49.069054
11
85.924187
21
-64.474174
31
-73.308365
12
94.106926
22
-61.005028
32
-73.666519
13
104.144913
23
-85.409523
33
-49.113819
0
3DFACE
8
0
70
0
10
99.029785
20
-87.776794
30
-48.959694
11
88.976868
21
-63.336006
31
-72.433533
12
85.924187
22
-64.474174
32
-73.308365
13
95.976334
23
-88.913071
33
-49.069054
0
3DFACE
8
0
70
0
10
125.221733
20
-78.243919
30
-17.954504
11
113.262337
21
-81.950363
31
-48.963230
12
103.224335
22
-57.545876
32
-72.461815
13
114.906372
23
-53.165134
33
-39.183235
0
3DFACE
8
0
70
0
10
104.576195
20
-86.458031
30
-17.954504
11
94.260849
21
-61.379246
31
-39.183235
12
88.976868
22
-63.336006
32
-72.433533
13
99.029785
23
-87.776794
33
-48.959694
0
3DFACE
8
0
70
0
10
104.576195
20
-86.458031
30
-17.954504
11
125.221733
21
-78.243919
31
-17.954504
12
114.906372
22
-53.165134
32
-39.183235
13
94.260849
23
-61.379246
33
-39.183235
0
3DFACE
8
0
70
0
10
133.919617
20
-117.426720
30
-44.689583
11
118.602333
21
-123.238098
31
-45.423073
12
104.144913
22
-85.409523
32
-49.113819
13
113.262337
23
-81.950363
33
-48.963230
0
3DFACE
8
0
70
0
10
104.807526
20
-128.950027
30
-45.205009
11
95.976334
21
-88.913071
31
-49.069054
12
104.144913
22
-85.409523
32
-49.113819
13
118.602333
23
-123.238098
33
-45.423073
0
3DFACE
8
0
70
0
10
109.933418
20
-127.031548
30
-44.672367
11
99.029785
21
-87.776794
31
-48.959694
12
95.976334
22
-88.913071
32
-49.069054
13
104.807526
23
-128.950027
33
-45.205009
0
3DFACE
8
0
70
0
10
154.057724
20
-111.312576
30
25.899391
11
133.919617
21
-117.426720
31
-44.689583
12
113.262337
22
-81.950363
32
-48.963230
13
125.221733
23
-78.243919
33
-17.954504
0
3DFACE
8
0
70
0
10
119.271606
20
-124.865227
30
25.899391
11
104.576195
21
-86.458031
31
-17.954504
12
99.029785
22
-87.776794
32
-48.959694
13
109.933418
23
-127.031548
33
-44.672367
0
3DFACE
8
0
70
0
10
119.271606
20
-124.865227
30
25.899391
11
154.057724
21
-111.312576
31
25.899391
12
125.221733
22
-78.243919
32
-17.954504
13
104.576195
23
-86.458031
33
-17.954504
0
3DFACE
8
0
70
0
10
83.590317
20
-25.381134
30
156.674927
11
38.702488
21
11.521805
31
126.123665
12
50.746529
22
59.413860
32
99.197456
13
94.215950
23
-21.369431
33
157.196960
0
3DFACE
8
0
70
0
10
83.590317
20
-25.381134
30
156.674927
11
81.398476
21
-28.790482
31
169.598328
12
40.978733
22
23.514702
32
158.732941
13
38.702488
23
11.521805
33
126.123665
0
3DFACE
8
0
70
0
10
81.398476
20
-28.790482
30
169.598328
11
87.355286
21
-27.647928
31
175.475418
12
50.304691
22
80.832954
32
143.284363
13
40.978733
23
23.514702
33
158.732941
0
3DFACE
8
0
70
0
10
87.355286
20
-27.647928
30
175.475418
11
94.215950
21
-21.369431
31
157.196960
12
50.746529
22
59.413860
32
99.197456
13
50.304691
23
80.832954
33
143.284363
0
3DFACE
8
0
70
0
10
91.321030
20
-55.534889
30
133.064911
11
83.590317
21
-25.381134
31
156.674927
12
94.215950
22
-21.369431
32
157.196960
13
108.109520
23
-49.196407
33
133.889709
0
3DFACE
8
0
70
0
10
87.857925
20
-60.921654
30
153.483871
11
81.398476
21
-28.790482
31
169.598328
12
83.590317
22
-25.381134
32
156.674927
13
91.321030
23
-55.534889
33
133.064911
0
3DFACE
8
0
70
0
10
97.269691
20
-59.116421
30
162.769669
11
87.355286
21
-27.647928
31
175.475418
12
81.398476
22
-28.790482
32
169.598328
13
87.857925
23
-60.921654
33
153.483871
0
3DFACE
8
0
70
0
10
97.269691
20
-59.116421
30
162.769669
11
108.109520
21
-49.196407
31
133.889709
12
94.215950
22
-21.369431
32
157.196960
13
87.355286
23
-27.647928
33
175.475418
0
3DFACE
8
0
70
0
10
108.348152
20
-104.524864
30
122.448982
11
91.321030
21
-55.534889
31
133.064911
12
108.109520
22
-49.196407
32
133.889709
13
136.217056
23
-93.985786
33
123.731430
0
3DFACE
8
0
70
0
10
102.599396
20
-114.000748
30
159.038910
11
87.857925
21
-60.921654
31
153.483871
12
91.321030
22
-55.534889
32
133.064911
13
108.348152
23
-104.524864
33
122.448982
0
3DFACE
8
0
70
0
10
118.222939
20
-111.221680
30
175.551743
11
97.269691
21
-59.116421
31
162.769669
12
87.857925
22
-60.921654
32
153.483871
13
102.599396
23
-114.000748
33
159.038910
0
3DFACE
8
0
70
0
10
118.222939
20
-111.221680
30
175.551743
11
136.217056
21
-93.985786
31
123.731430
12
108.109520
22
-49.196407
32
133.889709
13
97.269691
23
-59.116421
33
162.769669
0
3DFACE
8
0
70
0
10
-9.368931
20
171.827454
30
218.935440
11
-10.243733
21
165.899384
31
203.122940
12
18.939232
22
200.574478
32
194.798737
13
29.758999
23
189.689850
33
214.586166
0
3DFACE
8
0
70
0
10
2.509776
20
195.753372
30
311.805908
11
21.813478
21
216.752518
31
267.929321
12
-1.518936
22
225.022583
32
268.074951
13
-5.452726
23
198.365433
33
311.951538
0
3DFACE
8
0
70
0
10
2.318769
20
185.591171
30
311.951538
11
20.673706
21
182.946960
31
272.063721
12
21.813478
22
216.752518
32
267.929321
13
2.509776
23
195.753372
33
311.805908
0
3DFACE
8
0
70
0
10
-7.634072
20
183.583649
30
312.315674
11
-8.790090
21
175.749954
31
272.427826
12
20.673706
22
182.946960
32
272.063721
13
2.318769
23
185.591171
33
311.951538
0
3DFACE
8
0
70
0
10
53.826958
20
259.451630
30
196.576187
11
52.356110
21
243.506042
31
196.596786
12
48.674400
22
244.251343
32
191.498413
13
49.095196
23
249.724014
33
191.484329
0
3DFACE
8
0
70
0
10
31.321465
20
215.486954
30
214.522110
11
29.758999
21
189.689850
31
214.586166
12
18.939232
22
200.574478
32
194.798737
13
19.560989
23
217.579865
33
194.714813
0
3DFACE
8
0
70
0
10
49.095196
20
249.724014
30
191.484329
11
19.966507
21
228.670944
31
194.660065
12
33.276451
22
247.764755
32
214.442001
13
53.826958
23
259.451630
33
196.576187
0
3DFACE
8
0
70
0
10
48.674400
20
244.251343
30
191.498413
11
19.560989
21
217.579865
31
194.714813
12
19.966507
22
228.670944
32
194.660065
13
49.095196
23
249.724014
33
191.484329
0
3DFACE
8
0
70
0
10
52.356110
20
243.506042
30
196.596786
11
31.321465
21
215.486954
31
214.522110
12
19.560989
22
217.579865
32
194.714813
13
48.674400
23
244.251343
33
191.498413
0
3DFACE
8
0
70
0
10
52.356110
20
243.506042
30
196.596786
11
53.826958
21
259.451630
31
196.576187
12
33.276451
22
247.764755
32
214.442001
13
31.321465
23
215.486954
33
214.522110
0
3DFACE
8
0
70
0
10
19.841070
20
242.027405
30
204.608795
11
8.748369
21
246.749283
31
204.663605
12
3.726797
22
260.570007
32
214.586166
13
33.276451
23
247.764755
33
214.442001
0
3DFACE
8
0
70
0
10
8.020549
20
236.126816
30
194.112900
11
-0.514437
21
231.829514
31
186.821182
12
3.726797
22
260.570007
32
214.586166
13
8.748369
23
246.749283
33
204.663605
0
3DFACE
8
0
70
0
10
15.135114
20
235.022873
30
197.091675
11
19.966507
21
228.670944
31
194.660065
12
-0.514437
22
231.829514
32
186.821182
13
8.020549
23
236.126816
33
194.112900
0
3DFACE
8
0
70
0
10
15.135114
20
235.022873
30
197.091675
11
19.841070
21
242.027405
31
204.608795
12
33.276451
22
247.764755
32
214.442001
13
19.966507
23
228.670944
33
194.660065
0
3DFACE
8
0
70
0
10
61.453289
20
306.512665
30
157.309448
11
63.643604
21
303.391815
31
156.470474
12
62.079937
22
301.280487
32
156.383301
13
57.785568
23
303.926575
33
157.830536
0
3DFACE
8
0
70
0
10
8.748369
20
246.749283
30
204.663605
11
56.490555
21
268.344574
31
187.968506
12
56.866489
22
258.612946
32
181.886932
13
8.020549
23
236.126816
33
194.112900
0
3DFACE
8
0
70
0
10
62.152668
20
259.829437
30
183.103210
11
56.866489
21
258.612946
31
181.886932
12
65.430313
22
265.066498
32
177.535110
13
70.955338
23
267.927399
33
177.564224
0
3DFACE
8
0
70
0
10
56.490555
20
268.344574
30
187.968506
11
64.106468
21
274.064178
31
182.429581
12
65.430313
22
265.066498
32
177.535110
13
56.866489
23
258.612946
33
181.886932
0
3DFACE
8
0
70
0
10
95.860603
20
268.251404
30
154.228333
11
95.457520
21
266.796173
31
151.636169
12
95.569817
22
271.275879
32
151.505417
13
95.518127
23
272.796570
33
153.801926
0
3DFACE
8
0
70
0
10
19.841070
20
242.027405
30
204.608795
11
15.135114
21
235.022873
31
197.091675
12
62.152668
22
259.829437
32
183.103210
13
64.520111
23
266.612213
33
187.566849
0
3DFACE
8
0
70
0
10
64.520111
20
266.612213
30
187.566849
11
72.608444
21
274.837585
31
180.637436
12
64.106468
22
274.064178
32
182.429581
13
56.490555
23
268.344574
33
187.968506
0
3DFACE
8
0
70
0
10
15.135114
20
235.022873
30
197.091675
11
8.020549
21
236.126816
31
194.112900
12
56.866489
22
258.612946
32
181.886932
13
62.152668
23
259.829437
33
183.103210
0
3DFACE
8
0
70
0
10
65.253212
20
291.464386
30
169.036774
11
65.468376
21
297.727112
31
164.365463
12
61.301231
22
293.621613
32
165.654205
13
60.573700
23
290.976715
33
168.054657
0
3DFACE
8
0
70
0
10
72.608444
20
274.837585
30
180.637436
11
65.253212
21
291.464386
31
169.036774
12
60.573700
22
290.976715
32
168.054657
13
64.106468
23
274.064178
33
182.429581
0
3DFACE
8
0
70
0
10
66.615562
20
288.018677
30
166.189545
11
64.780884
21
286.872955
31
164.970917
12
66.156273
22
290.811432
32
162.584137
13
67.778702
23
294.249939
33
162.462509
0
3DFACE
8
0
70
0
10
70.955338
20
267.927399
30
177.564224
11
65.430313
21
265.066498
31
177.535110
12
64.780884
22
286.872955
32
164.970917
13
66.615562
23
288.018677
33
166.189545
0
3DFACE
8
0
70
0
10
46.143143
20
292.658813
30
155.602112
11
44.882252
21
295.312927
31
157.503891
12
46.164440
22
296.536194
32
156.697495
13
48.045979
23
294.304413
33
155.024918
0
3DFACE
8
0
70
0
10
65.430313
20
265.066498
30
177.535110
11
64.106468
21
274.064178
31
182.429581
12
60.573700
22
290.976715
32
168.054657
13
64.780884
23
286.872955
33
164.970917
0
3DFACE
8
0
70
0
10
65.253212
20
291.464386
30
169.036774
11
66.615562
21
288.018677
31
166.189545
12
67.778702
22
294.249939
32
162.462509
13
65.468376
23
297.727112
33
164.365463
0
3DFACE
8
0
70
0
10
70.955338
20
267.927399
30
177.564224
11
66.615562
21
288.018677
31
166.189545
12
65.253212
22
291.464386
32
169.036774
13
72.608444
23
274.837585
33
180.637436
0
3DFACE
8
0
70
0
10
63.854725
20
301.257996
30
161.529663
11
61.453289
21
306.512665
31
157.309448
12
57.785568
22
303.926575
32
157.830536
13
58.923119
23
300.592285
33
160.362000
0
3DFACE
8
0
70
0
10
61.301231
20
293.621613
30
165.654205
11
58.923119
21
300.592285
31
160.362000
12
63.439266
22
297.789337
32
158.451080
13
66.156273
23
290.811432
33
162.584137
0
3DFACE
8
0
70
0
10
66.156273
20
290.811432
30
162.584137
11
63.439266
21
297.789337
31
158.451080
12
65.758827
22
298.715485
32
159.535583
13
67.778702
23
294.249939
33
162.462509
0
3DFACE
8
0
70
0
10
74.087311
20
292.923920
30
147.605988
11
72.036690
21
296.034790
31
147.817719
12
71.653709
22
296.978027
32
150.095016
13
73.457085
23
294.413452
33
150.196030
0
3DFACE
8
0
70
0
10
61.301231
20
293.621613
30
165.654205
11
65.468376
21
297.727112
31
164.365463
12
63.854725
22
301.257996
32
161.529663
13
58.923119
23
300.592285
33
160.362000
0
3DFACE
8
0
70
0
10
58.923119
20
300.592285
30
160.362000
11
57.785568
21
303.926575
31
157.830536
12
62.079937
22
301.280487
32
156.383301
13
63.439266
23
297.789337
33
158.451080
0
3DFACE
8
0
70
0
10
65.758827
20
298.715485
30
159.535583
11
63.439266
21
297.789337
31
158.451080
12
62.079937
22
301.280487
32
156.383301
13
63.643604
23
303.391815
33
156.470474
0
3DFACE
8
0
70
0
10
63.854725
20
301.257996
30
161.529663
11
65.758827
21
298.715485
31
159.535583
12
63.643604
22
303.391815
32
156.470474
13
61.453289
23
306.512665
33
157.309448
0
3DFACE
8
0
70
0
10
64.520111
20
266.612213
30
187.566849
11
68.086426
21
264.173676
31
185.507492
12
75.377846
22
271.563385
32
179.268112
13
72.608444
23
274.837585
33
180.637436
0
3DFACE
8
0
70
0
10
72.608444
20
274.837585
30
180.637436
11
75.377846
21
271.563385
31
179.268112
12
73.885315
22
265.343079
32
176.507706
13
70.955338
23
267.927399
33
177.564224
0
3DFACE
8
0
70
0
10
70.955338
20
267.927399
30
177.564224
11
73.885315
21
265.343079
31
176.507706
12
65.951920
22
258.067383
32
181.495178
13
62.152668
23
259.829437
33
183.103210
0
3DFACE
8
0
70
0
10
62.152668
20
259.829437
30
183.103210
11
65.951920
21
258.067383
31
181.495178
12
68.086426
22
264.173676
32
185.507492
13
64.520111
23
266.612213
33
187.566849
0
3DFACE
8
0
70
0
10
68.086426
20
264.173676
30
185.507492
11
73.489067
21
259.616302
31
183.089203
12
77.433907
22
268.530273
32
178.526138
13
75.377846
23
271.563385
33
179.268112
0
3DFACE
8
0
70
0
10
75.377846
20
271.563385
30
179.268112
11
77.433907
21
268.530273
31
178.526138
12
76.917595
22
263.389832
32
174.912659
13
73.885315
23
265.343079
33
176.507706
0
3DFACE
8
0
70
0
10
73.885315
20
265.343079
30
176.507706
11
76.917595
21
263.389832
31
174.912659
12
72.202621
22
254.660385
32
178.483734
13
65.951920
23
258.067383
33
181.495178
0
3DFACE
8
0
70
0
10
65.951920
20
258.067383
30
181.495178
11
72.202621
21
254.660385
31
178.483734
12
73.489067
22
259.616302
32
183.089203
13
68.086426
23
264.173676
33
185.507492
0
3DFACE
8
0
70
0
10
73.489067
20
259.616302
30
183.089203
11
78.722580
21
258.541016
31
178.490295
12
78.796814
22
267.978333
32
176.861572
13
77.433907
23
268.530273
33
178.526138
0
3DFACE
8
0
70
0
10
77.433907
20
268.530273
30
178.526138
11
78.796814
21
267.978333
31
176.861572
12
78.872025
22
264.464691
32
172.319595
13
76.917595
23
263.389832
33
174.912659
0
3DFACE
8
0
70
0
10
76.917595
20
263.389832
30
174.912659
11
78.872025
21
264.464691
31
172.319595
12
77.889427
22
255.185089
32
173.274170
13
72.202621
23
254.660385
33
178.483734
0
3DFACE
8
0
70
0
10
72.202621
20
254.660385
30
178.483734
11
77.889427
21
255.185089
31
173.274170
12
78.722580
22
258.541016
32
178.490295
13
73.489067
23
259.616302
33
183.089203
0
3DFACE
8
0
70
0
10
78.722580
20
258.541016
30
178.490295
11
81.439911
21
259.656982
31
174.907547
12
81.118790
22
268.194519
32
173.795593
13
78.796814
23
267.978333
33
176.861572
0
3DFACE
8
0
70
0
10
78.796814
20
267.978333
30
176.861572
11
81.118790
21
268.194519
31
173.795593
12
81.206749
22
265.192596
32
169.578888
13
78.872025
23
264.464691
33
172.319595
0
3DFACE
8
0
70
0
10
78.872025
20
264.464691
30
172.319595
11
81.206749
21
265.192596
31
169.578888
12
80.689178
22
256.787659
32
170.111343
13
77.889427
23
255.185089
33
173.274170
0
3DFACE
8
0
70
0
10
77.889427
20
255.185089
30
173.274170
11
80.689178
21
256.787659
31
170.111343
12
81.439911
22
259.656982
32
174.907547
13
78.722580
23
258.541016
33
178.490295
0
3DFACE
8
0
70
0
10
81.439911
20
259.656982
30
174.907547
11
84.047043
21
260.355682
31
171.730850
12
83.758034
22
268.039520
32
170.730103
13
81.118790
23
268.194519
33
173.795593
0
3DFACE
8
0
70
0
10
81.118790
20
268.194519
30
173.795593
11
83.758034
21
268.039520
31
170.730103
12
83.837181
22
265.337708
32
166.935089
13
81.206749
23
265.192596
33
169.578888
0
3DFACE
8
0
70
0
10
81.206749
20
265.192596
30
169.578888
11
83.837181
21
265.337708
31
166.935089
12
83.371399
22
257.773346
32
167.414276
13
80.689178
23
256.787659
33
170.111343
0
3DFACE
8
0
70
0
10
80.689178
20
256.787659
30
170.111343
11
83.371399
21
257.773346
31
167.414276
12
84.047043
22
260.355682
32
171.730850
13
81.439911
23
259.656982
33
174.907547
0
3DFACE
8
0
70
0
10
84.047043
20
260.355682
30
171.730850
11
86.894081
21
261.381927
31
168.106735
12
85.977425
22
268.295624
32
167.856689
13
83.758034
23
268.039520
33
170.730103
0
3DFACE
8
0
70
0
10
83.758034
20
268.039520
30
170.730103
11
85.977425
21
268.295624
31
167.856689
12
86.056252
22
266.159454
32
164.233017
13
83.837181
23
265.337708
33
166.935089
0
3DFACE
8
0
70
0
10
83.837181
20
265.337708
30
166.935089
11
86.056252
21
266.159454
31
164.233017
12
86.259705
22
259.331848
32
164.061615
13
83.371399
23
257.773346
33
167.414276
0
3DFACE
8
0
70
0
10
83.371399
20
257.773346
30
167.414276
11
86.259705
21
259.331848
31
164.061615
12
86.894081
22
261.381927
32
168.106735
13
84.047043
23
260.355682
33
171.730850
0
3DFACE
8
0
70
0
10
86.894081
20
261.381927
30
168.106735
11
89.184052
21
262.792755
31
164.783478
12
87.818192
22
268.919922
32
165.158203
13
85.977425
23
268.295624
33
167.856689
0
3DFACE
8
0
70
0
10
85.977425
20
268.295624
30
167.856689
11
87.818192
21
268.919922
31
165.158203
12
87.862450
22
267.270569
32
161.737747
13
86.056252
23
266.159454
33
164.233017
0
3DFACE
8
0
70
0
10
86.056252
20
266.159454
30
164.233017
11
87.862450
21
267.270569
31
161.737747
12
88.560928
22
261.196381
32
161.025665
13
86.259705
23
259.331848
33
164.061615
0
3DFACE
8
0
70
0
10
86.259705
20
259.331848
30
164.061615
11
88.560928
21
261.196381
31
161.025665
12
89.184052
22
262.792755
32
164.783478
13
86.894081
23
261.381927
33
168.106735
0
3DFACE
8
0
70
0
10
89.184052
20
262.792755
30
164.783478
11
91.286797
21
264.961456
31
161.140762
12
89.963005
22
270.448273
32
161.590271
13
87.818192
23
268.919922
33
165.158203
0
3DFACE
8
0
70
0
10
87.818192
20
268.919922
30
165.158203
11
89.963005
21
270.448273
31
161.590271
12
89.994347
22
269.015045
32
158.485504
13
87.862450
23
267.270569
33
161.737747
0
3DFACE
8
0
70
0
10
87.862450
20
267.270569
30
161.737747
11
89.994347
21
269.015045
31
158.485504
12
90.713287
22
263.570862
32
157.739960
13
88.560928
23
261.196381
33
161.025665
0
3DFACE
8
0
70
0
10
88.560928
20
261.196381
30
161.025665
11
90.713287
21
263.570862
31
157.739960
12
91.286797
22
264.961456
32
161.140762
13
89.184052
23
262.792755
33
164.783478
0
3DFACE
8
0
70
0
10
91.286797
20
264.961456
30
161.140762
11
93.541710
21
267.090790
31
157.383194
12
92.781418
22
272.121216
32
157.298569
13
89.963005
23
270.448273
33
161.590271
0
3DFACE
8
0
70
0
10
89.963005
20
270.448273
30
161.590271
11
92.781418
21
272.121216
31
157.298569
12
92.836647
22
270.608368
32
154.628952
13
89.994347
23
269.015045
33
158.485504
0
3DFACE
8
0
70
0
10
89.994347
20
269.015045
30
158.485504
11
92.836647
21
270.608368
31
154.628952
12
93.072502
22
265.637054
32
154.413345
13
90.713287
23
263.570862
33
157.739960
0
3DFACE
8
0
70
0
10
90.713287
20
263.570862
30
157.739960
11
93.072502
21
265.637054
31
154.413345
12
93.541710
22
267.090790
32
157.383194
13
91.286797
23
264.961456
33
161.140762
0
3DFACE
8
0
70
0
10
93.541710
20
267.090790
30
157.383194
11
95.860603
21
268.251404
31
154.228333
12
95.518127
22
272.796570
32
153.801926
13
92.781418
23
272.121216
33
157.298569
0
3DFACE
8
0
70
0
10
92.781418
20
272.121216
30
157.298569
11
95.518127
21
272.796570
31
153.801926
12
95.569817
22
271.275879
32
151.505417
13
92.836647
23
270.608368
33
154.628952
0
3DFACE
8
0
70
0
10
92.836647
20
270.608368
30
154.628952
11
95.569817
21
271.275879
31
151.505417
12
95.457520
22
266.796173
32
151.636169
13
93.072502
23
265.637054
33
154.413345
0
3DFACE
8
0
70
0
10
93.072502
20
265.637054
30
154.413345
11
95.457520
21
266.796173
31
151.636169
12
95.860603
22
268.251404
32
154.228333
13
93.541710
23
267.090790
33
157.383194
0
3DFACE
8
0
70
0
10
64.780884
20
286.872955
30
164.970917
11
60.083138
21
286.124237
31
163.380447
12
61.776764
22
289.613586
32
161.457382
13
66.156273
23
290.811432
33
162.584137
0
3DFACE
8
0
70
0
10
66.156273
20
290.811432
30
162.584137
11
61.776764
21
289.613586
31
161.457382
12
57.596436
22
292.446747
32
164.193130
13
61.301231
23
293.621613
33
165.654205
0
3DFACE
8
0
70
0
10
61.301231
20
293.621613
30
165.654205
11
57.596436
21
292.446747
31
164.193130
12
56.606453
22
290.055115
32
166.207214
13
60.573700
23
290.976715
33
168.054657
0
3DFACE
8
0
70
0
10
60.573700
20
290.976715
30
168.054657
11
56.606453
21
290.055115
31
166.207214
12
60.083138
22
286.124237
32
163.380447
13
64.780884
23
286.872955
33
164.970917
0
3DFACE
8
0
70
0
10
60.083138
20
286.124237
30
163.380447
11
57.185204
21
286.410919
31
162.191483
12
58.973877
22
289.490631
32
160.601776
13
61.776764
23
289.613586
33
161.457382
0
3DFACE
8
0
70
0
10
61.776764
20
289.613586
30
161.457382
11
58.973877
21
289.490631
31
160.601776
12
55.341133
22
292.212830
32
163.058502
13
57.596436
23
292.446747
33
164.193130
0
3DFACE
8
0
70
0
10
57.596436
20
292.446747
30
164.193130
11
55.341133
21
292.212830
31
163.058502
12
54.252556
22
290.073608
32
164.777588
13
56.606453
23
290.055115
33
166.207214
0
3DFACE
8
0
70
0
10
56.606453
20
290.055115
30
166.207214
11
54.252556
21
290.073608
31
164.777588
12
57.185204
22
286.410919
32
162.191483
13
60.083138
23
286.124237
33
163.380447
0
3DFACE
8
0
70
0
10
57.185204
20
286.410919
30
162.191483
11
53.469963
21
286.471313
31
160.697403
12
55.929096
22
288.844116
32
159.795227
13
58.973877
23
289.490631
33
160.601776
0
3DFACE
8
0
70
0
10
58.973877
20
289.490631
30
160.601776
11
55.929096
21
288.844116
31
159.795227
12
53.217934
22
291.818542
32
162.063248
13
55.341133
23
292.212830
33
163.058502
0
3DFACE
8
0
70
0
10
55.341133
20
292.212830
30
163.058502
11
53.217934
21
291.818542
31
162.063248
12
51.580906
22
290.077057
32
163.247513
13
54.252556
23
290.073608
33
164.777588
0
3DFACE
8
0
70
0
10
54.252556
20
290.073608
30
164.777588
11
51.580906
21
290.077057
31
163.247513
12
53.469963
22
286.471313
32
160.697403
13
57.185204
23
286.410919
33
162.191483
0
3DFACE
8
0
70
0
10
53.469963
20
286.471313
30
160.697403
11
50.058197
21
289.156647
31
158.350906
12
53.006702
22
290.437500
32
158.184509
13
55.929096
23
288.844116
33
159.795227
0
3DFACE
8
0
70
0
10
55.929096
20
288.844116
30
159.795227
11
53.006702
21
290.437500
31
158.184509
12
51.403954
22
293.496124
32
160.460663
13
53.217934
23
291.818542
33
162.063248
0
3DFACE
8
0
70
0
10
53.217934
20
291.818542
30
162.063248
11
51.403954
21
293.496124
31
160.460663
12
49.305382
22
292.440399
32
161.056992
13
51.580906
23
290.077057
33
163.247513
0
3DFACE
8
0
70
0
10
51.580906
20
290.077057
30
163.247513
11
49.305382
21
292.440399
31
161.056992
12
50.058197
22
289.156647
32
158.350906
13
53.469963
23
286.471313
33
160.697403
0
3DFACE
8
0
70
0
10
50.058197
20
289.156647
30
158.350906
11
48.309269
21
291.542450
31
156.843750
12
50.800808
22
292.964935
32
156.521652
13
53.006702
23
290.437500
33
158.184509
0
3DFACE
8
0
70
0
10
53.006702
20
290.437500
30
158.184509
11
50.800808
21
292.964935
31
156.521652
12
49.117233
22
295.645081
32
158.488770
13
51.403954
23
293.496124
33
160.460663
0
3DFACE
8
0
70
0
10
51.403954
20
293.496124
30
160.460663
11
49.117233
21
295.645081
31
158.488770
12
47.375340
22
294.525879
32
159.153793
13
49.305382
23
292.440399
33
161.056992
0
3DFACE
8
0
70
0
10
49.305382
20
292.440399
30
161.056992
11
47.375340
21
294.525879
31
159.153793
12
48.309269
22
291.542450
32
156.843750
13
50.058197
23
289.156647
33
158.350906
0
3DFACE
8
0
70
0
10
48.309269
20
291.542450
30
156.843750
11
46.143143
21
292.658813
31
155.602112
12
48.045979
22
294.304413
32
155.024918
13
50.800808
23
292.964935
33
156.521652
0
3DFACE
8
0
70
0
10
50.800808
20
292.964935
30
156.521652
11
48.045979
21
294.304413
31
155.024918
12
46.164440
22
296.536194
32
156.697495
13
49.117233
23
295.645081
33
158.488770
0
3DFACE
8
0
70
0
10
49.117233
20
295.645081
30
158.488770
11
46.164440
21
296.536194
31
156.697495
12
44.882252
22
295.312927
32
157.503891
13
47.375340
23
294.525879
33
159.153793
0
3DFACE
8
0
70
0
10
47.375340
20
294.525879
30
159.153793
11
44.882252
21
295.312927
31
157.503891
12
46.143143
22
292.658813
32
155.602112
13
48.309269
23
291.542450
33
156.843750
0
3DFACE
8
0
70
0
10
67.778702
20
294.249939
30
162.462509
11
70.628563
21
293.015167
31
159.274765
12
68.689987
22
295.989532
32
161.402740
13
65.468376
23
297.727112
33
164.365463
0
3DFACE
8
0
70
0
10
65.468376
20
297.727112
30
164.365463
11
68.689987
21
295.989532
31
161.402740
12
66.957527
22
299.300232
32
159.238831
13
63.854725
23
301.257996
33
161.529663
0
3DFACE
8
0
70
0
10
63.854725
20
301.257996
30
161.529663
11
66.957527
21
299.300232
31
159.238831
12
68.514343
22
297.163940
32
157.125580
13
65.758827
23
298.715485
33
159.535583
0
3DFACE
8
0
70
0
10
65.758827
20
298.715485
30
159.535583
11
68.514343
21
297.163940
31
157.125580
12
70.628563
22
293.015167
32
159.274765
13
67.778702
23
294.249939
33
162.462509
0
3DFACE
8
0
70
0
10
70.628563
20
293.015167
30
159.274765
11
71.956413
21
292.767120
31
156.209961
12
70.656776
22
295.031311
32
158.901031
13
68.689987
23
295.989532
33
161.402740
0
3DFACE
8
0
70
0
10
68.689987
20
295.989532
30
161.402740
11
70.656776
21
295.031311
31
158.901031
12
68.641930
22
298.182617
32
157.892563
13
66.957527
23
299.300232
33
159.238831
0
3DFACE
8
0
70
0
10
66.957527
20
299.300232
30
159.238831
11
68.641930
21
298.182617
31
157.892563
12
69.597969
22
296.642853
32
155.420853
13
68.514343
23
297.163940
33
157.125580
0
3DFACE
8
0
70
0
10
68.514343
20
297.163940
30
157.125580
11
69.597969
21
296.642853
31
155.420853
12
71.956413
22
292.767120
32
156.209961
13
70.628563
23
293.015167
33
159.274765
0
3DFACE
8
0
70
0
10
71.956413
20
292.767120
30
156.209961
11
73.151871
21
292.825104
31
151.506454
12
72.362892
22
294.549835
32
154.315933
13
70.656776
23
295.031311
33
158.901031
0
3DFACE
8
0
70
0
10
70.656776
20
295.031311
30
158.901031
11
72.362892
21
294.549835
31
154.315933
12
70.380859
22
297.405121
32
154.062912
13
68.641930
23
298.182617
33
157.892563
0
3DFACE
8
0
70
0
10
68.641930
20
298.182617
30
157.892563
11
70.380859
21
297.405121
31
154.062912
12
70.886902
22
296.296478
32
151.575897
13
69.597969
23
296.642853
33
155.420853
0
3DFACE
8
0
70
0
10
69.597969
20
296.642853
30
155.420853
11
70.886902
21
296.296478
31
151.575897
12
73.151871
22
292.825104
32
151.506454
13
71.956413
23
292.767120
33
156.209961
0
3DFACE
8
0
70
0
10
73.151871
20
292.825104
30
151.506454
11
74.087311
21
292.923920
31
147.605988
12
73.457085
22
294.413452
32
150.196030
13
72.362892
23
294.549835
33
154.315933
0
3DFACE
8
0
70
0
10
72.362892
20
294.549835
30
154.315933
11
73.457085
21
294.413452
31
150.196030
12
71.653709
22
296.978027
32
150.095016
13
70.380859
23
297.405121
33
154.062912
0
3DFACE
8
0
70
0
10
70.380859
20
297.405121
30
154.062912
11
71.653709
21
296.978027
31
150.095016
12
72.036690
22
296.034790
32
147.817719
13
70.886902
23
296.296478
33
151.575897
0
3DFACE
8
0
70
0
10
70.886902
20
296.296478
30
151.575897
11
72.036690
21
296.034790
31
147.817719
12
74.087311
22
292.923920
32
147.605988
13
73.151871
23
292.825104
33
151.506454
0
3DFACE
8
0
70
0
10
5.464314
20
1.022593
30
146.562347
11
-2.521664
21
55.139206
31
188.225204
12
-59.183697
22
50.816563
32
146.562347
13
-25.504492
23
0.317329
33
132.696320
0
3DFACE
8
0
70
0
10
-7.634072
20
183.583649
30
312.315674
11
-5.452726
21
198.365433
31
311.951538
12
-13.857378
22
197.981262
32
311.805908
13
-16.614103
23
188.168304
33
311.951538
0
3DFACE
8
0
70
0
10
-0.027748
20
38.239296
30
-49.156078
11
-38.924927
21
38.065998
31
-38.452492
12
-51.209873
22
82.469337
32
-55.314205
13
-7.434094
23
88.428047
33
-72.835976
0
3DFACE
8
0
70
0
10
-10.519493
20
109.336113
30
-95.407173
11
-14.024127
21
110.052368
31
-95.389252
12
-14.812444
22
118.667786
32
-95.363037
13
-12.072338
23
119.858879
33
-95.374901
0
3DFACE
8
0
70
0
10
-61.676411
20
115.393097
30
11.256166
11
-57.279682
21
112.451324
31
95.572739
12
-13.399996
22
128.855728
32
95.328041
13
-14.761336
23
135.286057
33
11.256166
0
3DFACE
8
0
70
0
10
-13.399996
20
128.855728
30
95.328041
11
-57.279682
21
112.451324
31
95.572739
12
-54.448746
22
110.557198
32
127.333244
13
-13.874362
23
132.070221
33
128.999619
0
3DFACE
8
0
70
0
10
-28.986086
20
37.387501
30
25.251894
11
-24.748240
21
4.477435
31
97.496582
12
-59.633942
22
50.712555
32
96.536285
13
-71.186226
23
69.480820
33
25.251894
0
3DFACE
8
0
70
0
10
-66.628975
20
-150.687088
30
97.619514
11
-36.419983
21
-150.687088
31
98.841675
12
-30.188522
22
-150.687088
32
136.814499
13
-47.123917
23
-150.687088
33
152.294449
0
3DFACE
8
0
70
0
10
-71.186226
20
69.480820
30
25.251894
11
-59.633942
21
50.712555
31
96.536285
12
-57.279682
22
112.451324
32
95.572739
13
-61.676411
23
115.393097
33
11.256166
0
3DFACE
8
0
70
0
10
-59.633942
20
50.712555
30
96.536285
11
-59.183697
21
50.816563
31
146.562347
12
-54.448746
22
110.557198
32
127.333244
13
-57.279682
23
112.451324
33
95.572739
0
3DFACE
8
0
70
0
10
0.649143
20
33.652378
30
25.251894
11
5.372108
21
1.647419
31
97.735710
12
-24.748240
22
4.477435
32
97.496582
13
-28.986086
23
37.387501
33
25.251894
0
3DFACE
8
0
70
0
10
5.372108
20
1.647419
30
97.735710
11
5.464314
21
1.022593
31
146.562347
12
-25.504492
22
0.317329
32
132.696320
13
-24.748240
23
4.477435
33
97.496582
0
3DFACE
8
0
70
0
10
-13.039922
20
126.415665
30
-26.518276
11
-11.387823
21
115.220299
31
-61.472321
12
-48.803253
22
105.006020
32
-50.768738
13
-51.846386
23
112.313728
33
-26.311399
0
3DFACE
8
0
70
0
10
-14.761336
20
135.286057
30
11.256166
11
-13.039922
21
126.415665
31
-26.518276
12
-51.846386
22
112.313728
32
-26.311399
13
-61.676411
23
115.393097
33
11.256166
0
3DFACE
8
0
70
0
10
-64.636436
20
-149.476761
30
-44.689583
11
-48.033020
21
-149.476761
31
-45.423073
12
-32.895473
22
-149.925095
32
-45.205009
13
-38.441639
23
-149.949738
33
-44.672367
0
3DFACE
8
0
70
0
10
-85.876884
20
-150.907852
30
25.899391
11
-64.636436
21
-149.476761
31
-44.689583
12
-38.441639
22
-149.949738
32
-44.672367
13
-48.033020
23
-151.240509
33
25.899391
0
3DFACE
8
0
70
0
10
-74.988976
20
73.653053
30
-25.469357
11
-51.846386
21
112.313728
31
-26.311399
12
-48.803253
22
105.006020
32
-50.768738
13
-51.209873
23
82.469337
33
-55.314205
0
3DFACE
8
0
70
0
10
-61.676411
20
115.393097
30
11.256166
11
-51.846386
21
112.313728
31
-26.311399
12
-74.988976
22
73.653053
32
-25.469357
13
-71.186226
23
69.480820
33
25.251894
0
3DFACE
8
0
70
0
10
1.671876
20
26.721872
30
-24.412727
11
-39.849220
21
30.097185
31
-24.624474
12
-38.924927
22
38.065998
32
-38.452492
13
-0.027748
23
38.239296
33
-49.156078
0
3DFACE
8
0
70
0
10
-28.986086
20
37.387501
30
25.251894
11
-39.849220
21
30.097185
31
-24.624474
12
1.671876
22
26.721872
32
-24.412727
13
0.649143
23
33.652378
33
25.251894
0
3DFACE
8
0
70
0
10
-58.949421
20
-82.410194
30
-72.461815
11
-56.905209
21
-52.690247
31
-59.684685
12
-49.822945
22
-52.690247
32
-59.684685
13
-49.066441
23
-82.410194
33
-73.666519
0
3DFACE
8
0
70
0
10
-40.055996
20
-82.752068
30
-73.308365
11
-49.066441
21
-82.410194
31
-73.666519
12
-49.822945
22
-52.690247
32
-59.684685
13
-43.365952
23
-52.828693
33
-59.684685
0
3DFACE
8
0
70
0
10
-43.357281
20
-82.770836
30
-72.433533
11
-40.055996
21
-82.752068
31
-73.308365
12
-43.365952
22
-52.828693
32
-59.684685
13
-45.731701
23
-52.836304
33
-59.684685
0
3DFACE
8
0
70
0
10
-71.592537
20
-82.458412
30
-39.183235
11
-65.965416
21
-55.410606
31
-9.499499
12
-56.905209
22
-52.690247
32
-59.684685
13
-58.949421
23
-82.410194
33
-72.461815
0
3DFACE
8
0
70
0
10
-49.066441
20
-82.815842
30
-39.183235
11
-43.357281
21
-82.770836
31
-72.433533
12
-45.731701
22
-52.836304
32
-59.684685
13
-49.822945
23
-54.530167
33
-9.499499
0
3DFACE
8
0
70
0
10
-49.066441
20
-82.815842
30
-39.183235
11
-49.822945
21
-54.530167
31
-9.499499
12
-65.965416
22
-55.410606
32
-9.499499
13
-71.592537
23
-82.458412
33
-39.183235
0
3DFACE
8
0
70
0
10
-58.949421
20
-108.863869
30
-48.963230
11
-58.949421
21
-82.410194
31
-72.461815
12
-49.066441
22
-82.410194
32
-73.666519
13
-49.066441
23
-108.863869
33
-49.113819
0
3DFACE
8
0
70
0
10
-40.055996
20
-109.243042
30
-49.069054
11
-49.066441
21
-108.863869
31
-49.113819
12
-49.066441
22
-82.410194
32
-73.666519
13
-40.055996
23
-82.752068
33
-73.308365
0
3DFACE
8
0
70
0
10
-43.357281
20
-109.263863
30
-48.959694
11
-40.055996
21
-109.243042
31
-49.069054
12
-40.055996
22
-82.752068
32
-73.308365
13
-43.357281
23
-82.770836
33
-72.433533
0
3DFACE
8
0
70
0
10
-71.592537
20
-109.643013
30
-17.954504
11
-71.592537
21
-82.458412
31
-39.183235
12
-58.949421
22
-82.410194
32
-72.461815
13
-58.949421
23
-108.863869
33
-48.963230
0
3DFACE
8
0
70
0
10
-49.066441
20
-110.000427
30
-17.954504
11
-43.357281
21
-109.263863
31
-48.959694
12
-43.357281
22
-82.770836
32
-72.433533
13
-49.066441
23
-82.815842
33
-39.183235
0
3DFACE
8
0
70
0
10
-49.066441
20
-110.000427
30
-17.954504
11
-49.066441
21
-82.815842
31
-39.183235
12
-71.592537
22
-82.458412
32
-39.183235
13
-71.592537
23
-109.643013
33
-17.954504
0
3DFACE
8
0
70
0
10
-64.636436
20
-149.476761
30
-44.689583
11
-58.949421
21
-108.863869
31
-48.963230
12
-49.066441
22
-108.863869
32
-49.113819
13
-48.033020
23
-149.476761
33
-45.423073
0
3DFACE
8
0
70
0
10
-32.895473
20
-149.925095
30
-45.205009
11
-48.033020
21
-149.476761
31
-45.423073
12
-49.066441
22
-108.863869
32
-49.113819
13
-40.055996
23
-109.243042
33
-49.069054
0
3DFACE
8
0
70
0
10
-38.441639
20
-149.949738
30
-44.672367
11
-32.895473
21
-149.925095
31
-45.205009
12
-40.055996
22
-109.243042
32
-49.069054
13
-43.357281
23
-109.263863
33
-48.959694
0
3DFACE
8
0
70
0
10
-85.876884
20
-150.907852
30
25.899391
11
-71.592537
21
-109.643013
31
-17.954504
12
-58.949421
22
-108.863869
32
-48.963230
13
-64.636436
23
-149.476761
33
-44.689583
0
3DFACE
8
0
70
0
10
-48.033020
20
-151.240509
30
25.899391
11
-38.441639
21
-149.949738
31
-44.672367
12
-43.357281
22
-109.263863
32
-48.959694
13
-49.066441
23
-110.000427
33
-17.954504
0
3DFACE
8
0
70
0
10
-48.033020
20
-151.240509
30
25.899391
11
-49.066441
21
-110.000427
31
-17.954504
12
-71.592537
22
-109.643013
32
-17.954504
13
-85.876884
23
-150.907852
33
25.899391
0
3DFACE
8
0
70
0
10
-45.741837
20
-62.778027
30
115.839897
11
-57.259678
21
-62.778027
31
115.407768
12
-59.633942
22
50.712555
32
96.536285
13
-24.748240
23
4.477435
33
97.496582
0
3DFACE
8
0
70
0
10
-45.741837
20
-62.778027
30
115.839897
11
-24.748240
21
4.477435
31
97.496582
12
-25.504492
22
0.317329
32
132.696320
13
-43.365952
23
-62.778027
33
129.266403
0
3DFACE
8
0
70
0
10
-43.365952
20
-62.778027
30
129.266403
11
-25.504492
21
0.317329
31
132.696320
12
-59.183697
22
50.816563
32
146.562347
13
-49.822945
23
-62.778027
33
134.739838
0
3DFACE
8
0
70
0
10
-49.822945
20
-62.778027
30
134.739838
11
-59.183697
21
50.816563
31
146.562347
12
-59.633942
22
50.712555
32
96.536285
13
-57.259678
23
-62.778027
33
115.407768
0
3DFACE
8
0
70
0
10
-39.802010
20
-97.592155
30
99.004776
11
-58.000202
21
-97.592155
31
98.321999
12
-57.259678
22
-62.778027
32
115.407768
13
-45.741837
23
-62.778027
33
115.839897
0
3DFACE
8
0
70
0
10
-36.048119
20
-97.592155
30
120.218643
11
-39.802010
21
-97.592155
31
99.004776
12
-45.741837
22
-62.778027
32
115.839897
13
-43.365952
23
-62.778027
33
129.266403
0
3DFACE
8
0
70
0
10
-46.250164
20
-97.592155
30
128.866669
11
-36.048119
21
-97.592155
31
120.218643
12
-43.365952
22
-62.778027
32
129.266403
13
-49.822945
23
-62.778027
33
134.739838
0
3DFACE
8
0
70
0
10
-46.250164
20
-97.592155
30
128.866669
11
-49.822945
21
-62.778027
31
134.739838
12
-57.259678
22
-62.778027
32
115.407768
13
-58.000202
23
-97.592155
33
98.321999
0
3DFACE
8
0
70
0
10
-36.419983
20
-150.687088
30
98.841675
11
-66.628975
21
-150.687088
31
97.619514
12
-58.000202
22
-97.592155
32
98.321999
13
-39.802010
23
-97.592155
33
99.004776
0
3DFACE
8
0
70
0
10
-30.188522
20
-150.687088
30
136.814499
11
-36.419983
21
-150.687088
31
98.841675
12
-39.802010
22
-97.592155
32
99.004776
13
-36.048119
23
-97.592155
33
120.218643
0
3DFACE
8
0
70
0
10
-47.123917
20
-150.687088
30
152.294449
11
-30.188522
21
-150.687088
31
136.814499
12
-36.048119
22
-97.592155
32
120.218643
13
-46.250164
23
-97.592155
33
128.866669
0
3DFACE
8
0
70
0
10
-47.123917
20
-150.687088
30
152.294449
11
-46.250164
21
-97.592155
31
128.866669
12
-58.000202
22
-97.592155
32
98.321999
13
-66.628975
23
-150.687088
33
97.619514
0
3DFACE
8
0
70
0
10
-9.368931
20
171.827454
30
218.935440
11
-41.787792
21
199.428741
31
214.586166
12
-28.244921
22
206.997101
32
194.798737
13
-10.243733
23
165.899384
33
203.122940
0
3DFACE
8
0
70
0
10
-13.857378
20
197.981262
30
311.805908
11
-5.452726
21
198.365433
31
311.951538
12
-1.518936
22
225.022583
32
268.074951
13
-26.325207
23
223.305084
33
267.929321
0
3DFACE
8
0
70
0
10
-16.614103
20
188.168304
30
311.951538
11
-13.857378
21
197.981262
31
311.805908
12
-26.325207
22
223.305084
32
267.929321
13
-35.011215
23
190.526718
33
272.063721
0
3DFACE
8
0
70
0
10
-7.634072
20
183.583649
30
312.315674
11
-16.614103
21
188.168304
31
311.951538
12
-35.011215
22
190.526718
32
272.063721
13
-8.790090
23
175.749954
33
272.427826
0
3DFACE
8
0
70
0
10
-44.723858
20
272.866272
30
196.576187
11
-42.992931
21
262.258881
31
191.484329
12
-44.172085
22
256.889496
32
191.498413
13
-47.924442
23
257.156128
33
196.596786
0
3DFACE
8
0
70
0
10
-35.824905
20
224.626846
30
214.522110
11
-23.922052
21
223.498718
31
194.714813
12
-28.244921
22
206.997101
32
194.798737
13
-41.787792
23
199.428741
33
214.586166
0
3DFACE
8
0
70
0
10
-42.992931
20
262.258881
30
191.484329
11
-44.723858
21
272.866272
31
196.576187
12
-28.364029
22
256.155212
32
214.442001
13
-21.102636
23
234.261246
33
194.660065
0
3DFACE
8
0
70
0
10
-44.172085
20
256.889496
30
191.498413
11
-42.992931
21
262.258881
31
191.484329
12
-21.102636
22
234.261246
32
194.660065
13
-23.922052
23
223.498718
33
194.714813
0
3DFACE
8
0
70
0
10
-47.924442
20
257.156128
30
196.596786
11
-44.172085
21
256.889496
31
191.498413
12
-23.922052
22
223.498718
32
194.714813
13
-35.824905
23
224.626846
33
214.522110
0
3DFACE
8
0
70
0
10
-47.924442
20
257.156128
30
196.596786
11
-35.824905
21
224.626846
31
214.522110
12
-28.364029
22
256.155212
32
214.442001
13
-44.723858
23
272.866272
33
196.576187
0
3DFACE
8
0
70
0
10
-17.117743
20
247.058243
30
204.608795
11
-28.364029
21
256.155212
31
214.442001
12
3.726797
22
260.570007
32
214.586166
13
-5.095731
23
248.633743
33
204.663605
0
3DFACE
8
0
70
0
10
-7.469961
20
238.235352
30
194.112900
11
-5.095731
21
248.633743
31
204.663605
12
3.726797
22
260.570007
32
214.586166
13
-0.514437
23
231.829514
33
186.821182
0
3DFACE
8
0
70
0
10
-14.623734
20
239.073608
30
197.091675
11
-7.469961
21
238.235352
31
194.112900
12
-0.514437
22
231.829514
32
186.821182
13
-21.102636
23
234.261246
33
194.660065
0
3DFACE
8
0
70
0
10
-14.623734
20
239.073608
30
197.091675
11
-21.102636
21
234.261246
31
194.660065
12
-28.364029
22
256.155212
32
214.442001
13
-17.117743
23
247.058243
33
204.608795
0
3DFACE
8
0
70
0
10
-38.433765
20
320.109161
30
157.309448
11
-35.658722
21
316.646088
31
157.830536
12
-40.549557
22
315.250305
32
156.383301
13
-41.440765
23
317.695801
33
156.470474
0
3DFACE
8
0
70
0
10
-5.095731
20
248.633743
30
204.663605
11
-7.469961
21
238.235352
31
194.112900
12
-47.886341
22
272.871735
32
181.886932
13
-44.709583
23
282.119812
33
187.968506
0
3DFACE
8
0
70
0
10
-52.612370
20
275.451050
30
183.103210
11
-58.725395
21
285.579376
31
177.564224
12
-54.245697
22
281.356659
32
177.535110
13
-47.886341
23
272.871735
33
181.886932
0
3DFACE
8
0
70
0
10
-44.709583
20
282.119812
30
187.968506
11
-47.886341
21
272.871735
31
181.886932
12
-54.245697
22
281.356659
32
177.535110
13
-50.370697
23
289.646698
33
182.429581
0
3DFACE
8
0
70
0
10
-82.556076
20
292.537231
30
154.228333
11
-80.912025
21
296.812042
31
153.801926
12
-81.401672
22
295.365021
32
151.505417
13
-82.589890
23
291.031769
33
151.636169
0
3DFACE
8
0
70
0
10
-17.117743
20
247.058243
30
204.608795
11
-52.924118
21
282.598633
31
187.566849
12
-52.612370
22
275.451050
32
183.103210
13
-14.623734
23
239.073608
33
197.091675
0
3DFACE
8
0
70
0
10
-52.924118
20
282.598633
30
187.566849
11
-44.709583
21
282.119812
31
187.968506
12
-50.370697
22
289.646698
32
182.429581
13
-58.314072
23
292.658630
33
180.637436
0
3DFACE
8
0
70
0
10
-14.623734
20
239.073608
30
197.091675
11
-52.612370
21
275.451050
31
183.103210
12
-47.886341
22
272.871735
32
181.886932
13
-7.469961
23
238.235352
33
194.112900
0
3DFACE
8
0
70
0
10
-46.437927
20
306.667664
30
169.036774
11
-42.083790
21
304.950348
31
168.054657
12
-42.017441
22
307.685211
32
165.654205
13
-44.832630
23
312.741150
33
164.365463
0
3DFACE
8
0
70
0
10
-58.314072
20
292.658630
30
180.637436
11
-50.370697
21
289.646698
31
182.429581
12
-42.083790
22
304.950348
32
168.054657
13
-46.437927
23
306.667664
33
169.036774
0
3DFACE
8
0
70
0
10
-48.743561
20
303.721222
30
166.189545
11
-48.058002
21
310.017517
31
162.462509
12
-47.494331
22
306.281464
32
162.584137
13
-47.312630
23
302.130981
33
164.970917
0
3DFACE
8
0
70
0
10
-58.725395
20
285.579376
30
177.564224
11
-48.743561
21
303.721222
31
166.189545
12
-47.312630
22
302.130981
32
164.970917
13
-54.245697
23
281.356659
33
177.535110
0
3DFACE
8
0
70
0
10
-27.734884
20
302.715027
30
155.602112
11
-29.086668
21
304.803589
31
155.024918
12
-26.633511
22
306.445374
32
156.697495
13
-25.755733
23
304.928131
33
157.503891
0
3DFACE
8
0
70
0
10
-54.245697
20
281.356659
30
177.535110
11
-47.312630
21
302.130981
31
164.970917
12
-42.083790
22
304.950348
32
168.054657
13
-50.370697
23
289.646698
33
182.429581
0
3DFACE
8
0
70
0
10
-46.437927
20
306.667664
30
169.036774
11
-44.832630
21
312.741150
31
164.365463
12
-48.058002
22
310.017517
32
162.462509
13
-48.743561
23
303.721222
33
166.189545
0
3DFACE
8
0
70
0
10
-58.725395
20
285.579376
30
177.564224
11
-58.314072
21
292.658630
31
180.637436
12
-46.437927
22
306.667664
32
169.036774
13
-48.743561
23
303.721222
33
166.189545
0
3DFACE
8
0
70
0
10
-42.260948
20
315.702301
30
161.529663
11
-37.716175
21
313.746674
31
160.362000
12
-35.658722
22
316.646088
32
157.830536
13
-38.433765
23
320.109161
33
157.309448
0
3DFACE
8
0
70
0
10
-42.017441
20
307.685211
30
165.654205
11
-47.494331
21
306.281464
31
162.584137
12
-42.865425
22
312.259460
32
158.451080
13
-37.716175
23
313.746674
33
160.362000
0
3DFACE
8
0
70
0
10
-47.494331
20
306.281464
30
162.584137
11
-48.058002
21
310.017517
31
162.462509
12
-44.825691
22
313.768097
32
159.535583
13
-42.865425
23
312.259460
33
158.451080
0
3DFACE
8
0
70
0
10
-54.501831
20
310.427307
30
147.605988
11
-53.465466
21
311.690002
31
150.196030
12
-50.991093
22
313.672302
32
150.095016
13
-51.631886
23
312.868408
33
147.817719
0
3DFACE
8
0
70
0
10
-42.017441
20
307.685211
30
165.654205
11
-37.716175
21
313.746674
31
160.362000
12
-42.260948
22
315.702301
32
161.529663
13
-44.832630
23
312.741150
33
164.365463
0
3DFACE
8
0
70
0
10
-37.716175
20
313.746674
30
160.362000
11
-42.865425
21
312.259460
31
158.451080
12
-40.549557
22
315.250305
32
156.383301
13
-35.658722
23
316.646088
33
157.830536
0
3DFACE
8
0
70
0
10
-44.825691
20
313.768097
30
159.535583
11
-41.440765
21
317.695801
31
156.470474
12
-40.549557
22
315.250305
32
156.383301
13
-42.865425
23
312.259460
33
158.451080
0
3DFACE
8
0
70
0
10
-42.260948
20
315.702301
30
161.529663
11
-38.433765
21
320.109161
31
157.309448
12
-41.440765
22
317.695801
32
156.470474
13
-44.825691
23
313.768097
33
159.535583
0
3DFACE
8
0
70
0
10
-52.924118
20
282.598633
30
187.566849
11
-58.314072
21
292.658630
31
180.637436
12
-61.921726
22
290.252502
32
179.268112
13
-57.055511
23
281.207916
33
185.507492
0
3DFACE
8
0
70
0
10
-58.314072
20
292.658630
30
180.637436
11
-58.725395
21
285.579376
31
177.564224
12
-62.287701
22
283.878784
32
176.507706
13
-61.921726
23
290.252502
33
179.268112
0
3DFACE
8
0
70
0
10
-58.725395
20
285.579376
30
177.564224
11
-52.612370
21
275.451050
31
183.103210
12
-56.771805
22
274.772369
32
181.495178
13
-62.287701
23
283.878784
33
176.507706
0
3DFACE
8
0
70
0
10
-52.612370
20
275.451050
30
183.103210
11
-52.924118
21
282.598633
31
187.566849
12
-57.055511
22
281.207916
32
185.507492
13
-56.771805
23
274.772369
33
181.495178
0
3DFACE
8
0
70
0
10
-57.055511
20
281.207916
30
185.507492
11
-61.921726
21
290.252502
31
179.268112
12
-64.774391
22
287.887482
32
178.526138
13
-63.563965
23
278.271820
33
183.089203
0
3DFACE
8
0
70
0
10
-61.921726
20
290.252502
30
179.268112
11
-62.287701
21
283.878784
31
176.507706
12
-65.765671
22
282.811768
32
174.912659
13
-64.774391
23
287.887482
33
178.526138
0
3DFACE
8
0
70
0
10
-62.287701
20
283.878784
30
176.507706
11
-56.771805
21
274.772369
31
181.495178
12
-63.762062
22
273.167786
32
178.483734
13
-65.765671
23
282.811768
33
174.912659
0
3DFACE
8
0
70
0
10
-56.771805
20
274.772369
30
181.495178
11
-57.055511
21
281.207916
31
185.507492
12
-63.563965
22
278.271820
32
183.089203
13
-63.762062
23
273.167786
33
178.483734
0
3DFACE
8
0
70
0
10
-63.563965
20
278.271820
30
183.089203
11
-64.774391
21
287.887482
31
178.526138
12
-66.243317
22
287.721008
32
176.861572
13
-68.902496
23
278.635529
33
178.490295
0
3DFACE
8
0
70
0
10
-64.774391
20
287.887482
30
178.526138
11
-65.765671
21
282.811768
31
174.912659
12
-67.332146
22
284.365814
32
172.319595
13
-66.243317
23
287.721008
33
176.861572
0
3DFACE
8
0
70
0
10
-65.765671
20
282.811768
30
174.912659
11
-63.762062
21
273.167786
31
178.483734
12
-69.073105
22
275.189484
32
173.274170
13
-67.332146
23
284.365814
33
172.319595
0
3DFACE
8
0
70
0
10
-63.762062
20
273.167786
30
178.483734
11
-63.563965
21
278.271820
31
183.089203
12
-68.902496
22
278.635529
32
178.490295
13
-69.073105
23
275.189484
33
173.274170
0
3DFACE
8
0
70
0
10
-68.902496
20
278.635529
30
178.490295
11
-66.243317
21
287.721008
31
176.861572
12
-68.411293
22
288.548401
32
173.795593
13
-71.189919
23
280.432739
33
174.907547
0
3DFACE
8
0
70
0
10
-66.243317
20
287.721008
30
176.861572
11
-67.332146
21
284.365814
31
172.319595
12
-69.364326
22
285.688110
32
169.578888
13
-68.411293
23
288.548401
33
173.795593
0
3DFACE
8
0
70
0
10
-67.332146
20
284.365814
30
172.319595
11
-69.073105
21
275.189484
31
173.274170
12
-71.298927
22
277.476074
32
170.111343
13
-69.364326
23
285.688110
33
169.578888
0
3DFACE
8
0
70
0
10
-69.073105
20
275.189484
30
173.274170
11
-68.902496
21
278.635529
31
178.490295
12
-71.189919
22
280.432739
32
174.907547
13
-71.298927
23
277.476074
33
170.111343
0
3DFACE
8
0
70
0
10
-71.189919
20
280.432739
30
174.907547
11
-68.411293
21
288.548401
31
173.795593
12
-70.991447
22
289.103790
32
170.730103
13
-73.492210
23
281.799744
33
171.730850
0
3DFACE
8
0
70
0
10
-68.411293
20
288.548401
30
173.795593
11
-69.364326
21
285.688110
31
169.578888
12
-71.849190
22
286.529572
32
166.935089
13
-70.991447
23
289.103790
33
170.730103
0
3DFACE
8
0
70
0
10
-69.364326
20
285.688110
30
169.578888
11
-71.298927
21
277.476074
31
170.111343
12
-73.590324
22
279.138794
32
167.414276
13
-71.849190
23
286.529572
33
166.935089
0
3DFACE
8
0
70
0
10
-71.298927
20
277.476074
30
170.111343
11
-71.189919
21
280.432739
31
174.907547
12
-73.492210
22
281.799744
32
171.730850
13
-73.590324
23
279.138794
33
167.414276
0
3DFACE
8
0
70
0
10
-73.492210
20
281.799744
30
171.730850
11
-70.991447
21
289.103790
31
170.730103
12
-73.049332
22
289.942169
32
167.856689
13
-75.930206
23
283.545319
33
168.106735
0
3DFACE
8
0
70
0
10
-70.991447
20
289.103790
30
170.730103
11
-71.849190
21
286.529572
31
166.935089
12
-73.743095
22
287.911194
32
164.233017
13
-73.049332
23
289.942169
33
167.856689
0
3DFACE
8
0
70
0
10
-71.849190
20
286.529572
30
166.935089
11
-73.590324
21
279.138794
31
167.414276
12
-75.913956
22
281.406769
32
164.061615
13
-73.743095
23
287.911194
33
164.233017
0
3DFACE
8
0
70
0
10
-73.590324
20
279.138794
30
167.414276
11
-73.492210
21
281.799744
31
171.730850
12
-75.930206
22
283.545319
32
168.106735
13
-75.913956
23
281.406769
33
164.061615
0
3DFACE
8
0
70
0
10
-75.930206
20
283.545319
30
168.106735
11
-73.049332
21
289.942169
31
167.856689
12
-74.636963
22
291.033142
32
165.158203
13
-77.721809
23
285.511780
33
164.783478
0
3DFACE
8
0
70
0
10
-73.049332
20
289.942169
30
167.856689
11
-73.743095
21
287.911194
31
164.233017
12
-75.156708
22
289.460541
32
161.737747
13
-74.636963
23
291.033142
33
165.158203
0
3DFACE
8
0
70
0
10
-73.743095
20
287.911194
30
164.233017
11
-75.913956
21
281.406769
31
164.061615
12
-77.585091
22
283.812012
32
161.025665
13
-75.156708
23
289.460541
33
161.737747
0
3DFACE
8
0
70
0
10
-75.913956
20
281.406769
30
164.061615
11
-75.930206
21
283.545319
31
168.106735
12
-77.721809
22
285.511780
32
164.783478
13
-77.585091
23
283.812012
33
161.025665
0
3DFACE
8
0
70
0
10
-77.721809
20
285.511780
30
164.783478
11
-74.636963
21
291.033142
31
165.158203
12
-76.255127
22
293.073669
32
161.590271
13
-79.114273
23
288.156250
33
161.140762
0
3DFACE
8
0
70
0
10
-74.636963
20
291.033142
30
165.158203
11
-75.156708
21
289.460541
31
161.737747
12
-76.699890
22
291.705292
32
158.485504
13
-76.255127
23
293.073669
33
161.590271
0
3DFACE
8
0
70
0
10
-75.156708
20
289.460541
30
161.737747
11
-77.585091
21
283.812012
31
161.025665
12
-78.965691
22
286.667328
32
157.739960
13
-76.699890
23
291.705292
33
158.485504
0
3DFACE
8
0
70
0
10
-77.585091
20
283.812012
30
161.025665
11
-77.721809
21
285.511780
31
164.783478
12
-79.114273
22
288.156250
32
161.140762
13
-78.965691
23
286.667328
33
157.739960
0
3DFACE
8
0
70
0
10
-79.114273
20
288.156250
30
161.140762
11
-76.255127
21
293.073669
31
161.590271
12
-78.478516
22
295.432892
32
157.298569
13
-80.664291
23
290.803467
33
157.383194
0
3DFACE
8
0
70
0
10
-76.255127
20
293.073669
30
161.590271
11
-76.699890
21
291.705292
31
158.485504
12
-78.969254
22
293.994446
32
154.628952
13
-78.478516
23
295.432892
33
157.298569
0
3DFACE
8
0
70
0
10
-76.699890
20
291.705292
30
158.485504
11
-78.965691
21
286.667328
31
157.739960
12
-80.634193
22
289.281769
32
154.413345
13
-78.969254
23
293.994446
33
154.628952
0
3DFACE
8
0
70
0
10
-78.965691
20
286.667328
30
157.739960
11
-79.114273
21
288.156250
31
161.140762
12
-80.664291
22
290.803467
32
157.383194
13
-80.634193
23
289.281769
33
154.413345
0
3DFACE
8
0
70
0
10
-80.664291
20
290.803467
30
157.383194
11
-78.478516
21
295.432892
31
157.298569
12
-80.912025
22
296.812042
32
153.801926
13
-82.556076
23
292.537231
33
154.228333
0
3DFACE
8
0
70
0
10
-78.478516
20
295.432892
30
157.298569
11
-78.969254
21
293.994446
31
154.628952
12
-81.401672
22
295.365021
32
151.505417
13
-80.912025
23
296.812042
33
153.801926
0
3DFACE
8
0
70
0
10
-78.969254
20
293.994446
30
154.628952
11
-80.634193
21
289.281769
31
154.413345
12
-82.589890
22
291.031769
32
151.636169
13
-81.401672
23
295.365021
33
151.505417
0
3DFACE
8
0
70
0
10
-80.634193
20
289.281769
30
154.413345
11
-80.664291
21
290.803467
31
157.383194
12
-82.556076
22
292.537231
32
154.228333
13
-82.589890
23
291.031769
33
151.636169
0
3DFACE
8
0
70
0
10
-47.312630
20
302.130981
30
164.970917
11
-47.494331
21
306.281464
31
162.584137
12
-43.633888
22
303.961945
32
161.457382
13
-43.016502
23
300.158051
33
163.380447
0
3DFACE
8
0
70
0
10
-47.494331
20
306.281464
30
162.584137
11
-42.017441
21
307.685211
31
165.654205
12
-38.798473
22
305.567932
32
164.193130
13
-43.633888
23
303.961945
33
161.457382
0
3DFACE
8
0
70
0
10
-42.017441
20
307.685211
30
165.654205
11
-42.083790
21
304.950348
31
168.054657
12
-38.539433
22
303.006317
32
166.207214
13
-38.798473
23
305.567932
33
164.193130
0
3DFACE
8
0
70
0
10
-42.083790
20
304.950348
30
168.054657
11
-47.312630
21
302.130981
31
164.970917
12
-43.016502
22
300.158051
32
163.380447
13
-38.539433
23
303.006317
33
166.207214
0
3DFACE
8
0
70
0
10
-43.016502
20
300.158051
30
163.380447
11
-43.633888
21
303.961945
31
161.457382
12
-40.976944
22
303.095856
32
160.601776
13
-40.149776
23
299.660034
33
162.191483
0
3DFACE
8
0
70
0
10
-43.633888
20
303.961945
30
161.457382
11
-38.798473
21
305.567932
31
164.193130
12
-36.699677
22
304.741333
32
163.058502
13
-40.976944
23
303.095856
33
160.601776
0
3DFACE
8
0
70
0
10
-38.798473
20
305.567932
30
164.193130
11
-38.539433
21
303.006317
31
166.207214
12
-36.272900
22
302.395813
32
164.777588
13
-36.699677
23
304.741333
33
163.058502
0
3DFACE
8
0
70
0
10
-38.539433
20
303.006317
30
166.207214
11
-43.016502
21
300.158051
31
163.380447
12
-40.149776
22
299.660034
32
162.191483
13
-36.272900
23
302.395813
33
164.777588
0
3DFACE
8
0
70
0
10
-40.149776
20
299.660034
30
162.191483
11
-40.976944
21
303.095856
31
160.601776
12
-38.239155
22
301.662140
32
159.795227
13
-36.563366
23
298.726593
33
160.697403
0
3DFACE
8
0
70
0
10
-40.976944
20
303.095856
30
160.601776
11
-36.699677
21
304.741333
31
163.058502
12
-34.774166
22
303.795898
32
162.063248
13
-38.239155
23
301.662140
33
159.795227
0
3DFACE
8
0
70
0
10
-36.699677
20
304.741333
30
163.058502
11
-36.272900
21
302.395813
31
164.777588
12
-33.705463
22
301.686157
32
163.247513
13
-34.774166
23
303.795898
33
162.063248
0
3DFACE
8
0
70
0
10
-36.272900
20
302.395813
30
164.777588
11
-40.149776
21
299.660034
31
162.191483
12
-36.563366
22
298.726593
32
160.697403
13
-33.705463
23
301.686157
33
163.247513
0
3DFACE
8
0
70
0
10
-36.563366
20
298.726593
30
160.697403
11
-38.239155
21
301.662140
31
159.795227
12
-34.970818
22
302.412903
32
158.184509
13
-32.509026
23
300.395599
33
158.350906
0
3DFACE
8
0
70
0
10
-38.239155
20
301.662140
30
159.795227
11
-34.774166
21
303.795898
31
162.063248
12
-32.546253
22
304.923370
32
160.460663
13
-34.970818
23
302.412903
33
158.184509
0
3DFACE
8
0
70
0
10
-34.774166
20
303.795898
30
162.063248
11
-33.705463
21
301.686157
31
163.247513
12
-30.835787
22
303.349121
32
161.056992
13
-32.546253
23
304.923370
33
160.460663
0
3DFACE
8
0
70
0
10
-33.705463
20
301.686157
30
163.247513
11
-36.563366
21
298.726593
31
160.697403
12
-32.509026
22
300.395599
32
158.350906
13
-30.835787
23
303.349121
33
161.056992
0
3DFACE
8
0
70
0
10
-32.509026
20
300.395599
30
158.350906
11
-34.970818
21
302.412903
31
158.184509
12
-32.120552
22
304.252106
32
156.521652
13
-30.138697
23
302.220673
33
156.843750
0
3DFACE
8
0
70
0
10
-34.970818
20
302.412903
30
158.184509
11
-32.546253
21
304.923370
31
160.460663
12
-29.727829
22
306.377411
32
158.488770
13
-32.120552
23
304.252106
33
156.521652
0
3DFACE
8
0
70
0
10
-32.546253
20
304.923370
30
160.460663
11
-30.835787
21
303.349121
31
161.056992
12
-28.378363
22
304.837402
32
159.153793
13
-29.727829
23
306.377411
33
158.488770
0
3DFACE
8
0
70
0
10
-30.835787
20
303.349121
30
161.056992
11
-32.509026
21
300.395599
31
158.350906
12
-30.138697
22
302.220673
32
156.843750
13
-28.378363
23
304.837402
33
159.153793
0
3DFACE
8
0
70
0
10
-30.138697
20
302.220673
30
156.843750
11
-32.120552
21
304.252106
31
156.521652
12
-29.086668
22
304.803589
32
155.024918
13
-27.734884
23
302.715027
33
155.602112
0
3DFACE
8
0
70
0
10
-32.120552
20
304.252106
30
156.521652
11
-29.727829
21
306.377411
31
158.488770
12
-26.633511
22
306.445374
32
156.697495
13
-29.086668
23
304.803589
33
155.024918
0
3DFACE
8
0
70
0
10
-29.727829
20
306.377411
30
158.488770
11
-28.378363
21
304.837402
31
159.153793
12
-25.755733
22
304.928131
32
157.503891
13
-26.633511
23
306.445374
33
156.697495
0
3DFACE
8
0
70
0
10
-28.378363
20
304.837402
30
159.153793
11
-30.138697
21
302.220673
31
156.843750
12
-27.734884
22
302.715027
32
155.602112
13
-25.755733
23
304.928131
33
157.503891
0
3DFACE
8
0
70
0
10
-48.058002
20
310.017517
30
162.462509
11
-44.832630
21
312.741150
31
164.365463
12
-48.430103
22
311.931702
32
161.402740
13
-51.152912
23
309.591858
33
159.274765
0
3DFACE
8
0
70
0
10
-44.832630
20
312.741150
30
164.365463
11
-42.260948
21
315.702301
31
161.529663
12
-45.807991
22
314.649750
32
159.238831
13
-48.430103
23
311.931702
33
161.402740
0
3DFACE
8
0
70
0
10
-42.260948
20
315.702301
30
161.529663
11
-44.825691
21
313.768097
31
159.535583
12
-47.921593
22
313.013062
32
157.125580
13
-45.807991
23
314.649750
33
159.238831
0
3DFACE
8
0
70
0
10
-44.825691
20
313.768097
30
159.535583
11
-48.058002
21
310.017517
31
162.462509
12
-51.152912
22
309.591858
32
159.274765
13
-47.921593
23
313.013062
33
157.125580
0
3DFACE
8
0
70
0
10
-51.152912
20
309.591858
30
159.274765
11
-48.430103
21
311.931702
31
161.402740
12
-50.596668
22
311.536194
32
158.901031
13
-52.500217
23
309.707977
33
156.209961
0
3DFACE
8
0
70
0
10
-48.430103
20
311.931702
30
161.402740
11
-45.807991
21
314.649750
31
159.238831
12
-47.749401
22
314.025696
32
157.892563
13
-50.596668
23
311.536194
33
158.901031
0
3DFACE
8
0
70
0
10
-45.807991
20
314.649750
30
159.238831
11
-47.921593
21
313.013062
31
157.125580
12
-49.113312
22
312.801666
32
155.420853
13
-47.749401
23
314.025696
33
157.892563
0
3DFACE
8
0
70
0
10
-47.921593
20
313.013062
30
157.125580
11
-51.152912
21
309.591858
31
159.274765
12
-52.500217
22
309.707977
32
156.209961
13
-49.113312
23
312.801666
33
155.420853
0
3DFACE
8
0
70
0
10
-52.500217
20
309.707977
30
156.209961
11
-50.596668
21
311.536194
31
158.901031
12
-52.374897
22
311.528992
32
154.315933
13
-53.631817
23
310.082733
33
151.506454
0
3DFACE
8
0
70
0
10
-50.596668
20
311.536194
30
158.901031
11
-47.749401
21
314.025696
31
157.892563
12
-49.644810
22
313.742889
32
154.062912
13
-52.374897
23
311.528992
33
154.315933
0
3DFACE
8
0
70
0
10
-47.749401
20
314.025696
30
157.892563
11
-49.113312
21
312.801666
31
155.420853
12
-50.451679
22
312.812958
32
151.575897
13
-49.644810
23
313.742889
33
154.062912
0
3DFACE
8
0
70
0
10
-49.113312
20
312.801666
30
155.420853
11
-52.500217
21
309.707977
31
156.209961
12
-53.631817
22
310.082733
32
151.506454
13
-50.451679
23
312.812958
33
151.575897
0
3DFACE
8
0
70
0
10
-53.631817
20
310.082733
30
151.506454
11
-52.374897
21
311.528992
31
154.315933
12
-53.465466
22
311.690002
32
150.196030
13
-54.501831
23
310.427307
33
147.605988
0
3DFACE
8
0
70
0
10
-52.374897
20
311.528992
30
154.315933
11
-49.644810
21
313.742889
31
154.062912
12
-50.991093
22
313.672302
32
150.095016
13
-53.465466
23
311.690002
33
150.196030
0
3DFACE
8
0
70
0
10
-49.644810
20
313.742889
30
154.062912
11
-50.451679
21
312.812958
31
151.575897
12
-51.631886
22
312.868408
32
147.817719
13
-50.991093
23
313.672302
33
150.095016
0
3DFACE
8
0
70
0
10
-50.451679
20
312.812958
30
151.575897
11
-53.631817
21
310.082733
31
151.506454
12
-54.501831
22
310.427307
32
147.605988
13
-51.631886
23
312.868408
33
147.817719
0
3DFACE
8
0
70
0
10
4.150512
20
100.593056
30
-67.451477
11
36.341682
21
94.386765
31
-55.314205
12
-7.434094
22
88.428047
32
-72.835976
13
-8.793184
23
97.637848
33
-71.146355
0
3DFACE
8
0
70
0
10
4.150512
20
100.593056
30
-67.451477
11
0.753254
21
108.853310
31
-62.042137
12
27.509357
22
115.393600
32
-50.768738
13
36.341682
23
94.386765
33
-55.314205
0
3DFACE
8
0
70
0
10
0.753254
20
108.853310
30
-62.042137
11
-10.346026
21
108.160622
31
-64.489624
12
-11.387823
22
115.220299
32
-61.472321
13
27.509357
23
115.393600
33
-50.768738
0
3DFACE
8
0
70
0
10
-21.208601
20
105.863892
30
-62.042137
11
-48.803253
21
105.006020
31
-50.768738
12
-11.387823
22
115.220299
32
-61.472321
13
-10.346026
23
108.160622
33
-64.489624
0
3DFACE
8
0
70
0
10
-22.082142
20
97.022301
30
-67.451477
11
-51.209873
21
82.469337
31
-55.314205
12
-48.803253
22
105.006020
32
-50.768738
13
-21.208601
23
105.863892
33
-62.042137
0
3DFACE
8
0
70
0
10
-22.082142
20
97.022301
30
-67.451477
11
-8.793184
21
97.637848
31
-71.146355
12
-7.434094
22
88.428047
32
-72.835976
13
-51.209873
23
82.469337
33
-55.314205
0
3DFACE
8
0
70
0
10
-7.930028
20
91.788734
30
-82.517838
11
6.033247
21
100.849350
31
-81.248886
12
4.150512
22
100.593056
32
-67.451477
13
-8.793184
23
97.637848
33
-71.146355
0
3DFACE
8
0
70
0
10
6.033247
20
100.849350
30
-81.248886
11
1.195238
21
117.266769
31
-73.804512
12
0.753254
22
108.853310
32
-62.042137
13
4.150512
23
100.593056
33
-67.451477
0
3DFACE
8
0
70
0
10
1.195238
20
117.266769
30
-73.804512
11
-12.417598
21
122.198532
31
-73.829231
12
-10.346026
22
108.160622
32
-64.489624
13
0.753254
23
108.853310
33
-62.042137
0
3DFACE
8
0
70
0
10
-24.067421
20
113.828026
30
-73.804512
11
-21.208601
21
105.863892
31
-62.042137
12
-10.346026
22
108.160622
32
-64.489624
13
-12.417598
23
122.198532
33
-73.829231
0
3DFACE
8
0
70
0
10
-23.964876
20
96.766037
30
-81.248886
11
-22.082142
21
97.022301
31
-67.451477
12
-21.208601
22
105.863892
32
-62.042137
13
-24.067421
23
113.828026
33
-73.804512
0
3DFACE
8
0
70
0
10
-7.930028
20
91.788734
30
-82.517838
11
-8.793184
21
97.637848
31
-71.146355
12
-22.082142
22
97.022301
32
-67.451477
13
-23.964876
23
96.766037
33
-81.248886
0
3DFACE
8
0
70
0
10
-10.519493
20
109.336113
30
-95.407173
11
-7.360119
21
110.959473
31
-95.389252
12
6.033247
22
100.849350
32
-81.248886
13
-7.930028
23
91.788734
33
-82.517838
0
3DFACE
8
0
70
0
10
-7.360119
20
110.959473
30
-95.389252
11
-9.095527
21
119.445969
31
-95.363037
12
1.195238
22
117.266769
32
-73.804512
13
6.033247
23
100.849350
33
-81.248886
0
3DFACE
8
0
70
0
10
-9.095527
20
119.445969
30
-95.363037
11
-12.072338
21
119.858879
31
-95.374901
12
-12.417598
22
122.198532
32
-73.829231
13
1.195238
23
117.266769
33
-73.804512
0
3DFACE
8
0
70
0
10
-14.812444
20
118.667786
30
-95.363037
11
-24.067421
21
113.828026
31
-73.804512
12
-12.417598
22
122.198532
32
-73.829231
13
-12.072338
23
119.858879
33
-95.374901
0
3DFACE
8
0
70
0
10
-14.024127
20
110.052368
30
-95.389252
11
-23.964876
21
96.766037
31
-81.248886
12
-24.067421
22
113.828026
32
-73.804512
13
-14.812444
23
118.667786
33
-95.363037
0
3DFACE
8
0
70
0
10
-10.519493
20
109.336113
30
-95.407173
11
-7.930028
21
91.788734
31
-82.517838
12
-23.964876
22
96.766037
32
-81.248886
13
-14.024127
23
110.052368
33
-95.389252
0
3DFACE
8
0
70
0
10
2.253175
20
250.584091
30
238.598495
11
-1.518936
21
225.022583
31
268.074951
12
21.813478
22
216.752518
32
267.929321
13
28.032244
23
240.462494
33
238.598495
0
3DFACE
8
0
70
0
10
-8.197034
20
179.768753
30
238.598495
11
25.402718
21
190.146103
31
238.598495
12
20.673706
22
182.946960
32
272.063721
13
-8.790090
23
175.749954
33
272.427826
0
3DFACE
8
0
70
0
10
2.253175
20
250.584091
30
238.598495
11
-25.439102
21
247.740921
31
238.598495
12
-26.325207
22
223.305084
32
267.929321
13
-1.518936
23
225.022583
33
268.074951
0
3DFACE
8
0
70
0
10
-8.197034
20
179.768753
30
238.598495
11
-8.790090
21
175.749954
31
272.427826
12
-35.011215
22
190.526718
32
272.063721
13
-37.471073
23
198.704391
33
238.598495
0
3DFACE
8
0
70
0
10
33.276451
20
247.764755
30
214.442001
11
3.726797
21
260.570007
31
214.586166
12
2.253175
22
250.584091
32
238.598495
13
28.032244
23
240.462494
33
238.598495
0
3DFACE
8
0
70
0
10
33.276451
20
247.764755
30
214.442001
11
28.032244
21
240.462494
31
238.598495
12
25.402718
22
190.146103
32
238.598495
13
29.758999
23
189.689850
33
214.586166
0
3DFACE
8
0
70
0
10
29.758999
20
189.689850
30
214.586166
11
25.402718
21
190.146103
31
238.598495
12
-8.197034
22
179.768753
32
238.598495
13
-9.368931
23
171.827454
33
218.935440
0
3DFACE
8
0
70
0
10
-28.364029
20
256.155212
30
214.442001
11
-25.439102
21
247.740921
31
238.598495
12
2.253175
22
250.584091
32
238.598495
13
3.726797
23
260.570007
33
214.586166
0
3DFACE
8
0
70
0
10
-28.364029
20
256.155212
30
214.442001
11
-41.787792
21
199.428741
31
214.586166
12
-37.471073
22
198.704391
32
238.598495
13
-25.439102
23
247.740921
33
238.598495
0
3DFACE
8
0
70
0
10
-41.787792
20
199.428741
30
214.586166
11
-9.368931
21
171.827454
31
218.935440
12
-8.197034
22
179.768753
32
238.598495
13
-37.471073
23
198.704391
33
238.598495
0
3DFACE
8
0
70
0
10
12.752276
20
239.924988
30
257.618439
11
16.553034
21
242.669052
31
256.071686
12
13.419512
22
244.446518
32
256.071686
13
13.419512
23
244.446518
33
256.071686
0
3DFACE
8
0
70
0
10
12.752276
20
239.924988
30
257.618439
11
17.460133
21
239.284180
31
256.071686
12
16.553034
22
242.669052
32
256.071686
13
16.553034
23
242.669052
33
256.071686
0
3DFACE
8
0
70
0
10
15.609420
20
236.274719
30
256.071686
11
17.460133
21
239.284180
31
256.071686
12
12.752276
22
239.924988
32
257.618439
13
12.752276
23
239.924988
33
257.618439
0
3DFACE
8
0
70
0
10
12.085036
20
235.403503
30
256.071686
11
15.609420
21
236.274719
31
256.071686
12
12.752276
22
239.924988
32
257.618439
13
12.752276
23
239.924988
33
257.618439
0
3DFACE
8
0
70
0
10
12.085036
20
235.403503
30
256.071686
11
12.752276
21
239.924988
31
257.618439
12
8.951515
22
237.180954
32
256.071686
13
8.951515
23
237.180954
33
256.071686
0
3DFACE
8
0
70
0
10
8.951515
20
237.180954
30
256.071686
11
12.752276
21
239.924988
31
257.618439
12
8.044415
22
240.565842
32
256.071686
13
8.044415
23
240.565842
33
256.071686
0
3DFACE
8
0
70
0
10
12.752276
20
239.924988
30
257.618439
11
9.895131
21
243.575333
31
256.071686
12
8.044415
22
240.565842
32
256.071686
13
8.044415
23
240.565842
33
256.071686
0
3DFACE
8
0
70
0
10
12.752276
20
239.924988
30
257.618439
11
13.419512
21
244.446518
31
256.071686
12
9.895131
22
243.575333
32
256.071686
13
9.895131
23
243.575333
33
256.071686
0
3DFACE
8
0
70
0
10
16.553034
20
242.669052
30
256.071686
11
18.902048
21
244.365005
31
252.022263
12
13.831899
22
247.240997
32
252.022263
13
13.419512
23
244.446518
33
256.071686
0
3DFACE
8
0
70
0
10
17.460133
20
239.284180
30
256.071686
11
20.369747
21
238.888123
31
252.022263
12
18.902048
22
244.365005
32
252.022263
13
16.553034
23
242.669052
33
256.071686
0
3DFACE
8
0
70
0
10
17.375250
20
234.018692
30
252.022263
11
20.369747
21
238.888123
31
252.022263
12
17.460133
22
239.284180
32
256.071686
13
15.609420
23
236.274719
33
256.071686
0
3DFACE
8
0
70
0
10
11.672666
20
232.609055
30
252.022263
11
17.375250
21
234.018692
31
252.022263
12
15.609420
22
236.274719
32
256.071686
13
12.085036
23
235.403503
33
256.071686
0
3DFACE
8
0
70
0
10
11.672666
20
232.609055
30
252.022263
11
12.085036
21
235.403503
31
256.071686
12
8.951515
22
237.180954
32
256.071686
13
6.602500
23
235.485046
33
252.022263
0
3DFACE
8
0
70
0
10
6.602500
20
235.485046
30
252.022263
11
8.951515
21
237.180954
31
256.071686
12
8.044415
22
240.565842
32
256.071686
13
5.134797
23
240.961868
33
252.022263
0
3DFACE
8
0
70
0
10
8.044415
20
240.565842
30
256.071686
11
9.895131
21
243.575333
31
256.071686
12
8.129313
22
245.831421
32
252.022263
13
5.134797
23
240.961868
33
252.022263
0
3DFACE
8
0
70
0
10
9.895131
20
243.575333
30
256.071686
11
13.419512
21
244.446518
31
256.071686
12
13.831899
22
247.240997
32
252.022263
13
8.129313
23
245.831421
33
252.022263
0
3DFACE
8
0
70
0
10
18.902048
20
244.365005
30
252.022263
11
18.902048
21
244.365005
31
247.016937
12
13.831899
22
247.240997
32
247.016937
13
13.831899
23
247.240997
33
252.022263
0
3DFACE
8
0
70
0
10
20.369747
20
238.888123
30
252.022263
11
20.369747
21
238.888123
31
247.016937
12
18.902048
22
244.365005
32
247.016937
13
18.902048
23
244.365005
33
252.022263
0
3DFACE
8
0
70
0
10
17.375250
20
234.018692
30
252.022263
11
17.375250
21
234.018692
31
247.016937
12
20.369747
22
238.888123
32
247.016937
13
20.369747
23
238.888123
33
252.022263
0
3DFACE
8
0
70
0
10
11.672666
20
232.609055
30
252.022263
11
11.672666
21
232.609055
31
247.016937
12
17.375250
22
234.018692
32
247.016937
13
17.375250
23
234.018692
33
252.022263
0
3DFACE
8
0
70
0
10
11.672666
20
232.609055
30
252.022263
11
6.602500
21
235.485046
31
252.022263
12
6.602500
22
235.485046
32
247.016937
13
11.672666
23
232.609055
33
247.016937
0
3DFACE
8
0
70
0
10
6.602500
20
235.485046
30
252.022263
11
5.134797
21
240.961868
31
252.022263
12
5.134797
22
240.961868
32
247.016937
13
6.602500
23
235.485046
33
247.016937
0
3DFACE
8
0
70
0
10
5.134797
20
240.961868
30
252.022263
11
8.129313
21
245.831421
31
252.022263
12
8.129313
22
245.831421
32
247.016937
13
5.134797
23
240.961868
33
247.016937
0
3DFACE
8
0
70
0
10
8.129313
20
245.831421
30
252.022263
11
13.831899
21
247.240997
31
252.022263
12
13.831899
22
247.240997
32
247.016937
13
8.129313
23
245.831421
33
247.016937
0
3DFACE
8
0
70
0
10
16.553034
20
242.669052
30
242.967499
11
13.419512
21
244.446518
31
242.967499
12
13.831899
22
247.240997
32
247.016937
13
18.902048
23
244.365005
33
247.016937
0
3DFACE
8
0
70
0
10
20.369747
20
238.888123
30
247.016937
11
17.460133
21
239.284180
31
242.967499
12
16.553034
22
242.669052
32
242.967499
13
18.902048
23
244.365005
33
247.016937
0
3DFACE
8
0
70
0
10
17.375250
20
234.018692
30
247.016937
11
15.609420
21
236.274719
31
242.967499
12
17.460133
22
239.284180
32
242.967499
13
20.369747
23
238.888123
33
247.016937
0
3DFACE
8
0
70
0
10
11.672666
20
232.609055
30
247.016937
11
12.085036
21
235.403503
31
242.967499
12
15.609420
22
236.274719
32
242.967499
13
17.375250
23
234.018692
33
247.016937
0
3DFACE
8
0
70
0
10
11.672666
20
232.609055
30
247.016937
11
6.602500
21
235.485046
31
247.016937
12
8.951515
22
237.180954
32
242.967499
13
12.085036
23
235.403503
33
242.967499
0
3DFACE
8
0
70
0
10
6.602500
20
235.485046
30
247.016937
11
5.134797
21
240.961868
31
247.016937
12
8.044415
22
240.565842
32
242.967499
13
8.951515
23
237.180954
33
242.967499
0
3DFACE
8
0
70
0
10
5.134797
20
240.961868
30
247.016937
11
8.129313
21
245.831421
31
247.016937
12
9.895131
22
243.575333
32
242.967499
13
8.044415
23
240.565842
33
242.967499
0
3DFACE
8
0
70
0
10
9.895131
20
243.575333
30
242.967499
11
8.129313
21
245.831421
31
247.016937
12
13.831899
22
247.240997
32
247.016937
13
13.419512
23
244.446518
33
242.967499
0
3DFACE
8
0
70
0
10
12.752276
20
239.924988
30
241.420761
11
13.419512
21
244.446518
31
242.967499
12
16.553034
22
242.669052
32
242.967499
13
16.553034
23
242.669052
33
242.967499
0
3DFACE
8
0
70
0
10
17.460133
20
239.284180
30
242.967499
11
12.752276
21
239.924988
31
241.420761
12
16.553034
22
242.669052
32
242.967499
13
16.553034
23
242.669052
33
242.967499
0
3DFACE
8
0
70
0
10
15.609420
20
236.274719
30
242.967499
11
12.752276
21
239.924988
31
241.420761
12
17.460133
22
239.284180
32
242.967499
13
17.460133
23
239.284180
33
242.967499
0
3DFACE
8
0
70
0
10
12.085036
20
235.403503
30
242.967499
11
12.752276
21
239.924988
31
241.420761
12
15.609420
22
236.274719
32
242.967499
13
15.609420
23
236.274719
33
242.967499
0
3DFACE
8
0
70
0
10
12.085036
20
235.403503
30
242.967499
11
8.951515
21
237.180954
31
242.967499
12
12.752276
22
239.924988
32
241.420761
13
12.752276
23
239.924988
33
241.420761
0
3DFACE
8
0
70
0
10
8.951515
20
237.180954
30
242.967499
11
8.044415
21
240.565842
31
242.967499
12
12.752276
22
239.924988
32
241.420761
13
12.752276
23
239.924988
33
241.420761
0
3DFACE
8
0
70
0
10
8.044415
20
240.565842
30
242.967499
11
9.895131
21
243.575333
31
242.967499
12
12.752276
22
239.924988
32
241.420761
13
12.752276
23
239.924988
33
241.420761
0
3DFACE
8
0
70
0
10
12.752276
20
239.924988
30
241.420761
11
9.895131
21
243.575333
31
242.967499
12
13.419512
22
244.446518
32
242.967499
13
13.419512
23
244.446518
33
242.967499
0
3DFACE
8
0
70
0
10
-6.274652
20
198.522079
30
327.949738
11
-5.295086
21
205.160080
31
325.678955
12
-10.469178
22
203.881058
32
325.678955
13
-10.469178
23
203.881058
33
325.678955
0
3DFACE
8
0
70
0
10
-6.274652
20
198.522079
30
327.949738
11
-10.469178
21
203.881058
31
325.678955
12
-13.186192
22
199.462860
32
325.678955
13
-13.186192
23
199.462860
33
325.678955
0
3DFACE
8
0
70
0
10
-11.854485
20
194.493622
30
325.678955
11
-6.274652
21
198.522079
31
327.949738
12
-13.186192
22
199.462860
32
325.678955
13
-13.186192
23
199.462860
33
325.678955
0
3DFACE
8
0
70
0
10
-7.254211
20
191.884155
30
325.678955
11
-6.274652
21
198.522079
31
327.949738
12
-11.854485
22
194.493622
32
325.678955
13
-11.854485
23
194.493622
33
325.678955
0
3DFACE
8
0
70
0
10
-7.254211
20
191.884155
30
325.678955
11
-2.080116
21
193.163177
31
325.678955
12
-6.274652
22
198.522079
32
327.949738
13
-6.274652
23
198.522079
33
327.949738
0
3DFACE
8
0
70
0
10
-2.080116
20
193.163177
30
325.678955
11
0.636884
21
197.581314
31
325.678955
12
-6.274652
22
198.522079
32
327.949738
13
-6.274652
23
198.522079
33
327.949738
0
3DFACE
8
0
70
0
10
-6.274652
20
198.522079
30
327.949738
11
0.636884
21
197.581314
31
325.678955
12
-0.694809
22
202.550613
32
325.678955
13
-0.694809
23
202.550613
33
325.678955
0
3DFACE
8
0
70
0
10
-6.274652
20
198.522079
30
327.949738
11
-0.694809
21
202.550613
31
325.678955
12
-5.295086
22
205.160080
32
325.678955
13
-5.295086
23
205.160080
33
325.678955
0
3DFACE
8
0
70
0
10
-10.469178
20
203.881058
30
325.678955
11
-5.295086
21
205.160080
31
325.678955
12
-4.689680
22
209.262558
32
319.734070
13
-13.061556
23
207.193176
33
319.734070
0
3DFACE
8
0
70
0
10
-13.186192
20
199.462860
30
325.678955
11
-10.469178
21
203.881058
31
325.678955
12
-13.061556
22
207.193176
32
319.734070
13
-17.457758
23
200.044327
33
319.734070
0
3DFACE
8
0
70
0
10
-15.303044
20
192.003860
30
319.734070
11
-11.854485
21
194.493622
31
325.678955
12
-13.186192
22
199.462860
32
325.678955
13
-17.457758
23
200.044327
33
319.734070
0
3DFACE
8
0
70
0
10
-7.859613
20
187.781662
30
319.734070
11
-7.254211
21
191.884155
31
325.678955
12
-11.854485
22
194.493622
32
325.678955
13
-15.303044
23
192.003860
33
319.734070
0
3DFACE
8
0
70
0
10
-7.859613
20
187.781662
30
319.734070
11
0.512267
21
189.851089
31
319.734070
12
-2.080116
22
193.163177
32
325.678955
13
-7.254211
23
191.884155
33
325.678955
0
3DFACE
8
0
70
0
10
0.512267
20
189.851089
30
319.734070
11
4.908453
21
196.999878
31
319.734070
12
0.636884
22
197.581314
32
325.678955
13
-2.080116
23
193.163177
33
325.678955
0
3DFACE
8
0
70
0
10
0.636884
20
197.581314
30
325.678955
11
4.908453
21
196.999878
31
319.734070
12
2.753751
22
205.040405
32
319.734070
13
-0.694809
23
202.550613
33
325.678955
0
3DFACE
8
0
70
0
10
-0.694809
20
202.550613
30
325.678955
11
2.753751
21
205.040405
31
319.734070
12
-4.689680
22
209.262558
32
319.734070
13
-5.295086
23
205.160080
33
325.678955
0
3DFACE
8
0
70
0
10
-13.061556
20
207.193176
30
319.734070
11
-4.689680
21
209.262558
31
319.734070
12
-4.689680
22
209.262558
32
312.385803
13
-13.061556
23
207.193176
33
312.385803
0
3DFACE
8
0
70
0
10
-17.457758
20
200.044327
30
319.734070
11
-13.061556
21
207.193176
31
319.734070
12
-13.061556
22
207.193176
32
312.385803
13
-17.457758
23
200.044327
33
312.385803
0
3DFACE
8
0
70
0
10
-15.303044
20
192.003860
30
319.734070
11
-17.457758
21
200.044327
31
319.734070
12
-17.457758
22
200.044327
32
312.385803
13
-15.303044
23
192.003860
33
312.385803
0
3DFACE
8
0
70
0
10
-7.859613
20
187.781662
30
319.734070
11
-15.303044
21
192.003860
31
319.734070
12
-15.303044
22
192.003860
32
312.385803
13
-7.859613
23
187.781662
33
312.385803
0
3DFACE
8
0
70
0
10
-7.859613
20
187.781662
30
319.734070
11
-7.859613
21
187.781662
31
312.385803
12
0.512267
22
189.851089
32
312.385803
13
0.512267
23
189.851089
33
319.734070
0
3DFACE
8
0
70
0
10
0.512267
20
189.851089
30
319.734070
11
0.512267
21
189.851089
31
312.385803
12
4.908453
22
196.999878
32
312.385803
13
4.908453
23
196.999878
33
319.734070
0
3DFACE
8
0
70
0
10
4.908453
20
196.999878
30
319.734070
11
4.908453
21
196.999878
31
312.385803
12
2.753751
22
205.040405
32
312.385803
13
2.753751
23
205.040405
33
319.734070
0
3DFACE
8
0
70
0
10
2.753751
20
205.040405
30
319.734070
11
2.753751
21
205.040405
31
312.385803
12
-4.689680
22
209.262558
32
312.385803
13
-4.689680
23
209.262558
33
319.734070
0
3DFACE
8
0
70
0
10
-10.469178
20
203.881058
30
306.440918
11
-13.061556
21
207.193176
31
312.385803
12
-4.689680
22
209.262558
32
312.385803
13
-5.295086
23
205.160080
33
306.440918
0
3DFACE
8
0
70
0
10
-17.457758
20
200.044327
30
312.385803
11
-13.061556
21
207.193176
31
312.385803
12
-10.469178
22
203.881058
32
306.440918
13
-13.186192
23
199.462860
33
306.440918
0
3DFACE
8
0
70
0
10
-15.303044
20
192.003860
30
312.385803
11
-17.457758
21
200.044327
31
312.385803
12
-13.186192
22
199.462860
32
306.440918
13
-11.854485
23
194.493622
33
306.440918
0
3DFACE
8
0
70
0
10
-7.859613
20
187.781662
30
312.385803
11
-15.303044
21
192.003860
31
312.385803
12
-11.854485
22
194.493622
32
306.440918
13
-7.254211
23
191.884155
33
306.440918
0
3DFACE
8
0
70
0
10
-7.859613
20
187.781662
30
312.385803
11
-7.254211
21
191.884155
31
306.440918
12
-2.080116
22
193.163177
32
306.440918
13
0.512267
23
189.851089
33
312.385803
0
3DFACE
8
0
70
0
10
0.512267
20
189.851089
30
312.385803
11
-2.080116
21
193.163177
31
306.440918
12
0.636884
22
197.581314
32
306.440918
13
4.908453
23
196.999878
33
312.385803
0
3DFACE
8
0
70
0
10
4.908453
20
196.999878
30
312.385803
11
0.636884
21
197.581314
31
306.440918
12
-0.694809
22
202.550613
32
306.440918
13
2.753751
23
205.040405
33
312.385803
0
3DFACE
8
0
70
0
10
-0.694809
20
202.550613
30
306.440918
11
-5.295086
21
205.160080
31
306.440918
12
-4.689680
22
209.262558
32
312.385803
13
2.753751
23
205.040405
33
312.385803
0
3DFACE
8
0
70
0
10
-6.274652
20
198.522079
30
304.170135
11
-10.469178
21
203.881058
31
306.440918
12
-5.295086
22
205.160080
32
306.440918
13
-5.295086
23
205.160080
33
306.440918
0
3DFACE
8
0
70
0
10
-13.186192
20
199.462860
30
306.440918
11
-10.469178
21
203.881058
31
306.440918
12
-6.274652
22
198.522079
32
304.170135
13
-6.274652
23
198.522079
33
304.170135
0
3DFACE
8
0
70
0
10
-11.854485
20
194.493622
30
306.440918
11
-13.186192
21
199.462860
31
306.440918
12
-6.274652
22
198.522079
32
304.170135
13
-6.274652
23
198.522079
33
304.170135
0
3DFACE
8
0
70
0
10
-7.254211
20
191.884155
30
306.440918
11
-11.854485
21
194.493622
31
306.440918
12
-6.274652
22
198.522079
32
304.170135
13
-6.274652
23
198.522079
33
304.170135
0
3DFACE
8
0
70
0
10
-7.254211
20
191.884155
30
306.440918
11
-6.274652
21
198.522079
31
304.170135
12
-2.080116
22
193.163177
32
306.440918
13
-2.080116
23
193.163177
33
306.440918
0
3DFACE
8
0
70
0
10
-2.080116
20
193.163177
30
306.440918
11
-6.274652
21
198.522079
31
304.170135
12
0.636884
22
197.581314
32
306.440918
13
0.636884
23
197.581314
33
306.440918
0
3DFACE
8
0
70
0
10
0.636884
20
197.581314
30
306.440918
11
-6.274652
21
198.522079
31
304.170135
12
-0.694809
22
202.550613
32
306.440918
13
-0.694809
23
202.550613
33
306.440918
0
3DFACE
8
0
70
0
10
-6.274652
20
198.522079
30
304.170135
11
-5.295086
21
205.160080
31
306.440918
12
-0.694809
22
202.550613
32
306.440918
13
-0.694809
23
202.550613
33
306.440918
0
3DFACE
8
0
70
0
10
-10.916417
20
243.146744
30
257.618439
11
-10.249182
21
247.668274
31
256.071686
12
-13.773561
22
246.797073
32
256.071686
13
-13.773561
23
246.797073
33
256.071686
0
3DFACE
8
0
70
0
10
-10.916417
20
243.146744
30
257.618439
11
-13.773561
21
246.797073
31
256.071686
12
-15.624273
22
243.787567
32
256.071686
13
-15.624273
23
243.787567
33
256.071686
0
3DFACE
8
0
70
0
10
-14.717175
20
240.402710
30
256.071686
11
-10.916417
21
243.146744
31
257.618439
12
-15.624273
22
243.787567
32
256.071686
13
-15.624273
23
243.787567
33
256.071686
0
3DFACE
8
0
70
0
10
-11.583653
20
238.625259
30
256.071686
11
-10.916417
21
243.146744
31
257.618439
12
-14.717175
22
240.402710
32
256.071686
13
-14.717175
23
240.402710
33
256.071686
0
3DFACE
8
0
70
0
10
-11.583653
20
238.625259
30
256.071686
11
-8.059268
21
239.496445
31
256.071686
12
-10.916417
22
243.146744
32
257.618439
13
-10.916417
23
243.146744
33
257.618439
0
3DFACE
8
0
70
0
10
-8.059268
20
239.496445
30
256.071686
11
-6.208556
21
242.505920
31
256.071686
12
-10.916417
22
243.146744
32
257.618439
13
-10.916417
23
243.146744
33
257.618439
0
3DFACE
8
0
70
0
10
-10.916417
20
243.146744
30
257.618439
11
-6.208556
21
242.505920
31
256.071686
12
-7.115657
22
245.890808
32
256.071686
13
-7.115657
23
245.890808
33
256.071686
0
3DFACE
8
0
70
0
10
-10.916417
20
243.146744
30
257.618439
11
-7.115657
21
245.890808
31
256.071686
12
-10.249182
22
247.668274
32
256.071686
13
-10.249182
23
247.668274
33
256.071686
0
3DFACE
8
0
70
0
10
-13.773561
20
246.797073
30
256.071686
11
-10.249182
21
247.668274
31
256.071686
12
-9.836796
22
250.462753
32
252.022263
13
-15.539382
23
249.053116
33
252.022263
0
3DFACE
8
0
70
0
10
-15.624273
20
243.787567
30
256.071686
11
-13.773561
21
246.797073
31
256.071686
12
-15.539382
22
249.053116
32
252.022263
13
-18.533888
23
244.183624
33
252.022263
0
3DFACE
8
0
70
0
10
-17.066185
20
238.706787
30
252.022263
11
-14.717175
21
240.402710
31
256.071686
12
-15.624273
22
243.787567
32
256.071686
13
-18.533888
23
244.183624
33
252.022263
0
3DFACE
8
0
70
0
10
-11.996027
20
235.830841
30
252.022263
11
-11.583653
21
238.625259
31
256.071686
12
-14.717175
22
240.402710
32
256.071686
13
-17.066185
23
238.706787
33
252.022263
0
3DFACE
8
0
70
0
10
-11.996027
20
235.830841
30
252.022263
11
-6.293440
21
237.240402
31
252.022263
12
-8.059268
22
239.496445
32
256.071686
13
-11.583653
23
238.625259
33
256.071686
0
3DFACE
8
0
70
0
10
-6.293440
20
237.240402
30
252.022263
11
-3.298937
21
242.109863
31
252.022263
12
-6.208556
22
242.505920
32
256.071686
13
-8.059268
23
239.496445
33
256.071686
0
3DFACE
8
0
70
0
10
-6.208556
20
242.505920
30
256.071686
11
-3.298937
21
242.109863
31
252.022263
12
-4.766635
22
247.586761
32
252.022263
13
-7.115657
23
245.890808
33
256.071686
0
3DFACE
8
0
70
0
10
-7.115657
20
245.890808
30
256.071686
11
-4.766635
21
247.586761
31
252.022263
12
-9.836796
22
250.462753
32
252.022263
13
-10.249182
23
247.668274
33
256.071686
0
3DFACE
8
0
70
0
10
-15.539382
20
249.053116
30
252.022263
11
-9.836796
21
250.462753
31
252.022263
12
-9.836796
22
250.462753
32
247.016937
13
-15.539382
23
249.053116
33
247.016937
0
3DFACE
8
0
70
0
10
-18.533888
20
244.183624
30
252.022263
11
-15.539382
21
249.053116
31
252.022263
12
-15.539382
22
249.053116
32
247.016937
13
-18.533888
23
244.183624
33
247.016937
0
3DFACE
8
0
70
0
10
-17.066185
20
238.706787
30
252.022263
11
-18.533888
21
244.183624
31
252.022263
12
-18.533888
22
244.183624
32
247.016937
13
-17.066185
23
238.706787
33
247.016937
0
3DFACE
8
0
70
0
10
-11.996027
20
235.830841
30
252.022263
11
-17.066185
21
238.706787
31
252.022263
12
-17.066185
22
238.706787
32
247.016937
13
-11.996027
23
235.830841
33
247.016937
0
3DFACE
8
0
70
0
10
-11.996027
20
235.830841
30
252.022263
11
-11.996027
21
235.830841
31
247.016937
12
-6.293440
22
237.240402
32
247.016937
13
-6.293440
23
237.240402
33
252.022263
0
3DFACE
8
0
70
0
10
-6.293440
20
237.240402
30
252.022263
11
-6.293440
21
237.240402
31
247.016937
12
-3.298937
22
242.109863
32
247.016937
13
-3.298937
23
242.109863
33
252.022263
0
3DFACE
8
0
70
0
10
-3.298937
20
242.109863
30
252.022263
11
-3.298937
21
242.109863
31
247.016937
12
-4.766635
22
247.586761
32
247.016937
13
-4.766635
23
247.586761
33
252.022263
0
3DFACE
8
0
70
0
10
-4.766635
20
247.586761
30
252.022263
11
-4.766635
21
247.586761
31
247.016937
12
-9.836796
22
250.462753
32
247.016937
13
-9.836796
23
250.462753
33
252.022263
0
3DFACE
8
0
70
0
10
-13.773561
20
246.797073
30
242.967499
11
-15.539382
21
249.053116
31
247.016937
12
-9.836796
22
250.462753
32
247.016937
13
-10.249182
23
247.668274
33
242.967499
0
3DFACE
8
0
70
0
10
-18.533888
20
244.183624
30
247.016937
11
-15.539382
21
249.053116
31
247.016937
12
-13.773561
22
246.797073
32
242.967499
13
-15.624273
23
243.787567
33
242.967499
0
3DFACE
8
0
70
0
10
-17.066185
20
238.706787
30
247.016937
11
-18.533888
21
244.183624
31
247.016937
12
-15.624273
22
243.787567
32
242.967499
13
-14.717175
23
240.402710
33
242.967499
0
3DFACE
8
0
70
0
10
-11.996027
20
235.830841
30
247.016937
11
-17.066185
21
238.706787
31
247.016937
12
-14.717175
22
240.402710
32
242.967499
13
-11.583653
23
238.625259
33
242.967499
0
3DFACE
8
0
70
0
10
-11.996027
20
235.830841
30
247.016937
11
-11.583653
21
238.625259
31
242.967499
12
-8.059268
22
239.496445
32
242.967499
13
-6.293440
23
237.240402
33
247.016937
0
3DFACE
8
0
70
0
10
-6.293440
20
237.240402
30
247.016937
11
-8.059268
21
239.496445
31
242.967499
12
-6.208556
22
242.505920
32
242.967499
13
-3.298937
23
242.109863
33
247.016937
0
3DFACE
8
0
70
0
10
-3.298937
20
242.109863
30
247.016937
11
-6.208556
21
242.505920
31
242.967499
12
-7.115657
22
245.890808
32
242.967499
13
-4.766635
23
247.586761
33
247.016937
0
3DFACE
8
0
70
0
10
-7.115657
20
245.890808
30
242.967499
11
-10.249182
21
247.668274
31
242.967499
12
-9.836796
22
250.462753
32
247.016937
13
-4.766635
23
247.586761
33
247.016937
0
3DFACE
8
0
70
0
10
-10.916417
20
243.146744
30
241.420761
11
-13.773561
21
246.797073
31
242.967499
12
-10.249182
22
247.668274
32
242.967499
13
-10.249182
23
247.668274
33
242.967499
0
3DFACE
8
0
70
0
10
-15.624273
20
243.787567
30
242.967499
11
-13.773561
21
246.797073
31
242.967499
12
-10.916417
22
243.146744
32
241.420761
13
-10.916417
23
243.146744
33
241.420761
0
3DFACE
8
0
70
0
10
-14.717175
20
240.402710
30
242.967499
11
-15.624273
21
243.787567
31
242.967499
12
-10.916417
22
243.146744
32
241.420761
13
-10.916417
23
243.146744
33
241.420761
0
3DFACE
8
0
70
0
10
-11.583653
20
238.625259
30
242.967499
11
-14.717175
21
240.402710
31
242.967499
12
-10.916417
22
243.146744
32
241.420761
13
-10.916417
23
243.146744
33
241.420761
0
3DFACE
8
0
70
0
10
-11.583653
20
238.625259
30
242.967499
11
-10.916417
21
243.146744
31
241.420761
12
-8.059268
22
239.496445
32
242.967499
13
-8.059268
23
239.496445
33
242.967499
0
3DFACE
8
0
70
0
10
-8.059268
20
239.496445
30
242.967499
11
-10.916417
21
243.146744
31
241.420761
12
-6.208556
22
242.505920
32
242.967499
13
-6.208556
23
242.505920
33
242.967499
0
3DFACE
8
0
70
0
10
-6.208556
20
242.505920
30
242.967499
11
-10.916417
21
243.146744
31
241.420761
12
-7.115657
22
245.890808
32
242.967499
13
-7.115657
23
245.890808
33
242.967499
0
3DFACE
8
0
70
0
10
-10.916417
20
243.146744
30
241.420761
11
-10.249182
21
247.668274
31
242.967499
12
-7.115657
22
245.890808
32
242.967499
13
-7.115657
23
245.890808
33
242.967499
0
3DFACE
8
0
70
0
10
20.673706
20
182.946960
30
272.063721
11
25.402718
21
190.146103
31
238.598495
12
28.032244
22
240.462494
32
238.598495
13
21.813478
23
216.752518
33
267.929321
0
3DFACE
8
0
70
0
10
-35.011215
20
190.526718
30
272.063721
11
-26.325207
21
223.305084
31
267.929321
12
-25.439102
22
247.740921
32
238.598495
13
-37.471073
23
198.704391
33
238.598495
0
3DFACE
8
0
70
0
10
83.527428
20
-33.322495
30
-59.684685
11
60.132076
21
17.407883
31
-59.069435
12
66.969292
22
17.873175
32
-54.640091
13
90.061073
23
-30.843624
33
-59.684685
0
3DFACE
8
0
70
0
10
60.132076
20
17.407883
30
-59.069435
11
83.527428
21
-33.322495
31
-59.684685
12
77.623146
22
-35.710243
32
-59.684685
13
54.279354
23
13.411133
33
-55.373615
0
3DFACE
8
0
70
0
10
77.623146
20
-35.710243
30
-59.684685
11
79.808533
21
-34.889229
31
-59.684685
12
56.686234
22
12.779916
32
-52.160191
13
54.279354
23
13.411133
33
-55.373615
0
3DFACE
8
0
70
0
10
66.969292
20
17.873175
30
-54.640091
11
81.640366
21
13.121029
31
3.309056
12
99.451698
22
-30.182087
32
-9.499499
13
90.061073
23
-30.843624
33
-59.684685
0
3DFACE
8
0
70
0
10
79.808533
20
-34.889229
30
-59.684685
11
84.225594
21
-35.019894
31
-9.499499
12
57.257965
22
2.912426
32
8.140889
13
56.686234
23
12.779916
33
-52.160191
0
3DFACE
8
0
70
0
10
51.127068
20
87.305290
30
25.251894
11
31.099630
21
39.706406
31
25.251894
12
57.257965
22
2.912426
32
8.140889
13
81.640366
23
13.121029
33
3.309056
0
3DFACE
8
0
70
0
10
-47.451603
20
3.199543
30
-59.069435
11
-40.422401
21
1.534076
31
-55.373615
12
-43.365952
22
-52.828693
32
-59.684685
13
-49.822945
23
-52.690247
33
-59.684685
0
3DFACE
8
0
70
0
10
-40.422401
20
1.534076
30
-55.373615
11
-38.924927
21
38.065998
31
-38.452492
12
-39.849220
22
30.097185
32
-24.624474
13
-42.435757
23
0.085992
33
-52.160191
0
3DFACE
8
0
70
0
10
-54.041920
20
1.203531
30
-54.640091
11
-56.905209
21
-52.690247
31
-59.684685
12
-65.965416
22
-55.410606
32
-9.499499
13
-65.965416
23
-8.471428
33
3.309056
0
3DFACE
8
0
70
0
10
-45.731701
20
-52.836304
30
-59.684685
11
-42.435757
21
0.085992
31
-52.160191
12
-39.166248
22
-9.369595
32
8.140889
13
-49.822945
23
-54.530167
33
-9.499499
0
3DFACE
8
0
70
0
10
-65.965416
20
-8.471428
30
3.309056
11
-65.965416
21
-55.410606
31
-9.499499
12
-49.822945
22
-54.530167
32
-9.499499
13
-39.166248
23
-9.369595
33
8.140889
0
3DFACE
8
0
70
0
10
36.341682
20
94.386765
30
-55.314205
11
58.802338
21
92.042221
31
-25.469357
12
66.969292
22
17.873175
32
-54.640091
13
60.132076
23
17.407883
33
-59.069435
0
3DFACE
8
0
70
0
10
36.341682
20
94.386765
30
-55.314205
11
60.132076
21
17.407883
31
-59.069435
12
54.279354
22
13.411133
32
-55.373615
13
39.332661
23
44.977512
33
-38.452492
0
3DFACE
8
0
70
0
10
39.332661
20
44.977512
30
-38.452492
11
54.279354
21
13.411133
31
-55.373615
12
56.686234
22
12.779916
32
-52.160191
13
44.203262
23
38.534069
33
-24.624474
0
3DFACE
8
0
70
0
10
51.127068
20
87.305290
30
25.251894
11
81.640366
21
13.121029
31
3.309056
12
66.969292
22
17.873175
32
-54.640091
13
58.802338
23
92.042221
33
-25.469357
0
3DFACE
8
0
70
0
10
57.257965
20
2.912426
30
8.140889
11
31.099630
21
39.706406
31
25.251894
12
44.203262
22
38.534069
32
-24.624474
13
56.686234
23
12.779916
33
-52.160191
0
3DFACE
8
0
70
0
10
81.640366
20
13.121029
30
3.309056
11
57.257965
21
2.912426
31
8.140889
12
84.225594
22
-35.019894
32
-9.499499
13
99.451698
23
-30.182087
33
-9.499499
0
3DFACE
8
0
70
0
10
-51.209873
20
82.469337
30
-55.314205
11
-47.451603
21
3.199543
31
-59.069435
12
-54.041920
22
1.203531
32
-54.640091
13
-74.988976
23
73.653053
33
-25.469357
0
3DFACE
8
0
70
0
10
-49.822945
20
-52.690247
30
-59.684685
11
-56.905209
21
-52.690247
31
-59.684685
12
-54.041920
22
1.203531
32
-54.640091
13
-47.451603
23
3.199543
33
-59.069435
0
3DFACE
8
0
70
0
10
-51.209873
20
82.469337
30
-55.314205
11
-38.924927
21
38.065998
31
-38.452492
12
-40.422401
22
1.534076
32
-55.373615
13
-47.451603
23
3.199543
33
-59.069435
0
3DFACE
8
0
70
0
10
-43.365952
20
-52.828693
30
-59.684685
11
-40.422401
21
1.534076
31
-55.373615
12
-42.435757
22
0.085992
32
-52.160191
13
-45.731701
23
-52.836304
33
-59.684685
0
3DFACE
8
0
70
0
10
-71.186226
20
69.480820
30
25.251894
11
-74.988976
21
73.653053
31
-25.469357
12
-54.041920
22
1.203531
32
-54.640091
13
-65.965416
23
-8.471428
33
3.309056
0
3DFACE
8
0
70
0
10
-39.166248
20
-9.369595
30
8.140889
11
-42.435757
21
0.085992
31
-52.160191
12
-39.849220
22
30.097185
32
-24.624474
13
-28.986086
23
37.387501
33
25.251894
0
3DFACE
8
0
70
0
10
-71.186226
20
69.480820
30
25.251894
11
-65.965416
21
-8.471428
31
3.309056
12
-39.166248
22
-9.369595
32
8.140889
13
-28.986086
23
37.387501
33
25.251894
0
3DFACE
8
0
70
0
10
22.676928
20
166.700424
30
159.654953
11
-8.783582
21
175.794037
31
154.689255
12
-0.514437
22
231.829514
32
186.821182
13
19.966507
23
228.670944
33
194.660065
0
3DFACE
8
0
70
0
10
22.676928
20
166.700424
30
159.654953
11
19.966507
21
228.670944
31
194.660065
12
18.939232
22
200.574478
32
194.798737
13
22.712809
23
148.713745
33
178.213867
0
3DFACE
8
0
70
0
10
22.712809
20
148.713745
30
178.213867
11
18.939232
21
200.574478
31
194.798737
12
-10.243733
22
165.899384
32
203.122940
13
-14.224879
23
138.921326
33
200.507736
0
3DFACE
8
0
70
0
10
-41.636120
20
175.454620
30
159.654953
11
-21.102636
21
234.261246
31
194.660065
12
-0.514437
22
231.829514
32
186.821182
13
-8.783582
23
175.794037
33
154.689255
0
3DFACE
8
0
70
0
10
-41.636120
20
175.454620
30
159.654953
11
-46.874634
21
158.185898
31
178.213867
12
-28.244921
22
206.997101
32
194.798737
13
-21.102636
23
234.261246
33
194.660065
0
3DFACE
8
0
70
0
10
-46.874634
20
158.185898
30
178.213867
11
-14.224879
21
138.921326
31
200.507736
12
-10.243733
22
165.899384
32
203.122940
13
-28.244921
23
206.997101
33
194.798737
0
3DFACE
8
0
70
0
10
50.304691
20
80.832954
30
143.284363
11
31.326399
21
122.232803
31
127.333244
12
25.100758
22
140.355331
32
144.517899
13
31.657820
23
122.444565
33
165.703949
0
3DFACE
8
0
70
0
10
-12.565249
20
150.167725
30
139.682144
11
-51.586868
21
150.793915
31
144.517899
12
-41.636120
22
175.454620
32
159.654953
13
-8.783582
23
175.794037
33
154.689255
0
3DFACE
8
0
70
0
10
-59.183697
20
50.816563
30
146.562347
11
-54.828377
21
110.672173
31
165.703949
12
-51.586868
22
150.793915
32
144.517899
13
-54.448746
23
110.557198
33
127.333244
0
3DFACE
8
0
70
0
10
-59.183697
20
50.816563
30
146.562347
11
-2.521664
21
55.139206
31
188.225204
12
-8.380556
22
94.841705
32
199.064621
13
-54.828377
23
110.672173
33
165.703949
0
3DFACE
8
0
70
0
10
-12.565249
20
150.167725
30
139.682144
11
-8.783582
21
175.794037
31
154.689255
12
22.676928
22
166.700424
32
159.654953
13
25.100758
23
140.355331
33
144.517899
0
3DFACE
8
0
70
0
10
31.326399
20
122.232803
30
127.333244
11
-13.874362
21
132.070221
31
128.999619
12
-12.565249
22
150.167725
32
139.682144
13
25.100758
23
140.355331
33
144.517899
0
3DFACE
8
0
70
0
10
25.100758
20
140.355331
30
144.517899
11
22.676928
21
166.700424
31
159.654953
12
22.712809
22
148.713745
32
178.213867
13
31.657820
23
122.444565
33
165.703949
0
3DFACE
8
0
70
0
10
31.657820
20
122.444565
30
165.703949
11
22.712809
21
148.713745
31
178.213867
12
-14.224879
22
138.921326
32
200.507736
13
-8.380556
23
94.841705
33
199.064621
0
3DFACE
8
0
70
0
10
50.304691
20
80.832954
30
143.284363
11
31.657820
21
122.444565
31
165.703949
12
-8.380556
22
94.841705
32
199.064621
13
-2.521664
23
55.139206
33
188.225204
0
3DFACE
8
0
70
0
10
-54.448746
20
110.557198
30
127.333244
11
-51.586868
21
150.793915
31
144.517899
12
-12.565249
22
150.167725
32
139.682144
13
-13.874362
23
132.070221
33
128.999619
0
3DFACE
8
0
70
0
10
-54.828377
20
110.672173
30
165.703949
11
-46.874634
21
158.185898
31
178.213867
12
-41.636120
22
175.454620
32
159.654953
13
-51.586868
23
150.793915
33
144.517899
0
3DFACE
8
0
70
0
10
-54.828377
20
110.672173
30
165.703949
11
-8.380556
21
94.841705
31
199.064621
12
-14.224879
22
138.921326
32
200.507736
13
-46.874634
23
158.185898
33
178.213867
0
3DFACE
8
0
70
0
10
8.748369
20
246.749283
30
204.663605
11
19.841070
21
242.027405
31
204.608795
12
64.520111
22
266.612213
32
187.566849
13
56.490555
23
268.344574
33
187.968506
0
3DFACE
8
0
70
0
10
-52.924118
20
282.598633
30
187.566849
11
-17.117743
21
247.058243
31
204.608795
12
-5.095731
22
248.633743
32
204.663605
13
-44.709583
23
282.119812
33
187.968506
0
ENDSEC
0
EOF
