0
SECTION
2
HEADER
999
DXF File Generated by LightWave 3D(TM)
0
ENDSEC
0
SECTION
2
TABLES
0
ENDSEC
0
SECTION
2
BLOCKS
0
ENDSEC
0
SECTION
2
ENTITIES
0
3DFACE
8
0
70
0
10
0.000000
20
-2.395577
30
144.522125
11
25.149456
21
4.355130
31
130.849121
12
56.007500
22
57.224762
32
144.522125
13
0.000000
23
53.775246
33
185.605026
0
3DFACE
8
0
70
0
10
0.059748
20
183.926544
30
312.127899
11
9.505079
21
187.338043
31
311.812378
12
8.240448
22
197.704132
32
311.801697
13
0.080817
23
199.269424
33
311.965851
0
3DFACE
8
0
70
0
10
-0.072527
20
38.273743
30
-49.440407
11
-0.101490
21
90.820663
31
-71.272652
12
43.575436
22
90.351570
32
-54.108799
13
37.992031
23
43.181110
33
-38.825756
0
3DFACE
8
0
70
0
10
-0.129097
20
113.056747
30
-92.853470
11
-0.129058
21
123.938042
31
-92.520592
12
2.721561
22
123.108810
32
-92.535385
13
3.193774
23
114.266602
33
-92.806458
0
3DFACE
8
0
70
0
10
49.139309
20
123.363693
30
12.262384
11
0.001363
21
138.105072
31
12.730928
12
0.000000
22
130.289948
32
94.001030
13
45.256149
23
119.675636
33
94.242317
0
3DFACE
8
0
70
0
10
0.000000
20
130.289948
30
94.001030
11
0.000000
21
133.626480
31
127.203873
12
42.762276
22
117.356255
32
125.560699
13
45.256149
23
119.675636
33
94.242317
0
3DFACE
8
0
70
0
10
28.428034
20
39.377960
30
24.900375
11
65.076958
21
77.752739
31
24.743685
12
56.462593
22
57.181293
32
95.192451
13
24.403732
23
8.625516
33
96.139381
0
3DFACE
8
0
70
0
10
65.701469
20
-150.652237
30
96.260597
11
46.467930
21
-150.652237
31
150.174438
12
29.768282
22
-150.652237
32
134.909973
13
35.912998
23
-150.652237
33
97.465744
0
3DFACE
8
0
70
0
10
65.076958
20
77.752739
30
24.743685
11
49.139309
21
123.363693
31
12.262384
12
45.256149
22
119.675636
32
94.242317
13
56.462593
23
57.181293
33
95.192451
0
3DFACE
8
0
70
0
10
56.462593
20
57.181293
30
95.192451
11
45.256149
21
119.675636
31
94.242317
12
42.762276
22
117.356255
32
125.560699
13
56.007500
23
57.224762
33
144.522125
0
3DFACE
8
0
70
0
10
0.000000
20
31.472795
30
24.900375
11
28.428034
21
39.377960
31
24.900375
12
24.403732
22
8.625516
32
96.139381
13
0.000000
23
-1.747031
33
96.375175
0
3DFACE
8
0
70
0
10
0.000000
20
-1.747031
30
96.375175
11
24.403732
21
8.625516
31
96.139381
12
25.149456
22
4.355130
32
130.849121
13
0.000000
23
-2.395577
33
144.522125
0
3DFACE
8
0
70
0
10
-0.044839
20
128.845688
30
-24.672165
11
39.927635
21
119.905708
31
-24.765415
12
37.976963
22
112.742249
32
-49.012287
13
-0.087591
23
118.218811
33
-59.339561
0
3DFACE
8
0
70
0
10
0.001363
20
138.105072
30
12.730928
11
49.139309
21
123.363693
31
12.262384
12
39.927635
22
119.905708
32
-24.765415
13
-0.044839
23
128.845688
33
-24.672165
0
3DFACE
8
0
70
0
10
63.736664
20
-149.409836
30
-44.067482
11
37.906509
21
-149.895355
31
-44.050503
12
32.437550
22
-149.870056
32
-44.575729
13
47.364376
23
-149.409836
33
-44.790760
0
3DFACE
8
0
70
0
10
84.681435
20
-150.878860
30
25.538858
11
47.364376
21
-151.220337
31
25.538858
12
37.906509
22
-149.895355
32
-44.050503
13
63.736664
23
-149.409836
33
-44.067482
0
3DFACE
8
0
70
0
10
73.914429
20
80.884048
30
-25.059174
11
43.575436
21
90.351570
31
-54.108799
12
37.976963
22
112.742249
32
-49.012287
13
39.927635
23
119.905708
33
-24.765415
0
3DFACE
8
0
70
0
10
49.139309
20
123.363693
30
12.262384
11
65.076958
21
77.752739
31
24.743685
12
73.914429
22
80.884048
32
-25.059174
13
39.927635
23
119.905708
33
-24.765415
0
3DFACE
8
0
70
0
10
0.000000
20
24.279219
30
-24.072889
11
-0.072527
21
38.273743
31
-49.440407
12
37.992031
22
43.181110
32
-38.825756
13
40.097710
23
33.464478
33
-24.281689
0
3DFACE
8
0
70
0
10
28.428034
20
39.377960
30
24.900375
11
0.000000
21
31.472795
31
24.900375
12
0.000000
22
24.279219
32
-24.072889
13
40.097710
23
33.464478
33
-24.281689
0
3DFACE
8
0
70
0
10
58.128815
20
-80.565407
30
-71.453110
11
48.383411
21
-80.565407
31
-72.641045
12
49.129383
22
-50.057621
32
-58.853844
13
56.113060
23
-50.057621
33
-58.853844
0
3DFACE
8
0
70
0
10
39.498394
20
-80.916351
30
-72.287872
11
42.762276
21
-50.199734
31
-58.853844
12
49.129383
22
-50.057621
32
-58.853844
13
48.383411
23
-80.565407
33
-72.641045
0
3DFACE
8
0
70
0
10
42.753723
20
-80.935608
30
-71.425224
11
45.095093
21
-50.207546
31
-58.853844
12
42.762276
22
-50.199734
32
-58.853844
13
39.498394
23
-80.916351
33
-72.287872
0
3DFACE
8
0
70
0
10
70.595932
20
-80.614906
30
-38.637787
11
58.128815
21
-80.565407
31
-71.453110
12
56.113060
22
-50.057621
32
-58.853844
13
65.047142
23
-52.850094
33
-9.367262
0
3DFACE
8
0
70
0
10
48.383411
20
-80.981804
30
-38.637787
11
49.129383
21
-51.946312
31
-9.367262
12
45.095093
22
-50.207546
32
-58.853844
13
42.753723
23
-80.935608
33
-71.425224
0
3DFACE
8
0
70
0
10
48.383411
20
-80.981804
30
-38.637787
11
70.595932
21
-80.614906
31
-38.637787
12
65.047142
22
-52.850094
32
-9.367262
13
49.129383
23
-51.946312
33
-9.367262
0
3DFACE
8
0
70
0
10
58.128815
20
-107.720345
30
-48.281639
11
48.383411
21
-107.720345
31
-48.430130
12
48.383411
22
-80.565407
32
-72.641045
13
58.128815
23
-80.565407
33
-71.453110
0
3DFACE
8
0
70
0
10
39.498394
20
-108.109566
30
-48.385990
11
39.498394
21
-80.916351
31
-72.287872
12
48.383411
22
-80.565407
32
-72.641045
13
48.383411
23
-107.720345
33
-48.430130
0
3DFACE
8
0
70
0
10
42.753723
20
-108.130936
30
-48.278152
11
42.753723
21
-80.935608
31
-71.425224
12
39.498394
22
-80.916351
32
-72.287872
13
39.498394
23
-108.109566
33
-48.385990
0
3DFACE
8
0
70
0
10
70.595932
20
-108.520134
30
-17.704567
11
58.128815
21
-107.720345
31
-48.281639
12
58.128815
22
-80.565407
32
-71.453110
13
70.595932
23
-80.614906
33
-38.637787
0
3DFACE
8
0
70
0
10
48.383411
20
-108.887032
30
-17.704567
11
48.383411
21
-80.981804
31
-38.637787
12
42.753723
22
-80.935608
32
-71.425224
13
42.753723
23
-108.130936
33
-48.278152
0
3DFACE
8
0
70
0
10
48.383411
20
-108.887032
30
-17.704567
11
70.595932
21
-108.520134
31
-17.704567
12
70.595932
22
-80.614906
32
-38.637787
13
48.383411
23
-80.981804
33
-38.637787
0
3DFACE
8
0
70
0
10
63.736664
20
-149.409836
30
-44.067482
11
47.364376
21
-149.409836
31
-44.790760
12
48.383411
22
-107.720345
32
-48.430130
13
58.128815
23
-107.720345
33
-48.281639
0
3DFACE
8
0
70
0
10
32.437550
20
-149.870056
30
-44.575729
11
39.498394
21
-108.109566
31
-48.385990
12
48.383411
22
-107.720345
32
-48.430130
13
47.364376
23
-149.409836
33
-44.790760
0
3DFACE
8
0
70
0
10
37.906509
20
-149.895355
30
-44.050503
11
42.753723
21
-108.130936
31
-48.278152
12
39.498394
22
-108.109566
32
-48.385990
13
32.437550
23
-149.870056
33
-44.575729
0
3DFACE
8
0
70
0
10
84.681435
20
-150.878860
30
25.538858
11
63.736664
21
-149.409836
31
-44.067482
12
58.128815
22
-107.720345
32
-48.281639
13
70.595932
23
-108.520134
33
-17.704567
0
3DFACE
8
0
70
0
10
47.364376
20
-151.220337
30
25.538858
11
48.383411
21
-108.887032
31
-17.704567
12
42.753723
22
-108.130936
32
-48.278152
13
37.906509
23
-149.895355
33
-44.050503
0
3DFACE
8
0
70
0
10
47.364376
20
-151.220337
30
25.538858
11
84.681435
21
-150.878860
31
25.538858
12
70.595932
22
-108.520134
32
-17.704567
13
48.383411
23
-108.887032
33
-17.704567
0
3DFACE
8
0
70
0
10
45.105083
20
-60.412811
30
114.227348
11
24.403732
21
8.625516
31
96.139381
12
56.462593
22
57.181293
32
95.192451
13
56.462593
23
-60.412811
33
113.801231
0
3DFACE
8
0
70
0
10
45.105083
20
-60.412811
30
114.227348
11
42.762276
21
-60.412811
31
127.466949
12
25.149456
22
4.355130
32
130.849121
13
24.403732
23
8.625516
33
96.139381
0
3DFACE
8
0
70
0
10
42.762276
20
-60.412811
30
127.466949
11
49.129383
21
-60.412811
31
132.864197
12
56.007500
22
57.224762
32
144.522125
13
25.149456
23
4.355130
33
130.849121
0
3DFACE
8
0
70
0
10
49.129383
20
-60.412811
30
132.864197
11
56.462593
21
-60.412811
31
113.801231
12
56.462593
22
57.181293
32
95.192451
13
56.007500
23
57.224762
33
144.522125
0
3DFACE
8
0
70
0
10
39.247944
20
-96.149826
30
97.626579
11
45.105083
21
-60.412811
31
114.227348
12
56.462593
22
-60.412811
32
113.801231
13
57.192806
23
-96.149826
33
96.953308
0
3DFACE
8
0
70
0
10
35.546310
20
-96.149826
30
118.545135
11
42.762276
21
-60.412811
31
127.466949
12
45.105083
22
-60.412811
32
114.227348
13
39.247944
23
-96.149826
33
97.626579
0
3DFACE
8
0
70
0
10
45.606339
20
-96.149826
30
127.072777
11
49.129383
21
-60.412811
31
132.864197
12
42.762276
22
-60.412811
32
127.466949
13
35.546310
23
-96.149826
33
118.545135
0
3DFACE
8
0
70
0
10
45.606339
20
-96.149826
30
127.072777
11
57.192806
21
-96.149826
31
96.953308
12
56.462593
22
-60.412811
32
113.801231
13
49.129383
23
-60.412811
33
132.864197
0
3DFACE
8
0
70
0
10
35.912998
20
-150.652237
30
97.465744
11
39.247944
21
-96.149826
31
97.626579
12
57.192806
22
-96.149826
32
96.953308
13
65.701469
23
-150.652237
33
96.260597
0
3DFACE
8
0
70
0
10
29.768282
20
-150.652237
30
134.909973
11
35.546310
21
-96.149826
31
118.545135
12
39.247944
22
-96.149826
32
97.626579
13
35.912998
23
-150.652237
33
97.465744
0
3DFACE
8
0
70
0
10
46.467930
20
-150.652237
30
150.174438
11
45.606339
21
-96.149826
31
127.072777
12
35.546310
22
-96.149826
32
118.545135
13
29.768282
23
-150.652237
33
134.909973
0
3DFACE
8
0
70
0
10
46.467930
20
-150.652237
30
150.174438
11
65.701469
21
-150.652237
31
96.260597
12
57.192806
22
-96.149826
32
96.953308
13
45.606339
23
-96.149826
33
127.072777
0
3DFACE
8
0
70
0
10
0.050042
20
172.914551
30
219.963547
11
0.043468
21
166.967941
31
204.304321
12
23.631657
22
206.325912
32
196.603149
13
35.761612
23
196.492294
33
215.977371
0
3DFACE
8
0
70
0
10
8.240448
20
197.704132
30
311.801697
11
24.131779
21
222.255219
31
268.872955
12
0.132726
22
227.479858
32
269.085236
13
0.080817
23
199.269424
33
311.965851
0
3DFACE
8
0
70
0
10
9.505079
20
187.338043
30
311.812378
11
27.834194
21
187.668045
31
272.507538
12
24.131779
22
222.255219
32
268.872955
13
8.240448
23
197.704132
33
311.801697
0
3DFACE
8
0
70
0
10
0.059748
20
183.926544
30
312.127899
11
0.052119
21
176.304214
31
272.721863
12
27.834194
22
187.668045
32
272.507538
13
9.505079
23
187.338043
33
311.812378
0
3DFACE
8
0
70
0
10
49.411549
20
270.928955
30
199.156876
11
50.226639
21
254.512985
31
198.974777
12
46.519901
22
254.832458
32
193.954941
13
46.157459
23
260.455017
33
194.010559
0
3DFACE
8
0
70
0
10
33.618900
20
222.932938
30
216.248657
11
35.761612
21
196.492294
31
215.977371
12
23.631657
22
206.325912
32
196.603149
13
21.820717
23
223.702301
33
196.739944
0
3DFACE
8
0
70
0
10
46.157459
20
260.455017
30
194.010559
11
20.641865
21
235.037033
31
196.828415
12
30.951923
22
256.025970
32
216.583435
13
49.411549
23
270.928955
33
199.156876
0
3DFACE
8
0
70
0
10
46.519901
20
254.832458
30
193.954941
11
21.820717
21
223.702301
31
196.739944
12
20.641865
22
235.037033
32
196.828415
13
46.157459
23
260.455017
33
194.010559
0
3DFACE
8
0
70
0
10
50.226639
20
254.512985
30
198.974777
11
33.618900
21
222.932938
31
216.248657
12
21.820717
22
223.702301
32
196.739944
13
46.519901
23
254.832458
33
193.954941
0
3DFACE
8
0
70
0
10
50.226639
20
254.512985
30
198.974777
11
49.411549
21
270.928955
31
199.156876
12
30.951923
22
256.025970
32
216.583435
13
33.618900
23
222.932938
33
216.248657
0
3DFACE
8
0
70
0
10
18.622120
20
248.481323
30
206.801102
11
7.099710
21
251.772583
31
206.898117
12
0.224236
22
265.029144
32
216.843307
13
30.951923
23
256.025970
33
216.583435
0
3DFACE
8
0
70
0
10
7.897218
20
240.997772
30
196.365631
11
0.159488
21
235.552734
31
189.112534
12
0.224236
22
265.029144
32
216.843307
13
7.099710
23
251.772583
33
206.898117
0
3DFACE
8
0
70
0
10
15.013423
20
240.808105
30
199.297760
11
20.641865
21
235.037033
31
196.828415
12
0.159488
22
235.552734
32
189.112534
13
7.897218
23
240.997772
33
196.365631
0
3DFACE
8
0
70
0
10
15.013423
20
240.808105
30
199.297760
11
18.622120
21
248.481323
31
206.801102
12
30.951923
22
256.025970
32
216.583435
13
20.641865
23
235.037033
33
196.828415
0
3DFACE
8
0
70
0
10
50.259056
20
320.317963
30
161.057587
11
52.842468
21
317.449280
31
160.195389
12
51.608246
22
315.090118
32
160.081543
13
47.031185
23
317.183014
33
161.534637
0
3DFACE
8
0
70
0
10
7.099710
20
251.772583
30
206.898117
11
50.764950
21
280.441376
31
190.790085
12
52.508068
22
270.669678
32
184.676605
13
7.897218
23
240.997772
33
196.365631
0
3DFACE
8
0
70
0
10
57.509144
20
272.610504
30
185.897919
11
52.508068
21
270.669678
31
184.676605
12
59.979404
22
278.449951
32
180.481262
13
64.983475
23
282.109528
33
180.553314
0
3DFACE
8
0
70
0
10
50.764950
20
280.441376
30
190.790085
11
57.413879
21
287.361176
31
185.414047
12
59.979404
22
278.449951
32
180.481262
13
52.508068
23
270.669678
33
184.676605
0
3DFACE
8
0
70
0
10
89.320915
20
286.106110
30
157.597595
11
89.131714
21
284.603760
31
155.024887
12
88.611931
22
289.174713
32
154.951248
13
88.346931
23
290.685730
33
157.232773
0
3DFACE
8
0
70
0
10
18.622120
20
248.481323
30
206.801102
11
15.013423
21
240.808105
31
199.297760
12
57.509144
22
272.610504
32
185.897919
13
58.867928
23
279.775391
33
190.384140
0
3DFACE
8
0
70
0
10
58.867928
20
279.775391
30
190.384140
11
65.627106
21
289.324036
31
183.669510
12
57.413879
22
287.361176
32
185.414047
13
50.764950
23
280.441376
33
190.790085
0
3DFACE
8
0
70
0
10
15.013423
20
240.808105
30
199.297760
11
7.897218
21
240.997772
31
196.365631
12
52.508068
22
270.669678
32
184.676605
13
57.509144
23
272.610504
33
185.897919
0
3DFACE
8
0
70
0
10
56.090675
20
305.379852
30
172.433685
11
55.422276
21
311.837341
31
167.907928
12
51.919472
22
307.079620
32
169.121841
13
51.578548
23
304.260925
33
171.453659
0
3DFACE
8
0
70
0
10
65.627106
20
289.324036
30
183.669510
11
56.090675
21
305.379852
31
172.433685
12
51.578548
22
304.260925
32
171.453659
13
57.413879
23
287.361176
33
185.414047
0
3DFACE
8
0
70
0
10
57.910053
20
302.093933
30
169.587402
11
56.275646
21
300.694366
31
168.369980
12
57.068794
22
304.916473
32
166.068466
13
58.173656
23
308.635986
33
165.993057
0
3DFACE
8
0
70
0
10
64.983475
20
282.109528
30
180.553314
11
59.979404
21
278.449951
31
180.481262
12
56.275646
22
300.694366
32
168.369980
13
57.910053
23
302.093933
33
169.587402
0
3DFACE
8
0
70
0
10
37.219254
20
304.166168
30
159.184479
11
35.610500
21
306.672577
31
161.089645
12
36.693775
22
308.100983
32
160.311844
13
38.850521
23
306.105652
33
158.638611
0
3DFACE
8
0
70
0
10
59.979404
20
278.449951
30
180.481262
11
57.413879
21
287.361176
31
185.414047
12
51.578548
22
304.260925
32
171.453659
13
56.275646
23
300.694366
33
168.369980
0
3DFACE
8
0
70
0
10
56.090675
20
305.379852
30
172.433685
11
57.910053
21
302.093933
31
169.587402
12
58.173656
22
308.635986
32
165.993057
13
55.422276
23
311.837341
33
167.907928
0
3DFACE
8
0
70
0
10
64.983475
20
282.109528
30
180.553314
11
57.910053
21
302.093933
31
169.587402
12
56.090675
22
305.379852
32
172.433685
13
65.627106
23
289.324036
33
183.669510
0
3DFACE
8
0
70
0
10
53.347134
20
315.245483
30
165.154816
11
50.259056
21
320.317963
31
161.057587
12
47.031185
22
317.183014
32
161.534637
13
48.612766
23
313.913757
33
163.989624
0
3DFACE
8
0
70
0
10
51.919472
20
307.079620
30
169.121841
11
48.612766
21
313.913757
31
163.989624
12
53.429085
22
311.697266
32
162.078018
13
57.068794
23
304.916473
33
166.068466
0
3DFACE
8
0
70
0
10
57.068794
20
304.916473
30
166.068466
11
53.429085
21
311.697266
31
162.078018
12
55.569477
22
312.940826
32
163.161087
13
58.173656
23
308.635986
33
165.993057
0
3DFACE
8
0
70
0
10
64.541496
20
308.322754
30
151.345520
11
62.096760
21
311.206757
31
151.589615
12
61.588486
22
312.086792
32
153.844711
13
63.714321
23
309.721039
33
153.915176
0
3DFACE
8
0
70
0
10
51.919472
20
307.079620
30
169.121841
11
55.422276
21
311.837341
31
167.907928
12
53.347134
22
315.245483
32
165.154816
13
48.612766
23
313.913757
33
163.989624
0
3DFACE
8
0
70
0
10
48.612766
20
313.913757
30
163.989624
11
47.031185
21
317.183014
31
161.534637
12
51.608246
22
315.090118
32
160.081543
13
53.429085
23
311.697266
33
162.078018
0
3DFACE
8
0
70
0
10
55.569477
20
312.940826
30
163.161087
11
53.429085
21
311.697266
31
162.078018
12
51.608246
22
315.090118
32
160.081543
13
52.842468
23
317.449280
33
160.195389
0
3DFACE
8
0
70
0
10
53.347134
20
315.245483
30
165.154816
11
55.569477
21
312.940826
31
163.161087
12
52.842468
22
317.449280
32
160.195389
13
50.259056
23
320.317963
33
161.057587
0
3DFACE
8
0
70
0
10
58.867928
20
279.775391
30
190.384140
11
62.702698
21
277.805267
31
188.329666
12
68.799294
22
286.386963
32
182.283539
13
65.627106
23
289.324036
33
183.669510
0
3DFACE
8
0
70
0
10
65.627106
20
289.324036
30
183.669510
11
68.799294
21
286.386963
31
182.283539
12
68.215591
22
279.892456
32
179.484329
13
64.983475
23
282.109528
33
180.553314
0
3DFACE
8
0
70
0
10
64.983475
20
282.109528
30
180.553314
11
68.215591
21
279.892456
31
179.484329
12
61.476250
22
271.354950
32
184.296951
13
57.509144
23
272.610504
33
185.897919
0
3DFACE
8
0
70
0
10
57.509144
20
272.610504
30
185.897919
11
61.476250
21
271.354950
31
184.296951
12
62.702698
22
277.805267
32
188.329666
13
58.867928
23
279.775391
33
190.384140
0
3DFACE
8
0
70
0
10
62.702698
20
277.805267
30
188.329666
11
68.633430
21
273.934906
31
185.897812
12
71.239113
22
283.590790
32
181.517746
13
68.799294
23
286.386963
33
182.283539
0
3DFACE
8
0
70
0
10
68.799294
20
286.386963
30
182.283539
11
71.239113
21
283.590790
31
181.517746
12
71.458984
22
278.337921
32
177.892715
13
68.215591
23
279.892456
33
179.484329
0
3DFACE
8
0
70
0
10
68.215591
20
279.892456
30
179.484329
11
71.458984
21
278.337921
31
177.892715
12
68.074707
22
268.777588
32
181.296204
13
61.476250
23
271.354950
33
184.296951
0
3DFACE
8
0
70
0
10
61.476250
20
271.354950
30
184.296951
11
68.074707
21
268.777588
31
181.296204
12
68.633430
22
273.934906
32
185.897812
13
62.702698
23
277.805267
33
188.329666
0
3DFACE
8
0
70
0
10
68.633430
20
273.934906
30
185.897812
11
73.907997
21
273.609253
31
181.360367
12
72.651268
22
283.234985
32
179.872604
13
71.239113
23
283.590790
33
181.517746
0
3DFACE
8
0
70
0
10
71.239113
20
283.590790
30
181.517746
11
72.651268
21
283.234985
31
179.872604
12
73.221046
22
279.728027
32
175.353683
13
71.458984
23
278.337921
33
177.892715
0
3DFACE
8
0
70
0
10
71.458984
20
278.337921
30
177.892715
11
73.221046
21
279.728027
31
175.353683
12
73.567101
22
270.148132
32
176.177673
13
68.074707
23
268.777588
33
181.296204
0
3DFACE
8
0
70
0
10
68.074707
20
268.777588
30
181.296204
11
73.567101
21
270.148132
31
176.177673
12
73.907997
22
273.609253
32
181.360367
13
68.633430
23
273.934906
33
185.897812
0
3DFACE
8
0
70
0
10
73.907997
20
273.609253
30
181.360367
11
76.410950
21
275.157013
31
177.847794
12
74.894325
22
283.807617
32
176.857407
13
72.651268
23
283.234985
33
179.872604
0
3DFACE
8
0
70
0
10
72.651268
20
283.234985
30
179.872604
11
74.894325
21
283.807617
31
176.857407
12
75.404305
22
280.818817
32
172.665375
13
73.221046
23
279.728027
33
175.353683
0
3DFACE
8
0
70
0
10
73.221046
20
279.728027
30
175.353683
11
75.404305
21
280.818817
31
172.665375
12
76.081863
22
272.196747
32
173.085114
13
73.567101
23
270.148132
33
176.177673
0
3DFACE
8
0
70
0
10
73.567101
20
270.148132
30
176.177673
11
76.081863
21
272.196747
31
173.085114
12
76.410950
22
275.157013
32
177.847794
13
73.907997
23
273.609253
33
181.360367
0
3DFACE
8
0
70
0
10
76.410950
20
275.157013
30
177.847794
11
78.864868
21
276.260559
31
174.729996
12
77.500214
22
284.045868
32
173.838531
13
74.894325
23
283.807617
33
176.857407
0
3DFACE
8
0
70
0
10
74.894325
20
283.807617
30
176.857407
11
77.500214
21
284.045868
31
173.838531
12
77.959099
22
281.355988
32
170.065765
13
75.404305
23
280.818817
33
172.665375
0
3DFACE
8
0
70
0
10
75.404305
20
280.818817
30
172.665375
11
77.959099
21
281.355988
31
170.065765
12
78.568581
22
273.596375
32
170.443619
13
76.081863
23
272.196747
33
173.085114
0
3DFACE
8
0
70
0
10
76.081863
20
272.196747
30
173.085114
11
78.568581
21
273.596375
31
170.443619
12
78.864868
22
276.260559
32
174.729996
13
76.410950
23
275.157013
33
177.847794
0
3DFACE
8
0
70
0
10
78.864868
20
276.260559
30
174.729996
11
81.507652
21
277.735077
31
171.175659
12
79.637245
22
284.642761
32
171.013428
13
77.500214
23
284.045868
33
173.838531
0
3DFACE
8
0
70
0
10
77.500214
20
284.045868
30
173.838531
11
79.637245
21
284.642761
31
171.013428
12
80.016060
22
282.525909
32
167.416504
13
77.959099
23
281.355988
33
170.065765
0
3DFACE
8
0
70
0
10
77.959099
20
281.355988
30
170.065765
11
80.016060
21
282.525909
31
167.416504
12
81.176575
22
275.614349
32
167.163467
13
78.568581
23
273.596375
33
170.443619
0
3DFACE
8
0
70
0
10
78.568581
20
273.596375
30
170.443619
11
81.176575
21
275.614349
31
167.163467
12
81.507652
22
277.735077
32
171.175659
13
78.864868
23
276.260559
33
174.729996
0
3DFACE
8
0
70
0
10
81.507652
20
277.735077
30
171.175659
11
83.551140
21
279.521149
31
167.921707
12
81.351868
22
285.560425
32
168.364670
13
79.637245
23
284.642761
33
171.013428
0
3DFACE
8
0
70
0
10
79.637245
20
284.642761
30
171.013428
11
81.351868
21
285.560425
31
168.364670
12
81.628235
22
283.931305
32
164.973969
13
80.016060
23
282.525909
33
167.416504
0
3DFACE
8
0
70
0
10
80.016060
20
282.525909
30
167.416504
11
81.628235
21
283.931305
31
164.973969
12
83.167007
22
277.859650
32
164.198273
13
81.176575
23
275.614349
33
167.163467
0
3DFACE
8
0
70
0
10
81.176575
20
275.614349
30
167.163467
11
83.167007
21
277.859650
31
164.198273
12
83.551140
22
279.521149
32
167.921707
13
81.507652
23
277.735077
33
171.175659
0
3DFACE
8
0
70
0
10
83.551140
20
279.521149
30
167.921707
11
85.304939
21
282.056091
31
164.362030
12
83.237251
22
287.449127
32
164.870728
13
81.351868
23
285.560425
33
168.364670
0
3DFACE
8
0
70
0
10
81.351868
20
285.560425
30
168.364670
11
83.237251
21
287.449127
31
164.870728
12
83.470398
22
286.034149
32
161.793762
13
81.628235
23
283.931305
33
164.973969
0
3DFACE
8
0
70
0
10
81.628235
20
283.931305
30
164.973969
11
83.470398
21
286.034149
31
161.793762
12
84.940231
22
280.606079
32
160.993011
13
83.167007
23
277.859650
33
164.198273
0
3DFACE
8
0
70
0
10
83.167007
20
277.859650
30
164.198273
11
84.940231
21
280.606079
31
160.993011
12
85.304939
22
282.056091
32
164.362030
13
83.551140
23
279.521149
33
167.921707
0
3DFACE
8
0
70
0
10
85.304939
20
282.056091
30
164.362030
11
87.213493
21
284.572876
31
160.688812
12
85.762001
22
289.584991
32
160.666245
13
83.237251
23
287.449127
33
164.870728
0
3DFACE
8
0
70
0
10
83.237251
20
287.449127
30
164.870728
11
85.762001
21
289.584991
31
160.666245
12
86.029518
22
288.087036
32
158.017136
13
83.470398
23
286.034149
33
161.793762
0
3DFACE
8
0
70
0
10
83.470398
20
286.034149
30
161.793762
11
86.029518
21
288.087036
31
158.017136
12
86.959557
22
283.067596
32
157.743851
13
84.940231
23
280.606079
33
160.993011
0
3DFACE
8
0
70
0
10
84.940231
20
280.606079
30
160.993011
11
86.959557
21
283.067596
31
157.743851
12
87.213493
22
284.572876
32
160.688812
13
85.304939
23
282.056091
33
164.362030
0
3DFACE
8
0
70
0
10
87.213493
20
284.572876
30
160.688812
11
89.320915
21
286.106110
31
157.597595
12
88.346931
22
290.685730
32
157.232773
13
85.762001
23
289.584991
33
160.666245
0
3DFACE
8
0
70
0
10
85.762001
20
289.584991
30
160.666245
11
88.346931
21
290.685730
31
157.232773
12
88.611931
22
289.174713
32
154.951248
13
86.029518
23
288.087036
33
158.017136
0
3DFACE
8
0
70
0
10
86.029518
20
288.087036
30
158.017136
11
88.611931
21
289.174713
31
154.951248
12
89.131714
22
284.603760
32
155.024887
13
86.959557
23
283.067596
33
157.743851
0
3DFACE
8
0
70
0
10
86.959557
20
283.067596
30
157.743851
11
89.131714
21
284.603760
31
155.024887
12
89.320915
22
286.106110
32
157.597595
13
87.213493
23
284.572876
33
160.688812
0
3DFACE
8
0
70
0
10
56.275646
20
300.694366
30
168.369980
11
51.782856
21
299.314728
31
166.787170
12
52.950340
22
303.117462
32
164.937561
13
57.068794
23
304.916473
33
166.068466
0
3DFACE
8
0
70
0
10
57.068794
20
304.916473
30
166.068466
11
52.950340
21
303.117462
31
164.937561
12
48.458385
22
305.399628
32
167.662704
13
51.919472
23
307.079620
33
169.121841
0
3DFACE
8
0
70
0
10
51.919472
20
307.079620
30
169.121841
11
48.458385
21
305.399628
31
167.662704
12
47.825180
22
302.807648
32
169.616501
13
51.578548
23
304.260925
33
171.453659
0
3DFACE
8
0
70
0
10
51.578548
20
304.260925
30
171.453659
11
47.825180
21
302.807648
31
169.616501
12
51.782856
22
299.314728
32
166.787170
13
56.275646
23
300.694366
33
168.369980
0
3DFACE
8
0
70
0
10
51.782856
20
299.314728
30
166.787170
11
48.906101
21
299.227570
31
165.615204
12
50.224064
22
302.622681
32
164.089172
13
52.950340
23
303.117462
33
164.937561
0
3DFACE
8
0
70
0
10
52.950340
20
303.117462
30
164.937561
11
50.224064
21
302.622681
31
164.089172
12
46.283855
22
304.869476
32
166.538757
13
48.458385
23
305.399628
33
167.662704
0
3DFACE
8
0
70
0
10
48.458385
20
305.399628
30
167.662704
11
46.283855
21
304.869476
31
166.538757
12
45.518761
22
302.524475
32
168.204849
13
47.825180
23
302.807648
33
169.616501
0
3DFACE
8
0
70
0
10
47.825180
20
302.807648
30
169.616501
11
45.518761
21
302.524475
31
168.204849
12
48.906101
22
299.227570
32
165.615204
13
51.782856
23
299.314728
33
166.787170
0
3DFACE
8
0
70
0
10
48.906101
20
299.227570
30
165.615204
11
45.261261
21
298.803070
31
164.138672
12
47.334721
22
301.561615
32
163.282333
13
50.224064
23
302.622681
33
164.089172
0
3DFACE
8
0
70
0
10
50.224064
20
302.622681
30
164.089172
11
47.334721
21
301.561615
31
163.282333
12
44.261185
22
304.192413
32
165.550323
13
46.283855
23
304.869476
33
166.538757
0
3DFACE
8
0
70
0
10
46.283855
20
304.869476
30
166.538757
11
44.261185
21
304.192413
31
165.550323
12
42.903439
22
302.184143
32
166.693573
13
45.518761
23
302.524475
33
168.204849
0
3DFACE
8
0
70
0
10
45.518761
20
302.524475
30
168.204849
11
42.903439
21
302.184143
31
166.693573
12
45.261261
22
298.803070
32
164.138672
13
48.906101
23
299.227570
33
165.615204
0
3DFACE
8
0
70
0
10
45.261261
20
298.803070
30
164.138672
11
41.544071
21
301.100677
31
161.855072
12
44.250126
22
302.805817
32
161.710907
13
47.334721
23
301.561615
33
163.282333
0
3DFACE
8
0
70
0
10
47.334721
20
301.561615
30
163.282333
11
44.250126
21
302.805817
31
161.710907
12
42.249763
22
305.672668
32
163.989456
13
44.261185
23
304.192413
33
165.550323
0
3DFACE
8
0
70
0
10
44.261185
20
304.192413
30
165.550323
11
42.249763
21
305.672668
31
163.989456
12
40.343807
22
304.306580
32
164.561218
13
42.903439
23
302.184143
33
166.693573
0
3DFACE
8
0
70
0
10
42.903439
20
302.184143
30
166.693573
11
40.343807
21
304.306580
31
164.561218
12
41.544071
22
301.100677
32
161.855072
13
45.261261
23
298.803070
33
164.138672
0
3DFACE
8
0
70
0
10
41.544071
20
301.100677
30
161.855072
11
39.496536
21
303.309052
31
160.397095
12
41.735443
22
305.098206
32
160.100601
13
44.250126
23
302.805817
33
161.710907
0
3DFACE
8
0
70
0
10
44.250126
20
302.805817
30
161.710907
11
41.735443
21
305.098206
31
160.100601
12
39.709309
22
307.573029
32
162.069870
13
42.249763
23
305.672668
33
163.989456
0
3DFACE
8
0
70
0
10
42.249763
20
305.672668
30
163.989456
11
39.709309
21
307.573029
31
162.069870
12
38.161388
22
306.189850
32
162.709045
13
40.343807
23
304.306580
33
164.561218
0
3DFACE
8
0
70
0
10
40.343807
20
304.306580
30
164.561218
11
38.161388
21
306.189850
31
162.709045
12
39.496536
22
303.309052
32
160.397095
13
41.544071
23
301.100677
33
161.855072
0
3DFACE
8
0
70
0
10
39.496536
20
303.309052
30
160.397095
11
37.219254
21
304.166168
31
159.184479
12
38.850521
22
306.105652
32
158.638611
13
41.735443
23
305.098206
33
160.100601
0
3DFACE
8
0
70
0
10
41.735443
20
305.098206
30
160.100601
11
38.850521
21
306.105652
31
158.638611
12
36.693775
22
308.100983
32
160.311844
13
39.709309
23
307.573029
33
162.069870
0
3DFACE
8
0
70
0
10
39.709309
20
307.573029
30
162.069870
11
36.693775
21
308.100983
31
160.311844
12
35.610500
22
306.672577
32
161.089645
13
38.161388
23
306.189850
33
162.709045
0
3DFACE
8
0
70
0
10
38.161388
20
306.189850
30
162.709045
11
35.610500
21
306.672577
31
161.089645
12
37.219254
22
304.166168
32
159.184479
13
39.496536
23
303.309052
33
160.397095
0
3DFACE
8
0
70
0
10
58.173656
20
308.635986
30
165.993057
11
61.138420
21
307.804932
31
162.840439
12
58.821674
22
310.542175
32
164.971344
13
55.422276
23
311.837341
33
167.907928
0
3DFACE
8
0
70
0
10
55.422276
20
311.837341
30
167.907928
11
58.821674
21
310.542175
31
164.971344
12
56.661003
22
313.701874
32
162.877411
13
53.347134
23
315.245483
33
165.154816
0
3DFACE
8
0
70
0
10
53.347134
20
315.245483
30
165.154816
11
56.661003
21
313.701874
31
162.877411
12
58.486210
22
311.765076
32
160.770813
13
55.569477
23
312.940826
33
163.161087
0
3DFACE
8
0
70
0
10
55.569477
20
312.940826
30
163.161087
11
58.486210
21
311.765076
31
160.770813
12
61.138420
22
307.804932
32
162.840439
13
58.173656
23
308.635986
33
165.993057
0
3DFACE
8
0
70
0
10
61.138420
20
307.804932
30
162.840439
11
62.474323
21
307.769836
31
159.819107
12
60.882797
22
309.864410
32
162.496979
13
58.821674
23
310.542175
33
164.971344
0
3DFACE
8
0
70
0
10
58.821674
20
310.542175
30
164.971344
11
60.882797
21
309.864410
31
162.496979
12
58.467678
22
312.809479
32
161.539276
13
56.661003
23
313.701874
33
162.877411
0
3DFACE
8
0
70
0
10
56.661003
20
313.701874
30
162.877411
11
58.467678
21
312.809479
31
161.539276
12
59.620972
22
311.402466
32
159.085999
13
58.486210
23
311.765076
33
160.770813
0
3DFACE
8
0
70
0
10
58.486210
20
311.765076
30
160.770813
11
59.620972
21
311.402466
31
159.085999
12
62.474323
22
307.769836
32
159.819107
13
61.138420
23
307.804932
33
162.840439
0
3DFACE
8
0
70
0
10
62.474323
20
307.769836
30
159.819107
11
63.638195
21
308.048065
31
155.186569
12
62.622433
22
309.661499
32
157.975143
13
60.882797
23
309.864410
33
162.496979
0
3DFACE
8
0
70
0
10
60.882797
20
309.864410
30
162.496979
11
62.622433
21
309.661499
31
157.975143
12
60.280846
22
312.300598
32
157.758255
13
58.467678
23
312.809479
33
161.539276
0
3DFACE
8
0
70
0
10
58.467678
20
312.809479
30
161.539276
11
60.280846
21
312.300598
31
157.758255
12
60.932941
22
311.271484
32
155.294617
13
59.620972
23
311.402466
33
159.085999
0
3DFACE
8
0
70
0
10
59.620972
20
311.402466
30
159.085999
11
60.932941
21
311.271484
31
155.294617
12
63.638195
22
308.048065
32
155.186569
13
62.474323
23
307.769836
33
159.819107
0
3DFACE
8
0
70
0
10
63.638195
20
308.048065
30
155.186569
11
64.541496
21
308.322754
31
151.345520
12
63.714321
22
309.721039
32
153.915176
13
62.622433
23
309.661499
33
157.975143
0
3DFACE
8
0
70
0
10
62.622433
20
309.661499
30
157.975143
11
63.714321
21
309.721039
31
153.915176
12
61.588486
22
312.086792
32
153.844711
13
60.280846
23
312.300598
33
157.758255
0
3DFACE
8
0
70
0
10
60.280846
20
312.300598
30
157.758255
11
61.588486
21
312.086792
31
153.844711
12
62.096760
22
311.206757
32
151.589615
13
60.932941
23
311.271484
33
155.294617
0
3DFACE
8
0
70
0
10
60.932941
20
311.271484
30
155.294617
11
62.096760
21
311.206757
31
151.589615
12
64.541496
22
308.322754
32
151.345520
13
63.638195
23
308.048065
33
155.186569
0
3DFACE
8
0
70
0
10
0.000000
20
-2.395577
30
144.522125
11
0.000000
21
53.775246
31
185.605026
12
-56.007500
22
57.224762
32
144.522125
13
-25.149456
23
4.355130
33
130.849121
0
3DFACE
8
0
70
0
10
0.059748
20
183.926544
30
312.127899
11
0.080817
21
199.269424
31
311.965851
12
-8.083334
22
197.729279
32
311.803162
13
-9.376682
23
187.364380
33
311.813782
0
3DFACE
8
0
70
0
10
-0.072527
20
38.273743
30
-49.440407
11
-38.110901
21
43.167973
31
-38.732292
12
-43.735554
22
90.336494
32
-54.001575
13
-0.101490
23
90.820663
33
-71.272652
0
3DFACE
8
0
70
0
10
-0.129097
20
113.056747
30
-92.853470
11
-3.451924
21
114.265472
31
-92.798294
12
-2.979647
22
123.107803
32
-92.528381
13
-0.129058
23
123.938042
33
-92.520592
0
3DFACE
8
0
70
0
10
-49.136585
20
123.346725
30
12.383076
11
-45.256149
21
119.675636
31
94.242317
12
0.000000
22
130.289948
32
94.001030
13
0.001363
23
138.105072
33
12.730928
0
3DFACE
8
0
70
0
10
0.000000
20
130.289948
30
94.001030
11
-45.256149
21
119.675636
31
94.242317
12
-42.762276
22
117.356255
32
125.560699
13
0.000000
23
133.626480
33
127.203873
0
3DFACE
8
0
70
0
10
-28.428034
20
39.377960
30
24.900375
11
-24.403732
21
8.625516
31
96.139381
12
-56.462593
22
57.181293
32
95.192451
13
-65.040001
23
77.730278
33
24.903481
0
3DFACE
8
0
70
0
10
-65.701469
20
-150.652237
30
96.260597
11
-35.912998
21
-150.652237
31
97.465744
12
-29.768282
22
-150.652237
32
134.909973
13
-46.467930
23
-150.652237
33
150.174438
0
3DFACE
8
0
70
0
10
-65.040001
20
77.730278
30
24.903481
11
-56.462593
21
57.181293
31
95.192451
12
-45.256149
22
119.675636
32
94.242317
13
-49.136585
23
123.346725
33
12.383076
0
3DFACE
8
0
70
0
10
-56.462593
20
57.181293
30
95.192451
11
-56.007500
21
57.224762
31
144.522125
12
-42.762276
22
117.356255
32
125.560699
13
-45.256149
23
119.675636
33
94.242317
0
3DFACE
8
0
70
0
10
0.000000
20
31.472795
30
24.900375
11
0.000000
21
-1.747031
31
96.375175
12
-24.403732
22
8.625516
32
96.139381
13
-28.428034
23
39.377960
33
24.900375
0
3DFACE
8
0
70
0
10
0.000000
20
-1.747031
30
96.375175
11
0.000000
21
-2.395577
31
144.522125
12
-25.149456
22
4.355130
32
130.849121
13
-24.403732
23
8.625516
33
96.139381
0
3DFACE
8
0
70
0
10
-0.044839
20
128.845688
30
-24.672165
11
-0.087591
21
118.218811
31
-59.339561
12
-38.125965
22
112.729126
32
-48.918827
13
-40.016804
23
119.891914
33
-24.667238
0
3DFACE
8
0
70
0
10
0.001363
20
138.105072
30
12.730928
11
-0.044839
21
128.845688
31
-24.672165
12
-40.016804
22
119.891914
32
-24.667238
13
-49.136585
23
123.346725
33
12.383076
0
3DFACE
8
0
70
0
10
-63.736664
20
-149.409836
30
-44.067482
11
-47.364376
21
-149.409836
31
-44.790760
12
-32.437550
22
-149.870056
32
-44.575729
13
-37.906509
23
-149.895355
33
-44.050503
0
3DFACE
8
0
70
0
10
-84.681435
20
-150.878860
30
25.538858
11
-63.736664
21
-149.409836
31
-44.067482
12
-37.906509
22
-149.895355
32
-44.050503
13
-47.364376
23
-151.220337
33
25.538858
0
3DFACE
8
0
70
0
10
-74.001541
20
80.858536
30
-24.877522
11
-40.016804
21
119.891914
31
-24.667238
12
-38.125965
22
112.729126
32
-48.918827
13
-43.735554
23
90.336494
33
-54.001575
0
3DFACE
8
0
70
0
10
-49.136585
20
123.346725
30
12.383076
11
-40.016804
21
119.891914
31
-24.667238
12
-74.001541
22
80.858536
32
-24.877522
13
-65.040001
23
77.730278
33
24.903481
0
3DFACE
8
0
70
0
10
0.000000
20
24.279219
30
-24.072889
11
-40.097710
21
33.464478
31
-24.281689
12
-38.110901
22
43.167973
32
-38.732292
13
-0.072527
23
38.273743
33
-49.440407
0
3DFACE
8
0
70
0
10
-28.428034
20
39.377960
30
24.900375
11
-40.097710
21
33.464478
31
-24.281689
12
0.000000
22
24.279219
32
-24.072889
13
0.000000
23
31.472795
33
24.900375
0
3DFACE
8
0
70
0
10
-58.128815
20
-80.565407
30
-71.453110
11
-56.113060
21
-50.057621
31
-58.853844
12
-49.129383
22
-50.057621
32
-58.853844
13
-48.383411
23
-80.565407
33
-72.641045
0
3DFACE
8
0
70
0
10
-39.498394
20
-80.916351
30
-72.287872
11
-48.383411
21
-80.565407
31
-72.641045
12
-49.129383
22
-50.057621
32
-58.853844
13
-42.762276
23
-50.199734
33
-58.853844
0
3DFACE
8
0
70
0
10
-42.753723
20
-80.935608
30
-71.425224
11
-39.498394
21
-80.916351
31
-72.287872
12
-42.762276
22
-50.199734
32
-58.853844
13
-45.095093
23
-50.207546
33
-58.853844
0
3DFACE
8
0
70
0
10
-70.595932
20
-80.614906
30
-38.637787
11
-65.047142
21
-52.850094
31
-9.367262
12
-56.113060
22
-50.057621
32
-58.853844
13
-58.128815
23
-80.565407
33
-71.453110
0
3DFACE
8
0
70
0
10
-48.383411
20
-80.981804
30
-38.637787
11
-42.753723
21
-80.935608
31
-71.425224
12
-45.095093
22
-50.207546
32
-58.853844
13
-49.129383
23
-51.946312
33
-9.367262
0
3DFACE
8
0
70
0
10
-48.383411
20
-80.981804
30
-38.637787
11
-49.129383
21
-51.946312
31
-9.367262
12
-65.047142
22
-52.850094
32
-9.367262
13
-70.595932
23
-80.614906
33
-38.637787
0
3DFACE
8
0
70
0
10
-58.128815
20
-107.720345
30
-48.281639
11
-58.128815
21
-80.565407
31
-71.453110
12
-48.383411
22
-80.565407
32
-72.641045
13
-48.383411
23
-107.720345
33
-48.430130
0
3DFACE
8
0
70
0
10
-39.498394
20
-108.109566
30
-48.385990
11
-48.383411
21
-107.720345
31
-48.430130
12
-48.383411
22
-80.565407
32
-72.641045
13
-39.498394
23
-80.916351
33
-72.287872
0
3DFACE
8
0
70
0
10
-42.753723
20
-108.130936
30
-48.278152
11
-39.498394
21
-108.109566
31
-48.385990
12
-39.498394
22
-80.916351
32
-72.287872
13
-42.753723
23
-80.935608
33
-71.425224
0
3DFACE
8
0
70
0
10
-70.595932
20
-108.520134
30
-17.704567
11
-70.595932
21
-80.614906
31
-38.637787
12
-58.128815
22
-80.565407
32
-71.453110
13
-58.128815
23
-107.720345
33
-48.281639
0
3DFACE
8
0
70
0
10
-48.383411
20
-108.887032
30
-17.704567
11
-42.753723
21
-108.130936
31
-48.278152
12
-42.753723
22
-80.935608
32
-71.425224
13
-48.383411
23
-80.981804
33
-38.637787
0
3DFACE
8
0
70
0
10
-48.383411
20
-108.887032
30
-17.704567
11
-48.383411
21
-80.981804
31
-38.637787
12
-70.595932
22
-80.614906
32
-38.637787
13
-70.595932
23
-108.520134
33
-17.704567
0
3DFACE
8
0
70
0
10
-63.736664
20
-149.409836
30
-44.067482
11
-58.128815
21
-107.720345
31
-48.281639
12
-48.383411
22
-107.720345
32
-48.430130
13
-47.364376
23
-149.409836
33
-44.790760
0
3DFACE
8
0
70
0
10
-32.437550
20
-149.870056
30
-44.575729
11
-47.364376
21
-149.409836
31
-44.790760
12
-48.383411
22
-107.720345
32
-48.430130
13
-39.498394
23
-108.109566
33
-48.385990
0
3DFACE
8
0
70
0
10
-37.906509
20
-149.895355
30
-44.050503
11
-32.437550
21
-149.870056
31
-44.575729
12
-39.498394
22
-108.109566
32
-48.385990
13
-42.753723
23
-108.130936
33
-48.278152
0
3DFACE
8
0
70
0
10
-84.681435
20
-150.878860
30
25.538858
11
-70.595932
21
-108.520134
31
-17.704567
12
-58.128815
22
-107.720345
32
-48.281639
13
-63.736664
23
-149.409836
33
-44.067482
0
3DFACE
8
0
70
0
10
-47.364376
20
-151.220337
30
25.538858
11
-37.906509
21
-149.895355
31
-44.050503
12
-42.753723
22
-108.130936
32
-48.278152
13
-48.383411
23
-108.887032
33
-17.704567
0
3DFACE
8
0
70
0
10
-47.364376
20
-151.220337
30
25.538858
11
-48.383411
21
-108.887032
31
-17.704567
12
-70.595932
22
-108.520134
32
-17.704567
13
-84.681435
23
-150.878860
33
25.538858
0
3DFACE
8
0
70
0
10
-45.105083
20
-60.412811
30
114.227348
11
-56.462593
21
-60.412811
31
113.801231
12
-56.462593
22
57.181293
32
95.192451
13
-24.403732
23
8.625516
33
96.139381
0
3DFACE
8
0
70
0
10
-45.105083
20
-60.412811
30
114.227348
11
-24.403732
21
8.625516
31
96.139381
12
-25.149456
22
4.355130
32
130.849121
13
-42.762276
23
-60.412811
33
127.466949
0
3DFACE
8
0
70
0
10
-42.762276
20
-60.412811
30
127.466949
11
-25.149456
21
4.355130
31
130.849121
12
-56.007500
22
57.224762
32
144.522125
13
-49.129383
23
-60.412811
33
132.864197
0
3DFACE
8
0
70
0
10
-49.129383
20
-60.412811
30
132.864197
11
-56.007500
21
57.224762
31
144.522125
12
-56.462593
22
57.181293
32
95.192451
13
-56.462593
23
-60.412811
33
113.801231
0
3DFACE
8
0
70
0
10
-39.247944
20
-96.149826
30
97.626579
11
-57.192806
21
-96.149826
31
96.953308
12
-56.462593
22
-60.412811
32
113.801231
13
-45.105083
23
-60.412811
33
114.227348
0
3DFACE
8
0
70
0
10
-35.546310
20
-96.149826
30
118.545135
11
-39.247944
21
-96.149826
31
97.626579
12
-45.105083
22
-60.412811
32
114.227348
13
-42.762276
23
-60.412811
33
127.466949
0
3DFACE
8
0
70
0
10
-45.606339
20
-96.149826
30
127.072777
11
-35.546310
21
-96.149826
31
118.545135
12
-42.762276
22
-60.412811
32
127.466949
13
-49.129383
23
-60.412811
33
132.864197
0
3DFACE
8
0
70
0
10
-45.606339
20
-96.149826
30
127.072777
11
-49.129383
21
-60.412811
31
132.864197
12
-56.462593
22
-60.412811
32
113.801231
13
-57.192806
23
-96.149826
33
96.953308
0
3DFACE
8
0
70
0
10
-35.912998
20
-150.652237
30
97.465744
11
-65.701469
21
-150.652237
31
96.260597
12
-57.192806
22
-96.149826
32
96.953308
13
-39.247944
23
-96.149826
33
97.626579
0
3DFACE
8
0
70
0
10
-29.768282
20
-150.652237
30
134.909973
11
-35.912998
21
-150.652237
31
97.465744
12
-39.247944
22
-96.149826
32
97.626579
13
-35.546310
23
-96.149826
33
118.545135
0
3DFACE
8
0
70
0
10
-46.467930
20
-150.652237
30
150.174438
11
-29.768282
21
-150.652237
31
134.909973
12
-35.546310
22
-96.149826
32
118.545135
13
-45.606339
23
-96.149826
33
127.072777
0
3DFACE
8
0
70
0
10
-46.467930
20
-150.652237
30
150.174438
11
-45.606339
21
-96.149826
31
127.072777
12
-57.192806
22
-96.149826
32
96.953308
13
-65.701469
23
-150.652237
33
96.260597
0
3DFACE
8
0
70
0
10
0.050042
20
172.914551
30
219.963547
11
-35.594734
21
196.599731
31
215.983566
12
-23.429211
22
206.402924
32
196.608002
13
0.043468
23
166.967941
33
204.304321
0
3DFACE
8
0
70
0
10
-8.083334
20
197.729279
30
311.803162
11
0.080817
21
199.269424
31
311.965851
12
0.132726
22
227.479858
32
269.085236
13
-23.885765
23
222.344620
33
268.879456
0
3DFACE
8
0
70
0
10
-9.376682
20
187.364380
30
311.813782
11
-8.083334
21
197.729279
31
311.803162
12
-23.885765
22
222.344620
32
268.879456
13
-27.700369
23
187.745438
33
272.511627
0
3DFACE
8
0
70
0
10
0.059748
20
183.926544
30
312.127899
11
-9.376682
21
187.364380
31
311.813782
12
-27.700369
22
187.745438
32
272.511627
13
0.052119
23
176.304214
33
272.721863
0
3DFACE
8
0
70
0
10
-48.924660
20
271.171539
30
199.181320
11
-45.722515
21
260.669952
31
194.030853
12
-46.112789
22
255.042694
32
193.974091
13
-49.822807
23
254.739700
33
198.995392
0
3DFACE
8
0
70
0
10
-33.358509
20
223.057709
30
216.257721
11
-21.553038
21
223.783386
31
196.745865
12
-23.429211
22
206.402924
32
196.608002
13
-35.594734
23
196.599731
33
215.983566
0
3DFACE
8
0
70
0
10
-45.722515
20
260.669952
30
194.030853
11
-48.924660
21
271.171539
31
199.181320
12
-30.547281
22
256.166626
32
216.596375
13
-20.327011
23
235.119690
33
196.834991
0
3DFACE
8
0
70
0
10
-46.112789
20
255.042694
30
193.974091
11
-45.722515
21
260.669952
31
194.030853
12
-20.327011
22
235.119690
32
196.834991
13
-21.553038
23
223.783386
33
196.745865
0
3DFACE
8
0
70
0
10
-49.822807
20
254.739700
30
198.995392
11
-46.112789
21
255.042694
31
193.974091
12
-21.553038
22
223.783386
32
196.745865
13
-33.358509
23
223.057709
33
216.257721
0
3DFACE
8
0
70
0
10
-49.822807
20
254.739700
30
198.995392
11
-33.358509
21
223.057709
31
216.257721
12
-30.547281
22
256.166626
32
216.596375
13
-48.924660
23
271.171539
33
199.181320
0
3DFACE
8
0
70
0
10
-18.249910
20
248.562119
30
206.808167
11
-30.547281
21
256.166626
31
216.596375
12
0.224236
22
265.029144
32
216.843307
13
-6.712214
23
251.803436
33
206.900864
0
3DFACE
8
0
70
0
10
-7.556088
20
241.030151
30
196.368317
11
-6.712214
21
251.803436
31
206.900864
12
0.224236
22
265.029144
32
216.843307
13
0.159488
23
235.552734
33
189.112534
0
3DFACE
8
0
70
0
10
-14.673930
20
240.870224
30
199.302902
11
-7.556088
21
241.030151
31
196.368317
12
0.159488
22
235.552734
32
189.112534
13
-20.327011
23
235.119690
33
196.834991
0
3DFACE
8
0
70
0
10
-14.673930
20
240.870224
30
199.302902
11
-20.327011
21
235.119690
31
196.834991
12
-30.547281
22
256.166626
32
216.596375
13
-18.249910
23
248.562119
33
206.808167
0
3DFACE
8
0
70
0
10
-49.454323
20
320.618530
30
161.096985
11
-46.247757
21
317.461182
31
161.570526
12
-50.837570
22
315.393341
32
160.120255
13
-52.056229
23
317.762421
33
160.235825
0
3DFACE
8
0
70
0
10
-6.712214
20
251.803436
30
206.900864
11
-7.556088
21
241.030151
31
196.368317
12
-52.016289
22
270.926941
32
184.702454
13
-50.222656
23
280.701721
33
190.817795
0
3DFACE
8
0
70
0
10
-57.007404
20
272.895050
30
185.926865
11
-64.426659
21
282.445557
31
180.589401
12
-59.443176
22
278.754913
32
180.513336
13
-52.016289
23
270.926941
33
184.702454
0
3DFACE
8
0
70
0
10
-50.222656
20
280.701721
30
190.817795
11
-52.016289
21
270.926941
31
184.702454
12
-59.443176
22
278.754913
32
180.513336
13
-56.829594
23
287.664795
33
185.447632
0
3DFACE
8
0
70
0
10
-88.729210
20
286.576263
30
157.649155
11
-87.727791
21
291.159851
31
157.286102
12
-88.000633
22
289.647186
32
155.003967
13
-88.547554
23
285.069702
33
155.075562
0
3DFACE
8
0
70
0
10
-18.249910
20
248.562119
30
206.808167
11
-58.329029
21
280.076691
31
190.416092
12
-57.007404
22
272.895050
32
185.926865
13
-14.673930
23
240.870224
33
199.302902
0
3DFACE
8
0
70
0
10
-58.329029
20
280.076691
30
190.416092
11
-50.222656
21
280.701721
31
190.817795
12
-56.829594
22
287.664795
32
185.447632
13
-65.030396
23
289.674286
33
183.708664
0
3DFACE
8
0
70
0
10
-14.673930
20
240.870224
30
199.302902
11
-57.007404
21
272.895050
31
185.926865
12
-52.016289
22
270.926941
32
184.702454
13
-7.556088
23
241.030151
33
196.368317
0
3DFACE
8
0
70
0
10
-55.390427
20
305.698425
30
172.472427
11
-50.884800
21
304.552460
31
171.488922
12
-51.206501
22
307.376160
32
169.158234
13
-54.677979
23
312.159485
33
167.948425
0
3DFACE
8
0
70
0
10
-65.030396
20
289.674286
30
183.708664
11
-56.829594
21
287.664795
31
185.447632
12
-50.884800
22
304.552460
32
171.488922
13
-55.390427
23
305.698425
33
172.472427
0
3DFACE
8
0
70
0
10
-57.228592
20
302.418732
30
169.626251
11
-57.448673
21
308.970367
31
166.034409
12
-56.367519
22
305.239929
32
166.107712
13
-55.602177
23
301.008209
33
168.407242
0
3DFACE
8
0
70
0
10
-64.426659
20
282.445557
30
180.589401
11
-57.228592
21
302.418732
31
169.626251
12
-55.602177
22
301.008209
32
168.407242
13
-59.443176
23
278.754913
33
180.513336
0
3DFACE
8
0
70
0
10
-36.518860
20
304.375671
30
159.209793
11
-38.137436
21
306.326019
31
158.665497
12
-35.969002
22
308.310608
32
160.337677
13
-34.895378
23
306.874878
33
161.114395
0
3DFACE
8
0
70
0
10
-59.443176
20
278.754913
30
180.513336
11
-55.602177
21
301.008209
31
168.407242
12
-50.884800
22
304.552460
32
171.488922
13
-56.829594
23
287.664795
33
185.447632
0
3DFACE
8
0
70
0
10
-55.390427
20
305.698425
30
172.472427
11
-54.677979
21
312.159485
31
167.948425
12
-57.448673
22
308.970367
32
166.034409
13
-57.228592
23
302.418732
33
169.626251
0
3DFACE
8
0
70
0
10
-64.426659
20
282.445557
30
180.589401
11
-65.030396
21
289.674286
31
183.708664
12
-55.390427
22
305.698425
32
172.472427
13
-57.228592
23
302.418732
33
169.626251
0
3DFACE
8
0
70
0
10
-52.578835
20
315.559235
30
165.194916
11
-47.852501
21
314.198090
31
164.025726
12
-46.247757
22
317.461182
32
161.570526
13
-49.454323
23
320.618530
33
161.096985
0
3DFACE
8
0
70
0
10
-51.206501
20
307.376160
30
169.158234
11
-56.367519
21
305.239929
31
166.107712
12
-52.681908
22
312.007538
32
162.116974
13
-47.852501
23
314.198090
33
164.025726
0
3DFACE
8
0
70
0
10
-56.367519
20
305.239929
30
166.107712
11
-57.448673
21
308.970367
31
166.034409
12
-54.814880
22
313.265045
32
163.202072
13
-52.681908
23
312.007538
33
162.116974
0
3DFACE
8
0
70
0
10
-63.809101
20
308.693298
30
151.391235
11
-62.974499
21
310.088745
31
153.960861
12
-60.833206
22
312.445160
32
153.889771
13
-61.345768
23
311.566925
33
151.634689
0
3DFACE
8
0
70
0
10
-51.206501
20
307.376160
30
169.158234
11
-47.852501
21
314.198090
31
164.025726
12
-52.578835
22
315.559235
32
165.194916
13
-54.677979
23
312.159485
33
167.948425
0
3DFACE
8
0
70
0
10
-47.852501
20
314.198090
30
164.025726
11
-52.681908
21
312.007538
31
162.116974
12
-50.837570
22
315.393341
32
160.120255
13
-46.247757
23
317.461182
33
161.570526
0
3DFACE
8
0
70
0
10
-54.814880
20
313.265045
30
163.202072
11
-52.056229
21
317.762421
31
160.235825
12
-50.837570
22
315.393341
32
160.120255
13
-52.681908
23
312.007538
33
162.116974
0
3DFACE
8
0
70
0
10
-52.578835
20
315.559235
30
165.194916
11
-49.454323
21
320.618530
31
161.096985
12
-52.056229
22
317.762421
32
160.235825
13
-54.814880
23
313.265045
33
163.202072
0
3DFACE
8
0
70
0
10
-58.329029
20
280.076691
30
190.416092
11
-65.030396
21
289.674286
31
183.708664
12
-68.218842
22
286.749573
32
182.323441
13
-62.173672
23
278.123352
33
188.363007
0
3DFACE
8
0
70
0
10
-65.030396
20
289.674286
30
183.708664
11
-64.426659
21
282.445557
31
180.589401
12
-67.670708
22
280.241760
32
179.521393
13
-68.218842
23
286.749573
33
182.323441
0
3DFACE
8
0
70
0
10
-64.426659
20
282.445557
30
180.589401
11
-57.007404
21
272.895050
31
185.926865
12
-60.980515
22
271.657379
32
184.327469
13
-67.670708
23
280.241760
33
179.521393
0
3DFACE
8
0
70
0
10
-57.007404
20
272.895050
30
185.926865
11
-58.329029
21
280.076691
31
190.416092
12
-62.173672
22
278.123352
32
188.363007
13
-60.980515
23
271.657379
33
184.327469
0
3DFACE
8
0
70
0
10
-62.173672
20
278.123352
30
188.363007
11
-68.218842
21
286.749573
31
182.323441
12
-70.674255
22
283.961761
32
181.557922
13
-68.124374
23
274.276947
33
185.932877
0
3DFACE
8
0
70
0
10
-68.218842
20
286.749573
30
182.323441
11
-67.670708
21
280.241760
31
179.521393
12
-70.921997
22
278.701263
32
177.930908
13
-70.674255
23
283.961761
33
181.557922
0
3DFACE
8
0
70
0
10
-67.670708
20
280.241760
30
179.521393
11
-60.980515
21
271.657379
31
184.327469
12
-67.591370
22
269.108490
32
181.329071
13
-70.921997
23
278.701263
33
177.930908
0
3DFACE
8
0
70
0
10
-60.980515
20
271.657379
30
184.327469
11
-62.173672
21
278.123352
31
188.363007
12
-68.124374
22
274.276947
32
185.932877
13
-67.591370
23
269.108490
33
181.329071
0
3DFACE
8
0
70
0
10
-68.124374
20
274.276947
30
185.932877
11
-70.674255
21
283.961761
31
181.557922
12
-72.087601
22
283.612701
32
179.913422
13
-73.398621
23
273.977081
33
181.397995
0
3DFACE
8
0
70
0
10
-70.674255
20
283.961761
30
181.557922
11
-70.921997
21
278.701263
31
177.930908
12
-72.675049
22
280.102753
32
175.393356
13
-72.087601
23
283.612701
33
179.913422
0
3DFACE
8
0
70
0
10
-70.921997
20
278.701263
30
177.930908
11
-67.591370
21
269.108490
31
181.329071
12
-73.074211
22
270.508057
32
176.213715
13
-72.675049
23
280.102753
33
175.393356
0
3DFACE
8
0
70
0
10
-67.591370
20
269.108490
30
181.329071
11
-68.124374
21
274.276947
31
185.932877
12
-73.398621
22
273.977081
32
181.397995
13
-73.074211
23
270.508057
33
176.213715
0
3DFACE
8
0
70
0
10
-73.398621
20
273.977081
30
181.397995
11
-72.087601
21
283.612701
31
179.913422
12
-74.325867
22
284.197998
32
176.899719
13
-75.891518
23
275.540009
33
177.887329
0
3DFACE
8
0
70
0
10
-72.087601
20
283.612701
30
179.913422
11
-72.675049
21
280.102753
31
175.393356
12
-74.850830
22
281.206543
32
172.706696
13
-74.325867
23
284.197998
33
176.899719
0
3DFACE
8
0
70
0
10
-72.675049
20
280.102753
30
175.393356
11
-73.074211
21
270.508057
31
176.213715
12
-75.576515
22
272.572662
32
173.123215
13
-74.850830
23
281.206543
33
172.706696
0
3DFACE
8
0
70
0
10
-73.074211
20
270.508057
30
176.213715
11
-73.398621
21
273.977081
31
181.397995
12
-75.891518
22
275.540009
32
177.887329
13
-75.576515
23
272.572662
33
173.123215
0
3DFACE
8
0
70
0
10
-75.891518
20
275.540009
30
177.887329
11
-74.325867
21
284.197998
31
176.899719
12
-76.928848
22
284.450226
32
173.882416
13
-78.337883
23
276.657898
33
174.771240
0
3DFACE
8
0
70
0
10
-74.325867
20
284.197998
30
176.899719
11
-74.850830
21
281.206543
31
172.706696
12
-77.401283
22
281.757843
32
170.108704
13
-76.928848
23
284.450226
33
173.882416
0
3DFACE
8
0
70
0
10
-74.850830
20
281.206543
30
172.706696
11
-75.576515
21
272.572662
31
173.123215
12
-78.054375
22
273.987183
32
170.483551
13
-77.401283
23
281.757843
33
170.108704
0
3DFACE
8
0
70
0
10
-75.576515
20
272.572662
30
173.123215
11
-75.891518
21
275.540009
31
177.887329
12
-78.337883
22
276.657898
32
174.771240
13
-78.054375
23
273.987183
33
170.483551
0
3DFACE
8
0
70
0
10
-78.337883
20
276.657898
30
174.771240
11
-76.928848
21
284.450226
31
173.882416
12
-79.060997
22
285.059387
32
171.058777
13
-80.970772
23
278.148468
33
171.218933
0
3DFACE
8
0
70
0
10
-76.928848
20
284.450226
30
173.882416
11
-77.401283
21
281.757843
31
170.108704
12
-79.450218
22
282.940552
32
167.461090
13
-79.060997
23
285.059387
33
171.058777
0
3DFACE
8
0
70
0
10
-77.401283
20
281.757843
30
170.108704
11
-78.054375
21
273.987183
31
170.483551
12
-80.649712
22
276.021942
32
167.205612
13
-79.450218
23
282.940552
33
167.461090
0
3DFACE
8
0
70
0
10
-78.054375
20
273.987183
30
170.483551
11
-78.337883
21
276.657898
31
174.771240
12
-80.970772
22
278.148468
32
171.218933
13
-80.649712
23
276.021942
33
167.205612
0
3DFACE
8
0
70
0
10
-80.970772
20
278.148468
30
171.218933
11
-79.060997
21
285.059387
31
171.058777
12
-80.768929
22
285.987671
32
168.411423
13
-83.002647
23
279.948334
33
167.966888
0
3DFACE
8
0
70
0
10
-79.060997
20
285.059387
30
171.058777
11
-79.450218
21
282.940552
31
167.461090
12
-81.053062
22
284.356903
32
165.020096
13
-80.768929
23
285.987671
33
168.411423
0
3DFACE
8
0
70
0
10
-79.450218
20
282.940552
30
167.461090
11
-80.649712
21
276.021942
31
167.205612
12
-82.626167
22
278.281586
32
164.242462
13
-81.053062
23
284.356903
33
165.020096
0
3DFACE
8
0
70
0
10
-80.649712
20
276.021942
30
167.205612
11
-80.970772
21
278.148468
31
171.218933
12
-83.002647
22
279.948334
32
167.966888
13
-82.626167
23
278.281586
33
164.242462
0
3DFACE
8
0
70
0
10
-83.002647
20
279.948334
30
167.966888
11
-80.768929
21
285.987671
31
168.411423
12
-82.641449
22
287.889801
32
164.919449
13
-84.740250
23
282.497192
33
164.409348
0
3DFACE
8
0
70
0
10
-80.768929
20
285.987671
30
168.411423
11
-81.053062
21
284.356903
31
165.020096
12
-82.881332
22
286.473297
32
161.841919
13
-82.641449
23
287.889801
33
164.919449
0
3DFACE
8
0
70
0
10
-81.053062
20
284.356903
30
165.020096
11
-82.626167
21
278.281586
31
164.242462
12
-84.382240
22
281.042358
32
161.039413
13
-82.881332
23
286.473297
33
161.841919
0
3DFACE
8
0
70
0
10
-82.626167
20
278.281586
30
164.242462
11
-83.002647
21
279.948334
31
167.966888
12
-84.740250
22
282.497192
32
164.409348
13
-84.382240
23
281.042358
33
161.039413
0
3DFACE
8
0
70
0
10
-84.740250
20
282.497192
30
164.409348
11
-82.641449
21
287.889801
31
164.919449
12
-85.151306
22
290.043121
32
160.717484
13
-86.632370
23
285.028870
33
160.738403
0
3DFACE
8
0
70
0
10
-82.641449
20
287.889801
30
164.919449
11
-82.881332
21
286.473297
31
161.841919
12
-85.426353
22
288.543640
32
158.067795
13
-85.151306
23
290.043121
33
160.717484
0
3DFACE
8
0
70
0
10
-82.881332
20
286.473297
30
161.841919
11
-84.382240
21
281.042358
31
161.039413
12
-86.385750
22
283.519196
32
157.792557
13
-85.426353
23
288.543640
33
158.067795
0
3DFACE
8
0
70
0
10
-84.382240
20
281.042358
30
161.039413
11
-84.740250
21
282.497192
31
164.409348
12
-86.632370
22
285.028870
32
160.738403
13
-86.385750
23
283.519196
33
157.792557
0
3DFACE
8
0
70
0
10
-86.632370
20
285.028870
30
160.738403
11
-85.151306
21
290.043121
31
160.717484
12
-87.727791
22
291.159851
32
157.286102
13
-88.729210
23
286.576263
33
157.649155
0
3DFACE
8
0
70
0
10
-85.151306
20
290.043121
30
160.717484
11
-85.426353
21
288.543640
31
158.067795
12
-88.000633
22
289.647186
32
155.003967
13
-87.727791
23
291.159851
33
157.286102
0
3DFACE
8
0
70
0
10
-85.426353
20
288.543640
30
158.067795
11
-86.385750
21
283.519196
31
157.792557
12
-88.547554
22
285.069702
32
155.075562
13
-88.000633
23
289.647186
33
155.003967
0
3DFACE
8
0
70
0
10
-86.385750
20
283.519196
30
157.792557
11
-86.632370
21
285.028870
31
160.738403
12
-88.729210
22
286.576263
32
157.649155
13
-88.547554
23
285.069702
33
155.075562
0
3DFACE
8
0
70
0
10
-55.602177
20
301.008209
30
168.407242
11
-56.367519
21
305.239929
31
166.107712
12
-52.259769
22
303.415405
32
164.973358
13
-51.117065
23
299.601807
33
166.820999
0
3DFACE
8
0
70
0
10
-56.367519
20
305.239929
30
166.107712
11
-51.206501
21
307.376160
31
169.158234
12
-47.755199
22
305.674500
32
167.696136
13
-52.259769
23
303.415405
33
164.973358
0
3DFACE
8
0
70
0
10
-51.206501
20
307.376160
30
169.158234
11
-50.884800
21
304.552460
31
171.488922
12
-47.139465
22
303.076294
32
169.648743
13
-47.755199
23
305.674500
33
167.696136
0
3DFACE
8
0
70
0
10
-50.884800
20
304.552460
30
171.488922
11
-55.602177
21
301.008209
31
168.407242
12
-51.117065
22
299.601807
32
166.820999
13
-47.139465
23
303.076294
33
169.648743
0
3DFACE
8
0
70
0
10
-51.117065
20
299.601807
30
166.820999
11
-52.259769
21
303.415405
31
164.973358
12
-49.536133
22
302.904541
32
164.122971
13
-48.240219
23
299.498474
33
165.647110
0
3DFACE
8
0
70
0
10
-52.259769
20
303.415405
30
164.973358
11
-47.755199
21
305.674500
31
167.696136
12
-45.583359
22
305.131348
32
166.570511
13
-49.536133
23
302.904541
33
164.122971
0
3DFACE
8
0
70
0
10
-47.755199
20
305.674500
30
167.696136
11
-47.139465
21
303.076294
31
169.648743
12
-44.834003
22
302.779755
32
168.235428
13
-45.583359
23
305.131348
33
166.570511
0
3DFACE
8
0
70
0
10
-47.139465
20
303.076294
30
169.648743
11
-51.117065
21
299.601807
31
166.820999
12
-48.240219
22
299.498474
32
165.647110
13
-44.834003
23
302.779755
33
168.235428
0
3DFACE
8
0
70
0
10
-48.240219
20
299.498474
30
165.647110
11
-49.536133
21
302.904541
31
164.122971
12
-46.652996
22
301.826080
32
163.313858
13
-44.597202
23
299.053223
33
164.168045
0
3DFACE
8
0
70
0
10
-49.536133
20
302.904541
30
164.122971
11
-45.583359
21
305.131348
31
166.570511
12
-43.564384
22
304.442108
32
165.580505
13
-46.652996
23
301.826080
33
163.313858
0
3DFACE
8
0
70
0
10
-45.583359
20
305.131348
30
166.570511
11
-44.834003
21
302.779755
31
168.235428
12
-42.219940
22
302.424286
32
166.722290
13
-43.564384
23
304.442108
33
165.580505
0
3DFACE
8
0
70
0
10
-44.834003
20
302.779755
30
168.235428
11
-48.240219
21
299.498474
31
165.647110
12
-44.597202
22
299.053223
32
164.168045
13
-42.219940
23
302.424286
33
166.722290
0
3DFACE
8
0
70
0
10
-44.597202
20
299.053223
30
164.168045
11
-46.652996
21
301.826080
31
163.313858
12
-43.559719
22
303.054138
32
161.740677
13
-40.864483
23
301.332092
33
161.882584
0
3DFACE
8
0
70
0
10
-46.652996
20
301.826080
30
163.313858
11
-43.564384
21
304.442108
31
165.580505
12
-41.542686
22
305.912262
32
164.018616
13
-43.559719
23
303.054138
33
161.740677
0
3DFACE
8
0
70
0
10
-43.564384
20
304.442108
30
165.580505
11
-42.219940
21
302.424286
31
166.722290
12
-39.645752
22
304.534088
32
164.588745
13
-41.542686
23
305.912262
33
164.018616
0
3DFACE
8
0
70
0
10
-42.219940
20
302.424286
30
166.722290
11
-44.597202
21
299.053223
31
164.168045
12
-40.864483
22
301.332092
32
161.882584
13
-39.645752
23
304.534088
33
164.588745
0
3DFACE
8
0
70
0
10
-40.864483
20
301.332092
30
161.882584
11
-43.559719
21
303.054138
31
161.740677
12
-41.029621
22
305.334320
32
160.129272
13
-38.802254
23
303.530884
33
160.423752
0
3DFACE
8
0
70
0
10
-43.559719
20
303.054138
30
161.740677
11
-41.542686
21
305.912262
31
164.018616
12
-38.988976
22
307.799622
32
162.097717
13
-41.029621
23
305.334320
33
160.129272
0
3DFACE
8
0
70
0
10
-41.542686
20
305.912262
30
164.018616
11
-39.645752
21
304.534088
31
164.588745
12
-37.450306
22
306.406433
32
162.735474
13
-38.988976
23
307.799622
33
162.097717
0
3DFACE
8
0
70
0
10
-39.645752
20
304.534088
30
164.588745
11
-40.864483
21
301.332092
31
161.882584
12
-38.802254
22
303.530884
32
160.423752
13
-37.450306
23
306.406433
33
162.735474
0
3DFACE
8
0
70
0
10
-38.802254
20
303.530884
30
160.423752
11
-41.029621
21
305.334320
31
160.129272
12
-38.137436
22
306.326019
32
158.665497
13
-36.518860
23
304.375671
33
159.209793
0
3DFACE
8
0
70
0
10
-41.029621
20
305.334320
30
160.129272
11
-38.988976
21
307.799622
31
162.097717
12
-35.969002
22
308.310608
32
160.337677
13
-38.137436
23
306.326019
33
158.665497
0
3DFACE
8
0
70
0
10
-38.988976
20
307.799622
30
162.097717
11
-37.450306
21
306.406433
31
162.735474
12
-34.895378
22
306.874878
32
161.114395
13
-35.969002
23
308.310608
33
160.337677
0
3DFACE
8
0
70
0
10
-37.450306
20
306.406433
30
162.735474
11
-38.802254
21
303.530884
31
160.423752
12
-36.518860
22
304.375671
32
159.209793
13
-34.895378
23
306.874878
33
161.114395
0
3DFACE
8
0
70
0
10
-57.448673
20
308.970367
30
166.034409
11
-54.677979
21
312.159485
31
167.948425
12
-58.083767
22
310.882629
32
165.013840
13
-60.416702
23
308.155334
33
162.883591
0
3DFACE
8
0
70
0
10
-54.677979
20
312.159485
30
167.948425
11
-52.578835
21
315.559235
31
165.194916
12
-55.901226
22
314.033447
32
162.919449
13
-58.083767
23
310.882629
33
165.013840
0
3DFACE
8
0
70
0
10
-52.578835
20
315.559235
30
165.194916
11
-54.814880
21
313.265045
31
163.202072
12
-57.737640
22
312.104980
32
160.813507
13
-55.901226
23
314.033447
33
162.919449
0
3DFACE
8
0
70
0
10
-54.814880
20
313.265045
30
163.202072
11
-57.448673
21
308.970367
31
166.034409
12
-60.416702
22
308.155334
32
162.883591
13
-57.737640
23
312.104980
33
160.813507
0
3DFACE
8
0
70
0
10
-60.416702
20
308.155334
30
162.883591
11
-58.083767
21
310.882629
31
165.013840
12
-60.147625
22
310.215973
32
162.540710
13
-61.750893
23
308.127899
33
159.863159
0
3DFACE
8
0
70
0
10
-58.083767
20
310.882629
30
165.013840
11
-55.901226
21
314.033447
31
162.919449
12
-57.712807
22
313.150574
32
161.582352
13
-60.147625
23
310.215973
33
162.540710
0
3DFACE
8
0
70
0
10
-55.901226
20
314.033447
30
162.919449
11
-57.737640
21
312.104980
31
160.813507
12
-58.873638
22
311.748535
32
159.129379
13
-57.712807
23
313.150574
33
161.582352
0
3DFACE
8
0
70
0
10
-57.737640
20
312.104980
30
160.813507
11
-60.416702
21
308.155334
31
162.883591
12
-61.750893
22
308.127899
32
159.863159
13
-58.873638
23
311.748535
33
159.129379
0
3DFACE
8
0
70
0
10
-61.750893
20
308.127899
30
159.863159
11
-60.147625
21
310.215973
31
162.540710
12
-61.885632
22
310.022827
32
158.020035
13
-62.910023
23
308.413055
33
155.231567
0
3DFACE
8
0
70
0
10
-60.147625
20
310.215973
30
162.540710
11
-57.712807
21
313.150574
31
161.582352
12
-59.526768
22
312.651672
32
157.802460
13
-61.885632
23
310.022827
33
158.020035
0
3DFACE
8
0
70
0
10
-57.712807
20
313.150574
30
161.582352
11
-58.873638
21
311.748535
31
159.129379
12
-60.183968
22
311.625031
32
155.338898
13
-59.526768
23
312.651672
33
157.802460
0
3DFACE
8
0
70
0
10
-58.873638
20
311.748535
30
159.129379
11
-61.750893
21
308.127899
31
159.863159
12
-62.910023
22
308.413055
32
155.231567
13
-60.183968
23
311.625031
33
155.338898
0
3DFACE
8
0
70
0
10
-62.910023
20
308.413055
30
155.231567
11
-61.885632
21
310.022827
31
158.020035
12
-62.974499
22
310.088745
32
153.960861
13
-63.809101
23
308.693298
33
151.391235
0
3DFACE
8
0
70
0
10
-61.885632
20
310.022827
30
158.020035
11
-59.526768
21
312.651672
31
157.802460
12
-60.833206
22
312.445160
32
153.889771
13
-62.974499
23
310.088745
33
153.960861
0
3DFACE
8
0
70
0
10
-59.526768
20
312.651672
30
157.802460
11
-60.183968
21
311.625031
31
155.338898
12
-61.345768
22
311.566925
32
151.634689
13
-60.833206
23
312.445160
33
153.889771
0
3DFACE
8
0
70
0
10
-60.183968
20
311.625031
30
155.338898
11
-62.910023
21
308.413055
31
155.231567
12
-63.809101
22
308.693298
32
151.391235
13
-61.345768
23
311.566925
33
151.634689
0
3DFACE
8
0
70
0
10
12.985382
20
101.410576
30
-65.700668
11
43.575436
21
90.351570
31
-54.108799
12
-0.101490
22
90.820663
32
-71.272652
13
-0.099424
23
100.299049
33
-69.348793
0
3DFACE
8
0
70
0
10
12.985382
20
101.410576
30
-65.700668
11
10.862467
21
110.106018
31
-60.137932
12
37.976963
22
112.742249
32
-49.012287
13
43.575436
23
90.351570
33
-54.108799
0
3DFACE
8
0
70
0
10
10.862467
20
110.106018
30
-60.137932
11
-0.091282
21
111.000084
31
-62.506508
12
-0.087591
22
118.218811
32
-59.339561
13
37.976963
23
112.742249
33
-49.012287
0
3DFACE
8
0
70
0
10
-11.039043
20
110.102234
30
-60.111034
11
-38.125965
21
112.729126
31
-48.918827
12
-0.087591
22
118.218811
32
-59.339561
13
-0.091282
23
111.000084
33
-62.506508
0
3DFACE
8
0
70
0
10
-13.175191
20
101.406059
30
-65.668541
11
-43.735554
21
90.336494
31
-54.001575
12
-38.125965
22
112.729126
32
-48.918827
13
-11.039043
23
110.102234
33
-60.111034
0
3DFACE
8
0
70
0
10
-13.175191
20
101.406059
30
-65.668541
11
-0.099424
21
100.299049
31
-69.348793
12
-0.101490
22
90.820663
32
-71.272652
13
-43.735554
23
90.336494
33
-54.001575
0
3DFACE
8
0
70
0
10
-0.113332
20
94.559479
30
-80.690186
11
14.846068
21
101.786209
31
-79.260765
12
12.985382
22
101.410576
32
-65.700668
13
-0.099424
23
100.299049
33
-69.348793
0
3DFACE
8
0
70
0
10
14.846068
20
101.786209
30
-79.260765
11
12.493949
21
118.894707
31
-71.463692
12
10.862467
22
110.106018
32
-60.137932
13
12.985382
23
101.410576
33
-65.700668
0
3DFACE
8
0
70
0
10
12.493949
20
118.894707
30
-71.463692
11
-0.102705
21
125.771469
31
-71.282158
12
-0.091282
22
111.000084
32
-62.506508
13
10.862467
23
110.106018
33
-60.137932
0
3DFACE
8
0
70
0
10
-12.699298
20
118.890343
30
-71.432755
11
-11.039043
21
110.102234
31
-60.111034
12
-0.091282
22
111.000084
32
-62.506508
13
-0.102705
23
125.771469
33
-71.282158
0
3DFACE
8
0
70
0
10
-15.069629
20
101.781052
30
-79.224022
11
-13.175191
21
101.406059
31
-65.668541
12
-11.039043
22
110.102234
32
-60.111034
13
-12.699298
23
118.890343
33
-71.432755
0
3DFACE
8
0
70
0
10
-0.113332
20
94.559479
30
-80.690186
11
-0.099424
21
100.299049
31
-69.348793
12
-13.175191
22
101.406059
32
-65.668541
13
-15.069629
23
101.781052
33
-79.224022
0
3DFACE
8
0
70
0
10
-0.129097
20
113.056747
30
-92.853470
11
3.193774
21
114.266602
31
-92.806458
12
14.846068
22
101.786209
32
-79.260765
13
-0.113332
23
94.559479
33
-80.690186
0
3DFACE
8
0
70
0
10
3.193774
20
114.266602
30
-92.806458
11
2.721561
21
123.108810
31
-92.535385
12
12.493949
22
118.894707
32
-71.463692
13
14.846068
23
101.786209
33
-79.260765
0
3DFACE
8
0
70
0
10
2.721561
20
123.108810
30
-92.535385
11
-0.129058
21
123.938042
31
-92.520592
12
-0.102705
22
125.771469
32
-71.282158
13
12.493949
23
118.894707
33
-71.463692
0
3DFACE
8
0
70
0
10
-2.979647
20
123.107803
30
-92.528381
11
-12.699298
21
118.890343
31
-71.432755
12
-0.102705
22
125.771469
32
-71.282158
13
-0.129058
23
123.938042
33
-92.520592
0
3DFACE
8
0
70
0
10
-3.451924
20
114.265472
30
-92.798294
11
-15.069629
21
101.781052
31
-79.224022
12
-12.699298
22
118.890343
32
-71.432755
13
-2.979647
23
123.107803
33
-92.528381
0
3DFACE
8
0
70
0
10
-0.129097
20
113.056747
30
-92.853470
11
-0.113332
21
94.559479
31
-80.690186
12
-15.069629
22
101.781052
32
-79.224022
13
-3.451924
23
114.265472
33
-92.798294
0
3DFACE
8
0
70
0
10
0.193980
20
254.370483
30
240.374619
11
0.132726
21
227.479858
31
269.085236
12
24.131779
22
222.255219
32
268.872955
13
26.851463
23
247.585297
33
240.285309
0
3DFACE
8
0
70
0
10
0.059427
20
180.901688
30
239.443466
11
31.434366
21
196.057449
31
239.635513
12
27.834194
22
187.668045
32
272.507538
13
0.052119
23
176.304214
33
272.721863
0
3DFACE
8
0
70
0
10
0.193980
20
254.370483
30
240.374619
11
-26.494150
21
247.701859
31
240.295471
12
-23.885765
22
222.344620
32
268.879456
13
0.132726
23
227.479858
33
269.085236
0
3DFACE
8
0
70
0
10
0.059427
20
180.901688
30
239.443466
11
0.052119
21
176.304214
31
272.721863
12
-27.700369
22
187.745438
32
272.511627
13
-31.272024
23
196.151733
33
239.640945
0
3DFACE
8
0
70
0
10
30.951923
20
256.025970
30
216.583435
11
0.224236
21
265.029144
31
216.843307
12
0.193980
22
254.370483
32
240.374619
13
26.851463
23
247.585297
33
240.285309
0
3DFACE
8
0
70
0
10
30.951923
20
256.025970
30
216.583435
11
26.851463
21
247.585297
31
240.285309
12
31.434366
22
196.057449
32
239.635513
13
35.761612
23
196.492294
33
215.977371
0
3DFACE
8
0
70
0
10
35.761612
20
196.492294
30
215.977371
11
31.434366
21
196.057449
31
239.635513
12
0.059427
22
180.901688
32
239.443466
13
0.050042
23
172.914551
33
219.963547
0
3DFACE
8
0
70
0
10
-30.547281
20
256.166626
30
216.596375
11
-26.494150
21
247.701859
31
240.295471
12
0.193980
22
254.370483
32
240.374619
13
0.224236
23
265.029144
33
216.843307
0
3DFACE
8
0
70
0
10
-30.547281
20
256.166626
30
216.596375
11
-35.594734
21
196.599731
31
215.983566
12
-31.272024
22
196.151733
32
239.640945
13
-26.494150
23
247.701859
33
240.295471
0
3DFACE
8
0
70
0
10
-35.594734
20
196.599731
30
215.983566
11
0.050042
21
172.914551
31
219.963547
12
0.059427
22
180.901688
32
239.443466
13
-31.272024
23
196.151733
33
239.640945
0
3DFACE
8
0
70
0
10
11.975590
20
244.720215
30
258.995911
11
15.304524
21
248.049469
31
257.512756
12
11.986541
22
249.430923
32
257.530579
13
11.986541
23
249.430923
33
257.530579
0
3DFACE
8
0
70
0
10
11.975590
20
244.720215
30
258.995911
11
16.672569
21
244.729279
31
257.470947
12
15.304524
22
248.049469
32
257.512756
13
15.304524
23
248.049469
33
257.512756
0
3DFACE
8
0
70
0
10
15.289486
20
241.415085
30
257.429626
11
16.672569
21
244.729279
31
257.470947
12
11.975590
22
244.720215
32
258.995911
13
11.975590
23
244.720215
33
258.995911
0
3DFACE
8
0
70
0
10
11.965493
20
240.048019
30
257.412964
11
15.289486
21
241.415085
31
257.429626
12
11.975590
22
244.720215
32
258.995911
13
11.975590
23
244.720215
33
258.995911
0
3DFACE
8
0
70
0
10
11.965493
20
240.048019
30
257.412964
11
11.975590
21
244.720215
31
258.995911
12
8.647517
22
241.429077
32
257.430817
13
8.647517
23
241.429077
33
257.430817
0
3DFACE
8
0
70
0
10
8.647517
20
241.429077
30
257.430817
11
11.975590
21
244.720215
31
258.995911
12
7.279170
22
244.749481
32
257.472687
13
7.279170
23
244.749481
33
257.472687
0
3DFACE
8
0
70
0
10
11.975590
20
244.720215
30
258.995911
11
8.662245
21
248.064056
31
257.514008
12
7.279170
22
244.749481
32
257.472687
13
7.279170
23
244.749481
33
257.472687
0
3DFACE
8
0
70
0
10
11.975590
20
244.720215
30
258.995911
11
11.986541
21
249.430923
31
257.530579
12
8.662245
22
248.064056
32
257.514008
13
8.662245
23
248.064056
33
257.514008
0
3DFACE
8
0
70
0
10
15.304524
20
248.049469
30
257.512756
11
17.362700
21
250.145248
31
253.547897
12
11.994088
22
252.380585
32
253.576782
13
11.986541
23
249.430923
33
257.530579
0
3DFACE
8
0
70
0
10
16.672569
20
244.729279
30
257.470947
11
19.576025
21
244.773163
31
253.480362
12
17.362700
22
250.145248
32
253.547897
13
15.304524
23
248.049469
33
257.512756
0
3DFACE
8
0
70
0
10
17.338112
20
239.410934
30
253.413513
11
19.576025
21
244.773163
31
253.480362
12
16.672569
22
244.729279
32
257.470947
13
15.289486
23
241.415085
33
257.429626
0
3DFACE
8
0
70
0
10
11.959891
20
237.198959
30
253.386505
11
17.338112
21
239.410934
31
253.413513
12
15.289486
22
241.415085
32
257.429626
13
11.965493
23
240.048019
33
257.412964
0
3DFACE
8
0
70
0
10
11.959891
20
237.198959
30
253.386505
11
11.965493
21
240.048019
31
257.412964
12
8.647517
22
241.429077
32
257.430817
13
6.591300
23
239.433304
33
253.415359
0
3DFACE
8
0
70
0
10
6.591300
20
239.433304
30
253.415359
11
8.647517
21
241.429077
31
257.430817
12
7.279170
22
244.749481
32
257.472687
13
4.377185
23
244.805878
33
253.483154
0
3DFACE
8
0
70
0
10
7.279170
20
244.749481
30
257.472687
11
8.662245
21
248.064056
31
257.514008
12
6.615076
22
250.169113
32
253.550018
13
4.377185
23
244.805878
33
253.483154
0
3DFACE
8
0
70
0
10
8.662245
20
248.064056
30
257.514008
11
11.986541
21
249.430923
31
257.530579
12
11.994088
22
252.380585
32
253.576782
13
6.615076
23
250.169113
33
253.550018
0
3DFACE
8
0
70
0
10
17.362700
20
250.145248
30
253.547897
11
17.363672
21
250.207092
31
248.615952
12
11.995088
22
252.442413
32
248.644791
13
11.994088
23
252.380585
33
253.576782
0
3DFACE
8
0
70
0
10
19.576025
20
244.773163
30
253.480362
11
19.576935
21
244.835129
31
248.548431
12
17.363672
22
250.207092
32
248.615952
13
17.362700
23
250.145248
33
253.547897
0
3DFACE
8
0
70
0
10
17.338112
20
239.410934
30
253.413513
11
17.338961
21
239.473022
31
248.481598
12
19.576935
22
244.835129
32
248.548431
13
19.576025
23
244.773163
33
253.480362
0
3DFACE
8
0
70
0
10
11.959891
20
237.198959
30
253.386505
11
11.960715
21
237.261078
31
248.454605
12
17.338961
22
239.473022
32
248.481598
13
17.338112
23
239.410934
33
253.413513
0
3DFACE
8
0
70
0
10
11.959891
20
237.198959
30
253.386505
11
6.591300
21
239.433304
31
253.415359
12
6.592149
22
239.495392
32
248.483444
13
11.960715
23
237.261078
33
248.454605
0
3DFACE
8
0
70
0
10
6.591300
20
239.433304
30
253.415359
11
4.377185
21
244.805878
31
253.483154
12
4.378094
22
244.867844
32
248.551224
13
6.592149
23
239.495392
33
248.483444
0
3DFACE
8
0
70
0
10
4.377185
20
244.805878
30
253.483154
11
6.615076
21
250.169113
31
253.550018
12
6.616049
22
250.230957
32
248.618073
13
4.378094
23
244.867844
33
248.551224
0
3DFACE
8
0
70
0
10
6.615076
20
250.169113
30
253.550018
11
11.994088
21
252.380585
31
253.576782
12
11.995088
22
252.442413
32
248.644791
13
6.616049
23
250.230957
33
248.618073
0
3DFACE
8
0
70
0
10
15.307007
20
248.211548
30
244.600632
11
11.989066
21
249.592896
31
244.618454
12
11.995088
22
252.442413
32
248.644791
13
17.363672
23
250.207092
33
248.615952
0
3DFACE
8
0
70
0
10
19.576935
20
244.835129
30
248.548431
11
16.674952
21
244.891525
31
244.558884
12
15.307007
22
248.211548
32
244.600632
13
17.363672
23
250.207092
33
248.615952
0
3DFACE
8
0
70
0
10
17.338961
20
239.473022
30
248.481598
11
15.291767
21
241.577469
31
244.517593
12
16.674952
22
244.891525
32
244.558884
13
19.576935
23
244.835129
33
248.548431
0
3DFACE
8
0
70
0
10
11.960715
20
237.261078
30
248.454605
11
11.967733
21
240.210541
31
244.500946
12
15.291767
22
241.577469
32
244.517593
13
17.338961
23
239.473022
33
248.481598
0
3DFACE
8
0
70
0
10
11.960715
20
237.261078
30
248.454605
11
6.592149
21
239.495392
31
248.483444
12
8.649798
22
241.591507
32
244.518768
13
11.967733
23
240.210541
33
244.500946
0
3DFACE
8
0
70
0
10
6.592149
20
239.495392
30
248.483444
11
4.378094
21
244.867844
31
248.551224
12
7.281551
22
244.911728
32
244.560623
13
8.649798
23
241.591507
33
244.518768
0
3DFACE
8
0
70
0
10
4.378094
20
244.867844
30
248.551224
11
6.616049
21
250.230957
31
248.618073
12
8.664728
22
248.226105
32
244.601913
13
7.281551
23
244.911728
33
244.560623
0
3DFACE
8
0
70
0
10
8.664728
20
248.226105
30
244.601913
11
6.616049
21
250.230957
31
248.618073
12
11.995088
22
252.442413
32
248.644791
13
11.989066
23
249.592896
33
244.618454
0
3DFACE
8
0
70
0
10
11.978533
20
244.920746
30
243.035690
11
11.989066
21
249.592896
31
244.618454
12
15.307007
22
248.211548
32
244.600632
13
15.307007
23
248.211548
33
244.600632
0
3DFACE
8
0
70
0
10
16.674952
20
244.891525
30
244.558884
11
11.978533
21
244.920746
31
243.035690
12
15.307007
22
248.211548
32
244.600632
13
15.307007
23
248.211548
33
244.600632
0
3DFACE
8
0
70
0
10
15.291767
20
241.577469
30
244.517593
11
11.978533
21
244.920746
31
243.035690
12
16.674952
22
244.891525
32
244.558884
13
16.674952
23
244.891525
33
244.558884
0
3DFACE
8
0
70
0
10
11.967733
20
240.210541
30
244.500946
11
11.978533
21
244.920746
31
243.035690
12
15.291767
22
241.577469
32
244.517593
13
15.291767
23
241.577469
33
244.517593
0
3DFACE
8
0
70
0
10
11.967733
20
240.210541
30
244.500946
11
8.649798
21
241.591507
31
244.518768
12
11.978533
22
244.920746
32
243.035690
13
11.978533
23
244.920746
33
243.035690
0
3DFACE
8
0
70
0
10
8.649798
20
241.591507
30
244.518768
11
7.281551
21
244.911728
31
244.560623
12
11.978533
22
244.920746
32
243.035690
13
11.978533
23
244.920746
33
243.035690
0
3DFACE
8
0
70
0
10
7.281551
20
244.911728
30
244.560623
11
8.664728
21
248.226105
31
244.601913
12
11.978533
22
244.920746
32
243.035690
13
11.978533
23
244.920746
33
243.035690
0
3DFACE
8
0
70
0
10
11.978533
20
244.920746
30
243.035690
11
8.664728
21
248.226105
31
244.601913
12
11.989066
22
249.592896
32
244.618454
13
11.989066
23
249.592896
33
244.618454
0
3DFACE
8
0
70
0
10
-0.746806
20
199.115067
30
327.729675
11
-0.736343
21
206.032440
31
325.580322
12
-5.613805
22
204.022644
32
325.555054
13
-5.613805
23
204.022644
33
325.555054
0
3DFACE
8
0
70
0
10
-0.746806
20
199.115067
30
327.729675
11
-5.613805
21
204.022644
31
325.555054
12
-7.639877
22
199.154404
32
325.492920
13
-7.639877
23
199.154404
33
325.492920
0
3DFACE
8
0
70
0
10
-5.627638
20
194.280045
30
325.430298
11
-0.746806
21
199.115067
31
327.729675
12
-7.639877
22
199.154404
32
325.492920
13
-7.639877
23
199.154404
33
325.492920
0
3DFACE
8
0
70
0
10
-0.756249
20
192.255127
30
325.403992
11
-0.746806
21
199.115067
31
327.729675
12
-5.627638
22
194.280045
32
325.430298
13
-5.627638
23
194.280045
33
325.430298
0
3DFACE
8
0
70
0
10
-0.756249
20
192.255127
30
325.403992
11
4.120668
21
194.265457
31
325.429443
12
-0.746806
22
199.115067
32
327.729675
13
-0.746806
23
199.115067
33
327.729675
0
3DFACE
8
0
70
0
10
4.120668
20
194.265457
30
325.429443
11
6.146681
21
199.132889
31
325.491608
12
-0.746806
22
199.115067
32
327.729675
13
-0.746806
23
199.115067
33
327.729675
0
3DFACE
8
0
70
0
10
-0.746806
20
199.115067
30
327.729675
11
6.146681
21
199.132889
31
325.491608
12
4.134986
22
204.006775
32
325.554047
13
4.134986
23
204.006775
33
325.554047
0
3DFACE
8
0
70
0
10
-0.746806
20
199.115067
30
327.729675
11
4.134986
21
204.006775
31
325.554047
12
-0.736343
22
206.032440
32
325.580322
13
-0.736343
23
206.032440
33
325.580322
0
3DFACE
8
0
70
0
10
-5.613805
20
204.022644
30
325.555054
11
-0.736343
21
206.032440
31
325.580322
12
-0.729043
22
210.364532
32
319.777039
13
-8.621278
23
207.113037
33
319.736237
0
3DFACE
8
0
70
0
10
-7.639877
20
199.154404
30
325.492920
11
-5.613805
21
204.022644
31
325.555054
12
-8.621278
22
207.113037
32
319.736237
13
-11.899608
23
199.235779
33
319.635742
0
3DFACE
8
0
70
0
10
-8.643574
20
191.348816
30
319.534363
11
-5.627638
21
194.280045
31
325.430298
12
-7.639877
22
199.154404
32
325.492920
13
-11.899608
23
199.235779
33
319.635742
0
3DFACE
8
0
70
0
10
-0.761468
20
188.072998
30
319.491821
11
-0.756249
21
192.255127
31
325.403992
12
-5.627638
22
194.280045
32
325.430298
13
-8.643574
23
191.348816
33
319.534363
0
3DFACE
8
0
70
0
10
-0.761468
20
188.072998
30
319.491821
11
7.129340
21
191.325897
31
319.533081
12
4.120668
22
194.265457
32
325.429443
13
-0.756249
23
192.255127
33
325.403992
0
3DFACE
8
0
70
0
10
7.129340
20
191.325897
30
319.533081
11
10.407511
21
199.200989
31
319.633636
12
6.146681
22
199.132889
32
325.491608
13
4.120668
23
194.265457
33
325.429443
0
3DFACE
8
0
70
0
10
6.146681
20
199.132889
30
325.491608
11
10.407511
21
199.200989
31
319.633636
12
7.152905
22
207.086731
32
319.734558
13
4.134986
23
204.006775
33
325.554047
0
3DFACE
8
0
70
0
10
4.134986
20
204.006775
30
325.554047
11
7.152905
21
207.086731
31
319.734558
12
-0.729043
22
210.364532
32
319.777039
13
-0.736343
23
206.032440
33
325.580322
0
3DFACE
8
0
70
0
10
-8.621278
20
207.113037
30
319.736237
11
-0.729043
21
210.364532
31
319.777039
12
-0.728222
22
210.456558
32
312.536713
13
-8.620500
23
207.205185
33
312.495941
0
3DFACE
8
0
70
0
10
-11.899608
20
199.235779
30
319.635742
11
-8.621278
21
207.113037
31
319.736237
12
-8.620500
22
207.205185
32
312.495941
13
-11.898931
23
199.328201
33
312.395447
0
3DFACE
8
0
70
0
10
-8.643574
20
191.348816
30
319.534363
11
-11.899608
21
199.235779
31
319.635742
12
-11.898931
22
199.328201
32
312.395447
13
-8.642990
23
191.441452
33
312.294067
0
3DFACE
8
0
70
0
10
-0.761468
20
188.072998
30
319.491821
11
-8.643574
21
191.348816
31
319.534363
12
-8.642990
22
191.441452
32
312.294067
13
-0.760922
23
188.165787
33
312.251526
0
3DFACE
8
0
70
0
10
-0.761468
20
188.072998
30
319.491821
11
-0.760922
21
188.165787
31
312.251526
12
7.129923
22
191.418564
32
312.292786
13
7.129340
23
191.325897
33
319.533081
0
3DFACE
8
0
70
0
10
7.129340
20
191.325897
30
319.533081
11
7.129923
21
191.418564
31
312.292786
12
10.408189
22
199.293381
32
312.393372
13
10.407511
23
199.200989
33
319.633636
0
3DFACE
8
0
70
0
10
10.407511
20
199.200989
30
319.633636
11
10.408189
21
199.293381
31
312.393372
12
7.153683
22
207.178879
32
312.494232
13
7.152905
23
207.086731
33
319.734558
0
3DFACE
8
0
70
0
10
7.152905
20
207.086731
30
319.734558
11
7.153683
21
207.178879
31
312.494232
12
-0.728222
22
210.456558
32
312.536713
13
-0.729043
23
210.364532
33
319.777039
0
3DFACE
8
0
70
0
10
-5.611871
20
204.264160
30
306.599548
11
-8.620500
21
207.205185
31
312.495941
12
-0.728222
22
210.456558
32
312.536713
13
-0.734341
23
206.273727
33
306.624817
0
3DFACE
8
0
70
0
10
-11.898931
20
199.328201
30
312.395447
11
-8.620500
21
207.205185
31
312.495941
12
-5.611871
22
204.264160
32
306.599548
13
-7.638103
23
199.396301
33
306.537476
0
3DFACE
8
0
70
0
10
-8.642990
20
191.441452
30
312.294067
11
-11.898931
21
199.328201
31
312.395447
12
-7.638103
22
199.396301
32
306.537476
13
-5.626019
23
194.522385
33
306.474915
0
3DFACE
8
0
70
0
10
-0.760922
20
188.165787
30
312.251526
11
-8.642990
21
191.441452
31
312.294067
12
-5.626019
22
194.522385
32
306.474915
13
-0.754691
23
192.497635
33
306.448639
0
3DFACE
8
0
70
0
10
-0.760922
20
188.165787
30
312.251526
11
-0.754691
21
192.497635
31
306.448639
12
4.122288
22
194.507797
32
306.474060
13
7.129923
23
191.418564
33
312.292786
0
3DFACE
8
0
70
0
10
7.129923
20
191.418564
30
312.292786
11
4.122288
21
194.507797
31
306.474060
12
6.148455
22
199.374802
32
306.536194
13
10.408189
23
199.293381
33
312.393372
0
3DFACE
8
0
70
0
10
10.408189
20
199.293381
30
312.393372
11
6.148455
21
199.374802
31
306.536194
12
4.136921
22
204.248291
32
306.598572
13
7.153683
23
207.178879
33
312.494232
0
3DFACE
8
0
70
0
10
4.136921
20
204.248291
30
306.598572
11
-0.734341
21
206.273727
31
306.624817
12
-0.728222
22
210.456558
32
312.536713
13
7.153683
23
207.178879
33
312.494232
0
3DFACE
8
0
70
0
10
-0.744614
20
199.414093
30
304.299408
11
-5.611871
21
204.264160
31
306.599548
12
-0.734341
22
206.273727
32
306.624817
13
-0.734341
23
206.273727
33
306.624817
0
3DFACE
8
0
70
0
10
-7.638103
20
199.396301
30
306.537476
11
-5.611871
21
204.264160
31
306.599548
12
-0.744614
22
199.414093
32
304.299408
13
-0.744614
23
199.414093
33
304.299408
0
3DFACE
8
0
70
0
10
-5.626019
20
194.522385
30
306.474915
11
-7.638103
21
199.396301
31
306.537476
12
-0.744614
22
199.414093
32
304.299408
13
-0.744614
23
199.414093
33
304.299408
0
3DFACE
8
0
70
0
10
-0.754691
20
192.497635
30
306.448639
11
-5.626019
21
194.522385
31
306.474915
12
-0.744614
22
199.414093
32
304.299408
13
-0.744614
23
199.414093
33
304.299408
0
3DFACE
8
0
70
0
10
-0.754691
20
192.497635
30
306.448639
11
-0.744614
21
199.414093
31
304.299408
12
4.122288
22
194.507797
32
306.474060
13
4.122288
23
194.507797
33
306.474060
0
3DFACE
8
0
70
0
10
4.122288
20
194.507797
30
306.474060
11
-0.744614
21
199.414093
31
304.299408
12
6.148455
22
199.374802
32
306.536194
13
6.148455
23
199.374802
33
306.536194
0
3DFACE
8
0
70
0
10
6.148455
20
199.374802
30
306.536194
11
-0.744614
21
199.414093
31
304.299408
12
4.136921
22
204.248291
32
306.598572
13
4.136921
23
204.248291
33
306.598572
0
3DFACE
8
0
70
0
10
-0.744614
20
199.414093
30
304.299408
11
-0.734341
21
206.273727
31
306.624817
12
4.136921
22
204.248291
32
306.598572
13
4.136921
23
204.248291
33
306.598572
0
3DFACE
8
0
70
0
10
-11.637000
20
244.771057
30
259.000244
11
-11.626840
21
249.483109
31
257.535187
12
-14.950900
22
248.115860
32
257.518555
13
-14.950900
23
248.115860
33
257.518555
0
3DFACE
8
0
70
0
10
-11.637000
20
244.771057
30
259.000244
11
-14.950900
21
248.115860
31
257.518555
12
-16.333418
22
244.800293
32
257.477051
13
-16.333418
23
244.800293
33
257.477051
0
3DFACE
8
0
70
0
10
-14.964525
20
241.478882
30
257.434967
11
-11.637000
21
244.771057
31
259.000244
12
-16.333418
22
244.800293
32
257.477051
13
-16.333418
23
244.800293
33
257.477051
0
3DFACE
8
0
70
0
10
-11.646329
20
240.097397
30
257.417053
11
-11.637000
21
244.771057
31
259.000244
12
-14.964525
22
241.478882
32
257.434967
13
-14.964525
23
241.478882
33
257.434967
0
3DFACE
8
0
70
0
10
-11.646329
20
240.097397
30
257.417053
11
-8.322557
21
241.464874
31
257.433807
12
-11.637000
22
244.771057
32
259.000244
13
-11.637000
23
244.771057
33
259.000244
0
3DFACE
8
0
70
0
10
-8.322557
20
241.464874
30
257.433807
11
-6.940018
21
244.780090
31
257.475311
12
-11.637000
22
244.771057
32
259.000244
13
-11.637000
23
244.771057
33
259.000244
0
3DFACE
8
0
70
0
10
-11.637000
20
244.771057
30
259.000244
11
-6.940018
21
244.780090
31
257.475311
12
-8.308621
22
248.101273
32
257.517273
13
-8.308621
23
248.101273
33
257.517273
0
3DFACE
8
0
70
0
10
-11.637000
20
244.771057
30
259.000244
11
-8.308621
21
248.101273
31
257.517273
12
-11.626840
22
249.483109
32
257.535187
13
-11.626840
23
249.483109
33
257.535187
0
3DFACE
8
0
70
0
10
-14.950900
20
248.115860
30
257.518555
11
-11.626840
21
249.483109
31
257.535187
12
-11.619792
22
252.433685
32
253.581558
13
-16.998417
23
250.221497
33
253.554672
0
3DFACE
8
0
70
0
10
-16.333418
20
244.800293
30
257.477051
11
-14.950900
21
248.115860
31
257.518555
12
-16.998417
22
250.221497
32
253.554672
13
-19.235403
23
244.856674
33
253.487503
0
3DFACE
8
0
70
0
10
-17.020409
20
239.482483
30
253.419418
11
-14.964525
21
241.478882
31
257.434967
12
-16.333418
22
244.800293
32
257.477051
13
-19.235403
23
244.856674
33
253.487503
0
3DFACE
8
0
70
0
10
-11.651464
20
237.247452
30
253.390442
11
-11.646329
21
240.097397
31
257.417053
12
-14.964525
22
241.478882
32
257.434967
13
-17.020409
23
239.482483
33
253.419418
0
3DFACE
8
0
70
0
10
-11.651464
20
237.247452
30
253.390442
11
-6.273597
21
239.460114
31
253.417572
12
-8.322557
22
241.464874
32
257.433807
13
-11.646329
23
240.097397
33
257.417053
0
3DFACE
8
0
70
0
10
-6.273597
20
239.460114
30
253.417572
11
-4.036561
21
244.823959
31
253.484711
12
-6.940018
22
244.780090
32
257.475311
13
-8.322557
23
241.464874
33
257.433807
0
3DFACE
8
0
70
0
10
-6.940018
20
244.780090
30
257.475311
11
-4.036561
21
244.823959
31
253.484711
12
-6.250793
22
250.197662
32
253.552551
13
-8.308621
23
248.101273
33
257.517273
0
3DFACE
8
0
70
0
10
-8.308621
20
248.101273
30
257.517273
11
-6.250793
21
250.197662
31
253.552551
12
-11.619792
22
252.433685
32
253.581558
13
-11.626840
23
249.483109
33
257.535187
0
3DFACE
8
0
70
0
10
-16.998417
20
250.221497
30
253.554672
11
-11.619792
21
252.433685
31
253.581558
12
-11.618793
22
252.495468
32
248.649567
13
-16.997444
23
250.283340
33
248.622711
0
3DFACE
8
0
70
0
10
-19.235403
20
244.856674
30
253.487503
11
-16.998417
21
250.221497
31
253.554672
12
-16.997444
22
250.283340
32
248.622711
13
-19.234493
23
244.918610
33
248.555573
0
3DFACE
8
0
70
0
10
-17.020409
20
239.482483
30
253.419418
11
-19.235403
21
244.856674
31
253.487503
12
-19.234493
22
244.918610
32
248.555573
13
-17.019560
23
239.544586
33
248.487503
0
3DFACE
8
0
70
0
10
-11.651464
20
237.247452
30
253.390442
11
-17.020409
21
239.482483
31
253.419418
12
-17.019560
22
239.544586
32
248.487503
13
-11.650641
23
237.309601
33
248.458542
0
3DFACE
8
0
70
0
10
-11.651464
20
237.247452
30
253.390442
11
-11.650641
21
237.309601
31
248.458542
12
-6.272749
22
239.522217
32
248.485657
13
-6.273597
23
239.460114
33
253.417572
0
3DFACE
8
0
70
0
10
-6.273597
20
239.460114
30
253.417572
11
-6.272749
21
239.522217
31
248.485657
12
-4.035652
22
244.885941
32
248.552780
13
-4.036561
23
244.823959
33
253.484711
0
3DFACE
8
0
70
0
10
-4.036561
20
244.823959
30
253.484711
11
-4.035652
21
244.885941
31
248.552780
12
-6.249821
22
250.259491
32
248.620605
13
-6.250793
23
250.197662
33
253.552551
0
3DFACE
8
0
70
0
10
-6.250793
20
250.197662
30
253.552551
11
-6.249821
21
250.259491
31
248.620605
12
-11.618793
22
252.495468
32
248.649567
13
-11.619792
23
252.433685
33
253.581558
0
3DFACE
8
0
70
0
10
-14.948418
20
248.277893
30
244.606445
11
-16.997444
21
250.283340
31
248.622711
12
-11.618793
22
252.495468
32
248.649567
13
-11.624314
23
249.645096
33
244.623077
0
3DFACE
8
0
70
0
10
-19.234493
20
244.918610
30
248.555573
11
-16.997444
21
250.283340
31
248.622711
12
-14.948418
22
248.277893
32
244.606445
13
-16.331036
23
244.962524
33
244.564972
0
3DFACE
8
0
70
0
10
-17.019560
20
239.544586
30
248.487503
11
-19.234493
21
244.918610
31
248.555573
12
-16.331036
22
244.962524
32
244.564972
13
-14.962244
23
241.641296
33
244.522934
0
3DFACE
8
0
70
0
10
-11.650641
20
237.309601
30
248.458542
11
-17.019560
21
239.544586
31
248.487503
12
-14.962244
22
241.641296
32
244.522934
13
-11.644088
23
240.259903
33
244.505035
0
3DFACE
8
0
70
0
10
-11.650641
20
237.309601
30
248.458542
11
-11.644088
21
240.259903
31
244.505035
12
-8.320275
22
241.627304
32
244.521759
13
-6.272749
23
239.522217
33
248.485657
0
3DFACE
8
0
70
0
10
-6.272749
20
239.522217
30
248.485657
11
-8.320275
21
241.627304
31
244.521759
12
-6.937637
22
244.942291
32
244.563232
13
-4.035652
23
244.885941
33
248.552780
0
3DFACE
8
0
70
0
10
-4.035652
20
244.885941
30
248.552780
11
-6.937637
21
244.942291
31
244.563232
12
-8.306138
22
248.263336
32
244.605179
13
-6.249821
23
250.259491
33
248.620605
0
3DFACE
8
0
70
0
10
-8.306138
20
248.263336
30
244.605179
11
-11.624314
21
249.645096
31
244.623077
12
-11.618793
22
252.495468
32
248.649567
13
-6.249821
23
250.259491
33
248.620605
0
3DFACE
8
0
70
0
10
-11.634057
20
244.971588
30
243.040039
11
-14.948418
21
248.277893
31
244.606445
12
-11.624314
22
249.645096
32
244.623077
13
-11.624314
23
249.645096
33
244.623077
0
3DFACE
8
0
70
0
10
-16.331036
20
244.962524
30
244.564972
11
-14.948418
21
248.277893
31
244.606445
12
-11.634057
22
244.971588
32
243.040039
13
-11.634057
23
244.971588
33
243.040039
0
3DFACE
8
0
70
0
10
-14.962244
20
241.641296
30
244.522934
11
-16.331036
21
244.962524
31
244.564972
12
-11.634057
22
244.971588
32
243.040039
13
-11.634057
23
244.971588
33
243.040039
0
3DFACE
8
0
70
0
10
-11.644088
20
240.259903
30
244.505035
11
-14.962244
21
241.641296
31
244.522934
12
-11.634057
22
244.971588
32
243.040039
13
-11.634057
23
244.971588
33
243.040039
0
3DFACE
8
0
70
0
10
-11.644088
20
240.259903
30
244.505035
11
-11.634057
21
244.971588
31
243.040039
12
-8.320275
22
241.627304
32
244.521759
13
-8.320275
23
241.627304
33
244.521759
0
3DFACE
8
0
70
0
10
-8.320275
20
241.627304
30
244.521759
11
-11.634057
21
244.971588
31
243.040039
12
-6.937637
22
244.942291
32
244.563232
13
-6.937637
23
244.942291
33
244.563232
0
3DFACE
8
0
70
0
10
-6.937637
20
244.942291
30
244.563232
11
-11.634057
21
244.971588
31
243.040039
12
-8.306138
22
248.263336
32
244.605179
13
-8.306138
23
248.263336
33
244.605179
0
3DFACE
8
0
70
0
10
-11.634057
20
244.971588
30
243.040039
11
-11.624314
21
249.645096
31
244.623077
12
-8.306138
22
248.263336
32
244.605179
13
-8.306138
23
248.263336
33
244.605179
0
3DFACE
8
0
70
0
10
27.834194
20
187.668045
30
272.507538
11
31.434366
21
196.057449
31
239.635513
12
26.851463
22
247.585297
32
240.285309
13
24.131779
23
222.255219
33
268.872955
0
3DFACE
8
0
70
0
10
-27.700369
20
187.745438
30
272.511627
11
-23.885765
21
222.344620
31
268.879456
12
-26.494150
22
247.701859
32
240.295471
13
-31.272024
23
196.151733
33
239.640945
0
3DFACE
8
0
70
0
10
49.129383
20
-50.057621
30
-58.853844
11
46.791050
21
7.313748
31
-58.247158
12
53.289631
22
5.264824
32
-53.879475
13
56.113060
23
-50.057621
33
-58.853844
0
3DFACE
8
0
70
0
10
46.791050
20
7.313748
30
-58.247158
11
49.129383
21
-50.057621
31
-58.853844
12
42.762276
22
-50.199734
32
-58.853844
13
39.859703
23
5.604132
33
-54.602787
0
3DFACE
8
0
70
0
10
42.762276
20
-50.199734
30
-58.853844
11
45.095093
21
-50.207546
31
-58.853844
12
41.845032
22
4.117661
32
-51.434093
13
39.859703
23
5.604132
33
-54.602787
0
3DFACE
8
0
70
0
10
53.289631
20
5.264824
30
-53.879475
11
65.047142
21
-4.666607
31
3.262992
12
65.047142
22
-52.850094
32
-9.367262
13
56.113060
23
-50.057621
33
-58.853844
0
3DFACE
8
0
70
0
10
45.095093
20
-50.207546
30
-58.853844
11
49.129383
21
-51.946312
31
-9.367262
12
38.621033
22
-5.588583
32
8.027564
13
41.845032
23
4.117661
33
-51.434093
0
3DFACE
8
0
70
0
10
65.076958
20
77.752739
30
24.743685
11
28.428034
21
39.377960
31
24.900375
12
38.621033
22
-5.588583
32
8.027564
13
65.047142
23
-4.666607
33
3.262992
0
3DFACE
8
0
70
0
10
-46.791050
20
7.313748
30
-58.247158
11
-39.859703
21
5.604132
31
-54.602787
12
-42.762276
22
-50.199734
32
-58.853844
13
-49.129383
23
-50.057621
33
-58.853844
0
3DFACE
8
0
70
0
10
-39.859703
20
5.604132
30
-54.602787
11
-38.110901
21
43.167973
31
-38.732292
12
-40.097710
22
33.464478
32
-24.281689
13
-41.845032
23
4.117661
33
-51.434093
0
3DFACE
8
0
70
0
10
-53.289631
20
5.264824
30
-53.879475
11
-56.113060
21
-50.057621
31
-58.853844
12
-65.047142
22
-52.850094
32
-9.367262
13
-65.047142
23
-4.666607
33
3.262992
0
3DFACE
8
0
70
0
10
-45.095093
20
-50.207546
30
-58.853844
11
-41.845032
21
4.117661
31
-51.434093
12
-38.621033
22
-5.588583
32
8.027564
13
-49.129383
23
-51.946312
33
-9.367262
0
3DFACE
8
0
70
0
10
-65.047142
20
-4.666607
30
3.262992
11
-65.047142
21
-52.850094
31
-9.367262
12
-49.129383
22
-51.946312
32
-9.367262
13
-38.621033
23
-5.588583
33
8.027564
0
3DFACE
8
0
70
0
10
43.575436
20
90.351570
30
-54.108799
11
73.914429
21
80.884048
31
-25.059174
12
53.289631
22
5.264824
32
-53.879475
13
46.791050
23
7.313748
33
-58.247158
0
3DFACE
8
0
70
0
10
43.575436
20
90.351570
30
-54.108799
11
46.791050
21
7.313748
31
-58.247158
12
39.859703
22
5.604132
32
-54.602787
13
37.992031
23
43.181110
33
-38.825756
0
3DFACE
8
0
70
0
10
37.992031
20
43.181110
30
-38.825756
11
39.859703
21
5.604132
31
-54.602787
12
41.845032
22
4.117661
32
-51.434093
13
40.097710
23
33.464478
33
-24.281689
0
3DFACE
8
0
70
0
10
65.076958
20
77.752739
30
24.743685
11
65.047142
21
-4.666607
31
3.262992
12
53.289631
22
5.264824
32
-53.879475
13
73.914429
23
80.884048
33
-25.059174
0
3DFACE
8
0
70
0
10
38.621033
20
-5.588583
30
8.027564
11
28.428034
21
39.377960
31
24.900375
12
40.097710
22
33.464478
32
-24.281689
13
41.845032
23
4.117661
33
-51.434093
0
3DFACE
8
0
70
0
10
65.047142
20
-4.666607
30
3.262992
11
38.621033
21
-5.588583
31
8.027564
12
49.129383
22
-51.946312
32
-9.367262
13
65.047142
23
-52.850094
33
-9.367262
0
3DFACE
8
0
70
0
10
-43.735554
20
90.336494
30
-54.001575
11
-46.791050
21
7.313748
31
-58.247158
12
-53.289631
22
5.264824
32
-53.879475
13
-74.001541
23
80.858536
33
-24.877522
0
3DFACE
8
0
70
0
10
-49.129383
20
-50.057621
30
-58.853844
11
-56.113060
21
-50.057621
31
-58.853844
12
-53.289631
22
5.264824
32
-53.879475
13
-46.791050
23
7.313748
33
-58.247158
0
3DFACE
8
0
70
0
10
-43.735554
20
90.336494
30
-54.001575
11
-38.110901
21
43.167973
31
-38.732292
12
-39.859703
22
5.604132
32
-54.602787
13
-46.791050
23
7.313748
33
-58.247158
0
3DFACE
8
0
70
0
10
-42.762276
20
-50.199734
30
-58.853844
11
-39.859703
21
5.604132
31
-54.602787
12
-41.845032
22
4.117661
32
-51.434093
13
-45.095093
23
-50.207546
33
-58.853844
0
3DFACE
8
0
70
0
10
-65.040001
20
77.730278
30
24.903481
11
-74.001541
21
80.858536
31
-24.877522
12
-53.289631
22
5.264824
32
-53.879475
13
-65.047142
23
-4.666607
33
3.262992
0
3DFACE
8
0
70
0
10
-38.621033
20
-5.588583
30
8.027564
11
-41.845032
21
4.117661
31
-51.434093
12
-40.097710
22
33.464478
32
-24.281689
13
-28.428034
23
39.377960
33
24.900375
0
3DFACE
8
0
70
0
10
-65.040001
20
77.730278
30
24.903481
11
-65.047142
21
-4.666607
31
3.262992
12
-38.621033
22
-5.588583
32
8.027564
13
-28.428034
23
39.377960
33
24.900375
0
3DFACE
8
0
70
0
10
32.119606
20
174.588547
30
160.818161
11
0.058875
21
179.706024
31
156.233841
12
0.159488
22
235.552734
32
189.112534
13
20.641865
23
235.037033
33
196.828415
0
3DFACE
8
0
70
0
10
32.119606
20
174.588547
30
160.818161
11
20.641865
21
235.037033
31
196.828415
12
23.631657
22
206.325912
32
196.603149
13
34.725830
23
155.606842
33
177.957245
0
3DFACE
8
0
70
0
10
34.725830
20
155.606842
30
177.957245
11
23.631657
21
206.325912
31
196.603149
12
0.043468
22
166.967941
32
204.304321
13
0.017137
23
139.636078
33
198.894623
0
3DFACE
8
0
70
0
10
-32.015423
20
174.663269
30
160.821457
11
-20.327011
21
235.119690
31
196.834991
12
0.159488
22
235.552734
32
189.112534
13
0.058875
23
179.706024
33
156.233841
0
3DFACE
8
0
70
0
10
-32.015423
20
174.663269
30
160.821457
11
-34.664703
21
155.669586
31
177.959366
12
-23.429211
22
206.402924
32
196.608002
13
-20.327011
23
235.119690
33
196.834991
0
3DFACE
8
0
70
0
10
-34.664703
20
155.669586
30
177.959366
11
0.017137
21
139.636078
31
198.894623
12
0.043468
22
166.967941
32
204.304321
13
-23.429211
23
206.402924
33
196.608002
0
3DFACE
8
0
70
0
10
56.007500
20
57.224762
30
144.522125
11
42.762276
21
117.356255
31
125.560699
12
38.258263
22
149.230820
32
144.738327
13
43.121399
23
117.359398
33
163.772614
0
3DFACE
8
0
70
0
10
0.028346
20
154.207809
30
140.273926
11
-38.210621
21
149.290955
31
144.740082
12
-32.015423
22
174.663269
32
160.821457
13
0.058875
23
179.706024
33
156.233841
0
3DFACE
8
0
70
0
10
-56.007500
20
57.224762
30
144.522125
11
-43.113182
21
117.387962
31
163.772964
12
-38.210621
22
149.290955
32
144.740082
13
-42.762276
23
117.356255
33
125.560699
0
3DFACE
8
0
70
0
10
-56.007500
20
57.224762
30
144.522125
11
0.000000
21
53.775246
31
185.605026
12
0.000000
22
93.448120
32
195.097977
13
-43.113182
23
117.387962
33
163.772964
0
3DFACE
8
0
70
0
10
0.028346
20
154.207809
30
140.273926
11
0.058875
21
179.706024
31
156.233841
12
32.119606
22
174.588547
32
160.818161
13
38.258263
23
149.230820
33
144.738327
0
3DFACE
8
0
70
0
10
42.762276
20
117.356255
30
125.560699
11
0.000000
21
133.626480
31
127.203873
12
0.028346
22
154.207809
32
140.273926
13
38.258263
23
149.230820
33
144.738327
0
3DFACE
8
0
70
0
10
38.258263
20
149.230820
30
144.738327
11
32.119606
21
174.588547
31
160.818161
12
34.725830
22
155.606842
32
177.957245
13
43.121399
23
117.359398
33
163.772614
0
3DFACE
8
0
70
0
10
43.121399
20
117.359398
30
163.772614
11
34.725830
21
155.606842
31
177.957245
12
0.017137
22
139.636078
32
198.894623
13
0.000000
23
93.448120
33
195.097977
0
3DFACE
8
0
70
0
10
56.007500
20
57.224762
30
144.522125
11
43.121399
21
117.359398
31
163.772614
12
0.000000
22
93.448120
32
195.097977
13
0.000000
23
53.775246
33
185.605026
0
3DFACE
8
0
70
0
10
-42.762276
20
117.356255
30
125.560699
11
-38.210621
21
149.290955
31
144.740082
12
0.028346
22
154.207809
32
140.273926
13
0.000000
23
133.626480
33
127.203873
0
3DFACE
8
0
70
0
10
-43.113182
20
117.387962
30
163.772964
11
-34.664703
21
155.669586
31
177.959366
12
-32.015423
22
174.663269
32
160.821457
13
-38.210621
23
149.290955
33
144.740082
0
3DFACE
8
0
70
0
10
-43.113182
20
117.387962
30
163.772964
11
0.000000
21
93.448120
31
195.097977
12
0.017137
22
139.636078
32
198.894623
13
-34.664703
23
155.669586
33
177.959366
0
3DFACE
8
0
70
0
10
7.099710
20
251.772583
30
206.898117
11
18.622120
21
248.481323
31
206.801102
12
58.867928
22
279.775391
32
190.384140
13
50.764950
23
280.441376
33
190.790085
0
3DFACE
8
0
70
0
10
-58.329029
20
280.076691
30
190.416092
11
-18.249910
21
248.562119
31
206.808167
12
-6.712214
22
251.803436
32
206.900864
13
-50.222656
23
280.701721
33
190.817795
0
ENDSEC
0
EOF
