0
SECTION
2
HEADER
999
DXF File Generated by LightWave 3D(TM)
0
ENDSEC
0
SECTION
2
TABLES
0
ENDSEC
0
SECTION
2
BLOCKS
0
ENDSEC
0
SECTION
2
ENTITIES
0
3DFACE
8
0
70
0
10
0.000000
20
-3.471979
30
145.009964
11
25.234350
21
3.230157
31
131.290817
12
56.196556
22
55.719395
32
145.009964
13
0.000000
23
52.294697
33
186.231537
0
3DFACE
8
0
70
0
10
0.000000
20
146.416183
30
347.507202
11
9.470640
21
149.830902
31
347.568054
12
8.187212
22
160.063660
32
348.692902
13
0.000000
23
161.578583
33
349.026154
0
3DFACE
8
0
70
0
10
0.000000
20
53.949993
30
-57.654053
11
0.000000
21
109.905540
31
-66.753639
12
43.795223
22
105.466805
32
-50.008175
13
38.173256
23
56.235767
33
-46.071136
0
3DFACE
8
0
70
0
10
0.000000
20
136.434860
30
-82.687889
11
0.000000
21
146.900848
31
-79.820045
12
2.859728
22
146.099548
32
-80.024933
13
3.333484
23
137.594757
33
-82.355362
0
3DFACE
8
0
70
0
10
49.295223
20
122.119080
30
22.690958
11
0.000000
21
136.315933
31
26.536282
12
0.000000
22
128.258881
32
94.318336
13
45.408913
23
117.720940
33
94.560432
0
3DFACE
8
0
70
0
10
0.000000
20
128.258881
30
94.318336
11
0.000000
21
131.571411
31
127.633255
12
42.906624
22
115.418251
32
125.984535
13
45.408913
23
117.720940
33
94.560432
0
3DFACE
8
0
70
0
10
28.523993
20
38.000999
30
24.984426
11
65.266708
21
75.036530
31
24.274269
12
56.653183
22
55.676239
32
95.513779
13
24.486109
23
7.469818
33
96.463905
0
3DFACE
8
0
70
0
10
65.923241
20
-150.661942
30
96.585533
11
46.624783
21
-150.661942
31
150.681351
12
29.868767
22
-150.661942
32
135.365356
13
36.034225
23
-150.661942
33
97.794746
0
3DFACE
8
0
70
0
10
65.266708
20
75.036530
30
24.274269
11
49.295223
21
122.119080
31
22.690958
12
45.408913
22
117.720940
32
94.560432
13
56.653183
23
55.676239
33
95.513779
0
3DFACE
8
0
70
0
10
56.653183
20
55.676239
30
95.513779
11
45.408913
21
117.720940
31
94.560432
12
42.906624
22
115.418251
32
125.984535
13
56.196556
23
55.719395
33
145.009964
0
3DFACE
8
0
70
0
10
0.000000
20
30.152712
30
24.984426
11
28.523993
21
38.000999
31
24.984426
12
24.486109
22
7.469818
32
96.463905
13
0.000000
23
-2.828100
33
96.700493
0
3DFACE
8
0
70
0
10
0.000000
20
-2.828100
30
96.700493
11
24.486109
21
7.469818
31
96.463905
12
25.234350
22
3.230157
32
131.290817
13
0.000000
23
-3.471979
33
145.009964
0
3DFACE
8
0
70
0
10
0.000000
20
135.984039
30
-12.246383
11
40.100159
21
127.325584
31
-14.379678
12
38.173256
22
125.986420
32
-39.794308
13
0.000000
23
133.695221
33
-48.670109
0
3DFACE
8
0
70
0
10
0.000000
20
136.315933
30
26.536282
11
49.295223
21
122.119080
31
22.690958
12
40.100159
22
127.325584
32
-14.379678
13
0.000000
23
135.984039
33
-12.246383
0
3DFACE
8
0
70
0
10
63.951813
20
-149.428482
30
-44.216232
11
38.034466
21
-149.910507
31
-44.199200
12
32.547047
22
-149.885391
32
-44.726196
13
47.524258
23
-149.428482
33
-44.941952
0
3DFACE
8
0
70
0
10
84.967278
20
-150.886948
30
25.625065
11
47.524258
21
-151.225952
31
25.625065
12
38.034466
22
-149.910507
32
-44.199200
13
63.951813
23
-149.428482
33
-44.216232
0
3DFACE
8
0
70
0
10
74.194695
20
89.570076
30
-23.743523
11
43.795223
21
105.466805
31
-50.008175
12
38.173256
22
125.986420
32
-39.794308
13
40.100159
23
127.325584
33
-14.379678
0
3DFACE
8
0
70
0
10
49.295223
20
122.119080
30
22.690958
11
65.266708
21
75.036530
31
24.274269
12
74.194695
22
89.570076
32
-23.743523
13
40.100159
23
127.325584
33
-14.379678
0
3DFACE
8
0
70
0
10
0.000000
20
23.010893
30
-24.154150
11
0.000000
21
53.949993
31
-57.654053
12
38.173256
22
56.235767
32
-46.071136
13
40.233059
23
32.130062
33
-24.363651
0
3DFACE
8
0
70
0
10
28.523993
20
38.000999
30
24.984426
11
0.000000
21
30.152712
31
24.984426
12
0.000000
22
23.010893
32
-24.154150
13
40.233059
23
32.130062
33
-24.363651
0
3DFACE
8
0
70
0
10
58.325031
20
-81.079384
30
-71.694298
11
48.546730
21
-81.079384
31
-72.886246
12
49.295223
22
-50.791096
32
-59.052505
13
56.302471
23
-50.791096
33
-59.052505
0
3DFACE
8
0
70
0
10
39.631725
20
-81.427803
30
-72.531883
11
42.906624
21
-50.932190
31
-59.052505
12
49.295223
22
-50.791096
32
-59.052505
13
48.546730
23
-81.079384
33
-72.886246
0
3DFACE
8
0
70
0
10
42.898041
20
-81.446922
30
-71.666321
11
45.247314
21
-50.939945
31
-59.052505
12
42.906624
22
-50.932190
32
-59.052505
13
39.631725
23
-81.427803
33
-72.531883
0
3DFACE
8
0
70
0
10
70.834236
20
-81.128525
30
-38.768208
11
58.325031
21
-81.079384
31
-71.694298
12
56.302471
22
-50.791096
32
-59.052505
13
65.266708
23
-53.563477
33
-9.398881
0
3DFACE
8
0
70
0
10
48.546730
20
-81.492790
30
-38.768208
11
49.295223
21
-52.666199
31
-9.398881
12
45.247314
22
-50.939945
32
-59.052505
13
42.898041
23
-81.446922
33
-71.666321
0
3DFACE
8
0
70
0
10
48.546730
20
-81.492790
30
-38.768208
11
70.834236
21
-81.128525
31
-38.768208
12
65.266708
22
-53.563477
32
-9.398881
13
49.295223
23
-52.666199
33
-9.398881
0
3DFACE
8
0
70
0
10
58.325031
20
-108.038940
30
-48.444614
11
48.546730
21
-108.038940
31
-48.593609
12
48.546730
22
-81.079384
32
-72.886246
13
58.325031
23
-81.079384
33
-71.694298
0
3DFACE
8
0
70
0
10
39.631725
20
-108.425362
30
-48.549316
11
39.631725
21
-81.427803
31
-72.531883
12
48.546730
22
-81.079384
32
-72.886246
13
48.546730
23
-108.038940
33
-48.593609
0
3DFACE
8
0
70
0
10
42.898041
20
-108.446587
30
-48.441116
11
42.898041
21
-81.446922
31
-71.666321
12
39.631725
22
-81.427803
32
-72.531883
13
39.631725
23
-108.425362
33
-48.549316
0
3DFACE
8
0
70
0
10
70.834236
20
-108.832977
30
-17.764330
11
58.325031
21
-108.038940
31
-48.444614
12
58.325031
22
-81.079384
32
-71.694298
13
70.834236
23
-81.128525
33
-38.768208
0
3DFACE
8
0
70
0
10
48.546730
20
-109.197235
30
-17.764330
11
48.546730
21
-81.492790
31
-38.768208
12
42.898041
22
-81.446922
32
-71.666321
13
42.898041
23
-108.446587
33
-48.441116
0
3DFACE
8
0
70
0
10
48.546730
20
-109.197235
30
-17.764330
11
70.834236
21
-108.832977
31
-17.764330
12
70.834236
22
-81.128525
32
-38.768208
13
48.546730
23
-81.492790
33
-38.768208
0
3DFACE
8
0
70
0
10
63.951813
20
-149.428482
30
-44.216232
11
47.524258
21
-149.428482
31
-44.941952
12
48.546730
22
-108.038940
32
-48.593609
13
58.325031
23
-108.038940
33
-48.444614
0
3DFACE
8
0
70
0
10
32.547047
20
-149.885391
30
-44.726196
11
39.631725
21
-108.425362
31
-48.549316
12
48.546730
22
-108.038940
32
-48.593609
13
47.524258
23
-149.428482
33
-44.941952
0
3DFACE
8
0
70
0
10
38.034466
20
-149.910507
30
-44.199200
11
42.898041
21
-108.446587
31
-48.441116
12
39.631725
22
-108.425362
32
-48.549316
13
32.547047
23
-149.885391
33
-44.726196
0
3DFACE
8
0
70
0
10
84.967278
20
-150.886948
30
25.625065
11
63.951813
21
-149.428482
31
-44.216232
12
58.325031
22
-108.038940
32
-48.444614
13
70.834236
23
-108.832977
33
-17.764330
0
3DFACE
8
0
70
0
10
47.524258
20
-151.225952
30
25.625065
11
48.546730
21
-109.197235
31
-17.764330
12
42.898041
22
-108.446587
32
-48.441116
13
38.034466
23
-149.910507
33
-44.199200
0
3DFACE
8
0
70
0
10
47.524258
20
-151.225952
30
25.625065
11
84.967278
21
-150.886948
31
25.625065
12
70.834236
22
-108.832977
32
-17.764330
13
48.546730
23
-109.197235
33
-17.764330
0
3DFACE
8
0
70
0
10
45.257339
20
-61.071785
30
114.612930
11
24.486109
21
7.469818
31
96.463905
12
56.653183
22
55.676239
32
95.513779
13
56.653183
23
-61.071785
33
114.185379
0
3DFACE
8
0
70
0
10
45.257339
20
-61.071785
30
114.612930
11
42.906624
21
-61.071785
31
127.897224
12
25.234350
22
3.230157
32
131.290817
13
24.486109
23
7.469818
33
96.463905
0
3DFACE
8
0
70
0
10
42.906624
20
-61.071785
30
127.897224
11
49.295223
21
-61.071785
31
133.312683
12
56.196556
22
55.719395
32
145.009964
13
25.234350
23
3.230157
33
131.290817
0
3DFACE
8
0
70
0
10
49.295223
20
-61.071785
30
133.312683
11
56.653183
21
-61.071785
31
114.185379
12
56.653183
22
55.676239
32
95.513779
13
56.196556
23
55.719395
33
145.009964
0
3DFACE
8
0
70
0
10
39.380428
20
-96.551674
30
97.956123
11
45.257339
21
-61.071785
31
114.612930
12
56.653183
22
-61.071785
32
114.185379
13
57.385864
23
-96.551674
33
97.280579
0
3DFACE
8
0
70
0
10
35.666298
20
-96.551674
30
118.945290
11
42.906624
21
-61.071785
31
127.897224
12
45.257339
22
-61.071785
32
114.612930
13
39.380428
23
-96.551674
33
97.956123
0
3DFACE
8
0
70
0
10
45.760284
20
-96.551674
30
127.501717
11
49.295223
21
-61.071785
31
133.312683
12
42.906624
22
-61.071785
32
127.897224
13
35.666298
23
-96.551674
33
118.945290
0
3DFACE
8
0
70
0
10
45.760284
20
-96.551674
30
127.501717
11
57.385864
21
-96.551674
31
97.280579
12
56.653183
22
-61.071785
32
114.185379
13
49.295223
23
-61.071785
33
133.312683
0
3DFACE
8
0
70
0
10
36.034225
20
-150.661942
30
97.794746
11
39.380428
21
-96.551674
31
97.956123
12
57.385864
22
-96.551674
32
97.280579
13
65.923241
23
-150.661942
33
96.585533
0
3DFACE
8
0
70
0
10
29.868767
20
-150.661942
30
135.365356
11
35.666298
21
-96.551674
31
118.945290
12
39.380428
22
-96.551674
32
97.956123
13
36.034225
23
-150.661942
33
97.794746
0
3DFACE
8
0
70
0
10
46.624783
20
-150.661942
30
150.681351
11
45.760284
21
-96.551674
31
127.501717
12
35.666298
22
-96.551674
32
118.945290
13
29.868767
23
-150.661942
33
135.365356
0
3DFACE
8
0
70
0
10
46.624783
20
-150.661942
30
150.681351
11
65.923241
21
-150.661942
31
96.585533
12
57.385864
22
-96.551674
32
97.280579
13
45.760284
23
-96.551674
33
127.501717
0
3DFACE
8
0
70
0
10
0.000000
20
145.530579
30
254.312271
11
0.000000
21
141.353485
31
238.031311
12
23.602554
22
181.096985
32
234.666290
13
35.789284
23
169.299744
33
252.926895
0
3DFACE
8
0
70
0
10
8.187212
20
160.063660
30
348.692902
11
24.080034
21
188.987213
31
308.545013
12
0.000000
22
194.077515
32
309.321930
13
0.000000
23
161.578583
33
349.026154
0
3DFACE
8
0
70
0
10
9.470640
20
149.830902
30
347.568054
11
27.854828
21
154.442703
31
308.378754
12
24.080034
22
188.987213
32
308.545013
13
8.187212
23
160.063660
33
348.692902
0
3DFACE
8
0
70
0
10
0.000000
20
146.416183
30
347.507202
11
0.000000
21
143.161789
31
307.341522
12
27.854828
22
154.442703
32
308.378754
13
9.470640
23
149.830902
33
347.568054
0
3DFACE
8
0
70
0
10
49.297295
20
244.680832
30
244.329987
11
50.162544
21
228.489502
31
242.340881
12
46.443863
22
229.342422
32
237.364502
13
46.064518
23
234.888809
33
238.038849
0
3DFACE
8
0
70
0
10
33.588100
20
195.386566
30
256.100891
11
35.789284
21
169.299744
31
252.926895
12
23.602554
22
181.096985
32
234.666290
13
21.751177
23
198.242661
33
236.710709
0
3DFACE
8
0
70
0
10
46.064518
20
234.888809
30
238.038849
11
20.543692
21
209.425217
31
238.044083
12
30.833929
22
228.026855
32
260.072266
13
49.297295
23
244.680832
33
244.329987
0
3DFACE
8
0
70
0
10
46.443863
20
229.342422
30
237.364502
11
21.751177
21
198.242661
31
236.710709
12
20.543692
22
209.425217
32
238.044083
13
46.064518
23
234.888809
33
238.038849
0
3DFACE
8
0
70
0
10
50.162544
20
228.489502
30
242.340881
11
33.588100
21
195.386566
31
256.100891
12
21.751177
22
198.242661
32
236.710709
13
46.443863
23
229.342422
33
237.364502
0
3DFACE
8
0
70
0
10
50.162544
20
228.489502
30
242.340881
11
49.297295
21
244.680832
31
244.329987
12
30.833929
22
228.026855
32
260.072266
13
33.588100
23
195.386566
33
256.100891
0
3DFACE
8
0
70
0
10
18.487617
20
221.613510
30
249.474121
11
6.925127
21
224.827499
31
249.927673
12
0.000000
22
236.816132
32
261.306854
13
30.833929
23
228.026855
33
260.072266
0
3DFACE
8
0
70
0
10
7.748694
20
215.335846
30
238.232254
11
0.000000
21
210.731979
31
230.392181
12
0.000000
22
236.816132
32
261.306854
13
6.925127
23
224.827499
33
249.927673
0
3DFACE
8
0
70
0
10
14.886034
20
214.844635
30
241.140640
11
20.543692
21
209.425217
31
238.044083
12
0.000000
22
210.731979
32
230.392181
13
7.748694
23
215.335846
33
238.232254
0
3DFACE
8
0
70
0
10
14.886034
20
214.844635
30
241.140640
11
18.487617
21
221.613510
31
249.474121
12
30.833929
22
228.026855
32
260.072266
13
20.543692
23
209.425217
33
238.044083
0
3DFACE
8
0
70
0
10
49.965714
20
297.592224
30
211.754578
11
52.565525
21
294.862091
31
210.579422
12
51.337543
22
292.542053
32
210.204575
13
46.742897
23
294.436462
33
211.882370
0
3DFACE
8
0
70
0
10
6.925127
20
224.827499
30
249.927673
11
50.622543
21
254.987778
31
237.028763
12
52.399681
22
246.006943
32
229.851746
13
7.748694
23
215.335846
33
238.232254
0
3DFACE
8
0
70
0
10
57.408005
20
247.803055
30
231.287109
11
52.399681
21
246.006943
31
229.851746
12
59.864582
22
254.165665
32
226.526321
13
64.869171
23
257.784790
33
227.004532
0
3DFACE
8
0
70
0
10
50.622543
20
254.987778
30
237.028763
11
57.264008
21
262.422821
31
232.430176
12
59.864582
22
254.165665
32
226.526321
13
52.399681
23
246.006943
33
229.851746
0
3DFACE
8
0
70
0
10
89.247963
20
264.292328
30
204.550140
11
89.063248
21
263.087433
31
201.816635
12
88.525047
22
267.610046
32
202.247635
13
88.254265
23
268.853790
33
204.691238
0
3DFACE
8
0
70
0
10
18.487617
20
221.613510
30
249.474121
11
14.886034
21
214.844635
31
241.140640
12
57.408005
22
247.803055
32
231.287109
13
58.748203
23
254.394623
33
236.554749
0
3DFACE
8
0
70
0
10
58.748203
20
254.394623
30
236.554749
11
65.490334
21
264.572479
31
230.910507
12
57.264008
22
262.422821
32
232.430176
13
50.622543
23
254.987778
33
237.028763
0
3DFACE
8
0
70
0
10
14.886034
20
214.844635
30
241.140640
11
7.748694
21
215.335846
31
238.232254
12
52.399681
22
246.006943
32
229.851746
13
57.408005
23
247.803055
33
231.287109
0
3DFACE
8
0
70
0
10
55.870377
20
281.623535
30
221.462860
11
55.175003
21
288.489532
31
217.658478
12
51.682281
22
283.650604
32
218.342560
13
51.351543
23
280.613037
33
220.358444
0
3DFACE
8
0
70
0
10
65.490334
20
264.572479
30
230.910507
11
55.870377
21
281.623535
31
221.462860
12
51.351543
22
280.613037
32
220.358444
13
57.264008
23
262.422821
33
232.430176
0
3DFACE
8
0
70
0
10
57.705181
20
278.694183
30
218.261032
11
56.071655
21
277.440369
31
216.890625
12
56.850544
22
281.861816
32
215.060196
13
57.944077
23
285.545410
33
215.396133
0
3DFACE
8
0
70
0
10
64.869171
20
257.784790
30
227.004532
11
59.864582
21
254.165665
31
226.526321
12
56.071655
22
277.440369
32
216.890625
13
57.705181
23
278.694183
33
218.261032
0
3DFACE
8
0
70
0
10
36.955421
20
281.815521
30
208.094498
11
35.334682
21
284.077728
31
210.271057
12
36.415146
22
285.575470
32
209.653091
13
38.583450
23
283.794006
33
207.764709
0
3DFACE
8
0
70
0
10
59.864582
20
254.165665
30
226.526321
11
57.264008
21
262.422821
31
232.430176
12
51.351543
22
280.613037
32
220.358444
13
56.071655
23
277.440369
33
216.890625
0
3DFACE
8
0
70
0
10
55.870377
20
281.623535
30
221.462860
11
57.705181
21
278.694183
31
218.261032
12
57.944077
22
285.545410
32
215.396133
13
55.175003
23
288.489532
33
217.658478
0
3DFACE
8
0
70
0
10
64.869171
20
257.784790
30
227.004532
11
57.705181
21
278.694183
31
218.261032
12
55.870377
22
281.623535
32
221.462860
13
65.490334
23
264.572479
33
230.910507
0
3DFACE
8
0
70
0
10
53.081402
20
292.147888
30
215.285721
11
49.965714
21
297.592224
31
211.754578
12
46.742897
22
294.436462
32
211.882370
13
48.341110
23
290.946564
33
213.972672
0
3DFACE
8
0
70
0
10
51.682281
20
283.650604
30
218.342560
11
48.341110
21
290.946564
31
213.972672
12
53.175957
22
288.980560
32
211.823776
13
56.850544
23
281.861816
33
215.060196
0
3DFACE
8
0
70
0
10
56.850544
20
281.861816
30
215.060196
11
53.175957
21
288.980560
31
211.823776
12
55.316818
22
290.096283
32
213.043335
13
57.944077
23
285.545410
33
215.396133
0
3DFACE
8
0
70
0
10
64.323128
20
286.849030
30
200.748413
11
61.861752
21
289.663055
31
201.308746
12
61.349636
22
290.284943
32
203.656006
13
63.489468
23
287.947540
33
203.466599
0
3DFACE
8
0
70
0
10
51.682281
20
283.650604
30
218.342560
11
55.175003
21
288.489532
31
217.658478
12
53.081402
22
292.147888
32
215.285721
13
48.341110
23
290.946564
33
213.972672
0
3DFACE
8
0
70
0
10
48.341110
20
290.946564
30
213.972672
11
46.742897
21
294.436462
31
211.882370
12
51.337543
22
292.542053
32
210.204575
13
53.175957
23
288.980560
33
211.823776
0
3DFACE
8
0
70
0
10
55.316818
20
290.096283
30
213.043335
11
53.175957
21
288.980560
31
211.823776
12
51.337543
22
292.542053
32
210.204575
13
52.565525
23
294.862091
33
210.579422
0
3DFACE
8
0
70
0
10
53.081402
20
292.147888
30
215.285721
11
55.316818
21
290.096283
31
213.043335
12
52.565525
22
294.862091
32
210.579422
13
49.965714
23
297.592224
33
211.754578
0
3DFACE
8
0
70
0
10
58.748203
20
254.394623
30
236.554749
11
62.598759
21
252.681992
31
234.289383
12
68.680283
22
261.830841
32
229.205231
13
65.490334
23
264.572479
33
230.910507
0
3DFACE
8
0
70
0
10
65.490334
20
264.572479
30
230.910507
11
68.680283
21
261.830841
31
229.205231
12
68.116745
22
255.719421
32
225.695023
13
64.869171
23
257.784790
33
227.004532
0
3DFACE
8
0
70
0
10
64.869171
20
257.784790
30
227.004532
11
68.116745
21
255.719421
31
225.695023
12
61.389126
22
246.746658
32
229.553040
13
57.408005
23
247.803055
33
231.287109
0
3DFACE
8
0
70
0
10
57.408005
20
247.803055
30
231.287109
11
61.389126
21
246.746658
31
229.553040
12
62.598759
22
252.681992
32
234.289383
13
58.748203
23
254.394623
33
236.554749
0
3DFACE
8
0
70
0
10
62.598759
20
252.681992
30
234.289383
11
68.556953
21
249.138260
31
231.438873
12
71.135727
22
259.158752
32
228.133957
13
68.680283
23
261.830841
33
229.205231
0
3DFACE
8
0
70
0
10
68.680283
20
261.830841
30
229.205231
11
71.135727
21
259.158752
31
228.133957
12
71.373322
22
254.365112
32
223.936935
13
68.116745
23
255.719421
33
225.695023
0
3DFACE
8
0
70
0
10
68.116745
20
255.719421
30
225.695023
11
71.373322
21
254.365112
31
223.936935
12
68.012543
22
244.542892
32
226.277618
13
61.389126
23
246.746658
33
229.553040
0
3DFACE
8
0
70
0
10
61.389126
20
246.746658
30
229.553040
11
68.012543
21
244.542892
31
226.277618
12
68.556953
22
249.138260
32
231.438873
13
62.598759
23
252.681992
33
234.289383
0
3DFACE
8
0
70
0
10
68.556953
20
249.138260
30
231.438873
11
73.845322
21
249.322952
31
226.877426
12
72.552277
22
258.989899
32
226.453690
13
71.135727
23
259.158752
33
228.133957
0
3DFACE
8
0
70
0
10
71.135727
20
259.158752
30
228.133957
11
72.552277
21
258.989899
31
226.453690
12
73.134560
22
256.018921
32
221.557327
13
71.373322
23
254.365112
33
223.936935
0
3DFACE
8
0
70
0
10
71.373322
20
254.365112
30
223.936935
11
73.134560
21
256.018921
31
221.557327
12
73.513901
22
246.466553
32
221.323273
13
68.012543
23
244.542892
33
226.277618
0
3DFACE
8
0
70
0
10
68.012543
20
244.542892
30
226.277618
11
73.513901
21
246.466553
31
221.323273
12
73.845322
22
249.322952
32
226.877426
13
68.556953
23
249.138260
33
231.438873
0
3DFACE
8
0
70
0
10
73.845322
20
249.322952
30
226.877426
11
76.348816
21
251.240128
31
223.543961
12
74.798256
22
259.889252
32
223.509033
13
72.552277
23
258.989899
33
226.453690
0
3DFACE
8
0
70
0
10
72.552277
20
258.989899
30
226.453690
11
74.798256
21
259.889252
31
223.509033
12
75.318977
22
257.394318
32
218.995987
13
73.134560
23
256.018921
33
221.557327
0
3DFACE
8
0
70
0
10
73.134560
20
256.018921
30
221.557327
11
75.318977
21
257.394318
31
218.995987
12
76.027809
22
248.832779
32
218.464127
13
73.513901
23
246.466553
33
221.323273
0
3DFACE
8
0
70
0
10
73.513901
20
246.466553
30
221.323273
11
76.027809
21
248.832779
31
218.464127
12
76.348816
22
251.240128
32
223.543961
13
73.845322
23
249.322952
33
226.877426
0
3DFACE
8
0
70
0
10
76.348816
20
251.240128
30
223.543961
11
78.804611
21
252.675446
31
220.555466
12
77.409111
22
260.459686
32
220.524033
13
74.798256
23
259.889252
33
223.509033
0
3DFACE
8
0
70
0
10
74.798256
20
259.889252
30
223.509033
11
77.409111
21
260.459686
31
220.524033
12
77.877769
22
258.214172
32
216.462311
13
75.318977
23
257.394318
33
218.995987
0
3DFACE
8
0
70
0
10
75.318977
20
257.394318
30
218.995987
11
77.877769
21
258.214172
31
216.462311
12
78.515724
22
250.508896
32
215.983627
13
76.027809
23
248.832779
33
218.464127
0
3DFACE
8
0
70
0
10
76.027809
20
248.832779
30
218.464127
11
78.515724
21
250.508896
31
215.983627
12
78.804611
22
252.675446
32
220.555466
13
76.348816
23
251.240128
33
223.543961
0
3DFACE
8
0
70
0
10
78.804611
20
252.675446
30
220.555466
11
81.448303
21
254.525314
31
217.172409
12
79.548698
22
261.362183
32
217.771744
13
77.409111
23
260.459686
33
220.524033
0
3DFACE
8
0
70
0
10
77.409111
20
260.459686
30
220.524033
11
79.548698
21
261.362183
31
217.771744
12
79.935165
22
259.663300
32
213.948639
13
77.877769
23
258.214172
33
216.462311
0
3DFACE
8
0
70
0
10
77.877769
20
258.214172
30
216.462311
11
79.935165
21
259.663300
31
213.948639
12
81.122849
22
252.865692
32
212.934082
13
78.515724
23
250.508896
33
215.983627
0
3DFACE
8
0
70
0
10
78.515724
20
250.508896
30
215.983627
11
81.122849
21
252.865692
31
212.934082
12
81.448303
22
254.525314
32
217.172409
13
78.804611
23
252.675446
33
220.555466
0
3DFACE
8
0
70
0
10
81.448303
20
254.525314
30
217.172409
11
83.489998
21
256.648834
31
214.123230
12
81.263657
22
262.561218
32
215.230591
13
79.548698
23
261.362183
33
217.771744
0
3DFACE
8
0
70
0
10
79.548698
20
261.362183
30
217.771744
11
81.263657
21
262.561218
31
215.230591
12
81.545784
22
261.321533
32
211.667084
13
79.935165
23
259.663300
33
213.948639
0
3DFACE
8
0
70
0
10
79.935165
20
259.663300
30
213.948639
11
81.545784
21
261.321533
31
211.667084
12
83.109917
22
255.411407
32
210.223694
13
81.122849
23
252.865692
33
212.934082
0
3DFACE
8
0
70
0
10
81.122849
20
252.865692
30
212.934082
11
83.109917
21
255.411407
31
210.223694
12
83.489998
22
256.648834
32
214.123230
13
81.448303
23
254.525314
33
217.172409
0
3DFACE
8
0
70
0
10
83.489998
20
256.648834
30
214.123230
11
85.238373
21
259.544861
31
210.851456
12
83.145988
22
264.811981
32
211.953308
13
81.263657
23
262.561218
33
215.230591
0
3DFACE
8
0
70
0
10
81.263657
20
262.561218
30
215.230591
11
83.145988
21
264.811981
31
211.953308
12
83.384140
22
263.749573
32
208.726486
13
81.545784
23
261.321533
33
211.667084
0
3DFACE
8
0
70
0
10
81.545784
20
261.321533
30
211.667084
11
83.384140
21
263.749573
31
208.726486
12
84.877174
22
258.477905
32
207.328995
13
83.109917
23
255.411407
33
210.223694
0
3DFACE
8
0
70
0
10
83.109917
20
255.411407
30
210.223694
11
84.877174
21
258.477905
31
207.328995
12
85.238373
22
259.544861
32
210.851456
13
83.489998
23
256.648834
33
214.123230
0
3DFACE
8
0
70
0
10
85.238373
20
259.544861
30
210.851456
11
87.141693
21
262.435852
31
207.464600
12
85.667999
22
267.385986
32
207.994644
13
83.145988
23
264.811981
33
211.953308
0
3DFACE
8
0
70
0
10
83.145988
20
264.811981
30
211.953308
11
85.667999
21
267.385986
31
207.994644
12
85.941101
22
266.195129
32
205.185654
13
83.384140
23
263.749573
33
208.726486
0
3DFACE
8
0
70
0
10
83.384140
20
263.749573
30
208.726486
11
85.941101
21
266.195129
31
205.185654
12
86.891930
22
261.268402
32
204.359238
13
84.877174
23
258.477905
33
207.328995
0
3DFACE
8
0
70
0
10
84.877174
20
258.477905
30
207.328995
11
86.891930
21
261.268402
31
204.359238
12
87.141693
22
262.435852
32
207.464600
13
85.238373
23
259.544861
33
210.851456
0
3DFACE
8
0
70
0
10
87.141693
20
262.435852
30
207.464600
11
89.247963
21
264.292328
31
204.550140
12
88.254265
22
268.853790
32
204.691238
13
85.667999
23
267.385986
33
207.994644
0
3DFACE
8
0
70
0
10
85.667999
20
267.385986
30
207.994644
11
88.254265
21
268.853790
31
204.691238
12
88.525047
22
267.610046
32
202.247635
13
85.941101
23
266.195129
33
205.185654
0
3DFACE
8
0
70
0
10
85.941101
20
266.195129
30
205.185654
11
88.525047
21
267.610046
31
202.247635
12
89.063248
22
263.087433
32
201.816635
13
86.891930
23
261.268402
33
204.359238
0
3DFACE
8
0
70
0
10
86.891930
20
261.268402
30
204.359238
11
89.063248
21
263.087433
31
201.816635
12
89.247963
22
264.292328
32
204.550140
13
87.141693
23
262.435852
33
207.464600
0
3DFACE
8
0
70
0
10
56.071655
20
277.440369
30
216.890625
11
51.572720
21
276.238190
31
215.156006
12
52.728737
22
280.197357
32
213.730423
13
56.850544
23
281.861816
33
215.060196
0
3DFACE
8
0
70
0
10
56.850544
20
281.861816
30
215.060196
11
52.728737
21
280.197357
31
213.730423
12
48.218861
22
282.141296
32
216.698776
13
51.682281
23
283.650604
33
218.342560
0
3DFACE
8
0
70
0
10
51.682281
20
283.650604
30
218.342560
11
48.218861
21
282.141296
31
216.698776
12
47.594078
22
279.367920
32
218.362274
13
51.351543
23
280.613037
33
220.358444
0
3DFACE
8
0
70
0
10
51.351543
20
280.613037
30
220.358444
11
47.594078
21
279.367920
31
218.362274
12
51.572720
22
276.238190
32
215.156006
13
56.071655
23
277.440369
33
216.890625
0
3DFACE
8
0
70
0
10
51.572720
20
276.238190
30
215.156006
11
48.689106
21
276.271942
31
213.974976
12
49.997608
22
279.793640
32
212.827393
13
52.728737
23
280.197357
33
213.730423
0
3DFACE
8
0
70
0
10
52.728737
20
280.197357
30
213.730423
11
49.997608
21
279.793640
31
212.827393
12
46.040848
22
281.734222
32
215.517242
13
48.218861
23
282.141296
33
216.698776
0
3DFACE
8
0
70
0
10
48.218861
20
282.141296
30
216.698776
11
46.040848
21
281.734222
31
215.517242
12
45.282837
22
279.235718
32
216.920761
13
47.594078
23
279.367920
33
218.362274
0
3DFACE
8
0
70
0
10
47.594078
20
279.367920
30
218.362274
11
45.282837
21
279.235718
31
216.920761
12
48.689106
22
276.271942
32
213.974976
13
51.572720
23
276.238190
33
215.156006
0
3DFACE
8
0
70
0
10
48.689106
20
276.271942
30
213.974976
11
45.036663
21
276.003723
31
212.452332
12
47.105038
22
278.826019
32
211.903320
13
49.997608
23
279.793640
33
212.827393
0
3DFACE
8
0
70
0
10
49.997608
20
279.793640
30
212.827393
11
47.105038
21
278.826019
31
211.903320
12
44.015598
22
281.167847
32
214.454803
13
46.040848
23
281.734222
33
215.517242
0
3DFACE
8
0
70
0
10
46.040848
20
281.734222
30
215.517242
11
44.015598
21
281.167847
31
214.454803
12
42.662128
22
279.057037
32
215.373352
13
45.282837
23
279.235718
33
216.920761
0
3DFACE
8
0
70
0
10
45.282837
20
279.235718
30
216.920761
11
42.662128
21
279.057037
31
215.373352
12
45.036663
22
276.003723
32
212.452332
13
48.689106
23
276.271942
33
213.974976
0
3DFACE
8
0
70
0
10
45.036663
20
276.003723
30
212.452332
11
41.301949
21
278.510406
31
210.424377
12
44.008301
22
280.216980
32
210.470337
13
47.105038
23
278.826019
33
211.903320
0
3DFACE
8
0
70
0
10
47.105038
20
278.826019
30
211.903320
11
44.008301
21
280.216980
31
210.470337
12
41.993748
22
282.793518
32
213.059067
13
44.015598
23
281.167847
33
214.454803
0
3DFACE
8
0
70
0
10
44.015598
20
281.167847
30
214.454803
11
41.993748
21
282.793518
31
213.059067
12
40.088383
22
281.377411
32
213.477753
13
42.662128
23
279.057037
33
215.373352
0
3DFACE
8
0
70
0
10
42.662128
20
279.057037
30
215.373352
11
40.088383
21
281.377411
31
213.477753
12
41.301949
22
278.510406
32
210.424377
13
45.036663
23
276.003723
33
212.452332
0
3DFACE
8
0
70
0
10
41.301949
20
278.510406
30
210.424377
11
39.241405
21
280.843689
31
209.211594
12
41.479095
22
282.648407
32
209.114502
13
44.008301
23
280.216980
33
210.470337
0
3DFACE
8
0
70
0
10
44.008301
20
280.216980
30
210.470337
11
41.479095
21
282.648407
31
209.114502
12
39.440041
22
284.871368
32
211.351303
13
41.993748
23
282.793518
33
213.059067
0
3DFACE
8
0
70
0
10
41.993748
20
282.793518
30
213.059067
11
39.440041
21
284.871368
31
211.351303
12
37.893673
22
283.432068
32
211.835602
13
40.088383
23
281.377411
33
213.477753
0
3DFACE
8
0
70
0
10
40.088383
20
281.377411
30
213.477753
11
37.893673
21
283.432068
31
211.835602
12
39.241405
22
280.843689
32
209.211594
13
41.301949
23
278.510406
33
210.424377
0
3DFACE
8
0
70
0
10
39.241405
20
280.843689
30
209.211594
11
36.955421
21
281.815521
31
208.094498
12
38.583450
22
283.794006
32
207.764709
13
41.479095
23
282.648407
33
209.114502
0
3DFACE
8
0
70
0
10
41.479095
20
282.648407
30
209.114502
11
38.583450
21
283.794006
31
207.764709
12
36.415146
22
285.575470
32
209.653091
13
39.440041
23
284.871368
33
211.351303
0
3DFACE
8
0
70
0
10
39.440041
20
284.871368
30
211.351303
11
36.415146
21
285.575470
31
209.653091
12
35.334682
22
284.077728
32
210.271057
13
37.893673
23
283.432068
33
211.835602
0
3DFACE
8
0
70
0
10
37.893673
20
283.432068
30
211.835602
11
35.334682
21
284.077728
31
210.271057
12
36.955421
22
281.815521
32
208.094498
13
39.241405
23
280.843689
33
209.211594
0
3DFACE
8
0
70
0
10
57.944077
20
285.545410
30
215.396133
11
60.917786
21
285.076477
31
212.160278
12
58.586052
22
287.540375
32
214.587341
13
55.175003
23
288.489532
33
217.658478
0
3DFACE
8
0
70
0
10
55.175003
20
288.489532
30
217.658478
11
58.586052
21
287.540375
31
214.587341
12
56.407803
22
290.881592
32
212.844971
13
53.081402
23
292.147888
33
215.285721
0
3DFACE
8
0
70
0
10
53.081402
20
292.147888
30
215.285721
11
56.407803
21
290.881592
31
212.844971
12
58.243824
22
289.204163
32
210.530212
13
55.316818
23
290.096283
33
213.043335
0
3DFACE
8
0
70
0
10
55.316818
20
290.096283
30
213.043335
11
58.243824
21
289.204163
31
210.530212
12
60.917786
22
285.076477
32
212.160278
13
57.944077
23
285.545410
33
215.396133
0
3DFACE
8
0
70
0
10
60.917786
20
285.076477
30
212.160278
11
62.255955
21
285.374634
31
209.142166
12
60.653652
22
287.146576
32
212.044662
13
58.586052
23
287.540375
33
214.587341
0
3DFACE
8
0
70
0
10
58.586052
20
287.540375
30
214.587341
11
60.653652
21
287.146576
31
212.044662
12
58.221508
22
290.151520
32
211.412369
13
56.407803
23
290.881592
33
212.844971
0
3DFACE
8
0
70
0
10
56.407803
20
290.881592
30
212.844971
11
58.221508
21
290.151520
31
211.412369
12
59.382004
22
289.032898
32
208.809601
13
58.243824
23
289.204163
33
210.530212
0
3DFACE
8
0
70
0
10
58.243824
20
289.204163
30
210.530212
11
59.382004
21
289.032898
31
208.809601
12
62.255955
22
285.374634
32
209.142166
13
60.917786
23
285.076477
33
212.160278
0
3DFACE
8
0
70
0
10
62.255955
20
285.374634
30
209.142166
11
63.420002
21
286.156982
31
204.550644
12
62.396603
22
287.443573
32
207.510910
13
60.653652
23
287.146576
33
212.044662
0
3DFACE
8
0
70
0
10
60.653652
20
287.146576
30
212.044662
11
62.396603
21
287.443573
31
207.510910
12
60.039490
22
290.066162
32
207.584213
13
58.221508
23
290.151520
33
211.412369
0
3DFACE
8
0
70
0
10
58.221508
20
290.151520
30
211.412369
11
60.039490
21
290.066162
31
207.584213
12
60.696232
22
289.320190
32
205.012482
13
59.382004
23
289.032898
33
208.809601
0
3DFACE
8
0
70
0
10
59.382004
20
289.032898
30
208.809601
11
60.696232
21
289.320190
31
205.012482
12
63.420002
22
286.156982
32
204.550644
13
62.255955
23
285.374634
33
209.142166
0
3DFACE
8
0
70
0
10
63.420002
20
286.156982
30
204.550644
11
64.323128
21
286.849030
31
200.748413
12
63.489468
22
287.947540
32
203.466599
13
62.396603
23
287.443573
33
207.510910
0
3DFACE
8
0
70
0
10
62.396603
20
287.443573
30
207.510910
11
63.489468
21
287.947540
31
203.466599
12
61.349636
22
290.284943
32
203.656006
13
60.039490
23
290.066162
33
207.584213
0
3DFACE
8
0
70
0
10
60.039490
20
290.066162
30
207.584213
11
61.349636
21
290.284943
31
203.656006
12
61.861752
22
289.663055
32
201.308746
13
60.696232
23
289.320190
33
205.012482
0
3DFACE
8
0
70
0
10
60.696232
20
289.320190
30
205.012482
11
61.861752
21
289.663055
31
201.308746
12
64.323128
22
286.849030
32
200.748413
13
63.420002
23
286.156982
33
204.550644
0
3DFACE
8
0
70
0
10
0.000000
20
-3.471979
30
145.009964
11
0.000000
21
52.294697
31
186.231537
12
-56.196556
22
55.719395
32
145.009964
13
-25.234350
23
3.230157
33
131.290817
0
3DFACE
8
0
70
0
10
0.000000
20
146.416183
30
347.507202
11
0.000000
21
161.578583
31
349.026154
12
-8.187212
22
160.063660
32
348.692902
13
-9.470640
23
149.830902
33
347.568054
0
3DFACE
8
0
70
0
10
0.000000
20
53.949993
30
-57.654053
11
-38.173256
21
56.235767
31
-46.071136
12
-43.795223
22
105.466805
32
-50.008175
13
0.000000
23
109.905540
33
-66.753639
0
3DFACE
8
0
70
0
10
0.000000
20
136.434860
30
-82.687889
11
-3.333484
21
137.594757
31
-82.355362
12
-2.859728
22
146.099548
32
-80.024933
13
0.000000
23
146.900848
33
-79.820045
0
3DFACE
8
0
70
0
10
-49.295223
20
122.119080
30
22.690958
11
-45.408913
21
117.720940
31
94.560432
12
0.000000
22
128.258881
32
94.318336
13
0.000000
23
136.315933
33
26.536282
0
3DFACE
8
0
70
0
10
0.000000
20
128.258881
30
94.318336
11
-45.408913
21
117.720940
31
94.560432
12
-42.906624
22
115.418251
32
125.984535
13
0.000000
23
131.571411
33
127.633255
0
3DFACE
8
0
70
0
10
-28.523993
20
38.000999
30
24.984426
11
-24.486109
21
7.469818
31
96.463905
12
-56.653183
22
55.676239
32
95.513779
13
-65.266708
23
75.036530
33
24.274269
0
3DFACE
8
0
70
0
10
-65.923241
20
-150.661942
30
96.585533
11
-36.034225
21
-150.661942
31
97.794746
12
-29.868767
22
-150.661942
32
135.365356
13
-46.624783
23
-150.661942
33
150.681351
0
3DFACE
8
0
70
0
10
-65.266708
20
75.036530
30
24.274269
11
-56.653183
21
55.676239
31
95.513779
12
-45.408913
22
117.720940
32
94.560432
13
-49.295223
23
122.119080
33
22.690958
0
3DFACE
8
0
70
0
10
-56.653183
20
55.676239
30
95.513779
11
-56.196556
21
55.719395
31
145.009964
12
-42.906624
22
115.418251
32
125.984535
13
-45.408913
23
117.720940
33
94.560432
0
3DFACE
8
0
70
0
10
0.000000
20
30.152712
30
24.984426
11
0.000000
21
-2.828100
31
96.700493
12
-24.486109
22
7.469818
32
96.463905
13
-28.523993
23
38.000999
33
24.984426
0
3DFACE
8
0
70
0
10
0.000000
20
-2.828100
30
96.700493
11
0.000000
21
-3.471979
31
145.009964
12
-25.234350
22
3.230157
32
131.290817
13
-24.486109
23
7.469818
33
96.463905
0
3DFACE
8
0
70
0
10
0.000000
20
135.984039
30
-12.246383
11
0.000000
21
133.695221
31
-48.670109
12
-38.173256
22
125.986420
32
-39.794308
13
-40.100159
23
127.325584
33
-14.379678
0
3DFACE
8
0
70
0
10
0.000000
20
136.315933
30
26.536282
11
0.000000
21
135.984039
31
-12.246383
12
-40.100159
22
127.325584
32
-14.379678
13
-49.295223
23
122.119080
33
22.690958
0
3DFACE
8
0
70
0
10
-63.951813
20
-149.428482
30
-44.216232
11
-47.524258
21
-149.428482
31
-44.941952
12
-32.547047
22
-149.885391
32
-44.726196
13
-38.034466
23
-149.910507
33
-44.199200
0
3DFACE
8
0
70
0
10
-84.967278
20
-150.886948
30
25.625065
11
-63.951813
21
-149.428482
31
-44.216232
12
-38.034466
22
-149.910507
32
-44.199200
13
-47.524258
23
-151.225952
33
25.625065
0
3DFACE
8
0
70
0
10
-74.194695
20
89.570076
30
-23.743523
11
-40.100159
21
127.325584
31
-14.379678
12
-38.173256
22
125.986420
32
-39.794308
13
-43.795223
23
105.466805
33
-50.008175
0
3DFACE
8
0
70
0
10
-49.295223
20
122.119080
30
22.690958
11
-40.100159
21
127.325584
31
-14.379678
12
-74.194695
22
89.570076
32
-23.743523
13
-65.266708
23
75.036530
33
24.274269
0
3DFACE
8
0
70
0
10
0.000000
20
23.010893
30
-24.154150
11
-40.233059
21
32.130062
31
-24.363651
12
-38.173256
22
56.235767
32
-46.071136
13
0.000000
23
53.949993
33
-57.654053
0
3DFACE
8
0
70
0
10
-28.523993
20
38.000999
30
24.984426
11
-40.233059
21
32.130062
31
-24.363651
12
0.000000
22
23.010893
32
-24.154150
13
0.000000
23
30.152712
33
24.984426
0
3DFACE
8
0
70
0
10
-58.325031
20
-81.079384
30
-71.694298
11
-56.302471
21
-50.791096
31
-59.052505
12
-49.295223
22
-50.791096
32
-59.052505
13
-48.546730
23
-81.079384
33
-72.886246
0
3DFACE
8
0
70
0
10
-39.631725
20
-81.427803
30
-72.531883
11
-48.546730
21
-81.079384
31
-72.886246
12
-49.295223
22
-50.791096
32
-59.052505
13
-42.906624
23
-50.932190
33
-59.052505
0
3DFACE
8
0
70
0
10
-42.898041
20
-81.446922
30
-71.666321
11
-39.631725
21
-81.427803
31
-72.531883
12
-42.906624
22
-50.932190
32
-59.052505
13
-45.247314
23
-50.939945
33
-59.052505
0
3DFACE
8
0
70
0
10
-70.834236
20
-81.128525
30
-38.768208
11
-65.266708
21
-53.563477
31
-9.398881
12
-56.302471
22
-50.791096
32
-59.052505
13
-58.325031
23
-81.079384
33
-71.694298
0
3DFACE
8
0
70
0
10
-48.546730
20
-81.492790
30
-38.768208
11
-42.898041
21
-81.446922
31
-71.666321
12
-45.247314
22
-50.939945
32
-59.052505
13
-49.295223
23
-52.666199
33
-9.398881
0
3DFACE
8
0
70
0
10
-48.546730
20
-81.492790
30
-38.768208
11
-49.295223
21
-52.666199
31
-9.398881
12
-65.266708
22
-53.563477
32
-9.398881
13
-70.834236
23
-81.128525
33
-38.768208
0
3DFACE
8
0
70
0
10
-58.325031
20
-108.038940
30
-48.444614
11
-58.325031
21
-81.079384
31
-71.694298
12
-48.546730
22
-81.079384
32
-72.886246
13
-48.546730
23
-108.038940
33
-48.593609
0
3DFACE
8
0
70
0
10
-39.631725
20
-108.425362
30
-48.549316
11
-48.546730
21
-108.038940
31
-48.593609
12
-48.546730
22
-81.079384
32
-72.886246
13
-39.631725
23
-81.427803
33
-72.531883
0
3DFACE
8
0
70
0
10
-42.898041
20
-108.446587
30
-48.441116
11
-39.631725
21
-108.425362
31
-48.549316
12
-39.631725
22
-81.427803
32
-72.531883
13
-42.898041
23
-81.446922
33
-71.666321
0
3DFACE
8
0
70
0
10
-70.834236
20
-108.832977
30
-17.764330
11
-70.834236
21
-81.128525
31
-38.768208
12
-58.325031
22
-81.079384
32
-71.694298
13
-58.325031
23
-108.038940
33
-48.444614
0
3DFACE
8
0
70
0
10
-48.546730
20
-109.197235
30
-17.764330
11
-42.898041
21
-108.446587
31
-48.441116
12
-42.898041
22
-81.446922
32
-71.666321
13
-48.546730
23
-81.492790
33
-38.768208
0
3DFACE
8
0
70
0
10
-48.546730
20
-109.197235
30
-17.764330
11
-48.546730
21
-81.492790
31
-38.768208
12
-70.834236
22
-81.128525
32
-38.768208
13
-70.834236
23
-108.832977
33
-17.764330
0
3DFACE
8
0
70
0
10
-63.951813
20
-149.428482
30
-44.216232
11
-58.325031
21
-108.038940
31
-48.444614
12
-48.546730
22
-108.038940
32
-48.593609
13
-47.524258
23
-149.428482
33
-44.941952
0
3DFACE
8
0
70
0
10
-32.547047
20
-149.885391
30
-44.726196
11
-47.524258
21
-149.428482
31
-44.941952
12
-48.546730
22
-108.038940
32
-48.593609
13
-39.631725
23
-108.425362
33
-48.549316
0
3DFACE
8
0
70
0
10
-38.034466
20
-149.910507
30
-44.199200
11
-32.547047
21
-149.885391
31
-44.726196
12
-39.631725
22
-108.425362
32
-48.549316
13
-42.898041
23
-108.446587
33
-48.441116
0
3DFACE
8
0
70
0
10
-84.967278
20
-150.886948
30
25.625065
11
-70.834236
21
-108.832977
31
-17.764330
12
-58.325031
22
-108.038940
32
-48.444614
13
-63.951813
23
-149.428482
33
-44.216232
0
3DFACE
8
0
70
0
10
-47.524258
20
-151.225952
30
25.625065
11
-38.034466
21
-149.910507
31
-44.199200
12
-42.898041
22
-108.446587
32
-48.441116
13
-48.546730
23
-109.197235
33
-17.764330
0
3DFACE
8
0
70
0
10
-47.524258
20
-151.225952
30
25.625065
11
-48.546730
21
-109.197235
31
-17.764330
12
-70.834236
22
-108.832977
32
-17.764330
13
-84.967278
23
-150.886948
33
25.625065
0
3DFACE
8
0
70
0
10
-45.257339
20
-61.071785
30
114.612930
11
-56.653183
21
-61.071785
31
114.185379
12
-56.653183
22
55.676239
32
95.513779
13
-24.486109
23
7.469818
33
96.463905
0
3DFACE
8
0
70
0
10
-45.257339
20
-61.071785
30
114.612930
11
-24.486109
21
7.469818
31
96.463905
12
-25.234350
22
3.230157
32
131.290817
13
-42.906624
23
-61.071785
33
127.897224
0
3DFACE
8
0
70
0
10
-42.906624
20
-61.071785
30
127.897224
11
-25.234350
21
3.230157
31
131.290817
12
-56.196556
22
55.719395
32
145.009964
13
-49.295223
23
-61.071785
33
133.312683
0
3DFACE
8
0
70
0
10
-49.295223
20
-61.071785
30
133.312683
11
-56.196556
21
55.719395
31
145.009964
12
-56.653183
22
55.676239
32
95.513779
13
-56.653183
23
-61.071785
33
114.185379
0
3DFACE
8
0
70
0
10
-39.380428
20
-96.551674
30
97.956123
11
-57.385864
21
-96.551674
31
97.280579
12
-56.653183
22
-61.071785
32
114.185379
13
-45.257339
23
-61.071785
33
114.612930
0
3DFACE
8
0
70
0
10
-35.666298
20
-96.551674
30
118.945290
11
-39.380428
21
-96.551674
31
97.956123
12
-45.257339
22
-61.071785
32
114.612930
13
-42.906624
23
-61.071785
33
127.897224
0
3DFACE
8
0
70
0
10
-45.760284
20
-96.551674
30
127.501717
11
-35.666298
21
-96.551674
31
118.945290
12
-42.906624
22
-61.071785
32
127.897224
13
-49.295223
23
-61.071785
33
133.312683
0
3DFACE
8
0
70
0
10
-45.760284
20
-96.551674
30
127.501717
11
-49.295223
21
-61.071785
31
133.312683
12
-56.653183
22
-61.071785
32
114.185379
13
-57.385864
23
-96.551674
33
97.280579
0
3DFACE
8
0
70
0
10
-36.034225
20
-150.661942
30
97.794746
11
-65.923241
21
-150.661942
31
96.585533
12
-57.385864
22
-96.551674
32
97.280579
13
-39.380428
23
-96.551674
33
97.956123
0
3DFACE
8
0
70
0
10
-29.868767
20
-150.661942
30
135.365356
11
-36.034225
21
-150.661942
31
97.794746
12
-39.380428
22
-96.551674
32
97.956123
13
-35.666298
23
-96.551674
33
118.945290
0
3DFACE
8
0
70
0
10
-46.624783
20
-150.661942
30
150.681351
11
-29.868767
21
-150.661942
31
135.365356
12
-35.666298
22
-96.551674
32
118.945290
13
-45.760284
23
-96.551674
33
127.501717
0
3DFACE
8
0
70
0
10
-46.624783
20
-150.661942
30
150.681351
11
-45.760284
21
-96.551674
31
127.501717
12
-57.385864
22
-96.551674
32
97.280579
13
-65.923241
23
-150.661942
33
96.585533
0
3DFACE
8
0
70
0
10
0.000000
20
145.530579
30
254.312271
11
-35.789284
21
169.299744
31
252.926895
12
-23.602554
22
181.096985
32
234.666290
13
0.000000
23
141.353485
33
238.031311
0
3DFACE
8
0
70
0
10
-8.187212
20
160.063660
30
348.692902
11
0.000000
21
161.578583
31
349.026154
12
0.000000
22
194.077515
32
309.321930
13
-24.080034
23
188.987213
33
308.545013
0
3DFACE
8
0
70
0
10
-9.470640
20
149.830902
30
347.568054
11
-8.187212
21
160.063660
31
348.692902
12
-24.080034
22
188.987213
32
308.545013
13
-27.854828
23
154.442703
33
308.378754
0
3DFACE
8
0
70
0
10
0.000000
20
146.416183
30
347.507202
11
-9.470640
21
149.830902
31
347.568054
12
-27.854828
22
154.442703
32
308.378754
13
0.000000
23
143.161789
33
307.341522
0
3DFACE
8
0
70
0
10
-49.297295
20
244.680832
30
244.329987
11
-46.064518
21
234.888809
31
238.038849
12
-46.443863
22
229.342422
32
237.364502
13
-50.162544
23
228.489502
33
242.340881
0
3DFACE
8
0
70
0
10
-33.588100
20
195.386566
30
256.100891
11
-21.751177
21
198.242661
31
236.710709
12
-23.602554
22
181.096985
32
234.666290
13
-35.789284
23
169.299744
33
252.926895
0
3DFACE
8
0
70
0
10
-46.064518
20
234.888809
30
238.038849
11
-49.297295
21
244.680832
31
244.329987
12
-30.833929
22
228.026855
32
260.072266
13
-20.543692
23
209.425217
33
238.044083
0
3DFACE
8
0
70
0
10
-46.443863
20
229.342422
30
237.364502
11
-46.064518
21
234.888809
31
238.038849
12
-20.543692
22
209.425217
32
238.044083
13
-21.751177
23
198.242661
33
236.710709
0
3DFACE
8
0
70
0
10
-50.162544
20
228.489502
30
242.340881
11
-46.443863
21
229.342422
31
237.364502
12
-21.751177
22
198.242661
32
236.710709
13
-33.588100
23
195.386566
33
256.100891
0
3DFACE
8
0
70
0
10
-50.162544
20
228.489502
30
242.340881
11
-33.588100
21
195.386566
31
256.100891
12
-30.833929
22
228.026855
32
260.072266
13
-49.297295
23
244.680832
33
244.329987
0
3DFACE
8
0
70
0
10
-18.487617
20
221.613510
30
249.474121
11
-30.833929
21
228.026855
31
260.072266
12
0.000000
22
236.816132
32
261.306854
13
-6.925127
23
224.827499
33
249.927673
0
3DFACE
8
0
70
0
10
-7.748694
20
215.335846
30
238.232254
11
-6.925127
21
224.827499
31
249.927673
12
0.000000
22
236.816132
32
261.306854
13
0.000000
23
210.731979
33
230.392181
0
3DFACE
8
0
70
0
10
-14.886034
20
214.844635
30
241.140640
11
-7.748694
21
215.335846
31
238.232254
12
0.000000
22
210.731979
32
230.392181
13
-20.543692
23
209.425217
33
238.044083
0
3DFACE
8
0
70
0
10
-14.886034
20
214.844635
30
241.140640
11
-20.543692
21
209.425217
31
238.044083
12
-30.833929
22
228.026855
32
260.072266
13
-18.487617
23
221.613510
33
249.474121
0
3DFACE
8
0
70
0
10
-49.965714
20
297.592224
30
211.754578
11
-46.742897
21
294.436462
31
211.882370
12
-51.337543
22
292.542053
32
210.204575
13
-52.565525
23
294.862091
33
210.579422
0
3DFACE
8
0
70
0
10
-6.925127
20
224.827499
30
249.927673
11
-7.748694
21
215.335846
31
238.232254
12
-52.399681
22
246.006943
32
229.851746
13
-50.622543
23
254.987778
33
237.028763
0
3DFACE
8
0
70
0
10
-57.408005
20
247.803055
30
231.287109
11
-64.869171
21
257.784790
31
227.004532
12
-59.864582
22
254.165665
32
226.526321
13
-52.399681
23
246.006943
33
229.851746
0
3DFACE
8
0
70
0
10
-50.622543
20
254.987778
30
237.028763
11
-52.399681
21
246.006943
31
229.851746
12
-59.864582
22
254.165665
32
226.526321
13
-57.264008
23
262.422821
33
232.430176
0
3DFACE
8
0
70
0
10
-89.247963
20
264.292328
30
204.550140
11
-88.254265
21
268.853790
31
204.691238
12
-88.525047
22
267.610046
32
202.247635
13
-89.063248
23
263.087433
33
201.816635
0
3DFACE
8
0
70
0
10
-18.487617
20
221.613510
30
249.474121
11
-58.748203
21
254.394623
31
236.554749
12
-57.408005
22
247.803055
32
231.287109
13
-14.886034
23
214.844635
33
241.140640
0
3DFACE
8
0
70
0
10
-58.748203
20
254.394623
30
236.554749
11
-50.622543
21
254.987778
31
237.028763
12
-57.264008
22
262.422821
32
232.430176
13
-65.490334
23
264.572479
33
230.910507
0
3DFACE
8
0
70
0
10
-14.886034
20
214.844635
30
241.140640
11
-57.408005
21
247.803055
31
231.287109
12
-52.399681
22
246.006943
32
229.851746
13
-7.748694
23
215.335846
33
238.232254
0
3DFACE
8
0
70
0
10
-55.870377
20
281.623535
30
221.462860
11
-51.351543
21
280.613037
31
220.358444
12
-51.682281
22
283.650604
32
218.342560
13
-55.175003
23
288.489532
33
217.658478
0
3DFACE
8
0
70
0
10
-65.490334
20
264.572479
30
230.910507
11
-57.264008
21
262.422821
31
232.430176
12
-51.351543
22
280.613037
32
220.358444
13
-55.870377
23
281.623535
33
221.462860
0
3DFACE
8
0
70
0
10
-57.705181
20
278.694183
30
218.261032
11
-57.944077
21
285.545410
31
215.396133
12
-56.850544
22
281.861816
32
215.060196
13
-56.071655
23
277.440369
33
216.890625
0
3DFACE
8
0
70
0
10
-64.869171
20
257.784790
30
227.004532
11
-57.705181
21
278.694183
31
218.261032
12
-56.071655
22
277.440369
32
216.890625
13
-59.864582
23
254.165665
33
226.526321
0
3DFACE
8
0
70
0
10
-36.955421
20
281.815521
30
208.094498
11
-38.583450
21
283.794006
31
207.764709
12
-36.415146
22
285.575470
32
209.653091
13
-35.334682
23
284.077728
33
210.271057
0
3DFACE
8
0
70
0
10
-59.864582
20
254.165665
30
226.526321
11
-56.071655
21
277.440369
31
216.890625
12
-51.351543
22
280.613037
32
220.358444
13
-57.264008
23
262.422821
33
232.430176
0
3DFACE
8
0
70
0
10
-55.870377
20
281.623535
30
221.462860
11
-55.175003
21
288.489532
31
217.658478
12
-57.944077
22
285.545410
32
215.396133
13
-57.705181
23
278.694183
33
218.261032
0
3DFACE
8
0
70
0
10
-64.869171
20
257.784790
30
227.004532
11
-65.490334
21
264.572479
31
230.910507
12
-55.870377
22
281.623535
32
221.462860
13
-57.705181
23
278.694183
33
218.261032
0
3DFACE
8
0
70
0
10
-53.081402
20
292.147888
30
215.285721
11
-48.341110
21
290.946564
31
213.972672
12
-46.742897
22
294.436462
32
211.882370
13
-49.965714
23
297.592224
33
211.754578
0
3DFACE
8
0
70
0
10
-51.682281
20
283.650604
30
218.342560
11
-56.850544
21
281.861816
31
215.060196
12
-53.175957
22
288.980560
32
211.823776
13
-48.341110
23
290.946564
33
213.972672
0
3DFACE
8
0
70
0
10
-56.850544
20
281.861816
30
215.060196
11
-57.944077
21
285.545410
31
215.396133
12
-55.316818
22
290.096283
32
213.043335
13
-53.175957
23
288.980560
33
211.823776
0
3DFACE
8
0
70
0
10
-64.323128
20
286.849030
30
200.748413
11
-63.489468
21
287.947540
31
203.466599
12
-61.349636
22
290.284943
32
203.656006
13
-61.861752
23
289.663055
33
201.308746
0
3DFACE
8
0
70
0
10
-51.682281
20
283.650604
30
218.342560
11
-48.341110
21
290.946564
31
213.972672
12
-53.081402
22
292.147888
32
215.285721
13
-55.175003
23
288.489532
33
217.658478
0
3DFACE
8
0
70
0
10
-48.341110
20
290.946564
30
213.972672
11
-53.175957
21
288.980560
31
211.823776
12
-51.337543
22
292.542053
32
210.204575
13
-46.742897
23
294.436462
33
211.882370
0
3DFACE
8
0
70
0
10
-55.316818
20
290.096283
30
213.043335
11
-52.565525
21
294.862091
31
210.579422
12
-51.337543
22
292.542053
32
210.204575
13
-53.175957
23
288.980560
33
211.823776
0
3DFACE
8
0
70
0
10
-53.081402
20
292.147888
30
215.285721
11
-49.965714
21
297.592224
31
211.754578
12
-52.565525
22
294.862091
32
210.579422
13
-55.316818
23
290.096283
33
213.043335
0
3DFACE
8
0
70
0
10
-58.748203
20
254.394623
30
236.554749
11
-65.490334
21
264.572479
31
230.910507
12
-68.680283
22
261.830841
32
229.205231
13
-62.598759
23
252.681992
33
234.289383
0
3DFACE
8
0
70
0
10
-65.490334
20
264.572479
30
230.910507
11
-64.869171
21
257.784790
31
227.004532
12
-68.116745
22
255.719421
32
225.695023
13
-68.680283
23
261.830841
33
229.205231
0
3DFACE
8
0
70
0
10
-64.869171
20
257.784790
30
227.004532
11
-57.408005
21
247.803055
31
231.287109
12
-61.389126
22
246.746658
32
229.553040
13
-68.116745
23
255.719421
33
225.695023
0
3DFACE
8
0
70
0
10
-57.408005
20
247.803055
30
231.287109
11
-58.748203
21
254.394623
31
236.554749
12
-62.598759
22
252.681992
32
234.289383
13
-61.389126
23
246.746658
33
229.553040
0
3DFACE
8
0
70
0
10
-62.598759
20
252.681992
30
234.289383
11
-68.680283
21
261.830841
31
229.205231
12
-71.135727
22
259.158752
32
228.133957
13
-68.556953
23
249.138260
33
231.438873
0
3DFACE
8
0
70
0
10
-68.680283
20
261.830841
30
229.205231
11
-68.116745
21
255.719421
31
225.695023
12
-71.373322
22
254.365112
32
223.936935
13
-71.135727
23
259.158752
33
228.133957
0
3DFACE
8
0
70
0
10
-68.116745
20
255.719421
30
225.695023
11
-61.389126
21
246.746658
31
229.553040
12
-68.012543
22
244.542892
32
226.277618
13
-71.373322
23
254.365112
33
223.936935
0
3DFACE
8
0
70
0
10
-61.389126
20
246.746658
30
229.553040
11
-62.598759
21
252.681992
31
234.289383
12
-68.556953
22
249.138260
32
231.438873
13
-68.012543
23
244.542892
33
226.277618
0
3DFACE
8
0
70
0
10
-68.556953
20
249.138260
30
231.438873
11
-71.135727
21
259.158752
31
228.133957
12
-72.552277
22
258.989899
32
226.453690
13
-73.845322
23
249.322952
33
226.877426
0
3DFACE
8
0
70
0
10
-71.135727
20
259.158752
30
228.133957
11
-71.373322
21
254.365112
31
223.936935
12
-73.134560
22
256.018921
32
221.557327
13
-72.552277
23
258.989899
33
226.453690
0
3DFACE
8
0
70
0
10
-71.373322
20
254.365112
30
223.936935
11
-68.012543
21
244.542892
31
226.277618
12
-73.513901
22
246.466553
32
221.323273
13
-73.134560
23
256.018921
33
221.557327
0
3DFACE
8
0
70
0
10
-68.012543
20
244.542892
30
226.277618
11
-68.556953
21
249.138260
31
231.438873
12
-73.845322
22
249.322952
32
226.877426
13
-73.513901
23
246.466553
33
221.323273
0
3DFACE
8
0
70
0
10
-73.845322
20
249.322952
30
226.877426
11
-72.552277
21
258.989899
31
226.453690
12
-74.798256
22
259.889252
32
223.509033
13
-76.348816
23
251.240128
33
223.543961
0
3DFACE
8
0
70
0
10
-72.552277
20
258.989899
30
226.453690
11
-73.134560
21
256.018921
31
221.557327
12
-75.318977
22
257.394318
32
218.995987
13
-74.798256
23
259.889252
33
223.509033
0
3DFACE
8
0
70
0
10
-73.134560
20
256.018921
30
221.557327
11
-73.513901
21
246.466553
31
221.323273
12
-76.027809
22
248.832779
32
218.464127
13
-75.318977
23
257.394318
33
218.995987
0
3DFACE
8
0
70
0
10
-73.513901
20
246.466553
30
221.323273
11
-73.845322
21
249.322952
31
226.877426
12
-76.348816
22
251.240128
32
223.543961
13
-76.027809
23
248.832779
33
218.464127
0
3DFACE
8
0
70
0
10
-76.348816
20
251.240128
30
223.543961
11
-74.798256
21
259.889252
31
223.509033
12
-77.409111
22
260.459686
32
220.524033
13
-78.804611
23
252.675446
33
220.555466
0
3DFACE
8
0
70
0
10
-74.798256
20
259.889252
30
223.509033
11
-75.318977
21
257.394318
31
218.995987
12
-77.877769
22
258.214172
32
216.462311
13
-77.409111
23
260.459686
33
220.524033
0
3DFACE
8
0
70
0
10
-75.318977
20
257.394318
30
218.995987
11
-76.027809
21
248.832779
31
218.464127
12
-78.515724
22
250.508896
32
215.983627
13
-77.877769
23
258.214172
33
216.462311
0
3DFACE
8
0
70
0
10
-76.027809
20
248.832779
30
218.464127
11
-76.348816
21
251.240128
31
223.543961
12
-78.804611
22
252.675446
32
220.555466
13
-78.515724
23
250.508896
33
215.983627
0
3DFACE
8
0
70
0
10
-78.804611
20
252.675446
30
220.555466
11
-77.409111
21
260.459686
31
220.524033
12
-79.548698
22
261.362183
32
217.771744
13
-81.448303
23
254.525314
33
217.172409
0
3DFACE
8
0
70
0
10
-77.409111
20
260.459686
30
220.524033
11
-77.877769
21
258.214172
31
216.462311
12
-79.935165
22
259.663300
32
213.948639
13
-79.548698
23
261.362183
33
217.771744
0
3DFACE
8
0
70
0
10
-77.877769
20
258.214172
30
216.462311
11
-78.515724
21
250.508896
31
215.983627
12
-81.122849
22
252.865692
32
212.934082
13
-79.935165
23
259.663300
33
213.948639
0
3DFACE
8
0
70
0
10
-78.515724
20
250.508896
30
215.983627
11
-78.804611
21
252.675446
31
220.555466
12
-81.448303
22
254.525314
32
217.172409
13
-81.122849
23
252.865692
33
212.934082
0
3DFACE
8
0
70
0
10
-81.448303
20
254.525314
30
217.172409
11
-79.548698
21
261.362183
31
217.771744
12
-81.263657
22
262.561218
32
215.230591
13
-83.489998
23
256.648834
33
214.123230
0
3DFACE
8
0
70
0
10
-79.548698
20
261.362183
30
217.771744
11
-79.935165
21
259.663300
31
213.948639
12
-81.545784
22
261.321533
32
211.667084
13
-81.263657
23
262.561218
33
215.230591
0
3DFACE
8
0
70
0
10
-79.935165
20
259.663300
30
213.948639
11
-81.122849
21
252.865692
31
212.934082
12
-83.109917
22
255.411407
32
210.223694
13
-81.545784
23
261.321533
33
211.667084
0
3DFACE
8
0
70
0
10
-81.122849
20
252.865692
30
212.934082
11
-81.448303
21
254.525314
31
217.172409
12
-83.489998
22
256.648834
32
214.123230
13
-83.109917
23
255.411407
33
210.223694
0
3DFACE
8
0
70
0
10
-83.489998
20
256.648834
30
214.123230
11
-81.263657
21
262.561218
31
215.230591
12
-83.145988
22
264.811981
32
211.953308
13
-85.238373
23
259.544861
33
210.851456
0
3DFACE
8
0
70
0
10
-81.263657
20
262.561218
30
215.230591
11
-81.545784
21
261.321533
31
211.667084
12
-83.384140
22
263.749573
32
208.726486
13
-83.145988
23
264.811981
33
211.953308
0
3DFACE
8
0
70
0
10
-81.545784
20
261.321533
30
211.667084
11
-83.109917
21
255.411407
31
210.223694
12
-84.877174
22
258.477905
32
207.328995
13
-83.384140
23
263.749573
33
208.726486
0
3DFACE
8
0
70
0
10
-83.109917
20
255.411407
30
210.223694
11
-83.489998
21
256.648834
31
214.123230
12
-85.238373
22
259.544861
32
210.851456
13
-84.877174
23
258.477905
33
207.328995
0
3DFACE
8
0
70
0
10
-85.238373
20
259.544861
30
210.851456
11
-83.145988
21
264.811981
31
211.953308
12
-85.667999
22
267.385986
32
207.994644
13
-87.141693
23
262.435852
33
207.464600
0
3DFACE
8
0
70
0
10
-83.145988
20
264.811981
30
211.953308
11
-83.384140
21
263.749573
31
208.726486
12
-85.941101
22
266.195129
32
205.185654
13
-85.667999
23
267.385986
33
207.994644
0
3DFACE
8
0
70
0
10
-83.384140
20
263.749573
30
208.726486
11
-84.877174
21
258.477905
31
207.328995
12
-86.891930
22
261.268402
32
204.359238
13
-85.941101
23
266.195129
33
205.185654
0
3DFACE
8
0
70
0
10
-84.877174
20
258.477905
30
207.328995
11
-85.238373
21
259.544861
31
210.851456
12
-87.141693
22
262.435852
32
207.464600
13
-86.891930
23
261.268402
33
204.359238
0
3DFACE
8
0
70
0
10
-87.141693
20
262.435852
30
207.464600
11
-85.667999
21
267.385986
31
207.994644
12
-88.254265
22
268.853790
32
204.691238
13
-89.247963
23
264.292328
33
204.550140
0
3DFACE
8
0
70
0
10
-85.667999
20
267.385986
30
207.994644
11
-85.941101
21
266.195129
31
205.185654
12
-88.525047
22
267.610046
32
202.247635
13
-88.254265
23
268.853790
33
204.691238
0
3DFACE
8
0
70
0
10
-85.941101
20
266.195129
30
205.185654
11
-86.891930
21
261.268402
31
204.359238
12
-89.063248
22
263.087433
32
201.816635
13
-88.525047
23
267.610046
33
202.247635
0
3DFACE
8
0
70
0
10
-86.891930
20
261.268402
30
204.359238
11
-87.141693
21
262.435852
31
207.464600
12
-89.247963
22
264.292328
32
204.550140
13
-89.063248
23
263.087433
33
201.816635
0
3DFACE
8
0
70
0
10
-56.071655
20
277.440369
30
216.890625
11
-56.850544
21
281.861816
31
215.060196
12
-52.728737
22
280.197357
32
213.730423
13
-51.572720
23
276.238190
33
215.156006
0
3DFACE
8
0
70
0
10
-56.850544
20
281.861816
30
215.060196
11
-51.682281
21
283.650604
31
218.342560
12
-48.218861
22
282.141296
32
216.698776
13
-52.728737
23
280.197357
33
213.730423
0
3DFACE
8
0
70
0
10
-51.682281
20
283.650604
30
218.342560
11
-51.351543
21
280.613037
31
220.358444
12
-47.594078
22
279.367920
32
218.362274
13
-48.218861
23
282.141296
33
216.698776
0
3DFACE
8
0
70
0
10
-51.351543
20
280.613037
30
220.358444
11
-56.071655
21
277.440369
31
216.890625
12
-51.572720
22
276.238190
32
215.156006
13
-47.594078
23
279.367920
33
218.362274
0
3DFACE
8
0
70
0
10
-51.572720
20
276.238190
30
215.156006
11
-52.728737
21
280.197357
31
213.730423
12
-49.997608
22
279.793640
32
212.827393
13
-48.689106
23
276.271942
33
213.974976
0
3DFACE
8
0
70
0
10
-52.728737
20
280.197357
30
213.730423
11
-48.218861
21
282.141296
31
216.698776
12
-46.040848
22
281.734222
32
215.517242
13
-49.997608
23
279.793640
33
212.827393
0
3DFACE
8
0
70
0
10
-48.218861
20
282.141296
30
216.698776
11
-47.594078
21
279.367920
31
218.362274
12
-45.282837
22
279.235718
32
216.920761
13
-46.040848
23
281.734222
33
215.517242
0
3DFACE
8
0
70
0
10
-47.594078
20
279.367920
30
218.362274
11
-51.572720
21
276.238190
31
215.156006
12
-48.689106
22
276.271942
32
213.974976
13
-45.282837
23
279.235718
33
216.920761
0
3DFACE
8
0
70
0
10
-48.689106
20
276.271942
30
213.974976
11
-49.997608
21
279.793640
31
212.827393
12
-47.105038
22
278.826019
32
211.903320
13
-45.036663
23
276.003723
33
212.452332
0
3DFACE
8
0
70
0
10
-49.997608
20
279.793640
30
212.827393
11
-46.040848
21
281.734222
31
215.517242
12
-44.015598
22
281.167847
32
214.454803
13
-47.105038
23
278.826019
33
211.903320
0
3DFACE
8
0
70
0
10
-46.040848
20
281.734222
30
215.517242
11
-45.282837
21
279.235718
31
216.920761
12
-42.662128
22
279.057037
32
215.373352
13
-44.015598
23
281.167847
33
214.454803
0
3DFACE
8
0
70
0
10
-45.282837
20
279.235718
30
216.920761
11
-48.689106
21
276.271942
31
213.974976
12
-45.036663
22
276.003723
32
212.452332
13
-42.662128
23
279.057037
33
215.373352
0
3DFACE
8
0
70
0
10
-45.036663
20
276.003723
30
212.452332
11
-47.105038
21
278.826019
31
211.903320
12
-44.008301
22
280.216980
32
210.470337
13
-41.301949
23
278.510406
33
210.424377
0
3DFACE
8
0
70
0
10
-47.105038
20
278.826019
30
211.903320
11
-44.015598
21
281.167847
31
214.454803
12
-41.993748
22
282.793518
32
213.059067
13
-44.008301
23
280.216980
33
210.470337
0
3DFACE
8
0
70
0
10
-44.015598
20
281.167847
30
214.454803
11
-42.662128
21
279.057037
31
215.373352
12
-40.088383
22
281.377411
32
213.477753
13
-41.993748
23
282.793518
33
213.059067
0
3DFACE
8
0
70
0
10
-42.662128
20
279.057037
30
215.373352
11
-45.036663
21
276.003723
31
212.452332
12
-41.301949
22
278.510406
32
210.424377
13
-40.088383
23
281.377411
33
213.477753
0
3DFACE
8
0
70
0
10
-41.301949
20
278.510406
30
210.424377
11
-44.008301
21
280.216980
31
210.470337
12
-41.479095
22
282.648407
32
209.114502
13
-39.241405
23
280.843689
33
209.211594
0
3DFACE
8
0
70
0
10
-44.008301
20
280.216980
30
210.470337
11
-41.993748
21
282.793518
31
213.059067
12
-39.440041
22
284.871368
32
211.351303
13
-41.479095
23
282.648407
33
209.114502
0
3DFACE
8
0
70
0
10
-41.993748
20
282.793518
30
213.059067
11
-40.088383
21
281.377411
31
213.477753
12
-37.893673
22
283.432068
32
211.835602
13
-39.440041
23
284.871368
33
211.351303
0
3DFACE
8
0
70
0
10
-40.088383
20
281.377411
30
213.477753
11
-41.301949
21
278.510406
31
210.424377
12
-39.241405
22
280.843689
32
209.211594
13
-37.893673
23
283.432068
33
211.835602
0
3DFACE
8
0
70
0
10
-39.241405
20
280.843689
30
209.211594
11
-41.479095
21
282.648407
31
209.114502
12
-38.583450
22
283.794006
32
207.764709
13
-36.955421
23
281.815521
33
208.094498
0
3DFACE
8
0
70
0
10
-41.479095
20
282.648407
30
209.114502
11
-39.440041
21
284.871368
31
211.351303
12
-36.415146
22
285.575470
32
209.653091
13
-38.583450
23
283.794006
33
207.764709
0
3DFACE
8
0
70
0
10
-39.440041
20
284.871368
30
211.351303
11
-37.893673
21
283.432068
31
211.835602
12
-35.334682
22
284.077728
32
210.271057
13
-36.415146
23
285.575470
33
209.653091
0
3DFACE
8
0
70
0
10
-37.893673
20
283.432068
30
211.835602
11
-39.241405
21
280.843689
31
209.211594
12
-36.955421
22
281.815521
32
208.094498
13
-35.334682
23
284.077728
33
210.271057
0
3DFACE
8
0
70
0
10
-57.944077
20
285.545410
30
215.396133
11
-55.175003
21
288.489532
31
217.658478
12
-58.586052
22
287.540375
32
214.587341
13
-60.917786
23
285.076477
33
212.160278
0
3DFACE
8
0
70
0
10
-55.175003
20
288.489532
30
217.658478
11
-53.081402
21
292.147888
31
215.285721
12
-56.407803
22
290.881592
32
212.844971
13
-58.586052
23
287.540375
33
214.587341
0
3DFACE
8
0
70
0
10
-53.081402
20
292.147888
30
215.285721
11
-55.316818
21
290.096283
31
213.043335
12
-58.243824
22
289.204163
32
210.530212
13
-56.407803
23
290.881592
33
212.844971
0
3DFACE
8
0
70
0
10
-55.316818
20
290.096283
30
213.043335
11
-57.944077
21
285.545410
31
215.396133
12
-60.917786
22
285.076477
32
212.160278
13
-58.243824
23
289.204163
33
210.530212
0
3DFACE
8
0
70
0
10
-60.917786
20
285.076477
30
212.160278
11
-58.586052
21
287.540375
31
214.587341
12
-60.653652
22
287.146576
32
212.044662
13
-62.255955
23
285.374634
33
209.142166
0
3DFACE
8
0
70
0
10
-58.586052
20
287.540375
30
214.587341
11
-56.407803
21
290.881592
31
212.844971
12
-58.221508
22
290.151520
32
211.412369
13
-60.653652
23
287.146576
33
212.044662
0
3DFACE
8
0
70
0
10
-56.407803
20
290.881592
30
212.844971
11
-58.243824
21
289.204163
31
210.530212
12
-59.382004
22
289.032898
32
208.809601
13
-58.221508
23
290.151520
33
211.412369
0
3DFACE
8
0
70
0
10
-58.243824
20
289.204163
30
210.530212
11
-60.917786
21
285.076477
31
212.160278
12
-62.255955
22
285.374634
32
209.142166
13
-59.382004
23
289.032898
33
208.809601
0
3DFACE
8
0
70
0
10
-62.255955
20
285.374634
30
209.142166
11
-60.653652
21
287.146576
31
212.044662
12
-62.396603
22
287.443573
32
207.510910
13
-63.420002
23
286.156982
33
204.550644
0
3DFACE
8
0
70
0
10
-60.653652
20
287.146576
30
212.044662
11
-58.221508
21
290.151520
31
211.412369
12
-60.039490
22
290.066162
32
207.584213
13
-62.396603
23
287.443573
33
207.510910
0
3DFACE
8
0
70
0
10
-58.221508
20
290.151520
30
211.412369
11
-59.382004
21
289.032898
31
208.809601
12
-60.696232
22
289.320190
32
205.012482
13
-60.039490
23
290.066162
33
207.584213
0
3DFACE
8
0
70
0
10
-59.382004
20
289.032898
30
208.809601
11
-62.255955
21
285.374634
31
209.142166
12
-63.420002
22
286.156982
32
204.550644
13
-60.696232
23
289.320190
33
205.012482
0
3DFACE
8
0
70
0
10
-63.420002
20
286.156982
30
204.550644
11
-62.396603
21
287.443573
31
207.510910
12
-63.489468
22
287.947540
32
203.466599
13
-64.323128
23
286.849030
33
200.748413
0
3DFACE
8
0
70
0
10
-62.396603
20
287.443573
30
207.510910
11
-60.039490
21
290.066162
31
207.584213
12
-61.349636
22
290.284943
32
203.656006
13
-63.489468
23
287.947540
33
203.466599
0
3DFACE
8
0
70
0
10
-60.039490
20
290.066162
30
207.584213
11
-60.696232
21
289.320190
31
205.012482
12
-61.861752
22
289.663055
32
201.308746
13
-61.349636
23
290.284943
33
203.656006
0
3DFACE
8
0
70
0
10
-60.696232
20
289.320190
30
205.012482
11
-63.420002
21
286.156982
31
204.550644
12
-64.323128
22
286.849030
32
200.748413
13
-61.861752
23
289.663055
33
201.308746
0
3DFACE
8
0
70
0
10
13.122153
20
118.873161
30
-58.809296
11
43.795223
21
105.466805
31
-50.008175
12
0.000000
22
109.905540
32
-66.753639
13
0.000000
23
118.644753
33
-62.655861
0
3DFACE
8
0
70
0
10
13.122153
20
118.873161
30
-58.809296
11
10.985806
21
126.014229
31
-51.334240
12
38.173256
22
125.986420
32
-39.794308
13
43.795223
23
105.466805
33
-50.008175
0
3DFACE
8
0
70
0
10
10.985806
20
126.014229
30
-51.334240
11
0.000000
21
127.432518
31
-53.457062
12
0.000000
22
133.695221
32
-48.670109
13
38.173256
23
125.986420
33
-39.794308
0
3DFACE
8
0
70
0
10
-10.985806
20
126.014229
30
-51.334240
11
-38.173256
21
125.986420
31
-39.794308
12
0.000000
22
133.695221
32
-48.670109
13
0.000000
23
127.432518
33
-53.457062
0
3DFACE
8
0
70
0
10
-13.122153
20
118.873161
30
-58.809296
11
-43.795223
21
105.466805
31
-50.008175
12
-38.173256
22
125.986420
32
-39.794308
13
-10.985806
23
126.014229
33
-51.334240
0
3DFACE
8
0
70
0
10
-13.122153
20
118.873161
30
-58.809296
11
0.000000
21
118.644753
31
-62.655861
12
0.000000
22
109.905540
32
-66.753639
13
-43.795223
23
105.466805
33
-50.008175
0
3DFACE
8
0
70
0
10
0.000000
20
115.703377
30
-75.100487
11
15.005724
21
122.368431
31
-71.995407
12
13.122153
22
118.873161
32
-58.809296
13
0.000000
23
118.644753
33
-62.655861
0
3DFACE
8
0
70
0
10
15.005724
20
122.368431
30
-71.995407
11
12.636941
21
137.144897
31
-60.367741
12
10.985806
22
126.014229
32
-51.334240
13
13.122153
23
118.873161
33
-58.809296
0
3DFACE
8
0
70
0
10
12.636941
20
137.144897
30
-60.367741
11
0.000000
21
143.771530
31
-58.598186
12
0.000000
22
127.432518
32
-53.457062
13
10.985806
23
126.014229
33
-51.334240
0
3DFACE
8
0
70
0
10
-12.636941
20
137.144897
30
-60.367741
11
-10.985806
21
126.014229
31
-51.334240
12
0.000000
22
127.432518
32
-53.457062
13
0.000000
23
143.771530
33
-58.598186
0
3DFACE
8
0
70
0
10
-15.005724
20
122.368431
30
-71.995407
11
-13.122153
21
118.873161
31
-58.809296
12
-10.985806
22
126.014229
32
-51.334240
13
-12.636941
23
137.144897
33
-60.367741
0
3DFACE
8
0
70
0
10
0.000000
20
115.703377
30
-75.100487
11
0.000000
21
118.644753
31
-62.655861
12
-13.122153
22
118.873161
32
-58.809296
13
-15.005724
23
122.368431
33
-71.995407
0
3DFACE
8
0
70
0
10
0.000000
20
136.434860
30
-82.687889
11
3.333484
21
137.594757
31
-82.355362
12
15.005724
22
122.368431
32
-71.995407
13
0.000000
23
115.703377
33
-75.100487
0
3DFACE
8
0
70
0
10
3.333484
20
137.594757
30
-82.355362
11
2.859728
21
146.099548
31
-80.024933
12
12.636941
22
137.144897
32
-60.367741
13
15.005724
23
122.368431
33
-71.995407
0
3DFACE
8
0
70
0
10
2.859728
20
146.099548
30
-80.024933
11
0.000000
21
146.900848
31
-79.820045
12
0.000000
22
143.771530
32
-58.598186
13
12.636941
23
137.144897
33
-60.367741
0
3DFACE
8
0
70
0
10
-2.859728
20
146.099548
30
-80.024933
11
-12.636941
21
137.144897
31
-60.367741
12
0.000000
22
143.771530
32
-58.598186
13
0.000000
23
146.900848
33
-79.820045
0
3DFACE
8
0
70
0
10
-3.333484
20
137.594757
30
-82.355362
11
-15.005724
21
122.368431
31
-71.995407
12
-12.636941
22
137.144897
32
-60.367741
13
-2.859728
23
146.099548
33
-80.024933
0
3DFACE
8
0
70
0
10
0.000000
20
136.434860
30
-82.687889
11
0.000000
21
115.703377
31
-75.100487
12
-15.005724
22
122.368431
32
-71.995407
13
-3.333484
23
137.594757
33
-82.355362
0
3DFACE
8
0
70
0
10
0.000000
20
223.738159
30
283.620087
11
0.000000
21
194.077515
31
309.321930
12
24.080034
22
188.987213
32
308.545013
13
26.747549
23
217.107880
33
282.797150
0
3DFACE
8
0
70
0
10
0.000000
20
151.307541
30
274.630219
11
31.450859
21
166.298355
31
276.490845
12
27.854828
22
154.442703
32
308.378754
13
0.000000
23
143.161789
33
307.341522
0
3DFACE
8
0
70
0
10
0.000000
20
223.738159
30
283.620087
11
-26.747549
21
217.107880
31
282.797150
12
-24.080034
22
188.987213
32
308.545013
13
0.000000
23
194.077515
33
309.321930
0
3DFACE
8
0
70
0
10
0.000000
20
151.307541
30
274.630219
11
0.000000
21
143.161789
31
307.341522
12
-27.854828
22
154.442703
32
308.378754
13
-31.450859
23
166.298355
33
276.490845
0
3DFACE
8
0
70
0
10
30.833929
20
228.026855
30
260.072266
11
0.000000
21
236.816132
31
261.306854
12
0.000000
22
223.738159
32
283.620087
13
26.747549
23
217.107880
33
282.797150
0
3DFACE
8
0
70
0
10
30.833929
20
228.026855
30
260.072266
11
26.747549
21
217.107880
31
282.797150
12
31.450859
22
166.298355
32
276.490845
13
35.789284
23
169.299744
33
252.926895
0
3DFACE
8
0
70
0
10
35.789284
20
169.299744
30
252.926895
11
31.450859
21
166.298355
31
276.490845
12
0.000000
22
151.307541
32
274.630219
13
0.000000
23
145.530579
33
254.312271
0
3DFACE
8
0
70
0
10
-30.833929
20
228.026855
30
260.072266
11
-26.747549
21
217.107880
31
282.797150
12
0.000000
22
223.738159
32
283.620087
13
0.000000
23
236.816132
33
261.306854
0
3DFACE
8
0
70
0
10
-30.833929
20
228.026855
30
260.072266
11
-35.789284
21
169.299744
31
252.926895
12
-31.450859
22
166.298355
32
276.490845
13
-26.747549
23
217.107880
33
282.797150
0
3DFACE
8
0
70
0
10
-35.789284
20
169.299744
30
252.926895
11
0.000000
21
145.530579
31
254.312271
12
0.000000
22
151.307541
32
274.630219
13
-31.450859
23
166.298355
33
276.490845
0
3DFACE
8
0
70
0
10
11.839602
20
212.214767
30
301.149658
11
15.170033
21
215.669403
31
300.036560
12
11.839602
22
217.023941
32
300.204651
13
11.839602
23
217.023941
33
300.204651
0
3DFACE
8
0
70
0
10
11.839602
20
212.214767
30
301.149658
11
16.549551
21
212.399292
31
299.630676
12
15.170033
22
215.669403
32
300.036560
13
15.170033
23
215.669403
33
300.036560
0
3DFACE
8
0
70
0
10
15.170033
20
209.129196
30
299.224792
11
16.549551
21
212.399292
31
299.630676
12
11.839602
22
212.214767
32
301.149658
13
11.839602
23
212.214767
33
301.149658
0
3DFACE
8
0
70
0
10
11.839602
20
207.774673
30
299.056671
11
15.170033
21
209.129196
31
299.224792
12
11.839602
22
212.214767
32
301.149658
13
11.839602
23
212.214767
33
301.149658
0
3DFACE
8
0
70
0
10
11.839602
20
207.774673
30
299.056671
11
11.839602
21
212.214767
31
301.149658
12
8.509171
22
209.129196
32
299.224792
13
8.509171
23
209.129196
33
299.224792
0
3DFACE
8
0
70
0
10
8.509171
20
209.129196
30
299.224792
11
11.839602
21
212.214767
31
301.149658
12
7.129652
22
212.399292
32
299.630676
13
7.129652
23
212.399292
33
299.630676
0
3DFACE
8
0
70
0
10
11.839602
20
212.214767
30
301.149658
11
8.509171
21
215.669403
31
300.036560
12
7.129652
22
212.399292
32
299.630676
13
7.129652
23
212.399292
33
299.630676
0
3DFACE
8
0
70
0
10
11.839602
20
212.214767
30
301.149658
11
11.839602
21
217.023941
31
300.204651
12
8.509171
22
215.669403
32
300.036560
13
8.509171
23
215.669403
33
300.036560
0
3DFACE
8
0
70
0
10
15.170033
20
215.669403
30
300.036560
11
17.228367
21
218.173492
31
296.310699
12
11.839602
22
220.365189
32
296.582733
13
11.839602
23
217.023941
33
300.204651
0
3DFACE
8
0
70
0
10
16.549551
20
212.399292
30
299.630676
11
19.460461
21
212.882324
31
295.653992
12
17.228367
22
218.173492
32
296.310699
13
15.170033
23
215.669403
33
300.036560
0
3DFACE
8
0
70
0
10
17.228367
20
207.591171
30
294.997284
11
19.460461
21
212.882324
31
295.653992
12
16.549551
22
212.399292
32
299.630676
13
15.170033
23
209.129196
33
299.224792
0
3DFACE
8
0
70
0
10
11.839602
20
205.399506
30
294.725250
11
17.228367
21
207.591171
31
294.997284
12
15.170033
22
209.129196
32
299.224792
13
11.839602
23
207.774673
33
299.056671
0
3DFACE
8
0
70
0
10
11.839602
20
205.399506
30
294.725250
11
11.839602
21
207.774673
31
299.056671
12
8.509171
22
209.129196
32
299.224792
13
6.450836
23
207.591171
33
294.997284
0
3DFACE
8
0
70
0
10
6.450836
20
207.591171
30
294.997284
11
8.509171
21
209.129196
31
299.224792
12
7.129652
22
212.399292
32
299.630676
13
4.218741
23
212.882324
33
295.653992
0
3DFACE
8
0
70
0
10
7.129652
20
212.399292
30
299.630676
11
8.509171
21
215.669403
31
300.036560
12
6.450836
22
218.173492
32
296.310699
13
4.218741
23
212.882324
33
295.653992
0
3DFACE
8
0
70
0
10
8.509171
20
215.669403
30
300.036560
11
11.839602
21
217.023941
31
300.204651
12
11.839602
22
220.365189
32
296.582733
13
6.450836
23
218.173492
33
296.310699
0
3DFACE
8
0
70
0
10
17.228367
20
218.173492
30
296.310699
11
17.228367
21
218.770554
31
291.395325
12
11.839602
22
220.962250
32
291.667358
13
11.839602
23
220.365189
33
296.582733
0
3DFACE
8
0
70
0
10
19.460461
20
212.882324
30
295.653992
11
19.460461
21
213.479355
31
290.738617
12
17.228367
22
218.770554
32
291.395325
13
17.228367
23
218.173492
33
296.310699
0
3DFACE
8
0
70
0
10
17.228367
20
207.591171
30
294.997284
11
17.228367
21
208.188232
31
290.081909
12
19.460461
22
213.479355
32
290.738617
13
19.460461
23
212.882324
33
295.653992
0
3DFACE
8
0
70
0
10
11.839602
20
205.399506
30
294.725250
11
11.839602
21
205.996567
31
289.809845
12
17.228367
22
208.188232
32
290.081909
13
17.228367
23
207.591171
33
294.997284
0
3DFACE
8
0
70
0
10
11.839602
20
205.399506
30
294.725250
11
6.450836
21
207.591171
31
294.997284
12
6.450836
22
208.188232
32
290.081909
13
11.839602
23
205.996567
33
289.809845
0
3DFACE
8
0
70
0
10
6.450836
20
207.591171
30
294.997284
11
4.218741
21
212.882324
31
295.653992
12
4.218741
22
213.479355
32
290.738617
13
6.450836
23
208.188232
33
290.081909
0
3DFACE
8
0
70
0
10
4.218741
20
212.882324
30
295.653992
11
6.450836
21
218.173492
31
296.310699
12
6.450836
22
218.770554
32
291.395325
13
4.218741
23
213.479355
33
290.738617
0
3DFACE
8
0
70
0
10
6.450836
20
218.173492
30
296.310699
11
11.839602
21
220.365189
31
296.582733
12
11.839602
22
220.962250
32
291.667358
13
6.450836
23
218.770554
33
291.395325
0
3DFACE
8
0
70
0
10
15.170033
20
217.232513
30
287.167786
11
11.839602
21
218.587067
31
287.335907
12
11.839602
22
220.962250
32
291.667358
13
17.228367
23
218.770554
33
291.395325
0
3DFACE
8
0
70
0
10
19.460461
20
213.479355
30
290.738617
11
16.549551
21
213.962418
31
286.761932
12
15.170033
22
217.232513
32
287.167786
13
17.228367
23
218.770554
33
291.395325
0
3DFACE
8
0
70
0
10
17.228367
20
208.188232
30
290.081909
11
15.170033
21
210.692291
31
286.356049
12
16.549551
22
213.962418
32
286.761932
13
19.460461
23
213.479355
33
290.738617
0
3DFACE
8
0
70
0
10
11.839602
20
205.996567
30
289.809845
11
11.839602
21
209.337769
31
286.187897
12
15.170033
22
210.692291
32
286.356049
13
17.228367
23
208.188232
33
290.081909
0
3DFACE
8
0
70
0
10
11.839602
20
205.996567
30
289.809845
11
6.450836
21
208.188232
31
290.081909
12
8.509171
22
210.692291
32
286.356049
13
11.839602
23
209.337769
33
286.187897
0
3DFACE
8
0
70
0
10
6.450836
20
208.188232
30
290.081909
11
4.218741
21
213.479355
31
290.738617
12
7.129652
22
213.962418
32
286.761932
13
8.509171
23
210.692291
33
286.356049
0
3DFACE
8
0
70
0
10
4.218741
20
213.479355
30
290.738617
11
6.450836
21
218.770554
31
291.395325
12
8.509171
22
217.232513
32
287.167786
13
7.129652
23
213.962418
33
286.761932
0
3DFACE
8
0
70
0
10
8.509171
20
217.232513
30
287.167786
11
6.450836
21
218.770554
31
291.395325
12
11.839602
22
220.962250
32
291.667358
13
11.839602
23
218.587067
33
287.335907
0
3DFACE
8
0
70
0
10
11.839602
20
214.146896
30
285.242950
11
11.839602
21
218.587067
31
287.335907
12
15.170033
22
217.232513
32
287.167786
13
15.170033
23
217.232513
33
287.167786
0
3DFACE
8
0
70
0
10
16.549551
20
213.962418
30
286.761932
11
11.839602
21
214.146896
31
285.242950
12
15.170033
22
217.232513
32
287.167786
13
15.170033
23
217.232513
33
287.167786
0
3DFACE
8
0
70
0
10
15.170033
20
210.692291
30
286.356049
11
11.839602
21
214.146896
31
285.242950
12
16.549551
22
213.962418
32
286.761932
13
16.549551
23
213.962418
33
286.761932
0
3DFACE
8
0
70
0
10
11.839602
20
209.337769
30
286.187897
11
11.839602
21
214.146896
31
285.242950
12
15.170033
22
210.692291
32
286.356049
13
15.170033
23
210.692291
33
286.356049
0
3DFACE
8
0
70
0
10
11.839602
20
209.337769
30
286.187897
11
8.509171
21
210.692291
31
286.356049
12
11.839602
22
214.146896
32
285.242950
13
11.839602
23
214.146896
33
285.242950
0
3DFACE
8
0
70
0
10
8.509171
20
210.692291
30
286.356049
11
7.129652
21
213.962418
31
286.761932
12
11.839602
22
214.146896
32
285.242950
13
11.839602
23
214.146896
33
285.242950
0
3DFACE
8
0
70
0
10
7.129652
20
213.962418
30
286.761932
11
8.509171
21
217.232513
31
287.167786
12
11.839602
22
214.146896
32
285.242950
13
11.839602
23
214.146896
33
285.242950
0
3DFACE
8
0
70
0
10
11.839602
20
214.146896
30
285.242950
11
8.509171
21
217.232513
31
287.167786
12
11.839602
22
218.587067
32
287.335907
13
11.839602
23
218.587067
33
287.335907
0
3DFACE
8
0
70
0
10
-0.828771
20
159.715149
30
364.742462
11
-0.828771
21
166.775421
31
363.355194
12
-5.718126
22
164.786850
32
363.108368
13
-5.718126
23
164.786850
33
363.108368
0
3DFACE
8
0
70
0
10
-0.828771
20
159.715149
30
364.742462
11
-5.718126
21
164.786850
31
363.108368
12
-7.743381
22
159.986008
32
362.512482
13
-7.743381
23
159.986008
33
362.512482
0
3DFACE
8
0
70
0
10
-5.718126
20
155.185226
30
361.916595
11
-0.828771
21
159.715149
31
364.742462
12
-7.743381
22
159.986008
32
362.512482
13
-7.743381
23
159.986008
33
362.512482
0
3DFACE
8
0
70
0
10
-0.828771
20
153.196655
30
361.669769
11
-0.828771
21
159.715149
31
364.742462
12
-5.718126
22
155.185226
32
361.916595
13
-5.718126
23
155.185226
33
361.916595
0
3DFACE
8
0
70
0
10
-0.828771
20
153.196655
30
361.669769
11
4.060582
21
155.185226
31
361.916595
12
-0.828771
22
159.715149
32
364.742462
13
-0.828771
23
159.715149
33
364.742462
0
3DFACE
8
0
70
0
10
4.060582
20
155.185226
30
361.916595
11
6.085836
21
159.986008
31
362.512482
12
-0.828771
22
159.715149
32
364.742462
13
-0.828771
23
159.715149
33
364.742462
0
3DFACE
8
0
70
0
10
-0.828771
20
159.715149
30
364.742462
11
6.085836
21
159.986008
31
362.512482
12
4.060582
22
164.786850
32
363.108368
13
4.060582
23
164.786850
33
363.108368
0
3DFACE
8
0
70
0
10
-0.828771
20
159.715149
30
364.742462
11
4.060582
21
164.786850
31
363.108368
12
-0.828771
22
166.775421
32
363.355194
13
-0.828771
23
166.775421
33
363.355194
0
3DFACE
8
0
70
0
10
-5.718126
20
164.786850
30
363.108368
11
-0.828771
21
166.775421
31
363.355194
12
-0.828771
22
171.680588
32
358.037872
13
-8.739938
23
168.463089
33
357.638519
0
3DFACE
8
0
70
0
10
-7.743381
20
159.986008
30
362.512482
11
-5.718126
21
164.786850
31
363.108368
12
-8.739938
22
168.463089
32
357.638519
13
-12.016842
23
160.695129
33
356.674377
0
3DFACE
8
0
70
0
10
-8.739938
20
152.927292
30
355.710297
11
-5.718126
21
155.185226
31
361.916595
12
-7.743381
22
159.986008
32
362.512482
13
-12.016842
23
160.695129
33
356.674377
0
3DFACE
8
0
70
0
10
-0.828771
20
149.709717
30
355.310913
11
-0.828771
21
153.196655
31
361.669769
12
-5.718126
22
155.185226
32
361.916595
13
-8.739938
23
152.927292
33
355.710297
0
3DFACE
8
0
70
0
10
-0.828771
20
149.709717
30
355.310913
11
7.082395
21
152.927292
31
355.710297
12
4.060582
22
155.185226
32
361.916595
13
-0.828771
23
153.196655
33
361.669769
0
3DFACE
8
0
70
0
10
7.082395
20
152.927292
30
355.710297
11
10.359300
21
160.695129
31
356.674377
12
6.085836
22
159.986008
32
362.512482
13
4.060582
23
155.185226
33
361.916595
0
3DFACE
8
0
70
0
10
6.085836
20
159.986008
30
362.512482
11
10.359300
21
160.695129
31
356.674377
12
7.082395
22
168.463089
32
357.638519
13
4.060582
23
164.786850
33
363.108368
0
3DFACE
8
0
70
0
10
4.060582
20
164.786850
30
363.108368
11
7.082395
21
168.463089
31
357.638519
12
-0.828771
22
171.680588
32
358.037872
13
-0.828771
23
166.775421
33
363.355194
0
3DFACE
8
0
70
0
10
-8.739938
20
168.463089
30
357.638519
11
-0.828771
21
171.680588
31
358.037872
12
-0.828771
22
172.557114
32
350.821625
13
-8.739938
23
169.339615
33
350.422302
0
3DFACE
8
0
70
0
10
-12.016842
20
160.695129
30
356.674377
11
-8.739938
21
168.463089
31
357.638519
12
-8.739938
22
169.339615
32
350.422302
13
-12.016842
23
161.571671
33
349.458160
0
3DFACE
8
0
70
0
10
-8.739938
20
152.927292
30
355.710297
11
-12.016842
21
160.695129
31
356.674377
12
-12.016842
22
161.571671
32
349.458160
13
-8.739938
23
153.803802
33
348.494049
0
3DFACE
8
0
70
0
10
-0.828771
20
149.709717
30
355.310913
11
-8.739938
21
152.927292
31
355.710297
12
-8.739938
22
153.803802
32
348.494049
13
-0.828771
23
150.586243
33
348.094696
0
3DFACE
8
0
70
0
10
-0.828771
20
149.709717
30
355.310913
11
-0.828771
21
150.586243
31
348.094696
12
7.082395
22
153.803802
32
348.494049
13
7.082395
23
152.927292
33
355.710297
0
3DFACE
8
0
70
0
10
7.082395
20
152.927292
30
355.710297
11
7.082395
21
153.803802
31
348.494049
12
10.359300
22
161.571671
32
349.458160
13
10.359300
23
160.695129
33
356.674377
0
3DFACE
8
0
70
0
10
10.359300
20
160.695129
30
356.674377
11
10.359300
21
161.571671
31
349.458160
12
7.082395
22
169.339615
32
350.422302
13
7.082395
23
168.463089
33
357.638519
0
3DFACE
8
0
70
0
10
7.082395
20
168.463089
30
357.638519
11
7.082395
21
169.339615
31
350.422302
12
-0.828771
22
172.557114
32
350.821625
13
-0.828771
23
171.680588
33
358.037872
0
3DFACE
8
0
70
0
10
-5.718126
20
167.081635
30
344.215973
11
-8.739938
21
169.339615
31
350.422302
12
-0.828771
22
172.557114
32
350.821625
13
-0.828771
23
169.070175
33
344.462769
0
3DFACE
8
0
70
0
10
-12.016842
20
161.571671
30
349.458160
11
-8.739938
21
169.339615
31
350.422302
12
-5.718126
22
167.081635
32
344.215973
13
-7.743381
23
162.280792
33
343.620056
0
3DFACE
8
0
70
0
10
-8.739938
20
153.803802
30
348.494049
11
-12.016842
21
161.571671
31
349.458160
12
-7.743381
22
162.280792
32
343.620056
13
-5.718126
23
157.480011
33
343.024200
0
3DFACE
8
0
70
0
10
-0.828771
20
150.586243
30
348.094696
11
-8.739938
21
153.803802
31
348.494049
12
-5.718126
22
157.480011
32
343.024200
13
-0.828771
23
155.491409
33
342.777405
0
3DFACE
8
0
70
0
10
-0.828771
20
150.586243
30
348.094696
11
-0.828771
21
155.491409
31
342.777405
12
4.060582
22
157.480011
32
343.024200
13
7.082395
23
153.803802
33
348.494049
0
3DFACE
8
0
70
0
10
7.082395
20
153.803802
30
348.494049
11
4.060582
21
157.480011
31
343.024200
12
6.085836
22
162.280792
32
343.620056
13
10.359300
23
161.571671
33
349.458160
0
3DFACE
8
0
70
0
10
10.359300
20
161.571671
30
349.458160
11
6.085836
21
162.280792
31
343.620056
12
4.060582
22
167.081635
32
344.215973
13
7.082395
23
169.339615
33
350.422302
0
3DFACE
8
0
70
0
10
4.060582
20
167.081635
30
344.215973
11
-0.828771
21
169.070175
31
344.462769
12
-0.828771
22
172.557114
32
350.821625
13
7.082395
23
169.339615
33
350.422302
0
3DFACE
8
0
70
0
10
-0.828771
20
162.551651
30
341.390076
11
-5.718126
21
167.081635
31
344.215973
12
-0.828771
22
169.070175
32
344.462769
13
-0.828771
23
169.070175
33
344.462769
0
3DFACE
8
0
70
0
10
-7.743381
20
162.280792
30
343.620056
11
-5.718126
21
167.081635
31
344.215973
12
-0.828771
22
162.551651
32
341.390076
13
-0.828771
23
162.551651
33
341.390076
0
3DFACE
8
0
70
0
10
-5.718126
20
157.480011
30
343.024200
11
-7.743381
21
162.280792
31
343.620056
12
-0.828771
22
162.551651
32
341.390076
13
-0.828771
23
162.551651
33
341.390076
0
3DFACE
8
0
70
0
10
-0.828771
20
155.491409
30
342.777405
11
-5.718126
21
157.480011
31
343.024200
12
-0.828771
22
162.551651
32
341.390076
13
-0.828771
23
162.551651
33
341.390076
0
3DFACE
8
0
70
0
10
-0.828771
20
155.491409
30
342.777405
11
-0.828771
21
162.551651
31
341.390076
12
4.060582
22
157.480011
32
343.024200
13
4.060582
23
157.480011
33
343.024200
0
3DFACE
8
0
70
0
10
4.060582
20
157.480011
30
343.024200
11
-0.828771
21
162.551651
31
341.390076
12
6.085836
22
162.280792
32
343.620056
13
6.085836
23
162.280792
33
343.620056
0
3DFACE
8
0
70
0
10
6.085836
20
162.280792
30
343.620056
11
-0.828771
21
162.551651
31
341.390076
12
4.060582
22
167.081635
32
344.215973
13
4.060582
23
167.081635
33
344.215973
0
3DFACE
8
0
70
0
10
-0.828771
20
162.551651
30
341.390076
11
-0.828771
21
169.070175
31
344.462769
12
4.060582
22
167.081635
32
344.215973
13
4.060582
23
167.081635
33
344.215973
0
3DFACE
8
0
70
0
10
-11.839602
20
212.214767
30
301.149658
11
-11.839602
21
217.023941
31
300.204651
12
-15.170033
22
215.669403
32
300.036560
13
-15.170033
23
215.669403
33
300.036560
0
3DFACE
8
0
70
0
10
-11.839602
20
212.214767
30
301.149658
11
-15.170033
21
215.669403
31
300.036560
12
-16.549551
22
212.399292
32
299.630676
13
-16.549551
23
212.399292
33
299.630676
0
3DFACE
8
0
70
0
10
-15.170033
20
209.129196
30
299.224792
11
-11.839602
21
212.214767
31
301.149658
12
-16.549551
22
212.399292
32
299.630676
13
-16.549551
23
212.399292
33
299.630676
0
3DFACE
8
0
70
0
10
-11.839602
20
207.774673
30
299.056671
11
-11.839602
21
212.214767
31
301.149658
12
-15.170033
22
209.129196
32
299.224792
13
-15.170033
23
209.129196
33
299.224792
0
3DFACE
8
0
70
0
10
-11.839602
20
207.774673
30
299.056671
11
-8.509171
21
209.129196
31
299.224792
12
-11.839602
22
212.214767
32
301.149658
13
-11.839602
23
212.214767
33
301.149658
0
3DFACE
8
0
70
0
10
-8.509171
20
209.129196
30
299.224792
11
-7.129652
21
212.399292
31
299.630676
12
-11.839602
22
212.214767
32
301.149658
13
-11.839602
23
212.214767
33
301.149658
0
3DFACE
8
0
70
0
10
-11.839602
20
212.214767
30
301.149658
11
-7.129652
21
212.399292
31
299.630676
12
-8.509171
22
215.669403
32
300.036560
13
-8.509171
23
215.669403
33
300.036560
0
3DFACE
8
0
70
0
10
-11.839602
20
212.214767
30
301.149658
11
-8.509171
21
215.669403
31
300.036560
12
-11.839602
22
217.023941
32
300.204651
13
-11.839602
23
217.023941
33
300.204651
0
3DFACE
8
0
70
0
10
-15.170033
20
215.669403
30
300.036560
11
-11.839602
21
217.023941
31
300.204651
12
-11.839602
22
220.365189
32
296.582733
13
-17.228367
23
218.173492
33
296.310699
0
3DFACE
8
0
70
0
10
-16.549551
20
212.399292
30
299.630676
11
-15.170033
21
215.669403
31
300.036560
12
-17.228367
22
218.173492
32
296.310699
13
-19.460461
23
212.882324
33
295.653992
0
3DFACE
8
0
70
0
10
-17.228367
20
207.591171
30
294.997284
11
-15.170033
21
209.129196
31
299.224792
12
-16.549551
22
212.399292
32
299.630676
13
-19.460461
23
212.882324
33
295.653992
0
3DFACE
8
0
70
0
10
-11.839602
20
205.399506
30
294.725250
11
-11.839602
21
207.774673
31
299.056671
12
-15.170033
22
209.129196
32
299.224792
13
-17.228367
23
207.591171
33
294.997284
0
3DFACE
8
0
70
0
10
-11.839602
20
205.399506
30
294.725250
11
-6.450836
21
207.591171
31
294.997284
12
-8.509171
22
209.129196
32
299.224792
13
-11.839602
23
207.774673
33
299.056671
0
3DFACE
8
0
70
0
10
-6.450836
20
207.591171
30
294.997284
11
-4.218741
21
212.882324
31
295.653992
12
-7.129652
22
212.399292
32
299.630676
13
-8.509171
23
209.129196
33
299.224792
0
3DFACE
8
0
70
0
10
-7.129652
20
212.399292
30
299.630676
11
-4.218741
21
212.882324
31
295.653992
12
-6.450836
22
218.173492
32
296.310699
13
-8.509171
23
215.669403
33
300.036560
0
3DFACE
8
0
70
0
10
-8.509171
20
215.669403
30
300.036560
11
-6.450836
21
218.173492
31
296.310699
12
-11.839602
22
220.365189
32
296.582733
13
-11.839602
23
217.023941
33
300.204651
0
3DFACE
8
0
70
0
10
-17.228367
20
218.173492
30
296.310699
11
-11.839602
21
220.365189
31
296.582733
12
-11.839602
22
220.962250
32
291.667358
13
-17.228367
23
218.770554
33
291.395325
0
3DFACE
8
0
70
0
10
-19.460461
20
212.882324
30
295.653992
11
-17.228367
21
218.173492
31
296.310699
12
-17.228367
22
218.770554
32
291.395325
13
-19.460461
23
213.479355
33
290.738617
0
3DFACE
8
0
70
0
10
-17.228367
20
207.591171
30
294.997284
11
-19.460461
21
212.882324
31
295.653992
12
-19.460461
22
213.479355
32
290.738617
13
-17.228367
23
208.188232
33
290.081909
0
3DFACE
8
0
70
0
10
-11.839602
20
205.399506
30
294.725250
11
-17.228367
21
207.591171
31
294.997284
12
-17.228367
22
208.188232
32
290.081909
13
-11.839602
23
205.996567
33
289.809845
0
3DFACE
8
0
70
0
10
-11.839602
20
205.399506
30
294.725250
11
-11.839602
21
205.996567
31
289.809845
12
-6.450836
22
208.188232
32
290.081909
13
-6.450836
23
207.591171
33
294.997284
0
3DFACE
8
0
70
0
10
-6.450836
20
207.591171
30
294.997284
11
-6.450836
21
208.188232
31
290.081909
12
-4.218741
22
213.479355
32
290.738617
13
-4.218741
23
212.882324
33
295.653992
0
3DFACE
8
0
70
0
10
-4.218741
20
212.882324
30
295.653992
11
-4.218741
21
213.479355
31
290.738617
12
-6.450836
22
218.770554
32
291.395325
13
-6.450836
23
218.173492
33
296.310699
0
3DFACE
8
0
70
0
10
-6.450836
20
218.173492
30
296.310699
11
-6.450836
21
218.770554
31
291.395325
12
-11.839602
22
220.962250
32
291.667358
13
-11.839602
23
220.365189
33
296.582733
0
3DFACE
8
0
70
0
10
-15.170033
20
217.232513
30
287.167786
11
-17.228367
21
218.770554
31
291.395325
12
-11.839602
22
220.962250
32
291.667358
13
-11.839602
23
218.587067
33
287.335907
0
3DFACE
8
0
70
0
10
-19.460461
20
213.479355
30
290.738617
11
-17.228367
21
218.770554
31
291.395325
12
-15.170033
22
217.232513
32
287.167786
13
-16.549551
23
213.962418
33
286.761932
0
3DFACE
8
0
70
0
10
-17.228367
20
208.188232
30
290.081909
11
-19.460461
21
213.479355
31
290.738617
12
-16.549551
22
213.962418
32
286.761932
13
-15.170033
23
210.692291
33
286.356049
0
3DFACE
8
0
70
0
10
-11.839602
20
205.996567
30
289.809845
11
-17.228367
21
208.188232
31
290.081909
12
-15.170033
22
210.692291
32
286.356049
13
-11.839602
23
209.337769
33
286.187897
0
3DFACE
8
0
70
0
10
-11.839602
20
205.996567
30
289.809845
11
-11.839602
21
209.337769
31
286.187897
12
-8.509171
22
210.692291
32
286.356049
13
-6.450836
23
208.188232
33
290.081909
0
3DFACE
8
0
70
0
10
-6.450836
20
208.188232
30
290.081909
11
-8.509171
21
210.692291
31
286.356049
12
-7.129652
22
213.962418
32
286.761932
13
-4.218741
23
213.479355
33
290.738617
0
3DFACE
8
0
70
0
10
-4.218741
20
213.479355
30
290.738617
11
-7.129652
21
213.962418
31
286.761932
12
-8.509171
22
217.232513
32
287.167786
13
-6.450836
23
218.770554
33
291.395325
0
3DFACE
8
0
70
0
10
-8.509171
20
217.232513
30
287.167786
11
-11.839602
21
218.587067
31
287.335907
12
-11.839602
22
220.962250
32
291.667358
13
-6.450836
23
218.770554
33
291.395325
0
3DFACE
8
0
70
0
10
-11.839602
20
214.146896
30
285.242950
11
-15.170033
21
217.232513
31
287.167786
12
-11.839602
22
218.587067
32
287.335907
13
-11.839602
23
218.587067
33
287.335907
0
3DFACE
8
0
70
0
10
-16.549551
20
213.962418
30
286.761932
11
-15.170033
21
217.232513
31
287.167786
12
-11.839602
22
214.146896
32
285.242950
13
-11.839602
23
214.146896
33
285.242950
0
3DFACE
8
0
70
0
10
-15.170033
20
210.692291
30
286.356049
11
-16.549551
21
213.962418
31
286.761932
12
-11.839602
22
214.146896
32
285.242950
13
-11.839602
23
214.146896
33
285.242950
0
3DFACE
8
0
70
0
10
-11.839602
20
209.337769
30
286.187897
11
-15.170033
21
210.692291
31
286.356049
12
-11.839602
22
214.146896
32
285.242950
13
-11.839602
23
214.146896
33
285.242950
0
3DFACE
8
0
70
0
10
-11.839602
20
209.337769
30
286.187897
11
-11.839602
21
214.146896
31
285.242950
12
-8.509171
22
210.692291
32
286.356049
13
-8.509171
23
210.692291
33
286.356049
0
3DFACE
8
0
70
0
10
-8.509171
20
210.692291
30
286.356049
11
-11.839602
21
214.146896
31
285.242950
12
-7.129652
22
213.962418
32
286.761932
13
-7.129652
23
213.962418
33
286.761932
0
3DFACE
8
0
70
0
10
-7.129652
20
213.962418
30
286.761932
11
-11.839602
21
214.146896
31
285.242950
12
-8.509171
22
217.232513
32
287.167786
13
-8.509171
23
217.232513
33
287.167786
0
3DFACE
8
0
70
0
10
-11.839602
20
214.146896
30
285.242950
11
-11.839602
21
218.587067
31
287.335907
12
-8.509171
22
217.232513
32
287.167786
13
-8.509171
23
217.232513
33
287.167786
0
3DFACE
8
0
70
0
10
27.854828
20
154.442703
30
308.378754
11
31.450859
21
166.298355
31
276.490845
12
26.747549
22
217.107880
32
282.797150
13
24.080034
23
188.987213
33
308.545013
0
3DFACE
8
0
70
0
10
-27.854828
20
154.442703
30
308.378754
11
-24.080034
21
188.987213
31
308.545013
12
-26.747549
22
217.107880
32
282.797150
13
-31.450859
23
166.298355
33
276.490845
0
3DFACE
8
0
70
0
10
49.295223
20
-50.791096
30
-59.052505
11
46.948997
21
6.167488
31
-58.443775
12
53.469509
22
4.133306
32
-54.061344
13
56.302471
23
-50.791096
33
-59.052505
0
3DFACE
8
0
70
0
10
46.948997
20
6.167488
30
-58.443775
11
49.295223
21
-50.791096
31
-59.052505
12
42.906624
22
-50.932190
32
-59.052505
13
39.994251
23
4.470173
33
-54.787102
0
3DFACE
8
0
70
0
10
42.906624
20
-50.932190
30
-59.052505
11
45.247314
21
-50.939945
31
-59.052505
12
41.986279
22
2.994396
32
-51.607712
13
39.994251
23
4.470173
33
-54.787102
0
3DFACE
8
0
70
0
10
53.469509
20
4.133306
30
-54.061344
11
65.266708
21
-5.726670
31
3.274007
12
65.266708
22
-53.563477
32
-9.398881
13
56.302471
23
-50.791096
33
-59.052505
0
3DFACE
8
0
70
0
10
45.247314
20
-50.939945
30
-59.052505
11
49.295223
21
-52.666199
31
-9.398881
12
38.751400
22
-6.642012
32
8.054662
13
41.986279
23
2.994396
33
-51.607712
0
3DFACE
8
0
70
0
10
65.266708
20
75.036530
30
24.274269
11
28.523993
21
38.000999
31
24.984426
12
38.751400
22
-6.642012
32
8.054662
13
65.266708
23
-5.726670
33
3.274007
0
3DFACE
8
0
70
0
10
-46.948997
20
6.167488
30
-58.443775
11
-39.994251
21
4.470173
31
-54.787102
12
-42.906624
22
-50.932190
32
-59.052505
13
-49.295223
23
-50.791096
33
-59.052505
0
3DFACE
8
0
70
0
10
-39.994251
20
4.470173
30
-54.787102
11
-38.173256
21
56.235767
31
-46.071136
12
-40.233059
22
32.130062
32
-24.363651
13
-41.986279
23
2.994396
33
-51.607712
0
3DFACE
8
0
70
0
10
-53.469509
20
4.133306
30
-54.061344
11
-56.302471
21
-50.791096
31
-59.052505
12
-65.266708
22
-53.563477
32
-9.398881
13
-65.266708
23
-5.726670
33
3.274007
0
3DFACE
8
0
70
0
10
-45.247314
20
-50.939945
30
-59.052505
11
-41.986279
21
2.994396
31
-51.607712
12
-38.751400
22
-6.642012
32
8.054662
13
-49.295223
23
-52.666199
33
-9.398881
0
3DFACE
8
0
70
0
10
-65.266708
20
-5.726670
30
3.274007
11
-65.266708
21
-53.563477
31
-9.398881
12
-49.295223
22
-52.666199
32
-9.398881
13
-38.751400
23
-6.642012
33
8.054662
0
3DFACE
8
0
70
0
10
43.795223
20
105.466805
30
-50.008175
11
74.194695
21
89.570076
31
-23.743523
12
53.469509
22
4.133306
32
-54.061344
13
46.948997
23
6.167488
33
-58.443775
0
3DFACE
8
0
70
0
10
43.795223
20
105.466805
30
-50.008175
11
46.948997
21
6.167488
31
-58.443775
12
39.994251
22
4.470173
32
-54.787102
13
38.173256
23
56.235767
33
-46.071136
0
3DFACE
8
0
70
0
10
38.173256
20
56.235767
30
-46.071136
11
39.994251
21
4.470173
31
-54.787102
12
41.986279
22
2.994396
32
-51.607712
13
40.233059
23
32.130062
33
-24.363651
0
3DFACE
8
0
70
0
10
65.266708
20
75.036530
30
24.274269
11
65.266708
21
-5.726670
31
3.274007
12
53.469509
22
4.133306
32
-54.061344
13
74.194695
23
89.570076
33
-23.743523
0
3DFACE
8
0
70
0
10
38.751400
20
-6.642012
30
8.054662
11
28.523993
21
38.000999
31
24.984426
12
40.233059
22
32.130062
32
-24.363651
13
41.986279
23
2.994396
33
-51.607712
0
3DFACE
8
0
70
0
10
65.266708
20
-5.726670
30
3.274007
11
38.751400
21
-6.642012
31
8.054662
12
49.295223
22
-52.666199
32
-9.398881
13
65.266708
23
-53.563477
33
-9.398881
0
3DFACE
8
0
70
0
10
-43.795223
20
105.466805
30
-50.008175
11
-46.948997
21
6.167488
31
-58.443775
12
-53.469509
22
4.133306
32
-54.061344
13
-74.194695
23
89.570076
33
-23.743523
0
3DFACE
8
0
70
0
10
-49.295223
20
-50.791096
30
-59.052505
11
-56.302471
21
-50.791096
31
-59.052505
12
-53.469509
22
4.133306
32
-54.061344
13
-46.948997
23
6.167488
33
-58.443775
0
3DFACE
8
0
70
0
10
-43.795223
20
105.466805
30
-50.008175
11
-38.173256
21
56.235767
31
-46.071136
12
-39.994251
22
4.470173
32
-54.787102
13
-46.948997
23
6.167488
33
-58.443775
0
3DFACE
8
0
70
0
10
-42.906624
20
-50.932190
30
-59.052505
11
-39.994251
21
4.470173
31
-54.787102
12
-41.986279
22
2.994396
32
-51.607712
13
-45.247314
23
-50.939945
33
-59.052505
0
3DFACE
8
0
70
0
10
-65.266708
20
75.036530
30
24.274269
11
-74.194695
21
89.570076
31
-23.743523
12
-53.469509
22
4.133306
32
-54.061344
13
-65.266708
23
-5.726670
33
3.274007
0
3DFACE
8
0
70
0
10
-38.751400
20
-6.642012
30
8.054662
11
-41.986279
21
2.994396
31
-51.607712
12
-40.233059
22
32.130062
32
-24.363651
13
-28.523993
23
38.000999
33
24.984426
0
3DFACE
8
0
70
0
10
-65.266708
20
75.036530
30
24.274269
11
-65.266708
21
-5.726670
31
3.274007
12
-38.751400
22
-6.642012
32
8.054662
13
-28.523993
23
38.000999
33
24.984426
0
3DFACE
8
0
70
0
10
32.170811
20
167.656128
30
189.324539
11
0.000000
21
174.229324
31
187.293106
12
0.000000
22
210.731979
32
230.392181
13
20.543692
23
209.425217
33
238.044083
0
3DFACE
8
0
70
0
10
32.170811
20
167.656128
30
189.324539
11
20.543692
21
209.425217
31
238.044083
12
23.602554
22
181.096985
32
234.666290
13
34.809177
23
143.089203
33
196.916931
0
3DFACE
8
0
70
0
10
34.809177
20
143.089203
30
196.916931
11
23.602554
21
181.096985
31
234.666290
12
0.000000
22
141.353485
32
238.031311
13
0.000000
23
119.625877
33
209.287781
0
3DFACE
8
0
70
0
10
-32.170811
20
167.656128
30
189.324539
11
-20.543692
21
209.425217
31
238.044083
12
0.000000
22
210.731979
32
230.392181
13
0.000000
23
174.229324
33
187.293106
0
3DFACE
8
0
70
0
10
-32.170811
20
167.656128
30
189.324539
11
-34.809177
21
143.089203
31
196.916931
12
-23.602554
22
181.096985
32
234.666290
13
-20.543692
23
209.425217
33
238.044083
0
3DFACE
8
0
70
0
10
-34.809177
20
143.089203
30
196.916931
11
0.000000
21
119.625877
31
209.287781
12
0.000000
22
141.353485
32
238.031311
13
-23.602554
23
181.096985
33
234.666290
0
3DFACE
8
0
70
0
10
56.196556
20
55.719395
30
145.009964
11
42.906624
21
115.418251
31
125.984535
12
38.360844
22
151.407471
32
163.629013
13
43.262306
23
114.291443
33
167.420410
0
3DFACE
8
0
70
0
10
0.000000
20
157.808701
30
161.650742
11
-38.360844
21
151.407471
31
163.629013
12
-32.170811
22
167.656128
32
189.324539
13
0.000000
23
174.229324
33
187.293106
0
3DFACE
8
0
70
0
10
-56.196556
20
55.719395
30
145.009964
11
-43.262306
21
114.291443
31
167.420410
12
-38.360844
22
151.407471
32
163.629013
13
-42.906624
23
115.418251
33
125.984535
0
3DFACE
8
0
70
0
10
-56.196556
20
55.719395
30
145.009964
11
0.000000
21
52.294697
31
186.231537
12
0.000000
22
79.202515
32
185.943878
13
-43.262306
23
114.291443
33
167.420410
0
3DFACE
8
0
70
0
10
0.000000
20
157.808701
30
161.650742
11
0.000000
21
174.229324
31
187.293106
12
32.170811
22
167.656128
32
189.324539
13
38.360844
23
151.407471
33
163.629013
0
3DFACE
8
0
70
0
10
42.906624
20
115.418251
30
125.984535
11
0.000000
21
131.571411
31
127.633255
12
0.000000
22
157.808701
32
161.650742
13
38.360844
23
151.407471
33
163.629013
0
3DFACE
8
0
70
0
10
38.360844
20
151.407471
30
163.629013
11
32.170811
21
167.656128
31
189.324539
12
34.809177
22
143.089203
32
196.916931
13
43.262306
23
114.291443
33
167.420410
0
3DFACE
8
0
70
0
10
43.262306
20
114.291443
30
167.420410
11
34.809177
21
143.089203
31
196.916931
12
0.000000
22
119.625877
32
209.287781
13
0.000000
23
79.202515
33
185.943878
0
3DFACE
8
0
70
0
10
56.196556
20
55.719395
30
145.009964
11
43.262306
21
114.291443
31
167.420410
12
0.000000
22
79.202515
32
185.943878
13
0.000000
23
52.294697
33
186.231537
0
3DFACE
8
0
70
0
10
-42.906624
20
115.418251
30
125.984535
11
-38.360844
21
151.407471
31
163.629013
12
0.000000
22
157.808701
32
161.650742
13
0.000000
23
131.571411
33
127.633255
0
3DFACE
8
0
70
0
10
-43.262306
20
114.291443
30
167.420410
11
-34.809177
21
143.089203
31
196.916931
12
-32.170811
22
167.656128
32
189.324539
13
-38.360844
23
151.407471
33
163.629013
0
3DFACE
8
0
70
0
10
-43.262306
20
114.291443
30
167.420410
11
0.000000
21
79.202515
31
185.943878
12
0.000000
22
119.625877
32
209.287781
13
-34.809177
23
143.089203
33
196.916931
0
3DFACE
8
0
70
0
10
6.925127
20
224.827499
30
249.927673
11
18.487617
21
221.613510
31
249.474121
12
58.748203
22
254.394623
32
236.554749
13
50.622543
23
254.987778
33
237.028763
0
3DFACE
8
0
70
0
10
-58.748203
20
254.394623
30
236.554749
11
-18.487617
21
221.613510
31
249.474121
12
-6.925127
22
224.827499
32
249.927673
13
-50.622543
23
254.987778
33
237.028763
0
ENDSEC
0
EOF
