0
SECTION
2
HEADER
999
DXF File Generated by LightWave 3D(TM)
0
ENDSEC
0
SECTION
2
TABLES
0
ENDSEC
0
SECTION
2
BLOCKS
0
ENDSEC
0
SECTION
2
ENTITIES
0
3DFACE
8
0
70
0
10
0.000000
20
7.420524
30
140.073364
11
24.375292
21
14.614165
31
126.821259
12
54.283447
22
70.952736
32
140.073364
13
0.000000
23
67.276886
33
179.891632
0
3DFACE
8
0
70
0
10
4.271120
20
167.163864
30
336.032898
11
13.584244
21
169.754990
31
336.105377
12
13.361200
22
180.515762
32
337.276703
13
5.775469
23
183.045990
33
337.625519
0
3DFACE
8
0
70
0
10
-7.453677
20
71.257751
30
-55.794529
11
-9.919885
21
131.768356
31
-63.040401
12
33.354847
22
126.993042
32
-51.813583
13
29.790062
23
73.792473
33
-48.720886
0
3DFACE
8
0
70
0
10
-12.270627
20
160.695679
30
-77.535355
11
-12.267264
21
171.919861
31
-74.541191
12
-9.559446
22
171.083313
32
-75.056747
13
-9.113791
23
161.966187
33
-77.539581
0
3DFACE
8
0
70
0
10
45.493469
20
143.498413
30
17.222801
11
-1.161875
21
158.326828
31
26.417942
12
0.000000
22
148.811951
32
91.107437
13
43.863049
23
137.501205
33
91.341301
0
3DFACE
8
0
70
0
10
0.000000
20
148.811951
30
91.107437
11
0.000000
21
152.367416
31
123.288216
12
41.445946
22
135.029648
32
121.695625
13
43.863049
23
137.501205
33
91.341301
0
3DFACE
8
0
70
0
10
27.552946
20
51.934952
30
24.133879
11
62.067268
21
92.836624
31
15.862158
12
54.724529
22
70.906418
32
92.262184
13
23.652523
23
19.164745
33
93.179970
0
3DFACE
8
0
70
0
10
63.679008
20
-150.563721
30
93.297455
11
45.037529
21
-150.563721
31
145.551682
12
28.851940
22
-150.563721
32
130.757095
13
34.807507
23
-150.563721
33
94.465508
0
3DFACE
8
0
70
0
10
62.067268
20
92.836624
30
15.862158
11
45.493469
21
143.498413
31
17.222801
12
43.863049
22
137.501205
32
91.341301
13
54.724529
23
70.906418
33
92.262184
0
3DFACE
8
0
70
0
10
54.724529
20
70.906418
30
92.262184
11
43.863049
21
137.501205
31
91.341301
12
41.445946
22
135.029648
32
121.695625
13
54.283447
23
70.952736
33
140.073364
0
3DFACE
8
0
70
0
10
0.000000
20
43.511105
30
24.133879
11
27.552946
21
51.934952
31
24.133879
12
23.652523
22
19.164745
32
93.179970
13
0.000000
23
8.111622
33
93.408501
0
3DFACE
8
0
70
0
10
0.000000
20
8.111622
30
93.408501
11
23.652523
21
19.164745
31
93.179970
12
24.375292
22
14.614165
32
126.821259
13
0.000000
23
7.420524
33
140.073364
0
3DFACE
8
0
70
0
10
-5.096000
20
158.764587
30
-10.502630
11
32.878242
21
149.797623
31
-16.962736
12
28.507351
22
148.859711
32
-40.983147
13
-8.736386
23
157.044327
33
-45.227516
0
3DFACE
8
0
70
0
10
-1.161875
20
158.326828
30
26.417942
11
45.493469
21
143.498413
31
17.222801
12
32.878242
22
149.797623
32
-16.962736
13
-5.096000
23
158.764587
33
-10.502630
0
3DFACE
8
0
70
0
10
61.774689
20
-149.239792
30
-42.710972
11
36.739651
21
-149.757172
31
-42.694519
12
31.439041
22
-149.730225
32
-43.203575
13
45.906380
23
-149.239792
33
-43.411987
0
3DFACE
8
0
70
0
10
82.074722
20
-150.805222
30
24.752707
11
45.906380
21
-151.169098
31
24.752707
12
36.739651
22
-149.757172
32
-42.694519
13
61.774689
23
-149.239792
33
-42.710972
0
3DFACE
8
0
70
0
10
65.234634
20
109.561867
30
-30.409756
11
33.354847
21
126.993042
31
-51.813583
12
28.507351
22
148.859711
32
-40.983147
13
32.878242
23
149.797623
33
-16.962736
0
3DFACE
8
0
70
0
10
45.493469
20
143.498413
30
17.222801
11
62.067268
21
92.836624
31
15.862158
12
65.234634
22
109.561867
32
-30.409756
13
32.878242
23
149.797623
33
-16.962736
0
3DFACE
8
0
70
0
10
0.000000
20
35.845535
30
-23.331865
11
-7.453677
21
71.257751
31
-55.794529
12
29.790062
22
73.792473
32
-48.720886
13
38.863400
23
45.633469
33
-23.534237
0
3DFACE
8
0
70
0
10
27.552946
20
51.934952
30
24.133879
11
0.000000
21
43.511105
31
24.133879
12
0.000000
22
35.845535
32
-23.331865
13
38.863400
23
45.633469
33
-23.534237
0
3DFACE
8
0
70
0
10
56.339462
20
-75.878273
30
-69.253601
11
46.894047
21
-75.878273
31
-70.404968
12
47.617058
22
-43.368774
32
-57.042171
13
54.385757
23
-43.368774
33
-57.042171
0
3DFACE
8
0
70
0
10
38.282536
20
-76.252243
30
-70.062668
11
41.445946
21
-43.520214
31
-57.042171
12
47.617058
22
-43.368774
32
-57.042171
13
46.894047
23
-75.878273
33
-70.404968
0
3DFACE
8
0
70
0
10
41.437656
20
-76.272766
30
-69.226570
11
43.706951
21
-43.528538
31
-57.042171
12
41.445946
22
-43.520214
32
-57.042171
13
38.282536
23
-76.252243
33
-70.062668
0
3DFACE
8
0
70
0
10
68.422813
20
-75.931023
30
-37.448418
11
56.339462
21
-75.878273
31
-69.253601
12
54.385757
22
-43.368774
32
-57.042171
13
63.044827
23
-46.344471
33
-9.078914
0
3DFACE
8
0
70
0
10
46.894047
20
-76.321991
30
-37.448418
11
47.617058
21
-45.381390
31
-9.078914
12
43.706951
22
-43.528538
32
-57.042171
13
41.437656
23
-76.272766
33
-69.226570
0
3DFACE
8
0
70
0
10
46.894047
20
-76.321991
30
-37.448418
11
68.422813
21
-75.931023
31
-37.448418
12
63.044827
22
-46.344471
32
-9.078914
13
47.617058
23
-45.381390
33
-9.078914
0
3DFACE
8
0
70
0
10
56.339462
20
-104.814926
30
-46.795406
11
46.894047
21
-104.814926
31
-46.939327
12
46.894047
22
-75.878273
32
-70.404968
13
56.339462
23
-75.878273
33
-69.253601
0
3DFACE
8
0
70
0
10
38.282536
20
-105.229691
30
-46.896545
11
38.282536
21
-76.252243
31
-70.062668
12
46.894047
22
-75.878273
32
-70.404968
13
46.894047
23
-104.814926
33
-46.939327
0
3DFACE
8
0
70
0
10
41.437656
20
-105.252464
30
-46.792027
11
41.437656
21
-76.272766
31
-69.226570
12
38.282536
22
-76.252243
32
-70.062668
13
38.282536
23
-105.229691
33
-46.896545
0
3DFACE
8
0
70
0
10
68.422813
20
-105.667198
30
-17.159576
11
56.339462
21
-104.814926
31
-46.795406
12
56.339462
22
-75.878273
32
-69.253601
13
68.422813
23
-75.931023
33
-37.448418
0
3DFACE
8
0
70
0
10
46.894047
20
-106.058167
30
-17.159576
11
46.894047
21
-76.321991
31
-37.448418
12
41.437656
22
-76.272766
32
-69.226570
13
41.437656
23
-105.252464
33
-46.792027
0
3DFACE
8
0
70
0
10
46.894047
20
-106.058167
30
-17.159576
11
68.422813
21
-105.667198
31
-17.159576
12
68.422813
22
-75.931023
32
-37.448418
13
46.894047
23
-76.321991
33
-37.448418
0
3DFACE
8
0
70
0
10
61.774689
20
-149.239792
30
-42.710972
11
45.906380
21
-149.239792
31
-43.411987
12
46.894047
22
-104.814926
32
-46.939327
13
56.339462
23
-104.814926
33
-46.795406
0
3DFACE
8
0
70
0
10
31.439041
20
-149.730225
30
-43.203575
11
38.282536
21
-105.229691
31
-46.896545
12
46.894047
22
-104.814926
32
-46.939327
13
45.906380
23
-149.239792
33
-43.411987
0
3DFACE
8
0
70
0
10
36.739651
20
-149.757172
30
-42.694519
11
41.437656
21
-105.252464
31
-46.792027
12
38.282536
22
-105.229691
32
-46.896545
13
31.439041
23
-149.730225
33
-43.203575
0
3DFACE
8
0
70
0
10
82.074722
20
-150.805222
30
24.752707
11
61.774689
21
-149.239792
31
-42.710972
12
56.339462
22
-104.814926
32
-46.795406
13
68.422813
23
-105.667198
33
-17.159576
0
3DFACE
8
0
70
0
10
45.906380
20
-151.169098
30
24.752707
11
46.894047
21
-106.058167
31
-17.159576
12
41.437656
22
-105.252464
32
-46.792027
13
36.739651
23
-149.757172
33
-42.694519
0
3DFACE
8
0
70
0
10
45.906380
20
-151.169098
30
24.752707
11
82.074722
21
-150.805222
31
24.752707
12
68.422813
22
-105.667198
32
-17.159576
13
46.894047
23
-106.058167
33
-17.159576
0
3DFACE
8
0
70
0
10
43.716637
20
-54.403404
30
110.711143
11
23.652523
21
19.164745
31
93.179970
12
54.724529
22
70.906418
32
92.262184
13
54.724529
23
-54.403404
33
110.298141
0
3DFACE
8
0
70
0
10
43.716637
20
-54.403404
30
110.711143
11
41.445946
21
-54.403404
31
123.543198
12
24.375292
22
14.614165
32
126.821259
13
23.652523
23
19.164745
33
93.179970
0
3DFACE
8
0
70
0
10
41.445946
20
-54.403404
30
123.543198
11
47.617058
21
-54.403404
31
128.774292
12
54.283447
22
70.952736
32
140.073364
13
24.375292
23
14.614165
33
126.821259
0
3DFACE
8
0
70
0
10
47.617058
20
-54.403404
30
128.774292
11
54.724529
21
-54.403404
31
110.298141
12
54.724529
22
70.906418
32
92.262184
13
54.283447
23
70.952736
33
140.073364
0
3DFACE
8
0
70
0
10
38.039791
20
-92.485237
30
94.621384
11
43.716637
21
-54.403404
31
110.711143
12
54.724529
22
-54.403404
32
110.298141
13
55.432266
23
-92.485237
33
93.968842
0
3DFACE
8
0
70
0
10
34.452103
20
-92.485237
30
114.896019
11
41.445946
21
-54.403404
31
123.543198
12
43.716637
22
-54.403404
32
110.711143
13
38.039791
23
-92.485237
33
94.621384
0
3DFACE
8
0
70
0
10
44.202461
20
-92.485237
30
123.161156
11
47.617058
21
-54.403404
31
128.774292
12
41.445946
22
-54.403404
32
123.543198
13
34.452103
23
-92.485237
33
114.896019
0
3DFACE
8
0
70
0
10
44.202461
20
-92.485237
30
123.161156
11
55.432266
21
-92.485237
31
93.968842
12
54.724529
22
-54.403404
32
110.298141
13
47.617058
23
-54.403404
33
128.774292
0
3DFACE
8
0
70
0
10
34.807507
20
-150.563721
30
94.465508
11
38.039791
21
-92.485237
31
94.621384
12
55.432266
22
-92.485237
32
93.968842
13
63.679008
23
-150.563721
33
93.297455
0
3DFACE
8
0
70
0
10
28.851940
20
-150.563721
30
130.757095
11
34.452103
21
-92.485237
31
114.896019
12
38.039791
22
-92.485237
32
94.621384
13
34.807507
23
-150.563721
33
94.465508
0
3DFACE
8
0
70
0
10
45.037529
20
-150.563721
30
145.551682
11
44.202461
21
-92.485237
31
123.161156
12
34.452103
22
-92.485237
32
114.896019
13
28.851940
23
-150.563721
33
130.757095
0
3DFACE
8
0
70
0
10
45.037529
20
-150.563721
30
145.551682
11
63.679008
21
-150.563721
31
93.297455
12
55.432266
22
-92.485237
32
93.968842
13
44.202461
23
-92.485237
33
123.161156
0
3DFACE
8
0
70
0
10
3.320029
20
167.152191
30
245.931335
11
2.850219
21
162.836853
31
230.165482
12
28.869665
22
202.107452
32
227.183395
13
39.417427
23
188.292084
33
244.720337
0
3DFACE
8
0
70
0
10
13.361200
20
180.515762
30
337.276703
11
31.032566
21
208.839798
31
298.688843
12
9.147549
22
217.495956
32
299.553894
13
5.775469
23
183.045990
33
337.625519
0
3DFACE
8
0
70
0
10
13.584244
20
169.754990
30
336.105377
11
31.087786
21
173.124237
31
298.228973
12
31.032566
22
208.839798
32
298.688843
13
13.361200
23
180.515762
33
337.276703
0
3DFACE
8
0
70
0
10
4.271120
20
167.163864
30
336.032898
11
3.604668
21
164.152649
31
297.179047
12
31.087786
22
173.124237
32
298.228973
13
13.584244
23
169.754990
33
336.105377
0
3DFACE
8
0
70
0
10
60.856621
20
261.632385
30
237.115356
11
59.395775
21
245.696136
31
235.002579
12
56.021313
22
247.296875
32
230.213745
13
56.435806
23
252.804626
33
230.930206
0
3DFACE
8
0
70
0
10
40.070942
20
214.989670
30
248.017929
11
39.417427
21
188.292084
31
244.720337
12
28.869665
22
202.107452
32
227.183395
13
29.091558
23
219.922028
33
229.325729
0
3DFACE
8
0
70
0
10
56.435806
20
252.804626
30
230.930206
11
29.390791
21
231.502029
31
230.735840
12
41.759987
22
248.121780
32
252.216537
13
60.856621
23
261.632385
33
237.115356
0
3DFACE
8
0
70
0
10
56.021313
20
247.296875
30
230.213745
11
29.091558
21
219.922028
31
229.325729
12
29.390791
22
231.502029
32
230.735840
13
56.435806
23
252.804626
33
230.930206
0
3DFACE
8
0
70
0
10
59.395775
20
245.696136
30
235.002579
11
40.070942
21
214.989670
31
248.017929
12
29.091558
22
219.922028
32
229.325729
13
56.021313
23
247.296875
33
230.213745
0
3DFACE
8
0
70
0
10
59.395775
20
245.696136
30
235.002579
11
60.856621
21
261.632385
31
237.115356
12
41.759987
22
248.121780
32
252.216537
13
40.070942
23
214.989670
33
248.017929
0
3DFACE
8
0
70
0
10
29.308979
20
243.993591
30
241.935455
11
19.109455
21
249.187057
31
242.454361
12
14.828714
22
262.413666
32
253.646896
13
41.759987
23
248.121780
33
252.216537
0
3DFACE
8
0
70
0
10
18.304663
20
239.538376
30
231.023712
11
10.334631
21
236.116058
31
223.410110
12
14.828714
22
262.413666
32
253.646896
13
19.109455
23
249.187057
33
242.454361
0
3DFACE
8
0
70
0
10
24.902651
20
237.852386
30
233.808395
11
29.390791
21
231.502029
31
230.735840
12
10.334631
22
236.116058
32
223.410110
13
18.304663
23
239.538376
33
231.023712
0
3DFACE
8
0
70
0
10
24.902651
20
237.852386
30
233.808395
11
29.308979
21
243.993591
31
241.935455
12
41.759987
22
248.121780
32
252.216537
13
29.390791
23
231.502029
33
230.735840
0
3DFACE
8
0
70
0
10
69.530884
20
313.354584
30
206.317963
11
71.325417
21
310.221527
31
205.123077
12
69.831833
22
308.310333
32
204.735382
13
66.129913
23
311.084229
33
206.417404
0
3DFACE
8
0
70
0
10
19.109455
20
249.187057
30
242.454361
11
63.479832
21
271.598145
31
230.174622
12
63.690369
22
262.748260
32
223.116409
13
18.304663
23
239.538376
33
231.023712
0
3DFACE
8
0
70
0
10
68.529839
20
263.515045
30
224.503052
11
63.690369
21
262.748260
31
223.116409
12
71.608795
22
269.323975
32
219.963165
13
76.670761
23
271.807678
33
220.444061
0
3DFACE
8
0
70
0
10
63.479832
20
271.598145
30
230.174622
11
70.544601
21
277.589325
31
225.786697
12
71.608795
22
269.323975
32
219.963165
13
63.690369
23
262.748260
33
223.116409
0
3DFACE
8
0
70
0
10
99.355209
20
273.863159
30
198.682068
11
99.001297
21
272.865234
31
196.026993
12
99.117462
22
277.184082
32
196.496323
13
99.066696
23
278.316376
33
198.874298
0
3DFACE
8
0
70
0
10
29.308979
20
243.993591
30
241.935455
11
24.902651
21
237.852386
31
233.808395
12
68.529839
22
263.515045
32
224.503052
13
70.754868
23
269.461517
33
229.668884
0
3DFACE
8
0
70
0
10
70.754868
20
269.461517
30
229.668884
11
78.263351
21
278.033295
31
224.299805
12
70.544601
22
277.589325
32
225.786697
13
63.479832
23
271.598145
33
230.174622
0
3DFACE
8
0
70
0
10
24.902651
20
237.852386
30
233.808395
11
18.304663
21
239.538376
31
231.023712
12
63.690369
22
262.748260
32
223.116409
13
68.529839
23
263.515045
33
224.503052
0
3DFACE
8
0
70
0
10
72.169273
20
296.565948
30
215.440308
11
72.640274
21
303.362183
31
211.860657
12
68.734184
22
299.504456
32
212.477097
13
67.960442
23
296.611298
33
214.386490
0
3DFACE
8
0
70
0
10
78.263351
20
278.033295
30
224.299805
11
72.169273
21
296.565948
31
215.440308
12
67.960442
22
296.611298
32
214.386490
13
70.544601
23
277.589325
33
225.786697
0
3DFACE
8
0
70
0
10
73.287300
20
293.491821
30
212.292953
11
71.607826
21
292.688690
31
210.960739
12
72.994675
22
296.792450
32
209.245483
13
74.576302
23
300.040558
33
209.613754
0
3DFACE
8
0
70
0
10
76.670761
20
271.807678
30
220.444061
11
71.608795
21
269.323975
31
219.963165
12
71.607826
22
292.688690
32
210.960739
13
73.287300
23
293.491821
33
212.292953
0
3DFACE
8
0
70
0
10
55.151871
20
301.243958
30
202.631500
11
54.143188
21
303.715698
31
204.780380
12
55.363159
22
304.948364
32
204.198151
13
56.946667
23
302.816711
33
202.331467
0
3DFACE
8
0
70
0
10
71.608795
20
269.323975
30
219.963165
11
70.544601
21
277.589325
31
225.786697
12
67.960442
22
296.611298
32
214.386490
13
71.607826
23
292.688690
33
210.960739
0
3DFACE
8
0
70
0
10
72.169273
20
296.565948
30
215.440308
11
73.287300
21
293.491821
31
212.292953
12
74.576302
22
300.040558
32
209.613754
13
72.640274
23
303.362183
33
211.860657
0
3DFACE
8
0
70
0
10
76.670761
20
271.807678
30
220.444061
11
73.287300
21
293.491821
31
212.292953
12
72.169273
22
296.565948
32
215.440308
13
78.263351
23
278.033295
33
224.299805
0
3DFACE
8
0
70
0
10
71.377281
20
307.374329
30
209.631943
11
69.530884
21
313.354584
31
206.317963
12
66.129913
22
311.084229
32
206.417404
13
66.957245
23
307.334808
33
208.376831
0
3DFACE
8
0
70
0
10
68.734184
20
299.504456
30
212.477097
11
66.957245
21
307.334808
31
208.376831
12
70.870247
22
304.465759
32
206.238007
13
72.994675
23
296.792450
33
209.245483
0
3DFACE
8
0
70
0
10
72.994675
20
296.792450
30
209.245483
11
70.870247
21
304.465759
31
206.238007
12
72.973656
22
305.009430
32
207.418991
13
74.576302
23
300.040558
33
209.613754
0
3DFACE
8
0
70
0
10
80.263237
20
300.377747
30
195.425110
11
78.542824
21
303.553528
31
196.021133
12
78.222565
22
304.172943
32
198.303040
13
79.735771
23
301.503479
33
198.073914
0
3DFACE
8
0
70
0
10
68.734184
20
299.504456
30
212.477097
11
72.640274
21
303.362183
31
211.860657
12
71.377281
22
307.374329
32
209.631943
13
66.957245
23
307.334808
33
208.376831
0
3DFACE
8
0
70
0
10
66.957245
20
307.334808
30
208.376831
11
66.129913
21
311.084229
31
206.417404
12
69.831833
22
308.310333
32
204.735382
13
70.870247
23
304.465759
33
206.238007
0
3DFACE
8
0
70
0
10
72.973656
20
305.009430
30
207.418991
11
70.870247
21
304.465759
31
206.238007
12
69.831833
22
308.310333
32
204.735382
13
71.325417
23
310.221527
33
205.123077
0
3DFACE
8
0
70
0
10
71.377281
20
307.374329
30
209.631943
11
72.973656
21
305.009430
31
207.418991
12
71.325417
22
310.221527
32
205.123077
13
69.530884
23
313.354584
33
206.317963
0
3DFACE
8
0
70
0
10
70.754868
20
269.461517
30
229.668884
11
73.976921
21
267.140900
31
227.439194
12
80.722519
22
274.840393
32
222.600723
13
78.263351
23
278.033295
33
224.299805
0
3DFACE
8
0
70
0
10
78.263351
20
278.033295
30
224.299805
11
80.722519
21
274.840393
31
222.600723
12
79.306801
22
269.242645
32
219.137390
13
76.670761
23
271.807678
33
220.444061
0
3DFACE
8
0
70
0
10
76.670761
20
271.807678
30
220.444061
11
79.306801
21
269.242645
31
219.137390
12
71.990967
22
261.800812
32
222.795959
13
68.529839
23
263.515045
33
224.503052
0
3DFACE
8
0
70
0
10
68.529839
20
263.515045
30
224.503052
11
71.990967
21
261.800812
31
222.795959
12
73.976921
22
267.140900
32
227.439194
13
70.754868
23
269.461517
33
229.668884
0
3DFACE
8
0
70
0
10
73.976921
20
267.140900
30
227.439194
11
78.871681
21
262.697449
31
224.614014
12
82.551025
22
271.849457
32
221.520630
13
80.722519
23
274.840393
33
222.600723
0
3DFACE
8
0
70
0
10
80.722519
20
274.840393
30
222.600723
11
82.551025
21
271.849457
31
221.520630
12
82.054359
22
267.376678
32
217.405991
13
79.306801
23
269.242645
33
219.137390
0
3DFACE
8
0
70
0
10
79.306801
20
269.242645
30
219.137390
11
82.054359
21
267.376678
31
217.405991
12
77.700546
22
258.549866
32
219.574692
13
71.990967
23
261.800812
33
222.795959
0
3DFACE
8
0
70
0
10
71.990967
20
261.800812
30
222.795959
11
77.700546
21
258.549866
31
219.574692
12
78.871681
22
262.697449
32
224.614014
13
73.976921
23
267.140900
33
227.439194
0
3DFACE
8
0
70
0
10
78.871681
20
262.697449
30
224.614014
11
83.659332
21
262.014923
31
220.181137
12
83.789429
22
271.463287
32
219.886734
13
82.551025
23
271.849457
33
221.520630
0
3DFACE
8
0
70
0
10
82.551025
20
271.849457
30
221.520630
11
83.789429
21
271.463287
31
219.886734
12
83.850754
22
268.683350
32
215.115311
13
82.054359
23
267.376678
33
217.405991
0
3DFACE
8
0
70
0
10
82.054359
20
267.376678
30
217.405991
11
83.850754
21
268.683350
31
215.115311
12
82.919670
22
259.522186
32
214.781097
13
77.700546
23
258.549866
33
219.574692
0
3DFACE
8
0
70
0
10
77.700546
20
258.549866
30
219.574692
11
82.919670
21
259.522186
31
214.781097
12
83.659332
22
262.014923
32
220.181137
13
78.871681
23
262.697449
33
224.614014
0
3DFACE
8
0
70
0
10
83.659332
20
262.014923
30
220.181137
11
86.153114
21
263.466797
31
216.967422
12
85.911667
22
271.966370
32
217.038391
13
83.789429
23
271.463287
33
219.886734
0
3DFACE
8
0
70
0
10
83.789429
20
271.463287
30
219.886734
11
85.911667
21
271.966370
31
217.038391
12
85.989304
22
269.644714
32
212.643524
13
83.850754
23
268.683350
33
215.115311
0
3DFACE
8
0
70
0
10
83.850754
20
268.683350
30
215.115311
11
85.989304
21
269.644714
31
212.643524
12
85.488541
22
261.395691
32
212.031006
13
82.919670
23
259.522186
33
214.781097
0
3DFACE
8
0
70
0
10
82.919670
20
259.522186
30
214.781097
11
85.488541
21
261.395691
31
212.031006
12
86.153114
22
263.466797
32
216.967422
13
83.659332
23
262.014923
33
220.181137
0
3DFACE
8
0
70
0
10
86.153114
20
263.466797
30
216.967422
11
88.541672
21
264.453613
31
214.082047
12
88.317268
22
272.085938
32
214.145309
13
85.911667
23
271.966370
33
217.038391
0
3DFACE
8
0
70
0
10
85.911667
20
271.966370
30
217.038391
11
88.317268
21
272.085938
31
214.145309
12
88.390457
22
270.002533
32
210.190247
13
85.989304
23
269.644714
33
212.643524
0
3DFACE
8
0
70
0
10
85.989304
20
269.644714
30
212.643524
11
88.390457
21
270.002533
31
210.190247
12
87.945572
22
262.597473
32
209.639420
13
85.488541
23
261.395691
33
212.031006
0
3DFACE
8
0
70
0
10
85.488541
20
261.395691
30
212.031006
11
87.945572
21
262.597473
31
209.639420
12
88.541672
22
264.453613
32
214.082047
13
86.153114
23
263.466797
33
216.967422
0
3DFACE
8
0
70
0
10
88.541672
20
264.453613
30
214.082047
11
91.148529
21
265.803650
31
210.818588
12
90.343765
22
272.603180
32
211.483353
13
88.317268
23
272.085938
33
214.145309
0
3DFACE
8
0
70
0
10
88.317268
20
272.085938
30
214.145309
11
90.343765
21
272.603180
31
211.483353
12
90.420799
22
271.049194
32
207.765732
13
88.390457
23
270.002533
33
210.190247
0
3DFACE
8
0
70
0
10
88.390457
20
270.002533
30
210.190247
11
90.420799
21
271.049194
31
207.765732
12
90.590340
22
264.431824
32
206.704224
13
87.945572
23
262.597473
33
209.639420
0
3DFACE
8
0
70
0
10
87.945572
20
262.597473
30
209.639420
11
90.590340
21
264.431824
31
206.704224
12
91.148529
22
265.803650
32
210.818588
13
88.541672
23
264.453613
33
214.082047
0
3DFACE
8
0
70
0
10
91.148529
20
265.803650
30
210.818588
11
93.245598
21
267.509949
31
207.883621
12
92.027847
22
273.474701
32
209.031021
13
90.343765
23
272.603180
33
211.483353
0
3DFACE
8
0
70
0
10
90.343765
20
272.603180
30
211.483353
11
92.027847
21
273.474701
31
209.031021
12
92.075798
22
272.368866
32
205.570099
13
90.420799
23
271.049194
33
207.765732
0
3DFACE
8
0
70
0
10
90.420799
20
271.049194
30
207.765732
11
92.075798
21
272.368866
31
205.570099
12
92.696930
22
266.542267
32
204.101715
13
90.590340
23
264.431824
33
206.704224
0
3DFACE
8
0
70
0
10
90.590340
20
264.431824
30
206.704224
11
92.696930
21
266.542267
31
204.101715
12
93.245598
22
267.509949
32
207.883621
13
91.148529
23
265.803650
33
210.818588
0
3DFACE
8
0
70
0
10
93.245598
20
267.509949
30
207.883621
11
95.173561
21
269.999176
31
204.743164
12
93.995895
22
275.321503
32
205.877792
13
92.027847
23
273.474701
33
209.031021
0
3DFACE
8
0
70
0
10
92.027847
20
273.474701
30
209.031021
11
93.995895
21
275.321503
31
205.877792
12
94.031540
22
274.383698
32
202.744614
13
92.075798
23
272.368866
33
205.570099
0
3DFACE
8
0
70
0
10
92.075798
20
272.368866
30
205.570099
11
94.031540
21
274.383698
31
202.744614
12
94.668381
22
269.181854
32
201.327576
13
92.696930
23
266.542267
33
204.101715
0
3DFACE
8
0
70
0
10
92.696930
20
266.542267
30
204.101715
11
94.668381
21
269.181854
31
201.327576
12
95.173561
22
269.999176
32
204.743164
13
93.245598
23
267.509949
33
207.883621
0
3DFACE
8
0
70
0
10
95.173561
20
269.999176
30
204.743164
11
97.238968
21
272.447540
31
201.490494
12
96.575035
22
277.357544
32
202.065796
13
93.995895
23
275.321503
33
205.877792
0
3DFACE
8
0
70
0
10
93.995895
20
275.321503
30
205.877792
11
96.575035
21
277.357544
31
202.065796
12
96.629753
22
276.282715
32
199.335007
13
94.031540
23
274.383698
33
202.744614
0
3DFACE
8
0
70
0
10
94.031540
20
274.383698
30
202.744614
11
96.629753
21
276.282715
31
199.335007
12
96.826263
22
271.505554
32
198.476563
13
94.668381
23
269.181854
33
201.327576
0
3DFACE
8
0
70
0
10
94.668381
20
269.181854
30
201.327576
11
96.826263
21
271.505554
31
198.476563
12
97.238968
22
272.447540
32
201.490494
13
95.173561
23
269.999176
33
204.743164
0
3DFACE
8
0
70
0
10
97.238968
20
272.447540
30
201.490494
11
99.355209
21
273.863159
31
198.682068
12
99.066696
22
278.316376
32
198.874298
13
96.575035
23
277.357544
33
202.065796
0
3DFACE
8
0
70
0
10
96.575035
20
277.357544
30
202.065796
11
99.066696
21
278.316376
31
198.874298
12
99.117462
22
277.184082
32
196.496323
13
96.629753
23
276.282715
33
199.335007
0
3DFACE
8
0
70
0
10
96.629753
20
276.282715
30
199.335007
11
99.117462
21
277.184082
31
196.496323
12
99.001297
22
272.865234
32
196.026993
13
96.826263
23
271.505554
33
198.476563
0
3DFACE
8
0
70
0
10
96.826263
20
271.505554
30
198.476563
11
99.001297
21
272.865234
31
196.026993
12
99.355209
22
273.863159
32
198.682068
13
97.238968
23
272.447540
33
201.490494
0
3DFACE
8
0
70
0
10
71.607826
20
292.688690
30
210.960739
11
67.365639
21
292.544586
31
209.293793
12
69.027954
22
296.133453
32
207.962219
13
72.994675
23
296.792450
33
209.245483
0
3DFACE
8
0
70
0
10
72.994675
20
296.792450
30
209.245483
11
69.027954
21
296.133453
31
207.962219
12
65.373390
22
298.864929
32
210.888016
13
68.734184
23
299.504456
33
212.477097
0
3DFACE
8
0
70
0
10
68.734184
20
299.504456
30
212.477097
11
65.373390
21
298.864929
31
210.888016
12
64.372650
22
296.287689
32
212.461777
13
67.960442
23
296.611298
33
214.386490
0
3DFACE
8
0
70
0
10
67.960442
20
296.611298
30
214.386490
11
64.372650
21
296.287689
31
212.461777
12
67.365639
22
292.544586
32
209.293793
13
71.607826
23
292.688690
33
210.960739
0
3DFACE
8
0
70
0
10
67.365639
20
292.544586
30
209.293793
11
64.774170
21
293.221039
31
208.169144
12
66.510941
22
296.359222
32
207.100021
13
69.027954
23
296.133453
33
207.962219
0
3DFACE
8
0
70
0
10
69.027954
20
296.133453
30
207.962219
11
66.510941
21
296.359222
31
207.100021
12
63.346794
22
298.981598
32
209.753128
13
65.373390
23
298.864929
33
210.888016
0
3DFACE
8
0
70
0
10
65.373390
20
298.864929
30
210.888016
11
63.346794
21
298.981598
31
209.753128
12
62.266663
22
296.699280
32
211.079880
13
64.372650
23
296.287689
33
212.461777
0
3DFACE
8
0
70
0
10
64.372650
20
296.287689
30
212.461777
11
62.266663
21
296.699280
31
211.079880
12
64.774170
22
293.221039
32
208.169144
13
67.365639
23
292.544586
33
209.293793
0
3DFACE
8
0
70
0
10
64.774170
20
293.221039
30
208.169144
11
61.438789
21
293.778015
31
206.714386
12
63.753063
22
296.075562
32
206.210419
13
66.510941
23
296.359222
33
207.100021
0
3DFACE
8
0
70
0
10
66.510941
20
296.359222
30
207.100021
11
63.753063
21
296.075562
31
206.210419
12
61.429317
22
298.906281
32
208.730103
13
63.346794
23
298.981598
33
209.753128
0
3DFACE
8
0
70
0
10
63.346794
20
298.981598
30
209.753128
11
61.429317
21
298.906281
31
208.730103
12
59.873932
22
297.134064
32
209.596725
13
62.266663
23
296.699280
33
211.079880
0
3DFACE
8
0
70
0
10
62.266663
20
296.699280
30
211.079880
11
59.873932
21
297.134064
31
209.596725
12
61.438789
22
293.778015
32
206.714386
13
64.774170
23
293.221039
33
208.169144
0
3DFACE
8
0
70
0
10
61.438789
20
293.778015
30
206.714386
11
58.492695
21
297.048615
31
204.810593
12
61.202229
22
298.117981
32
204.862930
13
63.753063
23
296.075562
33
206.210419
0
3DFACE
8
0
70
0
10
63.753063
20
296.075562
30
206.210419
11
61.202229
21
298.117981
31
204.862930
12
59.887531
22
300.949615
32
207.416153
13
61.429317
23
298.906281
33
208.730103
0
3DFACE
8
0
70
0
10
61.429317
20
298.906281
30
208.730103
11
59.887531
21
300.949615
31
207.416153
12
57.949585
22
299.981567
32
207.812469
13
59.873932
23
297.134064
33
209.596725
0
3DFACE
8
0
70
0
10
59.873932
20
297.134064
30
209.596725
11
57.949585
21
299.981567
31
207.812469
12
58.492695
22
297.048615
32
204.810593
13
61.438789
23
293.778015
33
206.714386
0
3DFACE
8
0
70
0
10
58.492695
20
297.048615
30
204.810593
11
57.037514
21
299.779846
31
203.683701
12
59.345425
22
301.044891
32
203.602112
13
61.202229
23
298.117981
33
204.862930
0
3DFACE
8
0
70
0
10
61.202229
20
298.117981
30
204.862930
11
59.345425
21
301.044891
31
203.602112
12
57.953381
22
303.557800
32
205.810898
13
59.887531
23
300.949615
33
207.416153
0
3DFACE
8
0
70
0
10
59.887531
20
300.949615
30
207.416153
11
57.953381
21
303.557800
31
205.810898
12
56.330093
22
302.489166
32
206.267929
13
57.949585
23
299.981567
33
207.812469
0
3DFACE
8
0
70
0
10
57.949585
20
299.981567
30
207.812469
11
56.330093
21
302.489166
31
206.267929
12
57.037514
22
299.779846
32
203.683701
13
58.492695
23
297.048615
33
204.810593
0
3DFACE
8
0
70
0
10
57.037514
20
299.779846
30
203.683701
11
55.151871
21
301.243958
31
202.631500
12
56.946667
22
302.816711
32
202.331467
13
59.345425
23
301.044891
33
203.602112
0
3DFACE
8
0
70
0
10
59.345425
20
301.044891
30
203.602112
11
56.946667
21
302.816711
31
202.331467
12
55.363159
22
304.948364
32
204.198151
13
57.953381
23
303.557800
33
205.810898
0
3DFACE
8
0
70
0
10
57.953381
20
303.557800
30
205.810898
11
55.363159
21
304.948364
31
204.198151
12
54.143188
22
303.715698
32
204.780380
13
56.330093
23
302.489166
33
206.267929
0
3DFACE
8
0
70
0
10
56.330093
20
302.489166
30
206.267929
11
54.143188
21
303.715698
31
204.780380
12
55.151871
22
301.243958
32
202.631500
13
57.037514
23
299.779846
33
203.683701
0
3DFACE
8
0
70
0
10
74.576302
20
300.040558
30
209.613754
11
77.099556
21
299.057617
31
206.458984
12
75.464890
22
301.816040
32
208.854874
13
72.640274
23
303.362183
33
211.860657
0
3DFACE
8
0
70
0
10
72.640274
20
303.362183
30
211.860657
11
75.464890
21
301.816040
31
208.854874
12
74.069778
22
305.517303
32
207.230911
13
71.377281
23
307.374329
33
209.631943
0
3DFACE
8
0
70
0
10
71.377281
20
307.374329
30
209.631943
11
74.069778
21
305.517303
31
207.230911
12
75.382851
22
303.602936
32
204.956573
13
72.973656
23
305.009430
33
207.418991
0
3DFACE
8
0
70
0
10
72.973656
20
305.009430
30
207.418991
11
75.382851
21
303.602936
31
204.956573
12
77.099556
22
299.057617
32
206.458984
13
74.576302
23
300.040558
33
209.613754
0
3DFACE
8
0
70
0
10
77.099556
20
299.057617
30
206.458984
11
78.297829
21
299.150421
31
203.535736
12
77.200981
22
301.076233
32
206.377014
13
75.464890
23
301.816040
33
208.854874
0
3DFACE
8
0
70
0
10
75.464890
20
301.816040
30
208.854874
11
77.200981
21
301.076233
31
206.377014
12
75.533325
22
304.473450
32
205.823059
13
74.069778
23
305.517303
33
207.230911
0
3DFACE
8
0
70
0
10
74.069778
20
305.517303
30
207.230911
11
75.533325
21
304.473450
31
205.823059
12
76.340218
22
303.248535
32
203.282715
13
75.382851
23
303.602936
33
204.956573
0
3DFACE
8
0
70
0
10
75.382851
20
303.602936
30
204.956573
11
76.340218
21
303.248535
31
203.282715
12
78.297829
22
299.150421
32
203.535736
13
77.099556
23
299.057617
33
206.458984
0
3DFACE
8
0
70
0
10
78.297829
20
299.150421
30
203.535736
11
79.398712
21
299.791870
31
199.098557
12
78.736794
22
301.129242
32
201.985291
13
77.200981
23
301.076233
33
206.377014
0
3DFACE
8
0
70
0
10
77.200981
20
301.076233
30
206.377014
11
78.736794
21
301.129242
31
201.985291
12
77.077942
22
304.121368
32
202.107590
13
75.533325
23
304.473450
33
205.823059
0
3DFACE
8
0
70
0
10
75.533325
20
304.473450
30
205.823059
11
77.077942
21
304.121368
31
202.107590
12
77.502159
22
303.359924
32
199.605896
13
76.340218
23
303.248535
33
203.282715
0
3DFACE
8
0
70
0
10
76.340218
20
303.248535
30
203.282715
11
77.502159
21
303.359924
31
199.605896
12
79.398712
22
299.791870
32
199.098557
13
78.297829
23
299.150421
33
203.535736
0
3DFACE
8
0
70
0
10
79.398712
20
299.791870
30
199.098557
11
80.263237
21
300.377747
31
195.425110
12
79.735771
22
301.503479
32
198.073914
13
78.736794
23
301.129242
33
201.985291
0
3DFACE
8
0
70
0
10
78.736794
20
301.129242
30
201.985291
11
79.735771
21
301.503479
31
198.073914
12
78.222565
22
304.172943
32
198.303040
13
77.077942
23
304.121368
33
202.107590
0
3DFACE
8
0
70
0
10
77.077942
20
304.121368
30
202.107590
11
78.222565
21
304.172943
31
198.303040
12
78.542824
22
303.553528
32
196.021133
13
77.502159
23
303.359924
33
199.605896
0
3DFACE
8
0
70
0
10
77.502159
20
303.359924
30
199.605896
11
78.542824
21
303.553528
31
196.021133
12
80.263237
22
300.377747
32
195.425110
13
79.398712
23
299.791870
33
199.098557
0
3DFACE
8
0
70
0
10
0.000000
20
7.420524
30
140.073364
11
0.000000
21
67.276886
31
179.891632
12
-54.283447
22
70.952736
32
140.073364
13
-24.375292
23
14.614165
33
126.821259
0
3DFACE
8
0
70
0
10
4.271120
20
167.163864
30
336.032898
11
5.775469
21
183.045990
31
337.625519
12
-2.134558
22
182.415283
32
337.303436
13
-4.408501
23
171.747787
33
336.130707
0
3DFACE
8
0
70
0
10
-7.453677
20
71.257751
30
-55.794529
11
-42.467903
21
73.176254
31
-40.704025
12
-49.544910
22
126.286064
32
-42.616032
13
-9.919885
23
131.768356
33
-63.040401
0
3DFACE
8
0
70
0
10
-12.270627
20
160.695679
30
-77.535355
11
-15.423727
21
161.912369
31
-76.839500
12
-14.972611
22
171.037140
32
-74.456169
13
-12.267264
23
171.919861
33
-74.541191
0
3DFACE
8
0
70
0
10
-47.817219
20
142.702637
30
27.575422
11
-43.863049
21
137.501205
31
91.341301
12
0.000000
22
148.811951
32
91.107437
13
-1.161875
23
158.326828
33
26.417942
0
3DFACE
8
0
70
0
10
0.000000
20
148.811951
30
91.107437
11
-43.863049
21
137.501205
31
91.341301
12
-41.445946
22
135.029648
32
121.695625
13
0.000000
23
152.367416
33
123.288216
0
3DFACE
8
0
70
0
10
-27.552946
20
51.934952
30
24.133879
11
-23.652523
21
19.164745
31
93.179970
12
-54.724529
22
70.906418
32
92.262184
13
-61.475769
23
91.783028
33
29.568993
0
3DFACE
8
0
70
0
10
-63.679008
20
-150.563721
30
93.297455
11
-34.807507
21
-150.563721
31
94.465508
12
-28.851940
22
-150.563721
32
130.757095
13
-45.037529
23
-150.563721
33
145.551682
0
3DFACE
8
0
70
0
10
-61.475769
20
91.783028
30
29.568993
11
-54.724529
21
70.906418
31
92.262184
12
-43.863049
22
137.501205
32
91.341301
13
-47.817219
23
142.702637
33
27.575422
0
3DFACE
8
0
70
0
10
-54.724529
20
70.906418
30
92.262184
11
-54.283447
21
70.952736
31
140.073364
12
-41.445946
22
135.029648
32
121.695625
13
-43.863049
23
137.501205
33
91.341301
0
3DFACE
8
0
70
0
10
0.000000
20
43.511105
30
24.133879
11
0.000000
21
8.111622
31
93.408501
12
-23.652523
22
19.164745
32
93.179970
13
-27.552946
23
51.934952
33
24.133879
0
3DFACE
8
0
70
0
10
0.000000
20
8.111622
30
93.408501
11
0.000000
21
7.420524
31
140.073364
12
-24.375292
22
14.614165
32
126.821259
13
-23.652523
23
19.164745
33
93.179970
0
3DFACE
8
0
70
0
10
-5.096000
20
158.764587
30
-10.502630
11
-8.736386
21
157.044327
31
-45.227516
12
-43.750614
22
148.243484
32
-32.966278
13
-43.027149
23
149.150299
33
-8.541195
0
3DFACE
8
0
70
0
10
-1.161875
20
158.326828
30
26.417942
11
-5.096000
21
158.764587
31
-10.502630
12
-43.027149
22
149.150299
32
-8.541195
13
-47.817219
23
142.702637
33
27.575422
0
3DFACE
8
0
70
0
10
-61.774689
20
-149.239792
30
-42.710972
11
-45.906380
21
-149.239792
31
-43.411987
12
-31.439041
22
-149.730225
32
-43.203575
13
-36.739651
23
-149.757172
33
-42.694519
0
3DFACE
8
0
70
0
10
-82.074722
20
-150.805222
30
24.752707
11
-61.774689
21
-149.239792
31
-42.710972
12
-36.739651
22
-149.757172
32
-42.694519
13
-45.906380
23
-151.169098
33
24.752707
0
3DFACE
8
0
70
0
10
-75.208138
20
108.364159
30
-14.827932
11
-43.027149
21
149.150299
31
-8.541195
12
-43.750614
22
148.243484
32
-32.966278
13
-49.544910
23
126.286064
33
-42.616032
0
3DFACE
8
0
70
0
10
-47.817219
20
142.702637
30
27.575422
11
-43.027149
21
149.150299
31
-8.541195
12
-75.208138
22
108.364159
32
-14.827932
13
-61.475769
23
91.783028
33
29.568993
0
3DFACE
8
0
70
0
10
0.000000
20
35.845535
30
-23.331865
11
-38.863400
21
45.633469
31
-23.534237
12
-42.467903
22
73.176254
32
-40.704025
13
-7.453677
23
71.257751
33
-55.794529
0
3DFACE
8
0
70
0
10
-27.552946
20
51.934952
30
24.133879
11
-38.863400
21
45.633469
31
-23.534237
12
0.000000
22
35.845535
32
-23.331865
13
0.000000
23
43.511105
33
24.133879
0
3DFACE
8
0
70
0
10
-56.339462
20
-75.878273
30
-69.253601
11
-54.385757
21
-43.368774
31
-57.042171
12
-47.617058
22
-43.368774
32
-57.042171
13
-46.894047
23
-75.878273
33
-70.404968
0
3DFACE
8
0
70
0
10
-38.282536
20
-76.252243
30
-70.062668
11
-46.894047
21
-75.878273
31
-70.404968
12
-47.617058
22
-43.368774
32
-57.042171
13
-41.445946
23
-43.520214
33
-57.042171
0
3DFACE
8
0
70
0
10
-41.437656
20
-76.272766
30
-69.226570
11
-38.282536
21
-76.252243
31
-70.062668
12
-41.445946
22
-43.520214
32
-57.042171
13
-43.706951
23
-43.528538
33
-57.042171
0
3DFACE
8
0
70
0
10
-68.422813
20
-75.931023
30
-37.448418
11
-63.044827
21
-46.344471
31
-9.078914
12
-54.385757
22
-43.368774
32
-57.042171
13
-56.339462
23
-75.878273
33
-69.253601
0
3DFACE
8
0
70
0
10
-46.894047
20
-76.321991
30
-37.448418
11
-41.437656
21
-76.272766
31
-69.226570
12
-43.706951
22
-43.528538
32
-57.042171
13
-47.617058
23
-45.381390
33
-9.078914
0
3DFACE
8
0
70
0
10
-46.894047
20
-76.321991
30
-37.448418
11
-47.617058
21
-45.381390
31
-9.078914
12
-63.044827
22
-46.344471
32
-9.078914
13
-68.422813
23
-75.931023
33
-37.448418
0
3DFACE
8
0
70
0
10
-56.339462
20
-104.814926
30
-46.795406
11
-56.339462
21
-75.878273
31
-69.253601
12
-46.894047
22
-75.878273
32
-70.404968
13
-46.894047
23
-104.814926
33
-46.939327
0
3DFACE
8
0
70
0
10
-38.282536
20
-105.229691
30
-46.896545
11
-46.894047
21
-104.814926
31
-46.939327
12
-46.894047
22
-75.878273
32
-70.404968
13
-38.282536
23
-76.252243
33
-70.062668
0
3DFACE
8
0
70
0
10
-41.437656
20
-105.252464
30
-46.792027
11
-38.282536
21
-105.229691
31
-46.896545
12
-38.282536
22
-76.252243
32
-70.062668
13
-41.437656
23
-76.272766
33
-69.226570
0
3DFACE
8
0
70
0
10
-68.422813
20
-105.667198
30
-17.159576
11
-68.422813
21
-75.931023
31
-37.448418
12
-56.339462
22
-75.878273
32
-69.253601
13
-56.339462
23
-104.814926
33
-46.795406
0
3DFACE
8
0
70
0
10
-46.894047
20
-106.058167
30
-17.159576
11
-41.437656
21
-105.252464
31
-46.792027
12
-41.437656
22
-76.272766
32
-69.226570
13
-46.894047
23
-76.321991
33
-37.448418
0
3DFACE
8
0
70
0
10
-46.894047
20
-106.058167
30
-17.159576
11
-46.894047
21
-76.321991
31
-37.448418
12
-68.422813
22
-75.931023
32
-37.448418
13
-68.422813
23
-105.667198
33
-17.159576
0
3DFACE
8
0
70
0
10
-61.774689
20
-149.239792
30
-42.710972
11
-56.339462
21
-104.814926
31
-46.795406
12
-46.894047
22
-104.814926
32
-46.939327
13
-45.906380
23
-149.239792
33
-43.411987
0
3DFACE
8
0
70
0
10
-31.439041
20
-149.730225
30
-43.203575
11
-45.906380
21
-149.239792
31
-43.411987
12
-46.894047
22
-104.814926
32
-46.939327
13
-38.282536
23
-105.229691
33
-46.896545
0
3DFACE
8
0
70
0
10
-36.739651
20
-149.757172
30
-42.694519
11
-31.439041
21
-149.730225
31
-43.203575
12
-38.282536
22
-105.229691
32
-46.896545
13
-41.437656
23
-105.252464
33
-46.792027
0
3DFACE
8
0
70
0
10
-82.074722
20
-150.805222
30
24.752707
11
-68.422813
21
-105.667198
31
-17.159576
12
-56.339462
22
-104.814926
32
-46.795406
13
-61.774689
23
-149.239792
33
-42.710972
0
3DFACE
8
0
70
0
10
-45.906380
20
-151.169098
30
24.752707
11
-36.739651
21
-149.757172
31
-42.694519
12
-41.437656
22
-105.252464
32
-46.792027
13
-46.894047
23
-106.058167
33
-17.159576
0
3DFACE
8
0
70
0
10
-45.906380
20
-151.169098
30
24.752707
11
-46.894047
21
-106.058167
31
-17.159576
12
-68.422813
22
-105.667198
32
-17.159576
13
-82.074722
23
-150.805222
33
24.752707
0
3DFACE
8
0
70
0
10
-43.716637
20
-54.403404
30
110.711143
11
-54.724529
21
-54.403404
31
110.298141
12
-54.724529
22
70.906418
32
92.262184
13
-23.652523
23
19.164745
33
93.179970
0
3DFACE
8
0
70
0
10
-43.716637
20
-54.403404
30
110.711143
11
-23.652523
21
19.164745
31
93.179970
12
-24.375292
22
14.614165
32
126.821259
13
-41.445946
23
-54.403404
33
123.543198
0
3DFACE
8
0
70
0
10
-41.445946
20
-54.403404
30
123.543198
11
-24.375292
21
14.614165
31
126.821259
12
-54.283447
22
70.952736
32
140.073364
13
-47.617058
23
-54.403404
33
128.774292
0
3DFACE
8
0
70
0
10
-47.617058
20
-54.403404
30
128.774292
11
-54.283447
21
70.952736
31
140.073364
12
-54.724529
22
70.906418
32
92.262184
13
-54.724529
23
-54.403404
33
110.298141
0
3DFACE
8
0
70
0
10
-38.039791
20
-92.485237
30
94.621384
11
-55.432266
21
-92.485237
31
93.968842
12
-54.724529
22
-54.403404
32
110.298141
13
-43.716637
23
-54.403404
33
110.711143
0
3DFACE
8
0
70
0
10
-34.452103
20
-92.485237
30
114.896019
11
-38.039791
21
-92.485237
31
94.621384
12
-43.716637
22
-54.403404
32
110.711143
13
-41.445946
23
-54.403404
33
123.543198
0
3DFACE
8
0
70
0
10
-44.202461
20
-92.485237
30
123.161156
11
-34.452103
21
-92.485237
31
114.896019
12
-41.445946
22
-54.403404
32
123.543198
13
-47.617058
23
-54.403404
33
128.774292
0
3DFACE
8
0
70
0
10
-44.202461
20
-92.485237
30
123.161156
11
-47.617058
21
-54.403404
31
128.774292
12
-54.724529
22
-54.403404
32
110.298141
13
-55.432266
23
-92.485237
33
93.968842
0
3DFACE
8
0
70
0
10
-34.807507
20
-150.563721
30
94.465508
11
-63.679008
21
-150.563721
31
93.297455
12
-55.432266
22
-92.485237
32
93.968842
13
-38.039791
23
-92.485237
33
94.621384
0
3DFACE
8
0
70
0
10
-28.851940
20
-150.563721
30
130.757095
11
-34.807507
21
-150.563721
31
94.465508
12
-38.039791
22
-92.485237
32
94.621384
13
-34.452103
23
-92.485237
33
114.896019
0
3DFACE
8
0
70
0
10
-45.037529
20
-150.563721
30
145.551682
11
-28.851940
21
-150.563721
31
130.757095
12
-34.452103
22
-92.485237
32
114.896019
13
-44.202461
23
-92.485237
33
123.161156
0
3DFACE
8
0
70
0
10
-45.037529
20
-150.563721
30
145.551682
11
-44.202461
21
-92.485237
31
123.161156
12
-55.432266
22
-92.485237
32
93.968842
13
-63.679008
23
-150.563721
33
93.297455
0
3DFACE
8
0
70
0
10
3.320029
20
167.152191
30
245.931335
11
-28.381666
21
196.417877
31
244.832245
12
-15.675587
22
207.932358
32
227.271118
13
2.850219
23
162.836853
33
230.165482
0
3DFACE
8
0
70
0
10
-2.134558
20
182.415283
30
337.303436
11
5.775469
21
183.045990
31
337.625519
12
9.147549
22
217.495956
32
299.553894
13
-14.079060
23
215.603653
33
298.806244
0
3DFACE
8
0
70
0
10
-4.408501
20
171.747787
30
336.130707
11
-2.134558
21
182.415283
31
337.303436
12
-14.079060
22
215.603653
32
298.806244
13
-21.834772
23
178.976746
33
298.303192
0
3DFACE
8
0
70
0
10
4.271120
20
167.163864
30
336.032898
11
-4.408501
21
171.747787
31
336.130707
12
-21.834772
22
178.976746
32
298.303192
13
3.604668
23
164.152649
33
297.179047
0
3DFACE
8
0
70
0
10
-29.083303
20
279.980164
30
237.556870
11
-28.156836
21
269.058472
31
231.296890
12
-29.551798
22
263.196838
32
230.559769
13
-33.042351
23
262.845734
33
235.375198
0
3DFACE
8
0
70
0
10
-22.852264
20
224.426193
30
248.181763
11
-11.647040
21
226.054688
31
229.432632
12
-15.675587
22
207.932358
32
227.271118
13
-28.381666
23
196.417877
33
244.832245
0
3DFACE
8
0
70
0
10
-28.156836
20
269.058472
30
231.296890
11
-29.083303
21
279.980164
31
237.556870
12
-15.003967
22
258.761078
32
252.450256
13
-8.872823
23
237.754257
33
230.854599
0
3DFACE
8
0
70
0
10
-29.551798
20
263.196838
30
230.559769
11
-28.156836
21
269.058472
31
231.296890
12
-8.872823
22
237.754257
32
230.854599
13
-11.647040
23
226.054688
33
229.432632
0
3DFACE
8
0
70
0
10
-33.042351
20
262.845734
30
235.375198
11
-29.551798
21
263.196838
31
230.559769
12
-11.647040
22
226.054688
32
229.432632
13
-22.852264
23
224.426193
33
248.181763
0
3DFACE
8
0
70
0
10
-33.042351
20
262.845734
30
235.375198
11
-22.852264
21
224.426193
31
248.181763
12
-15.003967
22
258.761078
32
252.450256
13
-29.083303
23
279.980164
33
237.556870
0
3DFACE
8
0
70
0
10
-4.876167
20
250.104126
30
242.063065
11
-15.003967
21
258.761078
31
252.450256
12
14.828714
22
262.413666
32
253.646896
13
6.327912
23
251.518860
33
242.504120
0
3DFACE
8
0
70
0
10
3.916886
20
241.985931
30
231.072220
11
6.327912
21
251.518860
31
242.504120
12
14.828714
22
262.413666
32
253.646896
13
10.334631
23
236.116058
33
223.410110
0
3DFACE
8
0
70
0
10
-2.739768
20
242.550400
30
233.901413
11
3.916886
21
241.985931
31
231.072220
12
10.334631
22
236.116058
32
223.410110
13
-8.872823
23
237.754257
33
230.854599
0
3DFACE
8
0
70
0
10
-2.739768
20
242.550400
30
233.901413
11
-8.872823
21
237.754257
31
230.854599
12
-15.003967
22
258.761078
32
252.450256
13
-4.876167
23
250.104126
33
242.063065
0
3DFACE
8
0
70
0
10
-18.460649
20
336.090820
30
207.029449
11
-16.393637
21
332.122589
31
207.065720
12
-20.954344
22
331.245392
32
205.434845
13
-21.458080
23
333.902802
33
205.853806
0
3DFACE
8
0
70
0
10
6.327912
20
251.518860
30
242.504120
11
3.916886
21
241.985931
31
231.072220
12
-31.935995
22
282.209686
32
223.583527
13
-28.310919
23
291.291687
33
230.675247
0
3DFACE
8
0
70
0
10
-36.104557
20
285.040955
30
225.025787
11
-40.827572
21
297.224213
31
221.096008
12
-37.091866
22
292.390533
32
220.542542
13
-31.935995
23
282.209686
33
223.583527
0
3DFACE
8
0
70
0
10
-28.310919
20
291.291687
30
230.675247
11
-31.935995
21
282.209686
31
223.583527
12
-37.091866
22
292.390533
32
220.542542
13
-32.802757
23
300.555786
33
226.393494
0
3DFACE
8
0
70
0
10
-61.884327
20
309.421967
30
199.613708
11
-59.869652
21
314.178436
31
199.837906
12
-60.479088
22
312.921204
32
197.448502
13
-62.074318
23
308.111603
33
196.942566
0
3DFACE
8
0
70
0
10
-4.876167
20
250.104126
30
242.063065
11
-35.816044
21
292.248566
31
230.246033
12
-36.104557
22
285.040955
32
225.025787
13
-2.739768
23
242.550400
33
233.901413
0
3DFACE
8
0
70
0
10
-35.816044
20
292.248566
30
230.246033
11
-28.310919
21
291.291687
31
230.675247
12
-32.802757
22
300.555786
32
226.393494
13
-39.768578
23
304.521576
33
225.007278
0
3DFACE
8
0
70
0
10
-2.739768
20
242.550400
30
233.901413
11
-36.104557
21
285.040955
31
225.025787
12
-31.935995
22
282.209686
32
223.583527
13
3.916886
23
241.985931
33
231.072220
0
3DFACE
8
0
70
0
10
-27.364693
20
320.661041
30
216.140533
11
-23.602173
21
318.660706
31
215.023514
12
-23.223520
22
321.933167
32
213.134430
13
-25.173090
23
327.733063
33
212.592331
0
3DFACE
8
0
70
0
10
-39.768578
20
304.521576
30
225.007278
11
-32.802757
21
300.555786
31
226.393494
12
-23.602173
22
318.660706
32
215.023514
13
-27.364693
23
320.661041
33
216.140533
0
3DFACE
8
0
70
0
10
-29.771725
20
318.061493
30
212.994827
11
-28.401869
21
325.332275
31
210.360840
12
-28.326742
22
321.259766
32
209.954559
13
-28.639410
23
316.430206
33
211.633926
0
3DFACE
8
0
70
0
10
-40.827572
20
297.224213
30
221.096008
11
-29.771725
21
318.061493
31
212.994827
12
-28.639410
22
316.430206
32
211.633926
13
-37.091866
23
292.390533
33
220.542542
0
3DFACE
8
0
70
0
10
-10.755890
20
317.094360
30
203.088760
11
-11.764009
21
319.488739
31
202.817230
12
-9.386912
22
320.803406
32
204.664871
13
-8.753884
23
319.017975
33
205.227585
0
3DFACE
8
0
70
0
10
-37.091866
20
292.390533
30
220.542542
11
-28.639410
21
316.430206
31
211.633926
12
-23.602173
22
318.660706
32
215.023514
13
-32.802757
23
300.555786
33
226.393494
0
3DFACE
8
0
70
0
10
-27.364693
20
320.661041
30
216.140533
11
-25.173090
21
327.733063
31
212.592331
12
-28.401869
22
325.332275
32
210.360840
13
-29.771725
23
318.061493
33
212.994827
0
3DFACE
8
0
70
0
10
-40.827572
20
297.224213
30
221.096008
11
-39.768578
21
304.521576
31
225.007278
12
-27.364693
22
320.661041
32
216.140533
13
-29.771725
23
318.061493
33
212.994827
0
3DFACE
8
0
70
0
10
-22.476234
20
331.107391
30
210.356552
11
-18.606594
21
328.843292
31
209.029099
12
-16.393637
22
332.122589
32
207.065720
13
-18.460649
23
336.090820
33
207.029449
0
3DFACE
8
0
70
0
10
-23.223520
20
321.933167
30
213.134430
11
-28.326742
21
321.259766
31
209.954559
12
-23.415201
22
327.934998
32
206.941833
13
-18.606594
23
328.843292
33
209.029099
0
3DFACE
8
0
70
0
10
-28.326742
20
321.259766
30
209.954559
11
-28.401869
21
325.332275
31
210.360840
12
-25.011122
22
329.536133
32
208.159210
13
-23.415201
23
327.934998
33
206.941833
0
3DFACE
8
0
70
0
10
-34.093456
20
328.403870
30
196.250961
11
-33.015015
21
329.314117
31
198.899368
12
-30.529079
22
331.280518
32
199.117249
13
-31.193937
23
330.796814
33
196.835693
0
3DFACE
8
0
70
0
10
-23.223520
20
321.933167
30
213.134430
11
-18.606594
21
328.843292
31
209.029099
12
-22.476234
22
331.107391
32
210.356552
13
-25.173090
23
327.733063
33
212.592331
0
3DFACE
8
0
70
0
10
-18.606594
20
328.843292
30
209.029099
11
-23.415201
21
327.934998
31
206.941833
12
-20.954344
22
331.245392
32
205.434845
13
-16.393637
23
332.122589
33
207.065720
0
3DFACE
8
0
70
0
10
-25.011122
20
329.536133
30
208.159210
11
-21.458080
21
333.902802
31
205.853806
12
-20.954344
22
331.245392
32
205.434845
13
-23.415201
23
327.934998
33
206.941833
0
3DFACE
8
0
70
0
10
-22.476234
20
331.107391
30
210.356552
11
-18.460649
21
336.090820
31
207.029449
12
-21.458080
22
333.902802
32
205.853806
13
-25.011122
23
329.536133
33
208.159210
0
3DFACE
8
0
70
0
10
-35.816044
20
292.248566
30
230.246033
11
-39.768578
21
304.521576
31
225.007278
12
-43.312859
22
302.268250
32
223.321472
13
-39.729084
23
291.200775
33
228.041641
0
3DFACE
8
0
70
0
10
-39.768578
20
304.521576
30
225.007278
11
-40.827572
21
297.224213
31
221.096008
12
-44.258434
22
295.664246
32
219.806595
13
-43.312859
23
302.268250
33
223.321472
0
3DFACE
8
0
70
0
10
-40.827572
20
297.224213
30
221.096008
11
-36.104557
21
285.040955
31
225.025787
12
-39.990433
22
284.679108
32
223.347397
13
-44.258434
23
295.664246
33
219.806595
0
3DFACE
8
0
70
0
10
-36.104557
20
285.040955
30
225.025787
11
-35.816044
21
292.248566
31
230.246033
12
-39.729084
22
291.200775
32
228.041641
13
-39.990433
23
284.679108
33
223.347397
0
3DFACE
8
0
70
0
10
-39.729084
20
291.200775
30
228.041641
11
-43.312859
21
302.268250
31
223.321472
12
-46.165997
22
299.909912
32
222.246567
13
-45.974236
23
288.570801
33
225.247360
0
3DFACE
8
0
70
0
10
-43.312859
20
302.268250
30
223.321472
11
-44.258434
21
295.664246
31
219.806595
12
-47.553478
22
294.863129
32
218.095932
13
-46.165997
23
299.909912
33
222.246567
0
3DFACE
8
0
70
0
10
-44.258434
20
295.664246
30
219.806595
11
-39.990433
21
284.679108
31
223.347397
12
-46.567463
22
283.575653
32
220.168564
13
-47.553478
23
294.863129
33
218.095932
0
3DFACE
8
0
70
0
10
-39.990433
20
284.679108
30
223.347397
11
-39.729084
21
291.200775
31
228.041641
12
-45.974236
22
288.570801
32
225.247360
13
-46.567463
23
283.575653
33
220.168564
0
3DFACE
8
0
70
0
10
-45.974236
20
288.570801
30
225.247360
11
-46.165997
21
299.909912
31
222.246567
12
-47.524086
22
300.035095
32
220.624344
13
-50.849125
23
289.835083
33
220.860657
0
3DFACE
8
0
70
0
10
-46.165997
20
299.909912
30
222.246567
11
-47.553478
21
294.863129
31
218.095932
12
-48.834888
22
297.025024
32
215.832306
13
-47.524086
23
300.035095
33
220.624344
0
3DFACE
8
0
70
0
10
-47.553478
20
294.863129
30
218.095932
11
-46.567463
21
283.575653
31
220.168564
12
-51.288006
22
286.748779
32
215.432327
13
-48.834888
23
297.025024
33
215.832306
0
3DFACE
8
0
70
0
10
-46.567463
20
283.575653
30
220.168564
11
-45.974236
21
288.570801
31
225.247360
12
-50.849125
22
289.835083
32
220.860657
13
-51.288006
23
286.748779
33
215.432327
0
3DFACE
8
0
70
0
10
-50.849125
20
289.835083
30
220.860657
11
-47.524086
21
300.035095
31
220.624344
12
-49.416973
22
301.493652
32
217.802979
13
-52.779057
23
292.437225
33
217.681366
0
3DFACE
8
0
70
0
10
-47.524086
20
300.035095
30
220.624344
11
-48.834888
21
297.025024
31
215.832306
12
-50.562180
22
298.974640
32
213.390060
13
-49.416973
23
301.493652
33
217.802979
0
3DFACE
8
0
70
0
10
-48.834888
20
297.025024
30
215.832306
11
-51.288006
21
286.748779
31
215.432327
12
-53.130089
22
289.830994
32
212.719376
13
-50.562180
23
298.974640
33
213.390060
0
3DFACE
8
0
70
0
10
-51.288006
20
286.748779
30
215.432327
11
-50.849125
21
289.835083
31
220.860657
12
-52.779057
22
292.437225
32
217.681366
13
-53.130089
23
289.830994
33
212.719376
0
3DFACE
8
0
70
0
10
-52.779057
20
292.437225
30
217.681366
11
-49.416973
21
301.493652
31
217.802979
12
-51.715218
22
302.672089
32
214.938248
13
-54.758900
23
294.507080
33
214.827316
0
3DFACE
8
0
70
0
10
-49.416973
20
301.493652
30
217.802979
11
-50.562180
21
298.974640
31
213.390060
12
-52.751488
22
300.399200
32
210.966171
13
-51.715218
23
302.672089
33
214.938248
0
3DFACE
8
0
70
0
10
-50.562180
20
298.974640
30
213.390060
11
-53.130089
21
289.830994
31
212.719376
12
-55.082645
22
292.157715
32
210.360855
13
-52.751488
23
300.399200
33
210.966171
0
3DFACE
8
0
70
0
10
-53.130089
20
289.830994
30
212.719376
11
-52.779057
21
292.437225
31
217.681366
12
-54.758900
22
294.507080
32
214.827316
13
-55.082645
23
292.157715
33
210.360855
0
3DFACE
8
0
70
0
10
-54.758900
20
294.507080
30
214.827316
11
-51.715218
21
302.672089
31
214.938248
12
-53.503357
22
304.113770
32
212.302872
13
-56.819324
23
297.074188
33
211.600525
0
3DFACE
8
0
70
0
10
-51.715218
20
302.672089
30
214.938248
11
-52.751488
21
300.399200
31
210.966171
12
-54.338100
22
302.409882
32
208.571472
13
-53.503357
23
304.113770
33
212.302872
0
3DFACE
8
0
70
0
10
-52.751488
20
300.399200
30
210.966171
11
-55.082645
21
292.157715
31
210.360855
12
-56.996742
22
295.262756
32
207.465500
13
-54.338100
23
302.409882
33
208.571472
0
3DFACE
8
0
70
0
10
-55.082645
20
292.157715
30
210.360855
11
-54.758900
21
294.507080
31
214.827316
12
-56.819324
22
297.074188
32
211.600525
13
-56.996742
23
295.262756
33
207.465500
0
3DFACE
8
0
70
0
10
-56.819324
20
297.074188
30
211.600525
11
-53.503357
21
304.113770
31
212.302872
12
-54.830700
22
305.790955
32
209.875671
13
-58.255161
23
299.824249
33
208.699829
0
3DFACE
8
0
70
0
10
-53.503357
20
304.113770
30
212.302872
11
-54.338100
21
302.409882
31
208.571472
12
-55.461414
22
304.558960
32
206.403625
13
-54.830700
23
305.790955
33
209.875671
0
3DFACE
8
0
70
0
10
-54.338100
20
302.409882
30
208.571472
11
-56.996742
21
295.262756
31
207.465500
12
-58.285389
22
298.457001
32
204.899948
13
-55.461414
23
304.558960
33
206.403625
0
3DFACE
8
0
70
0
10
-56.996742
20
295.262756
30
207.465500
11
-56.819324
21
297.074188
31
211.600525
12
-58.255161
22
299.824249
32
208.699829
13
-58.285389
23
298.457001
33
204.899948
0
3DFACE
8
0
70
0
10
-58.255161
20
299.824249
30
208.699829
11
-54.830700
21
305.790955
31
209.875671
12
-56.072243
22
308.654144
32
206.758011
13
-59.240833
23
303.366302
33
205.598053
0
3DFACE
8
0
70
0
10
-54.830700
20
305.790955
30
209.875671
11
-55.461414
21
304.558960
31
206.403625
12
-56.617821
22
307.601044
32
203.614731
13
-56.072243
23
308.654144
33
206.758011
0
3DFACE
8
0
70
0
10
-55.461414
20
304.558960
30
206.403625
11
-58.285389
21
298.457001
31
204.899948
12
-59.246300
22
302.183777
32
202.165955
13
-56.617821
23
307.601044
33
203.614731
0
3DFACE
8
0
70
0
10
-58.285389
20
298.457001
30
204.899948
11
-58.255161
21
299.824249
31
208.699829
12
-59.240833
22
303.366302
32
205.598053
13
-59.246300
23
302.183777
33
202.165955
0
3DFACE
8
0
70
0
10
-59.240833
20
303.366302
30
205.598053
11
-56.072243
21
308.654144
31
206.758011
12
-57.819458
22
312.011353
32
202.991531
13
-60.357712
23
306.938690
33
202.386627
0
3DFACE
8
0
70
0
10
-56.072243
20
308.654144
30
206.758011
11
-56.617821
21
307.601044
31
203.614731
12
-58.422764
22
310.819489
32
200.249863
13
-57.819458
23
312.011353
33
202.991531
0
3DFACE
8
0
70
0
10
-56.617821
20
307.601044
30
203.614731
11
-59.246300
21
302.183777
31
202.165955
12
-60.484085
22
305.662720
32
199.356354
13
-58.422764
23
310.819489
33
200.249863
0
3DFACE
8
0
70
0
10
-59.246300
20
302.183777
30
202.165955
11
-59.240833
21
303.366302
31
205.598053
12
-60.357712
22
306.938690
32
202.386627
13
-60.484085
23
305.662720
33
199.356354
0
3DFACE
8
0
70
0
10
-60.357712
20
306.938690
30
202.386627
11
-57.819458
21
312.011353
31
202.991531
12
-59.869652
22
314.178436
32
199.837906
13
-61.884327
23
309.421967
33
199.613708
0
3DFACE
8
0
70
0
10
-57.819458
20
312.011353
30
202.991531
11
-58.422764
21
310.819489
31
200.249863
12
-60.479088
22
312.921204
32
197.448502
13
-59.869652
23
314.178436
33
199.837906
0
3DFACE
8
0
70
0
10
-58.422764
20
310.819489
30
200.249863
11
-60.484085
21
305.662720
31
199.356354
12
-62.074318
22
308.111603
32
196.942566
13
-60.479088
23
312.921204
33
197.448502
0
3DFACE
8
0
70
0
10
-60.484085
20
305.662720
30
199.356354
11
-60.357712
21
306.938690
31
202.386627
12
-61.884327
22
309.421967
32
199.613708
13
-62.074318
23
308.111603
33
196.942566
0
3DFACE
8
0
70
0
10
-28.639410
20
316.430206
30
211.633926
11
-28.326742
21
321.259766
31
209.954559
12
-25.076389
22
318.667664
32
208.609146
13
-24.934328
23
314.259216
33
209.904953
0
3DFACE
8
0
70
0
10
-28.326742
20
321.259766
30
209.954559
11
-23.223520
21
321.933167
31
213.134430
12
-20.533236
22
319.655334
32
211.492020
13
-25.076389
23
318.667664
33
208.609146
0
3DFACE
8
0
70
0
10
-23.223520
20
321.933167
30
213.134430
11
-23.602173
21
318.660706
31
215.023514
12
-20.584885
22
316.606506
32
213.044281
13
-20.533236
23
319.655334
33
211.492020
0
3DFACE
8
0
70
0
10
-23.602173
20
318.660706
30
215.023514
11
-28.639410
21
316.430206
31
211.633926
12
-24.934328
22
314.259216
32
209.904953
13
-20.584885
23
316.606506
33
213.044281
0
3DFACE
8
0
70
0
10
-24.934328
20
314.259216
30
209.904953
11
-25.076389
21
318.667664
31
208.609146
12
-22.753431
22
317.683746
32
207.710587
13
-22.372000
23
313.712555
33
208.745544
0
3DFACE
8
0
70
0
10
-25.076389
20
318.667664
30
208.609146
11
-20.533236
21
319.655334
31
211.492020
12
-18.713600
22
318.791199
32
210.327011
13
-22.753431
23
317.683746
33
207.710587
0
3DFACE
8
0
70
0
10
-20.533236
20
319.655334
30
211.492020
11
-20.584885
21
316.606506
31
213.044281
12
-18.583754
22
316.008270
32
211.632553
13
-18.713600
23
318.791199
33
210.327011
0
3DFACE
8
0
70
0
10
-20.584885
20
316.606506
30
213.044281
11
-24.934328
21
314.259216
31
209.904953
12
-22.372000
22
313.712555
32
208.745544
13
-18.583754
23
316.008270
33
211.632553
0
3DFACE
8
0
70
0
10
-22.372000
20
313.712555
30
208.745544
11
-22.753431
21
317.683746
31
207.710587
12
-20.414621
22
316.081696
32
206.780014
13
-19.196859
23
312.698090
33
207.245331
0
3DFACE
8
0
70
0
10
-22.753431
20
317.683746
30
207.710587
11
-18.713600
21
318.791199
31
210.327011
12
-17.062477
22
317.793976
32
209.275299
13
-20.414621
23
316.081696
33
206.780014
0
3DFACE
8
0
70
0
10
-18.713600
20
318.791199
30
210.327011
11
-18.583754
21
316.008270
31
211.632553
12
-16.318144
22
315.299591
32
210.115677
13
-17.062477
23
317.793976
33
209.275299
0
3DFACE
8
0
70
0
10
-18.583754
20
316.008270
30
211.632553
11
-22.372000
21
313.712555
31
208.745544
12
-19.196859
22
312.698090
32
207.245331
13
-16.318144
23
315.299591
33
210.115677
0
3DFACE
8
0
70
0
10
-19.196859
20
312.698090
30
207.245331
11
-20.414621
21
316.081696
31
206.780014
12
-17.360958
22
316.897888
32
205.401016
13
-15.333091
23
314.556000
33
205.307770
0
3DFACE
8
0
70
0
10
-20.414621
20
316.081696
30
206.780014
11
-17.062477
21
317.793976
31
209.275299
12
-14.916557
22
319.070526
32
207.943161
13
-17.360958
23
316.897888
33
205.401016
0
3DFACE
8
0
70
0
10
-17.062477
20
317.793976
30
209.275299
11
-16.318144
21
315.299591
31
210.115677
12
-13.534031
22
317.190033
32
208.309433
13
-14.916557
23
319.070526
33
207.943161
0
3DFACE
8
0
70
0
10
-16.318144
20
315.299591
30
210.115677
11
-19.196859
21
312.698090
31
207.245331
12
-15.333091
22
314.556000
32
205.307770
13
-13.534031
23
317.190033
33
208.309433
0
3DFACE
8
0
70
0
10
-15.333091
20
314.556000
30
205.307770
11
-17.360958
21
316.897888
31
205.401016
12
-14.576772
22
318.901062
32
204.119766
13
-12.991052
23
316.556427
33
204.165573
0
3DFACE
8
0
70
0
10
-17.360958
20
316.897888
30
205.401016
11
-14.916557
21
319.070526
31
207.943161
12
-12.201963
22
320.697723
32
206.314163
13
-14.576772
23
318.901062
33
204.119766
0
3DFACE
8
0
70
0
10
-14.916557
20
319.070526
30
207.943161
11
-13.534031
21
317.190033
31
208.309433
12
-11.145422
22
318.871338
32
206.745560
13
-12.201963
23
320.697723
33
206.314163
0
3DFACE
8
0
70
0
10
-13.534031
20
317.190033
30
208.309433
11
-15.333091
21
314.556000
31
205.307770
12
-12.991052
22
316.556427
32
204.165573
13
-11.145422
23
318.871338
33
206.745560
0
3DFACE
8
0
70
0
10
-12.991052
20
316.556427
30
204.165573
11
-14.576772
21
318.901062
31
204.119766
12
-11.764009
22
319.488739
32
202.817230
13
-10.755890
23
317.094360
33
203.088760
0
3DFACE
8
0
70
0
10
-14.576772
20
318.901062
30
204.119766
11
-12.201963
21
320.697723
31
206.314163
12
-9.386912
22
320.803406
32
204.664871
13
-11.764009
23
319.488739
33
202.817230
0
3DFACE
8
0
70
0
10
-12.201963
20
320.697723
30
206.314163
11
-11.145422
21
318.871338
31
206.745560
12
-8.753884
22
319.017975
32
205.227585
13
-9.386912
23
320.803406
33
204.664871
0
3DFACE
8
0
70
0
10
-11.145422
20
318.871338
30
206.745560
11
-12.991052
21
316.556427
31
204.165573
12
-10.755890
22
317.094360
32
203.088760
13
-8.753884
23
319.017975
33
205.227585
0
3DFACE
8
0
70
0
10
-28.401869
20
325.332275
30
210.360840
11
-25.173090
21
327.733063
31
212.592331
12
-28.502146
22
327.568420
32
209.622894
13
-31.234961
23
325.561646
33
207.238434
0
3DFACE
8
0
70
0
10
-25.173090
20
327.733063
30
212.592331
11
-22.476234
21
331.107391
31
210.356552
12
-25.787941
22
330.596649
32
207.990677
13
-28.502146
23
327.568420
33
209.622894
0
3DFACE
8
0
70
0
10
-22.476234
20
331.107391
30
210.356552
11
-25.011122
21
329.536133
31
208.159210
12
-27.883018
22
329.315155
32
205.727921
13
-25.787941
23
330.596649
33
207.990677
0
3DFACE
8
0
70
0
10
-25.011122
20
329.536133
30
208.159210
11
-28.401869
21
325.332275
31
210.360840
12
-31.234961
22
325.561646
32
207.238434
13
-27.883018
23
329.315155
33
205.727921
0
3DFACE
8
0
70
0
10
-31.234961
20
325.561646
30
207.238434
11
-28.502146
21
327.568420
31
209.622894
12
-30.493675
22
327.668304
32
207.167267
13
-32.422249
23
326.229614
33
204.331833
0
3DFACE
8
0
70
0
10
-28.502146
20
327.568420
30
209.622894
11
-25.787941
21
330.596649
31
207.990677
12
-27.608158
22
330.274689
32
206.601166
13
-30.493675
23
327.668304
33
207.167267
0
3DFACE
8
0
70
0
10
-25.787941
20
330.596649
30
207.990677
11
-27.883018
21
329.315155
31
205.727921
12
-28.974747
22
329.426727
32
204.066544
13
-27.608158
23
330.274689
33
206.601166
0
3DFACE
8
0
70
0
10
-27.883018
20
329.315155
30
205.727921
11
-31.234961
21
325.561646
31
207.238434
12
-32.422249
22
326.229614
32
204.331833
13
-28.974747
23
329.426727
33
204.066544
0
3DFACE
8
0
70
0
10
-32.422249
20
326.229614
30
204.331833
11
-30.493675
21
327.668304
31
207.167267
12
-32.074261
22
328.459808
32
202.796432
13
-33.372219
23
327.400696
33
199.911163
0
3DFACE
8
0
70
0
10
-30.493675
20
327.668304
30
207.167267
11
-27.608158
21
330.274689
31
206.601166
12
-29.329845
22
330.675079
32
202.906189
13
-32.074261
23
328.459808
33
202.796432
0
3DFACE
8
0
70
0
10
-27.608158
20
330.274689
30
206.601166
11
-28.974747
21
329.426727
31
204.066544
12
-30.158144
22
330.100464
32
200.405853
13
-29.329845
23
330.675079
33
202.906189
0
3DFACE
8
0
70
0
10
-28.974747
20
329.426727
30
204.066544
11
-32.422249
21
326.229614
31
204.331833
12
-33.372219
22
327.400696
32
199.911163
13
-30.158144
23
330.100464
33
200.405853
0
3DFACE
8
0
70
0
10
-33.372219
20
327.400696
30
199.911163
11
-32.074261
21
328.459808
31
202.796432
12
-33.015015
22
329.314117
32
198.899368
13
-34.093456
23
328.403870
33
196.250961
0
3DFACE
8
0
70
0
10
-32.074261
20
328.459808
30
202.796432
11
-29.329845
21
330.675079
31
202.906189
12
-30.529079
22
331.280518
32
199.117249
13
-33.015015
23
329.314117
33
198.899368
0
3DFACE
8
0
70
0
10
-29.329845
20
330.675079
30
202.906189
11
-30.158144
21
330.100464
31
200.405853
12
-31.193937
22
330.796814
32
196.835693
13
-30.529079
23
331.280518
33
199.117249
0
3DFACE
8
0
70
0
10
-30.158144
20
330.100464
30
200.405853
11
-33.372219
21
327.400696
31
199.911163
12
-34.093456
22
328.403870
32
196.250961
13
-31.193937
23
330.796814
33
196.835693
0
3DFACE
8
0
70
0
10
3.060328
20
141.378998
30
-56.630375
11
33.354847
21
126.993042
31
-51.813583
12
-9.919885
22
131.768356
32
-63.040401
13
-9.743915
23
141.105774
33
-58.919289
0
3DFACE
8
0
70
0
10
3.060328
20
141.378998
30
-56.630375
11
1.601758
21
148.906967
31
-49.110947
12
28.507351
22
148.859711
32
-40.983147
13
33.354847
23
126.993042
33
-51.813583
0
3DFACE
8
0
70
0
10
1.601758
20
148.906967
30
-49.110947
11
-9.050632
21
150.390900
31
-49.941948
12
-8.736386
22
157.044327
32
-45.227516
13
28.507351
23
148.859711
33
-40.983147
0
3DFACE
8
0
70
0
10
-19.193220
20
148.729614
30
-46.803791
11
-43.750614
21
148.243484
31
-32.966278
12
-8.736386
22
157.044327
32
-45.227516
13
-9.050632
23
150.390900
33
-49.941948
0
3DFACE
8
0
70
0
10
-21.778532
20
141.167191
30
-53.874557
11
-49.544910
21
126.286064
31
-42.616032
12
-43.750614
22
148.243484
32
-32.966278
13
-19.193220
23
148.729614
33
-46.803791
0
3DFACE
8
0
70
0
10
-21.778532
20
141.167191
30
-53.874557
11
-9.743915
21
141.105774
31
-58.919289
12
-9.919885
22
131.768356
32
-63.040401
13
-49.544910
23
126.286064
33
-42.616032
0
3DFACE
8
0
70
0
10
-10.928230
20
138.190048
30
-70.838081
11
3.406059
21
145.432816
31
-69.289932
12
3.060328
22
141.378998
32
-56.630375
13
-9.743915
23
141.105774
33
-58.919289
0
3DFACE
8
0
70
0
10
3.406059
20
145.432816
30
-69.289932
11
1.939445
21
161.105240
31
-57.600708
12
1.601758
22
148.906967
32
-49.110947
13
3.060328
23
141.378998
33
-56.630375
0
3DFACE
8
0
70
0
10
1.939445
20
161.105240
30
-57.600708
11
-10.023332
21
168.110947
31
-54.421982
12
-9.050632
22
150.390900
32
-49.941948
13
1.601758
23
148.906967
33
-49.110947
0
3DFACE
8
0
70
0
10
-21.980959
20
160.901245
30
-54.946789
11
-19.193220
21
148.729614
31
-46.803791
12
-9.050632
22
150.390900
32
-49.941948
13
-10.023332
23
168.110947
33
-54.421982
0
3DFACE
8
0
70
0
10
-24.998201
20
145.190613
30
-66.138542
11
-21.778532
21
141.167191
31
-53.874557
12
-19.193220
22
148.729614
32
-46.803791
13
-21.980959
23
160.901245
33
-54.946789
0
3DFACE
8
0
70
0
10
-10.928230
20
138.190048
30
-70.838081
11
-9.743915
21
141.105774
31
-58.919289
12
-21.778532
22
141.167191
32
-53.874557
13
-24.998201
23
145.190613
33
-66.138542
0
3DFACE
8
0
70
0
10
-12.270627
20
160.695679
30
-77.535355
11
-9.113791
21
161.966187
31
-77.539581
12
3.406059
22
145.432816
32
-69.289932
13
-10.928230
23
138.190048
33
-70.838081
0
3DFACE
8
0
70
0
10
-9.113791
20
161.966187
30
-77.539581
11
-9.559446
21
171.083313
31
-75.056747
12
1.939445
22
161.105240
32
-57.600708
13
3.406059
23
145.432816
33
-69.289932
0
3DFACE
8
0
70
0
10
-9.559446
20
171.083313
30
-75.056747
11
-12.267264
21
171.919861
31
-74.541191
12
-10.023332
22
168.110947
32
-54.421982
13
1.939445
23
161.105240
33
-57.600708
0
3DFACE
8
0
70
0
10
-14.972611
20
171.037140
30
-74.456169
11
-21.980959
21
160.901245
31
-54.946789
12
-10.023332
22
168.110947
32
-54.421982
13
-12.267264
23
171.919861
33
-74.541191
0
3DFACE
8
0
70
0
10
-15.423727
20
161.912369
30
-76.839500
11
-24.998201
21
145.190613
31
-66.138542
12
-21.980959
22
160.901245
32
-54.946789
13
-14.972611
23
171.037140
33
-74.456169
0
3DFACE
8
0
70
0
10
-12.270627
20
160.695679
30
-77.535355
11
-10.928230
21
138.190048
31
-70.838081
12
-24.998201
22
145.190613
32
-66.138542
13
-15.423727
23
161.912369
33
-76.839500
0
3DFACE
8
0
70
0
10
13.063376
20
248.566147
30
275.053345
11
9.147549
21
217.495956
31
299.553894
12
31.032566
22
208.839798
32
298.688843
13
36.766895
23
237.362045
33
274.080688
0
3DFACE
8
0
70
0
10
4.002069
20
173.094574
30
265.614441
11
35.258080
21
185.345795
31
267.484711
12
31.087786
22
173.124237
32
298.228973
13
3.604668
23
164.152649
33
297.179047
0
3DFACE
8
0
70
0
10
13.063376
20
248.566147
30
275.053345
11
-12.704188
21
246.179321
31
274.264252
12
-14.079060
22
215.603653
32
298.806244
13
9.147549
23
217.495956
33
299.553894
0
3DFACE
8
0
70
0
10
4.002069
20
173.094574
30
265.614441
11
3.604668
21
164.152649
31
297.179047
12
-21.834772
22
178.976746
32
298.303192
13
-24.325415
23
192.477463
33
267.582794
0
3DFACE
8
0
70
0
10
41.759987
20
248.121780
30
252.216537
11
14.828714
21
262.413666
31
253.646896
12
13.063376
22
248.566147
32
275.053345
13
36.766895
23
237.362045
33
274.080688
0
3DFACE
8
0
70
0
10
41.759987
20
248.121780
30
252.216537
11
36.766895
21
237.362045
31
274.080688
12
35.258080
22
185.345795
32
267.484711
13
39.417427
23
188.292084
33
244.720337
0
3DFACE
8
0
70
0
10
39.417427
20
188.292084
30
244.720337
11
35.258080
21
185.345795
31
267.484711
12
4.002069
22
173.094574
32
265.614441
13
3.320029
23
167.152191
33
245.931335
0
3DFACE
8
0
70
0
10
-15.003967
20
258.761078
30
252.450256
11
-12.704188
21
246.179321
31
274.264252
12
13.063376
22
248.566147
32
275.053345
13
14.828714
23
262.413666
33
253.646896
0
3DFACE
8
0
70
0
10
-15.003967
20
258.761078
30
252.450256
11
-28.381666
21
196.417877
31
244.832245
12
-24.325415
22
192.477463
32
267.582794
13
-12.704188
23
246.179321
33
274.264252
0
3DFACE
8
0
70
0
10
-28.381666
20
196.417877
30
244.832245
11
3.320029
21
167.152191
31
245.931335
12
4.002069
22
173.094574
32
265.614441
13
-24.325415
23
192.477463
33
267.582794
0
3DFACE
8
0
70
0
10
22.536381
20
234.462784
30
291.822540
11
26.094114
21
237.448410
31
290.775757
12
23.214298
22
239.371964
32
290.966217
13
23.214298
23
239.371964
33
290.966217
0
3DFACE
8
0
70
0
10
22.536381
20
234.462784
30
291.822540
11
26.903524
21
233.917175
31
290.340057
12
26.094114
22
237.448410
32
290.775757
13
26.094114
23
237.448410
33
290.775757
0
3DFACE
8
0
70
0
10
25.166763
20
230.827881
30
289.914337
11
26.903524
21
233.917175
31
290.340057
12
22.536381
22
234.462784
32
291.822540
13
22.536381
23
234.462784
33
291.822540
0
3DFACE
8
0
70
0
10
21.887001
20
229.979233
30
289.746704
11
25.166763
21
230.827881
31
289.914337
12
22.536381
22
234.462784
32
291.822540
13
22.536381
23
234.462784
33
291.822540
0
3DFACE
8
0
70
0
10
21.887001
20
229.979233
30
289.746704
11
22.536381
21
234.462784
31
291.822540
12
18.986784
22
231.887558
32
289.935516
13
18.986784
23
231.887558
33
289.935516
0
3DFACE
8
0
70
0
10
18.986784
20
231.887558
30
289.935516
11
22.536381
21
234.462784
31
291.822540
12
18.179390
22
235.445847
32
290.371338
13
18.179390
23
235.445847
33
290.371338
0
3DFACE
8
0
70
0
10
22.536381
20
234.462784
30
291.822540
11
19.936550
21
238.550415
31
290.798798
12
18.179390
22
235.445847
32
290.371338
13
18.179390
23
235.445847
33
290.371338
0
3DFACE
8
0
70
0
10
22.536381
20
234.462784
30
291.822540
11
23.214298
21
239.371964
31
290.966217
12
19.936550
22
238.550415
32
290.798798
13
19.936550
23
238.550415
33
290.798798
0
3DFACE
8
0
70
0
10
26.094114
20
237.448410
30
290.775757
11
28.302835
21
239.719284
31
287.195068
12
23.653862
22
242.839859
32
287.504242
13
23.214298
23
239.371964
33
290.966217
0
3DFACE
8
0
70
0
10
26.903524
20
233.917175
30
290.340057
11
29.612724
21
234.017456
31
286.490204
12
28.302835
22
239.719284
32
287.195068
13
26.094114
23
237.448410
33
290.775757
0
3DFACE
8
0
70
0
10
26.811785
20
229.024841
30
285.802155
11
29.612724
21
234.017456
31
286.490204
12
26.903524
22
233.917175
32
290.340057
13
25.166763
23
230.827881
33
289.914337
0
3DFACE
8
0
70
0
10
21.503826
20
227.637466
30
285.530823
11
26.811785
21
229.024841
31
285.802155
12
25.166763
22
230.827881
32
289.914337
13
21.887001
23
229.979233
33
289.746704
0
3DFACE
8
0
70
0
10
21.503826
20
227.637466
30
285.530823
11
21.887001
21
229.979233
31
289.746704
12
18.986784
22
231.887558
32
289.935516
13
16.801418
23
230.718109
33
285.835480
0
3DFACE
8
0
70
0
10
16.801418
20
230.718109
30
285.835480
11
18.986784
21
231.887558
31
289.935516
12
18.179390
22
235.445847
32
290.371338
13
15.496778
23
236.490860
33
286.540802
0
3DFACE
8
0
70
0
10
18.179390
20
235.445847
30
290.371338
11
19.936550
21
238.550415
31
290.798798
12
18.351152
22
241.523376
32
287.233307
13
15.496778
23
236.490860
33
286.540802
0
3DFACE
8
0
70
0
10
19.936550
20
238.550415
30
290.798798
11
23.214298
21
239.371964
31
290.966217
12
23.653862
22
242.839859
32
287.504242
13
18.351152
23
241.523376
33
287.233307
0
3DFACE
8
0
70
0
10
28.302835
20
239.719284
30
287.195068
11
28.320410
21
240.429230
31
282.448517
12
23.671919
22
243.550644
32
282.757690
13
23.653862
23
242.839859
33
287.504242
0
3DFACE
8
0
70
0
10
29.612724
20
234.017456
30
286.490204
11
29.629158
21
234.725250
31
281.743561
12
28.320410
22
240.429230
32
282.448517
13
28.302835
23
239.719284
33
287.195068
0
3DFACE
8
0
70
0
10
26.811785
20
229.024841
30
285.802155
11
26.827112
21
229.730484
31
281.055359
12
29.629158
22
234.725250
32
281.743561
13
29.612724
23
234.017456
33
286.490204
0
3DFACE
8
0
70
0
10
21.503826
20
227.637466
30
285.530823
11
21.518705
21
228.342270
31
280.783966
12
26.827112
22
229.730484
32
281.055359
13
26.811785
23
229.024841
33
285.802155
0
3DFACE
8
0
70
0
10
21.503826
20
227.637466
30
285.530823
11
16.801418
21
230.718109
31
285.835480
12
16.816744
22
231.423767
32
281.088745
13
21.518705
23
228.342270
33
280.783966
0
3DFACE
8
0
70
0
10
16.801418
20
230.718109
30
285.835480
11
15.496778
21
236.490860
31
286.540802
12
15.513210
22
237.198654
32
281.794128
13
16.816744
23
231.423767
33
281.088745
0
3DFACE
8
0
70
0
10
15.496778
20
236.490860
30
286.540802
11
18.351152
21
241.523376
31
287.233307
12
18.368725
22
242.233307
32
282.486786
13
15.513210
23
237.198654
33
281.794128
0
3DFACE
8
0
70
0
10
18.351152
20
241.523376
30
287.233307
11
23.653862
21
242.839859
31
287.504242
12
23.671919
22
243.550644
32
282.757690
13
18.368725
23
242.233307
33
282.486786
0
3DFACE
8
0
70
0
10
26.138971
20
239.304916
30
278.348816
11
23.259926
21
241.229889
31
278.539368
12
23.671919
22
243.550644
32
282.757690
13
28.320410
23
240.429230
33
282.448517
0
3DFACE
8
0
70
0
10
29.629158
20
234.725250
30
281.743561
11
26.946547
21
235.770294
31
277.913025
12
26.138971
22
239.304916
32
278.348816
13
28.320410
23
240.429230
33
282.448517
0
3DFACE
8
0
70
0
10
26.827112
20
229.730484
30
281.055359
11
25.207985
21
232.677490
31
277.487122
12
26.946547
22
235.770294
32
277.913025
13
29.629158
23
234.725250
33
281.743561
0
3DFACE
8
0
70
0
10
21.518705
20
228.342270
30
280.783966
11
21.927486
21
231.827438
31
277.319397
12
25.207985
22
232.677490
32
277.487122
13
26.827112
23
229.730484
33
281.055359
0
3DFACE
8
0
70
0
10
21.518705
20
228.342270
30
280.783966
11
16.816744
21
231.423767
31
281.088745
12
19.028006
22
233.737167
32
277.508301
13
21.927486
23
231.827438
33
277.319397
0
3DFACE
8
0
70
0
10
16.816744
20
231.423767
30
281.088745
11
15.513210
21
237.198654
31
281.794128
12
18.222412
22
237.298935
32
277.944244
13
19.028006
23
233.737167
33
277.508301
0
3DFACE
8
0
70
0
10
15.513210
20
237.198654
30
281.794128
11
18.368725
21
242.233307
31
282.486786
12
19.981407
22
240.406921
32
278.371857
13
18.222412
23
237.298935
33
277.944244
0
3DFACE
8
0
70
0
10
19.981407
20
240.406921
30
278.371857
11
18.368725
21
242.233307
31
282.486786
12
23.671919
22
243.550644
32
282.757690
13
23.259926
23
241.229889
33
278.539368
0
3DFACE
8
0
70
0
10
22.589558
20
236.753296
30
276.461792
11
23.259926
21
241.229889
31
278.539368
12
26.138971
22
239.304916
32
278.348816
13
26.138971
23
239.304916
33
278.348816
0
3DFACE
8
0
70
0
10
26.946547
20
235.770294
30
277.913025
11
22.589558
21
236.753296
31
276.461792
12
26.138971
22
239.304916
32
278.348816
13
26.138971
23
239.304916
33
278.348816
0
3DFACE
8
0
70
0
10
25.207985
20
232.677490
30
277.487122
11
22.589558
21
236.753296
31
276.461792
12
26.946547
22
235.770294
32
277.913025
13
26.946547
23
235.770294
33
277.913025
0
3DFACE
8
0
70
0
10
21.927486
20
231.827438
30
277.319397
11
22.589558
21
236.753296
31
276.461792
12
25.207985
22
232.677490
32
277.487122
13
25.207985
23
232.677490
33
277.487122
0
3DFACE
8
0
70
0
10
21.927486
20
231.827438
30
277.319397
11
19.028006
21
233.737167
31
277.508301
12
22.589558
22
236.753296
32
276.461792
13
22.589558
23
236.753296
33
276.461792
0
3DFACE
8
0
70
0
10
19.028006
20
233.737167
30
277.508301
11
18.222412
21
237.298935
31
277.944244
12
22.589558
22
236.753296
32
276.461792
13
22.589558
23
236.753296
33
276.461792
0
3DFACE
8
0
70
0
10
18.222412
20
237.298935
30
277.944244
11
19.981407
21
240.406921
31
278.371857
12
22.589558
22
236.753296
32
276.461792
13
22.589558
23
236.753296
33
276.461792
0
3DFACE
8
0
70
0
10
22.589558
20
236.753296
30
276.461792
11
19.981407
21
240.406921
31
278.371857
12
23.259926
22
241.229889
32
278.539368
13
23.259926
23
241.229889
33
278.539368
0
3DFACE
8
0
70
0
10
4.969798
20
180.986908
30
352.806305
11
5.719366
21
188.377365
31
351.528748
12
0.881237
22
186.906174
32
351.280731
13
0.881237
23
186.906174
33
351.280731
0
3DFACE
8
0
70
0
10
4.969798
20
180.986908
30
352.806305
11
0.881237
21
186.906174
31
351.280731
12
-1.565945
22
182.113251
32
350.664246
13
-1.565945
23
182.113251
33
350.664246
0
3DFACE
8
0
70
0
10
-0.160077
20
176.834152
30
350.042755
11
4.969798
21
180.986908
31
352.806305
12
-1.565945
22
182.113251
32
350.664246
13
-1.565945
23
182.113251
33
350.664246
0
3DFACE
8
0
70
0
10
4.271556
20
174.203094
30
349.780060
11
4.969798
21
180.986908
31
352.806305
12
-0.160077
22
176.834152
32
350.042755
13
-0.160077
23
176.834152
33
350.042755
0
3DFACE
8
0
70
0
10
4.271556
20
174.203094
30
349.780060
11
9.105322
21
175.732941
31
350.027740
12
4.969798
22
180.986908
32
352.806305
13
4.969798
23
180.986908
33
352.806305
0
3DFACE
8
0
70
0
10
9.105322
20
175.732941
30
350.027740
11
11.513103
21
180.486115
31
350.640930
12
4.969798
22
180.986908
32
352.806305
13
4.969798
23
180.986908
33
352.806305
0
3DFACE
8
0
70
0
10
4.969798
20
180.986908
30
352.806305
11
11.513103
21
180.486115
31
350.640930
12
10.111609
22
185.706650
32
351.262787
13
10.111609
23
185.706650
33
351.262787
0
3DFACE
8
0
70
0
10
4.969798
20
180.986908
30
352.806305
11
10.111609
21
185.706650
31
351.262787
12
5.719366
22
188.377365
32
351.528748
13
5.719366
23
188.377365
33
351.528748
0
3DFACE
8
0
70
0
10
0.881237
20
186.906174
30
351.280731
11
5.719366
21
188.377365
31
351.528748
12
6.213991
22
193.566010
32
346.433685
13
-1.616498
23
191.213455
33
346.032196
0
3DFACE
8
0
70
0
10
-1.565945
20
182.113251
30
350.664246
11
0.881237
21
186.906174
31
351.280731
12
-1.616498
22
191.213455
32
346.032196
13
-5.597690
23
183.434875
33
345.032867
0
3DFACE
8
0
70
0
10
-3.321613
20
174.859711
30
344.027496
11
-0.160077
21
176.834152
31
350.042755
12
-1.565945
22
182.113251
32
350.664246
13
-5.597690
23
183.434875
33
345.032867
0
3DFACE
8
0
70
0
10
3.867726
20
170.621262
30
343.604004
11
4.271556
21
174.203094
31
349.780060
12
-0.160077
22
176.834152
32
350.042755
13
-3.321613
23
174.859711
33
344.027496
0
3DFACE
8
0
70
0
10
3.867726
20
170.621262
30
343.604004
11
11.686698
21
173.127487
31
344.004547
12
9.105322
22
175.732941
32
350.027740
13
4.271556
23
174.203094
33
349.780060
0
3DFACE
8
0
70
0
10
11.686698
20
173.127487
30
344.004547
11
15.564656
21
180.802094
31
344.995209
12
11.513103
22
180.486115
32
350.640930
13
9.105322
23
175.732941
33
350.027740
0
3DFACE
8
0
70
0
10
11.513103
20
180.486115
30
350.640930
11
15.564656
21
180.802094
31
344.995209
12
13.300117
22
189.223785
32
346.001617
13
10.111609
23
185.706650
33
351.262787
0
3DFACE
8
0
70
0
10
10.111609
20
185.706650
30
351.262787
11
13.300117
21
189.223785
31
346.001617
12
6.213991
22
193.566010
32
346.433685
13
5.719366
23
188.377365
33
351.528748
0
3DFACE
8
0
70
0
10
-1.616498
20
191.213455
30
346.032196
11
6.213991
21
193.566010
31
346.433685
12
6.228835
22
194.585052
32
339.464325
13
-1.602442
23
192.230408
33
339.062836
0
3DFACE
8
0
70
0
10
-5.597690
20
183.434875
30
345.032867
11
-1.616498
21
191.213455
31
346.032196
12
-1.602442
22
192.230408
32
339.062836
13
-5.585450
23
184.446945
33
338.063354
0
3DFACE
8
0
70
0
10
-3.321613
20
174.859711
30
344.027496
11
-5.597690
21
183.434875
31
345.032867
12
-5.585450
22
184.446945
32
338.063354
13
-3.311068
23
175.866852
33
337.057800
0
3DFACE
8
0
70
0
10
3.867726
20
170.621262
30
343.604004
11
-3.321613
21
174.859711
31
344.027496
12
-3.311068
22
175.866852
32
337.057800
13
3.877605
23
171.626343
33
336.634277
0
3DFACE
8
0
70
0
10
3.867726
20
170.621262
30
343.604004
11
3.877605
21
171.626343
31
336.634277
12
11.697243
22
174.134613
32
337.034851
13
11.686698
23
173.127487
33
344.004547
0
3DFACE
8
0
70
0
10
11.686698
20
173.127487
30
344.004547
11
11.697243
21
174.134613
31
337.034851
12
15.576895
22
181.814240
32
338.025696
13
15.564656
23
180.802094
33
344.995209
0
3DFACE
8
0
70
0
10
15.564656
20
180.802094
30
344.995209
11
15.576895
21
181.814240
31
338.025696
12
13.314173
22
190.240768
32
339.032227
13
13.300117
23
189.223785
33
346.001617
0
3DFACE
8
0
70
0
10
13.300117
20
189.223785
30
346.001617
11
13.314173
21
190.240768
31
339.032227
12
6.228835
22
194.585052
32
339.464325
13
6.213991
23
193.566010
33
346.433685
0
3DFACE
8
0
70
0
10
0.916183
20
189.563828
30
333.034424
11
-1.602442
21
192.230408
31
339.062836
12
6.228835
22
194.585052
32
339.464325
13
5.755548
23
191.038269
33
333.282501
0
3DFACE
8
0
70
0
10
-5.585450
20
184.446945
30
338.063354
11
-1.602442
21
192.230408
31
339.062836
12
0.916183
22
189.563828
32
333.034424
13
-1.533901
23
184.762924
33
332.417633
0
3DFACE
8
0
70
0
10
-3.311068
20
175.866852
30
337.057800
11
-5.585450
21
184.446945
31
338.063354
12
-1.533901
22
184.762924
32
332.417633
13
-0.130813
23
179.475861
33
331.795959
0
3DFACE
8
0
70
0
10
3.877605
20
171.626343
30
336.634277
11
-3.311068
21
175.866852
31
337.057800
12
-0.130813
22
179.475861
32
331.795959
13
4.299705
23
176.841431
33
331.533203
0
3DFACE
8
0
70
0
10
3.877605
20
171.626343
30
336.634277
11
4.299705
21
176.841431
31
331.533203
12
9.134586
22
178.374664
32
331.780914
13
11.697243
23
174.134613
33
337.034851
0
3DFACE
8
0
70
0
10
11.697243
20
174.134613
30
337.034851
11
9.134586
21
178.374664
31
331.780914
12
11.545148
22
183.135788
32
332.394348
13
15.576895
23
181.814240
33
338.025696
0
3DFACE
8
0
70
0
10
15.576895
20
181.814240
30
338.025696
11
11.545148
21
183.135788
31
332.394348
12
10.146555
22
188.364273
32
333.016449
13
13.314173
23
190.240768
33
339.032227
0
3DFACE
8
0
70
0
10
10.146555
20
188.364273
30
333.016449
11
5.755548
21
191.038269
31
333.282501
12
6.228835
22
194.585052
32
339.464325
13
13.314173
23
190.240768
33
339.032227
0
3DFACE
8
0
70
0
10
5.009407
20
184.262131
30
330.252258
11
0.916183
21
189.563828
31
333.034424
12
5.755548
22
191.038269
32
333.282501
13
5.755548
23
191.038269
33
333.282501
0
3DFACE
8
0
70
0
10
-1.533901
20
184.762924
30
332.417633
11
0.916183
21
189.563828
31
333.034424
12
5.009407
22
184.262131
32
330.252258
13
5.009407
23
184.262131
33
330.252258
0
3DFACE
8
0
70
0
10
-0.130813
20
179.475861
30
331.795959
11
-1.533901
21
184.762924
31
332.417633
12
5.009407
22
184.262131
32
330.252258
13
5.009407
23
184.262131
33
330.252258
0
3DFACE
8
0
70
0
10
4.299705
20
176.841431
30
331.533203
11
-0.130813
21
179.475861
31
331.795959
12
5.009407
22
184.262131
32
330.252258
13
5.009407
23
184.262131
33
330.252258
0
3DFACE
8
0
70
0
10
4.299705
20
176.841431
30
331.533203
11
5.009407
21
184.262131
31
330.252258
12
9.134586
22
178.374664
32
331.780914
13
9.134586
23
178.374664
33
331.780914
0
3DFACE
8
0
70
0
10
9.134586
20
178.374664
30
331.780914
11
5.009407
21
184.262131
31
330.252258
12
11.545148
22
183.135788
32
332.394348
13
11.545148
23
183.135788
33
332.394348
0
3DFACE
8
0
70
0
10
11.545148
20
183.135788
30
332.394348
11
5.009407
21
184.262131
31
330.252258
12
10.146555
22
188.364273
32
333.016449
13
10.146555
23
188.364273
33
333.016449
0
3DFACE
8
0
70
0
10
5.009407
20
184.262131
30
330.252258
11
5.755548
21
191.038269
31
333.282501
12
10.146555
22
188.364273
32
333.016449
13
10.146555
23
188.364273
33
333.016449
0
3DFACE
8
0
70
0
10
0.606150
20
238.305450
30
291.901123
11
1.341193
21
243.320557
31
291.049561
12
-1.953445
22
242.468079
32
290.880737
13
-1.953445
23
242.468079
33
290.880737
0
3DFACE
8
0
70
0
10
0.606150
20
238.305450
30
291.901123
11
-1.953445
21
242.468079
31
290.880737
12
-3.750839
22
239.288528
32
290.449890
13
-3.750839
23
239.288528
33
290.449890
0
3DFACE
8
0
70
0
10
-2.982899
20
235.654724
30
290.010803
11
0.606150
21
238.305450
31
291.901123
12
-3.750839
22
239.288528
32
290.449890
13
-3.750839
23
239.288528
33
290.449890
0
3DFACE
8
0
70
0
10
-0.098797
20
233.714996
30
289.820648
11
0.606150
21
238.305450
31
291.901123
12
-2.982899
22
235.654724
32
290.010803
13
-2.982899
23
235.654724
33
290.010803
0
3DFACE
8
0
70
0
10
-0.098797
20
233.714996
30
289.820648
11
3.197081
21
234.595047
31
289.989624
12
0.606150
22
238.305450
32
291.901123
13
0.606150
23
238.305450
33
291.901123
0
3DFACE
8
0
70
0
10
3.197081
20
234.595047
30
289.989624
11
4.973298
21
237.759842
31
290.418640
12
0.606150
22
238.305450
32
291.901123
13
0.606150
23
238.305450
33
291.901123
0
3DFACE
8
0
70
0
10
0.606150
20
238.305450
30
291.901123
11
4.973298
21
237.759842
31
290.418640
12
4.204119
22
241.366058
32
290.857666
13
4.204119
23
241.366058
33
290.857666
0
3DFACE
8
0
70
0
10
0.606150
20
238.305450
30
291.901123
11
4.204119
21
241.366058
31
290.857666
12
1.341193
22
243.320557
32
291.049561
13
1.341193
23
243.320557
33
291.049561
0
3DFACE
8
0
70
0
10
-1.953445
20
242.468079
30
290.880737
11
1.341193
21
243.320557
31
291.049561
12
1.816839
22
246.853363
32
287.590576
13
-3.513587
23
245.487122
33
287.317352
0
3DFACE
8
0
70
0
10
-3.750839
20
239.288528
30
290.449890
11
-1.953445
21
242.468079
31
290.880737
12
-3.513587
22
245.487122
32
287.317352
13
-6.433448
23
240.333527
33
286.619354
0
3DFACE
8
0
70
0
10
-5.192255
20
234.438400
30
285.908783
11
-2.982899
21
235.654724
31
290.010803
12
-3.750839
22
239.288528
32
290.449890
13
-6.433448
23
240.333527
33
286.619354
0
3DFACE
8
0
70
0
10
-0.515525
20
231.306641
30
285.601959
11
-0.098797
21
233.714996
31
289.820648
12
-2.982899
22
235.654724
32
290.010803
13
-5.192255
23
234.438400
33
285.908783
0
3DFACE
8
0
70
0
10
-0.515525
20
231.306641
30
285.601959
11
4.818111
21
232.745117
31
285.875427
12
3.197081
22
234.595047
32
289.989624
13
-0.098797
23
233.714996
33
289.820648
0
3DFACE
8
0
70
0
10
4.818111
20
232.745117
30
285.875427
11
7.682498
21
237.860123
31
286.568817
12
4.973298
22
237.759842
32
290.418640
13
3.197081
23
234.595047
33
289.989624
0
3DFACE
8
0
70
0
10
4.973298
20
237.759842
30
290.418640
11
7.682498
21
237.860123
31
286.568817
12
6.438095
22
243.683044
32
287.279114
13
4.204119
23
241.366058
33
290.857666
0
3DFACE
8
0
70
0
10
4.204119
20
241.366058
30
290.857666
11
6.438095
21
243.683044
31
287.279114
12
1.816839
22
246.853363
32
287.590576
13
1.341193
23
243.320557
33
291.049561
0
3DFACE
8
0
70
0
10
-3.513587
20
245.487122
30
287.317352
11
1.816839
21
246.853363
31
287.590576
12
1.834896
22
247.564148
32
282.844025
13
-3.496013
23
246.197067
33
282.570801
0
3DFACE
8
0
70
0
10
-6.433448
20
240.333527
30
286.619354
11
-3.513587
21
245.487122
31
287.317352
12
-3.496013
22
246.197067
32
282.570801
13
-6.417017
23
241.041367
33
281.872681
0
3DFACE
8
0
70
0
10
-5.192255
20
234.438400
30
285.908783
11
-6.433448
21
240.333527
31
286.619354
12
-6.417017
22
241.041367
32
281.872681
13
-5.176928
23
235.144043
33
281.162018
0
3DFACE
8
0
70
0
10
-0.515525
20
231.306641
30
285.601959
11
-5.192255
21
234.438400
31
285.908783
12
-5.176928
22
235.144043
32
281.162018
13
-0.500647
23
232.011444
33
280.855133
0
3DFACE
8
0
70
0
10
-0.515525
20
231.306641
30
285.601959
11
-0.500647
21
232.011444
31
280.855133
12
4.833438
22
233.450775
32
281.128662
13
4.818111
23
232.745117
33
285.875427
0
3DFACE
8
0
70
0
10
4.818111
20
232.745117
30
285.875427
11
4.833438
21
233.450775
31
281.128662
12
7.698931
22
238.567917
32
281.822113
13
7.682498
23
237.860123
33
286.568817
0
3DFACE
8
0
70
0
10
7.682498
20
237.860123
30
286.568817
11
7.698931
21
238.567917
31
281.822113
12
6.455670
22
244.392990
32
282.532562
13
6.438095
23
243.683044
33
287.279114
0
3DFACE
8
0
70
0
10
6.438095
20
243.683044
30
287.279114
11
6.455670
21
244.392990
31
282.532562
12
1.834896
22
247.564148
32
282.844025
13
1.816839
23
246.853363
33
287.590576
0
3DFACE
8
0
70
0
10
-1.908588
20
244.324570
30
278.453766
11
-3.496013
21
246.197067
31
282.570801
12
1.834896
22
247.564148
32
282.844025
13
1.386821
23
245.178497
33
278.622711
0
3DFACE
8
0
70
0
10
-6.417017
20
241.041367
30
281.872681
11
-3.496013
21
246.197067
31
282.570801
12
-1.908588
22
244.324570
32
278.453766
13
-3.707817
23
241.141632
33
278.022858
0
3DFACE
8
0
70
0
10
-5.176928
20
235.144043
30
281.162018
11
-6.417017
21
241.041367
31
281.872681
12
-3.707817
22
241.141632
32
278.022858
13
-2.941678
23
237.504333
33
277.583588
0
3DFACE
8
0
70
0
10
-0.500647
20
232.011444
30
280.855133
11
-5.176928
21
235.144043
31
281.162018
12
-2.941678
22
237.504333
32
277.583588
13
-0.058311
23
235.563202
33
277.393341
0
3DFACE
8
0
70
0
10
-0.500647
20
232.011444
30
280.855133
11
-0.058311
21
235.563202
31
277.393341
12
3.238302
22
236.444656
32
277.562408
13
4.833438
23
233.450775
33
281.128662
0
3DFACE
8
0
70
0
10
4.833438
20
233.450775
30
281.128662
11
3.238302
21
236.444656
31
277.562408
12
5.016318
22
239.612961
32
277.991577
13
7.698931
23
238.567917
33
281.822113
0
3DFACE
8
0
70
0
10
7.698931
20
238.567917
30
281.822113
11
5.016318
21
239.612961
31
277.991577
12
4.248976
22
243.222565
32
278.430725
13
6.455670
23
244.392990
33
282.532562
0
3DFACE
8
0
70
0
10
4.248976
20
243.222565
30
278.430725
11
1.386821
21
245.178497
31
278.622711
12
1.834896
22
247.564148
32
282.844025
13
6.455670
23
244.392990
33
282.532562
0
3DFACE
8
0
70
0
10
0.659328
20
240.595993
30
276.540375
11
-1.908588
21
244.324570
31
278.453766
12
1.386821
22
245.178497
32
278.622711
13
1.386821
23
245.178497
33
278.622711
0
3DFACE
8
0
70
0
10
-3.707817
20
241.141632
30
278.022858
11
-1.908588
21
244.324570
31
278.453766
12
0.659328
22
240.595993
32
276.540375
13
0.659328
23
240.595993
33
276.540375
0
3DFACE
8
0
70
0
10
-2.941678
20
237.504333
30
277.583588
11
-3.707817
21
241.141632
31
278.022858
12
0.659328
22
240.595993
32
276.540375
13
0.659328
23
240.595993
33
276.540375
0
3DFACE
8
0
70
0
10
-0.058311
20
235.563202
30
277.393341
11
-2.941678
21
237.504333
31
277.583588
12
0.659328
22
240.595993
32
276.540375
13
0.659328
23
240.595993
33
276.540375
0
3DFACE
8
0
70
0
10
-0.058311
20
235.563202
30
277.393341
11
0.659328
21
240.595993
31
276.540375
12
3.238302
22
236.444656
32
277.562408
13
3.238302
23
236.444656
33
277.562408
0
3DFACE
8
0
70
0
10
3.238302
20
236.444656
30
277.562408
11
0.659328
21
240.595993
31
276.540375
12
5.016318
22
239.612961
32
277.991577
13
5.016318
23
239.612961
33
277.991577
0
3DFACE
8
0
70
0
10
5.016318
20
239.612961
30
277.991577
11
0.659328
21
240.595993
31
276.540375
12
4.248976
22
243.222565
32
278.430725
13
4.248976
23
243.222565
33
278.430725
0
3DFACE
8
0
70
0
10
0.659328
20
240.595993
30
276.540375
11
1.386821
21
245.178497
31
278.622711
12
4.248976
22
243.222565
32
278.430725
13
4.248976
23
243.222565
33
278.430725
0
3DFACE
8
0
70
0
10
31.087786
20
173.124237
30
298.228973
11
35.258080
21
185.345795
31
267.484711
12
36.766895
22
237.362045
32
274.080688
13
31.032566
23
208.839798
33
298.688843
0
3DFACE
8
0
70
0
10
-21.834772
20
178.976746
30
298.303192
11
-14.079060
21
215.603653
31
298.806244
12
-12.704188
22
246.179321
32
274.264252
13
-24.325415
23
192.477463
33
267.582794
0
3DFACE
8
0
70
0
10
47.617058
20
-43.368774
30
-57.042171
11
45.350704
21
17.766907
31
-56.454163
12
51.649239
22
15.583548
32
-52.220928
13
54.385757
23
-43.368774
33
-57.042171
0
3DFACE
8
0
70
0
10
45.350704
20
17.766907
30
-56.454163
11
47.617058
21
-43.368774
31
-57.042171
12
41.445946
22
-43.520214
32
-57.042171
13
38.632717
23
15.945119
33
-52.921974
0
3DFACE
8
0
70
0
10
41.445946
20
-43.520214
30
-57.042171
11
43.706951
21
-43.528538
31
-57.042171
12
40.556934
22
14.361115
32
-49.850822
13
38.632717
23
15.945119
33
-52.921974
0
3DFACE
8
0
70
0
10
51.649239
20
15.583548
30
-52.220928
11
63.044827
21
5.000484
31
3.162549
12
63.044827
22
-46.344471
32
-9.078914
13
54.385757
23
-43.368774
33
-57.042171
0
3DFACE
8
0
70
0
10
43.706951
20
-43.528538
30
-57.042171
11
47.617058
21
-45.381390
31
-9.078914
12
37.432182
22
4.018015
32
7.780455
13
40.556934
23
14.361115
33
-49.850822
0
3DFACE
8
0
70
0
10
62.067268
20
92.836624
30
15.862158
11
27.552946
21
51.934952
31
24.133879
12
37.432182
22
4.018015
32
7.780455
13
63.044827
23
5.000484
33
3.162549
0
3DFACE
8
0
70
0
10
-45.350704
20
17.766907
30
-56.454163
11
-38.632717
21
15.945119
31
-52.921974
12
-41.445946
22
-43.520214
32
-57.042171
13
-47.617058
23
-43.368774
33
-57.042171
0
3DFACE
8
0
70
0
10
-38.632717
20
15.945119
30
-52.921974
11
-42.467903
21
73.176254
31
-40.704025
12
-38.863400
22
45.633469
32
-23.534237
13
-40.556934
23
14.361115
33
-49.850822
0
3DFACE
8
0
70
0
10
-51.649239
20
15.583548
30
-52.220928
11
-54.385757
21
-43.368774
31
-57.042171
12
-63.044827
22
-46.344471
32
-9.078914
13
-63.044827
23
5.000484
33
3.162549
0
3DFACE
8
0
70
0
10
-43.706951
20
-43.528538
30
-57.042171
11
-40.556934
21
14.361115
31
-49.850822
12
-37.432182
22
4.018015
32
7.780455
13
-47.617058
23
-45.381390
33
-9.078914
0
3DFACE
8
0
70
0
10
-63.044827
20
5.000484
30
3.162549
11
-63.044827
21
-46.344471
31
-9.078914
12
-47.617058
22
-45.381390
32
-9.078914
13
-37.432182
23
4.018015
33
7.780455
0
3DFACE
8
0
70
0
10
33.354847
20
126.993042
30
-51.813583
11
65.234634
21
109.561867
31
-30.409756
12
51.649239
22
15.583548
32
-52.220928
13
45.350704
23
17.766907
33
-56.454163
0
3DFACE
8
0
70
0
10
33.354847
20
126.993042
30
-51.813583
11
45.350704
21
17.766907
31
-56.454163
12
38.632717
22
15.945119
32
-52.921974
13
29.790062
23
73.792473
33
-48.720886
0
3DFACE
8
0
70
0
10
29.790062
20
73.792473
30
-48.720886
11
38.632717
21
15.945119
31
-52.921974
12
40.556934
22
14.361115
32
-49.850822
13
38.863400
23
45.633469
33
-23.534237
0
3DFACE
8
0
70
0
10
62.067268
20
92.836624
30
15.862158
11
63.044827
21
5.000484
31
3.162549
12
51.649239
22
15.583548
32
-52.220928
13
65.234634
23
109.561867
33
-30.409756
0
3DFACE
8
0
70
0
10
37.432182
20
4.018015
30
7.780455
11
27.552946
21
51.934952
31
24.133879
12
38.863400
22
45.633469
32
-23.534237
13
40.556934
23
14.361115
33
-49.850822
0
3DFACE
8
0
70
0
10
63.044827
20
5.000484
30
3.162549
11
37.432182
21
4.018015
31
7.780455
12
47.617058
22
-45.381390
32
-9.078914
13
63.044827
23
-46.344471
33
-9.078914
0
3DFACE
8
0
70
0
10
-49.544910
20
126.286064
30
-42.616032
11
-45.350704
21
17.766907
31
-56.454163
12
-51.649239
22
15.583548
32
-52.220928
13
-75.208138
23
108.364159
33
-14.827932
0
3DFACE
8
0
70
0
10
-47.617058
20
-43.368774
30
-57.042171
11
-54.385757
21
-43.368774
31
-57.042171
12
-51.649239
22
15.583548
32
-52.220928
13
-45.350704
23
17.766907
33
-56.454163
0
3DFACE
8
0
70
0
10
-49.544910
20
126.286064
30
-42.616032
11
-42.467903
21
73.176254
31
-40.704025
12
-38.632717
22
15.945119
32
-52.921974
13
-45.350704
23
17.766907
33
-56.454163
0
3DFACE
8
0
70
0
10
-41.445946
20
-43.520214
30
-57.042171
11
-38.632717
21
15.945119
31
-52.921974
12
-40.556934
22
14.361115
32
-49.850822
13
-43.706951
23
-43.528538
33
-57.042171
0
3DFACE
8
0
70
0
10
-61.475769
20
91.783028
30
29.568993
11
-75.208138
21
108.364159
31
-14.827932
12
-51.649239
22
15.583548
32
-52.220928
13
-63.044827
23
5.000484
33
3.162549
0
3DFACE
8
0
70
0
10
-37.432182
20
4.018015
30
7.780455
11
-40.556934
21
14.361115
31
-49.850822
12
-38.863400
22
45.633469
32
-23.534237
13
-27.552946
23
51.934952
33
24.133879
0
3DFACE
8
0
70
0
10
-61.475769
20
91.783028
30
29.568993
11
-63.044827
21
5.000484
31
3.162549
12
-37.432182
22
4.018015
32
7.780455
13
-27.552946
23
51.934952
33
24.133879
0
3DFACE
8
0
70
0
10
34.030106
20
188.511566
30
183.125549
11
3.729570
21
198.401321
31
181.227844
12
10.334631
22
236.116058
32
223.410110
13
29.390791
23
231.502029
33
230.735840
0
3DFACE
8
0
70
0
10
34.030106
20
188.511566
30
183.125549
11
29.390791
21
231.502029
31
230.735840
12
28.869665
22
202.107452
32
227.183395
13
35.361904
23
162.542358
33
190.358063
0
3DFACE
8
0
70
0
10
35.361904
20
162.542358
30
190.358063
11
28.869665
21
202.107452
31
227.183395
12
2.850219
22
162.836853
32
230.165482
13
1.121542
23
139.641281
33
202.256424
0
3DFACE
8
0
70
0
10
-27.407837
20
194.164688
30
183.184982
11
-8.872823
21
237.754257
31
230.854599
12
10.334631
22
236.116058
32
223.410110
13
3.729570
23
198.401321
33
181.227844
0
3DFACE
8
0
70
0
10
-27.407837
20
194.164688
30
183.184982
11
-31.425276
21
167.288925
31
190.396484
12
-15.675587
22
207.932358
32
227.271118
13
-8.872823
23
237.754257
33
230.854599
0
3DFACE
8
0
70
0
10
-31.425276
20
167.288925
30
190.396484
11
1.121542
21
139.641281
31
202.256424
12
2.850219
22
162.836853
32
230.165482
13
-15.675587
23
207.932358
33
227.271118
0
3DFACE
8
0
70
0
10
54.283447
20
70.952736
30
140.073364
11
41.445946
21
135.029648
31
121.695625
12
38.361702
22
171.742630
32
158.167465
13
42.013813
23
132.882065
33
161.739594
0
3DFACE
8
0
70
0
10
1.777307
20
180.924881
30
156.295746
11
-35.364841
21
176.291824
31
158.199417
12
-27.407837
22
194.164688
32
183.184982
13
3.729570
23
198.401321
33
181.227844
0
3DFACE
8
0
70
0
10
-54.283447
20
70.952736
30
140.073364
11
-41.489101
21
135.042755
31
161.745941
12
-35.364841
22
176.291824
32
158.199417
13
-41.445946
23
135.029648
33
121.695625
0
3DFACE
8
0
70
0
10
-54.283447
20
70.952736
30
140.073364
11
0.000000
21
67.276886
31
179.891632
12
0.000000
22
96.158005
32
179.613770
13
-41.489101
23
135.042755
33
161.745941
0
3DFACE
8
0
70
0
10
1.777307
20
180.924881
30
156.295746
11
3.729570
21
198.401321
31
181.227844
12
34.030106
22
188.511566
32
183.125549
13
38.361702
23
171.742630
33
158.167465
0
3DFACE
8
0
70
0
10
41.445946
20
135.029648
30
121.695625
11
0.000000
21
152.367416
31
123.288216
12
1.777307
22
180.924881
32
156.295746
13
38.361702
23
171.742630
33
158.167465
0
3DFACE
8
0
70
0
10
38.361702
20
171.742630
30
158.167465
11
34.030106
21
188.511566
31
183.125549
12
35.361904
22
162.542358
32
190.358063
13
42.013813
23
132.882065
33
161.739594
0
3DFACE
8
0
70
0
10
42.013813
20
132.882065
30
161.739594
11
35.361904
21
162.542358
31
190.358063
12
1.121542
22
139.641281
32
202.256424
13
0.000000
23
96.158005
33
179.613770
0
3DFACE
8
0
70
0
10
54.283447
20
70.952736
30
140.073364
11
42.013813
21
132.882065
31
161.739594
12
0.000000
22
96.158005
32
179.613770
13
0.000000
23
67.276886
33
179.891632
0
3DFACE
8
0
70
0
10
-41.445946
20
135.029648
30
121.695625
11
-35.364841
21
176.291824
31
158.199417
12
1.777307
22
180.924881
32
156.295746
13
0.000000
23
152.367416
33
123.288216
0
3DFACE
8
0
70
0
10
-41.489101
20
135.042755
30
161.745941
11
-31.425276
21
167.288925
31
190.396484
12
-27.407837
22
194.164688
32
183.184982
13
-35.364841
23
176.291824
33
158.199417
0
3DFACE
8
0
70
0
10
-41.489101
20
135.042755
30
161.745941
11
0.000000
21
96.158005
31
179.613770
12
1.121542
22
139.641281
32
202.256424
13
-31.425276
23
167.288925
33
190.396484
0
3DFACE
8
0
70
0
10
19.109455
20
249.187057
30
242.454361
11
29.308979
21
243.993591
31
241.935455
12
70.754868
22
269.461517
32
229.668884
13
63.479832
23
271.598145
33
230.174622
0
3DFACE
8
0
70
0
10
-35.816044
20
292.248566
30
230.246033
11
-4.876167
21
250.104126
31
242.063065
12
6.327912
22
251.518860
32
242.504120
13
-28.310919
23
291.291687
33
230.675247
0
ENDSEC
0
EOF
