0
SECTION
2
HEADER
999
DXF File Generated by LightWave 3D(TM)
0
ENDSEC
0
SECTION
2
TABLES
0
ENDSEC
0
SECTION
2
BLOCKS
0
ENDSEC
0
SECTION
2
ENTITIES
0
3DFACE
8
0
70
0
10
-5.702473
20
0.050000
30
2.738562
11
-1.012655
21
0.050000
31
2.738562
12
-1.025309
22
1.500000
32
2.857843
13
-5.904945
23
1.500000
33
2.857843
0
3DFACE
8
0
70
0
10
-1.012655
20
0.050000
30
2.738562
11
2.009673
21
0.050000
31
2.738562
12
2.119345
22
1.500000
32
2.857843
13
-1.025309
23
1.500000
33
2.857843
0
3DFACE
8
0
70
0
10
2.009673
20
0.050000
30
2.738562
11
5.032000
21
0.050000
31
2.738562
12
5.264000
22
1.500000
32
2.857843
13
2.119345
23
1.500000
33
2.857843
0
3DFACE
8
0
70
0
10
5.032000
20
0.050000
30
2.738562
11
5.032000
21
0.050000
31
1.366847
12
5.472000
22
2.800000
32
1.477650
13
5.264000
23
1.500000
33
2.857843
0
3DFACE
8
0
70
0
10
5.032000
20
0.050000
30
1.366847
11
5.032000
21
0.050000
31
-0.004869
12
5.472000
22
2.800000
32
-0.011500
13
5.472000
23
2.800000
33
1.477650
0
3DFACE
8
0
70
0
10
5.032000
20
0.050000
30
-0.004869
11
5.032000
21
0.050000
31
-1.376584
12
5.472000
22
2.800000
32
-1.496620
13
5.472000
23
2.800000
33
-0.011500
0
3DFACE
8
0
70
0
10
5.032000
20
0.050000
30
-1.376584
11
5.032000
21
0.050000
31
-2.748299
12
5.264000
22
1.500000
32
-2.872449
13
5.472000
23
2.800000
33
-1.496620
0
3DFACE
8
0
70
0
10
-5.702473
20
0.050000
30
-1.376584
11
-6.086473
21
2.800000
31
-1.496620
12
-5.904945
22
1.500000
32
-2.872449
13
-5.702473
23
0.050000
33
-2.748299
0
3DFACE
8
0
70
0
10
-5.702473
20
0.050000
30
-0.004869
11
-6.086473
21
2.800000
31
-0.011500
12
-6.086473
22
2.800000
32
-1.496620
13
-5.702473
23
0.050000
33
-1.376584
0
3DFACE
8
0
70
0
10
-5.702473
20
0.050000
30
1.366847
11
-6.086473
21
2.800000
31
1.477650
12
-6.086473
22
2.800000
32
-0.011500
13
-5.702473
23
0.050000
33
-0.004869
0
3DFACE
8
0
70
0
10
-5.702473
20
0.050000
30
2.738562
11
-5.904945
21
1.500000
31
2.857843
12
-6.086473
22
2.800000
32
1.477650
13
-5.702473
23
0.050000
33
1.366847
0
3DFACE
8
0
70
0
10
-6.302909
20
4.350001
30
2.857843
11
-1.050182
21
4.350001
31
2.857843
12
-1.061527
22
5.650001
32
1.477650
13
-6.484437
23
5.650001
33
1.477650
0
3DFACE
8
0
70
0
10
-6.484437
20
5.650001
30
1.477650
11
-1.061527
21
5.650001
31
1.477650
12
-1.072000
22
6.850000
32
-0.011500
13
-6.652000
23
6.850000
33
-0.011500
0
3DFACE
8
0
70
0
10
-6.652000
20
6.850000
30
-0.011500
11
-1.072000
21
6.850000
31
-0.011500
12
-1.061527
22
5.650001
32
-1.496620
13
-6.484437
23
5.650001
33
-1.496620
0
3DFACE
8
0
70
0
10
-6.484437
20
5.650001
30
-1.496620
11
-1.061527
21
5.650001
31
-1.496620
12
-1.050182
22
4.350001
32
-2.872449
13
-6.302909
23
4.350001
33
-2.872449
0
3DFACE
8
0
70
0
10
-1.027055
20
1.700000
30
2.857843
11
2.134473
21
1.700000
31
2.857843
12
2.232800
22
3.000000
32
1.477650
13
-1.038400
23
3.000000
33
1.477650
0
3DFACE
8
0
70
0
10
-1.038400
20
3.000000
30
1.477650
11
2.232800
21
3.000000
31
1.477650
12
2.232800
22
3.000000
32
-0.011500
13
-1.038400
23
3.000000
33
-0.011500
0
3DFACE
8
0
70
0
10
-1.038400
20
3.000000
30
-0.011500
11
2.232800
21
3.000000
31
-0.011500
12
2.232800
22
3.000000
32
-1.496620
13
-1.038400
23
3.000000
33
-1.496620
0
3DFACE
8
0
70
0
10
-1.038400
20
3.000000
30
-1.496620
11
2.232800
21
3.000000
31
-1.496620
12
2.134473
22
1.700000
32
-2.872449
13
-1.027055
23
1.700000
33
-2.872449
0
3DFACE
8
0
70
0
10
2.134473
20
1.700000
30
2.857843
11
5.296000
21
1.700000
31
2.857843
12
5.504000
22
3.000000
32
1.477650
13
2.232800
23
3.000000
33
1.477650
0
3DFACE
8
0
70
0
10
2.232800
20
3.000000
30
1.477650
11
5.504000
21
3.000000
31
1.477650
12
5.504000
22
3.000000
32
-0.011500
13
2.232800
23
3.000000
33
-0.011500
0
3DFACE
8
0
70
0
10
2.232800
20
3.000000
30
-0.011500
11
5.504000
21
3.000000
31
-0.011500
12
5.504000
22
3.000000
32
-1.496620
13
2.232800
23
3.000000
33
-1.496620
0
3DFACE
8
0
70
0
10
2.232800
20
3.000000
30
-1.496620
11
5.504000
21
3.000000
31
-1.496620
12
5.296000
22
1.700000
32
-2.872449
13
2.134473
23
1.700000
33
-2.872449
0
3DFACE
8
0
70
0
10
-1.069382
20
6.550000
30
-0.011500
11
-1.058909
21
5.350000
31
1.477650
12
-1.047782
22
4.075000
32
1.477650
13
-1.058255
23
5.275000
33
-0.011500
0
3DFACE
8
0
70
0
10
-1.058255
20
5.275000
30
-0.011500
11
-1.047782
21
4.075000
31
1.477650
12
-1.036655
22
2.800000
32
1.477650
13
-1.036655
23
2.800000
33
-0.011500
0
3DFACE
8
0
70
0
10
-1.058909
20
5.350000
30
1.477650
11
-1.047564
21
4.050001
31
2.857843
12
-1.036436
22
2.775000
32
2.857843
13
-1.047782
23
4.075000
33
1.477650
0
3DFACE
8
0
70
0
10
-1.047782
20
4.075000
30
1.477650
11
-1.036436
21
2.775000
31
2.857843
12
-1.025309
22
1.500000
32
2.857843
13
-1.036655
23
2.800000
33
1.477650
0
3DFACE
8
0
70
0
10
-1.047564
20
4.050001
30
2.857843
11
-6.261018
21
4.050001
31
2.857843
12
-6.082982
22
2.775000
32
2.857843
13
-1.036436
23
2.775000
33
2.857843
0
3DFACE
8
0
70
0
10
-1.036436
20
2.775000
30
2.857843
11
-6.082982
21
2.775000
31
2.857843
12
-5.904945
22
1.500000
32
2.857843
13
-1.025309
23
1.500000
33
2.857843
0
3DFACE
8
0
70
0
10
-6.261018
20
4.050001
30
2.857843
11
-6.442545
21
5.350000
31
1.477650
12
-6.264509
22
4.075000
32
1.477650
13
-6.082982
23
2.775000
33
2.857843
0
3DFACE
8
0
70
0
10
-6.082982
20
2.775000
30
2.857843
11
-6.264509
21
4.075000
31
1.477650
12
-6.086473
22
2.800000
32
1.477650
13
-5.904945
23
1.500000
33
2.857843
0
3DFACE
8
0
70
0
10
-6.442545
20
5.350000
30
1.477650
11
-6.610109
21
6.550000
31
-0.011500
12
-6.432073
22
5.275000
32
-0.011500
13
-6.264509
23
4.075000
33
1.477650
0
3DFACE
8
0
70
0
10
-6.264509
20
4.075000
30
1.477650
11
-6.432073
21
5.275000
31
-0.011500
12
-6.086473
22
2.800000
32
-0.011500
13
-6.086473
23
2.800000
33
1.477650
0
3DFACE
8
0
70
0
10
-6.610109
20
6.550000
30
-0.011500
11
-6.442545
21
5.350000
31
-1.496620
12
-6.264509
22
4.075000
32
-1.496620
13
-6.432073
23
5.275000
33
-0.011500
0
3DFACE
8
0
70
0
10
-6.432073
20
5.275000
30
-0.011500
11
-6.264509
21
4.075000
31
-1.496620
12
-6.086473
22
2.800000
32
-1.496620
13
-6.086473
23
2.800000
33
-0.011500
0
3DFACE
8
0
70
0
10
-6.442545
20
5.350000
30
-1.496620
11
-6.261018
21
4.050001
31
-2.872449
12
-6.082982
22
2.775000
32
-2.872449
13
-6.264509
23
4.075000
33
-1.496620
0
3DFACE
8
0
70
0
10
-6.264509
20
4.075000
30
-1.496620
11
-6.082982
21
2.775000
31
-2.872449
12
-5.904945
22
1.500000
32
-2.872449
13
-6.086473
23
2.800000
33
-1.496620
0
3DFACE
8
0
70
0
10
-1.058909
20
5.350000
30
-1.496620
11
-1.069382
21
6.550000
31
-0.011500
12
-1.058255
22
5.275000
32
-0.011500
13
-1.047782
23
4.075000
33
-1.496620
0
3DFACE
8
0
70
0
10
-1.047782
20
4.075000
30
-1.496620
11
-1.058255
21
5.275000
31
-0.011500
12
-1.036655
22
2.800000
32
-0.011500
13
-1.036655
23
2.800000
33
-1.496620
0
3DFACE
8
0
70
0
10
-1.047564
20
4.050001
30
-2.872449
11
-1.058909
21
5.350000
31
-1.496620
12
-1.047782
22
4.075000
32
-1.496620
13
-1.036436
23
2.775000
33
-2.872449
0
3DFACE
8
0
70
0
10
-1.036436
20
2.775000
30
-2.872449
11
-1.047782
21
4.075000
31
-1.496620
12
-1.036655
22
2.800000
32
-1.496620
13
-1.025309
23
1.500000
33
-2.872449
0
3DFACE
8
0
70
0
10
-6.302909
20
4.350001
30
2.857843
11
-6.484437
21
5.650001
31
1.477650
12
-6.442545
22
5.350000
32
1.477650
13
-6.261018
23
4.050001
33
2.857843
0
3DFACE
8
0
70
0
10
-1.050182
20
4.350001
30
2.857843
11
-1.047564
21
4.050001
31
2.857843
12
-1.058909
22
5.350000
32
1.477650
13
-1.061527
23
5.650001
33
1.477650
0
3DFACE
8
0
70
0
10
-1.049309
20
4.250001
30
2.957843
11
-6.288946
21
4.250001
31
2.957843
12
-6.247055
22
3.950001
32
2.957843
13
-1.046691
23
3.950001
33
2.957843
0
3DFACE
8
0
70
0
10
-6.484437
20
5.650001
30
1.477650
11
-6.652000
21
6.850000
31
-0.011500
12
-6.610109
22
6.550000
32
-0.011500
13
-6.442545
23
5.350000
33
1.477650
0
3DFACE
8
0
70
0
10
-1.061527
20
5.650001
30
1.477650
11
-1.058909
21
5.350000
31
1.477650
12
-1.069382
22
6.550000
32
-0.011500
13
-1.072000
23
6.850000
33
-0.011500
0
3DFACE
8
0
70
0
10
-6.484437
20
5.650001
30
-1.496620
11
-6.442545
21
5.350000
31
-1.496620
12
-6.610109
22
6.550000
32
-0.011500
13
-6.652000
23
6.850000
33
-0.011500
0
3DFACE
8
0
70
0
10
-1.061527
20
5.650001
30
-1.496620
11
-1.072000
21
6.850000
31
-0.011500
12
-1.069382
22
6.550000
32
-0.011500
13
-1.058909
23
5.350000
33
-1.496620
0
3DFACE
8
0
70
0
10
-6.302909
20
4.350001
30
-2.872449
11
-6.261018
21
4.050001
31
-2.872449
12
-6.442545
22
5.350000
32
-1.496620
13
-6.484437
23
5.650001
33
-1.496620
0
3DFACE
8
0
70
0
10
-1.049309
20
4.250001
30
-2.972449
11
-1.046691
21
3.950001
31
-2.972449
12
-6.247055
22
3.950001
32
-2.972449
13
-6.288946
23
4.250001
33
-2.972449
0
3DFACE
8
0
70
0
10
-1.050182
20
4.350001
30
-2.872449
11
-1.061527
21
5.650001
31
-1.496620
12
-1.058909
22
5.350000
32
-1.496620
13
-1.047564
23
4.050001
33
-2.872449
0
3DFACE
8
0
70
0
10
-1.046691
20
3.950001
30
2.957843
11
-1.047564
21
4.050001
31
2.857843
12
-1.050182
22
4.350001
32
2.857843
13
-1.049309
23
4.250001
33
2.957843
0
3DFACE
8
0
70
0
10
-1.046691
20
3.950001
30
2.957843
11
-6.247055
21
3.950001
31
2.957843
12
-6.261018
22
4.050001
32
2.857843
13
-1.047564
23
4.050001
33
2.857843
0
3DFACE
8
0
70
0
10
-6.247055
20
3.950001
30
2.957843
11
-6.288946
21
4.250001
31
2.957843
12
-6.302909
22
4.350001
32
2.857843
13
-6.261018
23
4.050001
33
2.857843
0
3DFACE
8
0
70
0
10
-1.049309
20
4.250001
30
2.957843
11
-1.050182
21
4.350001
31
2.857843
12
-6.302909
22
4.350001
32
2.857843
13
-6.288946
23
4.250001
33
2.957843
0
3DFACE
8
0
70
0
10
-1.049309
20
4.250001
30
-2.972449
11
-6.288946
21
4.250001
31
-2.972449
12
-6.302909
22
4.350001
32
-2.872449
13
-1.050182
23
4.350001
33
-2.872449
0
3DFACE
8
0
70
0
10
-6.247055
20
3.950001
30
-2.972449
11
-6.261018
21
4.050001
31
-2.872449
12
-6.302909
22
4.350001
32
-2.872449
13
-6.288946
23
4.250001
33
-2.972449
0
3DFACE
8
0
70
0
10
-1.046691
20
3.950001
30
-2.972449
11
-1.047564
21
4.050001
31
-2.872449
12
-6.261018
22
4.050001
32
-2.872449
13
-6.247055
23
3.950001
33
-2.972449
0
3DFACE
8
0
70
0
10
-1.046691
20
3.950001
30
-2.972449
11
-1.049309
21
4.250001
31
-2.972449
12
-1.050182
22
4.350001
32
-2.872449
13
-1.047564
23
4.050001
33
-2.872449
0
3DFACE
8
0
70
0
10
-1.025746
20
1.550000
30
3.007843
11
-1.024000
21
1.350000
31
3.007843
12
2.108000
22
1.350000
32
3.007843
13
2.123127
23
1.550000
33
3.007843
0
3DFACE
8
0
70
0
10
-1.026182
20
1.600000
30
-2.972449
11
2.126909
21
1.600000
31
-2.972449
12
2.111782
22
1.400000
32
-2.972449
13
-1.024436
23
1.400000
33
-2.972449
0
3DFACE
8
0
70
0
10
5.296000
20
1.700000
30
2.857843
11
5.264000
21
1.500000
31
2.857843
12
5.472000
22
2.800000
32
1.477650
13
5.504000
23
3.000000
33
1.477650
0
3DFACE
8
0
70
0
10
2.123127
20
1.550000
30
3.007843
11
2.108000
21
1.350000
31
3.007843
12
5.240000
22
1.350000
32
3.007843
13
5.272000
23
1.550000
33
3.007843
0
3DFACE
8
0
70
0
10
5.504000
20
3.000000
30
1.477650
11
5.472000
21
2.800000
31
1.477650
12
5.472000
22
2.800000
32
-0.011500
13
5.504000
23
3.000000
33
-0.011500
0
3DFACE
8
0
70
0
10
5.504000
20
3.000000
30
-1.496620
11
5.504000
21
3.000000
31
-0.011500
12
5.472000
22
2.800000
32
-0.011500
13
5.472000
23
2.800000
33
-1.496620
0
3DFACE
8
0
70
0
10
2.126909
20
1.600000
30
-2.972449
11
5.280000
21
1.600000
31
-2.972449
12
5.248000
22
1.400000
32
-2.972449
13
2.111782
23
1.400000
33
-2.972449
0
3DFACE
8
0
70
0
10
5.296000
20
1.700000
30
-2.872449
11
5.504000
21
3.000000
31
-1.496620
12
5.472000
22
2.800000
32
-1.496620
13
5.264000
23
1.500000
33
-2.872449
0
3DFACE
8
0
70
0
10
-1.025746
20
1.550000
30
3.007843
11
2.123127
21
1.550000
31
3.007843
12
2.134473
22
1.700000
32
2.857843
13
-1.027055
23
1.700000
33
2.857843
0
3DFACE
8
0
70
0
10
-1.024000
20
1.350000
30
3.007843
11
-1.025309
21
1.500000
31
2.857843
12
2.119345
22
1.500000
32
2.857843
13
2.108000
23
1.350000
33
3.007843
0
3DFACE
8
0
70
0
10
-1.024000
20
1.350000
30
3.007843
11
-1.025746
21
1.550000
31
3.007843
12
-1.027055
22
1.700000
32
2.857843
13
-1.025309
23
1.500000
33
2.857843
0
3DFACE
8
0
70
0
10
-1.024436
20
1.400000
30
-2.972449
11
-1.025309
21
1.500000
31
-2.872449
12
-1.027055
22
1.700000
32
-2.872449
13
-1.026182
23
1.600000
33
-2.972449
0
3DFACE
8
0
70
0
10
-1.024436
20
1.400000
30
-2.972449
11
2.111782
21
1.400000
31
-2.972449
12
2.119345
22
1.500000
32
-2.872449
13
-1.025309
23
1.500000
33
-2.872449
0
3DFACE
8
0
70
0
10
-1.026182
20
1.600000
30
-2.972449
11
-1.027055
21
1.700000
31
-2.872449
12
2.134473
22
1.700000
32
-2.872449
13
2.126909
23
1.600000
33
-2.972449
0
3DFACE
8
0
70
0
10
2.123127
20
1.550000
30
3.007843
11
5.272000
21
1.550000
31
3.007843
12
5.296000
22
1.700000
32
2.857843
13
2.134473
23
1.700000
33
2.857843
0
3DFACE
8
0
70
0
10
5.240000
20
1.350000
30
3.007843
11
5.264000
21
1.500000
31
2.857843
12
5.296000
22
1.700000
32
2.857843
13
5.272000
23
1.550000
33
3.007843
0
3DFACE
8
0
70
0
10
2.108000
20
1.350000
30
3.007843
11
2.119345
21
1.500000
31
2.857843
12
5.264000
22
1.500000
32
2.857843
13
5.240000
23
1.350000
33
3.007843
0
3DFACE
8
0
70
0
10
2.111782
20
1.400000
30
-2.972449
11
5.248000
21
1.400000
31
-2.972449
12
5.264000
22
1.500000
32
-2.872449
13
2.119345
23
1.500000
33
-2.872449
0
3DFACE
8
0
70
0
10
5.248000
20
1.400000
30
-2.972449
11
5.280000
21
1.600000
31
-2.972449
12
5.296000
22
1.700000
32
-2.872449
13
5.264000
23
1.500000
33
-2.872449
0
3DFACE
8
0
70
0
10
2.126909
20
1.600000
30
-2.972449
11
2.134473
21
1.700000
31
-2.872449
12
5.296000
22
1.700000
32
-2.872449
13
5.280000
23
1.600000
33
-2.972449
0
3DFACE
8
0
70
0
10
-5.602586
20
-1.800000
30
2.679717
11
-5.500000
21
-3.700000
31
2.619281
12
-1.000000
22
-3.700000
32
2.619281
13
-1.006412
23
-1.800000
33
2.679717
0
3DFACE
8
0
70
0
10
-1.006412
20
-1.800000
30
2.679717
11
-1.000000
21
-3.700000
31
2.619281
12
1.900000
22
-3.700000
32
2.619281
13
1.955567
23
-1.800000
33
2.679717
0
3DFACE
8
0
70
0
10
1.955567
20
-1.800000
30
2.679717
11
1.900000
21
-3.700000
31
2.619281
12
4.800000
22
-3.700000
32
2.619281
13
4.917547
23
-1.800000
33
2.679717
0
3DFACE
8
0
70
0
10
4.917547
20
-1.800000
30
2.679717
11
4.800000
21
-3.700000
31
2.619281
12
4.800000
22
-3.700000
32
1.308423
13
4.917547
23
-1.800000
33
1.338024
0
3DFACE
8
0
70
0
10
4.917547
20
-1.800000
30
1.338024
11
4.800000
21
-3.700000
31
1.308423
12
4.800000
22
-3.700000
32
-0.002434
13
4.917547
23
-1.800000
33
-0.003668
0
3DFACE
8
0
70
0
10
4.917547
20
-1.800000
30
-1.345360
11
4.917547
21
-1.800000
31
-0.003668
12
4.800000
22
-3.700000
32
-0.002434
13
4.800000
23
-3.700000
33
-1.313292
0
3DFACE
8
0
70
0
10
4.917547
20
-1.800000
30
-1.345360
11
4.800000
21
-3.700000
31
-1.313292
12
4.800000
22
-3.700000
32
-2.624150
13
4.917547
23
-1.800000
33
-2.687052
0
3DFACE
8
0
70
0
10
-5.602586
20
-1.800000
30
-2.687052
11
-5.500000
21
-3.700000
31
-2.624150
12
-5.500000
22
-3.700000
32
-1.313292
13
-5.602586
23
-1.800000
33
-1.345360
0
3DFACE
8
0
70
0
10
-5.602586
20
-1.800000
30
-1.345360
11
-5.500000
21
-3.700000
31
-1.313292
12
-5.500000
22
-3.700000
32
-0.002434
13
-5.602586
23
-1.800000
33
-0.003668
0
3DFACE
8
0
70
0
10
-5.602586
20
-1.800000
30
-0.003668
11
-5.500000
21
-3.700000
31
-0.002434
12
-5.500000
22
-3.700000
32
1.308423
13
-5.602586
23
-1.800000
33
1.338024
0
3DFACE
8
0
70
0
10
-5.602586
20
-1.800000
30
1.338024
11
-5.500000
21
-3.700000
31
1.308423
12
-5.500000
22
-3.700000
32
2.619281
13
-5.602586
23
-1.800000
33
2.679717
0
3DFACE
8
0
70
0
10
-5.702473
20
0.050000
30
2.738562
11
-5.602586
21
-1.800000
31
2.679717
12
-1.006412
22
-1.800000
32
2.679717
13
-1.012655
23
0.050000
33
2.738562
0
3DFACE
8
0
70
0
10
-1.012655
20
0.050000
30
2.738562
11
-1.006412
21
-1.800000
31
2.679717
12
1.955567
22
-1.800000
32
2.679717
13
2.009673
23
0.050000
33
2.738562
0
3DFACE
8
0
70
0
10
2.009673
20
0.050000
30
2.738562
11
1.955567
21
-1.800000
31
2.679717
12
4.917547
22
-1.800000
32
2.679717
13
5.032000
23
0.050000
33
2.738562
0
3DFACE
8
0
70
0
10
5.032000
20
0.050000
30
2.738562
11
4.917547
21
-1.800000
31
2.679717
12
4.917547
22
-1.800000
32
1.338024
13
5.032000
23
0.050000
33
1.366847
0
3DFACE
8
0
70
0
10
5.032000
20
0.050000
30
1.366847
11
4.917547
21
-1.800000
31
1.338024
12
4.917547
22
-1.800000
32
-0.003668
13
5.032000
23
0.050000
33
-0.004869
0
3DFACE
8
0
70
0
10
5.032000
20
0.050000
30
-0.004869
11
4.917547
21
-1.800000
31
-0.003668
12
4.917547
22
-1.800000
32
-1.345360
13
5.032000
23
0.050000
33
-1.376584
0
3DFACE
8
0
70
0
10
5.032000
20
0.050000
30
-1.376584
11
4.917547
21
-1.800000
31
-1.345360
12
4.917547
22
-1.800000
32
-2.687052
13
5.032000
23
0.050000
33
-2.748299
0
3DFACE
8
0
70
0
10
-5.702473
20
0.050000
30
-2.748299
11
-5.602586
21
-1.800000
31
-2.687052
12
-5.602586
22
-1.800000
32
-1.345360
13
-5.702473
23
0.050000
33
-1.376584
0
3DFACE
8
0
70
0
10
-5.702473
20
0.050000
30
-1.376584
11
-5.602586
21
-1.800000
31
-1.345360
12
-5.602586
22
-1.800000
32
-0.003668
13
-5.702473
23
0.050000
33
-0.004869
0
3DFACE
8
0
70
0
10
-5.702473
20
0.050000
30
-0.004869
11
-5.602586
21
-1.800000
31
-0.003668
12
-5.602586
22
-1.800000
32
1.338024
13
-5.702473
23
0.050000
33
1.366847
0
3DFACE
8
0
70
0
10
-5.702473
20
0.050000
30
1.366847
11
-5.602586
21
-1.800000
31
1.338024
12
-5.602586
22
-1.800000
32
2.679717
13
-5.702473
23
0.050000
33
2.738562
0
3DFACE
8
0
70
0
10
3.633291
20
3.417703
30
-0.183295
11
3.822526
21
3.338921
31
-0.292438
12
3.992389
22
3.573430
32
-0.207293
13
3.708560
23
3.598032
33
-0.156326
0
3DFACE
8
0
70
0
10
3.822526
20
3.338921
30
-0.292438
11
4.070376
21
3.305667
31
-0.515659
12
4.246314
22
3.591758
32
-0.406942
13
3.992389
23
3.573430
33
-0.207293
0
3DFACE
8
0
70
0
10
3.708560
20
3.598032
30
-0.156326
11
3.992389
21
3.573430
31
-0.207293
12
4.071723
22
3.811270
32
-0.240199
13
3.782950
23
3.794555
33
-0.214724
0
3DFACE
8
0
70
0
10
3.992389
20
3.573430
30
-0.207293
11
4.246314
21
3.591758
31
-0.406942
12
4.315959
22
3.878400
32
-0.416265
13
4.071723
23
3.811270
33
-0.240199
0
3DFACE
8
0
70
0
10
4.070376
20
3.305667
30
-0.515659
11
4.319614
21
3.361736
31
-0.735670
12
4.492444
22
3.690220
32
-0.609171
13
4.246314
23
3.591758
33
-0.406942
0
3DFACE
8
0
70
0
10
4.319614
20
3.361736
30
-0.735670
11
4.566113
21
3.446222
31
-0.948433
12
4.749398
22
3.808000
32
-0.816423
13
4.492444
23
3.690220
33
-0.609171
0
3DFACE
8
0
70
0
10
4.246314
20
3.591758
30
-0.406942
11
4.492444
21
3.690220
31
-0.609171
12
4.554160
22
4.018773
32
-0.601510
13
4.315959
23
3.878400
33
-0.416265
0
3DFACE
8
0
70
0
10
4.492444
20
3.690220
30
-0.609171
11
4.749398
21
3.808000
31
-0.816423
12
4.816122
22
4.169778
32
-0.806053
13
4.554160
23
4.018773
33
-0.601510
0
3DFACE
8
0
70
0
10
4.566113
20
3.446222
30
-0.948433
11
4.799220
21
3.499389
31
-1.167574
12
4.999487
22
3.879175
32
-1.065439
13
4.749398
23
3.808000
33
-0.816423
0
3DFACE
8
0
70
0
10
4.799220
20
3.499389
30
-1.167574
11
4.929073
21
3.570889
31
-1.364105
12
5.083279
22
3.915403
32
-1.381626
13
4.999487
23
3.879175
33
-1.065439
0
3DFACE
8
0
70
0
10
4.749398
20
3.808000
30
-0.816423
11
4.999487
21
3.879175
31
-1.065439
12
5.086331
22
4.265265
32
-1.073675
13
4.816122
23
4.169778
33
-0.806053
0
3DFACE
8
0
70
0
10
4.999487
20
3.879175
30
-1.065439
11
5.083279
21
3.915403
31
-1.381626
12
5.176742
22
4.310334
32
-1.431277
13
5.086331
23
4.265265
33
-1.073675
0
3DFACE
8
0
70
0
10
3.633291
20
3.417703
30
-0.183295
11
3.708560
21
3.598032
31
-0.156326
12
3.384699
22
3.603296
32
-0.383560
13
3.391403
23
3.396926
33
-0.383913
0
3DFACE
8
0
70
0
10
3.708560
20
3.598032
30
-0.156326
11
3.782950
21
3.794555
31
-0.214724
12
3.449758
22
3.791439
32
-0.452777
13
3.384699
23
3.603296
33
-0.383560
0
3DFACE
8
0
70
0
10
3.391403
20
3.396926
30
-0.383913
11
3.384699
21
3.603296
31
-0.383560
12
3.180745
22
3.598032
32
-0.722337
13
3.207607
23
3.417703
33
-0.639785
0
3DFACE
8
0
70
0
10
3.384699
20
3.603296
30
-0.383560
11
3.449758
21
3.791439
31
-0.452777
12
3.235436
22
3.794555
32
-0.801861
13
3.180745
23
3.598032
33
-0.722337
0
3DFACE
8
0
70
0
10
3.694367
20
3.495274
30
-0.411671
11
3.834853
21
3.485873
31
-0.492437
12
3.659877
22
3.422493
32
-0.655825
13
3.535689
23
3.471318
33
-0.541708
0
3DFACE
8
0
70
0
10
3.834853
20
3.485873
30
-0.492437
11
4.033315
21
3.554511
31
-0.663405
12
3.853166
22
3.483928
32
-0.838196
13
3.659877
23
3.422493
33
-0.655825
0
3DFACE
8
0
70
0
10
3.535689
20
3.471318
30
-0.541708
11
3.659877
21
3.422493
31
-0.655825
12
3.506904
22
3.485873
32
-0.844118
13
3.416211
23
3.495274
33
-0.709957
0
3DFACE
8
0
70
0
10
3.659877
20
3.422493
30
-0.655825
11
3.853166
21
3.483928
31
-0.838196
12
3.688931
22
3.554511
32
-1.032712
13
3.506904
23
3.485873
33
-0.844118
0
3DFACE
8
0
70
0
10
4.033315
20
3.554511
30
-0.663405
11
4.255005
21
3.705272
31
-0.855415
12
4.067057
22
3.633543
32
-1.042830
13
3.853166
23
3.483928
33
-0.838196
0
3DFACE
8
0
70
0
10
4.255005
20
3.705272
30
-0.855415
11
4.484301
21
3.855667
31
-1.054434
12
4.284666
22
3.781417
32
-1.250871
13
4.067057
23
3.633543
33
-1.042830
0
3DFACE
8
0
70
0
10
3.853166
20
3.483928
30
-0.838196
11
4.067057
21
3.633543
31
-1.042830
12
3.890733
22
3.705272
32
-1.246049
13
3.688931
23
3.554511
33
-1.032712
0
3DFACE
8
0
70
0
10
4.067057
20
3.633543
30
-1.042830
11
4.284666
21
3.781417
31
-1.250871
12
4.100070
22
3.855667
32
-1.466471
13
3.890733
23
3.705272
33
-1.246049
0
3DFACE
8
0
70
0
10
4.484301
20
3.855667
30
-1.054434
11
4.697456
21
3.931903
31
-1.254122
12
4.493481
22
3.859601
32
-1.448299
13
4.284666
23
3.781417
33
-1.250871
0
3DFACE
8
0
70
0
10
4.697456
20
3.931903
30
-1.254122
11
4.819091
21
3.981556
31
-1.423805
12
4.666861
22
3.955889
32
-1.613310
13
4.493481
23
3.859601
33
-1.448299
0
3DFACE
8
0
70
0
10
4.284666
20
3.781417
30
-1.250871
11
4.493481
21
3.859601
31
-1.448299
12
4.311509
22
3.931903
32
-1.667999
13
4.100070
23
3.855667
33
-1.466471
0
3DFACE
8
0
70
0
10
4.493481
20
3.859601
30
-1.448299
11
4.666861
21
3.955889
31
-1.613310
12
4.487550
22
3.981556
32
-1.779340
13
4.311509
23
3.931903
33
-1.667999
0
3DFACE
8
0
70
0
10
4.929073
20
3.570889
30
-1.364105
11
4.715330
21
3.523222
31
-1.621786
12
4.853838
22
3.917351
32
-1.761850
13
5.083279
23
3.915403
33
-1.381626
0
3DFACE
8
0
70
0
10
4.715330
20
3.523222
30
-1.621786
11
4.471947
21
3.570889
31
-1.854312
12
4.490599
22
3.915403
32
-2.017197
13
4.853838
23
3.917351
33
-1.761850
0
3DFACE
8
0
70
0
10
5.083279
20
3.915403
30
-1.381626
11
4.853838
21
3.917351
31
-1.761850
12
4.935990
22
4.324084
32
-1.853481
13
5.176742
23
4.310334
33
-1.431277
0
3DFACE
8
0
70
0
10
4.853838
20
3.917351
30
-1.761850
11
4.490599
21
3.915403
31
-2.017197
12
4.531988
22
4.310334
32
-2.122690
13
4.935990
23
4.324084
33
-1.853481
0
3DFACE
8
0
70
0
10
4.566113
20
3.446222
30
-0.948433
11
4.290249
21
3.310556
31
-1.219849
12
4.520439
22
3.367160
32
-1.435980
13
4.799220
23
3.499389
33
-1.167574
0
3DFACE
8
0
70
0
10
4.290249
20
3.310556
30
-1.219849
11
4.035210
21
3.446222
31
-1.517756
12
4.268696
22
3.499389
32
-1.736491
13
4.520439
23
3.367160
33
-1.435980
0
3DFACE
8
0
70
0
10
4.799220
20
3.499389
30
-1.167574
11
4.520439
21
3.367160
31
-1.435980
12
4.715330
22
3.523222
32
-1.621786
13
4.929073
23
3.570889
33
-1.364105
0
3DFACE
8
0
70
0
10
4.520439
20
3.367160
30
-1.435980
11
4.268696
21
3.499389
31
-1.736491
12
4.471947
22
3.570889
32
-1.854312
13
4.715330
23
3.523222
33
-1.621786
0
3DFACE
8
0
70
0
10
4.070376
20
3.305667
30
-0.515659
11
3.808036
21
3.198417
31
-0.767256
12
4.054377
22
3.238559
32
-0.998019
13
4.319614
23
3.361736
33
-0.735670
0
3DFACE
8
0
70
0
10
3.808036
20
3.198417
30
-0.767256
11
3.572564
21
3.305667
31
-1.049498
12
3.807967
22
3.361736
32
-1.284345
13
4.054377
23
3.238559
33
-0.998019
0
3DFACE
8
0
70
0
10
4.319614
20
3.361736
30
-0.735670
11
4.054377
21
3.238559
31
-0.998019
12
4.290249
22
3.310556
32
-1.219849
13
4.566113
23
3.446222
33
-0.948433
0
3DFACE
8
0
70
0
10
4.054377
20
3.238559
30
-0.998019
11
3.807967
21
3.361736
31
-1.284345
12
4.035210
22
3.446222
32
-1.517756
13
4.290249
23
3.310556
33
-1.219849
0
3DFACE
8
0
70
0
10
3.633291
20
3.417703
30
-0.183295
11
3.391403
21
3.396926
31
-0.383913
12
3.557966
22
3.256918
32
-0.535587
13
3.822526
23
3.338921
33
-0.292438
0
3DFACE
8
0
70
0
10
3.391403
20
3.396926
30
-0.383913
11
3.207607
21
3.417703
31
-0.639785
12
3.331733
22
3.338921
32
-0.818749
13
3.557966
23
3.256918
33
-0.535587
0
3DFACE
8
0
70
0
10
3.822526
20
3.338921
30
-0.292438
11
3.557966
21
3.256918
31
-0.535587
12
3.808036
22
3.198417
32
-0.767256
13
4.070376
23
3.305667
33
-0.515659
0
3DFACE
8
0
70
0
10
3.557966
20
3.256918
30
-0.535587
11
3.331733
21
3.338921
31
-0.818749
12
3.572564
22
3.305667
32
-1.049498
13
3.808036
23
3.198417
33
-0.767256
0
3DFACE
8
0
70
0
10
3.207607
20
3.417703
30
-0.639785
11
3.180745
21
3.598032
31
-0.722337
12
3.252022
22
3.573430
32
-1.001240
13
3.331733
23
3.338921
33
-0.818749
0
3DFACE
8
0
70
0
10
3.180745
20
3.598032
30
-0.722337
11
3.235436
21
3.794555
31
-0.801861
12
3.280516
22
3.811270
32
-1.088665
13
3.252022
23
3.573430
33
-1.001240
0
3DFACE
8
0
70
0
10
3.331733
20
3.338921
30
-0.818749
11
3.252022
21
3.573430
31
-1.001240
12
3.468405
22
3.591758
32
-1.241146
13
3.572564
23
3.305667
33
-1.049498
0
3DFACE
8
0
70
0
10
3.252022
20
3.573430
30
-1.001240
11
3.280516
21
3.811270
31
-1.088665
12
3.471324
22
3.878400
32
-1.322025
13
3.468405
23
3.591758
33
-1.241146
0
3DFACE
8
0
70
0
10
3.572564
20
3.305667
30
-1.049498
11
3.468405
21
3.591758
31
-1.241146
12
3.684724
22
3.690220
32
-1.475345
13
3.807967
23
3.361736
33
-1.284345
0
3DFACE
8
0
70
0
10
3.468405
20
3.591758
30
-1.241146
11
3.471324
21
3.878400
31
-1.322025
12
3.668860
22
4.018773
32
-1.550878
13
3.684724
23
3.690220
33
-1.475345
0
3DFACE
8
0
70
0
10
3.807967
20
3.361736
30
-1.284345
11
3.684724
21
3.690220
31
-1.475345
12
3.906303
22
3.808000
32
-1.720531
13
4.035210
23
3.446222
33
-1.517756
0
3DFACE
8
0
70
0
10
3.684724
20
3.690220
30
-1.475345
11
3.668860
21
4.018773
31
-1.550878
12
3.887016
22
4.169778
32
-1.802398
13
3.906303
23
3.808000
33
-1.720531
0
3DFACE
8
0
70
0
10
4.035210
20
3.446222
30
-1.517756
11
3.906303
21
3.808000
31
-1.720531
12
4.170289
22
3.879175
32
-1.954646
13
4.268696
23
3.499389
33
-1.736491
0
3DFACE
8
0
70
0
10
3.906303
20
3.808000
30
-1.720531
11
3.887016
21
4.169778
31
-1.802398
12
4.170198
22
4.265265
32
-2.056108
13
4.170289
23
3.879175
33
-1.954646
0
3DFACE
8
0
70
0
10
4.268696
20
3.499389
30
-1.736491
11
4.170289
21
3.879175
31
-1.954646
12
4.490599
22
3.915403
32
-2.017197
13
4.471947
23
3.570889
33
-1.854312
0
3DFACE
8
0
70
0
10
4.170289
20
3.879175
30
-1.954646
11
4.170198
21
4.265265
31
-2.056108
12
4.531988
22
4.310334
32
-2.122690
13
4.490599
23
3.915403
33
-2.017197
0
3DFACE
8
0
70
0
10
3.779914
20
3.817778
30
-0.365819
11
3.525612
21
3.810445
31
-0.539916
12
3.505015
22
3.867973
32
-0.514536
13
3.804132
23
3.876292
33
-0.301114
0
3DFACE
8
0
70
0
10
3.525612
20
3.810445
30
-0.539916
11
3.369440
21
3.817778
31
-0.805998
12
3.312730
22
3.876292
32
-0.828079
13
3.505015
23
3.867973
33
-0.514536
0
3DFACE
8
0
70
0
10
3.804132
20
3.876292
30
-0.301114
11
3.505015
21
3.867973
31
-0.514536
12
3.449758
22
3.791439
32
-0.452777
13
3.782950
23
3.794555
33
-0.214724
0
3DFACE
8
0
70
0
10
3.505015
20
3.867973
30
-0.514536
11
3.312730
21
3.876292
31
-0.828079
12
3.235436
22
3.794555
32
-0.801861
13
3.449758
23
3.791439
33
-0.452777
0
3DFACE
8
0
70
0
10
3.369440
20
3.817778
30
-0.805998
11
3.416112
21
3.846500
31
-1.035917
12
3.352493
22
3.907546
32
-1.088430
13
3.312730
23
3.876292
33
-0.828079
0
3DFACE
8
0
70
0
10
3.416112
20
3.846500
30
-1.035917
11
3.583407
21
3.930222
31
-1.238573
12
3.526243
22
3.993228
32
-1.305565
13
3.352493
23
3.907546
33
-1.088430
0
3DFACE
8
0
70
0
10
3.312730
20
3.876292
30
-0.828079
11
3.352493
21
3.907546
31
-1.088430
12
3.280516
22
3.811270
32
-1.088665
13
3.235436
23
3.794555
33
-0.801861
0
3DFACE
8
0
70
0
10
3.352493
20
3.907546
30
-1.088430
11
3.526243
21
3.993228
31
-1.305565
12
3.471324
22
3.878400
32
-1.322025
13
3.280516
23
3.811270
33
-1.088665
0
3DFACE
8
0
70
0
10
3.779914
20
3.817778
30
-0.365819
11
3.804132
21
3.876292
31
-0.301114
12
4.065687
22
3.907546
32
-0.323623
13
4.011592
23
3.846500
33
-0.397343
0
3DFACE
8
0
70
0
10
3.804132
20
3.876292
30
-0.301114
11
3.782950
21
3.794555
31
-0.214724
12
4.071723
22
3.811270
32
-0.240199
13
4.065687
23
3.907546
33
-0.323623
0
3DFACE
8
0
70
0
10
4.011592
20
3.846500
30
-0.397343
11
4.065687
21
3.907546
31
-0.323623
12
4.291827
22
3.993228
32
-0.484577
13
4.222667
23
3.930222
33
-0.553050
0
3DFACE
8
0
70
0
10
4.065687
20
3.907546
30
-0.323623
11
4.071723
21
3.811270
31
-0.240199
12
4.315959
22
3.878400
32
-0.416265
13
4.291827
23
3.993228
33
-0.484577
0
3DFACE
8
0
70
0
10
3.583407
20
3.930222
30
-1.238573
11
3.769676
21
4.087737
31
-1.451677
12
3.713768
22
4.150708
32
-1.525285
13
3.526243
23
3.993228
33
-1.305565
0
3DFACE
8
0
70
0
10
3.769676
20
4.087737
30
-1.451677
11
3.982502
21
4.251667
31
-1.691130
12
3.929516
22
4.315681
32
-1.773415
13
3.713768
23
4.150708
33
-1.525285
0
3DFACE
8
0
70
0
10
3.526243
20
3.993228
30
-1.305565
11
3.713768
21
4.150708
31
-1.525285
12
3.668860
22
4.018773
32
-1.550878
13
3.471324
23
3.878400
33
-1.322025
0
3DFACE
8
0
70
0
10
3.713768
20
4.150708
30
-1.525285
11
3.929516
21
4.315681
31
-1.773415
12
3.887016
22
4.169778
32
-1.802398
13
3.668860
23
4.018773
33
-1.550878
0
3DFACE
8
0
70
0
10
4.222667
20
3.930222
30
-0.553050
11
4.291827
21
3.993228
31
-0.484577
12
4.519326
22
4.150708
32
-0.661430
13
4.443038
23
4.087737
33
-0.729584
0
3DFACE
8
0
70
0
10
4.291827
20
3.993228
30
-0.484577
11
4.315959
21
3.878400
31
-0.416265
12
4.554160
22
4.018773
32
-0.601510
13
4.519326
23
4.150708
33
-0.661430
0
3DFACE
8
0
70
0
10
4.443038
20
4.087737
30
-0.729584
11
4.519326
21
4.150708
31
-0.661430
12
4.776903
22
4.315681
32
-0.864703
13
4.691334
23
4.251667
33
-0.931001
0
3DFACE
8
0
70
0
10
4.519326
20
4.150708
30
-0.661430
11
4.554160
21
4.018773
31
-0.601510
12
4.816122
22
4.169778
32
-0.806053
13
4.776903
23
4.315681
33
-0.864703
0
3DFACE
8
0
70
0
10
3.982502
20
4.251667
30
-1.691130
11
4.248888
21
4.352500
31
-1.933731
12
4.212389
22
4.421346
32
-2.029995
13
3.929516
23
4.315681
33
-1.773415
0
3DFACE
8
0
70
0
10
4.248888
20
4.352500
30
-1.933731
11
4.564304
21
4.398334
31
-2.021665
12
4.564441
22
4.472584
32
-2.111921
13
4.212389
23
4.421346
33
-2.029995
0
3DFACE
8
0
70
0
10
3.929516
20
4.315681
30
-1.773415
11
4.212389
21
4.421346
31
-2.029995
12
4.170198
22
4.265265
32
-2.056108
13
3.887016
23
4.169778
33
-1.802398
0
3DFACE
8
0
70
0
10
4.212389
20
4.421346
30
-2.029995
11
4.564441
21
4.472584
31
-2.111921
12
4.531988
22
4.310334
32
-2.122690
13
4.170198
23
4.265265
33
-2.056108
0
3DFACE
8
0
70
0
10
5.056814
20
4.398334
30
-1.493512
11
5.154124
21
4.472584
31
-1.479563
12
4.941849
22
4.488397
32
-1.873217
13
4.886864
23
4.412084
33
-1.829197
0
3DFACE
8
0
70
0
10
5.154124
20
4.472584
30
-1.479563
11
5.176742
21
4.310334
31
-1.431277
12
4.935990
22
4.324084
32
-1.853481
13
4.941849
23
4.488397
33
-1.873217
0
3DFACE
8
0
70
0
10
4.886864
20
4.412084
30
-1.829197
11
4.941849
21
4.488397
31
-1.873217
12
4.564441
22
4.472584
32
-2.111921
13
4.564304
23
4.398334
33
-2.021665
0
3DFACE
8
0
70
0
10
4.941849
20
4.488397
30
-1.873217
11
4.935990
21
4.324084
31
-1.853481
12
4.531988
22
4.310334
32
-2.122690
13
4.564441
23
4.472584
33
-2.111921
0
3DFACE
8
0
70
0
10
4.691334
20
4.251667
30
-0.931001
11
4.776903
21
4.315681
31
-0.864703
12
5.049390
22
4.421346
32
-1.132421
13
4.948598
23
4.352500
33
-1.183383
0
3DFACE
8
0
70
0
10
4.776903
20
4.315681
30
-0.864703
11
4.816122
21
4.169778
31
-0.806053
12
5.086331
22
4.265265
32
-1.073675
13
5.049390
23
4.421346
33
-1.132421
0
3DFACE
8
0
70
0
10
4.948598
20
4.352500
30
-1.183383
11
5.049390
21
4.421346
31
-1.132421
12
5.154124
22
4.472584
32
-1.479563
13
5.056814
23
4.398334
33
-1.493512
0
3DFACE
8
0
70
0
10
5.049390
20
4.421346
30
-1.132421
11
5.086331
21
4.265265
31
-1.073675
12
5.176742
22
4.310334
32
-1.431277
13
5.154124
23
4.472584
33
-1.479563
0
3DFACE
8
0
70
0
10
3.694367
20
3.495274
30
-0.411671
11
3.535689
21
3.471318
31
-0.541708
12
3.515319
22
3.638758
32
-0.527990
13
3.734103
23
3.646382
33
-0.382649
0
3DFACE
8
0
70
0
10
3.535689
20
3.471318
30
-0.541708
11
3.416211
21
3.495274
31
-0.709957
12
3.385333
22
3.646382
32
-0.756659
13
3.515319
23
3.638758
33
-0.527990
0
3DFACE
8
0
70
0
10
3.734103
20
3.646382
30
-0.382649
11
3.515319
21
3.638758
31
-0.527990
12
3.525612
22
3.810445
32
-0.539916
13
3.779914
23
3.817778
33
-0.365819
0
3DFACE
8
0
70
0
10
3.515319
20
3.638758
30
-0.527990
11
3.385333
21
3.646382
31
-0.756659
12
3.369440
22
3.817778
32
-0.805998
13
3.525612
23
3.810445
33
-0.539916
0
3DFACE
8
0
70
0
10
3.416211
20
3.495274
30
-0.709957
11
3.506904
21
3.485873
31
-0.844118
12
3.445643
22
3.665571
32
-0.961070
13
3.385333
23
3.646382
33
-0.756659
0
3DFACE
8
0
70
0
10
3.506904
20
3.485873
30
-0.844118
11
3.688931
21
3.554511
31
-1.032712
12
3.616660
22
3.742642
32
-1.158591
13
3.445643
23
3.665571
33
-0.961070
0
3DFACE
8
0
70
0
10
3.385333
20
3.646382
30
-0.756659
11
3.445643
21
3.665571
31
-0.961070
12
3.416112
22
3.846500
32
-1.035917
13
3.369440
23
3.817778
33
-0.805998
0
3DFACE
8
0
70
0
10
3.445643
20
3.665571
30
-0.961070
11
3.616660
21
3.742642
31
-1.158591
12
3.583407
22
3.930222
32
-1.238573
13
3.416112
23
3.846500
33
-1.035917
0
3DFACE
8
0
70
0
10
3.694367
20
3.495274
30
-0.411671
11
3.734103
21
3.646382
31
-0.382649
12
3.941566
22
3.665572
32
-0.429257
13
3.834853
23
3.485873
33
-0.492437
0
3DFACE
8
0
70
0
10
3.734103
20
3.646382
30
-0.382649
11
3.779914
21
3.817778
31
-0.365819
12
4.011592
22
3.846500
32
-0.397343
13
3.941566
23
3.665572
33
-0.429257
0
3DFACE
8
0
70
0
10
3.834853
20
3.485873
30
-0.492437
11
3.941566
21
3.665572
31
-0.429257
12
4.147892
22
3.742642
32
-0.588915
13
4.033315
23
3.554511
33
-0.663405
0
3DFACE
8
0
70
0
10
3.941566
20
3.665572
30
-0.429257
11
4.011592
21
3.846500
31
-0.397343
12
4.222667
22
3.930222
32
-0.553050
13
4.147892
23
3.742642
33
-0.588915
0
3DFACE
8
0
70
0
10
3.688931
20
3.554511
30
-1.032712
11
3.890733
21
3.705272
31
-1.246049
12
3.808334
22
3.896538
32
-1.372158
13
3.616660
23
3.742642
33
-1.158591
0
3DFACE
8
0
70
0
10
3.890733
20
3.705272
30
-1.246049
11
4.100070
21
3.855667
31
-1.466471
12
4.017407
22
4.053667
32
-1.602730
13
3.808334
23
3.896538
33
-1.372158
0
3DFACE
8
0
70
0
10
3.616660
20
3.742642
30
-1.158591
11
3.808334
21
3.896538
31
-1.372158
12
3.769676
22
4.087737
32
-1.451677
13
3.583407
23
3.930222
33
-1.238573
0
3DFACE
8
0
70
0
10
3.808334
20
3.896538
30
-1.372158
11
4.017407
21
4.053667
31
-1.602730
12
3.982502
22
4.251667
32
-1.691130
13
3.769676
23
4.087737
33
-1.451677
0
3DFACE
8
0
70
0
10
4.033315
20
3.554511
30
-0.663405
11
4.147892
21
3.742642
31
-0.588915
12
4.369026
22
3.896538
32
-0.770890
13
4.255005
23
3.705272
33
-0.855415
0
3DFACE
8
0
70
0
10
4.147892
20
3.742642
30
-0.588915
11
4.222667
21
3.930222
31
-0.553050
12
4.443038
22
4.087737
32
-0.729584
13
4.369026
23
3.896538
33
-0.770890
0
3DFACE
8
0
70
0
10
4.255005
20
3.705272
30
-0.855415
11
4.369026
21
3.896538
31
-0.770890
12
4.608226
22
4.053667
32
-0.969154
13
4.484301
23
3.855667
33
-1.054434
0
3DFACE
8
0
70
0
10
4.369026
20
3.896538
30
-0.770890
11
4.443038
21
4.087737
31
-0.729584
12
4.691334
22
4.251667
32
-0.931001
13
4.608226
23
4.053667
33
-0.969154
0
3DFACE
8
0
70
0
10
4.100070
20
3.855667
30
-1.466471
11
4.311509
21
3.931903
31
-1.667999
12
4.257557
22
4.140426
32
-1.821721
13
4.017407
23
4.053667
33
-1.602730
0
3DFACE
8
0
70
0
10
4.311509
20
3.931903
30
-1.667999
11
4.487550
21
3.981556
31
-1.779340
12
4.523413
22
4.175736
32
-1.904346
13
4.257557
23
4.140426
33
-1.821721
0
3DFACE
8
0
70
0
10
4.017407
20
4.053667
30
-1.602730
11
4.257557
21
4.140426
31
-1.821721
12
4.248888
22
4.352500
32
-1.933731
13
3.982502
23
4.251667
33
-1.691130
0
3DFACE
8
0
70
0
10
4.257557
20
4.140426
30
-1.821721
11
4.523413
21
4.175736
31
-1.904346
12
4.564304
22
4.398334
32
-2.021665
13
4.248888
23
4.352500
33
-1.933731
0
3DFACE
8
0
70
0
10
4.819091
20
3.981556
30
-1.423805
11
4.940219
21
4.175736
31
-1.457376
12
4.792243
22
4.180435
32
-1.737370
13
4.666861
23
3.955889
33
-1.613310
0
3DFACE
8
0
70
0
10
4.940219
20
4.175736
30
-1.457376
11
5.056814
21
4.398334
31
-1.493512
12
4.886864
22
4.412084
32
-1.829197
13
4.792243
23
4.180435
33
-1.737370
0
3DFACE
8
0
70
0
10
4.666861
20
3.955889
30
-1.613310
11
4.792243
21
4.180435
31
-1.737370
12
4.523413
22
4.175736
32
-1.904346
13
4.487550
23
3.981556
33
-1.779340
0
3DFACE
8
0
70
0
10
4.792243
20
4.180435
30
-1.737370
11
4.886864
21
4.412084
31
-1.829197
12
4.564304
22
4.398334
32
-2.021665
13
4.523413
23
4.175736
33
-1.904346
0
3DFACE
8
0
70
0
10
4.484301
20
3.855667
30
-1.054434
11
4.608226
21
4.053667
31
-0.969154
12
4.840460
22
4.140426
32
-1.196634
13
4.697456
23
3.931903
33
-1.254122
0
3DFACE
8
0
70
0
10
4.608226
20
4.053667
30
-0.969154
11
4.691334
21
4.251667
31
-0.931001
12
4.948598
22
4.352500
32
-1.183383
13
4.840460
23
4.140426
33
-1.196634
0
3DFACE
8
0
70
0
10
4.697456
20
3.931903
30
-1.254122
11
4.840460
21
4.140426
31
-1.196634
12
4.940219
22
4.175736
32
-1.457376
13
4.819091
23
3.981556
33
-1.423805
0
3DFACE
8
0
70
0
10
4.840460
20
4.140426
30
-1.196634
11
4.948598
21
4.352500
31
-1.183383
12
5.056814
22
4.398334
32
-1.493512
13
4.940219
23
4.175736
33
-1.457376
0
3DFACE
8
0
70
0
10
3.796120
20
2.994000
30
-1.149490
11
4.633861
21
2.994000
31
-1.880159
12
4.633861
22
3.091680
32
-1.880159
13
3.796120
23
3.038000
33
-1.149490
0
3DFACE
8
0
70
0
10
3.234587
20
3.187600
30
-0.625851
11
3.234587
21
3.143600
31
-0.625851
12
3.175695
22
3.143600
32
-0.689005
13
3.175695
23
3.187600
33
-0.689005
0
3DFACE
8
0
70
0
10
3.796120
20
3.038000
30
-1.149490
11
4.633861
21
3.091680
31
-1.880159
12
4.525500
22
3.091680
32
-1.996362
13
3.737228
23
3.038000
33
-1.212643
0
3DFACE
8
0
70
0
10
4.633861
20
2.994000
30
-1.880159
11
4.525500
21
2.994000
31
-1.996362
12
4.525500
22
3.091680
32
-1.996362
13
4.633861
23
3.091680
33
-1.880159
0
3DFACE
8
0
70
0
10
3.737228
20
2.994000
30
-1.212643
11
3.737228
21
3.038000
31
-1.212643
12
4.525500
22
3.091680
32
-1.996362
13
4.525500
23
2.994000
33
-1.996362
0
3DFACE
8
0
70
0
10
3.234587
20
3.143600
30
-0.625851
11
3.234587
21
3.187600
31
-0.625851
12
3.210371
22
3.182032
32
-0.603269
13
3.220896
23
3.140452
33
-0.613084
0
3DFACE
8
0
70
0
10
3.175695
20
3.143600
30
-0.689005
11
3.234587
21
3.143600
31
-0.625851
12
3.220896
22
3.140452
32
-0.613084
13
3.162004
23
3.140452
33
-0.676238
0
3DFACE
8
0
70
0
10
3.234587
20
3.187600
30
-0.625851
11
3.175695
21
3.187600
31
-0.689005
12
3.151479
22
3.182032
32
-0.666423
13
3.210371
23
3.182032
33
-0.603269
0
3DFACE
8
0
70
0
10
3.175695
20
3.187600
30
-0.689005
11
3.175695
21
3.143600
31
-0.689005
12
3.162004
22
3.140452
32
-0.676238
13
3.151479
23
3.182032
33
-0.666423
0
3DFACE
8
0
70
0
10
3.210371
20
3.182032
30
-0.603269
11
3.191639
21
3.168828
31
-0.585802
12
3.210305
22
3.132987
32
-0.603208
13
3.220896
23
3.140452
33
-0.613084
0
3DFACE
8
0
70
0
10
3.220896
20
3.140452
30
-0.613084
11
3.210305
21
3.132987
31
-0.603208
12
3.151413
22
3.132987
32
-0.666362
13
3.162004
23
3.140452
33
-0.676238
0
3DFACE
8
0
70
0
10
3.210371
20
3.182032
30
-0.603269
11
3.151479
21
3.182032
31
-0.666423
12
3.132748
22
3.168828
32
-0.648956
13
3.191639
23
3.168828
33
-0.585802
0
3DFACE
8
0
70
0
10
3.151479
20
3.182032
30
-0.666423
11
3.162004
21
3.140452
31
-0.676238
12
3.151413
22
3.132987
32
-0.666362
13
3.132748
23
3.168828
33
-0.648956
0
3DFACE
8
0
70
0
10
3.210305
20
3.132987
30
-0.603208
11
3.191639
21
3.168828
31
-0.585802
12
3.176387
22
3.148944
32
-0.571579
13
3.201682
23
3.121745
33
-0.595167
0
3DFACE
8
0
70
0
10
3.151413
20
3.132987
30
-0.666362
11
3.210305
21
3.132987
31
-0.603208
12
3.201682
22
3.121745
32
-0.595167
13
3.142791
23
3.121745
33
-0.658321
0
3DFACE
8
0
70
0
10
3.191639
20
3.168828
30
-0.585802
11
3.132748
21
3.168828
31
-0.648956
12
3.117496
22
3.148944
32
-0.634733
13
3.176387
23
3.148944
33
-0.571579
0
3DFACE
8
0
70
0
10
3.132748
20
3.168828
30
-0.648956
11
3.151413
21
3.132987
31
-0.666362
12
3.142791
22
3.121745
32
-0.658321
13
3.117496
23
3.148944
33
-0.634733
0
3DFACE
8
0
70
0
10
3.201682
20
3.121745
30
-0.595167
11
3.176387
21
3.148944
31
-0.571579
12
3.163546
22
3.114885
32
-0.559605
13
3.194422
23
3.102489
33
-0.588397
0
3DFACE
8
0
70
0
10
3.142791
20
3.121745
30
-0.658321
11
3.201682
21
3.121745
31
-0.595167
12
3.194422
22
3.102489
32
-0.588397
13
3.135530
23
3.102489
33
-0.651550
0
3DFACE
8
0
70
0
10
3.176387
20
3.148944
30
-0.571579
11
3.117496
21
3.148944
31
-0.634733
12
3.104654
22
3.114885
32
-0.622758
13
3.163546
23
3.114885
33
-0.559605
0
3DFACE
8
0
70
0
10
3.117496
20
3.148944
30
-0.634733
11
3.142791
21
3.121745
31
-0.658321
12
3.135530
22
3.102489
32
-0.651550
13
3.104654
23
3.114885
33
-0.622758
0
3DFACE
8
0
70
0
10
3.194422
20
3.102489
30
-0.588397
11
3.163546
21
3.114885
31
-0.559605
12
3.163546
22
3.057841
32
-0.559605
13
3.194422
23
3.070237
33
-0.588397
0
3DFACE
8
0
70
0
10
3.135530
20
3.102489
30
-0.651550
11
3.194422
21
3.102489
31
-0.588397
12
3.194422
22
3.070237
32
-0.588397
13
3.135530
23
3.070237
33
-0.651550
0
3DFACE
8
0
70
0
10
3.163546
20
3.114885
30
-0.559605
11
3.104654
21
3.114885
31
-0.622758
12
3.104654
22
3.057841
32
-0.622758
13
3.163546
23
3.057841
33
-0.559605
0
3DFACE
8
0
70
0
10
3.104654
20
3.114885
30
-0.622758
11
3.135530
21
3.102489
31
-0.651550
12
3.135530
22
3.070237
32
-0.651550
13
3.104654
23
3.057841
33
-0.622758
0
3DFACE
8
0
70
0
10
3.194422
20
3.070237
30
-0.588397
11
3.163546
21
3.057841
31
-0.559605
12
3.196923
22
2.994729
32
-0.590729
13
3.213656
23
3.038994
33
-0.606334
0
3DFACE
8
0
70
0
10
3.135530
20
3.070237
30
-0.651550
11
3.194422
21
3.070237
31
-0.588397
12
3.213656
22
3.038994
32
-0.606334
13
3.154765
23
3.038994
33
-0.669487
0
3DFACE
8
0
70
0
10
3.163546
20
3.057841
30
-0.559605
11
3.104654
21
3.057841
31
-0.622758
12
3.138031
22
2.994729
32
-0.653883
13
3.196923
23
2.994729
33
-0.590729
0
3DFACE
8
0
70
0
10
3.104654
20
3.057841
30
-0.622758
11
3.135530
21
3.070237
31
-0.651550
12
3.154765
22
3.038994
32
-0.669487
13
3.138031
23
2.994729
33
-0.653883
0
3DFACE
8
0
70
0
10
3.213656
20
3.038994
30
-0.606334
11
3.196923
21
2.994729
31
-0.590729
12
3.796120
22
2.994000
32
-1.149490
13
3.796120
23
3.038000
33
-1.149490
0
3DFACE
8
0
70
0
10
3.154765
20
3.038994
30
-0.669487
11
3.213656
21
3.038994
31
-0.606334
12
3.796120
22
3.038000
32
-1.149490
13
3.737228
23
3.038000
33
-1.212643
0
3DFACE
8
0
70
0
10
3.138031
20
2.994729
30
-0.653883
11
3.154765
21
3.038994
31
-0.669487
12
3.737228
22
3.038000
32
-1.212643
13
3.737228
23
2.994000
33
-1.212643
0
3DFACE
8
0
70
0
10
4.186223
20
2.994000
30
-0.731155
11
4.186223
21
3.038000
31
-0.731155
12
4.973551
22
3.091680
32
-1.515887
13
4.973551
23
2.994000
33
-1.515887
0
3DFACE
8
0
70
0
10
3.624690
20
3.187600
30
-0.207517
11
3.683581
21
3.187600
31
-0.144364
12
3.683581
22
3.143600
32
-0.144364
13
3.624690
23
3.143600
33
-0.207517
0
3DFACE
8
0
70
0
10
4.186223
20
3.038000
30
-0.731155
11
4.245114
21
3.038000
31
-0.668002
12
5.081911
22
3.091680
32
-1.399684
13
4.973551
23
3.091680
33
-1.515887
0
3DFACE
8
0
70
0
10
4.973551
20
2.994000
30
-1.515887
11
4.973551
21
3.091680
31
-1.515887
12
5.081911
22
3.091680
32
-1.399684
13
5.081911
23
2.994000
33
-1.399684
0
3DFACE
8
0
70
0
10
4.245114
20
2.994000
30
-0.668002
11
5.081911
21
2.994000
31
-1.399684
12
5.081911
22
3.091680
32
-1.399684
13
4.245114
23
3.038000
33
-0.668002
0
3DFACE
8
0
70
0
10
3.624690
20
3.143600
30
-0.207517
11
3.610999
21
3.140452
31
-0.194750
12
3.600474
22
3.182032
32
-0.184935
13
3.624690
23
3.187600
33
-0.207517
0
3DFACE
8
0
70
0
10
3.683581
20
3.143600
30
-0.144364
11
3.669890
21
3.140452
31
-0.131596
12
3.610999
22
3.140452
32
-0.194750
13
3.624690
23
3.143600
33
-0.207517
0
3DFACE
8
0
70
0
10
3.624690
20
3.187600
30
-0.207517
11
3.600474
21
3.182032
31
-0.184935
12
3.659365
22
3.182032
32
-0.121782
13
3.683581
23
3.187600
33
-0.144364
0
3DFACE
8
0
70
0
10
3.683581
20
3.187600
30
-0.144364
11
3.659365
21
3.182032
31
-0.121782
12
3.669890
22
3.140452
32
-0.131596
13
3.683581
23
3.143600
33
-0.144364
0
3DFACE
8
0
70
0
10
3.600474
20
3.182032
30
-0.184935
11
3.610999
21
3.140452
31
-0.194750
12
3.600408
22
3.132987
32
-0.184874
13
3.581742
23
3.168828
33
-0.167468
0
3DFACE
8
0
70
0
10
3.610999
20
3.140452
30
-0.194750
11
3.669890
21
3.140452
31
-0.131596
12
3.659300
22
3.132987
32
-0.121721
13
3.600408
23
3.132987
33
-0.184874
0
3DFACE
8
0
70
0
10
3.600474
20
3.182032
30
-0.184935
11
3.581742
21
3.168828
31
-0.167468
12
3.640634
22
3.168828
32
-0.104314
13
3.659365
23
3.182032
33
-0.121782
0
3DFACE
8
0
70
0
10
3.659365
20
3.182032
30
-0.121782
11
3.640634
21
3.168828
31
-0.104314
12
3.659300
22
3.132987
32
-0.121721
13
3.669890
23
3.140452
33
-0.131596
0
3DFACE
8
0
70
0
10
3.600408
20
3.132987
30
-0.184874
11
3.591785
21
3.121745
31
-0.176833
12
3.566490
22
3.148944
32
-0.153245
13
3.581742
23
3.168828
33
-0.167468
0
3DFACE
8
0
70
0
10
3.659300
20
3.132987
30
-0.121721
11
3.650677
21
3.121745
31
-0.113680
12
3.591785
22
3.121745
32
-0.176833
13
3.600408
23
3.132987
33
-0.184874
0
3DFACE
8
0
70
0
10
3.581742
20
3.168828
30
-0.167468
11
3.566490
21
3.148944
31
-0.153245
12
3.625382
22
3.148944
32
-0.090092
13
3.640634
23
3.168828
33
-0.104314
0
3DFACE
8
0
70
0
10
3.640634
20
3.168828
30
-0.104314
11
3.625382
21
3.148944
31
-0.090092
12
3.650677
22
3.121745
32
-0.113680
13
3.659300
23
3.132987
33
-0.121721
0
3DFACE
8
0
70
0
10
3.591785
20
3.121745
30
-0.176833
11
3.584525
21
3.102489
31
-0.170063
12
3.553649
22
3.114885
32
-0.141270
13
3.566490
23
3.148944
33
-0.153245
0
3DFACE
8
0
70
0
10
3.650677
20
3.121745
30
-0.113680
11
3.643416
21
3.102489
31
-0.106909
12
3.584525
22
3.102489
32
-0.170063
13
3.591785
23
3.121745
33
-0.176833
0
3DFACE
8
0
70
0
10
3.566490
20
3.148944
30
-0.153245
11
3.553649
21
3.114885
31
-0.141270
12
3.612540
22
3.114885
32
-0.078117
13
3.625382
23
3.148944
33
-0.090092
0
3DFACE
8
0
70
0
10
3.625382
20
3.148944
30
-0.090092
11
3.612540
21
3.114885
31
-0.078117
12
3.643416
22
3.102489
32
-0.106909
13
3.650677
23
3.121745
33
-0.113680
0
3DFACE
8
0
70
0
10
3.584525
20
3.102489
30
-0.170063
11
3.584525
21
3.070237
31
-0.170063
12
3.553649
22
3.057841
32
-0.141270
13
3.553649
23
3.114885
33
-0.141270
0
3DFACE
8
0
70
0
10
3.643416
20
3.102489
30
-0.106909
11
3.643416
21
3.070237
31
-0.106909
12
3.584525
22
3.070237
32
-0.170063
13
3.584525
23
3.102489
33
-0.170063
0
3DFACE
8
0
70
0
10
3.553649
20
3.114885
30
-0.141270
11
3.553649
21
3.057841
31
-0.141270
12
3.612540
22
3.057841
32
-0.078117
13
3.612540
23
3.114885
33
-0.078117
0
3DFACE
8
0
70
0
10
3.612540
20
3.114885
30
-0.078117
11
3.612540
21
3.057841
31
-0.078117
12
3.643416
22
3.070237
32
-0.106909
13
3.643416
23
3.102489
33
-0.106909
0
3DFACE
8
0
70
0
10
3.584525
20
3.070237
30
-0.170063
11
3.603760
21
3.038994
31
-0.187999
12
3.587026
22
2.994729
32
-0.172395
13
3.553649
23
3.057841
33
-0.141270
0
3DFACE
8
0
70
0
10
3.643416
20
3.070237
30
-0.106909
11
3.662651
21
3.038994
31
-0.124846
12
3.603760
22
3.038994
32
-0.187999
13
3.584525
23
3.070237
33
-0.170063
0
3DFACE
8
0
70
0
10
3.553649
20
3.057841
30
-0.141270
11
3.587026
21
2.994729
31
-0.172395
12
3.645918
22
2.994729
32
-0.109242
13
3.612540
23
3.057841
33
-0.078117
0
3DFACE
8
0
70
0
10
3.612540
20
3.057841
30
-0.078117
11
3.645918
21
2.994729
31
-0.109242
12
3.662651
22
3.038994
32
-0.124846
13
3.643416
23
3.070237
33
-0.106909
0
3DFACE
8
0
70
0
10
3.603760
20
3.038994
30
-0.187999
11
4.186223
21
3.038000
31
-0.731155
12
4.186223
22
2.994000
32
-0.731155
13
3.587026
23
2.994729
33
-0.172395
0
3DFACE
8
0
70
0
10
3.662651
20
3.038994
30
-0.124846
11
4.245114
21
3.038000
31
-0.668002
12
4.186223
22
3.038000
32
-0.731155
13
3.603760
23
3.038994
33
-0.187999
0
3DFACE
8
0
70
0
10
3.645918
20
2.994729
30
-0.109242
11
4.245114
21
2.994000
31
-0.668002
12
4.245114
22
3.038000
32
-0.668002
13
3.662651
23
3.038994
33
-0.124846
0
3DFACE
8
0
70
0
10
3.858108
20
2.994000
30
-0.423378
11
3.858108
21
3.060000
31
-0.423378
12
3.752180
22
3.324000
32
-0.536972
13
3.752180
23
3.258000
33
-0.536972
0
3DFACE
8
0
70
0
10
3.752180
20
3.258000
30
-0.536972
11
3.752180
21
3.324000
31
-0.536972
12
3.572133
22
3.324000
32
-0.730050
13
3.572133
23
3.258000
33
-0.730050
0
3DFACE
8
0
70
0
10
3.572133
20
3.258000
30
-0.730050
11
3.572133
21
3.324000
31
-0.730050
12
3.466205
22
3.060000
32
-0.843643
13
3.466205
23
2.994000
33
-0.843643
0
3DFACE
8
0
70
0
10
3.858108
20
2.994000
30
-0.423378
11
3.752180
21
3.258000
31
-0.536972
12
3.815714
22
3.258000
32
-0.596219
13
3.921642
23
2.994000
33
-0.482625
0
3DFACE
8
0
70
0
10
3.752180
20
3.258000
30
-0.536972
11
3.572133
21
3.258000
31
-0.730050
12
3.635666
22
3.258000
32
-0.789296
13
3.815714
23
3.258000
33
-0.596219
0
3DFACE
8
0
70
0
10
3.572133
20
3.258000
30
-0.730050
11
3.466205
21
2.994000
31
-0.843643
12
3.529738
22
2.994000
32
-0.902890
13
3.635666
23
3.258000
33
-0.789296
0
3DFACE
8
0
70
0
10
3.466205
20
2.994000
30
-0.843643
11
3.466205
21
3.060000
31
-0.843643
12
3.529738
22
3.060000
32
-0.902890
13
3.529738
23
2.994000
33
-0.902890
0
3DFACE
8
0
70
0
10
3.572133
20
3.324000
30
-0.730050
11
3.635666
21
3.324000
31
-0.789296
12
3.529738
22
3.060000
32
-0.902890
13
3.466205
23
3.060000
33
-0.843643
0
3DFACE
8
0
70
0
10
3.752180
20
3.324000
30
-0.536972
11
3.815714
21
3.324000
31
-0.596219
12
3.635666
22
3.324000
32
-0.789296
13
3.572133
23
3.324000
33
-0.730050
0
3DFACE
8
0
70
0
10
3.858108
20
3.060000
30
-0.423378
11
3.921642
21
3.060000
31
-0.482625
12
3.815714
22
3.324000
32
-0.596219
13
3.752180
23
3.324000
33
-0.536972
0
3DFACE
8
0
70
0
10
3.858108
20
2.994000
30
-0.423378
11
3.921642
21
2.994000
31
-0.482625
12
3.921642
22
3.060000
32
-0.482625
13
3.858108
23
3.060000
33
-0.423378
0
3DFACE
8
0
70
0
10
3.921642
20
2.994000
30
-0.482625
11
3.815714
21
3.258000
31
-0.596219
12
3.815714
22
3.324000
32
-0.596219
13
3.921642
23
3.060000
33
-0.482625
0
3DFACE
8
0
70
0
10
3.815714
20
3.258000
30
-0.596219
11
3.635666
21
3.258000
31
-0.789296
12
3.635666
22
3.324000
32
-0.789296
13
3.815714
23
3.324000
33
-0.596219
0
3DFACE
8
0
70
0
10
3.635666
20
3.258000
30
-0.789296
11
3.529738
21
2.994000
31
-0.902890
12
3.529738
22
3.060000
32
-0.902890
13
3.635666
23
3.324000
33
-0.789296
0
3DFACE
8
0
70
0
10
4.372981
20
2.994000
30
-0.903505
11
4.372981
21
3.060000
31
-0.903505
12
4.267053
22
3.324000
32
-1.017099
13
4.267053
23
3.258000
33
-1.017099
0
3DFACE
8
0
70
0
10
4.267053
20
3.258000
30
-1.017099
11
4.267053
21
3.324000
31
-1.017099
12
4.087006
22
3.324000
32
-1.210176
13
4.087006
23
3.258000
33
-1.210176
0
3DFACE
8
0
70
0
10
4.087006
20
3.258000
30
-1.210176
11
4.087006
21
3.324000
31
-1.210176
12
3.981078
22
3.060000
32
-1.323770
13
3.981078
23
2.994000
33
-1.323770
0
3DFACE
8
0
70
0
10
4.372981
20
2.994000
30
-0.903505
11
4.267053
21
3.258000
31
-1.017099
12
4.330587
22
3.258000
32
-1.076345
13
4.436515
23
2.994000
33
-0.962752
0
3DFACE
8
0
70
0
10
4.267053
20
3.258000
30
-1.017099
11
4.087006
21
3.258000
31
-1.210176
12
4.150539
22
3.258000
32
-1.269423
13
4.330587
23
3.258000
33
-1.076345
0
3DFACE
8
0
70
0
10
4.087006
20
3.258000
30
-1.210176
11
3.981078
21
2.994000
31
-1.323770
12
4.044611
22
2.994000
32
-1.383017
13
4.150539
23
3.258000
33
-1.269423
0
3DFACE
8
0
70
0
10
3.981078
20
2.994000
30
-1.323770
11
3.981078
21
3.060000
31
-1.323770
12
4.044611
22
3.060000
32
-1.383017
13
4.044611
23
2.994000
33
-1.383017
0
3DFACE
8
0
70
0
10
4.087006
20
3.324000
30
-1.210176
11
4.150539
21
3.324000
31
-1.269423
12
4.044611
22
3.060000
32
-1.383017
13
3.981078
23
3.060000
33
-1.323770
0
3DFACE
8
0
70
0
10
4.267053
20
3.324000
30
-1.017099
11
4.330587
21
3.324000
31
-1.076345
12
4.150539
22
3.324000
32
-1.269423
13
4.087006
23
3.324000
33
-1.210176
0
3DFACE
8
0
70
0
10
4.372981
20
3.060000
30
-0.903505
11
4.436515
21
3.060000
31
-0.962752
12
4.330587
22
3.324000
32
-1.076345
13
4.267053
23
3.324000
33
-1.017099
0
3DFACE
8
0
70
0
10
4.372981
20
2.994000
30
-0.903505
11
4.436515
21
2.994000
31
-0.962752
12
4.436515
22
3.060000
32
-0.962752
13
4.372981
23
3.060000
33
-0.903505
0
3DFACE
8
0
70
0
10
4.436515
20
2.994000
30
-0.962752
11
4.330587
21
3.258000
31
-1.076345
12
4.330587
22
3.324000
32
-1.076345
13
4.436515
23
3.060000
33
-0.962752
0
3DFACE
8
0
70
0
10
4.330587
20
3.258000
30
-1.076345
11
4.150539
21
3.258000
31
-1.269423
12
4.150539
22
3.324000
32
-1.269423
13
4.330587
23
3.324000
33
-1.076345
0
3DFACE
8
0
70
0
10
4.150539
20
3.258000
30
-1.269423
11
4.044611
21
2.994000
31
-1.383017
12
4.044611
22
3.060000
32
-1.383017
13
4.150539
23
3.324000
33
-1.269423
0
ENDSEC
0
EOF
