0
SECTION
2
HEADER
999
DXF File Generated by LightWave 3D(TM)
0
ENDSEC
0
SECTION
2
TABLES
0
ENDSEC
0
SECTION
2
BLOCKS
0
ENDSEC
0
SECTION
2
ENTITIES
0
3DFACE
8
0
70
0
10
-715.537292
20
-1072.125122
30
594.200012
11
-333.783569
21
-1059.801880
31
594.200012
12
-391.138733
22
-509.708374
32
652.615784
13
-826.004395
23
-525.523865
33
652.615784
0
3DFACE
8
0
70
0
10
-333.783569
20
-1059.801880
30
594.200012
11
48.157192
21
-1056.795532
31
594.200012
12
43.994759
22
-505.573730
32
652.615784
13
-391.138733
23
-509.708374
33
652.615784
0
3DFACE
8
0
70
0
10
48.157192
20
-1056.795532
30
594.200012
11
430.057617
21
-1063.107788
31
594.200012
12
479.082397
22
-513.123047
32
652.615784
13
43.994759
23
-505.573730
33
652.615784
0
3DFACE
8
0
70
0
10
430.057617
20
-1063.107788
30
594.200012
11
811.690430
21
-1078.734863
31
594.200012
12
913.810486
22
-532.350830
32
652.615784
13
479.082397
23
-513.123047
33
652.615784
0
3DFACE
8
0
70
0
10
-826.004395
20
-525.523865
30
652.615784
11
-391.138733
21
-509.708374
31
652.615784
12
-451.639709
22
40.180847
32
711.031494
13
-942.295288
23
20.329662
33
711.031494
0
3DFACE
8
0
70
0
10
-391.138733
20
-509.708374
30
652.615784
11
43.994759
21
-505.573730
31
652.615784
12
39.386906
22
45.647293
32
711.031494
13
-451.639709
23
40.180847
33
711.031494
0
3DFACE
8
0
70
0
10
43.994759
20
-505.573730
30
652.615784
11
479.082397
21
-513.123047
31
652.615784
12
530.362854
22
36.724319
32
711.031494
13
39.386906
23
45.647293
33
711.031494
0
3DFACE
8
0
70
0
10
479.082397
20
-513.123047
30
652.615784
11
913.810486
21
-532.350830
31
652.615784
12
1020.866577
22
13.419579
32
711.031494
13
530.362854
23
36.724319
33
711.031494
0
3DFACE
8
0
70
0
10
-942.295288
20
20.329662
30
711.031494
11
-451.639709
21
40.180847
31
711.031494
12
-471.664276
22
216.099930
32
729.724548
13
-980.737610
23
194.837234
33
729.724548
0
3DFACE
8
0
70
0
10
-451.639709
20
40.180847
30
711.031494
11
39.386906
21
45.647293
31
711.031494
12
37.818333
22
222.037735
32
729.724548
13
-471.664276
23
216.099930
33
729.724548
0
3DFACE
8
0
70
0
10
39.386906
20
45.647293
30
711.031494
11
530.362854
21
36.724319
31
711.031494
12
547.248962
22
212.645218
32
729.724548
13
37.818333
23
222.037735
33
729.724548
0
3DFACE
8
0
70
0
10
530.362854
20
36.724319
30
711.031494
11
1020.866577
21
13.419579
31
711.031494
12
1056.166504
22
187.930939
32
729.724548
13
547.248962
23
212.645218
33
729.724548
0
3DFACE
8
0
70
0
10
-715.537292
20
-1072.125122
30
594.200012
11
-826.004395
21
-525.523865
31
652.615784
12
-826.004395
22
-525.523865
32
220.248901
13
-715.537292
23
-1072.125122
33
201.333328
0
3DFACE
8
0
70
0
10
-826.004395
20
-525.523865
30
652.615784
11
-942.295288
21
20.329662
31
711.031494
12
-942.295288
22
20.329662
32
239.164490
13
-826.004395
23
-525.523865
33
220.248901
0
3DFACE
8
0
70
0
10
-942.295288
20
20.329662
30
711.031494
11
-980.737610
21
194.837234
31
729.724548
12
-1059.409302
22
543.602417
32
257.323456
13
-942.295288
23
20.329662
33
239.164490
0
3DFACE
8
0
70
0
10
-995.307068
20
260.256317
30
736.734436
11
-479.256531
21
282.063782
31
736.734436
12
-520.513245
22
633.815857
32
259.593292
13
-1074.425293
23
608.958069
33
259.593292
0
3DFACE
8
0
70
0
10
-479.256531
20
282.063782
30
736.734436
11
37.218353
21
288.184143
31
736.734436
12
33.910156
22
640.964600
32
259.593292
13
-520.513245
23
633.815857
33
259.593292
0
3DFACE
8
0
70
0
10
37.218353
20
288.184143
30
736.734436
11
553.640747
21
278.611755
31
736.734436
12
588.278992
22
630.396851
32
259.593292
13
33.910156
23
640.964600
33
259.593292
0
3DFACE
8
0
70
0
10
553.640747
20
278.611755
30
736.734436
11
1069.534180
21
253.355438
31
736.734436
12
1142.027222
22
602.123596
32
259.593292
13
588.278992
23
630.396851
33
259.593292
0
3DFACE
8
0
70
0
10
1020.866577
20
13.419579
30
711.031494
11
1020.866577
21
13.419579
31
239.164490
12
1128.280762
22
536.750610
32
257.323456
13
1056.166504
23
187.930939
33
729.724548
0
3DFACE
8
0
70
0
10
913.810486
20
-532.350830
30
652.615784
11
913.810486
21
-532.350830
31
220.248901
12
1020.866577
22
13.419579
32
239.164490
13
1020.866577
23
13.419579
33
711.031494
0
3DFACE
8
0
70
0
10
811.690430
20
-1078.734863
30
594.200012
11
811.690430
21
-1078.734863
31
201.333328
12
913.810486
22
-532.350830
32
220.248901
13
913.810486
23
-532.350830
33
652.615784
0
3DFACE
8
0
70
0
10
430.057617
20
-1063.107788
30
594.200012
11
430.057617
21
-1063.107788
31
201.333328
12
811.690430
22
-1078.734863
32
201.333328
13
811.690430
23
-1078.734863
33
594.200012
0
3DFACE
8
0
70
0
10
48.157192
20
-1056.795532
30
594.200012
11
48.157192
21
-1056.795532
31
201.333328
12
430.057617
22
-1063.107788
32
201.333328
13
430.057617
23
-1063.107788
33
594.200012
0
3DFACE
8
0
70
0
10
-333.783569
20
-1059.801880
30
594.200012
11
-333.783569
21
-1059.801880
31
201.333328
12
48.157192
22
-1056.795532
32
201.333328
13
48.157192
23
-1056.795532
33
594.200012
0
3DFACE
8
0
70
0
10
-715.537292
20
-1072.125122
30
594.200012
11
-715.537292
21
-1072.125122
31
201.333328
12
-333.783569
22
-1059.801880
32
201.333328
13
-333.783569
23
-1059.801880
33
594.200012
0
3DFACE
8
0
70
0
10
-895.056702
20
-1081.146118
30
201.333328
11
-1030.464966
21
-537.005432
31
220.248901
12
-1030.464966
22
-537.005432
32
-212.117981
13
-895.056702
23
-1081.146118
33
-191.533356
0
3DFACE
8
0
70
0
10
-1030.464966
20
-537.005432
30
220.248901
11
-1172.943604
21
6.014904
31
239.164490
12
-1172.943604
22
6.014904
32
-232.702576
13
-1030.464966
23
-537.005432
33
-212.117981
0
3DFACE
8
0
70
0
10
-1172.943604
20
6.014904
30
239.164490
11
-1316.366699
21
526.196411
31
257.323456
12
-1316.366699
22
526.196411
32
-252.463776
13
-1172.943604
23
6.014904
33
-232.702576
0
3DFACE
8
0
70
0
10
-1074.425293
20
608.958069
30
259.593292
11
-520.513245
21
633.815857
31
259.593292
12
-520.513245
22
633.815857
32
-254.933945
13
-1074.425293
23
608.958069
33
-254.933945
0
3DFACE
8
0
70
0
10
-520.513245
20
633.815857
30
259.593292
11
33.910156
21
640.964600
31
259.593292
12
33.910156
22
640.964600
32
-254.933945
13
-520.513245
23
633.815857
33
-254.933945
0
3DFACE
8
0
70
0
10
33.910156
20
640.964600
30
259.593292
11
588.278992
21
630.396851
31
259.593292
12
588.278992
22
630.396851
32
-254.933945
13
33.910156
23
640.964600
33
-254.933945
0
3DFACE
8
0
70
0
10
588.278992
20
630.396851
30
259.593292
11
1142.027222
21
602.123596
31
259.593292
12
1142.027222
22
602.123596
32
-254.933945
13
588.278992
23
630.396851
33
-254.933945
0
3DFACE
8
0
70
0
10
1020.866577
20
13.419579
30
239.164490
11
1020.866577
21
13.419579
31
-232.702576
12
1128.280762
22
536.750610
32
-252.463776
13
1128.280762
23
536.750610
33
257.323456
0
3DFACE
8
0
70
0
10
913.810486
20
-532.350830
30
220.248901
11
913.810486
21
-532.350830
31
-212.117981
12
1020.866577
22
13.419579
32
-232.702576
13
1020.866577
23
13.419579
33
239.164490
0
3DFACE
8
0
70
0
10
811.690430
20
-1078.734863
30
201.333328
11
811.690430
21
-1078.734863
31
-191.533356
12
913.810486
22
-532.350830
32
-212.117981
13
913.810486
23
-532.350830
33
220.248901
0
3DFACE
8
0
70
0
10
430.057617
20
-1063.107788
30
201.333328
11
430.057617
21
-1063.107788
31
-191.533356
12
811.690430
22
-1078.734863
32
-191.533356
13
811.690430
23
-1078.734863
33
201.333328
0
3DFACE
8
0
70
0
10
48.157192
20
-1056.795532
30
201.333328
11
48.157192
21
-1056.795532
31
-191.533356
12
430.057617
22
-1063.107788
32
-191.533356
13
430.057617
23
-1063.107788
33
201.333328
0
3DFACE
8
0
70
0
10
-333.783569
20
-1059.801880
30
201.333328
11
-333.783569
21
-1059.801880
31
-191.533356
12
48.157192
22
-1056.795532
32
-191.533356
13
48.157192
23
-1056.795532
33
201.333328
0
3DFACE
8
0
70
0
10
-715.537292
20
-1072.125122
30
201.333328
11
-715.537292
21
-1072.125122
31
-191.533356
12
-333.783569
22
-1059.801880
32
-191.533356
13
-333.783569
23
-1059.801880
33
201.333328
0
3DFACE
8
0
70
0
10
-715.537292
20
-1072.125122
30
-191.533356
11
-826.004395
21
-525.523865
31
-212.117981
12
-826.004395
22
-525.523865
32
-644.484802
13
-715.537292
23
-1072.125122
33
-584.400024
0
3DFACE
8
0
70
0
10
-826.004395
20
-525.523865
30
-212.117981
11
-942.295288
21
20.329662
31
-232.702576
12
-942.295288
22
20.329662
32
-704.569580
13
-826.004395
23
-525.523865
33
-644.484802
0
3DFACE
8
0
70
0
10
-942.295288
20
20.329662
30
-232.702576
11
-1059.409302
21
543.602417
31
-252.463776
12
-980.737610
22
194.837234
32
-723.796692
13
-942.295288
23
20.329662
33
-704.569580
0
3DFACE
8
0
70
0
10
-1074.425293
20
608.958069
30
-254.933945
11
-520.513245
21
633.815857
31
-254.933945
12
-479.256531
22
282.063782
32
-731.006836
13
-995.307068
23
260.256317
33
-731.006836
0
3DFACE
8
0
70
0
10
-520.513245
20
633.815857
30
-254.933945
11
33.910156
21
640.964600
31
-254.933945
12
37.218353
22
288.184143
32
-731.006836
13
-479.256531
23
282.063782
33
-731.006836
0
3DFACE
8
0
70
0
10
33.910156
20
640.964600
30
-254.933945
11
588.278992
21
630.396851
31
-254.933945
12
553.640747
22
278.611755
32
-731.006836
13
37.218353
23
288.184143
33
-731.006836
0
3DFACE
8
0
70
0
10
588.278992
20
630.396851
30
-254.933945
11
1142.027222
21
602.123596
31
-254.933945
12
1069.534180
22
253.355438
32
-731.006836
13
553.640747
23
278.611755
33
-731.006836
0
3DFACE
8
0
70
0
10
1020.866577
20
13.419579
30
-232.702576
11
1020.866577
21
13.419579
31
-704.569580
12
1056.166504
22
187.930939
32
-723.796692
13
1128.280762
23
536.750610
33
-252.463776
0
3DFACE
8
0
70
0
10
913.810486
20
-532.350830
30
-212.117981
11
913.810486
21
-532.350830
31
-644.484802
12
1020.866577
22
13.419579
32
-704.569580
13
1020.866577
23
13.419579
33
-232.702576
0
3DFACE
8
0
70
0
10
811.690430
20
-1078.734863
30
-191.533356
11
811.690430
21
-1078.734863
31
-584.400024
12
913.810486
22
-532.350830
32
-644.484802
13
913.810486
23
-532.350830
33
-212.117981
0
3DFACE
8
0
70
0
10
430.057617
20
-1063.107788
30
-191.533356
11
430.057617
21
-1063.107788
31
-584.400024
12
811.690430
22
-1078.734863
32
-584.400024
13
811.690430
23
-1078.734863
33
-191.533356
0
3DFACE
8
0
70
0
10
48.157192
20
-1056.795532
30
-191.533356
11
48.157192
21
-1056.795532
31
-584.400024
12
430.057617
22
-1063.107788
32
-584.400024
13
430.057617
23
-1063.107788
33
-191.533356
0
3DFACE
8
0
70
0
10
-333.783569
20
-1059.801880
30
-191.533356
11
-333.783569
21
-1059.801880
31
-584.400024
12
48.157192
22
-1056.795532
32
-584.400024
13
48.157192
23
-1056.795532
33
-191.533356
0
3DFACE
8
0
70
0
10
-715.537292
20
-1072.125122
30
-191.533356
11
-715.537292
21
-1072.125122
31
-584.400024
12
-333.783569
22
-1059.801880
32
-584.400024
13
-333.783569
23
-1059.801880
33
-191.533356
0
3DFACE
8
0
70
0
10
-715.537292
20
-1072.125122
30
-584.400024
11
-826.004395
21
-525.523865
31
-644.484802
12
-391.138733
22
-509.708374
32
-644.484802
13
-333.783569
23
-1059.801880
33
-584.400024
0
3DFACE
8
0
70
0
10
-333.783569
20
-1059.801880
30
-584.400024
11
-391.138733
21
-509.708374
31
-644.484802
12
43.994759
22
-505.573730
32
-644.484802
13
48.157192
23
-1056.795532
33
-584.400024
0
3DFACE
8
0
70
0
10
48.157192
20
-1056.795532
30
-584.400024
11
43.994759
21
-505.573730
31
-644.484802
12
479.082397
22
-513.123047
32
-644.484802
13
430.057617
23
-1063.107788
33
-584.400024
0
3DFACE
8
0
70
0
10
430.057617
20
-1063.107788
30
-584.400024
11
479.082397
21
-513.123047
31
-644.484802
12
913.810486
22
-532.350830
32
-644.484802
13
811.690430
23
-1078.734863
33
-584.400024
0
3DFACE
8
0
70
0
10
-826.004395
20
-525.523865
30
-644.484802
11
-942.295288
21
20.329662
31
-704.569580
12
-451.639709
22
40.180847
32
-704.569580
13
-391.138733
23
-509.708374
33
-644.484802
0
3DFACE
8
0
70
0
10
-391.138733
20
-509.708374
30
-644.484802
11
-451.639709
21
40.180847
31
-704.569580
12
39.386906
22
45.647293
32
-704.569580
13
43.994759
23
-505.573730
33
-644.484802
0
3DFACE
8
0
70
0
10
43.994759
20
-505.573730
30
-644.484802
11
39.386906
21
45.647293
31
-704.569580
12
530.362854
22
36.724319
32
-704.569580
13
479.082397
23
-513.123047
33
-644.484802
0
3DFACE
8
0
70
0
10
479.082397
20
-513.123047
30
-644.484802
11
530.362854
21
36.724319
31
-704.569580
12
1020.866577
22
13.419579
32
-704.569580
13
913.810486
23
-532.350830
33
-644.484802
0
3DFACE
8
0
70
0
10
-942.295288
20
20.329662
30
-704.569580
11
-980.737610
21
194.837234
31
-723.796692
12
-471.664276
22
216.099930
32
-723.796692
13
-451.639709
23
40.180847
33
-704.569580
0
3DFACE
8
0
70
0
10
-451.639709
20
40.180847
30
-704.569580
11
-471.664276
21
216.099930
31
-723.796692
12
37.818333
22
222.037735
32
-723.796692
13
39.386906
23
45.647293
33
-704.569580
0
3DFACE
8
0
70
0
10
39.386906
20
45.647293
30
-704.569580
11
37.818333
21
222.037735
31
-723.796692
12
547.248962
22
212.645218
32
-723.796692
13
530.362854
23
36.724319
33
-704.569580
0
3DFACE
8
0
70
0
10
530.362854
20
36.724319
30
-704.569580
11
547.248962
21
212.645218
31
-723.796692
12
1056.166504
22
187.930939
32
-723.796692
13
1020.866577
23
13.419579
33
-704.569580
0
3DFACE
8
0
70
0
10
-1057.909790
20
256.541565
30
736.734436
11
-1141.614624
21
604.735474
31
259.593292
12
-1125.728516
22
539.478149
32
257.323456
13
-1042.495117
23
191.213226
33
729.724548
0
3DFACE
8
0
70
0
10
-471.664276
20
216.099930
30
791.140930
11
-980.737610
21
194.837234
31
791.140930
12
-966.251953
22
129.406525
32
783.530212
13
-464.117310
23
150.132919
33
783.530212
0
3DFACE
8
0
70
0
10
37.818333
20
222.037735
30
791.140930
11
-471.664276
21
216.099930
31
791.140930
12
-464.117310
22
150.132919
32
783.530212
13
38.411896
23
155.891327
33
783.530212
0
3DFACE
8
0
70
0
10
37.818333
20
222.037735
30
791.140930
11
38.411896
21
155.891327
31
783.530212
12
540.889648
22
146.676636
32
783.530212
13
547.248962
23
212.645218
33
791.140930
0
3DFACE
8
0
70
0
10
1130.655518
20
249.321030
30
736.734436
11
1116.462402
21
183.984802
31
729.724548
12
1193.031738
22
532.319458
32
257.323456
13
1207.627441
23
597.597534
33
259.593292
0
3DFACE
8
0
70
0
10
547.248962
20
212.645218
30
791.140930
11
540.889648
21
146.676636
31
783.530212
12
1042.869873
22
122.497017
32
783.530212
13
1056.166504
23
187.930939
33
791.140930
0
3DFACE
8
0
70
0
10
-1141.614624
20
604.735474
30
259.593292
11
-1141.614624
21
604.735474
31
-254.933945
12
-1125.728516
22
539.478149
32
-252.463776
13
-1125.728516
23
539.478149
33
257.323456
0
3DFACE
8
0
70
0
10
1207.627441
20
597.597534
30
259.593292
11
1193.031738
21
532.319458
31
257.323456
12
1193.031738
22
532.319458
32
-252.463776
13
1207.627441
23
597.597534
33
-254.933945
0
3DFACE
8
0
70
0
10
-1057.909790
20
256.541565
30
-731.006836
11
-1042.495117
21
191.213226
31
-723.796692
12
-1125.728516
22
539.478149
32
-252.463776
13
-1141.614624
23
604.735474
33
-254.933945
0
3DFACE
8
0
70
0
10
-474.190002
20
238.088257
30
-767.277893
11
-466.627960
21
172.122284
31
-759.667114
12
-971.071228
22
151.218048
32
-759.667114
13
-985.584778
23
216.644913
33
-767.277893
0
3DFACE
8
0
70
0
10
37.619053
20
244.086548
30
-767.277893
11
38.214745
21
177.940125
31
-759.667114
12
-466.627960
22
172.122284
32
-759.667114
13
-474.190002
23
238.088257
33
-767.277893
0
3DFACE
8
0
70
0
10
37.619053
20
244.086548
30
-767.277893
11
549.375977
21
234.634308
31
-767.277893
12
543.005798
22
168.666397
32
-759.667114
13
38.214745
23
177.940125
33
-759.667114
0
3DFACE
8
0
70
0
10
549.375977
20
234.634308
30
-767.277893
11
1060.614380
21
209.740173
31
-767.277893
12
1047.294067
22
144.309357
32
-759.667114
13
543.005798
23
168.666397
33
-759.667114
0
3DFACE
8
0
70
0
10
1130.655518
20
249.321030
30
-731.006836
11
1207.627441
21
597.597534
31
-254.933945
12
1193.031738
22
532.319458
32
-252.463776
13
1116.462402
23
183.984802
33
-723.796692
0
3DFACE
8
0
70
0
10
-1027.168701
20
125.871880
30
783.530212
11
-966.251953
21
129.406525
31
783.530212
12
-980.737610
22
194.837234
32
791.140930
13
-1042.495117
23
191.213226
33
791.140930
0
3DFACE
8
0
70
0
10
-1042.495117
20
191.213226
30
729.724548
11
-1125.728516
21
539.478149
31
257.323456
12
-1059.409302
22
543.602417
32
257.323456
13
-980.737610
23
194.837234
33
729.724548
0
3DFACE
8
0
70
0
10
-1057.909790
20
256.541565
30
736.734436
11
-995.307068
21
260.256317
31
736.734436
12
-1074.425293
22
608.958069
32
259.593292
13
-1141.614624
23
604.735474
33
259.593292
0
3DFACE
8
0
70
0
10
1130.655518
20
249.321030
30
736.734436
11
1207.627441
21
597.597534
31
259.593292
12
1142.027222
22
602.123596
32
259.593292
13
1069.534180
23
253.355438
33
736.734436
0
3DFACE
8
0
70
0
10
1116.462402
20
183.984802
30
729.724548
11
1056.166504
21
187.930939
31
729.724548
12
1128.280762
22
536.750610
32
257.323456
13
1193.031738
23
532.319458
33
257.323456
0
3DFACE
8
0
70
0
10
1102.344971
20
118.637909
30
783.530212
11
1116.462402
21
183.984802
31
791.140930
12
1056.166504
22
187.930939
32
791.140930
13
1042.869873
23
122.497017
33
783.530212
0
3DFACE
8
0
70
0
10
-1125.728516
20
539.478149
30
257.323456
11
-1125.728516
21
539.478149
31
-252.463776
12
-1059.409302
22
543.602417
32
-252.463776
13
-1059.409302
23
543.602417
33
257.323456
0
3DFACE
8
0
70
0
10
-1141.614624
20
604.735474
30
259.593292
11
-1074.425293
21
608.958069
31
259.593292
12
-1074.425293
22
608.958069
32
-254.933945
13
-1141.614624
23
604.735474
33
-254.933945
0
3DFACE
8
0
70
0
10
1207.627441
20
597.597534
30
259.593292
11
1207.627441
21
597.597534
31
-254.933945
12
1142.027222
22
602.123596
32
-254.933945
13
1142.027222
23
602.123596
33
259.593292
0
3DFACE
8
0
70
0
10
1193.031738
20
532.319458
30
257.323456
11
1128.280762
21
536.750610
31
257.323456
12
1128.280762
22
536.750610
32
-252.463776
13
1193.031738
23
532.319458
33
-252.463776
0
3DFACE
8
0
70
0
10
-1057.909790
20
256.541565
30
-731.006836
11
-1141.614624
21
604.735474
31
-254.933945
12
-1074.425293
22
608.958069
32
-254.933945
13
-995.307068
23
260.256317
33
-731.006836
0
3DFACE
8
0
70
0
10
-1042.495117
20
191.213226
30
-723.796692
11
-980.737610
21
194.837234
31
-723.796692
12
-1059.409302
22
543.602417
32
-252.463776
13
-1125.728516
23
539.478149
33
-252.463776
0
3DFACE
8
0
70
0
10
-1032.267578
20
147.653763
30
-759.667114
11
-1047.623535
21
212.990784
31
-767.277893
12
-985.584778
22
216.644913
32
-767.277893
13
-971.071228
23
151.218048
33
-759.667114
0
3DFACE
8
0
70
0
10
1107.042236
20
140.421387
30
-759.667114
11
1047.294067
21
144.309357
31
-759.667114
12
1060.614380
22
209.740173
32
-767.277893
13
1121.185059
23
205.764740
33
-767.277893
0
3DFACE
8
0
70
0
10
1116.462402
20
183.984802
30
-723.796692
11
1193.031738
21
532.319458
31
-252.463776
12
1128.280762
22
536.750610
32
-252.463776
13
1056.166504
23
187.930939
33
-723.796692
0
3DFACE
8
0
70
0
10
1130.655518
20
249.321030
30
-731.006836
11
1069.534180
21
253.355438
31
-731.006836
12
1142.027222
22
602.123596
32
-254.933945
13
1207.627441
23
597.597534
33
-254.933945
0
3DFACE
8
0
70
0
10
-464.117310
20
150.132919
30
783.530212
11
-966.251953
21
129.406525
31
783.530212
12
-980.737610
22
194.837234
32
729.724548
13
-471.664276
23
216.099930
33
729.724548
0
3DFACE
8
0
70
0
10
-471.664276
20
216.099930
30
791.140930
11
-479.256531
21
282.063782
31
736.734436
12
-995.307068
22
260.256317
32
736.734436
13
-980.737610
23
194.837234
33
791.140930
0
3DFACE
8
0
70
0
10
38.411896
20
155.891327
30
783.530212
11
-464.117310
21
150.132919
31
783.530212
12
-471.664276
22
216.099930
32
729.724548
13
37.818333
23
222.037735
33
729.724548
0
3DFACE
8
0
70
0
10
37.818333
20
222.037735
30
791.140930
11
37.218353
21
288.184143
31
736.734436
12
-479.256531
22
282.063782
32
736.734436
13
-471.664276
23
216.099930
33
791.140930
0
3DFACE
8
0
70
0
10
37.818333
20
222.037735
30
791.140930
11
547.248962
21
212.645218
31
791.140930
12
553.640747
22
278.611755
32
736.734436
13
37.218353
23
288.184143
33
736.734436
0
3DFACE
8
0
70
0
10
38.411896
20
155.891327
30
783.530212
11
37.818333
21
222.037735
31
729.724548
12
547.248962
22
212.645218
32
729.724548
13
540.889648
23
146.676636
33
783.530212
0
3DFACE
8
0
70
0
10
547.248962
20
212.645218
30
791.140930
11
1056.166504
21
187.930939
31
791.140930
12
1069.534180
22
253.355438
32
736.734436
13
553.640747
23
278.611755
33
736.734436
0
3DFACE
8
0
70
0
10
540.889648
20
146.676636
30
783.530212
11
547.248962
21
212.645218
31
729.724548
12
1056.166504
22
187.930939
32
729.724548
13
1042.869873
23
122.497017
33
783.530212
0
3DFACE
8
0
70
0
10
-474.190002
20
238.088257
30
-767.277893
11
-985.584778
21
216.644913
31
-767.277893
12
-995.307068
22
260.256317
32
-731.006836
13
-479.256531
23
282.063782
33
-731.006836
0
3DFACE
8
0
70
0
10
-466.627960
20
172.122284
30
-759.667114
11
-471.664276
21
216.099930
31
-723.796692
12
-980.737610
22
194.837234
32
-723.796692
13
-971.071228
23
151.218048
33
-759.667114
0
3DFACE
8
0
70
0
10
37.619053
20
244.086548
30
-767.277893
11
-474.190002
21
238.088257
31
-767.277893
12
-479.256531
22
282.063782
32
-731.006836
13
37.218353
23
288.184143
33
-731.006836
0
3DFACE
8
0
70
0
10
38.214745
20
177.940125
30
-759.667114
11
37.818333
21
222.037735
31
-723.796692
12
-471.664276
22
216.099930
32
-723.796692
13
-466.627960
23
172.122284
33
-759.667114
0
3DFACE
8
0
70
0
10
38.214745
20
177.940125
30
-759.667114
11
543.005798
21
168.666397
31
-759.667114
12
547.248962
22
212.645218
32
-723.796692
13
37.818333
23
222.037735
33
-723.796692
0
3DFACE
8
0
70
0
10
37.619053
20
244.086548
30
-767.277893
11
37.218353
21
288.184143
31
-731.006836
12
553.640747
22
278.611755
32
-731.006836
13
549.375977
23
234.634308
33
-767.277893
0
3DFACE
8
0
70
0
10
543.005798
20
168.666397
30
-759.667114
11
1047.294067
21
144.309357
31
-759.667114
12
1056.166504
22
187.930939
32
-723.796692
13
547.248962
23
212.645218
33
-723.796692
0
3DFACE
8
0
70
0
10
549.375977
20
234.634308
30
-767.277893
11
553.640747
21
278.611755
31
-731.006836
12
1069.534180
22
253.355438
32
-731.006836
13
1060.614380
23
209.740173
33
-767.277893
0
3DFACE
8
0
70
0
10
-1027.168701
20
125.871880
30
783.530212
11
-1042.495117
21
191.213226
31
791.140930
12
-1057.909790
22
256.541565
32
736.734436
13
-1042.495117
23
191.213226
33
729.724548
0
3DFACE
8
0
70
0
10
-980.737610
20
194.837234
30
791.140930
11
-995.307068
21
260.256317
31
736.734436
12
-1057.909790
22
256.541565
32
736.734436
13
-1042.495117
23
191.213226
33
791.140930
0
3DFACE
8
0
70
0
10
-966.251953
20
129.406525
30
783.530212
11
-1027.168701
21
125.871880
31
783.530212
12
-1042.495117
22
191.213226
32
729.724548
13
-980.737610
23
194.837234
33
729.724548
0
3DFACE
8
0
70
0
10
1042.869873
20
122.497017
30
783.530212
11
1056.166504
21
187.930939
31
729.724548
12
1116.462402
22
183.984802
32
729.724548
13
1102.344971
23
118.637909
33
783.530212
0
3DFACE
8
0
70
0
10
1056.166504
20
187.930939
30
791.140930
11
1116.462402
21
183.984802
31
791.140930
12
1130.655518
22
249.321030
32
736.734436
13
1069.534180
23
253.355438
33
736.734436
0
3DFACE
8
0
70
0
10
1102.344971
20
118.637909
30
783.530212
11
1116.462402
21
183.984802
31
729.724548
12
1130.655518
22
249.321030
32
736.734436
13
1116.462402
23
183.984802
33
791.140930
0
3DFACE
8
0
70
0
10
-971.071228
20
151.218048
30
-759.667114
11
-980.737610
21
194.837234
31
-723.796692
12
-1042.495117
22
191.213226
32
-723.796692
13
-1032.267578
23
147.653763
33
-759.667114
0
3DFACE
8
0
70
0
10
-985.584778
20
216.644913
30
-767.277893
11
-1047.623535
21
212.990784
31
-767.277893
12
-1057.909790
22
256.541565
32
-731.006836
13
-995.307068
23
260.256317
33
-731.006836
0
3DFACE
8
0
70
0
10
-1032.267578
20
147.653763
30
-759.667114
11
-1042.495117
21
191.213226
31
-723.796692
12
-1057.909790
22
256.541565
32
-731.006836
13
-1047.623535
23
212.990784
33
-767.277893
0
3DFACE
8
0
70
0
10
1107.042236
20
140.421387
30
-759.667114
11
1121.185059
21
205.764740
31
-767.277893
12
1130.655518
22
249.321030
32
-731.006836
13
1116.462402
23
183.984802
33
-723.796692
0
3DFACE
8
0
70
0
10
1060.614380
20
209.740173
30
-767.277893
11
1069.534180
21
253.355438
31
-731.006836
12
1130.655518
22
249.321030
32
-731.006836
13
1121.185059
23
205.764740
33
-767.277893
0
3DFACE
8
0
70
0
10
1047.294067
20
144.309357
30
-759.667114
11
1107.042236
21
140.421387
31
-759.667114
12
1116.462402
22
183.984802
32
-723.796692
13
1056.166504
23
187.930939
33
-723.796692
0
3DFACE
8
0
70
0
10
-895.056702
20
-1081.146118
30
201.333328
11
-895.056702
21
-1081.146118
31
-191.533356
12
-715.537292
22
-1072.125122
32
-191.533356
13
-715.537292
23
-1072.125122
33
201.333328
0
3DFACE
8
0
70
0
10
-895.056702
20
-1081.146118
30
-191.533356
11
-1030.464966
21
-537.005432
31
-212.117981
12
-826.004395
22
-525.523865
32
-212.117981
13
-715.537292
23
-1072.125122
33
-191.533356
0
3DFACE
8
0
70
0
10
-895.056702
20
-1081.146118
30
201.333328
11
-715.537292
21
-1072.125122
31
201.333328
12
-826.004395
22
-525.523865
32
220.248901
13
-1030.464966
23
-537.005432
33
220.248901
0
3DFACE
8
0
70
0
10
-1030.464966
20
-537.005432
30
-212.117981
11
-1172.943604
21
6.014904
31
-232.702576
12
-942.295288
22
20.329662
32
-232.702576
13
-826.004395
23
-525.523865
33
-212.117981
0
3DFACE
8
0
70
0
10
-1030.464966
20
-537.005432
30
220.248901
11
-826.004395
21
-525.523865
31
220.248901
12
-942.295288
22
20.329662
32
239.164490
13
-1172.943604
23
6.014904
33
239.164490
0
3DFACE
8
0
70
0
10
-1172.943604
20
6.014904
30
-232.702576
11
-1316.366699
21
526.196411
31
-252.463776
12
-1059.409302
22
543.602417
32
-252.463776
13
-942.295288
23
20.329662
33
-232.702576
0
3DFACE
8
0
70
0
10
-1172.943604
20
6.014904
30
239.164490
11
-942.295288
21
20.329662
31
239.164490
12
-1059.409302
22
543.602417
32
257.323456
13
-1316.366699
23
526.196411
33
257.323456
0
3DFACE
8
0
70
0
10
-1560.846558
20
904.474731
30
391.335785
11
-1560.846558
21
904.474731
31
-422.733124
12
-1524.788818
22
841.206360
32
-396.355774
13
-1524.788818
23
841.206360
33
372.403290
0
3DFACE
8
0
70
0
10
-1023.331177
20
943.258240
30
-422.733124
11
-1019.055542
21
877.250488
31
-396.355774
12
-1524.788818
22
841.206360
32
-396.355774
13
-1560.846558
23
904.474731
33
-422.733124
0
3DFACE
8
0
70
0
10
-1023.331177
20
943.258240
30
391.335785
11
-1019.055542
21
877.250488
31
372.403290
12
-1019.055542
22
877.250488
32
-396.355774
13
-1023.331177
23
943.258240
33
-422.733124
0
3DFACE
8
0
70
0
10
-1023.331177
20
943.258240
30
391.335785
11
-1560.846558
21
904.474731
31
391.335785
12
-1524.788818
22
841.206360
32
372.403290
13
-1019.055542
23
877.250488
33
372.403290
0
3DFACE
8
0
70
0
10
-1524.788818
20
841.206360
30
372.403290
11
-1524.788818
21
841.206360
31
-396.355774
12
-1435.140869
22
848.663147
32
-326.826538
13
-1435.140869
23
848.663147
33
308.511505
0
3DFACE
8
0
70
0
10
-1560.846558
20
904.474731
30
391.335785
11
-1465.571167
21
912.550781
31
323.678314
12
-1465.571167
22
912.550781
32
-349.105865
13
-1560.846558
23
904.474731
33
-422.733124
0
3DFACE
8
0
70
0
10
-1023.331177
20
943.258240
30
-422.733124
11
-1560.846558
21
904.474731
31
-422.733124
12
-1465.571167
22
912.550781
32
-349.105865
13
-1118.779053
23
937.572937
33
-349.105865
0
3DFACE
8
0
70
0
10
-1019.055542
20
877.250488
30
-396.355774
11
-1108.854858
21
871.917908
31
-326.826538
12
-1435.140869
22
848.663147
32
-326.826538
13
-1524.788818
23
841.206360
33
-396.355774
0
3DFACE
8
0
70
0
10
-1023.331177
20
943.258240
30
391.335785
11
-1023.331177
21
943.258240
31
-422.733124
12
-1118.779053
22
937.572937
32
-349.105865
13
-1118.779053
23
937.572937
33
323.678314
0
3DFACE
8
0
70
0
10
-1019.055542
20
877.250488
30
372.403290
11
-1108.854858
21
871.917908
31
308.511505
12
-1108.854858
22
871.917908
32
-326.826538
13
-1019.055542
23
877.250488
33
-396.355774
0
3DFACE
8
0
70
0
10
-1019.055542
20
877.250488
30
372.403290
11
-1524.788818
21
841.206360
31
372.403290
12
-1435.140869
22
848.663147
32
308.511505
13
-1108.854858
23
871.917908
33
308.511505
0
3DFACE
8
0
70
0
10
-1023.331177
20
943.258240
30
391.335785
11
-1118.779053
21
937.572937
31
323.678314
12
-1465.571167
22
912.550781
32
323.678314
13
-1560.846558
23
904.474731
33
391.335785
0
3DFACE
8
0
70
0
10
-1352.580811
20
716.289795
30
214.790985
11
-1352.580811
21
716.289795
31
-223.020294
12
-1465.571167
22
912.550781
32
-349.105865
13
-1465.571167
23
912.550781
33
323.678314
0
3DFACE
8
0
70
0
10
-1140.783813
20
731.195496
30
-223.020294
11
-1118.779053
21
937.572937
31
-349.105865
12
-1465.571167
22
912.550781
32
-349.105865
13
-1352.580811
23
716.289795
33
-223.020294
0
3DFACE
8
0
70
0
10
-1140.783813
20
731.195496
30
214.790985
11
-1118.779053
21
937.572937
31
323.678314
12
-1118.779053
22
937.572937
32
-349.105865
13
-1140.783813
23
731.195496
33
-223.020294
0
3DFACE
8
0
70
0
10
-1140.783813
20
731.195496
30
214.790985
11
-1352.580811
21
716.289795
31
214.790985
12
-1465.571167
22
912.550781
32
323.678314
13
-1118.779053
23
937.572937
33
323.678314
0
3DFACE
8
0
70
0
10
-1140.783813
20
731.195496
30
214.790985
11
-1352.580811
21
716.289795
31
-223.020294
12
-1352.580811
22
716.289795
32
214.790985
13
-1352.580811
23
716.289795
33
214.790985
0
3DFACE
8
0
70
0
10
-1140.783813
20
731.195496
30
214.790985
11
-1140.783813
21
731.195496
31
-223.020294
12
-1352.580811
22
716.289795
32
-223.020294
13
-1352.580811
23
716.289795
33
-223.020294
0
3DFACE
8
0
70
0
10
-1348.955200
20
641.054993
30
-256.833008
11
-1316.366699
21
526.196411
31
-252.463776
12
-1316.366699
22
526.196411
32
257.323456
13
-1348.955200
23
641.054993
33
261.338409
0
3DFACE
8
0
70
0
10
-1088.055786
20
685.063354
30
-265.166901
11
-1059.409302
21
543.602417
31
-252.463776
12
-1316.366699
22
526.196411
32
-252.463776
13
-1348.955200
23
641.054993
33
-256.833008
0
3DFACE
8
0
70
0
10
-1088.055786
20
685.063354
30
266.915314
11
-1059.409302
21
543.602417
31
257.323456
12
-1059.409302
22
543.602417
32
-252.463776
13
-1088.055786
23
685.063354
33
-265.166901
0
3DFACE
8
0
70
0
10
-1435.140869
20
848.663147
30
-326.826538
11
-1348.955200
21
641.054993
31
-256.833008
12
-1348.955200
22
641.054993
32
261.338409
13
-1435.140869
23
848.663147
33
308.511505
0
3DFACE
8
0
70
0
10
-1435.140869
20
848.663147
30
-326.826538
11
-1108.854858
21
871.917908
31
-326.826538
12
-1088.055786
22
685.063354
32
-265.166901
13
-1348.955200
23
641.054993
33
-256.833008
0
3DFACE
8
0
70
0
10
-1108.854858
20
871.917908
30
308.511505
11
-1088.055786
21
685.063354
31
266.915314
12
-1088.055786
22
685.063354
32
-265.166901
13
-1108.854858
23
871.917908
33
-326.826538
0
3DFACE
8
0
70
0
10
-1088.055786
20
685.063354
30
266.915314
11
-1348.955200
21
641.054993
31
261.338409
12
-1316.366699
22
526.196411
32
257.323456
13
-1059.409302
23
543.602417
33
257.323456
0
3DFACE
8
0
70
0
10
-1435.140869
20
848.663147
30
308.511505
11
-1348.955200
21
641.054993
31
261.338409
12
-1088.055786
22
685.063354
32
266.915314
13
-1108.854858
23
871.917908
33
308.511505
0
ENDSEC
0
EOF
