0
SECTION
2
HEADER
999
DXF File Generated by LightWave 3D(TM)
0
ENDSEC
0
SECTION
2
TABLES
0
ENDSEC
0
SECTION
2
BLOCKS
0
ENDSEC
0
SECTION
2
ENTITIES
0
3DFACE
8
0
70
0
10
-11.525015
20
53.449997
30
80.406631
11
10.561066
21
65.603256
31
57.226452
12
56.459373
22
66.085693
32
48.559547
13
54.570965
23
74.024689
33
67.042625
0
3DFACE
8
0
70
0
10
71.523872
20
70.092758
30
-53.683277
11
79.185036
21
50.889328
31
-29.844963
12
45.523628
22
42.224213
32
-63.395870
13
12.419358
23
47.896515
33
-90.107315
0
3DFACE
8
0
70
0
10
-12.739936
20
47.498138
30
101.107407
11
-11.525015
21
53.449997
31
80.406631
12
54.570965
22
74.024689
32
67.042625
13
74.405281
23
74.554993
33
85.595268
0
3DFACE
8
0
70
0
10
95.859711
20
69.579010
30
-67.187157
11
71.523872
21
70.092758
31
-53.683277
12
12.419358
22
47.896515
32
-90.107315
13
17.081722
23
40.581512
33
-111.260162
0
3DFACE
8
0
70
0
10
-15.347161
20
51.344330
30
113.408630
11
77.394531
21
79.889069
31
94.886696
12
77.694229
22
136.178650
32
98.859459
13
-29.030910
23
104.079788
33
115.056023
0
3DFACE
8
0
70
0
10
101.638039
20
74.266205
30
-77.757439
11
18.351313
21
43.528549
31
-126.566727
12
4.651050
22
96.268951
32
-124.920433
13
101.937737
23
130.555786
33
-73.784676
0
3DFACE
8
0
70
0
10
-29.030910
20
104.079788
30
115.056023
11
77.694229
21
136.178650
31
98.859459
12
72.768631
22
135.144073
32
89.580421
13
-27.613682
23
104.819702
33
102.898071
0
3DFACE
8
0
70
0
10
-15.347161
20
51.344330
30
113.408630
11
-12.739936
21
47.498138
31
101.107407
12
74.405281
22
74.554993
32
85.595268
13
77.394531
23
79.889069
33
94.886696
0
3DFACE
8
0
70
0
10
101.937737
20
130.555786
30
-73.784676
11
4.651050
21
96.268951
31
-124.920433
12
1.585853
22
98.129440
32
-109.483612
13
94.223061
23
130.168091
33
-63.202007
0
3DFACE
8
0
70
0
10
101.638039
20
74.266205
30
-77.757439
11
95.859711
21
69.579010
31
-67.187157
12
17.081722
22
40.581512
32
-111.260162
13
18.351313
23
43.528549
33
-126.566727
0
3DFACE
8
0
70
0
10
27.673773
20
-14.175613
30
102.617195
11
74.813721
21
-14.175613
31
102.617195
12
66.977409
22
6.455902
32
87.801697
13
33.987896
23
6.270599
33
87.801697
0
3DFACE
8
0
70
0
10
54.570965
20
74.024689
30
67.042625
11
56.459373
21
66.085693
31
48.559547
12
77.642899
22
56.076752
32
14.071874
13
77.961220
23
77.022614
33
10.587558
0
3DFACE
8
0
70
0
10
74.405281
20
74.554993
30
85.595268
11
54.570965
21
74.024689
31
67.042625
12
77.961220
22
77.022614
32
10.587558
13
105.010590
23
78.706955
33
14.723475
0
3DFACE
8
0
70
0
10
77.694229
20
136.178650
30
98.859459
11
77.394531
21
79.889069
31
94.886696
12
110.429428
22
84.181061
32
15.910500
13
113.943520
23
141.518188
33
20.433886
0
3DFACE
8
0
70
0
10
113.943520
20
141.518188
30
20.433886
11
106.399155
21
140.281952
31
19.226845
12
72.768631
22
135.144073
32
89.580421
13
77.694229
23
136.178650
33
98.859459
0
3DFACE
8
0
70
0
10
77.394531
20
79.889069
30
94.886696
11
74.405281
21
74.554993
31
85.595268
12
105.010590
22
78.706955
32
14.723475
13
110.429428
23
84.181061
33
15.910500
0
3DFACE
8
0
70
0
10
12.906889
20
-47.575562
30
102.617195
11
80.090286
21
-47.760880
31
102.617195
12
74.813721
22
-14.175613
32
102.617195
13
27.673773
23
-14.175613
33
102.617195
0
3DFACE
8
0
70
0
10
-1.391268
20
216.375732
30
5.078217
11
59.466797
21
191.293152
31
2.080998
12
53.625149
22
201.237183
32
-36.493587
13
-1.428951
23
190.472717
33
-46.094997
0
3DFACE
8
0
70
0
10
77.961220
20
77.022614
30
10.587558
11
77.642899
21
56.076752
31
14.071874
12
79.185036
22
50.889328
32
-29.844963
13
71.523872
23
70.092758
33
-53.683277
0
3DFACE
8
0
70
0
10
105.010590
20
78.706955
30
14.723475
11
77.961220
21
77.022614
31
10.587558
12
71.523872
22
70.092758
32
-53.683277
13
95.859711
23
69.579010
33
-67.187157
0
3DFACE
8
0
70
0
10
110.429428
20
84.181061
30
15.910500
11
101.638039
21
74.266205
31
-77.757439
12
101.937737
22
130.555786
32
-73.784676
13
113.943520
23
141.518188
33
20.433886
0
3DFACE
8
0
70
0
10
101.937737
20
130.555786
30
-73.784676
11
94.223061
21
130.168091
31
-63.202007
12
106.399155
22
140.281952
32
19.226845
13
113.943520
23
141.518188
33
20.433886
0
3DFACE
8
0
70
0
10
110.429428
20
84.181061
30
15.910500
11
105.010590
21
78.706955
31
14.723475
12
95.859711
22
69.579010
32
-67.187157
13
101.638039
23
74.266205
33
-77.757439
0
3DFACE
8
0
70
0
10
18.564972
20
46.999451
30
22.566261
11
10.561066
21
65.603256
31
57.226452
12
20.336336
22
49.487793
32
-3.851978
13
19.357378
23
40.599457
33
-5.180390
0
3DFACE
8
0
70
0
10
18.564972
20
46.999451
30
22.566261
11
61.272560
21
47.343536
31
27.420872
12
56.459373
22
66.085693
32
48.559547
13
10.561066
23
65.603256
33
57.226452
0
3DFACE
8
0
70
0
10
61.272560
20
47.343536
30
27.420872
11
76.620758
21
44.152542
31
14.762872
12
77.642899
22
56.076752
32
14.071874
13
56.459373
23
66.085693
33
48.559547
0
3DFACE
8
0
70
0
10
19.357378
20
40.599457
30
-5.180390
11
20.336336
21
49.487793
31
-3.851978
12
45.523628
22
42.224213
32
-63.395870
13
35.466145
23
34.871857
33
-28.800465
0
3DFACE
8
0
70
0
10
76.620758
20
44.152542
30
14.762872
11
72.258324
21
39.460602
31
-5.967505
12
79.185036
22
50.889328
32
-29.844963
13
77.642899
23
56.076752
33
14.071874
0
3DFACE
8
0
70
0
10
72.258324
20
39.460602
30
-5.967505
11
35.466145
21
34.871857
31
-28.800465
12
45.523628
22
42.224213
32
-63.395870
13
79.185036
23
50.889328
33
-29.844963
0
3DFACE
8
0
70
0
10
26.328550
20
-20.610718
30
-12.581439
11
27.673773
21
-22.559113
31
43.725594
12
33.987896
22
-3.467804
32
35.947453
13
25.640388
23
2.529541
33
19.156576
0
3DFACE
8
0
70
0
10
25.640388
20
2.529541
30
19.156576
11
33.987896
21
-3.467804
31
35.947453
12
66.977409
22
-7.065796
32
35.947453
13
61.151466
23
-1.813126
33
17.961559
0
3DFACE
8
0
70
0
10
74.154068
20
-20.492935
30
0.384339
11
61.151466
21
-1.813126
31
17.961559
12
66.977409
22
-7.065796
32
35.947453
13
74.813721
23
-22.559113
33
43.725594
0
3DFACE
8
0
70
0
10
18.323769
20
-45.177994
30
-48.686134
11
16.610764
21
-45.348679
31
32.613968
12
27.673773
22
-22.559113
32
43.725594
13
26.328550
23
-20.610718
33
-12.581439
0
3DFACE
8
0
70
0
10
88.357155
20
-44.118843
30
-27.625521
11
74.154068
21
-20.492935
31
0.384339
12
74.813721
22
-22.559113
32
43.725594
13
83.794151
23
-45.454575
33
36.317848
0
3DFACE
8
0
70
0
10
88.357155
20
-44.118843
30
-27.625521
11
83.794151
21
-45.454575
31
36.317848
12
16.610764
22
-45.348679
32
32.613968
13
18.323769
23
-45.177994
33
-48.686134
0
3DFACE
8
0
70
0
10
27.673773
20
-14.175613
30
102.617195
11
33.987896
21
6.270599
31
87.801697
12
33.987896
22
-3.467804
32
35.947453
13
27.673773
23
-22.559113
33
43.725594
0
3DFACE
8
0
70
0
10
33.987896
20
6.270599
30
87.801697
11
66.977409
21
6.455902
31
87.801697
12
66.977409
22
-7.065796
32
35.947453
13
33.987896
23
-3.467804
33
35.947453
0
3DFACE
8
0
70
0
10
74.813721
20
-14.175613
30
102.617195
11
74.813721
21
-22.559113
31
43.725594
12
66.977409
22
-7.065796
32
35.947453
13
66.977409
23
6.455902
33
87.801697
0
3DFACE
8
0
70
0
10
12.906889
20
-47.575562
30
102.617195
11
27.673773
21
-14.175613
31
102.617195
12
27.673773
22
-22.559113
32
43.725594
13
16.610764
23
-45.348679
33
32.613968
0
3DFACE
8
0
70
0
10
80.090286
20
-47.760880
30
102.617195
11
83.794151
21
-45.454575
31
36.317848
12
74.813721
22
-22.559113
32
43.725594
13
74.813721
23
-14.175613
33
102.617195
0
3DFACE
8
0
70
0
10
80.090286
20
-47.760880
30
102.617195
11
12.906889
21
-47.575562
31
102.617195
12
16.610764
22
-45.348679
32
32.613968
13
83.794151
23
-45.454575
33
36.317848
0
3DFACE
8
0
70
0
10
116.170609
20
240.358398
30
197.589798
11
135.529022
21
248.913544
31
187.621796
12
116.589310
22
259.580170
32
185.871078
13
100.751686
23
245.075165
33
186.903656
0
3DFACE
8
0
70
0
10
82.855904
20
160.894226
30
-28.563385
11
53.625149
21
201.237183
31
-36.493587
12
59.466797
22
191.293152
32
2.080998
13
59.466797
23
191.293152
33
2.080998
0
3DFACE
8
0
70
0
10
79.585190
20
179.406921
30
48.196884
11
59.466797
21
191.293152
31
2.080998
12
53.541096
22
189.714233
32
59.291286
13
53.541096
23
189.714233
33
59.291286
0
3DFACE
8
0
70
0
10
136.485153
20
167.701660
30
50.322399
11
182.910675
21
164.913147
31
64.440186
12
174.137100
22
169.333679
32
99.282265
13
127.167679
23
174.473541
33
84.556648
0
3DFACE
8
0
70
0
10
159.050339
20
215.738617
30
47.759804
11
136.485153
21
167.701660
31
50.322399
12
127.167679
22
174.473541
32
84.556648
13
148.224182
23
223.698608
33
81.325844
0
3DFACE
8
0
70
0
10
189.450104
20
213.060760
30
95.419815
11
199.859528
21
206.965393
31
61.376022
12
159.050339
22
215.738617
32
47.759804
13
148.224182
23
223.698608
33
81.325844
0
3DFACE
8
0
70
0
10
182.910675
20
164.913147
30
64.440186
11
199.859528
21
206.965393
31
61.376022
12
189.450104
22
213.060760
32
95.419815
13
174.137100
23
169.333679
33
99.282265
0
3DFACE
8
0
70
0
10
179.792679
20
159.863159
30
102.744362
11
171.969574
21
163.259583
31
135.833908
12
108.453087
22
174.709778
32
114.110771
13
116.799469
23
168.428925
33
82.675911
0
3DFACE
8
0
70
0
10
116.799469
20
168.428925
30
82.675911
11
108.453087
21
174.709778
31
114.110771
12
133.560059
22
242.921265
32
107.603172
13
143.544205
23
235.288147
33
77.744904
0
3DFACE
8
0
70
0
10
189.344254
20
224.826111
30
128.219635
11
199.012268
21
219.364075
31
97.015297
12
143.544205
22
235.288147
32
77.744904
13
133.560059
23
242.921265
33
107.603172
0
3DFACE
8
0
70
0
10
179.792679
20
159.863159
30
102.744362
11
199.012268
21
219.364075
31
97.015297
12
189.344254
22
224.826111
32
128.219635
13
171.969574
23
163.259583
33
135.833908
0
3DFACE
8
0
70
0
10
179.792679
20
159.863159
30
102.744362
11
116.799469
21
168.428925
31
82.675911
12
127.167679
22
174.473541
32
84.556648
13
174.137100
23
169.333679
33
99.282265
0
3DFACE
8
0
70
0
10
171.969574
20
163.259583
30
135.833908
11
165.874115
21
173.497040
31
132.096756
12
118.624130
22
180.682892
32
115.947433
13
108.453087
23
174.709778
33
114.110771
0
3DFACE
8
0
70
0
10
116.799469
20
168.428925
30
82.675911
11
143.544205
21
235.288147
31
77.744904
12
148.224182
22
223.698608
32
81.325844
13
127.167679
23
174.473541
33
84.556648
0
3DFACE
8
0
70
0
10
108.453087
20
174.709778
30
114.110771
11
118.624130
21
180.682892
31
115.947433
12
138.534821
22
230.822815
32
111.367508
13
133.560059
23
242.921265
33
107.603172
0
3DFACE
8
0
70
0
10
189.344254
20
224.826111
30
128.219635
11
133.560059
21
242.921265
31
107.603172
12
138.534821
22
230.822815
32
111.367508
13
179.905304
23
218.649780
33
126.635963
0
3DFACE
8
0
70
0
10
199.012268
20
219.364075
30
97.015297
11
189.450104
21
213.060760
31
95.419815
12
148.224182
22
223.698608
32
81.325844
13
143.544205
23
235.288147
33
77.744904
0
3DFACE
8
0
70
0
10
171.969574
20
163.259583
30
135.833908
11
189.344254
21
224.826111
31
128.219635
12
179.905304
22
218.649780
32
126.635963
13
165.874115
23
173.497040
33
132.096756
0
3DFACE
8
0
70
0
10
179.792679
20
159.863159
30
102.744362
11
174.137100
21
169.333679
31
99.282265
12
189.450104
22
213.060760
32
95.419815
13
199.012268
23
219.364075
33
97.015297
0
3DFACE
8
0
70
0
10
155.349319
20
189.640015
30
118.297493
11
129.914322
21
199.770813
31
100.294304
12
118.624130
22
180.682892
32
115.947433
13
165.874115
23
173.497040
33
132.096756
0
3DFACE
8
0
70
0
10
129.914322
20
199.770813
30
100.294304
11
153.899002
21
225.434570
31
97.439018
12
138.534821
22
230.822815
32
111.367508
13
118.624130
23
180.682892
33
115.947433
0
3DFACE
8
0
70
0
10
174.734283
20
213.218933
30
114.239891
11
179.905304
21
218.649780
31
126.635963
12
138.534821
22
230.822815
32
111.367508
13
153.899002
23
225.434570
33
97.439018
0
3DFACE
8
0
70
0
10
155.349319
20
189.640015
30
118.297493
11
165.874115
21
173.497040
31
132.096756
12
179.905304
22
218.649780
32
126.635963
13
174.734283
23
213.218933
33
114.239891
0
3DFACE
8
0
70
0
10
90.401726
20
203.271179
30
139.562210
11
89.103752
21
212.416412
31
133.619095
12
94.091881
22
207.328125
32
122.794205
13
95.294022
23
198.143494
33
128.687424
0
3DFACE
8
0
70
0
10
89.103752
20
212.416412
30
133.619095
11
88.463486
21
222.126892
31
127.738068
12
93.330376
22
217.011719
32
116.893234
13
94.091881
23
207.328125
33
122.794205
0
3DFACE
8
0
70
0
10
173.935669
20
230.627686
30
145.264709
11
174.734283
21
213.218933
31
114.239891
12
153.899002
22
225.434570
32
97.439018
13
144.815063
23
240.332062
33
125.841019
0
3DFACE
8
0
70
0
10
145.188705
20
204.268433
30
146.460159
11
155.349319
21
189.640015
31
118.297493
12
174.734283
22
213.218933
32
114.239891
13
173.935669
23
230.627686
33
145.264709
0
3DFACE
8
0
70
0
10
116.170609
20
240.358398
30
197.589798
11
100.751686
21
245.075165
31
186.903656
12
110.439644
22
220.371216
32
138.978470
13
145.188705
23
204.268433
33
146.460159
0
3DFACE
8
0
70
0
10
100.751686
20
245.075165
30
186.903656
11
116.589310
21
259.580170
31
185.871078
12
144.815063
22
240.332062
32
125.841019
13
110.439644
23
220.371216
33
138.978470
0
3DFACE
8
0
70
0
10
135.529022
20
248.913544
30
187.621796
11
173.935669
21
230.627686
31
145.264709
12
144.815063
22
240.332062
32
125.841019
13
116.589310
23
259.580170
33
185.871078
0
3DFACE
8
0
70
0
10
116.170609
20
240.358398
30
197.589798
11
145.188705
21
204.268433
31
146.460159
12
173.935669
22
230.627686
32
145.264709
13
135.529022
23
248.913544
33
187.621796
0
3DFACE
8
0
70
0
10
90.401726
20
203.271179
30
139.562210
11
95.294022
21
198.143494
31
128.687424
12
155.349319
22
189.640015
32
118.297493
13
145.188705
23
204.268433
33
146.460159
0
3DFACE
8
0
70
0
10
95.294022
20
198.143494
30
128.687424
11
94.091881
21
207.328125
31
122.794205
12
129.914322
22
199.770813
32
100.294304
13
155.349319
23
189.640015
33
118.297493
0
3DFACE
8
0
70
0
10
90.401726
20
203.271179
30
139.562210
11
145.188705
21
204.268433
31
146.460159
12
110.439644
22
220.371216
32
138.978470
13
89.103752
23
212.416412
33
133.619095
0
3DFACE
8
0
70
0
10
94.091881
20
207.328125
30
122.794205
11
93.330376
21
217.011719
31
116.893234
12
153.899002
22
225.434570
32
97.439018
13
129.914322
23
199.770813
33
100.294304
0
3DFACE
8
0
70
0
10
88.463486
20
222.126892
30
127.738068
11
144.815063
21
240.332062
31
125.841019
12
153.899002
22
225.434570
32
97.439018
13
93.330376
23
217.011719
33
116.893234
0
3DFACE
8
0
70
0
10
89.103752
20
212.416412
30
133.619095
11
110.439644
21
220.371216
31
138.978470
12
144.815063
22
240.332062
32
125.841019
13
88.463486
23
222.126892
33
127.738068
0
3DFACE
8
0
70
0
10
-11.525015
20
53.449997
30
80.406631
11
-71.276749
21
33.011185
31
45.484894
12
-75.167915
22
-2.309143
32
12.289349
13
-40.157211
23
-4.065170
33
43.326439
0
3DFACE
8
0
70
0
10
-54.323845
20
29.079254
30
-75.241013
11
12.419358
21
47.896515
31
-90.107315
12
-12.461301
22
37.502823
32
-66.378662
13
-57.165577
23
24.710037
33
-59.018963
0
3DFACE
8
0
70
0
10
-12.739936
20
47.498138
30
101.107407
11
-91.991707
21
20.326569
31
57.091434
12
-71.276749
22
33.011185
32
45.484894
13
-11.525015
23
53.449997
33
80.406631
0
3DFACE
8
0
70
0
10
-70.537277
20
15.350586
30
-95.690994
11
17.081722
21
40.581512
31
-111.260162
12
12.419358
22
47.896515
32
-90.107315
13
-54.323845
23
29.079254
33
-75.241013
0
3DFACE
8
0
70
0
10
-15.347161
20
51.344330
30
113.408630
11
-29.030910
21
104.079788
31
115.056023
12
-126.279312
22
69.704102
32
63.918758
13
-99.092072
23
22.372467
33
64.654510
0
3DFACE
8
0
70
0
10
-74.848564
20
16.749603
30
-107.989624
11
-102.035805
21
64.081238
31
-108.725380
12
4.651050
22
96.268951
32
-124.920433
13
18.351313
23
43.528549
33
-126.566727
0
3DFACE
8
0
70
0
10
-29.030910
20
104.079788
30
115.056023
11
-27.613682
21
104.819702
31
102.898071
12
-119.601852
22
72.450958
32
56.627323
13
-126.279312
23
69.704102
33
63.918758
0
3DFACE
8
0
70
0
10
-15.347161
20
51.344330
30
113.408630
11
-99.092072
21
22.372467
31
64.654510
12
-91.991707
22
20.326569
32
57.091434
13
-12.739936
23
47.498138
33
101.107407
0
3DFACE
8
0
70
0
10
-102.035805
20
64.081238
30
-108.725380
11
-98.147423
21
67.474960
31
-96.155106
12
1.585853
22
98.129440
32
-109.483612
13
4.651050
23
96.268951
33
-124.920433
0
3DFACE
8
0
70
0
10
-74.848564
20
16.749603
30
-107.989624
11
18.351313
21
43.528549
31
-126.566727
12
17.081722
22
40.581512
32
-111.260162
13
-70.537277
23
15.350586
33
-95.690994
0
3DFACE
8
0
70
0
10
-31.473774
20
-119.444244
30
102.617195
11
-37.787899
21
-98.998032
31
87.801697
12
-70.777412
22
-98.812729
32
87.801697
13
-78.613716
23
-119.444244
33
102.617195
0
3DFACE
8
0
70
0
10
-71.276749
20
33.011185
30
45.484894
11
-78.085205
21
26.167404
31
-16.143221
12
-75.781357
22
5.769440
32
-26.530762
13
-75.167915
23
-2.309143
33
12.289349
0
3DFACE
8
0
70
0
10
-91.991707
20
20.326569
30
57.091434
11
-101.722443
21
11.333099
31
-20.689930
12
-78.085205
22
26.167404
32
-16.143221
13
-71.276749
23
33.011185
33
45.484894
0
3DFACE
8
0
70
0
10
-126.279312
20
69.704102
30
63.918758
11
-139.317230
21
58.981064
31
-22.949722
12
-108.915596
22
12.696991
32
-21.663342
13
-99.092072
23
22.372467
33
64.654510
0
3DFACE
8
0
70
0
10
-139.317230
20
58.981064
30
-22.949722
11
-126.279312
21
69.704102
31
63.918758
12
-119.601852
22
72.450958
32
56.627323
13
-132.357788
23
62.471573
33
-21.672258
0
3DFACE
8
0
70
0
10
-99.092072
20
22.372467
30
64.654510
11
-108.915596
21
12.696991
31
-21.663342
12
-101.722443
22
11.333099
32
-20.689930
13
-91.991707
23
20.326569
33
57.091434
0
3DFACE
8
0
70
0
10
-16.706890
20
-152.844193
30
102.617195
11
-31.473774
21
-119.444244
31
102.617195
12
-78.613716
22
-119.444244
32
102.617195
13
-83.890282
23
-153.029510
33
102.617195
0
3DFACE
8
0
70
0
10
-1.391268
20
216.375732
30
5.078217
11
-1.428951
21
190.472717
31
-46.094997
12
-56.191860
22
201.237183
32
-36.493587
13
-62.314754
23
192.173279
33
1.255015
0
3DFACE
8
0
70
0
10
-78.085205
20
26.167404
30
-16.143221
11
-54.323845
21
29.079254
31
-75.241013
12
-57.165577
22
24.710037
32
-59.018963
13
-75.781357
23
5.769440
33
-26.530762
0
3DFACE
8
0
70
0
10
-101.722443
20
11.333099
30
-20.689930
11
-70.537277
21
15.350586
31
-95.690994
12
-54.323845
22
29.079254
32
-75.241013
13
-78.085205
23
26.167404
33
-16.143221
0
3DFACE
8
0
70
0
10
-108.915596
20
12.696991
30
-21.663342
11
-139.317230
21
58.981064
31
-22.949722
12
-102.035805
22
64.081238
32
-108.725380
13
-74.848564
23
16.749603
33
-107.989624
0
3DFACE
8
0
70
0
10
-102.035805
20
64.081238
30
-108.725380
11
-139.317230
21
58.981064
31
-22.949722
12
-132.357788
22
62.471573
32
-21.672258
13
-98.147423
23
67.474960
33
-96.155106
0
3DFACE
8
0
70
0
10
-108.915596
20
12.696991
30
-21.663342
11
-74.848564
21
16.749603
31
-107.989624
12
-70.537277
22
15.350586
32
-95.690994
13
-101.722443
23
11.333099
33
-20.689930
0
3DFACE
8
0
70
0
10
-30.916006
20
-12.430359
30
2.826899
11
-16.880671
21
0.089630
31
-16.627783
12
-18.362942
22
13.719177
32
-9.476020
13
-40.157211
23
-4.065170
33
43.326439
0
3DFACE
8
0
70
0
10
-30.916006
20
-12.430359
30
2.826899
11
-40.157211
21
-4.065170
31
43.326439
12
-75.167915
22
-2.309143
32
12.289349
13
-68.421867
23
-11.180786
33
-18.544355
0
3DFACE
8
0
70
0
10
-68.421867
20
-11.180786
30
-18.544355
11
-75.167915
21
-2.309143
31
12.289349
12
-75.781357
22
5.769440
32
-26.530762
13
-74.278793
23
-4.265900
33
-36.085369
0
3DFACE
8
0
70
0
10
-16.880671
20
0.089630
30
-16.627783
11
-17.558628
21
11.986801
31
-42.113663
12
-12.461301
22
37.502823
32
-66.378662
13
-18.362942
23
13.719177
33
-9.476020
0
3DFACE
8
0
70
0
10
-74.278793
20
-4.265900
30
-36.085369
11
-75.781357
21
5.769440
31
-26.530762
12
-57.165577
22
24.710037
32
-59.018963
13
-59.739571
23
4.690369
33
-47.755718
0
3DFACE
8
0
70
0
10
-59.739571
20
4.690369
30
-47.755718
11
-57.165577
21
24.710037
31
-59.018963
12
-12.461301
22
37.502823
32
-66.378662
13
-17.558628
23
11.986801
33
-42.113663
0
3DFACE
8
0
70
0
10
-30.257603
20
-88.685959
30
-8.681623
11
-35.186127
21
-52.163849
31
2.643355
12
-37.787899
22
-108.736435
32
35.947453
13
-31.473774
23
-127.827744
33
43.725594
0
3DFACE
8
0
70
0
10
-35.186127
20
-52.163849
30
2.643355
11
-67.640251
21
-58.601860
31
-12.479508
12
-70.777412
22
-112.334427
32
35.947453
13
-37.787899
23
-108.736435
33
35.947453
0
3DFACE
8
0
70
0
10
-77.679527
20
-83.862259
30
-21.601524
11
-78.613716
21
-127.827744
31
43.725594
12
-70.777412
22
-112.334427
32
35.947453
13
-67.640251
23
-58.601860
33
-12.479508
0
3DFACE
8
0
70
0
10
-16.343353
20
-128.352753
30
-18.385952
11
-30.257603
21
-88.685959
31
-8.681623
12
-31.473774
22
-127.827744
32
43.725594
13
-20.410763
23
-150.617310
33
32.613968
0
3DFACE
8
0
70
0
10
-86.304771
20
-119.342560
30
-36.264748
11
-87.594154
21
-150.723206
31
36.317848
12
-78.613716
22
-127.827744
32
43.725594
13
-77.679527
23
-83.862259
33
-21.601524
0
3DFACE
8
0
70
0
10
-86.304771
20
-119.342560
30
-36.264748
11
-16.343353
21
-128.352753
31
-18.385952
12
-20.410763
22
-150.617310
32
32.613968
13
-87.594154
23
-150.723206
33
36.317848
0
3DFACE
8
0
70
0
10
-31.473774
20
-119.444244
30
102.617195
11
-31.473774
21
-127.827744
31
43.725594
12
-37.787899
22
-108.736435
32
35.947453
13
-37.787899
23
-98.998032
33
87.801697
0
3DFACE
8
0
70
0
10
-37.787899
20
-98.998032
30
87.801697
11
-37.787899
21
-108.736435
31
35.947453
12
-70.777412
22
-112.334427
32
35.947453
13
-70.777412
23
-98.812729
33
87.801697
0
3DFACE
8
0
70
0
10
-78.613716
20
-119.444244
30
102.617195
11
-70.777412
21
-98.812729
31
87.801697
12
-70.777412
22
-112.334427
32
35.947453
13
-78.613716
23
-127.827744
33
43.725594
0
3DFACE
8
0
70
0
10
-16.706890
20
-152.844193
30
102.617195
11
-20.410763
21
-150.617310
31
32.613968
12
-31.473774
22
-127.827744
32
43.725594
13
-31.473774
23
-119.444244
33
102.617195
0
3DFACE
8
0
70
0
10
-83.890282
20
-153.029510
30
102.617195
11
-78.613716
21
-119.444244
31
102.617195
12
-78.613716
22
-127.827744
32
43.725594
13
-87.594154
23
-150.723206
33
36.317848
0
3DFACE
8
0
70
0
10
-83.890282
20
-153.029510
30
102.617195
11
-87.594154
21
-150.723206
31
36.317848
12
-20.410763
22
-150.617310
32
32.613968
13
-16.706890
23
-152.844193
33
102.617195
0
3DFACE
8
0
70
0
10
-274.433228
20
242.433105
30
200.856888
11
-260.650909
21
255.911682
31
199.256653
12
-278.294647
22
260.370697
32
187.806442
13
-286.795776
23
241.470490
33
181.019012
0
3DFACE
8
0
70
0
10
-86.348000
20
162.077728
30
-28.792768
11
-62.314754
21
192.173279
31
1.255015
12
-56.191860
22
201.237183
32
-36.493587
13
-56.191860
23
201.237183
33
-36.493587
0
3DFACE
8
0
70
0
10
-79.162476
20
183.022797
30
48.440418
11
-56.008705
21
189.714233
31
59.291286
12
-62.314754
22
192.173279
32
1.255015
13
-62.314754
23
192.173279
33
1.255015
0
3DFACE
8
0
70
0
10
-172.347061
20
179.233337
30
81.197044
11
-189.909332
21
192.241028
31
109.955086
12
-230.920792
22
167.693787
32
97.114372
13
-213.283417
23
156.971863
33
67.374649
0
3DFACE
8
0
70
0
10
-200.861099
20
211.548767
30
50.117081
11
-217.284531
21
226.238403
31
78.782967
12
-189.909332
22
192.241028
32
109.955086
13
-172.347061
23
179.233337
33
81.197044
0
3DFACE
8
0
70
0
10
-252.212234
20
199.342377
30
70.534210
11
-217.284531
21
226.238403
31
78.782967
12
-200.861099
22
211.548767
32
50.117081
13
-235.742264
23
186.459198
33
41.085033
0
3DFACE
8
0
70
0
10
-213.283417
20
156.971863
30
67.374649
11
-230.920792
21
167.693787
31
97.114372
12
-252.212234
22
199.342377
32
70.534210
13
-235.742264
23
186.459198
33
41.085033
0
3DFACE
8
0
70
0
10
-234.314728
20
157.007660
30
99.934090
11
-179.603836
21
191.389832
31
116.330551
12
-195.895798
22
203.295319
32
142.600174
13
-251.184433
23
166.248047
33
128.177383
0
3DFACE
8
0
70
0
10
-179.603836
20
191.389832
30
116.330551
11
-215.130737
21
238.358459
31
74.598717
12
-229.655518
22
252.075928
32
100.100174
13
-195.895798
23
203.295319
33
142.600174
0
3DFACE
8
0
70
0
10
-276.813568
20
212.518433
30
91.401123
11
-229.655518
21
252.075928
31
100.100174
12
-215.130737
22
238.358459
32
74.598717
13
-261.843658
23
200.763672
33
64.294991
0
3DFACE
8
0
70
0
10
-234.314728
20
157.007660
30
99.934090
11
-251.184433
21
166.248047
31
128.177383
12
-276.813568
22
212.518433
32
91.401123
13
-261.843658
23
200.763672
33
64.294991
0
3DFACE
8
0
70
0
10
-234.314728
20
157.007660
30
99.934090
11
-230.920792
21
167.693787
31
97.114372
12
-189.909332
22
192.241028
32
109.955086
13
-179.603836
23
191.389832
33
116.330551
0
3DFACE
8
0
70
0
10
-251.184433
20
166.248047
30
128.177383
11
-195.895798
21
203.295319
31
142.600174
12
-206.012894
22
204.168213
32
136.324509
13
-247.531784
23
177.791809
33
125.123405
0
3DFACE
8
0
70
0
10
-179.603836
20
191.389832
30
116.330551
11
-189.909332
21
192.241028
31
109.955086
12
-217.284531
22
226.238403
32
78.782967
13
-215.130737
23
238.358459
33
74.598717
0
3DFACE
8
0
70
0
10
-195.895798
20
203.295319
30
142.600174
11
-229.655518
21
252.075928
31
100.100174
12
-231.983566
22
239.385529
32
104.438957
13
-206.012894
23
204.168213
33
136.324509
0
3DFACE
8
0
70
0
10
-276.813568
20
212.518433
30
91.401123
11
-267.314209
21
211.155426
31
97.537354
12
-231.983566
22
239.385529
32
104.438957
13
-229.655518
23
252.075928
33
100.100174
0
3DFACE
8
0
70
0
10
-261.843658
20
200.763672
30
64.294991
11
-215.130737
21
238.358459
31
74.598717
12
-217.284531
22
226.238403
32
78.782967
13
-252.212234
23
199.342377
33
70.534210
0
3DFACE
8
0
70
0
10
-251.184433
20
166.248047
30
128.177383
11
-247.531784
21
177.791809
31
125.123405
12
-267.314209
22
211.155426
32
97.537354
13
-276.813568
23
212.518433
33
91.401123
0
3DFACE
8
0
70
0
10
-234.314728
20
157.007660
30
99.934090
11
-261.843658
21
200.763672
31
64.294991
12
-252.212234
22
199.342377
32
70.534210
13
-230.920792
23
167.693787
33
97.114372
0
3DFACE
8
0
70
0
10
-236.391663
20
189.810791
30
118.537796
11
-247.531784
21
177.791809
31
125.123405
12
-206.012894
22
204.168213
32
136.324509
13
-212.724106
23
211.350616
33
118.885498
0
3DFACE
8
0
70
0
10
-212.724106
20
211.350616
30
118.885498
11
-206.012894
21
204.168213
31
136.324509
12
-231.983566
22
239.385529
32
104.438957
13
-237.243896
23
225.388184
33
99.172127
0
3DFACE
8
0
70
0
10
-256.294678
20
203.945679
30
100.925980
11
-237.243896
21
225.388184
31
99.172127
12
-231.983566
22
239.385529
32
104.438957
13
-267.314209
23
211.155426
33
97.537354
0
3DFACE
8
0
70
0
10
-236.391663
20
189.810791
30
118.537796
11
-256.294678
21
203.945679
31
100.925980
12
-267.314209
22
211.155426
32
97.537354
13
-247.531784
23
177.791809
33
125.123405
0
3DFACE
8
0
70
0
10
-207.600159
20
233.130890
30
171.642136
11
-202.657455
21
228.018311
31
160.783020
12
-203.387802
22
237.344543
32
155.036591
13
-208.218750
23
242.479950
33
165.910385
0
3DFACE
8
0
70
0
10
-208.218750
20
242.479950
30
165.910385
11
-203.387802
21
237.344543
31
155.036591
12
-204.668274
22
246.872406
32
148.974152
13
-209.606354
23
251.966217
33
159.796860
0
3DFACE
8
0
70
0
10
-281.655182
20
213.203247
30
128.311325
11
-256.425690
21
239.215210
31
125.798492
12
-237.243896
22
225.388184
32
99.172127
13
-256.294678
23
203.945679
33
100.925980
0
3DFACE
8
0
70
0
10
-249.258255
20
205.190063
30
148.531494
11
-281.655182
21
213.203247
31
128.311325
12
-256.294678
22
203.945679
32
100.925980
13
-236.391663
23
189.810791
33
118.537796
0
3DFACE
8
0
70
0
10
-274.433228
20
242.433105
30
200.856888
11
-249.258255
21
205.190063
31
148.531494
12
-229.669159
22
237.596832
32
157.956940
13
-260.650909
23
255.911682
33
199.256653
0
3DFACE
8
0
70
0
10
-260.650909
20
255.911682
30
199.256653
11
-229.669159
21
237.596832
31
157.956940
12
-256.425690
22
239.215210
32
125.798492
13
-278.294647
23
260.370697
33
187.806442
0
3DFACE
8
0
70
0
10
-286.795776
20
241.470490
30
181.019012
11
-278.294647
21
260.370697
31
187.806442
12
-256.425690
22
239.215210
32
125.798492
13
-281.655182
23
213.203247
33
128.311325
0
3DFACE
8
0
70
0
10
-274.433228
20
242.433105
30
200.856888
11
-286.795776
21
241.470490
31
181.019012
12
-281.655182
22
213.203247
32
128.311325
13
-249.258255
23
205.190063
33
148.531494
0
3DFACE
8
0
70
0
10
-207.600159
20
233.130890
30
171.642136
11
-249.258255
21
205.190063
31
148.531494
12
-236.391663
22
189.810791
32
118.537796
13
-202.657455
23
228.018311
33
160.783020
0
3DFACE
8
0
70
0
10
-202.657455
20
228.018311
30
160.783020
11
-236.391663
21
189.810791
31
118.537796
12
-212.724106
22
211.350616
32
118.885498
13
-203.387802
23
237.344543
33
155.036591
0
3DFACE
8
0
70
0
10
-207.600159
20
233.130890
30
171.642136
11
-208.218750
21
242.479950
31
165.910385
12
-229.669159
22
237.596832
32
157.956940
13
-249.258255
23
205.190063
33
148.531494
0
3DFACE
8
0
70
0
10
-203.387802
20
237.344543
30
155.036591
11
-212.724106
21
211.350616
31
118.885498
12
-237.243896
22
225.388184
32
99.172127
13
-204.668274
23
246.872406
33
148.974152
0
3DFACE
8
0
70
0
10
-209.606354
20
251.966217
30
159.796860
11
-204.668274
21
246.872406
31
148.974152
12
-237.243896
22
225.388184
32
99.172127
13
-256.425690
23
239.215210
33
125.798492
0
3DFACE
8
0
70
0
10
-208.218750
20
242.479950
30
165.910385
11
-209.606354
21
251.966217
31
159.796860
12
-256.425690
22
239.215210
32
125.798492
13
-229.669159
23
237.596832
33
157.956940
0
3DFACE
8
0
70
0
10
20.336336
20
49.487793
30
-3.851978
11
10.561066
21
65.603256
31
57.226452
12
-11.525015
22
53.449997
32
80.406631
13
0.212001
23
50.727798
33
-3.175629
0
3DFACE
8
0
70
0
10
20.336336
20
49.487793
30
-3.851978
11
0.212001
21
50.727798
31
-3.175629
12
12.419358
22
47.896515
32
-90.107315
13
45.523628
23
42.224213
33
-63.395870
0
3DFACE
8
0
70
0
10
12.419358
20
47.896515
30
-90.107315
11
0.212001
21
50.727798
31
-3.175629
12
-18.362942
22
13.719177
32
-9.476020
13
-12.461301
23
37.502823
33
-66.378662
0
3DFACE
8
0
70
0
10
0.212001
20
50.727798
30
-3.175629
11
-11.525015
21
53.449997
31
80.406631
12
-40.157211
22
-4.065170
32
43.326439
13
-18.362942
23
13.719177
33
-9.476020
0
3DFACE
8
0
70
0
10
-0.870510
20
261.272430
30
122.611298
11
9.404365
21
261.793915
31
117.381271
12
18.828690
22
279.541901
32
122.216965
13
-0.870510
23
279.723572
33
128.666168
0
3DFACE
8
0
70
0
10
-0.870510
20
279.723572
30
128.666168
11
18.828690
21
279.541901
31
122.216965
12
11.752362
22
288.106232
32
121.019630
13
-0.870510
23
291.540497
33
124.536148
0
3DFACE
8
0
70
0
10
9.404365
20
261.793915
30
117.381271
11
10.337568
21
258.475159
31
104.511536
12
21.829563
22
277.062225
32
104.760262
13
18.828690
23
279.541901
33
122.216965
0
3DFACE
8
0
70
0
10
-0.870510
20
261.272430
30
122.611298
11
-1.128892
21
255.687805
31
110.431030
12
10.337568
22
258.475159
32
104.511536
13
9.404365
23
261.793915
33
117.381271
0
3DFACE
8
0
70
0
10
-0.870510
20
291.540497
30
124.536148
11
11.752362
21
288.106232
31
121.019630
12
13.671786
22
288.983276
32
104.835991
13
-1.128892
23
292.926849
33
110.144325
0
3DFACE
8
0
70
0
10
18.828690
20
279.541901
30
122.216965
11
21.829563
21
277.062225
31
104.760262
12
13.671786
22
288.983276
32
104.835991
13
11.752362
23
288.106232
33
121.019630
0
3DFACE
8
0
70
0
10
2.909300
20
302.410797
30
106.276031
11
2.909300
21
292.906189
31
107.318275
12
13.938767
22
290.557922
32
102.009949
13
15.255781
23
309.968262
33
104.268639
0
3DFACE
8
0
70
0
10
13.938767
20
290.557922
30
102.009949
11
23.501091
21
291.553955
31
95.723228
12
27.175125
22
302.414185
32
92.150620
13
15.255781
23
309.968262
33
104.268639
0
3DFACE
8
0
70
0
10
11.862094
20
240.434875
30
123.670204
11
7.901143
21
259.412628
31
112.725739
12
-1.128892
22
257.998596
32
115.474304
13
-1.128892
23
240.231384
33
124.353912
0
3DFACE
8
0
70
0
10
49.787121
20
257.272339
30
78.126740
11
48.181377
21
268.202240
31
77.948036
12
24.964703
22
261.095551
32
98.608398
13
32.072712
23
238.269592
33
104.917747
0
3DFACE
8
0
70
0
10
7.901143
20
259.412628
30
112.725739
11
11.862094
21
240.434875
31
123.670204
12
30.075714
22
242.626190
32
115.002640
13
22.598513
23
259.674896
33
112.608627
0
3DFACE
8
0
70
0
10
44.646282
20
301.928894
30
78.312500
11
56.811829
21
312.268158
31
77.303604
12
31.726656
22
322.529663
32
94.107399
13
31.433943
23
307.153290
33
94.645355
0
3DFACE
8
0
70
0
10
-1.128892
20
325.614410
30
109.132690
11
-1.128892
21
307.970795
31
108.648834
12
14.748909
22
315.313934
32
106.220955
13
16.317604
23
332.119568
33
103.515297
0
3DFACE
8
0
70
0
10
16.317604
20
332.119568
30
103.515297
11
14.748909
21
315.313934
31
106.220955
12
31.433943
22
307.153290
32
94.645355
13
31.726656
23
322.529663
33
94.107399
0
3DFACE
8
0
70
0
10
-1.128892
20
213.638855
30
122.178642
11
16.046013
21
221.984314
31
115.812431
12
12.863721
22
231.135834
32
113.764580
13
-1.128892
23
228.169037
33
119.235947
0
3DFACE
8
0
70
0
10
-1.128892
20
170.482666
30
101.101158
11
19.231140
21
182.999817
31
97.859222
12
16.046013
22
221.984314
32
115.812431
13
-1.128892
23
213.638855
33
122.178642
0
3DFACE
8
0
70
0
10
49.787121
20
257.272339
30
78.126740
11
32.072712
21
238.269592
31
104.917747
12
31.389540
22
235.047852
32
95.906563
13
53.510349
23
246.014282
33
81.297020
0
3DFACE
8
0
70
0
10
31.389540
20
235.047852
30
95.906563
11
42.762924
21
209.001343
31
66.107307
12
52.840992
22
238.648804
32
50.112881
13
53.510349
23
246.014282
33
81.297020
0
3DFACE
8
0
70
0
10
19.231140
20
182.999817
30
97.859222
11
42.762924
21
209.001343
31
66.107307
12
31.389540
22
235.047852
32
95.906563
13
16.046013
23
221.984314
33
115.812431
0
3DFACE
8
0
70
0
10
16.046013
20
221.984314
30
115.812431
11
31.389540
21
235.047852
31
95.906563
12
32.072712
22
238.269592
32
104.917747
13
12.863721
23
231.135834
33
113.764580
0
3DFACE
8
0
70
0
10
-1.128892
20
240.231384
30
124.353912
11
-1.128892
21
228.169037
31
119.235947
12
12.863721
22
231.135834
32
113.764580
13
11.862094
23
240.434875
33
123.670204
0
3DFACE
8
0
70
0
10
-1.128892
20
257.998596
30
115.474304
11
7.901143
21
259.412628
31
112.725739
12
10.337568
22
258.475159
32
104.511536
13
-1.128892
23
255.687805
33
110.431030
0
3DFACE
8
0
70
0
10
22.598513
20
259.674896
30
112.608627
11
24.964703
21
261.095551
31
98.608398
12
10.337568
22
258.475159
32
104.511536
13
7.901143
23
259.412628
33
112.725739
0
POINT
8
0
70
0
10
51.278114
20
241.330902
30
96.495125
0
3DFACE
8
0
70
0
10
11.862094
20
240.434875
30
123.670204
11
12.863721
21
231.135834
31
113.764580
12
32.072712
22
238.269592
32
104.917747
13
30.075714
23
242.626190
33
115.002640
0
3DFACE
8
0
70
0
10
30.075714
20
242.626190
30
115.002640
11
51.278114
21
241.330902
31
96.495125
12
22.598513
22
259.674896
32
112.608627
13
22.598513
23
259.674896
33
112.608627
0
3DFACE
8
0
70
0
10
22.598513
20
259.674896
30
112.608627
11
51.278114
21
241.330902
31
96.495125
12
24.964703
22
261.095551
32
98.608398
13
24.964703
23
261.095551
33
98.608398
0
3DFACE
8
0
70
0
10
51.278114
20
241.330902
30
96.495125
11
32.072712
21
238.269592
31
104.917747
12
24.964703
22
261.095551
32
98.608398
13
24.964703
23
261.095551
33
98.608398
0
3DFACE
8
0
70
0
10
32.072712
20
238.269592
30
104.917747
11
51.278114
21
241.330902
31
96.495125
12
30.075714
22
242.626190
32
115.002640
13
30.075714
23
242.626190
33
115.002640
0
3DFACE
8
0
70
0
10
56.811829
20
312.268158
30
77.303604
11
44.646282
21
301.928894
31
78.312500
12
58.079704
22
297.277008
32
41.790794
13
61.385242
23
298.267792
33
42.134319
0
3DFACE
8
0
70
0
10
44.646282
20
301.928894
30
78.312500
11
42.673527
21
290.824799
31
78.655991
12
59.584106
22
290.008667
32
42.462151
13
58.079704
23
297.277008
33
41.790794
0
3DFACE
8
0
70
0
10
42.673527
20
290.824799
30
78.655991
11
45.115303
21
277.725616
31
78.504814
12
59.605892
22
276.814728
32
44.641083
13
59.584106
23
290.008667
33
42.462151
0
3DFACE
8
0
70
0
10
61.385242
20
298.267792
30
42.134319
11
58.079704
21
297.277008
31
41.790794
12
41.289497
22
293.921844
32
15.760640
13
43.875626
23
288.039948
33
17.909962
0
3DFACE
8
0
70
0
10
59.584106
20
290.008667
30
42.462151
11
43.601852
21
293.688049
31
12.672510
12
41.289497
22
293.921844
32
15.760640
13
58.079704
23
297.277008
33
41.790794
0
3DFACE
8
0
70
0
10
59.605892
20
276.814728
30
44.641083
11
40.857079
21
281.990967
31
11.188781
12
43.601852
22
293.688049
32
12.672510
13
59.584106
23
290.008667
33
42.462151
0
3DFACE
8
0
70
0
10
43.875626
20
288.039948
30
17.909962
11
41.289497
21
293.921844
31
15.760640
12
-1.128893
22
292.994965
32
-1.266271
13
-1.128893
23
282.015381
33
-0.919919
0
3DFACE
8
0
70
0
10
43.601852
20
293.688049
30
12.672510
11
-1.128892
21
293.613861
31
-2.405132
12
-1.128893
22
292.994965
32
-1.266271
13
41.289497
23
293.921844
33
15.760640
0
3DFACE
8
0
70
0
10
40.857079
20
281.990967
30
11.188781
11
-1.128892
21
279.737640
31
-0.945824
12
-1.128892
22
293.613861
32
-2.405132
13
43.601852
23
293.688049
33
12.672510
0
3DFACE
8
0
70
0
10
52.840992
20
238.648804
30
50.112881
11
59.169540
21
255.260437
31
46.003769
12
49.787121
22
257.272339
32
78.126740
13
53.510349
23
246.014282
33
81.297020
0
3DFACE
8
0
70
0
10
45.115303
20
277.725616
30
78.504814
11
48.181377
21
268.202240
31
77.948036
12
59.605892
22
276.814728
32
44.641083
13
59.605892
23
276.814728
33
44.641083
0
3DFACE
8
0
70
0
10
49.787121
20
257.272339
30
78.126740
11
59.169540
21
255.260437
31
46.003769
12
59.605892
22
276.814728
32
44.641083
13
48.181377
23
268.202240
33
77.948036
0
3DFACE
8
0
70
0
10
59.169540
20
255.260437
30
46.003769
11
40.064362
21
264.003296
31
14.099627
12
40.857079
22
281.990967
32
11.188781
13
59.605892
23
276.814728
33
44.641083
0
3DFACE
8
0
70
0
10
40.064362
20
264.003296
30
14.099627
11
-1.128892
21
262.377594
31
3.485335
12
-1.128892
22
279.737640
32
-0.945824
13
40.857079
23
281.990967
33
11.188781
0
3DFACE
8
0
70
0
10
-1.128892
20
325.614410
30
109.132690
11
16.317604
21
332.119568
31
103.515297
12
18.270704
22
352.842194
32
94.771088
13
-1.128891
23
353.372498
33
100.909317
0
3DFACE
8
0
70
0
10
-1.128891
20
353.372498
30
100.909317
11
18.270704
21
352.842194
31
94.771088
12
18.659369
22
354.038513
32
89.505417
13
-1.128891
23
355.895813
33
96.704758
0
3DFACE
8
0
70
0
10
16.317604
20
332.119568
30
103.515297
11
31.726656
21
322.529663
31
94.107399
12
44.762035
22
348.105347
32
82.321808
13
18.270704
23
352.842194
33
94.771088
0
3DFACE
8
0
70
0
10
18.270704
20
352.842194
30
94.771088
11
44.762035
21
348.105347
31
82.321808
12
43.519684
22
349.774872
32
77.256470
13
18.659369
23
354.038513
33
89.505417
0
3DFACE
8
0
70
0
10
31.726656
20
322.529663
30
94.107399
11
56.811829
21
312.268158
31
77.303604
12
60.858891
22
333.878113
32
53.999737
13
44.762035
23
348.105347
33
82.321808
0
3DFACE
8
0
70
0
10
44.762035
20
348.105347
30
82.321808
11
60.858891
21
333.878113
31
53.999737
12
52.560215
22
337.556030
32
51.782856
13
43.519684
23
349.774872
33
77.256470
0
3DFACE
8
0
70
0
10
56.811829
20
312.268158
30
77.303604
11
61.385242
21
298.267792
31
42.134319
12
65.384583
22
326.584503
32
29.168758
13
60.858891
23
333.878113
33
53.999737
0
3DFACE
8
0
70
0
10
60.858891
20
333.878113
30
53.999737
11
65.384583
21
326.584503
31
29.168758
12
58.830154
22
329.571930
32
29.993462
13
52.560215
23
337.556030
33
51.782856
0
3DFACE
8
0
70
0
10
61.385242
20
298.267792
30
42.134319
11
43.875626
21
288.039948
31
17.909962
12
44.770950
22
314.278778
32
8.514863
13
65.384583
23
326.584503
33
29.168758
0
3DFACE
8
0
70
0
10
65.384583
20
326.584503
30
29.168758
11
44.770950
21
314.278778
31
8.514863
12
39.242229
22
319.342865
32
10.955944
13
58.830154
23
329.571930
33
29.993462
0
3DFACE
8
0
70
0
10
43.875626
20
288.039948
30
17.909962
11
-1.128893
21
282.015381
31
-0.919919
12
-1.128892
22
306.176910
32
-9.964874
13
44.770950
23
314.278778
33
8.514863
0
3DFACE
8
0
70
0
10
44.770950
20
314.278778
30
8.514863
11
-1.128892
21
306.176910
31
-9.964874
12
-1.128892
22
310.960449
32
-6.661608
13
39.242229
23
319.342865
33
10.955944
0
3DFACE
8
0
70
0
10
52.840992
20
238.648804
30
50.112881
11
36.430756
21
218.918213
31
31.855993
12
40.064362
22
264.003296
32
14.099627
13
59.169540
23
255.260437
33
46.003769
0
3DFACE
8
0
70
0
10
36.430756
20
218.918213
30
31.855993
11
-1.437430
21
213.808655
31
8.887280
12
-1.128892
22
262.377594
32
3.485335
13
40.064362
23
264.003296
33
14.099627
0
3DFACE
8
0
70
0
10
42.762924
20
209.001343
30
66.107307
11
30.003225
21
218.938354
31
60.032959
12
36.430756
22
218.918213
32
31.855993
13
52.840992
23
238.648804
33
50.112881
0
3DFACE
8
0
70
0
10
19.231140
20
182.999817
30
97.859222
11
16.812195
21
183.692078
31
81.952538
12
30.003225
22
218.938354
32
60.032959
13
42.762924
23
209.001343
33
66.107307
0
3DFACE
8
0
70
0
10
16.812195
20
183.692078
30
81.952538
11
-1.128892
21
182.057953
31
77.656464
12
-1.128892
22
204.094635
32
56.009388
13
30.003225
23
218.938354
33
60.032959
0
3DFACE
8
0
70
0
10
-1.128892
20
170.482666
30
101.101158
11
-1.128892
21
182.057953
31
77.656464
12
16.812195
22
183.692078
32
81.952538
13
16.812195
23
183.692078
33
81.952538
0
3DFACE
8
0
70
0
10
-1.128892
20
170.482666
30
101.101158
11
16.812195
21
183.692078
31
81.952538
12
19.231140
22
182.999817
32
97.859222
13
19.231140
23
182.999817
33
97.859222
0
3DFACE
8
0
70
0
10
-0.870510
20
261.272430
30
122.611298
11
-0.870510
21
279.723572
31
128.666168
12
-20.569714
22
279.541901
32
122.216965
13
-11.145385
23
261.793915
33
117.381271
0
3DFACE
8
0
70
0
10
-0.870510
20
279.723572
30
128.666168
11
-0.870510
21
291.540497
31
124.536148
12
-13.493384
22
288.106232
32
121.019630
13
-20.569714
23
279.541901
33
122.216965
0
3DFACE
8
0
70
0
10
-11.145385
20
261.793915
30
117.381271
11
-20.569714
21
279.541901
31
122.216965
12
-24.087347
22
277.062225
32
104.760262
13
-12.595353
23
258.475159
33
104.511536
0
3DFACE
8
0
70
0
10
-0.870510
20
261.272430
30
122.611298
11
-11.145385
21
261.793915
31
117.381271
12
-12.595353
22
258.475159
32
104.511536
13
-1.128892
23
255.687805
33
110.431030
0
3DFACE
8
0
70
0
10
-0.870510
20
291.540497
30
124.536148
11
-1.128892
21
292.926849
31
110.144325
12
-15.929572
22
288.983276
32
104.835991
13
-13.493384
23
288.106232
33
121.019630
0
3DFACE
8
0
70
0
10
-20.569714
20
279.541901
30
122.216965
11
-13.493384
21
288.106232
31
121.019630
12
-15.929572
22
288.983276
32
104.835991
13
-24.087347
23
277.062225
33
104.760262
0
3DFACE
8
0
70
0
10
-4.713947
20
302.291534
30
106.095718
11
-16.861820
21
310.663422
31
104.469688
12
-15.962464
22
291.170319
32
102.640160
13
-4.713947
23
293.174255
33
106.939919
0
3DFACE
8
0
70
0
10
-15.962464
20
291.170319
30
102.640160
11
-16.861820
21
310.663422
31
104.469688
12
-28.798952
22
302.294708
32
94.654114
13
-25.051950
23
292.104858
33
97.547935
0
3DFACE
8
0
70
0
10
-14.119880
20
240.434875
30
123.670204
11
-1.128892
21
240.231384
31
124.353912
12
-1.128892
22
257.998596
32
115.474304
13
-10.158927
23
259.412628
33
112.725739
0
3DFACE
8
0
70
0
10
-52.044903
20
257.272339
30
78.126740
11
-34.330498
21
238.269592
31
104.917747
12
-27.222488
22
261.095551
32
98.608398
13
-50.439159
23
268.202240
33
77.948036
0
3DFACE
8
0
70
0
10
-10.158927
20
259.412628
30
112.725739
11
-24.856298
21
259.674896
31
112.608627
12
-32.333500
22
242.626190
32
115.002640
13
-14.119880
23
240.434875
33
123.670204
0
3DFACE
8
0
70
0
10
-46.904068
20
301.928894
30
78.312500
11
-32.819691
21
307.153290
31
94.645355
12
-33.112400
22
322.529663
32
94.107391
13
-59.069607
23
312.268158
33
77.303604
0
3DFACE
8
0
70
0
10
-1.128892
20
325.614410
30
109.132690
11
-18.171663
21
332.892090
31
103.280403
12
-16.602972
22
316.114380
32
106.173973
13
-1.128892
23
307.970795
33
108.648834
0
3DFACE
8
0
70
0
10
-18.171663
20
332.892090
30
103.280403
11
-33.112400
21
322.529663
31
94.107391
12
-32.819691
22
307.153290
32
94.645355
13
-16.602972
23
316.114380
33
106.173973
0
3DFACE
8
0
70
0
10
-1.128892
20
213.638855
30
122.178642
11
-1.128892
21
228.169037
31
119.235947
12
-15.121507
22
231.135834
32
113.764580
13
-18.303802
23
221.984314
33
115.812431
0
3DFACE
8
0
70
0
10
-1.128892
20
170.482666
30
101.101158
11
-1.128892
21
213.638855
31
122.178642
12
-18.303802
22
221.984314
32
115.812431
13
-21.488928
23
182.999817
33
97.859222
0
3DFACE
8
0
70
0
10
-52.044903
20
257.272339
30
78.126740
11
-55.768127
21
246.014282
31
81.297020
12
-33.647327
22
235.047852
32
95.906563
13
-34.330498
23
238.269592
33
104.917747
0
3DFACE
8
0
70
0
10
-33.647327
20
235.047852
30
95.906563
11
-55.768127
21
246.014282
31
81.297020
12
-55.098778
22
238.648804
32
50.112881
13
-45.020710
23
209.001343
33
66.107307
0
3DFACE
8
0
70
0
10
-21.488928
20
182.999817
30
97.859222
11
-18.303802
21
221.984314
31
115.812431
12
-33.647327
22
235.047852
32
95.906563
13
-45.020710
23
209.001343
33
66.107307
0
3DFACE
8
0
70
0
10
-18.303802
20
221.984314
30
115.812431
11
-15.121507
21
231.135834
31
113.764580
12
-34.330498
22
238.269592
32
104.917747
13
-33.647327
23
235.047852
33
95.906563
0
3DFACE
8
0
70
0
10
-1.128892
20
240.231384
30
124.353912
11
-14.119880
21
240.434875
31
123.670204
12
-15.121507
22
231.135834
32
113.764580
13
-1.128892
23
228.169037
33
119.235947
0
3DFACE
8
0
70
0
10
-1.128892
20
257.998596
30
115.474304
11
-1.128892
21
255.687805
31
110.431030
12
-12.595353
22
258.475159
32
104.511536
13
-10.158927
23
259.412628
33
112.725739
0
3DFACE
8
0
70
0
10
-24.856298
20
259.674896
30
112.608627
11
-10.158927
21
259.412628
31
112.725739
12
-12.595353
22
258.475159
32
104.511536
13
-27.222488
23
261.095551
33
98.608398
0
POINT
8
0
70
0
10
-52.728455
20
241.330902
30
96.495125
0
3DFACE
8
0
70
0
10
-14.119880
20
240.434875
30
123.670204
11
-32.333500
21
242.626190
31
115.002640
12
-34.330498
22
238.269592
32
104.917747
13
-15.121507
23
231.135834
33
113.764580
0
3DFACE
8
0
70
0
10
-32.333500
20
242.626190
30
115.002640
11
-24.856298
21
259.674896
31
112.608627
12
-52.728455
22
241.330902
32
96.495125
13
-52.728455
23
241.330902
33
96.495125
0
3DFACE
8
0
70
0
10
-24.856298
20
259.674896
30
112.608627
11
-27.222488
21
261.095551
31
98.608398
12
-52.728455
22
241.330902
32
96.495125
13
-52.728455
23
241.330902
33
96.495125
0
3DFACE
8
0
70
0
10
-52.728455
20
241.330902
30
96.495125
11
-27.222488
21
261.095551
31
98.608398
12
-34.330498
22
238.269592
32
104.917747
13
-34.330498
23
238.269592
33
104.917747
0
3DFACE
8
0
70
0
10
-34.330498
20
238.269592
30
104.917747
11
-32.333500
21
242.626190
31
115.002640
12
-52.728455
22
241.330902
32
96.495125
13
-52.728455
23
241.330902
33
96.495125
0
3DFACE
8
0
70
0
10
-59.069607
20
312.268158
30
77.303604
11
-63.643024
21
298.267792
31
42.134319
12
-60.337482
22
297.277008
32
41.790794
13
-46.904068
23
301.928894
33
78.312500
0
3DFACE
8
0
70
0
10
-46.904068
20
301.928894
30
78.312500
11
-60.337482
21
297.277008
31
41.790794
12
-61.841892
22
290.008636
32
42.462151
13
-44.931316
23
290.824768
33
78.655991
0
3DFACE
8
0
70
0
10
-44.931316
20
290.824768
30
78.655991
11
-61.841892
21
290.008636
31
42.462151
12
-61.863674
22
276.814697
32
44.641083
13
-47.373085
23
277.725616
33
78.504814
0
3DFACE
8
0
70
0
10
-63.643024
20
298.267792
30
42.134319
11
-46.133408
21
288.039948
31
17.909962
12
-43.547279
22
293.921844
32
15.760640
13
-60.337482
23
297.277008
33
41.790794
0
3DFACE
8
0
70
0
10
-61.841892
20
290.008636
30
42.462151
11
-60.337482
21
297.277008
31
41.790794
12
-43.547279
22
293.921844
32
15.760640
13
-45.859642
23
293.688019
33
12.672510
0
3DFACE
8
0
70
0
10
-61.863674
20
276.814697
30
44.641083
11
-61.841892
21
290.008636
31
42.462151
12
-45.859642
22
293.688019
32
12.672510
13
-43.114864
23
281.990967
33
11.188781
0
3DFACE
8
0
70
0
10
-46.133408
20
288.039948
30
17.909962
11
-1.128893
21
282.015381
31
-0.919919
12
-1.128893
22
292.994965
32
-1.266271
13
-43.547279
23
293.921844
33
15.760640
0
3DFACE
8
0
70
0
10
-45.859642
20
293.688019
30
12.672510
11
-43.547279
21
293.921844
31
15.760640
12
-1.128893
22
292.994965
32
-1.266271
13
-1.128892
23
293.613861
33
-2.405132
0
3DFACE
8
0
70
0
10
-43.114864
20
281.990967
30
11.188781
11
-45.859642
21
293.688019
31
12.672510
12
-1.128892
22
293.613861
32
-2.405132
13
-1.128892
23
279.737640
33
-0.945824
0
3DFACE
8
0
70
0
10
-55.098778
20
238.648804
30
50.112881
11
-55.768127
21
246.014282
31
81.297020
12
-52.044903
22
257.272339
32
78.126740
13
-61.427319
23
255.260437
33
46.003769
0
3DFACE
8
0
70
0
10
-47.373085
20
277.725616
30
78.504814
11
-61.863674
21
276.814697
31
44.641083
12
-50.439159
22
268.202240
32
77.948036
13
-50.439159
23
268.202240
33
77.948036
0
3DFACE
8
0
70
0
10
-52.044903
20
257.272339
30
78.126740
11
-50.439159
21
268.202240
31
77.948036
12
-61.863674
22
276.814697
32
44.641083
13
-61.427319
23
255.260437
33
46.003769
0
3DFACE
8
0
70
0
10
-61.427319
20
255.260437
30
46.003769
11
-61.863674
21
276.814697
31
44.641083
12
-43.114864
22
281.990967
32
11.188781
13
-42.322147
23
264.003296
33
14.099627
0
3DFACE
8
0
70
0
10
-42.322147
20
264.003296
30
14.099627
11
-43.114864
21
281.990967
31
11.188781
12
-1.128892
22
279.737640
32
-0.945824
13
-1.128892
23
262.377594
33
3.485335
0
3DFACE
8
0
70
0
10
-1.128892
20
325.614410
30
109.132690
11
-1.128891
21
353.372498
31
100.909317
12
-20.528490
22
352.842194
32
94.771088
13
-18.171663
23
332.892090
33
103.280403
0
3DFACE
8
0
70
0
10
-1.128891
20
353.372498
30
100.909317
11
-1.128891
21
355.895813
31
96.704758
12
-20.917154
22
354.038513
32
89.505417
13
-20.528490
23
352.842194
33
94.771088
0
3DFACE
8
0
70
0
10
-18.171663
20
332.892090
30
103.280403
11
-20.528490
21
352.842194
31
94.771088
12
-47.019810
22
348.105347
32
82.321808
13
-33.112400
23
322.529663
33
94.107391
0
3DFACE
8
0
70
0
10
-20.528490
20
352.842194
30
94.771088
11
-20.917154
21
354.038513
31
89.505417
12
-45.777458
22
349.774872
32
77.256470
13
-47.019810
23
348.105347
33
82.321808
0
3DFACE
8
0
70
0
10
-33.112400
20
322.529663
30
94.107391
11
-47.019810
21
348.105347
31
82.321808
12
-63.116669
22
333.878113
32
53.999737
13
-59.069607
23
312.268158
33
77.303604
0
3DFACE
8
0
70
0
10
-47.019810
20
348.105347
30
82.321808
11
-45.777458
21
349.774872
31
77.256470
12
-54.817989
22
337.556030
32
51.782856
13
-63.116669
23
333.878113
33
53.999737
0
3DFACE
8
0
70
0
10
-59.069607
20
312.268158
30
77.303604
11
-63.116669
21
333.878113
31
53.999737
12
-67.642357
22
326.584503
32
29.168756
13
-63.643024
23
298.267792
33
42.134319
0
3DFACE
8
0
70
0
10
-63.116669
20
333.878113
30
53.999737
11
-54.817989
21
337.556030
31
51.782856
12
-61.087929
22
329.571930
32
29.993462
13
-67.642357
23
326.584503
33
29.168756
0
3DFACE
8
0
70
0
10
-63.643024
20
298.267792
30
42.134319
11
-67.642357
21
326.584503
31
29.168756
12
-47.028736
22
314.278778
32
8.514863
13
-46.133408
23
288.039948
33
17.909962
0
3DFACE
8
0
70
0
10
-67.642357
20
326.584503
30
29.168756
11
-61.087929
21
329.571930
31
29.993462
12
-41.500019
22
319.342865
32
10.955944
13
-47.028736
23
314.278778
33
8.514863
0
3DFACE
8
0
70
0
10
-46.133408
20
288.039948
30
17.909962
11
-47.028736
21
314.278778
31
8.514863
12
-1.128892
22
306.176910
32
-9.964874
13
-1.128893
23
282.015381
33
-0.919919
0
3DFACE
8
0
70
0
10
-47.028736
20
314.278778
30
8.514863
11
-41.500019
21
319.342865
31
10.955944
12
-1.128892
22
310.960449
32
-6.661608
13
-1.128892
23
306.176910
33
-9.964874
0
3DFACE
8
0
70
0
10
-55.098778
20
238.648804
30
50.112881
11
-61.427319
21
255.260437
31
46.003769
12
-42.322147
22
264.003296
32
14.099627
13
-39.053307
23
218.918213
33
31.855993
0
3DFACE
8
0
70
0
10
-39.053307
20
218.918213
30
31.855993
11
-42.322147
21
264.003296
31
14.099627
12
-1.128892
22
262.377594
32
3.485335
13
-1.437430
23
213.808655
33
8.887280
0
3DFACE
8
0
70
0
10
-45.020710
20
209.001343
30
66.107307
11
-55.098778
21
238.648804
31
50.112881
12
-39.053307
22
218.918213
32
31.855993
13
-32.184235
23
218.938354
33
60.032959
0
3DFACE
8
0
70
0
10
-21.488928
20
182.999817
30
97.859222
11
-45.020710
21
209.001343
31
66.107307
12
-32.184235
22
218.938354
32
60.032959
13
-19.069983
23
183.692078
33
81.952538
0
3DFACE
8
0
70
0
10
-19.069983
20
183.692078
30
81.952538
11
-32.184235
21
218.938354
31
60.032959
12
-1.128892
22
204.094635
32
56.009388
13
-1.128892
23
182.057953
33
77.656464
0
3DFACE
8
0
70
0
10
-1.128892
20
170.482666
30
101.101158
11
-19.069983
21
183.692078
31
81.952538
12
-1.128892
22
182.057953
32
77.656464
13
-1.128892
23
182.057953
33
77.656464
0
3DFACE
8
0
70
0
10
-1.128892
20
170.482666
30
101.101158
11
-21.488928
21
182.999817
31
97.859222
12
-19.069983
22
183.692078
32
81.952538
13
-19.069983
23
183.692078
33
81.952538
0
3DFACE
8
0
70
0
10
-4.713947
20
293.174255
30
106.939919
11
-1.128892
21
292.926849
31
110.144325
12
-1.128892
22
307.970795
32
108.648834
13
-4.713947
23
302.291534
33
106.095718
0
3DFACE
8
0
70
0
10
-15.962464
20
291.170319
30
102.640160
11
-15.929572
21
288.983276
31
104.835991
12
-1.128892
22
292.926849
32
110.144325
13
-4.713947
23
293.174255
33
106.939919
0
3DFACE
8
0
70
0
10
-16.861820
20
310.663422
30
104.469688
11
-4.713947
21
302.291534
31
106.095718
12
-1.128892
22
307.970795
32
108.648834
13
-16.602972
23
316.114380
33
106.173973
0
3DFACE
8
0
70
0
10
-15.962464
20
291.170319
30
102.640160
11
-25.051950
21
292.104858
31
97.547935
12
-27.889421
22
290.264160
32
98.549278
13
-15.929572
23
288.983276
33
104.835991
0
3DFACE
8
0
70
0
10
-25.051950
20
292.104858
30
97.547935
11
-28.798952
21
302.294708
31
94.654114
12
-32.819691
22
307.153290
32
94.645355
13
-27.889421
23
290.264160
33
98.549278
0
3DFACE
8
0
70
0
10
-16.861820
20
310.663422
30
104.469688
11
-16.602972
21
316.114380
31
106.173973
12
-32.819691
22
307.153290
32
94.645355
13
-28.798952
23
302.294708
33
94.654114
0
3DFACE
8
0
70
0
10
15.255781
20
309.968262
30
104.268639
11
14.748909
21
315.313934
31
106.220955
12
-1.128892
22
307.970795
32
108.648834
13
2.909300
23
302.410797
33
106.276031
0
3DFACE
8
0
70
0
10
13.938767
20
290.557922
30
102.009949
11
2.909300
21
292.906189
31
107.318275
12
-1.128892
22
292.926849
32
110.144325
13
13.671786
23
288.983276
33
104.835991
0
3DFACE
8
0
70
0
10
2.909300
20
292.906189
30
107.318275
11
2.909300
21
302.410797
31
106.276031
12
-1.128892
22
307.970795
32
108.648834
13
-1.128892
23
292.926849
33
110.144325
0
3DFACE
8
0
70
0
10
15.255781
20
309.968262
30
104.268639
11
27.175125
21
302.414185
31
92.150620
12
31.433943
22
307.153290
32
94.645355
13
14.748909
23
315.313934
33
106.220955
0
3DFACE
8
0
70
0
10
23.501091
20
291.553955
30
95.723228
11
26.503675
21
290.264160
31
98.549278
12
31.433943
22
307.153290
32
94.645355
13
27.175125
23
302.414185
33
92.150620
0
3DFACE
8
0
70
0
10
13.938767
20
290.557922
30
102.009949
11
13.671786
21
288.983276
31
104.835991
12
26.503675
22
290.264160
32
98.549278
13
23.501091
23
291.553955
33
95.723228
0
3DFACE
8
0
70
0
10
-1.437430
20
213.808655
30
8.887280
11
36.430756
21
218.918213
31
31.855993
12
59.466797
22
191.293152
32
2.080998
13
-1.391268
23
216.375732
33
5.078217
0
3DFACE
8
0
70
0
10
-1.391268
20
216.375732
30
5.078217
11
-62.314754
21
192.173279
31
1.255015
12
-39.053307
22
218.918213
32
31.855993
13
-1.437430
23
213.808655
33
8.887280
0
3DFACE
8
0
70
0
10
-62.314754
20
192.173279
30
1.255015
11
-56.008705
21
189.714233
31
59.291286
12
-39.053307
22
218.918213
32
31.855993
13
-39.053307
23
218.918213
33
31.855993
0
3DFACE
8
0
70
0
10
-56.008705
20
189.714233
30
59.291286
11
-32.184235
21
218.938354
31
60.032959
12
-39.053307
22
218.918213
32
31.855993
13
-39.053307
23
218.918213
33
31.855993
0
3DFACE
8
0
70
0
10
53.541096
20
189.714233
30
59.291286
11
36.430756
21
218.918213
31
31.855993
12
30.003225
22
218.938354
32
60.032959
13
30.003225
23
218.938354
33
60.032959
0
3DFACE
8
0
70
0
10
59.466797
20
191.293152
30
2.080998
11
36.430756
21
218.918213
31
31.855993
12
53.541096
22
189.714233
32
59.291286
13
53.541096
23
189.714233
33
59.291286
0
3DFACE
8
0
70
0
10
-1.052113
20
207.529480
30
67.180084
11
-32.184235
21
218.938354
31
60.032959
12
-56.008705
22
189.714233
32
59.291286
13
-56.008705
23
189.714233
33
59.291286
0
3DFACE
8
0
70
0
10
-1.128892
20
204.094635
30
56.009388
11
-32.184235
21
218.938354
31
60.032959
12
-1.052113
22
207.529480
32
67.180084
13
-1.052113
23
207.529480
33
67.180084
0
3DFACE
8
0
70
0
10
-1.128892
20
204.094635
30
56.009388
11
-1.052113
21
207.529480
31
67.180084
12
30.003225
22
218.938354
32
60.032959
13
30.003225
23
218.938354
33
60.032959
0
3DFACE
8
0
70
0
10
-1.052113
20
207.529480
30
67.180084
11
53.541096
21
189.714233
31
59.291286
12
30.003225
22
218.938354
32
60.032959
13
30.003225
23
218.938354
33
60.032959
0
3DFACE
8
0
70
0
10
-1.128892
20
310.960449
30
-6.661608
11
-1.156890
21
371.624756
31
2.766392
12
14.813297
22
375.033569
32
9.419987
13
39.242229
23
319.342865
33
10.955944
0
3DFACE
8
0
70
0
10
39.242229
20
319.342865
30
10.955944
11
14.813297
21
375.033569
31
9.419987
12
25.530966
22
380.093567
32
19.296305
13
58.830154
23
329.571930
33
29.993462
0
3DFACE
8
0
70
0
10
58.830154
20
329.571930
30
29.993462
11
25.530966
21
380.093567
31
19.296305
12
23.078602
22
385.269836
32
29.399717
13
52.560215
23
337.556030
33
51.782856
0
3DFACE
8
0
70
0
10
52.560215
20
337.556030
30
51.782856
11
23.078602
21
385.269836
31
29.399717
12
20.399979
22
391.686890
32
41.924984
13
43.519684
23
349.774872
33
77.256470
0
3DFACE
8
0
70
0
10
-1.128891
20
355.895813
30
96.704758
11
18.659369
21
354.038513
31
89.505417
12
8.469619
22
394.802429
32
48.006191
13
-1.156888
23
396.620667
33
51.555176
0
3DFACE
8
0
70
0
10
-1.128892
20
310.960449
30
-6.661608
11
-41.500019
21
319.342865
31
10.955944
12
-17.127077
22
375.033569
32
9.419986
13
-1.156890
23
371.624756
33
2.766392
0
3DFACE
8
0
70
0
10
-41.500019
20
319.342865
30
10.955944
11
-61.087929
21
329.571930
31
29.993462
12
-27.844738
22
380.093567
32
19.296303
13
-17.127077
23
375.033569
33
9.419986
0
3DFACE
8
0
70
0
10
-61.087929
20
329.571930
30
29.993462
11
-54.817989
21
337.556030
31
51.782856
12
-25.392382
22
385.269836
32
29.399715
13
-27.844738
23
380.093567
33
19.296303
0
3DFACE
8
0
70
0
10
-54.817989
20
337.556030
30
51.782856
11
-45.777458
21
349.774872
31
77.256470
12
-22.713753
22
391.686890
32
41.924980
13
-25.392382
23
385.269836
33
29.399715
0
3DFACE
8
0
70
0
10
-1.128891
20
355.895813
30
96.704758
11
-1.156888
21
396.620667
31
51.555176
12
-10.783396
22
394.802429
32
48.006191
13
-20.917154
23
354.038513
33
89.505417
0
3DFACE
8
0
70
0
10
43.519684
20
349.774872
30
77.256470
11
20.399979
21
391.686890
31
41.924984
12
8.469619
22
394.802429
32
48.006191
13
18.659369
23
354.038513
33
89.505417
0
3DFACE
8
0
70
0
10
-45.777458
20
349.774872
30
77.256470
11
-20.917154
21
354.038513
31
89.505417
12
-10.783396
22
394.802429
32
48.006191
13
-22.713753
23
391.686890
33
41.924980
0
3DFACE
8
0
70
0
10
-1.198736
20
437.829895
30
5.971840
11
12.410189
21
439.520935
31
-3.455493
12
-1.198733
22
445.151794
32
-8.355412
13
-1.198733
23
445.151794
33
-8.355412
0
3DFACE
8
0
70
0
10
12.410187
20
428.259338
30
6.344263
11
12.410189
21
439.520935
31
-3.455493
12
-1.198736
22
437.829895
32
5.971840
13
-1.198736
23
437.829895
33
5.971840
0
3DFACE
8
0
70
0
10
-1.198737
20
422.628479
30
11.244140
11
12.410187
21
428.259338
31
6.344263
12
-1.198736
22
437.829895
32
5.971840
13
-1.198736
23
437.829895
33
5.971840
0
3DFACE
8
0
70
0
10
-1.198737
20
422.628479
30
11.244140
11
-1.198736
21
437.829895
31
5.971840
12
-14.807627
22
428.259338
32
6.344261
13
-14.807627
23
428.259338
33
6.344261
0
3DFACE
8
0
70
0
10
-14.807627
20
428.259338
30
6.344261
11
-1.198736
21
437.829895
31
5.971840
12
-14.807625
22
439.520935
32
-3.455494
13
-14.807625
23
439.520935
33
-3.455494
0
3DFACE
8
0
70
0
10
-1.198736
20
437.829895
30
5.971840
11
-1.198733
21
445.151794
31
-8.355412
12
-14.807625
22
439.520935
32
-3.455494
13
-14.807625
23
439.520935
33
-3.455494
0
3DFACE
8
0
70
0
10
12.410189
20
439.520935
30
-3.455493
11
18.047163
21
432.341980
31
-16.415371
12
-1.198730
22
440.305115
32
-23.344852
13
-1.198733
23
445.151794
33
-8.355412
0
3DFACE
8
0
70
0
10
18.047159
20
416.415588
30
-2.556370
11
18.047163
21
432.341980
31
-16.415371
12
12.410189
22
439.520935
32
-3.455493
13
12.410187
23
428.259338
33
6.344263
0
3DFACE
8
0
70
0
10
-1.198736
20
408.452454
30
4.373089
11
18.047159
21
416.415588
31
-2.556370
12
12.410187
22
428.259338
32
6.344263
13
-1.198737
23
422.628479
33
11.244140
0
3DFACE
8
0
70
0
10
-1.198736
20
408.452454
30
4.373089
11
-1.198737
21
422.628479
31
11.244140
12
-14.807627
22
428.259338
32
6.344261
13
-20.444633
23
416.415588
33
-2.556370
0
3DFACE
8
0
70
0
10
-20.444633
20
416.415588
30
-2.556370
11
-14.807627
21
428.259338
31
6.344261
12
-14.807625
22
439.520935
32
-3.455494
13
-20.444630
23
432.341980
33
-16.415371
0
3DFACE
8
0
70
0
10
-14.807625
20
439.520935
30
-3.455494
11
-1.198733
21
445.151794
31
-8.355412
12
-1.198730
22
440.305115
32
-23.344852
13
-20.444630
23
432.341980
33
-16.415371
0
3DFACE
8
0
70
0
10
12.410192
20
420.498108
30
-25.315966
11
-1.198728
21
426.128967
31
-30.215883
12
-1.198730
22
440.305115
32
-23.344852
13
18.047163
23
432.341980
33
-16.415371
0
3DFACE
8
0
70
0
10
18.047159
20
416.415588
30
-2.556370
11
12.410190
21
409.236511
31
-15.516210
12
12.410192
22
420.498108
32
-25.315966
13
18.047163
23
432.341980
33
-16.415371
0
3DFACE
8
0
70
0
10
-1.198736
20
408.452454
30
4.373089
11
-1.198732
21
403.605774
31
-10.616332
12
12.410190
22
409.236511
32
-15.516210
13
18.047159
23
416.415588
33
-2.556370
0
3DFACE
8
0
70
0
10
-1.198736
20
408.452454
30
4.373089
11
-20.444633
21
416.415588
31
-2.556370
12
-14.807622
22
409.236511
32
-15.516212
13
-1.198732
23
403.605774
33
-10.616332
0
3DFACE
8
0
70
0
10
-20.444633
20
416.415588
30
-2.556370
11
-20.444630
21
432.341980
31
-16.415371
12
-14.807620
22
420.498108
32
-25.315968
13
-14.807622
23
409.236511
33
-15.516212
0
3DFACE
8
0
70
0
10
-14.807620
20
420.498108
30
-25.315968
11
-20.444630
21
432.341980
31
-16.415371
12
-1.198730
22
440.305115
32
-23.344852
13
-1.198728
23
426.128967
33
-30.215883
0
3DFACE
8
0
70
0
10
-1.198739
20
410.927551
30
-24.943550
11
-1.198728
21
426.128967
31
-30.215883
12
12.410192
22
420.498108
32
-25.315966
13
12.410192
23
420.498108
33
-25.315966
0
3DFACE
8
0
70
0
10
12.410190
20
409.236511
30
-15.516210
11
-1.198739
21
410.927551
31
-24.943550
12
12.410192
22
420.498108
32
-25.315966
13
12.410192
23
420.498108
33
-25.315966
0
3DFACE
8
0
70
0
10
-1.198732
20
403.605774
30
-10.616332
11
-1.198739
21
410.927551
31
-24.943550
12
12.410190
22
409.236511
32
-15.516210
13
12.410190
23
409.236511
33
-15.516210
0
3DFACE
8
0
70
0
10
-1.198732
20
403.605774
30
-10.616332
11
-14.807622
21
409.236511
31
-15.516212
12
-1.198739
22
410.927551
32
-24.943550
13
-1.198739
23
410.927551
33
-24.943550
0
3DFACE
8
0
70
0
10
-14.807622
20
409.236511
30
-15.516212
11
-14.807620
21
420.498108
31
-25.315968
12
-1.198739
22
410.927551
32
-24.943550
13
-1.198739
23
410.927551
33
-24.943550
0
3DFACE
8
0
70
0
10
-1.198739
20
410.927551
30
-24.943550
11
-14.807620
21
420.498108
31
-25.315968
12
-1.198728
22
426.128967
32
-30.215883
13
-1.198728
23
426.128967
33
-30.215883
0
3DFACE
8
0
70
0
10
24.964703
20
261.095551
30
98.608398
11
48.181377
21
268.202240
31
77.948036
12
36.461323
22
276.908875
32
101.725830
13
36.461323
23
276.908875
33
101.725830
0
3DFACE
8
0
70
0
10
48.181377
20
268.202240
30
77.948036
11
45.115303
21
277.725616
31
78.504814
12
36.461323
22
276.908875
32
101.725830
13
36.461323
23
276.908875
33
101.725830
0
3DFACE
8
0
70
0
10
10.337568
20
258.475159
30
104.511536
11
24.964703
21
261.095551
31
98.608398
12
21.829563
22
277.062225
32
104.760262
13
21.829563
23
277.062225
33
104.760262
0
3DFACE
8
0
70
0
10
24.964703
20
261.095551
30
98.608398
11
36.461323
21
276.908875
31
101.725830
12
21.829563
22
277.062225
32
104.760262
13
21.829563
23
277.062225
33
104.760262
0
3DFACE
8
0
70
0
10
36.461323
20
276.908875
30
101.725830
11
45.115303
21
277.725616
31
78.504814
12
26.503675
22
290.264160
32
98.549278
13
26.503675
23
290.264160
33
98.549278
0
3DFACE
8
0
70
0
10
45.115303
20
277.725616
30
78.504814
11
42.673527
21
290.824799
31
78.655991
12
26.503675
22
290.264160
32
98.549278
13
26.503675
23
290.264160
33
98.549278
0
3DFACE
8
0
70
0
10
21.829563
20
277.062225
30
104.760262
11
26.503675
21
290.264160
31
98.549278
12
13.671786
22
288.983276
32
104.835991
13
13.671786
23
288.983276
33
104.835991
0
3DFACE
8
0
70
0
10
36.461323
20
276.908875
30
101.725830
11
26.503675
21
290.264160
31
98.549278
12
21.829563
22
277.062225
32
104.760262
13
21.829563
23
277.062225
33
104.760262
0
3DFACE
8
0
70
0
10
26.503675
20
290.264160
30
98.549278
11
42.673527
21
290.824799
31
78.655991
12
31.433943
22
307.153290
32
94.645355
13
31.433943
23
307.153290
33
94.645355
0
3DFACE
8
0
70
0
10
42.673527
20
290.824799
30
78.655991
11
44.646282
21
301.928894
31
78.312500
12
31.433943
22
307.153290
32
94.645355
13
31.433943
23
307.153290
33
94.645355
0
3DFACE
8
0
70
0
10
-50.439159
20
268.202240
30
77.948036
11
-38.719109
21
276.908875
31
101.725830
12
-47.373085
22
277.725616
32
78.504814
13
-47.373085
23
277.725616
33
78.504814
0
3DFACE
8
0
70
0
10
-27.222488
20
261.095551
30
98.608398
11
-38.719109
21
276.908875
31
101.725830
12
-50.439159
22
268.202240
32
77.948036
13
-50.439159
23
268.202240
33
77.948036
0
3DFACE
8
0
70
0
10
-27.222488
20
261.095551
30
98.608398
11
-24.087347
21
277.062225
31
104.760262
12
-38.719109
22
276.908875
32
101.725830
13
-38.719109
23
276.908875
33
101.725830
0
3DFACE
8
0
70
0
10
-12.595353
20
258.475159
30
104.511536
11
-24.087347
21
277.062225
31
104.760262
12
-27.222488
22
261.095551
32
98.608398
13
-27.222488
23
261.095551
33
98.608398
0
3DFACE
8
0
70
0
10
-47.373085
20
277.725616
30
78.504814
11
-27.889421
21
290.264160
31
98.549278
12
-44.931316
22
290.824768
32
78.655991
13
-44.931316
23
290.824768
33
78.655991
0
3DFACE
8
0
70
0
10
-38.719109
20
276.908875
30
101.725830
11
-27.889421
21
290.264160
31
98.549278
12
-47.373085
22
277.725616
32
78.504814
13
-47.373085
23
277.725616
33
78.504814
0
3DFACE
8
0
70
0
10
-24.087347
20
277.062225
30
104.760262
11
-15.929572
21
288.983276
31
104.835991
12
-27.889421
22
290.264160
32
98.549278
13
-27.889421
23
290.264160
33
98.549278
0
3DFACE
8
0
70
0
10
-38.719109
20
276.908875
30
101.725830
11
-24.087347
21
277.062225
31
104.760262
12
-27.889421
22
290.264160
32
98.549278
13
-27.889421
23
290.264160
33
98.549278
0
3DFACE
8
0
70
0
10
-44.931316
20
290.824768
30
78.655991
11
-32.819691
21
307.153290
31
94.645355
12
-46.904068
22
301.928894
32
78.312500
13
-46.904068
23
301.928894
33
78.312500
0
3DFACE
8
0
70
0
10
-27.889421
20
290.264160
30
98.549278
11
-32.819691
21
307.153290
31
94.645355
12
-44.931316
22
290.824768
32
78.655991
13
-44.931316
23
290.824768
33
78.655991
0
3DFACE
8
0
70
0
10
17.270769
20
23.800598
30
38.170067
11
18.564972
21
46.999451
31
22.566261
12
19.357378
22
40.599457
32
-5.180390
13
19.357378
23
40.599457
33
-5.180390
0
3DFACE
8
0
70
0
10
17.270769
20
23.800598
30
38.170067
11
19.357378
21
40.599457
31
-5.180390
12
17.320705
22
22.165009
32
12.702148
13
17.320705
23
22.165009
33
12.702148
0
3DFACE
8
0
70
0
10
17.270769
20
23.800598
30
38.170067
11
61.272560
21
47.343536
31
27.420872
12
18.564972
22
46.999451
32
22.566261
13
18.564972
23
46.999451
33
22.566261
0
3DFACE
8
0
70
0
10
17.270769
20
23.800598
30
38.170067
11
54.052063
21
24.413803
31
41.819199
12
61.272560
22
47.343536
32
27.420872
13
61.272560
23
47.343536
33
27.420872
0
3DFACE
8
0
70
0
10
54.052063
20
24.413803
30
41.819199
11
76.620758
21
44.152542
31
14.762872
12
61.272560
22
47.343536
32
27.420872
13
61.272560
23
47.343536
33
27.420872
0
3DFACE
8
0
70
0
10
54.052063
20
24.413803
30
41.819199
11
67.502983
21
23.800278
31
30.112766
12
76.620758
22
44.152542
32
14.762872
13
76.620758
23
44.152542
33
14.762872
0
3DFACE
8
0
70
0
10
32.686897
20
20.957947
30
-8.550186
11
19.357378
21
40.599457
31
-5.180390
12
35.466145
22
34.871857
32
-28.800465
13
35.466145
23
34.871857
33
-28.800465
0
3DFACE
8
0
70
0
10
17.320705
20
22.165009
30
12.702148
11
19.357378
21
40.599457
31
-5.180390
12
32.686897
22
20.957947
32
-8.550186
13
32.686897
23
20.957947
33
-8.550186
0
3DFACE
8
0
70
0
10
64.072548
20
22.566071
30
11.451031
11
72.258324
21
39.460602
31
-5.967505
12
76.620758
22
44.152542
32
14.762872
13
76.620758
23
44.152542
33
14.762872
0
3DFACE
8
0
70
0
10
67.502983
20
23.800278
30
30.112766
11
64.072548
21
22.566071
31
11.451031
12
76.620758
22
44.152542
32
14.762872
13
76.620758
23
44.152542
33
14.762872
0
3DFACE
8
0
70
0
10
32.686897
20
20.957947
30
-8.550186
11
35.466145
21
34.871857
31
-28.800465
12
72.258324
22
39.460602
32
-5.967505
13
72.258324
23
39.460602
33
-5.967505
0
3DFACE
8
0
70
0
10
64.072548
20
22.566071
30
11.451031
11
32.686897
21
20.957947
31
-8.550186
12
72.258324
22
39.460602
32
-5.967505
13
72.258324
23
39.460602
33
-5.967505
0
3DFACE
8
0
70
0
10
-32.574684
20
-26.243462
30
2.160543
11
-19.986790
21
-29.556145
31
-15.102033
12
-16.880671
22
0.089630
32
-16.627783
13
-16.880671
23
0.089630
33
-16.627783
0
3DFACE
8
0
70
0
10
-32.574684
20
-26.243462
30
2.160543
11
-16.880671
21
0.089630
31
-16.627783
12
-30.916006
22
-12.430359
32
2.826899
13
-30.916006
23
-12.430359
33
2.826899
0
3DFACE
8
0
70
0
10
-32.574684
20
-26.243462
30
2.160543
11
-30.916006
21
-12.430359
31
2.826899
12
-68.421867
22
-11.180786
32
-18.544355
13
-68.421867
23
-11.180786
33
-18.544355
0
3DFACE
8
0
70
0
10
-32.574684
20
-26.243462
30
2.160543
11
-68.421867
21
-11.180786
31
-18.544355
12
-64.682846
22
-26.461494
32
-16.588192
13
-64.682846
23
-26.461494
33
-16.588192
0
3DFACE
8
0
70
0
10
-64.682846
20
-26.461494
30
-16.588192
11
-68.421867
21
-11.180786
31
-18.544355
12
-74.278793
22
-4.265900
32
-36.085369
13
-74.278793
23
-4.265900
33
-36.085369
0
3DFACE
8
0
70
0
10
-64.682846
20
-26.461494
30
-16.588192
11
-74.278793
21
-4.265900
31
-36.085369
12
-69.958076
22
-28.237015
32
-32.269199
13
-69.958076
23
-28.237015
33
-32.269199
0
3DFACE
8
0
70
0
10
-22.106098
20
-32.609039
30
-38.347477
11
-17.558628
21
11.986801
31
-42.113663
12
-16.880671
22
0.089630
32
-16.627783
13
-16.880671
23
0.089630
33
-16.627783
0
3DFACE
8
0
70
0
10
-19.986790
20
-29.556145
30
-15.102033
11
-22.106098
21
-32.609039
31
-38.347477
12
-16.880671
22
0.089630
32
-16.627783
13
-16.880671
23
0.089630
33
-16.627783
0
3DFACE
8
0
70
0
10
-69.958076
20
-28.237015
30
-32.269199
11
-74.278793
21
-4.265900
31
-36.085369
12
-57.878269
22
-30.599113
32
-42.918407
13
-57.878269
23
-30.599113
33
-42.918407
0
3DFACE
8
0
70
0
10
-57.878269
20
-30.599113
30
-42.918407
11
-74.278793
21
-4.265900
31
-36.085369
12
-59.739571
22
4.690369
32
-47.755718
13
-59.739571
23
4.690369
33
-47.755718
0
3DFACE
8
0
70
0
10
-57.878269
20
-30.599113
30
-42.918407
11
-59.739571
21
4.690369
31
-47.755718
12
-22.106098
22
-32.609039
32
-38.347477
13
-22.106098
23
-32.609039
33
-38.347477
0
3DFACE
8
0
70
0
10
-22.106098
20
-32.609039
30
-38.347477
11
-59.739571
21
4.690369
31
-47.755718
12
-17.558628
22
11.986801
32
-42.113663
13
-17.558628
23
11.986801
33
-42.113663
0
3DFACE
8
0
70
0
10
25.640388
20
2.529541
30
19.156576
11
17.270769
21
23.800598
31
38.170067
12
17.320705
22
22.165009
32
12.702148
13
17.320705
23
22.165009
33
12.702148
0
3DFACE
8
0
70
0
10
26.328550
20
-20.610718
30
-12.581439
11
25.640388
21
2.529541
31
19.156576
12
17.320705
22
22.165009
32
12.702148
13
17.320705
23
22.165009
33
12.702148
0
3DFACE
8
0
70
0
10
61.151466
20
-1.813126
30
17.961559
11
54.052063
21
24.413803
31
41.819199
12
25.640388
22
2.529541
32
19.156576
13
25.640388
23
2.529541
33
19.156576
0
3DFACE
8
0
70
0
10
25.640388
20
2.529541
30
19.156576
11
54.052063
21
24.413803
31
41.819199
12
17.270769
22
23.800598
32
38.170067
13
17.270769
23
23.800598
33
38.170067
0
3DFACE
8
0
70
0
10
74.154068
20
-20.492935
30
0.384339
11
67.502983
21
23.800278
31
30.112766
12
61.151466
22
-1.813126
32
17.961559
13
61.151466
23
-1.813126
33
17.961559
0
3DFACE
8
0
70
0
10
61.151466
20
-1.813126
30
17.961559
11
67.502983
21
23.800278
31
30.112766
12
54.052063
22
24.413803
32
41.819199
13
54.052063
23
24.413803
33
41.819199
0
3DFACE
8
0
70
0
10
26.328550
20
-20.610718
30
-12.581439
11
17.320705
21
22.165009
31
12.702148
12
32.686897
22
20.957947
32
-8.550186
13
32.686897
23
20.957947
33
-8.550186
0
3DFACE
8
0
70
0
10
18.323769
20
-45.177994
30
-48.686134
11
26.328550
21
-20.610718
31
-12.581439
12
32.686897
22
20.957947
32
-8.550186
13
32.686897
23
20.957947
33
-8.550186
0
3DFACE
8
0
70
0
10
88.357155
20
-44.118843
30
-27.625521
11
64.072548
21
22.566071
31
11.451031
12
74.154068
22
-20.492935
32
0.384339
13
74.154068
23
-20.492935
33
0.384339
0
3DFACE
8
0
70
0
10
74.154068
20
-20.492935
30
0.384339
11
64.072548
21
22.566071
31
11.451031
12
67.502983
22
23.800278
32
30.112766
13
67.502983
23
23.800278
33
30.112766
0
3DFACE
8
0
70
0
10
18.323769
20
-45.177994
30
-48.686134
11
32.686897
21
20.957947
31
-8.550186
12
88.357155
22
-44.118843
32
-27.625521
13
88.357155
23
-44.118843
33
-27.625521
0
3DFACE
8
0
70
0
10
88.357155
20
-44.118843
30
-27.625521
11
32.686897
21
20.957947
31
-8.550186
12
64.072548
22
22.566071
32
11.451031
13
64.072548
23
22.566071
33
11.451031
0
3DFACE
8
0
70
0
10
-30.257603
20
-88.685959
30
-8.681623
11
-19.986790
21
-29.556145
31
-15.102033
12
-35.186127
22
-52.163849
32
2.643355
13
-35.186127
23
-52.163849
33
2.643355
0
3DFACE
8
0
70
0
10
-35.186127
20
-52.163849
30
2.643355
11
-19.986790
21
-29.556145
31
-15.102033
12
-32.574684
22
-26.243462
32
2.160543
13
-32.574684
23
-26.243462
33
2.160543
0
3DFACE
8
0
70
0
10
-35.186127
20
-52.163849
30
2.643355
11
-32.574684
21
-26.243462
31
2.160543
12
-64.682846
22
-26.461494
32
-16.588192
13
-64.682846
23
-26.461494
33
-16.588192
0
3DFACE
8
0
70
0
10
-67.640251
20
-58.601860
30
-12.479508
11
-35.186127
21
-52.163849
31
2.643355
12
-64.682846
22
-26.461494
32
-16.588192
13
-64.682846
23
-26.461494
33
-16.588192
0
3DFACE
8
0
70
0
10
-67.640251
20
-58.601860
30
-12.479508
11
-64.682846
21
-26.461494
31
-16.588192
12
-69.958076
22
-28.237015
32
-32.269199
13
-69.958076
23
-28.237015
33
-32.269199
0
3DFACE
8
0
70
0
10
-77.679527
20
-83.862259
30
-21.601524
11
-67.640251
21
-58.601860
31
-12.479508
12
-69.958076
22
-28.237015
32
-32.269199
13
-69.958076
23
-28.237015
33
-32.269199
0
3DFACE
8
0
70
0
10
-16.343353
20
-128.352753
30
-18.385952
11
-22.106098
21
-32.609039
31
-38.347477
12
-30.257603
22
-88.685959
32
-8.681623
13
-30.257603
23
-88.685959
33
-8.681623
0
3DFACE
8
0
70
0
10
-30.257603
20
-88.685959
30
-8.681623
11
-22.106098
21
-32.609039
31
-38.347477
12
-19.986790
22
-29.556145
32
-15.102033
13
-19.986790
23
-29.556145
33
-15.102033
0
3DFACE
8
0
70
0
10
-77.679527
20
-83.862259
30
-21.601524
11
-69.958076
21
-28.237015
31
-32.269199
12
-57.878269
22
-30.599113
32
-42.918407
13
-57.878269
23
-30.599113
33
-42.918407
0
3DFACE
8
0
70
0
10
-86.304771
20
-119.342560
30
-36.264748
11
-77.679527
21
-83.862259
31
-21.601524
12
-57.878269
22
-30.599113
32
-42.918407
13
-57.878269
23
-30.599113
33
-42.918407
0
3DFACE
8
0
70
0
10
-86.304771
20
-119.342560
30
-36.264748
11
-57.878269
21
-30.599113
31
-42.918407
12
-22.106098
22
-32.609039
32
-38.347477
13
-22.106098
23
-32.609039
33
-38.347477
0
3DFACE
8
0
70
0
10
-16.343353
20
-128.352753
30
-18.385952
11
-86.304771
21
-119.342560
31
-36.264748
12
-22.106098
22
-32.609039
32
-38.347477
13
-22.106098
23
-32.609039
33
-38.347477
0
3DFACE
8
0
70
0
10
72.768631
20
135.144073
30
89.580421
11
-5.083076
21
126.390717
31
116.510727
12
-27.613682
22
104.819702
32
102.898071
13
-27.613682
23
104.819702
33
102.898071
0
3DFACE
8
0
70
0
10
72.768631
20
135.144073
30
89.580421
11
96.404907
21
143.998047
31
88.674232
12
-5.083076
22
126.390717
32
116.510727
13
-5.083076
23
126.390717
33
116.510727
0
3DFACE
8
0
70
0
10
94.223061
20
130.168091
30
-63.202007
11
1.585853
21
98.129440
31
-109.483612
12
-1.765994
22
130.671570
32
-101.702515
13
-1.765994
23
130.671570
33
-101.702515
0
3DFACE
8
0
70
0
10
94.223061
20
130.168091
30
-63.202007
11
-1.765994
21
130.671570
31
-101.702515
12
99.080688
22
136.057892
32
-65.328728
13
99.080688
23
136.057892
33
-65.328728
0
3DFACE
8
0
70
0
10
72.768631
20
135.144073
30
89.580421
11
122.343269
21
140.537598
31
3.573585
12
96.404907
22
143.998047
32
88.674232
13
96.404907
23
143.998047
33
88.674232
0
3DFACE
8
0
70
0
10
72.768631
20
135.144073
30
89.580421
11
106.399155
21
140.281952
31
19.226845
12
122.343269
22
140.537598
32
3.573585
13
122.343269
23
140.537598
33
3.573585
0
3DFACE
8
0
70
0
10
106.399155
20
140.281952
30
19.226845
11
94.223061
21
130.168091
31
-63.202007
12
99.080688
22
136.057892
32
-65.328728
13
99.080688
23
136.057892
33
-65.328728
0
3DFACE
8
0
70
0
10
106.399155
20
140.281952
30
19.226845
11
99.080688
21
136.057892
31
-65.328728
12
122.343269
22
140.537598
32
3.573585
13
122.343269
23
140.537598
33
3.573585
0
3DFACE
8
0
70
0
10
-119.601852
20
72.450958
30
56.627323
11
-27.613682
21
104.819702
31
102.898071
12
-5.083076
22
126.390717
32
116.510727
13
-5.083076
23
126.390717
33
116.510727
0
3DFACE
8
0
70
0
10
-119.601852
20
72.450958
30
56.627323
11
-5.083076
21
126.390717
31
116.510727
12
-106.459717
22
136.090881
32
84.518021
13
-106.459717
23
136.090881
33
84.518021
0
3DFACE
8
0
70
0
10
-98.147423
20
67.474960
30
-96.155106
11
-1.765994
21
130.671570
31
-101.702515
12
1.585853
22
98.129440
32
-109.483612
13
1.585853
23
98.129440
33
-109.483612
0
3DFACE
8
0
70
0
10
-98.147423
20
67.474960
30
-96.155106
11
-103.783943
21
128.150696
31
-69.484940
12
-1.765994
22
130.671570
32
-101.702515
13
-1.765994
23
130.671570
33
-101.702515
0
3DFACE
8
0
70
0
10
-119.601852
20
72.450958
30
56.627323
11
-129.423462
21
130.724335
31
-1.584515
12
-132.357788
22
62.471573
32
-21.672258
13
-132.357788
23
62.471573
33
-21.672258
0
3DFACE
8
0
70
0
10
-119.601852
20
72.450958
30
56.627323
11
-106.459717
21
136.090881
31
84.518021
12
-129.423462
22
130.724335
32
-1.584515
13
-129.423462
23
130.724335
33
-1.584515
0
3DFACE
8
0
70
0
10
-132.357788
20
62.471573
30
-21.672258
11
-129.423462
21
130.724335
31
-1.584515
12
-103.783943
22
128.150696
32
-69.484940
13
-103.783943
23
128.150696
33
-69.484940
0
3DFACE
8
0
70
0
10
-132.357788
20
62.471573
30
-21.672258
11
-103.783943
21
128.150696
31
-69.484940
12
-98.147423
22
67.474960
32
-96.155106
13
-98.147423
23
67.474960
33
-96.155106
0
3DFACE
8
0
70
0
10
-5.083076
20
126.390717
30
116.510727
11
53.541096
21
189.714233
31
59.291286
12
-1.052113
22
207.529480
32
67.180084
13
-1.052113
23
207.529480
33
67.180084
0
3DFACE
8
0
70
0
10
-5.083076
20
126.390717
30
116.510727
11
96.404907
21
143.998047
31
88.674232
12
53.541096
22
189.714233
32
59.291286
13
53.541096
23
189.714233
33
59.291286
0
3DFACE
8
0
70
0
10
99.080688
20
136.057892
30
-65.328728
11
-1.765994
21
130.671570
31
-101.702515
12
53.625149
22
201.237183
32
-36.493587
13
53.625149
23
201.237183
33
-36.493587
0
3DFACE
8
0
70
0
10
-1.765994
20
130.671570
30
-101.702515
11
-1.428951
21
190.472717
31
-46.094997
12
53.625149
22
201.237183
32
-36.493587
13
53.625149
23
201.237183
33
-36.493587
0
3DFACE
8
0
70
0
10
96.404907
20
143.998047
30
88.674232
11
106.023094
21
153.353882
31
10.013081
12
79.585190
22
179.406921
32
48.196884
13
79.585190
23
179.406921
33
48.196884
0
3DFACE
8
0
70
0
10
96.404907
20
143.998047
30
88.674232
11
122.343269
21
140.537598
31
3.573585
12
106.023094
22
153.353882
32
10.013081
13
106.023094
23
153.353882
33
10.013081
0
3DFACE
8
0
70
0
10
99.080688
20
136.057892
30
-65.328728
11
82.855904
21
160.894226
31
-28.563385
12
106.023094
22
153.353882
32
10.013081
13
106.023094
23
153.353882
33
10.013081
0
3DFACE
8
0
70
0
10
122.343269
20
140.537598
30
3.573585
11
99.080688
21
136.057892
31
-65.328728
12
106.023094
22
153.353882
32
10.013081
13
106.023094
23
153.353882
33
10.013081
0
3DFACE
8
0
70
0
10
96.404907
20
143.998047
30
88.674232
11
79.585190
21
179.406921
31
48.196884
12
53.541096
22
189.714233
32
59.291286
13
53.541096
23
189.714233
33
59.291286
0
3DFACE
8
0
70
0
10
99.080688
20
136.057892
30
-65.328728
11
53.625149
21
201.237183
31
-36.493587
12
82.855904
22
160.894226
32
-28.563385
13
82.855904
23
160.894226
33
-28.563385
0
3DFACE
8
0
70
0
10
-5.083076
20
126.390717
30
116.510727
11
-56.008705
21
189.714233
31
59.291286
12
-106.459717
22
136.090881
32
84.518021
13
-106.459717
23
136.090881
33
84.518021
0
3DFACE
8
0
70
0
10
-5.083076
20
126.390717
30
116.510727
11
-1.052113
21
207.529480
31
67.180084
12
-56.008705
22
189.714233
32
59.291286
13
-56.008705
23
189.714233
33
59.291286
0
3DFACE
8
0
70
0
10
-103.783943
20
128.150696
30
-69.484940
11
-56.191860
21
201.237183
31
-36.493587
12
-1.765994
22
130.671570
32
-101.702515
13
-1.765994
23
130.671570
33
-101.702515
0
3DFACE
8
0
70
0
10
-1.765994
20
130.671570
30
-101.702515
11
-56.191860
21
201.237183
31
-36.493587
12
-1.428951
22
190.472717
32
-46.094997
13
-1.428951
23
190.472717
33
-46.094997
0
3DFACE
8
0
70
0
10
-106.459717
20
136.090881
30
84.518021
11
-79.162476
21
183.022797
31
48.440418
12
-107.096603
22
157.367371
32
11.547602
13
-107.096603
23
157.367371
33
11.547602
0
3DFACE
8
0
70
0
10
-106.459717
20
136.090881
30
84.518021
11
-107.096603
21
157.367371
31
11.547602
12
-129.423462
22
130.724335
32
-1.584515
13
-129.423462
23
130.724335
33
-1.584515
0
3DFACE
8
0
70
0
10
-129.423462
20
130.724335
30
-1.584515
11
-107.096603
21
157.367371
31
11.547602
12
-103.783943
22
128.150696
32
-69.484940
13
-103.783943
23
128.150696
33
-69.484940
0
3DFACE
8
0
70
0
10
-103.783943
20
128.150696
30
-69.484940
11
-107.096603
21
157.367371
31
11.547602
12
-86.348000
22
162.077728
32
-28.792768
13
-86.348000
23
162.077728
33
-28.792768
0
3DFACE
8
0
70
0
10
-106.459717
20
136.090881
30
84.518021
11
-56.008705
21
189.714233
31
59.291286
12
-79.162476
22
183.022797
32
48.440418
13
-79.162476
23
183.022797
33
48.440418
0
3DFACE
8
0
70
0
10
-103.783943
20
128.150696
30
-69.484940
11
-86.348000
21
162.077728
31
-28.792768
12
-56.191860
22
201.237183
32
-36.493587
13
-56.191860
23
201.237183
33
-36.493587
0
3DFACE
8
0
70
0
10
106.023094
20
153.353882
30
10.013081
11
138.090393
21
165.586578
31
39.349148
12
79.585190
22
179.406921
32
48.196884
13
79.585190
23
179.406921
33
48.196884
0
3DFACE
8
0
70
0
10
179.425568
20
147.344482
30
22.671700
11
138.090393
21
165.586578
31
39.349148
12
106.023094
22
153.353882
32
10.013081
13
106.023094
23
153.353882
33
10.013081
0
3DFACE
8
0
70
0
10
79.585190
20
179.406921
30
48.196884
11
157.323013
21
194.492859
31
-0.538292
12
59.466797
22
191.293152
32
2.080998
13
59.466797
23
191.293152
33
2.080998
0
3DFACE
8
0
70
0
10
79.585190
20
179.406921
30
48.196884
11
138.090393
21
165.586578
31
39.349148
12
157.323013
22
194.492859
32
-0.538292
13
157.323013
23
194.492859
33
-0.538292
0
3DFACE
8
0
70
0
10
82.855904
20
160.894226
30
-28.563385
11
59.466797
21
191.293152
31
2.080998
12
157.323013
22
194.492859
32
-0.538292
13
157.323013
23
194.492859
33
-0.538292
0
3DFACE
8
0
70
0
10
82.855904
20
160.894226
30
-28.563385
11
157.323013
21
194.492859
31
-0.538292
12
193.913177
22
173.361755
32
-11.020020
13
193.913177
23
173.361755
33
-11.020020
0
3DFACE
8
0
70
0
10
106.023094
20
153.353882
30
10.013081
11
82.855904
21
160.894226
31
-28.563385
12
193.913177
22
173.361755
32
-11.020020
13
193.913177
23
173.361755
33
-11.020020
0
3DFACE
8
0
70
0
10
179.425568
20
147.344482
30
22.671700
11
106.023094
21
153.353882
31
10.013081
12
193.913177
22
173.361755
32
-11.020020
13
193.913177
23
173.361755
33
-11.020020
0
3DFACE
8
0
70
0
10
-107.096603
20
157.367371
30
11.547602
11
-79.162476
21
183.022797
31
48.440418
12
-144.128922
22
163.325806
32
61.149521
13
-144.128922
23
163.325806
33
61.149521
0
3DFACE
8
0
70
0
10
-177.667328
20
138.406372
30
41.654907
11
-107.096603
21
157.367371
31
11.547602
12
-144.128922
22
163.325806
32
61.149521
13
-144.128922
23
163.325806
33
61.149521
0
3DFACE
8
0
70
0
10
-79.162476
20
183.022797
30
48.440418
11
-62.314754
21
192.173279
31
1.255015
12
-162.022980
22
189.349487
32
21.433401
13
-162.022980
23
189.349487
33
21.433401
0
3DFACE
8
0
70
0
10
-79.162476
20
183.022797
30
48.440418
11
-162.022980
21
189.349487
31
21.433401
12
-144.128922
22
163.325806
32
61.149521
13
-144.128922
23
163.325806
33
61.149521
0
3DFACE
8
0
70
0
10
-86.348000
20
162.077728
30
-28.792768
11
-162.022980
21
189.349487
31
21.433401
12
-62.314754
22
192.173279
32
1.255015
13
-62.314754
23
192.173279
33
1.255015
0
3DFACE
8
0
70
0
10
-86.348000
20
162.077728
30
-28.792768
11
-191.406342
21
162.277710
31
8.260392
12
-162.022980
22
189.349487
32
21.433401
13
-162.022980
23
189.349487
33
21.433401
0
3DFACE
8
0
70
0
10
-107.096603
20
157.367371
30
11.547602
11
-191.406342
21
162.277710
31
8.260392
12
-86.348000
22
162.077728
32
-28.792768
13
-86.348000
23
162.077728
33
-28.792768
0
3DFACE
8
0
70
0
10
-177.667328
20
138.406372
30
41.654907
11
-191.406342
21
162.277710
31
8.260392
12
-107.096603
22
157.367371
32
11.547602
13
-107.096603
23
157.367371
33
11.547602
0
3DFACE
8
0
70
0
10
-213.283417
20
156.971863
30
67.374649
11
-177.667328
21
138.406372
31
41.654907
12
-144.128922
22
163.325806
32
61.149521
13
-144.128922
23
163.325806
33
61.149521
0
3DFACE
8
0
70
0
10
-213.283417
20
156.971863
30
67.374649
11
-144.128922
21
163.325806
31
61.149521
12
-172.347061
22
179.233337
32
81.197044
13
-172.347061
23
179.233337
33
81.197044
0
3DFACE
8
0
70
0
10
-172.347061
20
179.233337
30
81.197044
11
-144.128922
21
163.325806
31
61.149521
12
-162.022980
22
189.349487
32
21.433401
13
-162.022980
23
189.349487
33
21.433401
0
3DFACE
8
0
70
0
10
-172.347061
20
179.233337
30
81.197044
11
-162.022980
21
189.349487
31
21.433401
12
-200.861099
22
211.548767
32
50.117081
13
-200.861099
23
211.548767
33
50.117081
0
3DFACE
8
0
70
0
10
-235.742264
20
186.459198
30
41.085033
11
-200.861099
21
211.548767
31
50.117081
12
-162.022980
22
189.349487
32
21.433401
13
-162.022980
23
189.349487
33
21.433401
0
3DFACE
8
0
70
0
10
-235.742264
20
186.459198
30
41.085033
11
-162.022980
21
189.349487
31
21.433401
12
-191.406342
22
162.277710
32
8.260392
13
-191.406342
23
162.277710
33
8.260392
0
3DFACE
8
0
70
0
10
-213.283417
20
156.971863
30
67.374649
11
-235.742264
21
186.459198
31
41.085033
12
-191.406342
22
162.277710
32
8.260392
13
-191.406342
23
162.277710
33
8.260392
0
3DFACE
8
0
70
0
10
-213.283417
20
156.971863
30
67.374649
11
-191.406342
21
162.277710
31
8.260392
12
-177.667328
22
138.406372
32
41.654907
13
-177.667328
23
138.406372
33
41.654907
0
3DFACE
8
0
70
0
10
182.910675
20
164.913147
30
64.440186
11
138.090393
21
165.586578
31
39.349148
12
179.425568
22
147.344482
32
22.671700
13
179.425568
23
147.344482
33
22.671700
0
3DFACE
8
0
70
0
10
182.910675
20
164.913147
30
64.440186
11
136.485153
21
167.701660
31
50.322399
12
138.090393
22
165.586578
32
39.349148
13
138.090393
23
165.586578
33
39.349148
0
3DFACE
8
0
70
0
10
136.485153
20
167.701660
30
50.322399
11
157.323013
21
194.492859
31
-0.538292
12
138.090393
22
165.586578
32
39.349148
13
138.090393
23
165.586578
33
39.349148
0
3DFACE
8
0
70
0
10
136.485153
20
167.701660
30
50.322399
11
159.050339
21
215.738617
31
47.759804
12
157.323013
22
194.492859
32
-0.538292
13
157.323013
23
194.492859
33
-0.538292
0
3DFACE
8
0
70
0
10
199.859528
20
206.965393
30
61.376022
11
193.913177
21
173.361755
31
-11.020020
12
157.323013
22
194.492859
32
-0.538292
13
157.323013
23
194.492859
33
-0.538292
0
3DFACE
8
0
70
0
10
199.859528
20
206.965393
30
61.376022
11
157.323013
21
194.492859
31
-0.538292
12
159.050339
22
215.738617
32
47.759804
13
159.050339
23
215.738617
33
47.759804
0
3DFACE
8
0
70
0
10
182.910675
20
164.913147
30
64.440186
11
179.425568
21
147.344482
31
22.671700
12
193.913177
22
173.361755
32
-11.020020
13
193.913177
23
173.361755
33
-11.020020
0
3DFACE
8
0
70
0
10
182.910675
20
164.913147
30
64.440186
11
193.913177
21
173.361755
31
-11.020020
12
199.859528
22
206.965393
32
61.376022
13
199.859528
23
206.965393
33
61.376022
0
3DFACE
8
0
70
0
10
-5.680376
20
414.193420
30
-7.306049
11
-1.208723
21
412.648010
31
-9.101336
12
-1.156890
22
371.624756
32
2.766392
13
-17.127077
23
375.033569
33
9.419986
0
3DFACE
8
0
70
0
10
3.262929
20
414.193420
30
-7.306048
11
14.813297
21
375.033569
31
9.419987
12
-1.156890
22
371.624756
32
2.766392
13
-1.208723
23
412.648010
33
-9.101336
0
3DFACE
8
0
70
0
10
6.263877
20
416.487244
30
-4.641226
11
25.530966
21
380.093567
31
19.296305
12
14.813297
22
375.033569
32
9.419987
13
3.262929
23
414.193420
33
-7.306048
0
3DFACE
8
0
70
0
10
5.577215
20
418.833801
30
-1.915116
11
23.078602
21
385.269836
31
29.399717
12
25.530966
22
380.093567
32
19.296305
13
6.263877
23
416.487244
33
-4.641226
0
3DFACE
8
0
70
0
10
4.827200
20
421.742920
30
1.464459
11
20.399979
21
391.686890
31
41.924984
12
23.078602
22
385.269836
32
29.399717
13
5.577215
23
418.833801
33
-1.915116
0
3DFACE
8
0
70
0
10
1.486700
20
423.155334
30
3.105301
11
8.469619
21
394.802429
31
48.006191
12
20.399979
22
391.686890
32
41.924984
13
4.827200
23
421.742920
33
1.464459
0
3DFACE
8
0
70
0
10
-1.208722
20
423.979553
30
4.062897
11
-1.156888
21
396.620667
31
51.555176
12
8.469619
22
394.802429
32
48.006191
13
1.486700
23
423.155334
33
3.105301
0
3DFACE
8
0
70
0
10
-1.208722
20
423.979553
30
4.062897
11
-3.904145
21
423.155334
31
3.105301
12
-10.783396
22
394.802429
32
48.006191
13
-1.156888
23
396.620667
33
51.555176
0
3DFACE
8
0
70
0
10
-3.904145
20
423.155334
30
3.105301
11
-7.244645
21
421.742920
31
1.464458
12
-22.713753
22
391.686890
32
41.924980
13
-10.783396
23
394.802429
33
48.006191
0
3DFACE
8
0
70
0
10
-7.244645
20
421.742920
30
1.464458
11
-7.994660
21
418.833801
31
-1.915117
12
-25.392382
22
385.269836
32
29.399715
13
-22.713753
23
391.686890
33
41.924980
0
3DFACE
8
0
70
0
10
-7.994660
20
418.833801
30
-1.915117
11
-8.681320
21
416.487244
31
-4.641227
12
-27.844738
22
380.093567
32
19.296303
13
-25.392382
23
385.269836
33
29.399715
0
3DFACE
8
0
70
0
10
-8.681320
20
416.487244
30
-4.641227
11
-5.680376
21
414.193420
31
-7.306049
12
-17.127077
22
375.033569
32
9.419986
13
-27.844738
23
380.093567
33
19.296303
0
ENDSEC
0
EOF
