0
SECTION
2
HEADER
999
DXF File Generated by LightWave 3D(TM)
0
ENDSEC
0
SECTION
2
TABLES
0
ENDSEC
0
SECTION
2
BLOCKS
0
ENDSEC
0
SECTION
2
ENTITIES
0
3DFACE
8
0
70
0
10
-6.702626
20
-41.210487
30
96.749672
11
22.601959
21
-16.475555
31
61.800335
12
65.494164
22
-24.451538
32
42.328979
13
60.300224
23
-40.347534
33
74.742584
0
3DFACE
8
0
70
0
10
66.282799
20
-69.920143
30
-43.798897
11
73.605865
21
-86.442200
31
-14.780924
12
35.081501
22
-111.845802
32
-26.061050
13
1.747203
23
-82.978996
33
-70.678986
0
3DFACE
8
0
70
0
10
-7.155160
20
-42.908867
30
118.262642
11
-6.702626
21
-41.210487
31
96.749672
12
60.300224
22
-40.347534
32
74.742584
13
81.348488
23
-41.461456
33
91.322441
0
3DFACE
8
0
70
0
10
88.919632
20
-78.886513
30
-58.695534
11
66.282799
21
-69.920143
31
-43.798897
12
1.747203
22
-82.978996
32
-70.678986
13
3.368728
23
-94.929703
33
-90.262344
0
3DFACE
8
0
70
0
10
-8.062860
20
-36.375641
30
129.724182
11
85.917206
21
-35.434494
31
99.133957
12
95.748062
22
19.127289
32
91.857681
13
-12.702581
23
17.847519
33
121.906296
0
3DFACE
8
0
70
0
10
94.472595
20
-77.724808
30
-70.386345
11
3.829133
21
-95.159180
31
-105.909058
12
-0.816459
22
-40.931213
32
-113.728279
13
104.303452
23
-23.163040
33
-77.662628
0
3DFACE
8
0
70
0
10
-12.702581
20
17.847519
30
121.906296
11
95.748062
21
19.127289
31
91.857681
12
89.987099
22
17.703705
32
83.349937
13
-12.198371
23
16.029770
33
109.764885
0
3DFACE
8
0
70
0
10
-8.062860
20
-36.375641
30
129.724182
11
-7.155160
21
-42.908867
31
118.262642
12
81.348488
22
-41.461456
32
91.322441
13
85.917206
23
-35.434494
33
99.133957
0
3DFACE
8
0
70
0
10
104.303452
20
-23.163040
30
-77.662628
11
-0.816459
21
-40.931213
31
-113.728279
12
-1.897640
22
-35.801117
32
-98.802811
13
97.558243
23
-19.721359
33
-66.668030
0
3DFACE
8
0
70
0
10
94.472595
20
-77.724808
30
-70.386345
11
88.919632
21
-78.886513
31
-58.695534
12
3.368728
22
-94.929703
32
-90.262344
13
3.829133
23
-95.159180
33
-105.909058
0
3DFACE
8
0
70
0
10
40.560238
20
-68.275528
30
142.716156
11
87.699989
21
-68.236031
31
142.587143
12
79.792702
22
-55.767189
32
120.483536
13
46.803680
23
-55.962906
33
120.651848
0
3DFACE
8
0
70
0
10
60.300224
20
-40.347534
30
74.742584
11
65.494164
21
-24.451538
31
42.328979
12
80.458687
22
-54.748520
32
15.973997
13
79.034836
23
-53.393372
33
17.213692
0
3DFACE
8
0
70
0
10
81.348488
20
-41.461456
30
91.322441
11
60.300224
21
-40.347534
31
74.742584
12
79.034836
22
-53.393372
32
17.213692
13
106.147377
23
-57.775856
33
18.934301
0
3DFACE
8
0
70
0
10
95.748062
20
19.127289
30
91.857681
11
85.917206
21
-35.434494
31
99.133957
12
112.448853
22
-53.668701
32
18.613039
13
125.645126
23
1.194687
33
11.431365
0
3DFACE
8
0
70
0
10
125.645126
20
1.194687
30
11.431365
11
117.953331
21
1.673157
31
11.050838
12
89.987099
22
17.703705
32
83.349937
13
95.748062
23
19.127289
33
91.857681
0
3DFACE
8
0
70
0
10
85.917206
20
-35.434494
30
99.133957
11
81.348488
21
-41.461456
31
91.322441
12
106.147377
22
-57.775856
32
18.934301
13
112.448853
23
-53.668701
33
18.613039
0
3DFACE
8
0
70
0
10
25.857290
20
-98.582840
30
156.819611
11
93.040764
21
-98.694633
31
156.713760
12
87.699989
22
-68.236031
32
142.587143
13
40.560238
23
-68.275528
33
142.716156
0
3DFACE
8
0
70
0
10
-12.974791
20
147.223877
30
-7.920342
11
53.435135
21
136.096130
31
-10.607792
12
42.676132
22
115.526520
32
-46.586617
13
-9.891615
23
121.362091
33
-55.103184
0
3DFACE
8
0
70
0
10
79.034836
20
-53.393372
30
17.213692
11
80.458687
21
-54.748520
31
15.973997
12
73.605865
22
-86.442200
32
-14.780924
13
66.282799
23
-69.920143
33
-43.798897
0
3DFACE
8
0
70
0
10
106.147377
20
-57.775856
30
18.934301
11
79.034836
21
-53.393372
31
17.213692
12
66.282799
22
-69.920143
32
-43.798897
13
88.919632
23
-78.886513
33
-58.695534
0
3DFACE
8
0
70
0
10
112.448853
20
-53.668701
30
18.613039
11
94.472595
21
-77.724808
31
-70.386345
12
104.303452
22
-23.163040
32
-77.662628
13
125.645126
23
1.194687
33
11.431365
0
3DFACE
8
0
70
0
10
104.303452
20
-23.163040
30
-77.662628
11
97.558243
21
-19.721359
31
-66.668030
12
117.953331
22
1.673157
32
11.050838
13
125.645126
23
1.194687
33
11.431365
0
3DFACE
8
0
70
0
10
112.448853
20
-53.668701
30
18.613039
11
106.147377
21
-57.775856
31
18.934301
12
88.919632
22
-78.886513
32
-58.695534
13
94.472595
23
-77.724808
33
-70.386345
0
3DFACE
8
0
70
0
10
29.426067
20
-46.900154
30
45.292786
11
22.601959
21
-16.475555
31
61.800335
12
21.814636
22
-67.301567
32
21.874105
13
24.772423
23
-72.249069
33
29.669298
0
3DFACE
8
0
70
0
10
29.426067
20
-46.900154
30
45.292786
11
70.924873
21
-45.337288
31
33.929443
12
65.494164
22
-24.451538
32
42.328979
13
22.601959
23
-16.475555
33
61.800335
0
3DFACE
8
0
70
0
10
70.924873
20
-45.337288
30
33.929443
11
83.032494
21
-57.906082
31
21.871239
12
80.458687
22
-54.748520
32
15.973997
13
65.494164
23
-24.451538
33
42.328979
0
3DFACE
8
0
70
0
10
24.772423
20
-72.249069
30
29.669298
11
21.814636
21
-67.301567
31
21.874105
12
35.081501
22
-111.845802
32
-26.061050
13
35.466423
23
-94.862640
33
11.291371
0
3DFACE
8
0
70
0
10
83.032494
20
-57.906082
30
21.871239
11
74.851105
21
-76.512909
31
11.828520
12
73.605865
22
-86.442200
32
-14.780924
13
80.458687
23
-54.748520
33
15.973997
0
3DFACE
8
0
70
0
10
74.851105
20
-76.512909
30
11.828520
11
35.466423
21
-94.862640
31
11.291371
12
35.081501
22
-111.845802
32
-26.061050
13
73.605865
23
-86.442200
33
-14.780924
0
3DFACE
8
0
70
0
10
39.695293
20
-119.488892
30
48.333771
11
40.452869
21
-100.866570
31
93.509254
12
46.715240
22
-86.098907
32
79.111771
13
43.298660
23
-83.334480
33
65.455406
0
3DFACE
8
0
70
0
10
43.298660
20
-83.334480
30
65.455406
11
46.715240
21
-86.098907
31
79.111771
12
79.711105
22
-89.404327
32
80.373665
13
77.891747
23
-87.951820
33
55.800243
0
3DFACE
8
0
70
0
10
88.941353
20
-113.041420
30
45.210743
11
77.891747
21
-87.951820
31
55.800243
12
79.711105
22
-89.404327
32
80.373665
13
87.592621
23
-100.827065
33
93.380241
0
3DFACE
8
0
70
0
10
26.861603
20
-159.053925
30
30.681335
11
29.406364
21
-126.163284
31
91.810806
12
40.452869
22
-100.866570
32
93.509254
13
39.695293
23
-119.488892
33
48.333771
0
3DFACE
8
0
70
0
10
99.347626
20
-147.778351
30
27.497129
11
88.941353
21
-113.041420
31
45.210743
12
87.592621
22
-100.827065
32
93.380241
13
96.597885
23
-124.813095
33
95.097870
0
3DFACE
8
0
70
0
10
99.347626
20
-147.778351
30
27.497129
11
96.597885
21
-124.813095
31
95.097870
12
29.406364
22
-126.163284
32
91.810806
13
26.861603
23
-159.053925
33
30.681335
0
3DFACE
8
0
70
0
10
40.560238
20
-68.275528
30
142.716156
11
46.803680
21
-55.962906
31
120.651848
12
46.715240
22
-86.098907
32
79.111771
13
40.452869
23
-100.866570
33
93.509254
0
3DFACE
8
0
70
0
10
46.803680
20
-55.962906
30
120.651848
11
79.792702
21
-55.767189
31
120.483536
12
79.711105
22
-89.404327
32
80.373665
13
46.715240
23
-86.098907
33
79.111771
0
3DFACE
8
0
70
0
10
87.699989
20
-68.236031
30
142.587143
11
87.592621
21
-100.827065
31
93.380241
12
79.711105
22
-89.404327
32
80.373665
13
79.792702
23
-55.767189
33
120.483536
0
3DFACE
8
0
70
0
10
25.857290
20
-98.582840
30
156.819611
11
40.560238
21
-68.275528
31
142.716156
12
40.452869
22
-100.866570
32
93.509254
13
29.406364
23
-126.163284
33
91.810806
0
3DFACE
8
0
70
0
10
93.040764
20
-98.694633
30
156.713760
11
96.597885
21
-124.813095
31
95.097870
12
87.592621
22
-100.827065
32
93.380241
13
87.699989
23
-68.236031
33
142.587143
0
3DFACE
8
0
70
0
10
93.040764
20
-98.694633
30
156.713760
11
25.857290
21
-98.582840
31
156.819611
12
29.406364
22
-126.163284
32
91.810806
13
96.597885
23
-124.813095
33
95.097870
0
3DFACE
8
0
70
0
10
-70.235641
20
41.528107
30
185.282288
11
-55.180828
21
56.791306
31
194.646439
12
-73.226868
22
63.835312
32
184.632584
13
-78.512901
23
49.351563
33
169.646896
0
3DFACE
8
0
70
0
10
79.379372
20
106.070801
30
-32.637360
11
42.676132
21
115.526520
31
-46.586617
12
53.435135
22
136.096130
32
-10.607792
13
53.435135
23
136.096130
33
-10.607792
0
3DFACE
8
0
70
0
10
53.241558
20
116.668213
30
29.077599
11
53.435135
21
136.096130
31
-10.607792
12
39.495354
22
111.505981
32
49.386021
13
39.495354
23
111.505981
33
49.386021
0
3DFACE
8
0
70
0
10
50.599514
20
95.129761
30
80.208702
11
63.309620
21
53.460281
31
101.761543
12
31.015985
22
50.163879
32
117.784714
13
19.002796
23
93.751770
33
97.655922
0
3DFACE
8
0
70
0
10
74.795082
20
105.343323
30
126.399170
11
50.599514
21
95.129761
31
80.208702
12
19.002796
22
93.751770
32
97.655922
13
43.185699
23
105.996460
33
143.939590
0
3DFACE
8
0
70
0
10
51.494984
20
63.959503
30
157.177032
11
83.661354
21
64.815155
31
140.773331
12
74.795082
22
105.343323
32
126.399170
13
43.185699
23
105.996460
33
143.939590
0
3DFACE
8
0
70
0
10
63.309620
20
53.460281
30
101.761543
11
83.661354
21
64.815155
31
140.773331
12
51.494984
22
63.959503
32
157.177032
13
31.015985
23
50.163879
33
117.784714
0
3DFACE
8
0
70
0
10
29.233498
20
39.455429
30
113.807938
11
-1.330528
21
35.499283
31
128.567490
12
-15.155884
22
97.555984
32
104.171333
13
13.732066
23
98.945114
33
88.021461
0
3DFACE
8
0
70
0
10
13.732066
20
98.945114
30
88.021461
11
-15.155884
21
97.555984
31
104.171333
12
17.837742
22
118.324585
32
165.860901
13
46.029659
23
117.172485
33
149.943863
0
3DFACE
8
0
70
0
10
27.044321
20
58.862381
30
181.476151
11
56.621758
21
59.619324
31
166.589325
12
46.029659
22
117.172485
32
149.943863
13
17.837742
23
118.324585
33
165.860901
0
3DFACE
8
0
70
0
10
29.233498
20
39.455429
30
113.807938
11
56.621758
21
59.619324
31
166.589325
12
27.044321
22
58.862381
32
181.476151
13
-1.330528
23
35.499283
33
128.567490
0
3DFACE
8
0
70
0
10
29.233498
20
39.455429
30
113.807938
11
13.732066
21
98.945114
31
88.021461
12
19.002796
22
93.751770
32
97.655922
13
31.015985
23
50.163879
33
117.784714
0
3DFACE
8
0
70
0
10
-1.330528
20
35.499283
30
128.567490
11
0.601650
21
47.059311
31
132.875473
12
-9.969527
22
92.488190
32
113.653969
13
-15.155884
23
97.555984
33
104.171333
0
3DFACE
8
0
70
0
10
13.732066
20
98.945114
30
88.021461
11
46.029659
21
117.172485
31
149.943863
12
43.185699
22
105.996460
32
143.939590
13
19.002796
23
93.751770
33
97.655922
0
3DFACE
8
0
70
0
10
-15.155884
20
97.555984
30
104.171333
11
-9.969527
21
92.488190
31
113.653969
12
14.895278
22
106.580933
32
159.638306
13
17.837742
23
118.324585
33
165.860901
0
3DFACE
8
0
70
0
10
27.044321
20
58.862381
30
181.476151
11
17.837742
21
118.324585
31
165.860901
12
14.895278
22
106.580933
32
159.638306
13
22.000322
23
63.174850
33
172.218231
0
3DFACE
8
0
70
0
10
56.621758
20
59.619324
30
166.589325
11
51.494984
21
63.959503
31
157.177032
12
43.185699
22
105.996460
32
143.939590
13
46.029659
23
117.172485
33
149.943863
0
3DFACE
8
0
70
0
10
-1.330528
20
35.499283
30
128.567490
11
27.044321
21
58.862381
31
181.476151
12
22.000322
22
63.174850
32
172.218231
13
0.601650
23
47.059311
33
132.875473
0
3DFACE
8
0
70
0
10
29.233498
20
39.455429
30
113.807938
11
31.015985
21
50.163879
31
117.784714
12
51.494984
22
63.959503
32
157.177032
13
56.621758
23
59.619324
33
166.589325
0
3DFACE
8
0
70
0
10
21.289139
20
51.210312
30
141.418152
11
6.712740
21
66.231293
31
116.207321
12
-9.969527
22
92.488190
32
113.653969
13
0.601650
23
47.059311
33
132.875473
0
3DFACE
8
0
70
0
10
6.712740
20
66.231293
30
116.207321
11
13.611087
21
91.894775
31
139.355652
12
14.895278
22
106.580933
32
159.638306
13
-9.969527
23
92.488190
33
113.653969
0
3DFACE
8
0
70
0
10
26.387777
20
75.247574
30
159.976715
11
22.000322
21
63.174850
31
172.218231
12
14.895278
22
106.580933
32
159.638306
13
13.611087
23
91.894775
33
139.355652
0
3DFACE
8
0
70
0
10
21.289139
20
51.210312
30
141.418152
11
0.601650
21
47.059311
31
132.875473
12
22.000322
22
63.174850
32
172.218231
13
26.387777
23
75.247574
33
159.976715
0
3DFACE
8
0
70
0
10
-43.175201
20
41.208099
30
116.913231
11
-45.515312
21
51.827271
31
115.364822
12
-34.149101
22
54.584641
32
109.783035
13
-31.836176
23
43.949036
33
111.220909
0
3DFACE
8
0
70
0
10
-45.515312
20
51.827271
30
115.364822
11
-47.669949
21
62.957870
31
114.494637
12
-36.370152
22
65.688354
32
108.809486
13
-34.149101
23
54.584641
33
109.783035
0
3DFACE
8
0
70
0
10
2.374941
20
71.472046
30
185.964630
11
26.387777
21
75.247574
31
159.976715
12
13.611087
22
91.894775
32
139.355652
13
-14.004893
23
86.457703
33
157.214050
0
3DFACE
8
0
70
0
10
-6.871859
20
45.545609
30
158.306992
11
21.289139
21
51.210312
31
141.418152
12
26.387777
22
75.247574
32
159.976715
13
2.374941
23
71.472046
33
185.964630
0
3DFACE
8
0
70
0
10
-70.235641
20
41.528107
30
185.282288
11
-78.512901
21
49.351563
31
169.646896
12
-36.252583
22
58.107178
32
135.907135
13
-6.871859
23
45.545609
33
158.306992
0
3DFACE
8
0
70
0
10
-78.512901
20
49.351563
30
169.646896
11
-73.226868
21
63.835312
31
184.632584
12
-14.004893
22
86.457703
32
157.214050
13
-36.252583
23
58.107178
33
135.907135
0
3DFACE
8
0
70
0
10
-55.180828
20
56.791306
30
194.646439
11
2.374941
21
71.472046
31
185.964630
12
-14.004893
22
86.457703
32
157.214050
13
-73.226868
23
63.835312
33
184.632584
0
3DFACE
8
0
70
0
10
-70.235641
20
41.528107
30
185.282288
11
-6.871859
21
45.545609
31
158.306992
12
2.374941
22
71.472046
32
185.964630
13
-55.180828
23
56.791306
33
194.646439
0
3DFACE
8
0
70
0
10
-43.175201
20
41.208099
30
116.913231
11
-31.836176
21
43.949036
31
111.220909
12
21.289139
22
51.210312
32
141.418152
13
-6.871859
23
45.545609
33
158.306992
0
3DFACE
8
0
70
0
10
-31.836176
20
43.949036
30
111.220909
11
-34.149101
21
54.584641
31
109.783035
12
6.712740
22
66.231293
32
116.207321
13
21.289139
23
51.210312
33
141.418152
0
3DFACE
8
0
70
0
10
-43.175201
20
41.208099
30
116.913231
11
-6.871859
21
45.545609
31
158.306992
12
-36.252583
22
58.107178
32
135.907135
13
-45.515312
23
51.827271
33
115.364822
0
3DFACE
8
0
70
0
10
-34.149101
20
54.584641
30
109.783035
11
-36.370152
21
65.688354
31
108.809486
12
13.611087
22
91.894775
32
139.355652
13
6.712740
23
66.231293
33
116.207321
0
3DFACE
8
0
70
0
10
-47.669949
20
62.957870
30
114.494637
11
-14.004893
21
86.457703
31
157.214050
12
13.611087
22
91.894775
32
139.355652
13
-36.370152
23
65.688354
33
108.809486
0
3DFACE
8
0
70
0
10
-45.515312
20
51.827271
30
115.364822
11
-36.252583
21
58.107178
31
135.907135
12
-14.004893
22
86.457703
32
157.214050
13
-47.669949
23
62.957870
33
114.494637
0
3DFACE
8
0
70
0
10
-6.702626
20
-41.210487
30
96.749672
11
-71.460495
21
-52.155945
31
71.038704
12
-78.558449
22
-101.060623
32
44.141861
13
-39.438210
23
-106.486824
33
68.713531
0
3DFACE
8
0
70
0
10
-65.477913
20
-81.728554
30
-47.502777
11
1.747203
21
-82.978996
31
-70.678986
12
-25.277058
22
-74.176331
32
-44.325737
13
-69.353699
23
-80.058807
33
-29.333662
0
3DFACE
8
0
70
0
10
-7.155160
20
-42.908867
30
118.262642
11
-92.866714
21
-57.074638
31
86.425140
12
-71.460495
22
-52.155945
32
71.038704
13
-6.702626
23
-41.210487
33
96.749672
0
3DFACE
8
0
70
0
10
-85.295570
20
-94.499702
30
-63.592834
11
3.368728
21
-94.929703
31
-90.262344
12
1.747203
22
-82.978996
32
-70.678986
13
-65.477913
23
-81.728554
33
-47.502777
0
3DFACE
8
0
70
0
10
-8.062860
20
-36.375641
30
129.724182
11
-12.702581
21
17.847519
31
121.906296
12
-117.809242
22
-0.011749
32
85.854446
13
-98.861679
23
-51.994400
33
93.939705
0
3DFACE
8
0
70
0
10
-90.306290
20
-94.284714
30
-75.580605
11
-109.253853
21
-42.302063
31
-83.665863
12
-0.816459
22
-40.931213
32
-113.728279
13
3.829133
23
-95.159180
33
-105.909058
0
3DFACE
8
0
70
0
10
-12.702581
20
17.847519
30
121.906296
11
-12.198371
21
16.029770
31
109.764885
12
-111.421974
22
-0.346603
32
77.688202
13
-117.809242
23
-0.011749
33
85.854446
0
3DFACE
8
0
70
0
10
-8.062860
20
-36.375641
30
129.724182
11
-98.861679
21
-51.994400
31
93.939705
12
-92.866714
22
-57.074638
32
86.425140
13
-7.155160
23
-42.908867
33
118.262642
0
3DFACE
8
0
70
0
10
-109.253853
20
-42.302063
30
-83.665863
11
-103.850838
21
-37.771667
31
-72.329773
12
-1.897640
22
-35.801117
32
-98.802811
13
-0.816459
23
-40.931213
33
-113.728279
0
3DFACE
8
0
70
0
10
-90.306290
20
-94.284714
30
-75.580605
11
3.829133
21
-95.159180
31
-105.909058
12
3.368728
22
-94.929703
32
-90.262344
13
-85.295570
23
-94.499702
33
-63.592834
0
3DFACE
8
0
70
0
10
-28.015474
20
-182.306503
30
80.432106
11
-34.430222
21
-162.764008
31
64.483551
12
-67.419518
22
-162.610062
32
64.642685
13
-75.154778
23
-182.350861
33
80.674911
0
3DFACE
8
0
70
0
10
-71.460495
20
-52.155945
30
71.038704
11
-84.343491
21
-68.035362
31
12.621020
12
-84.362961
22
-94.672340
32
6.305696
13
-78.558449
23
-101.060623
33
44.141861
0
3DFACE
8
0
70
0
10
-92.866714
20
-57.074638
30
86.425140
11
-110.299088
21
-77.173805
31
12.849852
12
-84.343491
22
-68.035362
32
12.621020
13
-71.460495
23
-52.155945
33
71.038704
0
3DFACE
8
0
70
0
10
-117.809242
20
-0.011749
30
85.854446
11
-139.515152
21
-22.569016
31
3.977537
12
-117.202171
22
-74.250053
32
12.157400
13
-98.861679
23
-51.994400
33
93.939705
0
3DFACE
8
0
70
0
10
-139.515152
20
-22.569016
30
3.977537
11
-117.809242
21
-0.011749
31
85.854446
12
-111.421974
22
-0.346603
32
77.688202
13
-132.021667
23
-20.729630
33
4.023878
0
3DFACE
8
0
70
0
10
-98.861679
20
-51.994400
30
93.939705
11
-117.202171
21
-74.250053
31
12.157400
12
-110.299088
22
-77.173805
32
12.849852
13
-92.866714
23
-57.074638
33
86.425140
0
3DFACE
8
0
70
0
10
-13.207404
20
-215.635834
30
82.301498
11
-28.015474
21
-182.306503
31
80.432106
12
-75.154778
22
-182.350861
32
80.674911
13
-80.389648
23
-215.884048
33
82.658333
0
3DFACE
8
0
70
0
10
-12.974791
20
147.223877
30
-7.920342
11
-9.891615
21
121.362091
31
-55.103184
12
-66.794884
22
108.481110
32
-48.796509
13
-74.887428
23
130.367554
33
-10.459659
0
3DFACE
8
0
70
0
10
-84.343491
20
-68.035362
30
12.621020
11
-65.477913
21
-81.728554
31
-47.502777
12
-69.353699
22
-80.058807
32
-29.333662
13
-84.362961
23
-94.672340
33
6.305696
0
3DFACE
8
0
70
0
10
-110.299088
20
-77.173805
30
12.849852
11
-85.295570
21
-94.499702
31
-63.592834
12
-65.477913
22
-81.728554
32
-47.502777
13
-84.343491
23
-68.035362
33
12.621020
0
3DFACE
8
0
70
0
10
-117.202171
20
-74.250053
30
12.157400
11
-139.515152
21
-22.569016
31
3.977537
12
-109.253853
22
-42.302063
32
-83.665863
13
-90.306290
23
-94.284714
33
-75.580605
0
3DFACE
8
0
70
0
10
-109.253853
20
-42.302063
30
-83.665863
11
-139.515152
21
-22.569016
31
3.977537
12
-132.021667
22
-20.729630
32
4.023878
13
-103.850838
23
-37.771667
33
-72.329773
0
3DFACE
8
0
70
0
10
-117.202171
20
-74.250053
30
12.157400
11
-90.306290
21
-94.284714
31
-75.580605
12
-85.295570
22
-94.499702
32
-63.592834
13
-110.299088
23
-77.173805
33
12.849852
0
3DFACE
8
0
70
0
10
-35.535538
20
-119.410431
30
27.839672
11
-24.180447
21
-108.368111
31
5.876815
12
-24.436550
22
-94.343689
32
13.205841
13
-39.438210
23
-106.486824
33
68.713531
0
3DFACE
8
0
70
0
10
-35.535538
20
-119.410431
30
27.839672
11
-39.438210
21
-106.486824
31
68.713531
12
-78.558449
22
-101.060623
32
44.141861
13
-75.810188
23
-114.455078
33
13.588725
0
3DFACE
8
0
70
0
10
-75.810188
20
-114.455078
30
13.588725
11
-78.558449
21
-101.060623
31
44.141861
12
-84.362961
22
-94.672340
32
6.305696
13
-84.022331
23
-107.008530
33
-2.759478
0
3DFACE
8
0
70
0
10
-24.180447
20
-108.368111
30
5.876815
11
-28.306339
21
-96.487061
31
-19.337393
12
-25.277058
22
-74.176331
32
-44.325737
13
-24.436550
23
-94.343689
33
13.205841
0
3DFACE
8
0
70
0
10
-84.022331
20
-107.008530
30
-2.759478
11
-84.362961
21
-94.672340
31
6.305696
12
-69.353699
22
-80.058807
32
-29.333662
13
-71.111214
23
-99.554886
33
-17.076366
0
3DFACE
8
0
70
0
10
-71.111214
20
-99.554886
30
-17.076366
11
-69.353699
21
-80.058807
31
-29.333662
12
-25.277058
22
-74.176331
32
-44.325737
13
-28.306339
23
-96.487061
33
-19.337393
0
3DFACE
8
0
70
0
10
-27.936386
20
-181.545135
30
-18.481104
11
-37.279148
21
-159.180420
31
11.920812
12
-34.656704
22
-176.841339
32
21.700726
13
-28.329950
23
-196.979935
33
25.023409
0
3DFACE
8
0
70
0
10
-37.279148
20
-159.180420
30
11.920812
11
-70.452431
21
-161.049286
31
-1.984775
12
-67.645241
22
-180.322037
32
20.946571
13
-34.656704
23
-176.841339
33
21.700726
0
3DFACE
8
0
70
0
10
-77.457367
20
-178.474655
30
-23.498482
11
-75.469765
21
-196.988800
31
25.071970
12
-67.645241
22
-180.322037
32
20.946571
13
-70.452431
23
-161.049286
33
-1.984775
0
3DFACE
8
0
70
0
10
-8.956591
20
-205.826920
30
-49.879070
11
-27.936386
21
-181.545135
31
-18.481104
12
-28.329950
22
-196.979935
32
25.023409
13
-17.272627
23
-216.551178
33
9.289778
0
3DFACE
8
0
70
0
10
-82.159988
20
-200.497543
30
-55.274078
11
-84.452042
21
-217.477402
31
12.912524
12
-75.469765
22
-196.988800
32
25.071970
13
-77.457367
23
-178.474655
33
-23.498482
0
3DFACE
8
0
70
0
10
-82.159988
20
-200.497543
30
-55.274078
11
-8.956591
21
-205.826920
31
-49.879070
12
-17.272627
22
-216.551178
32
9.289778
13
-84.452042
23
-217.477402
33
12.912524
0
3DFACE
8
0
70
0
10
-28.015474
20
-182.306503
30
80.432106
11
-28.329950
21
-196.979935
31
25.023409
12
-34.656704
22
-176.841339
32
21.700726
13
-34.430222
23
-162.764008
33
64.483551
0
3DFACE
8
0
70
0
10
-34.430222
20
-162.764008
30
64.483551
11
-34.656704
21
-176.841339
31
21.700726
12
-67.645241
22
-180.322037
32
20.946571
13
-67.419518
23
-162.610062
33
64.642685
0
3DFACE
8
0
70
0
10
-75.154778
20
-182.350861
30
80.674911
11
-67.419518
21
-162.610062
31
64.642685
12
-67.645241
22
-180.322037
32
20.946571
13
-75.469765
23
-196.988800
33
25.071970
0
3DFACE
8
0
70
0
10
-13.207404
20
-215.635834
30
82.301498
11
-17.272627
21
-216.551178
31
9.289778
12
-28.329950
22
-196.979935
32
25.023409
13
-28.015474
23
-182.306503
33
80.432106
0
3DFACE
8
0
70
0
10
-80.389648
20
-215.884048
30
82.658333
11
-75.154778
21
-182.350861
31
80.674911
12
-75.469765
22
-196.988800
32
25.071970
13
-84.452042
23
-217.477402
33
12.912524
0
3DFACE
8
0
70
0
10
-80.389648
20
-215.884048
30
82.658333
11
-84.452042
21
-217.477402
31
12.912524
12
-17.272627
22
-216.551178
32
9.289778
13
-13.207404
23
-215.635834
33
82.301498
0
3DFACE
8
0
70
0
10
39.187138
20
-9.561554
30
200.358261
11
51.006878
21
-1.505035
31
187.336319
12
43.356270
22
12.523224
32
201.722702
13
23.253296
23
6.123444
33
207.242538
0
3DFACE
8
0
70
0
10
-95.717903
20
100.385818
30
-35.603653
11
-74.887428
21
130.367554
31
-10.459659
12
-66.794884
22
108.481110
32
-48.796509
13
-66.794884
23
108.481110
33
-48.796509
0
3DFACE
8
0
70
0
10
-75.739075
20
104.772217
30
25.315462
11
-69.680649
21
103.894440
31
46.998550
12
-74.887428
22
130.367554
32
-10.459659
13
-74.887428
23
130.367554
33
-10.459659
0
3DFACE
8
0
70
0
10
-57.871025
20
68.358276
30
78.450470
11
-31.177286
21
57.676437
31
100.313698
12
-50.850708
22
12.386475
32
103.655159
13
-78.384377
23
24.592957
33
83.570686
0
3DFACE
8
0
70
0
10
-90.853523
20
68.641785
30
120.108337
11
-64.004517
21
59.861176
31
142.675522
12
-31.177286
22
57.676437
32
100.313698
13
-57.871025
23
68.358276
33
78.450470
0
3DFACE
8
0
70
0
10
-78.417862
20
17.435608
30
140.749924
11
-64.004517
21
59.861176
31
142.675522
12
-90.853523
22
68.641785
32
120.108337
13
-105.939827
23
27.411942
33
119.595627
0
3DFACE
8
0
70
0
10
-78.384377
20
24.592957
30
83.570686
11
-50.850708
21
12.386475
31
103.655159
12
-78.417862
22
17.435608
32
140.749924
13
-105.939827
23
27.411942
33
119.595627
0
3DFACE
8
0
70
0
10
-49.095577
20
3.070099
30
97.037941
11
-23.489716
21
64.540802
31
93.882813
12
0.860914
22
54.596649
32
114.017914
13
-23.013594
23
-9.163864
33
115.414970
0
3DFACE
8
0
70
0
10
-23.489716
20
64.540802
30
93.882813
11
-67.205276
21
69.208191
31
151.127197
12
-43.274021
22
61.841766
32
171.681870
13
0.860914
23
54.596649
33
114.017914
0
3DFACE
8
0
70
0
10
-60.494198
20
2.332672
30
166.535675
11
-43.274021
21
61.841766
31
171.681870
12
-67.205276
22
69.208191
32
151.127197
13
-85.847282
23
11.422897
33
147.258636
0
3DFACE
8
0
70
0
10
-49.095577
20
3.070099
30
97.037941
11
-23.013594
21
-9.163864
31
115.414970
12
-60.494198
22
2.332672
32
166.535675
13
-85.847282
23
11.422897
33
147.258636
0
3DFACE
8
0
70
0
10
-49.095577
20
3.070099
30
97.037941
11
-50.850708
21
12.386475
31
103.655159
12
-31.177286
22
57.676437
32
100.313698
13
-23.489716
23
64.540802
33
93.882813
0
3DFACE
8
0
70
0
10
-23.013594
20
-9.163864
30
115.414970
11
0.860914
21
54.596649
31
114.017914
12
-6.700712
22
47.881805
32
120.360939
13
-24.919348
23
0.890350
33
122.570877
0
3DFACE
8
0
70
0
10
-23.489716
20
64.540802
30
93.882813
11
-31.177286
21
57.676437
31
100.313698
12
-64.004517
22
59.861176
32
142.675522
13
-67.205276
23
69.208191
33
151.127197
0
3DFACE
8
0
70
0
10
0.860914
20
54.596649
30
114.017914
11
-43.274021
21
61.841766
31
171.681870
12
-39.974644
22
52.002441
32
162.873154
13
-6.700712
23
47.881805
33
120.360939
0
3DFACE
8
0
70
0
10
-60.494198
20
2.332672
30
166.535675
11
-53.181854
21
8.287872
31
160.147125
12
-39.974644
22
52.002441
32
162.873154
13
-43.274021
23
61.841766
33
171.681870
0
3DFACE
8
0
70
0
10
-85.847282
20
11.422897
30
147.258636
11
-67.205276
21
69.208191
31
151.127197
12
-64.004517
22
59.861176
32
142.675522
13
-78.417862
23
17.435608
33
140.749924
0
3DFACE
8
0
70
0
10
-23.013594
20
-9.163864
30
115.414970
11
-24.919348
21
0.890350
31
122.570877
12
-53.181854
22
8.287872
32
160.147125
13
-60.494198
23
2.332672
33
166.535675
0
3DFACE
8
0
70
0
10
-49.095577
20
3.070099
30
97.037941
11
-85.847282
21
11.422897
31
147.258636
12
-78.417862
22
17.435608
32
140.749924
13
-50.850708
23
12.386475
33
103.655159
0
3DFACE
8
0
70
0
10
-39.082005
20
9.379807
30
134.004333
11
-24.919348
21
0.890350
31
122.570877
12
-6.700712
22
47.881805
32
120.360939
13
-21.409174
23
29.679688
33
119.404457
0
3DFACE
8
0
70
0
10
-21.409174
20
29.679688
30
119.404457
11
-6.700712
21
47.881805
31
120.360939
12
-39.974644
22
52.002441
32
162.873154
13
-35.755024
23
46.758453
33
143.642334
0
3DFACE
8
0
70
0
10
-50.547634
20
26.204636
30
154.346970
11
-35.755024
21
46.758453
31
143.642334
12
-39.974644
22
52.002441
32
162.873154
13
-53.181854
23
8.287872
33
160.147125
0
3DFACE
8
0
70
0
10
-39.082005
20
9.379807
30
134.004333
11
-50.547634
21
26.204636
31
154.346970
12
-53.181854
22
8.287872
32
160.147125
13
-24.919348
23
0.890350
33
122.570877
0
3DFACE
8
0
70
0
10
27.450401
20
-4.847916
30
127.923981
11
17.748472
21
-1.135330
31
120.140762
12
20.843311
22
9.394928
32
119.878433
13
30.594650
23
5.669739
33
127.558563
0
3DFACE
8
0
70
0
10
30.594650
20
5.669739
30
127.558563
11
20.843311
21
9.394928
31
119.878433
12
23.772234
22
20.374664
32
120.078262
13
33.437958
23
16.675293
33
127.846832
0
3DFACE
8
0
70
0
10
-30.292566
20
24.739990
30
187.498520
11
-7.397406
21
40.080750
31
163.835526
12
-35.755024
22
46.758453
32
143.642334
13
-50.547634
23
26.204636
33
154.346970
0
3DFACE
8
0
70
0
10
-16.629059
20
-0.316864
30
160.888535
11
-30.292566
21
24.739990
31
187.498520
12
-50.547634
22
26.204636
32
154.346970
13
-39.082005
23
9.379807
33
134.004333
0
3DFACE
8
0
70
0
10
39.187138
20
-9.561554
30
200.358261
11
-16.629059
21
-0.316864
31
160.888535
12
17.463490
22
11.492172
32
146.021881
13
51.006878
23
-1.505035
33
187.336319
0
3DFACE
8
0
70
0
10
51.006878
20
-1.505035
30
187.336319
11
17.463490
21
11.492172
31
146.021881
12
-7.397406
22
40.080750
32
163.835526
13
43.356270
23
12.523224
33
201.722702
0
3DFACE
8
0
70
0
10
23.253296
20
6.123444
30
207.242538
11
43.356270
21
12.523224
31
201.722702
12
-7.397406
22
40.080750
32
163.835526
13
-30.292566
23
24.739990
33
187.498520
0
3DFACE
8
0
70
0
10
39.187138
20
-9.561554
30
200.358261
11
23.253296
21
6.123444
31
207.242538
12
-30.292566
22
24.739990
32
187.498520
13
-16.629059
23
-0.316864
33
160.888535
0
3DFACE
8
0
70
0
10
27.450401
20
-4.847916
30
127.923981
11
-16.629059
21
-0.316864
31
160.888535
12
-39.082005
22
9.379807
32
134.004333
13
17.748472
23
-1.135330
33
120.140762
0
3DFACE
8
0
70
0
10
17.748472
20
-1.135330
30
120.140762
11
-39.082005
21
9.379807
31
134.004333
12
-21.409174
22
29.679688
32
119.404457
13
20.843311
23
9.394928
33
119.878433
0
3DFACE
8
0
70
0
10
27.450401
20
-4.847916
30
127.923981
11
30.594650
21
5.669739
31
127.558563
12
17.463490
22
11.492172
32
146.021881
13
-16.629059
23
-0.316864
33
160.888535
0
3DFACE
8
0
70
0
10
20.843311
20
9.394928
30
119.878433
11
-21.409174
21
29.679688
31
119.404457
12
-35.755024
22
46.758453
32
143.642334
13
23.772234
23
20.374664
33
120.078262
0
3DFACE
8
0
70
0
10
33.437958
20
16.675293
30
127.846832
11
23.772234
21
20.374664
31
120.078262
12
-35.755024
22
46.758453
32
143.642334
13
-7.397406
23
40.080750
33
163.835526
0
3DFACE
8
0
70
0
10
30.594650
20
5.669739
30
127.558563
11
33.437958
21
16.675293
31
127.846832
12
-7.397406
22
40.080750
32
163.835526
13
17.463490
23
11.492172
33
146.021881
0
3DFACE
8
0
70
0
10
21.814636
20
-67.301567
30
21.874105
11
22.601959
21
-16.475555
31
61.800335
12
-6.702626
22
-41.210487
32
96.749672
13
-2.560702
23
-61.684509
33
14.679755
0
3DFACE
8
0
70
0
10
21.814636
20
-67.301567
30
21.874105
11
-2.560702
21
-61.684509
31
14.679755
12
1.747203
22
-82.978996
32
-70.678986
13
35.081501
23
-111.845802
33
-26.061050
0
3DFACE
8
0
70
0
10
1.747203
20
-82.978996
30
-70.678986
11
-2.560702
21
-61.684509
31
14.679755
12
-24.436550
22
-94.343689
32
13.205841
13
-25.277058
23
-74.176331
33
-44.325737
0
3DFACE
8
0
70
0
10
-2.560702
20
-61.684509
30
14.679755
11
-6.702626
21
-41.210487
31
96.749672
12
-39.438210
22
-106.486824
32
68.713531
13
-24.436550
23
-94.343689
33
13.205841
0
3DFACE
8
0
70
0
10
-1.351454
20
170.603210
30
95.694229
11
8.841277
21
170.916809
31
90.289787
12
16.714527
22
190.000671
32
91.295845
13
-2.928144
23
189.830414
33
97.915535
0
3DFACE
8
0
70
0
10
-2.928144
20
189.830414
30
97.915535
11
16.714527
21
190.000671
31
91.295845
12
8.932240
22
197.524353
32
88.523521
13
-3.937925
23
200.528687
33
91.494995
0
3DFACE
8
0
70
0
10
8.841277
20
170.916809
30
90.289787
11
10.054661
21
165.159729
31
78.335770
12
19.916317
22
184.309998
32
74.644867
13
16.714527
23
190.000671
33
91.295845
0
3DFACE
8
0
70
0
10
-1.351454
20
170.603210
30
95.694229
11
-1.131673
21
162.674316
31
84.891525
12
10.054661
22
165.159729
32
78.335770
13
8.841277
23
170.916809
33
90.289787
0
3DFACE
8
0
70
0
10
-3.937925
20
200.528687
30
91.494995
11
8.932240
21
197.524353
31
88.523521
12
10.769699
22
195.275696
32
72.463303
13
-4.313829
23
198.956299
33
77.124901
0
3DFACE
8
0
70
0
10
16.714527
20
190.000671
30
91.295845
11
19.916317
21
184.309998
31
74.644867
12
10.769699
22
195.275696
32
72.463303
13
8.932240
23
197.524353
33
88.523521
0
3DFACE
8
0
70
0
10
-1.100831
20
207.768738
30
71.360077
11
-0.288642
21
198.703918
31
74.291512
12
10.901146
22
196.264465
32
69.374237
13
10.554687
23
215.772034
33
67.661896
0
3DFACE
8
0
70
0
10
10.901146
20
196.264465
30
69.374237
11
20.343382
21
196.768372
31
62.851719
12
23.075947
22
206.953064
32
57.106106
13
10.554687
23
215.772034
33
67.661896
0
3DFACE
8
0
70
0
10
13.115193
20
151.548096
30
100.700623
11
7.547039
21
167.527954
31
86.234596
12
-1.329135
22
165.946838
32
89.366570
13
0.189112
23
150.400208
33
101.635147
0
3DFACE
8
0
70
0
10
49.462704
20
161.964325
30
52.055218
11
46.928848
21
172.459839
31
49.710739
12
24.404377
22
167.750061
32
71.775093
13
33.436913
23
147.343140
33
82.420639
0
3DFACE
8
0
70
0
10
7.547039
20
167.527954
30
86.234596
11
13.115193
21
151.548096
31
100.700623
12
31.074940
22
153.462097
32
91.456795
13
22.168240
23
168.990356
33
85.813774
0
3DFACE
8
0
70
0
10
40.612278
20
204.157532
30
43.595154
11
52.186298
21
211.328247
31
41.640083
12
26.543497
22
220.309296
32
58.334980
13
27.041771
23
211.037048
33
59.096325
0
3DFACE
8
0
70
0
10
-6.258062
20
221.406067
30
73.749802
11
-5.436036
21
211.544983
31
73.384293
12
9.746871
22
219.698730
32
69.439987
13
10.502479
23
229.049408
33
67.511551
0
3DFACE
8
0
70
0
10
10.502479
20
229.049408
30
67.511551
11
9.746871
21
219.698730
31
69.439987
12
27.041771
22
211.037048
32
59.096325
13
26.543497
23
220.309296
33
58.334980
0
3DFACE
8
0
70
0
10
2.461504
20
124.010895
30
104.850266
11
18.860449
21
132.307861
31
96.641251
12
14.907780
22
140.558899
32
92.850739
13
1.219868
23
137.596497
33
99.047218
0
3DFACE
8
0
70
0
10
6.149295
20
77.644241
30
92.881531
11
25.365238
21
90.909088
31
86.839035
12
18.860449
22
132.307861
32
96.641251
13
2.461504
23
124.010895
33
104.850266
0
3DFACE
8
0
70
0
10
49.462704
20
161.964325
30
52.055218
11
33.436913
21
147.343140
31
82.420639
12
33.031548
22
142.323944
32
74.254181
13
54.134338
23
151.929352
33
57.359219
0
3DFACE
8
0
70
0
10
33.031548
20
142.323944
30
74.254181
11
46.589062
21
111.846008
31
50.107536
12
54.096825
22
138.394043
32
28.308523
13
54.134338
23
151.929352
33
57.359219
0
3DFACE
8
0
70
0
10
25.365238
20
90.909088
30
86.839035
11
46.589062
21
111.846008
31
50.107536
12
33.031548
22
142.323944
32
74.254181
13
18.860449
23
132.307861
33
96.641251
0
3DFACE
8
0
70
0
10
18.860449
20
132.307861
30
96.641251
11
33.031548
21
142.323944
31
74.254181
12
33.436913
22
147.343140
32
82.420639
13
14.907780
23
140.558899
33
92.850739
0
3DFACE
8
0
70
0
10
0.189112
20
150.400208
30
101.635147
11
1.219868
21
137.596497
31
99.047218
12
14.907780
22
140.558899
32
92.850739
13
13.115193
23
151.548096
33
100.700623
0
3DFACE
8
0
70
0
10
-1.329135
20
165.946838
30
89.366570
11
7.547039
21
167.527954
31
86.234596
12
10.054661
22
165.159729
32
78.335770
13
-1.131673
23
162.674316
33
84.891525
0
3DFACE
8
0
70
0
10
22.168240
20
168.990356
30
85.813774
11
24.404377
21
167.750061
31
71.775093
12
10.054661
22
165.159729
32
78.335770
13
7.547039
23
167.527954
33
86.234596
0
POINT
8
0
70
0
10
52.310474
20
150.238586
30
73.224724
0
3DFACE
8
0
70
0
10
13.115193
20
151.548096
30
100.700623
11
14.907780
21
140.558899
31
92.850739
12
33.436913
22
147.343140
32
82.420639
13
31.074940
23
153.462097
33
91.456795
0
3DFACE
8
0
70
0
10
31.074940
20
153.462097
30
91.456795
11
52.310474
21
150.238586
31
73.224724
12
22.168240
22
168.990356
32
85.813774
13
22.168240
23
168.990356
33
85.813774
0
3DFACE
8
0
70
0
10
22.168240
20
168.990356
30
85.813774
11
52.310474
21
150.238586
31
73.224724
12
24.404377
22
167.750061
32
71.775093
13
24.404377
23
167.750061
33
71.775093
0
3DFACE
8
0
70
0
10
52.310474
20
150.238586
30
73.224724
11
33.436913
21
147.343140
31
82.420639
12
24.404377
22
167.750061
32
71.775093
13
24.404377
23
167.750061
33
71.775093
0
3DFACE
8
0
70
0
10
33.436913
20
147.343140
30
82.420639
11
52.310474
21
150.238586
31
73.224724
12
31.074940
22
153.462097
32
91.456795
13
31.074940
23
153.462097
33
91.456795
0
3DFACE
8
0
70
0
10
52.186298
20
211.328247
30
41.640083
11
40.612278
21
204.157532
31
43.595154
12
54.301819
22
194.362915
32
7.998610
13
57.470600
23
195.960205
33
7.147980
0
3DFACE
8
0
70
0
10
40.612278
20
204.157532
30
43.595154
11
39.507999
21
194.217957
31
45.951496
12
56.426464
22
187.534454
32
10.374480
13
54.301819
23
194.362915
33
7.998610
0
3DFACE
8
0
70
0
10
39.507999
20
194.217957
30
45.951496
11
43.060196
21
181.609009
31
48.394531
12
57.575623
22
175.100555
32
15.160482
13
56.426464
23
187.534454
33
10.374480
0
3DFACE
8
0
70
0
10
57.470600
20
195.960205
30
7.147980
11
54.301819
21
194.362915
31
7.998610
12
37.793995
22
185.136353
32
-16.910778
13
40.575573
23
183.064087
33
-16.224274
0
3DFACE
8
0
70
0
10
56.426464
20
187.534454
30
10.374480
11
40.188259
21
183.777039
31
-19.266632
12
37.793995
22
185.136353
32
-16.910778
13
54.301819
23
194.362915
33
7.998610
0
3DFACE
8
0
70
0
10
57.575623
20
175.100555
30
15.160482
11
38.453064
21
171.833344
31
-18.321175
12
40.188259
22
183.777039
32
-19.266632
13
56.426464
23
187.534454
33
10.374480
0
3DFACE
8
0
70
0
10
40.575573
20
183.064087
30
-16.224274
11
37.793995
21
185.136353
31
-16.910778
12
-4.433568
22
177.720978
32
-32.881222
13
-3.999043
23
172.328552
33
-33.947655
0
3DFACE
8
0
70
0
10
40.188259
20
183.777039
30
-19.266632
11
-4.372538
21
176.918884
31
-33.248100
12
-4.433568
22
177.720978
32
-32.881222
13
37.793995
23
185.136353
33
-16.910778
0
3DFACE
8
0
70
0
10
38.453064
20
171.833344
30
-18.321175
11
-3.186795
21
163.672180
31
-29.029402
12
-4.372538
22
176.918884
32
-33.248100
13
40.188259
23
183.777039
33
-19.266632
0
3DFACE
8
0
70
0
10
54.096825
20
138.394043
30
28.308523
11
58.982723
21
154.305176
31
20.835520
12
49.462704
22
161.964325
32
52.055218
13
54.134338
23
151.929352
33
57.359219
0
3DFACE
8
0
70
0
10
43.060196
20
181.609009
30
48.394531
11
46.928848
21
172.459839
31
49.710739
12
57.575623
22
175.100555
32
15.160482
13
57.575623
23
175.100555
33
15.160482
0
3DFACE
8
0
70
0
10
49.462704
20
161.964325
30
52.055218
11
58.982723
21
154.305176
31
20.835520
12
57.575623
22
175.100555
32
15.160482
13
46.928848
23
172.459839
33
49.710739
0
3DFACE
8
0
70
0
10
58.982723
20
154.305176
30
20.835520
11
39.200333
21
154.800964
31
-11.840628
12
38.453064
22
171.833344
32
-18.321175
13
57.575623
23
175.100555
33
15.160482
0
3DFACE
8
0
70
0
10
39.200333
20
154.800964
30
-11.840628
11
-1.703339
21
147.625305
31
-21.199635
12
-3.186795
22
163.672180
32
-29.029402
13
38.453064
23
171.833344
33
-18.321175
0
3DFACE
8
0
70
0
10
-6.258062
20
221.406067
30
73.749802
11
10.502479
21
229.049408
31
67.511551
12
10.584931
22
249.382904
32
57.701035
13
-8.709091
23
248.604309
33
64.138260
0
3DFACE
8
0
70
0
10
-8.709091
20
248.604309
30
64.138260
11
10.584931
21
249.382904
31
57.701035
12
10.803007
22
250.333679
32
52.375816
13
-8.976622
23
250.898010
33
59.812428
0
3DFACE
8
0
70
0
10
10.502479
20
229.049408
30
67.511551
11
26.543497
21
220.309296
31
58.334980
12
37.218426
22
246.242554
32
45.051605
13
10.584931
23
249.382904
33
57.701035
0
3DFACE
8
0
70
0
10
10.584931
20
249.382904
30
57.701035
11
37.218426
21
246.242554
31
45.051605
12
35.774071
22
247.538086
32
39.930687
13
10.803007
23
250.333679
33
52.375816
0
3DFACE
8
0
70
0
10
26.543497
20
220.309296
30
58.334980
11
52.186298
21
211.328247
31
41.640083
12
54.091755
22
231.967224
32
17.209751
13
37.218426
23
246.242554
33
45.051605
0
3DFACE
8
0
70
0
10
37.218426
20
246.242554
30
45.051605
11
54.091755
21
231.967224
31
17.209751
12
45.484093
22
234.818146
32
14.953618
13
35.774071
23
247.538086
33
39.930687
0
3DFACE
8
0
70
0
10
52.186298
20
211.328247
30
41.640083
11
57.470600
21
195.960205
31
7.147980
12
58.895744
22
223.803955
32
-7.296139
13
54.091755
23
231.967224
33
17.209751
0
3DFACE
8
0
70
0
10
54.091755
20
231.967224
30
17.209751
11
58.895744
21
223.803955
31
-7.296139
12
52.123619
22
226.270966
32
-6.510263
13
45.484093
23
234.818146
33
14.953618
0
3DFACE
8
0
70
0
10
57.470600
20
195.960205
30
7.147980
11
40.575573
21
183.064087
31
-16.224274
12
39.129761
22
208.764801
32
-26.944698
13
58.895744
23
223.803955
33
-7.296139
0
3DFACE
8
0
70
0
10
58.895744
20
223.803955
30
-7.296139
11
39.129761
21
208.764801
31
-26.944698
12
33.225094
22
213.467804
32
-24.667154
13
52.123619
23
226.270966
33
-6.510263
0
3DFACE
8
0
70
0
10
40.575573
20
183.064087
30
-16.224274
11
-3.999043
21
172.328552
31
-33.947655
12
-6.156910
22
195.905212
32
-44.198242
13
39.129761
23
208.764801
33
-26.944698
0
3DFACE
8
0
70
0
10
39.129761
20
208.764801
30
-26.944698
11
-6.156910
21
195.905212
31
-44.198242
12
-6.518230
22
200.836334
32
-41.140907
13
33.225094
23
213.467804
33
-24.667154
0
3DFACE
8
0
70
0
10
54.096825
20
138.394043
30
28.308523
11
29.550827
21
141.746887
31
16.951111
12
39.200333
22
154.800964
32
-11.840628
13
58.982723
23
154.305176
33
20.835520
0
3DFACE
8
0
70
0
10
29.550827
20
141.746887
30
16.951111
11
-7.090358
21
148.712067
31
-3.671286
12
-1.703339
22
147.625305
32
-21.199635
13
39.200333
23
154.800964
33
-11.840628
0
3DFACE
8
0
70
0
10
46.589062
20
111.846008
30
50.107536
11
22.352001
21
118.178101
31
43.758274
12
29.550827
22
141.746887
32
16.951111
13
54.096825
23
138.394043
33
28.308523
0
3DFACE
8
0
70
0
10
25.365238
20
90.909088
30
86.839035
11
22.895985
21
88.172882
31
71.162010
12
22.352001
22
118.178101
32
43.758274
13
46.589062
23
111.846008
33
50.107536
0
3DFACE
8
0
70
0
10
22.895985
20
88.172882
30
71.162010
11
5.160160
21
84.209869
31
67.592094
12
3.277077
22
101.346924
32
41.960354
13
22.352001
23
118.178101
33
43.758274
0
3DFACE
8
0
70
0
10
6.149295
20
77.644241
30
92.881531
11
5.160160
21
84.209869
31
67.592094
12
22.895985
22
88.172882
32
71.162010
13
22.895985
23
88.172882
33
71.162010
0
3DFACE
8
0
70
0
10
6.149295
20
77.644241
30
92.881531
11
22.895985
21
88.172882
31
71.162010
12
25.365238
22
90.909088
32
86.839035
13
25.365238
23
90.909088
33
86.839035
0
3DFACE
8
0
70
0
10
-1.351454
20
170.603210
30
95.694229
11
-2.928144
21
189.830414
31
97.915535
12
-22.539766
22
186.703186
32
91.975098
13
-11.633307
23
169.196899
33
90.644081
0
3DFACE
8
0
70
0
10
-2.928144
20
189.830414
30
97.915535
11
-3.937925
21
200.528687
31
91.494995
12
-16.221163
22
195.411438
32
88.958778
13
-22.539766
23
186.703186
33
91.975098
0
3DFACE
8
0
70
0
10
-11.633307
20
169.196899
30
90.644081
11
-22.539766
21
186.703186
31
91.975098
12
-25.832642
22
180.466980
32
75.436501
13
-12.794377
23
163.240356
33
78.731148
0
3DFACE
8
0
70
0
10
-1.351454
20
170.603210
30
95.694229
11
-11.633307
21
169.196899
31
90.644081
12
-12.794377
22
163.240356
32
78.731148
13
-1.131673
23
162.674316
33
84.891525
0
3DFACE
8
0
70
0
10
-3.937925
20
200.528687
30
91.494995
11
-4.313829
21
198.956299
31
77.124901
12
-18.723383
22
192.798187
32
72.973656
13
-16.221163
23
195.411438
33
88.958778
0
3DFACE
8
0
70
0
10
-22.539766
20
186.703186
30
91.975098
11
-16.221163
21
195.411438
31
88.958778
12
-18.723383
22
192.798187
32
72.973656
13
-25.832642
23
180.466980
33
75.436501
0
3DFACE
8
0
70
0
10
-8.686004
20
206.977936
30
71.338875
11
-21.504839
21
213.802917
31
68.272797
12
-18.943043
22
194.486633
32
70.383904
13
-7.906913
23
198.251160
33
73.998474
0
3DFACE
8
0
70
0
10
-18.943043
20
194.486633
30
70.383904
11
-21.504839
21
213.802917
31
68.272797
12
-32.683186
22
202.656799
32
60.547165
13
-28.079144
23
193.610474
33
65.365250
0
3DFACE
8
0
70
0
10
-12.771745
20
149.373535
30
101.148575
11
0.189112
21
150.400208
31
101.635147
12
-1.329135
22
165.946838
32
89.366570
13
-10.446972
23
166.016418
33
86.545967
0
3DFACE
8
0
70
0
10
-51.996845
20
153.441528
30
53.810879
11
-32.723408
21
141.785522
31
83.565475
12
-27.591925
22
163.382263
32
72.674843
13
-51.330959
23
164.205811
33
51.411030
0
3DFACE
8
0
70
0
10
-10.446972
20
166.016418
30
86.545967
11
-25.112993
21
165.018616
31
86.631935
12
-31.105995
22
148.238770
32
92.532768
13
-12.771745
23
149.373535
33
101.148575
0
3DFACE
8
0
70
0
10
-50.603203
20
196.495239
30
45.173550
11
-36.976837
21
205.659363
31
60.204105
12
-38.058392
22
214.882599
32
59.452843
13
-63.271271
23
201.629578
33
43.637959
0
3DFACE
8
0
70
0
10
-6.258062
20
221.406067
30
73.749802
11
-23.928926
21
226.919464
31
67.832649
12
-21.559189
22
217.856445
32
69.795959
13
-5.436036
23
211.544983
33
73.384293
0
3DFACE
8
0
70
0
10
-23.928926
20
226.919464
30
67.832649
11
-38.058392
21
214.882599
31
59.452843
12
-36.976837
22
205.659363
32
60.204105
13
-21.559189
23
217.856445
33
69.795959
0
3DFACE
8
0
70
0
10
2.461504
20
124.010895
30
104.850266
11
1.219868
21
137.596497
31
99.047218
12
-12.975084
22
138.216675
32
93.333221
13
-15.363723
23
129.432983
33
97.233467
0
3DFACE
8
0
70
0
10
6.149295
20
77.644241
30
92.881531
11
2.461504
21
124.010895
31
104.850266
12
-15.363723
22
129.432983
32
97.233467
13
-15.205886
23
87.501022
33
87.541077
0
3DFACE
8
0
70
0
10
-51.996845
20
153.441528
30
53.810879
11
-54.744423
21
142.783325
31
59.243259
12
-31.767431
22
136.880676
32
75.375458
13
-32.723408
23
141.785522
33
83.565475
0
3DFACE
8
0
70
0
10
-31.767431
20
136.880676
30
75.375458
11
-54.744423
21
142.783325
31
59.243259
12
-53.448128
22
129.360046
32
30.169483
13
-40.873482
23
104.498962
33
51.620991
0
3DFACE
8
0
70
0
10
-15.205886
20
87.501022
30
87.541077
11
-15.363723
21
129.432983
31
97.233467
12
-31.767431
22
136.880676
32
75.375458
13
-40.873482
23
104.498962
33
51.620991
0
3DFACE
8
0
70
0
10
-15.363723
20
129.432983
30
97.233467
11
-12.975084
21
138.216675
31
93.333221
12
-32.723408
22
141.785522
32
83.565475
13
-31.767431
23
136.880676
33
75.375458
0
3DFACE
8
0
70
0
10
0.189112
20
150.400208
30
101.635147
11
-12.771745
21
149.373535
31
101.148575
12
-12.975084
22
138.216675
32
93.333221
13
1.219868
23
137.596497
33
99.047218
0
3DFACE
8
0
70
0
10
-1.329135
20
165.946838
30
89.366570
11
-1.131673
21
162.674316
31
84.891525
12
-12.794377
22
163.240356
32
78.731148
13
-10.446972
23
166.016418
33
86.545967
0
3DFACE
8
0
70
0
10
-25.112993
20
165.018616
30
86.631935
11
-10.446972
21
166.016418
31
86.545967
12
-12.794377
22
163.240356
32
78.731148
13
-27.591925
23
163.382263
33
72.674843
0
POINT
8
0
70
0
10
-51.315666
20
141.533752
30
75.017868
0
3DFACE
8
0
70
0
10
-12.771745
20
149.373535
30
101.148575
11
-31.105995
21
148.238770
31
92.532768
12
-32.723408
22
141.785522
32
83.565475
13
-12.975084
23
138.216675
33
93.333221
0
3DFACE
8
0
70
0
10
-31.105995
20
148.238770
30
92.532768
11
-25.112993
21
165.018616
31
86.631935
12
-51.315666
22
141.533752
32
75.017868
13
-51.315666
23
141.533752
33
75.017868
0
3DFACE
8
0
70
0
10
-25.112993
20
165.018616
30
86.631935
11
-27.591925
21
163.382263
31
72.674843
12
-51.315666
22
141.533752
32
75.017868
13
-51.315666
23
141.533752
33
75.017868
0
3DFACE
8
0
70
0
10
-51.315666
20
141.533752
30
75.017868
11
-27.591925
21
163.382263
31
72.674843
12
-32.723408
22
141.785522
32
83.565475
13
-32.723408
23
141.785522
33
83.565475
0
3DFACE
8
0
70
0
10
-32.723408
20
141.785522
30
83.565475
11
-31.105995
21
148.238770
31
92.532768
12
-51.315666
22
141.533752
32
75.017868
13
-51.315666
23
141.533752
33
75.017868
0
3DFACE
8
0
70
0
10
-63.271271
20
201.629578
30
43.637959
11
-67.100349
21
185.495972
31
9.303557
12
-63.682224
22
184.452026
32
10.040207
13
-50.603203
23
196.495239
33
45.173550
0
3DFACE
8
0
70
0
10
-50.603203
20
196.495239
30
45.173550
11
-63.682224
21
184.452026
31
10.040207
12
-64.555389
22
177.371704
32
12.467952
13
-47.776405
23
186.885895
33
47.461868
0
3DFACE
8
0
70
0
10
-47.776405
20
186.885895
30
47.461868
11
-64.555389
21
177.371704
31
12.467952
12
-63.449638
22
164.934174
32
17.254705
13
-49.089893
23
173.868164
33
49.989098
0
3DFACE
8
0
70
0
10
-67.100349
20
185.495972
30
9.303557
11
-49.104229
21
175.530792
31
-14.672454
12
-46.732468
22
178.035919
32
-15.448132
13
-63.682224
23
184.452026
33
10.040207
0
3DFACE
8
0
70
0
10
-64.555389
20
177.371704
30
12.467952
11
-63.682224
21
184.452026
31
10.040207
12
-46.732468
22
178.035919
32
-15.448132
13
-48.946007
23
176.289551
33
-17.724251
0
3DFACE
8
0
70
0
10
-63.449638
20
164.934174
30
17.254705
11
-64.555389
21
177.371704
31
12.467952
12
-48.946007
22
176.289551
32
-17.724251
13
-45.211731
23
164.805328
33
-16.873438
0
3DFACE
8
0
70
0
10
-49.104229
20
175.530792
30
-14.672454
11
-3.999043
21
172.328552
31
-33.947655
12
-4.433568
22
177.720978
32
-32.881222
13
-46.732468
23
178.035919
33
-15.448132
0
3DFACE
8
0
70
0
10
-48.946007
20
176.289551
30
-17.724251
11
-46.732468
21
178.035919
31
-15.448132
12
-4.433568
22
177.720978
32
-32.881222
13
-4.372538
23
176.918884
33
-33.248100
0
3DFACE
8
0
70
0
10
-45.211731
20
164.805328
30
-16.873438
11
-48.946007
21
176.289551
31
-17.724251
12
-4.372538
22
176.918884
32
-33.248100
13
-3.186795
23
163.672180
33
-29.029402
0
3DFACE
8
0
70
0
10
-53.448128
20
129.360046
30
30.169483
11
-54.744423
21
142.783325
31
59.243259
12
-51.996845
22
153.441528
32
53.810879
13
-61.173019
23
144.211853
33
22.914698
0
3DFACE
8
0
70
0
10
-49.089893
20
173.868164
30
49.989098
11
-63.449638
21
164.934174
31
17.254705
12
-51.330959
22
164.205811
32
51.411030
13
-51.330959
23
164.205811
33
51.411030
0
3DFACE
8
0
70
0
10
-51.996845
20
153.441528
30
53.810879
11
-51.330959
21
164.205811
31
51.411030
12
-63.449638
22
164.934174
32
17.254705
13
-61.173019
23
144.211853
33
22.914698
0
3DFACE
8
0
70
0
10
-61.173019
20
144.211853
30
22.914698
11
-63.449638
21
164.934174
31
17.254705
12
-45.211731
22
164.805328
32
-16.873438
13
-42.884827
23
147.905640
33
-10.420224
0
3DFACE
8
0
70
0
10
-42.884827
20
147.905640
30
-10.420224
11
-45.211731
21
164.805328
31
-16.873438
12
-3.186795
22
163.672180
32
-29.029402
13
-1.703339
23
147.625305
33
-21.199635
0
3DFACE
8
0
70
0
10
-6.258062
20
221.406067
30
73.749802
11
-8.709091
21
248.604309
31
64.138260
12
-28.072344
22
246.135620
32
58.369961
13
-23.928926
23
226.919464
33
67.832649
0
3DFACE
8
0
70
0
10
-8.709091
20
248.604309
30
64.138260
11
-8.976622
21
250.898010
31
59.812428
12
-28.628754
22
247.021332
32
53.058144
13
-28.072344
23
246.135620
33
58.369961
0
3DFACE
8
0
70
0
10
-23.928926
20
226.919464
30
67.832649
11
-28.072344
21
246.135620
31
58.369961
12
-54.227703
22
238.560883
32
46.633991
13
-38.058392
23
214.882599
33
59.452843
0
3DFACE
8
0
70
0
10
-28.072344
20
246.135620
30
58.369961
11
-28.628754
21
247.021332
31
53.058144
12
-53.196445
22
240.064392
32
41.470234
13
-54.227703
23
238.560883
33
46.633991
0
3DFACE
8
0
70
0
10
-38.058392
20
214.882599
30
59.452843
11
-54.227703
21
238.560883
31
46.633991
12
-69.430336
22
221.591125
32
19.347179
13
-63.271271
23
201.629578
33
43.637959
0
3DFACE
8
0
70
0
10
-54.227703
20
238.560883
30
46.633991
11
-53.196445
21
240.064392
31
41.470234
12
-61.501350
22
225.831116
32
16.804895
13
-69.430336
23
221.591125
33
19.347179
0
3DFACE
8
0
70
0
10
-63.271271
20
201.629578
30
43.637959
11
-69.430336
21
221.591125
31
19.347179
12
-73.644623
22
212.670288
32
-5.002660
13
-67.100349
23
185.495972
33
9.303557
0
3DFACE
8
0
70
0
10
-69.430336
20
221.591125
30
19.347179
11
-61.501350
21
225.831116
31
16.804895
12
-67.355835
22
216.234436
32
-4.442790
13
-73.644623
23
212.670288
33
-5.002660
0
3DFACE
8
0
70
0
10
-67.100349
20
185.495972
30
9.303557
11
-73.644623
21
212.670288
31
-5.002660
12
-52.334145
22
201.081635
32
-25.362007
13
-49.104229
23
175.530792
33
-14.672454
0
3DFACE
8
0
70
0
10
-73.644623
20
212.670288
30
-5.002660
11
-67.355835
21
216.234436
31
-4.442790
12
-47.221821
22
206.710083
32
-23.275101
13
-52.334145
23
201.081635
33
-25.362007
0
3DFACE
8
0
70
0
10
-49.104229
20
175.530792
30
-14.672454
11
-52.334145
21
201.081635
31
-25.362007
12
-6.156910
22
195.905212
32
-44.198242
13
-3.999043
23
172.328552
33
-33.947655
0
3DFACE
8
0
70
0
10
-52.334145
20
201.081635
30
-25.362007
11
-47.221821
21
206.710083
31
-23.275101
12
-6.518230
22
200.836334
32
-41.140907
13
-6.156910
23
195.905212
33
-44.198242
0
3DFACE
8
0
70
0
10
-53.448128
20
129.360046
30
30.169483
11
-61.173019
21
144.211853
31
22.914698
12
-42.884827
22
147.905640
32
-10.420224
13
-45.714195
23
137.030029
33
16.683235
0
3DFACE
8
0
70
0
10
-45.714195
20
137.030029
30
16.683235
11
-42.884827
21
147.905640
31
-10.420224
12
-1.703339
22
147.625305
32
-21.199635
13
-7.090358
23
148.712067
33
-3.671286
0
3DFACE
8
0
70
0
10
-40.873482
20
104.498962
30
51.620991
11
-53.448128
21
129.360046
31
30.169483
12
-45.714195
22
137.030029
32
16.683235
13
-39.585938
23
112.804840
33
43.453117
0
3DFACE
8
0
70
0
10
-15.205886
20
87.501022
30
87.541077
11
-40.873482
21
104.498962
31
51.620991
12
-39.585938
22
112.804840
32
43.453117
13
-12.854946
23
85.169739
33
71.780640
0
3DFACE
8
0
70
0
10
-12.854946
20
85.169739
30
71.780640
11
-39.585938
21
112.804840
31
43.453117
12
3.277077
22
101.346924
32
41.960354
13
5.160160
23
84.209869
33
67.592094
0
3DFACE
8
0
70
0
10
6.149295
20
77.644241
30
92.881531
11
-12.854946
21
85.169739
31
71.780640
12
5.160160
22
84.209869
32
67.592094
13
5.160160
23
84.209869
33
67.592094
0
3DFACE
8
0
70
0
10
6.149295
20
77.644241
30
92.881531
11
-15.205886
21
87.501022
31
87.541077
12
-12.854946
22
85.169739
32
71.780640
13
-12.854946
23
85.169739
33
71.780640
0
3DFACE
8
0
70
0
10
-7.906913
20
198.251160
30
73.998474
11
-4.313829
21
198.956299
31
77.124901
12
-5.436036
22
211.544983
32
73.384293
13
-8.686004
23
206.977936
33
71.338875
0
3DFACE
8
0
70
0
10
-18.943043
20
194.486633
30
70.383904
11
-18.723383
21
192.798187
31
72.973656
12
-4.313829
22
198.956299
32
77.124901
13
-7.906913
23
198.251160
33
73.998474
0
3DFACE
8
0
70
0
10
-21.504839
20
213.802917
30
68.272797
11
-8.686004
21
206.977936
31
71.338875
12
-5.436036
22
211.544983
32
73.384293
13
-21.559189
23
217.856445
33
69.795959
0
3DFACE
8
0
70
0
10
-18.943043
20
194.486633
30
70.383904
11
-28.079144
21
193.610474
31
65.365250
12
-30.748943
22
191.778778
32
66.764938
13
-18.723383
23
192.798187
33
72.973656
0
3DFACE
8
0
70
0
10
-28.079144
20
193.610474
30
65.365250
11
-32.683186
21
202.656799
31
60.547165
12
-36.976837
22
205.659363
32
60.204105
13
-30.748943
23
191.778778
33
66.764938
0
3DFACE
8
0
70
0
10
-21.504839
20
213.802917
30
68.272797
11
-21.559189
21
217.856445
31
69.795959
12
-36.976837
22
205.659363
32
60.204105
13
-32.683186
23
202.656799
33
60.547165
0
3DFACE
8
0
70
0
10
10.554687
20
215.772034
30
67.661896
11
9.746871
21
219.698730
31
69.439987
12
-5.436036
22
211.544983
32
73.384293
13
-1.100831
23
207.768738
33
71.360077
0
3DFACE
8
0
70
0
10
10.901146
20
196.264465
30
69.374237
11
-0.288642
21
198.703918
31
74.291512
12
-4.313829
22
198.956299
32
77.124901
13
10.769699
23
195.275696
33
72.463303
0
3DFACE
8
0
70
0
10
-0.288642
20
198.703918
30
74.291512
11
-1.100831
21
207.768738
31
71.360077
12
-5.436036
22
211.544983
32
73.384293
13
-4.313829
23
198.956299
33
77.124901
0
3DFACE
8
0
70
0
10
10.554687
20
215.772034
30
67.661896
11
23.075947
21
206.953064
31
57.106106
12
27.041771
22
211.037048
32
59.096325
13
9.746871
23
219.698730
33
69.439987
0
3DFACE
8
0
70
0
10
20.343382
20
196.768372
30
62.851719
11
23.445198
21
196.331207
31
65.827156
12
27.041771
22
211.037048
32
59.096325
13
23.075947
23
206.953064
33
57.106106
0
3DFACE
8
0
70
0
10
10.901146
20
196.264465
30
69.374237
11
10.769699
21
195.275696
31
72.463303
12
23.445198
22
196.331207
32
65.827156
13
20.343382
23
196.768372
33
62.851719
0
3DFACE
8
0
70
0
10
-7.090358
20
148.712067
30
-3.671286
11
29.550827
21
141.746887
31
16.951111
12
53.435135
22
136.096130
32
-10.607792
13
-12.974791
23
147.223877
33
-7.920342
0
3DFACE
8
0
70
0
10
-12.974791
20
147.223877
30
-7.920342
11
-74.887428
21
130.367554
31
-10.459659
12
-45.714195
22
137.030029
32
16.683235
13
-7.090358
23
148.712067
33
-3.671286
0
3DFACE
8
0
70
0
10
-74.887428
20
130.367554
30
-10.459659
11
-69.680649
21
103.894440
31
46.998550
12
-45.714195
22
137.030029
32
16.683235
13
-45.714195
23
137.030029
33
16.683235
0
3DFACE
8
0
70
0
10
-69.680649
20
103.894440
30
46.998550
11
-39.585938
21
112.804840
31
43.453117
12
-45.714195
22
137.030029
32
16.683235
13
-45.714195
23
137.030029
33
16.683235
0
3DFACE
8
0
70
0
10
39.495354
20
111.505981
30
49.386021
11
29.550827
21
141.746887
31
16.951111
12
22.352001
22
118.178101
32
43.758274
13
22.352001
23
118.178101
33
43.758274
0
3DFACE
8
0
70
0
10
53.435135
20
136.096130
30
-10.607792
11
29.550827
21
141.746887
31
16.951111
12
39.495354
22
111.505981
32
49.386021
13
39.495354
23
111.505981
33
49.386021
0
3DFACE
8
0
70
0
10
-18.547739
20
104.546814
30
53.432468
11
-39.585938
21
112.804840
31
43.453117
12
-69.680649
22
103.894440
32
46.998550
13
-69.680649
23
103.894440
33
46.998550
0
3DFACE
8
0
70
0
10
3.277077
20
101.346924
30
41.960354
11
-39.585938
21
112.804840
31
43.453117
12
-18.547739
22
104.546814
32
53.432468
13
-18.547739
23
104.546814
33
53.432468
0
3DFACE
8
0
70
0
10
3.277077
20
101.346924
30
41.960354
11
-18.547739
21
104.546814
31
53.432468
12
22.352001
22
118.178101
32
43.758274
13
22.352001
23
118.178101
33
43.758274
0
3DFACE
8
0
70
0
10
-18.547739
20
104.546814
30
53.432468
11
39.495354
21
111.505981
31
49.386021
12
22.352001
22
118.178101
32
43.758274
13
22.352001
23
118.178101
33
43.758274
0
3DFACE
8
0
70
0
10
-6.518230
20
200.836334
30
-41.140907
11
-11.635597
21
262.562592
31
-35.600399
12
4.104993
22
267.324707
32
-29.139254
13
33.225094
23
213.467804
33
-24.667154
0
3DFACE
8
0
70
0
10
33.225094
20
213.467804
30
-24.667154
11
4.104993
21
267.324707
31
-29.139254
12
14.529360
22
273.306458
32
-19.324682
13
52.123619
23
226.270966
33
-6.510263
0
3DFACE
8
0
70
0
10
52.123619
20
226.270966
30
-6.510263
11
14.529360
21
273.306458
31
-19.324682
12
11.826026
22
278.302826
32
-9.053124
13
45.484093
23
234.818146
33
14.953618
0
3DFACE
8
0
70
0
10
45.484093
20
234.818146
30
14.953618
11
11.826026
21
278.302826
31
-9.053124
12
8.834949
22
284.527130
32
3.674358
13
35.774071
23
247.538086
33
39.930687
0
3DFACE
8
0
70
0
10
-8.976622
20
250.898010
30
59.812428
11
10.803007
21
250.333679
31
52.375816
12
-3.208226
22
286.659454
32
10.037011
13
-12.890830
23
287.680908
33
13.796176
0
3DFACE
8
0
70
0
10
-6.518230
20
200.836334
30
-41.140907
11
-47.221821
21
206.710083
31
-23.275101
12
-27.718550
22
264.651459
32
-28.588579
13
-11.635597
23
262.562592
33
-35.600399
0
3DFACE
8
0
70
0
10
-47.221821
20
206.710083
30
-23.275101
11
-67.355835
21
216.234436
31
-4.442790
12
-38.651108
22
268.839172
32
-18.404448
13
-27.718550
23
264.651459
33
-28.588579
0
3DFACE
8
0
70
0
10
-67.355835
20
216.234436
30
-4.442790
11
-61.501350
21
225.831116
31
16.804895
12
-36.467663
22
274.246063
32
-8.217451
13
-38.651108
23
268.839172
33
-18.404448
0
3DFACE
8
0
70
0
10
-61.501350
20
225.831116
30
16.804895
11
-53.196445
21
240.064392
31
41.470234
12
-34.121082
22
280.918732
32
4.417668
13
-36.467663
23
274.246063
33
-8.217451
0
3DFACE
8
0
70
0
10
-8.976622
20
250.898010
30
59.812428
11
-12.890830
21
287.680908
31
13.796176
12
-22.390818
22
285.048065
32
10.368947
13
-28.628754
23
247.021332
33
53.058144
0
3DFACE
8
0
70
0
10
35.774071
20
247.538086
30
39.930687
11
8.834949
21
284.527130
31
3.674358
12
-3.208226
22
286.659454
32
10.037011
13
10.803007
23
250.333679
33
52.375816
0
3DFACE
8
0
70
0
10
-53.196445
20
240.064392
30
41.470234
11
-28.628754
21
247.021332
31
53.058144
12
-22.390818
22
285.048065
32
10.368947
13
-34.121082
23
280.918732
33
4.417668
0
3DFACE
8
0
70
0
10
-17.179356
20
329.625916
30
-27.988865
11
-3.979493
21
333.131622
31
-37.497318
12
-18.115961
22
337.945313
32
-41.728970
13
-18.115961
23
337.945313
33
-41.728970
0
3DFACE
8
0
70
0
10
-2.824854
20
321.226288
30
-28.564835
11
-3.979493
21
333.131622
31
-37.497318
12
-17.179356
22
329.625916
32
-27.988865
13
-17.179356
23
329.625916
33
-27.988865
0
3DFACE
8
0
70
0
10
-15.806680
20
314.134644
30
-23.863966
11
-2.824854
21
321.226288
31
-28.564835
12
-17.179356
22
329.625916
32
-27.988865
13
-17.179356
23
329.625916
33
-27.988865
0
3DFACE
8
0
70
0
10
-15.806680
20
314.134644
30
-23.863966
11
-17.179356
21
329.625916
31
-27.988865
12
-29.943110
22
318.948303
32
-28.095581
13
-29.943110
23
318.948303
33
-28.095581
0
3DFACE
8
0
70
0
10
-29.943110
20
318.948303
30
-28.095581
11
-17.179356
21
329.625916
31
-27.988865
12
-31.097750
22
330.853638
32
-37.028065
13
-31.097750
23
330.853638
33
-37.028065
0
3DFACE
8
0
70
0
10
-17.179356
20
329.625916
30
-27.988865
11
-18.115961
21
337.945313
31
-41.728970
12
-31.097750
22
330.853638
32
-37.028065
13
-31.097750
23
330.853638
33
-37.028065
0
3DFACE
8
0
70
0
10
-3.979493
20
333.131622
30
-37.497318
11
1.924112
21
327.411865
31
-51.051056
12
-18.067839
22
334.219421
32
-57.035469
13
-18.115961
23
337.945313
33
-41.728970
0
3DFACE
8
0
70
0
10
3.557024
20
310.575134
30
-38.418564
11
1.924112
21
327.411865
31
-51.051056
12
-3.979493
22
333.131622
32
-37.497318
13
-2.824854
23
321.226288
33
-28.564835
0
3DFACE
8
0
70
0
10
-14.802022
20
300.546051
30
-31.770546
11
3.557024
21
310.575134
31
-38.418564
12
-2.824854
22
321.226288
32
-28.564835
13
-15.806680
23
314.134644
33
-23.863966
0
3DFACE
8
0
70
0
10
-14.802022
20
300.546051
30
-31.770546
11
-15.806680
21
314.134644
31
-23.863966
12
-29.943110
22
318.948303
32
-28.095581
13
-34.793976
23
307.353577
33
-37.754936
0
3DFACE
8
0
70
0
10
-34.793976
20
307.353577
30
-37.754936
11
-29.943110
21
318.948303
31
-28.095581
12
-31.097750
22
330.853638
32
-37.028065
13
-36.426888
23
324.190308
33
-50.387428
0
3DFACE
8
0
70
0
10
-31.097750
20
330.853638
30
-37.028065
11
-18.115961
21
337.945313
31
-41.728970
12
-18.067839
22
334.219421
32
-57.035469
13
-36.426888
23
324.190308
33
-50.387428
0
3DFACE
8
0
70
0
10
-2.926713
20
315.817108
30
-60.710381
11
-17.063179
21
320.630829
31
-64.942032
12
-18.067839
22
334.219421
32
-57.035469
13
1.924112
23
327.411865
33
-51.051056
0
3DFACE
8
0
70
0
10
3.557024
20
310.575134
30
-38.418564
11
-1.772074
21
303.911774
31
-51.777897
12
-2.926713
22
315.817108
32
-60.710381
13
1.924112
23
327.411865
33
-51.051056
0
3DFACE
8
0
70
0
10
-14.802022
20
300.546051
30
-31.770546
11
-14.753897
21
296.820129
31
-47.077026
12
-1.772074
22
303.911774
32
-51.777897
13
3.557024
23
310.575134
33
-38.418564
0
3DFACE
8
0
70
0
10
-14.802022
20
300.546051
30
-31.770546
11
-34.793976
21
307.353577
31
-37.754936
12
-28.890329
22
301.633789
32
-51.308643
13
-14.753897
23
296.820129
33
-47.077026
0
3DFACE
8
0
70
0
10
-34.793976
20
307.353577
30
-37.754936
11
-36.426888
21
324.190308
31
-50.387428
12
-30.044968
22
313.539124
32
-60.241127
13
-28.890329
23
301.633789
33
-51.308643
0
3DFACE
8
0
70
0
10
-30.044968
20
313.539124
30
-60.241127
11
-36.426888
21
324.190308
31
-50.387428
12
-18.067839
22
334.219421
32
-57.035469
13
-17.063179
23
320.630829
33
-64.942032
0
3DFACE
8
0
70
0
10
-15.690507
20
305.139496
30
-60.817104
11
-17.063179
21
320.630829
31
-64.942032
12
-2.926713
22
315.817108
32
-60.710381
13
-2.926713
23
315.817108
33
-60.710381
0
3DFACE
8
0
70
0
10
-1.772074
20
303.911774
30
-51.777897
11
-15.690507
21
305.139496
31
-60.817104
12
-2.926713
22
315.817108
32
-60.710381
13
-2.926713
23
315.817108
33
-60.710381
0
3DFACE
8
0
70
0
10
-14.753897
20
296.820129
30
-47.077026
11
-15.690507
21
305.139496
31
-60.817104
12
-1.772074
22
303.911774
32
-51.777897
13
-1.772074
23
303.911774
33
-51.777897
0
3DFACE
8
0
70
0
10
-14.753897
20
296.820129
30
-47.077026
11
-28.890329
21
301.633789
31
-51.308643
12
-15.690507
22
305.139496
32
-60.817104
13
-15.690507
23
305.139496
33
-60.817104
0
3DFACE
8
0
70
0
10
-28.890329
20
301.633789
30
-51.308643
11
-30.044968
21
313.539124
31
-60.241127
12
-15.690507
22
305.139496
32
-60.817104
13
-15.690507
23
305.139496
33
-60.817104
0
3DFACE
8
0
70
0
10
-15.690507
20
305.139496
30
-60.817104
11
-30.044968
21
313.539124
31
-60.241127
12
-17.063179
22
320.630829
32
-64.942032
13
-17.063179
23
320.630829
33
-64.942032
0
3DFACE
8
0
70
0
10
24.404377
20
167.750061
30
71.775093
11
46.928848
21
172.459839
31
49.710739
12
34.507660
22
184.772705
32
71.451401
13
34.507660
23
184.772705
33
71.451401
0
3DFACE
8
0
70
0
10
46.928848
20
172.459839
30
49.710739
11
43.060196
21
181.609009
31
48.394531
12
34.507660
22
184.772705
32
71.451401
13
34.507660
23
184.772705
33
71.451401
0
3DFACE
8
0
70
0
10
10.054661
20
165.159729
30
78.335770
11
24.404377
21
167.750061
31
71.775093
12
19.916317
22
184.309998
32
74.644867
13
19.916317
23
184.309998
33
74.644867
0
3DFACE
8
0
70
0
10
24.404377
20
167.750061
30
71.775093
11
34.507660
21
184.772705
31
71.451401
12
19.916317
22
184.309998
32
74.644867
13
19.916317
23
184.309998
33
74.644867
0
3DFACE
8
0
70
0
10
34.507660
20
184.772705
30
71.451401
11
43.060196
21
181.609009
31
48.394531
12
23.445198
22
196.331207
32
65.827156
13
23.445198
23
196.331207
33
65.827156
0
3DFACE
8
0
70
0
10
43.060196
20
181.609009
30
48.394531
11
39.507999
21
194.217957
31
45.951496
12
23.445198
22
196.331207
32
65.827156
13
23.445198
23
196.331207
33
65.827156
0
3DFACE
8
0
70
0
10
19.916317
20
184.309998
30
74.644867
11
23.445198
21
196.331207
31
65.827156
12
10.769699
22
195.275696
32
72.463303
13
10.769699
23
195.275696
33
72.463303
0
3DFACE
8
0
70
0
10
34.507660
20
184.772705
30
71.451401
11
23.445198
21
196.331207
31
65.827156
12
19.916317
22
184.309998
32
74.644867
13
19.916317
23
184.309998
33
74.644867
0
3DFACE
8
0
70
0
10
23.445198
20
196.331207
30
65.827156
11
39.507999
21
194.217957
31
45.951496
12
27.041771
22
211.037048
32
59.096325
13
27.041771
23
211.037048
33
59.096325
0
3DFACE
8
0
70
0
10
39.507999
20
194.217957
30
45.951496
11
40.612278
21
204.157532
31
43.595154
12
27.041771
22
211.037048
32
59.096325
13
27.041771
23
211.037048
33
59.096325
0
3DFACE
8
0
70
0
10
-51.330959
20
164.205811
30
51.411030
11
-40.397778
21
178.480499
31
72.747566
12
-49.089893
22
173.868164
32
49.989098
13
-49.089893
23
173.868164
33
49.989098
0
3DFACE
8
0
70
0
10
-27.591925
20
163.382263
30
72.674843
11
-40.397778
21
178.480499
31
72.747566
12
-51.330959
22
164.205811
32
51.411030
13
-51.330959
23
164.205811
33
51.411030
0
3DFACE
8
0
70
0
10
-27.591925
20
163.382263
30
72.674843
11
-25.832642
21
180.466980
31
75.436501
12
-40.397778
22
178.480499
32
72.747566
13
-40.397778
23
178.480499
33
72.747566
0
3DFACE
8
0
70
0
10
-12.794377
20
163.240356
30
78.731148
11
-25.832642
21
180.466980
31
75.436501
12
-27.591925
22
163.382263
32
72.674843
13
-27.591925
23
163.382263
33
72.674843
0
3DFACE
8
0
70
0
10
-49.089893
20
173.868164
30
49.989098
11
-30.748943
21
191.778778
31
66.764938
12
-47.776405
22
186.885895
32
47.461868
13
-47.776405
23
186.885895
33
47.461868
0
3DFACE
8
0
70
0
10
-40.397778
20
178.480499
30
72.747566
11
-30.748943
21
191.778778
31
66.764938
12
-49.089893
22
173.868164
32
49.989098
13
-49.089893
23
173.868164
33
49.989098
0
3DFACE
8
0
70
0
10
-25.832642
20
180.466980
30
75.436501
11
-18.723383
21
192.798187
31
72.973656
12
-30.748943
22
191.778778
32
66.764938
13
-30.748943
23
191.778778
33
66.764938
0
3DFACE
8
0
70
0
10
-40.397778
20
178.480499
30
72.747566
11
-25.832642
21
180.466980
31
75.436501
12
-30.748943
22
191.778778
32
66.764938
13
-30.748943
23
191.778778
33
66.764938
0
3DFACE
8
0
70
0
10
-47.776405
20
186.885895
30
47.461868
11
-36.976837
21
205.659363
31
60.204105
12
-50.603203
22
196.495239
32
45.173550
13
-50.603203
23
196.495239
33
45.173550
0
3DFACE
8
0
70
0
10
-30.748943
20
191.778778
30
66.764938
11
-36.976837
21
205.659363
31
60.204105
12
-47.776405
22
186.885895
32
47.461868
13
-47.776405
23
186.885895
33
47.461868
0
3DFACE
8
0
70
0
10
37.566879
20
-52.428955
30
72.553696
11
29.426067
21
-46.900154
31
45.292786
12
24.772423
22
-72.249069
32
29.669298
13
24.772423
23
-72.249069
33
29.669298
0
3DFACE
8
0
70
0
10
37.566879
20
-52.428955
30
72.553696
11
24.772423
21
-72.249069
31
29.669298
12
31.131283
22
-70.110237
32
54.438011
13
31.131283
23
-70.110237
33
54.438011
0
3DFACE
8
0
70
0
10
37.566879
20
-52.428955
30
72.553696
11
70.924873
21
-45.337288
31
33.929443
12
29.426067
22
-46.900154
32
45.292786
13
29.426067
23
-46.900154
33
45.292786
0
3DFACE
8
0
70
0
10
37.566879
20
-52.428955
30
72.553696
11
73.045433
21
-50.991997
31
62.057186
12
70.924873
22
-45.337288
32
33.929443
13
70.924873
23
-45.337288
33
33.929443
0
3DFACE
8
0
70
0
10
73.045433
20
-50.991997
30
62.057186
11
83.032494
21
-57.906082
31
21.871239
12
70.924873
22
-45.337288
32
33.929443
13
70.924873
23
-45.337288
33
33.929443
0
3DFACE
8
0
70
0
10
73.045433
20
-50.991997
30
62.057186
11
82.700554
21
-59.519493
31
48.951527
12
83.032494
22
-57.906082
32
21.871239
13
83.032494
23
-57.906082
33
21.871239
0
3DFACE
8
0
70
0
10
40.155704
20
-85.321571
30
33.867271
11
24.772423
21
-72.249069
31
29.669298
12
35.466423
22
-94.862640
32
11.291371
13
35.466423
23
-94.862640
33
11.291371
0
3DFACE
8
0
70
0
10
31.131283
20
-70.110237
30
54.438011
11
24.772423
21
-72.249069
31
29.669298
12
40.155704
22
-85.321571
32
33.867271
13
40.155704
23
-85.321571
33
33.867271
0
3DFACE
8
0
70
0
10
74.728172
20
-72.372200
30
36.911007
11
74.851105
21
-76.512909
31
11.828520
12
83.032494
22
-57.906082
32
21.871239
13
83.032494
23
-57.906082
33
21.871239
0
3DFACE
8
0
70
0
10
82.700554
20
-59.519493
30
48.951527
11
74.728172
21
-72.372200
31
36.911007
12
83.032494
22
-57.906082
32
21.871239
13
83.032494
23
-57.906082
33
21.871239
0
3DFACE
8
0
70
0
10
40.155704
20
-85.321571
30
33.867271
11
35.466423
21
-94.862640
31
11.291371
12
74.851105
22
-76.512909
32
11.828520
13
74.851105
23
-76.512909
33
11.828520
0
3DFACE
8
0
70
0
10
74.728172
20
-72.372200
30
36.911007
11
40.155704
21
-85.321571
31
33.867271
12
74.851105
22
-76.512909
32
11.828520
13
74.851105
23
-76.512909
33
11.828520
0
3DFACE
8
0
70
0
10
-39.281616
20
-142.754684
30
30.240639
11
-28.158192
21
-136.865112
31
8.980257
12
-24.180447
22
-108.368111
32
5.876815
13
-24.180447
23
-108.368111
33
5.876815
0
3DFACE
8
0
70
0
10
-39.281616
20
-142.754684
30
30.240639
11
-24.180447
21
-108.368111
31
5.876815
12
-35.535538
22
-119.410431
32
27.839672
13
-35.535538
23
-119.410431
33
27.839672
0
3DFACE
8
0
70
0
10
-39.281616
20
-142.754684
30
30.240639
11
-35.535538
21
-119.410431
31
27.839672
12
-75.810188
22
-114.455078
32
13.588725
13
-75.810188
23
-114.455078
33
13.588725
0
3DFACE
8
0
70
0
10
-39.281616
20
-142.754684
30
30.240639
11
-75.810188
21
-114.455078
31
13.588725
12
-73.726433
22
-138.707703
32
17.408474
13
-73.726433
23
-138.707703
33
17.408474
0
3DFACE
8
0
70
0
10
-73.726433
20
-138.707703
30
17.408474
11
-75.810188
21
-114.455078
31
13.588725
12
-84.022331
22
-107.008530
32
-2.759478
13
-84.022331
23
-107.008530
33
-2.759478
0
3DFACE
8
0
70
0
10
-73.726433
20
-138.707703
30
17.408474
11
-84.022331
21
-107.008530
31
-2.759478
12
-80.604286
22
-134.215347
32
1.840352
13
-80.604286
23
-134.215347
33
1.840352
0
3DFACE
8
0
70
0
10
-32.560318
20
-129.913101
30
-15.375278
11
-28.306339
21
-96.487061
31
-19.337393
12
-24.180447
22
-108.368111
32
5.876815
13
-24.180447
23
-108.368111
33
5.876815
0
3DFACE
8
0
70
0
10
-28.158192
20
-136.865112
30
8.980257
11
-32.560318
21
-129.913101
31
-15.375278
12
-24.180447
22
-108.368111
32
5.876815
13
-24.180447
23
-108.368111
33
5.876815
0
3DFACE
8
0
70
0
10
-80.604286
20
-134.215347
30
1.840352
11
-84.022331
21
-107.008530
31
-2.759478
12
-69.357590
22
-130.360672
32
-12.241873
13
-69.357590
23
-130.360672
33
-12.241873
0
3DFACE
8
0
70
0
10
-69.357590
20
-130.360672
30
-12.241873
11
-84.022331
21
-107.008530
31
-2.759478
12
-71.111214
22
-99.554886
32
-17.076366
13
-71.111214
23
-99.554886
33
-17.076366
0
3DFACE
8
0
70
0
10
-69.357590
20
-130.360672
30
-12.241873
11
-71.111214
21
-99.554886
31
-17.076366
12
-32.560318
22
-129.913101
32
-15.375278
13
-32.560318
23
-129.913101
33
-15.375278
0
3DFACE
8
0
70
0
10
-32.560318
20
-129.913101
30
-15.375278
11
-71.111214
21
-99.554886
31
-17.076366
12
-28.306339
22
-96.487061
32
-19.337393
13
-28.306339
23
-96.487061
33
-19.337393
0
3DFACE
8
0
70
0
10
43.298660
20
-83.334480
30
65.455406
11
37.566879
21
-52.428955
31
72.553696
12
31.131283
22
-70.110237
32
54.438011
13
31.131283
23
-70.110237
33
54.438011
0
3DFACE
8
0
70
0
10
39.695293
20
-119.488892
30
48.333771
11
43.298660
21
-83.334480
31
65.455406
12
31.131283
22
-70.110237
32
54.438011
13
31.131283
23
-70.110237
33
54.438011
0
3DFACE
8
0
70
0
10
77.891747
20
-87.951820
30
55.800243
11
73.045433
21
-50.991997
31
62.057186
12
43.298660
22
-83.334480
32
65.455406
13
43.298660
23
-83.334480
33
65.455406
0
3DFACE
8
0
70
0
10
43.298660
20
-83.334480
30
65.455406
11
73.045433
21
-50.991997
31
62.057186
12
37.566879
22
-52.428955
32
72.553696
13
37.566879
23
-52.428955
33
72.553696
0
3DFACE
8
0
70
0
10
88.941353
20
-113.041420
30
45.210743
11
82.700554
21
-59.519493
31
48.951527
12
77.891747
22
-87.951820
32
55.800243
13
77.891747
23
-87.951820
33
55.800243
0
3DFACE
8
0
70
0
10
77.891747
20
-87.951820
30
55.800243
11
82.700554
21
-59.519493
31
48.951527
12
73.045433
22
-50.991997
32
62.057186
13
73.045433
23
-50.991997
33
62.057186
0
3DFACE
8
0
70
0
10
39.695293
20
-119.488892
30
48.333771
11
31.131283
21
-70.110237
31
54.438011
12
40.155704
22
-85.321571
32
33.867271
13
40.155704
23
-85.321571
33
33.867271
0
3DFACE
8
0
70
0
10
26.861603
20
-159.053925
30
30.681335
11
39.695293
21
-119.488892
31
48.333771
12
40.155704
22
-85.321571
32
33.867271
13
40.155704
23
-85.321571
33
33.867271
0
3DFACE
8
0
70
0
10
99.347626
20
-147.778351
30
27.497129
11
74.728172
21
-72.372200
31
36.911007
12
88.941353
22
-113.041420
32
45.210743
13
88.941353
23
-113.041420
33
45.210743
0
3DFACE
8
0
70
0
10
88.941353
20
-113.041420
30
45.210743
11
74.728172
21
-72.372200
31
36.911007
12
82.700554
22
-59.519493
32
48.951527
13
82.700554
23
-59.519493
33
48.951527
0
3DFACE
8
0
70
0
10
26.861603
20
-159.053925
30
30.681335
11
40.155704
21
-85.321571
31
33.867271
12
99.347626
22
-147.778351
32
27.497129
13
99.347626
23
-147.778351
33
27.497129
0
3DFACE
8
0
70
0
10
99.347626
20
-147.778351
30
27.497129
11
40.155704
21
-85.321571
31
33.867271
12
74.728172
22
-72.372200
32
36.911007
13
74.728172
23
-72.372200
33
36.911007
0
3DFACE
8
0
70
0
10
-27.936386
20
-181.545135
30
-18.481104
11
-28.158192
21
-136.865112
31
8.980257
12
-37.279148
22
-159.180420
32
11.920812
13
-37.279148
23
-159.180420
33
11.920812
0
3DFACE
8
0
70
0
10
-37.279148
20
-159.180420
30
11.920812
11
-28.158192
21
-136.865112
31
8.980257
12
-39.281616
22
-142.754684
32
30.240639
13
-39.281616
23
-142.754684
33
30.240639
0
3DFACE
8
0
70
0
10
-37.279148
20
-159.180420
30
11.920812
11
-39.281616
21
-142.754684
31
30.240639
12
-73.726433
22
-138.707703
32
17.408474
13
-73.726433
23
-138.707703
33
17.408474
0
3DFACE
8
0
70
0
10
-70.452431
20
-161.049286
30
-1.984775
11
-37.279148
21
-159.180420
31
11.920812
12
-73.726433
22
-138.707703
32
17.408474
13
-73.726433
23
-138.707703
33
17.408474
0
3DFACE
8
0
70
0
10
-70.452431
20
-161.049286
30
-1.984775
11
-73.726433
21
-138.707703
31
17.408474
12
-80.604286
22
-134.215347
32
1.840352
13
-80.604286
23
-134.215347
33
1.840352
0
3DFACE
8
0
70
0
10
-77.457367
20
-178.474655
30
-23.498482
11
-70.452431
21
-161.049286
31
-1.984775
12
-80.604286
22
-134.215347
32
1.840352
13
-80.604286
23
-134.215347
33
1.840352
0
3DFACE
8
0
70
0
10
-8.956591
20
-205.826920
30
-49.879070
11
-32.560318
21
-129.913101
31
-15.375278
12
-27.936386
22
-181.545135
32
-18.481104
13
-27.936386
23
-181.545135
33
-18.481104
0
3DFACE
8
0
70
0
10
-27.936386
20
-181.545135
30
-18.481104
11
-32.560318
21
-129.913101
31
-15.375278
12
-28.158192
22
-136.865112
32
8.980257
13
-28.158192
23
-136.865112
33
8.980257
0
3DFACE
8
0
70
0
10
-77.457367
20
-178.474655
30
-23.498482
11
-80.604286
21
-134.215347
31
1.840352
12
-69.357590
22
-130.360672
32
-12.241873
13
-69.357590
23
-130.360672
33
-12.241873
0
3DFACE
8
0
70
0
10
-82.159988
20
-200.497543
30
-55.274078
11
-77.457367
21
-178.474655
31
-23.498482
12
-69.357590
22
-130.360672
32
-12.241873
13
-69.357590
23
-130.360672
33
-12.241873
0
3DFACE
8
0
70
0
10
-82.159988
20
-200.497543
30
-55.274078
11
-69.357590
21
-130.360672
31
-12.241873
12
-32.560318
22
-129.913101
32
-15.375278
13
-32.560318
23
-129.913101
33
-15.375278
0
3DFACE
8
0
70
0
10
-8.956591
20
-205.826920
30
-49.879070
11
-82.159988
21
-200.497543
31
-55.274078
12
-32.560318
22
-129.913101
32
-15.375278
13
-32.560318
23
-129.913101
33
-15.375278
0
3DFACE
8
0
70
0
10
89.987099
20
17.703705
30
83.349937
11
-14.146712
21
35.296310
31
117.650528
12
-12.198371
22
16.029770
32
109.764885
13
-12.198371
23
16.029770
33
109.764885
0
3DFACE
8
0
70
0
10
89.987099
20
17.703705
30
83.349937
11
87.674194
21
52.089005
31
88.534683
12
-14.146712
22
35.296310
32
117.650528
13
-14.146712
23
35.296310
33
117.650528
0
3DFACE
8
0
70
0
10
97.558243
20
-19.721359
30
-66.668030
11
-1.897640
21
-35.801117
31
-98.802811
12
-4.728167
22
-2.344162
32
-97.399582
13
-4.728167
23
-2.344162
33
-97.399582
0
3DFACE
8
0
70
0
10
97.558243
20
-19.721359
30
-66.668030
11
-4.728167
21
-2.344162
31
-97.399582
12
95.228317
22
14.748047
32
-61.146111
13
95.228317
23
14.748047
33
-61.146111
0
3DFACE
8
0
70
0
10
89.987099
20
17.703705
30
83.349937
11
116.367233
21
33.528427
31
6.024084
12
87.674194
22
52.089005
32
88.534683
13
87.674194
23
52.089005
33
88.534683
0
3DFACE
8
0
70
0
10
89.987099
20
17.703705
30
83.349937
11
117.953331
21
1.673157
31
11.050838
12
116.367233
22
33.528427
32
6.024084
13
116.367233
23
33.528427
33
6.024084
0
3DFACE
8
0
70
0
10
117.953331
20
1.673157
30
11.050838
11
97.558243
21
-19.721359
31
-66.668030
12
95.228317
22
14.748047
32
-61.146111
13
95.228317
23
14.748047
33
-61.146111
0
3DFACE
8
0
70
0
10
117.953331
20
1.673157
30
11.050838
11
95.228317
21
14.748047
31
-61.146111
12
116.367233
22
33.528427
32
6.024084
13
116.367233
23
33.528427
33
6.024084
0
3DFACE
8
0
70
0
10
-111.421974
20
-0.346603
30
77.688202
11
-12.198371
21
16.029770
31
109.764885
12
-14.146712
22
35.296310
32
117.650528
13
-14.146712
23
35.296310
33
117.650528
0
3DFACE
8
0
70
0
10
-111.421974
20
-0.346603
30
77.688202
11
-14.146712
21
35.296310
31
117.650528
12
-115.547798
22
33.876221
32
82.821983
13
-115.547798
23
33.876221
33
82.821983
0
3DFACE
8
0
70
0
10
-103.850838
20
-37.771667
30
-72.329773
11
-4.728167
21
-2.344162
31
-97.399582
12
-1.897640
22
-35.801117
32
-98.802811
13
-1.897640
23
-35.801117
33
-98.802811
0
3DFACE
8
0
70
0
10
-103.850838
20
-37.771667
30
-72.329773
11
-107.993668
21
-3.464722
31
-66.858810
12
-4.728167
22
-2.344162
32
-97.399582
13
-4.728167
23
-2.344162
33
-97.399582
0
3DFACE
8
0
70
0
10
-111.421974
20
-0.346603
30
77.688202
11
-135.843002
21
10.925323
31
-1.065710
12
-132.021667
22
-20.729630
32
4.023878
13
-132.021667
23
-20.729630
33
4.023878
0
3DFACE
8
0
70
0
10
-111.421974
20
-0.346603
30
77.688202
11
-115.547798
21
33.876221
31
82.821983
12
-135.843002
22
10.925323
32
-1.065710
13
-135.843002
23
10.925323
33
-1.065710
0
3DFACE
8
0
70
0
10
-132.021667
20
-20.729630
30
4.023878
11
-135.843002
21
10.925323
31
-1.065710
12
-107.993668
22
-3.464722
32
-66.858810
13
-107.993668
23
-3.464722
33
-66.858810
0
3DFACE
8
0
70
0
10
-132.021667
20
-20.729630
30
4.023878
11
-107.993668
21
-3.464722
31
-66.858810
12
-103.850838
22
-37.771667
32
-72.329773
13
-103.850838
23
-37.771667
33
-72.329773
0
3DFACE
8
0
70
0
10
-14.146712
20
35.296310
30
117.650528
11
39.495354
21
111.505981
31
49.386021
12
-18.547739
22
104.546814
32
53.432468
13
-18.547739
23
104.546814
33
53.432468
0
3DFACE
8
0
70
0
10
-14.146712
20
35.296310
30
117.650528
11
87.674194
21
52.089005
31
88.534683
12
39.495354
22
111.505981
32
49.386021
13
39.495354
23
111.505981
33
49.386021
0
3DFACE
8
0
70
0
10
95.228317
20
14.748047
30
-61.146111
11
-4.728167
21
-2.344162
31
-97.399582
12
42.676132
22
115.526520
32
-46.586617
13
42.676132
23
115.526520
33
-46.586617
0
3DFACE
8
0
70
0
10
-4.728167
20
-2.344162
30
-97.399582
11
-9.891615
21
121.362091
31
-55.103184
12
42.676132
22
115.526520
32
-46.586617
13
42.676132
23
115.526520
33
-46.586617
0
3DFACE
8
0
70
0
10
87.674194
20
52.089005
30
88.534683
11
83.391289
21
84.090210
31
2.658779
12
53.241558
22
116.668213
32
29.077599
13
53.241558
23
116.668213
33
29.077599
0
3DFACE
8
0
70
0
10
87.674194
20
52.089005
30
88.534683
11
116.367233
21
33.528427
31
6.024084
12
83.391289
22
84.090210
32
2.658779
13
83.391289
23
84.090210
33
2.658779
0
3DFACE
8
0
70
0
10
95.228317
20
14.748047
30
-61.146111
11
79.379372
21
106.070801
31
-32.637360
12
83.391289
22
84.090210
32
2.658779
13
83.391289
23
84.090210
33
2.658779
0
3DFACE
8
0
70
0
10
116.367233
20
33.528427
30
6.024084
11
95.228317
21
14.748047
31
-61.146111
12
83.391289
22
84.090210
32
2.658779
13
83.391289
23
84.090210
33
2.658779
0
3DFACE
8
0
70
0
10
87.674194
20
52.089005
30
88.534683
11
53.241558
21
116.668213
31
29.077599
12
39.495354
22
111.505981
32
49.386021
13
39.495354
23
111.505981
33
49.386021
0
3DFACE
8
0
70
0
10
95.228317
20
14.748047
30
-61.146111
11
42.676132
21
115.526520
31
-46.586617
12
79.379372
22
106.070801
32
-32.637360
13
79.379372
23
106.070801
33
-32.637360
0
3DFACE
8
0
70
0
10
-14.146712
20
35.296310
30
117.650528
11
-69.680649
21
103.894440
31
46.998550
12
-115.547798
22
33.876221
32
82.821983
13
-115.547798
23
33.876221
33
82.821983
0
3DFACE
8
0
70
0
10
-14.146712
20
35.296310
30
117.650528
11
-18.547739
21
104.546814
31
53.432468
12
-69.680649
22
103.894440
32
46.998550
13
-69.680649
23
103.894440
33
46.998550
0
3DFACE
8
0
70
0
10
-107.993668
20
-3.464722
30
-66.858810
11
-66.794884
21
108.481110
31
-48.796509
12
-4.728167
22
-2.344162
32
-97.399582
13
-4.728167
23
-2.344162
33
-97.399582
0
3DFACE
8
0
70
0
10
-4.728167
20
-2.344162
30
-97.399582
11
-66.794884
21
108.481110
31
-48.796509
12
-9.891615
22
121.362091
32
-55.103184
13
-9.891615
23
121.362091
33
-55.103184
0
3DFACE
8
0
70
0
10
-115.547798
20
33.876221
30
82.821983
11
-75.739075
21
104.772217
31
25.315462
12
-101.522659
22
70.745041
32
-4.302272
13
-101.522659
23
70.745041
33
-4.302272
0
3DFACE
8
0
70
0
10
-115.547798
20
33.876221
30
82.821983
11
-101.522659
21
70.745041
31
-4.302272
12
-135.843002
22
10.925323
32
-1.065710
13
-135.843002
23
10.925323
33
-1.065710
0
3DFACE
8
0
70
0
10
-135.843002
20
10.925323
30
-1.065710
11
-101.522659
21
70.745041
31
-4.302272
12
-107.993668
22
-3.464722
32
-66.858810
13
-107.993668
23
-3.464722
33
-66.858810
0
3DFACE
8
0
70
0
10
-107.993668
20
-3.464722
30
-66.858810
11
-101.522659
21
70.745041
31
-4.302272
12
-95.717903
22
100.385818
32
-35.603653
13
-95.717903
23
100.385818
33
-35.603653
0
3DFACE
8
0
70
0
10
-115.547798
20
33.876221
30
82.821983
11
-69.680649
21
103.894440
31
46.998550
12
-75.739075
22
104.772217
32
25.315462
13
-75.739075
23
104.772217
33
25.315462
0
3DFACE
8
0
70
0
10
-107.993668
20
-3.464722
30
-66.858810
11
-95.717903
21
100.385818
31
-35.603653
12
-66.794884
22
108.481110
32
-48.796509
13
-66.794884
23
108.481110
33
-48.796509
0
3DFACE
8
0
70
0
10
83.391289
20
84.090210
30
2.658779
11
61.580799
21
98.771576
31
66.490768
12
53.241558
22
116.668213
32
29.077599
13
53.241558
23
116.668213
33
29.077599
0
3DFACE
8
0
70
0
10
92.190880
20
61.414261
30
66.751122
11
61.580799
21
98.771576
31
66.490768
12
83.391289
22
84.090210
32
2.658779
13
83.391289
23
84.090210
33
2.658779
0
3DFACE
8
0
70
0
10
53.241558
20
116.668213
30
29.077599
11
108.771774
21
112.232056
31
86.573174
12
53.435135
22
136.096130
32
-10.607792
13
53.435135
23
136.096130
33
-10.607792
0
3DFACE
8
0
70
0
10
53.241558
20
116.668213
30
29.077599
11
61.580799
21
98.771576
31
66.490768
12
108.771774
22
112.232056
32
86.573174
13
108.771774
23
112.232056
33
86.573174
0
3DFACE
8
0
70
0
10
79.379372
20
106.070801
30
-32.637360
11
53.435135
21
136.096130
31
-10.607792
12
108.771774
22
112.232056
32
86.573174
13
108.771774
23
112.232056
33
86.573174
0
3DFACE
8
0
70
0
10
79.379372
20
106.070801
30
-32.637360
11
108.771774
21
112.232056
31
86.573174
12
131.477386
22
75.053146
32
84.143639
13
131.477386
23
75.053146
33
84.143639
0
3DFACE
8
0
70
0
10
83.391289
20
84.090210
30
2.658779
11
79.379372
21
106.070801
31
-32.637360
12
131.477386
22
75.053146
32
84.143639
13
131.477386
23
75.053146
33
84.143639
0
3DFACE
8
0
70
0
10
92.190880
20
61.414261
30
66.751122
11
83.391289
21
84.090210
31
2.658779
12
131.477386
22
75.053146
32
84.143639
13
131.477386
23
75.053146
33
84.143639
0
3DFACE
8
0
70
0
10
-101.522659
20
70.745041
30
-4.302272
11
-75.739075
21
104.772217
31
25.315462
12
-68.149353
22
78.636292
32
61.023655
13
-68.149353
23
78.636292
33
61.023655
0
3DFACE
8
0
70
0
10
-100.191269
20
45.152771
30
48.195282
11
-101.522659
21
70.745041
31
-4.302272
12
-68.149353
22
78.636292
32
61.023655
13
-68.149353
23
78.636292
33
61.023655
0
3DFACE
8
0
70
0
10
-75.739075
20
104.772217
30
25.315462
11
-74.887428
21
130.367554
31
-10.459659
12
-116.360016
22
90.164886
32
79.221527
13
-116.360016
23
90.164886
33
79.221527
0
3DFACE
8
0
70
0
10
-75.739075
20
104.772217
30
25.315462
11
-116.360016
21
90.164886
31
79.221527
12
-68.149353
22
78.636292
32
61.023655
13
-68.149353
23
78.636292
33
61.023655
0
3DFACE
8
0
70
0
10
-95.717903
20
100.385818
30
-35.603653
11
-116.360016
21
90.164886
31
79.221527
12
-74.887428
22
130.367554
32
-10.459659
13
-74.887428
23
130.367554
33
-10.459659
0
3DFACE
8
0
70
0
10
-95.717903
20
100.385818
30
-35.603653
11
-140.285980
21
56.912704
31
64.645348
12
-116.360016
22
90.164886
32
79.221527
13
-116.360016
23
90.164886
33
79.221527
0
3DFACE
8
0
70
0
10
-101.522659
20
70.745041
30
-4.302272
11
-140.285980
21
56.912704
31
64.645348
12
-95.717903
22
100.385818
32
-35.603653
13
-95.717903
23
100.385818
33
-35.603653
0
3DFACE
8
0
70
0
10
-100.191269
20
45.152771
30
48.195282
11
-140.285980
21
56.912704
31
64.645348
12
-101.522659
22
70.745041
32
-4.302272
13
-101.522659
23
70.745041
33
-4.302272
0
3DFACE
8
0
70
0
10
-78.384377
20
24.592957
30
83.570686
11
-100.191269
21
45.152771
31
48.195282
12
-68.149353
22
78.636292
32
61.023655
13
-68.149353
23
78.636292
33
61.023655
0
3DFACE
8
0
70
0
10
-78.384377
20
24.592957
30
83.570686
11
-68.149353
21
78.636292
31
61.023655
12
-57.871025
22
68.358276
32
78.450470
13
-57.871025
23
68.358276
33
78.450470
0
3DFACE
8
0
70
0
10
-57.871025
20
68.358276
30
78.450470
11
-68.149353
21
78.636292
31
61.023655
12
-116.360016
22
90.164886
32
79.221527
13
-116.360016
23
90.164886
33
79.221527
0
3DFACE
8
0
70
0
10
-57.871025
20
68.358276
30
78.450470
11
-116.360016
21
90.164886
31
79.221527
12
-90.853523
22
68.641785
32
120.108337
13
-90.853523
23
68.641785
33
120.108337
0
3DFACE
8
0
70
0
10
-105.939827
20
27.411942
30
119.595627
11
-90.853523
21
68.641785
31
120.108337
12
-116.360016
22
90.164886
32
79.221527
13
-116.360016
23
90.164886
33
79.221527
0
3DFACE
8
0
70
0
10
-105.939827
20
27.411942
30
119.595627
11
-116.360016
21
90.164886
31
79.221527
12
-140.285980
22
56.912704
32
64.645348
13
-140.285980
23
56.912704
33
64.645348
0
3DFACE
8
0
70
0
10
-78.384377
20
24.592957
30
83.570686
11
-105.939827
21
27.411942
31
119.595627
12
-140.285980
22
56.912704
32
64.645348
13
-140.285980
23
56.912704
33
64.645348
0
3DFACE
8
0
70
0
10
-78.384377
20
24.592957
30
83.570686
11
-140.285980
21
56.912704
31
64.645348
12
-100.191269
22
45.152771
32
48.195282
13
-100.191269
23
45.152771
33
48.195282
0
3DFACE
8
0
70
0
10
63.309620
20
53.460281
30
101.761543
11
61.580799
21
98.771576
31
66.490768
12
92.190880
22
61.414261
32
66.751122
13
92.190880
23
61.414261
33
66.751122
0
3DFACE
8
0
70
0
10
63.309620
20
53.460281
30
101.761543
11
50.599514
21
95.129761
31
80.208702
12
61.580799
22
98.771576
32
66.490768
13
61.580799
23
98.771576
33
66.490768
0
3DFACE
8
0
70
0
10
50.599514
20
95.129761
30
80.208702
11
108.771774
21
112.232056
31
86.573174
12
61.580799
22
98.771576
32
66.490768
13
61.580799
23
98.771576
33
66.490768
0
3DFACE
8
0
70
0
10
50.599514
20
95.129761
30
80.208702
11
74.795082
21
105.343323
31
126.399170
12
108.771774
22
112.232056
32
86.573174
13
108.771774
23
112.232056
33
86.573174
0
3DFACE
8
0
70
0
10
83.661354
20
64.815155
30
140.773331
11
131.477386
21
75.053146
31
84.143639
12
108.771774
22
112.232056
32
86.573174
13
108.771774
23
112.232056
33
86.573174
0
3DFACE
8
0
70
0
10
83.661354
20
64.815155
30
140.773331
11
108.771774
21
112.232056
31
86.573174
12
74.795082
22
105.343323
32
126.399170
13
74.795082
23
105.343323
33
126.399170
0
3DFACE
8
0
70
0
10
63.309620
20
53.460281
30
101.761543
11
92.190880
21
61.414261
31
66.751122
12
131.477386
22
75.053146
32
84.143639
13
131.477386
23
75.053146
33
84.143639
0
3DFACE
8
0
70
0
10
63.309620
20
53.460281
30
101.761543
11
131.477386
21
75.053146
31
84.143639
12
83.661354
22
64.815155
32
140.773331
13
83.661354
23
64.815155
33
140.773331
0
3DFACE
8
0
70
0
10
-20.012053
20
306.726471
30
-42.910744
11
-15.471687
21
305.695557
31
-44.892948
12
-11.635597
22
262.562592
32
-35.600399
13
-27.718550
23
264.651459
33
-28.588579
0
3DFACE
8
0
70
0
10
-11.101460
20
307.474976
30
-43.064934
11
4.104993
21
267.324707
31
-29.139254
12
-11.635597
22
262.562592
32
-35.600399
13
-15.471687
23
305.695557
33
-44.892948
0
3DFACE
8
0
70
0
10
-8.237766
20
309.811920
30
-40.288830
11
14.529360
21
273.306458
31
-19.324682
12
4.104993
22
267.324707
32
-29.139254
13
-11.101460
23
307.474976
33
-43.064934
0
3DFACE
8
0
70
0
10
-9.051095
20
311.888153
30
-37.384117
11
11.826026
21
278.302826
31
-9.053124
12
14.529360
22
273.306458
32
-19.324682
13
-8.237766
23
309.811920
33
-40.288830
0
3DFACE
8
0
70
0
10
-9.958509
20
314.470551
30
-33.784874
11
8.834949
21
284.527130
31
3.674358
12
11.826026
22
278.302826
32
-9.053124
13
-9.051095
23
311.888153
33
-37.384117
0
3DFACE
8
0
70
0
10
-13.364542
20
315.475250
30
-31.986067
11
-3.208226
21
286.659454
31
10.037011
12
8.834949
22
284.527130
32
3.674358
13
-9.958509
23
314.470551
33
-33.784874
0
3DFACE
8
0
70
0
10
-16.095480
20
315.999146
30
-30.923422
11
-12.890830
21
287.680908
31
13.796176
12
-3.208226
22
286.659454
32
10.037011
13
-13.364542
23
315.475250
33
-31.986067
0
3DFACE
8
0
70
0
10
-16.095480
20
315.999146
30
-30.923422
11
-18.735666
21
315.024048
31
-31.893124
12
-22.390818
22
285.048065
32
10.368947
13
-12.890830
23
287.680908
33
13.796176
0
3DFACE
8
0
70
0
10
-18.735666
20
315.024048
30
-31.893124
11
-21.986198
21
313.460205
31
-33.576748
12
-34.121082
22
280.918732
32
4.417668
13
-22.390818
23
285.048065
33
10.368947
0
3DFACE
8
0
70
0
10
-21.986198
20
313.460205
30
-33.576748
11
-22.573326
21
310.752258
31
-37.150131
12
-36.467663
22
274.246063
32
-8.217451
13
-34.121082
23
280.918732
33
4.417668
0
3DFACE
8
0
70
0
10
-22.573326
20
310.752258
30
-37.150131
11
-23.128296
21
308.561066
31
-40.031166
12
-38.651108
22
268.839172
32
-18.404448
13
-36.467663
23
274.246063
33
-8.217451
0
3DFACE
8
0
70
0
10
-23.128296
20
308.561066
30
-40.031166
11
-20.012053
21
306.726471
31
-42.910744
12
-27.718550
22
264.651459
32
-28.588579
13
-38.651108
23
268.839172
33
-18.404448
0
ENDSEC
0
EOF
