0
SECTION
2
HEADER
999
DXF File Generated by LightWave 3D(TM)
0
ENDSEC
0
SECTION
2
TABLES
0
ENDSEC
0
SECTION
2
BLOCKS
0
ENDSEC
0
SECTION
2
ENTITIES
0
3DFACE
8
0
70
0
10
-1.823216
20
-1.395103
30
66.845680
11
25.865255
21
-26.938477
31
35.159950
12
68.310005
22
-20.699135
32
15.564270
13
64.347099
23
3.166374
33
43.298611
0
3DFACE
8
0
70
0
10
64.347099
20
21.541954
30
-75.334625
11
70.208603
21
7.059135
31
-59.200058
12
28.786165
22
15.766548
32
-79.862099
13
-1.823216
23
24.558678
33
-100.712563
0
3DFACE
8
0
70
0
10
-1.823215
20
-11.423759
30
85.812340
11
-1.823216
21
-1.395103
31
66.845680
12
64.347099
22
3.166374
32
43.298611
13
85.667770
23
-5.946724
33
56.753510
0
3DFACE
8
0
70
0
10
85.667770
20
17.308151
30
-93.380569
11
64.347099
21
21.541954
31
-75.334625
12
-1.823216
22
24.558678
32
-100.712563
13
-1.823215
23
20.900513
33
-122.874031
0
3DFACE
8
0
70
0
10
-1.823216
20
-9.719658
30
98.615479
11
90.972862
21
-3.684135
31
65.743607
12
105.425392
22
49.793892
32
78.076805
13
-1.823219
23
44.712990
33
111.168839
0
3DFACE
8
0
70
0
10
90.972862
20
22.593872
30
-103.907898
11
-1.823216
21
26.806770
31
-137.200119
12
-1.823437
22
81.224831
32
-124.648643
13
105.425392
23
76.071892
33
-91.574699
0
3DFACE
8
0
70
0
10
-1.823219
20
44.712990
30
111.168839
11
105.425392
21
49.793892
31
78.076805
12
99.324547
22
52.223747
32
70.168892
13
-1.823219
23
47.742577
33
99.457390
0
3DFACE
8
0
70
0
10
-1.823216
20
-9.719658
30
98.615479
11
-1.823215
21
-11.423759
31
85.812340
12
85.667770
22
-5.946724
32
56.753510
13
90.972862
23
-3.684135
33
65.743607
0
3DFACE
8
0
70
0
10
105.425392
20
76.071892
30
-91.574699
11
-1.823437
21
81.224831
31
-124.648643
12
-1.837534
22
79.540642
32
-109.287933
13
99.324547
23
75.478615
33
-79.965187
0
3DFACE
8
0
70
0
10
90.972862
20
22.593872
30
-103.907898
11
85.667770
21
17.308151
31
-93.380569
12
-1.823215
22
20.900513
32
-122.874031
13
-1.823216
23
26.806770
33
-137.200119
0
3DFACE
8
0
70
0
10
27.673779
20
-120.279381
30
60.555874
11
74.813728
21
-120.279381
31
60.555870
12
66.977417
22
-98.924721
32
46.803158
13
33.987904
23
-99.109795
33
46.793781
0
3DFACE
8
0
70
0
10
64.347099
20
3.166374
30
43.298611
11
68.310005
21
-20.699135
31
15.564270
12
79.744156
22
-11.280602
32
-21.985790
13
80.225487
23
12.153038
33
-14.719549
0
3DFACE
8
0
70
0
10
85.667770
20
-5.946724
30
56.753510
11
64.347099
21
3.166374
31
43.298611
12
80.225487
22
12.153038
32
-14.719549
13
106.876335
23
5.366463
33
-16.284683
0
3DFACE
8
0
70
0
10
105.425392
20
49.793892
30
78.076805
11
90.972862
21
-3.684135
31
65.743607
12
113.507683
22
8.895500
32
-15.470811
13
131.340439
23
62.373512
33
-3.137609
0
3DFACE
8
0
70
0
10
131.340439
20
62.373512
30
-3.137609
11
123.714401
21
63.536919
31
-2.869303
12
99.324547
22
52.223747
32
70.168892
13
105.425392
23
49.793892
33
78.076805
0
3DFACE
8
0
70
0
10
90.972862
20
-3.684135
30
65.743607
11
85.667770
21
-5.946724
31
56.753510
12
106.876335
22
5.366463
32
-16.284683
13
113.507683
23
8.895500
33
-15.470811
0
3DFACE
8
0
70
0
10
12.906893
20
-153.636566
30
58.866066
11
80.090294
21
-153.821655
31
58.856689
12
74.813728
22
-120.279381
32
60.555870
13
27.673779
23
-120.279381
33
60.555874
0
3DFACE
8
0
70
0
10
-1.853932
20
222.489258
30
5.078217
11
63.282539
21
207.595001
31
2.587746
12
53.064346
22
198.445984
32
-36.493587
13
-1.857344
23
199.695862
33
-46.094997
0
3DFACE
8
0
70
0
10
80.225487
20
12.153038
30
-14.719549
11
79.744156
21
-11.280602
31
-21.985790
12
70.208603
22
7.059135
32
-59.200058
13
64.347099
23
21.541954
33
-75.334625
0
3DFACE
8
0
70
0
10
106.876335
20
5.366463
30
-16.284683
11
80.225487
21
12.153038
31
-14.719549
12
64.347099
22
21.541954
32
-75.334625
13
85.667770
23
17.308151
33
-93.380569
0
3DFACE
8
0
70
0
10
113.507683
20
8.895500
30
-15.470811
11
90.972862
21
22.593872
31
-103.907898
12
105.425392
22
76.071892
32
-91.574699
13
131.340439
23
62.373512
33
-3.137609
0
3DFACE
8
0
70
0
10
105.425392
20
76.071892
30
-91.574699
11
99.324547
21
75.478615
31
-79.965187
12
123.714401
22
63.536919
32
-2.869303
13
131.340439
23
62.373512
33
-3.137609
0
3DFACE
8
0
70
0
10
113.507683
20
8.895500
30
-15.470811
11
106.876335
21
5.366463
31
-16.284683
12
85.667770
22
17.308151
32
-93.380569
13
90.972862
23
22.593872
33
-103.907898
0
3DFACE
8
0
70
0
10
26.087044
20
-30.511200
30
-5.947402
11
25.865255
21
-26.938477
31
35.159950
12
19.334938
22
-9.502861
32
-22.753883
13
18.965799
23
-19.989395
33
-29.855352
0
3DFACE
8
0
70
0
10
26.087044
20
-30.511200
30
-5.947402
11
68.289200
21
-28.395538
31
-13.784187
12
68.310005
22
-20.699135
32
15.564270
13
25.865255
23
-26.938477
33
35.159950
0
3DFACE
8
0
70
0
10
68.289200
20
-28.395538
30
-13.784187
11
79.366112
21
-22.211571
31
-28.895237
12
79.744156
22
-11.280602
32
-21.985790
13
68.310005
23
-20.699135
33
15.564270
0
3DFACE
8
0
70
0
10
18.965799
20
-19.989395
30
-29.855352
11
19.334938
21
-9.502861
31
-22.753883
12
28.786165
22
15.766548
32
-79.862099
13
27.657032
23
-9.607170
33
-54.537434
0
3DFACE
8
0
70
0
10
79.366112
20
-22.211571
30
-28.895237
11
69.309692
21
-14.807915
31
-45.367706
12
70.208603
22
7.059135
32
-59.200058
13
79.744156
23
-11.280602
33
-21.985790
0
3DFACE
8
0
70
0
10
69.309692
20
-14.807915
30
-45.367706
11
27.657032
21
-9.607170
31
-54.537434
12
28.786165
22
15.766548
32
-79.862099
13
70.208603
23
7.059135
33
-59.200058
0
3DFACE
8
0
70
0
10
26.527477
20
-101.161247
30
-34.706615
11
27.673775
21
-131.276581
31
4.219428
12
33.987896
22
-111.197334
32
6.015153
13
31.193987
23
-71.954124
33
-10.861492
0
3DFACE
8
0
70
0
10
31.193987
20
-71.954124
30
-10.861492
11
33.987896
21
-111.197334
31
6.015153
12
66.977409
22
-114.324547
32
4.402644
13
66.105034
23
-76.195534
33
-18.910912
0
3DFACE
8
0
70
0
10
76.273148
20
-97.536674
30
-33.571384
11
66.105034
21
-76.195534
31
-18.910912
12
66.977409
22
-114.324547
32
4.402644
13
74.813721
23
-131.276581
33
4.219428
0
3DFACE
8
0
70
0
10
12.477113
20
-132.824371
30
-60.272499
11
16.610767
21
-146.104370
31
-15.651885
12
27.673775
22
-131.276581
32
4.219428
13
26.527477
23
-101.161247
33
-34.706615
0
3DFACE
8
0
70
0
10
85.708305
20
-126.155174
30
-56.914696
11
76.273148
21
-97.536674
31
-33.571384
12
74.813721
22
-131.276581
32
4.219428
13
83.794151
23
-147.856354
33
-12.480096
0
3DFACE
8
0
70
0
10
85.708305
20
-126.155174
30
-56.914696
11
83.794151
21
-147.856354
31
-12.480096
12
16.610767
22
-146.104370
32
-15.651885
13
12.477113
23
-132.824371
33
-60.272499
0
3DFACE
8
0
70
0
10
27.673779
20
-120.279381
30
60.555874
11
33.987904
21
-99.109795
31
46.793781
12
33.987896
22
-111.197334
32
6.015153
13
27.673775
23
-131.276581
33
4.219428
0
3DFACE
8
0
70
0
10
33.987904
20
-99.109795
30
46.793781
11
66.977417
21
-98.924721
31
46.803158
12
66.977409
22
-114.324547
32
4.402644
13
33.987896
23
-111.197334
33
6.015153
0
3DFACE
8
0
70
0
10
74.813728
20
-120.279381
30
60.555870
11
74.813721
21
-131.276581
31
4.219428
12
66.977409
22
-114.324547
32
4.402644
13
66.977417
23
-98.924721
33
46.803158
0
3DFACE
8
0
70
0
10
12.906893
20
-153.636566
30
58.866066
11
27.673779
21
-120.279381
31
60.555874
12
27.673775
22
-131.276581
32
4.219428
13
16.610767
23
-146.104370
33
-15.651885
0
3DFACE
8
0
70
0
10
80.090294
20
-153.821655
30
58.856689
11
83.794151
21
-147.856354
31
-12.480096
12
74.813721
22
-131.276581
32
4.219428
13
74.813728
23
-120.279381
33
60.555870
0
3DFACE
8
0
70
0
10
80.090294
20
-153.821655
30
58.856689
11
12.906893
21
-153.636566
31
58.866066
12
16.610767
22
-146.104370
32
-15.651885
13
83.794151
23
-147.856354
33
-12.480096
0
3DFACE
8
0
70
0
10
102.634697
20
65.623787
30
198.712097
11
121.560791
21
76.630241
31
193.914261
12
104.790955
22
88.017830
32
199.222244
13
88.462570
23
76.630241
33
193.661530
0
3DFACE
8
0
70
0
10
73.598022
20
178.165710
30
-30.363890
11
53.064346
21
198.445984
31
-36.493587
12
63.282539
22
207.595001
32
2.587746
13
63.282539
23
207.595001
33
2.587746
0
3DFACE
8
0
70
0
10
76.019493
20
183.596619
30
47.756744
11
63.282539
21
207.595001
31
2.587746
12
52.935226
22
182.834137
32
59.291286
13
52.935226
23
182.834137
33
59.291286
0
3DFACE
8
0
70
0
10
117.002144
20
119.920540
30
54.625977
11
118.170731
21
71.329994
31
54.728252
12
118.659767
22
69.931007
32
90.898552
13
119.810913
23
119.408211
33
90.632996
0
3DFACE
8
0
70
0
10
167.277191
20
103.064018
30
51.223122
11
117.002144
21
119.920540
31
54.625977
12
119.810913
22
119.408211
32
90.632996
13
171.152512
23
104.280952
33
87.150101
0
3DFACE
8
0
70
0
10
163.976563
20
60.015282
30
87.811447
11
161.942108
21
59.486351
31
51.754963
12
167.277191
22
103.064018
32
51.223122
13
171.152512
23
104.280952
33
87.150101
0
3DFACE
8
0
70
0
10
118.170731
20
71.329994
30
54.728252
11
161.942108
21
59.486351
31
51.754963
12
163.976563
22
60.015282
32
87.811447
13
118.659767
23
69.931007
33
90.898552
0
3DFACE
8
0
70
0
10
109.613091
20
62.761818
30
91.549263
11
109.339592
21
60.882469
31
125.667419
12
115.504356
22
128.682495
32
124.087128
13
112.840073
23
129.347260
33
91.076202
0
3DFACE
8
0
70
0
10
112.840073
20
129.347260
30
91.076202
11
115.504356
21
128.682495
31
124.087128
12
186.370529
22
112.191978
32
118.468979
13
182.415207
23
110.727104
33
86.349304
0
3DFACE
8
0
70
0
10
172.865814
20
51.544182
30
120.422562
11
171.138718
21
50.948631
31
87.351761
12
182.415207
22
110.727104
32
86.349304
13
186.370529
23
112.191978
33
118.468979
0
3DFACE
8
0
70
0
10
109.613091
20
62.761818
30
91.549263
11
171.138718
21
50.948631
31
87.351761
12
172.865814
22
51.544182
32
120.422562
13
109.339592
23
60.882469
33
125.667419
0
3DFACE
8
0
70
0
10
109.613091
20
62.761818
30
91.549263
11
112.840073
21
129.347260
31
91.076202
12
119.810913
22
119.408211
32
90.632996
13
118.659767
23
69.931007
33
90.898552
0
3DFACE
8
0
70
0
10
109.339592
20
60.882469
30
125.667419
11
119.120384
21
68.613411
31
124.963974
12
122.386345
22
118.938393
32
123.649300
13
115.504356
23
128.682495
33
124.087128
0
3DFACE
8
0
70
0
10
112.840073
20
129.347260
30
91.076202
11
182.415207
21
110.727104
31
86.349304
12
171.152512
22
104.280952
32
87.150101
13
119.810913
23
119.408211
33
90.632996
0
3DFACE
8
0
70
0
10
115.504356
20
128.682495
30
124.087128
11
122.386345
21
118.938393
31
123.649300
12
174.620895
22
105.370033
32
119.304771
13
186.370529
23
112.191978
33
118.468979
0
3DFACE
8
0
70
0
10
172.865814
20
51.544182
30
120.422562
11
186.370529
21
112.191978
31
118.468979
12
174.620895
22
105.370033
32
119.304771
13
165.841995
23
60.500267
33
120.873108
0
3DFACE
8
0
70
0
10
171.138718
20
50.948631
30
87.351761
11
163.976563
21
60.015282
31
87.811447
12
171.152512
22
104.280952
32
87.150101
13
182.415207
23
110.727104
33
86.349304
0
3DFACE
8
0
70
0
10
109.339592
20
60.882469
30
125.667419
11
172.865814
21
51.544182
31
120.422562
12
165.841995
22
60.500267
32
120.873108
13
119.120384
23
68.613411
33
124.963974
0
3DFACE
8
0
70
0
10
109.613091
20
62.761818
30
91.549263
11
118.659767
21
69.931007
31
90.898552
12
163.976563
22
60.015282
32
87.811447
13
171.138718
23
50.948631
33
87.351761
0
3DFACE
8
0
70
0
10
133.356949
20
63.336067
30
107.334511
11
110.208252
21
83.658089
31
99.907227
12
122.386345
22
118.938393
32
123.649300
13
119.120384
23
68.613411
33
124.963974
0
3DFACE
8
0
70
0
10
110.208252
20
83.658089
30
99.907227
11
135.288010
21
104.692970
31
109.195061
12
174.620895
22
105.370033
32
119.304771
13
122.386345
23
118.938393
33
123.649300
0
3DFACE
8
0
70
0
10
153.886826
20
83.658089
30
114.904343
11
165.841995
21
60.500267
31
120.873108
12
174.620895
22
105.370033
32
119.304771
13
135.288010
23
104.692970
33
109.195061
0
3DFACE
8
0
70
0
10
133.356949
20
63.336067
30
107.334511
11
119.120384
21
68.613411
31
124.963974
12
165.841995
22
60.500267
32
120.873108
13
153.886826
23
83.658089
33
114.904343
0
3DFACE
8
0
70
0
10
73.923523
20
68.376213
30
135.423782
11
73.536522
21
79.352119
31
135.473129
12
77.574928
22
80.601021
32
123.960770
13
77.867210
23
69.627144
33
123.857986
0
3DFACE
8
0
70
0
10
73.536522
20
79.352119
30
135.473129
11
73.825310
21
90.712746
31
135.817642
12
77.746750
22
91.959877
32
124.283669
13
77.574928
23
80.601021
33
123.960770
0
3DFACE
8
0
70
0
10
155.288101
20
81.345314
30
148.459641
11
153.886826
21
83.658089
31
114.904343
12
135.288010
22
104.692970
32
109.195061
13
128.611832
23
102.383522
33
139.929520
0
3DFACE
8
0
70
0
10
125.638184
20
61.019554
30
137.812164
11
133.356949
21
63.336067
31
107.334511
12
153.886826
22
83.658089
32
114.904343
13
155.288101
23
81.345314
33
148.459641
0
3DFACE
8
0
70
0
10
102.634697
20
65.623787
30
198.712097
11
88.462570
21
76.630241
31
193.661530
12
94.467033
22
81.345314
32
142.392151
13
125.638184
23
61.019554
33
137.812164
0
3DFACE
8
0
70
0
10
88.462570
20
76.630241
30
193.661530
11
104.790955
21
88.017830
31
199.222244
12
128.611832
22
102.383522
32
139.929520
13
94.467033
23
81.345314
33
142.392151
0
3DFACE
8
0
70
0
10
121.560791
20
76.630241
30
193.914261
11
155.288101
21
81.345314
31
148.459641
12
128.611832
22
102.383522
32
139.929520
13
104.790955
23
88.017830
33
199.222244
0
3DFACE
8
0
70
0
10
102.634697
20
65.623787
30
198.712097
11
125.638184
21
61.019554
31
137.812164
12
155.288101
22
81.345314
32
148.459641
13
121.560791
23
76.630241
33
193.914261
0
3DFACE
8
0
70
0
10
73.923523
20
68.376213
30
135.423782
11
77.867210
21
69.627144
31
123.857986
12
133.356949
22
63.336067
32
107.334511
13
125.638184
23
61.019554
33
137.812164
0
3DFACE
8
0
70
0
10
77.867210
20
69.627144
30
123.857986
11
77.574928
21
80.601021
31
123.960770
12
110.208252
22
83.658089
32
99.907227
13
133.356949
23
63.336067
33
107.334511
0
3DFACE
8
0
70
0
10
73.923523
20
68.376213
30
135.423782
11
125.638184
21
61.019554
31
137.812164
12
94.467033
22
81.345314
32
142.392151
13
73.536522
23
79.352119
33
135.473129
0
3DFACE
8
0
70
0
10
77.574928
20
80.601021
30
123.960770
11
77.746750
21
91.959877
31
124.283669
12
135.288010
22
104.692970
32
109.195061
13
110.208252
23
83.658089
33
99.907227
0
3DFACE
8
0
70
0
10
73.825310
20
90.712746
30
135.817642
11
128.611832
21
102.383522
31
139.929520
12
135.288010
22
104.692970
32
109.195061
13
77.746750
23
91.959877
33
124.283669
0
3DFACE
8
0
70
0
10
73.536522
20
79.352119
30
135.473129
11
94.467033
21
81.345314
31
142.392151
12
128.611832
22
102.383522
32
139.929520
13
73.825310
23
90.712746
33
135.817642
0
3DFACE
8
0
70
0
10
-1.823216
20
-1.395103
30
66.845680
11
-67.993530
21
3.166367
31
43.298611
12
-70.694283
22
48.761604
32
1.194409
13
-27.774240
23
61.393852
33
15.132183
0
3DFACE
8
0
70
0
10
-67.993530
20
21.541946
30
-75.334618
11
-1.823216
21
24.558678
31
-100.712563
12
-34.323624
22
-29.410805
32
-56.467098
13
-74.951378
23
-10.261406
33
-45.345127
0
3DFACE
8
0
70
0
10
-1.823215
20
-11.423759
30
85.812340
11
-89.314209
21
-5.946724
31
56.753510
12
-67.993530
22
3.166367
32
43.298611
13
-1.823216
23
-1.395103
33
66.845680
0
3DFACE
8
0
70
0
10
-89.314209
20
17.308144
30
-93.380569
11
-1.823215
21
20.900513
31
-122.874031
12
-1.823216
22
24.558678
32
-100.712563
13
-67.993530
23
21.541946
33
-75.334618
0
3DFACE
8
0
70
0
10
-1.823216
20
-9.719658
30
98.615479
11
-1.823219
21
44.712990
31
111.168839
12
-109.071838
22
49.793877
32
78.076805
13
-94.619286
23
-3.684135
33
65.743607
0
3DFACE
8
0
70
0
10
-94.619286
20
22.593864
30
-103.907898
11
-109.071838
21
76.071892
31
-91.574699
12
-1.823437
22
81.224831
32
-124.648643
13
-1.823216
23
26.806770
33
-137.200119
0
3DFACE
8
0
70
0
10
-1.823219
20
44.712990
30
111.168839
11
-1.823219
21
47.742577
31
99.457390
12
-102.970985
22
52.223732
32
70.168892
13
-109.071838
23
49.793877
33
78.076805
0
3DFACE
8
0
70
0
10
-1.823216
20
-9.719658
30
98.615479
11
-94.619286
21
-3.684135
31
65.743607
12
-89.314209
22
-5.946724
32
56.753510
13
-1.823215
23
-11.423759
33
85.812340
0
3DFACE
8
0
70
0
10
-109.071838
20
76.071892
30
-91.574699
11
-102.970985
21
75.478615
31
-79.965187
12
-1.837534
22
79.540642
32
-109.287933
13
-1.823437
23
81.224831
33
-124.648643
0
3DFACE
8
0
70
0
10
-94.619286
20
22.593864
30
-103.907898
11
-1.823216
21
26.806770
31
-137.200119
12
-1.823215
22
20.900513
32
-122.874031
13
-89.314209
23
17.308144
33
-93.380569
0
3DFACE
8
0
70
0
10
-31.473774
20
-57.426727
30
125.283966
11
-37.787903
21
-32.340721
31
122.413620
12
-70.777412
22
-32.179283
32
122.504585
13
-78.613716
23
-57.426727
33
125.283958
0
3DFACE
8
0
70
0
10
-67.993530
20
3.166367
30
43.298611
11
-83.871910
21
12.153038
31
-14.719549
12
-83.515457
22
19.102127
32
-19.415379
13
-70.694283
23
48.761604
33
1.194409
0
3DFACE
8
0
70
0
10
-89.314209
20
-5.946724
30
56.753510
11
-110.522766
21
5.366447
31
-16.284683
12
-83.871910
22
12.153038
32
-14.719549
13
-67.993530
23
3.166367
33
43.298611
0
3DFACE
8
0
70
0
10
-109.071838
20
49.793877
30
78.076805
11
-134.986893
21
62.373512
31
-3.137609
12
-117.154106
22
8.895485
32
-15.470811
13
-94.619286
23
-3.684135
33
65.743607
0
3DFACE
8
0
70
0
10
-134.986893
20
62.373512
30
-3.137609
11
-109.071838
21
49.793877
31
78.076805
12
-102.970985
22
52.223732
32
70.168892
13
-127.360825
23
63.536919
33
-2.869303
0
3DFACE
8
0
70
0
10
-94.619286
20
-3.684135
30
65.743607
11
-117.154106
21
8.895485
31
-15.470811
12
-110.522766
22
5.366447
32
-16.284683
13
-89.314209
23
-5.946724
33
56.753510
0
3DFACE
8
0
70
0
10
-16.706886
20
-86.525215
30
108.887802
11
-31.473774
21
-57.426727
31
125.283966
12
-78.613716
22
-57.426727
32
125.283958
13
-83.890282
23
-86.686684
33
108.796829
0
3DFACE
8
0
70
0
10
-1.853932
20
222.489258
30
5.078217
11
-1.857344
21
199.695862
31
-46.094997
12
-56.752666
22
198.445984
32
-36.493587
13
-63.116508
23
204.048340
33
2.259550
0
3DFACE
8
0
70
0
10
-83.871910
20
12.153038
30
-14.719549
11
-67.993530
21
21.541946
31
-75.334618
12
-74.951378
22
-10.261406
32
-45.345127
13
-83.515457
23
19.102127
33
-19.415379
0
3DFACE
8
0
70
0
10
-110.522766
20
5.366447
30
-16.284683
11
-89.314209
21
17.308144
31
-93.380569
12
-67.993530
22
21.541946
32
-75.334618
13
-83.871910
23
12.153038
33
-14.719549
0
3DFACE
8
0
70
0
10
-117.154106
20
8.895485
30
-15.470811
11
-134.986893
21
62.373512
31
-3.137609
12
-109.071838
22
76.071892
32
-91.574699
13
-94.619286
23
22.593864
33
-103.907898
0
3DFACE
8
0
70
0
10
-109.071838
20
76.071892
30
-91.574699
11
-134.986893
21
62.373512
31
-3.137609
12
-127.360825
22
63.536919
32
-2.869303
13
-102.970985
23
75.478615
33
-79.965187
0
3DFACE
8
0
70
0
10
-117.154106
20
8.895485
30
-15.470811
11
-94.619286
21
22.593864
31
-103.907898
12
-89.314209
22
17.308144
32
-93.380569
13
-110.522766
23
5.366447
33
-16.284683
0
3DFACE
8
0
70
0
10
-30.184612
20
43.965446
30
3.143415
11
-24.173271
21
16.328499
31
-7.958745
12
-23.336283
22
14.407845
32
-17.387169
13
-27.774240
23
61.393852
33
15.132183
0
3DFACE
8
0
70
0
10
-30.184612
20
43.965446
30
3.143415
11
-27.774240
21
61.393852
31
15.132183
12
-70.694283
22
48.761604
32
1.194409
13
-72.554161
23
38.721153
33
-2.829572
0
3DFACE
8
0
70
0
10
-72.554161
20
38.721153
30
-2.829572
11
-70.694283
21
48.761604
31
1.194409
12
-83.515457
22
19.102127
32
-19.415379
13
-84.263885
23
22.587540
33
-10.663024
0
3DFACE
8
0
70
0
10
-24.173271
20
16.328499
30
-7.958745
11
-33.939590
21
-10.829117
31
-20.261084
12
-34.323624
22
-29.410805
32
-56.467098
13
-23.336283
23
14.407845
33
-17.387169
0
3DFACE
8
0
70
0
10
-84.263885
20
22.587540
30
-10.663024
11
-83.515457
21
19.102127
31
-19.415379
12
-74.951378
22
-10.261406
32
-45.345127
13
-74.994896
23
3.104683
33
-18.042500
0
3DFACE
8
0
70
0
10
-74.994896
20
3.104683
30
-18.042500
11
-74.951378
21
-10.261406
31
-45.345127
12
-34.323624
22
-29.410805
32
-56.467098
13
-33.939590
23
-10.829117
33
-20.261084
0
3DFACE
8
0
70
0
10
-30.129448
20
-25.488167
30
15.302140
11
-36.278896
21
9.188911
31
33.535149
12
-37.787899
22
-11.773705
32
60.690269
13
-31.473774
23
-31.136932
33
66.393669
0
3DFACE
8
0
70
0
10
-36.278896
20
9.188911
30
33.535149
11
-70.939812
21
0.907677
31
26.926617
12
-70.777412
22
-15.279015
32
60.337013
13
-37.787899
23
-11.773705
33
60.690269
0
3DFACE
8
0
70
0
10
-79.987442
20
-24.578156
30
16.784325
11
-78.613716
21
-31.136932
31
66.393669
12
-70.777412
22
-15.279015
32
60.337013
13
-70.939812
23
0.907677
33
26.926617
0
3DFACE
8
0
70
0
10
-14.484816
20
-62.472542
30
-4.372471
11
-30.129448
21
-25.488167
31
15.302140
12
-31.473774
22
-31.136932
32
66.393669
13
-20.410763
23
-52.248558
33
53.330750
0
3DFACE
8
0
70
0
10
-87.946281
20
-59.392456
30
-0.741292
11
-87.594154
21
-52.715378
31
56.928829
12
-78.613716
22
-31.136932
32
66.393669
13
-79.987442
23
-24.578156
33
16.784325
0
3DFACE
8
0
70
0
10
-87.946281
20
-59.392456
30
-0.741292
11
-14.484816
21
-62.472542
31
-4.372471
12
-20.410763
22
-52.248558
32
53.330750
13
-87.594154
23
-52.715378
33
56.928829
0
3DFACE
8
0
70
0
10
-31.473774
20
-57.426727
30
125.283966
11
-31.473774
21
-31.136932
31
66.393669
12
-37.787899
22
-11.773705
32
60.690269
13
-37.787903
23
-32.340721
33
122.413620
0
3DFACE
8
0
70
0
10
-37.787903
20
-32.340721
30
122.413620
11
-37.787899
21
-11.773705
31
60.690269
12
-70.777412
22
-15.279015
32
60.337013
13
-70.777412
23
-32.179283
33
122.504585
0
3DFACE
8
0
70
0
10
-78.613716
20
-57.426727
30
125.283958
11
-70.777412
21
-32.179283
31
122.504585
12
-70.777412
22
-15.279015
32
60.337013
13
-78.613716
23
-31.136932
33
66.393669
0
3DFACE
8
0
70
0
10
-16.706886
20
-86.525215
30
108.887802
11
-20.410763
21
-52.248558
31
53.330750
12
-31.473774
22
-31.136932
32
66.393669
13
-31.473774
23
-57.426727
33
125.283966
0
3DFACE
8
0
70
0
10
-83.890282
20
-86.686684
30
108.796829
11
-78.613716
21
-57.426727
31
125.283958
12
-78.613716
22
-31.136932
32
66.393669
13
-87.594154
23
-52.715378
33
56.928829
0
3DFACE
8
0
70
0
10
-83.890282
20
-86.686684
30
108.796829
11
-87.594154
21
-52.715378
31
56.928829
12
-20.410763
22
-52.248558
32
53.330750
13
-16.706886
23
-86.525215
33
108.887802
0
3DFACE
8
0
70
0
10
-62.329376
20
144.623779
30
204.236374
11
-49.293228
21
155.630249
31
195.120361
12
-64.385063
22
167.017822
32
205.360046
13
-82.968987
23
155.630249
33
204.641678
0
3DFACE
8
0
70
0
10
-83.210175
20
176.133606
30
-30.922306
11
-63.116508
21
204.048340
31
2.259550
12
-56.752666
22
198.445984
32
-36.493587
13
-56.752666
23
198.445984
33
-36.493587
0
3DFACE
8
0
70
0
10
-80.793808
20
182.005859
30
47.511501
11
-56.614574
21
182.834137
31
59.291286
12
-63.116508
22
204.048340
32
2.259550
13
-63.116508
23
204.048340
33
2.259550
0
3DFACE
8
0
70
0
10
-123.918510
20
166.199158
30
41.256126
11
-102.178642
21
164.088440
31
70.023834
12
-134.208939
22
134.272980
32
93.142799
13
-156.368988
23
138.785248
33
64.875175
0
3DFACE
8
0
70
0
10
-156.740585
20
197.190796
30
69.283516
11
-134.325043
21
196.955627
31
97.651352
12
-102.178642
22
164.088440
32
70.023834
13
-123.918510
23
166.199158
33
41.256126
0
3DFACE
8
0
70
0
10
-160.323822
20
165.289154
30
115.890816
11
-134.325043
21
196.955627
31
97.651352
12
-156.740585
22
197.190796
32
69.283516
13
-183.083099
23
167.420959
33
87.927254
0
3DFACE
8
0
70
0
10
-156.368988
20
138.785248
30
64.875175
11
-134.208939
21
134.272980
31
93.142799
12
-160.323822
22
165.289154
32
115.890816
13
-183.083099
23
167.420959
33
87.927254
0
3DFACE
8
0
70
0
10
-135.010239
20
122.740944
30
92.961082
11
-92.630005
21
164.228638
31
62.515282
12
-72.862427
22
162.251526
32
89.021797
13
-114.191666
23
117.567177
33
119.559464
0
3DFACE
8
0
70
0
10
-92.630005
20
164.228638
30
62.515282
11
-134.957336
21
209.865387
31
99.058929
12
-114.858963
22
210.269714
32
124.462776
13
-72.862427
23
162.251526
33
89.021797
0
3DFACE
8
0
70
0
10
-148.380234
20
163.811005
30
148.592911
11
-114.858963
21
210.269714
31
124.462776
12
-134.957336
22
209.865387
32
99.058929
13
-169.381668
23
165.813599
33
123.059700
0
3DFACE
8
0
70
0
10
-135.010239
20
122.740944
30
92.961082
11
-114.191666
21
117.567177
31
119.559464
12
-148.380234
22
163.811005
32
148.592911
13
-169.381668
23
165.813599
33
123.059700
0
3DFACE
8
0
70
0
10
-135.010239
20
122.740944
30
92.961082
11
-134.208939
21
134.272980
31
93.142799
12
-102.178642
22
164.088440
32
70.023834
13
-92.630005
23
164.228638
33
62.515282
0
3DFACE
8
0
70
0
10
-114.191666
20
117.567177
30
119.559464
11
-72.862427
21
162.251526
31
89.021797
12
-82.244476
22
162.152954
32
96.402092
13
-113.338493
23
130.023315
33
119.765450
0
3DFACE
8
0
70
0
10
-92.630005
20
164.228638
30
62.515282
11
-102.178642
21
164.088440
31
70.023834
12
-134.325043
22
196.955627
32
97.651352
13
-134.957336
23
209.865387
33
99.058929
0
3DFACE
8
0
70
0
10
-72.862427
20
162.251526
30
89.021797
11
-114.858963
21
210.269714
31
124.462776
12
-114.263138
22
196.745117
32
123.040619
13
-82.244476
23
162.152954
33
96.402092
0
3DFACE
8
0
70
0
10
-148.380234
20
163.811005
30
148.592911
11
-139.454941
21
163.334381
31
141.531723
12
-114.263138
22
196.745117
32
123.040619
13
-114.858963
23
210.269714
33
124.462776
0
3DFACE
8
0
70
0
10
-169.381668
20
165.813599
30
123.059700
11
-134.957336
21
209.865387
31
99.058929
12
-134.325043
22
196.955627
32
97.651352
13
-160.323822
23
165.289154
33
115.890816
0
3DFACE
8
0
70
0
10
-114.191666
20
117.567177
30
119.559464
11
-113.338493
21
130.023315
31
119.765450
12
-139.454941
22
163.334381
32
141.531723
13
-148.380234
23
163.811005
33
148.592911
0
3DFACE
8
0
70
0
10
-135.010239
20
122.740944
30
92.961082
11
-169.381668
21
165.813599
31
123.059700
12
-160.323822
22
165.289154
32
115.890816
13
-134.208939
23
134.272980
33
93.142799
0
3DFACE
8
0
70
0
10
-119.990433
20
142.496918
30
117.425293
11
-113.338493
21
130.023315
31
119.765450
12
-82.244476
22
162.152954
32
96.402092
13
-98.783882
23
162.681000
33
102.743950
0
3DFACE
8
0
70
0
10
-98.783882
20
162.681000
30
102.743950
11
-82.244476
21
162.152954
31
96.402092
12
-114.263138
22
196.745117
32
123.040619
13
-121.329399
23
183.870239
33
119.598747
0
3DFACE
8
0
70
0
10
-138.451935
20
162.944824
30
131.166748
11
-121.329399
21
183.870239
31
119.598747
12
-114.263138
22
196.745117
32
123.040619
13
-139.454941
23
163.334381
33
141.531723
0
3DFACE
8
0
70
0
10
-119.990433
20
142.496918
30
117.425293
11
-138.451935
21
162.944824
31
131.166748
12
-139.454941
22
163.334381
32
141.531723
13
-113.338493
23
130.023315
33
119.765450
0
3DFACE
8
0
70
0
10
-50.769222
20
147.376221
30
131.672729
11
-58.027245
21
148.627136
31
120.984161
12
-57.700481
22
159.601013
32
121.007149
13
-50.360851
23
158.352112
33
131.614700
0
3DFACE
8
0
70
0
10
-50.360851
20
158.352112
30
131.614700
11
-57.700481
21
159.601013
31
121.007149
12
-57.785282
22
170.959869
32
121.384468
13
-50.558849
23
169.712738
33
132.046814
0
3DFACE
8
0
70
0
10
-130.078888
20
160.345306
30
167.736557
11
-105.267586
21
181.383514
31
151.573090
12
-121.329399
22
183.870239
32
119.598747
13
-138.451935
23
162.944824
33
131.166748
0
3DFACE
8
0
70
0
10
-102.828300
20
140.019562
30
148.581985
11
-130.078888
21
160.345306
31
167.736557
12
-138.451935
22
162.944824
32
131.166748
13
-119.990433
23
142.496918
33
117.425293
0
3DFACE
8
0
70
0
10
-62.329376
20
144.623779
30
204.236374
11
-102.828300
21
140.019562
31
148.581985
12
-69.764786
22
160.345306
32
144.527344
13
-49.293228
23
155.630249
33
195.120361
0
3DFACE
8
0
70
0
10
-49.293228
20
155.630249
30
195.120361
11
-69.764786
21
160.345306
31
144.527344
12
-105.267586
22
181.383514
32
151.573090
13
-64.385063
23
167.017822
33
205.360046
0
3DFACE
8
0
70
0
10
-82.968987
20
155.630249
30
204.641678
11
-64.385063
21
167.017822
31
205.360046
12
-105.267586
22
181.383514
32
151.573090
13
-130.078888
23
160.345306
33
167.736557
0
3DFACE
8
0
70
0
10
-62.329376
20
144.623779
30
204.236374
11
-82.968987
21
155.630249
31
204.641678
12
-130.078888
22
160.345306
32
167.736557
13
-102.828300
23
140.019562
33
148.581985
0
3DFACE
8
0
70
0
10
-50.769222
20
147.376221
30
131.672729
11
-102.828300
21
140.019562
31
148.581985
12
-119.990433
22
142.496918
32
117.425293
13
-58.027245
23
148.627136
33
120.984161
0
3DFACE
8
0
70
0
10
-58.027245
20
148.627136
30
120.984161
11
-119.990433
21
142.496918
31
117.425293
12
-98.783882
22
162.681000
32
102.743950
13
-57.700481
23
159.601013
33
121.007149
0
3DFACE
8
0
70
0
10
-50.769222
20
147.376221
30
131.672729
11
-50.360851
21
158.352112
31
131.614700
12
-69.764786
22
160.345306
32
144.527344
13
-102.828300
23
140.019562
33
148.581985
0
3DFACE
8
0
70
0
10
-57.700481
20
159.601013
30
121.007149
11
-98.783882
21
162.681000
31
102.743950
12
-121.329399
22
183.870239
32
119.598747
13
-57.785282
23
170.959869
33
121.384468
0
3DFACE
8
0
70
0
10
-50.558849
20
169.712738
30
132.046814
11
-57.785282
21
170.959869
31
121.384468
12
-121.329399
22
183.870239
32
119.598747
13
-105.267586
23
181.383514
33
151.573090
0
3DFACE
8
0
70
0
10
-50.360851
20
158.352112
30
131.614700
11
-50.558849
21
169.712738
31
132.046814
12
-105.267586
22
181.383514
32
151.573090
13
-69.764786
23
160.345306
33
144.527344
0
3DFACE
8
0
70
0
10
19.334938
20
-9.502861
30
-22.753883
11
25.865255
21
-26.938477
31
35.159950
12
-1.823216
22
-1.395103
32
66.845680
13
-1.823216
23
11.326881
33
-15.287756
0
3DFACE
8
0
70
0
10
19.334938
20
-9.502861
30
-22.753883
11
-1.823216
21
11.326881
31
-15.287756
12
-1.823216
22
24.558678
32
-100.712563
13
28.786165
23
15.766548
33
-79.862099
0
3DFACE
8
0
70
0
10
-1.823216
20
24.558678
30
-100.712563
11
-1.823216
21
11.326881
31
-15.287756
12
-23.336283
22
14.407845
32
-17.387169
13
-34.323624
23
-29.410805
33
-56.467098
0
3DFACE
8
0
70
0
10
-1.823216
20
11.326881
30
-15.287756
11
-1.823216
21
-1.395103
31
66.845680
12
-27.774240
22
61.393852
32
15.132183
13
-23.336283
23
14.407845
33
-17.387169
0
3DFACE
8
0
70
0
10
-4.818595
20
244.790100
30
123.140213
11
5.613013
21
245.037140
31
118.208817
12
14.912823
22
263.013885
32
122.397263
13
-4.974988
23
263.532837
33
128.218735
0
3DFACE
8
0
70
0
10
-4.974988
20
263.532837
30
128.218735
11
14.912823
21
263.013885
31
122.397263
12
7.890449
22
271.503845
32
120.536308
13
-4.829001
23
275.117432
33
123.478157
0
3DFACE
8
0
70
0
10
5.613013
20
245.037140
30
118.208817
11
6.936020
21
241.049377
31
105.565147
12
18.444868
22
259.624023
32
105.194832
13
14.912823
23
263.013885
33
122.397263
0
3DFACE
8
0
70
0
10
-4.818595
20
244.790100
30
123.140213
11
-4.711452
21
238.575684
31
111.266586
12
6.936020
22
241.049377
32
105.565147
13
5.613013
23
245.037140
33
118.208817
0
3DFACE
8
0
70
0
10
-4.829001
20
275.117432
30
123.478157
11
7.890449
21
271.503845
31
120.536308
12
10.307831
22
271.532654
32
104.395714
13
-4.642650
23
275.748657
33
109.032394
0
3DFACE
8
0
70
0
10
14.912823
20
263.013885
30
122.397263
11
18.444868
21
259.624023
31
105.194832
12
10.307831
22
271.532654
32
104.395714
13
7.890449
23
271.503845
33
120.536308
0
3DFACE
8
0
70
0
10
-0.472189
20
285.017151
30
104.799423
11
-0.519537
21
275.580139
31
106.336937
12
10.664090
22
272.957275
32
101.500732
13
11.942320
23
292.459229
33
102.780418
0
3DFACE
8
0
70
0
10
10.664090
20
272.957275
30
101.500732
11
20.416731
21
273.622925
31
95.467827
12
24.216333
22
284.281281
32
91.446785
13
11.942320
23
292.459229
33
102.780418
0
3DFACE
8
0
70
0
10
7.841859
20
224.036499
30
125.679123
11
4.249770
21
242.415466
31
113.640167
12
-4.862751
22
241.147217
32
116.179688
13
-5.164315
23
223.869080
33
125.972343
0
3DFACE
8
0
70
0
10
47.175964
20
238.467346
30
80.506187
11
45.594082
21
249.372925
31
79.706627
12
21.741898
22
243.357239
32
99.986046
13
28.615828
23
220.892761
33
107.696602
0
3DFACE
8
0
70
0
10
4.249770
20
242.415466
30
113.640167
11
7.841859
21
224.036499
31
125.679123
12
26.316805
22
225.771179
32
117.473526
13
18.944199
23
242.671265
33
113.961937
0
3DFACE
8
0
70
0
10
42.122272
20
284.927368
30
77.597130
11
54.422298
21
302.127686
31
73.417465
12
28.967606
22
317.428772
32
85.030685
13
28.443319
23
291.732971
33
92.545990
0
3DFACE
8
0
70
0
10
-4.276262
20
325.372192
30
97.134796
11
-4.521360
21
294.000610
31
105.093788
12
11.445468
22
300.899323
32
102.447250
13
13.391994
23
329.617676
33
90.202209
0
3DFACE
8
0
70
0
10
13.391994
20
329.617676
30
90.202209
11
11.445468
21
300.899323
31
102.447250
12
28.443319
22
291.732971
32
92.545990
13
28.967606
23
317.428772
33
85.030685
0
3DFACE
8
0
70
0
10
-5.140290
20
197.199158
30
125.192169
11
12.235607
21
205.200012
31
118.929787
12
9.132512
22
214.231812
32
116.309029
13
-5.026430
23
211.555420
33
121.494812
0
3DFACE
8
0
70
0
10
-4.561928
20
152.998962
30
106.411102
11
15.908273
21
165.329315
31
103.147049
12
12.235607
22
205.200012
32
118.929787
13
-5.140290
23
197.199158
33
125.192169
0
3DFACE
8
0
70
0
10
47.175964
20
238.467346
30
80.506187
11
28.615828
21
220.892761
31
107.696602
12
28.204779
22
217.203827
32
98.849533
13
50.781841
23
227.390625
33
84.374146
0
3DFACE
8
0
70
0
10
28.204779
20
217.203827
30
98.849533
11
40.446789
21
189.633423
31
70.817818
12
51.059483
22
218.403198
32
53.612190
13
50.781841
23
227.390625
33
84.374146
0
3DFACE
8
0
70
0
10
15.908273
20
165.329315
30
103.147049
11
40.446789
21
189.633423
31
70.817818
12
28.204779
22
217.203827
32
98.849533
13
12.235607
23
205.200012
33
118.929787
0
3DFACE
8
0
70
0
10
12.235607
20
205.200012
30
118.929787
11
28.204779
21
217.203827
31
98.849533
12
28.615828
22
220.892761
32
107.696602
13
9.132512
23
214.231812
33
116.309029
0
3DFACE
8
0
70
0
10
-5.164315
20
223.869080
30
125.972343
11
-5.026430
21
211.555420
31
121.494812
12
9.132512
22
214.231812
32
116.309029
13
7.841859
23
224.036499
33
125.679123
0
3DFACE
8
0
70
0
10
-4.862751
20
241.147217
30
116.179688
11
4.249770
21
242.415466
31
113.640167
12
6.936020
22
241.049377
32
105.565147
13
-4.711452
23
238.575684
33
111.266586
0
3DFACE
8
0
70
0
10
18.944199
20
242.671265
30
113.961937
11
21.741898
21
243.357239
31
99.986046
12
6.936020
22
241.049377
32
105.565147
13
4.249770
23
242.415466
33
113.640167
0
POINT
8
0
70
0
10
48.075958
20
223.509094
30
99.720512
0
3DFACE
8
0
70
0
10
7.841859
20
224.036499
30
125.679123
11
9.132512
21
214.231812
31
116.309029
12
28.615828
22
220.892761
32
107.696602
13
26.316805
23
225.771179
33
117.473526
0
3DFACE
8
0
70
0
10
26.316805
20
225.771179
30
117.473526
11
48.075958
21
223.509094
31
99.720512
12
18.944199
22
242.671265
32
113.961937
13
18.944199
23
242.671265
33
113.961937
0
3DFACE
8
0
70
0
10
18.944199
20
242.671265
30
113.961937
11
48.075958
21
223.509094
31
99.720512
12
21.741898
22
243.357239
32
99.986046
13
21.741898
23
243.357239
33
99.986046
0
3DFACE
8
0
70
0
10
48.075958
20
223.509094
30
99.720512
11
28.615828
21
220.892761
31
107.696602
12
21.741898
22
243.357239
32
99.986046
13
21.741898
23
243.357239
33
99.986046
0
3DFACE
8
0
70
0
10
28.615828
20
220.892761
30
107.696602
11
48.075958
21
223.509094
31
99.720512
12
26.316805
22
225.771179
32
117.473526
13
26.316805
23
225.771179
33
117.473526
0
3DFACE
8
0
70
0
10
54.422298
20
302.127686
30
73.417465
11
42.122272
21
284.927368
31
77.597130
12
56.629452
22
276.558441
32
42.935997
13
59.868954
23
277.147095
33
45.131241
0
3DFACE
8
0
70
0
10
42.122272
20
284.927368
30
77.597130
11
40.103523
21
272.001495
31
79.060333
12
58.117306
22
269.292236
32
43.496429
13
56.629452
23
276.558441
33
42.935997
0
3DFACE
8
0
70
0
10
40.103523
20
272.001495
30
79.060333
11
42.527687
21
258.912384
31
79.669830
12
58.050850
22
256.230408
32
46.362206
13
58.117306
23
269.292236
33
43.496429
0
3DFACE
8
0
70
0
10
59.868954
20
277.147095
30
45.131241
11
56.629452
21
276.558441
31
42.935997
12
40.616909
22
270.555054
32
17.424574
13
42.964577
23
259.390015
33
25.207815
0
3DFACE
8
0
70
0
10
58.117306
20
269.292236
30
43.496429
11
43.064232
21
271.407532
31
13.077295
12
40.616909
22
270.555054
32
17.424574
13
56.629452
23
276.558441
33
42.935997
0
3DFACE
8
0
70
0
10
58.050850
20
256.230408
30
46.362206
11
40.347523
21
259.648804
31
12.123703
12
43.064232
22
271.407532
32
13.077295
13
58.117306
23
269.292236
33
43.496429
0
3DFACE
8
0
70
0
10
42.964577
20
259.390015
30
25.207815
11
40.616909
21
270.555054
31
17.424574
12
-1.273800
22
267.863220
32
-0.363753
13
-1.534736
23
247.401428
33
8.109522
0
3DFACE
8
0
70
0
10
43.064232
20
271.407532
30
13.077295
11
-1.181977
21
270.544312
31
-3.345497
12
-1.273800
22
267.863220
32
-0.363753
13
40.616909
23
270.555054
33
17.424574
0
3DFACE
8
0
70
0
10
40.347523
20
259.648804
30
12.123703
11
-1.249187
21
256.763519
31
-1.162999
12
-1.181977
22
270.544312
32
-3.345497
13
43.064232
23
271.407532
33
13.077295
0
3DFACE
8
0
70
0
10
51.059483
20
218.403198
30
53.612190
11
57.538097
21
234.777039
31
48.836475
12
47.175964
22
238.467346
32
80.506187
13
50.781841
23
227.390625
33
84.374146
0
3DFACE
8
0
70
0
10
42.527687
20
258.912384
30
79.669830
11
45.594082
21
249.372925
31
79.706627
12
58.050850
22
256.230408
32
46.362206
13
58.050850
23
256.230408
33
46.362206
0
3DFACE
8
0
70
0
10
47.175964
20
238.467346
30
80.506187
11
57.538097
21
234.777039
31
48.836475
12
58.050850
22
256.230408
32
46.362206
13
45.594082
23
249.372925
33
79.706627
0
3DFACE
8
0
70
0
10
57.538097
20
234.777039
30
48.836475
11
39.436733
21
241.838135
31
15.945739
12
40.347523
22
259.648804
32
12.123703
13
58.050850
23
256.230408
33
46.362206
0
3DFACE
8
0
70
0
10
39.436733
20
241.838135
30
15.945739
11
-1.413359
21
239.659180
31
4.168115
12
-1.249187
22
256.763519
32
-1.162999
13
40.347523
23
259.648804
33
12.123703
0
3DFACE
8
0
70
0
10
-4.276262
20
325.372192
30
97.134796
11
13.391994
21
329.617676
31
90.202209
12
15.811582
22
346.209625
32
75.084129
13
-3.751353
23
348.767059
33
80.089584
0
3DFACE
8
0
70
0
10
-3.751353
20
348.767059
30
80.089584
11
15.811582
21
346.209625
31
75.084129
12
16.365107
22
345.571411
32
69.736633
13
-3.603385
23
349.734802
33
75.284683
0
3DFACE
8
0
70
0
10
13.391994
20
329.617676
30
90.202209
11
28.967606
21
317.428772
31
85.030685
12
42.602497
22
337.573303
32
65.763527
13
15.811582
23
346.209625
33
75.084129
0
3DFACE
8
0
70
0
10
15.811582
20
346.209625
30
75.084129
11
42.602497
21
337.573303
31
65.763527
12
41.524853
22
337.448090
32
60.395897
13
16.365107
23
345.571411
33
69.736633
0
3DFACE
8
0
70
0
10
28.967606
20
317.428772
30
85.030685
11
54.422298
21
302.127686
31
73.417465
12
59.366226
22
314.674530
32
44.355919
13
42.602497
23
337.573303
33
65.763527
0
3DFACE
8
0
70
0
10
42.602497
20
337.573303
30
65.763527
11
59.366226
21
314.674530
31
44.355919
12
51.173725
22
317.396423
32
40.780457
13
41.524853
23
337.448090
33
60.395897
0
3DFACE
8
0
70
0
10
54.422298
20
302.127686
30
73.417465
11
59.868954
21
277.147095
31
45.131241
12
64.534584
22
299.478485
32
23.556288
13
59.366226
23
314.674530
33
44.355919
0
3DFACE
8
0
70
0
10
59.366226
20
314.674530
30
44.355919
11
64.534584
21
299.478485
31
23.556288
12
57.990177
22
302.569519
32
23.130096
13
51.173725
23
317.396423
33
40.780457
0
3DFACE
8
0
70
0
10
59.868954
20
277.147095
30
45.131241
11
42.964577
21
259.390015
31
25.207815
12
44.402687
22
280.960754
32
7.595849
13
64.534584
23
299.478485
33
23.556288
0
3DFACE
8
0
70
0
10
64.534584
20
299.478485
30
23.556288
11
44.402687
21
280.960754
31
7.595849
12
38.858055
22
286.550140
32
8.027484
13
57.990177
23
302.569519
33
23.130096
0
3DFACE
8
0
70
0
10
42.964577
20
259.390015
30
25.207815
11
-1.534736
21
247.401428
31
8.109522
12
-1.023115
22
267.132477
32
-8.504208
13
44.402687
23
280.960754
33
7.595849
0
3DFACE
8
0
70
0
10
44.402687
20
280.960754
30
7.595849
11
-1.023115
21
267.132477
31
-8.504208
12
-1.069545
22
272.746582
32
-6.996480
13
38.858055
23
286.550140
33
8.027484
0
3DFACE
8
0
70
0
10
51.059483
20
218.403198
30
53.612190
11
35.731968
21
216.331299
31
33.018978
12
39.436733
22
241.838135
32
15.945739
13
57.538097
23
234.777039
33
48.836475
0
3DFACE
8
0
70
0
10
35.731968
20
216.331299
30
33.018978
11
-1.777816
21
221.738708
31
9.344525
12
-1.413359
22
239.659180
32
4.168115
13
39.436733
23
241.838135
33
15.945739
0
3DFACE
8
0
70
0
10
40.446789
20
189.633423
30
70.817818
11
28.591831
21
198.099792
31
62.134068
12
35.731968
22
216.331299
32
33.018978
13
51.059483
23
218.403198
33
53.612190
0
3DFACE
8
0
70
0
10
15.908273
20
165.329315
30
103.147049
11
13.980532
21
165.188171
31
87.159019
12
28.591831
22
198.099792
32
62.134068
13
40.446789
23
189.633423
33
70.817818
0
3DFACE
8
0
70
0
10
13.980532
20
165.188171
30
87.159019
11
-3.822634
21
163.331421
31
82.404114
12
-3.121742
22
184.204956
32
59.644184
13
28.591831
23
198.099792
33
62.134068
0
3DFACE
8
0
70
0
10
-4.561928
20
152.998962
30
106.411102
11
-3.822634
21
163.331421
31
82.404114
12
13.980532
22
165.188171
32
87.159019
13
13.980532
23
165.188171
33
87.159019
0
3DFACE
8
0
70
0
10
-4.561928
20
152.998962
30
106.411102
11
13.980532
21
165.188171
31
87.159019
12
15.908273
22
165.329315
32
103.147049
13
15.908273
23
165.329315
33
103.147049
0
3DFACE
8
0
70
0
10
-4.818595
20
244.790100
30
123.140213
11
-4.974988
21
263.532837
31
128.218735
12
-24.466911
22
263.013885
32
121.184563
13
-14.926999
23
245.037140
33
117.576286
0
3DFACE
8
0
70
0
10
-4.974988
20
263.532837
30
128.218735
11
-4.829001
21
275.117432
31
123.478157
12
-17.343336
22
271.503845
32
119.759239
13
-24.466911
23
263.013885
33
121.184563
0
3DFACE
8
0
70
0
10
-14.926999
20
245.037140
30
117.576286
11
-24.466911
21
263.013885
31
121.184563
12
-27.450287
22
259.624023
32
103.781494
13
-15.986034
23
241.049377
33
104.859261
0
3DFACE
8
0
70
0
10
-4.818595
20
244.790100
30
123.140213
11
-14.926999
21
245.037140
31
117.576286
12
-15.986034
22
241.049377
32
104.859261
13
-4.711452
23
238.575684
33
111.266586
0
3DFACE
8
0
70
0
10
-4.829001
20
275.117432
30
123.478157
11
-4.642650
21
275.748657
31
109.032394
12
-19.279501
22
271.532654
32
103.484573
13
-17.343336
23
271.503845
33
119.759239
0
3DFACE
8
0
70
0
10
-24.466911
20
263.013885
30
121.184563
11
-17.343336
21
271.503845
31
119.759239
12
-19.279501
22
271.532654
32
103.484573
13
-27.450287
23
259.624023
33
103.781494
0
3DFACE
8
0
70
0
10
-8.086473
20
284.888611
30
104.391029
11
-20.165123
21
293.163940
31
101.956139
12
-19.241358
22
273.601807
32
101.177376
13
-8.127110
23
275.828033
33
105.710609
0
3DFACE
8
0
70
0
10
-19.241358
20
273.601807
30
101.177376
11
-20.165123
21
293.163940
31
101.956139
12
-31.808367
22
284.292999
32
92.229012
13
-28.168507
23
274.268555
33
95.765869
0
3DFACE
8
0
70
0
10
-18.127804
20
224.036499
30
124.879387
11
-5.164315
21
223.869080
31
125.972343
12
-4.862751
22
241.147217
32
116.179688
13
-13.801743
23
242.415466
33
113.084267
0
3DFACE
8
0
70
0
10
-54.607807
20
238.467346
30
77.371758
11
-37.755917
21
220.892761
31
105.652687
12
-30.420565
22
243.357239
32
98.379707
13
-52.979725
23
249.372925
33
76.671051
0
3DFACE
8
0
70
0
10
-13.801743
20
242.415466
30
113.084267
11
-28.488127
21
242.671265
31
112.501266
12
-36.062836
22
225.771179
32
115.552551
13
-18.127804
23
224.036499
33
124.879387
0
3DFACE
8
0
70
0
10
-49.384697
20
284.927368
30
74.779175
11
-35.779865
21
291.732971
31
90.568245
12
-35.840725
22
317.428802
32
83.034904
13
-61.404224
23
302.127686
33
69.850586
0
3DFACE
8
0
70
0
10
-4.276262
20
325.372192
30
97.134796
11
-21.066147
21
330.266754
31
88.660553
12
-19.887560
22
301.674194
32
101.352425
13
-4.521360
23
294.000610
33
105.093788
0
3DFACE
8
0
70
0
10
-21.066147
20
330.266754
30
88.660553
11
-35.840725
21
317.428802
31
83.034904
12
-35.779865
22
291.732971
32
90.568245
13
-19.887560
23
301.674194
33
101.352425
0
3DFACE
8
0
70
0
10
-5.140290
20
197.199158
30
125.192169
11
-5.026430
21
211.555420
31
121.494812
12
-18.839455
22
214.231812
32
115.447639
13
-22.097931
23
205.200012
33
117.872490
0
3DFACE
8
0
70
0
10
-4.561928
20
152.998962
30
106.411102
11
-5.140290
21
197.199158
31
125.192169
12
-22.097931
22
205.200012
32
117.872490
13
-24.792500
23
165.329315
33
101.893669
0
3DFACE
8
0
70
0
10
-54.607807
20
238.467346
30
77.371758
11
-58.444851
21
227.390625
31
81.010513
12
-36.801270
22
217.203827
32
96.847679
13
-37.755917
23
220.892761
33
105.652687
0
3DFACE
8
0
70
0
10
-36.801270
20
217.203827
30
96.847679
11
-58.444851
21
227.390625
31
81.010513
12
-56.829140
22
218.403198
32
50.289764
13
-47.295250
23
189.633423
33
68.115807
0
3DFACE
8
0
70
0
10
-24.792500
20
165.329315
30
101.893669
11
-22.097931
21
205.200012
31
117.872490
12
-36.801270
22
217.203827
32
96.847679
13
-47.295250
23
189.633423
33
68.115807
0
3DFACE
8
0
70
0
10
-22.097931
20
205.200012
30
117.872490
11
-18.839455
21
214.231812
31
115.447639
12
-37.755917
22
220.892761
32
105.652687
13
-36.801270
23
217.203827
33
96.847679
0
3DFACE
8
0
70
0
10
-5.164315
20
223.869080
30
125.972343
11
-18.127804
21
224.036499
31
124.879387
12
-18.839455
22
214.231812
32
115.447639
13
-5.026430
23
211.555420
33
121.494812
0
3DFACE
8
0
70
0
10
-4.862751
20
241.147217
30
116.179688
11
-4.711452
21
238.575684
31
111.266586
12
-15.986034
22
241.049377
32
104.859261
13
-13.801743
23
242.415466
33
113.084267
0
3DFACE
8
0
70
0
10
-28.488127
20
242.671265
30
112.501266
11
-13.801743
21
242.415466
31
113.084267
12
-15.986034
22
241.049377
32
104.859261
13
-30.420565
23
243.357239
33
98.379707
0
POINT
8
0
70
0
10
-55.881325
20
223.509094
30
96.519157
0
3DFACE
8
0
70
0
10
-18.127804
20
224.036499
30
124.879387
11
-36.062836
21
225.771179
31
115.552551
12
-37.755917
22
220.892761
32
105.652687
13
-18.839455
23
214.231812
33
115.447639
0
3DFACE
8
0
70
0
10
-36.062836
20
225.771179
30
115.552551
11
-28.488127
21
242.671265
31
112.501266
12
-55.881325
22
223.509094
32
96.519157
13
-55.881325
23
223.509094
33
96.519157
0
3DFACE
8
0
70
0
10
-28.488127
20
242.671265
30
112.501266
11
-30.420565
21
243.357239
31
98.379707
12
-55.881325
22
223.509094
32
96.519157
13
-55.881325
23
223.509094
33
96.519157
0
3DFACE
8
0
70
0
10
-55.881325
20
223.509094
30
96.519157
11
-30.420565
21
243.357239
31
98.379707
12
-37.755917
22
220.892761
32
105.652687
13
-37.755917
23
220.892761
33
105.652687
0
3DFACE
8
0
70
0
10
-37.755917
20
220.892761
30
105.652687
11
-36.062836
21
225.771179
31
115.552551
12
-55.881325
22
223.509094
32
96.519157
13
-55.881325
23
223.509094
33
96.519157
0
3DFACE
8
0
70
0
10
-61.404224
20
302.127686
30
69.850586
11
-65.100067
21
277.147125
31
41.282822
12
-61.731625
22
276.558441
32
39.291069
13
-49.384697
23
284.927368
33
74.779175
0
3DFACE
8
0
70
0
10
-49.384697
20
284.927368
30
74.779175
11
-61.731625
21
276.558441
31
39.291069
12
-63.251152
22
269.292236
32
39.758892
13
-47.459808
23
272.001495
33
76.363823
0
3DFACE
8
0
70
0
10
-47.459808
20
272.001495
30
76.363823
11
-63.251152
21
269.292236
31
39.758892
12
-63.361156
22
256.230408
32
42.623325
13
-49.916874
23
258.912384
33
76.822998
0
3DFACE
8
0
70
0
10
-65.100067
20
277.147125
30
41.282822
11
-47.001808
21
259.390045
31
22.437302
12
-44.179668
22
270.555054
32
14.813267
13
-61.731625
23
276.558441
33
39.291069
0
3DFACE
8
0
70
0
10
-63.251152
20
269.292236
30
39.758892
11
-61.731625
21
276.558441
31
39.291069
12
-44.179668
22
270.555054
32
14.813267
13
-46.354870
23
271.407532
33
10.323637
0
3DFACE
8
0
70
0
10
-63.361156
20
256.230408
30
42.623325
11
-63.251152
21
269.292236
31
39.758892
12
-46.354870
22
271.407532
32
10.323637
13
-43.584629
23
259.648804
33
9.539016
0
3DFACE
8
0
70
0
10
-47.001808
20
259.390045
30
22.437302
11
-1.534736
21
247.401428
31
8.109522
12
-1.273800
22
267.863220
32
-0.363753
13
-44.179668
23
270.555054
33
14.813267
0
3DFACE
8
0
70
0
10
-46.354870
20
271.407532
30
10.323637
11
-44.179668
21
270.555054
31
14.813267
12
-1.273800
22
267.863220
32
-0.363753
13
-1.181977
23
270.544312
33
-3.345497
0
3DFACE
8
0
70
0
10
-43.584629
20
259.648804
30
9.539016
11
-46.354870
21
271.407532
31
10.323637
12
-1.181977
22
270.544312
32
-3.345497
13
-1.249187
23
256.763519
33
-1.162999
0
3DFACE
8
0
70
0
10
-56.829140
20
218.403198
30
50.289764
11
-58.444851
21
227.390625
31
81.010513
12
-54.607807
22
238.467346
32
77.371758
13
-63.001617
23
234.777039
33
45.124458
0
3DFACE
8
0
70
0
10
-49.916874
20
258.912384
30
76.822998
11
-63.361156
21
256.230408
31
42.623325
12
-52.979725
22
249.372925
32
76.671051
13
-52.979725
23
249.372925
33
76.671051
0
3DFACE
8
0
70
0
10
-54.607807
20
238.467346
30
77.371758
11
-52.979725
21
249.372925
31
76.671051
12
-63.361156
22
256.230408
32
42.623325
13
-63.001617
23
234.777039
33
45.124458
0
3DFACE
8
0
70
0
10
-63.001617
20
234.777039
30
45.124458
11
-63.361156
21
256.230408
31
42.623325
12
-43.584629
22
259.648804
32
9.539016
13
-42.910740
23
241.838135
33
13.409851
0
3DFACE
8
0
70
0
10
-42.910740
20
241.838135
30
13.409851
11
-43.584629
21
259.648804
31
9.539016
12
-1.249187
22
256.763519
32
-1.162999
13
-1.413359
23
239.659180
33
4.168115
0
3DFACE
8
0
70
0
10
-4.276262
20
325.372192
30
97.134796
11
-3.751353
21
348.767059
31
80.089584
12
-22.969227
22
346.209625
32
73.889877
13
-21.066147
23
330.266754
33
88.660553
0
3DFACE
8
0
70
0
10
-3.751353
20
348.767059
30
80.089584
11
-3.603385
21
349.734802
31
75.284683
12
-23.192663
22
345.571411
32
68.518448
13
-22.969227
23
346.209625
33
73.889877
0
3DFACE
8
0
70
0
10
-21.066147
20
330.266754
30
88.660553
11
-22.969227
21
346.209625
31
73.889877
12
-49.135857
22
337.573334
32
62.938446
13
-35.840725
23
317.428802
33
83.034904
0
3DFACE
8
0
70
0
10
-22.969227
20
346.209625
30
73.889877
11
-23.192663
21
345.571411
31
68.518448
12
-47.729977
22
337.448090
32
57.647293
13
-49.135857
23
337.573334
33
62.938446
0
3DFACE
8
0
70
0
10
-35.840725
20
317.428802
30
83.034904
11
-49.135857
21
337.573334
31
62.938446
12
-64.550583
22
314.674530
32
40.539902
13
-61.404224
23
302.127686
33
69.850586
0
3DFACE
8
0
70
0
10
-49.135857
20
337.573334
30
62.938446
11
-47.729977
21
337.448090
31
57.647293
12
-56.153599
22
317.396423
32
37.475311
13
-64.550583
23
314.674530
33
40.539902
0
3DFACE
8
0
70
0
10
-61.404224
20
302.127686
30
69.850586
11
-64.550583
21
314.674530
31
40.539902
12
-68.429314
22
299.478516
32
19.461666
13
-65.100067
23
277.147125
33
41.282822
0
3DFACE
8
0
70
0
10
-64.550583
20
314.674530
30
40.539902
11
-56.153599
21
317.396423
31
37.475311
12
-61.871082
22
302.569519
32
19.438971
13
-68.429314
23
299.478516
33
19.461666
0
3DFACE
8
0
70
0
10
-65.100067
20
277.147125
30
41.282822
11
-68.429314
21
299.478516
31
19.461666
12
-47.353500
22
280.960754
32
4.770217
13
-47.001808
23
259.390045
33
22.437302
0
3DFACE
8
0
70
0
10
-68.429314
20
299.478516
30
19.461666
11
-61.871082
21
302.569519
31
19.438971
12
-41.845936
22
286.550140
32
5.542206
13
-47.353500
23
280.960754
33
4.770217
0
3DFACE
8
0
70
0
10
-47.001808
20
259.390045
30
22.437302
11
-47.353500
21
280.960754
31
4.770217
12
-1.023115
22
267.132477
32
-8.504208
13
-1.534736
23
247.401428
33
8.109522
0
3DFACE
8
0
70
0
10
-47.353500
20
280.960754
30
4.770217
11
-41.845936
21
286.550140
31
5.542206
12
-1.069545
22
272.746582
32
-6.996480
13
-1.023115
23
267.132477
33
-8.504208
0
3DFACE
8
0
70
0
10
-56.829140
20
218.403198
30
50.289764
11
-63.001617
21
234.777039
31
45.124458
12
-42.910740
22
241.838135
32
13.409851
13
-39.738895
23
216.331299
33
32.161495
0
3DFACE
8
0
70
0
10
-39.738895
20
216.331299
30
32.161495
11
-42.910740
21
241.838135
31
13.409851
12
-1.413359
22
239.659180
32
4.168115
13
-1.777816
23
221.738708
33
9.344525
0
3DFACE
8
0
70
0
10
-47.295250
20
189.633423
30
68.115807
11
-56.829140
21
218.403198
31
50.289764
12
-39.738895
22
216.331299
32
32.161495
13
-33.580589
23
198.099792
33
61.157253
0
3DFACE
8
0
70
0
10
-24.792500
20
165.329315
30
101.893669
11
-47.295250
21
189.633423
31
68.115807
12
-33.580589
22
198.099792
32
61.157253
13
-21.884642
23
165.188171
33
86.054550
0
3DFACE
8
0
70
0
10
-21.884642
20
165.188171
30
86.054550
11
-33.580589
21
198.099792
31
61.157253
12
-3.121742
22
184.204956
32
59.644184
13
-3.822634
23
163.331421
33
82.404114
0
3DFACE
8
0
70
0
10
-4.561928
20
152.998962
30
106.411102
11
-21.884642
21
165.188171
31
86.054550
12
-3.822634
22
163.331421
32
82.404114
13
-3.822634
23
163.331421
33
82.404114
0
3DFACE
8
0
70
0
10
-4.561928
20
152.998962
30
106.411102
11
-24.792500
21
165.329315
31
101.893669
12
-21.884642
22
165.188171
32
86.054550
13
-21.884642
23
165.188171
33
86.054550
0
3DFACE
8
0
70
0
10
-8.127110
20
275.828033
30
105.710609
11
-4.642650
21
275.748657
31
109.032394
12
-4.521360
22
294.000610
32
105.093788
13
-8.086473
23
284.888611
33
104.391029
0
3DFACE
8
0
70
0
10
-19.241358
20
273.601807
30
101.177376
11
-19.279501
21
271.532654
31
103.484573
12
-4.642650
22
275.748657
32
109.032394
13
-8.127110
23
275.828033
33
105.710609
0
3DFACE
8
0
70
0
10
-20.165123
20
293.163940
30
101.956139
11
-8.086473
21
284.888611
31
104.391029
12
-4.521360
22
294.000610
32
105.093788
13
-19.887560
23
301.674194
33
101.352425
0
3DFACE
8
0
70
0
10
-19.241358
20
273.601807
30
101.177376
11
-28.168507
21
274.268555
31
95.765869
12
-31.038378
22
272.482788
32
96.774323
13
-19.279501
23
271.532654
33
103.484573
0
3DFACE
8
0
70
0
10
-28.168507
20
274.268555
30
95.765869
11
-31.808367
21
284.292999
31
92.229012
12
-35.779865
22
291.732971
32
90.568245
13
-31.038378
23
272.482788
33
96.774323
0
3DFACE
8
0
70
0
10
-20.165123
20
293.163940
30
101.956139
11
-19.887560
21
301.674194
31
101.352425
12
-35.779865
22
291.732971
32
90.568245
13
-31.808367
23
284.292999
33
92.229012
0
3DFACE
8
0
70
0
10
11.942320
20
292.459229
30
102.780418
11
11.445468
21
300.899323
31
102.447250
12
-4.521360
22
294.000610
32
105.093788
13
-0.472189
23
285.017151
33
104.799423
0
3DFACE
8
0
70
0
10
10.664090
20
272.957275
30
101.500732
11
-0.519537
21
275.580139
31
106.336937
12
-4.642650
22
275.748657
32
109.032394
13
10.307831
23
271.532654
33
104.395714
0
3DFACE
8
0
70
0
10
-0.519537
20
275.580139
30
106.336937
11
-0.472189
21
285.017151
31
104.799423
12
-4.521360
22
294.000610
32
105.093788
13
-4.642650
23
275.748657
33
109.032394
0
3DFACE
8
0
70
0
10
11.942320
20
292.459229
30
102.780418
11
24.216333
21
284.281281
31
91.446785
12
28.443319
22
291.732971
32
92.545990
13
11.445468
23
300.899323
33
102.447250
0
3DFACE
8
0
70
0
10
20.416731
20
273.622925
30
95.467827
11
23.328947
21
272.482788
31
98.448563
12
28.443319
22
291.732971
32
92.545990
13
24.216333
23
284.281281
33
91.446785
0
3DFACE
8
0
70
0
10
10.664090
20
272.957275
30
101.500732
11
10.307831
21
271.532654
31
104.395714
12
23.328947
22
272.482788
32
98.448563
13
20.416731
23
273.622925
33
95.467827
0
3DFACE
8
0
70
0
10
-1.777816
20
221.738708
30
9.344525
11
35.731968
21
216.331299
31
33.018978
12
63.282539
22
207.595001
32
2.587746
13
-1.853932
23
222.489258
33
5.078217
0
3DFACE
8
0
70
0
10
-1.853932
20
222.489258
30
5.078217
11
-63.116508
21
204.048340
31
2.259550
12
-39.738895
22
216.331299
32
32.161495
13
-1.777816
23
221.738708
33
9.344525
0
3DFACE
8
0
70
0
10
-63.116508
20
204.048340
30
2.259550
11
-56.614574
21
182.834137
31
59.291286
12
-39.738895
22
216.331299
32
32.161495
13
-39.738895
23
216.331299
33
32.161495
0
3DFACE
8
0
70
0
10
-56.614574
20
182.834137
30
59.291286
11
-33.580589
21
198.099792
31
61.157253
12
-39.738895
22
216.331299
32
32.161495
13
-39.738895
23
216.331299
33
32.161495
0
3DFACE
8
0
70
0
10
52.935226
20
182.834137
30
59.291286
11
35.731968
21
216.331299
31
33.018978
12
28.591831
22
198.099792
32
62.134068
13
28.591831
23
198.099792
33
62.134068
0
3DFACE
8
0
70
0
10
63.282539
20
207.595001
30
2.587746
11
35.731968
21
216.331299
31
33.018978
12
52.935226
22
182.834137
32
59.291286
13
52.935226
23
182.834137
33
59.291286
0
3DFACE
8
0
70
0
10
-1.823221
20
185.656738
30
67.180084
11
-33.580589
21
198.099792
31
61.157253
12
-56.614574
22
182.834137
32
59.291286
13
-56.614574
23
182.834137
33
59.291286
0
3DFACE
8
0
70
0
10
-3.121742
20
184.204956
30
59.644184
11
-33.580589
21
198.099792
31
61.157253
12
-1.823221
22
185.656738
32
67.180084
13
-1.823221
23
185.656738
33
67.180084
0
3DFACE
8
0
70
0
10
-3.121742
20
184.204956
30
59.644184
11
-1.823221
21
185.656738
31
67.180084
12
28.591831
22
198.099792
32
62.134068
13
28.591831
23
198.099792
33
62.134068
0
3DFACE
8
0
70
0
10
-1.823221
20
185.656738
30
67.180084
11
52.935226
21
182.834137
31
59.291286
12
28.591831
22
198.099792
32
62.134068
13
28.591831
23
198.099792
33
62.134068
0
3DFACE
8
0
70
0
10
-1.069545
20
272.746582
30
-6.996480
11
-0.873653
21
332.036591
31
-14.267151
12
14.974650
22
337.896576
32
-10.063418
13
38.858055
23
286.550140
33
8.027484
0
3DFACE
8
0
70
0
10
38.858055
20
286.550140
30
8.027484
11
14.974650
21
337.896576
31
-10.063418
12
25.517557
22
346.594971
32
-4.223368
13
57.990177
23
302.569519
33
23.130096
0
3DFACE
8
0
70
0
10
57.990177
20
302.569519
30
23.130096
11
25.517557
21
346.594971
31
-4.223368
12
22.892769
22
355.493378
32
1.338016
13
51.173725
23
317.396423
33
40.780457
0
3DFACE
8
0
70
0
10
51.173725
20
317.396423
30
40.780457
11
22.892769
21
355.493378
31
1.338016
12
20.000217
22
366.524750
32
8.243629
13
41.524853
23
337.448090
33
60.395897
0
3DFACE
8
0
70
0
10
-3.603385
20
349.734802
30
75.284683
11
16.365107
21
345.571411
31
69.736633
12
7.971030
22
371.880646
32
11.269224
13
-1.711890
23
375.006348
33
12.952960
0
3DFACE
8
0
70
0
10
-1.069545
20
272.746582
30
-6.996480
11
-41.845936
21
286.550140
31
5.542206
12
-16.950588
22
337.896606
32
-11.046558
13
-0.873653
23
332.036591
33
-14.267151
0
3DFACE
8
0
70
0
10
-41.845936
20
286.550140
30
5.542206
11
-61.871082
21
302.569519
31
19.438971
12
-27.832855
22
346.595001
32
-5.866297
13
-16.950588
23
337.896606
33
-11.046558
0
3DFACE
8
0
70
0
10
-61.871082
20
302.569519
30
19.438971
11
-56.153599
21
317.396423
31
37.475311
12
-25.555246
22
355.493378
32
-0.153944
13
-27.832855
23
346.595001
33
-5.866297
0
3DFACE
8
0
70
0
10
-56.153599
20
317.396423
30
37.475311
11
-47.729977
21
337.448090
31
57.647293
12
-23.093084
22
366.524750
32
6.916567
13
-25.555246
23
355.493378
33
-0.153944
0
3DFACE
8
0
70
0
10
-3.603385
20
349.734802
30
75.284683
11
-1.711890
21
375.006348
31
12.952960
12
-11.272861
22
371.880646
32
10.676607
13
-23.192663
23
345.571411
33
68.518448
0
3DFACE
8
0
70
0
10
41.524853
20
337.448090
30
60.395897
11
20.000217
21
366.524750
31
8.243629
12
7.971030
22
371.880646
32
11.269224
13
16.365107
23
345.571411
33
69.736633
0
3DFACE
8
0
70
0
10
-47.729977
20
337.448090
30
57.647293
11
-23.192663
21
345.571411
31
68.518448
12
-11.272861
22
371.880646
32
10.676607
13
-23.093084
23
366.524750
33
6.916567
0
3DFACE
8
0
70
0
10
0.331226
20
377.146362
30
-54.752239
11
14.174006
21
371.597992
31
-62.136681
12
0.800882
22
372.040680
32
-70.003197
13
0.800882
23
372.040680
33
-70.003197
0
3DFACE
8
0
70
0
10
13.715307
20
370.712646
30
-47.241550
11
14.174006
21
371.597992
31
-62.136681
12
0.331226
22
377.146362
32
-54.752239
13
0.331226
23
377.146362
33
-54.752239
0
3DFACE
8
0
70
0
10
-0.116516
20
370.269958
30
-40.212875
11
13.715307
21
370.712646
31
-47.241550
12
0.331226
22
377.146362
32
-54.752239
13
0.331226
23
377.146362
33
-54.752239
0
3DFACE
8
0
70
0
10
-0.116516
20
370.269958
30
-40.212875
11
0.331226
21
377.146362
31
-54.752239
12
-13.489609
22
370.712646
32
-48.079330
13
-13.489609
23
370.712646
33
-48.079330
0
3DFACE
8
0
70
0
10
-13.489609
20
370.712646
30
-48.079330
11
0.331226
21
377.146362
31
-54.752239
12
-13.030910
22
371.597992
32
-62.974461
13
-13.030910
23
371.597992
33
-62.974461
0
3DFACE
8
0
70
0
10
0.331226
20
377.146362
30
-54.752239
11
0.800882
21
372.040680
31
-70.003197
12
-13.030910
22
371.597992
32
-62.974461
13
-13.030910
23
371.597992
33
-62.974461
0
3DFACE
8
0
70
0
10
14.174006
20
371.597992
30
-62.136681
11
19.929758
21
357.317657
31
-65.907021
12
1.017332
22
357.943695
32
-77.031876
13
0.800882
23
372.040680
33
-70.003197
0
3DFACE
8
0
70
0
10
19.281057
20
356.065582
30
-44.842041
11
19.929758
21
357.317657
31
-65.907021
12
14.174006
22
371.597992
32
-62.136681
13
13.715307
23
370.712646
33
-47.241550
0
3DFACE
8
0
70
0
10
-0.280065
20
355.439545
30
-34.902016
11
19.281057
21
356.065582
31
-44.842041
12
13.715307
22
370.712646
32
-47.241550
13
-0.116516
23
370.269958
33
-40.212875
0
3DFACE
8
0
70
0
10
-0.280065
20
355.439545
30
-34.902016
11
-0.116516
21
370.269958
31
-40.212875
12
-13.489609
22
370.712646
32
-48.079330
13
-19.192495
23
356.065582
33
-46.026840
0
3DFACE
8
0
70
0
10
-19.192495
20
356.065582
30
-46.026840
11
-13.489609
21
370.712646
31
-48.079330
12
-13.030910
22
371.597992
32
-62.974461
13
-18.543797
23
357.317688
33
-67.091820
0
3DFACE
8
0
70
0
10
-13.030910
20
371.597992
30
-62.974461
11
0.800882
21
372.040680
31
-70.003197
12
1.017332
22
357.943695
32
-77.031876
13
-18.543797
23
357.317688
33
-67.091820
0
3DFACE
8
0
70
0
10
14.226903
20
342.670624
30
-63.854465
11
0.853782
21
343.113281
31
-71.720985
12
1.017332
22
357.943695
32
-77.031876
13
19.929758
23
357.317657
33
-65.907021
0
3DFACE
8
0
70
0
10
19.281057
20
356.065582
30
-44.842041
11
13.768205
21
341.785248
31
-48.959335
12
14.226903
22
342.670624
32
-63.854465
13
19.929758
23
357.317657
33
-65.907021
0
3DFACE
8
0
70
0
10
-0.280065
20
355.439545
30
-34.902016
11
-0.063616
21
341.342590
31
-41.930664
12
13.768205
22
341.785248
32
-48.959335
13
19.281057
23
356.065582
33
-44.842041
0
3DFACE
8
0
70
0
10
-0.280065
20
355.439545
30
-34.902016
11
-19.192495
21
356.065582
31
-46.026840
12
-13.436709
22
341.785278
32
-49.797115
13
-0.063616
23
341.342590
33
-41.930664
0
3DFACE
8
0
70
0
10
-19.192495
20
356.065582
30
-46.026840
11
-18.543797
21
357.317688
31
-67.091820
12
-12.978011
22
342.670624
32
-64.692245
13
-13.436709
23
341.785278
33
-49.797115
0
3DFACE
8
0
70
0
10
-12.978011
20
342.670624
30
-64.692245
11
-18.543797
21
357.317688
31
-67.091820
12
1.017332
22
357.943695
32
-77.031876
13
0.853782
23
343.113281
33
-71.720985
0
3DFACE
8
0
70
0
10
0.406029
20
336.236877
30
-57.181557
11
0.853782
21
343.113281
31
-71.720985
12
14.226903
22
342.670624
32
-63.854465
13
14.226903
23
342.670624
33
-63.854465
0
3DFACE
8
0
70
0
10
13.768205
20
341.785248
30
-48.959335
11
0.406029
21
336.236877
31
-57.181557
12
14.226903
22
342.670624
32
-63.854465
13
14.226903
23
342.670624
33
-63.854465
0
3DFACE
8
0
70
0
10
-0.063616
20
341.342590
30
-41.930664
11
0.406029
21
336.236877
31
-57.181557
12
13.768205
22
341.785248
32
-48.959335
13
13.768205
23
341.785248
33
-48.959335
0
3DFACE
8
0
70
0
10
-0.063616
20
341.342590
30
-41.930664
11
-13.436709
21
341.785278
31
-49.797115
12
0.406029
22
336.236877
32
-57.181557
13
0.406029
23
336.236877
33
-57.181557
0
3DFACE
8
0
70
0
10
-13.436709
20
341.785278
30
-49.797115
11
-12.978011
21
342.670624
31
-64.692245
12
0.406029
22
336.236877
32
-57.181557
13
0.406029
23
336.236877
33
-57.181557
0
3DFACE
8
0
70
0
10
0.406029
20
336.236877
30
-57.181557
11
-12.978011
21
342.670624
31
-64.692245
12
0.853782
22
343.113281
32
-71.720985
13
0.853782
23
343.113281
33
-71.720985
0
3DFACE
8
0
70
0
10
21.741898
20
243.357239
30
99.986046
11
45.594082
21
249.372925
31
79.706627
12
33.162720
22
259.312073
32
102.624390
13
33.162720
23
259.312073
33
102.624390
0
3DFACE
8
0
70
0
10
45.594082
20
249.372925
30
79.706627
11
42.527687
21
258.912384
31
79.669830
12
33.162720
22
259.312073
32
102.624390
13
33.162720
23
259.312073
33
102.624390
0
3DFACE
8
0
70
0
10
6.936020
20
241.049377
30
105.565147
11
21.741898
21
243.357239
31
99.986046
12
18.444868
22
259.624023
32
105.194832
13
18.444868
23
259.624023
33
105.194832
0
3DFACE
8
0
70
0
10
21.741898
20
243.357239
30
99.986046
11
33.162720
21
259.312073
31
102.624390
12
18.444868
22
259.624023
32
105.194832
13
18.444868
23
259.624023
33
105.194832
0
3DFACE
8
0
70
0
10
33.162720
20
259.312073
30
102.624390
11
42.527687
21
258.912384
31
79.669830
12
23.328947
22
272.482788
32
98.448563
13
23.328947
23
272.482788
33
98.448563
0
3DFACE
8
0
70
0
10
42.527687
20
258.912384
30
79.669830
11
40.103523
21
272.001495
31
79.060333
12
23.328947
22
272.482788
32
98.448563
13
23.328947
23
272.482788
33
98.448563
0
3DFACE
8
0
70
0
10
18.444868
20
259.624023
30
105.194832
11
23.328947
21
272.482788
31
98.448563
12
10.307831
22
271.532654
32
104.395714
13
10.307831
23
271.532654
33
104.395714
0
3DFACE
8
0
70
0
10
33.162720
20
259.312073
30
102.624390
11
23.328947
21
272.482788
31
98.448563
12
18.444868
22
259.624023
32
105.194832
13
18.444868
23
259.624023
33
105.194832
0
3DFACE
8
0
70
0
10
23.328947
20
272.482788
30
98.448563
11
40.103523
21
272.001495
31
79.060333
12
28.443319
22
291.732971
32
92.545990
13
28.443319
23
291.732971
33
92.545990
0
3DFACE
8
0
70
0
10
40.103523
20
272.001495
30
79.060333
11
42.122272
21
284.927368
31
77.597130
12
28.443319
22
291.732971
32
92.545990
13
28.443319
23
291.732971
33
92.545990
0
3DFACE
8
0
70
0
10
-52.979725
20
249.372925
30
76.671051
11
-41.982086
21
259.312073
31
100.310303
12
-49.916874
22
258.912384
32
76.822998
13
-49.916874
23
258.912384
33
76.822998
0
3DFACE
8
0
70
0
10
-30.420565
20
243.357239
30
98.379707
11
-41.982086
21
259.312073
31
100.310303
12
-52.979725
22
249.372925
32
76.671051
13
-52.979725
23
249.372925
33
76.671051
0
3DFACE
8
0
70
0
10
-30.420565
20
243.357239
30
98.379707
11
-27.450287
21
259.624023
31
103.781494
12
-41.982086
22
259.312073
32
100.310303
13
-41.982086
23
259.312073
33
100.310303
0
3DFACE
8
0
70
0
10
-15.986034
20
241.049377
30
104.859261
11
-27.450287
21
259.624023
31
103.781494
12
-30.420565
22
243.357239
32
98.379707
13
-30.420565
23
243.357239
33
98.379707
0
3DFACE
8
0
70
0
10
-49.916874
20
258.912384
30
76.822998
11
-31.038378
21
272.482788
31
96.774323
12
-47.459808
22
272.001495
32
76.363823
13
-47.459808
23
272.001495
33
76.363823
0
3DFACE
8
0
70
0
10
-41.982086
20
259.312073
30
100.310303
11
-31.038378
21
272.482788
31
96.774323
12
-49.916874
22
258.912384
32
76.822998
13
-49.916874
23
258.912384
33
76.822998
0
3DFACE
8
0
70
0
10
-27.450287
20
259.624023
30
103.781494
11
-19.279501
21
271.532654
31
103.484573
12
-31.038378
22
272.482788
32
96.774323
13
-31.038378
23
272.482788
33
96.774323
0
3DFACE
8
0
70
0
10
-41.982086
20
259.312073
30
100.310303
11
-27.450287
21
259.624023
31
103.781494
12
-31.038378
22
272.482788
32
96.774323
13
-31.038378
23
272.482788
33
96.774323
0
3DFACE
8
0
70
0
10
-47.459808
20
272.001495
30
76.363823
11
-35.779865
21
291.732971
31
90.568245
12
-49.384697
22
284.927368
32
74.779175
13
-49.384697
23
284.927368
33
74.779175
0
3DFACE
8
0
70
0
10
-31.038378
20
272.482788
30
96.774323
11
-35.779865
21
291.732971
31
90.568245
12
-47.459808
22
272.001495
32
76.363823
13
-47.459808
23
272.001495
33
76.363823
0
3DFACE
8
0
70
0
10
28.261789
20
-48.728119
30
-3.121523
11
26.087044
21
-30.511200
31
-5.947402
12
18.965799
22
-19.989395
32
-29.855352
13
18.965799
23
-19.989395
33
-29.855352
0
3DFACE
8
0
70
0
10
28.261789
20
-48.728119
30
-3.121523
11
18.965799
21
-19.989395
31
-29.855352
12
21.284046
22
-48.878662
32
-26.018257
13
21.284046
23
-48.878662
33
-26.018257
0
3DFACE
8
0
70
0
10
28.261789
20
-48.728119
30
-3.121523
11
68.289200
21
-28.395538
31
-13.784187
12
26.087044
22
-30.511200
32
-5.947402
13
26.087044
23
-30.511200
33
-5.947402
0
3DFACE
8
0
70
0
10
28.261789
20
-48.728119
30
-3.121523
11
64.478203
21
-47.718636
31
-10.443552
12
68.289200
22
-28.395538
32
-13.784187
13
68.289200
23
-28.395538
33
-13.784187
0
3DFACE
8
0
70
0
10
64.478203
20
-47.718636
30
-10.443552
11
79.366112
21
-22.211571
31
-28.895237
12
68.289200
22
-28.395538
32
-13.784187
13
68.289200
23
-28.395538
33
-13.784187
0
3DFACE
8
0
70
0
10
64.478203
20
-47.718636
30
-10.443552
11
74.125092
21
-47.427238
31
-24.838184
12
79.366112
22
-22.211571
32
-28.895237
13
79.366112
23
-22.211571
33
-28.895237
0
3DFACE
8
0
70
0
10
30.131058
20
-48.592758
30
-49.541660
11
18.965799
21
-19.989395
31
-29.855352
12
27.657032
22
-9.607170
32
-54.537434
13
27.657032
23
-9.607170
33
-54.537434
0
3DFACE
8
0
70
0
10
21.284046
20
-48.878662
30
-26.018257
11
18.965799
21
-19.989395
31
-29.855352
12
30.131058
22
-48.592758
32
-49.541660
13
30.131058
23
-48.592758
33
-49.541660
0
3DFACE
8
0
70
0
10
65.693222
20
-47.630653
30
-40.616646
11
69.309692
21
-14.807915
31
-45.367706
12
79.366112
22
-22.211571
32
-28.895237
13
79.366112
23
-22.211571
33
-28.895237
0
3DFACE
8
0
70
0
10
74.125092
20
-47.427238
30
-24.838184
11
65.693222
21
-47.630653
31
-40.616646
12
79.366112
22
-22.211571
32
-28.895237
13
79.366112
23
-22.211571
33
-28.895237
0
3DFACE
8
0
70
0
10
30.131058
20
-48.592758
30
-49.541660
11
27.657032
21
-9.607170
31
-54.537434
12
69.309692
22
-14.807915
32
-45.367706
13
69.309692
23
-14.807915
33
-45.367706
0
3DFACE
8
0
70
0
10
65.693222
20
-47.630653
30
-40.616646
11
30.131058
21
-48.592758
31
-49.541660
12
69.309692
22
-14.807915
32
-45.367706
13
69.309692
23
-14.807915
33
-45.367706
0
3DFACE
8
0
70
0
10
-34.547043
20
44.326363
30
33.698498
11
-27.980825
21
25.094063
31
17.269316
12
-24.173271
22
16.328499
32
-7.958745
13
-24.173271
23
16.328499
33
-7.958745
0
3DFACE
8
0
70
0
10
-34.547043
20
44.326363
30
33.698498
11
-24.173271
21
16.328499
31
-7.958745
12
-30.184612
22
43.965446
32
3.143415
13
-30.184612
23
43.965446
33
3.143415
0
3DFACE
8
0
70
0
10
-34.547043
20
44.326363
30
33.698498
11
-30.184612
21
43.965446
31
3.143415
12
-72.554161
22
38.721153
32
-2.829572
13
-72.554161
23
38.721153
33
-2.829572
0
3DFACE
8
0
70
0
10
-34.547043
20
44.326363
30
33.698498
11
-72.554161
21
38.721153
31
-2.829572
12
-70.866249
22
39.904686
32
27.682953
13
-70.866249
23
39.904686
33
27.682953
0
3DFACE
8
0
70
0
10
-70.866249
20
39.904686
30
27.682953
11
-72.554161
21
38.721153
31
-2.829572
12
-84.263885
22
22.587540
32
-10.663024
13
-84.263885
23
22.587540
33
-10.663024
0
3DFACE
8
0
70
0
10
-70.866249
20
39.904686
30
27.682953
11
-84.263885
21
22.587540
31
-10.663024
12
-80.761345
22
28.444710
32
17.076277
13
-80.761345
23
28.444710
33
17.076277
0
3DFACE
8
0
70
0
10
-37.238617
20
6.055397
30
0.073163
11
-33.939590
21
-10.829117
31
-20.261084
12
-24.173271
22
16.328499
32
-7.958745
13
-24.173271
23
16.328499
33
-7.958745
0
3DFACE
8
0
70
0
10
-27.980825
20
25.094063
30
17.269316
11
-37.238617
21
6.055397
31
0.073163
12
-24.173271
22
16.328499
32
-7.958745
13
-24.173271
23
16.328499
33
-7.958745
0
3DFACE
8
0
70
0
10
-80.761345
20
28.444710
30
17.076277
11
-84.263885
21
22.587540
31
-10.663024
12
-72.615776
22
15.028549
32
5.826483
13
-72.615776
23
15.028549
33
5.826483
0
3DFACE
8
0
70
0
10
-72.615776
20
15.028549
30
5.826483
11
-84.263885
21
22.587540
31
-10.663024
12
-74.994896
22
3.104683
32
-18.042500
13
-74.994896
23
3.104683
33
-18.042500
0
3DFACE
8
0
70
0
10
-72.615776
20
15.028549
30
5.826483
11
-74.994896
21
3.104683
31
-18.042500
12
-37.238617
22
6.055397
32
0.073163
13
-37.238617
23
6.055397
33
0.073163
0
3DFACE
8
0
70
0
10
-37.238617
20
6.055397
30
0.073163
11
-74.994896
21
3.104683
31
-18.042500
12
-33.939590
22
-10.829117
32
-20.261084
13
-33.939590
23
-10.829117
33
-20.261084
0
3DFACE
8
0
70
0
10
31.193987
20
-71.954124
30
-10.861492
11
28.261789
21
-48.728119
31
-3.121523
12
21.284046
22
-48.878662
32
-26.018257
13
21.284046
23
-48.878662
33
-26.018257
0
3DFACE
8
0
70
0
10
26.527477
20
-101.161247
30
-34.706615
11
31.193987
21
-71.954124
31
-10.861492
12
21.284046
22
-48.878662
32
-26.018257
13
21.284046
23
-48.878662
33
-26.018257
0
3DFACE
8
0
70
0
10
66.105034
20
-76.195534
30
-18.910912
11
64.478203
21
-47.718636
31
-10.443552
12
31.193987
22
-71.954124
32
-10.861492
13
31.193987
23
-71.954124
33
-10.861492
0
3DFACE
8
0
70
0
10
31.193987
20
-71.954124
30
-10.861492
11
64.478203
21
-47.718636
31
-10.443552
12
28.261789
22
-48.728119
32
-3.121523
13
28.261789
23
-48.728119
33
-3.121523
0
3DFACE
8
0
70
0
10
76.273148
20
-97.536674
30
-33.571384
11
74.125092
21
-47.427238
31
-24.838184
12
66.105034
22
-76.195534
32
-18.910912
13
66.105034
23
-76.195534
33
-18.910912
0
3DFACE
8
0
70
0
10
66.105034
20
-76.195534
30
-18.910912
11
74.125092
21
-47.427238
31
-24.838184
12
64.478203
22
-47.718636
32
-10.443552
13
64.478203
23
-47.718636
33
-10.443552
0
3DFACE
8
0
70
0
10
26.527477
20
-101.161247
30
-34.706615
11
21.284046
21
-48.878662
31
-26.018257
12
30.131058
22
-48.592758
32
-49.541660
13
30.131058
23
-48.592758
33
-49.541660
0
3DFACE
8
0
70
0
10
12.477113
20
-132.824371
30
-60.272499
11
26.527477
21
-101.161247
31
-34.706615
12
30.131058
22
-48.592758
32
-49.541660
13
30.131058
23
-48.592758
33
-49.541660
0
3DFACE
8
0
70
0
10
85.708305
20
-126.155174
30
-56.914696
11
65.693222
21
-47.630653
31
-40.616646
12
76.273148
22
-97.536674
32
-33.571384
13
76.273148
23
-97.536674
33
-33.571384
0
3DFACE
8
0
70
0
10
76.273148
20
-97.536674
30
-33.571384
11
65.693222
21
-47.630653
31
-40.616646
12
74.125092
22
-47.427238
32
-24.838184
13
74.125092
23
-47.427238
33
-24.838184
0
3DFACE
8
0
70
0
10
12.477113
20
-132.824371
30
-60.272499
11
30.131058
21
-48.592758
31
-49.541660
12
85.708305
22
-126.155174
32
-56.914696
13
85.708305
23
-126.155174
33
-56.914696
0
3DFACE
8
0
70
0
10
85.708305
20
-126.155174
30
-56.914696
11
30.131058
21
-48.592758
31
-49.541660
12
65.693222
22
-47.630653
32
-40.616646
13
65.693222
23
-47.630653
33
-40.616646
0
3DFACE
8
0
70
0
10
-30.129448
20
-25.488167
30
15.302140
11
-27.980825
21
25.094063
31
17.269316
12
-36.278896
22
9.188911
32
33.535149
13
-36.278896
23
9.188911
33
33.535149
0
3DFACE
8
0
70
0
10
-36.278896
20
9.188911
30
33.535149
11
-27.980825
21
25.094063
31
17.269316
12
-34.547043
22
44.326363
32
33.698498
13
-34.547043
23
44.326363
33
33.698498
0
3DFACE
8
0
70
0
10
-36.278896
20
9.188911
30
33.535149
11
-34.547043
21
44.326363
31
33.698498
12
-70.866249
22
39.904686
32
27.682953
13
-70.866249
23
39.904686
33
27.682953
0
3DFACE
8
0
70
0
10
-70.939812
20
0.907677
30
26.926617
11
-36.278896
21
9.188911
31
33.535149
12
-70.866249
22
39.904686
32
27.682953
13
-70.866249
23
39.904686
33
27.682953
0
3DFACE
8
0
70
0
10
-70.939812
20
0.907677
30
26.926617
11
-70.866249
21
39.904686
31
27.682953
12
-80.761345
22
28.444710
32
17.076277
13
-80.761345
23
28.444710
33
17.076277
0
3DFACE
8
0
70
0
10
-79.987442
20
-24.578156
30
16.784325
11
-70.939812
21
0.907677
31
26.926617
12
-80.761345
22
28.444710
32
17.076277
13
-80.761345
23
28.444710
33
17.076277
0
3DFACE
8
0
70
0
10
-14.484816
20
-62.472542
30
-4.372471
11
-37.238617
21
6.055397
31
0.073163
12
-30.129448
22
-25.488167
32
15.302140
13
-30.129448
23
-25.488167
33
15.302140
0
3DFACE
8
0
70
0
10
-30.129448
20
-25.488167
30
15.302140
11
-37.238617
21
6.055397
31
0.073163
12
-27.980825
22
25.094063
32
17.269316
13
-27.980825
23
25.094063
33
17.269316
0
3DFACE
8
0
70
0
10
-79.987442
20
-24.578156
30
16.784325
11
-80.761345
21
28.444710
31
17.076277
12
-72.615776
22
15.028549
32
5.826483
13
-72.615776
23
15.028549
33
5.826483
0
3DFACE
8
0
70
0
10
-87.946281
20
-59.392456
30
-0.741292
11
-79.987442
21
-24.578156
31
16.784325
12
-72.615776
22
15.028549
32
5.826483
13
-72.615776
23
15.028549
33
5.826483
0
3DFACE
8
0
70
0
10
-87.946281
20
-59.392456
30
-0.741292
11
-72.615776
21
15.028549
31
5.826483
12
-37.238617
22
6.055397
32
0.073163
13
-37.238617
23
6.055397
33
0.073163
0
3DFACE
8
0
70
0
10
-14.484816
20
-62.472542
30
-4.372471
11
-87.946281
21
-59.392456
31
-0.741292
12
-37.238617
22
6.055397
32
0.073163
13
-37.238617
23
6.055397
33
0.073163
0
3DFACE
8
0
70
0
10
99.324547
20
52.223747
30
70.168892
11
-1.823220
21
99.940636
31
116.477753
12
-1.823219
22
47.742577
32
99.457390
13
-1.823219
23
47.742577
33
99.457390
0
3DFACE
8
0
70
0
10
99.324547
20
52.223747
30
70.168892
11
100.234993
21
114.354317
31
87.009003
12
-1.823220
22
99.940636
32
116.477753
13
-1.823220
23
99.940636
33
116.477753
0
3DFACE
8
0
70
0
10
99.324547
20
75.478615
30
-79.965187
11
-1.837534
21
79.540642
31
-109.287933
12
-1.823219
22
109.288124
32
-100.877357
13
-1.823219
23
109.288124
33
-100.877357
0
3DFACE
8
0
70
0
10
99.324547
20
75.478615
30
-79.965187
11
-1.823219
21
109.288124
31
-100.877357
12
100.235001
22
109.935097
32
-66.663658
13
100.235001
23
109.935097
33
-66.663658
0
3DFACE
8
0
70
0
10
99.324547
20
52.223747
30
70.168892
11
124.836922
21
111.897926
31
1.591003
12
100.234993
22
114.354317
32
87.009003
13
100.234993
23
114.354317
33
87.009003
0
3DFACE
8
0
70
0
10
99.324547
20
52.223747
30
70.168892
11
123.714401
21
63.536919
31
-2.869303
12
124.836922
22
111.897926
32
1.591003
13
124.836922
23
111.897926
33
1.591003
0
3DFACE
8
0
70
0
10
123.714401
20
63.536919
30
-2.869303
11
99.324547
21
75.478615
31
-79.965187
12
100.235001
22
109.935097
32
-66.663658
13
100.235001
23
109.935097
33
-66.663658
0
3DFACE
8
0
70
0
10
123.714401
20
63.536919
30
-2.869303
11
100.235001
21
109.935097
31
-66.663658
12
124.836922
22
111.897926
32
1.591003
13
124.836922
23
111.897926
33
1.591003
0
3DFACE
8
0
70
0
10
-102.970985
20
52.223732
30
70.168892
11
-1.823219
21
47.742577
31
99.457390
12
-1.823220
22
99.940636
32
116.477753
13
-1.823220
23
99.940636
33
116.477753
0
3DFACE
8
0
70
0
10
-102.970985
20
52.223732
30
70.168892
11
-1.823220
21
99.940636
31
116.477753
12
-103.881432
22
114.354317
32
87.009003
13
-103.881432
23
114.354317
33
87.009003
0
3DFACE
8
0
70
0
10
-102.970985
20
75.478615
30
-79.965187
11
-1.823219
21
109.288124
31
-100.877357
12
-1.837534
22
79.540642
32
-109.287933
13
-1.837534
23
79.540642
33
-109.287933
0
3DFACE
8
0
70
0
10
-102.970985
20
75.478615
30
-79.965187
11
-103.881432
21
109.935097
31
-66.663658
12
-1.823219
22
109.288124
32
-100.877357
13
-1.823219
23
109.288124
33
-100.877357
0
3DFACE
8
0
70
0
10
-102.970985
20
52.223732
30
70.168892
11
-128.483368
21
111.897926
31
1.591005
12
-127.360825
22
63.536919
32
-2.869303
13
-127.360825
23
63.536919
33
-2.869303
0
3DFACE
8
0
70
0
10
-102.970985
20
52.223732
30
70.168892
11
-103.881432
21
114.354317
31
87.009003
12
-128.483368
22
111.897926
32
1.591005
13
-128.483368
23
111.897926
33
1.591005
0
3DFACE
8
0
70
0
10
-127.360825
20
63.536919
30
-2.869303
11
-128.483368
21
111.897926
31
1.591005
12
-103.881432
22
109.935097
32
-66.663658
13
-103.881432
23
109.935097
33
-66.663658
0
3DFACE
8
0
70
0
10
-127.360825
20
63.536919
30
-2.869303
11
-103.881432
21
109.935097
31
-66.663658
12
-102.970985
22
75.478615
32
-79.965187
13
-102.970985
23
75.478615
33
-79.965187
0
3DFACE
8
0
70
0
10
-1.823220
20
99.940636
30
116.477753
11
52.935226
21
182.834137
31
59.291286
12
-1.823221
22
185.656738
32
67.180084
13
-1.823221
23
185.656738
33
67.180084
0
3DFACE
8
0
70
0
10
-1.823220
20
99.940636
30
116.477753
11
100.234993
21
114.354317
31
87.009003
12
52.935226
22
182.834137
32
59.291286
13
52.935226
23
182.834137
33
59.291286
0
3DFACE
8
0
70
0
10
100.235001
20
109.935097
30
-66.663658
11
-1.823219
21
109.288124
31
-100.877357
12
53.064346
22
198.445984
32
-36.493587
13
53.064346
23
198.445984
33
-36.493587
0
3DFACE
8
0
70
0
10
-1.823219
20
109.288124
30
-100.877357
11
-1.857344
21
199.695862
31
-46.094997
12
53.064346
22
198.445984
32
-36.493587
13
53.064346
23
198.445984
33
-36.493587
0
3DFACE
8
0
70
0
10
100.234993
20
114.354317
30
87.009003
11
86.805901
21
154.018463
31
6.855523
12
76.019493
22
183.596619
32
47.756744
13
76.019493
23
183.596619
33
47.756744
0
3DFACE
8
0
70
0
10
100.234993
20
114.354317
30
87.009003
11
124.836922
21
111.897926
31
1.591003
12
86.805901
22
154.018463
32
6.855523
13
86.805901
23
154.018463
33
6.855523
0
3DFACE
8
0
70
0
10
100.235001
20
109.935097
30
-66.663658
11
73.598022
21
178.165710
31
-30.363890
12
86.805901
22
154.018463
32
6.855523
13
86.805901
23
154.018463
33
6.855523
0
3DFACE
8
0
70
0
10
124.836922
20
111.897926
30
1.591003
11
100.235001
21
109.935097
31
-66.663658
12
86.805901
22
154.018463
32
6.855523
13
86.805901
23
154.018463
33
6.855523
0
3DFACE
8
0
70
0
10
100.234993
20
114.354317
30
87.009003
11
76.019493
21
183.596619
31
47.756744
12
52.935226
22
182.834137
32
59.291286
13
52.935226
23
182.834137
33
59.291286
0
3DFACE
8
0
70
0
10
100.235001
20
109.935097
30
-66.663658
11
53.064346
21
198.445984
31
-36.493587
12
73.598022
22
178.165710
32
-30.363890
13
73.598022
23
178.165710
33
-30.363890
0
3DFACE
8
0
70
0
10
-1.823220
20
99.940636
30
116.477753
11
-56.614574
21
182.834137
31
59.291286
12
-103.881432
22
114.354317
32
87.009003
13
-103.881432
23
114.354317
33
87.009003
0
3DFACE
8
0
70
0
10
-1.823220
20
99.940636
30
116.477753
11
-1.823221
21
185.656738
31
67.180084
12
-56.614574
22
182.834137
32
59.291286
13
-56.614574
23
182.834137
33
59.291286
0
3DFACE
8
0
70
0
10
-103.881432
20
109.935097
30
-66.663658
11
-56.752666
21
198.445984
31
-36.493587
12
-1.823219
22
109.288124
32
-100.877357
13
-1.823219
23
109.288124
33
-100.877357
0
3DFACE
8
0
70
0
10
-1.823219
20
109.288124
30
-100.877357
11
-56.752666
21
198.445984
31
-36.493587
12
-1.857344
22
199.695862
32
-46.094997
13
-1.857344
23
199.695862
33
-46.094997
0
3DFACE
8
0
70
0
10
-103.881432
20
114.354317
30
87.009003
11
-80.793808
21
182.005859
31
47.511501
12
-103.573418
22
155.151062
32
6.526648
13
-103.573418
23
155.151062
33
6.526648
0
3DFACE
8
0
70
0
10
-103.881432
20
114.354317
30
87.009003
11
-103.573418
21
155.151062
31
6.526648
12
-128.483368
22
111.897926
32
1.591005
13
-128.483368
23
111.897926
33
1.591005
0
3DFACE
8
0
70
0
10
-128.483368
20
111.897926
30
1.591005
11
-103.573418
21
155.151062
31
6.526648
12
-103.881432
22
109.935097
32
-66.663658
13
-103.881432
23
109.935097
33
-66.663658
0
3DFACE
8
0
70
0
10
-103.881432
20
109.935097
30
-66.663658
11
-103.573418
21
155.151062
31
6.526648
12
-83.210175
22
176.133606
32
-30.922306
13
-83.210175
23
176.133606
33
-30.922306
0
3DFACE
8
0
70
0
10
-103.881432
20
114.354317
30
87.009003
11
-56.614574
21
182.834137
31
59.291286
12
-80.793808
22
182.005859
32
47.511501
13
-80.793808
23
182.005859
33
47.511501
0
3DFACE
8
0
70
0
10
-103.881432
20
109.935097
30
-66.663658
11
-83.210175
21
176.133606
31
-30.922306
12
-56.752666
22
198.445984
32
-36.493587
13
-56.752666
23
198.445984
33
-36.493587
0
3DFACE
8
0
70
0
10
86.805901
20
154.018463
30
6.855523
11
112.598671
21
124.944450
31
40.186783
12
76.019493
22
183.596619
32
47.756744
13
76.019493
23
183.596619
33
47.756744
0
3DFACE
8
0
70
0
10
103.629082
20
85.609520
30
13.600062
11
112.598671
21
124.944450
31
40.186783
12
86.805901
22
154.018463
32
6.855523
13
86.805901
23
154.018463
33
6.855523
0
3DFACE
8
0
70
0
10
76.019493
20
183.596619
30
47.756744
11
149.993500
21
117.171364
31
3.377940
12
63.282539
22
207.595001
32
2.587746
13
63.282539
23
207.595001
33
2.587746
0
3DFACE
8
0
70
0
10
76.019493
20
183.596619
30
47.756744
11
112.598671
21
124.944450
31
40.186783
12
149.993500
22
117.171364
32
3.377940
13
149.993500
23
117.171364
33
3.377940
0
3DFACE
8
0
70
0
10
73.598022
20
178.165710
30
-30.363890
11
63.282539
21
207.595001
31
2.587746
12
149.993500
22
117.171364
32
3.377940
13
149.993500
23
117.171364
33
3.377940
0
3DFACE
8
0
70
0
10
73.598022
20
178.165710
30
-30.363890
11
149.993500
21
117.171364
31
3.377940
12
136.514267
22
80.948769
32
-16.900192
13
136.514267
23
80.948769
33
-16.900192
0
3DFACE
8
0
70
0
10
86.805901
20
154.018463
30
6.855523
11
73.598022
21
178.165710
31
-30.363890
12
136.514267
22
80.948769
32
-16.900192
13
136.514267
23
80.948769
33
-16.900192
0
3DFACE
8
0
70
0
10
103.629082
20
85.609520
30
13.600062
11
86.805901
21
154.018463
31
6.855523
12
136.514267
22
80.948769
32
-16.900192
13
136.514267
23
80.948769
33
-16.900192
0
3DFACE
8
0
70
0
10
-103.573418
20
155.151062
30
6.526648
11
-80.793808
21
182.005859
31
47.511501
12
-140.077576
22
167.974915
32
41.489128
13
-140.077576
23
167.974915
33
41.489128
0
3DFACE
8
0
70
0
10
-172.471649
20
140.114349
30
21.908945
11
-103.573418
21
155.151062
31
6.526648
12
-140.077576
22
167.974915
32
41.489128
13
-140.077576
23
167.974915
33
41.489128
0
3DFACE
8
0
70
0
10
-80.793808
20
182.005859
30
47.511501
11
-63.116508
21
204.048340
31
2.259550
12
-176.376465
22
196.897980
32
18.777887
13
-176.376465
23
196.897980
33
18.777887
0
3DFACE
8
0
70
0
10
-80.793808
20
182.005859
30
47.511501
11
-176.376465
21
196.897980
31
18.777887
12
-140.077576
22
167.974915
32
41.489128
13
-140.077576
23
167.974915
33
41.489128
0
3DFACE
8
0
70
0
10
-83.210175
20
176.133606
30
-30.922306
11
-176.376465
21
196.897980
31
18.777887
12
-63.116508
22
204.048340
32
2.259550
13
-63.116508
23
204.048340
33
2.259550
0
3DFACE
8
0
70
0
10
-83.210175
20
176.133606
30
-30.922306
11
-202.223328
21
166.653961
31
3.257790
12
-176.376465
22
196.897980
32
18.777887
13
-176.376465
23
196.897980
33
18.777887
0
3DFACE
8
0
70
0
10
-103.573418
20
155.151062
30
6.526648
11
-202.223328
21
166.653961
31
3.257790
12
-83.210175
22
176.133606
32
-30.922306
13
-83.210175
23
176.133606
33
-30.922306
0
3DFACE
8
0
70
0
10
-172.471649
20
140.114349
30
21.908945
11
-202.223328
21
166.653961
31
3.257790
12
-103.573418
22
155.151062
32
6.526648
13
-103.573418
23
155.151062
33
6.526648
0
3DFACE
8
0
70
0
10
-156.368988
20
138.785248
30
64.875175
11
-172.471649
21
140.114349
31
21.908945
12
-140.077576
22
167.974915
32
41.489128
13
-140.077576
23
167.974915
33
41.489128
0
3DFACE
8
0
70
0
10
-156.368988
20
138.785248
30
64.875175
11
-140.077576
21
167.974915
31
41.489128
12
-123.918510
22
166.199158
32
41.256126
13
-123.918510
23
166.199158
33
41.256126
0
3DFACE
8
0
70
0
10
-123.918510
20
166.199158
30
41.256126
11
-140.077576
21
167.974915
31
41.489128
12
-176.376465
22
196.897980
32
18.777887
13
-176.376465
23
196.897980
33
18.777887
0
3DFACE
8
0
70
0
10
-123.918510
20
166.199158
30
41.256126
11
-176.376465
21
196.897980
31
18.777887
12
-156.740585
22
197.190796
32
69.283516
13
-156.740585
23
197.190796
33
69.283516
0
3DFACE
8
0
70
0
10
-183.083099
20
167.420959
30
87.927254
11
-156.740585
21
197.190796
31
69.283516
12
-176.376465
22
196.897980
32
18.777887
13
-176.376465
23
196.897980
33
18.777887
0
3DFACE
8
0
70
0
10
-183.083099
20
167.420959
30
87.927254
11
-176.376465
21
196.897980
31
18.777887
12
-202.223328
22
166.653961
32
3.257790
13
-202.223328
23
166.653961
33
3.257790
0
3DFACE
8
0
70
0
10
-156.368988
20
138.785248
30
64.875175
11
-183.083099
21
167.420959
31
87.927254
12
-202.223328
22
166.653961
32
3.257790
13
-202.223328
23
166.653961
33
3.257790
0
3DFACE
8
0
70
0
10
-156.368988
20
138.785248
30
64.875175
11
-202.223328
21
166.653961
31
3.257790
12
-172.471649
22
140.114349
32
21.908945
13
-172.471649
23
140.114349
33
21.908945
0
3DFACE
8
0
70
0
10
118.170731
20
71.329994
30
54.728252
11
112.598671
21
124.944450
31
40.186783
12
103.629082
22
85.609520
32
13.600062
13
103.629082
23
85.609520
33
13.600062
0
3DFACE
8
0
70
0
10
118.170731
20
71.329994
30
54.728252
11
117.002144
21
119.920540
31
54.625977
12
112.598671
22
124.944450
32
40.186783
13
112.598671
23
124.944450
33
40.186783
0
3DFACE
8
0
70
0
10
117.002144
20
119.920540
30
54.625977
11
149.993500
21
117.171364
31
3.377940
12
112.598671
22
124.944450
32
40.186783
13
112.598671
23
124.944450
33
40.186783
0
3DFACE
8
0
70
0
10
117.002144
20
119.920540
30
54.625977
11
167.277191
21
103.064018
31
51.223122
12
149.993500
22
117.171364
32
3.377940
13
149.993500
23
117.171364
33
3.377940
0
3DFACE
8
0
70
0
10
161.942108
20
59.486351
30
51.754963
11
136.514267
21
80.948769
31
-16.900192
12
149.993500
22
117.171364
32
3.377940
13
149.993500
23
117.171364
33
3.377940
0
3DFACE
8
0
70
0
10
161.942108
20
59.486351
30
51.754963
11
149.993500
21
117.171364
31
3.377940
12
167.277191
22
103.064018
32
51.223122
13
167.277191
23
103.064018
33
51.223122
0
3DFACE
8
0
70
0
10
118.170731
20
71.329994
30
54.728252
11
103.629082
21
85.609520
31
13.600062
12
136.514267
22
80.948769
32
-16.900192
13
136.514267
23
80.948769
33
-16.900192
0
3DFACE
8
0
70
0
10
118.170731
20
71.329994
30
54.728252
11
136.514267
21
80.948769
31
-16.900192
12
161.942108
22
59.486351
32
51.754963
13
161.942108
23
59.486351
33
51.754963
0
3DFACE
8
0
70
0
10
-4.381738
20
351.118195
30
-47.309597
11
0.092511
21
348.754364
31
-47.325100
12
-0.873653
22
332.036591
32
-14.267151
13
-16.950588
23
337.896606
33
-11.046558
0
3DFACE
8
0
70
0
10
4.557329
20
351.118195
30
-47.034317
11
14.974650
21
337.896576
31
-10.063418
12
-0.873653
22
332.036591
32
-14.267151
13
0.092511
23
348.754364
33
-47.325100
0
3DFACE
8
0
70
0
10
7.549856
20
354.626953
30
-46.714672
11
25.517557
21
346.594971
31
-4.223368
12
14.974650
22
337.896576
32
-10.063418
13
4.557329
23
351.118195
33
-47.034317
0
3DFACE
8
0
70
0
10
6.856359
20
358.216370
30
-46.503284
11
22.892769
21
355.493378
31
1.338016
12
25.517557
22
346.594971
32
-4.223368
13
7.549856
23
354.626953
33
-46.714672
0
3DFACE
8
0
70
0
10
6.097824
20
362.666229
30
-46.238106
11
20.000217
21
366.524750
31
8.243629
12
22.892769
22
355.493378
32
1.338016
13
6.856359
23
358.216370
33
-46.503284
0
3DFACE
8
0
70
0
10
2.754596
20
364.826691
30
-46.200962
11
7.971030
21
371.880646
31
11.269224
12
20.000217
22
366.524750
32
8.243629
13
6.097824
23
362.666229
33
-46.238106
0
3DFACE
8
0
70
0
10
0.057936
20
366.087524
30
-46.202244
11
-1.711890
21
375.006348
31
12.952960
12
7.971030
22
371.880646
32
11.269224
13
2.754596
23
364.826691
33
-46.200962
0
3DFACE
8
0
70
0
10
0.057936
20
366.087524
30
-46.202244
11
-2.633693
21
364.826691
31
-46.366898
12
-11.272861
22
371.880646
32
10.676607
13
-1.711890
23
375.006348
33
12.952960
0
3DFACE
8
0
70
0
10
-2.633693
20
364.826691
30
-46.366898
11
-5.968301
21
362.666229
31
-46.609684
12
-23.093084
22
366.524750
32
6.916567
13
-11.272861
23
371.880646
33
10.676607
0
3DFACE
8
0
70
0
10
-5.968301
20
362.666229
30
-46.609684
11
-6.709085
21
358.216370
31
-46.921032
12
-25.555246
22
355.493378
32
-0.153944
13
-23.093084
23
366.524750
33
6.916567
0
3DFACE
8
0
70
0
10
-6.709085
20
358.216370
30
-46.921032
11
-7.388259
21
354.626953
31
-47.174694
12
-27.832855
22
346.595001
32
-5.866297
13
-25.555246
23
355.493378
33
-0.153944
0
3DFACE
8
0
70
0
10
-7.388259
20
354.626953
30
-47.174694
11
-4.381738
21
351.118195
31
-47.309597
12
-16.950588
22
337.896606
32
-11.046558
13
-27.832855
23
346.595001
33
-5.866297
0
ENDSEC
0
EOF
