0
SECTION
2
HEADER
999
DXF File Generated by LightWave 3D(TM)
0
ENDSEC
0
SECTION
2
TABLES
0
ENDSEC
0
SECTION
2
BLOCKS
0
ENDSEC
0
SECTION
2
ENTITIES
0
3DFACE
8
0
70
0
10
-9.691628
20
38.083618
30
80.773193
11
14.180204
21
46.361588
31
58.217133
12
59.669300
22
46.213181
32
46.746040
13
56.938873
23
54.563736
33
65.256973
0
3DFACE
8
0
70
0
10
70.653145
20
49.685730
30
-55.966209
11
77.983727
21
31.060410
31
-33.005070
12
42.356243
22
23.049622
32
-64.476883
13
9.678484
23
31.193893
33
-90.443115
0
3DFACE
8
0
70
0
10
-10.674455
20
32.199554
30
101.509605
11
-9.691628
21
38.083618
31
80.773193
12
56.938873
22
54.563736
32
65.256973
13
77.224785
23
53.856323
33
83.159050
0
3DFACE
8
0
70
0
10
94.580627
20
47.683075
30
-70.252701
11
70.653145
21
49.685730
31
-55.966209
12
9.678484
22
31.193893
32
-90.443115
13
13.450163
23
23.618713
33
-111.732727
0
3DFACE
8
0
70
0
10
-12.783604
20
36.191238
30
113.887306
11
80.698166
21
58.991043
31
92.345688
12
83.815224
22
115.175201
32
96.263046
13
-23.853251
23
89.690338
33
115.936089
0
3DFACE
8
0
70
0
10
100.310265
20
52.015259
30
-81.009583
11
14.477215
21
26.494904
31
-127.076523
12
3.394209
22
79.999512
32
-125.028542
13
103.427322
23
108.199402
33
-77.092224
0
3DFACE
8
0
70
0
10
-23.853251
20
89.690338
30
115.936089
11
83.815224
21
115.175201
31
96.263046
12
78.617142
22
114.452942
32
87.148163
13
-22.706766
23
90.351151
33
103.736557
0
3DFACE
8
0
70
0
10
-12.783604
20
36.191238
30
113.887306
11
-10.674455
21
32.199554
31
101.509605
12
77.224785
22
53.856323
32
83.159050
13
80.698166
23
58.991043
33
92.345688
0
3DFACE
8
0
70
0
10
103.427322
20
108.199402
30
-77.092224
11
3.394209
21
79.999512
31
-125.028542
12
0.914517
22
82.009537
32
-109.513115
13
95.972984
23
108.279694
33
-66.263588
0
3DFACE
8
0
70
0
10
100.310265
20
52.015259
30
-81.009583
11
94.580627
21
47.683075
31
-70.252701
12
13.450163
22
23.618713
32
-111.732727
13
14.477215
23
26.494904
33
-127.076523
0
3DFACE
8
0
70
0
10
27.673773
20
-35.181519
30
102.617195
11
74.813721
21
-35.181519
31
102.617195
12
66.977409
22
-14.550003
32
87.801697
13
33.987896
23
-14.735306
33
87.801697
0
3DFACE
8
0
70
0
10
56.938873
20
54.563736
30
65.256973
11
59.669300
21
46.213181
31
46.746040
12
78.909393
22
36.049973
32
10.976638
13
79.018944
23
56.158905
33
8.064589
0
3DFACE
8
0
70
0
10
77.224785
20
53.856323
30
83.159050
11
56.938873
21
54.563736
31
65.256973
12
79.018944
22
56.158905
32
8.064589
13
106.201744
23
56.170197
33
11.321110
0
3DFACE
8
0
70
0
10
83.815224
20
115.175201
30
96.263046
11
80.698166
21
58.991043
31
92.345688
12
111.904366
22
61.301224
32
12.327795
13
118.294075
23
118.332825
33
16.690588
0
3DFACE
8
0
70
0
10
118.294075
20
118.332825
30
16.690588
11
110.674141
21
117.564392
31
15.729442
12
78.617142
22
114.452942
32
87.148163
13
83.815224
23
115.175201
33
96.263046
0
3DFACE
8
0
70
0
10
80.698166
20
58.991043
30
92.345688
11
77.224785
21
53.856323
31
83.159050
12
106.201744
22
56.170197
32
11.321110
13
111.904366
23
61.301224
33
12.327795
0
3DFACE
8
0
70
0
10
12.906889
20
-68.581467
30
102.617195
11
80.090286
21
-68.766785
31
102.617195
12
74.813721
22
-35.181519
32
102.617195
13
27.673773
23
-35.181519
33
102.617195
0
3DFACE
8
0
70
0
10
-1.483061
20
206.737457
30
5.078217
11
59.344391
21
183.466614
31
2.174475
12
53.513885
22
189.554413
32
-36.493587
13
-1.513945
23
181.548401
33
-46.094997
0
3DFACE
8
0
70
0
10
79.018944
20
56.158905
30
8.064589
11
78.909393
21
36.049973
31
10.976638
12
77.983727
22
31.060410
32
-33.005070
13
70.653145
23
49.685730
33
-55.966209
0
3DFACE
8
0
70
0
10
106.201744
20
56.170197
30
11.321110
11
79.018944
21
56.158905
31
8.064589
12
70.653145
22
49.685730
32
-55.966209
13
94.580627
23
47.683075
33
-70.252701
0
3DFACE
8
0
70
0
10
111.904366
20
61.301224
30
12.327795
11
100.310265
21
52.015259
31
-81.009583
12
103.427322
22
108.199402
32
-77.092224
13
118.294075
23
118.332825
33
16.690588
0
3DFACE
8
0
70
0
10
103.427322
20
108.199402
30
-77.092224
11
95.972984
21
108.279694
31
-66.263588
12
110.674141
22
117.564392
32
15.729442
13
118.294075
23
118.332825
33
16.690588
0
3DFACE
8
0
70
0
10
111.904366
20
61.301224
30
12.327795
11
106.201744
21
56.170197
31
11.321110
12
94.580627
22
47.683075
32
-70.252701
13
100.310265
23
52.015259
33
-81.009583
0
3DFACE
8
0
70
0
10
20.748079
20
27.407639
30
23.236490
11
14.180204
21
46.361588
31
58.217133
12
20.481424
22
30.386734
32
-3.429808
13
19.782833
23
21.111221
33
-4.515140
0
3DFACE
8
0
70
0
10
20.748079
20
27.407639
30
23.236490
11
63.672775
21
27.594284
31
25.180319
12
59.669300
22
46.213181
32
46.746040
13
14.180204
23
46.361588
33
58.217133
0
3DFACE
8
0
70
0
10
63.672775
20
27.594284
30
25.180319
11
78.187508
21
24.401825
31
11.501612
12
78.909393
22
36.049973
32
10.976638
13
59.669300
23
46.213181
33
46.746040
0
3DFACE
8
0
70
0
10
19.782833
20
21.111221
30
-4.515140
11
20.481424
21
30.386734
31
-3.429808
12
42.356243
22
23.049622
32
-64.476883
13
34.362782
23
15.421631
33
-29.188297
0
3DFACE
8
0
70
0
10
78.187508
20
24.401825
30
11.501612
11
72.522339
21
19.803375
31
-8.895798
12
77.983727
22
31.060410
32
-33.005070
13
78.909393
23
36.049973
33
10.976638
0
3DFACE
8
0
70
0
10
72.522339
20
19.803375
30
-8.895798
11
34.362782
21
15.421631
31
-29.188297
12
42.356243
22
23.049622
32
-64.476883
13
77.983727
23
31.060410
33
-33.005070
0
3DFACE
8
0
70
0
10
26.222542
20
-41.482666
30
-11.146882
11
27.673773
21
-43.565018
31
43.725594
12
33.987896
22
-24.473709
32
35.947453
13
27.214216
23
-17.215317
33
20.032352
0
3DFACE
8
0
70
0
10
27.214216
20
-17.215317
30
20.032352
11
33.987896
21
-24.473709
31
35.947453
12
66.977409
22
-28.071701
32
35.947453
13
62.712101
23
-21.834045
33
17.052393
0
3DFACE
8
0
70
0
10
74.789932
20
-41.207092
30
-0.704425
11
62.712101
21
-21.834045
31
17.052393
12
66.977409
22
-28.071701
32
35.947453
13
74.813721
23
-43.565018
33
43.725594
0
3DFACE
8
0
70
0
10
16.296782
20
-67.276970
30
-46.198383
11
16.610764
21
-66.354584
31
32.613968
12
27.673773
22
-43.565018
32
43.725594
13
26.222542
23
-41.482666
33
-11.146882
0
3DFACE
8
0
70
0
10
87.524727
20
-65.911514
30
-28.851036
11
74.789932
21
-41.207092
31
-0.704425
12
74.813721
22
-43.565018
32
43.725594
13
83.794151
23
-66.460480
33
36.317848
0
3DFACE
8
0
70
0
10
87.524727
20
-65.911514
30
-28.851036
11
83.794151
21
-66.460480
31
36.317848
12
16.610764
22
-66.354584
32
32.613968
13
16.296782
23
-67.276970
33
-46.198383
0
3DFACE
8
0
70
0
10
27.673773
20
-35.181519
30
102.617195
11
33.987896
21
-14.735306
31
87.801697
12
33.987896
22
-24.473709
32
35.947453
13
27.673773
23
-43.565018
33
43.725594
0
3DFACE
8
0
70
0
10
33.987896
20
-14.735306
30
87.801697
11
66.977409
21
-14.550003
31
87.801697
12
66.977409
22
-28.071701
32
35.947453
13
33.987896
23
-24.473709
33
35.947453
0
3DFACE
8
0
70
0
10
74.813721
20
-35.181519
30
102.617195
11
74.813721
21
-43.565018
31
43.725594
12
66.977409
22
-28.071701
32
35.947453
13
66.977409
23
-14.550003
33
87.801697
0
3DFACE
8
0
70
0
10
12.906889
20
-68.581467
30
102.617195
11
27.673773
21
-35.181519
31
102.617195
12
27.673773
22
-43.565018
32
43.725594
13
16.610764
23
-66.354584
33
32.613968
0
3DFACE
8
0
70
0
10
80.090286
20
-68.766785
30
102.617195
11
83.794151
21
-66.460480
31
36.317848
12
74.813721
22
-43.565018
32
43.725594
13
74.813721
23
-35.181519
33
102.617195
0
3DFACE
8
0
70
0
10
80.090286
20
-68.766785
30
102.617195
11
12.906889
21
-68.581467
31
102.617195
12
16.610764
22
-66.354584
32
32.613968
13
83.794151
23
-66.460480
33
36.317848
0
3DFACE
8
0
70
0
10
128.763474
20
209.626709
30
204.810562
11
147.718018
21
219.091980
31
194.889175
12
128.899765
22
230.097870
32
195.435394
13
112.889679
23
215.747253
33
195.604782
0
3DFACE
8
0
70
0
10
81.435661
20
152.602356
30
-28.805628
11
53.513885
21
189.554413
31
-36.493587
12
59.344391
22
183.466614
32
2.174475
13
59.344391
23
183.466614
33
2.174475
0
3DFACE
8
0
70
0
10
79.804497
20
169.534119
30
48.192616
11
59.344391
21
183.466614
31
2.174475
12
53.420891
22
177.092712
32
59.291286
13
53.420891
23
177.092712
33
59.291286
0
3DFACE
8
0
70
0
10
139.849075
20
155.973114
30
48.611980
11
185.048050
21
146.126831
31
63.529057
12
176.059326
22
150.279236
32
98.349274
13
130.664764
23
162.553040
33
82.919563
0
3DFACE
8
0
70
0
10
168.932175
20
200.441895
30
48.665268
11
139.849075
21
155.973114
31
48.611980
12
130.664764
22
162.553040
32
82.919563
13
158.437119
23
208.436249
33
82.328163
0
3DFACE
8
0
70
0
10
197.398331
20
191.553864
30
96.763847
11
207.752625
21
185.482391
31
62.698978
12
168.932175
22
200.441895
32
48.665268
13
158.437119
23
208.436249
33
82.328163
0
3DFACE
8
0
70
0
10
185.048050
20
146.126831
30
63.529057
11
207.752625
21
185.482391
31
62.698978
12
197.398331
22
191.553864
32
96.763847
13
176.059326
23
150.279236
33
98.349274
0
3DFACE
8
0
70
0
10
180.250351
20
139.974365
30
101.496971
11
172.106339
21
143.053406
31
134.540115
12
111.392662
22
164.177856
32
112.068909
13
119.610153
23
158.103210
33
80.559654
0
3DFACE
8
0
70
0
10
119.610153
20
158.103210
30
80.559654
11
111.392662
21
164.177856
31
112.068909
12
145.900284
22
228.412994
32
109.138649
13
155.509567
23
220.705688
33
79.176613
0
3DFACE
8
0
70
0
10
198.064896
20
201.843567
30
130.049591
11
207.698486
21
196.384308
31
98.834106
12
155.509567
22
220.705688
32
79.176613
13
145.900284
23
228.412994
33
109.138649
0
3DFACE
8
0
70
0
10
180.250351
20
139.974365
30
101.496971
11
207.698486
21
196.384308
31
98.834106
12
198.064896
22
201.843567
32
130.049591
13
172.106339
23
143.053406
33
134.540115
0
3DFACE
8
0
70
0
10
180.250351
20
139.974365
30
101.496971
11
119.610153
21
158.103210
31
80.559654
12
130.664764
22
162.553040
32
82.919563
13
176.059326
23
150.279236
33
98.349274
0
3DFACE
8
0
70
0
10
172.106339
20
143.053406
30
134.540115
11
167.593689
21
154.190002
31
131.143173
12
122.243301
22
168.586365
32
114.377594
13
111.392662
23
164.177856
33
112.068909
0
3DFACE
8
0
70
0
10
119.610153
20
158.103210
30
80.559654
11
155.509567
21
220.705688
31
79.176613
12
158.437119
22
208.436249
32
82.328163
13
130.664764
23
162.553040
33
82.919563
0
3DFACE
8
0
70
0
10
111.392662
20
164.177856
30
112.068909
11
122.243301
21
168.586365
31
114.377594
12
149.044098
22
215.591156
32
112.456512
13
145.900284
23
228.412994
33
109.138649
0
3DFACE
8
0
70
0
10
198.064896
20
201.843567
30
130.049591
11
145.900284
21
228.412994
31
109.138649
12
149.044098
22
215.591156
32
112.456512
13
187.904083
23
197.120972
33
127.999321
0
3DFACE
8
0
70
0
10
207.698486
20
196.384308
30
98.834106
11
197.398331
21
191.553864
31
96.763847
12
158.437119
22
208.436249
32
82.328163
13
155.509567
23
220.705688
33
79.176613
0
3DFACE
8
0
70
0
10
172.106339
20
143.053406
30
134.540115
11
198.064896
21
201.843567
31
130.049591
12
187.904083
22
197.120972
32
127.999321
13
167.593689
23
154.190002
33
131.143173
0
3DFACE
8
0
70
0
10
180.250351
20
139.974365
30
101.496971
11
176.059326
21
150.279236
31
98.349274
12
197.398331
22
191.553864
32
96.763847
13
207.698486
23
196.384308
33
98.834106
0
3DFACE
8
0
70
0
10
162.851730
20
168.252747
30
118.088142
11
136.687347
21
180.727020
31
102.807274
12
122.243301
22
168.586365
32
114.377594
13
167.593689
23
154.190002
33
131.143173
0
3DFACE
8
0
70
0
10
136.687347
20
180.727020
30
102.807274
11
160.929428
21
206.283936
31
101.706223
12
149.044098
22
215.591156
32
112.456512
13
122.243301
23
168.586365
33
114.377594
0
3DFACE
8
0
70
0
10
182.402100
20
191.932800
30
115.797745
11
187.904083
21
197.120972
31
127.999321
12
149.044098
22
215.591156
32
112.456512
13
160.929428
23
206.283936
33
101.706223
0
3DFACE
8
0
70
0
10
162.851730
20
168.252747
30
118.088142
11
167.593689
21
154.190002
31
131.143173
12
187.904083
22
197.120972
32
127.999321
13
182.402100
23
191.932800
33
115.797745
0
3DFACE
8
0
70
0
10
99.352715
20
179.974213
30
144.292511
11
97.903404
21
189.773926
31
139.548462
12
102.228867
22
185.952209
32
127.945236
13
103.579201
23
176.120331
33
132.640335
0
3DFACE
8
0
70
0
10
97.903404
20
189.773926
30
139.548462
11
97.123817
21
200.120270
31
134.897079
12
101.326714
22
196.275543
32
123.277458
13
102.228867
23
185.952209
33
127.945236
0
3DFACE
8
0
70
0
10
183.530991
20
205.543518
30
148.656784
11
182.402100
21
191.932800
31
115.797745
12
160.929428
22
206.283936
32
101.706223
13
153.604813
23
217.803345
33
132.116394
0
3DFACE
8
0
70
0
10
154.434891
20
179.545258
30
148.287476
11
162.851730
21
168.252747
31
118.088142
12
182.402100
22
191.932800
32
115.797745
13
183.530991
23
205.543518
33
148.656784
0
3DFACE
8
0
70
0
10
128.763474
20
209.626709
30
204.810562
11
112.889679
21
215.747253
31
195.604782
12
119.625069
22
196.802063
32
144.647156
13
154.434891
23
179.545258
33
148.287476
0
3DFACE
8
0
70
0
10
112.889679
20
215.747253
30
195.604782
11
128.899765
21
230.097870
31
195.435394
12
153.604813
22
217.803345
32
132.116394
13
119.625069
23
196.802063
33
144.647156
0
3DFACE
8
0
70
0
10
147.718018
20
219.091980
30
194.889175
11
183.530991
21
205.543518
31
148.656784
12
153.604813
22
217.803345
32
132.116394
13
128.899765
23
230.097870
33
195.435394
0
3DFACE
8
0
70
0
10
128.763474
20
209.626709
30
204.810562
11
154.434891
21
179.545258
31
148.287476
12
183.530991
22
205.543518
32
148.656784
13
147.718018
23
219.091980
33
194.889175
0
3DFACE
8
0
70
0
10
99.352715
20
179.974213
30
144.292511
11
103.579201
21
176.120331
31
132.640335
12
162.851730
22
168.252747
32
118.088142
13
154.434891
23
179.545258
33
148.287476
0
3DFACE
8
0
70
0
10
103.579201
20
176.120331
30
132.640335
11
102.228867
21
185.952209
31
127.945236
12
136.687347
22
180.727020
32
102.807274
13
162.851730
23
168.252747
33
118.088142
0
3DFACE
8
0
70
0
10
99.352715
20
179.974213
30
144.292511
11
154.434891
21
179.545258
31
148.287476
12
119.625069
22
196.802063
32
144.647156
13
97.903404
23
189.773926
33
139.548462
0
3DFACE
8
0
70
0
10
102.228867
20
185.952209
30
127.945236
11
101.326714
21
196.275543
31
123.277458
12
160.929428
22
206.283936
32
101.706223
13
136.687347
23
180.727020
33
102.807274
0
3DFACE
8
0
70
0
10
97.123817
20
200.120270
30
134.897079
11
153.604813
21
217.803345
31
132.116394
12
160.929428
22
206.283936
32
101.706223
13
101.326714
23
196.275543
33
123.277458
0
3DFACE
8
0
70
0
10
97.903404
20
189.773926
30
139.548462
11
119.625069
21
196.802063
31
144.647156
12
153.604813
22
217.803345
32
132.116394
13
97.123817
23
200.120270
33
134.897079
0
3DFACE
8
0
70
0
10
-9.691628
20
38.083618
30
80.773193
11
-71.189873
21
21.385330
31
47.817570
12
-74.996834
22
-14.768738
32
15.817265
13
-38.135960
23
-17.030090
33
44.753120
0
3DFACE
8
0
70
0
10
-57.475597
20
16.507324
30
-73.405617
11
9.678484
21
31.193893
31
-90.443115
12
-16.612764
22
23.552826
32
-66.869270
13
-61.006756
23
11.610153
33
-56.737286
0
3DFACE
8
0
70
0
10
-10.674455
20
32.199554
30
101.509605
11
-92.188194
21
9.987549
31
60.100510
12
-71.189873
22
21.385330
32
47.817570
13
-9.691628
23
38.083618
33
80.773193
0
3DFACE
8
0
70
0
10
-74.832352
20
3.814285
30
-93.311241
11
13.450163
21
23.618713
31
-111.732727
12
9.678484
22
31.193893
32
-90.443115
13
-57.475597
23
16.507324
33
-73.405617
0
3DFACE
8
0
70
0
10
-12.783604
20
36.191238
30
113.887306
11
-23.853251
21
89.690338
31
115.936089
12
-123.855392
22
61.399765
32
67.997314
13
-98.987305
23
12.462250
33
67.888977
0
3DFACE
8
0
70
0
10
-79.375206
20
5.486450
30
-105.466293
11
-104.243294
21
54.423981
31
-105.357956
12
3.394209
22
79.999512
32
-125.028542
13
14.477215
23
26.494904
33
-127.076523
0
3DFACE
8
0
70
0
10
-23.853251
20
89.690338
30
115.936089
11
-22.706766
21
90.351151
31
103.736557
12
-117.240120
22
63.736542
32
60.490334
13
-123.855392
23
61.399765
33
67.997314
0
3DFACE
8
0
70
0
10
-12.783604
20
36.191238
30
113.887306
11
-98.987305
21
12.462250
31
67.888977
12
-92.188194
22
9.987549
32
60.100510
13
-10.674455
23
32.199554
33
101.509605
0
3DFACE
8
0
70
0
10
-104.243294
20
54.423981
30
-105.357956
11
-99.884277
21
57.563278
31
-92.921417
12
0.914517
22
82.009537
32
-109.513115
13
3.394209
23
79.999512
33
-125.028542
0
3DFACE
8
0
70
0
10
-79.375206
20
5.486450
30
-105.466293
11
14.477215
21
26.494904
31
-127.076523
12
13.450163
22
23.618713
32
-111.732727
13
-74.832352
23
3.814285
33
-93.311241
0
3DFACE
8
0
70
0
10
-31.473774
20
-119.444244
30
102.617195
11
-37.787899
21
-98.998032
31
87.801697
12
-70.777412
22
-98.812729
32
87.801697
13
-78.613716
23
-119.444244
33
102.617195
0
3DFACE
8
0
70
0
10
-71.189873
20
21.385330
30
47.817570
11
-79.855873
21
15.018936
31
-13.559619
12
-77.870377
22
-6.852585
32
-23.012213
13
-74.996834
23
-14.768738
33
15.817265
0
3DFACE
8
0
70
0
10
-92.188194
20
9.987549
30
60.100510
11
-104.278389
21
1.667252
31
-17.327019
12
-79.855873
22
15.018936
32
-13.559619
13
-71.189873
23
21.385330
33
47.817570
0
3DFACE
8
0
70
0
10
-123.855392
20
61.399765
30
67.997314
11
-139.557098
21
51.563354
31
-18.405140
12
-111.416359
22
3.473267
32
-18.068047
13
-98.987305
23
12.462250
33
67.888977
0
3DFACE
8
0
70
0
10
-139.557098
20
51.563354
30
-18.405140
11
-123.855392
21
61.399765
31
67.997314
12
-117.240120
22
63.736542
32
60.490334
13
-132.410339
23
54.618683
33
-17.356415
0
3DFACE
8
0
70
0
10
-98.987305
20
12.462250
30
67.888977
11
-111.416359
21
3.473267
31
-18.068047
12
-104.278389
22
1.667252
32
-17.327019
13
-92.188194
23
9.987549
33
60.100510
0
3DFACE
8
0
70
0
10
-16.706890
20
-152.844193
30
102.617195
11
-31.473774
21
-119.444244
31
102.617195
12
-78.613716
22
-119.444244
32
102.617195
13
-83.890282
23
-153.029510
33
102.617195
0
3DFACE
8
0
70
0
10
-1.483061
20
206.737457
30
5.078217
11
-1.513945
21
181.548401
31
-46.094997
12
-56.303123
22
189.554413
32
-36.493587
13
-62.333660
23
183.775696
33
2.066022
0
3DFACE
8
0
70
0
10
-79.855873
20
15.018936
30
-13.559619
11
-57.475597
21
16.507324
31
-73.405617
12
-61.006756
22
11.610153
32
-56.737286
13
-77.870377
23
-6.852585
33
-23.012213
0
3DFACE
8
0
70
0
10
-104.278389
20
1.667252
30
-17.327019
11
-74.832352
21
3.814285
31
-93.311241
12
-57.475597
22
16.507324
32
-73.405617
13
-79.855873
23
15.018936
33
-13.559619
0
3DFACE
8
0
70
0
10
-111.416359
20
3.473267
30
-18.068047
11
-139.557098
21
51.563354
31
-18.405140
12
-104.243294
22
54.423981
32
-105.357956
13
-79.375206
23
5.486450
33
-105.466293
0
3DFACE
8
0
70
0
10
-104.243294
20
54.423981
30
-105.357956
11
-139.557098
21
51.563354
31
-18.405140
12
-132.410339
22
54.618683
32
-17.356415
13
-99.884277
23
57.563278
33
-92.921417
0
3DFACE
8
0
70
0
10
-111.416359
20
3.473267
30
-18.068047
11
-79.375206
21
5.486450
31
-105.466293
12
-74.832352
22
3.814285
32
-93.311241
13
-104.278389
23
1.667252
33
-17.327019
0
3DFACE
8
0
70
0
10
-30.708914
20
-25.395950
30
3.595190
11
-18.022169
21
-13.097748
31
-16.890800
12
-19.342796
22
0.120834
32
-9.467852
13
-38.135960
23
-17.030090
33
44.753120
0
3DFACE
8
0
70
0
10
-30.708914
20
-25.395950
30
3.595190
11
-38.135960
21
-17.030090
31
44.753120
12
-74.996834
22
-14.768738
32
15.817265
13
-69.535324
23
-24.144981
33
-15.141708
0
3DFACE
8
0
70
0
10
-69.535324
20
-24.144981
30
-15.141708
11
-74.996834
21
-14.768738
31
15.817265
12
-77.870377
22
-6.852585
32
-23.012213
13
-76.551903
23
-17.344360
33
-32.294876
0
3DFACE
8
0
70
0
10
-18.022169
20
-13.097748
30
-16.890800
11
-20.408838
21
-1.402847
31
-42.370651
12
-16.612764
22
23.552826
32
-66.869270
13
-19.342796
23
0.120834
33
-9.467852
0
3DFACE
8
0
70
0
10
-76.551903
20
-17.344360
30
-32.294876
11
-77.870377
21
-6.852585
31
-23.012213
12
-61.006756
22
11.610153
32
-56.737286
13
-62.840275
23
-8.549469
33
-45.019501
0
3DFACE
8
0
70
0
10
-62.840275
20
-8.549469
30
-45.019501
11
-61.006756
21
11.610153
31
-56.737286
12
-16.612764
22
23.552826
32
-66.869270
13
-20.408838
23
-1.402847
33
-42.370651
0
3DFACE
8
0
70
0
10
-30.562082
20
-99.095322
30
-7.722254
11
-35.209187
21
-62.539169
31
3.626524
12
-37.787899
22
-108.736435
32
35.947453
13
-31.473774
23
-127.827744
33
43.725594
0
3DFACE
8
0
70
0
10
-35.209187
20
-62.539169
30
3.626524
11
-68.448898
21
-68.961227
31
-9.676261
12
-70.777412
22
-112.334427
32
35.947453
13
-37.787899
23
-108.736435
33
35.947453
0
3DFACE
8
0
70
0
10
-78.762878
20
-94.210762
30
-18.071884
11
-78.613716
21
-127.827744
31
43.725594
12
-70.777412
22
-112.334427
32
35.947453
13
-68.448898
23
-68.961227
33
-9.676261
0
3DFACE
8
0
70
0
10
-16.806437
20
-138.809662
30
-17.922411
11
-30.562082
21
-99.095322
31
-7.722254
12
-31.473774
22
-127.827744
32
43.725594
13
-20.410763
23
-150.617310
33
32.613968
0
3DFACE
8
0
70
0
10
-87.869942
20
-129.704941
30
-32.021236
11
-87.594154
21
-150.723206
31
36.317848
12
-78.613716
22
-127.827744
32
43.725594
13
-78.762878
23
-94.210762
33
-18.071884
0
3DFACE
8
0
70
0
10
-87.869942
20
-129.704941
30
-32.021236
11
-16.806437
21
-138.809662
31
-17.922411
12
-20.410763
22
-150.617310
32
32.613968
13
-87.594154
23
-150.723206
33
36.317848
0
3DFACE
8
0
70
0
10
-31.473774
20
-119.444244
30
102.617195
11
-31.473774
21
-127.827744
31
43.725594
12
-37.787899
22
-108.736435
32
35.947453
13
-37.787899
23
-98.998032
33
87.801697
0
3DFACE
8
0
70
0
10
-37.787899
20
-98.998032
30
87.801697
11
-37.787899
21
-108.736435
31
35.947453
12
-70.777412
22
-112.334427
32
35.947453
13
-70.777412
23
-98.812729
33
87.801697
0
3DFACE
8
0
70
0
10
-78.613716
20
-119.444244
30
102.617195
11
-70.777412
21
-98.812729
31
87.801697
12
-70.777412
22
-112.334427
32
35.947453
13
-78.613716
23
-127.827744
33
43.725594
0
3DFACE
8
0
70
0
10
-16.706890
20
-152.844193
30
102.617195
11
-20.410763
21
-150.617310
31
32.613968
12
-31.473774
22
-127.827744
32
43.725594
13
-31.473774
23
-119.444244
33
102.617195
0
3DFACE
8
0
70
0
10
-83.890282
20
-153.029510
30
102.617195
11
-78.613716
21
-119.444244
31
102.617195
12
-78.613716
22
-127.827744
32
43.725594
13
-87.594154
23
-150.723206
33
36.317848
0
3DFACE
8
0
70
0
10
-83.890282
20
-153.029510
30
102.617195
11
-87.594154
21
-150.723206
31
36.317848
12
-20.410763
22
-150.617310
32
32.613968
13
-16.706890
23
-152.844193
33
102.617195
0
3DFACE
8
0
70
0
10
-261.632446
20
211.305481
30
208.327393
11
-247.722000
21
224.726868
31
207.585220
12
-265.861694
22
230.706543
32
197.711716
13
-275.032104
23
212.839935
33
189.212097
0
3DFACE
8
0
70
0
10
-84.773933
20
154.317810
30
-29.935310
11
-62.333660
21
183.775696
31
2.066022
12
-56.303123
22
189.554413
32
-36.493587
13
-56.303123
23
189.554413
33
-36.493587
0
3DFACE
8
0
70
0
10
-82.019073
20
171.486694
30
48.272957
11
-56.128910
21
177.092712
31
59.291286
12
-62.333660
22
183.775696
32
2.066022
13
-62.333660
23
183.775696
33
2.066022
0
3DFACE
8
0
70
0
10
-167.971680
20
161.250916
30
70.412880
11
-179.964645
21
168.950684
31
103.602348
12
-223.701111
22
148.059265
32
93.599403
13
-211.677704
23
142.787292
33
59.863209
0
3DFACE
8
0
70
0
10
-199.473999
20
199.385803
30
51.005703
11
-210.274597
21
208.732361
31
84.220688
12
-179.964645
22
168.950684
32
103.602348
13
-167.971680
23
161.250916
33
70.412880
0
3DFACE
8
0
70
0
10
-247.390411
20
184.552246
30
77.212135
11
-210.274597
21
208.732361
31
84.220688
12
-199.473999
22
199.385803
32
51.005703
13
-236.579559
23
177.126038
33
43.559994
0
3DFACE
8
0
70
0
10
-211.677704
20
142.787292
30
59.863209
11
-223.701111
21
148.059265
31
93.599403
12
-247.390411
22
184.552246
32
77.212135
13
-236.579559
23
177.126038
33
43.559994
0
3DFACE
8
0
70
0
10
-227.128891
20
137.101257
30
94.953995
11
-168.818924
21
166.714996
31
107.885948
12
-180.018707
22
173.776245
32
138.249832
13
-238.712952
23
141.185272
33
126.841064
0
3DFACE
8
0
70
0
10
-168.818924
20
166.714996
30
107.885948
11
-208.217560
21
221.379333
31
82.014832
12
-217.708649
22
230.330200
32
111.667229
13
-180.018707
23
173.776245
33
138.249832
0
3DFACE
8
0
70
0
10
-267.589935
20
194.039246
30
103.974754
11
-217.708649
21
230.330200
31
111.667229
12
-208.217560
22
221.379333
32
82.014832
13
-257.820953
23
187.309082
33
73.050873
0
3DFACE
8
0
70
0
10
-227.128891
20
137.101257
30
94.953995
11
-238.712952
21
141.185272
31
126.841064
12
-267.589935
22
194.039246
32
103.974754
13
-257.820953
23
187.309082
33
73.050873
0
3DFACE
8
0
70
0
10
-227.128891
20
137.101257
30
94.953995
11
-223.701111
21
148.059265
31
93.599403
12
-179.964645
22
168.950684
32
103.602348
13
-168.818924
23
166.714996
33
107.885948
0
3DFACE
8
0
70
0
10
-238.712952
20
141.185272
30
126.841064
11
-180.018707
21
173.776245
31
138.249832
12
-190.961472
22
176.010864
32
134.035110
13
-235.024857
23
153.024475
33
125.372353
0
3DFACE
8
0
70
0
10
-168.818924
20
166.714996
30
107.885948
11
-179.964645
21
168.950684
31
103.602348
12
-210.274597
22
208.732361
32
84.220688
13
-208.217560
23
221.379333
33
82.014832
0
3DFACE
8
0
70
0
10
-180.018707
20
173.776245
30
138.249832
11
-217.708649
21
230.330200
31
111.667229
12
-219.941193
22
217.097504
32
113.948120
13
-190.961472
23
176.010864
33
134.035110
0
3DFACE
8
0
70
0
10
-267.589935
20
194.039246
30
103.974754
11
-257.303314
21
191.361633
31
108.069145
12
-219.941193
22
217.097504
32
113.948120
13
-217.708649
23
230.330200
33
111.667229
0
3DFACE
8
0
70
0
10
-257.820953
20
187.309082
30
73.050873
11
-208.217560
21
221.379333
31
82.014832
12
-210.274597
22
208.732361
32
84.220688
13
-247.390411
23
184.552246
33
77.212135
0
3DFACE
8
0
70
0
10
-238.712952
20
141.185272
30
126.841064
11
-235.024857
21
153.024475
31
125.372353
12
-257.303314
22
191.361633
32
108.069145
13
-267.589935
23
194.039246
33
103.974754
0
3DFACE
8
0
70
0
10
-227.128891
20
137.101257
30
94.953995
11
-257.820953
21
187.309082
31
73.050873
12
-247.390411
22
184.552246
32
77.212135
13
-223.701111
23
148.059265
33
93.599403
0
3DFACE
8
0
70
0
10
-227.694229
20
167.745789
30
118.862366
11
-235.024857
21
153.024475
31
125.372353
12
-190.961472
22
176.010864
32
134.035110
13
-203.332642
23
188.517365
33
119.704018
0
3DFACE
8
0
70
0
10
-203.332642
20
188.517365
30
119.704018
11
-190.961472
21
176.010864
31
134.035110
12
-219.941193
22
217.097504
32
113.948120
13
-229.057663
23
205.523254
33
104.447502
0
3DFACE
8
0
70
0
10
-248.625458
20
184.475189
30
105.244644
11
-229.057663
21
205.523254
31
104.447502
12
-219.941193
22
217.097504
32
113.948120
13
-257.303314
23
191.361633
33
108.069145
0
3DFACE
8
0
70
0
10
-227.694229
20
167.745789
30
118.862366
11
-248.625458
21
184.475189
31
105.244644
12
-257.303314
22
191.361633
32
108.069145
13
-235.024857
23
153.024475
33
125.372353
0
3DFACE
8
0
70
0
10
-196.592499
20
204.805115
30
174.648819
11
-192.314606
21
200.963806
31
163.011230
12
-193.183731
22
210.913635
32
158.452850
13
-197.348877
23
214.774658
33
170.101654
0
3DFACE
8
0
70
0
10
-197.348877
20
214.774658
30
170.101654
11
-193.183731
21
210.913635
31
158.452850
12
-194.615204
22
221.107208
32
153.634674
13
-198.890717
23
224.934143
33
165.233688
0
3DFACE
8
0
70
0
10
-273.149323
20
190.974365
30
133.338013
11
-247.640350
21
216.822693
31
132.550278
12
-229.057663
22
205.523254
32
104.447502
13
-248.625458
23
184.475189
33
105.244644
0
3DFACE
8
0
70
0
10
-239.880844
20
180.263184
30
150.690445
11
-273.149323
21
190.974365
31
133.338013
12
-248.625458
22
184.475189
32
105.244644
13
-227.694229
23
167.745789
33
118.862366
0
3DFACE
8
0
70
0
10
-261.632446
20
211.305481
30
208.327393
11
-239.880844
21
180.263184
31
150.690445
12
-219.267685
22
211.105469
32
162.799286
13
-247.722000
23
224.726868
33
207.585220
0
3DFACE
8
0
70
0
10
-247.722000
20
224.726868
30
207.585220
11
-219.267685
21
211.105469
31
162.799286
12
-247.640350
22
216.822693
32
132.550278
13
-265.861694
23
230.706543
33
197.711716
0
3DFACE
8
0
70
0
10
-275.032104
20
212.839935
30
189.212097
11
-265.861694
21
230.706543
31
197.711716
12
-247.640350
22
216.822693
32
132.550278
13
-273.149323
23
190.974365
33
133.338013
0
3DFACE
8
0
70
0
10
-261.632446
20
211.305481
30
208.327393
11
-275.032104
21
212.839935
31
189.212097
12
-273.149323
22
190.974365
32
133.338013
13
-239.880844
23
180.263184
33
150.690445
0
3DFACE
8
0
70
0
10
-196.592499
20
204.805115
30
174.648819
11
-239.880844
21
180.263184
31
150.690445
12
-227.694229
22
167.745789
32
118.862366
13
-192.314606
23
200.963806
33
163.011230
0
3DFACE
8
0
70
0
10
-192.314606
20
200.963806
30
163.011230
11
-227.694229
21
167.745789
31
118.862366
12
-203.332642
22
188.517365
32
119.704018
13
-193.183731
23
210.913635
33
158.452850
0
3DFACE
8
0
70
0
10
-196.592499
20
204.805115
30
174.648819
11
-197.348877
21
214.774658
31
170.101654
12
-219.267685
22
211.105469
32
162.799286
13
-239.880844
23
180.263184
33
150.690445
0
3DFACE
8
0
70
0
10
-193.183731
20
210.913635
30
158.452850
11
-203.332642
21
188.517365
31
119.704018
12
-229.057663
22
205.523254
32
104.447502
13
-194.615204
23
221.107208
33
153.634674
0
3DFACE
8
0
70
0
10
-198.890717
20
224.934143
30
165.233688
11
-194.615204
21
221.107208
31
153.634674
12
-229.057663
22
205.523254
32
104.447502
13
-247.640350
23
216.822693
33
132.550278
0
3DFACE
8
0
70
0
10
-197.348877
20
214.774658
30
170.101654
11
-198.890717
21
224.934143
31
165.233688
12
-247.640350
22
216.822693
32
132.550278
13
-219.267685
23
211.105469
33
162.799286
0
3DFACE
8
0
70
0
10
20.481424
20
30.386734
30
-3.429808
11
14.180204
21
46.361588
31
58.217133
12
-9.691628
22
38.083618
32
80.773193
13
-0.196817
23
34.706421
33
-3.153349
0
3DFACE
8
0
70
0
10
20.481424
20
30.386734
30
-3.429808
11
-0.196817
21
34.706421
31
-3.153349
12
9.678484
22
31.193893
32
-90.443115
13
42.356243
23
23.049622
33
-64.476883
0
3DFACE
8
0
70
0
10
9.678484
20
31.193893
30
-90.443115
11
-0.196817
21
34.706421
31
-3.153349
12
-19.342796
22
0.120834
32
-9.467852
13
-16.612764
23
23.552826
33
-66.869270
0
3DFACE
8
0
70
0
10
-0.196817
20
34.706421
30
-3.153349
11
-9.691628
21
38.083618
31
80.773193
12
-38.135960
22
-17.030090
32
44.753120
13
-19.342796
23
0.120834
33
-9.467852
0
3DFACE
8
0
70
0
10
-1.023499
20
245.208679
30
122.611298
11
9.251375
21
245.730164
31
117.381271
12
18.675701
22
263.478149
32
122.216965
13
-1.023499
23
263.659821
33
128.666168
0
3DFACE
8
0
70
0
10
-1.023499
20
263.659821
30
128.666168
11
18.675701
21
263.478149
31
122.216965
12
11.599373
22
272.042480
32
121.019630
13
-1.023499
23
275.476746
33
124.536148
0
3DFACE
8
0
70
0
10
9.251375
20
245.730164
30
117.381271
11
10.184579
21
242.411438
31
104.511536
12
21.676575
22
260.998474
32
104.760262
13
18.675701
23
263.478149
33
122.216965
0
3DFACE
8
0
70
0
10
-1.023499
20
245.208679
30
122.611298
11
-1.281882
21
239.624084
31
110.431030
12
10.184579
22
242.411438
32
104.511536
13
9.251375
23
245.730164
33
117.381271
0
3DFACE
8
0
70
0
10
-1.023499
20
275.476746
30
124.536148
11
11.599373
21
272.042480
31
121.019630
12
13.518797
22
272.919525
32
104.835991
13
-1.281882
23
276.863098
33
110.144325
0
3DFACE
8
0
70
0
10
18.675701
20
263.478149
30
122.216965
11
21.676575
21
260.998474
31
104.760262
12
13.518797
22
272.919525
32
104.835991
13
11.599373
23
272.042480
33
121.019630
0
3DFACE
8
0
70
0
10
2.756311
20
286.347046
30
106.276031
11
2.756311
21
276.842438
31
107.318275
12
13.785778
22
274.494171
32
102.009949
13
15.102792
23
293.904510
33
104.268639
0
3DFACE
8
0
70
0
10
13.785778
20
274.494171
30
102.009949
11
23.348103
21
275.490204
31
95.723228
12
27.022137
22
286.350464
32
92.150620
13
15.102792
23
293.904510
33
104.268639
0
3DFACE
8
0
70
0
10
11.709105
20
224.371124
30
123.670204
11
7.748154
21
243.348877
31
112.725739
12
-1.281882
22
241.934875
32
115.474304
13
-1.281882
23
224.167664
33
124.353912
0
3DFACE
8
0
70
0
10
49.634132
20
241.208618
30
78.126740
11
48.028389
21
252.138489
31
77.948036
12
24.811714
22
245.031799
32
98.608398
13
31.919722
23
222.205841
33
104.917747
0
3DFACE
8
0
70
0
10
7.748154
20
243.348877
30
112.725739
11
11.709105
21
224.371124
31
123.670204
12
29.922726
22
226.562439
32
115.002640
13
22.445524
23
243.611145
33
112.608627
0
3DFACE
8
0
70
0
10
44.493294
20
286.103760
30
78.280388
11
56.658840
21
297.351044
31
77.058617
12
31.573666
22
308.204590
32
93.486237
13
31.280952
23
291.432129
33
94.547478
0
3DFACE
8
0
70
0
10
-1.281881
20
311.822571
30
108.392120
11
-1.281882
21
292.345398
31
108.519997
12
14.595920
22
299.658417
32
106.045509
13
16.164616
23
318.123474
33
102.546585
0
3DFACE
8
0
70
0
10
16.164616
20
318.123474
30
102.546585
11
14.595920
21
299.658417
31
106.045509
12
31.280952
22
291.432129
32
94.547478
13
31.573666
23
308.204590
33
93.486237
0
3DFACE
8
0
70
0
10
-1.281882
20
197.575104
30
122.178642
11
15.893024
21
205.920593
31
115.812431
12
12.710732
22
215.072083
32
113.764580
13
-1.281882
23
212.105286
33
119.235947
0
3DFACE
8
0
70
0
10
-1.281882
20
154.418884
30
101.101158
11
19.078152
21
166.936035
31
97.859222
12
15.893024
22
205.920593
32
115.812431
13
-1.281882
23
197.575104
33
122.178642
0
3DFACE
8
0
70
0
10
49.634132
20
241.208618
30
78.126740
11
31.919722
21
222.205841
31
104.917747
12
31.236551
22
218.984100
32
95.906563
13
53.357361
23
229.950531
33
81.297020
0
3DFACE
8
0
70
0
10
31.236551
20
218.984100
30
95.906563
11
42.609936
21
192.937592
31
66.107307
12
52.688004
22
222.585052
32
50.112881
13
53.357361
23
229.950531
33
81.297020
0
3DFACE
8
0
70
0
10
19.078152
20
166.936035
30
97.859222
11
42.609936
21
192.937592
31
66.107307
12
31.236551
22
218.984100
32
95.906563
13
15.893024
23
205.920593
33
115.812431
0
3DFACE
8
0
70
0
10
15.893024
20
205.920593
30
115.812431
11
31.236551
21
218.984100
31
95.906563
12
31.919722
22
222.205841
32
104.917747
13
12.710732
23
215.072083
33
113.764580
0
3DFACE
8
0
70
0
10
-1.281882
20
224.167664
30
124.353912
11
-1.281882
21
212.105286
31
119.235947
12
12.710732
22
215.072083
32
113.764580
13
11.709105
23
224.371124
33
123.670204
0
3DFACE
8
0
70
0
10
-1.281882
20
241.934875
30
115.474304
11
7.748154
21
243.348877
31
112.725739
12
10.184579
22
242.411438
32
104.511536
13
-1.281882
23
239.624084
33
110.431030
0
3DFACE
8
0
70
0
10
22.445524
20
243.611145
30
112.608627
11
24.811714
21
245.031799
31
98.608398
12
10.184579
22
242.411438
32
104.511536
13
7.748154
23
243.348877
33
112.725739
0
POINT
8
0
70
0
10
51.125126
20
225.267151
30
96.495125
0
3DFACE
8
0
70
0
10
11.709105
20
224.371124
30
123.670204
11
12.710732
21
215.072083
31
113.764580
12
31.919722
22
222.205841
32
104.917747
13
29.922726
23
226.562439
33
115.002640
0
3DFACE
8
0
70
0
10
29.922726
20
226.562439
30
115.002640
11
51.125126
21
225.267151
31
96.495125
12
22.445524
22
243.611145
32
112.608627
13
22.445524
23
243.611145
33
112.608627
0
3DFACE
8
0
70
0
10
22.445524
20
243.611145
30
112.608627
11
51.125126
21
225.267151
31
96.495125
12
24.811714
22
245.031799
32
98.608398
13
24.811714
23
245.031799
33
98.608398
0
3DFACE
8
0
70
0
10
51.125126
20
225.267151
30
96.495125
11
31.919722
21
222.205841
31
104.917747
12
24.811714
22
245.031799
32
98.608398
13
24.811714
23
245.031799
33
98.608398
0
3DFACE
8
0
70
0
10
31.919722
20
222.205841
30
104.917747
11
51.125126
21
225.267151
31
96.495125
12
29.922726
22
226.562439
32
115.002640
13
29.922726
23
226.562439
33
115.002640
0
3DFACE
8
0
70
0
10
56.658840
20
297.351044
30
77.058617
11
44.493294
21
286.103760
31
78.280388
12
57.926716
22
281.206665
32
41.856926
13
61.232254
23
282.106842
33
42.410336
0
3DFACE
8
0
70
0
10
44.493294
20
286.103760
30
78.280388
11
42.520538
21
274.761047
31
78.655991
12
59.431118
22
273.944916
32
42.462151
13
57.926716
23
281.206665
33
41.856926
0
3DFACE
8
0
70
0
10
42.520538
20
274.761047
30
78.655991
11
44.962315
21
261.661896
31
78.504814
12
59.452904
22
260.750977
32
44.641083
13
59.431118
23
273.944916
33
42.462151
0
3DFACE
8
0
70
0
10
61.232254
20
282.106842
30
42.410336
11
57.926716
21
281.206665
31
41.856926
12
41.136509
22
277.676788
32
15.897063
13
43.722637
23
271.022644
33
18.565659
0
3DFACE
8
0
70
0
10
59.431118
20
273.944916
30
42.462151
11
43.448864
21
277.624298
31
12.672510
12
41.136509
22
277.676788
32
15.897063
13
57.926716
23
281.206665
33
41.856926
0
3DFACE
8
0
70
0
10
59.452904
20
260.750977
30
44.641083
11
40.704090
21
265.927216
31
11.188781
12
43.448864
22
277.624298
32
12.672510
13
59.431118
23
273.944916
33
42.462151
0
3DFACE
8
0
70
0
10
43.722637
20
271.022644
30
18.565659
11
41.136509
21
277.676788
31
15.897063
12
-1.281882
22
276.633362
32
-1.092671
13
-1.281883
23
264.331177
33
-0.037681
0
3DFACE
8
0
70
0
10
43.448864
20
277.624298
30
12.672510
11
-1.281882
21
277.550110
31
-2.405132
12
-1.281882
22
276.633362
32
-1.092671
13
41.136509
23
277.676788
33
15.897063
0
3DFACE
8
0
70
0
10
40.704090
20
265.927216
30
11.188781
11
-1.281882
21
263.673889
31
-0.945824
12
-1.281882
22
277.550110
32
-2.405132
13
43.448864
23
277.624298
33
12.672510
0
3DFACE
8
0
70
0
10
52.688004
20
222.585052
30
50.112881
11
59.016552
21
239.196716
31
46.003769
12
49.634132
22
241.208618
32
78.126740
13
53.357361
23
229.950531
33
81.297020
0
3DFACE
8
0
70
0
10
44.962315
20
261.661896
30
78.504814
11
48.028389
21
252.138489
31
77.948036
12
59.452904
22
260.750977
32
44.641083
13
59.452904
23
260.750977
33
44.641083
0
3DFACE
8
0
70
0
10
49.634132
20
241.208618
30
78.126740
11
59.016552
21
239.196716
31
46.003769
12
59.452904
22
260.750977
32
44.641083
13
48.028389
23
252.138489
33
77.948036
0
3DFACE
8
0
70
0
10
59.016552
20
239.196716
30
46.003769
11
39.911373
21
247.939545
31
14.099627
12
40.704090
22
265.927216
32
11.188781
13
59.452904
23
260.750977
33
44.641083
0
3DFACE
8
0
70
0
10
39.911373
20
247.939545
30
14.099627
11
-1.281882
21
246.313843
31
3.485335
12
-1.281882
22
263.673889
32
-0.945824
13
40.704090
23
265.927216
33
11.188781
0
3DFACE
8
0
70
0
10
-1.281881
20
311.822571
30
108.392120
11
16.164616
21
318.123474
31
102.546585
12
18.117716
22
338.521515
32
93.069794
13
-1.281880
23
339.270111
33
99.185242
0
3DFACE
8
0
70
0
10
-1.281880
20
339.270111
30
99.185242
11
18.117716
21
338.521515
31
93.069794
12
18.506380
22
339.529510
32
87.764854
13
-1.281880
23
341.642090
33
94.893471
0
3DFACE
8
0
70
0
10
16.164616
20
318.123474
30
102.546585
11
31.573666
21
308.204590
31
93.486237
12
44.609047
22
333.344238
32
80.797142
13
18.117716
23
338.521515
33
93.069794
0
3DFACE
8
0
70
0
10
18.117716
20
338.521515
30
93.069794
11
44.609047
21
333.344238
31
80.797142
12
43.366695
22
334.832275
32
75.675545
13
18.506380
23
339.529510
33
87.764854
0
3DFACE
8
0
70
0
10
31.573666
20
308.204590
30
93.486237
11
56.658840
21
297.351044
31
77.058617
12
60.705898
22
318.117218
32
52.999805
13
44.609047
23
333.344238
33
80.797142
0
3DFACE
8
0
70
0
10
44.609047
20
333.344238
30
80.797142
11
60.705898
21
318.117218
31
52.999805
12
52.407223
22
321.713837
32
50.653328
13
43.366695
23
334.832275
33
75.675545
0
3DFACE
8
0
70
0
10
56.658840
20
297.351044
30
77.058617
11
61.232254
21
282.106842
31
42.410336
12
65.231590
22
309.943756
32
28.444378
13
60.705898
23
318.117218
33
52.999805
0
3DFACE
8
0
70
0
10
60.705898
20
318.117218
30
52.999805
11
65.231590
21
309.943756
31
28.444378
12
58.677162
22
312.958679
32
29.162148
13
52.407223
23
321.713837
33
50.653328
0
3DFACE
8
0
70
0
10
61.232254
20
282.106842
30
42.410336
11
43.722637
21
271.022644
31
18.565659
12
44.617962
22
296.910156
32
8.241911
13
65.231590
23
309.943756
33
28.444378
0
3DFACE
8
0
70
0
10
65.231590
20
309.943756
30
28.444378
11
44.617962
21
296.910156
31
8.241911
12
39.089241
22
302.057983
32
10.501063
13
58.677162
23
312.958679
33
29.162148
0
3DFACE
8
0
70
0
10
43.722637
20
271.022644
30
18.565659
11
-1.281883
21
264.331177
31
-0.037681
12
-1.281881
22
288.155212
32
-9.937516
13
44.617962
23
296.910156
33
8.241911
0
3DFACE
8
0
70
0
10
44.617962
20
296.910156
30
8.241911
11
-1.281881
21
288.155212
31
-9.937516
12
-1.281881
22
293.053375
32
-6.806734
13
39.089241
23
302.057983
33
10.501063
0
3DFACE
8
0
70
0
10
52.688004
20
222.585052
30
50.112881
11
36.319489
21
207.235474
31
31.855993
12
39.911373
22
247.939545
32
14.099627
13
59.016552
23
239.196716
33
46.003769
0
3DFACE
8
0
70
0
10
36.319489
20
207.235474
30
31.855993
11
-1.524852
21
204.629333
31
8.887280
12
-1.281882
22
246.313843
32
3.485335
13
39.911373
23
247.939545
33
14.099627
0
3DFACE
8
0
70
0
10
42.609936
20
192.937592
30
66.107307
11
29.850237
21
202.874603
31
60.032959
12
36.319489
22
207.235474
32
31.855993
13
52.688004
23
222.585052
33
50.112881
0
3DFACE
8
0
70
0
10
19.078152
20
166.936035
30
97.859222
11
16.659206
21
167.628357
31
81.952538
12
29.850237
22
202.874603
32
60.032959
13
42.609936
23
192.937592
33
66.107307
0
3DFACE
8
0
70
0
10
16.659206
20
167.628357
30
81.952538
11
-1.281882
21
165.994202
31
77.656464
12
-1.281882
22
188.030884
32
56.009388
13
29.850237
23
202.874603
33
60.032959
0
3DFACE
8
0
70
0
10
-1.281882
20
154.418884
30
101.101158
11
-1.281882
21
165.994202
31
77.656464
12
16.659206
22
167.628357
32
81.952538
13
16.659206
23
167.628357
33
81.952538
0
3DFACE
8
0
70
0
10
-1.281882
20
154.418884
30
101.101158
11
16.659206
21
167.628357
31
81.952538
12
19.078152
22
166.936035
32
97.859222
13
19.078152
23
166.936035
33
97.859222
0
3DFACE
8
0
70
0
10
-1.023499
20
245.208679
30
122.611298
11
-1.023499
21
263.659821
31
128.666168
12
-20.722702
22
263.478149
32
122.216965
13
-11.298374
23
245.730164
33
117.381271
0
3DFACE
8
0
70
0
10
-1.023499
20
263.659821
30
128.666168
11
-1.023499
21
275.476746
31
124.536148
12
-13.646374
22
272.042480
32
121.019630
13
-20.722702
23
263.478149
33
122.216965
0
3DFACE
8
0
70
0
10
-11.298374
20
245.730164
30
117.381271
11
-20.722702
21
263.478149
31
122.216965
12
-24.240337
22
260.998474
32
104.760262
13
-12.748343
23
242.411438
33
104.511536
0
3DFACE
8
0
70
0
10
-1.023499
20
245.208679
30
122.611298
11
-11.298374
21
245.730164
31
117.381271
12
-12.748343
22
242.411438
32
104.511536
13
-1.281882
23
239.624084
33
110.431030
0
3DFACE
8
0
70
0
10
-1.023499
20
275.476746
30
124.536148
11
-1.281882
21
276.863098
31
110.144325
12
-16.082561
22
272.919525
32
104.835991
13
-13.646374
23
272.042480
33
121.019630
0
3DFACE
8
0
70
0
10
-20.722702
20
263.478149
30
122.216965
11
-13.646374
21
272.042480
31
121.019630
12
-16.082561
22
272.919525
32
104.835991
13
-24.240337
23
260.998474
33
104.760262
0
3DFACE
8
0
70
0
10
-4.866937
20
286.227783
30
106.095718
11
-17.014811
21
294.599670
31
104.469688
12
-16.115454
22
275.106567
32
102.640160
13
-4.866937
23
277.110504
33
106.939919
0
3DFACE
8
0
70
0
10
-16.115454
20
275.106567
30
102.640160
11
-17.014811
21
294.599670
31
104.469688
12
-28.951942
22
286.230957
32
94.654114
13
-25.204941
23
276.041107
33
97.547935
0
3DFACE
8
0
70
0
10
-14.272869
20
224.371124
30
123.670204
11
-1.281882
21
224.167664
31
124.353912
12
-1.281882
22
241.934875
32
115.474304
13
-10.311916
23
243.348877
33
112.725739
0
3DFACE
8
0
70
0
10
-52.197891
20
241.208618
30
78.126740
11
-34.483486
21
222.205841
31
104.917747
12
-27.375477
22
245.031799
32
98.608398
13
-50.592148
23
252.138489
33
77.948036
0
3DFACE
8
0
70
0
10
-10.311916
20
243.348877
30
112.725739
11
-25.009287
21
243.611145
31
112.608627
12
-32.486488
22
226.562439
32
115.002640
13
-14.272869
23
224.371124
33
123.670204
0
3DFACE
8
0
70
0
10
-47.057056
20
286.103760
30
78.280388
11
-32.972679
21
291.432129
31
94.547478
12
-33.265388
22
308.204590
32
93.486229
13
-59.222595
23
297.351044
33
77.058617
0
3DFACE
8
0
70
0
10
-1.281881
20
311.822571
30
108.392120
11
-18.324652
21
318.887146
31
102.284325
12
-16.755962
22
300.457123
32
105.993057
13
-1.281882
23
292.345398
33
108.519997
0
3DFACE
8
0
70
0
10
-18.324652
20
318.887146
30
102.284325
11
-33.265388
21
308.204590
31
93.486229
12
-32.972679
22
291.432129
32
94.547478
13
-16.755962
23
300.457123
33
105.993057
0
3DFACE
8
0
70
0
10
-1.281882
20
197.575104
30
122.178642
11
-1.281882
21
212.105286
31
119.235947
12
-15.274496
22
215.072083
32
113.764580
13
-18.456791
23
205.920593
33
115.812431
0
3DFACE
8
0
70
0
10
-1.281882
20
154.418884
30
101.101158
11
-1.281882
21
197.575104
31
122.178642
12
-18.456791
22
205.920593
32
115.812431
13
-21.641916
23
166.936035
33
97.859222
0
3DFACE
8
0
70
0
10
-52.197891
20
241.208618
30
78.126740
11
-55.921116
21
229.950531
31
81.297020
12
-33.800316
22
218.984100
32
95.906563
13
-34.483486
23
222.205841
33
104.917747
0
3DFACE
8
0
70
0
10
-33.800316
20
218.984100
30
95.906563
11
-55.921116
21
229.950531
31
81.297020
12
-55.251766
22
222.585052
32
50.112881
13
-45.173698
23
192.937592
33
66.107307
0
3DFACE
8
0
70
0
10
-21.641916
20
166.936035
30
97.859222
11
-18.456791
21
205.920593
31
115.812431
12
-33.800316
22
218.984100
32
95.906563
13
-45.173698
23
192.937592
33
66.107307
0
3DFACE
8
0
70
0
10
-18.456791
20
205.920593
30
115.812431
11
-15.274496
21
215.072083
31
113.764580
12
-34.483486
22
222.205841
32
104.917747
13
-33.800316
23
218.984100
33
95.906563
0
3DFACE
8
0
70
0
10
-1.281882
20
224.167664
30
124.353912
11
-14.272869
21
224.371124
31
123.670204
12
-15.274496
22
215.072083
32
113.764580
13
-1.281882
23
212.105286
33
119.235947
0
3DFACE
8
0
70
0
10
-1.281882
20
241.934875
30
115.474304
11
-1.281882
21
239.624084
31
110.431030
12
-12.748343
22
242.411438
32
104.511536
13
-10.311916
23
243.348877
33
112.725739
0
3DFACE
8
0
70
0
10
-25.009287
20
243.611145
30
112.608627
11
-10.311916
21
243.348877
31
112.725739
12
-12.748343
22
242.411438
32
104.511536
13
-27.375477
23
245.031799
33
98.608398
0
POINT
8
0
70
0
10
-52.881443
20
225.267151
30
96.495125
0
3DFACE
8
0
70
0
10
-14.272869
20
224.371124
30
123.670204
11
-32.486488
21
226.562439
31
115.002640
12
-34.483486
22
222.205841
32
104.917747
13
-15.274496
23
215.072083
33
113.764580
0
3DFACE
8
0
70
0
10
-32.486488
20
226.562439
30
115.002640
11
-25.009287
21
243.611145
31
112.608627
12
-52.881443
22
225.267151
32
96.495125
13
-52.881443
23
225.267151
33
96.495125
0
3DFACE
8
0
70
0
10
-25.009287
20
243.611145
30
112.608627
11
-27.375477
21
245.031799
31
98.608398
12
-52.881443
22
225.267151
32
96.495125
13
-52.881443
23
225.267151
33
96.495125
0
3DFACE
8
0
70
0
10
-52.881443
20
225.267151
30
96.495125
11
-27.375477
21
245.031799
31
98.608398
12
-34.483486
22
222.205841
32
104.917747
13
-34.483486
23
222.205841
33
104.917747
0
3DFACE
8
0
70
0
10
-34.483486
20
222.205841
30
104.917747
11
-32.486488
21
226.562439
31
115.002640
12
-52.881443
22
225.267151
32
96.495125
13
-52.881443
23
225.267151
33
96.495125
0
3DFACE
8
0
70
0
10
-59.222595
20
297.351044
30
77.058617
11
-63.796013
21
282.106842
31
42.410336
12
-60.490471
22
281.206665
32
41.856926
13
-47.057056
23
286.103760
33
78.280388
0
3DFACE
8
0
70
0
10
-47.057056
20
286.103760
30
78.280388
11
-60.490471
21
281.206665
31
41.856926
12
-61.994881
22
273.944885
32
42.462151
13
-45.084305
23
274.761017
33
78.655991
0
3DFACE
8
0
70
0
10
-45.084305
20
274.761017
30
78.655991
11
-61.994881
21
273.944885
31
42.462151
12
-62.016663
22
260.750946
32
44.641083
13
-47.526073
23
261.661865
33
78.504814
0
3DFACE
8
0
70
0
10
-63.796013
20
282.106842
30
42.410336
11
-46.286396
21
271.022644
31
18.565659
12
-43.700268
22
277.676788
32
15.897063
13
-60.490471
23
281.206665
33
41.856926
0
3DFACE
8
0
70
0
10
-61.994881
20
273.944885
30
42.462151
11
-60.490471
21
281.206665
31
41.856926
12
-43.700268
22
277.676788
32
15.897063
13
-46.012630
23
277.624268
33
12.672510
0
3DFACE
8
0
70
0
10
-62.016663
20
260.750946
30
44.641083
11
-61.994881
21
273.944885
31
42.462151
12
-46.012630
22
277.624268
32
12.672510
13
-43.267853
23
265.927216
33
11.188781
0
3DFACE
8
0
70
0
10
-46.286396
20
271.022644
30
18.565659
11
-1.281883
21
264.331177
31
-0.037681
12
-1.281882
22
276.633362
32
-1.092671
13
-43.700268
23
277.676788
33
15.897063
0
3DFACE
8
0
70
0
10
-46.012630
20
277.624268
30
12.672510
11
-43.700268
21
277.676788
31
15.897063
12
-1.281882
22
276.633362
32
-1.092671
13
-1.281882
23
277.550110
33
-2.405132
0
3DFACE
8
0
70
0
10
-43.267853
20
265.927216
30
11.188781
11
-46.012630
21
277.624268
31
12.672510
12
-1.281882
22
277.550110
32
-2.405132
13
-1.281882
23
263.673889
33
-0.945824
0
3DFACE
8
0
70
0
10
-55.251766
20
222.585052
30
50.112881
11
-55.921116
21
229.950531
31
81.297020
12
-52.197891
22
241.208618
32
78.126740
13
-61.580307
23
239.196716
33
46.003769
0
3DFACE
8
0
70
0
10
-47.526073
20
261.661865
30
78.504814
11
-62.016663
21
260.750946
31
44.641083
12
-50.592148
22
252.138489
32
77.948036
13
-50.592148
23
252.138489
33
77.948036
0
3DFACE
8
0
70
0
10
-52.197891
20
241.208618
30
78.126740
11
-50.592148
21
252.138489
31
77.948036
12
-62.016663
22
260.750946
32
44.641083
13
-61.580307
23
239.196716
33
46.003769
0
3DFACE
8
0
70
0
10
-61.580307
20
239.196716
30
46.003769
11
-62.016663
21
260.750946
31
44.641083
12
-43.267853
22
265.927216
32
11.188781
13
-42.475136
23
247.939545
33
14.099627
0
3DFACE
8
0
70
0
10
-42.475136
20
247.939545
30
14.099627
11
-43.267853
21
265.927216
31
11.188781
12
-1.281882
22
263.673889
32
-0.945824
13
-1.281882
23
246.313843
33
3.485335
0
3DFACE
8
0
70
0
10
-1.281881
20
311.822571
30
108.392120
11
-1.281880
21
339.270111
31
99.185242
12
-20.681479
22
338.521515
32
93.069794
13
-18.324652
23
318.887146
33
102.284325
0
3DFACE
8
0
70
0
10
-1.281880
20
339.270111
30
99.185242
11
-1.281880
21
341.642090
31
94.893471
12
-21.070143
22
339.529510
32
87.764854
13
-20.681479
23
338.521515
33
93.069794
0
3DFACE
8
0
70
0
10
-18.324652
20
318.887146
30
102.284325
11
-20.681479
21
338.521515
31
93.069794
12
-47.172798
22
333.344238
32
80.797142
13
-33.265388
23
308.204590
33
93.486229
0
3DFACE
8
0
70
0
10
-20.681479
20
338.521515
30
93.069794
11
-21.070143
21
339.529510
31
87.764854
12
-45.930447
22
334.832275
32
75.675545
13
-47.172798
23
333.344238
33
80.797142
0
3DFACE
8
0
70
0
10
-33.265388
20
308.204590
30
93.486229
11
-47.172798
21
333.344238
31
80.797142
12
-63.269661
22
318.117218
32
52.999805
13
-59.222595
23
297.351044
33
77.058617
0
3DFACE
8
0
70
0
10
-47.172798
20
333.344238
30
80.797142
11
-45.930447
21
334.832275
31
75.675545
12
-54.970982
22
321.713837
32
50.653328
13
-63.269661
23
318.117218
33
52.999805
0
3DFACE
8
0
70
0
10
-59.222595
20
297.351044
30
77.058617
11
-63.269661
21
318.117218
31
52.999805
12
-67.795349
22
309.943756
32
28.444376
13
-63.796013
23
282.106842
33
42.410336
0
3DFACE
8
0
70
0
10
-63.269661
20
318.117218
30
52.999805
11
-54.970982
21
321.713837
31
50.653328
12
-61.240921
22
312.958679
32
29.162146
13
-67.795349
23
309.943756
33
28.444376
0
3DFACE
8
0
70
0
10
-63.796013
20
282.106842
30
42.410336
11
-67.795349
21
309.943756
31
28.444376
12
-47.181725
22
296.910187
32
8.241911
13
-46.286396
23
271.022644
33
18.565659
0
3DFACE
8
0
70
0
10
-67.795349
20
309.943756
30
28.444376
11
-61.240921
21
312.958679
31
29.162146
12
-41.653008
22
302.057983
32
10.501062
13
-47.181725
23
296.910187
33
8.241911
0
3DFACE
8
0
70
0
10
-46.286396
20
271.022644
30
18.565659
11
-47.181725
21
296.910187
31
8.241911
12
-1.281881
22
288.155212
32
-9.937516
13
-1.281883
23
264.331177
33
-0.037681
0
3DFACE
8
0
70
0
10
-47.181725
20
296.910187
30
8.241911
11
-41.653008
21
302.057983
31
10.501062
12
-1.281881
22
293.053375
32
-6.806734
13
-1.281881
23
288.155212
33
-9.937516
0
3DFACE
8
0
70
0
10
-55.251766
20
222.585052
30
50.112881
11
-61.580307
21
239.196716
31
46.003769
12
-42.475136
22
247.939545
32
14.099627
13
-39.164574
23
207.235474
33
31.855993
0
3DFACE
8
0
70
0
10
-39.164574
20
207.235474
30
31.855993
11
-42.475136
21
247.939545
31
14.099627
12
-1.281882
22
246.313843
32
3.485335
13
-1.524852
23
204.629333
33
8.887280
0
3DFACE
8
0
70
0
10
-45.173698
20
192.937592
30
66.107307
11
-55.251766
21
222.585052
31
50.112881
12
-39.164574
22
207.235474
32
31.855993
13
-32.337223
23
202.874603
33
60.032959
0
3DFACE
8
0
70
0
10
-21.641916
20
166.936035
30
97.859222
11
-45.173698
21
192.937592
31
66.107307
12
-32.337223
22
202.874603
32
60.032959
13
-19.222971
23
167.628357
33
81.952538
0
3DFACE
8
0
70
0
10
-19.222971
20
167.628357
30
81.952538
11
-32.337223
21
202.874603
31
60.032959
12
-1.281882
22
188.030884
32
56.009388
13
-1.281882
23
165.994202
33
77.656464
0
3DFACE
8
0
70
0
10
-1.281882
20
154.418884
30
101.101158
11
-19.222971
21
167.628357
31
81.952538
12
-1.281882
22
165.994202
32
77.656464
13
-1.281882
23
165.994202
33
77.656464
0
3DFACE
8
0
70
0
10
-1.281882
20
154.418884
30
101.101158
11
-21.641916
21
166.936035
31
97.859222
12
-19.222971
22
167.628357
32
81.952538
13
-19.222971
23
167.628357
33
81.952538
0
3DFACE
8
0
70
0
10
-4.866937
20
277.110504
30
106.939919
11
-1.281882
21
276.863098
31
110.144325
12
-1.281882
22
292.345398
32
108.519997
13
-4.866937
23
286.227783
33
106.095718
0
3DFACE
8
0
70
0
10
-16.115454
20
275.106567
30
102.640160
11
-16.082561
21
272.919525
31
104.835991
12
-1.281882
22
276.863098
32
110.144325
13
-4.866937
23
277.110504
33
106.939919
0
3DFACE
8
0
70
0
10
-17.014811
20
294.599670
30
104.469688
11
-4.866937
21
286.227783
31
106.095718
12
-1.281882
22
292.345398
32
108.519997
13
-16.755962
23
300.457123
33
105.993057
0
3DFACE
8
0
70
0
10
-16.115454
20
275.106567
30
102.640160
11
-25.204941
21
276.041107
31
97.547935
12
-28.042412
22
274.200409
32
98.549278
13
-16.082561
23
272.919525
33
104.835991
0
3DFACE
8
0
70
0
10
-25.204941
20
276.041107
30
97.547935
11
-28.951942
21
286.230957
31
94.654114
12
-32.972679
22
291.432129
32
94.547478
13
-28.042412
23
274.200409
33
98.549278
0
3DFACE
8
0
70
0
10
-17.014811
20
294.599670
30
104.469688
11
-16.755962
21
300.457123
31
105.993057
12
-32.972679
22
291.432129
32
94.547478
13
-28.951942
23
286.230957
33
94.654114
0
3DFACE
8
0
70
0
10
15.102792
20
293.904510
30
104.268639
11
14.595920
21
299.658417
31
106.045509
12
-1.281882
22
292.345398
32
108.519997
13
2.756311
23
286.347046
33
106.276031
0
3DFACE
8
0
70
0
10
13.785778
20
274.494171
30
102.009949
11
2.756311
21
276.842438
31
107.318275
12
-1.281882
22
276.863098
32
110.144325
13
13.518797
23
272.919525
33
104.835991
0
3DFACE
8
0
70
0
10
2.756311
20
276.842438
30
107.318275
11
2.756311
21
286.347046
31
106.276031
12
-1.281882
22
292.345398
32
108.519997
13
-1.281882
23
276.863098
33
110.144325
0
3DFACE
8
0
70
0
10
15.102792
20
293.904510
30
104.268639
11
27.022137
21
286.350464
31
92.150620
12
31.280952
22
291.432129
32
94.547478
13
14.595920
23
299.658417
33
106.045509
0
3DFACE
8
0
70
0
10
23.348103
20
275.490204
30
95.723228
11
26.350687
21
274.200409
31
98.549278
12
31.280952
22
291.432129
32
94.547478
13
27.022137
23
286.350464
33
92.150620
0
3DFACE
8
0
70
0
10
13.785778
20
274.494171
30
102.009949
11
13.518797
21
272.919525
31
104.835991
12
26.350687
22
274.200409
32
98.549278
13
23.348103
23
275.490204
33
95.723228
0
3DFACE
8
0
70
0
10
-1.524852
20
204.629333
30
8.887280
11
36.319489
21
207.235474
31
31.855993
12
59.344391
22
183.466614
32
2.174475
13
-1.483061
23
206.737457
33
5.078217
0
3DFACE
8
0
70
0
10
-1.483061
20
206.737457
30
5.078217
11
-62.333660
21
183.775696
31
2.066022
12
-39.164574
22
207.235474
32
31.855993
13
-1.524852
23
204.629333
33
8.887280
0
3DFACE
8
0
70
0
10
-62.333660
20
183.775696
30
2.066022
11
-56.128910
21
177.092712
31
59.291286
12
-39.164574
22
207.235474
32
31.855993
13
-39.164574
23
207.235474
33
31.855993
0
3DFACE
8
0
70
0
10
-56.128910
20
177.092712
30
59.291286
11
-32.337223
21
202.874603
31
60.032959
12
-39.164574
22
207.235474
32
31.855993
13
-39.164574
23
207.235474
33
31.855993
0
3DFACE
8
0
70
0
10
53.420891
20
177.092712
30
59.291286
11
36.319489
21
207.235474
31
31.855993
12
29.850237
22
202.874603
32
60.032959
13
29.850237
23
202.874603
33
60.032959
0
3DFACE
8
0
70
0
10
59.344391
20
183.466614
30
2.174475
11
36.319489
21
207.235474
31
31.855993
12
53.420891
22
177.092712
32
59.291286
13
53.420891
23
177.092712
33
59.291286
0
3DFACE
8
0
70
0
10
-1.205103
20
191.465698
30
67.180084
11
-32.337223
21
202.874603
31
60.032959
12
-56.128910
22
177.092712
32
59.291286
13
-56.128910
23
177.092712
33
59.291286
0
3DFACE
8
0
70
0
10
-1.281882
20
188.030884
30
56.009388
11
-32.337223
21
202.874603
31
60.032959
12
-1.205103
22
191.465698
32
67.180084
13
-1.205103
23
191.465698
33
67.180084
0
3DFACE
8
0
70
0
10
-1.281882
20
188.030884
30
56.009388
11
-1.205103
21
191.465698
31
67.180084
12
29.850237
22
202.874603
32
60.032959
13
29.850237
23
202.874603
33
60.032959
0
3DFACE
8
0
70
0
10
-1.205103
20
191.465698
30
67.180084
11
53.420891
21
177.092712
31
59.291286
12
29.850237
22
202.874603
32
60.032959
13
29.850237
23
202.874603
33
60.032959
0
3DFACE
8
0
70
0
10
-1.281881
20
293.053375
30
-6.806734
11
-1.309878
21
353.603455
31
0.903915
12
14.660309
22
357.394989
32
7.285023
13
39.089241
23
302.057983
33
10.501063
0
3DFACE
8
0
70
0
10
39.089241
20
302.057983
30
10.501063
11
14.660309
21
357.394989
31
7.285023
12
25.377977
22
363.023010
32
16.756868
13
58.677162
23
312.958679
33
29.162148
0
3DFACE
8
0
70
0
10
58.677162
20
312.958679
30
29.162148
11
25.377977
21
363.023010
31
16.756868
12
22.925613
22
368.780457
32
26.446510
13
52.407223
23
321.713837
33
50.653328
0
3DFACE
8
0
70
0
10
52.407223
20
321.713837
30
50.653328
11
22.925613
21
368.780457
31
26.446510
12
20.246988
22
375.918030
32
38.458820
13
43.366695
23
334.832275
33
75.675545
0
3DFACE
8
0
70
0
10
-1.281880
20
341.642090
30
94.893471
11
18.506380
21
339.529510
31
87.764854
12
8.316630
22
379.383362
32
44.290981
13
-1.309877
23
381.405701
33
47.694626
0
3DFACE
8
0
70
0
10
-1.281881
20
293.053375
30
-6.806734
11
-41.653008
21
302.057983
31
10.501062
12
-17.280066
22
357.394989
32
7.285022
13
-1.309878
23
353.603455
33
0.903915
0
3DFACE
8
0
70
0
10
-41.653008
20
302.057983
30
10.501062
11
-61.240921
21
312.958679
31
29.162146
12
-27.997726
22
363.023010
32
16.756866
13
-17.280066
23
357.394989
33
7.285022
0
3DFACE
8
0
70
0
10
-61.240921
20
312.958679
30
29.162146
11
-54.970982
21
321.713837
31
50.653328
12
-25.545370
22
368.780457
32
26.446508
13
-27.997726
23
363.023010
33
16.756866
0
3DFACE
8
0
70
0
10
-54.970982
20
321.713837
30
50.653328
11
-45.930447
21
334.832275
31
75.675545
12
-22.866743
22
375.918030
32
38.458820
13
-25.545370
23
368.780457
33
26.446508
0
3DFACE
8
0
70
0
10
-1.281880
20
341.642090
30
94.893471
11
-1.309877
21
381.405701
31
47.694626
12
-10.936384
22
379.383362
32
44.290981
13
-21.070143
23
339.529510
33
87.764854
0
3DFACE
8
0
70
0
10
43.366695
20
334.832275
30
75.675545
11
20.246988
21
375.918030
31
38.458820
12
8.316630
22
379.383362
32
44.290981
13
18.506380
23
339.529510
33
87.764854
0
3DFACE
8
0
70
0
10
-45.930447
20
334.832275
30
75.675545
11
-21.070143
21
339.529510
31
87.764854
12
-10.936384
22
379.383362
32
44.290981
13
-22.866743
23
375.918030
33
38.458820
0
3DFACE
8
0
70
0
10
-1.351724
20
419.054626
30
-2.145531
11
12.257201
21
419.802917
31
-11.694051
12
-1.351721
22
424.920471
32
-17.127939
13
-1.351721
23
424.920471
33
-17.127939
0
3DFACE
8
0
70
0
10
12.257198
20
409.568054
30
-0.826363
11
12.257201
21
419.802917
31
-11.694051
12
-1.351724
22
419.054626
32
-2.145531
13
-1.351724
23
419.054626
33
-2.145531
0
3DFACE
8
0
70
0
10
-1.351725
20
404.450623
30
4.607480
11
12.257198
21
409.568054
31
-0.826363
12
-1.351724
22
419.054626
32
-2.145531
13
-1.351724
23
419.054626
33
-2.145531
0
3DFACE
8
0
70
0
10
-1.351725
20
404.450623
30
4.607480
11
-1.351724
21
419.054626
31
-2.145531
12
-14.960615
22
409.568054
32
-0.826365
13
-14.960615
23
409.568054
33
-0.826365
0
3DFACE
8
0
70
0
10
-14.960615
20
409.568054
30
-0.826365
11
-1.351724
21
419.054626
31
-2.145531
12
-14.960612
22
419.802917
32
-11.694053
13
-14.960612
23
419.802917
33
-11.694053
0
3DFACE
8
0
70
0
10
-1.351724
20
419.054626
30
-2.145531
11
-1.351721
21
424.920471
31
-17.127939
12
-14.960612
22
419.802917
32
-11.694053
13
-14.960612
23
419.802917
33
-11.694053
0
3DFACE
8
0
70
0
10
12.257201
20
419.802917
30
-11.694051
11
17.894175
21
411.374817
31
-23.878576
12
-1.351718
22
418.612000
32
-31.563200
13
-1.351721
23
424.920471
33
-17.127939
0
3DFACE
8
0
70
0
10
17.894173
20
396.900452
30
-8.509286
11
17.894175
21
411.374817
31
-23.878576
12
12.257201
22
419.802917
32
-11.694051
13
12.257198
23
409.568054
33
-0.826363
0
3DFACE
8
0
70
0
10
-1.351724
20
389.663330
30
-0.824686
11
17.894173
21
396.900452
31
-8.509286
12
12.257198
22
409.568054
32
-0.826363
13
-1.351725
23
404.450623
33
4.607480
0
3DFACE
8
0
70
0
10
-1.351724
20
389.663330
30
-0.824686
11
-1.351725
21
404.450623
31
4.607480
12
-14.960615
22
409.568054
32
-0.826365
13
-20.597620
23
396.900452
33
-8.509286
0
3DFACE
8
0
70
0
10
-20.597620
20
396.900452
30
-8.509286
11
-14.960615
21
409.568054
31
-0.826365
12
-14.960612
22
419.802917
32
-11.694053
13
-20.597618
23
411.374817
33
-23.878576
0
3DFACE
8
0
70
0
10
-14.960612
20
419.802917
30
-11.694053
11
-1.351721
21
424.920471
31
-17.127939
12
-1.351718
22
418.612000
32
-31.563200
13
-20.597618
23
411.374817
33
-23.878576
0
3DFACE
8
0
70
0
10
12.257203
20
398.707153
30
-31.561455
11
-1.351716
21
403.824646
31
-36.995342
12
-1.351718
22
418.612000
32
-31.563200
13
17.894175
23
411.374817
33
-23.878576
0
3DFACE
8
0
70
0
10
17.894173
20
396.900452
30
-8.509286
11
12.257201
21
388.472290
31
-20.693768
12
12.257203
22
398.707153
32
-31.561455
13
17.894175
23
411.374817
33
-23.878576
0
3DFACE
8
0
70
0
10
-1.351724
20
389.663330
30
-0.824686
11
-1.351721
21
383.354858
31
-15.259924
12
12.257201
22
388.472290
32
-20.693768
13
17.894173
23
396.900452
33
-8.509286
0
3DFACE
8
0
70
0
10
-1.351724
20
389.663330
30
-0.824686
11
-20.597620
21
396.900452
31
-8.509286
12
-14.960610
22
388.472290
32
-20.693769
13
-1.351721
23
383.354858
33
-15.259924
0
3DFACE
8
0
70
0
10
-20.597620
20
396.900452
30
-8.509286
11
-20.597618
21
411.374817
31
-23.878576
12
-14.960608
22
398.707153
32
-31.561457
13
-14.960610
23
388.472290
33
-20.693769
0
3DFACE
8
0
70
0
10
-14.960608
20
398.707153
30
-31.561457
11
-20.597618
21
411.374817
31
-23.878576
12
-1.351718
22
418.612000
32
-31.563200
13
-1.351716
23
403.824646
33
-36.995342
0
3DFACE
8
0
70
0
10
-1.351727
20
389.220642
30
-30.242294
11
-1.351716
21
403.824646
31
-36.995342
12
12.257203
22
398.707153
32
-31.561455
13
12.257203
23
398.707153
33
-31.561455
0
3DFACE
8
0
70
0
10
12.257201
20
388.472290
30
-20.693768
11
-1.351727
21
389.220642
31
-30.242294
12
12.257203
22
398.707153
32
-31.561455
13
12.257203
23
398.707153
33
-31.561455
0
3DFACE
8
0
70
0
10
-1.351721
20
383.354858
30
-15.259924
11
-1.351727
21
389.220642
31
-30.242294
12
12.257201
22
388.472290
32
-20.693768
13
12.257201
23
388.472290
33
-20.693768
0
3DFACE
8
0
70
0
10
-1.351721
20
383.354858
30
-15.259924
11
-14.960610
21
388.472290
31
-20.693769
12
-1.351727
22
389.220642
32
-30.242294
13
-1.351727
23
389.220642
33
-30.242294
0
3DFACE
8
0
70
0
10
-14.960610
20
388.472290
30
-20.693769
11
-14.960608
21
398.707153
31
-31.561457
12
-1.351727
22
389.220642
32
-30.242294
13
-1.351727
23
389.220642
33
-30.242294
0
3DFACE
8
0
70
0
10
-1.351727
20
389.220642
30
-30.242294
11
-14.960608
21
398.707153
31
-31.561457
12
-1.351716
22
403.824646
32
-36.995342
13
-1.351716
23
403.824646
33
-36.995342
0
3DFACE
8
0
70
0
10
24.811714
20
245.031799
30
98.608398
11
48.028389
21
252.138489
31
77.948036
12
36.308334
22
260.845123
32
101.725830
13
36.308334
23
260.845123
33
101.725830
0
3DFACE
8
0
70
0
10
48.028389
20
252.138489
30
77.948036
11
44.962315
21
261.661896
31
78.504814
12
36.308334
22
260.845123
32
101.725830
13
36.308334
23
260.845123
33
101.725830
0
3DFACE
8
0
70
0
10
10.184579
20
242.411438
30
104.511536
11
24.811714
21
245.031799
31
98.608398
12
21.676575
22
260.998474
32
104.760262
13
21.676575
23
260.998474
33
104.760262
0
3DFACE
8
0
70
0
10
24.811714
20
245.031799
30
98.608398
11
36.308334
21
260.845123
31
101.725830
12
21.676575
22
260.998474
32
104.760262
13
21.676575
23
260.998474
33
104.760262
0
3DFACE
8
0
70
0
10
36.308334
20
260.845123
30
101.725830
11
44.962315
21
261.661896
31
78.504814
12
26.350687
22
274.200409
32
98.549278
13
26.350687
23
274.200409
33
98.549278
0
3DFACE
8
0
70
0
10
44.962315
20
261.661896
30
78.504814
11
42.520538
21
274.761047
31
78.655991
12
26.350687
22
274.200409
32
98.549278
13
26.350687
23
274.200409
33
98.549278
0
3DFACE
8
0
70
0
10
21.676575
20
260.998474
30
104.760262
11
26.350687
21
274.200409
31
98.549278
12
13.518797
22
272.919525
32
104.835991
13
13.518797
23
272.919525
33
104.835991
0
3DFACE
8
0
70
0
10
36.308334
20
260.845123
30
101.725830
11
26.350687
21
274.200409
31
98.549278
12
21.676575
22
260.998474
32
104.760262
13
21.676575
23
260.998474
33
104.760262
0
3DFACE
8
0
70
0
10
26.350687
20
274.200409
30
98.549278
11
42.520538
21
274.761047
31
78.655991
12
31.280952
22
291.432129
32
94.547478
13
31.280952
23
291.432129
33
94.547478
0
3DFACE
8
0
70
0
10
42.520538
20
274.761047
30
78.655991
11
44.493294
21
286.103760
31
78.280388
12
31.280952
22
291.432129
32
94.547478
13
31.280952
23
291.432129
33
94.547478
0
3DFACE
8
0
70
0
10
-50.592148
20
252.138489
30
77.948036
11
-38.872097
21
260.845123
31
101.725830
12
-47.526073
22
261.661865
32
78.504814
13
-47.526073
23
261.661865
33
78.504814
0
3DFACE
8
0
70
0
10
-27.375477
20
245.031799
30
98.608398
11
-38.872097
21
260.845123
31
101.725830
12
-50.592148
22
252.138489
32
77.948036
13
-50.592148
23
252.138489
33
77.948036
0
3DFACE
8
0
70
0
10
-27.375477
20
245.031799
30
98.608398
11
-24.240337
21
260.998474
31
104.760262
12
-38.872097
22
260.845123
32
101.725830
13
-38.872097
23
260.845123
33
101.725830
0
3DFACE
8
0
70
0
10
-12.748343
20
242.411438
30
104.511536
11
-24.240337
21
260.998474
31
104.760262
12
-27.375477
22
245.031799
32
98.608398
13
-27.375477
23
245.031799
33
98.608398
0
3DFACE
8
0
70
0
10
-47.526073
20
261.661865
30
78.504814
11
-28.042412
21
274.200409
31
98.549278
12
-45.084305
22
274.761017
32
78.655991
13
-45.084305
23
274.761017
33
78.655991
0
3DFACE
8
0
70
0
10
-38.872097
20
260.845123
30
101.725830
11
-28.042412
21
274.200409
31
98.549278
12
-47.526073
22
261.661865
32
78.504814
13
-47.526073
23
261.661865
33
78.504814
0
3DFACE
8
0
70
0
10
-24.240337
20
260.998474
30
104.760262
11
-16.082561
21
272.919525
31
104.835991
12
-28.042412
22
274.200409
32
98.549278
13
-28.042412
23
274.200409
33
98.549278
0
3DFACE
8
0
70
0
10
-38.872097
20
260.845123
30
101.725830
11
-24.240337
21
260.998474
31
104.760262
12
-28.042412
22
274.200409
32
98.549278
13
-28.042412
23
274.200409
33
98.549278
0
3DFACE
8
0
70
0
10
-45.084305
20
274.761017
30
78.655991
11
-32.972679
21
291.432129
31
94.547478
12
-47.057056
22
286.103760
32
78.280388
13
-47.057056
23
286.103760
33
78.280388
0
3DFACE
8
0
70
0
10
-28.042412
20
274.200409
30
98.549278
11
-32.972679
21
291.432129
31
94.547478
12
-45.084305
22
274.761017
32
78.655991
13
-45.084305
23
274.761017
33
78.655991
0
3DFACE
8
0
70
0
10
20.522991
20
4.695755
30
38.910427
11
20.748079
21
27.407639
31
23.236490
12
19.782833
22
21.111221
32
-4.515140
13
19.782833
23
21.111221
33
-4.515140
0
3DFACE
8
0
70
0
10
20.522991
20
4.695755
30
38.910427
11
19.782833
21
21.111221
31
-4.515140
12
18.960131
22
2.520920
32
13.389613
13
18.960131
23
2.520920
33
13.389613
0
3DFACE
8
0
70
0
10
20.522991
20
4.695755
30
38.910427
11
63.672775
21
27.594284
31
25.180319
12
20.748079
22
27.407639
32
23.236490
13
20.748079
23
27.407639
33
23.236490
0
3DFACE
8
0
70
0
10
20.522991
20
4.695755
30
38.910427
11
57.457512
21
5.109253
31
40.043816
12
63.672775
22
27.594284
32
25.180319
13
63.672775
23
27.594284
33
25.180319
0
3DFACE
8
0
70
0
10
57.457512
20
5.109253
30
40.043816
11
78.187508
21
24.401825
31
11.501612
12
63.672775
22
27.594284
32
25.180319
13
63.672775
23
27.594284
33
25.180319
0
3DFACE
8
0
70
0
10
57.457512
20
5.109253
30
40.043816
11
70.138680
21
4.146759
31
27.392048
12
78.187508
22
24.401825
32
11.501612
13
78.187508
23
24.401825
33
11.501612
0
3DFACE
8
0
70
0
10
32.948051
20
0.748505
30
-8.957969
11
19.782833
21
21.111221
31
-4.515140
12
34.362782
22
15.421631
32
-29.188297
13
34.362782
23
15.421631
33
-29.188297
0
3DFACE
8
0
70
0
10
18.960131
20
2.520920
30
13.389613
11
19.782833
21
21.111221
31
-4.515140
12
32.948051
22
0.748505
32
-8.957969
13
32.948051
23
0.748505
33
-8.957969
0
3DFACE
8
0
70
0
10
65.533806
20
2.543533
30
8.929358
11
72.522339
21
19.803375
31
-8.895798
12
78.187508
22
24.401825
32
11.501612
13
78.187508
23
24.401825
33
11.501612
0
3DFACE
8
0
70
0
10
70.138680
20
4.146759
30
27.392048
11
65.533806
21
2.543533
31
8.929358
12
78.187508
22
24.401825
32
11.501612
13
78.187508
23
24.401825
33
11.501612
0
3DFACE
8
0
70
0
10
32.948051
20
0.748505
30
-8.957969
11
34.362782
21
15.421631
31
-29.188297
12
72.522339
22
19.803375
32
-8.895798
13
72.522339
23
19.803375
33
-8.895798
0
3DFACE
8
0
70
0
10
65.533806
20
2.543533
30
8.929358
11
32.948051
21
0.748505
31
-8.957969
12
72.522339
22
19.803375
32
-8.895798
13
72.522339
23
19.803375
33
-8.895798
0
3DFACE
8
0
70
0
10
-32.363453
20
-39.197533
30
3.139776
11
-20.925396
21
-42.694443
31
-14.950908
12
-18.022169
22
-13.097748
32
-16.890800
13
-18.022169
23
-13.097748
33
-16.890800
0
3DFACE
8
0
70
0
10
-32.363453
20
-39.197533
30
3.139776
11
-18.022169
21
-13.097748
31
-16.890800
12
-30.708914
22
-25.395950
32
3.595190
13
-30.708914
23
-25.395950
33
3.595190
0
3DFACE
8
0
70
0
10
-32.363453
20
-39.197533
30
3.139776
11
-30.708914
21
-25.395950
31
3.595190
12
-69.535324
22
-24.144981
32
-15.141708
13
-69.535324
23
-24.144981
33
-15.141708
0
3DFACE
8
0
70
0
10
-32.363453
20
-39.197533
30
3.139776
11
-69.535324
21
-24.144981
31
-15.141708
12
-65.627632
22
-39.416656
32
-13.344447
13
-65.627632
23
-39.416656
33
-13.344447
0
3DFACE
8
0
70
0
10
-65.627632
20
-39.416656
30
-13.344447
11
-69.535324
21
-24.144981
31
-15.141708
12
-76.551903
22
-17.344360
32
-32.294876
13
-76.551903
23
-17.344360
33
-32.294876
0
3DFACE
8
0
70
0
10
-65.627632
20
-39.416656
30
-13.344447
11
-76.551903
21
-17.344360
31
-32.294876
12
-71.913467
22
-41.286896
32
-28.622850
13
-71.913467
23
-41.286896
33
-28.622850
0
3DFACE
8
0
70
0
10
-24.554392
20
-45.912521
30
-37.993515
11
-20.408838
21
-1.402847
31
-42.370651
12
-18.022169
22
-13.097748
32
-16.890800
13
-18.022169
23
-13.097748
33
-16.890800
0
3DFACE
8
0
70
0
10
-20.925396
20
-42.694443
30
-14.950908
11
-24.554392
21
-45.912521
31
-37.993515
12
-18.022169
22
-13.097748
32
-16.890800
13
-18.022169
23
-13.097748
33
-16.890800
0
3DFACE
8
0
70
0
10
-71.913467
20
-41.286896
30
-28.622850
11
-76.551903
21
-17.344360
31
-32.294876
12
-60.551743
22
-43.781403
32
-40.081089
13
-60.551743
23
-43.781403
33
-40.081089
0
3DFACE
8
0
70
0
10
-60.551743
20
-43.781403
30
-40.081089
11
-76.551903
21
-17.344360
31
-32.294876
12
-62.840275
22
-8.549469
32
-45.019501
13
-62.840275
23
-8.549469
33
-45.019501
0
3DFACE
8
0
70
0
10
-60.551743
20
-43.781403
30
-40.081089
11
-62.840275
21
-8.549469
31
-45.019501
12
-24.554392
22
-45.912521
32
-37.993515
13
-24.554392
23
-45.912521
33
-37.993515
0
3DFACE
8
0
70
0
10
-24.554392
20
-45.912521
30
-37.993515
11
-62.840275
21
-8.549469
31
-45.019501
12
-20.408838
22
-1.402847
32
-42.370651
13
-20.408838
23
-1.402847
33
-42.370651
0
3DFACE
8
0
70
0
10
27.214216
20
-17.215317
30
20.032352
11
20.522991
21
4.695755
31
38.910427
12
18.960131
22
2.520920
32
13.389613
13
18.960131
23
2.520920
33
13.389613
0
3DFACE
8
0
70
0
10
26.222542
20
-41.482666
30
-11.146882
11
27.214216
21
-17.215317
31
20.032352
12
18.960131
22
2.520920
32
13.389613
13
18.960131
23
2.520920
33
13.389613
0
3DFACE
8
0
70
0
10
62.712101
20
-21.834045
30
17.052393
11
57.457512
21
5.109253
31
40.043816
12
27.214216
22
-17.215317
32
20.032352
13
27.214216
23
-17.215317
33
20.032352
0
3DFACE
8
0
70
0
10
27.214216
20
-17.215317
30
20.032352
11
57.457512
21
5.109253
31
40.043816
12
20.522991
22
4.695755
32
38.910427
13
20.522991
23
4.695755
33
38.910427
0
3DFACE
8
0
70
0
10
74.789932
20
-41.207092
30
-0.704425
11
70.138680
21
4.146759
31
27.392048
12
62.712101
22
-21.834045
32
17.052393
13
62.712101
23
-21.834045
33
17.052393
0
3DFACE
8
0
70
0
10
62.712101
20
-21.834045
30
17.052393
11
70.138680
21
4.146759
31
27.392048
12
57.457512
22
5.109253
32
40.043816
13
57.457512
23
5.109253
33
40.043816
0
3DFACE
8
0
70
0
10
26.222542
20
-41.482666
30
-11.146882
11
18.960131
21
2.520920
31
13.389613
12
32.948051
22
0.748505
32
-8.957969
13
32.948051
23
0.748505
33
-8.957969
0
3DFACE
8
0
70
0
10
16.296782
20
-67.276970
30
-46.198383
11
26.222542
21
-41.482666
31
-11.146882
12
32.948051
22
0.748505
32
-8.957969
13
32.948051
23
0.748505
33
-8.957969
0
3DFACE
8
0
70
0
10
87.524727
20
-65.911514
30
-28.851036
11
65.533806
21
2.543533
31
8.929358
12
74.789932
22
-41.207092
32
-0.704425
13
74.789932
23
-41.207092
33
-0.704425
0
3DFACE
8
0
70
0
10
74.789932
20
-41.207092
30
-0.704425
11
65.533806
21
2.543533
31
8.929358
12
70.138680
22
4.146759
32
27.392048
13
70.138680
23
4.146759
33
27.392048
0
3DFACE
8
0
70
0
10
16.296782
20
-67.276970
30
-46.198383
11
32.948051
21
0.748505
31
-8.957969
12
87.524727
22
-65.911514
32
-28.851036
13
87.524727
23
-65.911514
33
-28.851036
0
3DFACE
8
0
70
0
10
87.524727
20
-65.911514
30
-28.851036
11
32.948051
21
0.748505
31
-8.957969
12
65.533806
22
2.543533
32
8.929358
13
65.533806
23
2.543533
33
8.929358
0
3DFACE
8
0
70
0
10
-30.562082
20
-99.095322
30
-7.722254
11
-20.925396
21
-42.694443
31
-14.950908
12
-35.209187
22
-62.539169
32
3.626524
13
-35.209187
23
-62.539169
33
3.626524
0
3DFACE
8
0
70
0
10
-35.209187
20
-62.539169
30
3.626524
11
-20.925396
21
-42.694443
31
-14.950908
12
-32.363453
22
-39.197533
32
3.139776
13
-32.363453
23
-39.197533
33
3.139776
0
3DFACE
8
0
70
0
10
-35.209187
20
-62.539169
30
3.626524
11
-32.363453
21
-39.197533
31
3.139776
12
-65.627632
22
-39.416656
32
-13.344447
13
-65.627632
23
-39.416656
33
-13.344447
0
3DFACE
8
0
70
0
10
-68.448898
20
-68.961227
30
-9.676261
11
-35.209187
21
-62.539169
31
3.626524
12
-65.627632
22
-39.416656
32
-13.344447
13
-65.627632
23
-39.416656
33
-13.344447
0
3DFACE
8
0
70
0
10
-68.448898
20
-68.961227
30
-9.676261
11
-65.627632
21
-39.416656
31
-13.344447
12
-71.913467
22
-41.286896
32
-28.622850
13
-71.913467
23
-41.286896
33
-28.622850
0
3DFACE
8
0
70
0
10
-78.762878
20
-94.210762
30
-18.071884
11
-68.448898
21
-68.961227
31
-9.676261
12
-71.913467
22
-41.286896
32
-28.622850
13
-71.913467
23
-41.286896
33
-28.622850
0
3DFACE
8
0
70
0
10
-16.806437
20
-138.809662
30
-17.922411
11
-24.554392
21
-45.912521
31
-37.993515
12
-30.562082
22
-99.095322
32
-7.722254
13
-30.562082
23
-99.095322
33
-7.722254
0
3DFACE
8
0
70
0
10
-30.562082
20
-99.095322
30
-7.722254
11
-24.554392
21
-45.912521
31
-37.993515
12
-20.925396
22
-42.694443
32
-14.950908
13
-20.925396
23
-42.694443
33
-14.950908
0
3DFACE
8
0
70
0
10
-78.762878
20
-94.210762
30
-18.071884
11
-71.913467
21
-41.286896
31
-28.622850
12
-60.551743
22
-43.781403
32
-40.081089
13
-60.551743
23
-43.781403
33
-40.081089
0
3DFACE
8
0
70
0
10
-87.869942
20
-129.704941
30
-32.021236
11
-78.762878
21
-94.210762
31
-18.071884
12
-60.551743
22
-43.781403
32
-40.081089
13
-60.551743
23
-43.781403
33
-40.081089
0
3DFACE
8
0
70
0
10
-87.869942
20
-129.704941
30
-32.021236
11
-60.551743
21
-43.781403
31
-40.081089
12
-24.554392
22
-45.912521
32
-37.993515
13
-24.554392
23
-45.912521
33
-37.993515
0
3DFACE
8
0
70
0
10
-16.806437
20
-138.809662
30
-17.922411
11
-87.869942
21
-129.704941
31
-32.021236
12
-24.554392
22
-45.912521
32
-37.993515
13
-24.554392
23
-45.912521
33
-37.993515
0
3DFACE
8
0
70
0
10
78.617142
20
114.452942
30
87.148163
11
-4.467794
21
110.566040
31
116.636391
12
-22.706766
22
90.351151
32
103.736557
13
-22.706766
23
90.351151
33
103.736557
0
3DFACE
8
0
70
0
10
78.617142
20
114.452942
30
87.148163
11
97.229439
21
127.414948
31
88.401260
12
-4.467794
22
110.566040
32
116.636391
13
-4.467794
23
110.566040
33
116.636391
0
3DFACE
8
0
70
0
10
95.972984
20
108.279694
30
-66.263588
11
0.914517
21
82.009537
31
-109.513115
12
-1.784397
22
114.661743
32
-101.674156
13
-1.784397
23
114.661743
33
-101.674156
0
3DFACE
8
0
70
0
10
95.972984
20
108.279694
30
-66.263588
11
-1.784397
21
114.661743
31
-101.674156
12
99.394043
22
119.325500
32
-65.680183
13
99.394043
23
119.325500
33
-65.680183
0
3DFACE
8
0
70
0
10
78.617142
20
114.452942
30
87.148163
11
122.936676
21
123.689453
31
3.161290
12
97.229439
22
127.414948
32
88.401260
13
97.229439
23
127.414948
33
88.401260
0
3DFACE
8
0
70
0
10
78.617142
20
114.452942
30
87.148163
11
110.674141
21
117.564392
31
15.729442
12
122.936676
22
123.689453
32
3.161290
13
122.936676
23
123.689453
33
3.161290
0
3DFACE
8
0
70
0
10
110.674141
20
117.564392
30
15.729442
11
95.972984
21
108.279694
31
-66.263588
12
99.394043
22
119.325500
32
-65.680183
13
99.394043
23
119.325500
33
-65.680183
0
3DFACE
8
0
70
0
10
110.674141
20
117.564392
30
15.729442
11
99.394043
21
119.325500
31
-65.680183
12
122.936676
22
123.689453
32
3.161290
13
122.936676
23
123.689453
33
3.161290
0
3DFACE
8
0
70
0
10
-117.240120
20
63.736542
30
60.490334
11
-22.706766
21
90.351151
31
103.736557
12
-4.467794
22
110.566040
32
116.636391
13
-4.467794
23
110.566040
33
116.636391
0
3DFACE
8
0
70
0
10
-117.240120
20
63.736542
30
60.490334
11
-4.467794
21
110.566040
31
116.636391
12
-106.074959
22
121.018341
32
85.039040
13
-106.074959
23
121.018341
33
85.039040
0
3DFACE
8
0
70
0
10
-99.884277
20
57.563278
30
-92.921417
11
-1.784397
21
114.661743
31
-101.674156
12
0.914517
22
82.009537
32
-109.513115
13
0.914517
23
82.009537
33
-109.513115
0
3DFACE
8
0
70
0
10
-99.884277
20
57.563278
30
-92.921417
11
-103.910355
21
112.928894
31
-69.042404
12
-1.784397
22
114.661743
32
-101.674156
13
-1.784397
23
114.661743
33
-101.674156
0
3DFACE
8
0
70
0
10
-117.240120
20
63.736542
30
60.490334
11
-129.375839
21
115.750885
31
-1.011421
12
-132.410339
22
54.618683
32
-17.356415
13
-132.410339
23
54.618683
33
-17.356415
0
3DFACE
8
0
70
0
10
-117.240120
20
63.736542
30
60.490334
11
-106.074959
21
121.018341
31
85.039040
12
-129.375839
22
115.750885
32
-1.011421
13
-129.375839
23
115.750885
33
-1.011421
0
3DFACE
8
0
70
0
10
-132.410339
20
54.618683
30
-17.356415
11
-129.375839
21
115.750885
31
-1.011421
12
-103.910355
22
112.928894
32
-69.042404
13
-103.910355
23
112.928894
33
-69.042404
0
3DFACE
8
0
70
0
10
-132.410339
20
54.618683
30
-17.356415
11
-103.910355
21
112.928894
31
-69.042404
12
-99.884277
22
57.563278
32
-92.921417
13
-99.884277
23
57.563278
33
-92.921417
0
3DFACE
8
0
70
0
10
-4.467794
20
110.566040
30
116.636391
11
53.420891
21
177.092712
31
59.291286
12
-1.205103
22
191.465698
32
67.180084
13
-1.205103
23
191.465698
33
67.180084
0
3DFACE
8
0
70
0
10
-4.467794
20
110.566040
30
116.636391
11
97.229439
21
127.414948
31
88.401260
12
53.420891
22
177.092712
32
59.291286
13
53.420891
23
177.092712
33
59.291286
0
3DFACE
8
0
70
0
10
99.394043
20
119.325500
30
-65.680183
11
-1.784397
21
114.661743
31
-101.674156
12
53.513885
22
189.554413
32
-36.493587
13
53.513885
23
189.554413
33
-36.493587
0
3DFACE
8
0
70
0
10
-1.784397
20
114.661743
30
-101.674156
11
-1.513945
21
181.548401
31
-46.094997
12
53.513885
22
189.554413
32
-36.493587
13
53.513885
23
189.554413
33
-36.493587
0
3DFACE
8
0
70
0
10
97.229439
20
127.414948
30
88.401260
11
104.697479
21
141.963196
31
9.600408
12
79.804497
22
169.534119
32
48.192616
13
79.804497
23
169.534119
33
48.192616
0
3DFACE
8
0
70
0
10
97.229439
20
127.414948
30
88.401260
11
122.936676
21
123.689453
31
3.161290
12
104.697479
22
141.963196
32
9.600408
13
104.697479
23
141.963196
33
9.600408
0
3DFACE
8
0
70
0
10
99.394043
20
119.325500
30
-65.680183
11
81.435661
21
152.602356
31
-28.805628
12
104.697479
22
141.963196
32
9.600408
13
104.697479
23
141.963196
33
9.600408
0
3DFACE
8
0
70
0
10
122.936676
20
123.689453
30
3.161290
11
99.394043
21
119.325500
31
-65.680183
12
104.697479
22
141.963196
32
9.600408
13
104.697479
23
141.963196
33
9.600408
0
3DFACE
8
0
70
0
10
97.229439
20
127.414948
30
88.401260
11
79.804497
21
169.534119
31
48.192616
12
53.420891
22
177.092712
32
59.291286
13
53.420891
23
177.092712
33
59.291286
0
3DFACE
8
0
70
0
10
99.394043
20
119.325500
30
-65.680183
11
53.513885
21
189.554413
31
-36.493587
12
81.435661
22
152.602356
32
-28.805628
13
81.435661
23
152.602356
33
-28.805628
0
3DFACE
8
0
70
0
10
-4.467794
20
110.566040
30
116.636391
11
-56.128910
21
177.092712
31
59.291286
12
-106.074959
22
121.018341
32
85.039040
13
-106.074959
23
121.018341
33
85.039040
0
3DFACE
8
0
70
0
10
-4.467794
20
110.566040
30
116.636391
11
-1.205103
21
191.465698
31
67.180084
12
-56.128910
22
177.092712
32
59.291286
13
-56.128910
23
177.092712
33
59.291286
0
3DFACE
8
0
70
0
10
-103.910355
20
112.928894
30
-69.042404
11
-56.303123
21
189.554413
31
-36.493587
12
-1.784397
22
114.661743
32
-101.674156
13
-1.784397
23
114.661743
33
-101.674156
0
3DFACE
8
0
70
0
10
-1.784397
20
114.661743
30
-101.674156
11
-56.303123
21
189.554413
31
-36.493587
12
-1.513945
22
181.548401
32
-46.094997
13
-1.513945
23
181.548401
33
-46.094997
0
3DFACE
8
0
70
0
10
-106.074959
20
121.018341
30
85.039040
11
-82.019073
21
171.486694
31
48.272957
12
-107.582359
22
145.793823
32
8.703741
13
-107.582359
23
145.793823
33
8.703741
0
3DFACE
8
0
70
0
10
-106.074959
20
121.018341
30
85.039040
11
-107.582359
21
145.793823
31
8.703741
12
-129.375839
22
115.750885
32
-1.011421
13
-129.375839
23
115.750885
33
-1.011421
0
3DFACE
8
0
70
0
10
-129.375839
20
115.750885
30
-1.011421
11
-107.582359
21
145.793823
31
8.703741
12
-103.910355
22
112.928894
32
-69.042404
13
-103.910355
23
112.928894
33
-69.042404
0
3DFACE
8
0
70
0
10
-103.910355
20
112.928894
30
-69.042404
11
-107.582359
21
145.793823
31
8.703741
12
-84.773933
22
154.317810
32
-29.935310
13
-84.773933
23
154.317810
33
-29.935310
0
3DFACE
8
0
70
0
10
-106.074959
20
121.018341
30
85.039040
11
-56.128910
21
177.092712
31
59.291286
12
-82.019073
22
171.486694
32
48.272957
13
-82.019073
23
171.486694
33
48.272957
0
3DFACE
8
0
70
0
10
-103.910355
20
112.928894
30
-69.042404
11
-84.773933
21
154.317810
31
-29.935310
12
-56.303123
22
189.554413
32
-36.493587
13
-56.303123
23
189.554413
33
-36.493587
0
3DFACE
8
0
70
0
10
104.697479
20
141.963196
30
9.600408
11
142.317337
21
154.789551
31
38.444294
12
79.804497
22
169.534119
32
48.192616
13
79.804497
23
169.534119
33
48.192616
0
3DFACE
8
0
70
0
10
180.316498
20
131.027954
30
21.034134
11
142.317337
21
154.789551
31
38.444294
12
104.697479
22
141.963196
32
9.600408
13
104.697479
23
141.963196
33
9.600408
0
3DFACE
8
0
70
0
10
79.804497
20
169.534119
30
48.192616
11
165.587128
21
181.685242
31
-0.576645
12
59.344391
22
183.466614
32
2.174475
13
59.344391
23
183.466614
33
2.174475
0
3DFACE
8
0
70
0
10
79.804497
20
169.534119
30
48.192616
11
142.317337
21
154.789551
31
38.444294
12
165.587128
22
181.685242
32
-0.576645
13
165.587128
23
181.685242
33
-0.576645
0
3DFACE
8
0
70
0
10
81.435661
20
152.602356
30
-28.805628
11
59.344391
21
183.466614
31
2.174475
12
165.587128
22
181.685242
32
-0.576645
13
165.587128
23
181.685242
33
-0.576645
0
3DFACE
8
0
70
0
10
81.435661
20
152.602356
30
-28.805628
11
165.587128
21
181.685242
31
-0.576645
12
198.479416
22
155.593994
32
-11.867872
13
198.479416
23
155.593994
33
-11.867872
0
3DFACE
8
0
70
0
10
104.697479
20
141.963196
30
9.600408
11
81.435661
21
152.602356
31
-28.805628
12
198.479416
22
155.593994
32
-11.867872
13
198.479416
23
155.593994
33
-11.867872
0
3DFACE
8
0
70
0
10
180.316498
20
131.027954
30
21.034134
11
104.697479
21
141.963196
31
9.600408
12
198.479416
22
155.593994
32
-11.867872
13
198.479416
23
155.593994
33
-11.867872
0
3DFACE
8
0
70
0
10
-107.582359
20
145.793823
30
8.703741
11
-82.019073
21
171.486694
31
48.272957
12
-150.077469
22
152.739990
32
51.280193
13
-150.077469
23
152.739990
33
51.280193
0
3DFACE
8
0
70
0
10
-182.742523
20
129.127930
30
25.820372
11
-107.582359
21
145.793823
31
8.703741
12
-150.077469
22
152.739990
32
51.280193
13
-150.077469
23
152.739990
33
51.280193
0
3DFACE
8
0
70
0
10
-82.019073
20
171.486694
30
48.272957
11
-62.333660
21
183.775696
31
2.066022
12
-168.063797
22
182.477203
32
12.099455
13
-168.063797
23
182.477203
33
12.099455
0
3DFACE
8
0
70
0
10
-82.019073
20
171.486694
30
48.272957
11
-168.063797
21
182.477203
31
12.099455
12
-150.077469
22
152.739990
32
51.280193
13
-150.077469
23
152.739990
33
51.280193
0
3DFACE
8
0
70
0
10
-84.773933
20
154.317810
30
-29.935310
11
-168.063797
21
182.477203
31
12.099455
12
-62.333660
22
183.775696
32
2.066022
13
-62.333660
23
183.775696
33
2.066022
0
3DFACE
8
0
70
0
10
-84.773933
20
154.317810
30
-29.935310
11
-196.607620
21
156.148926
31
-6.795198
12
-168.063797
22
182.477203
32
12.099455
13
-168.063797
23
182.477203
33
12.099455
0
3DFACE
8
0
70
0
10
-107.582359
20
145.793823
30
8.703741
11
-196.607620
21
156.148926
31
-6.795198
12
-84.773933
22
154.317810
32
-29.935310
13
-84.773933
23
154.317810
33
-29.935310
0
3DFACE
8
0
70
0
10
-182.742523
20
129.127930
30
25.820372
11
-196.607620
21
156.148926
31
-6.795198
12
-107.582359
22
145.793823
32
8.703741
13
-107.582359
23
145.793823
33
8.703741
0
3DFACE
8
0
70
0
10
-211.677704
20
142.787292
30
59.863209
11
-182.742523
21
129.127930
31
25.820372
12
-150.077469
22
152.739990
32
51.280193
13
-150.077469
23
152.739990
33
51.280193
0
3DFACE
8
0
70
0
10
-211.677704
20
142.787292
30
59.863209
11
-150.077469
21
152.739990
31
51.280193
12
-167.971680
22
161.250916
32
70.412880
13
-167.971680
23
161.250916
33
70.412880
0
3DFACE
8
0
70
0
10
-167.971680
20
161.250916
30
70.412880
11
-150.077469
21
152.739990
31
51.280193
12
-168.063797
22
182.477203
32
12.099455
13
-168.063797
23
182.477203
33
12.099455
0
3DFACE
8
0
70
0
10
-167.971680
20
161.250916
30
70.412880
11
-168.063797
21
182.477203
31
12.099455
12
-199.473999
22
199.385803
32
51.005703
13
-199.473999
23
199.385803
33
51.005703
0
3DFACE
8
0
70
0
10
-236.579559
20
177.126038
30
43.559994
11
-199.473999
21
199.385803
31
51.005703
12
-168.063797
22
182.477203
32
12.099455
13
-168.063797
23
182.477203
33
12.099455
0
3DFACE
8
0
70
0
10
-236.579559
20
177.126038
30
43.559994
11
-168.063797
21
182.477203
31
12.099455
12
-196.607620
22
156.148926
32
-6.795198
13
-196.607620
23
156.148926
33
-6.795198
0
3DFACE
8
0
70
0
10
-211.677704
20
142.787292
30
59.863209
11
-236.579559
21
177.126038
31
43.559994
12
-196.607620
22
156.148926
32
-6.795198
13
-196.607620
23
156.148926
33
-6.795198
0
3DFACE
8
0
70
0
10
-211.677704
20
142.787292
30
59.863209
11
-196.607620
21
156.148926
31
-6.795198
12
-182.742523
22
129.127930
32
25.820372
13
-182.742523
23
129.127930
33
25.820372
0
3DFACE
8
0
70
0
10
185.048050
20
146.126831
30
63.529057
11
142.317337
21
154.789551
31
38.444294
12
180.316498
22
131.027954
32
21.034134
13
180.316498
23
131.027954
33
21.034134
0
3DFACE
8
0
70
0
10
185.048050
20
146.126831
30
63.529057
11
139.849075
21
155.973114
31
48.611980
12
142.317337
22
154.789551
32
38.444294
13
142.317337
23
154.789551
33
38.444294
0
3DFACE
8
0
70
0
10
139.849075
20
155.973114
30
48.611980
11
165.587128
21
181.685242
31
-0.576645
12
142.317337
22
154.789551
32
38.444294
13
142.317337
23
154.789551
33
38.444294
0
3DFACE
8
0
70
0
10
139.849075
20
155.973114
30
48.611980
11
168.932175
21
200.441895
31
48.665268
12
165.587128
22
181.685242
32
-0.576645
13
165.587128
23
181.685242
33
-0.576645
0
3DFACE
8
0
70
0
10
207.752625
20
185.482391
30
62.698978
11
198.479416
21
155.593994
31
-11.867872
12
165.587128
22
181.685242
32
-0.576645
13
165.587128
23
181.685242
33
-0.576645
0
3DFACE
8
0
70
0
10
207.752625
20
185.482391
30
62.698978
11
165.587128
21
181.685242
31
-0.576645
12
168.932175
22
200.441895
32
48.665268
13
168.932175
23
200.441895
33
48.665268
0
3DFACE
8
0
70
0
10
185.048050
20
146.126831
30
63.529057
11
180.316498
21
131.027954
31
21.034134
12
198.479416
22
155.593994
32
-11.867872
13
198.479416
23
155.593994
33
-11.867872
0
3DFACE
8
0
70
0
10
185.048050
20
146.126831
30
63.529057
11
198.479416
21
155.593994
31
-11.867872
12
207.752625
22
185.482391
32
62.698978
13
207.752625
23
185.482391
33
62.698978
0
3DFACE
8
0
70
0
10
-5.833364
20
394.218445
30
-13.015326
11
-1.361711
21
392.502808
31
-14.648609
12
-1.309878
22
353.603455
32
0.903915
13
-17.280066
23
357.394989
33
7.285022
0
3DFACE
8
0
70
0
10
3.109941
20
394.218445
30
-13.015326
11
14.660309
21
357.394989
31
7.285023
12
-1.309878
22
353.603455
32
0.903915
13
-1.361711
23
392.502808
33
-14.648609
0
3DFACE
8
0
70
0
10
6.110888
20
396.765137
30
-10.590980
11
25.377977
21
363.023010
31
16.756868
12
14.660309
22
357.394989
32
7.285023
13
3.109941
23
394.218445
33
-13.015326
0
3DFACE
8
0
70
0
10
5.424227
20
399.370422
30
-8.110873
11
22.925613
21
368.780457
31
26.446510
12
25.377977
22
363.023010
32
16.756868
13
6.110888
23
396.765137
33
-10.590980
0
3DFACE
8
0
70
0
10
4.674212
20
402.600098
30
-5.036270
11
20.246988
21
375.918030
31
38.458820
12
22.925613
22
368.780457
32
26.446510
13
5.424227
23
399.370422
33
-8.110873
0
3DFACE
8
0
70
0
10
1.333712
20
404.168152
30
-3.543496
11
8.316630
21
379.383362
31
44.290981
12
20.246988
22
375.918030
32
38.458820
13
4.674212
23
402.600098
33
-5.036270
0
3DFACE
8
0
70
0
10
-1.361710
20
405.083313
30
-2.672312
11
-1.309877
21
381.405701
31
47.694626
12
8.316630
22
379.383362
32
44.290981
13
1.333712
23
404.168152
33
-3.543496
0
3DFACE
8
0
70
0
10
-1.361710
20
405.083313
30
-2.672312
11
-4.057132
21
404.168152
31
-3.543496
12
-10.936384
22
379.383362
32
44.290981
13
-1.309877
23
381.405701
33
47.694626
0
3DFACE
8
0
70
0
10
-4.057132
20
404.168152
30
-3.543496
11
-7.397633
21
402.600098
31
-5.036271
12
-22.866743
22
375.918030
32
38.458820
13
-10.936384
23
379.383362
33
44.290981
0
3DFACE
8
0
70
0
10
-7.397633
20
402.600098
30
-5.036271
11
-8.147649
21
399.370422
31
-8.110874
12
-25.545370
22
368.780457
32
26.446508
13
-22.866743
23
375.918030
33
38.458820
0
3DFACE
8
0
70
0
10
-8.147649
20
399.370422
30
-8.110874
11
-8.834309
21
396.765198
31
-10.590981
12
-27.997726
22
363.023010
32
16.756866
13
-25.545370
23
368.780457
33
26.446508
0
3DFACE
8
0
70
0
10
-8.834309
20
396.765198
30
-10.590981
11
-5.833364
21
394.218445
31
-13.015326
12
-17.280066
22
357.394989
32
7.285022
13
-27.997726
23
363.023010
33
16.756866
0
ENDSEC
0
EOF
