0
SECTION
2
HEADER
999
DXF File Generated by LightWave 3D(TM)
0
ENDSEC
0
SECTION
2
TABLES
0
ENDSEC
0
SECTION
2
BLOCKS
0
ENDSEC
0
SECTION
2
ENTITIES
0
3DFACE
8
0
70
0
10
-11.833876
20
-0.859619
30
92.118019
11
21.346527
21
9.617935
31
68.373215
12
64.409393
22
7.131805
32
48.079437
13
55.434166
23
5.232178
33
71.811890
0
3DFACE
8
0
70
0
10
68.970947
20
-35.822235
30
-42.615829
11
75.792961
21
-46.792534
31
-16.295065
12
38.859699
22
-73.342590
32
-30.664482
13
7.285548
23
-58.845085
33
-69.500328
0
3DFACE
8
0
70
0
10
-12.887633
20
-0.317947
30
113.670120
11
-11.833876
21
-0.859619
31
92.118019
12
55.434166
22
5.232178
32
71.811890
13
75.854416
23
8.257217
33
88.929840
0
3DFACE
8
0
70
0
10
92.985634
20
-43.698425
30
-55.882023
11
68.970947
21
-35.822235
31
-42.615829
12
7.285548
22
-58.845085
32
-69.500328
13
10.924763
23
-72.536285
33
-87.618370
0
3DFACE
8
0
70
0
10
-14.925986
20
7.244141
30
124.325340
11
79.445343
21
15.551926
31
96.148529
12
83.500717
22
69.799835
32
83.214256
13
-25.187284
23
59.467163
33
110.531876
0
3DFACE
8
0
70
0
10
98.803627
20
-43.157944
30
-67.488869
11
11.982021
21
-74.362572
31
-103.130661
12
1.707692
22
-22.134384
32
-116.926498
13
102.859001
23
11.089966
33
-80.423149
0
3DFACE
8
0
70
0
10
-25.187284
20
59.467163
30
110.531876
11
83.500717
21
69.799835
31
83.214256
12
78.246834
22
66.845154
32
74.772491
13
-24.041298
23
56.446594
33
98.677116
0
3DFACE
8
0
70
0
10
-14.925986
20
7.244141
30
124.325340
11
-12.887633
21
-0.317947
31
113.670120
12
75.854416
22
8.257217
32
88.929840
13
79.445343
23
15.551926
33
96.148529
0
3DFACE
8
0
70
0
10
102.859001
20
11.089966
30
-80.423149
11
1.707692
21
-22.134384
31
-116.926498
12
-0.718249
22
-15.551315
32
-102.689728
13
95.378052
23
14.889511
33
-70.039375
0
3DFACE
8
0
70
0
10
98.803627
20
-43.157944
30
-67.488869
11
92.985634
21
-43.698425
31
-55.882023
12
10.924763
22
-72.536285
32
-87.618370
13
11.982021
23
-74.362572
33
-103.130661
0
3DFACE
8
0
70
0
10
52.176582
20
43.122574
30
153.297897
11
99.316528
21
43.122574
31
153.297897
12
91.480225
22
42.509918
32
127.905312
13
58.490707
23
42.405487
33
128.058395
0
3DFACE
8
0
70
0
10
55.434166
20
5.232178
30
71.811890
11
64.409393
21
7.131805
31
48.079437
12
81.025337
22
-18.846085
32
18.218353
13
77.585800
23
-11.614792
33
16.528639
0
3DFACE
8
0
70
0
10
75.854416
20
8.257217
30
88.929840
11
55.434166
21
5.232178
31
71.811890
12
77.585800
22
-11.614792
32
16.528639
13
104.933624
23
-12.703049
33
19.386673
0
3DFACE
8
0
70
0
10
83.500717
20
69.799835
30
83.214256
11
79.445343
21
15.551926
31
96.148529
12
110.754791
22
-7.967941
32
18.775633
13
118.116531
23
46.967773
33
5.985728
0
3DFACE
8
0
70
0
10
118.116531
20
46.967773
30
5.985728
11
110.437813
21
46.532211
31
5.365200
12
78.246834
22
66.845154
32
74.772491
13
83.500717
23
69.799835
33
83.214256
0
3DFACE
8
0
70
0
10
79.445343
20
15.551926
30
96.148529
11
75.854416
21
8.257217
31
88.929840
12
104.933624
22
-12.703049
32
19.386673
13
110.754791
23
-7.967941
33
18.775633
0
3DFACE
8
0
70
0
10
37.409695
20
24.300827
30
180.889526
11
104.593094
21
24.196396
31
181.042633
12
99.316528
22
43.122574
32
153.297897
13
52.176582
23
43.122574
33
153.297897
0
3DFACE
8
0
70
0
10
-25.376297
20
162.254944
30
-22.568611
11
41.976154
21
151.591919
31
-23.595238
12
30.731501
22
136.114685
32
-60.529232
13
-18.474730
23
133.084717
33
-66.538635
0
3DFACE
8
0
70
0
10
77.585800
20
-11.614792
30
16.528639
11
81.025337
21
-18.846085
31
18.218353
12
75.792961
22
-46.792534
32
-16.295065
13
68.970947
23
-35.822235
33
-42.615829
0
3DFACE
8
0
70
0
10
104.933624
20
-12.703049
30
19.386673
11
77.585800
21
-11.614792
31
16.528639
12
68.970947
22
-35.822235
32
-42.615829
13
92.985634
23
-43.698425
33
-55.882023
0
3DFACE
8
0
70
0
10
110.754791
20
-7.967941
30
18.775633
11
98.803627
21
-43.157944
31
-67.488869
12
102.859001
22
11.089966
32
-80.423149
13
118.116531
23
46.967773
33
5.985728
0
3DFACE
8
0
70
0
10
102.859001
20
11.089966
30
-80.423149
11
95.378052
21
14.889511
31
-70.039375
12
110.437813
22
46.532211
32
5.365200
13
118.116531
23
46.967773
33
5.985728
0
3DFACE
8
0
70
0
10
110.754791
20
-7.967941
30
18.775633
11
104.933624
21
-12.703049
31
19.386673
12
92.985634
22
-43.698425
32
-55.882023
13
98.803627
23
-43.157944
33
-67.488869
0
3DFACE
8
0
70
0
10
30.626677
20
-21.618652
30
47.833641
11
21.346527
21
9.617935
31
68.373215
12
23.404423
22
-36.179237
32
22.485647
13
27.017385
23
-43.630844
33
28.807718
0
3DFACE
8
0
70
0
10
30.626677
20
-21.618652
30
47.833641
11
71.746964
21
-15.715088
31
36.601063
12
64.409393
22
7.131805
32
48.079437
13
21.346527
23
9.617935
33
68.373215
0
3DFACE
8
0
70
0
10
71.746964
20
-15.715088
30
36.601063
11
84.262527
21
-25.039192
31
22.828188
12
81.025337
22
-18.846085
32
18.218353
13
64.409393
23
7.131805
33
48.079437
0
3DFACE
8
0
70
0
10
27.017385
20
-43.630844
30
28.807718
11
23.404423
21
-36.179237
31
22.485647
12
38.859699
22
-73.342590
32
-30.664482
13
38.529892
23
-61.630035
33
7.366044
0
3DFACE
8
0
70
0
10
84.262527
20
-25.039192
30
22.828188
11
76.884048
21
-41.722488
31
10.297123
12
75.792961
22
-46.792534
32
-16.295065
13
81.025337
23
-18.846085
33
18.218353
0
3DFACE
8
0
70
0
10
76.884048
20
-41.722488
30
10.297123
11
38.529892
21
-61.630035
31
7.366044
12
38.859699
22
-73.342590
32
-30.664482
13
75.792961
23
-46.792534
33
-16.295065
0
3DFACE
8
0
70
0
10
51.183517
20
-55.479095
30
98.402443
11
52.176575
21
-10.251999
31
127.036537
12
58.490700
22
-5.919052
32
106.882050
13
45.861088
23
-29.053452
33
75.502014
0
3DFACE
8
0
70
0
10
45.861088
20
-29.053452
30
75.502014
11
58.490700
21
-5.919052
31
106.882050
12
91.480217
22
-7.946625
32
109.854347
13
81.405891
23
-28.535767
33
73.240715
0
3DFACE
8
0
70
0
10
97.318069
20
-41.530464
30
88.807671
11
81.405891
21
-28.535767
31
73.240715
12
91.480217
22
-7.946625
32
109.854347
13
99.316521
23
-10.251999
33
127.036537
0
3DFACE
8
0
70
0
10
48.409302
20
-86.128723
30
124.452980
11
41.113564
21
-32.273804
31
139.601273
12
52.176575
22
-10.251999
32
127.036537
13
51.183517
23
-55.479095
33
98.402443
0
3DFACE
8
0
70
0
10
115.716225
20
-63.826210
30
109.438393
11
97.318069
21
-41.530464
31
88.807671
12
99.316521
22
-10.251999
32
127.036537
13
108.296951
23
-29.273720
33
141.775986
0
3DFACE
8
0
70
0
10
115.716225
20
-63.826210
30
109.438393
11
108.296951
21
-29.273720
31
141.775986
12
41.113564
22
-32.273804
32
139.601273
13
48.409302
23
-86.128723
33
124.452980
0
3DFACE
8
0
70
0
10
52.176582
20
43.122574
30
153.297897
11
58.490707
21
42.405487
31
128.058395
12
58.490700
22
-5.919052
32
106.882050
13
52.176575
23
-10.251999
33
127.036537
0
3DFACE
8
0
70
0
10
58.490707
20
42.405487
30
128.058395
11
91.480225
21
42.509918
31
127.905312
12
91.480217
22
-7.946625
32
109.854347
13
58.490700
23
-5.919052
33
106.882050
0
3DFACE
8
0
70
0
10
99.316528
20
43.122574
30
153.297897
11
99.316521
21
-10.251999
31
127.036537
12
91.480217
22
-7.946625
32
109.854347
13
91.480225
23
42.509918
33
127.905312
0
3DFACE
8
0
70
0
10
37.409695
20
24.300827
30
180.889526
11
52.176582
21
43.122574
31
153.297897
12
52.176575
22
-10.251999
32
127.036537
13
41.113564
23
-32.273804
33
139.601273
0
3DFACE
8
0
70
0
10
104.593094
20
24.196396
30
181.042633
11
108.296951
21
-29.273720
31
141.775986
12
99.316521
22
-10.251999
32
127.036537
13
99.316528
23
43.122574
33
153.297897
0
3DFACE
8
0
70
0
10
104.593094
20
24.196396
30
181.042633
11
37.409695
21
24.300827
31
180.889526
12
41.113564
22
-32.273804
32
139.601273
13
108.296951
23
-29.273720
33
141.775986
0
3DFACE
8
0
70
0
10
-95.800072
20
95.201019
30
103.844055
11
-86.384926
21
111.132477
31
118.156395
12
-95.780060
22
117.287109
32
99.463966
13
-93.907196
23
101.044342
33
85.501282
0
3DFACE
8
0
70
0
10
73.055954
20
122.428802
30
-39.310867
11
30.731501
21
136.114685
31
-60.529232
12
41.976154
22
151.591919
32
-23.595238
13
41.976154
23
151.591919
33
-23.595238
0
3DFACE
8
0
70
0
10
42.581799
20
138.275635
30
19.045029
11
41.976154
21
151.591919
31
-23.595238
12
23.619978
22
141.449341
32
33.653625
13
23.619978
23
141.449341
33
33.653625
0
3DFACE
8
0
70
0
10
60.162231
20
119.908325
30
67.119446
11
64.877045
21
93.303665
31
107.522141
12
29.179173
22
87.746246
32
109.816658
13
24.296804
23
116.759064
33
70.019577
0
3DFACE
8
0
70
0
10
60.061024
20
151.635986
30
109.741608
11
60.162231
21
119.908325
31
67.119446
12
24.296804
22
116.759064
32
70.019577
13
23.989214
23
150.343628
33
111.839508
0
3DFACE
8
0
70
0
10
28.571348
20
119.339142
30
143.919205
11
64.511711
21
122.533630
31
142.314682
12
60.061024
22
151.635986
32
109.741608
13
23.989214
23
150.343628
33
111.839508
0
3DFACE
8
0
70
0
10
64.877045
20
93.303665
30
107.522141
11
64.511711
21
122.533630
31
142.314682
12
28.571348
22
119.339142
32
143.919205
13
29.179173
23
87.746246
33
109.816658
0
3DFACE
8
0
70
0
10
30.195889
20
76.249451
30
110.489555
11
-3.344051
21
70.093887
31
112.688820
12
-9.303629
22
113.746887
32
60.763447
13
23.566860
23
116.672272
33
57.893818
0
3DFACE
8
0
70
0
10
23.566860
20
116.672272
30
57.893818
11
-9.303629
21
113.746887
31
60.763447
12
-9.371908
22
162.706604
32
114.878670
13
22.966101
23
163.250244
33
113.028969
0
3DFACE
8
0
70
0
10
-3.751939
20
117.097839
30
156.742813
11
29.209257
21
120.077972
31
155.441330
12
22.966101
22
163.250244
32
113.028969
13
-9.371908
23
162.706604
33
114.878670
0
3DFACE
8
0
70
0
10
30.195889
20
76.249451
30
110.489555
11
29.209257
21
120.077972
31
155.441330
12
-3.751939
22
117.097839
32
156.742813
13
-3.344051
23
70.093887
33
112.688820
0
3DFACE
8
0
70
0
10
30.195889
20
76.249451
30
110.489555
11
23.566860
21
116.672272
31
57.893818
12
24.296804
22
116.759064
32
70.019577
13
29.179173
23
87.746246
33
109.816658
0
3DFACE
8
0
70
0
10
-3.344051
20
70.093887
30
112.688820
11
-4.441304
21
82.512268
31
111.977676
12
-8.589653
22
113.871307
32
72.678818
13
-9.303629
23
113.746887
33
60.763447
0
3DFACE
8
0
70
0
10
23.566860
20
116.672272
30
57.893818
11
22.966101
21
163.250244
31
113.028969
12
23.989214
22
150.343628
32
111.839508
13
24.296804
23
116.759064
33
70.019577
0
3DFACE
8
0
70
0
10
-9.303629
20
113.746887
30
60.763447
11
-8.589653
21
113.871307
31
72.678818
12
-8.295075
22
149.186890
32
113.717171
13
-9.371908
23
162.706604
33
114.878670
0
3DFACE
8
0
70
0
10
-3.751939
20
117.097839
30
156.742813
11
-9.371908
21
162.706604
31
114.878670
12
-8.295075
22
149.186890
32
113.717171
13
-4.383827
23
116.409912
33
145.390457
0
3DFACE
8
0
70
0
10
29.209257
20
120.077972
30
155.441330
11
28.571348
21
119.339142
31
143.919205
12
23.989214
22
150.343628
32
111.839508
13
22.966101
23
163.250244
33
113.028969
0
3DFACE
8
0
70
0
10
-3.344051
20
70.093887
30
112.688820
11
-3.751939
21
117.097839
31
156.742813
12
-4.383827
22
116.409912
32
145.390457
13
-4.441304
23
82.512268
33
111.977676
0
3DFACE
8
0
70
0
10
30.195889
20
76.249451
30
110.489555
11
29.179173
21
87.746246
31
109.816658
12
28.571348
22
119.339142
32
143.919205
13
29.209257
23
120.077972
33
155.441330
0
3DFACE
8
0
70
0
10
5.614132
20
95.856567
30
114.299812
11
7.862379
21
107.699005
31
83.830322
12
-8.589653
22
113.871307
32
72.678818
13
-4.441304
23
82.512268
33
111.977676
0
3DFACE
8
0
70
0
10
7.862379
20
107.699005
30
83.830322
11
4.222091
21
136.086121
31
104.396461
12
-8.295075
22
149.186890
32
113.717171
13
-8.589653
23
113.871307
33
72.678818
0
3DFACE
8
0
70
0
10
2.673694
20
122.056030
30
130.210419
11
-4.383827
21
116.409912
31
145.390457
12
-8.295075
22
149.186890
32
113.717171
13
4.222091
23
136.086121
33
104.396461
0
3DFACE
8
0
70
0
10
5.614132
20
95.856567
30
114.299812
11
-4.441304
21
82.512268
31
111.977676
12
-4.383827
22
116.409912
32
145.390457
13
2.673694
23
122.056030
33
130.210419
0
3DFACE
8
0
70
0
10
-37.307495
20
84.588898
30
60.569363
11
-37.430309
21
94.960297
31
56.955551
12
-24.611341
22
96.562408
32
57.983849
13
-24.455706
23
86.160339
33
61.491791
0
3DFACE
8
0
70
0
10
-37.430309
20
94.960297
30
56.955551
11
-37.697823
21
105.925873
31
53.959770
12
-24.884073
22
107.489166
32
54.868546
13
-24.611341
23
96.562408
33
57.983849
0
3DFACE
8
0
70
0
10
-31.590387
20
122.662079
30
139.794144
11
2.673694
21
122.056030
31
130.210419
12
4.222091
22
136.086121
32
104.396461
13
-29.033543
23
134.036926
33
105.391533
0
3DFACE
8
0
70
0
10
-27.621944
20
93.465118
30
114.212563
11
5.614132
21
95.856567
31
114.299812
12
2.673694
22
122.056030
32
130.210419
13
-31.590387
23
122.662079
33
139.794144
0
3DFACE
8
0
70
0
10
-95.800072
20
95.201019
30
103.844055
11
-93.907196
21
101.044342
31
85.501282
12
-39.637474
22
103.725220
32
78.531609
13
-27.621944
23
93.465118
33
114.212563
0
3DFACE
8
0
70
0
10
-93.907196
20
101.044342
30
85.501282
11
-95.780060
21
117.287109
31
99.463966
12
-29.033543
22
134.036926
32
105.391533
13
-39.637474
23
103.725220
33
78.531609
0
3DFACE
8
0
70
0
10
-86.384926
20
111.132477
30
118.156395
11
-31.590387
21
122.662079
31
139.794144
12
-29.033543
22
134.036926
32
105.391533
13
-95.780060
23
117.287109
33
99.463966
0
3DFACE
8
0
70
0
10
-95.800072
20
95.201019
30
103.844055
11
-27.621944
21
93.465118
31
114.212563
12
-31.590387
22
122.662079
32
139.794144
13
-86.384926
23
111.132477
33
118.156395
0
3DFACE
8
0
70
0
10
-37.307495
20
84.588898
30
60.569363
11
-24.455706
21
86.160339
31
61.491791
12
5.614132
22
95.856567
32
114.299812
13
-27.621944
23
93.465118
33
114.212563
0
3DFACE
8
0
70
0
10
-24.455706
20
86.160339
30
61.491791
11
-24.611341
21
96.562408
31
57.983849
12
7.862379
22
107.699005
32
83.830322
13
5.614132
23
95.856567
33
114.299812
0
3DFACE
8
0
70
0
10
-37.307495
20
84.588898
30
60.569363
11
-27.621944
21
93.465118
31
114.212563
12
-39.637474
22
103.725220
32
78.531609
13
-37.430309
23
94.960297
33
56.955551
0
3DFACE
8
0
70
0
10
-24.611341
20
96.562408
30
57.983849
11
-24.884073
21
107.489166
31
54.868546
12
4.222091
22
136.086121
32
104.396461
13
7.862379
23
107.699005
33
83.830322
0
3DFACE
8
0
70
0
10
-37.697823
20
105.925873
30
53.959770
11
-29.033543
21
134.036926
31
105.391533
12
4.222091
22
136.086121
32
104.396461
13
-24.884073
23
107.489166
33
54.868546
0
3DFACE
8
0
70
0
10
-37.430309
20
94.960297
30
56.955551
11
-39.637474
21
103.725220
31
78.531609
12
-29.033543
22
134.036926
32
105.391533
13
-37.697823
23
105.925873
33
53.959770
0
3DFACE
8
0
70
0
10
-11.833876
20
-0.859619
30
92.118019
11
-74.014503
21
-21.696136
31
66.159477
12
-74.654320
22
-94.040817
32
23.804382
13
-36.975388
23
-104.119362
33
47.354988
0
3DFACE
8
0
70
0
10
-60.477726
20
-62.750542
30
-48.268234
11
7.285548
21
-58.845085
31
-69.500328
12
-20.964382
22
-32.977051
32
-33.261467
13
-64.247169
23
-47.798325
33
-28.596313
0
3DFACE
8
0
70
0
10
-12.887633
20
-0.317947
30
113.670120
11
-95.303787
21
-27.347641
31
81.456177
12
-74.014503
22
-21.696136
32
66.159477
13
-11.833876
23
-0.859619
33
92.118019
0
3DFACE
8
0
70
0
10
-78.172569
20
-79.303284
30
-63.355686
11
10.924763
21
-72.536285
31
-87.618370
12
7.285548
22
-58.845085
32
-69.500328
13
-60.477726
23
-62.750542
33
-48.268234
0
3DFACE
8
0
70
0
10
-14.925986
20
7.244141
30
124.325340
11
-25.187284
21
59.467163
31
110.531876
12
-126.309235
22
26.154526
32
74.052856
13
-102.091171
23
-22.211853
33
88.221695
0
3DFACE
8
0
70
0
10
-82.732895
20
-80.921722
30
-75.415710
11
-106.950951
21
-32.555344
31
-89.584549
12
1.707692
22
-22.134384
32
-116.926498
13
11.982021
23
-74.362572
33
-103.130661
0
3DFACE
8
0
70
0
10
-25.187284
20
59.467163
30
110.531876
11
-24.041298
21
56.446594
31
98.677116
12
-119.628067
22
25.682617
32
66.132240
13
-126.309235
23
26.154526
33
74.052856
0
3DFACE
8
0
70
0
10
-14.925986
20
7.244141
30
124.325340
11
-102.091171
21
-22.211853
31
88.221695
12
-95.303787
22
-27.347641
32
81.456177
13
-12.887633
23
-0.317947
33
113.670120
0
3DFACE
8
0
70
0
10
-106.950951
20
-32.555344
30
-89.584549
11
-102.496841
21
-26.273026
31
-78.679626
12
-0.718249
22
-15.551315
32
-102.689728
13
1.707692
23
-22.134384
33
-116.926498
0
3DFACE
8
0
70
0
10
-82.732895
20
-80.921722
30
-75.415710
11
11.982021
21
-74.362572
31
-103.130661
12
10.924763
22
-72.536285
32
-87.618370
13
-78.172569
23
-79.303284
33
-63.355686
0
3DFACE
8
0
70
0
10
-19.595398
20
-178.617615
30
64.740501
11
-26.010143
21
-158.898361
31
49.011013
12
-58.999432
22
-158.746201
32
49.171852
13
-66.734695
23
-178.664673
33
64.982803
0
3DFACE
8
0
70
0
10
-74.014503
20
-21.696136
30
66.159477
11
-82.925682
21
-45.004883
31
9.519867
12
-78.942070
22
-75.026649
32
-5.790071
13
-74.654320
23
-94.040817
33
23.804382
0
3DFACE
8
0
70
0
10
-95.303787
20
-27.347641
30
81.456177
11
-107.714790
21
-56.938812
31
10.101330
12
-82.925682
22
-45.004883
32
9.519867
13
-74.014503
23
-21.696136
33
66.159477
0
3DFACE
8
0
70
0
10
-126.309235
20
26.154526
30
74.052856
11
-142.390915
21
-7.223785
31
-5.389391
12
-114.866486
22
-54.902367
32
8.923826
13
-102.091171
23
-22.211853
33
88.221695
0
3DFACE
8
0
70
0
10
-142.390915
20
-7.223785
30
-5.389391
11
-126.309235
21
26.154526
31
74.052856
12
-119.628067
22
25.682617
32
66.132240
13
-135.150818
23
-4.555878
33
-5.358485
0
3DFACE
8
0
70
0
10
-102.091171
20
-22.211853
30
88.221695
11
-114.866486
21
-54.902367
31
8.923826
12
-107.714790
22
-56.938812
32
10.101330
13
-95.303787
23
-27.347641
33
81.456177
0
3DFACE
8
0
70
0
10
-4.787326
20
-211.965729
30
66.237854
11
-19.595398
21
-178.617615
31
64.740501
12
-66.734695
22
-178.664673
32
64.982803
13
-71.969566
23
-212.217896
33
66.591904
0
3DFACE
8
0
70
0
10
-25.376297
20
162.254944
30
-22.568611
11
-18.474730
21
133.084717
31
-66.538635
12
-77.360039
22
120.048126
32
-63.901699
13
-84.129280
23
140.202606
33
-23.534355
0
3DFACE
8
0
70
0
10
-82.925682
20
-45.004883
30
9.519867
11
-60.477726
21
-62.750542
31
-48.268234
12
-64.247169
22
-47.798325
32
-28.596313
13
-78.942070
23
-75.026649
33
-5.790071
0
3DFACE
8
0
70
0
10
-107.714790
20
-56.938812
30
10.101330
11
-78.172569
21
-79.303284
31
-63.355686
12
-60.477726
22
-62.750542
32
-48.268234
13
-82.925682
23
-45.004883
33
9.519867
0
3DFACE
8
0
70
0
10
-114.866486
20
-54.902367
30
8.923826
11
-142.390915
21
-7.223785
31
-5.389391
12
-106.950951
22
-32.555344
32
-89.584549
13
-82.732895
23
-80.921722
33
-75.415710
0
3DFACE
8
0
70
0
10
-106.950951
20
-32.555344
30
-89.584549
11
-142.390915
21
-7.223785
31
-5.389391
12
-135.150818
22
-4.555878
32
-5.358485
13
-102.496841
23
-26.273026
33
-78.679626
0
3DFACE
8
0
70
0
10
-114.866486
20
-54.902367
30
8.923826
11
-82.732895
21
-80.921722
31
-75.415710
12
-78.172569
22
-79.303284
32
-63.355686
13
-107.714790
23
-56.938812
33
10.101330
0
3DFACE
8
0
70
0
10
-28.858908
20
-107.057678
30
7.882088
11
-17.769093
21
-84.045433
31
-4.153111
12
-20.625631
22
-71.610474
32
7.813053
13
-36.975388
23
-104.119362
33
47.354988
0
3DFACE
8
0
70
0
10
-28.858908
20
-107.057678
30
7.882088
11
-36.975388
21
-104.119362
31
47.354988
12
-74.654320
22
-94.040817
32
23.804382
13
-67.898834
23
-99.167061
33
-9.220834
0
3DFACE
8
0
70
0
10
-67.898834
20
-99.167061
30
-9.220834
11
-74.654320
21
-94.040817
31
23.804382
12
-78.942070
22
-75.026649
32
-5.790071
13
-75.816345
23
-84.500610
33
-21.430056
0
3DFACE
8
0
70
0
10
-17.769093
20
-84.045433
30
-4.153111
11
-21.692753
21
-60.162903
31
-21.317789
12
-20.964382
22
-32.977051
32
-33.261467
13
-20.625631
23
-71.610474
33
7.813053
0
3DFACE
8
0
70
0
10
-75.816345
20
-84.500610
30
-21.430056
11
-78.942070
21
-75.026649
31
-5.790071
12
-64.247169
22
-47.798325
32
-28.596313
13
-63.240833
23
-68.685455
33
-28.200750
0
3DFACE
8
0
70
0
10
-63.240833
20
-68.685455
30
-28.200750
11
-64.247169
21
-47.798325
31
-28.596313
12
-20.964382
22
-32.977051
32
-33.261467
13
-21.692753
23
-60.162903
33
-21.317789
0
3DFACE
8
0
70
0
10
-20.584644
20
-166.925781
30
-29.511625
11
-28.877590
21
-137.187561
31
-5.897552
12
-26.236629
22
-172.497406
32
6.073765
13
-19.909874
23
-192.671829
33
9.171516
0
3DFACE
8
0
70
0
10
-28.877590
20
-137.187561
30
-5.897552
11
-61.521912
21
-138.822433
31
-20.906832
12
-59.225159
22
-175.969482
32
5.280816
13
-26.236629
23
-172.497406
33
6.073765
0
3DFACE
8
0
70
0
10
-69.359940
20
-159.829346
30
-38.115623
11
-67.049683
21
-192.681244
31
9.219975
12
-59.225159
22
-175.969482
32
5.280816
13
-61.521912
23
-138.822433
33
-20.906832
0
3DFACE
8
0
70
0
10
-2.851933
20
-199.784256
30
-53.050655
11
-20.584644
21
-166.925781
31
-29.511625
12
-19.909874
22
-192.671829
32
9.171516
13
-8.852550
23
-212.066269
33
-6.779529
0
3DFACE
8
0
70
0
10
-74.954964
20
-188.034012
30
-64.004967
11
-76.031960
21
-213.032883
31
-3.167344
12
-67.049683
22
-192.681244
32
9.219975
13
-69.359940
23
-159.829346
33
-38.115623
0
3DFACE
8
0
70
0
10
-74.954964
20
-188.034012
30
-64.004967
11
-2.851933
21
-199.784256
31
-53.050655
12
-8.852550
22
-212.066269
32
-6.779529
13
-76.031960
23
-213.032883
33
-3.167344
0
3DFACE
8
0
70
0
10
-19.595398
20
-178.617615
30
64.740501
11
-19.909874
21
-192.671829
31
9.171516
12
-26.236629
22
-172.497406
32
6.073765
13
-26.010143
23
-158.898361
33
49.011013
0
3DFACE
8
0
70
0
10
-26.010143
20
-158.898361
30
49.011013
11
-26.236629
21
-172.497406
31
6.073765
12
-59.225159
22
-175.969482
32
5.280816
13
-58.999432
23
-158.746201
33
49.171852
0
3DFACE
8
0
70
0
10
-66.734695
20
-178.664673
30
64.982803
11
-58.999432
21
-158.746201
31
49.171852
12
-59.225159
22
-175.969482
32
5.280816
13
-67.049683
23
-192.681244
33
9.219975
0
3DFACE
8
0
70
0
10
-4.787326
20
-211.965729
30
66.237854
11
-8.852550
21
-212.066269
31
-6.779529
12
-19.909874
22
-192.671829
32
9.171516
13
-19.595398
23
-178.617615
33
64.740501
0
3DFACE
8
0
70
0
10
-71.969566
20
-212.217896
30
66.591904
11
-66.734695
21
-178.664673
31
64.982803
12
-67.049683
22
-192.681244
32
9.219975
13
-76.031960
23
-213.032883
33
-3.167344
0
3DFACE
8
0
70
0
10
-71.969566
20
-212.217896
30
66.591904
11
-76.031960
21
-213.032883
31
-3.167344
12
-8.852550
22
-212.066269
32
-6.779529
13
-4.787326
23
-211.965729
33
66.237854
0
3DFACE
8
0
70
0
10
81.702927
20
59.758942
30
119.383652
11
82.267906
21
65.572205
31
100.942627
12
81.363197
22
81.836914
32
114.975883
13
69.605392
23
75.219604
33
132.108337
0
3DFACE
8
0
70
0
10
-100.815468
20
106.531891
30
-46.096214
11
-84.129280
21
140.202606
31
-23.534355
12
-77.360039
22
120.048126
32
-63.901699
13
-77.360039
23
120.048126
33
-63.901699
0
3DFACE
8
0
70
0
10
-88.363007
20
119.605530
30
15.139408
11
-84.065704
21
124.091736
31
30.010159
12
-84.129280
22
140.202606
32
-23.534355
13
-84.129280
23
140.202606
33
-23.534355
0
3DFACE
8
0
70
0
10
-69.549194
20
94.525848
30
62.615051
11
-36.391323
21
96.386673
31
76.818954
12
-42.244991
22
52.280151
32
98.492401
13
-76.131035
23
52.293091
33
85.755722
0
3DFACE
8
0
70
0
10
-89.902672
20
103.373840
30
110.892914
11
-56.912102
21
107.259827
31
125.167648
12
-36.391323
22
96.386673
32
76.818954
13
-69.549194
23
94.525848
33
62.615051
0
3DFACE
8
0
70
0
10
-59.922165
20
64.903061
30
139.597672
11
-56.912102
21
107.259827
31
125.167648
12
-89.902672
22
103.373840
32
110.892914
13
-93.492584
23
62.490265
33
126.494408
0
3DFACE
8
0
70
0
10
-76.131035
20
52.293091
30
85.755722
11
-42.244991
21
52.280151
31
98.492401
12
-59.922165
22
64.903061
32
139.597672
13
-93.492584
23
62.490265
33
126.494408
0
3DFACE
8
0
70
0
10
-39.875576
20
41.704910
30
94.465843
11
-32.605782
21
101.853210
31
66.652290
12
-2.258872
22
103.429626
32
79.837181
13
-7.766690
23
40.852188
33
106.125488
0
3DFACE
8
0
70
0
10
-32.605782
20
101.853210
30
66.652290
11
-60.176144
21
118.242645
31
131.313080
12
-30.778389
22
122.280853
32
144.310318
13
-2.258872
23
103.429626
33
79.837181
0
3DFACE
8
0
70
0
10
-32.820263
20
62.539352
30
161.372925
11
-30.778389
21
122.280853
31
144.310318
12
-60.176144
22
118.242645
32
131.313080
13
-63.666500
23
60.294830
33
149.520203
0
3DFACE
8
0
70
0
10
-39.875576
20
41.704910
30
94.465843
11
-7.766690
21
40.852188
31
106.125488
12
-32.820263
22
62.539352
32
161.372925
13
-63.666500
23
60.294830
33
149.520203
0
3DFACE
8
0
70
0
10
-39.875576
20
41.704910
30
94.465843
11
-42.244991
21
52.280151
31
98.492401
12
-36.391323
22
96.386673
32
76.818954
13
-32.605782
23
101.853210
33
66.652290
0
3DFACE
8
0
70
0
10
-7.766690
20
40.852188
30
106.125488
11
-2.258872
21
103.429626
31
79.837181
12
-5.987523
22
98.092896
32
89.843063
13
-10.330918
23
52.267975
33
110.487923
0
3DFACE
8
0
70
0
10
-32.605782
20
101.853210
30
66.652290
11
-36.391323
21
96.386673
31
76.818954
12
-56.912102
22
107.259827
32
125.167648
13
-60.176144
23
118.242645
33
131.313080
0
3DFACE
8
0
70
0
10
-2.258872
20
103.429626
30
79.837181
11
-30.778389
21
122.280853
31
144.310318
12
-27.385519
22
110.737701
32
137.943573
13
-5.987523
23
98.092896
33
89.843063
0
3DFACE
8
0
70
0
10
-32.820263
20
62.539352
30
161.372925
11
-29.140091
21
67.115402
31
151.612564
12
-27.385519
22
110.737701
32
137.943573
13
-30.778389
23
122.280853
33
144.310318
0
3DFACE
8
0
70
0
10
-63.666500
20
60.294830
30
149.520203
11
-60.176144
21
118.242645
31
131.313080
12
-56.912102
22
107.259827
32
125.167648
13
-59.922165
23
64.903061
33
139.597672
0
3DFACE
8
0
70
0
10
-7.766690
20
40.852188
30
106.125488
11
-10.330918
21
52.267975
31
110.487923
12
-29.140091
22
67.115402
32
151.612564
13
-32.820263
23
62.539352
33
161.372925
0
3DFACE
8
0
70
0
10
-39.875576
20
41.704910
30
94.465843
11
-63.666500
21
60.294830
31
149.520203
12
-59.922165
22
64.903061
32
139.597672
13
-42.244991
23
52.280151
33
98.492401
0
3DFACE
8
0
70
0
10
-21.373138
20
57.817123
30
114.185463
11
-10.330918
21
52.267975
31
110.487923
12
-5.987523
22
98.092896
32
89.843063
13
-19.223583
23
75.438507
33
88.995193
0
3DFACE
8
0
70
0
10
-19.223583
20
75.438507
30
88.995193
11
-5.987523
21
98.092896
31
89.843063
12
-27.385519
22
110.737701
32
137.943573
13
-24.399094
23
96.715607
33
113.350601
0
3DFACE
8
0
70
0
10
-25.927713
20
78.135376
30
133.851974
11
-24.399094
21
96.715607
31
113.350601
12
-27.385519
22
110.737701
32
137.943573
13
-29.140091
23
67.115402
33
151.612564
0
3DFACE
8
0
70
0
10
-21.373138
20
57.817123
30
114.185463
11
-25.927713
21
78.135376
31
133.851974
12
-29.140091
22
67.115402
32
151.612564
13
-10.330918
23
52.267975
33
110.487923
0
3DFACE
8
0
70
0
10
30.708097
20
46.744659
30
68.033394
11
17.803843
21
47.751572
31
67.055901
12
18.018848
22
58.161591
32
63.574753
13
30.907518
23
57.122925
33
64.442810
0
3DFACE
8
0
70
0
10
30.907518
20
57.122925
30
64.442810
11
18.018848
21
58.161591
31
63.574753
12
18.269156
22
69.099640
32
60.497467
13
31.133463
23
68.099152
33
61.482861
0
3DFACE
8
0
70
0
10
11.780216
20
84.281738
30
145.438309
11
13.803310
21
95.643097
31
110.995735
12
-24.399094
22
96.715607
32
113.350601
13
-25.927713
23
78.135376
33
133.851974
0
3DFACE
8
0
70
0
10
12.882504
20
55.020630
30
119.646828
11
11.780216
21
84.281738
31
145.438309
12
-25.927713
22
78.135376
32
133.851974
13
-21.373138
23
57.817123
33
114.185463
0
3DFACE
8
0
70
0
10
81.702927
20
59.758942
30
119.383652
11
12.882504
21
55.020630
31
119.646828
12
29.542437
22
65.907440
32
86.080528
13
82.267906
23
65.572205
33
100.942627
0
3DFACE
8
0
70
0
10
82.267906
20
65.572205
30
100.942627
11
29.542437
21
65.907440
31
86.080528
12
13.803310
22
95.643097
32
110.995735
13
81.363197
23
81.836914
33
114.975883
0
3DFACE
8
0
70
0
10
69.605392
20
75.219604
30
132.108337
11
81.363197
21
81.836914
31
114.975883
12
13.803310
22
95.643097
32
110.995735
13
11.780216
23
84.281738
33
145.438309
0
3DFACE
8
0
70
0
10
81.702927
20
59.758942
30
119.383652
11
69.605392
21
75.219604
31
132.108337
12
11.780216
22
84.281738
32
145.438309
13
12.882504
23
55.020630
33
119.646828
0
3DFACE
8
0
70
0
10
30.708097
20
46.744659
30
68.033394
11
12.882504
21
55.020630
31
119.646828
12
-21.373138
22
57.817123
32
114.185463
13
17.803843
23
47.751572
33
67.055901
0
3DFACE
8
0
70
0
10
17.803843
20
47.751572
30
67.055901
11
-21.373138
21
57.817123
31
114.185463
12
-19.223583
22
75.438507
32
88.995193
13
18.018848
23
58.161591
33
63.574753
0
3DFACE
8
0
70
0
10
30.708097
20
46.744659
30
68.033394
11
30.907518
21
57.122925
31
64.442810
12
29.542437
22
65.907440
32
86.080528
13
12.882504
23
55.020630
33
119.646828
0
3DFACE
8
0
70
0
10
18.018848
20
58.161591
30
63.574753
11
-19.223583
21
75.438507
31
88.995193
12
-24.399094
22
96.715607
32
113.350601
13
18.269156
23
69.099640
33
60.497467
0
3DFACE
8
0
70
0
10
31.133463
20
68.099152
30
61.482861
11
18.269156
21
69.099640
31
60.497467
12
-24.399094
22
96.715607
32
113.350601
13
13.803310
23
95.643097
33
110.995735
0
3DFACE
8
0
70
0
10
30.907518
20
57.122925
30
64.442810
11
31.133463
21
68.099152
31
61.482861
12
13.803310
22
95.643097
32
110.995735
13
29.542437
23
65.907440
33
86.080528
0
3DFACE
8
0
70
0
10
23.404423
20
-36.179237
30
22.485647
11
21.346527
21
9.617935
31
68.373215
12
-11.833876
22
-0.859619
32
92.118019
13
-2.461946
23
-29.282845
33
12.896194
0
3DFACE
8
0
70
0
10
23.404423
20
-36.179237
30
22.485647
11
-2.461946
21
-29.282845
31
12.896194
12
7.285548
22
-58.845085
32
-69.500328
13
38.859699
23
-73.342590
33
-30.664482
0
3DFACE
8
0
70
0
10
7.285548
20
-58.845085
30
-69.500328
11
-2.461946
21
-29.282845
31
12.896194
12
-20.625631
22
-71.610474
32
7.813053
13
-20.964382
23
-32.977051
33
-33.261467
0
3DFACE
8
0
70
0
10
-2.461946
20
-29.282845
30
12.896194
11
-11.833876
21
-0.859619
31
92.118019
12
-36.975388
22
-104.119362
32
47.354988
13
-20.625631
23
-71.610474
33
7.813053
0
3DFACE
8
0
70
0
10
0.006947
20
208.906982
30
70.809586
11
10.031145
21
209.572144
31
65.128815
12
16.197018
22
229.272400
32
64.092636
13
-3.228768
23
228.050293
33
71.222084
0
3DFACE
8
0
70
0
10
-3.228768
20
228.050293
30
71.222084
11
16.197018
21
229.272400
31
64.092636
12
7.728449
22
235.787476
32
60.822510
13
-5.301061
23
237.942505
33
63.836555
0
3DFACE
8
0
70
0
10
10.031145
20
209.572144
30
65.128815
11
11.531884
21
202.801605
31
53.752422
12
19.586237
22
222.281006
32
47.982910
13
16.197018
23
229.272400
33
64.092636
0
3DFACE
8
0
70
0
10
0.006947
20
208.906982
30
70.809586
11
0.731926
21
200.009705
31
60.813271
12
11.531884
22
202.801605
32
53.752422
13
10.031145
23
209.572144
33
65.128815
0
3DFACE
8
0
70
0
10
-5.301061
20
237.942505
30
63.836555
11
7.728449
21
235.787476
31
60.822510
12
9.464327
22
232.148193
32
45.007774
13
-5.798559
23
234.947266
33
49.698154
0
3DFACE
8
0
70
0
10
16.197018
20
229.272400
30
64.092636
11
19.586237
21
222.281006
31
47.982910
12
9.464327
22
232.148193
32
45.007774
13
7.728449
23
235.787476
33
60.822510
0
3DFACE
8
0
70
0
10
-3.486114
20
243.399292
30
43.032433
11
-1.819323
21
234.768646
31
46.795101
12
9.451028
22
232.838165
32
41.835850
13
7.343705
23
251.981628
33
38.274384
0
3DFACE
8
0
70
0
10
9.451028
20
232.838165
30
41.835850
11
18.690495
21
233.517792
31
35.044434
12
20.403070
22
243.290588
32
28.279381
13
7.343705
23
251.981628
33
38.274384
0
3DFACE
8
0
70
0
10
16.196451
20
191.755920
30
77.227211
11
8.968815
21
205.704102
31
61.452690
12
0.326690
22
203.674255
32
64.958267
13
3.442467
23
189.590454
33
78.613258
0
3DFACE
8
0
70
0
10
50.581028
20
200.476929
30
26.852018
11
47.083427
21
210.434387
31
23.582603
12
25.472816
22
205.970795
32
46.591900
13
36.473587
23
187.560059
33
58.895699
0
3DFACE
8
0
70
0
10
8.968815
20
205.704102
30
61.452690
11
16.196451
21
191.755920
31
77.227211
12
33.743538
22
194.304932
32
67.364815
13
23.392427
23
208.378296
33
60.502296
0
3DFACE
8
0
70
0
10
37.611126
20
242.064789
30
14.103455
11
47.480648
21
254.982422
31
8.608414
12
20.793957
22
266.211304
32
21.974960
13
23.653845
23
249.737305
33
28.695112
0
3DFACE
8
0
70
0
10
-12.266265
20
268.908569
30
36.621063
11
-8.578727
21
249.340485
31
43.414059
12
5.775305
22
258.109375
32
38.068474
13
3.836644
23
275.802307
33
28.169743
0
3DFACE
8
0
70
0
10
3.836644
20
275.802307
30
28.169743
11
5.775305
21
258.109375
31
38.068474
12
23.653845
22
249.737305
32
28.695112
13
20.793957
23
266.211304
33
21.974960
0
3DFACE
8
0
70
0
10
8.105914
20
163.937561
30
84.277039
11
23.551144
21
172.780945
31
74.875305
12
18.813297
22
180.249023
32
70.419830
13
5.557804
23
176.732666
33
77.235832
0
3DFACE
8
0
70
0
10
15.674075
20
117.117493
30
76.706055
11
33.523499
21
131.341675
31
68.909218
12
23.551144
22
172.780945
32
74.875305
13
8.105914
23
163.937561
33
84.277039
0
3DFACE
8
0
70
0
10
50.581028
20
200.476929
30
26.852018
11
36.473587
21
187.560059
31
58.895699
12
36.365990
22
181.750946
32
51.260868
13
56.220848
23
191.450195
33
32.964954
0
3DFACE
8
0
70
0
10
36.365990
20
181.750946
30
51.260868
11
52.130814
21
150.348328
31
29.787294
12
56.853523
22
175.189636
32
5.354410
13
56.220848
23
191.450195
33
32.964954
0
3DFACE
8
0
70
0
10
33.523499
20
131.341675
30
68.909218
11
52.130814
21
150.348328
31
29.787294
12
36.365990
22
181.750946
32
51.260868
13
23.551144
23
172.780945
33
74.875305
0
3DFACE
8
0
70
0
10
23.551144
20
172.780945
30
74.875305
11
36.365990
21
181.750946
31
51.260868
12
36.473587
22
187.560059
32
58.895699
13
18.813297
23
180.249023
33
70.419830
0
3DFACE
8
0
70
0
10
3.442467
20
189.590454
30
78.613258
11
5.557804
21
176.732666
31
77.235832
12
18.813297
22
180.249023
32
70.419830
13
16.196451
23
191.755920
33
77.227211
0
3DFACE
8
0
70
0
10
0.326690
20
203.674255
30
64.958267
11
8.968815
21
205.704102
31
61.452690
12
11.531884
22
202.801605
32
53.752422
13
0.731926
23
200.009705
33
60.813271
0
3DFACE
8
0
70
0
10
23.392427
20
208.378296
30
60.502296
11
25.472816
21
205.970795
31
46.591900
12
11.531884
22
202.801605
32
53.752422
13
8.968815
23
205.704102
33
61.452690
0
POINT
8
0
70
0
10
54.844517
20
191.165833
30
48.962585
0
3DFACE
8
0
70
0
10
16.196451
20
191.755920
30
77.227211
11
18.813297
21
180.249023
31
70.419830
12
36.473587
22
187.560059
32
58.895699
13
33.743538
23
194.304932
33
67.364815
0
3DFACE
8
0
70
0
10
33.743538
20
194.304932
30
67.364815
11
54.844517
21
191.165833
31
48.962585
12
23.392427
22
208.378296
32
60.502296
13
23.392427
23
208.378296
33
60.502296
0
3DFACE
8
0
70
0
10
23.392427
20
208.378296
30
60.502296
11
54.844517
21
191.165833
31
48.962585
12
25.472816
22
205.970795
32
46.591900
13
25.472816
23
205.970795
33
46.591900
0
3DFACE
8
0
70
0
10
54.844517
20
191.165833
30
48.962585
11
36.473587
21
187.560059
31
58.895699
12
25.472816
22
205.970795
32
46.591900
13
25.472816
23
205.970795
33
46.591900
0
3DFACE
8
0
70
0
10
36.473587
20
187.560059
30
58.895699
11
54.844517
21
191.165833
31
48.962585
12
33.743538
22
194.304932
32
67.364815
13
33.743538
23
194.304932
33
67.364815
0
3DFACE
8
0
70
0
10
47.480648
20
254.982422
30
8.608414
11
37.611126
21
242.064789
31
14.103455
12
51.731438
22
228.771240
32
-19.814951
13
54.840431
23
230.321777
33
-19.525066
0
3DFACE
8
0
70
0
10
37.611126
20
242.064789
30
14.103455
11
37.693695
21
230.996948
31
17.958523
12
54.485336
22
222.359497
32
-17.256010
13
51.731438
23
228.771240
33
-19.814951
0
3DFACE
8
0
70
0
10
37.693695
20
230.996948
30
17.958523
11
42.394787
21
219.041870
31
21.500982
12
56.820560
22
210.598938
32
-11.334560
13
54.485336
23
222.359497
33
-17.256010
0
3DFACE
8
0
70
0
10
54.840431
20
230.321777
30
-19.525066
11
51.731438
21
228.771240
31
-19.814951
12
35.846291
22
214.842834
32
-42.610477
13
39.672478
23
209.337677
33
-37.625195
0
3DFACE
8
0
70
0
10
54.485336
20
222.359497
30
-17.256010
11
38.105515
21
214.333435
31
-45.955772
12
35.846291
22
214.842834
32
-42.610477
13
51.731438
23
228.771240
33
-19.814951
0
3DFACE
8
0
70
0
10
56.820560
20
210.598938
30
-11.334560
11
37.454552
21
202.434082
31
-43.825497
12
38.105515
22
214.333435
32
-45.955772
13
54.485336
23
222.359497
33
-17.256010
0
3DFACE
8
0
70
0
10
39.672478
20
209.337677
30
-37.625195
11
35.846291
21
214.842834
31
-42.610477
12
-5.714478
22
201.649048
32
-56.274708
13
-3.362287
23
189.536652
33
-50.747513
0
3DFACE
8
0
70
0
10
38.105515
20
214.333435
30
-45.955772
11
-5.919043
21
202.311584
31
-58.017902
12
-5.714478
22
201.649048
32
-56.274708
13
35.846291
23
214.842834
33
-42.610477
0
3DFACE
8
0
70
0
10
37.454552
20
202.434082
30
-43.825497
11
-3.485638
21
189.692932
31
-52.584141
12
-5.919043
22
202.311584
32
-58.017902
13
38.105515
23
214.333435
33
-45.955772
0
3DFACE
8
0
70
0
10
56.853523
20
175.189636
30
5.354410
11
60.170872
21
190.657532
31
-3.735192
12
50.581028
22
200.476929
32
26.852018
13
56.220848
23
191.450195
33
32.964954
0
3DFACE
8
0
70
0
10
42.394787
20
219.041870
30
21.500982
11
47.083427
21
210.434387
31
23.582603
12
56.820560
22
210.598938
32
-11.334560
13
56.820560
23
210.598938
33
-11.334560
0
3DFACE
8
0
70
0
10
50.581028
20
200.476929
30
26.852018
11
60.170872
21
190.657532
31
-3.735192
12
56.820560
22
210.598938
32
-11.334560
13
47.083427
23
210.434387
33
23.582603
0
3DFACE
8
0
70
0
10
60.170872
20
190.657532
30
-3.735192
11
39.828556
21
186.245056
31
-35.767052
12
37.454552
22
202.434082
32
-43.825497
13
56.820560
23
210.598938
33
-11.334560
0
3DFACE
8
0
70
0
10
39.828556
20
186.245056
30
-35.767052
11
-0.441262
21
174.676544
31
-43.297195
12
-3.485638
22
189.692932
32
-52.584141
13
37.454552
23
202.434082
33
-43.825497
0
3DFACE
8
0
70
0
10
-12.266265
20
268.908569
30
36.621063
11
3.836644
21
275.802307
31
28.169743
12
2.234648
22
292.047943
32
12.574338
13
-17.028214
23
291.477814
33
19.125713
0
3DFACE
8
0
70
0
10
-17.028214
20
291.477814
30
19.125713
11
2.234648
21
292.047943
31
12.574338
12
2.468953
22
291.331512
32
7.213248
13
-17.421049
23
292.294678
33
14.306591
0
3DFACE
8
0
70
0
10
3.836644
20
275.802307
30
28.169743
11
20.793957
21
266.211304
31
21.974960
12
29.288532
22
287.686523
32
1.248348
13
2.234648
23
292.047943
33
12.574338
0
3DFACE
8
0
70
0
10
2.234648
20
292.047943
30
12.574338
11
29.288532
21
287.686523
31
1.248348
12
27.831972
22
287.203247
32
-4.008391
13
2.468953
23
291.331512
33
7.213248
0
3DFACE
8
0
70
0
10
20.793957
20
266.211304
30
21.974960
11
47.480648
21
254.982422
31
8.608414
12
47.953560
22
267.193634
32
-21.007469
13
29.288532
23
287.686523
33
1.248348
0
3DFACE
8
0
70
0
10
29.288532
20
287.686523
30
1.248348
11
47.953560
21
267.193634
31
-21.007469
12
39.165588
22
268.391174
32
-23.948088
13
27.831972
23
287.203247
33
-4.008391
0
3DFACE
8
0
70
0
10
47.480648
20
254.982422
30
8.608414
11
54.840431
21
230.321777
31
-19.525066
12
53.973026
22
252.380493
32
-41.854362
13
47.953560
23
267.193634
33
-21.007469
0
3DFACE
8
0
70
0
10
47.953560
20
267.193634
30
-21.007469
11
53.973026
21
252.380493
31
-41.854362
12
46.987862
22
254.322174
32
-41.800564
13
39.165588
23
268.391174
33
-23.948088
0
3DFACE
8
0
70
0
10
54.840431
20
230.321777
30
-19.525066
11
39.672478
21
209.337677
31
-37.625195
12
36.071400
22
230.242371
32
-55.724121
13
53.973026
23
252.380493
33
-41.854362
0
3DFACE
8
0
70
0
10
53.973026
20
252.380493
30
-41.854362
11
36.071400
21
230.242371
31
-55.724121
12
29.713943
22
234.841431
32
-54.948166
13
46.987862
23
254.322174
33
-41.800564
0
3DFACE
8
0
70
0
10
39.672478
20
209.337677
30
-37.625195
11
-3.362287
21
189.536652
31
-50.747513
12
-7.485380
22
208.507629
32
-67.738480
13
36.071400
23
230.242371
33
-55.724121
0
3DFACE
8
0
70
0
10
36.071400
20
230.242371
30
-55.724121
11
-7.485380
21
208.507629
31
-67.738480
12
-8.360684
22
214.083038
32
-66.344780
13
29.713943
23
234.841431
33
-54.948166
0
3DFACE
8
0
70
0
10
56.853523
20
175.189636
30
5.354410
11
22.530575
21
165.661621
31
0.235870
12
39.828556
22
186.245056
32
-35.767052
13
60.170872
23
190.657532
33
-3.735192
0
3DFACE
8
0
70
0
10
22.530575
20
165.661621
30
0.235870
11
-12.390720
21
163.986176
31
-16.901499
12
-0.441262
22
174.676544
32
-43.297195
13
39.828556
23
186.245056
33
-35.767052
0
3DFACE
8
0
70
0
10
52.130814
20
150.348328
30
29.787294
11
14.306544
21
153.945526
31
22.810211
12
22.530575
22
165.661621
32
0.235870
13
56.853523
23
175.189636
33
5.354410
0
3DFACE
8
0
70
0
10
33.523499
20
131.341675
30
68.909218
11
31.020636
21
126.883789
31
53.637806
12
14.306544
22
153.945526
32
22.810211
13
52.130814
23
150.348328
33
29.787294
0
3DFACE
8
0
70
0
10
31.020636
20
126.883789
30
53.637806
11
13.644152
21
121.070984
31
50.939976
12
9.779652
22
135.394714
32
23.845552
13
14.306544
23
153.945526
33
22.810211
0
3DFACE
8
0
70
0
10
15.674075
20
117.117493
30
76.706055
11
13.644152
21
121.070984
31
50.939976
12
31.020636
22
126.883789
32
53.637806
13
31.020636
23
126.883789
33
53.637806
0
3DFACE
8
0
70
0
10
15.674075
20
117.117493
30
76.706055
11
31.020636
21
126.883789
31
53.637806
12
33.523499
22
131.341675
32
68.909218
13
33.523499
23
131.341675
33
68.909218
0
3DFACE
8
0
70
0
10
0.006947
20
208.906982
30
70.809586
11
-3.228768
21
228.050293
31
71.222084
12
-22.590834
22
222.672241
32
66.135735
13
-10.200148
23
206.129578
33
66.194473
0
3DFACE
8
0
70
0
10
-3.228768
20
228.050293
30
71.222084
11
-5.301061
21
237.942505
31
63.836555
12
-17.126068
22
231.558167
32
62.131687
13
-22.590834
23
222.672241
33
66.135735
0
3DFACE
8
0
70
0
10
-10.200148
20
206.129578
30
66.194473
11
-22.590834
21
222.672241
31
66.135735
12
-25.619108
22
214.588806
32
50.364040
13
-11.045650
23
198.959778
33
54.941662
0
3DFACE
8
0
70
0
10
0.006947
20
208.906982
30
70.809586
11
-10.200148
21
206.129578
31
66.194473
12
-11.045650
22
198.959778
32
54.941662
13
0.731926
23
200.009705
33
60.813271
0
3DFACE
8
0
70
0
10
-5.301061
20
237.942505
30
63.836555
11
-5.798559
21
234.947266
31
49.698154
12
-19.678305
22
227.189270
32
46.542824
13
-17.126068
23
231.558167
33
62.131687
0
3DFACE
8
0
70
0
10
-22.590834
20
222.672241
30
66.135735
11
-17.126068
21
231.558167
31
62.131687
12
-19.678305
22
227.189270
32
46.542824
13
-25.619108
23
214.588806
33
50.364040
0
3DFACE
8
0
70
0
10
-10.970310
20
241.956726
30
43.290226
11
-24.398085
21
247.314392
31
39.929596
12
-20.094221
22
228.591278
32
43.810196
13
-9.371447
23
233.631836
33
46.750942
0
3DFACE
8
0
70
0
10
-20.094221
20
228.591278
30
43.810196
11
-24.398085
21
247.314392
31
39.929596
12
-34.682632
22
234.541565
32
33.608364
13
-29.206739
23
226.441681
33
39.144985
0
3DFACE
8
0
70
0
10
-9.382883
20
187.403320
30
78.574562
11
3.442467
21
189.590454
31
78.613258
12
0.326690
22
203.674255
32
64.958267
13
-8.811381
23
202.678619
33
62.389236
0
3DFACE
8
0
70
0
10
-49.672920
20
183.417603
30
32.132759
11
-28.900581
21
176.435913
31
62.339195
12
-25.905638
22
197.228180
32
49.298187
13
-50.008801
23
193.913086
33
28.696802
0
3DFACE
8
0
70
0
10
-8.811381
20
202.678619
30
62.389236
11
-23.326982
21
200.428467
31
62.963181
12
-27.698534
22
183.849915
32
70.601189
13
-9.382883
23
187.403320
33
78.574562
0
3DFACE
8
0
70
0
10
-52.520485
20
226.727905
30
18.851013
11
-39.604057
21
238.973267
31
32.027134
12
-43.040295
22
255.349213
32
25.337334
13
-66.604996
23
235.569519
33
14.617716
0
3DFACE
8
0
70
0
10
-12.266265
20
268.908569
30
36.621063
11
-30.250608
21
270.650513
31
29.465721
12
-25.230494
22
253.589905
32
39.407734
13
-8.578727
23
249.340485
33
43.414059
0
3DFACE
8
0
70
0
10
-30.250608
20
270.650513
30
29.465721
11
-43.040295
21
255.349213
31
25.337334
12
-39.604057
22
238.973267
32
32.027134
13
-25.230494
23
253.589905
33
39.407734
0
3DFACE
8
0
70
0
10
8.105914
20
163.937561
30
84.277039
11
5.557804
21
176.732666
31
77.235832
12
-8.738246
22
175.560852
32
71.871063
13
-10.266356
23
167.026550
33
76.656601
0
3DFACE
8
0
70
0
10
15.674075
20
117.117493
30
76.706055
11
8.105914
21
163.937561
31
84.277039
12
-10.266356
22
167.026550
32
76.656601
13
-6.565537
23
124.520081
33
71.020851
0
3DFACE
8
0
70
0
10
-49.672920
20
183.417603
30
32.132759
11
-51.364155
21
173.143433
31
38.631847
12
-27.663013
22
170.855713
32
54.633507
13
-28.900581
23
176.435913
33
62.339195
0
3DFACE
8
0
70
0
10
-27.663013
20
170.855713
30
54.633507
11
-51.364155
21
173.143433
31
38.631847
12
-49.413517
22
157.107117
32
10.951882
13
-34.292454
23
135.642456
33
34.339523
0
3DFACE
8
0
70
0
10
-6.565537
20
124.520081
30
71.020851
11
-10.266356
21
167.026550
31
76.656601
12
-27.663013
22
170.855713
32
54.633507
13
-34.292454
23
135.642456
33
34.339523
0
3DFACE
8
0
70
0
10
-10.266356
20
167.026550
30
76.656601
11
-8.738246
21
175.560852
31
71.871063
12
-28.900581
22
176.435913
32
62.339195
13
-27.663013
23
170.855713
33
54.633507
0
3DFACE
8
0
70
0
10
3.442467
20
189.590454
30
78.613258
11
-9.382883
21
187.403320
31
78.574562
12
-8.738246
22
175.560852
32
71.871063
13
5.557804
23
176.732666
33
77.235832
0
3DFACE
8
0
70
0
10
0.326690
20
203.674255
30
64.958267
11
0.731926
21
200.009705
31
60.813271
12
-11.045650
22
198.959778
32
54.941662
13
-8.811381
23
202.678619
33
62.389236
0
3DFACE
8
0
70
0
10
-23.326982
20
200.428467
30
62.963181
11
-8.811381
21
202.678619
31
62.389236
12
-11.045650
22
198.959778
32
54.941662
13
-25.905638
23
197.228180
33
49.298187
0
POINT
8
0
70
0
10
-47.550278
20
173.742249
30
54.356091
0
3DFACE
8
0
70
0
10
-9.382883
20
187.403320
30
78.574562
11
-27.698534
21
183.849915
31
70.601189
12
-28.900581
22
176.435913
32
62.339195
13
-8.738246
23
175.560852
33
71.871063
0
3DFACE
8
0
70
0
10
-27.698534
20
183.849915
30
70.601189
11
-23.326982
21
200.428467
31
62.963181
12
-47.550278
22
173.742249
32
54.356091
13
-47.550278
23
173.742249
33
54.356091
0
3DFACE
8
0
70
0
10
-23.326982
20
200.428467
30
62.963181
11
-25.905638
21
197.228180
31
49.298187
12
-47.550278
22
173.742249
32
54.356091
13
-47.550278
23
173.742249
33
54.356091
0
3DFACE
8
0
70
0
10
-47.550278
20
173.742249
30
54.356091
11
-25.905638
21
197.228180
31
49.298187
12
-28.900581
22
176.435913
32
62.339195
13
-28.900581
23
176.435913
33
62.339195
0
3DFACE
8
0
70
0
10
-28.900581
20
176.435913
30
62.339195
11
-27.698534
21
183.849915
31
70.601189
12
-47.550278
22
173.742249
32
54.356091
13
-47.550278
23
173.742249
33
54.356091
0
3DFACE
8
0
70
0
10
-66.604996
20
235.569519
30
14.617716
11
-68.250290
21
209.376556
31
-13.041434
12
-64.850655
22
208.933533
32
-13.674150
13
-52.520485
23
226.727905
33
18.851013
0
3DFACE
8
0
70
0
10
-52.520485
20
226.727905
30
18.851013
11
-64.850655
21
208.933533
31
-13.674150
12
-65.058945
22
202.017731
32
-10.959179
13
-48.553551
23
216.321045
33
22.501478
0
3DFACE
8
0
70
0
10
-48.553551
20
216.321045
30
22.501478
11
-65.058945
21
202.017731
31
-10.959179
12
-62.766609
22
190.249847
32
-5.035470
13
-48.660324
23
203.547852
33
26.297184
0
3DFACE
8
0
70
0
10
-68.250290
20
209.376556
30
-13.041434
11
-48.941700
21
194.259003
31
-32.957565
12
-47.675785
22
200.630615
32
-38.211067
13
-64.850655
23
208.933533
33
-13.674150
0
3DFACE
8
0
70
0
10
-65.058945
20
202.017731
30
-10.959179
11
-64.850655
21
208.933533
31
-13.674150
12
-47.675785
22
200.630615
32
-38.211067
13
-49.969608
23
199.346466
33
-41.316536
0
3DFACE
8
0
70
0
10
-62.766609
20
190.249847
30
-5.035470
11
-65.058945
21
202.017731
31
-10.959179
12
-49.969608
22
199.346466
32
-41.316536
13
-45.216091
23
188.366760
33
-39.470932
0
3DFACE
8
0
70
0
10
-48.941700
20
194.259003
30
-32.957565
11
-3.362287
21
189.536652
31
-50.747513
12
-5.714478
22
201.649048
32
-56.274708
13
-47.675785
23
200.630615
33
-38.211067
0
3DFACE
8
0
70
0
10
-49.969608
20
199.346466
30
-41.316536
11
-47.675785
21
200.630615
31
-38.211067
12
-5.714478
22
201.649048
32
-56.274708
13
-5.919043
23
202.311584
33
-58.017902
0
3DFACE
8
0
70
0
10
-45.216091
20
188.366760
30
-39.470932
11
-49.969608
21
199.346466
31
-41.316536
12
-5.919043
22
202.311584
32
-58.017902
13
-3.485638
23
189.692932
33
-52.584141
0
3DFACE
8
0
70
0
10
-49.413517
20
157.107117
30
10.951882
11
-51.364155
21
173.143433
31
38.631847
12
-49.672920
22
183.417603
32
32.132759
13
-58.557117
23
170.454681
33
2.518643
0
3DFACE
8
0
70
0
10
-48.660324
20
203.547852
30
26.297184
11
-62.766609
21
190.249847
31
-5.035470
12
-50.008801
22
193.913086
32
28.696802
13
-50.008801
23
193.913086
33
28.696802
0
3DFACE
8
0
70
0
10
-49.672920
20
183.417603
30
32.132759
11
-50.008801
21
193.913086
31
28.696802
12
-62.766609
22
190.249847
32
-5.035470
13
-58.557117
23
170.454681
33
2.518643
0
3DFACE
8
0
70
0
10
-58.557117
20
170.454681
30
2.518643
11
-62.766609
21
190.249847
31
-5.035470
12
-45.216091
22
188.366760
32
-39.470932
13
-41.281219
23
172.443359
33
-31.494701
0
3DFACE
8
0
70
0
10
-41.281219
20
172.443359
30
-31.494701
11
-45.216091
21
188.366760
31
-39.470932
12
-3.485638
22
189.692932
32
-52.584141
13
-0.441262
23
174.676544
33
-43.297195
0
3DFACE
8
0
70
0
10
-12.266265
20
268.908569
30
36.621063
11
-17.028214
21
291.477814
31
19.125713
12
-35.963280
22
285.548157
32
14.586361
13
-30.250608
23
270.650513
33
29.465721
0
3DFACE
8
0
70
0
10
-17.028214
20
291.477814
30
19.125713
11
-17.421049
21
292.294678
31
14.306591
12
-36.494259
22
284.701508
32
9.265581
13
-35.963280
23
285.548157
33
14.586361
0
3DFACE
8
0
70
0
10
-30.250608
20
270.650513
30
29.465721
11
-35.963280
21
285.548157
31
14.586361
12
-61.070984
22
272.310883
32
6.007909
13
-43.040295
23
255.349213
33
25.337334
0
3DFACE
8
0
70
0
10
-35.963280
20
285.548157
30
14.586361
11
-36.494259
21
284.701508
31
9.265581
12
-60.081345
22
272.243835
32
0.622320
13
-61.070984
23
272.310883
33
6.007909
0
3DFACE
8
0
70
0
10
-43.040295
20
255.349213
30
25.337334
11
-61.070984
21
272.310883
31
6.007909
12
-74.100769
22
246.424774
32
-14.578429
13
-66.604996
23
235.569519
33
14.617716
0
3DFACE
8
0
70
0
10
-61.070984
20
272.310883
30
6.007909
11
-60.081345
21
272.243835
31
0.622320
12
-66.548592
22
250.402771
32
-18.379742
13
-74.100769
23
246.424774
33
-14.578429
0
3DFACE
8
0
70
0
10
-66.604996
20
235.569519
30
14.617716
11
-74.100769
21
246.424774
31
-14.578429
12
-76.992416
22
230.095306
32
-34.955944
13
-68.250290
23
209.376556
33
-13.041434
0
3DFACE
8
0
70
0
10
-74.100769
20
246.424774
30
-14.578429
11
-66.548592
21
250.402771
31
-18.379742
12
-71.071869
22
234.233032
32
-35.581932
13
-76.992416
23
230.095306
33
-34.955944
0
3DFACE
8
0
70
0
10
-68.250290
20
209.376556
30
-13.041434
11
-76.992416
21
230.095306
31
-34.955944
12
-54.305683
22
214.863708
32
-50.963634
13
-48.941700
23
194.259003
33
-32.957565
0
3DFACE
8
0
70
0
10
-76.992416
20
230.095306
30
-34.955944
11
-71.071869
21
234.233032
31
-35.581932
12
-49.777054
22
221.315155
32
-50.761089
13
-54.305683
23
214.863708
33
-50.963634
0
3DFACE
8
0
70
0
10
-48.941700
20
194.259003
30
-32.957565
11
-54.305683
21
214.863708
31
-50.963634
12
-7.485380
22
208.507629
32
-67.738480
13
-3.362287
23
189.536652
33
-50.747513
0
3DFACE
8
0
70
0
10
-54.305683
20
214.863708
30
-50.963634
11
-49.777054
21
221.315155
31
-50.761089
12
-8.360684
22
214.083038
32
-66.344780
13
-7.485380
23
208.507629
33
-67.738480
0
3DFACE
8
0
70
0
10
-49.413517
20
157.107117
30
10.951882
11
-58.557117
21
170.454681
31
2.518643
12
-41.281219
22
172.443359
32
-31.494701
13
-51.937607
23
155.555298
33
0.538754
0
3DFACE
8
0
70
0
10
-51.937607
20
155.555298
30
0.538754
11
-41.281219
21
172.443359
31
-31.494701
12
-0.441262
22
174.676544
32
-43.297195
13
-12.390720
23
163.986176
33
-16.901499
0
3DFACE
8
0
70
0
10
-34.292454
20
135.642456
30
34.339523
11
-49.413517
21
157.107117
31
10.951882
12
-51.937607
22
155.555298
32
0.538754
13
-46.723663
23
142.432770
33
23.155243
0
3DFACE
8
0
70
0
10
-6.565537
20
124.520081
30
71.020851
11
-34.292454
21
135.642456
31
34.339523
12
-46.723663
22
142.432770
32
23.155243
13
-4.305481
23
120.872681
33
55.498562
0
3DFACE
8
0
70
0
10
-4.305481
20
120.872681
30
55.498562
11
-46.723663
21
142.432770
31
23.155243
12
9.779652
22
135.394714
32
23.845552
13
13.644152
23
121.070984
33
50.939976
0
3DFACE
8
0
70
0
10
15.674075
20
117.117493
30
76.706055
11
-4.305481
21
120.872681
31
55.498562
12
13.644152
22
121.070984
32
50.939976
13
13.644152
23
121.070984
33
50.939976
0
3DFACE
8
0
70
0
10
15.674075
20
117.117493
30
76.706055
11
-6.565537
21
124.520081
31
71.020851
12
-4.305481
22
120.872681
32
55.498562
13
-4.305481
23
120.872681
33
55.498562
0
3DFACE
8
0
70
0
10
-9.371447
20
233.631836
30
46.750942
11
-5.798559
21
234.947266
31
49.698154
12
-8.578727
22
249.340485
32
43.414059
13
-10.970310
23
241.956726
33
43.290226
0
3DFACE
8
0
70
0
10
-20.094221
20
228.591278
30
43.810196
11
-19.678305
21
227.189270
31
46.542824
12
-5.798559
22
234.947266
32
49.698154
13
-9.371447
23
233.631836
33
46.750942
0
3DFACE
8
0
70
0
10
-24.398085
20
247.314392
30
39.929596
11
-10.970310
21
241.956726
31
43.290226
12
-8.578727
22
249.340485
32
43.414059
13
-25.230494
23
253.589905
33
39.407734
0
3DFACE
8
0
70
0
10
-20.094221
20
228.591278
30
43.810196
11
-29.206739
21
226.441681
31
39.144985
12
-31.677443
22
224.531311
32
40.784565
13
-19.678305
23
227.189270
33
46.542824
0
3DFACE
8
0
70
0
10
-29.206739
20
226.441681
30
39.144985
11
-34.682632
21
234.541565
31
33.608364
12
-39.604057
22
238.973267
32
32.027134
13
-31.677443
23
224.531311
33
40.784565
0
3DFACE
8
0
70
0
10
-24.398085
20
247.314392
30
39.929596
11
-25.230494
21
253.589905
31
39.407734
12
-39.604057
22
238.973267
32
32.027134
13
-34.682632
23
234.541565
33
33.608364
0
3DFACE
8
0
70
0
10
7.343705
20
251.981628
30
38.274384
11
5.775305
21
258.109375
31
38.068474
12
-8.578727
22
249.340485
32
43.414059
13
-3.486114
23
243.399292
33
43.032433
0
3DFACE
8
0
70
0
10
9.451028
20
232.838165
30
41.835850
11
-1.819323
21
234.768646
31
46.795101
12
-5.798559
22
234.947266
32
49.698154
13
9.464327
23
232.148193
33
45.007774
0
3DFACE
8
0
70
0
10
-1.819323
20
234.768646
30
46.795101
11
-3.486114
21
243.399292
31
43.032433
12
-8.578727
22
249.340485
32
43.414059
13
-5.798559
23
234.947266
33
49.698154
0
3DFACE
8
0
70
0
10
7.343705
20
251.981628
30
38.274384
11
20.403070
21
243.290588
31
28.279381
12
23.653845
22
249.737305
32
28.695112
13
5.775305
23
258.109375
33
38.068474
0
3DFACE
8
0
70
0
10
18.690495
20
233.517792
30
35.044434
11
21.872736
21
233.643463
31
37.963882
12
23.653845
22
249.737305
32
28.695112
13
20.403070
23
243.290588
33
28.279381
0
3DFACE
8
0
70
0
10
9.451028
20
232.838165
30
41.835850
11
9.464327
21
232.148193
31
45.007774
12
21.872736
22
233.643463
32
37.963882
13
18.690495
23
233.517792
33
35.044434
0
3DFACE
8
0
70
0
10
-12.390720
20
163.986176
30
-16.901499
11
22.530575
21
165.661621
31
0.235870
12
41.976154
22
151.591919
32
-23.595238
13
-25.376297
23
162.254944
33
-22.568611
0
3DFACE
8
0
70
0
10
-25.376297
20
162.254944
30
-22.568611
11
-84.129280
21
140.202606
31
-23.534355
12
-51.937607
22
155.555298
32
0.538754
13
-12.390720
23
163.986176
33
-16.901499
0
3DFACE
8
0
70
0
10
-84.129280
20
140.202606
30
-23.534355
11
-84.065704
21
124.091736
31
30.010159
12
-51.937607
22
155.555298
32
0.538754
13
-51.937607
23
155.555298
33
0.538754
0
3DFACE
8
0
70
0
10
-84.065704
20
124.091736
30
30.010159
11
-46.723663
21
142.432770
31
23.155243
12
-51.937607
22
155.555298
32
0.538754
13
-51.937607
23
155.555298
33
0.538754
0
3DFACE
8
0
70
0
10
23.619978
20
141.449341
30
33.653625
11
22.530575
21
165.661621
31
0.235870
12
14.306544
22
153.945526
32
22.810211
13
14.306544
23
153.945526
33
22.810211
0
3DFACE
8
0
70
0
10
41.976154
20
151.591919
30
-23.595238
11
22.530575
21
165.661621
31
0.235870
12
23.619978
22
141.449341
32
33.653625
13
23.619978
23
141.449341
33
33.653625
0
3DFACE
8
0
70
0
10
-37.975262
20
137.237854
30
32.893066
11
-46.723663
21
142.432770
31
23.155243
12
-84.065704
22
124.091736
32
30.010159
13
-84.065704
23
124.091736
33
30.010159
0
3DFACE
8
0
70
0
10
9.779652
20
135.394714
30
23.845552
11
-46.723663
21
142.432770
31
23.155243
12
-37.975262
22
137.237854
32
32.893066
13
-37.975262
23
137.237854
33
32.893066
0
3DFACE
8
0
70
0
10
9.779652
20
135.394714
30
23.845552
11
-37.975262
21
137.237854
31
32.893066
12
14.306544
22
153.945526
32
22.810211
13
14.306544
23
153.945526
33
22.810211
0
3DFACE
8
0
70
0
10
-37.975262
20
137.237854
30
32.893066
11
23.619978
21
141.449341
31
33.653625
12
14.306544
22
153.945526
32
22.810211
13
14.306544
23
153.945526
33
22.810211
0
3DFACE
8
0
70
0
10
-8.360684
20
214.083038
30
-66.344780
11
-21.392214
21
285.109314
31
-83.757599
12
-5.561489
22
289.143707
32
-78.144638
13
29.713943
23
234.841431
33
-54.948166
0
3DFACE
8
0
70
0
10
29.713943
20
234.841431
30
-54.948166
11
-5.561489
21
289.143707
31
-78.144638
12
5.150430
22
292.956512
32
-69.139465
13
46.987862
23
254.322174
33
-41.800564
0
3DFACE
8
0
70
0
10
46.987862
20
254.322174
30
-41.800564
11
5.150430
21
292.956512
31
-69.139465
12
2.900100
22
294.609375
32
-59.231499
13
39.165588
23
268.391174
33
-23.948088
0
3DFACE
8
0
70
0
10
39.165588
20
268.391174
30
-23.948088
11
2.900100
21
294.609375
31
-59.231499
12
0.466335
22
296.719025
32
-46.967278
13
27.831972
23
287.203247
33
-4.008391
0
3DFACE
8
0
70
0
10
-17.421049
20
292.294678
30
14.306591
11
2.468953
21
291.331512
31
7.213248
12
-11.180409
22
295.962524
32
-40.461578
13
-20.600117
23
295.074738
33
-36.526714
0
3DFACE
8
0
70
0
10
-8.360684
20
214.083038
30
-66.344780
11
-49.777054
21
221.315155
31
-50.761089
12
-37.006886
22
283.792938
32
-76.488297
13
-21.392214
23
285.109314
33
-83.757599
0
3DFACE
8
0
70
0
10
-49.777054
20
221.315155
30
-50.761089
11
-71.071869
21
234.233032
31
-35.581932
12
-47.398117
22
284.014801
32
-66.371544
13
-37.006886
23
283.792938
33
-76.488297
0
3DFACE
8
0
70
0
10
-71.071869
20
234.233032
30
-35.581932
11
-66.548592
21
250.402771
31
-18.379742
12
-44.819733
22
286.489319
32
-56.717922
13
-47.398117
23
284.014801
33
-66.371544
0
3DFACE
8
0
70
0
10
-66.548592
20
250.402771
30
-18.379742
11
-60.081345
21
272.243835
31
0.622320
12
-41.979267
22
289.496429
32
-44.731514
13
-44.819733
23
286.489319
33
-56.717922
0
3DFACE
8
0
70
0
10
-17.421049
20
292.294678
30
14.306591
11
-20.600117
21
295.074738
31
-36.526714
12
-30.135063
22
292.737183
32
-39.463165
13
-36.494259
23
284.701508
33
9.265581
0
3DFACE
8
0
70
0
10
27.831972
20
287.203247
30
-4.008391
11
0.466335
21
296.719025
31
-46.967278
12
-11.180409
22
295.962524
32
-40.461578
13
2.468953
23
291.331512
33
7.213248
0
3DFACE
8
0
70
0
10
-60.081345
20
272.243835
30
0.622320
11
-36.494259
21
284.701508
31
9.265581
12
-30.135063
22
292.737183
32
-39.463165
13
-41.979267
23
289.496429
33
-44.731514
0
3DFACE
8
0
70
0
10
-25.359165
20
327.398376
30
-21.648445
11
-13.639529
21
338.787933
31
-24.789392
12
-28.025465
22
343.254242
32
-21.045670
13
-28.025465
23
343.254242
33
-21.045670
0
3DFACE
8
0
70
0
10
-11.663732
20
325.295776
30
-30.865341
11
-13.639529
21
338.787933
31
-24.789392
12
-25.359165
22
327.398376
32
-21.648445
13
-25.359165
23
327.398376
33
-21.648445
0
3DFACE
8
0
70
0
10
-24.073860
20
316.269867
30
-33.197594
11
-11.663732
21
325.295776
31
-30.865341
12
-25.359165
22
327.398376
32
-21.648445
13
-25.359165
23
327.398376
33
-21.648445
0
3DFACE
8
0
70
0
10
-24.073860
20
316.269867
30
-33.197594
11
-25.359165
21
327.398376
31
-21.648445
12
-38.459751
22
320.736145
32
-29.453897
13
-38.459751
23
320.736145
33
-29.453897
0
3DFACE
8
0
70
0
10
-38.459751
20
320.736145
30
-29.453897
11
-25.359165
21
327.398376
31
-21.648445
12
-40.435551
22
334.228271
32
-23.377949
13
-40.435551
23
334.228271
33
-23.377949
0
3DFACE
8
0
70
0
10
-25.359165
20
327.398376
30
-21.648445
11
-28.025465
21
343.254242
31
-21.045670
12
-40.435551
22
334.228271
32
-23.377949
13
-40.435551
23
334.228271
33
-23.377949
0
3DFACE
8
0
70
0
10
-13.639529
20
338.787933
30
-24.789392
11
-10.166118
21
348.232971
31
-37.036774
12
-30.510862
22
354.549225
32
-31.742382
13
-28.025465
23
343.254242
33
-21.045670
0
3DFACE
8
0
70
0
10
-7.371908
20
329.152100
30
-45.629498
11
-10.166118
21
348.232971
31
-37.036774
12
-13.639529
22
338.787933
32
-24.789392
13
-11.663732
23
325.295776
33
-30.865341
0
3DFACE
8
0
70
0
10
-24.922455
20
316.387573
30
-48.927792
11
-7.371908
21
329.152100
31
-45.629498
12
-11.663732
22
325.295776
32
-30.865341
13
-24.073860
23
316.269867
33
-33.197594
0
3DFACE
8
0
70
0
10
-24.922455
20
316.387573
30
-48.927792
11
-24.073860
21
316.269867
31
-33.197594
12
-38.459751
22
320.736145
32
-29.453897
13
-45.267197
23
322.703796
33
-43.633411
0
3DFACE
8
0
70
0
10
-45.267197
20
322.703796
30
-43.633411
11
-38.459751
21
320.736145
31
-29.453897
12
-40.435551
22
334.228271
32
-23.377949
13
-48.061405
23
341.784668
33
-35.040688
0
3DFACE
8
0
70
0
10
-40.435551
20
334.228271
30
-23.377949
11
-28.025465
21
343.254242
31
-21.045670
12
-30.510862
22
354.549225
32
-31.742382
13
-48.061405
23
341.784668
33
-35.040688
0
3DFACE
8
0
70
0
10
-16.973520
20
350.200592
30
-51.216316
11
-31.359451
21
354.666901
31
-47.472595
12
-30.510862
22
354.549225
32
-31.742382
13
-10.166118
23
348.232971
33
-37.036774
0
3DFACE
8
0
70
0
10
-7.371908
20
329.152100
30
-45.629498
11
-14.997722
21
336.708435
31
-57.292267
12
-16.973520
22
350.200592
32
-51.216316
13
-10.166118
23
348.232971
33
-37.036774
0
3DFACE
8
0
70
0
10
-24.922455
20
316.387573
30
-48.927792
11
-27.407848
21
327.682526
31
-59.624519
12
-14.997722
22
336.708435
32
-57.292267
13
-7.371908
23
329.152100
33
-45.629498
0
3DFACE
8
0
70
0
10
-24.922455
20
316.387573
30
-48.927792
11
-45.267197
21
322.703796
31
-43.633411
12
-41.793739
22
332.148804
32
-55.880821
13
-27.407848
23
327.682526
33
-59.624519
0
3DFACE
8
0
70
0
10
-45.267197
20
322.703796
30
-43.633411
11
-48.061405
21
341.784668
31
-35.040688
12
-43.769539
22
345.640961
32
-49.804871
13
-41.793739
23
332.148804
33
-55.880821
0
3DFACE
8
0
70
0
10
-43.769539
20
345.640961
30
-49.804871
11
-48.061405
21
341.784668
31
-35.040688
12
-30.510862
22
354.549225
32
-31.742382
13
-31.359451
23
354.666901
33
-47.472595
0
3DFACE
8
0
70
0
10
-30.074148
20
343.538330
30
-59.021774
11
-31.359451
21
354.666901
31
-47.472595
12
-16.973520
22
350.200592
32
-51.216316
13
-16.973520
23
350.200592
33
-51.216316
0
3DFACE
8
0
70
0
10
-14.997722
20
336.708435
30
-57.292267
11
-30.074148
21
343.538330
31
-59.021774
12
-16.973520
22
350.200592
32
-51.216316
13
-16.973520
23
350.200592
33
-51.216316
0
3DFACE
8
0
70
0
10
-27.407848
20
327.682526
30
-59.624519
11
-30.074148
21
343.538330
31
-59.021774
12
-14.997722
22
336.708435
32
-57.292267
13
-14.997722
23
336.708435
33
-57.292267
0
3DFACE
8
0
70
0
10
-27.407848
20
327.682526
30
-59.624519
11
-41.793739
21
332.148804
31
-55.880821
12
-30.074148
22
343.538330
32
-59.021774
13
-30.074148
23
343.538330
33
-59.021774
0
3DFACE
8
0
70
0
10
-41.793739
20
332.148804
30
-55.880821
11
-43.769539
21
345.640961
31
-49.804871
12
-30.074148
22
343.538330
32
-59.021774
13
-30.074148
23
343.538330
33
-59.021774
0
3DFACE
8
0
70
0
10
-30.074148
20
343.538330
30
-59.021774
11
-43.769539
21
345.640961
31
-49.804871
12
-31.359451
22
354.666901
32
-47.472595
13
-31.359451
23
354.666901
33
-47.472595
0
3DFACE
8
0
70
0
10
25.472816
20
205.970795
30
46.591900
11
47.083427
21
210.434387
31
23.582603
12
34.018147
22
223.690643
32
44.370064
13
34.018147
23
223.690643
33
44.370064
0
3DFACE
8
0
70
0
10
47.083427
20
210.434387
30
23.582603
11
42.394787
21
219.041870
31
21.500982
12
34.018147
22
223.690643
32
44.370064
13
34.018147
23
223.690643
33
44.370064
0
3DFACE
8
0
70
0
10
11.531884
20
202.801605
30
53.752422
11
25.472816
21
205.970795
31
46.591900
12
19.586237
22
222.281006
32
47.982910
13
19.586237
23
222.281006
33
47.982910
0
3DFACE
8
0
70
0
10
25.472816
20
205.970795
30
46.591900
11
34.018147
21
223.690643
31
44.370064
12
19.586237
22
222.281006
32
47.982910
13
19.586237
23
222.281006
33
47.982910
0
3DFACE
8
0
70
0
10
34.018147
20
223.690643
30
44.370064
11
42.394787
21
219.041870
31
21.500982
12
21.872736
22
233.643463
32
37.963882
13
21.872736
23
233.643463
33
37.963882
0
3DFACE
8
0
70
0
10
42.394787
20
219.041870
30
21.500982
11
37.693695
21
230.996948
31
17.958523
12
21.872736
22
233.643463
32
37.963882
13
21.872736
23
233.643463
33
37.963882
0
3DFACE
8
0
70
0
10
19.586237
20
222.281006
30
47.982910
11
21.872736
21
233.643463
31
37.963882
12
9.464327
22
232.148193
32
45.007774
13
9.464327
23
232.148193
33
45.007774
0
3DFACE
8
0
70
0
10
34.018147
20
223.690643
30
44.370064
11
21.872736
21
233.643463
31
37.963882
12
19.586237
22
222.281006
32
47.982910
13
19.586237
23
222.281006
33
47.982910
0
3DFACE
8
0
70
0
10
21.872736
20
233.643463
30
37.963882
11
37.693695
21
230.996948
31
17.958523
12
23.653845
22
249.737305
32
28.695112
13
23.653845
23
249.737305
33
28.695112
0
3DFACE
8
0
70
0
10
37.693695
20
230.996948
30
17.958523
11
37.611126
21
242.064789
31
14.103455
12
23.653845
22
249.737305
32
28.695112
13
23.653845
23
249.737305
33
28.695112
0
3DFACE
8
0
70
0
10
-50.008801
20
193.913086
30
28.696802
11
-39.997227
21
211.096130
31
48.268723
12
-48.660324
22
203.547852
32
26.297184
13
-48.660324
23
203.547852
33
26.297184
0
3DFACE
8
0
70
0
10
-25.905638
20
197.228180
30
49.298187
11
-39.997227
21
211.096130
31
48.268723
12
-50.008801
22
193.913086
32
28.696802
13
-50.008801
23
193.913086
33
28.696802
0
3DFACE
8
0
70
0
10
-25.905638
20
197.228180
30
49.298187
11
-25.619108
21
214.588806
31
50.364040
12
-39.997227
22
211.096130
32
48.268723
13
-39.997227
23
211.096130
33
48.268723
0
3DFACE
8
0
70
0
10
-11.045650
20
198.959778
30
54.941662
11
-25.619108
21
214.588806
31
50.364040
12
-25.905638
22
197.228180
32
49.298187
13
-25.905638
23
197.228180
33
49.298187
0
3DFACE
8
0
70
0
10
-48.660324
20
203.547852
30
26.297184
11
-31.677443
21
224.531311
31
40.784565
12
-48.553551
22
216.321045
32
22.501478
13
-48.553551
23
216.321045
33
22.501478
0
3DFACE
8
0
70
0
10
-39.997227
20
211.096130
30
48.268723
11
-31.677443
21
224.531311
31
40.784565
12
-48.660324
22
203.547852
32
26.297184
13
-48.660324
23
203.547852
33
26.297184
0
3DFACE
8
0
70
0
10
-25.619108
20
214.588806
30
50.364040
11
-19.678305
21
227.189270
31
46.542824
12
-31.677443
22
224.531311
32
40.784565
13
-31.677443
23
224.531311
33
40.784565
0
3DFACE
8
0
70
0
10
-39.997227
20
211.096130
30
48.268723
11
-25.619108
21
214.588806
31
50.364040
12
-31.677443
22
224.531311
32
40.784565
13
-31.677443
23
224.531311
33
40.784565
0
3DFACE
8
0
70
0
10
-48.553551
20
216.321045
30
22.501478
11
-39.604057
21
238.973267
31
32.027134
12
-52.520485
22
226.727905
32
18.851013
13
-52.520485
23
226.727905
33
18.851013
0
3DFACE
8
0
70
0
10
-31.677443
20
224.531311
30
40.784565
11
-39.604057
21
238.973267
31
32.027134
12
-48.553551
22
216.321045
32
22.501478
13
-48.553551
23
216.321045
33
22.501478
0
3DFACE
8
0
70
0
10
35.391750
20
-23.987762
30
61.309204
11
30.626677
21
-21.618652
31
47.833641
12
27.017385
22
-43.630844
32
28.807718
13
27.017385
23
-43.630844
33
28.807718
0
3DFACE
8
0
70
0
10
35.391750
20
-23.987762
30
61.309204
11
27.017385
21
-43.630844
31
28.807718
12
34.653370
22
-47.795776
32
54.918194
13
34.653370
23
-47.795776
33
54.918194
0
3DFACE
8
0
70
0
10
35.391750
20
-23.987762
30
61.309204
11
71.746964
21
-15.715088
31
36.601063
12
30.626677
22
-21.618652
32
47.833641
13
30.626677
23
-21.618652
33
47.833641
0
3DFACE
8
0
70
0
10
35.391750
20
-23.987762
30
61.309204
11
71.056564
21
-19.697189
31
52.402622
12
71.746964
22
-15.715088
32
36.601063
13
71.746964
23
-15.715088
33
36.601063
0
3DFACE
8
0
70
0
10
71.056564
20
-19.697189
30
52.402622
11
84.262527
21
-25.039192
31
22.828188
12
71.746964
22
-15.715088
32
36.601063
13
71.746964
23
-15.715088
33
36.601063
0
3DFACE
8
0
70
0
10
71.056564
20
-19.697189
30
52.402622
11
83.696373
21
-30.319710
31
45.879780
12
84.262527
22
-25.039192
32
22.828188
13
84.262527
23
-25.039192
33
22.828188
0
3DFACE
8
0
70
0
10
48.849598
20
-67.296700
30
45.493496
11
27.017385
21
-43.630844
31
28.807718
12
38.529892
22
-61.630035
32
7.366044
13
38.529892
23
-61.630035
33
7.366044
0
3DFACE
8
0
70
0
10
34.653370
20
-47.795776
30
54.918194
11
27.017385
21
-43.630844
31
28.807718
12
48.849598
22
-67.296700
32
45.493496
13
48.849598
23
-67.296700
33
45.493496
0
3DFACE
8
0
70
0
10
79.804161
20
-47.848007
30
42.122414
11
76.884048
21
-41.722488
31
10.297123
12
84.262527
22
-25.039192
32
22.828188
13
84.262527
23
-25.039192
33
22.828188
0
3DFACE
8
0
70
0
10
83.696373
20
-30.319710
30
45.879780
11
79.804161
21
-47.848007
31
42.122414
12
84.262527
22
-25.039192
32
22.828188
13
84.262527
23
-25.039192
33
22.828188
0
3DFACE
8
0
70
0
10
48.849598
20
-67.296700
30
45.493496
11
38.529892
21
-61.630035
31
7.366044
12
76.884048
22
-41.722488
32
10.297123
13
76.884048
23
-41.722488
33
10.297123
0
3DFACE
8
0
70
0
10
79.804161
20
-47.848007
30
42.122414
11
48.849598
21
-67.296700
31
45.493496
12
76.884048
22
-41.722488
32
10.297123
13
76.884048
23
-41.722488
33
10.297123
0
3DFACE
8
0
70
0
10
-28.933472
20
-120.084503
30
2.197106
11
-17.243305
21
-113.283241
31
-13.872566
12
-17.769093
22
-84.045433
32
-4.153111
13
-17.769093
23
-84.045433
33
-4.153111
0
3DFACE
8
0
70
0
10
-28.933472
20
-120.084503
30
2.197106
11
-17.769093
21
-84.045433
31
-4.153111
12
-28.858908
22
-107.057678
32
7.882088
13
-28.858908
23
-107.057678
33
7.882088
0
3DFACE
8
0
70
0
10
-28.933472
20
-120.084503
30
2.197106
11
-28.858908
21
-107.057678
31
7.882088
12
-67.898834
22
-99.167061
32
-9.220834
13
-67.898834
23
-99.167061
33
-9.220834
0
3DFACE
8
0
70
0
10
-28.933472
20
-120.084503
30
2.197106
11
-67.898834
21
-99.167061
31
-9.220834
12
-62.234245
22
-114.320763
32
-13.310002
13
-62.234245
23
-114.320763
33
-13.310002
0
3DFACE
8
0
70
0
10
-62.234245
20
-114.320763
30
-13.310002
11
-67.898834
21
-99.167061
31
-9.220834
12
-75.816345
22
-84.500610
32
-21.430056
13
-75.816345
23
-84.500610
33
-21.430056
0
3DFACE
8
0
70
0
10
-62.234245
20
-114.320763
30
-13.310002
11
-75.816345
21
-84.500610
31
-21.430056
12
-68.404373
22
-108.735039
32
-27.197090
13
-68.404373
23
-108.735039
33
-27.197090
0
3DFACE
8
0
70
0
10
-20.662117
20
-104.800888
30
-34.701038
11
-21.692753
21
-60.162903
31
-21.317789
12
-17.769093
22
-84.045433
32
-4.153111
13
-17.769093
23
-84.045433
33
-4.153111
0
3DFACE
8
0
70
0
10
-17.243305
20
-113.283241
30
-13.872566
11
-20.662117
21
-104.800888
31
-34.701038
12
-17.769093
22
-84.045433
32
-4.153111
13
-17.769093
23
-84.045433
33
-4.153111
0
3DFACE
8
0
70
0
10
-68.404373
20
-108.735039
30
-27.197090
11
-75.816345
21
-84.500610
31
-21.430056
12
-56.857864
22
-104.386414
32
-37.293797
13
-56.857864
23
-104.386414
33
-37.293797
0
3DFACE
8
0
70
0
10
-56.857864
20
-104.386414
30
-37.293797
11
-75.816345
21
-84.500610
31
-21.430056
12
-63.240833
22
-68.685455
32
-28.200750
13
-63.240833
23
-68.685455
33
-28.200750
0
3DFACE
8
0
70
0
10
-56.857864
20
-104.386414
30
-37.293797
11
-63.240833
21
-68.685455
31
-28.200750
12
-20.662117
22
-104.800888
32
-34.701038
13
-20.662117
23
-104.800888
33
-34.701038
0
3DFACE
8
0
70
0
10
-20.662117
20
-104.800888
30
-34.701038
11
-63.240833
21
-68.685455
31
-28.200750
12
-21.692753
22
-60.162903
32
-21.317789
13
-21.692753
23
-60.162903
33
-21.317789
0
3DFACE
8
0
70
0
10
45.861088
20
-29.053452
30
75.502014
11
35.391750
21
-23.987762
31
61.309204
12
34.653370
22
-47.795776
32
54.918194
13
34.653370
23
-47.795776
33
54.918194
0
3DFACE
8
0
70
0
10
51.183517
20
-55.479095
30
98.402443
11
45.861088
21
-29.053452
31
75.502014
12
34.653370
22
-47.795776
32
54.918194
13
34.653370
23
-47.795776
33
54.918194
0
3DFACE
8
0
70
0
10
81.405891
20
-28.535767
30
73.240715
11
71.056564
21
-19.697189
31
52.402622
12
45.861088
22
-29.053452
32
75.502014
13
45.861088
23
-29.053452
33
75.502014
0
3DFACE
8
0
70
0
10
45.861088
20
-29.053452
30
75.502014
11
71.056564
21
-19.697189
31
52.402622
12
35.391750
22
-23.987762
32
61.309204
13
35.391750
23
-23.987762
33
61.309204
0
3DFACE
8
0
70
0
10
97.318069
20
-41.530464
30
88.807671
11
83.696373
21
-30.319710
31
45.879780
12
81.405891
22
-28.535767
32
73.240715
13
81.405891
23
-28.535767
33
73.240715
0
3DFACE
8
0
70
0
10
81.405891
20
-28.535767
30
73.240715
11
83.696373
21
-30.319710
31
45.879780
12
71.056564
22
-19.697189
32
52.402622
13
71.056564
23
-19.697189
33
52.402622
0
3DFACE
8
0
70
0
10
51.183517
20
-55.479095
30
98.402443
11
34.653370
21
-47.795776
31
54.918194
12
48.849598
22
-67.296700
32
45.493496
13
48.849598
23
-67.296700
33
45.493496
0
3DFACE
8
0
70
0
10
48.409302
20
-86.128723
30
124.452980
11
51.183517
21
-55.479095
31
98.402443
12
48.849598
22
-67.296700
32
45.493496
13
48.849598
23
-67.296700
33
45.493496
0
3DFACE
8
0
70
0
10
115.716225
20
-63.826210
30
109.438393
11
79.804161
21
-47.848007
31
42.122414
12
97.318069
22
-41.530464
32
88.807671
13
97.318069
23
-41.530464
33
88.807671
0
3DFACE
8
0
70
0
10
97.318069
20
-41.530464
30
88.807671
11
79.804161
21
-47.848007
31
42.122414
12
83.696373
22
-30.319710
32
45.879780
13
83.696373
23
-30.319710
33
45.879780
0
3DFACE
8
0
70
0
10
48.409302
20
-86.128723
30
124.452980
11
48.849598
21
-67.296700
31
45.493496
12
115.716225
22
-63.826210
32
109.438393
13
115.716225
23
-63.826210
33
109.438393
0
3DFACE
8
0
70
0
10
115.716225
20
-63.826210
30
109.438393
11
48.849598
21
-67.296700
31
45.493496
12
79.804161
22
-47.848007
32
42.122414
13
79.804161
23
-47.848007
33
42.122414
0
3DFACE
8
0
70
0
10
-20.584644
20
-166.925781
30
-29.511625
11
-17.243305
21
-113.283241
31
-13.872566
12
-28.877590
22
-137.187561
32
-5.897552
13
-28.877590
23
-137.187561
33
-5.897552
0
3DFACE
8
0
70
0
10
-28.877590
20
-137.187561
30
-5.897552
11
-17.243305
21
-113.283241
31
-13.872566
12
-28.933472
22
-120.084503
32
2.197106
13
-28.933472
23
-120.084503
33
2.197106
0
3DFACE
8
0
70
0
10
-28.877590
20
-137.187561
30
-5.897552
11
-28.933472
21
-120.084503
31
2.197106
12
-62.234245
22
-114.320763
32
-13.310002
13
-62.234245
23
-114.320763
33
-13.310002
0
3DFACE
8
0
70
0
10
-61.521912
20
-138.822433
30
-20.906832
11
-28.877590
21
-137.187561
31
-5.897552
12
-62.234245
22
-114.320763
32
-13.310002
13
-62.234245
23
-114.320763
33
-13.310002
0
3DFACE
8
0
70
0
10
-61.521912
20
-138.822433
30
-20.906832
11
-62.234245
21
-114.320763
31
-13.310002
12
-68.404373
22
-108.735039
32
-27.197090
13
-68.404373
23
-108.735039
33
-27.197090
0
3DFACE
8
0
70
0
10
-69.359940
20
-159.829346
30
-38.115623
11
-61.521912
21
-138.822433
31
-20.906832
12
-68.404373
22
-108.735039
32
-27.197090
13
-68.404373
23
-108.735039
33
-27.197090
0
3DFACE
8
0
70
0
10
-2.851933
20
-199.784256
30
-53.050655
11
-20.662117
21
-104.800888
31
-34.701038
12
-20.584644
22
-166.925781
32
-29.511625
13
-20.584644
23
-166.925781
33
-29.511625
0
3DFACE
8
0
70
0
10
-20.584644
20
-166.925781
30
-29.511625
11
-20.662117
21
-104.800888
31
-34.701038
12
-17.243305
22
-113.283241
32
-13.872566
13
-17.243305
23
-113.283241
33
-13.872566
0
3DFACE
8
0
70
0
10
-69.359940
20
-159.829346
30
-38.115623
11
-68.404373
21
-108.735039
31
-27.197090
12
-56.857864
22
-104.386414
32
-37.293797
13
-56.857864
23
-104.386414
33
-37.293797
0
3DFACE
8
0
70
0
10
-74.954964
20
-188.034012
30
-64.004967
11
-69.359940
21
-159.829346
31
-38.115623
12
-56.857864
22
-104.386414
32
-37.293797
13
-56.857864
23
-104.386414
33
-37.293797
0
3DFACE
8
0
70
0
10
-74.954964
20
-188.034012
30
-64.004967
11
-56.857864
21
-104.386414
31
-37.293797
12
-20.662117
22
-104.800888
32
-34.701038
13
-20.662117
23
-104.800888
33
-34.701038
0
3DFACE
8
0
70
0
10
-2.851933
20
-199.784256
30
-53.050655
11
-74.954964
21
-188.034012
31
-64.004967
12
-20.662117
22
-104.800888
32
-34.701038
13
-20.662117
23
-104.800888
33
-34.701038
0
3DFACE
8
0
70
0
10
78.246834
20
66.845154
30
74.772491
11
-28.376822
21
76.094177
31
104.365303
12
-24.041298
22
56.446594
32
98.677116
13
-24.041298
23
56.446594
33
98.677116
0
3DFACE
8
0
70
0
10
78.246834
20
66.845154
30
74.772491
11
71.992226
21
101.103638
31
76.119888
12
-28.376822
22
76.094177
32
104.365303
13
-28.376822
23
76.094177
33
104.365303
0
3DFACE
8
0
70
0
10
95.378052
20
14.889511
30
-70.039375
11
-0.718249
21
-15.551315
31
-102.689728
12
-6.997946
22
17.269974
32
-105.002113
13
-6.997946
23
17.269974
33
-105.002113
0
3DFACE
8
0
70
0
10
95.378052
20
14.889511
30
-70.039375
11
-6.997946
21
17.269974
31
-105.002113
12
89.084946
22
49.264786
32
-68.366508
13
89.084946
23
49.264786
33
-68.366508
0
3DFACE
8
0
70
0
10
78.246834
20
66.845154
30
74.772491
11
105.557426
21
77.295258
31
-3.141210
12
71.992226
22
101.103638
32
76.119888
13
71.992226
23
101.103638
33
76.119888
0
3DFACE
8
0
70
0
10
78.246834
20
66.845154
30
74.772491
11
110.437813
21
46.532211
31
5.365200
12
105.557426
22
77.295258
32
-3.141210
13
105.557426
23
77.295258
33
-3.141210
0
3DFACE
8
0
70
0
10
110.437813
20
46.532211
30
5.365200
11
95.378052
21
14.889511
31
-70.039375
12
89.084946
22
49.264786
32
-68.366508
13
89.084946
23
49.264786
33
-68.366508
0
3DFACE
8
0
70
0
10
110.437813
20
46.532211
30
5.365200
11
89.084946
21
49.264786
31
-68.366508
12
105.557426
22
77.295258
32
-3.141210
13
105.557426
23
77.295258
33
-3.141210
0
3DFACE
8
0
70
0
10
-119.628067
20
25.682617
30
66.132240
11
-24.041298
21
56.446594
31
98.677116
12
-28.376822
22
76.094177
32
104.365303
13
-28.376822
23
76.094177
33
104.365303
0
3DFACE
8
0
70
0
10
-119.628067
20
25.682617
30
66.132240
11
-28.376822
21
76.094177
31
104.365303
12
-127.663765
22
59.570602
32
67.401855
13
-127.663765
23
59.570602
33
67.401855
0
3DFACE
8
0
70
0
10
-102.496841
20
-26.273026
30
-78.679626
11
-6.997946
21
17.269974
31
-105.002113
12
-0.718249
22
-15.551315
32
-102.689728
13
-0.718249
23
-15.551315
33
-102.689728
0
3DFACE
8
0
70
0
10
-102.496841
20
-26.273026
30
-78.679626
11
-110.571053
21
7.731735
31
-77.084541
12
-6.997946
22
17.269974
32
-105.002113
13
-6.997946
23
17.269974
33
-105.002113
0
3DFACE
8
0
70
0
10
-119.628067
20
25.682617
30
66.132240
11
-142.227219
21
25.750351
31
-13.960785
12
-135.150818
22
-4.555878
32
-5.358485
13
-135.150818
23
-4.555878
33
-5.358485
0
3DFACE
8
0
70
0
10
-119.628067
20
25.682617
30
66.132240
11
-127.663765
21
59.570602
31
67.401855
12
-142.227219
22
25.750351
32
-13.960785
13
-142.227219
23
25.750351
33
-13.960785
0
3DFACE
8
0
70
0
10
-135.150818
20
-4.555878
30
-5.358485
11
-142.227219
21
25.750351
31
-13.960785
12
-110.571053
22
7.731735
32
-77.084541
13
-110.571053
23
7.731735
33
-77.084541
0
3DFACE
8
0
70
0
10
-135.150818
20
-4.555878
30
-5.358485
11
-110.571053
21
7.731735
31
-77.084541
12
-102.496841
22
-26.273026
32
-78.679626
13
-102.496841
23
-26.273026
33
-78.679626
0
3DFACE
8
0
70
0
10
-28.376822
20
76.094177
30
104.365303
11
23.619978
21
141.449341
31
33.653625
12
-37.975262
22
137.237854
32
32.893066
13
-37.975262
23
137.237854
33
32.893066
0
3DFACE
8
0
70
0
10
-28.376822
20
76.094177
30
104.365303
11
71.992226
21
101.103638
31
76.119888
12
23.619978
22
141.449341
32
33.653625
13
23.619978
23
141.449341
33
33.653625
0
3DFACE
8
0
70
0
10
89.084946
20
49.264786
30
-68.366508
11
-6.997946
21
17.269974
31
-105.002113
12
30.731501
22
136.114685
32
-60.529232
13
30.731501
23
136.114685
33
-60.529232
0
3DFACE
8
0
70
0
10
-6.997946
20
17.269974
30
-105.002113
11
-18.474730
21
133.084717
31
-66.538635
12
30.731501
22
136.114685
32
-60.529232
13
30.731501
23
136.114685
33
-60.529232
0
3DFACE
8
0
70
0
10
71.992226
20
101.103638
30
76.119888
11
77.844963
21
108.814117
31
-0.962246
12
42.581799
22
138.275635
32
19.045029
13
42.581799
23
138.275635
33
19.045029
0
3DFACE
8
0
70
0
10
71.992226
20
101.103638
30
76.119888
11
105.557426
21
77.295258
31
-3.141210
12
77.844963
22
108.814117
32
-0.962246
13
77.844963
23
108.814117
33
-0.962246
0
3DFACE
8
0
70
0
10
89.084946
20
49.264786
30
-68.366508
11
73.055954
21
122.428802
31
-39.310867
12
77.844963
22
108.814117
32
-0.962246
13
77.844963
23
108.814117
33
-0.962246
0
3DFACE
8
0
70
0
10
105.557426
20
77.295258
30
-3.141210
11
89.084946
21
49.264786
31
-68.366508
12
77.844963
22
108.814117
32
-0.962246
13
77.844963
23
108.814117
33
-0.962246
0
3DFACE
8
0
70
0
10
71.992226
20
101.103638
30
76.119888
11
42.581799
21
138.275635
31
19.045029
12
23.619978
22
141.449341
32
33.653625
13
23.619978
23
141.449341
33
33.653625
0
3DFACE
8
0
70
0
10
89.084946
20
49.264786
30
-68.366508
11
30.731501
21
136.114685
31
-60.529232
12
73.055954
22
122.428802
32
-39.310867
13
73.055954
23
122.428802
33
-39.310867
0
3DFACE
8
0
70
0
10
-28.376822
20
76.094177
30
104.365303
11
-84.065704
21
124.091736
31
30.010159
12
-127.663765
22
59.570602
32
67.401855
13
-127.663765
23
59.570602
33
67.401855
0
3DFACE
8
0
70
0
10
-28.376822
20
76.094177
30
104.365303
11
-37.975262
21
137.237854
31
32.893066
12
-84.065704
22
124.091736
32
30.010159
13
-84.065704
23
124.091736
33
30.010159
0
3DFACE
8
0
70
0
10
-110.571053
20
7.731735
30
-77.084541
11
-77.360039
21
120.048126
31
-63.901699
12
-6.997946
22
17.269974
32
-105.002113
13
-6.997946
23
17.269974
33
-105.002113
0
3DFACE
8
0
70
0
10
-6.997946
20
17.269974
30
-105.002113
11
-77.360039
21
120.048126
31
-63.901699
12
-18.474730
22
133.084717
32
-66.538635
13
-18.474730
23
133.084717
33
-66.538635
0
3DFACE
8
0
70
0
10
-127.663765
20
59.570602
30
67.401855
11
-88.363007
21
119.605530
31
15.139408
12
-109.544250
22
81.253357
32
-12.873686
13
-109.544250
23
81.253357
33
-12.873686
0
3DFACE
8
0
70
0
10
-127.663765
20
59.570602
30
67.401855
11
-109.544250
21
81.253357
31
-12.873686
12
-142.227219
22
25.750351
32
-13.960785
13
-142.227219
23
25.750351
33
-13.960785
0
3DFACE
8
0
70
0
10
-142.227219
20
25.750351
30
-13.960785
11
-109.544250
21
81.253357
31
-12.873686
12
-110.571053
22
7.731735
32
-77.084541
13
-110.571053
23
7.731735
33
-77.084541
0
3DFACE
8
0
70
0
10
-110.571053
20
7.731735
30
-77.084541
11
-109.544250
21
81.253357
31
-12.873686
12
-100.815468
22
106.531891
32
-46.096214
13
-100.815468
23
106.531891
33
-46.096214
0
3DFACE
8
0
70
0
10
-127.663765
20
59.570602
30
67.401855
11
-84.065704
21
124.091736
31
30.010159
12
-88.363007
22
119.605530
32
15.139408
13
-88.363007
23
119.605530
33
15.139408
0
3DFACE
8
0
70
0
10
-110.571053
20
7.731735
30
-77.084541
11
-100.815468
21
106.531891
31
-46.096214
12
-77.360039
22
120.048126
32
-63.901699
13
-77.360039
23
120.048126
33
-63.901699
0
3DFACE
8
0
70
0
10
77.844963
20
108.814117
30
-0.962246
11
69.352699
21
121.757813
31
69.252876
12
42.581799
22
138.275635
32
19.045029
13
42.581799
23
138.275635
33
19.045029
0
3DFACE
8
0
70
0
10
105.097702
20
95.507080
30
87.178215
11
69.352699
21
121.757813
31
69.252876
12
77.844963
22
108.814117
32
-0.962246
13
77.844963
23
108.814117
33
-0.962246
0
3DFACE
8
0
70
0
10
42.581799
20
138.275635
30
19.045029
11
107.933464
21
152.444580
31
87.429832
12
41.976154
22
151.591919
32
-23.595238
13
41.976154
23
151.591919
33
-23.595238
0
3DFACE
8
0
70
0
10
42.581799
20
138.275635
30
19.045029
11
69.352699
21
121.757813
31
69.252876
12
107.933464
22
152.444580
32
87.429832
13
107.933464
23
152.444580
33
87.429832
0
3DFACE
8
0
70
0
10
73.055954
20
122.428802
30
-39.310867
11
41.976154
21
151.591919
31
-23.595238
12
107.933464
22
152.444580
32
87.429832
13
107.933464
23
152.444580
33
87.429832
0
3DFACE
8
0
70
0
10
73.055954
20
122.428802
30
-39.310867
11
107.933464
21
152.444580
31
87.429832
12
136.650269
22
123.490356
32
101.986656
13
136.650269
23
123.490356
33
101.986656
0
3DFACE
8
0
70
0
10
77.844963
20
108.814117
30
-0.962246
11
73.055954
21
122.428802
31
-39.310867
12
136.650269
22
123.490356
32
101.986656
13
136.650269
23
123.490356
33
101.986656
0
3DFACE
8
0
70
0
10
105.097702
20
95.507080
30
87.178215
11
77.844963
21
108.814117
31
-0.962246
12
136.650269
22
123.490356
32
101.986656
13
136.650269
23
123.490356
33
101.986656
0
3DFACE
8
0
70
0
10
-109.544250
20
81.253357
30
-12.873686
11
-88.363007
21
119.605530
31
15.139408
12
-81.880035
22
92.518570
32
62.440781
13
-81.880035
23
92.518570
33
62.440781
0
3DFACE
8
0
70
0
10
-111.282074
20
55.094635
30
56.543644
11
-109.544250
21
81.253357
31
-12.873686
12
-81.880035
22
92.518570
32
62.440781
13
-81.880035
23
92.518570
33
62.440781
0
3DFACE
8
0
70
0
10
-88.363007
20
119.605530
30
15.139408
11
-84.129280
21
140.202606
31
-23.534355
12
-131.096634
22
104.554413
32
76.821075
13
-131.096634
23
104.554413
33
76.821075
0
3DFACE
8
0
70
0
10
-88.363007
20
119.605530
30
15.139408
11
-131.096634
21
104.554413
31
76.821075
12
-81.880035
22
92.518570
32
62.440781
13
-81.880035
23
92.518570
33
62.440781
0
3DFACE
8
0
70
0
10
-100.815468
20
106.531891
30
-46.096214
11
-131.096634
21
104.554413
31
76.821075
12
-84.129280
22
140.202606
32
-23.534355
13
-84.129280
23
140.202606
33
-23.534355
0
3DFACE
8
0
70
0
10
-100.815468
20
106.531891
30
-46.096214
11
-152.388031
21
67.502228
31
69.318954
12
-131.096634
22
104.554413
32
76.821075
13
-131.096634
23
104.554413
33
76.821075
0
3DFACE
8
0
70
0
10
-109.544250
20
81.253357
30
-12.873686
11
-152.388031
21
67.502228
31
69.318954
12
-100.815468
22
106.531891
32
-46.096214
13
-100.815468
23
106.531891
33
-46.096214
0
3DFACE
8
0
70
0
10
-111.282074
20
55.094635
30
56.543644
11
-152.388031
21
67.502228
31
69.318954
12
-109.544250
22
81.253357
32
-12.873686
13
-109.544250
23
81.253357
33
-12.873686
0
3DFACE
8
0
70
0
10
-76.131035
20
52.293091
30
85.755722
11
-111.282074
21
55.094635
31
56.543644
12
-81.880035
22
92.518570
32
62.440781
13
-81.880035
23
92.518570
33
62.440781
0
3DFACE
8
0
70
0
10
-76.131035
20
52.293091
30
85.755722
11
-81.880035
21
92.518570
31
62.440781
12
-69.549194
22
94.525848
32
62.615051
13
-69.549194
23
94.525848
33
62.615051
0
3DFACE
8
0
70
0
10
-69.549194
20
94.525848
30
62.615051
11
-81.880035
21
92.518570
31
62.440781
12
-131.096634
22
104.554413
32
76.821075
13
-131.096634
23
104.554413
33
76.821075
0
3DFACE
8
0
70
0
10
-69.549194
20
94.525848
30
62.615051
11
-131.096634
21
104.554413
31
76.821075
12
-89.902672
22
103.373840
32
110.892914
13
-89.902672
23
103.373840
33
110.892914
0
3DFACE
8
0
70
0
10
-93.492584
20
62.490265
30
126.494408
11
-89.902672
21
103.373840
31
110.892914
12
-131.096634
22
104.554413
32
76.821075
13
-131.096634
23
104.554413
33
76.821075
0
3DFACE
8
0
70
0
10
-93.492584
20
62.490265
30
126.494408
11
-131.096634
21
104.554413
31
76.821075
12
-152.388031
22
67.502228
32
69.318954
13
-152.388031
23
67.502228
33
69.318954
0
3DFACE
8
0
70
0
10
-76.131035
20
52.293091
30
85.755722
11
-93.492584
21
62.490265
31
126.494408
12
-152.388031
22
67.502228
32
69.318954
13
-152.388031
23
67.502228
33
69.318954
0
3DFACE
8
0
70
0
10
-76.131035
20
52.293091
30
85.755722
11
-152.388031
21
67.502228
31
69.318954
12
-111.282074
22
55.094635
32
56.543644
13
-111.282074
23
55.094635
33
56.543644
0
3DFACE
8
0
70
0
10
64.877045
20
93.303665
30
107.522141
11
69.352699
21
121.757813
31
69.252876
12
105.097702
22
95.507080
32
87.178215
13
105.097702
23
95.507080
33
87.178215
0
3DFACE
8
0
70
0
10
64.877045
20
93.303665
30
107.522141
11
60.162231
21
119.908325
31
67.119446
12
69.352699
22
121.757813
32
69.252876
13
69.352699
23
121.757813
33
69.252876
0
3DFACE
8
0
70
0
10
60.162231
20
119.908325
30
67.119446
11
107.933464
21
152.444580
31
87.429832
12
69.352699
22
121.757813
32
69.252876
13
69.352699
23
121.757813
33
69.252876
0
3DFACE
8
0
70
0
10
60.162231
20
119.908325
30
67.119446
11
60.061024
21
151.635986
31
109.741608
12
107.933464
22
152.444580
32
87.429832
13
107.933464
23
152.444580
33
87.429832
0
3DFACE
8
0
70
0
10
64.511711
20
122.533630
30
142.314682
11
136.650269
21
123.490356
31
101.986656
12
107.933464
22
152.444580
32
87.429832
13
107.933464
23
152.444580
33
87.429832
0
3DFACE
8
0
70
0
10
64.511711
20
122.533630
30
142.314682
11
107.933464
21
152.444580
31
87.429832
12
60.061024
22
151.635986
32
109.741608
13
60.061024
23
151.635986
33
109.741608
0
3DFACE
8
0
70
0
10
64.877045
20
93.303665
30
107.522141
11
105.097702
21
95.507080
31
87.178215
12
136.650269
22
123.490356
32
101.986656
13
136.650269
23
123.490356
33
101.986656
0
3DFACE
8
0
70
0
10
64.877045
20
93.303665
30
107.522141
11
136.650269
21
123.490356
31
101.986656
12
64.511711
22
122.533630
32
142.314682
13
64.511711
23
122.533630
33
142.314682
0
3DFACE
8
0
70
0
10
-31.502594
20
328.465668
30
-48.410187
11
-27.374453
21
330.159180
31
-50.797066
12
-21.392214
22
285.109314
32
-83.757599
13
-37.006886
23
283.792938
33
-76.488297
0
3DFACE
8
0
70
0
10
-22.697882
20
329.963867
30
-48.873962
11
-5.561489
21
289.143707
31
-78.144638
12
-21.392214
22
285.109314
32
-83.757599
13
-27.374453
23
330.159180
33
-50.797066
0
3DFACE
8
0
70
0
10
-19.336412
20
329.064789
30
-45.830784
11
5.150430
21
292.956512
31
-69.139465
12
-5.561489
22
289.143707
32
-78.144638
13
-22.697882
23
329.963867
33
-48.873962
0
3DFACE
8
0
70
0
10
-19.596045
20
327.515686
30
-42.522835
11
2.900100
21
294.609375
31
-59.231499
12
5.150430
22
292.956512
32
-69.139465
13
-19.336412
23
329.064789
33
-45.830784
0
3DFACE
8
0
70
0
10
-19.818235
20
325.612213
30
-38.427204
11
0.466335
21
296.719025
31
-46.967278
12
2.900100
22
294.609375
32
-59.231499
13
-19.596045
23
327.515686
33
-42.522835
0
3DFACE
8
0
70
0
10
-22.856344
20
324.189423
30
-36.284370
11
-11.180409
21
295.962524
31
-40.461578
12
0.466335
22
296.719025
32
-46.967278
13
-19.818235
23
325.612213
33
-38.427204
0
3DFACE
8
0
70
0
10
-25.363731
20
323.234131
30
-34.995132
11
-20.600117
21
295.074738
31
-36.526714
12
-11.180409
22
295.962524
32
-40.461578
13
-22.856344
23
324.189423
33
-36.284370
0
3DFACE
8
0
70
0
10
-25.363731
20
323.234131
30
-34.995132
11
-28.163647
21
323.286316
31
-36.004814
12
-30.135063
22
292.737183
32
-39.463165
13
-20.600117
23
295.074738
33
-36.526714
0
3DFACE
8
0
70
0
10
-28.163647
20
323.286316
30
-36.004814
11
-31.703005
21
323.589874
31
-37.801189
12
-41.979267
22
289.496429
32
-44.731514
13
-30.135063
23
292.737183
33
-39.463165
0
3DFACE
8
0
70
0
10
-31.703005
20
323.589874
30
-37.801189
11
-32.957596
21
325.242065
31
-41.819035
12
-44.819733
22
286.489319
32
-56.717922
13
-41.979267
23
289.496429
33
-44.731514
0
3DFACE
8
0
70
0
10
-32.957596
20
325.242065
30
-41.819035
11
-34.050003
21
326.561096
31
-45.055767
12
-47.398117
22
284.014801
32
-66.371544
13
-44.819733
23
286.489319
33
-56.717922
0
3DFACE
8
0
70
0
10
-34.050003
20
326.561096
30
-45.055767
11
-31.502594
21
328.465668
31
-48.410187
12
-37.006886
22
283.792938
32
-76.488297
13
-47.398117
23
284.014801
33
-66.371544
0
ENDSEC
0
EOF
