0
SECTION
2
HEADER
999
DXF File Generated by LightWave 3D(TM)
0
ENDSEC
0
SECTION
2
TABLES
0
ENDSEC
0
SECTION
2
BLOCKS
0
ENDSEC
0
SECTION
2
ENTITIES
0
3DFACE
8
0
70
0
10
1.610920
20
-25.269745
30
81.587677
11
34.897511
21
-30.744568
31
59.403137
12
74.384521
22
-34.735115
32
33.281693
13
66.635941
23
-30.066063
33
54.744335
0
3DFACE
8
0
70
0
10
61.559998
20
-36.517426
30
-67.300690
11
66.224144
21
-53.433731
31
-48.054073
12
22.343088
22
-59.511665
32
-65.728813
13
-5.558372
23
-34.381683
33
-90.789398
0
3DFACE
8
0
70
0
10
2.008295
20
-31.042282
30
102.382309
11
1.610920
21
-25.269745
31
81.587677
12
66.635941
22
-30.066063
32
54.744335
13
88.060165
23
-37.494461
33
69.066895
0
3DFACE
8
0
70
0
10
81.636398
20
-45.658867
30
-85.384911
11
61.559998
21
-36.517426
31
-67.300690
12
-5.558372
22
-34.381683
32
-90.789398
13
-6.920741
23
-42.390793
33
-112.305710
0
3DFACE
8
0
70
0
10
2.771459
20
-26.807983
30
114.886757
11
93.948067
21
-33.850555
31
77.457726
12
112.121567
22
19.008087
32
79.591705
13
6.601352
23
27.970840
33
117.604324
0
3DFACE
8
0
70
0
10
86.689209
20
-43.076332
30
-97.072815
11
-7.318352
21
-39.631805
31
-127.710701
12
-3.483933
22
15.152390
32
-124.994026
13
104.862717
23
9.782318
33
-94.938835
0
3DFACE
8
0
70
0
10
6.601352
20
27.970840
30
117.604324
11
112.121567
21
19.008087
31
79.591705
12
105.770370
22
20.139282
32
71.464661
13
6.171252
23
28.500351
33
105.336212
0
3DFACE
8
0
70
0
10
2.771459
20
-26.807983
30
114.886757
11
2.008295
21
-31.042282
31
102.382309
12
88.060165
22
-37.494461
32
69.066895
13
93.948067
23
-33.850555
33
77.457726
0
3DFACE
8
0
70
0
10
104.862717
20
9.782318
30
-94.938835
11
-3.483933
21
15.152390
31
-124.994026
12
-2.597859
22
17.338196
32
-109.387856
13
99.346603
23
11.974884
33
-82.987152
0
3DFACE
8
0
70
0
10
86.689209
20
-43.076332
30
-97.072815
11
81.636398
21
-45.658867
31
-85.384911
12
-6.920741
22
-42.390793
32
-112.305710
13
-7.318352
23
-39.631805
33
-127.710701
0
3DFACE
8
0
70
0
10
27.673773
20
-119.444244
30
102.617195
11
74.813721
21
-119.444244
31
102.617195
12
66.977409
22
-98.812729
32
87.801697
13
33.987896
23
-98.998032
33
87.801697
0
3DFACE
8
0
70
0
10
66.635941
20
-30.066063
30
54.744335
11
74.384521
21
-34.735115
31
33.281693
12
81.062950
22
-47.324707
32
-6.746222
13
79.986031
23
-34.275284
33
-5.531180
0
3DFACE
8
0
70
0
10
88.060165
20
-37.494461
30
69.066895
11
66.635941
21
-30.066063
31
54.744335
12
79.986031
22
-34.275284
32
-5.531180
13
106.082375
23
-42.874359
33
-6.858272
0
3DFACE
8
0
70
0
10
112.121567
20
19.008087
30
79.591705
11
93.948067
21
-33.850555
31
77.457726
12
112.942863
22
-39.763123
32
-6.927988
13
134.486832
23
12.871109
33
-4.919350
0
3DFACE
8
0
70
0
10
134.486832
20
12.871109
30
-4.919350
11
126.964676
21
14.548203
31
-4.578477
12
105.770370
22
20.139282
32
71.464661
13
112.121567
23
19.008087
33
79.591705
0
3DFACE
8
0
70
0
10
93.948067
20
-33.850555
30
77.457726
11
88.060165
21
-37.494461
31
69.066895
12
106.082375
22
-42.874359
32
-6.858272
13
112.942863
23
-39.763123
33
-6.927988
0
3DFACE
8
0
70
0
10
12.906889
20
-152.844193
30
102.617195
11
80.090286
21
-153.029510
31
102.617195
12
74.813721
22
-119.444244
32
102.617195
13
27.673773
23
-119.444244
33
102.617195
0
3DFACE
8
0
70
0
10
7.759635
20
166.697144
30
4.504097
11
67.511238
21
150.484741
31
-3.236143
12
60.481342
22
139.994263
32
-38.338936
13
4.799274
23
143.980835
33
-46.474293
0
3DFACE
8
0
70
0
10
79.986031
20
-34.275284
30
-5.531180
11
81.062950
21
-47.324707
31
-6.746222
12
66.224144
22
-53.433731
32
-48.054073
13
61.559998
23
-36.517426
33
-67.300690
0
3DFACE
8
0
70
0
10
106.082375
20
-42.874359
30
-6.858272
11
79.986031
21
-34.275284
31
-5.531180
12
61.559998
22
-36.517426
32
-67.300690
13
81.636398
23
-45.658867
33
-85.384911
0
3DFACE
8
0
70
0
10
112.942863
20
-39.763123
30
-6.927988
11
86.689209
21
-43.076332
31
-97.072815
12
104.862717
22
9.782318
32
-94.938835
13
134.486832
23
12.871109
33
-4.919350
0
3DFACE
8
0
70
0
10
104.862717
20
9.782318
30
-94.938835
11
99.346603
21
11.974884
31
-82.987152
12
126.964676
22
14.548203
32
-4.578477
13
134.486832
23
12.871109
33
-4.919350
0
3DFACE
8
0
70
0
10
112.942863
20
-39.763123
30
-6.927988
11
106.082375
21
-42.874359
31
-6.858272
12
81.636398
22
-45.658867
32
-85.384911
13
86.689209
23
-43.076332
33
-97.072815
0
3DFACE
8
0
70
0
10
32.876354
20
-52.317696
30
25.548382
11
34.897511
21
-30.744568
31
59.403137
12
21.013239
22
-48.828247
32
-0.662093
13
22.013998
23
-59.910057
33
0.212625
0
3DFACE
8
0
70
0
10
32.876354
20
-52.317696
30
25.548382
11
73.440315
21
-52.896637
31
11.270553
12
74.384521
22
-34.735115
32
33.281693
13
34.897511
23
-30.744568
33
59.403137
0
3DFACE
8
0
70
0
10
73.440315
20
-52.896637
30
11.270553
11
82.008583
21
-57.027412
31
-6.832181
12
81.062950
22
-47.324707
32
-6.746222
13
74.384521
23
-34.735115
33
33.281693
0
3DFACE
8
0
70
0
10
22.013998
20
-59.910057
30
0.212625
11
21.013239
21
-48.828247
31
-0.662093
12
22.343088
22
-59.511665
32
-65.728813
13
26.694607
23
-67.060318
33
-28.095114
0
3DFACE
8
0
70
0
10
82.008583
20
-57.027412
30
-6.832181
11
69.422180
21
-62.479347
31
-23.597723
12
66.224144
22
-53.433731
32
-48.054073
13
81.062950
23
-47.324707
33
-6.746222
0
3DFACE
8
0
70
0
10
69.422180
20
-62.479347
30
-23.597723
11
26.694607
21
-67.060318
31
-28.095114
12
22.343088
22
-59.511665
32
-65.728813
13
66.224144
23
-53.433731
33
-48.054073
0
3DFACE
8
0
70
0
10
27.290184
20
-125.251320
30
-3.324379
11
27.673773
21
-127.827744
31
43.725594
12
33.987896
22
-108.736435
32
35.947453
13
36.676716
23
-97.271004
33
23.669203
0
3DFACE
8
0
70
0
10
36.676716
20
-97.271004
30
23.669203
11
33.987896
21
-108.736435
31
35.947453
12
66.977409
22
-112.334427
32
35.947453
13
69.978607
23
-102.846230
33
10.662683
0
3DFACE
8
0
70
0
10
76.919441
20
-124.453369
30
-7.865244
11
69.978607
21
-102.846230
31
10.662683
12
66.977409
22
-112.334427
32
35.947453
13
74.813721
23
-127.827744
33
43.725594
0
3DFACE
8
0
70
0
10
8.245040
20
-155.089020
30
-31.195621
11
16.610764
21
-150.617310
31
32.613968
12
27.673773
22
-127.827744
32
43.725594
13
27.290184
23
-125.251320
33
-3.324379
0
3DFACE
8
0
70
0
10
81.598457
20
-152.701889
30
-36.004044
11
76.919441
21
-124.453369
31
-7.865244
12
74.813721
22
-127.827744
32
43.725594
13
83.794151
23
-150.723206
33
36.317848
0
3DFACE
8
0
70
0
10
81.598457
20
-152.701889
30
-36.004044
11
83.794151
21
-150.723206
31
36.317848
12
16.610764
22
-150.617310
32
32.613968
13
8.245040
23
-155.089020
33
-31.195621
0
3DFACE
8
0
70
0
10
27.673773
20
-119.444244
30
102.617195
11
33.987896
21
-98.998032
31
87.801697
12
33.987896
22
-108.736435
32
35.947453
13
27.673773
23
-127.827744
33
43.725594
0
3DFACE
8
0
70
0
10
33.987896
20
-98.998032
30
87.801697
11
66.977409
21
-98.812729
31
87.801697
12
66.977409
22
-112.334427
32
35.947453
13
33.987896
23
-108.736435
33
35.947453
0
3DFACE
8
0
70
0
10
74.813721
20
-119.444244
30
102.617195
11
74.813721
21
-127.827744
31
43.725594
12
66.977409
22
-112.334427
32
35.947453
13
66.977409
23
-98.812729
33
87.801697
0
3DFACE
8
0
70
0
10
12.906889
20
-152.844193
30
102.617195
11
27.673773
21
-119.444244
31
102.617195
12
27.673773
22
-127.827744
32
43.725594
13
16.610764
23
-150.617310
33
32.613968
0
3DFACE
8
0
70
0
10
80.090286
20
-153.029510
30
102.617195
11
83.794151
21
-150.723206
31
36.317848
12
74.813721
22
-127.827744
32
43.725594
13
74.813721
23
-119.444244
33
102.617195
0
3DFACE
8
0
70
0
10
80.090286
20
-153.029510
30
102.617195
11
12.906889
21
-152.844193
31
102.617195
12
16.610764
22
-150.617310
32
32.613968
13
83.794151
23
-150.723206
33
36.317848
0
3DFACE
8
0
70
0
10
66.819321
20
93.720795
30
275.149628
11
83.605873
21
80.727356
31
265.316956
12
88.798004
22
97.462036
32
278.299500
13
72.980713
23
111.965790
33
276.977905
0
3DFACE
8
0
70
0
10
88.854271
20
121.507263
30
-30.176376
11
60.481342
21
139.994263
31
-38.338936
12
67.511238
22
150.484741
32
-3.236143
13
67.511238
23
150.484741
33
-3.236143
0
3DFACE
8
0
70
0
10
72.741470
20
126.715729
30
39.202114
11
67.511238
21
150.484741
31
-3.236143
12
63.636318
22
123.615570
32
57.360210
13
63.636318
23
123.615570
33
57.360210
0
3DFACE
8
0
70
0
10
83.131615
20
117.706787
30
102.401268
11
111.052834
21
81.797394
31
119.528389
12
91.461136
22
79.009888
32
149.841461
13
64.523842
23
117.114044
33
133.353745
0
3DFACE
8
0
70
0
10
124.630753
20
138.044495
30
128.621521
11
83.131615
21
117.706787
31
102.401268
12
64.523842
22
117.114044
32
133.353745
13
105.736206
23
139.458435
33
159.415070
0
3DFACE
8
0
70
0
10
125.915421
20
101.326141
30
171.666916
11
145.599518
21
101.642075
31
141.386139
12
124.630753
22
138.044495
32
128.621521
13
105.736206
23
139.458435
33
159.415070
0
3DFACE
8
0
70
0
10
111.052834
20
81.797394
30
119.528389
11
145.599518
21
101.642075
31
141.386139
12
125.915421
22
101.326141
32
171.666916
13
91.461136
23
79.009888
33
149.841461
0
3DFACE
8
0
70
0
10
89.699638
20
67.649124
30
148.619644
11
71.093948
21
64.117065
31
177.062714
12
37.621723
22
119.400024
32
155.597595
13
54.518253
23
120.032288
33
127.113052
0
3DFACE
8
0
70
0
10
54.518253
20
120.032288
30
127.113052
11
37.621723
21
119.400024
31
155.597595
12
92.505592
22
153.600037
32
189.415253
13
109.315735
23
151.730743
33
161.785767
0
3DFACE
8
0
70
0
10
117.355873
20
98.895004
30
205.357971
11
135.555130
21
99.192261
31
177.686432
12
109.315735
22
151.730743
32
161.785767
13
92.505592
23
153.600037
33
189.415253
0
3DFACE
8
0
70
0
10
89.699638
20
67.649124
30
148.619644
11
135.555130
21
99.192261
31
177.686432
12
117.355873
22
98.895004
32
205.357971
13
71.093948
23
64.117065
33
177.062714
0
3DFACE
8
0
70
0
10
89.699638
20
67.649124
30
148.619644
11
54.518253
21
120.032288
31
127.113052
12
64.523842
22
117.114044
32
133.353745
13
91.461136
23
79.009888
33
149.841461
0
3DFACE
8
0
70
0
10
71.093948
20
64.117065
30
177.062714
11
73.009583
21
76.384644
31
178.390518
12
47.461605
22
116.570496
32
161.735336
13
37.621723
23
119.400024
33
155.597595
0
3DFACE
8
0
70
0
10
54.518253
20
120.032288
30
127.113052
11
109.315735
21
151.730743
31
161.785767
12
105.736206
22
139.458435
32
159.415070
13
64.523842
23
117.114044
33
133.353745
0
3DFACE
8
0
70
0
10
37.621723
20
119.400024
30
155.597595
11
47.461605
21
116.570496
31
161.735336
12
88.825592
22
140.723877
32
186.975357
13
92.505592
23
153.600037
33
189.415253
0
3DFACE
8
0
70
0
10
117.355873
20
98.895004
30
205.357971
11
92.505592
21
153.600037
31
189.415253
12
88.825592
22
140.723877
32
186.975357
13
107.866264
23
101.036407
33
199.432587
0
3DFACE
8
0
70
0
10
135.555130
20
99.192261
30
177.686432
11
125.915421
21
101.326141
31
171.666916
12
105.736206
22
139.458435
32
159.415070
13
109.315735
23
151.730743
33
161.785767
0
3DFACE
8
0
70
0
10
71.093948
20
64.117065
30
177.062714
11
117.355873
21
98.895004
31
205.357971
12
107.866264
22
101.036407
32
199.432587
13
73.009583
23
76.384644
33
178.390518
0
3DFACE
8
0
70
0
10
89.699638
20
67.649124
30
148.619644
11
91.461136
21
79.009888
31
149.841461
12
125.915421
22
101.326141
32
171.666916
13
135.555130
23
99.192261
33
177.686432
0
3DFACE
8
0
70
0
10
78.901031
20
99.985443
30
174.108170
11
91.156242
21
130.089661
31
178.259628
12
47.461605
22
116.570496
32
161.735336
13
73.009583
23
76.384644
33
178.390518
0
3DFACE
8
0
70
0
10
91.156242
20
130.089661
30
178.259628
11
118.787613
21
108.464813
31
181.564163
12
88.825592
22
140.723877
32
186.975357
13
47.461605
23
116.570496
33
161.735336
0
3DFACE
8
0
70
0
10
104.474228
20
83.123871
30
177.255447
11
107.866264
21
101.036407
31
199.432587
12
88.825592
22
140.723877
32
186.975357
13
118.787613
23
108.464813
33
181.564163
0
3DFACE
8
0
70
0
10
78.901031
20
99.985443
30
174.108170
11
73.009583
21
76.384644
31
178.390518
12
107.866264
22
101.036407
32
199.432587
13
104.474228
23
83.123871
33
177.255447
0
3DFACE
8
0
70
0
10
63.248238
20
146.246918
30
223.817856
11
73.566170
21
149.517578
31
225.684311
12
76.604965
22
150.558716
32
213.129150
13
66.261093
23
147.398621
33
211.244675
0
3DFACE
8
0
70
0
10
73.566170
20
149.517578
30
225.684311
11
84.453239
21
152.139404
31
227.656006
12
87.453789
22
153.298584
32
215.121460
13
76.604965
23
150.558716
33
213.129150
0
3DFACE
8
0
70
0
10
101.113487
20
68.050537
30
209.313858
11
104.474228
21
83.123871
31
177.255447
12
118.787613
22
108.464813
32
181.564163
13
112.969437
23
102.096268
33
213.762253
0
3DFACE
8
0
70
0
10
72.753372
20
94.696472
30
206.428375
11
78.901031
21
99.985443
31
174.108170
12
104.474228
22
83.123871
32
177.255447
13
101.113487
23
68.050537
33
209.313858
0
3DFACE
8
0
70
0
10
66.819321
20
93.720795
30
275.149628
11
72.980713
21
111.965790
31
276.977905
12
81.857635
22
127.647949
32
225.245560
13
72.753372
23
94.696472
33
206.428375
0
3DFACE
8
0
70
0
10
72.980713
20
111.965790
30
276.977905
11
88.798004
21
97.462036
31
278.299500
12
112.969437
22
102.096268
32
213.762253
13
81.857635
23
127.647949
33
225.245560
0
3DFACE
8
0
70
0
10
83.605873
20
80.727356
30
265.316956
11
101.113487
21
68.050537
31
209.313858
12
112.969437
22
102.096268
32
213.762253
13
88.798004
23
97.462036
33
278.299500
0
3DFACE
8
0
70
0
10
66.819321
20
93.720795
30
275.149628
11
72.753372
21
94.696472
31
206.428375
12
101.113487
22
68.050537
32
209.313858
13
83.605873
23
80.727356
33
265.316956
0
3DFACE
8
0
70
0
10
63.248238
20
146.246918
30
223.817856
11
66.261093
21
147.398621
31
211.244675
12
78.901031
22
99.985443
32
174.108170
13
72.753372
23
94.696472
33
206.428375
0
3DFACE
8
0
70
0
10
66.261093
20
147.398621
30
211.244675
11
76.604965
21
150.558716
31
213.129150
12
91.156242
22
130.089661
32
178.259628
13
78.901031
23
99.985443
33
174.108170
0
3DFACE
8
0
70
0
10
63.248238
20
146.246918
30
223.817856
11
72.753372
21
94.696472
31
206.428375
12
81.857635
22
127.647949
32
225.245560
13
73.566170
23
149.517578
33
225.684311
0
3DFACE
8
0
70
0
10
76.604965
20
150.558716
30
213.129150
11
87.453789
21
153.298584
31
215.121460
12
118.787613
22
108.464813
32
181.564163
13
91.156242
23
130.089661
33
178.259628
0
3DFACE
8
0
70
0
10
84.453239
20
152.139404
30
227.656006
11
112.969437
21
102.096268
31
213.762253
12
118.787613
22
108.464813
32
181.564163
13
87.453789
23
153.298584
33
215.121460
0
3DFACE
8
0
70
0
10
73.566170
20
149.517578
30
225.684311
11
81.857635
21
127.647949
31
225.245560
12
112.969437
22
102.096268
32
213.762253
13
84.453239
23
152.139404
33
227.656006
0
3DFACE
8
0
70
0
10
1.610920
20
-25.269745
30
81.587677
11
-65.322319
21
-21.280075
31
59.651802
12
-70.498138
22
-35.233177
32
40.114094
13
-27.039940
23
-33.916336
33
59.438808
0
3DFACE
8
0
70
0
10
-70.398262
20
-27.731430
30
-62.393223
11
-5.558372
21
-34.381683
31
-90.789398
12
-36.301762
22
-46.993477
32
-67.134247
13
-76.518326
23
-43.733322
33
-42.158394
0
3DFACE
8
0
70
0
10
2.008295
20
-31.042282
30
102.382309
11
-86.416245
21
-25.877548
31
75.555595
12
-65.322319
22
-21.280075
32
59.651802
13
1.610920
23
-25.269745
33
81.587677
0
3DFACE
8
0
70
0
10
-92.840012
20
-34.041954
30
-78.896217
11
-6.920741
21
-42.390793
31
-112.305710
12
-5.558372
22
-34.381683
32
-90.789398
13
-70.398262
23
-27.731430
33
-62.393223
0
3DFACE
8
0
70
0
10
2.771459
20
-26.807983
30
114.886757
11
6.601352
21
27.970840
31
117.604324
12
-101.755920
22
33.248383
32
87.545715
13
-91.107857
23
-21.529236
33
84.339867
0
3DFACE
8
0
70
0
10
-98.366714
20
-30.755020
30
-90.190674
11
-109.014771
21
24.022614
31
-86.984825
12
-3.483933
22
15.152390
32
-124.994026
13
-7.318352
23
-39.631805
33
-127.710701
0
3DFACE
8
0
70
0
10
6.601352
20
27.970840
30
117.604324
11
6.171252
21
28.500351
31
105.336212
12
-95.940674
22
33.569534
32
78.966202
13
-101.755920
23
33.248383
33
87.545715
0
3DFACE
8
0
70
0
10
2.771459
20
-26.807983
30
114.886757
11
-91.107857
21
-21.529236
31
84.339867
12
-86.416245
22
-25.877548
32
75.555595
13
2.008295
23
-31.042282
33
102.382309
0
3DFACE
8
0
70
0
10
-109.014771
20
24.022614
30
-86.984825
11
-102.364441
21
25.405121
31
-75.485611
12
-2.597859
22
17.338196
32
-109.387856
13
-3.483933
23
15.152390
33
-124.994026
0
3DFACE
8
0
70
0
10
-98.366714
20
-30.755020
30
-90.190674
11
-7.318352
21
-39.631805
31
-127.710701
12
-6.920741
22
-42.390793
32
-112.305710
13
-92.840012
23
-34.041954
33
-78.896217
0
3DFACE
8
0
70
0
10
-31.473774
20
-119.444244
30
102.617195
11
-37.787899
21
-98.998032
31
87.801697
12
-70.777412
22
-98.812729
32
87.801697
13
-78.613716
23
-119.444244
33
102.617195
0
3DFACE
8
0
70
0
10
-65.322319
20
-21.280075
30
59.651802
11
-83.637245
21
-23.380981
31
0.553893
12
-84.084328
22
-42.993050
32
1.001074
13
-70.498138
23
-35.233177
33
40.114094
0
3DFACE
8
0
70
0
10
-86.416245
20
-25.877548
30
75.555595
11
-110.688599
21
-28.441406
31
1.203339
12
-83.637245
22
-23.380981
32
0.553893
13
-65.322319
23
-21.280075
33
59.651802
0
3DFACE
8
0
70
0
10
-101.755920
20
33.248383
30
87.545715
11
-131.070999
21
30.552368
31
4.956622
12
-117.052475
22
-24.449677
32
1.625432
13
-91.107857
23
-21.529236
33
84.339867
0
3DFACE
8
0
70
0
10
-131.070999
20
30.552368
30
4.956622
11
-101.755920
21
33.248383
31
87.545715
12
-95.940674
22
33.569534
32
78.966202
13
-123.385117
23
31.216888
33
4.731915
0
3DFACE
8
0
70
0
10
-91.107857
20
-21.529236
30
84.339867
11
-117.052475
21
-24.449677
31
1.625432
12
-110.688599
22
-28.441406
32
1.203339
13
-86.416245
23
-25.877548
33
75.555595
0
3DFACE
8
0
70
0
10
-16.706890
20
-152.844193
30
102.617195
11
-31.473774
21
-119.444244
31
102.617195
12
-78.613716
22
-119.444244
32
102.617195
13
-83.890282
23
-153.029510
33
102.617195
0
3DFACE
8
0
70
0
10
7.759635
20
166.697144
30
4.504097
11
4.799274
21
143.980835
31
-46.474293
12
-47.192928
22
146.307434
32
-35.219997
13
-55.375324
23
154.099548
33
-1.319043
0
3DFACE
8
0
70
0
10
-83.637245
20
-23.380981
30
0.553893
11
-70.398262
21
-27.731430
31
-62.393223
12
-76.518326
22
-43.733322
32
-42.158394
13
-84.084328
23
-42.993050
33
1.001074
0
3DFACE
8
0
70
0
10
-110.688599
20
-28.441406
30
1.203339
11
-92.840012
21
-34.041954
31
-78.896217
12
-70.398262
22
-27.731430
32
-62.393223
13
-83.637245
23
-23.380981
33
0.553893
0
3DFACE
8
0
70
0
10
-117.052475
20
-24.449677
30
1.625432
11
-131.070999
21
30.552368
31
4.956622
12
-109.014771
22
24.022614
32
-86.984825
13
-98.366714
23
-30.755020
33
-90.190674
0
3DFACE
8
0
70
0
10
-109.014771
20
24.022614
30
-86.984825
11
-131.070999
21
30.552368
31
4.956622
12
-123.385117
22
31.216888
32
4.731915
13
-102.364441
23
25.405121
33
-75.485611
0
3DFACE
8
0
70
0
10
-117.052475
20
-24.449677
30
1.625432
11
-98.366714
21
-30.755020
31
-90.190674
12
-92.840012
22
-34.041954
32
-78.896217
13
-110.688599
23
-28.441406
33
1.203339
0
3DFACE
8
0
70
0
10
-29.385015
20
-51.691238
30
22.549852
11
-23.741766
21
-54.960327
31
-4.695231
12
-23.813696
22
-44.392807
32
-3.069423
13
-27.039940
23
-33.916336
33
59.438808
0
3DFACE
8
0
70
0
10
-29.385015
20
-51.691238
30
22.549852
11
-27.039940
21
-33.916336
31
59.438808
12
-70.498138
22
-35.233177
32
40.114094
13
-72.019638
23
-52.468369
33
16.275961
0
3DFACE
8
0
70
0
10
-72.019638
20
-52.468369
30
16.275961
11
-70.498138
21
-35.233177
31
40.114094
12
-84.084328
22
-42.993050
32
1.001074
13
-84.012535
23
-54.431618
33
-0.015043
0
3DFACE
8
0
70
0
10
-23.741766
20
-54.960327
30
-4.695231
11
-33.940121
21
-58.229218
31
-31.865465
12
-36.301762
22
-46.993477
32
-67.134247
13
-23.813696
23
-44.392807
33
-3.069423
0
3DFACE
8
0
70
0
10
-84.012535
20
-54.431618
30
-0.015043
11
-84.084328
21
-42.993050
31
1.001074
12
-76.518326
22
-43.733322
32
-42.158394
13
-74.980453
23
-56.718056
33
-19.093996
0
3DFACE
8
0
70
0
10
-74.980453
20
-56.718056
30
-19.093996
11
-76.518326
21
-43.733322
31
-42.158394
12
-36.301762
22
-46.993477
32
-67.134247
13
-33.940121
23
-58.229218
33
-31.865465
0
3DFACE
8
0
70
0
10
-29.967794
20
-124.879135
30
-6.914900
11
-34.760250
21
-95.936409
31
20.216686
12
-37.787899
22
-108.736435
32
35.947453
13
-31.473774
23
-127.827744
33
43.725594
0
3DFACE
8
0
70
0
10
-34.760250
20
-95.936409
30
20.216686
11
-69.791069
21
-102.023331
31
12.630606
12
-70.777412
22
-112.334427
32
35.947453
13
-37.787899
23
-108.736435
33
35.947453
0
3DFACE
8
0
70
0
10
-79.739471
20
-124.282387
30
-3.856627
11
-78.613716
21
-127.827744
31
43.725594
12
-70.777412
22
-112.334427
32
35.947453
13
-69.791069
23
-102.023331
33
12.630606
0
3DFACE
8
0
70
0
10
-15.780953
20
-155.703659
30
-36.323048
11
-29.967794
21
-124.879135
31
-6.914900
12
-31.473774
22
-127.827744
32
43.725594
13
-20.410763
23
-150.617310
33
32.613968
0
3DFACE
8
0
70
0
10
-89.032562
20
-153.542114
30
-29.962627
11
-87.594154
21
-150.723206
31
36.317848
12
-78.613716
22
-127.827744
32
43.725594
13
-79.739471
23
-124.282387
33
-3.856627
0
3DFACE
8
0
70
0
10
-89.032562
20
-153.542114
30
-29.962627
11
-15.780953
21
-155.703659
31
-36.323048
12
-20.410763
22
-150.617310
32
32.613968
13
-87.594154
23
-150.723206
33
36.317848
0
3DFACE
8
0
70
0
10
-31.473774
20
-119.444244
30
102.617195
11
-31.473774
21
-127.827744
31
43.725594
12
-37.787899
22
-108.736435
32
35.947453
13
-37.787899
23
-98.998032
33
87.801697
0
3DFACE
8
0
70
0
10
-37.787899
20
-98.998032
30
87.801697
11
-37.787899
21
-108.736435
31
35.947453
12
-70.777412
22
-112.334427
32
35.947453
13
-70.777412
23
-98.812729
33
87.801697
0
3DFACE
8
0
70
0
10
-78.613716
20
-119.444244
30
102.617195
11
-70.777412
21
-98.812729
31
87.801697
12
-70.777412
22
-112.334427
32
35.947453
13
-78.613716
23
-127.827744
33
43.725594
0
3DFACE
8
0
70
0
10
-16.706890
20
-152.844193
30
102.617195
11
-20.410763
21
-150.617310
31
32.613968
12
-31.473774
22
-127.827744
32
43.725594
13
-31.473774
23
-119.444244
33
102.617195
0
3DFACE
8
0
70
0
10
-83.890282
20
-153.029510
30
102.617195
11
-78.613716
21
-119.444244
31
102.617195
12
-78.613716
22
-127.827744
32
43.725594
13
-87.594154
23
-150.723206
33
36.317848
0
3DFACE
8
0
70
0
10
-83.890282
20
-153.029510
30
102.617195
11
-87.594154
21
-150.723206
31
36.317848
12
-20.410763
22
-150.617310
32
32.613968
13
-16.706890
23
-152.844193
33
102.617195
0
3DFACE
8
0
70
0
10
-78.307236
20
227.531372
30
292.567261
11
-85.032875
21
244.922607
31
287.419769
12
-100.408195
22
231.511963
32
294.205505
13
-94.630775
23
211.284607
33
288.458282
0
3DFACE
8
0
70
0
10
-83.329132
20
128.900238
30
-21.521557
11
-55.375324
21
154.099548
31
-1.319043
12
-47.192928
22
146.307434
32
-35.219997
13
-47.192928
23
146.307434
33
-35.219997
0
3DFACE
8
0
70
0
10
-55.533230
20
137.250427
30
42.291260
11
-45.080486
21
130.502380
31
60.791687
12
-55.375324
22
154.099548
32
-1.319043
13
-55.375324
23
154.099548
33
-1.319043
0
3DFACE
8
0
70
0
10
-77.141724
20
180.873718
30
128.946075
11
-71.821732
21
191.689758
31
162.995590
12
-109.083427
22
163.206238
32
178.795761
13
-115.161644
23
154.682343
33
144.141953
0
3DFACE
8
0
70
0
10
-121.262016
20
210.434387
30
127.251823
11
-115.276253
21
223.041260
31
160.605728
12
-71.821732
22
191.689758
32
162.995590
13
-77.141724
23
180.873718
33
128.946075
0
3DFACE
8
0
70
0
10
-144.801102
20
192.795074
30
175.600143
11
-115.276253
21
223.041260
31
160.605728
12
-121.262016
22
210.434387
32
127.251823
13
-151.400574
23
181.998413
33
141.771622
0
3DFACE
8
0
70
0
10
-115.161644
20
154.682343
30
144.141953
11
-109.083427
21
163.206238
31
178.795761
12
-144.801102
22
192.795074
32
175.600143
13
-151.400574
23
181.998413
33
141.771622
0
3DFACE
8
0
70
0
10
-108.975006
20
152.197510
30
182.325531
11
-59.869556
21
191.830261
31
160.827591
12
-55.196182
22
201.708008
32
192.098206
13
-103.226379
23
159.343231
33
215.242813
0
3DFACE
8
0
70
0
10
-59.869556
20
191.830261
30
160.827591
11
-117.314079
21
235.364075
31
156.994949
12
-111.970436
22
247.234131
32
186.659943
13
-55.196182
23
201.708008
33
192.098206
0
3DFACE
8
0
70
0
10
-149.980331
20
203.143616
30
208.468750
11
-111.970436
21
247.234131
31
186.659943
12
-117.314079
22
235.364075
32
156.994949
13
-156.202332
23
193.289307
33
177.465607
0
3DFACE
8
0
70
0
10
-108.975006
20
152.197510
30
182.325531
11
-103.226379
21
159.343231
31
215.242813
12
-149.980331
22
203.143616
32
208.468750
13
-156.202332
23
193.289307
33
177.465607
0
3DFACE
8
0
70
0
10
-108.975006
20
152.197510
30
182.325531
11
-109.083427
21
163.206238
31
178.795761
12
-71.821732
22
191.689758
32
162.995590
13
-59.869556
23
191.830261
33
160.827591
0
3DFACE
8
0
70
0
10
-103.226379
20
159.343231
30
215.242813
11
-55.196182
21
201.708008
31
192.098206
12
-66.943611
22
201.607361
32
194.216965
13
-103.358955
23
171.234131
33
211.432922
0
3DFACE
8
0
70
0
10
-59.869556
20
191.830261
30
160.827591
11
-71.821732
21
191.689758
31
162.995590
12
-115.276253
22
223.041260
32
160.605728
13
-117.314079
23
235.364075
33
156.994949
0
3DFACE
8
0
70
0
10
-55.196182
20
201.708008
30
192.098206
11
-111.970436
21
247.234131
31
186.659943
12
-109.919022
22
234.324402
32
190.457535
13
-66.943611
23
201.607361
33
194.216965
0
3DFACE
8
0
70
0
10
-149.980331
20
203.143616
30
208.468750
11
-138.749786
21
202.694916
31
206.618896
12
-109.919022
22
234.324402
32
190.457535
13
-111.970436
23
247.234131
33
186.659943
0
3DFACE
8
0
70
0
10
-156.202332
20
193.289307
30
177.465607
11
-117.314079
21
235.364075
31
156.994949
12
-115.276253
22
223.041260
32
160.605728
13
-144.801102
23
192.795074
33
175.600143
0
3DFACE
8
0
70
0
10
-103.226379
20
159.343231
30
215.242813
11
-103.358955
21
171.234131
31
211.432922
12
-138.749786
22
202.694916
32
206.618896
13
-149.980331
23
203.143616
33
208.468750
0
3DFACE
8
0
70
0
10
-108.975006
20
152.197510
30
182.325531
11
-156.202332
21
193.289307
31
177.465607
12
-144.801102
22
192.795074
32
175.600143
13
-109.083427
23
163.206238
33
178.795761
0
3DFACE
8
0
70
0
10
-95.990616
20
189.748840
30
197.047379
11
-103.358955
21
171.234131
31
211.432922
12
-66.943611
22
201.607361
32
194.216965
13
-96.648521
23
215.355011
33
188.320618
0
3DFACE
8
0
70
0
10
-96.648521
20
215.355011
30
188.320618
11
-66.943611
21
201.607361
31
194.216965
12
-109.919022
22
234.324402
32
190.457535
13
-124.225304
23
209.019623
33
195.153961
0
3DFACE
8
0
70
0
10
-120.600906
20
186.089844
30
202.326111
11
-124.225304
21
209.019623
31
195.153961
12
-109.919022
22
234.324402
32
190.457535
13
-138.749786
23
202.694916
33
206.618896
0
3DFACE
8
0
70
0
10
-95.990616
20
189.748840
30
197.047379
11
-120.600906
21
186.089844
31
202.326111
12
-138.749786
22
202.694916
32
206.618896
13
-103.358955
23
171.234131
33
211.432922
0
3DFACE
8
0
70
0
10
-76.032814
20
256.915070
30
225.201706
11
-79.004234
21
253.149780
31
213.140091
12
-89.450729
22
256.470093
32
213.755981
13
-86.456650
23
260.331757
33
225.759033
0
3DFACE
8
0
70
0
10
-86.456650
20
260.331757
30
225.759033
11
-89.450729
21
256.470093
31
213.755981
12
-100.389748
22
259.426697
32
214.633148
13
-97.430176
23
263.170166
33
226.661865
0
3DFACE
8
0
70
0
10
-111.408875
20
177.904480
30
241.470779
11
-124.323753
21
210.736938
31
232.827728
12
-124.225304
22
209.019623
32
195.153961
13
-120.600906
23
186.089844
33
202.326111
0
3DFACE
8
0
70
0
10
-83.857674
20
202.348450
30
228.584595
11
-111.408875
21
177.904480
31
241.470779
12
-120.600906
22
186.089844
32
202.326111
13
-95.990616
23
189.748840
33
197.047379
0
3DFACE
8
0
70
0
10
-78.307236
20
227.531372
30
292.567261
11
-83.857674
21
202.348450
31
228.584595
12
-94.074669
22
239.668213
32
233.646103
13
-85.032875
23
244.922607
33
287.419769
0
3DFACE
8
0
70
0
10
-85.032875
20
244.922607
30
287.419769
11
-94.074669
21
239.668213
31
233.646103
12
-124.323753
22
210.736938
32
232.827728
13
-100.408195
23
231.511963
33
294.205505
0
3DFACE
8
0
70
0
10
-94.630775
20
211.284607
30
288.458282
11
-100.408195
21
231.511963
31
294.205505
12
-124.323753
22
210.736938
32
232.827728
13
-111.408875
23
177.904480
33
241.470779
0
3DFACE
8
0
70
0
10
-78.307236
20
227.531372
30
292.567261
11
-94.630775
21
211.284607
31
288.458282
12
-111.408875
22
177.904480
32
241.470779
13
-83.857674
23
202.348450
33
228.584595
0
3DFACE
8
0
70
0
10
-76.032814
20
256.915070
30
225.201706
11
-83.857674
21
202.348450
31
228.584595
12
-95.990616
22
189.748840
32
197.047379
13
-79.004234
23
253.149780
33
213.140091
0
3DFACE
8
0
70
0
10
-79.004234
20
253.149780
30
213.140091
11
-95.990616
21
189.748840
31
197.047379
12
-96.648521
22
215.355011
32
188.320618
13
-89.450729
23
256.470093
33
213.755981
0
3DFACE
8
0
70
0
10
-76.032814
20
256.915070
30
225.201706
11
-86.456650
21
260.331757
31
225.759033
12
-94.074669
22
239.668213
32
233.646103
13
-83.857674
23
202.348450
33
228.584595
0
3DFACE
8
0
70
0
10
-89.450729
20
256.470093
30
213.755981
11
-96.648521
21
215.355011
31
188.320618
12
-124.225304
22
209.019623
32
195.153961
13
-100.389748
23
259.426697
33
214.633148
0
3DFACE
8
0
70
0
10
-97.430176
20
263.170166
30
226.661865
11
-100.389748
21
259.426697
31
214.633148
12
-124.225304
22
209.019623
32
195.153961
13
-124.323753
23
210.736938
33
232.827728
0
3DFACE
8
0
70
0
10
-86.456650
20
260.331757
30
225.759033
11
-97.430176
21
263.170166
31
226.661865
12
-124.323753
22
210.736938
32
232.827728
13
-94.074669
23
239.668213
33
233.646103
0
3DFACE
8
0
70
0
10
21.013239
20
-48.828247
30
-0.662093
11
34.897511
21
-30.744568
31
59.403137
12
1.610920
22
-25.269745
32
81.587677
13
-1.903312
23
-29.736221
33
-2.907848
0
3DFACE
8
0
70
0
10
21.013239
20
-48.828247
30
-0.662093
11
-1.903312
21
-29.736221
31
-2.907848
12
-5.558372
22
-34.381683
32
-90.789398
13
22.343088
23
-59.511665
33
-65.728813
0
3DFACE
8
0
70
0
10
-5.558372
20
-34.381683
30
-90.789398
11
-1.903312
21
-29.736221
31
-2.907848
12
-23.813696
22
-44.392807
32
-3.069423
13
-36.301762
23
-46.993477
33
-67.134247
0
3DFACE
8
0
70
0
10
-1.903312
20
-29.736221
30
-2.907848
11
1.610920
21
-25.269745
31
81.587677
12
-27.039940
22
-33.916336
32
59.438808
13
-23.813696
23
-44.392807
33
-3.069423
0
3DFACE
8
0
70
0
10
3.997266
20
180.306702
30
122.611298
11
14.272141
21
180.828156
31
117.381271
12
23.696466
22
198.576141
32
122.216965
13
3.997266
23
198.757813
33
128.666168
0
3DFACE
8
0
70
0
10
3.997266
20
198.757813
30
128.666168
11
23.696466
21
198.576141
31
122.216965
12
16.620138
22
207.140503
32
121.019630
13
3.997266
23
210.574738
33
124.536148
0
3DFACE
8
0
70
0
10
14.272141
20
180.828156
30
117.381271
11
15.205344
21
177.509399
31
104.511536
12
26.697340
22
196.096497
32
104.760262
13
23.696466
23
198.576141
33
122.216965
0
3DFACE
8
0
70
0
10
3.997266
20
180.306702
30
122.611298
11
3.738883
21
174.722046
31
110.431030
12
15.205344
22
177.509399
32
104.511536
13
14.272141
23
180.828156
33
117.381271
0
3DFACE
8
0
70
0
10
3.997266
20
210.574738
30
124.536148
11
16.620138
21
207.140503
31
121.019630
12
18.539562
22
208.017517
32
104.835991
13
3.738883
23
211.961090
33
110.144325
0
3DFACE
8
0
70
0
10
23.696466
20
198.576141
30
122.216965
11
26.697340
21
196.096497
31
104.760262
12
18.539562
22
208.017517
32
104.835991
13
16.620138
23
207.140503
33
121.019630
0
3DFACE
8
0
70
0
10
7.777076
20
221.445038
30
106.276031
11
7.777076
21
211.940430
31
107.318275
12
18.806543
22
209.592163
32
102.009949
13
20.123558
23
229.002502
33
104.268639
0
3DFACE
8
0
70
0
10
18.806543
20
209.592163
30
102.009949
11
28.368868
21
210.588196
31
95.723228
12
32.042904
22
221.448425
32
92.150620
13
20.123558
23
229.002502
33
104.268639
0
3DFACE
8
0
70
0
10
16.729870
20
159.469116
30
123.670204
11
12.768919
21
178.446899
31
112.725739
12
3.738883
22
177.032837
32
115.474304
13
3.738883
23
159.265625
33
124.353912
0
3DFACE
8
0
70
0
10
54.654900
20
176.306580
30
78.126740
11
53.049156
21
187.236511
31
77.948036
12
29.832479
22
180.129791
32
98.608398
13
36.940487
23
157.303833
33
104.917747
0
3DFACE
8
0
70
0
10
12.768919
20
178.446899
30
112.725739
11
16.729870
21
159.469116
31
123.670204
12
34.943493
22
161.660431
32
115.002640
13
27.466290
23
178.709167
33
112.608627
0
3DFACE
8
0
70
0
10
49.514057
20
220.184937
30
78.357887
11
61.679604
21
227.540619
31
77.814453
12
36.594429
22
235.798859
32
95.688103
13
36.301716
23
225.057556
33
94.877663
0
3DFACE
8
0
70
0
10
3.738883
20
237.132874
30
110.968666
11
3.738883
21
225.558319
31
108.957710
12
19.616686
22
232.987305
32
106.687660
13
21.185379
23
244.241577
33
106.137733
0
3DFACE
8
0
70
0
10
21.185379
20
244.241577
30
106.137733
11
19.616686
21
232.987305
31
106.687660
12
36.301716
22
225.057556
32
94.877663
13
36.594429
23
235.798859
33
95.688103
0
3DFACE
8
0
70
0
10
3.738883
20
132.673096
30
122.178642
11
20.913790
21
141.018555
31
115.812431
12
17.731497
22
150.170074
32
113.764580
13
3.738883
23
147.203278
33
119.235947
0
3DFACE
8
0
70
0
10
3.738883
20
89.516891
30
101.101158
11
24.098917
21
102.034058
31
97.859222
12
20.913790
22
141.018555
32
115.812431
13
3.738883
23
132.673096
33
122.178642
0
3DFACE
8
0
70
0
10
54.654900
20
176.306580
30
78.126740
11
36.940487
21
157.303833
31
104.917747
12
36.257317
22
154.082092
32
95.906563
13
58.378128
23
165.048523
33
81.297020
0
3DFACE
8
0
70
0
10
36.257317
20
154.082092
30
95.906563
11
47.630699
21
128.035583
31
66.107307
12
57.708771
22
157.683044
32
50.112881
13
58.378128
23
165.048523
33
81.297020
0
3DFACE
8
0
70
0
10
24.098917
20
102.034058
30
97.859222
11
47.630699
21
128.035583
31
66.107307
12
36.257317
22
154.082092
32
95.906563
13
20.913790
23
141.018555
33
115.812431
0
3DFACE
8
0
70
0
10
20.913790
20
141.018555
30
115.812431
11
36.257317
21
154.082092
31
95.906563
12
36.940487
22
157.303833
32
104.917747
13
17.731497
23
150.170074
33
113.764580
0
3DFACE
8
0
70
0
10
3.738883
20
159.265625
30
124.353912
11
3.738883
21
147.203278
31
119.235947
12
17.731497
22
150.170074
32
113.764580
13
16.729870
23
159.469116
33
123.670204
0
3DFACE
8
0
70
0
10
3.738883
20
177.032837
30
115.474304
11
12.768919
21
178.446899
31
112.725739
12
15.205344
22
177.509399
32
104.511536
13
3.738883
23
174.722046
33
110.431030
0
3DFACE
8
0
70
0
10
27.466290
20
178.709167
30
112.608627
11
29.832479
21
180.129791
31
98.608398
12
15.205344
22
177.509399
32
104.511536
13
12.768919
23
178.446899
33
112.725739
0
POINT
8
0
70
0
10
56.145893
20
160.365143
30
96.495125
0
3DFACE
8
0
70
0
10
16.729870
20
159.469116
30
123.670204
11
17.731497
21
150.170074
31
113.764580
12
36.940487
22
157.303833
32
104.917747
13
34.943493
23
161.660431
33
115.002640
0
3DFACE
8
0
70
0
10
34.943493
20
161.660431
30
115.002640
11
56.145893
21
160.365143
31
96.495125
12
27.466290
22
178.709167
32
112.608627
13
27.466290
23
178.709167
33
112.608627
0
3DFACE
8
0
70
0
10
27.466290
20
178.709167
30
112.608627
11
56.145893
21
160.365143
31
96.495125
12
29.832479
22
180.129791
32
98.608398
13
29.832479
23
180.129791
33
98.608398
0
3DFACE
8
0
70
0
10
56.145893
20
160.365143
30
96.495125
11
36.940487
21
157.303833
31
104.917747
12
29.832479
22
180.129791
32
98.608398
13
29.832479
23
180.129791
33
98.608398
0
3DFACE
8
0
70
0
10
36.940487
20
157.303833
30
104.917747
11
56.145893
21
160.365143
31
96.495125
12
34.943493
22
161.660431
32
115.002640
13
34.943493
23
161.660431
33
115.002640
0
3DFACE
8
0
70
0
10
61.679604
20
227.540619
30
77.814453
11
49.514057
21
220.184937
31
78.357887
12
62.947479
22
216.348694
32
41.578911
13
66.253021
23
217.683228
33
41.266933
0
3DFACE
8
0
70
0
10
49.514057
20
220.184937
30
78.357887
11
47.541306
21
209.859009
31
78.655991
12
64.451881
22
209.042908
32
42.462151
13
62.947479
23
216.348694
33
41.578911
0
3DFACE
8
0
70
0
10
47.541306
20
209.859009
30
78.655991
11
49.983082
21
196.759888
31
78.504814
12
64.473671
22
195.848938
32
44.641083
13
64.451881
23
209.042908
33
42.462151
0
3DFACE
8
0
70
0
10
66.253021
20
217.683228
30
41.266933
11
62.947479
21
216.348694
31
41.578911
12
46.157276
22
213.574707
32
15.364482
13
48.743401
23
210.312927
33
16.025953
0
3DFACE
8
0
70
0
10
64.451881
20
209.042908
30
42.462151
11
48.469631
21
212.722290
31
12.672510
12
46.157276
22
213.574707
32
15.364482
13
62.947479
23
216.348694
33
41.578911
0
3DFACE
8
0
70
0
10
64.473671
20
195.848938
30
44.641083
11
45.724857
21
201.025208
31
11.188781
12
48.469631
22
212.722290
32
12.672510
13
64.451881
23
209.042908
33
42.462151
0
3DFACE
8
0
70
0
10
48.743401
20
210.312927
30
16.025953
11
46.157276
21
213.574707
31
15.364482
12
3.738885
22
213.033264
32
-1.753984
13
3.738884
23
206.496765
33
-3.372415
0
3DFACE
8
0
70
0
10
48.469631
20
212.722290
30
12.672510
11
3.738886
21
212.648071
31
-2.405132
12
3.738885
22
213.033264
32
-1.753984
13
46.157276
23
213.574707
33
15.364482
0
3DFACE
8
0
70
0
10
45.724857
20
201.025208
30
11.188781
11
3.738891
21
198.771912
31
-0.945824
12
3.738886
22
212.648071
32
-2.405132
13
48.469631
23
212.722290
33
12.672510
0
3DFACE
8
0
70
0
10
57.708771
20
157.683044
30
50.112881
11
64.037315
21
174.294678
31
46.003769
12
54.654900
22
176.306580
32
78.126740
13
58.378128
23
165.048523
33
81.297020
0
3DFACE
8
0
70
0
10
49.983082
20
196.759888
30
78.504814
11
53.049156
21
187.236511
31
77.948036
12
64.473671
22
195.848938
32
44.641083
13
64.473671
23
195.848938
33
44.641083
0
3DFACE
8
0
70
0
10
54.654900
20
176.306580
30
78.126740
11
64.037315
21
174.294678
31
46.003769
12
64.473671
22
195.848938
32
44.641083
13
53.049156
23
187.236511
33
77.948036
0
3DFACE
8
0
70
0
10
64.037315
20
174.294678
30
46.003769
11
44.932140
21
183.037537
31
14.099627
12
45.724857
22
201.025208
32
11.188781
13
64.473671
23
195.848938
33
44.641083
0
3DFACE
8
0
70
0
10
44.932140
20
183.037537
30
14.099627
11
3.738890
21
181.411835
31
3.485335
12
3.738891
22
198.771912
32
-0.945824
13
45.724857
23
201.025208
33
11.188781
0
3DFACE
8
0
70
0
10
3.738883
20
237.132874
30
110.968666
11
21.185379
21
244.241577
31
106.137733
12
23.138479
22
265.833313
32
99.837967
13
3.738884
23
265.653229
33
105.996429
0
3DFACE
8
0
70
0
10
3.738884
20
265.653229
30
105.996429
11
23.138479
21
265.833313
31
99.837967
12
23.527143
22
267.628021
32
94.745087
13
3.738884
23
268.643951
33
102.110413
0
3DFACE
8
0
70
0
10
21.185379
20
244.241577
30
106.137733
11
36.594429
21
235.798859
31
95.688103
12
49.629810
22
262.561523
32
86.926041
13
23.138479
23
265.833313
33
99.837967
0
3DFACE
8
0
70
0
10
23.138479
20
265.833313
30
99.837967
11
49.629810
21
262.561523
31
86.926041
12
48.387459
22
264.803253
32
82.086647
13
23.527143
23
267.628021
33
94.745087
0
3DFACE
8
0
70
0
10
36.594429
20
235.798859
30
95.688103
11
61.679604
21
227.540619
31
77.814453
12
65.726662
22
251.690308
32
57.154060
13
49.629810
23
262.561523
33
86.926041
0
3DFACE
8
0
70
0
10
49.629810
20
262.561523
30
86.926041
11
65.726662
21
251.690308
31
57.154060
12
57.427990
22
255.599060
32
55.375454
13
48.387459
23
264.803253
33
82.086647
0
3DFACE
8
0
70
0
10
61.679604
20
227.540619
30
77.814453
11
66.253021
21
217.683228
31
41.266933
12
70.252357
22
247.304596
32
31.648380
13
65.726662
23
251.690308
33
57.154060
0
3DFACE
8
0
70
0
10
65.726662
20
251.690308
30
57.154060
11
70.252357
21
247.304596
31
31.648380
12
63.697929
22
250.177185
32
32.811611
13
57.427990
23
255.599060
33
55.375454
0
3DFACE
8
0
70
0
10
66.253021
20
217.683228
30
41.266933
11
48.743401
21
210.312927
31
16.025953
12
49.638729
22
237.459106
32
9.714837
13
70.252357
23
247.304596
33
31.648380
0
3DFACE
8
0
70
0
10
70.252357
20
247.304596
30
31.648380
11
49.638729
21
237.459106
31
9.714837
12
44.110008
22
242.208405
32
12.722826
13
63.697929
23
250.177185
33
32.811611
0
3DFACE
8
0
70
0
10
48.743401
20
210.312927
30
16.025953
11
3.738884
21
206.496765
31
-3.372415
12
3.738884
22
231.539124
32
-9.574923
13
49.638729
23
237.459106
33
9.714837
0
3DFACE
8
0
70
0
10
49.638729
20
237.459106
30
9.714837
11
3.738884
21
231.539124
31
-9.574923
12
3.738884
22
235.910461
32
-5.742792
13
44.110008
23
242.208405
33
12.722826
0
3DFACE
8
0
70
0
10
57.708771
20
157.683044
30
50.112881
11
42.520180
21
159.473236
31
31.008070
12
44.932140
22
183.037537
32
14.099627
13
64.037315
23
174.294678
33
46.003769
0
3DFACE
8
0
70
0
10
42.520180
20
159.473236
30
31.008070
11
4.824967
21
166.551025
31
8.319009
12
3.738890
22
181.411835
32
3.485335
13
44.932140
23
183.037537
33
14.099627
0
3DFACE
8
0
70
0
10
47.630699
20
128.035583
30
66.107307
11
39.655216
21
136.647369
31
59.296722
12
42.520180
22
159.473236
32
31.008070
13
57.708771
23
157.683044
33
50.112881
0
3DFACE
8
0
70
0
10
24.098917
20
102.034058
30
97.859222
11
21.679972
21
102.726334
31
81.952538
12
39.655216
22
136.647369
32
59.296722
13
47.630699
23
128.035583
33
66.107307
0
3DFACE
8
0
70
0
10
21.679972
20
102.726334
30
81.952538
11
3.738883
21
101.092194
31
77.656464
12
3.738883
22
123.128876
32
56.009388
13
39.655216
23
136.647369
33
59.296722
0
3DFACE
8
0
70
0
10
3.738883
20
89.516891
30
101.101158
11
3.738883
21
101.092194
31
77.656464
12
21.679972
22
102.726334
32
81.952538
13
21.679972
23
102.726334
33
81.952538
0
3DFACE
8
0
70
0
10
3.738883
20
89.516891
30
101.101158
11
21.679972
21
102.726334
31
81.952538
12
24.098917
22
102.034058
32
97.859222
13
24.098917
23
102.034058
33
97.859222
0
3DFACE
8
0
70
0
10
3.997266
20
180.306702
30
122.611298
11
3.997266
21
198.757813
31
128.666168
12
-15.701937
22
198.576141
32
122.216965
13
-6.277609
23
180.828156
33
117.381271
0
3DFACE
8
0
70
0
10
3.997266
20
198.757813
30
128.666168
11
3.997266
21
210.574738
31
124.536148
12
-8.625608
22
207.140503
32
121.019630
13
-15.701937
23
198.576141
33
122.216965
0
3DFACE
8
0
70
0
10
-6.277609
20
180.828156
30
117.381271
11
-15.701937
21
198.576141
31
122.216965
12
-19.219572
22
196.096497
32
104.760262
13
-7.727577
23
177.509399
33
104.511536
0
3DFACE
8
0
70
0
10
3.997266
20
180.306702
30
122.611298
11
-6.277609
21
180.828156
31
117.381271
12
-7.727577
22
177.509399
32
104.511536
13
3.738883
23
174.722046
33
110.431030
0
3DFACE
8
0
70
0
10
3.997266
20
210.574738
30
124.536148
11
3.738883
21
211.961090
31
110.144325
12
-11.061796
22
208.017517
32
104.835991
13
-8.625608
23
207.140503
33
121.019630
0
3DFACE
8
0
70
0
10
-15.701937
20
198.576141
30
122.216965
11
-8.625608
21
207.140503
31
121.019630
12
-11.061796
22
208.017517
32
104.835991
13
-19.219572
23
196.096497
33
104.760262
0
3DFACE
8
0
70
0
10
0.153829
20
221.325775
30
106.095718
11
-11.994045
21
229.697693
31
104.469688
12
-11.094688
22
210.204559
32
102.640160
13
0.153829
23
212.208496
33
106.939919
0
3DFACE
8
0
70
0
10
-11.094688
20
210.204559
30
102.640160
11
-11.994045
21
229.697693
31
104.469688
12
-23.931177
22
221.328979
32
94.654114
13
-20.184175
23
211.139099
33
97.547935
0
3DFACE
8
0
70
0
10
-9.252104
20
159.469116
30
123.670204
11
3.738883
21
159.265625
31
124.353912
12
3.738883
22
177.032837
32
115.474304
13
-5.291151
23
178.446899
33
112.725739
0
3DFACE
8
0
70
0
10
-47.177124
20
176.306580
30
78.126740
11
-29.462721
21
157.303833
31
104.917747
12
-22.354712
22
180.129791
32
98.608398
13
-45.571381
23
187.236511
33
77.948036
0
3DFACE
8
0
70
0
10
-5.291151
20
178.446899
30
112.725739
11
-19.988522
21
178.709167
31
112.608627
12
-27.465723
22
161.660431
32
115.002640
13
-9.252104
23
159.469116
33
123.670204
0
3DFACE
8
0
70
0
10
-42.036293
20
220.184937
30
78.357887
11
-27.951914
21
225.057556
31
94.877663
12
-28.244623
22
235.798859
32
95.688095
13
-54.201832
23
227.540619
33
77.814453
0
3DFACE
8
0
70
0
10
3.738883
20
237.132874
30
110.968666
11
-13.303888
21
245.036011
31
105.993355
12
-11.735197
22
233.792145
32
106.658783
13
3.738883
23
225.558319
33
108.957710
0
3DFACE
8
0
70
0
10
-13.303888
20
245.036011
30
105.993355
11
-28.244623
21
235.798859
31
95.688095
12
-27.951914
22
225.057556
32
94.877663
13
-11.735197
23
233.792145
33
106.658783
0
3DFACE
8
0
70
0
10
3.738883
20
132.673096
30
122.178642
11
3.738883
21
147.203278
31
119.235947
12
-10.253731
22
150.170074
32
113.764580
13
-13.436026
23
141.018555
33
115.812431
0
3DFACE
8
0
70
0
10
3.738883
20
89.516891
30
101.101158
11
3.738883
21
132.673096
31
122.178642
12
-13.436026
22
141.018555
32
115.812431
13
-16.621151
23
102.034058
33
97.859222
0
3DFACE
8
0
70
0
10
-47.177124
20
176.306580
30
78.126740
11
-50.900349
21
165.048523
31
81.297020
12
-28.779551
22
154.082092
32
95.906563
13
-29.462721
23
157.303833
33
104.917747
0
3DFACE
8
0
70
0
10
-28.779551
20
154.082092
30
95.906563
11
-50.900349
21
165.048523
31
81.297020
12
-50.230999
22
157.683044
32
50.112881
13
-40.152935
23
128.035583
33
66.107307
0
3DFACE
8
0
70
0
10
-16.621151
20
102.034058
30
97.859222
11
-13.436026
21
141.018555
31
115.812431
12
-28.779551
22
154.082092
32
95.906563
13
-40.152935
23
128.035583
33
66.107307
0
3DFACE
8
0
70
0
10
-13.436026
20
141.018555
30
115.812431
11
-10.253731
21
150.170074
31
113.764580
12
-29.462721
22
157.303833
32
104.917747
13
-28.779551
23
154.082092
33
95.906563
0
3DFACE
8
0
70
0
10
3.738883
20
159.265625
30
124.353912
11
-9.252104
21
159.469116
31
123.670204
12
-10.253731
22
150.170074
32
113.764580
13
3.738883
23
147.203278
33
119.235947
0
3DFACE
8
0
70
0
10
3.738883
20
177.032837
30
115.474304
11
3.738883
21
174.722046
31
110.431030
12
-7.727577
22
177.509399
32
104.511536
13
-5.291151
23
178.446899
33
112.725739
0
3DFACE
8
0
70
0
10
-19.988522
20
178.709167
30
112.608627
11
-5.291151
21
178.446899
31
112.725739
12
-7.727577
22
177.509399
32
104.511536
13
-22.354712
23
180.129791
33
98.608398
0
POINT
8
0
70
0
10
-47.860676
20
160.365143
30
96.495125
0
3DFACE
8
0
70
0
10
-9.252104
20
159.469116
30
123.670204
11
-27.465723
21
161.660431
31
115.002640
12
-29.462721
22
157.303833
32
104.917747
13
-10.253731
23
150.170074
33
113.764580
0
3DFACE
8
0
70
0
10
-27.465723
20
161.660431
30
115.002640
11
-19.988522
21
178.709167
31
112.608627
12
-47.860676
22
160.365143
32
96.495125
13
-47.860676
23
160.365143
33
96.495125
0
3DFACE
8
0
70
0
10
-19.988522
20
178.709167
30
112.608627
11
-22.354712
21
180.129791
31
98.608398
12
-47.860676
22
160.365143
32
96.495125
13
-47.860676
23
160.365143
33
96.495125
0
3DFACE
8
0
70
0
10
-47.860676
20
160.365143
30
96.495125
11
-22.354712
21
180.129791
31
98.608398
12
-29.462721
22
157.303833
32
104.917747
13
-29.462721
23
157.303833
33
104.917747
0
3DFACE
8
0
70
0
10
-29.462721
20
157.303833
30
104.917747
11
-27.465723
21
161.660431
31
115.002640
12
-47.860676
22
160.365143
32
96.495125
13
-47.860676
23
160.365143
33
96.495125
0
3DFACE
8
0
70
0
10
-54.201832
20
227.540619
30
77.814453
11
-58.775249
21
217.683228
31
41.266933
12
-55.469707
22
216.348694
32
41.578911
13
-42.036293
23
220.184937
33
78.357887
0
3DFACE
8
0
70
0
10
-42.036293
20
220.184937
30
78.357887
11
-55.469707
21
216.348694
31
41.578911
12
-56.974113
22
209.042908
32
42.462151
13
-40.063538
23
209.859009
33
78.655991
0
3DFACE
8
0
70
0
10
-40.063538
20
209.859009
30
78.655991
11
-56.974113
21
209.042908
31
42.462151
12
-56.995895
22
195.848938
32
44.641083
13
-42.505306
23
196.759888
33
78.504814
0
3DFACE
8
0
70
0
10
-58.775249
20
217.683228
30
41.266933
11
-41.265633
21
210.312958
31
16.025953
12
-38.679501
22
213.574707
32
15.364482
13
-55.469707
23
216.348694
33
41.578911
0
3DFACE
8
0
70
0
10
-56.974113
20
209.042908
30
42.462151
11
-55.469707
21
216.348694
31
41.578911
12
-38.679501
22
213.574707
32
15.364482
13
-40.991863
23
212.722290
33
12.672510
0
3DFACE
8
0
70
0
10
-56.995895
20
195.848938
30
44.641083
11
-56.974113
21
209.042908
31
42.462151
12
-40.991863
22
212.722290
32
12.672510
13
-38.247086
23
201.025208
33
11.188781
0
3DFACE
8
0
70
0
10
-41.265633
20
210.312958
30
16.025953
11
3.738884
21
206.496765
31
-3.372415
12
3.738885
22
213.033264
32
-1.753984
13
-38.679501
23
213.574707
33
15.364482
0
3DFACE
8
0
70
0
10
-40.991863
20
212.722290
30
12.672510
11
-38.679501
21
213.574707
31
15.364482
12
3.738885
22
213.033264
32
-1.753984
13
3.738886
23
212.648071
33
-2.405132
0
3DFACE
8
0
70
0
10
-38.247086
20
201.025208
30
11.188781
11
-40.991863
21
212.722290
31
12.672510
12
3.738886
22
212.648071
32
-2.405132
13
3.738891
23
198.771912
33
-0.945824
0
3DFACE
8
0
70
0
10
-50.230999
20
157.683044
30
50.112881
11
-50.900349
21
165.048523
31
81.297020
12
-47.177124
22
176.306580
32
78.126740
13
-56.559540
23
174.294678
33
46.003769
0
3DFACE
8
0
70
0
10
-42.505306
20
196.759888
30
78.504814
11
-56.995895
21
195.848938
31
44.641083
12
-45.571381
22
187.236511
32
77.948036
13
-45.571381
23
187.236511
33
77.948036
0
3DFACE
8
0
70
0
10
-47.177124
20
176.306580
30
78.126740
11
-45.571381
21
187.236511
31
77.948036
12
-56.995895
22
195.848938
32
44.641083
13
-56.559540
23
174.294678
33
46.003769
0
3DFACE
8
0
70
0
10
-56.559540
20
174.294678
30
46.003769
11
-56.995895
21
195.848938
31
44.641083
12
-38.247086
22
201.025208
32
11.188781
13
-37.454369
23
183.037537
33
14.099627
0
3DFACE
8
0
70
0
10
-37.454369
20
183.037537
30
14.099627
11
-38.247086
21
201.025208
31
11.188781
12
3.738891
22
198.771912
32
-0.945824
13
3.738890
23
181.411835
33
3.485335
0
3DFACE
8
0
70
0
10
3.738883
20
237.132874
30
110.968666
11
3.738884
21
265.653229
31
105.996429
12
-15.660714
22
265.833313
32
99.837967
13
-13.303888
23
245.036011
33
105.993355
0
3DFACE
8
0
70
0
10
3.738884
20
265.653229
30
105.996429
11
3.738884
21
268.643951
31
102.110413
12
-16.049379
22
267.628021
32
94.745087
13
-15.660714
23
265.833313
33
99.837967
0
3DFACE
8
0
70
0
10
-13.303888
20
245.036011
30
105.993355
11
-15.660714
21
265.833313
31
99.837967
12
-42.152035
22
262.561523
32
86.926041
13
-28.244623
23
235.798859
33
95.688095
0
3DFACE
8
0
70
0
10
-15.660714
20
265.833313
30
99.837967
11
-16.049379
21
267.628021
31
94.745087
12
-40.909683
22
264.803253
32
82.086647
13
-42.152035
23
262.561523
33
86.926041
0
3DFACE
8
0
70
0
10
-28.244623
20
235.798859
30
95.688095
11
-42.152035
21
262.561523
31
86.926041
12
-58.248894
22
251.690308
32
57.154060
13
-54.201832
23
227.540619
33
77.814453
0
3DFACE
8
0
70
0
10
-42.152035
20
262.561523
30
86.926041
11
-40.909683
21
264.803253
31
82.086647
12
-49.950214
22
255.599060
32
55.375454
13
-58.248894
23
251.690308
33
57.154060
0
3DFACE
8
0
70
0
10
-54.201832
20
227.540619
30
77.814453
11
-58.248894
21
251.690308
31
57.154060
12
-62.774582
22
247.304596
32
31.648380
13
-58.775249
23
217.683228
33
41.266933
0
3DFACE
8
0
70
0
10
-58.248894
20
251.690308
30
57.154060
11
-49.950214
21
255.599060
31
55.375454
12
-56.220154
22
250.177185
32
32.811611
13
-62.774582
23
247.304596
33
31.648380
0
3DFACE
8
0
70
0
10
-58.775249
20
217.683228
30
41.266933
11
-62.774582
21
247.304596
31
31.648380
12
-42.160957
22
237.459106
32
9.714837
13
-41.265633
23
210.312958
33
16.025953
0
3DFACE
8
0
70
0
10
-62.774582
20
247.304596
30
31.648380
11
-56.220154
21
250.177185
31
32.811611
12
-36.632240
22
242.208405
32
12.722825
13
-42.160957
23
237.459106
33
9.714837
0
3DFACE
8
0
70
0
10
-41.265633
20
210.312958
30
16.025953
11
-42.160957
21
237.459106
31
9.714837
12
3.738884
22
231.539124
32
-9.574923
13
3.738884
23
206.496765
33
-3.372415
0
3DFACE
8
0
70
0
10
-42.160957
20
237.459106
30
9.714837
11
-36.632240
21
242.208405
31
12.722825
12
3.738884
22
235.910461
32
-5.742792
13
3.738884
23
231.539124
33
-9.574923
0
3DFACE
8
0
70
0
10
-50.230999
20
157.683044
30
50.112881
11
-56.559540
21
174.294678
31
46.003769
12
-37.454369
22
183.037537
32
14.099627
13
-29.817278
23
161.863800
33
31.959217
0
3DFACE
8
0
70
0
10
-29.817278
20
161.863800
30
31.959217
11
-37.454369
21
183.037537
31
14.099627
12
3.738890
22
181.411835
32
3.485335
13
4.824967
23
166.551025
33
8.319009
0
3DFACE
8
0
70
0
10
-40.152935
20
128.035583
30
66.107307
11
-50.230999
21
157.683044
31
50.112881
12
-29.817278
22
161.863800
32
31.959217
13
-22.425804
23
138.871094
33
60.532127
0
3DFACE
8
0
70
0
10
-16.621151
20
102.034058
30
97.859222
11
-40.152935
21
128.035583
31
66.107307
12
-22.425804
22
138.871094
32
60.532127
13
-14.202206
23
102.726334
33
81.952538
0
3DFACE
8
0
70
0
10
-14.202206
20
102.726334
30
81.952538
11
-22.425804
21
138.871094
31
60.532127
12
3.738883
22
123.128876
32
56.009388
13
3.738883
23
101.092194
33
77.656464
0
3DFACE
8
0
70
0
10
3.738883
20
89.516891
30
101.101158
11
-14.202206
21
102.726334
31
81.952538
12
3.738883
22
101.092194
32
77.656464
13
3.738883
23
101.092194
33
77.656464
0
3DFACE
8
0
70
0
10
3.738883
20
89.516891
30
101.101158
11
-16.621151
21
102.034058
31
97.859222
12
-14.202206
22
102.726334
32
81.952538
13
-14.202206
23
102.726334
33
81.952538
0
3DFACE
8
0
70
0
10
0.153829
20
212.208496
30
106.939919
11
3.738883
21
211.961090
31
110.144325
12
3.738883
22
225.558319
32
108.957710
13
0.153829
23
221.325775
33
106.095718
0
3DFACE
8
0
70
0
10
-11.094688
20
210.204559
30
102.640160
11
-11.061796
21
208.017517
31
104.835991
12
3.738883
22
211.961090
32
110.144325
13
0.153829
23
212.208496
33
106.939919
0
3DFACE
8
0
70
0
10
-11.994045
20
229.697693
30
104.469688
11
0.153829
21
221.325775
31
106.095718
12
3.738883
22
225.558319
32
108.957710
13
-11.735197
23
233.792145
33
106.658783
0
3DFACE
8
0
70
0
10
-11.094688
20
210.204559
30
102.640160
11
-20.184175
21
211.139099
31
97.547935
12
-23.021646
22
209.298401
32
98.549278
13
-11.061796
23
208.017517
33
104.835991
0
3DFACE
8
0
70
0
10
-20.184175
20
211.139099
30
97.547935
11
-23.931177
21
221.328979
31
94.654114
12
-27.951914
22
225.057556
32
94.877663
13
-23.021646
23
209.298401
33
98.549278
0
3DFACE
8
0
70
0
10
-11.994045
20
229.697693
30
104.469688
11
-11.735197
21
233.792145
31
106.658783
12
-27.951914
22
225.057556
32
94.877663
13
-23.931177
23
221.328979
33
94.654114
0
3DFACE
8
0
70
0
10
20.123558
20
229.002502
30
104.268639
11
19.616686
21
232.987305
31
106.687660
12
3.738883
22
225.558319
32
108.957710
13
7.777076
23
221.445038
33
106.276031
0
3DFACE
8
0
70
0
10
18.806543
20
209.592163
30
102.009949
11
7.777076
21
211.940430
31
107.318275
12
3.738883
22
211.961090
32
110.144325
13
18.539562
23
208.017517
33
104.835991
0
3DFACE
8
0
70
0
10
7.777076
20
211.940430
30
107.318275
11
7.777076
21
221.445038
31
106.276031
12
3.738883
22
225.558319
32
108.957710
13
3.738883
23
211.961090
33
110.144325
0
3DFACE
8
0
70
0
10
20.123558
20
229.002502
30
104.268639
11
32.042904
21
221.448425
31
92.150620
12
36.301716
22
225.057556
32
94.877663
13
19.616686
23
232.987305
33
106.687660
0
3DFACE
8
0
70
0
10
28.368868
20
210.588196
30
95.723228
11
31.371452
21
209.298401
31
98.549278
12
36.301716
22
225.057556
32
94.877663
13
32.042904
23
221.448425
33
92.150620
0
3DFACE
8
0
70
0
10
18.806543
20
209.592163
30
102.009949
11
18.539562
21
208.017517
31
104.835991
12
31.371452
22
209.298401
32
98.549278
13
28.368868
23
210.588196
33
95.723228
0
3DFACE
8
0
70
0
10
4.824967
20
166.551025
30
8.319009
11
42.520180
21
159.473236
31
31.008070
12
67.511238
22
150.484741
32
-3.236143
13
7.759635
23
166.697144
33
4.504097
0
3DFACE
8
0
70
0
10
7.759635
20
166.697144
30
4.504097
11
-55.375324
21
154.099548
31
-1.319043
12
-29.817278
22
161.863800
32
31.959217
13
4.824967
23
166.551025
33
8.319009
0
3DFACE
8
0
70
0
10
-55.375324
20
154.099548
30
-1.319043
11
-45.080486
21
130.502380
31
60.791687
12
-29.817278
22
161.863800
32
31.959217
13
-29.817278
23
161.863800
33
31.959217
0
3DFACE
8
0
70
0
10
-45.080486
20
130.502380
30
60.791687
11
-22.425804
21
138.871094
31
60.532127
12
-29.817278
22
161.863800
32
31.959217
13
-29.817278
23
161.863800
33
31.959217
0
3DFACE
8
0
70
0
10
63.636318
20
123.615570
30
57.360210
11
42.520180
21
159.473236
31
31.008070
12
39.655216
22
136.647369
32
59.296722
13
39.655216
23
136.647369
33
59.296722
0
3DFACE
8
0
70
0
10
67.511238
20
150.484741
30
-3.236143
11
42.520180
21
159.473236
31
31.008070
12
63.636318
22
123.615570
32
57.360210
13
63.636318
23
123.615570
33
57.360210
0
3DFACE
8
0
70
0
10
12.341279
20
126.179016
30
66.966362
11
-22.425804
21
138.871094
31
60.532127
12
-45.080486
22
130.502380
32
60.791687
13
-45.080486
23
130.502380
33
60.791687
0
3DFACE
8
0
70
0
10
3.738883
20
123.128876
30
56.009388
11
-22.425804
21
138.871094
31
60.532127
12
12.341279
22
126.179016
32
66.966362
13
12.341279
23
126.179016
33
66.966362
0
3DFACE
8
0
70
0
10
3.738883
20
123.128876
30
56.009388
11
12.341279
21
126.179016
31
66.966362
12
39.655216
22
136.647369
32
59.296722
13
39.655216
23
136.647369
33
59.296722
0
3DFACE
8
0
70
0
10
12.341279
20
126.179016
30
66.966362
11
63.636318
21
123.615570
31
57.360210
12
39.655216
22
136.647369
32
59.296722
13
39.655216
23
136.647369
33
59.296722
0
3DFACE
8
0
70
0
10
3.738884
20
235.910461
30
-5.742792
11
3.694348
21
291.502228
31
16.200111
12
19.670214
22
295.426331
32
21.346022
13
44.110008
23
242.208405
33
12.722826
0
3DFACE
8
0
70
0
10
44.110008
20
242.208405
30
12.722826
11
19.670214
21
295.426331
31
21.346022
12
30.396318
22
301.260284
32
28.987820
13
63.697929
23
250.177185
33
32.811611
0
3DFACE
8
0
70
0
10
63.697929
20
250.177185
30
32.811611
11
30.396318
21
301.260284
31
28.987820
12
27.952595
22
307.237701
32
36.808887
13
57.427990
23
255.599060
33
55.375454
0
3DFACE
8
0
70
0
10
57.427990
20
255.599060
30
55.375454
11
27.952595
21
307.237701
31
36.808887
12
25.284679
22
314.647736
32
46.504620
13
48.387459
23
264.803253
33
82.086647
0
3DFACE
8
0
70
0
10
3.738884
20
268.643951
30
102.110413
11
23.527143
21
267.628021
31
94.745087
12
13.359529
22
318.252838
32
51.214859
13
3.736062
23
320.358612
33
53.964451
0
3DFACE
8
0
70
0
10
3.738884
20
235.910461
30
-5.742792
11
-36.632240
21
242.208405
31
12.722825
12
-12.270140
22
295.448700
32
21.354467
13
3.694348
23
291.502228
33
16.200111
0
3DFACE
8
0
70
0
10
-36.632240
20
242.208405
30
12.722825
11
-56.220154
21
250.177185
31
32.811611
12
-22.979349
22
301.297607
32
29.001936
13
-12.270140
23
295.448700
33
21.354467
0
3DFACE
8
0
70
0
10
-56.220154
20
250.177185
30
32.811611
11
-49.950214
21
255.599060
31
55.375454
12
-20.518356
22
307.271637
32
36.821705
13
-22.979349
23
301.297607
33
29.001936
0
3DFACE
8
0
70
0
10
-49.950214
20
255.599060
30
55.375454
11
-40.909683
21
264.803253
31
82.086647
12
-17.829023
22
314.677887
32
46.516022
13
-20.518356
23
307.271637
33
36.821705
0
3DFACE
8
0
70
0
10
3.738884
20
268.643951
30
102.110413
11
3.736062
21
320.358612
31
53.964451
12
-5.893474
22
318.266296
32
51.219952
13
-16.049379
23
267.628021
33
94.745087
0
3DFACE
8
0
70
0
10
48.387459
20
264.803253
30
82.086647
11
25.284679
21
314.647736
31
46.504620
12
13.359529
22
318.252838
32
51.214859
13
23.527143
23
267.628021
33
94.745087
0
3DFACE
8
0
70
0
10
-40.909683
20
264.803253
30
82.086647
11
-16.049379
21
267.628021
31
94.745087
12
-5.893474
22
318.266296
32
51.219952
13
-17.829023
23
314.677887
33
46.516022
0
3DFACE
8
0
70
0
10
3.702435
20
340.792175
30
-13.282482
11
17.299620
21
336.904724
31
-22.054108
12
3.689423
22
338.858826
32
-29.255663
13
3.689423
23
338.858826
33
-29.255663
0
3DFACE
8
0
70
0
10
17.302208
20
333.040955
30
-7.634317
11
17.299620
21
336.904724
31
-22.054108
12
3.702435
22
340.792175
32
-13.282482
13
3.702435
23
340.792175
33
-13.282482
0
3DFACE
8
0
70
0
10
3.694601
20
331.131287
30
-0.416025
11
17.302208
21
333.040955
31
-7.634317
12
3.702435
22
340.792175
32
-13.282482
13
3.702435
23
340.792175
33
-13.282482
0
3DFACE
8
0
70
0
10
3.694601
20
331.131287
30
-0.416025
11
3.702435
21
340.792175
31
-13.282482
12
-9.915563
22
333.085388
32
-7.617522
13
-9.915563
23
333.085388
33
-7.617522
0
3DFACE
8
0
70
0
10
-9.915563
20
333.085388
30
-7.617522
11
3.702435
21
340.792175
31
-13.282482
12
-9.918152
22
336.949158
32
-22.037312
13
-9.918152
23
336.949158
33
-22.037312
0
3DFACE
8
0
70
0
10
3.702435
20
340.792175
30
-13.282482
11
3.689423
21
338.858826
31
-29.255663
12
-9.918152
22
336.949158
32
-22.037312
13
-9.918152
23
336.949158
33
-22.037312
0
3DFACE
8
0
70
0
10
17.299620
20
336.904724
30
-22.054108
11
22.910883
21
323.700287
31
-28.794165
12
3.663188
22
326.463806
32
-38.978630
13
3.689423
23
338.858826
33
-29.255663
0
3DFACE
8
0
70
0
10
22.914545
20
318.236053
30
-8.401423
11
22.910883
21
323.700287
31
-28.794165
12
17.299620
22
336.904724
32
-22.054108
13
17.302208
23
333.040955
33
-7.634317
0
3DFACE
8
0
70
0
10
3.670511
20
315.535370
30
1.806764
11
22.914545
21
318.236053
31
-8.401423
12
17.302208
22
333.040955
32
-7.634317
13
3.694601
23
331.131287
33
-0.416025
0
3DFACE
8
0
70
0
10
3.670511
20
315.535370
30
1.806764
11
3.694601
21
331.131287
31
-0.416025
12
-9.915563
22
333.085388
32
-7.617522
13
-15.577188
23
318.298920
33
-8.377671
0
3DFACE
8
0
70
0
10
-15.577188
20
318.298920
30
-8.377671
11
-9.915563
21
333.085388
31
-7.617522
12
-9.918152
22
336.949158
32
-22.037312
13
-15.580850
23
323.763123
33
-28.770412
0
3DFACE
8
0
70
0
10
-9.918152
20
336.949158
30
-22.037312
11
3.689423
21
338.858826
31
-29.255663
12
3.663188
22
326.463806
32
-38.978630
13
-15.580850
23
323.763123
33
-28.770412
0
3DFACE
8
0
70
0
10
17.249292
20
308.913788
30
-29.554255
11
3.639098
21
310.867920
31
-36.755810
12
3.663188
22
326.463806
32
-38.978630
13
22.910883
23
323.700287
33
-28.794165
0
3DFACE
8
0
70
0
10
22.914545
20
318.236053
30
-8.401423
11
17.251883
21
305.050018
31
-15.134465
12
17.249292
22
308.913788
32
-29.554255
13
22.910883
23
323.700287
33
-28.794165
0
3DFACE
8
0
70
0
10
3.670511
20
315.535370
30
1.806764
11
3.644277
21
303.140350
31
-7.916173
12
17.251883
22
305.050018
32
-15.134465
13
22.914545
23
318.236053
33
-8.401423
0
3DFACE
8
0
70
0
10
3.670511
20
315.535370
30
1.806764
11
-15.577188
21
318.298920
31
-8.377671
12
-9.965888
22
305.094452
32
-15.117670
13
3.644277
23
303.140350
33
-7.916173
0
3DFACE
8
0
70
0
10
-15.577188
20
318.298920
30
-8.377671
11
-15.580850
21
323.763123
31
-28.770412
12
-9.968477
22
308.958221
32
-29.537460
13
-9.965888
23
305.094452
33
-15.117670
0
3DFACE
8
0
70
0
10
-9.968477
20
308.958221
30
-29.537460
11
-15.580850
21
323.763123
31
-28.770412
12
3.663188
22
326.463806
32
-38.978630
13
3.639098
23
310.867920
33
-36.755810
0
3DFACE
8
0
70
0
10
3.631256
20
301.207001
30
-23.889297
11
3.639098
21
310.867920
31
-36.755810
12
17.249292
22
308.913788
32
-29.554255
13
17.249292
23
308.913788
33
-29.554255
0
3DFACE
8
0
70
0
10
17.251883
20
305.050018
30
-15.134465
11
3.631256
21
301.207001
31
-23.889297
12
17.249292
22
308.913788
32
-29.554255
13
17.249292
23
308.913788
33
-29.554255
0
3DFACE
8
0
70
0
10
3.644277
20
303.140350
30
-7.916173
11
3.631256
21
301.207001
31
-23.889297
12
17.251883
22
305.050018
32
-15.134465
13
17.251883
23
305.050018
33
-15.134465
0
3DFACE
8
0
70
0
10
3.644277
20
303.140350
30
-7.916173
11
-9.965888
21
305.094452
31
-15.117670
12
3.631256
22
301.207001
32
-23.889297
13
3.631256
23
301.207001
33
-23.889297
0
3DFACE
8
0
70
0
10
-9.965888
20
305.094452
30
-15.117670
11
-9.968477
21
308.958221
31
-29.537460
12
3.631256
22
301.207001
32
-23.889297
13
3.631256
23
301.207001
33
-23.889297
0
3DFACE
8
0
70
0
10
3.631256
20
301.207001
30
-23.889297
11
-9.968477
21
308.958221
31
-29.537460
12
3.639098
22
310.867920
32
-36.755810
13
3.639098
23
310.867920
33
-36.755810
0
3DFACE
8
0
70
0
10
29.832479
20
180.129791
30
98.608398
11
53.049156
21
187.236511
31
77.948036
12
41.329102
22
195.943115
32
101.725830
13
41.329102
23
195.943115
33
101.725830
0
3DFACE
8
0
70
0
10
53.049156
20
187.236511
30
77.948036
11
49.983082
21
196.759888
31
78.504814
12
41.329102
22
195.943115
32
101.725830
13
41.329102
23
195.943115
33
101.725830
0
3DFACE
8
0
70
0
10
15.205344
20
177.509399
30
104.511536
11
29.832479
21
180.129791
31
98.608398
12
26.697340
22
196.096497
32
104.760262
13
26.697340
23
196.096497
33
104.760262
0
3DFACE
8
0
70
0
10
29.832479
20
180.129791
30
98.608398
11
41.329102
21
195.943115
31
101.725830
12
26.697340
22
196.096497
32
104.760262
13
26.697340
23
196.096497
33
104.760262
0
3DFACE
8
0
70
0
10
41.329102
20
195.943115
30
101.725830
11
49.983082
21
196.759888
31
78.504814
12
31.371452
22
209.298401
32
98.549278
13
31.371452
23
209.298401
33
98.549278
0
3DFACE
8
0
70
0
10
49.983082
20
196.759888
30
78.504814
11
47.541306
21
209.859009
31
78.655991
12
31.371452
22
209.298401
32
98.549278
13
31.371452
23
209.298401
33
98.549278
0
3DFACE
8
0
70
0
10
26.697340
20
196.096497
30
104.760262
11
31.371452
21
209.298401
31
98.549278
12
18.539562
22
208.017517
32
104.835991
13
18.539562
23
208.017517
33
104.835991
0
3DFACE
8
0
70
0
10
41.329102
20
195.943115
30
101.725830
11
31.371452
21
209.298401
31
98.549278
12
26.697340
22
196.096497
32
104.760262
13
26.697340
23
196.096497
33
104.760262
0
3DFACE
8
0
70
0
10
31.371452
20
209.298401
30
98.549278
11
47.541306
21
209.859009
31
78.655991
12
36.301716
22
225.057556
32
94.877663
13
36.301716
23
225.057556
33
94.877663
0
3DFACE
8
0
70
0
10
47.541306
20
209.859009
30
78.655991
11
49.514057
21
220.184937
31
78.357887
12
36.301716
22
225.057556
32
94.877663
13
36.301716
23
225.057556
33
94.877663
0
3DFACE
8
0
70
0
10
-45.571381
20
187.236511
30
77.948036
11
-33.851330
21
195.943115
31
101.725830
12
-42.505306
22
196.759888
32
78.504814
13
-42.505306
23
196.759888
33
78.504814
0
3DFACE
8
0
70
0
10
-22.354712
20
180.129791
30
98.608398
11
-33.851330
21
195.943115
31
101.725830
12
-45.571381
22
187.236511
32
77.948036
13
-45.571381
23
187.236511
33
77.948036
0
3DFACE
8
0
70
0
10
-22.354712
20
180.129791
30
98.608398
11
-19.219572
21
196.096497
31
104.760262
12
-33.851330
22
195.943115
32
101.725830
13
-33.851330
23
195.943115
33
101.725830
0
3DFACE
8
0
70
0
10
-7.727577
20
177.509399
30
104.511536
11
-19.219572
21
196.096497
31
104.760262
12
-22.354712
22
180.129791
32
98.608398
13
-22.354712
23
180.129791
33
98.608398
0
3DFACE
8
0
70
0
10
-42.505306
20
196.759888
30
78.504814
11
-23.021646
21
209.298401
31
98.549278
12
-40.063538
22
209.859009
32
78.655991
13
-40.063538
23
209.859009
33
78.655991
0
3DFACE
8
0
70
0
10
-33.851330
20
195.943115
30
101.725830
11
-23.021646
21
209.298401
31
98.549278
12
-42.505306
22
196.759888
32
78.504814
13
-42.505306
23
196.759888
33
78.504814
0
3DFACE
8
0
70
0
10
-19.219572
20
196.096497
30
104.760262
11
-11.061796
21
208.017517
31
104.835991
12
-23.021646
22
209.298401
32
98.549278
13
-23.021646
23
209.298401
33
98.549278
0
3DFACE
8
0
70
0
10
-33.851330
20
195.943115
30
101.725830
11
-19.219572
21
196.096497
31
104.760262
12
-23.021646
22
209.298401
32
98.549278
13
-23.021646
23
209.298401
33
98.549278
0
3DFACE
8
0
70
0
10
-40.063538
20
209.859009
30
78.655991
11
-27.951914
21
225.057556
31
94.877663
12
-42.036293
22
220.184937
32
78.357887
13
-42.036293
23
220.184937
33
78.357887
0
3DFACE
8
0
70
0
10
-23.021646
20
209.298401
30
98.549278
11
-27.951914
21
225.057556
31
94.877663
12
-40.063538
22
209.859009
32
78.655991
13
-40.063538
23
209.859009
33
78.655991
0
3DFACE
8
0
70
0
10
38.803017
20
-72.801430
30
41.291569
11
32.876354
21
-52.317696
31
25.548382
12
22.013998
22
-59.910057
32
0.212625
13
22.013998
23
-59.910057
33
0.212625
0
3DFACE
8
0
70
0
10
38.803017
20
-72.801430
30
41.291569
11
22.013998
21
-59.910057
31
0.212625
12
28.113352
22
-77.684929
32
18.015785
13
28.113352
23
-77.684929
33
18.015785
0
3DFACE
8
0
70
0
10
38.803017
20
-72.801430
30
41.291569
11
73.440315
21
-52.896637
31
11.270553
12
32.876354
22
-52.317696
32
25.548382
13
32.876354
23
-52.317696
33
25.548382
0
3DFACE
8
0
70
0
10
38.803017
20
-72.801430
30
41.291569
11
73.504997
21
-73.231293
31
28.483103
12
73.440315
22
-52.896637
32
11.270553
13
73.440315
23
-52.896637
33
11.270553
0
3DFACE
8
0
70
0
10
73.504997
20
-73.231293
30
28.483103
11
82.008583
21
-57.027412
31
-6.832181
12
73.440315
22
-52.896637
32
11.270553
13
73.440315
23
-52.896637
33
11.270553
0
3DFACE
8
0
70
0
10
73.504997
20
-73.231293
30
28.483103
11
80.698784
21
-75.888321
31
11.891840
12
82.008583
22
-57.027412
32
-6.832181
13
82.008583
23
-57.027412
33
-6.832181
0
3DFACE
8
0
70
0
10
33.010460
20
-82.230629
30
-8.131971
11
22.013998
21
-59.910057
31
0.212625
12
26.694607
22
-67.060318
32
-28.095114
13
26.694607
23
-67.060318
33
-28.095114
0
3DFACE
8
0
70
0
10
28.113352
20
-77.684929
30
18.015785
11
22.013998
21
-59.910057
31
0.212625
12
33.010460
22
-82.230629
32
-8.131971
13
33.010460
23
-82.230629
33
-8.131971
0
3DFACE
8
0
70
0
10
69.739838
20
-79.360275
30
-3.642199
11
69.422180
21
-62.479347
31
-23.597723
12
82.008583
22
-57.027412
32
-6.832181
13
82.008583
23
-57.027412
33
-6.832181
0
3DFACE
8
0
70
0
10
80.698784
20
-75.888321
30
11.891840
11
69.739838
21
-79.360275
31
-3.642199
12
82.008583
22
-57.027412
32
-6.832181
13
82.008583
23
-57.027412
33
-6.832181
0
3DFACE
8
0
70
0
10
33.010460
20
-82.230629
30
-8.131971
11
26.694607
21
-67.060318
31
-28.095114
12
69.422180
22
-62.479347
32
-23.597723
13
69.422180
23
-62.479347
33
-23.597723
0
3DFACE
8
0
70
0
10
69.739838
20
-79.360275
30
-3.642199
11
33.010460
21
-82.230629
31
-8.131971
12
69.422180
22
-62.479347
32
-23.597723
13
69.422180
23
-62.479347
33
-23.597723
0
3DFACE
8
0
70
0
10
-31.870989
20
-72.638847
30
36.054543
11
-26.034805
21
-76.124466
31
11.049443
12
-23.741766
22
-54.960327
32
-4.695231
13
-23.741766
23
-54.960327
33
-4.695231
0
3DFACE
8
0
70
0
10
-31.870989
20
-72.638847
30
36.054543
11
-23.741766
21
-54.960327
31
-4.695231
12
-29.385015
22
-51.691238
32
22.549852
13
-29.385015
23
-51.691238
33
22.549852
0
3DFACE
8
0
70
0
10
-31.870989
20
-72.638847
30
36.054543
11
-29.385015
21
-51.691238
31
22.549852
12
-72.019638
22
-52.468369
32
16.275961
13
-72.019638
23
-52.468369
33
16.275961
0
3DFACE
8
0
70
0
10
-31.870989
20
-72.638847
30
36.054543
11
-72.019638
21
-52.468369
31
16.275961
12
-68.466728
22
-73.422951
32
30.115051
13
-68.466728
23
-73.422951
33
30.115051
0
3DFACE
8
0
70
0
10
-68.466728
20
-73.422951
30
30.115051
11
-72.019638
21
-52.468369
31
16.275961
12
-84.012535
22
-54.431618
32
-0.015043
13
-84.012535
23
-54.431618
33
-0.015043
0
3DFACE
8
0
70
0
10
-68.466728
20
-73.422951
30
30.115051
11
-84.012535
21
-54.431618
31
-0.015043
12
-78.836494
22
-75.493622
32
15.145670
13
-78.836494
23
-75.493622
33
15.145670
0
3DFACE
8
0
70
0
10
-36.060562
20
-79.567787
30
-13.783272
11
-33.940121
21
-58.229218
31
-31.865465
12
-23.741766
22
-54.960327
32
-4.695231
13
-23.741766
23
-54.960327
33
-4.695231
0
3DFACE
8
0
70
0
10
-26.034805
20
-76.124466
30
11.049443
11
-36.060562
21
-79.567787
31
-13.783272
12
-23.741766
22
-54.960327
32
-4.695231
13
-23.741766
23
-54.960327
33
-4.695231
0
3DFACE
8
0
70
0
10
-78.836494
20
-75.493622
30
15.145670
11
-84.012535
21
-54.431618
31
-0.015043
12
-71.189949
22
-77.926758
32
-2.279529
13
-71.189949
23
-77.926758
33
-2.279529
0
3DFACE
8
0
70
0
10
-71.189949
20
-77.926758
30
-2.279529
11
-84.012535
21
-54.431618
31
-0.015043
12
-74.980453
22
-56.718056
32
-19.093996
13
-74.980453
23
-56.718056
33
-19.093996
0
3DFACE
8
0
70
0
10
-71.189949
20
-77.926758
30
-2.279529
11
-74.980453
21
-56.718056
31
-19.093996
12
-36.060562
22
-79.567787
32
-13.783272
13
-36.060562
23
-79.567787
33
-13.783272
0
3DFACE
8
0
70
0
10
-36.060562
20
-79.567787
30
-13.783272
11
-74.980453
21
-56.718056
31
-19.093996
12
-33.940121
22
-58.229218
32
-31.865465
13
-33.940121
23
-58.229218
33
-31.865465
0
3DFACE
8
0
70
0
10
36.676716
20
-97.271004
30
23.669203
11
38.803017
21
-72.801430
31
41.291569
12
28.113352
22
-77.684929
32
18.015785
13
28.113352
23
-77.684929
33
18.015785
0
3DFACE
8
0
70
0
10
27.290184
20
-125.251320
30
-3.324379
11
36.676716
21
-97.271004
31
23.669203
12
28.113352
22
-77.684929
32
18.015785
13
28.113352
23
-77.684929
33
18.015785
0
3DFACE
8
0
70
0
10
69.978607
20
-102.846230
30
10.662683
11
73.504997
21
-73.231293
31
28.483103
12
36.676716
22
-97.271004
32
23.669203
13
36.676716
23
-97.271004
33
23.669203
0
3DFACE
8
0
70
0
10
36.676716
20
-97.271004
30
23.669203
11
73.504997
21
-73.231293
31
28.483103
12
38.803017
22
-72.801430
32
41.291569
13
38.803017
23
-72.801430
33
41.291569
0
3DFACE
8
0
70
0
10
76.919441
20
-124.453369
30
-7.865244
11
80.698784
21
-75.888321
31
11.891840
12
69.978607
22
-102.846230
32
10.662683
13
69.978607
23
-102.846230
33
10.662683
0
3DFACE
8
0
70
0
10
69.978607
20
-102.846230
30
10.662683
11
80.698784
21
-75.888321
31
11.891840
12
73.504997
22
-73.231293
32
28.483103
13
73.504997
23
-73.231293
33
28.483103
0
3DFACE
8
0
70
0
10
27.290184
20
-125.251320
30
-3.324379
11
28.113352
21
-77.684929
31
18.015785
12
33.010460
22
-82.230629
32
-8.131971
13
33.010460
23
-82.230629
33
-8.131971
0
3DFACE
8
0
70
0
10
8.245040
20
-155.089020
30
-31.195621
11
27.290184
21
-125.251320
31
-3.324379
12
33.010460
22
-82.230629
32
-8.131971
13
33.010460
23
-82.230629
33
-8.131971
0
3DFACE
8
0
70
0
10
81.598457
20
-152.701889
30
-36.004044
11
69.739838
21
-79.360275
31
-3.642199
12
76.919441
22
-124.453369
32
-7.865244
13
76.919441
23
-124.453369
33
-7.865244
0
3DFACE
8
0
70
0
10
76.919441
20
-124.453369
30
-7.865244
11
69.739838
21
-79.360275
31
-3.642199
12
80.698784
22
-75.888321
32
11.891840
13
80.698784
23
-75.888321
33
11.891840
0
3DFACE
8
0
70
0
10
8.245040
20
-155.089020
30
-31.195621
11
33.010460
21
-82.230629
31
-8.131971
12
81.598457
22
-152.701889
32
-36.004044
13
81.598457
23
-152.701889
33
-36.004044
0
3DFACE
8
0
70
0
10
81.598457
20
-152.701889
30
-36.004044
11
33.010460
21
-82.230629
31
-8.131971
12
69.739838
22
-79.360275
32
-3.642199
13
69.739838
23
-79.360275
33
-3.642199
0
3DFACE
8
0
70
0
10
-29.967794
20
-124.879135
30
-6.914900
11
-26.034805
21
-76.124466
31
11.049443
12
-34.760250
22
-95.936409
32
20.216686
13
-34.760250
23
-95.936409
33
20.216686
0
3DFACE
8
0
70
0
10
-34.760250
20
-95.936409
30
20.216686
11
-26.034805
21
-76.124466
31
11.049443
12
-31.870989
22
-72.638847
32
36.054543
13
-31.870989
23
-72.638847
33
36.054543
0
3DFACE
8
0
70
0
10
-34.760250
20
-95.936409
30
20.216686
11
-31.870989
21
-72.638847
31
36.054543
12
-68.466728
22
-73.422951
32
30.115051
13
-68.466728
23
-73.422951
33
30.115051
0
3DFACE
8
0
70
0
10
-69.791069
20
-102.023331
30
12.630606
11
-34.760250
21
-95.936409
31
20.216686
12
-68.466728
22
-73.422951
32
30.115051
13
-68.466728
23
-73.422951
33
30.115051
0
3DFACE
8
0
70
0
10
-69.791069
20
-102.023331
30
12.630606
11
-68.466728
21
-73.422951
31
30.115051
12
-78.836494
22
-75.493622
32
15.145670
13
-78.836494
23
-75.493622
33
15.145670
0
3DFACE
8
0
70
0
10
-79.739471
20
-124.282387
30
-3.856627
11
-69.791069
21
-102.023331
31
12.630606
12
-78.836494
22
-75.493622
32
15.145670
13
-78.836494
23
-75.493622
33
15.145670
0
3DFACE
8
0
70
0
10
-15.780953
20
-155.703659
30
-36.323048
11
-36.060562
21
-79.567787
31
-13.783272
12
-29.967794
22
-124.879135
32
-6.914900
13
-29.967794
23
-124.879135
33
-6.914900
0
3DFACE
8
0
70
0
10
-29.967794
20
-124.879135
30
-6.914900
11
-36.060562
21
-79.567787
31
-13.783272
12
-26.034805
22
-76.124466
32
11.049443
13
-26.034805
23
-76.124466
33
11.049443
0
3DFACE
8
0
70
0
10
-79.739471
20
-124.282387
30
-3.856627
11
-78.836494
21
-75.493622
31
15.145670
12
-71.189949
22
-77.926758
32
-2.279529
13
-71.189949
23
-77.926758
33
-2.279529
0
3DFACE
8
0
70
0
10
-89.032562
20
-153.542114
30
-29.962627
11
-79.739471
21
-124.282387
31
-3.856627
12
-71.189949
22
-77.926758
32
-2.279529
13
-71.189949
23
-77.926758
33
-2.279529
0
3DFACE
8
0
70
0
10
-89.032562
20
-153.542114
30
-29.962627
11
-71.189949
21
-77.926758
31
-2.279529
12
-36.060562
22
-79.567787
32
-13.783272
13
-36.060562
23
-79.567787
33
-13.783272
0
3DFACE
8
0
70
0
10
-15.780953
20
-155.703659
30
-36.323048
11
-89.032562
21
-153.542114
31
-29.962627
12
-36.060562
22
-79.567787
32
-13.783272
13
-36.060562
23
-79.567787
33
-13.783272
0
3DFACE
8
0
70
0
10
105.770370
20
20.139282
30
71.464661
11
8.398127
21
45.898560
31
116.752563
12
6.171252
22
28.500351
32
105.336212
13
6.171252
23
28.500351
33
105.336212
0
3DFACE
8
0
70
0
10
105.770370
20
20.139282
30
71.464661
11
109.891167
21
52.183350
31
82.741829
12
8.398127
22
45.898560
32
116.752563
13
8.398127
23
45.898560
33
116.752563
0
3DFACE
8
0
70
0
10
99.346603
20
11.974884
30
-82.987152
11
-2.597859
21
17.338196
31
-109.387856
12
-0.120525
22
49.961700
32
-101.565857
13
-0.120525
23
49.961700
33
-101.565857
0
3DFACE
8
0
70
0
10
99.346603
20
11.974884
30
-82.987152
11
-0.120525
21
49.961700
31
-101.565857
12
103.080887
22
44.065338
32
-71.347221
13
103.080887
23
44.065338
33
-71.347221
0
3DFACE
8
0
70
0
10
105.770370
20
20.139282
30
71.464661
11
130.623520
21
45.894897
31
-3.894953
12
109.891167
22
52.183350
32
82.741829
13
109.891167
23
52.183350
33
82.741829
0
3DFACE
8
0
70
0
10
105.770370
20
20.139282
30
71.464661
11
126.964676
21
14.548203
31
-4.578477
12
130.623520
22
45.894897
32
-3.894953
13
130.623520
23
45.894897
33
-3.894953
0
3DFACE
8
0
70
0
10
126.964676
20
14.548203
30
-4.578477
11
99.346603
21
11.974884
31
-82.987152
12
103.080887
22
44.065338
32
-71.347221
13
103.080887
23
44.065338
33
-71.347221
0
3DFACE
8
0
70
0
10
126.964676
20
14.548203
30
-4.578477
11
103.080887
21
44.065338
31
-71.347221
12
130.623520
22
45.894897
32
-3.894953
13
130.623520
23
45.894897
33
-3.894953
0
3DFACE
8
0
70
0
10
-95.940674
20
33.569534
30
78.966202
11
6.171252
21
28.500351
31
105.336212
12
8.398127
22
45.898560
32
116.752563
13
8.398127
23
45.898560
33
116.752563
0
3DFACE
8
0
70
0
10
-95.940674
20
33.569534
30
78.966202
11
8.398127
21
45.898560
31
116.752563
12
-93.527290
22
66.919281
32
90.933540
13
-93.527290
23
66.919281
33
90.933540
0
3DFACE
8
0
70
0
10
-102.364441
20
25.405121
30
-75.485611
11
-0.120525
21
49.961700
31
-101.565857
12
-2.597859
22
17.338196
32
-109.387856
13
-2.597859
23
17.338196
33
-109.387856
0
3DFACE
8
0
70
0
10
-102.364441
20
25.405121
30
-75.485611
11
-100.337570
21
58.801270
31
-63.155510
12
-0.120525
22
49.961700
32
-101.565857
13
-0.120525
23
49.961700
33
-101.565857
0
3DFACE
8
0
70
0
10
-95.940674
20
33.569534
30
78.966202
11
-121.830551
21
64.183044
31
6.271434
12
-123.385117
22
31.216888
32
4.731915
13
-123.385117
23
31.216888
33
4.731915
0
3DFACE
8
0
70
0
10
-95.940674
20
33.569534
30
78.966202
11
-93.527290
21
66.919281
31
90.933540
12
-121.830551
22
64.183044
32
6.271434
13
-121.830551
23
64.183044
33
6.271434
0
3DFACE
8
0
70
0
10
-123.385117
20
31.216888
30
4.731915
11
-121.830551
21
64.183044
31
6.271434
12
-100.337570
22
58.801270
32
-63.155510
13
-100.337570
23
58.801270
33
-63.155510
0
3DFACE
8
0
70
0
10
-123.385117
20
31.216888
30
4.731915
11
-100.337570
21
58.801270
31
-63.155510
12
-102.364441
22
25.405121
32
-75.485611
13
-102.364441
23
25.405121
33
-75.485611
0
3DFACE
8
0
70
0
10
8.398127
20
45.898560
30
116.752563
11
63.636318
21
123.615570
31
57.360210
12
12.341279
22
126.179016
32
66.966362
13
12.341279
23
126.179016
33
66.966362
0
3DFACE
8
0
70
0
10
8.398127
20
45.898560
30
116.752563
11
109.891167
21
52.183350
31
82.741829
12
63.636318
22
123.615570
32
57.360210
13
63.636318
23
123.615570
33
57.360210
0
3DFACE
8
0
70
0
10
103.080887
20
44.065338
30
-71.347221
11
-0.120525
21
49.961700
31
-101.565857
12
60.481342
22
139.994263
32
-38.338936
13
60.481342
23
139.994263
33
-38.338936
0
3DFACE
8
0
70
0
10
-0.120525
20
49.961700
30
-101.565857
11
4.799274
21
143.980835
31
-46.474293
12
60.481342
22
139.994263
32
-38.338936
13
60.481342
23
139.994263
33
-38.338936
0
3DFACE
8
0
70
0
10
109.891167
20
52.183350
30
82.741829
11
98.487732
21
97.041351
31
6.860125
12
72.741470
22
126.715729
32
39.202114
13
72.741470
23
126.715729
33
39.202114
0
3DFACE
8
0
70
0
10
109.891167
20
52.183350
30
82.741829
11
130.623520
21
45.894897
31
-3.894953
12
98.487732
22
97.041351
32
6.860125
13
98.487732
23
97.041351
33
6.860125
0
3DFACE
8
0
70
0
10
103.080887
20
44.065338
30
-71.347221
11
88.854271
21
121.507263
31
-30.176376
12
98.487732
22
97.041351
32
6.860125
13
98.487732
23
97.041351
33
6.860125
0
3DFACE
8
0
70
0
10
130.623520
20
45.894897
30
-3.894953
11
103.080887
21
44.065338
31
-71.347221
12
98.487732
22
97.041351
32
6.860125
13
98.487732
23
97.041351
33
6.860125
0
3DFACE
8
0
70
0
10
109.891167
20
52.183350
30
82.741829
11
72.741470
21
126.715729
31
39.202114
12
63.636318
22
123.615570
32
57.360210
13
63.636318
23
123.615570
33
57.360210
0
3DFACE
8
0
70
0
10
103.080887
20
44.065338
30
-71.347221
11
60.481342
21
139.994263
31
-38.338936
12
88.854271
22
121.507263
32
-30.176376
13
88.854271
23
121.507263
33
-30.176376
0
3DFACE
8
0
70
0
10
8.398127
20
45.898560
30
116.752563
11
-45.080486
21
130.502380
31
60.791687
12
-93.527290
22
66.919281
32
90.933540
13
-93.527290
23
66.919281
33
90.933540
0
3DFACE
8
0
70
0
10
8.398127
20
45.898560
30
116.752563
11
12.341279
21
126.179016
31
66.966362
12
-45.080486
22
130.502380
32
60.791687
13
-45.080486
23
130.502380
33
60.791687
0
3DFACE
8
0
70
0
10
-100.337570
20
58.801270
30
-63.155510
11
-47.192928
21
146.307434
31
-35.219997
12
-0.120525
22
49.961700
32
-101.565857
13
-0.120525
23
49.961700
33
-101.565857
0
3DFACE
8
0
70
0
10
-0.120525
20
49.961700
30
-101.565857
11
-47.192928
21
146.307434
31
-35.219997
12
4.799274
22
143.980835
32
-46.474293
13
4.799274
23
143.980835
33
-46.474293
0
3DFACE
8
0
70
0
10
-93.527290
20
66.919281
30
90.933540
11
-55.533230
21
137.250427
31
42.291260
12
-88.484245
22
112.525482
32
20.066135
13
-88.484245
23
112.525482
33
20.066135
0
3DFACE
8
0
70
0
10
-93.527290
20
66.919281
30
90.933540
11
-88.484245
21
112.525482
31
20.066135
12
-121.830551
22
64.183044
32
6.271434
13
-121.830551
23
64.183044
33
6.271434
0
3DFACE
8
0
70
0
10
-121.830551
20
64.183044
30
6.271434
11
-88.484245
21
112.525482
31
20.066135
12
-100.337570
22
58.801270
32
-63.155510
13
-100.337570
23
58.801270
33
-63.155510
0
3DFACE
8
0
70
0
10
-100.337570
20
58.801270
30
-63.155510
11
-88.484245
21
112.525482
31
20.066135
12
-83.329132
22
128.900238
32
-21.521557
13
-83.329132
23
128.900238
33
-21.521557
0
3DFACE
8
0
70
0
10
-93.527290
20
66.919281
30
90.933540
11
-45.080486
21
130.502380
31
60.791687
12
-55.533230
22
137.250427
32
42.291260
13
-55.533230
23
137.250427
33
42.291260
0
3DFACE
8
0
70
0
10
-100.337570
20
58.801270
30
-63.155510
11
-83.329132
21
128.900238
31
-21.521557
12
-47.192928
22
146.307434
32
-35.219997
13
-47.192928
23
146.307434
33
-35.219997
0
3DFACE
8
0
70
0
10
98.487732
20
97.041351
30
6.860125
11
84.815735
21
119.917053
31
77.955132
12
72.741470
22
126.715729
32
39.202114
13
72.741470
23
126.715729
33
39.202114
0
3DFACE
8
0
70
0
10
117.849129
20
85.415253
30
73.533974
11
84.815735
21
119.917053
31
77.955132
12
98.487732
22
97.041351
32
6.860125
13
98.487732
23
97.041351
33
6.860125
0
3DFACE
8
0
70
0
10
72.741470
20
126.715729
30
39.202114
11
133.427673
21
140.172729
31
76.533195
12
67.511238
22
150.484741
32
-3.236143
13
67.511238
23
150.484741
33
-3.236143
0
3DFACE
8
0
70
0
10
72.741470
20
126.715729
30
39.202114
11
84.815735
21
119.917053
31
77.955132
12
133.427673
22
140.172729
32
76.533195
13
133.427673
23
140.172729
33
76.533195
0
3DFACE
8
0
70
0
10
88.854271
20
121.507263
30
-30.176376
11
67.511238
21
150.484741
31
-3.236143
12
133.427673
22
140.172729
32
76.533195
13
133.427673
23
140.172729
33
76.533195
0
3DFACE
8
0
70
0
10
88.854271
20
121.507263
30
-30.176376
11
133.427673
21
140.172729
31
76.533195
12
158.239304
22
104.793091
32
72.534912
13
158.239304
23
104.793091
33
72.534912
0
3DFACE
8
0
70
0
10
98.487732
20
97.041351
30
6.860125
11
88.854271
21
121.507263
31
-30.176376
12
158.239304
22
104.793091
32
72.534912
13
158.239304
23
104.793091
33
72.534912
0
3DFACE
8
0
70
0
10
117.849129
20
85.415253
30
73.533974
11
98.487732
21
97.041351
31
6.860125
12
158.239304
22
104.793091
32
72.534912
13
158.239304
23
104.793091
33
72.534912
0
3DFACE
8
0
70
0
10
-88.484245
20
112.525482
30
20.066135
11
-55.533230
21
137.250427
31
42.291260
12
-69.077339
22
166.184662
32
89.598122
13
-69.077339
23
166.184662
33
89.598122
0
3DFACE
8
0
70
0
10
-104.419289
20
139.982330
30
99.502686
11
-88.484245
21
112.525482
31
20.066135
12
-69.077339
22
166.184662
32
89.598122
13
-69.077339
23
166.184662
33
89.598122
0
3DFACE
8
0
70
0
10
-55.533230
20
137.250427
30
42.291260
11
-55.375324
21
154.099548
31
-1.319043
12
-109.601898
22
192.601807
32
78.229439
13
-109.601898
23
192.601807
33
78.229439
0
3DFACE
8
0
70
0
10
-55.533230
20
137.250427
30
42.291260
11
-109.601898
21
192.601807
31
78.229439
12
-69.077339
22
166.184662
32
89.598122
13
-69.077339
23
166.184662
33
89.598122
0
3DFACE
8
0
70
0
10
-83.329132
20
128.900238
30
-21.521557
11
-109.601898
21
192.601807
31
78.229439
12
-55.375324
22
154.099548
32
-1.319043
13
-55.375324
23
154.099548
33
-1.319043
0
3DFACE
8
0
70
0
10
-83.329132
20
128.900238
30
-21.521557
11
-137.677917
21
164.262421
31
89.126091
12
-109.601898
22
192.601807
32
78.229439
13
-109.601898
23
192.601807
33
78.229439
0
3DFACE
8
0
70
0
10
-88.484245
20
112.525482
30
20.066135
11
-137.677917
21
164.262421
31
89.126091
12
-83.329132
22
128.900238
32
-21.521557
13
-83.329132
23
128.900238
33
-21.521557
0
3DFACE
8
0
70
0
10
-104.419289
20
139.982330
30
99.502686
11
-137.677917
21
164.262421
31
89.126091
12
-88.484245
22
112.525482
32
20.066135
13
-88.484245
23
112.525482
33
20.066135
0
3DFACE
8
0
70
0
10
-115.161644
20
154.682343
30
144.141953
11
-104.419289
21
139.982330
31
99.502686
12
-69.077339
22
166.184662
32
89.598122
13
-69.077339
23
166.184662
33
89.598122
0
3DFACE
8
0
70
0
10
-115.161644
20
154.682343
30
144.141953
11
-69.077339
21
166.184662
31
89.598122
12
-77.141724
22
180.873718
32
128.946075
13
-77.141724
23
180.873718
33
128.946075
0
3DFACE
8
0
70
0
10
-77.141724
20
180.873718
30
128.946075
11
-69.077339
21
166.184662
31
89.598122
12
-109.601898
22
192.601807
32
78.229439
13
-109.601898
23
192.601807
33
78.229439
0
3DFACE
8
0
70
0
10
-77.141724
20
180.873718
30
128.946075
11
-109.601898
21
192.601807
31
78.229439
12
-121.262016
22
210.434387
32
127.251823
13
-121.262016
23
210.434387
33
127.251823
0
3DFACE
8
0
70
0
10
-151.400574
20
181.998413
30
141.771622
11
-121.262016
21
210.434387
31
127.251823
12
-109.601898
22
192.601807
32
78.229439
13
-109.601898
23
192.601807
33
78.229439
0
3DFACE
8
0
70
0
10
-151.400574
20
181.998413
30
141.771622
11
-109.601898
21
192.601807
31
78.229439
12
-137.677917
22
164.262421
32
89.126091
13
-137.677917
23
164.262421
33
89.126091
0
3DFACE
8
0
70
0
10
-115.161644
20
154.682343
30
144.141953
11
-151.400574
21
181.998413
31
141.771622
12
-137.677917
22
164.262421
32
89.126091
13
-137.677917
23
164.262421
33
89.126091
0
3DFACE
8
0
70
0
10
-115.161644
20
154.682343
30
144.141953
11
-137.677917
21
164.262421
31
89.126091
12
-104.419289
22
139.982330
32
99.502686
13
-104.419289
23
139.982330
33
99.502686
0
3DFACE
8
0
70
0
10
111.052834
20
81.797394
30
119.528389
11
84.815735
21
119.917053
31
77.955132
12
117.849129
22
85.415253
32
73.533974
13
117.849129
23
85.415253
33
73.533974
0
3DFACE
8
0
70
0
10
111.052834
20
81.797394
30
119.528389
11
83.131615
21
117.706787
31
102.401268
12
84.815735
22
119.917053
32
77.955132
13
84.815735
23
119.917053
33
77.955132
0
3DFACE
8
0
70
0
10
83.131615
20
117.706787
30
102.401268
11
133.427673
21
140.172729
31
76.533195
12
84.815735
22
119.917053
32
77.955132
13
84.815735
23
119.917053
33
77.955132
0
3DFACE
8
0
70
0
10
83.131615
20
117.706787
30
102.401268
11
124.630753
21
138.044495
31
128.621521
12
133.427673
22
140.172729
32
76.533195
13
133.427673
23
140.172729
33
76.533195
0
3DFACE
8
0
70
0
10
145.599518
20
101.642075
30
141.386139
11
158.239304
21
104.793091
31
72.534912
12
133.427673
22
140.172729
32
76.533195
13
133.427673
23
140.172729
33
76.533195
0
3DFACE
8
0
70
0
10
145.599518
20
101.642075
30
141.386139
11
133.427673
21
140.172729
31
76.533195
12
124.630753
22
138.044495
32
128.621521
13
124.630753
23
138.044495
33
128.621521
0
3DFACE
8
0
70
0
10
111.052834
20
81.797394
30
119.528389
11
117.849129
21
85.415253
31
73.533974
12
158.239304
22
104.793091
32
72.534912
13
158.239304
23
104.793091
33
72.534912
0
3DFACE
8
0
70
0
10
111.052834
20
81.797394
30
119.528389
11
158.239304
21
104.793091
31
72.534912
12
145.599518
22
101.642075
32
141.386139
13
145.599518
23
101.642075
33
141.386139
0
3DFACE
8
0
70
0
10
-0.821960
20
313.777924
30
-11.084126
11
3.645569
21
311.485901
31
-11.712281
12
3.694348
22
291.502228
32
16.200111
13
-12.270140
23
295.448700
33
21.354467
0
3DFACE
8
0
70
0
10
8.121330
20
313.763336
30
-11.089643
11
19.670214
21
295.426331
31
21.346022
12
3.694348
22
291.502228
32
16.200111
13
3.645569
23
311.485901
33
-11.712281
0
3DFACE
8
0
70
0
10
11.128384
20
317.149780
30
-10.163225
11
30.396318
21
301.260284
31
28.987820
12
19.670214
22
295.426331
32
21.346022
13
8.121330
23
313.763336
33
-11.089643
0
3DFACE
8
0
70
0
10
10.447973
20
320.620239
30
-9.213164
11
27.952595
21
307.237701
31
36.808887
12
30.396318
22
301.260284
32
28.987820
13
11.128384
23
317.149780
33
-10.163225
0
3DFACE
8
0
70
0
10
9.705709
20
324.922424
30
-8.035430
11
25.284679
21
314.647736
31
46.504620
12
27.952595
22
307.237701
32
36.808887
13
10.447973
23
320.620239
33
-9.213164
0
3DFACE
8
0
70
0
10
6.368975
20
327.016052
30
-7.461774
11
13.359529
21
318.252838
31
51.214859
12
25.284679
22
314.647736
32
46.504620
13
9.705709
23
324.922424
33
-8.035430
0
3DFACE
8
0
70
0
10
3.675752
20
328.239136
30
-7.126527
11
3.736062
21
320.358612
31
53.964451
12
13.359529
22
318.252838
32
51.214859
13
6.368975
23
327.016052
33
-7.461774
0
3DFACE
8
0
70
0
10
3.675752
20
328.239136
30
-7.126527
11
0.978139
21
327.024872
31
-7.458448
12
-5.893474
22
318.266296
32
51.219952
13
3.736062
23
320.358612
33
53.964451
0
3DFACE
8
0
70
0
10
0.978139
20
327.024872
30
-7.458448
11
-2.366118
21
324.942139
31
-8.027981
12
-17.829023
22
314.677887
32
46.516022
13
-5.893474
23
318.266296
33
51.219952
0
3DFACE
8
0
70
0
10
-2.366118
20
324.942139
30
-8.027981
11
-3.123881
21
320.642426
31
-9.204790
12
-20.518356
22
307.271637
32
36.821705
13
-17.829023
23
314.677887
33
46.516022
0
3DFACE
8
0
70
0
10
-3.123881
20
320.642426
30
-9.204790
11
-3.816791
21
317.174194
31
-10.154003
12
-22.979349
22
301.297607
32
29.001936
13
-20.518356
23
307.271637
33
36.821705
0
3DFACE
8
0
70
0
10
-3.816791
20
317.174194
30
-10.154003
11
-0.821960
21
313.777924
31
-11.084126
12
-12.270140
22
295.448700
32
21.354467
13
-22.979349
23
301.297607
33
29.001936
0
ENDSEC
0
EOF
