0
SECTION
2
HEADER
999
DXF File Generated by LightWave 3D(TM)
0
ENDSEC
0
SECTION
2
TABLES
0
ENDSEC
0
SECTION
2
BLOCKS
0
ENDSEC
0
SECTION
2
ENTITIES
0
3DFACE
8
0
70
0
10
-6.579701
20
-24.672424
30
80.827660
11
19.624512
21
-36.291595
31
57.394955
12
64.015839
22
-34.941597
32
41.437241
13
60.374233
23
-15.737991
33
61.345249
0
3DFACE
8
0
70
0
10
68.037292
20
-21.823502
30
-60.512642
11
74.842941
21
-36.421783
31
-39.932880
12
36.281593
22
-38.568810
32
-67.789848
13
4.243642
23
-33.267647
33
-91.285103
0
3DFACE
8
0
70
0
10
-7.128870
20
-30.469948
30
101.609566
11
-6.579701
21
-24.672424
31
80.827660
12
60.374233
22
-15.737991
32
61.345249
13
81.286354
23
-18.772507
33
78.024132
0
3DFACE
8
0
70
0
10
90.984192
20
-26.473923
30
-76.190857
11
68.037292
21
-21.823502
31
-60.512642
12
4.243642
22
-33.267647
32
-91.285103
13
6.351126
23
-41.174919
33
-112.749268
0
3DFACE
8
0
70
0
10
-8.307389
20
-26.292549
30
114.084877
11
85.610161
21
-14.078232
31
86.979263
12
93.843819
22
41.464783
32
90.559616
13
-14.492722
23
28.181213
33
116.645973
0
3DFACE
8
0
70
0
10
96.568718
20
-22.780823
30
-87.283669
11
6.925006
21
-38.389175
31
-128.140610
12
0.732153
22
16.090683
32
-125.580009
13
104.802376
23
32.762177
33
-83.703316
0
3DFACE
8
0
70
0
10
-14.492722
20
28.181213
30
116.645973
11
93.843819
21
41.464783
31
90.559616
12
88.198860
22
41.355011
32
81.766670
13
-13.852106
23
28.741089
33
104.393379
0
3DFACE
8
0
70
0
10
-8.307389
20
-26.292549
30
114.084877
11
-7.128870
21
-30.469948
31
101.609566
12
81.286354
22
-18.772507
32
78.024132
13
85.610161
23
-14.078232
33
86.979263
0
3DFACE
8
0
70
0
10
104.802376
20
32.762177
30
-83.703316
11
0.732153
21
16.090683
31
-125.580009
12
-0.656969
22
18.279831
32
-109.970428
13
97.896698
23
33.653580
33
-72.448318
0
3DFACE
8
0
70
0
10
96.568718
20
-22.780823
30
-87.283669
11
90.984192
21
-26.473923
31
-76.190857
12
6.351126
22
-41.174919
32
-112.749268
13
6.925006
23
-38.389175
33
-128.140610
0
3DFACE
8
0
70
0
10
27.673773
20
-119.444244
30
102.617195
11
74.813721
21
-119.444244
31
102.617195
12
66.977409
22
-98.812729
32
87.801697
13
33.987896
23
-98.998032
33
87.801697
0
3DFACE
8
0
70
0
10
60.374233
20
-15.737991
30
61.345249
11
64.015839
21
-34.941597
31
41.437241
12
79.850647
22
-39.125641
32
3.264217
13
79.844238
23
-16.489822
33
2.919216
0
3DFACE
8
0
70
0
10
81.286354
20
-18.772507
30
78.024132
11
60.374233
21
-15.737991
31
61.345249
12
79.844238
22
-16.489822
32
2.919216
13
107.004372
23
-19.548141
33
4.562263
0
3DFACE
8
0
70
0
10
93.843819
20
41.464783
30
90.559616
11
85.610161
21
-14.078232
31
86.979263
12
113.169540
22
-15.087494
32
5.216588
13
124.750206
23
40.929031
33
9.045831
0
3DFACE
8
0
70
0
10
124.750206
20
40.929031
30
9.045831
11
117.066902
21
41.025024
31
8.539047
12
88.198860
22
41.355011
32
81.766670
13
93.843819
23
41.464783
33
90.559616
0
3DFACE
8
0
70
0
10
85.610161
20
-14.078232
30
86.979263
11
81.286354
21
-18.772507
31
78.024132
12
107.004372
22
-19.548141
32
4.562263
13
113.169540
23
-15.087494
33
5.216588
0
3DFACE
8
0
70
0
10
12.906889
20
-152.844193
30
102.617195
11
80.090286
21
-153.029510
31
102.617195
12
74.813721
22
-119.444244
32
102.617195
13
27.673773
23
-119.444244
33
102.617195
0
3DFACE
8
0
70
0
10
-1.853932
20
168.511414
30
4.810027
11
66.871765
21
150.604919
31
-3.188866
12
53.064346
22
143.219849
32
-36.818665
13
-1.857344
23
146.153931
33
-46.343319
0
3DFACE
8
0
70
0
10
79.844238
20
-16.489822
30
2.919216
11
79.850647
21
-39.125641
31
3.264217
12
74.842941
22
-36.421783
32
-39.932880
13
68.037292
23
-21.823502
33
-60.512642
0
3DFACE
8
0
70
0
10
107.004372
20
-19.548141
30
4.562263
11
79.844238
21
-16.489822
31
2.919216
12
68.037292
22
-21.823502
32
-60.512642
13
90.984192
23
-26.473923
33
-76.190857
0
3DFACE
8
0
70
0
10
113.169540
20
-15.087494
30
5.216588
11
96.568718
21
-22.780823
31
-87.283669
12
104.802376
22
32.762177
32
-83.703316
13
124.750206
23
40.929031
33
9.045831
0
3DFACE
8
0
70
0
10
104.802376
20
32.762177
30
-83.703316
11
97.896698
21
33.653580
31
-72.448318
12
117.066902
22
41.025024
32
8.539047
13
124.750206
23
40.929031
33
9.045831
0
3DFACE
8
0
70
0
10
113.169540
20
-15.087494
30
5.216588
11
107.004372
21
-19.548141
31
4.562263
12
90.984192
22
-26.473923
32
-76.190857
13
96.568718
23
-22.780823
33
-87.283669
0
3DFACE
8
0
70
0
10
23.738422
20
-51.865540
30
18.971907
11
19.624512
21
-36.291595
31
57.394955
12
20.100149
22
-41.644531
32
-5.306769
13
19.900646
23
-52.267120
33
-8.562308
0
3DFACE
8
0
70
0
10
23.738422
20
-51.865540
30
18.971907
11
66.614548
21
-51.244736
31
16.240328
12
64.015839
22
-34.941597
32
41.437241
13
19.624512
23
-36.291595
33
57.394955
0
3DFACE
8
0
70
0
10
66.614548
20
-51.244736
30
16.240328
11
79.626053
21
-51.235367
31
1.038752
12
79.850647
22
-39.125641
32
3.264217
13
64.015839
23
-34.941597
33
41.437241
0
3DFACE
8
0
70
0
10
19.900646
20
-52.267120
30
-8.562308
11
20.100149
21
-41.644531
31
-5.306769
12
36.281593
22
-38.568810
32
-67.789848
13
31.836740
23
-52.410660
33
-34.720875
0
3DFACE
8
0
70
0
10
79.626053
20
-51.235367
30
1.038752
11
71.878456
21
-51.599060
31
-18.659981
12
74.842941
22
-36.421783
32
-39.932880
13
79.850647
23
-39.125641
33
3.264217
0
3DFACE
8
0
70
0
10
71.878456
20
-51.599060
30
-18.659981
11
31.836740
21
-52.410660
31
-34.720875
12
36.281593
22
-38.568810
32
-67.789848
13
74.842941
23
-36.421783
33
-39.932880
0
3DFACE
8
0
70
0
10
26.212158
20
-125.356667
30
-8.806232
11
27.673773
21
-127.827744
31
43.725594
12
33.987896
22
-108.736435
32
35.947453
13
29.549082
23
-94.851952
33
17.025692
0
3DFACE
8
0
70
0
10
29.549082
20
-94.851952
30
17.025692
11
33.987896
21
-108.736435
31
35.947453
12
66.977409
22
-112.334427
32
35.947453
13
64.838005
23
-100.392212
33
12.064305
0
3DFACE
8
0
70
0
10
75.611198
20
-123.208061
30
-2.536665
11
64.838005
21
-100.392212
31
12.064305
12
66.977409
22
-112.334427
32
35.947453
13
74.813721
23
-127.827744
33
43.725594
0
3DFACE
8
0
70
0
10
13.641159
20
-158.126022
30
-37.422279
11
16.610764
21
-150.617310
31
32.613968
12
27.673773
22
-127.827744
32
43.725594
13
26.212158
23
-125.356667
33
-8.806232
0
3DFACE
8
0
70
0
10
86.245041
20
-153.576706
30
-26.407475
11
75.611198
21
-123.208061
31
-2.536665
12
74.813721
22
-127.827744
32
43.725594
13
83.794151
23
-150.723206
33
36.317848
0
3DFACE
8
0
70
0
10
86.245041
20
-153.576706
30
-26.407475
11
83.794151
21
-150.723206
31
36.317848
12
16.610764
22
-150.617310
32
32.613968
13
13.641159
23
-158.126022
33
-37.422279
0
3DFACE
8
0
70
0
10
27.673773
20
-119.444244
30
102.617195
11
33.987896
21
-98.998032
31
87.801697
12
33.987896
22
-108.736435
32
35.947453
13
27.673773
23
-127.827744
33
43.725594
0
3DFACE
8
0
70
0
10
33.987896
20
-98.998032
30
87.801697
11
66.977409
21
-98.812729
31
87.801697
12
66.977409
22
-112.334427
32
35.947453
13
33.987896
23
-108.736435
33
35.947453
0
3DFACE
8
0
70
0
10
74.813721
20
-119.444244
30
102.617195
11
74.813721
21
-127.827744
31
43.725594
12
66.977409
22
-112.334427
32
35.947453
13
66.977409
23
-98.812729
33
87.801697
0
3DFACE
8
0
70
0
10
12.906889
20
-152.844193
30
102.617195
11
27.673773
21
-119.444244
31
102.617195
12
27.673773
22
-127.827744
32
43.725594
13
16.610764
23
-150.617310
33
32.613968
0
3DFACE
8
0
70
0
10
80.090286
20
-153.029510
30
102.617195
11
83.794151
21
-150.723206
31
36.317848
12
74.813721
22
-127.827744
32
43.725594
13
74.813721
23
-119.444244
33
102.617195
0
3DFACE
8
0
70
0
10
80.090286
20
-153.029510
30
102.617195
11
12.906889
21
-152.844193
31
102.617195
12
16.610764
22
-150.617310
32
32.613968
13
83.794151
23
-150.723206
33
36.317848
0
3DFACE
8
0
70
0
10
-139.445694
20
74.625931
30
191.409836
11
-122.957344
21
86.360352
31
203.145981
12
-139.688110
22
96.985565
32
194.049759
13
-146.211197
23
85.620224
33
177.003647
0
3DFACE
8
0
70
0
10
88.150551
20
125.331848
30
-17.096596
11
53.064346
21
143.219849
31
-36.818665
12
66.871765
22
150.604919
32
-3.188866
13
66.871765
23
150.604919
33
-3.188866
0
3DFACE
8
0
70
0
10
66.681633
20
123.626312
30
23.894472
11
66.871765
21
150.604919
31
-3.188866
12
52.935226
22
127.034790
32
58.940086
13
52.935226
23
127.034790
33
58.940086
0
3DFACE
8
0
70
0
10
-22.156700
20
104.753937
30
85.921272
11
7.917235
21
82.519897
31
116.963539
12
-19.302986
22
73.015198
32
138.854355
13
-49.532970
23
97.664459
33
108.392059
0
3DFACE
8
0
70
0
10
-3.357959
20
139.847412
30
121.111588
11
-22.156700
21
104.753937
31
85.921272
12
-49.532970
22
97.664459
32
108.392059
13
-31.618624
23
134.500397
33
143.020279
0
3DFACE
8
0
70
0
10
-5.603861
20
107.171875
30
167.264160
11
22.542580
21
114.428040
31
145.825531
12
-3.357959
22
139.847412
32
121.111588
13
-31.618624
23
134.500397
33
143.020279
0
3DFACE
8
0
70
0
10
7.917235
20
82.519897
30
116.963539
11
22.542580
21
114.428040
31
145.825531
12
-5.603861
22
107.171875
32
167.264160
13
-19.302986
23
73.015198
33
138.854355
0
3DFACE
8
0
70
0
10
-16.412331
20
61.821335
30
138.919769
11
-41.826229
21
51.970993
31
159.529465
12
-81.781433
22
89.916351
32
119.515976
13
-56.813797
23
96.433990
33
98.745827
0
3DFACE
8
0
70
0
10
-56.813797
20
96.433990
30
98.745827
11
-81.781433
21
89.916351
31
119.515976
12
-59.135593
22
143.062744
32
164.104584
13
-33.692944
23
147.250671
33
144.493454
0
3DFACE
8
0
70
0
10
-24.727186
20
102.264404
30
195.977890
11
1.172629
21
108.983795
31
176.457016
12
-33.692944
22
147.250671
32
144.493454
13
-59.135593
23
143.062744
33
164.104584
0
3DFACE
8
0
70
0
10
-16.412331
20
61.821335
30
138.919769
11
1.172629
21
108.983795
31
176.457016
12
-24.727186
22
102.264404
32
195.977890
13
-41.826229
23
51.970993
33
159.529465
0
3DFACE
8
0
70
0
10
-16.412331
20
61.821335
30
138.919769
11
-56.813797
21
96.433990
31
98.745827
12
-49.532970
22
97.664459
32
108.392059
13
-19.302986
23
73.015198
33
138.854355
0
3DFACE
8
0
70
0
10
-41.826229
20
51.970993
30
159.529465
11
-44.939152
21
64.063660
31
159.471283
12
-74.635376
22
91.163788
32
128.996429
13
-81.781433
23
89.916351
33
119.515976
0
3DFACE
8
0
70
0
10
-56.813797
20
96.433990
30
98.745827
11
-33.692944
21
147.250671
31
144.493454
12
-31.618624
22
134.500397
32
143.020279
13
-49.532970
23
97.664459
33
108.392059
0
3DFACE
8
0
70
0
10
-81.781433
20
89.916351
30
119.515976
11
-74.635376
21
91.163788
31
128.996429
12
-56.911903
22
129.714752
32
162.628616
13
-59.135593
23
143.062744
33
164.104584
0
3DFACE
8
0
70
0
10
-24.727186
20
102.264404
30
195.977890
11
-59.135593
21
143.062744
31
164.104584
12
-56.911903
22
129.714752
32
162.628616
13
-31.412462
23
100.518372
33
186.922119
0
3DFACE
8
0
70
0
10
1.172629
20
108.983795
30
176.457016
11
-5.603861
21
107.171875
31
167.264160
12
-31.618624
22
134.500397
32
143.020279
13
-33.692944
23
147.250671
33
144.493454
0
3DFACE
8
0
70
0
10
-41.826229
20
51.970993
30
159.529465
11
-24.727186
21
102.264404
31
195.977890
12
-31.412462
22
100.518372
32
186.922119
13
-44.939152
23
64.063660
33
159.471283
0
3DFACE
8
0
70
0
10
-16.412331
20
61.821335
30
138.919769
11
-19.302986
21
73.015198
31
138.854355
12
-5.603861
22
107.171875
32
167.264160
13
1.172629
23
108.983795
33
176.457016
0
3DFACE
8
0
70
0
10
-46.072033
20
79.132370
30
150.720230
11
-57.909412
21
99.374573
31
127.833176
12
-74.635376
22
91.163788
32
128.996429
13
-44.939152
23
64.063660
33
159.471283
0
3DFACE
8
0
70
0
10
-57.909412
20
99.374573
30
127.833176
11
-48.691235
21
120.317657
31
154.637253
12
-56.911903
22
129.714752
32
162.628616
13
-74.635376
23
91.163788
33
128.996429
0
3DFACE
8
0
70
0
10
-38.690357
20
99.374573
30
172.719574
11
-31.412462
21
100.518372
31
186.922119
12
-56.911903
22
129.714752
32
162.628616
13
-48.691235
23
120.317657
33
154.637253
0
3DFACE
8
0
70
0
10
-46.072033
20
79.132370
30
150.720230
11
-44.939152
21
64.063660
31
159.471283
12
-31.412462
22
100.518372
32
186.922119
13
-38.690357
23
99.374573
33
172.719574
0
3DFACE
8
0
70
0
10
-110.460159
20
80.931122
30
124.128479
11
-111.445023
21
91.870514
31
124.147621
12
-99.656395
22
93.975800
32
119.193207
13
-98.696976
23
83.039825
33
119.061966
0
3DFACE
8
0
70
0
10
-111.445023
20
91.870514
30
124.147621
11
-112.205475
21
103.189575
31
124.916039
12
-100.482704
22
105.291870
32
119.854515
13
-99.656395
23
93.975800
33
119.193207
0
3DFACE
8
0
70
0
10
-63.799168
20
94.863922
30
197.527710
11
-38.690357
21
99.374573
31
172.719574
12
-48.691235
22
120.317657
32
154.637253
13
-77.317314
23
115.813507
33
171.111069
0
3DFACE
8
0
70
0
10
-75.235550
20
74.614410
30
166.194107
11
-46.072033
21
79.132370
31
150.720230
12
-38.690357
22
99.374573
32
172.719574
13
-63.799168
23
94.863922
33
197.527710
0
3DFACE
8
0
70
0
10
-139.445694
20
74.625931
30
191.409836
11
-146.211197
21
85.620224
31
177.003647
12
-102.148186
22
93.877090
32
145.519669
13
-75.235550
23
74.614410
33
166.194107
0
3DFACE
8
0
70
0
10
-146.211197
20
85.620224
30
177.003647
11
-139.688110
21
96.985565
31
194.049759
12
-77.317314
22
115.813507
32
171.111069
13
-102.148186
23
93.877090
33
145.519669
0
3DFACE
8
0
70
0
10
-122.957344
20
86.360352
30
203.145981
11
-63.799168
21
94.863922
31
197.527710
12
-77.317314
22
115.813507
32
171.111069
13
-139.688110
23
96.985565
33
194.049759
0
3DFACE
8
0
70
0
10
-139.445694
20
74.625931
30
191.409836
11
-75.235550
21
74.614410
31
166.194107
12
-63.799168
22
94.863922
32
197.527710
13
-122.957344
23
86.360352
33
203.145981
0
3DFACE
8
0
70
0
10
-110.460159
20
80.931122
30
124.128479
11
-98.696976
21
83.039825
31
119.061966
12
-46.072033
22
79.132370
32
150.720230
13
-75.235550
23
74.614410
33
166.194107
0
3DFACE
8
0
70
0
10
-98.696976
20
83.039825
30
119.061966
11
-99.656395
21
93.975800
31
119.193207
12
-57.909412
22
99.374573
32
127.833176
13
-46.072033
23
79.132370
33
150.720230
0
3DFACE
8
0
70
0
10
-110.460159
20
80.931122
30
124.128479
11
-75.235550
21
74.614410
31
166.194107
12
-102.148186
22
93.877090
32
145.519669
13
-111.445023
23
91.870514
33
124.147621
0
3DFACE
8
0
70
0
10
-99.656395
20
93.975800
30
119.193207
11
-100.482704
21
105.291870
31
119.854515
12
-48.691235
22
120.317657
32
154.637253
13
-57.909412
23
99.374573
33
127.833176
0
3DFACE
8
0
70
0
10
-112.205475
20
103.189575
30
124.916039
11
-77.317314
21
115.813507
31
171.111069
12
-48.691235
22
120.317657
32
154.637253
13
-100.482704
23
105.291870
33
119.854515
0
3DFACE
8
0
70
0
10
-111.445023
20
91.870514
30
124.147621
11
-102.148186
21
93.877090
31
145.519669
12
-77.317314
22
115.813507
32
171.111069
13
-112.205475
23
103.189575
33
124.916039
0
3DFACE
8
0
70
0
10
-6.579701
20
-24.672424
30
80.827660
11
-70.665901
21
-34.276917
31
51.600716
12
-78.757515
22
-35.941605
32
28.710693
13
-40.577835
23
-29.637627
33
57.042149
0
3DFACE
8
0
70
0
10
-63.002846
20
-40.362442
30
-70.257172
11
4.243642
21
-33.267647
31
-91.285103
12
-22.846304
22
-62.569588
32
-66.245193
13
-67.232025
23
-57.347374
33
-51.426075
0
3DFACE
8
0
70
0
10
-7.128870
20
-30.469948
30
101.609566
11
-91.976097
21
-43.284851
31
65.139824
12
-70.665901
22
-34.276917
32
51.600716
13
-6.579701
23
-24.672424
33
80.827660
0
3DFACE
8
0
70
0
10
-82.278259
20
-50.986267
30
-89.075165
11
6.351126
21
-41.174919
31
-112.749268
12
4.243642
22
-33.267647
32
-91.285103
13
-63.002846
23
-40.362442
33
-70.257172
0
3DFACE
8
0
70
0
10
-8.307389
20
-26.292549
30
114.084877
11
-14.492722
21
28.181213
31
116.645973
12
-118.545578
22
11.416946
32
74.765709
13
-98.158203
23
-40.076889
33
73.313705
0
3DFACE
8
0
70
0
10
-87.199646
20
-48.779495
30
-100.949226
11
-107.587021
21
2.714340
31
-99.497223
12
0.732153
22
16.090683
32
-125.580009
13
6.925006
23
-38.389175
33
-128.140610
0
3DFACE
8
0
70
0
10
-14.492722
20
28.181213
30
116.645973
11
-13.852106
21
28.741089
31
104.393379
12
-112.108749
22
13.016449
32
66.871201
13
-118.545578
23
11.416946
33
74.765709
0
3DFACE
8
0
70
0
10
-8.307389
20
-26.292549
30
114.084877
11
-98.158203
21
-40.076889
31
73.313705
12
-91.976097
22
-43.284851
32
65.139824
13
-7.128870
23
-30.469948
33
101.609566
0
3DFACE
8
0
70
0
10
-107.587021
20
2.714340
30
-99.497223
11
-102.410912
21
5.315018
31
-87.343788
12
-0.656969
22
18.279831
32
-109.970428
13
0.732153
23
16.090683
33
-125.580009
0
3DFACE
8
0
70
0
10
-87.199646
20
-48.779495
30
-100.949226
11
6.925006
21
-38.389175
31
-128.140610
12
6.351126
22
-41.174919
32
-112.749268
13
-82.278259
23
-50.986267
33
-89.075165
0
3DFACE
8
0
70
0
10
-31.473774
20
-119.444244
30
102.617195
11
-37.787899
21
-98.998032
31
87.801697
12
-70.777412
22
-98.812729
32
87.801697
13
-78.613716
23
-119.444244
33
102.617195
0
3DFACE
8
0
70
0
10
-70.665901
20
-34.276917
30
51.600716
11
-82.640594
21
-39.477394
31
-9.163637
12
-83.713524
22
-50.197250
32
-11.265761
13
-78.757515
23
-35.941605
33
28.710693
0
3DFACE
8
0
70
0
10
-91.976097
20
-43.284851
30
65.139824
11
-108.258385
21
-50.002487
31
-11.445313
12
-82.640594
22
-39.477394
32
-9.163637
13
-70.665901
23
-34.276917
33
51.600716
0
3DFACE
8
0
70
0
10
-118.545578
20
11.416946
30
74.765709
11
-138.959961
21
3.620575
31
-10.564438
12
-115.225571
22
-47.399734
32
-11.767549
13
-98.158203
23
-40.076889
33
73.313705
0
3DFACE
8
0
70
0
10
-138.959961
20
3.620575
30
-10.564438
11
-118.545578
21
11.416946
31
74.765709
12
-112.108749
22
13.016449
32
66.871201
13
-131.541046
23
5.853165
33
-9.948175
0
3DFACE
8
0
70
0
10
-98.158203
20
-40.076889
30
73.313705
11
-115.225571
21
-47.399734
31
-11.767549
12
-108.258385
22
-50.002487
32
-11.445313
13
-91.976097
23
-43.284851
33
65.139824
0
3DFACE
8
0
70
0
10
-16.706890
20
-152.844193
30
102.617195
11
-31.473774
21
-119.444244
31
102.617195
12
-78.613716
22
-119.444244
32
102.617195
13
-83.890282
23
-153.029510
33
102.617195
0
3DFACE
8
0
70
0
10
-1.853932
20
168.511414
30
4.810027
11
-1.857344
21
146.153931
31
-46.343319
12
-56.752666
22
143.219849
32
-36.818665
13
-63.439281
23
150.695923
33
0.418849
0
3DFACE
8
0
70
0
10
-82.640594
20
-39.477394
30
-9.163637
11
-63.002846
21
-40.362442
31
-70.257172
12
-67.232025
22
-57.347374
32
-51.426075
13
-83.713524
23
-50.197250
33
-11.265761
0
3DFACE
8
0
70
0
10
-108.258385
20
-50.002487
30
-11.445313
11
-82.278259
21
-50.986267
31
-89.075165
12
-63.002846
22
-40.362442
32
-70.257172
13
-82.640594
23
-39.477394
33
-9.163637
0
3DFACE
8
0
70
0
10
-115.225571
20
-47.399734
30
-11.767549
11
-138.959961
21
3.620575
31
-10.564438
12
-107.587021
22
2.714340
32
-99.497223
13
-87.199646
23
-48.779495
33
-100.949226
0
3DFACE
8
0
70
0
10
-107.587021
20
2.714340
30
-99.497223
11
-138.959961
21
3.620575
31
-10.564438
12
-131.541046
22
5.853165
32
-9.948175
13
-102.410912
23
5.315018
33
-87.343788
0
3DFACE
8
0
70
0
10
-115.225571
20
-47.399734
30
-11.767549
11
-87.199646
21
-48.779495
31
-100.949226
12
-82.278259
22
-50.986267
32
-89.075165
13
-108.258385
23
-50.002487
33
-11.445313
0
3DFACE
8
0
70
0
10
-38.140423
20
-51.300674
30
24.617615
11
-25.970642
21
-60.331970
31
0.393621
12
-24.241962
22
-49.418060
32
-1.532874
13
-40.577835
23
-29.637627
33
57.042149
0
3DFACE
8
0
70
0
10
-38.140423
20
-51.300674
30
24.617615
11
-40.577835
21
-29.637627
31
57.042149
12
-78.757515
22
-35.941605
32
28.710693
13
-77.755760
23
-53.208374
33
7.441330
0
3DFACE
8
0
70
0
10
-77.755760
20
-53.208374
30
7.441330
11
-78.757515
21
-35.941605
31
28.710693
12
-83.713524
22
-50.197250
32
-11.265761
13
-85.315765
23
-58.548416
33
-11.099999
0
3DFACE
8
0
70
0
10
-25.970642
20
-60.331970
30
0.393621
11
-29.114162
21
-69.276497
31
-27.941725
12
-22.846304
22
-62.569588
32
-66.245193
13
-24.241962
23
-49.418060
33
-1.532874
0
3DFACE
8
0
70
0
10
-85.315765
20
-58.548416
30
-11.099999
11
-83.713524
21
-50.197250
31
-11.265761
12
-67.232025
22
-57.347374
32
-51.426075
13
-71.888695
23
-64.892662
33
-26.722240
0
3DFACE
8
0
70
0
10
-71.888695
20
-64.892662
30
-26.722240
11
-67.232025
21
-57.347374
31
-51.426075
12
-22.846304
22
-62.569588
32
-66.245193
13
-29.114162
23
-69.276497
33
-27.941725
0
3DFACE
8
0
70
0
10
-31.349045
20
-124.711548
30
-2.459358
11
-41.921429
21
-96.776314
31
23.799505
12
-37.787899
22
-108.736435
32
35.947453
13
-31.473774
23
-127.827744
33
43.725594
0
3DFACE
8
0
70
0
10
-41.921429
20
-96.776314
30
23.799505
11
-74.505226
21
-103.136452
31
8.933763
12
-70.777412
22
-112.334427
32
35.947453
13
-37.787899
23
-108.736435
33
35.947453
0
3DFACE
8
0
70
0
10
-80.583649
20
-124.998306
30
-9.847687
11
-78.613716
21
-127.827744
31
43.725594
12
-70.777412
22
-112.334427
32
35.947453
13
-74.505226
23
-103.136452
33
8.933763
0
3DFACE
8
0
70
0
10
-11.115103
20
-154.303192
30
-29.029596
11
-31.349045
21
-124.711548
31
-2.459358
12
-31.473774
22
-127.827744
32
43.725594
13
-20.410763
23
-150.617310
33
32.613968
0
3DFACE
8
0
70
0
10
-83.971794
20
-153.508377
30
-38.056675
11
-87.594154
21
-150.723206
31
36.317848
12
-78.613716
22
-127.827744
32
43.725594
13
-80.583649
23
-124.998306
33
-9.847687
0
3DFACE
8
0
70
0
10
-83.971794
20
-153.508377
30
-38.056675
11
-11.115103
21
-154.303192
31
-29.029596
12
-20.410763
22
-150.617310
32
32.613968
13
-87.594154
23
-150.723206
33
36.317848
0
3DFACE
8
0
70
0
10
-31.473774
20
-119.444244
30
102.617195
11
-31.473774
21
-127.827744
31
43.725594
12
-37.787899
22
-108.736435
32
35.947453
13
-37.787899
23
-98.998032
33
87.801697
0
3DFACE
8
0
70
0
10
-37.787899
20
-98.998032
30
87.801697
11
-37.787899
21
-108.736435
31
35.947453
12
-70.777412
22
-112.334427
32
35.947453
13
-70.777412
23
-98.812729
33
87.801697
0
3DFACE
8
0
70
0
10
-78.613716
20
-119.444244
30
102.617195
11
-70.777412
21
-98.812729
31
87.801697
12
-70.777412
22
-112.334427
32
35.947453
13
-78.613716
23
-127.827744
33
43.725594
0
3DFACE
8
0
70
0
10
-16.706890
20
-152.844193
30
102.617195
11
-20.410763
21
-150.617310
31
32.613968
12
-31.473774
22
-127.827744
32
43.725594
13
-31.473774
23
-119.444244
33
102.617195
0
3DFACE
8
0
70
0
10
-83.890282
20
-153.029510
30
102.617195
11
-78.613716
21
-119.444244
31
102.617195
12
-78.613716
22
-127.827744
32
43.725594
13
-87.594154
23
-150.723206
33
36.317848
0
3DFACE
8
0
70
0
10
-83.890282
20
-153.029510
30
102.617195
11
-87.594154
21
-150.723206
31
36.317848
12
-20.410763
22
-150.617310
32
32.613968
13
-16.706890
23
-152.844193
33
102.617195
0
3DFACE
8
0
70
0
10
-95.585136
20
97.722717
30
255.821594
11
-80.868156
21
108.729187
31
249.783951
12
-97.837105
22
120.116760
32
256.467468
13
-115.811882
23
108.729187
33
251.694016
0
3DFACE
8
0
70
0
10
-86.102997
20
122.769196
30
-29.886133
11
-63.439281
21
150.695923
31
0.418849
12
-56.752666
22
143.219849
32
-36.818665
13
-56.752666
23
143.219849
33
-36.818665
0
3DFACE
8
0
70
0
10
-74.721039
20
128.313477
30
46.289684
11
-56.614574
21
127.034790
31
58.940086
12
-63.439281
22
150.695923
32
0.418849
13
-63.439281
23
150.695923
33
0.418849
0
3DFACE
8
0
70
0
10
-119.241219
20
120.329010
30
83.887299
11
-104.982147
21
119.762939
31
117.068871
12
-139.657043
22
87.942108
32
132.381485
13
-154.597610
23
90.877747
33
99.538696
0
3DFACE
8
0
70
0
10
-159.767380
20
149.140717
30
102.617470
11
-144.877991
21
150.489990
31
135.537552
12
-104.982147
22
119.762939
32
117.068871
13
-119.241219
23
120.329010
33
83.887299
0
3DFACE
8
0
70
0
10
-172.417587
20
117.210968
30
147.598083
11
-144.877991
21
150.489990
31
135.537552
12
-159.767380
22
149.140717
32
102.617470
13
-187.858948
23
117.732300
33
114.951759
0
3DFACE
8
0
70
0
10
-154.597610
20
90.877747
30
99.538696
11
-139.657043
21
87.942108
31
132.381485
12
-172.417587
22
117.210968
32
147.598083
13
-187.858948
23
117.732300
33
114.951759
0
3DFACE
8
0
70
0
10
-139.649246
20
76.381805
30
132.231934
11
-93.935234
21
120.518707
31
112.071976
12
-81.050056
22
119.947296
32
142.582748
13
-125.563240
23
72.691452
33
163.145050
0
3DFACE
8
0
70
0
10
-93.935234
20
120.518707
30
112.071976
11
-146.657852
21
163.332764
31
136.506363
12
-133.339508
22
165.156250
32
165.981094
13
-81.050056
23
119.947296
33
142.582748
0
3DFACE
8
0
70
0
10
-168.633865
20
116.632874
30
182.233490
11
-133.339508
21
165.156250
31
165.981094
12
-146.657852
22
163.332764
32
136.506363
13
-182.950027
23
117.150116
33
152.370544
0
3DFACE
8
0
70
0
10
-139.649246
20
76.381805
30
132.231934
11
-125.563240
21
72.691452
31
163.145050
12
-168.633865
22
116.632874
32
182.233490
13
-182.950027
23
117.150116
33
152.370544
0
3DFACE
8
0
70
0
10
-139.649246
20
76.381805
30
132.231934
11
-139.657043
21
87.942108
31
132.381485
12
-104.982147
22
119.762939
32
117.068871
13
-93.935234
23
120.518707
33
112.071976
0
3DFACE
8
0
70
0
10
-125.563240
20
72.691452
30
163.145050
11
-81.050056
21
119.947296
31
142.582748
12
-91.907425
22
119.243805
32
147.494385
13
-125.585960
23
85.177338
33
163.313049
0
3DFACE
8
0
70
0
10
-93.935234
20
120.518707
30
112.071976
11
-104.982147
21
119.762939
31
117.068871
12
-144.877991
22
150.489990
32
135.537552
13
-146.657852
23
163.332764
33
136.506363
0
3DFACE
8
0
70
0
10
-81.050056
20
119.947296
30
142.582748
11
-133.339508
21
165.156250
31
165.981094
12
-131.552017
22
151.697571
32
165.001068
13
-91.907425
23
119.243805
33
147.494385
0
3DFACE
8
0
70
0
10
-168.633865
20
116.632874
30
182.233490
11
-158.258789
21
116.732880
31
177.532806
12
-131.552017
22
151.697571
32
165.001068
13
-133.339508
23
165.156250
33
165.981094
0
3DFACE
8
0
70
0
10
-182.950027
20
117.150116
30
152.370544
11
-146.657852
21
163.332764
31
136.506363
12
-144.877991
22
150.489990
32
135.537552
13
-172.417587
23
117.210968
33
147.598083
0
3DFACE
8
0
70
0
10
-125.563240
20
72.691452
30
163.145050
11
-125.585960
21
85.177338
31
163.313049
12
-158.258789
22
116.732880
32
177.532806
13
-168.633865
23
116.632874
33
182.233490
0
3DFACE
8
0
70
0
10
-139.649246
20
76.381805
30
132.231934
11
-182.950027
21
117.150116
31
152.370544
12
-172.417587
22
117.210968
32
147.598083
13
-139.657043
23
87.942108
33
132.381485
0
3DFACE
8
0
70
0
10
-132.605927
20
96.082275
30
158.720444
11
-125.585960
21
85.177338
31
163.313049
12
-91.907425
22
119.243805
32
147.494385
13
-109.057640
23
116.694031
33
149.088516
0
3DFACE
8
0
70
0
10
-109.057640
20
116.694031
30
149.088516
11
-91.907425
21
119.243805
31
147.494385
12
-131.552017
22
151.697571
32
165.001068
13
-135.283554
23
137.401306
33
160.274551
0
3DFACE
8
0
70
0
10
-154.133438
20
116.133240
30
167.802063
11
-135.283554
21
137.401306
31
160.274551
12
-131.552017
22
151.697571
32
165.001068
13
-158.258789
23
116.732880
33
177.532806
0
3DFACE
8
0
70
0
10
-132.605927
20
96.082275
30
158.720444
11
-154.133438
21
116.133240
31
167.802063
12
-158.258789
22
116.732880
32
177.532806
13
-125.585960
23
85.177338
33
163.313049
0
3DFACE
8
0
70
0
10
-68.404167
20
100.475143
30
187.555115
11
-73.143440
21
101.726074
31
175.535812
12
-72.829651
22
112.699951
32
175.629837
13
-67.993004
23
111.451050
33
187.587982
0
3DFACE
8
0
70
0
10
-67.993004
20
111.451050
30
187.587982
11
-72.829651
21
112.699951
31
175.629837
12
-72.995079
22
124.058807
32
175.979401
13
-68.280884
23
122.811676
33
187.966202
0
3DFACE
8
0
70
0
10
-153.689163
20
113.444244
30
205.362152
11
-125.938843
21
134.482452
31
195.028809
12
-135.283554
22
137.401306
32
160.274551
13
-154.133438
23
116.133240
33
167.802063
0
3DFACE
8
0
70
0
10
-122.903374
20
93.118484
30
192.644958
11
-153.689163
21
113.444244
31
205.362152
12
-154.133438
22
116.133240
32
167.802063
13
-132.605927
23
96.082275
33
158.720444
0
3DFACE
8
0
70
0
10
-95.585136
20
97.722717
30
255.821594
11
-122.903374
21
93.118484
31
192.644958
12
-89.754997
22
113.444244
32
195.934525
13
-80.868156
23
108.729187
33
249.783951
0
3DFACE
8
0
70
0
10
-80.868156
20
108.729187
30
249.783951
11
-89.754997
21
113.444244
31
195.934525
12
-125.938843
22
134.482452
32
195.028809
13
-97.837105
23
120.116760
33
256.467468
0
3DFACE
8
0
70
0
10
-115.811882
20
108.729187
30
251.694016
11
-97.837105
21
120.116760
31
256.467468
12
-125.938843
22
134.482452
32
195.028809
13
-153.689163
23
113.444244
33
205.362152
0
3DFACE
8
0
70
0
10
-95.585136
20
97.722717
30
255.821594
11
-115.811882
21
108.729187
31
251.694016
12
-153.689163
22
113.444244
32
205.362152
13
-122.903374
23
93.118484
33
192.644958
0
3DFACE
8
0
70
0
10
-68.404167
20
100.475143
30
187.555115
11
-122.903374
21
93.118484
31
192.644958
12
-132.605927
22
96.082275
32
158.720444
13
-73.143440
23
101.726074
33
175.535812
0
3DFACE
8
0
70
0
10
-73.143440
20
101.726074
30
175.535812
11
-132.605927
21
96.082275
31
158.720444
12
-109.057640
22
116.694031
32
149.088516
13
-72.829651
23
112.699951
33
175.629837
0
3DFACE
8
0
70
0
10
-68.404167
20
100.475143
30
187.555115
11
-67.993004
21
111.451050
31
187.587982
12
-89.754997
22
113.444244
32
195.934525
13
-122.903374
23
93.118484
33
192.644958
0
3DFACE
8
0
70
0
10
-72.829651
20
112.699951
30
175.629837
11
-109.057640
21
116.694031
31
149.088516
12
-135.283554
22
137.401306
32
160.274551
13
-72.995079
23
124.058807
33
175.979401
0
3DFACE
8
0
70
0
10
-68.280884
20
122.811676
30
187.966202
11
-72.995079
21
124.058807
31
175.979401
12
-135.283554
22
137.401306
32
160.274551
13
-125.938843
23
134.482452
33
195.028809
0
3DFACE
8
0
70
0
10
-67.993004
20
111.451050
30
187.587982
11
-68.280884
21
122.811676
31
187.966202
12
-125.938843
22
134.482452
32
195.028809
13
-89.754997
23
113.444244
33
195.934525
0
3DFACE
8
0
70
0
10
20.100149
20
-41.644531
30
-5.306769
11
19.624512
21
-36.291595
31
57.394955
12
-6.579701
22
-24.672424
32
80.827660
13
-1.274331
23
-28.885620
33
-3.538302
0
3DFACE
8
0
70
0
10
20.100149
20
-41.644531
30
-5.306769
11
-1.274331
21
-28.885620
31
-3.538302
12
4.243642
22
-33.267647
32
-91.285103
13
36.281593
23
-38.568810
33
-67.789848
0
3DFACE
8
0
70
0
10
4.243642
20
-33.267647
30
-91.285103
11
-1.274331
21
-28.885620
31
-3.538302
12
-24.241962
22
-49.418060
32
-1.532874
13
-22.846304
23
-62.569588
33
-66.245193
0
3DFACE
8
0
70
0
10
-1.274331
20
-28.885620
30
-3.538302
11
-6.579701
21
-24.672424
31
80.827660
12
-40.577835
22
-29.637627
32
57.042149
13
-24.241962
23
-49.418060
33
-1.532874
0
3DFACE
8
0
70
0
10
-10.483288
20
181.498657
30
92.345436
11
-0.208413
21
182.020111
31
87.115410
12
9.215913
22
199.768097
32
91.951103
13
-10.483288
23
199.949768
33
98.400314
0
3DFACE
8
0
70
0
10
-10.483288
20
199.949768
30
98.400314
11
9.215913
21
199.768097
31
91.951103
12
2.139585
22
208.332458
32
90.753769
13
-10.483288
23
211.766693
33
94.270287
0
3DFACE
8
0
70
0
10
-0.208413
20
182.020111
30
87.115410
11
0.724791
21
178.701355
31
74.245682
12
12.216786
22
197.288452
32
74.494408
13
9.215913
23
199.768097
33
91.951103
0
3DFACE
8
0
70
0
10
-10.483288
20
181.498657
30
92.345436
11
-10.741670
21
175.914001
31
80.165169
12
0.724791
22
178.701355
32
74.245682
13
-0.208413
23
182.020111
33
87.115410
0
3DFACE
8
0
70
0
10
-10.483288
20
211.766693
30
94.270287
11
2.139585
21
208.332458
31
90.753769
12
4.059009
22
209.209473
32
74.570137
13
-10.741670
23
213.153046
33
79.878464
0
3DFACE
8
0
70
0
10
9.215913
20
199.768097
30
91.951103
11
12.216786
21
197.288452
31
74.494408
12
4.059009
22
209.209473
32
74.570137
13
2.139585
23
208.332458
33
90.753769
0
3DFACE
8
0
70
0
10
-6.703477
20
222.636993
30
76.010178
11
-6.703477
21
213.132385
31
77.052422
12
4.325990
22
210.784119
32
71.744095
13
5.643003
23
230.194458
33
74.002785
0
3DFACE
8
0
70
0
10
4.325990
20
210.784119
30
71.744095
11
13.888314
21
211.780151
31
65.457375
12
17.562349
22
222.640381
32
61.884769
13
5.643003
23
230.194458
33
74.002785
0
3DFACE
8
0
70
0
10
2.249316
20
160.661072
30
93.404343
11
-1.711635
21
179.638855
31
82.459877
12
-10.741670
22
178.224792
32
85.208443
13
-10.741670
23
160.457581
33
94.088051
0
3DFACE
8
0
70
0
10
40.174343
20
177.498535
30
47.860886
11
38.568600
21
188.428467
31
47.682182
12
15.351926
22
181.321747
32
68.342545
13
22.459934
23
158.495789
33
74.651894
0
3DFACE
8
0
70
0
10
-1.711635
20
179.638855
30
82.459877
11
2.249316
21
160.661072
31
93.404343
12
20.462938
22
162.852386
32
84.736778
13
12.985736
23
179.901123
33
82.342766
0
3DFACE
8
0
70
0
10
35.033504
20
220.752625
30
48.063480
11
47.199051
21
225.690613
31
47.642975
12
22.113878
22
232.262573
32
66.203033
13
21.821165
23
225.329224
33
64.703041
0
3DFACE
8
0
70
0
10
-10.741670
20
232.179382
30
81.541481
11
-10.741670
21
225.571045
31
78.817780
12
5.136131
22
233.055359
32
76.680717
13
6.704826
23
239.703949
33
77.387840
0
3DFACE
8
0
70
0
10
6.704826
20
239.703949
30
77.387840
11
5.136131
21
233.055359
31
76.680717
12
21.821165
22
225.329224
32
64.703041
13
22.113878
23
232.262573
33
66.203033
0
3DFACE
8
0
70
0
10
-10.741670
20
133.865051
30
91.912781
11
6.433236
21
142.210510
31
85.546570
12
3.250943
22
151.362030
32
83.498718
13
-10.741670
23
148.395233
33
88.970085
0
3DFACE
8
0
70
0
10
-10.741670
20
90.708847
30
70.835304
11
9.618363
21
103.226013
31
67.593369
12
6.433236
22
142.210510
32
85.546570
13
-10.741670
23
133.865051
33
91.912781
0
3DFACE
8
0
70
0
10
40.174343
20
177.498535
30
47.860886
11
22.459934
21
158.495789
31
74.651894
12
21.776764
22
155.274048
32
65.640709
13
43.897572
23
166.240479
33
51.031166
0
3DFACE
8
0
70
0
10
21.776764
20
155.274048
30
65.640709
11
33.150146
21
129.227539
31
35.841454
12
43.228214
22
158.875000
32
19.847027
13
43.897572
23
166.240479
33
51.031166
0
3DFACE
8
0
70
0
10
9.618363
20
103.226013
30
67.593369
11
33.150146
21
129.227539
31
35.841454
12
21.776764
22
155.274048
32
65.640709
13
6.433236
23
142.210510
33
85.546570
0
3DFACE
8
0
70
0
10
6.433236
20
142.210510
30
85.546570
11
21.776764
21
155.274048
31
65.640709
12
22.459934
22
158.495789
32
74.651894
13
3.250943
23
151.362030
33
83.498718
0
3DFACE
8
0
70
0
10
-10.741670
20
160.457581
30
94.088051
11
-10.741670
21
148.395233
31
88.970085
12
3.250943
22
151.362030
32
83.498718
13
2.249316
23
160.661072
33
93.404343
0
3DFACE
8
0
70
0
10
-10.741670
20
178.224792
30
85.208443
11
-1.711635
21
179.638855
31
82.459877
12
0.724791
22
178.701355
32
74.245682
13
-10.741670
23
175.914001
33
80.165169
0
3DFACE
8
0
70
0
10
12.985736
20
179.901123
30
82.342766
11
15.351926
21
181.321747
31
68.342545
12
0.724791
22
178.701355
32
74.245682
13
-1.711635
23
179.638855
33
82.459877
0
POINT
8
0
70
0
10
41.665337
20
161.557098
30
66.229271
0
3DFACE
8
0
70
0
10
2.249316
20
160.661072
30
93.404343
11
3.250943
21
151.362030
31
83.498718
12
22.459934
22
158.495789
32
74.651894
13
20.462938
23
162.852386
33
84.736778
0
3DFACE
8
0
70
0
10
20.462938
20
162.852386
30
84.736778
11
41.665337
21
161.557098
31
66.229271
12
12.985736
22
179.901123
32
82.342766
13
12.985736
23
179.901123
33
82.342766
0
3DFACE
8
0
70
0
10
12.985736
20
179.901123
30
82.342766
11
41.665337
21
161.557098
31
66.229271
12
15.351926
22
181.321747
32
68.342545
13
15.351926
23
181.321747
33
68.342545
0
3DFACE
8
0
70
0
10
41.665337
20
161.557098
30
66.229271
11
22.459934
21
158.495789
31
74.651894
12
15.351926
22
181.321747
32
68.342545
13
15.351926
23
181.321747
33
68.342545
0
3DFACE
8
0
70
0
10
22.459934
20
158.495789
30
74.651894
11
41.665337
21
161.557098
31
66.229271
12
20.462938
22
162.852386
32
84.736778
13
20.462938
23
162.852386
33
84.736778
0
3DFACE
8
0
70
0
10
47.199051
20
225.690613
30
47.642975
11
35.033504
21
220.752625
31
48.063480
12
48.466927
22
217.588135
32
11.147222
13
51.772465
23
219.251282
33
10.341172
0
3DFACE
8
0
70
0
10
35.033504
20
220.752625
30
48.063480
11
33.060749
21
211.050964
31
48.390137
12
49.971329
22
210.234863
32
12.196297
13
48.466927
23
217.588135
33
11.147222
0
3DFACE
8
0
70
0
10
33.060749
20
211.050964
30
48.390137
11
35.502525
21
197.951843
31
48.238960
12
49.993114
22
197.040894
32
14.375229
13
49.971329
23
210.234863
33
12.196297
0
3DFACE
8
0
70
0
10
51.772465
20
219.251282
30
10.341172
11
48.466927
21
217.588135
31
11.147222
12
31.676722
22
215.292908
32
-15.165787
13
34.262848
23
214.244049
33
-15.472691
0
3DFACE
8
0
70
0
10
49.971329
20
210.234863
30
12.196297
11
33.989075
21
213.914246
31
-17.593344
12
31.676722
22
215.292908
32
-15.165787
13
48.466927
23
217.588135
33
11.147222
0
3DFACE
8
0
70
0
10
49.993114
20
197.040894
30
14.375229
11
31.244303
21
202.217163
31
-19.077074
12
33.989075
22
213.914246
32
-17.593344
13
49.971329
23
210.234863
33
12.196297
0
3DFACE
8
0
70
0
10
34.262848
20
214.244049
30
-15.472691
11
31.676722
21
215.292908
31
-15.165787
12
-10.741669
22
215.066345
32
-32.325188
13
-10.741670
23
212.236023
33
-35.140625
0
3DFACE
8
0
70
0
10
33.989075
20
213.914246
30
-17.593344
11
-10.741669
21
213.840027
31
-32.670982
12
-10.741669
22
215.066345
32
-32.325188
13
31.676722
23
215.292908
33
-15.165787
0
3DFACE
8
0
70
0
10
31.244303
20
202.217163
30
-19.077074
11
-10.741665
21
199.963867
31
-31.211660
12
-10.741669
22
213.840027
32
-32.670982
13
33.989075
23
213.914246
33
-17.593344
0
3DFACE
8
0
70
0
10
43.228214
20
158.875000
30
19.847027
11
49.556763
21
175.486633
31
15.737915
12
40.174343
22
177.498535
32
47.860886
13
43.897572
23
166.240479
33
51.031166
0
3DFACE
8
0
70
0
10
35.502525
20
197.951843
30
48.238960
11
38.568600
21
188.428467
31
47.682182
12
49.993114
22
197.040894
32
14.375229
13
49.993114
23
197.040894
33
14.375229
0
3DFACE
8
0
70
0
10
40.174343
20
177.498535
30
47.860886
11
49.556763
21
175.486633
31
15.737915
12
49.993114
22
197.040894
32
14.375229
13
38.568600
23
188.428467
33
47.682182
0
3DFACE
8
0
70
0
10
49.556763
20
175.486633
30
15.737915
11
30.451586
21
184.229492
31
-16.166227
12
31.244303
22
202.217163
32
-19.077074
13
49.993114
23
197.040894
33
14.375229
0
3DFACE
8
0
70
0
10
30.451586
20
184.229492
30
-16.166227
11
-10.741665
21
182.603790
31
-26.780502
12
-10.741665
22
199.963867
32
-31.211660
13
31.244303
23
202.217163
33
-19.077074
0
3DFACE
8
0
70
0
10
-10.741670
20
232.179382
30
81.541481
11
6.704826
21
239.703949
31
77.387840
12
8.657927
22
261.785278
32
73.109451
13
-10.741670
23
261.037109
33
79.224953
0
3DFACE
8
0
70
0
10
-10.741670
20
261.037109
30
79.224953
11
8.657927
21
261.785278
31
73.109451
12
9.046591
22
264.042755
32
68.204117
13
-10.741670
23
264.373993
33
75.631798
0
3DFACE
8
0
70
0
10
6.704826
20
239.703949
30
77.387840
11
22.113878
21
232.262573
31
66.203033
12
35.149254
22
259.720154
32
59.950512
13
8.657927
23
261.785278
33
73.109451
0
3DFACE
8
0
70
0
10
8.657927
20
261.785278
30
73.109451
11
35.149254
21
259.720154
31
59.950512
12
33.906902
22
262.399323
32
55.338871
13
9.046591
23
264.042755
33
68.204117
0
3DFACE
8
0
70
0
10
22.113878
20
232.262573
30
66.203033
11
47.199051
21
225.690613
31
47.642975
12
51.246109
22
251.645508
32
29.301634
13
35.149254
23
259.720154
33
59.950512
0
3DFACE
8
0
70
0
10
35.149254
20
259.720154
30
59.950512
11
51.246109
21
251.645508
31
29.301634
12
42.947433
22
255.701813
32
27.891684
13
33.906902
23
262.399323
33
55.338871
0
3DFACE
8
0
70
0
10
47.199051
20
225.690613
30
47.642975
11
51.772465
21
219.251282
31
10.341172
12
55.771801
22
249.634491
32
3.499886
13
51.246109
23
251.645508
33
29.301634
0
3DFACE
8
0
70
0
10
51.246109
20
251.645508
30
29.301634
11
55.771801
21
249.634491
31
3.499886
12
49.217373
22
252.387360
32
4.923486
13
42.947433
23
255.701813
33
27.891684
0
3DFACE
8
0
70
0
10
51.772465
20
219.251282
30
10.341172
11
34.262848
21
214.244049
31
-15.472691
12
35.158173
22
241.857117
32
-19.249321
13
55.771801
23
249.634491
33
3.499886
0
3DFACE
8
0
70
0
10
55.771801
20
249.634491
30
3.499886
11
35.158173
21
241.857117
31
-19.249321
12
29.629454
22
246.308228
32
-15.815496
13
49.217373
23
252.387360
33
4.923486
0
3DFACE
8
0
70
0
10
34.262848
20
214.244049
30
-15.472691
11
-10.741670
21
212.236023
31
-35.140625
12
-10.741670
22
237.744263
32
-39.003441
13
35.158173
23
241.857117
33
-19.249321
0
3DFACE
8
0
70
0
10
35.158173
20
241.857117
30
-19.249321
11
-10.741670
21
237.744263
31
-39.003441
12
-10.741670
22
241.742920
32
-34.783913
13
29.629454
23
246.308228
33
-15.815496
0
3DFACE
8
0
70
0
10
43.228214
20
158.875000
30
19.847027
11
32.654797
21
160.900909
31
20.687689
12
30.451586
22
184.229492
32
-16.166227
13
49.556763
23
175.486633
33
15.737915
0
3DFACE
8
0
70
0
10
32.654797
20
160.900909
30
20.687689
11
-4.404254
21
168.223602
31
0.112183
12
-10.741665
22
182.603790
32
-26.780502
13
30.451586
23
184.229492
33
-16.166227
0
3DFACE
8
0
70
0
10
33.150146
20
129.227539
30
35.841454
11
24.811283
21
139.164551
31
44.676540
12
32.654797
22
160.900909
32
20.687689
13
43.228214
23
158.875000
33
19.847027
0
3DFACE
8
0
70
0
10
9.618363
20
103.226013
30
67.593369
11
7.199418
21
103.918289
31
51.686684
12
24.811283
22
139.164551
32
44.676540
13
33.150146
23
129.227539
33
35.841454
0
3DFACE
8
0
70
0
10
7.199418
20
103.918289
30
51.686684
11
-10.741670
21
102.284149
31
47.390610
12
-10.741670
22
124.320831
32
25.743534
13
24.811283
23
139.164551
33
44.676540
0
3DFACE
8
0
70
0
10
-10.741670
20
90.708847
30
70.835304
11
-10.741670
21
102.284149
31
47.390610
12
7.199418
22
103.918289
32
51.686684
13
7.199418
23
103.918289
33
51.686684
0
3DFACE
8
0
70
0
10
-10.741670
20
90.708847
30
70.835304
11
7.199418
21
103.918289
31
51.686684
12
9.618363
22
103.226013
32
67.593369
13
9.618363
23
103.226013
33
67.593369
0
3DFACE
8
0
70
0
10
-10.483288
20
181.498657
30
92.345436
11
-10.483288
21
199.949768
31
98.400314
12
-30.182489
22
199.768097
32
91.951103
13
-20.758162
23
182.020111
33
87.115410
0
3DFACE
8
0
70
0
10
-10.483288
20
199.949768
30
98.400314
11
-10.483288
21
211.766693
31
94.270287
12
-23.106161
22
208.332458
32
90.753769
13
-30.182489
23
199.768097
33
91.951103
0
3DFACE
8
0
70
0
10
-20.758162
20
182.020111
30
87.115410
11
-30.182489
21
199.768097
31
91.951103
12
-33.700127
22
197.288452
32
74.494408
13
-22.208130
23
178.701355
33
74.245682
0
3DFACE
8
0
70
0
10
-10.483288
20
181.498657
30
92.345436
11
-20.758162
21
182.020111
31
87.115410
12
-22.208130
22
178.701355
32
74.245682
13
-10.741670
23
175.914001
33
80.165169
0
3DFACE
8
0
70
0
10
-10.483288
20
211.766693
30
94.270287
11
-10.741670
21
213.153046
31
79.878464
12
-25.542349
22
209.209473
32
74.570137
13
-23.106161
23
208.332458
33
90.753769
0
3DFACE
8
0
70
0
10
-30.182489
20
199.768097
30
91.951103
11
-23.106161
21
208.332458
31
90.753769
12
-25.542349
22
209.209473
32
74.570137
13
-33.700127
23
197.288452
33
74.494408
0
3DFACE
8
0
70
0
10
-14.326725
20
222.517731
30
75.829865
11
-26.474598
21
230.889648
31
74.203835
12
-25.575241
22
211.396515
32
72.374306
13
-14.326725
23
213.400452
33
76.674065
0
3DFACE
8
0
70
0
10
-25.575241
20
211.396515
30
72.374306
11
-26.474598
21
230.889648
31
74.203835
12
-38.411732
22
222.520935
32
64.388260
13
-34.664730
23
212.331055
33
67.282082
0
3DFACE
8
0
70
0
10
-23.732656
20
160.661072
30
93.404343
11
-10.741670
21
160.457581
31
94.088051
12
-10.741670
22
178.224792
32
85.208443
13
-19.771704
23
179.638855
33
82.459877
0
3DFACE
8
0
70
0
10
-61.657681
20
177.498535
30
47.860886
11
-43.943275
21
158.495789
31
74.651894
12
-36.835266
22
181.321747
32
68.342545
13
-60.051937
23
188.428467
33
47.682182
0
3DFACE
8
0
70
0
10
-19.771704
20
179.638855
30
82.459877
11
-34.469074
21
179.901123
31
82.342766
12
-41.946278
22
162.852386
32
84.736778
13
-23.732656
23
160.661072
33
93.404343
0
3DFACE
8
0
70
0
10
-56.516846
20
220.752625
30
48.063480
11
-42.432468
21
225.329224
31
64.703041
12
-42.725178
22
232.262573
32
66.203026
13
-68.682381
23
225.690613
33
47.642975
0
3DFACE
8
0
70
0
10
-10.741670
20
232.179382
30
81.541481
11
-27.784441
21
240.508331
31
77.317467
12
-26.215750
22
233.862183
32
76.666641
13
-10.741670
23
225.571045
33
78.817780
0
3DFACE
8
0
70
0
10
-27.784441
20
240.508331
30
77.317467
11
-42.725178
21
232.262573
31
66.203026
12
-42.432468
22
225.329224
32
64.703041
13
-26.215750
23
233.862183
33
76.666641
0
3DFACE
8
0
70
0
10
-10.741670
20
133.865051
30
91.912781
11
-10.741670
21
148.395233
31
88.970085
12
-24.734283
22
151.362030
32
83.498718
13
-27.916578
23
142.210510
33
85.546570
0
3DFACE
8
0
70
0
10
-10.741670
20
90.708847
30
70.835304
11
-10.741670
21
133.865051
31
91.912781
12
-27.916578
22
142.210510
32
85.546570
13
-31.101704
23
103.226013
33
67.593369
0
3DFACE
8
0
70
0
10
-61.657681
20
177.498535
30
47.860886
11
-65.380905
21
166.240479
31
51.031166
12
-43.260105
22
155.274048
32
65.640709
13
-43.943275
23
158.495789
33
74.651894
0
3DFACE
8
0
70
0
10
-43.260105
20
155.274048
30
65.640709
11
-65.380905
21
166.240479
31
51.031166
12
-64.711555
22
158.875000
32
19.847029
13
-54.633488
23
129.227539
33
35.841454
0
3DFACE
8
0
70
0
10
-31.101704
20
103.226013
30
67.593369
11
-27.916578
21
142.210510
31
85.546570
12
-43.260105
22
155.274048
32
65.640709
13
-54.633488
23
129.227539
33
35.841454
0
3DFACE
8
0
70
0
10
-27.916578
20
142.210510
30
85.546570
11
-24.734283
21
151.362030
31
83.498718
12
-43.943275
22
158.495789
32
74.651894
13
-43.260105
23
155.274048
33
65.640709
0
3DFACE
8
0
70
0
10
-10.741670
20
160.457581
30
94.088051
11
-23.732656
21
160.661072
31
93.404343
12
-24.734283
22
151.362030
32
83.498718
13
-10.741670
23
148.395233
33
88.970085
0
3DFACE
8
0
70
0
10
-10.741670
20
178.224792
30
85.208443
11
-10.741670
21
175.914001
31
80.165169
12
-22.208130
22
178.701355
32
74.245682
13
-19.771704
23
179.638855
33
82.459877
0
3DFACE
8
0
70
0
10
-34.469074
20
179.901123
30
82.342766
11
-19.771704
21
179.638855
31
82.459877
12
-22.208130
22
178.701355
32
74.245682
13
-36.835266
23
181.321747
33
68.342545
0
POINT
8
0
70
0
10
-62.341232
20
161.557098
30
66.229271
0
3DFACE
8
0
70
0
10
-23.732656
20
160.661072
30
93.404343
11
-41.946278
21
162.852386
31
84.736778
12
-43.943275
22
158.495789
32
74.651894
13
-24.734283
23
151.362030
33
83.498718
0
3DFACE
8
0
70
0
10
-41.946278
20
162.852386
30
84.736778
11
-34.469074
21
179.901123
31
82.342766
12
-62.341232
22
161.557098
32
66.229271
13
-62.341232
23
161.557098
33
66.229271
0
3DFACE
8
0
70
0
10
-34.469074
20
179.901123
30
82.342766
11
-36.835266
21
181.321747
31
68.342545
12
-62.341232
22
161.557098
32
66.229271
13
-62.341232
23
161.557098
33
66.229271
0
3DFACE
8
0
70
0
10
-62.341232
20
161.557098
30
66.229271
11
-36.835266
21
181.321747
31
68.342545
12
-43.943275
22
158.495789
32
74.651894
13
-43.943275
23
158.495789
33
74.651894
0
3DFACE
8
0
70
0
10
-43.943275
20
158.495789
30
74.651894
11
-41.946278
21
162.852386
31
84.736778
12
-62.341232
22
161.557098
32
66.229271
13
-62.341232
23
161.557098
33
66.229271
0
3DFACE
8
0
70
0
10
-68.682381
20
225.690613
30
47.642975
11
-73.255798
21
219.251282
31
10.341172
12
-69.950256
22
217.588135
32
11.147222
13
-56.516846
23
220.752625
33
48.063480
0
3DFACE
8
0
70
0
10
-56.516846
20
220.752625
30
48.063480
11
-69.950256
21
217.588135
31
11.147222
12
-71.454666
22
210.234863
32
12.196297
13
-54.544094
23
211.050964
33
48.390137
0
3DFACE
8
0
70
0
10
-54.544094
20
211.050964
30
48.390137
11
-71.454666
21
210.234863
31
12.196297
12
-71.476448
22
197.040894
32
14.375229
13
-56.985863
23
197.951843
33
48.238960
0
3DFACE
8
0
70
0
10
-73.255798
20
219.251282
30
10.341172
11
-55.746185
21
214.244049
31
-15.472691
12
-53.160057
22
215.292908
32
-15.165787
13
-69.950256
23
217.588135
33
11.147222
0
3DFACE
8
0
70
0
10
-71.454666
20
210.234863
30
12.196297
11
-69.950256
21
217.588135
31
11.147222
12
-53.160057
22
215.292908
32
-15.165787
13
-55.472420
23
213.914246
33
-17.593344
0
3DFACE
8
0
70
0
10
-71.476448
20
197.040894
30
14.375229
11
-71.454666
21
210.234863
31
12.196297
12
-55.472420
22
213.914246
32
-17.593344
13
-52.727642
23
202.217163
33
-19.077074
0
3DFACE
8
0
70
0
10
-55.746185
20
214.244049
30
-15.472691
11
-10.741670
21
212.236023
31
-35.140625
12
-10.741669
22
215.066345
32
-32.325188
13
-53.160057
23
215.292908
33
-15.165787
0
3DFACE
8
0
70
0
10
-55.472420
20
213.914246
30
-17.593344
11
-53.160057
21
215.292908
31
-15.165787
12
-10.741669
22
215.066345
32
-32.325188
13
-10.741669
23
213.840027
33
-32.670982
0
3DFACE
8
0
70
0
10
-52.727642
20
202.217163
30
-19.077074
11
-55.472420
21
213.914246
31
-17.593344
12
-10.741669
22
213.840027
32
-32.670982
13
-10.741665
23
199.963867
33
-31.211660
0
3DFACE
8
0
70
0
10
-64.711555
20
158.875000
30
19.847029
11
-65.380905
21
166.240479
31
51.031166
12
-61.657681
22
177.498535
32
47.860886
13
-71.040092
23
175.486633
33
15.737916
0
3DFACE
8
0
70
0
10
-56.985863
20
197.951843
30
48.238960
11
-71.476448
21
197.040894
31
14.375229
12
-60.051937
22
188.428467
32
47.682182
13
-60.051937
23
188.428467
33
47.682182
0
3DFACE
8
0
70
0
10
-61.657681
20
177.498535
30
47.860886
11
-60.051937
21
188.428467
31
47.682182
12
-71.476448
22
197.040894
32
14.375229
13
-71.040092
23
175.486633
33
15.737916
0
3DFACE
8
0
70
0
10
-71.040092
20
175.486633
30
15.737916
11
-71.476448
21
197.040894
31
14.375229
12
-52.727642
22
202.217163
32
-19.077074
13
-51.934925
23
184.229492
33
-16.166227
0
3DFACE
8
0
70
0
10
-51.934925
20
184.229492
30
-16.166227
11
-52.727642
21
202.217163
31
-19.077074
12
-10.741665
22
199.963867
32
-31.211660
13
-10.741665
23
182.603790
33
-26.780502
0
3DFACE
8
0
70
0
10
-10.741670
20
232.179382
30
81.541481
11
-10.741670
21
261.037109
31
79.224953
12
-30.141268
22
261.785278
32
73.109451
13
-27.784441
23
240.508331
33
77.317467
0
3DFACE
8
0
70
0
10
-10.741670
20
261.037109
30
79.224953
11
-10.741670
21
264.373993
31
75.631798
12
-30.529932
22
264.042755
32
68.204117
13
-30.141268
23
261.785278
33
73.109451
0
3DFACE
8
0
70
0
10
-27.784441
20
240.508331
30
77.317467
11
-30.141268
21
261.785278
31
73.109451
12
-56.632591
22
259.720184
32
59.950512
13
-42.725178
23
232.262573
33
66.203026
0
3DFACE
8
0
70
0
10
-30.141268
20
261.785278
30
73.109451
11
-30.529932
21
264.042755
31
68.204117
12
-55.390240
22
262.399323
32
55.338871
13
-56.632591
23
259.720184
33
59.950512
0
3DFACE
8
0
70
0
10
-42.725178
20
232.262573
30
66.203026
11
-56.632591
21
259.720184
31
59.950512
12
-72.729446
22
251.645508
32
29.301634
13
-68.682381
23
225.690613
33
47.642975
0
3DFACE
8
0
70
0
10
-56.632591
20
259.720184
30
59.950512
11
-55.390240
21
262.399323
31
55.338871
12
-64.430771
22
255.701813
32
27.891684
13
-72.729446
23
251.645508
33
29.301634
0
3DFACE
8
0
70
0
10
-68.682381
20
225.690613
30
47.642975
11
-72.729446
21
251.645508
31
29.301634
12
-77.255135
22
249.634491
32
3.499886
13
-73.255798
23
219.251282
33
10.341172
0
3DFACE
8
0
70
0
10
-72.729446
20
251.645508
30
29.301634
11
-64.430771
21
255.701813
31
27.891684
12
-70.700706
22
252.387360
32
4.923486
13
-77.255135
23
249.634491
33
3.499886
0
3DFACE
8
0
70
0
10
-73.255798
20
219.251282
30
10.341172
11
-77.255135
21
249.634491
31
3.499886
12
-56.641514
22
241.857117
32
-19.249321
13
-55.746185
23
214.244049
33
-15.472691
0
3DFACE
8
0
70
0
10
-77.255135
20
249.634491
30
3.499886
11
-70.700706
21
252.387360
31
4.923486
12
-51.112797
22
246.308228
32
-15.815496
13
-56.641514
23
241.857117
33
-19.249321
0
3DFACE
8
0
70
0
10
-55.746185
20
214.244049
30
-15.472691
11
-56.641514
21
241.857117
31
-19.249321
12
-10.741670
22
237.744263
32
-39.003441
13
-10.741670
23
212.236023
33
-35.140625
0
3DFACE
8
0
70
0
10
-56.641514
20
241.857117
30
-19.249321
11
-51.112797
21
246.308228
31
-15.815496
12
-10.741670
22
241.742920
32
-34.783913
13
-10.741670
23
237.744263
33
-39.003441
0
3DFACE
8
0
70
0
10
-64.711555
20
158.875000
30
19.847029
11
-71.040092
21
175.486633
31
15.737916
12
-51.934925
22
184.229492
32
-16.166227
13
-42.829266
23
160.900909
33
20.687689
0
3DFACE
8
0
70
0
10
-42.829266
20
160.900909
30
20.687689
11
-51.934925
21
184.229492
31
-16.166227
12
-10.741665
22
182.603790
32
-26.780502
13
-4.404254
23
168.223602
33
0.112183
0
3DFACE
8
0
70
0
10
-54.633488
20
129.227539
30
35.841454
11
-64.711555
21
158.875000
31
19.847029
12
-42.829266
22
160.900909
32
20.687689
13
-37.376175
23
139.164551
33
44.676540
0
3DFACE
8
0
70
0
10
-31.101704
20
103.226013
30
67.593369
11
-54.633488
21
129.227539
31
35.841454
12
-37.376175
22
139.164551
32
44.676540
13
-28.682758
23
103.918289
33
51.686684
0
3DFACE
8
0
70
0
10
-28.682758
20
103.918289
30
51.686684
11
-37.376175
21
139.164551
31
44.676540
12
-10.741670
22
124.320831
32
25.743534
13
-10.741670
23
102.284149
33
47.390610
0
3DFACE
8
0
70
0
10
-10.741670
20
90.708847
30
70.835304
11
-28.682758
21
103.918289
31
51.686684
12
-10.741670
22
102.284149
32
47.390610
13
-10.741670
23
102.284149
33
47.390610
0
3DFACE
8
0
70
0
10
-10.741670
20
90.708847
30
70.835304
11
-31.101704
21
103.226013
31
67.593369
12
-28.682758
22
103.918289
32
51.686684
13
-28.682758
23
103.918289
33
51.686684
0
3DFACE
8
0
70
0
10
-14.326725
20
213.400452
30
76.674065
11
-10.741670
21
213.153046
31
79.878464
12
-10.741670
22
225.571045
32
78.817780
13
-14.326725
23
222.517731
33
75.829865
0
3DFACE
8
0
70
0
10
-25.575241
20
211.396515
30
72.374306
11
-25.542349
21
209.209473
31
74.570137
12
-10.741670
22
213.153046
32
79.878464
13
-14.326725
23
213.400452
33
76.674065
0
3DFACE
8
0
70
0
10
-26.474598
20
230.889648
30
74.203835
11
-14.326725
21
222.517731
31
75.829865
12
-10.741670
22
225.571045
32
78.817780
13
-26.215750
23
233.862183
33
76.666641
0
3DFACE
8
0
70
0
10
-25.575241
20
211.396515
30
72.374306
11
-34.664730
21
212.331055
31
67.282082
12
-37.502201
22
210.490356
32
68.283424
13
-25.542349
23
209.209473
33
74.570137
0
3DFACE
8
0
70
0
10
-34.664730
20
212.331055
30
67.282082
11
-38.411732
21
222.520935
31
64.388260
12
-42.432468
22
225.329224
32
64.703041
13
-37.502201
23
210.490356
33
68.283424
0
3DFACE
8
0
70
0
10
-26.474598
20
230.889648
30
74.203835
11
-26.215750
21
233.862183
31
76.666641
12
-42.432468
22
225.329224
32
64.703041
13
-38.411732
23
222.520935
33
64.388260
0
3DFACE
8
0
70
0
10
5.643003
20
230.194458
30
74.002785
11
5.136131
21
233.055359
31
76.680717
12
-10.741670
22
225.571045
32
78.817780
13
-6.703477
23
222.636993
33
76.010178
0
3DFACE
8
0
70
0
10
4.325990
20
210.784119
30
71.744095
11
-6.703477
21
213.132385
31
77.052422
12
-10.741670
22
213.153046
32
79.878464
13
4.059009
23
209.209473
33
74.570137
0
3DFACE
8
0
70
0
10
-6.703477
20
213.132385
30
77.052422
11
-6.703477
21
222.636993
31
76.010178
12
-10.741670
22
225.571045
32
78.817780
13
-10.741670
23
213.153046
33
79.878464
0
3DFACE
8
0
70
0
10
5.643003
20
230.194458
30
74.002785
11
17.562349
21
222.640381
31
61.884769
12
21.821165
22
225.329224
32
64.703041
13
5.136131
23
233.055359
33
76.680717
0
3DFACE
8
0
70
0
10
13.888314
20
211.780151
30
65.457375
11
16.890900
21
210.490356
31
68.283424
12
21.821165
22
225.329224
32
64.703041
13
17.562349
23
222.640381
33
61.884769
0
3DFACE
8
0
70
0
10
4.325990
20
210.784119
30
71.744095
11
4.059009
21
209.209473
31
74.570137
12
16.890900
22
210.490356
32
68.283424
13
13.888314
23
211.780151
33
65.457375
0
3DFACE
8
0
70
0
10
-4.404254
20
168.223602
30
0.112183
11
32.654797
21
160.900909
31
20.687689
12
66.871765
22
150.604919
32
-3.188866
13
-1.853932
23
168.511414
33
4.810027
0
3DFACE
8
0
70
0
10
-1.853932
20
168.511414
30
4.810027
11
-63.439281
21
150.695923
31
0.418849
12
-42.829266
22
160.900909
32
20.687689
13
-4.404254
23
168.223602
33
0.112183
0
3DFACE
8
0
70
0
10
-63.439281
20
150.695923
30
0.418849
11
-56.614574
21
127.034790
31
58.940086
12
-42.829266
22
160.900909
32
20.687689
13
-42.829266
23
160.900909
33
20.687689
0
3DFACE
8
0
70
0
10
-56.614574
20
127.034790
30
58.940086
11
-37.376175
21
139.164551
31
44.676540
12
-42.829266
22
160.900909
32
20.687689
13
-42.829266
23
160.900909
33
20.687689
0
3DFACE
8
0
70
0
10
52.935226
20
127.034790
30
58.940086
11
32.654797
21
160.900909
31
20.687689
12
24.811283
22
139.164551
32
44.676540
13
24.811283
23
139.164551
33
44.676540
0
3DFACE
8
0
70
0
10
66.871765
20
150.604919
30
-3.188866
11
32.654797
21
160.900909
31
20.687689
12
52.935226
22
127.034790
32
58.940086
13
52.935226
23
127.034790
33
58.940086
0
3DFACE
8
0
70
0
10
-1.823221
20
127.755676
30
66.733101
11
-37.376175
21
139.164551
31
44.676540
12
-56.614574
22
127.034790
32
58.940086
13
-56.614574
23
127.034790
33
58.940086
0
3DFACE
8
0
70
0
10
-10.741670
20
124.320831
30
25.743534
11
-37.376175
21
139.164551
31
44.676540
12
-1.823221
22
127.755676
32
66.733101
13
-1.823221
23
127.755676
33
66.733101
0
3DFACE
8
0
70
0
10
-10.741670
20
124.320831
30
25.743534
11
-1.823221
21
127.755676
31
66.733101
12
24.811283
22
139.164551
32
44.676540
13
24.811283
23
139.164551
33
44.676540
0
3DFACE
8
0
70
0
10
-1.823221
20
127.755676
30
66.733101
11
52.935226
21
127.034790
31
58.940086
12
24.811283
22
139.164551
32
44.676540
13
24.811283
23
139.164551
33
44.676540
0
3DFACE
8
0
70
0
10
-10.741670
20
241.742920
30
-34.783913
11
-10.769670
21
295.187378
31
-8.149174
12
5.200517
22
298.583954
32
-2.540344
13
29.629454
23
246.308228
33
-15.815496
0
3DFACE
8
0
70
0
10
29.629454
20
246.308228
30
-15.815496
11
5.200517
21
298.583954
31
-2.540344
12
15.918186
22
303.625763
32
5.785165
13
49.217373
23
252.387360
33
4.923486
0
3DFACE
8
0
70
0
10
49.217373
20
252.387360
30
4.923486
11
15.918186
21
303.625763
31
5.785165
12
13.465823
22
308.783478
32
14.302112
13
42.947433
23
255.701813
33
27.891684
0
3DFACE
8
0
70
0
10
42.947433
20
255.701813
30
27.891684
11
13.465823
21
308.783478
31
14.302112
12
10.787199
22
315.177490
32
24.860624
13
33.906902
23
262.399323
33
55.338871
0
3DFACE
8
0
70
0
10
-10.741670
20
264.373993
30
75.631798
11
9.046591
21
264.042755
31
68.204117
12
-1.143160
22
318.281891
32
29.986946
13
-10.769667
23
320.093628
33
32.978657
0
3DFACE
8
0
70
0
10
-10.741670
20
241.742920
30
-34.783913
11
-51.112797
21
246.308228
31
-15.815496
12
-26.739857
22
298.583954
32
-2.540346
13
-10.769670
23
295.187378
33
-8.149174
0
3DFACE
8
0
70
0
10
-51.112797
20
246.308228
30
-15.815496
11
-70.700706
21
252.387360
31
4.923486
12
-37.457520
22
303.625763
32
5.785162
13
-26.739857
23
298.583954
33
-2.540346
0
3DFACE
8
0
70
0
10
-70.700706
20
252.387360
30
4.923486
11
-64.430771
21
255.701813
31
27.891684
12
-35.005161
22
308.783478
32
14.302109
13
-37.457520
23
303.625763
33
5.785162
0
3DFACE
8
0
70
0
10
-64.430771
20
255.701813
30
27.891684
11
-55.390240
21
262.399323
31
55.338871
12
-32.326534
22
315.177521
32
24.860622
13
-35.005161
23
308.783478
33
14.302109
0
3DFACE
8
0
70
0
10
-10.741670
20
264.373993
30
75.631798
11
-10.769667
21
320.093628
31
32.978657
12
-20.396173
22
318.281891
32
29.986944
13
-30.529932
23
264.042755
33
68.204117
0
3DFACE
8
0
70
0
10
33.906902
20
262.399323
30
55.338871
11
10.787199
21
315.177490
31
24.860624
12
-1.143160
22
318.281891
32
29.986946
13
9.046591
23
264.042755
33
68.204117
0
3DFACE
8
0
70
0
10
-55.390240
20
262.399323
30
55.338871
11
-30.529932
21
264.042755
31
68.204117
12
-20.396173
22
318.281891
32
29.986944
13
-32.326534
23
315.177521
33
24.860622
0
3DFACE
8
0
70
0
10
-10.811509
20
348.391785
30
-30.998835
11
2.797415
21
345.704102
31
-40.191803
12
-10.811506
22
348.561066
32
-47.087708
13
-10.811506
23
348.561066
33
-47.087708
0
3DFACE
8
0
70
0
10
2.797412
20
339.990234
30
-26.400112
11
2.797415
21
345.704102
31
-40.191803
12
-10.811509
22
348.391785
32
-30.998835
13
-10.811509
23
348.391785
33
-30.998835
0
3DFACE
8
0
70
0
10
-10.811513
20
337.133301
30
-19.504269
11
2.797412
21
339.990234
31
-26.400112
12
-10.811509
22
348.391785
32
-30.998835
13
-10.811509
23
348.391785
33
-30.998835
0
3DFACE
8
0
70
0
10
-10.811513
20
337.133301
30
-19.504269
11
-10.811509
21
348.391785
31
-30.998835
12
-24.420401
22
339.990234
32
-26.400116
13
-24.420401
23
339.990234
33
-26.400116
0
3DFACE
8
0
70
0
10
-24.420401
20
339.990234
30
-26.400116
11
-10.811509
21
348.391785
31
-30.998835
12
-24.420399
22
345.704102
32
-40.191807
13
-24.420399
23
345.704102
33
-40.191807
0
3DFACE
8
0
70
0
10
-10.811509
20
348.391785
30
-30.998835
11
-10.811506
21
348.561066
31
-47.087708
12
-24.420399
22
345.704102
32
-40.191807
13
-24.420399
23
345.704102
33
-40.191807
0
3DFACE
8
0
70
0
10
2.797415
20
345.704102
30
-40.191803
11
8.434388
21
333.501648
31
-48.593964
12
-10.811504
22
337.541962
32
-58.346176
13
-10.811506
23
348.561066
33
-47.087708
0
3DFACE
8
0
70
0
10
8.434383
20
325.420959
30
-29.089493
11
8.434388
21
333.501648
31
-48.593964
12
2.797415
22
345.704102
32
-40.191803
13
2.797412
23
339.990234
33
-26.400112
0
3DFACE
8
0
70
0
10
-10.811513
20
321.380646
30
-19.337317
11
8.434383
21
325.420959
31
-29.089493
12
2.797412
22
339.990234
32
-26.400112
13
-10.811513
23
337.133301
33
-19.504269
0
3DFACE
8
0
70
0
10
-10.811513
20
321.380646
30
-19.337317
11
-10.811513
21
337.133301
31
-19.504269
12
-24.420401
22
339.990234
32
-26.400116
13
-30.057409
23
325.420990
33
-29.089497
0
3DFACE
8
0
70
0
10
-30.057409
20
325.420990
30
-29.089497
11
-24.420401
21
339.990234
31
-26.400116
12
-24.420399
22
345.704102
32
-40.191807
13
-30.057404
23
333.501648
33
-48.593967
0
3DFACE
8
0
70
0
10
-24.420399
20
345.704102
30
-40.191807
11
-10.811506
21
348.561066
31
-47.087708
12
-10.811504
22
337.541962
32
-58.346176
13
-30.057404
23
333.501648
33
-48.593967
0
3DFACE
8
0
70
0
10
2.797415
20
318.932373
30
-51.283291
11
-10.811504
21
321.789337
31
-58.179195
12
-10.811504
22
337.541962
32
-58.346176
13
8.434388
23
333.501648
33
-48.593964
0
3DFACE
8
0
70
0
10
8.434383
20
325.420959
30
-29.089493
11
2.797412
21
313.218475
31
-37.491600
12
2.797415
22
318.932373
32
-51.283291
13
8.434388
23
333.501648
33
-48.593964
0
3DFACE
8
0
70
0
10
-10.811513
20
321.380646
30
-19.337317
11
-10.811510
21
310.361542
31
-30.595757
12
2.797412
22
313.218475
32
-37.491600
13
8.434383
23
325.420959
33
-29.089493
0
3DFACE
8
0
70
0
10
-10.811513
20
321.380646
30
-19.337317
11
-30.057409
21
325.420990
31
-29.089497
12
-24.420401
22
313.218506
32
-37.491604
13
-10.811510
23
310.361542
33
-30.595757
0
3DFACE
8
0
70
0
10
-30.057409
20
325.420990
30
-29.089497
11
-30.057404
21
333.501648
31
-48.593967
12
-24.420397
22
318.932373
32
-51.283295
13
-24.420401
23
313.218506
33
-37.491604
0
3DFACE
8
0
70
0
10
-24.420397
20
318.932373
30
-51.283295
11
-30.057404
21
333.501648
31
-48.593967
12
-10.811504
22
337.541962
32
-58.346176
13
-10.811504
23
321.789337
33
-58.179195
0
3DFACE
8
0
70
0
10
-10.811516
20
310.530823
30
-46.684574
11
-10.811504
21
321.789337
31
-58.179195
12
2.797415
22
318.932373
32
-51.283291
13
2.797415
23
318.932373
33
-51.283291
0
3DFACE
8
0
70
0
10
2.797412
20
313.218475
30
-37.491600
11
-10.811516
21
310.530823
31
-46.684574
12
2.797415
22
318.932373
32
-51.283291
13
2.797415
23
318.932373
33
-51.283291
0
3DFACE
8
0
70
0
10
-10.811510
20
310.361542
30
-30.595757
11
-10.811516
21
310.530823
31
-46.684574
12
2.797412
22
313.218475
32
-37.491600
13
2.797412
23
313.218475
33
-37.491600
0
3DFACE
8
0
70
0
10
-10.811510
20
310.361542
30
-30.595757
11
-24.420401
21
313.218506
31
-37.491604
12
-10.811516
22
310.530823
32
-46.684574
13
-10.811516
23
310.530823
33
-46.684574
0
3DFACE
8
0
70
0
10
-24.420401
20
313.218506
30
-37.491604
11
-24.420397
21
318.932373
31
-51.283295
12
-10.811516
22
310.530823
32
-46.684574
13
-10.811516
23
310.530823
33
-46.684574
0
3DFACE
8
0
70
0
10
-10.811516
20
310.530823
30
-46.684574
11
-24.420397
21
318.932373
31
-51.283295
12
-10.811504
22
321.789337
32
-58.179195
13
-10.811504
23
321.789337
33
-58.179195
0
3DFACE
8
0
70
0
10
15.351926
20
181.321747
30
68.342545
11
38.568600
21
188.428467
31
47.682182
12
26.848547
22
197.135071
32
71.459976
13
26.848547
23
197.135071
33
71.459976
0
3DFACE
8
0
70
0
10
38.568600
20
188.428467
30
47.682182
11
35.502525
21
197.951843
31
48.238960
12
26.848547
22
197.135071
32
71.459976
13
26.848547
23
197.135071
33
71.459976
0
3DFACE
8
0
70
0
10
0.724791
20
178.701355
30
74.245682
11
15.351926
21
181.321747
31
68.342545
12
12.216786
22
197.288452
32
74.494408
13
12.216786
23
197.288452
33
74.494408
0
3DFACE
8
0
70
0
10
15.351926
20
181.321747
30
68.342545
11
26.848547
21
197.135071
31
71.459976
12
12.216786
22
197.288452
32
74.494408
13
12.216786
23
197.288452
33
74.494408
0
3DFACE
8
0
70
0
10
26.848547
20
197.135071
30
71.459976
11
35.502525
21
197.951843
31
48.238960
12
16.890900
22
210.490356
32
68.283424
13
16.890900
23
210.490356
33
68.283424
0
3DFACE
8
0
70
0
10
35.502525
20
197.951843
30
48.238960
11
33.060749
21
211.050964
31
48.390137
12
16.890900
22
210.490356
32
68.283424
13
16.890900
23
210.490356
33
68.283424
0
3DFACE
8
0
70
0
10
12.216786
20
197.288452
30
74.494408
11
16.890900
21
210.490356
31
68.283424
12
4.059009
22
209.209473
32
74.570137
13
4.059009
23
209.209473
33
74.570137
0
3DFACE
8
0
70
0
10
26.848547
20
197.135071
30
71.459976
11
16.890900
21
210.490356
31
68.283424
12
12.216786
22
197.288452
32
74.494408
13
12.216786
23
197.288452
33
74.494408
0
3DFACE
8
0
70
0
10
16.890900
20
210.490356
30
68.283424
11
33.060749
21
211.050964
31
48.390137
12
21.821165
22
225.329224
32
64.703041
13
21.821165
23
225.329224
33
64.703041
0
3DFACE
8
0
70
0
10
33.060749
20
211.050964
30
48.390137
11
35.033504
21
220.752625
31
48.063480
12
21.821165
22
225.329224
32
64.703041
13
21.821165
23
225.329224
33
64.703041
0
3DFACE
8
0
70
0
10
-60.051937
20
188.428467
30
47.682182
11
-48.331886
21
197.135071
31
71.459976
12
-56.985863
22
197.951843
32
48.238960
13
-56.985863
23
197.951843
33
48.238960
0
3DFACE
8
0
70
0
10
-36.835266
20
181.321747
30
68.342545
11
-48.331886
21
197.135071
31
71.459976
12
-60.051937
22
188.428467
32
47.682182
13
-60.051937
23
188.428467
33
47.682182
0
3DFACE
8
0
70
0
10
-36.835266
20
181.321747
30
68.342545
11
-33.700127
21
197.288452
31
74.494408
12
-48.331886
22
197.135071
32
71.459976
13
-48.331886
23
197.135071
33
71.459976
0
3DFACE
8
0
70
0
10
-22.208130
20
178.701355
30
74.245682
11
-33.700127
21
197.288452
31
74.494408
12
-36.835266
22
181.321747
32
68.342545
13
-36.835266
23
181.321747
33
68.342545
0
3DFACE
8
0
70
0
10
-56.985863
20
197.951843
30
48.238960
11
-37.502201
21
210.490356
31
68.283424
12
-54.544094
22
211.050964
32
48.390137
13
-54.544094
23
211.050964
33
48.390137
0
3DFACE
8
0
70
0
10
-48.331886
20
197.135071
30
71.459976
11
-37.502201
21
210.490356
31
68.283424
12
-56.985863
22
197.951843
32
48.238960
13
-56.985863
23
197.951843
33
48.238960
0
3DFACE
8
0
70
0
10
-33.700127
20
197.288452
30
74.494408
11
-25.542349
21
209.209473
31
74.570137
12
-37.502201
22
210.490356
32
68.283424
13
-37.502201
23
210.490356
33
68.283424
0
3DFACE
8
0
70
0
10
-48.331886
20
197.135071
30
71.459976
11
-33.700127
21
197.288452
31
74.494408
12
-37.502201
22
210.490356
32
68.283424
13
-37.502201
23
210.490356
33
68.283424
0
3DFACE
8
0
70
0
10
-54.544094
20
211.050964
30
48.390137
11
-42.432468
21
225.329224
31
64.703041
12
-56.516846
22
220.752625
32
48.063480
13
-56.516846
23
220.752625
33
48.063480
0
3DFACE
8
0
70
0
10
-37.502201
20
210.490356
30
68.283424
11
-42.432468
21
225.329224
31
64.703041
12
-54.544094
22
211.050964
32
48.390137
13
-54.544094
23
211.050964
33
48.390137
0
3DFACE
8
0
70
0
10
25.254187
20
-72.343391
30
30.374340
11
23.738422
21
-51.865540
31
18.971907
12
19.900646
22
-52.267120
32
-8.562308
13
19.900646
23
-52.267120
33
-8.562308
0
3DFACE
8
0
70
0
10
25.254187
20
-72.343391
30
30.374340
11
19.900646
21
-52.267120
31
-8.562308
12
21.108490
22
-75.569572
32
5.070263
13
21.108490
23
-75.569572
33
5.070263
0
3DFACE
8
0
70
0
10
25.254187
20
-72.343391
30
30.374340
11
66.614548
21
-51.244736
31
16.240328
12
23.738422
22
-51.865540
32
18.971907
13
23.738422
23
-51.865540
33
18.971907
0
3DFACE
8
0
70
0
10
25.254187
20
-72.343391
30
30.374340
11
62.096695
21
-72.112701
31
27.481081
12
66.614548
22
-51.244736
32
16.240328
13
66.614548
23
-51.244736
33
16.240328
0
3DFACE
8
0
70
0
10
62.096695
20
-72.112701
30
27.481081
11
79.626053
21
-51.235367
31
1.038752
12
66.614548
22
-51.244736
32
16.240328
13
66.614548
23
-51.244736
33
16.240328
0
3DFACE
8
0
70
0
10
62.096695
20
-72.112701
30
27.481081
11
73.421989
21
-73.680153
31
13.470525
12
79.626053
22
-51.235367
32
1.038752
13
79.626053
23
-51.235367
33
1.038752
0
3DFACE
8
0
70
0
10
32.748611
20
-78.358200
30
-18.760855
11
19.900646
21
-52.267120
31
-8.562308
12
31.836740
22
-52.410660
32
-34.720875
13
31.836740
23
-52.410660
33
-34.720875
0
3DFACE
8
0
70
0
10
21.108490
20
-75.569572
30
5.070263
11
19.900646
21
-52.267120
31
-8.562308
12
32.748611
22
-78.358200
32
-18.760855
13
32.748611
23
-78.358200
33
-18.760855
0
3DFACE
8
0
70
0
10
66.968071
20
-76.022331
30
-4.456797
11
71.878456
21
-51.599060
31
-18.659981
12
79.626053
22
-51.235367
32
1.038752
13
79.626053
23
-51.235367
33
1.038752
0
3DFACE
8
0
70
0
10
73.421989
20
-73.680153
30
13.470525
11
66.968071
21
-76.022331
31
-4.456797
12
79.626053
22
-51.235367
32
1.038752
13
79.626053
23
-51.235367
33
1.038752
0
3DFACE
8
0
70
0
10
32.748611
20
-78.358200
30
-18.760855
11
31.836740
21
-52.410660
31
-34.720875
12
71.878456
22
-51.599060
32
-18.659981
13
71.878456
23
-51.599060
33
-18.659981
0
3DFACE
8
0
70
0
10
66.968071
20
-76.022331
30
-4.456797
11
32.748611
21
-78.358200
31
-18.760855
12
71.878456
22
-51.599060
32
-18.659981
13
71.878456
23
-51.599060
33
-18.659981
0
3DFACE
8
0
70
0
10
-45.335491
20
-71.400436
30
41.105690
11
-33.395943
21
-76.884720
31
18.771620
12
-25.970642
22
-60.331970
32
0.393621
13
-25.970642
23
-60.331970
33
0.393621
0
3DFACE
8
0
70
0
10
-45.335491
20
-71.400436
30
41.105690
11
-25.970642
21
-60.331970
31
0.393621
12
-38.140423
22
-51.300674
32
24.617615
13
-38.140423
23
-51.300674
33
24.617615
0
3DFACE
8
0
70
0
10
-45.335491
20
-71.400436
30
41.105690
11
-38.140423
21
-51.300674
31
24.617615
12
-77.755760
22
-53.208374
32
7.441330
13
-77.755760
23
-53.208374
33
7.441330
0
3DFACE
8
0
70
0
10
-45.335491
20
-71.400436
30
41.105690
11
-77.755760
21
-53.208374
31
7.441330
12
-79.188728
22
-72.929459
32
25.810614
13
-79.188728
23
-72.929459
33
25.810614
0
3DFACE
8
0
70
0
10
-79.188728
20
-72.929459
30
25.810614
11
-77.755760
21
-53.208374
31
7.441330
12
-85.315765
22
-58.548416
32
-11.099999
13
-85.315765
23
-58.548416
33
-11.099999
0
3DFACE
8
0
70
0
10
-79.188728
20
-72.929459
30
25.810614
11
-85.315765
21
-58.548416
31
-11.099999
12
-85.432838
22
-76.295258
32
8.793838
13
-85.432838
23
-76.295258
33
8.793838
0
3DFACE
8
0
70
0
10
-36.821899
20
-82.425476
30
-7.569911
11
-29.114162
21
-69.276497
31
-27.941725
12
-25.970642
22
-60.331970
32
0.393621
13
-25.970642
23
-60.331970
33
0.393621
0
3DFACE
8
0
70
0
10
-33.395943
20
-76.884720
30
18.771620
11
-36.821899
21
-82.425476
31
-7.569911
12
-25.970642
22
-60.331970
32
0.393621
13
-25.970642
23
-60.331970
33
0.393621
0
3DFACE
8
0
70
0
10
-85.432838
20
-76.295258
30
8.793838
11
-85.315765
21
-58.548416
31
-11.099999
12
-73.654900
22
-80.095741
32
-5.828529
13
-73.654900
23
-80.095741
33
-5.828529
0
3DFACE
8
0
70
0
10
-73.654900
20
-80.095741
30
-5.828529
11
-85.315765
21
-58.548416
31
-11.099999
12
-71.888695
22
-64.892662
32
-26.722240
13
-71.888695
23
-64.892662
33
-26.722240
0
3DFACE
8
0
70
0
10
-73.654900
20
-80.095741
30
-5.828529
11
-71.888695
21
-64.892662
31
-26.722240
12
-36.821899
22
-82.425476
32
-7.569911
13
-36.821899
23
-82.425476
33
-7.569911
0
3DFACE
8
0
70
0
10
-36.821899
20
-82.425476
30
-7.569911
11
-71.888695
21
-64.892662
31
-26.722240
12
-29.114162
22
-69.276497
32
-27.941725
13
-29.114162
23
-69.276497
33
-27.941725
0
3DFACE
8
0
70
0
10
29.549082
20
-94.851952
30
17.025692
11
25.254187
21
-72.343391
31
30.374340
12
21.108490
22
-75.569572
32
5.070263
13
21.108490
23
-75.569572
33
5.070263
0
3DFACE
8
0
70
0
10
26.212158
20
-125.356667
30
-8.806232
11
29.549082
21
-94.851952
31
17.025692
12
21.108490
22
-75.569572
32
5.070263
13
21.108490
23
-75.569572
33
5.070263
0
3DFACE
8
0
70
0
10
64.838005
20
-100.392212
30
12.064305
11
62.096695
21
-72.112701
31
27.481081
12
29.549082
22
-94.851952
32
17.025692
13
29.549082
23
-94.851952
33
17.025692
0
3DFACE
8
0
70
0
10
29.549082
20
-94.851952
30
17.025692
11
62.096695
21
-72.112701
31
27.481081
12
25.254187
22
-72.343391
32
30.374340
13
25.254187
23
-72.343391
33
30.374340
0
3DFACE
8
0
70
0
10
75.611198
20
-123.208061
30
-2.536665
11
73.421989
21
-73.680153
31
13.470525
12
64.838005
22
-100.392212
32
12.064305
13
64.838005
23
-100.392212
33
12.064305
0
3DFACE
8
0
70
0
10
64.838005
20
-100.392212
30
12.064305
11
73.421989
21
-73.680153
31
13.470525
12
62.096695
22
-72.112701
32
27.481081
13
62.096695
23
-72.112701
33
27.481081
0
3DFACE
8
0
70
0
10
26.212158
20
-125.356667
30
-8.806232
11
21.108490
21
-75.569572
31
5.070263
12
32.748611
22
-78.358200
32
-18.760855
13
32.748611
23
-78.358200
33
-18.760855
0
3DFACE
8
0
70
0
10
13.641159
20
-158.126022
30
-37.422279
11
26.212158
21
-125.356667
31
-8.806232
12
32.748611
22
-78.358200
32
-18.760855
13
32.748611
23
-78.358200
33
-18.760855
0
3DFACE
8
0
70
0
10
86.245041
20
-153.576706
30
-26.407475
11
66.968071
21
-76.022331
31
-4.456797
12
75.611198
22
-123.208061
32
-2.536665
13
75.611198
23
-123.208061
33
-2.536665
0
3DFACE
8
0
70
0
10
75.611198
20
-123.208061
30
-2.536665
11
66.968071
21
-76.022331
31
-4.456797
12
73.421989
22
-73.680153
32
13.470525
13
73.421989
23
-73.680153
33
13.470525
0
3DFACE
8
0
70
0
10
13.641159
20
-158.126022
30
-37.422279
11
32.748611
21
-78.358200
31
-18.760855
12
86.245041
22
-153.576706
32
-26.407475
13
86.245041
23
-153.576706
33
-26.407475
0
3DFACE
8
0
70
0
10
86.245041
20
-153.576706
30
-26.407475
11
32.748611
21
-78.358200
31
-18.760855
12
66.968071
22
-76.022331
32
-4.456797
13
66.968071
23
-76.022331
33
-4.456797
0
3DFACE
8
0
70
0
10
-31.349045
20
-124.711548
30
-2.459358
11
-33.395943
21
-76.884720
31
18.771620
12
-41.921429
22
-96.776314
32
23.799505
13
-41.921429
23
-96.776314
33
23.799505
0
3DFACE
8
0
70
0
10
-41.921429
20
-96.776314
30
23.799505
11
-33.395943
21
-76.884720
31
18.771620
12
-45.335491
22
-71.400436
32
41.105690
13
-45.335491
23
-71.400436
33
41.105690
0
3DFACE
8
0
70
0
10
-41.921429
20
-96.776314
30
23.799505
11
-45.335491
21
-71.400436
31
41.105690
12
-79.188728
22
-72.929459
32
25.810614
13
-79.188728
23
-72.929459
33
25.810614
0
3DFACE
8
0
70
0
10
-74.505226
20
-103.136452
30
8.933763
11
-41.921429
21
-96.776314
31
23.799505
12
-79.188728
22
-72.929459
32
25.810614
13
-79.188728
23
-72.929459
33
25.810614
0
3DFACE
8
0
70
0
10
-74.505226
20
-103.136452
30
8.933763
11
-79.188728
21
-72.929459
31
25.810614
12
-85.432838
22
-76.295258
32
8.793838
13
-85.432838
23
-76.295258
33
8.793838
0
3DFACE
8
0
70
0
10
-80.583649
20
-124.998306
30
-9.847687
11
-74.505226
21
-103.136452
31
8.933763
12
-85.432838
22
-76.295258
32
8.793838
13
-85.432838
23
-76.295258
33
8.793838
0
3DFACE
8
0
70
0
10
-11.115103
20
-154.303192
30
-29.029596
11
-36.821899
21
-82.425476
31
-7.569911
12
-31.349045
22
-124.711548
32
-2.459358
13
-31.349045
23
-124.711548
33
-2.459358
0
3DFACE
8
0
70
0
10
-31.349045
20
-124.711548
30
-2.459358
11
-36.821899
21
-82.425476
31
-7.569911
12
-33.395943
22
-76.884720
32
18.771620
13
-33.395943
23
-76.884720
33
18.771620
0
3DFACE
8
0
70
0
10
-80.583649
20
-124.998306
30
-9.847687
11
-85.432838
21
-76.295258
31
8.793838
12
-73.654900
22
-80.095741
32
-5.828529
13
-73.654900
23
-80.095741
33
-5.828529
0
3DFACE
8
0
70
0
10
-83.971794
20
-153.508377
30
-38.056675
11
-80.583649
21
-124.998306
31
-9.847687
12
-73.654900
22
-80.095741
32
-5.828529
13
-73.654900
23
-80.095741
33
-5.828529
0
3DFACE
8
0
70
0
10
-83.971794
20
-153.508377
30
-38.056675
11
-73.654900
21
-80.095741
31
-5.828529
12
-36.821899
22
-82.425476
32
-7.569911
13
-36.821899
23
-82.425476
33
-7.569911
0
3DFACE
8
0
70
0
10
-11.115103
20
-154.303192
30
-29.029596
11
-83.971794
21
-153.508377
31
-38.056675
12
-36.821899
22
-82.425476
32
-7.569911
13
-36.821899
23
-82.425476
33
-7.569911
0
3DFACE
8
0
70
0
10
88.198860
20
41.355011
30
81.766670
11
-3.648113
21
47.169098
31
116.353989
12
-13.852106
22
28.741089
32
104.393379
13
-13.852106
23
28.741089
33
104.393379
0
3DFACE
8
0
70
0
10
88.198860
20
41.355011
30
81.766670
11
98.309906
21
62.602859
31
87.375015
12
-3.648113
22
47.169098
32
116.353989
13
-3.648113
23
47.169098
33
116.353989
0
3DFACE
8
0
70
0
10
97.896698
20
33.653580
30
-72.448318
11
-0.656969
21
18.279831
31
-109.970428
12
-2.148723
22
51.028564
32
-102.080742
13
-2.148723
23
51.028564
33
-102.080742
0
3DFACE
8
0
70
0
10
97.896698
20
33.653580
30
-72.448318
11
-2.148723
21
51.028564
31
-102.080742
12
99.519409
22
54.322800
32
-66.806610
13
99.519409
23
54.322800
33
-66.806610
0
3DFACE
8
0
70
0
10
88.198860
20
41.355011
30
81.766670
11
123.553909
21
58.431244
31
1.900552
12
98.309906
22
62.602859
32
87.375015
13
98.309906
23
62.602859
33
87.375015
0
3DFACE
8
0
70
0
10
88.198860
20
41.355011
30
81.766670
11
117.066902
21
41.025024
31
8.539047
12
123.553909
22
58.431244
32
1.900552
13
123.553909
23
58.431244
33
1.900552
0
3DFACE
8
0
70
0
10
117.066902
20
41.025024
30
8.539047
11
97.896698
21
33.653580
31
-72.448318
12
99.519409
22
54.322800
32
-66.806610
13
99.519409
23
54.322800
33
-66.806610
0
3DFACE
8
0
70
0
10
117.066902
20
41.025024
30
8.539047
11
99.519409
21
54.322800
31
-66.806610
12
123.553909
22
58.431244
32
1.900552
13
123.553909
23
58.431244
33
1.900552
0
3DFACE
8
0
70
0
10
-112.108749
20
13.016449
30
66.871201
11
-13.852106
21
28.741089
31
104.393379
12
-3.648113
22
47.169098
32
116.353989
13
-3.648113
23
47.169098
33
116.353989
0
3DFACE
8
0
70
0
10
-112.108749
20
13.016449
30
66.871201
11
-3.648113
21
47.169098
31
116.353989
12
-105.555794
22
59.028656
32
85.496323
13
-105.555794
23
59.028656
33
85.496323
0
3DFACE
8
0
70
0
10
-102.410912
20
5.315018
30
-87.343788
11
-2.148723
21
51.028564
31
-102.080742
12
-0.656969
22
18.279831
32
-109.970428
13
-0.656969
23
18.279831
33
-109.970428
0
3DFACE
8
0
70
0
10
-102.410912
20
5.315018
30
-87.343788
11
-104.346291
21
50.748596
31
-68.685295
12
-2.148723
22
51.028564
32
-102.080742
13
-2.148723
23
51.028564
33
-102.080742
0
3DFACE
8
0
70
0
10
-112.108749
20
13.016449
30
66.871201
11
-129.455215
21
53.995438
31
-0.431013
12
-131.541046
22
5.853165
32
-9.948175
13
-131.541046
23
5.853165
33
-9.948175
0
3DFACE
8
0
70
0
10
-112.108749
20
13.016449
30
66.871201
11
-105.555794
21
59.028656
31
85.496323
12
-129.455215
22
53.995438
32
-0.431013
13
-129.455215
23
53.995438
33
-0.431013
0
3DFACE
8
0
70
0
10
-131.541046
20
5.853165
30
-9.948175
11
-129.455215
21
53.995438
31
-0.431013
12
-104.346291
22
50.748596
32
-68.685295
13
-104.346291
23
50.748596
33
-68.685295
0
3DFACE
8
0
70
0
10
-131.541046
20
5.853165
30
-9.948175
11
-104.346291
21
50.748596
31
-68.685295
12
-102.410912
22
5.315018
32
-87.343788
13
-102.410912
23
5.315018
33
-87.343788
0
3DFACE
8
0
70
0
10
-3.648113
20
47.169098
30
116.353989
11
52.935226
21
127.034790
31
58.940086
12
-1.823221
22
127.755676
32
66.733101
13
-1.823221
23
127.755676
33
66.733101
0
3DFACE
8
0
70
0
10
-3.648113
20
47.169098
30
116.353989
11
98.309906
21
62.602859
31
87.375015
12
52.935226
22
127.034790
32
58.940086
13
52.935226
23
127.034790
33
58.940086
0
3DFACE
8
0
70
0
10
99.519409
20
54.322800
30
-66.806610
11
-2.148723
21
51.028564
31
-102.080742
12
53.064346
22
143.219849
32
-36.818665
13
53.064346
23
143.219849
33
-36.818665
0
3DFACE
8
0
70
0
10
-2.148723
20
51.028564
30
-102.080742
11
-1.857344
21
146.153931
31
-46.343319
12
53.064346
22
143.219849
32
-36.818665
13
53.064346
23
143.219849
33
-36.818665
0
3DFACE
8
0
70
0
10
98.309906
20
62.602859
30
87.375015
11
90.698250
21
100.014832
31
9.627931
12
66.681633
22
123.626312
32
23.894472
13
66.681633
23
123.626312
33
23.894472
0
3DFACE
8
0
70
0
10
98.309906
20
62.602859
30
87.375015
11
123.553909
21
58.431244
31
1.900552
12
90.698250
22
100.014832
32
9.627931
13
90.698250
23
100.014832
33
9.627931
0
3DFACE
8
0
70
0
10
99.519409
20
54.322800
30
-66.806610
11
88.150551
21
125.331848
31
-17.096596
12
90.698250
22
100.014832
32
9.627931
13
90.698250
23
100.014832
33
9.627931
0
3DFACE
8
0
70
0
10
123.553909
20
58.431244
30
1.900552
11
99.519409
21
54.322800
31
-66.806610
12
90.698250
22
100.014832
32
9.627931
13
90.698250
23
100.014832
33
9.627931
0
3DFACE
8
0
70
0
10
98.309906
20
62.602859
30
87.375015
11
66.681633
21
123.626312
31
23.894472
12
52.935226
22
127.034790
32
58.940086
13
52.935226
23
127.034790
33
58.940086
0
3DFACE
8
0
70
0
10
99.519409
20
54.322800
30
-66.806610
11
53.064346
21
143.219849
31
-36.818665
12
88.150551
22
125.331848
32
-17.096596
13
88.150551
23
125.331848
33
-17.096596
0
3DFACE
8
0
70
0
10
-3.648113
20
47.169098
30
116.353989
11
-56.614574
21
127.034790
31
58.940086
12
-105.555794
22
59.028656
32
85.496323
13
-105.555794
23
59.028656
33
85.496323
0
3DFACE
8
0
70
0
10
-3.648113
20
47.169098
30
116.353989
11
-1.823221
21
127.755676
31
66.733101
12
-56.614574
22
127.034790
32
58.940086
13
-56.614574
23
127.034790
33
58.940086
0
3DFACE
8
0
70
0
10
-104.346291
20
50.748596
30
-68.685295
11
-56.752666
21
143.219849
31
-36.818665
12
-2.148723
22
51.028564
32
-102.080742
13
-2.148723
23
51.028564
33
-102.080742
0
3DFACE
8
0
70
0
10
-2.148723
20
51.028564
30
-102.080742
11
-56.752666
21
143.219849
31
-36.818665
12
-1.857344
22
146.153931
32
-46.343319
13
-1.857344
23
146.153931
33
-46.343319
0
3DFACE
8
0
70
0
10
-105.555794
20
59.028656
30
85.496323
11
-74.721039
21
128.313477
31
46.289684
12
-101.513649
22
100.760956
32
9.538815
13
-101.513649
23
100.760956
33
9.538815
0
3DFACE
8
0
70
0
10
-105.555794
20
59.028656
30
85.496323
11
-101.513649
21
100.760956
31
9.538815
12
-129.455215
22
53.995438
32
-0.431013
13
-129.455215
23
53.995438
33
-0.431013
0
3DFACE
8
0
70
0
10
-129.455215
20
53.995438
30
-0.431013
11
-101.513649
21
100.760956
31
9.538815
12
-104.346291
22
50.748596
32
-68.685295
13
-104.346291
23
50.748596
33
-68.685295
0
3DFACE
8
0
70
0
10
-104.346291
20
50.748596
30
-68.685295
11
-101.513649
21
100.760956
31
9.538815
12
-86.102997
22
122.769196
32
-29.886133
13
-86.102997
23
122.769196
33
-29.886133
0
3DFACE
8
0
70
0
10
-105.555794
20
59.028656
30
85.496323
11
-56.614574
21
127.034790
31
58.940086
12
-74.721039
22
128.313477
32
46.289684
13
-74.721039
23
128.313477
33
46.289684
0
3DFACE
8
0
70
0
10
-104.346291
20
50.748596
30
-68.685295
11
-86.102997
21
122.769196
31
-29.886133
12
-56.752666
22
143.219849
32
-36.818665
13
-56.752666
23
143.219849
33
-36.818665
0
3DFACE
8
0
70
0
10
90.698250
20
100.014832
30
9.627931
11
5.563601
21
108.888641
31
46.893040
12
66.681633
22
123.626312
32
23.894472
13
66.681633
23
123.626312
33
23.894472
0
3DFACE
8
0
70
0
10
31.376183
20
87.828674
30
74.916290
11
5.563601
21
108.888641
31
46.893040
12
90.698250
22
100.014832
32
9.627931
13
90.698250
23
100.014832
33
9.627931
0
3DFACE
8
0
70
0
10
66.681633
20
123.626312
30
23.894472
11
22.794878
21
144.162872
31
74.633202
12
66.871765
22
150.604919
32
-3.188866
13
66.871765
23
150.604919
33
-3.188866
0
3DFACE
8
0
70
0
10
66.681633
20
123.626312
30
23.894472
11
5.563601
21
108.888641
31
46.893040
12
22.794878
22
144.162872
32
74.633202
13
22.794878
23
144.162872
33
74.633202
0
3DFACE
8
0
70
0
10
88.150551
20
125.331848
30
-17.096596
11
66.871765
21
150.604919
31
-3.188866
12
22.794878
22
144.162872
32
74.633202
13
22.794878
23
144.162872
33
74.633202
0
3DFACE
8
0
70
0
10
88.150551
20
125.331848
30
-17.096596
11
22.794878
21
144.162872
31
74.633202
12
44.948601
22
119.514099
32
97.480499
13
44.948601
23
119.514099
33
97.480499
0
3DFACE
8
0
70
0
10
90.698250
20
100.014832
30
9.627931
11
88.150551
21
125.331848
31
-17.096596
12
44.948601
22
119.514099
32
97.480499
13
44.948601
23
119.514099
33
97.480499
0
3DFACE
8
0
70
0
10
31.376183
20
87.828674
30
74.916290
11
90.698250
21
100.014832
31
9.627931
12
44.948601
22
119.514099
32
97.480499
13
44.948601
23
119.514099
33
97.480499
0
3DFACE
8
0
70
0
10
-101.513649
20
100.760956
30
9.538815
11
-74.721039
21
128.313477
31
46.289684
12
-122.769936
22
120.848724
32
68.016045
13
-122.769936
23
120.848724
33
68.016045
0
3DFACE
8
0
70
0
10
-158.038376
20
91.095490
30
53.683338
11
-101.513649
21
100.760956
31
9.538815
12
-122.769936
22
120.848724
32
68.016045
13
-122.769936
23
120.848724
33
68.016045
0
3DFACE
8
0
70
0
10
-74.721039
20
128.313477
30
46.289684
11
-63.439281
21
150.695923
31
0.418849
12
-164.870880
22
147.571442
32
49.930317
13
-164.870880
23
147.571442
33
49.930317
0
3DFACE
8
0
70
0
10
-74.721039
20
128.313477
30
46.289684
11
-164.870880
21
147.571442
31
49.930317
12
-122.769936
22
120.848724
32
68.016045
13
-122.769936
23
120.848724
33
68.016045
0
3DFACE
8
0
70
0
10
-86.102997
20
122.769196
30
-29.886133
11
-164.870880
21
147.571442
31
49.930317
12
-63.439281
22
150.695923
32
0.418849
13
-63.439281
23
150.695923
33
0.418849
0
3DFACE
8
0
70
0
10
-86.102997
20
122.769196
30
-29.886133
11
-192.667206
21
115.827881
31
38.764294
12
-164.870880
22
147.571442
32
49.930317
13
-164.870880
23
147.571442
33
49.930317
0
3DFACE
8
0
70
0
10
-101.513649
20
100.760956
30
9.538815
11
-192.667206
21
115.827881
31
38.764294
12
-86.102997
22
122.769196
32
-29.886133
13
-86.102997
23
122.769196
33
-29.886133
0
3DFACE
8
0
70
0
10
-158.038376
20
91.095490
30
53.683338
11
-192.667206
21
115.827881
31
38.764294
12
-101.513649
22
100.760956
32
9.538815
13
-101.513649
23
100.760956
33
9.538815
0
3DFACE
8
0
70
0
10
-154.597610
20
90.877747
30
99.538696
11
-158.038376
21
91.095490
31
53.683338
12
-122.769936
22
120.848724
32
68.016045
13
-122.769936
23
120.848724
33
68.016045
0
3DFACE
8
0
70
0
10
-154.597610
20
90.877747
30
99.538696
11
-122.769936
21
120.848724
31
68.016045
12
-119.241219
22
120.329010
32
83.887299
13
-119.241219
23
120.329010
33
83.887299
0
3DFACE
8
0
70
0
10
-119.241219
20
120.329010
30
83.887299
11
-122.769936
21
120.848724
31
68.016045
12
-164.870880
22
147.571442
32
49.930317
13
-164.870880
23
147.571442
33
49.930317
0
3DFACE
8
0
70
0
10
-119.241219
20
120.329010
30
83.887299
11
-164.870880
21
147.571442
31
49.930317
12
-159.767380
22
149.140717
32
102.617470
13
-159.767380
23
149.140717
33
102.617470
0
3DFACE
8
0
70
0
10
-187.858948
20
117.732300
30
114.951759
11
-159.767380
21
149.140717
31
102.617470
12
-164.870880
22
147.571442
32
49.930317
13
-164.870880
23
147.571442
33
49.930317
0
3DFACE
8
0
70
0
10
-187.858948
20
117.732300
30
114.951759
11
-164.870880
21
147.571442
31
49.930317
12
-192.667206
22
115.827881
32
38.764294
13
-192.667206
23
115.827881
33
38.764294
0
3DFACE
8
0
70
0
10
-154.597610
20
90.877747
30
99.538696
11
-187.858948
21
117.732300
31
114.951759
12
-192.667206
22
115.827881
32
38.764294
13
-192.667206
23
115.827881
33
38.764294
0
3DFACE
8
0
70
0
10
-154.597610
20
90.877747
30
99.538696
11
-192.667206
21
115.827881
31
38.764294
12
-158.038376
22
91.095490
32
53.683338
13
-158.038376
23
91.095490
33
53.683338
0
3DFACE
8
0
70
0
10
7.917235
20
82.519897
30
116.963539
11
5.563601
21
108.888641
31
46.893040
12
31.376183
22
87.828674
32
74.916290
13
31.376183
23
87.828674
33
74.916290
0
3DFACE
8
0
70
0
10
7.917235
20
82.519897
30
116.963539
11
-22.156700
21
104.753937
31
85.921272
12
5.563601
22
108.888641
32
46.893040
13
5.563601
23
108.888641
33
46.893040
0
3DFACE
8
0
70
0
10
-22.156700
20
104.753937
30
85.921272
11
22.794878
21
144.162872
31
74.633202
12
5.563601
22
108.888641
32
46.893040
13
5.563601
23
108.888641
33
46.893040
0
3DFACE
8
0
70
0
10
-22.156700
20
104.753937
30
85.921272
11
-3.357959
21
139.847412
31
121.111588
12
22.794878
22
144.162872
32
74.633202
13
22.794878
23
144.162872
33
74.633202
0
3DFACE
8
0
70
0
10
22.542580
20
114.428040
30
145.825531
11
44.948601
21
119.514099
31
97.480499
12
22.794878
22
144.162872
32
74.633202
13
22.794878
23
144.162872
33
74.633202
0
3DFACE
8
0
70
0
10
22.542580
20
114.428040
30
145.825531
11
22.794878
21
144.162872
31
74.633202
12
-3.357959
22
139.847412
32
121.111588
13
-3.357959
23
139.847412
33
121.111588
0
3DFACE
8
0
70
0
10
7.917235
20
82.519897
30
116.963539
11
31.376183
21
87.828674
31
74.916290
12
44.948601
22
119.514099
32
97.480499
13
44.948601
23
119.514099
33
97.480499
0
3DFACE
8
0
70
0
10
7.917235
20
82.519897
30
116.963539
11
44.948601
21
119.514099
31
97.480499
12
22.542580
22
114.428040
32
145.825531
13
22.542580
23
114.428040
33
145.825531
0
3DFACE
8
0
70
0
10
-15.293152
20
321.314880
30
-32.351025
11
-10.821500
21
319.131378
31
-33.269444
12
-10.769670
22
295.187378
32
-8.149174
13
-26.739857
23
298.583954
33
-2.540346
0
3DFACE
8
0
70
0
10
-6.349847
20
321.314880
30
-32.351021
11
5.200517
21
298.583954
31
-2.540344
12
-10.769670
22
295.187378
32
-8.149174
13
-10.821500
23
319.131378
33
-33.269444
0
3DFACE
8
0
70
0
10
-3.348899
20
324.555969
30
-30.987793
11
15.918186
21
303.625763
31
5.785165
12
5.200517
22
298.583954
32
-2.540344
13
-6.349847
23
321.314880
33
-32.351021
0
3DFACE
8
0
70
0
10
-4.035561
20
327.871582
30
-29.593199
11
13.465823
21
308.783478
31
14.302112
12
15.918186
22
303.625763
32
5.785165
13
-3.348899
23
324.555969
33
-30.987793
0
3DFACE
8
0
70
0
10
-4.785575
20
331.981964
30
-27.864311
11
10.787199
21
315.177490
31
24.860624
12
13.465823
22
308.783478
32
14.302112
13
-4.035561
23
327.871582
33
-29.593199
0
3DFACE
8
0
70
0
10
-8.126076
20
333.977600
30
-27.024900
11
-1.143160
21
318.281891
31
29.986946
12
10.787199
22
315.177490
32
24.860624
13
-4.785575
23
331.981964
33
-27.864311
0
3DFACE
8
0
70
0
10
-10.821498
20
335.142273
30
-26.535019
11
-10.769667
21
320.093628
31
32.978657
12
-1.143160
22
318.281891
32
29.986946
13
-8.126076
23
333.977600
33
-27.024900
0
3DFACE
8
0
70
0
10
-10.821498
20
335.142273
30
-26.535019
11
-13.516920
21
333.977600
31
-27.024900
12
-20.396173
22
318.281891
32
29.986944
13
-10.769667
23
320.093628
33
32.978657
0
3DFACE
8
0
70
0
10
-13.516920
20
333.977600
30
-27.024900
11
-16.857420
21
331.981964
31
-27.864313
12
-32.326534
22
315.177521
32
24.860622
13
-20.396173
23
318.281891
33
29.986944
0
3DFACE
8
0
70
0
10
-16.857420
20
331.981964
30
-27.864313
11
-17.607437
21
327.871582
31
-29.593201
12
-35.005161
22
308.783478
32
14.302109
13
-32.326534
23
315.177521
33
24.860622
0
3DFACE
8
0
70
0
10
-17.607437
20
327.871582
30
-29.593201
11
-18.294096
21
324.555969
31
-30.987795
12
-37.457520
22
303.625763
32
5.785162
13
-35.005161
23
308.783478
33
14.302109
0
3DFACE
8
0
70
0
10
-18.294096
20
324.555969
30
-30.987795
11
-15.293152
21
321.314880
31
-32.351025
12
-26.739857
22
298.583954
32
-2.540346
13
-37.457520
23
303.625763
33
5.785162
0
ENDSEC
0
EOF
