0
SECTION
2
HEADER
999
DXF File Generated by LightWave 3D(TM)
0
ENDSEC
0
SECTION
2
TABLES
0
ENDSEC
0
SECTION
2
BLOCKS
0
ENDSEC
0
SECTION
2
ENTITIES
0
3DFACE
8
0
70
0
10
-4.685475
20
-85.068695
30
99.890038
11
27.028996
21
-81.610184
31
74.886192
12
77.987320
22
-83.075401
32
55.165958
13
73.651405
23
-79.299942
33
75.053169
0
3DFACE
8
0
70
0
10
77.741203
20
-69.327141
30
-57.709908
11
84.905113
21
-86.554306
31
-31.845560
12
37.671753
22
-86.962349
32
-58.977680
13
1.090979
23
-70.983055
33
-87.625275
0
3DFACE
8
0
70
0
10
-4.978569
20
-92.231186
30
123.492218
11
-4.685475
21
-85.068695
31
99.890038
12
73.651405
22
-79.299942
32
75.053169
13
98.539452
23
-84.960899
33
93.053192
0
3DFACE
8
0
70
0
10
103.715218
20
-72.340012
30
-74.962646
11
77.741203
21
-69.327141
31
-57.709908
12
1.090979
22
-70.983055
32
-87.625275
13
2.215750
23
-74.688148
33
-110.049797
0
3DFACE
8
0
70
0
10
-5.607547
20
-90.412071
30
136.584518
11
104.262726
21
-82.600235
31
102.035049
12
117.962227
22
-39.472454
32
97.671570
13
-8.908680
23
-47.197258
33
131.738266
0
3DFACE
8
0
70
0
10
110.111343
20
-68.338623
30
-87.822845
11
2.522032
21
-70.588440
31
-127.317978
12
-0.782560
22
-27.382168
32
-132.162216
13
123.810844
23
-25.210842
33
-92.186333
0
3DFACE
8
0
70
0
10
-8.908680
20
-47.197258
30
131.738266
11
117.962227
21
-39.472454
31
97.671570
12
111.021507
22
-38.144661
32
88.250023
13
-8.566782
23
-45.258224
33
118.224525
0
3DFACE
8
0
70
0
10
-5.607547
20
-90.412071
30
136.584518
11
-4.978569
21
-92.231186
31
123.492218
12
98.539452
22
-84.960899
32
93.053192
13
104.262726
23
-82.600235
33
102.035049
0
3DFACE
8
0
70
0
10
123.810844
20
-25.210842
30
-92.186333
11
-0.782560
21
-27.382168
31
-132.162216
12
-1.488213
22
-28.020603
32
-115.244316
13
116.197273
23
-25.523777
33
-79.765823
0
3DFACE
8
0
70
0
10
110.111343
20
-68.338623
30
-87.822845
11
103.715218
21
-72.340012
31
-74.962646
12
2.215750
22
-74.688148
32
-110.049797
13
2.522032
23
-70.588440
33
-127.317978
0
3DFACE
8
0
70
0
10
29.032839
20
-122.380943
30
107.656754
11
78.487839
21
-122.380943
31
107.656754
12
70.266678
22
-103.625626
32
92.113663
13
35.657047
23
-103.794075
33
92.113663
0
3DFACE
8
0
70
0
10
73.651405
20
-79.299942
30
75.053169
11
77.987320
21
-83.075401
31
55.165958
12
93.644234
22
-87.975258
32
14.915224
13
94.265808
23
-73.685669
33
10.561753
0
3DFACE
8
0
70
0
10
98.539452
20
-84.960899
30
93.053192
11
73.651405
21
-79.299942
31
75.053169
12
94.265808
22
-73.685669
32
10.561753
13
125.920242
23
-77.836571
33
11.899470
0
3DFACE
8
0
70
0
10
117.962227
20
-39.472454
30
97.671570
11
104.262726
21
-82.600235
31
102.035049
12
133.480148
22
-74.727013
32
11.767783
13
151.142319
23
-31.442331
33
7.497324
0
3DFACE
8
0
70
0
10
151.142319
20
-31.442331
30
7.497324
11
142.131729
21
-30.872669
31
7.183856
12
111.021507
22
-38.144661
32
88.250023
13
117.962227
23
-39.472454
33
97.671570
0
3DFACE
8
0
70
0
10
104.262726
20
-82.600235
30
102.035049
11
98.539452
21
-84.960899
31
93.053192
12
125.920242
22
-77.836571
32
11.899470
13
133.480148
23
-74.727013
33
11.767783
0
3DFACE
8
0
70
0
10
13.540748
20
-152.743561
30
107.656754
11
84.023537
21
-152.912018
31
107.656754
12
78.487839
22
-122.380943
32
107.656754
13
29.032839
23
-122.380943
33
107.656754
0
3DFACE
8
0
70
0
10
-1.789612
20
103.218719
30
-7.788451
11
67.334694
21
92.627464
31
-8.126990
12
60.596302
22
77.327072
32
-50.952980
13
-1.978896
23
89.445251
33
-58.590179
0
3DFACE
8
0
70
0
10
94.265808
20
-73.685669
30
10.561753
11
93.644234
21
-87.975258
31
14.915224
12
84.905113
22
-86.554306
32
-31.845560
13
77.741203
23
-69.327141
33
-57.709908
0
3DFACE
8
0
70
0
10
125.920242
20
-77.836571
30
11.899470
11
94.265808
21
-73.685669
31
10.561753
12
77.741203
22
-69.327141
32
-57.709908
13
103.715218
23
-72.340012
33
-74.962646
0
3DFACE
8
0
70
0
10
133.480148
20
-74.727013
30
11.767783
11
110.111343
21
-68.338623
31
-87.822845
12
123.810844
22
-25.210842
32
-92.186333
13
151.142319
23
-31.442331
33
7.497324
0
3DFACE
8
0
70
0
10
123.810844
20
-25.210842
30
-92.186333
11
116.197273
21
-25.523777
31
-79.765823
12
142.131729
22
-30.872669
32
7.183856
13
151.142319
23
-31.442331
33
7.497324
0
3DFACE
8
0
70
0
10
133.480148
20
-74.727013
30
11.767783
11
125.920242
21
-77.836571
31
11.899470
12
103.715218
22
-72.340012
32
-74.962646
13
110.111343
23
-68.338623
33
-87.822845
0
3DFACE
8
0
70
0
10
28.783396
20
-93.310257
30
39.460304
11
27.028996
21
-81.610184
31
74.886192
12
22.917133
22
-87.213776
32
9.576472
13
22.125725
23
-95.046883
33
10.674974
0
3DFACE
8
0
70
0
10
28.783396
20
-93.310257
30
39.460304
11
78.777473
21
-95.156021
31
33.804314
12
77.987320
22
-83.075401
32
55.165958
13
27.028996
23
-81.610184
33
74.886192
0
3DFACE
8
0
70
0
10
78.777473
20
-95.156021
30
33.804314
11
92.819687
21
-96.700157
31
16.932518
12
93.644234
22
-87.975258
32
14.915224
13
77.987320
23
-83.075401
33
55.165958
0
3DFACE
8
0
70
0
10
22.125725
20
-95.046883
30
10.674974
11
22.917133
21
-87.213776
31
9.576472
12
37.671753
22
-86.962349
32
-58.977680
13
34.047634
23
-97.299576
33
-17.680931
0
3DFACE
8
0
70
0
10
92.819687
20
-96.700157
30
16.932518
11
82.199234
21
-97.749077
31
-3.337494
12
84.905113
22
-86.554306
32
-31.845560
13
93.644234
23
-87.975258
33
14.915224
0
3DFACE
8
0
70
0
10
82.199234
20
-97.749077
30
-3.337494
11
34.047634
21
-97.299576
31
-17.680931
12
37.671753
22
-86.962349
32
-58.977680
13
84.905113
23
-86.554306
33
-31.845560
0
3DFACE
8
0
70
0
10
24.995043
20
-127.389343
30
-8.224122
11
29.032839
21
-130.002075
31
45.872967
12
35.657047
22
-112.646896
32
37.712837
13
31.444483
23
-122.782654
33
29.362371
0
3DFACE
8
0
70
0
10
31.444483
20
-122.782654
30
29.362371
11
35.657047
21
-112.646896
31
37.712837
12
70.266678
22
-115.917686
32
37.712837
13
71.360596
23
-125.635139
33
20.001001
0
3DFACE
8
0
70
0
10
81.732056
20
-132.491348
30
-4.797189
11
71.360596
21
-125.635139
31
20.001001
12
70.266678
22
-115.917686
32
37.712837
13
78.487839
23
-130.002075
33
45.872967
0
3DFACE
8
0
70
0
10
7.779199
20
-131.316849
30
-48.790218
11
17.426521
21
-150.719177
31
34.215645
12
29.032839
22
-130.002075
32
45.872967
13
24.995043
23
-127.389343
33
-8.224122
0
3DFACE
8
0
70
0
10
91.288834
20
-138.940094
30
-41.480759
11
81.732056
21
-132.491348
31
-4.797189
12
78.487839
22
-130.002075
32
45.872967
13
87.909302
23
-150.815445
33
38.101425
0
3DFACE
8
0
70
0
10
91.288834
20
-138.940094
30
-41.480759
11
87.909302
21
-150.815445
31
38.101425
12
17.426521
22
-150.719177
32
34.215645
13
7.779199
23
-131.316849
33
-48.790218
0
3DFACE
8
0
70
0
10
29.032839
20
-122.380943
30
107.656754
11
35.657047
21
-103.794075
31
92.113663
12
35.657047
22
-112.646896
32
37.712837
13
29.032839
23
-130.002075
33
45.872967
0
3DFACE
8
0
70
0
10
35.657047
20
-103.794075
30
92.113663
11
70.266678
21
-103.625626
31
92.113663
12
70.266678
22
-115.917686
32
37.712837
13
35.657047
23
-112.646896
33
37.712837
0
3DFACE
8
0
70
0
10
78.487839
20
-122.380943
30
107.656754
11
78.487839
21
-130.002075
31
45.872967
12
70.266678
22
-115.917686
32
37.712837
13
70.266678
23
-103.625626
33
92.113663
0
3DFACE
8
0
70
0
10
13.540748
20
-152.743561
30
107.656754
11
29.032839
21
-122.380943
31
107.656754
12
29.032839
22
-130.002075
32
45.872967
13
17.426521
23
-150.719177
33
34.215645
0
3DFACE
8
0
70
0
10
84.023537
20
-152.912018
30
107.656754
11
87.909302
21
-150.815445
31
38.101425
12
78.487839
22
-130.002075
32
45.872967
13
78.487839
23
-122.380943
33
107.656754
0
3DFACE
8
0
70
0
10
84.023537
20
-152.912018
30
107.656754
11
13.540748
21
-152.743561
31
107.656754
12
17.426521
22
-150.719177
32
34.215645
13
87.909302
23
-150.815445
33
38.101425
0
3DFACE
8
0
70
0
10
163.710739
20
15.813486
30
231.803543
11
183.374222
21
26.680820
31
224.240540
12
166.045044
22
36.035336
32
234.550278
13
147.207840
23
25.960629
33
230.336823
0
3DFACE
8
0
70
0
10
88.607185
20
73.772377
30
-40.511620
11
60.596302
21
77.327072
31
-50.952980
12
67.334694
22
92.627464
32
-8.126990
13
67.334694
23
92.627464
33
-8.126990
0
3DFACE
8
0
70
0
10
82.884865
20
63.875858
30
40.887657
11
67.334694
21
92.627464
31
-8.126990
12
60.988014
22
53.568436
32
53.717564
13
60.988014
23
53.568436
33
53.717564
0
3DFACE
8
0
70
0
10
144.207520
20
65.215187
30
71.372543
11
176.556595
21
31.884745
31
62.763794
12
173.304749
22
20.816362
32
98.381577
13
142.297607
23
55.990440
33
107.690094
0
3DFACE
8
0
70
0
10
196.590500
20
79.969406
30
79.946564
11
144.207520
21
65.215187
31
71.372543
12
142.297607
22
55.990440
32
107.690094
13
194.443954
23
72.515602
33
116.827362
0
3DFACE
8
0
70
0
10
217.112274
20
37.803131
30
107.074608
11
220.333847
21
46.709042
31
70.746262
12
196.590500
22
79.969406
32
79.946564
13
194.443954
23
72.515602
33
116.827362
0
3DFACE
8
0
70
0
10
176.556595
20
31.884745
30
62.763794
11
220.333847
21
46.709042
31
70.746262
12
217.112274
22
37.803131
32
107.074608
13
173.304749
23
20.816362
33
98.381577
0
3DFACE
8
0
70
0
10
170.468460
20
11.033672
30
94.974304
11
167.162811
21
-0.170453
31
128.246536
12
128.572433
22
50.707710
32
141.176468
13
130.124466
23
59.255630
33
107.890457
0
3DFACE
8
0
70
0
10
130.124466
20
59.255630
30
107.890457
11
128.572433
21
50.707710
31
141.176468
12
197.814301
22
76.810883
32
153.806061
13
199.576263
23
82.962616
33
120.616196
0
3DFACE
8
0
70
0
10
225.740234
20
27.086428
30
140.377090
11
228.879822
21
35.248409
31
107.078011
12
199.576263
22
82.962616
32
120.616196
13
197.814301
23
76.810883
33
153.806061
0
3DFACE
8
0
70
0
10
170.468460
20
11.033672
30
94.974304
11
228.879822
21
35.248409
31
107.078011
12
225.740234
22
27.086428
32
140.377090
13
167.162811
23
-0.170453
33
128.246536
0
3DFACE
8
0
70
0
10
170.468460
20
11.033672
30
94.974304
11
130.124466
21
59.255630
31
107.890457
12
142.297607
22
55.990440
32
107.690094
13
173.304749
23
20.816362
33
98.381577
0
3DFACE
8
0
70
0
10
167.162811
20
-0.170453
30
128.246536
11
170.242157
21
10.392117
31
131.926651
12
140.546310
22
47.531822
32
140.991119
13
128.572433
23
50.707710
33
141.176468
0
3DFACE
8
0
70
0
10
130.124466
20
59.255630
30
107.890457
11
199.576263
21
82.962616
31
120.616196
12
194.443954
22
72.515602
32
116.827362
13
142.297607
23
55.990440
33
107.690094
0
3DFACE
8
0
70
0
10
128.572433
20
50.707710
30
141.176468
11
140.546310
21
47.531822
31
140.991119
12
192.522812
22
65.844383
32
149.835693
13
197.814301
23
76.810883
33
153.806061
0
3DFACE
8
0
70
0
10
225.740234
20
27.086428
30
140.377090
11
197.814301
21
76.810883
31
153.806061
12
192.522812
22
65.844383
32
149.835693
13
214.158264
23
29.636921
33
140.385529
0
3DFACE
8
0
70
0
10
228.879822
20
35.248409
30
107.078011
11
217.112274
21
37.803131
31
107.074608
12
194.443954
22
72.515602
32
116.827362
13
199.576263
23
82.962616
33
120.616196
0
3DFACE
8
0
70
0
10
167.162811
20
-0.170453
30
128.246536
11
225.740234
21
27.086428
31
140.377090
12
214.158264
22
29.636921
32
140.385529
13
170.242157
23
10.392117
33
131.926651
0
3DFACE
8
0
70
0
10
170.468460
20
11.033672
30
94.974304
11
173.304749
21
20.816362
31
98.381577
12
217.112274
22
37.803131
32
107.074608
13
228.879822
23
35.248409
33
107.078011
0
3DFACE
8
0
70
0
10
179.512833
20
23.952082
30
126.540688
11
152.704361
21
42.558006
31
125.309677
12
140.546310
22
47.531822
32
140.991119
13
170.242157
23
10.392117
33
131.926651
0
3DFACE
8
0
70
0
10
152.704361
20
42.558006
30
125.309677
11
181.763885
21
61.155552
31
133.003952
12
192.522812
22
65.844383
32
149.835693
13
140.546310
23
47.531822
33
140.991119
0
3DFACE
8
0
70
0
10
203.277786
20
41.982006
30
133.164749
11
214.158264
21
29.636921
31
140.385529
12
192.522812
22
65.844383
32
149.835693
13
181.763885
23
61.155552
33
133.003952
0
3DFACE
8
0
70
0
10
179.512833
20
23.952082
30
126.540688
11
170.242157
21
10.392117
31
131.926651
12
214.158264
22
29.636921
32
140.385529
13
203.277786
23
41.982006
33
133.164749
0
3DFACE
8
0
70
0
10
120.083183
20
24.239922
30
169.024811
11
119.612793
21
34.139503
31
170.431335
12
121.778702
22
36.556988
32
157.316376
13
122.135338
23
26.662663
33
155.870377
0
3DFACE
8
0
70
0
10
119.612793
20
34.139503
30
170.431335
11
119.935112
21
44.371094
31
172.072678
12
121.969193
22
46.786579
32
158.956573
13
121.778702
23
36.556988
33
157.316376
0
3DFACE
8
0
70
0
10
211.331436
20
36.431759
30
169.010620
11
203.277786
21
41.982006
31
133.164749
12
181.763885
22
61.155552
32
133.003952
13
180.455811
23
55.719784
33
167.346115
0
3DFACE
8
0
70
0
10
177.017258
20
18.513138
30
160.804245
11
179.512833
21
23.952082
31
126.540688
12
203.277786
22
41.982006
32
133.164749
13
211.331436
23
36.431759
33
169.010620
0
3DFACE
8
0
70
0
10
163.710739
20
15.813486
30
231.803543
11
147.207840
21
25.960629
31
230.336823
12
143.784897
22
35.691608
32
174.137543
13
177.017258
23
18.513138
33
160.804245
0
3DFACE
8
0
70
0
10
147.207840
20
25.960629
30
230.336823
11
166.045044
21
36.035336
31
234.550278
12
180.455811
22
55.719784
32
167.346115
13
143.784897
23
35.691608
33
174.137543
0
3DFACE
8
0
70
0
10
183.374222
20
26.680820
30
224.240540
11
211.331436
21
36.431759
31
169.010620
12
180.455811
22
55.719784
32
167.346115
13
166.045044
23
36.035336
33
234.550278
0
3DFACE
8
0
70
0
10
163.710739
20
15.813486
30
231.803543
11
177.017258
21
18.513138
31
160.804245
12
211.331436
22
36.431759
32
169.010620
13
183.374222
23
26.680820
33
224.240540
0
3DFACE
8
0
70
0
10
120.083183
20
24.239922
30
169.024811
11
122.135338
21
26.662663
31
155.870377
12
179.512833
22
23.952082
32
126.540688
13
177.017258
23
18.513138
33
160.804245
0
3DFACE
8
0
70
0
10
122.135338
20
26.662663
30
155.870377
11
121.778702
21
36.556988
31
157.316376
12
152.704361
22
42.558006
32
125.309677
13
179.512833
23
23.952082
33
126.540688
0
3DFACE
8
0
70
0
10
120.083183
20
24.239922
30
169.024811
11
177.017258
21
18.513138
31
160.804245
12
143.784897
22
35.691608
32
174.137543
13
119.612793
23
34.139503
33
170.431335
0
3DFACE
8
0
70
0
10
121.778702
20
36.556988
30
157.316376
11
121.969193
21
46.786579
31
158.956573
12
181.763885
22
61.155552
32
133.003952
13
152.704361
23
42.558006
33
125.309677
0
3DFACE
8
0
70
0
10
119.935112
20
44.371094
30
172.072678
11
180.455811
21
55.719784
31
167.346115
12
181.763885
22
61.155552
32
133.003952
13
121.969193
23
46.786579
33
158.956573
0
3DFACE
8
0
70
0
10
119.612793
20
34.139503
30
170.431335
11
143.784897
21
35.691608
31
174.137543
12
180.455811
22
55.719784
32
167.346115
13
119.935112
23
44.371094
33
172.072678
0
3DFACE
8
0
70
0
10
-4.685475
20
-85.068695
30
99.890038
11
-81.491829
21
-85.442818
31
71.410843
12
-90.024261
22
-84.418724
32
48.039970
13
-42.821232
23
-83.168800
33
74.961555
0
3DFACE
8
0
70
0
10
-77.402039
20
-75.470016
30
-61.352234
11
1.090979
21
-70.983055
31
-87.625275
12
-32.280823
22
-94.806908
32
-56.193634
13
-83.172997
23
-91.983498
33
-37.210903
0
3DFACE
8
0
70
0
10
-4.978569
20
-92.231186
30
123.492218
11
-106.592331
21
-93.083069
31
88.237274
12
-81.491829
22
-85.442818
32
71.410843
13
-4.685475
23
-85.068695
33
99.890038
0
3DFACE
8
0
70
0
10
-101.416573
20
-80.462173
30
-79.778572
11
2.215750
21
-74.688148
31
-110.049797
12
1.090979
22
-70.983055
32
-87.625275
13
-77.402039
23
-75.470016
33
-61.352234
0
3DFACE
8
0
70
0
10
-5.607547
20
-90.412071
30
136.584518
11
-8.908680
21
-47.197258
31
131.738266
12
-133.493378
22
-49.428799
32
91.768097
13
-113.307388
23
-91.214890
33
96.927124
0
3DFACE
8
0
70
0
10
-107.458763
20
-76.953285
30
-92.930779
11
-127.644760
21
-35.167187
31
-98.089806
12
-0.782560
22
-27.382168
32
-132.162216
13
2.522032
23
-70.588440
33
-127.317978
0
3DFACE
8
0
70
0
10
-8.908680
20
-47.197258
30
131.738266
11
-8.566782
21
-45.258224
31
118.224525
12
-126.130028
22
-47.534645
32
82.682373
13
-133.493378
23
-49.428799
33
91.768097
0
3DFACE
8
0
70
0
10
-5.607547
20
-90.412071
30
136.584518
11
-113.307388
21
-91.214890
31
96.927124
12
-106.592331
22
-93.083069
32
88.237274
13
-4.978569
23
-92.231186
33
123.492218
0
3DFACE
8
0
70
0
10
-127.644760
20
-35.167187
30
-98.089806
11
-120.954262
21
-34.913761
31
-85.333473
12
-1.488213
22
-28.020603
32
-115.244316
13
-0.782560
23
-27.382168
33
-132.162216
0
3DFACE
8
0
70
0
10
-107.458763
20
-76.953285
30
-92.930779
11
2.522032
21
-70.588440
31
-127.317978
12
2.215750
22
-74.688148
32
-110.049797
13
-101.416573
23
-80.462173
33
-79.778572
0
3DFACE
8
0
70
0
10
-33.019463
20
-122.380943
30
107.656754
11
-39.643673
21
-103.794075
31
92.113663
12
-74.253311
22
-103.625626
32
92.113663
13
-82.474457
23
-122.380943
33
107.656754
0
3DFACE
8
0
70
0
10
-81.491829
20
-85.442818
30
71.410843
11
-98.105965
21
-81.302605
31
6.045405
12
-99.227905
22
-90.933548
32
6.922331
13
-90.024261
23
-84.418724
33
48.039970
0
3DFACE
8
0
70
0
10
-106.592331
20
-93.083069
30
88.237274
11
-128.937241
21
-87.927612
31
5.916134
12
-98.105965
22
-81.302605
32
6.045405
13
-81.491829
23
-85.442818
33
71.410843
0
3DFACE
8
0
70
0
10
-133.493378
20
-49.428799
30
91.768097
11
-161.073837
21
-43.804478
31
0.167367
12
-136.925201
22
-85.433670
32
5.419426
13
-113.307388
23
-91.214890
33
96.927124
0
3DFACE
8
0
70
0
10
-161.073837
20
-43.804478
30
0.167367
11
-133.493378
21
-49.428799
31
91.768097
12
-126.130028
22
-47.534645
32
82.682373
13
-152.204346
23
-42.526859
33
0.273674
0
3DFACE
8
0
70
0
10
-113.307388
20
-91.214890
30
96.927124
11
-136.925201
21
-85.433670
31
5.419426
12
-128.937241
22
-87.927612
32
5.916134
13
-106.592331
23
-93.083069
33
88.237274
0
3DFACE
8
0
70
0
10
-17.527372
20
-152.743561
30
107.656754
11
-33.019463
21
-122.380943
31
107.656754
12
-82.474457
22
-122.380943
32
107.656754
13
-88.010155
23
-152.912018
33
107.656754
0
3DFACE
8
0
70
0
10
-1.789612
20
103.218719
30
-7.788451
11
-1.978896
21
89.445251
31
-58.590179
12
-64.528130
22
77.447586
32
-50.845592
13
-70.048698
23
91.021881
33
-7.033662
0
3DFACE
8
0
70
0
10
-98.105965
20
-81.302605
30
6.045405
11
-77.402039
21
-75.470016
31
-61.352234
12
-83.172997
22
-91.983498
32
-37.210903
13
-99.227905
23
-90.933548
33
6.922331
0
3DFACE
8
0
70
0
10
-128.937241
20
-87.927612
30
5.916134
11
-101.416573
21
-80.462173
31
-79.778572
12
-77.402039
22
-75.470016
32
-61.352234
13
-98.105965
23
-81.302605
33
6.045405
0
3DFACE
8
0
70
0
10
-136.925201
20
-85.433670
30
5.419426
11
-161.073837
21
-43.804478
31
0.167367
12
-127.644760
22
-35.167187
32
-98.089806
13
-107.458763
23
-76.953285
33
-92.930779
0
3DFACE
8
0
70
0
10
-127.644760
20
-35.167187
30
-98.089806
11
-161.073837
21
-43.804478
31
0.167367
12
-152.204346
22
-42.526859
32
0.273674
13
-120.954262
23
-34.913761
33
-85.333473
0
3DFACE
8
0
70
0
10
-136.925201
20
-85.433670
30
5.419426
11
-107.458763
21
-76.953285
31
-92.930779
12
-101.416573
22
-80.462173
32
-79.778572
13
-128.937241
23
-87.927612
33
5.916134
0
3DFACE
8
0
70
0
10
-41.791286
20
-96.158157
30
42.311089
11
-29.910460
21
-100.469635
31
16.095303
12
-28.570274
22
-92.066925
32
12.640656
13
-42.821232
23
-83.168800
33
74.961555
0
3DFACE
8
0
70
0
10
-41.791286
20
-96.158157
30
42.311089
11
-42.821232
21
-83.168800
31
74.961555
12
-90.024261
22
-84.418724
32
48.039970
13
-89.841049
23
-95.887253
33
27.700018
0
3DFACE
8
0
70
0
10
-89.841049
20
-95.887253
30
27.700018
11
-90.024261
21
-84.418724
31
48.039970
12
-99.227905
22
-90.933548
32
6.922331
13
-100.500740
23
-98.023247
33
9.025397
0
3DFACE
8
0
70
0
10
-29.910460
20
-100.469635
30
16.095303
11
-36.356445
21
-104.314049
31
-13.137091
12
-32.280823
22
-94.806908
32
-56.193634
13
-28.570274
23
-92.066925
33
12.640656
0
3DFACE
8
0
70
0
10
-100.500740
20
-98.023247
30
9.025397
11
-99.227905
21
-90.933548
31
6.922331
12
-83.172997
22
-91.983498
32
-37.210903
13
-86.308403
23
-101.188576
33
-8.341301
0
3DFACE
8
0
70
0
10
-86.308403
20
-101.188576
30
-8.341301
11
-83.172997
21
-91.983498
31
-37.210903
12
-32.280823
22
-94.806908
32
-56.193634
13
-36.356445
23
-104.314049
33
-13.137091
0
3DFACE
8
0
70
0
10
-30.037359
20
-128.774704
30
-4.300931
11
-42.554726
21
-125.340065
31
32.153202
12
-39.643669
22
-112.646896
32
37.712837
13
-33.019459
23
-130.002075
33
45.872967
0
3DFACE
8
0
70
0
10
-42.554726
20
-125.340065
30
32.153202
11
-80.512016
21
-126.447731
31
16.873810
12
-74.253304
22
-115.917686
32
37.712837
13
-39.643669
23
-112.646896
33
37.712837
0
3DFACE
8
0
70
0
10
-86.707054
20
-131.974030
30
-9.550906
11
-82.474449
21
-130.002075
31
45.872967
12
-74.253304
22
-115.917686
32
37.712837
13
-80.512016
23
-126.447731
33
16.873810
0
3DFACE
8
0
70
0
10
-6.386078
20
-131.804779
30
-42.076881
11
-30.037359
21
-128.774704
31
-4.300931
12
-33.019459
22
-130.002075
32
45.872967
13
-21.413139
23
-150.719177
33
34.215645
0
3DFACE
8
0
70
0
10
-90.164589
20
-136.706100
30
-47.572945
11
-91.895920
21
-150.815445
31
38.101425
12
-82.474449
22
-130.002075
32
45.872967
13
-86.707054
23
-131.974030
33
-9.550906
0
3DFACE
8
0
70
0
10
-90.164589
20
-136.706100
30
-47.572945
11
-6.386078
21
-131.804779
31
-42.076881
12
-21.413139
22
-150.719177
32
34.215645
13
-91.895920
23
-150.815445
33
38.101425
0
3DFACE
8
0
70
0
10
-33.019463
20
-122.380943
30
107.656754
11
-33.019459
21
-130.002075
31
45.872967
12
-39.643669
22
-112.646896
32
37.712837
13
-39.643673
23
-103.794075
33
92.113663
0
3DFACE
8
0
70
0
10
-39.643673
20
-103.794075
30
92.113663
11
-39.643669
21
-112.646896
31
37.712837
12
-74.253304
22
-115.917686
32
37.712837
13
-74.253311
23
-103.625626
33
92.113663
0
3DFACE
8
0
70
0
10
-82.474457
20
-122.380943
30
107.656754
11
-74.253311
21
-103.625626
31
92.113663
12
-74.253304
22
-115.917686
32
37.712837
13
-82.474449
23
-130.002075
33
45.872967
0
3DFACE
8
0
70
0
10
-17.527372
20
-152.743561
30
107.656754
11
-21.413139
21
-150.719177
31
34.215645
12
-33.019459
22
-130.002075
32
45.872967
13
-33.019463
23
-122.380943
33
107.656754
0
3DFACE
8
0
70
0
10
-88.010155
20
-152.912018
30
107.656754
11
-82.474457
21
-122.380943
31
107.656754
12
-82.474449
22
-130.002075
32
45.872967
13
-91.895920
23
-150.815445
33
38.101425
0
3DFACE
8
0
70
0
10
-88.010155
20
-152.912018
30
107.656754
11
-91.895920
21
-150.815445
31
38.101425
12
-21.413139
22
-150.719177
32
34.215645
13
-17.527372
23
-152.743561
33
107.656754
0
3DFACE
8
0
70
0
10
-220.916443
20
73.767296
30
232.019592
11
-204.101151
21
83.594139
31
232.377197
12
-222.973267
22
93.988899
32
229.887802
13
-237.838089
23
83.063293
33
217.960327
0
3DFACE
8
0
70
0
10
-92.205490
20
74.407234
30
-40.555149
11
-70.048698
21
91.021881
31
-7.033662
12
-64.528130
22
77.447586
32
-50.845592
13
-64.528130
23
77.447586
33
-50.845592
0
3DFACE
8
0
70
0
10
-92.798500
20
60.008171
30
40.682518
11
-64.652687
21
53.719936
31
53.852570
12
-70.048698
22
91.021881
32
-7.033662
13
-70.048698
23
91.021881
33
-7.033662
0
3DFACE
8
0
70
0
10
-161.991119
20
86.763840
30
60.073494
11
-164.202713
21
77.146095
31
96.237846
12
-207.252289
22
53.542233
32
86.208786
13
-205.570053
23
65.284348
33
50.770061
0
3DFACE
8
0
70
0
10
-205.325760
20
116.216599
30
68.687073
11
-206.613434
21
108.183304
31
105.445610
12
-164.202713
22
77.146095
32
96.237846
13
-161.991119
23
86.763840
33
60.073494
0
3DFACE
8
0
70
0
10
-241.651001
20
82.517540
30
95.013634
11
-206.613434
21
108.183304
31
105.445610
12
-205.325760
22
116.216599
32
68.687073
13
-240.797241
23
92.229446
33
58.827820
0
3DFACE
8
0
70
0
10
-205.570053
20
65.284348
30
50.770061
11
-207.252289
21
53.542233
31
86.208786
12
-241.651001
22
82.517540
32
95.013634
13
-240.797241
23
92.229446
33
58.827820
0
3DFACE
8
0
70
0
10
-208.465790
20
43.550835
30
82.647148
11
-151.479828
21
76.558037
31
96.542412
12
-153.730209
22
67.715195
32
129.685623
13
-210.130951
23
31.690493
33
115.738495
0
3DFACE
8
0
70
0
10
-151.479828
20
76.558037
30
96.542412
11
-207.292389
21
119.482124
31
109.390839
12
-208.388504
22
112.825401
32
142.479446
13
-153.730209
23
67.715195
33
129.685623
0
3DFACE
8
0
70
0
10
-254.318497
20
74.691505
30
128.095642
11
-208.388504
21
112.825401
31
142.479446
12
-207.292389
22
119.482124
32
109.390839
13
-253.711578
23
83.648346
33
94.926468
0
3DFACE
8
0
70
0
10
-208.465790
20
43.550835
30
82.647148
11
-210.130951
21
31.690493
31
115.738495
12
-254.318497
22
74.691505
32
128.095642
13
-253.711578
23
83.648346
33
94.926468
0
3DFACE
8
0
70
0
10
-208.465790
20
43.550835
30
82.647148
11
-207.252289
21
53.542233
31
86.208786
12
-164.202713
22
77.146095
32
96.237846
13
-151.479828
23
76.558037
33
96.542412
0
3DFACE
8
0
70
0
10
-210.130951
20
31.690493
30
115.738495
11
-153.730209
21
67.715195
31
129.685623
12
-166.230621
22
68.327133
32
129.398376
13
-208.836624
23
42.483463
33
119.585197
0
3DFACE
8
0
70
0
10
-151.479828
20
76.558037
30
96.542412
11
-164.202713
21
77.146095
31
96.237846
12
-206.613434
22
108.183304
32
105.445610
13
-207.292389
23
119.482124
33
109.390839
0
3DFACE
8
0
70
0
10
-153.730209
20
67.715195
30
129.685623
11
-208.388504
21
112.825401
31
142.479446
12
-207.765961
22
100.993454
32
138.344513
13
-166.230621
23
68.327133
33
129.398376
0
3DFACE
8
0
70
0
10
-254.318497
20
74.691505
30
128.095642
11
-242.433868
21
73.612221
31
128.193832
12
-207.765961
22
100.993454
32
138.344513
13
-208.388504
23
112.825401
33
142.479446
0
3DFACE
8
0
70
0
10
-253.711578
20
83.648346
30
94.926468
11
-207.292389
21
119.482124
31
109.390839
12
-206.613434
22
108.183304
32
105.445610
13
-241.651001
23
82.517540
33
95.013634
0
3DFACE
8
0
70
0
10
-210.130951
20
31.690493
30
115.738495
11
-208.836624
21
42.483463
31
119.585197
12
-242.433868
22
73.612221
32
128.193832
13
-254.318497
23
74.691505
33
128.095642
0
3DFACE
8
0
70
0
10
-208.465790
20
43.550835
30
82.647148
11
-253.711578
21
83.648346
31
94.926468
12
-241.651001
22
82.517540
32
95.013634
13
-207.252289
23
53.542233
33
86.208786
0
3DFACE
8
0
70
0
10
-211.076996
20
61.990086
30
121.658348
11
-208.836624
21
42.483463
31
119.585197
12
-166.230621
22
68.327133
32
129.398376
13
-183.506104
23
79.464470
33
124.407166
0
3DFACE
8
0
70
0
10
-183.506104
20
79.464470
30
124.407166
11
-166.230621
21
68.327133
31
129.398376
12
-207.765961
22
100.993454
32
138.344513
13
-212.328766
23
99.104752
33
123.918434
0
3DFACE
8
0
70
0
10
-234.542877
20
80.849281
30
121.313881
11
-212.328766
21
99.104752
31
123.918434
12
-207.765961
22
100.993454
32
138.344513
13
-242.433868
23
73.612221
33
128.193832
0
3DFACE
8
0
70
0
10
-211.076996
20
61.990086
30
121.658348
11
-234.542877
21
80.849281
31
121.313881
12
-242.433868
22
73.612221
32
128.193832
13
-208.836624
23
42.483463
33
119.585197
0
3DFACE
8
0
70
0
10
-163.625900
20
72.380821
30
180.709473
11
-162.480972
21
72.650612
31
167.202194
12
-162.053192
22
82.572136
32
166.606979
13
-163.078156
23
82.302071
33
180.102188
0
3DFACE
8
0
70
0
10
-163.078156
20
82.302071
30
180.102188
11
-162.053192
21
82.572136
31
166.606979
12
-162.188339
22
92.848740
32
165.999008
13
-163.341705
23
92.579834
33
179.464050
0
3DFACE
8
0
70
0
10
-251.859955
20
83.639946
30
156.810608
11
-220.636505
21
102.493759
31
158.444366
12
-212.328766
22
99.104752
32
123.918434
13
-234.542877
23
80.849281
33
121.313881
0
3DFACE
8
0
70
0
10
-217.341278
20
65.045074
30
160.749649
11
-251.859955
21
83.639946
31
156.810608
12
-234.542877
22
80.849281
32
121.313881
13
-211.076996
23
61.990086
33
121.658348
0
3DFACE
8
0
70
0
10
-220.916443
20
73.767296
30
232.019592
11
-217.341278
21
65.045074
31
160.749649
12
-187.379303
22
84.230576
32
177.651855
13
-204.101151
23
83.594139
33
232.377197
0
3DFACE
8
0
70
0
10
-204.101151
20
83.594139
30
232.377197
11
-187.379303
21
84.230576
31
177.651855
12
-220.636505
22
102.493759
32
158.444366
13
-222.973267
23
93.988899
33
229.887802
0
3DFACE
8
0
70
0
10
-237.838089
20
83.063293
30
217.960327
11
-222.973267
21
93.988899
31
229.887802
12
-220.636505
22
102.493759
32
158.444366
13
-251.859955
23
83.639946
33
156.810608
0
3DFACE
8
0
70
0
10
-220.916443
20
73.767296
30
232.019592
11
-237.838089
21
83.063293
31
217.960327
12
-251.859955
22
83.639946
32
156.810608
13
-217.341278
23
65.045074
33
160.749649
0
3DFACE
8
0
70
0
10
-163.625900
20
72.380821
30
180.709473
11
-217.341278
21
65.045074
31
160.749649
12
-211.076996
22
61.990086
32
121.658348
13
-162.480972
23
72.650612
33
167.202194
0
3DFACE
8
0
70
0
10
-162.480972
20
72.650612
30
167.202194
11
-211.076996
21
61.990086
31
121.658348
12
-183.506104
22
79.464470
32
124.407166
13
-162.053192
23
82.572136
33
166.606979
0
3DFACE
8
0
70
0
10
-163.625900
20
72.380821
30
180.709473
11
-163.078156
21
82.302071
31
180.102188
12
-187.379303
22
84.230576
32
177.651855
13
-217.341278
23
65.045074
33
160.749649
0
3DFACE
8
0
70
0
10
-162.053192
20
82.572136
30
166.606979
11
-183.506104
21
79.464470
31
124.407166
12
-212.328766
22
99.104752
32
123.918434
13
-162.188339
23
92.848740
33
165.999008
0
3DFACE
8
0
70
0
10
-163.341705
20
92.579834
30
179.464050
11
-162.188339
21
92.848740
31
165.999008
12
-212.328766
22
99.104752
32
123.918434
13
-220.636505
23
102.493759
33
158.444366
0
3DFACE
8
0
70
0
10
-163.078156
20
82.302071
30
180.102188
11
-163.341705
21
92.579834
31
179.464050
12
-220.636505
22
102.493759
32
158.444366
13
-187.379303
23
84.230576
33
177.651855
0
3DFACE
8
0
70
0
10
22.917133
20
-87.213776
30
9.576472
11
27.028996
21
-81.610184
31
74.886192
12
-4.685475
22
-85.068695
32
99.890038
13
-1.853982
23
-78.164223
33
7.974079
0
3DFACE
8
0
70
0
10
22.917133
20
-87.213776
30
9.576472
11
-1.853982
21
-78.164223
31
7.974079
12
1.090979
22
-70.983055
32
-87.625275
13
37.671753
23
-86.962349
33
-58.977680
0
3DFACE
8
0
70
0
10
1.090979
20
-70.983055
30
-87.625275
11
-1.853982
21
-78.164223
31
7.974079
12
-28.570274
22
-92.066925
32
12.640656
13
-32.280823
23
-94.806908
33
-56.193634
0
3DFACE
8
0
70
0
10
-1.853982
20
-78.164223
30
7.974079
11
-4.685475
21
-85.068695
31
99.890038
12
-42.821232
22
-83.168800
32
74.961555
13
-28.570274
23
-92.066925
33
12.640656
0
3DFACE
8
0
70
0
10
-6.898320
20
118.113037
30
128.434784
11
4.132597
21
118.584160
31
123.472382
12
13.764859
22
134.720856
32
129.003799
13
-7.203269
23
134.889618
33
134.767792
0
3DFACE
8
0
70
0
10
-7.203269
20
134.889618
30
134.767792
11
13.764859
21
134.720856
31
129.003799
12
6.410284
22
142.505722
32
127.386551
13
-6.994507
23
145.629623
33
130.432343
0
3DFACE
8
0
70
0
10
4.132597
20
118.584160
30
123.472382
11
5.759783
21
115.560020
31
110.035461
12
17.790226
22
132.456955
32
110.864014
13
13.764859
23
134.720856
33
129.003799
0
3DFACE
8
0
70
0
10
-6.898320
20
118.113037
30
128.434784
11
-6.554652
21
113.029472
31
115.661682
12
5.759783
22
115.560020
32
110.035461
13
4.132597
23
118.584160
33
123.472382
0
3DFACE
8
0
70
0
10
-6.994507
20
145.629623
30
130.432343
11
6.410284
21
142.505722
31
127.386551
12
9.238271
22
143.293945
32
110.524071
13
-6.539031
23
146.881866
33
115.337280
0
3DFACE
8
0
70
0
10
13.764859
20
134.720856
30
129.003799
11
17.790226
21
132.456955
31
110.864014
12
9.238271
22
143.293945
32
110.524071
13
6.410284
23
142.505722
33
127.386551
0
3DFACE
8
0
70
0
10
-2.111943
20
155.501190
30
111.481384
11
-2.164828
21
146.861496
31
112.579666
12
9.660686
22
144.723846
32
107.575127
13
10.927411
23
162.370285
33
109.995972
0
3DFACE
8
0
70
0
10
9.660686
20
144.723846
30
107.575127
11
19.998259
21
145.625793
31
101.469162
12
24.028870
22
155.496414
32
97.903839
13
10.927411
23
162.370285
33
109.995972
0
3DFACE
8
0
70
0
10
6.390050
20
99.171005
30
130.200272
11
2.792215
21
116.416817
31
118.519547
12
-6.809057
22
115.132927
32
120.945023
13
-7.257659
23
98.986404
33
130.261353
0
3DFACE
8
0
70
0
10
48.430122
20
114.451881
30
84.378281
11
46.756824
21
124.387726
31
84.102966
12
21.385447
22
117.938820
32
104.585968
13
28.514832
23
97.192139
33
111.570854
0
3DFACE
8
0
70
0
10
2.792215
20
116.416817
30
118.519547
11
6.390050
21
99.171005
31
130.200272
12
25.913454
22
101.158188
32
122.035202
13
18.199451
23
116.655182
33
119.138268
0
3DFACE
8
0
70
0
10
41.790062
20
152.844635
30
83.176468
11
47.772171
21
154.545135
31
79.067604
12
24.362432
22
160.656998
32
95.137093
13
27.514881
23
157.034180
33
99.559967
0
3DFACE
8
0
70
0
10
-5.878783
20
158.906677
30
107.463806
11
-6.338871
21
157.037567
31
112.348114
12
9.929328
22
164.372314
32
111.077217
13
9.979163
23
168.633530
33
105.078453
0
3DFACE
8
0
70
0
10
9.979163
20
168.633530
30
105.078453
11
9.929328
21
164.372314
31
111.077217
12
27.514881
22
157.034180
32
99.559967
13
24.362432
23
160.656998
33
95.137093
0
3DFACE
8
0
70
0
10
-7.148722
20
74.810921
30
127.999008
11
11.170284
21
82.393921
31
122.189133
12
7.939187
22
90.712051
32
119.876740
13
-6.999788
23
88.018105
33
124.906021
0
3DFACE
8
0
70
0
10
-6.086520
20
35.567516
30
105.939774
11
15.412651
21
46.944572
31
103.561844
12
11.170284
22
82.393921
32
122.189133
13
-7.148722
23
74.810921
33
127.999008
0
3DFACE
8
0
70
0
10
48.430122
20
114.451881
30
84.378281
11
28.514832
21
97.192139
31
111.570854
12
28.253532
22
94.258354
32
102.095673
13
52.171356
23
104.219360
33
87.895523
0
3DFACE
8
0
70
0
10
28.253532
20
94.258354
30
102.095673
11
41.674480
21
70.563843
31
71.459801
12
53.043221
22
97.506294
32
55.188755
13
52.171356
23
104.219360
33
87.895523
0
3DFACE
8
0
70
0
10
15.412651
20
46.944572
30
103.561844
11
41.674480
21
70.563843
31
71.459801
12
28.253532
22
94.258354
32
102.095673
13
11.170284
23
82.393921
33
122.189133
0
3DFACE
8
0
70
0
10
11.170284
20
82.393921
30
122.189133
11
28.253532
21
94.258354
31
102.095673
12
28.514832
22
97.192139
32
111.570854
13
7.939187
23
90.712051
33
119.876740
0
3DFACE
8
0
70
0
10
-7.257659
20
98.986404
30
130.261353
11
-6.999788
21
88.018105
31
124.906021
12
7.939187
22
90.712051
32
119.876740
13
6.390050
23
99.171005
33
130.200272
0
3DFACE
8
0
70
0
10
-6.809057
20
115.132927
30
120.945023
11
2.792215
21
116.416817
31
118.519547
12
5.759783
22
115.560020
32
110.035461
13
-6.554652
23
113.029472
33
115.661682
0
3DFACE
8
0
70
0
10
18.199451
20
116.655182
30
119.138268
11
21.385447
21
117.938820
31
104.585968
12
5.759783
22
115.560020
32
110.035461
13
2.792215
23
116.416817
33
118.519547
0
POINT
8
0
70
0
10
49.065189
20
99.970367
30
103.711929
0
3DFACE
8
0
70
0
10
6.390050
20
99.171005
30
130.200272
11
7.939187
21
90.712051
31
119.876740
12
28.514832
22
97.192139
32
111.570854
13
25.913454
23
101.158188
33
122.035202
0
3DFACE
8
0
70
0
10
25.913454
20
101.158188
30
122.035202
11
49.065189
21
99.970367
31
103.711929
12
18.199451
22
116.655182
32
119.138268
13
18.199451
23
116.655182
33
119.138268
0
3DFACE
8
0
70
0
10
18.199451
20
116.655182
30
119.138268
11
49.065189
21
99.970367
31
103.711929
12
21.385447
22
117.938820
32
104.585968
13
21.385447
23
117.938820
33
104.585968
0
3DFACE
8
0
70
0
10
49.065189
20
99.970367
30
103.711929
11
28.514832
21
97.192139
31
111.570854
12
21.385447
22
117.938820
32
104.585968
13
21.385447
23
117.938820
33
104.585968
0
3DFACE
8
0
70
0
10
28.514832
20
97.192139
30
111.570854
11
49.065189
21
99.970367
31
103.711929
12
25.913454
22
101.158188
32
122.035202
13
25.913454
23
101.158188
33
122.035202
0
3DFACE
8
0
70
0
10
47.772171
20
154.545135
30
79.067604
11
41.790062
21
152.844635
31
83.176468
12
57.283997
22
150.366364
32
46.169029
13
53.524593
23
150.610107
33
45.309242
0
3DFACE
8
0
70
0
10
41.790062
20
152.844635
30
83.176468
11
40.950146
21
144.953384
31
84.552361
12
60.496941
22
144.191269
32
47.478786
13
57.283997
23
150.366364
33
46.169029
0
3DFACE
8
0
70
0
10
40.950146
20
144.953384
30
84.552361
11
43.516098
21
133.045364
31
84.525574
12
60.409416
22
132.198395
32
49.771671
13
60.496941
23
144.191269
33
47.478786
0
3DFACE
8
0
70
0
10
53.524593
20
150.610107
30
45.309242
11
57.283997
21
150.366364
31
46.169029
12
41.478119
22
148.561157
32
18.497482
13
38.894684
23
147.207367
33
21.008530
0
3DFACE
8
0
70
0
10
60.496941
20
144.191269
30
47.478786
11
45.252453
21
147.519440
31
15.453537
12
41.478119
22
148.561157
32
18.497482
13
57.283997
23
150.366364
33
46.169029
0
3DFACE
8
0
70
0
10
60.409416
20
132.198395
30
49.771671
11
42.450722
21
136.885239
31
13.767772
12
45.252453
22
147.519440
32
15.453537
13
60.496941
23
144.191269
33
47.478786
0
3DFACE
8
0
70
0
10
38.894684
20
147.207367
30
21.008530
11
41.478119
21
148.561157
31
18.497482
12
-0.877564
22
148.622803
32
-1.069312
13
-0.764879
23
146.843521
33
1.261059
0
3DFACE
8
0
70
0
10
45.252453
20
147.519440
30
15.453537
11
-0.859925
21
147.443558
31
-2.603269
12
-0.877564
22
148.622803
32
-1.069312
13
41.478119
23
148.561157
33
18.497482
0
3DFACE
8
0
70
0
10
42.450722
20
136.885239
30
13.767772
11
-0.933990
21
134.830032
31
-1.065151
12
-0.859925
22
147.443558
32
-2.603269
13
45.252453
23
147.519440
33
15.453537
0
3DFACE
8
0
70
0
10
53.043221
20
97.506294
30
55.188755
11
59.882736
21
112.605019
31
51.191475
12
48.430122
22
114.451881
32
84.378281
13
52.171356
23
104.219360
33
87.895523
0
3DFACE
8
0
70
0
10
43.516098
20
133.045364
30
84.525574
11
46.756824
21
124.387726
31
84.102966
12
60.409416
22
132.198395
32
49.771671
13
60.409416
23
132.198395
33
49.771671
0
3DFACE
8
0
70
0
10
48.430122
20
114.451881
30
84.378281
11
59.882736
21
112.605019
31
51.191475
12
60.409416
22
132.198395
32
49.771671
13
46.756824
23
124.387726
33
84.102966
0
3DFACE
8
0
70
0
10
59.882736
20
112.605019
30
51.191475
11
41.472603
21
120.534973
31
16.789608
12
42.450722
22
136.885239
32
13.767772
13
60.409416
23
132.198395
33
49.771671
0
3DFACE
8
0
70
0
10
41.472603
20
120.534973
30
16.789608
11
-1.158117
21
119.051178
31
3.589415
12
-0.933990
22
134.830032
32
-1.065151
13
42.450722
23
136.885239
33
13.767772
0
3DFACE
8
0
70
0
10
-5.878783
20
158.906677
30
107.463806
11
9.979163
21
168.633530
31
105.078453
12
11.839773
22
196.327820
32
103.039024
13
-5.886552
23
194.748077
33
107.625153
0
3DFACE
8
0
70
0
10
-5.886552
20
194.748077
30
107.625153
11
11.839773
21
196.327820
31
103.039024
12
12.393101
22
199.639084
32
98.831314
13
-5.743834
23
199.249725
33
104.661278
0
3DFACE
8
0
70
0
10
9.979163
20
168.633530
30
105.078453
11
24.362432
21
160.656998
31
95.137093
12
36.265327
22
195.194351
32
92.224602
13
11.839773
23
196.327820
33
103.039024
0
3DFACE
8
0
70
0
10
11.839773
20
196.327820
30
103.039024
11
36.265327
21
195.194351
31
92.224602
12
35.336033
22
198.994156
32
88.242317
13
12.393101
23
199.639084
33
98.831314
0
3DFACE
8
0
70
0
10
24.362432
20
160.656998
30
95.137093
11
47.772171
21
154.545135
31
79.067604
12
52.110809
22
188.527695
32
64.806084
13
36.265327
23
195.194351
33
92.224602
0
3DFACE
8
0
70
0
10
36.265327
20
195.194351
30
92.224602
11
52.110809
21
188.527695
31
64.806084
12
44.685448
22
193.682114
32
63.496441
13
35.336033
23
198.994156
33
88.242317
0
3DFACE
8
0
70
0
10
47.772171
20
154.545135
30
79.067604
11
53.524593
21
150.610107
31
45.309242
12
57.307053
22
188.819092
32
41.703957
13
52.110809
23
188.527695
33
64.806084
0
3DFACE
8
0
70
0
10
52.110809
20
188.527695
30
64.806084
11
57.307053
21
188.819092
31
41.703957
12
51.334488
22
192.061508
32
42.910282
13
44.685448
23
193.682114
33
63.496441
0
3DFACE
8
0
70
0
10
53.524593
20
150.610107
30
45.309242
11
38.894684
21
147.207367
31
21.008530
12
39.760666
22
181.670441
32
19.802517
13
57.307053
23
188.819092
33
41.703957
0
3DFACE
8
0
70
0
10
57.307053
20
188.819092
30
41.703957
11
39.760666
21
181.670441
31
19.802517
12
34.618355
22
186.791550
32
22.988104
13
51.334488
23
192.061508
33
42.910282
0
3DFACE
8
0
70
0
10
38.894684
20
147.207367
30
21.008530
11
-0.764879
21
146.843521
31
1.261059
12
-0.693352
22
178.719879
32
-0.224379
13
39.760666
23
181.670441
33
19.802517
0
3DFACE
8
0
70
0
10
39.760666
20
181.670441
30
19.802517
11
-0.693352
21
178.719879
31
-0.224379
12
-0.890529
22
183.198441
32
3.870492
13
34.618355
23
186.791550
33
22.988104
0
3DFACE
8
0
70
0
10
53.043221
20
97.506294
30
55.188755
11
39.230629
21
97.718353
31
26.823326
12
41.472603
22
120.534973
32
16.789608
13
59.882736
23
112.605019
33
51.191475
0
3DFACE
8
0
70
0
10
39.230629
20
97.718353
30
26.823326
11
-1.700402
21
112.145493
31
2.917608
12
-1.158117
22
119.051178
32
3.589415
13
41.472603
23
120.534973
33
16.789608
0
3DFACE
8
0
70
0
10
41.674480
20
70.563843
30
71.459801
11
31.760996
21
65.109131
31
56.523533
12
39.230629
22
97.718353
32
26.823326
13
53.043221
23
97.506294
33
55.188755
0
3DFACE
8
0
70
0
10
15.412651
20
46.944572
30
103.561844
11
13.680498
21
47.565029
31
86.770798
12
31.760996
22
65.109131
32
56.523533
13
41.674480
23
70.563843
33
71.459801
0
3DFACE
8
0
70
0
10
13.680498
20
47.565029
30
86.770798
11
-4.903175
21
46.077095
31
81.364723
12
-3.810212
22
66.097717
32
58.666672
13
31.760996
23
65.109131
33
56.523533
0
3DFACE
8
0
70
0
10
-6.086520
20
35.567516
30
105.939774
11
-4.903175
21
46.077095
31
81.364723
12
13.680498
22
47.565029
32
86.770798
13
13.680498
23
47.565029
33
86.770798
0
3DFACE
8
0
70
0
10
-6.086520
20
35.567516
30
105.939774
11
13.680498
21
47.565029
31
86.770798
12
15.412651
22
46.944572
32
103.561844
13
15.412651
23
46.944572
33
103.561844
0
3DFACE
8
0
70
0
10
-6.898320
20
118.113037
30
128.434784
11
-7.203269
21
134.889618
31
134.767792
12
-27.520575
22
134.720856
32
127.015816
13
-17.401405
23
118.584160
33
122.435463
0
3DFACE
8
0
70
0
10
-7.203269
20
134.889618
30
134.767792
11
-6.994507
21
145.629623
31
130.432343
12
-20.044636
22
142.505722
32
126.112686
13
-27.520575
23
134.720856
33
127.015816
0
3DFACE
8
0
70
0
10
-17.401405
20
118.584160
30
122.435463
11
-27.520575
21
134.720856
31
127.015816
12
-30.325928
22
132.456955
32
108.547112
13
-18.271536
23
115.560020
33
108.878296
0
3DFACE
8
0
70
0
10
-6.898320
20
118.113037
30
128.434784
11
-17.401405
21
118.584160
31
122.435463
12
-18.271536
22
115.560020
32
108.878296
13
-6.554652
23
113.029472
33
115.661682
0
3DFACE
8
0
70
0
10
-6.994507
20
145.629623
30
130.432343
11
-6.539031
21
146.881866
31
115.337280
12
-21.780878
22
143.293945
32
109.030434
13
-20.044636
23
142.505722
33
126.112686
0
3DFACE
8
0
70
0
10
-27.520575
20
134.720856
30
127.015816
11
-20.044636
21
142.505722
31
126.112686
12
-21.780878
22
143.293945
32
109.030434
13
-30.325928
23
132.456955
33
108.547112
0
3DFACE
8
0
70
0
10
-10.091219
20
155.392670
30
110.907852
11
-22.738623
21
163.002335
31
108.585587
12
-21.704479
22
145.280884
32
106.726364
13
-10.134099
23
147.104996
33
111.798355
0
3DFACE
8
0
70
0
10
-21.704479
20
145.280884
30
106.726364
11
-22.738623
21
163.002335
31
108.585587
12
-34.752476
22
155.389191
32
97.702942
13
-30.972342
23
146.127609
33
100.930992
0
3DFACE
8
0
70
0
10
-20.836359
20
99.171005
30
128.889267
11
-7.257659
21
98.986404
31
130.261353
12
-6.809057
22
115.132927
32
120.945023
13
-16.132862
23
116.416817
33
117.608253
0
3DFACE
8
0
70
0
10
-58.279266
20
114.451881
30
79.239990
11
-41.068832
21
97.192139
31
108.220245
12
-33.301308
22
117.938820
32
101.952675
13
-56.587254
23
124.387726
33
79.126717
0
3DFACE
8
0
70
0
10
-16.132862
20
116.416817
30
117.608253
11
-31.528263
21
116.655182
31
116.743759
12
-39.484921
22
101.158188
32
118.886116
13
-20.836359
23
99.171005
33
128.889267
0
3DFACE
8
0
70
0
10
-51.442268
20
152.844635
30
78.687119
11
-37.919231
21
157.034180
31
96.409164
12
-34.010635
22
160.656998
32
92.326294
13
-56.553150
23
154.545135
33
74.044098
0
3DFACE
8
0
70
0
10
-5.878783
20
158.906677
30
107.463806
11
-21.070675
21
169.633209
31
103.582619
12
-21.998529
22
165.159470
32
109.539261
13
-6.338871
23
157.037567
33
112.348114
0
3DFACE
8
0
70
0
10
-21.070675
20
169.633209
30
103.582619
11
-34.010635
21
160.656998
31
92.326294
12
-37.919231
22
157.034180
32
96.409164
13
-21.998529
23
165.159470
33
109.539261
0
3DFACE
8
0
70
0
10
-7.148722
20
74.810921
30
127.999008
11
-6.999788
21
88.018105
31
124.906021
12
-21.386423
22
90.712051
32
118.464645
13
-24.824755
23
82.393921
33
120.455887
0
3DFACE
8
0
70
0
10
-6.086520
20
35.567516
30
105.939774
11
-7.148722
21
74.810921
31
127.999008
12
-24.824755
22
82.393921
32
120.455887
13
-27.257750
23
46.944572
33
101.507179
0
3DFACE
8
0
70
0
10
-58.279266
20
114.451881
30
79.239990
11
-62.341133
21
104.219360
31
82.381485
12
-39.898346
22
94.258354
32
98.814003
13
-41.068832
23
97.192139
33
108.220245
0
3DFACE
8
0
70
0
10
-39.898346
20
94.258354
30
98.814003
11
-62.341133
21
104.219360
31
82.381485
12
-60.066444
22
97.506294
32
49.742264
13
-50.313652
23
70.563843
33
67.030365
0
3DFACE
8
0
70
0
10
-27.257750
20
46.944572
30
101.507179
11
-24.824755
21
82.393921
31
120.455887
12
-39.898346
22
94.258354
32
98.814003
13
-50.313652
23
70.563843
33
67.030365
0
3DFACE
8
0
70
0
10
-24.824755
20
82.393921
30
120.455887
11
-21.386423
21
90.712051
31
118.464645
12
-41.068832
22
97.192139
32
108.220245
13
-39.898346
23
94.258354
33
98.814003
0
3DFACE
8
0
70
0
10
-7.257659
20
98.986404
30
130.261353
11
-20.836359
21
99.171005
31
128.889267
12
-21.386423
22
90.712051
32
118.464645
13
-6.999788
23
88.018105
33
124.906021
0
3DFACE
8
0
70
0
10
-6.809057
20
115.132927
30
120.945023
11
-6.554652
21
113.029472
31
115.661682
12
-18.271536
22
115.560020
32
108.878296
13
-16.132862
23
116.416817
33
117.608253
0
3DFACE
8
0
70
0
10
-31.528263
20
116.655182
30
116.743759
11
-16.132862
21
116.416817
31
117.608253
12
-18.271536
22
115.560020
32
108.878296
13
-33.301308
23
117.938820
33
101.952675
0
POINT
8
0
70
0
10
-59.922890
20
99.970367
30
98.463905
0
3DFACE
8
0
70
0
10
-20.836359
20
99.171005
30
128.889267
11
-39.484921
21
101.158188
31
118.886116
12
-41.068832
22
97.192139
32
108.220245
13
-21.386423
23
90.712051
33
118.464645
0
3DFACE
8
0
70
0
10
-39.484921
20
101.158188
30
118.886116
11
-31.528263
21
116.655182
31
116.743759
12
-59.922890
22
99.970367
32
98.463905
13
-59.922890
23
99.970367
33
98.463905
0
3DFACE
8
0
70
0
10
-31.528263
20
116.655182
30
116.743759
11
-33.301308
21
117.938820
31
101.952675
12
-59.922890
22
99.970367
32
98.463905
13
-59.922890
23
99.970367
33
98.463905
0
3DFACE
8
0
70
0
10
-59.922890
20
99.970367
30
98.463905
11
-33.301308
21
117.938820
31
101.952675
12
-41.068832
22
97.192139
32
108.220245
13
-41.068832
23
97.192139
33
108.220245
0
3DFACE
8
0
70
0
10
-41.068832
20
97.192139
30
108.220245
11
-39.484921
21
101.158188
31
118.886116
12
-59.922890
22
99.970367
32
98.463905
13
-59.922890
23
99.970367
33
98.463905
0
3DFACE
8
0
70
0
10
-56.553150
20
154.545135
30
74.044098
11
-59.035400
21
150.610107
31
39.889221
12
-63.308769
22
150.366364
32
40.362213
13
-51.442268
23
152.844635
33
78.687119
0
3DFACE
8
0
70
0
10
-51.442268
20
152.844635
30
78.687119
11
-63.308769
21
150.366364
31
40.362213
12
-66.744888
22
144.191269
32
41.351803
13
-50.850628
23
144.953384
33
80.131935
0
3DFACE
8
0
70
0
10
-50.850628
20
144.953384
30
80.131935
11
-66.744888
21
144.191269
31
41.351803
12
-66.878075
22
132.198395
32
43.642490
13
-53.402130
23
133.045364
33
79.858742
0
3DFACE
8
0
70
0
10
-59.035400
20
150.610107
30
39.889221
11
-42.138325
21
147.207367
31
17.106606
12
-44.917290
22
148.561157
32
14.337346
13
-63.308769
23
150.366364
33
40.362213
0
3DFACE
8
0
70
0
10
-66.744888
20
144.191269
30
41.351803
11
-63.308769
21
150.366364
31
40.362213
12
-44.917290
22
148.561157
32
14.337346
13
-48.493896
23
147.519440
33
10.939437
0
3DFACE
8
0
70
0
10
-66.878075
20
132.198395
30
43.642490
11
-66.744888
21
144.191269
31
41.351803
12
-48.493896
22
147.519440
32
10.939437
13
-45.543152
23
136.885239
33
9.530665
0
3DFACE
8
0
70
0
10
-42.138325
20
147.207367
30
17.106606
11
-0.764879
21
146.843521
31
1.261059
12
-0.877564
22
148.622803
32
-1.069312
13
-44.917290
23
148.561157
33
14.337346
0
3DFACE
8
0
70
0
10
-48.493896
20
147.519440
30
10.939437
11
-44.917290
21
148.561157
31
14.337346
12
-0.877564
22
148.622803
32
-1.069312
13
-0.859925
23
147.443558
33
-2.603269
0
3DFACE
8
0
70
0
10
-45.543152
20
136.885239
30
9.530665
11
-48.493896
21
147.519440
31
10.939437
12
-0.859925
22
147.443558
32
-2.603269
13
-0.933990
23
134.830032
33
-1.065151
0
3DFACE
8
0
70
0
10
-60.066444
20
97.506294
30
49.742264
11
-62.341133
21
104.219360
31
82.381485
12
-58.279266
22
114.451881
32
79.239990
13
-66.490242
23
112.605019
33
45.106327
0
3DFACE
8
0
70
0
10
-53.402130
20
133.045364
30
79.858742
11
-66.878075
21
132.198395
31
43.642490
12
-56.587254
22
124.387726
32
79.126717
13
-56.587254
23
124.387726
33
79.126717
0
3DFACE
8
0
70
0
10
-58.279266
20
114.451881
30
79.239990
11
-56.587254
21
124.387726
31
79.126717
12
-66.878075
22
132.198395
32
43.642490
13
-66.490242
23
112.605019
33
45.106327
0
3DFACE
8
0
70
0
10
-66.490242
20
112.605019
30
45.106327
11
-66.878075
21
132.198395
31
43.642490
12
-45.543152
22
136.885239
32
9.530665
13
-44.859898
23
120.534973
33
12.632503
0
3DFACE
8
0
70
0
10
-44.859898
20
120.534973
30
12.632503
11
-45.543152
21
136.885239
31
9.530665
12
-0.933990
22
134.830032
32
-1.065151
13
-1.158117
23
119.051178
33
3.589415
0
3DFACE
8
0
70
0
10
-5.878783
20
158.906677
30
107.463806
11
-5.886552
21
194.748077
31
107.625153
12
-23.090225
22
196.327820
32
101.357071
13
-21.070675
23
169.633209
33
103.582619
0
3DFACE
8
0
70
0
10
-5.886552
20
194.748077
30
107.625153
11
-5.743834
21
199.249725
31
104.661278
12
-23.236708
22
199.639084
32
97.115662
13
-23.090225
23
196.327820
33
101.357071
0
3DFACE
8
0
70
0
10
-21.070675
20
169.633209
30
103.582619
11
-23.090225
21
196.327820
31
101.357071
12
-46.363701
22
195.194351
32
88.245819
13
-34.010635
23
160.656998
33
92.326294
0
3DFACE
8
0
70
0
10
-23.090225
20
196.327820
30
101.357071
11
-23.236708
21
199.639084
31
97.115662
12
-45.056076
22
198.994156
32
84.371254
13
-46.363701
23
195.194351
33
88.245819
0
3DFACE
8
0
70
0
10
-34.010635
20
160.656998
30
92.326294
11
-46.363701
21
195.194351
31
88.245819
12
-59.501453
22
188.527695
32
59.431694
13
-56.553150
23
154.545135
33
74.044098
0
3DFACE
8
0
70
0
10
-46.363701
20
195.194351
30
88.245819
11
-45.056076
21
198.994156
31
84.371254
12
-51.984612
22
193.682114
32
58.841560
13
-59.501453
23
188.527695
33
59.431694
0
3DFACE
8
0
70
0
10
-56.553150
20
154.545135
30
74.044098
11
-59.501453
21
188.527695
31
59.431694
12
-62.453960
22
188.819092
32
35.937191
13
-59.035400
23
150.610107
33
39.889221
0
3DFACE
8
0
70
0
10
-59.501453
20
188.527695
30
59.431694
11
-51.984612
21
193.682114
31
58.841560
12
-56.624931
22
192.061508
32
37.711788
13
-62.453960
23
188.819092
33
35.937191
0
3DFACE
8
0
70
0
10
-59.035400
20
150.610107
30
39.889221
11
-62.453960
21
188.819092
31
35.937191
12
-42.884426
22
181.670441
32
15.822967
13
-42.138325
23
147.207367
33
17.106606
0
3DFACE
8
0
70
0
10
-62.453960
20
188.819092
30
35.937191
11
-56.624931
21
192.061508
31
37.711788
12
-38.071987
22
186.791550
32
19.487900
13
-42.884426
23
181.670441
33
15.822967
0
3DFACE
8
0
70
0
10
-42.138325
20
147.207367
30
17.106606
11
-42.884426
21
181.670441
31
15.822967
12
-0.693352
22
178.719879
32
-0.224379
13
-0.764879
23
146.843521
33
1.261059
0
3DFACE
8
0
70
0
10
-42.884426
20
181.670441
30
15.822967
11
-38.071987
21
186.791550
31
19.487900
12
-0.890529
22
183.198441
32
3.870492
13
-0.693352
23
178.719879
33
-0.224379
0
3DFACE
8
0
70
0
10
-60.066444
20
97.506294
30
49.742264
11
-66.490242
21
112.605019
31
45.106327
12
-44.859898
22
120.534973
32
12.632503
13
-43.283104
23
97.783638
33
25.475817
0
3DFACE
8
0
70
0
10
-43.283104
20
97.783638
30
25.475817
11
-44.859898
21
120.534973
31
12.632503
12
-1.158117
22
119.051178
32
3.589415
13
-1.700402
23
112.145493
33
2.917608
0
3DFACE
8
0
70
0
10
-50.313652
20
70.563843
30
67.030365
11
-60.066444
21
97.506294
31
49.742264
12
-43.283104
22
97.783638
32
25.475817
13
-37.265518
23
65.183479
33
54.988503
0
3DFACE
8
0
70
0
10
-27.257750
20
46.944572
30
101.507179
11
-50.313652
21
70.563843
31
67.030365
12
-37.265518
22
65.183479
32
54.988503
13
-23.920296
23
47.565029
33
84.960236
0
3DFACE
8
0
70
0
10
-23.920296
20
47.565029
30
84.960236
11
-37.265518
21
65.183479
31
54.988503
12
-3.810212
22
66.097717
32
58.666672
13
-4.903175
23
46.077095
33
81.364723
0
3DFACE
8
0
70
0
10
-6.086520
20
35.567516
30
105.939774
11
-23.920296
21
47.565029
31
84.960236
12
-4.903175
22
46.077095
32
81.364723
13
-4.903175
23
46.077095
33
81.364723
0
3DFACE
8
0
70
0
10
-6.086520
20
35.567516
30
105.939774
11
-27.257750
21
46.944572
31
101.507179
12
-23.920296
22
47.565029
32
84.960236
13
-23.920296
23
47.565029
33
84.960236
0
3DFACE
8
0
70
0
10
-10.134099
20
147.104996
30
111.798355
11
-6.539031
21
146.881866
31
115.337280
12
-6.338871
22
157.037567
32
112.348114
13
-10.091219
23
155.392670
33
110.907852
0
3DFACE
8
0
70
0
10
-21.704479
20
145.280884
30
106.726364
11
-21.780878
21
143.293945
31
109.030434
12
-6.539031
22
146.881866
32
115.337280
13
-10.134099
23
147.104996
33
111.798355
0
3DFACE
8
0
70
0
10
-22.738623
20
163.002335
30
108.585587
11
-10.091219
21
155.392670
31
110.907852
12
-6.338871
22
157.037567
32
112.348114
13
-21.998529
23
165.159470
33
109.539261
0
3DFACE
8
0
70
0
10
-21.704479
20
145.280884
30
106.726364
11
-30.972342
21
146.127609
31
100.930992
12
-33.996304
22
144.454849
32
101.838303
13
-21.780878
23
143.293945
33
109.030434
0
3DFACE
8
0
70
0
10
-30.972342
20
146.127609
30
100.930992
11
-34.752476
21
155.389191
31
97.702942
12
-37.919231
22
157.034180
32
96.409164
13
-33.996304
23
144.454849
33
101.838303
0
3DFACE
8
0
70
0
10
-22.738623
20
163.002335
30
108.585587
11
-21.998529
21
165.159470
31
109.539261
12
-37.919231
22
157.034180
32
96.409164
13
-34.752476
23
155.389191
33
97.702942
0
3DFACE
8
0
70
0
10
10.927411
20
162.370285
30
109.995972
11
9.929328
21
164.372314
31
111.077217
12
-6.338871
22
157.037567
32
112.348114
13
-2.111943
23
155.501190
33
111.481384
0
3DFACE
8
0
70
0
10
9.660686
20
144.723846
30
107.575127
11
-2.164828
21
146.861496
31
112.579666
12
-6.539031
22
146.881866
32
115.337280
13
9.238271
23
143.293945
33
110.524071
0
3DFACE
8
0
70
0
10
-2.164828
20
146.861496
30
112.579666
11
-2.111943
21
155.501190
31
111.481384
12
-6.338871
22
157.037567
32
112.348114
13
-6.539031
23
146.881866
33
115.337280
0
3DFACE
8
0
70
0
10
10.927411
20
162.370285
30
109.995972
11
24.028870
21
155.496414
31
97.903839
12
27.514881
22
157.034180
32
99.559967
13
9.929328
23
164.372314
33
111.077217
0
3DFACE
8
0
70
0
10
19.998259
20
145.625793
30
101.469162
11
23.002016
21
144.454849
31
104.582901
12
27.514881
22
157.034180
32
99.559967
13
24.028870
23
155.496414
33
97.903839
0
3DFACE
8
0
70
0
10
9.660686
20
144.723846
30
107.575127
11
9.238271
21
143.293945
31
110.524071
12
23.002016
22
144.454849
32
104.582901
13
19.998259
23
145.625793
33
101.469162
0
3DFACE
8
0
70
0
10
-1.700402
20
112.145493
30
2.917608
11
39.230629
21
97.718353
31
26.823326
12
67.334694
22
92.627464
32
-8.126990
13
-1.789612
23
103.218719
33
-7.788451
0
3DFACE
8
0
70
0
10
-1.789612
20
103.218719
30
-7.788451
11
-70.048698
21
91.021881
31
-7.033662
12
-43.283104
22
97.783638
32
25.475817
13
-1.700402
23
112.145493
33
2.917608
0
3DFACE
8
0
70
0
10
-70.048698
20
91.021881
30
-7.033662
11
-64.652687
21
53.719936
31
53.852570
12
-43.283104
22
97.783638
32
25.475817
13
-43.283104
23
97.783638
33
25.475817
0
3DFACE
8
0
70
0
10
-64.652687
20
53.719936
30
53.852570
11
-37.265518
21
65.183479
31
54.988503
12
-43.283104
22
97.783638
32
25.475817
13
-43.283104
23
97.783638
33
25.475817
0
3DFACE
8
0
70
0
10
60.988014
20
53.568436
30
53.717564
11
39.230629
21
97.718353
31
26.823326
12
31.760996
22
65.109131
32
56.523533
13
31.760996
23
65.109131
33
56.523533
0
3DFACE
8
0
70
0
10
67.334694
20
92.627464
30
-8.126990
11
39.230629
21
97.718353
31
26.823326
12
60.988014
22
53.568436
32
53.717564
13
60.988014
23
53.568436
33
53.717564
0
3DFACE
8
0
70
0
10
-1.780760
20
40.762051
30
60.490982
11
-37.265518
21
65.183479
31
54.988503
12
-64.652687
22
53.719936
32
53.852570
13
-64.652687
23
53.719936
33
53.852570
0
3DFACE
8
0
70
0
10
-3.810212
20
66.097717
30
58.666672
11
-37.265518
21
65.183479
31
54.988503
12
-1.780760
22
40.762051
32
60.490982
13
-1.780760
23
40.762051
33
60.490982
0
3DFACE
8
0
70
0
10
-3.810212
20
66.097717
30
58.666672
11
-1.780760
21
40.762051
31
60.490982
12
31.760996
22
65.109131
32
56.523533
13
31.760996
23
65.109131
33
56.523533
0
3DFACE
8
0
70
0
10
-1.780760
20
40.762051
30
60.490982
11
60.988014
21
53.568436
31
53.717564
12
31.760996
22
65.109131
32
56.523533
13
31.760996
23
65.109131
33
56.523533
0
3DFACE
8
0
70
0
10
-0.890529
20
183.198441
30
3.870492
11
-2.307071
21
256.761505
31
26.920818
12
11.632722
22
254.694931
32
34.338837
13
34.618355
23
186.791550
33
22.988104
0
3DFACE
8
0
70
0
10
34.618355
20
186.791550
30
22.988104
11
11.632722
21
254.694931
31
34.338837
12
20.775267
22
253.288666
32
44.913635
13
51.334488
23
192.061508
33
42.910282
0
3DFACE
8
0
70
0
10
51.334488
20
192.061508
30
42.910282
11
20.775267
21
253.288666
31
44.913635
12
18.197744
22
253.566101
32
55.280960
13
44.685448
23
193.682114
33
63.496441
0
3DFACE
8
0
70
0
10
44.685448
20
193.682114
30
63.496441
11
18.197744
21
253.566101
31
55.280960
12
15.323905
22
253.863770
32
68.145554
13
35.336033
23
198.994156
33
88.242317
0
3DFACE
8
0
70
0
10
-5.743834
20
199.249725
30
104.661278
11
12.393101
21
199.639084
31
98.831314
12
4.476270
22
255.367935
32
74.034477
13
-4.223265
23
256.586487
33
77.381775
0
3DFACE
8
0
70
0
10
-0.890529
20
183.198441
30
3.870492
11
-38.071987
21
186.791550
31
19.487900
12
-16.769510
22
258.780365
32
33.266064
13
-2.307071
23
256.761505
33
26.920818
0
3DFACE
8
0
70
0
10
-38.071987
20
186.791550
30
19.487900
11
-56.624931
21
192.061508
31
37.711788
12
-26.687834
22
260.115814
32
43.120922
13
-16.769510
23
258.780365
33
33.266064
0
3DFACE
8
0
70
0
10
-56.624931
20
192.061508
30
37.711788
11
-51.984612
21
193.682114
31
58.841560
12
-24.903948
22
259.765869
32
53.652981
13
-26.687834
23
260.115814
33
43.120922
0
3DFACE
8
0
70
0
10
-51.984612
20
193.682114
30
58.841560
11
-45.056076
21
198.994156
31
84.371254
12
-23.013975
22
259.378326
32
66.697502
13
-24.903948
23
259.765869
33
53.652981
0
3DFACE
8
0
70
0
10
-5.743834
20
199.249725
30
104.661278
11
-4.223265
21
256.586487
31
77.381775
12
-12.644025
22
257.830536
32
73.387833
13
-23.236708
23
199.639084
33
97.115662
0
3DFACE
8
0
70
0
10
35.336033
20
198.994156
30
88.242317
11
15.323905
21
253.863770
31
68.145554
12
4.476270
22
255.367935
32
74.034477
13
12.393101
23
199.639084
33
98.831314
0
3DFACE
8
0
70
0
10
-45.056076
20
198.994156
30
84.371254
11
-23.236708
21
199.639084
31
97.115662
12
-12.644025
22
257.830536
32
73.387833
13
-23.013975
23
259.378326
33
66.697502
0
3DFACE
8
0
70
0
10
7.802064
20
320.825989
30
69.425964
11
21.453957
21
325.751984
31
64.349907
12
11.174175
22
338.782196
32
64.121826
13
11.174175
23
338.782196
33
64.121826
0
3DFACE
8
0
70
0
10
18.211714
20
307.814911
30
64.246239
11
21.453957
21
325.751984
31
64.349907
12
7.802064
22
320.825989
32
69.425964
13
7.802064
23
320.825989
33
69.425964
0
3DFACE
8
0
70
0
10
4.689672
20
302.907959
30
63.914486
11
18.211714
21
307.814911
31
64.246239
12
7.802064
22
320.825989
32
69.425964
13
7.802064
23
320.825989
33
69.425964
0
3DFACE
8
0
70
0
10
4.689672
20
302.907959
30
63.914486
11
7.802064
21
320.825989
31
69.425964
12
-5.590096
22
315.938080
32
63.686405
13
-5.590096
23
315.938080
33
63.686405
0
3DFACE
8
0
70
0
10
-5.590096
20
315.938080
30
63.686405
11
7.802064
21
320.825989
31
69.425964
12
-2.347851
22
333.875122
32
63.790070
13
-2.347851
23
333.875122
33
63.790070
0
3DFACE
8
0
70
0
10
7.802064
20
320.825989
30
69.425964
11
11.174175
21
338.782196
31
64.121826
12
-2.347851
22
333.875122
32
63.790070
13
-2.347851
23
333.875122
33
63.790070
0
3DFACE
8
0
70
0
10
21.453957
20
325.751984
30
64.349907
11
27.368450
21
327.830566
31
51.431713
12
12.830651
22
346.257965
32
51.109158
13
11.174175
23
338.782196
33
64.121826
0
3DFACE
8
0
70
0
10
22.783207
20
302.463623
30
51.285103
11
27.368450
21
327.830566
31
51.431713
12
21.453957
22
325.751984
32
64.349907
13
18.211714
23
307.814911
33
64.246239
0
3DFACE
8
0
70
0
10
3.660183
20
295.524170
30
50.815941
11
22.783207
21
302.463623
31
51.285103
12
18.211714
22
307.814911
32
64.246239
13
4.689672
23
302.907959
33
63.914486
0
3DFACE
8
0
70
0
10
3.660183
20
295.524170
30
50.815941
11
4.689672
21
302.907959
31
63.914486
12
-5.590096
22
315.938080
32
63.686405
13
-10.877625
23
313.951508
33
50.493382
0
3DFACE
8
0
70
0
10
-10.877625
20
313.951508
30
50.493382
11
-5.590096
21
315.938080
31
63.686405
12
-2.347851
22
333.875122
32
63.790070
13
-6.292382
23
339.318451
33
50.639996
0
3DFACE
8
0
70
0
10
-2.347851
20
333.875122
30
63.790070
11
11.174175
21
338.782196
31
64.121826
12
12.830651
22
346.257965
32
51.109158
13
-6.292382
23
339.318451
33
50.639996
0
3DFACE
8
0
70
0
10
22.080938
20
325.843933
30
38.238689
11
11.801157
21
338.874054
31
38.010605
12
12.830651
22
346.257965
32
51.109158
13
27.368450
23
327.830566
33
51.431713
0
3DFACE
8
0
70
0
10
22.783207
20
302.463623
30
51.285103
11
18.838692
21
307.906830
31
38.135021
12
22.080938
22
325.843933
32
38.238689
13
27.368450
23
327.830566
33
51.431713
0
3DFACE
8
0
70
0
10
3.660183
20
295.524170
30
50.815941
11
5.316654
21
302.999878
31
37.803272
12
18.838692
22
307.906830
32
38.135021
13
22.783207
23
302.463623
33
51.285103
0
3DFACE
8
0
70
0
10
3.660183
20
295.524170
30
50.815941
11
-10.877625
21
313.951508
31
50.493382
12
-4.963113
22
316.029999
32
37.575188
13
5.316654
23
302.999878
33
37.803272
0
3DFACE
8
0
70
0
10
-10.877625
20
313.951508
30
50.493382
11
-6.292382
21
339.318451
31
50.639996
12
-1.720869
22
333.967041
32
37.678856
13
-4.963113
23
316.029999
33
37.575188
0
3DFACE
8
0
70
0
10
-1.720869
20
333.967041
30
37.678856
11
-6.292382
21
339.318451
31
50.639996
12
12.830651
22
346.257965
32
51.109158
13
11.801157
23
338.874054
33
38.010605
0
3DFACE
8
0
70
0
10
8.688744
20
320.955994
30
32.499119
11
11.801157
21
338.874054
31
38.010605
12
22.080938
22
325.843933
32
38.238689
13
22.080938
23
325.843933
33
38.238689
0
3DFACE
8
0
70
0
10
18.838692
20
307.906830
30
38.135021
11
8.688744
21
320.955994
31
32.499119
12
22.080938
22
325.843933
32
38.238689
13
22.080938
23
325.843933
33
38.238689
0
3DFACE
8
0
70
0
10
5.316654
20
302.999878
30
37.803272
11
8.688744
21
320.955994
31
32.499119
12
18.838692
22
307.906830
32
38.135021
13
18.838692
23
307.906830
33
38.135021
0
3DFACE
8
0
70
0
10
5.316654
20
302.999878
30
37.803272
11
-4.963113
21
316.029999
31
37.575188
12
8.688744
22
320.955994
32
32.499119
13
8.688744
23
320.955994
33
32.499119
0
3DFACE
8
0
70
0
10
-4.963113
20
316.029999
30
37.575188
11
-1.720869
21
333.967041
31
37.678856
12
8.688744
22
320.955994
32
32.499119
13
8.688744
23
320.955994
33
32.499119
0
3DFACE
8
0
70
0
10
8.688744
20
320.955994
30
32.499119
11
-1.720869
21
333.967041
31
37.678856
12
11.801157
22
338.874054
32
38.010605
13
11.801157
23
338.874054
33
38.010605
0
3DFACE
8
0
70
0
10
21.385447
20
117.938820
30
104.585968
11
46.756824
21
124.387726
31
84.102966
12
33.275898
22
132.315857
32
108.422638
13
33.275898
23
132.315857
33
108.422638
0
3DFACE
8
0
70
0
10
46.756824
20
124.387726
30
84.102966
11
43.516098
21
133.045364
31
84.525574
12
33.275898
22
132.315857
32
108.422638
13
33.275898
23
132.315857
33
108.422638
0
3DFACE
8
0
70
0
10
5.759783
20
115.560020
30
110.035461
11
21.385447
21
117.938820
31
104.585968
12
17.790226
22
132.456955
32
110.864014
13
17.790226
23
132.456955
33
110.864014
0
3DFACE
8
0
70
0
10
21.385447
20
117.938820
30
104.585968
11
33.275898
21
132.315857
31
108.422638
12
17.790226
22
132.456955
32
110.864014
13
17.790226
23
132.456955
33
110.864014
0
3DFACE
8
0
70
0
10
33.275898
20
132.315857
30
108.422638
11
43.516098
21
133.045364
31
84.525574
12
23.002016
22
144.454849
32
104.582901
13
23.002016
23
144.454849
33
104.582901
0
3DFACE
8
0
70
0
10
43.516098
20
133.045364
30
84.525574
11
40.950146
21
144.953384
31
84.552361
12
23.002016
22
144.454849
32
104.582901
13
23.002016
23
144.454849
33
104.582901
0
3DFACE
8
0
70
0
10
17.790226
20
132.456955
30
110.864014
11
23.002016
21
144.454849
31
104.582901
12
9.238271
22
143.293945
32
110.524071
13
9.238271
23
143.293945
33
110.524071
0
3DFACE
8
0
70
0
10
33.275898
20
132.315857
30
108.422638
11
23.002016
21
144.454849
31
104.582901
12
17.790226
22
132.456955
32
110.864014
13
17.790226
23
132.456955
33
110.864014
0
3DFACE
8
0
70
0
10
23.002016
20
144.454849
30
104.582901
11
40.950146
21
144.953384
31
84.552361
12
27.514881
22
157.034180
32
99.559967
13
27.514881
23
157.034180
33
99.559967
0
3DFACE
8
0
70
0
10
40.950146
20
144.953384
30
84.552361
11
41.790062
21
152.844635
31
83.176468
12
27.514881
22
157.034180
32
99.559967
13
27.514881
23
157.034180
33
99.559967
0
3DFACE
8
0
70
0
10
-56.587254
20
124.387726
30
79.126717
11
-45.505383
21
132.315857
31
104.629143
12
-53.402130
22
133.045364
32
79.858742
13
-53.402130
23
133.045364
33
79.858742
0
3DFACE
8
0
70
0
10
-33.301308
20
117.938820
30
101.952675
11
-45.505383
21
132.315857
31
104.629143
12
-56.587254
22
124.387726
32
79.126717
13
-56.587254
23
124.387726
33
79.126717
0
3DFACE
8
0
70
0
10
-33.301308
20
117.938820
30
101.952675
11
-30.325928
21
132.456955
31
108.547112
12
-45.505383
22
132.315857
32
104.629143
13
-45.505383
23
132.315857
33
104.629143
0
3DFACE
8
0
70
0
10
-18.271536
20
115.560020
30
108.878296
11
-30.325928
21
132.456955
31
108.547112
12
-33.301308
22
117.938820
32
101.952675
13
-33.301308
23
117.938820
33
101.952675
0
3DFACE
8
0
70
0
10
-53.402130
20
133.045364
30
79.858742
11
-33.996304
21
144.454849
31
101.838303
12
-50.850628
22
144.953384
32
80.131935
13
-50.850628
23
144.953384
33
80.131935
0
3DFACE
8
0
70
0
10
-45.505383
20
132.315857
30
104.629143
11
-33.996304
21
144.454849
31
101.838303
12
-53.402130
22
133.045364
32
79.858742
13
-53.402130
23
133.045364
33
79.858742
0
3DFACE
8
0
70
0
10
-30.325928
20
132.456955
30
108.547112
11
-21.780878
21
143.293945
31
109.030434
12
-33.996304
22
144.454849
32
101.838303
13
-33.996304
23
144.454849
33
101.838303
0
3DFACE
8
0
70
0
10
-45.505383
20
132.315857
30
104.629143
11
-30.325928
21
132.456955
31
108.547112
12
-33.996304
22
144.454849
32
101.838303
13
-33.996304
23
144.454849
33
101.838303
0
3DFACE
8
0
70
0
10
-50.850628
20
144.953384
30
80.131935
11
-37.919231
21
157.034180
31
96.409164
12
-51.442268
22
152.844635
32
78.687119
13
-51.442268
23
152.844635
33
78.687119
0
3DFACE
8
0
70
0
10
-33.996304
20
144.454849
30
101.838303
11
-37.919231
21
157.034180
31
96.409164
12
-50.850628
22
144.953384
32
80.131935
13
-50.850628
23
144.953384
33
80.131935
0
3DFACE
8
0
70
0
10
29.725426
20
-117.363022
30
58.453217
11
28.783396
21
-93.310257
31
39.460304
12
22.125725
22
-95.046883
32
10.674974
13
22.125725
23
-95.046883
33
10.674974
0
3DFACE
8
0
70
0
10
29.725426
20
-117.363022
30
58.453217
11
22.125725
21
-95.046883
31
10.674974
12
23.550646
22
-111.168045
32
33.302689
13
23.550646
23
-111.168045
33
33.302689
0
3DFACE
8
0
70
0
10
29.725426
20
-117.363022
30
58.453217
11
78.777473
21
-95.156021
31
33.804314
12
28.783396
22
-93.310257
32
39.460304
13
28.783396
23
-93.310257
33
39.460304
0
3DFACE
8
0
70
0
10
29.725426
20
-117.363022
30
58.453217
11
72.710785
21
-118.179199
31
53.148624
12
78.777473
22
-95.156021
32
33.804314
13
78.777473
23
-95.156021
33
33.804314
0
3DFACE
8
0
70
0
10
72.710785
20
-118.179199
30
53.148624
11
92.819687
21
-96.700157
31
16.932518
12
78.777473
22
-95.156021
32
33.804314
13
78.777473
23
-95.156021
33
33.804314
0
3DFACE
8
0
70
0
10
72.710785
20
-118.179199
30
53.148624
11
85.239441
21
-115.305573
31
38.336533
12
92.819687
22
-96.700157
32
16.932518
13
92.819687
23
-96.700157
33
16.932518
0
3DFACE
8
0
70
0
10
35.935295
20
-105.968735
30
8.604412
11
22.125725
21
-95.046883
31
10.674974
12
34.047634
22
-97.299576
32
-17.680931
13
34.047634
23
-97.299576
33
-17.680931
0
3DFACE
8
0
70
0
10
23.550646
20
-111.168045
30
33.302689
11
22.125725
21
-95.046883
31
10.674974
12
35.935295
22
-105.968735
32
8.604412
13
35.935295
23
-105.968735
33
8.604412
0
3DFACE
8
0
70
0
10
76.747200
20
-110.772911
30
20.746901
11
82.199234
21
-97.749077
31
-3.337494
12
92.819687
22
-96.700157
32
16.932518
13
92.819687
23
-96.700157
33
16.932518
0
3DFACE
8
0
70
0
10
85.239441
20
-115.305573
30
38.336533
11
76.747200
21
-110.772911
31
20.746901
12
92.819687
22
-96.700157
32
16.932518
13
92.819687
23
-96.700157
33
16.932518
0
3DFACE
8
0
70
0
10
35.935295
20
-105.968735
30
8.604412
11
34.047634
21
-97.299576
31
-17.680931
12
82.199234
22
-97.749077
32
-3.337494
13
82.199234
23
-97.749077
33
-3.337494
0
3DFACE
8
0
70
0
10
76.747200
20
-110.772911
30
20.746901
11
35.935295
21
-105.968735
31
8.604412
12
82.199234
22
-97.749077
32
-3.337494
13
82.199234
23
-97.749077
33
-3.337494
0
3DFACE
8
0
70
0
10
-47.749561
20
-120.286514
30
62.215740
11
-36.788849
21
-114.985970
31
39.472481
12
-29.910460
22
-100.469635
32
16.095303
13
-29.910460
23
-100.469635
33
16.095303
0
3DFACE
8
0
70
0
10
-47.749561
20
-120.286514
30
62.215740
11
-29.910460
21
-100.469635
31
16.095303
12
-41.791286
22
-96.158157
32
42.311089
13
-41.791286
23
-96.158157
33
42.311089
0
3DFACE
8
0
70
0
10
-47.749561
20
-120.286514
30
62.215740
11
-41.791286
21
-96.158157
31
42.311089
12
-89.841049
22
-95.887253
32
27.700018
13
-89.841049
23
-95.887253
33
27.700018
0
3DFACE
8
0
70
0
10
-47.749561
20
-120.286514
30
62.215740
11
-89.841049
21
-95.887253
31
27.700018
12
-88.957474
22
-119.174286
32
49.242073
13
-88.957474
23
-119.174286
33
49.242073
0
3DFACE
8
0
70
0
10
-88.957474
20
-119.174286
30
49.242073
11
-89.841049
21
-95.887253
31
27.700018
12
-100.500740
22
-98.023247
32
9.025397
13
-100.500740
23
-98.023247
33
9.025397
0
3DFACE
8
0
70
0
10
-88.957474
20
-119.174286
30
49.242073
11
-100.500740
21
-98.023247
31
9.025397
12
-98.387177
22
-116.054695
32
32.863140
13
-98.387177
23
-116.054695
33
32.863140
0
3DFACE
8
0
70
0
10
-44.153687
20
-109.783127
30
13.732072
11
-36.356445
21
-104.314049
31
-13.137091
12
-29.910460
22
-100.469635
32
16.095303
13
-29.910460
23
-100.469635
33
16.095303
0
3DFACE
8
0
70
0
10
-36.788849
20
-114.985970
30
39.472481
11
-44.153687
21
-109.783127
31
13.732072
12
-29.910460
22
-100.469635
32
16.095303
13
-29.910460
23
-100.469635
33
16.095303
0
3DFACE
8
0
70
0
10
-98.387177
20
-116.054695
30
32.863140
11
-100.500740
21
-98.023247
31
9.025397
12
-86.620148
22
-112.347092
32
17.727686
13
-86.620148
23
-112.347092
33
17.727686
0
3DFACE
8
0
70
0
10
-86.620148
20
-112.347092
30
17.727686
11
-100.500740
21
-98.023247
31
9.025397
12
-86.308403
22
-101.188576
32
-8.341301
13
-86.308403
23
-101.188576
33
-8.341301
0
3DFACE
8
0
70
0
10
-86.620148
20
-112.347092
30
17.727686
11
-86.308403
21
-101.188576
31
-8.341301
12
-44.153687
22
-109.783127
32
13.732072
13
-44.153687
23
-109.783127
33
13.732072
0
3DFACE
8
0
70
0
10
-44.153687
20
-109.783127
30
13.732072
11
-86.308403
21
-101.188576
31
-8.341301
12
-36.356445
22
-104.314049
32
-13.137091
13
-36.356445
23
-104.314049
33
-13.137091
0
3DFACE
8
0
70
0
10
31.444483
20
-122.782654
30
29.362371
11
29.725426
21
-117.363022
31
58.453217
12
23.550646
22
-111.168045
32
33.302689
13
23.550646
23
-111.168045
33
33.302689
0
3DFACE
8
0
70
0
10
24.995043
20
-127.389343
30
-8.224122
11
31.444483
21
-122.782654
31
29.362371
12
23.550646
22
-111.168045
32
33.302689
13
23.550646
23
-111.168045
33
33.302689
0
3DFACE
8
0
70
0
10
71.360596
20
-125.635139
30
20.001001
11
72.710785
21
-118.179199
31
53.148624
12
31.444483
22
-122.782654
32
29.362371
13
31.444483
23
-122.782654
33
29.362371
0
3DFACE
8
0
70
0
10
31.444483
20
-122.782654
30
29.362371
11
72.710785
21
-118.179199
31
53.148624
12
29.725426
22
-117.363022
32
58.453217
13
29.725426
23
-117.363022
33
58.453217
0
3DFACE
8
0
70
0
10
81.732056
20
-132.491348
30
-4.797189
11
85.239441
21
-115.305573
31
38.336533
12
71.360596
22
-125.635139
32
20.001001
13
71.360596
23
-125.635139
33
20.001001
0
3DFACE
8
0
70
0
10
71.360596
20
-125.635139
30
20.001001
11
85.239441
21
-115.305573
31
38.336533
12
72.710785
22
-118.179199
32
53.148624
13
72.710785
23
-118.179199
33
53.148624
0
3DFACE
8
0
70
0
10
24.995043
20
-127.389343
30
-8.224122
11
23.550646
21
-111.168045
31
33.302689
12
35.935295
22
-105.968735
32
8.604412
13
35.935295
23
-105.968735
33
8.604412
0
3DFACE
8
0
70
0
10
7.779199
20
-131.316849
30
-48.790218
11
24.995043
21
-127.389343
31
-8.224122
12
35.935295
22
-105.968735
32
8.604412
13
35.935295
23
-105.968735
33
8.604412
0
3DFACE
8
0
70
0
10
91.288834
20
-138.940094
30
-41.480759
11
76.747200
21
-110.772911
31
20.746901
12
81.732056
22
-132.491348
32
-4.797189
13
81.732056
23
-132.491348
33
-4.797189
0
3DFACE
8
0
70
0
10
81.732056
20
-132.491348
30
-4.797189
11
76.747200
21
-110.772911
31
20.746901
12
85.239441
22
-115.305573
32
38.336533
13
85.239441
23
-115.305573
33
38.336533
0
3DFACE
8
0
70
0
10
7.779199
20
-131.316849
30
-48.790218
11
35.935295
21
-105.968735
31
8.604412
12
91.288834
22
-138.940094
32
-41.480759
13
91.288834
23
-138.940094
33
-41.480759
0
3DFACE
8
0
70
0
10
91.288834
20
-138.940094
30
-41.480759
11
35.935295
21
-105.968735
31
8.604412
12
76.747200
22
-110.772911
32
20.746901
13
76.747200
23
-110.772911
33
20.746901
0
3DFACE
8
0
70
0
10
-30.037359
20
-128.774704
30
-4.300931
11
-36.788849
21
-114.985970
31
39.472481
12
-42.554726
22
-125.340065
32
32.153202
13
-42.554726
23
-125.340065
33
32.153202
0
3DFACE
8
0
70
0
10
-42.554726
20
-125.340065
30
32.153202
11
-36.788849
21
-114.985970
31
39.472481
12
-47.749561
22
-120.286514
32
62.215740
13
-47.749561
23
-120.286514
33
62.215740
0
3DFACE
8
0
70
0
10
-42.554726
20
-125.340065
30
32.153202
11
-47.749561
21
-120.286514
31
62.215740
12
-88.957474
22
-119.174286
32
49.242073
13
-88.957474
23
-119.174286
33
49.242073
0
3DFACE
8
0
70
0
10
-80.512016
20
-126.447731
30
16.873810
11
-42.554726
21
-125.340065
31
32.153202
12
-88.957474
22
-119.174286
32
49.242073
13
-88.957474
23
-119.174286
33
49.242073
0
3DFACE
8
0
70
0
10
-80.512016
20
-126.447731
30
16.873810
11
-88.957474
21
-119.174286
31
49.242073
12
-98.387177
22
-116.054695
32
32.863140
13
-98.387177
23
-116.054695
33
32.863140
0
3DFACE
8
0
70
0
10
-86.707054
20
-131.974030
30
-9.550906
11
-80.512016
21
-126.447731
31
16.873810
12
-98.387177
22
-116.054695
32
32.863140
13
-98.387177
23
-116.054695
33
32.863140
0
3DFACE
8
0
70
0
10
-6.386078
20
-131.804779
30
-42.076881
11
-44.153687
21
-109.783127
31
13.732072
12
-30.037359
22
-128.774704
32
-4.300931
13
-30.037359
23
-128.774704
33
-4.300931
0
3DFACE
8
0
70
0
10
-30.037359
20
-128.774704
30
-4.300931
11
-44.153687
21
-109.783127
31
13.732072
12
-36.788849
22
-114.985970
32
39.472481
13
-36.788849
23
-114.985970
33
39.472481
0
3DFACE
8
0
70
0
10
-86.707054
20
-131.974030
30
-9.550906
11
-98.387177
21
-116.054695
31
32.863140
12
-86.620148
22
-112.347092
32
17.727686
13
-86.620148
23
-112.347092
33
17.727686
0
3DFACE
8
0
70
0
10
-90.164589
20
-136.706100
30
-47.572945
11
-86.707054
21
-131.974030
31
-9.550906
12
-86.620148
22
-112.347092
32
17.727686
13
-86.620148
23
-112.347092
33
17.727686
0
3DFACE
8
0
70
0
10
-90.164589
20
-136.706100
30
-47.572945
11
-86.620148
21
-112.347092
31
17.727686
12
-44.153687
22
-109.783127
32
13.732072
13
-44.153687
23
-109.783127
33
13.732072
0
3DFACE
8
0
70
0
10
-6.386078
20
-131.804779
30
-42.076881
11
-90.164589
21
-136.706100
31
-47.572945
12
-44.153687
22
-109.783127
32
13.732072
13
-44.153687
23
-109.783127
33
13.732072
0
3DFACE
8
0
70
0
10
111.021507
20
-38.144661
30
88.250023
11
-2.927320
21
-29.534044
31
128.633133
12
-8.566782
22
-45.258224
32
118.224525
13
-8.566782
23
-45.258224
33
118.224525
0
3DFACE
8
0
70
0
10
111.021507
20
-38.144661
30
88.250023
11
116.924118
21
-15.020382
31
93.909790
12
-2.927320
22
-29.534044
32
128.633133
13
-2.927320
23
-29.534044
33
128.633133
0
3DFACE
8
0
70
0
10
116.197273
20
-25.523777
30
-79.765823
11
-1.488213
21
-28.020603
31
-115.244316
12
-2.392693
22
-3.165615
32
-110.976265
13
-2.392693
23
-3.165615
33
-110.976265
0
3DFACE
8
0
70
0
10
116.197273
20
-25.523777
30
-79.765823
11
-2.392693
21
-3.165615
31
-110.976265
12
117.365593
22
-5.161414
32
-73.418678
13
117.365593
23
-5.161414
33
-73.418678
0
3DFACE
8
0
70
0
10
111.021507
20
-38.144661
30
88.250023
11
146.061417
21
-9.427633
31
0.959164
12
116.924118
22
-15.020382
32
93.909790
13
116.924118
23
-15.020382
33
93.909790
0
3DFACE
8
0
70
0
10
111.021507
20
-38.144661
30
88.250023
11
142.131729
21
-30.872669
31
7.183856
12
146.061417
22
-9.427633
32
0.959164
13
146.061417
23
-9.427633
33
0.959164
0
3DFACE
8
0
70
0
10
142.131729
20
-30.872669
30
7.183856
11
116.197273
21
-25.523777
31
-79.765823
12
117.365593
22
-5.161414
32
-73.418678
13
117.365593
23
-5.161414
33
-73.418678
0
3DFACE
8
0
70
0
10
142.131729
20
-30.872669
30
7.183856
11
117.365593
21
-5.161414
31
-73.418678
12
146.061417
22
-9.427633
32
0.959164
13
146.061417
23
-9.427633
33
0.959164
0
3DFACE
8
0
70
0
10
-126.130028
20
-47.534645
30
82.682373
11
-8.566782
21
-45.258224
31
118.224525
12
-2.927320
22
-29.534044
32
128.633133
13
-2.927320
23
-29.534044
33
128.633133
0
3DFACE
8
0
70
0
10
-126.130028
20
-47.534645
30
82.682373
11
-2.927320
21
-29.534044
31
128.633133
12
-122.785164
22
-15.955480
32
93.429657
13
-122.785164
23
-15.955480
33
93.429657
0
3DFACE
8
0
70
0
10
-120.954262
20
-34.913761
30
-85.333473
11
-2.392693
21
-3.165615
31
-110.976265
12
-1.488213
22
-28.020603
32
-115.244316
13
-1.488213
23
-28.020603
33
-115.244316
0
3DFACE
8
0
70
0
10
-120.954262
20
-34.913761
30
-85.333473
11
-122.343681
21
-6.096511
31
-73.898811
12
-2.392693
22
-3.165615
32
-110.976265
13
-2.392693
23
-3.165615
33
-110.976265
0
3DFACE
8
0
70
0
10
-126.130028
20
-47.534645
30
82.682373
11
-151.431671
21
-10.588138
31
0.363292
12
-152.204346
22
-42.526859
32
0.273674
13
-152.204346
23
-42.526859
33
0.273674
0
3DFACE
8
0
70
0
10
-126.130028
20
-47.534645
30
82.682373
11
-122.785164
21
-15.955480
31
93.429657
12
-151.431671
22
-10.588138
32
0.363292
13
-151.431671
23
-10.588138
33
0.363292
0
3DFACE
8
0
70
0
10
-152.204346
20
-42.526859
30
0.273674
11
-151.431671
21
-10.588138
31
0.363292
12
-122.343681
22
-6.096511
32
-73.898811
13
-122.343681
23
-6.096511
33
-73.898811
0
3DFACE
8
0
70
0
10
-152.204346
20
-42.526859
30
0.273674
11
-122.343681
21
-6.096511
31
-73.898811
12
-120.954262
22
-34.913761
32
-85.333473
13
-120.954262
23
-34.913761
33
-85.333473
0
3DFACE
8
0
70
0
10
-2.927320
20
-29.534044
30
128.633133
11
60.988014
21
53.568436
31
53.717564
12
-1.780760
22
40.762051
32
60.490982
13
-1.780760
23
40.762051
33
60.490982
0
3DFACE
8
0
70
0
10
-2.927320
20
-29.534044
30
128.633133
11
116.924118
21
-15.020382
31
93.909790
12
60.988014
22
53.568436
32
53.717564
13
60.988014
23
53.568436
33
53.717564
0
3DFACE
8
0
70
0
10
117.365593
20
-5.161414
30
-73.418678
11
-2.392693
21
-3.165615
31
-110.976265
12
60.596302
22
77.327072
32
-50.952980
13
60.596302
23
77.327072
33
-50.952980
0
3DFACE
8
0
70
0
10
-2.392693
20
-3.165615
30
-110.976265
11
-1.978896
21
89.445251
31
-58.590179
12
60.596302
22
77.327072
32
-50.952980
13
60.596302
23
77.327072
33
-50.952980
0
3DFACE
8
0
70
0
10
116.924118
20
-15.020382
30
93.909790
11
108.102249
21
44.748447
31
-1.131680
12
82.884865
22
63.875858
32
40.887657
13
82.884865
23
63.875858
33
40.887657
0
3DFACE
8
0
70
0
10
116.924118
20
-15.020382
30
93.909790
11
146.061417
21
-9.427633
31
0.959164
12
108.102249
22
44.748447
32
-1.131680
13
108.102249
23
44.748447
33
-1.131680
0
3DFACE
8
0
70
0
10
117.365593
20
-5.161414
30
-73.418678
11
88.607185
21
73.772377
31
-40.511620
12
108.102249
22
44.748447
32
-1.131680
13
108.102249
23
44.748447
33
-1.131680
0
3DFACE
8
0
70
0
10
146.061417
20
-9.427633
30
0.959164
11
117.365593
21
-5.161414
31
-73.418678
12
108.102249
22
44.748447
32
-1.131680
13
108.102249
23
44.748447
33
-1.131680
0
3DFACE
8
0
70
0
10
116.924118
20
-15.020382
30
93.909790
11
82.884865
21
63.875858
31
40.887657
12
60.988014
22
53.568436
32
53.717564
13
60.988014
23
53.568436
33
53.717564
0
3DFACE
8
0
70
0
10
117.365593
20
-5.161414
30
-73.418678
11
60.596302
21
77.327072
31
-50.952980
12
88.607185
22
73.772377
32
-40.511620
13
88.607185
23
73.772377
33
-40.511620
0
3DFACE
8
0
70
0
10
-2.927320
20
-29.534044
30
128.633133
11
-64.652687
21
53.719936
31
53.852570
12
-122.785164
22
-15.955480
32
93.429657
13
-122.785164
23
-15.955480
33
93.429657
0
3DFACE
8
0
70
0
10
-2.927320
20
-29.534044
30
128.633133
11
-1.780760
21
40.762051
31
60.490982
12
-64.652687
22
53.719936
32
53.852570
13
-64.652687
23
53.719936
33
53.852570
0
3DFACE
8
0
70
0
10
-122.343681
20
-6.096511
30
-73.898811
11
-64.528130
21
77.447586
31
-50.845592
12
-2.392693
22
-3.165615
32
-110.976265
13
-2.392693
23
-3.165615
33
-110.976265
0
3DFACE
8
0
70
0
10
-2.392693
20
-3.165615
30
-110.976265
11
-64.528130
21
77.447586
31
-50.845592
12
-1.978896
22
89.445251
32
-58.590179
13
-1.978896
23
89.445251
33
-58.590179
0
3DFACE
8
0
70
0
10
-122.785164
20
-15.955480
30
93.429657
11
-92.798500
21
60.008171
31
40.682518
12
-118.378799
22
44.690907
32
-2.828526
13
-118.378799
23
44.690907
33
-2.828526
0
3DFACE
8
0
70
0
10
-122.785164
20
-15.955480
30
93.429657
11
-118.378799
21
44.690907
31
-2.828526
12
-151.431671
22
-10.588138
32
0.363292
13
-151.431671
23
-10.588138
33
0.363292
0
3DFACE
8
0
70
0
10
-151.431671
20
-10.588138
30
0.363292
11
-118.378799
21
44.690907
31
-2.828526
12
-122.343681
22
-6.096511
32
-73.898811
13
-122.343681
23
-6.096511
33
-73.898811
0
3DFACE
8
0
70
0
10
-122.343681
20
-6.096511
30
-73.898811
11
-118.378799
21
44.690907
31
-2.828526
12
-92.205490
22
74.407234
32
-40.555149
13
-92.205490
23
74.407234
33
-40.555149
0
3DFACE
8
0
70
0
10
-122.785164
20
-15.955480
30
93.429657
11
-64.652687
21
53.719936
31
53.852570
12
-92.798500
22
60.008171
32
40.682518
13
-92.798500
23
60.008171
33
40.682518
0
3DFACE
8
0
70
0
10
-122.343681
20
-6.096511
30
-73.898811
11
-92.205490
21
74.407234
31
-40.555149
12
-64.528130
22
77.447586
32
-50.845592
13
-64.528130
23
77.447586
33
-50.845592
0
3DFACE
8
0
70
0
10
108.102249
20
44.748447
30
-1.131680
11
135.482498
21
72.187454
31
52.353477
12
82.884865
22
63.875858
32
40.887657
13
82.884865
23
63.875858
33
40.887657
0
3DFACE
8
0
70
0
10
160.382111
20
46.340748
30
20.029659
11
135.482498
21
72.187454
31
52.353477
12
108.102249
22
44.748447
32
-1.131680
13
108.102249
23
44.748447
33
-1.131680
0
3DFACE
8
0
70
0
10
82.884865
20
63.875858
30
40.887657
11
179.181870
21
94.749367
31
30.168589
12
67.334694
22
92.627464
32
-8.126990
13
67.334694
23
92.627464
33
-8.126990
0
3DFACE
8
0
70
0
10
82.884865
20
63.875858
30
40.887657
11
135.482498
21
72.187454
31
52.353477
12
179.181870
22
94.749367
32
30.168589
13
179.181870
23
94.749367
33
30.168589
0
3DFACE
8
0
70
0
10
88.607185
20
73.772377
30
-40.511620
11
67.334694
21
92.627464
31
-8.126990
12
179.181870
22
94.749367
32
30.168589
13
179.181870
23
94.749367
33
30.168589
0
3DFACE
8
0
70
0
10
88.607185
20
73.772377
30
-40.511620
11
179.181870
21
94.749367
31
30.168589
12
196.943741
22
67.260574
32
2.507464
13
196.943741
23
67.260574
33
2.507464
0
3DFACE
8
0
70
0
10
108.102249
20
44.748447
30
-1.131680
11
88.607185
21
73.772377
31
-40.511620
12
196.943741
22
67.260574
32
2.507464
13
196.943741
23
67.260574
33
2.507464
0
3DFACE
8
0
70
0
10
160.382111
20
46.340748
30
20.029659
11
108.102249
21
44.748447
31
-1.131680
12
196.943741
22
67.260574
32
2.507464
13
196.943741
23
67.260574
33
2.507464
0
3DFACE
8
0
70
0
10
-118.378799
20
44.690907
30
-2.828526
11
-92.798500
21
60.008171
31
40.682518
12
-156.717056
22
90.986061
32
43.384178
13
-156.717056
23
90.986061
33
43.384178
0
3DFACE
8
0
70
0
10
-187.241562
20
74.848656
30
7.466157
11
-118.378799
21
44.690907
31
-2.828526
12
-156.717056
22
90.986061
32
43.384178
13
-156.717056
23
90.986061
33
43.384178
0
3DFACE
8
0
70
0
10
-92.798500
20
60.008171
30
40.682518
11
-70.048698
21
91.021881
31
-7.033662
12
-185.592972
22
125.843781
32
18.010359
13
-185.592972
23
125.843781
33
18.010359
0
3DFACE
8
0
70
0
10
-92.798500
20
60.008171
30
40.682518
11
-185.592972
21
125.843781
31
18.010359
12
-156.717056
22
90.986061
32
43.384178
13
-156.717056
23
90.986061
33
43.384178
0
3DFACE
8
0
70
0
10
-92.205490
20
74.407234
30
-40.555149
11
-185.592972
21
125.843781
31
18.010359
12
-70.048698
22
91.021881
32
-7.033662
13
-70.048698
23
91.021881
33
-7.033662
0
3DFACE
8
0
70
0
10
-92.205490
20
74.407234
30
-40.555149
11
-210.658127
21
105.913223
31
-12.630284
12
-185.592972
22
125.843781
32
18.010359
13
-185.592972
23
125.843781
33
18.010359
0
3DFACE
8
0
70
0
10
-118.378799
20
44.690907
30
-2.828526
11
-210.658127
21
105.913223
31
-12.630284
12
-92.205490
22
74.407234
32
-40.555149
13
-92.205490
23
74.407234
33
-40.555149
0
3DFACE
8
0
70
0
10
-187.241562
20
74.848656
30
7.466157
11
-210.658127
21
105.913223
31
-12.630284
12
-118.378799
22
44.690907
32
-2.828526
13
-118.378799
23
44.690907
33
-2.828526
0
3DFACE
8
0
70
0
10
-205.570053
20
65.284348
30
50.770061
11
-187.241562
21
74.848656
31
7.466157
12
-156.717056
22
90.986061
32
43.384178
13
-156.717056
23
90.986061
33
43.384178
0
3DFACE
8
0
70
0
10
-205.570053
20
65.284348
30
50.770061
11
-156.717056
21
90.986061
31
43.384178
12
-161.991119
22
86.763840
32
60.073494
13
-161.991119
23
86.763840
33
60.073494
0
3DFACE
8
0
70
0
10
-161.991119
20
86.763840
30
60.073494
11
-156.717056
21
90.986061
31
43.384178
12
-185.592972
22
125.843781
32
18.010359
13
-185.592972
23
125.843781
33
18.010359
0
3DFACE
8
0
70
0
10
-161.991119
20
86.763840
30
60.073494
11
-185.592972
21
125.843781
31
18.010359
12
-205.325760
22
116.216599
32
68.687073
13
-205.325760
23
116.216599
33
68.687073
0
3DFACE
8
0
70
0
10
-240.797241
20
92.229446
30
58.827820
11
-205.325760
21
116.216599
31
68.687073
12
-185.592972
22
125.843781
32
18.010359
13
-185.592972
23
125.843781
33
18.010359
0
3DFACE
8
0
70
0
10
-240.797241
20
92.229446
30
58.827820
11
-185.592972
21
125.843781
31
18.010359
12
-210.658127
22
105.913223
32
-12.630284
13
-210.658127
23
105.913223
33
-12.630284
0
3DFACE
8
0
70
0
10
-205.570053
20
65.284348
30
50.770061
11
-240.797241
21
92.229446
31
58.827820
12
-210.658127
22
105.913223
32
-12.630284
13
-210.658127
23
105.913223
33
-12.630284
0
3DFACE
8
0
70
0
10
-205.570053
20
65.284348
30
50.770061
11
-210.658127
21
105.913223
31
-12.630284
12
-187.241562
22
74.848656
32
7.466157
13
-187.241562
23
74.848656
33
7.466157
0
3DFACE
8
0
70
0
10
176.556595
20
31.884745
30
62.763794
11
135.482498
21
72.187454
31
52.353477
12
160.382111
22
46.340748
32
20.029659
13
160.382111
23
46.340748
33
20.029659
0
3DFACE
8
0
70
0
10
176.556595
20
31.884745
30
62.763794
11
144.207520
21
65.215187
31
71.372543
12
135.482498
22
72.187454
32
52.353477
13
135.482498
23
72.187454
33
52.353477
0
3DFACE
8
0
70
0
10
144.207520
20
65.215187
30
71.372543
11
179.181870
21
94.749367
31
30.168589
12
135.482498
22
72.187454
32
52.353477
13
135.482498
23
72.187454
33
52.353477
0
3DFACE
8
0
70
0
10
144.207520
20
65.215187
30
71.372543
11
196.590500
21
79.969406
31
79.946564
12
179.181870
22
94.749367
32
30.168589
13
179.181870
23
94.749367
33
30.168589
0
3DFACE
8
0
70
0
10
220.333847
20
46.709042
30
70.746262
11
196.943741
21
67.260574
31
2.507464
12
179.181870
22
94.749367
32
30.168589
13
179.181870
23
94.749367
33
30.168589
0
3DFACE
8
0
70
0
10
220.333847
20
46.709042
30
70.746262
11
179.181870
21
94.749367
31
30.168589
12
196.590500
22
79.969406
32
79.946564
13
196.590500
23
79.969406
33
79.946564
0
3DFACE
8
0
70
0
10
176.556595
20
31.884745
30
62.763794
11
160.382111
21
46.340748
31
20.029659
12
196.943741
22
67.260574
32
2.507464
13
196.943741
23
67.260574
33
2.507464
0
3DFACE
8
0
70
0
10
176.556595
20
31.884745
30
62.763794
11
196.943741
21
67.260574
31
2.507464
12
220.333847
22
46.709042
32
70.746262
13
220.333847
23
46.709042
33
70.746262
0
3DFACE
8
0
70
0
10
2.455795
20
311.293182
30
46.264141
11
6.420247
21
309.981445
31
44.221828
12
-2.307071
22
256.761505
32
26.920818
13
-16.769510
23
258.780365
33
33.266064
0
3DFACE
8
0
70
0
10
10.276659
20
308.624054
30
46.448093
11
11.632722
21
254.694931
31
34.338837
12
-2.307071
22
256.761505
32
26.920818
13
6.420247
23
309.981445
33
44.221828
0
3DFACE
8
0
70
0
10
12.820791
20
307.694580
30
49.677868
11
20.775267
21
253.288666
31
44.913635
12
11.632722
22
254.694931
32
34.338837
13
10.276659
23
308.624054
33
46.448093
0
3DFACE
8
0
70
0
10
12.138285
20
307.864838
30
52.904640
11
18.197744
21
253.566101
31
55.280960
12
20.775267
22
253.288666
32
44.913635
13
12.820791
23
307.694580
33
49.677868
0
3DFACE
8
0
70
0
10
11.380715
20
308.045715
30
56.906967
11
15.323905
21
253.863770
31
68.145554
12
18.197744
22
253.566101
32
55.280960
13
12.138285
23
307.864838
33
52.904640
0
3DFACE
8
0
70
0
10
8.410094
20
309.021820
30
58.788937
11
4.476270
21
255.367935
31
74.034477
12
15.323905
22
253.863770
32
68.145554
13
11.380715
23
308.045715
33
56.906967
0
3DFACE
8
0
70
0
10
6.024150
20
309.814087
30
59.871910
11
-4.223265
21
256.586487
31
77.381775
12
4.476270
22
255.367935
32
74.034477
13
8.410094
23
309.021820
33
58.788937
0
3DFACE
8
0
70
0
10
6.024150
20
309.814087
30
59.871910
11
3.695835
21
310.630707
31
58.678055
12
-12.644025
22
257.830536
32
73.387833
13
-4.223265
23
256.586487
33
77.381775
0
3DFACE
8
0
70
0
10
3.695835
20
310.630707
30
58.678055
11
0.823962
21
311.648590
31
56.658669
12
-23.013975
22
259.378326
32
66.697502
13
-12.644025
23
257.830536
33
73.387833
0
3DFACE
8
0
70
0
10
0.823962
20
311.648590
30
56.658669
11
0.269765
21
311.915375
31
52.625484
12
-24.903948
22
259.765869
32
53.652981
13
-23.013975
23
259.378326
33
66.697502
0
3DFACE
8
0
70
0
10
0.269765
20
311.915375
30
52.625484
11
-0.248689
21
312.154968
31
49.370468
12
-26.687834
22
260.115814
32
43.120922
13
-24.903948
23
259.765869
33
53.652981
0
3DFACE
8
0
70
0
10
-0.248689
20
312.154968
30
49.370468
11
2.455795
21
311.293182
31
46.264141
12
-16.769510
22
258.780365
32
33.266064
13
-26.687834
23
260.115814
33
43.120922
0
ENDSEC
0
EOF
