0
SECTION
2
HEADER
999
DXF File Generated by LightWave 3D(TM)
0
ENDSEC
0
SECTION
2
TABLES
0
ENDSEC
0
SECTION
2
BLOCKS
0
ENDSEC
0
SECTION
2
ENTITIES
0
3DFACE
8
0
70
0
10
-6.133249
20
4.878418
30
81.290352
11
21.780085
21
15.866562
31
59.086468
12
65.787193
22
12.612686
32
42.113380
13
60.815861
23
13.505264
33
61.646255
0
3DFACE
8
0
70
0
10
68.229980
20
7.385101
30
-60.229843
11
74.661003
21
-12.267288
31
-37.856350
12
35.432102
22
-22.410324
32
-63.943886
13
4.338497
23
-3.765732
33
-90.848129
0
3DFACE
8
0
70
0
10
-6.664578
20
-0.916626
30
102.073563
11
-6.133249
21
4.878418
31
81.290352
12
60.815861
22
13.505264
32
61.646255
13
81.747902
23
10.374619
33
78.274612
0
3DFACE
8
0
70
0
10
91.130707
20
2.629364
30
-75.963417
11
68.229980
21
7.385101
31
-60.229843
12
4.338497
22
-3.765732
32
-90.848129
13
6.377518
23
-11.682526
33
-112.317307
0
3DFACE
8
0
70
0
10
-7.804812
20
3.266098
30
114.551674
11
86.105240
21
15.048950
31
87.219261
12
94.545418
22
70.553650
32
90.779480
13
-13.789214
23
57.767822
33
117.127457
0
3DFACE
8
0
70
0
10
96.707802
20
6.296814
30
-87.069702
11
6.932756
21
-8.899368
31
-127.709999
12
0.941074
22
45.608444
32
-125.134705
13
105.147987
23
61.801514
33
-83.509491
0
3DFACE
8
0
70
0
10
-13.789214
20
57.767822
30
117.127457
11
94.545418
21
70.553650
31
90.779480
12
88.883751
22
70.469849
32
82.000191
13
-13.169409
23
58.324799
33
104.873352
0
3DFACE
8
0
70
0
10
-7.804812
20
3.266098
30
114.551674
11
-6.664578
21
-0.916626
31
102.073563
12
81.747902
22
10.374619
32
78.274612
13
86.105240
23
15.048950
33
87.219261
0
3DFACE
8
0
70
0
10
105.147987
20
61.801514
30
-83.509491
11
0.941074
21
45.608444
31
-125.134705
12
-0.403276
22
47.802277
32
-109.522667
13
98.266556
23
62.724609
33
-72.237839
0
3DFACE
8
0
70
0
10
96.707802
20
6.296814
30
-87.069702
11
91.130707
21
2.629364
31
-75.963417
12
6.377518
22
-11.682526
32
-112.317307
13
6.932756
23
-8.899368
33
-127.709999
0
3DFACE
8
0
70
0
10
27.673773
20
-67.544800
30
102.617195
11
74.813721
21
-67.544800
31
102.617195
12
66.977409
22
-46.913284
32
87.801697
13
33.987896
23
-47.098587
33
87.801697
0
3DFACE
8
0
70
0
10
60.815861
20
13.505264
30
61.646255
11
65.787193
21
12.612686
31
42.113380
12
80.730606
22
-2.269531
32
5.262871
13
80.174141
23
12.664230
33
3.173337
0
3DFACE
8
0
70
0
10
81.747902
20
10.374619
30
78.274612
11
60.815861
21
13.505264
31
61.646255
12
80.174141
22
12.664230
32
3.173337
13
107.326042
23
9.481140
33
4.750805
0
3DFACE
8
0
70
0
10
94.545418
20
70.553650
30
90.779480
11
86.105240
21
15.048950
31
87.219261
12
113.508423
22
13.913422
32
5.390220
13
125.297752
23
69.876266
33
9.191246
0
3DFACE
8
0
70
0
10
125.297752
20
69.876266
30
9.191246
11
117.613922
21
70.007553
31
8.703017
12
88.883751
22
70.469849
32
82.000191
13
94.545418
23
70.553650
33
90.779480
0
3DFACE
8
0
70
0
10
86.105240
20
15.048950
30
87.219261
11
81.747902
21
10.374619
31
78.274612
12
107.326042
22
9.481140
32
4.750805
13
113.508423
23
13.913422
33
5.390220
0
3DFACE
8
0
70
0
10
12.906889
20
-100.944748
30
102.617195
11
80.090286
21
-101.130066
31
102.617195
12
74.813721
22
-67.544800
32
102.617195
13
27.673773
23
-67.544800
33
102.617195
0
3DFACE
8
0
70
0
10
-1.678429
20
186.223999
30
5.078217
11
59.324776
21
163.358582
31
1.588909
12
53.277077
22
164.689636
32
-36.493587
13
-1.694841
23
162.554443
33
-46.094997
0
3DFACE
8
0
70
0
10
80.174141
20
12.664230
30
3.173337
11
80.730606
21
-2.269531
31
5.262871
12
74.661003
22
-12.267288
32
-37.856350
13
68.229980
23
7.385101
33
-60.229843
0
3DFACE
8
0
70
0
10
107.326042
20
9.481140
30
4.750805
11
80.174141
21
12.664230
31
3.173337
12
68.229980
22
7.385101
32
-60.229843
13
91.130707
23
2.629364
33
-75.963417
0
3DFACE
8
0
70
0
10
113.508423
20
13.913422
30
5.390220
11
96.707802
21
6.296814
31
-87.069702
12
105.147987
22
61.801514
32
-83.509491
13
125.297752
23
69.876266
33
9.191246
0
3DFACE
8
0
70
0
10
105.147987
20
61.801514
30
-83.509491
11
98.266556
21
62.724609
31
-72.237839
12
117.613922
22
70.007553
32
8.703017
13
125.297752
23
69.876266
33
9.191246
0
3DFACE
8
0
70
0
10
113.508423
20
13.913422
30
5.390220
11
107.326042
21
9.481140
31
4.750805
12
91.130707
22
2.629364
32
-75.963417
13
96.707802
23
6.296814
33
-87.069702
0
3DFACE
8
0
70
0
10
25.365429
20
-6.188858
30
26.600973
11
21.780085
21
15.866562
31
59.086468
12
20.776022
22
-7.231781
32
-1.302232
13
20.718592
23
-16.467316
33
-0.042657
0
3DFACE
8
0
70
0
10
25.365429
20
-6.188858
30
26.600973
11
68.134216
21
-6.785767
31
22.356989
12
65.787193
22
12.612686
32
42.113380
13
21.780085
23
15.866562
33
59.086468
0
3DFACE
8
0
70
0
10
68.134216
20
-6.785767
30
22.356989
11
80.689575
21
-12.312592
31
7.087194
12
80.730606
22
-2.269531
32
5.262871
13
65.787193
23
12.612686
33
42.113380
0
3DFACE
8
0
70
0
10
20.718592
20
-16.467316
30
-0.042657
11
20.776022
21
-7.231781
31
-1.302232
12
35.432102
22
-22.410324
32
-63.943886
13
31.876293
23
-26.079948
33
-25.931761
0
3DFACE
8
0
70
0
10
80.689575
20
-12.312592
30
7.087194
11
72.366280
21
-19.714966
31
-11.789291
12
74.661003
22
-12.267288
32
-37.856350
13
80.730606
23
-2.269531
33
5.262871
0
3DFACE
8
0
70
0
10
72.366280
20
-19.714966
30
-11.789291
11
31.876293
21
-26.079948
31
-25.931761
12
35.432102
22
-22.410324
32
-63.943886
13
74.661003
23
-12.267288
33
-37.856350
0
3DFACE
8
0
70
0
10
26.262030
20
-73.709068
30
-8.182073
11
27.673773
21
-75.928307
31
43.725594
12
33.987896
22
-56.836998
32
35.947453
13
30.713009
23
-51.061890
33
23.727510
0
3DFACE
8
0
70
0
10
30.713009
20
-51.061890
30
23.727510
11
33.987896
21
-56.836998
31
35.947453
12
66.977409
22
-60.434990
32
35.947453
13
65.801590
23
-55.725731
33
16.429588
0
3DFACE
8
0
70
0
10
75.876106
20
-74.256981
30
-3.473596
11
65.801590
21
-55.725731
31
16.429588
12
66.977409
22
-60.434990
32
35.947453
13
74.813721
23
-75.928307
33
43.725594
0
3DFACE
8
0
70
0
10
12.467833
20
-97.630569
30
-42.960083
11
16.610764
21
-98.717873
31
32.613968
12
27.673773
22
-75.928307
32
43.725594
13
26.262030
23
-73.709068
33
-8.182073
0
3DFACE
8
0
70
0
10
85.455803
20
-97.579384
30
-33.995968
11
75.876106
21
-74.256981
31
-3.473596
12
74.813721
22
-75.928307
32
43.725594
13
83.794151
23
-98.823769
33
36.317848
0
3DFACE
8
0
70
0
10
85.455803
20
-97.579384
30
-33.995968
11
83.794151
21
-98.823769
31
36.317848
12
16.610764
22
-98.717873
32
32.613968
13
12.467833
23
-97.630569
33
-42.960083
0
3DFACE
8
0
70
0
10
27.673773
20
-67.544800
30
102.617195
11
33.987896
21
-47.098587
31
87.801697
12
33.987896
22
-56.836998
32
35.947453
13
27.673773
23
-75.928307
33
43.725594
0
3DFACE
8
0
70
0
10
33.987896
20
-47.098587
30
87.801697
11
66.977409
21
-46.913284
31
87.801697
12
66.977409
22
-60.434990
32
35.947453
13
33.987896
23
-56.836998
33
35.947453
0
3DFACE
8
0
70
0
10
74.813721
20
-67.544800
30
102.617195
11
74.813721
21
-75.928307
31
43.725594
12
66.977409
22
-60.434990
32
35.947453
13
66.977409
23
-46.913284
33
87.801697
0
3DFACE
8
0
70
0
10
12.906889
20
-100.944748
30
102.617195
11
27.673773
21
-67.544800
31
102.617195
12
27.673773
22
-75.928307
32
43.725594
13
16.610764
23
-98.717873
33
32.613968
0
3DFACE
8
0
70
0
10
80.090286
20
-101.130066
30
102.617195
11
83.794151
21
-98.823769
31
36.317848
12
74.813721
22
-75.928307
32
43.725594
13
74.813721
23
-67.544800
33
102.617195
0
3DFACE
8
0
70
0
10
80.090286
20
-101.130066
30
102.617195
11
12.906889
21
-100.944748
31
102.617195
12
16.610764
22
-98.717873
32
32.613968
13
83.794151
23
-98.823769
33
36.317848
0
3DFACE
8
0
70
0
10
155.823380
20
267.677490
30
203.500778
11
171.844696
21
276.126007
31
188.694031
12
152.600128
22
286.121490
32
190.994370
13
138.105606
23
271.270111
33
196.619034
0
3DFACE
8
0
70
0
10
83.864571
20
136.011230
30
-28.075499
11
53.277077
21
164.689636
31
-36.493587
12
59.324776
22
163.358582
32
1.588909
13
59.324776
23
163.358582
33
1.588909
0
3DFACE
8
0
70
0
10
77.795975
20
150.351807
30
48.151585
11
59.324776
21
163.358582
31
1.588909
12
53.165054
22
150.229858
32
59.291286
13
53.165054
23
150.229858
33
59.291286
0
3DFACE
8
0
70
0
10
141.384445
20
186.402954
30
62.952923
11
189.559402
21
181.873230
31
67.543221
12
188.876816
22
193.424072
32
101.844826
13
140.163742
23
200.194275
33
96.314072
0
3DFACE
8
0
70
0
10
165.360199
20
230.799072
30
46.296021
11
141.384445
21
186.402954
31
62.952923
12
140.163742
22
200.194275
32
96.314072
13
162.586411
23
245.773010
33
79.088295
0
3DFACE
8
0
70
0
10
205.273285
20
234.050781
30
86.285583
11
207.635483
21
220.852997
31
52.748619
12
165.360199
22
230.799072
32
46.296021
13
162.586411
23
245.773010
33
79.088295
0
3DFACE
8
0
70
0
10
189.559402
20
181.873230
30
67.543221
11
207.635483
21
220.852997
31
52.748619
12
205.273285
22
234.050781
32
86.285583
13
188.876816
23
193.424072
33
101.844826
0
3DFACE
8
0
70
0
10
194.641937
20
184.257996
30
105.895721
11
194.447159
21
194.395172
31
138.527847
12
128.415451
22
207.620972
32
128.416412
13
129.329193
23
194.915771
33
97.838570
0
3DFACE
8
0
70
0
10
129.329193
20
194.915771
30
97.838570
11
128.415451
21
207.620972
31
128.416412
12
155.075546
22
270.792114
32
103.433228
13
157.858353
23
256.898254
33
74.301117
0
3DFACE
8
0
70
0
10
212.978424
20
251.593079
30
115.391624
11
215.273788
21
239.606323
31
84.600967
12
157.858353
22
256.898254
32
74.301117
13
155.075546
23
270.792114
33
103.433228
0
3DFACE
8
0
70
0
10
194.641937
20
184.257996
30
105.895721
11
215.273788
21
239.606323
31
84.600967
12
212.978424
22
251.593079
32
115.391624
13
194.447159
23
194.395172
33
138.527847
0
3DFACE
8
0
70
0
10
194.641937
20
184.257996
30
105.895721
11
129.329193
21
194.915771
31
97.838570
12
140.163742
22
200.194275
32
96.314072
13
188.876816
23
193.424072
33
101.844826
0
3DFACE
8
0
70
0
10
194.447159
20
194.395172
30
138.527847
11
188.233963
21
204.302734
31
134.150284
12
139.044449
22
212.840088
32
126.904282
13
128.415451
23
207.620972
33
128.416412
0
3DFACE
8
0
70
0
10
129.329193
20
194.915771
30
97.838570
11
157.858353
21
256.898254
31
74.301117
12
162.586411
22
245.773010
32
79.088295
13
140.163742
23
200.194275
33
96.314072
0
3DFACE
8
0
70
0
10
128.415451
20
207.620972
30
128.416412
11
139.044449
21
212.840088
31
126.904282
12
160.103943
22
259.174683
32
108.437424
13
155.075546
23
270.792114
33
103.433228
0
3DFACE
8
0
70
0
10
212.978424
20
251.593079
30
115.391624
11
155.075546
21
270.792114
31
103.433228
12
160.103943
22
259.174683
32
108.437424
13
203.107300
23
246.152283
33
117.037018
0
3DFACE
8
0
70
0
10
215.273788
20
239.606323
30
84.600967
11
205.273285
21
234.050781
31
86.285583
12
162.586411
22
245.773010
32
79.088295
13
157.858353
23
256.898254
33
74.301117
0
3DFACE
8
0
70
0
10
194.447159
20
194.395172
30
138.527847
11
212.978424
21
251.593079
31
115.391624
12
203.107300
22
246.152283
32
117.037018
13
188.233963
23
204.302734
33
134.150284
0
3DFACE
8
0
70
0
10
194.641937
20
184.257996
30
105.895721
11
188.876816
21
193.424072
31
101.844826
12
205.273285
22
234.050781
32
86.285583
13
215.273788
23
239.606323
33
84.600967
0
3DFACE
8
0
70
0
10
176.979950
20
213.157959
30
119.986633
11
147.562515
21
221.404846
31
108.142220
12
139.044449
22
212.840088
32
126.904282
13
188.233963
23
204.302734
33
134.150284
0
3DFACE
8
0
70
0
10
147.562515
20
221.404846
30
108.142220
11
169.045822
21
247.502380
31
98.170532
12
160.103943
22
259.174683
32
108.437424
13
139.044449
23
212.840088
33
126.904282
0
3DFACE
8
0
70
0
10
193.802719
20
236.969604
30
110.076721
11
203.107300
21
246.152283
31
117.037018
12
160.103943
22
259.174683
32
108.437424
13
169.045822
23
247.502380
33
98.170532
0
3DFACE
8
0
70
0
10
176.979950
20
213.157959
30
119.986633
11
188.233963
21
204.302734
31
134.150284
12
203.107300
22
246.152283
32
117.037018
13
193.802719
23
236.969604
33
110.076721
0
3DFACE
8
0
70
0
10
118.502647
20
226.272400
30
155.547897
11
115.428856
21
234.982056
31
149.603577
12
117.889137
22
229.360229
32
138.188995
13
120.859703
23
220.605408
33
144.110306
0
3DFACE
8
0
70
0
10
115.428856
20
234.982056
30
149.603577
11
112.983742
21
244.278015
31
143.529404
12
115.322800
22
238.624725
32
132.126297
13
117.889137
23
229.360229
33
138.188995
0
3DFACE
8
0
70
0
10
199.722305
20
256.281494
30
139.372635
11
193.802719
21
236.969604
31
110.076721
12
169.045822
22
247.502380
32
98.170532
13
166.407867
23
263.908936
33
127.066765
0
3DFACE
8
0
70
0
10
173.251831
20
229.250549
30
148.926102
11
176.979950
21
213.157959
31
119.986633
12
193.802719
22
236.969604
32
110.076721
13
199.722305
23
256.281494
33
139.372635
0
3DFACE
8
0
70
0
10
155.823380
20
267.677490
30
203.500778
11
138.105606
21
271.270111
31
196.619034
12
137.067917
22
243.859528
32
149.200165
13
173.251831
23
229.250549
33
148.926102
0
3DFACE
8
0
70
0
10
138.105606
20
271.270111
30
196.619034
11
152.600128
21
286.121490
31
190.994370
12
166.407867
22
263.908936
32
127.066765
13
137.067917
23
243.859528
33
149.200165
0
3DFACE
8
0
70
0
10
171.844696
20
276.126007
30
188.694031
11
199.722305
21
256.281494
31
139.372635
12
166.407867
22
263.908936
32
127.066765
13
152.600128
23
286.121490
33
190.994370
0
3DFACE
8
0
70
0
10
155.823380
20
267.677490
30
203.500778
11
173.251831
21
229.250549
31
148.926102
12
199.722305
22
256.281494
32
139.372635
13
171.844696
23
276.126007
33
188.694031
0
3DFACE
8
0
70
0
10
118.502647
20
226.272400
30
155.547897
11
120.859703
21
220.605408
31
144.110306
12
176.979950
22
213.157959
32
119.986633
13
173.251831
23
229.250549
33
148.926102
0
3DFACE
8
0
70
0
10
120.859703
20
220.605408
30
144.110306
11
117.889137
21
229.360229
31
138.188995
12
147.562515
22
221.404846
32
108.142220
13
176.979950
23
213.157959
33
119.986633
0
3DFACE
8
0
70
0
10
118.502647
20
226.272400
30
155.547897
11
173.251831
21
229.250549
31
148.926102
12
137.067917
22
243.859528
32
149.200165
13
115.428856
23
234.982056
33
149.603577
0
3DFACE
8
0
70
0
10
117.889137
20
229.360229
30
138.188995
11
115.322800
21
238.624725
31
132.126297
12
169.045822
22
247.502380
32
98.170532
13
147.562515
23
221.404846
33
108.142220
0
3DFACE
8
0
70
0
10
112.983742
20
244.278015
30
143.529404
11
166.407867
21
263.908936
31
127.066765
12
169.045822
22
247.502380
32
98.170532
13
115.322800
23
238.624725
33
132.126297
0
3DFACE
8
0
70
0
10
115.428856
20
234.982056
30
149.603577
11
137.067917
21
243.859528
31
149.200165
12
166.407867
22
263.908936
32
127.066765
13
112.983742
23
244.278015
33
143.529404
0
3DFACE
8
0
70
0
10
-6.133249
20
4.878418
30
81.290352
11
-70.307785
21
-4.431442
31
52.218273
12
-73.642693
22
-41.979568
32
22.226086
13
-33.613853
23
-45.349091
33
46.695198
0
3DFACE
8
0
70
0
10
-62.893665
20
-10.551590
30
-69.657822
11
4.338497
21
-3.765732
31
-90.848129
12
-24.563463
22
-6.105820
32
-67.304718
13
-67.759941
23
-16.471451
33
-51.873859
0
3DFACE
8
0
70
0
10
-6.664578
20
-0.916626
30
102.073563
11
-91.624969
21
-13.341446
31
65.808853
12
-70.307785
22
-4.431442
32
52.218273
13
-6.133249
23
4.878418
33
81.290352
0
3DFACE
8
0
70
0
10
-82.242165
20
-21.086700
30
-88.429176
11
6.377518
21
-11.682526
31
-112.317307
12
4.338497
22
-3.765732
32
-90.848129
13
-62.893665
23
-10.551590
33
-69.657822
0
3DFACE
8
0
70
0
10
-7.804812
20
3.266098
30
114.551674
11
-13.789214
21
57.767822
31
117.127457
12
-117.979324
22
41.481918
32
75.498642
13
-97.780235
23
-10.105148
33
73.997627
0
3DFACE
8
0
70
0
10
-87.177666
20
-18.857285
30
-100.291336
11
-107.376762
21
32.729782
31
-98.790329
12
0.941074
22
45.608444
32
-125.134705
13
6.932756
23
-8.899368
33
-127.709999
0
3DFACE
8
0
70
0
10
-13.789214
20
57.767822
30
117.127457
11
-13.169409
21
58.324799
31
104.873352
12
-111.551506
22
43.051880
32
67.588600
13
-117.979324
23
41.481918
33
75.498642
0
3DFACE
8
0
70
0
10
-7.804812
20
3.266098
30
114.551674
11
-97.780235
21
-10.105148
31
73.997627
12
-91.624969
22
-13.341446
32
65.808853
13
-6.664578
23
-0.916626
33
102.073563
0
3DFACE
8
0
70
0
10
-107.376762
20
32.729782
30
-98.790329
11
-102.168701
21
35.306610
31
-86.649429
12
-0.403276
22
47.802277
32
-109.522667
13
0.941074
23
45.608444
33
-125.134705
0
3DFACE
8
0
70
0
10
-87.177666
20
-18.857285
30
-100.291336
11
6.932756
21
-8.899368
31
-127.709999
12
6.377518
22
-11.682526
32
-112.317307
13
-82.242165
23
-21.086700
33
-88.429176
0
3DFACE
8
0
70
0
10
-31.473774
20
-129.578705
30
102.617195
11
-37.787899
21
-109.132492
31
87.801697
12
-70.777412
22
-108.947189
32
87.801697
13
-78.613716
23
-129.578705
33
102.617195
0
3DFACE
8
0
70
0
10
-70.307785
20
-4.431442
30
52.218273
11
-82.414246
21
-9.576599
31
-8.517004
12
-80.930077
22
-34.177536
32
-16.150192
13
-73.642693
23
-41.979568
33
22.226086
0
3DFACE
8
0
70
0
10
-91.624969
20
-13.341446
30
65.808853
11
-108.073898
21
-19.983887
31
-10.736764
12
-82.414246
22
-9.576599
32
-8.517004
13
-70.307785
23
-4.431442
33
52.218273
0
3DFACE
8
0
70
0
10
-117.979324
20
41.481918
30
75.498642
11
-138.580475
21
33.779785
31
-9.781982
12
-115.032242
22
-17.349152
32
-11.042186
13
-97.780235
23
-10.105148
33
73.997627
0
3DFACE
8
0
70
0
10
-138.580475
20
33.779785
30
-9.781982
11
-117.979324
21
41.481918
31
75.498642
12
-111.551506
22
43.051880
32
67.588600
13
-131.152451
23
35.978256
33
-9.183647
0
3DFACE
8
0
70
0
10
-97.780235
20
-10.105148
30
73.997627
11
-115.032242
21
-17.349152
31
-11.042186
12
-108.073898
22
-19.983887
32
-10.736764
13
-91.624969
23
-13.341446
33
65.808853
0
3DFACE
8
0
70
0
10
-16.706890
20
-162.978653
30
102.617195
11
-31.473774
21
-129.578705
31
102.617195
12
-78.613716
22
-129.578705
32
102.617195
13
-83.890282
23
-163.163971
33
102.617195
0
3DFACE
8
0
70
0
10
-1.678429
20
186.223999
30
5.078217
11
-1.694841
21
162.554443
31
-46.094997
12
-56.539932
22
164.689636
32
-36.493587
13
-62.614246
23
164.225403
33
1.122001
0
3DFACE
8
0
70
0
10
-82.414246
20
-9.576599
30
-8.517004
11
-62.893665
21
-10.551590
31
-69.657822
12
-67.759941
22
-16.471451
32
-51.873859
13
-80.930077
23
-34.177536
33
-16.150192
0
3DFACE
8
0
70
0
10
-108.073898
20
-19.983887
30
-10.736764
11
-82.242165
21
-21.086700
31
-88.429176
12
-62.893665
22
-10.551590
32
-69.657822
13
-82.414246
23
-9.576599
33
-8.517004
0
3DFACE
8
0
70
0
10
-115.032242
20
-17.349152
30
-11.042186
11
-138.580475
21
33.779785
31
-9.781982
12
-107.376762
22
32.729782
32
-98.790329
13
-87.177666
23
-18.857285
33
-100.291336
0
3DFACE
8
0
70
0
10
-107.376762
20
32.729782
30
-98.790329
11
-138.580475
21
33.779785
31
-9.781982
12
-131.152451
22
35.978256
32
-9.183647
13
-102.168701
23
35.306610
33
-86.649429
0
3DFACE
8
0
70
0
10
-115.032242
20
-17.349152
30
-11.042186
11
-87.177666
21
-18.857285
31
-100.291336
12
-82.242165
22
-21.086700
32
-88.429176
13
-108.073898
23
-19.983887
33
-10.736764
0
3DFACE
8
0
70
0
10
-29.807106
20
-53.530045
30
4.525723
11
-19.974178
21
-41.551086
31
-17.645689
12
-20.983181
22
-29.138260
32
-9.639971
13
-33.613853
23
-45.349091
33
46.695198
0
3DFACE
8
0
70
0
10
-29.807106
20
-53.530045
30
4.525723
11
-33.613853
21
-45.349091
31
46.695198
12
-73.642693
22
-41.979568
32
22.226086
13
-70.718086
23
-52.201797
33
-8.768980
0
3DFACE
8
0
70
0
10
-70.718086
20
-52.201797
30
-8.768980
11
-73.642693
21
-41.979568
31
22.226086
12
-80.930077
22
-34.177536
32
-16.150192
13
-79.940361
23
-45.539337
33
-24.890615
0
3DFACE
8
0
70
0
10
-19.974178
20
-41.551086
30
-17.645689
11
-25.721006
21
-30.120247
31
-42.706120
12
-24.563463
22
-6.105820
32
-67.304718
13
-20.983181
23
-29.138260
33
-9.639971
0
3DFACE
8
0
70
0
10
-79.940361
20
-45.539337
30
-24.890615
11
-80.930077
21
-34.177536
31
-16.150192
12
-67.759941
22
-16.471451
32
-51.873859
13
-68.062126
23
-36.985428
33
-39.469677
0
3DFACE
8
0
70
0
10
-68.062126
20
-36.985428
30
-39.469677
11
-67.759941
21
-16.471451
31
-51.873859
12
-24.563463
22
-6.105820
32
-67.304718
13
-25.721006
23
-30.120247
33
-42.706120
0
3DFACE
8
0
70
0
10
-30.570967
20
-123.740837
30
-6.648335
11
-34.747211
21
-87.160408
31
4.987564
12
-37.787899
22
-118.870895
32
35.947453
13
-31.473774
23
-137.962204
33
43.725594
0
3DFACE
8
0
70
0
10
-34.747211
20
-87.160408
30
4.987564
11
-69.163162
21
-93.512146
31
-4.637854
12
-70.777412
22
-122.468887
32
35.947453
13
-37.787899
23
-118.870895
33
35.947453
0
3DFACE
8
0
70
0
10
-79.819199
20
-118.735085
30
-11.757832
11
-78.613716
21
-137.962204
31
43.725594
12
-70.777412
22
-122.468887
32
35.947453
13
-69.163162
23
-93.512146
33
-4.637854
0
3DFACE
8
0
70
0
10
-17.128164
20
-163.503281
30
-18.112270
11
-30.570967
21
-123.740837
31
-6.648335
12
-31.473774
22
-137.962204
32
43.725594
13
-20.410763
23
-160.751770
33
32.613968
0
3DFACE
8
0
70
0
10
-89.651794
20
-154.217453
30
-24.497774
11
-87.594154
21
-160.857666
31
36.317848
12
-78.613716
22
-137.962204
32
43.725594
13
-79.819199
23
-118.735085
33
-11.757832
0
3DFACE
8
0
70
0
10
-89.651794
20
-154.217453
30
-24.497774
11
-17.128164
21
-163.503281
31
-18.112270
12
-20.410763
22
-160.751770
32
32.613968
13
-87.594154
23
-160.857666
33
36.317848
0
3DFACE
8
0
70
0
10
-31.473774
20
-129.578705
30
102.617195
11
-31.473774
21
-137.962204
31
43.725594
12
-37.787899
22
-118.870895
32
35.947453
13
-37.787899
23
-109.132492
33
87.801697
0
3DFACE
8
0
70
0
10
-37.787899
20
-109.132492
30
87.801697
11
-37.787899
21
-118.870895
31
35.947453
12
-70.777412
22
-122.468887
32
35.947453
13
-70.777412
23
-108.947189
33
87.801697
0
3DFACE
8
0
70
0
10
-78.613716
20
-129.578705
30
102.617195
11
-70.777412
21
-108.947189
31
87.801697
12
-70.777412
22
-122.468887
32
35.947453
13
-78.613716
23
-137.962204
33
43.725594
0
3DFACE
8
0
70
0
10
-16.706890
20
-162.978653
30
102.617195
11
-20.410763
21
-160.751770
31
32.613968
12
-31.473774
22
-137.962204
32
43.725594
13
-31.473774
23
-129.578705
33
102.617195
0
3DFACE
8
0
70
0
10
-83.890282
20
-163.163971
30
102.617195
11
-78.613716
21
-129.578705
31
102.617195
12
-78.613716
22
-137.962204
32
43.725594
13
-87.594154
23
-160.857666
33
36.317848
0
3DFACE
8
0
70
0
10
-83.890282
20
-163.163971
30
102.617195
11
-87.594154
21
-160.857666
31
36.317848
12
-20.410763
22
-160.751770
32
32.613968
13
-16.706890
23
-162.978653
33
102.617195
0
3DFACE
8
0
70
0
10
-234.067642
20
269.937378
30
206.698273
11
-221.658844
21
283.670807
31
201.076935
12
-241.706635
22
286.895020
32
194.007141
13
-250.772446
23
267.370087
33
190.522400
0
3DFACE
8
0
70
0
10
-87.346901
20
136.613831
30
-27.828817
11
-62.614246
21
164.225403
31
1.122001
12
-56.539932
22
164.689636
32
-36.493587
13
-56.539932
23
164.689636
33
-36.493587
0
3DFACE
8
0
70
0
10
-78.962326
20
153.118103
30
48.446587
11
-56.384747
21
150.229858
31
59.291286
12
-62.614246
22
164.225403
32
1.122001
13
-62.614246
23
164.225403
33
1.122001
0
3DFACE
8
0
70
0
10
-161.998383
20
195.253967
30
78.035965
11
-175.348892
21
212.790466
31
106.652260
12
-219.759903
22
192.072937
32
99.735992
13
-206.180298
23
176.698242
33
69.908142
0
3DFACE
8
0
70
0
10
-189.619370
20
227.656189
30
46.247921
11
-201.670670
21
246.716125
31
74.509766
12
-175.348892
22
212.790466
32
106.652260
13
-161.998383
23
195.253967
33
78.035965
0
3DFACE
8
0
70
0
10
-239.888657
20
223.394135
30
71.892151
11
-201.670670
21
246.716125
31
74.509766
12
-189.619370
22
227.656189
32
46.247921
13
-227.669678
23
206.043518
33
42.666447
0
3DFACE
8
0
70
0
10
-206.180298
20
176.698242
30
69.908142
11
-219.759903
21
192.072937
31
99.735992
12
-239.888657
22
223.394135
32
71.892151
13
-227.669678
23
206.043518
33
42.666447
0
3DFACE
8
0
70
0
10
-224.005936
20
182.155212
30
103.891998
11
-164.652054
21
211.343140
31
112.225159
12
-177.091705
22
227.414154
32
138.383118
13
-237.121796
23
195.838409
33
132.324356
0
3DFACE
8
0
70
0
10
-164.652054
20
211.343140
30
112.225159
11
-198.624069
21
258.070068
31
68.955650
12
-209.190613
22
275.658447
32
94.024765
13
-177.091705
23
227.414154
33
138.383118
0
3DFACE
8
0
70
0
10
-260.914673
20
241.185974
30
93.237396
11
-209.190613
21
275.658447
31
94.024765
12
-198.624069
22
258.070068
32
68.955650
13
-249.844559
23
225.339966
33
66.341820
0
3DFACE
8
0
70
0
10
-224.005936
20
182.155212
30
103.891998
11
-237.121796
21
195.838409
31
132.324356
12
-260.914673
22
241.185974
32
93.237396
13
-249.844559
23
225.339966
33
66.341820
0
3DFACE
8
0
70
0
10
-224.005936
20
182.155212
30
103.891998
11
-219.759903
21
192.072937
31
99.735992
12
-175.348892
22
212.790466
32
106.652260
13
-164.652054
23
211.343140
33
112.225159
0
3DFACE
8
0
70
0
10
-237.121796
20
195.838409
30
132.324356
11
-177.091705
21
227.414154
31
138.383118
12
-187.590515
22
228.870392
32
132.891708
13
-232.549271
23
206.552948
33
127.828026
0
3DFACE
8
0
70
0
10
-164.652054
20
211.343140
30
112.225159
11
-175.348892
21
212.790466
31
106.652260
12
-201.670670
22
246.716125
32
74.509766
13
-198.624069
23
258.070068
33
68.955650
0
3DFACE
8
0
70
0
10
-177.091705
20
227.414154
30
138.383118
11
-209.190613
21
275.658447
31
94.024765
12
-212.456650
22
263.774719
32
99.804138
13
-187.590515
23
228.870392
33
132.891708
0
3DFACE
8
0
70
0
10
-260.914673
20
241.185974
30
93.237396
11
-251.092758
21
239.303589
31
98.690399
12
-212.456650
22
263.774719
32
99.804138
13
-209.190613
23
275.658447
33
94.024765
0
3DFACE
8
0
70
0
10
-249.844559
20
225.339966
30
66.341820
11
-198.624069
21
258.070068
31
68.955650
12
-201.670670
22
246.716125
32
74.509766
13
-239.888657
23
223.394135
33
71.892151
0
3DFACE
8
0
70
0
10
-237.121796
20
195.838409
30
132.324356
11
-232.549271
21
206.552948
31
127.828026
12
-251.092758
22
239.303589
32
98.690399
13
-260.914673
23
241.185974
33
93.237396
0
3DFACE
8
0
70
0
10
-224.005936
20
182.155212
30
103.891998
11
-249.844559
21
225.339966
31
66.341820
12
-239.888657
22
223.394135
32
71.892151
13
-219.759903
23
192.072937
33
99.735992
0
3DFACE
8
0
70
0
10
-216.640396
20
214.551147
30
119.914490
11
-232.549271
21
206.552948
31
127.828026
12
-187.590515
22
228.870392
32
132.891708
13
-193.914291
23
235.437195
33
114.631218
0
3DFACE
8
0
70
0
10
-193.914291
20
235.437195
30
114.631218
11
-187.590515
21
228.870392
31
132.891708
12
-212.456650
22
263.774719
32
99.804138
13
-221.002762
23
248.086121
33
99.241692
0
3DFACE
8
0
70
0
10
-238.923248
20
227.390778
30
105.703262
11
-221.002762
21
248.086121
31
99.241692
12
-212.456650
22
263.774719
32
99.804138
13
-251.092758
23
239.303589
33
98.690399
0
3DFACE
8
0
70
0
10
-216.640396
20
214.551147
30
119.914490
11
-238.923248
21
227.390778
31
105.703262
12
-251.092758
22
239.303589
32
98.690399
13
-232.549271
23
206.552948
33
127.828026
0
3DFACE
8
0
70
0
10
-175.852051
20
260.690399
30
162.742264
11
-173.442993
21
255.040894
31
151.306839
12
-175.926819
22
263.959564
32
145.405884
13
-178.224945
23
269.635925
33
156.827240
0
3DFACE
8
0
70
0
10
-178.224945
20
269.635925
30
156.827240
11
-175.926819
21
263.959564
31
145.405884
12
-179.028564
22
273.043823
32
139.320786
13
-181.441071
23
278.672424
33
150.720840
0
3DFACE
8
0
70
0
10
-257.215027
20
235.973236
30
139.765213
11
-234.457138
21
262.474945
31
129.805176
12
-221.002762
22
248.086121
32
99.241692
13
-238.923248
23
227.390778
33
105.703262
0
3DFACE
8
0
70
0
10
-220.604095
20
230.175842
30
151.957748
11
-257.215027
21
235.973236
31
139.765213
12
-238.923248
22
227.390778
32
105.703262
13
-216.640396
23
214.551147
33
119.914490
0
3DFACE
8
0
70
0
10
-234.067642
20
269.937378
30
206.698273
11
-220.604095
21
230.175842
31
151.957748
12
-200.727966
22
263.654938
32
154.577103
13
-221.658844
23
283.670807
33
201.076935
0
3DFACE
8
0
70
0
10
-221.658844
20
283.670807
30
201.076935
11
-200.727966
21
263.654938
31
154.577103
12
-234.457138
22
262.474945
32
129.805176
13
-241.706635
23
286.895020
33
194.007141
0
3DFACE
8
0
70
0
10
-250.772446
20
267.370087
30
190.522400
11
-241.706635
21
286.895020
31
194.007141
12
-234.457138
22
262.474945
32
129.805176
13
-257.215027
23
235.973236
33
139.765213
0
3DFACE
8
0
70
0
10
-234.067642
20
269.937378
30
206.698273
11
-250.772446
21
267.370087
31
190.522400
12
-257.215027
22
235.973236
32
139.765213
13
-220.604095
23
230.175842
33
151.957748
0
3DFACE
8
0
70
0
10
-175.852051
20
260.690399
30
162.742264
11
-220.604095
21
230.175842
31
151.957748
12
-216.640396
22
214.551147
32
119.914490
13
-173.442993
23
255.040894
33
151.306839
0
3DFACE
8
0
70
0
10
-173.442993
20
255.040894
30
151.306839
11
-216.640396
21
214.551147
31
119.914490
12
-193.914291
22
235.437195
32
114.631218
13
-175.926819
23
263.959564
33
145.405884
0
3DFACE
8
0
70
0
10
-175.852051
20
260.690399
30
162.742264
11
-178.224945
21
269.635925
31
156.827240
12
-200.727966
22
263.654938
32
154.577103
13
-220.604095
23
230.175842
33
151.957748
0
3DFACE
8
0
70
0
10
-175.926819
20
263.959564
30
145.405884
11
-193.914291
21
235.437195
31
114.631218
12
-221.002762
22
248.086121
32
99.241692
13
-179.028564
23
273.043823
33
139.320786
0
3DFACE
8
0
70
0
10
-181.441071
20
278.672424
30
150.720840
11
-179.028564
21
273.043823
31
139.320786
12
-221.002762
22
248.086121
32
99.241692
13
-234.457138
23
262.474945
33
129.805176
0
3DFACE
8
0
70
0
10
-178.224945
20
269.635925
30
156.827240
11
-181.441071
21
278.672424
31
150.720840
12
-234.457138
22
262.474945
32
129.805176
13
-200.727966
23
263.654938
33
154.577103
0
3DFACE
8
0
70
0
10
20.776022
20
-7.231781
30
-1.302232
11
21.780085
21
15.866562
31
59.086468
12
-6.133249
22
4.878418
32
81.290352
13
-1.000225
23
0.641251
33
-3.088220
0
3DFACE
8
0
70
0
10
20.776022
20
-7.231781
30
-1.302232
11
-1.000225
21
0.641251
31
-3.088220
12
4.338497
22
-3.765732
32
-90.848129
13
35.432102
23
-22.410324
33
-63.943886
0
3DFACE
8
0
70
0
10
4.338497
20
-3.765732
30
-90.848129
11
-1.000225
21
0.641251
31
-3.088220
12
-20.983181
22
-29.138260
32
-9.639971
13
-24.563463
23
-6.105820
33
-67.304718
0
3DFACE
8
0
70
0
10
-1.000225
20
0.641251
30
-3.088220
11
-6.133249
21
4.878418
31
81.290352
12
-33.613853
22
-45.349091
32
46.695198
13
-20.983181
23
-29.138260
33
-9.639971
0
3DFACE
8
0
70
0
10
-1.349112
20
211.019592
30
122.611298
11
8.925763
21
211.541077
31
117.381271
12
18.350088
22
229.289063
32
122.216965
13
-1.349112
23
229.470764
33
128.666168
0
3DFACE
8
0
70
0
10
-1.349112
20
229.470764
30
128.666168
11
18.350088
21
229.289063
31
122.216965
12
11.273761
22
237.853394
32
121.019630
13
-1.349112
23
241.287659
33
124.536148
0
3DFACE
8
0
70
0
10
8.925763
20
211.541077
30
117.381271
11
9.858967
21
208.222351
31
104.511536
12
21.350962
22
226.809387
32
104.760262
13
18.350088
23
229.289063
33
122.216965
0
3DFACE
8
0
70
0
10
-1.349112
20
211.019592
30
122.611298
11
-1.607494
21
205.434998
31
110.431030
12
9.858967
22
208.222351
32
104.511536
13
8.925763
23
211.541077
33
117.381271
0
3DFACE
8
0
70
0
10
-1.349112
20
241.287659
30
124.536148
11
11.273761
21
237.853394
31
121.019630
12
13.193185
22
238.730438
32
104.835991
13
-1.607494
23
242.674011
33
110.144325
0
3DFACE
8
0
70
0
10
18.350088
20
229.289063
30
122.216965
11
21.350962
21
226.809387
31
104.760262
12
13.193185
22
238.730438
32
104.835991
13
11.273761
23
237.853394
33
121.019630
0
3DFACE
8
0
70
0
10
2.430698
20
252.157959
30
106.276031
11
2.430698
21
242.653351
31
107.318275
12
13.460166
22
240.305115
32
102.009949
13
14.777180
23
259.715454
33
104.268639
0
3DFACE
8
0
70
0
10
13.460166
20
240.305115
30
102.009949
11
23.022490
21
241.301147
31
95.723228
12
26.696524
22
252.161377
32
92.150620
13
14.777180
23
259.715454
33
104.268639
0
3DFACE
8
0
70
0
10
11.383492
20
190.182037
30
123.670204
11
7.422541
21
209.159790
31
112.725739
12
-1.607494
22
207.745789
32
115.474304
13
-1.607494
23
189.978577
33
124.353912
0
3DFACE
8
0
70
0
10
49.308521
20
207.019531
30
78.126740
11
47.702778
21
217.949402
31
77.948036
12
24.486101
22
210.842712
32
98.608398
13
31.594109
23
188.016754
33
104.917747
0
3DFACE
8
0
70
0
10
7.422541
20
209.159790
30
112.725739
11
11.383492
21
190.182037
31
123.670204
12
29.597113
22
192.373352
32
115.002640
13
22.119911
23
209.422058
33
112.608627
0
3DFACE
8
0
70
0
10
44.167683
20
253.053009
30
78.003784
11
56.333229
21
268.586182
31
75.290634
12
31.248055
22
282.113525
32
89.597183
13
30.955339
23
258.851166
33
93.899803
0
3DFACE
8
0
70
0
10
-1.607493
20
288.251190
30
103.654350
11
-1.607494
21
260.212097
31
107.673866
12
14.270308
22
267.355713
32
104.989143
13
15.839004
23
293.448029
33
96.808540
0
3DFACE
8
0
70
0
10
15.839004
20
293.448029
30
96.808540
11
14.270308
21
267.355713
31
104.989143
12
30.955339
22
258.851166
32
93.899803
13
31.248055
23
282.113525
33
89.597183
0
3DFACE
8
0
70
0
10
-1.607494
20
163.386017
30
122.178642
11
15.567412
21
171.731506
31
115.812431
12
12.385119
22
180.882996
32
113.764580
13
-1.607494
23
177.916199
33
119.235947
0
3DFACE
8
0
70
0
10
-1.607494
20
120.229797
30
101.101158
11
18.752539
21
132.746948
31
97.859222
12
15.567412
22
171.731506
32
115.812431
13
-1.607494
23
163.386017
33
122.178642
0
3DFACE
8
0
70
0
10
49.308521
20
207.019531
30
78.126740
11
31.594109
21
188.016754
31
104.917747
12
30.910938
22
184.795013
32
95.906563
13
53.031750
23
195.761444
33
81.297020
0
3DFACE
8
0
70
0
10
30.910938
20
184.795013
30
95.906563
11
42.284325
21
158.748505
31
66.107307
12
52.362392
22
188.395966
32
50.112881
13
53.031750
23
195.761444
33
81.297020
0
3DFACE
8
0
70
0
10
18.752539
20
132.746948
30
97.859222
11
42.284325
21
158.748505
31
66.107307
12
30.910938
22
184.795013
32
95.906563
13
15.567412
23
171.731506
33
115.812431
0
3DFACE
8
0
70
0
10
15.567412
20
171.731506
30
115.812431
11
30.910938
21
184.795013
31
95.906563
12
31.594109
22
188.016754
32
104.917747
13
12.385119
23
180.882996
33
113.764580
0
3DFACE
8
0
70
0
10
-1.607494
20
189.978577
30
124.353912
11
-1.607494
21
177.916199
31
119.235947
12
12.385119
22
180.882996
32
113.764580
13
11.383492
23
190.182037
33
123.670204
0
3DFACE
8
0
70
0
10
-1.607494
20
207.745789
30
115.474304
11
7.422541
21
209.159790
31
112.725739
12
9.858967
22
208.222351
32
104.511536
13
-1.607494
23
205.434998
33
110.431030
0
3DFACE
8
0
70
0
10
22.119911
20
209.422058
30
112.608627
11
24.486101
21
210.842712
31
98.608398
12
9.858967
22
208.222351
32
104.511536
13
7.422541
23
209.159790
33
112.725739
0
POINT
8
0
70
0
10
50.799515
20
191.078064
30
96.495125
0
3DFACE
8
0
70
0
10
11.383492
20
190.182037
30
123.670204
11
12.385119
21
180.882996
31
113.764580
12
31.594109
22
188.016754
32
104.917747
13
29.597113
23
192.373352
33
115.002640
0
3DFACE
8
0
70
0
10
29.597113
20
192.373352
30
115.002640
11
50.799515
21
191.078064
31
96.495125
12
22.119911
22
209.422058
32
112.608627
13
22.119911
23
209.422058
33
112.608627
0
3DFACE
8
0
70
0
10
22.119911
20
209.422058
30
112.608627
11
50.799515
21
191.078064
31
96.495125
12
24.486101
22
210.842712
32
98.608398
13
24.486101
23
210.842712
33
98.608398
0
3DFACE
8
0
70
0
10
50.799515
20
191.078064
30
96.495125
11
31.594109
21
188.016754
31
104.917747
12
24.486101
22
210.842712
32
98.608398
13
24.486101
23
210.842712
33
98.608398
0
3DFACE
8
0
70
0
10
31.594109
20
188.016754
30
104.917747
11
50.799515
21
191.078064
31
96.495125
12
29.597113
22
192.373352
32
115.002640
13
29.597113
23
192.373352
33
115.002640
0
3DFACE
8
0
70
0
10
56.333229
20
268.586182
30
75.290634
11
44.167683
21
253.053009
31
78.003784
12
57.601105
22
247.019226
32
42.180279
13
60.906643
23
247.587646
33
43.795380
0
3DFACE
8
0
70
0
10
44.167683
20
253.053009
30
78.003784
11
42.194927
21
240.571960
31
78.655991
12
59.105507
22
239.755798
32
42.462151
13
57.601105
23
247.019226
33
42.180279
0
3DFACE
8
0
70
0
10
42.194927
20
240.571960
30
78.655991
11
44.636703
21
227.472778
31
78.504814
12
59.127293
22
226.561890
32
44.641083
13
59.105507
23
239.755798
33
42.462151
0
3DFACE
8
0
70
0
10
60.906643
20
247.587646
30
43.795380
11
57.601105
21
247.019226
31
42.180279
12
40.810898
22
242.679718
32
16.649319
13
43.397022
23
232.552307
33
22.223034
0
3DFACE
8
0
70
0
10
59.105507
20
239.755798
30
42.462151
11
43.123253
21
243.435181
31
12.672510
12
40.810898
22
242.679718
32
16.649319
13
57.601105
23
247.019226
33
42.180279
0
3DFACE
8
0
70
0
10
59.127293
20
226.561890
30
44.641083
11
40.378479
21
231.738129
31
11.188781
12
43.123253
22
243.435181
32
12.672510
13
59.105507
23
239.755798
33
42.462151
0
3DFACE
8
0
70
0
10
43.397022
20
232.552307
30
22.223034
11
40.810898
21
242.679718
31
16.649319
12
-1.607494
22
241.091125
32
-0.101301
13
-1.607496
23
222.748810
33
5.054712
0
3DFACE
8
0
70
0
10
43.123253
20
243.435181
30
12.672510
11
-1.607494
21
243.361023
31
-2.405132
12
-1.607494
22
241.091125
32
-0.101301
13
40.810898
23
242.679718
33
16.649319
0
3DFACE
8
0
70
0
10
40.378479
20
231.738129
30
11.188781
11
-1.607494
21
229.484802
31
-0.945824
12
-1.607494
22
243.361023
32
-2.405132
13
43.123253
23
243.435181
33
12.672510
0
3DFACE
8
0
70
0
10
52.362392
20
188.395966
30
50.112881
11
58.690941
21
205.007629
31
46.003769
12
49.308521
22
207.019531
32
78.126740
13
53.031750
23
195.761444
33
81.297020
0
3DFACE
8
0
70
0
10
44.636703
20
227.472778
30
78.504814
11
47.702778
21
217.949402
31
77.948036
12
59.127293
22
226.561890
32
44.641083
13
59.127293
23
226.561890
33
44.641083
0
3DFACE
8
0
70
0
10
49.308521
20
207.019531
30
78.126740
11
58.690941
21
205.007629
31
46.003769
12
59.127293
22
226.561890
32
44.641083
13
47.702778
23
217.949402
33
77.948036
0
3DFACE
8
0
70
0
10
58.690941
20
205.007629
30
46.003769
11
39.585762
21
213.750458
31
14.099627
12
40.378479
22
231.738129
32
11.188781
13
59.127293
23
226.561890
33
44.641083
0
3DFACE
8
0
70
0
10
39.585762
20
213.750458
30
14.099627
11
-1.607494
21
212.124756
31
3.485335
12
-1.607494
22
229.484802
32
-0.945824
13
40.378479
23
231.738129
33
11.188781
0
3DFACE
8
0
70
0
10
-1.607493
20
288.251190
30
103.654350
11
15.839004
21
293.448029
31
96.808540
12
17.792105
22
311.903076
32
83.951630
13
-1.607491
23
313.696472
33
89.845932
0
3DFACE
8
0
70
0
10
-1.607491
20
313.696472
30
89.845932
11
17.792105
21
311.903076
31
83.951630
12
18.180769
22
311.979828
32
78.552322
13
-1.607491
23
315.291687
33
85.209030
0
3DFACE
8
0
70
0
10
15.839004
20
293.448029
30
96.808540
11
31.248055
21
282.113525
31
89.597183
12
44.283432
22
304.684235
32
72.757408
13
17.792105
23
311.903076
33
83.951630
0
3DFACE
8
0
70
0
10
17.792105
20
311.903076
30
83.951630
11
44.283432
21
304.684235
31
72.757408
12
43.041084
22
305.265472
32
67.455788
13
18.180769
23
311.979828
33
78.552322
0
3DFACE
8
0
70
0
10
31.248055
20
282.113525
30
89.597183
11
56.333229
21
268.586182
31
75.290634
12
60.380287
22
284.885712
32
48.007202
13
44.283432
23
304.684235
33
72.757408
0
3DFACE
8
0
70
0
10
44.283432
20
304.684235
30
72.757408
11
60.380287
21
284.885712
31
48.007202
12
52.081612
22
288.023102
32
45.074883
13
43.041084
23
305.265472
33
67.455788
0
3DFACE
8
0
70
0
10
56.333229
20
268.586182
30
75.290634
11
60.906643
21
247.587646
31
43.795380
12
64.905983
22
272.594635
32
25.232136
13
60.380287
23
284.885712
33
48.007202
0
3DFACE
8
0
70
0
10
60.380287
20
284.885712
30
48.007202
11
64.905983
21
272.594635
31
25.232136
12
58.351551
22
275.688202
32
25.418482
13
52.081612
23
288.023102
33
45.074883
0
3DFACE
8
0
70
0
10
60.906643
20
247.587646
30
43.795380
11
43.397022
21
232.552307
31
22.223034
12
44.292351
22
256.268127
32
7.583923
13
64.905983
23
272.594635
33
25.232136
0
3DFACE
8
0
70
0
10
64.905983
20
272.594635
30
25.232136
11
44.292351
21
256.268127
31
7.583923
12
38.763630
22
261.728729
32
8.920168
13
58.351551
23
275.688202
33
25.418482
0
3DFACE
8
0
70
0
10
43.397022
20
232.552307
30
22.223034
11
-1.607496
21
222.748810
31
5.054712
12
-1.607494
22
244.505341
32
-8.810516
13
44.292351
23
256.268127
33
7.583923
0
3DFACE
8
0
70
0
10
44.292351
20
256.268127
30
7.583923
11
-1.607494
21
244.505341
31
-8.810516
12
-1.607494
22
249.870544
32
-6.572620
13
38.763630
23
261.728729
33
8.920168
0
3DFACE
8
0
70
0
10
52.362392
20
188.395966
30
50.112881
11
36.082680
21
182.370697
31
31.855993
12
39.585762
22
213.750458
32
14.099627
13
58.690941
23
205.007629
33
46.003769
0
3DFACE
8
0
70
0
10
36.082680
20
182.370697
30
31.855993
11
-1.710917
21
185.092712
31
8.887280
12
-1.607494
22
212.124756
32
3.485335
13
39.585762
23
213.750458
33
14.099627
0
3DFACE
8
0
70
0
10
42.284325
20
158.748505
30
66.107307
11
29.524624
21
168.685516
31
60.032959
12
36.082680
22
182.370697
32
31.855993
13
52.362392
23
188.395966
33
50.112881
0
3DFACE
8
0
70
0
10
18.752539
20
132.746948
30
97.859222
11
16.333593
21
133.439270
31
81.952538
12
29.524624
22
168.685516
32
60.032959
13
42.284325
23
158.748505
33
66.107307
0
3DFACE
8
0
70
0
10
16.333593
20
133.439270
30
81.952538
11
-1.607494
21
131.805115
31
77.656464
12
-1.607494
22
153.841797
32
56.009388
13
29.524624
23
168.685516
33
60.032959
0
3DFACE
8
0
70
0
10
-1.607494
20
120.229797
30
101.101158
11
-1.607494
21
131.805115
31
77.656464
12
16.333593
22
133.439270
32
81.952538
13
16.333593
23
133.439270
33
81.952538
0
3DFACE
8
0
70
0
10
-1.607494
20
120.229797
30
101.101158
11
16.333593
21
133.439270
31
81.952538
12
18.752539
22
132.746948
32
97.859222
13
18.752539
23
132.746948
33
97.859222
0
3DFACE
8
0
70
0
10
-1.349112
20
211.019592
30
122.611298
11
-1.349112
21
229.470764
31
128.666168
12
-21.048315
22
229.289063
32
122.216965
13
-11.623986
23
211.541077
33
117.381271
0
3DFACE
8
0
70
0
10
-1.349112
20
229.470764
30
128.666168
11
-1.349112
21
241.287659
31
124.536148
12
-13.971986
22
237.853394
32
121.019630
13
-21.048315
23
229.289063
33
122.216965
0
3DFACE
8
0
70
0
10
-11.623986
20
211.541077
30
117.381271
11
-21.048315
21
229.289063
31
122.216965
12
-24.565950
22
226.809387
32
104.760262
13
-13.073955
23
208.222351
33
104.511536
0
3DFACE
8
0
70
0
10
-1.349112
20
211.019592
30
122.611298
11
-11.623986
21
211.541077
31
117.381271
12
-13.073955
22
208.222351
32
104.511536
13
-1.607494
23
205.434998
33
110.431030
0
3DFACE
8
0
70
0
10
-1.349112
20
241.287659
30
124.536148
11
-1.607494
21
242.674011
31
110.144325
12
-16.408175
22
238.730438
32
104.835991
13
-13.971986
23
237.853394
33
121.019630
0
3DFACE
8
0
70
0
10
-21.048315
20
229.289063
30
122.216965
11
-13.971986
21
237.853394
31
121.019630
12
-16.408175
22
238.730438
32
104.835991
13
-24.565950
23
226.809387
33
104.760262
0
3DFACE
8
0
70
0
10
-5.192549
20
252.038696
30
106.095718
11
-17.340424
21
260.410583
31
104.469688
12
-16.441067
22
240.917480
32
102.640160
13
-5.192549
23
242.921448
33
106.939919
0
3DFACE
8
0
70
0
10
-16.441067
20
240.917480
30
102.640160
11
-17.340424
21
260.410583
31
104.469688
12
-29.277555
22
252.041870
32
94.654114
13
-25.530554
23
241.852051
33
97.547935
0
3DFACE
8
0
70
0
10
-14.598481
20
190.182037
30
123.670204
11
-1.607494
21
189.978577
31
124.353912
12
-1.607494
22
207.745789
32
115.474304
13
-10.637528
23
209.159790
33
112.725739
0
3DFACE
8
0
70
0
10
-52.523502
20
207.019531
30
78.126740
11
-34.809097
21
188.016754
31
104.917747
12
-27.701090
22
210.842712
32
98.608398
13
-50.917759
23
217.949402
33
77.948036
0
3DFACE
8
0
70
0
10
-10.637528
20
209.159790
30
112.725739
11
-25.334900
21
209.422058
31
112.608627
12
-32.812099
22
192.373352
32
115.002640
13
-14.598481
23
190.182037
33
123.670204
0
3DFACE
8
0
70
0
10
-47.382668
20
253.053009
30
78.003784
11
-33.298290
21
258.851166
31
93.899803
12
-33.591000
22
282.113525
32
89.597176
13
-59.548206
23
268.586212
33
75.290634
0
3DFACE
8
0
70
0
10
-1.607493
20
288.251190
30
103.654350
11
-18.650265
21
294.154938
31
96.418343
12
-17.081573
22
268.143036
32
104.911102
13
-1.607494
23
260.212097
33
107.673866
0
3DFACE
8
0
70
0
10
-18.650265
20
294.154938
30
96.418343
11
-33.591000
21
282.113525
31
89.597176
12
-33.298290
22
258.851166
32
93.899803
13
-17.081573
23
268.143036
33
104.911102
0
3DFACE
8
0
70
0
10
-1.607494
20
163.386017
30
122.178642
11
-1.607494
21
177.916199
31
119.235947
12
-15.600108
22
180.882996
32
113.764580
13
-18.782404
23
171.731506
33
115.812431
0
3DFACE
8
0
70
0
10
-1.607494
20
120.229797
30
101.101158
11
-1.607494
21
163.386017
31
122.178642
12
-18.782404
22
171.731506
32
115.812431
13
-21.967529
23
132.746948
33
97.859222
0
3DFACE
8
0
70
0
10
-52.523502
20
207.019531
30
78.126740
11
-56.246727
21
195.761444
31
81.297020
12
-34.125927
22
184.795013
32
95.906563
13
-34.809097
23
188.016754
33
104.917747
0
3DFACE
8
0
70
0
10
-34.125927
20
184.795013
30
95.906563
11
-56.246727
21
195.761444
31
81.297020
12
-55.577377
22
188.395966
32
50.112881
13
-45.499310
23
158.748505
33
66.107307
0
3DFACE
8
0
70
0
10
-21.967529
20
132.746948
30
97.859222
11
-18.782404
21
171.731506
31
115.812431
12
-34.125927
22
184.795013
32
95.906563
13
-45.499310
23
158.748505
33
66.107307
0
3DFACE
8
0
70
0
10
-18.782404
20
171.731506
30
115.812431
11
-15.600108
21
180.882996
31
113.764580
12
-34.809097
22
188.016754
32
104.917747
13
-34.125927
23
184.795013
33
95.906563
0
3DFACE
8
0
70
0
10
-1.607494
20
189.978577
30
124.353912
11
-14.598481
21
190.182037
31
123.670204
12
-15.600108
22
180.882996
32
113.764580
13
-1.607494
23
177.916199
33
119.235947
0
3DFACE
8
0
70
0
10
-1.607494
20
207.745789
30
115.474304
11
-1.607494
21
205.434998
31
110.431030
12
-13.073955
22
208.222351
32
104.511536
13
-10.637528
23
209.159790
33
112.725739
0
3DFACE
8
0
70
0
10
-25.334900
20
209.422058
30
112.608627
11
-10.637528
21
209.159790
31
112.725739
12
-13.073955
22
208.222351
32
104.511536
13
-27.701090
23
210.842712
33
98.608398
0
POINT
8
0
70
0
10
-53.207054
20
191.078064
30
96.495125
0
3DFACE
8
0
70
0
10
-14.598481
20
190.182037
30
123.670204
11
-32.812099
21
192.373352
31
115.002640
12
-34.809097
22
188.016754
32
104.917747
13
-15.600108
23
180.882996
33
113.764580
0
3DFACE
8
0
70
0
10
-32.812099
20
192.373352
30
115.002640
11
-25.334900
21
209.422058
31
112.608627
12
-53.207054
22
191.078064
32
96.495125
13
-53.207054
23
191.078064
33
96.495125
0
3DFACE
8
0
70
0
10
-25.334900
20
209.422058
30
112.608627
11
-27.701090
21
210.842712
31
98.608398
12
-53.207054
22
191.078064
32
96.495125
13
-53.207054
23
191.078064
33
96.495125
0
3DFACE
8
0
70
0
10
-53.207054
20
191.078064
30
96.495125
11
-27.701090
21
210.842712
31
98.608398
12
-34.809097
22
188.016754
32
104.917747
13
-34.809097
23
188.016754
33
104.917747
0
3DFACE
8
0
70
0
10
-34.809097
20
188.016754
30
104.917747
11
-32.812099
21
192.373352
31
115.002640
12
-53.207054
22
191.078064
32
96.495125
13
-53.207054
23
191.078064
33
96.495125
0
3DFACE
8
0
70
0
10
-59.548206
20
268.586212
30
75.290634
11
-64.121628
21
247.587646
31
43.795376
12
-60.816082
22
247.019226
32
42.180279
13
-47.382668
23
253.053009
33
78.003784
0
3DFACE
8
0
70
0
10
-47.382668
20
253.053009
30
78.003784
11
-60.816082
21
247.019226
31
42.180279
12
-62.320492
22
239.755798
32
42.462151
13
-45.409916
23
240.571960
33
78.655991
0
3DFACE
8
0
70
0
10
-45.409916
20
240.571960
30
78.655991
11
-62.320492
21
239.755798
31
42.462151
12
-62.342274
22
226.561890
32
44.641083
13
-47.851685
23
227.472778
33
78.504814
0
3DFACE
8
0
70
0
10
-64.121628
20
247.587646
30
43.795376
11
-46.612011
21
232.552307
31
22.223032
12
-44.025879
22
242.679749
32
16.649319
13
-60.816082
23
247.019226
33
42.180279
0
3DFACE
8
0
70
0
10
-62.320492
20
239.755798
30
42.462151
11
-60.816082
21
247.019226
31
42.180279
12
-44.025879
22
242.679749
32
16.649319
13
-46.338242
23
243.435181
33
12.672510
0
3DFACE
8
0
70
0
10
-62.342274
20
226.561890
30
44.641083
11
-62.320492
21
239.755798
31
42.462151
12
-46.338242
22
243.435181
32
12.672510
13
-43.593464
23
231.738129
33
11.188781
0
3DFACE
8
0
70
0
10
-46.612011
20
232.552307
30
22.223032
11
-1.607496
21
222.748810
31
5.054712
12
-1.607494
22
241.091125
32
-0.101301
13
-44.025879
23
242.679749
33
16.649319
0
3DFACE
8
0
70
0
10
-46.338242
20
243.435181
30
12.672510
11
-44.025879
21
242.679749
31
16.649319
12
-1.607494
22
241.091125
32
-0.101301
13
-1.607494
23
243.361023
33
-2.405132
0
3DFACE
8
0
70
0
10
-43.593464
20
231.738129
30
11.188781
11
-46.338242
21
243.435181
31
12.672510
12
-1.607494
22
243.361023
32
-2.405132
13
-1.607494
23
229.484802
33
-0.945824
0
3DFACE
8
0
70
0
10
-55.577377
20
188.395966
30
50.112881
11
-56.246727
21
195.761444
31
81.297020
12
-52.523502
22
207.019531
32
78.126740
13
-61.905918
23
205.007629
33
46.003769
0
3DFACE
8
0
70
0
10
-47.851685
20
227.472778
30
78.504814
11
-62.342274
21
226.561890
31
44.641083
12
-50.917759
22
217.949402
32
77.948036
13
-50.917759
23
217.949402
33
77.948036
0
3DFACE
8
0
70
0
10
-52.523502
20
207.019531
30
78.126740
11
-50.917759
21
217.949402
31
77.948036
12
-62.342274
22
226.561890
32
44.641083
13
-61.905918
23
205.007629
33
46.003769
0
3DFACE
8
0
70
0
10
-61.905918
20
205.007629
30
46.003769
11
-62.342274
21
226.561890
31
44.641083
12
-43.593464
22
231.738129
32
11.188781
13
-42.800747
23
213.750458
33
14.099627
0
3DFACE
8
0
70
0
10
-42.800747
20
213.750458
30
14.099627
11
-43.593464
21
231.738129
31
11.188781
12
-1.607494
22
229.484802
32
-0.945824
13
-1.607494
23
212.124756
33
3.485335
0
3DFACE
8
0
70
0
10
-1.607493
20
288.251190
30
103.654350
11
-1.607491
21
313.696472
31
89.845932
12
-21.007090
22
311.903076
32
83.951630
13
-18.650265
23
294.154938
33
96.418343
0
3DFACE
8
0
70
0
10
-1.607491
20
313.696472
30
89.845932
11
-1.607491
21
315.291687
31
85.209030
12
-21.395754
22
311.979828
32
78.552315
13
-21.007090
23
311.903076
33
83.951630
0
3DFACE
8
0
70
0
10
-18.650265
20
294.154938
30
96.418343
11
-21.007090
21
311.903076
31
83.951630
12
-47.498413
22
304.684235
32
72.757408
13
-33.591000
23
282.113525
33
89.597176
0
3DFACE
8
0
70
0
10
-21.007090
20
311.903076
30
83.951630
11
-21.395754
21
311.979828
31
78.552315
12
-46.256058
22
305.265472
32
67.455788
13
-47.498413
23
304.684235
33
72.757408
0
3DFACE
8
0
70
0
10
-33.591000
20
282.113525
30
89.597176
11
-47.498413
21
304.684235
31
72.757408
12
-63.595272
22
284.885712
32
48.007202
13
-59.548206
23
268.586212
33
75.290634
0
3DFACE
8
0
70
0
10
-47.498413
20
304.684235
30
72.757408
11
-46.256058
21
305.265472
31
67.455788
12
-55.296593
22
288.023102
32
45.074879
13
-63.595272
23
284.885712
33
48.007202
0
3DFACE
8
0
70
0
10
-59.548206
20
268.586212
30
75.290634
11
-63.595272
21
284.885712
31
48.007202
12
-68.120956
22
272.594635
32
25.232134
13
-64.121628
23
247.587646
33
43.795376
0
3DFACE
8
0
70
0
10
-63.595272
20
284.885712
30
48.007202
11
-55.296593
21
288.023102
31
45.074879
12
-61.566532
22
275.688202
32
25.418480
13
-68.120956
23
272.594635
33
25.232134
0
3DFACE
8
0
70
0
10
-64.121628
20
247.587646
30
43.795376
11
-68.120956
21
272.594635
31
25.232134
12
-47.507336
22
256.268127
32
7.583921
13
-46.612011
23
232.552307
33
22.223032
0
3DFACE
8
0
70
0
10
-68.120956
20
272.594635
30
25.232134
11
-61.566532
21
275.688202
31
25.418480
12
-41.978619
22
261.728729
32
8.920166
13
-47.507336
23
256.268127
33
7.583921
0
3DFACE
8
0
70
0
10
-46.612011
20
232.552307
30
22.223032
11
-47.507336
21
256.268127
31
7.583921
12
-1.607494
22
244.505341
32
-8.810516
13
-1.607496
23
222.748810
33
5.054712
0
3DFACE
8
0
70
0
10
-47.507336
20
256.268127
30
7.583921
11
-41.978619
21
261.728729
31
8.920166
12
-1.607494
22
249.870544
32
-6.572620
13
-1.607494
23
244.505341
33
-8.810516
0
3DFACE
8
0
70
0
10
-55.577377
20
188.395966
30
50.112881
11
-61.905918
21
205.007629
31
46.003769
12
-42.800747
22
213.750458
32
14.099627
13
-39.401382
23
182.370697
33
31.855993
0
3DFACE
8
0
70
0
10
-39.401382
20
182.370697
30
31.855993
11
-42.800747
21
213.750458
31
14.099627
12
-1.607494
22
212.124756
32
3.485335
13
-1.710917
23
185.092712
33
8.887280
0
3DFACE
8
0
70
0
10
-45.499310
20
158.748505
30
66.107307
11
-55.577377
21
188.395966
31
50.112881
12
-39.401382
22
182.370697
32
31.855993
13
-32.662834
23
168.685516
33
60.032959
0
3DFACE
8
0
70
0
10
-21.967529
20
132.746948
30
97.859222
11
-45.499310
21
158.748505
31
66.107307
12
-32.662834
22
168.685516
32
60.032959
13
-19.548584
23
133.439270
33
81.952538
0
3DFACE
8
0
70
0
10
-19.548584
20
133.439270
30
81.952538
11
-32.662834
21
168.685516
31
60.032959
12
-1.607494
22
153.841797
32
56.009388
13
-1.607494
23
131.805115
33
77.656464
0
3DFACE
8
0
70
0
10
-1.607494
20
120.229797
30
101.101158
11
-19.548584
21
133.439270
31
81.952538
12
-1.607494
22
131.805115
32
77.656464
13
-1.607494
23
131.805115
33
77.656464
0
3DFACE
8
0
70
0
10
-1.607494
20
120.229797
30
101.101158
11
-21.967529
21
132.746948
31
97.859222
12
-19.548584
22
133.439270
32
81.952538
13
-19.548584
23
133.439270
33
81.952538
0
3DFACE
8
0
70
0
10
-5.192549
20
242.921448
30
106.939919
11
-1.607494
21
242.674011
31
110.144325
12
-1.607494
22
260.212097
32
107.673866
13
-5.192549
23
252.038696
33
106.095718
0
3DFACE
8
0
70
0
10
-16.441067
20
240.917480
30
102.640160
11
-16.408175
21
238.730438
31
104.835991
12
-1.607494
22
242.674011
32
110.144325
13
-5.192549
23
242.921448
33
106.939919
0
3DFACE
8
0
70
0
10
-17.340424
20
260.410583
30
104.469688
11
-5.192549
21
252.038696
31
106.095718
12
-1.607494
22
260.212097
32
107.673866
13
-17.081573
23
268.143036
33
104.911102
0
3DFACE
8
0
70
0
10
-16.441067
20
240.917480
30
102.640160
11
-25.530554
21
241.852051
31
97.547935
12
-28.368025
22
240.011353
32
98.549278
13
-16.408175
23
238.730438
33
104.835991
0
3DFACE
8
0
70
0
10
-25.530554
20
241.852051
30
97.547935
11
-29.277555
21
252.041870
31
94.654114
12
-33.298290
22
258.851166
32
93.899803
13
-28.368025
23
240.011353
33
98.549278
0
3DFACE
8
0
70
0
10
-17.340424
20
260.410583
30
104.469688
11
-17.081573
21
268.143036
31
104.911102
12
-33.298290
22
258.851166
32
93.899803
13
-29.277555
23
252.041870
33
94.654114
0
3DFACE
8
0
70
0
10
14.777180
20
259.715454
30
104.268639
11
14.270308
21
267.355713
31
104.989143
12
-1.607494
22
260.212097
32
107.673866
13
2.430698
23
252.157959
33
106.276031
0
3DFACE
8
0
70
0
10
13.460166
20
240.305115
30
102.009949
11
2.430698
21
242.653351
31
107.318275
12
-1.607494
22
242.674011
32
110.144325
13
13.193185
23
238.730438
33
104.835991
0
3DFACE
8
0
70
0
10
2.430698
20
242.653351
30
107.318275
11
2.430698
21
252.157959
31
106.276031
12
-1.607494
22
260.212097
32
107.673866
13
-1.607494
23
242.674011
33
110.144325
0
3DFACE
8
0
70
0
10
14.777180
20
259.715454
30
104.268639
11
26.696524
21
252.161377
31
92.150620
12
30.955339
22
258.851166
32
93.899803
13
14.270308
23
267.355713
33
104.989143
0
3DFACE
8
0
70
0
10
23.022490
20
241.301147
30
95.723228
11
26.025074
21
240.011353
31
98.549278
12
30.955339
22
258.851166
32
93.899803
13
26.696524
23
252.161377
33
92.150620
0
3DFACE
8
0
70
0
10
13.460166
20
240.305115
30
102.009949
11
13.193185
21
238.730438
31
104.835991
12
26.025074
22
240.011353
32
98.549278
13
23.022490
23
241.301147
33
95.723228
0
3DFACE
8
0
70
0
10
-1.710917
20
185.092712
30
8.887280
11
36.082680
21
182.370697
31
31.855993
12
59.324776
22
163.358582
32
1.588909
13
-1.678429
23
186.223999
33
5.078217
0
3DFACE
8
0
70
0
10
-1.678429
20
186.223999
30
5.078217
11
-62.614246
21
164.225403
31
1.122001
12
-39.401382
22
182.370697
32
31.855993
13
-1.710917
23
185.092712
33
8.887280
0
3DFACE
8
0
70
0
10
-62.614246
20
164.225403
30
1.122001
11
-56.384747
21
150.229858
31
59.291286
12
-39.401382
22
182.370697
32
31.855993
13
-39.401382
23
182.370697
33
31.855993
0
3DFACE
8
0
70
0
10
-56.384747
20
150.229858
30
59.291286
11
-32.662834
21
168.685516
31
60.032959
12
-39.401382
22
182.370697
32
31.855993
13
-39.401382
23
182.370697
33
31.855993
0
3DFACE
8
0
70
0
10
53.165054
20
150.229858
30
59.291286
11
36.082680
21
182.370697
31
31.855993
12
29.524624
22
168.685516
32
60.032959
13
29.524624
23
168.685516
33
60.032959
0
3DFACE
8
0
70
0
10
59.324776
20
163.358582
30
1.588909
11
36.082680
21
182.370697
31
31.855993
12
53.165054
22
150.229858
32
59.291286
13
53.165054
23
150.229858
33
59.291286
0
3DFACE
8
0
70
0
10
-1.530715
20
157.276611
30
67.180084
11
-32.662834
21
168.685516
31
60.032959
12
-56.384747
22
150.229858
32
59.291286
13
-56.384747
23
150.229858
33
59.291286
0
3DFACE
8
0
70
0
10
-1.607494
20
153.841797
30
56.009388
11
-32.662834
21
168.685516
31
60.032959
12
-1.530715
22
157.276611
32
67.180084
13
-1.530715
23
157.276611
33
67.180084
0
3DFACE
8
0
70
0
10
-1.607494
20
153.841797
30
56.009388
11
-1.530715
21
157.276611
31
67.180084
12
29.524624
22
168.685516
32
60.032959
13
29.524624
23
168.685516
33
60.032959
0
3DFACE
8
0
70
0
10
-1.530715
20
157.276611
30
67.180084
11
53.165054
21
150.229858
31
59.291286
12
29.524624
22
168.685516
32
60.032959
13
29.524624
23
168.685516
33
60.032959
0
3DFACE
8
0
70
0
10
-1.607494
20
249.870544
30
-6.572620
11
-1.635491
21
309.526459
31
-3.825747
12
14.334697
22
314.903625
32
-0.089625
13
38.763630
23
261.728729
33
8.920168
0
3DFACE
8
0
70
0
10
38.763630
20
261.728729
30
8.920168
11
14.334697
21
314.903625
31
-0.089625
12
25.052366
22
322.885315
32
5.456096
13
58.351551
23
275.688202
33
25.418482
0
3DFACE
8
0
70
0
10
58.351551
20
275.688202
30
25.418482
11
25.052366
21
322.885315
31
5.456096
12
22.600004
22
331.050537
32
11.129344
13
52.081612
23
288.023102
33
45.074883
0
3DFACE
8
0
70
0
10
52.081612
20
288.023102
30
45.074883
11
22.600004
21
331.050537
31
11.129344
12
19.921379
22
341.172974
32
18.162506
13
43.041084
23
305.265472
33
67.455788
0
3DFACE
8
0
70
0
10
-1.607491
20
315.291687
30
85.209030
11
18.180769
21
311.979828
31
78.552322
12
7.991022
22
346.087585
32
21.577219
13
-1.635485
23
348.955750
33
23.570042
0
3DFACE
8
0
70
0
10
-1.607494
20
249.870544
30
-6.572620
11
-41.978619
21
261.728729
31
8.920166
12
-17.605677
22
314.903625
32
-0.089629
13
-1.635491
23
309.526459
33
-3.825747
0
3DFACE
8
0
70
0
10
-41.978619
20
261.728729
30
8.920166
11
-61.566532
21
275.688202
31
25.418480
12
-28.323338
22
322.885345
32
5.456089
13
-17.605677
23
314.903625
33
-0.089629
0
3DFACE
8
0
70
0
10
-61.566532
20
275.688202
30
25.418480
11
-55.296593
21
288.023102
31
45.074879
12
-25.870979
22
331.050537
32
11.129338
13
-28.323338
23
322.885345
33
5.456089
0
3DFACE
8
0
70
0
10
-55.296593
20
288.023102
30
45.074879
11
-46.256058
21
305.265472
31
67.455788
12
-23.192352
22
341.173004
32
18.162502
13
-25.870979
23
331.050537
33
11.129338
0
3DFACE
8
0
70
0
10
-1.607491
20
315.291687
30
85.209030
11
-1.635485
21
348.955750
31
23.570042
12
-11.261992
22
346.087585
32
21.577217
13
-21.395754
23
311.979828
33
78.552315
0
3DFACE
8
0
70
0
10
43.041084
20
305.265472
30
67.455788
11
19.921379
21
341.172974
31
18.162506
12
7.991022
22
346.087585
32
21.577219
13
18.180769
23
311.979828
33
78.552322
0
3DFACE
8
0
70
0
10
-46.256058
20
305.265472
30
67.455788
11
-21.395754
21
311.979828
31
78.552315
12
-11.261992
22
346.087585
32
21.577217
13
-23.192352
23
341.173004
33
18.162502
0
3DFACE
8
0
70
0
10
-1.677327
20
348.654022
30
-46.427982
11
11.931598
21
342.437225
31
-53.713970
12
-1.677324
22
342.219482
32
-61.175091
13
-1.677324
23
342.219482
33
-61.175091
0
3DFACE
8
0
70
0
10
11.931594
20
342.872681
30
-38.791855
11
11.931598
21
342.437225
31
-53.713970
12
-1.677327
22
348.654022
32
-46.427982
13
-1.677327
23
348.654022
33
-46.427982
0
3DFACE
8
0
70
0
10
-1.677330
20
343.090424
30
-31.330803
11
11.931594
21
342.872681
31
-38.791855
12
-1.677327
22
348.654022
32
-46.427982
13
-1.677327
23
348.654022
33
-46.427982
0
3DFACE
8
0
70
0
10
-1.677330
20
343.090424
30
-31.330803
11
-1.677327
21
348.654022
31
-46.427982
12
-15.286220
22
342.872681
32
-38.791862
13
-15.286220
23
342.872681
33
-38.791862
0
3DFACE
8
0
70
0
10
-15.286220
20
342.872681
30
-38.791862
11
-1.677327
21
348.654022
31
-46.427982
12
-15.286216
22
342.437225
32
-53.713974
13
-15.286216
23
342.437225
33
-53.713974
0
3DFACE
8
0
70
0
10
-1.677327
20
348.654022
30
-46.427982
11
-1.677324
21
342.219482
31
-61.175091
12
-15.286216
22
342.437225
32
-53.713974
13
-15.286216
23
342.437225
33
-53.713974
0
3DFACE
8
0
70
0
10
11.931598
20
342.437225
30
-53.713970
11
17.568569
21
327.864014
31
-56.381859
12
-1.677322
22
327.556091
32
-66.933403
13
-1.677324
23
342.219482
33
-61.175091
0
3DFACE
8
0
70
0
10
17.568565
20
328.479858
30
-35.278725
11
17.568569
21
327.864014
31
-56.381859
12
11.931598
22
342.437225
32
-53.713970
13
11.931594
23
342.872681
33
-38.791855
0
3DFACE
8
0
70
0
10
-1.677332
20
328.787781
30
-24.727221
11
17.568565
21
328.479858
31
-35.278725
12
11.931594
22
342.872681
32
-38.791855
13
-1.677330
23
343.090424
33
-31.330803
0
3DFACE
8
0
70
0
10
-1.677332
20
328.787781
30
-24.727221
11
-1.677330
21
343.090424
31
-31.330803
12
-15.286220
22
342.872681
32
-38.791862
13
-20.923227
23
328.479858
33
-35.278732
0
3DFACE
8
0
70
0
10
-20.923227
20
328.479858
30
-35.278732
11
-15.286220
21
342.872681
31
-38.791862
12
-15.286216
22
342.437225
32
-53.713974
13
-20.923223
23
327.864014
33
-56.381870
0
3DFACE
8
0
70
0
10
-15.286216
20
342.437225
30
-53.713974
11
-1.677324
21
342.219482
31
-61.175091
12
-1.677322
22
327.556091
32
-66.933403
13
-20.923223
23
327.864014
33
-56.381870
0
3DFACE
8
0
70
0
10
11.931596
20
313.471161
30
-52.868668
11
-1.677323
21
313.253448
31
-60.329788
12
-1.677322
22
327.556091
32
-66.933403
13
17.568569
23
327.864014
33
-56.381859
0
3DFACE
8
0
70
0
10
17.568565
20
328.479858
30
-35.278725
11
11.931592
21
313.906647
31
-37.946556
12
11.931596
22
313.471161
32
-52.868668
13
17.568569
23
327.864014
33
-56.381859
0
3DFACE
8
0
70
0
10
-1.677332
20
328.787781
30
-24.727221
11
-1.677330
21
314.124359
31
-30.485500
12
11.931592
22
313.906647
32
-37.946556
13
17.568565
23
328.479858
33
-35.278725
0
3DFACE
8
0
70
0
10
-1.677332
20
328.787781
30
-24.727221
11
-20.923227
21
328.479858
31
-35.278732
12
-15.286220
22
313.906647
32
-37.946560
13
-1.677330
23
314.124359
33
-30.485500
0
3DFACE
8
0
70
0
10
-20.923227
20
328.479858
30
-35.278732
11
-20.923223
21
327.864014
31
-56.381870
12
-15.286216
22
313.471191
32
-52.868675
13
-15.286220
23
313.906647
33
-37.946560
0
3DFACE
8
0
70
0
10
-15.286216
20
313.471191
30
-52.868675
11
-20.923223
21
327.864014
31
-56.381870
12
-1.677322
22
327.556091
32
-66.933403
13
-1.677323
23
313.253448
33
-60.329788
0
3DFACE
8
0
70
0
10
-1.677336
20
307.689819
30
-45.232548
11
-1.677323
21
313.253448
31
-60.329788
12
11.931596
22
313.471161
32
-52.868668
13
11.931596
23
313.471161
33
-52.868668
0
3DFACE
8
0
70
0
10
11.931592
20
313.906647
30
-37.946556
11
-1.677336
21
307.689819
31
-45.232548
12
11.931596
22
313.471161
32
-52.868668
13
11.931596
23
313.471161
33
-52.868668
0
3DFACE
8
0
70
0
10
-1.677330
20
314.124359
30
-30.485500
11
-1.677336
21
307.689819
31
-45.232548
12
11.931592
22
313.906647
32
-37.946556
13
11.931592
23
313.906647
33
-37.946556
0
3DFACE
8
0
70
0
10
-1.677330
20
314.124359
30
-30.485500
11
-15.286220
21
313.906647
31
-37.946560
12
-1.677336
22
307.689819
32
-45.232548
13
-1.677336
23
307.689819
33
-45.232548
0
3DFACE
8
0
70
0
10
-15.286220
20
313.906647
30
-37.946560
11
-15.286216
21
313.471191
31
-52.868675
12
-1.677336
22
307.689819
32
-45.232548
13
-1.677336
23
307.689819
33
-45.232548
0
3DFACE
8
0
70
0
10
-1.677336
20
307.689819
30
-45.232548
11
-15.286216
21
313.471191
31
-52.868675
12
-1.677323
22
313.253448
32
-60.329788
13
-1.677323
23
313.253448
33
-60.329788
0
3DFACE
8
0
70
0
10
24.486101
20
210.842712
30
98.608398
11
47.702778
21
217.949402
31
77.948036
12
35.982723
22
226.656067
32
101.725830
13
35.982723
23
226.656067
33
101.725830
0
3DFACE
8
0
70
0
10
47.702778
20
217.949402
30
77.948036
11
44.636703
21
227.472778
31
78.504814
12
35.982723
22
226.656067
32
101.725830
13
35.982723
23
226.656067
33
101.725830
0
3DFACE
8
0
70
0
10
9.858967
20
208.222351
30
104.511536
11
24.486101
21
210.842712
31
98.608398
12
21.350962
22
226.809387
32
104.760262
13
21.350962
23
226.809387
33
104.760262
0
3DFACE
8
0
70
0
10
24.486101
20
210.842712
30
98.608398
11
35.982723
21
226.656067
31
101.725830
12
21.350962
22
226.809387
32
104.760262
13
21.350962
23
226.809387
33
104.760262
0
3DFACE
8
0
70
0
10
35.982723
20
226.656067
30
101.725830
11
44.636703
21
227.472778
31
78.504814
12
26.025074
22
240.011353
32
98.549278
13
26.025074
23
240.011353
33
98.549278
0
3DFACE
8
0
70
0
10
44.636703
20
227.472778
30
78.504814
11
42.194927
21
240.571960
31
78.655991
12
26.025074
22
240.011353
32
98.549278
13
26.025074
23
240.011353
33
98.549278
0
3DFACE
8
0
70
0
10
21.350962
20
226.809387
30
104.760262
11
26.025074
21
240.011353
31
98.549278
12
13.193185
22
238.730438
32
104.835991
13
13.193185
23
238.730438
33
104.835991
0
3DFACE
8
0
70
0
10
35.982723
20
226.656067
30
101.725830
11
26.025074
21
240.011353
31
98.549278
12
21.350962
22
226.809387
32
104.760262
13
21.350962
23
226.809387
33
104.760262
0
3DFACE
8
0
70
0
10
26.025074
20
240.011353
30
98.549278
11
42.194927
21
240.571960
31
78.655991
12
30.955339
22
258.851166
32
93.899803
13
30.955339
23
258.851166
33
93.899803
0
3DFACE
8
0
70
0
10
42.194927
20
240.571960
30
78.655991
11
44.167683
21
253.053009
31
78.003784
12
30.955339
22
258.851166
32
93.899803
13
30.955339
23
258.851166
33
93.899803
0
3DFACE
8
0
70
0
10
-50.917759
20
217.949402
30
77.948036
11
-39.197708
21
226.656067
31
101.725830
12
-47.851685
22
227.472778
32
78.504814
13
-47.851685
23
227.472778
33
78.504814
0
3DFACE
8
0
70
0
10
-27.701090
20
210.842712
30
98.608398
11
-39.197708
21
226.656067
31
101.725830
12
-50.917759
22
217.949402
32
77.948036
13
-50.917759
23
217.949402
33
77.948036
0
3DFACE
8
0
70
0
10
-27.701090
20
210.842712
30
98.608398
11
-24.565950
21
226.809387
31
104.760262
12
-39.197708
22
226.656067
32
101.725830
13
-39.197708
23
226.656067
33
101.725830
0
3DFACE
8
0
70
0
10
-13.073955
20
208.222351
30
104.511536
11
-24.565950
21
226.809387
31
104.760262
12
-27.701090
22
210.842712
32
98.608398
13
-27.701090
23
210.842712
33
98.608398
0
3DFACE
8
0
70
0
10
-47.851685
20
227.472778
30
78.504814
11
-28.368025
21
240.011353
31
98.549278
12
-45.409916
22
240.571960
32
78.655991
13
-45.409916
23
240.571960
33
78.655991
0
3DFACE
8
0
70
0
10
-39.197708
20
226.656067
30
101.725830
11
-28.368025
21
240.011353
31
98.549278
12
-47.851685
22
227.472778
32
78.504814
13
-47.851685
23
227.472778
33
78.504814
0
3DFACE
8
0
70
0
10
-24.565950
20
226.809387
30
104.760262
11
-16.408175
21
238.730438
31
104.835991
12
-28.368025
22
240.011353
32
98.549278
13
-28.368025
23
240.011353
33
98.549278
0
3DFACE
8
0
70
0
10
-39.197708
20
226.656067
30
101.725830
11
-24.565950
21
226.809387
31
104.760262
12
-28.368025
22
240.011353
32
98.549278
13
-28.368025
23
240.011353
33
98.549278
0
3DFACE
8
0
70
0
10
-45.409916
20
240.571960
30
78.655991
11
-33.298290
21
258.851166
31
93.899803
12
-47.382668
22
253.053009
32
78.003784
13
-47.382668
23
253.053009
33
78.003784
0
3DFACE
8
0
70
0
10
-28.368025
20
240.011353
30
98.549278
11
-33.298290
21
258.851166
31
93.899803
12
-45.409916
22
240.571960
32
78.655991
13
-45.409916
23
240.571960
33
78.655991
0
3DFACE
8
0
70
0
10
27.515648
20
-28.374283
30
44.931011
11
25.365429
21
-6.188858
31
26.600973
12
20.718592
22
-16.467316
32
-0.042657
13
20.718592
23
-16.467316
33
-0.042657
0
3DFACE
8
0
70
0
10
27.515648
20
-28.374283
30
44.931011
11
20.718592
21
-16.467316
31
-0.042657
12
22.521044
22
-31.522659
32
20.360384
13
22.521044
23
-31.522659
33
20.360384
0
3DFACE
8
0
70
0
10
27.515648
20
-28.374283
30
44.931011
11
68.134216
21
-6.785767
31
22.356989
12
25.365429
22
-6.188858
32
26.600973
13
25.365429
23
-6.188858
33
26.600973
0
3DFACE
8
0
70
0
10
27.515648
20
-28.374283
30
44.931011
11
64.238838
21
-28.435158
31
40.741806
12
68.134216
22
-6.785767
32
22.356989
13
68.134216
23
-6.785767
33
22.356989
0
3DFACE
8
0
70
0
10
64.238838
20
-28.435158
30
40.741806
11
80.689575
21
-12.312592
31
7.087194
12
68.134216
22
-6.785767
32
22.356989
13
68.134216
23
-6.785767
33
22.356989
0
3DFACE
8
0
70
0
10
64.238838
20
-28.435158
30
40.741806
11
75.085976
21
-30.069199
31
26.633718
12
80.689575
22
-12.312592
32
7.087194
13
80.689575
23
-12.312592
33
7.087194
0
3DFACE
8
0
70
0
10
33.352402
20
-34.363159
30
-3.354745
11
20.718592
21
-16.467316
31
-0.042657
12
31.876293
22
-26.079948
32
-25.931761
13
31.876293
23
-26.079948
33
-25.931761
0
3DFACE
8
0
70
0
10
22.521044
20
-31.522659
30
20.360384
11
20.718592
21
-16.467316
31
-0.042657
12
33.352402
22
-34.363159
32
-3.354745
13
33.352402
23
-34.363159
33
-3.354745
0
3DFACE
8
0
70
0
10
68.032730
20
-32.327927
30
9.356065
11
72.366280
21
-19.714966
31
-11.789291
12
80.689575
22
-12.312592
32
7.087194
13
80.689575
23
-12.312592
33
7.087194
0
3DFACE
8
0
70
0
10
75.085976
20
-30.069199
30
26.633718
11
68.032730
21
-32.327927
31
9.356065
12
80.689575
22
-12.312592
32
7.087194
13
80.689575
23
-12.312592
33
7.087194
0
3DFACE
8
0
70
0
10
33.352402
20
-34.363159
30
-3.354745
11
31.876293
21
-26.079948
31
-25.931761
12
72.366280
22
-19.714966
32
-11.789291
13
72.366280
23
-19.714966
33
-11.789291
0
3DFACE
8
0
70
0
10
68.032730
20
-32.327927
30
9.356065
11
33.352402
21
-34.363159
31
-3.354745
12
72.366280
22
-19.714966
32
-11.789291
13
72.366280
23
-19.714966
33
-11.789291
0
3DFACE
8
0
70
0
10
-31.407326
20
-67.368263
30
4.467116
11
-22.361673
21
-71.067848
31
-15.061238
12
-19.974178
22
-41.551086
32
-17.645689
13
-19.974178
23
-41.551086
33
-17.645689
0
3DFACE
8
0
70
0
10
-31.407326
20
-67.368263
30
4.467116
11
-19.974178
21
-41.551086
31
-17.645689
12
-29.807106
22
-53.530045
32
4.525723
13
-29.807106
23
-53.530045
33
4.525723
0
3DFACE
8
0
70
0
10
-31.407326
20
-67.368263
30
4.467116
11
-29.807106
21
-53.530045
31
4.525723
12
-70.718086
22
-52.201797
32
-8.768980
13
-70.718086
23
-52.201797
33
-8.768980
0
3DFACE
8
0
70
0
10
-31.407326
20
-67.368263
30
4.467116
11
-70.718086
21
-52.201797
31
-8.768980
12
-66.501244
22
-67.517532
32
-7.344403
13
-66.501244
23
-67.517532
33
-7.344403
0
3DFACE
8
0
70
0
10
-66.501244
20
-67.517532
30
-7.344403
11
-70.718086
21
-52.201797
31
-8.768980
12
-79.940361
22
-45.539337
32
-24.890615
13
-79.940361
23
-45.539337
33
-24.890615
0
3DFACE
8
0
70
0
10
-66.501244
20
-67.517532
30
-7.344403
11
-79.940361
21
-45.539337
31
-24.890615
12
-74.679749
22
-69.466034
32
-21.653267
13
-74.679749
23
-69.466034
33
-21.653267
0
3DFACE
8
0
70
0
10
-28.892054
20
-74.438049
30
-37.442905
11
-25.721006
21
-30.120247
31
-42.706120
12
-19.974178
22
-41.551086
32
-17.645689
13
-19.974178
23
-41.551086
33
-17.645689
0
3DFACE
8
0
70
0
10
-22.361673
20
-71.067848
30
-15.061238
11
-28.892054
21
-74.438049
31
-37.442905
12
-19.974178
22
-41.551086
32
-17.645689
13
-19.974178
23
-41.551086
33
-17.645689
0
3DFACE
8
0
70
0
10
-74.679749
20
-69.466034
30
-21.653267
11
-79.940361
21
-45.539337
31
-24.890615
12
-64.866318
22
-72.112900
32
-34.585918
13
-64.866318
23
-72.112900
33
-34.585918
0
3DFACE
8
0
70
0
10
-64.866318
20
-72.112900
30
-34.585918
11
-79.940361
21
-45.539337
31
-24.890615
12
-68.062126
22
-36.985428
32
-39.469677
13
-68.062126
23
-36.985428
33
-39.469677
0
3DFACE
8
0
70
0
10
-64.866318
20
-72.112900
30
-34.585918
11
-68.062126
21
-36.985428
31
-39.469677
12
-28.892054
22
-74.438049
32
-37.442905
13
-28.892054
23
-74.438049
33
-37.442905
0
3DFACE
8
0
70
0
10
-28.892054
20
-74.438049
30
-37.442905
11
-68.062126
21
-36.985428
31
-39.469677
12
-25.721006
22
-30.120247
32
-42.706120
13
-25.721006
23
-30.120247
33
-42.706120
0
3DFACE
8
0
70
0
10
30.713009
20
-51.061890
30
23.727510
11
27.515648
21
-28.374283
31
44.931011
12
22.521044
22
-31.522659
32
20.360384
13
22.521044
23
-31.522659
33
20.360384
0
3DFACE
8
0
70
0
10
26.262030
20
-73.709068
30
-8.182073
11
30.713009
21
-51.061890
31
23.727510
12
22.521044
22
-31.522659
32
20.360384
13
22.521044
23
-31.522659
33
20.360384
0
3DFACE
8
0
70
0
10
65.801590
20
-55.725731
30
16.429588
11
64.238838
21
-28.435158
31
40.741806
12
30.713009
22
-51.061890
32
23.727510
13
30.713009
23
-51.061890
33
23.727510
0
3DFACE
8
0
70
0
10
30.713009
20
-51.061890
30
23.727510
11
64.238838
21
-28.435158
31
40.741806
12
27.515648
22
-28.374283
32
44.931011
13
27.515648
23
-28.374283
33
44.931011
0
3DFACE
8
0
70
0
10
75.876106
20
-74.256981
30
-3.473596
11
75.085976
21
-30.069199
31
26.633718
12
65.801590
22
-55.725731
32
16.429588
13
65.801590
23
-55.725731
33
16.429588
0
3DFACE
8
0
70
0
10
65.801590
20
-55.725731
30
16.429588
11
75.085976
21
-30.069199
31
26.633718
12
64.238838
22
-28.435158
32
40.741806
13
64.238838
23
-28.435158
33
40.741806
0
3DFACE
8
0
70
0
10
26.262030
20
-73.709068
30
-8.182073
11
22.521044
21
-31.522659
31
20.360384
12
33.352402
22
-34.363159
32
-3.354745
13
33.352402
23
-34.363159
33
-3.354745
0
3DFACE
8
0
70
0
10
12.467833
20
-97.630569
30
-42.960083
11
26.262030
21
-73.709068
31
-8.182073
12
33.352402
22
-34.363159
32
-3.354745
13
33.352402
23
-34.363159
33
-3.354745
0
3DFACE
8
0
70
0
10
85.455803
20
-97.579384
30
-33.995968
11
68.032730
21
-32.327927
31
9.356065
12
75.876106
22
-74.256981
32
-3.473596
13
75.876106
23
-74.256981
33
-3.473596
0
3DFACE
8
0
70
0
10
75.876106
20
-74.256981
30
-3.473596
11
68.032730
21
-32.327927
31
9.356065
12
75.085976
22
-30.069199
32
26.633718
13
75.085976
23
-30.069199
33
26.633718
0
3DFACE
8
0
70
0
10
12.467833
20
-97.630569
30
-42.960083
11
33.352402
21
-34.363159
31
-3.354745
12
85.455803
22
-97.579384
32
-33.995968
13
85.455803
23
-97.579384
33
-33.995968
0
3DFACE
8
0
70
0
10
85.455803
20
-97.579384
30
-33.995968
11
33.352402
21
-34.363159
31
-3.354745
12
68.032730
22
-32.327927
32
9.356065
13
68.032730
23
-32.327927
33
9.356065
0
3DFACE
8
0
70
0
10
-30.570967
20
-123.740837
30
-6.648335
11
-22.361673
21
-71.067848
31
-15.061238
12
-34.747211
22
-87.160408
32
4.987564
13
-34.747211
23
-87.160408
33
4.987564
0
3DFACE
8
0
70
0
10
-34.747211
20
-87.160408
30
4.987564
11
-22.361673
21
-71.067848
31
-15.061238
12
-31.407326
22
-67.368263
32
4.467116
13
-31.407326
23
-67.368263
33
4.467116
0
3DFACE
8
0
70
0
10
-34.747211
20
-87.160408
30
4.987564
11
-31.407326
21
-67.368263
31
4.467116
12
-66.501244
22
-67.517532
32
-7.344403
13
-66.501244
23
-67.517532
33
-7.344403
0
3DFACE
8
0
70
0
10
-69.163162
20
-93.512146
30
-4.637854
11
-34.747211
21
-87.160408
31
4.987564
12
-66.501244
22
-67.517532
32
-7.344403
13
-66.501244
23
-67.517532
33
-7.344403
0
3DFACE
8
0
70
0
10
-69.163162
20
-93.512146
30
-4.637854
11
-66.501244
21
-67.517532
31
-7.344403
12
-74.679749
22
-69.466034
32
-21.653267
13
-74.679749
23
-69.466034
33
-21.653267
0
3DFACE
8
0
70
0
10
-79.819199
20
-118.735085
30
-11.757832
11
-69.163162
21
-93.512146
31
-4.637854
12
-74.679749
22
-69.466034
32
-21.653267
13
-74.679749
23
-69.466034
33
-21.653267
0
3DFACE
8
0
70
0
10
-17.128164
20
-163.503281
30
-18.112270
11
-28.892054
21
-74.438049
31
-37.442905
12
-30.570967
22
-123.740837
32
-6.648335
13
-30.570967
23
-123.740837
33
-6.648335
0
3DFACE
8
0
70
0
10
-30.570967
20
-123.740837
30
-6.648335
11
-28.892054
21
-74.438049
31
-37.442905
12
-22.361673
22
-71.067848
32
-15.061238
13
-22.361673
23
-71.067848
33
-15.061238
0
3DFACE
8
0
70
0
10
-79.819199
20
-118.735085
30
-11.757832
11
-74.679749
21
-69.466034
31
-21.653267
12
-64.866318
22
-72.112900
32
-34.585918
13
-64.866318
23
-72.112900
33
-34.585918
0
3DFACE
8
0
70
0
10
-89.651794
20
-154.217453
30
-24.497774
11
-79.819199
21
-118.735085
31
-11.757832
12
-64.866318
22
-72.112900
32
-34.585918
13
-64.866318
23
-72.112900
33
-34.585918
0
3DFACE
8
0
70
0
10
-89.651794
20
-154.217453
30
-24.497774
11
-64.866318
21
-72.112900
31
-34.585918
12
-28.892054
22
-74.438049
32
-37.442905
13
-28.892054
23
-74.438049
33
-37.442905
0
3DFACE
8
0
70
0
10
-17.128164
20
-163.503281
30
-18.112270
11
-89.651794
21
-154.217453
31
-24.497774
12
-28.892054
22
-74.438049
32
-37.442905
13
-28.892054
23
-74.438049
33
-37.442905
0
3DFACE
8
0
70
0
10
88.883751
20
70.469849
30
82.000191
11
-3.296396
21
76.699356
31
116.805862
12
-13.169409
22
58.324799
32
104.873352
13
-13.169409
23
58.324799
33
104.873352
0
3DFACE
8
0
70
0
10
88.883751
20
70.469849
30
82.000191
11
98.668854
21
92.074951
31
87.796310
12
-3.296396
22
76.699356
32
116.805862
13
-3.296396
23
76.699356
33
116.805862
0
3DFACE
8
0
70
0
10
98.266556
20
62.724609
30
-72.237839
11
-0.403276
21
47.802277
31
-109.522667
12
-1.845714
22
80.552032
32
-101.632431
13
-1.845714
23
80.552032
33
-101.632431
0
3DFACE
8
0
70
0
10
98.266556
20
62.724609
30
-72.237839
11
-1.845714
21
80.552032
31
-101.632431
12
99.839066
22
83.789429
32
-66.388184
13
99.839066
23
83.789429
33
-66.388184
0
3DFACE
8
0
70
0
10
88.883751
20
70.469849
30
82.000191
11
123.892960
21
87.886292
31
2.312894
12
98.668854
22
92.074951
32
87.796310
13
98.668854
23
92.074951
33
87.796310
0
3DFACE
8
0
70
0
10
88.883751
20
70.469849
30
82.000191
11
117.613922
21
70.007553
31
8.703017
12
123.892960
22
87.886292
32
2.312894
13
123.892960
23
87.886292
33
2.312894
0
3DFACE
8
0
70
0
10
117.613922
20
70.007553
30
8.703017
11
98.266556
21
62.724609
31
-72.237839
12
99.839066
22
83.789429
32
-66.388184
13
99.839066
23
83.789429
33
-66.388184
0
3DFACE
8
0
70
0
10
117.613922
20
70.007553
30
8.703017
11
99.839066
21
83.789429
31
-66.388184
12
123.892960
22
87.886292
32
2.312894
13
123.892960
23
87.886292
33
2.312894
0
3DFACE
8
0
70
0
10
-111.551506
20
43.051880
30
67.588600
11
-13.169409
21
58.324799
31
104.873352
12
-3.296396
22
76.699356
32
116.805862
13
-3.296396
23
76.699356
33
116.805862
0
3DFACE
8
0
70
0
10
-111.551506
20
43.051880
30
67.588600
11
-3.296396
21
76.699356
31
116.805862
12
-105.212952
22
88.616852
32
85.978653
13
-105.212952
23
88.616852
33
85.978653
0
3DFACE
8
0
70
0
10
-102.168701
20
35.306610
30
-86.649429
11
-1.845714
21
80.552032
31
-101.632431
12
-0.403276
22
47.802277
32
-109.522667
13
-0.403276
23
47.802277
33
-109.522667
0
3DFACE
8
0
70
0
10
-102.168701
20
35.306610
30
-86.649429
11
-104.042732
21
80.331329
31
-68.205849
12
-1.845714
22
80.552032
32
-101.632431
13
-1.845714
23
80.552032
33
-101.632431
0
3DFACE
8
0
70
0
10
-111.551506
20
43.051880
30
67.588600
11
-129.136139
21
83.594604
31
0.057070
12
-131.152451
22
35.978256
32
-9.183647
13
-131.152451
23
35.978256
33
-9.183647
0
3DFACE
8
0
70
0
10
-111.551506
20
43.051880
30
67.588600
11
-105.212952
21
88.616852
31
85.978653
12
-129.136139
22
83.594604
32
0.057070
13
-129.136139
23
83.594604
33
0.057070
0
3DFACE
8
0
70
0
10
-131.152451
20
35.978256
30
-9.183647
11
-129.136139
21
83.594604
31
0.057070
12
-104.042732
22
80.331329
32
-68.205849
13
-104.042732
23
80.331329
33
-68.205849
0
3DFACE
8
0
70
0
10
-131.152451
20
35.978256
30
-9.183647
11
-104.042732
21
80.331329
31
-68.205849
12
-102.168701
22
35.306610
32
-86.649429
13
-102.168701
23
35.306610
33
-86.649429
0
3DFACE
8
0
70
0
10
-3.296396
20
76.699356
30
116.805862
11
53.165054
21
150.229858
31
59.291286
12
-1.530715
22
157.276611
32
67.180084
13
-1.530715
23
157.276611
33
67.180084
0
3DFACE
8
0
70
0
10
-3.296396
20
76.699356
30
116.805862
11
98.668854
21
92.074951
31
87.796310
12
53.165054
22
150.229858
32
59.291286
13
53.165054
23
150.229858
33
59.291286
0
3DFACE
8
0
70
0
10
99.839066
20
83.789429
30
-66.388184
11
-1.845714
21
80.552032
31
-101.632431
12
53.277077
22
164.689636
32
-36.493587
13
53.277077
23
164.689636
33
-36.493587
0
3DFACE
8
0
70
0
10
-1.845714
20
80.552032
30
-101.632431
11
-1.694841
21
162.554443
31
-46.094997
12
53.277077
22
164.689636
32
-36.493587
13
53.277077
23
164.689636
33
-36.493587
0
3DFACE
8
0
70
0
10
98.668854
20
92.074951
30
87.796310
11
105.730988
21
125.265167
31
11.216920
12
77.795975
22
150.351807
32
48.151585
13
77.795975
23
150.351807
33
48.151585
0
3DFACE
8
0
70
0
10
98.668854
20
92.074951
30
87.796310
11
123.892960
21
87.886292
31
2.312894
12
105.730988
22
125.265167
32
11.216920
13
105.730988
23
125.265167
33
11.216920
0
3DFACE
8
0
70
0
10
99.839066
20
83.789429
30
-66.388184
11
83.864571
21
136.011230
31
-28.075499
12
105.730988
22
125.265167
32
11.216920
13
105.730988
23
125.265167
33
11.216920
0
3DFACE
8
0
70
0
10
123.892960
20
87.886292
30
2.312894
11
99.839066
21
83.789429
31
-66.388184
12
105.730988
22
125.265167
32
11.216920
13
105.730988
23
125.265167
33
11.216920
0
3DFACE
8
0
70
0
10
98.668854
20
92.074951
30
87.796310
11
77.795975
21
150.351807
31
48.151585
12
53.165054
22
150.229858
32
59.291286
13
53.165054
23
150.229858
33
59.291286
0
3DFACE
8
0
70
0
10
99.839066
20
83.789429
30
-66.388184
11
53.277077
21
164.689636
31
-36.493587
12
83.864571
22
136.011230
32
-28.075499
13
83.864571
23
136.011230
33
-28.075499
0
3DFACE
8
0
70
0
10
-3.296396
20
76.699356
30
116.805862
11
-56.384747
21
150.229858
31
59.291286
12
-105.212952
22
88.616852
32
85.978653
13
-105.212952
23
88.616852
33
85.978653
0
3DFACE
8
0
70
0
10
-3.296396
20
76.699356
30
116.805862
11
-1.530715
21
157.276611
31
67.180084
12
-56.384747
22
150.229858
32
59.291286
13
-56.384747
23
150.229858
33
59.291286
0
3DFACE
8
0
70
0
10
-104.042732
20
80.331329
30
-68.205849
11
-56.539932
21
164.689636
31
-36.493587
12
-1.845714
22
80.552032
32
-101.632431
13
-1.845714
23
80.552032
33
-101.632431
0
3DFACE
8
0
70
0
10
-1.845714
20
80.552032
30
-101.632431
11
-56.539932
21
164.689636
31
-36.493587
12
-1.694841
22
162.554443
32
-46.094997
13
-1.694841
23
162.554443
33
-46.094997
0
3DFACE
8
0
70
0
10
-105.212952
20
88.616852
30
85.978653
11
-78.962326
21
153.118103
31
48.446587
12
-107.856590
22
127.575439
32
12.960711
13
-107.856590
23
127.575439
33
12.960711
0
3DFACE
8
0
70
0
10
-105.212952
20
88.616852
30
85.978653
11
-107.856590
21
127.575439
31
12.960711
12
-129.136139
22
83.594604
32
0.057070
13
-129.136139
23
83.594604
33
0.057070
0
3DFACE
8
0
70
0
10
-129.136139
20
83.594604
30
0.057070
11
-107.856590
21
127.575439
31
12.960711
12
-104.042732
22
80.331329
32
-68.205849
13
-104.042732
23
80.331329
33
-68.205849
0
3DFACE
8
0
70
0
10
-104.042732
20
80.331329
30
-68.205849
11
-107.856590
21
127.575439
31
12.960711
12
-87.346901
22
136.613831
32
-27.828817
13
-87.346901
23
136.613831
33
-27.828817
0
3DFACE
8
0
70
0
10
-105.212952
20
88.616852
30
85.978653
11
-56.384747
21
150.229858
31
59.291286
12
-78.962326
22
153.118103
32
48.446587
13
-78.962326
23
153.118103
33
48.446587
0
3DFACE
8
0
70
0
10
-104.042732
20
80.331329
30
-68.205849
11
-87.346901
21
136.613831
31
-27.828817
12
-56.539932
22
164.689636
32
-36.493587
13
-56.539932
23
164.689636
33
-36.493587
0
3DFACE
8
0
70
0
10
105.730988
20
125.265167
30
11.216920
11
133.861450
21
174.791504
31
47.035889
12
77.795975
22
150.351807
32
48.151585
13
77.795975
23
150.351807
33
48.151585
0
3DFACE
8
0
70
0
10
175.636032
20
156.738770
30
31.183369
11
133.861450
21
174.791504
31
47.035889
12
105.730988
22
125.265167
32
11.216920
13
105.730988
23
125.265167
33
11.216920
0
3DFACE
8
0
70
0
10
77.795975
20
150.351807
30
48.151585
11
151.628845
21
201.187134
31
4.759647
12
59.324776
22
163.358582
32
1.588909
13
59.324776
23
163.358582
33
1.588909
0
3DFACE
8
0
70
0
10
77.795975
20
150.351807
30
48.151585
11
133.861450
21
174.791504
31
47.035889
12
151.628845
22
201.187134
32
4.759647
13
151.628845
23
201.187134
33
4.759647
0
3DFACE
8
0
70
0
10
83.864571
20
136.011230
30
-28.075499
11
59.324776
21
163.358582
31
1.588909
12
151.628845
22
201.187134
32
4.759647
13
151.628845
23
201.187134
33
4.759647
0
3DFACE
8
0
70
0
10
83.864571
20
136.011230
30
-28.075499
11
151.628845
21
201.187134
31
4.759647
12
188.830475
22
180.570007
32
-4.622372
13
188.830475
23
180.570007
33
-4.622372
0
3DFACE
8
0
70
0
10
105.730988
20
125.265167
30
11.216920
11
83.864571
21
136.011230
31
-28.075499
12
188.830475
22
180.570007
32
-4.622372
13
188.830475
23
180.570007
33
-4.622372
0
3DFACE
8
0
70
0
10
175.636032
20
156.738770
30
31.183369
11
105.730988
21
125.265167
31
11.216920
12
188.830475
22
180.570007
32
-4.622372
13
188.830475
23
180.570007
33
-4.622372
0
3DFACE
8
0
70
0
10
-107.856590
20
127.575439
30
12.960711
11
-78.962326
21
153.118103
31
48.446587
12
-138.518799
22
175.597595
32
58.809826
13
-138.518799
23
175.597595
33
58.809826
0
3DFACE
8
0
70
0
10
-175.459274
20
151.967804
30
43.443748
11
-107.856590
21
127.575439
31
12.960711
12
-138.518799
22
175.597595
32
58.809826
13
-138.518799
23
175.597595
33
58.809826
0
3DFACE
8
0
70
0
10
-78.962326
20
153.118103
30
48.446587
11
-62.614246
21
164.225403
31
1.122001
12
-156.391251
22
198.621399
32
16.817791
13
-156.391251
23
198.621399
33
16.817791
0
3DFACE
8
0
70
0
10
-78.962326
20
153.118103
30
48.446587
11
-156.391251
21
198.621399
31
16.817791
12
-138.518799
22
175.597595
32
58.809826
13
-138.518799
23
175.597595
33
58.809826
0
3DFACE
8
0
70
0
10
-87.346901
20
136.613831
30
-27.828817
11
-156.391251
21
198.621399
31
16.817791
12
-62.614246
22
164.225403
32
1.122001
13
-62.614246
23
164.225403
33
1.122001
0
3DFACE
8
0
70
0
10
-87.346901
20
136.613831
30
-27.828817
11
-188.999969
21
173.170898
31
7.858655
12
-156.391251
22
198.621399
32
16.817791
13
-156.391251
23
198.621399
33
16.817791
0
3DFACE
8
0
70
0
10
-107.856590
20
127.575439
30
12.960711
11
-188.999969
21
173.170898
31
7.858655
12
-87.346901
22
136.613831
32
-27.828817
13
-87.346901
23
136.613831
33
-27.828817
0
3DFACE
8
0
70
0
10
-175.459274
20
151.967804
30
43.443748
11
-188.999969
21
173.170898
31
7.858655
12
-107.856590
22
127.575439
32
12.960711
13
-107.856590
23
127.575439
33
12.960711
0
3DFACE
8
0
70
0
10
-206.180298
20
176.698242
30
69.908142
11
-175.459274
21
151.967804
31
43.443748
12
-138.518799
22
175.597595
32
58.809826
13
-138.518799
23
175.597595
33
58.809826
0
3DFACE
8
0
70
0
10
-206.180298
20
176.698242
30
69.908142
11
-138.518799
21
175.597595
31
58.809826
12
-161.998383
22
195.253967
32
78.035965
13
-161.998383
23
195.253967
33
78.035965
0
3DFACE
8
0
70
0
10
-161.998383
20
195.253967
30
78.035965
11
-138.518799
21
175.597595
31
58.809826
12
-156.391251
22
198.621399
32
16.817791
13
-156.391251
23
198.621399
33
16.817791
0
3DFACE
8
0
70
0
10
-161.998383
20
195.253967
30
78.035965
11
-156.391251
21
198.621399
31
16.817791
12
-189.619370
22
227.656189
32
46.247921
13
-189.619370
23
227.656189
33
46.247921
0
3DFACE
8
0
70
0
10
-227.669678
20
206.043518
30
42.666447
11
-189.619370
21
227.656189
31
46.247921
12
-156.391251
22
198.621399
32
16.817791
13
-156.391251
23
198.621399
33
16.817791
0
3DFACE
8
0
70
0
10
-227.669678
20
206.043518
30
42.666447
11
-156.391251
21
198.621399
31
16.817791
12
-188.999969
22
173.170898
32
7.858655
13
-188.999969
23
173.170898
33
7.858655
0
3DFACE
8
0
70
0
10
-206.180298
20
176.698242
30
69.908142
11
-227.669678
21
206.043518
31
42.666447
12
-188.999969
22
173.170898
32
7.858655
13
-188.999969
23
173.170898
33
7.858655
0
3DFACE
8
0
70
0
10
-206.180298
20
176.698242
30
69.908142
11
-188.999969
21
173.170898
31
7.858655
12
-175.459274
22
151.967804
32
43.443748
13
-175.459274
23
151.967804
33
43.443748
0
3DFACE
8
0
70
0
10
189.559402
20
181.873230
30
67.543221
11
133.861450
21
174.791504
31
47.035889
12
175.636032
22
156.738770
32
31.183369
13
175.636032
23
156.738770
33
31.183369
0
3DFACE
8
0
70
0
10
189.559402
20
181.873230
30
67.543221
11
141.384445
21
186.402954
31
62.952923
12
133.861450
22
174.791504
32
47.035889
13
133.861450
23
174.791504
33
47.035889
0
3DFACE
8
0
70
0
10
141.384445
20
186.402954
30
62.952923
11
151.628845
21
201.187134
31
4.759647
12
133.861450
22
174.791504
32
47.035889
13
133.861450
23
174.791504
33
47.035889
0
3DFACE
8
0
70
0
10
141.384445
20
186.402954
30
62.952923
11
165.360199
21
230.799072
31
46.296021
12
151.628845
22
201.187134
32
4.759647
13
151.628845
23
201.187134
33
4.759647
0
3DFACE
8
0
70
0
10
207.635483
20
220.852997
30
52.748619
11
188.830475
21
180.570007
31
-4.622372
12
151.628845
22
201.187134
32
4.759647
13
151.628845
23
201.187134
33
4.759647
0
3DFACE
8
0
70
0
10
207.635483
20
220.852997
30
52.748619
11
151.628845
21
201.187134
31
4.759647
12
165.360199
22
230.799072
32
46.296021
13
165.360199
23
230.799072
33
46.296021
0
3DFACE
8
0
70
0
10
189.559402
20
181.873230
30
67.543221
11
175.636032
21
156.738770
31
31.183369
12
188.830475
22
180.570007
32
-4.622372
13
188.830475
23
180.570007
33
-4.622372
0
3DFACE
8
0
70
0
10
189.559402
20
181.873230
30
67.543221
11
188.830475
21
180.570007
31
-4.622372
12
207.635483
22
220.852997
32
52.748619
13
207.635483
23
220.852997
33
52.748619
0
3DFACE
8
0
70
0
10
-6.158971
20
323.398193
30
-36.572605
11
-1.687319
21
321.030060
31
-36.516258
12
-1.635491
22
309.526459
32
-3.825747
13
-17.605677
23
314.903625
33
-0.089629
0
3DFACE
8
0
70
0
10
2.784334
20
323.398163
30
-36.572601
11
14.334697
21
314.903625
31
-0.089625
12
-1.635491
22
309.526459
32
-3.825747
13
-1.687319
23
321.030060
33
-36.516258
0
3DFACE
8
0
70
0
10
5.785282
20
326.913300
30
-36.656284
11
25.052366
21
322.885315
31
5.456096
12
14.334697
22
314.903625
32
-0.089625
13
2.784334
23
323.398163
33
-36.572601
0
3DFACE
8
0
70
0
10
5.098620
20
330.509247
30
-36.741867
11
22.600004
21
331.050537
31
11.129344
12
25.052366
22
322.885315
32
5.456096
13
5.785282
23
326.913300
33
-36.656284
0
3DFACE
8
0
70
0
10
4.348607
20
334.967163
30
-36.847961
11
19.921379
21
341.172974
31
18.162506
12
22.600004
22
331.050537
32
11.129344
13
5.098620
23
330.509247
33
-36.741867
0
3DFACE
8
0
70
0
10
1.008106
20
337.131561
30
-36.899464
11
7.991022
21
346.087585
31
21.577219
12
19.921379
22
341.172974
32
18.162506
13
4.348607
23
334.967163
33
-36.847961
0
3DFACE
8
0
70
0
10
-1.687316
20
338.394684
30
-36.929516
11
-1.635485
21
348.955750
31
23.570042
12
7.991022
22
346.087585
32
21.577219
13
1.008106
23
337.131561
33
-36.899464
0
3DFACE
8
0
70
0
10
-1.687316
20
338.394684
30
-36.929516
11
-4.382738
21
337.131561
31
-36.899464
12
-11.261992
22
346.087585
32
21.577217
13
-1.635485
23
348.955750
33
23.570042
0
3DFACE
8
0
70
0
10
-4.382738
20
337.131561
30
-36.899464
11
-7.723238
21
334.967163
31
-36.847965
12
-23.192352
22
341.173004
32
18.162502
13
-11.261992
23
346.087585
33
21.577217
0
3DFACE
8
0
70
0
10
-7.723238
20
334.967163
30
-36.847965
11
-8.473255
21
330.509247
31
-36.741871
12
-25.870979
22
331.050537
32
11.129338
13
-23.192352
23
341.173004
33
18.162502
0
3DFACE
8
0
70
0
10
-8.473255
20
330.509247
30
-36.741871
11
-9.159915
21
326.913300
31
-36.656288
12
-28.323338
22
322.885345
32
5.456089
13
-25.870979
23
331.050537
33
11.129338
0
3DFACE
8
0
70
0
10
-9.159915
20
326.913300
30
-36.656288
11
-6.158971
21
323.398193
31
-36.572605
12
-17.605677
22
314.903625
32
-0.089629
13
-28.323338
23
322.885345
33
5.456089
0
ENDSEC
0
EOF
