0
SECTION
2
HEADER
999
DXF File Generated by LightWave 3D(TM)
0
ENDSEC
0
SECTION
2
TABLES
0
ENDSEC
0
SECTION
2
BLOCKS
0
ENDSEC
0
SECTION
2
ENTITIES
0
3DFACE
8
0
70
0
10
-3.086008
20
-25.264160
30
81.569771
11
19.857599
21
-33.152039
31
56.736980
12
63.629459
22
-34.374352
32
38.779816
13
63.237640
23
-25.936356
33
57.587280
0
3DFACE
8
0
70
0
10
63.998032
20
-32.562630
30
-64.551682
11
71.412720
21
-48.386841
31
-42.996780
12
31.831848
22
-54.709732
32
-69.073174
13
-2.012028
23
-34.623138
33
-90.939987
0
3DFACE
8
0
70
0
10
-3.240072
20
-31.022751
30
102.371498
11
-3.086008
21
-25.264160
31
81.569771
12
63.237640
22
-25.936356
32
57.587280
13
84.439285
23
-32.019394
33
72.840111
0
3DFACE
8
0
70
0
10
85.401581
20
-40.405151
30
-81.730583
11
63.998032
21
-32.562630
31
-64.551682
12
-2.012028
22
-34.623138
32
-90.939987
13
-1.902478
23
-42.678947
33
-112.481773
0
3DFACE
8
0
70
0
10
-3.305237
20
-26.762283
30
114.890205
11
89.703362
21
-28.021721
31
81.472923
12
104.330284
22
25.872589
32
84.307266
13
-3.127337
23
28.146530
33
117.680717
0
3DFACE
8
0
70
0
10
90.790756
20
-37.497620
30
-93.191963
11
-1.793756
21
-39.933792
31
-127.893990
12
-1.616665
22
14.980881
32
-125.104057
13
105.417686
23
16.396683
33
-90.357620
0
3DFACE
8
0
70
0
10
-3.127337
20
28.146530
30
117.680717
11
104.330284
21
25.872589
31
84.307266
12
98.285812
22
26.611237
32
75.909904
13
-3.046701
23
28.661163
33
105.404686
0
3DFACE
8
0
70
0
10
-3.305237
20
-26.762283
30
114.890205
11
-3.240072
21
-31.022751
31
102.371498
12
84.439285
22
-32.019394
32
72.840111
13
89.703362
23
-28.021721
33
81.472923
0
3DFACE
8
0
70
0
10
105.417686
20
16.396683
30
-90.357620
11
-1.616665
21
14.980881
31
-125.104057
12
-1.744697
22
17.218719
32
-109.466591
13
99.248108
23
18.225494
33
-78.660789
0
3DFACE
8
0
70
0
10
90.790756
20
-37.497620
30
-93.191963
11
85.401581
21
-40.405151
31
-81.730583
12
-1.902478
22
-42.678947
32
-112.481773
13
-1.793756
23
-39.933792
33
-127.893990
0
3DFACE
8
0
70
0
10
27.673773
20
-119.444244
30
102.617195
11
74.813721
21
-119.444244
31
102.617195
12
66.977409
22
-98.812729
32
87.801697
13
33.987896
23
-98.998032
33
87.801697
0
3DFACE
8
0
70
0
10
63.237640
20
-25.936356
30
57.587280
11
63.629459
21
-34.374352
31
38.779816
12
78.047867
22
-44.362946
32
0.465596
13
79.487473
23
-29.233589
33
-2.043451
0
3DFACE
8
0
70
0
10
84.439285
20
-32.019394
30
72.840111
11
63.237640
21
-25.936356
31
57.587280
12
79.487473
22
-29.233589
32
-2.043451
13
106.115417
23
-36.174583
33
-2.220299
0
3DFACE
8
0
70
0
10
104.330284
20
25.872589
30
84.307266
11
89.703362
21
-28.021721
31
81.472923
12
112.758125
22
-32.638321
32
-1.996816
13
130.765182
23
21.243927
33
0.859224
0
3DFACE
8
0
70
0
10
130.765182
20
21.243927
30
0.859224
11
123.143150
21
22.444702
31
0.869915
12
98.285812
22
26.611237
32
75.909904
13
104.330284
23
25.872589
33
84.307266
0
3DFACE
8
0
70
0
10
89.703362
20
-28.021721
30
81.472923
11
84.439285
21
-32.019394
31
72.840111
12
106.115417
22
-36.174583
32
-2.220299
13
112.758125
23
-32.638321
33
-1.996816
0
3DFACE
8
0
70
0
10
12.906889
20
-152.844193
30
102.617195
11
80.090286
21
-153.029510
31
102.617195
12
74.813721
22
-119.444244
32
102.617195
13
27.673773
23
-119.444244
33
102.617195
0
3DFACE
8
0
70
0
10
-1.903024
20
182.184082
30
5.071034
11
59.942387
21
161.186890
31
4.036575
12
53.130089
22
152.023956
32
-36.248466
13
-1.766959
23
161.477234
33
-46.101208
0
3DFACE
8
0
70
0
10
79.487473
20
-29.233589
30
-2.043451
11
78.047867
21
-44.362946
31
0.465596
12
71.412720
22
-48.386841
32
-42.996780
13
63.998032
23
-32.562630
33
-64.551682
0
3DFACE
8
0
70
0
10
106.115417
20
-36.174583
30
-2.220299
11
79.487473
21
-29.233589
31
-2.043451
12
63.998032
22
-32.562630
32
-64.551682
13
85.401581
23
-40.405151
33
-81.730583
0
3DFACE
8
0
70
0
10
112.758125
20
-32.638321
30
-1.996816
11
90.790756
21
-37.497620
31
-93.191963
12
105.417686
22
16.396683
32
-90.357620
13
130.765182
23
21.243927
33
0.859224
0
3DFACE
8
0
70
0
10
105.417686
20
16.396683
30
-90.357620
11
99.248108
21
18.225494
31
-78.660789
12
123.143150
22
22.444702
32
0.869915
13
130.765182
23
21.243927
33
0.859224
0
3DFACE
8
0
70
0
10
112.758125
20
-32.638321
30
-1.996816
11
106.115417
21
-36.174583
31
-2.220299
12
85.401581
22
-40.405151
32
-81.730583
13
90.790756
23
-37.497620
33
-93.191963
0
3DFACE
8
0
70
0
10
23.102818
20
-53.354401
30
20.878235
11
19.857599
21
-33.152039
31
56.736980
12
18.009203
22
-48.036873
32
-5.382654
13
18.382269
23
-59.270920
33
-6.493254
0
3DFACE
8
0
70
0
10
23.102818
20
-53.354401
30
20.878235
11
65.820457
21
-52.027542
31
16.435848
12
63.629459
22
-34.374352
32
38.779816
13
19.857599
23
-33.152039
33
56.736980
0
3DFACE
8
0
70
0
10
65.820457
20
-52.027542
30
16.435848
11
78.319786
21
-54.624634
31
0.720061
12
78.047867
22
-44.362946
32
0.465596
13
63.629459
23
-34.374352
33
38.779816
0
3DFACE
8
0
70
0
10
18.382269
20
-59.270920
30
-6.493254
11
18.009203
21
-48.036873
31
-5.382654
12
31.831848
22
-54.709732
32
-69.073174
13
29.454151
23
-64.202446
33
-33.119312
0
3DFACE
8
0
70
0
10
78.319786
20
-54.624634
30
0.720061
11
69.948830
21
-59.078773
31
-18.662561
12
71.412720
22
-48.386841
32
-42.996780
13
78.047867
23
-44.362946
33
0.465596
0
3DFACE
8
0
70
0
10
69.948830
20
-59.078773
30
-18.662561
11
29.454151
21
-64.202446
31
-33.119312
12
31.831848
22
-54.709732
32
-69.073174
13
71.412720
23
-48.386841
33
-42.996780
0
3DFACE
8
0
70
0
10
26.297203
20
-126.069817
30
-8.029556
11
27.673773
21
-127.827744
31
43.725594
12
33.987896
22
-108.736435
32
35.947453
13
29.961035
23
-97.662621
33
19.923798
0
3DFACE
8
0
70
0
10
29.961035
20
-97.662621
30
19.923798
11
33.987896
21
-108.736435
31
35.947453
12
66.977409
22
-112.334427
32
35.947453
13
65.184547
23
-102.139748
33
13.391333
0
3DFACE
8
0
70
0
10
75.877937
20
-123.572105
30
-3.280409
11
65.184547
21
-102.139748
31
13.391333
12
66.977409
22
-112.334427
32
35.947453
13
74.813721
23
-127.827744
33
43.725594
0
3DFACE
8
0
70
0
10
13.344190
20
-156.671951
30
-38.618805
11
16.610764
21
-150.617310
31
32.613968
12
27.673773
22
-127.827744
32
43.725594
13
26.297203
23
-126.069817
33
-8.029556
0
3DFACE
8
0
70
0
10
86.251541
20
-151.764450
30
-29.742720
11
75.877937
21
-123.572105
31
-3.280409
12
74.813721
22
-127.827744
32
43.725594
13
83.794151
23
-150.723206
33
36.317848
0
3DFACE
8
0
70
0
10
86.251541
20
-151.764450
30
-29.742720
11
83.794151
21
-150.723206
31
36.317848
12
16.610764
22
-150.617310
32
32.613968
13
13.344190
23
-156.671951
33
-38.618805
0
3DFACE
8
0
70
0
10
27.673773
20
-119.444244
30
102.617195
11
33.987896
21
-98.998032
31
87.801697
12
33.987896
22
-108.736435
32
35.947453
13
27.673773
23
-127.827744
33
43.725594
0
3DFACE
8
0
70
0
10
33.987896
20
-98.998032
30
87.801697
11
66.977409
21
-98.812729
31
87.801697
12
66.977409
22
-112.334427
32
35.947453
13
33.987896
23
-108.736435
33
35.947453
0
3DFACE
8
0
70
0
10
74.813721
20
-119.444244
30
102.617195
11
74.813721
21
-127.827744
31
43.725594
12
66.977409
22
-112.334427
32
35.947453
13
66.977409
23
-98.812729
33
87.801697
0
3DFACE
8
0
70
0
10
12.906889
20
-152.844193
30
102.617195
11
27.673773
21
-119.444244
31
102.617195
12
27.673773
22
-127.827744
32
43.725594
13
16.610764
23
-150.617310
33
32.613968
0
3DFACE
8
0
70
0
10
80.090286
20
-153.029510
30
102.617195
11
83.794151
21
-150.723206
31
36.317848
12
74.813721
22
-127.827744
32
43.725594
13
74.813721
23
-119.444244
33
102.617195
0
3DFACE
8
0
70
0
10
80.090286
20
-153.029510
30
102.617195
11
12.906889
21
-152.844193
31
102.617195
12
16.610764
22
-150.617310
32
32.613968
13
83.794151
23
-150.723206
33
36.317848
0
3DFACE
8
0
70
0
10
159.030655
20
337.147858
30
161.875656
11
176.024704
21
341.084991
31
146.287155
12
161.152664
22
356.466217
32
150.505569
13
143.023239
23
346.607178
33
156.540024
0
3DFACE
8
0
70
0
10
84.019485
20
138.630371
30
-27.746557
11
53.130089
21
152.023956
31
-36.248466
12
59.942387
22
161.186890
32
4.036575
13
59.942387
23
161.186890
33
4.036575
0
3DFACE
8
0
70
0
10
81.771690
20
151.470612
30
47.496750
11
59.942387
21
161.186890
31
4.036575
12
52.482529
22
133.657715
32
59.554424
13
52.482529
23
133.657715
33
59.554424
0
3DFACE
8
0
70
0
10
131.046860
20
244.594727
30
28.948973
11
176.976486
21
259.147858
31
22.538691
12
178.212601
22
274.617126
32
55.244354
13
130.732101
23
261.772186
33
60.721470
0
3DFACE
8
0
70
0
10
131.796814
20
291.689117
30
4.355146
11
131.046860
21
244.594727
31
28.948973
12
130.732101
22
261.772186
32
60.721470
13
129.510117
23
309.282959
33
35.858704
0
3DFACE
8
0
70
0
10
173.860641
20
315.593109
30
33.715450
11
174.931519
21
299.359192
31
1.469481
12
131.796814
22
291.689117
32
4.355146
13
129.510117
23
309.282959
33
35.858704
0
3DFACE
8
0
70
0
10
176.976486
20
259.147858
30
22.538691
11
174.931519
21
299.359192
31
1.469481
12
173.860641
22
315.593109
32
33.715450
13
178.212601
23
274.617126
33
55.244354
0
3DFACE
8
0
70
0
10
187.796066
20
268.991577
30
58.433971
11
189.718857
21
283.098602
31
89.497612
12
123.256989
22
268.999786
32
94.122414
13
123.386902
23
253.119690
33
65.052361
0
3DFACE
8
0
70
0
10
123.386902
20
253.119690
30
65.052361
11
123.256989
21
268.999786
31
94.122414
12
117.387939
22
333.030853
32
59.610233
13
119.940674
23
316.978729
33
31.587442
0
3DFACE
8
0
70
0
10
179.271454
20
338.901276
30
59.047535
11
180.316559
21
324.163300
31
29.404411
12
119.940674
22
316.978729
32
31.587442
13
117.387939
23
333.030853
33
59.610233
0
3DFACE
8
0
70
0
10
187.796066
20
268.991577
30
58.433971
11
180.316559
21
324.163300
31
29.404411
12
179.271454
22
338.901276
32
59.047535
13
189.718857
23
283.098602
33
89.497612
0
3DFACE
8
0
70
0
10
187.796066
20
268.991577
30
58.433971
11
123.386902
21
253.119690
31
65.052361
12
130.732101
22
261.772186
32
60.721470
13
178.212601
23
274.617126
33
55.244354
0
3DFACE
8
0
70
0
10
189.718857
20
283.098602
30
89.497612
11
179.376785
21
289.186218
31
86.046738
12
130.443542
22
277.522919
32
89.854980
13
123.256989
23
268.999786
33
94.122414
0
3DFACE
8
0
70
0
10
123.386902
20
253.119690
30
65.052361
11
119.940674
21
316.978729
31
31.587442
12
129.510117
22
309.282959
32
35.858704
13
130.732101
23
261.772186
33
60.721470
0
3DFACE
8
0
70
0
10
123.256989
20
268.999786
30
94.122414
11
130.443542
21
277.522919
31
89.854980
12
127.463585
22
325.029480
32
64.054413
13
117.387939
23
333.030853
33
59.610233
0
3DFACE
8
0
70
0
10
179.271454
20
338.901276
30
59.047535
11
117.387939
21
333.030853
31
59.610233
12
127.463585
22
325.029480
32
64.054413
13
172.878738
23
330.478607
33
63.283108
0
3DFACE
8
0
70
0
10
180.316559
20
324.163300
30
29.404411
11
173.860641
21
315.593109
31
33.715450
12
129.510117
22
309.282959
32
35.858704
13
119.940674
23
316.978729
33
31.587442
0
3DFACE
8
0
70
0
10
189.718857
20
283.098602
30
89.497612
11
179.271454
21
338.901276
31
59.047535
12
172.878738
22
330.478607
32
63.283108
13
179.376785
23
289.186218
33
86.046738
0
3DFACE
8
0
70
0
10
187.796066
20
268.991577
30
58.433971
11
178.212601
21
274.617126
31
55.244354
12
173.860641
22
315.593109
32
33.715450
13
180.316559
23
324.163300
33
29.404411
0
3DFACE
8
0
70
0
10
156.767532
20
284.508026
30
74.591530
11
130.895065
21
302.401642
31
65.419762
12
130.443542
22
277.522919
32
89.854980
13
179.376785
23
289.186218
33
86.046738
0
3DFACE
8
0
70
0
10
130.895065
20
302.401642
30
65.419762
11
158.976974
21
320.991241
31
55.033298
12
127.463585
22
325.029480
32
64.054413
13
130.443542
23
277.522919
33
89.854980
0
3DFACE
8
0
70
0
10
179.714615
20
302.401642
30
64.518929
11
172.878738
21
330.478607
31
63.283108
12
127.463585
22
325.029480
32
64.054413
13
158.976974
23
320.991241
33
55.033298
0
3DFACE
8
0
70
0
10
156.767532
20
284.508026
30
74.591530
11
179.376785
21
289.186218
31
86.046738
12
172.878738
22
330.478607
32
63.283108
13
179.714615
23
302.401642
33
64.518929
0
3DFACE
8
0
70
0
10
107.717278
20
312.982880
30
115.081566
11
107.249565
21
322.597931
31
109.792679
12
107.117210
22
317.271240
32
97.979172
13
107.471519
23
307.647552
33
103.250984
0
3DFACE
8
0
70
0
10
107.249565
20
322.597931
30
109.792679
11
107.556335
21
332.578247
31
104.353073
12
107.299927
22
327.259216
32
92.558823
13
107.117210
23
317.271240
33
97.979172
0
3DFACE
8
0
70
0
10
193.185669
20
316.831665
30
94.125458
11
179.714615
21
302.401642
31
64.518929
12
158.976974
22
320.991241
32
55.033298
13
163.402786
23
335.400604
33
84.763901
0
3DFACE
8
0
70
0
10
160.064468
20
298.961548
30
104.434280
11
156.767532
21
284.508026
31
74.591530
12
179.714615
22
302.401642
32
64.518929
13
193.185669
23
316.831665
33
94.125458
0
3DFACE
8
0
70
0
10
159.030655
20
337.147858
30
161.875656
11
143.023239
21
346.607178
31
156.540024
12
130.529205
22
324.194611
32
108.140198
13
160.064468
23
298.961548
33
104.434280
0
3DFACE
8
0
70
0
10
143.023239
20
346.607178
30
156.540024
11
161.152664
21
356.466217
31
150.505569
12
163.402786
22
335.400604
32
84.763901
13
130.529205
23
324.194611
33
108.140198
0
3DFACE
8
0
70
0
10
176.024704
20
341.084991
30
146.287155
11
193.185669
21
316.831665
31
94.125458
12
163.402786
22
335.400604
32
84.763901
13
161.152664
23
356.466217
33
150.505569
0
3DFACE
8
0
70
0
10
159.030655
20
337.147858
30
161.875656
11
160.064468
21
298.961548
31
104.434280
12
193.185669
22
316.831665
32
94.125458
13
176.024704
23
341.084991
33
146.287155
0
3DFACE
8
0
70
0
10
107.717278
20
312.982880
30
115.081566
11
107.471519
21
307.647552
31
103.250984
12
156.767532
22
284.508026
32
74.591530
13
160.064468
23
298.961548
33
104.434280
0
3DFACE
8
0
70
0
10
107.471519
20
307.647552
30
103.250984
11
107.117210
21
317.271240
31
97.979172
12
130.895065
22
302.401642
32
65.419762
13
156.767532
23
284.508026
33
74.591530
0
3DFACE
8
0
70
0
10
107.717278
20
312.982880
30
115.081566
11
160.064468
21
298.961548
31
104.434280
12
130.529205
22
324.194611
32
108.140198
13
107.249565
23
322.597931
33
109.792679
0
3DFACE
8
0
70
0
10
107.117210
20
317.271240
30
97.979172
11
107.299927
21
327.259216
31
92.558823
12
158.976974
22
320.991241
32
55.033298
13
130.895065
23
302.401642
33
65.419762
0
3DFACE
8
0
70
0
10
107.556335
20
332.578247
30
104.353073
11
163.402786
21
335.400604
31
84.763901
12
158.976974
22
320.991241
32
55.033298
13
107.299927
23
327.259216
33
92.558823
0
3DFACE
8
0
70
0
10
107.249565
20
322.597931
30
109.792679
11
130.529205
21
324.194611
31
108.140198
12
163.402786
22
335.400604
32
84.763901
13
107.556335
23
332.578247
33
104.353073
0
3DFACE
8
0
70
0
10
-3.086008
20
-25.264160
30
81.569771
11
-69.099419
21
-25.464424
31
56.737801
12
-80.913780
22
-36.143471
32
33.848000
13
-41.850922
23
-32.136948
33
60.889545
0
3DFACE
8
0
70
0
10
-68.339027
20
-32.090691
30
-65.401161
11
-2.012028
21
-34.623138
31
-90.939987
12
-27.460625
22
-51.856949
32
-64.598595
13
-71.560089
23
-48.961472
33
-47.719292
0
3DFACE
8
0
70
0
10
-3.240072
20
-31.022751
30
102.371498
11
-90.537979
21
-31.395401
31
71.716919
12
-69.099419
22
-25.464424
32
56.737801
13
-3.086008
23
-25.264160
33
81.569771
0
3DFACE
8
0
70
0
10
-89.575676
20
-39.781151
30
-82.853775
11
-1.902478
21
-42.678947
31
-112.481773
12
-2.012028
22
-34.623138
32
-90.939987
13
-68.339027
23
-32.090691
33
-65.401161
0
3DFACE
8
0
70
0
10
-3.305237
20
-26.762283
30
114.890205
11
-3.127337
21
28.146530
31
117.680717
12
-110.161163
22
26.637497
32
82.930428
13
-95.883789
23
-27.359886
33
80.281624
0
3DFACE
8
0
70
0
10
-94.796387
20
-36.835785
30
-94.383263
11
-109.073761
21
17.161606
31
-91.734459
12
-1.616665
22
14.980881
32
-125.104057
13
-1.793756
23
-39.933792
33
-127.893990
0
3DFACE
8
0
70
0
10
-3.127337
20
28.146530
30
117.680717
11
-3.046701
21
28.661163
31
105.404686
12
-104.004272
22
27.332642
32
74.611389
13
-110.161163
23
26.637497
33
82.930428
0
3DFACE
8
0
70
0
10
-3.305237
20
-26.762283
30
114.890205
11
-95.883789
21
-27.359886
31
80.281624
12
-90.537979
22
-31.395401
32
71.716919
13
-3.240072
23
-31.022751
33
102.371498
0
3DFACE
8
0
70
0
10
-109.073761
20
17.161606
30
-91.734459
11
-103.041969
21
18.946884
31
-79.959305
12
-1.744697
22
17.218719
32
-109.466591
13
-1.616665
23
14.980881
33
-125.104057
0
3DFACE
8
0
70
0
10
-94.796387
20
-36.835785
30
-94.383263
11
-1.793756
21
-39.933792
31
-127.893990
12
-1.902478
22
-42.678947
32
-112.481773
13
-89.575676
23
-39.781151
33
-82.853775
0
3DFACE
8
0
70
0
10
-31.473774
20
-119.444244
30
102.617195
11
-37.787899
21
-98.998032
31
87.801697
12
-70.777412
22
-98.812729
32
87.801697
13
-78.613716
23
-119.444244
33
102.617195
0
3DFACE
8
0
70
0
10
-69.099419
20
-25.464424
30
56.737801
11
-84.605507
21
-28.648407
31
-3.096776
12
-86.915833
22
-46.353577
32
-6.741786
13
-80.913780
23
-36.143471
33
33.848000
0
3DFACE
8
0
70
0
10
-90.537979
20
-31.395401
30
71.716919
11
-111.277824
21
-35.399323
31
-3.615762
12
-84.605507
22
-28.648407
32
-3.096776
13
-69.099419
23
-25.464424
33
56.737801
0
3DFACE
8
0
70
0
10
-110.161163
20
26.637497
30
82.930428
11
-135.554962
21
22.193680
31
-0.850305
12
-117.897446
22
-31.815765
32
-3.477411
13
-95.883789
23
-27.359886
33
80.281624
0
3DFACE
8
0
70
0
10
-135.554962
20
22.193680
30
-0.850305
11
-110.161163
21
26.637497
31
82.930428
12
-104.004272
22
27.332642
32
74.611389
13
-127.925301
23
23.340057
33
-0.741712
0
3DFACE
8
0
70
0
10
-95.883789
20
-27.359886
30
80.281624
11
-117.897446
21
-31.815765
31
-3.477411
12
-111.277824
22
-35.399323
32
-3.615762
13
-90.537979
23
-31.395401
33
71.716919
0
3DFACE
8
0
70
0
10
-16.706890
20
-152.844193
30
102.617195
11
-31.473774
21
-119.444244
31
102.617195
12
-78.613716
22
-119.444244
32
102.617195
13
-83.890282
23
-153.029510
33
102.617195
0
3DFACE
8
0
70
0
10
-1.903024
20
182.184082
30
5.071034
11
-1.766959
21
161.477234
31
-46.101208
12
-56.684795
22
152.305542
32
-36.755302
13
-63.060493
23
162.886017
33
3.159901
0
3DFACE
8
0
70
0
10
-84.605507
20
-28.648407
30
-3.096776
11
-68.339027
21
-32.090691
31
-65.401161
12
-71.560089
22
-48.961472
32
-47.719292
13
-86.915833
23
-46.353577
33
-6.741786
0
3DFACE
8
0
70
0
10
-111.277824
20
-35.399323
30
-3.615762
11
-89.575676
21
-39.781151
31
-82.853775
12
-68.339027
22
-32.090691
32
-65.401161
13
-84.605507
23
-28.648407
33
-3.096776
0
3DFACE
8
0
70
0
10
-117.897446
20
-31.815765
30
-3.477411
11
-135.554962
21
22.193680
31
-0.850305
12
-109.073761
22
17.161606
32
-91.734459
13
-94.796387
23
-36.835785
33
-94.383263
0
3DFACE
8
0
70
0
10
-109.073761
20
17.161606
30
-91.734459
11
-135.554962
21
22.193680
31
-0.850305
12
-127.925301
22
23.340057
32
-0.741712
13
-103.041969
23
18.946884
33
-79.959305
0
3DFACE
8
0
70
0
10
-117.897446
20
-31.815765
30
-3.477411
11
-94.796387
21
-36.835785
31
-94.383263
12
-89.575676
22
-39.781151
32
-82.853775
13
-111.277824
23
-35.399323
33
-3.615762
0
3DFACE
8
0
70
0
10
-39.527023
20
-51.103149
30
26.289341
11
-27.743237
21
-56.005798
31
1.224846
12
-27.014307
22
-45.553299
32
0.578041
13
-41.850922
23
-32.136948
33
60.889545
0
3DFACE
8
0
70
0
10
-39.527023
20
-51.103149
30
26.289341
11
-41.850922
21
-32.136948
31
60.889545
12
-80.913780
22
-36.143471
32
33.848000
13
-79.558807
23
-53.699814
33
10.192903
0
3DFACE
8
0
70
0
10
-79.558807
20
-53.699814
30
10.192903
11
-80.913780
21
-36.143471
31
33.848000
12
-86.915833
22
-46.353577
32
-6.741786
13
-87.464195
23
-57.144699
33
-8.405593
0
3DFACE
8
0
70
0
10
-27.743237
20
-56.005798
30
1.224846
11
-31.389687
21
-61.423676
31
-27.489985
12
-27.460625
22
-51.856949
32
-64.598595
13
-27.014307
23
-45.553299
33
0.578041
0
3DFACE
8
0
70
0
10
-87.464195
20
-57.144699
30
-8.405593
11
-86.915833
21
-46.353577
31
-6.741786
12
-71.560089
22
-48.961472
32
-47.719292
13
-74.269539
23
-60.408157
33
-24.763660
0
3DFACE
8
0
70
0
10
-74.269539
20
-60.408157
30
-24.763660
11
-71.560089
21
-48.961472
31
-47.719292
12
-27.460625
22
-51.856949
32
-64.598595
13
-31.389687
23
-61.423676
33
-27.489985
0
3DFACE
8
0
70
0
10
-31.145254
20
-124.259727
30
-2.930443
11
-41.556999
21
-96.147911
31
23.236115
12
-37.787899
22
-108.736435
32
35.947453
13
-31.473774
23
-127.827744
33
43.725594
0
3DFACE
8
0
70
0
10
-41.556999
20
-96.147911
30
23.236115
11
-74.391075
21
-103.223610
31
9.164825
12
-70.777412
22
-112.334427
32
35.947453
13
-37.787899
23
-108.736435
33
35.947453
0
3DFACE
8
0
70
0
10
-80.561592
20
-125.420372
30
-9.218520
11
-78.613716
21
-127.827744
31
43.725594
12
-70.777412
22
-112.334427
32
35.947453
13
-74.391075
23
-103.223610
33
9.164825
0
3DFACE
8
0
70
0
10
-11.049798
20
-153.879608
30
-29.604279
11
-31.145254
21
-124.259727
31
-2.930443
12
-31.473774
22
-127.827744
32
43.725594
13
-20.410763
23
-150.617310
33
32.613968
0
3DFACE
8
0
70
0
10
-84.151192
20
-154.351807
30
-37.016422
11
-87.594154
21
-150.723206
31
36.317848
12
-78.613716
22
-127.827744
32
43.725594
13
-80.561592
23
-125.420372
33
-9.218520
0
3DFACE
8
0
70
0
10
-84.151192
20
-154.351807
30
-37.016422
11
-11.049798
21
-153.879608
31
-29.604279
12
-20.410763
22
-150.617310
32
32.613968
13
-87.594154
23
-150.723206
33
36.317848
0
3DFACE
8
0
70
0
10
-31.473774
20
-119.444244
30
102.617195
11
-31.473774
21
-127.827744
31
43.725594
12
-37.787899
22
-108.736435
32
35.947453
13
-37.787899
23
-98.998032
33
87.801697
0
3DFACE
8
0
70
0
10
-37.787899
20
-98.998032
30
87.801697
11
-37.787899
21
-108.736435
31
35.947453
12
-70.777412
22
-112.334427
32
35.947453
13
-70.777412
23
-98.812729
33
87.801697
0
3DFACE
8
0
70
0
10
-78.613716
20
-119.444244
30
102.617195
11
-70.777412
21
-98.812729
31
87.801697
12
-70.777412
22
-112.334427
32
35.947453
13
-78.613716
23
-127.827744
33
43.725594
0
3DFACE
8
0
70
0
10
-16.706890
20
-152.844193
30
102.617195
11
-20.410763
21
-150.617310
31
32.613968
12
-31.473774
22
-127.827744
32
43.725594
13
-31.473774
23
-119.444244
33
102.617195
0
3DFACE
8
0
70
0
10
-83.890282
20
-153.029510
30
102.617195
11
-78.613716
21
-119.444244
31
102.617195
12
-78.613716
22
-127.827744
32
43.725594
13
-87.594154
23
-150.723206
33
36.317848
0
3DFACE
8
0
70
0
10
-83.890282
20
-153.029510
30
102.617195
11
-87.594154
21
-150.723206
31
36.317848
12
-20.410763
22
-150.617310
32
32.613968
13
-16.706890
23
-152.844193
33
102.617195
0
3DFACE
8
0
70
0
10
-182.655136
20
365.811340
30
146.212387
11
-167.408936
21
373.441040
31
137.073166
12
-186.230759
22
381.269836
32
130.236420
13
-201.030350
23
365.324158
33
131.741241
0
3DFACE
8
0
70
0
10
-85.982590
20
139.440308
30
-29.294344
11
-63.060493
21
162.886017
31
3.159901
12
-56.684795
22
152.305542
32
-36.755302
13
-56.684795
23
152.305542
33
-36.755302
0
3DFACE
8
0
70
0
10
-86.825790
20
150.092468
30
46.909748
11
-57.064972
21
133.961914
31
59.006863
12
-63.060493
22
162.886017
32
3.159901
13
-63.060493
23
162.886017
33
3.159901
0
3DFACE
8
0
70
0
10
-153.333771
20
244.094849
30
36.719177
11
-162.806107
21
263.589050
31
65.613983
12
-210.374924
22
262.249847
32
52.019718
13
-199.711533
23
244.730530
33
22.189327
0
3DFACE
8
0
70
0
10
-162.078201
20
286.631165
30
6.100537
11
-169.736832
21
307.042999
31
34.944065
12
-162.806107
22
263.589050
32
65.613983
13
-153.333771
23
244.094849
33
36.719177
0
3DFACE
8
0
70
0
10
-213.200272
20
300.629761
30
25.934034
11
-169.736832
21
307.042999
31
34.944065
12
-162.078201
22
286.631165
32
6.100537
13
-204.611450
23
281.784973
33
-3.656443
0
3DFACE
8
0
70
0
10
-199.711533
20
244.730530
30
22.189327
11
-210.374924
21
262.249847
31
52.019718
12
-213.200272
22
300.629761
32
25.934034
13
-204.611450
23
281.784973
33
-3.656443
0
3DFACE
8
0
70
0
10
-218.575348
20
254.520996
30
54.604408
11
-154.311050
21
257.746887
31
72.038750
12
-163.170349
22
275.695831
32
98.432129
13
-229.264481
23
270.393799
33
82.914314
0
3DFACE
8
0
70
0
10
-154.311050
20
257.746887
30
72.038750
11
-161.902695
21
316.646912
31
31.015484
12
-168.325516
22
335.331421
32
56.688427
13
-163.170349
23
275.695831
33
98.432129
0
3DFACE
8
0
70
0
10
-228.621277
20
323.803589
30
46.896603
11
-168.325516
21
335.331421
31
56.688427
12
-161.902695
22
316.646912
32
31.015484
13
-220.831360
23
306.640656
33
19.661217
0
3DFACE
8
0
70
0
10
-218.575348
20
254.520996
30
54.604408
11
-229.264481
21
270.393799
31
82.914314
12
-228.621277
22
323.803589
32
46.896603
13
-220.831360
23
306.640656
33
19.661217
0
3DFACE
8
0
70
0
10
-218.575348
20
254.520996
30
54.604408
11
-210.374924
21
262.249847
31
52.019718
12
-162.806107
22
263.589050
32
65.613983
13
-154.311050
23
257.746887
33
72.038750
0
3DFACE
8
0
70
0
10
-229.264481
20
270.393799
30
82.914314
11
-163.170349
21
275.695831
31
98.432129
12
-171.491714
22
281.464020
32
92.108810
13
-220.417770
23
278.749695
33
80.114151
0
3DFACE
8
0
70
0
10
-154.311050
20
257.746887
30
72.038750
11
-162.806107
21
263.589050
31
65.613983
12
-169.736832
22
307.042999
32
34.944065
13
-161.902695
23
316.646912
33
31.015484
0
3DFACE
8
0
70
0
10
-163.170349
20
275.695831
30
98.432129
11
-168.325516
21
335.331421
31
56.688427
12
-176.591370
22
325.311584
32
60.759041
13
-171.491714
23
281.464020
33
92.108810
0
3DFACE
8
0
70
0
10
-228.621277
20
323.803589
30
46.896603
11
-221.075745
21
317.909271
31
53.066746
12
-176.591370
22
325.311584
32
60.759041
13
-168.325516
23
335.331421
33
56.688427
0
3DFACE
8
0
70
0
10
-220.831360
20
306.640656
30
19.661217
11
-161.902695
21
316.646912
31
31.015484
12
-169.736832
22
307.042999
32
34.944065
13
-213.200272
23
300.629761
33
25.934034
0
3DFACE
8
0
70
0
10
-229.264481
20
270.393799
30
82.914314
11
-220.417770
21
278.749695
31
80.114151
12
-221.075745
22
317.909271
32
53.066746
13
-228.621277
23
323.803589
33
46.896603
0
3DFACE
8
0
70
0
10
-218.575348
20
254.520996
30
54.604408
11
-220.831360
21
306.640656
31
19.661217
12
-213.200272
22
300.629761
32
25.934034
13
-210.374924
23
262.249847
33
52.019718
0
3DFACE
8
0
70
0
10
-194.764084
20
288.277954
30
73.506767
11
-220.417770
21
278.749695
31
80.114151
12
-171.491714
22
281.464020
32
92.108810
13
-167.836014
23
298.249451
33
65.564018
0
3DFACE
8
0
70
0
10
-167.836014
20
298.249451
30
65.564018
11
-171.491714
21
281.464020
31
92.108810
12
-176.591370
22
325.311584
32
60.759041
13
-188.894470
23
317.631073
33
50.299152
0
3DFACE
8
0
70
0
10
-211.375443
20
306.230225
30
59.206913
11
-188.894470
21
317.631073
31
50.299152
12
-176.591370
22
325.311584
32
60.759041
13
-221.075745
23
317.909271
33
53.066746
0
3DFACE
8
0
70
0
10
-194.764084
20
288.277954
30
73.506767
11
-211.375443
21
306.230225
31
59.206913
12
-221.075745
22
317.909271
32
53.066746
13
-220.417770
23
278.749695
33
80.114151
0
3DFACE
8
0
70
0
10
-135.020935
20
329.726746
30
103.368736
11
-135.672424
21
321.350555
31
93.474083
12
-136.013931
22
329.158752
32
85.763786
13
-135.250763
23
337.521942
33
95.634201
0
3DFACE
8
0
70
0
10
-135.250763
20
337.521942
30
95.634201
11
-136.013931
21
329.158752
31
85.763786
12
-136.912125
22
337.276611
32
77.860199
13
-136.273987
23
345.627167
33
87.725464
0
3DFACE
8
0
70
0
10
-222.054993
20
327.695007
30
89.961212
11
-193.663071
21
342.977783
31
73.234016
12
-188.894470
22
317.631073
32
50.299152
13
-211.375443
23
306.230225
33
59.206913
0
3DFACE
8
0
70
0
10
-187.734467
20
313.332275
30
101.727341
11
-222.054993
21
327.695007
31
89.961212
12
-211.375443
22
306.230225
32
59.206913
13
-194.764084
23
288.277954
33
73.506767
0
3DFACE
8
0
70
0
10
-182.655136
20
365.811340
30
146.212387
11
-187.734467
21
313.332275
31
101.727341
12
-158.618149
22
338.608368
32
95.716438
13
-167.408936
23
373.441040
33
137.073166
0
3DFACE
8
0
70
0
10
-167.408936
20
373.441040
30
137.073166
11
-158.618149
21
338.608368
31
95.716438
12
-193.663071
22
342.977783
32
73.234016
13
-186.230759
23
381.269836
33
130.236420
0
3DFACE
8
0
70
0
10
-201.030350
20
365.324158
30
131.741241
11
-186.230759
21
381.269836
31
130.236420
12
-193.663071
22
342.977783
32
73.234016
13
-222.054993
23
327.695007
33
89.961212
0
3DFACE
8
0
70
0
10
-182.655136
20
365.811340
30
146.212387
11
-201.030350
21
365.324158
31
131.741241
12
-222.054993
22
327.695007
32
89.961212
13
-187.734467
23
313.332275
33
101.727341
0
3DFACE
8
0
70
0
10
-135.020935
20
329.726746
30
103.368736
11
-187.734467
21
313.332275
31
101.727341
12
-194.764084
22
288.277954
32
73.506767
13
-135.672424
23
321.350555
33
93.474083
0
3DFACE
8
0
70
0
10
-135.672424
20
321.350555
30
93.474083
11
-194.764084
21
288.277954
31
73.506767
12
-167.836014
22
298.249451
32
65.564018
13
-136.013931
23
329.158752
33
85.763786
0
3DFACE
8
0
70
0
10
-135.020935
20
329.726746
30
103.368736
11
-135.250763
21
337.521942
31
95.634201
12
-158.618149
22
338.608368
32
95.716438
13
-187.734467
23
313.332275
33
101.727341
0
3DFACE
8
0
70
0
10
-136.013931
20
329.158752
30
85.763786
11
-167.836014
21
298.249451
31
65.564018
12
-188.894470
22
317.631073
32
50.299152
13
-136.912125
23
337.276611
33
77.860199
0
3DFACE
8
0
70
0
10
-136.273987
20
345.627167
30
87.725464
11
-136.912125
21
337.276611
31
77.860199
12
-188.894470
22
317.631073
32
50.299152
13
-193.663071
23
342.977783
33
73.234016
0
3DFACE
8
0
70
0
10
-135.250763
20
337.521942
30
95.634201
11
-136.273987
21
345.627167
31
87.725464
12
-193.663071
22
342.977783
32
73.234016
13
-158.618149
23
338.608368
33
95.716438
0
3DFACE
8
0
70
0
10
18.009203
20
-48.036873
30
-5.382654
11
19.857599
21
-33.152039
31
56.736980
12
-3.086008
22
-25.264160
32
81.569771
13
-2.559566
23
-29.851730
33
-2.990789
0
3DFACE
8
0
70
0
10
18.009203
20
-48.036873
30
-5.382654
11
-2.559566
21
-29.851730
31
-2.990789
12
-2.012028
22
-34.623138
32
-90.939987
13
31.831848
23
-54.709732
33
-69.073174
0
3DFACE
8
0
70
0
10
-2.012028
20
-34.623138
30
-90.939987
11
-2.559566
21
-29.851730
31
-2.990789
12
-27.014307
22
-45.553299
32
0.578041
13
-27.460625
23
-51.856949
33
-64.598595
0
3DFACE
8
0
70
0
10
-2.559566
20
-29.851730
30
-2.990789
11
-3.086008
21
-25.264160
31
81.569771
12
-41.850922
22
-32.136948
32
60.889545
13
-27.014307
23
-45.553299
33
0.578041
0
3DFACE
8
0
70
0
10
-0.318264
20
180.218689
30
122.611298
11
9.868537
21
181.658875
31
117.381271
12
17.664454
22
200.179993
32
122.216965
13
-1.971769
23
198.595581
33
128.666168
0
3DFACE
8
0
70
0
10
-1.971769
20
198.595581
30
128.666168
11
17.664454
21
200.179993
31
122.216965
12
9.849100
22
208.075745
32
121.019630
13
-3.030745
23
210.364960
33
124.536148
0
3DFACE
8
0
70
0
10
9.868537
20
181.658875
30
117.381271
11
11.095396
21
178.437073
31
104.511543
12
20.875467
22
197.979248
32
104.760262
13
17.664454
23
200.179993
33
122.216965
0
3DFACE
8
0
70
0
10
-0.318264
20
180.218689
30
122.611298
11
-0.075139
21
174.633392
31
110.431030
12
11.095396
22
178.437073
32
104.511543
13
9.868537
23
181.658875
33
117.381271
0
3DFACE
8
0
70
0
10
-3.030745
20
210.364960
30
124.536148
11
9.849100
21
208.075745
31
121.019630
12
11.682206
22
209.121246
32
104.835991
13
-3.412326
23
211.722595
33
110.144318
0
3DFACE
8
0
70
0
10
17.664454
20
200.179993
30
122.216965
11
20.875467
21
197.979248
31
104.760262
12
11.682206
22
209.121246
32
104.835991
13
9.849100
23
208.075745
33
121.019630
0
3DFACE
8
0
70
0
10
-0.240288
20
221.530273
30
106.276031
11
0.611470
21
212.063904
31
107.318275
12
11.806999
22
210.713501
32
102.009949
13
11.379251
23
230.163757
33
104.268639
0
3DFACE
8
0
70
0
10
11.806999
20
210.713501
30
102.009949
11
21.241589
21
212.562439
31
95.723228
12
23.927599
22
223.708252
32
92.150620
13
11.379251
23
230.163757
33
104.268639
0
3DFACE
8
0
70
0
10
14.230474
20
160.606018
30
123.670204
11
8.584763
21
179.152466
31
112.725739
12
-0.282221
22
176.934875
32
115.474304
13
1.309993
23
159.239136
33
124.353912
0
3DFACE
8
0
70
0
10
50.494015
20
180.774414
30
78.126740
11
47.915245
21
191.516418
31
77.948036
12
25.428852
22
182.357727
32
98.608398
13
34.553814
23
160.260620
33
104.917755
0
3DFACE
8
0
70
0
10
8.584763
20
179.152466
30
112.725739
11
14.230474
21
160.606018
31
123.670204
12
32.174438
22
164.420715
32
115.002640
13
23.199493
23
180.730774
33
112.608627
0
3DFACE
8
0
70
0
10
41.549984
20
222.811920
30
78.249641
11
53.428574
21
226.547363
31
77.739914
12
28.002588
22
229.208801
32
96.802124
13
28.006506
23
225.898926
33
94.976685
0
3DFACE
8
0
70
0
10
-4.593537
20
224.850464
30
112.074959
11
-4.424916
21
222.976440
31
109.102097
12
10.714643
22
231.894043
32
107.094673
13
12.078568
23
234.240295
33
108.592934
0
3DFACE
8
0
70
0
10
12.078568
20
234.240295
30
108.592934
11
10.714643
21
231.894043
31
107.094673
12
28.006506
22
225.898926
32
94.976685
13
28.002588
23
229.208801
33
96.802124
0
3DFACE
8
0
70
0
10
3.693091
20
132.753601
30
122.178642
11
20.051012
21
142.604614
31
115.812431
12
16.061407
22
151.434143
32
113.764580
13
2.390965
23
147.225342
33
119.235947
0
3DFACE
8
0
70
0
10
7.560548
20
89.771042
30
101.101166
11
26.716932
21
104.062408
31
97.859230
12
20.051012
22
142.604614
32
115.812431
13
3.693091
23
132.753601
33
122.178642
0
3DFACE
8
0
70
0
10
50.494015
20
180.774414
30
78.126740
11
34.553814
21
160.260620
31
104.917755
12
34.162109
22
156.990601
32
95.906563
13
55.211155
23
169.895264
33
81.297020
0
3DFACE
8
0
70
0
10
34.162109
20
156.990601
30
95.906563
11
47.823898
21
132.068115
31
66.107307
12
55.204552
22
162.499451
32
50.112881
13
55.211155
23
169.895264
33
81.297020
0
3DFACE
8
0
70
0
10
26.716932
20
104.062408
30
97.859230
11
47.823898
21
132.068115
31
66.107307
12
34.162109
22
156.990601
32
95.906563
13
20.051012
23
142.604614
33
115.812431
0
3DFACE
8
0
70
0
10
20.051012
20
142.604614
30
115.812431
11
34.162109
21
156.990601
31
95.906563
12
34.553814
22
160.260620
32
104.917755
13
16.061407
23
151.434143
33
113.764580
0
3DFACE
8
0
70
0
10
1.309993
20
159.239136
30
124.353912
11
2.390965
21
147.225342
31
119.235947
12
16.061407
22
151.434143
32
113.764580
13
14.230474
23
160.606018
33
123.670204
0
3DFACE
8
0
70
0
10
-0.282221
20
176.934875
30
115.474304
11
8.584763
21
179.152466
31
112.725739
12
11.095396
22
178.437073
32
104.511543
13
-0.075139
23
174.633392
33
110.431030
0
3DFACE
8
0
70
0
10
23.199493
20
180.730774
30
112.608627
11
25.428852
21
182.357727
31
98.608398
12
11.095396
22
178.437073
32
104.511543
13
8.584763
23
179.152466
33
112.725739
0
POINT
8
0
70
0
10
53.407604
20
165.030701
30
96.495125
0
3DFACE
8
0
70
0
10
14.230474
20
160.606018
30
123.670204
11
16.061407
21
151.434143
31
113.764580
12
34.553814
22
160.260620
32
104.917755
13
32.174438
23
164.420715
33
115.002640
0
3DFACE
8
0
70
0
10
32.174438
20
164.420715
30
115.002640
11
53.407604
21
165.030701
31
96.495125
12
23.199493
22
180.730774
32
112.608627
13
23.199493
23
180.730774
33
112.608627
0
3DFACE
8
0
70
0
10
23.199493
20
180.730774
30
112.608627
11
53.407604
21
165.030701
31
96.495125
12
25.428852
22
182.357727
32
98.608398
13
25.428852
23
182.357727
33
98.608398
0
3DFACE
8
0
70
0
10
53.407604
20
165.030701
30
96.495125
11
34.553814
21
160.260620
31
104.917755
12
25.428852
22
182.357727
32
98.608398
13
25.428852
23
182.357727
33
98.608398
0
3DFACE
8
0
70
0
10
34.553814
20
160.260620
30
104.917755
11
53.407604
21
165.030701
31
96.495125
12
32.174438
22
164.420715
32
115.002640
13
32.174438
23
164.420715
33
115.002640
0
3DFACE
8
0
70
0
10
53.428574
20
226.547363
30
77.739914
11
41.549984
21
222.811920
31
78.249641
12
55.155331
22
221.504272
32
41.261280
13
58.267109
23
223.806152
33
40.018829
0
3DFACE
8
0
70
0
10
41.549984
20
222.811920
30
78.249641
11
40.402229
21
213.554321
31
78.655991
12
57.317905
22
214.256958
32
42.462151
13
55.155331
23
221.504272
33
41.261280
0
3DFACE
8
0
70
0
10
40.402229
20
213.554321
30
78.655991
11
44.008068
21
200.726715
31
78.504814
12
58.521984
22
201.118042
32
44.641083
13
57.317905
23
214.256958
33
42.462151
0
3DFACE
8
0
70
0
10
58.267109
20
223.806152
30
40.018829
11
55.155331
21
221.504272
31
41.261280
12
38.597313
22
218.169922
32
14.896184
13
41.073341
23
219.509705
33
13.866787
0
3DFACE
8
0
70
0
10
57.317905
20
214.256958
30
42.462151
11
41.070229
21
216.489258
31
12.672510
12
38.597313
22
218.169922
32
14.896184
13
55.155331
23
221.504272
33
41.261280
0
3DFACE
8
0
70
0
10
58.521984
20
201.118042
30
44.641083
11
39.384735
21
204.593262
31
11.188781
12
41.070229
22
216.489258
32
12.672510
13
57.317905
23
214.256958
33
42.462151
0
3DFACE
8
0
70
0
10
41.073341
20
219.509705
30
13.866787
11
38.597313
21
218.169922
31
14.896184
12
-3.656931
22
214.441101
32
-2.275021
13
-3.724452
23
215.191528
33
-5.901319
0
3DFACE
8
0
70
0
10
41.070229
20
216.489258
30
12.672510
11
-3.473891
21
212.406799
31
-2.405132
12
-3.656931
22
214.441101
32
-2.275021
13
38.597313
23
218.169922
33
14.896184
0
3DFACE
8
0
70
0
10
39.384735
20
204.593262
30
11.188781
11
-2.230371
21
198.586426
31
-0.945824
12
-3.473891
22
212.406799
32
-2.405132
13
41.070229
23
216.489258
33
12.672510
0
3DFACE
8
0
70
0
10
55.204552
20
162.499451
30
50.112881
11
60.018978
21
179.611389
31
46.003769
12
50.494015
22
180.774414
32
78.126740
13
55.211155
23
169.895264
33
81.297020
0
3DFACE
8
0
70
0
10
44.008068
20
200.726715
30
78.504814
11
47.915245
21
191.516418
31
77.948036
12
58.521984
22
201.118042
32
44.641083
13
58.521984
23
201.118042
33
44.641083
0
3DFACE
8
0
70
0
10
50.494015
20
180.774414
30
78.126740
11
60.018978
21
179.611389
31
46.003769
12
58.521984
22
201.118042
32
44.641083
13
47.915245
23
191.516418
33
77.948036
0
3DFACE
8
0
70
0
10
60.018978
20
179.611389
30
46.003769
11
40.207180
21
186.606934
31
14.099627
12
39.384735
22
204.593262
32
11.188781
13
58.521984
23
201.118042
33
44.641083
0
3DFACE
8
0
70
0
10
40.207180
20
186.606934
30
14.099627
11
-0.674645
21
181.296234
31
3.485336
12
-2.230371
22
198.586426
32
-0.945824
13
39.384735
23
204.593262
33
11.188781
0
3DFACE
8
0
70
0
10
-4.593537
20
224.850464
30
112.074959
11
12.078568
21
234.240295
31
108.592934
12
12.019100
22
256.695465
32
106.255333
13
-7.187883
23
253.683777
33
112.282356
0
3DFACE
8
0
70
0
10
-7.187883
20
253.683777
30
112.282356
11
12.019100
21
256.695465
31
106.255333
12
12.166353
22
259.395935
32
101.565422
13
-7.513845
23
257.306519
33
108.993706
0
3DFACE
8
0
70
0
10
12.078568
20
234.240295
30
108.592934
11
28.002588
21
229.208801
31
96.802124
12
38.485424
22
258.162811
32
92.966484
13
12.019100
23
256.695465
33
106.255333
0
3DFACE
8
0
70
0
10
12.019100
20
256.695465
30
106.255333
11
38.485424
21
258.162811
31
92.966484
12
36.972874
22
261.109985
32
88.605896
13
12.166353
23
259.395935
33
101.565422
0
3DFACE
8
0
70
0
10
28.002588
20
229.208801
30
96.802124
11
53.428574
21
226.547363
31
77.739914
12
54.998989
22
254.254211
32
61.730480
13
38.485424
23
258.162811
33
92.966484
0
3DFACE
8
0
70
0
10
38.485424
20
258.162811
30
92.966484
11
54.998989
21
254.254211
31
61.730480
12
46.360569
22
257.657532
32
60.679428
13
36.972874
23
261.109985
33
88.605896
0
3DFACE
8
0
70
0
10
53.428574
20
226.547363
30
77.739914
11
58.267109
21
223.806152
31
40.018829
12
59.484478
22
254.904236
32
35.851646
13
54.998989
23
254.254211
33
61.730480
0
3DFACE
8
0
70
0
10
54.998989
20
254.254211
30
61.730480
11
59.484478
21
254.904236
31
35.851646
12
52.721783
22
256.924622
32
37.509758
13
46.360569
23
257.657532
33
60.679428
0
3DFACE
8
0
70
0
10
58.267109
20
223.806152
30
40.018829
11
41.073341
21
219.509705
31
13.866787
12
39.470428
22
247.315063
32
12.511164
13
59.484478
23
254.904236
33
35.851646
0
3DFACE
8
0
70
0
10
59.484478
20
254.904236
30
35.851646
11
39.470428
21
247.315063
31
12.511164
12
33.593399
22
250.937866
32
16.319864
13
52.721783
23
256.924622
33
37.509758
0
3DFACE
8
0
70
0
10
41.073341
20
219.509705
30
13.866787
11
-3.724452
21
215.191528
31
-5.901319
12
-6.031852
22
240.835754
32
-7.526243
13
39.470428
23
247.315063
33
12.511164
0
3DFACE
8
0
70
0
10
39.470428
20
247.315063
30
12.511164
11
-6.031852
21
240.835754
31
-7.526243
12
-6.355873
22
244.436890
32
-2.974264
13
33.593399
23
250.937866
33
16.319864
0
3DFACE
8
0
70
0
10
55.204552
20
162.499451
30
50.112881
11
37.021591
21
171.041046
31
31.937210
12
40.207180
22
186.606934
32
14.099627
13
60.018978
23
179.611389
33
46.003769
0
3DFACE
8
0
70
0
10
37.021591
20
171.041046
30
31.937210
11
-1.105799
21
182.942932
31
8.883839
12
-0.674645
22
181.296234
32
3.485336
13
40.207180
23
186.606934
33
14.099627
0
3DFACE
8
0
70
0
10
47.823898
20
132.068115
30
66.107307
11
31.778728
21
139.387817
31
60.123993
12
37.021591
22
171.041046
32
31.937210
13
55.204552
23
162.499451
33
50.112881
0
3DFACE
8
0
70
0
10
26.716932
20
104.062408
30
97.859230
11
24.245682
21
104.535126
31
81.952545
12
31.778728
22
139.387817
32
60.123993
13
47.823898
23
132.068115
33
66.107307
0
3DFACE
8
0
70
0
10
24.245682
20
104.535126
30
81.952545
11
6.523223
21
101.299774
31
77.656464
12
4.548399
22
123.247803
32
56.009392
13
31.778728
23
139.387817
33
60.123993
0
3DFACE
8
0
70
0
10
7.560548
20
89.771042
30
101.101166
11
6.523223
21
101.299774
31
77.656464
12
24.245682
22
104.535126
32
81.952545
13
24.245682
23
104.535126
33
81.952545
0
3DFACE
8
0
70
0
10
7.560548
20
89.771042
30
101.101166
11
24.245682
21
104.535126
31
81.952545
12
26.716932
22
104.062408
32
97.859230
13
26.716932
23
104.062408
33
97.859230
0
3DFACE
8
0
70
0
10
-0.318264
20
180.218689
30
122.611298
11
-1.971769
21
198.595581
31
128.666168
12
-21.575428
22
196.649292
32
122.216965
13
-10.598529
23
179.817261
33
117.381271
0
3DFACE
8
0
70
0
10
-1.971769
20
198.595581
30
128.666168
11
-3.030745
21
210.364960
31
124.536148
12
-15.295069
22
205.813324
32
121.019630
13
-21.575428
23
196.649292
33
122.216965
0
3DFACE
8
0
70
0
10
-10.598529
20
179.817261
30
117.381271
11
-21.575428
21
196.649292
31
122.216965
12
-24.856695
22
193.864380
32
104.760262
13
-11.745254
23
176.381958
33
104.511543
0
3DFACE
8
0
70
0
10
-0.318264
20
180.218689
30
122.611298
11
-10.598529
21
179.817261
31
117.381271
12
-11.745254
22
176.381958
32
104.511543
13
-0.075139
23
174.633392
33
110.431030
0
3DFACE
8
0
70
0
10
-3.030745
20
210.364960
30
124.536148
11
-3.412326
21
211.722595
31
110.144318
12
-17.800051
22
206.468506
32
104.835991
13
-15.295069
23
205.813324
33
121.019630
0
3DFACE
8
0
70
0
10
-21.575428
20
196.649292
30
122.216965
11
-15.295069
21
205.813324
31
121.019630
12
-17.800051
22
206.468506
32
104.835991
13
-24.856695
23
193.864380
33
104.760262
0
3DFACE
8
0
70
0
10
-7.822175
20
220.728333
30
106.095718
11
-20.671423
21
227.977905
31
104.469688
12
-18.028803
22
208.643799
32
102.640160
13
-7.005129
23
211.647736
33
106.939919
0
3DFACE
8
0
70
0
10
-18.028803
20
208.643799
30
102.640160
11
-20.671423
21
227.977905
31
104.469688
12
-31.810560
22
218.573120
32
94.654114
13
-27.165468
23
208.760040
33
97.547935
0
3DFACE
8
0
70
0
10
-11.646959
20
158.277618
30
123.670204
11
1.309993
21
159.239136
31
124.353912
12
-0.282221
22
176.934875
32
115.474304
13
-9.402642
23
177.533997
33
112.725739
0
3DFACE
8
0
70
0
10
-50.928284
20
171.648682
30
78.126740
11
-31.582216
21
154.309875
31
104.917755
12
-26.548361
22
177.680969
32
98.608398
13
-50.308487
23
182.678528
33
77.948036
0
3DFACE
8
0
70
0
10
-9.402642
20
177.533997
30
112.725739
11
-24.064381
21
176.478088
31
112.608627
12
-29.983671
22
158.827881
32
115.002640
13
-11.646959
23
158.277618
33
123.670204
0
3DFACE
8
0
70
0
10
-49.632011
20
214.607605
30
78.249641
11
-35.988598
21
220.140808
31
94.976685
12
-36.575584
22
223.398254
32
96.802116
13
-61.986607
23
216.162598
33
77.739914
0
3DFACE
8
0
70
0
10
-4.593537
20
224.850464
30
112.074959
11
-22.344290
21
231.953705
31
108.592934
12
-20.583452
22
229.888672
32
107.094673
13
-4.424916
23
222.976440
33
109.102097
0
3DFACE
8
0
70
0
10
-22.344290
20
231.953705
30
108.592934
11
-36.575584
21
223.398254
31
96.802116
12
-35.988598
22
220.140808
32
94.976685
13
-20.583452
23
229.888672
33
107.094673
0
3DFACE
8
0
70
0
10
3.693091
20
132.753601
30
122.178642
11
2.390965
21
147.225342
31
119.235947
12
-11.811220
22
148.926239
32
113.764580
13
-14.160596
23
139.526367
33
115.812431
0
3DFACE
8
0
70
0
10
7.560548
20
89.771042
30
101.101166
11
3.693091
21
132.753601
31
122.178642
12
-14.160596
22
139.526367
32
115.812431
13
-13.839296
23
100.413269
33
97.859230
0
3DFACE
8
0
70
0
10
-50.928284
20
171.648682
30
78.126740
11
-53.627632
21
160.102264
31
81.297020
12
-30.613077
22
151.162292
32
95.906570
13
-31.582216
23
154.309875
33
104.917755
0
3DFACE
8
0
70
0
10
-30.613077
20
151.162292
30
95.906570
11
-53.627632
21
160.102264
31
81.297020
12
-52.300915
22
152.826416
32
50.112881
13
-39.606533
23
124.201385
33
66.107307
0
3DFACE
8
0
70
0
10
-13.839296
20
100.413269
30
97.859230
11
-14.160596
21
139.526367
31
115.812431
12
-30.613077
22
151.162292
32
95.906570
13
-39.606533
23
124.201385
33
66.107307
0
3DFACE
8
0
70
0
10
-14.160596
20
139.526367
30
115.812431
11
-11.811220
21
148.926239
31
113.764580
12
-31.582216
22
154.309875
32
104.917755
13
-30.613077
23
151.162292
33
95.906570
0
3DFACE
8
0
70
0
10
1.309993
20
159.239136
30
124.353912
11
-11.646959
21
158.277618
31
123.670204
12
-11.811220
22
148.926239
32
113.764580
13
2.390965
23
147.225342
33
119.235947
0
3DFACE
8
0
70
0
10
-0.282221
20
176.934875
30
115.474304
11
-0.075139
21
174.633392
31
110.431030
12
-11.745254
22
176.381958
32
104.511543
13
-9.402642
23
177.533997
33
112.725739
0
3DFACE
8
0
70
0
10
-24.064381
20
176.478088
30
112.608627
11
-9.402642
21
177.533997
31
112.725739
12
-11.745254
22
176.381958
32
104.511543
13
-26.548361
23
177.680969
33
98.608398
0
POINT
8
0
70
0
10
-50.180489
20
155.710144
30
96.495125
0
3DFACE
8
0
70
0
10
-11.646959
20
158.277618
30
123.670204
11
-29.983671
21
158.827881
31
115.002640
12
-31.582216
22
154.309875
32
104.917755
13
-11.811220
23
148.926239
33
113.764580
0
3DFACE
8
0
70
0
10
-29.983671
20
158.827881
30
115.002640
11
-24.064381
21
176.478088
31
112.608627
12
-50.180489
22
155.710144
32
96.495125
13
-50.180489
23
155.710144
33
96.495125
0
3DFACE
8
0
70
0
10
-24.064381
20
176.478088
30
112.608627
11
-26.548361
21
177.680969
31
98.608398
12
-50.180489
22
155.710144
32
96.495125
13
-50.180489
23
155.710144
33
96.495125
0
3DFACE
8
0
70
0
10
-50.180489
20
155.710144
30
96.495125
11
-26.548361
21
177.680969
31
98.608398
12
-31.582216
22
154.309875
32
104.917755
13
-31.582216
23
154.309875
33
104.917755
0
3DFACE
8
0
70
0
10
-31.582216
20
154.309875
30
104.917755
11
-29.983671
21
158.827881
31
115.002640
12
-50.180489
22
155.710144
32
96.495125
13
-50.180489
23
155.710144
33
96.495125
0
3DFACE
8
0
70
0
10
-61.986607
20
216.162598
30
77.739914
11
-66.258102
21
212.601685
31
40.018829
12
-62.785397
22
210.892273
32
41.261280
13
-49.632011
23
214.607605
33
78.249641
0
3DFACE
8
0
70
0
10
-49.632011
20
214.607605
30
78.249641
11
-62.785397
21
210.892273
31
41.261280
12
-63.619526
22
203.375305
32
42.462151
13
-46.850132
23
205.703613
33
78.655991
0
3DFACE
8
0
70
0
10
-46.850132
20
205.703613
30
78.655991
11
-63.619526
21
203.375305
31
42.462151
12
-62.458843
22
190.232513
32
44.641083
13
-48.108189
23
192.438354
33
78.504814
0
3DFACE
8
0
70
0
10
-66.258102
20
212.601685
30
40.018829
11
-48.573536
21
211.443481
31
13.866787
12
-45.898121
22
210.567261
32
14.896184
13
-62.785397
23
210.892273
33
41.261280
0
3DFACE
8
0
70
0
10
-63.619526
20
203.375305
30
42.462151
11
-62.785397
21
210.892273
31
41.261280
12
-45.898121
22
210.567261
32
14.896184
13
-48.031311
23
208.472137
33
12.672510
0
3DFACE
8
0
70
0
10
-62.458843
20
190.232513
30
44.641083
11
-63.619526
21
203.375305
31
42.462151
12
-48.031311
22
208.472137
32
12.672510
13
-44.249340
23
197.068115
33
11.188781
0
3DFACE
8
0
70
0
10
-48.573536
20
211.443481
30
13.866787
11
-3.724452
21
215.191528
31
-5.901319
12
-3.656931
22
214.441101
32
-2.275021
13
-45.898121
23
210.567261
33
14.896184
0
3DFACE
8
0
70
0
10
-48.031311
20
208.472137
30
12.672510
11
-45.898121
21
210.567261
31
14.896184
12
-3.656931
22
214.441101
32
-2.275021
13
-3.473891
23
212.406799
33
-2.405132
0
3DFACE
8
0
70
0
10
-44.249340
20
197.068115
30
11.188781
11
-48.031311
21
208.472137
31
12.672510
12
-3.473891
22
212.406799
32
-2.405132
13
-2.230371
23
198.586426
33
-0.945824
0
3DFACE
8
0
70
0
10
-52.300915
20
152.826416
30
50.112881
11
-53.627632
21
160.102264
31
81.297020
12
-50.928284
22
171.648682
32
78.126740
13
-60.092651
23
168.804077
33
46.003769
0
3DFACE
8
0
70
0
10
-48.108189
20
192.438354
30
78.504814
11
-62.458843
21
190.232513
31
44.641083
12
-50.308487
22
182.678528
32
77.948036
13
-50.308487
23
182.678528
33
77.948036
0
3DFACE
8
0
70
0
10
-50.928284
20
171.648682
30
78.126740
11
-50.308487
21
182.678528
31
77.948036
12
-62.458843
22
190.232513
32
44.641083
13
-60.092651
23
168.804077
33
46.003769
0
3DFACE
8
0
70
0
10
-60.092651
20
168.804077
30
46.003769
11
-62.458843
21
190.232513
31
44.641083
12
-44.249340
22
197.068115
32
11.188781
13
-41.847843
23
179.223877
33
14.099627
0
3DFACE
8
0
70
0
10
-41.847843
20
179.223877
30
14.099627
11
-44.249340
21
197.068115
31
11.188781
12
-2.230371
22
198.586426
32
-0.945824
13
-0.674645
23
181.296234
33
3.485336
0
3DFACE
8
0
70
0
10
-4.593537
20
224.850464
30
112.074959
11
-7.187883
21
253.683777
31
112.282356
12
-26.623983
22
253.218475
32
106.255333
13
-22.344290
23
231.953705
33
108.592934
0
3DFACE
8
0
70
0
10
-7.187883
20
253.683777
30
112.282356
11
-7.513845
21
257.306519
31
108.993706
12
-27.250931
22
255.849304
32
101.565422
13
-26.623983
23
253.218475
33
106.255333
0
3DFACE
8
0
70
0
10
-22.344290
20
231.953705
30
108.592934
11
-26.623983
21
253.218475
31
106.255333
12
-52.927132
22
249.937744
32
92.966484
13
-36.575584
23
223.398254
33
96.802116
0
3DFACE
8
0
70
0
10
-26.623983
20
253.218475
30
106.255333
11
-27.250931
21
255.849304
31
101.565422
12
-51.964977
22
253.107605
32
88.605896
13
-52.927132
23
249.937744
33
92.966484
0
3DFACE
8
0
70
0
10
-36.575584
20
223.398254
30
96.802116
11
-52.927132
21
249.937744
31
92.966484
12
-68.477745
22
243.144104
32
61.730480
13
-61.986607
23
216.162598
33
77.739914
0
3DFACE
8
0
70
0
10
-52.927132
20
249.937744
30
92.966484
11
-51.964977
21
253.107605
31
88.605896
12
-60.585594
22
248.034821
32
60.679428
13
-68.477745
23
243.144104
33
61.730480
0
3DFACE
8
0
70
0
10
-61.986607
20
216.162598
30
77.739914
11
-68.477745
21
243.144104
31
61.730480
12
-73.007217
22
242.982971
32
35.851646
13
-66.258102
23
212.601685
33
40.018829
0
3DFACE
8
0
70
0
10
-68.477745
20
243.144104
30
61.730480
11
-60.585594
21
248.034821
31
60.679428
12
-66.713806
22
246.178131
32
37.509758
13
-73.007217
23
242.982971
33
35.851646
0
3DFACE
8
0
70
0
10
-66.258102
20
212.601685
30
40.018829
11
-73.007217
21
242.982971
31
35.851646
12
-51.959896
22
239.088379
32
12.511164
13
-48.573536
23
211.443481
33
13.866787
0
3DFACE
8
0
70
0
10
-73.007217
20
242.982971
30
35.851646
11
-66.713806
21
246.178131
31
37.509758
12
-46.823978
22
243.702148
32
16.319864
13
-51.959896
23
239.088379
33
12.511164
0
3DFACE
8
0
70
0
10
-48.573536
20
211.443481
30
13.866787
11
-51.959896
21
239.088379
31
12.511164
12
-6.031852
22
240.835754
32
-7.526243
13
-3.724452
23
215.191528
33
-5.901319
0
3DFACE
8
0
70
0
10
-51.959896
20
239.088379
30
12.511164
11
-46.823978
21
243.702148
31
16.319864
12
-6.355873
22
244.436890
32
-2.974264
13
-6.031852
23
240.835754
33
-7.526243
0
3DFACE
8
0
70
0
10
-52.300915
20
152.826416
30
50.112881
11
-60.092651
21
168.804077
31
46.003769
12
-41.847843
22
179.223877
32
14.099627
13
-38.349667
23
168.639862
33
31.765619
0
3DFACE
8
0
70
0
10
-38.349667
20
168.639862
30
31.765619
11
-41.847843
21
179.223877
31
14.099627
12
-0.674645
22
181.296234
32
3.485336
13
-1.105799
23
182.942932
33
8.883839
0
3DFACE
8
0
70
0
10
-39.606533
20
124.201385
30
66.107307
11
-52.300915
21
152.826416
31
50.112881
12
-38.349667
22
168.639862
32
31.765619
13
-30.280224
23
136.652496
33
59.928520
0
3DFACE
8
0
70
0
10
-13.839296
20
100.413269
30
97.859230
11
-39.606533
21
124.201385
31
66.107307
12
-30.280224
22
136.652496
32
59.928520
13
-11.492123
23
101.319550
33
81.952545
0
3DFACE
8
0
70
0
10
-11.492123
20
101.319550
30
81.952545
11
-30.280224
21
136.652496
31
59.928520
12
4.548399
22
123.247803
32
56.009392
13
6.523223
23
101.299774
33
77.656464
0
3DFACE
8
0
70
0
10
7.560548
20
89.771042
30
101.101166
11
-11.492123
21
101.319550
31
81.952545
12
6.523223
22
101.299774
32
77.656464
13
6.523223
23
101.299774
33
77.656464
0
3DFACE
8
0
70
0
10
7.560548
20
89.771042
30
101.101166
11
-13.839296
21
100.413269
31
97.859230
12
-11.492123
22
101.319550
32
81.952545
13
-11.492123
23
101.319550
33
81.952545
0
3DFACE
8
0
70
0
10
-7.005129
20
211.647736
30
106.939919
11
-3.412326
21
211.722595
31
110.144318
12
-4.424916
22
222.976440
32
109.102097
13
-7.822175
23
220.728333
33
106.095718
0
3DFACE
8
0
70
0
10
-18.028803
20
208.643799
30
102.640160
11
-17.800051
21
206.468506
31
104.835991
12
-3.412326
22
211.722595
32
110.144318
13
-7.005129
23
211.647736
33
106.939919
0
3DFACE
8
0
70
0
10
-20.671423
20
227.977905
30
104.469688
11
-7.822175
21
220.728333
31
106.095718
12
-4.424916
22
222.976440
32
109.102097
13
-20.583452
23
229.888672
33
107.094673
0
3DFACE
8
0
70
0
10
-18.028803
20
208.643799
30
102.640160
11
-27.165468
21
208.760040
31
97.547935
12
-29.826567
22
206.672485
32
98.549278
13
-17.800051
23
206.468506
33
104.835991
0
3DFACE
8
0
70
0
10
-27.165468
20
208.760040
30
97.547935
11
-31.810560
21
218.573120
31
94.654114
12
-35.988598
22
220.140808
32
94.976685
13
-29.826567
23
206.672485
33
98.549278
0
3DFACE
8
0
70
0
10
-20.671423
20
227.977905
30
104.469688
11
-20.583452
21
229.888672
31
107.094673
12
-35.988598
22
220.140808
32
94.976685
13
-31.810560
23
218.573120
33
94.654114
0
3DFACE
8
0
70
0
10
11.379251
20
230.163757
30
104.268639
11
10.714643
21
231.894043
31
107.094673
12
-4.424916
22
222.976440
32
109.102097
13
-0.240288
23
221.530273
33
106.276031
0
3DFACE
8
0
70
0
10
11.806999
20
210.713501
30
102.009949
11
0.611470
21
212.063904
31
107.318275
12
-3.412326
22
211.722595
32
110.144318
13
11.682206
23
209.121246
33
104.835991
0
3DFACE
8
0
70
0
10
0.611470
20
212.063904
30
107.318275
11
-0.240288
21
221.530273
31
106.276031
12
-4.424916
22
222.976440
32
109.102097
13
-3.412326
23
211.722595
33
110.144318
0
3DFACE
8
0
70
0
10
11.379251
20
230.163757
30
104.268639
11
23.927599
21
223.708252
31
92.150620
12
28.006506
22
225.898926
32
94.976685
13
10.714643
23
231.894043
33
107.094673
0
3DFACE
8
0
70
0
10
21.241589
20
212.562439
30
95.723228
11
24.347677
21
211.546936
31
98.549278
12
28.006506
22
225.898926
32
94.976685
13
23.927599
23
223.708252
33
92.150620
0
3DFACE
8
0
70
0
10
11.806999
20
210.713501
30
102.009949
11
11.682206
21
209.121246
31
104.835991
12
24.347677
22
211.546936
32
98.549278
13
21.241589
23
212.562439
33
95.723228
0
3DFACE
8
0
70
0
10
-1.105799
20
182.942932
30
8.883839
11
37.021591
21
171.041046
31
31.937210
12
59.942387
22
161.186890
32
4.036575
13
-1.903024
23
182.184082
33
5.071034
0
3DFACE
8
0
70
0
10
-1.903024
20
182.184082
30
5.071034
11
-63.060493
21
162.886017
31
3.159901
12
-38.349667
22
168.639862
32
31.765619
13
-1.105799
23
182.942932
33
8.883839
0
3DFACE
8
0
70
0
10
-63.060493
20
162.886017
30
3.159901
11
-57.064972
21
133.961914
31
59.006863
12
-38.349667
22
168.639862
32
31.765619
13
-38.349667
23
168.639862
33
31.765619
0
3DFACE
8
0
70
0
10
-57.064972
20
133.961914
30
59.006863
11
-30.280224
21
136.652496
31
59.928520
12
-38.349667
22
168.639862
32
31.765619
13
-38.349667
23
168.639862
33
31.765619
0
3DFACE
8
0
70
0
10
52.482529
20
133.657715
30
59.554424
11
37.021591
21
171.041046
31
31.937210
12
31.778728
22
139.387817
32
60.123993
13
31.778728
23
139.387817
33
60.123993
0
3DFACE
8
0
70
0
10
59.942387
20
161.186890
30
4.036575
11
37.021591
21
171.041046
31
31.937210
12
52.482529
22
133.657715
32
59.554424
13
52.482529
23
133.657715
33
59.554424
0
3DFACE
8
0
70
0
10
-2.452084
20
126.571350
30
67.166367
11
-30.280224
21
136.652496
31
59.928520
12
-57.064972
22
133.961914
32
59.006863
13
-57.064972
23
133.961914
33
59.006863
0
3DFACE
8
0
70
0
10
4.548399
20
123.247803
30
56.009392
11
-30.280224
21
136.652496
31
59.928520
12
-2.452084
22
126.571350
32
67.166367
13
-2.452084
23
126.571350
33
67.166367
0
3DFACE
8
0
70
0
10
4.548399
20
123.247803
30
56.009392
11
-2.452084
21
126.571350
31
67.166367
12
31.778728
22
139.387817
32
60.123993
13
31.778728
23
139.387817
33
60.123993
0
3DFACE
8
0
70
0
10
-2.452084
20
126.571350
30
67.166367
11
52.482529
21
133.657715
31
59.554424
12
31.778728
22
139.387817
32
60.123993
13
31.778728
23
139.387817
33
60.123993
0
3DFACE
8
0
70
0
10
-6.355873
20
244.436890
30
-2.974264
11
-8.129033
21
294.866882
31
34.124210
12
6.057889
22
301.290100
32
38.196705
13
33.593399
23
250.937866
33
16.319864
0
3DFACE
8
0
70
0
10
33.593399
20
250.937866
30
16.319864
11
6.057889
21
301.290100
31
38.196705
12
14.583823
22
308.031647
32
44.075890
13
52.721783
23
256.924622
33
37.509758
0
3DFACE
8
0
70
0
10
52.721783
20
256.924622
30
37.509758
11
14.583823
21
308.031647
31
44.075890
12
10.359627
22
312.043152
32
49.918934
13
46.360569
23
257.657532
33
60.679428
0
3DFACE
8
0
70
0
10
46.360569
20
257.657532
30
60.679428
11
10.359627
21
312.043152
31
49.918934
12
5.471775
22
317.093994
32
57.167213
13
36.972874
23
261.109985
33
88.605896
0
3DFACE
8
0
70
0
10
-7.513845
20
257.306519
30
108.993706
11
12.166353
21
259.395935
31
101.565422
12
-7.158581
22
317.260437
32
60.550625
13
-17.100224
23
316.784729
33
62.491161
0
3DFACE
8
0
70
0
10
-6.355873
20
244.436890
30
-2.974264
11
-46.823978
21
243.702148
31
16.319864
12
-24.762856
22
294.421783
32
37.788834
13
-8.129033
23
294.866882
33
34.124210
0
3DFACE
8
0
70
0
10
-46.823978
20
243.702148
30
16.319864
11
-66.713806
21
246.178131
31
37.509758
12
-36.920864
22
296.553925
32
43.394291
13
-24.762856
23
294.421783
33
37.788834
0
3DFACE
8
0
70
0
10
-66.713806
20
246.178131
30
37.509758
11
-60.585594
21
248.034821
31
60.679428
12
-36.412270
22
301.620148
32
49.299969
13
-36.920864
23
296.553925
33
43.394291
0
3DFACE
8
0
70
0
10
-60.585594
20
248.034821
30
60.679428
11
-51.964977
21
253.107605
31
88.605896
12
-36.130661
22
307.822968
32
56.616657
13
-36.412270
23
301.620148
33
49.299969
0
3DFACE
8
0
70
0
10
-7.513845
20
257.306519
30
108.993706
11
-17.100224
21
316.784729
31
62.491161
12
-25.736706
22
313.120331
32
60.304768
13
-27.250931
23
255.849304
33
101.565422
0
3DFACE
8
0
70
0
10
36.972874
20
261.109985
30
88.605896
11
5.471775
21
317.093994
31
57.167213
12
-7.158581
22
317.260437
32
60.550625
13
12.166353
23
259.395935
33
101.565422
0
3DFACE
8
0
70
0
10
-51.964977
20
253.107605
30
88.605896
11
-27.250931
21
255.849304
31
101.565422
12
-25.736706
22
313.120331
32
60.304768
13
-36.130661
23
307.822968
33
56.616657
0
3DFACE
8
0
70
0
10
-16.327837
20
319.343018
30
-10.248434
11
-0.874591
21
318.079071
31
-16.292994
12
-12.801542
22
311.900696
32
-24.070787
13
-12.801542
23
311.900696
33
-24.070787
0
3DFACE
8
0
70
0
10
-2.158336
20
320.031403
30
-1.548519
11
-0.874591
21
318.079071
31
-16.292994
12
-16.327837
22
319.343018
32
-10.248434
13
-16.327837
23
319.343018
33
-10.248434
0
3DFACE
8
0
70
0
10
-15.369039
20
315.805359
30
5.418223
11
-2.158336
21
320.031403
31
-1.548519
12
-16.327837
22
319.343018
32
-10.248434
13
-16.327837
23
319.343018
33
-10.248434
0
3DFACE
8
0
70
0
10
-15.369039
20
315.805359
30
5.418223
11
-16.327837
21
319.343018
31
-10.248434
12
-27.295965
22
309.627014
32
-2.359508
13
-27.295965
23
309.627014
33
-2.359508
0
3DFACE
8
0
70
0
10
-27.295965
20
309.627014
30
-2.359508
11
-16.327837
21
319.343018
31
-10.248434
12
-26.012220
22
307.674683
32
-17.103983
13
-26.012220
23
307.674683
33
-17.103983
0
3DFACE
8
0
70
0
10
-16.327837
20
319.343018
30
-10.248434
11
-12.801542
21
311.900696
31
-24.070787
12
-26.012220
22
307.674683
32
-17.103983
13
-26.012220
23
307.674683
33
-17.103983
0
3DFACE
8
0
70
0
10
-0.874591
20
318.079071
30
-16.292994
11
10.011415
21
306.575531
31
-16.952440
12
-6.855822
22
297.838013
32
-27.951824
13
-12.801542
23
311.900696
33
-24.070787
0
3DFACE
8
0
70
0
10
8.195918
20
309.336517
30
3.899476
11
10.011415
21
306.575531
31
-16.952440
12
-0.874591
22
318.079071
32
-16.292994
13
-2.158336
23
320.031403
33
-1.548519
0
3DFACE
8
0
70
0
10
-10.486808
20
303.360016
30
13.751919
11
8.195918
21
309.336517
31
3.899476
12
-2.158336
22
320.031403
32
-1.548519
13
-15.369039
23
315.805359
33
5.418223
0
3DFACE
8
0
70
0
10
-10.486808
20
303.360016
30
13.751919
11
-15.369039
21
315.805359
31
5.418223
12
-27.295965
22
309.627014
32
-2.359508
13
-27.354052
23
294.622498
33
2.752564
0
3DFACE
8
0
70
0
10
-27.354052
20
294.622498
30
2.752564
11
-27.295965
21
309.627014
31
-2.359508
12
-26.012220
22
307.674683
32
-17.103983
13
-25.538555
23
291.861511
33
-18.099352
0
3DFACE
8
0
70
0
10
-26.012220
20
307.674683
30
-17.103983
11
-12.801542
21
311.900696
31
-24.070787
12
-6.855822
22
297.838013
32
-27.951824
13
-25.538555
23
291.861511
33
-18.099352
0
3DFACE
8
0
70
0
10
9.953356
20
291.571045
30
-11.840307
11
-1.973594
21
285.392670
31
-19.618099
12
-6.855822
22
297.838013
32
-27.951824
13
10.011415
23
306.575531
33
-16.952440
0
3DFACE
8
0
70
0
10
8.195918
20
309.336517
30
3.899476
11
8.669610
21
293.523346
31
2.904168
12
9.953356
22
291.571045
32
-11.840307
13
10.011415
23
306.575531
33
-16.952440
0
3DFACE
8
0
70
0
10
-10.486808
20
303.360016
30
13.751919
11
-4.541090
21
289.297333
31
9.870911
12
8.669610
22
293.523346
32
2.904168
13
8.195918
23
309.336517
33
3.899476
0
3DFACE
8
0
70
0
10
-10.486808
20
303.360016
30
13.751919
11
-27.354052
21
294.622498
31
2.752564
12
-16.468018
22
283.118958
32
2.093179
13
-4.541090
23
289.297333
33
9.870911
0
3DFACE
8
0
70
0
10
-27.354052
20
294.622498
30
2.752564
11
-25.538555
21
291.861511
31
-18.099352
12
-15.184272
22
281.166656
32
-12.651296
13
-16.468018
23
283.118958
33
2.093179
0
3DFACE
8
0
70
0
10
-15.184272
20
281.166656
30
-12.651296
11
-25.538555
21
291.861511
31
-18.099352
12
-6.855822
22
297.838013
32
-27.951824
13
-1.973594
23
285.392670
33
-19.618099
0
3DFACE
8
0
70
0
10
-1.014807
20
281.854980
30
-3.951381
11
-1.973594
21
285.392670
31
-19.618099
12
9.953356
22
291.571045
32
-11.840307
13
9.953356
23
291.571045
33
-11.840307
0
3DFACE
8
0
70
0
10
8.669610
20
293.523346
30
2.904168
11
-1.014807
21
281.854980
31
-3.951381
12
9.953356
22
291.571045
32
-11.840307
13
9.953356
23
291.571045
33
-11.840307
0
3DFACE
8
0
70
0
10
-4.541090
20
289.297333
30
9.870911
11
-1.014807
21
281.854980
31
-3.951381
12
8.669610
22
293.523346
32
2.904168
13
8.669610
23
293.523346
33
2.904168
0
3DFACE
8
0
70
0
10
-4.541090
20
289.297333
30
9.870911
11
-16.468018
21
283.118958
31
2.093179
12
-1.014807
22
281.854980
32
-3.951381
13
-1.014807
23
281.854980
33
-3.951381
0
3DFACE
8
0
70
0
10
-16.468018
20
283.118958
30
2.093179
11
-15.184272
21
281.166656
31
-12.651296
12
-1.014807
22
281.854980
32
-3.951381
13
-1.014807
23
281.854980
33
-3.951381
0
3DFACE
8
0
70
0
10
-1.014807
20
281.854980
30
-3.951381
11
-15.184272
21
281.166656
31
-12.651296
12
-1.973594
22
285.392670
32
-19.618099
13
-1.973594
23
285.392670
33
-19.618099
0
3DFACE
8
0
70
0
10
25.428852
20
182.357727
30
98.608398
11
47.915245
21
191.516418
31
77.948036
12
35.462097
22
199.137726
32
101.725830
13
35.462097
23
199.137726
33
101.725830
0
3DFACE
8
0
70
0
10
47.915245
20
191.516418
30
77.948036
11
44.008068
21
200.726715
31
78.504814
12
35.462097
22
199.137726
32
101.725830
13
35.462097
23
199.137726
33
101.725830
0
3DFACE
8
0
70
0
10
11.095396
20
178.437073
30
104.511543
11
25.428852
21
182.357727
31
98.608398
12
20.875467
22
197.979248
32
104.760262
13
20.875467
23
197.979248
33
104.760262
0
3DFACE
8
0
70
0
10
25.428852
20
182.357727
30
98.608398
11
35.462097
21
199.137726
31
101.725830
12
20.875467
22
197.979248
32
104.760262
13
20.875467
23
197.979248
33
104.760262
0
3DFACE
8
0
70
0
10
35.462097
20
199.137726
30
101.725830
11
44.008068
21
200.726715
31
78.504814
12
24.347677
22
211.546936
32
98.549278
13
24.347677
23
211.546936
33
98.549278
0
3DFACE
8
0
70
0
10
44.008068
20
200.726715
30
78.504814
11
40.402229
21
213.554321
31
78.655991
12
24.347677
22
211.546936
32
98.549278
13
24.347677
23
211.546936
33
98.549278
0
3DFACE
8
0
70
0
10
20.875467
20
197.979248
30
104.760262
11
24.347677
21
211.546936
31
98.549278
12
11.682206
22
209.121246
32
104.835991
13
11.682206
23
209.121246
33
104.835991
0
3DFACE
8
0
70
0
10
35.462097
20
199.137726
30
101.725830
11
24.347677
21
211.546936
31
98.549278
12
20.875467
22
197.979248
32
104.760262
13
20.875467
23
197.979248
33
104.760262
0
3DFACE
8
0
70
0
10
24.347677
20
211.546936
30
98.549278
11
40.402229
21
213.554321
31
78.655991
12
28.006506
22
225.898926
32
94.976685
13
28.006506
23
225.898926
33
94.976685
0
3DFACE
8
0
70
0
10
40.402229
20
213.554321
30
78.655991
11
41.549984
21
222.811920
31
78.249641
12
28.006506
22
225.898926
32
94.976685
13
28.006506
23
225.898926
33
94.976685
0
3DFACE
8
0
70
0
10
-50.308487
20
182.678528
30
77.948036
11
-39.415840
21
192.400391
31
101.725830
12
-48.108189
22
192.438354
32
78.504814
13
-48.108189
23
192.438354
33
78.504814
0
3DFACE
8
0
70
0
10
-26.548361
20
177.680969
30
98.608398
11
-39.415840
21
192.400391
31
101.725830
12
-50.308487
22
182.678528
32
77.948036
13
-50.308487
23
182.678528
33
77.948036
0
3DFACE
8
0
70
0
10
-26.548361
20
177.680969
30
98.608398
11
-24.856695
21
193.864380
31
104.760262
12
-39.415840
22
192.400391
32
101.725830
13
-39.415840
23
192.400391
33
101.725830
0
3DFACE
8
0
70
0
10
-11.745254
20
176.381958
30
104.511543
11
-24.856695
21
193.864380
31
104.760262
12
-26.548361
22
177.680969
32
98.608398
13
-26.548361
23
177.680969
33
98.608398
0
3DFACE
8
0
70
0
10
-48.108189
20
192.438354
30
78.504814
11
-29.826567
21
206.672485
31
98.549278
12
-46.850132
22
205.703613
32
78.655991
13
-46.850132
23
205.703613
33
78.655991
0
3DFACE
8
0
70
0
10
-39.415840
20
192.400391
30
101.725830
11
-29.826567
21
206.672485
31
98.549278
12
-48.108189
22
192.438354
32
78.504814
13
-48.108189
23
192.438354
33
78.504814
0
3DFACE
8
0
70
0
10
-24.856695
20
193.864380
30
104.760262
11
-17.800051
21
206.468506
31
104.835991
12
-29.826567
22
206.672485
32
98.549278
13
-29.826567
23
206.672485
33
98.549278
0
3DFACE
8
0
70
0
10
-39.415840
20
192.400391
30
101.725830
11
-24.856695
21
193.864380
31
104.760262
12
-29.826567
22
206.672485
32
98.549278
13
-29.826567
23
206.672485
33
98.549278
0
3DFACE
8
0
70
0
10
-46.850132
20
205.703613
30
78.655991
11
-35.988598
21
220.140808
31
94.976685
12
-49.632011
22
214.607605
32
78.249641
13
-49.632011
23
214.607605
33
78.249641
0
3DFACE
8
0
70
0
10
-29.826567
20
206.672485
30
98.549278
11
-35.988598
21
220.140808
31
94.976685
12
-46.850132
22
205.703613
32
78.655991
13
-46.850132
23
205.703613
33
78.655991
0
3DFACE
8
0
70
0
10
25.831749
20
-74.091652
30
36.204617
11
23.102818
21
-53.354401
31
20.878235
12
18.382269
22
-59.270920
32
-6.493254
13
18.382269
23
-59.270920
33
-6.493254
0
3DFACE
8
0
70
0
10
25.831749
20
-74.091652
30
36.204617
11
18.382269
21
-59.270920
31
-6.493254
12
20.792070
22
-78.512413
32
10.993134
13
20.792070
23
-78.512413
33
10.993134
0
3DFACE
8
0
70
0
10
25.831749
20
-74.091652
30
36.204617
11
65.820457
21
-52.027542
31
16.435848
12
23.102818
22
-53.354401
32
20.878235
13
23.102818
23
-53.354401
33
20.878235
0
3DFACE
8
0
70
0
10
25.831749
20
-74.091652
30
36.204617
11
62.511742
21
-72.956985
31
31.832998
12
65.820457
22
-52.027542
32
16.435848
13
65.820457
23
-52.027542
33
16.435848
0
3DFACE
8
0
70
0
10
62.511742
20
-72.956985
30
31.832998
11
78.319786
21
-54.624634
31
0.720061
12
65.820457
22
-52.027542
32
16.435848
13
65.820457
23
-52.027542
33
16.435848
0
3DFACE
8
0
70
0
10
62.511742
20
-72.956985
30
31.832998
11
73.320038
21
-74.806053
31
17.330238
12
78.319786
22
-54.624634
32
0.720061
13
78.319786
23
-54.624634
33
0.720061
0
3DFACE
8
0
70
0
10
31.565132
20
-81.992630
30
-13.371012
11
18.382269
21
-59.270920
31
-6.493254
12
29.454151
22
-64.202446
32
-33.119312
13
29.454151
23
-64.202446
33
-33.119312
0
3DFACE
8
0
70
0
10
20.792070
20
-78.512413
30
10.993134
11
18.382269
21
-59.270920
31
-6.493254
12
31.565132
22
-81.992630
32
-13.371012
13
31.565132
23
-81.992630
33
-13.371012
0
3DFACE
8
0
70
0
10
66.238441
20
-78.092628
30
-0.391161
11
69.948830
21
-59.078773
31
-18.662561
12
78.319786
22
-54.624634
32
0.720061
13
78.319786
23
-54.624634
33
0.720061
0
3DFACE
8
0
70
0
10
73.320038
20
-74.806053
30
17.330238
11
66.238441
21
-78.092628
31
-0.391161
12
78.319786
22
-54.624634
32
0.720061
13
78.319786
23
-54.624634
33
0.720061
0
3DFACE
8
0
70
0
10
31.565132
20
-81.992630
30
-13.371012
11
29.454151
21
-64.202446
31
-33.119312
12
69.948830
22
-59.078773
32
-18.662561
13
69.948830
23
-59.078773
33
-18.662561
0
3DFACE
8
0
70
0
10
66.238441
20
-78.092628
30
-0.391161
11
31.565132
21
-81.992630
31
-13.371012
12
69.948830
22
-59.078773
32
-18.662561
13
69.948830
23
-59.078773
33
-18.662561
0
3DFACE
8
0
70
0
10
-44.904053
20
-72.171135
30
40.310555
11
-33.438362
21
-75.848930
31
17.416901
12
-27.743237
22
-56.005798
32
1.224846
13
-27.743237
23
-56.005798
33
1.224846
0
3DFACE
8
0
70
0
10
-44.904053
20
-72.171135
30
40.310555
11
-27.743237
21
-56.005798
31
1.224846
12
-39.527023
22
-51.103149
32
26.289341
13
-39.527023
23
-51.103149
33
26.289341
0
3DFACE
8
0
70
0
10
-44.904053
20
-72.171135
30
40.310555
11
-39.527023
21
-51.103149
31
26.289341
12
-79.558807
22
-53.699814
32
10.192903
13
-79.558807
23
-53.699814
33
10.192903
0
3DFACE
8
0
70
0
10
-44.904053
20
-72.171135
30
40.310555
11
-79.558807
21
-53.699814
31
10.192903
12
-79.136398
22
-74.420448
32
25.952591
13
-79.136398
23
-74.420448
33
25.952591
0
3DFACE
8
0
70
0
10
-79.136398
20
-74.420448
30
25.952591
11
-79.558807
21
-53.699814
31
10.192903
12
-87.464195
22
-57.144699
32
-8.405593
13
-87.464195
23
-57.144699
33
-8.405593
0
3DFACE
8
0
70
0
10
-79.136398
20
-74.420448
30
25.952591
11
-87.464195
21
-57.144699
31
-8.405593
12
-85.761475
22
-77.124321
32
8.991387
13
-85.761475
23
-77.124321
33
8.991387
0
3DFACE
8
0
70
0
10
-37.445942
20
-80.074440
30
-9.034621
11
-31.389687
21
-61.423676
31
-27.489985
12
-27.743237
22
-56.005798
32
1.224846
13
-27.743237
23
-56.005798
33
1.224846
0
3DFACE
8
0
70
0
10
-33.438362
20
-75.848930
30
17.416901
11
-37.445942
21
-80.074440
31
-9.034621
12
-27.743237
22
-56.005798
32
1.224846
13
-27.743237
23
-56.005798
33
1.224846
0
3DFACE
8
0
70
0
10
-85.761475
20
-77.124321
30
8.991387
11
-87.464195
21
-57.144699
31
-8.405593
12
-74.288628
22
-79.557602
32
-6.121774
13
-74.288628
23
-79.557602
33
-6.121774
0
3DFACE
8
0
70
0
10
-74.288628
20
-79.557602
30
-6.121774
11
-87.464195
21
-57.144699
31
-8.405593
12
-74.269539
22
-60.408157
32
-24.763660
13
-74.269539
23
-60.408157
33
-24.763660
0
3DFACE
8
0
70
0
10
-74.288628
20
-79.557602
30
-6.121774
11
-74.269539
21
-60.408157
31
-24.763660
12
-37.445942
22
-80.074440
32
-9.034621
13
-37.445942
23
-80.074440
33
-9.034621
0
3DFACE
8
0
70
0
10
-37.445942
20
-80.074440
30
-9.034621
11
-74.269539
21
-60.408157
31
-24.763660
12
-31.389687
22
-61.423676
32
-27.489985
13
-31.389687
23
-61.423676
33
-27.489985
0
3DFACE
8
0
70
0
10
29.961035
20
-97.662621
30
19.923798
11
25.831749
21
-74.091652
31
36.204617
12
20.792070
22
-78.512413
32
10.993134
13
20.792070
23
-78.512413
33
10.993134
0
3DFACE
8
0
70
0
10
26.297203
20
-126.069817
30
-8.029556
11
29.961035
21
-97.662621
31
19.923798
12
20.792070
22
-78.512413
32
10.993134
13
20.792070
23
-78.512413
33
10.993134
0
3DFACE
8
0
70
0
10
65.184547
20
-102.139748
30
13.391333
11
62.511742
21
-72.956985
31
31.832998
12
29.961035
22
-97.662621
32
19.923798
13
29.961035
23
-97.662621
33
19.923798
0
3DFACE
8
0
70
0
10
29.961035
20
-97.662621
30
19.923798
11
62.511742
21
-72.956985
31
31.832998
12
25.831749
22
-74.091652
32
36.204617
13
25.831749
23
-74.091652
33
36.204617
0
3DFACE
8
0
70
0
10
75.877937
20
-123.572105
30
-3.280409
11
73.320038
21
-74.806053
31
17.330238
12
65.184547
22
-102.139748
32
13.391333
13
65.184547
23
-102.139748
33
13.391333
0
3DFACE
8
0
70
0
10
65.184547
20
-102.139748
30
13.391333
11
73.320038
21
-74.806053
31
17.330238
12
62.511742
22
-72.956985
32
31.832998
13
62.511742
23
-72.956985
33
31.832998
0
3DFACE
8
0
70
0
10
26.297203
20
-126.069817
30
-8.029556
11
20.792070
21
-78.512413
31
10.993134
12
31.565132
22
-81.992630
32
-13.371012
13
31.565132
23
-81.992630
33
-13.371012
0
3DFACE
8
0
70
0
10
13.344190
20
-156.671951
30
-38.618805
11
26.297203
21
-126.069817
31
-8.029556
12
31.565132
22
-81.992630
32
-13.371012
13
31.565132
23
-81.992630
33
-13.371012
0
3DFACE
8
0
70
0
10
86.251541
20
-151.764450
30
-29.742720
11
66.238441
21
-78.092628
31
-0.391161
12
75.877937
22
-123.572105
32
-3.280409
13
75.877937
23
-123.572105
33
-3.280409
0
3DFACE
8
0
70
0
10
75.877937
20
-123.572105
30
-3.280409
11
66.238441
21
-78.092628
31
-0.391161
12
73.320038
22
-74.806053
32
17.330238
13
73.320038
23
-74.806053
33
17.330238
0
3DFACE
8
0
70
0
10
13.344190
20
-156.671951
30
-38.618805
11
31.565132
21
-81.992630
31
-13.371012
12
86.251541
22
-151.764450
32
-29.742720
13
86.251541
23
-151.764450
33
-29.742720
0
3DFACE
8
0
70
0
10
86.251541
20
-151.764450
30
-29.742720
11
31.565132
21
-81.992630
31
-13.371012
12
66.238441
22
-78.092628
32
-0.391161
13
66.238441
23
-78.092628
33
-0.391161
0
3DFACE
8
0
70
0
10
-31.145254
20
-124.259727
30
-2.930443
11
-33.438362
21
-75.848930
31
17.416901
12
-41.556999
22
-96.147911
32
23.236115
13
-41.556999
23
-96.147911
33
23.236115
0
3DFACE
8
0
70
0
10
-41.556999
20
-96.147911
30
23.236115
11
-33.438362
21
-75.848930
31
17.416901
12
-44.904053
22
-72.171135
32
40.310555
13
-44.904053
23
-72.171135
33
40.310555
0
3DFACE
8
0
70
0
10
-41.556999
20
-96.147911
30
23.236115
11
-44.904053
21
-72.171135
31
40.310555
12
-79.136398
22
-74.420448
32
25.952591
13
-79.136398
23
-74.420448
33
25.952591
0
3DFACE
8
0
70
0
10
-74.391075
20
-103.223610
30
9.164825
11
-41.556999
21
-96.147911
31
23.236115
12
-79.136398
22
-74.420448
32
25.952591
13
-79.136398
23
-74.420448
33
25.952591
0
3DFACE
8
0
70
0
10
-74.391075
20
-103.223610
30
9.164825
11
-79.136398
21
-74.420448
31
25.952591
12
-85.761475
22
-77.124321
32
8.991387
13
-85.761475
23
-77.124321
33
8.991387
0
3DFACE
8
0
70
0
10
-80.561592
20
-125.420372
30
-9.218520
11
-74.391075
21
-103.223610
31
9.164825
12
-85.761475
22
-77.124321
32
8.991387
13
-85.761475
23
-77.124321
33
8.991387
0
3DFACE
8
0
70
0
10
-11.049798
20
-153.879608
30
-29.604279
11
-37.445942
21
-80.074440
31
-9.034621
12
-31.145254
22
-124.259727
32
-2.930443
13
-31.145254
23
-124.259727
33
-2.930443
0
3DFACE
8
0
70
0
10
-31.145254
20
-124.259727
30
-2.930443
11
-37.445942
21
-80.074440
31
-9.034621
12
-33.438362
22
-75.848930
32
17.416901
13
-33.438362
23
-75.848930
33
17.416901
0
3DFACE
8
0
70
0
10
-80.561592
20
-125.420372
30
-9.218520
11
-85.761475
21
-77.124321
31
8.991387
12
-74.288628
22
-79.557602
32
-6.121774
13
-74.288628
23
-79.557602
33
-6.121774
0
3DFACE
8
0
70
0
10
-84.151192
20
-154.351807
30
-37.016422
11
-80.561592
21
-125.420372
31
-9.218520
12
-74.288628
22
-79.557602
32
-6.121774
13
-74.288628
23
-79.557602
33
-6.121774
0
3DFACE
8
0
70
0
10
-84.151192
20
-154.351807
30
-37.016422
11
-74.288628
21
-79.557602
31
-6.121774
12
-37.445942
22
-80.074440
32
-9.034621
13
-37.445942
23
-80.074440
33
-9.034621
0
3DFACE
8
0
70
0
10
-11.049798
20
-153.879608
30
-29.604279
11
-84.151192
21
-154.351807
31
-37.016422
12
-37.445942
22
-80.074440
32
-9.034621
13
-37.445942
23
-80.074440
33
-9.034621
0
3DFACE
8
0
70
0
10
98.285812
20
26.611237
30
75.909904
11
-3.057941
21
46.146378
31
116.869698
12
-3.046701
22
28.661163
32
105.404686
13
-3.046701
23
28.661163
33
105.404686
0
3DFACE
8
0
70
0
10
98.285812
20
26.611237
30
75.909904
11
99.238235
21
59.426895
31
87.606316
12
-3.057941
22
46.146378
32
116.869698
13
-3.057941
23
46.146378
33
116.869698
0
3DFACE
8
0
70
0
10
99.248108
20
18.225494
30
-78.660789
11
-1.744697
21
17.218719
31
-109.466591
12
-1.642085
22
49.897766
32
-101.615974
13
-1.642085
23
49.897766
33
-101.615974
0
3DFACE
8
0
70
0
10
99.248108
20
18.225494
30
-78.660789
11
-1.642085
21
49.897766
31
-101.615974
12
100.198364
22
51.059982
32
-66.616982
13
100.198364
23
51.059982
33
-66.616982
0
3DFACE
8
0
70
0
10
98.285812
20
26.611237
30
75.909904
11
124.373184
21
54.688477
31
2.040170
12
99.238235
22
59.426895
32
87.606316
13
99.238235
23
59.426895
33
87.606316
0
3DFACE
8
0
70
0
10
98.285812
20
26.611237
30
75.909904
11
123.143150
21
22.444702
31
0.869915
12
124.373184
22
54.688477
32
2.040170
13
124.373184
23
54.688477
33
2.040170
0
3DFACE
8
0
70
0
10
123.143150
20
22.444702
30
0.869915
11
99.248108
21
18.225494
31
-78.660789
12
100.198364
22
51.059982
32
-66.616982
13
100.198364
23
51.059982
33
-66.616982
0
3DFACE
8
0
70
0
10
123.143150
20
22.444702
30
0.869915
11
100.198364
21
51.059982
31
-66.616982
12
124.373184
22
54.688477
32
2.040170
13
124.373184
23
54.688477
33
2.040170
0
3DFACE
8
0
70
0
10
-104.004272
20
27.332642
30
74.611389
11
-3.046701
21
28.661163
31
105.404686
12
-3.057941
22
46.146378
32
116.869698
13
-3.057941
23
46.146378
33
116.869698
0
3DFACE
8
0
70
0
10
-104.004272
20
27.332642
30
74.611389
11
-3.057941
21
46.146378
31
116.869698
12
-104.872696
22
60.154785
32
86.296112
13
-104.872696
23
60.154785
33
86.296112
0
3DFACE
8
0
70
0
10
-103.041969
20
18.946884
30
-79.959305
11
-1.642085
21
49.897766
31
-101.615974
12
-1.744697
22
17.218719
32
-109.466591
13
-1.744697
23
17.218719
33
-109.466591
0
3DFACE
8
0
70
0
10
-103.041969
20
18.946884
30
-79.959305
11
-103.912560
21
51.787888
31
-67.927177
12
-1.642085
22
49.897766
32
-101.615974
13
-1.642085
23
49.897766
33
-101.615974
0
3DFACE
8
0
70
0
10
-104.004272
20
27.332642
30
74.611389
11
-128.940277
21
55.591827
31
0.414132
12
-127.925301
22
23.340057
32
-0.741712
13
-127.925301
23
23.340057
33
-0.741712
0
3DFACE
8
0
70
0
10
-104.004272
20
27.332642
30
74.611389
11
-104.872696
21
60.154785
31
86.296112
12
-128.940277
22
55.591827
32
0.414132
13
-128.940277
23
55.591827
33
0.414132
0
3DFACE
8
0
70
0
10
-127.925301
20
23.340057
30
-0.741712
11
-128.940277
21
55.591827
31
0.414132
12
-103.912560
22
51.787888
32
-67.927177
13
-103.912560
23
51.787888
33
-67.927177
0
3DFACE
8
0
70
0
10
-127.925301
20
23.340057
30
-0.741712
11
-103.912560
21
51.787888
31
-67.927177
12
-103.041969
22
18.946884
32
-79.959305
13
-103.041969
23
18.946884
33
-79.959305
0
3DFACE
8
0
70
0
10
-3.057941
20
46.146378
30
116.869698
11
52.482529
21
133.657715
31
59.554424
12
-2.452084
22
126.571350
32
67.166367
13
-2.452084
23
126.571350
33
67.166367
0
3DFACE
8
0
70
0
10
-3.057941
20
46.146378
30
116.869698
11
99.238235
21
59.426895
31
87.606316
12
52.482529
22
133.657715
32
59.554424
13
52.482529
23
133.657715
33
59.554424
0
3DFACE
8
0
70
0
10
100.198364
20
51.059982
30
-66.616982
11
-1.642085
21
49.897766
31
-101.615974
12
53.130089
22
152.023956
32
-36.248466
13
53.130089
23
152.023956
33
-36.248466
0
3DFACE
8
0
70
0
10
-1.642085
20
49.897766
30
-101.615974
11
-1.766959
21
161.477234
31
-46.101208
12
53.130089
22
152.023956
32
-36.248466
13
53.130089
23
152.023956
33
-36.248466
0
3DFACE
8
0
70
0
10
99.238235
20
59.426895
30
87.606316
11
108.358521
21
128.068848
31
7.857932
12
81.771690
22
151.470612
32
47.496750
13
81.771690
23
151.470612
33
47.496750
0
3DFACE
8
0
70
0
10
99.238235
20
59.426895
30
87.606316
11
124.373184
21
54.688477
31
2.040170
12
108.358521
22
128.068848
32
7.857932
13
108.358521
23
128.068848
33
7.857932
0
3DFACE
8
0
70
0
10
100.198364
20
51.059982
30
-66.616982
11
84.019485
21
138.630371
31
-27.746557
12
108.358521
22
128.068848
32
7.857932
13
108.358521
23
128.068848
33
7.857932
0
3DFACE
8
0
70
0
10
124.373184
20
54.688477
30
2.040170
11
100.198364
21
51.059982
31
-66.616982
12
108.358521
22
128.068848
32
7.857932
13
108.358521
23
128.068848
33
7.857932
0
3DFACE
8
0
70
0
10
99.238235
20
59.426895
30
87.606316
11
81.771690
21
151.470612
31
47.496750
12
52.482529
22
133.657715
32
59.554424
13
52.482529
23
133.657715
33
59.554424
0
3DFACE
8
0
70
0
10
100.198364
20
51.059982
30
-66.616982
11
53.130089
21
152.023956
31
-36.248466
12
84.019485
22
138.630371
32
-27.746557
13
84.019485
23
138.630371
33
-27.746557
0
3DFACE
8
0
70
0
10
-3.057941
20
46.146378
30
116.869698
11
-57.064972
21
133.961914
31
59.006863
12
-104.872696
22
60.154785
32
86.296112
13
-104.872696
23
60.154785
33
86.296112
0
3DFACE
8
0
70
0
10
-3.057941
20
46.146378
30
116.869698
11
-2.452084
21
126.571350
31
67.166367
12
-57.064972
22
133.961914
32
59.006863
13
-57.064972
23
133.961914
33
59.006863
0
3DFACE
8
0
70
0
10
-103.912560
20
51.787888
30
-67.927177
11
-56.684795
21
152.305542
31
-36.755302
12
-1.642085
22
49.897766
32
-101.615974
13
-1.642085
23
49.897766
33
-101.615974
0
3DFACE
8
0
70
0
10
-1.642085
20
49.897766
30
-101.615974
11
-56.684795
21
152.305542
31
-36.755302
12
-1.766959
22
161.477234
32
-46.101208
13
-1.766959
23
161.477234
33
-46.101208
0
3DFACE
8
0
70
0
10
-104.872696
20
60.154785
30
86.296112
11
-86.825790
21
150.092468
31
46.909748
12
-112.257263
22
125.837708
32
6.456523
13
-112.257263
23
125.837708
33
6.456523
0
3DFACE
8
0
70
0
10
-104.872696
20
60.154785
30
86.296112
11
-112.257263
21
125.837708
31
6.456523
12
-128.940277
22
55.591827
32
0.414132
13
-128.940277
23
55.591827
33
0.414132
0
3DFACE
8
0
70
0
10
-128.940277
20
55.591827
30
0.414132
11
-112.257263
21
125.837708
31
6.456523
12
-103.912560
22
51.787888
32
-67.927177
13
-103.912560
23
51.787888
33
-67.927177
0
3DFACE
8
0
70
0
10
-103.912560
20
51.787888
30
-67.927177
11
-112.257263
21
125.837708
31
6.456523
12
-85.982590
22
139.440308
32
-29.294344
13
-85.982590
23
139.440308
33
-29.294344
0
3DFACE
8
0
70
0
10
-104.872696
20
60.154785
30
86.296112
11
-57.064972
21
133.961914
31
59.006863
12
-86.825790
22
150.092468
32
46.909748
13
-86.825790
23
150.092468
33
46.909748
0
3DFACE
8
0
70
0
10
-103.912560
20
51.787888
30
-67.927177
11
-85.982590
21
139.440308
31
-29.294344
12
-56.684795
22
152.305542
32
-36.755302
13
-56.684795
23
152.305542
33
-36.755302
0
3DFACE
8
0
70
0
10
108.358521
20
128.068848
30
7.857932
11
127.452560
21
233.186890
31
17.958160
12
81.771690
22
151.470612
32
47.496750
13
81.771690
23
151.470612
33
47.496750
0
3DFACE
8
0
70
0
10
167.732498
20
225.826141
30
-7.690458
11
127.452560
21
233.186890
31
17.958160
12
108.358521
22
128.068848
32
7.857932
13
108.358521
23
128.068848
33
7.857932
0
3DFACE
8
0
70
0
10
81.771690
20
151.470612
30
47.496750
11
123.542549
21
253.324310
31
-30.958469
12
59.942387
22
161.186890
32
4.036575
13
59.942387
23
161.186890
33
4.036575
0
3DFACE
8
0
70
0
10
81.771690
20
151.470612
30
47.496750
11
127.452560
21
233.186890
31
17.958160
12
123.542549
22
253.324310
32
-30.958469
13
123.542549
23
253.324310
33
-30.958469
0
3DFACE
8
0
70
0
10
84.019485
20
138.630371
30
-27.746557
11
59.942387
21
161.186890
31
4.036575
12
123.542549
22
253.324310
32
-30.958469
13
123.542549
23
253.324310
33
-30.958469
0
3DFACE
8
0
70
0
10
84.019485
20
138.630371
30
-27.746557
11
123.542549
21
253.324310
31
-30.958469
12
162.217117
22
243.668671
32
-48.734562
13
162.217117
23
243.668671
33
-48.734562
0
3DFACE
8
0
70
0
10
108.358521
20
128.068848
30
7.857932
11
84.019485
21
138.630371
31
-27.746557
12
162.217117
22
243.668671
32
-48.734562
13
162.217117
23
243.668671
33
-48.734562
0
3DFACE
8
0
70
0
10
167.732498
20
225.826141
30
-7.690458
11
108.358521
21
128.068848
31
7.857932
12
162.217117
22
243.668671
32
-48.734562
13
162.217117
23
243.668671
33
-48.734562
0
3DFACE
8
0
70
0
10
-112.257263
20
125.837708
30
6.456523
11
-86.825790
21
150.092468
31
46.909748
12
-142.187851
22
227.782898
32
24.141048
13
-142.187851
23
227.782898
33
24.141048
0
3DFACE
8
0
70
0
10
-178.289230
20
212.767395
30
-3.766399
11
-112.257263
21
125.837708
31
6.456523
12
-142.187851
22
227.782898
32
24.141048
13
-142.187851
23
227.782898
33
24.141048
0
3DFACE
8
0
70
0
10
-86.825790
20
150.092468
30
46.909748
11
-63.060493
21
162.886017
31
3.159901
12
-139.582489
22
249.476990
32
-23.873810
13
-139.582489
23
249.476990
33
-23.873810
0
3DFACE
8
0
70
0
10
-86.825790
20
150.092468
30
46.909748
11
-139.582489
21
249.476990
31
-23.873810
12
-142.187851
22
227.782898
32
24.141048
13
-142.187851
23
227.782898
33
24.141048
0
3DFACE
8
0
70
0
10
-85.982590
20
139.440308
30
-29.294344
11
-139.582489
21
249.476990
31
-23.873810
12
-63.060493
22
162.886017
32
3.159901
13
-63.060493
23
162.886017
33
3.159901
0
3DFACE
8
0
70
0
10
-85.982590
20
139.440308
30
-29.294344
11
-174.125244
21
232.363220
31
-43.909660
12
-139.582489
22
249.476990
32
-23.873810
13
-139.582489
23
249.476990
33
-23.873810
0
3DFACE
8
0
70
0
10
-112.257263
20
125.837708
30
6.456523
11
-174.125244
21
232.363220
31
-43.909660
12
-85.982590
22
139.440308
32
-29.294344
13
-85.982590
23
139.440308
33
-29.294344
0
3DFACE
8
0
70
0
10
-178.289230
20
212.767395
30
-3.766399
11
-174.125244
21
232.363220
31
-43.909660
12
-112.257263
22
125.837708
32
6.456523
13
-112.257263
23
125.837708
33
6.456523
0
3DFACE
8
0
70
0
10
-199.711533
20
244.730530
30
22.189327
11
-178.289230
21
212.767395
31
-3.766399
12
-142.187851
22
227.782898
32
24.141048
13
-142.187851
23
227.782898
33
24.141048
0
3DFACE
8
0
70
0
10
-199.711533
20
244.730530
30
22.189327
11
-142.187851
21
227.782898
31
24.141048
12
-153.333771
22
244.094849
32
36.719177
13
-153.333771
23
244.094849
33
36.719177
0
3DFACE
8
0
70
0
10
-153.333771
20
244.094849
30
36.719177
11
-142.187851
21
227.782898
31
24.141048
12
-139.582489
22
249.476990
32
-23.873810
13
-139.582489
23
249.476990
33
-23.873810
0
3DFACE
8
0
70
0
10
-153.333771
20
244.094849
30
36.719177
11
-139.582489
21
249.476990
31
-23.873810
12
-162.078201
22
286.631165
32
6.100537
13
-162.078201
23
286.631165
33
6.100537
0
3DFACE
8
0
70
0
10
-204.611450
20
281.784973
30
-3.656443
11
-162.078201
21
286.631165
31
6.100537
12
-139.582489
22
249.476990
32
-23.873810
13
-139.582489
23
249.476990
33
-23.873810
0
3DFACE
8
0
70
0
10
-204.611450
20
281.784973
30
-3.656443
11
-139.582489
21
249.476990
31
-23.873810
12
-174.125244
22
232.363220
32
-43.909660
13
-174.125244
23
232.363220
33
-43.909660
0
3DFACE
8
0
70
0
10
-199.711533
20
244.730530
30
22.189327
11
-204.611450
21
281.784973
31
-3.656443
12
-174.125244
22
232.363220
32
-43.909660
13
-174.125244
23
232.363220
33
-43.909660
0
3DFACE
8
0
70
0
10
-199.711533
20
244.730530
30
22.189327
11
-174.125244
21
232.363220
31
-43.909660
12
-178.289230
22
212.767395
32
-3.766399
13
-178.289230
23
212.767395
33
-3.766399
0
3DFACE
8
0
70
0
10
176.976486
20
259.147858
30
22.538691
11
127.452560
21
233.186890
31
17.958160
12
167.732498
22
225.826141
32
-7.690458
13
167.732498
23
225.826141
33
-7.690458
0
3DFACE
8
0
70
0
10
176.976486
20
259.147858
30
22.538691
11
131.046860
21
244.594727
31
28.948973
12
127.452560
22
233.186890
32
17.958160
13
127.452560
23
233.186890
33
17.958160
0
3DFACE
8
0
70
0
10
131.046860
20
244.594727
30
28.948973
11
123.542549
21
253.324310
31
-30.958469
12
127.452560
22
233.186890
32
17.958160
13
127.452560
23
233.186890
33
17.958160
0
3DFACE
8
0
70
0
10
131.046860
20
244.594727
30
28.948973
11
131.796814
21
291.689117
31
4.355146
12
123.542549
22
253.324310
32
-30.958469
13
123.542549
23
253.324310
33
-30.958469
0
3DFACE
8
0
70
0
10
174.931519
20
299.359192
30
1.469481
11
162.217117
21
243.668671
31
-48.734562
12
123.542549
22
253.324310
32
-30.958469
13
123.542549
23
253.324310
33
-30.958469
0
3DFACE
8
0
70
0
10
174.931519
20
299.359192
30
1.469481
11
123.542549
21
253.324310
31
-30.958469
12
131.796814
22
291.689117
32
4.355146
13
131.796814
23
291.689117
33
4.355146
0
3DFACE
8
0
70
0
10
176.976486
20
259.147858
30
22.538691
11
167.732498
21
225.826141
31
-7.690458
12
162.217117
22
243.668671
32
-48.734562
13
162.217117
23
243.668671
33
-48.734562
0
3DFACE
8
0
70
0
10
176.976486
20
259.147858
30
22.538691
11
162.217117
21
243.668671
31
-48.734562
12
174.931519
22
299.359192
32
1.469481
13
174.931519
23
299.359192
33
1.469481
0
3DFACE
8
0
70
0
10
-11.710335
20
295.465851
30
2.543388
11
-6.694247
21
295.006714
31
3.027998
12
-8.129033
22
294.866882
32
34.124210
13
-24.762856
23
294.421783
33
37.788834
0
3DFACE
8
0
70
0
10
-3.450543
20
298.884552
30
2.809865
11
6.057889
21
301.290100
31
38.196705
12
-8.129033
22
294.866882
32
34.124210
13
-6.694247
23
295.006714
33
3.027998
0
3DFACE
8
0
70
0
10
-1.994373
20
303.250519
30
2.377677
11
14.583823
21
308.031647
31
44.075890
12
6.057889
22
301.290100
32
38.196705
13
-3.450543
23
298.884552
33
2.809865
0
3DFACE
8
0
70
0
10
-3.974227
20
306.280823
30
1.823641
11
10.359627
21
312.043152
31
49.918934
12
14.583823
22
308.031647
32
44.075890
13
-1.994373
23
303.250519
33
2.377677
0
3DFACE
8
0
70
0
10
-6.335157
20
310.076263
30
1.139818
11
5.471775
21
317.093994
31
57.167213
12
10.359627
22
312.043152
32
49.918934
13
-3.974227
23
306.280823
33
1.823641
0
3DFACE
8
0
70
0
10
-10.230307
20
310.781219
30
0.719138
11
-7.158581
21
317.260437
31
60.550625
12
5.471775
22
317.093994
32
57.167213
13
-6.335157
23
310.076263
33
1.139818
0
3DFACE
8
0
70
0
10
-13.192414
20
310.907532
30
0.451407
11
-17.100224
21
316.784729
31
62.491161
12
-7.158581
22
317.260437
32
60.550625
13
-10.230307
23
310.781219
33
0.719138
0
3DFACE
8
0
70
0
10
-13.192414
20
310.907532
30
0.451407
11
-15.209143
21
308.720520
31
0.558511
12
-25.736706
22
313.120331
32
60.304768
13
-17.100224
23
316.784729
33
62.491161
0
3DFACE
8
0
70
0
10
-15.209143
20
308.720520
30
0.558511
11
-17.484383
21
305.461609
31
0.780122
12
-36.130661
22
307.822968
32
56.616657
13
-25.736706
23
313.120331
33
60.304768
0
3DFACE
8
0
70
0
10
-17.484383
20
305.461609
30
0.780122
11
-16.508841
21
301.092804
31
1.419250
12
-36.412270
22
301.620148
32
49.299969
13
-36.130661
23
307.822968
33
56.616657
0
3DFACE
8
0
70
0
10
-16.508841
20
301.092804
30
1.419250
11
-15.797349
21
297.537506
31
1.932366
12
-36.920864
22
296.553925
32
43.394291
13
-36.412270
23
301.620148
33
49.299969
0
3DFACE
8
0
70
0
10
-15.797349
20
297.537506
30
1.932366
11
-11.710335
21
295.465851
31
2.543388
12
-24.762856
22
294.421783
32
37.788834
13
-36.920864
23
296.553925
33
43.394291
0
ENDSEC
0
EOF
