0
SECTION
2
HEADER
999
DXF File Generated by LightWave 3D(TM)
0
ENDSEC
0
SECTION
2
TABLES
0
ENDSEC
0
SECTION
2
BLOCKS
0
ENDSEC
0
SECTION
2
ENTITIES
0
3DFACE
8
0
70
0
10
-13.999302
20
-25.000450
30
81.095100
11
-4.430999
21
-40.908524
31
46.777054
12
41.619122
22
-36.497688
32
41.562386
13
53.501007
23
-27.738190
33
60.830578
0
3DFACE
8
0
70
0
10
60.835323
20
-34.489395
30
-61.083500
11
70.425529
21
-47.178497
31
-34.241032
12
39.886551
22
-57.340538
32
-69.843590
13
-3.640275
23
-34.535896
33
-91.097015
0
3DFACE
8
0
70
0
10
-15.485321
20
-30.733734
30
101.851265
11
-13.999302
21
-25.000450
31
81.095100
12
53.501007
22
-27.738190
32
60.830578
13
73.625603
23
-34.459084
33
77.231552
0
3DFACE
8
0
70
0
10
82.907410
20
-43.002945
30
-77.054535
11
60.835323
21
-34.489395
31
-61.083500
12
-3.640275
22
-34.535896
32
-91.097015
13
-2.583612
23
-42.609711
33
-112.606407
0
3DFACE
8
0
70
0
10
-16.113869
20
-26.462555
30
114.350700
11
78.523140
21
-30.618256
31
86.146675
12
94.625221
22
22.801758
32
89.834747
13
-14.397932
23
28.417023
33
117.193825
0
3DFACE
8
0
70
0
10
89.011574
20
-40.272820
30
-88.196602
11
-1.534938
21
-39.882416
31
-127.986465
12
0.175070
22
15.002975
32
-125.143806
13
105.113663
23
13.147202
33
-84.508537
0
3DFACE
8
0
70
0
10
-14.397932
20
28.417023
30
117.193825
11
94.625221
21
22.801758
31
89.834747
12
89.081856
22
23.719269
32
81.115448
13
-13.620159
23
28.918427
33
104.941643
0
3DFACE
8
0
70
0
10
-16.113869
20
-26.462555
30
114.350700
11
-15.485321
21
-30.733734
31
101.851265
12
73.625603
22
-34.459084
32
77.231552
13
78.523140
23
-30.618256
33
86.146675
0
3DFACE
8
0
70
0
10
105.113663
20
13.147202
30
-84.508537
11
0.175070
21
15.002975
31
-125.143806
12
-0.938737
22
17.249207
32
-109.521461
13
98.363663
23
15.175400
33
-73.170639
0
3DFACE
8
0
70
0
10
89.011574
20
-40.272820
30
-88.196602
11
82.907410
21
-43.002945
31
-77.054535
12
-2.583612
22
-42.609711
32
-112.606407
13
-1.534938
23
-39.882416
33
-127.986465
0
3DFACE
8
0
70
0
10
27.673773
20
-119.444244
30
102.617195
11
74.813721
21
-119.444244
31
102.617195
12
66.977409
22
-98.812729
32
87.801697
13
33.987896
23
-98.998032
33
87.801697
0
3DFACE
8
0
70
0
10
53.501007
20
-27.738190
30
60.830578
11
41.619122
21
-36.497688
31
41.562386
12
65.555275
22
-43.643829
32
9.008541
13
72.926399
23
-31.586060
33
2.190989
0
3DFACE
8
0
70
0
10
73.625603
20
-34.459084
30
77.231552
11
53.501007
21
-27.738190
31
60.830578
12
72.926399
22
-31.586060
32
2.190989
13
99.296379
23
-39.345055
33
3.486556
0
3DFACE
8
0
70
0
10
94.625221
20
22.801758
30
89.834747
11
78.523140
21
-30.618256
31
86.146675
12
106.022316
22
-36.015137
32
4.081453
13
125.496147
23
17.288620
33
7.978804
0
3DFACE
8
0
70
0
10
125.496147
20
17.288620
30
7.978804
11
117.925926
21
18.723877
31
7.567417
12
89.081856
22
23.719269
32
81.115448
13
94.625221
23
22.801758
33
89.834747
0
3DFACE
8
0
70
0
10
78.523140
20
-30.618256
30
86.146675
11
73.625603
21
-34.459084
31
77.231552
12
99.296379
22
-39.345055
32
3.486556
13
106.022316
23
-36.015137
33
4.081453
0
3DFACE
8
0
70
0
10
12.906889
20
-152.844193
30
102.617195
11
80.090286
21
-153.029510
31
102.617195
12
74.813721
22
-119.444244
32
102.617195
13
27.673773
23
-119.444244
33
102.617195
0
3DFACE
8
0
70
0
10
-2.324984
20
180.977417
30
4.995803
11
59.146637
21
158.738342
31
5.251740
12
53.612568
22
149.985474
32
-34.111378
13
-0.983255
23
160.106445
33
-46.130695
0
3DFACE
8
0
70
0
10
72.926399
20
-31.586060
30
2.190989
11
65.555275
21
-43.643829
31
9.008541
12
70.425529
22
-47.178497
32
-34.241032
13
60.835323
23
-34.489395
33
-61.083500
0
3DFACE
8
0
70
0
10
99.296379
20
-39.345055
30
3.486556
11
72.926399
21
-31.586060
31
2.190989
12
60.835323
22
-34.489395
32
-61.083500
13
82.907410
23
-43.002945
33
-77.054535
0
3DFACE
8
0
70
0
10
106.022316
20
-36.015137
30
4.081453
11
89.011574
21
-40.272820
31
-88.196602
12
105.113663
22
13.147202
32
-84.508537
13
125.496147
23
17.288620
33
7.978804
0
3DFACE
8
0
70
0
10
105.113663
20
13.147202
30
-84.508537
11
98.363663
21
15.175400
31
-73.170639
12
117.925926
22
18.723877
32
7.567417
13
125.496147
23
17.288620
33
7.978804
0
3DFACE
8
0
70
0
10
106.022316
20
-36.015137
30
4.081453
11
99.296379
21
-39.345055
31
3.486556
12
82.907410
22
-43.002945
32
-77.054535
13
89.011574
23
-40.272820
33
-88.196602
0
3DFACE
8
0
70
0
10
7.656790
20
-60.838272
30
11.753537
11
-4.430999
21
-40.908524
31
46.777054
12
10.388433
22
-54.140625
32
-12.879742
13
11.876763
23
-66.574402
33
-15.722109
0
3DFACE
8
0
70
0
10
7.656790
20
-60.838272
30
11.753537
11
49.087173
21
-52.783264
31
21.506945
12
41.619122
22
-36.497688
32
41.562386
13
-4.430999
23
-40.908524
33
46.777054
0
3DFACE
8
0
70
0
10
49.087173
20
-52.783264
30
21.506945
11
65.762047
21
-52.933640
31
10.702659
12
65.555275
22
-43.643829
32
9.008541
13
41.619122
23
-36.497688
33
41.562386
0
3DFACE
8
0
70
0
10
11.876763
20
-66.574402
30
-15.722109
11
10.388433
21
-54.140625
31
-12.879742
12
39.886551
22
-57.340538
32
-69.843590
13
30.659283
23
-68.917343
33
-37.329742
0
3DFACE
8
0
70
0
10
65.762047
20
-52.933640
30
10.702659
11
64.038795
21
-58.034653
31
-10.397188
12
70.425529
22
-47.178497
32
-34.241032
13
65.555275
23
-43.643829
33
9.008541
0
3DFACE
8
0
70
0
10
64.038795
20
-58.034653
30
-10.397188
11
30.659283
21
-68.917343
31
-37.329742
12
39.886551
22
-57.340538
32
-69.843590
13
70.425529
23
-47.178497
33
-34.241032
0
3DFACE
8
0
70
0
10
27.008421
20
-129.362289
30
-14.864491
11
27.673773
21
-127.827744
31
43.725594
12
33.987896
22
-108.736435
32
35.947453
13
21.478756
23
-102.950142
33
13.667658
0
3DFACE
8
0
70
0
10
21.478756
20
-102.950142
30
13.667658
11
33.987896
21
-108.736435
31
35.947453
12
66.977409
22
-112.334427
32
35.947453
13
56.801632
23
-102.711845
33
16.352320
0
3DFACE
8
0
70
0
10
72.736717
20
-121.415573
30
2.477163
11
56.801632
21
-102.711845
31
16.352320
12
66.977409
22
-112.334427
32
35.947453
13
74.813721
23
-127.827744
33
43.725594
0
3DFACE
8
0
70
0
10
24.528807
20
-158.838837
30
-48.367363
11
16.610764
21
-150.617310
31
32.613968
12
27.673773
22
-127.827744
32
43.725594
13
27.008421
23
-129.362289
33
-14.864491
0
3DFACE
8
0
70
0
10
91.225632
20
-146.080154
30
-21.024565
11
72.736717
21
-121.415573
31
2.477163
12
74.813721
22
-127.827744
32
43.725594
13
83.794151
23
-150.723206
33
36.317848
0
3DFACE
8
0
70
0
10
91.225632
20
-146.080154
30
-21.024565
11
83.794151
21
-150.723206
31
36.317848
12
16.610764
22
-150.617310
32
32.613968
13
24.528807
23
-158.838837
33
-48.367363
0
3DFACE
8
0
70
0
10
27.673773
20
-119.444244
30
102.617195
11
33.987896
21
-98.998032
31
87.801697
12
33.987896
22
-108.736435
32
35.947453
13
27.673773
23
-127.827744
33
43.725594
0
3DFACE
8
0
70
0
10
33.987896
20
-98.998032
30
87.801697
11
66.977409
21
-98.812729
31
87.801697
12
66.977409
22
-112.334427
32
35.947453
13
33.987896
23
-108.736435
33
35.947453
0
3DFACE
8
0
70
0
10
74.813721
20
-119.444244
30
102.617195
11
74.813721
21
-127.827744
31
43.725594
12
66.977409
22
-112.334427
32
35.947453
13
66.977409
23
-98.812729
33
87.801697
0
3DFACE
8
0
70
0
10
12.906889
20
-152.844193
30
102.617195
11
27.673773
21
-119.444244
31
102.617195
12
27.673773
22
-127.827744
32
43.725594
13
16.610764
23
-150.617310
33
32.613968
0
3DFACE
8
0
70
0
10
80.090286
20
-153.029510
30
102.617195
11
83.794151
21
-150.723206
31
36.317848
12
74.813721
22
-127.827744
32
43.725594
13
74.813721
23
-119.444244
33
102.617195
0
3DFACE
8
0
70
0
10
80.090286
20
-153.029510
30
102.617195
11
12.906889
21
-152.844193
31
102.617195
12
16.610764
22
-150.617310
32
32.613968
13
83.794151
23
-150.723206
33
36.317848
0
3DFACE
8
0
70
0
10
116.250587
20
340.503723
30
158.538254
11
136.565155
21
344.440857
31
147.624176
12
121.112114
22
359.822083
32
148.043137
13
102.054321
23
349.963043
33
149.418365
0
3DFACE
8
0
70
0
10
85.088982
20
135.543701
30
-23.907381
11
53.612568
21
149.985474
31
-34.111378
12
59.146637
22
158.738342
32
5.251740
13
59.146637
23
158.738342
33
5.251740
0
3DFACE
8
0
70
0
10
76.233704
20
151.091675
30
49.799374
11
59.146637
21
158.738342
31
5.251740
12
48.475937
22
131.792267
32
61.708347
13
48.475937
23
131.792267
33
61.708347
0
3DFACE
8
0
70
0
10
122.483734
20
245.805054
30
28.841644
11
168.216843
21
262.263580
31
28.967360
12
163.135498
22
280.537262
32
59.801414
13
115.971115
23
265.612061
33
58.336143
0
3DFACE
8
0
70
0
10
125.636703
20
290.575195
30
0.398793
11
122.483734
21
245.805054
31
28.841644
12
115.971115
22
265.612061
32
58.336143
13
117.214035
23
310.664398
33
29.255833
0
3DFACE
8
0
70
0
10
160.977188
20
319.203613
30
34.077518
11
168.278854
21
300.336182
31
4.157714
12
125.636703
22
290.575195
32
0.398793
13
117.214035
23
310.664398
33
29.255833
0
3DFACE
8
0
70
0
10
168.216843
20
262.263580
30
28.967360
11
168.278854
21
300.336182
31
4.157714
12
160.977188
22
319.203613
32
34.077518
13
163.135498
23
280.537262
33
59.801414
0
3DFACE
8
0
70
0
10
172.233124
20
275.744720
30
65.086075
11
168.166779
21
292.559753
31
94.554283
12
102.522911
22
275.266571
32
89.152924
13
108.332520
23
256.972778
33
62.155754
0
3DFACE
8
0
70
0
10
108.332520
20
256.972778
30
62.155754
11
102.522911
21
275.266571
31
89.152924
12
100.218124
22
335.664948
32
48.259918
13
108.236458
23
317.423920
33
22.717125
0
3DFACE
8
0
70
0
10
160.975906
20
344.870209
30
57.646309
11
167.740555
21
327.713654
31
30.134367
12
108.236458
22
317.423920
32
22.717125
13
100.218124
23
335.664948
33
48.259918
0
3DFACE
8
0
70
0
10
172.233124
20
275.744720
30
65.086075
11
167.740555
21
327.713654
31
30.134367
12
160.975906
22
344.870209
32
57.646309
13
168.166779
23
292.559753
33
94.554283
0
3DFACE
8
0
70
0
10
172.233124
20
275.744720
30
65.086075
11
108.332520
21
256.972778
31
62.155754
12
115.971115
22
265.612061
32
58.336143
13
163.135498
23
280.537262
33
59.801414
0
3DFACE
8
0
70
0
10
168.166779
20
292.559753
30
94.554283
11
158.349854
21
297.747589
31
88.841103
12
109.999466
22
283.773865
32
85.380875
13
102.522911
23
275.266571
33
89.152924
0
3DFACE
8
0
70
0
10
108.332520
20
256.972778
30
62.155754
11
108.236458
21
317.423920
31
22.717125
12
117.214035
22
310.664398
32
29.255833
13
115.971115
23
265.612061
33
58.336143
0
3DFACE
8
0
70
0
10
102.522911
20
275.266571
30
89.152924
11
109.999466
21
283.773865
31
85.380875
12
109.675812
22
328.644257
32
55.082920
13
100.218124
23
335.664948
33
48.259918
0
3DFACE
8
0
70
0
10
160.975906
20
344.870209
30
57.646309
11
100.218124
21
335.664948
31
48.259918
12
109.675812
22
328.644257
32
55.082920
13
154.282028
23
336.503906
33
61.512226
0
3DFACE
8
0
70
0
10
167.740555
20
327.713654
30
30.134367
11
160.977188
21
319.203613
31
34.077518
12
117.214035
22
310.664398
32
29.255833
13
108.236458
23
317.423920
33
22.717125
0
3DFACE
8
0
70
0
10
168.166779
20
292.559753
30
94.554283
11
160.975906
21
344.870209
31
57.646309
12
154.282028
22
336.503906
32
61.512226
13
158.349854
23
297.747589
33
88.841103
0
3DFACE
8
0
70
0
10
172.233124
20
275.744720
30
65.086075
11
163.135498
21
280.537262
31
59.801414
12
160.977188
22
319.203613
32
34.077518
13
167.740555
23
327.713654
33
30.134367
0
3DFACE
8
0
70
0
10
135.591202
20
287.863892
30
73.393776
11
112.781212
21
305.757507
31
58.122540
12
109.999466
22
283.773865
32
85.380875
13
158.349854
23
297.747589
33
88.841103
0
3DFACE
8
0
70
0
10
112.781212
20
305.757507
30
58.122540
11
142.557541
21
324.347107
31
54.985184
12
109.675812
22
328.644257
32
55.082920
13
109.999466
23
283.773865
33
85.380875
0
3DFACE
8
0
70
0
10
160.313980
20
305.757507
30
69.293777
11
154.282028
21
336.503906
31
61.512226
12
109.675812
22
328.644257
32
55.082920
13
142.557541
23
324.347107
33
54.985184
0
3DFACE
8
0
70
0
10
135.591202
20
287.863892
30
73.393776
11
158.349854
21
297.747589
31
88.841103
12
154.282028
22
336.503906
32
61.512226
13
160.313980
23
305.757507
33
69.293777
0
3DFACE
8
0
70
0
10
78.067848
20
316.338745
30
100.531105
11
78.919411
21
325.953796
31
95.290314
12
81.705650
22
320.627106
32
83.809311
13
80.748405
23
311.003418
33
89.005577
0
3DFACE
8
0
70
0
10
78.919411
20
325.953796
30
95.290314
11
80.558701
21
335.934113
31
90.094528
12
83.219963
22
330.615082
32
78.601585
13
81.705650
23
320.627106
33
83.809311
0
3DFACE
8
0
70
0
10
166.064438
20
320.187531
30
101.308578
11
160.313980
21
305.757507
31
69.293777
12
142.557541
22
324.347107
32
54.985184
13
139.511734
23
338.756470
33
84.888687
0
3DFACE
8
0
70
0
10
131.423752
20
302.317413
30
103.127457
11
135.591202
21
287.863892
31
73.393776
12
160.313980
22
305.757507
32
69.293777
13
166.064438
23
320.187531
33
101.308578
0
3DFACE
8
0
70
0
10
116.250587
20
340.503723
30
158.538254
11
102.054321
21
349.963043
31
149.418365
12
101.887154
22
327.550476
32
99.432213
13
131.423752
23
302.317413
33
103.127457
0
3DFACE
8
0
70
0
10
102.054321
20
349.963043
30
149.418365
11
121.112114
21
359.822083
31
148.043137
12
139.511734
22
338.756470
32
84.888687
13
101.887154
23
327.550476
33
99.432213
0
3DFACE
8
0
70
0
10
136.565155
20
344.440857
30
147.624176
11
166.064438
21
320.187531
31
101.308578
12
139.511734
22
338.756470
32
84.888687
13
121.112114
23
359.822083
33
148.043137
0
3DFACE
8
0
70
0
10
116.250587
20
340.503723
30
158.538254
11
131.423752
21
302.317413
31
103.127457
12
166.064438
22
320.187531
32
101.308578
13
136.565155
23
344.440857
33
147.624176
0
3DFACE
8
0
70
0
10
78.067848
20
316.338745
30
100.531105
11
80.748405
21
311.003418
31
89.005577
12
135.591202
22
287.863892
32
73.393776
13
131.423752
23
302.317413
33
103.127457
0
3DFACE
8
0
70
0
10
80.748405
20
311.003418
30
89.005577
11
81.705650
21
320.627106
31
83.809311
12
112.781212
22
305.757507
32
58.122540
13
135.591202
23
287.863892
33
73.393776
0
3DFACE
8
0
70
0
10
78.067848
20
316.338745
30
100.531105
11
131.423752
21
302.317413
31
103.127457
12
101.887154
22
327.550476
32
99.432213
13
78.919411
23
325.953796
33
95.290314
0
3DFACE
8
0
70
0
10
81.705650
20
320.627106
30
83.809311
11
83.219963
21
330.615082
31
78.601585
12
142.557541
22
324.347107
32
54.985184
13
112.781212
23
305.757507
33
58.122540
0
3DFACE
8
0
70
0
10
80.558701
20
335.934113
30
90.094528
11
139.511734
21
338.756470
31
84.888687
12
142.557541
22
324.347107
32
54.985184
13
83.219963
23
330.615082
33
78.601585
0
3DFACE
8
0
70
0
10
78.919411
20
325.953796
30
95.290314
11
101.887154
21
327.550476
31
99.432213
12
139.511734
22
338.756470
32
84.888687
13
80.558701
23
335.934113
33
90.094528
0
3DFACE
8
0
70
0
10
-13.999302
20
-25.000450
30
81.095100
11
-78.507271
21
-23.186157
31
52.636925
12
-98.076263
22
-40.512115
32
21.618273
13
-67.322319
23
-32.905411
33
57.178444
0
3DFACE
8
0
70
0
10
-71.172951
20
-29.937363
30
-69.277153
11
-3.640275
21
-34.535896
31
-91.097015
12
-23.901548
22
-44.697876
32
-59.452393
13
-69.852760
23
-48.177216
33
-54.191772
0
3DFACE
8
0
70
0
10
-15.485321
20
-30.733734
30
101.851265
11
-100.916931
21
-28.440346
31
66.397835
12
-78.507271
22
-23.186157
32
52.636925
13
-13.999302
23
-25.000450
33
81.095100
0
3DFACE
8
0
70
0
10
-91.635124
20
-36.984207
30
-87.888260
11
-2.583612
21
-42.609711
31
-112.606407
12
-3.640275
22
-34.535896
32
-91.097015
13
-71.172951
23
-29.937363
33
-69.277153
0
3DFACE
8
0
70
0
10
-16.113869
20
-26.462555
30
114.350700
11
-14.397932
21
28.417023
31
117.193825
12
-119.333328
22
30.179688
32
76.554504
13
-106.602921
23
-24.234566
33
74.656044
0
3DFACE
8
0
70
0
10
-96.114487
20
-33.889130
30
-99.687233
11
-108.844887
21
20.525116
31
-97.788780
12
0.175070
22
15.002975
32
-125.143806
13
-1.534938
23
-39.882416
33
-127.986465
0
3DFACE
8
0
70
0
10
-14.397932
20
28.417023
30
117.193825
11
-13.620159
21
28.918427
31
104.941643
12
-112.705650
22
30.677490
32
68.590652
13
-119.333328
23
30.179688
33
76.554504
0
3DFACE
8
0
70
0
10
-16.113869
20
-26.462555
30
114.350700
11
-106.602921
21
-24.234566
31
74.656044
12
-100.916931
22
-28.440346
32
66.397835
13
-15.485321
23
-30.733734
33
101.851265
0
3DFACE
8
0
70
0
10
-108.844887
20
20.525116
30
-97.788780
11
-103.423843
21
22.133636
31
-85.695435
12
-0.938737
22
17.249207
32
-109.521461
13
0.175070
23
15.002975
33
-125.143806
0
3DFACE
8
0
70
0
10
-96.114487
20
-33.889130
30
-99.687233
11
-1.534938
21
-39.882416
31
-127.986465
12
-2.583612
22
-42.609711
32
-112.606407
13
-91.635124
23
-36.984207
33
-87.888260
0
3DFACE
8
0
70
0
10
-31.473774
20
-119.444244
30
102.617195
11
-37.787899
21
-98.998032
31
87.801697
12
-70.777412
22
-98.812729
32
87.801697
13
-78.613716
23
-119.444244
33
102.617195
0
3DFACE
8
0
70
0
10
-78.507271
20
-23.186157
30
52.636925
11
-90.758896
21
-25.941711
31
-7.968833
12
-93.844719
22
-49.477234
32
-18.764481
13
-98.076263
23
-40.512115
33
21.618273
0
3DFACE
8
0
70
0
10
-100.916931
20
-28.440346
30
66.397835
11
-117.556763
21
-31.867325
31
-9.973353
12
-90.758896
22
-25.941711
32
-7.968833
13
-78.507271
23
-23.186157
33
52.636925
0
3DFACE
8
0
70
0
10
-119.333328
20
30.179688
30
76.554504
11
-140.162338
21
26.449295
31
-8.510416
12
-124.060196
22
-28.081223
32
-10.199594
13
-106.602921
23
-24.234566
33
74.656044
0
3DFACE
8
0
70
0
10
-140.162338
20
26.449295
30
-8.510416
11
-119.333328
21
30.179688
31
76.554504
12
-112.705650
22
30.677490
32
68.590652
13
-132.518753
23
27.359940
33
-7.977494
0
3DFACE
8
0
70
0
10
-106.602921
20
-24.234566
30
74.656044
11
-124.060196
21
-28.081223
31
-10.199594
12
-117.556763
22
-31.867325
32
-9.973353
13
-100.916931
23
-28.440346
33
66.397835
0
3DFACE
8
0
70
0
10
-16.706890
20
-152.844193
30
102.617195
11
-31.473774
21
-119.444244
31
102.617195
12
-78.613716
22
-119.444244
32
102.617195
13
-83.890282
23
-153.029510
33
102.617195
0
3DFACE
8
0
70
0
10
-2.324984
20
180.977417
30
4.995803
11
-0.983255
21
160.106445
31
-46.130695
12
-56.006145
22
152.701385
32
-39.000061
13
-63.519073
23
162.280884
33
0.233380
0
3DFACE
8
0
70
0
10
-90.758896
20
-25.941711
30
-7.968833
11
-71.172951
21
-29.937363
31
-69.277153
12
-69.852760
22
-48.177216
32
-54.191772
13
-93.844719
23
-49.477234
33
-18.764481
0
3DFACE
8
0
70
0
10
-117.556763
20
-31.867325
30
-9.973353
11
-91.635124
21
-36.984207
31
-87.888260
12
-71.172951
22
-29.937363
32
-69.277153
13
-90.758896
23
-25.941711
33
-7.968833
0
3DFACE
8
0
70
0
10
-124.060196
20
-28.081223
30
-10.199594
11
-140.162338
21
26.449295
31
-8.510416
12
-108.844887
22
20.525116
32
-97.788780
13
-96.114487
23
-33.889130
33
-99.687233
0
3DFACE
8
0
70
0
10
-108.844887
20
20.525116
30
-97.788780
11
-140.162338
21
26.449295
31
-8.510416
12
-132.518753
22
27.359940
32
-7.977494
13
-103.423843
23
22.133636
33
-85.695435
0
3DFACE
8
0
70
0
10
-124.060196
20
-28.081223
30
-10.199594
11
-96.114487
21
-33.889130
31
-99.687233
12
-91.635124
22
-36.984207
32
-87.888260
13
-117.556763
23
-31.867325
33
-9.973353
0
3DFACE
8
0
70
0
10
-57.880718
20
-49.368675
30
25.274681
11
-39.232517
21
-50.705093
31
5.059518
12
-38.594269
22
-41.491989
32
3.060176
13
-67.322319
23
-32.905411
33
57.178444
0
3DFACE
8
0
70
0
10
-57.880718
20
-49.368675
30
25.274681
11
-67.322319
21
-32.905411
31
57.178444
12
-98.076263
22
-40.512115
32
21.618273
13
-90.900871
23
-58.247887
33
-2.587649
0
3DFACE
8
0
70
0
10
-90.900871
20
-58.247887
30
-2.587649
11
-98.076263
21
-40.512115
31
21.618273
12
-93.844719
22
-49.477234
32
-18.764481
13
-92.802101
23
-62.045113
33
-22.792576
0
3DFACE
8
0
70
0
10
-39.232517
20
-50.705093
30
5.059518
11
-34.077065
21
-55.125496
31
-23.459908
12
-23.901548
22
-44.697876
32
-59.452393
13
-38.594269
23
-41.491989
33
3.060176
0
3DFACE
8
0
70
0
10
-92.802101
20
-62.045113
30
-22.792576
11
-93.844719
21
-49.477234
31
-18.764481
12
-69.852760
22
-48.177216
32
-54.191772
13
-75.428497
23
-61.989822
33
-34.265133
0
3DFACE
8
0
70
0
10
-75.428497
20
-61.989822
30
-34.265133
11
-69.852760
21
-48.177216
31
-54.191772
12
-23.901548
22
-44.697876
32
-59.452393
13
-34.077065
23
-55.125496
33
-23.459908
0
3DFACE
8
0
70
0
10
-34.155815
20
-121.560852
30
1.867611
11
-51.873253
21
-94.199348
31
22.718893
12
-37.787899
22
-108.736435
32
35.947453
13
-31.473774
23
-127.827744
33
43.725594
0
3DFACE
8
0
70
0
10
-51.873253
20
-94.199348
30
22.718893
11
-79.349899
21
-105.487831
31
1.479903
12
-70.777412
22
-112.334427
32
35.947453
13
-37.787899
23
-108.736435
33
35.947453
0
3DFACE
8
0
70
0
10
-79.568108
20
-128.716049
30
-16.389364
11
-78.613716
21
-127.827744
31
43.725594
12
-70.777412
22
-112.334427
32
35.947453
13
-79.349899
23
-105.487831
33
1.479903
0
3DFACE
8
0
70
0
10
-7.027210
20
-149.288849
30
-16.972065
11
-34.155815
21
-121.560852
31
1.867611
12
-31.473774
22
-127.827744
32
43.725594
13
-20.410763
23
-150.617310
33
32.613968
0
3DFACE
8
0
70
0
10
-74.723053
20
-158.585342
30
-42.241966
11
-87.594154
21
-150.723206
31
36.317848
12
-78.613716
22
-127.827744
32
43.725594
13
-79.568108
23
-128.716049
33
-16.389364
0
3DFACE
8
0
70
0
10
-74.723053
20
-158.585342
30
-42.241966
11
-7.027210
21
-149.288849
31
-16.972065
12
-20.410763
22
-150.617310
32
32.613968
13
-87.594154
23
-150.723206
33
36.317848
0
3DFACE
8
0
70
0
10
-31.473774
20
-119.444244
30
102.617195
11
-31.473774
21
-127.827744
31
43.725594
12
-37.787899
22
-108.736435
32
35.947453
13
-37.787899
23
-98.998032
33
87.801697
0
3DFACE
8
0
70
0
10
-37.787899
20
-98.998032
30
87.801697
11
-37.787899
21
-108.736435
31
35.947453
12
-70.777412
22
-112.334427
32
35.947453
13
-70.777412
23
-98.812729
33
87.801697
0
3DFACE
8
0
70
0
10
-78.613716
20
-119.444244
30
102.617195
11
-70.777412
21
-98.812729
31
87.801697
12
-70.777412
22
-112.334427
32
35.947453
13
-78.613716
23
-127.827744
33
43.725594
0
3DFACE
8
0
70
0
10
-16.706890
20
-152.844193
30
102.617195
11
-20.410763
21
-150.617310
31
32.613968
12
-31.473774
22
-127.827744
32
43.725594
13
-31.473774
23
-119.444244
33
102.617195
0
3DFACE
8
0
70
0
10
-83.890282
20
-153.029510
30
102.617195
11
-78.613716
21
-119.444244
31
102.617195
12
-78.613716
22
-127.827744
32
43.725594
13
-87.594154
23
-150.723206
33
36.317848
0
3DFACE
8
0
70
0
10
-83.890282
20
-153.029510
30
102.617195
11
-87.594154
21
-150.723206
31
36.317848
12
-20.410763
22
-150.617310
32
32.613968
13
-16.706890
23
-152.844193
33
102.617195
0
3DFACE
8
0
70
0
10
-251.992416
20
356.552887
30
146.238831
11
-234.571701
21
364.801575
31
144.607010
12
-249.267624
22
373.249084
32
131.379730
13
-262.988861
23
357.314117
33
125.603943
0
3DFACE
8
0
70
0
10
-87.062393
20
141.250061
30
-32.363079
11
-63.519073
21
162.280884
31
0.233380
12
-56.006145
22
152.701385
32
-39.000061
13
-56.006145
23
152.701385
33
-39.000061
0
3DFACE
8
0
70
0
10
-87.033012
20
146.051025
30
44.971115
11
-60.859634
21
134.726440
31
56.426826
12
-63.519073
22
162.280884
32
0.233380
13
-63.519073
23
162.280884
33
0.233380
0
3DFACE
8
0
70
0
10
-172.834885
20
253.228760
30
55.339100
11
-193.798126
21
275.471497
31
74.586464
12
-233.687668
22
261.654022
32
48.754471
13
-211.580292
23
241.375183
33
28.493181
0
3DFACE
8
0
70
0
10
-176.964401
20
286.344360
30
13.991704
11
-196.341827
21
309.836151
31
33.482651
12
-193.798126
22
275.471497
32
74.586464
13
-172.834885
23
253.228760
33
55.339100
0
3DFACE
8
0
70
0
10
-233.177307
20
292.886078
30
14.319590
11
-196.341827
21
309.836151
31
33.482651
12
-176.964401
22
286.344360
32
13.991704
13
-212.904465
23
270.948669
33
-5.984382
0
3DFACE
8
0
70
0
10
-211.580292
20
241.375183
30
28.493181
11
-233.687668
21
261.654022
31
48.754471
12
-233.177307
22
292.886078
32
14.319590
13
-212.904465
23
270.948669
33
-5.984382
0
3DFACE
8
0
70
0
10
-241.125641
20
253.023071
30
50.715534
11
-187.129791
21
272.870789
31
84.401970
12
-206.491623
22
293.281311
32
101.888901
13
-262.534058
23
271.426666
33
69.967598
0
3DFACE
8
0
70
0
10
-187.129791
20
272.870789
30
84.401970
11
-189.069839
21
319.932007
31
29.709803
12
-206.020447
22
341.419067
32
47.043209
13
-206.491623
23
293.281311
33
101.888901
0
3DFACE
8
0
70
0
10
-257.636536
20
315.899017
30
23.615490
11
-206.020447
21
341.419067
31
47.043209
12
-189.069839
22
319.932007
32
29.709803
13
-239.110321
23
295.858063
33
4.849689
0
3DFACE
8
0
70
0
10
-241.125641
20
253.023071
30
50.715534
11
-262.534058
21
271.426666
31
69.967598
12
-257.636536
22
315.899017
32
23.615490
13
-239.110321
23
295.858063
33
4.849689
0
3DFACE
8
0
70
0
10
-241.125641
20
253.023071
30
50.715534
11
-233.687668
21
261.654022
31
48.754471
12
-193.798126
22
275.471497
32
74.586464
13
-187.129791
23
272.870789
33
84.401970
0
3DFACE
8
0
70
0
10
-262.534058
20
271.426666
30
69.967598
11
-206.491623
21
293.281311
31
101.888901
12
-213.020203
22
295.866730
32
92.235168
13
-254.508530
23
280.752777
33
67.836662
0
3DFACE
8
0
70
0
10
-187.129791
20
272.870789
30
84.401970
11
-193.798126
21
275.471497
31
74.586464
12
-196.341827
22
309.836151
32
33.482651
13
-189.069839
23
319.932007
33
29.709803
0
3DFACE
8
0
70
0
10
-206.491623
20
293.281311
30
101.888901
11
-206.020447
21
341.419067
31
47.043209
12
-213.684708
22
330.861298
32
50.927044
13
-213.020203
23
295.866730
33
92.235168
0
3DFACE
8
0
70
0
10
-257.636536
20
315.899017
30
23.615490
11
-251.766342
21
313.001343
31
32.937126
12
-213.684708
22
330.861298
32
50.927044
13
-206.020447
23
341.419067
33
47.043209
0
3DFACE
8
0
70
0
10
-239.110321
20
295.858063
30
4.849689
11
-189.069839
21
319.932007
31
29.709803
12
-196.341827
22
309.836151
32
33.482651
13
-233.177307
23
292.886078
33
14.319590
0
3DFACE
8
0
70
0
10
-262.534058
20
271.426666
30
69.967598
11
-254.508530
21
280.752777
31
67.836662
12
-251.766342
22
313.001343
32
32.937126
13
-257.636536
23
315.899017
33
23.615490
0
3DFACE
8
0
70
0
10
-241.125641
20
253.023071
30
50.715534
11
-239.110321
21
295.858063
31
4.849689
12
-233.177307
22
292.886078
32
14.319590
13
-233.687668
23
261.654022
33
48.754471
0
3DFACE
8
0
70
0
10
-231.138794
20
286.388306
30
69.620163
11
-254.508530
21
280.752777
31
67.836662
12
-213.020203
22
295.866730
32
92.235168
13
-203.168411
23
299.810272
33
72.697357
0
3DFACE
8
0
70
0
10
-203.168411
20
299.810272
30
72.697357
11
-213.020203
21
295.866730
31
92.235168
12
-213.684708
22
330.861298
32
50.927044
13
-218.446304
23
317.901825
33
48.815952
0
3DFACE
8
0
70
0
10
-242.485855
20
303.465912
30
48.531384
11
-218.446304
21
317.901825
31
48.815952
12
-213.684708
22
330.861298
32
50.927044
13
-251.766342
23
313.001343
33
32.937126
0
3DFACE
8
0
70
0
10
-231.138794
20
286.388306
30
69.620163
11
-242.485855
21
303.465912
31
48.531384
12
-251.766342
22
313.001343
32
32.937126
13
-254.508530
23
280.752777
33
67.836662
0
3DFACE
8
0
70
0
10
-190.206268
20
323.725647
30
123.621613
11
-186.602707
21
316.164520
31
113.705338
12
-184.029984
22
324.561523
32
107.117134
13
-187.521240
23
332.111023
33
117.055260
0
3DFACE
8
0
70
0
10
-187.521240
20
332.111023
30
117.055260
11
-184.029984
21
324.561523
31
107.117134
12
-181.897614
22
333.285553
32
100.151688
13
-185.500916
23
340.823547
33
110.033852
0
3DFACE
8
0
70
0
10
-264.439880
20
323.231781
30
76.209099
11
-232.144897
21
339.640686
31
73.517166
12
-218.446304
22
317.901825
32
48.815952
13
-242.485855
23
303.465912
33
48.531384
0
3DFACE
8
0
70
0
10
-237.359100
20
307.796600
30
99.682808
11
-264.439880
21
323.231781
31
76.209099
12
-242.485855
22
303.465912
32
48.531384
13
-231.138794
23
286.388306
33
69.620163
0
3DFACE
8
0
70
0
10
-251.992416
20
356.552887
30
146.238831
11
-237.359100
21
307.796600
31
99.682808
12
-208.974625
22
333.313080
32
107.807068
13
-234.571701
23
364.801575
33
144.607010
0
3DFACE
8
0
70
0
10
-234.571701
20
364.801575
30
144.607010
11
-208.974625
21
333.313080
31
107.807068
12
-232.144897
22
339.640686
32
73.517166
13
-249.267624
23
373.249084
33
131.379730
0
3DFACE
8
0
70
0
10
-262.988861
20
357.314117
30
125.603943
11
-249.267624
21
373.249084
31
131.379730
12
-232.144897
22
339.640686
32
73.517166
13
-264.439880
23
323.231781
33
76.209099
0
3DFACE
8
0
70
0
10
-251.992416
20
356.552887
30
146.238831
11
-262.988861
21
357.314117
31
125.603943
12
-264.439880
22
323.231781
32
76.209099
13
-237.359100
23
307.796600
33
99.682808
0
3DFACE
8
0
70
0
10
-190.206268
20
323.725647
30
123.621613
11
-237.359100
21
307.796600
31
99.682808
12
-231.138794
22
286.388306
32
69.620163
13
-186.602707
23
316.164520
33
113.705338
0
3DFACE
8
0
70
0
10
-186.602707
20
316.164520
30
113.705338
11
-231.138794
21
286.388306
31
69.620163
12
-203.168411
22
299.810272
32
72.697357
13
-184.029984
23
324.561523
33
107.117134
0
3DFACE
8
0
70
0
10
-190.206268
20
323.725647
30
123.621613
11
-187.521240
21
332.111023
31
117.055260
12
-208.974625
22
333.313080
32
107.807068
13
-237.359100
23
307.796600
33
99.682808
0
3DFACE
8
0
70
0
10
-184.029984
20
324.561523
30
107.117134
11
-203.168411
21
299.810272
31
72.697357
12
-218.446304
22
317.901825
32
48.815952
13
-181.897614
23
333.285553
33
100.151688
0
3DFACE
8
0
70
0
10
-185.500916
20
340.823547
30
110.033852
11
-181.897614
21
333.285553
31
100.151688
12
-218.446304
22
317.901825
32
48.815952
13
-232.144897
23
339.640686
33
73.517166
0
3DFACE
8
0
70
0
10
-187.521240
20
332.111023
30
117.055260
11
-185.500916
21
340.823547
31
110.033852
12
-232.144897
22
339.640686
32
73.517166
13
-208.974625
23
333.313080
33
107.807068
0
3DFACE
8
0
70
0
10
10.388433
20
-54.140625
30
-12.879742
11
-4.430999
21
-40.908524
31
46.777054
12
-13.999302
22
-25.000450
32
81.095100
13
-8.921531
23
-29.674522
33
-3.309759
0
3DFACE
8
0
70
0
10
10.388433
20
-54.140625
30
-12.879742
11
-8.921531
21
-29.674522
31
-3.309759
12
-3.640275
22
-34.535896
32
-91.097015
13
39.886551
23
-57.340538
33
-69.843590
0
3DFACE
8
0
70
0
10
-3.640275
20
-34.535896
30
-91.097015
11
-8.921531
21
-29.674522
31
-3.309759
12
-38.594269
22
-41.491989
32
3.060176
13
-23.901548
23
-44.697876
33
-59.452393
0
3DFACE
8
0
70
0
10
-8.921531
20
-29.674522
30
-3.309759
11
-13.999302
21
-25.000450
31
81.095100
12
-67.322319
22
-32.905411
32
57.178444
13
-38.594269
23
-41.491989
33
3.060176
0
3DFACE
8
0
70
0
10
1.583404
20
180.300293
30
122.611298
11
11.500761
21
183.037292
31
117.381271
12
16.852568
22
202.406494
32
122.216965
13
-2.417369
23
198.312500
33
128.666168
0
3DFACE
8
0
70
0
10
-2.417369
20
198.312500
30
128.666168
11
16.852568
21
202.406494
31
122.216965
12
8.087578
22
209.232727
32
121.019630
13
-4.979638
23
209.848267
33
124.536148
0
3DFACE
8
0
70
0
10
11.500761
20
183.037292
30
117.381271
11
13.131368
21
179.999847
31
104.511543
12
20.319714
22
200.636536
32
104.760262
13
16.852568
23
202.406494
33
122.216965
0
3DFACE
8
0
70
0
10
1.583404
20
180.300293
30
122.611298
11
2.542087
21
174.792542
31
110.431030
12
13.131368
22
179.999847
32
104.511543
13
11.500761
23
183.037292
33
117.381271
0
3DFACE
8
0
70
0
10
-4.979638
20
209.848267
30
124.536148
11
8.087578
21
209.232727
31
121.019630
12
9.771171
22
210.505096
32
104.835991
13
-5.532476
23
211.145599
33
110.144318
0
3DFACE
8
0
70
0
10
16.852568
20
202.406494
30
122.216965
11
20.319714
21
200.636536
31
104.760262
12
9.771171
22
210.505096
32
104.835991
13
8.087578
23
209.232727
33
121.019630
0
3DFACE
8
0
70
0
10
-3.646766
20
221.279541
30
106.276031
11
-1.585876
21
212.001038
31
107.318275
12
9.690365
22
212.100189
32
102.009949
13
6.767289
23
231.334290
33
104.268639
0
3DFACE
8
0
70
0
10
9.690365
20
212.100189
30
102.009949
11
18.809223
21
215.145935
31
95.723228
12
20.041019
22
226.544434
32
92.150620
13
6.767289
23
231.334290
33
104.268639
0
3DFACE
8
0
70
0
10
18.531313
20
162.719299
30
123.670204
11
10.549635
21
180.386719
31
112.725739
12
2.041036
22
177.048340
32
115.474304
13
5.893512
23
159.703827
33
124.353912
0
3DFACE
8
0
70
0
10
51.903194
20
187.379517
30
78.126740
11
47.965714
21
197.701202
31
77.948036
12
26.842335
22
185.729492
32
98.608398
13
38.730602
23
164.987793
33
104.917755
0
3DFACE
8
0
70
0
10
10.549635
20
180.386719
30
112.725739
11
18.531313
21
162.719299
31
123.670204
12
35.836475
22
168.807739
32
115.002640
13
24.840475
23
183.829590
33
112.608627
0
3DFACE
8
0
70
0
10
37.632515
20
227.919556
30
78.249641
11
48.932758
21
233.150146
31
77.739914
12
23.375555
22
232.522949
32
96.802124
13
23.804676
23
229.240997
33
94.976685
0
3DFACE
8
0
70
0
10
-8.390501
20
224.012939
30
112.074959
11
-7.982511
21
222.176086
31
109.102097
12
5.885889
22
232.964874
32
107.094673
13
6.937083
23
235.466888
33
108.592934
0
3DFACE
8
0
70
0
10
6.937083
20
235.466888
30
108.592934
11
5.885889
21
232.964874
31
107.094673
12
23.804676
22
229.240997
32
94.976685
13
23.375555
23
232.522949
33
96.802124
0
3DFACE
8
0
70
0
10
11.659592
20
133.743927
30
122.178642
11
26.616339
21
145.614929
31
115.812431
12
21.525429
22
153.858673
32
113.764580
13
8.509003
23
147.928436
33
119.235947
0
3DFACE
8
0
70
0
10
21.017179
20
91.614441
30
101.101166
11
38.178730
21
108.248505
31
97.859230
12
26.616339
22
145.614929
32
115.812431
13
11.659592
23
133.743927
33
122.178642
0
3DFACE
8
0
70
0
10
51.903194
20
187.379517
30
78.126740
11
38.730602
21
164.987793
31
104.917755
12
38.762260
22
161.694580
32
95.906570
13
57.978939
23
177.196594
33
81.297020
0
3DFACE
8
0
70
0
10
38.762260
20
161.694580
30
95.906570
11
55.512745
21
138.733826
31
66.107315
12
58.922569
22
169.861206
32
50.112885
13
57.978939
23
177.196594
33
81.297020
0
3DFACE
8
0
70
0
10
38.178730
20
108.248505
30
97.859230
11
55.512745
21
138.733826
31
66.107315
12
38.762260
22
161.694580
32
95.906570
13
26.616339
23
145.614929
33
115.812431
0
3DFACE
8
0
70
0
10
26.616339
20
145.614929
30
115.812431
11
38.762260
21
161.694580
31
95.906570
12
38.730602
22
164.987793
32
104.917755
13
21.525429
23
153.858673
33
113.764580
0
3DFACE
8
0
70
0
10
5.893512
20
159.703827
30
124.353912
11
8.509003
21
147.928436
31
119.235947
12
21.525429
22
153.858673
32
113.764580
13
18.531313
23
162.719299
33
123.670204
0
3DFACE
8
0
70
0
10
2.041036
20
177.048340
30
115.474304
11
10.549635
21
180.386719
31
112.725739
12
13.131368
22
179.999847
32
104.511543
13
2.542087
23
174.792542
33
110.431030
0
3DFACE
8
0
70
0
10
24.840475
20
183.829590
30
112.608627
11
26.842335
21
185.729492
31
98.608398
12
13.131368
22
179.999847
32
104.511543
13
10.549635
23
180.386719
33
112.725739
0
POINT
8
0
70
0
10
56.815311
20
172.140625
30
96.495132
0
3DFACE
8
0
70
0
10
18.531313
20
162.719299
30
123.670204
11
21.525429
21
153.858673
31
113.764580
12
38.730602
22
164.987793
32
104.917755
13
35.836475
23
168.807739
33
115.002640
0
3DFACE
8
0
70
0
10
35.836475
20
168.807739
30
115.002640
11
56.815311
21
172.140625
31
96.495132
12
24.840475
22
183.829590
32
112.608627
13
24.840475
23
183.829590
33
112.608627
0
3DFACE
8
0
70
0
10
24.840475
20
183.829590
30
112.608627
11
56.815311
21
172.140625
31
96.495132
12
26.842335
22
185.729492
32
98.608398
13
26.842335
23
185.729492
33
98.608398
0
3DFACE
8
0
70
0
10
56.815311
20
172.140625
30
96.495132
11
38.730602
21
164.987793
31
104.917755
12
26.842335
22
185.729492
32
98.608398
13
26.842335
23
185.729492
33
98.608398
0
3DFACE
8
0
70
0
10
38.730602
20
164.987793
30
104.917755
11
56.815311
21
172.140625
31
96.495132
12
35.836475
22
168.807739
32
115.002640
13
35.836475
23
168.807739
33
115.002640
0
3DFACE
8
0
70
0
10
48.932758
20
233.150146
30
77.739914
11
37.632515
21
227.919556
31
78.249641
12
51.293114
22
228.370728
32
41.261280
13
54.083370
23
231.053284
33
40.018829
0
3DFACE
8
0
70
0
10
37.632515
20
227.919556
30
78.249641
11
37.683643
21
218.591248
31
78.655991
12
54.368870
22
221.461273
32
42.462151
13
51.293114
23
228.370728
33
41.261280
0
3DFACE
8
0
70
0
10
37.683643
20
218.591248
30
78.655991
11
42.907623
21
206.333191
31
78.504814
12
57.250988
22
208.585938
32
44.641083
13
54.368870
23
221.461273
33
42.462151
0
3DFACE
8
0
70
0
10
54.083370
20
231.053284
30
40.018829
11
51.293114
21
228.370728
31
41.261280
12
35.300697
22
222.936707
32
14.896183
13
37.584080
23
224.583466
33
13.866787
0
3DFACE
8
0
70
0
10
54.368870
20
221.461273
30
42.462151
11
37.969044
21
221.587677
31
12.672509
12
35.300697
22
222.936707
32
14.896183
13
51.293114
23
228.370728
33
41.261280
0
3DFACE
8
0
70
0
10
57.250988
20
208.585938
30
44.641083
11
37.825851
21
209.573730
31
11.188781
12
37.969044
22
221.587677
32
12.672509
13
54.368870
23
221.461273
33
42.462151
0
3DFACE
8
0
70
0
10
37.584080
20
224.583466
30
13.866787
11
35.300697
21
222.936707
31
14.896183
12
-6.124316
22
213.810181
32
-2.275021
13
-6.287687
23
214.545715
33
-5.901319
0
3DFACE
8
0
70
0
10
37.969044
20
221.587677
30
12.672509
11
-5.681437
21
211.816254
31
-2.405132
12
-6.124316
22
213.810181
32
-2.275021
13
35.300697
23
222.936707
33
14.896183
0
3DFACE
8
0
70
0
10
37.825851
20
209.573730
30
11.188781
11
-2.672650
21
198.270203
31
-0.945824
12
-5.681437
22
211.816254
32
-2.405132
13
37.969044
23
221.587677
33
12.672509
0
3DFACE
8
0
70
0
10
58.922569
20
169.861206
30
50.112885
11
61.498642
21
187.449890
31
46.003769
12
51.903194
22
187.379517
32
78.126740
13
57.978939
23
177.196594
33
81.297020
0
3DFACE
8
0
70
0
10
42.907623
20
206.333191
30
78.504814
11
47.965714
21
197.701202
31
77.948036
12
57.250988
22
208.585938
32
44.641083
13
57.250988
23
208.585938
33
44.641083
0
3DFACE
8
0
70
0
10
51.903194
20
187.379517
30
78.126740
11
61.498642
21
187.449890
31
46.003769
12
57.250988
22
208.585938
32
44.641083
13
47.965714
23
197.701202
33
77.948036
0
3DFACE
8
0
70
0
10
61.498642
20
187.449890
30
46.003769
11
40.952271
21
191.842102
31
14.099627
12
37.825851
22
209.573730
32
11.188781
13
57.250988
23
208.585938
33
44.641083
0
3DFACE
8
0
70
0
10
40.952271
20
191.842102
30
14.099627
11
1.091540
21
181.323120
31
3.485336
12
-2.672650
22
198.270203
32
-0.945824
13
37.825851
23
209.573730
33
11.188781
0
3DFACE
8
0
70
0
10
-8.390501
20
224.012939
30
112.074959
11
6.937083
21
235.466888
31
108.592934
12
3.993177
22
257.728363
32
106.255333
13
-14.667708
23
252.274017
33
112.282356
0
3DFACE
8
0
70
0
10
-14.667708
20
252.274017
30
112.282356
11
3.993177
21
257.728363
31
106.255333
12
3.792268
22
260.425354
32
101.565422
13
-15.456396
23
255.824829
33
108.993706
0
3DFACE
8
0
70
0
10
6.937083
20
235.466888
30
108.592934
11
23.375555
21
232.522949
31
96.802124
12
30.051653
22
262.583771
32
92.966484
13
3.993177
23
257.728363
33
106.255333
0
3DFACE
8
0
70
0
10
3.993177
20
257.728363
30
106.255333
11
30.051653
21
262.583771
31
92.966484
12
28.172998
22
265.312195
32
88.605896
13
3.792268
23
260.425354
33
101.565422
0
3DFACE
8
0
70
0
10
23.375555
20
232.522949
30
96.802124
11
48.932758
21
233.150146
31
77.739914
12
46.930523
22
260.829163
32
61.730480
13
30.051653
23
262.583771
33
92.966484
0
3DFACE
8
0
70
0
10
30.051653
20
262.583771
30
92.966484
11
46.930523
21
260.829163
31
61.730480
12
37.926445
22
263.094452
32
60.679428
13
28.172998
23
265.312195
33
88.605896
0
3DFACE
8
0
70
0
10
48.932758
20
233.150146
30
77.739914
11
54.083370
21
231.053284
31
40.018829
12
51.295330
22
262.050049
32
35.851646
13
46.930523
23
260.829163
33
61.730480
0
3DFACE
8
0
70
0
10
46.930523
20
260.829163
30
61.730480
11
51.295330
21
262.050049
31
35.851646
12
44.329105
22
263.184875
32
37.509758
13
37.926445
23
263.094452
33
60.679428
0
3DFACE
8
0
70
0
10
54.083370
20
231.053284
30
40.018829
11
37.584080
21
224.583466
31
13.866787
12
32.422161
22
251.952454
32
12.511163
13
51.295330
23
262.050049
33
35.851646
0
3DFACE
8
0
70
0
10
51.295330
20
262.050049
30
35.851646
11
32.422161
21
251.952454
31
12.511163
12
26.128393
22
254.790222
32
16.319864
13
44.329105
23
263.184875
33
37.509758
0
3DFACE
8
0
70
0
10
37.584080
20
224.583466
30
13.866787
11
-6.287687
21
214.545715
31
-5.901319
12
-11.870606
22
239.680969
32
-7.526244
13
32.422161
23
251.952454
33
12.511163
0
3DFACE
8
0
70
0
10
32.422161
20
251.952454
30
12.511163
11
-11.870606
21
239.680969
31
-7.526244
12
-12.654600
22
243.210632
32
-2.974265
13
26.128393
23
254.790222
33
16.319864
0
3DFACE
8
0
70
0
10
58.922569
20
169.861206
30
50.112885
11
37.715561
21
171.786682
31
32.612549
12
40.952271
22
191.842102
32
14.099627
13
61.498642
23
187.449890
33
46.003769
0
3DFACE
8
0
70
0
10
37.715561
20
171.786682
30
32.612549
11
-0.218278
21
181.733765
31
8.846025
12
1.091540
22
181.323120
32
3.485336
13
40.952271
23
191.842102
33
14.099627
0
3DFACE
8
0
70
0
10
55.512745
20
138.733826
30
66.107315
11
33.230061
21
141.521515
31
60.839832
12
37.715561
22
171.786682
32
32.612549
13
58.922569
23
169.861206
33
50.112885
0
3DFACE
8
0
70
0
10
38.178730
20
108.248505
30
97.859230
11
35.667225
21
108.399811
31
81.952545
12
33.230061
22
141.521515
32
60.839832
13
55.512745
23
138.733826
33
66.107315
0
3DFACE
8
0
70
0
10
35.667225
20
108.399811
30
81.952545
11
18.507299
21
102.914368
31
77.656471
12
13.729071
22
124.426758
32
56.009392
13
33.230061
23
141.521515
33
60.839832
0
3DFACE
8
0
70
0
10
21.017179
20
91.614441
30
101.101166
11
18.507299
21
102.914368
31
77.656471
12
35.667225
22
108.399811
32
81.952545
13
35.667225
23
108.399811
33
81.952545
0
3DFACE
8
0
70
0
10
21.017179
20
91.614441
30
101.101166
11
35.667225
21
108.399811
31
81.952545
12
38.178730
22
108.248505
32
97.859230
13
38.178730
23
108.248505
33
97.859230
0
3DFACE
8
0
70
0
10
1.583404
20
180.300293
30
122.611298
11
-2.417369
21
198.312500
31
128.666168
12
-21.608517
22
193.863708
32
122.216965
13
-8.560094
23
178.581482
33
117.381271
0
3DFACE
8
0
70
0
10
-2.417369
20
198.312500
30
128.666168
11
-4.979638
21
209.848267
31
124.536148
12
-16.557552
22
203.758667
32
121.019630
13
-21.608517
23
193.863708
33
122.216965
0
3DFACE
8
0
70
0
10
-8.560094
20
178.581482
30
117.381271
11
-21.608517
21
193.863708
31
122.216965
12
-24.504799
22
190.680328
32
104.760262
13
-9.255961
23
175.027283
33
104.511543
0
3DFACE
8
0
70
0
10
1.583404
20
180.300293
30
122.611298
11
-8.560094
21
178.581482
31
117.381271
12
-9.255961
22
175.027283
32
104.511543
13
2.542087
23
174.792542
33
110.431030
0
3DFACE
8
0
70
0
10
-4.979638
20
209.848267
30
124.536148
11
-5.532476
21
211.145599
31
110.144318
12
-19.125948
22
204.086609
32
104.835991
13
-16.557552
23
203.758667
33
121.019630
0
3DFACE
8
0
70
0
10
-21.608517
20
193.863708
30
122.216965
11
-16.557552
21
203.758667
31
121.019630
12
-19.125948
22
204.086609
32
104.835991
13
-24.504799
23
190.680328
33
104.760262
0
3DFACE
8
0
70
0
10
-11.062791
20
219.510132
30
106.095718
11
-24.736942
21
225.048828
31
104.469688
12
-19.632277
22
206.214478
32
102.640160
13
-9.085889
23
210.609802
33
106.939919
0
3DFACE
8
0
70
0
10
-19.632277
20
206.214478
30
102.640160
11
-24.736942
21
225.048828
31
104.469688
12
-34.575485
22
214.290894
32
94.654114
13
-28.708158
23
205.155945
33
97.547935
0
3DFACE
8
0
70
0
10
-6.832529
20
157.085632
30
123.670204
11
5.893512
21
159.703827
31
124.353912
12
2.041036
22
177.048340
32
115.474304
13
-7.080772
23
176.470734
33
112.725739
0
3DFACE
8
0
70
0
10
-47.506168
20
165.299194
30
78.126740
11
-26.092819
21
150.589539
31
104.917755
12
-24.103283
22
174.413696
32
98.608406
13
-48.308563
23
176.317261
33
77.948036
0
3DFACE
8
0
70
0
10
-7.080772
20
176.470734
30
112.725739
11
-21.485348
21
173.539917
31
112.608627
12
-25.087976
22
155.275513
32
115.002640
13
-6.832529
23
157.085632
33
123.670204
0
3DFACE
8
0
70
0
10
-51.739780
20
208.068665
30
78.249641
11
-38.920311
21
215.308838
31
94.976685
12
-39.920929
22
218.463867
32
96.802116
13
-64.191765
23
208.023499
33
77.739914
0
3DFACE
8
0
70
0
10
-8.390501
20
224.012939
30
112.074959
11
-26.906738
21
228.776794
31
108.592934
12
-24.895187
22
226.955078
32
107.094673
13
-7.982511
23
222.176086
33
109.102097
0
3DFACE
8
0
70
0
10
-26.906738
20
228.776794
30
108.592934
11
-39.920929
21
218.463867
31
96.802116
12
-38.920311
22
215.308838
32
94.976685
13
-24.895187
23
226.955078
33
107.094673
0
3DFACE
8
0
70
0
10
11.659592
20
133.743927
30
122.178642
11
8.509003
21
147.928436
31
119.235947
12
-5.794009
22
147.790619
32
113.764580
13
-6.916268
23
138.166809
33
115.812431
0
3DFACE
8
0
70
0
10
21.017179
20
91.614441
30
101.101166
11
11.659592
21
133.743927
31
122.178642
12
-6.916268
22
138.166809
32
115.812431
13
-1.572578
23
99.419128
33
97.859230
0
3DFACE
8
0
70
0
10
-47.506168
20
165.299194
30
78.126740
11
-48.699718
21
153.501648
31
81.297028
12
-24.727331
22
147.592590
32
95.906570
13
-26.092819
23
150.589539
33
104.917755
0
3DFACE
8
0
70
0
10
-24.727331
20
147.592590
30
95.906570
11
-48.699718
21
153.501648
31
81.297028
12
-46.449230
22
146.456543
32
50.112885
13
-30.182449
23
119.699646
33
66.107315
0
3DFACE
8
0
70
0
10
-1.572578
20
99.419128
30
97.859230
11
-6.916268
21
138.166809
31
115.812431
12
-24.727331
22
147.592590
32
95.906570
13
-30.182449
23
119.699646
33
66.107315
0
3DFACE
8
0
70
0
10
-6.916268
20
138.166809
30
115.812431
11
-5.794009
21
147.790619
31
113.764580
12
-26.092819
22
150.589539
32
104.917755
13
-24.727331
23
147.592590
33
95.906570
0
3DFACE
8
0
70
0
10
5.893512
20
159.703827
30
124.353912
11
-6.832529
21
157.085632
31
123.670204
12
-5.794009
22
147.790619
32
113.764580
13
8.509003
23
147.928436
33
119.235947
0
3DFACE
8
0
70
0
10
2.041036
20
177.048340
30
115.474304
11
2.542087
21
174.792542
31
110.431030
12
-9.255961
22
175.027283
32
104.511543
13
-7.080772
23
176.470734
33
112.725739
0
3DFACE
8
0
70
0
10
-21.485348
20
173.539917
30
112.608627
11
-7.080772
21
176.470734
31
112.725739
12
-9.255961
22
175.027283
32
104.511543
13
-24.103283
23
174.413696
33
98.608406
0
POINT
8
0
70
0
10
-44.716862
20
149.588806
30
96.495132
0
3DFACE
8
0
70
0
10
-6.832529
20
157.085632
30
123.670204
11
-25.087976
21
155.275513
31
115.002640
12
-26.092819
22
150.589539
32
104.917755
13
-5.794009
23
147.790619
33
113.764580
0
3DFACE
8
0
70
0
10
-25.087976
20
155.275513
30
115.002640
11
-21.485348
21
173.539917
31
112.608627
12
-44.716862
22
149.588806
32
96.495132
13
-44.716862
23
149.588806
33
96.495132
0
3DFACE
8
0
70
0
10
-21.485348
20
173.539917
30
112.608627
11
-24.103283
21
174.413696
31
98.608406
12
-44.716862
22
149.588806
32
96.495132
13
-44.716862
23
149.588806
33
96.495132
0
3DFACE
8
0
70
0
10
-44.716862
20
149.588806
30
96.495132
11
-24.103283
21
174.413696
31
98.608406
12
-26.092819
22
150.589539
32
104.917755
13
-26.092819
23
150.589539
33
104.917755
0
3DFACE
8
0
70
0
10
-26.092819
20
150.589539
30
104.917755
11
-25.087976
21
155.275513
31
115.002640
12
-44.716862
22
149.588806
32
96.495132
13
-44.716862
23
149.588806
33
96.495132
0
3DFACE
8
0
70
0
10
-64.191765
20
208.023499
30
77.739914
11
-67.970375
21
203.943329
31
40.018829
12
-64.306831
22
202.694214
32
41.261280
13
-51.739780
23
208.068665
33
78.249641
0
3DFACE
8
0
70
0
10
-51.739780
20
208.068665
30
78.249641
11
-64.306831
21
202.694214
31
41.261280
12
-64.168312
22
195.132385
32
42.462151
13
-47.837013
23
199.595825
33
78.655991
0
3DFACE
8
0
70
0
10
-47.837013
20
199.595825
30
78.655991
11
-64.168312
21
195.132385
31
42.462151
12
-61.328724
22
182.247620
32
44.641083
13
-47.380394
23
186.278870
33
78.504814
0
3DFACE
8
0
70
0
10
-67.970375
20
203.943329
30
40.018829
11
-50.283569
21
205.066742
31
13.866788
12
-47.517750
22
204.541504
32
14.896184
13
-64.306831
23
202.694214
33
41.261280
0
3DFACE
8
0
70
0
10
-64.168312
20
195.132385
30
42.462151
11
-64.306831
21
202.694214
31
41.261280
12
-47.517750
22
204.541504
32
14.896184
13
-49.364094
23
202.189697
33
12.672509
0
3DFACE
8
0
70
0
10
-61.328724
20
182.247620
30
44.641083
11
-64.168312
21
195.132385
31
42.462151
12
-49.364094
22
202.189697
32
12.672509
13
-44.148335
23
191.366028
33
11.188781
0
3DFACE
8
0
70
0
10
-50.283569
20
205.066742
30
13.866788
11
-6.287687
21
214.545715
31
-5.901319
12
-6.124316
22
213.810181
32
-2.275021
13
-47.517750
23
204.541504
33
14.896184
0
3DFACE
8
0
70
0
10
-49.364094
20
202.189697
30
12.672509
11
-47.517750
21
204.541504
31
14.896184
12
-6.124316
22
213.810181
32
-2.275021
13
-5.681437
23
211.816254
33
-2.405132
0
3DFACE
8
0
70
0
10
-44.148335
20
191.366028
30
11.188781
11
-49.364094
21
202.189697
31
12.672509
12
-5.681437
22
211.816254
32
-2.405132
13
-2.672650
23
198.270203
33
-0.945824
0
3DFACE
8
0
70
0
10
-46.449230
20
146.456543
30
50.112885
11
-48.699718
21
153.501648
31
81.297028
12
-47.506168
22
165.299194
32
78.126740
13
-56.229126
23
161.300781
33
46.003773
0
3DFACE
8
0
70
0
10
-47.380394
20
186.278870
30
78.504814
11
-61.328724
21
182.247620
31
44.641083
12
-48.308563
22
176.317261
32
77.948036
13
-48.308563
23
176.317261
33
77.948036
0
3DFACE
8
0
70
0
10
-47.506168
20
165.299194
30
78.126740
11
-48.308563
21
176.317261
31
77.948036
12
-61.328724
22
182.247620
32
44.641083
13
-56.229126
23
161.300781
33
46.003773
0
3DFACE
8
0
70
0
10
-56.229126
20
161.300781
30
46.003773
11
-61.328724
21
182.247620
31
44.641083
12
-44.148335
22
191.366028
32
11.188781
13
-39.474197
23
173.978210
33
14.099627
0
3DFACE
8
0
70
0
10
-39.474197
20
173.978210
30
14.099627
11
-44.148335
21
191.366028
31
11.188781
12
-2.672650
22
198.270203
32
-0.945824
13
1.091540
23
181.323120
33
3.485336
0
3DFACE
8
0
70
0
10
-8.390501
20
224.012939
30
112.074959
11
-14.667708
21
252.274017
31
112.282356
12
-33.882954
22
249.315491
32
106.255333
13
-26.906738
23
228.776794
33
108.592934
0
3DFACE
8
0
70
0
10
-14.667708
20
252.274017
30
112.282356
11
-15.456396
21
255.824829
31
108.993706
12
-34.842697
22
251.843933
32
101.565422
13
-33.882954
23
249.315491
33
106.255333
0
3DFACE
8
0
70
0
10
-26.906738
20
228.776794
30
108.592934
11
-33.882954
21
249.315491
31
106.255333
12
-59.546631
22
242.682648
32
92.966484
13
-39.920929
23
218.463867
33
96.802116
0
3DFACE
8
0
70
0
10
-33.882954
20
249.315491
30
106.255333
11
-34.842697
21
251.843933
31
101.565422
12
-58.999695
22
245.949829
32
88.605896
13
-59.546631
23
242.682648
33
92.966484
0
3DFACE
8
0
70
0
10
-39.920929
20
218.463867
30
96.802116
11
-59.546631
21
242.682648
31
92.966484
12
-74.095558
22
233.947449
32
61.730480
13
-64.191765
23
208.023499
33
77.739914
0
3DFACE
8
0
70
0
10
-59.546631
20
242.682648
30
92.966484
11
-58.999695
21
245.949829
31
88.605896
12
-66.897148
22
239.811584
32
60.679428
13
-74.095558
23
233.947449
33
61.730480
0
3DFACE
8
0
70
0
10
-64.191765
20
208.023499
30
77.739914
11
-74.095558
21
233.947449
31
61.730480
12
-78.566795
22
233.205750
32
35.851646
13
-67.970375
23
203.943329
33
40.018829
0
3DFACE
8
0
70
0
10
-74.095558
20
233.947449
30
61.730480
11
-66.897148
21
239.811584
31
60.679428
12
-72.736031
22
237.182953
32
37.509758
13
-78.566795
23
233.205750
33
35.851646
0
3DFACE
8
0
70
0
10
-67.970375
20
203.943329
30
40.018829
11
-78.566795
21
233.205750
31
35.851646
12
-57.193539
22
232.047485
32
12.511164
13
-50.283569
23
205.066742
33
13.866788
0
3DFACE
8
0
70
0
10
-78.566795
20
233.205750
30
35.851646
11
-72.736031
21
237.182953
31
37.509758
12
-52.692936
22
237.282837
32
16.319864
13
-57.193539
23
232.047485
33
12.511164
0
3DFACE
8
0
70
0
10
-50.283569
20
205.066742
30
13.866788
11
-57.193539
21
232.047485
31
12.511164
12
-11.870606
22
239.680969
32
-7.526244
13
-6.287687
23
214.545715
33
-5.901319
0
3DFACE
8
0
70
0
10
-57.193539
20
232.047485
30
12.511164
11
-52.692936
21
237.282837
31
16.319864
12
-12.654600
22
243.210632
32
-2.974265
13
-11.870606
23
239.680969
33
-7.526244
0
3DFACE
8
0
70
0
10
-46.449230
20
146.456543
30
50.112885
11
-56.229126
21
161.300781
31
46.003773
12
-39.474197
22
173.978210
32
14.099627
13
-37.038605
23
166.665649
33
30.957460
0
3DFACE
8
0
70
0
10
-37.038605
20
166.665649
30
30.957460
11
-39.474197
21
173.978210
31
14.099627
12
1.091540
22
181.323120
32
3.485336
13
-0.218278
23
181.733765
33
8.846025
0
3DFACE
8
0
70
0
10
-30.182449
20
119.699646
30
66.107315
11
-46.449230
21
146.456543
31
50.112885
12
-37.038605
22
166.665649
32
30.957460
13
-28.125923
23
135.687866
33
58.954414
0
3DFACE
8
0
70
0
10
-1.572578
20
99.419128
30
97.859230
11
-30.182449
21
119.699646
31
66.107315
12
-28.125923
22
135.687866
32
58.954414
13
0.638711
23
100.619446
33
81.952545
0
3DFACE
8
0
70
0
10
0.638711
20
100.619446
30
81.952545
11
-28.125923
21
135.687866
31
58.954414
12
13.729071
22
124.426758
32
56.009392
13
18.507299
23
102.914368
33
77.656471
0
3DFACE
8
0
70
0
10
21.017179
20
91.614441
30
101.101166
11
0.638711
21
100.619446
31
81.952545
12
18.507299
22
102.914368
32
77.656471
13
18.507299
23
102.914368
33
77.656471
0
3DFACE
8
0
70
0
10
21.017179
20
91.614441
30
101.101166
11
-1.572578
21
99.419128
31
97.859230
12
0.638711
22
100.619446
32
81.952545
13
0.638711
23
100.619446
33
81.952545
0
3DFACE
8
0
70
0
10
-9.085889
20
210.609802
30
106.939919
11
-5.532476
21
211.145599
31
110.144318
12
-7.982511
22
222.176086
32
109.102097
13
-11.062791
23
219.510132
33
106.095718
0
3DFACE
8
0
70
0
10
-19.632277
20
206.214478
30
102.640160
11
-19.125948
21
204.086609
31
104.835991
12
-5.532476
22
211.145599
32
110.144318
13
-9.085889
23
210.609802
33
106.939919
0
3DFACE
8
0
70
0
10
-24.736942
20
225.048828
30
104.469688
11
-11.062791
21
219.510132
31
106.095718
12
-7.982511
22
222.176086
32
109.102097
13
-24.895187
23
226.955078
33
107.094673
0
3DFACE
8
0
70
0
10
-19.632277
20
206.214478
30
102.640160
11
-28.708158
21
205.155945
31
97.547935
12
-31.079002
22
202.743774
32
98.549278
13
-19.125948
23
204.086609
33
104.835991
0
3DFACE
8
0
70
0
10
-28.708158
20
205.155945
30
97.547935
11
-34.575485
21
214.290894
31
94.654114
12
-38.920311
22
215.308838
32
94.976685
13
-31.079002
23
202.743774
33
98.549278
0
3DFACE
8
0
70
0
10
-24.736942
20
225.048828
30
104.469688
11
-24.895187
21
226.955078
31
107.094673
12
-38.920311
22
215.308838
32
94.976685
13
-34.575485
23
214.290894
33
94.654114
0
3DFACE
8
0
70
0
10
6.767289
20
231.334290
30
104.268639
11
5.885889
21
232.964874
31
107.094673
12
-7.982511
22
222.176086
32
109.102097
13
-3.646766
23
221.279541
33
106.276031
0
3DFACE
8
0
70
0
10
9.690365
20
212.100189
30
102.009949
11
-1.585876
21
212.001038
31
107.318275
12
-5.532476
22
211.145599
32
110.144318
13
9.771171
23
210.505096
33
104.835991
0
3DFACE
8
0
70
0
10
-1.585876
20
212.001038
30
107.318275
11
-3.646766
21
221.279541
31
106.276031
12
-7.982511
22
222.176086
32
109.102097
13
-5.532476
23
211.145599
33
110.144318
0
3DFACE
8
0
70
0
10
6.767289
20
231.334290
30
104.268639
11
20.041019
21
226.544434
31
92.150620
12
23.804676
22
229.240997
32
94.976685
13
5.885889
23
232.964874
33
107.094673
0
3DFACE
8
0
70
0
10
18.809223
20
215.145935
30
95.723228
11
22.020042
21
214.537872
31
98.549278
12
23.804676
22
229.240997
32
94.976685
13
20.041019
23
226.544434
33
92.150620
0
3DFACE
8
0
70
0
10
9.690365
20
212.100189
30
102.009949
11
9.771171
21
210.505096
31
104.835991
12
22.020042
22
214.537872
32
98.549278
13
18.809223
23
215.145935
33
95.723228
0
3DFACE
8
0
70
0
10
-0.218278
20
181.733765
30
8.846025
11
37.715561
21
171.786682
31
32.612549
12
59.146637
22
158.738342
32
5.251740
13
-2.324984
23
180.977417
33
4.995803
0
3DFACE
8
0
70
0
10
-2.324984
20
180.977417
30
4.995803
11
-63.519073
21
162.280884
31
0.233380
12
-37.038605
22
166.665649
32
30.957460
13
-0.218278
23
181.733765
33
8.846025
0
3DFACE
8
0
70
0
10
-63.519073
20
162.280884
30
0.233380
11
-60.859634
21
134.726440
31
56.426826
12
-37.038605
22
166.665649
32
30.957460
13
-37.038605
23
166.665649
33
30.957460
0
3DFACE
8
0
70
0
10
-60.859634
20
134.726440
30
56.426826
11
-28.125923
21
135.687866
31
58.954414
12
-37.038605
22
166.665649
32
30.957460
13
-37.038605
23
166.665649
33
30.957460
0
3DFACE
8
0
70
0
10
48.475937
20
131.792267
30
61.708347
11
37.715561
21
171.786682
31
32.612549
12
33.230061
22
141.521515
32
60.839832
13
33.230061
23
141.521515
33
60.839832
0
3DFACE
8
0
70
0
10
59.146637
20
158.738342
30
5.251740
11
37.715561
21
171.786682
31
32.612549
12
48.475937
22
131.792267
32
61.708347
13
48.475937
23
131.792267
33
61.708347
0
3DFACE
8
0
70
0
10
-7.884793
20
126.730896
30
66.879181
11
-28.125923
21
135.687866
31
58.954414
12
-60.859634
22
134.726440
32
56.426826
13
-60.859634
23
134.726440
33
56.426826
0
3DFACE
8
0
70
0
10
13.729071
20
124.426758
30
56.009392
11
-28.125923
21
135.687866
31
58.954414
12
-7.884793
22
126.730896
32
66.879181
13
-7.884793
23
126.730896
33
66.879181
0
3DFACE
8
0
70
0
10
13.729071
20
124.426758
30
56.009392
11
-7.884793
21
126.730896
31
66.879181
12
33.230061
22
141.521515
32
60.839832
13
33.230061
23
141.521515
33
60.839832
0
3DFACE
8
0
70
0
10
-7.884793
20
126.730896
30
66.879181
11
48.475937
21
131.792267
31
61.708347
12
33.230061
22
141.521515
32
60.839832
13
33.230061
23
141.521515
33
60.839832
0
3DFACE
8
0
70
0
10
-12.654600
20
243.210632
30
-2.974265
11
-16.720072
21
296.511444
31
31.028940
12
-7.523397
22
305.989319
32
36.464851
13
26.128393
23
254.790222
33
16.319864
0
3DFACE
8
0
70
0
10
26.128393
20
254.790222
30
16.319864
11
-7.523397
21
305.989319
31
36.464851
12
-3.691858
22
313.531921
32
44.109531
13
44.329105
23
263.184875
33
37.509758
0
3DFACE
8
0
70
0
10
44.329105
20
263.184875
30
37.509758
11
-3.691858
21
313.531921
31
44.109531
12
-9.915910
22
314.506592
32
51.491848
13
37.926445
23
263.094452
33
60.679428
0
3DFACE
8
0
70
0
10
37.926445
20
263.094452
30
60.679428
11
-9.915910
21
314.506592
31
51.491848
12
-17.358524
22
315.896576
32
60.655556
13
28.172998
23
265.312195
33
88.605896
0
3DFACE
8
0
70
0
10
-15.456396
20
255.824829
30
108.993706
11
3.792268
21
260.425354
31
101.565422
12
-29.008860
22
311.230255
32
64.757530
13
-37.822105
23
307.168427
33
67.064438
0
3DFACE
8
0
70
0
10
-12.654600
20
243.210632
30
-2.974265
11
-52.692936
21
237.282837
31
16.319864
12
-31.672338
22
289.940277
32
35.421749
13
-16.720072
23
296.511444
33
31.028940
0
3DFACE
8
0
70
0
10
-52.692936
20
237.282837
30
16.319864
11
-72.736031
21
237.182953
31
37.509758
12
-44.047264
22
286.712280
32
42.366402
13
-31.672338
23
289.940277
33
35.421749
0
3DFACE
8
0
70
0
10
-72.736031
20
237.182953
30
37.509758
11
-66.897148
21
239.811584
31
60.679428
12
-46.563038
22
290.151428
32
49.908894
13
-44.047264
23
286.712280
33
42.366402
0
3DFACE
8
0
70
0
10
-66.897148
20
239.811584
30
60.679428
11
-58.999695
21
245.949829
31
88.605896
12
-49.955231
22
294.233246
32
59.247559
13
-46.563038
23
290.151428
33
49.908894
0
3DFACE
8
0
70
0
10
-15.456396
20
255.824829
30
108.993706
11
-37.822105
21
307.168427
31
67.064438
12
-43.565353
22
301.556213
32
64.128769
13
-34.842697
23
251.843933
33
101.565422
0
3DFACE
8
0
70
0
10
28.172998
20
265.312195
30
88.605896
11
-17.358524
21
315.896576
31
60.655556
12
-29.008860
22
311.230255
32
64.757530
13
3.792268
23
260.425354
33
101.565422
0
3DFACE
8
0
70
0
10
-58.999695
20
245.949829
30
88.605896
11
-34.842697
21
251.843933
31
101.565422
12
-43.565353
22
301.556213
32
64.128769
13
-49.955231
23
294.233246
33
59.247559
0
3DFACE
8
0
70
0
10
-52.101082
20
319.026398
30
-2.305613
11
-41.367077
21
329.441742
31
-9.602124
12
-48.500427
22
318.493011
32
-17.978239
13
-48.500427
23
318.493011
33
-17.978239
0
3DFACE
8
0
70
0
10
-39.689602
20
327.297119
30
5.075948
11
-41.367077
21
329.441742
31
-9.602124
12
-52.101082
22
319.026398
32
-2.305613
13
-52.101082
23
319.026398
33
-2.305613
0
3DFACE
8
0
70
0
10
-45.145466
20
314.203766
30
11.377964
11
-39.689602
21
327.297119
31
5.075948
12
-52.101082
22
319.026398
32
-2.305613
13
-52.101082
23
319.026398
33
-2.305613
0
3DFACE
8
0
70
0
10
-45.145466
20
314.203766
30
11.377964
11
-52.101082
21
319.026398
31
-2.305613
12
-52.278797
22
303.255066
32
3.001910
13
-52.278797
23
303.255066
33
3.001910
0
3DFACE
8
0
70
0
10
-52.278797
20
303.255066
30
3.001910
11
-52.101082
21
319.026398
31
-2.305613
12
-53.956272
22
305.399689
32
-11.676162
13
-53.956272
23
305.399689
33
-11.676162
0
3DFACE
8
0
70
0
10
-52.101082
20
319.026398
30
-2.305613
11
-48.500427
21
318.493011
31
-17.978239
12
-53.956272
22
305.399689
32
-11.676162
13
-53.956272
23
305.399689
33
-11.676162
0
3DFACE
8
0
70
0
10
-41.367077
20
329.441742
30
-9.602124
11
-26.364664
21
328.399872
31
-14.613497
12
-36.452724
22
312.916077
32
-26.459038
13
-48.500427
23
318.493011
33
-17.978239
0
3DFACE
8
0
70
0
10
-23.992344
20
325.366913
30
6.144511
11
-26.364664
21
328.399872
31
-14.613497
12
-41.367077
22
329.441742
32
-9.602124
13
-39.689602
23
327.297119
33
5.075948
0
3DFACE
8
0
70
0
10
-31.708092
20
306.850159
30
15.056890
11
-23.992344
21
325.366913
31
6.144511
12
-39.689602
22
327.297119
32
5.075948
13
-45.145466
23
314.203766
33
11.377964
0
3DFACE
8
0
70
0
10
-31.708092
20
306.850159
30
15.056890
11
-45.145466
21
314.203766
31
11.377964
12
-52.278797
22
303.255066
32
3.001910
13
-41.796154
23
291.366333
33
3.211380
0
3DFACE
8
0
70
0
10
-41.796154
20
291.366333
30
3.211380
11
-52.278797
21
303.255066
31
3.001910
12
-53.956272
22
305.399689
32
-11.676162
13
-44.168472
23
294.399292
33
-17.546629
0
3DFACE
8
0
70
0
10
-53.956272
20
305.399689
30
-11.676162
11
-48.500427
21
318.493011
31
-17.978239
12
-36.452724
22
312.916077
32
-26.459038
13
-44.168472
23
294.399292
33
-17.546629
0
3DFACE
8
0
70
0
10
-15.881995
20
316.511169
30
-14.403965
11
-23.015345
21
305.562439
31
-22.780081
12
-36.452724
22
312.916077
32
-26.459038
13
-26.364664
23
328.399872
33
-14.613497
0
3DFACE
8
0
70
0
10
-23.992344
20
325.366913
30
6.144511
11
-14.204518
21
314.366547
31
0.274106
12
-15.881995
22
316.511169
32
-14.403965
13
-26.364664
23
328.399872
33
-14.613497
0
3DFACE
8
0
70
0
10
-31.708092
20
306.850159
30
15.056890
11
-19.660383
21
301.273193
31
6.576122
12
-14.204518
22
314.366547
32
0.274106
13
-23.992344
23
325.366913
33
6.144511
0
3DFACE
8
0
70
0
10
-31.708092
20
306.850159
30
15.056890
11
-41.796154
21
291.366333
31
3.211380
12
-26.793713
22
290.324493
32
-1.799931
13
-19.660383
23
301.273193
33
6.576122
0
3DFACE
8
0
70
0
10
-41.796154
20
291.366333
30
3.211380
11
-44.168472
21
294.399292
31
-17.546629
12
-28.471189
22
292.469116
32
-16.478003
13
-26.793713
23
290.324493
33
-1.799931
0
3DFACE
8
0
70
0
10
-28.471189
20
292.469116
30
-16.478003
11
-44.168472
21
294.399292
31
-17.546629
12
-36.452724
22
312.916077
32
-26.459038
13
-23.015345
23
305.562439
33
-22.780081
0
3DFACE
8
0
70
0
10
-16.059721
20
300.739807
30
-9.096446
11
-23.015345
21
305.562439
31
-22.780081
12
-15.881995
22
316.511169
32
-14.403965
13
-15.881995
23
316.511169
33
-14.403965
0
3DFACE
8
0
70
0
10
-14.204518
20
314.366547
30
0.274106
11
-16.059721
21
300.739807
31
-9.096446
12
-15.881995
22
316.511169
32
-14.403965
13
-15.881995
23
316.511169
33
-14.403965
0
3DFACE
8
0
70
0
10
-19.660383
20
301.273193
30
6.576122
11
-16.059721
21
300.739807
31
-9.096446
12
-14.204518
22
314.366547
32
0.274106
13
-14.204518
23
314.366547
33
0.274106
0
3DFACE
8
0
70
0
10
-19.660383
20
301.273193
30
6.576122
11
-26.793713
21
290.324493
31
-1.799931
12
-16.059721
22
300.739807
32
-9.096446
13
-16.059721
23
300.739807
33
-9.096446
0
3DFACE
8
0
70
0
10
-26.793713
20
290.324493
30
-1.799931
11
-28.471189
21
292.469116
31
-16.478003
12
-16.059721
22
300.739807
32
-9.096446
13
-16.059721
23
300.739807
33
-9.096446
0
3DFACE
8
0
70
0
10
-16.059721
20
300.739807
30
-9.096446
11
-28.471189
21
292.469116
31
-16.478003
12
-23.015345
22
305.562439
32
-22.780081
13
-23.015345
23
305.562439
33
-22.780081
0
3DFACE
8
0
70
0
10
26.842335
20
185.729492
30
98.608398
11
47.965714
21
197.701202
31
77.948036
12
34.636623
22
203.659424
32
101.725830
13
34.636623
23
203.659424
33
101.725830
0
3DFACE
8
0
70
0
10
47.965714
20
197.701202
30
77.948036
11
42.907623
21
206.333191
31
78.504814
12
34.636623
22
203.659424
32
101.725830
13
34.636623
23
203.659424
33
101.725830
0
3DFACE
8
0
70
0
10
13.131368
20
179.999847
30
104.511543
11
26.842335
21
185.729492
31
98.608398
12
20.319714
22
200.636536
32
104.760262
13
20.319714
23
200.636536
33
104.760262
0
3DFACE
8
0
70
0
10
26.842335
20
185.729492
30
98.608398
11
34.636623
21
203.659424
31
101.725830
12
20.319714
22
200.636536
32
104.760262
13
20.319714
23
200.636536
33
104.760262
0
3DFACE
8
0
70
0
10
34.636623
20
203.659424
30
101.725830
11
42.907623
21
206.333191
31
78.504814
12
22.020042
22
214.537872
32
98.549278
13
22.020042
23
214.537872
33
98.549278
0
3DFACE
8
0
70
0
10
42.907623
20
206.333191
30
78.504814
11
37.683643
21
218.591248
31
78.655991
12
22.020042
22
214.537872
32
98.549278
13
22.020042
23
214.537872
33
98.549278
0
3DFACE
8
0
70
0
10
20.319714
20
200.636536
30
104.760262
11
22.020042
21
214.537872
31
98.549278
12
9.771171
22
210.505096
32
104.835991
13
9.771171
23
210.505096
33
104.835991
0
3DFACE
8
0
70
0
10
34.636623
20
203.659424
30
101.725830
11
22.020042
21
214.537872
31
98.549278
12
20.319714
22
200.636536
32
104.760262
13
20.319714
23
200.636536
33
104.760262
0
3DFACE
8
0
70
0
10
22.020042
20
214.537872
30
98.549278
11
37.683643
21
218.591248
31
78.655991
12
23.804676
22
229.240997
32
94.976685
13
23.804676
23
229.240997
33
94.976685
0
3DFACE
8
0
70
0
10
37.683643
20
218.591248
30
78.655991
11
37.632515
21
227.919556
31
78.249641
12
23.804676
22
229.240997
32
94.976685
13
23.804676
23
229.240997
33
94.976685
0
3DFACE
8
0
70
0
10
-48.308563
20
176.317261
30
77.948036
11
-38.755207
21
187.358032
31
101.725830
12
-47.380394
22
186.278870
32
78.504814
13
-47.380394
23
186.278870
33
78.504814
0
3DFACE
8
0
70
0
10
-24.103283
20
174.413696
30
98.608406
11
-38.755207
21
187.358032
31
101.725830
12
-48.308563
22
176.317261
32
77.948036
13
-48.308563
23
176.317261
33
77.948036
0
3DFACE
8
0
70
0
10
-24.103283
20
174.413696
30
98.608406
11
-24.504799
21
190.680328
31
104.760262
12
-38.755207
22
187.358032
32
101.725830
13
-38.755207
23
187.358032
33
101.725830
0
3DFACE
8
0
70
0
10
-9.255961
20
175.027283
30
104.511543
11
-24.504799
21
190.680328
31
104.760262
12
-24.103283
22
174.413696
32
98.608406
13
-24.103283
23
174.413696
33
98.608406
0
3DFACE
8
0
70
0
10
-47.380394
20
186.278870
30
78.504814
11
-31.079002
21
202.743774
31
98.549278
12
-47.837013
22
199.595825
32
78.655991
13
-47.837013
23
199.595825
33
78.655991
0
3DFACE
8
0
70
0
10
-38.755207
20
187.358032
30
101.725830
11
-31.079002
21
202.743774
31
98.549278
12
-47.380394
22
186.278870
32
78.504814
13
-47.380394
23
186.278870
33
78.504814
0
3DFACE
8
0
70
0
10
-24.504799
20
190.680328
30
104.760262
11
-19.125948
21
204.086609
31
104.835991
12
-31.079002
22
202.743774
32
98.549278
13
-31.079002
23
202.743774
33
98.549278
0
3DFACE
8
0
70
0
10
-38.755207
20
187.358032
30
101.725830
11
-24.504799
21
190.680328
31
104.760262
12
-31.079002
22
202.743774
32
98.549278
13
-31.079002
23
202.743774
33
98.549278
0
3DFACE
8
0
70
0
10
-47.837013
20
199.595825
30
78.655991
11
-38.920311
21
215.308838
31
94.976685
12
-51.739780
22
208.068665
32
78.249641
13
-51.739780
23
208.068665
33
78.249641
0
3DFACE
8
0
70
0
10
-31.079002
20
202.743774
30
98.549278
11
-38.920311
21
215.308838
31
94.976685
12
-47.837013
22
199.595825
32
78.655991
13
-47.837013
23
199.595825
33
78.655991
0
3DFACE
8
0
70
0
10
7.898410
20
-82.239975
30
27.391354
11
7.656790
21
-60.838272
31
11.753537
12
11.876763
22
-66.574402
32
-15.722109
13
11.876763
23
-66.574402
33
-15.722109
0
3DFACE
8
0
70
0
10
7.898410
20
-82.239975
30
27.391354
11
11.876763
21
-66.574402
31
-15.722109
12
10.905101
22
-85.744728
32
1.844511
13
10.905101
23
-85.744728
33
1.844511
0
3DFACE
8
0
70
0
10
7.898410
20
-82.239975
30
27.391354
11
49.087173
21
-52.783264
31
21.506945
12
7.656790
22
-60.838272
32
11.753537
13
7.656790
23
-60.838272
33
11.753537
0
3DFACE
8
0
70
0
10
7.898410
20
-82.239975
30
27.391354
11
43.624878
21
-75.220627
31
35.237015
12
49.087173
22
-52.783264
32
21.506945
13
49.087173
23
-52.783264
33
21.506945
0
3DFACE
8
0
70
0
10
43.624878
20
-75.220627
30
35.237015
11
65.762047
21
-52.933640
31
10.702659
12
49.087173
22
-52.783264
32
21.506945
13
49.087173
23
-52.783264
33
21.506945
0
3DFACE
8
0
70
0
10
43.624878
20
-75.220627
30
35.237015
11
58.204498
21
-74.452797
31
25.021935
12
65.762047
22
-52.933640
32
10.702659
13
65.762047
23
-52.933640
33
10.702659
0
3DFACE
8
0
70
0
10
28.475710
20
-85.954567
30
-17.730295
11
11.876763
21
-66.574402
31
-15.722109
12
30.659283
22
-68.917343
32
-37.329742
13
30.659283
23
-68.917343
33
-37.329742
0
3DFACE
8
0
70
0
10
10.905101
20
-85.744728
30
1.844511
11
11.876763
21
-66.574402
31
-15.722109
12
28.475710
22
-85.954567
32
-17.730295
13
28.475710
23
-85.954567
33
-17.730295
0
3DFACE
8
0
70
0
10
57.000126
20
-77.635109
30
5.907943
11
64.038795
21
-58.034653
31
-10.397188
12
65.762047
22
-52.933640
32
10.702659
13
65.762047
23
-52.933640
33
10.702659
0
3DFACE
8
0
70
0
10
58.204498
20
-74.452797
30
25.021935
11
57.000126
21
-77.635109
31
5.907943
12
65.762047
22
-52.933640
32
10.702659
13
65.762047
23
-52.933640
33
10.702659
0
3DFACE
8
0
70
0
10
28.475710
20
-85.954567
30
-17.730295
11
30.659283
21
-68.917343
31
-37.329742
12
64.038795
22
-58.034653
32
-10.397188
13
64.038795
23
-58.034653
33
-10.397188
0
3DFACE
8
0
70
0
10
57.000126
20
-77.635109
30
5.907943
11
28.475710
21
-85.954567
31
-17.730295
12
64.038795
22
-58.034653
32
-10.397188
13
64.038795
23
-58.034653
33
-10.397188
0
3DFACE
8
0
70
0
10
-64.240326
20
-70.815620
30
36.775742
11
-46.507446
21
-72.435501
31
18.601778
12
-39.232517
22
-50.705093
32
5.059518
13
-39.232517
23
-50.705093
33
5.059518
0
3DFACE
8
0
70
0
10
-64.240326
20
-70.815620
30
36.775742
11
-39.232517
21
-50.705093
31
5.059518
12
-57.880718
22
-49.368675
32
25.274681
13
-57.880718
23
-49.368675
33
25.274681
0
3DFACE
8
0
70
0
10
-64.240326
20
-70.815620
30
36.775742
11
-57.880718
21
-49.368675
31
25.274681
12
-90.900871
22
-58.247887
32
-2.587649
13
-90.900871
23
-58.247887
33
-2.587649
0
3DFACE
8
0
70
0
10
-64.240326
20
-70.815620
30
36.775742
11
-90.900871
21
-58.247887
31
-2.587649
12
-92.295326
22
-78.540947
32
12.391371
13
-92.295326
23
-78.540947
33
12.391371
0
3DFACE
8
0
70
0
10
-92.295326
20
-78.540947
30
12.391371
11
-90.900871
21
-58.247887
31
-2.587649
12
-92.802101
22
-62.045113
32
-22.792576
13
-92.802101
23
-62.045113
33
-22.792576
0
3DFACE
8
0
70
0
10
-92.295326
20
-78.540947
30
12.391371
11
-92.802101
21
-62.045113
31
-22.792576
12
-93.457130
22
-82.190025
32
-5.813259
13
-93.457130
23
-82.190025
33
-5.813259
0
3DFACE
8
0
70
0
10
-42.337933
20
-77.101982
30
-7.806163
11
-34.077065
21
-55.125496
31
-23.459908
12
-39.232517
22
-50.705093
32
5.059518
13
-39.232517
23
-50.705093
33
5.059518
0
3DFACE
8
0
70
0
10
-46.507446
20
-72.435501
30
18.601778
11
-42.337933
21
-77.101982
31
-7.806163
12
-39.232517
22
-50.705093
32
5.059518
13
-39.232517
23
-50.705093
33
5.059518
0
3DFACE
8
0
70
0
10
-93.457130
20
-82.190025
30
-5.813259
11
-92.802101
21
-62.045113
31
-22.792576
12
-78.058769
22
-82.627075
32
-16.586868
13
-78.058769
23
-82.627075
33
-16.586868
0
3DFACE
8
0
70
0
10
-78.058769
20
-82.627075
30
-16.586868
11
-92.802101
21
-62.045113
31
-22.792576
12
-75.428497
22
-61.989822
32
-34.265133
13
-75.428497
23
-61.989822
33
-34.265133
0
3DFACE
8
0
70
0
10
-78.058769
20
-82.627075
30
-16.586868
11
-75.428497
21
-61.989822
31
-34.265133
12
-42.337933
22
-77.101982
32
-7.806163
13
-42.337933
23
-77.101982
33
-7.806163
0
3DFACE
8
0
70
0
10
-42.337933
20
-77.101982
30
-7.806163
11
-75.428497
21
-61.989822
31
-34.265133
12
-34.077065
22
-55.125496
32
-23.459908
13
-34.077065
23
-55.125496
33
-23.459908
0
3DFACE
8
0
70
0
10
21.478756
20
-102.950142
30
13.667658
11
7.898410
21
-82.239975
31
27.391354
12
10.905101
22
-85.744728
32
1.844511
13
10.905101
23
-85.744728
33
1.844511
0
3DFACE
8
0
70
0
10
27.008421
20
-129.362289
30
-14.864491
11
21.478756
21
-102.950142
31
13.667658
12
10.905101
22
-85.744728
32
1.844511
13
10.905101
23
-85.744728
33
1.844511
0
3DFACE
8
0
70
0
10
56.801632
20
-102.711845
30
16.352320
11
43.624878
21
-75.220627
31
35.237015
12
21.478756
22
-102.950142
32
13.667658
13
21.478756
23
-102.950142
33
13.667658
0
3DFACE
8
0
70
0
10
21.478756
20
-102.950142
30
13.667658
11
43.624878
21
-75.220627
31
35.237015
12
7.898410
22
-82.239975
32
27.391354
13
7.898410
23
-82.239975
33
27.391354
0
3DFACE
8
0
70
0
10
72.736717
20
-121.415573
30
2.477163
11
58.204498
21
-74.452797
31
25.021935
12
56.801632
22
-102.711845
32
16.352320
13
56.801632
23
-102.711845
33
16.352320
0
3DFACE
8
0
70
0
10
56.801632
20
-102.711845
30
16.352320
11
58.204498
21
-74.452797
31
25.021935
12
43.624878
22
-75.220627
32
35.237015
13
43.624878
23
-75.220627
33
35.237015
0
3DFACE
8
0
70
0
10
27.008421
20
-129.362289
30
-14.864491
11
10.905101
21
-85.744728
31
1.844511
12
28.475710
22
-85.954567
32
-17.730295
13
28.475710
23
-85.954567
33
-17.730295
0
3DFACE
8
0
70
0
10
24.528807
20
-158.838837
30
-48.367363
11
27.008421
21
-129.362289
31
-14.864491
12
28.475710
22
-85.954567
32
-17.730295
13
28.475710
23
-85.954567
33
-17.730295
0
3DFACE
8
0
70
0
10
91.225632
20
-146.080154
30
-21.024565
11
57.000126
21
-77.635109
31
5.907943
12
72.736717
22
-121.415573
32
2.477163
13
72.736717
23
-121.415573
33
2.477163
0
3DFACE
8
0
70
0
10
72.736717
20
-121.415573
30
2.477163
11
57.000126
21
-77.635109
31
5.907943
12
58.204498
22
-74.452797
32
25.021935
13
58.204498
23
-74.452797
33
25.021935
0
3DFACE
8
0
70
0
10
24.528807
20
-158.838837
30
-48.367363
11
28.475710
21
-85.954567
31
-17.730295
12
91.225632
22
-146.080154
32
-21.024565
13
91.225632
23
-146.080154
33
-21.024565
0
3DFACE
8
0
70
0
10
91.225632
20
-146.080154
30
-21.024565
11
28.475710
21
-85.954567
31
-17.730295
12
57.000126
22
-77.635109
32
5.907943
13
57.000126
23
-77.635109
33
5.907943
0
3DFACE
8
0
70
0
10
-34.155815
20
-121.560852
30
1.867611
11
-46.507446
21
-72.435501
31
18.601778
12
-51.873253
22
-94.199348
32
22.718893
13
-51.873253
23
-94.199348
33
22.718893
0
3DFACE
8
0
70
0
10
-51.873253
20
-94.199348
30
22.718893
11
-46.507446
21
-72.435501
31
18.601778
12
-64.240326
22
-70.815620
32
36.775742
13
-64.240326
23
-70.815620
33
36.775742
0
3DFACE
8
0
70
0
10
-51.873253
20
-94.199348
30
22.718893
11
-64.240326
21
-70.815620
31
36.775742
12
-92.295326
22
-78.540947
32
12.391371
13
-92.295326
23
-78.540947
33
12.391371
0
3DFACE
8
0
70
0
10
-79.349899
20
-105.487831
30
1.479903
11
-51.873253
21
-94.199348
31
22.718893
12
-92.295326
22
-78.540947
32
12.391371
13
-92.295326
23
-78.540947
33
12.391371
0
3DFACE
8
0
70
0
10
-79.349899
20
-105.487831
30
1.479903
11
-92.295326
21
-78.540947
31
12.391371
12
-93.457130
22
-82.190025
32
-5.813259
13
-93.457130
23
-82.190025
33
-5.813259
0
3DFACE
8
0
70
0
10
-79.568108
20
-128.716049
30
-16.389364
11
-79.349899
21
-105.487831
31
1.479903
12
-93.457130
22
-82.190025
32
-5.813259
13
-93.457130
23
-82.190025
33
-5.813259
0
3DFACE
8
0
70
0
10
-7.027210
20
-149.288849
30
-16.972065
11
-42.337933
21
-77.101982
31
-7.806163
12
-34.155815
22
-121.560852
32
1.867611
13
-34.155815
23
-121.560852
33
1.867611
0
3DFACE
8
0
70
0
10
-34.155815
20
-121.560852
30
1.867611
11
-42.337933
21
-77.101982
31
-7.806163
12
-46.507446
22
-72.435501
32
18.601778
13
-46.507446
23
-72.435501
33
18.601778
0
3DFACE
8
0
70
0
10
-79.568108
20
-128.716049
30
-16.389364
11
-93.457130
21
-82.190025
31
-5.813259
12
-78.058769
22
-82.627075
32
-16.586868
13
-78.058769
23
-82.627075
33
-16.586868
0
3DFACE
8
0
70
0
10
-74.723053
20
-158.585342
30
-42.241966
11
-79.568108
21
-128.716049
31
-16.389364
12
-78.058769
22
-82.627075
32
-16.586868
13
-78.058769
23
-82.627075
33
-16.586868
0
3DFACE
8
0
70
0
10
-74.723053
20
-158.585342
30
-42.241966
11
-78.058769
21
-82.627075
31
-16.586868
12
-42.337933
22
-77.101982
32
-7.806163
13
-42.337933
23
-77.101982
33
-7.806163
0
3DFACE
8
0
70
0
10
-7.027210
20
-149.288849
30
-16.972065
11
-74.723053
21
-158.585342
31
-42.241966
12
-42.337933
22
-77.101982
32
-7.806163
13
-42.337933
23
-77.101982
33
-7.806163
0
3DFACE
8
0
70
0
10
89.081856
20
23.719269
30
81.115448
11
-13.728573
21
46.405472
31
116.403320
12
-13.620159
22
28.918427
32
104.941643
13
-13.620159
23
28.918427
33
104.941643
0
3DFACE
8
0
70
0
10
89.081856
20
23.719269
30
81.115448
11
90.395073
21
56.499954
31
92.874802
12
-13.728573
22
46.405472
32
116.403320
13
-13.728573
23
46.405472
33
116.403320
0
3DFACE
8
0
70
0
10
98.363663
20
15.175400
30
-73.170639
11
-0.938737
21
17.249207
31
-109.521461
12
-0.071987
22
49.924225
32
-101.663589
13
-0.071987
23
49.924225
33
-101.663589
0
3DFACE
8
0
70
0
10
98.363663
20
15.175400
30
-73.170639
11
-0.071987
21
49.924225
31
-101.663589
12
99.656021
22
47.975296
32
-61.064526
13
99.656021
23
47.975296
33
-61.064526
0
3DFACE
8
0
70
0
10
89.081856
20
23.719269
30
81.115448
11
120.082855
21
50.915359
31
8.831765
12
90.395073
22
56.499954
32
92.874802
13
90.395073
23
56.499954
33
92.874802
0
3DFACE
8
0
70
0
10
89.081856
20
23.719269
30
81.115448
11
117.925926
21
18.723877
31
7.567417
12
120.082855
22
50.915359
32
8.831765
13
120.082855
23
50.915359
33
8.831765
0
3DFACE
8
0
70
0
10
117.925926
20
18.723877
30
7.567417
11
98.363663
21
15.175400
31
-73.170639
12
99.656021
22
47.975296
32
-61.064526
13
99.656021
23
47.975296
33
-61.064526
0
3DFACE
8
0
70
0
10
117.925926
20
18.723877
30
7.567417
11
99.656021
21
47.975296
31
-61.064526
12
120.082855
22
50.915359
32
8.831765
13
120.082855
23
50.915359
33
8.831765
0
3DFACE
8
0
70
0
10
-112.705650
20
30.677490
30
68.590652
11
-13.620159
21
28.918427
31
104.941643
12
-13.728573
22
46.405472
32
116.403320
13
-13.728573
23
46.405472
33
116.403320
0
3DFACE
8
0
70
0
10
-112.705650
20
30.677490
30
68.590652
11
-13.728573
21
46.405472
31
116.403320
12
-113.208748
22
63.520813
32
80.237267
13
-113.208748
23
63.520813
33
80.237267
0
3DFACE
8
0
70
0
10
-103.423843
20
22.133636
30
-85.695435
11
-0.071987
21
49.924225
31
-101.663589
12
-0.938737
22
17.249207
32
-109.521461
13
-0.938737
23
17.249207
33
-109.521461
0
3DFACE
8
0
70
0
10
-103.423843
20
22.133636
30
-85.695435
11
-103.947800
21
54.996155
31
-73.702057
12
-0.071987
22
49.924225
32
-101.663589
13
-0.071987
23
49.924225
33
-101.663589
0
3DFACE
8
0
70
0
10
-112.705650
20
30.677490
30
68.590652
11
-132.601257
21
59.628647
31
-6.852145
12
-132.518753
22
27.359940
32
-7.977494
13
-132.518753
23
27.359940
33
-7.977494
0
3DFACE
8
0
70
0
10
-112.705650
20
30.677490
30
68.590652
11
-113.208748
21
63.520813
31
80.237267
12
-132.601257
22
59.628647
32
-6.852145
13
-132.601257
23
59.628647
33
-6.852145
0
3DFACE
8
0
70
0
10
-132.518753
20
27.359940
30
-7.977494
11
-132.601257
21
59.628647
31
-6.852145
12
-103.947800
22
54.996155
32
-73.702057
13
-103.947800
23
54.996155
33
-73.702057
0
3DFACE
8
0
70
0
10
-132.518753
20
27.359940
30
-7.977494
11
-103.947800
21
54.996155
31
-73.702057
12
-103.423843
22
22.133636
32
-85.695435
13
-103.423843
23
22.133636
33
-85.695435
0
3DFACE
8
0
70
0
10
-13.728573
20
46.405472
30
116.403320
11
48.475937
21
131.792267
31
61.708347
12
-7.884793
22
126.730896
32
66.879181
13
-7.884793
23
126.730896
33
66.879181
0
3DFACE
8
0
70
0
10
-13.728573
20
46.405472
30
116.403320
11
90.395073
21
56.499954
31
92.874802
12
48.475937
22
131.792267
32
61.708347
13
48.475937
23
131.792267
33
61.708347
0
3DFACE
8
0
70
0
10
99.656021
20
47.975296
30
-61.064526
11
-0.071987
21
49.924225
31
-101.663589
12
53.612568
22
149.985474
32
-34.111378
13
53.612568
23
149.985474
33
-34.111378
0
3DFACE
8
0
70
0
10
-0.071987
20
49.924225
30
-101.663589
11
-0.983255
21
160.106445
31
-46.130695
12
53.612568
22
149.985474
32
-34.111378
13
53.612568
23
149.985474
33
-34.111378
0
3DFACE
8
0
70
0
10
90.395073
20
56.499954
30
92.874802
11
105.647591
21
126.247314
31
14.002977
12
76.233704
22
151.091675
32
49.799374
13
76.233704
23
151.091675
33
49.799374
0
3DFACE
8
0
70
0
10
90.395073
20
56.499954
30
92.874802
11
120.082855
21
50.915359
31
8.831765
12
105.647591
22
126.247314
32
14.002977
13
105.647591
23
126.247314
33
14.002977
0
3DFACE
8
0
70
0
10
99.656021
20
47.975296
30
-61.064526
11
85.088982
21
135.543701
31
-23.907381
12
105.647591
22
126.247314
32
14.002977
13
105.647591
23
126.247314
33
14.002977
0
3DFACE
8
0
70
0
10
120.082855
20
50.915359
30
8.831765
11
99.656021
21
47.975296
31
-61.064526
12
105.647591
22
126.247314
32
14.002977
13
105.647591
23
126.247314
33
14.002977
0
3DFACE
8
0
70
0
10
90.395073
20
56.499954
30
92.874802
11
76.233704
21
151.091675
31
49.799374
12
48.475937
22
131.792267
32
61.708347
13
48.475937
23
131.792267
33
61.708347
0
3DFACE
8
0
70
0
10
99.656021
20
47.975296
30
-61.064526
11
53.612568
21
149.985474
31
-34.111378
12
85.088982
22
135.543701
32
-23.907381
13
85.088982
23
135.543701
33
-23.907381
0
3DFACE
8
0
70
0
10
-13.728573
20
46.405472
30
116.403320
11
-60.859634
21
134.726440
31
56.426826
12
-113.208748
22
63.520813
32
80.237267
13
-113.208748
23
63.520813
33
80.237267
0
3DFACE
8
0
70
0
10
-13.728573
20
46.405472
30
116.403320
11
-7.884793
21
126.730896
31
66.879181
12
-60.859634
22
134.726440
32
56.426826
13
-60.859634
23
134.726440
33
56.426826
0
3DFACE
8
0
70
0
10
-103.947800
20
54.996155
30
-73.702057
11
-56.006145
21
152.701385
31
-39.000061
12
-0.071987
22
49.924225
32
-101.663589
13
-0.071987
23
49.924225
33
-101.663589
0
3DFACE
8
0
70
0
10
-0.071987
20
49.924225
30
-101.663589
11
-56.006145
21
152.701385
31
-39.000061
12
-0.983255
22
160.106445
32
-46.130695
13
-0.983255
23
160.106445
33
-46.130695
0
3DFACE
8
0
70
0
10
-113.208748
20
63.520813
30
80.237267
11
-87.033012
21
146.051025
31
44.971115
12
-113.361687
22
125.911316
32
4.245216
13
-113.361687
23
125.911316
33
4.245216
0
3DFACE
8
0
70
0
10
-113.208748
20
63.520813
30
80.237267
11
-113.361687
21
125.911316
31
4.245216
12
-132.601257
22
59.628647
32
-6.852145
13
-132.601257
23
59.628647
33
-6.852145
0
3DFACE
8
0
70
0
10
-132.601257
20
59.628647
30
-6.852145
11
-113.361687
21
125.911316
31
4.245216
12
-103.947800
22
54.996155
32
-73.702057
13
-103.947800
23
54.996155
33
-73.702057
0
3DFACE
8
0
70
0
10
-103.947800
20
54.996155
30
-73.702057
11
-113.361687
21
125.911316
31
4.245216
12
-87.062393
22
141.250061
32
-32.363079
13
-87.062393
23
141.250061
33
-32.363079
0
3DFACE
8
0
70
0
10
-113.208748
20
63.520813
30
80.237267
11
-60.859634
21
134.726440
31
56.426826
12
-87.033012
22
146.051025
32
44.971115
13
-87.033012
23
146.051025
33
44.971115
0
3DFACE
8
0
70
0
10
-103.947800
20
54.996155
30
-73.702057
11
-87.062393
21
141.250061
31
-32.363079
12
-56.006145
22
152.701385
32
-39.000061
13
-56.006145
23
152.701385
33
-39.000061
0
3DFACE
8
0
70
0
10
105.647591
20
126.247314
30
14.002977
11
121.422279
21
233.726318
31
18.649990
12
76.233704
22
151.091675
32
49.799374
13
76.233704
23
151.091675
33
49.799374
0
3DFACE
8
0
70
0
10
165.699509
20
226.036163
30
0.903835
11
121.422279
21
233.726318
31
18.649990
12
105.647591
22
126.247314
32
14.002977
13
105.647591
23
126.247314
33
14.002977
0
3DFACE
8
0
70
0
10
76.233704
20
151.091675
30
49.799374
11
125.180756
21
248.922607
31
-32.031612
12
59.146637
22
158.738342
32
5.251740
13
59.146637
23
158.738342
33
5.251740
0
3DFACE
8
0
70
0
10
76.233704
20
151.091675
30
49.799374
11
121.422279
21
233.726318
31
18.649990
12
125.180756
22
248.922607
32
-32.031612
13
125.180756
23
248.922607
33
-32.031612
0
3DFACE
8
0
70
0
10
85.088982
20
135.543701
30
-23.907381
11
59.146637
21
158.738342
31
5.251740
12
125.180756
22
248.922607
32
-32.031612
13
125.180756
23
248.922607
33
-32.031612
0
3DFACE
8
0
70
0
10
85.088982
20
135.543701
30
-23.907381
11
125.180756
21
248.922607
31
-32.031612
12
166.619720
22
239.613373
32
-42.087219
13
166.619720
23
239.613373
33
-42.087219
0
3DFACE
8
0
70
0
10
105.647591
20
126.247314
30
14.002977
11
85.088982
21
135.543701
31
-23.907381
12
166.619720
22
239.613373
32
-42.087219
13
166.619720
23
239.613373
33
-42.087219
0
3DFACE
8
0
70
0
10
165.699509
20
226.036163
30
0.903835
11
105.647591
21
126.247314
31
14.002977
12
166.619720
22
239.613373
32
-42.087219
13
166.619720
23
239.613373
33
-42.087219
0
3DFACE
8
0
70
0
10
-113.361687
20
125.911316
30
4.245216
11
-87.033012
21
146.051025
31
44.971115
12
-143.475113
22
222.888062
32
45.623417
13
-143.475113
23
222.888062
33
45.623417
0
3DFACE
8
0
70
0
10
-177.081131
20
208.904053
30
19.228786
11
-113.361687
21
125.911316
31
4.245216
12
-143.475113
22
222.888062
32
45.623417
13
-143.475113
23
222.888062
33
45.623417
0
3DFACE
8
0
70
0
10
-87.033012
20
146.051025
30
44.971115
11
-63.519073
21
162.280884
31
0.233380
12
-139.847809
22
249.195221
32
3.787385
13
-139.847809
23
249.195221
33
3.787385
0
3DFACE
8
0
70
0
10
-87.033012
20
146.051025
30
44.971115
11
-139.847809
21
249.195221
31
3.787385
12
-143.475113
22
222.888062
32
45.623417
13
-143.475113
23
222.888062
33
45.623417
0
3DFACE
8
0
70
0
10
-87.062393
20
141.250061
30
-32.363079
11
-139.847809
21
249.195221
31
3.787385
12
-63.519073
22
162.280884
32
0.233380
13
-63.519073
23
162.280884
33
0.233380
0
3DFACE
8
0
70
0
10
-87.062393
20
141.250061
30
-32.363079
11
-172.163101
21
232.443787
31
-15.638888
12
-139.847809
22
249.195221
32
3.787385
13
-139.847809
23
249.195221
33
3.787385
0
3DFACE
8
0
70
0
10
-113.361687
20
125.911316
30
4.245216
11
-172.163101
21
232.443787
31
-15.638888
12
-87.062393
22
141.250061
32
-32.363079
13
-87.062393
23
141.250061
33
-32.363079
0
3DFACE
8
0
70
0
10
-177.081131
20
208.904053
30
19.228786
11
-172.163101
21
232.443787
31
-15.638888
12
-113.361687
22
125.911316
32
4.245216
13
-113.361687
23
125.911316
33
4.245216
0
3DFACE
8
0
70
0
10
-211.580292
20
241.375183
30
28.493181
11
-177.081131
21
208.904053
31
19.228786
12
-143.475113
22
222.888062
32
45.623417
13
-143.475113
23
222.888062
33
45.623417
0
3DFACE
8
0
70
0
10
-211.580292
20
241.375183
30
28.493181
11
-143.475113
21
222.888062
31
45.623417
12
-172.834885
22
253.228760
32
55.339100
13
-172.834885
23
253.228760
33
55.339100
0
3DFACE
8
0
70
0
10
-172.834885
20
253.228760
30
55.339100
11
-143.475113
21
222.888062
31
45.623417
12
-139.847809
22
249.195221
32
3.787385
13
-139.847809
23
249.195221
33
3.787385
0
3DFACE
8
0
70
0
10
-172.834885
20
253.228760
30
55.339100
11
-139.847809
21
249.195221
31
3.787385
12
-176.964401
22
286.344360
32
13.991704
13
-176.964401
23
286.344360
33
13.991704
0
3DFACE
8
0
70
0
10
-212.904465
20
270.948669
30
-5.984382
11
-176.964401
21
286.344360
31
13.991704
12
-139.847809
22
249.195221
32
3.787385
13
-139.847809
23
249.195221
33
3.787385
0
3DFACE
8
0
70
0
10
-212.904465
20
270.948669
30
-5.984382
11
-139.847809
21
249.195221
31
3.787385
12
-172.163101
22
232.443787
32
-15.638888
13
-172.163101
23
232.443787
33
-15.638888
0
3DFACE
8
0
70
0
10
-211.580292
20
241.375183
30
28.493181
11
-212.904465
21
270.948669
31
-5.984382
12
-172.163101
22
232.443787
32
-15.638888
13
-172.163101
23
232.443787
33
-15.638888
0
3DFACE
8
0
70
0
10
-211.580292
20
241.375183
30
28.493181
11
-172.163101
21
232.443787
31
-15.638888
12
-177.081131
22
208.904053
32
19.228786
13
-177.081131
23
208.904053
33
19.228786
0
3DFACE
8
0
70
0
10
168.216843
20
262.263580
30
28.967360
11
121.422279
21
233.726318
31
18.649990
12
165.699509
22
226.036163
32
0.903835
13
165.699509
23
226.036163
33
0.903835
0
3DFACE
8
0
70
0
10
168.216843
20
262.263580
30
28.967360
11
122.483734
21
245.805054
31
28.841644
12
121.422279
22
233.726318
32
18.649990
13
121.422279
23
233.726318
33
18.649990
0
3DFACE
8
0
70
0
10
122.483734
20
245.805054
30
28.841644
11
125.180756
21
248.922607
31
-32.031612
12
121.422279
22
233.726318
32
18.649990
13
121.422279
23
233.726318
33
18.649990
0
3DFACE
8
0
70
0
10
122.483734
20
245.805054
30
28.841644
11
125.636703
21
290.575195
31
0.398793
12
125.180756
22
248.922607
32
-32.031612
13
125.180756
23
248.922607
33
-32.031612
0
3DFACE
8
0
70
0
10
168.278854
20
300.336182
30
4.157714
11
166.619720
21
239.613373
31
-42.087219
12
125.180756
22
248.922607
32
-32.031612
13
125.180756
23
248.922607
33
-32.031612
0
3DFACE
8
0
70
0
10
168.278854
20
300.336182
30
4.157714
11
125.180756
21
248.922607
31
-32.031612
12
125.636703
22
290.575195
32
0.398793
13
125.636703
23
290.575195
33
0.398793
0
3DFACE
8
0
70
0
10
168.216843
20
262.263580
30
28.967360
11
165.699509
21
226.036163
31
0.903835
12
166.619720
22
239.613373
32
-42.087219
13
166.619720
23
239.613373
33
-42.087219
0
3DFACE
8
0
70
0
10
168.216843
20
262.263580
30
28.967360
11
166.619720
21
239.613373
31
-42.087219
12
168.278854
22
300.336182
32
4.157714
13
168.278854
23
300.336182
33
4.157714
0
3DFACE
8
0
70
0
10
-30.695154
20
302.365295
30
2.083615
11
-26.545097
21
305.260071
31
2.019308
12
-16.720072
22
296.511444
32
31.028940
13
-31.672338
23
289.940277
33
35.421749
0
3DFACE
8
0
70
0
10
-26.558561
20
310.265106
30
2.765108
11
-7.523397
21
305.989319
31
36.464851
12
-16.720072
22
296.511444
32
31.028940
13
-26.545097
23
305.260071
33
2.019308
0
3DFACE
8
0
70
0
10
-28.260607
20
314.482086
30
3.594986
11
-3.691858
21
313.531921
31
44.109531
12
-7.523397
22
305.989319
32
36.464851
13
-26.558561
23
310.265106
33
2.765108
0
3DFACE
8
0
70
0
10
-31.739347
20
315.477783
30
4.157709
11
-9.915910
21
314.506592
31
51.491848
12
-3.691858
22
313.531921
32
44.109531
13
-28.260607
23
314.482086
33
3.594986
0
3DFACE
8
0
70
0
10
-36.005135
20
316.801544
30
4.863035
11
-17.358524
21
315.896576
31
60.655556
12
-9.915910
22
314.506592
32
51.491848
13
-31.739347
23
315.477783
33
4.157709
0
3DFACE
8
0
70
0
10
-39.452904
20
314.815186
30
4.978690
11
-29.008860
21
311.230255
31
64.757530
12
-17.358524
22
315.896576
32
60.655556
13
-36.005135
23
316.801544
33
4.863035
0
3DFACE
8
0
70
0
10
-41.810032
20
312.997070
30
4.989349
11
-37.822105
21
307.168427
31
67.064438
12
-29.008860
22
311.230255
32
64.757530
13
-39.452904
23
314.815186
33
4.978690
0
3DFACE
8
0
70
0
10
-41.810032
20
312.997070
30
4.989349
11
-41.946362
21
310.053345
31
4.567900
12
-43.565353
22
301.556213
32
64.128769
13
-37.822105
23
307.168427
33
67.064438
0
3DFACE
8
0
70
0
10
-41.946362
20
310.053345
30
4.567900
11
-41.588787
21
306.138245
31
3.943142
12
-49.955231
22
294.233246
32
59.247559
13
-43.565353
23
301.556213
33
64.128769
0
3DFACE
8
0
70
0
10
-41.588787
20
306.138245
30
3.943142
11
-38.016815
21
303.489471
31
3.123512
12
-46.563038
22
290.151428
32
49.908894
13
-49.955231
23
294.233246
33
59.247559
0
3DFACE
8
0
70
0
10
-38.016815
20
303.489471
30
3.123512
11
-35.173286
21
301.280701
31
2.456140
12
-44.047264
22
286.712280
32
42.366402
13
-46.563038
23
290.151428
33
49.908894
0
3DFACE
8
0
70
0
10
-35.173286
20
301.280701
30
2.456140
11
-30.695154
21
302.365295
31
2.083615
12
-31.672338
22
289.940277
32
35.421749
13
-44.047264
23
286.712280
33
42.366402
0
ENDSEC
0
EOF
