0
SECTION
2
HEADER
999
DXF File Generated by LightWave 3D(TM)
0
ENDSEC
0
SECTION
2
TABLES
0
ENDSEC
0
SECTION
2
BLOCKS
0
ENDSEC
0
SECTION
2
ENTITIES
0
3DFACE
8
0
70
0
10
-5.931536
20
-74.985573
30
96.730072
11
23.682680
21
-73.277374
31
72.221870
12
74.068687
22
-74.305054
32
54.238892
13
70.634666
23
-67.636711
33
73.407272
0
3DFACE
8
0
70
0
10
76.820076
20
-59.692623
30
-57.314774
11
84.192429
21
-76.699615
31
-32.202980
12
39.257683
22
-76.961327
32
-60.765621
13
2.804774
23
-63.765312
33
-87.902489
0
3DFACE
8
0
70
0
10
-6.374811
20
-82.012184
30
119.840836
11
-5.931536
21
-74.985573
31
96.730072
12
70.634666
22
-67.636711
32
73.407272
13
94.771408
23
-72.623352
33
91.362602
0
3DFACE
8
0
70
0
10
102.599243
20
-62.569862
30
-74.070251
11
76.820076
21
-59.692623
31
-57.314774
12
2.804774
22
-63.765312
32
-87.902489
13
4.505878
23
-68.037842
33
-110.110847
0
3DFACE
8
0
70
0
10
-7.326079
20
-79.876129
30
132.798706
11
100.067200
21
-69.854774
31
100.362106
12
111.632477
22
-24.616234
32
97.313705
13
-12.318712
23
-34.948265
33
129.049210
0
3DFACE
8
0
70
0
10
108.912643
20
-58.494339
30
-86.577026
11
4.969099
21
-64.085121
31
-127.046692
12
-0.029094
22
-19.163853
32
-130.794601
13
120.477936
23
-13.255787
33
-89.625420
0
3DFACE
8
0
70
0
10
-12.318712
20
-34.948265
30
129.049210
11
111.632477
21
-24.616234
31
97.313705
12
104.999443
22
-23.572224
32
87.955986
13
-11.801625
23
-33.177204
33
115.765266
0
3DFACE
8
0
70
0
10
-7.326079
20
-79.876129
30
132.798706
11
-6.374811
21
-82.012184
31
119.840836
12
94.771408
22
-72.623352
32
91.362602
13
100.067200
23
-69.854774
33
100.362106
0
3DFACE
8
0
70
0
10
120.477936
20
-13.255787
30
-89.625420
11
-0.029094
21
-19.163853
31
-130.794601
12
-1.117417
22
-19.433187
32
-114.125107
13
112.827271
23
-13.518742
33
-77.476868
0
3DFACE
8
0
70
0
10
108.912643
20
-58.494339
30
-86.577026
11
102.599243
21
-62.569862
31
-74.070251
12
4.505878
22
-68.037842
32
-110.110847
13
4.969099
23
-64.085121
33
-127.046692
0
3DFACE
8
0
70
0
10
28.763203
20
-121.798286
30
106.656898
11
77.758888
21
-121.798286
31
106.656898
12
69.614090
22
-102.670731
32
91.258163
13
35.325893
23
-102.842522
33
91.258163
0
3DFACE
8
0
70
0
10
70.634666
20
-67.636711
30
73.407272
11
74.068687
21
-74.305054
31
54.238892
12
90.934418
22
-78.771133
32
14.413880
13
91.754951
23
-62.544617
33
10.175035
0
3DFACE
8
0
70
0
10
94.771408
20
-72.623352
30
91.362602
11
70.634666
21
-67.636711
31
73.407272
12
91.754951
22
-62.544617
32
10.175035
13
122.749184
23
-66.120300
33
11.814085
0
3DFACE
8
0
70
0
10
111.632477
20
-24.616234
30
97.313705
11
100.067200
21
-69.854774
31
100.362106
12
129.982697
22
-62.703403
32
11.862507
13
145.400146
23
-17.207903
33
8.962698
0
3DFACE
8
0
70
0
10
145.400146
20
-17.207903
30
8.962698
11
136.602661
21
-16.827349
31
8.547319
12
104.999443
22
-23.572224
32
87.955986
13
111.632477
23
-24.616234
33
97.313705
0
3DFACE
8
0
70
0
10
100.067200
20
-69.854774
30
100.362106
11
94.771408
21
-72.623352
31
91.362602
12
122.749184
22
-66.120300
32
11.814085
13
129.982697
23
-62.703403
33
11.862507
0
3DFACE
8
0
70
0
10
13.414995
20
-152.763504
30
106.656898
11
83.243179
21
-152.935318
31
106.656898
12
77.758888
22
-121.798286
32
106.656898
13
28.763203
23
-121.798286
33
106.656898
0
3DFACE
8
0
70
0
10
-1.632908
20
118.035805
30
-12.707818
11
66.454765
21
106.306702
31
-12.237965
12
59.374630
22
89.667236
32
-52.388508
13
-1.908000
23
99.882523
33
-59.411938
0
3DFACE
8
0
70
0
10
91.754951
20
-62.544617
30
10.175035
11
90.934418
21
-78.771133
31
14.413880
12
84.192429
22
-76.699615
32
-32.202980
13
76.820076
23
-59.692623
33
-57.314774
0
3DFACE
8
0
70
0
10
122.749184
20
-66.120300
30
11.814085
11
91.754951
21
-62.544617
31
10.175035
12
76.820076
22
-59.692623
32
-57.314774
13
102.599243
23
-62.569862
33
-74.070251
0
3DFACE
8
0
70
0
10
129.982697
20
-62.703403
30
11.862507
11
108.912643
21
-58.494339
31
-86.577026
12
120.477936
22
-13.255787
32
-89.625420
13
145.400146
23
-17.207903
33
8.962698
0
3DFACE
8
0
70
0
10
120.477936
20
-13.255787
30
-89.625420
11
112.827271
21
-13.518742
31
-77.476868
12
136.602661
22
-16.827349
32
8.547319
13
145.400146
23
-17.207903
33
8.962698
0
3DFACE
8
0
70
0
10
129.982697
20
-62.703403
30
11.862507
11
122.749184
21
-66.120300
31
11.814085
12
102.599243
22
-62.569862
32
-74.070251
13
108.912643
23
-58.494339
33
-86.577026
0
3DFACE
8
0
70
0
10
26.566450
20
-85.166992
30
35.810463
11
23.682680
21
-73.277374
31
72.221870
12
22.275234
22
-78.219406
32
6.793392
13
21.365065
23
-86.329811
33
6.804132
0
3DFACE
8
0
70
0
10
26.566450
20
-85.166992
30
35.810463
11
75.532089
21
-86.944702
31
32.004494
12
74.068687
22
-74.305054
32
54.238892
13
23.682680
23
-73.277374
33
72.221870
0
3DFACE
8
0
70
0
10
75.532089
20
-86.944702
30
32.004494
11
89.968048
21
-88.168144
31
15.665455
12
90.934418
22
-78.771133
32
14.413880
13
74.068687
23
-74.305054
33
54.238892
0
3DFACE
8
0
70
0
10
21.365065
20
-86.329811
30
6.804132
11
22.275234
21
-78.219406
31
6.793392
12
39.257683
22
-76.961327
32
-60.765621
13
34.247990
23
-88.033333
33
-21.087410
0
3DFACE
8
0
70
0
10
89.968048
20
-88.168144
30
15.665455
11
80.525085
21
-88.807823
31
-4.979124
12
84.192429
22
-76.699615
32
-32.202980
13
90.934418
23
-78.771133
33
14.413880
0
3DFACE
8
0
70
0
10
80.525085
20
-88.807823
30
-4.979124
11
34.247990
21
-88.033333
31
-21.087410
12
39.257683
22
-76.961327
32
-60.765621
13
84.192429
23
-76.699615
33
-32.202980
0
3DFACE
8
0
70
0
10
25.074961
20
-126.838463
30
-8.954342
11
28.763199
21
-129.570663
31
45.446926
12
35.325890
22
-111.871040
32
37.362587
13
30.243422
23
-117.817467
33
27.234198
0
3DFACE
8
0
70
0
10
30.243422
20
-117.817467
30
27.234198
11
35.325890
21
-111.871040
31
37.362587
12
69.614090
22
-115.206757
32
37.362587
13
69.552589
23
-121.432732
33
19.467260
0
3DFACE
8
0
70
0
10
80.504753
20
-131.286667
30
-3.558401
11
69.552589
21
-121.432732
31
19.467260
12
69.614090
22
-115.206757
32
37.362587
13
77.758888
23
-129.570663
33
45.446926
0
3DFACE
8
0
70
0
10
9.458377
20
-135.573853
30
-48.399147
11
17.264675
21
-150.698959
31
33.897873
12
28.763199
22
-129.570663
32
45.446926
13
25.074961
23
-126.838463
33
-8.954342
0
3DFACE
8
0
70
0
10
90.983231
20
-141.997726
30
-38.235401
11
80.504753
21
-131.286667
31
-3.558401
12
77.758888
22
-129.570663
32
45.446926
13
87.092850
23
-150.797134
33
37.747562
0
3DFACE
8
0
70
0
10
90.983231
20
-141.997726
30
-38.235401
11
87.092850
21
-150.797134
31
37.747562
12
17.264675
22
-150.698959
32
33.897873
13
9.458377
23
-135.573853
33
-48.399147
0
3DFACE
8
0
70
0
10
28.763203
20
-121.798286
30
106.656898
11
35.325893
21
-102.842522
31
91.258163
12
35.325890
22
-111.871040
32
37.362587
13
28.763199
23
-129.570663
33
45.446926
0
3DFACE
8
0
70
0
10
35.325893
20
-102.842522
30
91.258163
11
69.614090
21
-102.670731
31
91.258163
12
69.614090
22
-115.206757
32
37.362587
13
35.325890
23
-111.871040
33
37.362587
0
3DFACE
8
0
70
0
10
77.758888
20
-121.798286
30
106.656898
11
77.758888
21
-129.570663
31
45.446926
12
69.614090
22
-115.206757
32
37.362587
13
69.614090
23
-102.670731
33
91.258163
0
3DFACE
8
0
70
0
10
13.414995
20
-152.763504
30
106.656898
11
28.763203
21
-121.798286
31
106.656898
12
28.763199
22
-129.570663
32
45.446926
13
17.264675
23
-150.698959
33
33.897873
0
3DFACE
8
0
70
0
10
83.243179
20
-152.935318
30
106.656898
11
87.092850
21
-150.797134
31
37.747562
12
77.758888
22
-129.570663
32
45.446926
13
77.758888
23
-121.798286
33
106.656898
0
3DFACE
8
0
70
0
10
83.243179
20
-152.935318
30
106.656898
11
13.414995
21
-152.763504
31
106.656898
12
17.264675
22
-150.698959
32
33.897873
13
87.092850
23
-150.797134
33
37.747562
0
3DFACE
8
0
70
0
10
118.987991
20
0.150029
30
227.931213
11
139.123657
21
11.957236
31
224.923569
12
120.259193
22
20.474863
32
233.068588
13
102.825554
23
10.443944
33
224.839081
0
3DFACE
8
0
70
0
10
88.230934
20
84.172966
30
-41.099674
11
59.374630
21
89.667236
31
-52.388508
12
66.454765
22
106.306702
32
-12.237965
13
66.454765
23
106.306702
33
-12.237965
0
3DFACE
8
0
70
0
10
79.250648
20
77.158127
30
37.551498
11
66.454765
21
106.306702
31
-12.237965
12
59.792995
22
72.169380
32
50.073032
13
59.792995
23
72.169380
33
50.073032
0
3DFACE
8
0
70
0
10
127.782242
20
64.672592
30
71.681137
11
158.363876
21
28.972090
31
67.812714
12
147.529419
22
16.966648
32
101.236694
13
118.249405
23
54.438137
33
106.132225
0
3DFACE
8
0
70
0
10
178.006500
20
76.136635
30
90.715569
11
127.782242
21
64.672592
31
71.681137
12
118.249405
22
54.438137
32
106.132225
13
168.265579
23
67.702660
33
125.757111
0
3DFACE
8
0
70
0
10
189.579178
20
31.238922
30
118.865997
11
200.362579
21
41.066624
31
84.638161
12
178.006500
22
76.136635
32
90.715569
13
168.265579
23
67.702660
33
125.757111
0
3DFACE
8
0
70
0
10
158.363876
20
28.972090
30
67.812714
11
200.362579
21
41.066624
31
84.638161
12
189.579178
22
31.238922
32
118.865997
13
147.529419
23
16.966648
33
101.236694
0
3DFACE
8
0
70
0
10
144.718079
20
7.290509
30
96.899063
11
134.273804
21
-4.786556
31
128.027802
12
98.094910
22
49.033867
32
135.781372
13
106.646423
23
58.521278
33
104.172913
0
3DFACE
8
0
70
0
10
106.646423
20
58.521278
30
104.172913
11
98.094910
21
49.033867
31
135.781372
12
164.717865
22
70.863846
32
162.530243
13
173.278488
23
77.899033
33
130.935501
0
3DFACE
8
0
70
0
10
190.736588
20
18.903160
30
152.319748
11
200.801727
21
27.898287
31
120.981506
12
173.278488
22
77.899033
32
130.935501
13
164.717865
23
70.863846
33
162.530243
0
3DFACE
8
0
70
0
10
144.718079
20
7.290509
30
96.899063
11
200.801727
21
27.898287
31
120.981506
12
190.736588
22
18.903160
32
152.319748
13
134.273804
23
-4.786556
33
128.027802
0
3DFACE
8
0
70
0
10
144.718079
20
7.290509
30
96.899063
11
106.646423
21
58.521278
31
104.172913
12
118.249405
22
54.438137
32
106.132225
13
147.529419
23
16.966648
33
101.236694
0
3DFACE
8
0
70
0
10
134.273804
20
-4.786556
30
128.027802
11
137.325455
21
5.659858
31
132.715607
12
109.508339
22
45.053726
32
137.721802
13
98.094910
23
49.033867
33
135.781372
0
3DFACE
8
0
70
0
10
106.646423
20
58.521278
30
104.172913
11
173.278488
21
77.899033
31
130.935501
12
168.265579
22
67.702660
32
125.757111
13
118.249405
23
54.438137
33
106.132225
0
3DFACE
8
0
70
0
10
98.094910
20
49.033867
30
135.781372
11
109.508339
21
45.053726
31
137.721802
12
159.547470
22
60.154179
32
157.119293
13
164.717865
23
70.863846
33
162.530243
0
3DFACE
8
0
70
0
10
190.736588
20
18.903160
30
152.319748
11
164.717865
21
70.863846
31
162.530243
12
159.547470
22
60.154179
32
157.119293
13
179.691437
23
22.227442
33
150.250885
0
3DFACE
8
0
70
0
10
200.801727
20
27.898287
30
120.981506
11
189.579178
21
31.238922
31
118.865997
12
168.265579
22
67.702660
32
125.757111
13
173.278488
23
77.899033
33
130.935501
0
3DFACE
8
0
70
0
10
134.273804
20
-4.786556
30
128.027802
11
190.736588
21
18.903160
31
152.319748
12
179.691437
22
22.227442
32
150.250885
13
137.325455
23
5.659858
33
132.715607
0
3DFACE
8
0
70
0
10
144.718079
20
7.290509
30
96.899063
11
147.529419
21
16.966648
31
101.236694
12
189.579178
22
31.238922
32
118.865997
13
200.801727
23
27.898287
33
120.981506
0
3DFACE
8
0
70
0
10
151.331436
20
17.162874
30
128.979874
11
124.829597
21
35.945385
31
125.295464
12
109.508339
22
45.053726
32
137.721802
13
137.325455
23
5.659858
33
132.715607
0
3DFACE
8
0
70
0
10
124.829597
20
35.945385
30
125.295464
11
151.444595
21
54.424328
31
139.467133
12
159.547470
22
60.154179
32
157.119293
13
109.508339
23
45.053726
33
137.721802
0
3DFACE
8
0
70
0
10
172.964874
20
35.111847
30
141.182571
11
179.691437
21
22.227442
31
150.250885
12
159.547470
22
60.154179
32
157.119293
13
151.444595
23
54.424328
33
139.467133
0
3DFACE
8
0
70
0
10
151.331436
20
17.162874
30
128.979874
11
137.325455
21
5.659858
31
132.715607
12
179.691437
22
22.227442
32
150.250885
13
172.964874
23
35.111847
33
141.182571
0
3DFACE
8
0
70
0
10
86.359550
20
13.509459
30
160.571365
11
85.396141
21
23.441790
31
162.881592
12
89.579407
22
26.987974
32
150.729874
13
90.437988
23
17.063324
33
148.363113
0
3DFACE
8
0
70
0
10
85.396141
20
23.441790
30
162.881592
11
85.159561
21
33.698174
31
165.584564
12
89.214302
22
37.241386
32
153.409897
13
89.579407
23
26.987974
33
150.729874
0
3DFACE
8
0
70
0
10
175.150513
20
26.601944
30
176.799530
11
172.964874
21
35.111847
31
141.182571
12
151.444595
22
54.424328
32
139.467133
13
144.727676
23
46.080761
33
172.095749
0
3DFACE
8
0
70
0
10
143.467514
20
8.813265
30
161.336639
11
151.331436
21
17.162874
31
128.979874
12
172.964874
22
35.111847
32
141.182571
13
175.150513
23
26.601944
33
176.799530
0
3DFACE
8
0
70
0
10
118.987991
20
0.150029
30
227.931213
11
102.825554
21
10.443944
31
224.839081
12
108.359985
22
24.902740
32
170.616287
13
143.467514
23
8.813265
33
161.336639
0
3DFACE
8
0
70
0
10
102.825554
20
10.443944
30
224.839081
11
120.259193
21
20.474863
31
233.068588
12
144.727676
22
46.080761
32
172.095749
13
108.359985
23
24.902740
33
170.616287
0
3DFACE
8
0
70
0
10
139.123657
20
11.957236
30
224.923569
11
175.150513
21
26.601944
31
176.799530
12
144.727676
22
46.080761
32
172.095749
13
120.259193
23
20.474863
33
233.068588
0
3DFACE
8
0
70
0
10
118.987991
20
0.150029
30
227.931213
11
143.467514
21
8.813265
31
161.336639
12
175.150513
22
26.601944
32
176.799530
13
139.123657
23
11.957236
33
224.923569
0
3DFACE
8
0
70
0
10
86.359550
20
13.509459
30
160.571365
11
90.437988
21
17.063324
31
148.363113
12
151.331436
22
17.162874
32
128.979874
13
143.467514
23
8.813265
33
161.336639
0
3DFACE
8
0
70
0
10
90.437988
20
17.063324
30
148.363113
11
89.579407
21
26.987974
31
150.729874
12
124.829597
22
35.945385
32
125.295464
13
151.331436
23
17.162874
33
128.979874
0
3DFACE
8
0
70
0
10
86.359550
20
13.509459
30
160.571365
11
143.467514
21
8.813265
31
161.336639
12
108.359985
22
24.902740
32
170.616287
13
85.396141
23
23.441790
33
162.881592
0
3DFACE
8
0
70
0
10
89.579407
20
26.987974
30
150.729874
11
89.214302
21
37.241386
31
153.409897
12
151.444595
22
54.424328
32
139.467133
13
124.829597
23
35.945385
33
125.295464
0
3DFACE
8
0
70
0
10
85.159561
20
33.698174
30
165.584564
11
144.727676
21
46.080761
31
172.095749
12
151.444595
22
54.424328
32
139.467133
13
89.214302
23
37.241386
33
153.409897
0
3DFACE
8
0
70
0
10
85.396141
20
23.441790
30
162.881592
11
108.359985
21
24.902740
31
170.616287
12
144.727676
22
46.080761
32
172.095749
13
85.159561
23
33.698174
33
165.584564
0
3DFACE
8
0
70
0
10
-5.931536
20
-74.985573
30
96.730072
11
-80.182983
21
-77.696564
31
67.589600
12
-89.346405
22
-75.892654
32
43.428555
13
-44.550549
23
-74.148010
33
71.857368
0
3DFACE
8
0
70
0
10
-73.997574
20
-69.752487
30
-63.132454
11
2.804774
21
-63.765312
31
-87.902489
12
-29.008757
22
-90.011009
32
-56.860691
13
-79.244240
23
-86.203598
33
-40.238178
0
3DFACE
8
0
70
0
10
-6.374811
20
-82.012184
30
119.840836
11
-104.641045
21
-85.924591
31
83.670418
12
-80.182983
22
-77.696564
32
67.589600
13
-5.931536
23
-74.985573
33
96.730072
0
3DFACE
8
0
70
0
10
-96.813217
20
-75.871101
30
-81.762451
11
4.505878
21
-68.037842
31
-110.110847
12
2.804774
22
-63.765312
32
-87.902489
13
-73.997574
23
-69.752487
33
-63.132454
0
3DFACE
8
0
70
0
10
-7.326079
20
-79.876129
30
132.798706
11
-12.318712
21
-34.948265
31
129.049210
12
-132.812241
22
-40.921215
32
87.884430
13
-111.436790
23
-83.962547
33
92.203499
0
3DFACE
8
0
70
0
10
-102.591347
20
-72.602112
30
-94.735626
11
-123.966789
21
-29.560768
31
-99.054695
12
-0.029094
22
-19.163853
32
-130.794601
13
4.969099
23
-64.085121
33
-127.046692
0
3DFACE
8
0
70
0
10
-12.318712
20
-34.948265
30
129.049210
11
-11.801625
21
-33.177204
31
115.765266
12
-125.540016
22
-38.949699
32
79.063095
13
-132.812241
23
-40.921215
33
87.884430
0
3DFACE
8
0
70
0
10
-7.326079
20
-79.876129
30
132.798706
11
-111.436790
21
-83.962547
31
92.203499
12
-104.641045
22
-85.924591
32
83.670418
13
-6.374811
23
-82.012184
33
119.840836
0
3DFACE
8
0
70
0
10
-123.966789
20
-29.560768
30
-99.054695
11
-117.712181
21
-28.896210
31
-86.369766
12
-1.117417
22
-19.433187
32
-114.125107
13
-0.029094
23
-19.163853
33
-130.794601
0
3DFACE
8
0
70
0
10
-102.591347
20
-72.602112
30
-94.735626
11
4.969099
21
-64.085121
31
-127.046692
12
4.505878
22
-68.037842
32
-110.110847
13
-96.813217
23
-75.871101
33
-81.762451
0
3DFACE
8
0
70
0
10
-32.712791
20
-121.798286
30
106.656898
11
-39.275486
21
-102.842522
31
91.258163
12
-73.563690
22
-102.670731
32
91.258163
13
-81.708481
23
-121.798286
33
106.656898
0
3DFACE
8
0
70
0
10
-80.182983
20
-77.696564
30
67.589600
11
-95.253250
21
-75.018463
31
2.961331
12
-96.651009
22
-83.775192
32
2.520010
13
-89.346405
23
-75.892654
33
43.428555
0
3DFACE
8
0
70
0
10
-104.641045
20
-85.924591
30
83.670418
11
-125.002548
21
-82.645874
31
2.257243
12
-95.253250
22
-75.018463
32
2.961331
13
-80.182983
23
-77.696564
33
67.589600
0
3DFACE
8
0
70
0
10
-132.812241
20
-40.921215
30
87.884430
11
-158.111023
21
-37.452751
31
-2.745022
12
-132.883423
22
-80.237137
32
1.722639
13
-111.436790
23
-83.962547
33
92.203499
0
3DFACE
8
0
70
0
10
-158.111023
20
-37.452751
30
-2.745022
11
-132.812241
21
-40.921215
31
87.884430
12
-125.540016
22
-38.949699
32
79.063095
13
-149.526962
23
-35.912800
33
-2.489920
0
3DFACE
8
0
70
0
10
-111.436790
20
-83.962547
30
92.203499
11
-132.883423
21
-80.237137
31
1.722639
12
-125.002548
22
-82.645874
32
2.257243
13
-104.641045
23
-85.924591
33
83.670418
0
3DFACE
8
0
70
0
10
-17.364586
20
-152.763504
30
106.656898
11
-32.712791
21
-121.798286
31
106.656898
12
-81.708481
22
-121.798286
32
106.656898
13
-87.192764
23
-152.935318
33
106.656898
0
3DFACE
8
0
70
0
10
-1.632908
20
118.035805
30
-12.707818
11
-1.908000
21
99.882523
31
-59.411938
12
-63.120792
22
89.852921
32
-52.230225
13
-68.430092
23
103.672539
33
-10.877887
0
3DFACE
8
0
70
0
10
-95.253250
20
-75.018463
30
2.961331
11
-73.997574
21
-69.752487
31
-63.132454
12
-79.244240
22
-86.203598
32
-40.238178
13
-96.651009
23
-83.775192
33
2.520010
0
3DFACE
8
0
70
0
10
-125.002548
20
-82.645874
30
2.257243
11
-96.813217
21
-75.871101
31
-81.762451
12
-73.997574
22
-69.752487
32
-63.132454
13
-95.253250
23
-75.018463
33
2.961331
0
3DFACE
8
0
70
0
10
-132.883423
20
-80.237137
30
1.722639
11
-158.111023
21
-37.452751
31
-2.745022
12
-123.966789
22
-29.560768
32
-99.054695
13
-102.591347
23
-72.602112
33
-94.735626
0
3DFACE
8
0
70
0
10
-123.966789
20
-29.560768
30
-99.054695
11
-158.111023
21
-37.452751
31
-2.745022
12
-149.526962
22
-35.912800
32
-2.489920
13
-117.712181
23
-28.896210
33
-86.369766
0
3DFACE
8
0
70
0
10
-132.883423
20
-80.237137
30
1.722639
11
-102.591347
21
-72.602112
31
-94.735626
12
-96.813217
22
-75.871101
32
-81.762451
13
-125.002548
23
-82.645874
33
2.257243
0
3DFACE
8
0
70
0
10
-43.017601
20
-88.724152
30
39.847408
11
-30.184191
21
-94.212807
31
14.608849
12
-28.200277
22
-85.261002
32
11.024042
13
-44.550549
23
-74.148010
33
71.857368
0
3DFACE
8
0
70
0
10
-43.017601
20
-88.724152
30
39.847408
11
-44.550549
21
-74.148010
31
71.857368
12
-89.346405
22
-75.892654
32
43.428555
13
-89.034668
23
-88.084190
33
23.079336
0
3DFACE
8
0
70
0
10
-89.034668
20
-88.084190
30
23.079336
11
-89.346405
21
-75.892654
31
43.428555
12
-96.651009
22
-83.775192
32
2.520010
13
-98.490501
23
-90.700157
33
4.155856
0
3DFACE
8
0
70
0
10
-30.184191
20
-94.212807
30
14.608849
11
-35.027004
21
-99.000557
31
-14.507069
12
-29.008757
22
-90.011009
32
-56.860691
13
-28.200277
23
-85.261002
33
11.024042
0
3DFACE
8
0
70
0
10
-98.490501
20
-90.700157
30
4.155856
11
-96.651009
21
-83.775192
31
2.520010
12
-79.244240
22
-86.203598
32
-40.238178
13
-83.840782
23
-94.763855
33
-12.251076
0
3DFACE
8
0
70
0
10
-83.840782
20
-94.763855
30
-12.251076
11
-79.244240
21
-86.203598
31
-40.238178
12
-29.008757
22
-90.011009
32
-56.860691
13
-35.027004
23
-99.000557
33
-14.507069
0
3DFACE
8
0
70
0
10
-30.475010
20
-128.395370
30
-3.239585
11
-44.134567
21
-121.142662
31
31.523495
12
-39.275486
22
-111.871040
32
37.362587
13
-32.712791
23
-129.570663
33
45.446926
0
3DFACE
8
0
70
0
10
-44.134567
20
-121.142662
30
31.523495
11
-80.594322
21
-122.620010
31
15.149029
12
-73.563690
22
-115.206757
32
37.362587
13
-39.275486
23
-111.871040
33
37.362587
0
3DFACE
8
0
70
0
10
-85.737679
20
-130.672699
30
-10.381376
11
-81.708481
21
-129.570663
31
45.446926
12
-73.563690
22
-115.206757
32
37.362587
13
-80.594322
23
-122.620010
33
15.149029
0
3DFACE
8
0
70
0
10
-5.865551
20
-135.648636
30
-38.876549
11
-30.475010
21
-128.395370
31
-3.239585
12
-32.712791
22
-129.570663
32
45.446926
13
-21.214268
23
-150.698959
33
33.897873
0
3DFACE
8
0
70
0
10
-87.669670
20
-138.995087
30
-47.205238
11
-91.042450
21
-150.797134
31
37.747562
12
-81.708481
22
-129.570663
32
45.446926
13
-85.737679
23
-130.672699
33
-10.381376
0
3DFACE
8
0
70
0
10
-87.669670
20
-138.995087
30
-47.205238
11
-5.865551
21
-135.648636
31
-38.876549
12
-21.214268
22
-150.698959
32
33.897873
13
-91.042450
23
-150.797134
33
37.747562
0
3DFACE
8
0
70
0
10
-32.712791
20
-121.798286
30
106.656898
11
-32.712791
21
-129.570663
31
45.446926
12
-39.275486
22
-111.871040
32
37.362587
13
-39.275486
23
-102.842522
33
91.258163
0
3DFACE
8
0
70
0
10
-39.275486
20
-102.842522
30
91.258163
11
-39.275486
21
-111.871040
31
37.362587
12
-73.563690
22
-115.206757
32
37.362587
13
-73.563690
23
-102.670731
33
91.258163
0
3DFACE
8
0
70
0
10
-81.708481
20
-121.798286
30
106.656898
11
-73.563690
21
-102.670731
31
91.258163
12
-73.563690
22
-115.206757
32
37.362587
13
-81.708481
23
-129.570663
33
45.446926
0
3DFACE
8
0
70
0
10
-17.364586
20
-152.763504
30
106.656898
11
-21.214268
21
-150.698959
31
33.897873
12
-32.712791
22
-129.570663
32
45.446926
13
-32.712791
23
-121.798286
33
106.656898
0
3DFACE
8
0
70
0
10
-87.192764
20
-152.935318
30
106.656898
11
-81.708481
21
-121.798286
31
106.656898
12
-81.708481
22
-129.570663
32
45.446926
13
-91.042450
23
-150.797134
33
37.747562
0
3DFACE
8
0
70
0
10
-87.192764
20
-152.935318
30
106.656898
11
-91.042450
21
-150.797134
31
37.747562
12
-21.214268
22
-150.698959
32
33.897873
13
-17.364586
23
-152.763504
33
106.656898
0
3DFACE
8
0
70
0
10
-232.195251
20
113.426483
30
229.939117
11
-215.373749
21
123.198021
31
230.895050
12
-233.310776
22
133.611526
32
225.926392
13
-247.317535
23
121.886360
33
214.037872
0
3DFACE
8
0
70
0
10
-91.414642
20
84.372635
30
-40.898521
11
-68.430092
21
103.672539
31
-10.877887
12
-63.120792
22
89.852921
32
-52.230225
13
-63.120792
23
89.852921
33
-52.230225
0
3DFACE
8
0
70
0
10
-92.440254
20
75.497864
30
38.985851
11
-63.095955
21
72.402809
31
50.272022
12
-68.430092
22
103.672539
32
-10.877887
13
-68.430092
23
103.672539
33
-10.877887
0
3DFACE
8
0
70
0
10
-162.095581
20
107.057709
30
61.901230
11
-165.159683
21
98.887833
31
98.179619
12
-212.511398
22
82.344734
32
90.441193
13
-209.470535
23
92.750916
33
54.799248
0
3DFACE
8
0
70
0
10
-197.440521
20
144.171997
30
70.234367
11
-199.238800
21
137.446243
31
107.005402
12
-165.159683
22
98.887833
32
98.179619
13
-162.095581
23
107.057709
33
61.901230
0
3DFACE
8
0
70
0
10
-239.272339
20
117.459930
30
98.751465
11
-199.238800
21
137.446243
31
107.005402
12
-197.440521
22
144.171997
32
70.234367
13
-237.507584
23
125.955399
33
62.483101
0
3DFACE
8
0
70
0
10
-209.470535
20
92.750916
30
54.799248
11
-212.511398
21
82.344734
31
90.441193
12
-239.272339
22
117.459930
32
98.751465
13
-237.507584
23
125.955399
33
62.483101
0
3DFACE
8
0
70
0
10
-216.005432
20
72.455269
30
87.397392
11
-152.916611
21
96.134300
31
98.174843
12
-155.948196
22
88.656586
32
131.429688
13
-219.133575
23
61.858475
33
120.721252
0
3DFACE
8
0
70
0
10
-152.916611
20
96.134300
30
98.174843
11
-197.283386
21
148.977921
31
110.419518
12
-198.714584
22
143.487473
32
143.491898
13
-155.948196
23
88.656586
33
131.429688
0
3DFACE
8
0
70
0
10
-252.204239
20
112.777664
30
132.172394
11
-198.714584
21
143.487473
31
143.491898
12
-197.283386
22
148.977921
32
110.419518
13
-250.745316
23
120.649475
33
98.929680
0
3DFACE
8
0
70
0
10
-216.005432
20
72.455269
30
87.397392
11
-219.133575
21
61.858475
31
120.721252
12
-252.204239
22
112.777664
32
132.172394
13
-250.745316
23
120.649475
33
98.929680
0
3DFACE
8
0
70
0
10
-216.005432
20
72.455269
30
87.397392
11
-212.511398
21
82.344734
31
90.441193
12
-165.159683
22
98.887833
32
98.179619
13
-152.916611
23
96.134300
33
98.174843
0
3DFACE
8
0
70
0
10
-219.133575
20
61.858475
30
120.721252
11
-155.948196
21
88.656586
31
131.429688
12
-167.969284
22
91.396500
32
131.444717
13
-215.375320
23
72.544136
33
124.009010
0
3DFACE
8
0
70
0
10
-152.916611
20
96.134300
30
98.174843
11
-165.159683
21
98.887833
31
98.179619
12
-199.238800
22
137.446243
32
107.005402
13
-197.283386
23
148.977921
33
110.419518
0
3DFACE
8
0
70
0
10
-155.948196
20
88.656586
30
131.429688
11
-198.714584
21
143.487473
31
143.491898
12
-200.848312
22
131.426697
32
139.915497
13
-167.969284
23
91.396500
33
131.444717
0
3DFACE
8
0
70
0
10
-252.204239
20
112.777664
30
132.172394
11
-240.890503
21
109.670052
31
132.007370
12
-200.848312
22
131.426697
32
139.915497
13
-198.714584
23
143.487473
33
143.491898
0
3DFACE
8
0
70
0
10
-250.745316
20
120.649475
30
98.929680
11
-197.283386
21
148.977921
31
110.419518
12
-199.238800
22
137.446243
32
107.005402
13
-239.272339
23
117.459930
33
98.751465
0
3DFACE
8
0
70
0
10
-219.133575
20
61.858475
30
120.721252
11
-215.375320
21
72.544136
31
124.009010
12
-240.890503
22
109.670052
32
132.007370
13
-252.204239
23
112.777664
33
132.172394
0
3DFACE
8
0
70
0
10
-216.005432
20
72.455269
30
87.397392
11
-250.745316
21
120.649475
31
98.929680
12
-239.272339
22
117.459930
32
98.751465
13
-212.511398
23
82.344734
33
90.441193
0
3DFACE
8
0
70
0
10
-214.451401
20
93.287636
30
124.890533
11
-215.375320
21
72.544136
31
124.009010
12
-167.969284
22
91.396500
32
131.444717
13
-185.886826
23
109.179138
33
127.623993
0
3DFACE
8
0
70
0
10
-185.886826
20
109.179138
30
127.623993
11
-167.969284
21
91.396500
31
131.444717
12
-200.848312
22
131.426697
32
139.915497
13
-211.873657
23
130.517776
33
124.299065
0
3DFACE
8
0
70
0
10
-235.308304
20
113.525681
30
122.024750
11
-211.873657
21
130.517776
31
124.299065
12
-200.848312
22
131.426697
32
139.915497
13
-240.890503
23
109.670052
33
132.007370
0
3DFACE
8
0
70
0
10
-214.451401
20
93.287636
30
124.890533
11
-235.308304
21
113.525681
31
122.024750
12
-240.890503
22
109.670052
32
132.007370
13
-215.375320
23
72.544136
33
124.009010
0
3DFACE
8
0
70
0
10
-171.868820
20
107.889267
30
185.401443
11
-169.637482
21
107.177582
31
172.403351
12
-168.811768
22
117.102531
32
170.996445
13
-170.924454
23
117.812172
33
183.993332
0
3DFACE
8
0
70
0
10
-170.924454
20
117.812172
30
183.993332
11
-168.811768
21
117.102531
31
170.996445
12
-168.524475
22
127.387817
32
169.496887
13
-170.760635
23
128.097427
33
182.453262
0
3DFACE
8
0
70
0
10
-256.079926
20
118.165268
30
153.571259
11
-224.901978
21
136.989319
31
156.231873
12
-211.873657
22
130.517776
32
124.299065
13
-235.308304
23
113.525681
33
122.024750
0
3DFACE
8
0
70
0
10
-223.206619
20
99.493835
30
162.028198
11
-256.079926
21
118.165268
31
153.571259
12
-235.308304
22
113.525681
32
122.024750
13
-214.451401
23
93.287636
33
124.890533
0
3DFACE
8
0
70
0
10
-232.195251
20
113.426483
30
229.939117
11
-223.206619
21
99.493835
31
162.028198
12
-194.495880
22
119.761955
32
179.328812
13
-215.373749
23
123.198021
33
230.895050
0
3DFACE
8
0
70
0
10
-215.373749
20
123.198021
30
230.895050
11
-194.495880
21
119.761955
31
179.328812
12
-224.901978
22
136.989319
32
156.231873
13
-233.310776
23
133.611526
33
225.926392
0
3DFACE
8
0
70
0
10
-247.317535
20
121.886360
30
214.037872
11
-233.310776
21
133.611526
31
225.926392
12
-224.901978
22
136.989319
32
156.231873
13
-256.079926
23
118.165268
33
153.571259
0
3DFACE
8
0
70
0
10
-232.195251
20
113.426483
30
229.939117
11
-247.317535
21
121.886360
31
214.037872
12
-256.079926
22
118.165268
32
153.571259
13
-223.206619
23
99.493835
33
162.028198
0
3DFACE
8
0
70
0
10
-171.868820
20
107.889267
30
185.401443
11
-223.206619
21
99.493835
31
162.028198
12
-214.451401
22
93.287636
32
124.890533
13
-169.637482
23
107.177582
33
172.403351
0
3DFACE
8
0
70
0
10
-169.637482
20
107.177582
30
172.403351
11
-214.451401
21
93.287636
31
124.890533
12
-185.886826
22
109.179138
32
127.623993
13
-168.811768
23
117.102531
33
170.996445
0
3DFACE
8
0
70
0
10
-171.868820
20
107.889267
30
185.401443
11
-170.924454
21
117.812172
31
183.993332
12
-194.495880
22
119.761955
32
179.328812
13
-223.206619
23
99.493835
33
162.028198
0
3DFACE
8
0
70
0
10
-168.811768
20
117.102531
30
170.996445
11
-185.886826
21
109.179138
31
127.623993
12
-211.873657
22
130.517776
32
124.299065
13
-168.524475
23
127.387817
33
169.496887
0
3DFACE
8
0
70
0
10
-170.760635
20
128.097427
30
182.453262
11
-168.524475
21
127.387817
31
169.496887
12
-211.873657
22
130.517776
32
124.299065
13
-224.901978
23
136.989319
33
156.231873
0
3DFACE
8
0
70
0
10
-170.924454
20
117.812172
30
183.993332
11
-170.760635
21
128.097427
31
182.453262
12
-224.901978
22
136.989319
32
156.231873
13
-194.495880
23
119.761955
33
179.328812
0
3DFACE
8
0
70
0
10
22.275234
20
-78.219406
30
6.793392
11
23.682680
21
-73.277374
31
72.221870
12
-5.931536
22
-74.985573
32
96.730072
13
-1.649185
23
-69.485641
33
6.227172
0
3DFACE
8
0
70
0
10
22.275234
20
-78.219406
30
6.793392
11
-1.649185
21
-69.485641
31
6.227172
12
2.804774
22
-63.765312
32
-87.902489
13
39.257683
23
-76.961327
33
-60.765621
0
3DFACE
8
0
70
0
10
2.804774
20
-63.765312
30
-87.902489
11
-1.649185
21
-69.485641
31
6.227172
12
-28.200277
22
-85.261002
32
11.024042
13
-29.008757
23
-90.011009
33
-56.860691
0
3DFACE
8
0
70
0
10
-1.649185
20
-69.485641
30
6.227172
11
-5.931536
21
-74.985573
31
96.730072
12
-44.550549
22
-74.148010
32
71.857368
13
-28.200277
23
-85.261002
33
11.024042
0
3DFACE
8
0
70
0
10
-12.308717
20
129.845901
30
126.730995
11
-1.141505
21
130.331924
31
122.384941
12
8.104148
22
146.783783
32
128.370453
13
-12.935908
23
146.949036
33
133.003143
0
3DFACE
8
0
70
0
10
-12.935908
20
146.949036
30
133.003143
11
8.104148
21
146.783783
31
128.370453
12
0.909100
22
154.724426
32
126.405045
13
-12.509444
23
157.906586
33
128.738327
0
3DFACE
8
0
70
0
10
-1.141505
20
130.331924
30
122.384941
11
1.154753
21
127.261459
31
109.169632
12
13.013133
22
144.493484
32
110.625557
13
8.104148
23
146.783783
33
128.370453
0
3DFACE
8
0
70
0
10
-12.308717
20
129.845901
30
126.730995
11
-11.315985
21
124.674377
31
114.104263
12
1.154753
22
127.261459
32
109.169632
13
-1.141505
23
130.331924
33
122.384941
0
3DFACE
8
0
70
0
10
-12.509444
20
157.906586
30
128.738327
11
0.909100
21
154.724426
31
126.405045
12
4.567800
22
155.545486
32
109.866776
13
-11.288383
23
159.198959
33
113.828224
0
3DFACE
8
0
70
0
10
8.104148
20
146.783783
30
128.370453
11
13.013133
21
144.493484
31
110.625557
12
4.567800
22
155.545486
32
109.866776
13
0.909100
23
154.724426
33
126.405045
0
3DFACE
8
0
70
0
10
-6.712523
20
167.993484
30
110.250443
11
-6.819786
21
159.181183
31
111.323112
12
5.136088
22
157.006760
32
106.972534
13
6.263501
23
175.001038
33
109.455368
0
3DFACE
8
0
70
0
10
5.136088
20
157.006760
30
106.972534
11
15.675629
21
157.933273
31
101.460205
12
19.844219
22
168.003616
32
98.151314
13
6.263501
23
175.001038
33
109.455368
0
3DFACE
8
0
70
0
10
0.751092
20
110.526794
30
129.131439
11
-2.214558
21
128.126541
31
117.413376
12
-11.837672
22
126.814232
32
119.321335
13
-12.754997
23
110.337791
33
128.494934
0
3DFACE
8
0
70
0
10
44.682537
20
126.159332
30
85.961334
11
43.039745
21
136.292572
31
85.616470
12
16.892607
22
129.693756
32
104.578697
13
23.592533
23
108.528572
33
111.826416
0
3DFACE
8
0
70
0
10
-2.214558
20
128.126541
30
117.413376
11
0.751092
21
110.526794
31
129.131439
12
20.484035
22
112.562637
32
122.052162
13
12.997690
23
128.369751
33
118.812363
0
3DFACE
8
0
70
0
10
38.403652
20
165.395065
30
84.700966
11
45.822681
21
167.277328
31
81.834114
12
21.059874
22
173.164734
32
97.024429
13
23.356895
23
169.593369
33
100.276505
0
3DFACE
8
0
70
0
10
-10.483570
20
171.460022
30
108.020943
11
-10.987118
21
169.582245
31
111.263695
12
5.265460
22
176.964447
32
110.843819
13
5.841125
23
180.860107
33
106.432549
0
3DFACE
8
0
70
0
10
5.841125
20
180.860107
30
106.432549
11
5.265460
21
176.964447
31
110.843819
12
23.356895
22
169.593369
32
100.276505
13
21.059874
23
173.164734
33
97.024429
0
3DFACE
8
0
70
0
10
-12.528576
20
85.684830
30
126.230629
11
5.891781
21
93.425110
31
121.427399
12
2.811905
22
101.910507
32
118.985420
13
-12.225050
23
99.157265
33
123.195251
0
3DFACE
8
0
70
0
10
-10.346434
20
45.684944
30
104.408379
11
11.044678
21
57.291241
31
103.167992
12
5.891781
22
93.425110
32
121.427399
13
-12.528576
23
85.684830
33
126.230629
0
3DFACE
8
0
70
0
10
44.682537
20
126.159332
30
85.961334
11
23.592533
21
108.528572
31
111.826416
12
23.818079
22
105.546158
32
102.434540
13
48.205891
23
115.720360
33
89.618927
0
3DFACE
8
0
70
0
10
23.818079
20
105.546158
30
102.434540
11
38.663719
21
81.413017
31
72.777771
12
50.739010
22
108.907188
32
57.294739
13
48.205891
23
115.720360
33
89.618927
0
3DFACE
8
0
70
0
10
11.044678
20
57.291241
30
103.167992
11
38.663719
21
81.413017
31
72.777771
12
23.818079
22
105.546158
32
102.434540
13
5.891781
23
93.425110
33
121.427399
0
3DFACE
8
0
70
0
10
5.891781
20
93.425110
30
121.427399
11
23.818079
21
105.546158
31
102.434540
12
23.592533
22
108.528572
32
111.826416
13
2.811905
23
101.910507
33
118.985420
0
3DFACE
8
0
70
0
10
-12.754997
20
110.337791
30
128.494934
11
-12.225050
21
99.157265
31
123.195251
12
2.811905
22
101.910507
32
118.985420
13
0.751092
23
110.526794
33
129.131439
0
3DFACE
8
0
70
0
10
-11.837672
20
126.814232
30
119.321335
11
-2.214558
21
128.126541
31
117.413376
12
1.154753
22
127.261459
32
109.169632
13
-11.315985
23
124.674377
33
114.104263
0
3DFACE
8
0
70
0
10
12.997690
20
128.369751
30
118.812363
11
16.892607
21
129.693756
31
104.578697
12
1.154753
22
127.261459
32
109.169632
13
-2.214558
23
128.126541
33
117.413376
0
POINT
8
0
70
0
10
44.325809
20
111.370888
30
105.103508
0
3DFACE
8
0
70
0
10
0.751092
20
110.526794
30
129.131439
11
2.811905
21
101.910507
31
118.985420
12
23.592533
22
108.528572
32
111.826416
13
20.484035
23
112.562637
33
122.052162
0
3DFACE
8
0
70
0
10
20.484035
20
112.562637
30
122.052162
11
44.325809
21
111.370888
31
105.103508
12
12.997690
22
128.369751
32
118.812363
13
12.997690
23
128.369751
33
118.812363
0
3DFACE
8
0
70
0
10
12.997690
20
128.369751
30
118.812363
11
44.325809
21
111.370888
31
105.103508
12
16.892607
22
129.693756
32
104.578697
13
16.892607
23
129.693756
33
104.578697
0
3DFACE
8
0
70
0
10
44.325809
20
111.370888
30
105.103508
11
23.592533
21
108.528572
31
111.826416
12
16.892607
22
129.693756
32
104.578697
13
16.892607
23
129.693756
33
104.578697
0
3DFACE
8
0
70
0
10
23.592533
20
108.528572
30
111.826416
11
44.325809
21
111.370888
31
105.103508
12
20.484035
22
112.562637
32
122.052162
13
20.484035
23
112.562637
33
122.052162
0
3DFACE
8
0
70
0
10
45.822681
20
167.277328
30
81.834114
11
38.403652
21
165.395065
31
84.700966
12
55.721832
22
162.939423
32
48.667622
13
53.479145
23
163.509781
33
47.645241
0
3DFACE
8
0
70
0
10
38.403652
20
165.395065
30
84.700966
11
37.269016
21
157.265640
31
85.791481
12
58.501190
22
156.526855
32
50.107876
13
55.721832
23
162.939423
33
48.667622
0
3DFACE
8
0
70
0
10
37.269016
20
157.265640
30
85.791481
11
39.810677
21
145.121445
31
85.880440
12
58.299107
22
144.293625
32
52.356346
13
58.501190
23
156.526855
33
50.107876
0
3DFACE
8
0
70
0
10
53.479145
20
163.509781
30
47.645241
11
55.721832
21
162.939423
31
48.667622
12
41.414547
22
161.150146
32
20.318176
13
39.814774
23
160.246017
33
22.044508
0
3DFACE
8
0
70
0
10
58.501190
20
156.526855
30
50.107876
11
45.052750
21
159.952713
31
17.648354
12
41.414547
22
161.150146
32
20.318176
13
55.721832
23
162.939423
33
48.667622
0
3DFACE
8
0
70
0
10
58.299107
20
144.293625
30
52.356346
11
42.368172
21
149.109055
31
15.823580
12
45.052750
22
159.952713
32
17.648354
13
58.501190
23
156.526855
33
50.107876
0
3DFACE
8
0
70
0
10
39.814774
20
160.246017
30
22.044508
11
41.414547
21
161.150146
31
20.318176
12
0.271529
22
161.229858
32
-1.327035
13
0.340122
23
159.912338
33
-0.220073
0
3DFACE
8
0
70
0
10
45.052750
20
159.952713
30
17.648354
11
0.351103
21
159.891342
31
-2.571042
12
0.271529
22
161.229858
32
-1.327035
13
41.414547
23
161.150146
33
20.318176
0
3DFACE
8
0
70
0
10
42.368172
20
149.109055
30
15.823580
11
0.200949
21
147.025970
31
-1.069461
12
0.351103
22
159.891342
32
-2.571042
13
45.052750
23
159.952713
33
17.648354
0
3DFACE
8
0
70
0
10
50.739010
20
108.907188
30
57.294739
11
57.708092
21
124.309937
31
53.708672
12
44.682537
22
126.159332
32
85.961334
13
48.205891
23
115.720360
33
89.618927
0
3DFACE
8
0
70
0
10
39.810677
20
145.121445
30
85.880440
11
43.039745
21
136.292572
31
85.616470
12
58.299107
22
144.293625
32
52.356346
13
58.299107
23
144.293625
33
52.356346
0
3DFACE
8
0
70
0
10
44.682537
20
126.159332
30
85.961334
11
57.708092
21
124.309937
31
53.708672
12
58.299107
22
144.293625
32
52.356346
13
43.039745
23
136.292572
33
85.616470
0
3DFACE
8
0
70
0
10
57.708092
20
124.309937
30
53.708672
11
41.248291
21
132.431183
31
18.742130
12
42.368172
22
149.109055
32
15.823580
13
58.299107
23
144.293625
33
52.356346
0
3DFACE
8
0
70
0
10
41.248291
20
132.431183
30
18.742130
11
-0.256354
21
130.929184
31
3.503741
12
0.200949
22
147.025970
32
-1.069461
13
42.368172
23
149.109055
33
15.823580
0
3DFACE
8
0
70
0
10
-10.483570
20
171.460022
30
108.020943
11
5.841125
21
180.860107
31
106.432549
12
7.845806
22
207.617050
32
104.483025
13
-10.504650
23
206.085495
33
108.231750
0
3DFACE
8
0
70
0
10
-10.504650
20
206.085495
30
108.231750
11
7.845806
21
207.617050
31
104.483025
12
8.632432
22
210.820236
32
100.217949
13
-10.203211
23
210.437378
33
105.217247
0
3DFACE
8
0
70
0
10
5.841125
20
180.860107
30
106.432549
11
21.059874
21
173.164734
31
97.024429
12
33.368725
22
206.534027
32
94.721169
13
7.845806
23
207.617050
33
104.483025
0
3DFACE
8
0
70
0
10
7.845806
20
207.617050
30
104.483025
11
33.368725
21
206.534027
31
94.721169
12
32.628780
22
210.208862
32
90.608871
13
8.632432
23
210.820236
33
100.217949
0
3DFACE
8
0
70
0
10
21.059874
20
173.164734
30
97.024429
11
45.822681
21
167.277328
31
81.834114
12
51.002285
22
200.121628
32
67.537445
13
33.368725
23
206.534027
33
94.721169
0
3DFACE
8
0
70
0
10
33.368725
20
206.534027
30
94.721169
11
51.002285
21
200.121628
31
67.537445
12
43.485016
22
205.102142
32
65.814827
13
32.628780
23
210.208862
33
90.608871
0
3DFACE
8
0
70
0
10
45.822681
20
167.277328
30
81.834114
11
53.479145
21
163.509781
31
47.645241
12
57.528332
22
200.426453
32
44.210960
13
51.002285
23
200.121628
33
67.537445
0
3DFACE
8
0
70
0
10
51.002285
20
200.121628
30
67.537445
11
57.528332
21
200.426453
31
44.210960
12
51.362854
22
203.557373
32
45.132713
13
43.485016
23
205.102142
33
65.814827
0
3DFACE
8
0
70
0
10
53.479145
20
163.509781
30
47.645241
11
39.814774
21
160.246017
31
22.044508
12
40.758556
22
193.541306
32
20.902712
13
57.528332
23
200.426453
33
44.210960
0
3DFACE
8
0
70
0
10
57.528332
20
200.426453
30
44.210960
11
40.758556
21
193.541306
31
20.902712
12
35.336681
22
198.485275
32
23.892635
13
51.362854
23
203.557373
33
45.132713
0
3DFACE
8
0
70
0
10
39.814774
20
160.246017
30
22.044508
11
0.340122
21
159.912338
31
-0.220073
12
0.487364
22
190.708832
32
-1.692546
13
40.758556
23
193.541306
33
20.902712
0
3DFACE
8
0
70
0
10
40.758556
20
193.541306
30
20.902712
11
0.487364
21
190.708832
31
-1.692546
12
0.069514
22
195.031433
32
2.486109
13
35.336681
23
198.485275
33
23.892635
0
3DFACE
8
0
70
0
10
50.739010
20
108.907188
30
57.294739
11
38.477741
21
111.979073
31
24.143858
12
41.248291
22
132.431183
32
18.742130
13
57.708092
23
124.309937
33
53.708672
0
3DFACE
8
0
70
0
10
38.477741
20
111.979073
30
24.143858
11
-1.412559
21
124.077538
31
0.369427
12
-0.256354
22
130.929184
32
3.503741
13
41.248291
23
132.431183
33
18.742130
0
3DFACE
8
0
70
0
10
38.663719
20
81.413017
30
72.777771
11
30.261791
21
83.486725
31
53.092232
12
38.477741
22
111.979073
32
24.143858
13
50.739010
23
108.907188
33
57.294739
0
3DFACE
8
0
70
0
10
11.044678
20
57.291241
30
103.167992
11
10.187965
21
57.940903
31
86.467377
12
30.261791
22
83.486725
32
53.092232
13
38.663719
23
81.413017
33
72.777771
0
3DFACE
8
0
70
0
10
10.187965
20
57.940903
30
86.467377
11
-7.922491
21
56.428009
31
80.168030
12
-5.685028
22
76.868973
32
57.792553
13
30.261791
23
83.486725
33
53.092232
0
3DFACE
8
0
70
0
10
-10.346434
20
45.684944
30
104.408379
11
-7.922491
21
56.428009
31
80.168030
12
10.187965
22
57.940903
32
86.467377
13
10.187965
23
57.940903
33
86.467377
0
3DFACE
8
0
70
0
10
-10.346434
20
45.684944
30
104.408379
11
10.187965
21
57.940903
31
86.467377
12
11.044678
22
57.291241
32
103.167992
13
11.044678
23
57.291241
33
103.167992
0
3DFACE
8
0
70
0
10
-12.308717
20
129.845901
30
126.730995
11
-12.935908
21
146.949036
31
133.003143
12
-32.642033
22
146.783783
32
124.295982
13
-22.394241
23
130.331924
33
120.259743
0
3DFACE
8
0
70
0
10
-12.935908
20
146.949036
30
133.003143
11
-12.509444
21
157.906586
31
128.738327
12
-25.200277
22
154.724426
32
123.794212
13
-32.642033
23
146.783783
33
124.295982
0
3DFACE
8
0
70
0
10
-22.394241
20
130.331924
30
120.259743
11
-32.642033
21
146.783783
31
124.295982
12
-34.474548
22
144.493484
32
105.876968
13
-22.562679
23
127.261459
33
106.797981
0
3DFACE
8
0
70
0
10
-12.308717
20
129.845901
30
126.730995
11
-22.394241
21
130.331924
31
120.259743
12
-22.562679
22
127.261459
32
106.797981
13
-11.315985
23
124.674377
33
114.104263
0
3DFACE
8
0
70
0
10
-12.509444
20
157.906586
30
128.738327
11
-11.288383
21
159.198959
31
113.828224
12
-26.046190
22
155.545486
32
106.805496
13
-25.200277
23
154.724426
33
123.794212
0
3DFACE
8
0
70
0
10
-32.642033
20
146.783783
30
124.295982
11
-25.200277
21
154.724426
31
123.794212
12
-26.046190
22
155.545486
32
106.805496
13
-34.474548
23
144.493484
33
105.876968
0
3DFACE
8
0
70
0
10
-14.577900
20
167.882996
30
109.275520
11
-26.973640
21
175.645432
31
106.342171
12
-25.853243
22
157.574173
32
104.532349
13
-14.664702
23
159.429947
33
110.143585
0
3DFACE
8
0
70
0
10
-25.853243
20
157.574173
30
104.532349
11
-26.973640
21
175.645432
31
106.342171
12
-38.303574
22
167.891571
32
94.951714
13
-34.727097
23
158.443146
33
98.326431
0
3DFACE
8
0
70
0
10
-26.119698
20
110.526794
30
126.444458
11
-12.754997
21
110.337791
31
128.494934
12
-11.837672
22
126.814232
32
119.321335
13
-20.892445
23
128.126541
33
115.545662
0
3DFACE
8
0
70
0
10
-60.633053
20
126.159332
30
75.430176
11
-45.082256
21
108.528572
31
104.959198
12
-37.079849
22
129.693756
32
99.181648
13
-58.954498
23
136.292572
33
75.417427
0
3DFACE
8
0
70
0
10
-20.892445
20
128.126541
30
115.545662
11
-36.080498
21
128.369751
31
113.904724
12
-44.060131
22
112.562637
32
115.597984
13
-26.119698
23
110.526794
33
126.444458
0
3DFACE
8
0
70
0
10
-54.140175
20
165.395065
30
75.446938
11
-41.594002
21
169.593369
31
93.781662
12
-38.424961
22
173.164734
32
91.076164
13
-60.489601
23
167.277328
33
71.203293
0
3DFACE
8
0
70
0
10
-10.483570
20
171.460022
30
108.020943
11
-25.800177
21
181.825867
31
103.269112
12
-26.426691
22
177.756485
32
107.675194
13
-10.987118
23
169.582245
33
111.263695
0
3DFACE
8
0
70
0
10
-25.800177
20
181.825867
30
103.269112
11
-38.424961
21
173.164734
31
91.076164
12
-41.594002
22
169.593369
32
93.781662
13
-26.426691
23
177.756485
33
107.675194
0
3DFACE
8
0
70
0
10
-12.528576
20
85.684830
30
126.230629
11
-12.225050
21
99.157265
31
123.195251
12
-26.130669
22
101.910507
32
116.091270
13
-29.633104
23
93.425110
33
117.875046
0
3DFACE
8
0
70
0
10
-10.346434
20
45.684944
30
104.408379
11
-12.528576
21
85.684830
31
126.230629
12
-29.633104
22
93.425110
32
117.875046
13
-31.068380
23
57.291241
33
98.956848
0
3DFACE
8
0
70
0
10
-60.633053
20
126.159332
30
75.430176
11
-64.810883
21
115.720360
31
78.317665
12
-43.443630
22
105.546158
32
95.708626
13
-45.082256
23
108.528572
33
104.959198
0
3DFACE
8
0
70
0
10
-43.443630
20
105.546158
30
95.708626
11
-64.810883
21
115.720360
31
78.317665
12
-60.893265
22
108.907188
32
46.131931
13
-52.122902
23
81.413017
33
63.699448
0
3DFACE
8
0
70
0
10
-31.068380
20
57.291241
30
98.956848
11
-29.633104
21
93.425110
31
117.875046
12
-43.443630
22
105.546158
32
95.708626
13
-52.122902
23
81.413017
33
63.699448
0
3DFACE
8
0
70
0
10
-29.633104
20
93.425110
30
117.875046
11
-26.130669
21
101.910507
31
116.091270
12
-45.082256
22
108.528572
32
104.959198
13
-43.443630
23
105.546158
33
95.708626
0
3DFACE
8
0
70
0
10
-12.754997
20
110.337791
30
128.494934
11
-26.119698
21
110.526794
31
126.444458
12
-26.130669
22
101.910507
32
116.091270
13
-12.225050
23
99.157265
33
123.195251
0
3DFACE
8
0
70
0
10
-11.837672
20
126.814232
30
119.321335
11
-11.315985
21
124.674377
31
114.104263
12
-22.562679
22
127.261459
32
106.797981
13
-20.892445
23
128.126541
33
115.545662
0
3DFACE
8
0
70
0
10
-36.080498
20
128.369751
30
113.904724
11
-20.892445
21
128.126541
31
115.545662
12
-22.562679
22
127.261459
32
106.797981
13
-37.079849
23
129.693756
33
99.181648
0
POINT
8
0
70
0
10
-63.238716
20
111.370888
30
94.347466
0
3DFACE
8
0
70
0
10
-26.119698
20
110.526794
30
126.444458
11
-44.060131
21
112.562637
31
115.597984
12
-45.082256
22
108.528572
32
104.959198
13
-26.130669
23
101.910507
33
116.091270
0
3DFACE
8
0
70
0
10
-44.060131
20
112.562637
30
115.597984
11
-36.080498
21
128.369751
31
113.904724
12
-63.238716
22
111.370888
32
94.347466
13
-63.238716
23
111.370888
33
94.347466
0
3DFACE
8
0
70
0
10
-36.080498
20
128.369751
30
113.904724
11
-37.079849
21
129.693756
31
99.181648
12
-63.238716
22
111.370888
32
94.347466
13
-63.238716
23
111.370888
33
94.347466
0
3DFACE
8
0
70
0
10
-63.238716
20
111.370888
30
94.347466
11
-37.079849
21
129.693756
31
99.181648
12
-45.082256
22
108.528572
32
104.959198
13
-45.082256
23
108.528572
33
104.959198
0
3DFACE
8
0
70
0
10
-45.082256
20
108.528572
30
104.959198
11
-44.060131
21
112.562637
31
115.597984
12
-63.238716
22
111.370888
32
94.347466
13
-63.238716
23
111.370888
33
94.347466
0
3DFACE
8
0
70
0
10
-60.489601
20
167.277328
30
71.203293
11
-61.224648
21
163.509781
31
36.175297
12
-63.980389
22
162.939423
32
36.697853
13
-54.140175
23
165.395065
33
75.446938
0
3DFACE
8
0
70
0
10
-54.140175
20
165.395065
30
75.446938
11
-63.980389
21
162.939423
31
36.697853
12
-67.078659
22
156.526855
32
37.550365
13
-53.332695
23
157.265640
33
76.731651
0
3DFACE
8
0
70
0
10
-53.332695
20
157.265640
30
76.731651
11
-67.078659
21
156.526855
31
37.550365
12
-67.325806
22
144.293625
32
39.794331
13
-55.841640
23
145.121445
33
76.315575
0
3DFACE
8
0
70
0
10
-61.224648
20
163.509781
30
36.175297
11
-42.761574
21
160.246017
31
13.787185
12
-44.342854
22
161.150146
32
11.742759
13
-63.980389
23
162.939423
33
36.697853
0
3DFACE
8
0
70
0
10
-67.078659
20
156.526855
30
37.550365
11
-63.980389
21
162.939423
31
36.697853
12
-44.342854
22
161.150146
32
11.742759
13
-47.469124
23
159.952713
33
8.396517
0
3DFACE
8
0
70
0
10
-67.325806
20
144.293625
30
39.794331
11
-67.078659
21
156.526855
31
37.550365
12
-47.469124
22
159.952713
32
8.396517
13
-44.476368
23
149.109055
33
7.139455
0
3DFACE
8
0
70
0
10
-42.761574
20
160.246017
30
13.787185
11
0.340122
21
159.912338
31
-0.220073
12
0.271529
22
161.229858
32
-1.327035
13
-44.342854
23
161.150146
33
11.742759
0
3DFACE
8
0
70
0
10
-47.469124
20
159.952713
30
8.396517
11
-44.342854
21
161.150146
31
11.742759
12
0.271529
22
161.229858
32
-1.327035
13
0.351103
23
159.891342
33
-2.571042
0
3DFACE
8
0
70
0
10
-44.476368
20
149.109055
30
7.139455
11
-47.469124
21
159.952713
31
8.396517
12
0.351103
22
159.891342
32
-2.571042
13
0.200949
23
147.025970
33
-1.069461
0
3DFACE
8
0
70
0
10
-60.893265
20
108.907188
30
46.131931
11
-64.810883
21
115.720360
31
78.317665
12
-60.633053
22
126.159332
32
75.430176
13
-67.014259
23
124.309937
33
41.236904
0
3DFACE
8
0
70
0
10
-55.841640
20
145.121445
30
76.315575
11
-67.325806
21
144.293625
31
39.794331
12
-58.954498
22
136.292572
32
75.417427
13
-58.954498
23
136.292572
33
75.417427
0
3DFACE
8
0
70
0
10
-60.633053
20
126.159332
30
75.430176
11
-58.954498
21
136.292572
31
75.417427
12
-67.325806
22
144.293625
32
39.794331
13
-67.014259
23
124.309937
33
41.236904
0
3DFACE
8
0
70
0
10
-67.014259
20
124.309937
30
41.236904
11
-67.325806
21
144.293625
31
39.794331
12
-44.476368
22
149.109055
32
7.139455
13
-43.956573
23
132.431183
33
10.221967
0
3DFACE
8
0
70
0
10
-43.956573
20
132.431183
30
10.221967
11
-44.476368
21
149.109055
31
7.139455
12
0.200949
22
147.025970
32
-1.069461
13
-0.256354
23
130.929184
33
3.503741
0
3DFACE
8
0
70
0
10
-10.483570
20
171.460022
30
108.020943
11
-10.504650
21
206.085495
31
108.231750
12
-27.749464
22
207.617050
32
100.923630
13
-25.800177
23
181.825867
33
103.269112
0
3DFACE
8
0
70
0
10
-10.504650
20
206.085495
30
108.231750
11
-10.203211
21
210.437378
31
105.217247
12
-27.675976
22
210.820236
32
96.587250
13
-27.749464
23
207.617050
33
100.923630
0
3DFACE
8
0
70
0
10
-25.800177
20
181.825867
30
103.269112
11
-27.749464
21
207.617050
31
100.923630
12
-50.834042
22
206.534027
32
86.301208
13
-38.424961
23
173.164734
33
91.076164
0
3DFACE
8
0
70
0
10
-27.749464
20
207.617050
30
100.923630
11
-27.675976
21
210.820236
31
96.587250
12
-49.294464
22
210.208862
32
82.416862
13
-50.834042
23
206.534027
33
86.301208
0
3DFACE
8
0
70
0
10
-38.424961
20
173.164734
30
91.076164
11
-50.834042
21
206.534027
31
86.301208
12
-62.735733
22
200.121628
32
56.164070
13
-60.489601
23
167.277328
33
71.203293
0
3DFACE
8
0
70
0
10
-50.834042
20
206.534027
30
86.301208
11
-49.294464
21
210.208862
31
82.416862
12
-55.026211
22
205.102142
32
55.964077
13
-62.735733
23
200.121628
33
56.164070
0
3DFACE
8
0
70
0
10
-60.489601
20
167.277328
30
71.203293
11
-62.735733
21
200.121628
31
56.164070
12
-64.513626
22
200.426453
32
32.007229
13
-61.224648
23
163.509781
33
36.175297
0
3DFACE
8
0
70
0
10
-62.735733
20
200.121628
30
56.164070
11
-55.026211
21
205.102142
31
55.964077
12
-58.652744
22
203.557373
32
34.131573
13
-64.513626
23
200.426453
33
32.007229
0
3DFACE
8
0
70
0
10
-61.224648
20
163.509781
30
36.175297
11
-64.513626
21
200.426453
31
32.007229
12
-43.460579
22
193.541306
32
12.481117
13
-42.761574
23
160.246017
33
13.787185
0
3DFACE
8
0
70
0
10
-64.513626
20
200.426453
30
32.007229
11
-58.652744
21
203.557373
31
34.131573
12
-38.738106
22
198.485275
32
16.485437
13
-43.460579
23
193.541306
33
12.481117
0
3DFACE
8
0
70
0
10
-42.761574
20
160.246017
30
13.787185
11
-43.460579
21
193.541306
31
12.481117
12
0.487364
22
190.708832
32
-1.692546
13
0.340122
23
159.912338
33
-0.220073
0
3DFACE
8
0
70
0
10
-43.460579
20
193.541306
30
12.481117
11
-38.738106
21
198.485275
31
16.485437
12
0.069514
22
195.031433
32
2.486109
13
0.487364
23
190.708832
33
-1.692546
0
3DFACE
8
0
70
0
10
-60.893265
20
108.907188
30
46.131931
11
-67.014259
21
124.309937
31
41.236904
12
-43.956573
22
132.431183
32
10.221967
13
-42.662750
23
112.079620
33
21.348597
0
3DFACE
8
0
70
0
10
-42.662750
20
112.079620
30
21.348597
11
-43.956573
21
132.431183
31
10.221967
12
-0.256354
22
130.929184
32
3.503741
13
-1.412559
23
124.077538
33
0.369427
0
3DFACE
8
0
70
0
10
-52.122902
20
81.413017
30
63.699448
11
-60.893265
21
108.907188
31
46.131931
12
-42.662750
22
112.079620
32
21.348597
13
-37.432289
23
83.601311
33
49.907970
0
3DFACE
8
0
70
0
10
-31.068380
20
57.291241
30
98.956848
11
-52.122902
21
81.413017
31
63.699448
12
-37.432289
22
83.601311
32
49.907970
13
-26.921703
23
57.940903
33
82.756554
0
3DFACE
8
0
70
0
10
-26.921703
20
57.940903
30
82.756554
11
-37.432289
21
83.601311
31
49.907970
12
-5.685028
22
76.868973
32
57.792553
13
-7.922491
23
56.428009
33
80.168030
0
3DFACE
8
0
70
0
10
-10.346434
20
45.684944
30
104.408379
11
-26.921703
21
57.940903
31
82.756554
12
-7.922491
22
56.428009
32
80.168030
13
-7.922491
23
56.428009
33
80.168030
0
3DFACE
8
0
70
0
10
-10.346434
20
45.684944
30
104.408379
11
-31.068380
21
57.291241
31
98.956848
12
-26.921703
22
57.940903
32
82.756554
13
-26.921703
23
57.940903
33
82.756554
0
3DFACE
8
0
70
0
10
-14.664702
20
159.429947
30
110.143585
11
-11.288383
21
159.198959
31
113.828224
12
-10.987118
22
169.582245
32
111.263695
13
-14.577900
23
167.882996
33
109.275520
0
3DFACE
8
0
70
0
10
-25.853243
20
157.574173
30
104.532349
11
-26.046190
21
155.545486
31
106.805496
12
-11.288383
22
159.198959
32
113.828224
13
-14.664702
23
159.429947
33
110.143585
0
3DFACE
8
0
70
0
10
-26.973640
20
175.645432
30
106.342171
11
-14.577900
21
167.882996
31
109.275520
12
-10.987118
22
169.582245
32
111.263695
13
-26.426691
23
177.756485
33
107.675194
0
3DFACE
8
0
70
0
10
-25.853243
20
157.574173
30
104.532349
11
-34.727097
21
158.443146
31
98.326431
12
-37.765091
22
156.736115
32
99.067574
13
-26.046190
23
155.545486
33
106.805496
0
3DFACE
8
0
70
0
10
-34.727097
20
158.443146
30
98.326431
11
-38.303574
21
167.891571
31
94.951714
12
-41.594002
22
169.593369
32
93.781662
13
-37.765091
23
156.736115
33
99.067574
0
3DFACE
8
0
70
0
10
-26.973640
20
175.645432
30
106.342171
11
-26.426691
21
177.756485
31
107.675194
12
-41.594002
22
169.593369
32
93.781662
13
-38.303574
23
167.891571
33
94.951714
0
3DFACE
8
0
70
0
10
6.263501
20
175.001038
30
109.455368
11
5.265460
21
176.964447
31
110.843819
12
-10.987118
22
169.582245
32
111.263695
13
-6.712523
23
167.993484
33
110.250443
0
3DFACE
8
0
70
0
10
5.136088
20
157.006760
30
106.972534
11
-6.819786
21
159.181183
31
111.323112
12
-11.288383
22
159.198959
32
113.828224
13
4.567800
23
155.545486
33
109.866776
0
3DFACE
8
0
70
0
10
-6.819786
20
159.181183
30
111.323112
11
-6.712523
21
167.993484
31
110.250443
12
-10.987118
22
169.582245
32
111.263695
13
-11.288383
23
159.198959
33
113.828224
0
3DFACE
8
0
70
0
10
6.263501
20
175.001038
30
109.455368
11
19.844219
21
168.003616
31
98.151314
12
23.356895
22
169.593369
32
100.276505
13
5.265460
23
176.964447
33
110.843819
0
3DFACE
8
0
70
0
10
15.675629
20
157.933273
30
101.460205
11
18.488737
21
156.736115
31
104.692741
12
23.356895
22
169.593369
32
100.276505
13
19.844219
23
168.003616
33
98.151314
0
3DFACE
8
0
70
0
10
5.136088
20
157.006760
30
106.972534
11
4.567800
21
155.545486
31
109.866776
12
18.488737
22
156.736115
32
104.692741
13
15.675629
23
157.933273
33
101.460205
0
3DFACE
8
0
70
0
10
-1.412559
20
124.077538
30
0.369427
11
38.477741
21
111.979073
31
24.143858
12
66.454765
22
106.306702
32
-12.237965
13
-1.632908
23
118.035805
33
-12.707818
0
3DFACE
8
0
70
0
10
-1.632908
20
118.035805
30
-12.707818
11
-68.430092
21
103.672539
31
-10.877887
12
-42.662750
22
112.079620
32
21.348597
13
-1.412559
23
124.077538
33
0.369427
0
3DFACE
8
0
70
0
10
-68.430092
20
103.672539
30
-10.877887
11
-63.095955
21
72.402809
31
50.272022
12
-42.662750
22
112.079620
32
21.348597
13
-42.662750
23
112.079620
33
21.348597
0
3DFACE
8
0
70
0
10
-63.095955
20
72.402809
30
50.272022
11
-37.432289
21
83.601311
31
49.907970
12
-42.662750
22
112.079620
32
21.348597
13
-42.662750
23
112.079620
33
21.348597
0
3DFACE
8
0
70
0
10
59.792995
20
72.169380
30
50.073032
11
38.477741
21
111.979073
31
24.143858
12
30.261791
22
83.486725
32
53.092232
13
30.261791
23
83.486725
33
53.092232
0
3DFACE
8
0
70
0
10
66.454765
20
106.306702
30
-12.237965
11
38.477741
21
111.979073
31
24.143858
12
59.792995
22
72.169380
32
50.073032
13
59.792995
23
72.169380
33
50.073032
0
3DFACE
8
0
70
0
10
-1.549360
20
63.675194
30
55.981190
11
-37.432289
21
83.601311
31
49.907970
12
-63.095955
22
72.402809
32
50.272022
13
-63.095955
23
72.402809
33
50.272022
0
3DFACE
8
0
70
0
10
-5.685028
20
76.868973
30
57.792553
11
-37.432289
21
83.601311
31
49.907970
12
-1.549360
22
63.675194
32
55.981190
13
-1.549360
23
63.675194
33
55.981190
0
3DFACE
8
0
70
0
10
-5.685028
20
76.868973
30
57.792553
11
-1.549360
21
63.675194
31
55.981190
12
30.261791
22
83.486725
32
53.092232
13
30.261791
23
83.486725
33
53.092232
0
3DFACE
8
0
70
0
10
-1.549360
20
63.675194
30
55.981190
11
59.792995
21
72.169380
31
50.073032
12
30.261791
22
83.486725
32
53.092232
13
30.261791
23
83.486725
33
53.092232
0
3DFACE
8
0
70
0
10
0.069514
20
195.031433
30
2.486109
11
-2.833385
21
266.454590
31
26.060909
12
10.532404
22
262.518646
32
34.171806
13
35.336681
23
198.485275
33
23.892635
0
3DFACE
8
0
70
0
10
35.336681
20
198.485275
30
23.892635
11
10.532404
21
262.518646
31
34.171806
12
19.046093
22
259.824860
32
45.324566
13
51.362854
23
203.557373
33
45.132713
0
3DFACE
8
0
70
0
10
51.362854
20
203.557373
30
45.132713
11
19.046093
21
259.824860
31
45.324566
12
16.055788
22
260.321564
32
55.817760
13
43.485016
23
205.102142
33
65.814827
0
3DFACE
8
0
70
0
10
43.485016
20
205.102142
30
65.814827
11
16.055788
21
260.321564
31
55.817760
12
12.664006
22
260.849670
32
68.850922
13
32.628780
23
210.208862
33
90.608871
0
3DFACE
8
0
70
0
10
-10.203211
20
210.437378
30
105.217247
11
8.632432
21
210.820236
31
100.217949
12
1.747553
22
263.682983
32
74.452972
13
-6.946371
23
265.982300
33
77.540443
0
3DFACE
8
0
70
0
10
0.069514
20
195.031433
30
2.486109
11
-38.738106
21
198.485275
31
16.485437
12
-17.320999
22
270.261719
32
31.991096
13
-2.833385
23
266.454590
33
26.060909
0
3DFACE
8
0
70
0
10
-38.738106
20
198.485275
30
16.485437
11
-58.652744
21
203.557373
31
34.131573
12
-27.499857
22
272.764343
32
41.680374
13
-17.320999
23
270.261719
33
31.991096
0
3DFACE
8
0
70
0
10
-58.652744
20
203.557373
30
34.131573
11
-55.026211
21
205.102142
31
55.964077
12
-26.213030
22
272.072052
32
52.508434
13
-27.499857
23
272.764343
33
41.680374
0
3DFACE
8
0
70
0
10
-55.026211
20
205.102142
30
55.964077
11
-49.294464
21
210.208862
31
82.416862
12
-24.933054
22
271.301422
32
65.907364
13
-26.213030
23
272.072052
33
52.508434
0
3DFACE
8
0
70
0
10
-10.203211
20
210.437378
30
105.217247
11
-6.946371
21
265.982300
31
77.540443
12
-15.041919
22
268.350342
32
73.138496
13
-27.675976
23
210.820236
33
96.587250
0
3DFACE
8
0
70
0
10
32.628780
20
210.208862
30
90.608871
11
12.664006
21
260.849670
31
68.850922
12
1.747553
22
263.682983
32
74.452972
13
8.632432
23
210.820236
33
100.217949
0
3DFACE
8
0
70
0
10
-49.294464
20
210.208862
30
82.416862
11
-27.675976
21
210.820236
31
96.587250
12
-15.041919
22
268.350342
32
73.138496
13
-24.933054
23
271.301422
33
65.907364
0
3DFACE
8
0
70
0
10
17.279839
20
322.635803
30
70.860115
11
31.859894
21
322.891266
31
66.085060
12
24.062140
22
338.454651
32
65.828728
13
24.062140
23
338.454651
33
65.828728
0
3DFACE
8
0
70
0
10
25.367134
20
307.160522
30
65.590981
11
31.859894
21
322.891266
31
66.085060
12
17.279839
22
322.635803
32
70.860115
13
17.279839
23
322.635803
33
70.860115
0
3DFACE
8
0
70
0
10
11.076592
20
306.993134
30
64.840569
11
25.367134
21
307.160522
31
65.590981
12
17.279839
22
322.635803
32
70.860115
13
17.279839
23
322.635803
33
70.860115
0
3DFACE
8
0
70
0
10
11.076592
20
306.993134
30
64.840569
11
17.279839
21
322.635803
31
70.860115
12
3.278838
22
322.556396
32
64.584236
13
3.278838
23
322.556396
33
64.584236
0
3DFACE
8
0
70
0
10
3.278838
20
322.556396
30
64.584236
11
17.279839
21
322.635803
31
70.860115
12
9.771598
22
338.287170
32
65.078316
13
9.771598
23
338.287170
33
65.078316
0
3DFACE
8
0
70
0
10
17.279839
20
322.635803
30
70.860115
11
24.062140
21
338.454651
31
65.828728
12
9.771598
22
338.287170
32
65.078316
13
9.771598
23
338.287170
33
65.078316
0
3DFACE
8
0
70
0
10
31.859894
20
322.891266
30
66.085060
11
38.478188
21
323.173218
31
53.056248
12
27.450487
22
345.183044
32
52.693741
13
24.062140
23
338.454651
33
65.828728
0
3DFACE
8
0
70
0
10
29.296001
20
300.926575
30
52.357513
11
38.478188
21
323.173218
31
53.056248
12
31.859894
22
322.891266
32
66.085060
13
25.367134
23
307.160522
33
65.590981
0
3DFACE
8
0
70
0
10
9.086158
20
300.689819
30
51.296268
11
29.296001
21
300.926575
31
52.357513
12
25.367134
22
307.160522
32
65.590981
13
11.076592
23
306.993134
33
64.840569
0
3DFACE
8
0
70
0
10
9.086158
20
300.689819
30
51.296268
11
11.076592
21
306.993134
31
64.840569
12
3.278838
22
322.556396
32
64.584236
13
-1.941559
23
322.699585
33
50.933762
0
3DFACE
8
0
70
0
10
-1.941559
20
322.699585
30
50.933762
11
3.278838
21
322.556396
31
64.584236
12
9.771598
22
338.287170
32
65.078316
13
7.240627
23
344.946289
33
51.632500
0
3DFACE
8
0
70
0
10
9.771598
20
338.287170
30
65.078316
11
24.062140
21
338.454651
31
65.828728
12
27.450487
22
345.183044
32
52.693741
13
7.240627
23
344.946289
33
51.632500
0
3DFACE
8
0
70
0
10
33.257793
20
323.316315
30
39.405769
11
25.460039
21
338.879730
31
39.149441
12
27.450487
22
345.183044
32
52.693741
13
38.478188
23
323.173218
33
53.056248
0
3DFACE
8
0
70
0
10
29.296001
20
300.926575
30
52.357513
11
26.765034
21
307.585632
31
38.911694
12
33.257793
22
323.316315
32
39.405769
13
38.478188
23
323.173218
33
53.056248
0
3DFACE
8
0
70
0
10
9.086158
20
300.689819
30
51.296268
11
12.474493
21
307.418213
31
38.161282
12
26.765034
22
307.585632
32
38.911694
13
29.296001
23
300.926575
33
52.357513
0
3DFACE
8
0
70
0
10
9.086158
20
300.689819
30
51.296268
11
-1.941559
21
322.699585
31
50.933762
12
4.676738
22
322.981445
32
37.904949
13
12.474493
23
307.418213
33
38.161282
0
3DFACE
8
0
70
0
10
-1.941559
20
322.699585
30
50.933762
11
7.240627
21
344.946289
31
51.632500
12
11.169498
22
338.712219
32
38.399029
13
4.676738
23
322.981445
33
37.904949
0
3DFACE
8
0
70
0
10
11.169498
20
338.712219
30
38.399029
11
7.240627
21
344.946289
31
51.632500
12
27.450487
22
345.183044
32
52.693741
13
25.460039
23
338.879730
33
39.149441
0
3DFACE
8
0
70
0
10
19.256762
20
323.237000
30
33.129887
11
25.460039
21
338.879730
31
39.149441
12
33.257793
22
323.316315
32
39.405769
13
33.257793
23
323.316315
33
39.405769
0
3DFACE
8
0
70
0
10
26.765034
20
307.585632
30
38.911694
11
19.256762
21
323.237000
31
33.129887
12
33.257793
22
323.316315
32
39.405769
13
33.257793
23
323.316315
33
39.405769
0
3DFACE
8
0
70
0
10
12.474493
20
307.418213
30
38.161282
11
19.256762
21
323.237000
31
33.129887
12
26.765034
22
307.585632
32
38.911694
13
26.765034
23
307.585632
33
38.911694
0
3DFACE
8
0
70
0
10
12.474493
20
307.418213
30
38.161282
11
4.676738
21
322.981445
31
37.904949
12
19.256762
22
323.237000
32
33.129887
13
19.256762
23
323.237000
33
33.129887
0
3DFACE
8
0
70
0
10
4.676738
20
322.981445
30
37.904949
11
11.169498
21
338.712219
31
38.399029
12
19.256762
22
323.237000
32
33.129887
13
19.256762
23
323.237000
33
33.129887
0
3DFACE
8
0
70
0
10
19.256762
20
323.237000
30
33.129887
11
11.169498
21
338.712219
31
38.399029
12
25.460039
22
338.879730
32
39.149441
13
25.460039
23
338.879730
33
39.149441
0
3DFACE
8
0
70
0
10
16.892607
20
129.693756
30
104.578697
11
43.039745
21
136.292572
31
85.616470
12
28.459249
22
144.352783
32
109.000404
13
28.459249
23
144.352783
33
109.000404
0
3DFACE
8
0
70
0
10
43.039745
20
136.292572
30
85.616470
11
39.810677
21
145.121445
31
85.880440
12
28.459249
22
144.352783
32
109.000404
13
28.459249
23
144.352783
33
109.000404
0
3DFACE
8
0
70
0
10
1.154753
20
127.261459
30
109.169632
11
16.892607
21
129.693756
31
104.578697
12
13.013133
22
144.493484
32
110.625557
13
13.013133
23
144.493484
33
110.625557
0
3DFACE
8
0
70
0
10
16.892607
20
129.693756
30
104.578697
11
28.459249
21
144.352783
31
109.000404
12
13.013133
22
144.493484
32
110.625557
13
13.013133
23
144.493484
33
110.625557
0
3DFACE
8
0
70
0
10
28.459249
20
144.352783
30
109.000404
11
39.810677
21
145.121445
31
85.880440
12
18.488737
22
156.736115
32
104.692741
13
18.488737
23
156.736115
33
104.692741
0
3DFACE
8
0
70
0
10
39.810677
20
145.121445
30
85.880440
11
37.269016
21
157.265640
31
85.791481
12
18.488737
22
156.736115
32
104.692741
13
18.488737
23
156.736115
33
104.692741
0
3DFACE
8
0
70
0
10
13.013133
20
144.493484
30
110.625557
11
18.488737
21
156.736115
31
104.692741
12
4.567800
22
155.545486
32
109.866776
13
4.567800
23
155.545486
33
109.866776
0
3DFACE
8
0
70
0
10
28.459249
20
144.352783
30
109.000404
11
18.488737
21
156.736115
31
104.692741
12
13.013133
22
144.493484
32
110.625557
13
13.013133
23
144.493484
33
110.625557
0
3DFACE
8
0
70
0
10
18.488737
20
156.736115
30
104.692741
11
37.269016
21
157.265640
31
85.791481
12
23.356895
22
169.593369
32
100.276505
13
23.356895
23
169.593369
33
100.276505
0
3DFACE
8
0
70
0
10
37.269016
20
157.265640
30
85.791481
11
38.403652
21
165.395065
31
84.700966
12
23.356895
22
169.593369
32
100.276505
13
23.356895
23
169.593369
33
100.276505
0
3DFACE
8
0
70
0
10
-58.954498
20
136.292572
30
75.417427
11
-49.293026
21
144.352783
31
101.225479
12
-55.841640
22
145.121445
32
76.315575
13
-55.841640
23
145.121445
33
76.315575
0
3DFACE
8
0
70
0
10
-37.079849
20
129.693756
30
99.181648
11
-49.293026
21
144.352783
31
101.225479
12
-58.954498
22
136.292572
32
75.417427
13
-58.954498
23
136.292572
33
75.417427
0
3DFACE
8
0
70
0
10
-37.079849
20
129.693756
30
99.181648
11
-34.474548
21
144.493484
31
105.876968
12
-49.293026
22
144.352783
32
101.225479
13
-49.293026
23
144.352783
33
101.225479
0
3DFACE
8
0
70
0
10
-22.562679
20
127.261459
30
106.797981
11
-34.474548
21
144.493484
31
105.876968
12
-37.079849
22
129.693756
32
99.181648
13
-37.079849
23
129.693756
33
99.181648
0
3DFACE
8
0
70
0
10
-55.841640
20
145.121445
30
76.315575
11
-37.765091
21
156.736115
31
99.067574
12
-53.332695
22
157.265640
32
76.731651
13
-53.332695
23
157.265640
33
76.731651
0
3DFACE
8
0
70
0
10
-49.293026
20
144.352783
30
101.225479
11
-37.765091
21
156.736115
31
99.067574
12
-55.841640
22
145.121445
32
76.315575
13
-55.841640
23
145.121445
33
76.315575
0
3DFACE
8
0
70
0
10
-34.474548
20
144.493484
30
105.876968
11
-26.046190
21
155.545486
31
106.805496
12
-37.765091
22
156.736115
32
99.067574
13
-37.765091
23
156.736115
33
99.067574
0
3DFACE
8
0
70
0
10
-49.293026
20
144.352783
30
101.225479
11
-34.474548
21
144.493484
31
105.876968
12
-37.765091
22
156.736115
32
99.067574
13
-37.765091
23
156.736115
33
99.067574
0
3DFACE
8
0
70
0
10
-53.332695
20
157.265640
30
76.731651
11
-41.594002
21
169.593369
31
93.781662
12
-54.140175
22
165.395065
32
75.446938
13
-54.140175
23
165.395065
33
75.446938
0
3DFACE
8
0
70
0
10
-37.765091
20
156.736115
30
99.067574
11
-41.594002
21
169.593369
31
93.781662
12
-53.332695
22
157.265640
32
76.731651
13
-53.332695
23
157.265640
33
76.731651
0
3DFACE
8
0
70
0
10
27.064829
20
-108.975708
30
53.633789
11
26.566450
21
-85.166992
31
35.810463
12
21.365065
22
-86.329811
32
6.804132
13
21.365065
23
-86.329811
33
6.804132
0
3DFACE
8
0
70
0
10
27.064829
20
-108.975708
30
53.633789
11
21.365065
21
-86.329811
31
6.804132
12
21.933987
22
-103.750526
32
27.741308
13
21.933987
23
-103.750526
33
27.741308
0
3DFACE
8
0
70
0
10
27.064829
20
-108.975708
30
53.633789
11
75.532089
21
-86.944702
31
32.004494
12
26.566450
22
-85.166992
32
35.810463
13
26.566450
23
-85.166992
33
35.810463
0
3DFACE
8
0
70
0
10
27.064829
20
-108.975708
30
53.633789
11
69.160934
21
-109.877602
31
49.864571
12
75.532089
22
-86.944702
32
32.004494
13
75.532089
23
-86.944702
33
32.004494
0
3DFACE
8
0
70
0
10
69.160934
20
-109.877602
30
49.864571
11
89.968048
21
-88.168144
31
15.665455
12
75.532089
22
-86.944702
32
32.004494
13
75.532089
23
-86.944702
33
32.004494
0
3DFACE
8
0
70
0
10
69.160934
20
-109.877602
30
49.864571
11
81.899475
21
-107.531746
31
35.233055
12
89.968048
22
-88.168144
32
15.665455
13
89.968048
23
-88.168144
33
15.665455
0
3DFACE
8
0
70
0
10
34.881660
20
-99.454056
30
3.019181
11
21.365065
21
-86.329811
31
6.804132
12
34.247990
22
-88.033333
32
-21.087410
13
34.247990
23
-88.033333
33
-21.087410
0
3DFACE
8
0
70
0
10
21.933987
20
-103.750526
30
27.741308
11
21.365065
21
-86.329811
31
6.804132
12
34.881660
22
-99.454056
32
3.019181
13
34.881660
23
-99.454056
33
3.019181
0
3DFACE
8
0
70
0
10
74.241875
20
-103.688522
30
16.965078
11
80.525085
21
-88.807823
31
-4.979124
12
89.968048
22
-88.168144
32
15.665455
13
89.968048
23
-88.168144
33
15.665455
0
3DFACE
8
0
70
0
10
81.899475
20
-107.531746
30
35.233055
11
74.241875
21
-103.688522
31
16.965078
12
89.968048
22
-88.168144
32
15.665455
13
89.968048
23
-88.168144
33
15.665455
0
3DFACE
8
0
70
0
10
34.881660
20
-99.454056
30
3.019181
11
34.247990
21
-88.033333
31
-21.087410
12
80.525085
22
-88.807823
32
-4.979124
13
80.525085
23
-88.807823
33
-4.979124
0
3DFACE
8
0
70
0
10
74.241875
20
-103.688522
30
16.965078
11
34.881660
21
-99.454056
31
3.019181
12
80.525085
22
-88.807823
32
-4.979124
13
80.525085
23
-88.807823
33
-4.979124
0
3DFACE
8
0
70
0
10
-50.502579
20
-112.468681
30
59.494438
11
-38.329353
21
-108.691269
31
37.059452
12
-30.184191
22
-94.212807
32
14.608849
13
-30.184191
23
-94.212807
33
14.608849
0
3DFACE
8
0
70
0
10
-50.502579
20
-112.468681
30
59.494438
11
-30.184191
21
-94.212807
31
14.608849
12
-43.017601
22
-88.724152
32
39.847408
13
-43.017601
23
-88.724152
33
39.847408
0
3DFACE
8
0
70
0
10
-50.502579
20
-112.468681
30
59.494438
11
-43.017601
21
-88.724152
31
39.847408
12
-89.034668
22
-88.084190
32
23.079336
13
-89.034668
23
-88.084190
33
23.079336
0
3DFACE
8
0
70
0
10
-50.502579
20
-112.468681
30
59.494438
11
-89.034668
21
-88.084190
31
23.079336
12
-89.903618
22
-111.106972
32
44.618073
13
-89.903618
23
-111.106972
33
44.618073
0
3DFACE
8
0
70
0
10
-89.903618
20
-111.106972
30
44.618073
11
-89.034668
21
-88.084190
31
23.079336
12
-98.490501
22
-90.700157
32
4.155856
13
-98.490501
23
-90.700157
33
4.155856
0
3DFACE
8
0
70
0
10
-89.903618
20
-111.106972
30
44.618073
11
-98.490501
21
-90.700157
31
4.155856
12
-98.053070
22
-108.676079
32
27.702465
13
-98.053070
23
-108.676079
33
27.702465
0
3DFACE
8
0
70
0
10
-43.857338
20
-104.746422
30
10.802104
11
-35.027004
21
-99.000557
31
-14.507069
12
-30.184191
22
-94.212807
32
14.608849
13
-30.184191
23
-94.212807
33
14.608849
0
3DFACE
8
0
70
0
10
-38.329353
20
-108.691269
30
37.059452
11
-43.857338
21
-104.746422
31
10.802104
12
-30.184191
22
-94.212807
32
14.608849
13
-30.184191
23
-94.212807
33
14.608849
0
3DFACE
8
0
70
0
10
-98.053070
20
-108.676079
30
27.702465
11
-98.490501
21
-90.700157
31
4.155856
12
-85.584213
22
-106.087502
32
12.968054
13
-85.584213
23
-106.087502
33
12.968054
0
3DFACE
8
0
70
0
10
-85.584213
20
-106.087502
30
12.968054
11
-98.490501
21
-90.700157
31
4.155856
12
-83.840782
22
-94.763855
32
-12.251076
13
-83.840782
23
-94.763855
33
-12.251076
0
3DFACE
8
0
70
0
10
-85.584213
20
-106.087502
30
12.968054
11
-83.840782
21
-94.763855
31
-12.251076
12
-43.857338
22
-104.746422
32
10.802104
13
-43.857338
23
-104.746422
33
10.802104
0
3DFACE
8
0
70
0
10
-43.857338
20
-104.746422
30
10.802104
11
-83.840782
21
-94.763855
31
-12.251076
12
-35.027004
22
-99.000557
32
-14.507069
13
-35.027004
23
-99.000557
33
-14.507069
0
3DFACE
8
0
70
0
10
30.243422
20
-117.817467
30
27.234198
11
27.064829
21
-108.975708
31
53.633789
12
21.933987
22
-103.750526
32
27.741308
13
21.933987
23
-103.750526
33
27.741308
0
3DFACE
8
0
70
0
10
25.074961
20
-126.838463
30
-8.954342
11
30.243422
21
-117.817467
31
27.234198
12
21.933987
22
-103.750526
32
27.741308
13
21.933987
23
-103.750526
33
27.741308
0
3DFACE
8
0
70
0
10
69.552589
20
-121.432732
30
19.467260
11
69.160934
21
-109.877602
31
49.864571
12
30.243422
22
-117.817467
32
27.234198
13
30.243422
23
-117.817467
33
27.234198
0
3DFACE
8
0
70
0
10
30.243422
20
-117.817467
30
27.234198
11
69.160934
21
-109.877602
31
49.864571
12
27.064829
22
-108.975708
32
53.633789
13
27.064829
23
-108.975708
33
53.633789
0
3DFACE
8
0
70
0
10
80.504753
20
-131.286667
30
-3.558401
11
81.899475
21
-107.531746
31
35.233055
12
69.552589
22
-121.432732
32
19.467260
13
69.552589
23
-121.432732
33
19.467260
0
3DFACE
8
0
70
0
10
69.552589
20
-121.432732
30
19.467260
11
81.899475
21
-107.531746
31
35.233055
12
69.160934
22
-109.877602
32
49.864571
13
69.160934
23
-109.877602
33
49.864571
0
3DFACE
8
0
70
0
10
25.074961
20
-126.838463
30
-8.954342
11
21.933987
21
-103.750526
31
27.741308
12
34.881660
22
-99.454056
32
3.019181
13
34.881660
23
-99.454056
33
3.019181
0
3DFACE
8
0
70
0
10
9.458377
20
-135.573853
30
-48.399147
11
25.074961
21
-126.838463
31
-8.954342
12
34.881660
22
-99.454056
32
3.019181
13
34.881660
23
-99.454056
33
3.019181
0
3DFACE
8
0
70
0
10
90.983231
20
-141.997726
30
-38.235401
11
74.241875
21
-103.688522
31
16.965078
12
80.504753
22
-131.286667
32
-3.558401
13
80.504753
23
-131.286667
33
-3.558401
0
3DFACE
8
0
70
0
10
80.504753
20
-131.286667
30
-3.558401
11
74.241875
21
-103.688522
31
16.965078
12
81.899475
22
-107.531746
32
35.233055
13
81.899475
23
-107.531746
33
35.233055
0
3DFACE
8
0
70
0
10
9.458377
20
-135.573853
30
-48.399147
11
34.881660
21
-99.454056
31
3.019181
12
90.983231
22
-141.997726
32
-38.235401
13
90.983231
23
-141.997726
33
-38.235401
0
3DFACE
8
0
70
0
10
90.983231
20
-141.997726
30
-38.235401
11
34.881660
21
-99.454056
31
3.019181
12
74.241875
22
-103.688522
32
16.965078
13
74.241875
23
-103.688522
33
16.965078
0
3DFACE
8
0
70
0
10
-30.475010
20
-128.395370
30
-3.239585
11
-38.329353
21
-108.691269
31
37.059452
12
-44.134567
22
-121.142662
32
31.523495
13
-44.134567
23
-121.142662
33
31.523495
0
3DFACE
8
0
70
0
10
-44.134567
20
-121.142662
30
31.523495
11
-38.329353
21
-108.691269
31
37.059452
12
-50.502579
22
-112.468681
32
59.494438
13
-50.502579
23
-112.468681
33
59.494438
0
3DFACE
8
0
70
0
10
-44.134567
20
-121.142662
30
31.523495
11
-50.502579
21
-112.468681
31
59.494438
12
-89.903618
22
-111.106972
32
44.618073
13
-89.903618
23
-111.106972
33
44.618073
0
3DFACE
8
0
70
0
10
-80.594322
20
-122.620010
30
15.149029
11
-44.134567
21
-121.142662
31
31.523495
12
-89.903618
22
-111.106972
32
44.618073
13
-89.903618
23
-111.106972
33
44.618073
0
3DFACE
8
0
70
0
10
-80.594322
20
-122.620010
30
15.149029
11
-89.903618
21
-111.106972
31
44.618073
12
-98.053070
22
-108.676079
32
27.702465
13
-98.053070
23
-108.676079
33
27.702465
0
3DFACE
8
0
70
0
10
-85.737679
20
-130.672699
30
-10.381376
11
-80.594322
21
-122.620010
31
15.149029
12
-98.053070
22
-108.676079
32
27.702465
13
-98.053070
23
-108.676079
33
27.702465
0
3DFACE
8
0
70
0
10
-5.865551
20
-135.648636
30
-38.876549
11
-43.857338
21
-104.746422
31
10.802104
12
-30.475010
22
-128.395370
32
-3.239585
13
-30.475010
23
-128.395370
33
-3.239585
0
3DFACE
8
0
70
0
10
-30.475010
20
-128.395370
30
-3.239585
11
-43.857338
21
-104.746422
31
10.802104
12
-38.329353
22
-108.691269
32
37.059452
13
-38.329353
23
-108.691269
33
37.059452
0
3DFACE
8
0
70
0
10
-85.737679
20
-130.672699
30
-10.381376
11
-98.053070
21
-108.676079
31
27.702465
12
-85.584213
22
-106.087502
32
12.968054
13
-85.584213
23
-106.087502
33
12.968054
0
3DFACE
8
0
70
0
10
-87.669670
20
-138.995087
30
-47.205238
11
-85.737679
21
-130.672699
31
-10.381376
12
-85.584213
22
-106.087502
32
12.968054
13
-85.584213
23
-106.087502
33
12.968054
0
3DFACE
8
0
70
0
10
-87.669670
20
-138.995087
30
-47.205238
11
-85.584213
21
-106.087502
31
12.968054
12
-43.857338
22
-104.746422
32
10.802104
13
-43.857338
23
-104.746422
33
10.802104
0
3DFACE
8
0
70
0
10
-5.865551
20
-135.648636
30
-38.876549
11
-87.669670
21
-138.995087
31
-47.205238
12
-43.857338
22
-104.746422
32
10.802104
13
-43.857338
23
-104.746422
33
10.802104
0
3DFACE
8
0
70
0
10
104.999443
20
-23.572224
30
87.955986
11
-3.247747
21
-8.522274
31
126.658203
12
-11.801625
22
-33.177204
32
115.765266
13
-11.801625
23
-33.177204
33
115.765266
0
3DFACE
8
0
70
0
10
104.999443
20
-23.572224
30
87.955986
11
113.543831
21
4.907294
31
92.405098
12
-3.247747
22
-8.522274
32
126.658203
13
-3.247747
23
-8.522274
33
126.658203
0
3DFACE
8
0
70
0
10
112.827271
20
-13.518742
30
-77.476868
11
-1.117417
21
-19.433187
31
-114.125107
12
-2.464996
22
4.910944
32
-108.139397
13
-2.464996
23
4.910944
33
-108.139397
0
3DFACE
8
0
70
0
10
112.827271
20
-13.518742
30
-77.476868
11
-2.464996
21
4.910944
31
-108.139397
12
114.197052
22
5.319366
32
-71.236816
13
114.197052
23
5.319366
33
-71.236816
0
3DFACE
8
0
70
0
10
104.999443
20
-23.572224
30
87.955986
11
142.063538
21
5.323823
31
1.541487
12
113.543831
22
4.907294
32
92.405098
13
113.543831
23
4.907294
33
92.405098
0
3DFACE
8
0
70
0
10
104.999443
20
-23.572224
30
87.955986
11
136.602661
21
-16.827349
31
8.547319
12
142.063538
22
5.323823
32
1.541487
13
142.063538
23
5.323823
33
1.541487
0
3DFACE
8
0
70
0
10
136.602661
20
-16.827349
30
8.547319
11
112.827271
21
-13.518742
31
-77.476868
12
114.197052
22
5.319366
32
-71.236816
13
114.197052
23
5.319366
33
-71.236816
0
3DFACE
8
0
70
0
10
136.602661
20
-16.827349
30
8.547319
11
114.197052
21
5.319366
31
-71.236816
12
142.063538
22
5.323823
32
1.541487
13
142.063538
23
5.323823
33
1.541487
0
3DFACE
8
0
70
0
10
-125.540016
20
-38.949699
30
79.063095
11
-11.801625
21
-33.177204
31
115.765266
12
-3.247747
22
-8.522274
32
126.658203
13
-3.247747
23
-8.522274
33
126.658203
0
3DFACE
8
0
70
0
10
-125.540016
20
-38.949699
30
79.063095
11
-3.247747
21
-8.522274
31
126.658203
12
-120.065025
22
3.351817
32
91.610832
13
-120.065025
23
3.351817
33
91.610832
0
3DFACE
8
0
70
0
10
-117.712181
20
-28.896210
30
-86.369766
11
-2.464996
21
4.910944
31
-108.139397
12
-1.117417
22
-19.433187
32
-114.125107
13
-1.117417
23
-19.433187
33
-114.125107
0
3DFACE
8
0
70
0
10
-117.712181
20
-28.896210
30
-86.369766
11
-119.411804
21
3.763890
31
-72.031082
12
-2.464996
22
4.910944
32
-108.139397
13
-2.464996
23
4.910944
33
-108.139397
0
3DFACE
8
0
70
0
10
-125.540016
20
-38.949699
30
79.063095
11
-147.858566
21
3.393379
31
0.555749
12
-149.526962
22
-35.912800
32
-2.489920
13
-149.526962
23
-35.912800
33
-2.489920
0
3DFACE
8
0
70
0
10
-125.540016
20
-38.949699
30
79.063095
11
-120.065025
21
3.351817
31
91.610832
12
-147.858566
22
3.393379
32
0.555749
13
-147.858566
23
3.393379
33
0.555749
0
3DFACE
8
0
70
0
10
-149.526962
20
-35.912800
30
-2.489920
11
-147.858566
21
3.393379
31
0.555749
12
-119.411804
22
3.763890
32
-72.031082
13
-119.411804
23
3.763890
33
-72.031082
0
3DFACE
8
0
70
0
10
-149.526962
20
-35.912800
30
-2.489920
11
-119.411804
21
3.763890
31
-72.031082
12
-117.712181
22
-28.896210
32
-86.369766
13
-117.712181
23
-28.896210
33
-86.369766
0
3DFACE
8
0
70
0
10
-3.247747
20
-8.522274
30
126.658203
11
59.792995
21
72.169380
31
50.073032
12
-1.549360
22
63.675194
32
55.981190
13
-1.549360
23
63.675194
33
55.981190
0
3DFACE
8
0
70
0
10
-3.247747
20
-8.522274
30
126.658203
11
113.543831
21
4.907294
31
92.405098
12
59.792995
22
72.169380
32
50.073032
13
59.792995
23
72.169380
33
50.073032
0
3DFACE
8
0
70
0
10
114.197052
20
5.319366
30
-71.236816
11
-2.464996
21
4.910944
31
-108.139397
12
59.374630
22
89.667236
32
-52.388508
13
59.374630
23
89.667236
33
-52.388508
0
3DFACE
8
0
70
0
10
-2.464996
20
4.910944
30
-108.139397
11
-1.908000
21
99.882523
31
-59.411938
12
59.374630
22
89.667236
32
-52.388508
13
59.374630
23
89.667236
33
-52.388508
0
3DFACE
8
0
70
0
10
113.543831
20
4.907294
30
92.405098
11
105.257256
21
56.061218
31
-2.544894
12
79.250648
22
77.158127
32
37.551498
13
79.250648
23
77.158127
33
37.551498
0
3DFACE
8
0
70
0
10
113.543831
20
4.907294
30
92.405098
11
142.063538
21
5.323823
31
1.541487
12
105.257256
22
56.061218
32
-2.544894
13
105.257256
23
56.061218
33
-2.544894
0
3DFACE
8
0
70
0
10
114.197052
20
5.319366
30
-71.236816
11
88.230934
21
84.172966
31
-41.099674
12
105.257256
22
56.061218
32
-2.544894
13
105.257256
23
56.061218
33
-2.544894
0
3DFACE
8
0
70
0
10
142.063538
20
5.323823
30
1.541487
11
114.197052
21
5.319366
31
-71.236816
12
105.257256
22
56.061218
32
-2.544894
13
105.257256
23
56.061218
33
-2.544894
0
3DFACE
8
0
70
0
10
113.543831
20
4.907294
30
92.405098
11
79.250648
21
77.158127
31
37.551498
12
59.792995
22
72.169380
32
50.073032
13
59.792995
23
72.169380
33
50.073032
0
3DFACE
8
0
70
0
10
114.197052
20
5.319366
30
-71.236816
11
59.374630
21
89.667236
31
-52.388508
12
88.230934
22
84.172966
32
-41.099674
13
88.230934
23
84.172966
33
-41.099674
0
3DFACE
8
0
70
0
10
-3.247747
20
-8.522274
30
126.658203
11
-63.095955
21
72.402809
31
50.272022
12
-120.065025
22
3.351817
32
91.610832
13
-120.065025
23
3.351817
33
91.610832
0
3DFACE
8
0
70
0
10
-3.247747
20
-8.522274
30
126.658203
11
-1.549360
21
63.675194
31
55.981190
12
-63.095955
22
72.402809
32
50.272022
13
-63.095955
23
72.402809
33
50.272022
0
3DFACE
8
0
70
0
10
-119.411804
20
3.763890
30
-72.031082
11
-63.120792
21
89.852921
31
-52.230225
12
-2.464996
22
4.910944
32
-108.139397
13
-2.464996
23
4.910944
33
-108.139397
0
3DFACE
8
0
70
0
10
-2.464996
20
4.910944
30
-108.139397
11
-63.120792
21
89.852921
31
-52.230225
12
-1.908000
22
99.882523
32
-59.411938
13
-1.908000
23
99.882523
33
-59.411938
0
3DFACE
8
0
70
0
10
-120.065025
20
3.351817
30
91.610832
11
-92.440254
21
75.497864
31
38.985851
12
-118.761353
22
59.001621
32
-2.760633
13
-118.761353
23
59.001621
33
-2.760633
0
3DFACE
8
0
70
0
10
-120.065025
20
3.351817
30
91.610832
11
-118.761353
21
59.001621
31
-2.760633
12
-147.858566
22
3.393379
32
0.555749
13
-147.858566
23
3.393379
33
0.555749
0
3DFACE
8
0
70
0
10
-147.858566
20
3.393379
30
0.555749
11
-118.761353
21
59.001621
31
-2.760633
12
-119.411804
22
3.763890
32
-72.031082
13
-119.411804
23
3.763890
33
-72.031082
0
3DFACE
8
0
70
0
10
-119.411804
20
3.763890
30
-72.031082
11
-118.761353
21
59.001621
31
-2.760633
12
-91.414642
22
84.372635
32
-40.898521
13
-91.414642
23
84.372635
33
-40.898521
0
3DFACE
8
0
70
0
10
-120.065025
20
3.351817
30
91.610832
11
-63.095955
21
72.402809
31
50.272022
12
-92.440254
22
75.497864
32
38.985851
13
-92.440254
23
75.497864
33
38.985851
0
3DFACE
8
0
70
0
10
-119.411804
20
3.763890
30
-72.031082
11
-91.414642
21
84.372635
31
-40.898521
12
-63.120792
22
89.852921
32
-52.230225
13
-63.120792
23
89.852921
33
-52.230225
0
3DFACE
8
0
70
0
10
105.257256
20
56.061218
30
-2.544894
11
124.423119
21
72.064171
31
53.893581
12
79.250648
22
77.158127
32
37.551498
13
79.250648
23
77.158127
33
37.551498
0
3DFACE
8
0
70
0
10
152.032501
20
45.780910
30
24.124918
11
124.423119
21
72.064171
31
53.893581
12
105.257256
22
56.061218
32
-2.544894
13
105.257256
23
56.061218
33
-2.544894
0
3DFACE
8
0
70
0
10
79.250648
20
77.158127
30
37.551498
11
171.888748
21
93.578651
31
39.794182
12
66.454765
22
106.306702
32
-12.237965
13
66.454765
23
106.306702
33
-12.237965
0
3DFACE
8
0
70
0
10
79.250648
20
77.158127
30
37.551498
11
124.423119
21
72.064171
31
53.893581
12
171.888748
22
93.578651
32
39.794182
13
171.888748
23
93.578651
33
39.794182
0
3DFACE
8
0
70
0
10
88.230934
20
84.172966
30
-41.099674
11
66.454765
21
106.306702
31
-12.237965
12
171.888748
22
93.578651
32
39.794182
13
171.888748
23
93.578651
33
39.794182
0
3DFACE
8
0
70
0
10
88.230934
20
84.172966
30
-41.099674
11
171.888748
21
93.578651
31
39.794182
12
191.715454
22
65.815926
32
13.475873
13
191.715454
23
65.815926
33
13.475873
0
3DFACE
8
0
70
0
10
105.257256
20
56.061218
30
-2.544894
11
88.230934
21
84.172966
31
-41.099674
12
191.715454
22
65.815926
32
13.475873
13
191.715454
23
65.815926
33
13.475873
0
3DFACE
8
0
70
0
10
152.032501
20
45.780910
30
24.124918
11
105.257256
21
56.061218
31
-2.544894
12
191.715454
22
65.815926
32
13.475873
13
191.715454
23
65.815926
33
13.475873
0
3DFACE
8
0
70
0
10
-118.761353
20
59.001621
30
-2.760633
11
-92.440254
21
75.497864
31
38.985851
12
-156.740005
22
109.905197
32
45.179836
13
-156.740005
23
109.905197
33
45.179836
0
3DFACE
8
0
70
0
10
-191.015060
20
97.906601
30
11.037867
11
-118.761353
21
59.001621
31
-2.760633
12
-156.740005
22
109.905197
32
45.179836
13
-156.740005
23
109.905197
33
45.179836
0
3DFACE
8
0
70
0
10
-92.440254
20
75.497864
30
38.985851
11
-68.430092
21
103.672539
31
-10.877887
12
-177.847961
22
148.933502
32
19.123289
13
-177.847961
23
148.933502
33
19.123289
0
3DFACE
8
0
70
0
10
-92.440254
20
75.497864
30
38.985851
11
-177.847961
21
148.933502
31
19.123289
12
-156.740005
22
109.905197
32
45.179836
13
-156.740005
23
109.905197
33
45.179836
0
3DFACE
8
0
70
0
10
-91.414642
20
84.372635
30
-40.898521
11
-177.847961
21
148.933502
31
19.123289
12
-68.430092
22
103.672539
32
-10.877887
13
-68.430092
23
103.672539
33
-10.877887
0
3DFACE
8
0
70
0
10
-91.414642
20
84.372635
30
-40.898521
11
-207.500793
21
132.367493
31
-9.744081
12
-177.847961
22
148.933502
32
19.123289
13
-177.847961
23
148.933502
33
19.123289
0
3DFACE
8
0
70
0
10
-118.761353
20
59.001621
30
-2.760633
11
-207.500793
21
132.367493
31
-9.744081
12
-91.414642
22
84.372635
32
-40.898521
13
-91.414642
23
84.372635
33
-40.898521
0
3DFACE
8
0
70
0
10
-191.015060
20
97.906601
30
11.037867
11
-207.500793
21
132.367493
31
-9.744081
12
-118.761353
22
59.001621
32
-2.760633
13
-118.761353
23
59.001621
33
-2.760633
0
3DFACE
8
0
70
0
10
-209.470535
20
92.750916
30
54.799248
11
-191.015060
21
97.906601
31
11.037867
12
-156.740005
22
109.905197
32
45.179836
13
-156.740005
23
109.905197
33
45.179836
0
3DFACE
8
0
70
0
10
-209.470535
20
92.750916
30
54.799248
11
-156.740005
21
109.905197
31
45.179836
12
-162.095581
22
107.057709
32
61.901230
13
-162.095581
23
107.057709
33
61.901230
0
3DFACE
8
0
70
0
10
-162.095581
20
107.057709
30
61.901230
11
-156.740005
21
109.905197
31
45.179836
12
-177.847961
22
148.933502
32
19.123289
13
-177.847961
23
148.933502
33
19.123289
0
3DFACE
8
0
70
0
10
-162.095581
20
107.057709
30
61.901230
11
-177.847961
21
148.933502
31
19.123289
12
-197.440521
22
144.171997
32
70.234367
13
-197.440521
23
144.171997
33
70.234367
0
3DFACE
8
0
70
0
10
-237.507584
20
125.955399
30
62.483101
11
-197.440521
21
144.171997
31
70.234367
12
-177.847961
22
148.933502
32
19.123289
13
-177.847961
23
148.933502
33
19.123289
0
3DFACE
8
0
70
0
10
-237.507584
20
125.955399
30
62.483101
11
-177.847961
21
148.933502
31
19.123289
12
-207.500793
22
132.367493
32
-9.744081
13
-207.500793
23
132.367493
33
-9.744081
0
3DFACE
8
0
70
0
10
-209.470535
20
92.750916
30
54.799248
11
-237.507584
21
125.955399
31
62.483101
12
-207.500793
22
132.367493
32
-9.744081
13
-207.500793
23
132.367493
33
-9.744081
0
3DFACE
8
0
70
0
10
-209.470535
20
92.750916
30
54.799248
11
-207.500793
21
132.367493
31
-9.744081
12
-191.015060
22
97.906601
32
11.037867
13
-191.015060
23
97.906601
33
11.037867
0
3DFACE
8
0
70
0
10
158.363876
20
28.972090
30
67.812714
11
124.423119
21
72.064171
31
53.893581
12
152.032501
22
45.780910
32
24.124918
13
152.032501
23
45.780910
33
24.124918
0
3DFACE
8
0
70
0
10
158.363876
20
28.972090
30
67.812714
11
127.782242
21
64.672592
31
71.681137
12
124.423119
22
72.064171
32
53.893581
13
124.423119
23
72.064171
33
53.893581
0
3DFACE
8
0
70
0
10
127.782242
20
64.672592
30
71.681137
11
171.888748
21
93.578651
31
39.794182
12
124.423119
22
72.064171
32
53.893581
13
124.423119
23
72.064171
33
53.893581
0
3DFACE
8
0
70
0
10
127.782242
20
64.672592
30
71.681137
11
178.006500
21
76.136635
31
90.715569
12
171.888748
22
93.578651
32
39.794182
13
171.888748
23
93.578651
33
39.794182
0
3DFACE
8
0
70
0
10
200.362579
20
41.066624
30
84.638161
11
191.715454
21
65.815926
31
13.475873
12
171.888748
22
93.578651
32
39.794182
13
171.888748
23
93.578651
33
39.794182
0
3DFACE
8
0
70
0
10
200.362579
20
41.066624
30
84.638161
11
171.888748
21
93.578651
31
39.794182
12
178.006500
22
76.136635
32
90.715569
13
178.006500
23
76.136635
33
90.715569
0
3DFACE
8
0
70
0
10
158.363876
20
28.972090
30
67.812714
11
152.032501
21
45.780910
31
24.124918
12
191.715454
22
65.815926
32
13.475873
13
191.715454
23
65.815926
33
13.475873
0
3DFACE
8
0
70
0
10
158.363876
20
28.972090
30
67.812714
11
191.715454
21
65.815926
31
13.475873
12
200.362579
22
41.066624
32
84.638161
13
200.362579
23
41.066624
33
84.638161
0
3DFACE
8
0
70
0
10
10.910382
20
315.941101
30
46.885815
11
14.659112
21
313.459900
31
44.870823
12
-2.833385
22
266.454590
32
26.060909
13
-17.320999
23
270.261719
33
31.991096
0
3DFACE
8
0
70
0
10
18.168215
20
310.882294
30
47.216610
11
10.532404
21
262.518646
31
34.171806
12
-2.833385
22
266.454590
32
26.060909
13
14.659112
23
313.459900
33
44.870823
0
3DFACE
8
0
70
0
10
20.425770
20
309.113312
30
50.564095
11
19.046093
21
259.824860
31
45.324566
12
10.532404
22
262.518646
32
34.171806
13
18.168215
23
310.882294
33
47.216610
0
3DFACE
8
0
70
0
10
19.686590
20
309.428589
30
53.849594
11
16.055788
21
260.321564
31
55.817760
12
19.046093
22
259.824860
32
45.324566
13
20.425770
23
309.113312
33
50.564095
0
3DFACE
8
0
70
0
10
18.852386
20
309.762146
30
57.926392
11
12.664006
21
260.849670
31
68.850922
12
16.055788
22
260.321564
32
55.817760
13
19.686590
23
309.428589
33
53.849594
0
3DFACE
8
0
70
0
10
16.031937
20
311.607666
30
59.795650
11
1.747553
21
263.682983
31
74.452972
12
12.664006
22
260.849670
32
68.850922
13
18.852386
23
309.762146
33
57.926392
0
3DFACE
8
0
70
0
10
13.780590
20
313.106628
30
60.858955
11
-6.946371
21
265.982300
31
77.540443
12
1.747553
22
263.682983
32
74.452972
13
16.031937
23
311.607666
33
59.795650
0
3DFACE
8
0
70
0
10
13.780590
20
313.106628
30
60.858955
11
11.657061
21
314.657043
31
59.596249
12
-15.041919
22
268.350342
32
73.138496
13
-6.946371
23
265.982300
33
77.540443
0
3DFACE
8
0
70
0
10
11.657061
20
314.657043
30
59.596249
11
9.055624
21
316.590637
31
57.479874
12
-24.933054
22
271.301422
32
65.907364
13
-15.041919
23
268.350342
33
73.138496
0
3DFACE
8
0
70
0
10
9.055624
20
316.590637
30
57.479874
11
8.672495
21
317.105560
31
53.347591
12
-26.213030
22
272.072052
32
52.508434
13
-24.933054
23
271.301422
33
65.907364
0
3DFACE
8
0
70
0
10
8.672495
20
317.105560
30
53.347591
11
8.297172
21
317.567139
31
50.011295
12
-27.499857
22
272.764343
32
41.680374
13
-26.213030
23
272.072052
33
52.508434
0
3DFACE
8
0
70
0
10
8.297172
20
317.567139
30
50.011295
11
10.910382
21
315.941101
31
46.885815
12
-17.320999
22
270.261719
32
31.991096
13
-27.499857
23
272.764343
33
41.680374
0
ENDSEC
0
EOF
