0
SECTION
2
HEADER
999
DXF File Generated by LightWave 3D(TM)
0
ENDSEC
0
SECTION
2
TABLES
0
ENDSEC
0
SECTION
2
BLOCKS
0
ENDSEC
0
SECTION
2
ENTITIES
0
3DFACE
8
0
70
0
10
5.668130
20
-25.698135
30
81.362030
11
41.436428
21
-27.320435
31
55.927723
12
77.161240
22
-35.634300
32
24.613001
13
68.008209
23
-40.345901
33
49.484207
0
3DFACE
8
0
70
0
10
56.054836
20
-45.648895
30
-71.962364
11
59.832855
21
-64.105812
31
-52.631210
12
14.777371
22
-71.122765
32
-62.909523
13
-11.214878
23
-33.188110
33
-90.169792
0
3DFACE
8
0
70
0
10
6.524762
20
-31.551743
30
102.114456
11
5.668130
21
-25.698135
31
81.362030
12
68.008209
22
-40.345901
32
49.484207
13
89.125870
23
-51.046333
33
62.133698
0
3DFACE
8
0
70
0
10
73.998505
20
-57.757431
30
-91.560760
11
56.054836
21
-45.648895
31
-71.962364
12
-11.214878
22
-33.188110
32
-90.169792
13
-14.502277
23
-40.880173
33
-111.520836
0
3DFACE
8
0
70
0
10
8.363098
20
-27.494690
30
114.526512
11
95.752556
21
-48.349335
31
70.039009
12
119.336136
22
1.390457
32
70.569046
13
18.011414
23
26.347443
33
116.755615
0
3DFACE
8
0
70
0
10
78.658630
20
-55.932877
30
-103.635727
11
-15.397456
21
-38.035812
31
-126.881371
12
-5.738175
22
15.809814
32
-124.654137
13
102.242210
23
-6.193100
33
-103.105690
0
3DFACE
8
0
70
0
10
18.011414
20
26.347443
30
116.755615
11
119.336136
21
1.390457
31
70.569046
12
112.764603
22
3.508865
32
62.947292
13
17.012136
23
26.972748
33
104.537407
0
3DFACE
8
0
70
0
10
8.363098
20
-27.494690
30
114.526512
11
6.524762
21
-31.551743
31
102.114456
12
89.125870
22
-51.046333
32
62.133698
13
95.752556
23
-48.349335
33
70.039009
0
3DFACE
8
0
70
0
10
102.242210
20
-6.193100
30
-103.105690
11
-5.738175
21
15.809814
31
-124.654137
12
-3.620603
22
17.738861
32
-109.181282
13
97.637238
23
-3.202225
33
-90.747169
0
3DFACE
8
0
70
0
10
78.658630
20
-55.932877
30
-103.635727
11
73.998505
21
-57.757431
31
-91.560760
12
-14.502277
22
-40.880173
32
-111.520836
13
-15.397456
23
-38.035812
33
-126.881371
0
3DFACE
8
0
70
0
10
27.673773
20
-119.444199
30
102.617195
11
74.813721
21
-119.444199
31
102.617195
12
66.977409
22
-98.812683
32
87.801697
13
33.987896
23
-98.997986
33
87.801697
0
3DFACE
8
0
70
0
10
68.008209
20
-40.345901
30
49.484207
11
77.161240
21
-35.634300
31
24.613001
12
79.230904
22
-53.217377
32
-14.644420
13
77.658333
23
-46.409012
33
-11.733570
0
3DFACE
8
0
70
0
10
89.125870
20
-51.046333
30
62.133698
11
68.008209
21
-40.345901
31
49.484207
12
77.658333
22
-46.409012
32
-11.733570
13
102.464401
23
-58.945572
33
-15.072520
0
3DFACE
8
0
70
0
10
119.336136
20
1.390457
30
70.569046
11
95.752556
21
-48.349335
31
70.039009
12
109.561577
22
-56.903862
32
-15.689655
13
136.443985
23
-7.902710
33
-15.547863
0
3DFACE
8
0
70
0
10
136.443985
20
-7.902710
30
-15.547863
11
129.207809
21
-5.085526
31
-14.624317
12
112.764603
22
3.508865
32
62.947292
13
119.336136
23
1.390457
33
70.569046
0
3DFACE
8
0
70
0
10
95.752556
20
-48.349335
30
70.039009
11
89.125870
21
-51.046333
31
62.133698
12
102.464401
22
-58.945572
32
-15.072520
13
109.561577
23
-56.903862
33
-15.689655
0
3DFACE
8
0
70
0
10
12.906889
20
-152.844147
30
102.617195
11
80.090286
21
-153.029465
31
102.617195
12
74.813721
22
-119.444199
32
102.617195
13
27.673773
23
-119.444199
33
102.617195
0
3DFACE
8
0
70
0
10
-4.387678
20
178.652618
30
-25.695349
11
57.183811
21
158.181702
31
-19.755610
12
52.039246
22
143.907654
32
-52.079510
13
-2.510288
23
144.213898
33
-58.528946
0
3DFACE
8
0
70
0
10
77.658333
20
-46.409012
30
-11.733570
11
79.230904
21
-53.217377
31
-14.644420
12
59.832855
22
-64.105812
32
-52.631210
13
56.054836
23
-45.648895
33
-71.962364
0
3DFACE
8
0
70
0
10
102.464401
20
-58.945572
30
-15.072520
11
77.658333
21
-46.409012
31
-11.733570
12
56.054836
22
-45.648895
32
-71.962364
13
73.998505
23
-57.757431
33
-91.560760
0
3DFACE
8
0
70
0
10
109.561577
20
-56.903862
30
-15.689655
11
78.658630
21
-55.932877
31
-103.635727
12
102.242210
22
-6.193100
32
-103.105690
13
136.443985
23
-7.902710
33
-15.547863
0
3DFACE
8
0
70
0
10
102.242210
20
-6.193100
30
-103.105690
11
97.637238
21
-3.202225
31
-90.747169
12
129.207809
22
-5.085526
32
-14.624317
13
136.443985
23
-7.902710
33
-15.547863
0
3DFACE
8
0
70
0
10
109.561577
20
-56.903862
30
-15.689655
11
102.464401
21
-58.945572
31
-15.072520
12
73.998505
22
-57.757431
32
-91.560760
13
78.658630
23
-55.932877
33
-103.635727
0
3DFACE
8
0
70
0
10
37.417122
20
-51.761185
30
25.832306
11
41.436428
21
-27.320435
31
55.927723
12
21.045162
22
-52.283218
32
0.508028
13
23.482136
23
-63.273979
33
3.447037
0
3DFACE
8
0
70
0
10
37.417122
20
-51.761185
30
25.832306
11
75.393593
21
-54.296257
31
5.082145
12
77.161240
22
-35.634300
32
24.613001
13
41.436428
23
-27.320435
33
55.927723
0
3DFACE
8
0
70
0
10
75.393593
20
-54.296257
30
5.082145
11
81.467033
21
-61.139664
31
-13.757897
12
79.230904
22
-53.217377
32
-14.644420
13
77.161240
23
-35.634300
33
24.613001
0
3DFACE
8
0
70
0
10
23.482136
20
-63.273979
30
3.447037
11
21.045162
21
-52.283218
31
0.508028
12
14.777371
22
-71.122765
32
-62.909523
13
24.421356
23
-74.713348
33
-24.494551
0
3DFACE
8
0
70
0
10
81.467033
20
-61.139664
30
-13.757897
11
66.946342
21
-69.215172
31
-27.630314
12
59.832855
22
-64.105812
32
-52.631210
13
79.230904
23
-53.217377
33
-14.644420
0
3DFACE
8
0
70
0
10
66.946342
20
-69.215172
30
-27.630314
11
24.421356
21
-74.713348
31
-24.494551
12
14.777371
22
-71.122765
32
-62.909523
13
59.832855
23
-64.105812
33
-52.631210
0
3DFACE
8
0
70
0
10
28.529720
20
-124.526291
30
-0.182554
11
27.673773
21
-127.827705
31
43.725594
12
33.987896
22
-108.736397
32
35.947453
13
41.081688
23
-97.275009
33
25.590595
0
3DFACE
8
0
70
0
10
41.081688
20
-97.275009
30
25.590595
11
33.987896
21
-108.736397
31
35.947453
12
66.977409
22
-112.334389
32
35.947453
13
72.392113
23
-103.808945
33
8.305785
0
3DFACE
8
0
70
0
10
76.959335
20
-125.389305
30
-11.175783
11
72.392113
21
-103.808945
31
8.305785
12
66.977409
22
-112.334389
32
35.947453
13
74.813721
23
-127.827705
33
43.725594
0
3DFACE
8
0
70
0
10
6.338482
20
-153.285370
30
-25.576859
11
16.610764
21
-150.617264
31
32.613968
12
27.673773
22
-127.827705
32
43.725594
13
28.529720
23
-124.526291
33
-0.182554
0
3DFACE
8
0
70
0
10
78.145790
20
-153.382874
30
-39.931324
11
76.959335
21
-125.389305
31
-11.175783
12
74.813721
22
-127.827705
32
43.725594
13
83.794151
23
-150.723160
33
36.317848
0
3DFACE
8
0
70
0
10
78.145790
20
-153.382874
30
-39.931324
11
83.794151
21
-150.723160
31
36.317848
12
16.610764
22
-150.617264
32
32.613968
13
6.338482
23
-153.285370
33
-25.576859
0
3DFACE
8
0
70
0
10
27.673773
20
-119.444199
30
102.617195
11
33.987896
21
-98.997986
31
87.801697
12
33.987896
22
-108.736397
32
35.947453
13
27.673773
23
-127.827705
33
43.725594
0
3DFACE
8
0
70
0
10
33.987896
20
-98.997986
30
87.801697
11
66.977409
21
-98.812683
31
87.801697
12
66.977409
22
-112.334389
32
35.947453
13
33.987896
23
-108.736397
33
35.947453
0
3DFACE
8
0
70
0
10
74.813721
20
-119.444199
30
102.617195
11
74.813721
21
-127.827705
31
43.725594
12
66.977409
22
-112.334389
32
35.947453
13
66.977409
23
-98.812683
33
87.801697
0
3DFACE
8
0
70
0
10
12.906889
20
-152.844147
30
102.617195
11
27.673773
21
-119.444199
31
102.617195
12
27.673773
22
-127.827705
32
43.725594
13
16.610764
23
-150.617264
33
32.613968
0
3DFACE
8
0
70
0
10
80.090286
20
-153.029465
30
102.617195
11
83.794151
21
-150.723160
31
36.317848
12
74.813721
22
-127.827705
32
43.725594
13
74.813721
23
-119.444199
33
102.617195
0
3DFACE
8
0
70
0
10
80.090286
20
-153.029465
30
102.617195
11
12.906889
21
-152.844147
31
102.617195
12
16.610764
22
-150.617264
32
32.613968
13
83.794151
23
-150.723160
33
36.317848
0
3DFACE
8
0
70
0
10
302.201385
20
299.244263
30
55.131836
11
303.915253
21
300.445343
31
37.965382
12
296.177155
22
317.232819
32
46.439850
13
289.629120
23
309.755737
33
59.337585
0
3DFACE
8
0
70
0
10
82.344208
20
123.844482
30
-36.384079
11
52.039246
21
143.907654
31
-52.079510
12
57.183811
22
158.181702
32
-19.755610
13
57.183811
23
158.181702
33
-19.755610
0
3DFACE
8
0
70
0
10
79.325607
20
149.852173
30
36.849720
11
57.183811
21
158.181702
31
-19.755610
12
49.763012
22
157.078278
32
39.977848
13
49.763012
23
157.078278
33
39.977848
0
3DFACE
8
0
70
0
10
187.959061
20
222.238800
30
26.005800
11
218.432999
21
194.612915
31
0.110539
12
246.681824
22
215.876312
32
7.879640
13
215.139481
23
245.183838
33
32.283344
0
3DFACE
8
0
70
0
10
187.617676
20
237.738525
30
-24.816879
11
187.959061
21
222.238800
31
26.005800
12
215.139481
22
245.183838
32
32.283344
13
213.471085
23
262.224060
33
-18.547455
0
3DFACE
8
0
70
0
10
243.035965
20
232.912262
30
-35.224274
11
216.344604
21
209.752075
31
-42.685368
12
187.617676
22
237.738525
32
-24.816879
13
213.471085
23
262.224060
33
-18.547455
0
3DFACE
8
0
70
0
10
218.432999
20
194.612915
30
0.110539
11
216.344604
21
209.752075
31
-42.685368
12
243.035965
22
232.912262
32
-35.224274
13
246.681824
23
215.876312
33
7.879640
0
3DFACE
8
0
70
0
10
253.195465
20
207.163300
30
11.793570
11
280.316284
21
226.493927
31
19.438385
12
235.405975
22
268.419342
32
48.809624
13
210.379242
23
247.448669
33
43.227974
0
3DFACE
8
0
70
0
10
210.379242
20
247.448669
30
43.227974
11
235.405975
21
268.419342
31
48.809624
12
229.724380
22
294.009521
32
-19.296024
13
206.929733
23
271.631866
33
-24.691301
0
3DFACE
8
0
70
0
10
271.637360
20
252.481293
30
-38.867920
11
247.202591
21
231.250183
31
-45.882088
12
206.929733
22
271.631866
32
-24.691301
13
229.724380
23
294.009521
33
-19.296024
0
3DFACE
8
0
70
0
10
253.195465
20
207.163300
30
11.793570
11
247.202591
21
231.250183
31
-45.882088
12
271.637360
22
252.481293
32
-38.867920
13
280.316284
23
226.493927
33
19.438385
0
3DFACE
8
0
70
0
10
253.195465
20
207.163300
30
11.793570
11
210.379242
21
247.448669
31
43.227974
12
215.139481
22
245.183838
32
32.283344
13
246.681824
23
215.876312
33
7.879640
0
3DFACE
8
0
70
0
10
280.316284
20
226.493927
30
19.438385
11
273.286713
21
235.902344
31
15.196597
12
240.062347
22
266.222992
32
38.039501
13
235.405975
23
268.419342
33
48.809624
0
3DFACE
8
0
70
0
10
210.379242
20
247.448669
30
43.227974
11
206.929733
21
271.631866
31
-24.691301
12
213.471085
22
262.224060
32
-18.547455
13
215.139481
23
245.183838
33
32.283344
0
3DFACE
8
0
70
0
10
235.405975
20
268.419342
30
48.809624
11
240.062347
21
266.222992
31
38.039501
12
236.609955
22
284.138611
32
-12.936329
13
229.724380
23
294.009521
33
-19.296024
0
3DFACE
8
0
70
0
10
271.637360
20
252.481293
30
-38.867920
11
229.724380
21
294.009521
31
-19.296024
12
236.609955
22
284.138611
32
-12.936329
13
267.510376
23
254.148712
33
-28.382877
0
3DFACE
8
0
70
0
10
247.202591
20
231.250183
30
-45.882088
11
243.035965
21
232.912262
31
-35.224274
12
213.471085
22
262.224060
32
-18.547455
13
206.929733
23
271.631866
33
-24.691301
0
3DFACE
8
0
70
0
10
280.316284
20
226.493927
30
19.438385
11
271.637360
21
252.481293
31
-38.867920
12
267.510376
22
254.148712
32
-28.382877
13
273.286713
23
235.902344
33
15.196597
0
3DFACE
8
0
70
0
10
253.195465
20
207.163300
30
11.793570
11
246.681824
21
215.876312
31
7.879640
12
243.035965
22
232.912262
32
-35.224274
13
247.202591
23
231.250183
33
-45.882088
0
3DFACE
8
0
70
0
10
262.544037
20
242.534973
30
12.062569
11
241.731888
21
262.039368
31
18.369913
12
240.062347
22
266.222992
32
38.039501
13
273.286713
23
235.902344
33
15.196597
0
3DFACE
8
0
70
0
10
241.731888
20
262.039368
30
18.369913
11
251.080414
21
276.803833
31
-2.420623
12
236.609955
22
284.138611
32
-12.936329
13
240.062347
23
266.222992
33
38.039501
0
3DFACE
8
0
70
0
10
269.173401
20
257.146545
30
-5.994329
11
267.510376
21
254.148712
31
-28.382877
12
236.609955
22
284.138611
32
-12.936329
13
251.080414
23
276.803833
33
-2.420623
0
3DFACE
8
0
70
0
10
262.544037
20
242.534973
30
12.062569
11
273.286713
21
235.902344
31
15.196597
12
267.510376
22
254.148712
32
-28.382877
13
269.173401
23
257.146545
33
-5.994329
0
3DFACE
8
0
70
0
10
251.978378
20
277.774536
30
56.242447
11
248.291458
21
286.901703
31
52.864918
12
242.869614
22
280.968506
32
46.820148
13
246.484116
23
271.843079
33
50.244354
0
3DFACE
8
0
70
0
10
248.291458
20
286.901703
30
52.864918
11
244.941635
21
296.300201
31
48.999340
12
239.457748
22
290.388000
32
43.025261
13
242.869614
23
280.968506
33
46.820148
0
3DFACE
8
0
70
0
10
290.173737
20
271.771637
30
2.652299
11
269.173401
21
257.146545
31
-5.994329
12
251.080414
22
276.803833
32
-2.420623
13
266.977142
23
292.312561
33
10.718139
0
3DFACE
8
0
70
0
10
277.847290
20
258.205719
30
25.811733
11
262.544037
21
242.534973
31
12.062569
12
269.173401
22
257.146545
32
-5.994329
13
290.173737
23
271.771637
33
2.652299
0
3DFACE
8
0
70
0
10
302.201385
20
299.244263
30
55.131836
11
289.629120
21
309.755737
31
59.337585
12
260.639832
22
286.055115
32
40.458450
13
277.847290
23
258.205719
33
25.811733
0
3DFACE
8
0
70
0
10
289.629120
20
309.755737
30
59.337585
11
296.177155
21
317.232819
31
46.439850
12
266.977142
22
292.312561
32
10.718139
13
260.639832
23
286.055115
33
40.458450
0
3DFACE
8
0
70
0
10
303.915253
20
300.445343
30
37.965382
11
290.173737
21
271.771637
31
2.652299
12
266.977142
22
292.312561
32
10.718139
13
296.177155
23
317.232819
33
46.439850
0
3DFACE
8
0
70
0
10
302.201385
20
299.244263
30
55.131836
11
277.847290
21
258.205719
31
25.811733
12
290.173737
22
271.771637
32
2.652299
13
303.915253
23
300.445343
33
37.965382
0
3DFACE
8
0
70
0
10
251.978378
20
277.774536
30
56.242447
11
246.484116
21
271.843079
31
50.244354
12
262.544037
22
242.534973
32
12.062569
13
277.847290
23
258.205719
33
25.811733
0
3DFACE
8
0
70
0
10
246.484116
20
271.843079
30
50.244354
11
242.869614
21
280.968506
31
46.820148
12
241.731888
22
262.039368
32
18.369913
13
262.544037
23
242.534973
33
12.062569
0
3DFACE
8
0
70
0
10
251.978378
20
277.774536
30
56.242447
11
277.847290
21
258.205719
31
25.811733
12
260.639832
22
286.055115
32
40.458450
13
248.291458
23
286.901703
33
52.864918
0
3DFACE
8
0
70
0
10
242.869614
20
280.968506
30
46.820148
11
239.457748
21
290.388000
31
43.025261
12
251.080414
22
276.803833
32
-2.420623
13
241.731888
23
262.039368
33
18.369913
0
3DFACE
8
0
70
0
10
244.941635
20
296.300201
30
48.999340
11
266.977142
21
292.312561
31
10.718139
12
251.080414
22
276.803833
32
-2.420623
13
239.457748
23
290.388000
33
43.025261
0
3DFACE
8
0
70
0
10
248.291458
20
286.901703
30
52.864918
11
260.639832
21
286.055115
31
40.458450
12
266.977142
22
292.312561
32
10.718139
13
244.941635
23
296.300201
33
48.999340
0
3DFACE
8
0
70
0
10
5.668130
20
-25.698135
30
81.362030
11
-61.145226
21
-11.427567
31
64.684418
12
-63.823338
22
-35.174675
32
44.479500
13
-18.586254
23
-38.934387
33
56.634132
0
3DFACE
8
0
70
0
10
-73.098595
20
-16.730560
30
-56.762157
11
-11.214878
21
-33.188110
31
-90.169792
12
-44.368141
22
-32.579376
32
-65.600548
13
-80.581566
23
-31.043915
33
-34.973045
0
3DFACE
8
0
70
0
10
6.524762
20
-31.551743
30
102.114456
11
-81.641960
21
-12.810242
31
82.231552
12
-61.145226
22
-11.427567
32
64.684418
13
5.668130
23
-25.698135
33
81.362030
0
3DFACE
8
0
70
0
10
-96.769325
20
-19.521347
30
-71.462906
11
-14.502277
21
-40.880173
31
-111.520836
12
-11.214878
22
-33.188110
32
-90.169792
13
-73.098595
23
-16.730560
33
-56.762157
0
3DFACE
8
0
70
0
10
8.363098
20
-27.494690
30
114.526512
11
18.011414
21
26.347443
31
116.755615
12
-89.995293
22
48.261185
32
95.205490
13
-85.369919
23
-7.794785
33
91.355515
0
3DFACE
8
0
70
0
10
-102.463844
20
-15.378326
30
-82.319214
11
-107.089218
21
40.677643
31
-78.469238
12
-5.738175
22
15.809814
32
-124.654137
13
-15.397456
23
-38.035812
33
-126.881371
0
3DFACE
8
0
70
0
10
18.011414
20
26.347443
30
116.755615
11
17.012136
21
26.972748
31
104.537407
12
-84.658989
22
47.713364
32
86.182297
13
-89.995293
23
48.261185
33
95.205490
0
3DFACE
8
0
70
0
10
8.363098
20
-27.494690
30
114.526512
11
-85.369919
21
-7.794785
31
91.355515
12
-81.641960
22
-12.810242
32
82.231552
13
6.524762
23
-31.551743
33
102.114456
0
3DFACE
8
0
70
0
10
-107.089218
20
40.677643
30
-78.469238
11
-99.786354
21
41.002258
31
-67.512161
12
-3.620603
22
17.738861
32
-109.181282
13
-5.738175
23
15.809814
33
-124.654137
0
3DFACE
8
0
70
0
10
-102.463844
20
-15.378326
30
-82.319214
11
-15.397456
21
-38.035812
31
-126.881371
12
-14.502277
22
-40.880173
32
-111.520836
13
-96.769325
23
-19.521347
33
-71.462906
0
3DFACE
8
0
70
0
10
-31.473774
20
-119.444199
30
102.617195
11
-37.787899
21
-98.997986
31
87.801697
12
-70.777412
22
-98.812683
32
87.801697
13
-78.613716
23
-119.444199
33
102.617195
0
3DFACE
8
0
70
0
10
-61.145226
20
-11.427567
30
64.684418
11
-82.487061
21
-10.551376
31
7.114120
12
-82.458748
22
-36.396133
32
7.851814
13
-63.823338
23
-35.174675
33
44.479500
0
3DFACE
8
0
70
0
10
-81.641960
20
-12.810242
30
82.231552
11
-109.699013
21
-11.440735
31
9.897230
12
-82.487061
22
-10.551376
32
7.114120
13
-61.145226
23
-11.427567
33
64.684418
0
3DFACE
8
0
70
0
10
-89.995293
20
48.261185
30
95.205490
11
-123.469315
21
50.293655
31
15.041623
12
-115.545113
22
-6.500931
32
10.803403
13
-85.369919
23
-7.794785
33
91.355515
0
3DFACE
8
0
70
0
10
-123.469315
20
50.293655
30
15.041623
11
-89.995293
21
48.261185
31
95.205490
12
-84.658989
22
47.713364
32
86.182297
13
-115.820694
23
49.778030
33
14.213362
0
3DFACE
8
0
70
0
10
-85.369919
20
-7.794785
30
91.355515
11
-115.545113
21
-6.500931
31
10.803403
12
-109.699013
22
-11.440735
32
9.897230
13
-81.641960
23
-12.810242
33
82.231552
0
3DFACE
8
0
70
0
10
-16.706890
20
-152.844147
30
102.617195
11
-31.473774
21
-119.444199
31
102.617195
12
-78.613716
22
-119.444199
32
102.617195
13
-83.890282
23
-153.029465
33
102.617195
0
3DFACE
8
0
70
0
10
-4.387678
20
178.652618
30
-25.695349
11
-2.510288
21
144.213898
31
-58.528946
12
-57.730793
22
141.920715
32
-53.482315
13
-67.057755
23
161.524048
33
-21.993227
0
3DFACE
8
0
70
0
10
-82.487061
20
-10.551376
30
7.114120
11
-73.098595
21
-16.730560
31
-56.762157
12
-80.581566
22
-31.043915
32
-34.973045
13
-82.458748
23
-36.396133
33
7.851814
0
3DFACE
8
0
70
0
10
-109.699013
20
-11.440735
30
9.897230
11
-96.769325
21
-19.521347
31
-71.462906
12
-73.098595
22
-16.730560
32
-56.762157
13
-82.487061
23
-10.551376
33
7.114120
0
3DFACE
8
0
70
0
10
-115.545113
20
-6.500931
30
10.803403
11
-123.469315
21
50.293655
31
15.041623
12
-107.089218
22
40.677643
32
-78.469238
13
-102.463844
23
-15.378326
33
-82.319214
0
3DFACE
8
0
70
0
10
-107.089218
20
40.677643
30
-78.469238
11
-123.469315
21
50.293655
31
15.041623
12
-115.820694
22
49.778030
32
14.213362
13
-99.786354
23
41.002258
33
-67.512161
0
3DFACE
8
0
70
0
10
-115.545113
20
-6.500931
30
10.803403
11
-102.463844
21
-15.378326
31
-82.319214
12
-96.769325
22
-19.521347
32
-71.462906
13
-109.699013
23
-11.440735
33
9.897230
0
3DFACE
8
0
70
0
10
-24.631472
20
-52.525070
30
17.049297
11
-23.346640
21
-50.444847
31
-10.425714
12
-23.790239
22
-40.210236
32
-5.454131
13
-18.586254
23
-38.934387
33
56.634132
0
3DFACE
8
0
70
0
10
-24.631472
20
-52.525070
30
17.049297
11
-18.586254
21
-38.934387
31
56.634132
12
-63.823338
22
-35.174675
32
44.479500
13
-67.558174
23
-51.275467
33
18.655172
0
3DFACE
8
0
70
0
10
-67.558174
20
-51.275467
30
18.655172
11
-63.823338
21
-35.174675
31
44.479500
12
-82.458748
22
-36.396133
32
7.851814
13
-81.908264
23
-49.762077
33
5.001380
0
3DFACE
8
0
70
0
10
-23.346640
20
-50.444847
30
-10.425714
11
-37.635117
21
-48.092758
31
-34.967697
12
-44.368141
22
-32.579376
32
-65.600548
13
-23.790239
23
-40.210236
33
-5.454131
0
3DFACE
8
0
70
0
10
-81.908264
20
-49.762077
30
5.001380
11
-82.458748
21
-36.396133
31
7.851814
12
-80.581566
22
-31.043915
32
-34.973045
13
-76.010544
23
-48.394455
33
-15.155876
0
3DFACE
8
0
70
0
10
-76.010544
20
-48.394455
30
-15.155876
11
-80.581566
21
-31.043915
31
-34.973045
12
-44.368141
22
-32.579376
32
-65.600548
13
-37.635117
23
-48.092758
33
-34.967697
0
3DFACE
8
0
70
0
10
-29.748863
20
-125.372368
30
-10.131250
11
-31.263783
21
-94.224243
31
15.038180
12
-37.787899
22
-108.736397
32
35.947453
13
-31.473774
23
-127.827705
33
43.725594
0
3DFACE
8
0
70
0
10
-31.263783
20
-94.224243
30
15.038180
11
-66.680405
21
-99.576324
31
13.065176
12
-70.777412
22
-112.334389
32
35.947453
13
-37.787899
23
-108.736397
33
35.947453
0
3DFACE
8
0
70
0
10
-78.375977
20
-122.623055
30
-0.004349
11
-78.613716
21
-127.827705
31
43.725594
12
-70.777412
22
-112.334389
32
35.947453
13
-66.680405
23
-99.576324
33
13.065176
0
3DFACE
8
0
70
0
10
-19.256786
20
-158.935928
30
-38.748936
11
-29.748863
21
-125.372368
31
-10.131250
12
-31.473774
22
-127.827705
32
43.725594
13
-20.410763
23
-150.617264
33
32.613968
0
3DFACE
8
0
70
0
10
-90.596840
20
-153.457962
30
-22.110352
11
-87.594154
21
-150.723160
31
36.317848
12
-78.613716
22
-127.827705
32
43.725594
13
-78.375977
23
-122.623055
33
-0.004349
0
3DFACE
8
0
70
0
10
-90.596840
20
-153.457962
30
-22.110352
11
-19.256786
21
-158.935928
31
-38.748936
12
-20.410763
22
-150.617264
32
32.613968
13
-87.594154
23
-150.723160
33
36.317848
0
3DFACE
8
0
70
0
10
-31.473774
20
-119.444199
30
102.617195
11
-31.473774
21
-127.827705
31
43.725594
12
-37.787899
22
-108.736397
32
35.947453
13
-37.787899
23
-98.997986
33
87.801697
0
3DFACE
8
0
70
0
10
-37.787899
20
-98.997986
30
87.801697
11
-37.787899
21
-108.736397
31
35.947453
12
-70.777412
22
-112.334389
32
35.947453
13
-70.777412
23
-98.812683
33
87.801697
0
3DFACE
8
0
70
0
10
-78.613716
20
-119.444199
30
102.617195
11
-70.777412
21
-98.812683
31
87.801697
12
-70.777412
22
-112.334389
32
35.947453
13
-78.613716
23
-127.827705
33
43.725594
0
3DFACE
8
0
70
0
10
-16.706890
20
-152.844147
30
102.617195
11
-20.410763
21
-150.617264
31
32.613968
12
-31.473774
22
-127.827705
32
43.725594
13
-31.473774
23
-119.444199
33
102.617195
0
3DFACE
8
0
70
0
10
-83.890282
20
-153.029465
30
102.617195
11
-78.613716
21
-119.444199
31
102.617195
12
-78.613716
22
-127.827705
32
43.725594
13
-87.594154
23
-150.723160
33
36.317848
0
3DFACE
8
0
70
0
10
-83.890282
20
-153.029465
30
102.617195
11
-87.594154
21
-150.723160
31
36.317848
12
-20.410763
22
-150.617264
32
32.613968
13
-16.706890
23
-152.844147
33
102.617195
0
3DFACE
8
0
70
0
10
-60.768414
20
-23.678650
30
175.911057
11
-51.729332
21
-12.432007
31
174.996933
12
-69.417183
22
-6.435745
32
182.209579
13
-81.980782
23
-14.981430
33
175.387787
0
3DFACE
8
0
70
0
10
-84.728996
20
127.004822
30
-41.175171
11
-67.057755
21
161.524048
31
-21.993227
12
-57.730793
22
141.920715
32
-53.482315
13
-57.730793
23
141.920715
33
-53.482315
0
3DFACE
8
0
70
0
10
-72.983917
20
138.844299
30
28.528275
11
-59.727741
21
154.580383
31
38.214321
12
-67.057755
22
161.524048
32
-21.993227
13
-67.057755
23
161.524048
33
-21.993227
0
3DFACE
8
0
70
0
10
-100.282043
20
62.654541
30
60.526302
11
-84.935211
21
50.279587
31
90.791687
12
-101.514786
22
4.571655
32
81.556343
13
-118.467354
23
18.272888
33
52.653507
0
3DFACE
8
0
70
0
10
-147.865341
20
58.259277
30
83.760208
11
-132.788467
21
47.708267
31
114.882721
12
-84.935211
22
50.279587
32
90.791687
13
-100.282043
23
62.654541
33
60.526302
0
3DFACE
8
0
70
0
10
-142.534897
20
5.459030
30
103.420166
11
-132.788467
21
47.708267
31
114.882721
12
-147.865341
22
58.259277
32
83.760208
13
-158.891571
23
17.048172
33
73.376183
0
3DFACE
8
0
70
0
10
-118.467354
20
18.272888
30
52.653507
11
-101.514786
21
4.571655
31
81.556343
12
-142.534897
22
5.459030
32
103.420166
13
-158.891571
23
17.048172
33
73.376183
0
3DFACE
8
0
70
0
10
-96.567711
20
-4.010239
30
75.594765
11
-75.643867
21
57.872726
31
88.897057
12
-61.714329
22
46.366089
32
116.660828
13
-80.193176
23
-17.592178
33
102.335388
0
3DFACE
8
0
70
0
10
-75.643867
20
57.872726
30
88.897057
11
-139.825851
21
56.114792
31
121.871872
12
-126.601906
22
47.124222
32
150.045624
13
-61.714329
23
46.366089
33
116.660828
0
3DFACE
8
0
70
0
10
-136.523651
20
-11.845947
30
133.062439
11
-126.601906
21
47.124222
31
150.045624
12
-139.825851
22
56.114792
32
121.871872
13
-151.675461
23
-1.290405
33
105.566650
0
3DFACE
8
0
70
0
10
-96.567711
20
-4.010239
30
75.594765
11
-80.193176
21
-17.592178
31
102.335388
12
-136.523651
22
-11.845947
32
133.062439
13
-151.675461
23
-1.290405
33
105.566650
0
3DFACE
8
0
70
0
10
-96.567711
20
-4.010239
30
75.594765
11
-101.514786
21
4.571655
31
81.556343
12
-84.935211
22
50.279587
32
90.791687
13
-75.643867
23
57.872726
33
88.897057
0
3DFACE
8
0
70
0
10
-80.193176
20
-17.592178
30
102.335388
11
-61.714329
21
46.366089
31
116.660828
12
-70.863052
22
38.932465
32
118.543213
13
-85.548782
23
-8.332245
33
108.777229
0
3DFACE
8
0
70
0
10
-75.643867
20
57.872726
30
88.897057
11
-84.935211
21
50.279587
31
90.791687
12
-132.788467
22
47.708267
32
114.882721
13
-139.825851
23
56.114792
33
121.871872
0
3DFACE
8
0
70
0
10
-61.714329
20
46.366089
30
116.660828
11
-126.601906
21
47.124222
31
150.045624
12
-119.294662
22
38.265030
32
142.737366
13
-70.863052
23
38.932465
33
118.543213
0
3DFACE
8
0
70
0
10
-136.523651
20
-11.845947
30
133.062439
11
-127.536774
21
-5.167557
31
130.968674
12
-119.294662
22
38.265030
32
142.737366
13
-126.601906
23
47.124222
33
150.045624
0
3DFACE
8
0
70
0
10
-151.675461
20
-1.290405
30
105.566650
11
-139.825851
21
56.114792
31
121.871872
12
-132.788467
22
47.708267
32
114.882721
13
-142.534897
23
5.459030
33
103.420166
0
3DFACE
8
0
70
0
10
-80.193176
20
-17.592178
30
102.335388
11
-85.548782
21
-8.332245
31
108.777229
12
-127.536774
22
-5.167557
32
130.968674
13
-136.523651
23
-11.845947
33
133.062439
0
3DFACE
8
0
70
0
10
-96.567711
20
-4.010239
30
75.594765
11
-151.675461
21
-1.290405
31
105.566650
12
-142.534897
22
5.459030
32
103.420166
13
-101.514786
23
4.571655
33
81.556343
0
3DFACE
8
0
70
0
10
-98.805771
20
1.166367
30
107.408524
11
-85.548782
21
-8.332245
31
108.777229
12
-70.863052
22
38.932465
32
118.543213
13
-85.883980
23
24.661896
33
109.044464
0
3DFACE
8
0
70
0
10
-85.883980
20
24.661896
30
109.044464
11
-70.863052
21
38.932465
31
118.543213
12
-119.294662
22
38.265030
32
142.737366
13
-115.246185
23
31.970657
33
122.457191
0
3DFACE
8
0
70
0
10
-123.964142
20
9.555832
30
119.384247
11
-115.246185
21
31.970657
31
122.457191
12
-119.294662
22
38.265030
32
142.737366
13
-127.536774
23
-5.167557
33
130.968674
0
3DFACE
8
0
70
0
10
-98.805771
20
1.166367
30
107.408524
11
-123.964142
21
9.555832
31
119.384247
12
-127.536774
22
-5.167557
32
130.968674
13
-85.548782
23
-8.332245
33
108.777229
0
3DFACE
8
0
70
0
10
-43.041725
20
0.137161
30
129.711990
11
-48.435928
21
4.389694
31
121.523224
12
-51.457932
22
12.985458
32
124.492645
13
-45.984196
23
8.758072
33
132.641876
0
3DFACE
8
0
70
0
10
-45.984196
20
8.758072
30
132.641876
11
-51.457932
21
12.985458
31
124.492645
12
-54.993542
22
21.780594
32
127.729103
13
-49.624718
23
17.539185
33
135.895508
0
3DFACE
8
0
70
0
10
-119.797318
20
0.212448
30
143.264664
11
-102.760506
21
21.332489
31
142.349930
12
-115.246185
22
31.970657
32
122.457191
13
-123.964142
23
9.555832
33
119.384247
0
3DFACE
8
0
70
0
10
-87.851883
20
-10.229919
30
129.854263
11
-119.797318
21
0.212448
31
143.264664
12
-123.964142
22
9.555832
32
119.384247
13
-98.805771
23
1.166367
33
107.408524
0
3DFACE
8
0
70
0
10
-60.768414
20
-23.678650
30
175.911057
11
-87.851883
21
-10.229919
31
129.854263
12
-64.890396
22
6.624878
32
138.407639
13
-51.729332
23
-12.432007
33
174.996933
0
3DFACE
8
0
70
0
10
-51.729332
20
-12.432007
30
174.996933
11
-64.890396
21
6.624878
31
138.407639
12
-102.760506
22
21.332489
32
142.349930
13
-69.417183
23
-6.435745
33
182.209579
0
3DFACE
8
0
70
0
10
-81.980782
20
-14.981430
30
175.387787
11
-69.417183
21
-6.435745
31
182.209579
12
-102.760506
22
21.332489
32
142.349930
13
-119.797318
23
0.212448
33
143.264664
0
3DFACE
8
0
70
0
10
-60.768414
20
-23.678650
30
175.911057
11
-81.980782
21
-14.981430
31
175.387787
12
-119.797318
22
0.212448
32
143.264664
13
-87.851883
23
-10.229919
33
129.854263
0
3DFACE
8
0
70
0
10
-43.041725
20
0.137161
30
129.711990
11
-87.851883
21
-10.229919
31
129.854263
12
-98.805771
22
1.166367
32
107.408524
13
-48.435928
23
4.389694
33
121.523224
0
3DFACE
8
0
70
0
10
-48.435928
20
4.389694
30
121.523224
11
-98.805771
21
1.166367
31
107.408524
12
-85.883980
22
24.661896
32
109.044464
13
-51.457932
23
12.985458
33
124.492645
0
3DFACE
8
0
70
0
10
-43.041725
20
0.137161
30
129.711990
11
-45.984196
21
8.758072
31
132.641876
12
-64.890396
22
6.624878
32
138.407639
13
-87.851883
23
-10.229919
33
129.854263
0
3DFACE
8
0
70
0
10
-51.457932
20
12.985458
30
124.492645
11
-85.883980
21
24.661896
31
109.044464
12
-115.246185
22
31.970657
32
122.457191
13
-54.993542
23
21.780594
33
127.729103
0
3DFACE
8
0
70
0
10
-49.624718
20
17.539185
30
135.895508
11
-54.993542
21
21.780594
31
127.729103
12
-115.246185
22
31.970657
32
122.457191
13
-102.760506
23
21.332489
33
142.349930
0
3DFACE
8
0
70
0
10
-45.984196
20
8.758072
30
132.641876
11
-49.624718
21
17.539185
31
135.895508
12
-102.760506
22
21.332489
32
142.349930
13
-64.890396
23
6.624878
33
138.407639
0
3DFACE
8
0
70
0
10
21.045162
20
-52.283218
30
0.508028
11
41.436428
21
-27.320435
31
55.927723
12
5.668130
22
-25.698135
32
81.362030
13
-2.607557
23
-29.369553
33
-2.719168
0
3DFACE
8
0
70
0
10
21.045162
20
-52.283218
30
0.508028
11
-2.607557
21
-29.369553
31
-2.719168
12
-11.214878
22
-33.188110
32
-90.169792
13
14.777371
23
-71.122765
33
-62.909523
0
3DFACE
8
0
70
0
10
-11.214878
20
-33.188110
30
-90.169792
11
-2.607557
21
-29.369553
31
-2.719168
12
-23.790239
22
-40.210236
32
-5.454131
13
-44.368141
23
-32.579376
33
-65.600548
0
3DFACE
8
0
70
0
10
-2.607557
20
-29.369553
30
-2.719168
11
5.668130
21
-25.698135
31
81.362030
12
-18.586254
22
-38.934387
32
56.634132
13
-23.790239
23
-40.210236
33
-5.454131
0
3DFACE
8
0
70
0
10
18.595634
20
177.804077
30
120.529434
11
27.636871
21
178.453156
31
113.385704
12
37.916500
22
196.077698
32
116.686859
13
19.881172
23
196.101746
33
126.904991
0
3DFACE
8
0
70
0
10
19.881172
20
196.101746
30
126.904991
11
37.916500
21
196.077698
31
116.686859
12
30.784548
22
204.668732
32
117.117302
13
19.122152
23
208.016052
33
123.140671
0
3DFACE
8
0
70
0
10
27.636871
20
178.453156
30
113.385704
11
25.992599
21
175.449829
31
100.509705
12
37.396782
22
194.025269
32
98.927139
13
37.916500
23
196.077698
33
116.686859
0
3DFACE
8
0
70
0
10
18.595634
20
177.804077
30
120.529434
11
15.908580
21
172.518677
31
108.510353
12
25.992599
22
175.449829
32
100.509705
13
27.636871
23
178.453156
33
113.385704
0
3DFACE
8
0
70
0
10
19.122152
20
208.016052
30
123.140671
11
30.784548
21
204.668732
31
117.117302
12
29.472479
22
205.940918
32
100.899307
13
16.031761
23
209.753601
33
109.121269
0
3DFACE
8
0
70
0
10
37.916500
20
196.077698
30
116.686859
11
37.396782
21
194.025269
31
98.927139
12
29.472479
22
205.940918
32
100.899307
13
30.784548
23
204.668732
33
117.117302
0
3DFACE
8
0
70
0
10
19.271719
20
219.329224
30
104.759392
11
19.431765
21
209.802002
31
105.553131
12
29.183376
22
207.584137
32
98.114792
13
31.014458
23
226.933502
33
100.532822
0
3DFACE
8
0
70
0
10
29.183376
20
207.584137
30
98.114792
11
37.319611
21
208.733459
31
90.087730
12
40.267666
22
219.677734
32
86.120552
13
31.014458
23
226.933502
33
100.532822
0
3DFACE
8
0
70
0
10
31.185648
20
156.946838
30
118.551384
11
25.231882
21
176.186340
31
109.063477
12
16.916281
22
174.705566
32
113.507996
13
18.585075
23
156.726715
33
121.784294
0
3DFACE
8
0
70
0
10
59.444462
20
174.892029
30
66.826874
11
57.887867
21
185.822998
31
67.230904
12
39.177364
22
178.213654
32
91.896355
13
47.281624
23
155.240356
33
96.127747
0
3DFACE
8
0
70
0
10
25.231882
20
176.186340
30
109.063477
11
31.185648
21
156.946838
31
118.551384
12
47.337822
22
159.349243
32
106.509781
13
39.617416
23
176.451385
33
106.049942
0
3DFACE
8
0
70
0
10
54.635391
20
217.546173
30
68.985390
11
66.473030
21
220.213684
31
66.144859
12
45.673222
22
224.675812
32
89.901749
13
45.009659
23
221.424500
33
88.091751
0
3DFACE
8
0
70
0
10
16.476906
20
222.883392
30
111.328934
11
15.880386
21
221.075012
31
108.370529
12
31.084614
22
228.646820
32
103.445160
13
32.929108
23
230.824066
33
104.656395
0
3DFACE
8
0
70
0
10
32.929108
20
230.824066
30
104.656395
11
31.084614
21
228.646820
31
103.445160
12
45.009659
22
221.424500
32
88.091751
13
45.673222
23
224.675812
33
89.901749
0
3DFACE
8
0
70
0
10
18.026825
20
130.195251
30
119.015678
11
33.645241
21
138.693787
31
109.582062
12
30.165274
22
147.892578
32
108.423393
13
17.515524
23
144.792999
33
116.479904
0
3DFACE
8
0
70
0
10
13.653542
20
87.566895
30
97.326607
11
33.031742
21
100.159531
31
90.425056
12
33.645241
22
138.693787
32
109.582062
13
18.026825
23
130.195251
33
119.015678
0
3DFACE
8
0
70
0
10
59.444462
20
174.892029
30
66.826874
11
47.281624
21
155.240356
31
96.127747
12
44.815781
22
152.239746
32
87.354851
13
63.666309
23
163.559845
33
68.928123
0
3DFACE
8
0
70
0
10
44.815781
20
152.239746
30
87.354851
11
49.950714
21
126.929077
31
55.280369
12
56.812653
22
156.958466
32
38.324230
13
63.666309
23
163.559845
33
68.928123
0
3DFACE
8
0
70
0
10
33.031742
20
100.159531
30
90.425056
11
49.950714
21
126.929077
31
55.280369
12
44.815781
22
152.239746
32
87.354851
13
33.645241
23
138.693787
33
109.582062
0
3DFACE
8
0
70
0
10
33.645241
20
138.693787
30
109.582062
11
44.815781
21
152.239746
31
87.354851
12
47.281624
22
155.240356
32
96.127747
13
30.165274
23
147.892578
33
108.423393
0
3DFACE
8
0
70
0
10
18.585075
20
156.726715
30
121.784294
11
17.515524
21
144.792999
31
116.479904
12
30.165274
22
147.892578
32
108.423393
13
31.185648
23
156.946838
33
118.551384
0
3DFACE
8
0
70
0
10
16.916281
20
174.705566
30
113.507996
11
25.231882
21
176.186340
31
109.063477
12
25.992599
22
175.449829
32
100.509705
13
15.908580
23
172.518677
33
108.510353
0
3DFACE
8
0
70
0
10
39.617416
20
176.451385
30
106.049942
11
39.177364
21
178.213654
31
91.896355
12
25.992599
22
175.449829
32
100.509705
13
25.231882
23
176.186340
33
109.063477
0
POINT
8
0
70
0
10
64.458618
20
158.506531
30
84.150986
0
3DFACE
8
0
70
0
10
31.185648
20
156.946838
30
118.551384
11
30.165274
21
147.892578
31
108.423393
12
47.281624
22
155.240356
32
96.127747
13
47.337822
23
159.349243
33
106.509781
0
3DFACE
8
0
70
0
10
47.337822
20
159.349243
30
106.509781
11
64.458618
21
158.506531
31
84.150986
12
39.617416
22
176.451385
32
106.049942
13
39.617416
23
176.451385
33
106.049942
0
3DFACE
8
0
70
0
10
39.617416
20
176.451385
30
106.049942
11
64.458618
21
158.506531
31
84.150986
12
39.177364
22
178.213654
32
91.896355
13
39.177364
23
178.213654
33
91.896355
0
3DFACE
8
0
70
0
10
64.458618
20
158.506531
30
84.150986
11
47.281624
21
155.240356
31
96.127747
12
39.177364
22
178.213654
32
91.896355
13
39.177364
23
178.213654
33
91.896355
0
3DFACE
8
0
70
0
10
47.281624
20
155.240356
30
96.127747
11
64.458618
21
158.506531
31
84.150986
12
47.337822
22
159.349243
32
106.509781
13
47.337822
23
159.349243
33
106.509781
0
3DFACE
8
0
70
0
10
66.473030
20
220.213684
30
66.144859
11
54.635391
21
217.546173
31
68.985390
12
60.482769
22
215.929016
32
30.021975
13
63.487312
23
217.972473
33
28.199266
0
3DFACE
8
0
70
0
10
54.635391
20
217.546173
30
68.985390
11
52.737820
21
208.421509
31
69.555168
12
62.158989
22
208.489899
32
30.723928
13
60.482769
23
215.929016
33
30.021975
0
3DFACE
8
0
70
0
10
52.737820
20
208.421509
30
69.555168
11
55.038292
21
195.329956
31
68.610657
12
62.547180
22
195.246643
32
32.538933
13
62.158989
23
208.489899
33
30.723928
0
3DFACE
8
0
70
0
10
63.487312
20
217.972473
30
28.199266
11
60.482769
21
215.929016
31
30.021975
12
38.805244
22
214.736633
32
7.459453
13
41.142315
23
215.873901
33
5.966144
0
3DFACE
8
0
70
0
10
62.158989
20
208.489899
30
30.723928
11
40.623428
21
212.895996
31
4.777848
12
38.805244
22
214.736633
32
7.459453
13
60.482769
23
215.929016
33
30.021975
0
3DFACE
8
0
70
0
10
62.547180
20
195.246643
30
32.538933
11
37.583138
21
201.238708
31
3.586203
12
40.623428
22
212.895996
32
4.777848
13
62.158989
23
208.489899
33
30.723928
0
3DFACE
8
0
70
0
10
41.142315
20
215.873901
30
5.966144
11
38.805244
21
214.736633
31
7.459453
12
-6.168934
22
215.228943
32
-0.981917
13
-6.881846
23
216.070740
33
-4.517563
0
3DFACE
8
0
70
0
10
40.623428
20
212.895996
30
4.777848
11
-6.204508
21
213.190247
31
-1.158346
12
-6.168934
22
215.228943
32
-0.981917
13
38.805244
23
214.736633
33
7.459453
0
3DFACE
8
0
70
0
10
37.583138
20
201.238708
30
3.586203
11
-5.983163
21
199.282532
31
-0.060623
12
-6.204508
22
213.190247
32
-1.158346
13
40.623428
23
212.895996
33
4.777848
0
3DFACE
8
0
70
0
10
56.812653
20
156.958466
30
38.324230
11
62.284615
21
173.665527
31
33.444355
12
59.444462
22
174.892029
32
66.826874
13
63.666309
23
163.559845
33
68.928123
0
3DFACE
8
0
70
0
10
55.038292
20
195.329956
30
68.610657
11
57.887867
21
185.822998
31
67.230904
12
62.547180
22
195.246643
32
32.538933
13
62.547180
23
195.246643
33
32.538933
0
3DFACE
8
0
70
0
10
59.444462
20
174.892029
30
66.826874
11
62.284615
21
173.665527
31
33.444355
12
62.547180
22
195.246643
32
32.538933
13
57.887867
23
185.822998
33
67.230904
0
3DFACE
8
0
70
0
10
62.284615
20
173.665527
30
33.444355
11
37.294373
21
183.185272
31
6.164649
12
37.583138
22
201.238708
32
3.586203
13
62.547180
23
195.246643
33
32.538933
0
3DFACE
8
0
70
0
10
37.294373
20
183.185272
30
6.164649
11
-5.191408
21
181.819397
31
3.866048
12
-5.983163
22
199.282532
32
-0.060623
13
37.583138
23
201.238708
33
3.586203
0
3DFACE
8
0
70
0
10
16.476906
20
222.883392
30
111.328934
11
32.929108
21
230.824066
31
104.656395
12
34.489799
22
253.244690
32
102.515327
13
16.657692
23
251.819489
33
112.225533
0
3DFACE
8
0
70
0
10
16.657692
20
251.819489
30
112.225533
11
34.489799
21
253.244690
31
102.515327
12
33.957001
22
256.034882
32
97.906593
13
16.025425
23
255.536102
33
109.089844
0
3DFACE
8
0
70
0
10
32.929108
20
230.824066
30
104.656395
11
45.673222
21
224.675812
31
89.901749
12
57.828236
22
252.659241
32
84.234528
13
34.489799
23
253.244690
33
102.515327
0
3DFACE
8
0
70
0
10
34.489799
20
253.244690
30
102.515327
11
57.828236
21
252.659241
31
84.234528
12
55.763580
22
255.835754
32
80.280350
13
33.957001
23
256.034882
33
97.906593
0
3DFACE
8
0
70
0
10
45.673222
20
224.675812
30
89.901749
11
66.473030
21
220.213684
31
66.144859
12
67.409393
22
248.051300
32
50.313572
13
57.828236
23
252.659241
33
84.234528
0
3DFACE
8
0
70
0
10
57.828236
20
252.659241
30
84.234528
11
67.409393
21
248.051300
31
50.313572
12
59.086861
22
252.239502
32
51.023582
13
55.763580
23
255.835754
33
80.280350
0
3DFACE
8
0
70
0
10
66.473030
20
220.213684
30
66.144859
11
63.487312
21
217.972473
31
28.199266
12
66.733368
22
248.928925
32
24.064211
13
67.409393
23
248.051300
33
50.313572
0
3DFACE
8
0
70
0
10
67.409393
20
248.051300
30
50.313572
11
66.733368
21
248.928925
31
24.064211
12
60.648533
22
251.505951
32
27.047365
13
59.086861
23
252.239502
33
51.023582
0
3DFACE
8
0
70
0
10
63.487312
20
217.972473
30
28.199266
11
41.142315
21
215.873901
31
5.966144
12
41.886539
22
243.735840
32
5.127398
13
66.733368
23
248.928925
33
24.064211
0
3DFACE
8
0
70
0
10
66.733368
20
248.928925
30
24.064211
11
41.886539
21
243.735840
31
5.127398
12
37.239452
22
247.776489
32
10.051668
13
60.648533
23
251.505951
33
27.047365
0
3DFACE
8
0
70
0
10
41.142315
20
215.873901
30
5.966144
11
-6.881846
21
216.070740
31
-4.517563
12
-7.078587
22
241.850586
32
-5.493284
13
41.886539
23
243.735840
33
5.127398
0
3DFACE
8
0
70
0
10
41.886539
20
243.735840
30
5.127398
11
-7.078587
21
241.850586
31
-5.493284
12
-6.161663
22
245.354004
32
-0.945846
13
37.239452
23
247.776489
33
10.051668
0
3DFACE
8
0
70
0
10
56.812653
20
156.958466
30
38.324230
11
34.329155
21
172.461060
31
10.484056
12
37.294373
22
183.185272
32
6.164649
13
62.284615
23
173.665527
33
33.444355
0
3DFACE
8
0
70
0
10
34.329155
20
172.461060
30
10.484056
11
-3.933838
21
173.469543
31
-6.442334
12
-5.191408
22
181.819397
32
3.866048
13
37.294373
23
183.185272
33
6.164649
0
3DFACE
8
0
70
0
10
49.950714
20
126.929077
30
55.280369
11
29.593340
21
163.335663
31
35.034630
12
34.329155
22
172.461060
32
10.484056
13
56.812653
23
156.958466
33
38.324230
0
3DFACE
8
0
70
0
10
33.031742
20
100.159531
30
90.425056
11
27.520727
21
101.240234
31
75.331551
12
29.593340
22
163.335663
32
35.034630
13
49.950714
23
126.929077
33
55.280369
0
3DFACE
8
0
70
0
10
27.520727
20
101.240234
30
75.331551
11
9.076807
21
99.711548
31
74.628540
12
4.905800
22
122.270538
32
53.942650
13
29.593340
23
163.335663
33
35.034630
0
3DFACE
8
0
70
0
10
13.653542
20
87.566895
30
97.326607
11
9.076807
21
99.711548
31
74.628540
12
27.520727
22
101.240234
32
75.331551
13
27.520727
23
101.240234
33
75.331551
0
3DFACE
8
0
70
0
10
13.653542
20
87.566895
30
97.326607
11
27.520727
21
101.240234
31
75.331551
12
33.031742
22
100.159531
32
90.425056
13
33.031742
23
100.159531
33
90.425056
0
3DFACE
8
0
70
0
10
18.595634
20
177.804077
30
120.529434
11
19.881172
21
196.101746
31
126.904991
12
-0.704619
22
196.077698
32
124.474243
13
7.492544
23
178.453156
33
117.447517
0
3DFACE
8
0
70
0
10
19.881172
20
196.101746
30
126.904991
11
19.122152
21
208.016052
31
123.140671
12
6.036869
22
204.668732
32
122.107315
13
-0.704619
23
196.077698
33
124.474243
0
3DFACE
8
0
70
0
10
7.492544
20
178.453156
30
117.447517
11
-0.704619
21
196.077698
31
124.474243
12
-7.614245
22
194.025269
32
108.002953
13
3.512118
23
175.449829
33
105.042572
0
3DFACE
8
0
70
0
10
18.595634
20
177.804077
30
120.529434
11
7.492544
21
178.453156
31
117.447517
12
3.512118
22
175.449829
32
105.042572
13
15.908580
23
172.518677
33
108.510353
0
3DFACE
8
0
70
0
10
19.122152
20
208.016052
30
123.140671
11
16.031761
21
209.753601
31
109.121269
12
0.455121
22
205.940918
32
106.750237
13
6.036869
23
204.668732
33
122.107315
0
3DFACE
8
0
70
0
10
-0.704619
20
196.077698
30
124.474243
11
6.036869
21
204.668732
31
122.107315
12
0.455121
22
205.940918
32
106.750237
13
-7.614245
23
194.025269
33
108.002953
0
3DFACE
8
0
70
0
10
11.762663
20
219.214417
30
106.086624
11
-0.426419
21
227.623535
31
107.094772
12
-0.000454
22
208.180939
32
104.657249
13
11.885447
23
210.079224
33
106.695564
0
3DFACE
8
0
70
0
10
-0.000454
20
208.180939
30
104.657249
11
-0.426419
21
227.623535
31
107.094772
12
-14.108002
22
219.497131
32
99.634750
13
-9.912318
23
209.239624
33
101.485962
0
3DFACE
8
0
70
0
10
5.716269
20
156.946838
30
123.686913
11
18.585075
21
156.726715
31
121.784294
12
16.916281
22
174.705566
32
113.507996
13
7.528115
23
176.186340
33
112.633179
0
3DFACE
8
0
70
0
10
-40.378540
20
174.892029
30
86.954720
11
-17.811527
21
155.240356
31
109.252831
12
-11.980236
22
178.213654
32
102.211540
13
-38.787003
23
185.822998
33
86.723976
0
3DFACE
8
0
70
0
10
7.528115
20
176.186340
30
112.633179
11
-6.901168
21
176.451385
31
115.429741
12
-13.840132
22
159.349243
32
118.845421
13
5.716269
23
156.946838
33
123.686913
0
3DFACE
8
0
70
0
10
-35.108780
20
217.546173
30
87.080986
11
-17.976326
21
221.424500
31
100.791954
12
-17.886637
22
224.675812
32
102.717651
13
-47.122204
23
220.213684
33
89.049683
0
3DFACE
8
0
70
0
10
16.476906
20
222.883392
30
111.328934
11
-0.875828
21
231.631287
31
111.492790
12
0.355167
22
229.454041
32
109.661430
13
15.880386
23
221.075012
33
108.370529
0
3DFACE
8
0
70
0
10
-0.875828
20
231.631287
30
111.492790
11
-17.886637
21
224.675812
31
102.717651
12
-17.976326
22
221.424500
32
100.791954
13
0.355167
23
229.454041
33
109.661430
0
3DFACE
8
0
70
0
10
18.026825
20
130.195251
30
119.015678
11
17.515524
21
144.792999
31
116.479904
12
2.732161
22
147.892578
32
113.954880
13
-0.026894
23
138.693787
33
116.371552
0
3DFACE
8
0
70
0
10
13.653542
20
87.566895
30
97.326607
11
18.026825
21
130.195251
31
119.015678
12
-0.026894
22
138.693787
32
116.371552
13
-6.884967
23
100.159531
33
98.473679
0
3DFACE
8
0
70
0
10
-40.378540
20
174.892029
30
86.954720
11
-43.456234
21
163.559845
31
90.527817
12
-18.937988
22
152.239746
32
100.209869
13
-17.811527
23
155.240356
33
109.252831
0
3DFACE
8
0
70
0
10
-18.937988
20
152.239746
30
100.209869
11
-43.456234
21
163.559845
31
90.527817
12
-48.997593
22
156.958466
32
59.659317
13
-36.101055
23
126.929077
33
72.631447
0
3DFACE
8
0
70
0
10
-6.884967
20
100.159531
30
98.473679
11
-0.026894
21
138.693787
31
116.371552
12
-18.937988
22
152.239746
32
100.209869
13
-36.101055
23
126.929077
33
72.631447
0
3DFACE
8
0
70
0
10
-0.026894
20
138.693787
30
116.371552
11
2.732161
21
147.892578
31
113.954880
12
-17.811527
22
155.240356
32
109.252831
13
-18.937988
23
152.239746
33
100.209869
0
3DFACE
8
0
70
0
10
18.585075
20
156.726715
30
121.784294
11
5.716269
21
156.946838
31
123.686913
12
2.732161
22
147.892578
32
113.954880
13
17.515524
23
144.792999
33
116.479904
0
3DFACE
8
0
70
0
10
16.916281
20
174.705566
30
113.507996
11
15.908580
21
172.518677
31
108.510353
12
3.512118
22
175.449829
32
105.042572
13
7.528115
23
176.186340
33
112.633179
0
3DFACE
8
0
70
0
10
-6.901168
20
176.451385
30
115.429741
11
7.528115
21
176.186340
31
112.633179
12
3.512118
22
175.449829
32
105.042572
13
-11.980236
23
178.213654
33
102.211540
0
POINT
8
0
70
0
10
-37.496025
20
158.506531
30
104.708649
0
3DFACE
8
0
70
0
10
5.716269
20
156.946838
30
123.686913
11
-13.840132
21
159.349243
31
118.845421
12
-17.811527
22
155.240356
32
109.252831
13
2.732161
23
147.892578
33
113.954880
0
3DFACE
8
0
70
0
10
-13.840132
20
159.349243
30
118.845421
11
-6.901168
21
176.451385
31
115.429741
12
-37.496025
22
158.506531
32
104.708649
13
-37.496025
23
158.506531
33
104.708649
0
3DFACE
8
0
70
0
10
-6.901168
20
176.451385
30
115.429741
11
-11.980236
21
178.213654
31
102.211540
12
-37.496025
22
158.506531
32
104.708649
13
-37.496025
23
158.506531
33
104.708649
0
3DFACE
8
0
70
0
10
-37.496025
20
158.506531
30
104.708649
11
-11.980236
21
178.213654
31
102.211540
12
-17.811527
22
155.240356
32
109.252831
13
-17.811527
23
155.240356
33
109.252831
0
3DFACE
8
0
70
0
10
-17.811527
20
155.240356
30
109.252831
11
-13.840132
21
159.349243
31
118.845421
12
-37.496025
22
158.506531
32
104.708649
13
-37.496025
23
158.506531
33
104.708649
0
3DFACE
8
0
70
0
10
-47.122204
20
220.213684
30
89.049683
11
-59.074295
21
217.972473
31
52.912022
12
-55.598186
22
215.929016
32
53.428001
13
-35.108780
23
217.546173
33
87.080986
0
3DFACE
8
0
70
0
10
-35.108780
20
217.546173
30
87.080986
11
-55.598186
21
215.929016
31
53.428001
12
-56.871418
22
208.489899
32
54.724670
13
-33.138683
23
208.421509
33
86.870903
0
3DFACE
8
0
70
0
10
-33.138683
20
208.421509
30
86.870903
11
-56.871418
21
208.489899
31
54.724670
12
-56.525936
22
195.246643
32
56.548283
13
-35.625412
23
195.329956
33
86.891663
0
3DFACE
8
0
70
0
10
-59.074295
20
217.972473
30
52.912022
11
-47.090946
21
215.873901
31
23.757090
12
-44.357807
22
214.736633
32
24.228065
13
-55.598186
23
215.929016
33
53.428001
0
3DFACE
8
0
70
0
10
-56.871418
20
208.489899
30
54.724670
11
-55.598186
21
215.929016
31
53.428001
12
-44.357807
22
214.736633
32
24.228065
13
-47.073097
23
212.895996
33
22.460569
0
3DFACE
8
0
70
0
10
-56.525936
20
195.246643
30
56.548283
11
-56.871418
21
208.489899
31
54.724670
12
-47.073097
22
212.895996
32
22.460569
13
-44.732140
23
201.238708
33
20.183874
0
3DFACE
8
0
70
0
10
-47.090946
20
215.873901
30
23.757090
11
-6.881846
21
216.070740
31
-4.517563
12
-6.168934
22
215.228943
32
-0.981917
13
-44.357807
23
214.736633
33
24.228065
0
3DFACE
8
0
70
0
10
-47.073097
20
212.895996
30
22.460569
11
-44.357807
21
214.736633
31
24.228065
12
-6.168934
22
215.228943
32
-0.981917
13
-6.204508
23
213.190247
33
-1.158346
0
3DFACE
8
0
70
0
10
-44.732140
20
201.238708
30
20.183874
11
-47.073097
21
212.895996
31
22.460569
12
-6.204508
22
213.190247
32
-1.158346
13
-5.983163
23
199.282532
33
-0.060623
0
3DFACE
8
0
70
0
10
-48.997593
20
156.958466
30
59.659317
11
-43.456234
21
163.559845
31
90.527817
12
-40.378540
22
174.892029
32
86.954720
13
-55.933014
23
173.665527
33
57.281212
0
3DFACE
8
0
70
0
10
-35.625412
20
195.329956
30
86.891663
11
-56.525936
21
195.246643
31
56.548283
12
-38.787003
22
185.822998
32
86.723976
13
-38.787003
23
185.822998
33
86.723976
0
3DFACE
8
0
70
0
10
-40.378540
20
174.892029
30
86.954720
11
-38.787003
21
185.822998
31
86.723976
12
-56.525936
22
195.246643
32
56.548283
13
-55.933014
23
173.665527
33
57.281212
0
3DFACE
8
0
70
0
10
-55.933014
20
173.665527
30
57.281212
11
-56.525936
21
195.246643
31
56.548283
12
-44.732140
22
201.238708
32
20.183874
13
-43.466751
23
183.185272
33
22.448946
0
3DFACE
8
0
70
0
10
-43.466751
20
183.185272
30
22.448946
11
-44.732140
21
201.238708
31
20.183874
12
-5.983163
22
199.282532
32
-0.060623
13
-5.191408
23
181.819397
33
3.866048
0
3DFACE
8
0
70
0
10
16.476906
20
222.883392
30
111.328934
11
16.657692
21
251.819489
31
112.225533
12
-3.543933
22
253.244690
32
110.184273
13
-0.875828
23
231.631287
33
111.492790
0
3DFACE
8
0
70
0
10
16.657692
20
251.819489
30
112.225533
11
16.025425
21
255.536102
31
109.089844
12
-4.838723
22
256.034882
32
105.729179
13
-3.543933
23
253.244690
33
110.184273
0
3DFACE
8
0
70
0
10
-0.875828
20
231.631287
30
111.492790
11
-3.543933
21
253.244690
31
110.184273
12
-32.142864
22
252.659241
32
102.375885
13
-17.886637
23
224.675812
33
102.717651
0
3DFACE
8
0
70
0
10
-3.543933
20
253.244690
30
110.184273
11
-4.838723
21
256.034882
31
105.729179
12
-31.771837
22
255.835754
32
97.930588
13
-32.142864
23
252.659241
33
102.375885
0
3DFACE
8
0
70
0
10
-17.886637
20
224.675812
30
102.717651
11
-32.142864
21
252.659241
31
102.375885
12
-54.120277
22
248.051300
32
74.818253
13
-47.122204
23
220.213684
33
89.049683
0
3DFACE
8
0
70
0
10
-32.142864
20
252.659241
30
102.375885
11
-31.771837
21
255.835754
31
97.930588
12
-46.172901
22
252.239502
32
72.247673
13
-54.120277
23
248.051300
33
74.818253
0
3DFACE
8
0
70
0
10
-47.122204
20
220.213684
30
89.049683
11
-54.120277
21
248.051300
31
74.818253
12
-63.669109
22
248.928925
32
50.357964
13
-59.074295
23
217.972473
33
52.912022
0
3DFACE
8
0
70
0
10
-54.120277
20
248.051300
30
74.818253
11
-46.172901
21
252.239502
31
72.247673
12
-56.903709
22
251.505951
32
50.750053
13
-63.669109
23
248.928925
33
50.357964
0
3DFACE
8
0
70
0
10
-59.074295
20
217.972473
30
52.912022
11
-63.669109
21
248.928925
31
50.357964
12
-48.102051
22
243.735840
32
23.272282
13
-47.090946
23
215.873901
33
23.757090
0
3DFACE
8
0
70
0
10
-63.669109
20
248.928925
30
50.357964
11
-56.903709
21
251.505951
31
50.750053
12
-41.909847
22
247.776489
32
26.010967
13
-48.102051
23
243.735840
33
23.272282
0
3DFACE
8
0
70
0
10
-47.090946
20
215.873901
30
23.757090
11
-48.102051
21
243.735840
31
23.272282
12
-7.078587
22
241.850586
32
-5.493284
13
-6.881846
23
216.070740
33
-4.517563
0
3DFACE
8
0
70
0
10
-48.102051
20
243.735840
30
23.272282
11
-41.909847
21
247.776489
31
26.010967
12
-6.161663
22
245.354004
32
-0.945846
13
-7.078587
23
241.850586
33
-5.493284
0
3DFACE
8
0
70
0
10
-48.997593
20
156.958466
30
59.659317
11
-55.933014
21
173.665527
31
57.281212
12
-43.466751
22
183.185272
32
22.448946
13
-40.579861
23
171.384766
33
15.230536
0
3DFACE
8
0
70
0
10
-40.579861
20
171.384766
30
15.230536
11
-43.466751
21
183.185272
31
22.448946
12
-5.191408
22
181.819397
32
3.866048
13
-3.933838
23
173.469543
33
-6.442334
0
3DFACE
8
0
70
0
10
-36.101055
20
126.929077
30
72.631447
11
-48.997593
21
156.958466
31
59.659317
12
-40.579861
22
171.384766
32
15.230536
13
-31.939043
23
162.109558
33
40.441647
0
3DFACE
8
0
70
0
10
-6.884967
20
100.159531
30
98.473679
11
-36.101055
21
126.929077
31
72.631447
12
-31.939043
22
162.109558
32
40.441647
13
-7.653537
23
101.240234
33
82.423927
0
3DFACE
8
0
70
0
10
-7.653537
20
101.240234
30
82.423927
11
-31.939043
21
162.109558
31
40.441647
12
4.905800
22
122.270538
32
53.942650
13
9.076807
23
99.711548
33
74.628540
0
3DFACE
8
0
70
0
10
13.653542
20
87.566895
30
97.326607
11
-7.653537
21
101.240234
31
82.423927
12
9.076807
22
99.711548
32
74.628540
13
9.076807
23
99.711548
33
74.628540
0
3DFACE
8
0
70
0
10
13.653542
20
87.566895
30
97.326607
11
-6.884967
21
100.159531
31
98.473679
12
-7.653537
22
101.240234
32
82.423927
13
-7.653537
23
101.240234
33
82.423927
0
3DFACE
8
0
70
0
10
11.885447
20
210.079224
30
106.695564
11
16.031761
21
209.753601
31
109.121269
12
15.880386
22
221.075012
32
108.370529
13
11.762663
23
219.214417
33
106.086624
0
3DFACE
8
0
70
0
10
-0.000454
20
208.180939
30
104.657249
11
0.455121
21
205.940918
31
106.750237
12
16.031761
22
209.753601
32
109.121269
13
11.885447
23
210.079224
33
106.695564
0
3DFACE
8
0
70
0
10
-0.426419
20
227.623535
30
107.094772
11
11.762663
21
219.214417
31
106.086624
12
15.880386
22
221.075012
32
108.370529
13
0.355167
23
229.454041
33
109.661430
0
3DFACE
8
0
70
0
10
-0.000454
20
208.180939
30
104.657249
11
-9.912318
21
209.239624
31
101.485962
12
-12.504834
22
207.375000
32
102.984024
13
0.455121
23
205.940918
33
106.750237
0
3DFACE
8
0
70
0
10
-9.912318
20
209.239624
30
101.485962
11
-14.108002
21
219.497131
31
99.634750
12
-17.976326
22
221.424500
32
100.791954
13
-12.504834
23
207.375000
33
102.984024
0
3DFACE
8
0
70
0
10
-0.426419
20
227.623535
30
107.094772
11
0.355167
21
229.454041
31
109.661430
12
-17.976326
22
221.424500
32
100.791954
13
-14.108002
23
219.497131
33
99.634750
0
3DFACE
8
0
70
0
10
31.014458
20
226.933502
30
100.532822
11
31.084614
21
228.646820
31
103.445160
12
15.880386
22
221.075012
32
108.370529
13
19.271719
23
219.329224
33
104.759392
0
3DFACE
8
0
70
0
10
29.183376
20
207.584137
30
98.114792
11
19.431765
21
209.802002
31
105.553131
12
16.031761
22
209.753601
32
109.121269
13
29.472479
23
205.940918
33
100.899307
0
3DFACE
8
0
70
0
10
19.431765
20
209.802002
30
105.553131
11
19.271719
21
219.329224
31
104.759392
12
15.880386
22
221.075012
32
108.370529
13
16.031761
23
209.753601
33
109.121269
0
3DFACE
8
0
70
0
10
31.014458
20
226.933502
30
100.532822
11
40.267666
21
219.677734
31
86.120552
12
45.009659
22
221.424500
32
88.091751
13
31.084614
23
228.646820
33
103.445160
0
3DFACE
8
0
70
0
10
37.319611
20
208.733459
30
90.087730
11
40.815155
21
207.375000
31
92.232826
12
45.009659
22
221.424500
32
88.091751
13
40.267666
23
219.677734
33
86.120552
0
3DFACE
8
0
70
0
10
29.183376
20
207.584137
30
98.114792
11
29.472479
21
205.940918
31
100.899307
12
40.815155
22
207.375000
32
92.232826
13
37.319611
23
208.733459
33
90.087730
0
3DFACE
8
0
70
0
10
-3.933838
20
173.469543
30
-6.442334
11
34.329155
21
172.461060
31
10.484056
12
57.183811
22
158.181702
32
-19.755610
13
-4.387678
23
178.652618
33
-25.695349
0
3DFACE
8
0
70
0
10
-4.387678
20
178.652618
30
-25.695349
11
-67.057755
21
161.524048
31
-21.993227
12
-40.579861
22
171.384766
32
15.230536
13
-3.933838
23
173.469543
33
-6.442334
0
3DFACE
8
0
70
0
10
-67.057755
20
161.524048
30
-21.993227
11
-59.727741
21
154.580383
31
38.214321
12
-40.579861
22
171.384766
32
15.230536
13
-40.579861
23
171.384766
33
15.230536
0
3DFACE
8
0
70
0
10
-59.727741
20
154.580383
30
38.214321
11
-31.939043
21
162.109558
31
40.441647
12
-40.579861
22
171.384766
32
15.230536
13
-40.579861
23
171.384766
33
15.230536
0
3DFACE
8
0
70
0
10
49.763012
20
157.078278
30
39.977848
11
34.329155
21
172.461060
31
10.484056
12
29.593340
22
163.335663
32
35.034630
13
29.593340
23
163.335663
33
35.034630
0
3DFACE
8
0
70
0
10
57.183811
20
158.181702
30
-19.755610
11
34.329155
21
172.461060
31
10.484056
12
49.763012
22
157.078278
32
39.977848
13
49.763012
23
157.078278
33
39.977848
0
3DFACE
8
0
70
0
10
-5.989550
20
167.316895
30
41.885544
11
-31.939043
21
162.109558
31
40.441647
12
-59.727741
22
154.580383
32
38.214321
13
-59.727741
23
154.580383
33
38.214321
0
3DFACE
8
0
70
0
10
4.905800
20
122.270538
30
53.942650
11
-31.939043
21
162.109558
31
40.441647
12
-5.989550
22
167.316895
32
41.885544
13
-5.989550
23
167.316895
33
41.885544
0
3DFACE
8
0
70
0
10
4.905800
20
122.270538
30
53.942650
11
-5.989550
21
167.316895
31
41.885544
12
29.593340
22
163.335663
32
35.034630
13
29.593340
23
163.335663
33
35.034630
0
3DFACE
8
0
70
0
10
-5.989550
20
167.316895
30
41.885544
11
49.763012
21
157.078278
31
39.977848
12
29.593340
22
163.335663
32
35.034630
13
29.593340
23
163.335663
33
35.034630
0
3DFACE
8
0
70
0
10
-6.161663
20
245.354004
30
-0.945846
11
0.891523
21
303.946228
31
25.277655
12
13.937440
22
309.762726
32
31.204933
13
37.239452
23
247.776489
33
10.051668
0
3DFACE
8
0
70
0
10
37.239452
20
247.776489
30
10.051668
11
13.937440
21
309.762726
31
31.204933
12
23.683327
22
313.350616
32
41.300564
13
60.648533
23
251.505951
33
27.047365
0
3DFACE
8
0
70
0
10
60.648533
20
251.505951
30
27.047365
11
23.683327
21
313.350616
31
41.300564
12
23.716928
22
311.808594
32
52.968540
13
59.086861
23
252.239502
33
51.023582
0
3DFACE
8
0
70
0
10
59.086861
20
252.239502
30
51.023582
11
23.716928
21
311.808594
31
52.968540
12
24.026379
22
310.037445
32
67.397293
13
55.763580
23
255.835754
33
80.280350
0
3DFACE
8
0
70
0
10
16.025425
20
255.536102
30
109.089844
11
33.957001
21
256.034882
31
97.906593
12
16.304045
22
305.047699
32
75.464516
13
9.824340
23
301.100739
33
80.438652
0
3DFACE
8
0
70
0
10
-6.161663
20
245.354004
30
-0.945846
11
-41.909847
21
247.776489
31
26.010967
12
-9.717953
22
297.353638
32
34.395580
13
0.891523
23
303.946228
33
25.277655
0
3DFACE
8
0
70
0
10
-41.909847
20
247.776489
30
26.010967
11
-56.903709
21
251.505951
31
50.750053
12
-15.847307
22
292.613739
32
46.632465
13
-9.717953
23
297.353638
33
34.395580
0
3DFACE
8
0
70
0
10
-56.903709
20
251.505951
30
50.750053
11
-46.172901
21
252.239502
31
72.247673
12
-12.181216
22
292.977234
32
57.810493
13
-15.847307
23
292.613739
33
46.632465
0
3DFACE
8
0
70
0
10
-46.172901
20
252.239502
30
72.247673
11
-31.771837
21
255.835754
31
97.930588
12
-7.904125
22
293.287384
32
71.704086
13
-12.181216
23
292.977234
33
57.810493
0
3DFACE
8
0
70
0
10
16.025425
20
255.536102
30
109.089844
11
9.824340
21
301.100739
31
80.438652
12
2.045051
22
297.567749
32
77.387772
13
-4.838723
23
256.034882
33
105.729179
0
3DFACE
8
0
70
0
10
55.763580
20
255.835754
30
80.280350
11
24.026379
21
310.037445
31
67.397293
12
16.304045
22
305.047699
32
75.464516
13
33.957001
23
256.034882
33
97.906593
0
3DFACE
8
0
70
0
10
-31.771837
20
255.835754
30
97.930588
11
-4.838723
21
256.034882
31
105.729179
12
2.045051
22
297.567749
32
77.387772
13
-7.904125
23
293.287384
33
71.704086
0
3DFACE
8
0
70
0
10
-39.648716
20
322.098663
30
78.154572
11
-41.283913
21
338.023224
31
73.607979
12
-53.737171
22
328.776123
32
74.178711
13
-53.737171
23
328.776123
33
74.178711
0
3DFACE
8
0
70
0
10
-27.837961
20
331.843994
30
71.637543
11
-41.283913
21
338.023224
31
73.607979
12
-39.648716
22
322.098663
32
78.154572
13
-39.648716
23
322.098663
33
78.154572
0
3DFACE
8
0
70
0
10
-26.845215
20
316.417633
30
70.237831
11
-27.837961
21
331.843994
31
71.637543
12
-39.648716
22
322.098663
32
78.154572
13
-39.648716
23
322.098663
33
78.154572
0
3DFACE
8
0
70
0
10
-26.845215
20
316.417633
30
70.237831
11
-39.648716
21
322.098663
31
78.154572
12
-39.298405
22
307.170532
32
70.808556
13
-39.298405
23
307.170532
33
70.808556
0
3DFACE
8
0
70
0
10
-39.298405
20
307.170532
30
70.808556
11
-39.648716
21
322.098663
31
78.154572
12
-52.744358
22
313.349762
32
72.778992
13
-52.744358
23
313.349762
33
72.778992
0
3DFACE
8
0
70
0
10
-39.648716
20
322.098663
30
78.154572
11
-53.737171
21
328.776123
31
74.178711
12
-52.744358
22
313.349762
32
72.778992
13
-52.744358
23
313.349762
33
72.778992
0
3DFACE
8
0
70
0
10
-41.283913
20
338.023224
30
73.607979
11
-43.246208
21
345.615784
31
59.832123
12
-60.857697
22
332.538391
32
60.639252
13
-53.737171
23
328.776123
33
74.178711
0
3DFACE
8
0
70
0
10
-24.230688
20
336.877014
30
57.045498
11
-43.246208
21
345.615784
31
59.832123
12
-41.283913
22
338.023224
32
73.607979
13
-27.837961
23
331.843994
33
71.637543
0
3DFACE
8
0
70
0
10
-22.826738
20
315.060852
30
55.066010
11
-24.230688
21
336.877014
31
57.045498
12
-27.837961
22
331.843994
32
71.637543
13
-26.845215
23
316.417633
33
70.237831
0
3DFACE
8
0
70
0
10
-22.826738
20
315.060852
30
55.066010
11
-26.845215
21
316.417633
31
70.237831
12
-39.298405
22
307.170532
32
70.808556
13
-40.438198
23
301.983459
33
55.873135
0
3DFACE
8
0
70
0
10
-40.438198
20
301.983459
30
55.873135
11
-39.298405
21
307.170532
31
70.808556
12
-52.744358
22
313.349762
32
72.778992
13
-59.453720
23
310.722229
33
58.659763
0
3DFACE
8
0
70
0
10
-52.744358
20
313.349762
30
72.778992
11
-53.737171
21
328.776123
31
74.178711
12
-60.857697
22
332.538391
32
60.639252
13
-59.453720
23
310.722229
33
58.659763
0
3DFACE
8
0
70
0
10
-44.385933
20
340.428711
30
44.896694
11
-56.839191
21
331.181610
31
45.467422
12
-60.857697
22
332.538391
32
60.639252
13
-43.246208
23
345.615784
33
59.832123
0
3DFACE
8
0
70
0
10
-24.230688
20
336.877014
30
57.045498
11
-30.939983
21
334.249481
31
42.926258
12
-44.385933
22
340.428711
32
44.896694
13
-43.246208
23
345.615784
33
59.832123
0
3DFACE
8
0
70
0
10
-22.826738
20
315.060852
30
55.066010
11
-29.947235
21
318.823120
31
41.526546
12
-30.939983
22
334.249481
32
42.926258
13
-24.230688
23
336.877014
33
57.045498
0
3DFACE
8
0
70
0
10
-22.826738
20
315.060852
30
55.066010
11
-40.438198
21
301.983459
31
55.873135
12
-42.400425
22
309.576019
32
42.097271
13
-29.947235
23
318.823120
33
41.526546
0
3DFACE
8
0
70
0
10
-40.438198
20
301.983459
30
55.873135
11
-59.453720
21
310.722229
31
58.659763
12
-55.846378
22
315.755249
32
44.067703
13
-42.400425
23
309.576019
33
42.097271
0
3DFACE
8
0
70
0
10
-55.846378
20
315.755249
30
44.067703
11
-59.453720
21
310.722229
31
58.659763
12
-60.857697
22
332.538391
32
60.639252
13
-56.839191
23
331.181610
33
45.467422
0
3DFACE
8
0
70
0
10
-44.035641
20
325.500549
30
37.550667
11
-56.839191
21
331.181610
31
45.467422
12
-44.385933
22
340.428711
32
44.896694
13
-44.385933
23
340.428711
33
44.896694
0
3DFACE
8
0
70
0
10
-30.939983
20
334.249481
30
42.926258
11
-44.035641
21
325.500549
31
37.550667
12
-44.385933
22
340.428711
32
44.896694
13
-44.385933
23
340.428711
33
44.896694
0
3DFACE
8
0
70
0
10
-29.947235
20
318.823120
30
41.526546
11
-44.035641
21
325.500549
31
37.550667
12
-30.939983
22
334.249481
32
42.926258
13
-30.939983
23
334.249481
33
42.926258
0
3DFACE
8
0
70
0
10
-29.947235
20
318.823120
30
41.526546
11
-42.400425
21
309.576019
31
42.097271
12
-44.035641
22
325.500549
32
37.550667
13
-44.035641
23
325.500549
33
37.550667
0
3DFACE
8
0
70
0
10
-42.400425
20
309.576019
30
42.097271
11
-55.846378
21
315.755249
31
44.067703
12
-44.035641
22
325.500549
32
37.550667
13
-44.035641
23
325.500549
33
37.550667
0
3DFACE
8
0
70
0
10
-44.035641
20
325.500549
30
37.550667
11
-55.846378
21
315.755249
31
44.067703
12
-56.839191
22
331.181610
32
45.467422
13
-56.839191
23
331.181610
33
45.467422
0
3DFACE
8
0
70
0
10
39.177364
20
178.213654
30
91.896355
11
57.887867
21
185.822998
31
67.230904
12
51.139534
22
193.946106
32
93.057716
13
51.139534
23
193.946106
33
93.057716
0
3DFACE
8
0
70
0
10
57.887867
20
185.822998
30
67.230904
11
55.038292
21
195.329956
31
68.610657
12
51.139534
22
193.946106
32
93.057716
13
51.139534
23
193.946106
33
93.057716
0
3DFACE
8
0
70
0
10
25.992599
20
175.449829
30
100.509705
11
39.177364
21
178.213654
31
91.896355
12
37.396782
22
194.025269
32
98.927139
13
37.396782
23
194.025269
33
98.927139
0
3DFACE
8
0
70
0
10
39.177364
20
178.213654
30
91.896355
11
51.139534
21
193.946106
31
93.057716
12
37.396782
22
194.025269
32
98.927139
13
37.396782
23
194.025269
33
98.927139
0
3DFACE
8
0
70
0
10
51.139534
20
193.946106
30
93.057716
11
55.038292
21
195.329956
31
68.610657
12
40.815155
22
207.375000
32
92.232826
13
40.815155
23
207.375000
33
92.232826
0
3DFACE
8
0
70
0
10
55.038292
20
195.329956
30
68.610657
11
52.737820
21
208.421509
31
69.555168
12
40.815155
22
207.375000
32
92.232826
13
40.815155
23
207.375000
33
92.232826
0
3DFACE
8
0
70
0
10
37.396782
20
194.025269
30
98.927139
11
40.815155
21
207.375000
31
92.232826
12
29.472479
22
205.940918
32
100.899307
13
29.472479
23
205.940918
33
100.899307
0
3DFACE
8
0
70
0
10
51.139534
20
193.946106
30
93.057716
11
40.815155
21
207.375000
31
92.232826
12
37.396782
22
194.025269
32
98.927139
13
37.396782
23
194.025269
33
98.927139
0
3DFACE
8
0
70
0
10
40.815155
20
207.375000
30
92.232826
11
52.737820
21
208.421509
31
69.555168
12
45.009659
22
221.424500
32
88.091751
13
45.009659
23
221.424500
33
88.091751
0
3DFACE
8
0
70
0
10
52.737820
20
208.421509
30
69.555168
11
54.635391
21
217.546173
31
68.985390
12
45.009659
22
221.424500
32
88.091751
13
45.009659
23
221.424500
33
88.091751
0
3DFACE
8
0
70
0
10
-38.787003
20
185.822998
30
86.723976
11
-22.557676
21
193.946106
31
107.917679
12
-35.625412
22
195.329956
32
86.891663
13
-35.625412
23
195.329956
33
86.891663
0
3DFACE
8
0
70
0
10
-11.980236
20
178.213654
30
102.211540
11
-22.557676
21
193.946106
31
107.917679
12
-38.787003
22
185.822998
32
86.723976
13
-38.787003
23
185.822998
33
86.723976
0
3DFACE
8
0
70
0
10
-11.980236
20
178.213654
30
102.211540
11
-7.614245
21
194.025269
31
108.002953
12
-22.557676
22
193.946106
32
107.917679
13
-22.557676
23
193.946106
33
107.917679
0
3DFACE
8
0
70
0
10
3.512118
20
175.449829
30
105.042572
11
-7.614245
21
194.025269
31
108.002953
12
-11.980236
22
178.213654
32
102.211540
13
-11.980236
23
178.213654
33
102.211540
0
3DFACE
8
0
70
0
10
-35.625412
20
195.329956
30
86.891663
11
-12.504834
21
207.375000
31
102.984024
12
-33.138683
22
208.421509
32
86.870903
13
-33.138683
23
208.421509
33
86.870903
0
3DFACE
8
0
70
0
10
-22.557676
20
193.946106
30
107.917679
11
-12.504834
21
207.375000
31
102.984024
12
-35.625412
22
195.329956
32
86.891663
13
-35.625412
23
195.329956
33
86.891663
0
3DFACE
8
0
70
0
10
-7.614245
20
194.025269
30
108.002953
11
0.455121
21
205.940918
31
106.750237
12
-12.504834
22
207.375000
32
102.984024
13
-12.504834
23
207.375000
33
102.984024
0
3DFACE
8
0
70
0
10
-22.557676
20
193.946106
30
107.917679
11
-7.614245
21
194.025269
31
108.002953
12
-12.504834
22
207.375000
32
102.984024
13
-12.504834
23
207.375000
33
102.984024
0
3DFACE
8
0
70
0
10
-33.138683
20
208.421509
30
86.870903
11
-17.976326
21
221.424500
31
100.791954
12
-35.108780
22
217.546173
32
87.080986
13
-35.108780
23
217.546173
33
87.080986
0
3DFACE
8
0
70
0
10
-12.504834
20
207.375000
30
102.984024
11
-17.976326
21
221.424500
31
100.791954
12
-33.138683
22
208.421509
32
86.870903
13
-33.138683
23
208.421509
33
86.870903
0
3DFACE
8
0
70
0
10
46.795029
20
-71.189331
30
43.299236
11
37.417122
21
-51.761185
31
25.832306
12
23.482136
22
-63.273979
32
3.447037
13
23.482136
23
-63.273979
33
3.447037
0
3DFACE
8
0
70
0
10
46.795029
20
-71.189331
30
43.299236
11
23.482136
21
-63.273979
31
3.447037
12
33.087627
22
-77.393860
32
22.453306
13
33.087627
23
-77.393860
33
22.453306
0
3DFACE
8
0
70
0
10
46.795029
20
-71.189331
30
43.299236
11
75.393593
21
-54.296257
31
5.082145
12
37.417122
22
-51.761185
32
25.832306
13
37.417122
23
-51.761185
33
25.832306
0
3DFACE
8
0
70
0
10
46.795029
20
-71.189331
30
43.299236
11
79.185120
21
-73.145737
31
24.936522
12
75.393593
22
-54.296257
32
5.082145
13
75.393593
23
-54.296257
33
5.082145
0
3DFACE
8
0
70
0
10
79.185120
20
-73.145737
30
24.936522
11
81.467033
21
-61.139664
31
-13.757897
12
75.393593
22
-54.296257
32
5.082145
13
75.393593
23
-54.296257
33
5.082145
0
3DFACE
8
0
70
0
10
79.185120
20
-73.145737
30
24.936522
11
83.990120
21
-77.036270
31
7.561900
12
81.467033
22
-61.139664
32
-13.757897
13
81.467033
23
-61.139664
33
-13.757897
0
3DFACE
8
0
70
0
10
34.323360
20
-83.756668
30
-3.835438
11
23.482136
21
-63.273979
31
3.447037
12
24.421356
22
-74.713348
32
-24.494551
13
24.421356
23
-74.713348
33
-24.494551
0
3DFACE
8
0
70
0
10
33.087627
20
-77.393860
30
22.453306
11
23.482136
21
-63.273979
31
3.447037
12
34.323360
22
-83.756668
32
-3.835438
13
34.323360
23
-83.756668
33
-3.835438
0
3DFACE
8
0
70
0
10
71.078537
20
-81.314507
30
-5.701020
11
66.946342
21
-69.215172
31
-27.630314
12
81.467033
22
-61.139664
32
-13.757897
13
81.467033
23
-61.139664
33
-13.757897
0
3DFACE
8
0
70
0
10
83.990120
20
-77.036270
30
7.561900
11
71.078537
21
-81.314507
31
-5.701020
12
81.467033
22
-61.139664
32
-13.757897
13
81.467033
23
-61.139664
33
-13.757897
0
3DFACE
8
0
70
0
10
34.323360
20
-83.756668
30
-3.835438
11
24.421356
21
-74.713348
31
-24.494551
12
66.946342
22
-69.215172
32
-27.630314
13
66.946342
23
-69.215172
33
-27.630314
0
3DFACE
8
0
70
0
10
71.078537
20
-81.314507
30
-5.701020
11
34.323360
21
-83.756668
31
-3.835438
12
66.946342
22
-69.215172
32
-27.630314
13
66.946342
23
-69.215172
33
-27.630314
0
3DFACE
8
0
70
0
10
-25.195112
20
-72.656784
30
26.674852
11
-23.420841
21
-75.207466
31
1.277769
12
-23.346640
22
-50.444847
32
-10.425714
13
-23.346640
23
-50.444847
33
-10.425714
0
3DFACE
8
0
70
0
10
-25.195112
20
-72.656784
30
26.674852
11
-23.346640
21
-50.444847
31
-10.425714
12
-24.631472
22
-52.525070
32
17.049297
13
-24.631472
23
-52.525070
33
17.049297
0
3DFACE
8
0
70
0
10
-25.195112
20
-72.656784
30
26.674852
11
-24.631472
21
-52.525070
31
17.049297
12
-67.558174
22
-51.275467
32
18.655172
13
-67.558174
23
-51.275467
33
18.655172
0
3DFACE
8
0
70
0
10
-25.195112
20
-72.656784
30
26.674852
11
-67.558174
21
-51.275467
31
18.655172
12
-62.133686
22
-72.002159
32
27.508589
13
-62.133686
23
-72.002159
33
27.508589
0
3DFACE
8
0
70
0
10
-62.133686
20
-72.002159
30
27.508589
11
-67.558174
21
-51.275467
31
18.655172
12
-81.908264
22
-49.762077
32
5.001380
13
-81.908264
23
-49.762077
33
5.001380
0
3DFACE
8
0
70
0
10
-62.133686
20
-72.002159
30
27.508589
11
-81.908264
21
-49.762077
31
5.001380
12
-74.708099
22
-73.069054
32
14.810788
13
-74.708099
23
-73.069054
33
14.810788
0
3DFACE
8
0
70
0
10
-37.221409
20
-77.215500
30
-21.084003
11
-37.635117
21
-48.092758
31
-34.967697
12
-23.346640
22
-50.444847
32
-10.425714
13
-23.346640
23
-50.444847
33
-10.425714
0
3DFACE
8
0
70
0
10
-23.420841
20
-75.207466
30
1.277769
11
-37.221409
21
-77.215500
31
-21.084003
12
-23.346640
22
-50.444847
32
-10.425714
13
-23.346640
23
-50.444847
33
-10.425714
0
3DFACE
8
0
70
0
10
-74.708099
20
-73.069054
30
14.810788
11
-81.908264
21
-49.762077
31
5.001380
12
-69.950775
22
-74.965324
32
-3.534669
13
-69.950775
23
-74.965324
33
-3.534669
0
3DFACE
8
0
70
0
10
-69.950775
20
-74.965324
30
-3.534669
11
-81.908264
21
-49.762077
31
5.001380
12
-76.010544
22
-48.394455
32
-15.155876
13
-76.010544
23
-48.394455
33
-15.155876
0
3DFACE
8
0
70
0
10
-69.950775
20
-74.965324
30
-3.534669
11
-76.010544
21
-48.394455
31
-15.155876
12
-37.221409
22
-77.215500
32
-21.084003
13
-37.221409
23
-77.215500
33
-21.084003
0
3DFACE
8
0
70
0
10
-37.221409
20
-77.215500
30
-21.084003
11
-76.010544
21
-48.394455
31
-15.155876
12
-37.635117
22
-48.092758
32
-34.967697
13
-37.635117
23
-48.092758
33
-34.967697
0
3DFACE
8
0
70
0
10
41.081688
20
-97.275009
30
25.590595
11
46.795029
21
-71.189331
31
43.299236
12
33.087627
22
-77.393860
32
22.453306
13
33.087627
23
-77.393860
33
22.453306
0
3DFACE
8
0
70
0
10
28.529720
20
-124.526291
30
-0.182554
11
41.081688
21
-97.275009
31
25.590595
12
33.087627
22
-77.393860
32
22.453306
13
33.087627
23
-77.393860
33
22.453306
0
3DFACE
8
0
70
0
10
72.392113
20
-103.808945
30
8.305785
11
79.185120
21
-73.145737
31
24.936522
12
41.081688
22
-97.275009
32
25.590595
13
41.081688
23
-97.275009
33
25.590595
0
3DFACE
8
0
70
0
10
41.081688
20
-97.275009
30
25.590595
11
79.185120
21
-73.145737
31
24.936522
12
46.795029
22
-71.189331
32
43.299236
13
46.795029
23
-71.189331
33
43.299236
0
3DFACE
8
0
70
0
10
76.959335
20
-125.389305
30
-11.175783
11
83.990120
21
-77.036270
31
7.561900
12
72.392113
22
-103.808945
32
8.305785
13
72.392113
23
-103.808945
33
8.305785
0
3DFACE
8
0
70
0
10
72.392113
20
-103.808945
30
8.305785
11
83.990120
21
-77.036270
31
7.561900
12
79.185120
22
-73.145737
32
24.936522
13
79.185120
23
-73.145737
33
24.936522
0
3DFACE
8
0
70
0
10
28.529720
20
-124.526291
30
-0.182554
11
33.087627
21
-77.393860
31
22.453306
12
34.323360
22
-83.756668
32
-3.835438
13
34.323360
23
-83.756668
33
-3.835438
0
3DFACE
8
0
70
0
10
6.338482
20
-153.285370
30
-25.576859
11
28.529720
21
-124.526291
31
-0.182554
12
34.323360
22
-83.756668
32
-3.835438
13
34.323360
23
-83.756668
33
-3.835438
0
3DFACE
8
0
70
0
10
78.145790
20
-153.382874
30
-39.931324
11
71.078537
21
-81.314507
31
-5.701020
12
76.959335
22
-125.389305
32
-11.175783
13
76.959335
23
-125.389305
33
-11.175783
0
3DFACE
8
0
70
0
10
76.959335
20
-125.389305
30
-11.175783
11
71.078537
21
-81.314507
31
-5.701020
12
83.990120
22
-77.036270
32
7.561900
13
83.990120
23
-77.036270
33
7.561900
0
3DFACE
8
0
70
0
10
6.338482
20
-153.285370
30
-25.576859
11
34.323360
21
-83.756668
31
-3.835438
12
78.145790
22
-153.382874
32
-39.931324
13
78.145790
23
-153.382874
33
-39.931324
0
3DFACE
8
0
70
0
10
78.145790
20
-153.382874
30
-39.931324
11
34.323360
21
-83.756668
31
-3.835438
12
71.078537
22
-81.314507
32
-5.701020
13
71.078537
23
-81.314507
33
-5.701020
0
3DFACE
8
0
70
0
10
-29.748863
20
-125.372368
30
-10.131250
11
-23.420841
21
-75.207466
31
1.277769
12
-31.263783
22
-94.224243
32
15.038180
13
-31.263783
23
-94.224243
33
15.038180
0
3DFACE
8
0
70
0
10
-31.263783
20
-94.224243
30
15.038180
11
-23.420841
21
-75.207466
31
1.277769
12
-25.195112
22
-72.656784
32
26.674852
13
-25.195112
23
-72.656784
33
26.674852
0
3DFACE
8
0
70
0
10
-31.263783
20
-94.224243
30
15.038180
11
-25.195112
21
-72.656784
31
26.674852
12
-62.133686
22
-72.002159
32
27.508589
13
-62.133686
23
-72.002159
33
27.508589
0
3DFACE
8
0
70
0
10
-66.680405
20
-99.576324
30
13.065176
11
-31.263783
21
-94.224243
31
15.038180
12
-62.133686
22
-72.002159
32
27.508589
13
-62.133686
23
-72.002159
33
27.508589
0
3DFACE
8
0
70
0
10
-66.680405
20
-99.576324
30
13.065176
11
-62.133686
21
-72.002159
31
27.508589
12
-74.708099
22
-73.069054
32
14.810788
13
-74.708099
23
-73.069054
33
14.810788
0
3DFACE
8
0
70
0
10
-78.375977
20
-122.623055
30
-0.004349
11
-66.680405
21
-99.576324
31
13.065176
12
-74.708099
22
-73.069054
32
14.810788
13
-74.708099
23
-73.069054
33
14.810788
0
3DFACE
8
0
70
0
10
-19.256786
20
-158.935928
30
-38.748936
11
-37.221409
21
-77.215500
31
-21.084003
12
-29.748863
22
-125.372368
32
-10.131250
13
-29.748863
23
-125.372368
33
-10.131250
0
3DFACE
8
0
70
0
10
-29.748863
20
-125.372368
30
-10.131250
11
-37.221409
21
-77.215500
31
-21.084003
12
-23.420841
22
-75.207466
32
1.277769
13
-23.420841
23
-75.207466
33
1.277769
0
3DFACE
8
0
70
0
10
-78.375977
20
-122.623055
30
-0.004349
11
-74.708099
21
-73.069054
31
14.810788
12
-69.950775
22
-74.965324
32
-3.534669
13
-69.950775
23
-74.965324
33
-3.534669
0
3DFACE
8
0
70
0
10
-90.596840
20
-153.457962
30
-22.110352
11
-78.375977
21
-122.623055
31
-0.004349
12
-69.950775
22
-74.965324
32
-3.534669
13
-69.950775
23
-74.965324
33
-3.534669
0
3DFACE
8
0
70
0
10
-90.596840
20
-153.457962
30
-22.110352
11
-69.950775
21
-74.965324
31
-3.534669
12
-37.221409
22
-77.215500
32
-21.084003
13
-37.221409
23
-77.215500
33
-21.084003
0
3DFACE
8
0
70
0
10
-19.256786
20
-158.935928
30
-38.748936
11
-90.596840
21
-153.457962
31
-22.110352
12
-37.221409
22
-77.215500
32
-21.084003
13
-37.221409
23
-77.215500
33
-21.084003
0
3DFACE
8
0
70
0
10
112.764603
20
3.508865
30
62.947292
11
-2.141351
21
93.262695
31
115.541527
12
17.012136
22
26.972748
32
104.537407
13
17.012136
23
26.972748
33
104.537407
0
3DFACE
8
0
70
0
10
112.764603
20
3.508865
30
62.947292
11
99.974632
21
97.451813
31
83.609901
12
-2.141351
22
93.262695
32
115.541527
13
-2.141351
23
93.262695
33
115.541527
0
3DFACE
8
0
70
0
10
97.637238
20
-3.202225
30
-90.747169
11
-3.620603
21
17.738861
31
-109.181282
12
-0.437988
22
41.637131
32
-96.061920
13
-0.437988
23
41.637131
33
-96.061920
0
3DFACE
8
0
70
0
10
97.637238
20
-3.202225
30
-90.747169
11
-0.437988
21
41.637131
31
-96.061920
12
101.025726
22
50.951355
32
-63.288445
13
101.025726
23
50.951355
33
-63.288445
0
3DFACE
8
0
70
0
10
112.764603
20
3.508865
30
62.947292
11
125.075035
21
71.428101
31
1.953817
12
99.974632
22
97.451813
32
83.609901
13
99.974632
23
97.451813
33
83.609901
0
3DFACE
8
0
70
0
10
112.764603
20
3.508865
30
62.947292
11
129.207809
21
-5.085526
31
-14.624317
12
125.075035
22
71.428101
32
1.953817
13
125.075035
23
71.428101
33
1.953817
0
3DFACE
8
0
70
0
10
129.207809
20
-5.085526
30
-14.624317
11
97.637238
21
-3.202225
31
-90.747169
12
101.025726
22
50.951355
32
-63.288445
13
101.025726
23
50.951355
33
-63.288445
0
3DFACE
8
0
70
0
10
129.207809
20
-5.085526
30
-14.624317
11
101.025726
21
50.951355
31
-63.288445
12
125.075035
22
71.428101
32
1.953817
13
125.075035
23
71.428101
33
1.953817
0
3DFACE
8
0
70
0
10
-84.658989
20
47.713364
30
86.182297
11
17.012136
21
26.972748
31
104.537407
12
-2.141351
22
93.262695
32
115.541527
13
-2.141351
23
93.262695
33
115.541527
0
3DFACE
8
0
70
0
10
-84.658989
20
47.713364
30
86.182297
11
-2.141351
21
93.262695
31
115.541527
12
-103.430183
22
98.917999
32
83.639351
13
-103.430183
23
98.917999
33
83.639351
0
3DFACE
8
0
70
0
10
-99.786354
20
41.002258
30
-67.512161
11
-0.437988
21
41.637131
31
-96.061920
12
-3.620603
22
17.738861
32
-109.181282
13
-3.620603
23
17.738861
33
-109.181282
0
3DFACE
8
0
70
0
10
-99.786354
20
41.002258
30
-67.512161
11
-102.379089
21
52.417557
31
-63.258995
12
-0.437988
22
41.637131
32
-96.061920
13
-0.437988
23
41.637131
33
-96.061920
0
3DFACE
8
0
70
0
10
-84.658989
20
47.713364
30
86.182297
11
-127.362106
21
73.247742
31
1.990363
12
-115.820694
22
49.778030
32
14.213362
13
-115.820694
23
49.778030
33
14.213362
0
3DFACE
8
0
70
0
10
-84.658989
20
47.713364
30
86.182297
11
-103.430183
21
98.917999
31
83.639351
12
-127.362106
22
73.247742
32
1.990363
13
-127.362106
23
73.247742
33
1.990363
0
3DFACE
8
0
70
0
10
-115.820694
20
49.778030
30
14.213362
11
-127.362106
21
73.247742
31
1.990363
12
-102.379089
22
52.417557
32
-63.258995
13
-102.379089
23
52.417557
33
-63.258995
0
3DFACE
8
0
70
0
10
-115.820694
20
49.778030
30
14.213362
11
-102.379089
21
52.417557
31
-63.258995
12
-99.786354
22
41.002258
32
-67.512161
13
-99.786354
23
41.002258
33
-67.512161
0
3DFACE
8
0
70
0
10
-2.141351
20
93.262695
30
115.541527
11
49.763012
21
157.078278
31
39.977848
12
-5.989550
22
167.316895
32
41.885544
13
-5.989550
23
167.316895
33
41.885544
0
3DFACE
8
0
70
0
10
-2.141351
20
93.262695
30
115.541527
11
99.974632
21
97.451813
31
83.609901
12
49.763012
22
157.078278
32
39.977848
13
49.763012
23
157.078278
33
39.977848
0
3DFACE
8
0
70
0
10
101.025726
20
50.951355
30
-63.288445
11
-0.437988
21
41.637131
31
-96.061920
12
52.039246
22
143.907654
32
-52.079510
13
52.039246
23
143.907654
33
-52.079510
0
3DFACE
8
0
70
0
10
-0.437988
20
41.637131
30
-96.061920
11
-2.510288
21
144.213898
31
-58.528946
12
52.039246
22
143.907654
32
-52.079510
13
52.039246
23
143.907654
33
-52.079510
0
3DFACE
8
0
70
0
10
99.974632
20
97.451813
30
83.609901
11
106.396942
21
120.148743
31
2.873093
12
79.325607
22
149.852173
32
36.849720
13
79.325607
23
149.852173
33
36.849720
0
3DFACE
8
0
70
0
10
99.974632
20
97.451813
30
83.609901
11
125.075035
21
71.428101
31
1.953817
12
106.396942
22
120.148743
32
2.873093
13
106.396942
23
120.148743
33
2.873093
0
3DFACE
8
0
70
0
10
101.025726
20
50.951355
30
-63.288445
11
82.344208
21
123.844482
31
-36.384079
12
106.396942
22
120.148743
32
2.873093
13
106.396942
23
120.148743
33
2.873093
0
3DFACE
8
0
70
0
10
125.075035
20
71.428101
30
1.953817
11
101.025726
21
50.951355
31
-63.288445
12
106.396942
22
120.148743
32
2.873093
13
106.396942
23
120.148743
33
2.873093
0
3DFACE
8
0
70
0
10
99.974632
20
97.451813
30
83.609901
11
79.325607
21
149.852173
31
36.849720
12
49.763012
22
157.078278
32
39.977848
13
49.763012
23
157.078278
33
39.977848
0
3DFACE
8
0
70
0
10
101.025726
20
50.951355
30
-63.288445
11
52.039246
21
143.907654
31
-52.079510
12
82.344208
22
123.844482
32
-36.384079
13
82.344208
23
123.844482
33
-36.384079
0
3DFACE
8
0
70
0
10
-2.141351
20
93.262695
30
115.541527
11
-59.727741
21
154.580383
31
38.214321
12
-103.430183
22
98.917999
32
83.639351
13
-103.430183
23
98.917999
33
83.639351
0
3DFACE
8
0
70
0
10
-2.141351
20
93.262695
30
115.541527
11
-5.989550
21
167.316895
31
41.885544
12
-59.727741
22
154.580383
32
38.214321
13
-59.727741
23
154.580383
33
38.214321
0
3DFACE
8
0
70
0
10
-102.379089
20
52.417557
30
-63.258995
11
-57.730793
21
141.920715
31
-53.482315
12
-0.437988
22
41.637131
32
-96.061920
13
-0.437988
23
41.637131
33
-96.061920
0
3DFACE
8
0
70
0
10
-0.437988
20
41.637131
30
-96.061920
11
-57.730793
21
141.920715
31
-53.482315
12
-2.510288
22
144.213898
32
-58.528946
13
-2.510288
23
144.213898
33
-58.528946
0
3DFACE
8
0
70
0
10
-103.430183
20
98.917999
30
83.639351
11
-72.983917
21
138.844299
31
28.528275
12
-94.663162
22
106.876038
32
-8.083811
13
-94.663162
23
106.876038
33
-8.083811
0
3DFACE
8
0
70
0
10
-103.430183
20
98.917999
30
83.639351
11
-94.663162
21
106.876038
31
-8.083811
12
-127.362106
22
73.247742
32
1.990363
13
-127.362106
23
73.247742
33
1.990363
0
3DFACE
8
0
70
0
10
-127.362106
20
73.247742
30
1.990363
11
-94.663162
21
106.876038
31
-8.083811
12
-102.379089
22
52.417557
32
-63.258995
13
-102.379089
23
52.417557
33
-63.258995
0
3DFACE
8
0
70
0
10
-102.379089
20
52.417557
30
-63.258995
11
-94.663162
21
106.876038
31
-8.083811
12
-84.728996
22
127.004822
32
-41.175171
13
-84.728996
23
127.004822
33
-41.175171
0
3DFACE
8
0
70
0
10
-103.430183
20
98.917999
30
83.639351
11
-59.727741
21
154.580383
31
38.214321
12
-72.983917
22
138.844299
32
28.528275
13
-72.983917
23
138.844299
33
28.528275
0
3DFACE
8
0
70
0
10
-102.379089
20
52.417557
30
-63.258995
11
-84.728996
21
127.004822
31
-41.175171
12
-57.730793
22
141.920715
32
-53.482315
13
-57.730793
23
141.920715
33
-53.482315
0
3DFACE
8
0
70
0
10
106.396942
20
120.148743
30
2.873093
11
149.619995
21
191.848267
31
30.580355
12
79.325607
22
149.852173
32
36.849720
13
79.325607
23
149.852173
33
36.849720
0
3DFACE
8
0
70
0
10
178.696472
20
168.271301
30
9.074382
11
149.619995
21
191.848267
31
30.580355
12
106.396942
22
120.148743
32
2.873093
13
106.396942
23
120.148743
33
2.873093
0
3DFACE
8
0
70
0
10
79.325607
20
149.852173
30
36.849720
11
144.645447
21
207.613190
31
-14.158962
12
57.183811
22
158.181702
32
-19.755610
13
57.183811
23
158.181702
33
-19.755610
0
3DFACE
8
0
70
0
10
79.325607
20
149.852173
30
36.849720
11
149.619995
21
191.848267
31
30.580355
12
144.645447
22
207.613190
32
-14.158962
13
144.645447
23
207.613190
33
-14.158962
0
3DFACE
8
0
70
0
10
82.344208
20
123.844482
30
-36.384079
11
57.183811
21
158.181702
31
-19.755610
12
144.645447
22
207.613190
32
-14.158962
13
144.645447
23
207.613190
33
-14.158962
0
3DFACE
8
0
70
0
10
82.344208
20
123.844482
30
-36.384079
11
144.645447
21
207.613190
31
-14.158962
12
172.849854
22
183.180084
32
-28.567759
13
172.849854
23
183.180084
33
-28.567759
0
3DFACE
8
0
70
0
10
106.396942
20
120.148743
30
2.873093
11
82.344208
21
123.844482
31
-36.384079
12
172.849854
22
183.180084
32
-28.567759
13
172.849854
23
183.180084
33
-28.567759
0
3DFACE
8
0
70
0
10
178.696472
20
168.271301
30
9.074382
11
106.396942
21
120.148743
31
2.873093
12
172.849854
22
183.180084
32
-28.567759
13
172.849854
23
183.180084
33
-28.567759
0
3DFACE
8
0
70
0
10
-94.663162
20
106.876038
30
-8.083811
11
-72.983917
21
138.844299
31
28.528275
12
-104.158890
22
71.103485
32
45.590187
13
-104.158890
23
71.103485
33
45.590187
0
3DFACE
8
0
70
0
10
-124.636200
20
41.506836
30
13.370149
11
-94.663162
21
106.876038
31
-8.083811
12
-104.158890
22
71.103485
32
45.590187
13
-104.158890
23
71.103485
33
45.590187
0
3DFACE
8
0
70
0
10
-72.983917
20
138.844299
30
28.528275
11
-67.057755
21
161.524048
31
-21.993227
12
-155.204941
22
83.071320
32
37.623802
13
-155.204941
23
83.071320
33
37.623802
0
3DFACE
8
0
70
0
10
-72.983917
20
138.844299
30
28.528275
11
-155.204941
21
83.071320
31
37.623802
12
-104.158890
22
71.103485
32
45.590187
13
-104.158890
23
71.103485
33
45.590187
0
3DFACE
8
0
70
0
10
-84.728996
20
127.004822
30
-41.175171
11
-155.204941
21
83.071320
31
37.623802
12
-67.057755
22
161.524048
32
-21.993227
13
-67.057755
23
161.524048
33
-21.993227
0
3DFACE
8
0
70
0
10
-84.728996
20
127.004822
30
-41.175171
11
-167.798950
21
53.442307
31
8.166247
12
-155.204941
22
83.071320
32
37.623802
13
-155.204941
23
83.071320
33
37.623802
0
3DFACE
8
0
70
0
10
-94.663162
20
106.876038
30
-8.083811
11
-167.798950
21
53.442307
31
8.166247
12
-84.728996
22
127.004822
32
-41.175171
13
-84.728996
23
127.004822
33
-41.175171
0
3DFACE
8
0
70
0
10
-124.636200
20
41.506836
30
13.370149
11
-167.798950
21
53.442307
31
8.166247
12
-94.663162
22
106.876038
32
-8.083811
13
-94.663162
23
106.876038
33
-8.083811
0
3DFACE
8
0
70
0
10
-118.467354
20
18.272888
30
52.653507
11
-124.636200
21
41.506836
31
13.370149
12
-104.158890
22
71.103485
32
45.590187
13
-104.158890
23
71.103485
33
45.590187
0
3DFACE
8
0
70
0
10
-118.467354
20
18.272888
30
52.653507
11
-104.158890
21
71.103485
31
45.590187
12
-100.282043
22
62.654541
32
60.526302
13
-100.282043
23
62.654541
33
60.526302
0
3DFACE
8
0
70
0
10
-100.282043
20
62.654541
30
60.526302
11
-104.158890
21
71.103485
31
45.590187
12
-155.204941
22
83.071320
32
37.623802
13
-155.204941
23
83.071320
33
37.623802
0
3DFACE
8
0
70
0
10
-100.282043
20
62.654541
30
60.526302
11
-155.204941
21
83.071320
31
37.623802
12
-147.865341
22
58.259277
32
83.760208
13
-147.865341
23
58.259277
33
83.760208
0
3DFACE
8
0
70
0
10
-158.891571
20
17.048172
30
73.376183
11
-147.865341
21
58.259277
31
83.760208
12
-155.204941
22
83.071320
32
37.623802
13
-155.204941
23
83.071320
33
37.623802
0
3DFACE
8
0
70
0
10
-158.891571
20
17.048172
30
73.376183
11
-155.204941
21
83.071320
31
37.623802
12
-167.798950
22
53.442307
32
8.166247
13
-167.798950
23
53.442307
33
8.166247
0
3DFACE
8
0
70
0
10
-118.467354
20
18.272888
30
52.653507
11
-158.891571
21
17.048172
31
73.376183
12
-167.798950
22
53.442307
32
8.166247
13
-167.798950
23
53.442307
33
8.166247
0
3DFACE
8
0
70
0
10
-118.467354
20
18.272888
30
52.653507
11
-167.798950
21
53.442307
31
8.166247
12
-124.636200
22
41.506836
32
13.370149
13
-124.636200
23
41.506836
33
13.370149
0
3DFACE
8
0
70
0
10
218.432999
20
194.612915
30
0.110539
11
149.619995
21
191.848267
31
30.580355
12
178.696472
22
168.271301
32
9.074382
13
178.696472
23
168.271301
33
9.074382
0
3DFACE
8
0
70
0
10
218.432999
20
194.612915
30
0.110539
11
187.959061
21
222.238800
31
26.005800
12
149.619995
22
191.848267
32
30.580355
13
149.619995
23
191.848267
33
30.580355
0
3DFACE
8
0
70
0
10
187.959061
20
222.238800
30
26.005800
11
144.645447
21
207.613190
31
-14.158962
12
149.619995
22
191.848267
32
30.580355
13
149.619995
23
191.848267
33
30.580355
0
3DFACE
8
0
70
0
10
187.959061
20
222.238800
30
26.005800
11
187.617676
21
237.738525
31
-24.816879
12
144.645447
22
207.613190
32
-14.158962
13
144.645447
23
207.613190
33
-14.158962
0
3DFACE
8
0
70
0
10
216.344604
20
209.752075
30
-42.685368
11
172.849854
21
183.180084
31
-28.567759
12
144.645447
22
207.613190
32
-14.158962
13
144.645447
23
207.613190
33
-14.158962
0
3DFACE
8
0
70
0
10
216.344604
20
209.752075
30
-42.685368
11
144.645447
21
207.613190
31
-14.158962
12
187.617676
22
237.738525
32
-24.816879
13
187.617676
23
237.738525
33
-24.816879
0
3DFACE
8
0
70
0
10
218.432999
20
194.612915
30
0.110539
11
178.696472
21
168.271301
31
9.074382
12
172.849854
22
183.180084
32
-28.567759
13
172.849854
23
183.180084
33
-28.567759
0
3DFACE
8
0
70
0
10
218.432999
20
194.612915
30
0.110539
11
172.849854
21
183.180084
31
-28.567759
12
216.344604
22
209.752075
32
-42.685368
13
216.344604
23
209.752075
33
-42.685368
0
3DFACE
8
0
70
0
10
-36.059605
20
316.382751
30
51.517788
11
-34.441807
21
320.638306
31
49.308758
12
0.891523
22
303.946228
32
25.277655
13
-9.717953
23
297.353638
33
34.395580
0
3DFACE
8
0
70
0
10
-32.293900
20
324.490021
30
51.790180
11
13.937440
21
309.762726
31
31.204933
12
0.891523
22
303.946228
32
25.277655
13
-34.441807
23
320.638306
33
49.308758
0
3DFACE
8
0
70
0
10
-30.636913
20
326.910767
30
55.362747
11
23.683327
21
313.350616
31
41.300564
12
13.937440
22
309.762726
32
31.204933
13
-32.293900
23
324.490021
33
51.790180
0
3DFACE
8
0
70
0
10
-30.523581
20
325.981689
30
58.903038
11
23.716928
21
311.808594
31
52.968540
12
23.683327
22
313.350616
32
41.300564
13
-30.636913
23
326.910767
33
55.362747
0
3DFACE
8
0
70
0
10
-30.340448
20
324.921722
30
63.295040
11
24.026379
21
310.037445
31
67.397293
12
23.716928
22
311.808594
32
52.968540
13
-30.523581
23
325.981689
33
58.903038
0
3DFACE
8
0
70
0
10
-31.504763
20
321.708954
30
65.336769
11
16.304045
21
305.047699
31
75.464516
12
24.026379
22
310.037445
32
67.397293
13
-30.340448
23
324.921722
33
63.295040
0
3DFACE
8
0
70
0
10
-32.498329
20
319.157806
30
66.505608
11
9.824340
21
301.100739
31
80.438652
12
16.304045
22
305.047699
32
75.464516
13
-31.504763
23
321.708954
33
65.336769
0
3DFACE
8
0
70
0
10
-32.498329
20
319.157806
30
66.505608
11
-33.774654
21
316.822052
31
65.172577
12
2.045051
22
297.567749
32
77.387772
13
9.824340
23
301.100739
33
80.438652
0
3DFACE
8
0
70
0
10
-33.774654
20
316.822052
30
65.172577
11
-35.423470
21
313.978363
31
62.927364
12
-7.904125
22
293.287384
32
71.704086
13
2.045051
23
297.567749
33
77.387772
0
3DFACE
8
0
70
0
10
-35.423470
20
313.978363
30
62.927364
11
-36.238209
21
313.678528
31
58.489674
12
-12.181216
22
292.977234
32
57.810493
13
-7.904125
23
293.287384
33
71.704086
0
3DFACE
8
0
70
0
10
-36.238209
20
313.678528
30
58.489674
11
-36.929798
21
313.362640
31
54.907555
12
-15.847307
22
292.613739
32
46.632465
13
-12.181216
23
292.977234
33
57.810493
0
3DFACE
8
0
70
0
10
-36.929798
20
313.362640
30
54.907555
11
-36.059605
21
316.382751
31
51.517788
12
-9.717953
22
297.353638
32
34.395580
13
-15.847307
23
292.613739
33
46.632465
0
ENDSEC
0
EOF
