0
SECTION
2
HEADER
999
DXF File Generated by LightWave 3D(TM)
0
ENDSEC
0
SECTION
2
TABLES
0
ENDSEC
0
SECTION
2
BLOCKS
0
ENDSEC
0
SECTION
2
ENTITIES
0
3DFACE
8
0
70
0
10
-1.173771
20
-25.272919
30
82.345940
11
29.853878
21
-32.087952
31
60.514248
12
71.489822
22
-34.855446
32
37.677357
13
64.996544
23
-25.708870
33
57.938213
0
3DFACE
8
0
70
0
10
64.996544
20
-32.333786
30
-64.203201
11
70.369164
21
-48.791916
31
-44.579300
12
28.129784
22
-53.528687
32
-66.034462
13
-1.173770
23
-34.629974
33
-90.167267
0
3DFACE
8
0
70
0
10
-1.173771
20
-31.031784
30
103.148163
11
-1.173771
21
-25.272919
31
82.345940
12
64.996544
22
-25.708870
32
57.938213
13
86.317215
23
-31.716087
33
73.054565
0
3DFACE
8
0
70
0
10
86.317215
20
-40.100121
30
-81.519218
11
64.996544
21
-32.333786
31
-64.203201
12
-1.173770
22
-34.629974
32
-90.167267
13
-1.173770
23
-42.685593
33
-111.709404
0
3DFACE
8
0
70
0
10
-1.173772
20
-26.771439
30
115.667076
11
91.622299
21
-27.699570
31
81.653458
12
106.074837
22
26.246582
32
84.394463
13
-1.173772
23
28.137695
33
118.457016
0
3DFACE
8
0
70
0
10
91.622299
20
-37.173523
30
-93.014923
11
-1.173770
21
-39.940231
31
-127.121971
12
-1.173989
22
14.974777
32
-124.332649
13
106.074837
23
16.772629
33
-90.273911
0
3DFACE
8
0
70
0
10
-1.173772
20
28.137695
30
118.457016
11
106.074837
21
26.246582
31
84.394463
12
99.973991
22
26.963593
32
76.036087
13
-1.173772
23
28.652481
33
106.180725
0
3DFACE
8
0
70
0
10
-1.173772
20
-26.771439
30
115.667076
11
-1.173771
21
-31.031784
31
103.148163
12
86.317215
22
-31.716087
32
73.054565
13
91.622299
23
-27.699570
33
81.653458
0
3DFACE
8
0
70
0
10
106.074837
20
16.772629
30
-90.273911
11
-1.173989
21
14.974777
31
-124.332649
12
-1.188086
22
17.213593
32
-108.696960
13
99.973991
23
18.579559
33
-78.537697
0
3DFACE
8
0
70
0
10
91.622299
20
-37.173523
30
-93.014923
11
86.317215
21
-40.100121
31
-81.519218
12
-1.173770
22
-42.685593
32
-111.709404
13
-1.173770
23
-39.940231
33
-127.121971
0
3DFACE
8
0
70
0
10
28.323221
20
-119.444244
30
103.377602
11
75.463165
21
-119.444244
31
103.377602
12
67.626854
22
-98.812729
32
88.562103
13
34.637344
23
-98.998032
33
88.562103
0
3DFACE
8
0
70
0
10
64.996544
20
-25.708870
30
57.938213
11
71.489822
21
-34.855446
31
37.677357
12
81.619881
22
-45.209740
32
-2.093663
13
80.874924
23
-28.948814
33
-1.795639
0
3DFACE
8
0
70
0
10
86.317215
20
-31.716087
30
73.054565
11
64.996544
21
-25.708870
31
57.938213
12
80.874924
22
-28.948814
32
-1.795639
13
107.525772
23
-35.794807
33
-2.143485
0
3DFACE
8
0
70
0
10
106.074837
20
26.246582
30
84.394463
11
91.622299
21
-27.699570
31
81.653458
12
114.157120
22
-32.234879
32
-1.962605
13
131.989883
23
21.711273
33
0.778405
0
3DFACE
8
0
70
0
10
131.989883
20
21.711273
30
0.778405
11
124.363838
21
22.884872
31
0.838036
12
99.973991
22
26.963593
32
76.036087
13
106.074837
23
26.246582
33
84.394463
0
3DFACE
8
0
70
0
10
91.622299
20
-27.699570
30
81.653458
11
86.317215
21
-31.716087
31
73.054565
12
107.525772
22
-35.794807
32
-2.143485
13
114.157120
23
-32.234879
33
-1.962605
0
3DFACE
8
0
70
0
10
13.556337
20
-152.844193
30
103.377602
11
80.739731
21
-153.029510
31
103.377602
12
75.463165
22
-119.444244
32
103.377602
13
28.323221
23
-119.444244
33
103.377602
0
3DFACE
8
0
70
0
10
-1.204484
20
167.796265
30
5.838623
11
63.039642
21
153.162476
31
3.385514
12
53.713795
22
142.352966
32
-35.733181
13
-1.207896
23
145.491730
33
-45.334591
0
3DFACE
8
0
70
0
10
80.874924
20
-28.948814
30
-1.795639
11
81.619881
21
-45.209740
31
-2.093663
12
70.369164
22
-48.791916
32
-44.579300
13
64.996544
23
-32.333786
33
-64.203201
0
3DFACE
8
0
70
0
10
107.525772
20
-35.794807
30
-2.143485
11
80.874924
21
-28.948814
31
-1.795639
12
64.996544
22
-32.333786
32
-64.203201
13
86.317215
23
-40.100121
33
-81.519218
0
3DFACE
8
0
70
0
10
114.157120
20
-32.234879
30
-1.962605
11
91.622299
21
-37.173523
31
-93.014923
12
106.074837
22
16.772629
32
-90.273911
13
131.989883
23
21.711273
33
0.778405
0
3DFACE
8
0
70
0
10
106.074837
20
16.772629
30
-90.273911
11
99.973991
21
18.579559
31
-78.537697
12
124.363838
22
22.884872
32
0.838036
13
131.989883
23
21.711273
33
0.778405
0
3DFACE
8
0
70
0
10
114.157120
20
-32.234879
30
-1.962605
11
107.525772
21
-35.794807
31
-2.143485
12
86.317215
22
-40.100121
32
-81.519218
13
91.622299
23
-37.173523
33
-93.014923
0
3DFACE
8
0
70
0
10
29.971155
20
-52.041351
30
25.061459
11
29.853878
21
-32.087952
31
60.514248
12
21.204792
22
-46.628204
32
-1.098405
13
21.626940
23
-57.551865
33
-1.399469
0
3DFACE
8
0
70
0
10
29.971155
20
-52.041351
30
25.061459
11
71.741478
21
-52.697983
31
14.678875
12
71.489822
22
-34.855446
32
37.677357
13
29.853878
23
-32.087952
33
60.514248
0
3DFACE
8
0
70
0
10
71.741478
20
-52.697983
30
14.678875
11
82.034584
21
-55.778793
31
-2.643541
12
81.619881
22
-45.209740
32
-2.093663
13
71.489822
23
-34.855446
33
37.677357
0
3DFACE
8
0
70
0
10
21.626940
20
-57.551865
30
-1.399469
11
21.204792
21
-46.628204
31
-1.098405
12
28.129784
22
-53.528687
32
-66.034462
13
29.044455
23
-62.826691
33
-29.332794
0
3DFACE
8
0
70
0
10
82.034584
20
-55.778793
30
-2.643541
11
71.139122
21
-59.708450
31
-20.677389
12
70.369164
22
-48.791916
32
-44.579300
13
81.619881
23
-45.209740
33
-2.093663
0
3DFACE
8
0
70
0
10
71.139122
20
-59.708450
30
-20.677389
11
29.044455
21
-62.826691
31
-29.332794
12
28.129784
22
-53.528687
32
-66.034462
13
70.369164
23
-48.791916
33
-44.579300
0
3DFACE
8
0
70
0
10
27.371920
20
-125.112221
30
-4.446622
11
28.323221
21
-127.827744
31
44.486000
12
34.637344
22
-108.736435
32
36.707859
13
34.477360
23
-96.767517
33
22.842670
0
3DFACE
8
0
70
0
10
34.477360
20
-96.767517
30
22.842670
11
34.637344
21
-108.736435
31
36.707859
12
67.626854
22
-112.334427
32
36.707859
13
68.761826
23
-102.565315
33
12.445567
0
3DFACE
8
0
70
0
10
77.248116
20
-124.433586
30
-5.239926
11
68.761826
21
-102.565315
31
12.445567
12
67.626854
22
-112.334427
32
36.707859
13
75.463165
23
-127.827744
33
44.486000
0
3DFACE
8
0
70
0
10
10.706789
20
-155.315613
30
-33.317581
11
17.260212
21
-150.617310
31
33.374374
12
28.323221
22
-127.827744
32
44.486000
13
27.371920
23
-125.112221
33
-4.446622
0
3DFACE
8
0
70
0
10
84.268929
20
-153.077652
30
-32.605659
11
77.248116
21
-124.433586
31
-5.239926
12
75.463165
22
-127.827744
32
44.486000
13
84.443596
23
-150.723206
33
37.078255
0
3DFACE
8
0
70
0
10
84.268929
20
-153.077652
30
-32.605659
11
84.443596
21
-150.723206
31
37.078255
12
17.260212
22
-150.617310
32
33.374374
13
10.706789
23
-155.315613
33
-33.317581
0
3DFACE
8
0
70
0
10
28.323221
20
-119.444244
30
103.377602
11
34.637344
21
-98.998032
31
88.562103
12
34.637344
22
-108.736435
32
36.707859
13
28.323221
23
-127.827744
33
44.486000
0
3DFACE
8
0
70
0
10
34.637344
20
-98.998032
30
88.562103
11
67.626854
21
-98.812729
31
88.562103
12
67.626854
22
-112.334427
32
36.707859
13
34.637344
23
-108.736435
33
36.707859
0
3DFACE
8
0
70
0
10
75.463165
20
-119.444244
30
103.377602
11
75.463165
21
-127.827744
31
44.486000
12
67.626854
22
-112.334427
32
36.707859
13
67.626854
23
-98.812729
33
88.562103
0
3DFACE
8
0
70
0
10
13.556337
20
-152.844193
30
103.377602
11
28.323221
21
-119.444244
31
103.377602
12
28.323221
22
-127.827744
32
44.486000
13
17.260212
23
-150.617310
33
33.374374
0
3DFACE
8
0
70
0
10
80.739731
20
-153.029510
30
103.377602
11
84.443596
21
-150.723206
31
37.078255
12
75.463165
22
-127.827744
32
44.486000
13
75.463165
23
-119.444244
33
103.377602
0
3DFACE
8
0
70
0
10
80.739731
20
-153.029510
30
103.377602
11
13.556337
21
-152.844193
31
103.377602
12
17.260212
22
-150.617310
32
33.374374
13
84.443596
23
-150.723206
33
37.078255
0
3DFACE
8
0
70
0
10
74.966194
20
5.123413
30
186.040192
11
93.040489
21
16.129852
31
184.578018
12
76.861725
22
27.517426
32
186.841324
13
62.770611
23
16.129852
33
179.220200
0
3DFACE
8
0
70
0
10
78.417755
20
125.615173
30
-31.383808
11
53.713795
21
142.352966
31
-35.733181
12
63.039642
22
153.162476
32
3.385514
13
63.039642
23
153.162476
33
3.385514
0
3DFACE
8
0
70
0
10
71.366730
20
126.047668
30
45.724255
11
63.039642
21
153.162476
31
3.385514
12
53.584675
22
126.098267
32
60.051693
13
53.584675
23
126.098267
33
60.051693
0
3DFACE
8
0
70
0
10
107.273285
20
62.650055
30
59.383987
11
116.547615
21
15.965286
31
49.538429
12
106.838280
22
5.474701
32
82.797470
13
99.648125
23
53.274307
33
93.422340
0
3DFACE
8
0
70
0
10
158.493240
20
52.056015
30
68.742661
11
107.273285
21
62.650055
31
59.383987
12
99.648125
22
53.274307
32
93.422340
13
151.604660
23
44.466171
33
103.415253
0
3DFACE
8
0
70
0
10
152.121506
20
1.011078
30
92.335213
11
160.666626
21
9.470535
31
58.277802
12
158.493240
22
52.056015
32
68.742661
13
151.604660
23
44.466171
33
103.415253
0
3DFACE
8
0
70
0
10
116.547615
20
15.965286
30
49.538429
11
160.666626
21
9.470535
31
58.277802
12
152.121506
22
1.011078
32
92.335213
13
106.838280
23
5.474701
33
82.797470
0
3DFACE
8
0
70
0
10
99.332695
20
-2.448776
30
78.983337
11
89.576004
21
-12.952576
31
110.001602
12
84.397675
22
53.292557
32
124.905052
13
91.271309
23
62.067459
33
93.711853
0
3DFACE
8
0
70
0
10
91.271309
20
62.067459
30
93.711853
11
84.397675
21
53.292557
31
124.905052
12
155.604965
22
45.565735
32
138.881195
13
161.364578
23
51.941956
33
107.646049
0
3DFACE
8
0
70
0
10
152.549042
20
-14.585876
30
123.493118
11
160.536163
21
-6.920013
31
92.276848
12
161.364578
22
51.941956
32
107.646049
13
155.604965
23
45.565735
33
138.881195
0
3DFACE
8
0
70
0
10
99.332695
20
-2.448776
30
78.983337
11
160.536163
21
-6.920013
31
92.276848
12
152.549042
22
-14.585876
32
123.493118
13
89.576004
23
-12.952576
33
110.001602
0
3DFACE
8
0
70
0
10
99.332695
20
-2.448776
30
78.983337
11
91.271309
21
62.067459
31
93.711853
12
99.648125
22
53.274307
32
93.422340
13
106.838280
23
5.474701
33
82.797470
0
3DFACE
8
0
70
0
10
89.576004
20
-12.952576
30
110.001602
11
97.694000
21
-4.405396
31
114.121056
12
92.656273
22
44.677277
32
124.633469
13
84.397675
23
53.292557
33
124.905052
0
3DFACE
8
0
70
0
10
91.271309
20
62.067459
30
93.711853
11
161.364578
21
51.941956
31
107.646049
12
151.604660
22
44.466171
32
103.415253
13
99.648125
23
53.274307
33
93.422340
0
3DFACE
8
0
70
0
10
84.397675
20
53.292557
30
124.905052
11
92.656273
21
44.677277
31
124.633469
12
145.439377
22
37.673203
32
134.447235
13
155.604965
23
45.565735
33
138.881195
0
3DFACE
8
0
70
0
10
152.549042
20
-14.585876
30
123.493118
11
155.604965
21
45.565735
31
138.881195
12
145.439377
22
37.673203
32
134.447235
13
144.286087
23
-6.745789
33
123.563820
0
3DFACE
8
0
70
0
10
160.536163
20
-6.920013
30
92.276848
11
152.121506
21
1.011078
31
92.335213
12
151.604660
22
44.466171
32
103.415253
13
161.364578
23
51.941956
33
107.646049
0
3DFACE
8
0
70
0
10
89.576004
20
-12.952576
30
110.001602
11
152.549042
21
-14.585876
31
123.493118
12
144.286087
22
-6.745789
32
123.563820
13
97.694000
23
-4.405396
33
114.121056
0
3DFACE
8
0
70
0
10
99.332695
20
-2.448776
30
78.983337
11
106.838280
21
5.474701
31
82.797470
12
152.121506
22
1.011078
32
92.335213
13
160.536163
23
-6.920013
33
92.276848
0
3DFACE
8
0
70
0
10
117.252411
20
2.835693
30
107.121422
11
97.204834
21
23.157715
31
96.734665
12
92.656273
22
44.677277
32
124.633469
13
97.694000
23
-4.405396
33
114.121056
0
3DFACE
8
0
70
0
10
97.204834
20
23.157715
30
96.734665
11
118.732574
21
44.192581
31
109.124268
12
145.439377
22
37.673203
32
134.447235
13
92.656273
23
44.677277
33
124.633469
0
3DFACE
8
0
70
0
10
134.879791
20
23.157715
30
117.233093
11
144.286087
21
-6.745789
31
123.563820
12
145.439377
22
37.673203
32
134.447235
13
118.732574
23
44.192581
33
109.124268
0
3DFACE
8
0
70
0
10
117.252411
20
2.835693
30
107.121422
11
97.694000
21
-4.405396
31
114.121056
12
144.286087
22
-6.745789
32
123.563820
13
134.879791
23
23.157715
33
117.233093
0
3DFACE
8
0
70
0
10
58.476879
20
7.875824
30
123.638306
11
58.114849
21
18.851730
31
123.623550
12
63.596020
22
20.100632
32
113.706825
13
63.879589
23
9.126770
33
113.657974
0
3DFACE
8
0
70
0
10
58.114849
20
18.851730
30
123.623550
11
58.325935
21
30.212372
31
123.983765
12
63.703350
22
31.459488
32
114.029121
13
63.596020
23
20.100632
33
113.706825
0
3DFACE
8
0
70
0
10
130.965790
20
20.844925
30
148.177719
11
134.879791
21
23.157715
31
117.233093
12
118.732574
22
44.192581
32
109.124268
13
107.858719
23
41.883133
33
136.234695
0
3DFACE
8
0
70
0
10
105.463600
20
0.519165
30
133.835190
11
117.252411
21
2.835693
31
107.121422
12
134.879791
22
23.157715
32
117.233093
13
130.965790
23
20.844925
33
148.177719
0
3DFACE
8
0
70
0
10
74.966194
20
5.123413
30
186.040192
11
62.770611
21
16.129852
31
179.220200
12
76.209892
22
20.844925
32
133.201309
13
105.463600
23
0.519165
33
133.835190
0
3DFACE
8
0
70
0
10
62.770611
20
16.129852
30
179.220200
11
76.861725
21
27.517426
31
186.841324
12
107.858719
22
41.883133
32
136.234695
13
76.209892
23
20.844925
33
133.201309
0
3DFACE
8
0
70
0
10
93.040489
20
16.129852
30
184.578018
11
130.965790
21
20.844925
31
148.177719
12
107.858719
22
41.883133
32
136.234695
13
76.861725
23
27.517426
33
186.841324
0
3DFACE
8
0
70
0
10
74.966194
20
5.123413
30
186.040192
11
105.463600
21
0.519165
31
133.835190
12
130.965790
22
20.844925
32
148.177719
13
93.040489
23
16.129852
33
184.578018
0
3DFACE
8
0
70
0
10
58.476879
20
7.875824
30
123.638306
11
63.879589
21
9.126770
31
113.657974
12
117.252411
22
2.835693
32
107.121422
13
105.463600
23
0.519165
33
133.835190
0
3DFACE
8
0
70
0
10
63.879589
20
9.126770
30
113.657974
11
63.596020
21
20.100632
31
113.706825
12
97.204834
22
23.157715
32
96.734665
13
117.252411
23
2.835693
33
107.121422
0
3DFACE
8
0
70
0
10
58.476879
20
7.875824
30
123.638306
11
105.463600
21
0.519165
31
133.835190
12
76.209892
22
20.844925
32
133.201309
13
58.114849
23
18.851730
33
123.623550
0
3DFACE
8
0
70
0
10
63.596020
20
20.100632
30
113.706825
11
63.703350
21
31.459488
31
114.029121
12
118.732574
22
44.192581
32
109.124268
13
97.204834
23
23.157715
33
96.734665
0
3DFACE
8
0
70
0
10
58.325935
20
30.212372
30
123.983765
11
107.858719
21
41.883133
31
136.234695
12
118.732574
22
44.192581
32
109.124268
13
63.703350
23
31.459488
33
114.029121
0
3DFACE
8
0
70
0
10
58.114849
20
18.851730
30
123.623550
11
76.209892
21
20.844925
31
133.201309
12
107.858719
22
41.883133
32
136.234695
13
58.325935
23
30.212372
33
123.983765
0
3DFACE
8
0
70
0
10
-1.173771
20
-25.272919
30
82.345940
11
-67.344086
21
-25.708870
31
57.938213
12
-73.763832
22
-35.233849
32
37.599682
13
-32.104134
23
-32.549683
33
60.388306
0
3DFACE
8
0
70
0
10
-67.344086
20
-32.333778
30
-64.203194
11
-1.173770
21
-34.629974
31
-90.167267
12
-30.506004
22
-53.105553
32
-66.171371
13
-72.725052
23
-48.595161
33
-44.664104
0
3DFACE
8
0
70
0
10
-1.173771
20
-31.031784
30
103.148163
11
-88.664764
21
-31.716087
31
73.054573
12
-67.344086
22
-25.708870
32
57.938213
13
-1.173771
23
-25.272919
33
82.345940
0
3DFACE
8
0
70
0
10
-88.664764
20
-40.100121
30
-81.519218
11
-1.173770
21
-42.685593
31
-111.709404
12
-1.173770
22
-34.629974
32
-90.167267
13
-67.344086
23
-32.333778
33
-64.203194
0
3DFACE
8
0
70
0
10
-1.173772
20
-26.771439
30
115.667076
11
-1.173772
21
28.137695
31
118.457016
12
-108.422394
22
26.246597
32
84.394470
13
-93.969849
23
-27.699570
33
81.653458
0
3DFACE
8
0
70
0
10
-93.969849
20
-37.173523
30
-93.014923
11
-108.422394
21
16.772644
31
-90.273911
12
-1.173989
22
14.974777
32
-124.332649
13
-1.173770
23
-39.940231
33
-127.121971
0
3DFACE
8
0
70
0
10
-1.173772
20
28.137695
30
118.457016
11
-1.173772
21
28.652481
31
106.180725
12
-102.321548
22
26.963593
32
76.036095
13
-108.422394
23
26.246597
33
84.394470
0
3DFACE
8
0
70
0
10
-1.173772
20
-26.771439
30
115.667076
11
-93.969849
21
-27.699570
31
81.653458
12
-88.664764
22
-31.716087
32
73.054573
13
-1.173771
23
-31.031784
33
103.148163
0
3DFACE
8
0
70
0
10
-108.422394
20
16.772644
30
-90.273911
11
-102.321541
21
18.579559
31
-78.537697
12
-1.188086
22
17.213593
32
-108.696960
13
-1.173989
23
14.974777
33
-124.332649
0
3DFACE
8
0
70
0
10
-93.969849
20
-37.173523
30
-93.014923
11
-1.173770
21
-39.940231
31
-127.121971
12
-1.173770
22
-42.685593
32
-111.709404
13
-88.664764
23
-40.100121
33
-81.519218
0
3DFACE
8
0
70
0
10
-30.824324
20
-81.413887
30
94.857521
11
-37.138447
21
-67.158615
31
74.016846
12
-70.127968
22
-66.984154
32
73.954384
13
-77.964272
23
-81.413887
33
94.857521
0
3DFACE
8
0
70
0
10
-67.344086
20
-25.708870
30
57.938213
11
-83.222473
21
-28.948814
31
-1.795638
12
-83.927673
22
-45.331039
32
-2.186118
13
-73.763832
23
-35.233849
33
37.599682
0
3DFACE
8
0
70
0
10
-88.664764
20
-31.716087
30
73.054573
11
-109.873329
21
-35.794800
31
-2.143484
12
-83.222473
22
-28.948814
32
-1.795638
13
-67.344086
23
-25.708870
33
57.938213
0
3DFACE
8
0
70
0
10
-108.422394
20
26.246597
30
84.394470
11
-134.337448
21
21.711288
31
0.778407
12
-116.504669
22
-32.234879
32
-1.962603
13
-93.969849
23
-27.699570
33
81.653458
0
3DFACE
8
0
70
0
10
-134.337448
20
21.711288
30
0.778407
11
-108.422394
21
26.246597
31
84.394470
12
-102.321548
22
26.963593
32
76.036095
13
-126.711380
23
22.884872
33
0.838037
0
3DFACE
8
0
70
0
10
-93.969849
20
-27.699570
30
81.653458
11
-116.504669
21
-32.234879
31
-1.962603
12
-109.873329
22
-35.794800
32
-2.143484
13
-88.664764
23
-31.716087
33
73.054573
0
3DFACE
8
0
70
0
10
-16.057442
20
-112.858955
30
106.116486
11
-30.824324
21
-81.413887
31
94.857521
12
-77.964272
22
-81.413887
32
94.857521
13
-83.240837
23
-113.033424
33
106.178955
0
3DFACE
8
0
70
0
10
-1.204484
20
167.796265
30
5.838623
11
-1.207896
21
145.491730
31
-45.334591
12
-56.103218
22
142.352966
32
-35.733181
13
-63.880825
23
151.682068
33
3.563371
0
3DFACE
8
0
70
0
10
-83.222473
20
-28.948814
30
-1.795638
11
-67.344086
21
-32.333778
31
-64.203194
12
-72.725052
22
-48.595161
32
-44.664104
13
-83.927673
23
-45.331039
33
-2.186118
0
3DFACE
8
0
70
0
10
-109.873329
20
-35.794800
30
-2.143484
11
-88.664764
21
-40.100121
31
-81.519218
12
-67.344086
22
-32.333778
32
-64.203194
13
-83.222473
23
-28.948814
33
-1.795638
0
3DFACE
8
0
70
0
10
-116.504669
20
-32.234879
30
-1.962603
11
-134.337448
21
21.711288
31
0.778407
12
-108.422394
22
16.772644
32
-90.273911
13
-93.969849
23
-37.173523
33
-93.014923
0
3DFACE
8
0
70
0
10
-108.422394
20
16.772644
30
-90.273911
11
-134.337448
21
21.711288
31
0.778407
12
-126.711380
22
22.884872
32
0.838037
13
-102.321541
23
18.579559
33
-78.537697
0
3DFACE
8
0
70
0
10
-116.504669
20
-32.234879
30
-1.962603
11
-93.969849
21
-37.173523
31
-93.014923
12
-88.664764
22
-40.100121
32
-81.519218
13
-109.873329
23
-35.794800
33
-2.143484
0
3DFACE
8
0
70
0
10
-32.300648
20
-51.914085
30
24.986341
11
-23.961435
21
-57.429260
31
-1.475882
12
-23.510113
22
-46.646461
32
-1.263161
13
-32.104134
23
-32.549683
33
60.388306
0
3DFACE
8
0
70
0
10
-32.300648
20
-51.914085
30
24.986341
11
-32.104134
21
-32.549683
31
60.388306
12
-73.763832
22
-35.233849
32
37.599682
13
-74.073364
23
-52.586594
33
14.613270
0
3DFACE
8
0
70
0
10
-74.073364
20
-52.586594
30
14.613270
11
-73.763832
21
-35.233849
31
37.599682
12
-83.927673
22
-45.331039
32
-2.186118
13
-84.369896
23
-55.675362
33
-2.706491
0
3DFACE
8
0
70
0
10
-23.961435
20
-57.429260
30
-1.475882
11
-31.384388
21
-62.714050
31
-29.406965
12
-30.506004
22
-53.105553
32
-66.171371
13
-23.510113
23
-46.646461
33
-1.263161
0
3DFACE
8
0
70
0
10
-84.369896
20
-55.675362
30
-2.706491
11
-83.927673
21
-45.331039
31
-2.186118
12
-72.725052
22
-48.595161
32
-44.664104
13
-73.477791
23
-59.606567
33
-20.742380
0
3DFACE
8
0
70
0
10
-73.477791
20
-59.606567
30
-20.742380
11
-72.725052
21
-48.595161
31
-44.664104
12
-30.506004
22
-53.105553
32
-66.171371
13
-31.384388
23
-62.714050
33
-29.406965
0
3DFACE
8
0
70
0
10
-29.728392
20
-124.674072
30
-4.519030
11
-36.833580
21
-94.726395
31
20.781223
12
-37.138451
22
-93.806870
32
28.480375
13
-30.824326
23
-109.158798
33
42.238857
0
3DFACE
8
0
70
0
10
-36.833580
20
-94.726395
30
20.781223
11
-71.119095
21
-101.149185
31
10.851501
12
-70.127968
22
-97.194267
32
29.693241
13
-37.138451
23
-93.806870
33
28.480375
0
3DFACE
8
0
70
0
10
-79.604950
20
-124.005310
30
-5.303431
11
-77.964272
21
-109.158791
31
42.238857
12
-70.127968
22
-97.194267
32
29.693241
13
-71.119095
23
-101.149185
33
10.851501
0
3DFACE
8
0
70
0
10
-13.063470
20
-156.580688
30
-31.280560
11
-29.728392
21
-124.674072
31
-4.519030
12
-30.824326
22
-109.158798
32
42.238857
13
-19.761314
23
-134.360168
33
39.459843
0
3DFACE
8
0
70
0
10
-86.625992
20
-154.239609
30
-30.646263
11
-86.944710
21
-133.211304
31
42.982635
12
-77.964272
22
-109.158791
32
42.238857
13
-79.604950
23
-124.005310
33
-5.303431
0
3DFACE
8
0
70
0
10
-86.625992
20
-154.239609
30
-30.646263
11
-13.063470
21
-156.580688
31
-31.280560
12
-19.761314
22
-134.360168
32
39.459843
13
-86.944710
23
-133.211304
33
42.982635
0
3DFACE
8
0
70
0
10
-30.824324
20
-81.413887
30
94.857521
11
-30.824326
21
-109.158798
31
42.238857
12
-37.138451
22
-93.806870
32
28.480375
13
-37.138447
23
-67.158615
33
74.016846
0
3DFACE
8
0
70
0
10
-37.138447
20
-67.158615
30
74.016846
11
-37.138451
21
-93.806870
31
28.480375
12
-70.127968
22
-97.194267
32
29.693241
13
-70.127968
23
-66.984154
33
73.954384
0
3DFACE
8
0
70
0
10
-77.964272
20
-81.413887
30
94.857521
11
-70.127968
21
-66.984154
31
73.954384
12
-70.127968
22
-97.194267
32
29.693241
13
-77.964272
23
-109.158791
33
42.238857
0
3DFACE
8
0
70
0
10
-16.057442
20
-112.858955
30
106.116486
11
-19.761314
21
-134.360168
31
39.459843
12
-30.824326
22
-109.158798
32
42.238857
13
-30.824324
23
-81.413887
33
94.857521
0
3DFACE
8
0
70
0
10
-83.240837
20
-113.033424
30
106.178955
11
-77.964272
21
-81.413887
31
94.857521
12
-77.964272
22
-109.158791
32
42.238857
13
-86.944710
23
-133.211304
33
42.982635
0
3DFACE
8
0
70
0
10
-83.240837
20
-113.033424
30
106.178955
11
-86.944710
21
-133.211304
31
42.982635
12
-19.761314
22
-134.360168
32
39.459843
13
-16.057442
23
-112.858955
33
106.116486
0
3DFACE
8
0
70
0
10
-73.318253
20
3.461456
30
201.825745
11
-59.607052
21
14.467911
31
193.760651
12
-75.455765
22
25.855499
32
202.784668
13
-93.926048
23
14.467911
33
200.610428
0
3DFACE
8
0
70
0
10
-83.594879
20
126.725830
30
-31.374836
11
-63.880825
21
151.682068
31
3.563371
12
-56.103218
22
142.352966
32
-35.733181
13
-56.103218
23
142.352966
33
-35.733181
0
3DFACE
8
0
70
0
10
-71.768646
20
121.495819
30
42.400070
11
-55.965126
21
126.098267
31
60.051693
12
-63.880825
22
151.682068
32
3.563371
13
-63.880825
23
151.682068
33
3.563371
0
3DFACE
8
0
70
0
10
-113.468109
20
56.728058
30
59.614418
11
-104.183464
21
38.374664
31
89.306274
12
-126.874702
22
-2.219376
32
72.376366
13
-137.676132
23
17.561142
33
44.047096
0
3DFACE
8
0
70
0
10
-163.587158
20
58.316803
30
77.188843
11
-154.368057
21
41.694519
31
107.945213
12
-104.183464
22
38.374664
32
89.306274
13
-113.468109
23
56.728058
33
59.614418
0
3DFACE
8
0
70
0
10
-169.527359
20
3.505997
30
89.967102
11
-154.368057
21
41.694519
31
107.945213
12
-163.587158
22
58.316803
32
77.188843
13
-179.957611
23
21.248077
33
60.286831
0
3DFACE
8
0
70
0
10
-137.676132
20
17.561142
30
44.047096
11
-126.874702
21
-2.219376
31
72.376366
12
-169.527359
22
3.505997
32
89.967102
13
-179.957611
23
21.248077
33
60.286831
0
3DFACE
8
0
70
0
10
-122.733704
20
-10.803680
30
65.832291
11
-93.599930
21
44.337570
31
89.389175
12
-85.253983
22
27.377029
32
116.591133
13
-112.215286
23
-30.113411
33
91.988594
0
3DFACE
8
0
70
0
10
-93.599930
20
44.337570
30
89.389175
11
-160.708649
21
50.365128
31
115.270538
12
-152.685272
22
35.941956
32
143.146362
13
-85.253983
23
27.377029
33
116.591133
0
3DFACE
8
0
70
0
10
-170.121323
20
-17.909698
30
117.449409
11
-152.685272
21
35.941956
31
143.146362
12
-160.708649
22
50.365128
32
115.270538
13
-179.853882
23
-1.689056
33
90.261475
0
3DFACE
8
0
70
0
10
-122.733704
20
-10.803680
30
65.832291
11
-112.215286
21
-30.113411
31
91.988594
12
-170.121323
22
-17.909698
32
117.449409
13
-179.853882
23
-1.689056
33
90.261475
0
3DFACE
8
0
70
0
10
-122.733704
20
-10.803680
30
65.832291
11
-126.874702
21
-2.219376
31
72.376366
12
-104.183464
22
38.374664
32
89.306274
13
-93.599930
23
44.337570
33
89.389175
0
3DFACE
8
0
70
0
10
-112.215286
20
-30.113411
30
91.988594
11
-85.253983
21
27.377029
31
116.591133
12
-95.669975
22
21.545654
32
116.531898
13
-116.701874
23
-20.848785
33
99.057060
0
3DFACE
8
0
70
0
10
-93.599930
20
44.337570
30
89.389175
11
-104.183464
21
38.374664
31
89.306274
12
-154.368057
22
41.694519
32
107.945213
13
-160.708649
23
50.365128
33
115.270538
0
3DFACE
8
0
70
0
10
-85.253983
20
27.377029
30
116.591133
11
-152.685272
21
35.941956
31
143.146362
12
-146.116959
22
26.817520
32
135.472168
13
-95.669975
23
21.545654
33
116.531898
0
3DFACE
8
0
70
0
10
-170.121323
20
-17.909698
30
117.449409
11
-159.963409
21
-12.762466
31
117.182106
12
-146.116959
22
26.817520
32
135.472168
13
-152.685272
23
35.941956
33
143.146362
0
3DFACE
8
0
70
0
10
-179.853882
20
-1.689056
30
90.261475
11
-160.708649
21
50.365128
31
115.270538
12
-154.368057
22
41.694519
32
107.945213
13
-169.527359
23
3.505997
33
89.967102
0
3DFACE
8
0
70
0
10
-112.215286
20
-30.113411
30
91.988594
11
-116.701874
21
-20.848785
31
99.057060
12
-159.963409
22
-12.762466
32
117.182106
13
-170.121323
23
-17.909698
33
117.449409
0
3DFACE
8
0
70
0
10
-122.733704
20
-10.803680
30
65.832291
11
-179.853882
21
-1.689056
31
90.261475
12
-169.527359
22
3.505997
32
89.967102
13
-126.874702
23
-2.219376
33
72.376366
0
3DFACE
8
0
70
0
10
-124.443916
20
-1.748093
30
107.639938
11
-116.701874
21
-20.848785
31
99.057060
12
-95.669975
22
21.545654
32
116.531898
13
-104.524796
23
20.918839
33
102.938850
0
3DFACE
8
0
70
0
10
-104.524796
20
20.918839
30
102.938850
11
-95.669975
21
21.545654
31
116.531898
12
-146.116959
22
26.817520
32
135.472168
13
-131.727875
23
35.750381
33
116.534081
0
3DFACE
8
0
70
0
10
-147.131058
20
13.256699
30
119.261497
11
-131.727875
21
35.750381
31
116.534081
12
-146.116959
22
26.817520
32
135.472168
13
-159.963409
23
-12.762466
33
117.182106
0
3DFACE
8
0
70
0
10
-124.443916
20
-1.748093
30
107.639938
11
-147.131058
21
13.256699
31
119.261497
12
-159.963409
22
-12.762466
32
117.182106
13
-116.701874
23
-20.848785
33
99.057060
0
3DFACE
8
0
70
0
10
-56.100433
20
6.213882
30
130.392807
11
-62.497459
21
7.464813
31
119.167732
12
-62.173508
22
18.438690
32
119.216278
13
-55.688766
23
17.189789
33
130.367004
0
3DFACE
8
0
70
0
10
-55.688766
20
17.189789
30
130.367004
11
-62.173508
21
18.438690
31
119.216278
12
-62.287651
22
29.797546
32
119.585785
13
-55.920059
23
28.550415
33
130.782242
0
3DFACE
8
0
70
0
10
-137.995148
20
19.182983
30
160.122864
11
-111.992165
21
40.221191
31
145.955902
12
-131.727875
22
35.750381
32
116.534081
13
-147.131058
23
13.256699
33
119.261497
0
3DFACE
8
0
70
0
10
-109.325722
20
-1.142776
30
143.165405
11
-137.995148
21
19.182983
31
160.122864
12
-147.131058
22
13.256699
32
119.261497
13
-124.443916
23
-1.748093
33
107.639938
0
3DFACE
8
0
70
0
10
-73.318253
20
3.461456
30
201.825745
11
-109.325722
21
-1.142776
31
143.165405
12
-76.046005
22
19.182983
32
141.717407
13
-59.607052
23
14.467911
33
193.760651
0
3DFACE
8
0
70
0
10
-59.607052
20
14.467911
30
193.760651
11
-76.046005
21
19.182983
31
141.717407
12
-111.992165
22
40.221191
32
145.955902
13
-75.455765
23
25.855499
33
202.784668
0
3DFACE
8
0
70
0
10
-93.926048
20
14.467911
30
200.610428
11
-75.455765
21
25.855499
31
202.784668
12
-111.992165
22
40.221191
32
145.955902
13
-137.995148
23
19.182983
33
160.122864
0
3DFACE
8
0
70
0
10
-73.318253
20
3.461456
30
201.825745
11
-93.926048
21
14.467911
31
200.610428
12
-137.995148
22
19.182983
32
160.122864
13
-109.325722
23
-1.142776
33
143.165405
0
3DFACE
8
0
70
0
10
-56.100433
20
6.213882
30
130.392807
11
-109.325722
21
-1.142776
31
143.165405
12
-124.443916
22
-1.748093
32
107.639938
13
-62.497459
23
7.464813
33
119.167732
0
3DFACE
8
0
70
0
10
-62.497459
20
7.464813
30
119.167732
11
-124.443916
21
-1.748093
31
107.639938
12
-104.524796
22
20.918839
32
102.938850
13
-62.173508
23
18.438690
33
119.216278
0
3DFACE
8
0
70
0
10
-56.100433
20
6.213882
30
130.392807
11
-55.688766
21
17.189789
31
130.367004
12
-76.046005
22
19.182983
32
141.717407
13
-109.325722
23
-1.142776
33
143.165405
0
3DFACE
8
0
70
0
10
-62.173508
20
18.438690
30
119.216278
11
-104.524796
21
20.918839
31
102.938850
12
-131.727875
22
35.750381
32
116.534081
13
-62.287651
23
29.797546
33
119.585785
0
3DFACE
8
0
70
0
10
-55.920059
20
28.550415
30
130.782242
11
-62.287651
21
29.797546
31
119.585785
12
-131.727875
22
35.750381
32
116.534081
13
-111.992165
23
40.221191
33
145.955902
0
3DFACE
8
0
70
0
10
-55.688766
20
17.189789
30
130.367004
11
-55.920059
21
28.550415
31
130.782242
12
-111.992165
22
40.221191
32
145.955902
13
-76.046005
23
19.182983
33
141.717407
0
3DFACE
8
0
70
0
10
21.204792
20
-46.628204
30
-1.098405
11
29.853878
21
-32.087952
31
60.514248
12
-1.173771
22
-25.272919
32
82.345940
13
-1.173771
23
-29.859543
33
-2.216313
0
3DFACE
8
0
70
0
10
21.204792
20
-46.628204
30
-1.098405
11
-1.173771
21
-29.859543
31
-2.216313
12
-1.173770
22
-34.629974
32
-90.167267
13
28.129784
23
-53.528687
33
-66.034462
0
3DFACE
8
0
70
0
10
-1.173770
20
-34.629974
30
-90.167267
11
-1.173771
21
-29.859543
31
-2.216313
12
-23.510113
22
-46.646461
32
-1.263161
13
-30.506004
23
-53.105553
33
-66.171371
0
3DFACE
8
0
70
0
10
-1.173771
20
-29.859543
30
-2.216313
11
-1.173771
21
-25.272919
31
82.345940
12
-32.104134
22
-32.549683
32
60.388306
13
-23.510113
23
-46.646461
33
-1.263161
0
3DFACE
8
0
70
0
10
-0.992170
20
180.306702
30
123.371704
11
9.282705
21
180.828156
31
118.141678
12
18.707031
22
198.576141
32
122.977371
13
-0.992170
23
198.757813
33
129.426575
0
3DFACE
8
0
70
0
10
-0.992170
20
198.757813
30
129.426575
11
18.707031
21
198.576141
31
122.977371
12
11.630703
22
207.140503
32
121.780037
13
-0.992170
23
210.574738
33
125.296555
0
3DFACE
8
0
70
0
10
9.282705
20
180.828156
30
118.141678
11
10.215909
21
177.509399
31
105.271942
12
21.707905
22
196.096497
32
105.520668
13
18.707031
23
198.576141
33
122.977371
0
3DFACE
8
0
70
0
10
-0.992170
20
180.306702
30
123.371704
11
-1.250552
21
174.722046
31
111.191437
12
10.215909
22
177.509399
32
105.271942
13
9.282705
23
180.828156
33
118.141678
0
3DFACE
8
0
70
0
10
-0.992170
20
210.574738
30
125.296555
11
11.630703
21
207.140503
31
121.780037
12
13.550127
22
208.017517
32
105.596397
13
-1.250552
23
211.961090
33
110.904732
0
3DFACE
8
0
70
0
10
18.707031
20
198.576141
30
122.977371
11
21.707905
21
196.096497
31
105.520668
12
13.550127
22
208.017517
32
105.596397
13
11.630703
23
207.140503
33
121.780037
0
3DFACE
8
0
70
0
10
2.787641
20
221.445038
30
107.036438
11
2.787641
21
211.940430
31
108.078682
12
13.817108
22
209.592163
32
102.770355
13
15.134122
23
229.002502
33
105.029045
0
3DFACE
8
0
70
0
10
13.817108
20
209.592163
30
102.770355
11
23.379433
21
210.588196
31
96.483635
12
27.053467
22
221.448425
32
92.911026
13
15.134122
23
229.002502
33
105.029045
0
3DFACE
8
0
70
0
10
11.740435
20
159.469116
30
124.430611
11
7.779484
21
178.446899
31
113.486145
12
-1.250552
22
177.032837
32
116.234711
13
-1.250552
23
159.265625
33
125.114319
0
3DFACE
8
0
70
0
10
49.665462
20
176.306580
30
78.887146
11
48.059719
21
187.236511
31
78.708443
12
24.843044
22
180.129791
32
99.368805
13
31.951052
23
157.303833
33
105.678154
0
3DFACE
8
0
70
0
10
7.779484
20
178.446899
30
113.486145
11
11.740435
21
159.469116
31
124.430611
12
29.954056
22
161.660431
32
115.763046
13
22.476854
23
178.709167
33
113.369034
0
3DFACE
8
0
70
0
10
44.524624
20
221.831238
30
78.913773
11
56.690170
21
235.458191
31
76.967300
12
31.604996
22
247.821899
32
92.290627
13
31.312283
23
227.424896
33
94.987717
0
3DFACE
8
0
70
0
10
-1.250551
20
252.838287
30
106.785828
11
-1.250552
21
228.587646
31
108.861160
12
14.627250
22
235.812378
32
106.267876
13
16.195944
23
258.555969
33
100.368645
0
3DFACE
8
0
70
0
10
16.195944
20
258.555969
30
100.368645
11
14.627250
21
235.812378
31
106.267876
12
31.312283
22
227.424896
32
94.987717
13
31.604996
23
247.821899
33
92.290627
0
3DFACE
8
0
70
0
10
-1.250552
20
132.673096
30
122.939049
11
15.924355
21
141.018555
31
116.572838
12
12.742062
22
150.170074
32
114.524986
13
-1.250552
23
147.203278
33
119.996353
0
3DFACE
8
0
70
0
10
-1.250552
20
89.516891
30
101.861565
11
19.109482
21
102.034058
31
98.619629
12
15.924355
22
141.018555
32
116.572838
13
-1.250552
23
132.673096
33
122.939049
0
3DFACE
8
0
70
0
10
49.665462
20
176.306580
30
78.887146
11
31.951052
21
157.303833
31
105.678154
12
31.267881
22
154.082092
32
96.666969
13
53.388691
23
165.048523
33
82.057426
0
3DFACE
8
0
70
0
10
31.267881
20
154.082092
30
96.666969
11
42.641266
21
128.035583
31
66.867714
12
52.719334
22
157.683044
32
50.873287
13
53.388691
23
165.048523
33
82.057426
0
3DFACE
8
0
70
0
10
19.109482
20
102.034058
30
98.619629
11
42.641266
21
128.035583
31
66.867714
12
31.267881
22
154.082092
32
96.666969
13
15.924355
23
141.018555
33
116.572838
0
3DFACE
8
0
70
0
10
15.924355
20
141.018555
30
116.572838
11
31.267881
21
154.082092
31
96.666969
12
31.951052
22
157.303833
32
105.678154
13
12.742062
23
150.170074
33
114.524986
0
3DFACE
8
0
70
0
10
-1.250552
20
159.265625
30
125.114319
11
-1.250552
21
147.203278
31
119.996353
12
12.742062
22
150.170074
32
114.524986
13
11.740435
23
159.469116
33
124.430611
0
3DFACE
8
0
70
0
10
-1.250552
20
177.032837
30
116.234711
11
7.779484
21
178.446899
31
113.486145
12
10.215909
22
177.509399
32
105.271942
13
-1.250552
23
174.722046
33
111.191437
0
3DFACE
8
0
70
0
10
22.476854
20
178.709167
30
113.369034
11
24.843044
21
180.129791
31
99.368805
12
10.215909
22
177.509399
32
105.271942
13
7.779484
23
178.446899
33
113.486145
0
POINT
8
0
70
0
10
51.156456
20
160.365143
30
97.255531
0
3DFACE
8
0
70
0
10
11.740435
20
159.469116
30
124.430611
11
12.742062
21
150.170074
31
114.524986
12
31.951052
22
157.303833
32
105.678154
13
29.954056
23
161.660431
33
115.763046
0
3DFACE
8
0
70
0
10
29.954056
20
161.660431
30
115.763046
11
51.156456
21
160.365143
31
97.255531
12
22.476854
22
178.709167
32
113.369034
13
22.476854
23
178.709167
33
113.369034
0
3DFACE
8
0
70
0
10
22.476854
20
178.709167
30
113.369034
11
51.156456
21
160.365143
31
97.255531
12
24.843044
22
180.129791
32
99.368805
13
24.843044
23
180.129791
33
99.368805
0
3DFACE
8
0
70
0
10
51.156456
20
160.365143
30
97.255531
11
31.951052
21
157.303833
31
105.678154
12
24.843044
22
180.129791
32
99.368805
13
24.843044
23
180.129791
33
99.368805
0
3DFACE
8
0
70
0
10
31.951052
20
157.303833
30
105.678154
11
51.156456
21
160.365143
31
97.255531
12
29.954056
22
161.660431
32
115.763046
13
29.954056
23
161.660431
33
115.763046
0
3DFACE
8
0
70
0
10
56.690170
20
235.458191
30
76.967300
11
44.524624
21
221.831238
31
78.913773
12
57.958046
22
216.298615
32
42.794483
13
61.263584
23
216.994232
33
43.922295
0
3DFACE
8
0
70
0
10
44.524624
20
221.831238
30
78.913773
11
42.551868
21
209.859009
31
79.416397
12
59.462448
22
209.042908
32
43.222557
13
57.958046
23
216.298615
33
42.794483
0
3DFACE
8
0
70
0
10
42.551868
20
209.859009
30
79.416397
11
44.993645
21
196.759888
31
79.265221
12
59.484234
22
195.848938
32
45.401489
13
59.462448
23
209.042908
33
43.222557
0
3DFACE
8
0
70
0
10
61.263584
20
216.994232
30
43.922295
11
57.958046
21
216.298615
31
42.794483
12
41.167839
22
212.316040
32
17.052134
13
43.753967
23
203.696930
33
21.237284
0
3DFACE
8
0
70
0
10
59.462448
20
209.042908
30
43.222557
11
43.480194
21
212.722290
31
13.432916
12
41.167839
22
212.316040
32
17.052134
13
57.958046
23
216.298615
33
42.794483
0
3DFACE
8
0
70
0
10
59.484234
20
195.848938
30
45.401489
11
40.735420
21
201.025208
31
11.949186
12
43.480194
22
212.722290
32
13.432916
13
59.462448
23
209.042908
33
43.222557
0
3DFACE
8
0
70
0
10
43.753967
20
203.696930
30
21.237284
11
41.167839
21
212.316040
31
17.052134
12
-1.250552
22
210.968872
32
0.181646
13
-1.250553
23
195.269989
33
3.353026
0
3DFACE
8
0
70
0
10
43.480194
20
212.722290
30
13.432916
11
-1.250552
21
212.648071
31
-1.644726
12
-1.250552
22
210.968872
32
0.181646
13
41.167839
23
212.316040
33
17.052134
0
3DFACE
8
0
70
0
10
40.735420
20
201.025208
30
11.949186
11
-1.250552
21
198.771912
31
-0.185418
12
-1.250552
22
212.648071
32
-1.644726
13
43.480194
23
212.722290
33
13.432916
0
3DFACE
8
0
70
0
10
52.719334
20
157.683044
30
50.873287
11
59.047882
21
174.294678
31
46.764175
12
49.665462
22
176.306580
32
78.887146
13
53.388691
23
165.048523
33
82.057426
0
3DFACE
8
0
70
0
10
44.993645
20
196.759888
30
79.265221
11
48.059719
21
187.236511
31
78.708443
12
59.484234
22
195.848938
32
45.401489
13
59.484234
23
195.848938
33
45.401489
0
3DFACE
8
0
70
0
10
49.665462
20
176.306580
30
78.887146
11
59.047882
21
174.294678
31
46.764175
12
59.484234
22
195.848938
32
45.401489
13
48.059719
23
187.236511
33
78.708443
0
3DFACE
8
0
70
0
10
59.047882
20
174.294678
30
46.764175
11
39.942703
21
183.037537
31
14.860032
12
40.735420
22
201.025208
32
11.949186
13
59.484234
23
195.848938
33
45.401489
0
3DFACE
8
0
70
0
10
39.942703
20
183.037537
30
14.860032
11
-1.250552
21
181.411835
31
4.245741
12
-1.250552
22
198.771912
32
-0.185418
13
40.735420
23
201.025208
33
11.949186
0
3DFACE
8
0
70
0
10
-1.250551
20
252.838287
30
106.785828
11
16.195944
21
258.555969
31
100.368645
12
18.149046
22
277.962433
32
88.998611
13
-1.250549
23
279.288086
33
95.015404
0
3DFACE
8
0
70
0
10
-1.250549
20
279.288086
30
95.015404
11
18.149046
21
277.962433
31
88.998611
12
18.537710
22
278.462372
32
83.621948
13
-1.250549
23
281.242004
33
90.517883
0
3DFACE
8
0
70
0
10
16.195944
20
258.555969
30
100.368645
11
31.604996
21
247.821899
31
92.290627
12
44.640377
22
271.643707
32
77.272751
13
18.149046
23
277.962433
33
88.998611
0
3DFACE
8
0
70
0
10
18.149046
20
277.962433
30
88.998611
11
44.640377
21
271.643707
31
77.272751
12
43.398026
22
272.638916
32
72.033043
13
18.537710
23
278.462372
33
83.621948
0
3DFACE
8
0
70
0
10
31.604996
20
247.821899
30
92.290627
11
56.690170
21
235.458191
31
76.967300
12
60.737228
22
253.847107
32
51.046131
13
44.640377
23
271.643707
33
77.272751
0
3DFACE
8
0
70
0
10
44.640377
20
271.643707
30
77.272751
11
60.737228
21
253.847107
31
51.046131
12
52.438557
22
257.204803
32
48.368881
13
43.398026
23
272.638916
33
72.033043
0
3DFACE
8
0
70
0
10
56.690170
20
235.458191
30
76.967300
11
61.263584
21
216.994232
31
43.922295
12
65.262917
22
243.379944
32
27.377316
13
60.737228
23
253.847107
33
51.046131
0
3DFACE
8
0
70
0
10
60.737228
20
253.847107
30
51.046131
11
65.262917
21
243.379944
31
27.377316
12
58.708492
22
246.449371
32
27.805693
13
52.438557
23
257.204803
33
48.368881
0
3DFACE
8
0
70
0
10
61.263584
20
216.994232
30
43.922295
11
43.753967
21
203.696930
31
21.237284
12
44.649292
22
228.487732
32
8.503098
13
65.262917
23
243.379944
33
27.377316
0
3DFACE
8
0
70
0
10
65.262917
20
243.379944
30
27.377316
11
44.649292
21
228.487732
31
8.503098
12
39.120571
22
233.826721
32
10.263459
13
58.708492
23
246.449371
33
27.805693
0
3DFACE
8
0
70
0
10
43.753967
20
203.696930
30
21.237284
11
-1.250553
21
195.269989
31
3.353026
12
-1.250552
22
218.046875
32
-8.763311
13
44.649292
23
228.487732
33
8.503098
0
3DFACE
8
0
70
0
10
44.649292
20
228.487732
30
8.503098
11
-1.250552
21
218.046875
31
-8.763311
12
-1.250551
22
223.220032
32
-6.111557
13
39.120571
23
233.826721
33
10.263459
0
3DFACE
8
0
70
0
10
52.719334
20
157.683044
30
50.873287
11
36.519398
21
160.034058
31
32.616398
12
39.942703
22
183.037537
32
14.860032
13
59.047882
23
174.294678
33
46.764175
0
3DFACE
8
0
70
0
10
36.519398
20
160.034058
30
32.616398
11
-1.228615
21
167.542480
31
9.647685
12
-1.250552
22
181.411835
32
4.245741
13
39.942703
23
183.037537
33
14.860032
0
3DFACE
8
0
70
0
10
42.641266
20
128.035583
30
66.867714
11
29.881567
21
137.972595
31
60.793365
12
36.519398
22
160.034058
32
32.616398
13
52.719334
23
157.683044
33
50.873287
0
3DFACE
8
0
70
0
10
19.109482
20
102.034058
30
98.619629
11
16.690536
21
102.726334
31
82.712944
12
29.881567
22
137.972595
32
60.793365
13
42.641266
23
128.035583
33
66.867714
0
3DFACE
8
0
70
0
10
16.690536
20
102.726334
30
82.712944
11
-1.250552
21
101.092194
31
78.416870
12
-1.250552
22
123.128876
32
56.769794
13
29.881567
23
137.972595
33
60.793365
0
3DFACE
8
0
70
0
10
-1.250552
20
89.516891
30
101.861565
11
-1.250552
21
101.092194
31
78.416870
12
16.690536
22
102.726334
32
82.712944
13
16.690536
23
102.726334
33
82.712944
0
3DFACE
8
0
70
0
10
-1.250552
20
89.516891
30
101.861565
11
16.690536
21
102.726334
31
82.712944
12
19.109482
22
102.034058
32
98.619629
13
19.109482
23
102.034058
33
98.619629
0
3DFACE
8
0
70
0
10
-0.992170
20
180.306702
30
123.371704
11
-0.992170
21
198.757813
31
129.426575
12
-20.691372
22
198.576141
32
122.977371
13
-11.267044
23
180.828156
33
118.141678
0
3DFACE
8
0
70
0
10
-0.992170
20
198.757813
30
129.426575
11
-0.992170
21
210.574738
31
125.296555
12
-13.615044
22
207.140503
32
121.780037
13
-20.691372
23
198.576141
33
122.977371
0
3DFACE
8
0
70
0
10
-11.267044
20
180.828156
30
118.141678
11
-20.691372
21
198.576141
31
122.977371
12
-24.209007
22
196.096497
32
105.520668
13
-12.717012
23
177.509399
33
105.271942
0
3DFACE
8
0
70
0
10
-0.992170
20
180.306702
30
123.371704
11
-11.267044
21
180.828156
31
118.141678
12
-12.717012
22
177.509399
32
105.271942
13
-1.250552
23
174.722046
33
111.191437
0
3DFACE
8
0
70
0
10
-0.992170
20
210.574738
30
125.296555
11
-1.250552
21
211.961090
31
110.904732
12
-16.051231
22
208.017517
32
105.596397
13
-13.615044
23
207.140503
33
121.780037
0
3DFACE
8
0
70
0
10
-20.691372
20
198.576141
30
122.977371
11
-13.615044
21
207.140503
31
121.780037
12
-16.051231
22
208.017517
32
105.596397
13
-24.209007
23
196.096497
33
105.520668
0
3DFACE
8
0
70
0
10
-4.835607
20
221.325775
30
106.856125
11
-16.983480
21
229.697693
31
105.230095
12
-16.084124
22
210.204559
32
103.400566
13
-4.835607
23
212.208496
33
107.700325
0
3DFACE
8
0
70
0
10
-16.084124
20
210.204559
30
103.400566
11
-16.983480
21
229.697693
31
105.230095
12
-28.920612
22
221.328979
32
95.414520
13
-25.173611
23
211.139099
33
98.308342
0
3DFACE
8
0
70
0
10
-14.241539
20
159.469116
30
124.430611
11
-1.250552
21
159.265625
31
125.114319
12
-1.250552
22
177.032837
32
116.234711
13
-10.280586
23
178.446899
33
113.486145
0
3DFACE
8
0
70
0
10
-52.166561
20
176.306580
30
78.887146
11
-34.452156
21
157.303833
31
105.678154
12
-27.344147
22
180.129791
32
99.368805
13
-50.560818
23
187.236511
33
78.708443
0
3DFACE
8
0
70
0
10
-10.280586
20
178.446899
30
113.486145
11
-24.977957
21
178.709167
31
113.369034
12
-32.455158
22
161.660431
32
115.763046
13
-14.241539
23
159.469116
33
124.430611
0
3DFACE
8
0
70
0
10
-47.025726
20
221.831238
30
78.913773
11
-32.941349
21
227.424896
31
94.987717
12
-33.234058
22
247.821899
32
92.290619
13
-59.191265
23
235.458191
33
76.967300
0
3DFACE
8
0
70
0
10
-1.250551
20
252.838287
30
106.785828
11
-18.293322
21
259.291290
31
100.035088
12
-16.724632
22
236.605408
32
106.201164
13
-1.250552
23
228.587646
33
108.861160
0
3DFACE
8
0
70
0
10
-18.293322
20
259.291290
30
100.035088
11
-33.234058
21
247.821899
31
92.290619
12
-32.941349
22
227.424896
32
94.987717
13
-16.724632
23
236.605408
33
106.201164
0
3DFACE
8
0
70
0
10
-1.250552
20
132.673096
30
122.939049
11
-1.250552
21
147.203278
31
119.996353
12
-15.243166
22
150.170074
32
114.524986
13
-18.425461
23
141.018555
33
116.572838
0
3DFACE
8
0
70
0
10
-1.250552
20
89.516891
30
101.861565
11
-1.250552
21
132.673096
31
122.939049
12
-18.425461
22
141.018555
32
116.572838
13
-21.610586
23
102.034058
33
98.619629
0
3DFACE
8
0
70
0
10
-52.166561
20
176.306580
30
78.887146
11
-55.889786
21
165.048523
31
82.057426
12
-33.768986
22
154.082092
32
96.666969
13
-34.452156
23
157.303833
33
105.678154
0
3DFACE
8
0
70
0
10
-33.768986
20
154.082092
30
96.666969
11
-55.889786
21
165.048523
31
82.057426
12
-55.220436
22
157.683044
32
50.873287
13
-45.142368
23
128.035583
33
66.867714
0
3DFACE
8
0
70
0
10
-21.610586
20
102.034058
30
98.619629
11
-18.425461
21
141.018555
31
116.572838
12
-33.768986
22
154.082092
32
96.666969
13
-45.142368
23
128.035583
33
66.867714
0
3DFACE
8
0
70
0
10
-18.425461
20
141.018555
30
116.572838
11
-15.243166
21
150.170074
31
114.524986
12
-34.452156
22
157.303833
32
105.678154
13
-33.768986
23
154.082092
33
96.666969
0
3DFACE
8
0
70
0
10
-1.250552
20
159.265625
30
125.114319
11
-14.241539
21
159.469116
31
124.430611
12
-15.243166
22
150.170074
32
114.524986
13
-1.250552
23
147.203278
33
119.996353
0
3DFACE
8
0
70
0
10
-1.250552
20
177.032837
30
116.234711
11
-1.250552
21
174.722046
31
111.191437
12
-12.717012
22
177.509399
32
105.271942
13
-10.280586
23
178.446899
33
113.486145
0
3DFACE
8
0
70
0
10
-24.977957
20
178.709167
30
113.369034
11
-10.280586
21
178.446899
31
113.486145
12
-12.717012
22
177.509399
32
105.271942
13
-27.344147
23
180.129791
33
99.368805
0
POINT
8
0
70
0
10
-52.850113
20
160.365143
30
97.255531
0
3DFACE
8
0
70
0
10
-14.241539
20
159.469116
30
124.430611
11
-32.455158
21
161.660431
31
115.763046
12
-34.452156
22
157.303833
32
105.678154
13
-15.243166
23
150.170074
33
114.524986
0
3DFACE
8
0
70
0
10
-32.455158
20
161.660431
30
115.763046
11
-24.977957
21
178.709167
31
113.369034
12
-52.850113
22
160.365143
32
97.255531
13
-52.850113
23
160.365143
33
97.255531
0
3DFACE
8
0
70
0
10
-24.977957
20
178.709167
30
113.369034
11
-27.344147
21
180.129791
31
99.368805
12
-52.850113
22
160.365143
32
97.255531
13
-52.850113
23
160.365143
33
97.255531
0
3DFACE
8
0
70
0
10
-52.850113
20
160.365143
30
97.255531
11
-27.344147
21
180.129791
31
99.368805
12
-34.452156
22
157.303833
32
105.678154
13
-34.452156
23
157.303833
33
105.678154
0
3DFACE
8
0
70
0
10
-34.452156
20
157.303833
30
105.678154
11
-32.455158
21
161.660431
31
115.763046
12
-52.850113
22
160.365143
32
97.255531
13
-52.850113
23
160.365143
33
97.255531
0
3DFACE
8
0
70
0
10
-59.191265
20
235.458191
30
76.967300
11
-63.764683
21
216.994232
31
43.922295
12
-60.459141
22
216.298615
32
42.794483
13
-47.025726
23
221.831238
33
78.913773
0
3DFACE
8
0
70
0
10
-47.025726
20
221.831238
30
78.913773
11
-60.459141
21
216.298615
31
42.794483
12
-61.963551
22
209.042908
32
43.222557
13
-45.052975
23
209.859009
33
79.416397
0
3DFACE
8
0
70
0
10
-45.052975
20
209.859009
30
79.416397
11
-61.963551
21
209.042908
31
43.222557
12
-61.985332
22
195.848938
32
45.401489
13
-47.494743
23
196.759888
33
79.265221
0
3DFACE
8
0
70
0
10
-63.764683
20
216.994232
30
43.922295
11
-46.255066
21
203.696930
31
21.237284
12
-43.668938
22
212.316040
32
17.052134
13
-60.459141
23
216.298615
33
42.794483
0
3DFACE
8
0
70
0
10
-61.963551
20
209.042908
30
43.222557
11
-60.459141
21
216.298615
31
42.794483
12
-43.668938
22
212.316040
32
17.052134
13
-45.981300
23
212.722290
33
13.432916
0
3DFACE
8
0
70
0
10
-61.985332
20
195.848938
30
45.401489
11
-61.963551
21
209.042908
31
43.222557
12
-45.981300
22
212.722290
32
13.432916
13
-43.236523
23
201.025208
33
11.949186
0
3DFACE
8
0
70
0
10
-46.255066
20
203.696930
30
21.237284
11
-1.250553
21
195.269989
31
3.353026
12
-1.250552
22
210.968872
32
0.181646
13
-43.668938
23
212.316040
33
17.052134
0
3DFACE
8
0
70
0
10
-45.981300
20
212.722290
30
13.432916
11
-43.668938
21
212.316040
31
17.052134
12
-1.250552
22
210.968872
32
0.181646
13
-1.250552
23
212.648071
33
-1.644726
0
3DFACE
8
0
70
0
10
-43.236523
20
201.025208
30
11.949186
11
-45.981300
21
212.722290
31
13.432916
12
-1.250552
22
212.648071
32
-1.644726
13
-1.250552
23
198.771912
33
-0.185418
0
3DFACE
8
0
70
0
10
-55.220436
20
157.683044
30
50.873287
11
-55.889786
21
165.048523
31
82.057426
12
-52.166561
22
176.306580
32
78.887146
13
-61.548977
23
174.294678
33
46.764175
0
3DFACE
8
0
70
0
10
-47.494743
20
196.759888
30
79.265221
11
-61.985332
21
195.848938
31
45.401489
12
-50.560818
22
187.236511
32
78.708443
13
-50.560818
23
187.236511
33
78.708443
0
3DFACE
8
0
70
0
10
-52.166561
20
176.306580
30
78.887146
11
-50.560818
21
187.236511
31
78.708443
12
-61.985332
22
195.848938
32
45.401489
13
-61.548977
23
174.294678
33
46.764175
0
3DFACE
8
0
70
0
10
-61.548977
20
174.294678
30
46.764175
11
-61.985332
21
195.848938
31
45.401489
12
-43.236523
22
201.025208
32
11.949186
13
-42.443806
23
183.037537
33
14.860032
0
3DFACE
8
0
70
0
10
-42.443806
20
183.037537
30
14.860032
11
-43.236523
21
201.025208
31
11.949186
12
-1.250552
22
198.771912
32
-0.185418
13
-1.250552
23
181.411835
33
4.245741
0
3DFACE
8
0
70
0
10
-1.250551
20
252.838287
30
106.785828
11
-1.250549
21
279.288086
31
95.015404
12
-20.650148
22
277.962433
32
88.998611
13
-18.293322
23
259.291290
33
100.035088
0
3DFACE
8
0
70
0
10
-1.250549
20
279.288086
30
95.015404
11
-1.250549
21
281.242004
31
90.517883
12
-21.038813
22
278.462372
32
83.621948
13
-20.650148
23
277.962433
33
88.998611
0
3DFACE
8
0
70
0
10
-18.293322
20
259.291290
30
100.035088
11
-20.650148
21
277.962433
31
88.998611
12
-47.141468
22
271.643707
32
77.272751
13
-33.234058
23
247.821899
33
92.290619
0
3DFACE
8
0
70
0
10
-20.650148
20
277.962433
30
88.998611
11
-21.038813
21
278.462372
31
83.621948
12
-45.899117
22
272.638916
32
72.033043
13
-47.141468
23
271.643707
33
77.272751
0
3DFACE
8
0
70
0
10
-33.234058
20
247.821899
30
92.290619
11
-47.141468
21
271.643707
31
77.272751
12
-63.238331
22
253.847107
32
51.046131
13
-59.191265
23
235.458191
33
76.967300
0
3DFACE
8
0
70
0
10
-47.141468
20
271.643707
30
77.272751
11
-45.899117
21
272.638916
31
72.033043
12
-54.939648
22
257.204803
32
48.368881
13
-63.238331
23
253.847107
33
51.046131
0
3DFACE
8
0
70
0
10
-59.191265
20
235.458191
30
76.967300
11
-63.238331
21
253.847107
31
51.046131
12
-67.764023
22
243.379944
32
27.377314
13
-63.764683
23
216.994232
33
43.922295
0
3DFACE
8
0
70
0
10
-63.238331
20
253.847107
30
51.046131
11
-54.939648
21
257.204803
31
48.368881
12
-61.209591
22
246.449402
32
27.805691
13
-67.764023
23
243.379944
33
27.377314
0
3DFACE
8
0
70
0
10
-63.764683
20
216.994232
30
43.922295
11
-67.764023
21
243.379944
31
27.377314
12
-47.150394
22
228.487732
32
8.503097
13
-46.255066
23
203.696930
33
21.237284
0
3DFACE
8
0
70
0
10
-67.764023
20
243.379944
30
27.377314
11
-61.209591
21
246.449402
31
27.805691
12
-41.621677
22
233.826721
32
10.263458
13
-47.150394
23
228.487732
33
8.503097
0
3DFACE
8
0
70
0
10
-46.255066
20
203.696930
30
21.237284
11
-47.150394
21
228.487732
31
8.503097
12
-1.250552
22
218.046875
32
-8.763311
13
-1.250553
23
195.269989
33
3.353026
0
3DFACE
8
0
70
0
10
-47.150394
20
228.487732
30
8.503097
11
-41.621677
21
233.826721
31
10.263458
12
-1.250551
22
223.220032
32
-6.111557
13
-1.250552
23
218.046875
33
-8.763311
0
3DFACE
8
0
70
0
10
-55.220436
20
157.683044
30
50.873287
11
-61.548977
21
174.294678
31
46.764175
12
-42.443806
22
183.037537
32
14.860032
13
-38.964664
23
160.034058
33
32.616398
0
3DFACE
8
0
70
0
10
-38.964664
20
160.034058
30
32.616398
11
-42.443806
21
183.037537
31
14.860032
12
-1.250552
22
181.411835
32
4.245741
13
-1.228615
23
167.542480
33
9.647685
0
3DFACE
8
0
70
0
10
-45.142368
20
128.035583
30
66.867714
11
-55.220436
21
157.683044
31
50.873287
12
-38.964664
22
160.034058
32
32.616398
13
-32.305893
23
137.972595
33
60.793365
0
3DFACE
8
0
70
0
10
-21.610586
20
102.034058
30
98.619629
11
-45.142368
21
128.035583
31
66.867714
12
-32.305893
22
137.972595
32
60.793365
13
-19.191641
23
102.726334
33
82.712944
0
3DFACE
8
0
70
0
10
-19.191641
20
102.726334
30
82.712944
11
-32.305893
21
137.972595
31
60.793365
12
-1.250552
22
123.128876
32
56.769794
13
-1.250552
23
101.092194
33
78.416870
0
3DFACE
8
0
70
0
10
-1.250552
20
89.516891
30
101.861565
11
-19.191641
21
102.726334
31
82.712944
12
-1.250552
22
101.092194
32
78.416870
13
-1.250552
23
101.092194
33
78.416870
0
3DFACE
8
0
70
0
10
-1.250552
20
89.516891
30
101.861565
11
-21.610586
21
102.034058
31
98.619629
12
-19.191641
22
102.726334
32
82.712944
13
-19.191641
23
102.726334
33
82.712944
0
3DFACE
8
0
70
0
10
-4.835607
20
212.208496
30
107.700325
11
-1.250552
21
211.961090
31
110.904732
12
-1.250552
22
228.587646
32
108.861160
13
-4.835607
23
221.325775
33
106.856125
0
3DFACE
8
0
70
0
10
-16.084124
20
210.204559
30
103.400566
11
-16.051231
21
208.017517
31
105.596397
12
-1.250552
22
211.961090
32
110.904732
13
-4.835607
23
212.208496
33
107.700325
0
3DFACE
8
0
70
0
10
-16.983480
20
229.697693
30
105.230095
11
-4.835607
21
221.325775
31
106.856125
12
-1.250552
22
228.587646
32
108.861160
13
-16.724632
23
236.605408
33
106.201164
0
3DFACE
8
0
70
0
10
-16.084124
20
210.204559
30
103.400566
11
-25.173611
21
211.139099
31
98.308342
12
-28.011082
22
209.298401
32
99.309685
13
-16.051231
23
208.017517
33
105.596397
0
3DFACE
8
0
70
0
10
-25.173611
20
211.139099
30
98.308342
11
-28.920612
21
221.328979
31
95.414520
12
-32.941349
22
227.424896
32
94.987717
13
-28.011082
23
209.298401
33
99.309685
0
3DFACE
8
0
70
0
10
-16.983480
20
229.697693
30
105.230095
11
-16.724632
21
236.605408
31
106.201164
12
-32.941349
22
227.424896
32
94.987717
13
-28.920612
23
221.328979
33
95.414520
0
3DFACE
8
0
70
0
10
15.134122
20
229.002502
30
105.029045
11
14.627250
21
235.812378
31
106.267876
12
-1.250552
22
228.587646
32
108.861160
13
2.787641
23
221.445038
33
107.036438
0
3DFACE
8
0
70
0
10
13.817108
20
209.592163
30
102.770355
11
2.787641
21
211.940430
31
108.078682
12
-1.250552
22
211.961090
32
110.904732
13
13.550127
23
208.017517
33
105.596397
0
3DFACE
8
0
70
0
10
2.787641
20
211.940430
30
108.078682
11
2.787641
21
221.445038
31
107.036438
12
-1.250552
22
228.587646
32
108.861160
13
-1.250552
23
211.961090
33
110.904732
0
3DFACE
8
0
70
0
10
15.134122
20
229.002502
30
105.029045
11
27.053467
21
221.448425
31
92.911026
12
31.312283
22
227.424896
32
94.987717
13
14.627250
23
235.812378
33
106.267876
0
3DFACE
8
0
70
0
10
23.379433
20
210.588196
30
96.483635
11
26.382017
21
209.298401
31
99.309685
12
31.312283
22
227.424896
32
94.987717
13
27.053467
23
221.448425
33
92.911026
0
3DFACE
8
0
70
0
10
13.817108
20
209.592163
30
102.770355
11
13.550127
21
208.017517
31
105.596397
12
26.382017
22
209.298401
32
99.309685
13
23.379433
23
210.588196
33
96.483635
0
3DFACE
8
0
70
0
10
-1.228615
20
167.542480
30
9.647685
11
36.519398
21
160.034058
31
32.616398
12
63.039642
22
153.162476
32
3.385514
13
-1.204484
23
167.796265
33
5.838623
0
3DFACE
8
0
70
0
10
-1.204484
20
167.796265
30
5.838623
11
-63.880825
21
151.682068
31
3.563371
12
-38.964664
22
160.034058
32
32.616398
13
-1.228615
23
167.542480
33
9.647685
0
3DFACE
8
0
70
0
10
-63.880825
20
151.682068
30
3.563371
11
-55.965126
21
126.098267
31
60.051693
12
-38.964664
22
160.034058
32
32.616398
13
-38.964664
23
160.034058
33
32.616398
0
3DFACE
8
0
70
0
10
-55.965126
20
126.098267
30
60.051693
11
-32.305893
21
137.972595
31
60.793365
12
-38.964664
22
160.034058
32
32.616398
13
-38.964664
23
160.034058
33
32.616398
0
3DFACE
8
0
70
0
10
53.584675
20
126.098267
30
60.051693
11
36.519398
21
160.034058
31
32.616398
12
29.881567
22
137.972595
32
60.793365
13
29.881567
23
137.972595
33
60.793365
0
3DFACE
8
0
70
0
10
63.039642
20
153.162476
30
3.385514
11
36.519398
21
160.034058
31
32.616398
12
53.584675
22
126.098267
32
60.051693
13
53.584675
23
126.098267
33
60.051693
0
3DFACE
8
0
70
0
10
-1.173773
20
126.563721
30
67.940491
11
-32.305893
21
137.972595
31
60.793365
12
-55.965126
22
126.098267
32
60.051693
13
-55.965126
23
126.098267
33
60.051693
0
3DFACE
8
0
70
0
10
-1.250552
20
123.128876
30
56.769794
11
-32.305893
21
137.972595
31
60.793365
12
-1.173773
22
126.563721
32
67.940491
13
-1.173773
23
126.563721
33
67.940491
0
3DFACE
8
0
70
0
10
-1.250552
20
123.128876
30
56.769794
11
-1.173773
21
126.563721
31
67.940491
12
29.881567
22
137.972595
32
60.793365
13
29.881567
23
137.972595
33
60.793365
0
3DFACE
8
0
70
0
10
-1.173773
20
126.563721
30
67.940491
11
53.584675
21
126.098267
31
60.051693
12
29.881567
22
137.972595
32
60.793365
13
29.881567
23
137.972595
33
60.793365
0
3DFACE
8
0
70
0
10
-1.250551
20
223.220032
30
-6.111557
11
-1.278548
21
284.566071
31
-4.632252
12
14.691640
22
288.823547
32
1.508280
13
39.120571
23
233.826721
33
10.263459
0
3DFACE
8
0
70
0
10
39.120571
20
233.826721
30
10.263459
11
14.691640
21
288.823547
31
1.508280
12
25.409309
22
295.143250
32
10.623020
13
58.708492
23
246.449371
33
27.805693
0
3DFACE
8
0
70
0
10
58.708492
20
246.449371
30
27.805693
11
25.409309
21
295.143250
31
10.623020
12
22.956945
22
301.608215
32
19.947350
13
52.438557
23
257.204803
33
48.368881
0
3DFACE
8
0
70
0
10
52.438557
20
257.204803
30
48.368881
11
22.956945
21
301.608215
31
19.947350
12
20.278320
22
309.622925
32
31.506779
13
43.398026
23
272.638916
33
72.033043
0
3DFACE
8
0
70
0
10
-1.250549
20
281.242004
30
90.517883
11
18.537710
21
278.462372
31
83.621948
12
8.347961
22
313.514160
32
37.119061
13
-1.278546
23
315.785065
33
40.394379
0
3DFACE
8
0
70
0
10
-1.250551
20
223.220032
30
-6.111557
11
-41.621677
21
233.826721
31
10.263458
12
-17.248735
22
288.823547
32
1.508279
13
-1.278548
23
284.566071
33
-4.632252
0
3DFACE
8
0
70
0
10
-41.621677
20
233.826721
30
10.263458
11
-61.209591
21
246.449402
31
27.805691
12
-27.966394
22
295.143250
32
10.623018
13
-17.248735
23
288.823547
33
1.508279
0
3DFACE
8
0
70
0
10
-61.209591
20
246.449402
30
27.805691
11
-54.939648
21
257.204803
31
48.368881
12
-25.514038
22
301.608246
32
19.947348
13
-27.966394
23
295.143250
33
10.623018
0
3DFACE
8
0
70
0
10
-54.939648
20
257.204803
30
48.368881
11
-45.899117
21
272.638916
31
72.033043
12
-22.835411
22
309.622925
32
31.506777
13
-25.514038
23
301.608246
33
19.947348
0
3DFACE
8
0
70
0
10
-1.250549
20
281.242004
30
90.517883
11
-1.278546
21
315.785065
31
40.394379
12
-10.905053
22
313.514160
32
37.119061
13
-21.038813
23
278.462372
33
83.621948
0
3DFACE
8
0
70
0
10
43.398026
20
272.638916
30
72.033043
11
20.278320
21
309.622925
31
31.506779
12
8.347961
22
313.514160
32
37.119061
13
18.537710
23
278.462372
33
83.621948
0
3DFACE
8
0
70
0
10
-45.899117
20
272.638916
30
72.033043
11
-21.038813
21
278.462372
31
83.621948
12
-10.905053
22
313.514160
32
37.119061
13
-22.835411
23
309.622925
33
31.506777
0
3DFACE
8
0
70
0
10
-1.320393
20
350.540588
30
-10.378741
11
12.288532
21
350.941467
31
-19.948147
12
-1.320390
22
355.858124
32
-25.564394
13
-1.320390
23
355.858124
33
-25.564394
0
3DFACE
8
0
70
0
10
12.288529
20
341.108246
30
-8.715747
11
12.288532
21
350.941467
31
-19.948147
12
-1.320393
22
350.540588
32
-10.378741
13
-1.320393
23
350.540588
33
-10.378741
0
3DFACE
8
0
70
0
10
-1.320395
20
336.191650
30
-3.099547
11
12.288529
21
341.108246
31
-8.715747
12
-1.320393
22
350.540588
32
-10.378741
13
-1.320393
23
350.540588
33
-10.378741
0
3DFACE
8
0
70
0
10
-1.320395
20
336.191650
30
-3.099547
11
-1.320393
21
350.540588
31
-10.378741
12
-14.929284
22
341.108246
32
-8.715749
13
-14.929284
23
341.108246
33
-8.715749
0
3DFACE
8
0
70
0
10
-14.929284
20
341.108246
30
-8.715749
11
-1.320393
21
350.540588
31
-10.378741
12
-14.929281
22
350.941467
32
-19.948149
13
-14.929281
23
350.941467
33
-19.948149
0
3DFACE
8
0
70
0
10
-1.320393
20
350.540588
30
-10.378741
11
-1.320390
21
355.858124
31
-25.564394
12
-14.929281
22
350.941467
32
-19.948149
13
-14.929281
23
350.941467
33
-19.948149
0
3DFACE
8
0
70
0
10
12.288532
20
350.941467
30
-19.948147
11
17.925507
21
342.076172
31
-31.818386
12
-1.320387
22
349.029297
32
-39.760902
13
-1.320390
23
355.858124
33
-25.564394
0
3DFACE
8
0
70
0
10
17.925503
20
328.169830
30
-15.933311
11
17.925507
21
342.076172
31
-31.818386
12
12.288532
22
350.941467
32
-19.948147
13
12.288529
23
341.108246
33
-8.715747
0
3DFACE
8
0
70
0
10
-1.320393
20
321.216705
30
-7.990819
11
17.925503
21
328.169830
31
-15.933311
12
12.288529
22
341.108246
32
-8.715747
13
-1.320395
23
336.191650
33
-3.099547
0
3DFACE
8
0
70
0
10
-1.320393
20
321.216705
30
-7.990819
11
-1.320395
21
336.191650
31
-3.099547
12
-14.929284
22
341.108246
32
-8.715749
13
-20.566290
23
328.169830
33
-15.933311
0
3DFACE
8
0
70
0
10
-20.566290
20
328.169830
30
-15.933311
11
-14.929284
21
341.108246
31
-8.715749
12
-14.929281
22
350.941467
32
-19.948149
13
-20.566286
23
342.076172
33
-31.818386
0
3DFACE
8
0
70
0
10
-14.929281
20
350.941467
30
-19.948149
11
-1.320390
21
355.858124
31
-25.564394
12
-1.320387
22
349.029297
32
-39.760902
13
-20.566286
23
342.076172
33
-31.818386
0
3DFACE
8
0
70
0
10
12.288534
20
329.137695
30
-39.035904
11
-1.320386
21
334.054352
31
-44.652149
12
-1.320387
22
349.029297
32
-39.760902
13
17.925507
23
342.076172
33
-31.818386
0
3DFACE
8
0
70
0
10
17.925503
20
328.169830
30
-15.933311
11
12.288532
21
319.304474
31
-27.803501
12
12.288534
22
329.137695
32
-39.035904
13
17.925507
23
342.076172
33
-31.818386
0
3DFACE
8
0
70
0
10
-1.320393
20
321.216705
30
-7.990819
11
-1.320390
21
314.387878
31
-22.187302
12
12.288532
22
319.304474
32
-27.803501
13
17.925503
23
328.169830
33
-15.933311
0
3DFACE
8
0
70
0
10
-1.320393
20
321.216705
30
-7.990819
11
-20.566290
21
328.169830
31
-15.933311
12
-14.929279
22
319.304474
32
-27.803505
13
-1.320390
23
314.387878
33
-22.187302
0
3DFACE
8
0
70
0
10
-20.566290
20
328.169830
30
-15.933311
11
-20.566286
21
342.076172
31
-31.818386
12
-14.929277
22
329.137695
32
-39.035904
13
-14.929279
23
319.304474
33
-27.803505
0
3DFACE
8
0
70
0
10
-14.929277
20
329.137695
30
-39.035904
11
-20.566286
21
342.076172
31
-31.818386
12
-1.320387
22
349.029297
32
-39.760902
13
-1.320386
23
334.054352
33
-44.652149
0
3DFACE
8
0
70
0
10
-1.320396
20
319.705383
30
-37.372917
11
-1.320386
21
334.054352
31
-44.652149
12
12.288534
22
329.137695
32
-39.035904
13
12.288534
23
329.137695
33
-39.035904
0
3DFACE
8
0
70
0
10
12.288532
20
319.304474
30
-27.803501
11
-1.320396
21
319.705383
31
-37.372917
12
12.288534
22
329.137695
32
-39.035904
13
12.288534
23
329.137695
33
-39.035904
0
3DFACE
8
0
70
0
10
-1.320390
20
314.387878
30
-22.187302
11
-1.320396
21
319.705383
31
-37.372917
12
12.288532
22
319.304474
32
-27.803501
13
12.288532
23
319.304474
33
-27.803501
0
3DFACE
8
0
70
0
10
-1.320390
20
314.387878
30
-22.187302
11
-14.929279
21
319.304474
31
-27.803505
12
-1.320396
22
319.705383
32
-37.372917
13
-1.320396
23
319.705383
33
-37.372917
0
3DFACE
8
0
70
0
10
-14.929279
20
319.304474
30
-27.803505
11
-14.929277
21
329.137695
31
-39.035904
12
-1.320396
22
319.705383
32
-37.372917
13
-1.320396
23
319.705383
33
-37.372917
0
3DFACE
8
0
70
0
10
-1.320396
20
319.705383
30
-37.372917
11
-14.929277
21
329.137695
31
-39.035904
12
-1.320386
22
334.054352
32
-44.652149
13
-1.320386
23
334.054352
33
-44.652149
0
3DFACE
8
0
70
0
10
24.843044
20
180.129791
30
99.368805
11
48.059719
21
187.236511
31
78.708443
12
36.339664
22
195.943115
32
102.486237
13
36.339664
23
195.943115
33
102.486237
0
3DFACE
8
0
70
0
10
48.059719
20
187.236511
30
78.708443
11
44.993645
21
196.759888
31
79.265221
12
36.339664
22
195.943115
32
102.486237
13
36.339664
23
195.943115
33
102.486237
0
3DFACE
8
0
70
0
10
10.215909
20
177.509399
30
105.271942
11
24.843044
21
180.129791
31
99.368805
12
21.707905
22
196.096497
32
105.520668
13
21.707905
23
196.096497
33
105.520668
0
3DFACE
8
0
70
0
10
24.843044
20
180.129791
30
99.368805
11
36.339664
21
195.943115
31
102.486237
12
21.707905
22
196.096497
32
105.520668
13
21.707905
23
196.096497
33
105.520668
0
3DFACE
8
0
70
0
10
36.339664
20
195.943115
30
102.486237
11
44.993645
21
196.759888
31
79.265221
12
26.382017
22
209.298401
32
99.309685
13
26.382017
23
209.298401
33
99.309685
0
3DFACE
8
0
70
0
10
44.993645
20
196.759888
30
79.265221
11
42.551868
21
209.859009
31
79.416397
12
26.382017
22
209.298401
32
99.309685
13
26.382017
23
209.298401
33
99.309685
0
3DFACE
8
0
70
0
10
21.707905
20
196.096497
30
105.520668
11
26.382017
21
209.298401
31
99.309685
12
13.550127
22
208.017517
32
105.596397
13
13.550127
23
208.017517
33
105.596397
0
3DFACE
8
0
70
0
10
36.339664
20
195.943115
30
102.486237
11
26.382017
21
209.298401
31
99.309685
12
21.707905
22
196.096497
32
105.520668
13
21.707905
23
196.096497
33
105.520668
0
3DFACE
8
0
70
0
10
26.382017
20
209.298401
30
99.309685
11
42.551868
21
209.859009
31
79.416397
12
31.312283
22
227.424896
32
94.987717
13
31.312283
23
227.424896
33
94.987717
0
3DFACE
8
0
70
0
10
42.551868
20
209.859009
30
79.416397
11
44.524624
21
221.831238
31
78.913773
12
31.312283
22
227.424896
32
94.987717
13
31.312283
23
227.424896
33
94.987717
0
3DFACE
8
0
70
0
10
-50.560818
20
187.236511
30
78.708443
11
-38.840767
21
195.943115
31
102.486237
12
-47.494743
22
196.759888
32
79.265221
13
-47.494743
23
196.759888
33
79.265221
0
3DFACE
8
0
70
0
10
-27.344147
20
180.129791
30
99.368805
11
-38.840767
21
195.943115
31
102.486237
12
-50.560818
22
187.236511
32
78.708443
13
-50.560818
23
187.236511
33
78.708443
0
3DFACE
8
0
70
0
10
-27.344147
20
180.129791
30
99.368805
11
-24.209007
21
196.096497
31
105.520668
12
-38.840767
22
195.943115
32
102.486237
13
-38.840767
23
195.943115
33
102.486237
0
3DFACE
8
0
70
0
10
-12.717012
20
177.509399
30
105.271942
11
-24.209007
21
196.096497
31
105.520668
12
-27.344147
22
180.129791
32
99.368805
13
-27.344147
23
180.129791
33
99.368805
0
3DFACE
8
0
70
0
10
-47.494743
20
196.759888
30
79.265221
11
-28.011082
21
209.298401
31
99.309685
12
-45.052975
22
209.859009
32
79.416397
13
-45.052975
23
209.859009
33
79.416397
0
3DFACE
8
0
70
0
10
-38.840767
20
195.943115
30
102.486237
11
-28.011082
21
209.298401
31
99.309685
12
-47.494743
22
196.759888
32
79.265221
13
-47.494743
23
196.759888
33
79.265221
0
3DFACE
8
0
70
0
10
-24.209007
20
196.096497
30
105.520668
11
-16.051231
21
208.017517
31
105.596397
12
-28.011082
22
209.298401
32
99.309685
13
-28.011082
23
209.298401
33
99.309685
0
3DFACE
8
0
70
0
10
-38.840767
20
195.943115
30
102.486237
11
-24.209007
21
196.096497
31
105.520668
12
-28.011082
22
209.298401
32
99.309685
13
-28.011082
23
209.298401
33
99.309685
0
3DFACE
8
0
70
0
10
-45.052975
20
209.859009
30
79.416397
11
-32.941349
21
227.424896
31
94.987717
12
-47.025726
22
221.831238
32
78.913773
13
-47.025726
23
221.831238
33
78.913773
0
3DFACE
8
0
70
0
10
-28.011082
20
209.298401
30
99.309685
11
-32.941349
21
227.424896
31
94.987717
12
-45.052975
22
209.859009
32
79.416397
13
-45.052975
23
209.859009
33
79.416397
0
3DFACE
8
0
70
0
10
34.087177
20
-72.896873
30
39.835522
11
29.971155
21
-52.041351
31
25.061459
12
21.626940
22
-57.551865
32
-1.399469
13
21.626940
23
-57.551865
33
-1.399469
0
3DFACE
8
0
70
0
10
34.087177
20
-72.896873
30
39.835522
11
21.626940
21
-57.551865
31
-1.399469
12
25.745754
22
-77.033829
32
15.561884
13
25.745754
23
-77.033829
33
15.561884
0
3DFACE
8
0
70
0
10
34.087177
20
-72.896873
30
39.835522
11
71.741478
21
-52.697983
31
14.678875
12
29.971155
22
-52.041351
32
25.061459
13
29.971155
23
-52.041351
33
25.061459
0
3DFACE
8
0
70
0
10
34.087177
20
-72.896873
30
39.835522
11
69.882339
21
-73.474380
31
30.368610
12
71.741478
22
-52.697983
32
14.678875
13
71.741478
23
-52.697983
33
14.678875
0
3DFACE
8
0
70
0
10
69.882339
20
-73.474380
30
30.368610
11
82.034584
21
-55.778793
31
-2.643541
12
71.741478
22
-52.697983
32
14.678875
13
71.741478
23
-52.697983
33
14.678875
0
3DFACE
8
0
70
0
10
69.882339
20
-73.474380
30
30.368610
11
78.677338
21
-75.803108
31
14.486175
12
82.034584
22
-55.778793
32
-2.643541
13
82.034584
23
-55.778793
33
-2.643541
0
3DFACE
8
0
70
0
10
33.197948
20
-80.973503
30
-10.086162
11
21.626940
21
-57.551865
31
-1.399469
12
29.044455
22
-62.826691
32
-29.332794
13
29.044455
23
-62.826691
33
-29.332794
0
3DFACE
8
0
70
0
10
25.745754
20
-77.033829
30
15.561884
11
21.626940
21
-57.551865
31
-1.399469
12
33.197948
22
-80.973503
32
-10.086162
13
33.197948
23
-80.973503
33
-10.086162
0
3DFACE
8
0
70
0
10
69.304344
20
-78.724197
30
-2.080486
11
71.139122
21
-59.708450
31
-20.677389
12
82.034584
22
-55.778793
32
-2.643541
13
82.034584
23
-55.778793
33
-2.643541
0
3DFACE
8
0
70
0
10
78.677338
20
-75.803108
30
14.486175
11
69.304344
21
-78.724197
31
-2.080486
12
82.034584
22
-55.778793
32
-2.643541
13
82.034584
23
-55.778793
33
-2.643541
0
3DFACE
8
0
70
0
10
33.197948
20
-80.973503
30
-10.086162
11
29.044455
21
-62.826691
31
-29.332794
12
71.139122
22
-59.708450
32
-20.677389
13
71.139122
23
-59.708450
33
-20.677389
0
3DFACE
8
0
70
0
10
69.304344
20
-78.724197
30
-2.080486
11
33.197948
21
-80.973503
31
-10.086162
12
71.139122
22
-59.708450
32
-20.677389
13
71.139122
23
-59.708450
33
-20.677389
0
3DFACE
8
0
70
0
10
-36.407578
20
-72.783783
30
39.767876
11
-28.071093
21
-76.930000
31
15.492728
12
-23.961435
22
-57.429260
32
-1.475882
13
-23.961435
23
-57.429260
33
-1.475882
0
3DFACE
8
0
70
0
10
-36.407578
20
-72.783783
30
39.767876
11
-23.961435
21
-57.429260
31
-1.475882
12
-32.300648
22
-51.914085
32
24.986341
13
-32.300648
23
-51.914085
33
24.986341
0
3DFACE
8
0
70
0
10
-36.407578
20
-72.783783
30
39.767876
11
-32.300648
21
-51.914085
31
24.986341
12
-74.073364
22
-52.586594
32
14.613270
13
-74.073364
23
-52.586594
33
14.613270
0
3DFACE
8
0
70
0
10
-36.407578
20
-72.783783
30
39.767876
11
-74.073364
21
-52.586594
31
14.613270
12
-72.204941
22
-73.375595
32
30.309109
13
-72.204941
23
-73.375595
33
30.309109
0
3DFACE
8
0
70
0
10
-72.204941
20
-73.375595
30
30.309109
11
-74.073364
21
-52.586594
31
14.613270
12
-84.369896
22
-55.675362
32
-2.706491
13
-84.369896
23
-55.675362
33
-2.706491
0
3DFACE
8
0
70
0
10
-72.204941
20
-73.375595
30
30.309109
11
-84.369896
21
-55.675362
31
-2.706491
12
-81.003265
22
-75.714279
32
14.428874
13
-81.003265
23
-75.714279
33
14.428874
0
3DFACE
8
0
70
0
10
-35.528606
20
-80.883904
30
-10.153275
11
-31.384388
21
-62.714050
31
-29.406965
12
-23.961435
22
-57.429260
32
-1.475882
13
-23.961435
23
-57.429260
33
-1.475882
0
3DFACE
8
0
70
0
10
-28.071093
20
-76.930000
30
15.492728
11
-35.528606
21
-80.883904
31
-10.153275
12
-23.961435
22
-57.429260
32
-1.475882
13
-23.961435
23
-57.429260
33
-1.475882
0
3DFACE
8
0
70
0
10
-81.003265
20
-75.714279
30
14.428874
11
-84.369896
21
-55.675362
31
-2.706491
12
-71.633614
22
-78.640678
32
-2.139641
13
-71.633614
23
-78.640678
33
-2.139641
0
3DFACE
8
0
70
0
10
-71.633614
20
-78.640678
30
-2.139641
11
-84.369896
21
-55.675362
31
-2.706491
12
-73.477791
22
-59.606567
32
-20.742380
13
-73.477791
23
-59.606567
33
-20.742380
0
3DFACE
8
0
70
0
10
-71.633614
20
-78.640678
30
-2.139641
11
-73.477791
21
-59.606567
31
-20.742380
12
-35.528606
22
-80.883904
32
-10.153275
13
-35.528606
23
-80.883904
33
-10.153275
0
3DFACE
8
0
70
0
10
-35.528606
20
-80.883904
30
-10.153275
11
-73.477791
21
-59.606567
31
-20.742380
12
-31.384388
22
-62.714050
32
-29.406965
13
-31.384388
23
-62.714050
33
-29.406965
0
3DFACE
8
0
70
0
10
34.477360
20
-96.767517
30
22.842670
11
34.087177
21
-72.896873
31
39.835522
12
25.745754
22
-77.033829
32
15.561884
13
25.745754
23
-77.033829
33
15.561884
0
3DFACE
8
0
70
0
10
27.371920
20
-125.112221
30
-4.446622
11
34.477360
21
-96.767517
31
22.842670
12
25.745754
22
-77.033829
32
15.561884
13
25.745754
23
-77.033829
33
15.561884
0
3DFACE
8
0
70
0
10
68.761826
20
-102.565315
30
12.445567
11
69.882339
21
-73.474380
31
30.368610
12
34.477360
22
-96.767517
32
22.842670
13
34.477360
23
-96.767517
33
22.842670
0
3DFACE
8
0
70
0
10
34.477360
20
-96.767517
30
22.842670
11
69.882339
21
-73.474380
31
30.368610
12
34.087177
22
-72.896873
32
39.835522
13
34.087177
23
-72.896873
33
39.835522
0
3DFACE
8
0
70
0
10
77.248116
20
-124.433586
30
-5.239926
11
78.677338
21
-75.803108
31
14.486175
12
68.761826
22
-102.565315
32
12.445567
13
68.761826
23
-102.565315
33
12.445567
0
3DFACE
8
0
70
0
10
68.761826
20
-102.565315
30
12.445567
11
78.677338
21
-75.803108
31
14.486175
12
69.882339
22
-73.474380
32
30.368610
13
69.882339
23
-73.474380
33
30.368610
0
3DFACE
8
0
70
0
10
27.371920
20
-125.112221
30
-4.446622
11
25.745754
21
-77.033829
31
15.561884
12
33.197948
22
-80.973503
32
-10.086162
13
33.197948
23
-80.973503
33
-10.086162
0
3DFACE
8
0
70
0
10
10.706789
20
-155.315613
30
-33.317581
11
27.371920
21
-125.112221
31
-4.446622
12
33.197948
22
-80.973503
32
-10.086162
13
33.197948
23
-80.973503
33
-10.086162
0
3DFACE
8
0
70
0
10
84.268929
20
-153.077652
30
-32.605659
11
69.304344
21
-78.724197
31
-2.080486
12
77.248116
22
-124.433586
32
-5.239926
13
77.248116
23
-124.433586
33
-5.239926
0
3DFACE
8
0
70
0
10
77.248116
20
-124.433586
30
-5.239926
11
69.304344
21
-78.724197
31
-2.080486
12
78.677338
22
-75.803108
32
14.486175
13
78.677338
23
-75.803108
33
14.486175
0
3DFACE
8
0
70
0
10
10.706789
20
-155.315613
30
-33.317581
11
33.197948
21
-80.973503
31
-10.086162
12
84.268929
22
-153.077652
32
-32.605659
13
84.268929
23
-153.077652
33
-32.605659
0
3DFACE
8
0
70
0
10
84.268929
20
-153.077652
30
-32.605659
11
33.197948
21
-80.973503
31
-10.086162
12
69.304344
22
-78.724197
32
-2.080486
13
69.304344
23
-78.724197
33
-2.080486
0
3DFACE
8
0
70
0
10
-29.728392
20
-124.674072
30
-4.519030
11
-28.071093
21
-76.930000
31
15.492728
12
-36.833580
22
-94.726395
32
20.781223
13
-36.833580
23
-94.726395
33
20.781223
0
3DFACE
8
0
70
0
10
-36.833580
20
-94.726395
30
20.781223
11
-28.071093
21
-76.930000
31
15.492728
12
-36.407578
22
-72.783783
32
39.767876
13
-36.407578
23
-72.783783
33
39.767876
0
3DFACE
8
0
70
0
10
-36.833580
20
-94.726395
30
20.781223
11
-36.407578
21
-72.783783
31
39.767876
12
-72.204941
22
-73.375595
32
30.309109
13
-72.204941
23
-73.375595
33
30.309109
0
3DFACE
8
0
70
0
10
-71.119095
20
-101.149185
30
10.851501
11
-36.833580
21
-94.726395
31
20.781223
12
-72.204941
22
-73.375595
32
30.309109
13
-72.204941
23
-73.375595
33
30.309109
0
3DFACE
8
0
70
0
10
-71.119095
20
-101.149185
30
10.851501
11
-72.204941
21
-73.375595
31
30.309109
12
-81.003265
22
-75.714279
32
14.428874
13
-81.003265
23
-75.714279
33
14.428874
0
3DFACE
8
0
70
0
10
-79.604950
20
-124.005310
30
-5.303431
11
-71.119095
21
-101.149185
31
10.851501
12
-81.003265
22
-75.714279
32
14.428874
13
-81.003265
23
-75.714279
33
14.428874
0
3DFACE
8
0
70
0
10
-13.063470
20
-156.580688
30
-31.280560
11
-35.528606
21
-80.883904
31
-10.153275
12
-29.728392
22
-124.674072
32
-4.519030
13
-29.728392
23
-124.674072
33
-4.519030
0
3DFACE
8
0
70
0
10
-29.728392
20
-124.674072
30
-4.519030
11
-35.528606
21
-80.883904
31
-10.153275
12
-28.071093
22
-76.930000
32
15.492728
13
-28.071093
23
-76.930000
33
15.492728
0
3DFACE
8
0
70
0
10
-79.604950
20
-124.005310
30
-5.303431
11
-81.003265
21
-75.714279
31
14.428874
12
-71.633614
22
-78.640678
32
-2.139641
13
-71.633614
23
-78.640678
33
-2.139641
0
3DFACE
8
0
70
0
10
-86.625992
20
-154.239609
30
-30.646263
11
-79.604950
21
-124.005310
31
-5.303431
12
-71.633614
22
-78.640678
32
-2.139641
13
-71.633614
23
-78.640678
33
-2.139641
0
3DFACE
8
0
70
0
10
-86.625992
20
-154.239609
30
-30.646263
11
-71.633614
21
-78.640678
31
-2.139641
12
-35.528606
22
-80.883904
32
-10.153275
13
-35.528606
23
-80.883904
33
-10.153275
0
3DFACE
8
0
70
0
10
-13.063470
20
-156.580688
30
-31.280560
11
-86.625992
21
-154.239609
31
-30.646263
12
-35.528606
22
-80.883904
32
-10.153275
13
-35.528606
23
-80.883904
33
-10.153275
0
3DFACE
8
0
70
0
10
99.973991
20
26.963593
30
76.036087
11
-1.173772
21
46.137680
31
117.645760
12
-1.173772
22
28.652481
32
106.180725
13
-1.173772
23
28.652481
33
106.180725
0
3DFACE
8
0
70
0
10
99.973991
20
26.963593
30
76.036087
11
100.884438
21
59.782562
31
87.726509
12
-1.173772
22
46.137680
32
117.645760
13
-1.173772
23
46.137680
33
117.645760
0
3DFACE
8
0
70
0
10
99.973991
20
18.579559
30
-78.537697
11
-1.188086
21
17.213593
31
-108.696960
12
-1.173771
22
49.891602
32
-100.844444
13
-1.173771
23
49.891602
33
-100.844444
0
3DFACE
8
0
70
0
10
99.973991
20
18.579559
30
-78.537697
11
-1.173771
21
49.891602
31
-100.844444
12
100.884445
22
51.417374
32
-66.499863
13
100.884445
23
51.417374
33
-66.499863
0
3DFACE
8
0
70
0
10
99.973991
20
26.963593
30
76.036087
11
125.486366
21
55.132828
31
2.000735
12
100.884438
22
59.782562
32
87.726509
13
100.884438
23
59.782562
33
87.726509
0
3DFACE
8
0
70
0
10
99.973991
20
26.963593
30
76.036087
11
124.363838
21
22.884872
31
0.838036
12
125.486366
22
55.132828
32
2.000735
13
125.486366
23
55.132828
33
2.000735
0
3DFACE
8
0
70
0
10
124.363838
20
22.884872
30
0.838036
11
99.973991
21
18.579559
31
-78.537697
12
100.884445
22
51.417374
32
-66.499863
13
100.884445
23
51.417374
33
-66.499863
0
3DFACE
8
0
70
0
10
124.363838
20
22.884872
30
0.838036
11
100.884445
21
51.417374
31
-66.499863
12
125.486366
22
55.132828
32
2.000735
13
125.486366
23
55.132828
33
2.000735
0
3DFACE
8
0
70
0
10
-102.321548
20
26.963593
30
76.036095
11
-1.173772
21
28.652481
31
106.180725
12
-1.173772
22
46.137680
32
117.645760
13
-1.173772
23
46.137680
33
117.645760
0
3DFACE
8
0
70
0
10
-102.321548
20
26.963593
30
76.036095
11
-1.173772
21
46.137680
31
117.645760
12
-103.231987
22
59.782562
32
87.726509
13
-103.231987
23
59.782562
33
87.726509
0
3DFACE
8
0
70
0
10
-102.321541
20
18.579559
30
-78.537697
11
-1.173771
21
49.891602
31
-100.844444
12
-1.188086
22
17.213593
32
-108.696960
13
-1.188086
23
17.213593
33
-108.696960
0
3DFACE
8
0
70
0
10
-102.321541
20
18.579559
30
-78.537697
11
-103.231987
21
51.417374
31
-66.499863
12
-1.173771
22
49.891602
32
-100.844444
13
-1.173771
23
49.891602
33
-100.844444
0
3DFACE
8
0
70
0
10
-102.321548
20
26.963593
30
76.036095
11
-127.833923
21
55.132828
31
2.000737
12
-126.711380
22
22.884872
32
0.838037
13
-126.711380
23
22.884872
33
0.838037
0
3DFACE
8
0
70
0
10
-102.321548
20
26.963593
30
76.036095
11
-103.231987
21
59.782562
31
87.726509
12
-127.833923
22
55.132828
32
2.000737
13
-127.833923
23
55.132828
33
2.000737
0
3DFACE
8
0
70
0
10
-126.711380
20
22.884872
30
0.838037
11
-127.833923
21
55.132828
31
2.000737
12
-103.231987
22
51.417374
32
-66.499863
13
-103.231987
23
51.417374
33
-66.499863
0
3DFACE
8
0
70
0
10
-126.711380
20
22.884872
30
0.838037
11
-103.231987
21
51.417374
31
-66.499863
12
-102.321541
22
18.579559
32
-78.537697
13
-102.321541
23
18.579559
33
-78.537697
0
3DFACE
8
0
70
0
10
-1.173772
20
46.137680
30
117.645760
11
53.584675
21
126.098267
31
60.051693
12
-1.173773
22
126.563721
32
67.940491
13
-1.173773
23
126.563721
33
67.940491
0
3DFACE
8
0
70
0
10
-1.173772
20
46.137680
30
117.645760
11
100.884438
21
59.782562
31
87.726509
12
53.584675
22
126.098267
32
60.051693
13
53.584675
23
126.098267
33
60.051693
0
3DFACE
8
0
70
0
10
100.884445
20
51.417374
30
-66.499863
11
-1.173771
21
49.891602
31
-100.844444
12
53.713795
22
142.352966
32
-35.733181
13
53.713795
23
142.352966
33
-35.733181
0
3DFACE
8
0
70
0
10
-1.173771
20
49.891602
30
-100.844444
11
-1.207896
21
145.491730
31
-45.334591
12
53.713795
22
142.352966
32
-35.733181
13
53.713795
23
142.352966
33
-35.733181
0
3DFACE
8
0
70
0
10
100.884438
20
59.782562
30
87.726509
11
88.971329
21
98.581741
31
3.115428
12
71.366730
22
126.047668
32
45.724255
13
71.366730
23
126.047668
33
45.724255
0
3DFACE
8
0
70
0
10
100.884438
20
59.782562
30
87.726509
11
125.486366
21
55.132828
31
2.000735
12
88.971329
22
98.581741
32
3.115428
13
88.971329
23
98.581741
33
3.115428
0
3DFACE
8
0
70
0
10
100.884445
20
51.417374
30
-66.499863
11
78.417755
21
125.615173
31
-31.383808
12
88.971329
22
98.581741
32
3.115428
13
88.971329
23
98.581741
33
3.115428
0
3DFACE
8
0
70
0
10
125.486366
20
55.132828
30
2.000735
11
100.884445
21
51.417374
31
-66.499863
12
88.971329
22
98.581741
32
3.115428
13
88.971329
23
98.581741
33
3.115428
0
3DFACE
8
0
70
0
10
100.884438
20
59.782562
30
87.726509
11
71.366730
21
126.047668
31
45.724255
12
53.584675
22
126.098267
32
60.051693
13
53.584675
23
126.098267
33
60.051693
0
3DFACE
8
0
70
0
10
100.884445
20
51.417374
30
-66.499863
11
53.713795
21
142.352966
31
-35.733181
12
78.417755
22
125.615173
32
-31.383808
13
78.417755
23
125.615173
33
-31.383808
0
3DFACE
8
0
70
0
10
-1.173772
20
46.137680
30
117.645760
11
-55.965126
21
126.098267
31
60.051693
12
-103.231987
22
59.782562
32
87.726509
13
-103.231987
23
59.782562
33
87.726509
0
3DFACE
8
0
70
0
10
-1.173772
20
46.137680
30
117.645760
11
-1.173773
21
126.563721
31
67.940491
12
-55.965126
22
126.098267
32
60.051693
13
-55.965126
23
126.098267
33
60.051693
0
3DFACE
8
0
70
0
10
-103.231987
20
51.417374
30
-66.499863
11
-56.103218
21
142.352966
31
-35.733181
12
-1.173771
22
49.891602
32
-100.844444
13
-1.173771
23
49.891602
33
-100.844444
0
3DFACE
8
0
70
0
10
-1.173771
20
49.891602
30
-100.844444
11
-56.103218
21
142.352966
31
-35.733181
12
-1.207896
22
145.491730
32
-45.334591
13
-1.207896
23
145.491730
33
-45.334591
0
3DFACE
8
0
70
0
10
-103.231987
20
59.782562
30
87.726509
11
-71.768646
21
121.495819
31
42.400070
12
-94.879341
22
97.938690
32
-0.052075
13
-94.879341
23
97.938690
33
-0.052075
0
3DFACE
8
0
70
0
10
-103.231987
20
59.782562
30
87.726509
11
-94.879341
21
97.938690
31
-0.052075
12
-127.833923
22
55.132828
32
2.000737
13
-127.833923
23
55.132828
33
2.000737
0
3DFACE
8
0
70
0
10
-127.833923
20
55.132828
30
2.000737
11
-94.879341
21
97.938690
31
-0.052075
12
-103.231987
22
51.417374
32
-66.499863
13
-103.231987
23
51.417374
33
-66.499863
0
3DFACE
8
0
70
0
10
-103.231987
20
51.417374
30
-66.499863
11
-94.879341
21
97.938690
31
-0.052075
12
-83.594879
22
126.725830
32
-31.374836
13
-83.594879
23
126.725830
33
-31.374836
0
3DFACE
8
0
70
0
10
-103.231987
20
59.782562
30
87.726509
11
-55.965126
21
126.098267
31
60.051693
12
-71.768646
22
121.495819
32
42.400070
13
-71.768646
23
121.495819
33
42.400070
0
3DFACE
8
0
70
0
10
-103.231987
20
51.417374
30
-66.499863
11
-83.594879
21
126.725830
31
-31.374836
12
-56.103218
22
142.352966
32
-35.733181
13
-56.103218
23
142.352966
33
-35.733181
0
3DFACE
8
0
70
0
10
88.971329
20
98.581741
30
3.115428
11
105.110283
21
72.790848
31
43.393780
12
71.366730
22
126.047668
32
45.724255
13
71.366730
23
126.047668
33
45.724255
0
3DFACE
8
0
70
0
10
112.178658
20
38.933685
30
9.723715
11
105.110283
21
72.790848
31
43.393780
12
88.971329
22
98.581741
32
3.115428
13
88.971329
23
98.581741
33
3.115428
0
3DFACE
8
0
70
0
10
71.366730
20
126.047668
30
45.724255
11
153.497757
21
76.228302
31
22.057089
12
63.039642
22
153.162476
32
3.385514
13
63.039642
23
153.162476
33
3.385514
0
3DFACE
8
0
70
0
10
71.366730
20
126.047668
30
45.724255
11
105.110283
21
72.790848
31
43.393780
12
153.497757
22
76.228302
32
22.057089
13
153.497757
23
76.228302
33
22.057089
0
3DFACE
8
0
70
0
10
78.417755
20
125.615173
30
-31.383808
11
63.039642
21
153.162476
31
3.385514
12
153.497757
22
76.228302
32
22.057089
13
153.497757
23
76.228302
33
22.057089
0
3DFACE
8
0
70
0
10
78.417755
20
125.615173
30
-31.383808
11
153.497757
21
76.228302
31
22.057089
12
153.744980
22
43.700424
32
-6.992239
13
153.744980
23
43.700424
33
-6.992239
0
3DFACE
8
0
70
0
10
88.971329
20
98.581741
30
3.115428
11
78.417755
21
125.615173
31
-31.383808
12
153.744980
22
43.700424
32
-6.992239
13
153.744980
23
43.700424
33
-6.992239
0
3DFACE
8
0
70
0
10
112.178658
20
38.933685
30
9.723715
11
88.971329
21
98.581741
31
3.115428
12
153.744980
22
43.700424
32
-6.992239
13
153.744980
23
43.700424
33
-6.992239
0
3DFACE
8
0
70
0
10
-94.879341
20
97.938690
30
-0.052075
11
-71.768646
21
121.495819
31
42.400070
12
-112.160378
22
69.914459
32
43.110600
13
-112.160378
23
69.914459
33
43.110600
0
3DFACE
8
0
70
0
10
-134.703247
20
46.141235
30
7.787156
11
-94.879341
21
97.938690
31
-0.052075
12
-112.160378
22
69.914459
32
43.110600
13
-112.160378
23
69.914459
33
43.110600
0
3DFACE
8
0
70
0
10
-71.768646
20
121.495819
30
42.400070
11
-63.880825
21
151.682068
31
3.563371
12
-160.627563
22
89.298279
32
34.538017
13
-160.627563
23
89.298279
33
34.538017
0
3DFACE
8
0
70
0
10
-71.768646
20
121.495819
30
42.400070
11
-160.627563
21
89.298279
31
34.538017
12
-112.160378
22
69.914459
32
43.110600
13
-112.160378
23
69.914459
33
43.110600
0
3DFACE
8
0
70
0
10
-83.594879
20
126.725830
30
-31.374836
11
-160.627563
21
89.298279
31
34.538017
12
-63.880825
22
151.682068
32
3.563371
13
-63.880825
23
151.682068
33
3.563371
0
3DFACE
8
0
70
0
10
-83.594879
20
126.725830
30
-31.374836
11
-175.521759
21
64.197021
31
2.221669
12
-160.627563
22
89.298279
32
34.538017
13
-160.627563
23
89.298279
33
34.538017
0
3DFACE
8
0
70
0
10
-94.879341
20
97.938690
30
-0.052075
11
-175.521759
21
64.197021
31
2.221669
12
-83.594879
22
126.725830
32
-31.374836
13
-83.594879
23
126.725830
33
-31.374836
0
3DFACE
8
0
70
0
10
-134.703247
20
46.141235
30
7.787156
11
-175.521759
21
64.197021
31
2.221669
12
-94.879341
22
97.938690
32
-0.052075
13
-94.879341
23
97.938690
33
-0.052075
0
3DFACE
8
0
70
0
10
-137.676132
20
17.561142
30
44.047096
11
-134.703247
21
46.141235
31
7.787156
12
-112.160378
22
69.914459
32
43.110600
13
-112.160378
23
69.914459
33
43.110600
0
3DFACE
8
0
70
0
10
-137.676132
20
17.561142
30
44.047096
11
-112.160378
21
69.914459
31
43.110600
12
-113.468109
22
56.728058
32
59.614418
13
-113.468109
23
56.728058
33
59.614418
0
3DFACE
8
0
70
0
10
-113.468109
20
56.728058
30
59.614418
11
-112.160378
21
69.914459
31
43.110600
12
-160.627563
22
89.298279
32
34.538017
13
-160.627563
23
89.298279
33
34.538017
0
3DFACE
8
0
70
0
10
-113.468109
20
56.728058
30
59.614418
11
-160.627563
21
89.298279
31
34.538017
12
-163.587158
22
58.316803
32
77.188843
13
-163.587158
23
58.316803
33
77.188843
0
3DFACE
8
0
70
0
10
-179.957611
20
21.248077
30
60.286831
11
-163.587158
21
58.316803
31
77.188843
12
-160.627563
22
89.298279
32
34.538017
13
-160.627563
23
89.298279
33
34.538017
0
3DFACE
8
0
70
0
10
-179.957611
20
21.248077
30
60.286831
11
-160.627563
21
89.298279
31
34.538017
12
-175.521759
22
64.197021
32
2.221669
13
-175.521759
23
64.197021
33
2.221669
0
3DFACE
8
0
70
0
10
-137.676132
20
17.561142
30
44.047096
11
-179.957611
21
21.248077
31
60.286831
12
-175.521759
22
64.197021
32
2.221669
13
-175.521759
23
64.197021
33
2.221669
0
3DFACE
8
0
70
0
10
-137.676132
20
17.561142
30
44.047096
11
-175.521759
21
64.197021
31
2.221669
12
-134.703247
22
46.141235
32
7.787156
13
-134.703247
23
46.141235
33
7.787156
0
3DFACE
8
0
70
0
10
116.547615
20
15.965286
30
49.538429
11
105.110283
21
72.790848
31
43.393780
12
112.178658
22
38.933685
32
9.723715
13
112.178658
23
38.933685
33
9.723715
0
3DFACE
8
0
70
0
10
116.547615
20
15.965286
30
49.538429
11
107.273285
21
62.650055
31
59.383987
12
105.110283
22
72.790848
32
43.393780
13
105.110283
23
72.790848
33
43.393780
0
3DFACE
8
0
70
0
10
107.273285
20
62.650055
30
59.383987
11
153.497757
21
76.228302
31
22.057089
12
105.110283
22
72.790848
32
43.393780
13
105.110283
23
72.790848
33
43.393780
0
3DFACE
8
0
70
0
10
107.273285
20
62.650055
30
59.383987
11
158.493240
21
52.056015
31
68.742661
12
153.497757
22
76.228302
32
22.057089
13
153.497757
23
76.228302
33
22.057089
0
3DFACE
8
0
70
0
10
160.666626
20
9.470535
30
58.277802
11
153.744980
21
43.700424
31
-6.992239
12
153.497757
22
76.228302
32
22.057089
13
153.497757
23
76.228302
33
22.057089
0
3DFACE
8
0
70
0
10
160.666626
20
9.470535
30
58.277802
11
153.497757
21
76.228302
31
22.057089
12
158.493240
22
52.056015
32
68.742661
13
158.493240
23
52.056015
33
68.742661
0
3DFACE
8
0
70
0
10
116.547615
20
15.965286
30
49.538429
11
112.178658
21
38.933685
31
9.723715
12
153.744980
22
43.700424
32
-6.992239
13
153.744980
23
43.700424
33
-6.992239
0
3DFACE
8
0
70
0
10
116.547615
20
15.965286
30
49.538429
11
153.744980
21
43.700424
31
-6.992239
12
160.666626
22
9.470535
32
58.277802
13
160.666626
23
9.470535
33
58.277802
0
3DFACE
8
0
70
0
10
-5.802032
20
325.325867
30
-20.338923
11
-1.330381
21
323.552002
31
-21.908787
12
-1.278548
22
284.566071
32
-4.632252
13
-17.248735
23
288.823547
33
1.508279
0
3DFACE
8
0
70
0
10
3.141272
20
325.325867
30
-20.338923
11
14.691640
21
288.823547
31
1.508280
12
-1.278548
22
284.566071
32
-4.632252
13
-1.330381
23
323.552002
33
-21.908787
0
3DFACE
8
0
70
0
10
6.142220
20
327.958954
30
-18.008713
11
25.409309
21
295.143250
31
10.623020
12
14.691640
22
288.823547
32
1.508280
13
3.141272
23
325.325867
33
-20.338923
0
3DFACE
8
0
70
0
10
5.455558
20
330.652588
30
-15.624907
11
22.956945
21
301.608215
31
19.947350
12
25.409309
22
295.143250
32
10.623020
13
6.142220
23
327.958954
33
-18.008713
0
3DFACE
8
0
70
0
10
4.705543
20
333.991882
30
-12.669687
11
20.278320
21
309.622925
31
31.506779
12
22.956945
22
301.608215
32
19.947350
13
5.455558
23
330.652588
33
-15.624907
0
3DFACE
8
0
70
0
10
1.365042
20
335.613159
30
-11.234876
11
8.347961
21
313.514160
31
37.119061
12
20.278320
22
309.622925
32
31.506779
13
4.705543
23
333.991882
33
-12.669687
0
3DFACE
8
0
70
0
10
-1.330380
20
336.559357
30
-10.397519
11
-1.278546
21
315.785065
31
40.394379
12
8.347961
22
313.514160
32
37.119061
13
1.365042
23
335.613159
33
-11.234876
0
3DFACE
8
0
70
0
10
-1.330380
20
336.559357
30
-10.397519
11
-4.025802
21
335.613159
31
-11.234877
12
-10.905053
22
313.514160
32
37.119061
13
-1.278546
23
315.785065
33
40.394379
0
3DFACE
8
0
70
0
10
-4.025802
20
335.613159
30
-11.234877
11
-7.366302
21
333.991913
31
-12.669688
12
-22.835411
22
309.622925
32
31.506777
13
-10.905053
23
313.514160
33
37.119061
0
3DFACE
8
0
70
0
10
-7.366302
20
333.991913
30
-12.669688
11
-8.116318
21
330.652588
31
-15.624907
12
-25.514038
22
301.608246
32
19.947348
13
-22.835411
23
309.622925
33
31.506777
0
3DFACE
8
0
70
0
10
-8.116318
20
330.652588
30
-15.624907
11
-8.802978
21
327.958954
31
-18.008713
12
-27.966394
22
295.143250
32
10.623018
13
-25.514038
23
301.608246
33
19.947348
0
3DFACE
8
0
70
0
10
-8.802978
20
327.958954
30
-18.008713
11
-5.802032
21
325.325867
31
-20.338923
12
-17.248735
22
288.823547
32
1.508279
13
-27.966394
23
295.143250
33
10.623018
0
ENDSEC
0
EOF
