0
SECTION
2
HEADER
999
DXF File Generated by LightWave 3D(TM)
0
ENDSEC
0
SECTION
2
TABLES
0
ENDSEC
0
SECTION
2
BLOCKS
0
ENDSEC
0
SECTION
2
ENTITIES
0
3DFACE
8
0
70
0
10
2.379158
20
-25.269615
30
81.579590
11
31.157173
21
-31.112625
31
58.540298
12
72.804222
22
-34.709488
32
35.774105
13
68.013603
23
-24.923500
33
55.764137
0
3DFACE
8
0
70
0
10
65.483566
20
-31.563423
30
-66.350250
11
71.667343
21
-48.432007
31
-46.500389
12
29.408125
22
-52.224197
32
-68.035851
13
-1.194283
23
-34.647881
33
-90.895447
0
3DFACE
8
0
70
0
10
2.891775
20
-31.025436
30
102.376335
11
2.379158
21
-25.269615
31
81.579590
12
68.013603
22
-24.923500
32
55.764137
13
89.722038
23
-30.675400
33
70.420921
0
3DFACE
8
0
70
0
10
86.520195
20
-39.078430
30
-84.118668
11
65.483566
21
-31.563423
31
-66.350250
12
-1.194283
22
-34.647881
32
-90.895447
13
-1.558789
23
-42.705658
33
-112.433693
0
3DFACE
8
0
70
0
10
3.108598
20
-26.763802
30
114.892937
11
95.161537
21
-26.595131
31
78.905052
12
109.028214
22
27.519073
32
81.343605
13
2.516669
23
28.141815
33
117.689201
0
3DFACE
8
0
70
0
10
91.543449
20
-36.090561
30
-95.724678
11
-1.920539
21
-39.962448
31
-127.842392
12
-2.510724
22
14.949127
32
-125.046875
13
105.410126
23
18.023636
33
-93.286125
0
3DFACE
8
0
70
0
10
2.516669
20
28.141815
30
117.689201
11
109.028214
21
27.519073
31
81.343605
12
102.742165
22
28.162567
32
73.117523
13
2.248369
23
28.655014
33
105.415771
0
3DFACE
8
0
70
0
10
3.108598
20
-26.763802
30
114.892937
11
2.891775
21
-31.025436
31
102.376335
12
89.722038
22
-30.675400
32
70.420921
13
95.161537
23
-26.595131
33
78.905052
0
3DFACE
8
0
70
0
10
105.410126
20
18.023636
30
-93.286125
11
-2.510724
21
14.949127
31
-125.046875
12
-2.145854
22
17.194168
32
-109.422394
13
99.540321
23
19.759521
33
-81.422066
0
3DFACE
8
0
70
0
10
91.543449
20
-36.090561
30
-95.724678
11
86.520195
21
-39.078430
31
-84.118668
12
-1.558789
22
-42.705658
32
-112.433693
13
-1.920539
23
-39.962448
33
-127.842392
0
3DFACE
8
0
70
0
10
27.673773
20
-119.444244
30
102.617195
11
74.813721
21
-119.444244
31
102.617195
12
66.977409
22
-98.812729
32
87.801697
13
33.987896
23
-98.998032
33
87.801697
0
3DFACE
8
0
70
0
10
68.013603
20
-24.923500
30
55.764137
11
72.804222
21
-34.709488
31
35.774105
12
82.858788
22
-45.187042
32
-3.994160
13
82.649918
23
-27.982384
33
-4.295622
0
3DFACE
8
0
70
0
10
89.722038
20
-30.675400
30
70.420921
11
68.013603
21
-24.923500
31
55.764137
12
82.649918
22
-27.982384
32
-4.295622
13
109.366615
23
-34.511719
33
-5.213454
0
3DFACE
8
0
70
0
10
109.028214
20
27.519073
30
81.343605
11
95.161537
21
-26.595131
31
78.905052
12
115.957603
22
-30.873337
32
-5.173793
13
133.203506
23
23.280975
33
-2.807437
0
3DFACE
8
0
70
0
10
133.203506
20
23.280975
30
-2.807437
11
125.567078
21
24.363998
31
-2.584797
12
102.742165
22
28.162567
32
73.117523
13
109.028214
23
27.519073
33
81.343605
0
3DFACE
8
0
70
0
10
95.161537
20
-26.595131
30
78.905052
11
89.722038
21
-30.675400
31
70.420921
12
109.366615
22
-34.511719
32
-5.213454
13
115.957603
23
-30.873337
33
-5.173793
0
3DFACE
8
0
70
0
10
12.906889
20
-152.844193
30
102.617195
11
80.090286
21
-153.029510
31
102.617195
12
74.813721
22
-119.444244
32
102.617195
13
27.673773
23
-119.444244
33
102.617195
0
3DFACE
8
0
70
0
10
-1.690164
20
181.784241
30
5.099832
11
60.398445
21
161.087677
31
3.335121
12
52.830788
22
152.349792
32
-37.306091
13
-2.157690
23
161.033508
33
-46.070152
0
3DFACE
8
0
70
0
10
82.649918
20
-27.982384
30
-4.295622
11
82.858788
21
-45.187042
31
-3.994160
12
71.667343
22
-48.432007
32
-46.500389
13
65.483566
23
-31.563423
33
-66.350250
0
3DFACE
8
0
70
0
10
109.366615
20
-34.511719
30
-5.213454
11
82.649918
21
-27.982384
31
-4.295622
12
65.483566
22
-31.563423
32
-66.350250
13
86.520195
23
-39.078430
33
-84.118668
0
3DFACE
8
0
70
0
10
115.957603
20
-30.873337
30
-5.173793
11
91.543449
21
-36.090561
31
-95.724678
12
105.410126
22
18.023636
32
-93.286125
13
133.203506
23
23.280975
33
-2.807437
0
3DFACE
8
0
70
0
10
105.410126
20
18.023636
30
-93.286125
11
99.540321
21
19.759521
31
-81.422066
12
125.567078
22
24.363998
32
-2.584797
13
133.203506
23
23.280975
33
-2.807437
0
3DFACE
8
0
70
0
10
115.957603
20
-30.873337
30
-5.173793
11
109.366615
21
-34.511719
31
-5.213454
12
86.520195
22
-39.078430
32
-84.118668
13
91.543449
23
-36.090561
33
-95.724678
0
3DFACE
8
0
70
0
10
30.584528
20
-50.803833
30
22.894737
11
31.157173
21
-31.112625
31
58.540298
12
22.421413
22
-45.327736
32
-3.107666
13
22.367664
23
-55.994888
33
-3.634800
0
3DFACE
8
0
70
0
10
30.584528
20
-50.803833
30
22.894737
11
72.424370
21
-52.662399
31
12.827454
12
72.804222
22
-34.709488
32
35.774105
13
31.157173
23
-31.112625
33
58.540298
0
3DFACE
8
0
70
0
10
72.424370
20
-52.662399
30
12.827454
11
82.807678
21
-55.998322
31
-4.420178
12
82.858788
22
-45.187042
32
-3.994160
13
72.804222
23
-34.709488
33
35.774105
0
3DFACE
8
0
70
0
10
22.367664
20
-55.994888
30
-3.634800
11
22.421413
21
-45.327736
31
-3.107666
12
29.408125
22
-52.224197
32
-68.035851
13
29.926657
23
-61.410576
33
-31.517279
0
3DFACE
8
0
70
0
10
82.807678
20
-55.998322
30
-4.420178
11
71.996750
21
-59.556778
31
-22.540359
12
71.667343
22
-48.432007
32
-46.500389
13
82.858788
23
-45.187042
33
-3.994160
0
3DFACE
8
0
70
0
10
71.996750
20
-59.556778
30
-22.540359
11
29.926657
21
-61.410576
31
-31.517279
12
29.408125
22
-52.224197
32
-68.035851
13
71.667343
23
-48.432007
33
-46.500389
0
3DFACE
8
0
70
0
10
26.684536
20
-124.494606
30
-5.341151
11
27.673773
21
-127.827744
31
43.725594
12
33.987896
22
-108.736435
32
35.947453
13
34.059521
23
-95.667236
33
21.390184
0
3DFACE
8
0
70
0
10
34.059521
20
-95.667236
30
21.390184
11
33.987896
21
-108.736435
31
35.947453
12
66.977409
22
-112.334427
32
35.947453
13
68.317482
23
-102.338799
33
11.321651
0
3DFACE
8
0
70
0
10
76.571022
20
-124.747665
30
-5.841043
11
68.317482
21
-102.338799
31
11.321651
12
66.977409
22
-112.334427
32
35.947453
13
74.813721
23
-127.827744
33
43.725594
0
3DFACE
8
0
70
0
10
9.731874
20
-155.041214
30
-33.673782
11
16.610764
21
-150.617310
31
32.613968
12
27.673773
22
-127.827744
32
43.725594
13
26.684536
23
-124.494606
33
-5.341151
0
3DFACE
8
0
70
0
10
83.316254
20
-154.132965
30
-32.554268
11
76.571022
21
-124.747665
31
-5.841043
12
74.813721
22
-127.827744
32
43.725594
13
83.794151
23
-150.723206
33
36.317848
0
3DFACE
8
0
70
0
10
83.316254
20
-154.132965
30
-32.554268
11
83.794151
21
-150.723206
31
36.317848
12
16.610764
22
-150.617310
32
32.613968
13
9.731874
23
-155.041214
33
-33.673782
0
3DFACE
8
0
70
0
10
27.673773
20
-119.444244
30
102.617195
11
33.987896
21
-98.998032
31
87.801697
12
33.987896
22
-108.736435
32
35.947453
13
27.673773
23
-127.827744
33
43.725594
0
3DFACE
8
0
70
0
10
33.987896
20
-98.998032
30
87.801697
11
66.977409
21
-98.812729
31
87.801697
12
66.977409
22
-112.334427
32
35.947453
13
33.987896
23
-108.736435
33
35.947453
0
3DFACE
8
0
70
0
10
74.813721
20
-119.444244
30
102.617195
11
74.813721
21
-127.827744
31
43.725594
12
66.977409
22
-112.334427
32
35.947453
13
66.977409
23
-98.812729
33
87.801697
0
3DFACE
8
0
70
0
10
12.906889
20
-152.844193
30
102.617195
11
27.673773
21
-119.444244
31
102.617195
12
27.673773
22
-127.827744
32
43.725594
13
16.610764
23
-150.617310
33
32.613968
0
3DFACE
8
0
70
0
10
80.090286
20
-153.029510
30
102.617195
11
83.794151
21
-150.723206
31
36.317848
12
74.813721
22
-127.827744
32
43.725594
13
74.813721
23
-119.444244
33
102.617195
0
3DFACE
8
0
70
0
10
80.090286
20
-153.029510
30
102.617195
11
12.906889
21
-152.844193
31
102.617195
12
16.610764
22
-150.617310
32
32.613968
13
83.794151
23
-150.723206
33
36.317848
0
3DFACE
8
0
70
0
10
180.501480
20
335.469604
30
160.706284
11
195.425308
21
339.406738
31
143.125671
12
181.193222
22
354.787964
32
149.160583
13
163.954849
23
344.928925
33
157.402481
0
3DFACE
8
0
70
0
10
83.420158
20
139.343506
30
-29.845181
11
52.830788
21
152.349792
31
-37.306091
12
60.398445
22
161.087677
32
3.335121
13
60.398445
23
161.087677
33
3.335121
0
3DFACE
8
0
70
0
10
84.485924
20
150.140686
30
46.116924
11
60.398445
21
161.087677
31
3.335121
12
54.425488
22
134.096252
32
58.394878
13
54.425488
23
134.096252
33
58.394878
0
3DFACE
8
0
70
0
10
135.366470
20
243.762543
30
30.609438
11
180.496460
21
257.817230
31
19.288452
12
185.908997
22
272.036926
32
52.136471
13
139.163162
23
259.748260
33
62.776180
0
3DFACE
8
0
70
0
10
134.144119
20
291.722107
30
7.768906
11
135.366470
21
243.762543
31
30.609438
12
139.163162
22
259.748260
32
62.776180
13
135.959656
23
308.164948
33
39.918282
0
3DFACE
8
0
70
0
10
179.861786
20
313.849487
30
32.730198
11
176.778625
21
298.812286
31
0.036685
12
134.144119
22
291.722107
32
7.768906
13
135.959656
23
308.164948
33
39.918282
0
3DFACE
8
0
70
0
10
180.496460
20
257.817230
30
19.288452
11
176.778625
21
298.812286
31
0.036685
12
179.861786
22
313.849487
32
32.730198
13
185.908997
23
272.036926
33
52.136471
0
3DFACE
8
0
70
0
10
195.687805
20
266.145935
30
53.962502
11
201.560150
21
279.054749
31
85.051620
12
135.844284
22
265.844604
32
97.062584
13
132.210312
23
251.057587
33
67.644905
0
3DFACE
8
0
70
0
10
132.210312
20
251.057587
30
67.644905
11
135.844284
21
265.844604
31
97.062584
12
127.216339
22
331.200684
32
65.763100
13
126.108246
23
316.164520
33
37.089947
0
3DFACE
8
0
70
0
10
188.702850
20
336.110199
30
58.039459
11
185.932510
21
322.471222
31
27.984205
12
126.108246
22
316.164520
32
37.089947
13
127.216339
23
331.200684
33
65.763100
0
3DFACE
8
0
70
0
10
195.687805
20
266.145935
30
53.962502
11
185.932510
21
322.471222
31
27.984205
12
188.702850
22
336.110199
32
58.039459
13
201.560150
23
279.054749
33
85.051620
0
3DFACE
8
0
70
0
10
195.687805
20
266.145935
30
53.962502
11
132.210312
21
251.057587
31
67.644905
12
139.163162
22
259.748260
32
62.776180
13
185.908997
23
272.036926
33
52.136471
0
3DFACE
8
0
70
0
10
201.560150
20
279.054749
30
85.051620
11
191.006561
21
285.429138
31
83.072929
12
142.644547
22
274.406158
32
92.271187
13
135.844284
23
265.844604
33
97.062584
0
3DFACE
8
0
70
0
10
132.210312
20
251.057587
30
67.644905
11
126.108246
21
316.164520
31
37.089947
12
135.959656
22
308.164948
32
39.918282
13
139.163162
23
259.748260
33
62.776180
0
3DFACE
8
0
70
0
10
135.844284
20
265.844604
30
97.062584
11
142.644547
21
274.406158
31
92.271187
12
137.584625
22
322.881317
32
68.691994
13
127.216339
23
331.200684
33
65.763100
0
3DFACE
8
0
70
0
10
188.702850
20
336.110199
30
58.039459
11
127.216339
21
331.200684
31
65.763100
12
137.584625
22
322.881317
32
68.691994
13
182.688919
23
327.637665
33
62.708214
0
3DFACE
8
0
70
0
10
185.932510
20
322.471222
30
27.984205
11
179.861786
21
313.849487
31
32.730198
12
135.959656
22
308.164948
32
39.918282
13
126.108246
23
316.164520
33
37.089947
0
3DFACE
8
0
70
0
10
201.560150
20
279.054749
30
85.051620
11
188.702850
21
336.110199
31
58.039459
12
182.688919
22
327.637665
32
62.708214
13
191.006561
23
285.429138
33
83.072929
0
3DFACE
8
0
70
0
10
195.687805
20
266.145935
30
53.962502
11
185.908997
21
272.036926
31
52.136471
12
179.861786
22
313.849487
32
32.730198
13
185.932510
23
322.471222
33
27.984205
0
3DFACE
8
0
70
0
10
167.402695
20
282.829773
30
74.380959
11
140.590561
21
300.723389
31
68.497452
12
142.644547
22
274.406158
32
92.271187
13
191.006561
23
285.429138
33
83.072929
0
3DFACE
8
0
70
0
10
140.590561
20
300.723389
30
68.497452
11
167.163040
21
319.312988
31
54.699787
12
137.584625
22
322.881317
32
68.691994
13
142.644547
23
274.406158
33
92.271187
0
3DFACE
8
0
70
0
10
188.919220
20
300.723389
30
61.533207
11
182.688919
21
327.637665
31
62.708214
12
137.584625
22
322.881317
32
68.691994
13
167.163040
23
319.312988
33
54.699787
0
3DFACE
8
0
70
0
10
167.402695
20
282.829773
30
74.380959
11
191.006561
21
285.429138
31
83.072929
12
182.688919
22
327.637665
32
62.708214
13
188.919220
23
300.723389
33
61.533207
0
3DFACE
8
0
70
0
10
123.767784
20
311.304626
30
120.655846
11
122.646065
21
320.919678
31
115.466164
12
121.045799
22
315.592987
32
103.760796
13
122.052879
23
305.969299
33
108.947639
0
3DFACE
8
0
70
0
10
122.646065
20
320.919678
30
115.466164
11
122.274071
21
330.899994
31
110.030624
12
120.553116
22
325.580963
32
98.359795
13
121.045799
23
315.592987
33
103.760796
0
3DFACE
8
0
70
0
10
205.967117
20
315.153412
30
89.234924
11
188.919220
21
300.723389
31
61.533207
12
167.163040
22
319.312988
32
54.699787
13
175.251328
23
333.722351
33
83.649330
0
3DFACE
8
0
70
0
10
174.384796
20
297.283295
30
103.582153
11
167.402695
21
282.829773
31
74.380959
12
188.919220
22
300.723389
32
61.533207
13
205.967117
23
315.153412
33
89.234924
0
3DFACE
8
0
70
0
10
180.501480
20
335.469604
30
160.706284
11
163.954849
21
344.928925
31
157.402481
12
145.539566
22
322.516357
32
110.931831
13
174.384796
23
297.283295
33
103.582153
0
3DFACE
8
0
70
0
10
163.954849
20
344.928925
30
157.402481
11
181.193222
21
354.787964
31
149.160583
12
175.251328
22
333.722351
32
83.649330
13
145.539566
23
322.516357
33
110.931831
0
3DFACE
8
0
70
0
10
195.425308
20
339.406738
30
143.125671
11
205.967117
21
315.153412
31
89.234924
12
175.251328
22
333.722351
32
83.649330
13
181.193222
23
354.787964
33
149.160583
0
3DFACE
8
0
70
0
10
180.501480
20
335.469604
30
160.706284
11
174.384796
21
297.283295
31
103.582153
12
205.967117
22
315.153412
32
89.234924
13
195.425308
23
339.406738
33
143.125671
0
3DFACE
8
0
70
0
10
123.767784
20
311.304626
30
120.655846
11
122.052879
21
305.969299
31
108.947639
12
167.402695
22
282.829773
32
74.380959
13
174.384796
23
297.283295
33
103.582153
0
3DFACE
8
0
70
0
10
122.052879
20
305.969299
30
108.947639
11
121.045799
21
315.592987
31
103.760796
12
140.590561
22
300.723389
32
68.497452
13
167.402695
23
282.829773
33
74.380959
0
3DFACE
8
0
70
0
10
123.767784
20
311.304626
30
120.655846
11
174.384796
21
297.283295
31
103.582153
12
145.539566
22
322.516357
32
110.931831
13
122.646065
23
320.919678
33
115.466164
0
3DFACE
8
0
70
0
10
121.045799
20
315.592987
30
103.760796
11
120.553116
21
325.580963
31
98.359795
12
167.163040
22
319.312988
32
54.699787
13
140.590561
23
300.723389
33
68.497452
0
3DFACE
8
0
70
0
10
122.274071
20
330.899994
30
110.030624
11
175.251328
21
333.722351
31
83.649330
12
167.163040
22
319.312988
32
54.699787
13
120.553116
23
325.580963
33
98.359795
0
3DFACE
8
0
70
0
10
122.646065
20
320.919678
30
115.466164
11
145.539566
21
322.516357
31
110.931831
12
175.251328
22
333.722351
32
83.649330
13
122.274071
23
330.899994
33
110.030624
0
3DFACE
8
0
70
0
10
2.379158
20
-25.269615
30
81.579590
11
-64.287521
21
-26.493759
31
58.590614
12
-72.327141
22
-35.373047
32
37.940010
13
-30.686699
23
-33.475845
33
60.752804
0
3DFACE
8
0
70
0
10
-66.817558
20
-33.133682
30
-63.523769
11
-1.194283
21
-34.647881
31
-90.895447
12
-29.246355
22
-54.221855
32
-65.774788
13
-71.390915
23
-48.857956
33
-44.302921
0
3DFACE
8
0
70
0
10
2.891775
20
-31.025436
30
102.376335
11
-85.207703
21
-32.751617
31
74.158119
12
-64.287521
22
-26.493759
32
58.590614
13
2.379158
23
-25.269615
33
81.579590
0
3DFACE
8
0
70
0
10
-88.409546
20
-41.154648
30
-80.381470
11
-1.558789
21
-42.705658
31
-112.433693
12
-1.194283
22
-34.647881
32
-90.895447
13
-66.817558
23
-33.133682
33
-63.523769
0
3DFACE
8
0
70
0
10
3.108598
20
-26.763802
30
114.892937
11
2.516669
21
28.141815
31
117.689201
12
-105.404984
22
24.973984
32
85.924751
13
-90.375206
23
-28.797241
33
82.868858
0
3DFACE
8
0
70
0
10
-93.993294
20
-38.292664
30
-91.760872
11
-109.023071
21
15.478561
31
-88.704979
12
-2.510724
22
14.949127
32
-125.046875
13
-1.920539
23
-39.962448
33
-127.842392
0
3DFACE
8
0
70
0
10
2.516669
20
28.141815
30
117.689201
11
2.248369
21
28.655014
31
105.415771
12
-99.492981
22
25.762268
32
77.438072
13
-105.404984
23
24.973984
33
85.924751
0
3DFACE
8
0
70
0
10
3.108598
20
-26.763802
30
114.892937
11
-90.375206
21
-28.797241
31
82.868858
12
-85.207703
22
-32.751617
32
74.158119
13
2.891775
23
-31.025436
33
102.376335
0
3DFACE
8
0
70
0
10
-109.023071
20
15.478561
30
-88.704979
11
-102.694824
21
17.359222
31
-77.101517
12
-2.145854
22
17.194168
32
-109.422394
13
-2.510724
23
14.949127
33
-125.046875
0
3DFACE
8
0
70
0
10
-93.993294
20
-38.292664
30
-91.760872
11
-1.920539
21
-39.962448
31
-127.842392
12
-1.558789
22
-42.705658
32
-112.433693
13
-88.409546
23
-41.154648
33
-80.381470
0
3DFACE
8
0
70
0
10
-31.473774
20
-119.444244
30
102.617195
11
-37.787899
21
-98.998032
31
87.801697
12
-70.777412
22
-98.812729
32
87.801697
13
-78.613716
23
-119.444244
33
102.617195
0
3DFACE
8
0
70
0
10
-64.287521
20
-26.493759
30
58.590614
11
-81.398491
21
-29.929451
31
-0.790894
12
-82.594963
22
-45.318642
32
-1.840693
13
-72.327141
23
-35.373047
33
37.940010
0
3DFACE
8
0
70
0
10
-85.207703
20
-32.751617
30
74.158119
11
-107.967590
21
-37.091225
31
-0.570330
12
-81.398491
22
-29.929451
32
-0.790894
13
-64.287521
23
-26.493759
33
58.590614
0
3DFACE
8
0
70
0
10
-105.404984
20
24.973984
30
85.924751
11
-133.044327
21
20.120911
31
2.880677
12
-114.635323
22
-33.610214
32
-0.247410
13
-90.375206
23
-28.797241
33
82.868858
0
3DFACE
8
0
70
0
10
-133.044327
20
20.120911
30
2.880677
11
-105.404984
21
24.973984
31
85.924751
12
-99.492981
22
25.762268
32
77.438072
13
-125.433189
23
21.384903
33
2.777568
0
3DFACE
8
0
70
0
10
-90.375206
20
-28.797241
30
82.868858
11
-114.635323
21
-33.610214
31
-0.247410
12
-107.967590
22
-37.091225
32
-0.570330
13
-85.207703
23
-32.751617
33
74.158119
0
3DFACE
8
0
70
0
10
-16.706890
20
-152.844193
30
102.617195
11
-31.473774
21
-119.444244
31
102.617195
12
-78.613716
22
-119.444244
32
102.617195
13
-83.890282
23
-153.029510
33
102.617195
0
3DFACE
8
0
70
0
10
-1.690164
20
181.784241
30
5.099832
11
-2.157690
21
161.033508
31
-46.070152
12
-56.962650
22
151.412903
32
-35.619698
13
-62.657181
23
162.108978
33
3.929921
0
3DFACE
8
0
70
0
10
-81.398491
20
-29.929451
30
-0.790894
11
-66.817558
21
-33.133682
31
-63.523769
12
-71.390915
22
-48.857956
32
-44.302921
13
-82.594963
23
-45.318642
33
-1.840693
0
3DFACE
8
0
70
0
10
-107.967590
20
-37.091225
30
-0.570330
11
-88.409546
21
-41.154648
31
-80.381470
12
-66.817558
22
-33.133682
32
-63.523769
13
-81.398491
23
-29.929451
33
-0.790894
0
3DFACE
8
0
70
0
10
-114.635323
20
-33.610214
30
-0.247410
11
-133.044327
21
20.120911
31
2.880677
12
-109.023071
22
15.478561
32
-88.704979
13
-93.993294
23
-38.292664
33
-91.760872
0
3DFACE
8
0
70
0
10
-109.023071
20
15.478561
30
-88.704979
11
-133.044327
21
20.120911
31
2.880677
12
-125.433189
22
21.384903
32
2.777568
13
-102.694824
23
17.359222
33
-77.101517
0
3DFACE
8
0
70
0
10
-114.635323
20
-33.610214
30
-0.247410
11
-93.993294
21
-38.292664
31
-91.760872
12
-88.409546
22
-41.154648
32
-80.381470
13
-107.967590
23
-37.091225
33
-0.570330
0
3DFACE
8
0
70
0
10
-31.700169
20
-53.082207
30
25.538498
11
-23.232014
21
-58.886673
31
-0.853006
12
-22.244925
22
-47.815697
32
-0.874828
13
-30.686699
23
-33.475845
33
60.752804
0
3DFACE
8
0
70
0
10
-31.700169
20
-53.082207
30
25.538498
11
-30.686699
21
-33.475845
31
60.752804
12
-72.327141
22
-35.373047
32
37.940010
13
-73.364532
23
-52.513802
33
14.829519
0
3DFACE
8
0
70
0
10
-73.364532
20
-52.513802
30
14.829519
11
-72.327141
21
-35.373047
31
37.940010
12
-82.594963
22
-45.318642
32
-1.840693
13
-83.556458
23
-55.318199
33
-2.571145
0
3DFACE
8
0
70
0
10
-23.232014
20
-58.886673
30
-0.853006
11
-30.498047
21
-63.988953
31
-28.840433
12
-29.246355
22
-54.221855
32
-65.774788
13
-22.244925
23
-47.815697
33
-0.874828
0
3DFACE
8
0
70
0
10
-83.556458
20
-55.318199
30
-2.571145
11
-82.594963
21
-45.318642
31
-1.840693
12
-71.390915
22
-48.857956
32
-44.302921
13
-72.583153
23
-59.603188
33
-20.516787
0
3DFACE
8
0
70
0
10
-72.583153
20
-59.603188
30
-20.516787
11
-71.390915
21
-48.857956
31
-44.302921
12
-29.246355
22
-54.221855
32
-65.774788
13
-30.498047
23
-63.988953
33
-28.840433
0
3DFACE
8
0
70
0
10
-30.436769
20
-125.612144
30
-5.103789
11
-37.290447
21
-97.699379
31
22.660387
12
-37.787899
22
-108.736435
32
35.947453
13
-31.473774
23
-127.827744
33
43.725594
0
3DFACE
8
0
70
0
10
-37.290447
20
-97.699379
30
22.660387
11
-71.575539
21
-102.614754
31
11.943130
12
-70.777412
22
-112.334427
32
35.947453
13
-37.787899
23
-108.736435
33
35.947453
0
3DFACE
8
0
70
0
10
-80.278969
20
-123.958412
30
-6.206989
11
-78.613716
21
-127.827744
31
43.725594
12
-70.777412
22
-112.334427
32
35.947453
13
-71.575539
23
-102.614754
33
11.943130
0
3DFACE
8
0
70
0
10
-14.044564
20
-155.534286
30
-34.421875
11
-30.436769
21
-125.612144
31
-5.103789
12
-31.473774
22
-127.827744
32
43.725594
13
-20.410763
23
-150.617310
33
32.613968
0
3DFACE
8
0
70
0
10
-87.551308
20
-151.898605
30
-34.145729
11
-87.594154
21
-150.723206
31
36.317848
12
-78.613716
22
-127.827744
32
43.725594
13
-80.278969
23
-123.958412
33
-6.206989
0
3DFACE
8
0
70
0
10
-87.551308
20
-151.898605
30
-34.145729
11
-14.044564
21
-155.534286
31
-34.421875
12
-20.410763
22
-150.617310
32
32.613968
13
-87.594154
23
-150.723206
33
36.317848
0
3DFACE
8
0
70
0
10
-31.473774
20
-119.444244
30
102.617195
11
-31.473774
21
-127.827744
31
43.725594
12
-37.787899
22
-108.736435
32
35.947453
13
-37.787899
23
-98.998032
33
87.801697
0
3DFACE
8
0
70
0
10
-37.787899
20
-98.998032
30
87.801697
11
-37.787899
21
-108.736435
31
35.947453
12
-70.777412
22
-112.334427
32
35.947453
13
-70.777412
23
-98.812729
33
87.801697
0
3DFACE
8
0
70
0
10
-78.613716
20
-119.444244
30
102.617195
11
-70.777412
21
-98.812729
31
87.801697
12
-70.777412
22
-112.334427
32
35.947453
13
-78.613716
23
-127.827744
33
43.725594
0
3DFACE
8
0
70
0
10
-16.706890
20
-152.844193
30
102.617195
11
-20.410763
21
-150.617310
31
32.613968
12
-31.473774
22
-127.827744
32
43.725594
13
-31.473774
23
-119.444244
33
102.617195
0
3DFACE
8
0
70
0
10
-83.890282
20
-153.029510
30
102.617195
11
-78.613716
21
-119.444244
31
102.617195
12
-78.613716
22
-127.827744
32
43.725594
13
-87.594154
23
-150.723206
33
36.317848
0
3DFACE
8
0
70
0
10
-83.890282
20
-153.029510
30
102.617195
11
-87.594154
21
-150.723206
31
36.317848
12
-20.410763
22
-150.617310
32
32.613968
13
-16.706890
23
-152.844193
33
102.617195
0
3DFACE
8
0
70
0
10
-149.994629
20
370.247498
30
139.060928
11
-137.035980
21
377.549255
31
126.693947
12
-156.944656
22
385.049744
32
123.582817
13
-170.945740
23
369.136658
33
128.711212
0
3DFACE
8
0
70
0
10
-86.447876
20
137.316101
30
-26.713858
11
-62.657181
21
162.108978
31
3.929921
12
-56.962650
22
151.412903
32
-35.619698
13
-56.962650
23
151.412903
33
-35.619698
0
3DFACE
8
0
70
0
10
-84.144753
20
151.482117
30
47.939026
11
-55.098850
21
133.084106
31
60.216789
12
-62.657181
22
162.108978
32
3.929921
13
-62.657181
23
162.108978
33
3.929921
0
3DFACE
8
0
70
0
10
-144.702927
20
242.011322
30
32.238754
11
-147.970795
21
263.051056
31
61.415962
12
-197.170364
22
264.187439
32
56.171822
13
-192.783432
23
245.011169
33
25.782476
0
3DFACE
8
0
70
0
10
-156.233551
20
283.913391
30
1.668077
11
-157.675888
21
305.754303
31
30.445511
12
-147.970795
22
263.051056
32
61.415962
13
-144.702927
23
242.011322
33
32.238754
0
3DFACE
8
0
70
0
10
-202.327728
20
301.735138
30
29.245333
11
-157.675888
21
305.754303
31
30.445511
12
-156.233551
22
283.913391
32
1.668077
13
-200.012863
23
281.373627
33
-0.495893
0
3DFACE
8
0
70
0
10
-192.783432
20
245.011169
30
25.782476
11
-197.170364
21
264.187439
31
56.171822
12
-202.327728
22
301.735138
32
29.245333
13
-200.012863
23
281.373627
33
-0.495893
0
3DFACE
8
0
70
0
10
-205.216141
20
257.076263
30
60.456604
11
-138.831085
21
256.921631
31
66.560898
12
-142.011780
22
276.294769
32
93.240974
13
-209.980835
23
274.558746
33
89.427551
0
3DFACE
8
0
70
0
10
-138.831085
20
256.921631
30
66.560898
11
-150.118530
21
314.711578
31
24.815599
12
-150.986450
22
334.642395
32
50.339584
13
-142.011780
23
276.294769
33
93.240974
0
3DFACE
8
0
70
0
10
-212.609482
20
326.536896
30
51.458405
11
-150.986450
21
334.642395
31
50.339584
12
-150.118530
22
314.711578
32
24.815599
13
-210.582260
23
307.984619
33
24.095667
0
3DFACE
8
0
70
0
10
-205.216141
20
257.076263
30
60.456604
11
-209.980835
21
274.558746
31
89.427551
12
-212.609482
22
326.536896
32
51.458405
13
-210.582260
23
307.984619
33
24.095667
0
3DFACE
8
0
70
0
10
-205.216141
20
257.076263
30
60.456604
11
-197.170364
21
264.187439
31
56.171822
12
-147.970795
22
263.051056
32
61.415962
13
-138.831085
23
256.921631
33
66.560898
0
3DFACE
8
0
70
0
10
-209.980835
20
274.558746
30
89.427551
11
-142.011780
21
276.294769
31
93.240974
12
-150.967270
22
282.343170
32
88.169739
13
-201.302002
23
282.247833
33
84.792671
0
3DFACE
8
0
70
0
10
-138.831085
20
256.921631
30
66.560898
11
-147.970795
21
263.051056
31
61.415962
12
-157.675888
22
305.754303
32
30.445511
13
-150.118530
23
314.711578
33
24.815599
0
3DFACE
8
0
70
0
10
-142.011780
20
276.294769
30
93.240974
11
-150.986450
21
334.642395
31
50.339584
12
-158.966858
22
325.301910
32
56.201344
13
-150.967270
23
282.343170
33
88.169739
0
3DFACE
8
0
70
0
10
-212.609482
20
326.536896
30
51.458405
11
-204.450378
21
320.405396
31
56.516277
12
-158.966858
22
325.301910
32
56.201344
13
-150.986450
23
334.642395
33
50.339584
0
3DFACE
8
0
70
0
10
-210.582260
20
307.984619
30
24.095667
11
-150.118530
21
314.711578
31
24.815599
12
-157.675888
22
305.754303
32
30.445511
13
-202.327728
23
301.735138
33
29.245333
0
3DFACE
8
0
70
0
10
-209.980835
20
274.558746
30
89.427551
11
-201.302002
21
282.247833
31
84.792671
12
-204.450378
22
320.405396
32
56.516277
13
-212.609482
23
326.536896
33
51.458405
0
3DFACE
8
0
70
0
10
-205.216141
20
257.076263
30
60.456604
11
-210.582260
21
307.984619
31
24.095667
12
-202.327728
22
301.735138
32
29.245333
13
-197.170364
23
264.187439
33
56.171822
0
3DFACE
8
0
70
0
10
-176.279633
20
290.243469
30
73.258308
11
-201.302002
21
282.247833
31
84.792671
12
-150.967270
22
282.343170
32
88.169739
13
-151.695572
23
299.267181
33
59.964653
0
3DFACE
8
0
70
0
10
-151.695572
20
299.267181
30
59.964653
11
-150.967270
21
282.343170
31
88.169739
12
-158.966858
22
325.301910
32
56.201344
13
-174.809784
23
318.085297
33
48.467415
0
3DFACE
8
0
70
0
10
-194.923264
20
307.615692
30
61.893623
11
-174.809784
21
318.085297
31
48.467415
12
-158.966858
22
325.301910
32
56.201344
13
-204.450378
23
320.405396
33
56.516277
0
3DFACE
8
0
70
0
10
-176.279633
20
290.243469
30
73.258308
11
-194.923264
21
307.615692
31
61.893623
12
-204.450378
22
320.405396
32
56.516277
13
-201.302002
23
282.247833
33
84.792671
0
3DFACE
8
0
70
0
10
-111.797531
20
332.618378
30
88.744667
11
-114.378525
21
323.854187
31
79.524231
12
-116.381981
22
331.349121
32
71.756004
13
-113.696564
23
340.099640
33
80.930252
0
3DFACE
8
0
70
0
10
-113.696564
20
340.099640
30
80.930252
11
-116.381981
21
331.349121
31
71.756004
12
-118.973289
22
339.144287
32
63.901482
13
-116.411140
23
347.881653
33
73.096916
0
3DFACE
8
0
70
0
10
-199.701859
20
329.821747
30
93.625824
11
-175.521454
21
344.504608
31
70.840172
12
-174.809784
22
318.085297
32
48.467415
13
-194.923264
23
307.615692
33
61.893623
0
3DFACE
8
0
70
0
10
-163.542511
20
316.029938
30
98.617355
11
-199.701859
21
329.821747
31
93.625824
12
-194.923264
22
307.615692
32
61.893623
13
-176.279633
23
290.243469
33
73.258308
0
3DFACE
8
0
70
0
10
-149.994629
20
370.247498
30
139.060928
11
-163.542511
21
316.029938
31
98.617355
12
-136.558365
22
341.125641
32
85.778625
13
-137.035980
23
377.549255
33
126.693947
0
3DFACE
8
0
70
0
10
-137.035980
20
377.549255
30
126.693947
11
-136.558365
21
341.125641
31
85.778625
12
-175.521454
22
344.504608
32
70.840172
13
-156.944656
23
385.049744
33
123.582817
0
3DFACE
8
0
70
0
10
-170.945740
20
369.136658
30
128.711212
11
-156.944656
21
385.049744
31
123.582817
12
-175.521454
22
344.504608
32
70.840172
13
-199.701859
23
329.821747
33
93.625824
0
3DFACE
8
0
70
0
10
-149.994629
20
370.247498
30
139.060928
11
-170.945740
21
369.136658
31
128.711212
12
-199.701859
22
329.821747
32
93.625824
13
-163.542511
23
316.029938
33
98.617355
0
3DFACE
8
0
70
0
10
-111.797531
20
332.618378
30
88.744667
11
-163.542511
21
316.029938
31
98.617355
12
-176.279633
22
290.243469
32
73.258308
13
-114.378525
23
323.854187
33
79.524231
0
3DFACE
8
0
70
0
10
-114.378525
20
323.854187
30
79.524231
11
-176.279633
21
290.243469
31
73.258308
12
-151.695572
22
299.267181
32
59.964653
13
-116.381981
23
331.349121
33
71.756004
0
3DFACE
8
0
70
0
10
-111.797531
20
332.618378
30
88.744667
11
-113.696564
21
340.099640
31
80.930252
12
-136.558365
22
341.125641
32
85.778625
13
-163.542511
23
316.029938
33
98.617355
0
3DFACE
8
0
70
0
10
-116.381981
20
331.349121
30
71.756004
11
-151.695572
21
299.267181
31
59.964653
12
-174.809784
22
318.085297
32
48.467415
13
-118.973289
23
339.144287
33
63.901482
0
3DFACE
8
0
70
0
10
-116.411140
20
347.881653
30
73.096916
11
-118.973289
21
339.144287
31
63.901482
12
-174.809784
22
318.085297
32
48.467415
13
-175.521454
23
344.504608
33
70.840172
0
3DFACE
8
0
70
0
10
-113.696564
20
340.099640
30
80.930252
11
-116.411140
21
347.881653
31
73.096916
12
-175.521454
22
344.504608
32
70.840172
13
-136.558365
23
341.125641
33
85.778625
0
3DFACE
8
0
70
0
10
22.421413
20
-45.327736
30
-3.107666
11
31.157173
21
-31.112625
31
58.540298
12
2.379158
22
-25.269615
32
81.579590
13
0.627534
23
-29.866638
33
-2.963951
0
3DFACE
8
0
70
0
10
22.421413
20
-45.327736
30
-3.107666
11
0.627534
21
-29.866638
31
-2.963951
12
-1.194283
22
-34.647881
32
-90.895447
13
29.408125
23
-52.224197
33
-68.035851
0
3DFACE
8
0
70
0
10
-1.194283
20
-34.647881
30
-90.895447
11
0.627534
21
-29.866638
31
-2.963951
12
-22.244925
22
-47.815697
32
-0.874828
13
-29.246355
23
-54.221855
33
-65.774788
0
3DFACE
8
0
70
0
10
0.627534
20
-29.866638
30
-2.963951
11
2.379158
21
-25.269615
31
81.579590
12
-30.686699
22
-33.475845
32
60.752804
13
-22.244925
23
-47.815697
33
-0.874828
0
3DFACE
8
0
70
0
10
-1.269283
20
180.269836
30
122.611298
11
8.989106
21
181.051147
31
117.381271
12
17.961309
22
199.031921
32
122.216965
13
-1.736182
23
198.715088
33
128.666168
0
3DFACE
8
0
70
0
10
-1.736182
20
198.715088
30
128.666168
11
17.961309
21
199.031921
31
122.216965
12
10.670529
22
207.414490
32
121.019630
13
-2.035204
23
210.528198
33
124.536148
0
3DFACE
8
0
70
0
10
8.989106
20
181.051147
30
117.381271
11
10.005990
21
177.757080
31
104.511536
12
21.023968
22
196.629028
32
104.760262
13
17.961309
23
199.031921
33
122.216965
0
3DFACE
8
0
70
0
10
-1.269283
20
180.269836
30
122.611298
11
-1.386266
21
174.680481
31
110.431030
12
10.005990
22
177.757080
32
104.511536
13
8.989106
23
181.051147
33
117.381271
0
3DFACE
8
0
70
0
10
-2.035204
20
210.528198
30
124.536148
11
10.670529
21
207.414490
31
121.019630
12
12.567145
22
208.339783
32
104.835991
13
-2.328584
23
211.907593
33
110.144318
0
3DFACE
8
0
70
0
10
17.961309
20
199.031921
30
122.216965
11
21.023968
21
196.629028
31
104.760262
12
12.567145
22
208.339783
32
104.835991
13
10.670529
23
207.414490
33
121.019630
0
3DFACE
8
0
70
0
10
1.468328
20
221.490662
30
106.276031
11
1.708838
21
211.989105
31
107.318275
12
12.794195
22
209.920715
32
102.009949
13
13.619617
23
229.358154
33
104.268639
0
3DFACE
8
0
70
0
10
12.794195
20
209.920715
30
102.009949
11
22.328253
21
211.158386
31
95.723228
12
25.726297
22
222.108093
32
92.150620
13
13.619617
23
229.358154
33
104.268639
0
3DFACE
8
0
70
0
10
11.986530
20
159.761169
30
123.670204
11
7.546623
21
178.632629
31
112.725739
12
-1.444740
22
176.990540
32
115.474304
13
-0.995147
23
159.229004
33
124.353912
0
3DFACE
8
0
70
0
10
49.473351
20
177.552917
30
78.126740
11
47.591545
21
188.438660
31
77.948036
12
24.562134
22
180.746765
32
98.608398
13
32.245468
23
158.107971
33
104.917747
0
3DFACE
8
0
70
0
10
7.546623
20
178.632629
30
112.725739
11
11.986530
21
159.761169
31
123.670204
12
30.138868
22
162.412659
32
115.002640
13
22.232651
23
179.266724
33
112.608627
0
3DFACE
8
0
70
0
10
43.254414
20
220.079071
30
78.249641
11
55.348858
21
223.041931
31
77.739914
12
30.146980
22
227.334900
32
96.802124
13
29.937788
23
224.031647
33
94.976685
0
3DFACE
8
0
70
0
10
-2.662122
20
225.084259
30
112.074959
11
-2.614509
21
223.203247
31
109.102097
12
13.067791
22
231.127655
32
107.094673
13
14.579945
23
233.381165
33
108.592934
0
3DFACE
8
0
70
0
10
14.579945
20
233.381165
30
108.592934
11
13.067791
21
231.127655
31
107.094673
12
29.937788
22
224.031647
32
94.976685
13
30.146980
23
227.334900
33
96.802124
0
3DFACE
8
0
70
0
10
-0.322234
20
132.644958
30
122.178642
11
16.635994
21
141.422363
31
115.812431
12
13.223145
22
150.490417
32
113.764580
13
-0.689914
23
147.170502
33
119.235947
0
3DFACE
8
0
70
0
10
0.769817
20
89.502594
30
101.101166
11
20.806589
21
102.530945
31
97.859222
12
16.635994
22
141.422363
32
115.812431
13
-0.322234
23
132.644958
33
122.178642
0
3DFACE
8
0
70
0
10
49.473351
20
177.552917
30
78.126740
11
32.245468
21
158.107971
31
104.917747
12
31.644041
22
154.869995
32
95.906563
13
53.480267
23
166.392639
33
81.297020
0
3DFACE
8
0
70
0
10
31.644041
20
154.869995
30
95.906563
11
43.672882
21
129.119629
31
66.107307
12
52.997505
22
159.012604
32
50.112881
13
53.480267
23
166.392639
33
81.297020
0
3DFACE
8
0
70
0
10
20.806589
20
102.530945
30
97.859222
11
43.672882
21
129.119629
31
66.107307
12
31.644041
22
154.869995
32
95.906563
13
16.635994
23
141.422363
33
115.812431
0
3DFACE
8
0
70
0
10
16.635994
20
141.422363
30
115.812431
11
31.644041
21
154.869995
31
95.906563
12
32.245468
22
158.107971
32
104.917747
13
13.223145
23
150.490417
33
113.764580
0
3DFACE
8
0
70
0
10
-0.995147
20
159.229004
30
124.353912
11
-0.689914
21
147.170502
31
119.235947
12
13.223145
22
150.490417
32
113.764580
13
11.986530
23
159.761169
33
123.670204
0
3DFACE
8
0
70
0
10
-1.444740
20
176.990540
30
115.474304
11
7.546623
21
178.632629
31
112.725739
12
10.005990
22
177.757080
32
104.511536
13
-1.386266
23
174.680481
33
110.431030
0
3DFACE
8
0
70
0
10
22.232651
20
179.266724
30
112.608627
11
24.562134
21
180.746765
31
98.608398
12
10.005990
22
177.757080
32
104.511536
13
7.546623
23
178.632629
33
112.725739
0
POINT
8
0
70
0
10
51.367256
20
161.654297
30
96.495125
0
3DFACE
8
0
70
0
10
11.986530
20
159.761169
30
123.670204
11
13.223145
21
150.490417
31
113.764580
12
32.245468
22
158.107971
32
104.917747
13
30.138868
23
162.412659
33
115.002640
0
3DFACE
8
0
70
0
10
30.138868
20
162.412659
30
115.002640
11
51.367256
21
161.654297
31
96.495125
12
22.232651
22
179.266724
32
112.608627
13
22.232651
23
179.266724
33
112.608627
0
3DFACE
8
0
70
0
10
22.232651
20
179.266724
30
112.608627
11
51.367256
21
161.654297
31
96.495125
12
24.562134
22
180.746765
32
98.608398
13
24.562134
23
180.746765
33
98.608398
0
3DFACE
8
0
70
0
10
51.367256
20
161.654297
30
96.495125
11
32.245468
21
158.107971
31
104.917747
12
24.562134
22
180.746765
32
98.608398
13
24.562134
23
180.746765
33
98.608398
0
3DFACE
8
0
70
0
10
32.245468
20
158.107971
30
104.917747
11
51.367256
21
161.654297
31
96.495125
12
30.138868
22
162.412659
32
115.002640
13
30.138868
23
162.412659
33
115.002640
0
3DFACE
8
0
70
0
10
55.348858
20
223.041931
30
77.739914
11
43.254414
21
220.079071
31
78.249641
12
56.747341
22
217.898163
32
41.261280
13
60.000866
23
219.994904
33
40.018829
0
3DFACE
8
0
70
0
10
43.254414
20
220.079071
30
78.249641
11
41.513000
21
210.914612
31
78.655991
12
58.438820
22
210.526642
32
42.462151
13
56.747341
23
217.898163
33
41.261280
0
3DFACE
8
0
70
0
10
41.513000
20
210.914612
30
78.655991
11
44.285465
21
197.881409
31
78.504814
12
58.794464
22
197.337463
32
44.641083
13
58.438820
23
210.526642
33
42.462151
0
3DFACE
8
0
70
0
10
60.000866
20
219.994904
30
40.018829
11
56.747341
21
217.898163
31
41.261280
12
40.008999
22
215.636780
32
14.896184
13
42.566147
23
216.814331
33
13.866787
0
3DFACE
8
0
70
0
10
58.438820
20
210.526642
30
42.462151
11
42.368576
21
213.800415
31
12.672510
12
40.008999
22
215.636780
32
14.896184
13
56.747341
23
217.898163
33
41.261280
0
3DFACE
8
0
70
0
10
58.794464
20
197.337463
30
44.641083
11
39.920673
21
202.037659
31
11.188781
12
42.368576
22
213.800415
32
12.672510
13
58.438820
23
210.526642
33
42.462151
0
3DFACE
8
0
70
0
10
42.566147
20
216.814331
30
13.866787
11
40.008999
21
215.636780
31
14.896184
12
-2.397654
22
214.636230
32
-2.275020
13
-2.416719
23
215.389404
33
-5.901319
0
3DFACE
8
0
70
0
10
42.368576
20
213.800415
30
12.672510
11
-2.345969
21
212.594360
31
-2.405132
12
-2.397654
22
214.636230
32
-2.275020
13
40.008999
23
215.636780
33
14.896184
0
3DFACE
8
0
70
0
10
39.920673
20
202.037659
30
11.188781
11
-1.994837
21
198.722595
31
-0.945824
12
-2.345969
22
212.594360
32
-2.405132
13
42.368576
23
213.800415
33
12.672510
0
3DFACE
8
0
70
0
10
52.997505
20
159.012604
30
50.112881
11
58.903675
21
175.779053
31
46.003769
12
49.473351
22
177.552917
32
78.126740
13
53.480267
23
166.392639
33
81.297020
0
3DFACE
8
0
70
0
10
44.285465
20
197.881409
30
78.504814
11
47.591545
21
188.438660
31
77.948036
12
58.794464
22
197.337463
32
44.641083
13
58.794464
23
197.337463
33
44.641083
0
3DFACE
8
0
70
0
10
49.473351
20
177.552917
30
78.126740
11
58.903675
21
175.779053
31
46.003769
12
58.794464
22
197.337463
32
44.641083
13
47.591545
23
188.438660
33
77.948036
0
3DFACE
8
0
70
0
10
58.903675
20
175.779053
30
46.003769
11
39.583378
21
184.035675
31
14.099627
12
39.920673
22
202.037659
32
11.188781
13
58.794464
23
197.337463
33
44.641083
0
3DFACE
8
0
70
0
10
39.583378
20
184.035675
30
14.099627
11
-1.555548
21
181.368103
31
3.485335
12
-1.994837
22
198.722595
32
-0.945824
13
39.920673
23
202.037659
33
11.188781
0
3DFACE
8
0
70
0
10
-2.662122
20
225.084259
30
112.074959
11
14.579945
21
233.381165
31
108.592934
12
15.966352
22
255.793610
32
106.255333
13
-3.394686
23
254.024811
33
112.282356
0
3DFACE
8
0
70
0
10
-3.394686
20
254.024811
30
112.282356
11
15.966352
21
255.793610
31
106.255333
12
16.287165
22
258.479004
32
101.565422
13
-3.486727
23
257.660980
33
108.993706
0
3DFACE
8
0
70
0
10
14.579945
20
233.381165
30
108.592934
11
30.146980
21
227.334900
31
96.802124
12
42.472233
22
255.553894
32
92.966484
13
15.966352
23
255.793610
33
106.255333
0
3DFACE
8
0
70
0
10
15.966352
20
255.793610
30
106.255333
11
42.472233
21
255.553894
31
92.966484
12
41.152573
22
258.592346
32
88.605896
13
16.287165
23
258.479004
33
101.565422
0
3DFACE
8
0
70
0
10
30.146980
20
227.334900
30
96.802124
11
55.348858
21
223.041931
31
77.739914
12
58.699890
22
250.590210
32
61.730480
13
42.472233
23
255.553894
33
92.966484
0
3DFACE
8
0
70
0
10
42.472233
20
255.553894
30
92.966484
11
58.699890
21
250.590210
31
61.730480
12
50.298508
22
254.542664
32
60.679428
13
41.152573
23
258.592346
33
88.605896
0
3DFACE
8
0
70
0
10
55.348858
20
223.041931
30
77.739914
11
60.000866
21
219.994904
31
40.018829
12
63.217922
22
250.950073
32
35.851646
13
58.699890
23
250.590210
33
61.730480
0
3DFACE
8
0
70
0
10
58.699890
20
250.590210
30
61.730480
11
63.217922
21
250.950073
31
35.851646
12
56.599339
22
253.401672
32
37.509758
13
50.298508
23
254.542664
33
60.679428
0
3DFACE
8
0
70
0
10
60.000866
20
219.994904
30
40.018829
11
42.566147
21
216.814331
31
13.866787
12
42.756779
22
244.665222
32
12.511164
13
63.217922
23
250.950073
33
35.851646
0
3DFACE
8
0
70
0
10
63.217922
20
250.950073
30
35.851646
11
42.756779
21
244.665222
31
12.511164
12
37.125195
22
248.658936
32
16.319864
13
56.599339
23
253.401672
33
37.509758
0
3DFACE
8
0
70
0
10
42.566147
20
216.814331
30
13.866787
11
-2.416719
21
215.389404
31
-5.901319
12
-3.068258
22
241.128998
32
-7.526243
13
42.756779
23
244.665222
33
12.511164
0
3DFACE
8
0
70
0
10
42.756779
20
244.665222
30
12.511164
11
-3.068258
21
241.128998
31
-7.526243
12
-3.159751
22
244.743530
32
-2.974264
13
37.125195
23
248.658936
33
16.319864
0
3DFACE
8
0
70
0
10
52.997505
20
159.012604
30
50.112881
11
36.563774
21
170.071838
31
31.581121
12
39.583378
22
184.035675
32
14.099627
13
58.903675
23
175.779053
33
46.003769
0
3DFACE
8
0
70
0
10
36.563774
20
170.071838
30
31.581121
11
-1.551556
21
182.526001
31
8.897332
12
-1.555548
22
181.368103
32
3.485335
13
39.583378
23
184.035675
33
14.099627
0
3DFACE
8
0
70
0
10
43.672882
20
129.119629
30
66.107307
11
30.917875
21
138.535431
31
59.717793
12
36.563774
22
170.071838
32
31.581121
13
52.997505
23
159.012604
33
50.112881
0
3DFACE
8
0
70
0
10
20.806589
20
102.530945
30
97.859222
11
18.370901
21
103.161804
31
81.952538
12
30.917875
22
138.535431
32
59.717793
13
43.672882
23
129.119629
33
66.107307
0
3DFACE
8
0
70
0
10
18.370901
20
103.161804
30
81.952538
11
0.476908
21
101.074188
31
77.656464
12
-0.080721
22
123.103821
32
56.009388
13
30.917875
23
138.535431
33
59.717793
0
3DFACE
8
0
70
0
10
0.769817
20
89.502594
30
101.101166
11
0.476908
21
101.074188
31
77.656464
12
18.370901
22
103.161804
32
81.952538
13
18.370901
23
103.161804
33
81.952538
0
3DFACE
8
0
70
0
10
0.769817
20
89.502594
30
101.101166
11
18.370901
21
103.161804
31
81.952538
12
20.806589
22
102.530945
32
97.859222
13
20.806589
23
102.530945
33
97.859222
0
3DFACE
8
0
70
0
10
-1.269283
20
180.269836
30
122.611298
11
-1.736182
21
198.715088
31
128.666168
12
-21.424479
22
198.034973
32
122.216965
13
-11.554063
23
180.531158
33
117.381271
0
3DFACE
8
0
70
0
10
-1.736182
20
198.715088
30
128.666168
11
-2.035204
21
210.528198
31
124.536148
12
-14.567134
22
206.775635
32
121.019630
13
-21.424479
23
198.034973
33
122.216965
0
3DFACE
8
0
70
0
10
-11.554063
20
180.531158
30
117.381271
11
-21.424479
21
198.034973
31
122.216965
12
-24.878241
22
195.467102
32
104.760262
13
-12.919588
23
177.176788
33
104.511536
0
3DFACE
8
0
70
0
10
-1.269283
20
180.269836
30
122.611298
11
-11.554063
21
180.531158
31
117.381271
12
-12.919588
22
177.176788
32
104.511536
13
-1.386266
23
174.680481
33
110.431030
0
3DFACE
8
0
70
0
10
-2.035204
20
210.528198
30
124.536148
11
-2.328584
21
211.907593
31
110.144318
12
-17.024734
22
207.590759
32
104.835991
13
-14.567134
23
206.775635
33
121.019630
0
3DFACE
8
0
70
0
10
-21.424479
20
198.034973
30
122.216965
11
-14.567134
21
206.775635
31
121.019630
12
-17.024734
22
207.590759
32
104.835991
13
-24.878241
23
195.467102
33
104.760262
0
3DFACE
8
0
70
0
10
-6.149461
20
221.178528
30
106.095718
11
-18.505293
21
229.240356
31
104.469688
12
-17.112959
22
209.776245
32
102.640160
13
-5.918752
23
212.064209
33
106.939919
0
3DFACE
8
0
70
0
10
-17.112959
20
209.776245
30
102.640160
11
-18.505293
21
229.240356
31
104.469688
12
-30.226835
22
220.572266
32
94.654114
13
-26.223185
23
210.480499
33
97.547935
0
3DFACE
8
0
70
0
10
-13.987123
20
159.103699
30
123.670204
11
-0.995147
21
159.229004
31
124.353912
12
-1.444740
22
176.990540
32
115.474304
13
-10.507664
23
178.175598
33
112.725739
0
3DFACE
8
0
70
0
10
-52.326069
20
174.976074
30
78.126740
11
-34.136478
21
156.427673
31
104.917747
12
-27.608347
22
179.426208
32
98.608398
13
-50.997417
23
185.943115
33
77.948036
0
3DFACE
8
0
70
0
10
-10.507664
20
178.175598
30
112.725739
11
-25.206964
21
178.065857
31
112.608627
12
-32.250362
22
160.833405
32
115.002640
13
-13.987123
23
159.103699
33
123.670204
0
3DFACE
8
0
70
0
10
-48.266624
20
217.762421
30
78.249641
11
-34.295269
21
222.405731
31
94.976685
12
-34.671314
22
225.694153
32
96.802116
13
-60.495472
23
220.109619
33
77.739914
0
3DFACE
8
0
70
0
10
-2.662122
20
225.084259
30
112.074959
11
-19.918711
21
233.315613
31
108.592934
12
-18.294485
22
231.141510
32
107.094673
13
-2.614509
23
223.203247
33
109.102097
0
3DFACE
8
0
70
0
10
-19.918711
20
233.315613
30
108.592934
11
-34.671314
21
225.694153
31
96.802116
12
-34.295269
22
222.405731
32
94.976685
13
-18.294485
23
231.141510
33
107.094673
0
3DFACE
8
0
70
0
10
-0.322234
20
132.644958
30
122.178642
11
-0.689914
21
147.170502
31
119.235947
12
-14.753121
22
149.782288
32
113.764580
13
-17.702822
23
140.553162
33
115.812431
0
3DFACE
8
0
70
0
10
0.769817
20
89.502594
30
101.101166
11
-0.322234
21
132.644958
31
122.178642
12
-17.702822
22
140.553162
32
115.812431
13
-19.900440
23
101.500534
33
97.859222
0
3DFACE
8
0
70
0
10
-52.326069
20
174.976074
30
78.126740
11
-55.763218
21
163.627411
31
81.297020
12
-33.372002
22
153.224243
32
95.906563
13
-34.136478
23
156.427673
33
104.917747
0
3DFACE
8
0
70
0
10
-33.372002
20
153.224243
30
95.906563
11
-55.763218
21
163.627411
31
81.297020
12
-54.907703
22
156.281250
32
50.112881
13
-44.082645
23
126.898285
33
66.107307
0
3DFACE
8
0
70
0
10
-19.900440
20
101.500534
30
97.859222
11
-17.702822
21
140.553162
31
115.812431
12
-33.372002
22
153.224243
32
95.906563
13
-44.082645
23
126.898285
33
66.107307
0
3DFACE
8
0
70
0
10
-17.702822
20
140.553162
30
115.812431
11
-14.753121
21
149.782288
31
113.764580
12
-34.136478
22
156.427673
32
104.917747
13
-33.372002
23
153.224243
33
95.906563
0
3DFACE
8
0
70
0
10
-0.995147
20
159.229004
30
124.353912
11
-13.987123
21
159.103699
31
123.670204
12
-14.753121
22
149.782288
32
113.764580
13
-0.689914
23
147.170502
33
119.235947
0
3DFACE
8
0
70
0
10
-1.444740
20
176.990540
30
115.474304
11
-1.386266
21
174.680481
31
110.431030
12
-12.919588
22
177.176788
32
104.511536
13
-10.507664
23
178.175598
33
112.725739
0
3DFACE
8
0
70
0
10
-25.206964
20
178.065857
30
112.608627
11
-10.507664
21
178.175598
31
112.725739
12
-12.919588
22
177.176788
32
104.511536
13
-27.608347
23
179.426208
33
98.608398
0
POINT
8
0
70
0
10
-52.606010
20
159.022461
30
96.495125
0
3DFACE
8
0
70
0
10
-13.987123
20
159.103699
30
123.670204
11
-32.250362
21
160.833405
31
115.002640
12
-34.136478
22
156.427673
32
104.917747
13
-14.753121
23
149.782288
33
113.764580
0
3DFACE
8
0
70
0
10
-32.250362
20
160.833405
30
115.002640
11
-25.206964
21
178.065857
31
112.608627
12
-52.606010
22
159.022461
32
96.495125
13
-52.606010
23
159.022461
33
96.495125
0
3DFACE
8
0
70
0
10
-25.206964
20
178.065857
30
112.608627
11
-27.608347
21
179.426208
31
98.608398
12
-52.606010
22
159.022461
32
96.495125
13
-52.606010
23
159.022461
33
96.495125
0
3DFACE
8
0
70
0
10
-52.606010
20
159.022461
30
96.495125
11
-27.608347
21
179.426208
31
98.608398
12
-34.136478
22
156.427673
32
104.917747
13
-34.136478
23
156.427673
33
104.917747
0
3DFACE
8
0
70
0
10
-34.136478
20
156.427673
30
104.917747
11
-32.250362
21
160.833405
31
115.002640
12
-52.606010
22
159.022461
32
96.495125
13
-52.606010
23
159.022461
33
96.495125
0
3DFACE
8
0
70
0
10
-60.495472
20
220.109619
30
77.739914
11
-64.987366
21
216.831116
31
40.018829
12
-61.631927
22
214.901672
32
41.261280
13
-48.266624
23
217.762421
33
78.249641
0
3DFACE
8
0
70
0
10
-48.266624
20
217.762421
30
78.249641
11
-61.631927
21
214.901672
31
41.261280
12
-62.948299
22
207.453979
32
42.462151
13
-46.063789
23
208.697784
33
78.655991
0
3DFACE
8
0
70
0
10
-46.063789
20
208.697784
30
78.655991
11
-62.948299
21
207.453979
31
42.462151
12
-62.636208
22
194.263733
32
44.641083
13
-48.173309
23
195.541046
33
78.504814
0
3DFACE
8
0
70
0
10
-64.987366
20
216.831116
30
40.018829
11
-47.414066
21
214.536713
31
13.866787
12
-44.800613
22
213.490051
32
14.896184
13
-61.631927
23
214.901672
33
41.261280
0
3DFACE
8
0
70
0
10
-62.948299
20
207.453979
30
42.462151
11
-61.631927
21
214.901672
31
41.261280
12
-44.800613
22
213.490051
32
14.896184
13
-47.064274
23
211.536621
33
12.672510
0
3DFACE
8
0
70
0
10
-62.636208
20
194.263733
30
44.641083
11
-62.948299
21
207.453979
31
42.462151
12
-47.064274
22
211.536621
32
12.672510
13
-44.024384
23
199.912781
33
11.188781
0
3DFACE
8
0
70
0
10
-47.414066
20
214.536713
30
13.866787
11
-2.416719
21
215.389404
31
-5.901319
12
-2.397654
22
214.636230
32
-2.275020
13
-44.800613
23
213.490051
33
14.896184
0
3DFACE
8
0
70
0
10
-47.064274
20
211.536621
30
12.672510
11
-44.800613
21
213.490051
31
14.896184
12
-2.397654
22
214.636230
32
-2.275020
13
-2.345969
23
212.594360
33
-2.405132
0
3DFACE
8
0
70
0
10
-44.024384
20
199.912781
30
11.188781
11
-47.064274
21
211.536621
31
12.672510
12
-2.345969
22
212.594360
32
-2.405132
13
-1.994837
23
198.722595
33
-0.945824
0
3DFACE
8
0
70
0
10
-54.907703
20
156.281250
30
50.112881
11
-55.763218
21
163.627411
31
81.297020
12
-52.326069
22
174.976074
32
78.126740
13
-61.654568
23
172.727417
33
46.003769
0
3DFACE
8
0
70
0
10
-48.173309
20
195.541046
30
78.504814
11
-62.636208
21
194.263733
31
44.641083
12
-50.997417
22
185.943115
32
77.948036
13
-50.997417
23
185.943115
33
77.948036
0
3DFACE
8
0
70
0
10
-52.326069
20
174.976074
30
78.126740
11
-50.997417
21
185.943115
31
77.948036
12
-62.636208
22
194.263733
32
44.641083
13
-61.654568
23
172.727417
33
46.003769
0
3DFACE
8
0
70
0
10
-61.654568
20
172.727417
30
46.003769
11
-62.636208
21
194.263733
31
44.641083
12
-44.024384
22
199.912781
32
11.188781
13
-42.776749
23
181.950928
33
14.099627
0
3DFACE
8
0
70
0
10
-42.776749
20
181.950928
30
14.099627
11
-44.024384
21
199.912781
31
11.188781
12
-1.994837
22
198.722595
32
-0.945824
13
-1.555548
23
181.368103
33
3.485335
0
3DFACE
8
0
70
0
10
-2.662122
20
225.084259
30
112.074959
11
-3.394686
21
254.024811
31
112.282356
12
-22.820419
22
254.811829
32
106.255333
13
-19.918711
23
233.315613
33
108.592934
0
3DFACE
8
0
70
0
10
-3.394686
20
254.024811
30
112.282356
11
-3.486727
21
257.660980
31
108.993706
12
-23.276686
22
257.477539
32
101.565422
13
-22.820419
23
254.811829
33
106.255333
0
3DFACE
8
0
70
0
10
-19.918711
20
233.315613
30
108.592934
11
-22.820419
21
254.811829
31
106.255333
12
-49.280224
22
253.231384
32
92.966484
13
-34.671314
23
225.694153
33
96.802116
0
3DFACE
8
0
70
0
10
-22.820419
20
254.811829
30
106.255333
11
-23.276686
21
257.477539
31
101.565422
12
-48.115974
22
256.332733
32
88.605896
13
-49.280224
23
253.231384
33
92.966484
0
3DFACE
8
0
70
0
10
-34.671314
20
225.694153
30
96.802116
11
-49.280224
21
253.231384
31
92.966484
12
-65.235970
22
247.453064
32
61.730480
13
-60.495472
23
220.109619
33
77.739914
0
3DFACE
8
0
70
0
10
-49.280224
20
253.231384
30
92.966484
11
-48.115974
21
256.332733
31
88.605896
12
-57.045315
22
251.825500
32
60.679428
13
-65.235970
23
247.453064
33
61.730480
0
3DFACE
8
0
70
0
10
-60.495472
20
220.109619
30
77.739914
11
-65.235970
21
247.453064
31
61.730480
12
-69.766418
22
247.583862
32
35.851646
13
-64.987366
23
216.831116
33
40.018829
0
3DFACE
8
0
70
0
10
-65.235970
20
247.453064
30
61.730480
11
-57.045315
21
251.825500
31
60.679428
12
-63.280350
22
250.367218
32
37.509758
13
-69.766418
23
247.583862
33
35.851646
0
3DFACE
8
0
70
0
10
-64.987366
20
216.831116
30
40.018829
11
-69.766418
21
247.583862
31
35.851646
12
-49.013515
22
242.342285
32
12.511164
13
-47.414066
23
214.536713
33
13.866787
0
3DFACE
8
0
70
0
10
-69.766418
20
247.583862
30
35.851646
11
-63.280350
21
250.367218
31
37.509758
12
-43.591202
22
246.615784
32
16.319864
13
-49.013515
23
242.342285
33
12.511164
0
3DFACE
8
0
70
0
10
-47.414066
20
214.536713
30
13.866787
11
-49.013515
21
242.342285
31
12.511164
12
-3.068258
22
241.128998
32
-7.526243
13
-2.416719
23
215.389404
33
-5.901319
0
3DFACE
8
0
70
0
10
-49.013515
20
242.342285
30
12.511164
11
-43.591202
21
246.615784
31
16.319864
12
-3.159751
22
244.743530
32
-2.974264
13
-3.068258
23
241.128998
33
-7.526243
0
3DFACE
8
0
70
0
10
-54.907703
20
156.281250
30
50.112881
11
-61.654568
21
172.727417
31
46.003769
12
-42.776749
22
181.950928
32
14.099627
13
-38.903389
23
169.049713
33
32.152061
0
3DFACE
8
0
70
0
10
-38.903389
20
169.049713
30
32.152061
11
-42.776749
21
181.950928
31
14.099627
12
-1.555548
22
181.368103
32
3.485335
13
-1.551556
23
182.526001
33
8.897332
0
3DFACE
8
0
70
0
10
-44.082645
20
126.898285
30
66.107307
11
-54.907703
21
156.281250
31
50.112881
12
-38.903389
22
169.049713
32
32.152061
13
-31.250332
23
137.371063
33
60.368183
0
3DFACE
8
0
70
0
10
-19.900440
20
101.500534
30
97.859222
11
-44.082645
21
126.898285
31
66.107307
12
-31.250332
22
137.371063
32
60.368183
13
-17.499788
23
102.253815
33
81.952538
0
3DFACE
8
0
70
0
10
-17.499788
20
102.253815
30
81.952538
11
-31.250332
21
137.371063
31
60.368183
12
-0.080721
22
123.103821
32
56.009388
13
0.476908
23
101.074188
33
77.656464
0
3DFACE
8
0
70
0
10
0.769817
20
89.502594
30
101.101166
11
-17.499788
21
102.253815
31
81.952538
12
0.476908
22
101.074188
32
77.656464
13
0.476908
23
101.074188
33
77.656464
0
3DFACE
8
0
70
0
10
0.769817
20
89.502594
30
101.101166
11
-19.900440
21
101.500534
31
97.859222
12
-17.499788
22
102.253815
32
81.952538
13
-17.499788
23
102.253815
33
81.952538
0
3DFACE
8
0
70
0
10
-5.918752
20
212.064209
30
106.939919
11
-2.328584
21
211.907593
31
110.144318
12
-2.614509
22
223.203247
32
109.102097
13
-6.149461
23
221.178528
33
106.095718
0
3DFACE
8
0
70
0
10
-17.112959
20
209.776245
30
102.640160
11
-17.024734
21
207.590759
31
104.835991
12
-2.328584
22
211.907593
32
110.144318
13
-5.918752
23
212.064209
33
106.939919
0
3DFACE
8
0
70
0
10
-18.505293
20
229.240356
30
104.469688
11
-6.149461
21
221.178528
31
106.095718
12
-2.614509
22
223.203247
32
109.102097
13
-18.294485
23
231.141510
33
107.094673
0
3DFACE
8
0
70
0
10
-17.112959
20
209.776245
30
102.640160
11
-26.223185
21
210.480499
31
97.547935
12
-29.013168
22
208.568604
32
98.549278
13
-17.024734
23
207.590759
33
104.835991
0
3DFACE
8
0
70
0
10
-26.223185
20
210.480499
30
97.547935
11
-30.226835
21
220.572266
31
94.654114
12
-34.295269
22
222.405731
32
94.976685
13
-29.013168
23
208.568604
33
98.549278
0
3DFACE
8
0
70
0
10
-18.505293
20
229.240356
30
104.469688
11
-18.294485
21
231.141510
31
107.094673
12
-34.295269
22
222.405731
32
94.976685
13
-30.226835
23
220.572266
33
94.654114
0
3DFACE
8
0
70
0
10
13.619617
20
229.358154
30
104.268639
11
13.067791
21
231.127655
31
107.094673
12
-2.614509
22
223.203247
32
109.102097
13
1.468328
23
221.490662
33
106.276031
0
3DFACE
8
0
70
0
10
12.794195
20
209.920715
30
102.009949
11
1.708838
21
211.989105
31
107.318275
12
-2.328584
22
211.907593
32
110.144318
13
12.567145
23
208.339783
33
104.835991
0
3DFACE
8
0
70
0
10
1.708838
20
211.989105
30
107.318275
11
1.468328
21
221.490662
31
106.276031
12
-2.614509
22
223.203247
32
109.102097
13
-2.328584
23
211.907593
33
110.144318
0
3DFACE
8
0
70
0
10
13.619617
20
229.358154
30
104.268639
11
25.726297
21
222.108093
31
92.150620
12
29.937788
22
224.031647
32
94.976685
13
13.067791
23
231.127655
33
107.094673
0
3DFACE
8
0
70
0
10
22.328253
20
211.158386
30
95.723228
11
25.362514
21
209.945007
31
98.549278
12
29.937788
22
224.031647
32
94.976685
13
25.726297
23
222.108093
33
92.150620
0
3DFACE
8
0
70
0
10
12.794195
20
209.920715
30
102.009949
11
12.567145
21
208.339783
31
104.835991
12
25.362514
22
209.945007
32
98.549278
13
22.328253
23
211.158386
33
95.723228
0
3DFACE
8
0
70
0
10
-1.551556
20
182.526001
30
8.897332
11
36.563774
21
170.071838
31
31.581121
12
60.398445
22
161.087677
32
3.335121
13
-1.690164
23
181.784241
33
5.099832
0
3DFACE
8
0
70
0
10
-1.690164
20
181.784241
30
5.099832
11
-62.657181
21
162.108978
31
3.929921
12
-38.903389
22
169.049713
32
32.152061
13
-1.551556
23
182.526001
33
8.897332
0
3DFACE
8
0
70
0
10
-62.657181
20
162.108978
30
3.929921
11
-55.098850
21
133.084106
31
60.216789
12
-38.903389
22
169.049713
32
32.152061
13
-38.903389
23
169.049713
33
32.152061
0
3DFACE
8
0
70
0
10
-55.098850
20
133.084106
30
60.216789
11
-31.250332
21
137.371063
31
60.368183
12
-38.903389
22
169.049713
32
32.152061
13
-38.903389
23
169.049713
33
32.152061
0
3DFACE
8
0
70
0
10
54.425488
20
134.096252
30
58.394878
11
36.563774
21
170.071838
31
31.581121
12
30.917875
22
138.535431
32
59.717793
13
30.917875
23
138.535431
33
59.717793
0
3DFACE
8
0
70
0
10
60.398445
20
161.087677
30
3.335121
11
36.563774
21
170.071838
31
31.581121
12
54.425488
22
134.096252
32
58.394878
13
54.425488
23
134.096252
33
58.394878
0
3DFACE
8
0
70
0
10
0.269899
20
126.554504
30
67.196671
11
-31.250332
21
137.371063
31
60.368183
12
-55.098850
22
133.084106
32
60.216789
13
-55.098850
23
133.084106
33
60.216789
0
3DFACE
8
0
70
0
10
-0.080721
20
123.103821
30
56.009388
11
-31.250332
21
137.371063
31
60.368183
12
0.269899
22
126.554504
32
67.196671
13
0.269899
23
126.554504
33
67.196671
0
3DFACE
8
0
70
0
10
-0.080721
20
123.103821
30
56.009388
11
0.269899
21
126.554504
31
67.196671
12
30.917875
22
138.535431
32
59.717793
13
30.917875
23
138.535431
33
59.717793
0
3DFACE
8
0
70
0
10
0.269899
20
126.554504
30
67.196671
11
54.425488
21
134.096252
31
58.394878
12
30.917875
22
138.535431
32
59.717793
13
30.917875
23
138.535431
33
59.717793
0
3DFACE
8
0
70
0
10
-3.159751
20
244.743530
30
-2.974264
11
-4.278134
21
295.005737
31
34.451359
12
11.537796
22
298.754761
32
38.228668
13
37.125195
23
248.658936
33
16.319864
0
3DFACE
8
0
70
0
10
37.125195
20
248.658936
30
16.319864
11
11.537796
21
298.754761
31
38.228668
12
22.034582
22
303.879913
32
43.824421
13
56.599339
23
253.401672
33
37.509758
0
3DFACE
8
0
70
0
10
56.599339
20
253.401672
30
37.509758
11
22.034582
21
303.879913
31
43.824421
12
19.364616
22
308.668640
32
49.537365
13
50.298508
23
254.542664
33
60.679428
0
3DFACE
8
0
70
0
10
50.298508
20
254.542664
30
60.679428
11
19.364616
21
308.668640
31
49.537365
12
16.416004
22
314.617523
32
56.620049
13
41.152573
23
258.592346
33
88.605896
0
3DFACE
8
0
70
0
10
-3.486727
20
257.660980
30
108.993706
11
16.287165
21
258.479004
31
101.565422
12
4.361186
22
317.145874
32
60.049702
13
-5.336297
23
318.531219
33
62.048962
0
3DFACE
8
0
70
0
10
-3.159751
20
244.743530
30
-2.974264
11
-43.591202
21
246.615784
31
16.319864
12
-20.382679
22
297.673309
32
38.201328
13
-4.278134
23
295.005737
33
34.451359
0
3DFACE
8
0
70
0
10
-43.591202
20
246.615784
30
16.319864
11
-63.280350
21
250.367218
31
37.509758
12
-31.307865
22
302.072693
32
43.778732
13
-20.382679
23
297.673309
33
38.201328
0
3DFACE
8
0
70
0
10
-63.280350
20
250.367218
30
37.509758
11
-57.045315
21
251.825500
31
60.679428
12
-29.076166
22
307.027496
32
49.495876
13
-31.307865
23
302.072693
33
43.778732
0
3DFACE
8
0
70
0
10
-57.045315
20
251.825500
30
60.679428
11
-48.115974
21
256.332733
31
88.605896
12
-26.670864
22
313.157776
32
56.583141
13
-29.076166
23
307.027496
33
49.495876
0
3DFACE
8
0
70
0
10
-3.486727
20
257.660980
30
108.993706
11
-5.336297
21
318.531219
31
62.048962
12
-14.879833
22
316.493988
32
60.033222
13
-23.276686
23
257.477539
33
101.565422
0
3DFACE
8
0
70
0
10
41.152573
20
258.592346
30
88.605896
11
16.416004
21
314.617523
31
56.620049
12
4.361186
22
317.145874
32
60.049702
13
16.287165
23
258.479004
33
101.565422
0
3DFACE
8
0
70
0
10
-48.115974
20
256.332733
30
88.605896
11
-23.276686
21
257.477539
31
101.565422
12
-14.879833
22
316.493988
32
60.033222
13
-26.670864
23
313.157776
33
56.583141
0
3DFACE
8
0
70
0
10
-5.289124
20
319.203003
30
-10.712313
11
8.647900
21
312.543762
31
-16.905123
12
-4.869679
22
310.543823
32
-24.266773
13
-4.869679
23
310.543823
33
-24.266773
0
3DFACE
8
0
70
0
10
8.493161
20
315.311584
30
-2.236306
11
8.647900
21
312.543762
31
-16.905123
12
-5.289124
22
319.203003
32
-10.712313
13
-5.289124
23
319.203003
33
-10.712313
0
3DFACE
8
0
70
0
10
-5.179156
20
316.079529
30
5.070921
11
8.493161
21
315.311584
31
-2.236306
12
-5.289124
22
319.203003
32
-10.712313
13
-5.289124
23
319.203003
33
-10.712313
0
3DFACE
8
0
70
0
10
-5.179156
20
316.079529
30
5.070921
11
-5.289124
21
319.203003
31
-10.712313
12
-18.696703
22
314.079620
32
-2.290668
13
-18.696703
23
314.079620
33
-2.290668
0
3DFACE
8
0
70
0
10
-18.696703
20
314.079620
30
-2.290668
11
-5.289124
21
319.203003
31
-10.712313
12
-18.541965
22
311.311798
32
-16.959486
13
-18.541965
23
311.311798
33
-16.959486
0
3DFACE
8
0
70
0
10
-5.289124
20
319.203003
30
-10.712313
11
-4.869679
21
310.543823
31
-24.266773
12
-18.541965
22
311.311798
32
-16.959486
13
-18.541965
23
311.311798
33
-16.959486
0
3DFACE
8
0
70
0
10
8.647900
20
312.543762
30
-16.905123
11
14.950188
21
298.002777
31
-17.241507
12
-4.166527
22
295.174500
32
-27.652376
13
-4.869679
23
310.543823
33
-24.266773
0
3DFACE
8
0
70
0
10
14.731354
20
301.917114
30
3.503414
11
14.950188
21
298.002777
31
-17.241507
12
8.647900
22
312.543762
32
-16.905123
13
8.493161
23
315.311584
33
-2.236306
0
3DFACE
8
0
70
0
10
-4.604194
20
303.003143
30
13.837374
11
14.731354
21
301.917114
31
3.503414
12
8.493161
22
315.311584
32
-2.236306
13
-5.179156
23
316.079529
33
5.070921
0
3DFACE
8
0
70
0
10
-4.604194
20
303.003143
30
13.837374
11
-5.179156
21
316.079529
31
5.070921
12
-18.696703
22
314.079620
32
-2.290668
13
-23.720913
23
300.174866
33
3.426533
0
3DFACE
8
0
70
0
10
-23.720913
20
300.174866
30
3.426533
11
-18.696703
21
314.079620
31
-2.290668
12
-18.541965
22
311.311798
32
-16.959486
13
-23.502079
23
296.260529
33
-17.318386
0
3DFACE
8
0
70
0
10
-18.541965
20
311.311798
30
-16.959486
11
-4.869679
21
310.543823
31
-24.266773
12
-4.166527
22
295.174500
32
-27.652376
13
-23.502079
23
296.260529
33
-17.318386
0
3DFACE
8
0
70
0
10
9.926011
20
284.098022
30
-11.524243
11
-3.591565
21
282.098114
31
-18.885893
12
-4.166527
22
295.174500
32
-27.652376
13
14.950188
23
298.002777
33
-17.241507
0
3DFACE
8
0
70
0
10
14.731354
20
301.917114
30
3.503414
11
9.771273
21
286.865875
31
3.144573
12
9.926011
22
284.098022
32
-11.524243
13
14.950188
23
298.002777
33
-17.241507
0
3DFACE
8
0
70
0
10
-4.604194
20
303.003143
30
13.837374
11
-3.901042
21
287.633820
31
10.451800
12
9.771273
22
286.865875
32
3.144573
13
14.731354
23
301.917114
33
3.503414
0
3DFACE
8
0
70
0
10
-4.604194
20
303.003143
30
13.837374
11
-23.720913
21
300.174866
31
3.426533
12
-17.418591
22
285.633911
32
3.090211
13
-3.901042
23
287.633820
33
10.451800
0
3DFACE
8
0
70
0
10
-23.720913
20
300.174866
30
3.426533
11
-23.502079
21
296.260529
31
-17.318386
12
-17.263851
22
282.866058
32
-11.578606
13
-17.418591
23
285.633911
33
3.090211
0
3DFACE
8
0
70
0
10
-17.263851
20
282.866058
30
-11.578606
11
-23.502079
21
296.260529
31
-17.318386
12
-4.166527
22
295.174500
32
-27.652376
13
-3.591565
23
282.098114
33
-18.885893
0
3DFACE
8
0
70
0
10
-3.481607
20
278.974640
30
-3.102597
11
-3.591565
21
282.098114
31
-18.885893
12
9.926011
22
284.098022
32
-11.524243
13
9.926011
23
284.098022
33
-11.524243
0
3DFACE
8
0
70
0
10
9.771273
20
286.865875
30
3.144573
11
-3.481607
21
278.974640
31
-3.102597
12
9.926011
22
284.098022
32
-11.524243
13
9.926011
23
284.098022
33
-11.524243
0
3DFACE
8
0
70
0
10
-3.901042
20
287.633820
30
10.451800
11
-3.481607
21
278.974640
31
-3.102597
12
9.771273
22
286.865875
32
3.144573
13
9.771273
23
286.865875
33
3.144573
0
3DFACE
8
0
70
0
10
-3.901042
20
287.633820
30
10.451800
11
-17.418591
21
285.633911
31
3.090211
12
-3.481607
22
278.974640
32
-3.102597
13
-3.481607
23
278.974640
33
-3.102597
0
3DFACE
8
0
70
0
10
-17.418591
20
285.633911
30
3.090211
11
-17.263851
21
282.866058
31
-11.578606
12
-3.481607
22
278.974640
32
-3.102597
13
-3.481607
23
278.974640
33
-3.102597
0
3DFACE
8
0
70
0
10
-3.481607
20
278.974640
30
-3.102597
11
-17.263851
21
282.866058
31
-11.578606
12
-3.591565
22
282.098114
32
-18.885893
13
-3.591565
23
282.098114
33
-18.885893
0
3DFACE
8
0
70
0
10
24.562134
20
180.746765
30
98.608398
11
47.591545
21
188.438660
31
77.948036
12
35.654922
22
196.845947
32
101.725830
13
35.654922
23
196.845947
33
101.725830
0
3DFACE
8
0
70
0
10
47.591545
20
188.438660
30
77.948036
11
44.285465
21
197.881409
31
78.504814
12
35.654922
22
196.845947
32
101.725830
13
35.654922
23
196.845947
33
101.725830
0
3DFACE
8
0
70
0
10
10.005990
20
177.757080
30
104.511536
11
24.562134
21
180.746765
31
98.608398
12
21.023968
22
196.629028
32
104.760262
13
21.023968
23
196.629028
33
104.760262
0
3DFACE
8
0
70
0
10
24.562134
20
180.746765
30
98.608398
11
35.654922
21
196.845947
31
101.725830
12
21.023968
22
196.629028
32
104.760262
13
21.023968
23
196.629028
33
104.760262
0
3DFACE
8
0
70
0
10
35.654922
20
196.845947
30
101.725830
11
44.285465
21
197.881409
31
78.504814
12
25.362514
22
209.945007
32
98.549278
13
25.362514
23
209.945007
33
98.549278
0
3DFACE
8
0
70
0
10
44.285465
20
197.881409
30
78.504814
11
41.513000
21
210.914612
31
78.655991
12
25.362514
22
209.945007
32
98.549278
13
25.362514
23
209.945007
33
98.549278
0
3DFACE
8
0
70
0
10
21.023968
20
196.629028
30
104.760262
11
25.362514
21
209.945007
31
98.549278
12
12.567145
22
208.339783
32
104.835991
13
12.567145
23
208.339783
33
104.835991
0
3DFACE
8
0
70
0
10
35.654922
20
196.845947
30
101.725830
11
25.362514
21
209.945007
31
98.549278
12
21.023968
22
196.629028
32
104.760262
13
21.023968
23
196.629028
33
104.760262
0
3DFACE
8
0
70
0
10
25.362514
20
209.945007
30
98.549278
11
41.513000
21
210.914612
31
78.655991
12
29.937788
22
224.031647
32
94.976685
13
29.937788
23
224.031647
33
94.976685
0
3DFACE
8
0
70
0
10
41.513000
20
210.914612
30
78.655991
11
43.254414
21
220.079071
31
78.249641
12
29.937788
22
224.031647
32
94.976685
13
29.937788
23
224.031647
33
94.976685
0
3DFACE
8
0
70
0
10
-50.997417
20
185.943115
30
77.948036
11
-39.501434
21
194.943542
31
101.725830
12
-48.173309
22
195.541046
32
78.504814
13
-48.173309
23
195.541046
33
78.504814
0
3DFACE
8
0
70
0
10
-27.608347
20
179.426208
30
98.608398
11
-39.501434
21
194.943542
31
101.725830
12
-50.997417
22
185.943115
32
77.948036
13
-50.997417
23
185.943115
33
77.948036
0
3DFACE
8
0
70
0
10
-27.608347
20
179.426208
30
98.608398
11
-24.878241
21
195.467102
31
104.760262
12
-39.501434
22
194.943542
32
101.725830
13
-39.501434
23
194.943542
33
101.725830
0
3DFACE
8
0
70
0
10
-12.919588
20
177.176788
30
104.511536
11
-24.878241
21
195.467102
31
104.760262
12
-27.608347
22
179.426208
32
98.608398
13
-27.608347
23
179.426208
33
98.608398
0
3DFACE
8
0
70
0
10
-48.173309
20
195.541046
30
78.504814
11
-29.013168
21
208.568604
31
98.549278
12
-46.063789
22
208.697784
32
78.655991
13
-46.063789
23
208.697784
33
78.655991
0
3DFACE
8
0
70
0
10
-39.501434
20
194.943542
30
101.725830
11
-29.013168
21
208.568604
31
98.549278
12
-48.173309
22
195.541046
32
78.504814
13
-48.173309
23
195.541046
33
78.504814
0
3DFACE
8
0
70
0
10
-24.878241
20
195.467102
30
104.760262
11
-17.024734
21
207.590759
31
104.835991
12
-29.013168
22
208.568604
32
98.549278
13
-29.013168
23
208.568604
33
98.549278
0
3DFACE
8
0
70
0
10
-39.501434
20
194.943542
30
101.725830
11
-24.878241
21
195.467102
31
104.760262
12
-29.013168
22
208.568604
32
98.549278
13
-29.013168
23
208.568604
33
98.549278
0
3DFACE
8
0
70
0
10
-46.063789
20
208.697784
30
78.655991
11
-34.295269
21
222.405731
31
94.976685
12
-48.266624
22
217.762421
32
78.249641
13
-48.266624
23
217.762421
33
78.249641
0
3DFACE
8
0
70
0
10
-29.013168
20
208.568604
30
98.549278
11
-34.295269
21
222.405731
31
94.976685
12
-46.063789
22
208.697784
32
78.655991
13
-46.063789
23
208.697784
33
78.655991
0
3DFACE
8
0
70
0
10
34.029808
20
-71.430351
30
37.635666
11
30.584528
21
-50.803833
31
22.894737
12
22.367664
22
-55.994888
32
-3.634800
13
22.367664
23
-55.994888
33
-3.634800
0
3DFACE
8
0
70
0
10
34.029808
20
-71.430351
30
37.635666
11
22.367664
21
-55.994888
31
-3.634800
12
25.825802
22
-75.702209
32
13.307441
13
25.825802
23
-75.702209
33
13.307441
0
3DFACE
8
0
70
0
10
34.029808
20
-71.430351
30
37.635666
11
72.424370
21
-52.662399
31
12.827454
12
30.584528
22
-50.803833
32
22.894737
13
30.584528
23
-50.803833
33
22.894737
0
3DFACE
8
0
70
0
10
34.029808
20
-71.430351
30
37.635666
11
69.889534
21
-73.082855
31
28.440248
12
72.424370
22
-52.662399
32
12.827454
13
72.424370
23
-52.662399
33
12.827454
0
3DFACE
8
0
70
0
10
69.889534
20
-73.082855
30
28.440248
11
82.807678
21
-55.998322
31
-4.420178
12
72.424370
22
-52.662399
32
12.827454
13
72.424370
23
-52.662399
33
12.827454
0
3DFACE
8
0
70
0
10
69.889534
20
-73.082855
30
28.440248
11
78.778442
21
-75.873016
31
12.628964
12
82.807678
22
-55.998322
32
-4.420178
13
82.807678
23
-55.998322
33
-4.420178
0
3DFACE
8
0
70
0
10
33.427761
20
-80.210297
30
-12.276323
11
22.367664
21
-55.994888
31
-3.634800
12
29.926657
22
-61.410576
32
-31.517279
13
29.926657
23
-61.410576
33
-31.517279
0
3DFACE
8
0
70
0
10
25.825802
20
-75.702209
30
13.307441
11
22.367664
21
-55.994888
31
-3.634800
12
33.427761
22
-80.210297
32
-12.276323
13
33.427761
23
-80.210297
33
-12.276323
0
3DFACE
8
0
70
0
10
69.498207
20
-78.789818
30
-4.002547
11
71.996750
21
-59.556778
31
-22.540359
12
82.807678
22
-55.998322
32
-4.420178
13
82.807678
23
-55.998322
33
-4.420178
0
3DFACE
8
0
70
0
10
78.778442
20
-75.873016
30
12.628964
11
69.498207
21
-78.789818
31
-4.002547
12
82.807678
22
-55.998322
32
-4.420178
13
82.807678
23
-55.998322
33
-4.420178
0
3DFACE
8
0
70
0
10
33.427761
20
-80.210297
30
-12.276323
11
29.926657
21
-61.410576
31
-31.517279
12
71.996750
22
-59.556778
32
-22.540359
13
71.996750
23
-59.556778
33
-22.540359
0
3DFACE
8
0
70
0
10
69.498207
20
-78.789818
30
-4.002547
11
33.427761
21
-80.210297
31
-12.276323
12
71.996750
22
-59.556778
32
-22.540359
13
71.996750
23
-59.556778
33
-22.540359
0
3DFACE
8
0
70
0
10
-36.510300
20
-74.145668
30
40.307018
11
-28.016682
21
-78.184563
31
16.101290
12
-23.232014
22
-58.886673
32
-0.853006
13
-23.232014
23
-58.886673
33
-0.853006
0
3DFACE
8
0
70
0
10
-36.510300
20
-74.145668
30
40.307018
11
-23.232014
21
-58.886673
31
-0.853006
12
-31.700169
22
-53.082207
32
25.538498
13
-31.700169
23
-53.082207
33
25.538498
0
3DFACE
8
0
70
0
10
-36.510300
20
-74.145668
30
40.307018
11
-31.700169
21
-53.082207
31
25.538498
12
-73.364532
22
-52.513802
32
14.829519
13
-73.364532
23
-52.513802
33
14.829519
0
3DFACE
8
0
70
0
10
-36.510300
20
-74.145668
30
40.307018
11
-73.364532
21
-52.513802
31
14.829519
12
-72.207687
22
-73.634026
32
30.560362
13
-72.207687
23
-73.634026
33
30.560362
0
3DFACE
8
0
70
0
10
-72.207687
20
-73.634026
30
30.560362
11
-73.364532
21
-52.513802
31
14.829519
12
-83.556458
22
-55.318199
32
-2.571145
13
-83.556458
23
-55.318199
33
-2.571145
0
3DFACE
8
0
70
0
10
-72.207687
20
-73.634026
30
30.560362
11
-83.556458
21
-55.318199
31
-2.571145
12
-80.889069
22
-75.514992
32
14.610586
13
-80.889069
23
-75.514992
33
14.610586
0
3DFACE
8
0
70
0
10
-35.292042
20
-81.582848
30
-9.602566
11
-30.498047
21
-63.988953
31
-28.840433
12
-23.232014
22
-58.886673
32
-0.853006
13
-23.232014
23
-58.886673
33
-0.853006
0
3DFACE
8
0
70
0
10
-28.016682
20
-78.184563
30
16.101290
11
-35.292042
21
-81.582848
31
-9.602566
12
-23.232014
22
-58.886673
32
-0.853006
13
-23.232014
23
-58.886673
33
-0.853006
0
3DFACE
8
0
70
0
10
-80.889069
20
-75.514992
30
14.610586
11
-83.556458
21
-55.318199
31
-2.571145
12
-71.415817
22
-78.468185
32
-1.880869
13
-71.415817
23
-78.468185
33
-1.880869
0
3DFACE
8
0
70
0
10
-71.415817
20
-78.468185
30
-1.880869
11
-83.556458
21
-55.318199
31
-2.571145
12
-72.583153
22
-59.603188
32
-20.516787
13
-72.583153
23
-59.603188
33
-20.516787
0
3DFACE
8
0
70
0
10
-71.415817
20
-78.468185
30
-1.880869
11
-72.583153
21
-59.603188
31
-20.516787
12
-35.292042
22
-81.582848
32
-9.602566
13
-35.292042
23
-81.582848
33
-9.602566
0
3DFACE
8
0
70
0
10
-35.292042
20
-81.582848
30
-9.602566
11
-72.583153
21
-59.603188
31
-20.516787
12
-30.498047
22
-63.988953
32
-28.840433
13
-30.498047
23
-63.988953
33
-28.840433
0
3DFACE
8
0
70
0
10
34.059521
20
-95.667236
30
21.390184
11
34.029808
21
-71.430351
31
37.635666
12
25.825802
22
-75.702209
32
13.307441
13
25.825802
23
-75.702209
33
13.307441
0
3DFACE
8
0
70
0
10
26.684536
20
-124.494606
30
-5.341151
11
34.059521
21
-95.667236
31
21.390184
12
25.825802
22
-75.702209
32
13.307441
13
25.825802
23
-75.702209
33
13.307441
0
3DFACE
8
0
70
0
10
68.317482
20
-102.338799
30
11.321651
11
69.889534
21
-73.082855
31
28.440248
12
34.059521
22
-95.667236
32
21.390184
13
34.059521
23
-95.667236
33
21.390184
0
3DFACE
8
0
70
0
10
34.059521
20
-95.667236
30
21.390184
11
69.889534
21
-73.082855
31
28.440248
12
34.029808
22
-71.430351
32
37.635666
13
34.029808
23
-71.430351
33
37.635666
0
3DFACE
8
0
70
0
10
76.571022
20
-124.747665
30
-5.841043
11
78.778442
21
-75.873016
31
12.628964
12
68.317482
22
-102.338799
32
11.321651
13
68.317482
23
-102.338799
33
11.321651
0
3DFACE
8
0
70
0
10
68.317482
20
-102.338799
30
11.321651
11
78.778442
21
-75.873016
31
12.628964
12
69.889534
22
-73.082855
32
28.440248
13
69.889534
23
-73.082855
33
28.440248
0
3DFACE
8
0
70
0
10
26.684536
20
-124.494606
30
-5.341151
11
25.825802
21
-75.702209
31
13.307441
12
33.427761
22
-80.210297
32
-12.276323
13
33.427761
23
-80.210297
33
-12.276323
0
3DFACE
8
0
70
0
10
9.731874
20
-155.041214
30
-33.673782
11
26.684536
21
-124.494606
31
-5.341151
12
33.427761
22
-80.210297
32
-12.276323
13
33.427761
23
-80.210297
33
-12.276323
0
3DFACE
8
0
70
0
10
83.316254
20
-154.132965
30
-32.554268
11
69.498207
21
-78.789818
31
-4.002547
12
76.571022
22
-124.747665
32
-5.841043
13
76.571022
23
-124.747665
33
-5.841043
0
3DFACE
8
0
70
0
10
76.571022
20
-124.747665
30
-5.841043
11
69.498207
21
-78.789818
31
-4.002547
12
78.778442
22
-75.873016
32
12.628964
13
78.778442
23
-75.873016
33
12.628964
0
3DFACE
8
0
70
0
10
9.731874
20
-155.041214
30
-33.673782
11
33.427761
21
-80.210297
31
-12.276323
12
83.316254
22
-154.132965
32
-32.554268
13
83.316254
23
-154.132965
33
-32.554268
0
3DFACE
8
0
70
0
10
83.316254
20
-154.132965
30
-32.554268
11
33.427761
21
-80.210297
31
-12.276323
12
69.498207
22
-78.789818
32
-4.002547
13
69.498207
23
-78.789818
33
-4.002547
0
3DFACE
8
0
70
0
10
-30.436769
20
-125.612144
30
-5.103789
11
-28.016682
21
-78.184563
31
16.101290
12
-37.290447
22
-97.699379
32
22.660387
13
-37.290447
23
-97.699379
33
22.660387
0
3DFACE
8
0
70
0
10
-37.290447
20
-97.699379
30
22.660387
11
-28.016682
21
-78.184563
31
16.101290
12
-36.510300
22
-74.145668
32
40.307018
13
-36.510300
23
-74.145668
33
40.307018
0
3DFACE
8
0
70
0
10
-37.290447
20
-97.699379
30
22.660387
11
-36.510300
21
-74.145668
31
40.307018
12
-72.207687
22
-73.634026
32
30.560362
13
-72.207687
23
-73.634026
33
30.560362
0
3DFACE
8
0
70
0
10
-71.575539
20
-102.614754
30
11.943130
11
-37.290447
21
-97.699379
31
22.660387
12
-72.207687
22
-73.634026
32
30.560362
13
-72.207687
23
-73.634026
33
30.560362
0
3DFACE
8
0
70
0
10
-71.575539
20
-102.614754
30
11.943130
11
-72.207687
21
-73.634026
31
30.560362
12
-80.889069
22
-75.514992
32
14.610586
13
-80.889069
23
-75.514992
33
14.610586
0
3DFACE
8
0
70
0
10
-80.278969
20
-123.958412
30
-6.206989
11
-71.575539
21
-102.614754
31
11.943130
12
-80.889069
22
-75.514992
32
14.610586
13
-80.889069
23
-75.514992
33
14.610586
0
3DFACE
8
0
70
0
10
-14.044564
20
-155.534286
30
-34.421875
11
-35.292042
21
-81.582848
31
-9.602566
12
-30.436769
22
-125.612144
32
-5.103789
13
-30.436769
23
-125.612144
33
-5.103789
0
3DFACE
8
0
70
0
10
-30.436769
20
-125.612144
30
-5.103789
11
-35.292042
21
-81.582848
31
-9.602566
12
-28.016682
22
-78.184563
32
16.101290
13
-28.016682
23
-78.184563
33
16.101290
0
3DFACE
8
0
70
0
10
-80.278969
20
-123.958412
30
-6.206989
11
-80.889069
21
-75.514992
31
14.610586
12
-71.415817
22
-78.468185
32
-1.880869
13
-71.415817
23
-78.468185
33
-1.880869
0
3DFACE
8
0
70
0
10
-87.551308
20
-151.898605
30
-34.145729
11
-80.278969
21
-123.958412
31
-6.206989
12
-71.415817
22
-78.468185
32
-1.880869
13
-71.415817
23
-78.468185
33
-1.880869
0
3DFACE
8
0
70
0
10
-87.551308
20
-151.898605
30
-34.145729
11
-71.415817
21
-78.468185
31
-1.880869
12
-35.292042
22
-81.582848
32
-9.602566
13
-35.292042
23
-81.582848
33
-9.602566
0
3DFACE
8
0
70
0
10
-14.044564
20
-155.534286
30
-34.421875
11
-87.551308
21
-151.898605
31
-34.145729
12
-35.292042
22
-81.582848
32
-9.602566
13
-35.292042
23
-81.582848
33
-9.602566
0
3DFACE
8
0
70
0
10
102.742165
20
28.162567
30
73.117523
11
2.285767
21
46.140427
31
116.880417
12
2.248369
22
28.655014
32
105.415771
13
2.248369
23
28.655014
33
105.415771
0
3DFACE
8
0
70
0
10
102.742165
20
28.162567
30
73.117523
11
103.512611
21
60.991516
31
84.790001
12
2.285767
22
46.140427
32
116.880417
13
2.285767
23
46.140427
33
116.880417
0
3DFACE
8
0
70
0
10
99.540321
20
19.759521
30
-81.422066
11
-2.145854
21
17.194168
31
-109.422394
12
-2.425200
22
49.866394
32
-101.559479
13
-2.425200
23
49.866394
33
-101.559479
0
3DFACE
8
0
70
0
10
99.540321
20
19.759521
30
-81.422066
11
-2.425200
21
49.866394
31
-101.559479
12
100.317963
22
52.607361
32
-69.402252
13
100.317963
23
52.607361
33
-69.402252
0
3DFACE
8
0
70
0
10
102.742165
20
28.162567
30
73.117523
11
126.331467
21
56.623138
31
-1.442248
12
103.512611
22
60.991516
32
84.790001
13
103.512611
23
60.991516
33
84.790001
0
3DFACE
8
0
70
0
10
102.742165
20
28.162567
30
73.117523
11
125.567078
21
24.363998
31
-2.584797
12
126.331467
22
56.623138
32
-1.442248
13
126.331467
23
56.623138
33
-1.442248
0
3DFACE
8
0
70
0
10
125.567078
20
24.363998
30
-2.584797
11
99.540321
21
19.759521
31
-81.422066
12
100.317963
22
52.607361
32
-69.402252
13
100.317963
23
52.607361
33
-69.402252
0
3DFACE
8
0
70
0
10
125.567078
20
24.363998
30
-2.584797
11
100.317963
21
52.607361
31
-69.402252
12
126.331467
22
56.623138
32
-1.442248
13
126.331467
23
56.623138
33
-1.442248
0
3DFACE
8
0
70
0
10
-99.492981
20
25.762268
30
77.438072
11
2.248369
21
28.655014
31
105.415771
12
2.285767
22
46.140427
32
116.880417
13
2.285767
23
46.140427
33
116.880417
0
3DFACE
8
0
70
0
10
-99.492981
20
25.762268
30
77.438072
11
2.285767
21
46.140427
31
116.880417
12
-100.542885
22
58.569611
32
89.149437
13
-100.542885
23
58.569611
33
89.149437
0
3DFACE
8
0
70
0
10
-102.694824
20
17.359222
30
-77.101517
11
-2.425200
21
49.866394
31
-101.559479
12
-2.145854
22
17.194168
32
-109.422394
13
-2.145854
23
17.194168
33
-109.422394
0
3DFACE
8
0
70
0
10
-102.694824
20
17.359222
30
-77.101517
11
-103.737534
21
50.185455
31
-65.042816
12
-2.425200
22
49.866394
32
-101.559479
13
-2.425200
23
49.866394
33
-101.559479
0
3DFACE
8
0
70
0
10
-99.492981
20
25.762268
30
77.438072
11
-126.913200
21
53.617416
31
3.968066
12
-125.433189
22
21.384903
32
2.777568
13
-125.433189
23
21.384903
33
2.777568
0
3DFACE
8
0
70
0
10
-99.492981
20
25.762268
30
77.438072
11
-100.542885
21
58.569611
31
89.149437
12
-126.913200
22
53.617416
32
3.968066
13
-126.913200
23
53.617416
33
3.968066
0
3DFACE
8
0
70
0
10
-125.433189
20
21.384903
30
2.777568
11
-126.913200
21
53.617416
31
3.968066
12
-103.737534
22
50.185455
32
-65.042816
13
-103.737534
23
50.185455
33
-65.042816
0
3DFACE
8
0
70
0
10
-125.433189
20
21.384903
30
2.777568
11
-103.737534
21
50.185455
31
-65.042816
12
-102.694824
22
17.359222
32
-77.101517
13
-102.694824
23
17.359222
33
-77.101517
0
3DFACE
8
0
70
0
10
2.285767
20
46.140427
30
116.880417
11
54.425488
21
134.096252
31
58.394878
12
0.269899
22
126.554504
32
67.196671
13
0.269899
23
126.554504
33
67.196671
0
3DFACE
8
0
70
0
10
2.285767
20
46.140427
30
116.880417
11
103.512611
21
60.991516
31
84.790001
12
54.425488
22
134.096252
32
58.394878
13
54.425488
23
134.096252
33
58.394878
0
3DFACE
8
0
70
0
10
100.317963
20
52.607361
30
-69.402252
11
-2.425200
21
49.866394
31
-101.559479
12
52.830788
22
152.349792
32
-37.306091
13
52.830788
23
152.349792
33
-37.306091
0
3DFACE
8
0
70
0
10
-2.425200
20
49.866394
30
-101.559479
11
-2.157690
21
161.033508
31
-46.070152
12
52.830788
22
152.349792
32
-37.306091
13
52.830788
23
152.349792
33
-37.306091
0
3DFACE
8
0
70
0
10
103.512611
20
60.991516
30
84.790001
11
109.478676
21
128.294861
31
4.529276
12
84.485924
22
150.140686
32
46.116924
13
84.485924
23
150.140686
33
46.116924
0
3DFACE
8
0
70
0
10
103.512611
20
60.991516
30
84.790001
11
126.331467
21
56.623138
31
-1.442248
12
109.478676
22
128.294861
32
4.529276
13
109.478676
23
128.294861
33
4.529276
0
3DFACE
8
0
70
0
10
100.317963
20
52.607361
30
-69.402252
11
83.420158
21
139.343506
31
-29.845181
12
109.478676
22
128.294861
32
4.529276
13
109.478676
23
128.294861
33
4.529276
0
3DFACE
8
0
70
0
10
126.331467
20
56.623138
30
-1.442248
11
100.317963
21
52.607361
31
-69.402252
12
109.478676
22
128.294861
32
4.529276
13
109.478676
23
128.294861
33
4.529276
0
3DFACE
8
0
70
0
10
103.512611
20
60.991516
30
84.790001
11
84.485924
21
150.140686
31
46.116924
12
54.425488
22
134.096252
32
58.394878
13
54.425488
23
134.096252
33
58.394878
0
3DFACE
8
0
70
0
10
100.317963
20
52.607361
30
-69.402252
11
52.830788
21
152.349792
31
-37.306091
12
83.420158
22
139.343506
32
-29.845181
13
83.420158
23
139.343506
33
-29.845181
0
3DFACE
8
0
70
0
10
2.285767
20
46.140427
30
116.880417
11
-55.098850
21
133.084106
31
60.216789
12
-100.542885
22
58.569611
32
89.149437
13
-100.542885
23
58.569611
33
89.149437
0
3DFACE
8
0
70
0
10
2.285767
20
46.140427
30
116.880417
11
0.269899
21
126.554504
31
67.196671
12
-55.098850
22
133.084106
32
60.216789
13
-55.098850
23
133.084106
33
60.216789
0
3DFACE
8
0
70
0
10
-103.737534
20
50.185455
30
-65.042816
11
-56.962650
21
151.412903
31
-35.619698
12
-2.425200
22
49.866394
32
-101.559479
13
-2.425200
23
49.866394
33
-101.559479
0
3DFACE
8
0
70
0
10
-2.425200
20
49.866394
30
-101.559479
11
-56.962650
21
151.412903
31
-35.619698
12
-2.157690
22
161.033508
32
-46.070152
13
-2.157690
23
161.033508
33
-46.070152
0
3DFACE
8
0
70
0
10
-100.542885
20
58.569611
30
89.149437
11
-84.144753
21
151.482117
31
47.939026
12
-111.008560
22
125.076416
32
10.001883
13
-111.008560
23
125.076416
33
10.001883
0
3DFACE
8
0
70
0
10
-100.542885
20
58.569611
30
89.149437
11
-111.008560
21
125.076416
31
10.001883
12
-126.913200
22
53.617416
32
3.968066
13
-126.913200
23
53.617416
33
3.968066
0
3DFACE
8
0
70
0
10
-126.913200
20
53.617416
30
3.968066
11
-111.008560
21
125.076416
31
10.001883
12
-103.737534
22
50.185455
32
-65.042816
13
-103.737534
23
50.185455
33
-65.042816
0
3DFACE
8
0
70
0
10
-103.737534
20
50.185455
30
-65.042816
11
-111.008560
21
125.076416
31
10.001883
12
-86.447876
22
137.316101
32
-26.713858
13
-86.447876
23
137.316101
33
-26.713858
0
3DFACE
8
0
70
0
10
-100.542885
20
58.569611
30
89.149437
11
-55.098850
21
133.084106
31
60.216789
12
-84.144753
22
151.482117
32
47.939026
13
-84.144753
23
151.482117
33
47.939026
0
3DFACE
8
0
70
0
10
-103.737534
20
50.185455
30
-65.042816
11
-86.447876
21
137.316101
31
-26.713858
12
-56.962650
22
151.412903
32
-35.619698
13
-56.962650
23
151.412903
33
-35.619698
0
3DFACE
8
0
70
0
10
109.478676
20
128.294861
30
4.529276
11
129.580658
21
231.293945
31
19.147045
12
84.485924
22
150.140686
32
46.116924
13
84.485924
23
150.140686
33
46.116924
0
3DFACE
8
0
70
0
10
167.020676
20
225.672180
30
-10.842030
11
129.580658
21
231.293945
31
19.147045
12
109.478676
22
128.294861
32
4.529276
13
109.478676
23
128.294861
33
4.529276
0
3DFACE
8
0
70
0
10
84.485924
20
150.140686
30
46.116924
11
120.962479
21
254.796509
31
-27.596254
12
60.398445
22
161.087677
32
3.335121
13
60.398445
23
161.087677
33
3.335121
0
3DFACE
8
0
70
0
10
84.485924
20
150.140686
30
46.116924
11
129.580658
21
231.293945
31
19.147045
12
120.962479
22
254.796509
32
-27.596254
13
120.962479
23
254.796509
33
-27.596254
0
3DFACE
8
0
70
0
10
83.420158
20
139.343506
30
-29.845181
11
60.398445
21
161.087677
31
3.335121
12
120.962479
22
254.796509
32
-27.596254
13
120.962479
23
254.796509
33
-27.596254
0
3DFACE
8
0
70
0
10
83.420158
20
139.343506
30
-29.845181
11
120.962479
21
254.796509
31
-27.596254
12
157.574463
22
246.339600
32
-49.773281
13
157.574463
23
246.339600
33
-49.773281
0
3DFACE
8
0
70
0
10
109.478676
20
128.294861
30
4.529276
11
83.420158
21
139.343506
31
-29.845181
12
157.574463
22
246.339600
32
-49.773281
13
157.574463
23
246.339600
33
-49.773281
0
3DFACE
8
0
70
0
10
167.020676
20
225.672180
30
-10.842030
11
109.478676
21
128.294861
31
4.529276
12
157.574463
22
246.339600
32
-49.773281
13
157.574463
23
246.339600
33
-49.773281
0
3DFACE
8
0
70
0
10
-111.008560
20
125.076416
30
10.001883
11
-84.144753
21
151.482117
31
47.939026
12
-139.040787
22
228.463104
32
20.042301
13
-139.040787
23
228.463104
33
20.042301
0
3DFACE
8
0
70
0
10
-178.308548
20
211.228149
30
-2.110086
11
-111.008560
21
125.076416
31
10.001883
12
-139.040787
22
228.463104
32
20.042301
13
-139.040787
23
228.463104
33
20.042301
0
3DFACE
8
0
70
0
10
-84.144753
20
151.482117
30
47.939026
11
-62.657181
21
162.108978
31
3.929921
12
-141.666946
22
244.510529
32
-30.393391
13
-141.666946
23
244.510529
33
-30.393391
0
3DFACE
8
0
70
0
10
-84.144753
20
151.482117
30
47.939026
11
-141.666946
21
244.510529
31
-30.393391
12
-139.040787
22
228.463104
32
20.042301
13
-139.040787
23
228.463104
33
20.042301
0
3DFACE
8
0
70
0
10
-86.447876
20
137.316101
30
-26.713858
11
-141.666946
21
244.510529
31
-30.393391
12
-62.657181
22
162.108978
32
3.929921
13
-62.657181
23
162.108978
33
3.929921
0
3DFACE
8
0
70
0
10
-86.447876
20
137.316101
30
-26.713858
11
-178.511780
21
226.046967
31
-44.655396
12
-141.666946
22
244.510529
32
-30.393391
13
-141.666946
23
244.510529
33
-30.393391
0
3DFACE
8
0
70
0
10
-111.008560
20
125.076416
30
10.001883
11
-178.511780
21
226.046967
31
-44.655396
12
-86.447876
22
137.316101
32
-26.713858
13
-86.447876
23
137.316101
33
-26.713858
0
3DFACE
8
0
70
0
10
-178.308548
20
211.228149
30
-2.110086
11
-178.511780
21
226.046967
31
-44.655396
12
-111.008560
22
125.076416
32
10.001883
13
-111.008560
23
125.076416
33
10.001883
0
3DFACE
8
0
70
0
10
-192.783432
20
245.011169
30
25.782476
11
-178.308548
21
211.228149
31
-2.110086
12
-139.040787
22
228.463104
32
20.042301
13
-139.040787
23
228.463104
33
20.042301
0
3DFACE
8
0
70
0
10
-192.783432
20
245.011169
30
25.782476
11
-139.040787
21
228.463104
31
20.042301
12
-144.702927
22
242.011322
32
32.238754
13
-144.702927
23
242.011322
33
32.238754
0
3DFACE
8
0
70
0
10
-144.702927
20
242.011322
30
32.238754
11
-139.040787
21
228.463104
31
20.042301
12
-141.666946
22
244.510529
32
-30.393391
13
-141.666946
23
244.510529
33
-30.393391
0
3DFACE
8
0
70
0
10
-144.702927
20
242.011322
30
32.238754
11
-141.666946
21
244.510529
31
-30.393391
12
-156.233551
22
283.913391
32
1.668077
13
-156.233551
23
283.913391
33
1.668077
0
3DFACE
8
0
70
0
10
-200.012863
20
281.373627
30
-0.495893
11
-156.233551
21
283.913391
31
1.668077
12
-141.666946
22
244.510529
32
-30.393391
13
-141.666946
23
244.510529
33
-30.393391
0
3DFACE
8
0
70
0
10
-200.012863
20
281.373627
30
-0.495893
11
-141.666946
21
244.510529
31
-30.393391
12
-178.511780
22
226.046967
32
-44.655396
13
-178.511780
23
226.046967
33
-44.655396
0
3DFACE
8
0
70
0
10
-192.783432
20
245.011169
30
25.782476
11
-200.012863
21
281.373627
31
-0.495893
12
-178.511780
22
226.046967
32
-44.655396
13
-178.511780
23
226.046967
33
-44.655396
0
3DFACE
8
0
70
0
10
-192.783432
20
245.011169
30
25.782476
11
-178.511780
21
226.046967
31
-44.655396
12
-178.308548
22
211.228149
32
-2.110086
13
-178.308548
23
211.228149
33
-2.110086
0
3DFACE
8
0
70
0
10
180.496460
20
257.817230
30
19.288452
11
129.580658
21
231.293945
31
19.147045
12
167.020676
22
225.672180
32
-10.842030
13
167.020676
23
225.672180
33
-10.842030
0
3DFACE
8
0
70
0
10
180.496460
20
257.817230
30
19.288452
11
135.366470
21
243.762543
31
30.609438
12
129.580658
22
231.293945
32
19.147045
13
129.580658
23
231.293945
33
19.147045
0
3DFACE
8
0
70
0
10
135.366470
20
243.762543
30
30.609438
11
120.962479
21
254.796509
31
-27.596254
12
129.580658
22
231.293945
32
19.147045
13
129.580658
23
231.293945
33
19.147045
0
3DFACE
8
0
70
0
10
135.366470
20
243.762543
30
30.609438
11
134.144119
21
291.722107
31
7.768906
12
120.962479
22
254.796509
32
-27.596254
13
120.962479
23
254.796509
33
-27.596254
0
3DFACE
8
0
70
0
10
176.778625
20
298.812286
30
0.036685
11
157.574463
21
246.339600
31
-49.773281
12
120.962479
22
254.796509
32
-27.596254
13
120.962479
23
254.796509
33
-27.596254
0
3DFACE
8
0
70
0
10
176.778625
20
298.812286
30
0.036685
11
120.962479
21
254.796509
31
-27.596254
12
134.144119
22
291.722107
32
7.768906
13
134.144119
23
291.722107
33
7.768906
0
3DFACE
8
0
70
0
10
180.496460
20
257.817230
30
19.288452
11
167.020676
21
225.672180
31
-10.842030
12
157.574463
22
246.339600
32
-49.773281
13
157.574463
23
246.339600
33
-49.773281
0
3DFACE
8
0
70
0
10
180.496460
20
257.817230
30
19.288452
11
157.574463
21
246.339600
31
-49.773281
12
176.778625
22
298.812286
32
0.036685
13
176.778625
23
298.812286
33
0.036685
0
3DFACE
8
0
70
0
10
-8.734505
20
295.626770
30
2.975723
11
-4.162837
21
293.501587
31
3.411962
12
-4.278134
22
295.005737
32
34.451359
13
-20.382679
23
297.673309
33
38.201328
0
3DFACE
8
0
70
0
10
0.199617
20
296.031555
30
2.993586
11
11.537796
21
298.754761
31
38.228668
12
-4.278134
22
295.005737
32
34.451359
13
-4.162837
23
293.501587
33
3.411962
0
3DFACE
8
0
70
0
10
3.042209
20
299.622345
30
2.365257
11
22.034582
21
303.879913
31
43.824421
12
11.537796
22
298.754761
32
38.228668
13
0.199617
23
296.031555
33
2.993586
0
3DFACE
8
0
70
0
10
2.197407
20
303.125641
30
1.715001
11
19.364616
21
308.668640
31
49.537365
12
22.034582
22
303.879913
32
43.824421
13
3.042209
23
299.622345
33
2.365257
0
3DFACE
8
0
70
0
10
1.251242
20
307.473297
30
0.909078
11
16.416004
21
314.617523
31
56.620049
12
19.364616
22
308.668640
32
49.537365
13
2.197407
23
303.125641
33
1.715001
0
3DFACE
8
0
70
0
10
-2.181436
20
309.449432
30
0.511857
11
4.361186
21
317.145874
31
60.049702
12
16.416004
22
314.617523
32
56.620049
13
1.251242
23
307.473297
33
0.909078
0
3DFACE
8
0
70
0
10
-4.929887
20
310.568939
30
0.278551
11
-5.336297
21
318.531219
31
62.048962
12
4.361186
22
317.145874
32
60.049702
13
-2.181436
23
309.449432
33
0.511857
0
3DFACE
8
0
70
0
10
-4.929887
20
310.568939
30
0.278551
11
-7.566744
21
309.205414
31
0.501090
12
-14.879833
22
316.493988
32
60.033222
13
-5.336297
23
318.531219
33
62.048962
0
3DFACE
8
0
70
0
10
-7.566744
20
309.205414
30
0.501090
11
-10.808207
21
306.926880
31
0.884966
12
-26.670864
22
313.157776
32
56.583141
13
-14.879833
23
316.493988
33
60.033222
0
3DFACE
8
0
70
0
10
-10.808207
20
306.926880
30
0.884966
11
-11.360532
21
302.511353
31
1.687894
12
-29.076166
22
307.027496
32
49.495876
13
-26.670864
23
313.157776
33
56.583141
0
3DFACE
8
0
70
0
10
-11.360532
20
302.511353
30
1.687894
11
-11.887642
21
298.945862
31
2.335407
12
-31.307865
22
302.072693
32
43.778732
13
-29.076166
23
307.027496
33
49.495876
0
3DFACE
8
0
70
0
10
-11.887642
20
298.945862
30
2.335407
11
-8.734505
21
295.626770
31
2.975723
12
-20.382679
22
297.673309
32
38.201328
13
-31.307865
23
302.072693
33
43.778732
0
ENDSEC
0
EOF
