0
SECTION
2
HEADER
999
DXF File Generated by LightWave 3D(TM)
0
ENDSEC
0
SECTION
2
TABLES
0
ENDSEC
0
SECTION
2
BLOCKS
0
ENDSEC
0
SECTION
2
ENTITIES
0
3DFACE
8
0
70
0
10
-1.681933
20
-27.263840
30
89.131248
11
40.606216
21
-30.252800
31
69.175369
12
74.627716
22
-33.391571
32
37.889996
13
59.360462
23
-27.718971
33
63.650150
0
3DFACE
8
0
70
0
10
59.360466
20
-34.635239
30
-63.862602
11
61.049461
21
-52.550491
31
-45.591908
12
19.716597
22
-59.728058
32
-59.258324
13
-1.681927
23
-37.032417
33
-90.968475
0
3DFACE
8
0
70
0
10
-1.681934
20
-33.275970
30
110.848274
11
-1.681933
21
-27.263840
31
89.131248
12
59.360462
22
-27.718971
32
63.650150
13
79.028870
23
-33.990364
33
79.431267
0
3DFACE
8
0
70
0
10
79.028870
20
-42.743118
30
-81.940125
11
59.360466
21
-34.635239
31
-63.862602
12
-1.681927
22
-37.032417
32
-90.968475
13
-1.681926
23
-45.442291
33
-113.457962
0
3DFACE
8
0
70
0
10
-1.681934
20
-28.828262
30
123.917732
11
83.922836
21
-29.797211
31
88.408302
12
97.255356
22
26.521317
32
91.269859
13
-1.681935
23
28.495590
33
126.830368
0
3DFACE
8
0
70
0
10
83.922836
20
-39.687828
30
-93.941368
11
-1.681926
21
-42.576210
31
-129.548325
12
-1.682548
22
14.754150
32
-126.631897
13
97.255363
23
16.630707
33
-91.079811
0
3DFACE
8
0
70
0
10
-1.681935
20
28.495590
30
126.830368
11
97.255356
21
26.521317
31
91.269859
12
91.627304
22
27.269836
32
82.543915
13
-1.681934
23
29.033020
33
114.014206
0
3DFACE
8
0
70
0
10
-1.681934
20
-28.828262
30
123.917732
11
-1.681934
21
-33.275970
31
110.848274
12
79.028870
22
-33.990364
32
79.431267
13
83.922836
23
-29.797211
33
88.408302
0
3DFACE
8
0
70
0
10
97.255363
20
16.630707
30
-91.079811
11
-1.682548
21
14.754150
31
-126.631897
12
-1.722584
22
17.106216
32
-110.152786
13
91.627312
23
18.517090
33
-78.827477
0
3DFACE
8
0
70
0
10
83.922836
20
-39.687828
30
-93.941368
11
79.028870
21
-42.743118
31
-81.940125
12
-1.681926
22
-45.442291
32
-113.457962
13
-1.681926
23
-42.576210
33
-129.548325
0
3DFACE
8
0
70
0
10
27.673773
20
-119.444244
30
102.617195
11
74.813721
21
-119.444244
31
102.617195
12
66.977409
22
-98.812729
32
87.801697
13
33.987896
23
-98.998032
33
87.801697
0
3DFACE
8
0
70
0
10
59.360462
20
-27.718971
30
63.650150
11
74.627716
21
-33.391571
31
37.889996
12
77.861076
22
-46.132011
32
-4.378581
13
74.008339
23
-31.101410
33
1.289417
0
3DFACE
8
0
70
0
10
79.028870
20
-33.990364
30
79.431267
11
59.360462
21
-27.718971
31
63.650150
12
74.008339
22
-31.101410
32
1.289417
13
98.593857
23
-38.248459
33
0.926273
0
3DFACE
8
0
70
0
10
97.255356
20
26.521317
30
91.269859
11
83.922836
21
-29.797211
31
88.408302
12
104.711304
22
-34.531982
32
1.115108
13
121.162102
23
21.786545
33
3.976665
0
3DFACE
8
0
70
0
10
121.162102
20
21.786545
30
3.976665
11
114.127045
21
23.011749
31
4.038918
12
91.627304
22
27.269836
32
82.543915
13
97.255356
23
26.521317
33
91.269859
0
3DFACE
8
0
70
0
10
83.922836
20
-29.797211
30
88.408302
11
79.028870
21
-33.990364
31
79.431267
12
98.593857
22
-38.248459
32
0.926273
13
104.711304
23
-34.531982
33
1.115108
0
3DFACE
8
0
70
0
10
12.906889
20
-152.844193
30
102.617195
11
80.090286
21
-153.029510
31
102.617195
12
74.813721
22
-119.444244
32
102.617195
13
27.673773
23
-119.444244
33
102.617195
0
3DFACE
8
0
70
0
10
-1.769159
20
171.830750
30
7.656127
11
58.454365
21
155.299347
31
3.426355
12
50.107563
22
146.346008
32
-34.732693
13
-1.778850
23
148.654846
33
-44.956768
0
3DFACE
8
0
70
0
10
74.008339
20
-31.101410
30
1.289417
11
77.861076
21
-46.132011
31
-4.378581
12
61.049461
22
-52.550491
32
-45.591908
13
59.360466
23
-34.635239
33
-63.862602
0
3DFACE
8
0
70
0
10
98.593857
20
-38.248459
30
0.926273
11
74.008339
21
-31.101410
31
1.289417
12
59.360466
22
-34.635239
32
-63.862602
13
79.028870
23
-42.743118
33
-81.940125
0
3DFACE
8
0
70
0
10
104.711304
20
-34.531982
30
1.115108
11
83.922836
21
-39.687828
31
-93.941368
12
97.255363
22
16.630707
32
-91.079811
13
121.162102
23
21.786545
33
3.976665
0
3DFACE
8
0
70
0
10
97.255363
20
16.630707
30
-91.079811
11
91.627312
21
18.517090
31
-78.827477
12
114.127045
22
23.011749
32
4.038918
13
121.162102
23
21.786545
33
3.976665
0
3DFACE
8
0
70
0
10
104.711304
20
-34.531982
30
1.115108
11
98.593857
21
-38.248459
31
0.926273
12
79.028870
22
-42.743118
32
-81.940125
13
83.922836
23
-39.687828
33
-93.941368
0
3DFACE
8
0
70
0
10
38.127110
20
-52.398682
30
34.870407
11
40.606216
21
-30.252800
31
69.175369
12
23.583612
22
-49.041145
32
8.312291
13
25.589987
23
-60.250427
33
10.116509
0
3DFACE
8
0
70
0
10
38.127110
20
-52.398682
30
34.870407
11
73.581978
21
-52.511932
31
14.267114
12
74.627716
22
-33.391571
32
37.889996
13
40.606216
23
-30.252800
33
69.175369
0
3DFACE
8
0
70
0
10
73.581978
20
-52.511932
30
14.267114
11
79.496666
21
-56.614006
31
-5.747080
12
77.861076
22
-46.132011
32
-4.378581
13
74.627716
23
-33.391571
33
37.889996
0
3DFACE
8
0
70
0
10
25.589987
20
-60.250427
30
10.116509
11
23.583612
21
-49.041145
31
8.312291
12
19.716597
22
-59.728058
32
-59.258324
13
26.898939
23
-67.470078
33
-19.937817
0
3DFACE
8
0
70
0
10
79.496666
20
-56.614006
30
-5.747080
11
66.283661
21
-62.308334
31
-21.358232
12
61.049461
22
-52.550491
32
-45.591908
13
77.861076
23
-46.132011
33
-4.378581
0
3DFACE
8
0
70
0
10
66.283661
20
-62.308334
30
-21.358232
11
26.898939
21
-67.470078
31
-19.937817
12
19.716597
22
-59.728058
32
-59.258324
13
61.049461
23
-52.550491
33
-45.591908
0
3DFACE
8
0
70
0
10
29.733021
20
-125.637650
30
-0.345856
11
27.673773
21
-127.827744
31
43.725594
12
33.987896
22
-108.736435
32
35.947453
13
40.951439
23
-99.479668
33
28.445135
0
3DFACE
8
0
70
0
10
40.951439
20
-99.479668
30
28.445135
11
33.987896
21
-108.736435
31
35.947453
12
66.977409
22
-112.334427
32
35.947453
13
70.715767
23
-104.536789
33
10.833125
0
3DFACE
8
0
70
0
10
75.434784
20
-125.231888
30
-10.732169
11
70.715767
21
-104.536789
31
10.833125
12
66.977409
22
-112.334427
32
35.947453
13
74.813721
23
-127.827744
33
43.725594
0
3DFACE
8
0
70
0
10
9.457797
20
-153.463791
30
-29.055136
11
16.610764
21
-150.617310
31
32.613968
12
27.673773
22
-127.827744
32
43.725594
13
29.733021
23
-125.637650
33
-0.345856
0
3DFACE
8
0
70
0
10
77.178848
20
-151.803970
30
-42.369049
11
75.434784
21
-125.231888
31
-10.732169
12
74.813721
22
-127.827744
32
43.725594
13
83.794151
23
-150.723206
33
36.317848
0
3DFACE
8
0
70
0
10
77.178848
20
-151.803970
30
-42.369049
11
83.794151
21
-150.723206
31
36.317848
12
16.610764
22
-150.617310
32
32.613968
13
9.457797
23
-153.463791
33
-29.055136
0
3DFACE
8
0
70
0
10
27.673773
20
-119.444244
30
102.617195
11
33.987896
21
-98.998032
31
87.801697
12
33.987896
22
-108.736435
32
35.947453
13
27.673773
23
-127.827744
33
43.725594
0
3DFACE
8
0
70
0
10
33.987896
20
-98.998032
30
87.801697
11
66.977409
21
-98.812729
31
87.801697
12
66.977409
22
-112.334427
32
35.947453
13
33.987896
23
-108.736435
33
35.947453
0
3DFACE
8
0
70
0
10
74.813721
20
-119.444244
30
102.617195
11
74.813721
21
-127.827744
31
43.725594
12
66.977409
22
-112.334427
32
35.947453
13
66.977409
23
-98.812729
33
87.801697
0
3DFACE
8
0
70
0
10
12.906889
20
-152.844193
30
102.617195
11
27.673773
21
-119.444244
31
102.617195
12
27.673773
22
-127.827744
32
43.725594
13
16.610764
23
-150.617310
33
32.613968
0
3DFACE
8
0
70
0
10
80.090286
20
-153.029510
30
102.617195
11
83.794151
21
-150.723206
31
36.317848
12
74.813721
22
-127.827744
32
43.725594
13
74.813721
23
-119.444244
33
102.617195
0
3DFACE
8
0
70
0
10
80.090286
20
-153.029510
30
102.617195
11
12.906889
21
-152.844193
31
102.617195
12
16.610764
22
-150.617310
32
32.613968
13
83.794151
23
-150.723206
33
36.317848
0
3DFACE
8
0
70
0
10
215.794510
20
180.932953
30
196.893188
11
230.080338
21
182.267212
31
178.415237
12
215.966827
22
198.349762
32
182.624130
13
199.084564
23
189.785034
33
192.818558
0
3DFACE
8
0
70
0
10
71.532959
20
121.654114
30
-24.877623
11
50.107563
21
146.346008
31
-34.732693
12
58.454365
22
155.299347
32
3.426355
13
58.454365
23
155.299347
33
3.426355
0
3DFACE
8
0
70
0
10
76.387352
20
140.588745
30
51.384529
11
58.454365
21
155.299347
31
3.426355
12
49.740845
22
129.862305
32
64.476280
13
49.740845
23
129.862305
33
64.476280
0
3DFACE
8
0
70
0
10
151.219070
20
122.348938
30
57.355686
11
174.813782
21
83.141846
31
73.741959
12
181.654861
22
98.762024
32
105.674652
13
159.643448
23
139.432465
33
88.045097
0
3DFACE
8
0
70
0
10
202.303635
20
124.680054
30
42.925343
11
151.219070
21
122.348938
31
57.355686
12
159.643448
22
139.432465
32
88.045097
13
210.841553
23
143.512939
33
72.584625
0
3DFACE
8
0
70
0
10
225.247452
20
105.162842
30
90.836243
11
217.973251
21
87.478500
31
60.195770
12
202.303635
22
124.680054
32
42.925343
13
210.841553
23
143.512939
33
72.584625
0
3DFACE
8
0
70
0
10
174.813782
20
83.141846
30
73.741959
11
217.973251
21
87.478500
31
60.195770
12
225.247452
22
105.162842
32
90.836243
13
181.654861
23
98.762024
33
105.674652
0
3DFACE
8
0
70
0
10
177.205551
20
90.031982
30
111.810844
11
183.278198
21
104.051056
31
142.376236
12
156.917984
22
160.835632
32
115.580788
13
149.026291
23
145.301514
33
87.408585
0
3DFACE
8
0
70
0
10
149.026291
20
145.301514
30
87.408585
11
156.917984
21
160.835632
31
115.580788
12
225.418900
22
169.679077
32
92.023743
13
217.533279
23
152.362000
33
65.805428
0
3DFACE
8
0
70
0
10
242.123154
20
116.326965
30
119.205879
11
235.623596
21
100.065598
31
91.092903
12
217.533279
22
152.362000
32
65.805428
13
225.418900
23
169.679077
33
92.023743
0
3DFACE
8
0
70
0
10
177.205551
20
90.031982
30
111.810844
11
235.623596
21
100.065598
31
91.092903
12
242.123154
22
116.326965
32
119.205879
13
183.278198
23
104.051056
33
142.376236
0
3DFACE
8
0
70
0
10
177.205551
20
90.031982
30
111.810844
11
149.026291
21
145.301514
31
87.408585
12
159.643448
22
139.432465
32
88.045097
13
181.654861
23
98.762024
33
105.674652
0
3DFACE
8
0
70
0
10
183.278198
20
104.051056
30
142.376236
11
188.097855
21
113.473236
31
135.749054
12
167.368057
22
155.097046
32
116.185486
13
156.917984
23
160.835632
33
115.580788
0
3DFACE
8
0
70
0
10
149.026291
20
145.301514
30
87.408585
11
217.533279
21
152.362000
31
65.805428
12
210.841553
22
143.512939
32
72.584625
13
159.643448
23
139.432465
33
88.045097
0
3DFACE
8
0
70
0
10
156.917984
20
160.835632
30
115.580788
11
167.368057
21
155.097046
31
116.185486
12
218.483002
22
160.368347
32
99.129738
13
225.418900
23
169.679077
33
92.023743
0
3DFACE
8
0
70
0
10
242.123154
20
116.326965
30
119.205879
11
225.418900
21
169.679077
31
92.023743
12
218.483002
22
160.368347
32
99.129738
13
231.917435
23
121.378326
33
118.931770
0
3DFACE
8
0
70
0
10
235.623596
20
100.065598
30
91.092903
11
225.247452
21
105.162842
31
90.836243
12
210.841553
22
143.512939
32
72.584625
13
217.533279
23
152.362000
33
65.805428
0
3DFACE
8
0
70
0
10
183.278198
20
104.051056
30
142.376236
11
242.123154
21
116.326965
31
119.205879
12
231.917435
22
121.378326
32
118.931770
13
188.097855
23
113.473236
33
135.749054
0
3DFACE
8
0
70
0
10
177.205551
20
90.031982
30
111.810844
11
181.654861
21
98.762024
31
105.674652
12
225.247452
22
105.162842
32
90.836243
13
235.623596
23
100.065598
33
91.092903
0
3DFACE
8
0
70
0
10
200.071579
20
116.184692
30
119.724266
11
172.960342
21
132.988892
31
112.221764
12
167.368057
22
155.097046
32
116.185486
13
188.097855
23
113.473236
33
135.749054
0
3DFACE
8
0
70
0
10
172.960342
20
132.988892
30
112.221764
11
198.924866
21
149.386292
31
94.929710
12
218.483002
22
160.368347
32
99.129738
13
167.368057
23
155.097046
33
116.185486
0
3DFACE
8
0
70
0
10
221.020264
20
132.026733
30
103.649788
11
231.917435
21
121.378326
31
118.931770
12
218.483002
22
160.368347
32
99.129738
13
198.924866
23
149.386292
33
94.929710
0
3DFACE
8
0
70
0
10
200.071579
20
116.184692
30
119.724266
11
188.097855
21
113.473236
31
135.749054
12
231.917435
22
121.378326
32
118.931770
13
221.020264
23
132.026733
33
103.649788
0
3DFACE
8
0
70
0
10
157.872635
20
151.085327
30
162.821625
11
156.512421
21
159.833801
31
156.321320
12
154.544754
22
152.845886
32
145.585983
13
155.790359
23
144.088318
33
152.088745
0
3DFACE
8
0
70
0
10
156.512421
20
159.833801
30
156.321320
11
155.890701
21
168.908447
31
149.498245
12
153.803558
22
161.933044
32
138.800156
13
154.544754
23
152.845886
33
145.585983
0
3DFACE
8
0
70
0
10
238.917999
20
150.384766
30
128.325607
11
221.020264
21
132.026733
31
103.649788
12
198.924866
22
149.386292
32
94.929710
13
207.911453
23
167.895874
33
121.154930
0
3DFACE
8
0
70
0
10
207.961029
20
134.773499
30
146.230408
11
200.071579
21
116.184692
31
119.724266
12
221.020264
22
132.026733
32
103.649788
13
238.917999
23
150.384766
33
128.325607
0
3DFACE
8
0
70
0
10
215.794510
20
180.932953
30
196.893188
11
199.084564
21
189.785034
31
192.818558
12
179.226059
22
160.776245
32
150.805511
13
207.961029
23
134.773499
33
146.230408
0
3DFACE
8
0
70
0
10
199.084564
20
189.785034
30
192.818558
11
215.966827
21
198.349762
31
182.624130
12
207.911453
22
167.895874
32
121.154930
13
179.226059
23
160.776245
33
150.805511
0
3DFACE
8
0
70
0
10
230.080338
20
182.267212
30
178.415237
11
238.917999
21
150.384766
31
128.325607
12
207.911453
22
167.895874
32
121.154930
13
215.966827
23
198.349762
33
182.624130
0
3DFACE
8
0
70
0
10
215.794510
20
180.932953
30
196.893188
11
207.961029
21
134.773499
31
146.230408
12
238.917999
22
150.384766
32
128.325607
13
230.080338
23
182.267212
33
178.415237
0
3DFACE
8
0
70
0
10
157.872635
20
151.085327
30
162.821625
11
155.790359
21
144.088318
31
152.088745
12
200.071579
22
116.184692
32
119.724266
13
207.961029
23
134.773499
33
146.230408
0
3DFACE
8
0
70
0
10
155.790359
20
144.088318
30
152.088745
11
154.544754
21
152.845886
31
145.585983
12
172.960342
22
132.988892
32
112.221764
13
200.071579
23
116.184692
33
119.724266
0
3DFACE
8
0
70
0
10
157.872635
20
151.085327
30
162.821625
11
207.961029
21
134.773499
31
146.230408
12
179.226059
22
160.776245
32
150.805511
13
156.512421
23
159.833801
33
156.321320
0
3DFACE
8
0
70
0
10
154.544754
20
152.845886
30
145.585983
11
153.803558
21
161.933044
31
138.800156
12
198.924866
22
149.386292
32
94.929710
13
172.960342
23
132.988892
33
112.221764
0
3DFACE
8
0
70
0
10
155.890701
20
168.908447
30
149.498245
11
207.911453
21
167.895874
31
121.154930
12
198.924866
22
149.386292
32
94.929710
13
153.803558
23
161.933044
33
138.800156
0
3DFACE
8
0
70
0
10
156.512421
20
159.833801
30
156.321320
11
179.226059
21
160.776245
31
150.805511
12
207.911453
22
167.895874
32
121.154930
13
155.890701
23
168.908447
33
149.498245
0
3DFACE
8
0
70
0
10
-1.681933
20
-27.263840
30
89.131248
11
-62.724319
21
-27.718971
31
63.650154
12
-62.944714
22
-32.940025
32
44.208340
13
-22.744478
23
-32.964355
33
63.342674
0
3DFACE
8
0
70
0
10
-62.724316
20
-34.635239
30
-63.862598
11
-1.681927
21
-37.032417
31
-90.968475
12
-33.529091
22
-60.240585
32
-67.365768
13
-69.954712
23
-50.669586
33
-40.752148
0
3DFACE
8
0
70
0
10
-1.681934
20
-33.275970
30
110.848274
11
-82.392738
21
-33.990364
31
79.431274
12
-62.724319
22
-27.718971
32
63.650154
13
-1.681933
23
-27.263840
33
89.131248
0
3DFACE
8
0
70
0
10
-82.392731
20
-42.743118
30
-81.940117
11
-1.681926
21
-45.442291
31
-113.457962
12
-1.681927
22
-37.032417
32
-90.968475
13
-62.724316
23
-34.635239
33
-63.862598
0
3DFACE
8
0
70
0
10
-1.681934
20
-28.828262
30
123.917732
11
-1.681935
21
28.495590
31
126.830368
12
-100.619232
22
26.521317
32
91.269867
13
-87.286697
23
-29.797211
33
88.408310
0
3DFACE
8
0
70
0
10
-87.286690
20
-39.687820
30
-93.941360
11
-100.619225
21
16.630707
31
-91.079803
12
-1.682548
22
14.754150
32
-126.631897
13
-1.681926
23
-42.576210
33
-129.548325
0
3DFACE
8
0
70
0
10
-1.681935
20
28.495590
30
126.830368
11
-1.681934
21
29.033020
31
114.014206
12
-94.991173
22
27.269852
32
82.543922
13
-100.619232
23
26.521317
33
91.269867
0
3DFACE
8
0
70
0
10
-1.681934
20
-28.828262
30
123.917732
11
-87.286697
21
-29.797211
31
88.408310
12
-82.392738
22
-33.990364
32
79.431274
13
-1.681934
23
-33.275970
33
110.848274
0
3DFACE
8
0
70
0
10
-100.619225
20
16.630707
30
-91.079803
11
-94.991165
21
18.517090
31
-78.827469
12
-1.722584
22
17.106216
32
-110.152786
13
-1.682548
23
14.754150
33
-126.631897
0
3DFACE
8
0
70
0
10
-87.286690
20
-39.687820
30
-93.941360
11
-1.681926
21
-42.576210
31
-129.548325
12
-1.681926
22
-45.442291
32
-113.457962
13
-82.392731
23
-42.743118
33
-81.940117
0
3DFACE
8
0
70
0
10
-31.473774
20
-119.444244
30
102.617195
11
-37.787899
21
-98.998032
31
87.801697
12
-70.777412
22
-98.812729
32
87.801697
13
-78.613716
23
-119.444244
33
102.617195
0
3DFACE
8
0
70
0
10
-62.724319
20
-27.718971
30
63.650154
11
-77.372192
21
-31.101410
31
1.289424
12
-76.263199
22
-44.276413
32
4.434472
13
-62.944714
23
-32.940025
33
44.208340
0
3DFACE
8
0
70
0
10
-82.392738
20
-33.990364
30
79.431274
11
-101.957718
21
-38.248459
31
0.926281
12
-77.372192
22
-31.101410
32
1.289424
13
-62.724319
23
-27.718971
33
63.650154
0
3DFACE
8
0
70
0
10
-100.619232
20
26.521317
30
91.269867
11
-124.525970
21
21.786560
31
3.976675
12
-108.075157
22
-34.531982
32
1.115117
13
-87.286697
23
-29.797211
33
88.408310
0
3DFACE
8
0
70
0
10
-124.525970
20
21.786560
30
3.976675
11
-100.619232
21
26.521317
31
91.269867
12
-94.991173
22
27.269852
32
82.543922
13
-117.490891
23
23.011749
33
4.038927
0
3DFACE
8
0
70
0
10
-87.286697
20
-29.797211
30
88.408310
11
-108.075157
21
-34.531982
31
1.115117
12
-101.957718
22
-38.248459
32
0.926281
13
-82.392738
23
-33.990364
33
79.431274
0
3DFACE
8
0
70
0
10
-16.706890
20
-152.844193
30
102.617195
11
-31.473774
21
-119.444244
31
102.617195
12
-78.613716
22
-119.444244
32
102.617195
13
-83.890282
23
-153.029510
33
102.617195
0
3DFACE
8
0
70
0
10
-1.769159
20
171.830750
30
7.656127
11
-1.778850
21
148.654846
31
-44.956768
12
-53.590374
22
146.346008
32
-34.732693
13
-60.141422
23
151.707458
33
5.372031
0
3DFACE
8
0
70
0
10
-77.372192
20
-31.101410
30
1.289424
11
-62.724316
21
-34.635239
31
-63.862598
12
-69.954712
22
-50.669586
32
-40.752148
13
-76.263199
23
-44.276413
33
4.434472
0
3DFACE
8
0
70
0
10
-101.957718
20
-38.248459
30
0.926281
11
-82.392731
21
-42.743118
31
-81.940117
12
-62.724316
22
-34.635239
32
-63.862598
13
-77.372192
23
-31.101410
33
1.289424
0
3DFACE
8
0
70
0
10
-108.075157
20
-34.531982
30
1.115117
11
-124.525970
21
21.786560
31
3.976675
12
-100.619225
22
16.630707
32
-91.079803
13
-87.286690
23
-39.687820
33
-93.941360
0
3DFACE
8
0
70
0
10
-100.619225
20
16.630707
30
-91.079803
11
-124.525970
21
21.786560
31
3.976675
12
-117.490891
22
23.011749
32
4.038927
13
-94.991165
23
18.517090
33
-78.827469
0
3DFACE
8
0
70
0
10
-108.075157
20
-34.531982
30
1.115117
11
-87.286690
21
-39.687820
31
-93.941360
12
-82.392731
22
-42.743118
32
-81.940117
13
-101.957718
23
-38.248459
33
0.926281
0
3DFACE
8
0
70
0
10
-26.140779
20
-54.480759
30
27.028677
11
-21.982327
21
-62.835220
31
-1.305749
12
-21.069874
22
-51.187897
32
-0.952834
13
-22.744478
23
-32.964355
33
63.342674
0
3DFACE
8
0
70
0
10
-26.140779
20
-54.480759
30
27.028677
11
-22.744478
21
-32.964355
31
63.342674
12
-62.944714
22
-32.940025
32
44.208340
13
-65.404495
23
-50.640564
33
22.219591
0
3DFACE
8
0
70
0
10
-65.404495
20
-50.640564
30
22.219591
11
-62.944714
21
-32.940025
31
44.208340
12
-76.263199
22
-44.276413
32
4.434472
13
-76.986557
23
-53.619919
33
5.877325
0
3DFACE
8
0
70
0
10
-21.982327
20
-62.835220
30
-1.305749
11
-32.323959
21
-69.090401
31
-28.944313
12
-33.529091
22
-60.240585
32
-67.365768
13
-21.069874
23
-51.187897
33
-0.952834
0
3DFACE
8
0
70
0
10
-76.986557
20
-53.619919
30
5.877325
11
-76.263199
21
-44.276413
31
4.434472
12
-69.954712
22
-50.669586
32
-40.752148
13
-69.423561
23
-60.136826
33
-14.162853
0
3DFACE
8
0
70
0
10
-69.423561
20
-60.136826
30
-14.162853
11
-69.954712
21
-50.669586
31
-40.752148
12
-33.529091
22
-60.240585
32
-67.365768
13
-32.323959
23
-69.090401
33
-28.944313
0
3DFACE
8
0
70
0
10
-31.389713
20
-127.232765
30
-7.544248
11
-34.378391
21
-100.793839
31
23.842520
12
-37.787899
22
-108.736435
32
35.947453
13
-31.473774
23
-127.827744
33
43.725594
0
3DFACE
8
0
70
0
10
-34.378391
20
-100.793839
30
23.842520
11
-67.440964
21
-103.254982
31
16.465496
12
-70.777412
22
-112.334427
32
35.947453
13
-37.787899
23
-108.736435
33
35.947453
0
3DFACE
8
0
70
0
10
-77.874420
20
-123.162086
30
-2.809869
11
-78.613716
21
-127.827744
31
43.725594
12
-70.777412
22
-112.334427
32
35.947453
13
-67.440964
23
-103.254982
33
16.465496
0
3DFACE
8
0
70
0
10
-19.718309
20
-156.027191
30
-41.775402
11
-31.389713
21
-127.232765
31
-7.544248
12
-31.473774
22
-127.827744
32
43.725594
13
-20.410763
23
-150.617310
33
32.613968
0
3DFACE
8
0
70
0
10
-88.064392
20
-148.976776
30
-32.757549
11
-87.594154
21
-150.723206
31
36.317848
12
-78.613716
22
-127.827744
32
43.725594
13
-77.874420
23
-123.162086
33
-2.809869
0
3DFACE
8
0
70
0
10
-88.064392
20
-148.976776
30
-32.757549
11
-19.718309
21
-156.027191
31
-41.775402
12
-20.410763
22
-150.617310
32
32.613968
13
-87.594154
23
-150.723206
33
36.317848
0
3DFACE
8
0
70
0
10
-31.473774
20
-119.444244
30
102.617195
11
-31.473774
21
-127.827744
31
43.725594
12
-37.787899
22
-108.736435
32
35.947453
13
-37.787899
23
-98.998032
33
87.801697
0
3DFACE
8
0
70
0
10
-37.787899
20
-98.998032
30
87.801697
11
-37.787899
21
-108.736435
31
35.947453
12
-70.777412
22
-112.334427
32
35.947453
13
-70.777412
23
-98.812729
33
87.801697
0
3DFACE
8
0
70
0
10
-78.613716
20
-119.444244
30
102.617195
11
-70.777412
21
-98.812729
31
87.801697
12
-70.777412
22
-112.334427
32
35.947453
13
-78.613716
23
-127.827744
33
43.725594
0
3DFACE
8
0
70
0
10
-16.706890
20
-152.844193
30
102.617195
11
-20.410763
21
-150.617310
31
32.613968
12
-31.473774
22
-127.827744
32
43.725594
13
-31.473774
23
-119.444244
33
102.617195
0
3DFACE
8
0
70
0
10
-83.890282
20
-153.029510
30
102.617195
11
-78.613716
21
-119.444244
31
102.617195
12
-78.613716
22
-127.827744
32
43.725594
13
-87.594154
23
-150.723206
33
36.317848
0
3DFACE
8
0
70
0
10
-83.890282
20
-153.029510
30
102.617195
11
-87.594154
21
-150.723206
31
36.317848
12
-20.410763
22
-150.617310
32
32.613968
13
-16.706890
23
-152.844193
33
102.617195
0
3DFACE
8
0
70
0
10
-196.760513
20
27.788635
30
188.416000
11
-183.083252
21
39.122498
31
196.075043
12
-203.044647
22
46.290756
32
199.603592
13
-215.247086
23
40.795578
33
182.385605
0
3DFACE
8
0
70
0
10
-80.284149
20
128.409546
30
-30.859509
11
-60.141422
21
151.707458
31
5.372031
12
-53.590374
22
146.346008
32
-34.732693
13
-53.590374
23
146.346008
33
-34.732693
0
3DFACE
8
0
70
0
10
-80.580864
20
125.667358
30
48.721897
11
-53.198170
21
129.862305
31
64.476288
12
-60.141422
22
151.707458
32
5.372031
13
-60.141422
23
151.707458
33
5.372031
0
3DFACE
8
0
70
0
10
-152.578339
20
120.307800
30
51.680317
11
-152.812134
21
107.088348
31
85.293549
12
-198.242493
22
88.611832
32
78.653526
13
-198.058151
23
104.145187
33
45.955395
0
3DFACE
8
0
70
0
10
-187.087448
20
157.709412
30
66.962463
11
-186.118912
21
146.020844
31
101.163132
12
-152.812134
22
107.088348
32
85.293549
13
-152.578339
23
120.307800
33
51.680317
0
3DFACE
8
0
70
0
10
-224.455460
20
124.190002
30
93.094360
11
-186.118912
21
146.020844
31
101.163132
12
-187.087448
22
157.709412
32
66.962463
13
-225.477722
23
137.709290
33
59.617889
0
3DFACE
8
0
70
0
10
-198.058151
20
104.145187
30
45.955395
11
-198.242493
21
88.611832
31
78.653526
12
-224.455460
22
124.190002
32
93.094360
13
-225.477722
23
137.709290
33
59.617889
0
3DFACE
8
0
70
0
10
-201.489883
20
78.276428
30
74.616592
11
-140.980789
21
104.588745
31
84.133553
12
-141.409256
22
92.474960
32
114.961052
13
-201.908508
23
62.815430
33
105.086861
0
3DFACE
8
0
70
0
10
-140.980789
20
104.588745
30
84.133553
11
-184.374084
21
158.011902
31
105.876175
12
-183.341858
22
148.103333
32
136.701782
13
-141.409256
23
92.474960
33
114.961052
0
3DFACE
8
0
70
0
10
-234.458176
20
114.686279
30
125.092583
11
-183.341858
21
148.103333
31
136.701782
12
-184.374084
22
158.011902
32
105.876175
13
-235.549988
23
127.162933
33
94.430618
0
3DFACE
8
0
70
0
10
-201.489883
20
78.276428
30
74.616592
11
-201.908508
21
62.815430
31
105.086861
12
-234.458176
22
114.686279
32
125.092583
13
-235.549988
23
127.162933
33
94.430618
0
3DFACE
8
0
70
0
10
-201.489883
20
78.276428
30
74.616592
11
-198.242493
21
88.611832
31
78.653526
12
-152.812134
22
107.088348
32
85.293549
13
-140.980789
23
104.588745
33
84.133553
0
3DFACE
8
0
70
0
10
-201.908508
20
62.815430
30
105.086861
11
-141.409256
21
92.474960
31
114.961052
12
-153.026505
22
94.966843
32
116.114861
13
-198.416138
23
73.982452
33
109.448853
0
3DFACE
8
0
70
0
10
-140.980789
20
104.588745
30
84.133553
11
-152.812134
21
107.088348
31
85.293549
12
-186.118912
22
146.020844
32
101.163132
13
-184.374084
23
158.011902
33
105.876175
0
3DFACE
8
0
70
0
10
-141.409256
20
92.474960
30
114.961052
11
-183.341858
21
148.103333
31
136.701782
12
-185.252121
22
135.559509
32
131.772736
13
-153.026505
23
94.966843
33
116.114861
0
3DFACE
8
0
70
0
10
-234.458176
20
114.686279
30
125.092583
11
-223.518112
21
111.793579
31
123.790260
12
-185.252121
22
135.559509
32
131.772736
13
-183.341858
23
148.103333
33
136.701782
0
3DFACE
8
0
70
0
10
-235.549988
20
127.162933
30
94.430618
11
-184.374084
21
158.011902
31
105.876175
12
-186.118912
22
146.020844
32
101.163132
13
-224.455460
23
124.190002
33
93.094360
0
3DFACE
8
0
70
0
10
-201.908508
20
62.815430
30
105.086861
11
-198.416138
21
73.982452
31
109.448853
12
-223.518112
22
111.793579
32
123.790260
13
-234.458176
23
114.686279
33
125.092583
0
3DFACE
8
0
70
0
10
-201.489883
20
78.276428
30
74.616592
11
-235.549988
21
127.162933
31
94.430618
12
-224.455460
22
124.190002
32
93.094360
13
-198.242493
23
88.611832
33
78.653526
0
3DFACE
8
0
70
0
10
-193.605896
20
83.605469
30
102.135574
11
-198.416138
21
73.982452
31
109.448853
12
-153.026505
22
94.966843
32
116.114861
13
-169.201889
23
101.163544
33
112.933350
0
3DFACE
8
0
70
0
10
-169.201889
20
101.163544
30
112.933350
11
-153.026505
21
94.966843
31
116.114861
12
-185.252121
22
135.559509
32
131.772736
13
-197.594101
23
118.773804
33
121.393478
0
3DFACE
8
0
70
0
10
-216.944778
20
100.718033
30
110.408394
11
-197.594101
21
118.773804
31
121.393478
12
-185.252121
22
135.559509
32
131.772736
13
-223.518112
23
111.793579
33
123.790260
0
3DFACE
8
0
70
0
10
-193.605896
20
83.605469
30
102.135574
11
-216.944778
21
100.718033
31
110.408394
12
-223.518112
22
111.793579
32
123.790260
13
-198.416138
23
73.982452
33
109.448853
0
3DFACE
8
0
70
0
10
-145.462753
20
65.248627
30
151.375702
11
-145.126419
21
73.223572
31
141.139664
12
-146.843170
22
82.301590
32
147.070572
13
-147.067856
23
74.354172
33
157.304733
0
3DFACE
8
0
70
0
10
-147.067856
20
74.354172
30
157.304733
11
-146.843170
21
82.301590
31
147.070572
12
-149.161743
22
91.598450
32
153.183334
13
-149.508270
23
83.646393
33
163.386612
0
3DFACE
8
0
70
0
10
-231.550247
20
72.972107
30
134.401871
11
-206.232697
21
94.006500
31
149.765488
12
-197.594101
22
118.773804
32
121.393478
13
-216.944778
23
100.718033
33
110.408394
0
3DFACE
8
0
70
0
10
-195.157959
20
60.568909
30
127.739326
11
-231.550247
21
72.972107
31
134.401871
12
-216.944778
22
100.718033
32
110.408394
13
-193.605896
23
83.605469
33
102.135574
0
3DFACE
8
0
70
0
10
-196.760513
20
27.788635
30
188.416000
11
-195.157959
21
60.568909
31
127.739326
12
-170.323883
22
73.150665
32
155.084167
13
-183.083252
23
39.122498
33
196.075043
0
3DFACE
8
0
70
0
10
-183.083252
20
39.122498
30
196.075043
11
-170.323883
21
73.150665
31
155.084167
12
-206.232697
22
94.006500
32
149.765488
13
-203.044647
23
46.290756
33
199.603592
0
3DFACE
8
0
70
0
10
-215.247086
20
40.795578
30
182.385605
11
-203.044647
21
46.290756
31
199.603592
12
-206.232697
22
94.006500
32
149.765488
13
-231.550247
23
72.972107
33
134.401871
0
3DFACE
8
0
70
0
10
-196.760513
20
27.788635
30
188.416000
11
-215.247086
21
40.795578
31
182.385605
12
-231.550247
22
72.972107
32
134.401871
13
-195.157959
23
60.568909
33
127.739326
0
3DFACE
8
0
70
0
10
-145.462753
20
65.248627
30
151.375702
11
-195.157959
21
60.568909
31
127.739326
12
-193.605896
22
83.605469
32
102.135574
13
-145.126419
23
73.223572
33
141.139664
0
3DFACE
8
0
70
0
10
-145.126419
20
73.223572
30
141.139664
11
-193.605896
21
83.605469
31
102.135574
12
-169.201889
22
101.163544
32
112.933350
13
-146.843170
23
82.301590
33
147.070572
0
3DFACE
8
0
70
0
10
-145.462753
20
65.248627
30
151.375702
11
-147.067856
21
74.354172
31
157.304733
12
-170.323883
22
73.150665
32
155.084167
13
-195.157959
23
60.568909
33
127.739326
0
3DFACE
8
0
70
0
10
-146.843170
20
82.301590
30
147.070572
11
-169.201889
21
101.163544
31
112.933350
12
-197.594101
22
118.773804
32
121.393478
13
-149.161743
23
91.598450
33
153.183334
0
3DFACE
8
0
70
0
10
-149.508270
20
83.646393
30
163.386612
11
-149.161743
21
91.598450
31
153.183334
12
-197.594101
22
118.773804
32
121.393478
13
-206.232697
23
94.006500
33
149.765488
0
3DFACE
8
0
70
0
10
-147.067856
20
74.354172
30
157.304733
11
-149.508270
21
83.646393
31
163.386612
12
-206.232697
22
94.006500
32
149.765488
13
-170.323883
23
73.150665
33
155.084167
0
3DFACE
8
0
70
0
10
23.583612
20
-49.041145
30
8.312291
11
40.606216
21
-30.252800
31
69.175369
12
-1.681933
22
-27.263840
32
89.131248
13
-1.681930
23
-32.052185
33
0.850247
0
3DFACE
8
0
70
0
10
23.583612
20
-49.041145
30
8.312291
11
-1.681930
21
-32.052185
31
0.850247
12
-1.681927
22
-37.032417
32
-90.968475
13
19.716597
23
-59.728058
33
-59.258324
0
3DFACE
8
0
70
0
10
-1.681927
20
-37.032417
30
-90.968475
11
-1.681930
21
-32.052185
31
0.850247
12
-21.069874
22
-51.187897
32
-0.952834
13
-33.529091
23
-60.240585
33
-67.365768
0
3DFACE
8
0
70
0
10
-1.681930
20
-32.052185
30
0.850247
11
-1.681933
21
-27.263840
31
89.131248
12
-22.744478
22
-32.964355
32
63.342674
13
-21.069874
23
-51.187897
33
-0.952834
0
3DFACE
8
0
70
0
10
17.278070
20
186.366089
30
121.855721
11
26.419180
21
186.579102
31
114.813499
12
36.376541
22
204.580750
32
116.809746
13
18.185089
23
205.141357
33
126.731468
0
3DFACE
8
0
70
0
10
18.185089
20
205.141357
30
126.731468
11
36.376541
21
204.580750
31
116.809746
12
29.108860
22
213.059845
32
116.433701
13
17.303974
23
216.694946
33
121.994965
0
3DFACE
8
0
70
0
10
26.419180
20
186.579102
30
114.813499
11
25.022678
21
182.509308
31
102.203918
12
36.166359
22
201.078827
32
99.271713
13
36.376541
23
204.580750
33
116.809746
0
3DFACE
8
0
70
0
10
17.278070
20
186.366089
30
121.855721
11
14.860328
21
180.074860
31
110.271729
12
25.022678
22
182.509308
32
102.203918
13
26.419180
23
186.579102
33
114.813499
0
3DFACE
8
0
70
0
10
17.303974
20
216.694946
30
121.994965
11
29.108860
21
213.059845
31
116.433701
12
28.031796
22
212.983704
32
100.148819
13
14.407493
23
217.232605
33
107.837471
0
3DFACE
8
0
70
0
10
36.376541
20
204.580750
30
116.809746
11
36.166359
21
201.078827
31
99.271713
12
28.031796
22
212.983704
32
100.148819
13
29.108860
23
213.059845
33
116.433701
0
3DFACE
8
0
70
0
10
17.569338
20
226.472656
30
102.754181
11
17.861841
21
217.045776
31
104.326561
12
27.761381
22
214.389465
32
97.235390
13
29.259806
23
233.899017
33
98.089111
0
3DFACE
8
0
70
0
10
27.761381
20
214.389465
30
97.235390
11
36.003929
21
215.014069
31
89.258972
12
38.846939
22
225.645447
32
84.452904
13
29.259806
23
233.899017
33
98.089111
0
3DFACE
8
0
70
0
10
30.213348
20
165.626831
30
121.770981
11
24.116951
21
183.928162
31
110.656998
12
15.756238
22
182.678223
32
115.087769
13
17.568489
23
165.463928
33
124.829666
0
3DFACE
8
0
70
0
10
59.002663
20
179.757019
30
69.163689
11
57.273830
21
190.657532
31
68.650093
12
38.297176
22
184.778015
32
93.583763
13
46.682693
23
162.362579
33
99.795609
0
3DFACE
8
0
70
0
10
24.116951
20
183.928162
30
110.656998
11
30.213348
21
165.626831
31
121.770981
12
46.513748
22
167.304688
32
109.806602
13
38.542229
23
184.183105
33
107.838913
0
3DFACE
8
0
70
0
10
53.512074
20
222.360321
30
67.757660
11
65.350807
21
224.981628
31
64.878914
12
44.115944
22
231.023346
32
87.889999
13
43.530354
23
227.624817
33
86.342598
0
3DFACE
8
0
70
0
10
14.618217
20
230.504211
30
108.970245
11
14.095693
21
228.451050
31
106.161362
12
29.258263
22
235.845032
32
100.852303
13
31.050222
23
238.143799
33
101.907814
0
3DFACE
8
0
70
0
10
31.050222
20
238.143799
30
101.907814
11
29.258263
21
235.845032
31
100.852303
12
43.530354
22
227.624817
32
86.342598
13
44.115944
23
231.023346
33
87.889999
0
3DFACE
8
0
70
0
10
17.457336
20
138.789490
30
124.232162
11
33.090519
21
146.746155
31
114.360588
12
29.489597
22
155.761383
32
112.403694
13
16.763815
23
153.121460
33
120.504082
0
3DFACE
8
0
70
0
10
14.073300
20
94.468506
30
106.041000
11
33.363430
21
106.773376
31
98.411995
12
33.090519
22
146.746155
32
114.360588
13
17.457336
23
138.789490
33
124.232162
0
3DFACE
8
0
70
0
10
59.002663
20
179.757019
30
69.163689
11
46.682693
21
162.362579
31
99.795609
12
44.400501
22
158.616516
32
91.262939
13
63.362976
23
168.704865
33
72.245018
0
3DFACE
8
0
70
0
10
44.400501
20
158.616516
30
91.262939
11
50.421658
21
130.862762
31
61.442730
12
57.090759
22
159.518372
32
42.188129
13
63.362976
23
168.704865
33
72.245018
0
3DFACE
8
0
70
0
10
33.363430
20
106.773376
30
98.411995
11
50.421658
21
130.862762
31
61.442730
12
44.400501
22
158.616516
32
91.262939
13
33.090519
23
146.746155
33
114.360588
0
3DFACE
8
0
70
0
10
33.090519
20
146.746155
30
114.360588
11
44.400501
21
158.616516
31
91.262939
12
46.682693
22
162.362579
32
99.795609
13
29.489597
23
155.761383
33
112.403694
0
3DFACE
8
0
70
0
10
17.568489
20
165.463928
30
124.829666
11
16.763815
21
153.121460
31
120.504082
12
29.489597
22
155.761383
32
112.403694
13
30.213348
23
165.626831
33
121.770981
0
3DFACE
8
0
70
0
10
15.756238
20
182.678223
30
115.087769
11
24.116951
21
183.928162
31
110.656998
12
25.022678
22
182.509308
32
102.203918
13
14.860328
23
180.074860
33
110.271729
0
3DFACE
8
0
70
0
10
38.542229
20
184.183105
30
107.838913
11
38.297176
21
184.778015
31
93.583763
12
25.022678
22
182.509308
32
102.203918
13
24.116951
23
183.928162
33
110.656998
0
POINT
8
0
70
0
10
63.993511
20
164.923309
30
87.839935
0
3DFACE
8
0
70
0
10
30.213348
20
165.626831
30
121.770981
11
29.489597
21
155.761383
31
112.403694
12
46.682693
22
162.362579
32
99.795609
13
46.513748
23
167.304688
33
109.806602
0
3DFACE
8
0
70
0
10
46.513748
20
167.304688
30
109.806602
11
63.993511
21
164.923309
31
87.839935
12
38.542229
22
184.183105
32
107.838913
13
38.542229
23
184.183105
33
107.838913
0
3DFACE
8
0
70
0
10
38.542229
20
184.183105
30
107.838913
11
63.993511
21
164.923309
31
87.839935
12
38.297176
22
184.778015
32
93.583763
13
38.297176
23
184.778015
33
93.583763
0
3DFACE
8
0
70
0
10
63.993511
20
164.923309
30
87.839935
11
46.682693
21
162.362579
31
99.795609
12
38.297176
22
184.778015
32
93.583763
13
38.297176
23
184.778015
33
93.583763
0
3DFACE
8
0
70
0
10
46.682693
20
162.362579
30
99.795609
11
63.993511
21
164.923309
31
87.839935
12
46.513748
22
167.304688
32
109.806602
13
46.513748
23
167.304688
33
109.806602
0
3DFACE
8
0
70
0
10
65.350807
20
224.981628
30
64.878914
11
53.512074
21
222.360321
31
67.757660
12
59.992989
22
217.667969
32
29.145048
13
62.994282
23
219.605164
33
27.204699
0
3DFACE
8
0
70
0
10
53.512074
20
222.360321
30
67.757660
11
51.744835
21
213.282532
31
69.044365
12
61.770977
22
210.339478
32
30.476986
13
59.992989
23
217.667969
33
29.145048
0
3DFACE
8
0
70
0
10
51.744835
20
213.282532
30
69.044365
11
54.258701
21
200.197144
31
69.206711
12
62.332104
22
197.296478
32
33.374249
13
61.770977
23
210.339478
33
30.476986
0
3DFACE
8
0
70
0
10
62.994282
20
219.605164
30
27.204699
11
59.992989
21
217.667969
31
29.145048
12
38.692192
22
214.283691
32
6.446437
13
41.034798
23
215.333740
33
4.898863
0
3DFACE
8
0
70
0
10
61.770977
20
210.339478
30
30.476986
11
40.579952
21
212.260742
31
3.950732
12
38.692192
22
214.283691
32
6.446437
13
59.992989
23
217.667969
33
29.145048
0
3DFACE
8
0
70
0
10
62.332104
20
197.296478
30
33.374249
11
37.736382
21
200.496643
31
3.672775
12
40.579952
22
212.260742
32
3.950732
13
61.770977
23
210.339478
33
30.476986
0
3DFACE
8
0
70
0
10
41.034798
20
215.333740
30
4.898863
11
38.692192
21
214.283691
31
6.446437
12
-6.146520
22
213.346680
32
-2.652298
13
-6.816685
23
213.885559
33
-6.254825
0
3DFACE
8
0
70
0
10
40.579952
20
212.260742
30
3.950732
11
-6.148308
21
211.300049
31
-2.661911
12
-6.146520
22
213.346680
32
-2.652298
13
38.692192
23
214.283691
33
6.446437
0
3DFACE
8
0
70
0
10
37.736382
20
200.496643
30
3.672775
11
-5.732645
21
197.533691
31
-0.427482
12
-6.148308
22
211.300049
32
-2.661911
13
40.579952
23
212.260742
33
3.950732
0
3DFACE
8
0
70
0
10
57.090759
20
159.518372
30
42.188129
11
62.383705
21
175.859650
31
36.037537
12
59.002663
22
179.757019
32
69.163689
13
63.362976
23
168.704865
33
72.245018
0
3DFACE
8
0
70
0
10
54.258701
20
200.197144
30
69.206711
11
57.273830
21
190.657532
31
68.650093
12
62.332104
22
197.296478
32
33.374249
13
62.332104
23
197.296478
33
33.374249
0
3DFACE
8
0
70
0
10
59.002663
20
179.757019
30
69.163689
11
62.383705
21
175.859650
31
36.037537
12
62.332104
22
197.296478
32
33.374249
13
57.273830
23
190.657532
33
68.650093
0
3DFACE
8
0
70
0
10
62.383705
20
175.859650
30
36.037537
11
37.681927
21
182.711273
31
7.714460
12
37.736382
22
200.496643
32
3.672775
13
62.332104
23
197.296478
33
33.374249
0
3DFACE
8
0
70
0
10
37.681927
20
182.711273
30
7.714460
11
-4.736938
21
180.464233
31
4.925025
12
-5.732645
22
197.533691
32
-0.427482
13
37.736382
23
200.496643
33
3.672775
0
3DFACE
8
0
70
0
10
14.618217
20
230.504211
30
108.970245
11
31.050222
21
238.143799
31
101.907814
12
32.303017
22
260.337830
32
97.963150
13
14.344739
23
259.416138
33
107.500137
0
3DFACE
8
0
70
0
10
14.344739
20
259.416138
30
107.500137
11
32.303017
21
260.337830
31
97.963150
12
31.800095
22
262.733826
32
93.134506
13
13.705205
23
262.853790
33
104.062263
0
3DFACE
8
0
70
0
10
31.050222
20
238.143799
30
101.907814
11
44.115944
21
231.023346
31
87.889999
12
55.931149
22
258.647583
32
80.128708
13
32.303017
23
260.337830
33
97.963150
0
3DFACE
8
0
70
0
10
32.303017
20
260.337830
30
97.963150
11
55.931149
21
258.647583
31
80.128708
12
53.880604
22
261.456726
32
75.898758
13
31.800095
23
262.733826
33
93.134506
0
3DFACE
8
0
70
0
10
44.115944
20
231.023346
30
87.889999
11
65.350807
21
224.981628
31
64.878914
12
66.111458
22
251.447357
32
46.839359
13
55.931149
23
258.647583
33
80.128708
0
3DFACE
8
0
70
0
10
55.931149
20
258.647583
30
80.128708
11
66.111458
21
251.447357
31
46.839359
12
57.716080
22
255.542114
32
47.084839
13
53.880604
23
261.456726
33
75.898758
0
3DFACE
8
0
70
0
10
65.350807
20
224.981628
30
64.878914
11
62.994282
21
219.605164
31
27.204699
12
65.833420
22
250.170593
32
20.599148
13
66.111458
23
251.447357
33
46.839359
0
3DFACE
8
0
70
0
10
66.111458
20
251.447357
30
46.839359
11
65.833420
21
250.170593
31
20.599148
12
59.664108
22
252.881866
32
23.273832
13
57.716080
23
255.542114
33
47.084839
0
3DFACE
8
0
70
0
10
62.994282
20
219.605164
30
27.204699
11
41.034798
21
215.333740
31
4.898863
12
41.368145
22
243.042969
32
1.795338
13
65.833420
23
250.170593
33
20.599148
0
3DFACE
8
0
70
0
10
65.833420
20
250.170593
30
20.599148
11
41.368145
21
243.042969
31
1.795338
12
36.583569
22
247.394714
32
6.305411
13
59.664108
23
252.881866
33
23.273832
0
3DFACE
8
0
70
0
10
41.034798
20
215.333740
30
4.898863
11
-6.816685
21
213.885559
31
-6.254825
12
-7.390259
22
239.493286
32
-9.338120
13
41.368145
23
243.042969
33
1.795338
0
3DFACE
8
0
70
0
10
41.368145
20
243.042969
30
1.795338
11
-7.390259
21
239.493286
31
-9.338120
12
-6.598079
22
243.370392
32
-5.079691
13
36.583569
23
247.394714
33
6.305411
0
3DFACE
8
0
70
0
10
57.090759
20
159.518372
30
42.188129
11
35.461796
21
162.648193
31
32.221077
12
37.681927
22
182.711273
32
7.714460
13
62.383705
23
175.859650
33
36.037537
0
3DFACE
8
0
70
0
10
35.461796
20
162.648193
30
32.221077
11
-2.411843
21
169.312134
31
10.874369
12
-4.736938
22
180.464233
32
4.925025
13
37.681927
23
182.711273
33
7.714460
0
3DFACE
8
0
70
0
10
50.421658
20
130.862762
30
61.442730
11
31.670271
21
141.890411
31
62.153732
12
35.461796
22
162.648193
32
32.221077
13
57.090759
23
159.518372
33
42.188129
0
3DFACE
8
0
70
0
10
33.363430
20
106.773376
30
98.411995
11
28.073717
21
106.529053
31
83.203033
12
31.670271
22
141.890411
32
62.153732
13
50.421658
23
130.862762
33
61.442730
0
3DFACE
8
0
70
0
10
28.073717
20
106.529053
30
83.203033
11
9.668461
21
104.645142
31
82.362427
12
5.479308
22
125.370728
32
59.843296
13
31.670271
23
141.890411
33
62.153732
0
3DFACE
8
0
70
0
10
14.073300
20
94.468506
30
106.041000
11
9.668461
21
104.645142
31
82.362427
12
28.073717
22
106.529053
32
83.203033
13
28.073717
23
106.529053
33
83.203033
0
3DFACE
8
0
70
0
10
14.073300
20
94.468506
30
106.041000
11
28.073717
21
106.529053
31
83.203033
12
33.363430
22
106.773376
32
98.411995
13
33.363430
23
106.773376
33
98.411995
0
3DFACE
8
0
70
0
10
17.278070
20
186.366089
30
121.855721
11
18.185089
21
205.141357
31
126.731468
12
-2.357351
22
204.580750
32
124.015274
13
6.216031
23
186.579102
33
118.571815
0
3DFACE
8
0
70
0
10
18.185089
20
205.141357
30
126.731468
11
17.303974
21
216.694946
31
121.994965
12
4.288918
22
213.059845
32
121.050865
13
-2.357351
23
204.580750
33
124.015274
0
3DFACE
8
0
70
0
10
6.216031
20
186.579102
30
118.571815
11
-2.357351
21
204.580750
31
124.015274
12
-8.976098
22
201.078827
32
107.669403
13
2.476554
23
182.509308
33
106.398094
0
3DFACE
8
0
70
0
10
17.278070
20
186.366089
30
121.855721
11
6.216031
21
186.579102
31
118.571815
12
2.476554
22
182.509308
32
106.398094
13
14.860328
23
180.074860
33
110.271729
0
3DFACE
8
0
70
0
10
17.303974
20
216.694946
30
121.994965
11
14.407493
21
217.232605
31
107.837471
12
-1.070295
22
212.983704
32
105.562576
13
4.288918
23
213.059845
33
121.050865
0
3DFACE
8
0
70
0
10
-2.357351
20
204.580750
30
124.015274
11
4.288918
21
213.059845
31
121.050865
12
-1.070295
22
212.983704
32
105.562576
13
-8.976098
23
201.078827
33
107.669403
0
3DFACE
8
0
70
0
10
10.043029
20
226.343018
30
103.978317
11
-2.286858
21
234.604797
31
104.120193
12
-1.527051
22
215.037842
32
103.287094
13
10.295209
23
217.291138
33
105.333931
0
3DFACE
8
0
70
0
10
-1.527051
20
215.037842
30
103.287094
11
-2.286858
21
234.604797
31
104.120193
12
-15.724704
22
225.673370
32
97.153854
13
-11.402981
23
215.671326
33
99.897758
0
3DFACE
8
0
70
0
10
4.669598
20
165.626831
30
126.522797
11
17.568489
21
165.463928
31
124.829666
12
15.756238
22
182.678223
32
115.087769
13
6.361489
23
183.928162
33
113.959984
0
3DFACE
8
0
70
0
10
-41.111820
20
179.757019
30
87.787621
11
-18.600531
21
162.362579
31
111.940010
12
-13.009804
22
184.778015
32
103.128212
13
-39.683334
23
190.657532
33
86.686684
0
3DFACE
8
0
70
0
10
6.361489
20
183.928162
30
113.959984
11
-8.112191
21
184.183105
31
116.517868
12
-14.842847
22
167.304688
32
121.220551
13
4.669598
23
165.626831
33
126.522797
0
3DFACE
8
0
70
0
10
-36.494152
20
222.360321
30
84.501198
11
-19.639551
21
227.624817
31
98.093864
12
-19.629509
22
231.023346
32
99.748329
13
-48.576126
23
224.981628
33
86.072327
0
3DFACE
8
0
70
0
10
14.618217
20
230.504211
30
108.970245
11
-2.866018
21
238.949890
31
108.168839
12
-1.573508
22
236.651062
32
106.539528
13
14.095693
23
228.451050
33
106.161362
0
3DFACE
8
0
70
0
10
-2.866018
20
238.949890
30
108.168839
11
-19.629509
21
231.023346
31
99.748329
12
-19.639551
22
227.624817
32
98.093864
13
-1.573508
23
236.651062
33
106.539528
0
3DFACE
8
0
70
0
10
17.457336
20
138.789490
30
124.232162
11
16.763815
21
153.121460
31
120.504082
12
1.976379
22
155.761383
32
117.521881
13
-0.679940
23
146.746155
33
120.642784
0
3DFACE
8
0
70
0
10
14.073300
20
94.468506
30
106.041000
11
17.457336
21
138.789490
31
124.232162
12
-0.679940
22
146.746155
32
120.642784
13
-6.669838
23
106.773376
33
105.859238
0
3DFACE
8
0
70
0
10
-41.111820
20
179.757019
30
87.787621
11
-44.072365
21
168.704865
31
92.230827
12
-19.539427
22
158.616516
32
103.157455
13
-18.600531
23
162.362579
33
111.940010
0
3DFACE
8
0
70
0
10
-19.539427
20
158.616516
30
103.157455
11
-44.072365
21
168.704865
31
92.230827
12
-49.028454
22
159.518372
32
61.929104
13
-35.881382
23
130.862762
33
77.497375
0
3DFACE
8
0
70
0
10
-6.669838
20
106.773376
30
105.859238
11
-0.679940
21
146.746155
31
120.642784
12
-19.539427
22
158.616516
32
103.157455
13
-35.881382
23
130.862762
33
77.497375
0
3DFACE
8
0
70
0
10
-0.679940
20
146.746155
30
120.642784
11
1.976379
21
155.761383
31
117.521881
12
-18.600531
22
162.362579
32
111.940010
13
-19.539427
23
158.616516
33
103.157455
0
3DFACE
8
0
70
0
10
17.568489
20
165.463928
30
124.829666
11
4.669598
21
165.626831
31
126.522797
12
1.976379
22
155.761383
32
117.521881
13
16.763815
23
153.121460
33
120.504082
0
3DFACE
8
0
70
0
10
15.756238
20
182.678223
30
115.087769
11
14.860328
21
180.074860
31
110.271729
12
2.476554
22
182.509308
32
106.398094
13
6.361489
23
183.928162
33
113.959984
0
3DFACE
8
0
70
0
10
-8.112191
20
184.183105
30
116.517868
11
6.361489
21
183.928162
31
113.959984
12
2.476554
22
182.509308
32
106.398094
13
-13.009804
23
184.778015
33
103.128212
0
POINT
8
0
70
0
10
-38.258839
20
164.923309
30
106.861572
0
3DFACE
8
0
70
0
10
4.669598
20
165.626831
30
126.522797
11
-14.842847
21
167.304688
31
121.220551
12
-18.600531
22
162.362579
32
111.940010
13
1.976379
23
155.761383
33
117.521881
0
3DFACE
8
0
70
0
10
-14.842847
20
167.304688
30
121.220551
11
-8.112191
21
184.183105
31
116.517868
12
-38.258839
22
164.923309
32
106.861572
13
-38.258839
23
164.923309
33
106.861572
0
3DFACE
8
0
70
0
10
-8.112191
20
184.183105
30
116.517868
11
-13.009804
21
184.778015
31
103.128212
12
-38.258839
22
164.923309
32
106.861572
13
-38.258839
23
164.923309
33
106.861572
0
3DFACE
8
0
70
0
10
-38.258839
20
164.923309
30
106.861572
11
-13.009804
21
184.778015
31
103.128212
12
-18.600531
22
162.362579
32
111.940010
13
-18.600531
23
162.362579
33
111.940010
0
3DFACE
8
0
70
0
10
-18.600531
20
162.362579
30
111.940010
11
-14.842847
21
167.304688
31
121.220551
12
-38.258839
22
164.923309
32
106.861572
13
-38.258839
23
164.923309
33
106.861572
0
3DFACE
8
0
70
0
10
-48.576126
20
224.981628
30
86.072327
11
-59.925209
21
219.605164
31
50.070969
12
-56.426926
22
217.667969
32
50.802223
13
-36.494152
23
222.360321
33
84.501198
0
3DFACE
8
0
70
0
10
-36.494152
20
222.360321
30
84.501198
11
-56.426926
21
217.667969
31
50.802223
12
-57.607002
22
210.339478
32
52.684441
13
-34.382431
23
213.282532
33
85.066307
0
3DFACE
8
0
70
0
10
-34.382431
20
213.282532
30
85.066307
11
-57.607002
21
210.339478
31
52.684441
12
-57.088707
22
197.296478
32
55.589672
13
-36.669739
23
200.197144
33
86.121803
0
3DFACE
8
0
70
0
10
-59.925209
20
219.605164
30
50.070969
11
-47.456104
21
215.333740
31
21.360506
12
-44.713692
22
214.283691
32
21.962133
13
-56.426926
23
217.667969
33
50.802223
0
3DFACE
8
0
70
0
10
-57.607002
20
210.339478
30
52.684441
11
-56.426926
21
217.667969
31
50.802223
12
-44.713692
22
214.283691
32
21.962133
13
-47.372646
23
212.260742
33
20.312237
0
3DFACE
8
0
70
0
10
-57.088707
20
197.296478
30
55.589672
11
-57.607002
21
210.339478
31
52.684441
12
-47.372646
22
212.260742
32
20.312237
13
-44.819256
23
200.496643
33
19.030302
0
3DFACE
8
0
70
0
10
-47.456104
20
215.333740
30
21.360506
11
-6.816685
21
213.885559
31
-6.254825
12
-6.146520
22
213.346680
32
-2.652298
13
-44.713692
23
214.283691
33
21.962133
0
3DFACE
8
0
70
0
10
-47.372646
20
212.260742
30
20.312237
11
-44.713692
21
214.283691
31
21.962133
12
-6.146520
22
213.346680
32
-2.652298
13
-6.148308
23
211.300049
33
-2.661911
0
3DFACE
8
0
70
0
10
-44.819256
20
200.496643
30
19.030302
11
-47.372646
21
212.260742
31
20.312237
12
-6.148308
22
211.300049
32
-2.661911
13
-5.732645
23
197.533691
33
-0.427482
0
3DFACE
8
0
70
0
10
-49.028454
20
159.518372
30
61.929104
11
-44.072365
21
168.704865
31
92.230827
12
-41.111820
22
179.757019
32
87.787621
13
-56.179115
23
175.859650
33
58.093349
0
3DFACE
8
0
70
0
10
-36.669739
20
200.197144
30
86.121803
11
-57.088707
21
197.296478
31
55.589672
12
-39.683334
22
190.657532
32
86.686684
13
-39.683334
23
190.657532
33
86.686684
0
3DFACE
8
0
70
0
10
-41.111820
20
179.757019
30
87.787621
11
-39.683334
21
190.657532
31
86.686684
12
-57.088707
22
197.296478
32
55.589672
13
-56.179115
23
175.859650
33
58.093349
0
3DFACE
8
0
70
0
10
-56.179115
20
175.859650
30
58.093349
11
-57.088707
21
197.296478
31
55.589672
12
-44.819256
22
200.496643
32
19.030302
13
-43.315018
23
182.711273
33
22.782030
0
3DFACE
8
0
70
0
10
-43.315018
20
182.711273
30
22.782030
11
-44.819256
21
200.496643
31
19.030302
12
-5.732645
22
197.533691
32
-0.427482
13
-4.736938
23
180.464233
33
4.925025
0
3DFACE
8
0
70
0
10
14.618217
20
230.504211
30
108.970245
11
14.344739
21
259.416138
31
107.500137
12
-5.841773
22
260.337830
32
105.059082
13
-2.866018
23
238.949890
33
108.168839
0
3DFACE
8
0
70
0
10
14.344739
20
259.416138
30
107.500137
11
13.705205
21
262.853790
31
104.062263
12
-7.108913
22
262.733826
32
100.372612
13
-5.841773
23
260.337830
33
105.059082
0
3DFACE
8
0
70
0
10
-2.866018
20
238.949890
30
108.168839
11
-5.841773
21
260.337830
31
105.059082
12
-34.302666
22
258.647583
32
96.914574
13
-19.629509
23
231.023346
33
99.748329
0
3DFACE
8
0
70
0
10
-5.841773
20
260.337830
30
105.059082
11
-7.108913
21
262.733826
31
100.372612
12
-33.910416
22
261.456726
32
92.230209
13
-34.302666
23
258.647583
33
96.914574
0
3DFACE
8
0
70
0
10
-19.629509
20
231.023346
30
99.748329
11
-34.302666
21
258.647583
31
96.914574
12
-55.773075
22
251.447357
32
69.513100
13
-48.576126
23
224.981628
33
86.072327
0
3DFACE
8
0
70
0
10
-34.302666
20
258.647583
30
96.914574
11
-33.910416
21
261.456726
31
92.230209
12
-47.851040
22
255.542114
32
66.723106
13
-55.773075
23
251.447357
33
69.513100
0
3DFACE
8
0
70
0
10
-48.576126
20
224.981628
30
86.072327
11
-55.773075
21
251.447357
31
69.513100
12
-64.949829
22
250.170593
32
44.928284
13
-59.925209
23
219.605164
33
50.070969
0
3DFACE
8
0
70
0
10
-55.773075
20
251.447357
30
69.513100
11
-47.851040
21
255.542114
31
66.723106
12
-58.231384
22
252.881866
32
45.205505
13
-64.949829
23
250.170593
33
44.928284
0
3DFACE
8
0
70
0
10
-59.925209
20
219.605164
30
50.070969
11
-64.949829
21
250.170593
31
44.928284
12
-48.883209
22
243.042969
32
18.584473
13
-47.456104
23
215.333740
33
21.360506
0
3DFACE
8
0
70
0
10
-64.949829
20
250.170593
30
44.928284
11
-58.231384
21
252.881866
31
45.205505
12
-42.796848
22
247.394714
32
21.072264
13
-48.883209
23
243.042969
33
18.584473
0
3DFACE
8
0
70
0
10
-47.456104
20
215.333740
30
21.360506
11
-48.883209
21
243.042969
31
18.584473
12
-7.390259
22
239.493286
32
-9.338120
13
-6.816685
23
213.885559
33
-6.254825
0
3DFACE
8
0
70
0
10
-48.883209
20
243.042969
30
18.584473
11
-42.796848
21
247.394714
31
21.072264
12
-6.598079
22
243.370392
32
-5.079691
13
-7.390259
23
239.493286
33
-9.338120
0
3DFACE
8
0
70
0
10
-49.028454
20
159.518372
30
61.929104
11
-56.179115
21
175.859650
31
58.093349
12
-43.315018
22
182.711273
32
22.782030
13
-37.480755
23
162.648193
33
37.316017
0
3DFACE
8
0
70
0
10
-37.480755
20
162.648193
30
37.316017
11
-43.315018
21
182.711273
31
22.782030
12
-4.736938
22
180.464233
32
4.925025
13
-2.411843
23
169.312134
33
10.874369
0
3DFACE
8
0
70
0
10
-35.881382
20
130.862762
30
77.497375
11
-49.028454
21
159.518372
31
61.929104
12
-37.480755
22
162.648193
32
37.316017
13
-27.621992
23
141.890411
33
67.957703
0
3DFACE
8
0
70
0
10
-6.669838
20
106.773376
30
105.859238
11
-35.881382
21
130.862762
31
77.497375
12
-27.621992
22
141.890411
32
67.957703
13
-7.203257
23
106.529053
33
89.765480
0
3DFACE
8
0
70
0
10
-7.203257
20
106.529053
30
89.765480
11
-27.621992
21
141.890411
31
67.957703
12
5.479308
22
125.370728
32
59.843296
13
9.668461
23
104.645142
33
82.362427
0
3DFACE
8
0
70
0
10
14.073300
20
94.468506
30
106.041000
11
-7.203257
21
106.529053
31
89.765480
12
9.668461
22
104.645142
32
82.362427
13
9.668461
23
104.645142
33
82.362427
0
3DFACE
8
0
70
0
10
14.073300
20
94.468506
30
106.041000
11
-6.669838
21
106.773376
31
105.859238
12
-7.203257
22
106.529053
32
89.765480
13
-7.203257
23
106.529053
33
89.765480
0
3DFACE
8
0
70
0
10
10.295209
20
217.291138
30
105.333931
11
14.407493
21
217.232605
31
107.837471
12
14.095693
22
228.451050
32
106.161362
13
10.043029
23
226.343018
33
103.978317
0
3DFACE
8
0
70
0
10
-1.527051
20
215.037842
30
103.287094
11
-1.070295
21
212.983704
31
105.562576
12
14.407493
22
217.232605
32
107.837471
13
10.295209
23
217.291138
33
105.333931
0
3DFACE
8
0
70
0
10
-2.286858
20
234.604797
30
104.120193
11
10.043029
21
226.343018
31
103.978317
12
14.095693
22
228.451050
32
106.161362
13
-1.573508
23
236.651062
33
106.539528
0
3DFACE
8
0
70
0
10
-1.527051
20
215.037842
30
103.287094
11
-11.402981
21
215.671326
31
99.897758
12
-13.989981
22
213.892700
32
101.505859
13
-1.070295
23
212.983704
33
105.562576
0
3DFACE
8
0
70
0
10
-11.402981
20
215.671326
30
99.897758
11
-15.724704
21
225.673370
31
97.153854
12
-19.639551
22
227.624817
32
98.093864
13
-13.989981
23
213.892700
33
101.505859
0
3DFACE
8
0
70
0
10
-2.286858
20
234.604797
30
104.120193
11
-1.573508
21
236.651062
31
106.539528
12
-19.639551
22
227.624817
32
98.093864
13
-15.724704
23
225.673370
33
97.153854
0
3DFACE
8
0
70
0
10
29.259806
20
233.899017
30
98.089111
11
29.258263
21
235.845032
31
100.852303
12
14.095693
22
228.451050
32
106.161362
13
17.569338
23
226.472656
33
102.754181
0
3DFACE
8
0
70
0
10
27.761381
20
214.389465
30
97.235390
11
17.861841
21
217.045776
31
104.326561
12
14.407493
22
217.232605
32
107.837471
13
28.031796
23
212.983704
33
100.148819
0
3DFACE
8
0
70
0
10
17.861841
20
217.045776
30
104.326561
11
17.569338
21
226.472656
31
102.754181
12
14.095693
22
228.451050
32
106.161362
13
14.407493
23
217.232605
33
107.837471
0
3DFACE
8
0
70
0
10
29.259806
20
233.899017
30
98.089111
11
38.846939
21
225.645447
31
84.452904
12
43.530354
22
227.624817
32
86.342598
13
29.258263
23
235.845032
33
100.852303
0
3DFACE
8
0
70
0
10
36.003929
20
215.014069
30
89.258972
11
39.485703
21
213.892700
31
91.557976
12
43.530354
22
227.624817
32
86.342598
13
38.846939
23
225.645447
33
84.452904
0
3DFACE
8
0
70
0
10
27.761381
20
214.389465
30
97.235390
11
28.031796
21
212.983704
31
100.148819
12
39.485703
22
213.892700
32
91.557976
13
36.003929
23
215.014069
33
89.258972
0
3DFACE
8
0
70
0
10
-2.411843
20
169.312134
30
10.874369
11
35.461796
21
162.648193
31
32.221077
12
58.454365
22
155.299347
32
3.426355
13
-1.769159
23
171.830750
33
7.656127
0
3DFACE
8
0
70
0
10
-1.769159
20
171.830750
30
7.656127
11
-60.141422
21
151.707458
31
5.372031
12
-37.480755
22
162.648193
32
37.316017
13
-2.411843
23
169.312134
33
10.874369
0
3DFACE
8
0
70
0
10
-60.141422
20
151.707458
30
5.372031
11
-53.198170
21
129.862305
31
64.476288
12
-37.480755
22
162.648193
32
37.316017
13
-37.480755
23
162.648193
33
37.316017
0
3DFACE
8
0
70
0
10
-53.198170
20
129.862305
30
64.476288
11
-27.621992
21
141.890411
31
67.957703
12
-37.480755
22
162.648193
32
37.316017
13
-37.480755
23
162.648193
33
37.316017
0
3DFACE
8
0
70
0
10
49.740845
20
129.862305
30
64.476280
11
35.461796
21
162.648193
31
32.221077
12
31.670271
22
141.890411
32
62.153732
13
31.670271
23
141.890411
33
62.153732
0
3DFACE
8
0
70
0
10
58.454365
20
155.299347
30
3.426355
11
35.461796
21
162.648193
31
32.221077
12
49.740845
22
129.862305
32
64.476280
13
49.740845
23
129.862305
33
64.476280
0
3DFACE
8
0
70
0
10
-1.681934
20
131.250061
30
74.092323
11
-27.621992
21
141.890411
31
67.957703
12
-53.198170
22
129.862305
32
64.476288
13
-53.198170
23
129.862305
33
64.476288
0
3DFACE
8
0
70
0
10
5.479308
20
125.370728
30
59.843296
11
-27.621992
21
141.890411
31
67.957703
12
-1.681934
22
131.250061
32
74.092323
13
-1.681934
23
131.250061
33
74.092323
0
3DFACE
8
0
70
0
10
5.479308
20
125.370728
30
59.843296
11
-1.681934
21
131.250061
31
74.092323
12
31.670271
22
141.890411
32
62.153732
13
31.670271
23
141.890411
33
62.153732
0
3DFACE
8
0
70
0
10
-1.681934
20
131.250061
30
74.092323
11
49.740845
21
129.862305
31
64.476280
12
31.670271
22
141.890411
32
62.153732
13
31.670271
23
141.890411
33
62.153732
0
3DFACE
8
0
70
0
10
-6.598079
20
243.370392
30
-5.079691
11
-0.197205
21
296.030334
31
29.481842
12
16.108980
22
299.381927
32
29.815224
13
36.583569
23
247.394714
33
6.305411
0
3DFACE
8
0
70
0
10
36.583569
20
247.394714
30
6.305411
11
16.108980
21
299.381927
31
29.815224
12
27.544447
22
304.356934
32
32.685394
13
59.664108
23
252.881866
33
23.273832
0
3DFACE
8
0
70
0
10
59.664108
20
252.881866
30
23.273832
11
27.544447
21
304.356934
31
32.685394
12
26.052675
22
309.446350
32
38.075287
13
57.716080
23
255.542114
33
47.084839
0
3DFACE
8
0
70
0
10
57.716080
20
255.542114
30
47.084839
11
26.052675
21
309.446350
31
38.075287
12
24.558802
22
315.755676
32
44.691040
13
53.880604
23
261.456726
33
75.898758
0
3DFACE
8
0
70
0
10
13.705205
20
262.853790
30
104.062263
11
31.800095
21
262.733826
31
93.134506
12
13.382947
22
318.818970
32
49.847172
13
4.241698
23
320.606689
33
53.343491
0
3DFACE
8
0
70
0
10
-6.598079
20
243.370392
30
-5.079691
11
-42.796848
21
247.394714
31
21.072264
12
-15.292675
22
299.381927
32
35.656757
13
-0.197205
23
296.030334
33
29.481842
0
3DFACE
8
0
70
0
10
-42.796848
20
247.394714
30
21.072264
11
-58.231384
21
252.881866
31
45.205505
12
-24.931002
22
304.356964
32
42.447205
13
-15.292675
23
299.381927
33
35.656757
0
3DFACE
8
0
70
0
10
-58.231384
20
252.881866
30
45.205505
11
-47.851040
21
255.542114
31
66.723106
12
-21.600779
22
309.446350
32
46.940079
13
-24.931002
23
304.356964
33
42.447205
0
3DFACE
8
0
70
0
10
-47.851040
20
255.542114
30
66.723106
11
-33.910416
21
261.456726
31
92.230209
12
-17.827755
22
315.755676
32
52.576054
13
-21.600779
23
309.446350
33
46.940079
0
3DFACE
8
0
70
0
10
13.705205
20
262.853790
30
104.062263
11
4.241698
21
320.606689
31
53.343491
12
-5.545339
22
318.818970
32
53.368328
13
-7.108913
23
262.733826
33
100.372612
0
3DFACE
8
0
70
0
10
53.880604
20
261.456726
30
75.898758
11
24.558802
21
315.755676
31
44.691040
12
13.382947
22
318.818970
32
49.847172
13
31.800095
23
262.733826
33
93.134506
0
3DFACE
8
0
70
0
10
-33.910416
20
261.456726
30
92.230209
11
-7.108913
21
262.733826
31
100.372612
12
-5.545339
22
318.818970
32
53.368328
13
-17.827755
23
315.755676
33
52.576054
0
3DFACE
8
0
70
0
10
-9.011209
20
312.642548
30
-17.669815
11
3.429176
21
304.557190
31
-25.206436
12
-11.242648
22
302.153809
32
-29.665115
13
-11.242648
23
302.153809
33
-29.665115
0
3DFACE
8
0
70
0
10
6.014022
20
309.363892
30
-11.311361
11
3.429176
21
304.557190
31
-25.206436
12
-9.011209
22
312.642548
32
-17.669815
13
-9.011209
23
312.642548
33
-17.669815
0
3DFACE
8
0
70
0
10
-6.072944
20
311.767273
30
-1.874909
11
6.014022
21
309.363892
31
-11.311361
12
-9.011209
22
312.642548
32
-17.669815
13
-9.011209
23
312.642548
33
-17.669815
0
3DFACE
8
0
70
0
10
-6.072944
20
311.767273
30
-1.874909
11
-9.011209
21
312.642548
31
-17.669815
12
-20.744724
22
309.363892
32
-6.333537
13
-20.744724
23
309.363892
33
-6.333537
0
3DFACE
8
0
70
0
10
-20.744724
20
309.363892
30
-6.333537
11
-9.011209
21
312.642548
31
-17.669815
12
-23.329573
22
304.557190
32
-20.228611
13
-23.329573
23
304.557190
33
-20.228611
0
3DFACE
8
0
70
0
10
-9.011209
20
312.642548
30
-17.669815
11
-11.242648
21
302.153809
31
-29.665115
12
-23.329573
22
304.557190
32
-20.228611
13
-23.329573
23
304.557190
33
-20.228611
0
3DFACE
8
0
70
0
10
3.429176
20
304.557190
30
-25.206436
11
9.288946
21
289.844086
31
-24.528608
12
-11.460105
22
286.445221
32
-30.834068
13
-11.242648
23
302.153809
33
-29.665115
0
3DFACE
8
0
70
0
10
12.944486
20
296.641846
30
-4.877931
11
9.288946
21
289.844086
31
-24.528608
12
3.429176
22
304.557190
32
-25.206436
13
6.014022
23
309.363892
33
-11.311361
0
3DFACE
8
0
70
0
10
-4.149041
20
300.040680
30
8.467204
11
12.944486
21
296.641846
31
-4.877931
12
6.014022
22
309.363892
32
-11.311361
13
-6.072944
23
311.767273
33
-1.874909
0
3DFACE
8
0
70
0
10
-4.149041
20
300.040680
30
8.467204
11
-6.072944
21
311.767273
31
-1.874909
12
-20.744724
22
309.363892
32
-6.333537
13
-24.898090
23
296.641846
33
2.161774
0
3DFACE
8
0
70
0
10
-24.898090
20
296.641846
30
2.161774
11
-20.744724
21
309.363892
31
-6.333537
12
-23.329573
22
304.557190
32
-20.228611
13
-28.553631
23
289.844086
33
-17.488905
0
3DFACE
8
0
70
0
10
-23.329573
20
304.557190
30
-20.228611
11
-11.242648
21
302.153809
31
-29.665115
12
-11.460105
22
286.445221
32
-30.834068
13
-28.553631
23
289.844086
33
-17.488905
0
3DFACE
8
0
70
0
10
5.135626
20
277.122040
30
-16.033247
11
-9.536196
21
274.718658
31
-20.491926
12
-11.460105
22
286.445221
32
-30.834068
13
9.288946
23
289.844086
33
-24.528608
0
3DFACE
8
0
70
0
10
12.944486
20
296.641846
30
-4.877931
11
7.720472
21
281.928741
31
-2.138172
12
5.135626
22
277.122040
32
-16.033247
13
9.288946
23
289.844086
33
-24.528608
0
3DFACE
8
0
70
0
10
-4.149041
20
300.040680
30
8.467204
11
-4.366491
21
284.332123
31
7.298280
12
7.720472
22
281.928741
32
-2.138172
13
12.944486
23
296.641846
33
-4.877931
0
3DFACE
8
0
70
0
10
-4.149041
20
300.040680
30
8.467204
11
-24.898090
21
296.641846
31
2.161774
12
-19.038273
22
281.928741
32
2.839652
13
-4.366491
23
284.332123
33
7.298280
0
3DFACE
8
0
70
0
10
-24.898090
20
296.641846
30
2.161774
11
-28.553631
21
289.844086
31
-17.488905
12
-21.623119
22
277.122040
32
-11.055423
13
-19.038273
23
281.928741
33
2.839652
0
3DFACE
8
0
70
0
10
-21.623119
20
277.122040
30
-11.055423
11
-28.553631
21
289.844086
31
-17.488905
12
-11.460105
22
286.445221
32
-30.834068
13
-9.536196
23
274.718658
33
-20.491926
0
3DFACE
8
0
70
0
10
-6.597929
20
273.843384
30
-4.696959
11
-9.536196
21
274.718658
31
-20.491926
12
5.135626
22
277.122040
32
-16.033247
13
5.135626
23
277.122040
33
-16.033247
0
3DFACE
8
0
70
0
10
7.720472
20
281.928741
30
-2.138172
11
-6.597929
21
273.843384
31
-4.696959
12
5.135626
22
277.122040
32
-16.033247
13
5.135626
23
277.122040
33
-16.033247
0
3DFACE
8
0
70
0
10
-4.366491
20
284.332123
30
7.298280
11
-6.597929
21
273.843384
31
-4.696959
12
7.720472
22
281.928741
32
-2.138172
13
7.720472
23
281.928741
33
-2.138172
0
3DFACE
8
0
70
0
10
-4.366491
20
284.332123
30
7.298280
11
-19.038273
21
281.928741
31
2.839652
12
-6.597929
22
273.843384
32
-4.696959
13
-6.597929
23
273.843384
33
-4.696959
0
3DFACE
8
0
70
0
10
-19.038273
20
281.928741
30
2.839652
11
-21.623119
21
277.122040
31
-11.055423
12
-6.597929
22
273.843384
32
-4.696959
13
-6.597929
23
273.843384
33
-4.696959
0
3DFACE
8
0
70
0
10
-6.597929
20
273.843384
30
-4.696959
11
-21.623119
21
277.122040
31
-11.055423
12
-9.536196
22
274.718658
32
-20.491926
13
-9.536196
23
274.718658
33
-20.491926
0
3DFACE
8
0
70
0
10
38.297176
20
184.778015
30
93.583763
11
57.273830
21
190.657532
31
68.650093
12
49.998981
22
200.747314
32
93.626503
13
49.998981
23
200.747314
33
93.626503
0
3DFACE
8
0
70
0
10
57.273830
20
190.657532
30
68.650093
11
54.258701
21
200.197144
31
69.206711
12
49.998981
22
200.747314
32
93.626503
13
49.998981
23
200.747314
33
93.626503
0
3DFACE
8
0
70
0
10
25.022678
20
182.509308
30
102.203918
11
38.297176
21
184.778015
31
93.583763
12
36.166359
22
201.078827
32
99.271713
13
36.166359
23
201.078827
33
99.271713
0
3DFACE
8
0
70
0
10
38.297176
20
184.778015
30
93.583763
11
49.998981
21
200.747314
31
93.626503
12
36.166359
22
201.078827
32
99.271713
13
36.166359
23
201.078827
33
99.271713
0
3DFACE
8
0
70
0
10
49.998981
20
200.747314
30
93.626503
11
54.258701
21
200.197144
31
69.206711
12
39.485703
22
213.892700
32
91.557976
13
39.485703
23
213.892700
33
91.557976
0
3DFACE
8
0
70
0
10
54.258701
20
200.197144
30
69.206711
11
51.744835
21
213.282532
31
69.044365
12
39.485703
22
213.892700
32
91.557976
13
39.485703
23
213.892700
33
91.557976
0
3DFACE
8
0
70
0
10
36.166359
20
201.078827
30
99.271713
11
39.485703
21
213.892700
31
91.557976
12
28.031796
22
212.983704
32
100.148819
13
28.031796
23
212.983704
33
100.148819
0
3DFACE
8
0
70
0
10
49.998981
20
200.747314
30
93.626503
11
39.485703
21
213.892700
31
91.557976
12
36.166359
22
201.078827
32
99.271713
13
36.166359
23
201.078827
33
99.271713
0
3DFACE
8
0
70
0
10
39.485703
20
213.892700
30
91.557976
11
51.744835
21
213.282532
31
69.044365
12
43.530354
22
227.624817
32
86.342598
13
43.530354
23
227.624817
33
86.342598
0
3DFACE
8
0
70
0
10
51.744835
20
213.282532
30
69.044365
11
53.512074
21
222.360321
31
67.757660
12
43.530354
22
227.624817
32
86.342598
13
43.530354
23
227.624817
33
86.342598
0
3DFACE
8
0
70
0
10
-39.683334
20
190.657532
30
86.686684
11
-23.913427
21
200.747314
31
107.376160
12
-36.669739
22
200.197144
32
86.121803
13
-36.669739
23
200.197144
33
86.121803
0
3DFACE
8
0
70
0
10
-13.009804
20
184.778015
30
103.128212
11
-23.913427
21
200.747314
31
107.376160
12
-39.683334
22
190.657532
32
86.686684
13
-39.683334
23
190.657532
33
86.686684
0
3DFACE
8
0
70
0
10
-13.009804
20
184.778015
30
103.128212
11
-8.976098
21
201.078827
31
107.669403
12
-23.913427
22
200.747314
32
107.376160
13
-23.913427
23
200.747314
33
107.376160
0
3DFACE
8
0
70
0
10
2.476554
20
182.509308
30
106.398094
11
-8.976098
21
201.078827
31
107.669403
12
-13.009804
22
184.778015
32
103.128212
13
-13.009804
23
184.778015
33
103.128212
0
3DFACE
8
0
70
0
10
-36.669739
20
200.197144
30
86.121803
11
-13.989981
21
213.892700
31
101.505859
12
-34.382431
22
213.282532
32
85.066307
13
-34.382431
23
213.282532
33
85.066307
0
3DFACE
8
0
70
0
10
-23.913427
20
200.747314
30
107.376160
11
-13.989981
21
213.892700
31
101.505859
12
-36.669739
22
200.197144
32
86.121803
13
-36.669739
23
200.197144
33
86.121803
0
3DFACE
8
0
70
0
10
-8.976098
20
201.078827
30
107.669403
11
-1.070295
21
212.983704
31
105.562576
12
-13.989981
22
213.892700
32
101.505859
13
-13.989981
23
213.892700
33
101.505859
0
3DFACE
8
0
70
0
10
-23.913427
20
200.747314
30
107.376160
11
-8.976098
21
201.078827
31
107.669403
12
-13.989981
22
213.892700
32
101.505859
13
-13.989981
23
213.892700
33
101.505859
0
3DFACE
8
0
70
0
10
-34.382431
20
213.282532
30
85.066307
11
-19.639551
21
227.624817
31
98.093864
12
-36.494152
22
222.360321
32
84.501198
13
-36.494152
23
222.360321
33
84.501198
0
3DFACE
8
0
70
0
10
-13.989981
20
213.892700
30
101.505859
11
-19.639551
21
227.624817
31
98.093864
12
-34.382431
22
213.282532
32
85.066307
13
-34.382431
23
213.282532
33
85.066307
0
3DFACE
8
0
70
0
10
46.009724
20
-75.268288
30
49.972527
11
38.127110
21
-52.398682
31
34.870407
12
25.589987
22
-60.250427
32
10.116509
13
25.589987
23
-60.250427
33
10.116509
0
3DFACE
8
0
70
0
10
46.009724
20
-75.268288
30
49.972527
11
25.589987
21
-60.250427
31
10.116509
12
33.739849
22
-78.686142
32
27.465673
13
33.739849
23
-78.686142
33
27.465673
0
3DFACE
8
0
70
0
10
46.009724
20
-75.268288
30
49.972527
11
73.581978
21
-52.511932
31
14.267114
12
38.127110
22
-52.398682
32
34.870407
13
38.127110
23
-52.398682
33
34.870407
0
3DFACE
8
0
70
0
10
46.009724
20
-75.268288
30
49.972527
11
76.268036
21
-75.124435
31
31.743889
12
73.581978
22
-52.511932
32
14.267114
13
73.581978
23
-52.511932
33
14.267114
0
3DFACE
8
0
70
0
10
76.268036
20
-75.124435
30
31.743889
11
79.496666
21
-56.614006
31
-5.747080
12
73.581978
22
-52.511932
32
14.267114
13
73.581978
23
-52.511932
33
14.267114
0
3DFACE
8
0
70
0
10
76.268036
20
-75.124435
30
31.743889
11
81.030869
21
-76.821709
31
13.567892
12
79.496666
22
-56.614006
32
-5.747080
13
79.496666
23
-56.614006
33
-5.747080
0
3DFACE
8
0
70
0
10
35.372952
20
-81.682327
30
-0.252353
11
25.589987
21
-60.250427
31
10.116509
12
26.898939
22
-67.470078
32
-19.937817
13
26.898939
23
-67.470078
33
-19.937817
0
3DFACE
8
0
70
0
10
33.739849
20
-78.686142
30
27.465673
11
25.589987
21
-60.250427
31
10.116509
12
35.372952
22
-81.682327
32
-0.252353
13
35.372952
23
-81.682327
33
-0.252353
0
3DFACE
8
0
70
0
10
69.354134
20
-79.293556
30
-0.902285
11
66.283661
21
-62.308334
31
-21.358232
12
79.496666
22
-56.614006
32
-5.747080
13
79.496666
23
-56.614006
33
-5.747080
0
3DFACE
8
0
70
0
10
81.030869
20
-76.821709
30
13.567892
11
69.354134
21
-79.293556
31
-0.902285
12
79.496666
22
-56.614006
32
-5.747080
13
79.496666
23
-56.614006
33
-5.747080
0
3DFACE
8
0
70
0
10
35.372952
20
-81.682327
30
-0.252353
11
26.898939
21
-67.470078
31
-19.937817
12
66.283661
22
-62.308334
32
-21.358232
13
66.283661
23
-62.308334
33
-21.358232
0
3DFACE
8
0
70
0
10
69.354134
20
-79.293556
30
-0.902285
11
35.372952
21
-81.682327
31
-0.252353
12
66.283661
22
-62.308334
32
-21.358232
13
66.283661
23
-62.308334
33
-21.358232
0
3DFACE
8
0
70
0
10
-29.893110
20
-77.093643
30
44.298576
11
-25.164211
21
-81.057526
31
18.195358
12
-21.982327
22
-62.835220
32
-1.305749
13
-21.982327
23
-62.835220
33
-1.305749
0
3DFACE
8
0
70
0
10
-29.893110
20
-77.093643
30
44.298576
11
-21.982327
21
-62.835220
31
-1.305749
12
-26.140779
22
-54.480759
32
27.028677
13
-26.140779
23
-54.480759
33
27.028677
0
3DFACE
8
0
70
0
10
-29.893110
20
-77.093643
30
44.298576
11
-26.140779
21
-54.480759
31
27.028677
12
-65.404495
22
-50.640564
32
22.219591
13
-65.404495
23
-50.640564
33
22.219591
0
3DFACE
8
0
70
0
10
-29.893110
20
-77.093643
30
44.298576
11
-65.404495
21
-50.640564
31
22.219591
12
-63.583599
22
-73.558388
32
39.591183
13
-63.583599
23
-73.558388
33
39.591183
0
3DFACE
8
0
70
0
10
-63.583599
20
-73.558388
30
39.591183
11
-65.404495
21
-50.640564
31
22.219591
12
-76.986557
22
-53.619919
32
5.877325
13
-76.986557
23
-53.619919
33
5.877325
0
3DFACE
8
0
70
0
10
-63.583599
20
-73.558388
30
39.591183
11
-76.986557
21
-53.619919
31
5.877325
12
-73.459816
22
-74.297333
32
24.509335
13
-73.459816
23
-74.297333
33
24.509335
0
3DFACE
8
0
70
0
10
-34.969852
20
-83.129242
30
-7.106014
11
-32.323959
21
-69.090401
31
-28.944313
12
-21.982327
22
-62.835220
32
-1.305749
13
-21.982327
23
-62.835220
33
-1.305749
0
3DFACE
8
0
70
0
10
-25.164211
20
-81.057526
30
18.195358
11
-34.969852
21
-83.129242
31
-7.106014
12
-21.982327
22
-62.835220
32
-1.305749
13
-21.982327
23
-62.835220
33
-1.305749
0
3DFACE
8
0
70
0
10
-73.459816
20
-74.297333
30
24.509335
11
-76.986557
21
-53.619919
31
5.877325
12
-66.883484
22
-77.481529
32
6.178196
13
-66.883484
23
-77.481529
33
6.178196
0
3DFACE
8
0
70
0
10
-66.883484
20
-77.481529
30
6.178196
11
-76.986557
21
-53.619919
31
5.877325
12
-69.423561
22
-60.136826
32
-14.162853
13
-69.423561
23
-60.136826
33
-14.162853
0
3DFACE
8
0
70
0
10
-66.883484
20
-77.481529
30
6.178196
11
-69.423561
21
-60.136826
31
-14.162853
12
-34.969852
22
-83.129242
32
-7.106014
13
-34.969852
23
-83.129242
33
-7.106014
0
3DFACE
8
0
70
0
10
-34.969852
20
-83.129242
30
-7.106014
11
-69.423561
21
-60.136826
31
-14.162853
12
-32.323959
22
-69.090401
32
-28.944313
13
-32.323959
23
-69.090401
33
-28.944313
0
3DFACE
8
0
70
0
10
40.951439
20
-99.479668
30
28.445135
11
46.009724
21
-75.268288
31
49.972527
12
33.739849
22
-78.686142
32
27.465673
13
33.739849
23
-78.686142
33
27.465673
0
3DFACE
8
0
70
0
10
29.733021
20
-125.637650
30
-0.345856
11
40.951439
21
-99.479668
31
28.445135
12
33.739849
22
-78.686142
32
27.465673
13
33.739849
23
-78.686142
33
27.465673
0
3DFACE
8
0
70
0
10
70.715767
20
-104.536789
30
10.833125
11
76.268036
21
-75.124435
31
31.743889
12
40.951439
22
-99.479668
32
28.445135
13
40.951439
23
-99.479668
33
28.445135
0
3DFACE
8
0
70
0
10
40.951439
20
-99.479668
30
28.445135
11
76.268036
21
-75.124435
31
31.743889
12
46.009724
22
-75.268288
32
49.972527
13
46.009724
23
-75.268288
33
49.972527
0
3DFACE
8
0
70
0
10
75.434784
20
-125.231888
30
-10.732169
11
81.030869
21
-76.821709
31
13.567892
12
70.715767
22
-104.536789
32
10.833125
13
70.715767
23
-104.536789
33
10.833125
0
3DFACE
8
0
70
0
10
70.715767
20
-104.536789
30
10.833125
11
81.030869
21
-76.821709
31
13.567892
12
76.268036
22
-75.124435
32
31.743889
13
76.268036
23
-75.124435
33
31.743889
0
3DFACE
8
0
70
0
10
29.733021
20
-125.637650
30
-0.345856
11
33.739849
21
-78.686142
31
27.465673
12
35.372952
22
-81.682327
32
-0.252353
13
35.372952
23
-81.682327
33
-0.252353
0
3DFACE
8
0
70
0
10
9.457797
20
-153.463791
30
-29.055136
11
29.733021
21
-125.637650
31
-0.345856
12
35.372952
22
-81.682327
32
-0.252353
13
35.372952
23
-81.682327
33
-0.252353
0
3DFACE
8
0
70
0
10
77.178848
20
-151.803970
30
-42.369049
11
69.354134
21
-79.293556
31
-0.902285
12
75.434784
22
-125.231888
32
-10.732169
13
75.434784
23
-125.231888
33
-10.732169
0
3DFACE
8
0
70
0
10
75.434784
20
-125.231888
30
-10.732169
11
69.354134
21
-79.293556
31
-0.902285
12
81.030869
22
-76.821709
32
13.567892
13
81.030869
23
-76.821709
33
13.567892
0
3DFACE
8
0
70
0
10
9.457797
20
-153.463791
30
-29.055136
11
35.372952
21
-81.682327
31
-0.252353
12
77.178848
22
-151.803970
32
-42.369049
13
77.178848
23
-151.803970
33
-42.369049
0
3DFACE
8
0
70
0
10
77.178848
20
-151.803970
30
-42.369049
11
35.372952
21
-81.682327
31
-0.252353
12
69.354134
22
-79.293556
32
-0.902285
13
69.354134
23
-79.293556
33
-0.902285
0
3DFACE
8
0
70
0
10
-31.389713
20
-127.232765
30
-7.544248
11
-25.164211
21
-81.057526
31
18.195358
12
-34.378391
22
-100.793839
32
23.842520
13
-34.378391
23
-100.793839
33
23.842520
0
3DFACE
8
0
70
0
10
-34.378391
20
-100.793839
30
23.842520
11
-25.164211
21
-81.057526
31
18.195358
12
-29.893110
22
-77.093643
32
44.298576
13
-29.893110
23
-77.093643
33
44.298576
0
3DFACE
8
0
70
0
10
-34.378391
20
-100.793839
30
23.842520
11
-29.893110
21
-77.093643
31
44.298576
12
-63.583599
22
-73.558388
32
39.591183
13
-63.583599
23
-73.558388
33
39.591183
0
3DFACE
8
0
70
0
10
-67.440964
20
-103.254982
30
16.465496
11
-34.378391
21
-100.793839
31
23.842520
12
-63.583599
22
-73.558388
32
39.591183
13
-63.583599
23
-73.558388
33
39.591183
0
3DFACE
8
0
70
0
10
-67.440964
20
-103.254982
30
16.465496
11
-63.583599
21
-73.558388
31
39.591183
12
-73.459816
22
-74.297333
32
24.509335
13
-73.459816
23
-74.297333
33
24.509335
0
3DFACE
8
0
70
0
10
-77.874420
20
-123.162086
30
-2.809869
11
-67.440964
21
-103.254982
31
16.465496
12
-73.459816
22
-74.297333
32
24.509335
13
-73.459816
23
-74.297333
33
24.509335
0
3DFACE
8
0
70
0
10
-19.718309
20
-156.027191
30
-41.775402
11
-34.969852
21
-83.129242
31
-7.106014
12
-31.389713
22
-127.232765
32
-7.544248
13
-31.389713
23
-127.232765
33
-7.544248
0
3DFACE
8
0
70
0
10
-31.389713
20
-127.232765
30
-7.544248
11
-34.969852
21
-83.129242
31
-7.106014
12
-25.164211
22
-81.057526
32
18.195358
13
-25.164211
23
-81.057526
33
18.195358
0
3DFACE
8
0
70
0
10
-77.874420
20
-123.162086
30
-2.809869
11
-73.459816
21
-74.297333
31
24.509335
12
-66.883484
22
-77.481529
32
6.178196
13
-66.883484
23
-77.481529
33
6.178196
0
3DFACE
8
0
70
0
10
-88.064392
20
-148.976776
30
-32.757549
11
-77.874420
21
-123.162086
31
-2.809869
12
-66.883484
22
-77.481529
32
6.178196
13
-66.883484
23
-77.481529
33
6.178196
0
3DFACE
8
0
70
0
10
-88.064392
20
-148.976776
30
-32.757549
11
-66.883484
21
-77.481529
31
6.178196
12
-34.969852
22
-83.129242
32
-7.106014
13
-34.969852
23
-83.129242
33
-7.106014
0
3DFACE
8
0
70
0
10
-19.718309
20
-156.027191
30
-41.775402
11
-88.064392
21
-148.976776
31
-32.757549
12
-34.969852
22
-83.129242
32
-7.106014
13
-34.969852
23
-83.129242
33
-7.106014
0
3DFACE
8
0
70
0
10
91.627304
20
27.269836
30
82.543915
11
-1.681935
21
47.287140
31
125.983452
12
-1.681934
22
29.033020
32
114.014206
13
-1.681934
23
29.033020
33
114.014206
0
3DFACE
8
0
70
0
10
91.627304
20
27.269836
30
82.543915
11
92.467194
21
61.532089
31
94.748451
12
-1.681935
22
47.287140
32
125.983452
13
-1.681935
23
47.287140
33
125.983452
0
3DFACE
8
0
70
0
10
91.627312
20
18.517090
30
-78.827477
11
-1.722584
21
17.106216
31
-110.152786
12
-1.681928
22
51.206116
32
-102.115181
13
-1.681928
23
51.206116
33
-102.115181
0
3DFACE
8
0
70
0
10
91.627312
20
18.517090
30
-78.827477
11
-1.681928
21
51.206116
31
-102.115181
12
92.467201
22
52.799011
32
-66.260254
13
92.467201
23
52.799011
33
-66.260254
0
3DFACE
8
0
70
0
10
91.627304
20
27.269836
30
82.543915
11
115.162575
21
56.677856
31
5.252759
12
92.467194
22
61.532089
32
94.748451
13
92.467194
23
61.532089
33
94.748451
0
3DFACE
8
0
70
0
10
91.627304
20
27.269836
30
82.543915
11
114.127045
21
23.011749
31
4.038918
12
115.162575
22
56.677856
32
5.252759
13
115.162575
23
56.677856
33
5.252759
0
3DFACE
8
0
70
0
10
114.127045
20
23.011749
30
4.038918
11
91.627312
21
18.517090
31
-78.827477
12
92.467201
22
52.799011
32
-66.260254
13
92.467201
23
52.799011
33
-66.260254
0
3DFACE
8
0
70
0
10
114.127045
20
23.011749
30
4.038918
11
92.467201
21
52.799011
31
-66.260254
12
115.162575
22
56.677856
32
5.252759
13
115.162575
23
56.677856
33
5.252759
0
3DFACE
8
0
70
0
10
-94.991173
20
27.269852
30
82.543922
11
-1.681934
21
29.033020
31
114.014206
12
-1.681935
22
47.287140
32
125.983452
13
-1.681935
23
47.287140
33
125.983452
0
3DFACE
8
0
70
0
10
-94.991173
20
27.269852
30
82.543922
11
-1.681935
21
47.287140
31
125.983452
12
-95.831062
22
61.532089
32
94.748459
13
-95.831062
23
61.532089
33
94.748459
0
3DFACE
8
0
70
0
10
-94.991165
20
18.517090
30
-78.827469
11
-1.681928
21
51.206116
31
-102.115181
12
-1.722584
22
17.106216
32
-110.152786
13
-1.722584
23
17.106216
33
-110.152786
0
3DFACE
8
0
70
0
10
-94.991165
20
18.517090
30
-78.827469
11
-95.831055
21
52.799011
31
-66.260246
12
-1.681928
22
51.206116
32
-102.115181
13
-1.681928
23
51.206116
33
-102.115181
0
3DFACE
8
0
70
0
10
-94.991173
20
27.269852
30
82.543922
11
-118.526443
21
56.677856
31
5.252769
12
-117.490891
22
23.011749
32
4.038927
13
-117.490891
23
23.011749
33
4.038927
0
3DFACE
8
0
70
0
10
-94.991173
20
27.269852
30
82.543922
11
-95.831062
21
61.532089
31
94.748459
12
-118.526443
22
56.677856
32
5.252769
13
-118.526443
23
56.677856
33
5.252769
0
3DFACE
8
0
70
0
10
-117.490891
20
23.011749
30
4.038927
11
-118.526443
21
56.677856
31
5.252769
12
-95.831055
22
52.799011
32
-66.260246
13
-95.831055
23
52.799011
33
-66.260246
0
3DFACE
8
0
70
0
10
-117.490891
20
23.011749
30
4.038927
11
-95.831055
21
52.799011
31
-66.260246
12
-94.991165
22
18.517090
32
-78.827469
13
-94.991165
23
18.517090
33
-78.827469
0
3DFACE
8
0
70
0
10
-1.681935
20
47.287140
30
125.983452
11
49.740845
21
129.862305
31
64.476280
12
-1.681934
22
131.250061
32
74.092323
13
-1.681934
23
131.250061
33
74.092323
0
3DFACE
8
0
70
0
10
-1.681935
20
47.287140
30
125.983452
11
92.467194
21
61.532089
31
94.748451
12
49.740845
22
129.862305
32
64.476280
13
49.740845
23
129.862305
33
64.476280
0
3DFACE
8
0
70
0
10
92.467201
20
52.799011
30
-66.260254
11
-1.681928
21
51.206116
31
-102.115181
12
50.107563
22
146.346008
32
-34.732693
13
50.107563
23
146.346008
33
-34.732693
0
3DFACE
8
0
70
0
10
-1.681928
20
51.206116
30
-102.115181
11
-1.778850
21
148.654846
31
-44.956768
12
50.107563
22
146.346008
32
-34.732693
13
50.107563
23
146.346008
33
-34.732693
0
3DFACE
8
0
70
0
10
92.467194
20
61.532089
30
94.748451
11
89.991211
21
103.931213
31
17.418444
12
76.387352
22
140.588745
32
51.384529
13
76.387352
23
140.588745
33
51.384529
0
3DFACE
8
0
70
0
10
92.467194
20
61.532089
30
94.748451
11
115.162575
21
56.677856
31
5.252759
12
89.991211
22
103.931213
32
17.418444
13
89.991211
23
103.931213
33
17.418444
0
3DFACE
8
0
70
0
10
92.467201
20
52.799011
30
-66.260254
11
71.532959
21
121.654114
31
-24.877623
12
89.991211
22
103.931213
32
17.418444
13
89.991211
23
103.931213
33
17.418444
0
3DFACE
8
0
70
0
10
115.162575
20
56.677856
30
5.252759
11
92.467201
21
52.799011
31
-66.260254
12
89.991211
22
103.931213
32
17.418444
13
89.991211
23
103.931213
33
17.418444
0
3DFACE
8
0
70
0
10
92.467194
20
61.532089
30
94.748451
11
76.387352
21
140.588745
31
51.384529
12
49.740845
22
129.862305
32
64.476280
13
49.740845
23
129.862305
33
64.476280
0
3DFACE
8
0
70
0
10
92.467201
20
52.799011
30
-66.260254
11
50.107563
21
146.346008
31
-34.732693
12
71.532959
22
121.654114
32
-24.877623
13
71.532959
23
121.654114
33
-24.877623
0
3DFACE
8
0
70
0
10
-1.681935
20
47.287140
30
125.983452
11
-53.198170
21
129.862305
31
64.476288
12
-95.831062
22
61.532089
32
94.748459
13
-95.831062
23
61.532089
33
94.748459
0
3DFACE
8
0
70
0
10
-1.681935
20
47.287140
30
125.983452
11
-1.681934
21
131.250061
31
74.092323
12
-53.198170
22
129.862305
32
64.476288
13
-53.198170
23
129.862305
33
64.476288
0
3DFACE
8
0
70
0
10
-95.831055
20
52.799011
30
-66.260246
11
-53.590374
21
146.346008
31
-34.732693
12
-1.681928
22
51.206116
32
-102.115181
13
-1.681928
23
51.206116
33
-102.115181
0
3DFACE
8
0
70
0
10
-1.681928
20
51.206116
30
-102.115181
11
-53.590374
21
146.346008
31
-34.732693
12
-1.778850
22
148.654846
32
-44.956768
13
-1.778850
23
148.654846
33
-44.956768
0
3DFACE
8
0
70
0
10
-95.831062
20
61.532089
30
94.748459
11
-80.580864
21
125.667358
31
48.721897
12
-102.546181
22
105.429932
32
4.063043
13
-102.546181
23
105.429932
33
4.063043
0
3DFACE
8
0
70
0
10
-95.831062
20
61.532089
30
94.748459
11
-102.546181
21
105.429932
31
4.063043
12
-118.526443
22
56.677856
32
5.252769
13
-118.526443
23
56.677856
33
5.252769
0
3DFACE
8
0
70
0
10
-118.526443
20
56.677856
30
5.252769
11
-102.546181
21
105.429932
31
4.063043
12
-95.831055
22
52.799011
32
-66.260246
13
-95.831055
23
52.799011
33
-66.260246
0
3DFACE
8
0
70
0
10
-95.831055
20
52.799011
30
-66.260246
11
-102.546181
21
105.429932
31
4.063043
12
-80.284149
22
128.409546
32
-30.859509
13
-80.284149
23
128.409546
33
-30.859509
0
3DFACE
8
0
70
0
10
-95.831062
20
61.532089
30
94.748459
11
-53.198170
21
129.862305
31
64.476288
12
-80.580864
22
125.667358
32
48.721897
13
-80.580864
23
125.667358
33
48.721897
0
3DFACE
8
0
70
0
10
-95.831055
20
52.799011
30
-66.260246
11
-80.284149
21
128.409546
31
-30.859509
12
-53.590374
22
146.346008
32
-34.732693
13
-53.590374
23
146.346008
33
-34.732693
0
3DFACE
8
0
70
0
10
89.991211
20
103.931213
30
17.418444
11
142.697845
21
118.278320
31
44.483597
12
76.387352
22
140.588745
32
51.384529
13
76.387352
23
140.588745
33
51.384529
0
3DFACE
8
0
70
0
10
148.955322
20
70.827209
30
37.866791
11
142.697845
21
118.278320
31
44.483597
12
89.991211
22
103.931213
32
17.418444
13
89.991211
23
103.931213
33
17.418444
0
3DFACE
8
0
70
0
10
76.387352
20
140.588745
30
51.384529
11
173.067703
21
108.183228
31
2.181736
12
58.454365
22
155.299347
32
3.426355
13
58.454365
23
155.299347
33
3.426355
0
3DFACE
8
0
70
0
10
76.387352
20
140.588745
30
51.384529
11
142.697845
21
118.278320
31
44.483597
12
173.067703
22
108.183228
32
2.181736
13
173.067703
23
108.183228
33
2.181736
0
3DFACE
8
0
70
0
10
71.532959
20
121.654114
30
-24.877623
11
58.454365
21
155.299347
31
3.426355
12
173.067703
22
108.183228
32
2.181736
13
173.067703
23
108.183228
33
2.181736
0
3DFACE
8
0
70
0
10
71.532959
20
121.654114
30
-24.877623
11
173.067703
21
108.183228
31
2.181736
12
174.947830
22
64.582336
32
1.551286
13
174.947830
23
64.582336
33
1.551286
0
3DFACE
8
0
70
0
10
89.991211
20
103.931213
30
17.418444
11
71.532959
21
121.654114
31
-24.877623
12
174.947830
22
64.582336
32
1.551286
13
174.947830
23
64.582336
33
1.551286
0
3DFACE
8
0
70
0
10
148.955322
20
70.827209
30
37.866791
11
89.991211
21
103.931213
31
17.418444
12
174.947830
22
64.582336
32
1.551286
13
174.947830
23
64.582336
33
1.551286
0
3DFACE
8
0
70
0
10
-102.546181
20
105.429932
30
4.063043
11
-80.580864
21
125.667358
31
48.721897
12
-151.399536
22
125.685303
32
38.197159
13
-151.399536
23
125.685303
33
38.197159
0
3DFACE
8
0
70
0
10
-183.856659
20
115.699219
30
3.864569
11
-102.546181
21
105.429932
31
4.063043
12
-151.399536
22
125.685303
32
38.197159
13
-151.399536
23
125.685303
33
38.197159
0
3DFACE
8
0
70
0
10
-80.580864
20
125.667358
30
48.721897
11
-60.141422
21
151.707458
31
5.372031
12
-172.218933
22
169.823059
32
17.482771
13
-172.218933
23
169.823059
33
17.482771
0
3DFACE
8
0
70
0
10
-80.580864
20
125.667358
30
48.721897
11
-172.218933
21
169.823059
31
17.482771
12
-151.399536
22
125.685303
32
38.197159
13
-151.399536
23
125.685303
33
38.197159
0
3DFACE
8
0
70
0
10
-80.284149
20
128.409546
30
-30.859509
11
-172.218933
21
169.823059
31
17.482771
12
-60.141422
22
151.707458
32
5.372031
13
-60.141422
23
151.707458
33
5.372031
0
3DFACE
8
0
70
0
10
-80.284149
20
128.409546
30
-30.859509
11
-200.188263
21
154.482483
31
-12.277040
12
-172.218933
22
169.823059
32
17.482771
13
-172.218933
23
169.823059
33
17.482771
0
3DFACE
8
0
70
0
10
-102.546181
20
105.429932
30
4.063043
11
-200.188263
21
154.482483
31
-12.277040
12
-80.284149
22
128.409546
32
-30.859509
13
-80.284149
23
128.409546
33
-30.859509
0
3DFACE
8
0
70
0
10
-183.856659
20
115.699219
30
3.864569
11
-200.188263
21
154.482483
31
-12.277040
12
-102.546181
22
105.429932
32
4.063043
13
-102.546181
23
105.429932
33
4.063043
0
3DFACE
8
0
70
0
10
-198.058151
20
104.145187
30
45.955395
11
-183.856659
21
115.699219
31
3.864569
12
-151.399536
22
125.685303
32
38.197159
13
-151.399536
23
125.685303
33
38.197159
0
3DFACE
8
0
70
0
10
-198.058151
20
104.145187
30
45.955395
11
-151.399536
21
125.685303
31
38.197159
12
-152.578339
22
120.307800
32
51.680317
13
-152.578339
23
120.307800
33
51.680317
0
3DFACE
8
0
70
0
10
-152.578339
20
120.307800
30
51.680317
11
-151.399536
21
125.685303
31
38.197159
12
-172.218933
22
169.823059
32
17.482771
13
-172.218933
23
169.823059
33
17.482771
0
3DFACE
8
0
70
0
10
-152.578339
20
120.307800
30
51.680317
11
-172.218933
21
169.823059
31
17.482771
12
-187.087448
22
157.709412
32
66.962463
13
-187.087448
23
157.709412
33
66.962463
0
3DFACE
8
0
70
0
10
-225.477722
20
137.709290
30
59.617889
11
-187.087448
21
157.709412
31
66.962463
12
-172.218933
22
169.823059
32
17.482771
13
-172.218933
23
169.823059
33
17.482771
0
3DFACE
8
0
70
0
10
-225.477722
20
137.709290
30
59.617889
11
-172.218933
21
169.823059
31
17.482771
12
-200.188263
22
154.482483
32
-12.277040
13
-200.188263
23
154.482483
33
-12.277040
0
3DFACE
8
0
70
0
10
-198.058151
20
104.145187
30
45.955395
11
-225.477722
21
137.709290
31
59.617889
12
-200.188263
22
154.482483
32
-12.277040
13
-200.188263
23
154.482483
33
-12.277040
0
3DFACE
8
0
70
0
10
-198.058151
20
104.145187
30
45.955395
11
-200.188263
21
154.482483
31
-12.277040
12
-183.856659
22
115.699219
32
3.864569
13
-183.856659
23
115.699219
33
3.864569
0
3DFACE
8
0
70
0
10
174.813782
20
83.141846
30
73.741959
11
142.697845
21
118.278320
31
44.483597
12
148.955322
22
70.827209
32
37.866791
13
148.955322
23
70.827209
33
37.866791
0
3DFACE
8
0
70
0
10
174.813782
20
83.141846
30
73.741959
11
151.219070
21
122.348938
31
57.355686
12
142.697845
22
118.278320
32
44.483597
13
142.697845
23
118.278320
33
44.483597
0
3DFACE
8
0
70
0
10
151.219070
20
122.348938
30
57.355686
11
173.067703
21
108.183228
31
2.181736
12
142.697845
22
118.278320
32
44.483597
13
142.697845
23
118.278320
33
44.483597
0
3DFACE
8
0
70
0
10
151.219070
20
122.348938
30
57.355686
11
202.303635
21
124.680054
31
42.925343
12
173.067703
22
108.183228
32
2.181736
13
173.067703
23
108.183228
33
2.181736
0
3DFACE
8
0
70
0
10
217.973251
20
87.478500
30
60.195770
11
174.947830
21
64.582336
31
1.551286
12
173.067703
22
108.183228
32
2.181736
13
173.067703
23
108.183228
33
2.181736
0
3DFACE
8
0
70
0
10
217.973251
20
87.478500
30
60.195770
11
173.067703
21
108.183228
31
2.181736
12
202.303635
22
124.680054
32
42.925343
13
202.303635
23
124.680054
33
42.925343
0
3DFACE
8
0
70
0
10
174.813782
20
83.141846
30
73.741959
11
148.955322
21
70.827209
31
37.866791
12
174.947830
22
64.582336
32
1.551286
13
174.947830
23
64.582336
33
1.551286
0
3DFACE
8
0
70
0
10
174.813782
20
83.141846
30
73.741959
11
174.947830
21
64.582336
31
1.551286
12
217.973251
22
87.478500
32
60.195770
13
217.973251
23
87.478500
33
60.195770
0
3DFACE
8
0
70
0
10
-10.335562
20
291.404419
30
-0.284221
11
-5.802052
21
289.157715
31
-0.364075
12
-0.197205
22
296.030334
32
29.481842
13
-15.292675
23
299.381927
33
35.656757
0
3DFACE
8
0
70
0
10
-1.543099
20
291.404419
30
-1.919848
11
16.108980
21
299.381927
31
29.815224
12
-0.197205
22
296.030334
32
29.481842
13
-5.802052
23
289.157715
33
-0.364075
0
3DFACE
8
0
70
0
10
1.203454
20
294.739319
30
-3.564125
11
27.544447
21
304.356934
31
32.685394
12
16.108980
22
299.381927
32
29.815224
13
-1.543099
23
291.404419
33
-1.919848
0
3DFACE
8
0
70
0
10
0.319913
20
298.150909
30
-4.559146
11
26.052675
21
309.446350
31
38.075287
12
27.544447
22
304.356934
32
32.685394
13
1.203454
23
294.739319
33
-3.564125
0
3DFACE
8
0
70
0
10
-0.675882
20
302.380280
30
-5.811196
11
24.558802
21
315.755676
31
44.691040
12
26.052675
22
309.446350
32
38.075287
13
0.319913
23
298.150909
33
-4.559146
0
3DFACE
8
0
70
0
10
-4.085510
20
304.433685
30
-5.874733
11
13.382947
21
318.818970
31
49.847172
12
24.558802
22
315.755676
32
44.691040
13
-0.675882
23
302.380280
33
-5.811196
0
3DFACE
8
0
70
0
10
-6.808694
20
305.632080
30
-5.775393
11
4.241698
21
320.606689
31
53.343491
12
13.382947
22
318.818970
32
49.847172
13
-4.085510
23
304.433685
33
-5.874733
0
3DFACE
8
0
70
0
10
-6.808694
20
305.632080
30
-5.775393
11
-9.385430
21
304.433685
31
-4.888810
12
-5.545339
22
318.818970
32
53.368328
13
4.241698
23
320.606689
33
53.343491
0
3DFACE
8
0
70
0
10
-9.385430
20
304.433685
30
-4.888810
11
-12.544119
21
302.380280
31
-3.603395
12
-17.827755
22
315.755676
32
52.576054
13
-5.545339
23
318.818970
33
53.368328
0
3DFACE
8
0
70
0
10
-12.544119
20
302.380280
30
-3.603395
11
-13.023054
21
298.150909
31
-2.077007
12
-21.600779
22
309.446350
32
46.940079
13
-17.827755
23
315.755676
33
52.576054
0
3DFACE
8
0
70
0
10
-13.023054
20
298.150909
30
-2.077007
11
-13.489672
21
294.739319
31
-0.830821
12
-24.931002
22
304.356964
32
42.447205
13
-21.600779
23
309.446350
33
46.940079
0
3DFACE
8
0
70
0
10
-13.489672
20
294.739319
30
-0.830821
11
-10.335562
21
291.404419
31
-0.284221
12
-15.292675
22
299.381927
32
35.656757
13
-24.931002
23
304.356964
33
42.447205
0
ENDSEC
0
EOF
