0
SECTION
2
HEADER
999
DXF File Generated by LightWave 3D(TM)
0
ENDSEC
0
SECTION
2
TABLES
0
ENDSEC
0
SECTION
2
BLOCKS
0
ENDSEC
0
SECTION
2
ENTITIES
0
3DFACE
8
0
70
0
10
-1.173770
20
-45.570168
30
76.686188
11
29.606339
21
-30.712631
31
53.849983
12
71.317459
22
-35.848824
32
31.184572
13
64.996544
23
-43.517776
33
52.361000
0
3DFACE
8
0
70
0
10
64.996544
20
-37.667389
30
-69.819954
11
70.556061
21
-60.499191
31
-49.885384
12
28.434952
22
-68.636276
32
-70.873024
13
-1.173769
23
-37.307037
33
-95.882874
0
3DFACE
8
0
70
0
10
-1.173770
20
-53.417923
30
96.793648
11
-1.173770
21
-45.570168
31
76.686188
12
64.996544
22
-43.517776
32
52.361000
13
86.317215
23
-51.033447
33
66.786865
0
3DFACE
8
0
70
0
10
86.317215
20
-43.629593
30
-87.836967
11
64.996544
21
-37.667389
31
-69.819954
12
-1.173769
22
-37.307037
32
-95.882874
13
-1.173769
23
-43.126564
33
-118.133484
0
3DFACE
8
0
70
0
10
-1.173771
20
-50.454857
30
109.681396
11
91.622299
21
-47.913666
31
75.750137
12
106.074837
22
5.472733
32
83.971634
13
-1.173772
23
3.884537
33
118.049660
0
3DFACE
8
0
70
0
10
91.622307
20
-39.547318
30
-98.974792
11
-1.173769
21
-38.825623
31
-133.186264
12
-1.173989
22
15.519669
32
-124.818016
13
106.074837
23
13.839096
33
-90.753296
0
3DFACE
8
0
70
0
10
-1.173772
20
3.884537
30
118.049660
11
106.074837
21
5.472733
31
83.971634
12
99.973991
22
7.037354
32
75.729759
13
-1.173772
23
5.647049
33
105.889648
0
3DFACE
8
0
70
0
10
-1.173771
20
-50.454857
30
109.681396
11
-1.173770
21
-53.417923
31
96.793648
12
86.317215
22
-51.033447
32
66.786865
13
91.622299
23
-47.913666
33
75.750137
0
3DFACE
8
0
70
0
10
106.074837
20
13.839096
30
-90.753296
11
-1.173989
21
15.519669
31
-124.818016
12
-1.188086
22
16.154266
32
-109.035614
13
99.973991
23
14.441208
33
-78.894073
0
3DFACE
8
0
70
0
10
91.622307
20
-39.547318
30
-98.974792
11
86.317215
21
-43.629593
31
-87.836967
12
-1.173769
22
-43.126564
32
-118.133484
13
-1.173769
23
-38.825623
33
-133.186264
0
3DFACE
8
0
70
0
10
28.323221
20
-119.444244
30
103.377602
11
75.463165
21
-119.444244
31
103.377602
12
67.626854
22
-98.812729
32
88.562103
13
34.637344
23
-98.998032
33
88.562103
0
3DFACE
8
0
70
0
10
64.996544
20
-43.517776
30
52.361000
11
71.317459
21
-35.848824
31
31.184572
12
81.667946
22
-51.053192
32
-7.611175
13
80.874924
23
-40.656616
33
-7.392191
0
3DFACE
8
0
70
0
10
86.317215
20
-51.033447
30
66.786865
11
64.996544
21
-43.517776
31
52.361000
12
80.874924
22
-40.656616
32
-7.392191
13
107.525780
23
-47.431572
33
-8.435534
0
3DFACE
8
0
70
0
10
106.074837
20
5.472733
30
83.971634
11
91.622299
21
-47.913666
31
75.750137
12
114.157120
22
-43.908585
32
-7.892994
13
131.989883
23
9.477829
33
0.328505
0
3DFACE
8
0
70
0
10
131.989883
20
9.477829
30
0.328505
11
124.363838
21
10.639236
31
0.507362
12
99.973991
22
7.037354
32
75.729759
13
106.074837
23
5.472733
33
83.971634
0
3DFACE
8
0
70
0
10
91.622299
20
-47.913666
30
75.750137
11
86.317215
21
-51.033447
31
66.786865
12
107.525780
22
-47.431572
32
-8.435534
13
114.157120
23
-43.908585
33
-7.892994
0
3DFACE
8
0
70
0
10
13.556337
20
-152.844193
30
103.377602
11
80.739731
21
-153.029510
31
103.377602
12
75.463165
22
-119.444244
32
103.377602
13
28.323221
23
-119.444244
33
103.377602
0
3DFACE
8
0
70
0
10
-1.204486
20
159.514893
30
14.784546
11
63.277851
21
145.942200
31
9.961871
12
53.713791
22
135.579956
32
-26.806488
13
-1.207897
23
140.783752
33
-38.229687
0
3DFACE
8
0
70
0
10
80.874924
20
-40.656616
30
-7.392191
11
81.667946
21
-51.053192
31
-7.611175
12
70.556061
22
-60.499191
32
-49.885384
13
64.996544
23
-37.667389
33
-69.819954
0
3DFACE
8
0
70
0
10
107.525780
20
-47.431572
30
-8.435534
11
80.874924
21
-40.656616
31
-7.392191
12
64.996544
22
-37.667389
32
-69.819954
13
86.317215
23
-43.629593
33
-87.836967
0
3DFACE
8
0
70
0
10
114.157120
20
-43.908585
30
-7.892994
11
91.622307
21
-39.547318
31
-98.974792
12
106.074837
22
13.839096
32
-90.753296
13
131.989883
23
9.477829
33
0.328505
0
3DFACE
8
0
70
0
10
106.074837
20
13.839096
30
-90.753296
11
99.973991
21
14.441208
31
-78.894073
12
124.363838
22
10.639236
32
0.507362
13
131.989883
23
9.477829
33
0.328505
0
3DFACE
8
0
70
0
10
114.157120
20
-43.908585
30
-7.892994
11
107.525780
21
-47.431572
31
-8.435534
12
86.317215
22
-43.629593
32
-87.836967
13
91.622307
23
-39.547318
33
-98.974792
0
3DFACE
8
0
70
0
10
30.115110
20
-51.856369
30
21.695215
11
29.606339
21
-30.712631
31
53.849983
12
21.283901
22
-53.214722
32
-6.402685
13
21.921371
23
-62.505730
33
-4.248429
0
3DFACE
8
0
70
0
10
30.115110
20
-51.856369
30
21.695215
11
71.910492
21
-53.662216
31
11.300113
12
71.317459
22
-35.848824
32
31.184572
13
29.606339
23
-30.712631
33
53.849983
0
3DFACE
8
0
70
0
10
71.910492
20
-53.662216
30
11.300113
11
82.290215
21
-59.803818
31
-5.759043
12
81.667946
22
-51.053192
32
-7.611175
13
71.317459
23
-35.848824
33
31.184572
0
3DFACE
8
0
70
0
10
21.921371
20
-62.505730
30
-4.248429
11
21.283901
21
-53.214722
31
-6.402685
12
28.434952
22
-68.636276
32
-70.873024
13
29.485491
23
-72.892975
33
-31.713314
0
3DFACE
8
0
70
0
10
82.290215
20
-59.803818
30
-5.759043
11
71.501236
21
-67.336021
31
-23.415434
12
70.556061
22
-60.499191
32
-49.885384
13
81.667946
23
-51.053192
33
-7.611175
0
3DFACE
8
0
70
0
10
71.501236
20
-67.336021
30
-23.415434
11
29.485491
21
-72.892975
31
-31.713314
12
28.434952
22
-68.636276
32
-70.873024
13
70.556061
23
-60.499191
33
-49.885384
0
3DFACE
8
0
70
0
10
27.363747
20
-124.776695
30
-4.395236
11
28.323221
21
-127.827744
31
44.486000
12
34.637344
22
-108.736435
32
36.707859
13
34.721851
23
-96.646309
33
23.258396
0
3DFACE
8
0
70
0
10
34.721851
20
-96.646309
30
23.258396
11
34.637344
21
-108.736435
31
36.707859
12
67.626854
22
-112.334427
32
36.707859
13
68.960938
23
-102.856995
33
12.764732
0
3DFACE
8
0
70
0
10
77.246529
20
-124.713120
30
-5.162017
11
68.960938
21
-102.856995
31
12.764732
12
67.626854
22
-112.334427
32
36.707859
13
75.463165
23
-127.827744
33
44.486000
0
3DFACE
8
0
70
0
10
10.429370
20
-154.640411
30
-33.658207
11
17.260212
21
-150.617310
31
33.374374
12
28.323221
22
-127.827744
32
44.486000
13
27.363747
23
-124.776695
33
-4.395236
0
3DFACE
8
0
70
0
10
84.011185
20
-153.311859
30
-32.885086
11
77.246529
21
-124.713120
31
-5.162017
12
75.463165
22
-127.827744
32
44.486000
13
84.443596
23
-150.723206
33
37.078255
0
3DFACE
8
0
70
0
10
84.011185
20
-153.311859
30
-32.885086
11
84.443596
21
-150.723206
31
37.078255
12
17.260212
22
-150.617310
32
33.374374
13
10.429370
23
-154.640411
33
-33.658207
0
3DFACE
8
0
70
0
10
28.323221
20
-119.444244
30
103.377602
11
34.637344
21
-98.998032
31
88.562103
12
34.637344
22
-108.736435
32
36.707859
13
28.323221
23
-127.827744
33
44.486000
0
3DFACE
8
0
70
0
10
34.637344
20
-98.998032
30
88.562103
11
67.626854
21
-98.812729
31
88.562103
12
67.626854
22
-112.334427
32
36.707859
13
34.637344
23
-108.736435
33
36.707859
0
3DFACE
8
0
70
0
10
75.463165
20
-119.444244
30
103.377602
11
75.463165
21
-127.827744
31
44.486000
12
67.626854
22
-112.334427
32
36.707859
13
67.626854
23
-98.812729
33
88.562103
0
3DFACE
8
0
70
0
10
13.556337
20
-152.844193
30
103.377602
11
28.323221
21
-119.444244
31
103.377602
12
28.323221
22
-127.827744
32
44.486000
13
17.260212
23
-150.617310
33
33.374374
0
3DFACE
8
0
70
0
10
80.739731
20
-153.029510
30
103.377602
11
84.443596
21
-150.723206
31
37.078255
12
75.463165
22
-127.827744
32
44.486000
13
75.463165
23
-119.444244
33
103.377602
0
3DFACE
8
0
70
0
10
80.739731
20
-153.029510
30
103.377602
11
13.556337
21
-152.844193
31
103.377602
12
17.260212
22
-150.617310
32
33.374374
13
84.443596
23
-150.723206
33
37.078255
0
3DFACE
8
0
70
0
10
74.966194
20
-25.893829
30
182.937195
11
93.040489
21
-14.795700
31
182.603714
12
76.861725
22
-3.697876
32
186.015137
13
62.770611
23
-14.249969
33
177.273758
0
3DFACE
8
0
70
0
10
80.604759
20
120.600891
30
-26.186817
11
53.713791
21
135.579956
31
-26.806488
12
63.277851
22
145.942200
32
9.961871
13
63.277851
23
145.942200
33
9.961871
0
3DFACE
8
0
70
0
10
68.362885
20
116.272980
30
49.763706
11
63.277851
21
145.942200
31
9.961871
12
53.584675
22
111.243011
32
68.033928
13
53.584675
23
111.243011
33
68.033928
0
3DFACE
8
0
70
0
10
102.451637
20
45.384674
30
72.177979
11
114.013451
21
4.235580
31
49.037258
12
108.021019
22
-15.815414
32
78.575981
13
98.522278
23
26.376068
33
102.639275
0
3DFACE
8
0
70
0
10
154.904816
20
37.319366
30
74.808144
11
102.451637
21
45.384674
31
72.177979
12
98.522278
22
26.376068
32
102.639275
13
151.640396
23
19.913193
33
106.329803
0
3DFACE
8
0
70
0
10
154.168472
20
-18.599472
30
83.487656
11
159.073425
21
-0.379395
31
52.690594
12
154.904816
22
37.319366
32
74.808144
13
151.640396
23
19.913193
33
106.329803
0
3DFACE
8
0
70
0
10
114.013451
20
4.235580
30
49.037258
11
159.073425
21
-0.379395
31
52.690594
12
154.168472
22
-18.599472
32
83.487656
13
108.021019
23
-15.815414
33
78.575981
0
3DFACE
8
0
70
0
10
100.771660
20
-23.034607
30
73.191475
11
94.535423
21
-42.487572
31
100.583931
12
86.143326
22
16.370377
32
133.790283
13
89.618210
23
33.954788
33
105.933952
0
3DFACE
8
0
70
0
10
89.618210
20
33.954788
30
105.933952
11
86.143326
21
16.370377
31
133.790283
12
158.668213
22
11.595276
32
140.336670
13
161.197510
23
26.793884
33
111.839844
0
3DFACE
8
0
70
0
10
158.415482
20
-42.042969
30
108.916550
11
163.071182
21
-25.412941
31
80.653816
12
161.197510
22
26.793884
32
111.839844
13
158.668213
23
11.595276
33
140.336670
0
3DFACE
8
0
70
0
10
100.771660
20
-23.034607
30
73.191475
11
163.071182
21
-25.412941
31
80.653816
12
158.415482
22
-42.042969
32
108.916550
13
94.535423
23
-42.487572
33
100.583931
0
3DFACE
8
0
70
0
10
100.771660
20
-23.034607
30
73.191475
11
89.618210
21
33.954788
31
105.933952
12
98.522278
22
26.376068
32
102.639275
13
108.021019
23
-15.815414
33
78.575981
0
3DFACE
8
0
70
0
10
94.535423
20
-42.487572
30
100.583931
11
102.377342
21
-34.699554
31
106.395744
12
94.919250
22
8.946289
32
130.570450
13
86.143326
23
16.370377
33
133.790283
0
3DFACE
8
0
70
0
10
89.618210
20
33.954788
30
105.933952
11
161.197510
21
26.793884
31
111.839844
12
151.640396
22
19.913193
32
106.329803
13
98.522278
23
26.376068
33
102.639275
0
3DFACE
8
0
70
0
10
86.143326
20
16.370377
30
133.790283
11
94.919250
21
8.946289
31
130.570450
12
148.718735
22
4.334579
32
134.541672
13
158.668213
23
11.595276
33
140.336670
0
3DFACE
8
0
70
0
10
158.415482
20
-42.042969
30
108.916550
11
158.668213
21
11.595276
31
140.336670
12
148.718735
22
4.334579
32
134.541672
13
149.670883
23
-35.306244
33
111.726707
0
3DFACE
8
0
70
0
10
163.071182
20
-25.412941
30
80.653816
11
154.168472
21
-18.599472
31
83.487656
12
151.640396
22
19.913193
32
106.329803
13
161.197510
23
26.793884
33
111.839844
0
3DFACE
8
0
70
0
10
94.535423
20
-42.487572
30
100.583931
11
158.415482
21
-42.042969
31
108.916550
12
149.670883
22
-35.306244
32
111.726707
13
102.377342
23
-34.699554
33
106.395744
0
3DFACE
8
0
70
0
10
100.771660
20
-23.034607
30
73.191475
11
108.021019
21
-15.815414
31
78.575981
12
154.168472
22
-18.599472
32
83.487656
13
163.071182
23
-25.412941
33
80.653816
0
3DFACE
8
0
70
0
10
117.252411
20
-20.131287
30
104.195862
11
97.204834
21
1.142990
31
95.933052
12
94.919250
22
8.946289
32
130.570450
13
102.377342
23
-34.699554
33
106.395744
0
3DFACE
8
0
70
0
10
97.204834
20
1.142990
30
95.933052
11
118.732574
21
20.806503
31
110.400742
12
148.718735
22
4.334579
32
134.541672
13
94.919250
23
8.946289
33
130.570450
0
3DFACE
8
0
70
0
10
134.879791
20
-0.944901
30
116.324867
11
149.670883
21
-35.306244
31
111.726707
12
148.718735
22
4.334579
32
134.541672
13
118.732574
23
20.806503
33
110.400742
0
3DFACE
8
0
70
0
10
117.252411
20
-20.131287
30
104.195862
11
102.377342
21
-34.699554
31
106.395744
12
149.670883
22
-35.306244
32
111.726707
13
134.879791
23
-0.944901
33
116.324867
0
3DFACE
8
0
70
0
10
58.476879
20
-16.799713
30
121.140213
11
58.114849
21
-5.879395
31
122.243500
12
63.596020
22
-3.626907
32
112.505554
13
63.879589
23
-14.538727
33
111.339203
0
3DFACE
8
0
70
0
10
58.114849
20
-5.879395
30
122.243500
11
58.325935
21
5.385468
31
123.758987
12
63.703346
22
7.640045
32
113.983147
13
63.596020
23
-3.626907
33
112.505554
0
3DFACE
8
0
70
0
10
130.965790
20
-6.397552
30
146.872971
11
134.879791
21
-0.944901
31
116.324867
12
118.732574
22
20.806503
32
110.400742
13
107.858719
23
15.747711
33
137.134933
0
3DFACE
8
0
70
0
10
105.463600
20
-25.156723
30
130.534744
11
117.252411
21
-20.131287
31
104.195862
12
134.879791
22
-0.944901
32
116.324867
13
130.965790
23
-6.397552
33
146.872971
0
3DFACE
8
0
70
0
10
74.966194
20
-25.893829
30
182.937195
11
62.770611
21
-14.249969
31
177.273758
12
76.209892
22
-4.872116
32
131.974457
13
105.463600
23
-25.156723
33
130.534744
0
3DFACE
8
0
70
0
10
62.770611
20
-14.249969
30
177.273758
11
76.861725
21
-3.697876
31
186.015137
12
107.858719
22
15.747711
32
137.134933
13
76.209892
23
-4.872116
33
131.974457
0
3DFACE
8
0
70
0
10
93.040489
20
-14.795700
30
182.603714
11
130.965790
21
-6.397552
31
146.872971
12
107.858719
22
15.747711
32
137.134933
13
76.861725
23
-3.697876
33
186.015137
0
3DFACE
8
0
70
0
10
74.966194
20
-25.893829
30
182.937195
11
105.463600
21
-25.156723
31
130.534744
12
130.965790
22
-6.397552
32
146.872971
13
93.040489
23
-14.795700
33
182.603714
0
3DFACE
8
0
70
0
10
58.476879
20
-16.799713
30
121.140213
11
63.879589
21
-14.538727
31
111.339203
12
117.252411
22
-20.131287
32
104.195862
13
105.463600
23
-25.156723
33
130.534744
0
3DFACE
8
0
70
0
10
63.879589
20
-14.538727
30
111.339203
11
63.596020
21
-3.626907
31
112.505554
12
97.204834
22
1.142990
32
95.933052
13
117.252411
23
-20.131287
33
104.195862
0
3DFACE
8
0
70
0
10
58.476879
20
-16.799713
30
121.140213
11
105.463600
21
-25.156723
31
130.534744
12
76.209892
22
-4.872116
32
131.974457
13
58.114849
23
-5.879395
33
122.243500
0
3DFACE
8
0
70
0
10
63.596020
20
-3.626907
30
112.505554
11
63.703346
21
7.640045
31
113.983147
12
118.732574
22
20.806503
32
110.400742
13
97.204834
23
1.142990
33
95.933052
0
3DFACE
8
0
70
0
10
58.325935
20
5.385468
30
123.758987
11
107.858719
21
15.747711
31
137.134933
12
118.732574
22
20.806503
32
110.400742
13
63.703346
23
7.640045
33
113.983147
0
3DFACE
8
0
70
0
10
58.114849
20
-5.879395
30
122.243500
11
76.209892
21
-4.872116
31
131.974457
12
107.858719
22
15.747711
32
137.134933
13
58.325935
23
5.385468
33
123.758987
0
3DFACE
8
0
70
0
10
-1.173770
20
-45.570168
30
76.686188
11
-67.344086
21
-43.517776
31
52.361000
12
-73.604599
22
-37.124359
32
31.054134
13
-31.875801
23
-32.367050
33
53.683807
0
3DFACE
8
0
70
0
10
-67.344086
20
-37.667389
30
-69.819954
11
-1.173769
21
-37.307037
31
-95.882874
12
-30.786333
22
-67.518272
32
-71.174568
13
-72.896446
23
-59.972649
33
-50.103809
0
3DFACE
8
0
70
0
10
-1.173770
20
-53.417923
30
96.793648
11
-88.664764
21
-51.033447
31
66.786865
12
-67.344086
22
-43.517776
32
52.361000
13
-1.173770
23
-45.570168
33
76.686188
0
3DFACE
8
0
70
0
10
-88.664764
20
-43.629593
30
-87.836967
11
-1.173769
21
-43.126564
31
-118.133484
12
-1.173769
22
-37.307037
32
-95.882874
13
-67.344086
23
-37.667389
33
-69.819954
0
3DFACE
8
0
70
0
10
-1.173771
20
-50.454857
30
109.681396
11
-1.173772
21
3.884537
31
118.049660
12
-108.422394
22
5.472733
32
83.971642
13
-93.969849
23
-47.913666
33
75.750137
0
3DFACE
8
0
70
0
10
-93.969841
20
-39.547318
30
-98.974792
11
-108.422394
21
13.839096
31
-90.753288
12
-1.173989
22
15.519669
32
-124.818016
13
-1.173769
23
-38.825623
33
-133.186264
0
3DFACE
8
0
70
0
10
-1.173772
20
3.884537
30
118.049660
11
-1.173772
21
5.647049
31
105.889648
12
-102.321548
22
7.037354
32
75.729767
13
-108.422394
23
5.472733
33
83.971642
0
3DFACE
8
0
70
0
10
-1.173771
20
-50.454857
30
109.681396
11
-93.969849
21
-47.913666
31
75.750137
12
-88.664764
22
-51.033447
32
66.786865
13
-1.173770
23
-53.417923
33
96.793648
0
3DFACE
8
0
70
0
10
-108.422394
20
13.839096
30
-90.753288
11
-102.321541
21
14.441208
31
-78.894073
12
-1.188086
22
16.154266
32
-109.035614
13
-1.173989
23
15.519669
33
-124.818016
0
3DFACE
8
0
70
0
10
-93.969841
20
-39.547318
30
-98.974792
11
-1.173769
21
-38.825623
31
-133.186264
12
-1.173769
22
-43.126564
32
-118.133484
13
-88.664764
23
-43.629593
33
-87.836967
0
3DFACE
8
0
70
0
10
-30.824326
20
-120.311058
30
103.416351
11
-37.138451
21
-99.752579
31
88.757027
12
-70.127968
22
-99.567284
32
88.758438
13
-77.964272
23
-120.311058
33
103.416351
0
3DFACE
8
0
70
0
10
-67.344086
20
-43.517776
30
52.361000
11
-83.222473
21
-40.656616
31
-7.392190
12
-83.971878
22
-51.497406
32
-7.846774
13
-73.604599
23
-37.124359
33
31.054134
0
3DFACE
8
0
70
0
10
-88.664764
20
-51.033447
30
66.786865
11
-109.873322
21
-47.431572
31
-8.435533
12
-83.222473
22
-40.656616
32
-7.392190
13
-67.344086
23
-43.517776
33
52.361000
0
3DFACE
8
0
70
0
10
-108.422394
20
5.472733
30
83.971642
11
-134.337448
21
9.477814
31
0.328507
12
-116.504662
22
-43.908585
32
-7.892992
13
-93.969849
23
-47.913666
33
75.750137
0
3DFACE
8
0
70
0
10
-134.337448
20
9.477814
30
0.328507
11
-108.422394
21
5.472733
31
83.971642
12
-102.321548
22
7.037354
32
75.729767
13
-126.711380
23
10.639236
33
0.507364
0
3DFACE
8
0
70
0
10
-93.969849
20
-47.913666
30
75.750137
11
-116.504662
21
-43.908585
31
-7.892992
12
-109.873322
22
-47.431572
32
-8.435533
13
-88.664764
23
-51.033447
33
66.786865
0
3DFACE
8
0
70
0
10
-16.057442
20
-153.710037
30
103.161934
11
-30.824326
21
-120.311058
31
103.416351
12
-77.964272
22
-120.311058
32
103.416351
13
-83.240837
23
-153.895340
33
103.160522
0
3DFACE
8
0
70
0
10
-1.204486
20
159.514893
30
14.784546
11
-1.207897
21
140.783752
31
-38.229687
12
-56.103218
22
135.579926
32
-26.806486
13
-64.316963
23
144.692810
33
10.227881
0
3DFACE
8
0
70
0
10
-83.222473
20
-40.656616
30
-7.392190
11
-67.344086
21
-37.667389
31
-69.819954
12
-72.896446
22
-59.972649
32
-50.103809
13
-83.971878
23
-51.497406
33
-7.846774
0
3DFACE
8
0
70
0
10
-109.873322
20
-47.431572
30
-8.435533
11
-88.664764
21
-43.629593
31
-87.836967
12
-67.344086
22
-37.667389
32
-69.819954
13
-83.222473
23
-40.656616
33
-7.392190
0
3DFACE
8
0
70
0
10
-116.504662
20
-43.908585
30
-7.892992
11
-134.337448
21
9.477814
31
0.328507
12
-108.422394
22
13.839096
32
-90.753288
13
-93.969841
23
-39.547318
33
-98.974792
0
3DFACE
8
0
70
0
10
-108.422394
20
13.839096
30
-90.753288
11
-134.337448
21
9.477814
31
0.328507
12
-126.711380
22
10.639236
32
0.507364
13
-102.321541
23
14.441208
33
-78.894073
0
3DFACE
8
0
70
0
10
-116.504662
20
-43.908585
30
-7.892992
11
-93.969841
21
-39.547318
31
-98.974792
12
-88.664764
22
-43.629593
32
-87.836967
13
-109.873322
23
-47.431572
33
-8.435533
0
3DFACE
8
0
70
0
10
-32.444355
20
-51.697906
30
21.597328
11
-24.252882
21
-62.337753
31
-4.349779
12
-23.583014
22
-53.505814
32
-6.723894
13
-31.875801
23
-32.367050
33
53.683807
0
3DFACE
8
0
70
0
10
-32.444355
20
-51.697906
30
21.597328
11
-31.875801
21
-32.367050
31
53.683807
12
-73.604599
22
-37.124359
32
31.054134
13
-74.241547
23
-53.518158
33
11.210945
0
3DFACE
8
0
70
0
10
-74.241547
20
-53.518158
30
11.210945
11
-73.604599
21
-37.124359
31
31.054134
12
-83.971878
22
-51.497406
32
-7.846774
13
-84.623085
23
-59.659874
33
-5.846952
0
3DFACE
8
0
70
0
10
-24.252882
20
-62.337753
30
-4.349779
11
-31.819729
21
-72.721481
31
-31.814686
12
-30.786333
22
-67.518272
32
-71.174568
13
-23.583014
23
-53.505814
33
-6.723894
0
3DFACE
8
0
70
0
10
-84.623085
20
-59.659874
30
-5.846952
11
-83.971878
21
-51.497406
31
-7.846774
12
-72.896446
22
-59.972649
32
-50.103809
13
-73.835541
23
-67.183487
33
-23.506866
0
3DFACE
8
0
70
0
10
-73.835541
20
-67.183487
30
-23.506866
11
-72.896446
21
-59.972649
31
-50.103809
12
-30.786333
22
-67.518272
32
-71.174568
13
-31.819729
23
-72.721481
33
-31.814686
0
3DFACE
8
0
70
0
10
-29.714792
20
-124.781654
30
-4.466537
11
-37.075729
21
-96.698372
31
23.227720
12
-37.138451
22
-109.095726
32
36.830105
13
-30.824326
23
-128.245728
33
44.462597
0
3DFACE
8
0
70
0
10
-37.075729
20
-96.698372
30
23.227720
11
-71.315025
21
-102.903229
31
12.731691
12
-70.127968
22
-112.693611
32
36.802696
13
-37.138451
23
-109.095726
33
36.830105
0
3DFACE
8
0
70
0
10
-79.597786
20
-124.733047
30
-5.224913
11
-77.964272
21
-128.245728
31
44.462597
12
-70.127968
22
-112.693611
32
36.802696
13
-71.315025
23
-102.903229
33
12.731691
0
3DFACE
8
0
70
0
10
-12.777384
20
-154.592560
30
-33.774147
11
-29.714792
21
-124.781654
31
-4.466537
12
-30.824326
22
-128.245728
32
44.462597
13
-19.761314
23
-150.949997
33
33.177700
0
3DFACE
8
0
70
0
10
-86.359505
20
-153.289154
30
-32.987015
11
-86.944710
21
-151.084106
31
36.880665
12
-77.964272
22
-128.245728
32
44.462597
13
-79.597786
23
-124.733047
33
-5.224913
0
3DFACE
8
0
70
0
10
-86.359505
20
-153.289154
30
-32.987015
11
-12.777384
21
-154.592560
31
-33.774147
12
-19.761314
22
-150.949997
32
33.177700
13
-86.944710
23
-151.084106
33
36.880665
0
3DFACE
8
0
70
0
10
-30.824326
20
-120.311058
30
103.416351
11
-30.824326
21
-128.245728
31
44.462597
12
-37.138451
22
-109.095726
32
36.830105
13
-37.138451
23
-99.752579
33
88.757027
0
3DFACE
8
0
70
0
10
-37.138451
20
-99.752579
30
88.757027
11
-37.138451
21
-109.095726
31
36.830105
12
-70.127968
22
-112.693611
32
36.802696
13
-70.127968
23
-99.567284
33
88.758438
0
3DFACE
8
0
70
0
10
-77.964272
20
-120.311058
30
103.416351
11
-70.127968
21
-99.567284
31
88.758438
12
-70.127968
22
-112.693611
32
36.802696
13
-77.964272
23
-128.245728
33
44.462597
0
3DFACE
8
0
70
0
10
-16.057442
20
-153.710037
30
103.161934
11
-19.761314
21
-150.949997
31
33.177700
12
-30.824326
22
-128.245728
32
44.462597
13
-30.824326
23
-120.311058
33
103.416351
0
3DFACE
8
0
70
0
10
-83.240837
20
-153.895340
30
103.160522
11
-77.964272
21
-120.311058
31
103.416351
12
-77.964272
22
-128.245728
32
44.462597
13
-86.944710
23
-151.084106
33
36.880665
0
3DFACE
8
0
70
0
10
-83.240837
20
-153.895340
30
103.160522
11
-86.944710
21
-151.084106
31
36.880665
12
-19.761314
22
-150.949997
32
33.177700
13
-16.057442
23
-153.710037
33
103.161934
0
3DFACE
8
0
70
0
10
-73.318253
20
-29.154991
30
198.471375
11
-59.607052
21
-17.384308
31
191.569290
12
-75.455765
22
-6.975113
32
201.706284
13
-93.926048
23
-18.082001
33
198.383453
0
3DFACE
8
0
70
0
10
-85.589996
20
121.640991
30
-25.423996
11
-64.316963
21
144.692810
31
10.227881
12
-56.103218
22
135.579926
32
-26.806486
13
-56.103218
23
135.579926
33
-26.806486
0
3DFACE
8
0
70
0
10
-68.211647
20
111.200012
30
46.510944
11
-55.965126
21
111.243011
31
68.033936
12
-64.316963
22
144.692810
32
10.227881
13
-64.316963
23
144.692810
33
10.227881
0
3DFACE
8
0
70
0
10
-107.520180
20
35.689087
30
70.437820
11
-104.559952
21
10.694229
31
96.344421
12
-128.633301
22
-22.342484
32
68.443901
13
-133.135788
23
3.963318
33
43.985363
0
3DFACE
8
0
70
0
10
-159.217133
20
40.276611
30
81.825661
11
-156.296555
21
16.757324
31
109.130600
12
-104.559952
22
10.694229
32
96.344421
13
-107.520180
23
35.689087
33
70.437820
0
3DFACE
8
0
70
0
10
-172.558121
20
-14.721344
30
81.634506
11
-156.296555
21
16.757324
31
109.130600
12
-159.217133
22
40.276611
32
81.825661
13
-176.710495
23
9.827927
33
55.470009
0
3DFACE
8
0
70
0
10
-133.135788
20
3.963318
30
43.985363
11
-128.633301
21
-22.342484
31
68.443901
12
-172.558121
22
-14.721344
32
81.634506
13
-176.710495
23
9.827927
33
55.470009
0
3DFACE
8
0
70
0
10
-124.498558
20
-29.906052
30
60.739407
11
-93.541412
21
15.078735
31
98.979233
12
-91.002068
22
-7.941086
32
122.662590
13
-119.912476
23
-55.281570
33
83.160515
0
3DFACE
8
0
70
0
10
-93.541412
20
15.078735
30
98.979233
11
-162.699890
21
24.536316
31
117.348114
12
-160.313660
22
3.886932
32
142.195099
13
-91.002068
23
-7.941086
33
122.662590
0
3DFACE
8
0
70
0
10
-179.316727
20
-40.950325
30
103.557640
11
-160.313660
21
3.886932
31
142.195099
12
-162.699890
22
24.536316
32
117.348114
13
-183.299011
23
-18.469833
33
79.562141
0
3DFACE
8
0
70
0
10
-124.498558
20
-29.906052
30
60.739407
11
-119.912476
21
-55.281570
31
83.160515
12
-179.316727
22
-40.950325
32
103.557640
13
-183.299011
23
-18.469833
33
79.562141
0
3DFACE
8
0
70
0
10
-124.498558
20
-29.906052
30
60.739407
11
-128.633301
21
-22.342484
31
68.443901
12
-104.559952
22
10.694229
32
96.344421
13
-93.541412
23
15.078735
33
98.979233
0
3DFACE
8
0
70
0
10
-119.912476
20
-55.281570
30
83.160515
11
-91.002068
21
-7.941086
31
122.662590
12
-101.845573
22
-12.224609
32
120.099190
13
-124.392868
23
-47.117432
33
91.479118
0
3DFACE
8
0
70
0
10
-93.541412
20
15.078735
30
98.979233
11
-104.559952
21
10.694229
31
96.344421
12
-156.296555
22
16.757324
32
109.130600
13
-162.699890
23
24.536316
33
117.348114
0
3DFACE
8
0
70
0
10
-91.002068
20
-7.941086
30
122.662590
11
-160.313660
21
3.886932
31
142.195099
12
-153.682663
22
-4.292511
32
133.568497
13
-101.845573
23
-12.224609
33
120.099190
0
3DFACE
8
0
70
0
10
-179.316727
20
-40.950325
30
103.557640
11
-168.750626
21
-37.231606
31
105.625748
12
-153.682663
22
-4.292511
32
133.568497
13
-160.313660
23
3.886932
33
142.195099
0
3DFACE
8
0
70
0
10
-183.299011
20
-18.469833
30
79.562141
11
-162.699890
21
24.536316
31
117.348114
12
-156.296555
22
16.757324
32
109.130600
13
-172.558121
23
-14.721344
33
81.634506
0
3DFACE
8
0
70
0
10
-119.912476
20
-55.281570
30
83.160515
11
-124.392868
21
-47.117432
31
91.479118
12
-168.750626
22
-37.231606
32
105.625748
13
-179.316727
23
-40.950325
33
103.557640
0
3DFACE
8
0
70
0
10
-124.498558
20
-29.906052
30
60.739407
11
-183.299011
21
-18.469833
31
79.562141
12
-172.558121
22
-14.721344
32
81.634506
13
-128.633301
23
-22.342484
33
68.443901
0
3DFACE
8
0
70
0
10
-126.392151
20
-25.762337
30
103.619095
11
-124.392868
21
-47.117432
31
91.479118
12
-101.845573
22
-12.224609
32
120.099190
13
-106.117096
23
-3.939972
33
102.788101
0
3DFACE
8
0
70
0
10
-106.117096
20
-3.939972
30
102.788101
11
-101.845573
21
-12.224609
31
120.099190
12
-153.682663
22
-4.292511
32
133.568497
13
-133.615158
23
10.483047
33
116.494423
0
3DFACE
8
0
70
0
10
-149.306625
20
-11.172638
30
115.648994
11
-133.615158
21
10.483047
31
116.494423
12
-153.682663
22
-4.292511
32
133.568497
13
-168.750626
23
-37.231606
33
105.625748
0
3DFACE
8
0
70
0
10
-126.392151
20
-25.762337
30
103.619095
11
-149.306625
21
-11.172638
31
115.648994
12
-168.750626
22
-37.231606
32
105.625748
13
-124.392868
23
-47.117432
33
91.479118
0
3DFACE
8
0
70
0
10
-56.100433
20
-19.141006
30
127.690300
11
-62.497459
21
-16.753235
31
116.651016
12
-62.173508
22
-5.841385
32
117.817070
13
-55.688766
23
-8.219559
33
128.782593
0
3DFACE
8
0
70
0
10
-55.688766
20
-8.219559
30
128.782593
11
-62.173508
21
-5.841385
31
117.817070
12
-62.287651
22
5.420761
32
119.341621
13
-55.920059
23
3.039703
33
130.352829
0
3DFACE
8
0
70
0
10
-137.995148
20
-9.267548
30
158.586700
11
-111.992165
21
13.104233
31
146.636307
12
-133.615158
22
10.483047
32
116.494423
13
-149.306625
23
-11.172638
33
115.648994
0
3DFACE
8
0
70
0
10
-109.325722
20
-27.760376
30
139.647156
11
-137.995148
21
-9.267548
31
158.586700
12
-149.306625
22
-11.172638
32
115.648994
13
-126.392151
23
-25.762337
33
103.619095
0
3DFACE
8
0
70
0
10
-73.318253
20
-29.154991
30
198.471375
11
-109.325722
21
-27.760376
31
139.647156
12
-76.046005
22
-7.392838
32
140.276993
13
-59.607052
23
-17.384308
33
191.569290
0
3DFACE
8
0
70
0
10
-59.607052
20
-17.384308
30
191.569290
11
-76.046005
21
-7.392838
31
140.276993
12
-111.992165
22
13.104233
32
146.636307
13
-75.455765
23
-6.975113
33
201.706284
0
3DFACE
8
0
70
0
10
-93.926048
20
-18.082001
30
198.383453
11
-75.455765
21
-6.975113
31
201.706284
12
-111.992165
22
13.104233
32
146.636307
13
-137.995148
23
-9.267548
33
158.586700
0
3DFACE
8
0
70
0
10
-73.318253
20
-29.154991
30
198.471375
11
-93.926048
21
-18.082001
31
198.383453
12
-137.995148
22
-9.267548
32
158.586700
13
-109.325722
23
-27.760376
33
139.647156
0
3DFACE
8
0
70
0
10
-56.100433
20
-19.141006
30
127.690300
11
-109.325722
21
-27.760376
31
139.647156
12
-126.392151
22
-25.762337
32
103.619095
13
-62.497459
23
-16.753235
33
116.651016
0
3DFACE
8
0
70
0
10
-62.497459
20
-16.753235
30
116.651016
11
-126.392151
21
-25.762337
31
103.619095
12
-106.117096
22
-3.939972
32
102.788101
13
-62.173508
23
-5.841385
33
117.817070
0
3DFACE
8
0
70
0
10
-56.100433
20
-19.141006
30
127.690300
11
-55.688766
21
-8.219559
31
128.782593
12
-76.046005
22
-7.392838
32
140.276993
13
-109.325722
23
-27.760376
33
139.647156
0
3DFACE
8
0
70
0
10
-62.173508
20
-5.841385
30
117.817070
11
-106.117096
21
-3.939972
31
102.788101
12
-133.615158
22
10.483047
32
116.494423
13
-62.287651
23
5.420761
33
119.341621
0
3DFACE
8
0
70
0
10
-55.920059
20
3.039703
30
130.352829
11
-62.287651
21
5.420761
31
119.341621
12
-133.615158
22
10.483047
32
116.494423
13
-111.992165
23
13.104233
33
146.636307
0
3DFACE
8
0
70
0
10
-55.688766
20
-8.219559
30
128.782593
11
-55.920059
21
3.039703
31
130.352829
12
-111.992165
22
13.104233
32
146.636307
13
-76.046005
23
-7.392838
33
140.276993
0
3DFACE
8
0
70
0
10
21.283901
20
-53.214722
30
-6.402685
11
29.606339
21
-30.712631
31
53.849983
12
-1.173770
22
-45.570168
32
76.686188
13
-1.173770
23
-41.519760
33
-7.903441
0
3DFACE
8
0
70
0
10
21.283901
20
-53.214722
30
-6.402685
11
-1.173770
21
-41.519760
31
-7.903441
12
-1.173769
22
-37.307037
32
-95.882874
13
28.434952
23
-68.636276
33
-70.873024
0
3DFACE
8
0
70
0
10
-1.173769
20
-37.307037
30
-95.882874
11
-1.173770
21
-41.519760
31
-7.903441
12
-23.583014
22
-53.505814
32
-6.723894
13
-30.786333
23
-67.518272
33
-71.174568
0
3DFACE
8
0
70
0
10
-1.173770
20
-41.519760
30
-7.903441
11
-1.173770
21
-45.570168
31
76.686188
12
-31.875801
22
-32.367050
32
53.683807
13
-23.583014
23
-53.505814
33
-6.723894
0
3DFACE
8
0
70
0
10
-0.992172
20
150.441742
30
180.628235
11
9.282703
21
151.493225
31
175.478516
12
18.707029
22
168.656342
32
182.096802
13
-0.992172
23
168.180176
33
188.530975
0
3DFACE
8
0
70
0
10
-0.992172
20
168.180176
30
188.530975
11
18.707029
21
168.656342
31
182.096802
12
11.630700
22
177.298096
32
181.778030
13
-0.992172
23
180.356323
33
185.626053
0
3DFACE
8
0
70
0
10
9.282703
20
151.493225
30
175.478516
11
10.215907
21
149.502594
31
162.337692
12
21.707903
22
167.967651
32
164.478333
13
18.707029
23
168.656342
33
182.096802
0
3DFACE
8
0
70
0
10
-0.992172
20
150.441742
30
180.628235
11
-1.250554
21
146.126801
31
167.942490
12
10.215907
22
149.502594
32
162.337692
13
9.282703
23
151.493225
33
175.478516
0
3DFACE
8
0
70
0
10
-0.992172
20
180.356323
30
185.626053
11
11.630700
21
177.298096
31
181.778030
12
13.550124
22
179.818970
32
165.767899
13
-1.250555
23
183.201355
33
171.450287
0
3DFACE
8
0
70
0
10
18.707029
20
168.656342
30
182.096802
11
21.707903
21
167.967651
31
164.478333
12
13.550124
22
179.818970
32
165.767899
13
11.630700
23
177.298096
33
181.778030
0
3DFACE
8
0
70
0
10
2.787638
20
193.029968
30
168.568115
11
2.787638
21
183.468628
31
168.636841
12
13.817105
22
181.673279
32
163.116943
13
15.134119
23
200.752625
33
167.340942
0
3DFACE
8
0
70
0
10
13.817105
20
181.673279
30
163.116943
11
23.379431
21
183.304504
31
156.964371
12
27.053463
22
194.472107
32
154.516525
13
15.134119
23
200.752625
33
167.340942
0
3DFACE
8
0
70
0
10
11.740433
20
129.604675
30
179.559189
11
7.779481
21
149.598511
31
170.604660
12
-1.250554
22
147.911865
32
173.194901
13
-1.250554
23
129.332642
33
180.218628
0
3DFACE
8
0
70
0
10
49.665459
20
150.993469
30
135.967606
11
48.059715
21
161.884735
31
136.903107
12
24.843042
22
152.710602
32
156.732162
13
31.951050
23
129.360718
33
160.683731
0
3DFACE
8
0
70
0
10
7.779481
20
149.598511
30
170.604660
11
11.740433
21
129.604675
31
179.559189
12
29.954054
22
132.667450
32
171.159912
13
22.476852
23
149.871338
33
170.514862
0
3DFACE
8
0
70
0
10
44.524620
20
196.278625
30
140.631042
11
56.690166
21
210.032959
31
140.082687
12
31.604994
22
220.771606
32
156.585632
13
31.312279
23
200.205994
33
157.191147
0
3DFACE
8
0
70
0
10
-1.250554
20
224.285461
30
171.516403
11
-1.250555
21
199.949585
31
171.110870
12
14.627247
22
207.400879
32
169.266953
13
16.195942
23
230.627014
33
165.714981
0
3DFACE
8
0
70
0
10
16.195942
20
230.627014
30
165.714981
11
14.627247
21
207.400879
31
169.266953
12
31.312279
22
200.205994
32
157.191147
13
31.604994
23
220.771606
33
156.585632
0
3DFACE
8
0
70
0
10
-1.250553
20
103.099945
30
175.346054
11
15.924353
21
112.050476
31
169.862991
12
12.742060
22
121.362976
32
168.757919
13
-1.250554
23
117.854309
33
173.898651
0
3DFACE
8
0
70
0
10
-1.250553
20
62.315063
30
149.982468
11
19.109480
21
75.097336
31
148.032349
12
15.924353
22
112.050476
32
169.862991
13
-1.250553
23
103.099945
33
175.346054
0
3DFACE
8
0
70
0
10
49.665459
20
150.993469
30
135.967606
11
31.951050
21
129.360718
31
160.683731
12
31.267879
22
127.073578
32
151.391251
13
53.388687
23
139.471039
33
137.974686
0
3DFACE
8
0
70
0
10
31.267879
20
127.073578
30
151.391251
11
42.641266
21
104.197769
31
119.093987
12
52.719330
22
135.320190
32
106.202515
13
53.388687
23
139.471039
33
137.974686
0
3DFACE
8
0
70
0
10
19.109480
20
75.097336
30
148.032349
11
42.641266
21
104.197769
31
119.093987
12
31.267879
22
127.073578
32
151.391251
13
15.924353
23
112.050476
33
169.862991
0
3DFACE
8
0
70
0
10
15.924353
20
112.050476
30
169.862991
11
31.267879
21
127.073578
31
151.391251
12
31.951050
22
129.360718
32
160.683731
13
12.742060
23
121.362976
33
168.757919
0
3DFACE
8
0
70
0
10
-1.250554
20
129.332642
30
180.218628
11
-1.250554
21
117.854309
31
173.898651
12
12.742060
22
121.362976
32
168.757919
13
11.740433
23
129.604675
33
179.559189
0
3DFACE
8
0
70
0
10
-1.250554
20
147.911865
30
173.194901
11
7.779481
21
149.598511
31
170.604660
12
10.215907
22
149.502594
32
162.337692
13
-1.250554
23
146.126801
33
167.942490
0
3DFACE
8
0
70
0
10
22.476852
20
149.871338
30
170.514862
11
24.843042
21
152.710602
31
156.732162
12
10.215907
22
149.502594
32
162.337692
13
7.779481
23
149.598511
33
170.604660
0
POINT
8
0
70
0
10
51.156452
20
133.264008
30
152.616730
0
3DFACE
8
0
70
0
10
11.740433
20
129.604675
30
179.559189
11
12.742060
21
121.362976
31
168.757919
12
31.951050
22
129.360718
32
160.683731
13
29.954054
23
132.667450
33
171.159912
0
3DFACE
8
0
70
0
10
29.954054
20
132.667450
30
171.159912
11
51.156452
21
133.264008
31
152.616730
12
22.476852
22
149.871338
32
170.514862
13
22.476852
23
149.871338
33
170.514862
0
3DFACE
8
0
70
0
10
22.476852
20
149.871338
30
170.514862
11
51.156452
21
133.264008
31
152.616730
12
24.843042
22
152.710602
32
156.732162
13
24.843042
23
152.710602
33
156.732162
0
3DFACE
8
0
70
0
10
51.156452
20
133.264008
30
152.616730
11
31.951050
21
129.360718
31
160.683731
12
24.843042
22
152.710602
32
156.732162
13
24.843042
23
152.710602
33
156.732162
0
3DFACE
8
0
70
0
10
31.951050
20
129.360718
30
160.683731
11
51.156452
21
133.264008
31
152.616730
12
29.954054
22
132.667450
32
171.159912
13
29.954054
23
132.667450
33
171.159912
0
3DFACE
8
0
70
0
10
56.690166
20
210.032959
30
140.082687
11
44.524620
21
196.278625
31
140.631042
12
57.958042
22
194.453735
32
104.136078
13
61.263580
23
195.030853
33
105.328880
0
3DFACE
8
0
70
0
10
44.524620
20
196.278625
30
140.631042
11
42.551865
21
184.317505
31
139.911621
12
59.462444
22
187.192169
32
103.822891
13
57.958042
23
194.453735
33
104.136078
0
3DFACE
8
0
70
0
10
42.551865
20
184.317505
30
139.911621
11
44.993641
21
171.301880
31
138.427002
12
59.484230
22
173.844910
32
104.646606
13
59.462444
23
187.192169
33
103.822891
0
3DFACE
8
0
70
0
10
61.263580
20
195.030853
30
105.328880
11
57.958042
21
194.453735
31
104.136078
12
41.167835
22
193.113892
32
78.121964
13
43.753963
23
184.113342
33
81.407440
0
3DFACE
8
0
70
0
10
59.462444
20
187.192169
30
103.822891
11
43.480190
21
193.886658
31
74.562950
12
41.167835
22
193.113892
32
78.121964
13
57.958042
23
194.453735
33
104.136078
0
3DFACE
8
0
70
0
10
59.484230
20
173.844910
30
104.646606
11
40.735416
21
182.401550
31
71.895515
12
43.480190
22
193.886658
32
74.562950
13
59.462444
23
187.192169
33
103.822891
0
3DFACE
8
0
70
0
10
43.753963
20
184.113342
30
81.407440
11
41.167835
21
193.113892
31
78.121964
12
-1.250555
22
193.492096
32
61.201996
13
-1.250556
23
177.551819
33
62.757854
0
3DFACE
8
0
70
0
10
43.480190
20
193.886658
30
74.562950
11
-1.250555
21
195.348633
31
59.556160
12
-1.250555
22
193.492096
32
61.201996
13
41.167835
23
193.113892
33
78.121964
0
3DFACE
8
0
70
0
10
40.735416
20
182.401550
30
71.895515
11
-1.250555
21
181.395966
31
59.594482
12
-1.250555
22
195.348633
32
59.556160
13
43.480190
23
193.886658
33
74.562950
0
3DFACE
8
0
70
0
10
52.719330
20
135.320190
30
106.202515
11
59.047878
21
152.263977
31
103.806770
12
49.665459
22
150.993469
32
135.967606
13
53.388687
23
139.471039
33
137.974686
0
3DFACE
8
0
70
0
10
44.993641
20
171.301880
30
138.427002
11
48.059715
21
161.884735
31
136.903107
12
59.484230
22
173.844910
32
104.646606
13
59.484230
23
173.844910
33
104.646606
0
3DFACE
8
0
70
0
10
49.665459
20
150.993469
30
135.967606
11
59.047878
21
152.263977
31
103.806770
12
59.484230
22
173.844910
32
104.646606
13
48.059715
23
161.884735
33
136.903107
0
3DFACE
8
0
70
0
10
59.047878
20
152.263977
30
103.806770
11
39.942699
21
164.210968
31
72.959068
12
40.735416
22
182.401550
32
71.895515
13
59.484230
23
173.844910
33
104.646606
0
3DFACE
8
0
70
0
10
39.942699
20
164.210968
30
72.959068
11
-1.250554
21
163.674866
31
62.234371
12
-1.250555
22
181.395966
32
59.594482
13
40.735416
23
182.401550
33
71.895515
0
3DFACE
8
0
70
0
10
-1.250554
20
224.285461
30
171.516403
11
16.195942
21
230.627014
31
165.714981
12
18.149042
22
251.090698
32
156.380737
13
-1.250553
23
251.796570
33
162.501266
0
3DFACE
8
0
70
0
10
-1.250553
20
251.796570
30
162.501266
11
18.149042
21
251.090698
31
156.380737
12
18.537708
22
252.135681
32
151.082962
13
-1.250553
23
254.198425
33
158.226151
0
3DFACE
8
0
70
0
10
16.195942
20
230.627014
30
165.714981
11
31.604994
21
220.771606
31
156.585632
12
44.640373
22
245.999146
32
144.072266
13
18.149042
23
251.090698
33
156.380737
0
3DFACE
8
0
70
0
10
18.149042
20
251.090698
30
156.380737
11
44.640373
21
245.999146
31
144.072266
12
43.398022
22
247.522888
32
138.961182
13
18.537708
23
252.135681
33
151.082962
0
3DFACE
8
0
70
0
10
31.604994
20
220.771606
30
156.585632
11
56.690166
21
210.032959
31
140.082687
12
60.737228
22
230.966461
32
116.169357
13
44.640373
23
245.999146
33
144.072266
0
3DFACE
8
0
70
0
10
44.640373
20
245.999146
30
144.072266
11
60.737228
21
230.966461
31
116.169357
12
52.438553
22
234.579376
32
113.848030
13
43.398022
23
247.522888
33
138.961182
0
3DFACE
8
0
70
0
10
56.690166
20
210.032959
30
140.082687
11
61.263580
21
195.030853
31
105.328880
12
65.262917
22
222.964539
32
91.557495
13
60.737228
23
230.966461
33
116.169357
0
3DFACE
8
0
70
0
10
60.737228
20
230.966461
30
116.169357
11
65.262917
21
222.964539
31
91.557495
12
58.708492
22
225.974396
32
92.296280
13
52.438553
23
234.579376
33
113.848030
0
3DFACE
8
0
70
0
10
61.263580
20
195.030853
30
105.328880
11
43.753963
21
184.113342
31
81.407440
12
44.649288
22
210.072266
32
71.264572
13
65.262917
23
222.964539
33
91.557495
0
3DFACE
8
0
70
0
10
65.262917
20
222.964539
30
91.557495
11
44.649288
21
210.072266
31
71.264572
12
39.120567
22
215.204163
32
73.559593
13
58.708492
23
225.974396
33
92.296280
0
3DFACE
8
0
70
0
10
43.753963
20
184.113342
30
81.407440
11
-1.250556
21
177.551819
31
62.757854
12
-1.250555
22
201.444366
32
53.024498
13
44.649288
23
210.072266
33
71.264572
0
3DFACE
8
0
70
0
10
44.649288
20
210.072266
30
71.264572
11
-1.250555
21
201.444366
31
53.024498
12
-1.250554
22
206.320557
32
56.189384
13
39.120567
23
215.204163
33
73.559593
0
3DFACE
8
0
70
0
10
52.719330
20
135.320190
30
106.202515
11
36.519398
21
146.616913
31
57.895576
12
39.942699
22
164.210968
32
72.959068
13
59.047878
23
152.263977
33
103.806770
0
3DFACE
8
0
70
0
10
36.519398
20
146.616913
30
57.895576
11
-1.228616
21
158.276245
31
30.067825
12
-1.250554
22
163.674866
32
62.234371
13
39.942699
23
164.210968
33
72.959068
0
3DFACE
8
0
70
0
10
42.641266
20
104.197769
30
119.093987
11
29.881565
21
116.861694
31
92.968315
12
36.519398
22
146.616913
32
57.895576
13
52.719330
23
135.320190
33
106.202515
0
3DFACE
8
0
70
0
10
19.109480
20
75.097336
30
148.032349
11
16.690535
21
77.406219
31
132.278900
12
29.881565
22
116.861694
32
92.968315
13
42.641266
23
104.197769
33
119.093987
0
3DFACE
8
0
70
0
10
16.690535
20
77.406219
30
132.278900
11
-1.250553
21
76.218155
31
127.838730
12
-1.250553
22
100.345123
32
108.548805
13
29.881565
23
116.861694
33
92.968315
0
3DFACE
8
0
70
0
10
-1.250553
20
62.315063
30
149.982468
11
-1.250553
21
76.218155
31
127.838730
12
16.690535
22
77.406219
32
132.278900
13
16.690535
23
77.406219
33
132.278900
0
3DFACE
8
0
70
0
10
-1.250553
20
62.315063
30
149.982468
11
16.690535
21
77.406219
31
132.278900
12
19.109480
22
75.097336
32
148.032349
13
19.109480
23
75.097336
33
148.032349
0
3DFACE
8
0
70
0
10
-0.992172
20
150.441742
30
180.628235
11
-0.992172
21
168.180176
31
188.530975
12
-20.691374
22
168.656342
32
182.096802
13
-11.267046
23
151.493225
33
175.478516
0
3DFACE
8
0
70
0
10
-0.992172
20
168.180176
30
188.530975
11
-0.992172
21
180.356323
31
185.626053
12
-13.615047
22
177.298096
32
181.778030
13
-20.691374
23
168.656342
33
182.096802
0
3DFACE
8
0
70
0
10
-11.267046
20
151.493225
30
175.478516
11
-20.691374
21
168.656342
31
182.096802
12
-24.209009
22
167.967651
32
164.478333
13
-12.717014
23
149.502594
33
162.337692
0
3DFACE
8
0
70
0
10
-0.992172
20
150.441742
30
180.628235
11
-11.267046
21
151.493225
31
175.478516
12
-12.717014
22
149.502594
32
162.337692
13
-1.250554
23
146.126801
33
167.942490
0
3DFACE
8
0
70
0
10
-0.992172
20
180.356323
30
185.626053
11
-1.250555
21
183.201355
31
171.450287
12
-16.051233
22
179.818970
32
165.767899
13
-13.615047
23
177.298096
33
181.778030
0
3DFACE
8
0
70
0
10
-20.691374
20
168.656342
30
182.096802
11
-13.615047
21
177.298096
31
181.778030
12
-16.051233
22
179.818970
32
165.767899
13
-24.209009
23
167.967651
33
164.478333
0
3DFACE
8
0
70
0
10
-4.835609
20
192.929688
30
168.376602
11
-16.983484
21
201.423706
31
167.611755
12
-16.084126
22
182.218323
32
163.806244
13
-4.835609
23
183.773865
33
168.287766
0
3DFACE
8
0
70
0
10
-16.084126
20
182.218323
30
163.806244
11
-16.983484
21
201.423706
31
167.611755
12
-28.920616
22
194.098267
32
156.994827
13
-25.173613
23
183.666687
33
158.835693
0
3DFACE
8
0
70
0
10
-14.241541
20
129.604675
30
179.559189
11
-1.250554
21
129.332642
31
180.218628
12
-1.250554
22
147.911865
32
173.194901
13
-10.280588
23
149.598511
33
170.604660
0
3DFACE
8
0
70
0
10
-52.166565
20
150.993469
30
135.967606
11
-34.452160
21
129.360718
31
160.683731
12
-27.344149
22
152.710602
32
156.732162
13
-50.560822
23
161.884735
33
136.903107
0
3DFACE
8
0
70
0
10
-10.280588
20
149.598511
30
170.604660
11
-24.977959
21
149.871338
31
170.514862
12
-32.455162
22
132.667450
32
171.159912
13
-14.241541
23
129.604675
33
179.559189
0
3DFACE
8
0
70
0
10
-47.025730
20
196.278625
30
140.631042
11
-32.941353
21
200.205994
31
157.191147
12
-33.234062
22
220.771606
32
156.585632
13
-59.191269
23
210.032959
33
140.082687
0
3DFACE
8
0
70
0
10
-1.250554
20
224.285461
30
171.516403
11
-18.293325
21
231.392517
31
165.458054
12
-16.724636
22
208.196594
32
169.281357
13
-1.250555
23
199.949585
33
171.110870
0
3DFACE
8
0
70
0
10
-18.293325
20
231.392517
30
165.458054
11
-33.234062
21
220.771606
31
156.585632
12
-32.941353
22
200.205994
32
157.191147
13
-16.724636
23
208.196594
33
169.281357
0
3DFACE
8
0
70
0
10
-1.250553
20
103.099945
30
175.346054
11
-1.250554
21
117.854309
31
173.898651
12
-15.243168
22
121.362946
32
168.757919
13
-18.425463
23
112.050476
33
169.862991
0
3DFACE
8
0
70
0
10
-1.250553
20
62.315063
30
149.982468
11
-1.250553
21
103.099945
31
175.346054
12
-18.425463
22
112.050476
32
169.862991
13
-21.610588
23
75.097336
33
148.032349
0
3DFACE
8
0
70
0
10
-52.166565
20
150.993469
30
135.967606
11
-55.889790
21
139.471039
31
137.974686
12
-33.768986
22
127.073578
32
151.391251
13
-34.452160
23
129.360718
33
160.683731
0
3DFACE
8
0
70
0
10
-33.768986
20
127.073578
30
151.391251
11
-55.889790
21
139.471039
31
137.974686
12
-55.220440
22
135.320160
32
106.202515
13
-45.142368
23
104.197769
33
119.093987
0
3DFACE
8
0
70
0
10
-21.610588
20
75.097336
30
148.032349
11
-18.425463
21
112.050476
31
169.862991
12
-33.768986
22
127.073578
32
151.391251
13
-45.142368
23
104.197769
33
119.093987
0
3DFACE
8
0
70
0
10
-18.425463
20
112.050476
30
169.862991
11
-15.243168
21
121.362946
31
168.757919
12
-34.452160
22
129.360718
32
160.683731
13
-33.768986
23
127.073578
33
151.391251
0
3DFACE
8
0
70
0
10
-1.250554
20
129.332642
30
180.218628
11
-14.241541
21
129.604675
31
179.559189
12
-15.243168
22
121.362946
32
168.757919
13
-1.250554
23
117.854309
33
173.898651
0
3DFACE
8
0
70
0
10
-1.250554
20
147.911865
30
173.194901
11
-1.250554
21
146.126801
31
167.942490
12
-12.717014
22
149.502594
32
162.337692
13
-10.280588
23
149.598511
33
170.604660
0
3DFACE
8
0
70
0
10
-24.977959
20
149.871338
30
170.514862
11
-10.280588
21
149.598511
31
170.604660
12
-12.717014
22
149.502594
32
162.337692
13
-27.344149
23
152.710602
33
156.732162
0
POINT
8
0
70
0
10
-52.850117
20
133.264008
30
152.616730
0
3DFACE
8
0
70
0
10
-14.241541
20
129.604675
30
179.559189
11
-32.455162
21
132.667450
31
171.159912
12
-34.452160
22
129.360718
32
160.683731
13
-15.243168
23
121.362946
33
168.757919
0
3DFACE
8
0
70
0
10
-32.455162
20
132.667450
30
171.159912
11
-24.977959
21
149.871338
31
170.514862
12
-52.850117
22
133.264008
32
152.616730
13
-52.850117
23
133.264008
33
152.616730
0
3DFACE
8
0
70
0
10
-24.977959
20
149.871338
30
170.514862
11
-27.344149
21
152.710602
31
156.732162
12
-52.850117
22
133.264008
32
152.616730
13
-52.850117
23
133.264008
33
152.616730
0
3DFACE
8
0
70
0
10
-52.850117
20
133.264008
30
152.616730
11
-27.344149
21
152.710602
31
156.732162
12
-34.452160
22
129.360718
32
160.683731
13
-34.452160
23
129.360718
33
160.683731
0
3DFACE
8
0
70
0
10
-34.452160
20
129.360718
30
160.683731
11
-32.455162
21
132.667450
31
171.159912
12
-52.850117
22
133.264008
32
152.616730
13
-52.850117
23
133.264008
33
152.616730
0
3DFACE
8
0
70
0
10
-59.191269
20
210.032959
30
140.082687
11
-63.764683
21
195.030884
31
105.328880
12
-60.459145
22
194.453735
32
104.136078
13
-47.025730
23
196.278625
33
140.631042
0
3DFACE
8
0
70
0
10
-47.025730
20
196.278625
30
140.631042
11
-60.459145
21
194.453735
31
104.136078
12
-61.963554
22
187.192169
32
103.822891
13
-45.052979
23
184.317505
33
139.911621
0
3DFACE
8
0
70
0
10
-45.052979
20
184.317505
30
139.911621
11
-61.963554
21
187.192169
31
103.822891
12
-61.985336
22
173.844910
32
104.646606
13
-47.494747
23
171.301880
33
138.427002
0
3DFACE
8
0
70
0
10
-63.764683
20
195.030884
30
105.328880
11
-46.255070
21
184.113342
31
81.407433
12
-43.668941
22
193.113892
32
78.121964
13
-60.459145
23
194.453735
33
104.136078
0
3DFACE
8
0
70
0
10
-61.963554
20
187.192169
30
103.822891
11
-60.459145
21
194.453735
31
104.136078
12
-43.668941
22
193.113892
32
78.121964
13
-45.981304
23
193.886658
33
74.562950
0
3DFACE
8
0
70
0
10
-61.985336
20
173.844910
30
104.646606
11
-61.963554
21
187.192169
31
103.822891
12
-45.981304
22
193.886658
32
74.562950
13
-43.236526
23
182.401550
33
71.895515
0
3DFACE
8
0
70
0
10
-46.255070
20
184.113342
30
81.407433
11
-1.250556
21
177.551819
31
62.757854
12
-1.250555
22
193.492096
32
61.201996
13
-43.668941
23
193.113892
33
78.121964
0
3DFACE
8
0
70
0
10
-45.981304
20
193.886658
30
74.562950
11
-43.668941
21
193.113892
31
78.121964
12
-1.250555
22
193.492096
32
61.201996
13
-1.250555
23
195.348633
33
59.556160
0
3DFACE
8
0
70
0
10
-43.236526
20
182.401550
30
71.895515
11
-45.981304
21
193.886658
31
74.562950
12
-1.250555
22
195.348633
32
59.556160
13
-1.250555
23
181.395966
33
59.594482
0
3DFACE
8
0
70
0
10
-55.220440
20
135.320160
30
106.202515
11
-55.889790
21
139.471039
31
137.974686
12
-52.166565
22
150.993469
32
135.967606
13
-61.548981
23
152.263977
33
103.806770
0
3DFACE
8
0
70
0
10
-47.494747
20
171.301880
30
138.427002
11
-61.985336
21
173.844910
31
104.646606
12
-50.560822
22
161.884735
32
136.903107
13
-50.560822
23
161.884735
33
136.903107
0
3DFACE
8
0
70
0
10
-52.166565
20
150.993469
30
135.967606
11
-50.560822
21
161.884735
31
136.903107
12
-61.985336
22
173.844910
32
104.646606
13
-61.548981
23
152.263977
33
103.806770
0
3DFACE
8
0
70
0
10
-61.548981
20
152.263977
30
103.806770
11
-61.985336
21
173.844910
31
104.646606
12
-43.236526
22
182.401550
32
71.895515
13
-42.443810
23
164.210968
33
72.959068
0
3DFACE
8
0
70
0
10
-42.443810
20
164.210968
30
72.959068
11
-43.236526
21
182.401550
31
71.895515
12
-1.250555
22
181.395966
32
59.594482
13
-1.250554
23
163.674866
33
62.234371
0
3DFACE
8
0
70
0
10
-1.250554
20
224.285461
30
171.516403
11
-1.250553
21
251.796570
31
162.501266
12
-20.650152
22
251.090698
32
156.380737
13
-18.293325
23
231.392517
33
165.458054
0
3DFACE
8
0
70
0
10
-1.250553
20
251.796570
30
162.501266
11
-1.250553
21
254.198425
31
158.226151
12
-21.038815
22
252.135681
32
151.082962
13
-20.650152
23
251.090698
33
156.380737
0
3DFACE
8
0
70
0
10
-18.293325
20
231.392517
30
165.458054
11
-20.650152
21
251.090698
31
156.380737
12
-47.141472
22
245.999146
32
144.072266
13
-33.234062
23
220.771606
33
156.585632
0
3DFACE
8
0
70
0
10
-20.650152
20
251.090698
30
156.380737
11
-21.038815
21
252.135681
31
151.082962
12
-45.899120
22
247.522888
32
138.961182
13
-47.141472
23
245.999146
33
144.072266
0
3DFACE
8
0
70
0
10
-33.234062
20
220.771606
30
156.585632
11
-47.141472
21
245.999146
31
144.072266
12
-63.238331
22
230.966492
32
116.169357
13
-59.191269
23
210.032959
33
140.082687
0
3DFACE
8
0
70
0
10
-47.141472
20
245.999146
30
144.072266
11
-45.899120
21
247.522888
31
138.961182
12
-54.939651
22
234.579407
32
113.848030
13
-63.238331
23
230.966492
33
116.169357
0
3DFACE
8
0
70
0
10
-59.191269
20
210.032959
30
140.082687
11
-63.238331
21
230.966492
31
116.169357
12
-67.764023
22
222.964569
32
91.557495
13
-63.764683
23
195.030884
33
105.328880
0
3DFACE
8
0
70
0
10
-63.238331
20
230.966492
30
116.169357
11
-54.939651
21
234.579407
31
113.848030
12
-61.209591
22
225.974396
32
92.296280
13
-67.764023
23
222.964569
33
91.557495
0
3DFACE
8
0
70
0
10
-63.764683
20
195.030884
30
105.328880
11
-67.764023
21
222.964569
31
91.557495
12
-47.150398
22
210.072266
32
71.264572
13
-46.255070
23
184.113342
33
81.407433
0
3DFACE
8
0
70
0
10
-67.764023
20
222.964569
30
91.557495
11
-61.209591
21
225.974396
31
92.296280
12
-41.621681
22
215.204163
32
73.559593
13
-47.150398
23
210.072266
33
71.264572
0
3DFACE
8
0
70
0
10
-46.255070
20
184.113342
30
81.407433
11
-47.150398
21
210.072266
31
71.264572
12
-1.250555
22
201.444366
32
53.024498
13
-1.250556
23
177.551819
33
62.757854
0
3DFACE
8
0
70
0
10
-47.150398
20
210.072266
30
71.264572
11
-41.621681
21
215.204163
31
73.559593
12
-1.250554
22
206.320557
32
56.189384
13
-1.250555
23
201.444366
33
53.024498
0
3DFACE
8
0
70
0
10
-55.220440
20
135.320160
30
106.202515
11
-61.548981
21
152.263977
31
103.806770
12
-42.443810
22
164.210968
32
72.959068
13
-38.964668
23
146.616913
33
57.895573
0
3DFACE
8
0
70
0
10
-38.964668
20
146.616913
30
57.895573
11
-42.443810
21
164.210968
31
72.959068
12
-1.250554
22
163.674866
32
62.234371
13
-1.228616
23
158.276245
33
30.067825
0
3DFACE
8
0
70
0
10
-45.142368
20
104.197769
30
119.093987
11
-55.220440
21
135.320160
31
106.202515
12
-38.964668
22
146.616913
32
57.895573
13
-32.305893
23
116.861694
33
92.968315
0
3DFACE
8
0
70
0
10
-21.610588
20
75.097336
30
148.032349
11
-45.142368
21
104.197769
31
119.093987
12
-32.305893
22
116.861694
32
92.968315
13
-19.191643
23
77.406219
33
132.278900
0
3DFACE
8
0
70
0
10
-19.191643
20
77.406219
30
132.278900
11
-32.305893
21
116.861694
31
92.968315
12
-1.250553
22
100.345123
32
108.548805
13
-1.250553
23
76.218155
33
127.838730
0
3DFACE
8
0
70
0
10
-1.250553
20
62.315063
30
149.982468
11
-19.191643
21
77.406219
31
132.278900
12
-1.250553
22
76.218155
32
127.838730
13
-1.250553
23
76.218155
33
127.838730
0
3DFACE
8
0
70
0
10
-1.250553
20
62.315063
30
149.982468
11
-21.610588
21
75.097336
31
148.032349
12
-19.191643
22
77.406219
32
132.278900
13
-19.191643
23
77.406219
33
132.278900
0
3DFACE
8
0
70
0
10
-4.835609
20
183.773865
30
168.287766
11
-1.250555
21
183.201355
31
171.450287
12
-1.250555
22
199.949585
32
171.110870
13
-4.835609
23
192.929688
33
168.376602
0
3DFACE
8
0
70
0
10
-16.084126
20
182.218323
30
163.806244
11
-16.051233
21
179.818970
31
165.767899
12
-1.250555
22
183.201355
32
171.450287
13
-4.835609
23
183.773865
33
168.287766
0
3DFACE
8
0
70
0
10
-16.983484
20
201.423706
30
167.611755
11
-4.835609
21
192.929688
31
168.376602
12
-1.250555
22
199.949585
32
171.110870
13
-16.724636
23
208.196594
33
169.281357
0
3DFACE
8
0
70
0
10
-16.084126
20
182.218323
30
163.806244
11
-25.173613
21
183.666687
31
158.835693
12
-28.011084
22
181.733551
32
159.644348
13
-16.051233
23
179.818970
33
165.767899
0
3DFACE
8
0
70
0
10
-25.173613
20
183.666687
30
158.835693
11
-28.920616
21
194.098267
31
156.994827
12
-32.941353
22
200.205994
32
157.191147
13
-28.011084
23
181.733551
33
159.644348
0
3DFACE
8
0
70
0
10
-16.983484
20
201.423706
30
167.611755
11
-16.724636
21
208.196594
31
169.281357
12
-32.941353
22
200.205994
32
157.191147
13
-28.920616
23
194.098267
33
156.994827
0
3DFACE
8
0
70
0
10
15.134119
20
200.752625
30
167.340942
11
14.627247
21
207.400879
31
169.266953
12
-1.250555
22
199.949585
32
171.110870
13
2.787638
23
193.029968
33
168.568115
0
3DFACE
8
0
70
0
10
13.817105
20
181.673279
30
163.116943
11
2.787638
21
183.468628
31
168.636841
12
-1.250555
22
183.201355
32
171.450287
13
13.550124
23
179.818970
33
165.767899
0
3DFACE
8
0
70
0
10
2.787638
20
183.468628
30
168.636841
11
2.787638
21
193.029968
31
168.568115
12
-1.250555
22
199.949585
32
171.110870
13
-1.250555
23
183.201355
33
171.450287
0
3DFACE
8
0
70
0
10
15.134119
20
200.752625
30
167.340942
11
27.053463
21
194.472107
31
154.516525
12
31.312279
22
200.205994
32
157.191147
13
14.627247
23
207.400879
33
169.266953
0
3DFACE
8
0
70
0
10
23.379431
20
183.304504
30
156.964371
11
26.382015
21
181.733551
31
159.644348
12
31.312279
22
200.205994
32
157.191147
13
27.053463
23
194.472107
33
154.516525
0
3DFACE
8
0
70
0
10
13.817105
20
181.673279
30
163.116943
11
13.550124
21
179.818970
31
165.767899
12
26.382015
22
181.733551
32
159.644348
13
23.379431
23
183.304504
33
156.964371
0
3DFACE
8
0
70
0
10
-1.228616
20
158.276245
30
30.067825
11
36.519398
21
146.616913
31
57.895576
12
63.277851
22
145.942200
32
9.961871
13
-1.204486
23
159.514893
33
14.784546
0
3DFACE
8
0
70
0
10
-1.204486
20
159.514893
30
14.784546
11
-64.316963
21
144.692810
31
10.227881
12
-38.964668
22
146.616913
32
57.895573
13
-1.228616
23
158.276245
33
30.067825
0
3DFACE
8
0
70
0
10
-64.316963
20
144.692810
30
10.227881
11
-55.965126
21
111.243011
31
68.033936
12
-38.964668
22
146.616913
32
57.895573
13
-38.964668
23
146.616913
33
57.895573
0
3DFACE
8
0
70
0
10
-55.965126
20
111.243011
30
68.033936
11
-32.305893
21
116.861694
31
92.968315
12
-38.964668
22
146.616913
32
57.895573
13
-38.964668
23
146.616913
33
57.895573
0
3DFACE
8
0
70
0
10
53.584675
20
111.243011
30
68.033928
11
36.519398
21
146.616913
31
57.895576
12
29.881565
22
116.861694
32
92.968315
13
29.881565
23
116.861694
33
92.968315
0
3DFACE
8
0
70
0
10
63.277851
20
145.942200
30
9.961871
11
36.519398
21
146.616913
31
57.895576
12
53.584675
22
111.243011
32
68.033928
13
53.584675
23
111.243011
33
68.033928
0
3DFACE
8
0
70
0
10
-1.173774
20
106.944061
30
77.821152
11
-32.305893
21
116.861694
31
92.968315
12
-55.965126
22
111.243011
32
68.033936
13
-55.965126
23
111.243011
33
68.033936
0
3DFACE
8
0
70
0
10
-1.250553
20
100.345123
30
108.548805
11
-32.305893
21
116.861694
31
92.968315
12
-1.173774
22
106.944061
32
77.821152
13
-1.173774
23
106.944061
33
77.821152
0
3DFACE
8
0
70
0
10
-1.250553
20
100.345123
30
108.548805
11
-1.173774
21
106.944061
31
77.821152
12
29.881565
22
116.861694
32
92.968315
13
29.881565
23
116.861694
33
92.968315
0
3DFACE
8
0
70
0
10
-1.173774
20
106.944061
30
77.821152
11
53.584675
21
111.243011
31
68.033928
12
29.881565
22
116.861694
32
92.968315
13
29.881565
23
116.861694
33
92.968315
0
3DFACE
8
0
70
0
10
-1.250554
20
206.320557
30
56.189384
11
-1.278553
21
264.460663
31
70.678703
12
14.691634
22
269.115204
32
74.953102
13
39.120567
23
215.204163
33
73.559593
0
3DFACE
8
0
70
0
10
39.120567
20
215.204163
30
73.559593
11
14.691634
21
269.115204
31
74.953102
12
25.409304
22
276.024200
32
81.297813
13
58.708492
23
225.974396
33
92.296280
0
3DFACE
8
0
70
0
10
58.708492
20
225.974396
30
92.296280
11
25.409304
21
276.024200
31
81.297813
12
22.956942
22
283.092072
32
87.788429
13
52.438553
23
234.579376
33
113.848030
0
3DFACE
8
0
70
0
10
52.438553
20
234.579376
30
113.848030
11
22.956942
21
283.092072
31
87.788429
12
20.278316
22
291.854156
32
95.834885
13
43.398022
23
247.522888
33
138.961182
0
3DFACE
8
0
70
0
10
-1.250553
20
254.198425
30
158.226151
11
18.537708
21
252.135681
31
151.082962
12
8.347959
22
296.108246
32
99.741562
13
-1.278548
23
298.590942
33
102.021492
0
3DFACE
8
0
70
0
10
-1.250554
20
206.320557
30
56.189384
11
-41.621681
21
215.204163
31
73.559593
12
-17.248739
22
269.115204
32
74.953094
13
-1.278553
23
264.460663
33
70.678703
0
3DFACE
8
0
70
0
10
-41.621681
20
215.204163
30
73.559593
11
-61.209591
21
225.974396
31
92.296280
12
-27.966400
22
276.024200
32
81.297813
13
-17.248739
23
269.115204
33
74.953094
0
3DFACE
8
0
70
0
10
-61.209591
20
225.974396
30
92.296280
11
-54.939651
21
234.579407
31
113.848030
12
-25.514042
22
283.092072
32
87.788422
13
-27.966400
23
276.024200
33
81.297813
0
3DFACE
8
0
70
0
10
-54.939651
20
234.579407
30
113.848030
11
-45.899120
21
247.522888
31
138.961182
12
-22.835415
22
291.854156
32
95.834877
13
-25.514042
23
283.092072
33
87.788422
0
3DFACE
8
0
70
0
10
-1.250553
20
254.198425
30
158.226151
11
-1.278548
21
298.590942
31
102.021492
12
-10.905055
22
296.108246
32
99.741562
13
-21.038815
23
252.135681
33
151.082962
0
3DFACE
8
0
70
0
10
43.398022
20
247.522888
30
138.961182
11
20.278316
21
291.854156
31
95.834885
12
8.347959
22
296.108246
32
99.741562
13
18.537708
23
252.135681
33
151.082962
0
3DFACE
8
0
70
0
10
-45.899120
20
247.522888
30
138.961182
11
-21.038815
21
252.135681
31
151.082962
12
-10.905055
22
296.108246
32
99.741562
13
-22.835415
23
291.854156
33
95.834877
0
3DFACE
8
0
70
0
10
-1.320389
20
305.086243
30
31.427982
11
12.288535
21
299.379089
31
23.736252
12
-1.320386
22
299.669067
32
16.277588
13
-1.320386
23
299.669067
33
16.277588
0
3DFACE
8
0
70
0
10
12.288532
20
298.799194
30
38.653450
11
12.288535
21
299.379089
31
23.736252
12
-1.320389
22
305.086243
32
31.427982
13
-1.320389
23
305.086243
33
31.427982
0
3DFACE
8
0
70
0
10
-1.320393
20
298.509247
30
46.112045
11
12.288532
21
298.799194
31
38.653450
12
-1.320389
22
305.086243
32
31.427982
13
-1.320389
23
305.086243
33
31.427982
0
3DFACE
8
0
70
0
10
-1.320393
20
298.509247
30
46.112045
11
-1.320389
21
305.086243
31
31.427982
12
-14.929281
22
298.799194
32
38.653446
13
-14.929281
23
298.799194
33
38.653446
0
3DFACE
8
0
70
0
10
-14.929281
20
298.799194
30
38.653446
11
-1.320389
21
305.086243
31
31.427982
12
-14.929278
22
299.379120
32
23.736246
13
-14.929278
23
299.379120
33
23.736246
0
3DFACE
8
0
70
0
10
-1.320389
20
305.086243
30
31.427982
11
-1.320386
21
299.669067
31
16.277588
12
-14.929278
22
299.379120
32
23.736246
13
-14.929278
23
299.379120
33
23.736246
0
3DFACE
8
0
70
0
10
12.288535
20
299.379089
30
23.736252
11
17.925507
21
285.020935
31
20.083893
12
-1.320385
22
285.431000
32
9.535825
13
-1.320386
23
299.669067
33
16.277588
0
3DFACE
8
0
70
0
10
17.925503
20
284.200836
30
41.180077
11
17.925507
21
285.020935
31
20.083893
12
12.288535
22
299.379089
32
23.736252
13
12.288532
23
298.799194
33
38.653450
0
3DFACE
8
0
70
0
10
-1.320395
20
283.790802
30
51.728104
11
17.925503
21
284.200836
31
41.180077
12
12.288532
22
298.799194
32
38.653450
13
-1.320393
23
298.509247
33
46.112045
0
3DFACE
8
0
70
0
10
-1.320395
20
283.790802
30
51.728104
11
-1.320393
21
298.509247
31
46.112045
12
-14.929281
22
298.799194
32
38.653446
13
-20.566290
23
284.200867
33
41.180069
0
3DFACE
8
0
70
0
10
-20.566290
20
284.200867
30
41.180069
11
-14.929281
21
298.799194
31
38.653446
12
-14.929278
22
299.379120
32
23.736246
13
-20.566286
23
285.020966
33
20.083883
0
3DFACE
8
0
70
0
10
-14.929278
20
299.379120
30
23.736246
11
-1.320386
21
299.669067
31
16.277588
12
-1.320385
22
285.431000
32
9.535825
13
-20.566286
23
285.020966
33
20.083883
0
3DFACE
8
0
70
0
10
12.288533
20
270.422577
30
22.610579
11
-1.320386
21
270.712555
31
15.151914
12
-1.320385
22
285.431000
32
9.535825
13
17.925507
23
285.020935
33
20.083893
0
3DFACE
8
0
70
0
10
17.925503
20
284.200836
30
41.180077
11
12.288530
21
269.842682
31
37.527775
12
12.288533
22
270.422577
32
22.610579
13
17.925507
23
285.020935
33
20.083893
0
3DFACE
8
0
70
0
10
-1.320395
20
283.790802
30
51.728104
11
-1.320393
21
269.552734
31
44.986374
12
12.288530
22
269.842682
32
37.527775
13
17.925503
23
284.200836
33
41.180077
0
3DFACE
8
0
70
0
10
-1.320395
20
283.790802
30
51.728104
11
-20.566290
21
284.200867
31
41.180069
12
-14.929281
22
269.842682
32
37.527771
13
-1.320393
23
269.552734
33
44.986374
0
3DFACE
8
0
70
0
10
-20.566290
20
284.200867
30
41.180069
11
-20.566286
21
285.020966
31
20.083883
12
-14.929278
22
270.422607
32
22.610571
13
-14.929281
23
269.842682
33
37.527771
0
3DFACE
8
0
70
0
10
-14.929278
20
270.422607
30
22.610571
11
-20.566286
21
285.020966
31
20.083883
12
-1.320385
22
285.431000
32
9.535825
13
-1.320386
23
270.712555
33
15.151914
0
3DFACE
8
0
70
0
10
-1.320398
20
264.135529
30
29.836039
11
-1.320386
21
270.712555
31
15.151914
12
12.288533
22
270.422577
32
22.610579
13
12.288533
23
270.422577
33
22.610579
0
3DFACE
8
0
70
0
10
12.288530
20
269.842682
30
37.527775
11
-1.320398
21
264.135529
31
29.836039
12
12.288533
22
270.422577
32
22.610579
13
12.288533
23
270.422577
33
22.610579
0
3DFACE
8
0
70
0
10
-1.320393
20
269.552734
30
44.986374
11
-1.320398
21
264.135529
31
29.836039
12
12.288530
22
269.842682
32
37.527775
13
12.288530
23
269.842682
33
37.527775
0
3DFACE
8
0
70
0
10
-1.320393
20
269.552734
30
44.986374
11
-14.929281
21
269.842682
31
37.527771
12
-1.320398
22
264.135529
32
29.836039
13
-1.320398
23
264.135529
33
29.836039
0
3DFACE
8
0
70
0
10
-14.929281
20
269.842682
30
37.527771
11
-14.929278
21
270.422607
31
22.610571
12
-1.320398
22
264.135529
32
29.836039
13
-1.320398
23
264.135529
33
29.836039
0
3DFACE
8
0
70
0
10
-1.320398
20
264.135529
30
29.836039
11
-14.929278
21
270.422607
31
22.610571
12
-1.320386
22
270.712555
32
15.151914
13
-1.320386
23
270.712555
33
15.151914
0
3DFACE
8
0
70
0
10
24.843042
20
152.710602
30
156.732162
11
48.059715
21
161.884735
31
136.903107
12
36.339661
22
168.124176
32
161.444061
13
36.339661
23
168.124176
33
161.444061
0
3DFACE
8
0
70
0
10
48.059715
20
161.884735
30
136.903107
11
44.993641
21
171.301880
31
138.427002
12
36.339661
22
168.124176
32
161.444061
13
36.339661
23
168.124176
33
161.444061
0
3DFACE
8
0
70
0
10
10.215907
20
149.502594
30
162.337692
11
24.843042
21
152.710602
31
156.732162
12
21.707903
22
167.967651
32
164.478333
13
21.707903
23
167.967651
33
164.478333
0
3DFACE
8
0
70
0
10
24.843042
20
152.710602
30
156.732162
11
36.339661
21
168.124176
31
161.444061
12
21.707903
22
167.967651
32
164.478333
13
21.707903
23
167.967651
33
164.478333
0
3DFACE
8
0
70
0
10
36.339661
20
168.124176
30
161.444061
11
44.993641
21
171.301880
31
138.427002
12
26.382015
22
181.733551
32
159.644348
13
26.382015
23
181.733551
33
159.644348
0
3DFACE
8
0
70
0
10
44.993641
20
171.301880
30
138.427002
11
42.551865
21
184.317505
31
139.911621
12
26.382015
22
181.733551
32
159.644348
13
26.382015
23
181.733551
33
159.644348
0
3DFACE
8
0
70
0
10
21.707903
20
167.967651
30
164.478333
11
26.382015
21
181.733551
31
159.644348
12
13.550124
22
179.818970
32
165.767899
13
13.550124
23
179.818970
33
165.767899
0
3DFACE
8
0
70
0
10
36.339661
20
168.124176
30
161.444061
11
26.382015
21
181.733551
31
159.644348
12
21.707903
22
167.967651
32
164.478333
13
21.707903
23
167.967651
33
164.478333
0
3DFACE
8
0
70
0
10
26.382015
20
181.733551
30
159.644348
11
42.551865
21
184.317505
31
139.911621
12
31.312279
22
200.205994
32
157.191147
13
31.312279
23
200.205994
33
157.191147
0
3DFACE
8
0
70
0
10
42.551865
20
184.317505
30
139.911621
11
44.524620
21
196.278625
31
140.631042
12
31.312279
22
200.205994
32
157.191147
13
31.312279
23
200.205994
33
157.191147
0
3DFACE
8
0
70
0
10
-50.560822
20
161.884735
30
136.903107
11
-38.840771
21
168.124176
31
161.444061
12
-47.494747
22
171.301880
32
138.427002
13
-47.494747
23
171.301880
33
138.427002
0
3DFACE
8
0
70
0
10
-27.344149
20
152.710602
30
156.732162
11
-38.840771
21
168.124176
31
161.444061
12
-50.560822
22
161.884735
32
136.903107
13
-50.560822
23
161.884735
33
136.903107
0
3DFACE
8
0
70
0
10
-27.344149
20
152.710602
30
156.732162
11
-24.209009
21
167.967651
31
164.478333
12
-38.840771
22
168.124176
32
161.444061
13
-38.840771
23
168.124176
33
161.444061
0
3DFACE
8
0
70
0
10
-12.717014
20
149.502594
30
162.337692
11
-24.209009
21
167.967651
31
164.478333
12
-27.344149
22
152.710602
32
156.732162
13
-27.344149
23
152.710602
33
156.732162
0
3DFACE
8
0
70
0
10
-47.494747
20
171.301880
30
138.427002
11
-28.011084
21
181.733551
31
159.644348
12
-45.052979
22
184.317505
32
139.911621
13
-45.052979
23
184.317505
33
139.911621
0
3DFACE
8
0
70
0
10
-38.840771
20
168.124176
30
161.444061
11
-28.011084
21
181.733551
31
159.644348
12
-47.494747
22
171.301880
32
138.427002
13
-47.494747
23
171.301880
33
138.427002
0
3DFACE
8
0
70
0
10
-24.209009
20
167.967651
30
164.478333
11
-16.051233
21
179.818970
31
165.767899
12
-28.011084
22
181.733551
32
159.644348
13
-28.011084
23
181.733551
33
159.644348
0
3DFACE
8
0
70
0
10
-38.840771
20
168.124176
30
161.444061
11
-24.209009
21
167.967651
31
164.478333
12
-28.011084
22
181.733551
32
159.644348
13
-28.011084
23
181.733551
33
159.644348
0
3DFACE
8
0
70
0
10
-45.052979
20
184.317505
30
139.911621
11
-32.941353
21
200.205994
31
157.191147
12
-47.025730
22
196.278625
32
140.631042
13
-47.025730
23
196.278625
33
140.631042
0
3DFACE
8
0
70
0
10
-28.011084
20
181.733551
30
159.644348
11
-32.941353
21
200.205994
31
157.191147
12
-45.052979
22
184.317505
32
139.911621
13
-45.052979
23
184.317505
33
139.911621
0
3DFACE
8
0
70
0
10
34.590363
20
-70.819962
30
40.349049
11
30.115110
21
-51.856369
31
21.695215
12
21.921371
22
-62.505730
32
-4.248429
13
21.921371
23
-62.505730
33
-4.248429
0
3DFACE
8
0
70
0
10
34.590363
20
-70.819962
30
40.349049
11
21.921371
21
-62.505730
31
-4.248429
12
26.325430
22
-77.312096
32
16.163837
13
26.325430
23
-77.312096
33
16.163837
0
3DFACE
8
0
70
0
10
34.590363
20
-70.819962
30
40.349049
11
71.910492
21
-53.662216
31
11.300113
12
30.115110
22
-51.856369
32
21.695215
13
30.115110
23
-51.856369
33
21.695215
0
3DFACE
8
0
70
0
10
34.590363
20
-70.819962
30
40.349049
11
70.403656
21
-72.242912
31
30.841213
12
71.910492
22
-53.662216
32
11.300113
13
71.910492
23
-53.662216
33
11.300113
0
3DFACE
8
0
70
0
10
70.403656
20
-72.242912
30
30.841213
11
82.290215
21
-59.803818
31
-5.759043
12
71.910492
22
-53.662216
32
11.300113
13
71.910492
23
-53.662216
33
11.300113
0
3DFACE
8
0
70
0
10
70.403656
20
-72.242912
30
30.841213
11
79.244423
21
-76.085968
31
14.989111
12
82.290215
22
-59.803818
32
-5.759043
13
82.290215
23
-59.803818
33
-5.759043
0
3DFACE
8
0
70
0
10
33.853565
20
-83.709854
30
-9.422189
11
21.921371
21
-62.505730
31
-4.248429
12
29.485491
22
-72.892975
32
-31.713314
13
29.485491
23
-72.892975
33
-31.713314
0
3DFACE
8
0
70
0
10
26.325430
20
-77.312096
30
16.163837
11
21.921371
21
-62.505730
31
-4.248429
12
33.853565
22
-83.709854
32
-9.422189
13
33.853565
23
-83.709854
33
-9.422189
0
3DFACE
8
0
70
0
10
69.924736
20
-80.621346
30
-1.510093
11
71.501236
21
-67.336021
31
-23.415434
12
82.290215
22
-59.803818
32
-5.759043
13
82.290215
23
-59.803818
33
-5.759043
0
3DFACE
8
0
70
0
10
79.244423
20
-76.085968
30
14.989111
11
69.924736
21
-80.621346
31
-1.510093
12
82.290215
22
-59.803818
32
-5.759043
13
82.290215
23
-59.803818
33
-5.759043
0
3DFACE
8
0
70
0
10
33.853565
20
-83.709854
30
-9.422189
11
29.485491
21
-72.892975
31
-31.713314
12
71.501236
22
-67.336021
32
-23.415434
13
71.501236
23
-67.336021
33
-23.415434
0
3DFACE
8
0
70
0
10
69.924736
20
-80.621346
30
-1.510093
11
33.853565
21
-83.709854
31
-9.422189
12
71.501236
22
-67.336021
32
-23.415434
13
71.501236
23
-67.336021
33
-23.415434
0
3DFACE
8
0
70
0
10
-36.910118
20
-70.745552
30
40.257473
11
-28.648571
21
-77.230186
31
16.069702
12
-24.252882
22
-62.337753
32
-4.349779
13
-24.252882
23
-62.337753
33
-4.349779
0
3DFACE
8
0
70
0
10
-36.910118
20
-70.745552
30
40.257473
11
-24.252882
21
-62.337753
31
-4.349779
12
-32.444355
22
-51.697906
32
21.597328
13
-32.444355
23
-51.697906
33
21.597328
0
3DFACE
8
0
70
0
10
-36.910118
20
-70.745552
30
40.257473
11
-32.444355
21
-51.697906
31
21.597328
12
-74.241547
22
-53.518158
32
11.210945
13
-74.241547
23
-53.518158
33
11.210945
0
3DFACE
8
0
70
0
10
-36.910118
20
-70.745552
30
40.257473
11
-74.241547
21
-53.518158
31
11.210945
12
-72.725159
22
-72.180870
32
30.757154
13
-72.725159
23
-72.180870
33
30.757154
0
3DFACE
8
0
70
0
10
-72.725159
20
-72.180870
30
30.757154
11
-74.241547
21
-53.518158
31
11.210945
12
-84.623085
22
-59.659874
32
-5.846952
13
-84.623085
23
-59.659874
33
-5.846952
0
3DFACE
8
0
70
0
10
-72.725159
20
-72.180870
30
30.757154
11
-84.623085
21
-59.659874
31
-5.846952
12
-81.568291
22
-76.024597
32
14.906487
13
-81.568291
23
-76.024597
33
14.906487
0
3DFACE
8
0
70
0
10
-36.180454
20
-83.626389
30
-9.515481
11
-31.819729
21
-72.721481
31
-31.814686
12
-24.252882
22
-62.337753
32
-4.349779
13
-24.252882
23
-62.337753
33
-4.349779
0
3DFACE
8
0
70
0
10
-28.648571
20
-77.230186
30
16.069702
11
-36.180454
21
-83.626389
31
-9.515481
12
-24.252882
22
-62.337753
32
-4.349779
13
-24.252882
23
-62.337753
33
-4.349779
0
3DFACE
8
0
70
0
10
-81.568291
20
-76.024597
30
14.906487
11
-84.623085
21
-59.659874
31
-5.846952
12
-72.250877
22
-80.553413
32
-1.595266
13
-72.250877
23
-80.553413
33
-1.595266
0
3DFACE
8
0
70
0
10
-72.250877
20
-80.553413
30
-1.595266
11
-84.623085
21
-59.659874
31
-5.846952
12
-73.835541
22
-67.183487
32
-23.506866
13
-73.835541
23
-67.183487
33
-23.506866
0
3DFACE
8
0
70
0
10
-72.250877
20
-80.553413
30
-1.595266
11
-73.835541
21
-67.183487
31
-23.506866
12
-36.180454
22
-83.626389
32
-9.515481
13
-36.180454
23
-83.626389
33
-9.515481
0
3DFACE
8
0
70
0
10
-36.180454
20
-83.626389
30
-9.515481
11
-73.835541
21
-67.183487
31
-23.506866
12
-31.819729
22
-72.721481
32
-31.814686
13
-31.819729
23
-72.721481
33
-31.814686
0
3DFACE
8
0
70
0
10
34.721851
20
-96.646309
30
23.258396
11
34.590363
21
-70.819962
31
40.349049
12
26.325430
22
-77.312096
32
16.163837
13
26.325430
23
-77.312096
33
16.163837
0
3DFACE
8
0
70
0
10
27.363747
20
-124.776695
30
-4.395236
11
34.721851
21
-96.646309
31
23.258396
12
26.325430
22
-77.312096
32
16.163837
13
26.325430
23
-77.312096
33
16.163837
0
3DFACE
8
0
70
0
10
68.960938
20
-102.856995
30
12.764732
11
70.403656
21
-72.242912
31
30.841213
12
34.721851
22
-96.646309
32
23.258396
13
34.721851
23
-96.646309
33
23.258396
0
3DFACE
8
0
70
0
10
34.721851
20
-96.646309
30
23.258396
11
70.403656
21
-72.242912
31
30.841213
12
34.590363
22
-70.819962
32
40.349049
13
34.590363
23
-70.819962
33
40.349049
0
3DFACE
8
0
70
0
10
77.246529
20
-124.713120
30
-5.162017
11
79.244423
21
-76.085968
31
14.989111
12
68.960938
22
-102.856995
32
12.764732
13
68.960938
23
-102.856995
33
12.764732
0
3DFACE
8
0
70
0
10
68.960938
20
-102.856995
30
12.764732
11
79.244423
21
-76.085968
31
14.989111
12
70.403656
22
-72.242912
32
30.841213
13
70.403656
23
-72.242912
33
30.841213
0
3DFACE
8
0
70
0
10
27.363747
20
-124.776695
30
-4.395236
11
26.325430
21
-77.312096
31
16.163837
12
33.853565
22
-83.709854
32
-9.422189
13
33.853565
23
-83.709854
33
-9.422189
0
3DFACE
8
0
70
0
10
10.429370
20
-154.640411
30
-33.658207
11
27.363747
21
-124.776695
31
-4.395236
12
33.853565
22
-83.709854
32
-9.422189
13
33.853565
23
-83.709854
33
-9.422189
0
3DFACE
8
0
70
0
10
84.011185
20
-153.311859
30
-32.885086
11
69.924736
21
-80.621346
31
-1.510093
12
77.246529
22
-124.713120
32
-5.162017
13
77.246529
23
-124.713120
33
-5.162017
0
3DFACE
8
0
70
0
10
77.246529
20
-124.713120
30
-5.162017
11
69.924736
21
-80.621346
31
-1.510093
12
79.244423
22
-76.085968
32
14.989111
13
79.244423
23
-76.085968
33
14.989111
0
3DFACE
8
0
70
0
10
10.429370
20
-154.640411
30
-33.658207
11
33.853565
21
-83.709854
31
-9.422189
12
84.011185
22
-153.311859
32
-32.885086
13
84.011185
23
-153.311859
33
-32.885086
0
3DFACE
8
0
70
0
10
84.011185
20
-153.311859
30
-32.885086
11
33.853565
21
-83.709854
31
-9.422189
12
69.924736
22
-80.621346
32
-1.510093
13
69.924736
23
-80.621346
33
-1.510093
0
3DFACE
8
0
70
0
10
-29.714792
20
-124.781654
30
-4.466537
11
-28.648571
21
-77.230186
31
16.069702
12
-37.075729
22
-96.698372
32
23.227720
13
-37.075729
23
-96.698372
33
23.227720
0
3DFACE
8
0
70
0
10
-37.075729
20
-96.698372
30
23.227720
11
-28.648571
21
-77.230186
31
16.069702
12
-36.910118
22
-70.745552
32
40.257473
13
-36.910118
23
-70.745552
33
40.257473
0
3DFACE
8
0
70
0
10
-37.075729
20
-96.698372
30
23.227720
11
-36.910118
21
-70.745552
31
40.257473
12
-72.725159
22
-72.180870
32
30.757154
13
-72.725159
23
-72.180870
33
30.757154
0
3DFACE
8
0
70
0
10
-71.315025
20
-102.903229
30
12.731691
11
-37.075729
21
-96.698372
31
23.227720
12
-72.725159
22
-72.180870
32
30.757154
13
-72.725159
23
-72.180870
33
30.757154
0
3DFACE
8
0
70
0
10
-71.315025
20
-102.903229
30
12.731691
11
-72.725159
21
-72.180870
31
30.757154
12
-81.568291
22
-76.024597
32
14.906487
13
-81.568291
23
-76.024597
33
14.906487
0
3DFACE
8
0
70
0
10
-79.597786
20
-124.733047
30
-5.224913
11
-71.315025
21
-102.903229
31
12.731691
12
-81.568291
22
-76.024597
32
14.906487
13
-81.568291
23
-76.024597
33
14.906487
0
3DFACE
8
0
70
0
10
-12.777384
20
-154.592560
30
-33.774147
11
-36.180454
21
-83.626389
31
-9.515481
12
-29.714792
22
-124.781654
32
-4.466537
13
-29.714792
23
-124.781654
33
-4.466537
0
3DFACE
8
0
70
0
10
-29.714792
20
-124.781654
30
-4.466537
11
-36.180454
21
-83.626389
31
-9.515481
12
-28.648571
22
-77.230186
32
16.069702
13
-28.648571
23
-77.230186
33
16.069702
0
3DFACE
8
0
70
0
10
-79.597786
20
-124.733047
30
-5.224913
11
-81.568291
21
-76.024597
31
14.906487
12
-72.250877
22
-80.553413
32
-1.595266
13
-72.250877
23
-80.553413
33
-1.595266
0
3DFACE
8
0
70
0
10
-86.359505
20
-153.289154
30
-32.987015
11
-79.597786
21
-124.733047
31
-5.224913
12
-72.250877
22
-80.553413
32
-1.595266
13
-72.250877
23
-80.553413
33
-1.595266
0
3DFACE
8
0
70
0
10
-86.359505
20
-153.289154
30
-32.987015
11
-72.250877
21
-80.553413
31
-1.595266
12
-36.180454
22
-83.626389
32
-9.515481
13
-36.180454
23
-83.626389
33
-9.515481
0
3DFACE
8
0
70
0
10
-12.777384
20
-154.592560
30
-33.774147
11
-86.359505
21
-153.289154
31
-32.987015
12
-36.180454
22
-83.626389
32
-9.515481
13
-36.180454
23
-83.626389
33
-9.515481
0
3DFACE
8
0
70
0
10
99.973991
20
7.037354
30
75.729759
11
-1.173773
21
21.873520
31
119.076027
12
-1.173772
22
5.647049
32
105.889648
13
-1.173772
23
5.647049
33
105.889648
0
3DFACE
8
0
70
0
10
99.973991
20
7.037354
30
75.729759
11
100.884438
21
38.494904
31
90.702202
12
-1.173773
22
21.873520
32
119.076027
13
-1.173773
23
21.873520
33
119.076027
0
3DFACE
8
0
70
0
10
99.973991
20
14.441208
30
-78.894073
11
-1.188086
21
16.154266
31
-109.035614
12
-1.173771
22
47.862473
32
-97.895477
13
-1.173771
23
47.862473
33
-97.895477
0
3DFACE
8
0
70
0
10
99.973991
20
14.441208
30
-78.894073
11
-1.173771
21
47.862473
31
-97.895477
12
100.884438
22
45.882111
32
-63.574104
13
100.884438
23
45.882111
33
-63.574104
0
3DFACE
8
0
70
0
10
99.973991
20
7.037354
30
75.729759
11
125.486366
21
42.601044
31
4.948669
12
100.884438
22
38.494904
32
90.702202
13
100.884438
23
38.494904
33
90.702202
0
3DFACE
8
0
70
0
10
99.973991
20
7.037354
30
75.729759
11
124.363838
21
10.639236
31
0.507362
12
125.486366
22
42.601044
32
4.948669
13
125.486366
23
42.601044
33
4.948669
0
3DFACE
8
0
70
0
10
124.363838
20
10.639236
30
0.507362
11
99.973991
21
14.441208
31
-78.894073
12
100.884438
22
45.882111
32
-63.574104
13
100.884438
23
45.882111
33
-63.574104
0
3DFACE
8
0
70
0
10
124.363838
20
10.639236
30
0.507362
11
100.884438
21
45.882111
31
-63.574104
12
125.486366
22
42.601044
32
4.948669
13
125.486366
23
42.601044
33
4.948669
0
3DFACE
8
0
70
0
10
-102.321548
20
7.037354
30
75.729767
11
-1.173772
21
5.647049
31
105.889648
12
-1.173773
22
21.873520
32
119.076027
13
-1.173773
23
21.873520
33
119.076027
0
3DFACE
8
0
70
0
10
-102.321548
20
7.037354
30
75.729767
11
-1.173773
21
21.873520
31
119.076027
12
-103.231987
22
38.494904
32
90.702202
13
-103.231987
23
38.494904
33
90.702202
0
3DFACE
8
0
70
0
10
-102.321541
20
14.441208
30
-78.894073
11
-1.173771
21
47.862473
31
-97.895477
12
-1.188086
22
16.154266
32
-109.035614
13
-1.188086
23
16.154266
33
-109.035614
0
3DFACE
8
0
70
0
10
-102.321541
20
14.441208
30
-78.894073
11
-103.231987
21
45.882111
31
-63.574104
12
-1.173771
22
47.862473
32
-97.895477
13
-1.173771
23
47.862473
33
-97.895477
0
3DFACE
8
0
70
0
10
-102.321548
20
7.037354
30
75.729767
11
-127.833923
21
42.601044
31
4.948671
12
-126.711380
22
10.639236
32
0.507364
13
-126.711380
23
10.639236
33
0.507364
0
3DFACE
8
0
70
0
10
-102.321548
20
7.037354
30
75.729767
11
-103.231987
21
38.494904
31
90.702202
12
-127.833923
22
42.601044
32
4.948671
13
-127.833923
23
42.601044
33
4.948671
0
3DFACE
8
0
70
0
10
-126.711380
20
10.639236
30
0.507364
11
-127.833923
21
42.601044
31
4.948671
12
-103.231987
22
45.882111
32
-63.574104
13
-103.231987
23
45.882111
33
-63.574104
0
3DFACE
8
0
70
0
10
-126.711380
20
10.639236
30
0.507364
11
-103.231987
21
45.882111
31
-63.574104
12
-102.321541
22
14.441208
32
-78.894073
13
-102.321541
23
14.441208
33
-78.894073
0
3DFACE
8
0
70
0
10
-1.173773
20
21.873520
30
119.076027
11
53.584675
21
111.243011
31
68.033928
12
-1.173774
22
106.944061
32
77.821152
13
-1.173774
23
106.944061
33
77.821152
0
3DFACE
8
0
70
0
10
-1.173773
20
21.873520
30
119.076027
11
100.884438
21
38.494904
31
90.702202
12
53.584675
22
111.243011
32
68.033928
13
53.584675
23
111.243011
33
68.033928
0
3DFACE
8
0
70
0
10
100.884438
20
45.882111
30
-63.574104
11
-1.173771
21
47.862473
31
-97.895477
12
53.713791
22
135.579956
32
-26.806488
13
53.713791
23
135.579956
33
-26.806488
0
3DFACE
8
0
70
0
10
-1.173771
20
47.862473
30
-97.895477
11
-1.207897
21
140.783752
31
-38.229687
12
53.713791
22
135.579956
32
-26.806488
13
53.713791
23
135.579956
33
-26.806488
0
3DFACE
8
0
70
0
10
100.884438
20
38.494904
30
90.702202
11
88.601860
21
91.038391
31
6.713542
12
68.362885
22
116.272980
32
49.763706
13
68.362885
23
116.272980
33
49.763706
0
3DFACE
8
0
70
0
10
100.884438
20
38.494904
30
90.702202
11
125.486366
21
42.601044
31
4.948669
12
88.601860
22
91.038391
32
6.713542
13
88.601860
23
91.038391
33
6.713542
0
3DFACE
8
0
70
0
10
100.884438
20
45.882111
30
-63.574104
11
80.604759
21
120.600891
31
-26.186817
12
88.601860
22
91.038391
32
6.713542
13
88.601860
23
91.038391
33
6.713542
0
3DFACE
8
0
70
0
10
125.486366
20
42.601044
30
4.948669
11
100.884438
21
45.882111
31
-63.574104
12
88.601860
22
91.038391
32
6.713542
13
88.601860
23
91.038391
33
6.713542
0
3DFACE
8
0
70
0
10
100.884438
20
38.494904
30
90.702202
11
68.362885
21
116.272980
31
49.763706
12
53.584675
22
111.243011
32
68.033928
13
53.584675
23
111.243011
33
68.033928
0
3DFACE
8
0
70
0
10
100.884438
20
45.882111
30
-63.574104
11
53.713791
21
135.579956
31
-26.806488
12
80.604759
22
120.600891
32
-26.186817
13
80.604759
23
120.600891
33
-26.186817
0
3DFACE
8
0
70
0
10
-1.173773
20
21.873520
30
119.076027
11
-55.965126
21
111.243011
31
68.033936
12
-103.231987
22
38.494904
32
90.702202
13
-103.231987
23
38.494904
33
90.702202
0
3DFACE
8
0
70
0
10
-1.173773
20
21.873520
30
119.076027
11
-1.173774
21
106.944061
31
77.821152
12
-55.965126
22
111.243011
32
68.033936
13
-55.965126
23
111.243011
33
68.033936
0
3DFACE
8
0
70
0
10
-103.231987
20
45.882111
30
-63.574104
11
-56.103218
21
135.579926
31
-26.806486
12
-1.173771
22
47.862473
32
-97.895477
13
-1.173771
23
47.862473
33
-97.895477
0
3DFACE
8
0
70
0
10
-1.173771
20
47.862473
30
-97.895477
11
-56.103218
21
135.579926
31
-26.806486
12
-1.207897
22
140.783752
32
-38.229687
13
-1.207897
23
140.783752
33
-38.229687
0
3DFACE
8
0
70
0
10
-103.231987
20
38.494904
30
90.702202
11
-68.211647
21
111.200012
31
46.510944
12
-93.655663
22
89.554596
32
4.484976
13
-93.655663
23
89.554596
33
4.484976
0
3DFACE
8
0
70
0
10
-103.231987
20
38.494904
30
90.702202
11
-93.655663
21
89.554596
31
4.484976
12
-127.833923
22
42.601044
32
4.948671
13
-127.833923
23
42.601044
33
4.948671
0
3DFACE
8
0
70
0
10
-127.833923
20
42.601044
30
4.948671
11
-93.655663
21
89.554596
31
4.484976
12
-103.231987
22
45.882111
32
-63.574104
13
-103.231987
23
45.882111
33
-63.574104
0
3DFACE
8
0
70
0
10
-103.231987
20
45.882111
30
-63.574104
11
-93.655663
21
89.554596
31
4.484976
12
-85.589996
22
121.640991
32
-25.423996
13
-85.589996
23
121.640991
33
-25.423996
0
3DFACE
8
0
70
0
10
-103.231987
20
38.494904
30
90.702202
11
-55.965126
21
111.243011
31
68.033936
12
-68.211647
22
111.200012
32
46.510944
13
-68.211647
23
111.200012
33
46.510944
0
3DFACE
8
0
70
0
10
-103.231987
20
45.882111
30
-63.574104
11
-85.589996
21
121.640991
31
-25.423996
12
-56.103218
22
135.579926
32
-26.806486
13
-56.103218
23
135.579926
33
-26.806486
0
3DFACE
8
0
70
0
10
88.601860
20
91.038391
30
6.713542
11
94.168579
21
67.901550
31
51.413090
12
68.362885
22
116.272980
32
49.763706
13
68.362885
23
116.272980
33
49.763706
0
3DFACE
8
0
70
0
10
104.355438
20
37.410461
30
16.856329
11
94.168579
21
67.901550
31
51.413090
12
88.601860
22
91.038391
32
6.713542
13
88.601860
23
91.038391
33
6.713542
0
3DFACE
8
0
70
0
10
68.362885
20
116.272980
30
49.763706
11
143.823059
21
73.094727
31
37.313629
12
63.277851
22
145.942200
32
9.961871
13
63.277851
23
145.942200
33
9.961871
0
3DFACE
8
0
70
0
10
68.362885
20
116.272980
30
49.763706
11
94.168579
21
67.901550
31
51.413090
12
143.823059
22
73.094727
32
37.313629
13
143.823059
23
73.094727
33
37.313629
0
3DFACE
8
0
70
0
10
80.604759
20
120.600891
30
-26.186817
11
63.277851
21
145.942200
31
9.961871
12
143.823059
22
73.094727
32
37.313629
13
143.823059
23
73.094727
33
37.313629
0
3DFACE
8
0
70
0
10
80.604759
20
120.600891
30
-26.186817
11
143.823059
21
73.094727
31
37.313629
12
146.855301
22
43.521255
32
6.459997
13
146.855301
23
43.521255
33
6.459997
0
3DFACE
8
0
70
0
10
88.601860
20
91.038391
30
6.713542
11
80.604759
21
120.600891
31
-26.186817
12
146.855301
22
43.521255
32
6.459997
13
146.855301
23
43.521255
33
6.459997
0
3DFACE
8
0
70
0
10
104.355438
20
37.410461
30
16.856329
11
88.601860
21
91.038391
31
6.713542
12
146.855301
22
43.521255
32
6.459997
13
146.855301
23
43.521255
33
6.459997
0
3DFACE
8
0
70
0
10
-93.655663
20
89.554596
30
4.484976
11
-68.211647
21
111.200012
31
46.510944
12
-97.299850
22
61.058426
32
49.262955
13
-97.299850
23
61.058426
33
49.262955
0
3DFACE
8
0
70
0
10
-120.818855
20
39.436096
30
15.157098
11
-93.655663
21
89.554596
31
4.484976
12
-97.299850
22
61.058426
32
49.262955
13
-97.299850
23
61.058426
33
49.262955
0
3DFACE
8
0
70
0
10
-68.211647
20
111.200012
30
46.510944
11
-64.316963
21
144.692810
31
10.227881
12
-145.517639
22
78.808228
32
48.158058
13
-145.517639
23
78.808228
33
48.158058
0
3DFACE
8
0
70
0
10
-68.211647
20
111.200012
30
46.510944
11
-145.517639
21
78.808228
31
48.158058
12
-97.299850
22
61.058426
32
49.262955
13
-97.299850
23
61.058426
33
49.262955
0
3DFACE
8
0
70
0
10
-85.589996
20
121.640991
30
-25.423996
11
-145.517639
21
78.808228
31
48.158058
12
-64.316963
22
144.692810
32
10.227881
13
-64.316963
23
144.692810
33
10.227881
0
3DFACE
8
0
70
0
10
-85.589996
20
121.640991
30
-25.423996
11
-161.369675
21
55.962051
31
15.999896
12
-145.517639
22
78.808228
32
48.158058
13
-145.517639
23
78.808228
33
48.158058
0
3DFACE
8
0
70
0
10
-93.655663
20
89.554596
30
4.484976
11
-161.369675
21
55.962051
31
15.999896
12
-85.589996
22
121.640991
32
-25.423996
13
-85.589996
23
121.640991
33
-25.423996
0
3DFACE
8
0
70
0
10
-120.818855
20
39.436096
30
15.157098
11
-161.369675
21
55.962051
31
15.999896
12
-93.655663
22
89.554596
32
4.484976
13
-93.655663
23
89.554596
33
4.484976
0
3DFACE
8
0
70
0
10
-133.135788
20
3.963318
30
43.985363
11
-120.818855
21
39.436096
31
15.157098
12
-97.299850
22
61.058426
32
49.262955
13
-97.299850
23
61.058426
33
49.262955
0
3DFACE
8
0
70
0
10
-133.135788
20
3.963318
30
43.985363
11
-97.299850
21
61.058426
31
49.262955
12
-107.520180
22
35.689087
32
70.437820
13
-107.520180
23
35.689087
33
70.437820
0
3DFACE
8
0
70
0
10
-107.520180
20
35.689087
30
70.437820
11
-97.299850
21
61.058426
31
49.262955
12
-145.517639
22
78.808228
32
48.158058
13
-145.517639
23
78.808228
33
48.158058
0
3DFACE
8
0
70
0
10
-107.520180
20
35.689087
30
70.437820
11
-145.517639
21
78.808228
31
48.158058
12
-159.217133
22
40.276611
32
81.825661
13
-159.217133
23
40.276611
33
81.825661
0
3DFACE
8
0
70
0
10
-176.710495
20
9.827927
30
55.470009
11
-159.217133
21
40.276611
31
81.825661
12
-145.517639
22
78.808228
32
48.158058
13
-145.517639
23
78.808228
33
48.158058
0
3DFACE
8
0
70
0
10
-176.710495
20
9.827927
30
55.470009
11
-145.517639
21
78.808228
31
48.158058
12
-161.369675
22
55.962051
32
15.999896
13
-161.369675
23
55.962051
33
15.999896
0
3DFACE
8
0
70
0
10
-133.135788
20
3.963318
30
43.985363
11
-176.710495
21
9.827927
31
55.470009
12
-161.369675
22
55.962051
32
15.999896
13
-161.369675
23
55.962051
33
15.999896
0
3DFACE
8
0
70
0
10
-133.135788
20
3.963318
30
43.985363
11
-161.369675
21
55.962051
31
15.999896
12
-120.818855
22
39.436096
32
15.157098
13
-120.818855
23
39.436096
33
15.157098
0
3DFACE
8
0
70
0
10
114.013451
20
4.235580
30
49.037258
11
94.168579
21
67.901550
31
51.413090
12
104.355438
22
37.410461
32
16.856329
13
104.355438
23
37.410461
33
16.856329
0
3DFACE
8
0
70
0
10
114.013451
20
4.235580
30
49.037258
11
102.451637
21
45.384674
31
72.177979
12
94.168579
22
67.901550
32
51.413090
13
94.168579
23
67.901550
33
51.413090
0
3DFACE
8
0
70
0
10
102.451637
20
45.384674
30
72.177979
11
143.823059
21
73.094727
31
37.313629
12
94.168579
22
67.901550
32
51.413090
13
94.168579
23
67.901550
33
51.413090
0
3DFACE
8
0
70
0
10
102.451637
20
45.384674
30
72.177979
11
154.904816
21
37.319366
31
74.808144
12
143.823059
22
73.094727
32
37.313629
13
143.823059
23
73.094727
33
37.313629
0
3DFACE
8
0
70
0
10
159.073425
20
-0.379395
30
52.690594
11
146.855301
21
43.521255
31
6.459997
12
143.823059
22
73.094727
32
37.313629
13
143.823059
23
73.094727
33
37.313629
0
3DFACE
8
0
70
0
10
159.073425
20
-0.379395
30
52.690594
11
143.823059
21
73.094727
31
37.313629
12
154.904816
22
37.319366
32
74.808144
13
154.904816
23
37.319366
33
74.808144
0
3DFACE
8
0
70
0
10
114.013451
20
4.235580
30
49.037258
11
104.355438
21
37.410461
31
16.856329
12
146.855301
22
43.521255
32
6.459997
13
146.855301
23
43.521255
33
6.459997
0
3DFACE
8
0
70
0
10
114.013451
20
4.235580
30
49.037258
11
146.855301
21
43.521255
31
6.459997
12
159.073425
22
-0.379395
32
52.690594
13
159.073425
23
-0.379395
33
52.690594
0
3DFACE
8
0
70
0
10
-5.802033
20
279.218872
30
39.543751
11
-1.330382
21
276.852417
31
39.438992
12
-1.278553
22
264.460663
32
70.678703
13
-17.248739
23
269.115204
33
74.953094
0
3DFACE
8
0
70
0
10
3.141271
20
279.218872
30
39.543755
11
14.691634
21
269.115204
31
74.953102
12
-1.278553
22
264.460663
32
70.678703
13
-1.330382
23
276.852417
33
39.438992
0
3DFACE
8
0
70
0
10
6.142220
20
282.731567
30
39.699215
11
25.409304
21
276.024200
31
81.297813
12
14.691634
22
269.115204
32
74.953102
13
3.141271
23
279.218872
33
39.543755
0
3DFACE
8
0
70
0
10
5.455558
20
286.325012
30
39.858269
11
22.956942
21
283.092072
31
87.788429
12
25.409304
22
276.024200
32
81.297813
13
6.142220
23
282.731567
33
39.699215
0
3DFACE
8
0
70
0
10
4.705544
20
290.779816
30
40.055454
11
20.278316
21
291.854156
31
95.834885
12
22.956942
22
283.092072
32
87.788429
13
5.455558
23
286.325012
33
39.858269
0
3DFACE
8
0
70
0
10
1.365044
20
292.942688
30
40.151203
11
8.347959
21
296.108246
31
99.741562
12
20.278316
22
291.854156
32
95.834885
13
4.705544
23
290.779816
33
40.055454
0
3DFACE
8
0
70
0
10
-1.330378
20
294.204956
30
40.207081
11
-1.278548
21
298.590942
31
102.021492
12
8.347959
22
296.108246
32
99.741562
13
1.365044
23
292.942688
33
40.151203
0
3DFACE
8
0
70
0
10
-1.330378
20
294.204956
30
40.207081
11
-4.025801
21
292.942688
31
40.151199
12
-10.905055
22
296.108246
32
99.741562
13
-1.278548
23
298.590942
33
102.021492
0
3DFACE
8
0
70
0
10
-4.025801
20
292.942688
30
40.151199
11
-7.366301
21
290.779816
31
40.055450
12
-22.835415
22
291.854156
32
95.834877
13
-10.905055
23
296.108246
33
99.741562
0
3DFACE
8
0
70
0
10
-7.366301
20
290.779816
30
40.055450
11
-8.116317
21
286.325012
31
39.858269
12
-25.514042
22
283.092072
32
87.788422
13
-22.835415
23
291.854156
33
95.834877
0
3DFACE
8
0
70
0
10
-8.116317
20
286.325012
30
39.858269
11
-8.802978
21
282.731567
31
39.699211
12
-27.966400
22
276.024200
32
81.297813
13
-25.514042
23
283.092072
33
87.788422
0
3DFACE
8
0
70
0
10
-8.802978
20
282.731567
30
39.699211
11
-5.802033
21
279.218872
31
39.543751
12
-17.248739
22
269.115204
32
74.953094
13
-27.966400
23
276.024200
33
81.297813
0
ENDSEC
0
EOF
