0
SECTION
2
HEADER
999
DXF File Generated by LightWave 3D(TM)
0
ENDSEC
0
SECTION
2
TABLES
0
ENDSEC
0
SECTION
2
BLOCKS
0
ENDSEC
0
SECTION
2
ENTITIES
0
3DFACE
8
0
70
0
10
1.180059
20
-39.792431
30
116.014847
11
48.058331
21
-40.789310
31
91.320473
12
65.361275
22
-32.249466
32
45.956856
13
52.648346
23
-45.120731
33
86.817223
0
3DFACE
8
0
70
0
10
49.883808
20
-72.049416
30
-54.946693
11
49.748871
21
-81.390160
31
-34.953548
12
24.039249
22
-116.390381
32
-33.157082
13
-2.724591
23
-77.826653
33
-84.213295
0
3DFACE
8
0
70
0
10
1.490536
20
-42.537098
30
141.389069
11
1.180059
21
-39.792431
31
116.014847
12
52.648346
22
-45.120731
32
86.817223
13
69.586411
23
-49.342529
33
105.352585
0
3DFACE
8
0
70
0
10
66.087799
20
-83.421623
30
-74.054092
11
49.883808
21
-72.049416
31
-54.946693
12
-2.724591
22
-77.826653
32
-84.213295
13
-3.372532
23
-89.907043
33
-107.986229
0
3DFACE
8
0
70
0
10
1.857274
20
-35.964935
30
155.279572
11
74.032715
21
-43.739372
31
114.641945
12
86.704910
22
13.934095
32
108.060074
13
3.195382
23
22.936398
33
148.738083
0
3DFACE
8
0
70
0
10
70.079277
20
-82.248749
30
-88.087601
11
-3.637993
21
-89.492973
31
-126.514511
12
-2.298921
22
-30.568117
32
-133.045441
13
82.751472
23
-24.575277
33
-94.669479
0
3DFACE
8
0
70
0
10
3.195382
20
22.936398
30
148.738083
11
86.704910
21
13.934095
31
108.060074
12
81.748604
22
13.419351
32
98.215340
13
2.945011
23
21.486544
33
134.278687
0
3DFACE
8
0
70
0
10
1.857274
20
-35.964935
30
155.279572
11
1.490536
21
-42.537098
31
141.389069
12
69.586411
22
-49.342529
32
105.352585
13
74.032715
23
-43.739372
33
114.641945
0
3DFACE
8
0
70
0
10
82.751472
20
-24.575277
30
-94.669479
11
-2.298921
21
-30.568117
31
-133.045441
12
-1.926121
22
-25.025995
32
-114.720589
13
78.250000
23
-20.659754
33
-81.191345
0
3DFACE
8
0
70
0
10
70.079277
20
-82.248749
30
-88.087601
11
66.087799
21
-83.421623
31
-74.054092
12
-3.372532
22
-89.907043
32
-107.986229
13
-3.637993
23
-89.492973
33
-126.514511
0
3DFACE
8
0
70
0
10
62.083233
20
-124.381081
30
128.630707
11
110.744225
21
-124.381081
31
128.630707
12
102.655060
22
-105.022774
32
113.337158
13
68.601089
23
-105.196648
33
113.337158
0
3DFACE
8
0
70
0
10
52.648346
20
-45.120731
30
86.817223
11
65.361275
21
-32.249466
31
45.956856
12
64.934898
22
-53.405216
32
1.409801
13
63.774391
23
-58.504433
33
17.316488
0
3DFACE
8
0
70
0
10
69.586411
20
-49.342529
30
105.352585
11
52.648346
21
-45.120731
31
86.817223
12
63.774391
22
-58.504433
32
17.316488
13
84.551178
23
-66.207520
33
17.846064
0
3DFACE
8
0
70
0
10
86.704910
20
13.934095
30
108.060074
11
74.032715
21
-43.739372
31
114.641945
12
89.849182
22
-62.478176
32
17.350794
13
105.177734
23
-4.850280
33
10.732649
0
3DFACE
8
0
70
0
10
105.177734
20
-4.850280
30
10.732649
11
99.213387
21
-3.488534
31
10.674677
12
81.748604
22
13.419351
32
98.215340
13
86.704910
23
13.934095
33
108.060074
0
3DFACE
8
0
70
0
10
74.032715
20
-43.739372
30
114.641945
11
69.586411
21
-49.342529
31
105.352585
12
84.551178
22
-66.207520
32
17.846064
13
89.849182
23
-62.478176
33
17.350794
0
3DFACE
8
0
70
0
10
46.839874
20
-155.719864
30
128.630707
11
116.191055
21
-155.893738
31
128.630707
12
110.744225
22
-124.381081
32
128.630707
13
62.083233
23
-124.381081
33
128.630707
0
3DFACE
8
0
70
0
10
2.624255
20
137.066528
30
-7.856804
11
66.324944
21
121.919395
31
-9.438883
12
58.705681
22
106.336426
32
-52.069157
13
1.076460
23
113.921783
33
-58.300877
0
3DFACE
8
0
70
0
10
63.774391
20
-58.504433
30
17.316488
11
64.934898
21
-53.405216
31
1.409801
12
49.748871
22
-81.390160
32
-34.953548
13
49.883808
23
-72.049416
33
-54.946693
0
3DFACE
8
0
70
0
10
84.551178
20
-66.207520
30
17.846064
11
63.774391
21
-58.504433
31
17.316488
12
49.883808
22
-72.049416
32
-54.946693
13
66.087799
23
-83.421623
33
-74.054092
0
3DFACE
8
0
70
0
10
89.849182
20
-62.478176
30
17.350794
11
70.079277
21
-82.248749
31
-88.087601
12
82.751472
22
-24.575277
32
-94.669479
13
105.177734
23
-4.850280
33
10.732649
0
3DFACE
8
0
70
0
10
82.751472
20
-24.575277
30
-94.669479
11
78.250000
21
-20.659754
31
-81.191345
12
99.213387
22
-3.488534
32
10.674677
13
105.177734
23
-4.850280
33
10.732649
0
3DFACE
8
0
70
0
10
89.849182
20
-62.478176
30
17.350794
11
84.551178
21
-66.207520
31
17.846064
12
66.087799
22
-83.421623
32
-74.054092
13
70.079277
23
-82.248749
33
-88.087601
0
3DFACE
8
0
70
0
10
53.924324
20
-71.162865
30
58.789394
11
48.058331
21
-40.789310
31
91.320473
12
33.953102
22
-84.766975
32
35.379040
13
44.248806
23
-94.729050
33
39.307549
0
3DFACE
8
0
70
0
10
53.924324
20
-71.162865
30
58.789394
11
70.358597
21
-50.394402
31
20.485811
12
65.361275
22
-32.249466
32
45.956856
13
48.058331
23
-40.789310
33
91.320473
0
3DFACE
8
0
70
0
10
70.358597
20
-50.394402
30
20.485811
11
71.100876
21
-55.323112
31
-2.991827
12
64.934898
22
-53.405216
32
1.409801
13
65.361275
23
-32.249466
33
45.956856
0
3DFACE
8
0
70
0
10
44.248806
20
-94.729050
30
39.307549
11
33.953102
21
-84.766975
31
35.379040
12
24.039249
22
-116.390381
32
-33.157082
13
41.322468
23
-108.794373
33
7.697409
0
3DFACE
8
0
70
0
10
71.100876
20
-55.323112
30
-2.991827
11
62.167389
21
-74.854889
31
-12.723975
12
49.748871
22
-81.390160
32
-34.953548
13
64.934898
23
-53.405216
33
1.409801
0
3DFACE
8
0
70
0
10
62.167389
20
-74.854889
30
-12.723975
11
41.322468
21
-108.794373
31
7.697409
12
24.039249
22
-116.390381
32
-33.157082
13
49.748871
23
-81.390160
33
-34.953548
0
3DFACE
8
0
70
0
10
74.107407
20
-140.049469
30
30.619148
11
62.083229
21
-132.247223
31
67.838867
12
68.601089
22
-114.334076
32
59.809753
13
75.565094
23
-103.798805
33
53.544132
0
3DFACE
8
0
70
0
10
75.565094
20
-103.798805
30
53.544132
11
68.601089
21
-114.334076
31
59.809753
12
102.655060
22
-117.710030
32
59.809753
13
94.916092
23
-95.286102
33
24.936502
0
3DFACE
8
0
70
0
10
103.036179
20
-115.219513
30
3.017903
11
94.916092
21
-95.286102
31
24.936502
12
102.655060
22
-117.710030
32
59.809753
13
110.744225
23
-132.247223
33
67.838867
0
3DFACE
8
0
70
0
10
67.251045
20
-183.080719
30
11.285540
11
50.663254
21
-153.630402
31
56.368710
12
62.083229
22
-132.247223
32
67.838867
13
74.107407
23
-140.049469
33
30.619148
0
3DFACE
8
0
70
0
10
110.004517
20
-144.791565
30
-27.582670
11
103.036179
21
-115.219513
31
3.017903
12
110.744225
22
-132.247223
32
67.838867
13
120.014420
23
-153.729767
33
60.192101
0
3DFACE
8
0
70
0
10
110.004517
20
-144.791565
30
-27.582670
11
120.014420
21
-153.729767
31
60.192101
12
50.663254
22
-153.630402
32
56.368710
13
67.251045
23
-183.080719
33
11.285540
0
3DFACE
8
0
70
0
10
62.083233
20
-124.381081
30
128.630707
11
68.601089
21
-105.196648
31
113.337158
12
68.601089
22
-114.334076
32
59.809753
13
62.083229
23
-132.247223
33
67.838867
0
3DFACE
8
0
70
0
10
68.601089
20
-105.196648
30
113.337158
11
102.655060
21
-105.022774
31
113.337158
12
102.655060
22
-117.710030
32
59.809753
13
68.601089
23
-114.334076
33
59.809753
0
3DFACE
8
0
70
0
10
110.744225
20
-124.381081
30
128.630707
11
110.744225
21
-132.247223
31
67.838867
12
102.655060
22
-117.710030
32
59.809753
13
102.655060
23
-105.022774
33
113.337158
0
3DFACE
8
0
70
0
10
46.839874
20
-155.719864
30
128.630707
11
62.083233
21
-124.381081
31
128.630707
12
62.083229
22
-132.247223
32
67.838867
13
50.663254
23
-153.630402
33
56.368710
0
3DFACE
8
0
70
0
10
116.191055
20
-155.893738
30
128.630707
11
120.014420
21
-153.729767
31
60.192101
12
110.744225
22
-132.247223
32
67.838867
13
110.744225
23
-124.381081
33
128.630707
0
3DFACE
8
0
70
0
10
116.191055
20
-155.893738
30
128.630707
11
46.839874
21
-155.719864
31
128.630707
12
50.663254
22
-153.630402
32
56.368710
13
120.014420
23
-153.729767
33
60.192101
0
3DFACE
8
0
70
0
10
144.348236
20
9.778187
30
234.211670
11
162.723083
21
20.433519
31
223.870499
12
146.940506
22
30.746056
32
235.213547
13
128.052826
23
20.256516
33
233.916763
0
3DFACE
8
0
70
0
10
86.017082
20
96.322266
30
-42.082470
11
58.705681
21
106.336426
31
-52.069157
12
66.324944
22
121.919395
32
-9.438883
13
66.324944
23
121.919395
33
-9.438883
0
3DFACE
8
0
70
0
10
76.967079
20
97.391045
30
33.235188
11
66.324944
21
121.919395
31
-9.438883
12
60.329586
22
98.504288
32
46.683144
13
60.329586
23
98.504288
33
46.683144
0
3DFACE
8
0
70
0
10
121.016205
20
60.627087
30
67.590759
11
148.883743
21
23.043390
31
62.016823
12
136.076492
22
9.603662
32
93.856644
13
109.587906
23
48.831955
33
100.624268
0
3DFACE
8
0
70
0
10
170.891144
20
68.013428
30
88.919006
11
121.016205
21
60.627087
31
67.590759
12
109.587906
22
48.831955
32
100.624268
13
159.364517
23
58.009686
33
122.667770
0
3DFACE
8
0
70
0
10
178.107742
20
20.396223
30
113.746155
11
190.737320
21
31.692820
31
80.942688
12
170.891144
22
68.013428
32
88.919006
13
159.364517
23
58.009686
33
122.667770
0
3DFACE
8
0
70
0
10
148.883743
20
23.043390
30
62.016823
11
190.737320
21
31.692820
31
80.942688
12
178.107742
22
20.396223
32
113.746155
13
136.076492
23
9.603662
33
93.856644
0
3DFACE
8
0
70
0
10
132.755264
20
0.282716
30
88.733963
11
120.412735
21
-13.115623
31
118.307755
12
88.160728
22
42.830738
32
128.930969
13
98.460144
23
53.762535
33
98.624313
0
3DFACE
8
0
70
0
10
98.460144
20
53.762535
30
98.624313
11
88.160728
21
42.830738
31
128.930969
12
154.741119
22
59.212254
32
159.212662
13
164.873093
23
67.671867
33
128.733063
0
3DFACE
8
0
70
0
10
177.152908
20
5.898986
30
145.973404
11
188.906342
21
16.227386
31
115.945206
12
164.873093
22
67.671867
32
128.733063
13
154.741119
23
59.212254
33
159.212662
0
3DFACE
8
0
70
0
10
132.755264
20
0.282716
30
88.733963
11
188.906342
21
16.227386
31
115.945206
12
177.152908
22
5.898986
32
145.973404
13
120.412735
23
-13.115623
33
118.307755
0
3DFACE
8
0
70
0
10
132.755264
20
0.282716
30
88.733963
11
98.460144
21
53.762535
31
98.624313
12
109.587906
22
48.831955
32
100.624268
13
136.076492
23
9.603662
33
93.856644
0
3DFACE
8
0
70
0
10
120.412735
20
-13.115623
30
118.307755
11
124.014580
21
-3.053966
31
123.843605
12
99.108826
22
38.016472
32
130.914017
13
88.160728
23
42.830738
33
128.930969
0
3DFACE
8
0
70
0
10
98.460144
20
53.762535
30
98.624313
11
164.873093
21
67.671867
31
128.733063
12
159.364517
22
58.009686
32
122.667770
13
109.587906
23
48.831955
33
100.624268
0
3DFACE
8
0
70
0
10
88.160728
20
42.830738
30
128.930969
11
99.108826
21
38.016472
31
130.914017
12
149.048203
22
49.056274
32
152.872925
13
154.741119
23
59.212254
33
159.212662
0
3DFACE
8
0
70
0
10
177.152908
20
5.898986
30
145.973404
11
154.741119
21
59.212254
31
159.212662
12
149.048203
22
49.056274
32
152.872925
13
166.527145
23
10.037871
33
143.824951
0
3DFACE
8
0
70
0
10
188.906342
20
16.227386
30
115.945206
11
178.107742
21
20.396223
31
113.746155
12
159.364517
22
58.009686
32
122.667770
13
164.873093
23
67.671867
33
128.733063
0
3DFACE
8
0
70
0
10
120.412735
20
-13.115623
30
118.307755
11
177.152908
21
5.898986
31
145.973404
12
166.527145
22
10.037871
32
143.824951
13
124.014580
23
-3.053966
33
123.843605
0
3DFACE
8
0
70
0
10
132.755264
20
0.282716
30
88.733963
11
136.076492
21
9.603662
31
93.856644
12
178.107742
22
20.396223
32
113.746155
13
188.906342
23
16.227386
33
115.945206
0
3DFACE
8
0
70
0
10
147.991852
20
12.291933
30
129.170883
11
121.649803
21
31.563034
31
129.666718
12
99.108826
22
38.016472
32
130.914017
13
124.014580
23
-3.053966
33
123.843605
0
3DFACE
8
0
70
0
10
121.649803
20
31.563034
30
129.666718
11
150.921509
21
50.958237
31
132.618408
12
149.048203
22
49.056274
32
152.872925
13
99.108826
23
38.016472
33
130.914017
0
3DFACE
8
0
70
0
10
171.967834
20
31.077497
30
131.710754
11
166.527145
21
10.037871
31
143.824951
12
149.048203
22
49.056274
32
152.872925
13
150.921509
23
50.958237
33
132.618408
0
3DFACE
8
0
70
0
10
147.991852
20
12.291933
30
129.170883
11
124.014580
21
-3.053966
31
123.843605
12
166.527145
22
10.037871
32
143.824951
13
171.967834
23
31.077497
33
131.710754
0
3DFACE
8
0
70
0
10
94.661682
20
15.296314
30
177.252777
11
94.360764
21
25.574804
31
177.984146
12
95.007545
22
27.332563
32
164.776459
13
95.192848
23
17.058067
33
164.018936
0
3DFACE
8
0
70
0
10
94.360764
20
25.574804
30
177.984146
11
94.861099
21
36.203133
31
178.832626
12
95.378883
22
37.959618
32
165.638733
13
95.007545
23
27.332563
33
164.776459
0
3DFACE
8
0
70
0
10
183.859726
20
27.273117
30
166.172028
11
171.967834
21
31.077497
31
131.710754
12
150.921509
22
50.958237
32
132.618408
13
153.493378
23
47.249107
33
166.652344
0
3DFACE
8
0
70
0
10
149.394104
20
8.582791
30
163.261230
11
147.991852
21
12.291933
31
129.170883
12
171.967834
22
31.077497
32
131.710754
13
183.859726
23
27.273117
33
166.172028
0
3DFACE
8
0
70
0
10
144.348236
20
9.778187
30
234.211670
11
128.052826
21
20.256516
31
233.916763
12
118.405594
22
27.222651
32
178.786057
13
149.394104
23
8.582791
33
163.261230
0
3DFACE
8
0
70
0
10
128.052826
20
20.256516
30
233.916763
11
146.940506
21
30.746056
31
235.213547
12
153.493378
22
47.249107
32
166.652344
13
118.405594
23
27.222651
33
178.786057
0
3DFACE
8
0
70
0
10
162.723083
20
20.433519
30
223.870499
11
183.859726
21
27.273117
31
166.172028
12
153.493378
22
47.249107
32
166.652344
13
146.940506
23
30.746056
33
235.213547
0
3DFACE
8
0
70
0
10
144.348236
20
9.778187
30
234.211670
11
149.394104
21
8.582791
31
163.261230
12
183.859726
22
27.273117
32
166.172028
13
162.723083
23
20.433519
33
223.870499
0
3DFACE
8
0
70
0
10
94.661682
20
15.296314
30
177.252777
11
95.192848
21
17.058067
31
164.018936
12
147.991852
22
12.291933
32
129.170883
13
149.394104
23
8.582791
33
163.261230
0
3DFACE
8
0
70
0
10
95.192848
20
17.058067
30
164.018936
11
95.007545
21
27.332563
31
164.776459
12
121.649803
22
31.563034
32
129.666718
13
147.991852
23
12.291933
33
129.170883
0
3DFACE
8
0
70
0
10
94.661682
20
15.296314
30
177.252777
11
149.394104
21
8.582791
31
163.261230
12
118.405594
22
27.222651
32
178.786057
13
94.360764
23
25.574804
33
177.984146
0
3DFACE
8
0
70
0
10
95.007545
20
27.332563
30
164.776459
11
95.378883
21
37.959618
31
165.638733
12
150.921509
22
50.958237
32
132.618408
13
121.649803
23
31.563034
33
129.666718
0
3DFACE
8
0
70
0
10
94.861099
20
36.203133
30
178.832626
11
153.493378
21
47.249107
31
166.652344
12
150.921509
22
50.958237
32
132.618408
13
95.378883
23
37.959618
33
165.638733
0
3DFACE
8
0
70
0
10
94.360764
20
25.574804
30
177.984146
11
118.405594
21
27.222651
31
178.786057
12
153.493378
22
47.249107
32
166.652344
13
94.861099
23
36.203133
33
178.832626
0
3DFACE
8
0
70
0
10
1.180059
20
-39.792431
30
116.014847
11
-51.351765
21
-43.336288
31
88.237450
12
-61.443775
22
-31.675627
32
50.572311
13
-37.105198
23
-36.431675
33
90.910294
0
3DFACE
8
0
70
0
10
-54.116302
20
-70.264969
30
-53.526455
11
-2.724591
21
-77.826653
31
-84.213295
12
-28.270081
22
-111.048927
32
-37.211906
13
-55.700947
23
-80.176842
33
-32.707119
0
3DFACE
8
0
70
0
10
1.490536
20
-42.537098
30
141.389069
11
-67.923470
21
-46.983120
31
107.230438
12
-51.351765
22
-43.336288
32
88.237450
13
1.180059
23
-39.792431
33
116.014847
0
3DFACE
8
0
70
0
10
-71.422081
20
-81.062218
30
-72.176254
11
-3.372532
21
-89.907043
31
-107.986229
12
-2.724591
22
-77.826653
32
-84.213295
13
-54.116302
23
-70.264969
33
-53.526455
0
3DFACE
8
0
70
0
10
1.857274
20
-35.964935
30
155.279572
11
3.195382
21
22.936398
31
148.738083
12
-81.858109
22
16.826315
32
110.361984
13
-71.815193
23
-41.236908
33
116.633652
0
3DFACE
8
0
70
0
10
-75.768623
20
-79.746277
30
-86.095894
11
-85.811539
21
-21.683058
31
-92.367569
12
-2.298921
22
-30.568117
32
-133.045441
13
-3.637993
23
-89.492973
33
-126.514511
0
3DFACE
8
0
70
0
10
3.195382
20
22.936398
30
148.738083
11
2.945011
21
21.486544
31
134.278687
12
-77.225685
22
16.147038
32
100.386307
13
-81.858109
23
16.826315
33
110.361984
0
3DFACE
8
0
70
0
10
1.857274
20
-35.964935
30
155.279572
11
-71.815193
21
-41.236908
31
116.633652
12
-67.923470
22
-46.983120
32
107.230438
13
1.490536
23
-42.537098
33
141.389069
0
3DFACE
8
0
70
0
10
-85.811539
20
-21.683058
30
-92.367569
11
-80.724297
21
-17.932053
31
-79.020378
12
-1.926121
22
-25.025995
32
-114.720589
13
-2.298921
23
-30.568117
33
-133.045441
0
3DFACE
8
0
70
0
10
-75.768623
20
-79.746277
30
-86.095894
11
-3.637993
21
-89.492973
31
-126.514511
12
-3.372532
22
-89.907043
32
-107.986229
13
-71.422081
23
-81.062218
33
-72.176254
0
3DFACE
8
0
70
0
10
-45.759506
20
-121.437111
30
124.901688
11
-52.277367
21
-102.252670
31
109.608139
12
-86.331337
22
-102.078804
32
109.608139
13
-94.420494
23
-121.437111
33
124.901688
0
3DFACE
8
0
70
0
10
-51.351765
20
-43.336288
30
88.237450
11
-65.181831
21
-56.291790
31
19.077526
12
-66.668068
22
-53.743473
32
6.874093
13
-61.443775
23
-31.675627
33
50.572311
0
3DFACE
8
0
70
0
10
-67.923470
20
-46.983120
30
107.230438
11
-86.292282
21
-63.276169
31
20.179119
12
-65.181831
22
-56.291790
32
19.077526
13
-51.351765
23
-43.336288
33
88.237450
0
3DFACE
8
0
70
0
10
-81.858109
20
16.826315
30
110.361984
11
-104.116058
21
-1.259198
31
13.590784
12
-91.416779
22
-59.368000
32
19.826180
13
-71.815193
23
-41.236908
33
116.633652
0
3DFACE
8
0
70
0
10
-104.116058
20
-1.259198
30
13.590784
11
-81.858109
21
16.826315
31
110.361984
12
-77.225685
22
16.147038
32
100.386307
13
-98.094498
23
-0.103117
33
13.369131
0
3DFACE
8
0
70
0
10
-71.815193
20
-41.236908
30
116.633652
11
-91.416779
21
-59.368000
31
19.826180
12
-86.292282
22
-63.276169
32
20.179119
13
-67.923470
23
-46.983120
33
107.230438
0
3DFACE
8
0
70
0
10
-30.516146
20
-152.775879
30
124.901688
11
-45.759506
21
-121.437111
31
124.901688
12
-94.420494
22
-121.437111
32
124.901688
13
-99.867325
23
-152.949768
33
124.901688
0
3DFACE
8
0
70
0
10
2.624255
20
137.066528
30
-7.856804
11
1.076460
21
113.921783
31
-58.300877
12
-54.586933
22
108.980080
32
-50.461426
13
-62.652298
23
123.783775
33
-6.778818
0
3DFACE
8
0
70
0
10
-65.181831
20
-56.291790
30
19.077526
11
-54.116302
21
-70.264969
31
-53.526455
12
-55.700947
22
-80.176842
32
-32.707119
13
-66.668068
23
-53.743473
33
6.874093
0
3DFACE
8
0
70
0
10
-86.292282
20
-63.276169
30
20.179119
11
-71.422081
21
-81.062218
31
-72.176254
12
-54.116302
22
-70.264969
32
-53.526455
13
-65.181831
23
-56.291790
33
19.077526
0
3DFACE
8
0
70
0
10
-91.416779
20
-59.368000
30
19.826180
11
-104.116058
21
-1.259198
31
13.590784
12
-85.811539
22
-21.683058
32
-92.367569
13
-75.768623
23
-79.746277
33
-86.095894
0
3DFACE
8
0
70
0
10
-85.811539
20
-21.683058
30
-92.367569
11
-104.116058
21
-1.259198
31
13.590784
12
-98.094498
22
-0.103117
32
13.369131
13
-80.724297
23
-17.932053
33
-79.020378
0
3DFACE
8
0
70
0
10
-91.416779
20
-59.368000
30
19.826180
11
-75.768623
21
-79.746277
31
-86.095894
12
-71.422081
22
-81.062218
32
-72.176254
13
-86.292282
23
-63.276169
33
20.179119
0
3DFACE
8
0
70
0
10
-45.544765
20
-65.454338
30
60.074287
11
-38.437954
21
-88.866997
31
38.964920
12
-29.378725
22
-79.406288
32
32.684620
13
-37.105198
23
-36.431675
33
90.910294
0
3DFACE
8
0
70
0
10
-45.544765
20
-65.454338
30
60.074287
11
-37.105198
21
-36.431675
31
90.910294
12
-61.443775
22
-31.675627
32
50.572311
13
-68.108299
23
-48.676479
33
26.870556
0
3DFACE
8
0
70
0
10
-68.108299
20
-48.676479
30
26.870556
11
-61.443775
21
-31.675627
31
50.572311
12
-66.668068
22
-53.743473
32
6.874093
13
-72.323509
23
-54.921581
33
4.334660
0
3DFACE
8
0
70
0
10
-38.437954
20
-88.866997
30
38.964920
11
-40.068092
21
-104.229454
31
7.703820
12
-28.270081
22
-111.048927
32
-37.211906
13
-29.378725
23
-79.406288
33
32.684620
0
3DFACE
8
0
70
0
10
-72.323509
20
-54.921581
30
4.334660
11
-66.668068
21
-53.743473
31
6.874093
12
-55.700947
22
-80.176842
32
-32.707119
13
-64.548462
23
-73.880318
33
-7.170245
0
3DFACE
8
0
70
0
10
-64.548462
20
-73.880318
30
-7.170245
11
-55.700947
21
-80.176842
31
-32.707119
12
-28.270081
22
-111.048927
32
-37.211906
13
-40.068092
23
-104.229454
33
7.703820
0
3DFACE
8
0
70
0
10
-53.639591
20
-134.590942
30
22.685841
11
-62.398857
21
-106.361198
31
52.952263
12
-52.277370
22
-111.390106
32
56.080738
13
-45.759510
23
-129.303253
33
64.109856
0
3DFACE
8
0
70
0
10
-62.398857
20
-106.361198
30
52.952263
11
-84.269089
21
-99.640610
31
26.358700
12
-86.331345
22
-114.766060
32
56.080738
13
-52.277370
23
-111.390106
33
56.080738
0
3DFACE
8
0
70
0
10
-88.490379
20
-117.067436
30
0.131894
11
-94.420502
21
-129.303253
31
64.109856
12
-86.331345
22
-114.766060
32
56.080738
13
-84.269089
23
-99.640610
33
26.358700
0
3DFACE
8
0
70
0
10
-37.949604
20
-167.748383
30
-5.361667
11
-53.639591
21
-134.590942
31
22.685841
12
-45.759510
22
-129.303253
32
64.109856
13
-34.339535
23
-150.686432
33
52.639694
0
3DFACE
8
0
70
0
10
-89.741806
20
-140.845062
30
-36.498016
11
-103.690704
21
-150.785782
31
56.463085
12
-94.420502
22
-129.303253
32
64.109856
13
-88.490379
23
-117.067436
33
0.131894
0
3DFACE
8
0
70
0
10
-89.741806
20
-140.845062
30
-36.498016
11
-37.949604
21
-167.748383
31
-5.361667
12
-34.339535
22
-150.686432
32
52.639694
13
-103.690704
23
-150.785782
33
56.463085
0
3DFACE
8
0
70
0
10
-45.759506
20
-121.437111
30
124.901688
11
-45.759510
21
-129.303253
31
64.109856
12
-52.277370
22
-111.390106
32
56.080738
13
-52.277367
23
-102.252670
33
109.608139
0
3DFACE
8
0
70
0
10
-52.277367
20
-102.252670
30
109.608139
11
-52.277370
21
-111.390106
31
56.080738
12
-86.331345
22
-114.766060
32
56.080738
13
-86.331337
23
-102.078804
33
109.608139
0
3DFACE
8
0
70
0
10
-94.420494
20
-121.437111
30
124.901688
11
-86.331337
21
-102.078804
31
109.608139
12
-86.331345
22
-114.766060
32
56.080738
13
-94.420502
23
-129.303253
33
64.109856
0
3DFACE
8
0
70
0
10
-30.516146
20
-152.775879
30
124.901688
11
-34.339535
21
-150.686432
31
52.639694
12
-45.759510
22
-129.303253
32
64.109856
13
-45.759506
23
-121.437111
33
124.901688
0
3DFACE
8
0
70
0
10
-99.867325
20
-152.949768
30
124.901688
11
-94.420494
21
-121.437111
31
124.901688
12
-94.420502
22
-129.303253
32
64.109856
13
-103.690704
23
-150.785782
33
56.463085
0
3DFACE
8
0
70
0
10
-99.867325
20
-152.949768
30
124.901688
11
-103.690704
21
-150.785782
31
56.463085
12
-34.339535
22
-150.686432
32
52.639694
13
-30.516146
23
-152.775879
33
124.901688
0
3DFACE
8
0
70
0
10
-135.488235
20
23.325123
30
226.016052
11
-119.011726
21
33.542953
31
225.715240
12
-137.758148
22
44.340397
32
225.704285
13
-153.298752
23
33.722488
33
214.400696
0
3DFACE
8
0
70
0
10
-82.265503
20
99.100510
30
-40.718037
11
-62.652298
21
123.783775
31
-6.778818
12
-54.586933
22
108.980080
32
-50.461426
13
-54.586933
23
108.980080
33
-50.461426
0
3DFACE
8
0
70
0
10
-73.998741
20
99.069557
30
35.228165
11
-52.680611
21
101.383492
31
48.432747
12
-62.652298
22
123.783775
32
-6.778818
13
-62.652298
23
123.783775
33
-6.778818
0
3DFACE
8
0
70
0
10
-116.322357
20
67.342628
30
43.149467
11
-97.695038
21
60.847775
31
74.648308
12
-117.242851
22
17.980419
32
76.581573
13
-137.324707
23
26.026695
33
46.336246
0
3DFACE
8
0
70
0
10
-162.757080
20
69.998146
30
72.196327
11
-144.252243
21
65.351158
31
104.202614
12
-97.695038
22
60.847775
32
74.648308
13
-116.322357
23
67.342628
33
43.149467
0
3DFACE
8
0
70
0
10
-156.916245
20
24.905420
30
102.488701
11
-144.252243
21
65.351158
31
104.202614
12
-162.757080
22
69.998146
32
72.196327
13
-176.581833
23
30.770136
33
71.477959
0
3DFACE
8
0
70
0
10
-137.324707
20
26.026695
30
46.336246
11
-117.242851
21
17.980419
31
76.581573
12
-156.916245
22
24.905420
32
102.488701
13
-176.581833
23
30.770136
33
71.477959
0
3DFACE
8
0
70
0
10
-113.104401
20
8.744017
30
71.886406
11
-88.114433
21
67.005600
31
70.224693
12
-71.184608
22
60.913059
32
99.167183
13
-93.847122
23
0.433647
33
99.989632
0
3DFACE
8
0
70
0
10
-88.114433
20
67.005600
30
70.224693
11
-150.429199
21
74.721771
31
110.177040
12
-134.094299
22
71.051140
32
139.075912
13
-71.184608
23
60.913059
33
99.167183
0
3DFACE
8
0
70
0
10
-148.099930
20
14.231877
30
135.325714
11
-134.094299
21
71.051140
31
139.075912
12
-150.429199
22
74.721771
32
110.177040
13
-166.286438
23
19.561720
33
106.974007
0
3DFACE
8
0
70
0
10
-113.104401
20
8.744017
30
71.886406
11
-93.847122
21
0.433647
31
99.989632
12
-148.099930
22
14.231877
32
135.325714
13
-166.286438
23
19.561720
33
106.974007
0
3DFACE
8
0
70
0
10
-113.104401
20
8.744017
30
71.886406
11
-117.242851
21
17.980419
31
76.581573
12
-97.695038
22
60.847775
32
74.648308
13
-88.114433
23
67.005600
33
70.224693
0
3DFACE
8
0
70
0
10
-93.847122
20
0.433647
30
99.989632
11
-71.184608
21
60.913059
31
99.167183
12
-80.614868
22
54.892330
32
103.530838
13
-98.329674
23
10.402400
33
105.066826
0
3DFACE
8
0
70
0
10
-88.114433
20
67.005600
30
70.224693
11
-97.695038
21
60.847775
31
74.648308
12
-144.252243
22
65.351158
32
104.202614
13
-150.429199
23
74.721771
33
110.177040
0
3DFACE
8
0
70
0
10
-71.184608
20
60.913059
30
99.167183
11
-134.094299
21
71.051140
31
139.075912
12
-127.690399
22
61.192028
32
132.848251
13
-80.614868
23
54.892330
33
103.530838
0
3DFACE
8
0
70
0
10
-148.099930
20
14.231877
30
135.325714
11
-138.884064
21
19.527788
31
130.923676
12
-127.690399
22
61.192028
32
132.848251
13
-134.094299
23
71.051140
33
139.075912
0
3DFACE
8
0
70
0
10
-166.286438
20
19.561720
30
106.974007
11
-150.429199
21
74.721771
31
110.177040
12
-144.252243
22
65.351158
32
104.202614
13
-156.916245
23
24.905420
33
102.488701
0
3DFACE
8
0
70
0
10
-93.847122
20
0.433647
30
99.989632
11
-98.329674
21
10.402400
31
105.066826
12
-138.884064
22
19.527788
32
130.923676
13
-148.099930
23
14.231877
33
135.325714
0
3DFACE
8
0
70
0
10
-113.104401
20
8.744017
30
71.886406
11
-166.286438
21
19.561720
31
106.974007
12
-156.916245
22
24.905420
32
102.488701
13
-117.242851
23
17.980419
33
76.581573
0
3DFACE
8
0
70
0
10
-127.118980
20
20.780924
30
114.414391
11
-98.329674
21
10.402400
31
105.066826
12
-80.614868
22
54.892330
32
103.530838
13
-105.247520
23
42.899834
33
113.990746
0
3DFACE
8
0
70
0
10
-105.247520
20
42.899834
30
113.990746
11
-80.614868
21
54.892330
31
103.530838
12
-127.690399
22
61.192028
32
132.848251
13
-134.947449
23
57.152046
33
120.721046
0
3DFACE
8
0
70
0
10
-151.844360
20
35.213146
30
120.249672
11
-134.947449
21
57.152046
31
120.721046
12
-127.690399
22
61.192028
32
132.848251
13
-138.884064
23
19.527788
33
130.923676
0
3DFACE
8
0
70
0
10
-127.118980
20
20.780924
30
114.414391
11
-151.844360
21
35.213146
31
120.249672
12
-138.884064
22
19.527788
32
130.923676
13
-98.329674
23
10.402400
33
105.066826
0
3DFACE
8
0
70
0
10
-83.674385
20
25.405775
30
170.688843
11
-83.697121
21
26.536888
31
157.360825
12
-83.364204
22
36.827045
32
157.527756
13
-83.224915
23
35.697052
33
170.833679
0
3DFACE
8
0
70
0
10
-83.224915
20
35.697052
30
170.833679
11
-83.364204
21
36.827045
31
157.527756
12
-83.585449
22
47.481964
32
157.758255
13
-83.574547
23
46.354374
33
171.045609
0
3DFACE
8
0
70
0
10
-172.223633
20
38.077274
30
155.646317
11
-141.549362
21
57.616467
31
156.087326
12
-134.947449
22
57.152046
32
120.721046
13
-151.844360
23
35.213146
33
120.249672
0
3DFACE
8
0
70
0
10
-137.988434
20
18.798187
30
155.096848
11
-172.223633
21
38.077274
31
155.646317
12
-151.844360
22
35.213146
32
120.249672
13
-127.118980
23
20.780924
33
114.414391
0
3DFACE
8
0
70
0
10
-135.488235
20
23.325123
30
226.016052
11
-137.988434
21
18.798187
31
155.096848
12
-107.258675
22
37.716728
32
170.651382
13
-119.011726
23
33.542953
33
225.715240
0
3DFACE
8
0
70
0
10
-119.011726
20
33.542953
30
225.715240
11
-107.258675
21
37.716728
31
170.651382
12
-141.549362
22
57.616467
32
156.087326
13
-137.758148
23
44.340397
33
225.704285
0
3DFACE
8
0
70
0
10
-153.298752
20
33.722488
30
214.400696
11
-137.758148
21
44.340397
31
225.704285
12
-141.549362
22
57.616467
32
156.087326
13
-172.223633
23
38.077274
33
155.646317
0
3DFACE
8
0
70
0
10
-135.488235
20
23.325123
30
226.016052
11
-153.298752
21
33.722488
31
214.400696
12
-172.223633
22
38.077274
32
155.646317
13
-137.988434
23
18.798187
33
155.096848
0
3DFACE
8
0
70
0
10
-83.674385
20
25.405775
30
170.688843
11
-137.988434
21
18.798187
31
155.096848
12
-127.118980
22
20.780924
32
114.414391
13
-83.697121
23
26.536888
33
157.360825
0
3DFACE
8
0
70
0
10
-83.697121
20
26.536888
30
157.360825
11
-127.118980
21
20.780924
31
114.414391
12
-105.247520
22
42.899834
32
113.990746
13
-83.364204
23
36.827045
33
157.527756
0
3DFACE
8
0
70
0
10
-83.674385
20
25.405775
30
170.688843
11
-83.224915
21
35.697052
31
170.833679
12
-107.258675
22
37.716728
32
170.651382
13
-137.988434
23
18.798187
33
155.096848
0
3DFACE
8
0
70
0
10
-83.364204
20
36.827045
30
157.527756
11
-105.247520
21
42.899834
31
113.990746
12
-134.947449
22
57.152046
32
120.721046
13
-83.585449
23
47.481964
33
157.758255
0
3DFACE
8
0
70
0
10
-83.574547
20
46.354374
30
171.045609
11
-83.585449
21
47.481964
31
157.758255
12
-134.947449
22
57.152046
32
120.721046
13
-141.549362
23
57.616467
33
156.087326
0
3DFACE
8
0
70
0
10
-83.224915
20
35.697052
30
170.833679
11
-83.574547
21
46.354374
31
171.045609
12
-141.549362
22
57.616467
32
156.087326
13
-107.258675
23
37.716728
33
170.651382
0
3DFACE
8
0
70
0
10
33.953102
20
-84.766975
30
35.379040
11
48.058331
21
-40.789310
31
91.320473
12
1.180059
22
-39.792431
32
116.014847
13
-0.733916
23
-58.435989
33
17.867332
0
3DFACE
8
0
70
0
10
33.953102
20
-84.766975
30
35.379040
11
-0.733916
21
-58.435989
31
17.867332
12
-2.724591
22
-77.826653
32
-84.213295
13
24.039249
23
-116.390381
33
-33.157082
0
3DFACE
8
0
70
0
10
-2.724591
20
-77.826653
30
-84.213295
11
-0.733916
21
-58.435989
31
17.867332
12
-29.378725
22
-79.406288
32
32.684620
13
-28.270081
23
-111.048927
33
-37.211906
0
3DFACE
8
0
70
0
10
-0.733916
20
-58.435989
30
17.867332
11
1.180059
21
-39.792431
31
116.014847
12
-37.105198
22
-36.431675
32
90.910294
13
-29.378725
23
-79.406288
33
32.684620
0
3DFACE
8
0
70
0
10
-14.839614
20
146.860489
30
127.620430
11
-3.559643
21
146.537354
31
123.803574
12
5.787646
22
163.709076
32
127.111115
13
-15.280605
23
164.870880
33
130.626099
0
3DFACE
8
0
70
0
10
-15.280605
20
164.870880
30
130.626099
11
5.787646
21
163.709076
31
127.111115
12
-1.051917
22
171.451355
32
123.408142
13
-14.379355
23
175.171722
33
124.483437
0
3DFACE
8
0
70
0
10
-3.559643
20
146.537354
30
123.803574
11
-0.785850
21
141.482803
31
111.534142
12
11.371888
22
158.724411
32
110.389580
13
5.787646
23
163.709076
33
127.111115
0
3DFACE
8
0
70
0
10
-14.839614
20
146.860489
30
127.620430
11
-13.440494
21
139.815018
31
116.247063
12
-0.785850
22
141.482803
32
111.534142
13
-3.559643
23
146.537354
33
123.803574
0
3DFACE
8
0
70
0
10
-14.379355
20
175.171722
30
124.483437
11
-1.051917
21
171.451355
31
123.408142
12
3.322223
22
169.769638
32
107.244171
13
-12.481804
23
174.237503
33
109.712898
0
3DFACE
8
0
70
0
10
5.787646
20
163.709076
30
127.111115
11
11.371888
21
158.724411
31
110.389580
12
3.322223
22
169.769638
32
107.244171
13
-1.051917
23
171.451355
33
123.408142
0
3DFACE
8
0
70
0
10
-7.552311
20
182.419373
30
104.830299
11
-7.940243
21
173.782959
31
107.474342
12
4.051378
22
170.791641
32
104.172951
13
5.540233
23
189.104935
33
103.390579
0
3DFACE
8
0
70
0
10
4.051378
20
170.791641
30
104.172951
11
14.771472
21
170.744919
31
99.105141
12
19.319197
22
180.246170
32
94.235039
13
5.540233
23
189.104935
33
103.390579
0
3DFACE
8
0
70
0
10
-2.504651
20
127.737427
30
134.089874
11
-4.465366
21
143.616058
31
119.287376
12
-14.129108
22
142.730789
32
120.940460
13
-15.878834
23
127.654419
33
132.866119
0
3DFACE
8
0
70
0
10
43.375732
20
136.304367
30
91.065498
11
42.031094
21
146.393005
31
88.811806
12
15.090367
22
142.998581
32
107.339325
13
20.855726
23
122.844086
33
118.589035
0
3DFACE
8
0
70
0
10
-4.465366
20
143.616058
30
119.287376
11
-2.504651
21
127.737427
31
134.089874
12
17.432629
22
128.430145
32
127.719360
13
10.569297
23
143.840775
33
121.327789
0
3DFACE
8
0
70
0
10
39.157009
20
175.816498
30
83.262848
11
51.722771
21
178.196121
31
84.126900
12
23.406076
22
185.695389
32
98.745796
13
23.295820
23
182.362701
33
97.415771
0
3DFACE
8
0
70
0
10
-12.442849
20
186.734528
30
109.447403
11
-12.049714
21
184.534988
31
106.767906
12
4.648687
22
191.190475
32
105.862755
13
6.083871
23
193.470993
33
107.235870
0
3DFACE
8
0
70
0
10
6.083871
20
193.470993
30
107.235870
11
4.648687
21
191.190475
31
105.862755
12
23.295820
22
182.362701
32
97.415771
13
23.406076
23
185.695389
33
98.745796
0
3DFACE
8
0
70
0
10
-16.211637
20
102.706482
30
135.134399
11
2.476024
21
109.449799
31
129.894684
12
-0.246267
22
117.604469
32
125.819885
13
-15.419128
23
115.701523
33
129.732880
0
3DFACE
8
0
70
0
10
-14.157971
20
59.515736
30
121.137177
11
7.423596
21
70.601509
31
118.822731
12
2.476024
22
109.449799
32
129.894684
13
-16.211637
23
102.706482
33
135.134399
0
3DFACE
8
0
70
0
10
43.375732
20
136.304367
30
91.065498
11
20.855726
21
122.844086
31
118.589035
12
21.410698
22
118.473839
32
109.948502
13
46.432755
23
126.372887
33
96.705460
0
3DFACE
8
0
70
0
10
21.410698
20
118.473839
30
109.948502
11
36.790588
21
89.775185
31
85.999199
12
50.177376
22
114.751152
32
66.423370
13
46.432755
23
126.372887
33
96.705460
0
3DFACE
8
0
70
0
10
7.423596
20
70.601509
30
118.822731
11
36.790588
21
89.775185
31
85.999199
12
21.410698
22
118.473839
32
109.948502
13
2.476024
23
109.449799
33
129.894684
0
3DFACE
8
0
70
0
10
2.476024
20
109.449799
30
129.894684
11
21.410698
21
118.473839
31
109.948502
12
20.855726
22
122.844086
32
118.589035
13
-0.246267
23
117.604469
33
125.819885
0
3DFACE
8
0
70
0
10
-15.878834
20
127.654419
30
132.866119
11
-15.419128
21
115.701523
31
129.732880
12
-0.246267
22
117.604469
32
125.819885
13
-2.504651
23
127.737427
33
134.089874
0
3DFACE
8
0
70
0
10
-14.129108
20
142.730789
30
120.940460
11
-4.465366
21
143.616058
31
119.287376
12
-0.785850
22
141.482803
32
111.534142
13
-13.440494
23
139.815018
33
116.247063
0
3DFACE
8
0
70
0
10
10.569297
20
143.840775
30
121.327789
11
15.090367
21
142.998581
31
107.339325
12
-0.785850
22
141.482803
32
111.534142
13
-4.465366
23
143.616058
33
119.287376
0
POINT
8
0
70
0
10
41.791145
20
124.379768
30
112.468018
0
3DFACE
8
0
70
0
10
-2.504651
20
127.737427
30
134.089874
11
-0.246267
21
117.604469
31
125.819885
12
20.855726
22
122.844086
32
118.589035
13
17.432629
23
128.430145
33
127.719360
0
3DFACE
8
0
70
0
10
17.432629
20
128.430145
30
127.719360
11
41.791145
21
124.379768
31
112.468018
12
10.569297
22
143.840775
32
121.327789
13
10.569297
23
143.840775
33
121.327789
0
3DFACE
8
0
70
0
10
10.569297
20
143.840775
30
121.327789
11
41.791145
21
124.379768
31
112.468018
12
15.090367
22
142.998581
32
107.339325
13
15.090367
23
142.998581
33
107.339325
0
3DFACE
8
0
70
0
10
41.791145
20
124.379768
30
112.468018
11
20.855726
21
122.844086
31
118.589035
12
15.090367
22
142.998581
32
107.339325
13
15.090367
23
142.998581
33
107.339325
0
3DFACE
8
0
70
0
10
20.855726
20
122.844086
30
118.589035
11
41.791145
21
124.379768
31
112.468018
12
17.432629
22
128.430145
32
127.719360
13
17.432629
23
128.430145
33
127.719360
0
3DFACE
8
0
70
0
10
51.722771
20
178.196121
30
84.126900
11
39.157009
21
175.816498
31
83.262848
12
58.282394
22
167.783737
32
48.434124
13
61.891655
23
169.456085
33
47.340004
0
3DFACE
8
0
70
0
10
39.157009
20
175.816498
30
83.262848
11
36.857758
21
167.440399
31
84.905701
12
59.459000
22
161.108566
32
51.112450
13
58.282394
23
167.783737
33
48.434124
0
3DFACE
8
0
70
0
10
36.857758
20
167.440399
30
84.905701
11
39.051647
21
155.293167
31
87.316139
12
58.834518
22
149.232605
32
55.523663
13
59.459000
23
161.108566
33
51.112450
0
3DFACE
8
0
70
0
10
61.891655
20
169.456085
30
47.340004
11
58.282394
21
167.783737
31
48.434124
12
44.985977
22
162.021255
32
19.664206
13
47.806808
23
162.892303
33
18.828079
0
3DFACE
8
0
70
0
10
59.459000
20
161.108566
30
51.112450
11
47.629715
21
159.924255
31
18.088322
12
44.985977
22
162.021255
32
19.664206
13
58.282394
23
167.783737
33
48.434124
0
3DFACE
8
0
70
0
10
58.834518
20
149.232605
30
55.523663
11
44.757885
21
148.869415
31
18.143909
12
47.629715
22
159.924255
32
18.088322
13
59.459000
23
161.108566
33
51.112450
0
3DFACE
8
0
70
0
10
47.806808
20
162.892303
30
18.828079
11
44.985977
21
162.021255
31
19.664206
12
4.202667
22
159.443054
32
-4.003830
13
4.757229
23
159.581665
33
-7.783569
0
3DFACE
8
0
70
0
10
47.629715
20
159.924255
30
18.088322
11
4.171641
21
157.532547
31
-3.792368
12
4.202667
22
159.443054
32
-4.003830
13
44.985977
23
162.021255
33
19.664206
0
3DFACE
8
0
70
0
10
44.757885
20
148.869415
30
18.143909
11
3.614495
21
144.914276
31
0.004989
12
4.171641
22
157.532547
32
-3.792368
13
47.629715
23
159.924255
33
18.088322
0
3DFACE
8
0
70
0
10
50.177376
20
114.751152
30
66.423370
11
57.657066
21
129.492996
31
60.445980
12
43.375732
22
136.304367
32
91.065498
13
46.432755
23
126.372887
33
96.705460
0
3DFACE
8
0
70
0
10
39.051647
20
155.293167
30
87.316139
11
42.031094
21
146.393005
31
88.811806
12
58.834518
22
149.232605
32
55.523663
13
58.834518
23
149.232605
33
55.523663
0
3DFACE
8
0
70
0
10
43.375732
20
136.304367
30
91.065498
11
57.657066
21
129.492996
31
60.445980
12
58.834518
22
149.232605
32
55.523663
13
42.031094
23
146.393005
33
88.811806
0
3DFACE
8
0
70
0
10
57.657066
20
129.492996
30
60.445980
11
43.075382
21
132.669388
31
23.974398
12
44.757885
22
148.869415
32
18.143909
13
58.834518
23
149.232605
33
55.523663
0
3DFACE
8
0
70
0
10
43.075382
20
132.669388
30
23.974398
11
2.532336
21
129.529358
31
7.380679
12
3.614495
22
144.914276
32
0.004989
13
44.757885
23
148.869415
33
18.143909
0
3DFACE
8
0
70
0
10
-12.442849
20
186.734528
30
109.447403
11
6.083871
21
193.470993
31
107.235870
12
8.974614
22
213.815598
32
101.421799
13
-11.761161
23
213.561035
33
104.801208
0
3DFACE
8
0
70
0
10
-11.761161
20
213.561035
30
104.801208
11
8.974614
21
213.815598
31
101.421799
12
10.130666
22
215.570160
32
96.306252
13
-11.185547
23
216.420883
33
100.877983
0
3DFACE
8
0
70
0
10
6.083871
20
193.470993
30
107.235870
11
23.406076
21
185.695389
31
98.745796
12
37.972958
22
210.925568
32
92.156090
13
8.974614
23
213.815598
33
101.421799
0
3DFACE
8
0
70
0
10
8.974614
20
213.815598
30
101.421799
11
37.972958
21
210.925568
31
92.156090
12
37.424229
22
213.095963
32
87.061760
13
10.130666
23
215.570160
33
96.306252
0
3DFACE
8
0
70
0
10
23.406076
20
185.695389
30
98.745796
11
51.722771
21
178.196121
31
84.126900
12
58.898155
22
201.140213
32
63.999954
13
37.972958
23
210.925568
33
92.156090
0
3DFACE
8
0
70
0
10
37.972958
20
210.925568
30
92.156090
11
58.898155
21
201.140213
31
63.999954
12
50.680264
22
204.832047
32
60.999203
13
37.424229
23
213.095963
33
87.061760
0
3DFACE
8
0
70
0
10
51.722771
20
178.196121
30
84.126900
11
61.891655
21
169.456085
31
47.340004
12
67.351715
22
197.380127
32
38.564854
13
58.898155
23
201.140213
33
63.999954
0
3DFACE
8
0
70
0
10
58.898155
20
201.140213
30
63.999954
11
67.351715
21
197.380127
31
38.564854
12
60.476803
22
200.058975
32
38.814056
13
50.680264
23
204.832047
33
60.999203
0
3DFACE
8
0
70
0
10
61.891655
20
169.456085
30
47.340004
11
47.806808
21
162.892303
31
18.828079
12
49.606579
22
188.448120
32
12.927963
13
67.351715
23
197.380127
33
38.564854
0
3DFACE
8
0
70
0
10
67.351715
20
197.380127
30
38.564854
11
49.606579
21
188.448120
31
12.927963
12
43.498680
22
192.862030
32
15.243169
13
60.476803
23
200.058975
33
38.814056
0
3DFACE
8
0
70
0
10
47.806808
20
162.892303
30
18.828079
11
4.757229
21
159.581665
31
-7.783569
12
5.630974
22
183.162292
32
-13.738769
13
49.606579
23
188.448120
33
12.927963
0
3DFACE
8
0
70
0
10
49.606579
20
188.448120
30
12.927963
11
5.630974
21
183.162292
31
-13.738769
12
5.047090
22
187.210114
32
-9.759175
13
43.498680
23
192.862030
33
15.243169
0
3DFACE
8
0
70
0
10
50.177376
20
114.751152
30
66.423370
11
39.804714
21
124.979118
31
29.579605
12
43.075382
22
132.669388
32
23.974398
13
57.657066
23
129.492996
33
60.445980
0
3DFACE
8
0
70
0
10
39.804714
20
124.979118
30
29.579605
11
1.317598
21
134.045502
31
4.671664
12
2.532336
22
129.529358
32
7.380679
13
43.075382
23
132.669388
33
23.974398
0
3DFACE
8
0
70
0
10
36.790588
20
89.775185
30
85.999199
11
31.572575
21
102.286903
31
60.035847
12
39.804714
22
124.979118
32
29.579605
13
50.177376
23
114.751152
33
66.423370
0
3DFACE
8
0
70
0
10
7.423596
20
70.601509
30
118.822731
11
7.321336
21
68.791466
31
102.318665
12
31.572575
22
102.286903
32
60.035847
13
36.790588
23
89.775185
33
85.999199
0
3DFACE
8
0
70
0
10
7.321336
20
68.791466
30
102.318665
11
-10.407660
21
66.617096
31
95.576096
12
-6.665651
22
83.677956
32
70.071602
13
31.572575
23
102.286903
33
60.035847
0
3DFACE
8
0
70
0
10
-14.157971
20
59.515736
30
121.137177
11
-10.407660
21
66.617096
31
95.576096
12
7.321336
22
68.791466
32
102.318665
13
7.321336
23
68.791466
33
102.318665
0
3DFACE
8
0
70
0
10
-14.157971
20
59.515736
30
121.137177
11
7.321336
21
68.791466
31
102.318665
12
7.423596
22
70.601509
32
118.822731
13
7.423596
23
70.601509
33
118.822731
0
3DFACE
8
0
70
0
10
-14.839614
20
146.860489
30
127.620430
11
-15.280605
21
164.870880
31
130.626099
12
-34.451218
22
163.709076
32
121.207291
13
-24.547766
23
146.537354
33
120.724197
0
3DFACE
8
0
70
0
10
-15.280605
20
164.870880
30
130.626099
11
-14.379355
21
175.171722
31
124.483437
12
-26.836212
22
171.451355
32
119.625076
13
-34.451218
23
163.709076
33
121.207291
0
3DFACE
8
0
70
0
10
-24.547766
20
146.537354
30
120.724197
11
-34.451218
21
163.709076
31
121.207291
12
-35.524536
22
158.724411
32
103.508965
13
-24.207981
23
141.482803
33
108.097664
0
3DFACE
8
0
70
0
10
-14.839614
20
146.860489
30
127.620430
11
-24.547766
21
146.537354
31
120.724197
12
-24.207981
22
141.482803
32
108.097664
13
-13.440494
23
139.815018
33
116.247063
0
3DFACE
8
0
70
0
10
-14.379355
20
175.171722
30
124.483437
11
-12.481804
21
174.237503
31
109.712898
12
-26.910601
22
169.769638
32
102.808426
13
-26.836212
23
171.451355
33
119.625076
0
3DFACE
8
0
70
0
10
-34.451218
20
163.709076
30
121.207291
11
-26.836212
21
171.451355
31
119.625076
12
-26.910601
22
169.769638
32
102.808426
13
-35.524536
23
158.724411
33
103.508965
0
3DFACE
8
0
70
0
10
-15.314462
20
182.281204
30
103.526306
11
-27.275124
21
189.779327
31
98.663734
12
-26.565802
22
171.455536
32
100.224480
13
-15.663589
23
173.972778
33
105.905861
0
3DFACE
8
0
70
0
10
-26.565802
20
171.455536
30
100.224480
11
-27.275124
21
189.779327
31
98.663734
12
-38.221931
22
180.521317
32
88.389587
13
-35.073483
23
171.535965
33
93.575432
0
3DFACE
8
0
70
0
10
-29.040878
20
127.737427
30
130.196472
11
-15.878834
21
127.654419
31
132.866119
12
-14.129108
22
142.730789
32
120.940460
13
-22.910698
23
143.616058
33
116.581078
0
3DFACE
8
0
70
0
10
-60.628597
20
136.304367
30
75.806030
11
-46.964012
21
122.844086
31
108.638565
12
-38.210098
22
142.998581
32
99.519104
13
-58.693245
23
146.393036
33
74.033569
0
3DFACE
8
0
70
0
10
-22.910698
20
143.616058
30
116.581078
11
-37.897835
21
143.840775
31
114.216721
12
-46.307919
22
128.430145
32
118.367371
13
-29.040878
23
127.737427
33
130.196472
0
3DFACE
8
0
70
0
10
-54.346317
20
175.816498
30
69.544083
11
-42.328487
21
182.362701
31
87.787415
12
-42.816143
22
185.695389
32
89.029686
13
-66.630676
23
178.196121
33
66.762131
0
3DFACE
8
0
70
0
10
-12.442849
20
186.734528
30
109.447403
11
-29.121262
21
194.218323
31
101.932259
12
-27.352133
22
191.937836
32
101.029274
13
-12.049714
23
184.534988
33
106.767906
0
3DFACE
8
0
70
0
10
-29.121262
20
194.218323
30
101.932259
11
-42.816143
21
185.695389
31
89.029686
12
-42.328487
22
182.362701
32
87.787415
13
-27.352133
23
191.937836
33
101.029274
0
3DFACE
8
0
70
0
10
-16.211637
20
102.706482
30
135.134399
11
-15.419128
21
115.701523
31
129.732880
12
-28.828484
22
117.604469
32
121.626305
13
-32.606552
23
109.449799
33
124.747375
0
3DFACE
8
0
70
0
10
-14.157971
20
59.515736
30
121.137177
11
-16.211637
21
102.706482
31
135.134399
12
-32.606552
22
109.449799
32
124.747375
13
-34.165127
23
70.601509
33
112.720848
0
3DFACE
8
0
70
0
10
-60.628597
20
136.304367
30
75.806030
11
-65.176880
21
126.372887
31
80.330147
12
-45.013554
22
118.473839
32
100.202759
13
-46.964012
23
122.844086
33
108.638565
0
3DFACE
8
0
70
0
10
-45.013554
20
118.473839
30
100.202759
11
-65.176880
21
126.372887
31
80.330147
12
-60.064995
22
114.751152
32
50.248661
13
-52.865673
23
89.775185
33
72.844879
0
3DFACE
8
0
70
0
10
-34.165127
20
70.601509
30
112.720848
11
-32.606552
21
109.449799
31
124.747375
12
-45.013554
22
118.473839
32
100.202759
13
-52.865673
23
89.775185
33
72.844879
0
3DFACE
8
0
70
0
10
-32.606552
20
109.449799
30
124.747375
11
-28.828484
21
117.604469
31
121.626305
12
-46.964012
22
122.844086
32
108.638565
13
-45.013554
23
118.473839
33
100.202759
0
3DFACE
8
0
70
0
10
-15.878834
20
127.654419
30
132.866119
11
-29.040878
21
127.737427
31
130.196472
12
-28.828484
22
117.604469
32
121.626305
13
-15.419128
23
115.701523
33
129.732880
0
3DFACE
8
0
70
0
10
-14.129108
20
142.730789
30
120.940460
11
-13.440494
21
139.815018
31
116.247063
12
-24.207981
22
141.482803
32
108.097664
13
-22.910698
23
143.616058
33
116.581078
0
3DFACE
8
0
70
0
10
-37.897835
20
143.840775
30
114.216721
11
-22.910698
21
143.616058
31
116.581078
12
-24.207981
22
141.482803
32
108.097664
13
-38.210098
23
142.998581
33
99.519104
0
POINT
8
0
70
0
10
-64.434120
20
124.379799
30
96.882698
0
3DFACE
8
0
70
0
10
-29.040878
20
127.737427
30
130.196472
11
-46.307919
21
128.430145
31
118.367371
12
-46.964012
22
122.844086
32
108.638565
13
-28.828484
23
117.604469
33
121.626305
0
3DFACE
8
0
70
0
10
-46.307919
20
128.430145
30
118.367371
11
-37.897835
21
143.840775
31
114.216721
12
-64.434120
22
124.379799
32
96.882698
13
-64.434120
23
124.379799
33
96.882698
0
3DFACE
8
0
70
0
10
-37.897835
20
143.840775
30
114.216721
11
-38.210098
21
142.998581
31
99.519104
12
-64.434120
22
124.379799
32
96.882698
13
-64.434120
23
124.379799
33
96.882698
0
3DFACE
8
0
70
0
10
-64.434120
20
124.379799
30
96.882698
11
-38.210098
21
142.998581
31
99.519104
12
-46.964012
22
122.844086
32
108.638565
13
-46.964012
23
122.844086
33
108.638565
0
3DFACE
8
0
70
0
10
-46.964012
20
122.844086
30
108.638565
11
-46.307919
21
128.430145
31
118.367371
12
-64.434120
22
124.379799
32
96.882698
13
-64.434120
23
124.379799
33
96.882698
0
3DFACE
8
0
70
0
10
-66.630676
20
178.196121
30
66.762131
11
-65.803749
21
169.456085
31
28.604591
12
-62.660900
22
167.783737
32
30.689379
13
-54.346317
23
175.816498
33
69.544083
0
3DFACE
8
0
70
0
10
-54.346317
20
175.816498
30
69.544083
11
-62.660900
21
167.783737
31
30.689379
12
-64.557289
22
161.108566
32
32.916836
13
-52.615894
23
167.440399
33
71.778168
0
3DFACE
8
0
70
0
10
-52.615894
20
167.440399
30
71.778168
11
-64.557289
21
161.108566
31
32.916836
12
-65.226265
22
149.232605
32
37.321518
13
-55.409729
23
155.293167
33
73.456802
0
3DFACE
8
0
70
0
10
-65.803749
20
169.456085
30
28.604591
11
-44.122322
21
162.892303
31
5.340280
12
-41.660561
22
162.021255
32
6.951465
13
-62.660900
23
167.783737
33
30.689379
0
3DFACE
8
0
70
0
10
-64.557289
20
161.108566
30
32.916836
11
-62.660900
21
167.783737
31
30.689379
12
-41.660561
22
162.021255
32
6.951465
13
-43.740200
23
159.924271
33
4.682570
0
3DFACE
8
0
70
0
10
-65.226265
20
149.232605
30
37.321518
11
-64.557289
21
161.108566
31
32.916836
12
-43.740200
22
159.924271
32
4.682570
13
-41.005371
23
148.869415
33
5.560764
0
3DFACE
8
0
70
0
10
-44.122322
20
162.892303
30
5.340280
11
4.757229
21
159.581665
31
-7.783569
12
4.202667
22
159.443054
32
-4.003830
13
-41.660561
23
162.021255
33
6.951465
0
3DFACE
8
0
70
0
10
-43.740200
20
159.924271
30
4.682570
11
-41.660561
21
162.021255
31
6.951465
12
4.202667
22
159.443054
32
-4.003830
13
4.171641
23
157.532547
33
-3.792368
0
3DFACE
8
0
70
0
10
-41.005371
20
148.869415
30
5.560764
11
-43.740200
21
159.924271
31
4.682570
12
4.171641
22
157.532547
32
-3.792368
13
3.614495
23
144.914276
33
0.004989
0
3DFACE
8
0
70
0
10
-60.064995
20
114.751152
30
50.248661
11
-65.176880
21
126.372887
31
80.330147
12
-60.628597
22
136.304367
32
75.806030
13
-65.512398
23
129.492996
33
42.374611
0
3DFACE
8
0
70
0
10
-55.409729
20
155.293167
30
73.456802
11
-65.226265
21
149.232605
31
37.321518
12
-58.693245
22
146.393036
32
74.033569
13
-58.693245
23
146.393036
33
74.033569
0
3DFACE
8
0
70
0
10
-60.628597
20
136.304367
30
75.806030
11
-58.693245
21
146.393036
31
74.033569
12
-65.226265
22
149.232605
32
37.321518
13
-65.512398
23
129.492996
33
42.374611
0
3DFACE
8
0
70
0
10
-65.512398
20
129.492996
30
42.374611
11
-65.226265
21
149.232605
31
37.321518
12
-41.005371
22
148.869415
32
5.560764
13
-41.068623
23
132.669388
33
11.628829
0
3DFACE
8
0
70
0
10
-41.068623
20
132.669388
30
11.628829
11
-41.005371
21
148.869415
31
5.560764
12
3.614495
22
144.914276
32
0.004989
13
2.532336
23
129.529358
33
7.380679
0
3DFACE
8
0
70
0
10
-12.442849
20
186.734528
30
109.447403
11
-11.761161
21
213.561035
31
104.801208
12
-30.652256
22
213.815598
32
95.607765
13
-29.121262
23
194.218323
33
101.932259
0
3DFACE
8
0
70
0
10
-11.761161
20
213.561035
30
104.801208
11
-11.185547
21
216.420883
31
100.877983
12
-30.290115
22
215.570160
32
90.375732
13
-30.652256
23
213.815598
33
95.607765
0
3DFACE
8
0
70
0
10
-29.121262
20
194.218323
30
101.932259
11
-30.652256
21
213.815598
31
95.607765
12
-55.766804
22
210.925568
32
78.402641
13
-42.816143
23
185.695389
33
89.029686
0
3DFACE
8
0
70
0
10
-30.652256
20
213.815598
30
95.607765
11
-30.290115
21
215.570160
31
90.375732
12
-53.777824
22
213.095963
32
73.680634
13
-55.766804
23
210.925568
33
78.402641
0
3DFACE
8
0
70
0
10
-42.816143
20
185.695389
30
89.029686
11
-55.766804
21
210.925568
31
78.402641
12
-67.722084
22
201.140213
32
45.422291
13
-66.630676
23
178.196121
33
66.762131
0
3DFACE
8
0
70
0
10
-55.766804
20
210.925568
30
78.402641
11
-53.777824
21
213.095963
31
73.680634
12
-58.988556
22
204.832047
32
44.908642
13
-67.722084
23
201.140213
33
45.422291
0
3DFACE
8
0
70
0
10
-66.630676
20
178.196121
30
66.762131
11
-67.722084
21
201.140213
31
45.422291
12
-68.512985
22
197.380127
32
18.630846
13
-65.803749
23
169.456085
33
28.604591
0
3DFACE
8
0
70
0
10
-67.722084
20
201.140213
30
45.422291
11
-58.988556
21
204.832047
31
44.908642
12
-61.999409
22
200.059006
32
20.844402
13
-68.512985
23
197.380127
33
18.630846
0
3DFACE
8
0
70
0
10
-65.803749
20
169.456085
30
28.604591
11
-68.512985
21
197.380127
31
18.630846
12
-44.151402
22
188.448120
32
-0.828165
13
-44.122322
23
162.892303
33
5.340280
0
3DFACE
8
0
70
0
10
-68.512985
20
197.380127
30
18.630846
11
-61.999409
21
200.059006
31
20.844402
12
-38.965984
22
192.862030
32
3.143991
13
-44.151402
23
188.448120
33
-0.828165
0
3DFACE
8
0
70
0
10
-44.122322
20
162.892303
30
5.340280
11
-44.151402
21
188.448120
31
-0.828165
12
5.630974
22
183.162292
32
-13.738769
13
4.757229
23
159.581665
33
-7.783569
0
3DFACE
8
0
70
0
10
-44.151402
20
188.448120
30
-0.828165
11
-38.965984
21
192.862030
31
3.143991
12
5.047090
22
187.210114
32
-9.759175
13
5.630974
23
183.162292
33
-13.738769
0
3DFACE
8
0
70
0
10
-60.064995
20
114.751152
30
50.248661
11
-65.512398
21
129.492996
31
42.374611
12
-41.068623
22
132.669388
32
11.628829
13
-37.786087
23
125.900681
33
25.963961
0
3DFACE
8
0
70
0
10
-37.786087
20
125.900681
30
25.963961
11
-41.068623
21
132.669388
31
11.628829
12
2.532336
22
129.529358
32
7.380679
13
1.317598
23
134.045502
33
4.671664
0
3DFACE
8
0
70
0
10
-52.865673
20
89.775185
30
72.844879
11
-60.064995
21
114.751152
31
50.248661
12
-37.786087
22
125.900681
32
25.963961
13
-32.246819
23
103.336723
33
55.917038
0
3DFACE
8
0
70
0
10
-34.165127
20
70.601509
30
112.720848
11
-52.865673
21
89.775185
31
72.844879
12
-32.246819
22
103.336723
32
55.917038
13
-29.326290
23
68.791466
33
96.941734
0
3DFACE
8
0
70
0
10
-29.326290
20
68.791466
30
96.941734
11
-32.246819
21
103.336723
31
55.917038
12
-6.665651
22
83.677956
32
70.071602
13
-10.407660
23
66.617096
33
95.576096
0
3DFACE
8
0
70
0
10
-14.157971
20
59.515736
30
121.137177
11
-29.326290
21
68.791466
31
96.941734
12
-10.407660
22
66.617096
32
95.576096
13
-10.407660
23
66.617096
33
95.576096
0
3DFACE
8
0
70
0
10
-14.157971
20
59.515736
30
121.137177
11
-34.165127
21
70.601509
31
112.720848
12
-29.326290
22
68.791466
32
96.941734
13
-29.326290
23
68.791466
33
96.941734
0
3DFACE
8
0
70
0
10
-15.663589
20
173.972778
30
105.905861
11
-12.481804
21
174.237503
31
109.712898
12
-12.049714
22
184.534988
32
106.767906
13
-15.314462
23
182.281204
33
103.526306
0
3DFACE
8
0
70
0
10
-26.565802
20
171.455536
30
100.224480
11
-26.910601
21
169.769638
31
102.808426
12
-12.481804
22
174.237503
32
109.712898
13
-15.663589
23
173.972778
33
105.905861
0
3DFACE
8
0
70
0
10
-27.275124
20
189.779327
30
98.663734
11
-15.314462
21
182.281204
31
103.526306
12
-12.049714
22
184.534988
32
106.767906
13
-27.352133
23
191.937836
33
101.029274
0
3DFACE
8
0
70
0
10
-26.565802
20
171.455536
30
100.224480
11
-35.073483
21
171.535965
31
93.575432
12
-38.164787
22
169.986572
32
94.467766
13
-26.910601
23
169.769638
33
102.808426
0
3DFACE
8
0
70
0
10
-35.073483
20
171.535965
30
93.575432
11
-38.221931
21
180.521317
31
88.389587
12
-42.328487
22
182.362701
32
87.787415
13
-38.164787
23
169.986572
33
94.467766
0
3DFACE
8
0
70
0
10
-27.275124
20
189.779327
30
98.663734
11
-27.352133
21
191.937836
31
101.029274
12
-42.328487
22
182.362701
32
87.787415
13
-38.221931
23
180.521317
33
88.389587
0
3DFACE
8
0
70
0
10
5.540233
20
189.104935
30
103.390579
11
4.648687
21
191.190475
31
105.862755
12
-12.049714
22
184.534988
32
106.767906
13
-7.552311
23
182.419373
33
104.830299
0
3DFACE
8
0
70
0
10
4.051378
20
170.791641
30
104.172951
11
-7.940243
21
173.782959
31
107.474342
12
-12.481804
22
174.237503
32
109.712898
13
3.322223
23
169.769638
33
107.244171
0
3DFACE
8
0
70
0
10
-7.940243
20
173.782959
30
107.474342
11
-7.552311
21
182.419373
31
104.830299
12
-12.049714
22
184.534988
32
106.767906
13
-12.481804
23
174.237503
33
109.712898
0
3DFACE
8
0
70
0
10
5.540233
20
189.104935
30
103.390579
11
19.319197
21
180.246170
31
94.235039
12
23.295820
22
182.362701
32
97.415771
13
4.648687
23
191.190475
33
105.862755
0
3DFACE
8
0
70
0
10
14.771472
20
170.744919
30
99.105141
11
17.388638
21
169.986572
31
102.618546
12
23.295820
22
182.362701
32
97.415771
13
19.319197
23
180.246170
33
94.235039
0
3DFACE
8
0
70
0
10
4.051378
20
170.791641
30
104.172951
11
3.322223
21
169.769638
31
107.244171
12
17.388638
22
169.986572
32
102.618546
13
14.771472
23
170.744919
33
99.105141
0
3DFACE
8
0
70
0
10
1.317598
20
134.045502
30
4.671664
11
39.804714
21
124.979118
31
29.579605
12
66.324944
22
121.919395
32
-9.438883
13
2.624255
23
137.066528
33
-7.856804
0
3DFACE
8
0
70
0
10
2.624255
20
137.066528
30
-7.856804
11
-62.652298
21
123.783775
31
-6.778818
12
-37.786087
22
125.900681
32
25.963961
13
1.317598
23
134.045502
33
4.671664
0
3DFACE
8
0
70
0
10
-62.652298
20
123.783775
30
-6.778818
11
-52.680611
21
101.383492
31
48.432747
12
-37.786087
22
125.900681
32
25.963961
13
-37.786087
23
125.900681
33
25.963961
0
3DFACE
8
0
70
0
10
-52.680611
20
101.383492
30
48.432747
11
-32.246819
21
103.336723
31
55.917038
12
-37.786087
22
125.900681
32
25.963961
13
-37.786087
23
125.900681
33
25.963961
0
3DFACE
8
0
70
0
10
60.329586
20
98.504288
30
46.683144
11
39.804714
21
124.979118
31
29.579605
12
31.572575
22
102.286903
32
60.035847
13
31.572575
23
102.286903
33
60.035847
0
3DFACE
8
0
70
0
10
66.324944
20
121.919395
30
-9.438883
11
39.804714
21
124.979118
31
29.579605
12
60.329586
22
98.504288
32
46.683144
13
60.329586
23
98.504288
33
46.683144
0
3DFACE
8
0
70
0
10
5.498427
20
98.779953
30
52.219624
11
-32.246819
21
103.336723
31
55.917038
12
-52.680611
22
101.383492
32
48.432747
13
-52.680611
23
101.383492
33
48.432747
0
3DFACE
8
0
70
0
10
-6.665651
20
83.677956
30
70.071602
11
-32.246819
21
103.336723
31
55.917038
12
5.498427
22
98.779953
32
52.219624
13
5.498427
23
98.779953
33
52.219624
0
3DFACE
8
0
70
0
10
-6.665651
20
83.677956
30
70.071602
11
5.498427
21
98.779953
31
52.219624
12
31.572575
22
102.286903
32
60.035847
13
31.572575
23
102.286903
33
60.035847
0
3DFACE
8
0
70
0
10
5.498427
20
98.779953
30
52.219624
11
60.329586
21
98.504288
31
46.683144
12
31.572575
22
102.286903
32
60.035847
13
31.572575
23
102.286903
33
60.035847
0
3DFACE
8
0
70
0
10
5.047090
20
187.210114
30
-9.759175
11
-1.406447
21
240.883438
31
10.556944
12
14.491057
22
241.304718
32
19.342241
13
43.498680
23
192.862030
33
15.243169
0
3DFACE
8
0
70
0
10
43.498680
20
192.862030
30
15.243169
11
14.491057
21
241.304718
31
19.342241
12
25.358126
22
244.091080
32
30.357849
13
60.476803
23
200.058975
33
38.814056
0
3DFACE
8
0
70
0
10
60.476803
20
200.058975
30
38.814056
11
25.358126
21
244.091080
31
30.357849
12
23.324364
22
249.173843
32
39.535004
13
50.680264
23
204.832047
33
60.999203
0
3DFACE
8
0
70
0
10
50.680264
20
204.832047
30
60.999203
11
23.324364
21
249.173843
31
39.535004
12
21.157516
22
255.414825
32
50.968357
13
37.424229
23
213.095963
33
87.061760
0
3DFACE
8
0
70
0
10
-11.185547
20
216.420883
30
100.877983
11
10.130666
21
215.570160
31
96.306252
12
9.686199
22
260.213593
32
54.862141
13
0.380359
23
263.457397
33
56.719208
0
3DFACE
8
0
70
0
10
5.047090
20
187.210114
30
-9.759175
11
-38.965984
21
192.862030
31
3.143991
12
-16.816605
22
246.619232
32
14.362453
13
-1.406447
23
240.883438
33
10.556944
0
3DFACE
8
0
70
0
10
-38.965984
20
192.862030
30
3.143991
11
-61.999409
21
200.059006
31
20.844402
12
-26.960249
22
252.972183
32
22.036102
13
-16.816605
23
246.619232
33
14.362453
0
3DFACE
8
0
70
0
10
-61.999409
20
200.059006
30
20.844402
11
-58.988556
21
204.832047
31
44.908642
12
-24.186453
22
257.238861
32
31.977947
13
-26.960249
23
252.972183
33
22.036102
0
3DFACE
8
0
70
0
10
-58.988556
20
204.832047
30
44.908642
11
-53.777824
21
213.095963
31
73.680634
12
-21.102169
22
262.588470
32
44.246544
13
-24.186453
23
257.238861
33
31.977947
0
3DFACE
8
0
70
0
10
-11.185547
20
216.420883
30
100.877983
11
0.380359
21
263.457397
31
56.719208
12
-9.185429
22
263.417053
32
51.860424
13
-30.290115
23
215.570160
33
90.375732
0
3DFACE
8
0
70
0
10
37.424229
20
213.095963
30
87.061760
11
21.157516
21
255.414825
31
50.968357
12
9.686199
22
260.213593
32
54.862141
13
10.130666
23
215.570160
33
96.306252
0
3DFACE
8
0
70
0
10
-53.777824
20
213.095963
30
73.680634
11
-30.290115
21
215.570160
31
90.375732
12
-9.185429
22
263.417053
32
51.860424
13
-21.102169
23
262.588470
33
44.246544
0
3DFACE
8
0
70
0
10
25.356659
20
291.545715
30
-1.192120
11
39.061157
21
285.054382
31
-8.694284
12
29.213478
22
293.555847
32
-17.194954
13
29.213478
23
293.555847
33
-17.194954
0
3DFACE
8
0
70
0
10
33.570930
20
278.618500
30
3.843548
11
39.061157
21
285.054382
31
-8.694284
12
25.356659
22
291.545715
32
-1.192120
13
25.356659
23
291.545715
33
-1.192120
0
3DFACE
8
0
70
0
10
18.232992
20
280.684082
30
7.880763
11
33.570930
21
278.618500
31
3.843548
12
25.356659
22
291.545715
32
-1.192120
13
25.356659
23
291.545715
33
-1.192120
0
3DFACE
8
0
70
0
10
18.232992
20
280.684082
30
7.880763
11
25.356659
21
291.545715
31
-1.192120
12
8.385318
22
289.185547
32
-0.619851
13
8.385318
23
289.185547
33
-0.619851
0
3DFACE
8
0
70
0
10
8.385318
20
289.185547
30
-0.619851
11
25.356659
21
291.545715
31
-1.192120
12
13.875548
22
295.621399
32
-13.157684
13
13.875548
23
295.621399
33
-13.157684
0
3DFACE
8
0
70
0
10
25.356659
20
291.545715
30
-1.192120
11
29.213478
21
293.555847
31
-17.194954
12
13.875548
22
295.621399
32
-13.157684
13
13.875548
23
295.621399
33
-13.157684
0
3DFACE
8
0
70
0
10
39.061157
20
285.054382
30
-8.694284
11
41.470882
21
273.514130
31
-18.731743
12
27.544153
22
285.536987
32
-30.753437
13
29.213478
23
293.555847
33
-17.194954
0
3DFACE
8
0
70
0
10
33.706490
20
264.412415
30
-1.000500
11
41.470882
21
273.514130
31
-18.731743
12
39.061157
22
285.054382
32
-8.694284
13
33.570930
23
278.618500
33
3.843548
0
3DFACE
8
0
70
0
10
12.015408
20
267.333588
30
4.708971
11
33.706490
21
264.412415
31
-1.000500
12
33.570930
22
278.618500
32
3.843548
13
18.232992
23
280.684082
33
7.880763
0
3DFACE
8
0
70
0
10
12.015408
20
267.333588
30
4.708971
11
18.232992
21
280.684082
31
7.880763
12
8.385318
22
289.185547
32
-0.619851
13
-1.911333
23
279.356445
33
-7.312696
0
3DFACE
8
0
70
0
10
-1.911333
20
279.356445
30
-7.312696
11
8.385318
21
289.185547
31
-0.619851
12
13.875548
22
295.621399
32
-13.157684
13
5.853056
23
288.458160
33
-25.043938
0
3DFACE
8
0
70
0
10
13.875548
20
295.621399
30
-13.157684
11
29.213478
21
293.555847
31
-17.194954
12
27.544153
22
285.536987
32
-30.753437
13
5.853056
23
288.458160
33
-25.043938
0
3DFACE
8
0
70
0
10
31.174238
20
263.684967
30
-25.424534
11
21.326559
21
272.186432
31
-33.925205
12
27.544153
22
285.536987
32
-30.753437
13
41.470882
23
273.514130
33
-18.731743
0
3DFACE
8
0
70
0
10
33.706490
20
264.412415
30
-1.000500
11
25.684008
21
257.249115
31
-12.886700
12
31.174238
22
263.684967
32
-25.424534
13
41.470882
23
273.514130
33
-18.731743
0
3DFACE
8
0
70
0
10
12.015408
20
267.333588
30
4.708971
11
10.346073
21
259.314697
31
-8.849484
12
25.684008
22
257.249115
32
-12.886700
13
33.706490
23
264.412415
33
-1.000500
0
3DFACE
8
0
70
0
10
12.015408
20
267.333588
30
4.708971
11
-1.911333
21
279.356445
31
-7.312696
12
0.498398
22
267.816162
32
-17.350098
13
10.346073
23
259.314697
33
-8.849484
0
3DFACE
8
0
70
0
10
-1.911333
20
279.356445
30
-7.312696
11
5.853056
21
288.458160
31
-25.043938
12
5.988630
22
274.252014
32
-29.887932
13
0.498398
23
267.816162
33
-17.350098
0
3DFACE
8
0
70
0
10
5.988630
20
274.252014
30
-29.887932
11
5.853056
21
288.458160
31
-25.043938
12
27.544153
22
285.536987
32
-30.753437
13
21.326559
23
272.186432
33
-33.925205
0
3DFACE
8
0
70
0
10
14.202859
20
261.324829
30
-24.852274
11
21.326559
21
272.186432
31
-33.925205
12
31.174238
22
263.684967
32
-25.424534
13
31.174238
23
263.684967
33
-25.424534
0
3DFACE
8
0
70
0
10
25.684008
20
257.249115
30
-12.886700
11
14.202859
21
261.324829
31
-24.852274
12
31.174238
22
263.684967
32
-25.424534
13
31.174238
23
263.684967
33
-25.424534
0
3DFACE
8
0
70
0
10
10.346073
20
259.314697
30
-8.849484
11
14.202859
21
261.324829
31
-24.852274
12
25.684008
22
257.249115
32
-12.886700
13
25.684008
23
257.249115
33
-12.886700
0
3DFACE
8
0
70
0
10
10.346073
20
259.314697
30
-8.849484
11
0.498398
21
267.816162
31
-17.350098
12
14.202859
22
261.324829
32
-24.852274
13
14.202859
23
261.324829
33
-24.852274
0
3DFACE
8
0
70
0
10
0.498398
20
267.816162
30
-17.350098
11
5.988630
21
274.252014
31
-29.887932
12
14.202859
22
261.324829
32
-24.852274
13
14.202859
23
261.324829
33
-24.852274
0
3DFACE
8
0
70
0
10
14.202859
20
261.324829
30
-24.852274
11
5.988630
21
274.252014
31
-29.887932
12
21.326559
22
272.186432
32
-33.925205
13
21.326559
23
272.186432
33
-33.925205
0
3DFACE
8
0
70
0
10
15.090367
20
142.998581
30
107.339325
11
42.031094
21
146.393005
31
88.811806
12
26.760538
22
158.114960
32
109.550766
13
26.760538
23
158.114960
33
109.550766
0
3DFACE
8
0
70
0
10
42.031094
20
146.393005
30
88.811806
11
39.051647
21
155.293167
31
87.316139
12
26.760538
22
158.114960
32
109.550766
13
26.760538
23
158.114960
33
109.550766
0
3DFACE
8
0
70
0
10
-0.785850
20
141.482803
30
111.534142
11
15.090367
21
142.998581
31
107.339325
12
11.371888
22
158.724411
32
110.389580
13
11.371888
23
158.724411
33
110.389580
0
3DFACE
8
0
70
0
10
15.090367
20
142.998581
30
107.339325
11
26.760538
21
158.114960
31
109.550766
12
11.371888
22
158.724411
32
110.389580
13
11.371888
23
158.724411
33
110.389580
0
3DFACE
8
0
70
0
10
26.760538
20
158.114960
30
109.550766
11
39.051647
21
155.293167
31
87.316139
12
17.388638
22
169.986572
32
102.618546
13
17.388638
23
169.986572
33
102.618546
0
3DFACE
8
0
70
0
10
39.051647
20
155.293167
30
87.316139
11
36.857758
21
167.440399
31
84.905701
12
17.388638
22
169.986572
32
102.618546
13
17.388638
23
169.986572
33
102.618546
0
3DFACE
8
0
70
0
10
11.371888
20
158.724411
30
110.389580
11
17.388638
21
169.986572
31
102.618546
12
3.322223
22
169.769638
32
107.244171
13
3.322223
23
169.769638
33
107.244171
0
3DFACE
8
0
70
0
10
26.760538
20
158.114960
30
109.550766
11
17.388638
21
169.986572
31
102.618546
12
11.371888
22
158.724411
32
110.389580
13
11.371888
23
158.724411
33
110.389580
0
3DFACE
8
0
70
0
10
17.388638
20
169.986572
30
102.618546
11
36.857758
21
167.440399
31
84.905701
12
23.295820
22
182.362701
32
97.415771
13
23.295820
23
182.362701
33
97.415771
0
3DFACE
8
0
70
0
10
36.857758
20
167.440399
30
84.905701
11
39.157009
21
175.816498
31
83.262848
12
23.295820
22
182.362701
32
97.415771
13
23.295820
23
182.362701
33
97.415771
0
3DFACE
8
0
70
0
10
-58.693245
20
146.393036
30
74.033569
11
-50.023663
21
158.114960
31
98.285019
12
-55.409729
22
155.293167
32
73.456802
13
-55.409729
23
155.293167
33
73.456802
0
3DFACE
8
0
70
0
10
-38.210098
20
142.998581
30
99.519104
11
-50.023663
21
158.114960
31
98.285019
12
-58.693245
22
146.393036
32
74.033569
13
-58.693245
23
146.393036
33
74.033569
0
3DFACE
8
0
70
0
10
-38.210098
20
142.998581
30
99.519104
11
-35.524536
21
158.724411
31
103.508965
12
-50.023663
22
158.114960
32
98.285019
13
-50.023663
23
158.114960
33
98.285019
0
3DFACE
8
0
70
0
10
-24.207981
20
141.482803
30
108.097664
11
-35.524536
21
158.724411
31
103.508965
12
-38.210098
22
142.998581
32
99.519104
13
-38.210098
23
142.998581
33
99.519104
0
3DFACE
8
0
70
0
10
-55.409729
20
155.293167
30
73.456802
11
-38.164787
21
169.986572
31
94.467766
12
-52.615894
22
167.440399
32
71.778168
13
-52.615894
23
167.440399
33
71.778168
0
3DFACE
8
0
70
0
10
-50.023663
20
158.114960
30
98.285019
11
-38.164787
21
169.986572
31
94.467766
12
-55.409729
22
155.293167
32
73.456802
13
-55.409729
23
155.293167
33
73.456802
0
3DFACE
8
0
70
0
10
-35.524536
20
158.724411
30
103.508965
11
-26.910601
21
169.769638
31
102.808426
12
-38.164787
22
169.986572
32
94.467766
13
-38.164787
23
169.986572
33
94.467766
0
3DFACE
8
0
70
0
10
-50.023663
20
158.114960
30
98.285019
11
-35.524536
21
158.724411
31
103.508965
12
-38.164787
22
169.986572
32
94.467766
13
-38.164787
23
169.986572
33
94.467766
0
3DFACE
8
0
70
0
10
-52.615894
20
167.440399
30
71.778168
11
-42.328487
21
182.362701
31
87.787415
12
-54.346317
22
175.816498
32
69.544083
13
-54.346317
23
175.816498
33
69.544083
0
3DFACE
8
0
70
0
10
-38.164787
20
169.986572
30
94.467766
11
-42.328487
21
182.362701
31
87.787415
12
-52.615894
22
167.440399
32
71.778168
13
-52.615894
23
167.440399
33
71.778168
0
3DFACE
8
0
70
0
10
72.236061
20
-76.715454
30
72.282623
11
53.924324
21
-71.162865
31
58.789394
12
44.248806
22
-94.729050
32
39.307549
13
44.248806
23
-94.729050
33
39.307549
0
3DFACE
8
0
70
0
10
72.236061
20
-76.715454
30
72.282623
11
44.248806
21
-94.729050
31
39.307549
12
61.713028
22
-96.870064
32
54.718544
13
61.713028
23
-96.870064
33
54.718544
0
3DFACE
8
0
70
0
10
72.236061
20
-76.715454
30
72.282623
11
70.358597
21
-50.394402
31
20.485811
12
53.924324
22
-71.162865
32
58.789394
13
53.924324
23
-71.162865
33
58.789394
0
3DFACE
8
0
70
0
10
72.236061
20
-76.715454
30
72.282623
11
86.052711
21
-59.105743
31
38.900066
12
70.358597
22
-50.394402
32
20.485811
13
70.358597
23
-50.394402
33
20.485811
0
3DFACE
8
0
70
0
10
86.052711
20
-59.105743
30
38.900066
11
71.100876
21
-55.323112
31
-2.991827
12
70.358597
22
-50.394402
32
20.485811
13
70.358597
23
-50.394402
33
20.485811
0
3DFACE
8
0
70
0
10
86.052711
20
-59.105743
30
38.900066
11
85.708557
21
-62.996326
31
17.723291
12
71.100876
22
-55.323112
32
-2.991827
13
71.100876
23
-55.323112
33
-2.991827
0
3DFACE
8
0
70
0
10
58.059185
20
-107.556061
30
25.107676
11
44.248806
21
-94.729050
31
39.307549
12
41.322468
22
-108.794373
32
7.697409
13
41.322468
23
-108.794373
33
7.697409
0
3DFACE
8
0
70
0
10
61.713028
20
-96.870064
30
54.718544
11
44.248806
21
-94.729050
31
39.307549
12
58.059185
22
-107.556061
32
25.107676
13
58.059185
23
-107.556061
33
25.107676
0
3DFACE
8
0
70
0
10
76.837746
20
-79.152138
30
8.236354
11
62.167389
21
-74.854889
31
-12.723975
12
71.100876
22
-55.323112
32
-2.991827
13
71.100876
23
-55.323112
33
-2.991827
0
3DFACE
8
0
70
0
10
85.708557
20
-62.996326
30
17.723291
11
76.837746
21
-79.152138
31
8.236354
12
71.100876
22
-55.323112
32
-2.991827
13
71.100876
23
-55.323112
33
-2.991827
0
3DFACE
8
0
70
0
10
58.059185
20
-107.556061
30
25.107676
11
41.322468
21
-108.794373
31
7.697409
12
62.167389
22
-74.854889
32
-12.723975
13
62.167389
23
-74.854889
33
-12.723975
0
3DFACE
8
0
70
0
10
76.837746
20
-79.152138
30
8.236354
11
58.059185
21
-107.556061
31
25.107676
12
62.167389
22
-74.854889
32
-12.723975
13
62.167389
23
-74.854889
33
-12.723975
0
3DFACE
8
0
70
0
10
-63.488625
20
-78.633270
30
78.738518
11
-52.696430
21
-91.375961
31
59.547863
12
-38.437954
22
-88.866997
32
38.964920
13
-38.437954
23
-88.866997
33
38.964920
0
3DFACE
8
0
70
0
10
-63.488625
20
-78.633270
30
78.738518
11
-38.437954
21
-88.866997
31
38.964920
12
-45.544765
22
-65.454338
32
60.074287
13
-45.544765
23
-65.454338
33
60.074287
0
3DFACE
8
0
70
0
10
-63.488625
20
-78.633270
30
78.738518
11
-45.544765
21
-65.454338
31
60.074287
12
-68.108299
22
-48.676479
32
26.870556
13
-68.108299
23
-48.676479
33
26.870556
0
3DFACE
8
0
70
0
10
-63.488625
20
-78.633270
30
78.738518
11
-68.108299
21
-48.676479
31
26.870556
12
-82.368729
22
-63.706917
32
49.709354
13
-82.368729
23
-63.706917
33
49.709354
0
3DFACE
8
0
70
0
10
-82.368729
20
-63.706917
30
49.709354
11
-68.108299
21
-48.676479
31
26.870556
12
-72.323509
22
-54.921581
32
4.334660
13
-72.323509
23
-54.921581
33
4.334660
0
3DFACE
8
0
70
0
10
-82.368729
20
-63.706917
30
49.709354
11
-72.323509
21
-54.921581
31
4.334660
12
-83.734955
22
-64.782379
32
29.288855
13
-83.734955
23
-64.782379
33
29.288855
0
3DFACE
8
0
70
0
10
-50.911125
20
-96.552277
30
30.296017
11
-40.068092
21
-104.229454
31
7.703820
12
-38.437954
22
-88.866997
32
38.964920
13
-38.437954
23
-88.866997
33
38.964920
0
3DFACE
8
0
70
0
10
-52.696430
20
-91.375961
30
59.547863
11
-50.911125
21
-96.552277
31
30.296017
12
-38.437954
22
-88.866997
32
38.964920
13
-38.437954
23
-88.866997
33
38.964920
0
3DFACE
8
0
70
0
10
-83.734955
20
-64.782379
30
29.288855
11
-72.323509
21
-54.921581
31
4.334660
12
-74.193352
22
-75.354271
32
18.221727
13
-74.193352
23
-75.354271
33
18.221727
0
3DFACE
8
0
70
0
10
-74.193352
20
-75.354271
30
18.221727
11
-72.323509
21
-54.921581
31
4.334660
12
-64.548462
22
-73.880318
32
-7.170245
13
-64.548462
23
-73.880318
33
-7.170245
0
3DFACE
8
0
70
0
10
-74.193352
20
-75.354271
30
18.221727
11
-64.548462
21
-73.880318
31
-7.170245
12
-50.911125
22
-96.552277
32
30.296017
13
-50.911125
23
-96.552277
33
30.296017
0
3DFACE
8
0
70
0
10
-50.911125
20
-96.552277
30
30.296017
11
-64.548462
21
-73.880318
31
-7.170245
12
-40.068092
22
-104.229454
32
7.703820
13
-40.068092
23
-104.229454
33
7.703820
0
3DFACE
8
0
70
0
10
75.565094
20
-103.798805
30
53.544132
11
72.236061
21
-76.715454
31
72.282623
12
61.713028
22
-96.870064
32
54.718544
13
61.713028
23
-96.870064
33
54.718544
0
3DFACE
8
0
70
0
10
74.107407
20
-140.049469
30
30.619148
11
75.565094
21
-103.798805
31
53.544132
12
61.713028
22
-96.870064
32
54.718544
13
61.713028
23
-96.870064
33
54.718544
0
3DFACE
8
0
70
0
10
94.916092
20
-95.286102
30
24.936502
11
86.052711
21
-59.105743
31
38.900066
12
75.565094
22
-103.798805
32
53.544132
13
75.565094
23
-103.798805
33
53.544132
0
3DFACE
8
0
70
0
10
75.565094
20
-103.798805
30
53.544132
11
86.052711
21
-59.105743
31
38.900066
12
72.236061
22
-76.715454
32
72.282623
13
72.236061
23
-76.715454
33
72.282623
0
3DFACE
8
0
70
0
10
103.036179
20
-115.219513
30
3.017903
11
85.708557
21
-62.996326
31
17.723291
12
94.916092
22
-95.286102
32
24.936502
13
94.916092
23
-95.286102
33
24.936502
0
3DFACE
8
0
70
0
10
94.916092
20
-95.286102
30
24.936502
11
85.708557
21
-62.996326
31
17.723291
12
86.052711
22
-59.105743
32
38.900066
13
86.052711
23
-59.105743
33
38.900066
0
3DFACE
8
0
70
0
10
74.107407
20
-140.049469
30
30.619148
11
61.713028
21
-96.870064
31
54.718544
12
58.059185
22
-107.556061
32
25.107676
13
58.059185
23
-107.556061
33
25.107676
0
3DFACE
8
0
70
0
10
67.251045
20
-183.080719
30
11.285540
11
74.107407
21
-140.049469
31
30.619148
12
58.059185
22
-107.556061
32
25.107676
13
58.059185
23
-107.556061
33
25.107676
0
3DFACE
8
0
70
0
10
110.004517
20
-144.791565
30
-27.582670
11
76.837746
21
-79.152138
31
8.236354
12
103.036179
22
-115.219513
32
3.017903
13
103.036179
23
-115.219513
33
3.017903
0
3DFACE
8
0
70
0
10
103.036179
20
-115.219513
30
3.017903
11
76.837746
21
-79.152138
31
8.236354
12
85.708557
22
-62.996326
32
17.723291
13
85.708557
23
-62.996326
33
17.723291
0
3DFACE
8
0
70
0
10
67.251045
20
-183.080719
30
11.285540
11
58.059185
21
-107.556061
31
25.107676
12
110.004517
22
-144.791565
32
-27.582670
13
110.004517
23
-144.791565
33
-27.582670
0
3DFACE
8
0
70
0
10
110.004517
20
-144.791565
30
-27.582670
11
58.059185
21
-107.556061
31
25.107676
12
76.837746
22
-79.152138
32
8.236354
13
76.837746
23
-79.152138
33
8.236354
0
3DFACE
8
0
70
0
10
-53.639591
20
-134.590942
30
22.685841
11
-52.696430
21
-91.375961
31
59.547863
12
-62.398857
22
-106.361198
32
52.952263
13
-62.398857
23
-106.361198
33
52.952263
0
3DFACE
8
0
70
0
10
-62.398857
20
-106.361198
30
52.952263
11
-52.696430
21
-91.375961
31
59.547863
12
-63.488625
22
-78.633270
32
78.738518
13
-63.488625
23
-78.633270
33
78.738518
0
3DFACE
8
0
70
0
10
-62.398857
20
-106.361198
30
52.952263
11
-63.488625
21
-78.633270
31
78.738518
12
-82.368729
22
-63.706917
32
49.709354
13
-82.368729
23
-63.706917
33
49.709354
0
3DFACE
8
0
70
0
10
-84.269089
20
-99.640610
30
26.358700
11
-62.398857
21
-106.361198
31
52.952263
12
-82.368729
22
-63.706917
32
49.709354
13
-82.368729
23
-63.706917
33
49.709354
0
3DFACE
8
0
70
0
10
-84.269089
20
-99.640610
30
26.358700
11
-82.368729
21
-63.706917
31
49.709354
12
-83.734955
22
-64.782379
32
29.288855
13
-83.734955
23
-64.782379
33
29.288855
0
3DFACE
8
0
70
0
10
-88.490379
20
-117.067436
30
0.131894
11
-84.269089
21
-99.640610
31
26.358700
12
-83.734955
22
-64.782379
32
29.288855
13
-83.734955
23
-64.782379
33
29.288855
0
3DFACE
8
0
70
0
10
-37.949604
20
-167.748383
30
-5.361667
11
-50.911125
21
-96.552277
31
30.296017
12
-53.639591
22
-134.590942
32
22.685841
13
-53.639591
23
-134.590942
33
22.685841
0
3DFACE
8
0
70
0
10
-53.639591
20
-134.590942
30
22.685841
11
-50.911125
21
-96.552277
31
30.296017
12
-52.696430
22
-91.375961
32
59.547863
13
-52.696430
23
-91.375961
33
59.547863
0
3DFACE
8
0
70
0
10
-88.490379
20
-117.067436
30
0.131894
11
-83.734955
21
-64.782379
31
29.288855
12
-74.193352
22
-75.354271
32
18.221727
13
-74.193352
23
-75.354271
33
18.221727
0
3DFACE
8
0
70
0
10
-89.741806
20
-140.845062
30
-36.498016
11
-88.490379
21
-117.067436
31
0.131894
12
-74.193352
22
-75.354271
32
18.221727
13
-74.193352
23
-75.354271
33
18.221727
0
3DFACE
8
0
70
0
10
-89.741806
20
-140.845062
30
-36.498016
11
-74.193352
21
-75.354271
31
18.221727
12
-50.911125
22
-96.552277
32
30.296017
13
-50.911125
23
-96.552277
33
30.296017
0
3DFACE
8
0
70
0
10
-37.949604
20
-167.748383
30
-5.361667
11
-89.741806
21
-140.845062
31
-36.498016
12
-50.911125
22
-96.552277
32
30.296017
13
-50.911125
23
-96.552277
33
30.296017
0
3DFACE
8
0
70
0
10
81.748604
20
13.419351
30
98.215340
11
3.960363
21
32.034954
31
117.704330
12
2.945011
22
21.486544
32
134.278687
13
2.945011
23
21.486544
33
134.278687
0
3DFACE
8
0
70
0
10
81.748604
20
13.419351
30
98.215340
11
105.803528
21
37.984043
31
82.684349
12
3.960363
22
32.034954
32
117.704330
13
3.960363
23
32.034954
33
117.704330
0
3DFACE
8
0
70
0
10
78.250000
20
-20.659754
30
-81.191345
11
-1.926121
21
-25.025995
31
-114.720589
12
-1.222303
22
7.613407
32
-109.988258
13
-1.222303
23
7.613407
33
-109.988258
0
3DFACE
8
0
70
0
10
78.250000
20
-20.659754
30
-81.191345
11
-1.222303
21
7.613407
31
-109.988258
12
101.791870
22
10.307921
32
-76.450317
13
101.791870
23
10.307921
33
-76.450317
0
3DFACE
8
0
70
0
10
81.748604
20
13.419351
30
98.215340
11
128.193298
21
21.841295
31
-6.239306
12
105.803528
22
37.984043
32
82.684349
13
105.803528
23
37.984043
33
82.684349
0
3DFACE
8
0
70
0
10
81.748604
20
13.419351
30
98.215340
11
99.213387
21
-3.488534
31
10.674677
12
128.193298
22
21.841295
32
-6.239306
13
128.193298
23
21.841295
33
-6.239306
0
3DFACE
8
0
70
0
10
99.213387
20
-3.488534
30
10.674677
11
78.250000
21
-20.659754
31
-81.191345
12
101.791870
22
10.307921
32
-76.450317
13
101.791870
23
10.307921
33
-76.450317
0
3DFACE
8
0
70
0
10
99.213387
20
-3.488534
30
10.674677
11
101.791870
21
10.307921
31
-76.450317
12
128.193298
22
21.841295
32
-6.239306
13
128.193298
23
21.841295
33
-6.239306
0
3DFACE
8
0
70
0
10
-77.225685
20
16.147038
30
100.386307
11
2.945011
21
21.486544
31
134.278687
12
3.960363
22
32.034954
32
117.704330
13
3.960363
23
32.034954
33
117.704330
0
3DFACE
8
0
70
0
10
-77.225685
20
16.147038
30
100.386307
11
3.960363
21
32.034954
31
117.704330
12
-98.459732
22
44.282555
32
86.580826
13
-98.459732
23
44.282555
33
86.580826
0
3DFACE
8
0
70
0
10
-80.724297
20
-17.932053
30
-79.020378
11
-1.222303
21
7.613407
31
-109.988258
12
-1.926121
22
-25.025995
32
-114.720589
13
-1.926121
23
-25.025995
33
-114.720589
0
3DFACE
8
0
70
0
10
-80.724297
20
-17.932053
30
-79.020378
11
-102.471390
21
16.606432
31
-72.553848
12
-1.222303
22
7.613407
32
-109.988258
13
-1.222303
23
7.613407
33
-109.988258
0
3DFACE
8
0
70
0
10
-77.225685
20
16.147038
30
100.386307
11
-125.309212
21
29.658110
31
-1.403559
12
-98.094498
22
-0.103117
32
13.369131
13
-98.094498
23
-0.103117
33
13.369131
0
3DFACE
8
0
70
0
10
-77.225685
20
16.147038
30
100.386307
11
-98.459732
21
44.282555
31
86.580826
12
-125.309212
22
29.658110
32
-1.403559
13
-125.309212
23
29.658110
33
-1.403559
0
3DFACE
8
0
70
0
10
-98.094498
20
-0.103117
30
13.369131
11
-125.309212
21
29.658110
31
-1.403559
12
-102.471390
22
16.606432
32
-72.553848
13
-102.471390
23
16.606432
33
-72.553848
0
3DFACE
8
0
70
0
10
-98.094498
20
-0.103117
30
13.369131
11
-102.471390
21
16.606432
31
-72.553848
12
-80.724297
22
-17.932053
32
-79.020378
13
-80.724297
23
-17.932053
33
-79.020378
0
3DFACE
8
0
70
0
10
3.960363
20
32.034954
30
117.704330
11
60.329586
21
98.504288
31
46.683144
12
5.498427
22
98.779953
32
52.219624
13
5.498427
23
98.779953
33
52.219624
0
3DFACE
8
0
70
0
10
3.960363
20
32.034954
30
117.704330
11
105.803528
21
37.984043
31
82.684349
12
60.329586
22
98.504288
32
46.683144
13
60.329586
23
98.504288
33
46.683144
0
3DFACE
8
0
70
0
10
101.791870
20
10.307921
30
-76.450317
11
-1.222303
21
7.613407
31
-109.988258
12
58.705681
22
106.336426
32
-52.069157
13
58.705681
23
106.336426
33
-52.069157
0
3DFACE
8
0
70
0
10
-1.222303
20
7.613407
30
-109.988258
11
1.076460
21
113.921783
31
-58.300877
12
58.705681
22
106.336426
32
-52.069157
13
58.705681
23
106.336426
33
-52.069157
0
3DFACE
8
0
70
0
10
105.803528
20
37.984043
30
82.684349
11
100.274910
21
70.415001
31
-7.031497
12
76.967079
22
97.391045
32
33.235188
13
76.967079
23
97.391045
33
33.235188
0
3DFACE
8
0
70
0
10
105.803528
20
37.984043
30
82.684349
11
128.193298
21
21.841295
31
-6.239306
12
100.274910
22
70.415001
32
-7.031497
13
100.274910
23
70.415001
33
-7.031497
0
3DFACE
8
0
70
0
10
101.791870
20
10.307921
30
-76.450317
11
86.017082
21
96.322266
31
-42.082470
12
100.274910
22
70.415001
32
-7.031497
13
100.274910
23
70.415001
33
-7.031497
0
3DFACE
8
0
70
0
10
128.193298
20
21.841295
30
-6.239306
11
101.791870
21
10.307921
31
-76.450317
12
100.274910
22
70.415001
32
-7.031497
13
100.274910
23
70.415001
33
-7.031497
0
3DFACE
8
0
70
0
10
105.803528
20
37.984043
30
82.684349
11
76.967079
21
97.391045
31
33.235188
12
60.329586
22
98.504288
32
46.683144
13
60.329586
23
98.504288
33
46.683144
0
3DFACE
8
0
70
0
10
101.791870
20
10.307921
30
-76.450317
11
58.705681
21
106.336426
31
-52.069157
12
86.017082
22
96.322266
32
-42.082470
13
86.017082
23
96.322266
33
-42.082470
0
3DFACE
8
0
70
0
10
3.960363
20
32.034954
30
117.704330
11
-52.680611
21
101.383492
31
48.432747
12
-98.459732
22
44.282555
32
86.580826
13
-98.459732
23
44.282555
33
86.580826
0
3DFACE
8
0
70
0
10
3.960363
20
32.034954
30
117.704330
11
5.498427
21
98.779953
31
52.219624
12
-52.680611
22
101.383492
32
48.432747
13
-52.680611
23
101.383492
33
48.432747
0
3DFACE
8
0
70
0
10
-102.471390
20
16.606432
30
-72.553848
11
-54.586933
21
108.980080
31
-50.461426
12
-1.222303
22
7.613407
32
-109.988258
13
-1.222303
23
7.613407
33
-109.988258
0
3DFACE
8
0
70
0
10
-1.222303
20
7.613407
30
-109.988258
11
-54.586933
21
108.980080
31
-50.461426
12
1.076460
22
113.921783
32
-58.300877
13
1.076460
23
113.921783
33
-58.300877
0
3DFACE
8
0
70
0
10
-98.459732
20
44.282555
30
86.580826
11
-73.998741
21
99.069557
31
35.228165
12
-96.100563
22
73.427673
32
-6.669485
13
-96.100563
23
73.427673
33
-6.669485
0
3DFACE
8
0
70
0
10
-98.459732
20
44.282555
30
86.580826
11
-96.100563
21
73.427673
31
-6.669485
12
-125.309212
22
29.658110
32
-1.403559
13
-125.309212
23
29.658110
33
-1.403559
0
3DFACE
8
0
70
0
10
-125.309212
20
29.658110
30
-1.403559
11
-96.100563
21
73.427673
31
-6.669485
12
-102.471390
22
16.606432
32
-72.553848
13
-102.471390
23
16.606432
33
-72.553848
0
3DFACE
8
0
70
0
10
-102.471390
20
16.606432
30
-72.553848
11
-96.100563
21
73.427673
31
-6.669485
12
-82.265503
22
99.100510
32
-40.718037
13
-82.265503
23
99.100510
33
-40.718037
0
3DFACE
8
0
70
0
10
-98.459732
20
44.282555
30
86.580826
11
-52.680611
21
101.383492
31
48.432747
12
-73.998741
22
99.069557
32
35.228165
13
-73.998741
23
99.069557
33
35.228165
0
3DFACE
8
0
70
0
10
-102.471390
20
16.606432
30
-72.553848
11
-82.265503
21
99.100510
31
-40.718037
12
-54.586933
22
108.980080
32
-50.461426
13
-54.586933
23
108.980080
33
-50.461426
0
3DFACE
8
0
70
0
10
100.274910
20
70.415001
30
-7.031497
11
118.993095
21
69.201508
31
50.706676
12
76.967079
22
97.391045
32
33.235188
13
76.967079
23
97.391045
33
33.235188
0
3DFACE
8
0
70
0
10
145.413910
20
42.960052
30
19.854519
11
118.993095
21
69.201508
31
50.706676
12
100.274910
22
70.415001
32
-7.031497
13
100.274910
23
70.415001
33
-7.031497
0
3DFACE
8
0
70
0
10
76.967079
20
97.391045
30
33.235188
11
167.945496
21
88.994240
31
39.623772
12
66.324944
22
121.919395
32
-9.438883
13
66.324944
23
121.919395
33
-9.438883
0
3DFACE
8
0
70
0
10
76.967079
20
97.391045
30
33.235188
11
118.993095
21
69.201508
31
50.706676
12
167.945496
22
88.994240
32
39.623772
13
167.945496
23
88.994240
33
39.623772
0
3DFACE
8
0
70
0
10
86.017082
20
96.322266
30
-42.082470
11
66.324944
21
121.919395
31
-9.438883
12
167.945496
22
88.994240
32
39.623772
13
167.945496
23
88.994240
33
39.623772
0
3DFACE
8
0
70
0
10
86.017082
20
96.322266
30
-42.082470
11
167.945496
21
88.994240
31
39.623772
12
186.448257
22
61.500549
32
11.877198
13
186.448257
23
61.500549
33
11.877198
0
3DFACE
8
0
70
0
10
100.274910
20
70.415001
30
-7.031497
11
86.017082
21
96.322266
31
-42.082470
12
186.448257
22
61.500549
32
11.877198
13
186.448257
23
61.500549
33
11.877198
0
3DFACE
8
0
70
0
10
145.413910
20
42.960052
30
19.854519
11
100.274910
21
70.415001
31
-7.031497
12
186.448257
22
61.500549
32
11.877198
13
186.448257
23
61.500549
33
11.877198
0
3DFACE
8
0
70
0
10
-96.100563
20
73.427673
30
-6.669485
11
-73.998741
21
99.069557
31
35.228165
12
-127.128181
22
67.101646
32
35.900494
13
-127.128181
23
67.101646
33
35.900494
0
3DFACE
8
0
70
0
10
-148.279907
20
39.754730
30
2.907595
11
-96.100563
21
73.427673
31
-6.669485
12
-127.128181
22
67.101646
32
35.900494
13
-127.128181
23
67.101646
33
35.900494
0
3DFACE
8
0
70
0
10
-73.998741
20
99.069557
30
35.228165
11
-62.652298
21
123.783775
31
-6.778818
12
-175.735962
22
84.191269
32
20.777008
13
-175.735962
23
84.191269
33
20.777008
0
3DFACE
8
0
70
0
10
-73.998741
20
99.069557
30
35.228165
11
-175.735962
21
84.191269
31
20.777008
12
-127.128181
22
67.101646
32
35.900494
13
-127.128181
23
67.101646
33
35.900494
0
3DFACE
8
0
70
0
10
-82.265503
20
99.100510
30
-40.718037
11
-175.735962
21
84.191269
31
20.777008
12
-62.652298
22
123.783775
32
-6.778818
13
-62.652298
23
123.783775
33
-6.778818
0
3DFACE
8
0
70
0
10
-82.265503
20
99.100510
30
-40.718037
11
-189.293701
21
56.010685
31
-8.458868
12
-175.735962
22
84.191269
32
20.777008
13
-175.735962
23
84.191269
33
20.777008
0
3DFACE
8
0
70
0
10
-96.100563
20
73.427673
30
-6.669485
11
-189.293701
21
56.010685
31
-8.458868
12
-82.265503
22
99.100510
32
-40.718037
13
-82.265503
23
99.100510
33
-40.718037
0
3DFACE
8
0
70
0
10
-148.279907
20
39.754730
30
2.907595
11
-189.293701
21
56.010685
31
-8.458868
12
-96.100563
22
73.427673
32
-6.669485
13
-96.100563
23
73.427673
33
-6.669485
0
3DFACE
8
0
70
0
10
-137.324707
20
26.026695
30
46.336246
11
-148.279907
21
39.754730
31
2.907595
12
-127.128181
22
67.101646
32
35.900494
13
-127.128181
23
67.101646
33
35.900494
0
3DFACE
8
0
70
0
10
-137.324707
20
26.026695
30
46.336246
11
-127.128181
21
67.101646
31
35.900494
12
-116.322357
22
67.342628
32
43.149467
13
-116.322357
23
67.342628
33
43.149467
0
3DFACE
8
0
70
0
10
-116.322357
20
67.342628
30
43.149467
11
-127.128181
21
67.101646
31
35.900494
12
-175.735962
22
84.191269
32
20.777008
13
-175.735962
23
84.191269
33
20.777008
0
3DFACE
8
0
70
0
10
-116.322357
20
67.342628
30
43.149467
11
-175.735962
21
84.191269
31
20.777008
12
-162.757080
22
69.998146
32
72.196327
13
-162.757080
23
69.998146
33
72.196327
0
3DFACE
8
0
70
0
10
-176.581833
20
30.770136
30
71.477959
11
-162.757080
21
69.998146
31
72.196327
12
-175.735962
22
84.191269
32
20.777008
13
-175.735962
23
84.191269
33
20.777008
0
3DFACE
8
0
70
0
10
-176.581833
20
30.770136
30
71.477959
11
-175.735962
21
84.191269
31
20.777008
12
-189.293701
22
56.010685
32
-8.458868
13
-189.293701
23
56.010685
33
-8.458868
0
3DFACE
8
0
70
0
10
-137.324707
20
26.026695
30
46.336246
11
-176.581833
21
30.770136
31
71.477959
12
-189.293701
22
56.010685
32
-8.458868
13
-189.293701
23
56.010685
33
-8.458868
0
3DFACE
8
0
70
0
10
-137.324707
20
26.026695
30
46.336246
11
-189.293701
21
56.010685
31
-8.458868
12
-148.279907
22
39.754730
32
2.907595
13
-148.279907
23
39.754730
33
2.907595
0
3DFACE
8
0
70
0
10
148.883743
20
23.043390
30
62.016823
11
118.993095
21
69.201508
31
50.706676
12
145.413910
22
42.960052
32
19.854519
13
145.413910
23
42.960052
33
19.854519
0
3DFACE
8
0
70
0
10
148.883743
20
23.043390
30
62.016823
11
121.016205
21
60.627087
31
67.590759
12
118.993095
22
69.201508
32
50.706676
13
118.993095
23
69.201508
33
50.706676
0
3DFACE
8
0
70
0
10
121.016205
20
60.627087
30
67.590759
11
167.945496
21
88.994240
31
39.623772
12
118.993095
22
69.201508
32
50.706676
13
118.993095
23
69.201508
33
50.706676
0
3DFACE
8
0
70
0
10
121.016205
20
60.627087
30
67.590759
11
170.891144
21
68.013428
31
88.919006
12
167.945496
22
88.994240
32
39.623772
13
167.945496
23
88.994240
33
39.623772
0
3DFACE
8
0
70
0
10
190.737320
20
31.692820
30
80.942688
11
186.448257
21
61.500549
31
11.877198
12
167.945496
22
88.994240
32
39.623772
13
167.945496
23
88.994240
33
39.623772
0
3DFACE
8
0
70
0
10
190.737320
20
31.692820
30
80.942688
11
167.945496
21
88.994240
31
39.623772
12
170.891144
22
68.013428
32
88.919006
13
170.891144
23
68.013428
33
88.919006
0
3DFACE
8
0
70
0
10
148.883743
20
23.043390
30
62.016823
11
145.413910
21
42.960052
31
19.854519
12
186.448257
22
61.500549
32
11.877198
13
186.448257
23
61.500549
33
11.877198
0
3DFACE
8
0
70
0
10
148.883743
20
23.043390
30
62.016823
11
186.448257
21
61.500549
31
11.877198
12
190.737320
22
31.692820
32
80.942688
13
190.737320
23
31.692820
33
80.942688
0
3DFACE
8
0
70
0
10
10.908522
20
270.527924
30
-9.013036
11
14.406301
21
267.050568
31
-9.658011
12
-1.406447
22
240.883438
32
10.556944
13
-16.816605
23
246.619232
33
14.362453
0
3DFACE
8
0
70
0
10
19.184080
20
267.055786
30
-7.546440
11
14.491057
21
241.304718
31
19.342241
12
-1.406447
22
240.883438
32
10.556944
13
14.406301
23
267.050568
33
-9.658011
0
3DFACE
8
0
70
0
10
22.910971
20
268.475372
30
-5.008505
11
25.358126
21
244.091080
31
30.357849
12
14.491057
22
241.304718
32
19.342241
13
19.184080
23
267.055786
33
-7.546440
0
3DFACE
8
0
70
0
10
23.247416
20
271.386078
30
-3.028235
11
23.324364
21
249.173843
31
39.535004
12
25.358126
22
244.091080
32
30.357849
13
22.910971
23
268.475372
33
-5.008505
0
3DFACE
8
0
70
0
10
23.758198
20
274.955170
30
-0.556678
11
21.157516
21
255.414825
31
50.968357
12
23.324364
22
249.173843
32
39.535004
13
23.247416
23
271.386078
33
-3.028235
0
3DFACE
8
0
70
0
10
21.252056
20
277.843567
30
0.155222
11
9.686199
21
260.213593
31
54.862141
12
21.157516
22
255.414825
32
50.968357
13
23.758198
23
274.955170
33
-0.556678
0
3DFACE
8
0
70
0
10
19.099258
20
279.818817
30
0.448368
11
0.380359
21
263.457397
31
56.719208
12
9.686199
22
260.213593
32
54.862141
13
21.252056
23
277.843567
33
0.155222
0
3DFACE
8
0
70
0
10
19.099258
20
279.818817
30
0.448368
11
16.263718
21
279.936523
31
-0.728813
12
-9.185429
22
263.417053
32
51.860424
13
0.380359
23
263.457397
33
56.719208
0
3DFACE
8
0
70
0
10
16.263718
20
279.936523
30
-0.728813
11
12.587690
21
279.641937
31
-2.536318
12
-21.102169
22
262.588470
32
44.246544
13
-9.185429
23
263.417053
33
51.860424
0
3DFACE
8
0
70
0
10
12.587690
20
279.641937
30
-2.536318
11
10.688878
21
276.655212
31
-5.253862
12
-24.186453
22
257.238861
32
31.977947
13
-21.102169
23
262.588470
33
44.246544
0
3DFACE
8
0
70
0
10
10.688878
20
276.655212
30
-5.253862
11
9.081647
21
274.277679
31
-7.459340
12
-26.960249
22
252.972183
32
22.036102
13
-24.186453
23
257.238861
33
31.977947
0
3DFACE
8
0
70
0
10
9.081647
20
274.277679
30
-7.459340
11
10.908522
21
270.527924
31
-9.013036
12
-16.816605
22
246.619232
32
14.362453
13
-26.960249
23
252.972183
33
22.036102
0
ENDSEC
0
EOF
