0
SECTION
2
HEADER
999
DXF File Generated by LightWave 3D(TM)
0
ENDSEC
0
SECTION
2
TABLES
0
ENDSEC
0
SECTION
2
BLOCKS
0
ENDSEC
0
SECTION
2
ENTITIES
0
3DFACE
8
0
70
0
10
-1.558764
20
-28.999466
30
95.709343
11
33.472771
21
-31.056091
31
74.411324
12
66.272995
22
-31.275406
32
44.159977
13
55.013287
23
-29.471313
33
69.292526
0
3DFACE
8
0
70
0
10
55.013294
20
-36.641571
30
-62.902786
11
58.198635
21
-54.422966
31
-43.010601
12
21.050674
22
-66.667725
32
-59.697266
13
-1.558754
23
-39.126785
33
-91.004044
0
3DFACE
8
0
70
0
10
-1.558766
20
-35.232368
30
118.223869
11
-1.558764
21
-28.999466
31
95.709343
12
55.013287
22
-29.471313
32
69.292526
13
73.241302
23
-35.973007
33
85.653160
0
3DFACE
8
0
70
0
10
73.241318
20
-45.047195
30
-81.644157
11
55.013294
21
-36.641571
31
-62.902786
12
-1.558754
22
-39.126785
32
-91.004044
13
-1.558753
23
-47.845490
33
-114.319397
0
3DFACE
8
0
70
0
10
-1.558766
20
-30.621330
30
131.773270
11
77.776871
21
-31.625870
31
94.959846
12
90.133011
22
26.760803
32
97.926498
13
-1.558767
23
28.807587
33
134.792862
0
3DFACE
8
0
70
0
10
77.776878
20
-41.879707
30
-94.086113
11
-1.558752
21
-44.874161
31
-131.000626
12
-1.559725
22
14.561813
32
-127.973412
13
90.133018
23
16.506973
33
-91.119461
0
3DFACE
8
0
70
0
10
-1.558767
20
28.807587
30
134.792862
11
90.133011
21
26.760803
31
97.926498
12
84.917114
22
27.536819
32
88.880112
13
-1.558766
23
29.364746
33
121.506073
0
3DFACE
8
0
70
0
10
-1.558766
20
-30.621330
30
131.773270
11
-1.558766
21
-35.232368
31
118.223869
12
73.241302
22
-35.973007
32
85.653160
13
77.776871
23
-31.625870
33
94.959846
0
3DFACE
8
0
70
0
10
90.133018
20
16.506973
30
-91.119461
11
-1.559725
21
14.561813
31
-127.973412
12
-1.622375
22
17.012604
32
-110.759026
13
84.917122
23
18.462631
33
-78.417198
0
3DFACE
8
0
70
0
10
77.776878
20
-41.879707
30
-94.086113
11
73.241318
21
-45.047195
31
-81.644157
12
-1.558753
22
-47.845490
32
-114.319397
13
-1.558752
23
-44.874161
33
-131.000626
0
3DFACE
8
0
70
0
10
27.673773
20
-119.444244
30
102.617195
11
74.813721
21
-119.444244
31
102.617195
12
66.977409
22
-98.812729
32
87.801697
13
33.987896
23
-98.998032
33
87.801697
0
3DFACE
8
0
70
0
10
55.013287
20
-29.471313
30
69.292526
11
66.272995
21
-31.275406
31
44.159977
12
71.679749
22
-45.007370
32
0.739988
13
68.588448
23
-32.977966
33
4.641763
0
3DFACE
8
0
70
0
10
73.241302
20
-35.973007
30
85.653160
11
55.013287
21
-29.471313
31
69.292526
12
68.588448
22
-32.977966
32
4.641763
13
91.373489
23
-40.387482
33
4.265282
0
3DFACE
8
0
70
0
10
90.133011
20
26.760803
30
97.926498
11
77.776871
21
-31.625870
31
94.959846
12
97.042931
22
-36.534515
32
4.461052
13
112.288986
23
21.852158
33
7.427697
0
3DFACE
8
0
70
0
10
112.288986
20
21.852158
30
7.427697
11
105.769127
21
23.122345
31
7.492236
12
84.917114
22
27.536819
32
88.880112
13
90.133011
23
26.760803
33
97.926498
0
3DFACE
8
0
70
0
10
77.776871
20
-31.625870
30
94.959846
11
73.241302
21
-35.973007
31
85.653160
12
91.373489
22
-40.387482
32
4.265282
13
97.042931
23
-36.534515
33
4.461052
0
3DFACE
8
0
70
0
10
12.906889
20
-152.844193
30
102.617195
11
80.090286
21
-153.029510
31
102.617195
12
74.813721
22
-119.444244
32
102.617195
13
27.673773
23
-119.444244
33
102.617195
0
3DFACE
8
0
70
0
10
-1.695257
20
175.347839
30
9.903462
11
55.516541
21
157.365356
31
6.270164
12
47.529945
22
149.826965
32
-33.197605
13
-1.710421
23
151.412323
33
-43.964493
0
3DFACE
8
0
70
0
10
68.588448
20
-32.977966
30
4.641763
11
71.679749
21
-45.007370
31
0.739988
12
58.198635
22
-54.422966
32
-43.010601
13
55.013294
23
-36.641571
33
-62.902786
0
3DFACE
8
0
70
0
10
91.373489
20
-40.387482
30
4.265282
11
68.588448
21
-32.977966
31
4.641763
12
55.013294
22
-36.641571
32
-62.902786
13
73.241318
23
-45.047195
33
-81.644157
0
3DFACE
8
0
70
0
10
97.042931
20
-36.534515
30
4.461052
11
77.776878
21
-41.879707
31
-94.086113
12
90.133018
22
16.506973
32
-91.119461
13
112.288986
23
21.852158
33
7.427697
0
3DFACE
8
0
70
0
10
90.133018
20
16.506973
30
-91.119461
11
84.917122
21
18.462631
31
-78.417198
12
105.769127
22
23.122345
32
7.492236
13
112.288986
23
21.852158
33
7.427697
0
3DFACE
8
0
70
0
10
97.042931
20
-36.534515
30
4.461052
11
91.373489
21
-40.387482
31
4.265282
12
73.241318
22
-45.047195
32
-81.644157
13
77.776878
23
-41.879707
33
-94.086113
0
3DFACE
8
0
70
0
10
33.700401
20
-55.226326
30
38.871990
11
33.472771
21
-31.056091
31
74.411324
12
21.296328
22
-53.669235
32
10.510580
13
23.893387
23
-65.617859
33
12.403988
0
3DFACE
8
0
70
0
10
33.700401
20
-55.226326
30
38.871990
11
67.281540
21
-50.920166
31
20.360237
12
66.272995
22
-31.275406
32
44.159977
13
33.472771
23
-31.056091
33
74.411324
0
3DFACE
8
0
70
0
10
67.281540
20
-50.920166
30
20.360237
11
73.953392
21
-54.790520
31
0.190750
12
71.679749
22
-45.007370
32
0.739988
13
66.272995
23
-31.275406
33
44.159977
0
3DFACE
8
0
70
0
10
23.893387
20
-65.617859
30
12.403988
11
21.296328
21
-53.669235
31
10.510580
12
21.050674
22
-66.667725
32
-59.697266
13
27.023523
23
-73.567688
33
-18.464121
0
3DFACE
8
0
70
0
10
73.953392
20
-54.790520
30
0.190750
11
62.941566
21
-62.842056
31
-16.908236
12
58.198635
22
-54.422966
32
-43.010601
13
71.679749
23
-45.007370
33
0.739988
0
3DFACE
8
0
70
0
10
62.941566
20
-62.842056
30
-16.908236
11
27.023523
21
-73.567688
31
-18.464121
12
21.050674
22
-66.667725
32
-59.697266
13
58.198635
23
-54.422966
33
-43.010601
0
3DFACE
8
0
70
0
10
30.687769
20
-127.947495
30
-1.398396
11
27.673773
21
-127.827744
31
43.725594
12
33.987896
22
-108.736435
32
35.947453
13
39.479206
23
-102.949219
33
30.607979
0
3DFACE
8
0
70
0
10
39.479206
20
-102.949219
30
30.607979
11
33.987896
21
-108.736435
31
35.947453
12
66.977409
22
-112.334427
32
35.947453
13
68.259964
23
-104.821747
33
13.871284
0
3DFACE
8
0
70
0
10
74.074791
20
-123.917480
30
-9.490894
11
68.259964
21
-104.821747
31
13.871284
12
66.977409
22
-112.334427
32
35.947453
13
74.813721
23
-127.827744
33
43.725594
0
3DFACE
8
0
70
0
10
13.413674
20
-155.201172
30
-33.940392
11
16.610764
21
-150.617310
31
32.613968
12
27.673773
22
-127.827744
32
43.725594
13
30.687769
23
-127.947495
33
-1.398396
0
3DFACE
8
0
70
0
10
77.603142
20
-148.327469
30
-43.733681
11
74.074791
21
-123.917480
31
-9.490894
12
74.813721
22
-127.827744
32
43.725594
13
83.794151
23
-150.723206
33
36.317848
0
3DFACE
8
0
70
0
10
77.603142
20
-148.327469
30
-43.733681
11
83.794151
21
-150.723206
31
36.317848
12
16.610764
22
-150.617310
32
32.613968
13
13.413674
23
-155.201172
33
-33.940392
0
3DFACE
8
0
70
0
10
27.673773
20
-119.444244
30
102.617195
11
33.987896
21
-98.998032
31
87.801697
12
33.987896
22
-108.736435
32
35.947453
13
27.673773
23
-127.827744
33
43.725594
0
3DFACE
8
0
70
0
10
33.987896
20
-98.998032
30
87.801697
11
66.977409
21
-98.812729
31
87.801697
12
66.977409
22
-112.334427
32
35.947453
13
33.987896
23
-108.736435
33
35.947453
0
3DFACE
8
0
70
0
10
74.813721
20
-119.444244
30
102.617195
11
74.813721
21
-127.827744
31
43.725594
12
66.977409
22
-112.334427
32
35.947453
13
66.977409
23
-98.812729
33
87.801697
0
3DFACE
8
0
70
0
10
12.906889
20
-152.844193
30
102.617195
11
27.673773
21
-119.444244
31
102.617195
12
27.673773
22
-127.827744
32
43.725594
13
16.610764
23
-150.617310
33
32.613968
0
3DFACE
8
0
70
0
10
80.090286
20
-153.029510
30
102.617195
11
83.794151
21
-150.723206
31
36.317848
12
74.813721
22
-127.827744
32
43.725594
13
74.813721
23
-119.444244
33
102.617195
0
3DFACE
8
0
70
0
10
80.090286
20
-153.029510
30
102.617195
11
12.906889
21
-152.844193
31
102.617195
12
16.610764
22
-150.617310
32
32.613968
13
83.794151
23
-150.723206
33
36.317848
0
3DFACE
8
0
70
0
10
219.232788
20
134.778748
30
212.754547
11
233.597855
21
141.967743
31
195.746826
12
220.386505
22
156.145630
32
205.746948
13
203.042496
23
145.360657
33
212.467163
0
3DFACE
8
0
70
0
10
70.995667
20
124.589050
30
-26.208330
11
47.529945
21
149.826965
31
-33.197605
12
55.516541
22
157.365356
32
6.270164
13
55.516541
23
157.365356
33
6.270164
0
3DFACE
8
0
70
0
10
72.256523
20
137.397705
30
55.001255
11
55.516541
21
157.365356
31
6.270164
12
46.956097
22
133.143677
32
68.996384
13
46.956097
23
133.143677
33
68.996384
0
3DFACE
8
0
70
0
10
151.248398
20
120.783478
30
56.931046
11
182.371155
21
84.139145
31
64.071243
12
185.021194
22
91.312805
32
99.454903
13
155.155838
23
129.995300
33
91.637405
0
3DFACE
8
0
70
0
10
200.928833
20
137.244690
30
47.755768
11
151.248398
21
120.783478
31
56.931046
12
155.155838
22
129.995300
32
91.637405
13
204.592682
23
148.408875
33
81.949097
0
3DFACE
8
0
70
0
10
226.520142
20
110.205444
30
90.379227
11
223.863861
21
100.646683
31
55.650814
12
200.928833
22
137.244690
32
47.755768
13
204.592682
23
148.408875
33
81.949097
0
3DFACE
8
0
70
0
10
182.371155
20
84.139145
30
64.071243
11
223.863861
21
100.646683
31
55.650814
12
226.520142
22
110.205444
32
90.379227
13
185.021194
23
91.312805
33
99.454903
0
3DFACE
8
0
70
0
10
182.424942
20
80.513077
30
102.662468
11
184.697678
21
86.408279
31
136.244263
12
147.314301
22
141.901611
32
123.582489
13
143.540924
23
133.552734
33
91.749802
0
3DFACE
8
0
70
0
10
143.540924
20
133.552734
30
91.749802
11
147.314301
21
141.901611
31
123.582489
12
212.791504
22
170.514954
32
108.765984
13
209.366318
23
159.949524
33
78.334030
0
3DFACE
8
0
70
0
10
240.000824
20
116.198944
30
121.948395
11
237.741791
21
107.430145
31
90.089012
12
209.366318
22
159.949524
32
78.334030
13
212.791504
23
170.514954
33
108.765984
0
3DFACE
8
0
70
0
10
182.424942
20
80.513077
30
102.662468
11
237.741791
21
107.430145
31
90.089012
12
240.000824
22
116.198944
32
121.948395
13
184.697678
23
86.408279
33
136.244263
0
3DFACE
8
0
70
0
10
182.424942
20
80.513077
30
102.662468
11
143.540924
21
133.552734
31
91.749802
12
155.155838
22
129.995300
32
91.637405
13
185.021194
23
91.312805
33
99.454903
0
3DFACE
8
0
70
0
10
184.697678
20
86.408279
30
136.244263
11
187.517044
21
98.069000
31
132.779449
12
158.738724
22
138.441956
32
123.461090
13
147.314301
23
141.901611
33
123.582489
0
3DFACE
8
0
70
0
10
143.540924
20
133.552734
30
91.749802
11
209.366318
21
159.949524
31
78.334030
12
204.592682
22
148.408875
32
81.949097
13
155.155838
23
129.995300
33
91.637405
0
3DFACE
8
0
70
0
10
147.314301
20
141.901611
30
123.582489
11
158.738724
21
138.441956
31
123.461090
12
207.871857
22
158.400757
32
112.552170
13
212.791504
23
170.514954
33
108.765984
0
3DFACE
8
0
70
0
10
240.000824
20
116.198944
30
121.948395
11
212.791504
21
170.514954
31
108.765984
12
207.871857
22
158.400757
32
112.552170
13
228.955780
23
118.970245
33
122.223145
0
3DFACE
8
0
70
0
10
237.741791
20
107.430145
30
90.089012
11
226.520142
21
110.205444
31
90.379227
12
204.592682
22
148.408875
32
81.949097
13
209.366318
23
159.949524
33
78.334030
0
3DFACE
8
0
70
0
10
184.697678
20
86.408279
30
136.244263
11
240.000824
21
116.198944
31
121.948395
12
228.955780
22
118.970245
32
122.223145
13
187.517044
23
98.069000
33
132.779449
0
3DFACE
8
0
70
0
10
182.424942
20
80.513077
30
102.662468
11
185.021194
21
91.312805
31
99.454903
12
226.520142
22
110.205444
32
90.379227
13
237.741791
23
107.430145
33
90.089012
0
3DFACE
8
0
70
0
10
200.077667
20
103.268616
30
117.703064
11
173.945541
21
123.032928
31
117.288574
12
158.738724
22
138.441956
32
123.461090
13
187.517044
23
98.069000
33
132.779449
0
3DFACE
8
0
70
0
10
173.945541
20
123.032928
30
117.288574
11
200.800446
21
143.205688
31
106.615189
12
207.871857
22
158.400757
32
112.552170
13
158.738724
23
138.441956
33
123.461090
0
3DFACE
8
0
70
0
10
221.891937
20
122.744232
30
108.057091
11
228.955780
21
118.970245
31
122.223145
12
207.871857
22
158.400757
32
112.552170
13
200.800446
23
143.205688
33
106.615189
0
3DFACE
8
0
70
0
10
200.077667
20
103.268616
30
117.703064
11
187.517044
21
98.069000
31
132.779449
12
228.955780
22
118.970245
32
122.223145
13
221.891937
23
122.744232
33
108.057091
0
3DFACE
8
0
70
0
10
159.803680
20
122.341705
30
171.279282
11
158.937622
21
132.908020
31
168.408051
12
156.603531
22
130.392700
32
155.911041
13
157.354630
23
119.822998
33
158.783401
0
3DFACE
8
0
70
0
10
158.937622
20
132.908020
30
168.408051
11
158.827423
21
143.856323
31
165.340164
12
156.374664
22
141.345398
32
152.884598
13
156.603531
23
130.392700
33
155.911041
0
3DFACE
8
0
70
0
10
240.738190
20
129.967926
30
137.363724
11
221.891937
21
122.744232
31
108.057091
12
200.800446
22
143.205688
32
106.615189
13
210.755173
23
150.472412
33
137.586533
0
3DFACE
8
0
70
0
10
208.940872
20
110.564362
30
148.985306
11
200.077667
21
103.268616
31
117.703064
12
221.891937
22
122.744232
32
108.057091
13
240.738190
23
129.967926
33
137.363724
0
3DFACE
8
0
70
0
10
219.232788
20
134.778748
30
212.754547
11
203.042496
21
145.360657
31
212.467163
12
181.676834
22
134.602112
32
163.185028
13
208.940872
23
110.564362
33
148.985306
0
3DFACE
8
0
70
0
10
203.042496
20
145.360657
30
212.467163
11
220.386505
21
156.145630
31
205.746948
12
210.755173
22
150.472412
32
137.586533
13
181.676834
23
134.602112
33
163.185028
0
3DFACE
8
0
70
0
10
233.597855
20
141.967743
30
195.746826
11
240.738190
21
129.967926
31
137.363724
12
210.755173
22
150.472412
32
137.586533
13
220.386505
23
156.145630
33
205.746948
0
3DFACE
8
0
70
0
10
219.232788
20
134.778748
30
212.754547
11
208.940872
21
110.564362
31
148.985306
12
240.738190
22
129.967926
32
137.363724
13
233.597855
23
141.967743
33
195.746826
0
3DFACE
8
0
70
0
10
159.803680
20
122.341705
30
171.279282
11
157.354630
21
119.822998
31
158.783401
12
200.077667
22
103.268616
32
117.703064
13
208.940872
23
110.564362
33
148.985306
0
3DFACE
8
0
70
0
10
157.354630
20
119.822998
30
158.783401
11
156.603531
21
130.392700
31
155.911041
12
173.945541
22
123.032928
32
117.288574
13
200.077667
23
103.268616
33
117.703064
0
3DFACE
8
0
70
0
10
159.803680
20
122.341705
30
171.279282
11
208.940872
21
110.564362
31
148.985306
12
181.676834
22
134.602112
32
163.185028
13
158.937622
23
132.908020
33
168.408051
0
3DFACE
8
0
70
0
10
156.603531
20
130.392700
30
155.911041
11
156.374664
21
141.345398
31
152.884598
12
200.800446
22
143.205688
32
106.615189
13
173.945541
23
123.032928
33
117.288574
0
3DFACE
8
0
70
0
10
158.827423
20
143.856323
30
165.340164
11
210.755173
21
150.472412
31
137.586533
12
200.800446
22
143.205688
32
106.615189
13
156.374664
23
141.345398
33
152.884598
0
3DFACE
8
0
70
0
10
158.937622
20
132.908020
30
168.408051
11
181.676834
21
134.602112
31
163.185028
12
210.755173
22
150.472412
32
137.586533
13
158.827423
23
143.856323
33
165.340164
0
3DFACE
8
0
70
0
10
-1.558764
20
-28.999466
30
95.709343
11
-58.130806
21
-29.471313
31
69.292534
12
-64.508377
22
-31.853973
32
46.460003
13
-29.526512
23
-32.667511
33
72.351662
0
3DFACE
8
0
70
0
10
-58.130802
20
-36.641571
30
-62.902775
11
-1.558754
21
-39.126785
31
-91.004044
12
-27.303839
22
-65.478539
32
-63.269958
13
-63.063641
23
-53.181145
33
-41.694050
0
3DFACE
8
0
70
0
10
-1.558766
20
-35.232368
30
118.223869
11
-76.358833
21
-35.973007
31
85.653168
12
-58.130806
22
-29.471313
32
69.292534
13
-1.558764
23
-28.999466
33
95.709343
0
3DFACE
8
0
70
0
10
-76.358826
20
-45.047195
30
-81.644142
11
-1.558753
21
-47.845490
31
-114.319397
12
-1.558754
22
-39.126785
32
-91.004044
13
-58.130802
23
-36.641571
33
-62.902775
0
3DFACE
8
0
70
0
10
-1.558766
20
-30.621330
30
131.773270
11
-1.558767
21
28.807587
31
134.792862
12
-93.250542
22
26.760803
32
97.926506
13
-80.894394
23
-31.625870
33
94.959862
0
3DFACE
8
0
70
0
10
-80.894386
20
-41.879700
30
-94.086098
11
-93.250534
21
16.506973
31
-91.119453
12
-1.559725
22
14.561813
32
-127.973412
13
-1.558752
23
-44.874161
33
-131.000626
0
3DFACE
8
0
70
0
10
-1.558767
20
28.807587
30
134.792862
11
-1.558766
21
29.364746
31
121.506073
12
-88.034645
22
27.536819
32
88.880127
13
-93.250542
23
26.760803
33
97.926506
0
3DFACE
8
0
70
0
10
-1.558766
20
-30.621330
30
131.773270
11
-80.894394
21
-31.625870
31
94.959862
12
-76.358833
22
-35.973007
32
85.653168
13
-1.558766
23
-35.232368
33
118.223869
0
3DFACE
8
0
70
0
10
-93.250534
20
16.506973
30
-91.119453
11
-88.034637
21
18.462631
31
-78.417191
12
-1.622375
22
17.012604
32
-110.759026
13
-1.559725
23
14.561813
33
-127.973412
0
3DFACE
8
0
70
0
10
-80.894386
20
-41.879700
30
-94.086098
11
-1.558752
21
-44.874161
31
-131.000626
12
-1.558753
22
-47.845490
32
-114.319397
13
-76.358826
23
-45.047195
33
-81.644142
0
3DFACE
8
0
70
0
10
-31.473774
20
-119.444244
30
102.617195
11
-37.787899
21
-98.998032
31
87.801697
12
-70.777412
22
-98.812729
32
87.801697
13
-78.613716
23
-119.444244
33
102.617195
0
3DFACE
8
0
70
0
10
-58.130806
20
-29.471313
30
69.292534
11
-71.705963
21
-32.977966
31
4.641774
12
-73.170822
22
-44.575409
32
3.724141
13
-64.508377
23
-31.853973
33
46.460003
0
3DFACE
8
0
70
0
10
-76.358833
20
-35.973007
30
85.653168
11
-94.491005
21
-40.387474
31
4.265296
12
-71.705963
22
-32.977966
32
4.641774
13
-58.130806
23
-29.471313
33
69.292534
0
3DFACE
8
0
70
0
10
-93.250542
20
26.760803
30
97.926506
11
-115.406502
21
21.852173
31
7.427713
12
-100.160446
22
-36.534515
32
4.461066
13
-80.894394
23
-31.625870
33
94.959862
0
3DFACE
8
0
70
0
10
-115.406502
20
21.852173
30
7.427713
11
-93.250542
21
26.760803
31
97.926506
12
-88.034645
22
27.536819
32
88.880127
13
-108.886635
23
23.122360
33
7.492251
0
3DFACE
8
0
70
0
10
-80.894394
20
-31.625870
30
94.959862
11
-100.160446
21
-36.534515
31
4.461066
12
-94.491005
22
-40.387474
32
4.265296
13
-76.358833
23
-35.973007
33
85.653168
0
3DFACE
8
0
70
0
10
-16.706890
20
-152.844193
30
102.617195
11
-31.473774
21
-119.444244
31
102.617195
12
-78.613716
22
-119.444244
32
102.617195
13
-83.890282
23
-153.029510
33
102.617195
0
3DFACE
8
0
70
0
10
-1.695257
20
175.347839
30
9.903462
11
-1.710421
21
151.412323
31
-43.964493
12
-50.833595
22
149.826965
32
-33.197601
13
-58.032227
23
155.353455
33
7.324618
0
3DFACE
8
0
70
0
10
-71.705963
20
-32.977966
30
4.641774
11
-58.130802
21
-36.641571
31
-62.902775
12
-63.063641
22
-53.181145
32
-41.694050
13
-73.170822
23
-44.575409
33
3.724141
0
3DFACE
8
0
70
0
10
-94.491005
20
-40.387474
30
4.265296
11
-76.358826
21
-45.047195
31
-81.644142
12
-58.130802
22
-36.641571
32
-62.902775
13
-71.705963
23
-32.977966
33
4.641774
0
3DFACE
8
0
70
0
10
-100.160446
20
-36.534515
30
4.461066
11
-115.406502
21
21.852173
31
7.427713
12
-93.250534
22
16.506973
32
-91.119453
13
-80.894386
23
-41.879700
33
-94.086098
0
3DFACE
8
0
70
0
10
-93.250534
20
16.506973
30
-91.119453
11
-115.406502
21
21.852173
31
7.427713
12
-108.886635
22
23.122360
32
7.492251
13
-88.034637
23
18.462631
33
-78.417191
0
3DFACE
8
0
70
0
10
-100.160446
20
-36.534515
30
4.461066
11
-80.894386
21
-41.879700
31
-94.086098
12
-76.358826
22
-45.047195
32
-81.644142
13
-94.491005
23
-40.387474
33
4.265296
0
3DFACE
8
0
70
0
10
-31.752426
20
-55.691353
30
36.083046
11
-24.504242
21
-66.021530
31
8.190475
12
-22.215851
22
-54.019165
32
6.832761
13
-29.526512
23
-32.667511
33
72.351662
0
3DFACE
8
0
70
0
10
-31.752426
20
-55.691353
30
36.083046
11
-29.526512
21
-32.667511
31
72.351662
12
-64.508377
22
-31.853973
32
46.460003
13
-66.733162
23
-50.056137
33
23.039532
0
3DFACE
8
0
70
0
10
-66.733162
20
-50.056137
30
23.039532
11
-64.508377
21
-31.853973
31
46.460003
12
-73.170822
22
-44.575409
32
3.724141
13
-75.218506
23
-53.429863
33
4.045646
0
3DFACE
8
0
70
0
10
-24.504242
20
-66.021530
30
8.190475
11
-30.478096
21
-73.436493
31
-22.010340
12
-27.303839
22
-65.478539
32
-63.269958
13
-22.215851
23
-54.019165
33
6.832761
0
3DFACE
8
0
70
0
10
-75.218506
20
-53.429863
30
4.045646
11
-73.170822
21
-44.575409
31
3.724141
12
-63.063641
22
-53.181145
32
-41.694050
13
-65.904846
23
-61.590485
33
-14.721170
0
3DFACE
8
0
70
0
10
-65.904846
20
-61.590485
30
-14.721170
11
-63.063641
21
-53.181145
31
-41.694050
12
-27.303839
22
-65.478539
32
-63.269958
13
-30.478096
23
-73.436493
33
-22.010340
0
3DFACE
8
0
70
0
10
-33.258965
20
-128.201309
30
-4.221431
11
-39.431557
21
-103.329803
31
28.926058
12
-37.787899
22
-108.736435
32
35.947453
13
-31.473774
23
-127.827744
33
43.725594
0
3DFACE
8
0
70
0
10
-39.431557
20
-103.329803
30
28.926058
11
-69.399338
21
-104.308304
31
15.703961
12
-70.777412
22
-112.334427
32
35.947453
13
-37.787899
23
-108.736435
33
35.947453
0
3DFACE
8
0
70
0
10
-77.106247
20
-123.008186
30
-7.016219
11
-78.613716
21
-127.827744
31
43.725594
12
-70.777412
22
-112.334427
32
35.947453
13
-69.399338
23
-104.308304
33
15.703961
0
3DFACE
8
0
70
0
10
-18.683914
20
-155.532822
30
-38.944210
11
-33.258965
21
-128.201309
31
-4.221431
12
-31.473774
22
-127.827744
32
43.725594
13
-20.410763
23
-150.617310
33
32.613968
0
3DFACE
8
0
70
0
10
-83.384926
20
-146.961807
30
-40.899551
11
-87.594154
21
-150.723206
31
36.317848
12
-78.613716
22
-127.827744
32
43.725594
13
-77.106247
23
-123.008186
33
-7.016219
0
3DFACE
8
0
70
0
10
-83.384926
20
-146.961807
30
-40.899551
11
-18.683914
21
-155.532822
31
-38.944210
12
-20.410763
22
-150.617310
32
32.613968
13
-87.594154
23
-150.723206
33
36.317848
0
3DFACE
8
0
70
0
10
-31.473774
20
-119.444244
30
102.617195
11
-31.473774
21
-127.827744
31
43.725594
12
-37.787899
22
-108.736435
32
35.947453
13
-37.787899
23
-98.998032
33
87.801697
0
3DFACE
8
0
70
0
10
-37.787899
20
-98.998032
30
87.801697
11
-37.787899
21
-108.736435
31
35.947453
12
-70.777412
22
-112.334427
32
35.947453
13
-70.777412
23
-98.812729
33
87.801697
0
3DFACE
8
0
70
0
10
-78.613716
20
-119.444244
30
102.617195
11
-70.777412
21
-98.812729
31
87.801697
12
-70.777412
22
-112.334427
32
35.947453
13
-78.613716
23
-127.827744
33
43.725594
0
3DFACE
8
0
70
0
10
-16.706890
20
-152.844193
30
102.617195
11
-20.410763
21
-150.617310
31
32.613968
12
-31.473774
22
-127.827744
32
43.725594
13
-31.473774
23
-119.444244
33
102.617195
0
3DFACE
8
0
70
0
10
-83.890282
20
-153.029510
30
102.617195
11
-78.613716
21
-119.444244
31
102.617195
12
-78.613716
22
-127.827744
32
43.725594
13
-87.594154
23
-150.723206
33
36.317848
0
3DFACE
8
0
70
0
10
-83.890282
20
-153.029510
30
102.617195
11
-87.594154
21
-150.723206
31
36.317848
12
-20.410763
22
-150.617310
32
32.613968
13
-16.706890
23
-152.844193
33
102.617195
0
3DFACE
8
0
70
0
10
-176.332901
20
49.292526
30
201.781235
11
-161.808685
21
61.757263
31
204.585190
12
-181.009689
22
69.656952
32
210.171631
13
-195.912506
23
61.072388
33
196.763931
0
3DFACE
8
0
70
0
10
-76.813461
20
128.414734
30
-29.196291
11
-58.032227
21
155.353455
31
7.324618
12
-50.833595
22
149.826965
32
-33.197601
13
-50.833595
23
149.826965
33
-33.197601
0
3DFACE
8
0
70
0
10
-76.284729
20
130.684204
30
53.670414
11
-50.219868
21
133.143677
31
68.996384
12
-58.032227
22
155.353455
32
7.324618
13
-58.032227
23
155.353455
33
7.324618
0
3DFACE
8
0
70
0
10
-152.790115
20
120.085022
30
52.675758
11
-153.215134
21
113.122253
31
88.115814
12
-195.364273
22
87.598953
32
83.489723
13
-195.345016
23
96.971069
33
48.523304
0
3DFACE
8
0
70
0
10
-192.738205
20
154.406494
30
59.710571
11
-192.208405
21
149.207153
31
95.486717
12
-153.215134
22
113.122253
32
88.115814
13
-152.790115
23
120.085022
33
52.675758
0
3DFACE
8
0
70
0
10
-226.813965
20
121.154205
30
90.303398
11
-192.208405
21
149.207153
31
95.486717
12
-192.738205
22
154.406494
32
59.710571
13
-227.679291
23
128.257751
33
54.901691
0
3DFACE
8
0
70
0
10
-195.345016
20
96.971069
30
48.523304
11
-195.364273
21
87.598953
31
83.489723
12
-226.813965
22
121.154205
32
90.303398
13
-227.679291
23
128.257751
33
54.901691
0
3DFACE
8
0
70
0
10
-196.987061
20
76.361542
30
81.310272
11
-141.110901
21
112.134766
31
87.821098
12
-141.713867
22
105.729004
32
120.315163
13
-197.119644
23
66.632904
33
114.066811
0
3DFACE
8
0
70
0
10
-141.110901
20
112.134766
30
87.821098
11
-192.329178
21
161.967316
31
97.978020
12
-191.776413
22
157.913696
32
130.114075
13
-141.713867
23
105.729004
33
120.315163
0
3DFACE
8
0
70
0
10
-237.302567
20
116.160736
30
123.156349
11
-191.776413
21
157.913696
31
130.114075
12
-192.329178
22
161.967316
32
97.978020
13
-238.261368
23
122.736938
33
90.708702
0
3DFACE
8
0
70
0
10
-196.987061
20
76.361542
30
81.310272
11
-197.119644
21
66.632904
31
114.066811
12
-237.302567
22
116.160736
32
123.156349
13
-238.261368
23
122.736938
33
90.708702
0
3DFACE
8
0
70
0
10
-196.987061
20
76.361542
30
81.310272
11
-195.364273
21
87.598953
31
83.489723
12
-153.215134
22
113.122253
32
88.115814
13
-141.110901
23
112.134766
33
87.821098
0
3DFACE
8
0
70
0
10
-197.119644
20
66.632904
30
114.066811
11
-141.713867
21
105.729004
31
120.315163
12
-153.604858
22
106.737793
32
120.612221
13
-195.382431
23
78.772278
33
116.421318
0
3DFACE
8
0
70
0
10
-141.110901
20
112.134766
30
87.821098
11
-153.215134
21
113.122253
31
88.115814
12
-192.208405
22
149.207153
32
95.486717
13
-192.329178
23
161.967316
33
97.978020
0
3DFACE
8
0
70
0
10
-141.713867
20
105.729004
30
120.315163
11
-191.776413
21
157.913696
31
130.114075
12
-191.734268
22
144.553711
32
127.506386
13
-153.604858
23
106.737793
33
120.612221
0
3DFACE
8
0
70
0
10
-237.302567
20
116.160736
30
123.156349
11
-226.020523
21
114.640594
31
122.764633
12
-191.734268
22
144.553711
32
127.506386
13
-191.776413
23
157.913696
33
130.114075
0
3DFACE
8
0
70
0
10
-238.261368
20
122.736938
30
90.708702
11
-192.329178
21
161.967316
31
97.978020
12
-192.208405
22
149.207153
32
95.486717
13
-226.813965
23
121.154205
33
90.303398
0
3DFACE
8
0
70
0
10
-197.119644
20
66.632904
30
114.066811
11
-195.382431
21
78.772278
31
116.421318
12
-226.020523
22
114.640594
32
122.764633
13
-237.302567
23
116.160736
33
123.156349
0
3DFACE
8
0
70
0
10
-196.987061
20
76.361542
30
81.310272
11
-238.261368
21
122.736938
31
90.708702
12
-226.813965
22
121.154205
32
90.303398
13
-195.364273
23
87.598953
33
83.489723
0
3DFACE
8
0
70
0
10
-190.709320
20
87.257187
30
107.126289
11
-195.382431
21
78.772278
31
116.421318
12
-153.604858
22
106.737793
32
120.612221
13
-165.908249
23
107.774597
33
112.023651
0
3DFACE
8
0
70
0
10
-165.908249
20
107.774597
30
112.023651
11
-153.604858
21
106.737793
31
120.612221
12
-191.734268
22
144.553711
32
127.506386
13
-194.505219
23
125.743622
33
120.452972
0
3DFACE
8
0
70
0
10
-214.211746
20
104.901062
30
114.898033
11
-194.505219
21
125.743622
31
120.452972
12
-191.734268
22
144.553711
32
127.506386
13
-226.020523
23
114.640594
33
122.764633
0
3DFACE
8
0
70
0
10
-190.709320
20
87.257187
30
107.126289
11
-214.211746
21
104.901062
31
114.898033
12
-226.020523
22
114.640594
32
122.764633
13
-195.382431
23
78.772278
33
116.421318
0
3DFACE
8
0
70
0
10
-133.315826
20
78.458359
30
149.766052
11
-134.987518
21
84.315613
31
138.303619
12
-135.859619
22
94.379333
32
142.604050
13
-134.079071
23
88.547699
33
154.039597
0
3DFACE
8
0
70
0
10
-134.079071
20
88.547699
30
154.039597
11
-135.859619
21
94.379333
31
142.604050
12
-137.297394
22
104.698425
32
147.145248
13
-135.642059
23
98.857437
33
158.573502
0
3DFACE
8
0
70
0
10
-221.213120
20
83.586884
30
147.200455
11
-194.120224
21
106.941376
31
153.525574
12
-194.505219
22
125.743622
32
120.452972
13
-214.211746
23
104.901062
33
114.898033
0
3DFACE
8
0
70
0
10
-186.264221
20
69.793686
30
136.667160
11
-221.213120
21
83.586884
31
147.200455
12
-214.211746
22
104.901062
32
114.898033
13
-190.709320
23
87.257187
33
107.126289
0
3DFACE
8
0
70
0
10
-176.332901
20
49.292526
30
201.781235
11
-186.264221
21
69.793686
31
136.667160
12
-157.325073
22
87.158707
32
156.256805
13
-161.808685
23
61.757263
33
204.585190
0
3DFACE
8
0
70
0
10
-161.808685
20
61.757263
30
204.585190
11
-157.325073
21
87.158707
31
156.256805
12
-194.120224
22
106.941376
32
153.525574
13
-181.009689
23
69.656952
33
210.171631
0
3DFACE
8
0
70
0
10
-195.912506
20
61.072388
30
196.763931
11
-181.009689
21
69.656952
31
210.171631
12
-194.120224
22
106.941376
32
153.525574
13
-221.213120
23
83.586884
33
147.200455
0
3DFACE
8
0
70
0
10
-176.332901
20
49.292526
30
201.781235
11
-195.912506
21
61.072388
31
196.763931
12
-221.213120
22
83.586884
32
147.200455
13
-186.264221
23
69.793686
33
136.667160
0
3DFACE
8
0
70
0
10
-133.315826
20
78.458359
30
149.766052
11
-186.264221
21
69.793686
31
136.667160
12
-190.709320
22
87.257187
32
107.126289
13
-134.987518
23
84.315613
33
138.303619
0
3DFACE
8
0
70
0
10
-134.987518
20
84.315613
30
138.303619
11
-190.709320
21
87.257187
31
107.126289
12
-165.908249
22
107.774597
32
112.023651
13
-135.859619
23
94.379333
33
142.604050
0
3DFACE
8
0
70
0
10
-133.315826
20
78.458359
30
149.766052
11
-134.079071
21
88.547699
31
154.039597
12
-157.325073
22
87.158707
32
156.256805
13
-186.264221
23
69.793686
33
136.667160
0
3DFACE
8
0
70
0
10
-135.859619
20
94.379333
30
142.604050
11
-165.908249
21
107.774597
31
112.023651
12
-194.505219
22
125.743622
32
120.452972
13
-137.297394
23
104.698425
33
147.145248
0
3DFACE
8
0
70
0
10
-135.642059
20
98.857437
30
158.573502
11
-137.297394
21
104.698425
31
147.145248
12
-194.505219
22
125.743622
32
120.452972
13
-194.120224
23
106.941376
33
153.525574
0
3DFACE
8
0
70
0
10
-134.079071
20
88.547699
30
154.039597
11
-135.642059
21
98.857437
31
158.573502
12
-194.120224
22
106.941376
32
153.525574
13
-157.325073
23
87.158707
33
156.256805
0
3DFACE
8
0
70
0
10
21.296328
20
-53.669235
30
10.510580
11
33.472771
21
-31.056091
31
74.411324
12
-1.558764
22
-28.999466
32
95.709343
13
-1.558759
23
-33.963661
33
4.186467
0
3DFACE
8
0
70
0
10
21.296328
20
-53.669235
30
10.510580
11
-1.558759
21
-33.963661
31
4.186467
12
-1.558754
22
-39.126785
32
-91.004044
13
21.050674
23
-66.667725
33
-59.697266
0
3DFACE
8
0
70
0
10
-1.558754
20
-39.126785
30
-91.004044
11
-1.558759
21
-33.963661
31
4.186467
12
-22.215851
22
-54.019165
32
6.832761
13
-27.303839
23
-65.478539
33
-63.269958
0
3DFACE
8
0
70
0
10
-1.558759
20
-33.963661
30
4.186467
11
-1.558764
21
-28.999466
31
95.709343
12
-29.526512
22
-32.667511
32
72.351662
13
-22.215851
23
-54.019165
33
6.832761
0
3DFACE
8
0
70
0
10
6.853143
20
191.673553
30
123.390694
11
16.662825
21
191.617035
31
117.310799
12
26.289455
22
209.789001
32
119.384720
13
7.180100
23
210.678406
33
127.367538
0
3DFACE
8
0
70
0
10
7.180100
20
210.678406
30
127.367538
11
26.289455
21
209.789001
31
119.384720
12
19.062281
22
218.169861
32
117.840340
13
6.737320
23
221.969788
33
121.981918
0
3DFACE
8
0
70
0
10
16.662825
20
191.617035
30
117.310799
11
16.574635
21
186.903931
31
104.849121
12
27.880854
22
205.405701
32
102.117859
13
26.289455
23
209.789001
33
119.384720
0
3DFACE
8
0
70
0
10
6.853143
20
191.673553
30
123.390694
11
5.653932
21
184.784058
31
111.957832
12
16.574635
22
186.903931
32
104.849121
13
16.662825
23
191.617035
33
117.310799
0
3DFACE
8
0
70
0
10
6.737320
20
221.969788
30
121.981918
11
19.062281
21
218.169861
31
117.840340
12
19.649317
22
217.262848
32
101.555496
13
5.295217
23
221.765961
33
107.594704
0
3DFACE
8
0
70
0
10
26.289455
20
209.789001
30
119.384720
11
27.880854
21
205.405701
31
102.117859
12
19.649317
22
217.262848
32
101.555496
13
19.062281
23
218.169861
33
117.840340
0
3DFACE
8
0
70
0
10
8.919377
20
230.767273
30
102.393036
11
9.089856
21
221.434814
31
104.466606
12
19.671061
22
218.517365
32
98.561661
13
20.992794
23
238.058350
33
98.565018
0
3DFACE
8
0
70
0
10
19.671061
20
218.517365
30
98.561661
11
28.680254
21
218.816406
31
91.441406
12
31.953167
22
229.218170
32
86.411720
13
20.992794
23
238.058350
33
98.565018
0
3DFACE
8
0
70
0
10
19.816830
20
171.078613
30
125.678871
11
14.806945
21
188.738525
31
113.083046
12
6.043858
22
187.635132
32
116.700577
13
6.927042
23
170.951508
33
127.442909
0
3DFACE
8
0
70
0
10
53.753521
20
182.808472
30
75.611656
11
52.040192
21
193.652527
31
74.368958
12
30.648220
22
188.859619
32
97.515907
13
38.451740
23
166.865387
33
105.683853
0
3DFACE
8
0
70
0
10
14.806945
20
188.738525
30
113.083046
11
19.816830
21
171.078613
31
125.678871
12
37.243561
22
172.304016
32
115.360352
13
29.442993
23
188.986328
33
111.734016
0
3DFACE
8
0
70
0
10
48.255707
20
225.233368
30
71.480621
11
60.314911
21
227.817139
31
69.687935
12
36.822170
22
234.811676
32
90.086449
13
36.411465
23
231.334106
33
88.663292
0
3DFACE
8
0
70
0
10
5.333748
20
235.079193
30
108.063370
11
5.108577
21
232.882263
31
105.324562
12
20.701729
22
240.141052
32
101.210716
13
22.367226
23
242.506836
33
102.323776
0
3DFACE
8
0
70
0
10
22.367226
20
242.506836
30
102.323776
11
20.701729
21
240.141052
31
101.210716
12
36.411465
22
231.334106
32
88.663292
13
36.822170
23
234.811676
33
90.086449
0
3DFACE
8
0
70
0
10
6.989369
20
144.281006
30
128.201004
11
23.512884
21
151.876221
31
119.573196
12
20.092094
22
160.747192
32
116.802902
13
6.618854
23
158.399719
33
123.694351
0
3DFACE
8
0
70
0
10
5.661422
20
99.069641
30
112.048950
11
25.576233
21
111.154663
31
105.798096
12
23.512884
22
151.876221
32
119.573196
13
6.989369
23
144.281006
33
128.201004
0
3DFACE
8
0
70
0
10
53.753521
20
182.808472
30
75.611656
11
38.451740
21
166.865387
31
105.683853
12
37.065987
22
162.672760
32
97.166267
13
57.823814
23
171.967041
33
79.680252
0
3DFACE
8
0
70
0
10
37.065987
20
162.672760
30
97.166267
11
46.208771
21
133.508850
31
69.568321
12
54.683327
22
161.218781
32
49.650913
13
57.823814
23
171.967041
33
79.680252
0
3DFACE
8
0
70
0
10
25.576233
20
111.154663
30
105.798096
11
46.208771
21
133.508850
31
69.568321
12
37.065987
22
162.672760
32
97.166267
13
23.512884
23
151.876221
33
119.573196
0
3DFACE
8
0
70
0
10
23.512884
20
151.876221
30
119.573196
11
37.065987
21
162.672760
31
97.166267
12
38.451740
22
166.865387
32
105.683853
13
20.092094
23
160.747192
33
116.802902
0
3DFACE
8
0
70
0
10
6.927042
20
170.951508
30
127.442909
11
6.618854
21
158.399719
31
123.694351
12
20.092094
22
160.747192
32
116.802902
13
19.816830
23
171.078613
33
125.678871
0
3DFACE
8
0
70
0
10
6.043858
20
187.635132
30
116.700577
11
14.806945
21
188.738525
31
113.083046
12
16.574635
22
186.903931
32
104.849121
13
5.653932
23
184.784058
33
111.957832
0
3DFACE
8
0
70
0
10
29.442993
20
188.986328
30
111.734016
11
30.648220
21
188.859619
31
97.515907
12
16.574635
22
186.903931
32
104.849121
13
14.806945
23
188.738525
33
113.083046
0
POINT
8
0
70
0
10
56.879032
20
168.982422
30
95.431404
0
3DFACE
8
0
70
0
10
19.816830
20
171.078613
30
125.678871
11
20.092094
21
160.747192
31
116.802902
12
38.451740
22
166.865387
32
105.683853
13
37.243561
23
172.304016
33
115.360352
0
3DFACE
8
0
70
0
10
37.243561
20
172.304016
30
115.360352
11
56.879032
21
168.982422
31
95.431404
12
29.442993
22
188.986328
32
111.734016
13
29.442993
23
188.986328
33
111.734016
0
3DFACE
8
0
70
0
10
29.442993
20
188.986328
30
111.734016
11
56.879032
21
168.982422
31
95.431404
12
30.648220
22
188.859619
32
97.515907
13
30.648220
23
188.859619
33
97.515907
0
3DFACE
8
0
70
0
10
56.879032
20
168.982422
30
95.431404
11
38.451740
21
166.865387
31
105.683853
12
30.648220
22
188.859619
32
97.515907
13
30.648220
23
188.859619
33
97.515907
0
3DFACE
8
0
70
0
10
38.451740
20
166.865387
30
105.683853
11
56.879032
21
168.982422
31
95.431404
12
37.243561
22
172.304016
32
115.360352
13
37.243561
23
172.304016
33
115.360352
0
3DFACE
8
0
70
0
10
60.314911
20
227.817139
30
69.687935
11
48.255707
21
225.233368
31
71.480621
12
58.654240
22
218.661682
32
34.015472
13
61.829342
23
220.526672
33
32.293262
0
3DFACE
8
0
70
0
10
48.255707
20
225.233368
30
71.480621
11
46.404789
21
216.215790
31
73.043518
12
60.318138
22
211.426575
32
35.893684
13
58.654240
23
218.661682
33
34.015472
0
3DFACE
8
0
70
0
10
46.404789
20
216.215790
30
73.043518
11
48.944008
21
203.179382
31
74.128555
12
60.636127
22
198.552063
32
39.495594
13
60.318138
23
211.426575
33
35.893684
0
3DFACE
8
0
70
0
10
61.829342
20
220.526672
30
32.293262
11
58.654240
21
218.661682
31
34.015472
12
39.789799
22
213.937988
32
9.475224
13
42.273376
23
214.930542
33
8.121740
0
3DFACE
8
0
70
0
10
60.318138
20
211.426575
30
35.893684
11
41.930347
21
211.809570
31
7.290613
12
39.789799
22
213.937988
32
9.475224
13
58.654240
23
218.661682
33
34.015472
0
3DFACE
8
0
70
0
10
60.636127
20
198.552063
30
39.495594
11
39.179306
21
200.020264
31
7.327019
12
41.930347
22
211.809570
32
7.290613
13
60.318138
23
211.426575
33
35.893684
0
3DFACE
8
0
70
0
10
42.273376
20
214.930542
30
8.121740
11
39.789799
21
213.937988
31
9.475224
12
-3.885072
22
212.123108
32
-4.066823
13
-4.187192
23
212.473389
33
-7.741564
0
3DFACE
8
0
70
0
10
41.930347
20
211.809570
30
7.290613
11
-3.877274
21
210.078674
31
-3.971976
12
-3.885072
22
212.123108
32
-4.066823
13
39.789799
23
213.937988
33
9.475224
0
3DFACE
8
0
70
0
10
39.179306
20
200.020264
30
7.327019
11
-3.633458
21
196.446930
31
-1.006400
12
-3.877274
22
210.078674
32
-3.971976
13
41.930347
23
211.809570
33
7.290613
0
3DFACE
8
0
70
0
10
54.683327
20
161.218781
30
49.650913
11
60.506336
21
177.278168
31
43.242256
12
53.753521
22
182.808472
32
75.611656
13
57.823814
23
171.967041
33
79.680252
0
3DFACE
8
0
70
0
10
48.944008
20
203.179382
30
74.128555
11
52.040192
21
193.652527
31
74.368958
12
60.636127
22
198.552063
32
39.495594
13
60.636127
23
198.552063
33
39.495594
0
3DFACE
8
0
70
0
10
53.753521
20
182.808472
30
75.611656
11
60.506336
21
177.278168
31
43.242256
12
60.636127
22
198.552063
32
39.495594
13
52.040192
23
193.652527
33
74.368958
0
3DFACE
8
0
70
0
10
60.506336
20
177.278168
30
43.242256
11
38.788315
21
182.461487
31
12.245804
12
39.179306
22
200.020264
32
7.327019
13
60.636127
23
198.552063
33
39.495594
0
3DFACE
8
0
70
0
10
38.788315
20
182.461487
30
12.245804
11
-3.116233
21
179.679077
31
5.284705
12
-3.633458
22
196.446930
32
-1.006400
13
39.179306
23
200.020264
33
7.327019
0
3DFACE
8
0
70
0
10
5.333748
20
235.079193
30
108.063370
11
22.367226
21
242.506836
31
102.323776
12
23.921917
22
264.484558
32
97.397713
13
5.089924
23
263.876404
33
105.097687
0
3DFACE
8
0
70
0
10
5.089924
20
263.876404
30
105.097687
11
23.921917
21
264.484558
31
97.397713
12
23.903214
22
266.629303
32
92.426872
13
4.789331
23
267.130280
33
101.441521
0
3DFACE
8
0
70
0
10
22.367226
20
242.506836
30
102.323776
11
36.822170
21
234.811676
31
90.086449
12
49.250088
22
262.119171
32
82.162834
13
23.921917
23
264.484558
33
97.397713
0
3DFACE
8
0
70
0
10
23.921917
20
264.484558
30
97.397713
11
49.250088
21
262.119171
31
82.162834
12
47.629120
22
264.692169
32
77.608658
13
23.903214
23
266.629303
33
92.426872
0
3DFACE
8
0
70
0
10
36.822170
20
234.811676
30
90.086449
11
60.314911
21
227.817139
31
69.687935
12
62.797264
22
253.345886
32
50.490036
13
49.250088
23
262.119171
33
82.162834
0
3DFACE
8
0
70
0
10
49.250088
20
262.119171
30
82.162834
11
62.797264
21
253.345886
31
50.490036
12
54.403397
22
257.368896
32
49.672752
13
47.629120
23
264.692169
33
77.608658
0
3DFACE
8
0
70
0
10
60.314911
20
227.817139
30
69.687935
11
61.829342
21
220.526672
31
32.293262
12
65.197891
22
250.745514
32
24.456762
13
62.797264
23
253.345886
33
50.490036
0
3DFACE
8
0
70
0
10
62.797264
20
253.345886
30
50.490036
11
65.197891
21
250.745514
31
24.456762
12
58.776962
22
253.530212
32
26.349543
13
54.403397
23
257.368896
33
49.672752
0
3DFACE
8
0
70
0
10
61.829342
20
220.526672
30
32.293262
11
42.273376
21
214.930542
31
8.121740
12
42.804592
22
242.450043
32
3.656251
13
65.197891
23
250.745514
33
24.456762
0
3DFACE
8
0
70
0
10
65.197891
20
250.745514
30
24.456762
11
42.804592
21
242.450043
31
3.656251
12
37.567413
22
246.978516
32
7.429229
13
58.776962
23
253.530212
33
26.349543
0
3DFACE
8
0
70
0
10
42.273376
20
214.930542
30
8.121740
11
-4.187192
21
212.473389
31
-7.741564
12
-4.551409
22
237.886658
32
-12.171602
13
42.804592
23
242.450043
33
3.656251
0
3DFACE
8
0
70
0
10
42.804592
20
242.450043
30
3.656251
11
-4.551409
21
237.886658
31
-12.171602
12
-4.213246
22
241.980743
32
-8.058473
13
37.567413
23
246.978516
33
7.429229
0
3DFACE
8
0
70
0
10
54.683327
20
161.218781
30
49.650913
11
34.400761
21
164.967621
31
36.095001
12
38.788315
22
182.461487
32
12.245804
13
60.506336
23
177.278168
33
43.242256
0
3DFACE
8
0
70
0
10
34.400761
20
164.967621
30
36.095001
11
-2.023303
21
170.880676
31
12.382811
12
-3.116233
22
179.679077
32
5.284705
13
38.788315
23
182.461487
33
12.245804
0
3DFACE
8
0
70
0
10
46.208771
20
133.508850
30
69.568321
11
28.935160
21
145.393188
31
68.409126
12
34.400761
22
164.967621
32
36.095001
13
54.683327
23
161.218781
33
49.650913
0
3DFACE
8
0
70
0
10
25.576233
20
111.154663
30
105.798096
11
21.863708
21
110.094452
31
90.163315
12
28.935160
22
145.393188
32
68.409126
13
46.208771
23
133.508850
33
69.568321
0
3DFACE
8
0
70
0
10
21.863708
20
110.094452
30
90.163315
11
3.647784
21
107.998047
31
87.556702
12
1.686336
22
127.522034
32
63.699245
13
28.935160
23
145.393188
33
68.409126
0
3DFACE
8
0
70
0
10
5.661422
20
99.069641
30
112.048950
11
3.647784
21
107.998047
31
87.556702
12
21.863708
22
110.094452
32
90.163315
13
21.863708
23
110.094452
33
90.163315
0
3DFACE
8
0
70
0
10
5.661422
20
99.069641
30
112.048950
11
21.863708
21
110.094452
31
90.163315
12
25.576233
22
111.154663
32
105.798096
13
25.576233
23
111.154663
33
105.798096
0
3DFACE
8
0
70
0
10
6.853143
20
191.673553
30
123.390694
11
7.180100
21
210.678406
31
127.367538
12
-12.976463
22
209.789001
32
122.612984
13
-3.817823
23
191.617035
33
118.994621
0
3DFACE
8
0
70
0
10
7.180100
20
210.678406
30
127.367538
11
6.737320
21
221.969788
31
121.981918
12
-6.098573
22
218.169861
32
119.908951
13
-12.976463
23
209.789001
33
122.612984
0
3DFACE
8
0
70
0
10
-3.817823
20
191.617035
30
118.994621
11
-12.976463
21
209.789001
31
122.612984
12
-17.881655
22
205.405701
32
105.880241
13
-6.281170
23
186.903931
33
106.728218
0
3DFACE
8
0
70
0
10
6.853143
20
191.673553
30
123.390694
11
-3.817823
21
191.617035
31
118.994621
12
-6.281170
22
186.903931
32
106.728218
13
5.653932
23
184.784058
33
111.957832
0
3DFACE
8
0
70
0
10
6.737320
20
221.969788
30
121.981918
11
5.295217
21
221.765961
31
107.594704
12
-9.852502
22
217.262848
32
103.981003
13
-6.098573
23
218.169861
33
119.908951
0
3DFACE
8
0
70
0
10
-12.976463
20
209.789001
30
122.612984
11
-6.098573
21
218.169861
31
119.908951
12
-9.852502
22
217.262848
32
103.981003
13
-17.881655
23
205.405701
33
105.880241
0
3DFACE
8
0
70
0
10
1.308153
20
230.628937
30
102.852119
11
-11.006695
21
238.771423
31
101.319710
12
-10.083814
22
219.195313
32
101.568939
13
1.459015
23
221.659668
33
104.687080
0
3DFACE
8
0
70
0
10
-10.083814
20
219.195313
30
101.568939
11
-11.006695
21
238.771423
31
101.319710
12
-23.627724
22
229.374573
32
93.491219
13
-19.565874
23
219.564514
33
97.167000
0
3DFACE
8
0
70
0
10
-6.077775
20
171.078613
30
127.807808
11
6.927042
21
170.951508
31
127.442909
12
6.043858
22
187.635132
32
116.700577
13
-3.192396
23
188.738525
33
114.562866
0
3DFACE
8
0
70
0
10
-47.736073
20
182.808472
30
83.955658
11
-27.728176
21
166.865387
31
111.124855
12
-21.363483
22
188.859619
32
101.792068
13
-46.248714
23
193.652527
33
82.449814
0
3DFACE
8
0
70
0
10
-3.192396
20
188.738525
30
114.562866
11
-17.852243
21
188.986328
31
115.622414
12
-24.955791
22
172.304016
32
120.474091
13
-6.077775
23
171.078613
33
127.807808
0
3DFACE
8
0
70
0
10
-42.986790
20
225.233368
30
78.982155
11
-27.626102
21
231.334106
31
93.928162
12
-27.798851
22
234.811676
32
95.399277
13
-55.176853
23
227.817139
33
79.183128
0
3DFACE
8
0
70
0
10
5.333748
20
235.079193
30
108.063370
11
-12.013338
21
243.309387
31
105.061340
12
-10.551999
22
240.943604
32
103.691208
13
5.108577
23
232.882263
33
105.324562
0
3DFACE
8
0
70
0
10
-12.013338
20
243.309387
30
105.061340
11
-27.798851
21
234.811676
31
95.399277
12
-27.626102
22
231.334106
32
93.928162
13
-10.551999
23
240.943604
33
103.691208
0
3DFACE
8
0
70
0
10
6.989369
20
144.281006
30
128.201004
11
6.618854
21
158.399719
31
123.694351
12
-7.799028
22
160.747192
32
119.095978
13
-10.721423
23
151.876221
33
122.387779
0
3DFACE
8
0
70
0
10
5.661422
20
99.069641
30
112.048950
11
6.989369
21
144.281006
31
128.201004
12
-10.721423
22
151.876221
32
122.387779
13
-15.006907
23
111.154663
33
109.134651
0
3DFACE
8
0
70
0
10
-47.736073
20
182.808472
30
83.955658
11
-51.087196
21
171.967041
31
88.634407
12
-27.752182
22
162.672760
32
102.495308
13
-27.728176
23
166.865387
33
111.124855
0
3DFACE
8
0
70
0
10
-27.752182
20
162.672760
30
102.495308
11
-51.087196
21
171.967041
31
88.634407
12
-52.893478
22
161.218781
32
58.495377
13
-41.279675
23
133.508850
33
76.761208
0
3DFACE
8
0
70
0
10
-15.006907
20
111.154663
30
109.134651
11
-10.721423
21
151.876221
31
122.387779
12
-27.752182
22
162.672760
32
102.495308
13
-41.279675
23
133.508850
33
76.761208
0
3DFACE
8
0
70
0
10
-10.721423
20
151.876221
30
122.387779
11
-7.799028
21
160.747192
31
119.095978
12
-27.728176
22
166.865387
32
111.124855
13
-27.752182
23
162.672760
33
102.495308
0
3DFACE
8
0
70
0
10
6.927042
20
170.951508
30
127.442909
11
-6.077775
21
171.078613
31
127.807808
12
-7.799028
22
160.747192
32
119.095978
13
6.618854
23
158.399719
33
123.694351
0
3DFACE
8
0
70
0
10
6.043858
20
187.635132
30
116.700577
11
5.653932
21
184.784058
31
111.957832
12
-6.281170
22
186.903931
32
106.728218
13
-3.192396
23
188.738525
33
114.562866
0
3DFACE
8
0
70
0
10
-17.852243
20
188.986328
30
115.622414
11
-3.192396
21
188.738525
31
114.562866
12
-6.281170
22
186.903931
32
106.728218
13
-21.363483
23
188.859619
33
101.792068
0
POINT
8
0
70
0
10
-46.777798
20
168.982422
30
103.953590
0
3DFACE
8
0
70
0
10
-6.077775
20
171.078613
30
127.807808
11
-24.955791
21
172.304016
31
120.474091
12
-27.728176
22
166.865387
32
111.124855
13
-7.799028
23
160.747192
33
119.095978
0
3DFACE
8
0
70
0
10
-24.955791
20
172.304016
30
120.474091
11
-17.852243
21
188.986328
31
115.622414
12
-46.777798
22
168.982422
32
103.953590
13
-46.777798
23
168.982422
33
103.953590
0
3DFACE
8
0
70
0
10
-17.852243
20
188.986328
30
115.622414
11
-21.363483
21
188.859619
31
101.792068
12
-46.777798
22
168.982422
32
103.953590
13
-46.777798
23
168.982422
33
103.953590
0
3DFACE
8
0
70
0
10
-46.777798
20
168.982422
30
103.953590
11
-21.363483
21
188.859619
31
101.792068
12
-27.728176
22
166.865387
32
111.124855
13
-27.728176
23
166.865387
33
111.124855
0
3DFACE
8
0
70
0
10
-27.728176
20
166.865387
30
111.124855
11
-24.955791
21
172.304016
31
120.474091
12
-46.777798
22
168.982422
32
103.953590
13
-46.777798
23
168.982422
33
103.953590
0
3DFACE
8
0
70
0
10
-55.176853
20
227.817139
30
79.183128
11
-62.778500
21
220.526672
31
42.537937
12
-59.364746
22
218.661682
32
43.718441
13
-42.986790
23
225.233368
33
78.982155
0
3DFACE
8
0
70
0
10
-42.986790
20
225.233368
30
78.982155
11
-59.364746
21
218.661682
31
43.718441
12
-60.699547
22
211.426605
32
45.843189
13
-40.905468
23
216.215790
33
80.221756
0
3DFACE
8
0
70
0
10
-40.905468
20
216.215790
30
80.221756
11
-60.699547
21
211.426605
31
45.843189
12
-60.424976
22
198.552063
32
49.448673
13
-43.233372
23
203.179382
33
81.706947
0
3DFACE
8
0
70
0
10
-62.778500
20
220.526672
30
42.537937
11
-47.432987
21
214.930542
31
15.496978
12
-44.761700
22
213.937988
32
16.426653
13
-59.364746
23
218.661682
33
43.718441
0
3DFACE
8
0
70
0
10
-60.699547
20
211.426605
30
45.843189
11
-59.364746
21
218.661682
31
43.718441
12
-44.761700
22
213.937988
32
16.426653
13
-47.230316
23
211.809570
33
14.620986
0
3DFACE
8
0
70
0
10
-60.424976
20
198.552063
30
49.448673
11
-60.699547
21
211.426605
31
45.843189
12
-47.230316
22
211.809570
32
14.620986
13
-44.510265
23
200.020264
33
14.207583
0
3DFACE
8
0
70
0
10
-47.432987
20
214.930542
30
15.496978
11
-4.187192
21
212.473389
31
-7.741564
12
-3.885072
22
212.123108
32
-4.066823
13
-44.761700
23
213.937988
33
16.426653
0
3DFACE
8
0
70
0
10
-47.230316
20
211.809570
30
14.620986
11
-44.761700
21
213.937988
31
16.426653
12
-3.885072
22
212.123108
32
-4.066823
13
-3.877274
23
210.078674
33
-3.971976
0
3DFACE
8
0
70
0
10
-44.510265
20
200.020264
30
14.207583
11
-47.230316
21
211.809570
31
14.620986
12
-3.877274
22
210.078674
32
-3.971976
13
-3.633458
23
196.446930
33
-1.006400
0
3DFACE
8
0
70
0
10
-52.893478
20
161.218781
30
58.495377
11
-51.087196
21
171.967041
31
88.634407
12
-47.736073
22
182.808472
32
83.955658
13
-59.684994
23
177.278168
33
53.123825
0
3DFACE
8
0
70
0
10
-43.233372
20
203.179382
30
81.706947
11
-60.424976
21
198.552063
31
49.448673
12
-46.248714
22
193.652527
32
82.449814
13
-46.248714
23
193.652527
33
82.449814
0
3DFACE
8
0
70
0
10
-47.736073
20
182.808472
30
83.955658
11
-46.248714
21
193.652527
31
82.449814
12
-60.424976
22
198.552063
32
49.448673
13
-59.684994
23
177.278168
33
53.123825
0
3DFACE
8
0
70
0
10
-59.684994
20
177.278168
30
53.123825
11
-60.424976
21
198.552063
31
49.448673
12
-44.510265
22
200.020264
32
14.207583
13
-43.321156
23
182.461487
33
18.996460
0
3DFACE
8
0
70
0
10
-43.321156
20
182.461487
30
18.996460
11
-44.510265
21
200.020264
31
14.207583
12
-3.633458
22
196.446930
32
-1.006400
13
-3.116233
23
179.679077
33
5.284705
0
3DFACE
8
0
70
0
10
5.333748
20
235.079193
30
108.063370
11
5.089924
21
263.876404
31
105.097687
12
-14.746808
22
264.484558
32
100.576874
13
-12.013338
23
243.309387
33
105.061340
0
3DFACE
8
0
70
0
10
5.089924
20
263.876404
30
105.097687
11
4.789331
21
267.130280
31
101.441521
12
-15.540226
22
266.629303
32
95.669724
13
-14.746808
23
264.484558
33
100.576874
0
3DFACE
8
0
70
0
10
-12.013338
20
243.309387
30
105.061340
11
-14.746808
21
264.484558
31
100.576874
12
-42.223125
22
262.119171
32
89.683334
13
-27.798851
23
234.811676
33
95.399277
0
3DFACE
8
0
70
0
10
-14.746808
20
264.484558
30
100.576874
11
-15.540226
21
266.629303
31
95.669724
12
-41.367744
22
264.692169
32
84.925568
13
-42.223125
23
262.119171
33
89.683334
0
3DFACE
8
0
70
0
10
-27.798851
20
234.811676
30
95.399277
11
-42.223125
21
262.119171
31
89.683334
12
-60.761406
22
253.345886
32
60.648449
13
-55.176853
23
227.817139
33
79.183128
0
3DFACE
8
0
70
0
10
-42.223125
20
262.119171
30
89.683334
11
-41.367744
21
264.692169
31
84.925568
12
-52.613731
22
257.368896
32
58.471199
13
-60.761406
23
253.345886
33
60.648449
0
3DFACE
8
0
70
0
10
-55.176853
20
227.817139
30
79.183128
11
-60.761406
21
253.345886
31
60.648449
12
-67.381721
22
250.745514
32
35.356838
13
-62.778500
23
220.526672
33
42.537937
0
3DFACE
8
0
70
0
10
-60.761406
20
253.345886
30
60.648449
11
-52.613731
21
257.368896
31
58.471199
12
-60.737873
22
253.530212
32
36.175495
13
-67.381721
23
250.745514
33
35.356838
0
3DFACE
8
0
70
0
10
-62.778500
20
220.526672
30
42.537937
11
-67.381721
21
250.745514
31
35.356838
12
-48.686401
22
242.450043
32
11.178213
13
-47.432987
23
214.930542
33
15.496978
0
3DFACE
8
0
70
0
10
-67.381721
20
250.745514
30
35.356838
11
-60.737873
21
253.530212
31
36.175495
12
-42.903324
22
246.978546
32
14.045156
13
-48.686401
23
242.450043
33
11.178213
0
3DFACE
8
0
70
0
10
-47.432987
20
214.930542
30
15.496978
11
-48.686401
21
242.450043
31
11.178213
12
-4.551409
22
237.886658
32
-12.171602
13
-4.187192
23
212.473389
33
-7.741564
0
3DFACE
8
0
70
0
10
-48.686401
20
242.450043
30
11.178213
11
-42.903324
21
246.978546
31
14.045156
12
-4.213246
22
241.980743
32
-8.058473
13
-4.551409
23
237.886658
33
-12.171602
0
3DFACE
8
0
70
0
10
-52.893478
20
161.218781
30
58.495377
11
-59.684994
21
177.278168
31
53.123825
12
-43.321156
22
182.461487
32
18.996460
13
-37.111992
23
164.967621
33
38.377666
0
3DFACE
8
0
70
0
10
-37.111992
20
164.967621
30
38.377666
11
-43.321156
21
182.461487
31
18.996460
12
-3.116233
22
179.679077
32
5.284705
13
-2.023303
23
170.880676
33
12.382811
0
3DFACE
8
0
70
0
10
-41.279675
20
133.508850
30
76.761208
11
-52.893478
21
161.218781
31
58.495377
12
-37.111992
22
164.967621
32
38.377666
13
-28.728329
23
145.393188
33
71.009453
0
3DFACE
8
0
70
0
10
-15.006907
20
111.154663
30
109.134651
11
-41.279675
21
133.508850
31
76.761208
12
-28.728329
22
145.393188
32
71.009453
13
-13.897809
23
110.094452
33
93.103462
0
3DFACE
8
0
70
0
10
-13.897809
20
110.094452
30
93.103462
11
-28.728329
21
145.393188
31
71.009453
12
1.686336
22
127.522034
32
63.699245
13
3.647784
23
107.998047
33
87.556702
0
3DFACE
8
0
70
0
10
5.661422
20
99.069641
30
112.048950
11
-13.897809
21
110.094452
31
93.103462
12
3.647784
22
107.998047
32
87.556702
13
3.647784
23
107.998047
33
87.556702
0
3DFACE
8
0
70
0
10
5.661422
20
99.069641
30
112.048950
11
-15.006907
21
111.154663
31
109.134651
12
-13.897809
22
110.094452
32
93.103462
13
-13.897809
23
110.094452
33
93.103462
0
3DFACE
8
0
70
0
10
1.459015
20
221.659668
30
104.687080
11
5.295217
21
221.765961
31
107.594704
12
5.108577
22
232.882263
32
105.324562
13
1.308153
23
230.628937
33
102.852119
0
3DFACE
8
0
70
0
10
-10.083814
20
219.195313
30
101.568939
11
-9.852502
21
217.262848
31
103.981003
12
5.295217
22
221.765961
32
107.594704
13
1.459015
23
221.659668
33
104.687080
0
3DFACE
8
0
70
0
10
-11.006695
20
238.771423
30
101.319710
11
1.308153
21
230.628937
31
102.852119
12
5.108577
22
232.882263
32
105.324562
13
-10.551999
23
240.943604
33
103.691208
0
3DFACE
8
0
70
0
10
-10.083814
20
219.195313
30
101.568939
11
-19.565874
21
219.564514
31
97.167000
12
-22.295675
22
217.845032
32
98.593056
13
-9.852502
23
217.262848
33
103.981003
0
3DFACE
8
0
70
0
10
-19.565874
20
219.564514
30
97.167000
11
-23.627724
21
229.374573
31
93.491219
12
-27.626102
22
231.334106
32
93.928162
13
-22.295675
23
217.845032
33
98.593056
0
3DFACE
8
0
70
0
10
-11.006695
20
238.771423
30
101.319710
11
-10.551999
21
240.943604
31
103.691208
12
-27.626102
22
231.334106
32
93.928162
13
-23.627724
23
229.374573
33
93.491219
0
3DFACE
8
0
70
0
10
20.992794
20
238.058350
30
98.565018
11
20.701729
21
240.141052
31
101.210716
12
5.108577
22
232.882263
32
105.324562
13
8.919377
23
230.767273
33
102.393036
0
3DFACE
8
0
70
0
10
19.671061
20
218.517365
30
98.561661
11
9.089856
21
221.434814
31
104.466606
12
5.295217
22
221.765961
32
107.594704
13
19.649317
23
217.262848
33
101.555496
0
3DFACE
8
0
70
0
10
9.089856
20
221.434814
30
104.466606
11
8.919377
21
230.767273
31
102.393036
12
5.108577
22
232.882263
32
105.324562
13
5.295217
23
221.765961
33
107.594704
0
3DFACE
8
0
70
0
10
20.992794
20
238.058350
30
98.565018
11
31.953167
21
229.218170
31
86.411720
12
36.411465
22
231.334106
32
88.663292
13
20.701729
23
240.141052
33
101.210716
0
3DFACE
8
0
70
0
10
28.680254
20
218.816406
30
91.441406
11
31.914516
21
217.845032
31
94.136147
12
36.411465
22
231.334106
32
88.663292
13
31.953167
23
229.218170
33
86.411720
0
3DFACE
8
0
70
0
10
19.671061
20
218.517365
30
98.561661
11
19.649317
21
217.262848
31
101.555496
12
31.914516
22
217.845032
32
94.136147
13
28.680254
23
218.816406
33
91.441406
0
3DFACE
8
0
70
0
10
-2.023303
20
170.880676
30
12.382811
11
34.400761
21
164.967621
31
36.095001
12
55.516541
22
157.365356
32
6.270164
13
-1.695257
23
175.347839
33
9.903462
0
3DFACE
8
0
70
0
10
-1.695257
20
175.347839
30
9.903462
11
-58.032227
21
155.353455
31
7.324618
12
-37.111992
22
164.967621
32
38.377666
13
-2.023303
23
170.880676
33
12.382811
0
3DFACE
8
0
70
0
10
-58.032227
20
155.353455
30
7.324618
11
-50.219868
21
133.143677
31
68.996384
12
-37.111992
22
164.967621
32
38.377666
13
-37.111992
23
164.967621
33
38.377666
0
3DFACE
8
0
70
0
10
-50.219868
20
133.143677
30
68.996384
11
-28.728329
21
145.393188
31
71.009453
12
-37.111992
22
164.967621
32
38.377666
13
-37.111992
23
164.967621
33
38.377666
0
3DFACE
8
0
70
0
10
46.956097
20
133.143677
30
68.996384
11
34.400761
21
164.967621
31
36.095001
12
28.935160
22
145.393188
32
68.409126
13
28.935160
23
145.393188
33
68.409126
0
3DFACE
8
0
70
0
10
55.516541
20
157.365356
30
6.270164
11
34.400761
21
164.967621
31
36.095001
12
46.956097
22
133.143677
32
68.996384
13
46.956097
23
133.143677
33
68.996384
0
3DFACE
8
0
70
0
10
-1.558765
20
135.335419
30
80.118172
11
-28.728329
21
145.393188
31
71.009453
12
-50.219868
22
133.143677
32
68.996384
13
-50.219868
23
133.143677
33
68.996384
0
3DFACE
8
0
70
0
10
1.686336
20
127.522034
30
63.699245
11
-28.728329
21
145.393188
31
71.009453
12
-1.558765
22
135.335419
32
80.118172
13
-1.558765
23
135.335419
33
80.118172
0
3DFACE
8
0
70
0
10
1.686336
20
127.522034
30
63.699245
11
-1.558765
21
135.335419
31
80.118172
12
28.935160
22
145.393188
32
68.409126
13
28.935160
23
145.393188
33
68.409126
0
3DFACE
8
0
70
0
10
-1.558765
20
135.335419
30
80.118172
11
46.956097
21
133.143677
31
68.996384
12
28.935160
22
145.393188
32
68.409126
13
28.935160
23
145.393188
33
68.409126
0
3DFACE
8
0
70
0
10
-4.213246
20
241.980743
30
-8.058473
11
-1.543131
21
296.630280
31
24.760370
12
14.615121
22
300.067993
32
26.392441
13
37.567413
23
246.978516
33
7.429229
0
3DFACE
8
0
70
0
10
37.567413
20
246.978516
30
7.429229
11
14.615121
21
300.067993
31
26.392441
12
25.655619
22
305.170837
32
29.879211
13
58.776962
23
253.530212
33
26.349543
0
3DFACE
8
0
70
0
10
58.776962
20
253.530212
30
26.349543
11
25.655619
21
305.170837
31
29.879211
12
23.578621
22
310.390991
32
34.545490
13
54.403397
23
257.368896
33
49.672752
0
3DFACE
8
0
70
0
10
54.403397
20
257.368896
30
49.672752
11
23.578621
21
310.390991
31
34.545490
12
21.364126
22
316.862427
32
40.300682
13
47.629120
23
264.692169
33
77.608658
0
3DFACE
8
0
70
0
10
4.789331
20
267.130280
30
101.441521
11
23.903214
21
266.629303
31
92.426872
12
9.694853
22
320.004425
32
43.965912
13
0.229674
23
321.838074
33
46.323219
0
3DFACE
8
0
70
0
10
-4.213246
20
241.980743
30
-8.058473
11
-42.903324
21
246.978546
31
14.045156
12
-17.217850
22
300.067993
32
29.009596
13
-1.543131
23
296.630280
33
24.760370
0
3DFACE
8
0
70
0
10
-42.903324
20
246.978546
30
14.045156
11
-60.737873
21
253.530212
31
36.175495
12
-27.540602
22
305.170837
32
34.252750
13
-17.217850
23
300.067993
33
29.009596
0
3DFACE
8
0
70
0
10
-60.737873
20
253.530212
30
36.175495
11
-52.613731
21
257.368896
31
58.471199
12
-24.729370
22
310.390991
32
38.517143
13
-27.540602
23
305.170837
33
34.252750
0
3DFACE
8
0
70
0
10
-52.613731
20
257.368896
30
58.471199
11
-41.367744
21
264.692169
31
84.925568
12
-21.604630
22
316.862457
32
43.833366
13
-24.729370
23
310.390991
33
38.517143
0
3DFACE
8
0
70
0
10
4.789331
20
267.130280
30
101.441521
11
0.229674
21
321.838074
31
46.323219
12
-9.493421
22
320.004425
32
45.543480
13
-15.540226
23
266.629303
33
95.669724
0
3DFACE
8
0
70
0
10
47.629120
20
264.692169
30
77.608658
11
21.364126
21
316.862427
31
40.300682
12
9.694853
22
320.004425
32
43.965912
13
23.903214
23
266.629303
33
92.426872
0
3DFACE
8
0
70
0
10
-41.367744
20
264.692169
30
84.925568
11
-15.540226
21
266.629303
31
95.669724
12
-9.493421
22
320.004425
32
45.543480
13
-21.604630
23
316.862457
33
43.833366
0
3DFACE
8
0
70
0
10
-5.631212
20
307.000061
30
-24.453176
11
7.588109
21
298.390442
31
-29.750467
12
-6.528391
22
295.210602
32
-35.365761
13
-6.528391
23
295.210602
33
-35.365761
0
3DFACE
8
0
70
0
10
8.694778
20
304.750092
30
-16.289803
11
7.588109
21
298.390442
31
-29.750467
12
-5.631212
22
307.000061
32
-24.453176
13
-5.631212
23
307.000061
33
-24.453176
0
3DFACE
8
0
70
0
10
-4.315048
20
307.929901
30
-8.444376
11
8.694778
21
304.750092
31
-16.289803
12
-5.631212
22
307.000061
32
-24.453176
13
-5.631212
23
307.000061
33
-24.453176
0
3DFACE
8
0
70
0
10
-4.315048
20
307.929901
30
-8.444376
11
-5.631212
21
307.000061
31
-24.453176
12
-18.431511
22
304.750092
32
-14.059615
13
-18.431511
23
304.750092
33
-14.059615
0
3DFACE
8
0
70
0
10
-18.431511
20
304.750092
30
-14.059615
11
-5.631212
21
307.000061
31
-24.453176
12
-19.538181
22
298.390472
32
-27.520281
13
-19.538181
23
298.390472
33
-27.520281
0
3DFACE
8
0
70
0
10
-5.631212
20
307.000061
30
-24.453176
11
-6.528391
21
295.210602
31
-35.365761
12
-19.538181
22
298.390472
32
-27.520281
13
-19.538181
23
298.390472
33
-27.520281
0
3DFACE
8
0
70
0
10
7.588109
20
298.390442
30
-29.750467
11
13.482686
21
283.964630
31
-26.848471
12
-6.481025
22
279.467712
32
-34.789627
13
-6.528391
23
295.210602
33
-35.365761
0
3DFACE
8
0
70
0
10
15.047760
20
292.958557
30
-7.812144
11
13.482686
21
283.964630
31
-26.848471
12
7.588109
22
298.390442
32
-29.750467
13
8.694778
23
304.750092
33
-16.289803
0
3DFACE
8
0
70
0
10
-3.350886
20
297.455475
30
3.282945
11
15.047760
21
292.958557
31
-7.812144
12
8.694778
22
304.750092
32
-16.289803
13
-4.315048
23
307.929901
33
-8.444376
0
3DFACE
8
0
70
0
10
-3.350886
20
297.455475
30
3.282945
11
-4.315048
21
307.929901
31
-8.444376
12
-18.431511
22
304.750092
32
-14.059615
13
-23.314598
23
292.958557
33
-4.658185
0
3DFACE
8
0
70
0
10
-23.314598
20
292.958557
30
-4.658185
11
-18.431511
21
304.750092
31
-14.059615
12
-19.538181
22
298.390472
32
-27.520281
13
-24.879673
23
283.964661
33
-23.694513
0
3DFACE
8
0
70
0
10
-19.538181
20
298.390472
30
-27.520281
11
-6.528391
21
295.210602
31
-35.365761
12
-6.481025
22
279.467712
32
-34.789627
13
-24.879673
23
283.964661
33
-23.694513
0
3DFACE
8
0
70
0
10
8.599638
20
272.173126
30
-17.446987
11
-5.516860
21
268.993286
31
-23.062279
12
-6.481025
22
279.467712
32
-34.789627
13
13.482686
23
283.964630
33
-26.848471
0
3DFACE
8
0
70
0
10
15.047760
20
292.958557
30
-7.812144
11
9.706307
21
278.532745
31
-3.986323
12
8.599638
22
272.173126
32
-17.446987
13
13.482686
23
283.964630
33
-26.848471
0
3DFACE
8
0
70
0
10
-3.350886
20
297.455475
30
3.282945
11
-3.303517
21
281.712585
31
3.859104
12
9.706307
22
278.532745
32
-3.986323
13
15.047760
23
292.958557
33
-7.812144
0
3DFACE
8
0
70
0
10
-3.350886
20
297.455475
30
3.282945
11
-23.314598
21
292.958557
31
-4.658185
12
-17.419981
22
278.532776
32
-1.756135
13
-3.303517
23
281.712585
33
3.859104
0
3DFACE
8
0
70
0
10
-23.314598
20
292.958557
30
-4.658185
11
-24.879673
21
283.964661
31
-23.694513
12
-18.526649
22
272.173126
32
-15.216800
13
-17.419981
23
278.532776
33
-1.756135
0
3DFACE
8
0
70
0
10
-18.526649
20
272.173126
30
-15.216800
11
-24.879673
21
283.964661
31
-23.694513
12
-6.481025
22
279.467712
32
-34.789627
13
-5.516860
23
268.993286
33
-23.062279
0
3DFACE
8
0
70
0
10
-4.200700
20
269.923157
30
-7.053420
11
-5.516860
21
268.993286
31
-23.062279
12
8.599638
22
272.173126
32
-17.446987
13
8.599638
23
272.173126
33
-17.446987
0
3DFACE
8
0
70
0
10
9.706307
20
278.532745
30
-3.986323
11
-4.200700
21
269.923157
31
-7.053420
12
8.599638
22
272.173126
32
-17.446987
13
8.599638
23
272.173126
33
-17.446987
0
3DFACE
8
0
70
0
10
-3.303517
20
281.712585
30
3.859104
11
-4.200700
21
269.923157
31
-7.053420
12
9.706307
22
278.532745
32
-3.986323
13
9.706307
23
278.532745
33
-3.986323
0
3DFACE
8
0
70
0
10
-3.303517
20
281.712585
30
3.859104
11
-17.419981
21
278.532776
31
-1.756135
12
-4.200700
22
269.923157
32
-7.053420
13
-4.200700
23
269.923157
33
-7.053420
0
3DFACE
8
0
70
0
10
-17.419981
20
278.532776
30
-1.756135
11
-18.526649
21
272.173126
31
-15.216800
12
-4.200700
22
269.923157
32
-7.053420
13
-4.200700
23
269.923157
33
-7.053420
0
3DFACE
8
0
70
0
10
-4.200700
20
269.923157
30
-7.053420
11
-18.526649
21
272.173126
31
-15.216800
12
-5.516860
22
268.993286
32
-23.062279
13
-5.516860
23
268.993286
33
-23.062279
0
3DFACE
8
0
70
0
10
30.648220
20
188.859619
30
97.515907
11
52.040192
21
193.652527
31
74.368958
12
42.217659
22
204.919769
32
97.929840
13
42.217659
23
204.919769
33
97.929840
0
3DFACE
8
0
70
0
10
52.040192
20
193.652527
30
74.368958
11
48.944008
21
203.179382
31
74.128555
12
42.217659
22
204.919769
32
97.929840
13
42.217659
23
204.919769
33
97.929840
0
3DFACE
8
0
70
0
10
16.574635
20
186.903931
30
104.849121
11
30.648220
21
188.859619
31
97.515907
12
27.880854
22
205.405701
32
102.117859
13
27.880854
23
205.405701
33
102.117859
0
3DFACE
8
0
70
0
10
30.648220
20
188.859619
30
97.515907
11
42.217659
21
204.919769
31
97.929840
12
27.880854
22
205.405701
32
102.117859
13
27.880854
23
205.405701
33
102.117859
0
3DFACE
8
0
70
0
10
42.217659
20
204.919769
30
97.929840
11
48.944008
21
203.179382
31
74.128555
12
31.914516
22
217.845032
32
94.136147
13
31.914516
23
217.845032
33
94.136147
0
3DFACE
8
0
70
0
10
48.944008
20
203.179382
30
74.128555
11
46.404789
21
216.215790
31
73.043518
12
31.914516
22
217.845032
32
94.136147
13
31.914516
23
217.845032
33
94.136147
0
3DFACE
8
0
70
0
10
27.880854
20
205.405701
30
102.117859
11
31.914516
21
217.845032
31
94.136147
12
19.649317
22
217.262848
32
101.555496
13
19.649317
23
217.262848
33
101.555496
0
3DFACE
8
0
70
0
10
42.217659
20
204.919769
30
97.929840
11
31.914516
21
217.845032
31
94.136147
12
27.880854
22
205.405701
32
102.117859
13
27.880854
23
205.405701
33
102.117859
0
3DFACE
8
0
70
0
10
31.914516
20
217.845032
30
94.136147
11
46.404789
21
216.215790
31
73.043518
12
36.411465
22
231.334106
32
88.663292
13
36.411465
23
231.334106
33
88.663292
0
3DFACE
8
0
70
0
10
46.404789
20
216.215790
30
73.043518
11
48.255707
21
225.233368
31
71.480621
12
36.411465
22
231.334106
32
88.663292
13
36.411465
23
231.334106
33
88.663292
0
3DFACE
8
0
70
0
10
-46.248714
20
193.652527
30
82.449814
11
-32.709965
21
204.919800
31
104.090042
12
-43.233372
22
203.179382
32
81.706947
13
-43.233372
23
203.179382
33
81.706947
0
3DFACE
8
0
70
0
10
-21.363483
20
188.859619
30
101.792068
11
-32.709965
21
204.919800
31
104.090042
12
-46.248714
22
193.652527
32
82.449814
13
-46.248714
23
193.652527
33
82.449814
0
3DFACE
8
0
70
0
10
-21.363483
20
188.859619
30
101.792068
11
-17.881655
21
205.405701
31
105.880241
12
-32.709965
22
204.919800
32
104.090042
13
-32.709965
23
204.919800
33
104.090042
0
3DFACE
8
0
70
0
10
-6.281170
20
186.903931
30
106.728218
11
-17.881655
21
205.405701
31
105.880241
12
-21.363483
22
188.859619
32
101.792068
13
-21.363483
23
188.859619
33
101.792068
0
3DFACE
8
0
70
0
10
-43.233372
20
203.179382
30
81.706947
11
-22.295675
21
217.845032
31
98.593056
12
-40.905468
22
216.215790
32
80.221756
13
-40.905468
23
216.215790
33
80.221756
0
3DFACE
8
0
70
0
10
-32.709965
20
204.919800
30
104.090042
11
-22.295675
21
217.845032
31
98.593056
12
-43.233372
22
203.179382
32
81.706947
13
-43.233372
23
203.179382
33
81.706947
0
3DFACE
8
0
70
0
10
-17.881655
20
205.405701
30
105.880241
11
-9.852502
21
217.262848
31
103.981003
12
-22.295675
22
217.845032
32
98.593056
13
-22.295675
23
217.845032
33
98.593056
0
3DFACE
8
0
70
0
10
-32.709965
20
204.919800
30
104.090042
11
-17.881655
21
205.405701
31
105.880241
12
-22.295675
22
217.845032
32
98.593056
13
-22.295675
23
217.845032
33
98.593056
0
3DFACE
8
0
70
0
10
-40.905468
20
216.215790
30
80.221756
11
-27.626102
21
231.334106
31
93.928162
12
-42.986790
22
225.233368
32
78.982155
13
-42.986790
23
225.233368
33
78.982155
0
3DFACE
8
0
70
0
10
-22.295675
20
217.845032
30
98.593056
11
-27.626102
21
231.334106
31
93.928162
12
-40.905468
22
216.215790
32
80.221756
13
-40.905468
23
216.215790
33
80.221756
0
3DFACE
8
0
70
0
10
42.047558
20
-79.038712
30
55.496716
11
33.700401
21
-55.226326
31
38.871990
12
23.893387
22
-65.617859
32
12.403988
13
23.893387
23
-65.617859
33
12.403988
0
3DFACE
8
0
70
0
10
42.047558
20
-79.038712
30
55.496716
11
23.893387
21
-65.617859
31
12.403988
12
31.928015
22
-82.768715
32
31.564711
13
31.928015
23
-82.768715
33
31.564711
0
3DFACE
8
0
70
0
10
42.047558
20
-79.038712
30
55.496716
11
67.281540
21
-50.920166
31
20.360237
12
33.700401
22
-55.226326
32
38.871990
13
33.700401
23
-55.226326
33
38.871990
0
3DFACE
8
0
70
0
10
42.047558
20
-79.038712
30
55.496716
11
70.705727
21
-74.922432
31
39.054241
12
67.281540
22
-50.920166
32
20.360237
13
67.281540
23
-50.920166
33
20.360237
0
3DFACE
8
0
70
0
10
70.705727
20
-74.922432
30
39.054241
11
73.953392
21
-54.790520
31
0.190750
12
67.281540
22
-50.920166
32
20.360237
13
67.281540
23
-50.920166
33
20.360237
0
3DFACE
8
0
70
0
10
70.705727
20
-74.922432
30
39.054241
11
75.985367
21
-75.329559
31
20.800594
12
73.953392
22
-54.790520
32
0.190750
13
73.953392
23
-54.790520
33
0.190750
0
3DFACE
8
0
70
0
10
34.817307
20
-84.389275
30
3.316413
11
23.893387
21
-65.617859
31
12.403988
12
27.023523
22
-73.567688
32
-18.464121
13
27.023523
23
-73.567688
33
-18.464121
0
3DFACE
8
0
70
0
10
31.928015
20
-82.768715
30
31.564711
11
23.893387
21
-65.617859
31
12.403988
12
34.817307
22
-84.389275
32
3.316413
13
34.817307
23
-84.389275
33
3.316413
0
3DFACE
8
0
70
0
10
66.006065
20
-78.400299
30
5.137044
11
62.941566
21
-62.842056
31
-16.908236
12
73.953392
22
-54.790520
32
0.190750
13
73.953392
23
-54.790520
33
0.190750
0
3DFACE
8
0
70
0
10
75.985367
20
-75.329559
30
20.800594
11
66.006065
21
-78.400299
31
5.137044
12
73.953392
22
-54.790520
32
0.190750
13
73.953392
23
-54.790520
33
0.190750
0
3DFACE
8
0
70
0
10
34.817307
20
-84.389275
30
3.316413
11
27.023523
21
-73.567688
31
-18.464121
12
62.941566
22
-62.842056
32
-16.908236
13
62.941566
23
-62.842056
33
-16.908236
0
3DFACE
8
0
70
0
10
66.006065
20
-78.400299
30
5.137044
11
34.817307
21
-84.389275
31
3.316413
12
62.941566
22
-62.842056
32
-16.908236
13
62.941566
23
-62.842056
33
-16.908236
0
3DFACE
8
0
70
0
10
-38.743366
20
-79.645729
30
53.616173
11
-30.899624
21
-83.354424
31
28.260433
12
-24.504242
22
-66.021530
32
8.190475
13
-24.504242
23
-66.021530
33
8.190475
0
3DFACE
8
0
70
0
10
-38.743366
20
-79.645729
30
53.616173
11
-24.504242
21
-66.021530
31
8.190475
12
-31.752426
22
-55.691353
32
36.083046
13
-31.752426
23
-55.691353
33
36.083046
0
3DFACE
8
0
70
0
10
-38.743366
20
-79.645729
30
53.616173
11
-31.752426
21
-55.691353
31
36.083046
12
-66.733162
22
-50.056137
32
23.039532
13
-66.733162
23
-50.056137
33
23.039532
0
3DFACE
8
0
70
0
10
-38.743366
20
-79.645729
30
53.616173
11
-66.733162
21
-50.056137
31
23.039532
12
-68.650780
22
-74.385551
32
41.850487
13
-68.650780
23
-74.385551
33
41.850487
0
3DFACE
8
0
70
0
10
-68.650780
20
-74.385551
30
41.850487
11
-66.733162
21
-50.056137
31
23.039532
12
-75.218506
22
-53.429863
32
4.045646
13
-75.218506
23
-53.429863
33
4.045646
0
3DFACE
8
0
70
0
10
-68.650780
20
-74.385551
30
41.850487
11
-75.218506
21
-53.429863
31
4.045646
12
-75.551498
22
-74.364243
32
24.575001
13
-75.551498
23
-74.364243
33
24.575001
0
3DFACE
8
0
70
0
10
-36.344223
20
-84.479431
30
0.687241
11
-30.478096
21
-73.436493
31
-22.010340
12
-24.504242
22
-66.021530
32
8.190475
13
-24.504242
23
-66.021530
33
8.190475
0
3DFACE
8
0
70
0
10
-30.899624
20
-83.354424
30
28.260433
11
-36.344223
21
-84.479431
31
0.687241
12
-24.504242
22
-66.021530
32
8.190475
13
-24.504242
23
-66.021530
33
8.190475
0
3DFACE
8
0
70
0
10
-75.551498
20
-74.364243
30
24.575001
11
-75.218506
21
-53.429863
31
4.045646
12
-67.091331
22
-77.527458
32
7.446678
13
-67.091331
23
-77.527458
33
7.446678
0
3DFACE
8
0
70
0
10
-67.091331
20
-77.527458
30
7.446678
11
-75.218506
21
-53.429863
31
4.045646
12
-65.904846
22
-61.590485
32
-14.721170
13
-65.904846
23
-61.590485
33
-14.721170
0
3DFACE
8
0
70
0
10
-67.091331
20
-77.527458
30
7.446678
11
-65.904846
21
-61.590485
31
-14.721170
12
-36.344223
22
-84.479431
32
0.687241
13
-36.344223
23
-84.479431
33
0.687241
0
3DFACE
8
0
70
0
10
-36.344223
20
-84.479431
30
0.687241
11
-65.904846
21
-61.590485
31
-14.721170
12
-30.478096
22
-73.436493
32
-22.010340
13
-30.478096
23
-73.436493
33
-22.010340
0
3DFACE
8
0
70
0
10
39.479206
20
-102.949219
30
30.607979
11
42.047558
21
-79.038712
31
55.496716
12
31.928015
22
-82.768715
32
31.564711
13
31.928015
23
-82.768715
33
31.564711
0
3DFACE
8
0
70
0
10
30.687769
20
-127.947495
30
-1.398396
11
39.479206
21
-102.949219
31
30.607979
12
31.928015
22
-82.768715
32
31.564711
13
31.928015
23
-82.768715
33
31.564711
0
3DFACE
8
0
70
0
10
68.259964
20
-104.821747
30
13.871284
11
70.705727
21
-74.922432
31
39.054241
12
39.479206
22
-102.949219
32
30.607979
13
39.479206
23
-102.949219
33
30.607979
0
3DFACE
8
0
70
0
10
39.479206
20
-102.949219
30
30.607979
11
70.705727
21
-74.922432
31
39.054241
12
42.047558
22
-79.038712
32
55.496716
13
42.047558
23
-79.038712
33
55.496716
0
3DFACE
8
0
70
0
10
74.074791
20
-123.917480
30
-9.490894
11
75.985367
21
-75.329559
31
20.800594
12
68.259964
22
-104.821747
32
13.871284
13
68.259964
23
-104.821747
33
13.871284
0
3DFACE
8
0
70
0
10
68.259964
20
-104.821747
30
13.871284
11
75.985367
21
-75.329559
31
20.800594
12
70.705727
22
-74.922432
32
39.054241
13
70.705727
23
-74.922432
33
39.054241
0
3DFACE
8
0
70
0
10
30.687769
20
-127.947495
30
-1.398396
11
31.928015
21
-82.768715
31
31.564711
12
34.817307
22
-84.389275
32
3.316413
13
34.817307
23
-84.389275
33
3.316413
0
3DFACE
8
0
70
0
10
13.413674
20
-155.201172
30
-33.940392
11
30.687769
21
-127.947495
31
-1.398396
12
34.817307
22
-84.389275
32
3.316413
13
34.817307
23
-84.389275
33
3.316413
0
3DFACE
8
0
70
0
10
77.603142
20
-148.327469
30
-43.733681
11
66.006065
21
-78.400299
31
5.137044
12
74.074791
22
-123.917480
32
-9.490894
13
74.074791
23
-123.917480
33
-9.490894
0
3DFACE
8
0
70
0
10
74.074791
20
-123.917480
30
-9.490894
11
66.006065
21
-78.400299
31
5.137044
12
75.985367
22
-75.329559
32
20.800594
13
75.985367
23
-75.329559
33
20.800594
0
3DFACE
8
0
70
0
10
13.413674
20
-155.201172
30
-33.940392
11
34.817307
21
-84.389275
31
3.316413
12
77.603142
22
-148.327469
32
-43.733681
13
77.603142
23
-148.327469
33
-43.733681
0
3DFACE
8
0
70
0
10
77.603142
20
-148.327469
30
-43.733681
11
34.817307
21
-84.389275
31
3.316413
12
66.006065
22
-78.400299
32
5.137044
13
66.006065
23
-78.400299
33
5.137044
0
3DFACE
8
0
70
0
10
-33.258965
20
-128.201309
30
-4.221431
11
-30.899624
21
-83.354424
31
28.260433
12
-39.431557
22
-103.329803
32
28.926058
13
-39.431557
23
-103.329803
33
28.926058
0
3DFACE
8
0
70
0
10
-39.431557
20
-103.329803
30
28.926058
11
-30.899624
21
-83.354424
31
28.260433
12
-38.743366
22
-79.645729
32
53.616173
13
-38.743366
23
-79.645729
33
53.616173
0
3DFACE
8
0
70
0
10
-39.431557
20
-103.329803
30
28.926058
11
-38.743366
21
-79.645729
31
53.616173
12
-68.650780
22
-74.385551
32
41.850487
13
-68.650780
23
-74.385551
33
41.850487
0
3DFACE
8
0
70
0
10
-69.399338
20
-104.308304
30
15.703961
11
-39.431557
21
-103.329803
31
28.926058
12
-68.650780
22
-74.385551
32
41.850487
13
-68.650780
23
-74.385551
33
41.850487
0
3DFACE
8
0
70
0
10
-69.399338
20
-104.308304
30
15.703961
11
-68.650780
21
-74.385551
31
41.850487
12
-75.551498
22
-74.364243
32
24.575001
13
-75.551498
23
-74.364243
33
24.575001
0
3DFACE
8
0
70
0
10
-77.106247
20
-123.008186
30
-7.016219
11
-69.399338
21
-104.308304
31
15.703961
12
-75.551498
22
-74.364243
32
24.575001
13
-75.551498
23
-74.364243
33
24.575001
0
3DFACE
8
0
70
0
10
-18.683914
20
-155.532822
30
-38.944210
11
-36.344223
21
-84.479431
31
0.687241
12
-33.258965
22
-128.201309
32
-4.221431
13
-33.258965
23
-128.201309
33
-4.221431
0
3DFACE
8
0
70
0
10
-33.258965
20
-128.201309
30
-4.221431
11
-36.344223
21
-84.479431
31
0.687241
12
-30.899624
22
-83.354424
32
28.260433
13
-30.899624
23
-83.354424
33
28.260433
0
3DFACE
8
0
70
0
10
-77.106247
20
-123.008186
30
-7.016219
11
-75.551498
21
-74.364243
31
24.575001
12
-67.091331
22
-77.527458
32
7.446678
13
-67.091331
23
-77.527458
33
7.446678
0
3DFACE
8
0
70
0
10
-83.384926
20
-146.961807
30
-40.899551
11
-77.106247
21
-123.008186
31
-7.016219
12
-67.091331
22
-77.527458
32
7.446678
13
-67.091331
23
-77.527458
33
7.446678
0
3DFACE
8
0
70
0
10
-83.384926
20
-146.961807
30
-40.899551
11
-67.091331
21
-77.527458
31
7.446678
12
-36.344223
22
-84.479431
32
0.687241
13
-36.344223
23
-84.479431
33
0.687241
0
3DFACE
8
0
70
0
10
-18.683914
20
-155.532822
30
-38.944210
11
-83.384926
21
-146.961807
31
-40.899551
12
-36.344223
22
-84.479431
32
0.687241
13
-36.344223
23
-84.479431
33
0.687241
0
3DFACE
8
0
70
0
10
84.917114
20
27.536819
30
88.880112
11
-1.558767
21
48.289215
31
133.914856
12
-1.558766
22
29.364746
32
121.506073
13
-1.558766
23
29.364746
33
121.506073
0
3DFACE
8
0
70
0
10
84.917114
20
27.536819
30
88.880112
11
85.695496
21
63.057251
31
101.532837
12
-1.558767
22
48.289215
32
133.914856
13
-1.558767
23
48.289215
33
133.914856
0
3DFACE
8
0
70
0
10
84.917122
20
18.462631
30
-78.417198
11
-1.622375
21
17.012604
31
-110.759026
12
-1.558755
22
52.352081
32
-102.560074
13
-1.558755
23
52.352081
33
-102.560074
0
3DFACE
8
0
70
0
10
84.917122
20
18.462631
30
-78.417198
11
-1.558755
21
52.352081
31
-102.560074
12
85.695511
22
54.003464
32
-65.388474
13
85.695511
23
54.003464
33
-65.388474
0
3DFACE
8
0
70
0
10
84.917114
20
27.536819
30
88.880112
11
106.728821
21
58.024765
31
8.750656
12
85.695496
22
63.057251
32
101.532837
13
85.695496
23
63.057251
33
101.532837
0
3DFACE
8
0
70
0
10
84.917114
20
27.536819
30
88.880112
11
105.769127
21
23.122345
31
7.492236
12
106.728821
22
58.024765
32
8.750656
13
106.728821
23
58.024765
33
8.750656
0
3DFACE
8
0
70
0
10
105.769127
20
23.122345
30
7.492236
11
84.917122
21
18.462631
31
-78.417198
12
85.695511
22
54.003464
32
-65.388474
13
85.695511
23
54.003464
33
-65.388474
0
3DFACE
8
0
70
0
10
105.769127
20
23.122345
30
7.492236
11
85.695511
21
54.003464
31
-65.388474
12
106.728821
22
58.024765
32
8.750656
13
106.728821
23
58.024765
33
8.750656
0
3DFACE
8
0
70
0
10
-88.034645
20
27.536819
30
88.880127
11
-1.558766
21
29.364746
31
121.506073
12
-1.558767
22
48.289215
32
133.914856
13
-1.558767
23
48.289215
33
133.914856
0
3DFACE
8
0
70
0
10
-88.034645
20
27.536819
30
88.880127
11
-1.558767
21
48.289215
31
133.914856
12
-88.813026
22
63.057251
32
101.532845
13
-88.813026
23
63.057251
33
101.532845
0
3DFACE
8
0
70
0
10
-88.034637
20
18.462631
30
-78.417191
11
-1.558755
21
52.352081
31
-102.560074
12
-1.622375
22
17.012604
32
-110.759026
13
-1.622375
23
17.012604
33
-110.759026
0
3DFACE
8
0
70
0
10
-88.034637
20
18.462631
30
-78.417191
11
-88.813019
21
54.003464
31
-65.388466
12
-1.558755
22
52.352081
32
-102.560074
13
-1.558755
23
52.352081
33
-102.560074
0
3DFACE
8
0
70
0
10
-88.034645
20
27.536819
30
88.880127
11
-109.846344
21
58.024765
31
8.750671
12
-108.886635
22
23.122360
32
7.492251
13
-108.886635
23
23.122360
33
7.492251
0
3DFACE
8
0
70
0
10
-88.034645
20
27.536819
30
88.880127
11
-88.813026
21
63.057251
31
101.532845
12
-109.846344
22
58.024765
32
8.750671
13
-109.846344
23
58.024765
33
8.750671
0
3DFACE
8
0
70
0
10
-108.886635
20
23.122360
30
7.492251
11
-109.846344
21
58.024765
31
8.750671
12
-88.813019
22
54.003464
32
-65.388466
13
-88.813019
23
54.003464
33
-65.388466
0
3DFACE
8
0
70
0
10
-108.886635
20
23.122360
30
7.492251
11
-88.813019
21
54.003464
31
-65.388466
12
-88.034637
22
18.462631
32
-78.417191
13
-88.034637
23
18.462631
33
-78.417191
0
3DFACE
8
0
70
0
10
-1.558767
20
48.289215
30
133.914856
11
46.956097
21
133.143677
31
68.996384
12
-1.558765
22
135.335419
32
80.118172
13
-1.558765
23
135.335419
33
80.118172
0
3DFACE
8
0
70
0
10
-1.558767
20
48.289215
30
133.914856
11
85.695496
21
63.057251
31
101.532837
12
46.956097
22
133.143677
32
68.996384
13
46.956097
23
133.143677
33
68.996384
0
3DFACE
8
0
70
0
10
85.695511
20
54.003464
30
-65.388474
11
-1.558755
21
52.352081
31
-102.560074
12
47.529945
22
149.826965
32
-33.197605
13
47.529945
23
149.826965
33
-33.197605
0
3DFACE
8
0
70
0
10
-1.558755
20
52.352081
30
-102.560074
11
-1.710421
21
151.412323
31
-43.964493
12
47.529945
22
149.826965
32
-33.197605
13
47.529945
23
149.826965
33
-33.197605
0
3DFACE
8
0
70
0
10
85.695496
20
63.057251
30
101.532837
11
88.658539
21
103.706696
31
14.994319
12
72.256523
22
137.397705
32
55.001255
13
72.256523
23
137.397705
33
55.001255
0
3DFACE
8
0
70
0
10
85.695496
20
63.057251
30
101.532837
11
106.728821
21
58.024765
31
8.750656
12
88.658539
22
103.706696
32
14.994319
13
88.658539
23
103.706696
33
14.994319
0
3DFACE
8
0
70
0
10
85.695511
20
54.003464
30
-65.388474
11
70.995667
21
124.589050
31
-26.208330
12
88.658539
22
103.706696
32
14.994319
13
88.658539
23
103.706696
33
14.994319
0
3DFACE
8
0
70
0
10
106.728821
20
58.024765
30
8.750656
11
85.695511
21
54.003464
31
-65.388474
12
88.658539
22
103.706696
32
14.994319
13
88.658539
23
103.706696
33
14.994319
0
3DFACE
8
0
70
0
10
85.695496
20
63.057251
30
101.532837
11
72.256523
21
137.397705
31
55.001255
12
46.956097
22
133.143677
32
68.996384
13
46.956097
23
133.143677
33
68.996384
0
3DFACE
8
0
70
0
10
85.695511
20
54.003464
30
-65.388474
11
47.529945
21
149.826965
31
-33.197605
12
70.995667
22
124.589050
32
-26.208330
13
70.995667
23
124.589050
33
-26.208330
0
3DFACE
8
0
70
0
10
-1.558767
20
48.289215
30
133.914856
11
-50.219868
21
133.143677
31
68.996384
12
-88.813026
22
63.057251
32
101.532845
13
-88.813026
23
63.057251
33
101.532845
0
3DFACE
8
0
70
0
10
-1.558767
20
48.289215
30
133.914856
11
-1.558765
21
135.335419
31
80.118172
12
-50.219868
22
133.143677
32
68.996384
13
-50.219868
23
133.143677
33
68.996384
0
3DFACE
8
0
70
0
10
-88.813019
20
54.003464
30
-65.388466
11
-50.833595
21
149.826965
31
-33.197601
12
-1.558755
22
52.352081
32
-102.560074
13
-1.558755
23
52.352081
33
-102.560074
0
3DFACE
8
0
70
0
10
-1.558755
20
52.352081
30
-102.560074
11
-50.833595
21
149.826965
31
-33.197601
12
-1.710421
22
151.412323
32
-43.964493
13
-1.710421
23
151.412323
33
-43.964493
0
3DFACE
8
0
70
0
10
-88.813026
20
63.057251
30
101.532845
11
-76.284729
21
130.684204
31
53.670414
12
-96.260658
22
105.581024
32
8.414029
13
-96.260658
23
105.581024
33
8.414029
0
3DFACE
8
0
70
0
10
-88.813026
20
63.057251
30
101.532845
11
-96.260658
21
105.581024
31
8.414029
12
-109.846344
22
58.024765
32
8.750671
13
-109.846344
23
58.024765
33
8.750671
0
3DFACE
8
0
70
0
10
-109.846344
20
58.024765
30
8.750671
11
-96.260658
21
105.581024
31
8.414029
12
-88.813019
22
54.003464
32
-65.388466
13
-88.813019
23
54.003464
33
-65.388466
0
3DFACE
8
0
70
0
10
-88.813019
20
54.003464
30
-65.388466
11
-96.260658
21
105.581024
31
8.414029
12
-76.813461
22
128.414734
32
-29.196291
13
-76.813461
23
128.414734
33
-29.196291
0
3DFACE
8
0
70
0
10
-88.813026
20
63.057251
30
101.532845
11
-50.219868
21
133.143677
31
68.996384
12
-76.284729
22
130.684204
32
53.670414
13
-76.284729
23
130.684204
33
53.670414
0
3DFACE
8
0
70
0
10
-88.813019
20
54.003464
30
-65.388466
11
-76.813461
21
128.414734
31
-29.196291
12
-50.833595
22
149.826965
32
-33.197601
13
-50.833595
23
149.826965
33
-33.197601
0
3DFACE
8
0
70
0
10
88.658539
20
103.706696
30
14.994319
11
144.076385
21
118.825165
31
42.806038
12
72.256523
22
137.397705
32
55.001255
13
72.256523
23
137.397705
33
55.001255
0
3DFACE
8
0
70
0
10
160.525131
20
77.346252
30
24.272709
11
144.076385
21
118.825165
31
42.806038
12
88.658539
22
103.706696
32
14.994319
13
88.658539
23
103.706696
33
14.994319
0
3DFACE
8
0
70
0
10
72.256523
20
137.397705
30
55.001255
11
176.786499
21
127.197510
31
1.895898
12
55.516541
22
157.365356
32
6.270164
13
55.516541
23
157.365356
33
6.270164
0
3DFACE
8
0
70
0
10
72.256523
20
137.397705
30
55.001255
11
144.076385
21
118.825165
31
42.806038
12
176.786499
22
127.197510
32
1.895898
13
176.786499
23
127.197510
33
1.895898
0
3DFACE
8
0
70
0
10
70.995667
20
124.589050
30
-26.208330
11
55.516541
21
157.365356
31
6.270164
12
176.786499
22
127.197510
32
1.895898
13
176.786499
23
127.197510
33
1.895898
0
3DFACE
8
0
70
0
10
70.995667
20
124.589050
30
-26.208330
11
176.786499
21
127.197510
31
1.895898
12
188.008026
22
86.792603
32
-10.207452
13
188.008026
23
86.792603
33
-10.207452
0
3DFACE
8
0
70
0
10
88.658539
20
103.706696
30
14.994319
11
70.995667
21
124.589050
31
-26.208330
12
188.008026
22
86.792603
32
-10.207452
13
188.008026
23
86.792603
33
-10.207452
0
3DFACE
8
0
70
0
10
160.525131
20
77.346252
30
24.272709
11
88.658539
21
103.706696
31
14.994319
12
188.008026
22
86.792603
32
-10.207452
13
188.008026
23
86.792603
33
-10.207452
0
3DFACE
8
0
70
0
10
-96.260658
20
105.581024
30
8.414029
11
-76.284729
21
130.684204
31
53.670414
12
-151.196075
22
123.079956
32
38.231285
13
-151.196075
23
123.079956
33
38.231285
0
3DFACE
8
0
70
0
10
-180.342636
20
102.756500
30
5.517580
11
-96.260658
21
105.581024
31
8.414029
12
-151.196075
22
123.079956
32
38.231285
13
-151.196075
23
123.079956
33
38.231285
0
3DFACE
8
0
70
0
10
-76.284729
20
130.684204
30
53.670414
11
-58.032227
21
155.353455
31
7.324618
12
-176.734497
22
159.521149
32
9.396181
13
-176.734497
23
159.521149
33
9.396181
0
3DFACE
8
0
70
0
10
-76.284729
20
130.684204
30
53.670414
11
-176.734497
21
159.521149
31
9.396181
12
-151.196075
22
123.079956
32
38.231285
13
-151.196075
23
123.079956
33
38.231285
0
3DFACE
8
0
70
0
10
-76.813461
20
128.414734
30
-29.196291
11
-176.734497
21
159.521149
31
9.396181
12
-58.032227
22
155.353455
32
7.324618
13
-58.032227
23
155.353455
33
7.324618
0
3DFACE
8
0
70
0
10
-76.813461
20
128.414734
30
-29.196291
11
-200.939209
21
135.414490
31
-17.748056
12
-176.734497
22
159.521149
32
9.396181
13
-176.734497
23
159.521149
33
9.396181
0
3DFACE
8
0
70
0
10
-96.260658
20
105.581024
30
8.414029
11
-200.939209
21
135.414490
31
-17.748056
12
-76.813461
22
128.414734
32
-29.196291
13
-76.813461
23
128.414734
33
-29.196291
0
3DFACE
8
0
70
0
10
-180.342636
20
102.756500
30
5.517580
11
-200.939209
21
135.414490
31
-17.748056
12
-96.260658
22
105.581024
32
8.414029
13
-96.260658
23
105.581024
33
8.414029
0
3DFACE
8
0
70
0
10
-195.345016
20
96.971069
30
48.523304
11
-180.342636
21
102.756500
31
5.517580
12
-151.196075
22
123.079956
32
38.231285
13
-151.196075
23
123.079956
33
38.231285
0
3DFACE
8
0
70
0
10
-195.345016
20
96.971069
30
48.523304
11
-151.196075
21
123.079956
31
38.231285
12
-152.790115
22
120.085022
32
52.675758
13
-152.790115
23
120.085022
33
52.675758
0
3DFACE
8
0
70
0
10
-152.790115
20
120.085022
30
52.675758
11
-151.196075
21
123.079956
31
38.231285
12
-176.734497
22
159.521149
32
9.396181
13
-176.734497
23
159.521149
33
9.396181
0
3DFACE
8
0
70
0
10
-152.790115
20
120.085022
30
52.675758
11
-176.734497
21
159.521149
31
9.396181
12
-192.738205
22
154.406494
32
59.710571
13
-192.738205
23
154.406494
33
59.710571
0
3DFACE
8
0
70
0
10
-227.679291
20
128.257751
30
54.901691
11
-192.738205
21
154.406494
31
59.710571
12
-176.734497
22
159.521149
32
9.396181
13
-176.734497
23
159.521149
33
9.396181
0
3DFACE
8
0
70
0
10
-227.679291
20
128.257751
30
54.901691
11
-176.734497
21
159.521149
31
9.396181
12
-200.939209
22
135.414490
32
-17.748056
13
-200.939209
23
135.414490
33
-17.748056
0
3DFACE
8
0
70
0
10
-195.345016
20
96.971069
30
48.523304
11
-227.679291
21
128.257751
31
54.901691
12
-200.939209
22
135.414490
32
-17.748056
13
-200.939209
23
135.414490
33
-17.748056
0
3DFACE
8
0
70
0
10
-195.345016
20
96.971069
30
48.523304
11
-200.939209
21
135.414490
31
-17.748056
12
-180.342636
22
102.756500
32
5.517580
13
-180.342636
23
102.756500
33
5.517580
0
3DFACE
8
0
70
0
10
182.371155
20
84.139145
30
64.071243
11
144.076385
21
118.825165
31
42.806038
12
160.525131
22
77.346252
32
24.272709
13
160.525131
23
77.346252
33
24.272709
0
3DFACE
8
0
70
0
10
182.371155
20
84.139145
30
64.071243
11
151.248398
21
120.783478
31
56.931046
12
144.076385
22
118.825165
32
42.806038
13
144.076385
23
118.825165
33
42.806038
0
3DFACE
8
0
70
0
10
151.248398
20
120.783478
30
56.931046
11
176.786499
21
127.197510
31
1.895898
12
144.076385
22
118.825165
32
42.806038
13
144.076385
23
118.825165
33
42.806038
0
3DFACE
8
0
70
0
10
151.248398
20
120.783478
30
56.931046
11
200.928833
21
137.244690
31
47.755768
12
176.786499
22
127.197510
32
1.895898
13
176.786499
23
127.197510
33
1.895898
0
3DFACE
8
0
70
0
10
223.863861
20
100.646683
30
55.650814
11
188.008026
21
86.792603
31
-10.207452
12
176.786499
22
127.197510
32
1.895898
13
176.786499
23
127.197510
33
1.895898
0
3DFACE
8
0
70
0
10
223.863861
20
100.646683
30
55.650814
11
176.786499
21
127.197510
31
1.895898
12
200.928833
22
137.244690
32
47.755768
13
200.928833
23
137.244690
33
47.755768
0
3DFACE
8
0
70
0
10
182.371155
20
84.139145
30
64.071243
11
160.525131
21
77.346252
31
24.272709
12
188.008026
22
86.792603
32
-10.207452
13
188.008026
23
86.792603
33
-10.207452
0
3DFACE
8
0
70
0
10
182.371155
20
84.139145
30
64.071243
11
188.008026
21
86.792603
31
-10.207452
12
223.863861
22
100.646683
32
55.650814
13
223.863861
23
100.646683
33
55.650814
0
3DFACE
8
0
70
0
10
-8.530865
20
287.783051
30
-5.027159
11
-3.992510
21
285.634552
31
-4.399354
12
-1.543131
22
296.630280
32
24.760370
13
-17.217850
23
300.067993
33
29.009596
0
3DFACE
8
0
70
0
10
0.382367
20
287.783051
30
-5.759961
11
14.615121
21
300.067993
31
26.392441
12
-1.543131
22
296.630280
32
24.760370
13
-3.992510
23
285.634552
33
-4.399354
0
3DFACE
8
0
70
0
10
3.251891
20
290.972137
30
-7.481653
11
25.655619
21
305.170837
31
29.879211
12
14.615121
22
300.067993
32
26.392441
13
0.382367
23
287.783051
33
-5.759961
0
3DFACE
8
0
70
0
10
2.443418
20
294.234589
30
-8.935100
11
23.578621
21
310.390991
31
34.545490
12
25.655619
22
305.170837
32
29.879211
13
3.251891
23
290.972137
33
-7.481653
0
3DFACE
8
0
70
0
10
1.542053
20
298.279053
30
-10.745242
11
21.364126
21
316.862427
31
40.300682
12
23.578621
22
310.390991
32
34.545490
13
2.443418
23
294.234589
33
-8.935100
0
3DFACE
8
0
70
0
10
-1.861922
20
300.242706
30
-11.380204
11
9.694853
21
320.004425
31
43.965912
12
21.364126
22
316.862427
32
40.300682
13
1.542053
23
298.279053
33
-10.745242
0
3DFACE
8
0
70
0
10
-4.591878
20
301.388702
30
-11.689648
11
0.229674
21
321.838074
31
46.323219
12
9.694853
22
320.004425
32
43.965912
13
-1.861922
23
300.242706
33
-11.380204
0
3DFACE
8
0
70
0
10
-4.591878
20
301.388702
30
-11.689648
11
-7.234638
21
300.242706
31
-10.938486
12
-9.493421
22
320.004425
32
45.543480
13
0.229674
23
321.838074
33
46.323219
0
3DFACE
8
0
70
0
10
-7.234638
20
300.242706
30
-10.938486
11
-10.489199
21
298.279053
31
-9.756093
12
-21.604630
22
316.862457
32
43.833366
13
-9.493421
23
320.004425
33
45.543480
0
3DFACE
8
0
70
0
10
-10.489199
20
298.279053
30
-9.756093
11
-11.082820
21
294.234589
31
-7.823040
12
-24.729370
22
310.390991
32
38.517143
13
-21.604630
23
316.862457
33
43.833366
0
3DFACE
8
0
70
0
10
-11.082820
20
294.234589
30
-7.823040
11
-11.643050
21
290.972137
31
-6.257065
12
-27.540602
22
305.170837
32
34.252750
13
-24.729370
23
310.390991
33
38.517143
0
3DFACE
8
0
70
0
10
-11.643050
20
290.972137
30
-6.257065
11
-8.530865
21
287.783051
31
-5.027159
12
-17.217850
22
300.067993
32
29.009596
13
-27.540602
23
305.170837
33
34.252750
0
ENDSEC
0
EOF
