0
SECTION
2
HEADER
999
DXF File Generated by LightWave 3D(TM)
0
ENDSEC
0
SECTION
2
TABLES
0
ENDSEC
0
SECTION
2
BLOCKS
0
ENDSEC
0
SECTION
2
ENTITIES
0
3DFACE
8
0
70
0
10
1.185196
20
-40.866989
30
97.379852
11
37.590984
21
-110.080139
31
69.129601
12
75.797333
22
-102.227310
32
43.771912
13
66.122223
23
-51.190094
33
71.864098
0
3DFACE
8
0
70
0
10
60.780609
20
-80.817032
30
-46.694431
11
63.873356
21
-78.066772
31
-28.641859
12
19.246397
22
-72.910080
32
-42.276203
13
-6.359340
23
-82.712250
33
-70.072876
0
3DFACE
8
0
70
0
10
1.589247
20
-42.561264
30
118.894104
11
1.185196
21
-40.866989
31
97.379852
12
66.122223
22
-51.190094
32
71.864098
13
87.528252
23
-55.903343
33
87.314964
0
3DFACE
8
0
70
0
10
80.768257
20
-93.397171
30
-62.724575
11
60.780609
21
-80.817032
31
-46.694431
12
-6.359340
22
-82.712250
32
-70.072876
13
-7.807139
23
-94.677681
33
-89.660858
0
3DFACE
8
0
70
0
10
2.399699
20
-36.019791
30
130.358215
11
93.451538
21
-50.765915
31
94.847473
12
111.923592
22
1.396301
32
86.818542
13
6.542334
23
18.245514
33
122.553574
0
3DFACE
8
0
70
0
10
85.812752
20
-93.133934
30
-74.697205
11
-8.218218
21
-94.911339
31
-105.308884
12
-4.070793
22
-40.642059
32
-113.115143
13
104.284805
23
-40.971710
33
-82.726135
0
3DFACE
8
0
70
0
10
6.542334
20
18.245514
30
122.553574
11
111.923592
21
1.396301
31
86.818542
12
105.564445
22
1.000275
32
78.633110
13
6.092143
23
16.423187
33
110.410728
0
3DFACE
8
0
70
0
10
2.399699
20
-36.019791
30
130.358215
11
1.589247
21
-42.561264
31
118.894104
12
87.528252
22
-55.903343
32
87.314964
13
93.451538
23
-50.765915
33
94.847473
0
3DFACE
8
0
70
0
10
104.284805
20
-40.971710
30
-82.726135
11
-4.070793
21
-40.642059
31
-113.115143
12
-3.134607
22
-35.558807
32
-98.204376
13
98.804459
23
-36.493546
33
-71.406433
0
3DFACE
8
0
70
0
10
85.812752
20
-93.133934
30
-74.697205
11
80.768257
21
-93.397171
31
-62.724575
12
-7.807139
22
-94.677681
32
-89.660858
13
-8.218218
23
-94.911339
33
-105.308884
0
3DFACE
8
0
70
0
10
26.969650
20
-192.719147
30
83.748405
11
74.108360
21
-192.619400
31
83.422615
12
66.138229
22
-170.609528
32
70.828606
13
33.149841
23
-170.863678
33
71.037827
0
3DFACE
8
0
70
0
10
66.122223
20
-51.190094
30
71.864098
11
75.797333
21
-102.227310
31
43.771912
12
80.312637
22
-93.891830
32
6.039783
13
79.332817
23
-66.944290
33
13.485688
0
3DFACE
8
0
70
0
10
87.528252
20
-55.903343
30
87.314964
11
66.122223
21
-51.190094
31
71.864098
12
79.332817
22
-66.944290
32
13.485688
13
105.374115
23
-75.833221
33
13.792784
0
3DFACE
8
0
70
0
10
111.923592
20
1.396301
30
86.818542
11
93.451538
21
-50.765915
31
94.847473
12
112.250885
22
-72.843346
32
13.121074
13
134.091370
23
-20.950424
33
5.007672
0
3DFACE
8
0
70
0
10
134.091370
20
-20.950424
30
5.007672
11
126.580490
21
-19.183044
31
5.031428
12
105.564445
22
1.000275
32
78.633110
13
111.923592
23
1.396301
33
86.818542
0
3DFACE
8
0
70
0
10
93.451538
20
-50.765915
30
94.847473
11
87.528252
21
-55.903343
31
87.314964
12
105.374115
22
-75.833221
32
13.792784
13
112.250885
23
-72.843346
33
13.121074
0
3DFACE
8
0
70
0
10
12.250072
20
-225.978378
30
80.465851
11
79.431969
21
-226.020569
31
79.982758
12
74.108360
22
-192.619400
32
83.422615
13
26.969650
23
-192.719147
33
83.748405
0
3DFACE
8
0
70
0
10
6.721849
20
147.500885
30
-7.311019
11
69.797272
21
130.805115
31
-11.744743
12
60.695374
22
109.166504
32
-48.059090
13
3.961937
23
121.597351
33
-54.506950
0
3DFACE
8
0
70
0
10
79.332817
20
-66.944290
30
13.485688
11
80.312637
21
-93.891830
31
6.039783
12
63.873356
22
-78.066772
32
-28.641859
13
60.780609
23
-80.817032
33
-46.694431
0
3DFACE
8
0
70
0
10
105.374115
20
-75.833221
30
13.792784
11
79.332817
21
-66.944290
31
13.485688
12
60.780609
22
-80.817032
32
-46.694431
13
80.768257
23
-93.397171
33
-62.724575
0
3DFACE
8
0
70
0
10
112.250885
20
-72.843346
30
13.121074
11
85.812752
21
-93.133934
31
-74.697205
12
104.284805
22
-40.971710
32
-82.726135
13
134.091370
23
-20.950424
33
5.007672
0
3DFACE
8
0
70
0
10
104.284805
20
-40.971710
30
-82.726135
11
98.804459
21
-36.493546
31
-71.406433
12
126.580490
22
-19.183044
32
5.031428
13
134.091370
23
-20.950424
33
5.007672
0
3DFACE
8
0
70
0
10
112.250885
20
-72.843346
30
13.121074
11
105.374115
21
-75.833221
31
13.792784
12
80.768257
22
-93.397171
32
-62.724575
13
85.812752
23
-93.133934
33
-74.697205
0
3DFACE
8
0
70
0
10
32.988831
20
-120.184631
30
29.041689
11
37.590984
21
-110.080139
31
69.129601
12
20.648119
22
-95.833855
32
14.484061
13
20.679401
23
-109.262558
33
7.535886
0
3DFACE
8
0
70
0
10
32.988831
20
-120.184631
30
29.041689
11
72.685432
21
-113.589157
31
13.812161
12
75.797333
22
-102.227310
32
43.771912
13
37.590984
23
-110.080139
33
69.129601
0
3DFACE
8
0
70
0
10
72.685432
20
-113.589157
30
13.812161
11
80.201607
21
-105.631149
31
-2.641849
12
80.312637
22
-93.891830
32
6.039783
13
75.797333
23
-102.227310
33
43.771912
0
3DFACE
8
0
70
0
10
20.679401
20
-109.262558
30
7.535886
11
20.648119
21
-95.833855
31
14.484061
12
19.246397
22
-72.910080
32
-42.276203
13
23.724508
23
-96.900642
33
-17.612944
0
3DFACE
8
0
70
0
10
80.201607
20
-105.631149
30
-2.641849
11
66.663628
21
-98.454567
31
-16.513346
12
63.873356
22
-78.066772
32
-28.641859
13
80.312637
23
-93.891830
33
6.039783
0
3DFACE
8
0
70
0
10
66.663628
20
-98.454567
30
-16.513346
11
23.724508
21
-96.900642
31
-17.612944
12
19.246397
22
-72.910080
32
-42.276203
13
63.873356
23
-78.066772
33
-28.641859
0
3DFACE
8
0
70
0
10
26.227232
20
-182.235764
30
-17.616907
11
26.576733
21
-196.711090
31
25.675434
12
32.828106
22
-176.333252
32
22.811935
13
35.543903
23
-159.564850
33
12.596110
0
3DFACE
8
0
70
0
10
35.543903
20
-159.564850
30
12.596110
11
32.828106
21
-176.333252
31
22.811935
12
65.817993
22
-179.740738
32
21.698704
13
68.428864
23
-160.380493
33
-2.007653
0
3DFACE
8
0
70
0
10
75.480606
20
-177.583374
30
-23.676899
11
68.428864
21
-160.380493
31
-2.007653
12
65.817993
22
-179.740738
32
21.698704
13
73.715446
23
-196.611343
33
25.349642
0
3DFACE
8
0
70
0
10
7.322553
20
-207.132126
30
-48.623524
11
15.441864
21
-216.025757
31
9.406258
12
26.576733
22
-196.711090
32
25.675434
13
26.227232
23
-182.235764
33
-17.616907
0
3DFACE
8
0
70
0
10
80.150154
20
-199.463135
30
-55.559772
11
75.480606
21
-177.583374
31
-23.676899
12
73.715446
22
-196.611343
32
25.349642
13
82.650200
23
-216.897202
33
12.495420
0
3DFACE
8
0
70
0
10
80.150154
20
-199.463135
30
-55.559772
11
82.650200
21
-216.897202
31
12.495420
12
15.441864
22
-216.025757
32
9.406258
13
7.322553
23
-207.132126
33
-48.623524
0
3DFACE
8
0
70
0
10
26.969650
20
-192.719147
30
83.748405
11
33.149841
21
-170.863678
31
71.037827
12
32.828106
22
-176.333252
32
22.811935
13
26.576733
23
-196.711090
33
25.675434
0
3DFACE
8
0
70
0
10
33.149841
20
-170.863678
30
71.037827
11
66.138229
21
-170.609528
31
70.828606
12
65.817993
22
-179.740738
32
21.698704
13
32.828106
23
-176.333252
33
22.811935
0
3DFACE
8
0
70
0
10
74.108360
20
-192.619400
30
83.422615
11
73.715446
21
-196.611343
31
25.349642
12
65.817993
22
-179.740738
32
21.698704
13
66.138229
23
-170.609528
33
70.828606
0
3DFACE
8
0
70
0
10
12.250072
20
-225.978378
30
80.465851
11
26.969650
21
-192.719147
31
83.748405
12
26.576733
22
-196.711090
32
25.675434
13
15.441864
23
-216.025757
33
9.406258
0
3DFACE
8
0
70
0
10
79.431969
20
-226.020569
30
79.982758
11
82.650200
21
-216.897202
31
12.495420
12
73.715446
22
-196.611343
32
25.349642
13
74.108360
23
-192.619400
33
83.422615
0
3DFACE
8
0
70
0
10
79.431969
20
-226.020569
30
79.982758
11
12.250072
21
-225.978378
31
80.465851
12
15.441864
22
-216.025757
32
9.406258
13
82.650200
23
-216.897202
33
12.495420
0
3DFACE
8
0
70
0
10
-69.758591
20
41.528107
30
185.804718
11
-54.703777
21
56.791306
31
195.168869
12
-72.749817
22
63.835312
32
185.155014
13
-78.035851
23
49.351563
33
170.169327
0
3DFACE
8
0
70
0
10
90.798996
20
99.596634
30
-34.146194
11
60.695374
21
109.166504
31
-48.059090
12
69.797272
22
130.805115
32
-11.744743
13
69.797272
23
130.805115
33
-11.744743
0
3DFACE
8
0
70
0
10
70.679474
20
109.139008
30
27.238642
11
69.797272
21
130.805115
31
-11.744743
12
63.268265
22
104.655701
32
47.759785
13
63.268265
23
104.655701
33
47.759785
0
3DFACE
8
0
70
0
10
51.075901
20
95.130859
30
80.731712
11
63.780224
21
53.457901
31
102.281227
12
31.487396
22
50.166595
32
118.307076
13
19.480469
23
93.757767
33
98.181664
0
3DFACE
8
0
70
0
10
75.277428
20
105.337524
30
126.920593
11
51.075901
21
95.130859
31
80.731712
12
19.480469
22
93.757767
32
98.181664
13
43.669716
23
105.995544
33
144.463837
0
3DFACE
8
0
70
0
10
51.972420
20
63.956345
30
157.698303
11
84.137497
21
64.806946
31
141.291809
12
75.277428
22
105.337524
32
126.920593
13
43.669716
23
105.995544
33
144.463837
0
3DFACE
8
0
70
0
10
63.780224
20
53.457901
30
102.281227
11
84.137497
21
64.806946
31
141.291809
12
51.972420
22
63.956345
32
157.698303
13
31.487396
23
50.166595
33
118.307076
0
3DFACE
8
0
70
0
10
29.702583
20
39.458679
30
114.329880
11
-0.860868
21
35.507385
31
129.091919
12
-14.676934
22
97.567932
32
104.700287
13
14.209846
23
98.952606
33
88.547943
0
3DFACE
8
0
70
0
10
14.209846
20
98.952606
30
88.547943
11
-14.676934
21
97.567932
31
104.700287
12
18.325968
22
118.327148
32
166.388031
13
46.516266
23
117.170715
33
150.468445
0
3DFACE
8
0
70
0
10
27.522961
20
58.862457
30
181.999313
11
57.099224
21
59.614716
31
167.109924
12
46.516266
22
117.170715
32
150.468445
13
18.325968
23
118.327148
33
166.388031
0
3DFACE
8
0
70
0
10
29.702583
20
39.458679
30
114.329880
11
57.099224
21
59.614716
31
167.109924
12
27.522961
22
58.862457
32
181.999313
13
-0.860868
23
35.507385
33
129.091919
0
3DFACE
8
0
70
0
10
29.702583
20
39.458679
30
114.329880
11
14.209846
21
98.952606
31
88.547943
12
19.480469
22
93.757767
32
98.181664
13
31.487396
23
50.166595
33
118.307076
0
3DFACE
8
0
70
0
10
-0.860868
20
35.507385
30
129.091919
11
1.073823
21
47.066833
31
133.400345
12
-9.490675
22
92.498688
32
114.182198
13
-14.676934
23
97.567932
33
104.700287
0
3DFACE
8
0
70
0
10
14.209846
20
98.952606
30
88.547943
11
46.516266
21
117.170715
31
150.468445
12
43.669716
22
105.995544
32
144.463837
13
19.480469
23
93.757767
33
98.181664
0
3DFACE
8
0
70
0
10
-14.676934
20
97.567932
30
104.700287
11
-9.490675
21
92.498688
31
114.182198
12
15.380790
22
106.584412
32
160.165070
13
18.325968
23
118.327148
33
166.388031
0
3DFACE
8
0
70
0
10
27.522961
20
58.862457
30
181.999313
11
18.325968
21
118.327148
31
166.388031
12
15.380790
22
106.584412
32
160.165070
13
22.478941
23
63.176346
33
172.742065
0
3DFACE
8
0
70
0
10
57.099224
20
59.614716
30
167.109924
11
51.972420
21
63.956345
31
157.698303
12
43.669716
22
105.995544
32
144.463837
13
46.516266
23
117.170715
33
150.468445
0
3DFACE
8
0
70
0
10
-0.860868
20
35.507385
30
129.091919
11
27.522961
21
58.862457
31
181.999313
12
22.478941
22
63.176346
32
172.742065
13
1.073823
23
47.066833
33
133.400345
0
3DFACE
8
0
70
0
10
29.702583
20
39.458679
30
114.329880
11
31.487396
21
50.166595
31
118.307076
12
51.972420
22
63.956345
32
157.698303
13
57.099224
23
59.614716
33
167.109924
0
3DFACE
8
0
70
0
10
21.766190
20
51.210312
30
141.940582
11
7.189791
21
66.231293
31
116.729759
12
-9.490675
22
92.498688
32
114.182198
13
1.073823
23
47.066833
33
133.400345
0
3DFACE
8
0
70
0
10
7.189791
20
66.231293
30
116.729759
11
14.088139
21
91.894775
31
139.878082
12
15.380790
22
106.584412
32
160.165070
13
-9.490675
23
92.498688
33
114.182198
0
3DFACE
8
0
70
0
10
26.864828
20
75.247574
30
160.499146
11
22.478941
21
63.176346
31
172.742065
12
15.380790
22
106.584412
32
160.165070
13
14.088139
23
91.894775
33
139.878082
0
3DFACE
8
0
70
0
10
21.766190
20
51.210312
30
141.940582
11
1.073823
21
47.066833
31
133.400345
12
22.478941
22
63.176346
32
172.742065
13
26.864828
23
75.247574
33
160.499146
0
3DFACE
8
0
70
0
10
-42.698151
20
41.208099
30
117.435669
11
-45.038261
21
51.827271
31
115.887260
12
-33.672050
22
54.584641
32
110.305473
13
-31.359125
23
43.949036
33
111.743347
0
3DFACE
8
0
70
0
10
-45.038261
20
51.827271
30
115.887260
11
-47.192898
21
62.957870
31
115.017075
12
-35.893101
22
65.688354
32
109.331924
13
-33.672050
23
54.584641
33
110.305473
0
3DFACE
8
0
70
0
10
2.851993
20
71.472046
30
186.487061
11
26.864828
21
75.247574
31
160.499146
12
14.088139
22
91.894775
32
139.878082
13
-13.527842
23
86.457703
33
157.736481
0
3DFACE
8
0
70
0
10
-6.394807
20
45.545609
30
158.829422
11
21.766190
21
51.210312
31
141.940582
12
26.864828
22
75.247574
32
160.499146
13
2.851993
23
71.472046
33
186.487061
0
3DFACE
8
0
70
0
10
-69.758591
20
41.528107
30
185.804718
11
-78.035851
21
49.351563
31
170.169327
12
-35.775532
22
58.107178
32
136.429565
13
-6.394807
23
45.545609
33
158.829422
0
3DFACE
8
0
70
0
10
-78.035851
20
49.351563
30
170.169327
11
-72.749817
21
63.835312
31
185.155014
12
-13.527842
22
86.457703
32
157.736481
13
-35.775532
23
58.107178
33
136.429565
0
3DFACE
8
0
70
0
10
-54.703777
20
56.791306
30
195.168869
11
2.851993
21
71.472046
31
186.487061
12
-13.527842
22
86.457703
32
157.736481
13
-72.749817
23
63.835312
33
185.155014
0
3DFACE
8
0
70
0
10
-69.758591
20
41.528107
30
185.804718
11
-6.394807
21
45.545609
31
158.829422
12
2.851993
22
71.472046
32
186.487061
13
-54.703777
23
56.791306
33
195.168869
0
3DFACE
8
0
70
0
10
-42.698151
20
41.208099
30
117.435669
11
-31.359125
21
43.949036
31
111.743347
12
21.766190
22
51.210312
32
141.940582
13
-6.394807
23
45.545609
33
158.829422
0
3DFACE
8
0
70
0
10
-31.359125
20
43.949036
30
111.743347
11
-33.672050
21
54.584641
31
110.305473
12
7.189791
22
66.231293
32
116.729759
13
21.766190
23
51.210312
33
141.940582
0
3DFACE
8
0
70
0
10
-42.698151
20
41.208099
30
117.435669
11
-6.394807
21
45.545609
31
158.829422
12
-35.775532
22
58.107178
32
136.429565
13
-45.038261
23
51.827271
33
115.887260
0
3DFACE
8
0
70
0
10
-33.672050
20
54.584641
30
110.305473
11
-35.893101
21
65.688354
31
109.331924
12
14.088139
22
91.894775
32
139.878082
13
7.189791
23
66.231293
33
116.729759
0
3DFACE
8
0
70
0
10
-47.192898
20
62.957870
30
115.017075
11
-13.527842
21
86.457703
31
157.736481
12
14.088139
22
91.894775
32
139.878082
13
-35.893101
23
65.688354
33
109.331924
0
3DFACE
8
0
70
0
10
-45.038261
20
51.827271
30
115.887260
11
-35.775532
21
58.107178
31
136.429565
12
-13.527842
22
86.457703
32
157.736481
13
-47.192898
23
62.957870
33
115.017075
0
3DFACE
8
0
70
0
10
1.185196
20
-40.866989
30
97.379852
11
-65.756294
21
-40.646790
31
75.171150
12
-68.806580
22
-21.195572
32
36.820782
13
-25.468872
23
-12.196884
33
54.600311
0
3DFACE
8
0
70
0
10
-71.097916
20
-70.273735
30
-43.387375
11
-6.359340
21
-82.712250
31
-70.072876
12
-40.914349
22
-112.446503
32
-21.490267
13
-78.846146
23
-86.357819
33
-12.638096
0
3DFACE
8
0
70
0
10
1.589247
20
-42.561264
30
118.894104
11
-86.842728
21
-41.962898
31
91.687584
12
-65.756294
22
-40.646790
32
75.171150
13
1.185196
23
-40.866989
33
97.379852
0
3DFACE
8
0
70
0
10
-93.602715
20
-79.456726
30
-58.351955
11
-7.807139
21
-94.677681
31
-89.660858
12
-6.359340
22
-82.712250
32
-70.072876
13
-71.097916
23
-70.273735
33
-43.387375
0
3DFACE
8
0
70
0
10
2.399699
20
-36.019791
30
130.358215
11
6.542334
21
18.245514
31
122.553574
12
-101.824654
22
18.484848
32
92.178604
13
-91.492561
23
-35.980179
33
99.485229
0
3DFACE
8
0
70
0
10
-99.131348
20
-78.348198
30
-70.059448
11
-109.463448
21
-23.883179
31
-77.366074
12
-4.070793
22
-40.642059
32
-113.115143
13
-8.218218
23
-94.911339
33
-105.308884
0
3DFACE
8
0
70
0
10
6.542334
20
18.245514
30
122.553574
11
6.092143
21
16.423187
31
110.410728
12
-96.024712
22
17.116730
32
83.688263
13
-101.824654
23
18.484848
33
92.178604
0
3DFACE
8
0
70
0
10
2.399699
20
-36.019791
30
130.358215
11
-91.492561
21
-35.980179
31
99.485229
12
-86.842728
22
-41.962898
32
91.687584
13
1.589247
23
-42.561264
33
118.894104
0
3DFACE
8
0
70
0
10
-109.463448
20
-23.883179
30
-77.366074
11
-102.784706
21
-20.377090
31
-66.351273
12
-3.134607
22
-35.558807
32
-98.204376
13
-4.070793
23
-40.642059
33
-113.115143
0
3DFACE
8
0
70
0
10
-99.131348
20
-78.348198
30
-70.059448
11
-8.218218
21
-94.911339
31
-105.308884
12
-7.807139
22
-94.677681
32
-89.660858
13
-93.602715
23
-79.456726
33
-58.351955
0
3DFACE
8
0
70
0
10
-43.386333
20
-68.771126
30
140.212753
11
-49.801079
21
-57.194153
31
117.802063
12
-82.790375
22
-56.989578
32
117.886742
13
-90.525635
23
-68.715134
33
140.453140
0
3DFACE
8
0
70
0
10
-65.756294
20
-40.646790
30
75.171150
11
-84.191582
21
-53.870995
31
17.586311
12
-84.640694
22
-52.672928
32
14.233782
13
-68.806580
23
-21.195572
33
36.820782
0
3DFACE
8
0
70
0
10
-86.842728
20
-41.962898
30
91.687584
11
-111.265877
21
-58.513496
31
19.225363
12
-84.191582
22
-53.870995
32
17.586311
13
-65.756294
23
-40.646790
33
75.171150
0
3DFACE
8
0
70
0
10
-101.824654
20
18.484848
30
92.178604
11
-131.306000
21
0.267319
31
11.662918
12
-117.605484
22
-54.467010
32
18.885073
13
-91.492561
23
-35.980179
33
99.485229
0
3DFACE
8
0
70
0
10
-131.306000
20
0.267319
30
11.662918
11
-101.824654
21
18.484848
31
92.178604
12
-96.024712
22
17.116730
32
83.688263
13
-123.618027
23
0.819580
33
11.305539
0
3DFACE
8
0
70
0
10
-91.492561
20
-35.980179
30
99.485229
11
-117.605484
21
-54.467010
31
18.885073
12
-111.265877
22
-58.513496
32
19.225363
13
-86.842728
23
-41.962898
33
91.687584
0
3DFACE
8
0
70
0
10
-28.578264
20
-98.600594
30
155.197449
11
-43.386333
21
-68.771126
31
140.212753
12
-90.525635
22
-68.715134
32
140.453140
13
-95.760506
23
-98.686203
33
155.623611
0
3DFACE
8
0
70
0
10
6.721849
20
147.500885
30
-7.311019
11
3.961937
21
121.597351
31
-54.506950
12
-48.845924
22
115.457062
32
-46.085960
13
-58.584087
23
136.147217
33
-8.124345
0
3DFACE
8
0
70
0
10
-84.191582
20
-53.870995
30
17.586311
11
-71.097916
21
-70.273735
31
-43.387375
12
-78.846146
22
-86.357819
32
-12.638096
13
-84.640694
23
-52.672928
33
14.233782
0
3DFACE
8
0
70
0
10
-111.265877
20
-58.513496
30
19.225363
11
-93.602715
21
-79.456726
31
-58.351955
12
-71.097916
22
-70.273735
32
-43.387375
13
-84.191582
23
-53.870995
33
17.586311
0
3DFACE
8
0
70
0
10
-117.605484
20
-54.467010
30
18.885073
11
-131.306000
21
0.267319
31
11.662918
12
-109.463448
22
-23.883179
32
-77.366074
13
-99.131348
23
-78.348198
33
-70.059448
0
3DFACE
8
0
70
0
10
-109.463448
20
-23.883179
30
-77.366074
11
-131.306000
21
0.267319
31
11.662918
12
-123.618027
22
0.819580
32
11.305539
13
-102.784706
23
-20.377090
33
-66.351273
0
3DFACE
8
0
70
0
10
-117.605484
20
-54.467010
30
18.885073
11
-99.131348
21
-78.348198
31
-70.059448
12
-93.602715
22
-79.456726
32
-58.351955
13
-111.265877
23
-58.513496
33
19.225363
0
3DFACE
8
0
70
0
10
-32.591812
20
-38.688309
30
40.969112
11
-28.964628
21
-66.597687
31
29.433628
12
-26.102568
22
-64.982788
32
20.664125
13
-25.468872
23
-12.196884
33
54.600311
0
3DFACE
8
0
70
0
10
-32.591812
20
-38.688309
30
40.969112
11
-25.468872
21
-12.196884
31
54.600311
12
-68.806580
22
-21.195572
32
36.820782
13
-74.244865
23
-37.696411
33
30.119680
0
3DFACE
8
0
70
0
10
-74.244865
20
-37.696411
30
30.119680
11
-68.806580
21
-21.195572
31
36.820782
12
-84.640694
22
-52.672928
32
14.233782
13
-86.937531
23
-51.789703
33
20.356352
0
3DFACE
8
0
70
0
10
-28.964628
20
-66.597687
30
29.433628
11
-40.652691
21
-91.757980
31
14.978493
12
-40.914349
22
-112.446503
32
-21.490267
13
-26.102568
23
-64.982788
33
20.664125
0
3DFACE
8
0
70
0
10
-86.937531
20
-51.789703
30
20.356352
11
-84.640694
21
-52.672928
31
14.233782
12
-78.846146
22
-86.357819
32
-12.638096
13
-79.484436
23
-72.191711
33
13.225778
0
3DFACE
8
0
70
0
10
-79.484436
20
-72.191711
30
13.225778
11
-78.846146
21
-86.357819
31
-12.638096
12
-40.914349
22
-112.446503
32
-21.490267
13
-40.652691
23
-91.757980
33
14.978493
0
3DFACE
8
0
70
0
10
-42.854450
20
-109.158501
30
47.936604
11
-46.645756
21
-74.052757
31
66.546791
12
-50.027561
22
-87.141335
32
84.161201
13
-43.700809
23
-104.292030
33
95.227234
0
3DFACE
8
0
70
0
10
-46.645756
20
-74.052757
30
66.546791
11
-81.244568
21
-78.475792
31
56.652561
12
-83.016098
22
-90.634521
32
84.855217
13
-50.027561
23
-87.141335
33
84.161201
0
3DFACE
8
0
70
0
10
-92.160561
20
-103.017723
30
44.977707
11
-90.840630
21
-104.280830
31
95.275307
12
-83.016098
22
-90.634521
32
84.855217
13
-81.244568
23
-78.475792
33
56.652561
0
3DFACE
8
0
70
0
10
-29.810394
20
-147.551849
30
28.674089
11
-42.854450
21
-109.158501
31
47.936604
12
-43.700809
22
-104.292030
32
95.227234
13
-32.643486
23
-128.509415
33
88.586578
0
3DFACE
8
0
70
0
10
-102.392075
20
-136.805542
30
25.800993
11
-99.822899
21
-127.916702
31
92.278580
12
-90.840630
22
-104.280830
32
95.275307
13
-92.160561
23
-103.017723
33
44.977707
0
3DFACE
8
0
70
0
10
-102.392075
20
-136.805542
30
25.800993
11
-29.810394
21
-147.551849
31
28.674089
12
-32.643486
22
-128.509415
32
88.586578
13
-99.822899
23
-127.916702
33
92.278580
0
3DFACE
8
0
70
0
10
-43.386333
20
-68.771126
30
140.212753
11
-43.700809
21
-104.292030
31
95.227234
12
-50.027561
22
-87.141335
32
84.161201
13
-49.801079
23
-57.194153
33
117.802063
0
3DFACE
8
0
70
0
10
-49.801079
20
-57.194153
30
117.802063
11
-50.027561
21
-87.141335
31
84.161201
12
-83.016098
22
-90.634521
32
84.855217
13
-82.790375
23
-56.989578
33
117.886742
0
3DFACE
8
0
70
0
10
-90.525635
20
-68.715134
30
140.453140
11
-82.790375
21
-56.989578
31
117.886742
12
-83.016098
22
-90.634521
32
84.855217
13
-90.840630
23
-104.280830
33
95.275307
0
3DFACE
8
0
70
0
10
-28.578264
20
-98.600594
30
155.197449
11
-32.643486
21
-128.509415
31
88.586578
12
-43.700809
22
-104.292030
32
95.227234
13
-43.386333
23
-68.771126
33
140.212753
0
3DFACE
8
0
70
0
10
-95.760506
20
-98.686203
30
155.623611
11
-90.525635
21
-68.715134
31
140.453140
12
-90.840630
22
-104.280830
32
95.275307
13
-99.822899
23
-127.916702
33
92.278580
0
3DFACE
8
0
70
0
10
-95.760506
20
-98.686203
30
155.623611
11
-99.822899
21
-127.916702
31
92.278580
12
-32.643486
22
-128.509415
32
88.586578
13
-28.578264
23
-98.600594
33
155.197449
0
3DFACE
8
0
70
0
10
39.664188
20
-9.561554
30
200.880692
11
51.483929
21
-1.505035
31
187.858749
12
43.833321
22
12.523224
32
202.245132
13
23.730347
23
6.123444
33
207.764969
0
3DFACE
8
0
70
0
10
-84.367195
20
107.271576
30
-32.921398
11
-58.584087
21
136.147217
31
-8.124345
12
-48.845924
22
115.457062
32
-46.085960
13
-48.845924
23
115.457062
33
-46.085960
0
3DFACE
8
0
70
0
10
-56.848431
20
113.557861
30
28.593643
11
-45.983665
21
111.451782
31
49.891468
12
-58.584087
22
136.147217
32
-8.124345
13
-58.584087
23
136.147217
33
-8.124345
0
3DFACE
8
0
70
0
10
-57.393974
20
68.358276
30
78.972908
11
-30.700235
21
57.676437
31
100.836136
12
-50.373657
22
12.386475
32
104.177597
13
-77.907326
23
24.592957
33
84.093124
0
3DFACE
8
0
70
0
10
-90.376472
20
68.641785
30
120.630775
11
-63.527462
21
59.861176
31
143.197952
12
-30.700235
22
57.676437
32
100.836136
13
-57.393974
23
68.358276
33
78.972908
0
3DFACE
8
0
70
0
10
-77.940811
20
17.435608
30
141.272354
11
-63.527462
21
59.861176
31
143.197952
12
-90.376472
22
68.641785
32
120.630775
13
-105.462776
23
27.411942
33
120.118065
0
3DFACE
8
0
70
0
10
-77.907326
20
24.592957
30
84.093124
11
-50.373657
21
12.386475
31
104.177597
12
-77.940811
22
17.435608
32
141.272354
13
-105.462776
23
27.411942
33
120.118065
0
3DFACE
8
0
70
0
10
-48.618526
20
3.070099
30
97.560379
11
-23.012665
21
64.540802
31
94.405251
12
1.337966
22
54.596649
32
114.540352
13
-22.536543
23
-9.163864
33
115.937408
0
3DFACE
8
0
70
0
10
-23.012665
20
64.540802
30
94.405251
11
-66.728226
21
69.208191
31
151.649628
12
-42.796970
22
61.841766
32
172.204300
13
1.337966
23
54.596649
33
114.540352
0
3DFACE
8
0
70
0
10
-60.017147
20
2.332672
30
167.058105
11
-42.796970
21
61.841766
31
172.204300
12
-66.728226
22
69.208191
32
151.649628
13
-85.370232
23
11.422897
33
147.781067
0
3DFACE
8
0
70
0
10
-48.618526
20
3.070099
30
97.560379
11
-22.536543
21
-9.163864
31
115.937408
12
-60.017147
22
2.332672
32
167.058105
13
-85.370232
23
11.422897
33
147.781067
0
3DFACE
8
0
70
0
10
-48.618526
20
3.070099
30
97.560379
11
-50.373657
21
12.386475
31
104.177597
12
-30.700235
22
57.676437
32
100.836136
13
-23.012665
23
64.540802
33
94.405251
0
3DFACE
8
0
70
0
10
-22.536543
20
-9.163864
30
115.937408
11
1.337966
21
54.596649
31
114.540352
12
-6.223660
22
47.881805
32
120.883377
13
-24.442297
23
0.890350
33
123.093315
0
3DFACE
8
0
70
0
10
-23.012665
20
64.540802
30
94.405251
11
-30.700235
21
57.676437
31
100.836136
12
-63.527462
22
59.861176
32
143.197952
13
-66.728226
23
69.208191
33
151.649628
0
3DFACE
8
0
70
0
10
1.337966
20
54.596649
30
114.540352
11
-42.796970
21
61.841766
31
172.204300
12
-39.497593
22
52.002441
32
163.395584
13
-6.223660
23
47.881805
33
120.883377
0
3DFACE
8
0
70
0
10
-60.017147
20
2.332672
30
167.058105
11
-52.704803
21
8.287872
31
160.669556
12
-39.497593
22
52.002441
32
163.395584
13
-42.796970
23
61.841766
33
172.204300
0
3DFACE
8
0
70
0
10
-85.370232
20
11.422897
30
147.781067
11
-66.728226
21
69.208191
31
151.649628
12
-63.527462
22
59.861176
32
143.197952
13
-77.940811
23
17.435608
33
141.272354
0
3DFACE
8
0
70
0
10
-22.536543
20
-9.163864
30
115.937408
11
-24.442297
21
0.890350
31
123.093315
12
-52.704803
22
8.287872
32
160.669556
13
-60.017147
23
2.332672
33
167.058105
0
3DFACE
8
0
70
0
10
-48.618526
20
3.070099
30
97.560379
11
-85.370232
21
11.422897
31
147.781067
12
-77.940811
22
17.435608
32
141.272354
13
-50.373657
23
12.386475
33
104.177597
0
3DFACE
8
0
70
0
10
-38.604954
20
9.379807
30
134.526764
11
-24.442297
21
0.890350
31
123.093315
12
-6.223660
22
47.881805
32
120.883377
13
-20.932123
23
29.679688
33
119.926895
0
3DFACE
8
0
70
0
10
-20.932123
20
29.679688
30
119.926895
11
-6.223660
21
47.881805
31
120.883377
12
-39.497593
22
52.002441
32
163.395584
13
-35.277973
23
46.758453
33
144.164764
0
3DFACE
8
0
70
0
10
-50.070583
20
26.204636
30
154.869400
11
-35.277973
21
46.758453
31
144.164764
12
-39.497593
22
52.002441
32
163.395584
13
-52.704803
23
8.287872
33
160.669556
0
3DFACE
8
0
70
0
10
-38.604954
20
9.379807
30
134.526764
11
-50.070583
21
26.204636
31
154.869400
12
-52.704803
22
8.287872
32
160.669556
13
-24.442297
23
0.890350
33
123.093315
0
3DFACE
8
0
70
0
10
27.927452
20
-4.847916
30
128.446411
11
18.225523
21
-1.135330
31
120.663200
12
21.320362
22
9.394928
32
120.400871
13
31.071701
23
5.669739
33
128.080994
0
3DFACE
8
0
70
0
10
31.071701
20
5.669739
30
128.080994
11
21.320362
21
9.394928
31
120.400871
12
24.249285
22
20.374664
32
120.600700
13
33.915009
23
16.675293
33
128.369263
0
3DFACE
8
0
70
0
10
-29.815516
20
24.739990
30
188.020950
11
-6.920355
21
40.080750
31
164.357956
12
-35.277973
22
46.758453
32
144.164764
13
-50.070583
23
26.204636
33
154.869400
0
3DFACE
8
0
70
0
10
-16.152008
20
-0.316864
30
161.410965
11
-29.815516
21
24.739990
31
188.020950
12
-50.070583
22
26.204636
32
154.869400
13
-38.604954
23
9.379807
33
134.526764
0
3DFACE
8
0
70
0
10
39.664188
20
-9.561554
30
200.880692
11
-16.152008
21
-0.316864
31
161.410965
12
17.940540
22
11.492172
32
146.544312
13
51.483929
23
-1.505035
33
187.858749
0
3DFACE
8
0
70
0
10
51.483929
20
-1.505035
30
187.858749
11
17.940540
21
11.492172
31
146.544312
12
-6.920355
22
40.080750
32
164.357956
13
43.833321
23
12.523224
33
202.245132
0
3DFACE
8
0
70
0
10
23.730347
20
6.123444
30
207.764969
11
43.833321
21
12.523224
31
202.245132
12
-6.920355
22
40.080750
32
164.357956
13
-29.815516
23
24.739990
33
188.020950
0
3DFACE
8
0
70
0
10
39.664188
20
-9.561554
30
200.880692
11
23.730347
21
6.123444
31
207.764969
12
-29.815516
22
24.739990
32
188.020950
13
-16.152008
23
-0.316864
33
161.410965
0
3DFACE
8
0
70
0
10
27.927452
20
-4.847916
30
128.446411
11
-16.152008
21
-0.316864
31
161.410965
12
-38.604954
22
9.379807
32
134.526764
13
18.225523
23
-1.135330
33
120.663200
0
3DFACE
8
0
70
0
10
18.225523
20
-1.135330
30
120.663200
11
-38.604954
21
9.379807
31
134.526764
12
-20.932123
22
29.679688
32
119.926895
13
21.320362
23
9.394928
33
120.400871
0
3DFACE
8
0
70
0
10
27.927452
20
-4.847916
30
128.446411
11
31.071701
21
5.669739
31
128.080994
12
17.940540
22
11.492172
32
146.544312
13
-16.152008
23
-0.316864
33
161.410965
0
3DFACE
8
0
70
0
10
21.320362
20
9.394928
30
120.400871
11
-20.932123
21
29.679688
31
119.926895
12
-35.277973
22
46.758453
32
144.164764
13
24.249285
23
20.374664
33
120.600700
0
3DFACE
8
0
70
0
10
33.915009
20
16.675293
30
128.369263
11
24.249285
21
20.374664
31
120.600700
12
-35.277973
22
46.758453
32
144.164764
13
-6.920355
23
40.080750
33
164.357956
0
3DFACE
8
0
70
0
10
31.071701
20
5.669739
30
128.080994
11
33.915009
21
16.675293
31
128.369263
12
-6.920355
22
40.080750
32
164.357956
13
17.940540
23
11.492172
33
146.544312
0
3DFACE
8
0
70
0
10
20.648119
20
-95.833855
30
14.484061
11
37.590984
21
-110.080139
31
69.129601
12
1.185196
22
-40.866989
32
97.379852
13
-2.512973
23
-61.378632
33
15.298134
0
3DFACE
8
0
70
0
10
20.648119
20
-95.833855
30
14.484061
11
-2.512973
21
-61.378632
31
15.298134
12
-6.359340
22
-82.712250
32
-70.072876
13
19.246397
23
-72.910080
33
-42.276203
0
3DFACE
8
0
70
0
10
-6.359340
20
-82.712250
30
-70.072876
11
-2.512973
21
-61.378632
31
15.298134
12
-26.102568
22
-64.982788
32
20.664125
13
-40.914349
23
-112.446503
33
-21.490267
0
3DFACE
8
0
70
0
10
-2.512973
20
-61.378632
30
15.298134
11
1.185196
21
-40.866989
31
97.379852
12
-25.468872
22
-12.196884
32
54.600311
13
-26.102568
23
-64.982788
33
20.664125
0
3DFACE
8
0
70
0
10
-3.537236
20
170.908386
30
96.153793
11
6.740300
21
169.396667
31
91.125366
12
17.822901
22
186.790222
32
92.479614
13
-1.768121
23
190.118469
33
98.378632
0
3DFACE
8
0
70
0
10
-1.768121
20
190.118469
30
98.378632
11
17.822901
21
186.790222
31
92.479614
12
11.600334
22
195.562744
32
89.450043
13
-0.635103
23
200.805786
33
91.960358
0
3DFACE
8
0
70
0
10
6.740300
20
169.396667
30
91.125366
11
7.350999
21
163.476959
31
79.204849
12
20.572197
22
180.568909
32
75.937950
13
17.822901
23
186.790222
33
92.479614
0
3DFACE
8
0
70
0
10
-3.537236
20
170.908386
30
96.153793
11
-4.329887
21
163.030609
31
85.340569
12
7.350999
22
163.476959
32
79.204849
13
6.740300
23
169.396667
33
91.125366
0
3DFACE
8
0
70
0
10
-0.635103
20
200.805786
30
91.960358
11
11.600334
21
195.562744
31
89.450043
12
13.595005
22
192.972351
32
73.460220
13
-0.759370
23
199.277954
33
77.581078
0
3DFACE
8
0
70
0
10
17.822901
20
186.790222
30
92.479614
11
20.572197
21
180.568909
31
75.937950
12
13.595005
22
192.972351
32
73.460220
13
11.600334
23
195.562744
33
89.450043
0
3DFACE
8
0
70
0
10
4.169549
20
207.364380
30
71.965813
11
3.258237
21
198.308411
31
74.895424
12
14.011737
22
193.912292
32
70.381218
13
17.183765
23
213.167877
33
68.720779
0
3DFACE
8
0
70
0
10
14.011737
20
193.912292
30
70.381218
11
23.625505
21
192.716919
31
64.208733
12
28.323904
22
202.238983
32
58.599617
13
17.183765
23
213.167877
33
68.720779
0
3DFACE
8
0
70
0
10
7.138779
20
149.611328
30
101.622025
11
5.015685
21
166.277008
31
87.014717
12
-4.108326
22
166.300964
32
89.816055
13
-5.811865
23
150.770874
33
102.081230
0
3DFACE
8
0
70
0
10
46.503475
20
153.276245
30
54.367355
11
45.953098
21
164.046814
31
51.966221
12
22.161989
22
163.466980
32
73.179817
13
27.048672
23
141.818909
33
84.081039
0
3DFACE
8
0
70
0
10
5.015685
20
166.277008
30
87.014717
11
7.138779
21
149.611328
31
101.622025
12
25.478592
22
148.288513
32
93.044968
13
19.670488
23
165.128845
33
87.131660
0
3DFACE
8
0
70
0
10
45.569736
20
196.341919
30
45.727570
11
58.293018
21
201.346069
31
44.218803
12
34.052055
22
214.775269
32
59.997402
13
32.874367
23
205.563599
33
60.746273
0
3DFACE
8
0
70
0
10
1.422144
20
221.706604
30
74.210342
11
0.499795
21
211.854462
31
73.842979
12
17.018980
22
217.181305
32
70.481003
13
19.486328
23
226.244568
33
68.611771
0
3DFACE
8
0
70
0
10
19.486328
20
226.244568
30
68.611771
11
17.018980
21
217.181305
31
70.481003
12
32.874367
22
205.563599
32
60.746273
13
34.052055
23
214.775269
33
59.997402
0
3DFACE
8
0
70
0
10
-8.361586
20
124.406311
30
105.291252
11
9.534366
21
129.645172
31
97.712189
12
7.244189
22
138.452850
32
93.807007
13
-6.968417
23
137.978394
33
99.490990
0
3DFACE
8
0
70
0
10
-12.499448
20
78.079773
30
93.314247
11
8.966942
21
87.716949
31
88.019035
12
9.534366
22
129.645172
32
97.712189
13
-8.361586
23
124.406311
33
105.291252
0
3DFACE
8
0
70
0
10
46.503475
20
153.276245
30
54.367355
11
27.048672
21
141.818909
31
84.081039
12
26.059746
22
136.924011
32
75.888969
13
49.130112
23
142.590485
33
59.805412
0
3DFACE
8
0
70
0
10
26.059746
20
136.924011
30
75.888969
11
34.883366
21
104.450348
31
52.153442
12
47.757629
22
129.180908
32
30.728819
13
49.130112
23
142.590485
33
59.805412
0
3DFACE
8
0
70
0
10
8.966942
20
87.716949
30
88.019035
11
34.883366
21
104.450348
31
52.153442
12
26.059746
22
136.924011
32
75.888969
13
9.534366
23
129.645172
33
97.712189
0
3DFACE
8
0
70
0
10
9.534366
20
129.645172
30
97.712189
11
26.059746
21
136.924011
31
75.888969
12
27.048672
22
141.818909
32
84.081039
13
7.244189
23
138.452850
33
93.807007
0
3DFACE
8
0
70
0
10
-5.811865
20
150.770874
30
102.081230
11
-6.968417
21
137.978394
31
99.490990
12
7.244189
22
138.452850
32
93.807007
13
7.138779
23
149.611328
33
101.622025
0
3DFACE
8
0
70
0
10
-4.108326
20
166.300964
30
89.816055
11
5.015685
21
166.277008
31
87.014717
12
7.350999
22
163.476959
32
79.204849
13
-4.329887
23
163.030609
33
85.340569
0
3DFACE
8
0
70
0
10
19.670488
20
165.128845
30
87.131660
11
22.161989
21
163.466980
31
73.179817
12
7.350999
22
163.476959
32
79.204849
13
5.015685
23
166.277008
33
87.014717
0
POINT
8
0
70
0
10
46.459114
20
141.300537
30
75.588348
0
3DFACE
8
0
70
0
10
7.138779
20
149.611328
30
101.622025
11
7.244189
21
138.452850
31
93.807007
12
27.048672
22
141.818909
32
84.081039
13
25.478592
23
148.288513
33
93.044968
0
3DFACE
8
0
70
0
10
25.478592
20
148.288513
30
93.044968
11
46.459114
21
141.300537
31
75.588348
12
19.670488
22
165.128845
32
87.131660
13
19.670488
23
165.128845
33
87.131660
0
3DFACE
8
0
70
0
10
19.670488
20
165.128845
30
87.131660
11
46.459114
21
141.300537
31
75.588348
12
22.161989
22
163.466980
32
73.179817
13
22.161989
23
163.466980
33
73.179817
0
3DFACE
8
0
70
0
10
46.459114
20
141.300537
30
75.588348
11
27.048672
21
141.818909
31
84.081039
12
22.161989
22
163.466980
32
73.179817
13
22.161989
23
163.466980
33
73.179817
0
3DFACE
8
0
70
0
10
27.048672
20
141.818909
30
84.081039
11
46.459114
21
141.300537
31
75.588348
12
25.478592
22
148.288513
32
93.044968
13
25.478592
23
148.288513
33
93.044968
0
3DFACE
8
0
70
0
10
58.293018
20
201.346069
30
44.218803
11
45.569736
21
196.341919
31
45.727570
12
58.598755
22
184.164825
32
10.621809
13
62.028946
23
185.173645
33
9.892392
0
3DFACE
8
0
70
0
10
45.569736
20
196.341919
30
45.727570
11
42.639694
21
186.762085
31
48.009808
12
59.394112
22
177.075958
32
13.051317
13
58.598755
23
184.164825
33
10.621809
0
3DFACE
8
0
70
0
10
42.639694
20
186.762085
30
48.009808
11
43.814262
21
173.731628
31
50.539665
12
58.150749
22
164.650452
32
17.835587
13
59.394112
23
177.075958
33
13.051317
0
3DFACE
8
0
70
0
10
62.028946
20
185.173645
30
9.892392
11
58.598755
21
184.164825
31
10.621809
12
41.637966
22
177.922607
32
-14.902353
13
43.982265
23
175.393311
33
-14.121696
0
3DFACE
8
0
70
0
10
59.394112
20
177.075958
30
13.051317
11
43.838276
21
176.153625
31
-17.173811
12
41.637966
22
177.922607
32
-14.902353
13
58.598755
23
184.164825
33
10.621809
0
3DFACE
8
0
70
0
10
58.150749
20
164.650452
30
17.835587
11
39.984619
21
164.708313
31
-16.331013
12
43.838276
22
176.153625
32
-17.173811
13
59.394112
23
177.075958
33
13.051317
0
3DFACE
8
0
70
0
10
43.982265
20
175.393311
30
-14.121696
11
41.637966
21
177.922607
31
-14.902353
12
-0.625019
22
178.041351
32
-32.424778
13
-1.112574
23
172.653625
33
-33.492188
0
3DFACE
8
0
70
0
10
43.838276
20
176.153625
30
-17.173811
11
-0.693498
21
177.239899
31
-32.791794
12
-0.625019
22
178.041351
32
-32.424778
13
41.637966
23
177.922607
33
-14.902353
0
3DFACE
8
0
70
0
10
39.984619
20
164.708313
30
-16.331013
11
-2.023955
21
164.006104
31
-28.575752
12
-0.693498
22
177.239899
32
-32.791794
13
43.838276
23
176.153625
33
-17.173811
0
3DFACE
8
0
70
0
10
47.757629
20
129.180908
30
30.728819
11
55.649765
21
143.952637
31
23.490532
12
46.503475
22
153.276245
32
54.367355
13
49.130112
23
142.590485
33
59.805412
0
3DFACE
8
0
70
0
10
43.814262
20
173.731628
30
50.539665
11
45.953098
21
164.046814
31
51.966221
12
58.150749
22
164.650452
32
17.835587
13
58.150749
23
164.650452
33
17.835587
0
3DFACE
8
0
70
0
10
46.503475
20
153.276245
30
54.367355
11
55.649765
21
143.952637
31
23.490532
12
58.150749
22
164.650452
32
17.835587
13
45.953098
23
164.046814
33
51.966221
0
3DFACE
8
0
70
0
10
55.649765
20
143.952637
30
23.490532
11
37.470879
21
147.833435
31
-9.882915
12
39.984619
22
164.708313
32
-16.331013
13
58.150749
23
164.650452
33
17.835587
0
3DFACE
8
0
70
0
10
37.470879
20
147.833435
30
-9.882915
11
-3.688456
21
147.975403
31
-20.749311
12
-2.023955
22
164.006104
32
-28.575752
13
39.984619
23
164.708313
33
-16.331013
0
3DFACE
8
0
70
0
10
1.422144
20
221.706604
30
74.210342
11
19.486328
21
226.244568
31
68.611771
12
23.521362
22
246.210907
32
58.876884
13
4.172307
23
248.878174
33
64.604294
0
3DFACE
8
0
70
0
10
4.172307
20
248.878174
30
64.604294
11
23.521362
21
246.210907
31
58.876884
12
24.098049
22
247.090820
32
53.566269
13
4.472487
23
251.168945
33
60.279057
0
3DFACE
8
0
70
0
10
19.486328
20
226.244568
30
68.611771
11
34.052055
21
214.775269
31
59.997402
12
49.622402
22
238.368195
32
47.196121
13
23.521362
23
246.210907
33
58.876884
0
3DFACE
8
0
70
0
10
23.521362
20
246.210907
30
58.876884
11
49.622402
21
238.368195
31
47.196121
12
48.617531
22
239.882141
32
42.030212
13
24.098049
23
247.090820
33
53.566269
0
3DFACE
8
0
70
0
10
34.052055
20
214.775269
30
59.997402
11
58.293018
21
201.346069
31
44.218803
12
64.707787
22
221.243103
32
19.941305
13
49.622402
23
238.368195
33
47.196121
0
3DFACE
8
0
70
0
10
49.622402
20
238.368195
30
47.196121
11
64.707787
21
221.243103
31
19.941305
12
56.828110
22
225.564209
32
17.382320
13
48.617531
23
239.882141
33
42.030212
0
3DFACE
8
0
70
0
10
58.293018
20
201.346069
30
44.218803
11
62.028946
21
185.173645
31
9.892392
12
68.881798
22
212.279236
32
-4.399672
13
64.707787
23
221.243103
33
19.941305
0
3DFACE
8
0
70
0
10
64.707787
20
221.243103
30
19.941305
11
68.881798
21
212.279236
31
-4.399672
12
62.628735
22
215.907715
32
-3.853052
13
56.828110
23
225.564209
33
17.382320
0
3DFACE
8
0
70
0
10
62.028946
20
185.173645
30
9.892392
11
43.982265
21
175.393311
31
-14.121696
12
47.496647
22
200.909576
32
-24.804125
13
68.881798
23
212.279236
33
-4.399672
0
3DFACE
8
0
70
0
10
68.881798
20
212.279236
30
-4.399672
11
47.496647
21
200.909576
31
-24.804125
12
42.437920
22
206.590210
32
-22.727962
13
62.628735
23
215.907715
33
-3.853052
0
3DFACE
8
0
70
0
10
43.982265
20
175.393311
30
-14.121696
11
-1.112574
21
172.653625
31
-33.492188
12
1.308648
22
196.206848
32
-43.737938
13
47.496647
23
200.909576
33
-24.804125
0
3DFACE
8
0
70
0
10
47.496647
20
200.909576
30
-24.804125
11
1.308648
21
196.206848
31
-43.737938
12
1.714064
22
201.134033
32
-40.679794
13
42.437920
23
206.590210
33
-22.727962
0
3DFACE
8
0
70
0
10
47.757629
20
129.180908
30
30.728819
11
39.666786
21
137.322693
31
17.300604
12
37.470879
22
147.833435
32
-9.882915
13
55.649765
23
143.952637
33
23.490532
0
3DFACE
8
0
70
0
10
39.666786
20
137.322693
30
17.300604
11
1.247347
21
148.950256
31
-3.128552
12
-3.688456
22
147.975403
32
-20.749311
13
37.470879
23
147.833435
33
-9.882915
0
3DFACE
8
0
70
0
10
34.883366
20
104.450348
30
52.153442
11
33.162209
21
113.218262
31
44.086304
12
39.666786
22
137.322693
32
17.300604
13
47.757629
23
129.180908
33
30.728819
0
3DFACE
8
0
70
0
10
8.966942
20
87.716949
30
88.019035
11
6.625517
21
85.409729
31
72.253639
12
33.162209
22
113.218262
32
44.086304
13
34.883366
23
104.450348
33
52.153442
0
3DFACE
8
0
70
0
10
6.625517
20
85.409729
30
72.253639
11
-11.389595
21
84.634613
31
68.027031
12
-9.276695
22
101.751205
32
42.399513
13
33.162209
23
113.218262
33
44.086304
0
3DFACE
8
0
70
0
10
-12.499448
20
78.079773
30
93.314247
11
-11.389595
21
84.634613
31
68.027031
12
6.625517
22
85.409729
32
72.253639
13
6.625517
23
85.409729
33
72.253639
0
3DFACE
8
0
70
0
10
-12.499448
20
78.079773
30
93.314247
11
6.625517
21
85.409729
31
72.253639
12
8.966942
22
87.716949
32
88.019035
13
8.966942
23
87.716949
33
88.019035
0
3DFACE
8
0
70
0
10
-3.537236
20
170.908386
30
96.153793
11
-1.768121
21
190.118469
31
98.378632
12
-21.393986
22
190.490082
32
91.717461
13
-13.714772
23
171.326477
33
90.727829
0
3DFACE
8
0
70
0
10
-1.768121
20
190.118469
30
98.378632
11
-0.635103
21
200.805786
31
91.960358
12
-13.529100
22
197.933563
32
88.961670
13
-21.393986
23
190.490082
33
91.717461
0
3DFACE
8
0
70
0
10
-13.714772
20
171.326477
30
90.727829
11
-21.393986
21
190.490082
31
91.717461
12
-25.133167
22
184.880920
32
75.049690
13
-15.476265
23
165.630554
33
78.761215
0
3DFACE
8
0
70
0
10
-3.537236
20
170.908386
30
96.153793
11
-13.714772
21
171.326477
31
90.727829
12
-15.476265
22
165.630554
32
78.761215
13
-4.329887
23
163.030609
33
85.340569
0
3DFACE
8
0
70
0
10
-0.635103
20
200.805786
30
91.960358
11
-0.759370
21
199.277954
31
77.581078
12
-15.869974
22
195.752197
32
72.887589
13
-13.529100
23
197.933563
33
88.961670
0
3DFACE
8
0
70
0
10
-21.393986
20
190.490082
30
91.717461
11
-13.529100
21
197.933563
31
88.961670
12
-15.869974
22
195.752197
32
72.887589
13
-25.133167
23
184.880920
33
75.049690
0
3DFACE
8
0
70
0
10
-3.430012
20
207.927612
30
71.665688
11
-14.719212
21
216.902313
31
68.156776
12
-15.693019
22
197.444458
32
70.297050
13
-4.304185
23
199.209320
33
74.323540
0
3DFACE
8
0
70
0
10
-15.693019
20
197.444458
30
70.297050
11
-14.719212
21
216.902313
31
68.156776
12
-27.403748
22
207.884094
32
59.992813
13
-24.651022
23
198.181763
33
64.946030
0
3DFACE
8
0
70
0
10
-18.723490
20
152.051270
30
101.119408
11
-5.811865
21
150.770874
31
102.081230
12
-4.108326
22
166.300964
32
89.816055
13
-12.961178
23
167.973022
33
86.665352
0
3DFACE
8
0
70
0
10
-54.859390
20
162.839233
30
52.397434
11
-39.048603
21
148.054779
31
82.796478
12
-29.784765
22
168.367859
32
72.170265
13
-52.213074
23
173.308197
33
50.058426
0
3DFACE
8
0
70
0
10
-12.961178
20
167.973022
30
86.665352
11
-27.565689
21
169.585297
31
86.213661
12
-36.643089
22
154.149292
32
91.837669
13
-18.723490
23
152.051270
33
101.119408
0
3DFACE
8
0
70
0
10
-45.558823
20
204.939362
30
43.956543
11
-31.083235
21
211.597595
31
59.503296
12
-30.488274
22
220.864258
32
58.743095
13
-57.054527
23
212.228394
33
41.977097
0
3DFACE
8
0
70
0
10
1.422144
20
221.706604
30
74.210342
11
-14.767413
21
230.239319
31
67.671211
12
-14.111197
22
220.906464
32
69.690102
13
0.499795
23
211.854462
33
73.842979
0
3DFACE
8
0
70
0
10
-14.767413
20
230.239319
30
67.671211
11
-30.488274
21
220.864258
31
58.743095
12
-31.083235
22
211.597595
32
59.503296
13
-14.111197
23
220.906464
33
69.690102
0
3DFACE
8
0
70
0
10
-8.361586
20
124.406311
30
105.291252
11
-6.968417
21
137.978394
31
99.490990
12
-20.612104
22
141.080933
32
93.265633
13
-24.657194
23
132.870941
33
97.047699
0
3DFACE
8
0
70
0
10
-12.499448
20
78.079773
30
93.314247
11
-8.361586
21
124.406311
31
105.291252
12
-24.657194
22
132.870941
32
97.047699
13
-31.565521
23
91.540939
33
87.231308
0
3DFACE
8
0
70
0
10
-54.859390
20
162.839233
30
52.397434
11
-59.644897
21
152.852753
31
57.691441
12
-38.677483
22
143.031586
32
74.630844
13
-39.048603
23
148.054779
33
82.796478
0
3DFACE
8
0
70
0
10
-38.677483
20
143.031586
30
74.630844
11
-59.644897
21
152.852753
31
57.691441
12
-59.684841
22
139.317444
32
28.640743
13
-52.495834
23
112.694061
33
50.455280
0
3DFACE
8
0
70
0
10
-31.565521
20
91.540939
30
87.231308
11
-24.657194
21
132.870941
31
97.047699
12
-38.677483
22
143.031586
32
74.630844
13
-52.495834
23
112.694061
33
50.455280
0
3DFACE
8
0
70
0
10
-24.657194
20
132.870941
30
97.047699
11
-20.612104
21
141.080933
31
93.265633
12
-39.048603
22
148.054779
32
82.796478
13
-38.677483
23
143.031586
33
74.630844
0
3DFACE
8
0
70
0
10
-5.811865
20
150.770874
30
102.081230
11
-18.723490
21
152.051270
31
101.119408
12
-20.612104
22
141.080933
32
93.265633
13
-6.968417
23
137.978394
33
99.490990
0
3DFACE
8
0
70
0
10
-4.108326
20
166.300964
30
89.816055
11
-4.329887
21
163.030609
31
85.340569
12
-15.476265
22
165.630554
32
78.761215
13
-12.961178
23
167.973022
33
86.665352
0
3DFACE
8
0
70
0
10
-27.565689
20
169.585297
30
86.213661
11
-12.961178
21
167.973022
31
86.665352
12
-15.476265
22
165.630554
32
78.761215
13
-29.784765
23
168.367859
33
72.170265
0
POINT
8
0
70
0
10
-57.068275
20
151.067719
30
73.576363
0
3DFACE
8
0
70
0
10
-18.723490
20
152.051270
30
101.119408
11
-36.643089
21
154.149292
31
91.837669
12
-39.048603
22
148.054779
32
82.796478
13
-20.612104
23
141.080933
33
93.265633
0
3DFACE
8
0
70
0
10
-36.643089
20
154.149292
30
91.837669
11
-27.565689
21
169.585297
31
86.213661
12
-57.068275
22
151.067719
32
73.576363
13
-57.068275
23
151.067719
33
73.576363
0
3DFACE
8
0
70
0
10
-27.565689
20
169.585297
30
86.213661
11
-29.784765
21
168.367859
31
72.170265
12
-57.068275
22
151.067719
32
73.576363
13
-57.068275
23
151.067719
33
73.576363
0
3DFACE
8
0
70
0
10
-57.068275
20
151.067719
30
73.576363
11
-29.784765
21
168.367859
31
72.170265
12
-39.048603
22
148.054779
32
82.796478
13
-39.048603
23
148.054779
33
82.796478
0
3DFACE
8
0
70
0
10
-39.048603
20
148.054779
30
82.796478
11
-36.643089
21
154.149292
31
91.837669
12
-57.068275
22
151.067719
32
73.576363
13
-57.068275
23
151.067719
33
73.576363
0
3DFACE
8
0
70
0
10
-57.054527
20
212.228394
30
41.977097
11
-62.423290
21
196.914978
31
7.473741
12
-59.272861
22
195.285278
32
8.331049
13
-45.558823
23
204.939362
33
43.956543
0
3DFACE
8
0
70
0
10
-45.558823
20
204.939362
30
43.956543
11
-59.272861
21
195.285278
31
8.331049
12
-61.472450
22
188.479004
32
10.702352
13
-44.561535
23
194.989014
33
46.315105
0
3DFACE
8
0
70
0
10
-44.561535
20
194.989014
30
46.315105
11
-61.472450
21
188.479004
31
10.702352
12
-62.759182
22
176.057556
32
15.485781
13
-48.248013
23
182.417145
33
48.750496
0
3DFACE
8
0
70
0
10
-62.423290
20
196.914978
30
7.473741
11
-45.612076
21
183.846008
31
-15.862905
12
-42.807949
22
185.889587
32
-16.543507
13
-59.272861
23
195.285278
33
8.331049
0
3DFACE
8
0
70
0
10
-61.472450
20
188.479004
30
10.702352
11
-59.272861
21
195.285278
31
8.331049
12
-42.807949
22
185.889587
32
-16.543507
13
-45.211052
23
184.554901
33
-18.904428
0
3DFACE
8
0
70
0
10
-62.759182
20
176.057556
30
15.485781
11
-61.472450
21
188.479004
31
10.702352
12
-45.211052
22
184.554901
32
-18.904428
13
-43.600449
23
172.594055
33
-17.955437
0
3DFACE
8
0
70
0
10
-45.612076
20
183.846008
30
-15.862905
11
-1.112574
21
172.653625
31
-33.492188
12
-0.625019
22
178.041351
32
-32.424778
13
-42.807949
23
185.889587
33
-16.543507
0
3DFACE
8
0
70
0
10
-45.211052
20
184.554901
30
-18.904428
11
-42.807949
21
185.889587
31
-16.543507
12
-0.625019
22
178.041351
32
-32.424778
13
-0.693498
23
177.239899
33
-32.791794
0
3DFACE
8
0
70
0
10
-43.600449
20
172.594055
30
-17.955437
11
-45.211052
21
184.554901
31
-18.904428
12
-0.693498
22
177.239899
32
-32.791794
13
-2.023955
23
164.006104
33
-28.575752
0
3DFACE
8
0
70
0
10
-59.684841
20
139.317444
30
28.640743
11
-59.644897
21
152.852753
31
57.691441
12
-54.859390
22
162.839233
32
52.397434
13
-64.391487
23
155.277771
33
21.157606
0
3DFACE
8
0
70
0
10
-48.248013
20
182.417145
30
48.750496
11
-62.759182
21
176.057556
31
15.485781
12
-52.213074
22
173.308197
32
50.058426
13
-52.213074
23
173.308197
33
50.058426
0
3DFACE
8
0
70
0
10
-54.859390
20
162.839233
30
52.397434
11
-52.213074
21
173.308197
31
50.058426
12
-62.759182
22
176.057556
32
15.485781
13
-64.391487
23
155.277771
33
21.157606
0
3DFACE
8
0
70
0
10
-64.391487
20
155.277771
30
21.157606
11
-62.759182
21
176.057556
31
15.485781
12
-43.600449
22
172.594055
32
-17.955437
13
-44.536060
23
155.570313
33
-11.476666
0
3DFACE
8
0
70
0
10
-44.536060
20
155.570313
30
-11.476666
11
-43.600449
21
172.594055
31
-17.955437
12
-2.023955
22
164.006104
32
-28.575752
13
-3.688456
23
147.975403
33
-20.749311
0
3DFACE
8
0
70
0
10
1.422144
20
221.706604
30
74.210342
11
4.172307
21
248.878174
31
64.604294
12
-15.099075
22
249.854523
32
58.126320
13
-14.767413
23
230.239319
33
67.671211
0
3DFACE
8
0
70
0
10
4.172307
20
248.878174
30
64.604294
11
4.472487
21
251.168945
31
60.279057
12
-15.296136
22
250.807434
32
52.800667
13
-15.099075
23
249.854523
33
58.126320
0
3DFACE
8
0
70
0
10
-14.767413
20
230.239319
30
67.671211
11
-15.099075
21
249.854523
31
58.126320
12
-41.736584
22
246.987366
32
45.420616
13
-30.488274
23
220.864258
33
58.743095
0
3DFACE
8
0
70
0
10
-15.099075
20
249.854523
30
58.126320
11
-15.296136
21
250.807434
31
52.800667
12
-40.268204
22
248.267975
32
40.302773
13
-41.736584
23
246.987366
33
45.420616
0
3DFACE
8
0
70
0
10
-30.488274
20
220.864258
30
58.743095
11
-41.736584
21
246.987366
31
45.420616
12
-58.696587
22
232.885559
32
17.543018
13
-57.054527
23
212.228394
33
41.977097
0
3DFACE
8
0
70
0
10
-41.736584
20
246.987366
30
45.420616
11
-40.268204
21
248.267975
31
40.302773
12
-50.055382
22
235.648010
32
15.305108
13
-58.696587
23
232.885559
33
17.543018
0
3DFACE
8
0
70
0
10
-57.054527
20
212.228394
30
41.977097
11
-58.696587
21
232.885559
31
17.543018
12
-63.532257
22
224.771729
32
-6.973056
13
-62.423290
23
196.914978
33
7.473741
0
3DFACE
8
0
70
0
10
-58.696587
20
232.885559
30
17.543018
11
-50.055382
21
235.648010
31
15.305108
12
-56.736862
22
227.169128
32
-6.172847
13
-63.532257
23
224.771729
33
-6.973056
0
3DFACE
8
0
70
0
10
-62.423290
20
196.914978
30
7.473741
11
-63.532257
21
224.771729
31
-6.973056
12
-43.880100
22
209.530396
32
-26.579975
13
-45.612076
23
183.846008
33
-15.862905
0
3DFACE
8
0
70
0
10
-63.532257
20
224.771729
30
-6.973056
11
-56.736862
21
227.169128
31
-6.172847
12
-37.932331
22
214.172638
32
-24.289907
13
-43.880100
23
209.530396
33
-26.579975
0
3DFACE
8
0
70
0
10
-45.612076
20
183.846008
30
-15.862905
11
-43.880100
21
209.530396
31
-26.579975
12
1.308648
22
196.206848
32
-43.737938
13
-1.112574
23
172.653625
33
-33.492188
0
3DFACE
8
0
70
0
10
-43.880100
20
209.530396
30
-26.579975
11
-37.932331
21
214.172638
31
-24.289907
12
1.714064
22
201.134033
32
-40.679794
13
1.308648
23
196.206848
33
-43.737938
0
3DFACE
8
0
70
0
10
-59.684841
20
139.317444
30
28.640743
11
-64.391487
21
155.277771
31
21.157606
12
-44.536060
22
155.570313
32
-11.476666
13
-35.595589
23
142.068542
33
17.429707
0
3DFACE
8
0
70
0
10
-35.595589
20
142.068542
30
17.429707
11
-44.536060
21
155.570313
31
-11.476666
12
-3.688456
22
147.975403
32
-20.749311
13
1.247347
23
148.950256
33
-3.128552
0
3DFACE
8
0
70
0
10
-52.495834
20
112.694061
30
50.455280
11
-59.684841
21
139.317444
31
28.640743
12
-35.595589
22
142.068542
32
17.429707
13
-28.772707
23
118.624573
33
44.233372
0
3DFACE
8
0
70
0
10
-31.565521
20
91.540939
30
87.231308
11
-52.495834
21
112.694061
31
50.455280
12
-28.772707
22
118.624573
32
44.233372
13
-29.091343
23
88.779388
33
71.559502
0
3DFACE
8
0
70
0
10
-29.091343
20
88.779388
30
71.559502
11
-28.772707
21
118.624573
31
44.233372
12
-9.276695
22
101.751205
32
42.399513
13
-11.389595
23
84.634613
33
68.027031
0
3DFACE
8
0
70
0
10
-12.499448
20
78.079773
30
93.314247
11
-29.091343
21
88.779388
31
71.559502
12
-11.389595
22
84.634613
32
68.027031
13
-11.389595
23
84.634613
33
68.027031
0
3DFACE
8
0
70
0
10
-12.499448
20
78.079773
30
93.314247
11
-31.565521
21
91.540939
31
87.231308
12
-29.091343
22
88.779388
32
71.559502
13
-29.091343
23
88.779388
33
71.559502
0
3DFACE
8
0
70
0
10
-4.304185
20
199.209320
30
74.323540
11
-0.759370
21
199.277954
31
77.581078
12
0.499795
22
211.854462
32
73.842979
13
-3.430012
23
207.927612
33
71.665688
0
3DFACE
8
0
70
0
10
-15.693019
20
197.444458
30
70.297050
11
-15.869974
21
195.752197
31
72.887589
12
-0.759370
22
199.277954
32
77.581078
13
-4.304185
23
199.209320
33
74.323540
0
3DFACE
8
0
70
0
10
-14.719212
20
216.902313
30
68.156776
11
-3.430012
21
207.927612
31
71.665688
12
0.499795
22
211.854462
32
73.842979
13
-14.111197
23
220.906464
33
69.690102
0
3DFACE
8
0
70
0
10
-15.693019
20
197.444458
30
70.297050
11
-24.651022
21
198.181763
31
64.946030
12
-27.651909
22
196.855713
32
66.241554
13
-15.869974
23
195.752197
33
72.887589
0
3DFACE
8
0
70
0
10
-24.651022
20
198.181763
30
64.946030
11
-27.403748
21
207.884094
31
59.992813
12
-31.083235
22
211.597595
32
59.503296
13
-27.651909
23
196.855713
33
66.241554
0
3DFACE
8
0
70
0
10
-14.719212
20
216.902313
30
68.156776
11
-14.111197
21
220.906464
31
69.690102
12
-31.083235
22
211.597595
32
59.503296
13
-27.403748
23
207.884094
33
59.992813
0
3DFACE
8
0
70
0
10
17.183765
20
213.167877
30
68.720779
11
17.018980
21
217.181305
31
70.481003
12
0.499795
22
211.854462
32
73.842979
13
4.169549
23
207.364380
33
71.965813
0
3DFACE
8
0
70
0
10
14.011737
20
193.912292
30
70.381218
11
3.258237
21
198.308411
31
74.895424
12
-0.759370
22
199.277954
32
77.581078
13
13.595005
23
192.972351
33
73.460220
0
3DFACE
8
0
70
0
10
3.258237
20
198.308411
30
74.895424
11
4.169549
21
207.364380
31
71.965813
12
0.499795
22
211.854462
32
73.842979
13
-0.759370
23
199.277954
33
77.581078
0
3DFACE
8
0
70
0
10
17.183765
20
213.167877
30
68.720779
11
28.323904
21
202.238983
31
58.599617
12
32.874367
22
205.563599
32
60.746273
13
17.018980
23
217.181305
33
70.481003
0
3DFACE
8
0
70
0
10
23.625505
20
192.716919
30
64.208733
11
26.490591
21
191.747681
31
67.293777
12
32.874367
22
205.563599
32
60.746273
13
28.323904
23
202.238983
33
58.599617
0
3DFACE
8
0
70
0
10
14.011737
20
193.912292
30
70.381218
11
13.595005
21
192.972351
31
73.460220
12
26.490591
22
191.747681
32
67.293777
13
23.625505
23
192.716919
33
64.208733
0
3DFACE
8
0
70
0
10
1.247347
20
148.950256
30
-3.128552
11
39.666786
21
137.322693
31
17.300604
12
69.797272
22
130.805115
32
-11.744743
13
6.721849
23
147.500885
33
-7.311019
0
3DFACE
8
0
70
0
10
6.721849
20
147.500885
30
-7.311019
11
-58.584087
21
136.147217
31
-8.124345
12
-35.595589
22
142.068542
32
17.429707
13
1.247347
23
148.950256
33
-3.128552
0
3DFACE
8
0
70
0
10
-58.584087
20
136.147217
30
-8.124345
11
-45.983665
21
111.451782
31
49.891468
12
-35.595589
22
142.068542
32
17.429707
13
-35.595589
23
142.068542
33
17.429707
0
3DFACE
8
0
70
0
10
-45.983665
20
111.451782
30
49.891468
11
-28.772707
21
118.624573
31
44.233372
12
-35.595589
22
142.068542
32
17.429707
13
-35.595589
23
142.068542
33
17.429707
0
3DFACE
8
0
70
0
10
63.268265
20
104.655701
30
47.759785
11
39.666786
21
137.322693
31
17.300604
12
33.162209
22
113.218262
32
44.086304
13
33.162209
23
113.218262
33
44.086304
0
3DFACE
8
0
70
0
10
69.797272
20
130.805115
30
-11.744743
11
39.666786
21
137.322693
31
17.300604
12
63.268265
22
104.655701
32
47.759785
13
63.268265
23
104.655701
33
47.759785
0
3DFACE
8
0
70
0
10
11.761261
20
104.997894
30
54.096401
11
-28.772707
21
118.624573
31
44.233372
12
-45.983665
22
111.451782
32
49.891468
13
-45.983665
23
111.451782
33
49.891468
0
3DFACE
8
0
70
0
10
-9.276695
20
101.751205
30
42.399513
11
-28.772707
21
118.624573
31
44.233372
12
11.761261
22
104.997894
32
54.096401
13
11.761261
23
104.997894
33
54.096401
0
3DFACE
8
0
70
0
10
-9.276695
20
101.751205
30
42.399513
11
11.761261
21
104.997894
31
54.096401
12
33.162209
22
113.218262
32
44.086304
13
33.162209
23
113.218262
33
44.086304
0
3DFACE
8
0
70
0
10
11.761261
20
104.997894
30
54.096401
11
63.268265
21
104.655701
31
47.759785
12
33.162209
22
113.218262
32
44.086304
13
33.162209
23
113.218262
33
44.086304
0
3DFACE
8
0
70
0
10
1.714064
20
201.134033
30
-40.679794
11
7.396800
21
262.809845
31
-35.128899
12
23.485483
22
264.733734
32
-28.083092
13
42.437920
23
206.590210
33
-22.727962
0
3DFACE
8
0
70
0
10
42.437920
20
206.590210
30
-22.727962
11
23.485483
21
264.733734
31
-28.083092
12
34.438885
22
268.809235
32
-17.875837
13
62.628735
23
215.907715
33
-3.853052
0
3DFACE
8
0
70
0
10
62.628735
20
215.907715
30
-3.853052
11
34.438885
21
268.809235
31
-17.875837
12
32.289482
22
274.238312
32
-7.693417
13
56.828110
23
225.564209
33
17.382320
0
3DFACE
8
0
70
0
10
56.828110
20
225.564209
30
17.382320
11
32.289482
21
274.238312
31
-7.693417
12
29.984776
22
280.934845
32
4.936789
13
48.617531
23
239.882141
33
42.030212
0
3DFACE
8
0
70
0
10
4.472487
20
251.168945
30
60.279057
11
24.098049
21
247.090820
31
53.566269
12
18.284933
22
285.184326
32
10.863316
13
8.805226
23
287.914490
33
14.270494
0
3DFACE
8
0
70
0
10
1.714064
20
201.134033
30
-40.679794
11
-37.932331
21
214.172638
31
-24.289907
12
-8.307736
22
267.733246
32
-28.700974
13
7.396800
23
262.809845
33
-35.128899
0
3DFACE
8
0
70
0
10
-37.932331
20
214.172638
30
-24.289907
11
-56.736862
21
227.169128
31
-6.172847
12
-18.690908
22
273.821686
32
-18.908382
13
-8.307736
23
267.733246
33
-28.700974
0
3DFACE
8
0
70
0
10
-56.736862
20
227.169128
30
-6.172847
11
-50.055382
21
235.648010
31
15.305108
12
-15.958186
22
278.790192
32
-8.631081
13
-18.690908
23
273.821686
33
-18.908382
0
3DFACE
8
0
70
0
10
-50.055382
20
235.648010
30
15.305108
11
-40.268204
21
248.267975
31
40.302773
12
-12.930323
22
284.983612
32
4.102761
13
-15.958186
23
278.790192
33
-8.631081
0
3DFACE
8
0
70
0
10
4.472487
20
251.168945
30
60.279057
11
8.805226
21
287.914490
31
14.270494
12
-0.879380
22
286.992371
32
10.490869
13
-15.296136
23
250.807434
33
52.800667
0
3DFACE
8
0
70
0
10
48.617531
20
239.882141
30
42.030212
11
29.984776
21
280.934845
31
4.936789
12
18.284933
22
285.184326
32
10.863316
13
24.098049
23
247.090820
33
53.566269
0
3DFACE
8
0
70
0
10
-40.268204
20
248.267975
30
40.302773
11
-15.296136
21
250.807434
31
52.800667
12
-0.879380
22
286.992371
32
10.490869
13
-12.930323
23
284.983612
33
4.102761
0
3DFACE
8
0
70
0
10
13.528693
20
329.820740
30
-27.506554
11
27.478050
21
330.905518
31
-36.516312
12
14.579610
22
338.129944
32
-41.244560
13
14.579610
23
338.129944
33
-41.244560
0
3DFACE
8
0
70
0
10
26.182491
20
319.012756
30
-27.586420
11
27.478050
21
330.905518
31
-36.516312
12
13.528693
22
329.820740
32
-27.506554
13
13.528693
23
329.820740
33
-27.506554
0
3DFACE
8
0
70
0
10
11.988489
20
314.344391
30
-23.384735
11
26.182491
21
319.012756
31
-27.586420
12
13.528693
22
329.820740
32
-27.506554
13
13.528693
23
329.820740
33
-27.506554
0
3DFACE
8
0
70
0
10
11.988489
20
314.344391
30
-23.384735
11
13.528693
21
329.820740
31
-27.506554
12
-0.909924
22
321.568787
32
-28.112944
13
-0.909924
23
321.568787
33
-28.112944
0
3DFACE
8
0
70
0
10
-0.909924
20
321.568787
30
-28.112944
11
13.528693
21
329.820740
31
-27.506554
12
0.385634
22
333.461517
32
-37.042839
13
0.385634
23
333.461517
33
-37.042839
0
3DFACE
8
0
70
0
10
13.528693
20
329.820740
30
-27.506554
11
14.579610
21
338.129944
31
-41.244560
12
0.385634
22
333.461517
32
-37.042839
13
0.385634
23
333.461517
33
-37.042839
0
3DFACE
8
0
70
0
10
27.478050
20
330.905518
30
-36.516312
11
32.766747
21
324.187775
31
-49.864464
12
14.525620
22
334.404572
32
-56.551167
13
14.579610
23
338.129944
33
-41.244560
0
3DFACE
8
0
70
0
10
30.934546
20
307.368805
30
-37.235634
11
32.766747
21
324.187775
31
-49.864464
12
27.478050
22
330.905518
32
-36.516312
13
26.182491
23
319.012756
33
-27.586420
0
3DFACE
8
0
70
0
10
10.861225
20
300.766754
30
-31.293568
11
30.934546
21
307.368805
31
-37.235634
12
26.182491
22
319.012756
32
-27.586420
13
11.988489
23
314.344391
33
-23.384735
0
3DFACE
8
0
70
0
10
10.861225
20
300.766754
30
-31.293568
11
11.988489
21
314.344391
31
-23.384735
12
-0.909924
22
321.568787
32
-28.112944
13
-7.379908
23
310.983551
33
-37.980251
0
3DFACE
8
0
70
0
10
-7.379908
20
310.983551
30
-37.980251
11
-0.909924
21
321.568787
31
-28.112944
12
0.385634
22
333.461517
32
-37.042839
13
-5.547706
23
327.802490
33
-50.609077
0
3DFACE
8
0
70
0
10
0.385634
20
333.461517
30
-37.042839
11
14.579610
21
338.129944
31
-41.244560
12
14.525620
22
334.404572
32
-56.551167
13
-5.547706
23
327.802490
33
-50.609077
0
3DFACE
8
0
70
0
10
26.296791
20
313.602478
30
-59.731735
11
13.398355
21
320.826904
31
-64.459984
12
14.525620
22
334.404572
32
-56.551167
13
32.766747
23
324.187775
33
-49.864464
0
3DFACE
8
0
70
0
10
30.934546
20
307.368805
30
-37.235634
11
25.001234
21
301.709717
31
-50.801842
12
26.296791
22
313.602478
32
-59.731735
13
32.766747
23
324.187775
33
-49.864464
0
3DFACE
8
0
70
0
10
10.861225
20
300.766754
30
-31.293568
11
10.807234
21
297.041351
31
-46.600155
12
25.001234
22
301.709717
32
-50.801842
13
30.934546
23
307.368805
33
-37.235634
0
3DFACE
8
0
70
0
10
10.861225
20
300.766754
30
-31.293568
11
-7.379908
21
310.983551
31
-37.980251
12
-2.091179
22
304.265717
32
-51.328365
13
10.807234
23
297.041351
33
-46.600155
0
3DFACE
8
0
70
0
10
-7.379908
20
310.983551
30
-37.980251
11
-5.547706
21
327.802490
31
-50.609077
12
-0.795622
22
316.158478
32
-60.258263
13
-2.091179
23
304.265717
33
-51.328365
0
3DFACE
8
0
70
0
10
-0.795622
20
316.158478
30
-60.258263
11
-5.547706
21
327.802490
31
-50.609077
12
14.525620
22
334.404572
32
-56.551167
13
13.398355
23
320.826904
33
-64.459984
0
3DFACE
8
0
70
0
10
11.858136
20
305.350525
30
-60.338135
11
13.398355
21
320.826904
31
-64.459984
12
26.296791
22
313.602478
32
-59.731735
13
26.296791
23
313.602478
33
-59.731735
0
3DFACE
8
0
70
0
10
25.001234
20
301.709717
30
-50.801842
11
11.858136
21
305.350525
31
-60.338135
12
26.296791
22
313.602478
32
-59.731735
13
26.296791
23
313.602478
33
-59.731735
0
3DFACE
8
0
70
0
10
10.807234
20
297.041351
30
-46.600155
11
11.858136
21
305.350525
31
-60.338135
12
25.001234
22
301.709717
32
-50.801842
13
25.001234
23
301.709717
33
-50.801842
0
3DFACE
8
0
70
0
10
10.807234
20
297.041351
30
-46.600155
11
-2.091179
21
304.265717
31
-51.328365
12
11.858136
22
305.350525
32
-60.338135
13
11.858136
23
305.350525
33
-60.338135
0
3DFACE
8
0
70
0
10
-2.091179
20
304.265717
30
-51.328365
11
-0.795622
21
316.158478
31
-60.258263
12
11.858136
22
305.350525
32
-60.338135
13
11.858136
23
305.350525
33
-60.338135
0
3DFACE
8
0
70
0
10
11.858136
20
305.350525
30
-60.338135
11
-0.795622
21
316.158478
31
-60.258263
12
13.398355
22
320.826904
32
-64.459984
13
13.398355
23
320.826904
33
-64.459984
0
3DFACE
8
0
70
0
10
22.161989
20
163.466980
30
73.179817
11
45.953098
21
164.046814
31
51.966221
12
35.121841
22
178.433105
32
73.279762
13
35.121841
23
178.433105
33
73.279762
0
3DFACE
8
0
70
0
10
45.953098
20
164.046814
30
51.966221
11
43.814262
21
173.731628
31
50.539665
12
35.121841
22
178.433105
32
73.279762
13
35.121841
23
178.433105
33
73.279762
0
3DFACE
8
0
70
0
10
7.350999
20
163.476959
30
79.204849
11
22.161989
21
163.466980
31
73.179817
12
20.572197
22
180.568909
32
75.937950
13
20.572197
23
180.568909
33
75.937950
0
3DFACE
8
0
70
0
10
22.161989
20
163.466980
30
73.179817
11
35.121841
21
178.433105
31
73.279762
12
20.572197
22
180.568909
32
75.937950
13
20.572197
23
180.568909
33
75.937950
0
3DFACE
8
0
70
0
10
35.121841
20
178.433105
30
73.279762
11
43.814262
21
173.731628
31
50.539665
12
26.490591
22
191.747681
32
67.293777
13
26.490591
23
191.747681
33
67.293777
0
3DFACE
8
0
70
0
10
43.814262
20
173.731628
30
50.539665
11
42.639694
21
186.762085
31
48.009808
12
26.490591
22
191.747681
32
67.293777
13
26.490591
23
191.747681
33
67.293777
0
3DFACE
8
0
70
0
10
20.572197
20
180.568909
30
75.937950
11
26.490591
21
191.747681
31
67.293777
12
13.595005
22
192.972351
32
73.460220
13
13.595005
23
192.972351
33
73.460220
0
3DFACE
8
0
70
0
10
35.121841
20
178.433105
30
73.279762
11
26.490591
21
191.747681
31
67.293777
12
20.572197
22
180.568909
32
75.937950
13
20.572197
23
180.568909
33
75.937950
0
3DFACE
8
0
70
0
10
26.490591
20
191.747681
30
67.293777
11
42.639694
21
186.762085
31
48.009808
12
32.874367
22
205.563599
32
60.746273
13
32.874367
23
205.563599
33
60.746273
0
3DFACE
8
0
70
0
10
42.639694
20
186.762085
30
48.009808
11
45.569736
21
196.341919
31
45.727570
12
32.874367
22
205.563599
32
60.746273
13
32.874367
23
205.563599
33
60.746273
0
3DFACE
8
0
70
0
10
-52.213074
20
173.308197
30
50.058426
11
-39.712219
21
185.493225
31
71.825409
12
-48.248013
22
182.417145
32
48.750496
13
-48.248013
23
182.417145
33
48.750496
0
3DFACE
8
0
70
0
10
-29.784765
20
168.367859
30
72.170265
11
-39.712219
21
185.493225
31
71.825409
12
-52.213074
22
173.308197
32
50.058426
13
-52.213074
23
173.308197
33
50.058426
0
3DFACE
8
0
70
0
10
-29.784765
20
168.367859
30
72.170265
11
-25.133167
21
184.880920
31
75.049690
12
-39.712219
22
185.493225
32
71.825409
13
-39.712219
23
185.493225
33
71.825409
0
3DFACE
8
0
70
0
10
-15.476265
20
165.630554
30
78.761215
11
-25.133167
21
184.880920
31
75.049690
12
-29.784765
22
168.367859
32
72.170265
13
-29.784765
23
168.367859
33
72.170265
0
3DFACE
8
0
70
0
10
-48.248013
20
182.417145
30
48.750496
11
-27.651909
21
196.855713
31
66.241554
12
-44.561535
22
194.989014
32
46.315105
13
-44.561535
23
194.989014
33
46.315105
0
3DFACE
8
0
70
0
10
-39.712219
20
185.493225
30
71.825409
11
-27.651909
21
196.855713
31
66.241554
12
-48.248013
22
182.417145
32
48.750496
13
-48.248013
23
182.417145
33
48.750496
0
3DFACE
8
0
70
0
10
-25.133167
20
184.880920
30
75.049690
11
-15.869974
21
195.752197
31
72.887589
12
-27.651909
22
196.855713
32
66.241554
13
-27.651909
23
196.855713
33
66.241554
0
3DFACE
8
0
70
0
10
-39.712219
20
185.493225
30
71.825409
11
-25.133167
21
184.880920
31
75.049690
12
-27.651909
22
196.855713
32
66.241554
13
-27.651909
23
196.855713
33
66.241554
0
3DFACE
8
0
70
0
10
-44.561535
20
194.989014
30
46.315105
11
-31.083235
21
211.597595
31
59.503296
12
-45.558823
22
204.939362
32
43.956543
13
-45.558823
23
204.939362
33
43.956543
0
3DFACE
8
0
70
0
10
-27.651909
20
196.855713
30
66.241554
11
-31.083235
21
211.597595
31
59.503296
12
-44.561535
22
194.989014
32
46.315105
13
-44.561535
23
194.989014
33
46.315105
0
3DFACE
8
0
70
0
10
37.548153
20
-143.384949
30
31.051104
11
32.988831
21
-120.184631
31
29.041689
12
20.679401
22
-109.262558
32
7.535886
13
20.679401
23
-109.262558
33
7.535886
0
3DFACE
8
0
70
0
10
37.548153
20
-143.384949
30
31.051104
11
20.679401
21
-109.262558
31
7.535886
12
25.665939
22
-137.771103
32
10.153373
13
25.665939
23
-137.771103
33
10.153373
0
3DFACE
8
0
70
0
10
37.548153
20
-143.384949
30
31.051104
11
72.685432
21
-113.589157
31
13.812161
12
32.988831
22
-120.184631
32
29.041689
13
32.988831
23
-120.184631
33
29.041689
0
3DFACE
8
0
70
0
10
37.548153
20
-143.384949
30
31.051104
11
71.488052
21
-137.942841
31
17.377844
12
72.685432
22
-113.589157
32
13.812161
13
72.685432
23
-113.589157
33
13.812161
0
3DFACE
8
0
70
0
10
71.488052
20
-137.942841
30
17.377844
11
80.201607
21
-105.631149
31
-2.641849
12
72.685432
22
-113.589157
32
13.812161
13
72.685432
23
-113.589157
33
13.812161
0
3DFACE
8
0
70
0
10
71.488052
20
-137.942841
30
17.377844
11
77.793144
21
-133.082428
31
1.688377
12
80.201607
22
-105.631149
32
-2.641849
13
80.201607
23
-105.631149
33
-2.641849
0
3DFACE
8
0
70
0
10
29.179272
20
-130.484482
30
-14.228260
11
20.679401
21
-109.262558
31
7.535886
12
23.724508
22
-96.900642
32
-17.612944
13
23.724508
23
-96.900642
33
-17.612944
0
3DFACE
8
0
70
0
10
25.665939
20
-137.771103
30
10.153373
11
20.679401
21
-109.262558
31
7.535886
12
29.179272
22
-130.484482
32
-14.228260
13
29.179272
23
-130.484482
33
-14.228260
0
3DFACE
8
0
70
0
10
66.048279
20
-129.557541
30
-12.053744
11
66.663628
21
-98.454567
31
-16.513346
12
80.201607
22
-105.631149
32
-2.641849
13
80.201607
23
-105.631149
33
-2.641849
0
3DFACE
8
0
70
0
10
77.793144
20
-133.082428
30
1.688377
11
66.048279
21
-129.557541
31
-12.053744
12
80.201607
22
-105.631149
32
-2.641849
13
80.201607
23
-105.631149
33
-2.641849
0
3DFACE
8
0
70
0
10
29.179272
20
-130.484482
30
-14.228260
11
23.724508
21
-96.900642
31
-17.612944
12
66.663628
22
-98.454567
32
-16.513346
13
66.663628
23
-98.454567
33
-16.513346
0
3DFACE
8
0
70
0
10
66.048279
20
-129.557541
30
-12.053744
11
29.179272
21
-130.484482
31
-14.228260
12
66.663628
22
-98.454567
32
-16.513346
13
66.663628
23
-98.454567
33
-16.513346
0
3DFACE
8
0
70
0
10
-40.626873
20
-40.371292
30
70.108940
11
-34.655712
21
-59.239571
31
53.872047
12
-28.964628
22
-66.597687
32
29.433628
13
-28.964628
23
-66.597687
33
29.433628
0
3DFACE
8
0
70
0
10
-40.626873
20
-40.371292
30
70.108940
11
-28.964628
21
-66.597687
31
29.433628
12
-32.591812
22
-38.688309
32
40.969112
13
-32.591812
23
-38.688309
33
40.969112
0
3DFACE
8
0
70
0
10
-40.626873
20
-40.371292
30
70.108940
11
-32.591812
21
-38.688309
31
40.969112
12
-74.244865
22
-37.696411
32
30.119680
13
-74.244865
23
-37.696411
33
30.119680
0
3DFACE
8
0
70
0
10
-40.626873
20
-40.371292
30
70.108940
11
-74.244865
21
-37.696411
31
30.119680
12
-76.208733
22
-39.355591
32
59.940258
13
-76.208733
23
-39.355591
33
59.940258
0
3DFACE
8
0
70
0
10
-76.208733
20
-39.355591
30
59.940258
11
-74.244865
21
-37.696411
31
30.119680
12
-86.937531
22
-51.789703
32
20.356352
13
-86.937531
23
-51.789703
33
20.356352
0
3DFACE
8
0
70
0
10
-76.208733
20
-39.355591
30
59.940258
11
-86.937531
21
-51.789703
31
20.356352
12
-86.139328
22
-48.644524
32
47.916111
13
-86.139328
23
-48.644524
33
47.916111
0
3DFACE
8
0
70
0
10
-44.138439
20
-75.687737
30
35.117813
11
-40.652691
21
-91.757980
31
14.978493
12
-28.964628
22
-66.597687
32
29.433628
13
-28.964628
23
-66.597687
33
29.433628
0
3DFACE
8
0
70
0
10
-34.655712
20
-59.239571
30
53.872047
11
-44.138439
21
-75.687737
31
35.117813
12
-28.964628
22
-66.597687
32
29.433628
13
-28.964628
23
-66.597687
33
29.433628
0
3DFACE
8
0
70
0
10
-86.139328
20
-48.644524
30
47.916111
11
-86.937531
21
-51.789703
31
20.356352
12
-78.491249
22
-62.311279
32
37.196026
13
-78.491249
23
-62.311279
33
37.196026
0
3DFACE
8
0
70
0
10
-78.491249
20
-62.311279
30
37.196026
11
-86.937531
21
-51.789703
31
20.356352
12
-79.484436
22
-72.191711
32
13.225778
13
-79.484436
23
-72.191711
33
13.225778
0
3DFACE
8
0
70
0
10
-78.491249
20
-62.311279
30
37.196026
11
-79.484436
21
-72.191711
31
13.225778
12
-44.138439
22
-75.687737
32
35.117813
13
-44.138439
23
-75.687737
33
35.117813
0
3DFACE
8
0
70
0
10
-44.138439
20
-75.687737
30
35.117813
11
-79.484436
21
-72.191711
31
13.225778
12
-40.652691
22
-91.757980
32
14.978493
13
-40.652691
23
-91.757980
33
14.978493
0
3DFACE
8
0
70
0
10
35.543903
20
-159.564850
30
12.596110
11
37.548153
21
-143.384949
31
31.051104
12
25.665939
22
-137.771103
32
10.153373
13
25.665939
23
-137.771103
33
10.153373
0
3DFACE
8
0
70
0
10
26.227232
20
-182.235764
30
-17.616907
11
35.543903
21
-159.564850
31
12.596110
12
25.665939
22
-137.771103
32
10.153373
13
25.665939
23
-137.771103
33
10.153373
0
3DFACE
8
0
70
0
10
68.428864
20
-160.380493
30
-2.007653
11
71.488052
21
-137.942841
31
17.377844
12
35.543903
22
-159.564850
32
12.596110
13
35.543903
23
-159.564850
33
12.596110
0
3DFACE
8
0
70
0
10
35.543903
20
-159.564850
30
12.596110
11
71.488052
21
-137.942841
31
17.377844
12
37.548153
22
-143.384949
32
31.051104
13
37.548153
23
-143.384949
33
31.051104
0
3DFACE
8
0
70
0
10
75.480606
20
-177.583374
30
-23.676899
11
77.793144
21
-133.082428
31
1.688377
12
68.428864
22
-160.380493
32
-2.007653
13
68.428864
23
-160.380493
33
-2.007653
0
3DFACE
8
0
70
0
10
68.428864
20
-160.380493
30
-2.007653
11
77.793144
21
-133.082428
31
1.688377
12
71.488052
22
-137.942841
32
17.377844
13
71.488052
23
-137.942841
33
17.377844
0
3DFACE
8
0
70
0
10
26.227232
20
-182.235764
30
-17.616907
11
25.665939
21
-137.771103
31
10.153373
12
29.179272
22
-130.484482
32
-14.228260
13
29.179272
23
-130.484482
33
-14.228260
0
3DFACE
8
0
70
0
10
7.322553
20
-207.132126
30
-48.623524
11
26.227232
21
-182.235764
31
-17.616907
12
29.179272
22
-130.484482
32
-14.228260
13
29.179272
23
-130.484482
33
-14.228260
0
3DFACE
8
0
70
0
10
80.150154
20
-199.463135
30
-55.559772
11
66.048279
21
-129.557541
31
-12.053744
12
75.480606
22
-177.583374
32
-23.676899
13
75.480606
23
-177.583374
33
-23.676899
0
3DFACE
8
0
70
0
10
75.480606
20
-177.583374
30
-23.676899
11
66.048279
21
-129.557541
31
-12.053744
12
77.793144
22
-133.082428
32
1.688377
13
77.793144
23
-133.082428
33
1.688377
0
3DFACE
8
0
70
0
10
7.322553
20
-207.132126
30
-48.623524
11
29.179272
21
-130.484482
31
-14.228260
12
80.150154
22
-199.463135
32
-55.559772
13
80.150154
23
-199.463135
33
-55.559772
0
3DFACE
8
0
70
0
10
80.150154
20
-199.463135
30
-55.559772
11
29.179272
21
-130.484482
31
-14.228260
12
66.048279
22
-129.557541
32
-12.053744
13
66.048279
23
-129.557541
33
-12.053744
0
3DFACE
8
0
70
0
10
-42.854450
20
-109.158501
30
47.936604
11
-34.655712
21
-59.239571
31
53.872047
12
-46.645756
22
-74.052757
32
66.546791
13
-46.645756
23
-74.052757
33
66.546791
0
3DFACE
8
0
70
0
10
-46.645756
20
-74.052757
30
66.546791
11
-34.655712
21
-59.239571
31
53.872047
12
-40.626873
22
-40.371292
32
70.108940
13
-40.626873
23
-40.371292
33
70.108940
0
3DFACE
8
0
70
0
10
-46.645756
20
-74.052757
30
66.546791
11
-40.626873
21
-40.371292
31
70.108940
12
-76.208733
22
-39.355591
32
59.940258
13
-76.208733
23
-39.355591
33
59.940258
0
3DFACE
8
0
70
0
10
-81.244568
20
-78.475792
30
56.652561
11
-46.645756
21
-74.052757
31
66.546791
12
-76.208733
22
-39.355591
32
59.940258
13
-76.208733
23
-39.355591
33
59.940258
0
3DFACE
8
0
70
0
10
-81.244568
20
-78.475792
30
56.652561
11
-76.208733
21
-39.355591
31
59.940258
12
-86.139328
22
-48.644524
32
47.916111
13
-86.139328
23
-48.644524
33
47.916111
0
3DFACE
8
0
70
0
10
-92.160561
20
-103.017723
30
44.977707
11
-81.244568
21
-78.475792
31
56.652561
12
-86.139328
22
-48.644524
32
47.916111
13
-86.139328
23
-48.644524
33
47.916111
0
3DFACE
8
0
70
0
10
-29.810394
20
-147.551849
30
28.674089
11
-44.138439
21
-75.687737
31
35.117813
12
-42.854450
22
-109.158501
32
47.936604
13
-42.854450
23
-109.158501
33
47.936604
0
3DFACE
8
0
70
0
10
-42.854450
20
-109.158501
30
47.936604
11
-44.138439
21
-75.687737
31
35.117813
12
-34.655712
22
-59.239571
32
53.872047
13
-34.655712
23
-59.239571
33
53.872047
0
3DFACE
8
0
70
0
10
-92.160561
20
-103.017723
30
44.977707
11
-86.139328
21
-48.644524
31
47.916111
12
-78.491249
22
-62.311279
32
37.196026
13
-78.491249
23
-62.311279
33
37.196026
0
3DFACE
8
0
70
0
10
-102.392075
20
-136.805542
30
25.800993
11
-92.160561
21
-103.017723
31
44.977707
12
-78.491249
22
-62.311279
32
37.196026
13
-78.491249
23
-62.311279
33
37.196026
0
3DFACE
8
0
70
0
10
-102.392075
20
-136.805542
30
25.800993
11
-78.491249
21
-62.311279
31
37.196026
12
-44.138439
22
-75.687737
32
35.117813
13
-44.138439
23
-75.687737
33
35.117813
0
3DFACE
8
0
70
0
10
-29.810394
20
-147.551849
30
28.674089
11
-102.392075
21
-136.805542
31
25.800993
12
-44.138439
22
-75.687737
32
35.117813
13
-44.138439
23
-75.687737
33
35.117813
0
3DFACE
8
0
70
0
10
105.564445
20
1.000275
30
78.633110
11
7.831744
21
35.707413
31
118.301918
12
6.092143
22
16.423187
32
110.410728
13
6.092143
23
16.423187
33
110.410728
0
3DFACE
8
0
70
0
10
105.564445
20
1.000275
30
78.633110
11
109.346169
21
35.261047
31
83.778793
12
7.831744
22
35.707413
32
118.301918
13
7.831744
23
35.707413
33
118.301918
0
3DFACE
8
0
70
0
10
98.804459
20
-36.493546
30
-71.406433
11
-3.134607
21
-35.558807
31
-98.204376
12
-0.577721
22
-2.018585
32
-96.775024
13
-0.577721
23
-2.018585
33
-96.775024
0
3DFACE
8
0
70
0
10
98.804459
20
-36.493546
30
-71.406433
11
-0.577721
21
-2.018585
31
-96.775024
12
102.601372
22
-2.148499
32
-65.923523
13
102.601372
23
-2.148499
33
-65.923523
0
3DFACE
8
0
70
0
10
105.564445
20
1.000275
30
78.633110
11
130.113144
21
12.507202
31
-0.047089
12
109.346169
22
35.261047
32
83.778793
13
109.346169
23
35.261047
33
83.778793
0
3DFACE
8
0
70
0
10
105.564445
20
1.000275
30
78.633110
11
126.580490
21
-19.183044
31
5.031428
12
130.113144
22
12.507202
32
-0.047089
13
130.113144
23
12.507202
33
-0.047089
0
3DFACE
8
0
70
0
10
126.580490
20
-19.183044
30
5.031428
11
98.804459
21
-36.493546
31
-71.406433
12
102.601372
22
-2.148499
32
-65.923523
13
102.601372
23
-2.148499
33
-65.923523
0
3DFACE
8
0
70
0
10
126.580490
20
-19.183044
30
5.031428
11
102.601372
21
-2.148499
31
-65.923523
12
130.113144
22
12.507202
32
-0.047089
13
130.113144
23
12.507202
33
-0.047089
0
3DFACE
8
0
70
0
10
-96.024712
20
17.116730
30
83.688263
11
6.092143
21
16.423187
31
110.410728
12
7.831744
22
35.707413
32
118.301918
13
7.831744
23
35.707413
33
118.301918
0
3DFACE
8
0
70
0
10
-96.024712
20
17.116730
30
83.688263
11
7.831744
21
35.707413
31
118.301918
12
-94.057526
22
51.522583
32
88.879456
13
-94.057526
23
51.522583
33
88.879456
0
3DFACE
8
0
70
0
10
-102.784706
20
-20.377090
30
-66.351273
11
-0.577721
21
-2.018585
31
-96.775024
12
-3.134607
22
-35.558807
32
-98.204376
13
-3.134607
23
-35.558807
33
-98.204376
0
3DFACE
8
0
70
0
10
-102.784706
20
-20.377090
30
-66.351273
11
-100.802322
21
14.113022
31
-60.822861
12
-0.577721
22
-2.018585
32
-96.775024
13
-0.577721
23
-2.018585
33
-96.775024
0
3DFACE
8
0
70
0
10
-96.024712
20
17.116730
30
83.688263
11
-122.322609
21
32.688690
31
6.283124
12
-123.618027
22
0.819580
32
11.305539
13
-123.618027
23
0.819580
33
11.305539
0
3DFACE
8
0
70
0
10
-96.024712
20
17.116730
30
83.688263
11
-94.057526
21
51.522583
31
88.879456
12
-122.322609
22
32.688690
32
6.283124
13
-122.322609
23
32.688690
33
6.283124
0
3DFACE
8
0
70
0
10
-123.618027
20
0.819580
30
11.305539
11
-122.322609
21
32.688690
31
6.283124
12
-100.802322
22
14.113022
32
-60.822861
13
-100.802322
23
14.113022
33
-60.822861
0
3DFACE
8
0
70
0
10
-123.618027
20
0.819580
30
11.305539
11
-100.802322
21
14.113022
31
-60.822861
12
-102.784706
22
-20.377090
32
-66.351273
13
-102.784706
23
-20.377090
33
-66.351273
0
3DFACE
8
0
70
0
10
7.831744
20
35.707413
30
118.301918
11
63.268265
21
104.655701
31
47.759785
12
11.761261
22
104.997894
32
54.096401
13
11.761261
23
104.997894
33
54.096401
0
3DFACE
8
0
70
0
10
7.831744
20
35.707413
30
118.301918
11
109.346169
21
35.261047
31
83.778793
12
63.268265
22
104.655701
32
47.759785
13
63.268265
23
104.655701
33
47.759785
0
3DFACE
8
0
70
0
10
102.601372
20
-2.148499
30
-65.923523
11
-0.577721
21
-2.018585
31
-96.775024
12
60.695374
22
109.166504
32
-48.059090
13
60.695374
23
109.166504
33
-48.059090
0
3DFACE
8
0
70
0
10
-0.577721
20
-2.018585
30
-96.775024
11
3.961937
21
121.597351
31
-54.506950
12
60.695374
22
109.166504
32
-48.059090
13
60.695374
23
109.166504
33
-48.059090
0
3DFACE
8
0
70
0
10
109.346169
20
35.261047
30
83.778793
11
96.251785
21
74.414200
31
0.145486
12
70.679474
22
109.139008
32
27.238642
13
70.679474
23
109.139008
33
27.238642
0
3DFACE
8
0
70
0
10
109.346169
20
35.261047
30
83.778793
11
130.113144
21
12.507202
31
-0.047089
12
96.251785
22
74.414200
32
0.145486
13
96.251785
23
74.414200
33
0.145486
0
3DFACE
8
0
70
0
10
102.601372
20
-2.148499
30
-65.923523
11
90.798996
21
99.596634
31
-34.146194
12
96.251785
22
74.414200
32
0.145486
13
96.251785
23
74.414200
33
0.145486
0
3DFACE
8
0
70
0
10
130.113144
20
12.507202
30
-0.047089
11
102.601372
21
-2.148499
31
-65.923523
12
96.251785
22
74.414200
32
0.145486
13
96.251785
23
74.414200
33
0.145486
0
3DFACE
8
0
70
0
10
109.346169
20
35.261047
30
83.778793
11
70.679474
21
109.139008
31
27.238642
12
63.268265
22
104.655701
32
47.759785
13
63.268265
23
104.655701
33
47.759785
0
3DFACE
8
0
70
0
10
102.601372
20
-2.148499
30
-65.923523
11
60.695374
21
109.166504
31
-48.059090
12
90.798996
22
99.596634
32
-34.146194
13
90.798996
23
99.596634
33
-34.146194
0
3DFACE
8
0
70
0
10
7.831744
20
35.707413
30
118.301918
11
-45.983665
21
111.451782
31
49.891468
12
-94.057526
22
51.522583
32
88.879456
13
-94.057526
23
51.522583
33
88.879456
0
3DFACE
8
0
70
0
10
7.831744
20
35.707413
30
118.301918
11
11.761261
21
104.997894
31
54.096401
12
-45.983665
22
111.451782
32
49.891468
13
-45.983665
23
111.451782
33
49.891468
0
3DFACE
8
0
70
0
10
-100.802322
20
14.113022
30
-60.822861
11
-48.845924
21
115.457062
31
-46.085960
12
-0.577721
22
-2.018585
32
-96.775024
13
-0.577721
23
-2.018585
33
-96.775024
0
3DFACE
8
0
70
0
10
-0.577721
20
-2.018585
30
-96.775024
11
-48.845924
21
115.457062
31
-46.085960
12
3.961937
22
121.597351
32
-54.506950
13
3.961937
23
121.597351
33
-54.506950
0
3DFACE
8
0
70
0
10
-94.057526
20
51.522583
30
88.879456
11
-56.848431
21
113.557861
31
28.593643
12
-87.647491
22
81.822021
32
-0.305375
13
-87.647491
23
81.822021
33
-0.305375
0
3DFACE
8
0
70
0
10
-94.057526
20
51.522583
30
88.879456
11
-87.647491
21
81.822021
31
-0.305375
12
-122.322609
22
32.688690
32
6.283124
13
-122.322609
23
32.688690
33
6.283124
0
3DFACE
8
0
70
0
10
-122.322609
20
32.688690
30
6.283124
11
-87.647491
21
81.822021
31
-0.305375
12
-100.802322
22
14.113022
32
-60.822861
13
-100.802322
23
14.113022
33
-60.822861
0
3DFACE
8
0
70
0
10
-100.802322
20
14.113022
30
-60.822861
11
-87.647491
21
81.822021
31
-0.305375
12
-84.367195
22
107.271576
32
-32.921398
13
-84.367195
23
107.271576
33
-32.921398
0
3DFACE
8
0
70
0
10
-94.057526
20
51.522583
30
88.879456
11
-45.983665
21
111.451782
31
49.891468
12
-56.848431
22
113.557861
32
28.593643
13
-56.848431
23
113.557861
33
28.593643
0
3DFACE
8
0
70
0
10
-100.802322
20
14.113022
30
-60.822861
11
-84.367195
21
107.271576
31
-32.921398
12
-48.845924
22
115.457062
32
-46.085960
13
-48.845924
23
115.457062
33
-46.085960
0
3DFACE
8
0
70
0
10
96.251785
20
74.414200
30
0.145486
11
62.056690
21
98.771423
31
67.012878
12
70.679474
22
109.139008
32
27.238642
13
70.679474
23
109.139008
33
27.238642
0
3DFACE
8
0
70
0
10
92.659866
20
61.408417
30
67.268654
11
62.056690
21
98.771423
31
67.012878
12
96.251785
22
74.414200
32
0.145486
13
96.251785
23
74.414200
33
0.145486
0
3DFACE
8
0
70
0
10
70.679474
20
109.139008
30
27.238642
11
109.251877
21
112.222107
31
87.091949
12
69.797272
22
130.805115
32
-11.744743
13
69.797272
23
130.805115
33
-11.744743
0
3DFACE
8
0
70
0
10
70.679474
20
109.139008
30
27.238642
11
62.056690
21
98.771423
31
67.012878
12
109.251877
22
112.222107
32
87.091949
13
109.251877
23
112.222107
33
87.091949
0
3DFACE
8
0
70
0
10
90.798996
20
99.596634
30
-34.146194
11
69.797272
21
130.805115
31
-11.744743
12
109.251877
22
112.222107
32
87.091949
13
109.251877
23
112.222107
33
87.091949
0
3DFACE
8
0
70
0
10
90.798996
20
99.596634
30
-34.146194
11
109.251877
21
112.222107
31
87.091949
12
131.950378
22
75.039093
32
84.658524
13
131.950378
23
75.039093
33
84.658524
0
3DFACE
8
0
70
0
10
96.251785
20
74.414200
30
0.145486
11
90.798996
21
99.596634
31
-34.146194
12
131.950378
22
75.039093
32
84.658524
13
131.950378
23
75.039093
33
84.658524
0
3DFACE
8
0
70
0
10
92.659866
20
61.408417
30
67.268654
11
96.251785
21
74.414200
31
0.145486
12
131.950378
22
75.039093
32
84.658524
13
131.950378
23
75.039093
33
84.658524
0
3DFACE
8
0
70
0
10
-87.647491
20
81.822021
30
-0.305375
11
-56.848431
21
113.557861
31
28.593643
12
-67.672302
22
78.636292
32
61.546093
13
-67.672302
23
78.636292
33
61.546093
0
3DFACE
8
0
70
0
10
-99.714218
20
45.152771
30
48.717720
11
-87.647491
21
81.822021
31
-0.305375
12
-67.672302
22
78.636292
32
61.546093
13
-67.672302
23
78.636292
33
61.546093
0
3DFACE
8
0
70
0
10
-56.848431
20
113.557861
30
28.593643
11
-58.584087
21
136.147217
31
-8.124345
12
-115.882965
22
90.164886
32
79.743965
13
-115.882965
23
90.164886
33
79.743965
0
3DFACE
8
0
70
0
10
-56.848431
20
113.557861
30
28.593643
11
-115.882965
21
90.164886
31
79.743965
12
-67.672302
22
78.636292
32
61.546093
13
-67.672302
23
78.636292
33
61.546093
0
3DFACE
8
0
70
0
10
-84.367195
20
107.271576
30
-32.921398
11
-115.882965
21
90.164886
31
79.743965
12
-58.584087
22
136.147217
32
-8.124345
13
-58.584087
23
136.147217
33
-8.124345
0
3DFACE
8
0
70
0
10
-84.367195
20
107.271576
30
-32.921398
11
-139.808929
21
56.912704
31
65.167786
12
-115.882965
22
90.164886
32
79.743965
13
-115.882965
23
90.164886
33
79.743965
0
3DFACE
8
0
70
0
10
-87.647491
20
81.822021
30
-0.305375
11
-139.808929
21
56.912704
31
65.167786
12
-84.367195
22
107.271576
32
-32.921398
13
-84.367195
23
107.271576
33
-32.921398
0
3DFACE
8
0
70
0
10
-99.714218
20
45.152771
30
48.717720
11
-139.808929
21
56.912704
31
65.167786
12
-87.647491
22
81.822021
32
-0.305375
13
-87.647491
23
81.822021
33
-0.305375
0
3DFACE
8
0
70
0
10
-77.907326
20
24.592957
30
84.093124
11
-99.714218
21
45.152771
31
48.717720
12
-67.672302
22
78.636292
32
61.546093
13
-67.672302
23
78.636292
33
61.546093
0
3DFACE
8
0
70
0
10
-77.907326
20
24.592957
30
84.093124
11
-67.672302
21
78.636292
31
61.546093
12
-57.393974
22
68.358276
32
78.972908
13
-57.393974
23
68.358276
33
78.972908
0
3DFACE
8
0
70
0
10
-57.393974
20
68.358276
30
78.972908
11
-67.672302
21
78.636292
31
61.546093
12
-115.882965
22
90.164886
32
79.743965
13
-115.882965
23
90.164886
33
79.743965
0
3DFACE
8
0
70
0
10
-57.393974
20
68.358276
30
78.972908
11
-115.882965
21
90.164886
31
79.743965
12
-90.376472
22
68.641785
32
120.630775
13
-90.376472
23
68.641785
33
120.630775
0
3DFACE
8
0
70
0
10
-105.462776
20
27.411942
30
120.118065
11
-90.376472
21
68.641785
31
120.630775
12
-115.882965
22
90.164886
32
79.743965
13
-115.882965
23
90.164886
33
79.743965
0
3DFACE
8
0
70
0
10
-105.462776
20
27.411942
30
120.118065
11
-115.882965
21
90.164886
31
79.743965
12
-139.808929
22
56.912704
32
65.167786
13
-139.808929
23
56.912704
33
65.167786
0
3DFACE
8
0
70
0
10
-77.907326
20
24.592957
30
84.093124
11
-105.462776
21
27.411942
31
120.118065
12
-139.808929
22
56.912704
32
65.167786
13
-139.808929
23
56.912704
33
65.167786
0
3DFACE
8
0
70
0
10
-77.907326
20
24.592957
30
84.093124
11
-139.808929
21
56.912704
31
65.167786
12
-99.714218
22
45.152771
32
48.717720
13
-99.714218
23
45.152771
33
48.717720
0
3DFACE
8
0
70
0
10
63.780224
20
53.457901
30
102.281227
11
62.056690
21
98.771423
31
67.012878
12
92.659866
22
61.408417
32
67.268654
13
92.659866
23
61.408417
33
67.268654
0
3DFACE
8
0
70
0
10
63.780224
20
53.457901
30
102.281227
11
51.075901
21
95.130859
31
80.731712
12
62.056690
22
98.771423
32
67.012878
13
62.056690
23
98.771423
33
67.012878
0
3DFACE
8
0
70
0
10
51.075901
20
95.130859
30
80.731712
11
109.251877
21
112.222107
31
87.091949
12
62.056690
22
98.771423
32
67.012878
13
62.056690
23
98.771423
33
67.012878
0
3DFACE
8
0
70
0
10
51.075901
20
95.130859
30
80.731712
11
75.277428
21
105.337524
31
126.920593
12
109.251877
22
112.222107
32
87.091949
13
109.251877
23
112.222107
33
87.091949
0
3DFACE
8
0
70
0
10
84.137497
20
64.806946
30
141.291809
11
131.950378
21
75.039093
31
84.658524
12
109.251877
22
112.222107
32
87.091949
13
109.251877
23
112.222107
33
87.091949
0
3DFACE
8
0
70
0
10
84.137497
20
64.806946
30
141.291809
11
109.251877
21
112.222107
31
87.091949
12
75.277428
22
105.337524
32
126.920593
13
75.277428
23
105.337524
33
126.920593
0
3DFACE
8
0
70
0
10
63.780224
20
53.457901
30
102.281227
11
92.659866
21
61.408417
31
67.268654
12
131.950378
22
75.039093
32
84.658524
13
131.950378
23
75.039093
33
84.658524
0
3DFACE
8
0
70
0
10
63.780224
20
53.457901
30
102.281227
11
131.950378
21
75.039093
31
84.658524
12
84.137497
22
64.806946
32
141.291809
13
84.137497
23
64.806946
33
141.291809
0
3DFACE
8
0
70
0
10
7.235912
20
307.735016
30
-42.596058
11
11.591511
21
305.910858
31
-44.414856
12
7.396800
22
262.809845
32
-35.128899
13
-8.307736
23
267.733246
33
-28.700974
0
3DFACE
8
0
70
0
10
16.138014
20
306.895142
30
-42.423054
11
23.485483
21
264.733734
31
-28.083092
12
7.396800
22
262.809845
32
-35.128899
13
11.591511
23
305.910858
33
-44.414856
0
3DFACE
8
0
70
0
10
19.266823
20
308.697723
30
-39.536877
11
34.438885
21
268.809235
31
-17.875837
12
23.485483
22
264.733734
32
-28.083092
13
16.138014
23
306.895142
33
-42.423054
0
3DFACE
8
0
70
0
10
18.728268
20
310.894531
30
-36.656994
11
32.289482
21
274.238312
31
-7.693417
12
34.438885
22
268.809235
32
-17.875837
13
19.266823
23
308.697723
33
-39.536877
0
3DFACE
8
0
70
0
10
18.161396
20
313.608398
30
-33.084831
11
29.984776
21
280.934845
31
4.936789
12
32.289482
22
274.238312
32
-7.693417
13
18.728268
23
310.894531
33
-36.656994
0
3DFACE
8
0
70
0
10
14.923526
20
315.205505
30
-31.408064
11
18.284933
21
285.184326
31
10.863316
12
29.984776
22
280.934845
32
4.936789
13
18.161396
23
313.608398
33
-33.084831
0
3DFACE
8
0
70
0
10
12.291435
20
316.207642
30
-30.443930
11
8.805226
21
287.914490
31
14.270494
12
18.284933
22
285.184326
32
10.863316
13
14.923526
23
315.205505
33
-31.408064
0
3DFACE
8
0
70
0
10
12.291435
20
316.207642
30
-30.443930
11
9.557518
21
315.711761
31
-31.512348
12
-0.879380
22
286.992371
32
10.490869
13
8.805226
23
287.914490
33
14.270494
0
3DFACE
8
0
70
0
10
9.557518
20
315.711761
30
-31.512348
11
6.145168
21
314.742065
31
-33.318359
12
-12.930323
22
284.983612
32
4.102761
13
-0.879380
23
286.992371
33
10.490869
0
3DFACE
8
0
70
0
10
6.145168
20
314.742065
30
-33.318359
11
5.218920
21
312.169037
31
-36.919540
12
-15.958186
22
278.790192
32
-8.631081
13
-12.930323
23
284.983612
33
4.102761
0
3DFACE
8
0
70
0
10
5.218920
20
312.169037
30
-36.919540
11
4.390481
21
310.101227
31
-39.825989
12
-18.690908
22
273.821686
32
-18.908382
13
-15.958186
23
278.790192
33
-8.631081
0
3DFACE
8
0
70
0
10
4.390481
20
310.101227
30
-39.825989
11
7.235912
21
307.735016
31
-42.596058
12
-8.307736
22
267.733246
32
-28.700974
13
-18.690908
23
273.821686
33
-18.908382
0
ENDSEC
0
EOF
