0
SECTION
2
HEADER
999
DXF File Generated by LightWave 3D(TM)
0
ENDSEC
0
SECTION
2
TABLES
0
ENDSEC
0
SECTION
2
BLOCKS
0
ENDSEC
0
SECTION
2
ENTITIES
0
3DFACE
8
0
70
0
10
-1.173770
20
-47.120354
30
76.160553
11
29.558575
21
-30.631561
31
53.196861
12
71.282852
22
-35.939117
32
30.576546
13
64.996544
23
-44.875305
33
51.852386
0
3DFACE
8
0
70
0
10
64.996544
20
-38.057114
30
-70.278381
11
70.576309
21
-61.356636
31
-50.311916
12
28.471590
22
-69.735435
32
-71.246925
13
-1.173769
23
-37.490288
33
-96.337624
0
3DFACE
8
0
70
0
10
-1.173770
20
-55.127167
30
96.205208
11
-1.173770
21
-47.120354
31
76.160553
12
64.996544
22
-44.875305
32
51.852386
13
86.317215
23
-52.505035
33
66.218262
0
3DFACE
8
0
70
0
10
86.317215
20
-43.876389
30
-88.342072
11
64.996544
21
-38.057114
31
-70.278381
12
-1.173769
22
-37.490288
32
-96.337624
13
-1.173769
23
-43.133347
33
-118.633644
0
3DFACE
8
0
70
0
10
-1.173770
20
-52.266296
30
109.116028
11
91.622299
21
-49.456360
31
75.205963
12
106.074837
22
3.863235
32
83.850166
13
-1.173772
23
2.005081
33
117.914536
0
3DFACE
8
0
70
0
10
91.622307
20
-39.705994
30
-99.447197
11
-1.173769
21
-38.713280
31
-133.651871
12
-1.173989
22
15.564011
32
-124.853333
13
106.074837
23
13.613602
33
-90.803001
0
3DFACE
8
0
70
0
10
-1.173772
20
2.005081
30
117.914536
11
106.074837
21
3.863235
31
83.850166
12
99.973991
22
5.493103
32
75.620949
13
-1.173772
23
3.863892
33
105.768867
0
3DFACE
8
0
70
0
10
-1.173770
20
-52.266296
30
109.116028
11
-1.173770
21
-55.127167
31
96.205208
12
86.317215
22
-52.505035
32
66.218262
13
91.622299
23
-49.456360
33
75.205963
0
3DFACE
8
0
70
0
10
106.074837
20
13.613602
30
-90.803001
11
-1.173989
21
15.564011
31
-124.853333
12
-1.188086
22
16.073547
32
-109.066399
13
99.973991
23
14.121750
33
-78.939377
0
3DFACE
8
0
70
0
10
91.622307
20
-39.705994
30
-99.447197
11
86.317215
21
-43.876389
31
-88.342072
12
-1.173769
22
-43.133347
32
-118.633644
13
-1.173769
23
-38.713280
33
-133.651871
0
3DFACE
8
0
70
0
10
28.323221
20
-119.444244
30
103.377602
11
75.463165
21
-119.444244
31
103.377602
12
67.626854
22
-98.812729
32
88.562103
13
34.637344
23
-98.998032
33
88.562103
0
3DFACE
8
0
70
0
10
64.996544
20
-44.875305
30
51.852386
11
71.282852
21
-35.939117
31
30.576546
12
81.662811
22
-51.485695
32
-8.098797
13
80.874924
23
-41.540833
33
-7.876260
0
3DFACE
8
0
70
0
10
86.317215
20
-52.505035
30
66.218262
11
64.996544
21
-44.875305
31
51.852386
12
80.874924
22
-41.540833
32
-7.876260
13
107.525780
23
-48.307312
33
-8.973246
0
3DFACE
8
0
70
0
10
106.074837
20
3.863235
30
83.850166
11
91.622299
21
-49.456360
31
75.205963
12
114.157120
22
-44.788727
32
-8.402812
13
131.989883
23
8.530869
33
0.241390
0
3DFACE
8
0
70
0
10
131.989883
20
8.530869
30
0.241390
11
124.363838
21
9.690826
31
0.429443
12
99.973991
22
5.493103
32
75.620949
13
106.074837
23
3.863235
33
83.850166
0
3DFACE
8
0
70
0
10
91.622299
20
-49.456360
30
75.205963
11
86.317215
21
-52.505035
31
66.218262
12
107.525780
22
-48.307312
32
-8.973246
13
114.157120
23
-44.788727
33
-8.402812
0
3DFACE
8
0
70
0
10
13.556337
20
-152.844193
30
103.377602
11
80.739731
21
-153.029510
31
103.377602
12
75.463165
22
-119.444244
32
103.377602
13
28.323221
23
-119.444244
33
103.377602
0
3DFACE
8
0
70
0
10
-1.204486
20
158.834381
30
15.443084
11
63.297588
21
145.347900
31
10.413271
12
53.713791
22
135.016479
32
-26.143009
13
-1.207897
23
140.388245
33
-37.698700
0
3DFACE
8
0
70
0
10
80.874924
20
-41.540833
30
-7.876260
11
81.662811
21
-51.485695
31
-8.098797
12
70.576309
22
-61.356636
32
-50.311916
13
64.996544
23
-38.057114
33
-70.278381
0
3DFACE
8
0
70
0
10
107.525780
20
-48.307312
30
-8.973246
11
80.874924
21
-41.540833
31
-7.876260
12
64.996544
22
-38.057114
32
-70.278381
13
86.317215
23
-43.876389
33
-88.342072
0
3DFACE
8
0
70
0
10
114.157120
20
-44.788727
30
-8.402812
11
91.622307
21
-39.705994
31
-99.447197
12
106.074837
22
13.613602
32
-90.803001
13
131.989883
23
8.530869
33
0.241390
0
3DFACE
8
0
70
0
10
106.074837
20
13.613602
30
-90.803001
11
99.973991
21
14.121750
31
-78.939377
12
124.363838
22
9.690826
32
0.429443
13
131.989883
23
8.530869
33
0.241390
0
3DFACE
8
0
70
0
10
114.157120
20
-44.788727
30
-8.402812
11
107.525780
21
-48.307312
31
-8.973246
12
86.317215
22
-43.876389
32
-88.342072
13
91.622307
23
-39.705994
33
-99.447197
0
3DFACE
8
0
70
0
10
30.102339
20
-51.826645
30
21.326633
11
29.558575
21
-30.631561
31
53.196861
12
21.281097
22
-53.697891
32
-6.884879
13
21.931183
23
-62.847626
33
-4.545407
0
3DFACE
8
0
70
0
10
30.102339
20
-51.826645
30
21.326633
11
71.903633
21
-53.718445
31
10.952107
12
71.282852
22
-35.939117
32
30.576546
13
29.558575
23
-30.631561
33
53.196861
0
3DFACE
8
0
70
0
10
71.903633
20
-53.718445
30
10.952107
11
82.297119
21
-60.082375
31
-6.062803
12
81.662811
22
-51.485695
32
-8.098797
13
71.282852
23
-35.939117
33
30.576546
0
3DFACE
8
0
70
0
10
21.931183
20
-62.847626
30
-4.545407
11
21.281097
21
-53.697891
31
-6.884879
12
28.471590
22
-69.735435
32
-71.246925
13
29.518084
23
-73.605591
33
-31.937408
0
3DFACE
8
0
70
0
10
82.297119
20
-60.082375
30
-6.062803
11
71.523872
21
-67.874756
31
-23.669525
12
70.576309
22
-61.356636
32
-50.311916
13
81.662811
23
-51.485695
33
-8.098797
0
3DFACE
8
0
70
0
10
71.523872
20
-67.874756
30
-23.669525
11
29.518084
21
-73.605591
31
-31.937408
12
28.471590
22
-69.735435
32
-71.246925
13
70.576309
23
-61.356636
33
-50.311916
0
3DFACE
8
0
70
0
10
27.364504
20
-124.745110
30
-4.376705
11
28.323221
21
-127.827744
31
44.486000
12
34.637344
22
-108.736435
32
36.707859
13
34.725014
23
-96.577606
33
23.254316
0
3DFACE
8
0
70
0
10
34.725014
20
-96.577606
30
23.254316
11
34.637344
21
-108.736435
31
36.707859
12
67.626854
22
-112.334427
32
36.707859
13
68.965515
23
-102.827003
33
12.776235
0
3DFACE
8
0
70
0
10
77.247742
20
-124.710686
30
-5.123849
11
68.965515
21
-102.827003
31
12.776235
12
67.626854
22
-112.334427
32
36.707859
13
75.463165
23
-127.827744
33
44.486000
0
3DFACE
8
0
70
0
10
10.427520
20
-154.643036
30
-33.619328
11
17.260212
21
-150.617310
31
33.374374
12
28.323221
22
-127.827744
32
44.486000
13
27.364504
23
-124.745110
33
-4.376705
0
3DFACE
8
0
70
0
10
84.009804
20
-153.353943
30
-32.817715
11
77.247742
21
-124.710686
31
-5.123849
12
75.463165
22
-127.827744
32
44.486000
13
84.443596
23
-150.723206
33
37.078255
0
3DFACE
8
0
70
0
10
84.009804
20
-153.353943
30
-32.817715
11
84.443596
21
-150.723206
31
37.078255
12
17.260212
22
-150.617310
32
33.374374
13
10.427520
23
-154.643036
33
-33.619328
0
3DFACE
8
0
70
0
10
28.323221
20
-119.444244
30
103.377602
11
34.637344
21
-98.998032
31
88.562103
12
34.637344
22
-108.736435
32
36.707859
13
28.323221
23
-127.827744
33
44.486000
0
3DFACE
8
0
70
0
10
34.637344
20
-98.998032
30
88.562103
11
67.626854
21
-98.812729
31
88.562103
12
67.626854
22
-112.334427
32
36.707859
13
34.637344
23
-108.736435
33
36.707859
0
3DFACE
8
0
70
0
10
75.463165
20
-119.444244
30
103.377602
11
75.463165
21
-127.827744
31
44.486000
12
67.626854
22
-112.334427
32
36.707859
13
67.626854
23
-98.812729
33
88.562103
0
3DFACE
8
0
70
0
10
13.556337
20
-152.844193
30
103.377602
11
28.323221
21
-119.444244
31
103.377602
12
28.323221
22
-127.827744
32
44.486000
13
17.260212
23
-150.617310
33
33.374374
0
3DFACE
8
0
70
0
10
80.739731
20
-153.029510
30
103.377602
11
84.443596
21
-150.723206
31
37.078255
12
75.463165
22
-127.827744
32
44.486000
13
75.463165
23
-119.444244
33
103.377602
0
3DFACE
8
0
70
0
10
80.739731
20
-153.029510
30
103.377602
11
13.556337
21
-152.844193
31
103.377602
12
17.260212
22
-150.617310
32
33.374374
13
84.443596
23
-150.723206
33
37.078255
0
3DFACE
8
0
70
0
10
74.966194
20
-28.286415
30
182.564117
11
93.040489
21
-17.185989
31
182.318573
12
76.861725
22
-6.115540
32
185.817810
13
62.770611
23
-16.598053
33
176.993103
0
3DFACE
8
0
70
0
10
80.884331
20
120.174377
30
-25.769972
11
53.713791
21
135.016479
31
-26.143009
12
63.297588
22
145.347900
32
10.413271
13
63.297588
23
145.347900
33
10.413271
0
3DFACE
8
0
70
0
10
68.042160
20
115.493469
30
49.894779
11
63.297588
21
145.347900
31
10.413271
12
53.584675
22
110.056702
32
68.589661
13
53.584675
23
110.056702
33
68.589661
0
3DFACE
8
0
70
0
10
101.782494
20
43.696182
30
73.302216
11
113.866829
21
3.378128
31
48.995026
12
108.263710
22
-17.569534
32
77.982742
13
98.230057
23
23.795044
33
103.235184
0
3DFACE
8
0
70
0
10
154.355911
20
36.330536
30
75.557251
11
101.782494
21
43.696182
31
73.302216
12
98.230057
22
23.795044
32
103.235184
13
151.448471
23
18.011383
33
106.592751
0
3DFACE
8
0
70
0
10
154.462631
20
-19.812180
30
82.683075
11
159.000946
21
-0.675583
31
52.389790
12
154.355911
22
36.330536
32
75.557251
13
151.448471
23
18.011383
33
106.592751
0
3DFACE
8
0
70
0
10
113.866829
20
3.378128
30
48.995026
11
159.000946
21
-0.675583
31
52.389790
12
154.462631
22
-19.812180
32
82.683075
13
108.263710
23
-17.569534
33
77.982742
0
3DFACE
8
0
70
0
10
101.102722
20
-24.742157
30
72.420677
11
95.240112
21
-45.036186
31
99.280266
12
86.100060
22
12.749466
32
134.131729
13
89.227341
23
31.148254
33
106.764473
0
3DFACE
8
0
70
0
10
89.227341
20
31.148254
30
106.764473
11
86.100060
21
12.749466
31
134.131729
12
158.707825
22
8.857956
32
140.335327
13
160.922287
23
24.876007
33
112.264305
0
3DFACE
8
0
70
0
10
159.133804
20
-43.886734
30
107.439064
11
163.454346
21
-26.413300
31
79.635696
12
160.922287
22
24.876007
32
112.264305
13
158.707825
23
8.857956
33
140.335327
0
3DFACE
8
0
70
0
10
101.102722
20
-24.742157
30
72.420677
11
163.454346
21
-26.413300
31
79.635696
12
159.133804
22
-43.886734
32
107.439064
13
95.240112
23
-45.036186
33
99.280266
0
3DFACE
8
0
70
0
10
101.102722
20
-24.742157
30
72.420677
11
89.227341
21
31.148254
31
106.764473
12
98.230057
22
23.795044
32
103.235184
13
108.263710
23
-17.569534
33
77.982742
0
3DFACE
8
0
70
0
10
95.240112
20
-45.036186
30
99.280266
11
102.986702
21
-37.298172
31
105.283569
12
94.972641
22
5.546860
32
130.681915
13
86.100060
23
12.749466
33
134.131729
0
3DFACE
8
0
70
0
10
89.227341
20
31.148254
30
106.764473
11
160.922287
21
24.876007
31
112.264305
12
151.448471
22
18.011383
32
106.592751
13
98.230057
23
23.795044
33
103.235184
0
3DFACE
8
0
70
0
10
86.100060
20
12.749466
30
134.131729
11
94.972641
21
5.546860
31
130.681915
12
148.846283
22
1.615677
32
134.369507
13
158.707825
23
8.857956
33
140.335327
0
3DFACE
8
0
70
0
10
159.133804
20
-43.886734
30
107.439064
11
158.707825
21
8.857956
31
140.335327
12
148.846283
22
1.615677
32
134.369507
13
150.301239
23
-37.359344
33
110.460197
0
3DFACE
8
0
70
0
10
163.454346
20
-26.413300
30
79.635696
11
154.462631
21
-19.812180
31
82.683075
12
151.448471
22
18.011383
32
106.592751
13
160.922287
23
24.876007
33
112.264305
0
3DFACE
8
0
70
0
10
95.240112
20
-45.036186
30
99.280266
11
159.133804
21
-43.886734
31
107.439064
12
150.301239
22
-37.359344
32
110.460197
13
102.986702
23
-37.298172
33
105.283569
0
3DFACE
8
0
70
0
10
101.102722
20
-24.742157
30
72.420677
11
108.263710
21
-17.569534
31
77.982742
12
154.462631
22
-19.812180
32
82.683075
13
163.454346
23
-26.413300
33
79.635696
0
3DFACE
8
0
70
0
10
117.252411
20
-21.900223
30
103.870903
11
97.204834
21
-0.561142
31
95.776901
12
94.972641
22
5.546860
32
130.681915
13
102.986702
23
-37.298172
33
105.283569
0
3DFACE
8
0
70
0
10
97.204834
20
-0.561142
30
95.776901
11
118.732574
21
18.987137
31
110.399925
12
148.846283
22
1.615677
32
134.369507
13
94.972641
23
5.546860
33
130.681915
0
3DFACE
8
0
70
0
10
134.879791
20
-2.810532
30
116.151535
11
150.301239
21
-37.359344
31
110.460197
12
148.846283
22
1.615677
32
134.369507
13
118.732574
23
18.987137
33
110.399925
0
3DFACE
8
0
70
0
10
117.252411
20
-21.900223
30
103.870903
11
102.986702
21
-37.298172
31
105.283569
12
150.301239
22
-37.359344
32
110.460197
13
134.879791
23
-2.810532
33
116.151535
0
3DFACE
8
0
70
0
10
58.476879
20
-18.702988
30
120.841118
11
58.114849
21
-7.791748
31
122.030891
12
63.596020
22
-5.462189
32
112.311096
13
63.879589
23
-16.364426
33
111.058327
0
3DFACE
8
0
70
0
10
58.114849
20
-7.791748
30
122.030891
11
58.325935
21
3.460754
31
123.635574
12
63.703346
22
5.792709
32
113.877907
13
63.596020
23
-5.462189
33
112.311096
0
3DFACE
8
0
70
0
10
130.965790
20
-8.505020
30
146.655487
11
134.879791
21
-2.810532
31
116.151535
12
118.732574
22
18.987137
32
110.399925
13
107.858719
23
13.716690
33
137.093201
0
3DFACE
8
0
70
0
10
105.463600
20
-27.134171
30
130.169144
11
117.252411
21
-21.900223
31
103.870903
12
134.879791
22
-2.810532
32
116.151535
13
130.965790
23
-8.505020
33
146.655487
0
3DFACE
8
0
70
0
10
74.966194
20
-28.286415
30
182.564117
11
62.770611
21
-16.598053
31
176.993103
12
76.209892
22
-6.861603
32
131.769516
13
105.463600
23
-27.134171
33
130.169144
0
3DFACE
8
0
70
0
10
62.770611
20
-16.598053
30
176.993103
11
76.861725
21
-6.115540
31
185.817810
12
107.858719
22
13.716690
32
137.093201
13
76.209892
23
-6.861603
33
131.769516
0
3DFACE
8
0
70
0
10
93.040489
20
-17.185989
30
182.318573
11
130.965790
21
-8.505020
31
146.655487
12
107.858719
22
13.716690
32
137.093201
13
76.861725
23
-6.115540
33
185.817810
0
3DFACE
8
0
70
0
10
74.966194
20
-28.286415
30
182.564117
11
105.463600
21
-27.134171
31
130.169144
12
130.965790
22
-8.505020
32
146.655487
13
93.040489
23
-17.185989
33
182.318573
0
3DFACE
8
0
70
0
10
58.476879
20
-18.702988
30
120.841118
11
63.879589
21
-16.364426
31
111.058327
12
117.252411
22
-21.900223
32
103.870903
13
105.463600
23
-27.134171
33
130.169144
0
3DFACE
8
0
70
0
10
63.879589
20
-16.364426
30
111.058327
11
63.596020
21
-5.462189
31
112.311096
12
97.204834
22
-0.561142
32
95.776901
13
117.252411
23
-21.900223
33
103.870903
0
3DFACE
8
0
70
0
10
58.476879
20
-18.702988
30
120.841118
11
105.463600
21
-27.134171
31
130.169144
12
76.209892
22
-6.861603
32
131.769516
13
58.114849
23
-7.791748
33
122.030891
0
3DFACE
8
0
70
0
10
63.596020
20
-5.462189
30
112.311096
11
63.703346
21
5.792709
31
113.877907
12
118.732574
22
18.987137
32
110.399925
13
97.204834
23
-0.561142
33
95.776901
0
3DFACE
8
0
70
0
10
58.325935
20
3.460754
30
123.635574
11
107.858719
21
13.716690
31
137.093201
12
118.732574
22
18.987137
32
110.399925
13
63.703346
23
5.792709
33
113.877907
0
3DFACE
8
0
70
0
10
58.114849
20
-7.791748
30
122.030891
11
76.209892
21
-6.861603
31
131.769516
12
107.858719
22
13.716690
32
137.093201
13
58.325935
23
3.460754
33
123.635574
0
3DFACE
8
0
70
0
10
-1.173770
20
-47.120354
30
76.160553
11
-67.344086
21
-44.875305
31
51.852390
12
-73.572563
22
-37.277176
32
30.444508
13
-31.831612
23
-32.369698
33
53.031490
0
3DFACE
8
0
70
0
10
-67.344086
20
-38.057114
30
-70.278381
11
-1.173769
21
-37.490288
31
-96.337624
12
-30.820292
22
-68.569778
32
-71.560760
13
-72.915207
23
-60.807228
33
-50.540455
0
3DFACE
8
0
70
0
10
-1.173770
20
-55.127167
30
96.205208
11
-88.664764
21
-52.505035
31
66.218262
12
-67.344086
22
-44.875305
32
51.852390
13
-1.173770
23
-47.120354
33
76.160553
0
3DFACE
8
0
70
0
10
-88.664764
20
-43.876389
30
-88.342064
11
-1.173769
21
-43.133347
31
-118.633644
12
-1.173769
22
-37.490288
32
-96.337624
13
-67.344086
23
-38.057114
33
-70.278381
0
3DFACE
8
0
70
0
10
-1.173770
20
-52.266296
30
109.116028
11
-1.173772
21
2.005081
31
117.914536
12
-108.422394
22
3.863235
32
83.850166
13
-93.969849
23
-49.456360
33
75.205963
0
3DFACE
8
0
70
0
10
-93.969841
20
-39.705994
30
-99.447197
11
-108.422394
21
13.613602
31
-90.802994
12
-1.173989
22
15.564011
32
-124.853333
13
-1.173769
23
-38.713280
33
-133.651871
0
3DFACE
8
0
70
0
10
-1.173772
20
2.005081
30
117.914536
11
-1.173772
21
3.863892
31
105.768867
12
-102.321548
22
5.493103
32
75.620949
13
-108.422394
23
3.863235
33
83.850166
0
3DFACE
8
0
70
0
10
-1.173770
20
-52.266296
30
109.116028
11
-93.969849
21
-49.456360
31
75.205963
12
-88.664764
22
-52.505035
32
66.218262
13
-1.173770
23
-55.127167
33
96.205208
0
3DFACE
8
0
70
0
10
-108.422394
20
13.613602
30
-90.802994
11
-102.321541
21
14.121750
31
-78.939377
12
-1.188086
22
16.073547
32
-109.066399
13
-1.173989
23
15.564011
33
-124.853333
0
3DFACE
8
0
70
0
10
-93.969841
20
-39.705994
30
-99.447197
11
-1.173769
21
-38.713280
31
-133.651871
12
-1.173769
22
-43.133347
32
-118.633644
13
-88.664764
23
-43.876389
33
-88.342064
0
3DFACE
8
0
70
0
10
-30.824326
20
-123.418320
30
103.500938
11
-37.138451
21
-102.467514
31
89.408028
12
-70.127968
22
-102.282326
32
89.414490
13
-77.964272
23
-123.418320
33
103.500938
0
3DFACE
8
0
70
0
10
-67.344086
20
-44.875305
30
51.852390
11
-83.222473
21
-41.540833
31
-7.876259
12
-83.967201
22
-51.952469
32
-8.344011
13
-73.572563
23
-37.277176
33
30.444508
0
3DFACE
8
0
70
0
10
-88.664764
20
-52.505035
30
66.218262
11
-109.873322
21
-48.307312
31
-8.973245
12
-83.222473
22
-41.540833
32
-7.876259
13
-67.344086
23
-44.875305
33
51.852390
0
3DFACE
8
0
70
0
10
-108.422394
20
3.863235
30
83.850166
11
-134.337448
21
8.530869
31
0.241392
12
-116.504662
22
-44.788734
32
-8.402810
13
-93.969849
23
-49.456360
33
75.205963
0
3DFACE
8
0
70
0
10
-134.337448
20
8.530869
30
0.241392
11
-108.422394
21
3.863235
31
83.850166
12
-102.321548
22
5.493103
32
75.620949
13
-126.711380
23
9.690826
33
0.429445
0
3DFACE
8
0
70
0
10
-93.969849
20
-49.456360
30
75.205963
11
-116.504662
21
-44.788734
31
-8.402810
12
-109.873322
22
-48.307312
32
-8.973245
13
-88.664764
23
-52.505035
33
66.218262
0
3DFACE
8
0
70
0
10
-16.057442
20
-156.797928
30
102.335297
11
-30.824326
21
-123.418320
31
103.500938
12
-77.964272
22
-123.418320
32
103.500938
13
-83.240837
23
-156.983124
33
102.328835
0
3DFACE
8
0
70
0
10
-1.204486
20
158.834381
30
15.443084
11
-1.207897
21
140.388245
31
-37.698700
12
-56.103218
22
135.016479
32
-26.143007
13
-64.363396
23
144.122620
33
10.690969
0
3DFACE
8
0
70
0
10
-83.222473
20
-41.540833
30
-7.876259
11
-67.344086
21
-38.057114
31
-70.278381
12
-72.915207
22
-60.807228
32
-50.540455
13
-83.967201
23
-51.952469
33
-8.344011
0
3DFACE
8
0
70
0
10
-109.873322
20
-48.307312
30
-8.973245
11
-88.664764
21
-43.876389
31
-88.342064
12
-67.344086
22
-38.057114
32
-70.278381
13
-83.222473
23
-41.540833
33
-7.876259
0
3DFACE
8
0
70
0
10
-116.504662
20
-44.788734
30
-8.402810
11
-134.337448
21
8.530869
31
0.241392
12
-108.422394
22
13.613602
32
-90.802994
13
-93.969841
23
-39.705994
33
-99.447197
0
3DFACE
8
0
70
0
10
-108.422394
20
13.613602
30
-90.802994
11
-134.337448
21
8.530869
31
0.241392
12
-126.711380
22
9.690826
32
0.429445
13
-102.321541
23
14.121750
33
-78.939377
0
3DFACE
8
0
70
0
10
-116.504662
20
-44.788734
30
-8.402810
11
-93.969841
21
-39.705994
31
-99.447197
12
-88.664764
22
-43.876389
32
-88.342064
13
-109.873322
23
-48.307312
33
-8.973245
0
3DFACE
8
0
70
0
10
-32.432190
20
-51.661758
30
21.229177
11
-24.263027
21
-62.674774
31
-4.645929
12
-23.580536
22
-54.008972
32
-7.215537
13
-31.831612
23
-32.369698
33
53.031490
0
3DFACE
8
0
70
0
10
-32.432190
20
-51.661758
30
21.229177
11
-31.831612
21
-32.369698
31
53.031490
12
-73.572563
22
-37.277176
32
30.444508
13
-74.235184
23
-53.567932
33
10.863010
0
3DFACE
8
0
70
0
10
-74.235184
20
-53.567932
30
10.863010
11
-73.572563
21
-37.277176
31
30.444508
12
-83.967201
22
-51.952469
32
-8.344011
13
-84.630295
23
-59.932770
33
-6.150561
0
3DFACE
8
0
70
0
10
-24.263027
20
-62.674774
30
-4.645929
11
-31.852367
21
-73.430626
31
-32.037724
12
-30.820292
22
-68.569778
32
-71.560760
13
-23.580536
23
-54.008972
33
-7.215537
0
3DFACE
8
0
70
0
10
-84.630295
20
-59.932770
30
-6.150561
11
-83.967201
21
-51.952469
31
-8.344011
12
-72.915207
22
-60.807228
32
-50.540455
13
-73.858299
23
-67.717697
33
-23.760475
0
3DFACE
8
0
70
0
10
-73.858299
20
-67.717697
30
-23.760475
11
-72.915207
21
-60.807228
31
-50.540455
12
-30.820292
22
-68.569778
32
-71.560760
13
-31.852367
23
-73.430626
33
-32.037724
0
3DFACE
8
0
70
0
10
-29.716351
20
-124.780815
30
-4.447455
11
-37.079815
21
-96.815125
31
23.354525
12
-37.138451
22
-110.390305
32
37.245510
13
-30.824326
23
-129.741440
33
44.352634
0
3DFACE
8
0
70
0
10
-37.079815
20
-96.815125
30
23.354525
11
-71.320465
21
-103.003586
31
12.847329
12
-70.127968
22
-113.986107
32
37.119942
13
-37.138451
23
-110.390305
33
37.245510
0
3DFACE
8
0
70
0
10
-79.599777
20
-124.761185
30
-5.186560
11
-77.964272
21
-129.741440
31
44.352634
12
-70.127968
22
-113.986107
32
37.119942
13
-71.320465
23
-103.003586
33
12.847329
0
3DFACE
8
0
70
0
10
-12.776203
20
-154.461456
30
-33.872925
11
-29.716351
21
-124.780815
31
-4.447455
12
-30.824326
22
-129.741440
32
44.352634
13
-19.761314
23
-152.129333
33
32.452435
0
3DFACE
8
0
70
0
10
-86.358788
20
-153.207779
30
-33.052563
11
-86.944710
21
-152.364426
31
36.150364
12
-77.964272
22
-129.741440
32
44.352634
13
-79.599777
23
-124.761185
33
-5.186560
0
3DFACE
8
0
70
0
10
-86.358788
20
-153.207779
30
-33.052563
11
-12.776203
21
-154.461456
31
-33.872925
12
-19.761314
22
-152.129333
32
32.452435
13
-86.944710
23
-152.364426
33
36.150364
0
3DFACE
8
0
70
0
10
-30.824326
20
-123.418320
30
103.500938
11
-30.824326
21
-129.741440
31
44.352634
12
-37.138451
22
-110.390305
32
37.245510
13
-37.138451
23
-102.467514
33
89.408028
0
3DFACE
8
0
70
0
10
-37.138451
20
-102.467514
30
89.408028
11
-37.138451
21
-110.390305
31
37.245510
12
-70.127968
22
-113.986107
32
37.119942
13
-70.127968
23
-102.282326
33
89.414490
0
3DFACE
8
0
70
0
10
-77.964272
20
-123.418320
30
103.500938
11
-70.127968
21
-102.282326
31
89.414490
12
-70.127968
22
-113.986107
32
37.119942
13
-77.964272
23
-129.741440
33
44.352634
0
3DFACE
8
0
70
0
10
-16.057442
20
-156.797928
30
102.335297
11
-19.761314
21
-152.129333
31
32.452435
12
-30.824326
22
-129.741440
32
44.352634
13
-30.824326
23
-123.418320
33
103.500938
0
3DFACE
8
0
70
0
10
-83.240837
20
-156.983124
30
102.328835
11
-77.964272
21
-123.418320
31
103.500938
12
-77.964272
22
-129.741440
32
44.352634
13
-86.944710
23
-152.364426
33
36.150364
0
3DFACE
8
0
70
0
10
-83.240837
20
-156.983124
30
102.328835
11
-86.944710
21
-152.364426
31
36.150364
12
-19.761314
22
-152.129333
32
32.452435
13
-16.057442
23
-156.797928
33
102.335297
0
3DFACE
8
0
70
0
10
-73.318253
20
-31.670540
30
198.071976
11
-59.607052
21
-19.845535
31
191.263367
12
-75.455765
22
-9.516968
32
201.482513
13
-93.926048
23
-20.597198
33
198.071777
0
3DFACE
8
0
70
0
10
-85.830681
20
121.202423
30
-24.917387
11
-64.363396
21
144.122620
31
10.690969
12
-56.103218
22
135.016479
32
-26.143007
13
-56.103218
23
135.016479
33
-26.143007
0
3DFACE
8
0
70
0
10
-67.862389
20
110.417480
30
46.630215
11
-55.965126
21
110.056702
31
68.589661
12
-64.363396
22
144.122620
32
10.690969
13
-64.363396
23
144.122620
33
10.690969
0
3DFACE
8
0
70
0
10
-106.799675
20
33.622726
30
71.372292
11
-104.575531
21
8.024323
31
96.757965
12
-128.972748
22
-23.942543
32
67.908623
13
-132.729263
23
2.964264
33
43.983749
0
3DFACE
8
0
70
0
10
-158.516785
20
38.941406
30
82.342941
11
-156.319153
21
14.788620
31
109.158226
12
-104.575531
22
8.024323
32
96.757965
13
-106.799675
23
33.622726
33
71.372292
0
3DFACE
8
0
70
0
10
-172.881409
20
-15.777374
30
80.824631
11
-156.319153
21
14.788620
31
109.158226
12
-158.516785
22
38.941406
32
82.342941
13
-176.303101
23
9.403748
33
55.159615
0
3DFACE
8
0
70
0
10
-132.729263
20
2.964264
30
43.983749
11
-128.972748
21
-23.942543
31
67.908623
12
-172.881409
22
-15.777374
32
80.824631
13
-176.303101
23
9.403748
33
55.159615
0
3DFACE
8
0
70
0
10
-124.900742
20
-31.415359
30
60.083107
11
-93.504753
21
12.141785
31
99.596733
12
-91.641457
22
-11.426559
32
122.798523
13
-121.022186
23
-57.349991
33
81.992172
0
3DFACE
8
0
70
0
10
-93.504753
20
12.141785
30
99.596733
11
-162.660507
21
22.508652
31
117.478752
12
-160.917984
22
1.287613
32
141.893799
13
-91.641457
23
-11.426559
33
122.798523
0
3DFACE
8
0
70
0
10
-180.355774
20
-42.339722
30
102.104630
11
-160.917984
21
1.287613
31
141.893799
12
-162.660507
22
22.508652
32
117.478752
13
-183.668518
23
-19.276443
33
78.564735
0
3DFACE
8
0
70
0
10
-124.900742
20
-31.415359
30
60.083107
11
-121.022186
21
-57.349991
31
81.992172
12
-180.355774
22
-42.339722
32
102.104630
13
-183.668518
23
-19.276443
33
78.564735
0
3DFACE
8
0
70
0
10
-124.900742
20
-31.415359
30
60.083107
11
-128.972748
21
-23.942543
31
67.908623
12
-104.575531
22
8.024323
32
96.757965
13
-93.504753
23
12.141785
33
99.596733
0
3DFACE
8
0
70
0
10
-121.022186
20
-57.349991
30
81.992172
11
-91.641457
21
-11.426559
31
122.798523
12
-102.536102
22
-15.447937
32
120.035080
13
-125.434891
23
-49.283539
33
90.441223
0
3DFACE
8
0
70
0
10
-93.504753
20
12.141785
30
99.596733
11
-104.575531
21
8.024323
31
96.757965
12
-156.319153
22
14.788620
32
109.158226
13
-162.660507
23
22.508652
33
117.478752
0
3DFACE
8
0
70
0
10
-91.641457
20
-11.426559
30
122.798523
11
-160.917984
21
1.287613
31
141.893799
12
-154.352280
22
-6.828217
32
133.157867
13
-102.536102
23
-15.447937
33
120.035080
0
3DFACE
8
0
70
0
10
-180.355774
20
-42.339722
30
102.104630
11
-169.743912
21
-38.866997
31
104.357887
12
-154.352280
22
-6.828217
32
133.157867
13
-160.917984
23
1.287613
33
141.893799
0
3DFACE
8
0
70
0
10
-183.668518
20
-19.276443
30
78.564735
11
-162.660507
21
22.508652
31
117.478752
12
-156.319153
22
14.788620
32
109.158226
13
-172.881409
23
-15.777374
33
80.824631
0
3DFACE
8
0
70
0
10
-121.022186
20
-57.349991
30
81.992172
11
-125.434891
21
-49.283539
31
90.441223
12
-169.743912
22
-38.866997
32
104.357887
13
-180.355774
23
-42.339722
33
102.104630
0
3DFACE
8
0
70
0
10
-124.900742
20
-31.415359
30
60.083107
11
-183.668518
21
-19.276443
31
78.564735
12
-172.881409
22
-15.777374
32
80.824631
13
-128.972748
23
-23.942543
33
67.908623
0
3DFACE
8
0
70
0
10
-126.646164
20
-27.642181
30
103.123878
11
-125.434891
21
-49.283539
31
90.441223
12
-102.536102
22
-15.447937
32
120.035080
13
-106.293503
23
-5.996948
33
102.619911
0
3DFACE
8
0
70
0
10
-106.293503
20
-5.996948
30
102.619911
11
-102.536102
21
-15.447937
31
120.035080
12
-154.352280
22
-6.828217
32
133.157867
13
-133.788132
23
8.496628
33
116.346710
0
3DFACE
8
0
70
0
10
-149.550644
20
-13.002411
30
115.198410
11
-133.788132
21
8.496628
31
116.346710
12
-154.352280
22
-6.828217
32
133.157867
13
-169.743912
23
-38.866997
33
104.357887
0
3DFACE
8
0
70
0
10
-126.646164
20
-27.642181
30
103.123878
11
-149.550644
21
-13.002411
31
115.198410
12
-169.743912
22
-38.866997
32
104.357887
13
-125.434891
23
-49.283539
33
90.441223
0
3DFACE
8
0
70
0
10
-56.100433
20
-21.096100
30
127.372459
11
-62.497459
21
-18.620941
31
116.352440
12
-62.173508
22
-7.718674
32
117.604904
13
-55.688766
23
-10.183640
33
128.551239
0
3DFACE
8
0
70
0
10
-55.688766
20
-10.183640
30
128.551239
11
-62.173508
21
-7.718674
31
117.604904
12
-62.287651
22
3.531052
32
119.218636
13
-55.920059
23
1.062820
33
130.210632
0
3DFACE
8
0
70
0
10
-137.995148
20
-11.467728
30
158.346115
11
-111.992165
21
10.998032
31
146.573334
12
-133.788132
22
8.496628
32
116.346710
13
-149.550644
23
-13.002411
33
115.198410
0
3DFACE
8
0
70
0
10
-109.325722
20
-29.809921
30
139.260651
11
-137.995148
21
-11.467728
31
158.346115
12
-149.550644
22
-13.002411
32
115.198410
13
-126.646164
23
-27.642181
33
103.123878
0
3DFACE
8
0
70
0
10
-73.318253
20
-31.670540
30
198.071976
11
-109.325722
21
-29.809921
31
139.260651
12
-76.046005
22
-9.448013
32
140.051834
13
-59.607052
23
-19.845535
33
191.263367
0
3DFACE
8
0
70
0
10
-59.607052
20
-19.845535
30
191.263367
11
-76.046005
21
-9.448013
31
140.051834
12
-111.992165
22
10.998032
32
146.573334
13
-75.455765
23
-9.516968
33
201.482513
0
3DFACE
8
0
70
0
10
-93.926048
20
-20.597198
30
198.071777
11
-75.455765
21
-9.516968
31
201.482513
12
-111.992165
22
10.998032
32
146.573334
13
-137.995148
23
-11.467728
33
158.346115
0
3DFACE
8
0
70
0
10
-73.318253
20
-31.670540
30
198.071976
11
-93.926048
21
-20.597198
31
198.071777
12
-137.995148
22
-11.467728
32
158.346115
13
-109.325722
23
-29.809921
33
139.260651
0
3DFACE
8
0
70
0
10
-56.100433
20
-21.096100
30
127.372459
11
-109.325722
21
-29.809921
31
139.260651
12
-126.646164
22
-27.642181
32
103.123878
13
-62.497459
23
-18.620941
33
116.352440
0
3DFACE
8
0
70
0
10
-62.497459
20
-18.620941
30
116.352440
11
-126.646164
21
-27.642181
31
103.123878
12
-106.293503
22
-5.996948
32
102.619911
13
-62.173508
23
-7.718674
33
117.604904
0
3DFACE
8
0
70
0
10
-56.100433
20
-21.096100
30
127.372459
11
-55.688766
21
-10.183640
31
128.551239
12
-76.046005
22
-9.448013
32
140.051834
13
-109.325722
23
-29.809921
33
139.260651
0
3DFACE
8
0
70
0
10
-62.173508
20
-7.718674
30
117.604904
11
-106.293503
21
-5.996948
31
102.619911
12
-133.788132
22
8.496628
32
116.346710
13
-62.287651
23
3.531052
33
119.218636
0
3DFACE
8
0
70
0
10
-55.920059
20
1.062820
30
130.210632
11
-62.287651
21
3.531052
31
119.218636
12
-133.788132
22
8.496628
32
116.346710
13
-111.992165
23
10.998032
33
146.573334
0
3DFACE
8
0
70
0
10
-55.688766
20
-10.183640
30
128.551239
11
-55.920059
21
1.062820
31
130.210632
12
-111.992165
22
10.998032
32
146.573334
13
-76.046005
23
-9.448013
33
140.051834
0
3DFACE
8
0
70
0
10
21.281097
20
-53.697891
30
-6.884879
11
29.558575
21
-30.631561
31
53.196861
12
-1.173770
22
-47.120354
32
76.160553
13
-1.173770
23
-42.399902
33
-8.394332
0
3DFACE
8
0
70
0
10
21.281097
20
-53.697891
30
-6.884879
11
-1.173770
21
-42.399902
31
-8.394332
12
-1.173769
22
-37.490288
32
-96.337624
13
28.471590
23
-69.735435
33
-71.246925
0
3DFACE
8
0
70
0
10
-1.173769
20
-37.490288
30
-96.337624
11
-1.173770
21
-42.399902
31
-8.394332
12
-23.580536
22
-54.008972
32
-7.215537
13
-30.820292
23
-68.569778
33
-71.560760
0
3DFACE
8
0
70
0
10
-1.173770
20
-42.399902
30
-8.394332
11
-1.173770
21
-47.120354
31
76.160553
12
-31.831612
22
-32.369698
32
53.031490
13
-23.580536
23
-54.008972
33
-7.215537
0
3DFACE
8
0
70
0
10
-0.992172
20
147.700531
30
184.925476
11
9.282702
21
148.792786
31
179.784256
12
18.707029
22
165.902954
32
186.538315
13
-0.992172
23
165.375824
33
192.968506
0
3DFACE
8
0
70
0
10
-0.992172
20
165.375824
30
192.968506
11
18.707029
21
165.902954
31
186.538315
12
11.630700
22
174.546936
32
186.288010
13
-0.992172
23
177.574585
33
190.160141
0
3DFACE
8
0
70
0
10
9.282702
20
148.792786
30
179.784256
11
10.215907
21
146.906311
31
166.628067
12
21.707903
22
165.353851
32
168.914932
13
18.707029
23
165.902954
33
186.538315
0
3DFACE
8
0
70
0
10
-0.992172
20
147.700531
30
184.925476
11
-1.250554
21
143.486237
31
172.205948
12
10.215907
22
146.906311
32
166.628067
13
9.282702
23
148.792786
33
179.784256
0
3DFACE
8
0
70
0
10
-0.992172
20
177.574585
30
190.160141
11
11.630700
21
174.546936
31
186.288010
12
13.550124
22
177.194580
32
170.298355
13
-1.250555
23
180.531830
33
176.007370
0
3DFACE
8
0
70
0
10
18.707029
20
165.902954
30
186.538315
11
21.707903
21
165.353851
31
168.914932
12
13.550124
22
177.194580
32
170.298355
13
11.630700
23
174.546936
33
186.288010
0
3DFACE
8
0
70
0
10
2.787637
20
190.382996
30
173.203156
11
2.787638
21
180.821411
31
173.196121
12
13.817105
22
179.069824
32
167.662170
13
15.134119
23
198.115112
33
172.037201
0
3DFACE
8
0
70
0
10
13.817105
20
179.069824
30
167.662170
11
23.379429
21
180.749725
31
161.522720
12
27.053463
22
191.936401
32
159.163422
13
15.134119
23
198.115112
33
172.037201
0
3DFACE
8
0
70
0
10
11.740433
20
126.872620
30
183.691391
11
7.779481
21
146.936768
31
174.895538
12
-1.250554
22
145.229645
32
177.472336
13
-1.250554
23
126.595337
33
184.348648
0
3DFACE
8
0
70
0
10
49.665459
20
148.606079
30
140.270615
11
48.059715
21
159.489594
31
141.292389
12
24.843042
22
150.158630
32
161.048126
13
31.951050
23
126.778198
33
164.814590
0
3DFACE
8
0
70
0
10
7.779481
20
146.936768
30
174.895538
11
11.740433
21
126.872620
31
183.691391
12
29.954054
22
130.001831
32
175.316635
13
22.476852
23
147.210266
33
174.807907
0
3DFACE
8
0
70
0
10
44.524620
20
193.852844
30
145.292694
11
56.690166
21
207.611115
31
144.853317
12
31.604994
22
218.218689
32
161.440826
13
31.312279
23
197.648895
33
161.883392
0
3DFACE
8
0
70
0
10
-1.250555
20
221.614136
30
176.398972
11
-1.250555
21
197.282227
31
175.800644
12
14.627247
22
204.747925
32
174.015823
13
16.195942
23
228.001465
33
170.647964
0
3DFACE
8
0
70
0
10
16.195942
20
228.001465
30
170.647964
11
14.627247
21
204.747925
31
174.015823
12
31.312279
22
197.648895
32
161.883392
13
31.604994
23
218.218689
33
161.440826
0
3DFACE
8
0
70
0
10
-1.250554
20
100.402084
30
179.268402
11
15.924353
21
109.395752
31
173.856415
12
12.742060
22
118.716705
32
172.825165
13
-1.250554
23
115.167419
33
177.937927
0
3DFACE
8
0
70
0
10
-1.250553
20
59.819427
30
153.582489
11
19.109480
21
72.616730
31
151.733688
12
15.924353
22
109.395752
32
173.856415
13
-1.250554
23
100.402084
33
179.268402
0
3DFACE
8
0
70
0
10
49.665459
20
148.606079
30
140.270615
11
31.951050
21
126.778198
31
164.814590
12
31.267879
22
124.564728
32
155.504288
13
53.388687
23
137.068115
33
142.186356
0
3DFACE
8
0
70
0
10
31.267879
20
124.564728
30
155.504288
11
42.641266
21
101.945526
31
123.026787
12
52.719330
22
133.169067
32
110.382294
13
53.388687
23
137.068115
33
142.186356
0
3DFACE
8
0
70
0
10
19.109480
20
72.616730
30
151.733688
11
42.641266
21
101.945526
31
123.026787
12
31.267879
22
124.564728
32
155.504288
13
15.924353
23
109.395752
33
173.856415
0
3DFACE
8
0
70
0
10
15.924353
20
109.395752
30
173.856415
11
31.267879
21
124.564728
31
155.504288
12
31.951050
22
126.778198
32
164.814590
13
12.742060
23
118.716705
33
172.825165
0
3DFACE
8
0
70
0
10
-1.250554
20
126.595337
30
184.348648
11
-1.250554
21
115.167419
31
177.937927
12
12.742060
22
118.716705
32
172.825165
13
11.740433
23
126.872620
33
183.691391
0
3DFACE
8
0
70
0
10
-1.250554
20
145.229645
30
177.472336
11
7.779481
21
146.936768
31
174.895538
12
10.215907
22
146.906311
32
166.628067
13
-1.250554
23
143.486237
33
172.205948
0
3DFACE
8
0
70
0
10
22.476852
20
147.210266
30
174.807907
11
24.843042
21
150.158630
31
161.048126
12
10.215907
22
146.906311
32
166.628067
13
7.779481
23
146.936768
33
174.895538
0
POINT
8
0
70
0
10
51.156452
20
130.745239
30
156.778763
0
3DFACE
8
0
70
0
10
11.740433
20
126.872620
30
183.691391
11
12.742060
21
118.716705
31
172.825165
12
31.951050
22
126.778198
32
164.814590
13
29.954054
23
130.001831
33
175.316635
0
3DFACE
8
0
70
0
10
29.954054
20
130.001831
30
175.316635
11
51.156452
21
130.745239
31
156.778763
12
22.476852
22
147.210266
32
174.807907
13
22.476852
23
147.210266
33
174.807907
0
3DFACE
8
0
70
0
10
22.476852
20
147.210266
30
174.807907
11
51.156452
21
130.745239
31
156.778763
12
24.843042
22
150.158630
32
161.048126
13
24.843042
23
150.158630
33
161.048126
0
3DFACE
8
0
70
0
10
51.156452
20
130.745239
30
156.778763
11
31.951050
21
126.778198
31
164.814590
12
24.843042
22
150.158630
32
161.048126
13
24.843042
23
150.158630
33
161.048126
0
3DFACE
8
0
70
0
10
31.951050
20
126.778198
30
164.814590
11
51.156452
21
130.745239
31
156.778763
12
29.954054
22
130.001831
32
175.316635
13
29.954054
23
130.001831
33
175.316635
0
3DFACE
8
0
70
0
10
56.690166
20
207.611115
30
144.853317
11
44.524620
21
193.852844
31
145.292694
12
57.958042
22
192.317200
32
108.784416
13
61.263580
23
192.884827
33
109.981750
0
3DFACE
8
0
70
0
10
44.524620
20
193.852844
30
145.292694
11
42.551865
21
181.897827
31
144.478531
12
59.462444
22
185.058319
32
108.413704
13
57.958042
23
192.317200
33
108.784416
0
3DFACE
8
0
70
0
10
42.551865
20
181.897827
30
144.478531
11
44.993641
21
168.894348
31
142.890839
12
59.484230
22
171.704956
32
109.131653
13
59.462444
23
185.058319
33
108.413704
0
3DFACE
8
0
70
0
10
61.263580
20
192.884827
30
109.981750
11
57.958042
21
192.317200
31
108.784416
12
41.167835
22
191.183472
32
82.760498
13
43.753963
23
182.157166
33
85.974564
0
3DFACE
8
0
70
0
10
59.462444
20
185.058319
30
108.413704
11
43.480190
21
191.984436
31
79.207718
12
41.167835
22
191.183472
32
82.760498
13
57.958042
23
192.317200
33
108.784416
0
3DFACE
8
0
70
0
10
59.484230
20
171.704956
30
109.131653
11
40.735416
21
180.520813
31
76.449379
12
43.480190
22
191.984436
32
79.207718
13
59.462444
23
185.058319
33
108.413704
0
3DFACE
8
0
70
0
10
43.753963
20
182.157166
30
85.974564
11
41.167835
21
191.183472
31
82.760498
12
-1.250555
22
191.695709
32
65.844055
13
-1.250556
23
175.743652
33
67.273582
0
3DFACE
8
0
70
0
10
43.480190
20
191.984436
30
79.207718
11
-1.250555
21
193.565216
31
64.212982
12
-1.250555
22
191.695709
32
65.844055
13
41.167835
23
191.183472
33
82.760498
0
3DFACE
8
0
70
0
10
40.735416
20
180.520813
30
76.449379
11
-1.250555
21
179.612671
31
64.140762
12
-1.250555
22
193.565216
32
64.212982
13
43.480190
23
191.984436
33
79.207718
0
3DFACE
8
0
70
0
10
52.719330
20
133.169067
30
110.382294
11
59.047878
21
150.131317
31
108.120865
12
49.665459
22
148.606079
32
140.270615
13
53.388687
23
137.068115
33
142.186356
0
3DFACE
8
0
70
0
10
44.993641
20
168.894348
30
142.890839
11
48.059715
21
159.489594
31
141.292389
12
59.484230
22
171.704956
32
109.131653
13
59.484230
23
171.704956
33
109.131653
0
3DFACE
8
0
70
0
10
49.665459
20
148.606079
30
140.270615
11
59.047878
21
150.131317
31
108.120865
12
59.484230
22
171.704956
32
109.131653
13
48.059715
23
159.489594
33
141.292389
0
3DFACE
8
0
70
0
10
59.047878
20
150.131317
30
108.120865
11
39.942699
21
162.322327
31
77.368782
12
40.735416
22
180.520813
32
76.449379
13
59.484230
23
171.704956
33
109.131653
0
3DFACE
8
0
70
0
10
39.942699
20
162.322327
30
77.368782
11
-1.250554
21
161.871216
31
66.640167
12
-1.250555
22
179.612671
32
64.140762
13
40.735416
23
180.520813
33
76.449379
0
3DFACE
8
0
70
0
10
-1.250555
20
221.614136
30
176.398972
11
16.195942
21
228.001465
31
170.647964
12
18.149042
22
248.538452
32
161.476151
13
-1.250553
23
249.195831
33
167.602081
0
3DFACE
8
0
70
0
10
-1.250553
20
249.195831
30
167.602081
11
18.149042
21
248.538452
31
161.476151
12
18.537706
22
249.625366
32
156.186813
13
-1.250553
23
251.631470
33
163.346130
0
3DFACE
8
0
70
0
10
16.195942
20
228.001465
30
170.647964
11
31.604994
21
218.218689
31
161.440826
12
44.640373
22
243.544586
32
149.127716
13
18.149042
23
248.538452
33
161.476151
0
3DFACE
8
0
70
0
10
18.149042
20
248.538452
30
161.476151
11
44.640373
21
243.544586
31
149.127716
12
43.398022
22
245.108765
32
144.028870
13
18.537706
23
249.625366
33
156.186813
0
3DFACE
8
0
70
0
10
31.604994
20
218.218689
30
161.440826
11
56.690166
21
207.611115
31
144.853317
12
60.737225
22
228.733429
32
121.106590
13
44.640373
23
243.544586
33
149.127716
0
3DFACE
8
0
70
0
10
44.640373
20
243.544586
30
149.127716
11
60.737225
21
228.733429
31
121.106590
12
52.438553
22
232.364624
32
118.813965
13
43.398022
23
245.108765
33
144.028870
0
3DFACE
8
0
70
0
10
56.690166
20
207.611115
30
144.853317
11
61.263580
21
192.884827
31
109.981750
12
65.262917
22
220.926758
32
96.432106
13
60.737225
23
228.733429
33
121.106590
0
3DFACE
8
0
70
0
10
60.737225
20
228.733429
30
121.106590
11
65.262917
21
220.926758
31
96.432106
12
58.708488
22
223.930664
32
97.194717
13
52.438553
23
232.364624
33
118.813965
0
3DFACE
8
0
70
0
10
61.263580
20
192.884827
30
109.981750
11
43.753963
21
182.157166
31
85.974564
12
44.649288
22
208.195618
32
76.037682
13
65.262917
23
220.926758
33
96.432106
0
3DFACE
8
0
70
0
10
65.262917
20
220.926758
30
96.432106
11
44.649288
21
208.195618
31
76.037682
12
39.120567
22
213.309235
32
78.373283
13
58.708488
23
223.930664
33
97.194717
0
3DFACE
8
0
70
0
10
43.753963
20
182.157166
30
85.974564
11
-1.250556
21
175.743652
31
67.273582
12
-1.250555
22
199.712524
32
57.729824
13
44.649288
23
208.195618
33
76.037682
0
3DFACE
8
0
70
0
10
44.649288
20
208.195618
30
76.037682
11
-1.250555
21
199.712524
31
57.729824
12
-1.250555
22
204.563477
32
60.933243
13
39.120567
23
213.309235
33
78.373283
0
3DFACE
8
0
70
0
10
52.719330
20
133.169067
30
110.382294
11
36.519398
21
145.402710
31
59.793129
12
39.942699
22
162.322327
32
77.368782
13
59.047878
23
150.131317
33
108.120865
0
3DFACE
8
0
70
0
10
36.519398
20
145.402710
30
59.793129
11
-1.228616
21
157.418823
31
31.607481
12
-1.250554
22
161.871216
32
66.640167
13
39.942699
23
162.322327
33
77.368782
0
3DFACE
8
0
70
0
10
42.641266
20
101.945526
30
123.026787
11
29.881565
21
114.996735
31
95.365669
12
36.519398
22
145.402710
32
59.793129
13
52.719330
23
133.169067
33
110.382294
0
3DFACE
8
0
70
0
10
19.109480
20
72.616730
30
151.733688
11
16.690535
21
75.050354
31
135.999039
12
29.881565
22
114.996735
32
95.365669
13
42.641266
23
101.945526
33
123.026787
0
3DFACE
8
0
70
0
10
16.690535
20
75.050354
30
135.999039
11
-1.250553
21
73.897507
31
131.549591
12
-1.250553
22
98.176544
32
112.451416
13
29.881565
23
114.996735
33
95.365669
0
3DFACE
8
0
70
0
10
-1.250553
20
59.819427
30
153.582489
11
-1.250553
21
73.897507
31
131.549591
12
16.690535
22
75.050354
32
135.999039
13
16.690535
23
75.050354
33
135.999039
0
3DFACE
8
0
70
0
10
-1.250553
20
59.819427
30
153.582489
11
16.690535
21
75.050354
31
135.999039
12
19.109480
22
72.616730
32
151.733688
13
19.109480
23
72.616730
33
151.733688
0
3DFACE
8
0
70
0
10
-0.992172
20
147.700531
30
184.925476
11
-0.992172
21
165.375824
31
192.968506
12
-20.691374
22
165.902954
32
186.538315
13
-11.267047
23
148.792786
33
179.784256
0
3DFACE
8
0
70
0
10
-0.992172
20
165.375824
30
192.968506
11
-0.992172
21
177.574585
31
190.160141
12
-13.615047
22
174.546936
32
186.288010
13
-20.691374
23
165.902954
33
186.538315
0
3DFACE
8
0
70
0
10
-11.267047
20
148.792786
30
179.784256
11
-20.691374
21
165.902954
31
186.538315
12
-24.209009
22
165.353851
32
168.914932
13
-12.717014
23
146.906311
33
166.628067
0
3DFACE
8
0
70
0
10
-0.992172
20
147.700531
30
184.925476
11
-11.267047
21
148.792786
31
179.784256
12
-12.717014
22
146.906311
32
166.628067
13
-1.250554
23
143.486237
33
172.205948
0
3DFACE
8
0
70
0
10
-0.992172
20
177.574585
30
190.160141
11
-1.250555
21
180.531830
31
176.007370
12
-16.051235
22
177.194580
32
170.298355
13
-13.615047
23
174.546936
33
186.288010
0
3DFACE
8
0
70
0
10
-20.691374
20
165.902954
30
186.538315
11
-13.615047
21
174.546936
31
186.288010
12
-16.051235
22
177.194580
32
170.298355
13
-24.209009
23
165.353851
33
168.914932
0
3DFACE
8
0
70
0
10
-4.835609
20
190.284241
30
173.010849
11
-16.983484
21
198.783997
31
172.313324
12
-16.084127
22
179.609375
32
168.355774
13
-4.835609
23
181.129395
33
172.849472
0
3DFACE
8
0
70
0
10
-16.084127
20
179.609375
30
168.355774
11
-16.983484
21
198.783997
31
172.313324
12
-28.920616
22
191.542938
32
161.638687
13
-25.173615
23
181.097076
33
163.396851
0
3DFACE
8
0
70
0
10
-14.241541
20
126.872620
30
183.691391
11
-1.250554
21
126.595337
31
184.348648
12
-1.250554
22
145.229645
32
177.472336
13
-10.280588
23
146.936768
33
174.895538
0
3DFACE
8
0
70
0
10
-52.166565
20
148.606079
30
140.270615
11
-34.452160
21
126.778198
31
164.814590
12
-27.344149
22
150.158630
32
161.048126
13
-50.560822
23
159.489594
33
141.292389
0
3DFACE
8
0
70
0
10
-10.280588
20
146.936768
30
174.895538
11
-24.977959
21
147.210266
31
174.807907
12
-32.455162
22
130.001831
32
175.316635
13
-14.241541
23
126.872620
33
183.691391
0
3DFACE
8
0
70
0
10
-47.025730
20
193.852844
30
145.292694
11
-32.941353
21
197.648895
31
161.883392
12
-33.234062
22
218.218689
32
161.440826
13
-59.191269
23
207.611115
33
144.853317
0
3DFACE
8
0
70
0
10
-1.250555
20
221.614136
30
176.398972
11
-18.293325
21
228.768982
31
170.397110
12
-16.724636
22
205.543457
32
174.036530
13
-1.250555
23
197.282227
33
175.800644
0
3DFACE
8
0
70
0
10
-18.293325
20
228.768982
30
170.397110
11
-33.234062
21
218.218689
31
161.440826
12
-32.941353
22
197.648895
32
161.883392
13
-16.724636
23
205.543457
33
174.036530
0
3DFACE
8
0
70
0
10
-1.250554
20
100.402084
30
179.268402
11
-1.250554
21
115.167419
31
177.937927
12
-15.243168
22
118.716705
32
172.825165
13
-18.425463
23
109.395752
33
173.856415
0
3DFACE
8
0
70
0
10
-1.250553
20
59.819427
30
153.582489
11
-1.250554
21
100.402084
31
179.268402
12
-18.425463
22
109.395752
32
173.856415
13
-21.610588
23
72.616730
33
151.733688
0
3DFACE
8
0
70
0
10
-52.166565
20
148.606079
30
140.270615
11
-55.889790
21
137.068115
31
142.186356
12
-33.768990
22
124.564728
32
155.504288
13
-34.452160
23
126.778198
33
164.814590
0
3DFACE
8
0
70
0
10
-33.768990
20
124.564728
30
155.504288
11
-55.889790
21
137.068115
31
142.186356
12
-55.220440
22
133.169067
32
110.382294
13
-45.142368
23
101.945526
33
123.026787
0
3DFACE
8
0
70
0
10
-21.610588
20
72.616730
30
151.733688
11
-18.425463
21
109.395752
31
173.856415
12
-33.768990
22
124.564728
32
155.504288
13
-45.142368
23
101.945526
33
123.026787
0
3DFACE
8
0
70
0
10
-18.425463
20
109.395752
30
173.856415
11
-15.243168
21
118.716705
31
172.825165
12
-34.452160
22
126.778198
32
164.814590
13
-33.768990
23
124.564728
33
155.504288
0
3DFACE
8
0
70
0
10
-1.250554
20
126.595337
30
184.348648
11
-14.241541
21
126.872620
31
183.691391
12
-15.243168
22
118.716705
32
172.825165
13
-1.250554
23
115.167419
33
177.937927
0
3DFACE
8
0
70
0
10
-1.250554
20
145.229645
30
177.472336
11
-1.250554
21
143.486237
31
172.205948
12
-12.717014
22
146.906311
32
166.628067
13
-10.280588
23
146.936768
33
174.895538
0
3DFACE
8
0
70
0
10
-24.977959
20
147.210266
30
174.807907
11
-10.280588
21
146.936768
31
174.895538
12
-12.717014
22
146.906311
32
166.628067
13
-27.344149
23
150.158630
33
161.048126
0
POINT
8
0
70
0
10
-52.850117
20
130.745239
30
156.778763
0
3DFACE
8
0
70
0
10
-14.241541
20
126.872620
30
183.691391
11
-32.455162
21
130.001831
31
175.316635
12
-34.452160
22
126.778198
32
164.814590
13
-15.243168
23
118.716705
33
172.825165
0
3DFACE
8
0
70
0
10
-32.455162
20
130.001831
30
175.316635
11
-24.977959
21
147.210266
31
174.807907
12
-52.850117
22
130.745239
32
156.778763
13
-52.850117
23
130.745239
33
156.778763
0
3DFACE
8
0
70
0
10
-24.977959
20
147.210266
30
174.807907
11
-27.344149
21
150.158630
31
161.048126
12
-52.850117
22
130.745239
32
156.778763
13
-52.850117
23
130.745239
33
156.778763
0
3DFACE
8
0
70
0
10
-52.850117
20
130.745239
30
156.778763
11
-27.344149
21
150.158630
31
161.048126
12
-34.452160
22
126.778198
32
164.814590
13
-34.452160
23
126.778198
33
164.814590
0
3DFACE
8
0
70
0
10
-34.452160
20
126.778198
30
164.814590
11
-32.455162
21
130.001831
31
175.316635
12
-52.850117
22
130.745239
32
156.778763
13
-52.850117
23
130.745239
33
156.778763
0
3DFACE
8
0
70
0
10
-59.191269
20
207.611115
30
144.853317
11
-63.764683
21
192.884827
31
109.981750
12
-60.459145
22
192.317200
32
108.784416
13
-47.025730
23
193.852844
33
145.292694
0
3DFACE
8
0
70
0
10
-47.025730
20
193.852844
30
145.292694
11
-60.459145
21
192.317200
31
108.784416
12
-61.963554
22
185.058319
32
108.413704
13
-45.052979
23
181.897827
33
144.478531
0
3DFACE
8
0
70
0
10
-45.052979
20
181.897827
30
144.478531
11
-61.963554
21
185.058319
31
108.413704
12
-61.985336
22
171.704956
32
109.131653
13
-47.494747
23
168.894348
33
142.890839
0
3DFACE
8
0
70
0
10
-63.764683
20
192.884827
30
109.981750
11
-46.255070
21
182.157166
31
85.974564
12
-43.668941
22
191.183472
32
82.760498
13
-60.459145
23
192.317200
33
108.784416
0
3DFACE
8
0
70
0
10
-61.963554
20
185.058319
30
108.413704
11
-60.459145
21
192.317200
31
108.784416
12
-43.668941
22
191.183472
32
82.760498
13
-45.981304
23
191.984436
33
79.207718
0
3DFACE
8
0
70
0
10
-61.985336
20
171.704956
30
109.131653
11
-61.963554
21
185.058319
31
108.413704
12
-45.981304
22
191.984436
32
79.207718
13
-43.236526
23
180.520813
33
76.449379
0
3DFACE
8
0
70
0
10
-46.255070
20
182.157166
30
85.974564
11
-1.250556
21
175.743652
31
67.273582
12
-1.250555
22
191.695709
32
65.844055
13
-43.668941
23
191.183472
33
82.760498
0
3DFACE
8
0
70
0
10
-45.981304
20
191.984436
30
79.207718
11
-43.668941
21
191.183472
31
82.760498
12
-1.250555
22
191.695709
32
65.844055
13
-1.250555
23
193.565216
33
64.212982
0
3DFACE
8
0
70
0
10
-43.236526
20
180.520813
30
76.449379
11
-45.981304
21
191.984436
31
79.207718
12
-1.250555
22
193.565216
32
64.212982
13
-1.250555
23
179.612671
33
64.140762
0
3DFACE
8
0
70
0
10
-55.220440
20
133.169067
30
110.382294
11
-55.889790
21
137.068115
31
142.186356
12
-52.166565
22
148.606079
32
140.270615
13
-61.548981
23
150.131317
33
108.120865
0
3DFACE
8
0
70
0
10
-47.494747
20
168.894348
30
142.890839
11
-61.985336
21
171.704956
31
109.131653
12
-50.560822
22
159.489594
32
141.292389
13
-50.560822
23
159.489594
33
141.292389
0
3DFACE
8
0
70
0
10
-52.166565
20
148.606079
30
140.270615
11
-50.560822
21
159.489594
31
141.292389
12
-61.985336
22
171.704956
32
109.131653
13
-61.548981
23
150.131317
33
108.120865
0
3DFACE
8
0
70
0
10
-61.548981
20
150.131317
30
108.120865
11
-61.985336
21
171.704956
31
109.131653
12
-43.236526
22
180.520813
32
76.449379
13
-42.443810
23
162.322327
33
77.368782
0
3DFACE
8
0
70
0
10
-42.443810
20
162.322327
30
77.368782
11
-43.236526
21
180.520813
31
76.449379
12
-1.250555
22
179.612671
32
64.140762
13
-1.250554
23
161.871216
33
66.640167
0
3DFACE
8
0
70
0
10
-1.250555
20
221.614136
30
176.398972
11
-1.250553
21
249.195831
31
167.602081
12
-20.650152
22
248.538452
32
161.476151
13
-18.293325
23
228.768982
33
170.397110
0
3DFACE
8
0
70
0
10
-1.250553
20
249.195831
30
167.602081
11
-1.250553
21
251.631470
31
163.346130
12
-21.038816
22
249.625366
32
156.186813
13
-20.650152
23
248.538452
33
161.476151
0
3DFACE
8
0
70
0
10
-18.293325
20
228.768982
30
170.397110
11
-20.650152
21
248.538452
31
161.476151
12
-47.141472
22
243.544617
32
149.127716
13
-33.234062
23
218.218689
33
161.440826
0
3DFACE
8
0
70
0
10
-20.650152
20
248.538452
30
161.476151
11
-21.038816
21
249.625366
31
156.186813
12
-45.899120
22
245.108765
32
144.028870
13
-47.141472
23
243.544617
33
149.127716
0
3DFACE
8
0
70
0
10
-33.234062
20
218.218689
30
161.440826
11
-47.141472
21
243.544617
31
149.127716
12
-63.238335
22
228.733459
32
121.106590
13
-59.191269
23
207.611115
33
144.853317
0
3DFACE
8
0
70
0
10
-47.141472
20
243.544617
30
149.127716
11
-45.899120
21
245.108765
31
144.028870
12
-54.939651
22
232.364624
32
118.813957
13
-63.238335
23
228.733459
33
121.106590
0
3DFACE
8
0
70
0
10
-59.191269
20
207.611115
30
144.853317
11
-63.238335
21
228.733459
31
121.106590
12
-67.764023
22
220.926758
32
96.432106
13
-63.764683
23
192.884827
33
109.981750
0
3DFACE
8
0
70
0
10
-63.238335
20
228.733459
30
121.106590
11
-54.939651
21
232.364624
31
118.813957
12
-61.209595
22
223.930664
32
97.194717
13
-67.764023
23
220.926758
33
96.432106
0
3DFACE
8
0
70
0
10
-63.764683
20
192.884827
30
109.981750
11
-67.764023
21
220.926758
31
96.432106
12
-47.150398
22
208.195618
32
76.037682
13
-46.255070
23
182.157166
33
85.974564
0
3DFACE
8
0
70
0
10
-67.764023
20
220.926758
30
96.432106
11
-61.209595
21
223.930664
31
97.194717
12
-41.621681
22
213.309235
32
78.373283
13
-47.150398
23
208.195618
33
76.037682
0
3DFACE
8
0
70
0
10
-46.255070
20
182.157166
30
85.974564
11
-47.150398
21
208.195618
31
76.037682
12
-1.250555
22
199.712524
32
57.729824
13
-1.250556
23
175.743652
33
67.273582
0
3DFACE
8
0
70
0
10
-47.150398
20
208.195618
30
76.037682
11
-41.621681
21
213.309235
31
78.373283
12
-1.250555
22
204.563477
32
60.933243
13
-1.250555
23
199.712524
33
57.729824
0
3DFACE
8
0
70
0
10
-55.220440
20
133.169067
30
110.382294
11
-61.548981
21
150.131317
31
108.120865
12
-42.443810
22
162.322327
32
77.368782
13
-38.964668
23
145.402710
33
59.793129
0
3DFACE
8
0
70
0
10
-38.964668
20
145.402710
30
59.793129
11
-42.443810
21
162.322327
31
77.368782
12
-1.250554
22
161.871216
32
66.640167
13
-1.228616
23
157.418823
33
31.607481
0
3DFACE
8
0
70
0
10
-45.142368
20
101.945526
30
123.026787
11
-55.220440
21
133.169067
31
110.382294
12
-38.964668
22
145.402710
32
59.793129
13
-32.305893
23
114.996735
33
95.365669
0
3DFACE
8
0
70
0
10
-21.610588
20
72.616730
30
151.733688
11
-45.142368
21
101.945526
31
123.026787
12
-32.305893
22
114.996735
32
95.365669
13
-19.191643
23
75.050354
33
135.999039
0
3DFACE
8
0
70
0
10
-19.191643
20
75.050354
30
135.999039
11
-32.305893
21
114.996735
31
95.365669
12
-1.250553
22
98.176544
32
112.451416
13
-1.250553
23
73.897507
33
131.549591
0
3DFACE
8
0
70
0
10
-1.250553
20
59.819427
30
153.582489
11
-19.191643
21
75.050354
31
135.999039
12
-1.250553
22
73.897507
32
131.549591
13
-1.250553
23
73.897507
33
131.549591
0
3DFACE
8
0
70
0
10
-1.250553
20
59.819427
30
153.582489
11
-21.610588
21
72.616730
31
151.733688
12
-19.191643
22
75.050354
32
135.999039
13
-19.191643
23
75.050354
33
135.999039
0
3DFACE
8
0
70
0
10
-4.835609
20
181.129395
30
172.849472
11
-1.250555
21
180.531830
31
176.007370
12
-1.250555
22
197.282227
32
175.800644
13
-4.835609
23
190.284241
33
173.010849
0
3DFACE
8
0
70
0
10
-16.084127
20
179.609375
30
168.355774
11
-16.051235
21
177.194580
31
170.298355
12
-1.250555
22
180.531830
32
176.007370
13
-4.835609
23
181.129395
33
172.849472
0
3DFACE
8
0
70
0
10
-16.983484
20
198.783997
30
172.313324
11
-4.835609
21
190.284241
31
173.010849
12
-1.250555
22
197.282227
32
175.800644
13
-16.724636
23
205.543457
33
174.036530
0
3DFACE
8
0
70
0
10
-16.084127
20
179.609375
30
168.355774
11
-25.173615
21
181.097076
31
163.396851
12
-28.011086
22
179.157593
32
164.190170
13
-16.051235
23
177.194580
33
170.298355
0
3DFACE
8
0
70
0
10
-25.173615
20
181.097076
30
163.396851
11
-28.920616
21
191.542938
31
161.638687
12
-32.941353
22
197.648895
32
161.883392
13
-28.011086
23
179.157593
33
164.190170
0
3DFACE
8
0
70
0
10
-16.983484
20
198.783997
30
172.313324
11
-16.724636
21
205.543457
31
174.036530
12
-32.941353
22
197.648895
32
161.883392
13
-28.920616
23
191.542938
33
161.638687
0
3DFACE
8
0
70
0
10
15.134119
20
198.115112
30
172.037201
11
14.627247
21
204.747925
31
174.015823
12
-1.250555
22
197.282227
32
175.800644
13
2.787637
23
190.382996
33
173.203156
0
3DFACE
8
0
70
0
10
13.817105
20
179.069824
30
167.662170
11
2.787638
21
180.821411
31
173.196121
12
-1.250555
22
180.531830
32
176.007370
13
13.550124
23
177.194580
33
170.298355
0
3DFACE
8
0
70
0
10
2.787638
20
180.821411
30
173.196121
11
2.787637
21
190.382996
31
173.203156
12
-1.250555
22
197.282227
32
175.800644
13
-1.250555
23
180.531830
33
176.007370
0
3DFACE
8
0
70
0
10
15.134119
20
198.115112
30
172.037201
11
27.053463
21
191.936401
31
159.163422
12
31.312279
22
197.648895
32
161.883392
13
14.627247
23
204.747925
33
174.015823
0
3DFACE
8
0
70
0
10
23.379429
20
180.749725
30
161.522720
11
26.382013
21
179.157593
31
164.190170
12
31.312279
22
197.648895
32
161.883392
13
27.053463
23
191.936401
33
159.163422
0
3DFACE
8
0
70
0
10
13.817105
20
179.069824
30
167.662170
11
13.550124
21
177.194580
31
170.298355
12
26.382013
22
179.157593
32
164.190170
13
23.379429
23
180.749725
33
161.522720
0
3DFACE
8
0
70
0
10
-1.228616
20
157.418823
30
31.607481
11
36.519398
21
145.402710
31
59.793129
12
63.297588
22
145.347900
32
10.413271
13
-1.204486
23
158.834381
33
15.443084
0
3DFACE
8
0
70
0
10
-1.204486
20
158.834381
30
15.443084
11
-64.363396
21
144.122620
31
10.690969
12
-38.964668
22
145.402710
32
59.793129
13
-1.228616
23
157.418823
33
31.607481
0
3DFACE
8
0
70
0
10
-64.363396
20
144.122620
30
10.690969
11
-55.965126
21
110.056702
31
68.589661
12
-38.964668
22
145.402710
32
59.793129
13
-38.964668
23
145.402710
33
59.793129
0
3DFACE
8
0
70
0
10
-55.965126
20
110.056702
30
68.589661
11
-32.305893
21
114.996735
31
95.365669
12
-38.964668
22
145.402710
32
59.793129
13
-38.964668
23
145.402710
33
59.793129
0
3DFACE
8
0
70
0
10
53.584675
20
110.056702
30
68.589661
11
36.519398
21
145.402710
31
59.793129
12
29.881565
22
114.996735
32
95.365669
13
29.881565
23
114.996735
33
95.365669
0
3DFACE
8
0
70
0
10
63.297588
20
145.347900
30
10.413271
11
36.519398
21
145.402710
31
59.793129
12
53.584675
22
110.056702
32
68.589661
13
53.584675
23
110.056702
33
68.589661
0
3DFACE
8
0
70
0
10
-1.173774
20
105.380096
30
78.503799
11
-32.305893
21
114.996735
31
95.365669
12
-55.965126
22
110.056702
32
68.589661
13
-55.965126
23
110.056702
33
68.589661
0
3DFACE
8
0
70
0
10
-1.250553
20
98.176544
30
112.451416
11
-32.305893
21
114.996735
31
95.365669
12
-1.173774
22
105.380096
32
78.503799
13
-1.173774
23
105.380096
33
78.503799
0
3DFACE
8
0
70
0
10
-1.250553
20
98.176544
30
112.451416
11
-1.173774
21
105.380096
31
78.503799
12
29.881565
22
114.996735
32
95.365669
13
29.881565
23
114.996735
33
95.365669
0
3DFACE
8
0
70
0
10
-1.173774
20
105.380096
30
78.503799
11
53.584675
21
110.056702
31
68.589661
12
29.881565
22
114.996735
32
95.365669
13
29.881565
23
114.996735
33
95.365669
0
3DFACE
8
0
70
0
10
-1.250555
20
204.563477
30
60.933243
11
-1.278554
21
262.604126
31
76.464043
12
14.691634
22
267.228241
32
80.576324
13
39.120567
23
213.309235
33
78.373283
0
3DFACE
8
0
70
0
10
39.120567
20
213.309235
30
78.373283
11
14.691634
21
267.228241
31
80.576324
12
25.409304
22
274.092102
32
86.680420
13
58.708488
23
223.930664
33
97.194717
0
3DFACE
8
0
70
0
10
58.708488
20
223.930664
30
97.194717
11
25.409304
21
274.092102
31
86.680420
12
22.956942
22
281.113770
32
92.924873
13
52.438553
23
232.364624
33
118.813965
0
3DFACE
8
0
70
0
10
52.438553
20
232.364624
30
118.813965
11
22.956942
21
281.113770
31
92.924873
12
20.278316
22
289.818604
32
100.666168
13
43.398022
23
245.108765
33
144.028870
0
3DFACE
8
0
70
0
10
-1.250553
20
251.631470
30
163.346130
11
18.537706
21
249.625366
31
156.186813
12
8.347959
22
294.044891
32
104.424690
13
-1.278548
23
296.511383
33
106.618156
0
3DFACE
8
0
70
0
10
-1.250555
20
204.563477
30
60.933243
11
-41.621681
21
213.309235
31
78.373283
12
-17.248741
22
267.228241
32
80.576324
13
-1.278554
23
262.604126
33
76.464043
0
3DFACE
8
0
70
0
10
-41.621681
20
213.309235
30
78.373283
11
-61.209595
21
223.930664
31
97.194717
12
-27.966400
22
274.092102
32
86.680412
13
-17.248741
23
267.228241
33
80.576324
0
3DFACE
8
0
70
0
10
-61.209595
20
223.930664
30
97.194717
11
-54.939651
21
232.364624
31
118.813957
12
-25.514042
22
281.113770
32
92.924873
13
-27.966400
23
274.092102
33
86.680412
0
3DFACE
8
0
70
0
10
-54.939651
20
232.364624
30
118.813957
11
-45.899120
21
245.108765
31
144.028870
12
-22.835415
22
289.818604
32
100.666161
13
-25.514042
23
281.113770
33
92.924873
0
3DFACE
8
0
70
0
10
-1.250553
20
251.631470
30
163.346130
11
-1.278548
21
296.511383
31
106.618156
12
-10.905056
22
294.044922
32
104.424683
13
-21.038816
23
249.625366
33
156.186813
0
3DFACE
8
0
70
0
10
43.398022
20
245.108765
30
144.028870
11
20.278316
21
289.818604
31
100.666168
12
8.347959
22
294.044891
32
104.424690
13
18.537706
23
249.625366
33
156.186813
0
3DFACE
8
0
70
0
10
-45.899120
20
245.108765
30
144.028870
11
-21.038816
21
249.625366
31
156.186813
12
-10.905056
22
294.044922
32
104.424683
13
-22.835415
23
289.818604
33
100.666161
0
3DFACE
8
0
70
0
10
-1.320389
20
300.384338
30
35.419628
11
12.288535
21
294.279083
31
28.039923
12
-1.320386
22
294.174866
32
20.576353
13
-1.320386
23
294.174866
33
20.576353
0
3DFACE
8
0
70
0
10
12.288532
20
294.487518
30
42.966934
11
12.288535
21
294.279083
31
28.039923
12
-1.320389
22
300.384338
32
35.419628
13
-1.320389
23
300.384338
33
35.419628
0
3DFACE
8
0
70
0
10
-1.320393
20
294.591736
30
50.430435
11
12.288532
21
294.487518
31
42.966934
12
-1.320389
22
300.384338
32
35.419628
13
-1.320389
23
300.384338
33
35.419628
0
3DFACE
8
0
70
0
10
-1.320393
20
294.591736
30
50.430435
11
-1.320389
21
300.384338
31
35.419628
12
-14.929281
22
294.487518
32
42.966927
13
-14.929281
23
294.487518
33
42.966927
0
3DFACE
8
0
70
0
10
-14.929281
20
294.487518
30
42.966927
11
-1.320389
21
300.384338
31
35.419628
12
-14.929278
22
294.279083
32
28.039917
13
-14.929278
23
294.279083
33
28.039917
0
3DFACE
8
0
70
0
10
-1.320389
20
300.384338
30
35.419628
11
-1.320386
21
294.174866
31
20.576353
12
-14.929278
22
294.279083
32
28.039917
13
-14.929278
23
294.279083
33
28.039917
0
3DFACE
8
0
70
0
10
12.288535
20
294.279083
30
28.039923
11
17.925507
21
279.748108
31
25.150669
12
-1.320385
22
279.600739
32
14.595663
13
-1.320386
23
294.174866
33
20.576353
0
3DFACE
8
0
70
0
10
17.925503
20
280.042877
30
46.260731
11
17.925507
21
279.748108
31
25.150669
12
12.288535
22
294.279083
32
28.039923
13
12.288532
23
294.487518
33
42.966934
0
3DFACE
8
0
70
0
10
-1.320395
20
280.190277
30
56.815697
11
17.925503
21
280.042877
31
46.260731
12
12.288532
22
294.487518
32
42.966934
13
-1.320393
23
294.591736
33
50.430435
0
3DFACE
8
0
70
0
10
-1.320395
20
280.190277
30
56.815697
11
-1.320393
21
294.591736
31
50.430435
12
-14.929281
22
294.487518
32
42.966927
13
-20.566290
23
280.042908
33
46.260723
0
3DFACE
8
0
70
0
10
-20.566290
20
280.042908
30
46.260723
11
-14.929281
21
294.487518
31
42.966927
12
-14.929278
22
294.279083
32
28.039917
13
-20.566286
23
279.748138
33
25.150661
0
3DFACE
8
0
70
0
10
-14.929278
20
294.279083
30
28.039917
11
-1.320386
21
294.174866
31
20.576353
12
-1.320385
22
279.600739
32
14.595663
13
-20.566286
23
279.748138
33
25.150661
0
3DFACE
8
0
70
0
10
12.288533
20
265.303497
30
28.444527
11
-1.320386
21
265.199280
31
20.980957
12
-1.320385
22
279.600739
32
14.595663
13
17.925507
23
279.748108
33
25.150669
0
3DFACE
8
0
70
0
10
17.925503
20
280.042877
30
46.260731
11
12.288529
21
265.511932
31
43.371536
12
12.288533
22
265.303497
32
28.444527
13
17.925507
23
279.748108
33
25.150669
0
3DFACE
8
0
70
0
10
-1.320395
20
280.190277
30
56.815697
11
-1.320393
21
265.616150
31
50.835041
12
12.288529
22
265.511932
32
43.371536
13
17.925503
23
280.042877
33
46.260731
0
3DFACE
8
0
70
0
10
-1.320395
20
280.190277
30
56.815697
11
-20.566290
21
280.042908
31
46.260723
12
-14.929282
22
265.511963
32
43.371532
13
-1.320393
23
265.616150
33
50.835041
0
3DFACE
8
0
70
0
10
-20.566290
20
280.042908
30
46.260723
11
-20.566286
21
279.748138
31
25.150661
12
-14.929278
22
265.303528
32
28.444521
13
-14.929282
23
265.511963
33
43.371532
0
3DFACE
8
0
70
0
10
-14.929278
20
265.303528
30
28.444521
11
-20.566286
21
279.748138
31
25.150661
12
-1.320385
22
279.600739
32
14.595663
13
-1.320386
23
265.199280
33
20.980957
0
3DFACE
8
0
70
0
10
-1.320399
20
259.406677
30
35.991825
11
-1.320386
21
265.199280
31
20.980957
12
12.288533
22
265.303497
32
28.444527
13
12.288533
23
265.303497
33
28.444527
0
3DFACE
8
0
70
0
10
12.288529
20
265.511932
30
43.371536
11
-1.320399
21
259.406677
31
35.991825
12
12.288533
22
265.303497
32
28.444527
13
12.288533
23
265.303497
33
28.444527
0
3DFACE
8
0
70
0
10
-1.320393
20
265.616150
30
50.835041
11
-1.320399
21
259.406677
31
35.991825
12
12.288529
22
265.511932
32
43.371536
13
12.288529
23
265.511932
33
43.371536
0
3DFACE
8
0
70
0
10
-1.320393
20
265.616150
30
50.835041
11
-14.929282
21
265.511963
31
43.371532
12
-1.320399
22
259.406677
32
35.991825
13
-1.320399
23
259.406677
33
35.991825
0
3DFACE
8
0
70
0
10
-14.929282
20
265.511963
30
43.371532
11
-14.929278
21
265.303528
31
28.444521
12
-1.320399
22
259.406677
32
35.991825
13
-1.320399
23
259.406677
33
35.991825
0
3DFACE
8
0
70
0
10
-1.320399
20
259.406677
30
35.991825
11
-14.929278
21
265.303528
31
28.444521
12
-1.320386
22
265.199280
32
20.980957
13
-1.320386
23
265.199280
33
20.980957
0
3DFACE
8
0
70
0
10
24.843042
20
150.158630
30
161.048126
11
48.059715
21
159.489594
31
141.292389
12
36.339661
22
165.534424
32
165.882004
13
36.339661
23
165.534424
33
165.882004
0
3DFACE
8
0
70
0
10
48.059715
20
159.489594
30
141.292389
11
44.993641
21
168.894348
31
142.890839
12
36.339661
22
165.534424
32
165.882004
13
36.339661
23
165.534424
33
165.882004
0
3DFACE
8
0
70
0
10
10.215907
20
146.906311
30
166.628067
11
24.843042
21
150.158630
31
161.048126
12
21.707903
22
165.353851
32
168.914932
13
21.707903
23
165.353851
33
168.914932
0
3DFACE
8
0
70
0
10
24.843042
20
150.158630
30
161.048126
11
36.339661
21
165.534424
31
165.882004
12
21.707903
22
165.353851
32
168.914932
13
21.707903
23
165.353851
33
168.914932
0
3DFACE
8
0
70
0
10
36.339661
20
165.534424
30
165.882004
11
44.993641
21
168.894348
31
142.890839
12
26.382013
22
179.157593
32
164.190170
13
26.382013
23
179.157593
33
164.190170
0
3DFACE
8
0
70
0
10
44.993641
20
168.894348
30
142.890839
11
42.551865
21
181.897827
31
144.478531
12
26.382013
22
179.157593
32
164.190170
13
26.382013
23
179.157593
33
164.190170
0
3DFACE
8
0
70
0
10
21.707903
20
165.353851
30
168.914932
11
26.382013
21
179.157593
31
164.190170
12
13.550124
22
177.194580
32
170.298355
13
13.550124
23
177.194580
33
170.298355
0
3DFACE
8
0
70
0
10
36.339661
20
165.534424
30
165.882004
11
26.382013
21
179.157593
31
164.190170
12
21.707903
22
165.353851
32
168.914932
13
21.707903
23
165.353851
33
168.914932
0
3DFACE
8
0
70
0
10
26.382013
20
179.157593
30
164.190170
11
42.551865
21
181.897827
31
144.478531
12
31.312279
22
197.648895
32
161.883392
13
31.312279
23
197.648895
33
161.883392
0
3DFACE
8
0
70
0
10
42.551865
20
181.897827
30
144.478531
11
44.524620
21
193.852844
31
145.292694
12
31.312279
22
197.648895
32
161.883392
13
31.312279
23
197.648895
33
161.883392
0
3DFACE
8
0
70
0
10
-50.560822
20
159.489594
30
141.292389
11
-38.840771
21
165.534424
31
165.882004
12
-47.494747
22
168.894348
32
142.890839
13
-47.494747
23
168.894348
33
142.890839
0
3DFACE
8
0
70
0
10
-27.344149
20
150.158630
30
161.048126
11
-38.840771
21
165.534424
31
165.882004
12
-50.560822
22
159.489594
32
141.292389
13
-50.560822
23
159.489594
33
141.292389
0
3DFACE
8
0
70
0
10
-27.344149
20
150.158630
30
161.048126
11
-24.209009
21
165.353851
31
168.914932
12
-38.840771
22
165.534424
32
165.882004
13
-38.840771
23
165.534424
33
165.882004
0
3DFACE
8
0
70
0
10
-12.717014
20
146.906311
30
166.628067
11
-24.209009
21
165.353851
31
168.914932
12
-27.344149
22
150.158630
32
161.048126
13
-27.344149
23
150.158630
33
161.048126
0
3DFACE
8
0
70
0
10
-47.494747
20
168.894348
30
142.890839
11
-28.011086
21
179.157593
31
164.190170
12
-45.052979
22
181.897827
32
144.478531
13
-45.052979
23
181.897827
33
144.478531
0
3DFACE
8
0
70
0
10
-38.840771
20
165.534424
30
165.882004
11
-28.011086
21
179.157593
31
164.190170
12
-47.494747
22
168.894348
32
142.890839
13
-47.494747
23
168.894348
33
142.890839
0
3DFACE
8
0
70
0
10
-24.209009
20
165.353851
30
168.914932
11
-16.051235
21
177.194580
31
170.298355
12
-28.011086
22
179.157593
32
164.190170
13
-28.011086
23
179.157593
33
164.190170
0
3DFACE
8
0
70
0
10
-38.840771
20
165.534424
30
165.882004
11
-24.209009
21
165.353851
31
168.914932
12
-28.011086
22
179.157593
32
164.190170
13
-28.011086
23
179.157593
33
164.190170
0
3DFACE
8
0
70
0
10
-45.052979
20
181.897827
30
144.478531
11
-32.941353
21
197.648895
31
161.883392
12
-47.025730
22
193.852844
32
145.292694
13
-47.025730
23
193.852844
33
145.292694
0
3DFACE
8
0
70
0
10
-28.011086
20
179.157593
30
164.190170
11
-32.941353
21
197.648895
31
161.883392
12
-45.052979
22
181.897827
32
144.478531
13
-45.052979
23
181.897827
33
144.478531
0
3DFACE
8
0
70
0
10
34.594860
20
-70.586823
30
40.276855
11
30.102339
21
-51.826645
31
21.326633
12
21.931183
22
-62.847626
32
-4.545407
13
21.931183
23
-62.847626
33
-4.545407
0
3DFACE
8
0
70
0
10
34.594860
20
-70.586823
30
40.276855
11
21.931183
21
-62.847626
31
-4.545407
12
26.346102
22
-77.283691
32
16.110800
13
26.346102
23
-77.283691
33
16.110800
0
3DFACE
8
0
70
0
10
34.594860
20
-70.586823
30
40.276855
11
71.903633
21
-53.718445
31
10.952107
12
30.102339
22
-51.826645
32
21.326633
13
30.102339
23
-51.826645
33
21.326633
0
3DFACE
8
0
70
0
10
34.594860
20
-70.586823
30
40.276855
11
70.413223
21
-72.076935
31
30.783318
12
71.903633
22
-53.718445
32
10.952107
13
71.903633
23
-53.718445
33
10.952107
0
3DFACE
8
0
70
0
10
70.413223
20
-72.076935
30
30.783318
11
82.297119
21
-60.082375
31
-6.062803
12
71.903633
22
-53.718445
32
10.952107
13
71.903633
23
-53.718445
33
10.952107
0
3DFACE
8
0
70
0
10
70.413223
20
-72.076935
30
30.783318
11
79.264114
21
-76.049316
31
14.946240
12
82.297119
22
-60.082375
32
-6.062803
13
82.297119
23
-60.082375
33
-6.062803
0
3DFACE
8
0
70
0
10
33.890808
20
-83.892487
30
-9.452144
11
21.931183
21
-62.847626
31
-4.545407
12
29.518084
22
-73.605591
32
-31.937408
13
29.518084
23
-73.605591
33
-31.937408
0
3DFACE
8
0
70
0
10
26.346102
20
-77.283691
30
16.110800
11
21.931183
21
-62.847626
31
-4.545407
12
33.890808
22
-83.892487
32
-9.452144
13
33.890808
23
-83.892487
33
-9.452144
0
3DFACE
8
0
70
0
10
69.955589
20
-80.725616
30
-1.540534
11
71.523872
21
-67.874756
31
-23.669525
12
82.297119
22
-60.082375
32
-6.062803
13
82.297119
23
-60.082375
33
-6.062803
0
3DFACE
8
0
70
0
10
79.264114
20
-76.049316
30
14.946240
11
69.955589
21
-80.725616
31
-1.540534
12
82.297119
22
-60.082375
32
-6.062803
13
82.297119
23
-60.082375
33
-6.062803
0
3DFACE
8
0
70
0
10
33.890808
20
-83.892487
30
-9.452144
11
29.518084
21
-73.605591
31
-31.937408
12
71.523872
22
-67.874756
32
-23.669525
13
71.523872
23
-67.874756
33
-23.669525
0
3DFACE
8
0
70
0
10
69.955589
20
-80.725616
30
-1.540534
11
33.890808
21
-83.892487
31
-9.452144
12
71.523872
22
-67.874756
32
-23.669525
13
71.523872
23
-67.874756
33
-23.669525
0
3DFACE
8
0
70
0
10
-36.915760
20
-70.508675
30
40.187904
11
-28.670147
21
-77.198830
31
16.019512
12
-24.263027
22
-62.674774
32
-4.645929
13
-24.263027
23
-62.674774
33
-4.645929
0
3DFACE
8
0
70
0
10
-36.915760
20
-70.508675
30
40.187904
11
-24.263027
21
-62.674774
31
-4.645929
12
-32.432190
22
-51.661758
32
21.229177
13
-32.432190
23
-51.661758
33
21.229177
0
3DFACE
8
0
70
0
10
-36.915760
20
-70.508675
30
40.187904
11
-32.432190
21
-51.661758
31
21.229177
12
-74.235184
22
-53.567932
32
10.863010
13
-74.235184
23
-53.567932
33
10.863010
0
3DFACE
8
0
70
0
10
-36.915760
20
-70.508675
30
40.187904
11
-74.235184
21
-53.567932
31
10.863010
12
-72.735771
22
-72.011101
32
30.701567
13
-72.735771
23
-72.011101
33
30.701567
0
3DFACE
8
0
70
0
10
-72.735771
20
-72.011101
30
30.701567
11
-74.235184
21
-53.567932
31
10.863010
12
-84.630295
22
-59.932770
32
-6.150561
13
-84.630295
23
-59.932770
33
-6.150561
0
3DFACE
8
0
70
0
10
-72.735771
20
-72.011101
30
30.701567
11
-84.630295
21
-59.932770
31
-6.150561
12
-81.588875
22
-75.984528
32
14.865921
13
-81.588875
23
-75.984528
33
14.865921
0
3DFACE
8
0
70
0
10
-36.218346
20
-83.806740
30
-9.542522
11
-31.852367
21
-73.430626
31
-32.037724
12
-24.263027
22
-62.674774
32
-4.645929
13
-24.263027
23
-62.674774
33
-4.645929
0
3DFACE
8
0
70
0
10
-28.670147
20
-77.198830
30
16.019512
11
-36.218346
21
-83.806740
31
-9.542522
12
-24.263027
22
-62.674774
32
-4.645929
13
-24.263027
23
-62.674774
33
-4.645929
0
3DFACE
8
0
70
0
10
-81.588875
20
-75.984528
30
14.865921
11
-84.630295
21
-59.932770
31
-6.150561
12
-72.282448
22
-80.654839
32
-1.623212
13
-72.282448
23
-80.654839
33
-1.623212
0
3DFACE
8
0
70
0
10
-72.282448
20
-80.654839
30
-1.623212
11
-84.630295
21
-59.932770
31
-6.150561
12
-73.858299
22
-67.717697
32
-23.760475
13
-73.858299
23
-67.717697
33
-23.760475
0
3DFACE
8
0
70
0
10
-72.282448
20
-80.654839
30
-1.623212
11
-73.858299
21
-67.717697
31
-23.760475
12
-36.218346
22
-83.806740
32
-9.542522
13
-36.218346
23
-83.806740
33
-9.542522
0
3DFACE
8
0
70
0
10
-36.218346
20
-83.806740
30
-9.542522
11
-73.858299
21
-67.717697
31
-23.760475
12
-31.852367
22
-73.430626
32
-32.037724
13
-31.852367
23
-73.430626
33
-32.037724
0
3DFACE
8
0
70
0
10
34.725014
20
-96.577606
30
23.254316
11
34.594860
21
-70.586823
31
40.276855
12
26.346102
22
-77.283691
32
16.110800
13
26.346102
23
-77.283691
33
16.110800
0
3DFACE
8
0
70
0
10
27.364504
20
-124.745110
30
-4.376705
11
34.725014
21
-96.577606
31
23.254316
12
26.346102
22
-77.283691
32
16.110800
13
26.346102
23
-77.283691
33
16.110800
0
3DFACE
8
0
70
0
10
68.965515
20
-102.827003
30
12.776235
11
70.413223
21
-72.076935
31
30.783318
12
34.725014
22
-96.577606
32
23.254316
13
34.725014
23
-96.577606
33
23.254316
0
3DFACE
8
0
70
0
10
34.725014
20
-96.577606
30
23.254316
11
70.413223
21
-72.076935
31
30.783318
12
34.594860
22
-70.586823
32
40.276855
13
34.594860
23
-70.586823
33
40.276855
0
3DFACE
8
0
70
0
10
77.247742
20
-124.710686
30
-5.123849
11
79.264114
21
-76.049316
31
14.946240
12
68.965515
22
-102.827003
32
12.776235
13
68.965515
23
-102.827003
33
12.776235
0
3DFACE
8
0
70
0
10
68.965515
20
-102.827003
30
12.776235
11
79.264114
21
-76.049316
31
14.946240
12
70.413223
22
-72.076935
32
30.783318
13
70.413223
23
-72.076935
33
30.783318
0
3DFACE
8
0
70
0
10
27.364504
20
-124.745110
30
-4.376705
11
26.346102
21
-77.283691
31
16.110800
12
33.890808
22
-83.892487
32
-9.452144
13
33.890808
23
-83.892487
33
-9.452144
0
3DFACE
8
0
70
0
10
10.427520
20
-154.643036
30
-33.619328
11
27.364504
21
-124.745110
31
-4.376705
12
33.890808
22
-83.892487
32
-9.452144
13
33.890808
23
-83.892487
33
-9.452144
0
3DFACE
8
0
70
0
10
84.009804
20
-153.353943
30
-32.817715
11
69.955589
21
-80.725616
31
-1.540534
12
77.247742
22
-124.710686
32
-5.123849
13
77.247742
23
-124.710686
33
-5.123849
0
3DFACE
8
0
70
0
10
77.247742
20
-124.710686
30
-5.123849
11
69.955589
21
-80.725616
31
-1.540534
12
79.264114
22
-76.049316
32
14.946240
13
79.264114
23
-76.049316
33
14.946240
0
3DFACE
8
0
70
0
10
10.427520
20
-154.643036
30
-33.619328
11
33.890808
21
-83.892487
31
-9.452144
12
84.009804
22
-153.353943
32
-32.817715
13
84.009804
23
-153.353943
33
-32.817715
0
3DFACE
8
0
70
0
10
84.009804
20
-153.353943
30
-32.817715
11
33.890808
21
-83.892487
31
-9.452144
12
69.955589
22
-80.725616
32
-1.540534
13
69.955589
23
-80.725616
33
-1.540534
0
3DFACE
8
0
70
0
10
-29.716351
20
-124.780815
30
-4.447455
11
-28.670147
21
-77.198830
31
16.019512
12
-37.079815
22
-96.815125
32
23.354525
13
-37.079815
23
-96.815125
33
23.354525
0
3DFACE
8
0
70
0
10
-37.079815
20
-96.815125
30
23.354525
11
-28.670147
21
-77.198830
31
16.019512
12
-36.915760
22
-70.508675
32
40.187904
13
-36.915760
23
-70.508675
33
40.187904
0
3DFACE
8
0
70
0
10
-37.079815
20
-96.815125
30
23.354525
11
-36.915760
21
-70.508675
31
40.187904
12
-72.735771
22
-72.011101
32
30.701567
13
-72.735771
23
-72.011101
33
30.701567
0
3DFACE
8
0
70
0
10
-71.320465
20
-103.003586
30
12.847329
11
-37.079815
21
-96.815125
31
23.354525
12
-72.735771
22
-72.011101
32
30.701567
13
-72.735771
23
-72.011101
33
30.701567
0
3DFACE
8
0
70
0
10
-71.320465
20
-103.003586
30
12.847329
11
-72.735771
21
-72.011101
31
30.701567
12
-81.588875
22
-75.984528
32
14.865921
13
-81.588875
23
-75.984528
33
14.865921
0
3DFACE
8
0
70
0
10
-79.599777
20
-124.761185
30
-5.186560
11
-71.320465
21
-103.003586
31
12.847329
12
-81.588875
22
-75.984528
32
14.865921
13
-81.588875
23
-75.984528
33
14.865921
0
3DFACE
8
0
70
0
10
-12.776203
20
-154.461456
30
-33.872925
11
-36.218346
21
-83.806740
31
-9.542522
12
-29.716351
22
-124.780815
32
-4.447455
13
-29.716351
23
-124.780815
33
-4.447455
0
3DFACE
8
0
70
0
10
-29.716351
20
-124.780815
30
-4.447455
11
-36.218346
21
-83.806740
31
-9.542522
12
-28.670147
22
-77.198830
32
16.019512
13
-28.670147
23
-77.198830
33
16.019512
0
3DFACE
8
0
70
0
10
-79.599777
20
-124.761185
30
-5.186560
11
-81.588875
21
-75.984528
31
14.865921
12
-72.282448
22
-80.654839
32
-1.623212
13
-72.282448
23
-80.654839
33
-1.623212
0
3DFACE
8
0
70
0
10
-86.358788
20
-153.207779
30
-33.052563
11
-79.599777
21
-124.761185
31
-5.186560
12
-72.282448
22
-80.654839
32
-1.623212
13
-72.282448
23
-80.654839
33
-1.623212
0
3DFACE
8
0
70
0
10
-86.358788
20
-153.207779
30
-33.052563
11
-72.282448
21
-80.654839
31
-1.623212
12
-36.218346
22
-83.806740
32
-9.542522
13
-36.218346
23
-83.806740
33
-9.542522
0
3DFACE
8
0
70
0
10
-12.776203
20
-154.461456
30
-33.872925
11
-86.358788
21
-153.207779
31
-33.052563
12
-36.218346
22
-83.806740
32
-9.542522
13
-36.218346
23
-83.806740
33
-9.542522
0
3DFACE
8
0
70
0
10
99.973991
20
5.493103
30
75.620949
11
-1.173773
21
19.985382
31
119.083397
12
-1.173772
22
3.863892
32
105.768867
13
-1.173772
23
3.863892
33
105.768867
0
3DFACE
8
0
70
0
10
99.973991
20
5.493103
30
75.620949
11
100.884438
21
36.831039
31
90.842140
12
-1.173773
22
19.985382
32
119.083397
13
-1.173773
23
19.985382
33
119.083397
0
3DFACE
8
0
70
0
10
99.973991
20
14.121750
30
-78.939377
11
-1.188086
21
16.073547
31
-109.066399
12
-1.173772
22
47.692505
32
-97.675400
13
-1.173772
23
47.692505
33
-97.675400
0
3DFACE
8
0
70
0
10
99.973991
20
14.121750
30
-78.939377
11
-1.173772
21
47.692505
31
-97.675400
12
100.884438
22
45.440292
32
-63.370804
13
100.884438
23
45.440292
33
-63.370804
0
3DFACE
8
0
70
0
10
99.973991
20
5.493103
30
75.620949
11
125.486366
21
41.616440
31
5.123831
12
100.884438
22
36.831039
32
90.842140
13
100.884438
23
36.831039
33
90.842140
0
3DFACE
8
0
70
0
10
99.973991
20
5.493103
30
75.620949
11
124.363838
21
9.690826
31
0.429443
12
125.486366
22
41.616440
32
5.123831
13
125.486366
23
41.616440
33
5.123831
0
3DFACE
8
0
70
0
10
124.363838
20
9.690826
30
0.429443
11
99.973991
21
14.121750
31
-78.939377
12
100.884438
22
45.440292
32
-63.370804
13
100.884438
23
45.440292
33
-63.370804
0
3DFACE
8
0
70
0
10
124.363838
20
9.690826
30
0.429443
11
100.884438
21
45.440292
31
-63.370804
12
125.486366
22
41.616440
32
5.123831
13
125.486366
23
41.616440
33
5.123831
0
3DFACE
8
0
70
0
10
-102.321548
20
5.493103
30
75.620949
11
-1.173772
21
3.863892
31
105.768867
12
-1.173773
22
19.985382
32
119.083397
13
-1.173773
23
19.985382
33
119.083397
0
3DFACE
8
0
70
0
10
-102.321548
20
5.493103
30
75.620949
11
-1.173773
21
19.985382
31
119.083397
12
-103.231987
22
36.831039
32
90.842140
13
-103.231987
23
36.831039
33
90.842140
0
3DFACE
8
0
70
0
10
-102.321541
20
14.121750
30
-78.939377
11
-1.173772
21
47.692505
31
-97.675400
12
-1.188086
22
16.073547
32
-109.066399
13
-1.188086
23
16.073547
33
-109.066399
0
3DFACE
8
0
70
0
10
-102.321541
20
14.121750
30
-78.939377
11
-103.231987
21
45.440292
31
-63.370796
12
-1.173772
22
47.692505
32
-97.675400
13
-1.173772
23
47.692505
33
-97.675400
0
3DFACE
8
0
70
0
10
-102.321548
20
5.493103
30
75.620949
11
-127.833923
21
41.616440
31
5.123833
12
-126.711380
22
9.690826
32
0.429445
13
-126.711380
23
9.690826
33
0.429445
0
3DFACE
8
0
70
0
10
-102.321548
20
5.493103
30
75.620949
11
-103.231987
21
36.831039
31
90.842140
12
-127.833923
22
41.616440
32
5.123833
13
-127.833923
23
41.616440
33
5.123833
0
3DFACE
8
0
70
0
10
-126.711380
20
9.690826
30
0.429445
11
-127.833923
21
41.616440
31
5.123833
12
-103.231987
22
45.440292
32
-63.370796
13
-103.231987
23
45.440292
33
-63.370796
0
3DFACE
8
0
70
0
10
-126.711380
20
9.690826
30
0.429445
11
-103.231987
21
45.440292
31
-63.370796
12
-102.321541
22
14.121750
32
-78.939377
13
-102.321541
23
14.121750
33
-78.939377
0
3DFACE
8
0
70
0
10
-1.173773
20
19.985382
30
119.083397
11
53.584675
21
110.056702
31
68.589661
12
-1.173774
22
105.380096
32
78.503799
13
-1.173774
23
105.380096
33
78.503799
0
3DFACE
8
0
70
0
10
-1.173773
20
19.985382
30
119.083397
11
100.884438
21
36.831039
31
90.842140
12
53.584675
22
110.056702
32
68.589661
13
53.584675
23
110.056702
33
68.589661
0
3DFACE
8
0
70
0
10
100.884438
20
45.440292
30
-63.370804
11
-1.173772
21
47.692505
31
-97.675400
12
53.713791
22
135.016479
32
-26.143009
13
53.713791
23
135.016479
33
-26.143009
0
3DFACE
8
0
70
0
10
-1.173772
20
47.692505
30
-97.675400
11
-1.207897
21
140.388245
31
-37.698700
12
53.713791
22
135.016479
32
-26.143009
13
53.713791
23
135.016479
33
-26.143009
0
3DFACE
8
0
70
0
10
100.884438
20
36.831039
30
90.842140
11
88.623535
21
90.425125
31
6.919257
12
68.042160
22
115.493469
32
49.894779
13
68.042160
23
115.493469
33
49.894779
0
3DFACE
8
0
70
0
10
100.884438
20
36.831039
30
90.842140
11
125.486366
21
41.616440
31
5.123831
12
88.623535
22
90.425125
32
6.919257
13
88.623535
23
90.425125
33
6.919257
0
3DFACE
8
0
70
0
10
100.884438
20
45.440292
30
-63.370804
11
80.884331
21
120.174377
31
-25.769972
12
88.623535
22
90.425125
32
6.919257
13
88.623535
23
90.425125
33
6.919257
0
3DFACE
8
0
70
0
10
125.486366
20
41.616440
30
5.123831
11
100.884438
21
45.440292
31
-63.370804
12
88.623535
22
90.425125
32
6.919257
13
88.623535
23
90.425125
33
6.919257
0
3DFACE
8
0
70
0
10
100.884438
20
36.831039
30
90.842140
11
68.042160
21
115.493469
31
49.894779
12
53.584675
22
110.056702
32
68.589661
13
53.584675
23
110.056702
33
68.589661
0
3DFACE
8
0
70
0
10
100.884438
20
45.440292
30
-63.370804
11
53.713791
21
135.016479
31
-26.143009
12
80.884331
22
120.174377
32
-25.769972
13
80.884331
23
120.174377
33
-25.769972
0
3DFACE
8
0
70
0
10
-1.173773
20
19.985382
30
119.083397
11
-55.965126
21
110.056702
31
68.589661
12
-103.231987
22
36.831039
32
90.842140
13
-103.231987
23
36.831039
33
90.842140
0
3DFACE
8
0
70
0
10
-1.173773
20
19.985382
30
119.083397
11
-1.173774
21
105.380096
31
78.503799
12
-55.965126
22
110.056702
32
68.589661
13
-55.965126
23
110.056702
33
68.589661
0
3DFACE
8
0
70
0
10
-103.231987
20
45.440292
30
-63.370796
11
-56.103218
21
135.016479
31
-26.143007
12
-1.173772
22
47.692505
32
-97.675400
13
-1.173772
23
47.692505
33
-97.675400
0
3DFACE
8
0
70
0
10
-1.173772
20
47.692505
30
-97.675400
11
-56.103218
21
135.016479
31
-26.143007
12
-1.207897
22
140.388245
32
-37.698700
13
-1.207897
23
140.388245
33
-37.698700
0
3DFACE
8
0
70
0
10
-103.231987
20
36.831039
30
90.842140
11
-67.862389
21
110.417480
31
46.630215
12
-93.585457
22
88.889435
32
4.790177
13
-93.585457
23
88.889435
33
4.790177
0
3DFACE
8
0
70
0
10
-103.231987
20
36.831039
30
90.842140
11
-93.585457
21
88.889435
31
4.790177
12
-127.833923
22
41.616440
32
5.123833
13
-127.833923
23
41.616440
33
5.123833
0
3DFACE
8
0
70
0
10
-127.833923
20
41.616440
30
5.123833
11
-93.585457
21
88.889435
31
4.790177
12
-103.231987
22
45.440292
32
-63.370796
13
-103.231987
23
45.440292
33
-63.370796
0
3DFACE
8
0
70
0
10
-103.231987
20
45.440292
30
-63.370796
11
-93.585457
21
88.889435
31
4.790177
12
-85.830681
22
121.202423
32
-24.917387
13
-85.830681
23
121.202423
33
-24.917387
0
3DFACE
8
0
70
0
10
-103.231987
20
36.831039
30
90.842140
11
-55.965126
21
110.056702
31
68.589661
12
-67.862389
22
110.417480
32
46.630215
13
-67.862389
23
110.417480
33
46.630215
0
3DFACE
8
0
70
0
10
-103.231987
20
45.440292
30
-63.370796
11
-85.830681
21
121.202423
31
-24.917387
12
-56.103218
22
135.016479
32
-26.143007
13
-56.103218
23
135.016479
33
-26.143007
0
3DFACE
8
0
70
0
10
88.623535
20
90.425125
30
6.919257
11
92.897171
21
67.467911
31
52.139282
12
68.042160
22
115.493469
32
49.894779
13
68.042160
23
115.493469
33
49.894779
0
3DFACE
8
0
70
0
10
103.616676
20
37.346329
30
17.681055
11
92.897171
21
67.467911
31
52.139282
12
88.623535
22
90.425125
32
6.919257
13
88.623535
23
90.425125
33
6.919257
0
3DFACE
8
0
70
0
10
68.042160
20
115.493469
30
49.894779
11
142.597626
21
72.997711
31
39.103031
12
63.297588
22
145.347900
32
10.413271
13
63.297588
23
145.347900
33
10.413271
0
3DFACE
8
0
70
0
10
68.042160
20
115.493469
30
49.894779
11
92.897171
21
67.467911
31
52.139282
12
142.597626
22
72.997711
32
39.103031
13
142.597626
23
72.997711
33
39.103031
0
3DFACE
8
0
70
0
10
80.884331
20
120.174377
30
-25.769972
11
63.297588
21
145.347900
31
10.413271
12
142.597626
22
72.997711
32
39.103031
13
142.597626
23
72.997711
33
39.103031
0
3DFACE
8
0
70
0
10
80.884331
20
120.174377
30
-25.769972
11
142.597626
21
72.997711
31
39.103031
12
146.128265
22
43.729370
32
8.201050
13
146.128265
23
43.729370
33
8.201050
0
3DFACE
8
0
70
0
10
88.623535
20
90.425125
30
6.919257
11
80.884331
21
120.174377
31
-25.769972
12
146.128265
22
43.729370
32
8.201050
13
146.128265
23
43.729370
33
8.201050
0
3DFACE
8
0
70
0
10
103.616676
20
37.346329
30
17.681055
11
88.623535
21
90.425125
31
6.919257
12
146.128265
22
43.729370
32
8.201050
13
146.128265
23
43.729370
33
8.201050
0
3DFACE
8
0
70
0
10
-93.585457
20
88.889435
30
4.790177
11
-67.862389
21
110.417480
31
46.630215
12
-95.617393
22
60.285141
32
49.779804
13
-95.617393
23
60.285141
33
49.779804
0
3DFACE
8
0
70
0
10
-119.337830
20
38.918030
30
16.000574
11
-93.585457
21
88.889435
31
4.790177
12
-95.617393
22
60.285141
32
49.779804
13
-95.617393
23
60.285141
33
49.779804
0
3DFACE
8
0
70
0
10
-67.862389
20
110.417480
30
46.630215
11
-64.363396
21
144.122620
31
10.690969
12
-143.586792
22
77.980179
32
49.693771
13
-143.586792
23
77.980179
33
49.693771
0
3DFACE
8
0
70
0
10
-67.862389
20
110.417480
30
46.630215
11
-143.586792
21
77.980179
31
49.693771
12
-95.617393
22
60.285141
32
49.779804
13
-95.617393
23
60.285141
33
49.779804
0
3DFACE
8
0
70
0
10
-85.830681
20
121.202423
30
-24.917387
11
-143.586792
21
77.980179
31
49.693771
12
-64.363396
22
144.122620
32
10.690969
13
-64.363396
23
144.122620
33
10.690969
0
3DFACE
8
0
70
0
10
-85.830681
20
121.202423
30
-24.917387
11
-159.662720
21
55.383057
31
17.709221
12
-143.586792
22
77.980179
32
49.693771
13
-143.586792
23
77.980179
33
49.693771
0
3DFACE
8
0
70
0
10
-93.585457
20
88.889435
30
4.790177
11
-159.662720
21
55.383057
31
17.709221
12
-85.830681
22
121.202423
32
-24.917387
13
-85.830681
23
121.202423
33
-24.917387
0
3DFACE
8
0
70
0
10
-119.337830
20
38.918030
30
16.000574
11
-159.662720
21
55.383057
31
17.709221
12
-93.585457
22
88.889435
32
4.790177
13
-93.585457
23
88.889435
33
4.790177
0
3DFACE
8
0
70
0
10
-132.729263
20
2.964264
30
43.983749
11
-119.337830
21
38.918030
31
16.000574
12
-95.617393
22
60.285141
32
49.779804
13
-95.617393
23
60.285141
33
49.779804
0
3DFACE
8
0
70
0
10
-132.729263
20
2.964264
30
43.983749
11
-95.617393
21
60.285141
31
49.779804
12
-106.799675
22
33.622726
32
71.372292
13
-106.799675
23
33.622726
33
71.372292
0
3DFACE
8
0
70
0
10
-106.799675
20
33.622726
30
71.372292
11
-95.617393
21
60.285141
31
49.779804
12
-143.586792
22
77.980179
32
49.693771
13
-143.586792
23
77.980179
33
49.693771
0
3DFACE
8
0
70
0
10
-106.799675
20
33.622726
30
71.372292
11
-143.586792
21
77.980179
31
49.693771
12
-158.516785
22
38.941406
32
82.342941
13
-158.516785
23
38.941406
33
82.342941
0
3DFACE
8
0
70
0
10
-176.303101
20
9.403748
30
55.159615
11
-158.516785
21
38.941406
31
82.342941
12
-143.586792
22
77.980179
32
49.693771
13
-143.586792
23
77.980179
33
49.693771
0
3DFACE
8
0
70
0
10
-176.303101
20
9.403748
30
55.159615
11
-143.586792
21
77.980179
31
49.693771
12
-159.662720
22
55.383057
32
17.709221
13
-159.662720
23
55.383057
33
17.709221
0
3DFACE
8
0
70
0
10
-132.729263
20
2.964264
30
43.983749
11
-176.303101
21
9.403748
31
55.159615
12
-159.662720
22
55.383057
32
17.709221
13
-159.662720
23
55.383057
33
17.709221
0
3DFACE
8
0
70
0
10
-132.729263
20
2.964264
30
43.983749
11
-159.662720
21
55.383057
31
17.709221
12
-119.337830
22
38.918030
32
16.000574
13
-119.337830
23
38.918030
33
16.000574
0
3DFACE
8
0
70
0
10
113.866829
20
3.378128
30
48.995026
11
92.897171
21
67.467911
31
52.139282
12
103.616676
22
37.346329
32
17.681055
13
103.616676
23
37.346329
33
17.681055
0
3DFACE
8
0
70
0
10
113.866829
20
3.378128
30
48.995026
11
101.782494
21
43.696182
31
73.302216
12
92.897171
22
67.467911
32
52.139282
13
92.897171
23
67.467911
33
52.139282
0
3DFACE
8
0
70
0
10
101.782494
20
43.696182
30
73.302216
11
142.597626
21
72.997711
31
39.103031
12
92.897171
22
67.467911
32
52.139282
13
92.897171
23
67.467911
33
52.139282
0
3DFACE
8
0
70
0
10
101.782494
20
43.696182
30
73.302216
11
154.355911
21
36.330536
31
75.557251
12
142.597626
22
72.997711
32
39.103031
13
142.597626
23
72.997711
33
39.103031
0
3DFACE
8
0
70
0
10
159.000946
20
-0.675583
30
52.389790
11
146.128265
21
43.729370
31
8.201050
12
142.597626
22
72.997711
32
39.103031
13
142.597626
23
72.997711
33
39.103031
0
3DFACE
8
0
70
0
10
159.000946
20
-0.675583
30
52.389790
11
142.597626
21
72.997711
31
39.103031
12
154.355911
22
36.330536
32
75.557251
13
154.355911
23
36.330536
33
75.557251
0
3DFACE
8
0
70
0
10
113.866829
20
3.378128
30
48.995026
11
103.616676
21
37.346329
31
17.681055
12
146.128265
22
43.729370
32
8.201050
13
146.128265
23
43.729370
33
8.201050
0
3DFACE
8
0
70
0
10
113.866829
20
3.378128
30
48.995026
11
146.128265
21
43.729370
31
8.201050
12
159.000946
22
-0.675583
32
52.389790
13
159.000946
23
-0.675583
33
52.389790
0
3DFACE
8
0
70
0
10
-5.802033
20
274.981476
30
44.889702
11
-1.330382
21
272.612793
31
44.910023
12
-1.278554
22
262.604126
32
76.464043
13
-17.248741
23
267.228241
33
80.576324
0
3DFACE
8
0
70
0
10
3.141271
20
274.981476
30
44.889706
11
14.691634
21
267.228241
31
80.576324
12
-1.278554
22
262.604126
32
76.464043
13
-1.330382
23
272.612793
33
44.910023
0
3DFACE
8
0
70
0
10
6.142219
20
278.497467
30
44.859501
11
25.409304
21
274.092102
31
86.680420
12
14.691634
22
267.228241
32
80.576324
13
3.141271
23
274.981476
33
44.889706
0
3DFACE
8
0
70
0
10
5.455558
20
282.094299
30
44.828629
11
22.956942
21
281.113770
31
92.924873
12
25.409304
22
274.092102
32
86.680420
13
6.142219
23
278.497467
33
44.859501
0
3DFACE
8
0
70
0
10
4.705544
20
286.553314
30
44.790352
11
20.278316
21
289.818604
31
100.666168
12
22.956942
22
281.113770
32
92.924873
13
5.455558
23
282.094299
33
44.828629
0
3DFACE
8
0
70
0
10
1.365044
20
288.718231
30
44.771782
11
8.347959
21
294.044891
31
104.424690
12
20.278316
22
289.818604
32
100.666168
13
4.705544
23
286.553314
33
44.790352
0
3DFACE
8
0
70
0
10
-1.330378
20
289.981689
30
44.760944
11
-1.278548
21
296.511383
31
106.618156
12
8.347959
22
294.044891
32
104.424690
13
1.365044
23
288.718231
33
44.771782
0
3DFACE
8
0
70
0
10
-1.330378
20
289.981689
30
44.760944
11
-4.025801
21
288.718231
31
44.771778
12
-10.905056
22
294.044922
32
104.424683
13
-1.278548
23
296.511383
33
106.618156
0
3DFACE
8
0
70
0
10
-4.025801
20
288.718231
30
44.771778
11
-7.366302
21
286.553314
31
44.790348
12
-22.835415
22
289.818604
32
100.666161
13
-10.905056
23
294.044922
33
104.424683
0
3DFACE
8
0
70
0
10
-7.366302
20
286.553314
30
44.790348
11
-8.116318
21
282.094299
31
44.828625
12
-25.514042
22
281.113770
32
92.924873
13
-22.835415
23
289.818604
33
100.666161
0
3DFACE
8
0
70
0
10
-8.116318
20
282.094299
30
44.828625
11
-8.802978
21
278.497467
31
44.859497
12
-27.966400
22
274.092102
32
86.680412
13
-25.514042
23
281.113770
33
92.924873
0
3DFACE
8
0
70
0
10
-8.802978
20
278.497467
30
44.859497
11
-5.802033
21
274.981476
31
44.889702
12
-17.248741
22
267.228241
32
80.576324
13
-27.966400
23
274.092102
33
86.680412
0
ENDSEC
0
EOF
