0
SECTION
2
HEADER
999
DXF File Generated by LightWave 3D(TM)
0
ENDSEC
0
SECTION
2
TABLES
0
ENDSEC
0
SECTION
2
BLOCKS
0
ENDSEC
0
SECTION
2
ENTITIES
0
3DFACE
8
0
70
0
10
-1.927172
20
-34.049866
30
87.926689
11
28.847660
21
-50.321510
31
65.198715
12
73.350937
22
-49.399490
32
42.979256
13
68.015938
23
-32.778229
33
63.089790
0
3DFACE
8
0
70
0
10
68.015938
20
-30.561325
30
-60.893707
11
73.929291
21
-44.629066
31
-40.624607
12
29.737434
22
-42.982399
32
-63.422619
13
-1.927172
23
-30.918701
33
-87.188301
0
3DFACE
8
0
70
0
10
-1.927172
20
-40.854767
30
109.516266
11
-1.927172
21
-34.049866
31
87.926689
12
68.015938
22
-32.778229
32
63.089790
13
90.552238
23
-39.423889
33
78.903618
0
3DFACE
8
0
70
0
10
90.552238
20
-36.618332
30
-78.001396
11
68.015938
21
-30.561325
31
-60.893707
12
-1.927172
22
-30.918701
32
-87.188301
13
-1.927172
23
-36.955048
33
-108.581703
0
3DFACE
8
0
70
0
10
-1.927171
20
-37.739777
30
121.977699
11
96.159805
21
-36.266876
31
87.388054
12
111.436371
22
13.888962
32
86.470825
13
-1.927171
23
13.311371
33
121.044106
0
3DFACE
8
0
70
0
10
96.159805
20
-33.096596
30
-89.914604
11
-1.927172
21
-33.333084
31
-124.473000
12
-1.927094
22
17.716110
32
-125.406319
13
111.436371
23
17.059250
33
-90.831833
0
3DFACE
8
0
70
0
10
-1.927171
20
13.311371
30
121.044106
11
111.436371
21
13.888962
31
86.470825
12
104.987679
22
15.132889
32
77.905914
13
-1.927171
23
14.636017
33
108.501472
0
3DFACE
8
0
70
0
10
-1.927171
20
-37.739777
30
121.977699
11
-1.927172
21
-40.854767
31
109.516266
12
90.552238
22
-39.423889
32
78.903618
13
96.159805
23
-36.266876
33
87.388054
0
3DFACE
8
0
70
0
10
111.436371
20
17.059250
30
-90.831833
11
-1.927094
21
17.716110
31
-125.406319
12
-1.922106
22
18.464081
32
-109.586929
13
104.987679
23
17.938446
33
-78.999100
0
3DFACE
8
0
70
0
10
96.159805
20
-33.096596
30
-89.914604
11
90.552238
21
-36.618332
31
-78.001396
12
-1.927172
22
-36.955048
32
-108.581703
13
-1.927172
23
-33.333084
33
-124.473000
0
3DFACE
8
0
70
0
10
27.673773
20
-119.444244
30
102.617195
11
74.813721
21
-119.444244
31
102.617195
12
66.977409
22
-98.812729
32
87.801697
13
33.987896
23
-98.998032
33
87.801697
0
3DFACE
8
0
70
0
10
68.015938
20
-32.778229
30
63.089790
11
73.350937
21
-49.399490
31
42.979256
12
84.794838
22
-50.813797
32
2.524062
13
84.799652
23
-31.694038
33
2.455058
0
3DFACE
8
0
70
0
10
90.552238
20
-39.423889
30
78.903618
11
68.015938
21
-32.778229
31
63.089790
12
84.799652
22
-31.694038
32
2.455058
13
112.970032
23
-38.059021
33
2.571458
0
3DFACE
8
0
70
0
10
111.436371
20
13.888962
30
86.470825
11
96.159805
21
-36.266876
31
87.388054
12
119.979477
22
-34.749222
32
2.510930
13
138.829010
23
15.406616
33
1.593704
0
3DFACE
8
0
70
0
10
138.829010
20
15.406616
30
1.593704
11
130.768143
21
16.497757
31
1.573750
12
104.987679
22
15.132889
32
77.905914
13
111.436371
23
13.888962
33
86.470825
0
3DFACE
8
0
70
0
10
96.159805
20
-36.266876
30
87.388054
11
90.552238
21
-39.423889
31
78.903618
12
112.970032
22
-38.059021
32
2.571458
13
119.979477
23
-34.749222
33
2.510930
0
3DFACE
8
0
70
0
10
12.906889
20
-152.844193
30
102.617195
11
80.090286
21
-153.029510
31
102.617195
12
74.813721
22
-119.444244
32
102.617195
13
27.673773
23
-119.444244
33
102.617195
0
3DFACE
8
0
70
0
10
-0.962973
20
157.340271
30
-0.303575
11
65.915291
21
144.641724
31
0.594694
12
55.239754
22
133.536987
32
-41.984444
13
-1.268180
23
138.404419
33
-50.673580
0
3DFACE
8
0
70
0
10
84.799652
20
-31.694038
30
2.455058
11
84.794838
21
-50.813797
31
2.524062
12
73.929291
22
-44.629066
32
-40.624607
13
68.015938
23
-30.561325
33
-60.893707
0
3DFACE
8
0
70
0
10
112.970032
20
-38.059021
30
2.571458
11
84.799652
21
-31.694038
31
2.455058
12
68.015938
22
-30.561325
32
-60.893707
13
90.552238
23
-36.618332
33
-78.001396
0
3DFACE
8
0
70
0
10
119.979477
20
-34.749222
30
2.510930
11
96.159805
21
-33.096596
31
-89.914604
12
111.436371
22
17.059250
32
-90.831833
13
138.829010
23
15.406616
33
1.593704
0
3DFACE
8
0
70
0
10
111.436371
20
17.059250
30
-90.831833
11
104.987679
21
17.938446
31
-78.999100
12
130.768143
22
16.497757
32
1.573750
13
138.829010
23
15.406616
33
1.593704
0
3DFACE
8
0
70
0
10
119.979477
20
-34.749222
30
2.510930
11
112.970032
21
-38.059021
31
2.571458
12
90.552238
22
-36.618332
32
-78.001396
13
96.159805
23
-33.096596
33
-89.914604
0
3DFACE
8
0
70
0
10
28.866865
20
-62.634239
30
27.130060
11
28.847660
21
-50.321510
31
65.198715
12
20.908062
22
-50.291840
32
2.107331
13
20.755999
23
-60.739281
33
-0.006101
0
3DFACE
8
0
70
0
10
28.866865
20
-62.634239
30
27.130060
11
73.297363
21
-62.440086
31
17.813663
12
73.350937
22
-49.399490
32
42.979256
13
28.847660
23
-50.321510
33
65.198715
0
3DFACE
8
0
70
0
10
73.297363
20
-62.440086
30
17.813663
11
84.641670
21
-61.391724
31
0.514812
12
84.794838
22
-50.813797
32
2.524062
13
73.350937
23
-49.399490
33
42.979256
0
3DFACE
8
0
70
0
10
20.755999
20
-60.739281
30
-0.006101
11
20.908062
21
-50.291840
31
2.107331
12
29.737434
22
-42.982399
32
-63.422619
13
29.345118
23
-58.936775
33
-28.172729
0
3DFACE
8
0
70
0
10
84.641670
20
-61.391724
30
0.514812
11
73.608223
21
-60.036736
31
-18.133150
12
73.929291
22
-44.629066
32
-40.624607
13
84.794838
23
-50.813797
33
2.524062
0
3DFACE
8
0
70
0
10
73.608223
20
-60.036736
30
-18.133150
11
29.345118
21
-58.936775
31
-28.172729
12
29.737434
22
-42.982399
32
-63.422619
13
73.929291
23
-44.629066
33
-40.624607
0
3DFACE
8
0
70
0
10
25.449350
20
-125.331673
30
-5.674515
11
27.673773
21
-127.827744
31
43.725594
12
33.987896
22
-108.736435
32
35.947453
13
32.705616
23
-101.959900
33
22.278912
0
3DFACE
8
0
70
0
10
32.705616
20
-101.959900
30
22.278912
11
33.987896
21
-108.736435
31
35.947453
12
66.977409
22
-112.334427
32
35.947453
13
68.678246
23
-106.827919
33
12.514832
0
3DFACE
8
0
70
0
10
77.593941
20
-125.529755
30
-5.329916
11
68.678246
21
-106.827919
31
12.514832
12
66.977409
22
-112.334427
32
35.947453
13
74.813721
23
-127.827744
33
43.725594
0
3DFACE
8
0
70
0
10
8.210526
20
-150.090546
30
-35.459000
11
16.610764
21
-150.617310
31
32.613968
12
27.673773
22
-127.827744
32
43.725594
13
25.449350
23
-125.331673
33
-5.674515
0
3DFACE
8
0
70
0
10
85.094376
20
-149.440567
30
-33.039974
11
77.593941
21
-125.529755
31
-5.329916
12
74.813721
22
-127.827744
32
43.725594
13
83.794151
23
-150.723206
33
36.317848
0
3DFACE
8
0
70
0
10
85.094376
20
-149.440567
30
-33.039974
11
83.794151
21
-150.723206
31
36.317848
12
16.610764
22
-150.617310
32
32.613968
13
8.210526
23
-150.090546
33
-35.459000
0
3DFACE
8
0
70
0
10
27.673773
20
-119.444244
30
102.617195
11
33.987896
21
-98.998032
31
87.801697
12
33.987896
22
-108.736435
32
35.947453
13
27.673773
23
-127.827744
33
43.725594
0
3DFACE
8
0
70
0
10
33.987896
20
-98.998032
30
87.801697
11
66.977409
21
-98.812729
31
87.801697
12
66.977409
22
-112.334427
32
35.947453
13
33.987896
23
-108.736435
33
35.947453
0
3DFACE
8
0
70
0
10
74.813721
20
-119.444244
30
102.617195
11
74.813721
21
-127.827744
31
43.725594
12
66.977409
22
-112.334427
32
35.947453
13
66.977409
23
-98.812729
33
87.801697
0
3DFACE
8
0
70
0
10
12.906889
20
-152.844193
30
102.617195
11
27.673773
21
-119.444244
31
102.617195
12
27.673773
22
-127.827744
32
43.725594
13
16.610764
23
-150.617310
33
32.613968
0
3DFACE
8
0
70
0
10
80.090286
20
-153.029510
30
102.617195
11
83.794151
21
-150.723206
31
36.317848
12
74.813721
22
-127.827744
32
43.725594
13
74.813721
23
-119.444244
33
102.617195
0
3DFACE
8
0
70
0
10
80.090286
20
-153.029510
30
102.617195
11
12.906889
21
-152.844193
31
102.617195
12
16.610764
22
-150.617310
32
32.613968
13
83.794151
23
-150.723206
33
36.317848
0
3DFACE
8
0
70
0
10
106.782074
20
-19.958969
30
169.077911
11
123.466751
21
-28.681122
31
155.191040
12
128.435654
22
-13.947861
32
170.481415
13
111.078339
23
-1.665161
33
173.667419
0
3DFACE
8
0
70
0
10
74.980942
20
122.867889
30
-33.576927
11
55.239754
21
133.536987
31
-41.984444
12
65.915291
22
144.641724
32
0.594694
13
65.915291
23
144.641724
33
0.594694
0
3DFACE
8
0
70
0
10
79.264038
20
112.739380
30
42.389793
11
65.915291
21
144.641724
31
0.594694
12
55.285446
22
112.275513
32
55.623241
13
55.285446
23
112.275513
33
55.623241
0
3DFACE
8
0
70
0
10
104.238548
20
61.956497
30
22.788406
11
100.331902
21
14.291183
31
14.118170
12
98.285980
22
6.522476
32
49.416168
13
104.597763
23
54.818390
33
58.194275
0
3DFACE
8
0
70
0
10
152.599457
20
40.325974
30
18.708511
11
104.238548
21
61.956497
31
22.788406
12
104.597763
22
54.818390
32
58.194275
13
154.202423
23
34.770996
33
54.399117
0
3DFACE
8
0
70
0
10
142.428329
20
-7.809891
30
46.677769
11
142.732376
21
-1.769791
31
11.069991
12
152.599457
22
40.325974
32
18.708511
13
154.202423
23
34.770996
33
54.399117
0
3DFACE
8
0
70
0
10
100.331902
20
14.291183
30
14.118170
11
142.732376
21
-1.769791
31
11.069991
12
142.428329
22
-7.809891
32
46.677769
13
98.285980
23
6.522476
33
49.416168
0
3DFACE
8
0
70
0
10
88.518860
20
0.431686
30
48.335129
11
85.801544
21
-7.359634
31
81.494850
12
99.083328
22
58.510880
32
92.540962
13
98.685768
23
65.255981
33
60.112465
0
3DFACE
8
0
70
0
10
98.685768
20
65.255981
30
60.112465
11
99.083328
21
58.510880
31
92.540962
12
168.062561
22
35.274094
32
87.303345
13
166.103271
23
39.927917
33
55.303860
0
3DFACE
8
0
70
0
10
148.216919
20
-22.829483
30
77.583557
11
148.622116
21
-17.413361
31
44.910675
12
166.103271
22
39.927917
32
55.303860
13
168.062561
23
35.274094
33
87.303345
0
3DFACE
8
0
70
0
10
88.518860
20
0.431686
30
48.335129
11
148.622116
21
-17.413361
31
44.910675
12
148.216919
22
-22.829483
32
77.583557
13
85.801544
23
-7.359634
33
81.494850
0
3DFACE
8
0
70
0
10
88.518860
20
0.431686
30
48.335129
11
98.685768
21
65.255981
31
60.112465
12
104.597763
22
54.818390
32
58.194275
13
98.285980
23
6.522476
33
49.416168
0
3DFACE
8
0
70
0
10
85.801544
20
-7.359634
30
81.494850
11
96.359146
21
-0.794159
31
82.660042
12
104.927094
22
48.273132
32
90.659355
13
99.083328
23
58.510880
33
92.540962
0
3DFACE
8
0
70
0
10
98.685768
20
65.255981
30
60.112465
11
166.103271
21
39.927917
31
55.303860
12
154.202423
22
34.770996
32
54.399117
13
104.597763
23
54.818390
33
58.194275
0
3DFACE
8
0
70
0
10
99.083328
20
58.510880
30
92.540962
11
104.927094
21
48.273132
31
90.659355
12
155.637039
22
29.799210
32
86.342232
13
168.062561
23
35.274094
33
87.303345
0
3DFACE
8
0
70
0
10
148.216919
20
-22.829483
30
77.583557
11
168.062561
21
35.274094
31
87.303345
12
155.637039
22
29.799210
32
86.342232
13
142.149506
23
-13.348343
33
79.327988
0
3DFACE
8
0
70
0
10
148.622116
20
-17.413361
30
44.910675
11
142.428329
21
-7.809891
31
46.677769
12
154.202423
22
34.770996
32
54.399117
13
166.103271
23
39.927917
33
55.303860
0
3DFACE
8
0
70
0
10
85.801544
20
-7.359634
30
81.494850
11
148.216919
21
-22.829483
31
77.583557
12
142.149506
22
-13.348343
32
79.327988
13
96.359146
23
-0.794159
33
82.660042
0
3DFACE
8
0
70
0
10
88.518860
20
0.431686
30
48.335129
11
98.285980
21
6.522476
31
49.416168
12
142.428329
22
-7.809891
32
46.677769
13
148.622116
23
-17.413361
33
44.910675
0
3DFACE
8
0
70
0
10
104.760208
20
5.497543
30
70.373955
11
114.055725
21
35.760040
31
78.827492
12
104.927094
22
48.273132
32
90.659355
13
96.359146
23
-0.794159
33
82.660042
0
3DFACE
8
0
70
0
10
114.055725
20
35.760040
30
78.827492
11
144.098175
21
17.749313
31
74.940117
12
155.637039
22
29.799210
32
86.342232
13
104.927094
23
48.273132
33
90.659355
0
3DFACE
8
0
70
0
10
132.228607
20
-8.112000
30
67.463036
11
142.149506
21
-13.348343
31
79.327988
12
155.637039
22
29.799210
32
86.342232
13
144.098175
23
17.749313
33
74.940117
0
3DFACE
8
0
70
0
10
104.760208
20
5.497543
30
70.373955
11
96.359146
21
-0.794159
31
82.660042
12
142.149506
22
-13.348343
32
79.327988
13
132.228607
23
-8.112000
33
67.463036
0
3DFACE
8
0
70
0
10
90.743835
20
39.820068
30
129.379822
11
100.792816
21
44.051117
31
130.705322
12
102.027428
22
47.674454
32
118.323990
13
91.938324
23
43.550995
33
117.004761
0
3DFACE
8
0
70
0
10
100.792816
20
44.051117
30
130.705322
11
111.487907
21
47.706253
31
131.948303
12
112.674507
22
51.436035
32
119.613686
13
102.027428
23
47.674454
33
118.323990
0
3DFACE
8
0
70
0
10
134.779816
20
-28.891113
30
96.237366
11
132.228607
21
-8.112000
31
67.463036
12
144.098175
22
17.749313
32
74.940117
13
143.285873
23
5.111221
33
105.774277
0
3DFACE
8
0
70
0
10
103.520149
20
-6.152603
30
101.568504
11
104.760208
21
5.497543
31
70.373955
12
132.228607
22
-8.112000
32
67.463036
13
134.779816
23
-28.891113
33
96.237366
0
3DFACE
8
0
70
0
10
106.782074
20
-19.958969
30
169.077911
11
111.078339
21
-1.665161
31
173.667419
12
111.317863
22
23.894165
32
125.215080
13
103.520149
23
-6.152603
33
101.568504
0
3DFACE
8
0
70
0
10
111.078339
20
-1.665161
30
173.667419
11
128.435654
21
-13.947861
31
170.481415
12
143.285873
22
5.111221
32
105.774277
13
111.317863
23
23.894165
33
125.215080
0
3DFACE
8
0
70
0
10
123.466751
20
-28.681122
30
155.191040
11
134.779816
21
-28.891113
31
96.237366
12
143.285873
22
5.111221
32
105.774277
13
128.435654
23
-13.947861
33
170.481415
0
3DFACE
8
0
70
0
10
106.782074
20
-19.958969
30
169.077911
11
103.520149
21
-6.152603
31
101.568504
12
134.779816
22
-28.891113
32
96.237366
13
123.466751
23
-28.681122
33
155.191040
0
3DFACE
8
0
70
0
10
90.743835
20
39.820068
30
129.379822
11
91.938324
21
43.550995
31
117.004761
12
104.760208
22
5.497543
32
70.373955
13
103.520149
23
-6.152603
33
101.568504
0
3DFACE
8
0
70
0
10
91.938324
20
43.550995
30
117.004761
11
102.027428
21
47.674454
31
118.323990
12
114.055725
22
35.760040
32
78.827492
13
104.760208
23
5.497543
33
70.373955
0
3DFACE
8
0
70
0
10
90.743835
20
39.820068
30
129.379822
11
103.520149
21
-6.152603
31
101.568504
12
111.317863
22
23.894165
32
125.215080
13
100.792816
23
44.051117
33
130.705322
0
3DFACE
8
0
70
0
10
102.027428
20
47.674454
30
118.323990
11
112.674507
21
51.436035
31
119.613686
12
144.098175
22
17.749313
32
74.940117
13
114.055725
23
35.760040
33
78.827492
0
3DFACE
8
0
70
0
10
111.487907
20
47.706253
30
131.948303
11
143.285873
21
5.111221
31
105.774277
12
144.098175
22
17.749313
32
74.940117
13
112.674507
23
51.436035
33
119.613686
0
3DFACE
8
0
70
0
10
100.792816
20
44.051117
30
130.705322
11
111.317863
21
23.894165
31
125.215080
12
143.285873
22
5.111221
32
105.774277
13
111.487907
23
47.706253
33
131.948303
0
3DFACE
8
0
70
0
10
-1.927172
20
-34.049866
30
87.926689
11
-71.870277
21
-32.778229
31
63.089790
12
-77.220078
22
-49.281937
32
43.018311
13
-32.721638
23
-50.162552
33
65.247124
0
3DFACE
8
0
70
0
10
-71.870277
20
-30.561325
30
-60.893707
11
-1.927172
21
-30.918701
31
-87.188301
12
-33.583794
22
-43.124641
32
-63.376064
13
-77.780479
23
-44.707291
33
-40.586758
0
3DFACE
8
0
70
0
10
-1.927172
20
-40.854767
30
109.516266
11
-94.406586
21
-39.423889
31
78.903618
12
-71.870277
22
-32.778229
32
63.089790
13
-1.927172
23
-34.049866
33
87.926689
0
3DFACE
8
0
70
0
10
-94.406586
20
-36.618332
30
-78.001396
11
-1.927172
21
-36.955048
31
-108.581703
12
-1.927172
22
-30.918701
32
-87.188301
13
-71.870277
23
-30.561325
33
-60.893707
0
3DFACE
8
0
70
0
10
-1.927171
20
-37.739777
30
121.977699
11
-1.927171
21
13.311371
31
121.044106
12
-115.290718
22
13.888962
32
86.470825
13
-100.014145
23
-36.266876
33
87.388054
0
3DFACE
8
0
70
0
10
-100.014145
20
-33.096596
30
-89.914604
11
-115.290718
21
17.059250
31
-90.831833
12
-1.927094
22
17.716110
32
-125.406319
13
-1.927172
23
-33.333084
33
-124.473000
0
3DFACE
8
0
70
0
10
-1.927171
20
13.311371
30
121.044106
11
-1.927171
21
14.636017
31
108.501472
12
-108.842026
22
15.132889
32
77.905914
13
-115.290718
23
13.888962
33
86.470825
0
3DFACE
8
0
70
0
10
-1.927171
20
-37.739777
30
121.977699
11
-100.014145
21
-36.266876
31
87.388054
12
-94.406586
22
-39.423889
32
78.903618
13
-1.927172
23
-40.854767
33
109.516266
0
3DFACE
8
0
70
0
10
-115.290718
20
17.059250
30
-90.831833
11
-108.842026
21
17.938446
31
-78.999100
12
-1.922106
22
18.464081
32
-109.586929
13
-1.927094
23
17.716110
33
-125.406319
0
3DFACE
8
0
70
0
10
-100.014145
20
-33.096596
30
-89.914604
11
-1.927172
21
-33.333084
31
-124.473000
12
-1.927172
22
-36.955048
32
-108.581703
13
-94.406586
23
-36.618332
33
-78.001396
0
3DFACE
8
0
70
0
10
-31.473774
20
-119.444244
30
102.617195
11
-37.787899
21
-98.998032
31
87.801697
12
-70.777412
22
-98.812729
32
87.801697
13
-78.613716
23
-119.444244
33
102.617195
0
3DFACE
8
0
70
0
10
-71.870277
20
-32.778229
30
63.089790
11
-88.653992
21
-31.694038
31
2.455057
12
-88.656235
22
-50.788475
32
2.569170
13
-77.220078
23
-49.281937
33
43.018311
0
3DFACE
8
0
70
0
10
-94.406586
20
-39.423889
30
78.903618
11
-116.824379
21
-38.059021
31
2.571457
12
-88.653992
22
-31.694038
32
2.455057
13
-71.870277
23
-32.778229
33
63.089790
0
3DFACE
8
0
70
0
10
-115.290718
20
13.888962
30
86.470825
11
-142.683350
21
15.406616
31
1.593703
12
-123.833817
22
-34.749222
32
2.510929
13
-100.014145
23
-36.266876
33
87.388054
0
3DFACE
8
0
70
0
10
-142.683350
20
15.406616
30
1.593703
11
-115.290718
21
13.888962
31
86.470825
12
-108.842026
22
15.132889
32
77.905914
13
-134.622482
23
16.497742
33
1.573749
0
3DFACE
8
0
70
0
10
-100.014145
20
-36.266876
30
87.388054
11
-123.833817
21
-34.749222
31
2.510929
12
-116.824379
22
-38.059021
32
2.571457
13
-94.406586
23
-39.423889
33
78.903618
0
3DFACE
8
0
70
0
10
-16.706890
20
-152.844193
30
102.617195
11
-31.473774
21
-119.444244
31
102.617195
12
-78.613716
22
-119.444244
32
102.617195
13
-83.890282
23
-153.029510
33
102.617195
0
3DFACE
8
0
70
0
10
-0.962973
20
157.340271
30
-0.303575
11
-1.268180
21
138.404419
31
-50.673580
12
-58.338932
22
134.391907
32
-42.120823
13
-67.259155
23
145.164856
33
1.311036
0
3DFACE
8
0
70
0
10
-88.653992
20
-31.694038
30
2.455057
11
-71.870277
21
-30.561325
31
-60.893707
12
-77.780479
22
-44.707291
32
-40.586758
13
-88.656235
23
-50.788475
33
2.569170
0
3DFACE
8
0
70
0
10
-116.824379
20
-38.059021
30
2.571457
11
-94.406586
21
-36.618332
31
-78.001396
12
-71.870277
22
-30.561325
32
-60.893707
13
-88.653992
23
-31.694038
33
2.455057
0
3DFACE
8
0
70
0
10
-123.833817
20
-34.749222
30
2.510929
11
-142.683350
21
15.406616
31
1.593703
12
-115.290718
22
17.059250
32
-90.831833
13
-100.014145
23
-33.096596
33
-89.914604
0
3DFACE
8
0
70
0
10
-115.290718
20
17.059250
30
-90.831833
11
-142.683350
21
15.406616
31
1.593703
12
-134.622482
22
16.497742
32
1.573749
13
-108.842026
23
17.938446
33
-78.999100
0
3DFACE
8
0
70
0
10
-123.833817
20
-34.749222
30
2.510929
11
-100.014145
21
-33.096596
31
-89.914604
12
-94.406586
22
-36.618332
32
-78.001396
13
-116.824379
23
-38.059021
33
2.571457
0
3DFACE
8
0
70
0
10
-32.700214
20
-62.671951
30
27.151489
11
-24.597250
21
-60.770294
31
0.013252
12
-24.769461
22
-50.282806
32
2.165445
13
-32.721638
23
-50.162552
33
65.247124
0
3DFACE
8
0
70
0
10
-32.700214
20
-62.671951
30
27.151489
11
-32.721638
21
-50.162552
31
65.247124
12
-77.220078
22
-49.281937
32
43.018311
13
-77.133255
23
-62.491539
33
17.847233
0
3DFACE
8
0
70
0
10
-77.133255
20
-62.491539
30
17.847233
11
-77.220078
21
-49.281937
31
43.018311
12
-88.656235
22
-50.788475
32
2.569170
13
-88.482552
23
-61.444527
33
0.551552
0
3DFACE
8
0
70
0
10
-24.597250
20
-60.770294
30
0.013252
11
-33.194515
21
-58.966629
31
-28.150902
12
-33.583794
22
-43.124641
32
-63.376064
13
-24.769461
23
-50.282806
33
2.165445
0
3DFACE
8
0
70
0
10
-88.482552
20
-61.444527
30
0.551552
11
-88.656235
21
-50.788475
31
2.569170
12
-77.780479
22
-44.707291
32
-40.586758
13
-77.454552
23
-60.083084
33
-18.099323
0
3DFACE
8
0
70
0
10
-77.454552
20
-60.083084
30
-18.099323
11
-77.780479
21
-44.707291
31
-40.586758
12
-33.583794
22
-43.124641
32
-63.376064
13
-33.194515
23
-58.966629
33
-28.150902
0
3DFACE
8
0
70
0
10
-29.267130
20
-125.345802
30
-5.654927
11
-36.523037
21
-101.972214
31
22.297003
12
-37.787899
22
-108.736435
32
35.947453
13
-31.473774
23
-127.827744
33
43.725594
0
3DFACE
8
0
70
0
10
-36.523037
20
-101.972214
30
22.297003
11
-72.496582
21
-106.849930
31
12.541440
12
-70.777412
22
-112.334427
32
35.947453
13
-37.787899
23
-108.736435
33
35.947453
0
3DFACE
8
0
70
0
10
-81.411575
20
-125.556137
30
-5.298913
11
-78.613716
21
-127.827744
31
43.725594
12
-70.777412
22
-112.334427
32
35.947453
13
-72.496582
23
-106.849930
33
12.541440
0
3DFACE
8
0
70
0
10
-12.028728
20
-150.104370
30
-35.439911
11
-29.267130
21
-125.345802
31
-5.654927
12
-31.473774
22
-127.827744
32
43.725594
13
-20.410763
23
-150.617310
33
32.613968
0
3DFACE
8
0
70
0
10
-88.912186
20
-149.472214
30
-33.004185
11
-87.594154
21
-150.723206
31
36.317848
12
-78.613716
22
-127.827744
32
43.725594
13
-81.411575
23
-125.556137
33
-5.298913
0
3DFACE
8
0
70
0
10
-88.912186
20
-149.472214
30
-33.004185
11
-12.028728
21
-150.104370
31
-35.439911
12
-20.410763
22
-150.617310
32
32.613968
13
-87.594154
23
-150.723206
33
36.317848
0
3DFACE
8
0
70
0
10
-31.473774
20
-119.444244
30
102.617195
11
-31.473774
21
-127.827744
31
43.725594
12
-37.787899
22
-108.736435
32
35.947453
13
-37.787899
23
-98.998032
33
87.801697
0
3DFACE
8
0
70
0
10
-37.787899
20
-98.998032
30
87.801697
11
-37.787899
21
-108.736435
31
35.947453
12
-70.777412
22
-112.334427
32
35.947453
13
-70.777412
23
-98.812729
33
87.801697
0
3DFACE
8
0
70
0
10
-78.613716
20
-119.444244
30
102.617195
11
-70.777412
21
-98.812729
31
87.801697
12
-70.777412
22
-112.334427
32
35.947453
13
-78.613716
23
-127.827744
33
43.725594
0
3DFACE
8
0
70
0
10
-16.706890
20
-152.844193
30
102.617195
11
-20.410763
21
-150.617310
31
32.613968
12
-31.473774
22
-127.827744
32
43.725594
13
-31.473774
23
-119.444244
33
102.617195
0
3DFACE
8
0
70
0
10
-83.890282
20
-153.029510
30
102.617195
11
-78.613716
21
-119.444244
31
102.617195
12
-78.613716
22
-127.827744
32
43.725594
13
-87.594154
23
-150.723206
33
36.317848
0
3DFACE
8
0
70
0
10
-83.890282
20
-153.029510
30
102.617195
11
-87.594154
21
-150.723206
31
36.317848
12
-20.410763
22
-150.617310
32
32.613968
13
-16.706890
23
-152.844193
33
102.617195
0
3DFACE
8
0
70
0
10
-113.451721
20
-42.739044
30
124.971550
11
-123.165314
21
-28.126564
31
133.114410
12
-135.932800
22
-43.759979
32
125.706352
13
-126.442101
23
-52.310577
33
108.032379
0
3DFACE
8
0
70
0
10
-76.799911
20
127.105865
30
-33.834141
11
-67.259155
21
145.164856
31
1.311036
12
-58.338932
22
134.391907
32
-42.120823
13
-58.338932
23
134.391907
33
-42.120823
0
3DFACE
8
0
70
0
10
-83.016861
20
109.830902
30
37.993084
11
-58.926655
21
113.320984
31
55.586124
12
-67.259155
22
145.164856
32
1.311036
13
-67.259155
23
145.164856
33
1.311036
0
3DFACE
8
0
70
0
10
-113.602539
20
65.709976
30
-0.537062
11
-116.891251
21
47.038940
31
30.207607
12
-116.878372
22
4.286194
32
5.275864
13
-115.886131
23
23.864594
33
-25.157486
0
3DFACE
8
0
70
0
10
-164.202255
20
54.256241
30
-12.016767
11
-168.516449
21
37.142487
31
19.538794
12
-116.891251
22
47.038940
32
30.207607
13
-113.602539
23
65.709976
33
-0.537062
0
3DFACE
8
0
70
0
10
-162.366531
20
-1.484497
30
-2.404655
11
-168.516449
21
37.142487
31
19.538794
12
-164.202255
22
54.256241
32
-12.016767
13
-159.875092
23
16.335815
33
-33.721085
0
3DFACE
8
0
70
0
10
-115.886131
20
23.864594
30
-25.157486
11
-116.878372
21
4.286194
31
5.275864
12
-162.366531
22
-1.484497
32
-2.404655
13
-159.875092
23
16.335815
33
-33.721085
0
3DFACE
8
0
70
0
10
-108.007690
20
-2.453995
30
2.186547
11
-109.700722
21
55.184875
31
35.640320
12
-112.809456
22
37.901886
32
63.727604
13
-108.221939
23
-21.422745
33
30.608286
0
3DFACE
8
0
70
0
10
-109.700722
20
55.184875
30
35.640320
11
-179.616989
21
43.395065
31
22.132191
12
-183.955872
22
28.432266
32
50.535580
13
-112.809456
23
37.901886
33
63.727604
0
3DFACE
8
0
70
0
10
-171.871826
20
-25.119385
30
21.371450
11
-183.955872
21
28.432266
31
50.535580
12
-179.616989
22
43.395065
32
22.132191
13
-169.728088
23
-8.866058
33
-7.407870
0
3DFACE
8
0
70
0
10
-108.007690
20
-2.453995
30
2.186547
11
-108.221939
21
-21.422745
31
30.608286
12
-171.871826
22
-25.119385
32
21.371450
13
-169.728088
23
-8.866058
33
-7.407870
0
3DFACE
8
0
70
0
10
-108.007690
20
-2.453995
30
2.186547
11
-116.878372
21
4.286194
31
5.275864
12
-116.891251
22
47.038940
32
30.207607
13
-109.700722
23
55.184875
33
35.640320
0
3DFACE
8
0
70
0
10
-108.221939
20
-21.422745
30
30.608286
11
-112.809456
21
37.901886
31
63.727604
12
-119.906754
22
29.918686
32
58.398621
13
-117.812912
23
-14.152863
33
33.938183
0
3DFACE
8
0
70
0
10
-109.700722
20
55.184875
30
35.640320
11
-116.891251
21
47.038940
31
30.207607
12
-168.516449
22
37.142487
32
19.538794
13
-179.616989
23
43.395065
33
22.132191
0
3DFACE
8
0
70
0
10
-112.809456
20
37.901886
30
63.727604
11
-183.955872
21
28.432266
31
50.535580
12
-172.377625
22
21.825607
32
47.781013
13
-119.906754
23
29.918686
33
58.398621
0
3DFACE
8
0
70
0
10
-171.871826
20
-25.119385
30
21.371450
11
-164.650986
21
-17.824707
31
26.310625
12
-172.377625
22
21.825607
32
47.781013
13
-183.955872
23
28.432266
33
50.535580
0
3DFACE
8
0
70
0
10
-169.728088
20
-8.866058
30
-7.407870
11
-179.616989
21
43.395065
31
22.132191
12
-168.516449
22
37.142487
32
19.538794
13
-162.366531
23
-1.484497
33
-2.404655
0
3DFACE
8
0
70
0
10
-108.221939
20
-21.422745
30
30.608286
11
-117.812912
21
-14.152863
31
33.938183
12
-164.650986
22
-17.824707
32
26.310625
13
-171.871826
23
-25.119385
33
21.371450
0
3DFACE
8
0
70
0
10
-108.007690
20
-2.453995
30
2.186547
11
-169.728088
21
-8.866058
31
-7.407870
12
-162.366531
22
-1.484497
32
-2.404655
13
-116.878372
23
4.286194
33
5.275864
0
3DFACE
8
0
70
0
10
-120.817024
20
2.321609
30
32.158306
11
-117.812912
21
-14.152863
31
33.938183
12
-119.906754
22
29.918686
32
58.398621
13
-132.962265
23
27.461533
33
46.801941
0
3DFACE
8
0
70
0
10
-132.962265
20
27.461533
30
46.801941
11
-119.906754
21
29.918686
31
58.398621
12
-172.377625
22
21.825607
32
47.781013
13
-159.637863
23
9.086395
33
37.199219
0
3DFACE
8
0
70
0
10
-145.513016
20
-11.990387
30
24.660238
11
-159.637863
21
9.086395
31
37.199219
12
-172.377625
22
21.825607
32
47.781013
13
-164.650986
23
-17.824707
33
26.310625
0
3DFACE
8
0
70
0
10
-120.817024
20
2.321609
30
32.158306
11
-145.513016
21
-11.990387
31
24.660238
12
-164.650986
22
-17.824707
32
26.310625
13
-117.812912
23
-14.152863
33
33.938183
0
3DFACE
8
0
70
0
10
-115.444588
20
26.823227
30
101.226799
11
-117.465263
21
32.905380
31
89.939049
12
-128.352798
22
33.495941
32
91.222000
13
-126.326523
23
27.523590
33
102.543465
0
3DFACE
8
0
70
0
10
-126.326523
20
27.523590
30
102.543465
11
-128.352798
21
33.495941
31
91.222000
12
-139.662170
22
33.597015
32
92.344955
13
-137.648560
23
27.523331
33
103.592987
0
3DFACE
8
0
70
0
10
-135.992554
20
-41.627579
30
49.738091
11
-154.563187
21
-14.859528
31
65.802567
12
-159.637863
22
9.086395
32
37.199219
13
-145.513016
23
-11.990387
33
24.660238
0
3DFACE
8
0
70
0
10
-113.177650
20
-12.802216
30
62.822678
11
-135.992554
21
-41.627579
31
49.738091
12
-145.513016
22
-11.990387
32
24.660238
13
-120.817024
23
2.321609
33
32.158306
0
3DFACE
8
0
70
0
10
-113.451721
20
-42.739044
30
124.971550
11
-113.177650
21
-12.802216
31
62.822678
12
-130.157410
22
7.118851
32
91.764191
13
-123.165314
23
-28.126564
33
133.114410
0
3DFACE
8
0
70
0
10
-123.165314
20
-28.126564
30
133.114410
11
-130.157410
21
7.118851
31
91.764191
12
-154.563187
22
-14.859528
32
65.802567
13
-135.932800
23
-43.759979
33
125.706352
0
3DFACE
8
0
70
0
10
-126.442101
20
-52.310577
30
108.032379
11
-135.932800
21
-43.759979
31
125.706352
12
-154.563187
22
-14.859528
32
65.802567
13
-135.992554
23
-41.627579
33
49.738091
0
3DFACE
8
0
70
0
10
-113.451721
20
-42.739044
30
124.971550
11
-126.442101
21
-52.310577
31
108.032379
12
-135.992554
22
-41.627579
32
49.738091
13
-113.177650
23
-12.802216
33
62.822678
0
3DFACE
8
0
70
0
10
-115.444588
20
26.823227
30
101.226799
11
-113.177650
21
-12.802216
31
62.822678
12
-120.817024
22
2.321609
32
32.158306
13
-117.465263
23
32.905380
33
89.939049
0
3DFACE
8
0
70
0
10
-117.465263
20
32.905380
30
89.939049
11
-120.817024
21
2.321609
31
32.158306
12
-132.962265
22
27.461533
32
46.801941
13
-128.352798
23
33.495941
33
91.222000
0
3DFACE
8
0
70
0
10
-115.444588
20
26.823227
30
101.226799
11
-126.326523
21
27.523590
31
102.543465
12
-130.157410
22
7.118851
32
91.764191
13
-113.177650
23
-12.802216
33
62.822678
0
3DFACE
8
0
70
0
10
-128.352798
20
33.495941
30
91.222000
11
-132.962265
21
27.461533
31
46.801941
12
-159.637863
22
9.086395
32
37.199219
13
-139.662170
23
33.597015
33
92.344955
0
3DFACE
8
0
70
0
10
-137.648560
20
27.523331
30
103.592987
11
-139.662170
21
33.597015
31
92.344955
12
-159.637863
22
9.086395
32
37.199219
13
-154.563187
23
-14.859528
33
65.802567
0
3DFACE
8
0
70
0
10
-126.326523
20
27.523590
30
102.543465
11
-137.648560
21
27.523331
31
103.592987
12
-154.563187
22
-14.859528
32
65.802567
13
-130.157410
23
7.118851
33
91.764191
0
3DFACE
8
0
70
0
10
20.908062
20
-50.291840
30
2.107331
11
28.847660
21
-50.321510
31
65.198715
12
-1.927172
22
-34.049866
32
87.926689
13
-1.927172
23
-32.515030
33
2.089100
0
3DFACE
8
0
70
0
10
20.908062
20
-50.291840
30
2.107331
11
-1.927172
21
-32.515030
31
2.089100
12
-1.927172
22
-30.918701
32
-87.188301
13
29.737434
23
-42.982399
33
-63.422619
0
3DFACE
8
0
70
0
10
-1.927172
20
-30.918701
30
-87.188301
11
-1.927172
21
-32.515030
31
2.089100
12
-24.769461
22
-50.282806
32
2.165445
13
-33.583794
23
-43.124641
33
-63.376064
0
3DFACE
8
0
70
0
10
-1.927172
20
-32.515030
30
2.089100
11
-1.927172
21
-34.049866
31
87.926689
12
-32.721638
22
-50.162552
32
65.247124
13
-24.769461
23
-50.282806
33
2.165445
0
3DFACE
8
0
70
0
10
3.385891
20
171.021606
30
127.644058
11
13.501891
21
169.147705
31
122.414032
12
26.782705
22
184.228455
32
127.249725
13
7.661904
23
188.970428
33
133.698929
0
3DFACE
8
0
70
0
10
7.661904
20
188.970428
30
133.698929
11
26.782705
21
184.228455
31
127.249725
12
21.883793
22
194.199554
32
126.052391
13
10.400447
23
200.465637
33
129.568909
0
3DFACE
8
0
70
0
10
13.501891
20
169.147705
30
122.414032
11
13.640578
21
165.703064
31
109.544304
12
29.127228
22
181.120850
32
109.793030
13
26.782705
23
184.228455
33
127.249725
0
3DFACE
8
0
70
0
10
3.385891
20
171.021606
30
127.644058
11
1.840319
21
165.648895
31
115.463791
12
13.640578
22
165.703064
32
109.544304
13
13.501891
23
169.147705
33
122.414032
0
3DFACE
8
0
70
0
10
10.400447
20
200.465637
30
129.568909
11
21.883793
21
194.199554
31
126.052391
12
23.954212
22
194.607910
32
109.868759
13
10.470384
23
201.874146
33
115.177086
0
3DFACE
8
0
70
0
10
26.782705
20
184.228455
30
127.249725
11
29.127228
21
181.120850
31
109.793030
12
23.954212
22
194.607910
32
109.868759
13
21.883793
23
194.199554
33
126.052391
0
3DFACE
8
0
70
0
10
16.596525
20
210.164063
30
111.308800
11
14.393852
21
200.918182
31
112.351044
12
24.578850
22
196.077820
32
107.042717
13
30.358313
23
214.654510
33
109.301407
0
3DFACE
8
0
70
0
10
24.578850
20
196.077820
30
107.042717
11
34.111675
21
194.830688
31
100.755997
12
40.202522
22
204.543793
32
97.183388
13
30.358313
23
214.654510
33
109.301407
0
3DFACE
8
0
70
0
10
10.942800
20
147.800568
30
128.702957
11
11.487739
21
167.179626
31
117.758499
12
2.375839
22
167.896790
32
120.507065
13
-1.741674
23
150.613281
33
129.386673
0
3DFACE
8
0
70
0
10
51.737400
20
155.390625
30
83.159500
11
52.708355
21
166.395081
31
82.980804
12
28.476768
22
164.862274
32
103.641167
13
30.101400
23
141.010468
33
109.950516
0
3DFACE
8
0
70
0
10
11.487739
20
167.179626
30
117.758499
11
10.942800
21
147.800568
31
128.702957
12
29.168404
22
145.711243
32
120.035400
13
25.845766
23
164.028687
33
117.641388
0
3DFACE
8
0
70
0
10
57.366150
20
200.250061
30
83.005699
11
72.423798
21
206.447449
31
80.140213
12
53.923832
22
228.251770
32
94.255981
13
46.273094
23
209.226746
33
98.868324
0
3DFACE
8
0
70
0
10
25.520395
20
245.939331
30
108.225845
11
15.352542
21
218.900330
31
112.623047
12
32.465950
22
221.709473
32
109.922699
13
43.635944
23
244.448792
33
101.307953
0
3DFACE
8
0
70
0
10
43.635944
20
244.448792
30
101.307953
11
32.465950
21
221.709473
31
109.922699
12
46.273094
22
209.226746
32
98.868324
13
53.923832
23
228.251770
33
94.255981
0
3DFACE
8
0
70
0
10
-7.904439
20
124.744690
30
127.211403
11
10.736941
21
128.882690
31
120.845192
12
9.762125
22
138.522583
32
118.797340
13
-4.537100
23
138.879272
33
124.268707
0
3DFACE
8
0
70
0
10
-17.905796
20
82.763367
30
106.133919
11
4.800778
21
90.221359
31
102.891983
12
10.736941
22
128.882690
32
120.845192
13
-7.904439
23
124.744690
33
127.211403
0
3DFACE
8
0
70
0
10
51.737400
20
155.390625
30
83.159500
11
30.101400
21
141.010468
31
109.950516
12
28.690197
22
138.034760
32
100.939323
13
52.750233
23
143.576172
33
86.329781
0
3DFACE
8
0
70
0
10
28.690197
20
138.034760
30
100.939323
11
33.717728
21
110.061584
31
71.140068
12
50.392166
22
136.566345
32
55.145641
13
52.750233
23
143.576172
33
86.329781
0
3DFACE
8
0
70
0
10
4.800778
20
90.221359
30
102.891983
11
33.717728
21
110.061584
31
71.140068
12
28.690197
22
138.034760
32
100.939323
13
10.736941
23
128.882690
33
120.845192
0
3DFACE
8
0
70
0
10
10.736941
20
128.882690
30
120.845192
11
28.690197
21
138.034760
31
100.939323
12
30.101400
22
141.010468
32
109.950516
13
9.762125
23
138.522583
33
118.797340
0
3DFACE
8
0
70
0
10
-1.741674
20
150.613281
30
129.386673
11
-4.537100
21
138.879272
31
124.268707
12
9.762125
22
138.522583
32
118.797340
13
10.942800
23
147.800568
33
128.702957
0
3DFACE
8
0
70
0
10
2.375839
20
167.896790
30
120.507065
11
11.487739
21
167.179626
31
117.758499
12
13.640578
22
165.703064
32
109.544304
13
1.840319
23
165.648895
33
115.463791
0
3DFACE
8
0
70
0
10
25.845766
20
164.028687
30
117.641388
11
28.476768
21
164.862274
31
103.641167
12
13.640578
22
165.703064
32
109.544304
13
11.487739
23
167.179626
33
117.758499
0
POINT
8
0
70
0
10
49.493408
20
139.537628
30
101.527885
0
3DFACE
8
0
70
0
10
10.942800
20
147.800568
30
128.702957
11
9.762125
21
138.522583
31
118.797340
12
30.101400
22
141.010468
32
109.950516
13
29.168404
23
145.711243
33
120.035400
0
3DFACE
8
0
70
0
10
29.168404
20
145.711243
30
120.035400
11
49.493408
21
139.537628
31
101.527885
12
25.845766
22
164.028687
32
117.641388
13
25.845766
23
164.028687
33
117.641388
0
3DFACE
8
0
70
0
10
25.845766
20
164.028687
30
117.641388
11
49.493408
21
139.537628
31
101.527885
12
28.476768
22
164.862274
32
103.641167
13
28.476768
23
164.862274
33
103.641167
0
3DFACE
8
0
70
0
10
49.493408
20
139.537628
30
101.527885
11
30.101400
21
141.010468
31
109.950516
12
28.476768
22
164.862274
32
103.641167
13
28.476768
23
164.862274
33
103.641167
0
3DFACE
8
0
70
0
10
30.101400
20
141.010468
30
109.950516
11
49.493408
21
139.537628
31
101.527885
12
29.168404
22
145.711243
32
120.035400
13
29.168404
23
145.711243
33
120.035400
0
3DFACE
8
0
70
0
10
72.423798
20
206.447449
30
80.140213
11
57.366150
21
200.250061
31
83.005699
12
68.390549
22
191.003540
32
47.239029
13
69.010963
23
184.794983
33
48.942013
0
3DFACE
8
0
70
0
10
57.366150
20
200.250061
30
83.005699
11
52.593170
21
189.678162
31
83.688759
12
68.854240
22
184.965271
32
47.494915
13
68.390549
23
191.003540
33
47.239029
0
3DFACE
8
0
70
0
10
52.593170
20
189.678162
30
83.688759
11
51.932774
21
176.369751
31
83.537582
12
65.817764
22
172.125488
32
49.673847
13
68.854240
23
184.965271
33
47.494915
0
3DFACE
8
0
70
0
10
69.010963
20
184.794983
30
48.942013
11
68.390549
21
191.003540
31
47.239029
12
50.797836
22
191.153198
32
21.748682
13
47.168442
23
176.752563
33
27.582268
0
3DFACE
8
0
70
0
10
68.854240
20
184.965271
30
47.494915
11
54.159779
21
192.248352
31
17.705273
12
50.797836
22
191.153198
32
21.748682
13
68.390549
23
191.003540
33
47.239029
0
3DFACE
8
0
70
0
10
65.817764
20
172.125488
30
49.673847
11
48.778957
21
181.505798
31
16.221542
12
54.159779
22
192.248352
32
17.705273
13
68.854240
23
184.965271
33
47.494915
0
3DFACE
8
0
70
0
10
47.168442
20
176.752563
30
27.582268
11
50.797836
21
191.153198
31
21.748682
12
9.275029
22
200.537720
32
5.021411
13
1.554054
23
183.504913
33
10.552873
0
3DFACE
8
0
70
0
10
54.159779
20
192.248352
30
17.705273
11
10.629592
21
202.542419
31
2.627629
12
9.275029
22
200.537720
32
5.021411
13
50.797836
23
191.153198
33
21.748682
0
3DFACE
8
0
70
0
10
48.778957
20
181.505798
30
16.221542
11
7.413807
21
189.044006
31
4.086928
12
10.629592
22
202.542419
32
2.627629
13
54.159779
23
192.248352
33
17.705273
0
3DFACE
8
0
70
0
10
50.392166
20
136.566345
30
55.145641
11
60.398140
21
151.259155
31
51.036533
12
51.737400
22
155.390625
32
83.159500
13
52.750233
23
143.576172
33
86.329781
0
3DFACE
8
0
70
0
10
51.932774
20
176.369751
30
83.537582
11
52.708355
21
166.395081
31
82.980804
12
65.817764
22
172.125488
32
49.673847
13
65.817764
23
172.125488
33
49.673847
0
3DFACE
8
0
70
0
10
51.737400
20
155.390625
30
83.159500
11
60.398140
21
151.259155
31
51.036533
12
65.817764
22
172.125488
32
49.673847
13
52.708355
23
166.395081
33
82.980804
0
3DFACE
8
0
70
0
10
60.398140
20
151.259155
30
51.036533
11
43.839218
21
164.191528
31
19.132387
12
48.778957
22
181.505798
32
16.221542
13
65.817764
23
172.125488
33
49.673847
0
3DFACE
8
0
70
0
10
43.839218
20
164.191528
30
19.132387
11
3.390653
21
172.156555
31
8.518088
12
7.413807
22
189.044006
32
4.086928
13
48.778957
23
181.505798
33
16.221542
0
3DFACE
8
0
70
0
10
25.520395
20
245.939331
30
108.225845
11
43.635944
21
244.448792
31
101.307953
12
52.007874
22
260.808380
32
88.193939
13
34.569000
23
269.511749
33
94.062553
0
3DFACE
8
0
70
0
10
34.569000
20
269.511749
30
94.062553
11
52.007874
21
260.808380
31
88.193939
12
52.371136
22
260.670197
32
82.794083
13
35.117348
23
270.940247
33
89.403778
0
3DFACE
8
0
70
0
10
43.635944
20
244.448792
30
101.307953
11
53.923832
21
228.251770
31
94.255981
12
74.096748
22
244.429749
32
77.101875
13
52.007874
23
260.808380
33
88.193939
0
3DFACE
8
0
70
0
10
52.007874
20
260.808380
30
88.193939
11
74.096748
21
244.429749
31
77.101875
12
73.118591
22
245.348267
32
71.792641
13
52.371136
23
260.670197
33
82.794083
0
3DFACE
8
0
70
0
10
53.923832
20
228.251770
30
94.255981
11
72.423798
21
206.447449
31
80.140213
12
81.905823
22
219.855957
32
52.631268
13
74.096748
23
244.429749
33
77.101875
0
3DFACE
8
0
70
0
10
74.096748
20
244.429749
30
77.101875
11
81.905823
21
219.855957
31
52.631268
12
75.267860
22
225.720337
32
49.655312
13
73.118591
23
245.348267
33
71.792641
0
3DFACE
8
0
70
0
10
72.423798
20
206.447449
30
80.140213
11
69.010963
21
184.794983
31
48.942013
12
81.612358
22
206.462830
32
30.030502
13
81.905823
23
219.855957
33
52.631268
0
3DFACE
8
0
70
0
10
81.905823
20
219.855957
30
52.631268
11
81.612358
21
206.462830
31
30.030502
12
76.602737
22
211.701996
32
30.173523
13
75.267860
23
225.720337
33
49.655312
0
3DFACE
8
0
70
0
10
69.010963
20
184.794983
30
48.942013
11
47.168442
21
176.752563
31
27.582268
12
56.429012
22
198.378845
32
12.612582
13
81.612358
23
206.462830
33
30.030502
0
3DFACE
8
0
70
0
10
81.612358
20
206.462830
30
30.030502
11
56.429012
21
198.378845
31
12.612582
12
53.230930
22
205.475037
32
13.872251
13
76.602737
23
211.701996
33
30.173523
0
3DFACE
8
0
70
0
10
47.168442
20
176.752563
30
27.582268
11
1.554054
21
183.504913
31
10.552873
12
9.280577
22
203.633179
32
-3.615576
13
56.429012
23
198.378845
33
12.612582
0
3DFACE
8
0
70
0
10
56.429012
20
198.378845
30
12.612582
11
9.280577
21
203.633179
31
-3.615576
12
11.214338
22
208.670807
32
-1.453010
13
53.230930
23
205.475037
33
13.872251
0
3DFACE
8
0
70
0
10
50.392166
20
136.566345
30
55.145641
11
35.908203
21
146.943970
31
30.821005
12
43.839218
22
164.191528
32
19.132387
13
60.398140
23
151.259155
33
51.036533
0
3DFACE
8
0
70
0
10
35.908203
20
146.943970
30
30.821005
11
-0.471714
21
159.700195
31
7.595522
12
3.390653
22
172.156555
32
8.518088
13
43.839218
23
164.191528
33
19.132387
0
3DFACE
8
0
70
0
10
33.717728
20
110.061584
30
71.140068
11
26.407532
21
120.946503
31
59.681229
12
35.908203
22
146.943970
32
30.821005
13
50.392166
23
136.566345
33
55.145641
0
3DFACE
8
0
70
0
10
4.800778
20
90.221359
30
102.891983
11
2.608121
21
91.455383
31
86.985298
12
26.407532
22
120.946503
32
59.681229
13
33.717728
23
110.061584
33
71.140068
0
3DFACE
8
0
70
0
10
2.608121
20
91.455383
30
86.985298
11
-15.223245
21
94.023544
31
82.689224
12
-10.116291
22
115.460297
32
61.042149
13
26.407532
23
120.946503
33
59.681229
0
3DFACE
8
0
70
0
10
-17.905796
20
82.763367
30
106.133919
11
-15.223245
21
94.023544
31
82.689224
12
2.608121
22
91.455383
32
86.985298
13
2.608121
23
91.455383
33
86.985298
0
3DFACE
8
0
70
0
10
-17.905796
20
82.763367
30
106.133919
11
2.608121
21
91.455383
31
86.985298
12
4.800778
22
90.221359
32
102.891983
13
4.800778
23
90.221359
33
102.891983
0
3DFACE
8
0
70
0
10
3.385891
20
171.021606
30
127.644058
11
7.661904
21
188.970428
31
133.698929
12
-11.543111
22
193.358948
32
127.249725
13
-6.488410
23
173.910065
33
122.414032
0
3DFACE
8
0
70
0
10
7.661904
20
188.970428
30
133.698929
11
10.400447
21
200.465637
31
129.568909
12
-2.674660
22
200.050201
32
126.052391
13
-11.543111
23
193.358948
33
127.249725
0
3DFACE
8
0
70
0
10
-6.488410
20
173.910065
30
122.414032
11
-11.543111
21
193.358948
31
127.249725
12
-15.539638
22
191.761993
32
109.793030
13
-8.668015
23
171.017700
33
109.544304
0
3DFACE
8
0
70
0
10
3.385891
20
171.021606
30
127.644058
11
-6.488410
21
173.910065
31
122.414032
12
-8.668015
22
171.017700
32
109.544304
13
1.840319
23
165.648895
33
115.463791
0
3DFACE
8
0
70
0
10
10.400447
20
200.465637
30
129.568909
11
10.470384
21
201.874146
31
115.177086
12
-4.841275
22
201.467957
32
109.868759
13
-2.674660
23
200.050201
33
126.052391
0
3DFACE
8
0
70
0
10
-11.543111
20
193.358948
30
127.249725
11
-2.674660
21
200.050201
31
126.052391
12
-4.841275
22
201.467957
32
109.868759
13
-15.539638
23
191.761993
33
109.793030
0
3DFACE
8
0
70
0
10
9.153174
20
211.814697
30
111.128487
11
-0.723814
21
222.773926
31
109.502457
12
-4.366430
22
203.603088
32
107.672928
13
7.040268
23
202.945648
33
111.972687
0
3DFACE
8
0
70
0
10
-4.366430
20
203.603088
30
107.672928
11
-0.723814
21
222.773926
31
109.502457
12
-14.275399
22
217.399445
32
99.686882
13
-12.991882
23
206.618652
33
102.580704
0
3DFACE
8
0
70
0
10
-14.331838
20
153.821838
30
128.702957
11
-1.741674
21
150.613281
31
129.386673
12
2.375839
22
167.896790
32
120.507065
13
-6.080661
23
171.364990
33
117.758499
0
3DFACE
8
0
70
0
10
-47.322334
20
178.989990
30
83.159508
11
-34.494038
21
156.399261
31
109.950516
12
-22.289671
22
176.956543
32
103.641167
13
-43.227325
23
189.250183
33
82.980804
0
3DFACE
8
0
70
0
10
-6.080661
20
171.364990
30
117.758499
11
-20.317129
21
175.026215
31
117.641388
12
-31.541775
22
160.174469
32
120.035400
13
-14.331838
23
153.821838
33
128.702957
0
3DFACE
8
0
70
0
10
-30.974152
20
223.785065
30
83.005699
11
-15.727598
21
225.744537
31
98.868324
12
-6.608637
22
251.488037
32
94.255974
13
-35.760838
23
247.975677
33
80.140213
0
3DFACE
8
0
70
0
10
25.520395
20
245.939331
30
108.225845
11
11.688794
21
257.463409
31
100.907898
12
2.413335
22
230.528503
32
109.842690
13
15.352542
23
218.900330
33
112.623047
0
3DFACE
8
0
70
0
10
11.688794
20
257.463409
30
100.907898
11
-6.608637
21
251.488037
31
94.255974
12
-15.727598
22
225.744537
32
98.868324
13
2.413335
23
230.528503
33
109.842690
0
3DFACE
8
0
70
0
10
-7.904439
20
124.744690
30
127.211403
11
-4.537100
21
138.879272
31
124.268707
12
-17.461229
22
145.008057
32
118.797340
13
-22.677731
23
136.843201
33
120.845192
0
3DFACE
8
0
70
0
10
-17.905796
20
82.763367
30
106.133919
11
-7.904439
21
124.744690
31
127.211403
12
-22.677731
22
136.843201
32
120.845192
13
-34.810722
23
99.658142
33
102.891983
0
3DFACE
8
0
70
0
10
-47.322334
20
178.989990
30
83.159508
11
-53.553230
21
168.901245
31
86.329781
12
-34.576099
22
153.106934
32
100.939331
13
-34.494038
23
156.399261
33
109.950516
0
3DFACE
8
0
70
0
10
-34.576099
20
153.106934
30
100.939331
11
-53.553230
21
168.901245
31
86.329781
12
-54.609039
22
161.581177
32
55.145641
13
-51.676071
23
130.405273
33
71.140068
0
3DFACE
8
0
70
0
10
-34.810722
20
99.658142
30
102.891983
11
-22.677731
21
136.843201
31
120.845192
12
-34.576099
22
153.106934
32
100.939331
13
-51.676071
23
130.405273
33
71.140068
0
3DFACE
8
0
70
0
10
-22.677731
20
136.843201
30
120.845192
11
-17.461229
21
145.008057
31
118.797340
12
-34.494038
22
156.399261
32
109.950516
13
-34.576099
23
153.106934
33
100.939331
0
3DFACE
8
0
70
0
10
-1.741674
20
150.613281
30
129.386673
11
-14.331838
21
153.821838
31
128.702957
12
-17.461229
22
145.008057
32
118.797340
13
-4.537100
23
138.879272
33
124.268707
0
3DFACE
8
0
70
0
10
2.375839
20
167.896790
30
120.507065
11
1.840319
21
165.648895
31
115.463791
12
-8.668015
22
171.017700
32
109.544304
13
-6.080661
23
171.364990
33
117.758499
0
3DFACE
8
0
70
0
10
-20.317129
20
175.026215
30
117.641388
11
-6.080661
21
171.364990
31
117.758499
12
-8.668015
22
171.017700
32
109.544304
13
-22.289671
23
176.956543
33
103.641167
0
POINT
8
0
70
0
10
-51.681675
20
163.640930
30
101.527893
0
3DFACE
8
0
70
0
10
-14.331838
20
153.821838
30
128.702957
11
-31.541775
21
160.174469
31
120.035400
12
-34.494038
22
156.399261
32
109.950516
13
-17.461229
23
145.008057
33
118.797340
0
3DFACE
8
0
70
0
10
-31.541775
20
160.174469
30
120.035400
11
-20.317129
21
175.026215
31
117.641388
12
-51.681675
22
163.640930
32
101.527893
13
-51.681675
23
163.640930
33
101.527893
0
3DFACE
8
0
70
0
10
-20.317129
20
175.026215
30
117.641388
11
-22.289671
21
176.956543
31
103.641167
12
-51.681675
22
163.640930
32
101.527893
13
-51.681675
23
163.640930
33
101.527893
0
3DFACE
8
0
70
0
10
-51.681675
20
163.640930
30
101.527893
11
-22.289671
21
176.956543
31
103.641167
12
-34.494038
22
156.399261
32
109.950516
13
-34.494038
23
156.399261
33
109.950516
0
3DFACE
8
0
70
0
10
-34.494038
20
156.399261
30
109.950516
11
-31.541775
21
160.174469
31
120.035400
12
-51.681675
22
163.640930
32
101.527893
13
-51.681675
23
163.640930
33
101.527893
0
3DFACE
8
0
70
0
10
-35.760838
20
247.975677
30
80.140213
11
-47.712971
21
229.601105
31
48.942013
12
-45.874550
22
221.445251
32
47.239029
13
-30.974152
23
223.785065
33
83.005699
0
3DFACE
8
0
70
0
10
-30.974152
20
223.785065
30
83.005699
11
-45.874550
21
221.445251
31
47.239029
12
-49.266045
22
213.105469
32
47.494915
13
-32.626705
23
209.980408
33
83.688759
0
3DFACE
8
0
70
0
10
-32.626705
20
209.980408
30
83.688759
11
-49.266045
21
213.105469
31
47.494915
12
-52.344898
22
200.275787
32
49.673847
13
-38.037701
23
197.803741
33
83.537582
0
3DFACE
8
0
70
0
10
-47.712971
20
229.601105
30
48.942013
11
-36.862225
21
209.008942
31
27.582268
12
-31.064291
22
212.962341
32
21.748682
13
-45.874550
23
221.445251
33
47.239029
0
3DFACE
8
0
70
0
10
-49.266045
20
213.105469
30
47.494915
11
-45.874550
21
221.445251
31
47.239029
12
-31.064291
22
212.962341
32
21.748682
13
-32.866207
23
212.980835
33
17.705273
0
3DFACE
8
0
70
0
10
-52.344898
20
200.275787
30
49.673847
11
-49.266045
21
213.105469
31
47.494915
12
-32.866207
22
212.980835
32
17.705273
13
-32.906921
23
200.966125
33
16.221542
0
3DFACE
8
0
70
0
10
-36.862225
20
209.008942
30
27.582268
11
1.554054
21
183.504913
31
10.552873
12
9.275029
22
200.537720
32
5.021411
13
-31.064291
23
212.962341
33
21.748682
0
3DFACE
8
0
70
0
10
-32.866207
20
212.980835
30
17.705273
11
-31.064291
21
212.962341
31
21.748682
12
9.275029
22
200.537720
32
5.021411
13
10.629592
23
202.542419
33
2.627629
0
3DFACE
8
0
70
0
10
-32.906921
20
200.966125
30
16.221542
11
-32.866207
21
212.980835
31
17.705273
12
10.629592
22
202.542419
32
2.627629
13
7.413807
23
189.044006
33
4.086928
0
3DFACE
8
0
70
0
10
-54.609039
20
161.581177
30
55.145641
11
-53.553230
21
168.901245
31
86.329781
12
-47.322334
22
178.989990
32
83.159508
13
-56.915577
23
179.207214
33
51.036533
0
3DFACE
8
0
70
0
10
-38.037701
20
197.803741
30
83.537582
11
-52.344898
21
200.275787
31
49.673847
12
-43.227325
22
189.250183
32
82.980804
13
-43.227325
23
189.250183
33
82.980804
0
3DFACE
8
0
70
0
10
-47.322334
20
178.989990
30
83.159508
11
-43.227325
21
189.250183
31
82.980804
12
-52.344898
22
200.275787
32
49.673847
13
-56.915577
23
179.207214
33
51.036533
0
3DFACE
8
0
70
0
10
-56.915577
20
179.207214
30
51.036533
11
-52.344898
21
200.275787
31
49.673847
12
-32.906921
22
200.966125
32
16.221542
13
-36.304390
23
183.284424
33
19.132387
0
3DFACE
8
0
70
0
10
-36.304390
20
183.284424
30
19.132387
11
-32.906921
21
200.966125
31
16.221542
12
7.413807
22
189.044006
32
4.086928
13
3.390653
23
172.156555
33
8.518088
0
3DFACE
8
0
70
0
10
25.520395
20
245.939331
30
108.225845
11
34.569000
21
269.511749
31
94.062553
12
15.785708
22
274.712799
32
88.193939
13
11.688794
23
257.463409
33
100.907898
0
3DFACE
8
0
70
0
10
34.569000
20
269.511749
30
94.062553
11
35.117348
21
270.940247
31
89.403778
12
15.423272
22
274.853149
32
82.794083
13
15.785708
23
274.712799
33
88.193939
0
3DFACE
8
0
70
0
10
11.688794
20
257.463409
30
100.907898
11
15.785708
21
274.712799
31
88.193939
12
-11.588982
22
277.321411
32
77.101875
13
-6.608637
23
251.488037
33
94.255974
0
3DFACE
8
0
70
0
10
15.785708
20
274.712799
30
88.193939
11
15.423272
21
274.853149
31
82.794083
12
-10.247465
22
277.349487
32
71.792641
13
-11.588982
23
277.321411
33
77.101875
0
3DFACE
8
0
70
0
10
-6.608637
20
251.488037
30
94.255974
11
-11.588982
21
277.321411
31
77.101875
12
-33.835327
22
264.284851
32
52.631268
13
-35.760838
23
247.975677
33
80.140213
0
3DFACE
8
0
70
0
10
-11.588982
20
277.321411
30
77.101875
11
-10.247465
21
277.349487
31
71.792641
12
-24.978325
22
264.201263
32
49.655312
13
-33.835327
23
264.284851
33
52.631268
0
3DFACE
8
0
70
0
10
-35.760838
20
247.975677
30
80.140213
11
-33.835327
21
264.284851
31
52.631268
12
-42.578979
22
254.135437
32
30.030502
13
-47.712971
23
229.601105
33
48.942013
0
3DFACE
8
0
70
0
10
-33.835327
20
264.284851
30
52.631268
11
-24.978325
21
264.201263
31
49.655312
12
-35.350433
22
254.676819
32
30.173523
13
-42.578979
23
254.135437
33
30.030502
0
3DFACE
8
0
70
0
10
-47.712971
20
229.601105
30
48.942013
11
-42.578979
21
254.135437
31
30.030502
12
-29.273373
22
231.276917
32
12.612582
13
-36.862225
23
209.008942
33
27.582268
0
3DFACE
8
0
70
0
10
-42.578979
20
254.135437
30
30.030502
11
-35.350433
21
254.676819
31
30.173523
12
-22.148447
22
234.410492
32
13.872251
13
-29.273373
23
231.276917
33
12.612582
0
3DFACE
8
0
70
0
10
-36.862225
20
209.008942
30
27.582268
11
-29.273373
21
231.276917
31
12.612582
12
9.280577
22
203.633179
32
-3.615576
13
1.554054
23
183.504913
33
10.552873
0
3DFACE
8
0
70
0
10
-29.273373
20
231.276917
30
12.612582
11
-22.148447
21
234.410492
31
13.872251
12
11.214338
22
208.670807
32
-1.453010
13
9.280577
23
203.633179
33
-3.615576
0
3DFACE
8
0
70
0
10
-54.609039
20
161.581177
30
55.145641
11
-56.915577
21
179.207214
31
51.036533
12
-36.304390
22
183.284424
32
19.132387
13
-39.121788
23
154.097534
33
30.596296
0
3DFACE
8
0
70
0
10
-39.121788
20
154.097534
30
30.596296
11
-36.304390
21
183.284424
31
19.132387
12
3.390653
22
172.156555
32
8.518088
13
-0.471714
23
159.700195
33
7.595522
0
3DFACE
8
0
70
0
10
-51.676071
20
130.405273
30
71.140068
11
-54.609039
21
161.581177
31
55.145641
12
-39.121788
22
154.097534
32
30.596296
13
-36.652264
23
128.301025
33
59.681229
0
3DFACE
8
0
70
0
10
-34.810722
20
99.658142
30
102.891983
11
-51.676071
21
130.405273
31
71.140068
12
-36.652264
22
128.301025
32
59.681229
13
-32.297195
23
99.770996
33
86.985298
0
3DFACE
8
0
70
0
10
-32.297195
20
99.770996
30
86.985298
11
-36.652264
21
128.301025
31
59.681229
12
-10.116291
22
115.460297
32
61.042149
13
-15.223245
23
94.023544
33
82.689224
0
3DFACE
8
0
70
0
10
-17.905796
20
82.763367
30
106.133919
11
-32.297195
21
99.770996
31
86.985298
12
-15.223245
22
94.023544
32
82.689224
13
-15.223245
23
94.023544
33
82.689224
0
3DFACE
8
0
70
0
10
-17.905796
20
82.763367
30
106.133919
11
-34.810722
21
99.658142
31
102.891983
12
-32.297195
22
99.770996
32
86.985298
13
-32.297195
23
99.770996
33
86.985298
0
3DFACE
8
0
70
0
10
7.040268
20
202.945648
30
111.972687
11
10.470384
21
201.874146
31
115.177086
12
15.352542
22
218.900330
32
112.623047
13
9.153174
23
211.814697
33
111.128487
0
3DFACE
8
0
70
0
10
-4.366430
20
203.603088
30
107.672928
11
-4.841275
21
201.467957
31
109.868759
12
10.470384
22
201.874146
32
115.177086
13
7.040268
23
202.945648
33
111.972687
0
3DFACE
8
0
70
0
10
-0.723814
20
222.773926
30
109.502457
11
9.153174
21
211.814697
31
111.128487
12
15.352542
22
218.900330
32
112.623047
13
2.413335
23
230.528503
33
109.842690
0
3DFACE
8
0
70
0
10
-4.366430
20
203.603088
30
107.672928
11
-12.991882
21
206.618652
31
102.580704
12
-16.178684
22
205.485657
32
103.582047
13
-4.841275
23
201.467957
33
109.868759
0
3DFACE
8
0
70
0
10
-12.991882
20
206.618652
30
102.580704
11
-14.275399
21
217.399445
31
99.686882
12
-15.727598
22
225.744537
32
98.868324
13
-16.178684
23
205.485657
33
103.582047
0
3DFACE
8
0
70
0
10
-0.723814
20
222.773926
30
109.502457
11
2.413335
21
230.528503
31
109.842690
12
-15.727598
22
225.744537
32
98.868324
13
-14.275399
23
217.399445
33
99.686882
0
3DFACE
8
0
70
0
10
30.358313
20
214.654510
30
109.301407
11
32.465950
21
221.709473
31
109.922699
12
15.352542
22
218.900330
32
112.623047
13
16.596525
23
210.164063
33
111.308800
0
3DFACE
8
0
70
0
10
24.578850
20
196.077820
30
107.042717
11
14.393852
21
200.918182
31
112.351044
12
10.470384
22
201.874146
32
115.177086
13
23.954212
23
194.607910
33
109.868759
0
3DFACE
8
0
70
0
10
14.393852
20
200.918182
30
112.351044
11
16.596525
21
210.164063
31
111.308800
12
15.352542
22
218.900330
32
112.623047
13
10.470384
23
201.874146
33
115.177086
0
3DFACE
8
0
70
0
10
30.358313
20
214.654510
30
109.301407
11
40.202522
21
204.543793
31
97.183388
12
46.273094
22
209.226746
32
98.868324
13
32.465950
23
221.709473
33
109.922699
0
3DFACE
8
0
70
0
10
34.111675
20
194.830688
30
100.755997
11
36.733612
21
192.880157
31
103.582047
12
46.273094
22
209.226746
32
98.868324
13
40.202522
23
204.543793
33
97.183388
0
3DFACE
8
0
70
0
10
24.578850
20
196.077820
30
107.042717
11
23.954212
21
194.607910
31
109.868759
12
36.733612
22
192.880157
32
103.582047
13
34.111675
23
194.830688
33
100.755997
0
3DFACE
8
0
70
0
10
-0.471714
20
159.700195
30
7.595522
11
35.908203
21
146.943970
31
30.821005
12
65.915291
22
144.641724
32
0.594694
13
-0.962973
23
157.340271
33
-0.303575
0
3DFACE
8
0
70
0
10
-0.962973
20
157.340271
30
-0.303575
11
-67.259155
21
145.164856
31
1.311036
12
-39.121788
22
154.097534
32
30.596296
13
-0.471714
23
159.700195
33
7.595522
0
3DFACE
8
0
70
0
10
-67.259155
20
145.164856
30
1.311036
11
-58.926655
21
113.320984
31
55.586124
12
-39.121788
22
154.097534
32
30.596296
13
-39.121788
23
154.097534
33
30.596296
0
3DFACE
8
0
70
0
10
-58.926655
20
113.320984
30
55.586124
11
-36.652264
21
128.301025
31
59.681229
12
-39.121788
22
154.097534
32
30.596296
13
-39.121788
23
154.097534
33
30.596296
0
3DFACE
8
0
70
0
10
55.285446
20
112.275513
30
55.623241
11
35.908203
21
146.943970
31
30.821005
12
26.407532
22
120.946503
32
59.681229
13
26.407532
23
120.946503
33
59.681229
0
3DFACE
8
0
70
0
10
65.915291
20
144.641724
30
0.594694
11
35.908203
21
146.943970
31
30.821005
12
55.285446
22
112.275513
32
55.623241
13
55.285446
23
112.275513
33
55.623241
0
3DFACE
8
0
70
0
10
-1.927171
20
108.639740
30
62.808678
11
-36.652264
21
128.301025
31
59.681229
12
-58.926655
22
113.320984
32
55.586124
13
-58.926655
23
113.320984
33
55.586124
0
3DFACE
8
0
70
0
10
-10.116291
20
115.460297
30
61.042149
11
-36.652264
21
128.301025
31
59.681229
12
-1.927171
22
108.639740
32
62.808678
13
-1.927171
23
108.639740
33
62.808678
0
3DFACE
8
0
70
0
10
-10.116291
20
115.460297
30
61.042149
11
-1.927171
21
108.639740
31
62.808678
12
26.407532
22
120.946503
32
59.681229
13
26.407532
23
120.946503
33
59.681229
0
3DFACE
8
0
70
0
10
-1.927171
20
108.639740
30
62.808678
11
55.285446
21
112.275513
31
55.623241
12
26.407532
22
120.946503
32
59.681229
13
26.407532
23
120.946503
33
59.681229
0
3DFACE
8
0
70
0
10
11.214338
20
208.670807
30
-1.453010
11
30.359913
21
267.737885
31
-5.239272
12
45.657036
22
263.192261
32
1.827978
13
53.230930
23
205.475037
33
13.872251
0
3DFACE
8
0
70
0
10
53.230930
20
205.475037
30
13.872251
11
45.657036
21
263.192261
31
1.827978
12
58.130417
22
263.403259
32
11.059376
13
76.602737
23
211.701996
33
30.173523
0
3DFACE
8
0
70
0
10
76.602737
20
211.701996
30
30.173523
11
58.130417
21
263.403259
31
11.059376
12
60.319798
22
270.807159
32
19.202578
13
75.267860
23
225.720337
33
49.655312
0
3DFACE
8
0
70
0
10
75.267860
20
225.720337
30
49.655312
11
60.319798
21
270.807159
31
19.202578
12
63.318878
22
279.792053
32
29.332806
13
73.118591
23
245.348267
33
71.792641
0
3DFACE
8
0
70
0
10
35.117348
20
270.940247
30
89.403778
11
52.371136
21
260.670197
31
82.794083
12
56.399746
22
289.849396
32
33.220829
13
50.262817
23
297.146118
33
35.231655
0
3DFACE
8
0
70
0
10
11.214338
20
208.670807
30
-1.453010
11
-22.148447
21
234.410492
31
13.872251
12
20.491312
22
280.304657
32
-1.268029
13
30.359913
23
267.737885
33
-5.239272
0
3DFACE
8
0
70
0
10
-22.148447
20
234.410492
30
13.872251
11
-35.350433
21
254.676819
31
30.173523
12
16.075859
22
291.999878
32
5.885625
13
20.491312
23
280.304657
33
-1.268029
0
3DFACE
8
0
70
0
10
-35.350433
20
254.676819
30
30.173523
11
-24.978325
21
264.201263
31
49.655312
12
22.129654
22
296.776001
32
14.504245
13
16.075859
23
291.999878
33
5.885625
0
3DFACE
8
0
70
0
10
-24.978325
20
264.201263
30
49.655312
11
-10.247465
21
277.349487
31
71.792641
12
29.349697
22
302.890686
32
25.153755
13
22.129654
23
296.776001
33
14.504245
0
3DFACE
8
0
70
0
10
35.117348
20
270.940247
30
89.403778
11
50.262817
21
297.146118
31
35.231655
12
41.230354
22
300.164429
32
31.354620
13
15.423272
23
274.853149
33
82.794083
0
3DFACE
8
0
70
0
10
73.118591
20
245.348267
30
71.792641
11
63.318878
21
279.792053
31
29.332806
12
56.399746
22
289.849396
32
33.220829
13
52.371136
23
260.670197
33
82.794083
0
3DFACE
8
0
70
0
10
-10.247465
20
277.349487
30
71.792641
11
15.423272
21
274.853149
31
82.794083
12
41.230354
22
300.164429
32
31.354620
13
29.349697
23
302.890686
33
25.153755
0
3DFACE
8
0
70
0
10
81.869347
20
304.648804
30
-19.967142
11
90.439926
21
291.800476
31
-26.164129
12
86.415764
22
303.633362
32
-35.367775
13
86.415764
23
303.633362
33
-35.367775
0
3DFACE
8
0
70
0
10
82.330376
20
289.154602
30
-13.912855
11
90.439926
21
291.800476
31
-26.164129
12
81.869347
22
304.648804
32
-19.967142
13
81.869347
23
304.648804
33
-19.967142
0
3DFACE
8
0
70
0
10
70.196632
20
298.341644
30
-10.865174
11
82.330376
21
289.154602
31
-13.912855
12
81.869347
22
304.648804
32
-19.967142
13
81.869347
23
304.648804
33
-19.967142
0
3DFACE
8
0
70
0
10
70.196632
20
298.341644
30
-10.865174
11
81.869347
21
304.648804
31
-19.967142
12
66.172455
22
310.174500
32
-20.068760
13
66.172455
23
310.174500
33
-20.068760
0
3DFACE
8
0
70
0
10
66.172455
20
310.174500
30
-20.068760
11
81.869347
21
304.648804
31
-19.967142
12
74.281998
22
312.820374
32
-32.320034
13
74.281998
23
312.820374
33
-32.320034
0
3DFACE
8
0
70
0
10
81.869347
20
304.648804
30
-19.967142
11
86.415764
21
303.633362
31
-35.367775
12
74.281998
22
312.820374
32
-32.320034
13
74.281998
23
312.820374
33
-32.320034
0
3DFACE
8
0
70
0
10
90.439926
20
291.800476
30
-26.164129
11
86.863663
21
279.155945
31
-35.029678
12
81.172607
22
295.890167
32
-48.045528
13
86.415764
23
303.633362
33
-35.367775
0
3DFACE
8
0
70
0
10
75.394989
20
275.414124
30
-17.703695
11
86.863663
21
279.155945
31
-35.029678
12
90.439926
22
291.800476
32
-26.164129
13
82.330376
23
289.154602
33
-13.912855
0
3DFACE
8
0
70
0
10
58.235310
20
288.406494
30
-13.393633
11
75.394989
21
275.414124
31
-17.703695
12
82.330376
22
289.154602
32
-13.912855
13
70.196632
23
298.341644
33
-10.865174
0
3DFACE
8
0
70
0
10
58.235310
20
288.406494
30
-13.393633
11
70.196632
21
298.341644
31
-10.865174
12
66.172455
22
310.174500
32
-20.068760
13
52.544239
23
305.140717
33
-26.409456
0
3DFACE
8
0
70
0
10
52.544239
20
305.140717
30
-26.409456
11
66.172455
21
310.174500
31
-20.068760
12
74.281998
22
312.820374
32
-32.320034
13
64.012917
23
308.882538
33
-43.735439
0
3DFACE
8
0
70
0
10
74.281998
20
312.820374
30
-32.320034
11
86.415764
21
303.633362
31
-35.367775
12
81.172607
22
295.890167
32
-48.045528
13
64.012917
23
308.882538
33
-43.735439
0
3DFACE
8
0
70
0
10
73.235435
20
274.122131
30
-41.370319
11
69.211273
21
285.955017
31
-50.573963
12
81.172607
22
295.890167
32
-48.045528
13
86.863663
23
279.155945
33
-35.029678
0
3DFACE
8
0
70
0
10
75.394989
20
275.414124
30
-17.703695
11
65.125885
21
271.476257
31
-29.119045
12
73.235435
22
274.122131
32
-41.370319
13
86.863663
23
279.155945
33
-35.029678
0
3DFACE
8
0
70
0
10
58.235310
20
288.406494
30
-13.393633
11
52.992142
21
280.663269
31
-26.071363
12
65.125885
22
271.476257
32
-29.119045
13
75.394989
23
275.414124
33
-17.703695
0
3DFACE
8
0
70
0
10
58.235310
20
288.406494
30
-13.393633
11
52.544239
21
305.140717
31
-26.409456
12
48.967964
22
292.496155
32
-35.274948
13
52.992142
23
280.663269
33
-26.071363
0
3DFACE
8
0
70
0
10
52.544239
20
305.140717
30
-26.409456
11
64.012917
21
308.882538
31
-43.735439
12
57.077511
22
295.141998
32
-47.526222
13
48.967964
23
292.496155
33
-35.274948
0
3DFACE
8
0
70
0
10
57.077511
20
295.141998
30
-47.526222
11
64.012917
21
308.882538
31
-43.735439
12
81.172607
22
295.890167
32
-48.045528
13
69.211273
23
285.955017
33
-50.573963
0
3DFACE
8
0
70
0
10
57.538509
20
279.647827
30
-41.471951
11
69.211273
21
285.955017
31
-50.573963
12
73.235435
22
274.122131
32
-41.370319
13
73.235435
23
274.122131
33
-41.370319
0
3DFACE
8
0
70
0
10
65.125885
20
271.476257
30
-29.119045
11
57.538509
21
279.647827
31
-41.471951
12
73.235435
22
274.122131
32
-41.370319
13
73.235435
23
274.122131
33
-41.370319
0
3DFACE
8
0
70
0
10
52.992142
20
280.663269
30
-26.071363
11
57.538509
21
279.647827
31
-41.471951
12
65.125885
22
271.476257
32
-29.119045
13
65.125885
23
271.476257
33
-29.119045
0
3DFACE
8
0
70
0
10
52.992142
20
280.663269
30
-26.071363
11
48.967964
21
292.496155
31
-35.274948
12
57.538509
22
279.647827
32
-41.471951
13
57.538509
23
279.647827
33
-41.471951
0
3DFACE
8
0
70
0
10
48.967964
20
292.496155
30
-35.274948
11
57.077511
21
295.141998
31
-47.526222
12
57.538509
22
279.647827
32
-41.471951
13
57.538509
23
279.647827
33
-41.471951
0
3DFACE
8
0
70
0
10
57.538509
20
279.647827
30
-41.471951
11
57.077511
21
295.141998
31
-47.526222
12
69.211273
22
285.955017
32
-50.573963
13
69.211273
23
285.955017
33
-50.573963
0
3DFACE
8
0
70
0
10
28.476768
20
164.862274
30
103.641167
11
52.708355
21
166.395081
31
82.980804
12
43.325111
22
177.580811
32
106.758598
13
43.325111
23
177.580811
33
106.758598
0
3DFACE
8
0
70
0
10
52.708355
20
166.395081
30
82.980804
11
51.932774
21
176.369751
31
83.537582
12
43.325111
22
177.580811
32
106.758598
13
43.325111
23
177.580811
33
106.758598
0
3DFACE
8
0
70
0
10
13.640578
20
165.703064
30
109.544304
11
28.476768
21
164.862274
31
103.641167
12
29.127228
22
181.120850
32
109.793030
13
29.127228
23
181.120850
33
109.793030
0
3DFACE
8
0
70
0
10
28.476768
20
164.862274
30
103.641167
11
43.325111
21
177.580811
31
106.758598
12
29.127228
22
181.120850
32
109.793030
13
29.127228
23
181.120850
33
109.793030
0
3DFACE
8
0
70
0
10
43.325111
20
177.580811
30
106.758598
11
51.932774
21
176.369751
31
83.537582
12
36.733612
22
192.880157
32
103.582047
13
36.733612
23
192.880157
33
103.582047
0
3DFACE
8
0
70
0
10
51.932774
20
176.369751
30
83.537582
11
52.593170
21
189.678162
31
83.688759
12
36.733612
22
192.880157
32
103.582047
13
36.733612
23
192.880157
33
103.582047
0
3DFACE
8
0
70
0
10
29.127228
20
181.120850
30
109.793030
11
36.733612
21
192.880157
31
103.582047
12
23.954212
22
194.607910
32
109.868759
13
23.954212
23
194.607910
33
109.868759
0
3DFACE
8
0
70
0
10
43.325111
20
177.580811
30
106.758598
11
36.733612
21
192.880157
31
103.582047
12
29.127228
22
181.120850
32
109.793030
13
29.127228
23
181.120850
33
109.793030
0
3DFACE
8
0
70
0
10
36.733612
20
192.880157
30
103.582047
11
52.593170
21
189.678162
31
83.688759
12
46.273094
22
209.226746
32
98.868324
13
46.273094
23
209.226746
33
98.868324
0
3DFACE
8
0
70
0
10
52.593170
20
189.678162
30
83.688759
11
57.366150
21
200.250061
31
83.005699
12
46.273094
22
209.226746
32
98.868324
13
46.273094
23
209.226746
33
98.868324
0
3DFACE
8
0
70
0
10
-43.227325
20
189.250183
30
82.980804
11
-29.808599
21
195.003693
31
106.758598
12
-38.037701
22
197.803741
32
83.537582
13
-38.037701
23
197.803741
33
83.537582
0
3DFACE
8
0
70
0
10
-22.289671
20
176.956543
30
103.641167
11
-29.808599
21
195.003693
31
106.758598
12
-43.227325
22
189.250183
32
82.980804
13
-43.227325
23
189.250183
33
82.980804
0
3DFACE
8
0
70
0
10
-22.289671
20
176.956543
30
103.641167
11
-15.539638
21
191.761993
31
109.793030
12
-29.808599
22
195.003693
32
106.758598
13
-29.808599
23
195.003693
33
106.758598
0
3DFACE
8
0
70
0
10
-8.668015
20
171.017700
30
109.544304
11
-15.539638
21
191.761993
31
109.793030
12
-22.289671
22
176.956543
32
103.641167
13
-22.289671
23
176.956543
33
103.641167
0
3DFACE
8
0
70
0
10
-38.037701
20
197.803741
30
83.537582
11
-16.178684
21
205.485657
31
103.582047
12
-32.626705
22
209.980408
32
83.688759
13
-32.626705
23
209.980408
33
83.688759
0
3DFACE
8
0
70
0
10
-29.808599
20
195.003693
30
106.758598
11
-16.178684
21
205.485657
31
103.582047
12
-38.037701
22
197.803741
32
83.537582
13
-38.037701
23
197.803741
33
83.537582
0
3DFACE
8
0
70
0
10
-15.539638
20
191.761993
30
109.793030
11
-4.841275
21
201.467957
31
109.868759
12
-16.178684
22
205.485657
32
103.582047
13
-16.178684
23
205.485657
33
103.582047
0
3DFACE
8
0
70
0
10
-29.808599
20
195.003693
30
106.758598
11
-15.539638
21
191.761993
31
109.793030
12
-16.178684
22
205.485657
32
103.582047
13
-16.178684
23
205.485657
33
103.582047
0
3DFACE
8
0
70
0
10
-32.626705
20
209.980408
30
83.688759
11
-15.727598
21
225.744537
31
98.868324
12
-30.974152
22
223.785065
32
83.005699
13
-30.974152
23
223.785065
33
83.005699
0
3DFACE
8
0
70
0
10
-16.178684
20
205.485657
30
103.582047
11
-15.727598
21
225.744537
31
98.868324
12
-32.626705
22
209.980408
32
83.688759
13
-32.626705
23
209.980408
33
83.688759
0
3DFACE
8
0
70
0
10
31.960323
20
-84.612823
30
39.746830
11
28.866865
21
-62.634239
31
27.130060
12
20.755999
22
-60.739281
32
-0.006101
13
20.755999
23
-60.739281
33
-0.006101
0
3DFACE
8
0
70
0
10
31.960323
20
-84.612823
30
39.746830
11
20.755999
21
-60.739281
31
-0.006101
12
23.811213
22
-83.311974
32
14.869128
13
23.811213
23
-83.311974
33
14.869128
0
3DFACE
8
0
70
0
10
31.960323
20
-84.612823
30
39.746830
11
73.297363
21
-62.440086
31
17.813663
12
28.866865
22
-62.634239
32
27.130060
13
28.866865
23
-62.634239
33
27.130060
0
3DFACE
8
0
70
0
10
31.960323
20
-84.612823
30
39.746830
11
70.052200
21
-84.454185
31
31.188068
12
73.297363
22
-62.440086
32
17.813663
13
73.297363
23
-62.440086
33
17.813663
0
3DFACE
8
0
70
0
10
70.052200
20
-84.454185
30
31.188068
11
84.641670
21
-61.391724
31
0.514812
12
73.297363
22
-62.440086
32
17.813663
13
73.297363
23
-62.440086
33
17.813663
0
3DFACE
8
0
70
0
10
70.052200
20
-84.454185
30
31.188068
11
79.783958
21
-83.730309
31
15.327861
12
84.641670
22
-61.391724
32
0.514812
13
84.641670
23
-61.391724
33
0.514812
0
3DFACE
8
0
70
0
10
32.392075
20
-82.082733
30
-10.940751
11
20.755999
21
-60.739281
31
-0.006101
12
29.345118
22
-58.936775
32
-28.172729
13
29.345118
23
-58.936775
33
-28.172729
0
3DFACE
8
0
70
0
10
23.811213
20
-83.311974
30
14.869128
11
20.755999
21
-60.739281
31
-0.006101
12
32.392075
22
-82.082733
32
-10.940751
13
32.392075
23
-82.082733
33
-10.940751
0
3DFACE
8
0
70
0
10
70.332840
20
-82.809624
30
-1.758861
11
73.608223
21
-60.036736
31
-18.133150
12
84.641670
22
-61.391724
32
0.514812
13
84.641670
23
-61.391724
33
0.514812
0
3DFACE
8
0
70
0
10
79.783958
20
-83.730309
30
15.327861
11
70.332840
21
-82.809624
31
-1.758861
12
84.641670
22
-61.391724
32
0.514812
13
84.641670
23
-61.391724
33
0.514812
0
3DFACE
8
0
70
0
10
32.392075
20
-82.082733
30
-10.940751
11
29.345118
21
-58.936775
31
-28.172729
12
73.608223
22
-60.036736
32
-18.133150
13
73.608223
23
-60.036736
33
-18.133150
0
3DFACE
8
0
70
0
10
70.332840
20
-82.809624
30
-1.758861
11
32.392075
21
-82.082733
31
-10.940751
12
73.608223
22
-60.036736
32
-18.133150
13
73.608223
23
-60.036736
33
-18.133150
0
3DFACE
8
0
70
0
10
-35.782665
20
-84.639275
30
39.766029
11
-27.640629
21
-83.335945
31
14.886171
12
-24.597250
22
-60.770294
32
0.013252
13
-24.597250
23
-60.770294
33
0.013252
0
3DFACE
8
0
70
0
10
-35.782665
20
-84.639275
30
39.766029
11
-24.597250
21
-60.770294
31
0.013252
12
-32.700214
22
-62.671951
32
27.151489
13
-32.700214
23
-62.671951
33
27.151489
0
3DFACE
8
0
70
0
10
-35.782665
20
-84.639275
30
39.766029
11
-32.700214
21
-62.671951
31
27.151489
12
-77.133255
22
-62.491539
32
17.847233
13
-77.133255
23
-62.491539
33
17.847233
0
3DFACE
8
0
70
0
10
-35.782665
20
-84.639275
30
39.766029
11
-77.133255
21
-62.491539
31
17.847233
12
-73.876877
22
-84.492737
32
31.217672
13
-73.876877
23
-84.492737
33
31.217672
0
3DFACE
8
0
70
0
10
-73.876877
20
-84.492737
30
31.217672
11
-77.133255
21
-62.491539
31
17.847233
12
-88.482552
22
-61.444527
32
0.551552
13
-88.482552
23
-61.444527
33
0.551552
0
3DFACE
8
0
70
0
10
-73.876877
20
-84.492737
30
31.217672
11
-88.482552
21
-61.444527
31
0.551552
12
-83.613113
22
-83.772011
32
15.360157
13
-83.613113
23
-83.772011
33
15.360157
0
3DFACE
8
0
70
0
10
-36.228783
20
-82.109512
30
-10.921304
11
-33.194515
21
-58.966629
31
-28.150902
12
-24.597250
22
-60.770294
32
0.013252
13
-24.597250
23
-60.770294
33
0.013252
0
3DFACE
8
0
70
0
10
-27.640629
20
-83.335945
30
14.886171
11
-36.228783
21
-82.109512
31
-10.921304
12
-24.597250
22
-60.770294
32
0.013252
13
-24.597250
23
-60.770294
33
0.013252
0
3DFACE
8
0
70
0
10
-83.613113
20
-83.772011
30
15.360157
11
-88.482552
21
-61.444527
31
0.551552
12
-74.166855
22
-82.848396
32
-1.729097
13
-74.166855
23
-82.848396
33
-1.729097
0
3DFACE
8
0
70
0
10
-74.166855
20
-82.848396
30
-1.729097
11
-88.482552
21
-61.444527
31
0.551552
12
-77.454552
22
-60.083084
32
-18.099323
13
-77.454552
23
-60.083084
33
-18.099323
0
3DFACE
8
0
70
0
10
-74.166855
20
-82.848396
30
-1.729097
11
-77.454552
21
-60.083084
31
-18.099323
12
-36.228783
22
-82.109512
32
-10.921304
13
-36.228783
23
-82.109512
33
-10.921304
0
3DFACE
8
0
70
0
10
-36.228783
20
-82.109512
30
-10.921304
11
-77.454552
21
-60.083084
31
-18.099323
12
-33.194515
22
-58.966629
32
-28.150902
13
-33.194515
23
-58.966629
33
-28.150902
0
3DFACE
8
0
70
0
10
32.705616
20
-101.959900
30
22.278912
11
31.960323
21
-84.612823
31
39.746830
12
23.811213
22
-83.311974
32
14.869128
13
23.811213
23
-83.311974
33
14.869128
0
3DFACE
8
0
70
0
10
25.449350
20
-125.331673
30
-5.674515
11
32.705616
21
-101.959900
31
22.278912
12
23.811213
22
-83.311974
32
14.869128
13
23.811213
23
-83.311974
33
14.869128
0
3DFACE
8
0
70
0
10
68.678246
20
-106.827919
30
12.514832
11
70.052200
21
-84.454185
31
31.188068
12
32.705616
22
-101.959900
32
22.278912
13
32.705616
23
-101.959900
33
22.278912
0
3DFACE
8
0
70
0
10
32.705616
20
-101.959900
30
22.278912
11
70.052200
21
-84.454185
31
31.188068
12
31.960323
22
-84.612823
32
39.746830
13
31.960323
23
-84.612823
33
39.746830
0
3DFACE
8
0
70
0
10
77.593941
20
-125.529755
30
-5.329916
11
79.783958
21
-83.730309
31
15.327861
12
68.678246
22
-106.827919
32
12.514832
13
68.678246
23
-106.827919
33
12.514832
0
3DFACE
8
0
70
0
10
68.678246
20
-106.827919
30
12.514832
11
79.783958
21
-83.730309
31
15.327861
12
70.052200
22
-84.454185
32
31.188068
13
70.052200
23
-84.454185
33
31.188068
0
3DFACE
8
0
70
0
10
25.449350
20
-125.331673
30
-5.674515
11
23.811213
21
-83.311974
31
14.869128
12
32.392075
22
-82.082733
32
-10.940751
13
32.392075
23
-82.082733
33
-10.940751
0
3DFACE
8
0
70
0
10
8.210526
20
-150.090546
30
-35.459000
11
25.449350
21
-125.331673
31
-5.674515
12
32.392075
22
-82.082733
32
-10.940751
13
32.392075
23
-82.082733
33
-10.940751
0
3DFACE
8
0
70
0
10
85.094376
20
-149.440567
30
-33.039974
11
70.332840
21
-82.809624
31
-1.758861
12
77.593941
22
-125.529755
32
-5.329916
13
77.593941
23
-125.529755
33
-5.329916
0
3DFACE
8
0
70
0
10
77.593941
20
-125.529755
30
-5.329916
11
70.332840
21
-82.809624
31
-1.758861
12
79.783958
22
-83.730309
32
15.327861
13
79.783958
23
-83.730309
33
15.327861
0
3DFACE
8
0
70
0
10
8.210526
20
-150.090546
30
-35.459000
11
32.392075
21
-82.082733
31
-10.940751
12
85.094376
22
-149.440567
32
-33.039974
13
85.094376
23
-149.440567
33
-33.039974
0
3DFACE
8
0
70
0
10
85.094376
20
-149.440567
30
-33.039974
11
32.392075
21
-82.082733
31
-10.940751
12
70.332840
22
-82.809624
32
-1.758861
13
70.332840
23
-82.809624
33
-1.758861
0
3DFACE
8
0
70
0
10
-29.267130
20
-125.345802
30
-5.654927
11
-27.640629
21
-83.335945
31
14.886171
12
-36.523037
22
-101.972214
32
22.297003
13
-36.523037
23
-101.972214
33
22.297003
0
3DFACE
8
0
70
0
10
-36.523037
20
-101.972214
30
22.297003
11
-27.640629
21
-83.335945
31
14.886171
12
-35.782665
22
-84.639275
32
39.766029
13
-35.782665
23
-84.639275
33
39.766029
0
3DFACE
8
0
70
0
10
-36.523037
20
-101.972214
30
22.297003
11
-35.782665
21
-84.639275
31
39.766029
12
-73.876877
22
-84.492737
32
31.217672
13
-73.876877
23
-84.492737
33
31.217672
0
3DFACE
8
0
70
0
10
-72.496582
20
-106.849930
30
12.541440
11
-36.523037
21
-101.972214
31
22.297003
12
-73.876877
22
-84.492737
32
31.217672
13
-73.876877
23
-84.492737
33
31.217672
0
3DFACE
8
0
70
0
10
-72.496582
20
-106.849930
30
12.541440
11
-73.876877
21
-84.492737
31
31.217672
12
-83.613113
22
-83.772011
32
15.360157
13
-83.613113
23
-83.772011
33
15.360157
0
3DFACE
8
0
70
0
10
-81.411575
20
-125.556137
30
-5.298913
11
-72.496582
21
-106.849930
31
12.541440
12
-83.613113
22
-83.772011
32
15.360157
13
-83.613113
23
-83.772011
33
15.360157
0
3DFACE
8
0
70
0
10
-12.028728
20
-150.104370
30
-35.439911
11
-36.228783
21
-82.109512
31
-10.921304
12
-29.267130
22
-125.345802
32
-5.654927
13
-29.267130
23
-125.345802
33
-5.654927
0
3DFACE
8
0
70
0
10
-29.267130
20
-125.345802
30
-5.654927
11
-36.228783
21
-82.109512
31
-10.921304
12
-27.640629
22
-83.335945
32
14.886171
13
-27.640629
23
-83.335945
33
14.886171
0
3DFACE
8
0
70
0
10
-81.411575
20
-125.556137
30
-5.298913
11
-83.613113
21
-83.772011
31
15.360157
12
-74.166855
22
-82.848396
32
-1.729097
13
-74.166855
23
-82.848396
33
-1.729097
0
3DFACE
8
0
70
0
10
-88.912186
20
-149.472214
30
-33.004185
11
-81.411575
21
-125.556137
31
-5.298913
12
-74.166855
22
-82.848396
32
-1.729097
13
-74.166855
23
-82.848396
33
-1.729097
0
3DFACE
8
0
70
0
10
-88.912186
20
-149.472214
30
-33.004185
11
-74.166855
21
-82.848396
31
-1.729097
12
-36.228783
22
-82.109512
32
-10.921304
13
-36.228783
23
-82.109512
33
-10.921304
0
3DFACE
8
0
70
0
10
-12.028728
20
-150.104370
30
-35.439911
11
-88.912186
21
-149.472214
31
-33.004185
12
-36.228783
22
-82.109512
32
-10.921304
13
-36.228783
23
-82.109512
33
-10.921304
0
3DFACE
8
0
70
0
10
104.987679
20
15.132889
30
77.905914
11
-1.927171
21
30.165344
31
118.979767
12
-1.927171
22
14.636017
32
108.501472
13
-1.927171
23
14.636017
33
108.501472
0
3DFACE
8
0
70
0
10
104.987679
20
15.132889
30
77.905914
11
105.950035
21
44.956711
31
87.559349
12
-1.927171
22
30.165344
32
118.979767
13
-1.927171
23
30.165344
33
118.979767
0
3DFACE
8
0
70
0
10
104.987679
20
17.938446
30
-78.999100
11
-1.922106
21
18.464081
31
-109.586929
12
-1.927172
22
48.693878
32
-103.878754
13
-1.927172
23
48.693878
33
-103.878754
0
3DFACE
8
0
70
0
10
104.987679
20
17.938446
30
-78.999100
11
-1.927172
21
48.693878
31
-103.878754
12
105.950035
22
47.755951
32
-68.993019
13
105.950035
23
47.755951
33
-68.993019
0
3DFACE
8
0
70
0
10
104.987679
20
15.132889
30
77.905914
11
131.954681
21
46.512650
31
0.540684
12
105.950035
22
44.956711
32
87.559349
13
105.950035
23
44.956711
33
87.559349
0
3DFACE
8
0
70
0
10
104.987679
20
15.132889
30
77.905914
11
130.768143
21
16.497757
31
1.573750
12
131.954681
22
46.512650
32
0.540684
13
131.954681
23
46.512650
33
0.540684
0
3DFACE
8
0
70
0
10
130.768143
20
16.497757
30
1.573750
11
104.987679
21
17.938446
31
-78.999100
12
105.950035
22
47.755951
32
-68.993019
13
105.950035
23
47.755951
33
-68.993019
0
3DFACE
8
0
70
0
10
130.768143
20
16.497757
30
1.573750
11
105.950035
21
47.755951
31
-68.993019
12
131.954681
22
46.512650
32
0.540684
13
131.954681
23
46.512650
33
0.540684
0
3DFACE
8
0
70
0
10
-108.842026
20
15.132889
30
77.905914
11
-1.927171
21
14.636017
31
108.501472
12
-1.927171
22
30.165344
32
118.979767
13
-1.927171
23
30.165344
33
118.979767
0
3DFACE
8
0
70
0
10
-108.842026
20
15.132889
30
77.905914
11
-1.927171
21
30.165344
31
118.979767
12
-109.804375
22
44.956696
32
87.559349
13
-109.804375
23
44.956696
33
87.559349
0
3DFACE
8
0
70
0
10
-108.842026
20
17.938446
30
-78.999100
11
-1.927172
21
48.693878
31
-103.878754
12
-1.922106
22
18.464081
32
-109.586929
13
-1.922106
23
18.464081
33
-109.586929
0
3DFACE
8
0
70
0
10
-108.842026
20
17.938446
30
-78.999100
11
-109.804375
21
47.755951
31
-68.993019
12
-1.927172
22
48.693878
32
-103.878754
13
-1.927172
23
48.693878
33
-103.878754
0
3DFACE
8
0
70
0
10
-108.842026
20
15.132889
30
77.905914
11
-135.809021
21
46.512650
31
0.540683
12
-134.622482
22
16.497742
32
1.573749
13
-134.622482
23
16.497742
33
1.573749
0
3DFACE
8
0
70
0
10
-108.842026
20
15.132889
30
77.905914
11
-109.804375
21
44.956696
31
87.559349
12
-135.809021
22
46.512650
32
0.540683
13
-135.809021
23
46.512650
33
0.540683
0
3DFACE
8
0
70
0
10
-134.622482
20
16.497742
30
1.573749
11
-135.809021
21
46.512650
31
0.540683
12
-109.804375
22
47.755951
32
-68.993019
13
-109.804375
23
47.755951
33
-68.993019
0
3DFACE
8
0
70
0
10
-134.622482
20
16.497742
30
1.573749
11
-109.804375
21
47.755951
31
-68.993019
12
-108.842026
22
17.938446
32
-78.999100
13
-108.842026
23
17.938446
33
-78.999100
0
3DFACE
8
0
70
0
10
-1.927171
20
30.165344
30
118.979767
11
55.285446
21
112.275513
31
55.623241
12
-1.927171
22
108.639740
32
62.808678
13
-1.927171
23
108.639740
33
62.808678
0
3DFACE
8
0
70
0
10
-1.927171
20
30.165344
30
118.979767
11
105.950035
21
44.956711
31
87.559349
12
55.285446
22
112.275513
32
55.623241
13
55.285446
23
112.275513
33
55.623241
0
3DFACE
8
0
70
0
10
105.950035
20
47.755951
30
-68.993019
11
-1.927172
21
48.693878
31
-103.878754
12
55.239754
22
133.536987
32
-41.984444
13
55.239754
23
133.536987
33
-41.984444
0
3DFACE
8
0
70
0
10
-1.927172
20
48.693878
30
-103.878754
11
-1.268180
21
138.404419
31
-50.673580
12
55.239754
22
133.536987
32
-41.984444
13
55.239754
23
133.536987
33
-41.984444
0
3DFACE
8
0
70
0
10
105.950035
20
44.956711
30
87.559349
11
88.490677
21
93.052414
31
-1.165908
12
79.264038
22
112.739380
32
42.389793
13
79.264038
23
112.739380
33
42.389793
0
3DFACE
8
0
70
0
10
105.950035
20
44.956711
30
87.559349
11
131.954681
21
46.512650
31
0.540684
12
88.490677
22
93.052414
32
-1.165908
13
88.490677
23
93.052414
33
-1.165908
0
3DFACE
8
0
70
0
10
105.950035
20
47.755951
30
-68.993019
11
74.980942
21
122.867889
31
-33.576927
12
88.490677
22
93.052414
32
-1.165908
13
88.490677
23
93.052414
33
-1.165908
0
3DFACE
8
0
70
0
10
131.954681
20
46.512650
30
0.540684
11
105.950035
21
47.755951
31
-68.993019
12
88.490677
22
93.052414
32
-1.165908
13
88.490677
23
93.052414
33
-1.165908
0
3DFACE
8
0
70
0
10
105.950035
20
44.956711
30
87.559349
11
79.264038
21
112.739380
31
42.389793
12
55.285446
22
112.275513
32
55.623241
13
55.285446
23
112.275513
33
55.623241
0
3DFACE
8
0
70
0
10
105.950035
20
47.755951
30
-68.993019
11
55.239754
21
133.536987
31
-41.984444
12
74.980942
22
122.867889
32
-33.576927
13
74.980942
23
122.867889
33
-33.576927
0
3DFACE
8
0
70
0
10
-1.927171
20
30.165344
30
118.979767
11
-58.926655
21
113.320984
31
55.586124
12
-109.804375
22
44.956696
32
87.559349
13
-109.804375
23
44.956696
33
87.559349
0
3DFACE
8
0
70
0
10
-1.927171
20
30.165344
30
118.979767
11
-1.927171
21
108.639740
31
62.808678
12
-58.926655
22
113.320984
32
55.586124
13
-58.926655
23
113.320984
33
55.586124
0
3DFACE
8
0
70
0
10
-109.804375
20
47.755951
30
-68.993019
11
-58.338932
21
134.391907
31
-42.120823
12
-1.927172
22
48.693878
32
-103.878754
13
-1.927172
23
48.693878
33
-103.878754
0
3DFACE
8
0
70
0
10
-1.927172
20
48.693878
30
-103.878754
11
-58.338932
21
134.391907
31
-42.120823
12
-1.268180
22
138.404419
32
-50.673580
13
-1.268180
23
138.404419
33
-50.673580
0
3DFACE
8
0
70
0
10
-109.804375
20
44.956696
30
87.559349
11
-83.016861
21
109.830902
31
37.993084
12
-91.327034
22
94.322296
32
-6.247361
13
-91.327034
23
94.322296
33
-6.247361
0
3DFACE
8
0
70
0
10
-109.804375
20
44.956696
30
87.559349
11
-91.327034
21
94.322296
31
-6.247361
12
-135.809021
22
46.512650
32
0.540683
13
-135.809021
23
46.512650
33
0.540683
0
3DFACE
8
0
70
0
10
-135.809021
20
46.512650
30
0.540683
11
-91.327034
21
94.322296
31
-6.247361
12
-109.804375
22
47.755951
32
-68.993019
13
-109.804375
23
47.755951
33
-68.993019
0
3DFACE
8
0
70
0
10
-109.804375
20
47.755951
30
-68.993019
11
-91.327034
21
94.322296
31
-6.247361
12
-76.799911
22
127.105865
32
-33.834141
13
-76.799911
23
127.105865
33
-33.834141
0
3DFACE
8
0
70
0
10
-109.804375
20
44.956696
30
87.559349
11
-58.926655
21
113.320984
31
55.586124
12
-83.016861
22
109.830902
32
37.993084
13
-83.016861
23
109.830902
33
37.993084
0
3DFACE
8
0
70
0
10
-109.804375
20
47.755951
30
-68.993019
11
-76.799911
21
127.105865
31
-33.834141
12
-58.338932
22
134.391907
32
-42.120823
13
-58.338932
23
134.391907
33
-42.120823
0
3DFACE
8
0
70
0
10
88.490677
20
93.052414
30
-1.165908
11
104.458481
21
64.969620
31
12.296865
12
79.264038
22
112.739380
32
42.389793
13
79.264038
23
112.739380
33
42.389793
0
3DFACE
8
0
70
0
10
90.337173
20
36.757889
30
-24.045809
11
104.458481
21
64.969620
31
12.296865
12
88.490677
22
93.052414
32
-1.165908
13
88.490677
23
93.052414
33
-1.165908
0
3DFACE
8
0
70
0
10
79.264038
20
112.739380
30
42.389793
11
140.173065
21
64.322205
31
-26.647043
12
65.915291
22
144.641724
32
0.594694
13
65.915291
23
144.641724
33
0.594694
0
3DFACE
8
0
70
0
10
79.264038
20
112.739380
30
42.389793
11
104.458481
21
64.969620
31
12.296865
12
140.173065
22
64.322205
32
-26.647043
13
140.173065
23
64.322205
33
-26.647043
0
3DFACE
8
0
70
0
10
74.980942
20
122.867889
30
-33.576927
11
65.915291
21
144.641724
31
0.594694
12
140.173065
22
64.322205
32
-26.647043
13
140.173065
23
64.322205
33
-26.647043
0
3DFACE
8
0
70
0
10
74.980942
20
122.867889
30
-33.576927
11
140.173065
21
64.322205
31
-26.647043
12
122.037971
22
37.686050
32
-55.881588
13
122.037971
23
37.686050
33
-55.881588
0
3DFACE
8
0
70
0
10
88.490677
20
93.052414
30
-1.165908
11
74.980942
21
122.867889
31
-33.576927
12
122.037971
22
37.686050
32
-55.881588
13
122.037971
23
37.686050
33
-55.881588
0
3DFACE
8
0
70
0
10
90.337173
20
36.757889
30
-24.045809
11
88.490677
21
93.052414
31
-1.165908
12
122.037971
22
37.686050
32
-55.881588
13
122.037971
23
37.686050
33
-55.881588
0
3DFACE
8
0
70
0
10
-91.327034
20
94.322296
30
-6.247361
11
-83.016861
21
109.830902
31
37.993084
12
-114.227448
22
71.179321
32
-12.163834
13
-114.227448
23
71.179321
33
-12.163834
0
3DFACE
8
0
70
0
10
-102.438416
20
55.005890
30
-55.957283
11
-91.327034
21
94.322296
31
-6.247361
12
-114.227448
22
71.179321
32
-12.163834
13
-114.227448
23
71.179321
33
-12.163834
0
3DFACE
8
0
70
0
10
-83.016861
20
109.830902
30
37.993084
11
-67.259155
21
145.164856
31
1.311036
12
-147.757309
22
88.889038
32
-49.006107
13
-147.757309
23
88.889038
33
-49.006107
0
3DFACE
8
0
70
0
10
-83.016861
20
109.830902
30
37.993084
11
-147.757309
21
88.889038
31
-49.006107
12
-114.227448
22
71.179321
32
-12.163834
13
-114.227448
23
71.179321
33
-12.163834
0
3DFACE
8
0
70
0
10
-76.799911
20
127.105865
30
-33.834141
11
-147.757309
21
88.889038
31
-49.006107
12
-67.259155
22
145.164856
32
1.311036
13
-67.259155
23
145.164856
33
1.311036
0
3DFACE
8
0
70
0
10
-76.799911
20
127.105865
30
-33.834141
11
-132.122513
21
71.209457
31
-85.578163
12
-147.757309
22
88.889038
32
-49.006107
13
-147.757309
23
88.889038
33
-49.006107
0
3DFACE
8
0
70
0
10
-91.327034
20
94.322296
30
-6.247361
11
-132.122513
21
71.209457
31
-85.578163
12
-76.799911
22
127.105865
32
-33.834141
13
-76.799911
23
127.105865
33
-33.834141
0
3DFACE
8
0
70
0
10
-102.438416
20
55.005890
30
-55.957283
11
-132.122513
21
71.209457
31
-85.578163
12
-91.327034
22
94.322296
32
-6.247361
13
-91.327034
23
94.322296
33
-6.247361
0
3DFACE
8
0
70
0
10
-115.886131
20
23.864594
30
-25.157486
11
-102.438416
21
55.005890
31
-55.957283
12
-114.227448
22
71.179321
32
-12.163834
13
-114.227448
23
71.179321
33
-12.163834
0
3DFACE
8
0
70
0
10
-115.886131
20
23.864594
30
-25.157486
11
-114.227448
21
71.179321
31
-12.163834
12
-113.602539
22
65.709976
32
-0.537062
13
-113.602539
23
65.709976
33
-0.537062
0
3DFACE
8
0
70
0
10
-113.602539
20
65.709976
30
-0.537062
11
-114.227448
21
71.179321
31
-12.163834
12
-147.757309
22
88.889038
32
-49.006107
13
-147.757309
23
88.889038
33
-49.006107
0
3DFACE
8
0
70
0
10
-113.602539
20
65.709976
30
-0.537062
11
-147.757309
21
88.889038
31
-49.006107
12
-164.202255
22
54.256241
32
-12.016767
13
-164.202255
23
54.256241
33
-12.016767
0
3DFACE
8
0
70
0
10
-159.875092
20
16.335815
30
-33.721085
11
-164.202255
21
54.256241
31
-12.016767
12
-147.757309
22
88.889038
32
-49.006107
13
-147.757309
23
88.889038
33
-49.006107
0
3DFACE
8
0
70
0
10
-159.875092
20
16.335815
30
-33.721085
11
-147.757309
21
88.889038
31
-49.006107
12
-132.122513
22
71.209457
32
-85.578163
13
-132.122513
23
71.209457
33
-85.578163
0
3DFACE
8
0
70
0
10
-115.886131
20
23.864594
30
-25.157486
11
-159.875092
21
16.335815
31
-33.721085
12
-132.122513
22
71.209457
32
-85.578163
13
-132.122513
23
71.209457
33
-85.578163
0
3DFACE
8
0
70
0
10
-115.886131
20
23.864594
30
-25.157486
11
-132.122513
21
71.209457
31
-85.578163
12
-102.438416
22
55.005890
32
-55.957283
13
-102.438416
23
55.005890
33
-55.957283
0
3DFACE
8
0
70
0
10
100.331902
20
14.291183
30
14.118170
11
104.458481
21
64.969620
31
12.296865
12
90.337173
22
36.757889
32
-24.045809
13
90.337173
23
36.757889
33
-24.045809
0
3DFACE
8
0
70
0
10
100.331902
20
14.291183
30
14.118170
11
104.238548
21
61.956497
31
22.788406
12
104.458481
22
64.969620
32
12.296865
13
104.458481
23
64.969620
33
12.296865
0
3DFACE
8
0
70
0
10
104.238548
20
61.956497
30
22.788406
11
140.173065
21
64.322205
31
-26.647043
12
104.458481
22
64.969620
32
12.296865
13
104.458481
23
64.969620
33
12.296865
0
3DFACE
8
0
70
0
10
104.238548
20
61.956497
30
22.788406
11
152.599457
21
40.325974
31
18.708511
12
140.173065
22
64.322205
32
-26.647043
13
140.173065
23
64.322205
33
-26.647043
0
3DFACE
8
0
70
0
10
142.732376
20
-1.769791
30
11.069991
11
122.037971
21
37.686050
31
-55.881588
12
140.173065
22
64.322205
32
-26.647043
13
140.173065
23
64.322205
33
-26.647043
0
3DFACE
8
0
70
0
10
142.732376
20
-1.769791
30
11.069991
11
140.173065
21
64.322205
31
-26.647043
12
152.599457
22
40.325974
32
18.708511
13
152.599457
23
40.325974
33
18.708511
0
3DFACE
8
0
70
0
10
100.331902
20
14.291183
30
14.118170
11
90.337173
21
36.757889
31
-24.045809
12
122.037971
22
37.686050
32
-55.881588
13
122.037971
23
37.686050
33
-55.881588
0
3DFACE
8
0
70
0
10
100.331902
20
14.291183
30
14.118170
11
122.037971
21
37.686050
31
-55.881588
12
142.732376
22
-1.769791
32
11.069991
13
142.732376
23
-1.769791
33
11.069991
0
3DFACE
8
0
70
0
10
59.098866
20
290.918274
30
-26.898867
11
60.354076
21
286.022064
31
-27.140953
12
30.359913
22
267.737885
32
-5.239272
13
20.491312
23
280.304657
33
-1.268029
0
3DFACE
8
0
70
0
10
64.408081
20
284.011505
30
-24.876141
11
45.657036
21
263.192261
31
1.827978
12
30.359913
22
267.737885
32
-5.239272
13
60.354076
23
286.022064
33
-27.140953
0
3DFACE
8
0
70
0
10
68.266830
20
283.835541
30
-22.336878
11
58.130417
21
263.403259
31
11.059376
12
45.657036
22
263.192261
32
1.827978
13
64.408081
23
284.011505
33
-24.876141
0
3DFACE
8
0
70
0
10
69.984177
20
286.556732
30
-20.588852
11
60.319798
21
270.807159
31
19.202578
12
58.130417
22
263.403259
32
11.059376
13
68.266830
23
283.835541
33
-22.336878
0
3DFACE
8
0
70
0
10
72.173271
20
289.851990
30
-18.398912
11
63.318878
21
279.792053
31
29.332806
12
60.319798
22
270.807159
32
19.202578
13
69.984177
23
286.556732
33
-20.588852
0
3DFACE
8
0
70
0
10
71.469185
20
293.750488
30
-18.008821
11
56.399746
21
289.849396
31
33.220829
12
63.318878
22
279.792053
32
29.332806
13
72.173271
23
289.851990
33
-18.398912
0
3DFACE
8
0
70
0
10
70.615471
20
296.601685
30
-17.949867
11
50.262817
21
297.146118
31
35.231655
12
56.399746
22
289.849396
32
33.220829
13
71.469185
23
293.750488
33
-18.008821
0
3DFACE
8
0
70
0
10
70.615471
20
296.601685
30
-17.949867
11
68.268898
21
297.913757
31
-19.228081
12
41.230354
22
300.164429
32
31.354620
13
50.262817
23
297.146118
33
35.231655
0
3DFACE
8
0
70
0
10
68.268898
20
297.913757
30
-19.228081
11
65.006790
21
299.174896
31
-21.129225
12
29.349697
22
302.890686
32
25.153755
13
41.230354
23
300.164429
33
31.354620
0
3DFACE
8
0
70
0
10
65.006790
20
299.174896
30
-21.129225
11
61.927193
21
297.038055
31
-23.658428
12
22.129654
22
296.776001
32
14.504245
13
29.349697
23
302.890686
33
25.153755
0
3DFACE
8
0
70
0
10
61.927193
20
297.038055
30
-23.658428
11
59.394577
21
295.377472
31
-25.717062
12
16.075859
22
291.999878
32
5.885625
13
22.129654
23
296.776001
33
14.504245
0
3DFACE
8
0
70
0
10
59.394577
20
295.377472
30
-25.717062
11
59.098866
21
290.918274
31
-26.898867
12
20.491312
22
280.304657
32
-1.268029
13
16.075859
23
291.999878
33
5.885625
0
ENDSEC
0
EOF
