0
SECTION
2
HEADER
999
DXF File Generated by LightWave 3D(TM)
0
ENDSEC
0
SECTION
2
TABLES
0
ENDSEC
0
SECTION
2
BLOCKS
0
ENDSEC
0
SECTION
2
ENTITIES
0
3DFACE
8
0
70
0
10
27.648445
20
-11.783218
30
83.520912
11
84.360947
21
-60.267982
31
54.292595
12
109.606255
22
-48.231705
32
18.507601
13
89.183731
23
-17.125458
33
50.545189
0
3DFACE
8
0
70
0
10
72.104195
20
-46.927200
30
-66.691101
11
72.599136
21
-47.448021
31
-50.638588
12
27.426914
22
-59.062317
32
-52.086159
13
3.525210
23
-53.875366
33
-82.064278
0
3DFACE
8
0
70
0
10
30.699614
20
-13.560959
30
104.668968
11
27.648445
21
-11.783218
31
83.520912
12
89.183731
22
-17.125458
32
50.545189
13
112.371429
23
-20.317902
33
63.197983
0
3DFACE
8
0
70
0
10
90.756737
20
-58.032944
30
-85.168221
11
72.104195
21
-46.927200
31
-66.691101
12
3.525210
22
-53.875366
32
-82.064278
13
0.655192
23
-65.984863
33
-101.560051
0
3DFACE
8
0
70
0
10
32.376186
20
-6.942688
30
116.070892
11
118.709076
21
-14.708832
31
70.089348
12
132.170395
22
39.434174
32
61.441082
13
31.634861
23
48.226929
33
109.357079
0
3DFACE
8
0
70
0
10
94.284477
20
-57.326820
30
-97.564453
11
-1.574011
21
-66.181694
31
-116.967903
12
-2.315848
22
-11.005310
32
-123.683640
13
107.745796
23
-3.183807
33
-106.212723
0
3DFACE
8
0
70
0
10
31.634861
20
48.226929
30
109.357079
11
132.170395
21
39.434174
31
61.441082
12
124.987556
22
38.584320
32
54.083939
13
29.893820
23
46.406448
33
97.371300
0
3DFACE
8
0
70
0
10
32.376186
20
-6.942688
30
116.070892
11
30.699614
21
-13.560959
31
104.668968
12
112.371429
22
-20.317902
32
63.197983
13
118.709076
23
-14.708832
33
70.089348
0
3DFACE
8
0
70
0
10
107.745796
20
-3.183807
30
-106.212723
11
-2.315848
21
-11.005310
31
-123.683640
12
-0.176368
22
-5.769348
32
-108.924103
13
103.372864
23
0.869293
33
-94.282265
0
3DFACE
8
0
70
0
10
94.284477
20
-57.326820
30
-97.564453
11
90.756737
21
-58.032944
31
-85.168221
12
0.655192
22
-65.984863
32
-101.560051
13
-1.574011
23
-66.181694
33
-116.967903
0
3DFACE
8
0
70
0
10
52.034092
20
-119.444244
30
66.616020
11
99.174042
21
-119.444244
31
66.616020
12
91.337730
22
-98.812729
32
51.800526
13
58.348213
23
-98.998032
33
51.800526
0
3DFACE
8
0
70
0
10
89.183731
20
-17.125458
30
50.545189
11
109.606255
21
-48.231705
31
18.507601
12
101.202103
22
-48.710648
32
-20.058519
13
96.420456
23
-31.765045
33
-9.044450
0
3DFACE
8
0
70
0
10
112.371429
20
-20.317902
30
63.197983
11
89.183731
21
-17.125458
31
50.545189
12
96.420456
22
-31.765045
32
-9.044450
13
122.678947
23
-38.752441
33
-11.991687
0
3DFACE
8
0
70
0
10
132.170395
20
39.434174
30
61.441082
11
118.709076
21
-14.708832
31
70.089348
12
129.141602
22
-35.202728
32
-13.368587
13
145.921677
23
18.926468
33
-22.496834
0
3DFACE
8
0
70
0
10
145.921677
20
18.926468
30
-22.496834
11
138.418503
21
20.136780
31
-21.557465
12
124.987556
22
38.584320
32
54.083939
13
132.170395
23
39.434174
33
61.441082
0
3DFACE
8
0
70
0
10
118.709076
20
-14.708832
30
70.089348
11
112.371429
21
-20.317902
31
63.197983
12
122.678947
22
-38.752441
32
-11.991687
13
129.141602
23
-35.202728
33
-13.368587
0
3DFACE
8
0
70
0
10
37.267208
20
-152.844193
30
66.616020
11
104.450607
21
-153.029510
31
66.616020
12
99.174042
22
-119.444244
32
66.616020
13
52.034092
23
-119.444244
33
66.616020
0
3DFACE
8
0
70
0
10
7.123433
20
166.882263
30
-12.786493
11
67.139061
21
149.129578
31
-16.499142
12
59.277988
22
135.290833
32
-59.297466
13
2.721585
23
139.313721
33
-59.527321
0
3DFACE
8
0
70
0
10
96.420456
20
-31.765045
30
-9.044450
11
101.202103
21
-48.710648
31
-20.058519
12
72.599136
22
-47.448021
32
-50.638588
13
72.104195
23
-46.927200
33
-66.691101
0
3DFACE
8
0
70
0
10
122.678947
20
-38.752441
30
-11.991687
11
96.420456
21
-31.765045
31
-9.044450
12
72.104195
22
-46.927200
32
-66.691101
13
90.756737
23
-58.032944
33
-85.168221
0
3DFACE
8
0
70
0
10
129.141602
20
-35.202728
30
-13.368587
11
94.284477
21
-57.326820
31
-97.564453
12
107.745796
22
-3.183807
32
-106.212723
13
145.921677
23
18.926468
33
-22.496834
0
3DFACE
8
0
70
0
10
107.745796
20
-3.183807
30
-106.212723
11
103.372864
21
0.869293
31
-94.282265
12
138.418503
22
20.136780
32
-21.557465
13
145.921677
23
18.926468
33
-22.496834
0
3DFACE
8
0
70
0
10
129.141602
20
-35.202728
30
-13.368587
11
122.678947
21
-38.752441
31
-11.991687
12
90.756737
22
-58.032944
32
-85.168221
13
94.284477
23
-57.326820
33
-97.564453
0
3DFACE
8
0
70
0
10
75.430435
20
-79.434792
30
18.775362
11
84.360947
21
-60.267982
31
54.292595
12
50.480618
22
-65.746071
32
4.674600
13
55.040966
23
-80.279976
33
0.948550
0
3DFACE
8
0
70
0
10
75.430435
20
-79.434792
30
18.775362
11
104.120697
21
-63.915100
31
-8.913575
12
109.606255
22
-48.231705
32
18.507601
13
84.360947
23
-60.267982
33
54.292595
0
3DFACE
8
0
70
0
10
104.120697
20
-63.915100
30
-8.913575
11
103.606483
21
-58.923935
31
-27.822121
12
101.202103
22
-48.710648
32
-20.058519
13
109.606255
23
-48.231705
33
18.507601
0
3DFACE
8
0
70
0
10
55.040966
20
-80.279976
30
0.948550
11
50.480618
21
-65.746071
31
4.674600
12
27.426914
22
-59.062317
32
-52.086159
13
46.733730
23
-75.462166
33
-25.324739
0
3DFACE
8
0
70
0
10
103.606483
20
-58.923935
30
-27.822121
11
85.467834
21
-61.332893
31
-37.578632
12
72.599136
22
-47.448021
32
-50.638588
13
101.202103
23
-48.710648
33
-20.058519
0
3DFACE
8
0
70
0
10
85.467834
20
-61.332893
30
-37.578632
11
46.733730
21
-75.462166
31
-25.324739
12
27.426914
22
-59.062317
32
-52.086159
13
72.599136
23
-47.448021
33
-50.638588
0
3DFACE
8
0
70
0
10
57.297878
20
-133.092789
30
-33.157761
11
52.034088
21
-127.827744
31
7.724421
12
58.348209
22
-108.736435
32
-0.053719
13
75.882301
23
-116.512901
33
-5.453548
0
3DFACE
8
0
70
0
10
75.882301
20
-116.512901
30
-5.453548
11
58.348209
21
-108.736435
31
-0.053719
12
91.337723
22
-112.334427
32
-0.053720
13
100.567368
23
-110.147003
33
-28.452213
0
3DFACE
8
0
70
0
10
99.617134
20
-121.341202
30
-52.899075
11
100.567368
21
-110.147003
31
-28.452213
12
91.337723
22
-112.334427
32
-0.053720
13
99.174034
23
-127.827744
33
7.724421
0
3DFACE
8
0
70
0
10
29.809450
20
-152.813248
30
-58.985710
11
40.971077
21
-150.617310
31
-3.387204
12
52.034088
22
-127.827744
32
7.724421
13
57.297878
23
-133.092789
33
-33.157761
0
3DFACE
8
0
70
0
10
93.068481
20
-135.115967
30
-86.284920
11
99.617134
21
-121.341202
31
-52.899075
12
99.174034
22
-127.827744
32
7.724421
13
108.154465
23
-150.723206
33
0.316676
0
3DFACE
8
0
70
0
10
93.068481
20
-135.115967
30
-86.284920
11
108.154465
21
-150.723206
31
0.316676
12
40.971077
22
-150.617310
32
-3.387204
13
29.809450
23
-152.813248
33
-58.985710
0
3DFACE
8
0
70
0
10
52.034092
20
-119.444244
30
66.616020
11
58.348213
21
-98.998032
31
51.800526
12
58.348209
22
-108.736435
32
-0.053719
13
52.034088
23
-127.827744
33
7.724421
0
3DFACE
8
0
70
0
10
58.348213
20
-98.998032
30
51.800526
11
91.337730
21
-98.812729
31
51.800526
12
91.337723
22
-112.334427
32
-0.053720
13
58.348209
23
-108.736435
33
-0.053719
0
3DFACE
8
0
70
0
10
99.174042
20
-119.444244
30
66.616020
11
99.174034
21
-127.827744
31
7.724421
12
91.337723
22
-112.334427
32
-0.053720
13
91.337730
23
-98.812729
33
51.800526
0
3DFACE
8
0
70
0
10
37.267208
20
-152.844193
30
66.616020
11
52.034092
21
-119.444244
31
66.616020
12
52.034088
22
-127.827744
32
7.724421
13
40.971077
23
-150.617310
33
-3.387204
0
3DFACE
8
0
70
0
10
104.450607
20
-153.029510
30
66.616020
11
108.154465
21
-150.723206
31
0.316676
12
99.174034
22
-127.827744
32
7.724421
13
99.174042
23
-119.444244
33
66.616020
0
3DFACE
8
0
70
0
10
104.450607
20
-153.029510
30
66.616020
11
37.267208
21
-152.844193
31
66.616020
12
40.971077
22
-150.617310
32
-3.387204
13
108.154465
23
-150.723206
33
0.316676
0
3DFACE
8
0
70
0
10
320.010834
20
126.265594
30
153.372452
11
324.726166
21
133.601257
31
131.664063
12
321.071320
22
148.008972
32
147.620712
13
308.001312
23
138.757629
33
161.969223
0
3DFACE
8
0
70
0
10
82.088646
20
116.091949
30
-45.160717
11
59.277988
21
135.290833
31
-59.297466
12
67.139061
22
149.129578
32
-16.499142
13
67.139061
23
149.129578
33
-16.499142
0
3DFACE
8
0
70
0
10
92.315948
20
134.076294
30
27.573353
11
67.139061
21
149.129578
31
-16.499142
12
70.428047
22
132.713989
32
34.496212
13
70.428047
23
132.713989
33
34.496212
0
3DFACE
8
0
70
0
10
179.539795
20
131.063416
30
51.961346
11
211.015213
21
96.248596
31
39.326332
12
229.369263
22
99.504578
32
70.358810
13
198.676804
23
136.509125
33
82.107254
0
3DFACE
8
0
70
0
10
219.372894
20
152.099060
30
23.781069
11
179.539795
21
131.063416
31
51.961346
12
198.676804
22
136.509125
32
82.107254
13
238.032227
23
159.519592
33
53.847858
0
3DFACE
8
0
70
0
10
261.928345
20
122.331848
30
46.269722
11
243.900284
21
116.637573
31
15.495502
12
219.372894
22
152.099060
32
23.781069
13
238.032227
23
159.519592
33
53.847858
0
3DFACE
8
0
70
0
10
211.015213
20
96.248596
30
39.326332
11
243.900284
21
116.637573
31
15.495502
12
261.928345
22
122.331848
32
46.269722
13
229.369263
23
99.504578
33
70.358810
0
3DFACE
8
0
70
0
10
228.668076
20
88.246460
30
72.893822
11
245.884491
21
90.414078
31
102.331070
12
206.058136
22
144.070068
32
115.455215
13
188.335541
23
139.160522
33
87.904030
0
3DFACE
8
0
70
0
10
188.335541
20
139.160522
30
87.904030
11
206.058136
21
144.070068
31
115.455215
12
257.220764
22
178.959412
32
76.846489
13
240.476501
23
171.719543
33
50.075668
0
3DFACE
8
0
70
0
10
288.207977
20
125.656891
30
68.910141
11
271.827576
21
120.446503
31
40.598480
12
240.476501
22
171.719543
32
50.075668
13
257.220764
23
178.959412
33
76.846489
0
3DFACE
8
0
70
0
10
228.668076
20
88.246460
30
72.893822
11
271.827576
21
120.446503
31
40.598480
12
288.207977
22
125.656891
32
68.910141
13
245.884491
23
90.414078
33
102.331070
0
3DFACE
8
0
70
0
10
228.668076
20
88.246460
30
72.893822
11
188.335541
21
139.160522
31
87.904030
12
198.676804
22
136.509125
32
82.107254
13
229.369263
23
99.504578
33
70.358810
0
3DFACE
8
0
70
0
10
245.884491
20
90.414078
30
102.331070
11
246.655243
21
102.571106
31
99.585373
12
216.224304
22
141.502472
32
109.749283
13
206.058136
23
144.070068
33
115.455215
0
3DFACE
8
0
70
0
10
188.335541
20
139.160522
30
87.904030
11
240.476501
21
171.719543
31
50.075668
12
238.032227
22
159.519592
32
53.847858
13
198.676804
23
136.509125
33
82.107254
0
3DFACE
8
0
70
0
10
206.058136
20
144.070068
30
115.455215
11
216.224304
21
141.502472
31
109.749283
12
254.732376
22
166.160889
32
80.757652
13
257.220764
23
178.959412
33
76.846489
0
3DFACE
8
0
70
0
10
288.207977
20
125.656891
30
68.910141
11
257.220764
21
178.959412
31
76.846489
12
254.732376
22
166.160889
32
80.757652
13
278.459045
23
127.553101
33
74.487862
0
3DFACE
8
0
70
0
10
271.827576
20
120.446503
30
40.598480
11
261.928345
21
122.331848
31
46.269722
12
238.032227
22
159.519592
32
53.847858
13
240.476501
23
171.719543
33
50.075668
0
3DFACE
8
0
70
0
10
245.884491
20
90.414078
30
102.331070
11
288.207977
21
125.656891
31
68.910141
12
278.459045
22
127.553101
32
74.487862
13
246.655243
23
102.571106
33
99.585373
0
3DFACE
8
0
70
0
10
228.668076
20
88.246460
30
72.893822
11
229.369263
21
99.504578
31
70.358810
12
261.928345
22
122.331848
32
46.269722
13
271.827576
23
120.446503
33
40.598480
0
3DFACE
8
0
70
0
10
250.176056
20
109.200623
30
81.078026
11
231.275131
21
132.000641
31
95.099510
12
216.224304
22
141.502472
32
109.749283
13
246.655243
23
102.571106
33
99.585373
0
3DFACE
8
0
70
0
10
231.275131
20
132.000641
30
95.099510
11
251.968903
21
149.777679
31
72.788292
12
254.732376
22
166.160889
32
80.757652
13
216.224304
23
141.502472
33
109.749283
0
3DFACE
8
0
70
0
10
267.017029
20
126.801117
30
62.241611
11
278.459045
21
127.553101
31
74.487862
12
254.732376
22
166.160889
32
80.757652
13
251.968903
23
149.777679
33
72.788292
0
3DFACE
8
0
70
0
10
250.176056
20
109.200623
30
81.078026
11
246.655243
21
102.571106
31
99.585373
12
278.459045
22
127.553101
32
74.487862
13
267.017029
23
126.801117
33
62.241611
0
3DFACE
8
0
70
0
10
246.644073
20
126.541534
30
148.479843
11
246.257416
21
137.402710
31
146.890472
12
237.509171
22
136.738281
32
137.352295
13
237.798767
23
125.888092
33
139.002380
0
3DFACE
8
0
70
0
10
246.257416
20
137.402710
30
146.890472
11
246.474213
21
148.568726
31
144.754440
12
237.647583
22
147.918518
32
135.313583
13
237.509171
23
136.738281
33
137.352295
0
3DFACE
8
0
70
0
10
299.048920
20
127.980225
30
77.695107
11
267.017029
21
126.801117
31
62.241611
12
251.968903
22
149.777679
32
72.788292
13
277.346771
23
151.916382
33
94.294495
0
3DFACE
8
0
70
0
10
274.795227
20
111.467590
30
103.419029
11
250.176056
21
109.200623
31
81.078026
12
267.017029
22
126.801117
32
62.241611
13
299.048920
23
127.980225
33
77.695107
0
3DFACE
8
0
70
0
10
320.010834
20
126.265594
30
153.372452
11
308.001312
21
138.757629
31
161.969223
12
263.091766
22
136.842224
32
130.657410
13
274.795227
23
111.467590
33
103.419029
0
3DFACE
8
0
70
0
10
308.001312
20
138.757629
30
161.969223
11
321.071320
21
148.008972
31
147.620712
12
277.346771
22
151.916382
32
94.294495
13
263.091766
23
136.842224
33
130.657410
0
3DFACE
8
0
70
0
10
324.726166
20
133.601257
30
131.664063
11
299.048920
21
127.980225
31
77.695107
12
277.346771
22
151.916382
32
94.294495
13
321.071320
23
148.008972
33
147.620712
0
3DFACE
8
0
70
0
10
320.010834
20
126.265594
30
153.372452
11
274.795227
21
111.467590
31
103.419029
12
299.048920
22
127.980225
32
77.695107
13
324.726166
23
133.601257
33
131.664063
0
3DFACE
8
0
70
0
10
246.644073
20
126.541534
30
148.479843
11
237.798767
21
125.888092
31
139.002380
12
250.176056
22
109.200623
32
81.078026
13
274.795227
23
111.467590
33
103.419029
0
3DFACE
8
0
70
0
10
237.798767
20
125.888092
30
139.002380
11
237.509171
21
136.738281
31
137.352295
12
231.275131
22
132.000641
32
95.099510
13
250.176056
23
109.200623
33
81.078026
0
3DFACE
8
0
70
0
10
246.644073
20
126.541534
30
148.479843
11
274.795227
21
111.467590
31
103.419029
12
263.091766
22
136.842224
32
130.657410
13
246.257416
23
137.402710
33
146.890472
0
3DFACE
8
0
70
0
10
237.509171
20
136.738281
30
137.352295
11
237.647583
21
147.918518
31
135.313583
12
251.968903
22
149.777679
32
72.788292
13
231.275131
23
132.000641
33
95.099510
0
3DFACE
8
0
70
0
10
246.474213
20
148.568726
30
144.754440
11
277.346771
21
151.916382
31
94.294495
12
251.968903
22
149.777679
32
72.788292
13
237.647583
23
147.918518
33
135.313583
0
3DFACE
8
0
70
0
10
246.257416
20
137.402710
30
146.890472
11
263.091766
21
136.842224
31
130.657410
12
277.346771
22
151.916382
32
94.294495
13
246.474213
23
148.568726
33
144.754440
0
3DFACE
8
0
70
0
10
27.648445
20
-11.783218
30
83.520912
11
-40.749599
21
-16.584549
31
69.336990
12
-75.119415
22
-41.990097
32
37.933453
13
-46.947376
23
-56.834549
33
67.980804
0
3DFACE
8
0
70
0
10
-57.829136
20
-46.386284
30
-47.899296
11
3.525210
21
-53.875366
31
-82.064278
12
-7.822474
22
-61.281807
32
-43.445930
13
-49.688232
23
-44.880814
33
-34.493923
0
3DFACE
8
0
70
0
10
30.699614
20
-13.560959
30
104.668968
11
-59.427601
21
-19.602707
31
88.044678
12
-40.749599
22
-16.584549
32
69.336990
13
27.648445
23
-11.783218
33
83.520912
0
3DFACE
8
0
70
0
10
-81.042290
20
-57.317734
30
-60.321529
11
0.655192
21
-65.984863
31
-101.560051
12
3.525210
22
-53.875366
32
-82.064278
13
-57.829136
23
-46.386284
33
-47.899296
0
3DFACE
8
0
70
0
10
32.376186
20
-6.942688
30
116.070892
11
31.634861
21
48.226929
31
109.357079
12
-78.425095
22
40.310898
32
91.898766
13
-63.507118
23
-13.950256
33
96.442642
0
3DFACE
8
0
70
0
10
-87.931717
20
-56.568253
30
-71.211166
11
-102.849693
21
-2.307098
31
-75.755035
12
-2.315848
22
-11.005310
32
-123.683640
13
-1.574011
23
-66.181694
33
-116.967903
0
3DFACE
8
0
70
0
10
31.634861
20
48.226929
30
109.357079
11
29.893820
21
46.406448
31
97.371300
12
-73.628189
22
39.411163
32
82.809036
13
-78.425095
23
40.310898
33
91.898766
0
3DFACE
8
0
70
0
10
32.376186
20
-6.942688
30
116.070892
11
-63.507118
21
-13.950256
31
96.442642
12
-59.427601
22
-19.602707
32
88.044678
13
30.699614
23
-13.560959
33
104.668968
0
3DFACE
8
0
70
0
10
-102.849693
20
-2.307098
30
-75.755035
11
-95.242882
21
1.696136
31
-65.557167
12
-0.176368
22
-5.769348
32
-108.924103
13
-2.315848
23
-11.005310
33
-123.683640
0
3DFACE
8
0
70
0
10
-87.931717
20
-56.568253
30
-71.211166
11
-1.574011
21
-66.181694
31
-116.967903
12
0.655192
22
-65.984863
32
-101.560051
13
-81.042290
23
-57.317734
33
-60.321529
0
3DFACE
8
0
70
0
10
-42.298035
20
-119.444244
30
82.336243
11
-48.612160
21
-98.998032
31
67.520744
12
-81.601669
22
-98.812729
32
67.520744
13
-89.437973
23
-119.444244
33
82.336243
0
3DFACE
8
0
70
0
10
-40.749599
20
-16.584549
30
69.336990
11
-64.691986
21
-31.094330
31
14.256677
12
-72.656685
22
-43.146065
32
-0.487992
13
-75.119415
23
-41.990097
33
37.933453
0
3DFACE
8
0
70
0
10
-59.427601
20
-19.602707
30
88.044678
11
-90.765633
21
-37.863869
31
18.878054
12
-64.691986
22
-31.094330
32
14.256677
13
-40.749599
23
-16.584549
33
69.336990
0
3DFACE
8
0
70
0
10
-78.425095
20
40.310898
30
91.898766
11
-115.561127
21
20.015015
31
15.320505
12
-97.324402
22
-34.259949
32
19.384398
13
-63.507118
23
-13.950256
33
96.442642
0
3DFACE
8
0
70
0
10
-115.561127
20
20.015015
30
15.320505
11
-78.425095
21
40.310898
31
91.898766
12
-73.628189
22
39.411163
32
82.809036
13
-108.089622
23
21.163010
33
14.094141
0
3DFACE
8
0
70
0
10
-63.507118
20
-13.950256
30
96.442642
11
-97.324402
21
-34.259949
31
19.384398
12
-90.765633
22
-37.863869
32
18.878054
13
-59.427601
23
-19.602707
33
88.044678
0
3DFACE
8
0
70
0
10
-27.531151
20
-152.844193
30
82.336243
11
-42.298035
21
-119.444244
31
82.336243
12
-89.437973
22
-119.444244
32
82.336243
13
-94.714546
23
-153.029510
33
82.336243
0
3DFACE
8
0
70
0
10
7.123433
20
166.882263
30
-12.786493
11
2.721585
21
139.313721
31
-59.527321
12
-49.102726
22
135.613556
32
-48.085480
13
-54.204647
23
148.466309
33
-6.786494
0
3DFACE
8
0
70
0
10
-64.691986
20
-31.094330
30
14.256677
11
-57.829136
21
-46.386284
31
-47.899296
12
-49.688232
22
-44.880814
32
-34.493923
13
-72.656685
23
-43.146065
33
-0.487992
0
3DFACE
8
0
70
0
10
-90.765633
20
-37.863869
30
18.878054
11
-81.042290
21
-57.317734
31
-60.321529
12
-57.829136
22
-46.386284
32
-47.899296
13
-64.691986
23
-31.094330
33
14.256677
0
3DFACE
8
0
70
0
10
-97.324402
20
-34.259949
30
19.384398
11
-115.561127
21
20.015015
31
15.320505
12
-102.849693
22
-2.307098
32
-75.755035
13
-87.931717
23
-56.568253
33
-71.211166
0
3DFACE
8
0
70
0
10
-102.849693
20
-2.307098
30
-75.755035
11
-115.561127
21
20.015015
31
15.320505
12
-108.089622
22
21.163010
32
14.094141
13
-95.242882
23
1.696136
33
-65.557167
0
3DFACE
8
0
70
0
10
-97.324402
20
-34.259949
30
19.384398
11
-87.931717
21
-56.568253
31
-71.211166
12
-81.042290
22
-57.317734
32
-60.321529
13
-90.765633
23
-37.863869
33
18.878054
0
3DFACE
8
0
70
0
10
-49.431591
20
-77.946663
30
32.068291
11
-31.006668
21
-80.933998
31
12.354938
12
-22.208708
22
-65.652046
32
14.706912
13
-46.947376
23
-56.834549
33
67.980804
0
3DFACE
8
0
70
0
10
-49.431591
20
-77.946663
30
32.068291
11
-46.947376
21
-56.834549
31
67.980804
12
-75.119415
22
-41.990097
32
37.933453
13
-78.021645
23
-56.844002
33
7.890584
0
3DFACE
8
0
70
0
10
-78.021645
20
-56.844002
30
7.890584
11
-75.119415
21
-41.990097
31
37.933453
12
-72.656685
22
-43.146065
32
-0.487992
13
-78.488846
23
-51.008369
33
-10.765904
0
3DFACE
8
0
70
0
10
-31.006668
20
-80.933998
30
12.354938
11
-24.459532
21
-76.063652
31
-14.378397
12
-7.822474
22
-61.281807
32
-43.445930
13
-22.208708
23
-65.652046
33
14.706912
0
3DFACE
8
0
70
0
10
-78.488846
20
-51.008369
30
-10.765904
11
-72.656685
21
-43.146065
31
-0.487992
12
-49.688232
22
-44.880814
32
-34.493923
13
-61.789806
23
-55.620041
33
-22.299759
0
3DFACE
8
0
70
0
10
-61.789806
20
-55.620041
30
-22.299759
11
-49.688232
21
-44.880814
31
-34.493923
12
-7.822474
22
-61.281807
32
-43.445930
13
-24.459532
23
-76.063652
33
-14.378397
0
3DFACE
8
0
70
0
10
-47.017708
20
-134.332520
30
-20.197754
11
-60.049313
21
-113.637436
31
9.195896
12
-48.612160
22
-108.736435
32
15.666499
13
-42.298035
23
-127.827744
33
23.444639
0
3DFACE
8
0
70
0
10
-60.049313
20
-113.637436
30
9.195896
11
-85.654877
21
-104.056007
31
-11.570069
12
-81.601677
22
-112.334427
32
15.666499
13
-48.612160
23
-108.736435
33
15.666499
0
3DFACE
8
0
70
0
10
-88.869591
20
-116.211754
30
-35.922569
11
-89.437981
21
-127.827744
31
23.444639
12
-81.601677
22
-112.334427
32
15.666499
13
-85.654877
23
-104.056007
33
-11.570069
0
3DFACE
8
0
70
0
10
-25.507793
20
-159.592056
30
-48.557571
11
-47.017708
21
-134.332520
31
-20.197754
12
-42.298035
22
-127.827744
32
23.444639
13
-31.235023
23
-150.617310
33
12.333014
0
3DFACE
8
0
70
0
10
-87.832687
20
-132.278915
30
-69.833282
11
-98.418419
21
-150.723206
31
16.036894
12
-89.437981
22
-127.827744
32
23.444639
13
-88.869591
23
-116.211754
33
-35.922569
0
3DFACE
8
0
70
0
10
-87.832687
20
-132.278915
30
-69.833282
11
-25.507793
21
-159.592056
31
-48.557571
12
-31.235023
22
-150.617310
32
12.333014
13
-98.418419
23
-150.723206
33
16.036894
0
3DFACE
8
0
70
0
10
-42.298035
20
-119.444244
30
82.336243
11
-42.298035
21
-127.827744
31
23.444639
12
-48.612160
22
-108.736435
32
15.666499
13
-48.612160
23
-98.998032
33
67.520744
0
3DFACE
8
0
70
0
10
-48.612160
20
-98.998032
30
67.520744
11
-48.612160
21
-108.736435
31
15.666499
12
-81.601677
22
-112.334427
32
15.666499
13
-81.601669
23
-98.812729
33
67.520744
0
3DFACE
8
0
70
0
10
-89.437973
20
-119.444244
30
82.336243
11
-81.601669
21
-98.812729
31
67.520744
12
-81.601677
22
-112.334427
32
15.666499
13
-89.437981
23
-127.827744
33
23.444639
0
3DFACE
8
0
70
0
10
-27.531151
20
-152.844193
30
82.336243
11
-31.235023
21
-150.617310
31
12.333014
12
-42.298035
22
-127.827744
32
23.444639
13
-42.298035
23
-119.444244
33
82.336243
0
3DFACE
8
0
70
0
10
-94.714546
20
-153.029510
30
82.336243
11
-89.437973
21
-119.444244
31
82.336243
12
-89.437981
22
-127.827744
32
23.444639
13
-98.418419
23
-150.723206
33
16.036894
0
3DFACE
8
0
70
0
10
-94.714546
20
-153.029510
30
82.336243
11
-98.418419
21
-150.723206
31
16.036894
12
-31.235023
22
-150.617310
32
12.333014
13
-27.531151
23
-152.844193
33
82.336243
0
3DFACE
8
0
70
0
10
-142.081985
20
132.764648
30
215.221512
11
-126.894569
21
143.228729
31
209.387955
12
-144.892181
22
154.796631
32
211.523544
13
-161.741974
23
141.917908
33
206.446365
0
3DFACE
8
0
70
0
10
-76.074074
20
118.764374
30
-35.916985
11
-54.204647
21
148.466309
31
-6.786494
12
-49.102726
22
135.613556
32
-48.085480
13
-49.102726
23
135.613556
33
-48.085480
0
3DFACE
8
0
70
0
10
-70.016624
20
131.397400
30
39.098068
11
-37.570045
21
133.062683
31
46.609161
12
-54.204647
22
148.466309
32
-6.786494
13
-54.204647
23
148.466309
33
-6.786494
0
3DFACE
8
0
70
0
10
-140.747162
20
125.305664
30
40.902409
11
-131.865799
21
121.641815
31
75.721313
12
-173.417908
22
96.250427
32
84.558113
13
-182.601196
23
102.361176
33
50.078941
0
3DFACE
8
0
70
0
10
-177.967529
20
160.551941
30
54.889793
11
-168.101059
21
158.664734
31
89.622169
12
-131.865799
22
121.641815
32
75.721313
13
-140.747162
23
125.305664
33
40.902409
0
3DFACE
8
0
70
0
10
-202.478699
20
130.623047
30
96.196678
11
-168.101059
21
158.664734
31
89.622169
12
-177.967529
22
160.551941
32
54.889793
13
-212.598053
23
134.444336
33
61.736755
0
3DFACE
8
0
70
0
10
-182.601196
20
102.361176
30
50.078941
11
-173.417908
21
96.250427
31
84.558113
12
-202.478699
22
130.623047
32
96.196678
13
-212.598053
23
134.444336
33
61.736755
0
3DFACE
8
0
70
0
10
-175.396606
20
84.877930
30
83.914780
11
-120.240326
21
120.502777
31
72.385849
12
-112.302879
22
117.124054
32
104.367767
13
-166.891312
23
78.209839
33
116.331619
0
3DFACE
8
0
70
0
10
-120.240326
20
120.502777
30
72.385849
11
-167.745972
21
171.600677
31
90.878349
12
-158.817612
22
170.518738
32
122.000328
13
-112.302879
23
117.124054
33
104.367767
0
3DFACE
8
0
70
0
10
-204.013504
20
128.788727
30
130.960770
11
-158.817612
21
170.518738
31
122.000328
12
-167.745972
22
171.600677
32
90.878349
13
-213.449356
23
132.358032
33
99.413338
0
3DFACE
8
0
70
0
10
-175.396606
20
84.877930
30
83.914780
11
-166.891312
21
78.209839
31
116.331619
12
-204.013504
22
128.788727
32
130.960770
13
-213.449356
23
132.358032
33
99.413338
0
3DFACE
8
0
70
0
10
-175.396606
20
84.877930
30
83.914780
11
-173.417908
21
96.250427
31
84.558113
12
-131.865799
22
121.641815
32
75.721313
13
-120.240326
23
120.502777
33
72.385849
0
3DFACE
8
0
70
0
10
-166.891312
20
78.209839
30
116.331619
11
-112.302879
21
117.124054
31
104.367767
12
-123.722115
22
118.282257
32
107.648155
13
-164.769058
23
90.495331
33
117.030823
0
3DFACE
8
0
70
0
10
-120.240326
20
120.502777
30
72.385849
11
-131.865799
21
121.641815
31
75.721313
12
-168.101059
22
158.664734
32
89.622169
13
-167.745972
23
171.600677
33
90.878349
0
3DFACE
8
0
70
0
10
-112.302879
20
117.124054
30
104.367767
11
-158.817612
21
170.518738
31
122.000328
12
-159.270615
22
156.975647
32
120.707680
13
-123.722115
23
118.282257
33
107.648155
0
3DFACE
8
0
70
0
10
-204.013504
20
128.788727
30
130.960770
11
-193.199860
21
127.119141
31
127.794365
12
-159.270615
22
156.975647
32
120.707680
13
-158.817612
23
170.518738
33
122.000328
0
3DFACE
8
0
70
0
10
-213.449356
20
132.358032
30
99.413338
11
-167.745972
21
171.600677
31
90.878349
12
-168.101059
22
158.664734
32
89.622169
13
-202.478699
23
130.623047
33
96.196678
0
3DFACE
8
0
70
0
10
-166.891312
20
78.209839
30
116.331619
11
-164.769058
21
90.495331
31
117.030823
12
-193.199860
22
127.119141
32
127.794365
13
-204.013504
23
128.788727
33
130.960770
0
3DFACE
8
0
70
0
10
-175.396606
20
84.877930
30
83.914780
11
-213.449356
21
132.358032
31
99.413338
12
-202.478699
22
130.623047
32
96.196678
13
-173.417908
23
96.250427
33
84.558113
0
3DFACE
8
0
70
0
10
-166.072891
20
109.437531
30
114.620384
11
-164.769058
21
90.495331
31
117.030823
12
-123.722115
22
118.282257
32
107.648155
13
-140.562912
23
128.148041
33
106.330482
0
3DFACE
8
0
70
0
10
-140.562912
20
128.148041
30
106.330482
11
-123.722115
21
118.282257
31
107.648155
12
-159.270615
22
156.975647
32
120.707680
13
-167.138397
23
150.501953
33
111.406105
0
3DFACE
8
0
70
0
10
-187.740005
20
130.792847
30
118.365990
11
-167.138397
21
150.501953
31
111.406105
12
-159.270615
22
156.975647
32
120.707680
13
-193.199860
23
127.119141
33
127.794365
0
3DFACE
8
0
70
0
10
-166.072891
20
109.437531
30
114.620384
11
-187.740005
21
130.792847
31
118.365990
12
-193.199860
22
127.119141
32
127.794365
13
-164.769058
23
90.495331
33
117.030823
0
3DFACE
8
0
70
0
10
-105.445984
20
124.838074
30
151.962784
11
-108.436287
21
123.748016
31
139.378708
12
-108.379135
22
134.572327
32
137.544632
13
-105.283752
23
135.658295
33
150.082153
0
3DFACE
8
0
70
0
10
-105.283752
20
135.658295
30
150.082153
11
-108.379135
21
134.572327
31
137.544632
12
-108.841232
22
145.797363
32
135.824554
13
-105.871155
23
146.884277
33
148.372849
0
3DFACE
8
0
70
0
10
-192.667023
20
136.688171
30
155.261871
11
-164.186844
21
156.882446
31
145.235107
12
-167.138397
22
150.501953
32
111.406105
13
-187.740005
23
130.792847
33
118.365990
0
3DFACE
8
0
70
0
10
-159.937317
20
115.926483
30
150.751099
11
-192.667023
21
136.688171
31
155.261871
12
-187.740005
22
130.792847
32
118.365990
13
-166.072891
23
109.437531
33
114.620384
0
3DFACE
8
0
70
0
10
-142.081985
20
132.764648
30
215.221512
11
-159.937317
21
115.926483
31
150.751099
12
-128.057098
22
138.051208
32
154.864456
13
-126.894569
23
143.228729
33
209.387955
0
3DFACE
8
0
70
0
10
-126.894569
20
143.228729
30
209.387955
11
-128.057098
21
138.051208
31
154.864456
12
-164.186844
22
156.882446
32
145.235107
13
-144.892181
23
154.796631
33
211.523544
0
3DFACE
8
0
70
0
10
-161.741974
20
141.917908
30
206.446365
11
-144.892181
21
154.796631
31
211.523544
12
-164.186844
22
156.882446
32
145.235107
13
-192.667023
23
136.688171
33
155.261871
0
3DFACE
8
0
70
0
10
-142.081985
20
132.764648
30
215.221512
11
-161.741974
21
141.917908
31
206.446365
12
-192.667023
22
136.688171
32
155.261871
13
-159.937317
23
115.926483
33
150.751099
0
3DFACE
8
0
70
0
10
-105.445984
20
124.838074
30
151.962784
11
-159.937317
21
115.926483
31
150.751099
12
-166.072891
22
109.437531
32
114.620384
13
-108.436287
23
123.748016
33
139.378708
0
3DFACE
8
0
70
0
10
-108.436287
20
123.748016
30
139.378708
11
-166.072891
21
109.437531
31
114.620384
12
-140.562912
22
128.148041
32
106.330482
13
-108.379135
23
134.572327
33
137.544632
0
3DFACE
8
0
70
0
10
-105.445984
20
124.838074
30
151.962784
11
-105.283752
21
135.658295
31
150.082153
12
-128.057098
22
138.051208
32
154.864456
13
-159.937317
23
115.926483
33
150.751099
0
3DFACE
8
0
70
0
10
-108.379135
20
134.572327
30
137.544632
11
-140.562912
21
128.148041
31
106.330482
12
-167.138397
22
150.501953
32
111.406105
13
-108.841232
23
145.797363
33
135.824554
0
3DFACE
8
0
70
0
10
-105.871155
20
146.884277
30
148.372849
11
-108.841232
21
145.797363
31
135.824554
12
-167.138397
22
150.501953
32
111.406105
13
-164.186844
23
156.882446
33
145.235107
0
3DFACE
8
0
70
0
10
-105.283752
20
135.658295
30
150.082153
11
-105.871155
21
146.884277
31
148.372849
12
-164.186844
22
156.882446
32
145.235107
13
-128.057098
23
138.051208
33
154.864456
0
3DFACE
8
0
70
0
10
50.480618
20
-65.746071
30
4.674600
11
84.360947
21
-60.267982
31
54.292595
12
27.648445
22
-11.783218
32
83.520912
13
15.823755
23
-32.415878
33
2.354623
0
3DFACE
8
0
70
0
10
50.480618
20
-65.746071
30
4.674600
11
15.823755
21
-32.415878
31
2.354623
12
3.525210
22
-53.875366
32
-82.064278
13
27.426914
23
-59.062317
33
-52.086159
0
3DFACE
8
0
70
0
10
3.525210
20
-53.875366
30
-82.064278
11
15.823755
21
-32.415878
31
2.354623
12
-22.208708
22
-65.652046
32
14.706912
13
-7.822474
23
-61.281807
33
-43.445930
0
3DFACE
8
0
70
0
10
15.823755
20
-32.415878
30
2.354623
11
27.648445
21
-11.783218
31
83.520912
12
-46.947376
22
-56.834549
32
67.980804
13
-22.208708
23
-65.652046
33
14.706912
0
3DFACE
8
0
70
0
10
21.643049
20
189.597992
30
92.577980
11
31.924154
21
190.737946
31
86.425766
12
40.020954
22
208.466309
32
89.318481
13
19.983568
23
206.988647
33
97.305809
0
3DFACE
8
0
70
0
10
19.983568
20
206.988647
30
97.305809
11
40.020954
21
208.466309
31
89.318481
12
31.709101
22
215.301331
32
87.832024
13
18.476553
23
217.307251
33
92.033203
0
3DFACE
8
0
70
0
10
31.924154
20
190.737946
30
86.425766
11
32.534386
21
186.513916
31
73.301735
12
42.424652
22
204.777405
32
71.231117
13
40.020954
23
208.466309
33
89.318481
0
3DFACE
8
0
70
0
10
21.643049
20
189.597992
30
92.577980
11
21.304070
21
183.245636
31
80.438454
12
32.534386
22
186.513916
32
73.301735
13
31.924154
23
190.737946
33
86.425766
0
3DFACE
8
0
70
0
10
18.476553
20
217.307251
30
92.033203
11
31.709101
21
215.301331
31
87.832024
12
32.701839
22
214.667358
32
70.854904
13
17.261034
23
217.064941
33
77.016312
0
3DFACE
8
0
70
0
10
40.020954
20
208.466309
30
89.318481
11
42.424652
21
204.777405
31
71.231117
12
32.701839
22
214.667358
32
70.854904
13
31.709101
23
215.301331
33
87.832024
0
3DFACE
8
0
70
0
10
20.197659
20
225.761719
30
71.940681
11
21.283329
21
217.229065
31
73.818611
12
32.650928
22
215.840759
32
67.775581
13
32.039364
23
233.868896
33
68.399887
0
3DFACE
8
0
70
0
10
32.650928
20
215.840759
30
67.775581
11
42.085087
21
217.220703
31
60.535889
12
44.512619
22
227.156128
32
55.675606
13
32.039364
23
233.868896
33
68.399887
0
3DFACE
8
0
70
0
10
37.124947
20
172.254120
30
94.572533
11
30.368593
21
187.921539
31
81.900452
12
21.333935
22
185.861938
32
85.472145
13
23.747898
23
170.620667
33
96.167252
0
3DFACE
8
0
70
0
10
72.004730
20
187.332581
30
43.414814
11
69.151962
21
197.061401
31
42.419788
12
47.052849
22
190.001526
32
65.984566
13
57.223335
23
170.729980
33
73.964539
0
3DFACE
8
0
70
0
10
30.368593
20
187.921539
30
81.900452
11
37.124947
21
172.254120
31
94.572533
12
55.246075
22
175.488159
32
84.186012
13
45.535679
23
189.865845
33
80.773972
0
3DFACE
8
0
70
0
10
61.921425
20
226.917816
30
40.282898
11
73.543083
21
236.031677
31
38.041512
12
47.586147
22
243.126038
32
57.076740
13
48.625824
23
231.613892
33
57.798023
0
3DFACE
8
0
70
0
10
14.226674
20
242.684845
30
74.863831
11
15.656910
21
229.815247
31
74.491364
12
31.150402
22
238.156189
32
70.389763
13
31.242292
23
250.452148
33
67.781563
0
3DFACE
8
0
70
0
10
31.242292
20
250.452148
30
67.781563
11
31.150402
21
238.156189
31
70.389763
12
48.625824
22
231.613892
32
57.798023
13
47.586147
23
243.126038
33
57.076740
0
3DFACE
8
0
70
0
10
26.503023
20
146.226685
30
96.144020
11
43.011909
21
155.168579
31
87.696007
12
38.617100
22
162.905457
32
85.018204
13
24.768452
23
159.132965
33
91.874451
0
3DFACE
8
0
70
0
10
30.000843
20
104.843445
30
77.917679
11
49.526379
21
118.269135
31
72.145012
12
43.011909
22
155.168579
32
87.696007
13
26.503023
23
146.226685
33
96.144020
0
3DFACE
8
0
70
0
10
72.004730
20
187.332581
30
43.414814
11
57.223335
21
170.729980
31
73.964539
12
56.365250
22
166.799896
32
64.940056
13
77.249123
23
177.858978
33
47.396660
0
3DFACE
8
0
70
0
10
56.365250
20
166.799896
30
64.940056
11
69.292809
21
141.405792
31
35.476631
12
75.623466
22
167.895844
32
15.735613
13
77.249123
23
177.858978
33
47.396660
0
3DFACE
8
0
70
0
10
49.526379
20
118.269135
30
72.145012
11
69.292809
21
141.405792
31
35.476631
12
56.365250
22
166.799896
32
64.940056
13
43.011909
23
155.168579
33
87.696007
0
3DFACE
8
0
70
0
10
43.011909
20
155.168579
30
87.696007
11
56.365250
21
166.799896
31
64.940056
12
57.223335
22
170.729980
32
73.964539
13
38.617100
23
162.905457
33
85.018204
0
3DFACE
8
0
70
0
10
23.747898
20
170.620667
30
96.167252
11
24.768452
21
159.132965
31
91.874451
12
38.617100
22
162.905457
32
85.018204
13
37.124947
23
172.254120
33
94.572533
0
3DFACE
8
0
70
0
10
21.333935
20
185.861938
30
85.472145
11
30.368593
21
187.921539
31
81.900452
12
32.534386
22
186.513916
32
73.301735
13
21.304070
23
183.245636
33
80.438454
0
3DFACE
8
0
70
0
10
45.535679
20
189.865845
30
80.773972
11
47.052849
21
190.001526
31
65.984566
12
32.534386
22
186.513916
32
73.301735
13
30.368593
23
187.921539
33
81.900452
0
POINT
8
0
70
0
10
76.289795
20
174.895782
30
63.692566
0
3DFACE
8
0
70
0
10
37.124947
20
172.254120
30
94.572533
11
38.617100
21
162.905457
31
85.018204
12
57.223335
22
170.729980
32
73.964539
13
55.246075
23
175.488159
33
84.186012
0
3DFACE
8
0
70
0
10
55.246075
20
175.488159
30
84.186012
11
76.289795
21
174.895782
31
63.692566
12
45.535679
22
189.865845
32
80.773972
13
45.535679
23
189.865845
33
80.773972
0
3DFACE
8
0
70
0
10
45.535679
20
189.865845
30
80.773972
11
76.289795
21
174.895782
31
63.692566
12
47.052849
22
190.001526
32
65.984566
13
47.052849
23
190.001526
33
65.984566
0
3DFACE
8
0
70
0
10
76.289795
20
174.895782
30
63.692566
11
57.223335
21
170.729980
31
73.964539
12
47.052849
22
190.001526
32
65.984566
13
47.052849
23
190.001526
33
65.984566
0
3DFACE
8
0
70
0
10
57.223335
20
170.729980
30
73.964539
11
76.289795
21
174.895782
31
63.692566
12
55.246075
22
175.488159
32
84.186012
13
55.246075
23
175.488159
33
84.186012
0
3DFACE
8
0
70
0
10
73.543083
20
236.031677
30
38.041512
11
61.921425
21
226.917816
31
40.282898
12
74.230888
22
220.952087
32
1.703953
13
77.518021
23
222.414001
33
1.322866
0
3DFACE
8
0
70
0
10
61.921425
20
226.917816
30
40.282898
11
61.047832
21
217.052948
31
41.623634
12
76.619476
22
214.585205
32
3.044297
13
74.230888
23
220.952087
33
1.703953
0
3DFACE
8
0
70
0
10
61.047832
20
217.052948
30
41.623634
11
64.981628
21
205.416321
31
42.402836
12
78.189713
22
202.817932
32
6.408596
13
76.619476
23
214.585205
33
3.044297
0
3DFACE
8
0
70
0
10
77.518021
20
222.414001
30
1.322866
11
74.230888
21
220.952087
31
1.703953
12
55.738747
22
213.582397
32
-24.026209
13
58.947701
23
210.085327
33
-22.580143
0
3DFACE
8
0
70
0
10
76.619476
20
214.585205
30
3.044297
11
58.038151
21
213.014221
31
-27.073868
12
55.738747
22
213.582397
32
-24.026209
13
74.230888
23
220.952087
33
1.703953
0
3DFACE
8
0
70
0
10
78.189713
20
202.817932
30
6.408596
11
56.381794
21
201.909485
31
-27.446661
12
58.038151
22
213.014221
32
-27.073868
13
76.619476
23
214.585205
33
3.044297
0
3DFACE
8
0
70
0
10
58.947701
20
210.085327
30
-22.580143
11
55.738747
21
213.582397
31
-24.026209
12
10.991354
22
206.244812
32
-38.842796
13
11.840618
23
198.592438
33
-39.082211
0
3DFACE
8
0
70
0
10
58.038151
20
213.014221
30
-27.073868
11
10.943399
21
206.176086
31
-39.704395
12
10.991354
22
206.244812
32
-38.842796
13
55.738747
23
213.582397
33
-24.026209
0
3DFACE
8
0
70
0
10
56.381794
20
201.909485
30
-27.446661
11
12.524961
21
193.712524
31
-37.027313
12
10.943399
22
206.176086
32
-39.704395
13
58.038151
23
213.014221
33
-27.073868
0
3DFACE
8
0
70
0
10
75.623466
20
167.895844
30
15.735613
11
80.144905
21
183.314453
31
9.659024
12
72.004730
22
187.332581
32
43.414814
13
77.249123
23
177.858978
33
47.396660
0
3DFACE
8
0
70
0
10
64.981628
20
205.416321
30
42.402836
11
69.151962
21
197.061401
31
42.419788
12
78.189713
22
202.817932
32
6.408596
13
78.189713
23
202.817932
33
6.408596
0
3DFACE
8
0
70
0
10
72.004730
20
187.332581
30
43.414814
11
80.144905
21
183.314453
31
9.659024
12
78.189713
22
202.817932
32
6.408596
13
69.151962
23
197.061401
33
42.419788
0
3DFACE
8
0
70
0
10
80.144905
20
183.314453
30
9.659024
11
57.668571
21
185.764587
31
-22.866945
12
56.381794
22
201.909485
32
-27.446661
13
78.189713
23
202.817932
33
6.408596
0
3DFACE
8
0
70
0
10
57.668571
20
185.764587
30
-22.866945
11
14.648129
21
178.386292
31
-30.977407
12
12.524961
22
193.712524
32
-37.027313
13
56.381794
23
201.909485
33
-27.446661
0
3DFACE
8
0
70
0
10
14.226674
20
242.684845
30
74.863831
11
31.242292
21
250.452148
31
67.781563
12
30.557262
22
269.280884
32
58.322578
13
10.822513
23
267.734955
33
65.997177
0
3DFACE
8
0
70
0
10
10.822513
20
267.734955
30
65.997177
11
30.557262
21
269.280884
31
58.322578
12
30.503714
22
270.216339
32
52.807335
13
10.295665
23
269.878662
33
61.596279
0
3DFACE
8
0
70
0
10
31.242292
20
250.452148
30
67.781563
11
47.586147
21
243.126038
31
57.076740
12
57.667854
22
267.567810
32
43.658695
13
30.557262
23
269.280884
33
58.322578
0
3DFACE
8
0
70
0
10
30.557262
20
269.280884
30
58.322578
11
57.667854
21
267.567810
31
43.658695
12
55.890678
22
268.752808
32
38.455486
13
30.503714
23
270.216339
33
52.807335
0
3DFACE
8
0
70
0
10
47.586147
20
243.126038
30
57.076740
11
73.543083
21
236.031677
31
38.041512
12
74.016029
22
255.354065
32
13.292112
13
57.667854
23
267.567810
33
43.658695
0
3DFACE
8
0
70
0
10
57.667854
20
267.567810
30
43.658695
11
74.016029
21
255.354065
31
13.292112
12
64.910515
22
257.659668
32
11.500129
13
55.890678
23
268.752808
33
38.455486
0
3DFACE
8
0
70
0
10
73.543083
20
236.031677
30
38.041512
11
77.518021
21
222.414001
31
1.322866
12
77.894180
22
248.259033
32
-12.748948
13
74.016029
23
255.354065
33
13.292112
0
3DFACE
8
0
70
0
10
74.016029
20
255.354065
30
13.292112
11
77.894180
21
248.259033
31
-12.748948
12
70.855881
22
250.254944
32
-11.486880
13
64.910515
23
257.659668
33
11.500129
0
3DFACE
8
0
70
0
10
77.518021
20
222.414001
30
1.322866
11
58.947701
21
210.085327
31
-22.580143
12
56.553928
22
233.806427
32
-32.707878
13
77.894180
23
248.259033
33
-12.748948
0
3DFACE
8
0
70
0
10
77.894180
20
248.259033
30
-12.748948
11
56.553928
21
233.806427
31
-32.707878
12
50.462208
22
237.882416
32
-29.857176
13
70.855881
23
250.254944
33
-11.486880
0
3DFACE
8
0
70
0
10
58.947701
20
210.085327
30
-22.580143
11
11.840618
21
198.592438
31
-39.082211
12
8.758856
22
220.324036
32
-48.762356
13
56.553928
23
233.806427
33
-32.707878
0
3DFACE
8
0
70
0
10
56.553928
20
233.806427
30
-32.707878
11
8.758856
21
220.324036
31
-48.762356
12
8.469061
22
224.823120
32
-45.381706
13
50.462208
23
237.882416
33
-29.857176
0
3DFACE
8
0
70
0
10
75.623466
20
167.895844
30
15.735613
11
50.595451
21
163.743103
31
6.756345
12
57.668571
22
185.764587
32
-22.866945
13
80.144905
23
183.314453
33
9.659024
0
3DFACE
8
0
70
0
10
50.595451
20
163.743103
30
6.756345
11
7.941822
21
167.122314
31
-9.261043
12
14.648129
22
178.386292
32
-30.977407
13
57.668571
23
185.764587
33
-22.866945
0
3DFACE
8
0
70
0
10
69.292809
20
141.405792
30
35.476631
11
53.624950
21
147.819397
31
29.350914
12
50.595451
22
163.743103
32
6.756345
13
75.623466
23
167.895844
33
15.735613
0
3DFACE
8
0
70
0
10
49.526379
20
118.269135
30
72.145012
11
46.067146
21
116.988464
31
55.760651
12
53.624950
22
147.819397
32
29.350914
13
69.292809
23
141.405792
33
35.476631
0
3DFACE
8
0
70
0
10
46.067146
20
116.988464
30
55.760651
11
27.448534
21
112.966614
31
52.644741
12
23.864620
22
130.782593
32
28.357244
13
53.624950
23
147.819397
33
29.350914
0
3DFACE
8
0
70
0
10
30.000843
20
104.843445
30
77.917679
11
27.448534
21
112.966614
31
52.644741
12
46.067146
22
116.988464
32
55.760651
13
46.067146
23
116.988464
33
55.760651
0
3DFACE
8
0
70
0
10
30.000843
20
104.843445
30
77.917679
11
46.067146
21
116.988464
31
55.760651
12
49.526379
22
118.269135
32
72.145012
13
49.526379
23
118.269135
33
72.145012
0
3DFACE
8
0
70
0
10
21.643049
20
189.597992
30
92.577980
11
19.983568
21
206.988647
31
97.305809
12
-0.730027
22
203.861267
32
91.953781
13
10.668916
23
188.335999
33
87.800308
0
3DFACE
8
0
70
0
10
19.983568
20
206.988647
30
97.305809
11
18.476553
21
217.307251
31
92.033203
12
5.596647
22
212.350525
32
89.520668
13
-0.730027
23
203.861267
33
91.953781
0
3DFACE
8
0
70
0
10
10.668916
20
188.335999
30
87.800308
11
-0.730027
21
203.861267
31
91.953781
12
-5.068626
22
199.410461
32
74.302422
13
8.814157
23
183.833435
33
74.835678
0
3DFACE
8
0
70
0
10
21.643049
20
189.597992
30
92.577980
11
10.668916
21
188.335999
31
87.800308
12
8.814157
22
183.833435
32
74.835678
13
21.304070
23
183.245636
33
80.438454
0
3DFACE
8
0
70
0
10
18.476553
20
217.307251
30
92.033203
11
17.261034
21
217.064941
31
77.016312
12
2.084240
22
211.207428
32
72.834892
13
5.596647
23
212.350525
33
89.520668
0
3DFACE
8
0
70
0
10
-0.730027
20
203.861267
30
91.953781
11
5.596647
21
212.350525
31
89.520668
12
2.084240
22
211.207428
32
72.834892
13
-5.068626
23
199.410461
33
74.302422
0
3DFACE
8
0
70
0
10
12.315595
20
224.743835
30
72.273689
11
-1.244885
21
230.767334
31
70.698242
12
1.691899
22
212.966888
32
70.377480
13
13.348390
23
216.543030
33
73.913834
0
3DFACE
8
0
70
0
10
1.691899
20
212.966888
30
70.377480
11
-1.244885
21
230.767334
31
70.698242
12
-13.231303
22
220.761169
32
62.024643
13
-8.093180
23
212.233032
33
65.628693
0
3DFACE
8
0
70
0
10
10.250989
20
169.217224
30
96.310425
11
23.747898
21
170.620667
31
96.167252
12
21.333935
22
185.861938
32
85.472145
13
11.688505
23
185.810608
33
83.108467
0
3DFACE
8
0
70
0
10
-33.323269
20
175.430054
30
50.226189
11
-11.459552
21
162.968506
31
78.406143
12
-6.925972
22
183.901703
32
69.475281
13
-32.854301
23
185.534241
33
49.016354
0
3DFACE
8
0
70
0
10
11.688505
20
185.810608
30
83.108467
11
-3.548297
21
184.319122
31
83.948143
12
-9.305701
22
168.193512
32
88.360458
13
10.250989
23
169.217224
33
96.310425
0
3DFACE
8
0
70
0
10
-32.771927
20
216.217041
30
46.406551
11
-17.833689
21
224.103699
31
62.095840
12
-19.478886
22
235.547424
32
61.413712
13
-46.316662
23
222.487000
33
45.792629
0
3DFACE
8
0
70
0
10
14.226674
20
242.684845
30
74.863831
11
-4.526141
21
247.117828
31
69.835449
12
-1.366696
22
235.218201
32
72.382027
13
15.656910
23
229.815247
33
74.491364
0
3DFACE
8
0
70
0
10
-4.526141
20
247.117828
30
69.835449
11
-19.478886
21
235.547424
31
61.413712
12
-17.833689
22
224.103699
32
62.095840
13
-1.366696
23
235.218201
33
72.382027
0
3DFACE
8
0
70
0
10
26.503023
20
146.226685
30
96.144020
11
24.768452
21
159.132965
31
91.874451
12
9.671114
22
159.634460
32
86.890091
13
7.482836
23
151.153656
33
89.993607
0
3DFACE
8
0
70
0
10
30.000843
20
104.843445
30
77.917679
11
26.503023
21
146.226685
31
96.144020
12
7.482836
22
151.153656
32
89.993607
13
7.408355
23
113.509613
33
74.868706
0
3DFACE
8
0
70
0
10
-33.323269
20
175.430054
30
50.226189
11
-35.780975
21
165.086060
31
54.706116
12
-10.904388
22
159.198120
32
69.290268
13
-11.459552
23
162.968506
33
78.406143
0
3DFACE
8
0
70
0
10
-10.904388
20
159.198120
30
69.290268
11
-35.780975
21
165.086060
31
54.706116
12
-36.021969
22
155.279419
32
22.955528
13
-21.504511
23
131.145325
33
41.348335
0
3DFACE
8
0
70
0
10
7.408355
20
113.509613
30
74.868706
11
7.482836
21
151.153656
31
89.993607
12
-10.904388
22
159.198120
32
69.290268
13
-21.504511
23
131.145325
33
41.348335
0
3DFACE
8
0
70
0
10
7.482836
20
151.153656
30
89.993607
11
9.671114
21
159.634460
31
86.890091
12
-11.459552
22
162.968506
32
78.406143
13
-10.904388
23
159.198120
33
69.290268
0
3DFACE
8
0
70
0
10
23.747898
20
170.620667
30
96.167252
11
10.250989
21
169.217224
31
96.310425
12
9.671114
22
159.634460
32
86.890091
13
24.768452
23
159.132965
33
91.874451
0
3DFACE
8
0
70
0
10
21.333935
20
185.861938
30
85.472145
11
21.304070
21
183.245636
31
80.438454
12
8.814157
22
183.833435
32
74.835678
13
11.688505
23
185.810608
33
83.108467
0
3DFACE
8
0
70
0
10
-3.548297
20
184.319122
30
83.948143
11
11.688505
21
185.810608
31
83.108467
12
8.814157
22
183.833435
32
74.835678
13
-6.925972
23
183.901703
33
69.475281
0
POINT
8
0
70
0
10
-31.287403
20
162.739075
30
70.649391
0
3DFACE
8
0
70
0
10
10.250989
20
169.217224
30
96.310425
11
-9.305701
21
168.193512
31
88.360458
12
-11.459552
22
162.968506
32
78.406143
13
9.671114
23
159.634460
33
86.890091
0
3DFACE
8
0
70
0
10
-9.305701
20
168.193512
30
88.360458
11
-3.548297
21
184.319122
31
83.948143
12
-31.287403
22
162.739075
32
70.649391
13
-31.287403
23
162.739075
33
70.649391
0
3DFACE
8
0
70
0
10
-3.548297
20
184.319122
30
83.948143
11
-6.925972
21
183.901703
31
69.475281
12
-31.287403
22
162.739075
32
70.649391
13
-31.287403
23
162.739075
33
70.649391
0
3DFACE
8
0
70
0
10
-31.287403
20
162.739075
30
70.649391
11
-6.925972
21
183.901703
31
69.475281
12
-11.459552
22
162.968506
32
78.406143
13
-11.459552
23
162.968506
33
78.406143
0
3DFACE
8
0
70
0
10
-11.459552
20
162.968506
30
78.406143
11
-9.305701
21
168.193512
31
88.360458
12
-31.287403
22
162.739075
32
70.649391
13
-31.287403
23
162.739075
33
70.649391
0
3DFACE
8
0
70
0
10
-46.316662
20
222.487000
30
45.792629
11
-51.802574
21
207.800232
31
9.685802
12
-48.251659
22
207.111023
32
9.624685
13
-32.771927
23
216.217041
33
46.406551
0
3DFACE
8
0
70
0
10
-32.771927
20
216.217041
30
46.406551
11
-48.251659
21
207.111023
31
9.624685
12
-48.975174
22
200.392456
32
11.166284
13
-29.564560
23
206.813354
33
47.483379
0
3DFACE
8
0
70
0
10
-29.564560
20
206.813354
30
47.483379
11
-48.975174
21
200.392456
31
11.166284
12
-47.450008
22
188.620117
32
14.533496
13
-30.681965
23
194.605927
33
48.589233
0
3DFACE
8
0
70
0
10
-51.802574
20
207.800232
30
9.685802
11
-34.151421
21
199.564728
31
-16.559587
12
-32.010548
22
203.666321
32
-18.351616
13
-48.251659
23
207.111023
33
9.624685
0
3DFACE
8
0
70
0
10
-48.975174
20
200.392456
30
11.166284
11
-48.251659
21
207.111023
31
9.624685
12
-32.010548
22
203.666321
32
-18.351616
13
-34.494629
23
202.557617
33
-21.089935
0
3DFACE
8
0
70
0
10
-47.450008
20
188.620117
30
14.533496
11
-48.975174
21
200.392456
31
11.166284
12
-34.494629
22
202.557617
32
-21.089935
13
-30.472975
23
192.094513
33
-21.829914
0
3DFACE
8
0
70
0
10
-34.151421
20
199.564728
30
-16.559587
11
11.840618
21
198.592438
31
-39.082211
12
10.991354
22
206.244812
32
-38.842796
13
-32.010548
23
203.666321
33
-18.351616
0
3DFACE
8
0
70
0
10
-34.494629
20
202.557617
30
-21.089935
11
-32.010548
21
203.666321
31
-18.351616
12
10.991354
22
206.244812
32
-38.842796
13
10.943399
23
206.176086
33
-39.704395
0
3DFACE
8
0
70
0
10
-30.472975
20
192.094513
30
-21.829914
11
-34.494629
21
202.557617
31
-21.089935
12
10.943399
22
206.176086
32
-39.704395
13
12.524961
23
193.712524
33
-37.027313
0
3DFACE
8
0
70
0
10
-36.021969
20
155.279419
30
22.955528
11
-35.780975
21
165.086060
31
54.706116
12
-33.323269
22
175.430054
32
50.226189
13
-44.592144
23
169.218628
33
17.725552
0
3DFACE
8
0
70
0
10
-30.681965
20
194.605927
30
48.589233
11
-47.450008
21
188.620117
31
14.533496
12
-32.854301
22
185.534241
32
49.016354
13
-32.854301
23
185.534241
33
49.016354
0
3DFACE
8
0
70
0
10
-33.323269
20
175.430054
30
50.226189
11
-32.854301
21
185.534241
31
49.016354
12
-47.450008
22
188.620117
32
14.533496
13
-44.592144
23
169.218628
33
17.725552
0
3DFACE
8
0
70
0
10
-44.592144
20
169.218628
30
17.725552
11
-47.450008
21
188.620117
31
14.533496
12
-30.472975
22
192.094513
32
-21.829914
13
-27.546337
23
176.134949
33
-17.356245
0
3DFACE
8
0
70
0
10
-27.546337
20
176.134949
30
-17.356245
11
-30.472975
21
192.094513
31
-21.829914
12
12.524961
22
193.712524
32
-37.027313
13
14.648129
23
178.386292
33
-30.977407
0
3DFACE
8
0
70
0
10
14.226674
20
242.684845
30
74.863831
11
10.822513
21
267.734955
31
65.997177
12
-9.573940
22
264.745880
32
60.917793
13
-4.526141
23
247.117828
33
69.835449
0
3DFACE
8
0
70
0
10
10.822513
20
267.734955
30
65.997177
11
10.295665
21
269.878662
31
61.596279
12
-10.431503
22
265.590485
32
55.454544
13
-9.573940
23
264.745880
33
60.917793
0
3DFACE
8
0
70
0
10
-4.526141
20
247.117828
30
69.835449
11
-9.573940
21
264.745880
31
60.917793
12
-37.264938
22
256.839996
32
49.797832
13
-19.478886
23
235.547424
33
61.413712
0
3DFACE
8
0
70
0
10
-9.573940
20
264.745880
30
60.917793
11
-10.431503
21
265.590485
31
55.454544
12
-36.472111
22
258.315430
32
44.428425
13
-37.264938
23
256.839996
33
49.797832
0
3DFACE
8
0
70
0
10
-19.478886
20
235.547424
30
61.413712
11
-37.264938
21
256.839996
31
49.797832
12
-54.215717
22
240.863281
32
21.584633
13
-46.316662
23
222.487000
33
45.792629
0
3DFACE
8
0
70
0
10
-37.264938
20
256.839996
30
49.797832
11
-36.472111
21
258.315430
31
44.428425
12
-46.154076
22
245.108887
32
18.682480
13
-54.215717
23
240.863281
33
21.584633
0
3DFACE
8
0
70
0
10
-46.316662
20
222.487000
30
45.792629
11
-54.215717
21
240.863281
31
21.584633
12
-59.699688
22
232.710327
32
-3.850995
13
-51.802574
23
207.800232
33
9.685802
0
3DFACE
8
0
70
0
10
-54.215717
20
240.863281
30
21.584633
11
-46.154076
21
245.108887
31
18.682480
12
-53.179092
22
236.238434
32
-3.465757
13
-59.699688
23
232.710327
33
-3.850995
0
3DFACE
8
0
70
0
10
-51.802574
20
207.800232
30
9.685802
11
-59.699688
21
232.710327
31
-3.850995
12
-38.397316
22
223.076538
32
-26.567549
13
-34.151421
23
199.564728
33
-16.559587
0
3DFACE
8
0
70
0
10
-59.699688
20
232.710327
30
-3.850995
11
-53.179092
21
236.238434
31
-3.465757
12
-33.051987
22
228.444946
32
-24.456459
13
-38.397316
23
223.076538
33
-26.567549
0
3DFACE
8
0
70
0
10
-34.151421
20
199.564728
30
-16.559587
11
-38.397316
21
223.076538
31
-26.567549
12
8.758856
22
220.324036
32
-48.762356
13
11.840618
23
198.592438
33
-39.082211
0
3DFACE
8
0
70
0
10
-38.397316
20
223.076538
30
-26.567549
11
-33.051987
21
228.444946
31
-24.456459
12
8.469061
22
224.823120
32
-45.381706
13
8.758856
23
220.324036
33
-48.762356
0
3DFACE
8
0
70
0
10
-36.021969
20
155.279419
30
22.955528
11
-44.592144
21
169.218628
31
17.725552
12
-27.546337
22
176.134949
32
-17.356245
13
-25.358738
23
160.596191
33
12.415608
0
3DFACE
8
0
70
0
10
-25.358738
20
160.596191
30
12.415608
11
-27.546337
21
176.134949
31
-17.356245
12
14.648129
22
178.386292
32
-30.977407
13
7.941822
23
167.122314
33
-9.261043
0
3DFACE
8
0
70
0
10
-21.504511
20
131.145325
30
41.348335
11
-36.021969
21
155.279419
31
22.955528
12
-25.358738
22
160.596191
32
12.415608
13
-9.098062
23
144.234558
33
35.797737
0
3DFACE
8
0
70
0
10
7.408355
20
113.509613
30
74.868706
11
-21.504511
21
131.145325
31
41.348335
12
-9.098062
22
144.234558
32
35.797737
13
8.953104
23
112.794434
33
58.160751
0
3DFACE
8
0
70
0
10
8.953104
20
112.794434
30
58.160751
11
-9.098062
21
144.234558
31
35.797737
12
23.864620
22
130.782593
32
28.357244
13
27.448534
23
112.966614
33
52.644741
0
3DFACE
8
0
70
0
10
30.000843
20
104.843445
30
77.917679
11
8.953104
21
112.794434
31
58.160751
12
27.448534
22
112.966614
32
52.644741
13
27.448534
23
112.966614
33
52.644741
0
3DFACE
8
0
70
0
10
30.000843
20
104.843445
30
77.917679
11
7.408355
21
113.509613
31
74.868706
12
8.953104
22
112.794434
32
58.160751
13
8.953104
23
112.794434
33
58.160751
0
3DFACE
8
0
70
0
10
13.348390
20
216.543030
30
73.913834
11
17.261034
21
217.064941
31
77.016312
12
15.656910
22
229.815247
32
74.491364
13
12.315595
23
224.743835
33
72.273689
0
3DFACE
8
0
70
0
10
1.691899
20
212.966888
30
70.377480
11
2.084240
21
211.207428
31
72.834892
12
17.261034
22
217.064941
32
77.016312
13
13.348390
23
216.543030
33
73.913834
0
3DFACE
8
0
70
0
10
-1.244885
20
230.767334
30
70.698242
11
12.315595
21
224.743835
31
72.273689
12
15.656910
22
229.815247
32
74.491364
13
-1.366696
23
235.218201
33
72.382027
0
3DFACE
8
0
70
0
10
1.691899
20
212.966888
30
70.377480
11
-8.093180
21
212.233032
31
65.628693
12
-10.773458
22
210.330688
32
67.010895
13
2.084240
23
211.207428
33
72.834892
0
3DFACE
8
0
70
0
10
-8.093180
20
212.233032
30
65.628693
11
-13.231303
21
220.761169
31
62.024643
12
-17.833689
22
224.103699
32
62.095840
13
-10.773458
23
210.330688
33
67.010895
0
3DFACE
8
0
70
0
10
-1.244885
20
230.767334
30
70.698242
11
-1.366696
21
235.218201
31
72.382027
12
-17.833689
22
224.103699
32
62.095840
13
-13.231303
23
220.761169
33
62.024643
0
3DFACE
8
0
70
0
10
32.039364
20
233.868896
30
68.399887
11
31.150402
21
238.156189
31
70.389763
12
15.656910
22
229.815247
32
74.491364
13
20.197659
23
225.761719
33
71.940681
0
3DFACE
8
0
70
0
10
32.650928
20
215.840759
30
67.775581
11
21.283329
21
217.229065
31
73.818611
12
17.261034
22
217.064941
32
77.016312
13
32.701839
23
214.667358
33
70.854904
0
3DFACE
8
0
70
0
10
21.283329
20
217.229065
30
73.818611
11
20.197659
21
225.761719
31
71.940681
12
15.656910
22
229.815247
32
74.491364
13
17.261034
23
217.064941
33
77.016312
0
3DFACE
8
0
70
0
10
32.039364
20
233.868896
30
68.399887
11
44.512619
21
227.156128
31
55.675606
12
48.625824
22
231.613892
32
57.798023
13
31.150402
23
238.156189
33
70.389763
0
3DFACE
8
0
70
0
10
42.085087
20
217.220703
30
60.535889
11
45.487000
21
216.688354
31
63.372627
12
48.625824
22
231.613892
32
57.798023
13
44.512619
23
227.156128
33
55.675606
0
3DFACE
8
0
70
0
10
32.650928
20
215.840759
30
67.775581
11
32.701839
21
214.667358
31
70.854904
12
45.487000
22
216.688354
32
63.372627
13
42.085087
23
217.220703
33
60.535889
0
3DFACE
8
0
70
0
10
7.941822
20
167.122314
30
-9.261043
11
50.595451
21
163.743103
31
6.756345
12
67.139061
22
149.129578
32
-16.499142
13
7.123433
23
166.882263
33
-12.786493
0
3DFACE
8
0
70
0
10
7.123433
20
166.882263
30
-12.786493
11
-54.204647
21
148.466309
31
-6.786494
12
-25.358738
22
160.596191
32
12.415608
13
7.941822
23
167.122314
33
-9.261043
0
3DFACE
8
0
70
0
10
-54.204647
20
148.466309
30
-6.786494
11
-37.570045
21
133.062683
31
46.609161
12
-25.358738
22
160.596191
32
12.415608
13
-25.358738
23
160.596191
33
12.415608
0
3DFACE
8
0
70
0
10
-37.570045
20
133.062683
30
46.609161
11
-9.098062
21
144.234558
31
35.797737
12
-25.358738
22
160.596191
32
12.415608
13
-25.358738
23
160.596191
33
12.415608
0
3DFACE
8
0
70
0
10
70.428047
20
132.713989
30
34.496212
11
50.595451
21
163.743103
31
6.756345
12
53.624950
22
147.819397
32
29.350914
13
53.624950
23
147.819397
33
29.350914
0
3DFACE
8
0
70
0
10
67.139061
20
149.129578
30
-16.499142
11
50.595451
21
163.743103
31
6.756345
12
70.428047
22
132.713989
32
34.496212
13
70.428047
23
132.713989
33
34.496212
0
3DFACE
8
0
70
0
10
22.480545
20
136.570404
30
43.517910
11
-9.098062
21
144.234558
31
35.797737
12
-37.570045
22
133.062683
32
46.609161
13
-37.570045
23
133.062683
33
46.609161
0
3DFACE
8
0
70
0
10
23.864620
20
130.782593
30
28.357244
11
-9.098062
21
144.234558
31
35.797737
12
22.480545
22
136.570404
32
43.517910
13
22.480545
23
136.570404
33
43.517910
0
3DFACE
8
0
70
0
10
23.864620
20
130.782593
30
28.357244
11
22.480545
21
136.570404
31
43.517910
12
53.624950
22
147.819397
32
29.350914
13
53.624950
23
147.819397
33
29.350914
0
3DFACE
8
0
70
0
10
22.480545
20
136.570404
30
43.517910
11
70.428047
21
132.713989
31
34.496212
12
53.624950
22
147.819397
32
29.350914
13
53.624950
23
147.819397
33
29.350914
0
3DFACE
8
0
70
0
10
8.469061
20
224.823120
30
-45.381706
11
3.622046
21
279.412750
31
-24.297394
12
19.880844
22
285.230042
32
-22.542032
13
50.462208
23
237.882416
33
-29.857176
0
3DFACE
8
0
70
0
10
50.462208
20
237.882416
30
-29.857176
11
19.880844
21
285.230042
31
-22.542032
12
30.580221
22
292.352722
32
-19.070236
13
70.855881
23
250.254944
33
-11.486880
0
3DFACE
8
0
70
0
10
70.855881
20
250.254944
30
-11.486880
11
30.580221
21
292.352722
31
-19.070236
12
27.647715
22
298.076904
32
-14.623784
13
64.910515
23
257.659668
33
11.500129
0
3DFACE
8
0
70
0
10
64.910515
20
257.659668
30
11.500129
11
27.647715
21
298.076904
31
-14.623784
12
24.386290
22
305.215332
32
-9.135604
13
55.890678
23
268.752808
33
38.455486
0
3DFACE
8
0
70
0
10
10.295665
20
269.878662
30
61.596279
11
30.503714
21
270.216339
31
52.807335
12
11.807381
22
307.443359
32
-5.762041
13
1.710760
23
308.433472
33
-3.615559
0
3DFACE
8
0
70
0
10
8.469061
20
224.823120
30
-45.381706
11
-33.051987
21
228.444946
31
-24.456459
12
-13.158055
22
281.510864
32
-20.411755
13
3.622046
23
279.412750
33
-24.297394
0
3DFACE
8
0
70
0
10
-33.051987
20
228.444946
30
-24.456459
11
-53.179092
21
236.238434
31
-3.465757
12
-24.631233
22
286.137573
32
-15.510321
13
-13.158055
23
281.510864
33
-20.411755
0
3DFACE
8
0
70
0
10
-53.179092
20
236.238434
30
-3.465757
11
-46.154076
21
245.108887
31
18.682480
12
-22.490332
22
292.432861
32
-11.390990
13
-24.631233
23
286.137573
33
-15.510321
0
3DFACE
8
0
70
0
10
-46.154076
20
245.108887
30
18.682480
11
-36.472111
21
258.315430
31
44.428425
12
-20.210253
22
300.195099
32
-6.260114
13
-22.490332
23
292.432861
33
-11.390990
0
3DFACE
8
0
70
0
10
10.295665
20
269.878662
30
61.596279
11
1.710760
21
308.433472
31
-3.615559
12
-8.107802
22
305.201508
32
-4.477952
13
-10.431503
23
265.590485
33
55.454544
0
3DFACE
8
0
70
0
10
55.890678
20
268.752808
30
38.455486
11
24.386290
21
305.215332
31
-9.135604
12
11.807381
22
307.443359
32
-5.762041
13
30.503714
23
270.216339
33
52.807335
0
3DFACE
8
0
70
0
10
-36.472111
20
258.315430
30
44.428425
11
-10.431503
21
265.590485
31
55.454544
12
-8.107802
22
305.201508
32
-4.477952
13
-20.210253
23
300.195099
33
-6.260114
0
3DFACE
8
0
70
0
10
-0.781500
20
288.456055
30
-76.477173
11
13.929864
21
281.965454
31
-81.552444
12
-0.233695
22
277.159119
32
-87.598808
13
-0.233695
23
277.159119
33
-87.598808
0
3DFACE
8
0
70
0
10
14.100775
20
288.424896
30
-67.651520
11
13.929864
21
281.965454
31
-81.552444
12
-0.781500
22
288.456055
32
-76.477173
13
-0.781500
23
288.456055
33
-76.477173
0
3DFACE
8
0
70
0
10
0.108128
20
290.077972
30
-59.796902
11
14.100775
21
288.424896
31
-67.651520
12
-0.781500
22
288.456055
32
-76.477173
13
-0.781500
23
288.456055
33
-76.477173
0
3DFACE
8
0
70
0
10
0.108128
20
290.077972
30
-59.796902
11
-0.781500
21
288.456055
31
-76.477173
12
-14.055396
22
285.271667
32
-65.843216
13
-14.055396
23
285.271667
33
-65.843216
0
3DFACE
8
0
70
0
10
-14.055396
20
285.271667
30
-65.843216
11
-0.781500
21
288.456055
31
-76.477173
12
-14.226307
22
278.812256
32
-79.744141
13
-14.226307
23
278.812256
33
-79.744141
0
3DFACE
8
0
70
0
10
-0.781500
20
288.456055
30
-76.477173
11
-0.233695
21
277.159119
31
-87.598808
12
-14.226307
22
278.812256
32
-79.744141
13
-14.226307
23
278.812256
33
-79.744141
0
3DFACE
8
0
70
0
10
13.929864
20
281.965454
30
-81.552444
11
21.460913
21
269.601990
31
-78.096062
12
1.430647
22
262.804810
32
-86.646843
13
-0.233695
23
277.159119
33
-87.598808
0
3DFACE
8
0
70
0
10
21.702618
20
278.737000
30
-58.437107
11
21.460913
21
269.601990
31
-78.096062
12
13.929864
22
281.965454
32
-81.552444
13
14.100775
23
288.424896
33
-67.651520
0
3DFACE
8
0
70
0
10
1.914057
20
281.074829
30
-47.329025
11
21.702618
21
278.737000
31
-58.437107
12
14.100775
22
288.424896
32
-67.651520
13
0.108128
23
290.077972
33
-59.796902
0
3DFACE
8
0
70
0
10
1.914057
20
281.074829
30
-47.329025
11
0.108128
21
290.077972
31
-59.796902
12
-14.055396
22
285.271667
32
-65.843216
13
-18.116213
23
274.277679
33
-55.879784
0
3DFACE
8
0
70
0
10
-18.116213
20
274.277679
30
-55.879784
11
-14.055396
21
285.271667
31
-65.843216
12
-14.226307
22
278.812256
32
-79.744141
13
-18.357918
23
265.142670
33
-75.538734
0
3DFACE
8
0
70
0
10
-14.226307
20
278.812256
30
-79.744141
11
-0.233695
21
277.159119
31
-87.598808
12
1.430647
22
262.804810
32
-86.646843
13
-18.357918
23
265.142670
33
-75.538734
0
3DFACE
8
0
70
0
10
17.400131
20
258.608032
30
-68.132568
11
3.236576
21
253.801697
31
-74.178940
12
1.430647
22
262.804810
32
-86.646843
13
21.460913
23
269.601990
33
-78.096062
0
3DFACE
8
0
70
0
10
21.702618
20
278.737000
30
-58.437107
11
17.571043
21
265.067444
31
-54.231647
12
17.400131
22
258.608032
32
-68.132568
13
21.460913
23
269.601990
33
-78.096062
0
3DFACE
8
0
70
0
10
1.914057
20
281.074829
30
-47.329025
11
3.578399
21
266.720551
31
-46.377033
12
17.571043
22
265.067444
32
-54.231647
13
21.702618
23
278.737000
33
-58.437107
0
3DFACE
8
0
70
0
10
1.914057
20
281.074829
30
-47.329025
11
-18.116213
21
274.277679
31
-55.879784
12
-10.585125
22
261.914215
32
-52.423344
13
3.578399
23
266.720551
33
-46.377033
0
3DFACE
8
0
70
0
10
-18.116213
20
274.277679
30
-55.879784
11
-18.357918
21
265.142670
31
-75.538734
12
-10.756036
22
255.454803
32
-66.324265
13
-10.585125
23
261.914215
33
-52.423344
0
3DFACE
8
0
70
0
10
-10.756036
20
255.454803
30
-66.324265
11
-18.357918
21
265.142670
31
-75.538734
12
1.430647
22
262.804810
32
-86.646843
13
3.236576
23
253.801697
33
-74.178940
0
3DFACE
8
0
70
0
10
4.126197
20
255.423645
30
-57.498604
11
3.236576
21
253.801697
31
-74.178940
12
17.400131
22
258.608032
32
-68.132568
13
17.400131
23
258.608032
33
-68.132568
0
3DFACE
8
0
70
0
10
17.571043
20
265.067444
30
-54.231647
11
4.126197
21
255.423645
31
-57.498604
12
17.400131
22
258.608032
32
-68.132568
13
17.400131
23
258.608032
33
-68.132568
0
3DFACE
8
0
70
0
10
3.578399
20
266.720551
30
-46.377033
11
4.126197
21
255.423645
31
-57.498604
12
17.571043
22
265.067444
32
-54.231647
13
17.571043
23
265.067444
33
-54.231647
0
3DFACE
8
0
70
0
10
3.578399
20
266.720551
30
-46.377033
11
-10.585125
21
261.914215
31
-52.423344
12
4.126197
22
255.423645
32
-57.498604
13
4.126197
23
255.423645
33
-57.498604
0
3DFACE
8
0
70
0
10
-10.585125
20
261.914215
30
-52.423344
11
-10.756036
21
255.454803
31
-66.324265
12
4.126197
22
255.423645
32
-57.498604
13
4.126197
23
255.423645
33
-57.498604
0
3DFACE
8
0
70
0
10
4.126197
20
255.423645
30
-57.498604
11
-10.756036
21
255.454803
31
-66.324265
12
3.236576
22
253.801697
32
-74.178940
13
3.236576
23
253.801697
33
-74.178940
0
3DFACE
8
0
70
0
10
47.052849
20
190.001526
30
65.984566
11
69.151962
21
197.061401
31
42.419788
12
57.406990
22
206.037842
32
67.119957
13
57.406990
23
206.037842
33
67.119957
0
3DFACE
8
0
70
0
10
69.151962
20
197.061401
30
42.419788
11
64.981628
21
205.416321
31
42.402836
12
57.406990
22
206.037842
32
67.119957
13
57.406990
23
206.037842
33
67.119957
0
3DFACE
8
0
70
0
10
32.534386
20
186.513916
30
73.301735
11
47.052849
21
190.001526
31
65.984566
12
42.424652
22
204.777405
32
71.231117
13
42.424652
23
204.777405
33
71.231117
0
3DFACE
8
0
70
0
10
47.052849
20
190.001526
30
65.984566
11
57.406990
21
206.037842
31
67.119957
12
42.424652
22
204.777405
32
71.231117
13
42.424652
23
204.777405
33
71.231117
0
3DFACE
8
0
70
0
10
57.406990
20
206.037842
30
67.119957
11
64.981628
21
205.416321
31
42.402836
12
45.487000
22
216.688354
32
63.372627
13
45.487000
23
216.688354
33
63.372627
0
3DFACE
8
0
70
0
10
64.981628
20
205.416321
30
42.402836
11
61.047832
21
217.052948
31
41.623634
12
45.487000
22
216.688354
32
63.372627
13
45.487000
23
216.688354
33
63.372627
0
3DFACE
8
0
70
0
10
42.424652
20
204.777405
30
71.231117
11
45.487000
21
216.688354
31
63.372627
12
32.701839
22
214.667358
32
70.854904
13
32.701839
23
214.667358
33
70.854904
0
3DFACE
8
0
70
0
10
57.406990
20
206.037842
30
67.119957
11
45.487000
21
216.688354
31
63.372627
12
42.424652
22
204.777405
32
71.231117
13
42.424652
23
204.777405
33
71.231117
0
3DFACE
8
0
70
0
10
45.487000
20
216.688354
30
63.372627
11
61.047832
21
217.052948
31
41.623634
12
48.625824
22
231.613892
32
57.798023
13
48.625824
23
231.613892
33
57.798023
0
3DFACE
8
0
70
0
10
61.047832
20
217.052948
30
41.623634
11
61.921425
21
226.917816
31
40.282898
12
48.625824
22
231.613892
32
57.798023
13
48.625824
23
231.613892
33
57.798023
0
3DFACE
8
0
70
0
10
-32.854301
20
185.534241
30
49.016354
11
-20.354448
21
197.250458
31
72.148651
12
-30.681965
22
194.605927
32
48.589233
13
-30.681965
23
194.605927
33
48.589233
0
3DFACE
8
0
70
0
10
-6.925972
20
183.901703
30
69.475281
11
-20.354448
21
197.250458
31
72.148651
12
-32.854301
22
185.534241
32
49.016354
13
-32.854301
23
185.534241
33
49.016354
0
3DFACE
8
0
70
0
10
-6.925972
20
183.901703
30
69.475281
11
-5.068626
21
199.410461
31
74.302422
12
-20.354448
22
197.250458
32
72.148651
13
-20.354448
23
197.250458
33
72.148651
0
3DFACE
8
0
70
0
10
8.814157
20
183.833435
30
74.835678
11
-5.068626
21
199.410461
31
74.302422
12
-6.925972
22
183.901703
32
69.475281
13
-6.925972
23
183.901703
33
69.475281
0
3DFACE
8
0
70
0
10
-30.681965
20
194.605927
30
48.589233
11
-10.773458
21
210.330688
31
67.010895
12
-29.564560
22
206.813354
32
47.483379
13
-29.564560
23
206.813354
33
47.483379
0
3DFACE
8
0
70
0
10
-20.354448
20
197.250458
30
72.148651
11
-10.773458
21
210.330688
31
67.010895
12
-30.681965
22
194.605927
32
48.589233
13
-30.681965
23
194.605927
33
48.589233
0
3DFACE
8
0
70
0
10
-5.068626
20
199.410461
30
74.302422
11
2.084240
21
211.207428
31
72.834892
12
-10.773458
22
210.330688
32
67.010895
13
-10.773458
23
210.330688
33
67.010895
0
3DFACE
8
0
70
0
10
-20.354448
20
197.250458
30
72.148651
11
-5.068626
21
199.410461
31
74.302422
12
-10.773458
22
210.330688
32
67.010895
13
-10.773458
23
210.330688
33
67.010895
0
3DFACE
8
0
70
0
10
-29.564560
20
206.813354
30
47.483379
11
-17.833689
21
224.103699
31
62.095840
12
-32.771927
22
216.217041
32
46.406551
13
-32.771927
23
216.217041
33
46.406551
0
3DFACE
8
0
70
0
10
-10.773458
20
210.330688
30
67.010895
11
-17.833689
21
224.103699
31
62.095840
12
-29.564560
22
206.813354
32
47.483379
13
-29.564560
23
206.813354
33
47.483379
0
3DFACE
8
0
70
0
10
89.677979
20
-105.545944
30
19.801783
11
75.430435
21
-79.434792
31
18.775362
12
55.040966
22
-80.279976
32
0.948550
13
55.040966
23
-80.279976
33
0.948550
0
3DFACE
8
0
70
0
10
89.677979
20
-105.545944
30
19.801783
11
55.040966
21
-80.279976
31
0.948550
12
70.050713
22
-102.245377
32
5.532730
13
70.050713
23
-102.245377
33
5.532730
0
3DFACE
8
0
70
0
10
89.677979
20
-105.545944
30
19.801783
11
104.120697
21
-63.915100
31
-8.913575
12
75.430435
22
-79.434792
32
18.775362
13
75.430435
23
-79.434792
33
18.775362
0
3DFACE
8
0
70
0
10
89.677979
20
-105.545944
30
19.801783
11
113.933792
21
-91.752571
31
-4.208710
12
104.120697
22
-63.915100
32
-8.913575
13
104.120697
23
-63.915100
33
-8.913575
0
3DFACE
8
0
70
0
10
113.933792
20
-91.752571
30
-4.208710
11
103.606483
21
-58.923935
31
-27.822121
12
104.120697
22
-63.915100
32
-8.913575
13
104.120697
23
-63.915100
33
-8.913575
0
3DFACE
8
0
70
0
10
113.933792
20
-91.752571
30
-4.208710
11
112.739037
21
-85.028183
31
-20.277744
12
103.606483
22
-58.923935
32
-27.822121
13
103.606483
23
-58.923935
33
-27.822121
0
3DFACE
8
0
70
0
10
62.604729
20
-93.548393
30
-17.227856
11
55.040966
21
-80.279976
31
0.948550
12
46.733730
22
-75.462166
32
-25.324739
13
46.733730
23
-75.462166
33
-25.324739
0
3DFACE
8
0
70
0
10
70.050713
20
-102.245377
30
5.532730
11
55.040966
21
-80.279976
31
0.948550
12
62.604729
22
-93.548393
32
-17.227856
13
62.604729
23
-93.548393
33
-17.227856
0
3DFACE
8
0
70
0
10
96.336182
20
-83.954163
30
-28.277977
11
85.467834
21
-61.332893
31
-37.578632
12
103.606483
22
-58.923935
32
-27.822121
13
103.606483
23
-58.923935
33
-27.822121
0
3DFACE
8
0
70
0
10
112.739037
20
-85.028183
30
-20.277744
11
96.336182
21
-83.954163
31
-28.277977
12
103.606483
22
-58.923935
32
-27.822121
13
103.606483
23
-58.923935
33
-27.822121
0
3DFACE
8
0
70
0
10
62.604729
20
-93.548393
30
-17.227856
11
46.733730
21
-75.462166
31
-25.324739
12
85.467834
22
-61.332893
32
-37.578632
13
85.467834
23
-61.332893
33
-37.578632
0
3DFACE
8
0
70
0
10
96.336182
20
-83.954163
30
-28.277977
11
62.604729
21
-93.548393
31
-17.227856
12
85.467834
22
-61.332893
32
-37.578632
13
85.467834
23
-61.332893
33
-37.578632
0
3DFACE
8
0
70
0
10
-66.715240
20
-100.740677
30
34.333069
11
-48.432575
21
-100.963463
31
17.659502
12
-31.006668
22
-80.933998
32
12.354938
13
-31.006668
23
-80.933998
33
12.354938
0
3DFACE
8
0
70
0
10
-66.715240
20
-100.740677
30
34.333069
11
-31.006668
21
-80.933998
31
12.354938
12
-49.431591
22
-77.946663
32
32.068291
13
-49.431591
23
-77.946663
33
32.068291
0
3DFACE
8
0
70
0
10
-66.715240
20
-100.740677
30
34.333069
11
-49.431591
21
-77.946663
31
32.068291
12
-78.021645
22
-56.844002
32
7.890584
13
-78.021645
23
-56.844002
33
7.890584
0
3DFACE
8
0
70
0
10
-66.715240
20
-100.740677
30
34.333069
11
-78.021645
21
-56.844002
31
7.890584
12
-90.875061
22
-82.335236
32
13.244574
13
-90.875061
23
-82.335236
33
13.244574
0
3DFACE
8
0
70
0
10
-90.875061
20
-82.335236
30
13.244574
11
-78.021645
21
-56.844002
31
7.890584
12
-78.488846
22
-51.008369
32
-10.765904
13
-78.488846
23
-51.008369
33
-10.765904
0
3DFACE
8
0
70
0
10
-90.875061
20
-82.335236
30
13.244574
11
-78.488846
21
-51.008369
31
-10.765904
12
-90.333649
22
-75.731209
32
-2.988916
13
-90.333649
23
-75.731209
33
-2.988916
0
3DFACE
8
0
70
0
10
-42.148903
20
-93.495735
30
-6.033925
11
-24.459532
21
-76.063652
31
-14.378397
12
-31.006668
22
-80.933998
32
12.354938
13
-31.006668
23
-80.933998
33
12.354938
0
3DFACE
8
0
70
0
10
-48.432575
20
-100.963463
30
17.659502
11
-42.148903
21
-93.495735
31
-6.033925
12
-31.006668
22
-80.933998
32
12.354938
13
-31.006668
23
-80.933998
33
12.354938
0
3DFACE
8
0
70
0
10
-90.333649
20
-75.731209
30
-2.988916
11
-78.488846
21
-51.008369
31
-10.765904
12
-74.906944
22
-77.626022
32
-12.993974
13
-74.906944
23
-77.626022
33
-12.993974
0
3DFACE
8
0
70
0
10
-74.906944
20
-77.626022
30
-12.993974
11
-78.488846
21
-51.008369
31
-10.765904
12
-61.789806
22
-55.620041
32
-22.299759
13
-61.789806
23
-55.620041
33
-22.299759
0
3DFACE
8
0
70
0
10
-74.906944
20
-77.626022
30
-12.993974
11
-61.789806
21
-55.620041
31
-22.299759
12
-42.148903
22
-93.495735
32
-6.033925
13
-42.148903
23
-93.495735
33
-6.033925
0
3DFACE
8
0
70
0
10
-42.148903
20
-93.495735
30
-6.033925
11
-61.789806
21
-55.620041
31
-22.299759
12
-24.459532
22
-76.063652
32
-14.378397
13
-24.459532
23
-76.063652
33
-14.378397
0
3DFACE
8
0
70
0
10
75.882301
20
-116.512901
30
-5.453548
11
89.677979
21
-105.545944
31
19.801783
12
70.050713
22
-102.245377
32
5.532730
13
70.050713
23
-102.245377
33
5.532730
0
3DFACE
8
0
70
0
10
57.297878
20
-133.092789
30
-33.157761
11
75.882301
21
-116.512901
31
-5.453548
12
70.050713
22
-102.245377
32
5.532730
13
70.050713
23
-102.245377
33
5.532730
0
3DFACE
8
0
70
0
10
100.567368
20
-110.147003
30
-28.452213
11
113.933792
21
-91.752571
31
-4.208710
12
75.882301
22
-116.512901
32
-5.453548
13
75.882301
23
-116.512901
33
-5.453548
0
3DFACE
8
0
70
0
10
75.882301
20
-116.512901
30
-5.453548
11
113.933792
21
-91.752571
31
-4.208710
12
89.677979
22
-105.545944
32
19.801783
13
89.677979
23
-105.545944
33
19.801783
0
3DFACE
8
0
70
0
10
99.617134
20
-121.341202
30
-52.899075
11
112.739037
21
-85.028183
31
-20.277744
12
100.567368
22
-110.147003
32
-28.452213
13
100.567368
23
-110.147003
33
-28.452213
0
3DFACE
8
0
70
0
10
100.567368
20
-110.147003
30
-28.452213
11
112.739037
21
-85.028183
31
-20.277744
12
113.933792
22
-91.752571
32
-4.208710
13
113.933792
23
-91.752571
33
-4.208710
0
3DFACE
8
0
70
0
10
57.297878
20
-133.092789
30
-33.157761
11
70.050713
21
-102.245377
31
5.532730
12
62.604729
22
-93.548393
32
-17.227856
13
62.604729
23
-93.548393
33
-17.227856
0
3DFACE
8
0
70
0
10
29.809450
20
-152.813248
30
-58.985710
11
57.297878
21
-133.092789
31
-33.157761
12
62.604729
22
-93.548393
32
-17.227856
13
62.604729
23
-93.548393
33
-17.227856
0
3DFACE
8
0
70
0
10
93.068481
20
-135.115967
30
-86.284920
11
96.336182
21
-83.954163
31
-28.277977
12
99.617134
22
-121.341202
32
-52.899075
13
99.617134
23
-121.341202
33
-52.899075
0
3DFACE
8
0
70
0
10
99.617134
20
-121.341202
30
-52.899075
11
96.336182
21
-83.954163
31
-28.277977
12
112.739037
22
-85.028183
32
-20.277744
13
112.739037
23
-85.028183
33
-20.277744
0
3DFACE
8
0
70
0
10
29.809450
20
-152.813248
30
-58.985710
11
62.604729
21
-93.548393
31
-17.227856
12
93.068481
22
-135.115967
32
-86.284920
13
93.068481
23
-135.115967
33
-86.284920
0
3DFACE
8
0
70
0
10
93.068481
20
-135.115967
30
-86.284920
11
62.604729
21
-93.548393
31
-17.227856
12
96.336182
22
-83.954163
32
-28.277977
13
96.336182
23
-83.954163
33
-28.277977
0
3DFACE
8
0
70
0
10
-47.017708
20
-134.332520
30
-20.197754
11
-48.432575
21
-100.963463
31
17.659502
12
-60.049313
22
-113.637436
32
9.195896
13
-60.049313
23
-113.637436
33
9.195896
0
3DFACE
8
0
70
0
10
-60.049313
20
-113.637436
30
9.195896
11
-48.432575
21
-100.963463
31
17.659502
12
-66.715240
22
-100.740677
32
34.333069
13
-66.715240
23
-100.740677
33
34.333069
0
3DFACE
8
0
70
0
10
-60.049313
20
-113.637436
30
9.195896
11
-66.715240
21
-100.740677
31
34.333069
12
-90.875061
22
-82.335236
32
13.244574
13
-90.875061
23
-82.335236
33
13.244574
0
3DFACE
8
0
70
0
10
-85.654877
20
-104.056007
30
-11.570069
11
-60.049313
21
-113.637436
31
9.195896
12
-90.875061
22
-82.335236
32
13.244574
13
-90.875061
23
-82.335236
33
13.244574
0
3DFACE
8
0
70
0
10
-85.654877
20
-104.056007
30
-11.570069
11
-90.875061
21
-82.335236
31
13.244574
12
-90.333649
22
-75.731209
32
-2.988916
13
-90.333649
23
-75.731209
33
-2.988916
0
3DFACE
8
0
70
0
10
-88.869591
20
-116.211754
30
-35.922569
11
-85.654877
21
-104.056007
31
-11.570069
12
-90.333649
22
-75.731209
32
-2.988916
13
-90.333649
23
-75.731209
33
-2.988916
0
3DFACE
8
0
70
0
10
-25.507793
20
-159.592056
30
-48.557571
11
-42.148903
21
-93.495735
31
-6.033925
12
-47.017708
22
-134.332520
32
-20.197754
13
-47.017708
23
-134.332520
33
-20.197754
0
3DFACE
8
0
70
0
10
-47.017708
20
-134.332520
30
-20.197754
11
-42.148903
21
-93.495735
31
-6.033925
12
-48.432575
22
-100.963463
32
17.659502
13
-48.432575
23
-100.963463
33
17.659502
0
3DFACE
8
0
70
0
10
-88.869591
20
-116.211754
30
-35.922569
11
-90.333649
21
-75.731209
31
-2.988916
12
-74.906944
22
-77.626022
32
-12.993974
13
-74.906944
23
-77.626022
33
-12.993974
0
3DFACE
8
0
70
0
10
-87.832687
20
-132.278915
30
-69.833282
11
-88.869591
21
-116.211754
31
-35.922569
12
-74.906944
22
-77.626022
32
-12.993974
13
-74.906944
23
-77.626022
33
-12.993974
0
3DFACE
8
0
70
0
10
-87.832687
20
-132.278915
30
-69.833282
11
-74.906944
21
-77.626022
31
-12.993974
12
-42.148903
22
-93.495735
32
-6.033925
13
-42.148903
23
-93.495735
33
-6.033925
0
3DFACE
8
0
70
0
10
-25.507793
20
-159.592056
30
-48.557571
11
-87.832687
21
-132.278915
31
-69.833282
12
-42.148903
22
-93.495735
32
-6.033925
13
-42.148903
23
-93.495735
33
-6.033925
0
3DFACE
8
0
70
0
10
124.987556
20
38.584320
30
54.083939
11
31.148579
21
65.984344
31
105.483612
12
29.893820
22
46.406448
32
97.371300
13
29.893820
23
46.406448
33
97.371300
0
3DFACE
8
0
70
0
10
124.987556
20
38.584320
30
54.083939
11
126.851135
21
73.459824
31
59.655449
12
31.148579
22
65.984344
32
105.483612
13
31.148579
23
65.984344
33
105.483612
0
3DFACE
8
0
70
0
10
103.372864
20
0.869293
30
-94.282265
11
-0.176368
21
-5.769348
31
-108.924103
12
0.273751
22
28.202240
32
-106.908592
13
0.273751
23
28.202240
33
-106.908592
0
3DFACE
8
0
70
0
10
103.372864
20
0.869293
30
-94.282265
11
0.273751
21
28.202240
31
-106.908592
12
105.285019
22
35.829559
32
-88.377289
13
105.285019
23
35.829559
33
-88.377289
0
3DFACE
8
0
70
0
10
124.987556
20
38.584320
30
54.083939
11
139.018158
21
52.442719
31
-26.121000
12
126.851135
22
73.459824
32
59.655449
13
126.851135
23
73.459824
33
59.655449
0
3DFACE
8
0
70
0
10
124.987556
20
38.584320
30
54.083939
11
138.418503
21
20.136780
31
-21.557465
12
139.018158
22
52.442719
32
-26.121000
13
139.018158
23
52.442719
33
-26.121000
0
3DFACE
8
0
70
0
10
138.418503
20
20.136780
30
-21.557465
11
103.372864
21
0.869293
31
-94.282265
12
105.285019
22
35.829559
32
-88.377289
13
105.285019
23
35.829559
33
-88.377289
0
3DFACE
8
0
70
0
10
138.418503
20
20.136780
30
-21.557465
11
105.285019
21
35.829559
31
-88.377289
12
139.018158
22
52.442719
32
-26.121000
13
139.018158
23
52.442719
33
-26.121000
0
3DFACE
8
0
70
0
10
-73.628189
20
39.411163
30
82.809036
11
29.893820
21
46.406448
31
97.371300
12
31.148579
22
65.984344
32
105.483612
13
31.148579
23
65.984344
33
105.483612
0
3DFACE
8
0
70
0
10
-73.628189
20
39.411163
30
82.809036
11
31.148579
21
65.984344
31
105.483612
12
-73.552383
22
74.294098
32
88.639107
13
-73.552383
23
74.294098
33
88.639107
0
3DFACE
8
0
70
0
10
-95.242882
20
1.696136
30
-65.557167
11
0.273751
21
28.202240
31
-106.908592
12
-0.176368
22
-5.769348
32
-108.924103
13
-0.176368
23
-5.769348
33
-108.924103
0
3DFACE
8
0
70
0
10
-95.242882
20
1.696136
30
-65.557167
11
-95.118492
21
36.663834
31
-59.393631
12
0.273751
22
28.202240
32
-106.908592
13
0.273751
23
28.202240
33
-106.908592
0
3DFACE
8
0
70
0
10
-73.628189
20
39.411163
30
82.809036
11
-109.694199
21
53.478104
31
9.849395
12
-108.089622
22
21.163010
32
14.094141
13
-108.089622
23
21.163010
33
14.094141
0
3DFACE
8
0
70
0
10
-73.628189
20
39.411163
30
82.809036
11
-73.552383
21
74.294098
31
88.639107
12
-109.694199
22
53.478104
32
9.849395
13
-109.694199
23
53.478104
33
9.849395
0
3DFACE
8
0
70
0
10
-108.089622
20
21.163010
30
14.094141
11
-109.694199
21
53.478104
31
9.849395
12
-95.118492
22
36.663834
32
-59.393631
13
-95.118492
23
36.663834
33
-59.393631
0
3DFACE
8
0
70
0
10
-108.089622
20
21.163010
30
14.094141
11
-95.118492
21
36.663834
31
-59.393631
12
-95.242882
22
1.696136
32
-65.557167
13
-95.242882
23
1.696136
33
-65.557167
0
3DFACE
8
0
70
0
10
31.148579
20
65.984344
30
105.483612
11
70.428047
21
132.713989
31
34.496212
12
22.480545
22
136.570404
32
43.517910
13
22.480545
23
136.570404
33
43.517910
0
3DFACE
8
0
70
0
10
31.148579
20
65.984344
30
105.483612
11
126.851135
21
73.459824
31
59.655449
12
70.428047
22
132.713989
32
34.496212
13
70.428047
23
132.713989
33
34.496212
0
3DFACE
8
0
70
0
10
105.285019
20
35.829559
30
-88.377289
11
0.273751
21
28.202240
31
-106.908592
12
59.277988
22
135.290833
32
-59.297466
13
59.277988
23
135.290833
33
-59.297466
0
3DFACE
8
0
70
0
10
0.273751
20
28.202240
30
-106.908592
11
2.721585
21
139.313721
31
-59.527321
12
59.277988
22
135.290833
32
-59.297466
13
59.277988
23
135.290833
33
-59.297466
0
3DFACE
8
0
70
0
10
126.851135
20
73.459824
30
59.655449
11
108.640266
21
99.202087
31
-10.379412
12
92.315948
22
134.076294
32
27.573353
13
92.315948
23
134.076294
33
27.573353
0
3DFACE
8
0
70
0
10
126.851135
20
73.459824
30
59.655449
11
139.018158
21
52.442719
31
-26.121000
12
108.640266
22
99.202087
32
-10.379412
13
108.640266
23
99.202087
33
-10.379412
0
3DFACE
8
0
70
0
10
105.285019
20
35.829559
30
-88.377289
11
82.088646
21
116.091949
31
-45.160717
12
108.640266
22
99.202087
32
-10.379412
13
108.640266
23
99.202087
33
-10.379412
0
3DFACE
8
0
70
0
10
139.018158
20
52.442719
30
-26.121000
11
105.285019
21
35.829559
31
-88.377289
12
108.640266
22
99.202087
32
-10.379412
13
108.640266
23
99.202087
33
-10.379412
0
3DFACE
8
0
70
0
10
126.851135
20
73.459824
30
59.655449
11
92.315948
21
134.076294
31
27.573353
12
70.428047
22
132.713989
32
34.496212
13
70.428047
23
132.713989
33
34.496212
0
3DFACE
8
0
70
0
10
105.285019
20
35.829559
30
-88.377289
11
59.277988
21
135.290833
31
-59.297466
12
82.088646
22
116.091949
32
-45.160717
13
82.088646
23
116.091949
33
-45.160717
0
3DFACE
8
0
70
0
10
31.148579
20
65.984344
30
105.483612
11
-37.570045
21
133.062683
31
46.609161
12
-73.552383
22
74.294098
32
88.639107
13
-73.552383
23
74.294098
33
88.639107
0
3DFACE
8
0
70
0
10
31.148579
20
65.984344
30
105.483612
11
22.480545
21
136.570404
31
43.517910
12
-37.570045
22
133.062683
32
46.609161
13
-37.570045
23
133.062683
33
46.609161
0
3DFACE
8
0
70
0
10
-95.118492
20
36.663834
30
-59.393631
11
-49.102726
21
135.613556
31
-48.085480
12
0.273751
22
28.202240
32
-106.908592
13
0.273751
23
28.202240
33
-106.908592
0
3DFACE
8
0
70
0
10
0.273751
20
28.202240
30
-106.908592
11
-49.102726
21
135.613556
31
-48.085480
12
2.721585
22
139.313721
32
-59.527321
13
2.721585
23
139.313721
33
-59.527321
0
3DFACE
8
0
70
0
10
-73.552383
20
74.294098
30
88.639107
11
-70.016624
21
131.397400
31
39.098068
12
-94.312416
22
100.709747
32
2.358987
13
-94.312416
23
100.709747
33
2.358987
0
3DFACE
8
0
70
0
10
-73.552383
20
74.294098
30
88.639107
11
-94.312416
21
100.709747
31
2.358987
12
-109.694199
22
53.478104
32
9.849395
13
-109.694199
23
53.478104
33
9.849395
0
3DFACE
8
0
70
0
10
-109.694199
20
53.478104
30
9.849395
11
-94.312416
21
100.709747
31
2.358987
12
-95.118492
22
36.663834
32
-59.393631
13
-95.118492
23
36.663834
33
-59.393631
0
3DFACE
8
0
70
0
10
-95.118492
20
36.663834
30
-59.393631
11
-94.312416
21
100.709747
31
2.358987
12
-76.074074
22
118.764374
32
-35.916985
13
-76.074074
23
118.764374
33
-35.916985
0
3DFACE
8
0
70
0
10
-73.552383
20
74.294098
30
88.639107
11
-37.570045
21
133.062683
31
46.609161
12
-70.016624
22
131.397400
32
39.098068
13
-70.016624
23
131.397400
33
39.098068
0
3DFACE
8
0
70
0
10
-95.118492
20
36.663834
30
-59.393631
11
-76.074074
21
118.764374
31
-35.916985
12
-49.102726
22
135.613556
32
-48.085480
13
-49.102726
23
135.613556
33
-48.085480
0
3DFACE
8
0
70
0
10
108.640266
20
99.202087
30
-10.379412
11
155.773270
21
128.959167
31
37.957352
12
92.315948
22
134.076294
32
27.573353
13
92.315948
23
134.076294
33
27.573353
0
3DFACE
8
0
70
0
10
172.712540
20
92.308075
30
12.573717
11
155.773270
21
128.959167
31
37.957352
12
108.640266
22
99.202087
32
-10.379412
13
108.640266
23
99.202087
33
-10.379412
0
3DFACE
8
0
70
0
10
92.315948
20
134.076294
30
27.573353
11
176.819183
21
145.687988
31
-7.012129
12
67.139061
22
149.129578
32
-16.499142
13
67.139061
23
149.129578
33
-16.499142
0
3DFACE
8
0
70
0
10
92.315948
20
134.076294
30
27.573353
11
155.773270
21
128.959167
31
37.957352
12
176.819183
22
145.687988
32
-7.012129
13
176.819183
23
145.687988
33
-7.012129
0
3DFACE
8
0
70
0
10
82.088646
20
116.091949
30
-45.160717
11
67.139061
21
149.129578
31
-16.499142
12
176.819183
22
145.687988
32
-7.012129
13
176.819183
23
145.687988
33
-7.012129
0
3DFACE
8
0
70
0
10
82.088646
20
116.091949
30
-45.160717
11
176.819183
21
145.687988
31
-7.012129
12
190.059677
22
108.742493
32
-25.063215
13
190.059677
23
108.742493
33
-25.063215
0
3DFACE
8
0
70
0
10
108.640266
20
99.202087
30
-10.379412
11
82.088646
21
116.091949
31
-45.160717
12
190.059677
22
108.742493
32
-25.063215
13
190.059677
23
108.742493
33
-25.063215
0
3DFACE
8
0
70
0
10
172.712540
20
92.308075
30
12.573717
11
108.640266
21
99.202087
31
-10.379412
12
190.059677
22
108.742493
32
-25.063215
13
190.059677
23
108.742493
33
-25.063215
0
3DFACE
8
0
70
0
10
-94.312416
20
100.709747
30
2.358987
11
-70.016624
21
131.397400
31
39.098068
12
-150.055008
22
128.079102
32
32.424271
13
-150.055008
23
128.079102
33
32.424271
0
3DFACE
8
0
70
0
10
-180.379349
20
104.131897
30
4.373229
11
-94.312416
21
100.709747
31
2.358987
12
-150.055008
22
128.079102
32
32.424271
13
-150.055008
23
128.079102
33
32.424271
0
3DFACE
8
0
70
0
10
-70.016624
20
131.397400
30
39.098068
11
-54.204647
21
148.466309
31
-6.786494
12
-176.532059
22
160.924683
32
1.259071
13
-176.532059
23
160.924683
33
1.259071
0
3DFACE
8
0
70
0
10
-70.016624
20
131.397400
30
39.098068
11
-176.532059
21
160.924683
31
1.259071
12
-150.055008
22
128.079102
32
32.424271
13
-150.055008
23
128.079102
33
32.424271
0
3DFACE
8
0
70
0
10
-76.074074
20
118.764374
30
-35.916985
11
-176.532059
21
160.924683
31
1.259071
12
-54.204647
22
148.466309
32
-6.786494
13
-54.204647
23
148.466309
33
-6.786494
0
3DFACE
8
0
70
0
10
-76.074074
20
118.764374
30
-35.916985
11
-201.727280
21
133.864746
31
-21.158144
12
-176.532059
22
160.924683
32
1.259071
13
-176.532059
23
160.924683
33
1.259071
0
3DFACE
8
0
70
0
10
-94.312416
20
100.709747
30
2.358987
11
-201.727280
21
133.864746
31
-21.158144
12
-76.074074
22
118.764374
32
-35.916985
13
-76.074074
23
118.764374
33
-35.916985
0
3DFACE
8
0
70
0
10
-180.379349
20
104.131897
30
4.373229
11
-201.727280
21
133.864746
31
-21.158144
12
-94.312416
22
100.709747
32
2.358987
13
-94.312416
23
100.709747
33
2.358987
0
3DFACE
8
0
70
0
10
-182.601196
20
102.361176
30
50.078941
11
-180.379349
21
104.131897
31
4.373229
12
-150.055008
22
128.079102
32
32.424271
13
-150.055008
23
128.079102
33
32.424271
0
3DFACE
8
0
70
0
10
-182.601196
20
102.361176
30
50.078941
11
-150.055008
21
128.079102
31
32.424271
12
-140.747162
22
125.305664
32
40.902409
13
-140.747162
23
125.305664
33
40.902409
0
3DFACE
8
0
70
0
10
-140.747162
20
125.305664
30
40.902409
11
-150.055008
21
128.079102
31
32.424271
12
-176.532059
22
160.924683
32
1.259071
13
-176.532059
23
160.924683
33
1.259071
0
3DFACE
8
0
70
0
10
-140.747162
20
125.305664
30
40.902409
11
-176.532059
21
160.924683
31
1.259071
12
-177.967529
22
160.551941
32
54.889793
13
-177.967529
23
160.551941
33
54.889793
0
3DFACE
8
0
70
0
10
-212.598053
20
134.444336
30
61.736755
11
-177.967529
21
160.551941
31
54.889793
12
-176.532059
22
160.924683
32
1.259071
13
-176.532059
23
160.924683
33
1.259071
0
3DFACE
8
0
70
0
10
-212.598053
20
134.444336
30
61.736755
11
-176.532059
21
160.924683
31
1.259071
12
-201.727280
22
133.864746
32
-21.158144
13
-201.727280
23
133.864746
33
-21.158144
0
3DFACE
8
0
70
0
10
-182.601196
20
102.361176
30
50.078941
11
-212.598053
21
134.444336
31
61.736755
12
-201.727280
22
133.864746
32
-21.158144
13
-201.727280
23
133.864746
33
-21.158144
0
3DFACE
8
0
70
0
10
-182.601196
20
102.361176
30
50.078941
11
-201.727280
21
133.864746
31
-21.158144
12
-180.379349
22
104.131897
32
4.373229
13
-180.379349
23
104.131897
33
4.373229
0
3DFACE
8
0
70
0
10
211.015213
20
96.248596
30
39.326332
11
155.773270
21
128.959167
31
37.957352
12
172.712540
22
92.308075
32
12.573717
13
172.712540
23
92.308075
33
12.573717
0
3DFACE
8
0
70
0
10
211.015213
20
96.248596
30
39.326332
11
179.539795
21
131.063416
31
51.961346
12
155.773270
22
128.959167
32
37.957352
13
155.773270
23
128.959167
33
37.957352
0
3DFACE
8
0
70
0
10
179.539795
20
131.063416
30
51.961346
11
176.819183
21
145.687988
31
-7.012129
12
155.773270
22
128.959167
32
37.957352
13
155.773270
23
128.959167
33
37.957352
0
3DFACE
8
0
70
0
10
179.539795
20
131.063416
30
51.961346
11
219.372894
21
152.099060
31
23.781069
12
176.819183
22
145.687988
32
-7.012129
13
176.819183
23
145.687988
33
-7.012129
0
3DFACE
8
0
70
0
10
243.900284
20
116.637573
30
15.495502
11
190.059677
21
108.742493
31
-25.063215
12
176.819183
22
145.687988
32
-7.012129
13
176.819183
23
145.687988
33
-7.012129
0
3DFACE
8
0
70
0
10
243.900284
20
116.637573
30
15.495502
11
176.819183
21
145.687988
31
-7.012129
12
219.372894
22
152.099060
32
23.781069
13
219.372894
23
152.099060
33
23.781069
0
3DFACE
8
0
70
0
10
211.015213
20
96.248596
30
39.326332
11
172.712540
21
92.308075
31
12.573717
12
190.059677
22
108.742493
32
-25.063215
13
190.059677
23
108.742493
33
-25.063215
0
3DFACE
8
0
70
0
10
211.015213
20
96.248596
30
39.326332
11
190.059677
21
108.742493
31
-25.063215
12
243.900284
22
116.637573
32
15.495502
13
243.900284
23
116.637573
33
15.495502
0
3DFACE
8
0
70
0
10
-2.255678
20
271.300568
30
-55.868187
11
2.653657
21
269.903839
31
-55.080189
12
3.622046
22
279.412750
32
-24.297394
13
-13.158055
23
281.510864
33
-20.411755
0
3DFACE
8
0
70
0
10
6.995955
20
272.336670
30
-56.462364
11
19.880844
21
285.230042
31
-22.542032
12
3.622046
22
279.412750
32
-24.297394
13
2.653657
23
269.903839
33
-55.080189
0
3DFACE
8
0
70
0
10
9.679517
20
275.526550
30
-58.272438
11
30.580221
21
292.352722
31
-19.070236
12
19.880844
22
285.230042
32
-22.542032
13
6.995955
23
272.336670
33
-56.462364
0
3DFACE
8
0
70
0
10
8.538660
20
278.354614
30
-59.874531
11
27.647715
21
298.076904
31
-14.623784
12
30.580221
22
292.352722
32
-19.070236
13
9.679517
23
275.526550
33
-58.272438
0
3DFACE
8
0
70
0
10
7.229067
20
281.872284
30
-61.867378
11
24.386290
21
305.215332
31
-9.135604
12
27.647715
22
298.076904
32
-14.623784
13
8.538660
23
278.354614
33
-59.874531
0
3DFACE
8
0
70
0
10
3.514271
20
283.235352
30
-62.637180
11
11.807381
21
307.443359
31
-5.762041
12
24.386290
22
305.215332
32
-9.135604
13
7.229067
23
281.872284
33
-61.867378
0
3DFACE
8
0
70
0
10
0.574695
20
283.944427
30
-63.036877
11
1.710760
21
308.433472
31
-3.615559
12
11.807381
22
307.443359
32
-5.762041
13
3.514271
23
283.235352
33
-62.637180
0
3DFACE
8
0
70
0
10
0.574695
20
283.944427
30
-63.036877
11
-2.062427
21
282.610809
31
-62.279022
12
-8.107802
22
305.201508
32
-4.477952
13
1.710760
23
308.433472
33
-3.615559
0
3DFACE
8
0
70
0
10
-2.062427
20
282.610809
30
-62.279022
11
-5.258965
21
280.473724
31
-61.065346
12
-20.210253
22
300.195099
32
-6.260114
13
-8.107802
23
305.201508
33
-4.477952
0
3DFACE
8
0
70
0
10
-5.258965
20
280.473724
30
-61.065346
11
-5.501117
21
276.782288
31
-58.972839
12
-22.490332
22
292.432861
32
-11.390990
13
-20.210253
23
300.195099
33
-6.260114
0
3DFACE
8
0
70
0
10
-5.501117
20
276.782288
30
-58.972839
11
-5.780929
21
273.795135
31
-57.279507
12
-24.631233
22
286.137573
32
-15.510321
13
-22.490332
23
292.432861
33
-11.390990
0
3DFACE
8
0
70
0
10
-5.780929
20
273.795135
30
-57.279507
11
-2.255678
21
271.300568
31
-55.868187
12
-13.158055
22
281.510864
32
-20.411755
13
-24.631233
23
286.137573
33
-15.510321
0
ENDSEC
0
EOF
