0
SECTION
2
HEADER
999
DXF File Generated by LightWave 3D(TM)
0
ENDSEC
0
SECTION
2
TABLES
0
ENDSEC
0
SECTION
2
BLOCKS
0
ENDSEC
0
SECTION
2
ENTITIES
0
3DFACE
8
0
70
0
10
8.077796
20
-13.075226
30
76.182030
11
43.795864
21
-24.352379
31
50.370670
12
77.699921
22
-32.897690
32
17.059032
13
68.499084
23
-32.149841
33
41.977345
0
3DFACE
8
0
70
0
10
52.731419
20
-36.453201
30
-78.943802
11
55.676205
21
-53.445679
31
-60.757977
12
9.913218
22
-55.964661
32
-69.347809
13
-14.192544
23
-19.153320
33
-94.607674
0
3DFACE
8
0
70
0
10
9.207778
20
-19.000473
30
96.896797
11
8.077796
21
-13.075226
31
76.182030
12
68.499084
22
-32.149841
32
41.977345
13
89.327530
23
-44.362869
33
53.831772
0
3DFACE
8
0
70
0
10
69.373055
20
-49.808899
30
-99.197731
11
52.731419
21
-36.453201
31
-78.943802
12
-14.192544
22
-19.153320
32
-94.607674
13
-18.528946
23
-26.570457
33
-115.814209
0
3DFACE
8
0
70
0
10
11.632723
20
-15.097153
30
109.228050
11
96.320084
21
-42.156998
31
61.478939
12
122.665222
22
5.782333
32
61.062611
13
24.359797
23
37.938110
33
111.033043
0
3DFACE
8
0
70
0
10
73.771530
20
-48.311005
30
-111.444397
11
-19.709774
21
-23.651245
31
-131.135391
12
-6.968222
22
29.386200
32
-129.332962
13
100.116661
23
-0.371674
33
-111.860725
0
3DFACE
8
0
70
0
10
24.359797
20
37.938110
30
111.033043
11
122.665222
21
5.782333
31
61.062611
12
116.007721
22
8.377808
32
53.691605
13
23.041651
23
38.646973
33
98.858757
0
3DFACE
8
0
70
0
10
11.632723
20
-15.097153
30
109.228050
11
9.207778
21
-19.000473
31
96.896797
12
89.327530
22
-44.362869
32
53.831772
13
96.320084
23
-42.156998
33
61.478939
0
3DFACE
8
0
70
0
10
100.116661
20
-0.371674
30
-111.860725
11
-6.968222
21
29.386200
31
-129.332962
12
-4.173962
22
31.112976
32
-113.966423
13
96.053246
23
2.931778
33
-99.337898
0
3DFACE
8
0
70
0
10
73.771530
20
-48.311005
30
-111.444397
11
69.373055
21
-49.808899
31
-99.197731
12
-18.528946
22
-26.570457
32
-115.814209
13
-19.709774
23
-23.651245
33
-131.135391
0
3DFACE
8
0
70
0
10
27.673773
20
-119.444244
30
102.617195
11
74.813721
21
-119.444244
31
102.617195
12
66.977409
22
-98.812729
32
87.801697
13
33.987896
23
-98.998032
33
87.801697
0
3DFACE
8
0
70
0
10
68.499084
20
-32.149841
30
41.977345
11
77.699921
21
-32.897690
31
17.059032
12
77.135239
22
-47.359253
32
-23.229002
13
75.994637
23
-38.831238
33
-19.565418
0
3DFACE
8
0
70
0
10
89.327530
20
-44.362869
30
53.831772
11
68.499084
21
-32.149841
31
41.977345
12
75.994637
22
-38.831238
32
-19.565418
13
99.931488
23
-53.125488
33
-23.828260
0
3DFACE
8
0
70
0
10
122.665222
20
5.782333
30
61.062611
11
96.320084
21
-42.156998
31
61.478939
12
107.107498
22
-51.598480
32
-24.715935
13
136.689896
23
-4.633469
33
-25.644394
0
3DFACE
8
0
70
0
10
136.689896
20
-4.633469
30
-25.644394
11
129.658417
21
-1.301788
31
-24.450413
12
116.007721
22
8.377808
32
53.691605
13
122.665222
23
5.782333
33
61.062611
0
3DFACE
8
0
70
0
10
96.320084
20
-42.156998
30
61.478939
11
89.327530
21
-44.362869
31
53.831772
12
99.931488
22
-53.125488
32
-23.828260
13
107.107498
23
-51.598480
33
-24.715935
0
3DFACE
8
0
70
0
10
12.906889
20
-152.844193
30
102.617195
11
80.090286
21
-153.029510
31
102.617195
12
74.813721
22
-119.444244
32
102.617195
13
27.673773
23
-119.444244
33
102.617195
0
3DFACE
8
0
70
0
10
-1.853932
20
175.667419
30
2.126543
11
62.168655
21
158.462280
31
-4.389199
12
53.064346
22
151.893738
32
-40.071373
13
-1.857344
23
152.779846
33
-48.828026
0
3DFACE
8
0
70
0
10
75.994637
20
-38.831238
30
-19.565418
11
77.135239
21
-47.359253
31
-23.229002
12
55.676205
22
-53.445679
32
-60.757977
13
52.731419
23
-36.453201
33
-78.943802
0
3DFACE
8
0
70
0
10
99.931488
20
-53.125488
30
-23.828260
11
75.994637
21
-38.831238
31
-19.565418
12
52.731419
22
-36.453201
32
-78.943802
13
69.373055
23
-49.808899
33
-99.197731
0
3DFACE
8
0
70
0
10
107.107498
20
-51.598480
30
-24.715935
11
73.771530
21
-48.311005
31
-111.444397
12
100.116661
22
-0.371674
32
-111.860725
13
136.689896
23
-4.633469
33
-25.644394
0
3DFACE
8
0
70
0
10
100.116661
20
-0.371674
30
-111.860725
11
96.053246
21
2.931778
31
-99.337898
12
129.658417
22
-1.301788
32
-24.450413
13
136.689896
23
-4.633469
33
-25.644394
0
3DFACE
8
0
70
0
10
107.107498
20
-51.598480
30
-24.715935
11
99.931488
21
-53.125488
31
-23.828260
12
69.373055
22
-49.808899
32
-99.197731
13
73.771530
23
-48.311005
33
-111.444397
0
3DFACE
8
0
70
0
10
37.070427
20
-47.034248
30
18.615324
11
43.795864
21
-24.352379
31
50.370670
12
19.751364
22
-43.018509
32
-5.421979
13
21.538298
23
-54.976074
33
-3.669377
0
3DFACE
8
0
70
0
10
37.070427
20
-47.034248
30
18.615324
11
73.937141
21
-50.666687
31
-4.146908
12
77.699921
22
-32.897690
32
17.059032
13
43.795864
23
-24.352379
33
50.370670
0
3DFACE
8
0
70
0
10
73.937141
20
-50.666687
30
-4.146908
11
78.796059
21
-56.046318
31
-23.638697
12
77.135239
22
-47.359253
32
-23.229002
13
77.699921
23
-32.897690
33
17.059032
0
3DFACE
8
0
70
0
10
21.538298
20
-54.976074
30
-3.669377
11
19.751364
21
-43.018509
31
-5.421979
12
9.913218
22
-55.964661
32
-69.347809
13
20.617491
23
-63.545784
33
-32.243809
0
3DFACE
8
0
70
0
10
78.796059
20
-56.046318
30
-23.638697
11
63.242729
21
-61.399185
31
-37.205345
12
55.676205
22
-53.445679
32
-60.757977
13
77.135239
23
-47.359253
33
-23.229002
0
3DFACE
8
0
70
0
10
63.242729
20
-61.399185
30
-37.205345
11
20.617491
21
-63.545784
31
-32.243809
12
9.913218
22
-55.964661
32
-69.347809
13
55.676205
23
-53.445679
33
-60.757977
0
3DFACE
8
0
70
0
10
29.064859
20
-123.569733
30
0.799257
11
27.673773
21
-127.827744
31
43.725594
12
33.987896
22
-108.736435
32
35.947453
13
40.718781
23
-91.708771
33
21.145638
0
3DFACE
8
0
70
0
10
40.718781
20
-91.708771
30
21.145638
11
33.987896
21
-108.736435
31
35.947453
12
66.977409
22
-112.334427
32
35.947453
13
71.625465
23
-99.772743
33
3.584298
0
3DFACE
8
0
70
0
10
76.852173
20
-124.071625
30
-12.312391
11
71.625465
21
-99.772743
31
3.584298
12
66.977409
22
-112.334427
32
35.947453
13
74.813721
23
-127.827744
33
43.725594
0
3DFACE
8
0
70
0
10
7.942008
20
-157.298187
30
-18.447975
11
16.610764
21
-150.617310
31
32.613968
12
27.673773
22
-127.827744
32
43.725594
13
29.064859
23
-123.569733
33
0.799257
0
3DFACE
8
0
70
0
10
78.792152
20
-156.524841
30
-36.159115
11
76.852173
21
-124.071625
31
-12.312391
12
74.813721
22
-127.827744
32
43.725594
13
83.794151
23
-150.723206
33
36.317848
0
3DFACE
8
0
70
0
10
78.792152
20
-156.524841
30
-36.159115
11
83.794151
21
-150.723206
31
36.317848
12
16.610764
22
-150.617310
32
32.613968
13
7.942008
23
-157.298187
33
-18.447975
0
3DFACE
8
0
70
0
10
27.673773
20
-119.444244
30
102.617195
11
33.987896
21
-98.998032
31
87.801697
12
33.987896
22
-108.736435
32
35.947453
13
27.673773
23
-127.827744
33
43.725594
0
3DFACE
8
0
70
0
10
33.987896
20
-98.998032
30
87.801697
11
66.977409
21
-98.812729
31
87.801697
12
66.977409
22
-112.334427
32
35.947453
13
33.987896
23
-108.736435
33
35.947453
0
3DFACE
8
0
70
0
10
74.813721
20
-119.444244
30
102.617195
11
74.813721
21
-127.827744
31
43.725594
12
66.977409
22
-112.334427
32
35.947453
13
66.977409
23
-98.812729
33
87.801697
0
3DFACE
8
0
70
0
10
12.906889
20
-152.844193
30
102.617195
11
27.673773
21
-119.444244
31
102.617195
12
27.673773
22
-127.827744
32
43.725594
13
16.610764
23
-150.617310
33
32.613968
0
3DFACE
8
0
70
0
10
80.090286
20
-153.029510
30
102.617195
11
83.794151
21
-150.723206
31
36.317848
12
74.813721
22
-127.827744
32
43.725594
13
74.813721
23
-119.444244
33
102.617195
0
3DFACE
8
0
70
0
10
80.090286
20
-153.029510
30
102.617195
11
12.906889
21
-152.844193
31
102.617195
12
16.610764
22
-150.617310
32
32.613968
13
83.794151
23
-150.723206
33
36.317848
0
3DFACE
8
0
70
0
10
77.134155
20
96.170029
30
276.670502
11
98.189018
21
104.202835
31
270.388245
12
81.323151
22
117.878448
32
272.406952
13
63.356857
23
106.822662
33
268.250763
0
3DFACE
8
0
70
0
10
84.368851
20
127.624817
30
-30.485172
11
53.064346
21
151.893738
31
-40.071373
12
62.168655
22
158.462280
32
-4.389199
13
62.168655
23
158.462280
33
-4.389199
0
3DFACE
8
0
70
0
10
64.902267
20
137.328583
30
37.672722
11
62.168655
21
158.462280
31
-4.389199
12
52.935226
22
136.405731
32
55.425999
13
52.935226
23
136.405731
33
55.425999
0
3DFACE
8
0
70
0
10
91.489929
20
104.357361
30
120.986832
11
118.288200
21
63.810547
31
121.461075
12
111.262047
22
57.794312
32
156.460007
13
85.921112
23
100.305786
33
156.444275
0
3DFACE
8
0
70
0
10
142.247910
20
116.381836
30
131.103210
11
91.489929
21
104.357361
31
120.986832
12
85.921112
22
100.305786
32
156.444275
13
136.646683
23
114.353027
33
166.764908
0
3DFACE
8
0
70
0
10
154.208588
20
73.103882
30
165.552505
11
160.974625
21
76.678574
31
130.254745
12
142.247910
22
116.381836
32
131.103210
13
136.646683
23
114.353027
33
166.764908
0
3DFACE
8
0
70
0
10
118.288200
20
63.810547
30
121.461075
11
160.974625
21
76.678574
31
130.254745
12
154.208588
22
73.103882
32
165.552505
13
111.262047
23
57.794312
33
156.460007
0
3DFACE
8
0
70
0
10
107.551216
20
46.988724
30
154.690231
11
100.622223
21
40.462692
31
187.508759
12
69.913994
22
101.243866
32
187.534958
13
74.842796
23
105.077637
33
155.003876
0
3DFACE
8
0
70
0
10
74.842796
20
105.077637
30
155.003876
11
69.913994
21
101.243866
31
187.534958
12
137.776215
22
124.462708
32
200.992996
13
142.584198
23
125.705536
33
168.980469
0
3DFACE
8
0
70
0
10
158.604401
20
65.914581
30
199.364548
11
164.982269
21
69.171112
31
167.026749
12
142.584198
22
125.705536
32
168.980469
13
137.776215
23
124.462708
33
200.992996
0
3DFACE
8
0
70
0
10
107.551216
20
46.988724
30
154.690231
11
164.982269
21
69.171112
31
167.026749
12
158.604401
22
65.914581
32
199.364548
13
100.622223
23
40.462692
33
187.508759
0
3DFACE
8
0
70
0
10
107.551216
20
46.988724
30
154.690231
11
74.842796
21
105.077637
31
155.003876
12
85.921112
22
100.305786
32
156.444275
13
111.262047
23
57.794312
33
156.460007
0
3DFACE
8
0
70
0
10
100.622223
20
40.462692
30
187.508759
11
104.644806
21
52.128174
31
189.422226
12
80.814819
22
96.590668
32
188.956635
13
69.913994
23
101.243866
33
187.534958
0
3DFACE
8
0
70
0
10
74.842796
20
105.077637
30
155.003876
11
142.584198
21
125.705536
31
168.980469
12
136.646683
22
114.353027
32
166.764908
13
85.921112
23
100.305786
33
156.444275
0
3DFACE
8
0
70
0
10
69.913994
20
101.243866
30
187.534958
11
80.814819
21
96.590668
31
188.956635
12
131.633591
22
112.537140
32
198.682144
13
137.776215
23
124.462708
33
200.992996
0
3DFACE
8
0
70
0
10
158.604401
20
65.914581
30
199.364548
11
137.776215
21
124.462708
31
200.992996
12
131.633591
22
112.537140
32
198.682144
13
148.004517
23
69.826080
33
197.918442
0
3DFACE
8
0
70
0
10
164.982269
20
69.171112
30
167.026749
11
154.208588
21
73.103882
31
165.552505
12
136.646683
22
114.353027
32
166.764908
13
142.584198
23
125.705536
33
168.980469
0
3DFACE
8
0
70
0
10
100.622223
20
40.462692
30
187.508759
11
158.604401
21
65.914581
31
199.364548
12
148.004517
22
69.826080
32
197.918442
13
104.644806
23
52.128174
33
189.422226
0
3DFACE
8
0
70
0
10
107.551216
20
46.988724
30
154.690231
11
111.262047
21
57.794312
31
156.460007
12
154.208588
22
73.103882
32
165.552505
13
164.982269
23
69.171112
33
167.026749
0
3DFACE
8
0
70
0
10
112.690704
20
69.915222
30
184.795532
11
90.359093
21
89.787125
31
171.375610
12
80.814819
22
96.590668
32
188.956635
13
104.644806
23
52.128174
33
189.422226
0
3DFACE
8
0
70
0
10
90.359093
20
89.787125
30
171.375610
11
118.233452
21
110.388519
31
177.751282
12
131.633591
22
112.537140
32
198.682144
13
80.814819
23
96.590668
33
188.956635
0
3DFACE
8
0
70
0
10
135.778030
20
89.787125
30
189.299927
11
148.004517
21
69.826080
31
197.918442
12
131.633591
22
112.537140
32
198.682144
13
118.233452
23
110.388519
33
177.751282
0
3DFACE
8
0
70
0
10
112.690704
20
69.915222
30
184.795532
11
104.644806
21
52.128174
31
189.422226
12
148.004517
22
69.826080
32
197.918442
13
135.778030
23
89.787125
33
189.299927
0
3DFACE
8
0
70
0
10
49.513496
20
86.247345
30
209.251389
11
50.054245
21
96.956787
31
206.873093
12
54.843590
22
95.129242
32
194.970474
13
54.205303
23
84.416840
33
197.287903
0
3DFACE
8
0
70
0
10
50.054245
20
96.956787
30
206.873093
11
51.328640
21
108.054993
31
204.752777
12
55.995510
22
106.230072
32
192.821640
13
54.843590
23
95.129242
33
194.970474
0
3DFACE
8
0
70
0
10
135.799225
20
95.337585
30
224.448669
11
135.778030
21
89.787125
31
189.299927
12
118.233452
22
110.388519
32
177.751282
13
109.857430
23
115.931030
33
209.535690
0
3DFACE
8
0
70
0
10
103.226158
20
75.474731
30
216.257843
11
112.690704
21
69.915222
31
184.795532
12
135.778030
22
89.787125
32
189.299927
13
135.799225
23
95.337585
33
224.448669
0
3DFACE
8
0
70
0
10
77.134155
20
96.170029
30
276.670502
11
63.356857
21
106.822662
31
268.250763
12
72.001228
22
98.830719
32
214.749634
13
103.226158
23
75.474731
33
216.257843
0
3DFACE
8
0
70
0
10
63.356857
20
106.822662
30
268.250763
11
81.323151
21
117.878448
31
272.406952
12
109.857430
22
115.931030
32
209.535690
13
72.001228
23
98.830719
33
214.749634
0
3DFACE
8
0
70
0
10
98.189018
20
104.202835
30
270.388245
11
135.799225
21
95.337585
31
224.448669
12
109.857430
22
115.931030
32
209.535690
13
81.323151
23
117.878448
33
272.406952
0
3DFACE
8
0
70
0
10
77.134155
20
96.170029
30
276.670502
11
103.226158
21
75.474731
31
216.257843
12
135.799225
22
95.337585
32
224.448669
13
98.189018
23
104.202835
33
270.388245
0
3DFACE
8
0
70
0
10
49.513496
20
86.247345
30
209.251389
11
54.205303
21
84.416840
31
197.287903
12
112.690704
22
69.915222
32
184.795532
13
103.226158
23
75.474731
33
216.257843
0
3DFACE
8
0
70
0
10
54.205303
20
84.416840
30
197.287903
11
54.843590
21
95.129242
31
194.970474
12
90.359093
22
89.787125
32
171.375610
13
112.690704
23
69.915222
33
184.795532
0
3DFACE
8
0
70
0
10
49.513496
20
86.247345
30
209.251389
11
103.226158
21
75.474731
31
216.257843
12
72.001228
22
98.830719
32
214.749634
13
50.054245
23
96.956787
33
206.873093
0
3DFACE
8
0
70
0
10
54.843590
20
95.129242
30
194.970474
11
55.995510
21
106.230072
31
192.821640
12
118.233452
22
110.388519
32
177.751282
13
90.359093
23
89.787125
33
171.375610
0
3DFACE
8
0
70
0
10
51.328640
20
108.054993
30
204.752777
11
109.857430
21
115.931030
31
209.535690
12
118.233452
22
110.388519
32
177.751282
13
55.995510
23
106.230072
33
192.821640
0
3DFACE
8
0
70
0
10
50.054245
20
96.956787
30
206.873093
11
72.001228
21
98.830719
31
214.749634
12
109.857430
22
115.931030
32
209.535690
13
51.328640
23
108.054993
33
204.752777
0
3DFACE
8
0
70
0
10
8.077796
20
-13.075226
30
76.182030
11
-58.244183
21
5.996262
31
62.027912
12
-60.245785
22
-35.745850
32
33.757656
13
-14.782088
23
-45.595360
33
39.442032
0
3DFACE
8
0
70
0
10
-74.011848
20
1.692917
30
-58.893230
11
-14.192544
21
-19.153320
31
-94.607674
12
-48.858841
22
-1.413025
32
-66.440384
13
-82.395676
23
-7.027344
33
-35.065914
0
3DFACE
8
0
70
0
10
9.207778
20
-19.000473
30
96.896797
11
-78.253563
21
6.074265
31
80.342812
12
-58.244183
22
5.996262
32
62.027912
13
8.077796
23
-13.075226
33
76.182030
0
3DFACE
8
0
70
0
10
-98.208038
20
0.628235
30
-72.686691
11
-18.528946
21
-26.570457
31
-115.814209
12
-14.192544
22
-19.153320
32
-94.607674
13
-74.011848
23
1.692917
33
-58.893230
0
3DFACE
8
0
70
0
10
11.632723
20
-15.097153
30
109.228050
11
24.359797
21
37.938110
31
111.033043
12
-82.759827
22
67.609421
32
93.560501
13
-81.422424
23
11.338440
33
89.597496
0
3DFACE
8
0
70
0
10
-103.970978
20
5.184418
30
-83.325836
11
-105.308380
21
61.455414
31
-79.362839
12
-6.968222
22
29.386200
32
-129.332962
13
-19.709774
23
-23.651245
33
-131.135391
0
3DFACE
8
0
70
0
10
24.359797
20
37.938110
30
111.033043
11
23.041651
21
38.646973
31
98.858757
12
-77.731705
22
66.687851
32
84.340851
13
-82.759827
23
67.609421
33
93.560501
0
3DFACE
8
0
70
0
10
11.632723
20
-15.097153
30
109.228050
11
-81.422424
21
11.338440
31
89.597496
12
-78.253563
22
6.074265
32
80.342812
13
9.207778
23
-19.000473
33
96.896797
0
3DFACE
8
0
70
0
10
-105.308380
20
61.455414
30
-79.362839
11
-97.686180
21
61.241821
31
-68.688660
12
-4.173962
22
31.112976
32
-113.966423
13
-6.968222
23
29.386200
33
-129.332962
0
3DFACE
8
0
70
0
10
-103.970978
20
5.184418
30
-83.325836
11
-19.709774
21
-23.651245
31
-131.135391
12
-18.528946
22
-26.570457
32
-115.814209
13
-98.208038
23
0.628235
33
-72.686691
0
3DFACE
8
0
70
0
10
-31.473774
20
-119.444244
30
102.617195
11
-37.787899
21
-98.998032
31
87.801697
12
-70.777412
22
-98.812729
32
87.801697
13
-78.613716
23
-119.444244
33
102.617195
0
3DFACE
8
0
70
0
10
-58.244183
20
5.996262
30
62.027912
11
-81.162247
21
8.468506
31
5.296528
12
-81.517708
22
-24.891273
32
2.249312
13
-60.245785
23
-35.745850
33
33.757656
0
3DFACE
8
0
70
0
10
-78.253563
20
6.074265
30
80.342812
11
-108.272690
21
9.538040
31
9.109283
12
-81.162247
22
8.468506
32
5.296528
13
-58.244183
23
5.996262
33
62.027912
0
3DFACE
8
0
70
0
10
-82.759827
20
67.609421
30
93.560501
11
-118.373085
21
72.133209
31
14.706132
12
-113.798424
22
14.887909
32
10.231002
13
-81.422424
23
11.338440
33
89.597496
0
3DFACE
8
0
70
0
10
-118.373085
20
72.133209
30
14.706132
11
-82.759827
21
67.609421
31
93.560501
12
-77.731705
22
66.687851
32
84.340851
13
-110.797554
23
71.068604
33
13.589307
0
3DFACE
8
0
70
0
10
-81.422424
20
11.338440
30
89.597496
11
-113.798424
21
14.887909
31
10.231002
12
-108.272690
22
9.538040
32
9.109283
13
-78.253563
23
6.074265
33
80.342812
0
3DFACE
8
0
70
0
10
-16.706890
20
-152.844193
30
102.617195
11
-31.473774
21
-119.444244
31
102.617195
12
-78.613716
22
-119.444244
32
102.617195
13
-83.890282
23
-153.029510
33
102.617195
0
3DFACE
8
0
70
0
10
-1.853932
20
175.667419
30
2.126543
11
-1.857344
21
152.779846
31
-48.828026
12
-56.752666
22
151.893738
32
-40.071373
13
-69.399567
23
156.808350
33
-4.709726
0
3DFACE
8
0
70
0
10
-81.162247
20
8.468506
30
5.296528
11
-74.011848
21
1.692917
31
-58.893230
12
-82.395676
22
-7.027344
32
-35.065914
13
-81.517708
23
-24.891273
33
2.249312
0
3DFACE
8
0
70
0
10
-108.272690
20
9.538040
30
9.109283
11
-98.208038
21
0.628235
31
-72.686691
12
-74.011848
22
1.692917
32
-58.893230
13
-81.162247
23
8.468506
33
5.296528
0
3DFACE
8
0
70
0
10
-113.798424
20
14.887909
30
10.231002
11
-118.373085
21
72.133209
31
14.706132
12
-105.308380
22
61.455414
32
-79.362839
13
-103.970978
23
5.184418
33
-83.325836
0
3DFACE
8
0
70
0
10
-105.308380
20
61.455414
30
-79.362839
11
-118.373085
21
72.133209
31
14.706132
12
-110.797554
22
71.068604
32
13.589307
13
-97.686180
23
61.241821
33
-68.688660
0
3DFACE
8
0
70
0
10
-113.798424
20
14.887909
30
10.231002
11
-103.970978
21
5.184418
31
-83.325836
12
-98.208038
22
0.628235
32
-72.686691
13
-108.272690
23
9.538040
33
9.109283
0
3DFACE
8
0
70
0
10
-24.336020
20
-50.287849
30
-3.137660
11
-25.360619
21
-37.348824
31
-26.871098
12
-24.613905
22
-27.941864
32
-16.255173
13
-14.782088
23
-45.595360
33
39.442032
0
3DFACE
8
0
70
0
10
-24.336020
20
-50.287849
30
-3.137660
11
-14.782088
21
-45.595360
31
39.442032
12
-60.245785
22
-35.745850
32
33.757656
13
-66.617081
23
-46.950790
33
4.394099
0
3DFACE
8
0
70
0
10
-66.617081
20
-46.950790
30
4.394099
11
-60.245785
21
-35.745850
31
33.757656
12
-81.517708
22
-24.891273
32
2.249312
13
-81.936241
23
-39.088943
33
-5.251062
0
3DFACE
8
0
70
0
10
-25.360619
20
-37.348824
30
-26.871098
11
-41.528042
21
-24.316559
31
-45.857510
12
-48.858841
22
-1.413025
32
-66.440384
13
-24.613905
23
-27.941864
33
-16.255173
0
3DFACE
8
0
70
0
10
-81.936241
20
-39.088943
30
-5.251062
11
-81.517708
21
-24.891273
31
2.249312
12
-82.395676
22
-7.027344
32
-35.065914
13
-77.791901
23
-30.069450
33
-23.373804
0
3DFACE
8
0
70
0
10
-77.791901
20
-30.069450
30
-23.373804
11
-82.395676
21
-7.027344
31
-35.065914
12
-48.858841
22
-1.413025
32
-66.440384
13
-41.528042
23
-24.316559
33
-45.857510
0
3DFACE
8
0
70
0
10
-30.215437
20
-118.826950
30
-13.751668
11
-31.370756
21
-82.401192
31
-0.092129
12
-37.787899
22
-108.736435
32
35.947453
13
-31.473774
23
-127.827744
33
43.725594
0
3DFACE
8
0
70
0
10
-31.370756
20
-82.401192
30
-0.092129
11
-66.160332
21
-87.503815
31
3.760766
12
-70.777412
22
-112.334427
32
35.947453
13
-37.787899
23
-108.736435
33
35.947453
0
3DFACE
8
0
70
0
10
-77.433350
20
-112.333778
30
0.261134
11
-78.613716
21
-127.827744
31
43.725594
12
-70.777412
22
-112.334427
32
35.947453
13
-66.160332
23
-87.503815
33
3.760766
0
3DFACE
8
0
70
0
10
-20.367392
20
-158.695206
30
-30.858824
11
-30.215437
21
-118.826950
31
-13.751668
12
-31.473774
22
-127.827744
32
43.725594
13
-20.410763
23
-150.617310
33
32.613968
0
3DFACE
8
0
70
0
10
-89.566711
20
-147.257889
30
-9.103868
11
-87.594154
21
-150.723206
31
36.317848
12
-78.613716
22
-127.827744
32
43.725594
13
-77.433350
23
-112.333778
33
0.261134
0
3DFACE
8
0
70
0
10
-89.566711
20
-147.257889
30
-9.103868
11
-20.367392
21
-158.695206
31
-30.858824
12
-20.410763
22
-150.617310
32
32.613968
13
-87.594154
23
-150.723206
33
36.317848
0
3DFACE
8
0
70
0
10
-31.473774
20
-119.444244
30
102.617195
11
-31.473774
21
-127.827744
31
43.725594
12
-37.787899
22
-108.736435
32
35.947453
13
-37.787899
23
-98.998032
33
87.801697
0
3DFACE
8
0
70
0
10
-37.787899
20
-98.998032
30
87.801697
11
-37.787899
21
-108.736435
31
35.947453
12
-70.777412
22
-112.334427
32
35.947453
13
-70.777412
23
-98.812729
33
87.801697
0
3DFACE
8
0
70
0
10
-78.613716
20
-119.444244
30
102.617195
11
-70.777412
21
-98.812729
31
87.801697
12
-70.777412
22
-112.334427
32
35.947453
13
-78.613716
23
-127.827744
33
43.725594
0
3DFACE
8
0
70
0
10
-16.706890
20
-152.844193
30
102.617195
11
-20.410763
21
-150.617310
31
32.613968
12
-31.473774
22
-127.827744
32
43.725594
13
-31.473774
23
-119.444244
33
102.617195
0
3DFACE
8
0
70
0
10
-83.890282
20
-153.029510
30
102.617195
11
-78.613716
21
-119.444244
31
102.617195
12
-78.613716
22
-127.827744
32
43.725594
13
-87.594154
23
-150.723206
33
36.317848
0
3DFACE
8
0
70
0
10
-83.890282
20
-153.029510
30
102.617195
11
-87.594154
21
-150.723206
31
36.317848
12
-20.410763
22
-150.617310
32
32.613968
13
-16.706890
23
-152.844193
33
102.617195
0
3DFACE
8
0
70
0
10
103.964989
20
109.649353
30
265.679749
11
115.959335
21
120.655823
31
255.230896
12
102.040260
22
132.043396
32
267.015381
13
83.485130
23
120.655823
33
268.274597
0
3DFACE
8
0
70
0
10
-88.368828
20
127.191193
30
-19.910240
11
-69.399567
21
156.808350
31
-4.709726
12
-56.752666
22
151.893738
32
-40.071373
13
-56.752666
23
151.893738
33
-40.071373
0
3DFACE
8
0
70
0
10
-63.653774
20
139.449799
30
21.653160
11
-56.614574
21
136.405731
31
55.426003
12
-69.399567
22
156.808350
32
-4.709726
13
-69.399567
23
156.808350
33
-4.709726
0
3DFACE
8
0
70
0
10
18.515377
20
140.171021
30
101.793274
11
42.976784
21
142.071564
31
128.301498
12
22.896025
22
102.851318
32
150.838699
13
-2.563889
23
103.094849
33
125.105049
0
3DFACE
8
0
70
0
10
-18.261509
20
158.570190
30
135.441971
11
6.295357
21
162.484863
31
161.688538
12
42.976784
22
142.071564
32
128.301498
13
18.515377
23
140.171021
33
101.793274
0
3DFACE
8
0
70
0
10
-8.038993
20
123.543060
30
178.701599
11
6.295357
21
162.484863
31
161.688538
12
-18.261509
22
158.570190
32
135.441971
13
-33.394814
23
121.317657
33
153.076996
0
3DFACE
8
0
70
0
10
-2.563889
20
103.094849
30
125.105049
11
22.896025
21
102.851318
31
150.838699
12
-8.038993
22
123.543060
32
178.701599
13
-33.394814
23
121.317657
33
153.076996
0
3DFACE
8
0
70
0
10
25.232811
20
91.601929
30
149.552765
11
51.265812
21
145.435486
31
120.082596
12
73.561188
22
147.082153
32
144.525726
13
49.409115
23
90.475311
33
173.675201
0
3DFACE
8
0
70
0
10
51.265812
20
145.435486
30
120.082596
11
2.345891
21
174.560791
31
164.448288
12
24.194265
22
178.661987
32
188.012939
13
73.561188
23
147.082153
33
144.525726
0
3DFACE
8
0
70
0
10
7.302916
20
123.017700
30
209.984360
11
24.194265
21
178.661987
31
188.012939
12
2.345891
22
174.560791
32
164.448288
13
-16.075018
23
120.977875
33
186.610733
0
3DFACE
8
0
70
0
10
25.232811
20
91.601929
30
149.552765
11
49.409115
21
90.475311
31
173.675201
12
7.302916
22
123.017700
32
209.984360
13
-16.075018
23
120.977875
33
186.610733
0
3DFACE
8
0
70
0
10
25.232811
20
91.601929
30
149.552765
11
22.896025
21
102.851318
31
150.838699
12
42.976784
22
142.071564
32
128.301498
13
51.265812
23
145.435486
33
120.082596
0
3DFACE
8
0
70
0
10
49.409115
20
90.475311
30
173.675201
11
73.561188
21
147.082153
31
144.525726
12
65.406448
22
143.814209
32
152.607941
13
46.874310
23
102.622009
33
175.074844
0
3DFACE
8
0
70
0
10
51.265812
20
145.435486
30
120.082596
11
42.976784
21
142.071564
31
128.301498
12
6.295357
22
162.484863
32
161.688538
13
2.345891
23
174.560791
33
164.448288
0
3DFACE
8
0
70
0
10
73.561188
20
147.082153
30
144.525726
11
24.194265
21
178.661987
31
188.012939
12
28.273758
22
165.988403
32
185.179260
13
65.406448
23
143.814209
33
152.607941
0
3DFACE
8
0
70
0
10
7.302916
20
123.017700
30
209.984360
11
15.210792
21
125.583557
31
202.197815
12
28.273758
22
165.988403
32
185.179260
13
24.194265
23
178.661987
33
188.012939
0
3DFACE
8
0
70
0
10
-16.075018
20
120.977875
30
186.610733
11
2.345891
21
174.560791
31
164.448288
12
6.295357
22
162.484863
32
161.688538
13
-8.038993
23
123.543060
33
178.701599
0
3DFACE
8
0
70
0
10
49.409115
20
90.475311
30
173.675201
11
46.874310
21
102.622009
31
175.074844
12
15.210792
22
125.583557
32
202.197815
13
7.302916
23
123.017700
33
209.984360
0
3DFACE
8
0
70
0
10
25.232811
20
91.601929
30
149.552765
11
-16.075018
21
120.977875
31
186.610733
12
-8.038993
22
123.543060
32
178.701599
13
22.896025
23
102.851318
33
150.838699
0
3DFACE
8
0
70
0
10
37.222645
20
109.273376
30
181.849487
11
46.874310
21
102.622009
31
175.074844
12
65.406448
22
143.814209
32
152.607941
13
54.687325
23
131.487427
33
165.850677
0
3DFACE
8
0
70
0
10
54.687325
20
131.487427
30
165.850677
11
65.406448
21
143.814209
31
152.607941
12
28.273758
22
165.988403
32
185.179260
13
32.399311
23
149.911316
33
185.545151
0
3DFACE
8
0
70
0
10
18.686018
20
127.415924
30
198.021591
11
32.399311
21
149.911316
31
185.545151
12
28.273758
22
165.988403
32
185.179260
13
15.210792
23
125.583557
33
202.197815
0
3DFACE
8
0
70
0
10
37.222645
20
109.273376
30
181.849487
11
18.686018
21
127.415924
31
198.021591
12
15.210792
22
125.583557
32
202.197815
13
46.874310
23
102.622009
33
175.074844
0
3DFACE
8
0
70
0
10
107.753784
20
112.401794
30
192.298798
11
99.401726
21
113.652710
31
182.441452
12
99.729080
22
124.626587
32
182.429596
13
108.153687
23
123.377686
33
192.197739
0
3DFACE
8
0
70
0
10
108.153687
20
123.377686
30
192.197739
11
99.729080
21
124.626587
31
182.429596
12
99.684830
22
135.985443
32
182.813797
13
108.002693
23
134.738342
33
192.648438
0
3DFACE
8
0
70
0
10
32.722450
20
125.370880
30
236.581070
11
55.676949
21
146.409088
31
217.874146
12
32.399311
22
149.911316
32
185.545151
13
18.686018
23
127.415924
33
198.021591
0
3DFACE
8
0
70
0
10
57.784794
20
105.045105
30
214.640915
11
32.722450
21
125.370880
31
236.581070
12
18.686018
22
127.415924
32
198.021591
13
37.222645
23
109.273376
33
181.849487
0
3DFACE
8
0
70
0
10
103.964989
20
109.649353
30
265.679749
11
57.784794
21
105.045105
31
214.640915
12
90.230751
22
125.370880
32
207.097977
13
115.959335
23
120.655823
33
255.230896
0
3DFACE
8
0
70
0
10
115.959335
20
120.655823
30
255.230896
11
90.230751
21
125.370880
31
207.097977
12
55.676949
22
146.409088
32
217.874146
13
102.040260
23
132.043396
33
267.015381
0
3DFACE
8
0
70
0
10
83.485130
20
120.655823
30
268.274597
11
102.040260
21
132.043396
31
267.015381
12
55.676949
22
146.409088
32
217.874146
13
32.722450
23
125.370880
33
236.581070
0
3DFACE
8
0
70
0
10
103.964989
20
109.649353
30
265.679749
11
83.485130
21
120.655823
31
268.274597
12
32.722450
22
125.370880
32
236.581070
13
57.784794
23
105.045105
33
214.640915
0
3DFACE
8
0
70
0
10
107.753784
20
112.401794
30
192.298798
11
57.784794
21
105.045105
31
214.640915
12
37.222645
22
109.273376
32
181.849487
13
99.401726
23
113.652710
33
182.441452
0
3DFACE
8
0
70
0
10
99.401726
20
113.652710
30
182.441452
11
37.222645
21
109.273376
31
181.849487
12
54.687325
22
131.487427
32
165.850677
13
99.729080
23
124.626587
33
182.429596
0
3DFACE
8
0
70
0
10
107.753784
20
112.401794
30
192.298798
11
108.153687
21
123.377686
31
192.197739
12
90.230751
22
125.370880
32
207.097977
13
57.784794
23
105.045105
33
214.640915
0
3DFACE
8
0
70
0
10
99.729080
20
124.626587
30
182.429596
11
54.687325
21
131.487427
31
165.850677
12
32.399311
22
149.911316
32
185.545151
13
99.684830
23
135.985443
33
182.813797
0
3DFACE
8
0
70
0
10
108.002693
20
134.738342
30
192.648438
11
99.684830
21
135.985443
31
182.813797
12
32.399311
22
149.911316
32
185.545151
13
55.676949
23
146.409088
33
217.874146
0
3DFACE
8
0
70
0
10
108.153687
20
123.377686
30
192.197739
11
108.002693
21
134.738342
31
192.648438
12
55.676949
22
146.409088
32
217.874146
13
90.230751
23
125.370880
33
207.097977
0
3DFACE
8
0
70
0
10
19.751364
20
-43.018509
30
-5.421979
11
43.795864
21
-24.352379
31
50.370670
12
8.077796
22
-13.075226
32
76.182030
13
-2.838645
23
-16.054581
33
-7.535397
0
3DFACE
8
0
70
0
10
19.751364
20
-43.018509
30
-5.421979
11
-2.838645
21
-16.054581
31
-7.535397
12
-14.192544
22
-19.153320
32
-94.607674
13
9.913218
23
-55.964661
33
-69.347809
0
3DFACE
8
0
70
0
10
-14.192544
20
-19.153320
30
-94.607674
11
-2.838645
21
-16.054581
31
-7.535397
12
-24.613905
22
-27.941864
32
-16.255173
13
-48.858841
23
-1.413025
33
-66.440384
0
3DFACE
8
0
70
0
10
-2.838645
20
-16.054581
30
-7.535397
11
8.077796
21
-13.075226
31
76.182030
12
-14.782088
22
-45.595360
32
39.442032
13
-24.613905
23
-27.941864
33
-16.255173
0
3DFACE
8
0
70
0
10
28.949411
20
193.425293
30
109.998421
11
39.224285
21
193.946747
31
104.768394
12
48.648613
22
211.694733
32
109.604088
13
28.949411
23
211.876404
33
116.053299
0
3DFACE
8
0
70
0
10
28.949411
20
211.876404
30
116.053299
11
48.648613
21
211.694733
31
109.604088
12
41.572285
22
220.259094
32
108.406754
13
28.949411
23
223.693329
33
111.923271
0
3DFACE
8
0
70
0
10
39.224285
20
193.946747
30
104.768394
11
40.157490
21
190.627991
31
91.898666
12
51.649487
22
209.215088
32
92.147392
13
48.648613
23
211.694733
33
109.604088
0
3DFACE
8
0
70
0
10
28.949411
20
193.425293
30
109.998421
11
28.691029
21
187.840637
31
97.818153
12
40.157490
22
190.627991
32
91.898666
13
39.224285
23
193.946747
33
104.768394
0
3DFACE
8
0
70
0
10
28.949411
20
223.693329
30
111.923271
11
41.572285
21
220.259094
31
108.406754
12
43.491707
22
221.136108
32
92.223122
13
28.691029
23
225.079681
33
97.531448
0
3DFACE
8
0
70
0
10
48.648613
20
211.694733
30
109.604088
11
51.649487
21
209.215088
31
92.147392
12
43.491707
22
221.136108
32
92.223122
13
41.572285
23
220.259094
33
108.406754
0
3DFACE
8
0
70
0
10
32.729221
20
234.563629
30
93.663162
11
32.729221
21
225.059021
31
94.705406
12
43.758690
22
222.710754
32
89.397079
13
45.075703
23
242.121094
33
91.655769
0
3DFACE
8
0
70
0
10
43.758690
20
222.710754
30
89.397079
11
53.321014
21
223.706787
31
83.110359
12
56.995049
22
234.567017
32
79.537750
13
45.075703
23
242.121094
33
91.655769
0
3DFACE
8
0
70
0
10
41.682014
20
172.587708
30
111.057327
11
37.721066
21
191.565491
31
100.112862
12
28.691029
22
190.151428
32
102.861427
13
28.691029
23
172.384216
33
111.741035
0
3DFACE
8
0
70
0
10
79.607040
20
189.425171
30
65.513870
11
78.001297
21
200.355103
31
65.335167
12
54.784626
22
193.248383
32
85.995529
13
61.892632
23
170.422424
33
92.304878
0
3DFACE
8
0
70
0
10
37.721066
20
191.565491
30
100.112862
11
41.682014
21
172.587708
31
111.057327
12
59.895638
22
174.779022
32
102.389763
13
52.418434
23
191.827759
33
99.995750
0
3DFACE
8
0
70
0
10
74.466202
20
232.679260
30
65.716461
11
86.631752
21
237.617249
31
65.295967
12
61.546577
22
244.189209
32
83.856018
13
61.253864
23
237.255859
33
82.356026
0
3DFACE
8
0
70
0
10
28.691029
20
244.106018
30
99.194473
11
28.691029
21
237.497681
31
96.470764
12
44.568832
22
244.981995
32
94.333702
13
46.137524
23
251.630585
33
95.040833
0
3DFACE
8
0
70
0
10
46.137524
20
251.630585
30
95.040833
11
44.568832
21
244.981995
31
94.333702
12
61.253864
22
237.255859
32
82.356026
13
61.546577
23
244.189209
33
83.856018
0
3DFACE
8
0
70
0
10
28.691029
20
145.791687
30
109.565765
11
45.865936
21
154.137146
31
103.199554
12
42.683643
22
163.288666
32
101.151703
13
28.691029
23
160.321869
33
106.623070
0
3DFACE
8
0
70
0
10
28.691029
20
102.635483
30
88.488289
11
49.051064
21
115.152649
31
85.246353
12
45.865936
22
154.137146
32
103.199554
13
28.691029
23
145.791687
33
109.565765
0
3DFACE
8
0
70
0
10
79.607040
20
189.425171
30
65.513870
11
61.892632
21
170.422424
31
92.304878
12
61.209461
22
167.200684
32
83.293694
13
83.330269
23
178.167114
33
68.684151
0
3DFACE
8
0
70
0
10
61.209461
20
167.200684
30
83.293694
11
72.582848
21
141.154175
31
53.494438
12
82.660912
22
170.801636
32
37.500011
13
83.330269
23
178.167114
33
68.684151
0
3DFACE
8
0
70
0
10
49.051064
20
115.152649
30
85.246353
11
72.582848
21
141.154175
31
53.494438
12
61.209461
22
167.200684
32
83.293694
13
45.865936
23
154.137146
33
103.199554
0
3DFACE
8
0
70
0
10
45.865936
20
154.137146
30
103.199554
11
61.209461
21
167.200684
31
83.293694
12
61.892632
22
170.422424
32
92.304878
13
42.683643
23
163.288666
33
101.151703
0
3DFACE
8
0
70
0
10
28.691029
20
172.384216
30
111.741035
11
28.691029
21
160.321869
31
106.623070
12
42.683643
22
163.288666
32
101.151703
13
41.682014
23
172.587708
33
111.057327
0
3DFACE
8
0
70
0
10
28.691029
20
190.151428
30
102.861427
11
37.721066
21
191.565491
31
100.112862
12
40.157490
22
190.627991
32
91.898666
13
28.691029
23
187.840637
33
97.818153
0
3DFACE
8
0
70
0
10
52.418434
20
191.827759
30
99.995750
11
54.784626
21
193.248383
31
85.995529
12
40.157490
22
190.627991
32
91.898666
13
37.721066
23
191.565491
33
100.112862
0
POINT
8
0
70
0
10
81.098038
20
173.483734
30
83.882256
0
3DFACE
8
0
70
0
10
41.682014
20
172.587708
30
111.057327
11
42.683643
21
163.288666
31
101.151703
12
61.892632
22
170.422424
32
92.304878
13
59.895638
23
174.779022
33
102.389763
0
3DFACE
8
0
70
0
10
59.895638
20
174.779022
30
102.389763
11
81.098038
21
173.483734
31
83.882256
12
52.418434
22
191.827759
32
99.995750
13
52.418434
23
191.827759
33
99.995750
0
3DFACE
8
0
70
0
10
52.418434
20
191.827759
30
99.995750
11
81.098038
21
173.483734
31
83.882256
12
54.784626
22
193.248383
32
85.995529
13
54.784626
23
193.248383
33
85.995529
0
3DFACE
8
0
70
0
10
81.098038
20
173.483734
30
83.882256
11
61.892632
21
170.422424
31
92.304878
12
54.784626
22
193.248383
32
85.995529
13
54.784626
23
193.248383
33
85.995529
0
3DFACE
8
0
70
0
10
61.892632
20
170.422424
30
92.304878
11
81.098038
21
173.483734
31
83.882256
12
59.895638
22
174.779022
32
102.389763
13
59.895638
23
174.779022
33
102.389763
0
3DFACE
8
0
70
0
10
86.631752
20
237.617249
30
65.295967
11
74.466202
21
232.679260
31
65.716461
12
87.899628
22
229.514771
32
28.800205
13
91.205162
23
231.177917
33
27.994162
0
3DFACE
8
0
70
0
10
74.466202
20
232.679260
30
65.716461
11
72.493446
21
222.977600
31
66.043121
12
89.404030
22
222.161499
32
29.849279
13
87.899628
23
229.514771
33
28.800205
0
3DFACE
8
0
70
0
10
72.493446
20
222.977600
30
66.043121
11
74.935226
21
209.878479
31
65.891945
12
89.425812
22
208.967529
32
32.028214
13
89.404030
23
222.161499
33
29.849279
0
3DFACE
8
0
70
0
10
91.205162
20
231.177917
30
27.994162
11
87.899628
21
229.514771
31
28.800205
12
71.109421
22
227.219543
32
2.487197
13
73.695549
23
226.170685
33
2.180299
0
3DFACE
8
0
70
0
10
89.404030
20
222.161499
30
29.849279
11
73.421776
21
225.840881
31
0.059638
12
71.109421
22
227.219543
32
2.487197
13
87.899628
23
229.514771
33
28.800205
0
3DFACE
8
0
70
0
10
89.425812
20
208.967529
30
32.028214
11
70.677002
21
214.143799
31
-1.424091
12
73.421776
22
225.840881
32
0.059638
13
89.404030
23
222.161499
33
29.849279
0
3DFACE
8
0
70
0
10
73.695549
20
226.170685
30
2.180299
11
71.109421
21
227.219543
31
2.487197
12
28.691027
22
226.992981
32
-14.672208
13
28.691027
23
224.162659
33
-17.487638
0
3DFACE
8
0
70
0
10
73.421776
20
225.840881
30
0.059638
11
28.691025
21
225.766663
31
-15.018003
12
28.691027
22
226.992981
32
-14.672208
13
71.109421
23
227.219543
33
2.487197
0
3DFACE
8
0
70
0
10
70.677002
20
214.143799
30
-1.424091
11
28.691010
21
211.890503
31
-13.558692
12
28.691025
22
225.766663
32
-15.018003
13
73.421776
23
225.840881
33
0.059638
0
3DFACE
8
0
70
0
10
82.660912
20
170.801636
30
37.500011
11
88.989464
21
187.413269
31
33.390900
12
79.607040
22
189.425171
32
65.513870
13
83.330269
23
178.167114
33
68.684151
0
3DFACE
8
0
70
0
10
74.935226
20
209.878479
30
65.891945
11
78.001297
21
200.355103
31
65.335167
12
89.425812
22
208.967529
32
32.028214
13
89.425812
23
208.967529
33
32.028214
0
3DFACE
8
0
70
0
10
79.607040
20
189.425171
30
65.513870
11
88.989464
21
187.413269
31
33.390900
12
89.425812
22
208.967529
32
32.028214
13
78.001297
23
200.355103
33
65.335167
0
3DFACE
8
0
70
0
10
88.989464
20
187.413269
30
33.390900
11
69.884285
21
196.156128
31
1.486755
12
70.677002
22
214.143799
32
-1.424091
13
89.425812
23
208.967529
33
32.028214
0
3DFACE
8
0
70
0
10
69.884285
20
196.156128
30
1.486755
11
28.691011
21
194.530426
31
-9.127532
12
28.691010
22
211.890503
32
-13.558692
13
70.677002
23
214.143799
33
-1.424091
0
3DFACE
8
0
70
0
10
28.691029
20
244.106018
30
99.194473
11
46.137524
21
251.630585
31
95.040833
12
48.090626
22
273.711914
32
90.762436
13
28.691031
23
272.963745
33
96.877937
0
3DFACE
8
0
70
0
10
28.691031
20
272.963745
30
96.877937
11
48.090626
21
273.711914
31
90.762436
12
48.479290
22
275.969391
32
85.857109
13
28.691031
23
276.300629
33
93.284790
0
3DFACE
8
0
70
0
10
46.137524
20
251.630585
30
95.040833
11
61.546577
21
244.189209
31
83.856018
12
74.581955
22
271.646790
32
77.603500
13
48.090626
23
273.711914
33
90.762436
0
3DFACE
8
0
70
0
10
48.090626
20
273.711914
30
90.762436
11
74.581955
21
271.646790
31
77.603500
12
73.339600
22
274.325958
32
72.991859
13
48.479290
23
275.969391
33
85.857109
0
3DFACE
8
0
70
0
10
61.546577
20
244.189209
30
83.856018
11
86.631752
21
237.617249
31
65.295967
12
90.678810
22
263.572113
32
46.954624
13
74.581955
23
271.646790
33
77.603500
0
3DFACE
8
0
70
0
10
74.581955
20
271.646790
30
77.603500
11
90.678810
21
263.572113
31
46.954624
12
82.380135
22
267.628448
32
45.544674
13
73.339600
23
274.325958
33
72.991859
0
3DFACE
8
0
70
0
10
86.631752
20
237.617249
30
65.295967
11
91.205162
21
231.177917
31
27.994162
12
95.204498
22
261.561127
32
21.152876
13
90.678810
23
263.572113
33
46.954624
0
3DFACE
8
0
70
0
10
90.678810
20
263.572113
30
46.954624
11
95.204498
21
261.561127
31
21.152876
12
88.650070
22
264.313995
32
22.576475
13
82.380135
23
267.628448
33
45.544674
0
3DFACE
8
0
70
0
10
91.205162
20
231.177917
30
27.994162
11
73.695549
21
226.170685
31
2.180299
12
74.590874
22
253.783752
32
-1.596331
13
95.204498
23
261.561127
33
21.152876
0
3DFACE
8
0
70
0
10
95.204498
20
261.561127
30
21.152876
11
74.590874
21
253.783752
31
-1.596331
12
69.062149
22
258.234894
32
1.837493
13
88.650070
23
264.313995
33
22.576475
0
3DFACE
8
0
70
0
10
73.695549
20
226.170685
30
2.180299
11
28.691027
21
224.162659
31
-17.487638
12
28.691029
22
249.670898
32
-21.350451
13
74.590874
23
253.783752
33
-1.596331
0
3DFACE
8
0
70
0
10
74.590874
20
253.783752
30
-1.596331
11
28.691029
21
249.670898
31
-21.350451
12
28.691029
22
253.669556
32
-17.130922
13
69.062149
23
258.234894
33
1.837493
0
3DFACE
8
0
70
0
10
82.660912
20
170.801636
30
37.500011
11
46.993961
21
169.574829
31
25.480600
12
69.884285
22
196.156128
32
1.486755
13
88.989464
23
187.413269
33
33.390900
0
3DFACE
8
0
70
0
10
46.993961
20
169.574829
30
25.480600
11
6.862231
21
175.038818
31
3.878043
12
28.691011
22
194.530426
32
-9.127532
13
69.884285
23
196.156128
33
1.486755
0
3DFACE
8
0
70
0
10
72.582848
20
141.154175
30
53.494438
11
44.527634
21
151.091187
31
51.266796
12
46.993961
22
169.574829
32
25.480600
13
82.660912
23
170.801636
33
37.500011
0
3DFACE
8
0
70
0
10
49.051064
20
115.152649
30
85.246353
11
46.632118
21
115.844910
31
69.339668
12
44.527634
22
151.091187
32
51.266796
13
72.582848
23
141.154175
33
53.494438
0
3DFACE
8
0
70
0
10
46.632118
20
115.844910
30
69.339668
11
28.691029
21
114.210785
31
65.043594
12
28.691029
22
136.247467
32
43.396519
13
44.527634
23
151.091187
33
51.266796
0
3DFACE
8
0
70
0
10
28.691029
20
102.635483
30
88.488289
11
28.691029
21
114.210785
31
65.043594
12
46.632118
22
115.844910
32
69.339668
13
46.632118
23
115.844910
33
69.339668
0
3DFACE
8
0
70
0
10
28.691029
20
102.635483
30
88.488289
11
46.632118
21
115.844910
31
69.339668
12
49.051064
22
115.152649
32
85.246353
13
49.051064
23
115.152649
33
85.246353
0
3DFACE
8
0
70
0
10
28.949411
20
193.425293
30
109.998421
11
28.949411
21
211.876404
31
116.053299
12
9.250209
22
211.694733
32
109.604088
13
18.674536
23
193.946747
33
104.768394
0
3DFACE
8
0
70
0
10
28.949411
20
211.876404
30
116.053299
11
28.949411
21
223.693329
31
111.923271
12
16.326536
22
220.259094
32
108.406754
13
9.250209
23
211.694733
33
109.604088
0
3DFACE
8
0
70
0
10
18.674536
20
193.946747
30
104.768394
11
9.250209
21
211.694733
31
109.604088
12
5.732574
22
209.215088
32
92.147392
13
17.224567
23
190.627991
33
91.898666
0
3DFACE
8
0
70
0
10
28.949411
20
193.425293
30
109.998421
11
18.674536
21
193.946747
31
104.768394
12
17.224567
22
190.627991
32
91.898666
13
28.691029
23
187.840637
33
97.818153
0
3DFACE
8
0
70
0
10
28.949411
20
223.693329
30
111.923271
11
28.691029
21
225.079681
31
97.531448
12
13.890349
22
221.136108
32
92.223122
13
16.326536
23
220.259094
33
108.406754
0
3DFACE
8
0
70
0
10
9.250209
20
211.694733
30
109.604088
11
16.326536
21
220.259094
31
108.406754
12
13.890349
22
221.136108
32
92.223122
13
5.732574
23
209.215088
33
92.147392
0
3DFACE
8
0
70
0
10
25.105974
20
234.444366
30
93.482849
11
12.958100
21
242.816284
31
91.856819
12
13.857457
22
223.323151
32
90.027290
13
25.105974
23
225.327087
33
94.327049
0
3DFACE
8
0
70
0
10
13.857457
20
223.323151
30
90.027290
11
12.958100
21
242.816284
31
91.856819
12
1.020968
22
234.447571
32
82.041245
13
4.767970
23
224.257690
33
84.935066
0
3DFACE
8
0
70
0
10
15.700042
20
172.587708
30
111.057327
11
28.691029
21
172.384216
31
111.741035
12
28.691029
22
190.151428
32
102.861427
13
19.660994
23
191.565491
33
100.112862
0
3DFACE
8
0
70
0
10
-22.224981
20
189.425171
30
65.513870
11
-4.510575
21
170.422424
31
92.304878
12
2.597434
22
193.248383
32
85.995529
13
-20.619238
23
200.355103
33
65.335167
0
3DFACE
8
0
70
0
10
19.660994
20
191.565491
30
100.112862
11
4.963624
21
191.827759
31
99.995750
12
-2.513577
22
174.779022
32
102.389763
13
15.700042
23
172.587708
33
111.057327
0
3DFACE
8
0
70
0
10
-17.084146
20
232.679260
30
65.716461
11
-2.999768
21
237.255859
31
82.356026
12
-3.292477
22
244.189209
32
83.856010
13
-29.249683
23
237.617249
33
65.295967
0
3DFACE
8
0
70
0
10
28.691029
20
244.106018
30
99.194473
11
11.648257
21
252.434967
31
94.970459
12
13.216949
22
245.788818
32
94.319626
13
28.691029
23
237.497681
33
96.470764
0
3DFACE
8
0
70
0
10
11.648257
20
252.434967
30
94.970459
11
-3.292477
21
244.189209
31
83.856010
12
-2.999768
22
237.255859
32
82.356026
13
13.216949
23
245.788818
33
94.319626
0
3DFACE
8
0
70
0
10
28.691029
20
145.791687
30
109.565765
11
28.691029
21
160.321869
31
106.623070
12
14.698415
22
163.288666
32
101.151703
13
11.516120
23
154.137146
33
103.199554
0
3DFACE
8
0
70
0
10
28.691029
20
102.635483
30
88.488289
11
28.691029
21
145.791687
31
109.565765
12
11.516120
22
154.137146
32
103.199554
13
8.330995
23
115.152649
33
85.246353
0
3DFACE
8
0
70
0
10
-22.224981
20
189.425171
30
65.513870
11
-25.948206
21
178.167114
31
68.684151
12
-3.827405
22
167.200684
32
83.293694
13
-4.510575
23
170.422424
33
92.304878
0
3DFACE
8
0
70
0
10
-3.827405
20
167.200684
30
83.293694
11
-25.948206
21
178.167114
31
68.684151
12
-25.278856
22
170.801636
32
37.500011
13
-15.200788
23
141.154175
33
53.494438
0
3DFACE
8
0
70
0
10
8.330995
20
115.152649
30
85.246353
11
11.516120
21
154.137146
31
103.199554
12
-3.827405
22
167.200684
32
83.293694
13
-15.200788
23
141.154175
33
53.494438
0
3DFACE
8
0
70
0
10
11.516120
20
154.137146
30
103.199554
11
14.698415
21
163.288666
31
101.151703
12
-4.510575
22
170.422424
32
92.304878
13
-3.827405
23
167.200684
33
83.293694
0
3DFACE
8
0
70
0
10
28.691029
20
172.384216
30
111.741035
11
15.700042
21
172.587708
31
111.057327
12
14.698415
22
163.288666
32
101.151703
13
28.691029
23
160.321869
33
106.623070
0
3DFACE
8
0
70
0
10
28.691029
20
190.151428
30
102.861427
11
28.691029
21
187.840637
31
97.818153
12
17.224567
22
190.627991
32
91.898666
13
19.660994
23
191.565491
33
100.112862
0
3DFACE
8
0
70
0
10
4.963624
20
191.827759
30
99.995750
11
19.660994
21
191.565491
31
100.112862
12
17.224567
22
190.627991
32
91.898666
13
2.597434
23
193.248383
33
85.995529
0
POINT
8
0
70
0
10
-22.908533
20
173.483734
30
83.882256
0
3DFACE
8
0
70
0
10
15.700042
20
172.587708
30
111.057327
11
-2.513577
21
174.779022
31
102.389763
12
-4.510575
22
170.422424
32
92.304878
13
14.698415
23
163.288666
33
101.151703
0
3DFACE
8
0
70
0
10
-2.513577
20
174.779022
30
102.389763
11
4.963624
21
191.827759
31
99.995750
12
-22.908533
22
173.483734
32
83.882256
13
-22.908533
23
173.483734
33
83.882256
0
3DFACE
8
0
70
0
10
4.963624
20
191.827759
30
99.995750
11
2.597434
21
193.248383
31
85.995529
12
-22.908533
22
173.483734
32
83.882256
13
-22.908533
23
173.483734
33
83.882256
0
3DFACE
8
0
70
0
10
-22.908533
20
173.483734
30
83.882256
11
2.597434
21
193.248383
31
85.995529
12
-4.510575
22
170.422424
32
92.304878
13
-4.510575
23
170.422424
33
92.304878
0
3DFACE
8
0
70
0
10
-4.510575
20
170.422424
30
92.304878
11
-2.513577
21
174.779022
31
102.389763
12
-22.908533
22
173.483734
32
83.882256
13
-22.908533
23
173.483734
33
83.882256
0
3DFACE
8
0
70
0
10
-29.249683
20
237.617249
30
65.295967
11
-33.823101
21
231.177917
31
27.994162
12
-30.517561
22
229.514771
32
28.800205
13
-17.084146
23
232.679260
33
65.716461
0
3DFACE
8
0
70
0
10
-17.084146
20
232.679260
30
65.716461
11
-30.517561
21
229.514771
31
28.800205
12
-32.021969
22
222.161499
32
29.849279
13
-15.111394
23
222.977600
33
66.043121
0
3DFACE
8
0
70
0
10
-15.111394
20
222.977600
30
66.043121
11
-32.021969
21
222.161499
31
29.849279
12
-32.043751
22
208.967529
32
32.028214
13
-17.553164
23
209.878479
33
65.891945
0
3DFACE
8
0
70
0
10
-33.823101
20
231.177917
30
27.994162
11
-16.313486
21
226.170685
31
2.180299
12
-13.727357
22
227.219543
32
2.487197
13
-30.517561
23
229.514771
33
28.800205
0
3DFACE
8
0
70
0
10
-32.021969
20
222.161499
30
29.849279
11
-30.517561
21
229.514771
31
28.800205
12
-13.727357
22
227.219543
32
2.487197
13
-16.039721
23
225.840881
33
0.059638
0
3DFACE
8
0
70
0
10
-32.043751
20
208.967529
30
32.028214
11
-32.021969
21
222.161499
31
29.849279
12
-16.039721
22
225.840881
32
0.059638
13
-13.294943
23
214.143799
33
-1.424091
0
3DFACE
8
0
70
0
10
-16.313486
20
226.170685
30
2.180299
11
28.691027
21
224.162659
31
-17.487638
12
28.691027
22
226.992981
32
-14.672208
13
-13.727357
23
227.219543
33
2.487197
0
3DFACE
8
0
70
0
10
-16.039721
20
225.840881
30
0.059638
11
-13.727357
21
227.219543
31
2.487197
12
28.691027
22
226.992981
32
-14.672208
13
28.691025
23
225.766663
33
-15.018003
0
3DFACE
8
0
70
0
10
-13.294943
20
214.143799
30
-1.424091
11
-16.039721
21
225.840881
31
0.059638
12
28.691025
22
225.766663
32
-15.018003
13
28.691010
23
211.890503
33
-13.558692
0
3DFACE
8
0
70
0
10
-25.278856
20
170.801636
30
37.500011
11
-25.948206
21
178.167114
31
68.684151
12
-22.224981
22
189.425171
32
65.513870
13
-31.607397
23
187.413269
33
33.390900
0
3DFACE
8
0
70
0
10
-17.553164
20
209.878479
30
65.891945
11
-32.043751
21
208.967529
31
32.028214
12
-20.619238
22
200.355103
32
65.335167
13
-20.619238
23
200.355103
33
65.335167
0
3DFACE
8
0
70
0
10
-22.224981
20
189.425171
30
65.513870
11
-20.619238
21
200.355103
31
65.335167
12
-32.043751
22
208.967529
32
32.028214
13
-31.607397
23
187.413269
33
33.390900
0
3DFACE
8
0
70
0
10
-31.607397
20
187.413269
30
33.390900
11
-32.043751
21
208.967529
31
32.028214
12
-13.294943
22
214.143799
32
-1.424091
13
-12.502227
23
196.156128
33
1.486755
0
3DFACE
8
0
70
0
10
-12.502227
20
196.156128
30
1.486755
11
-13.294943
21
214.143799
31
-1.424091
12
28.691010
22
211.890503
32
-13.558692
13
28.691011
23
194.530426
33
-9.127532
0
3DFACE
8
0
70
0
10
28.691029
20
244.106018
30
99.194473
11
28.691031
21
272.963745
31
96.877937
12
9.291431
22
273.711914
32
90.762436
13
11.648257
23
252.434967
33
94.970459
0
3DFACE
8
0
70
0
10
28.691031
20
272.963745
30
96.877937
11
28.691031
21
276.300629
31
93.284790
12
8.902767
22
275.969391
32
85.857109
13
9.291431
23
273.711914
33
90.762436
0
3DFACE
8
0
70
0
10
11.648257
20
252.434967
30
94.970459
11
9.291431
21
273.711914
31
90.762436
12
-17.199890
22
271.646820
32
77.603500
13
-3.292477
23
244.189209
33
83.856010
0
3DFACE
8
0
70
0
10
9.291431
20
273.711914
30
90.762436
11
8.902767
21
275.969391
31
85.857109
12
-15.957539
22
274.325958
32
72.991859
13
-17.199890
23
271.646820
33
77.603500
0
3DFACE
8
0
70
0
10
-3.292477
20
244.189209
30
83.856010
11
-17.199890
21
271.646820
31
77.603500
12
-33.296749
22
263.572113
32
46.954624
13
-29.249683
23
237.617249
33
65.295967
0
3DFACE
8
0
70
0
10
-17.199890
20
271.646820
30
77.603500
11
-15.957539
21
274.325958
31
72.991859
12
-24.998070
22
267.628448
32
45.544674
13
-33.296749
23
263.572113
33
46.954624
0
3DFACE
8
0
70
0
10
-29.249683
20
237.617249
30
65.295967
11
-33.296749
21
263.572113
31
46.954624
12
-37.822437
22
261.561127
32
21.152876
13
-33.823101
23
231.177917
33
27.994162
0
3DFACE
8
0
70
0
10
-33.296749
20
263.572113
30
46.954624
11
-24.998070
21
267.628448
31
45.544674
12
-31.268009
22
264.313995
32
22.576475
13
-37.822437
23
261.561127
33
21.152876
0
3DFACE
8
0
70
0
10
-33.823101
20
231.177917
30
27.994162
11
-37.822437
21
261.561127
31
21.152876
12
-17.208813
22
253.783752
32
-1.596331
13
-16.313486
23
226.170685
33
2.180299
0
3DFACE
8
0
70
0
10
-37.822437
20
261.561127
30
21.152876
11
-31.268009
21
264.313995
31
22.576475
12
-11.680097
22
258.234894
32
1.837493
13
-17.208813
23
253.783752
33
-1.596331
0
3DFACE
8
0
70
0
10
-16.313486
20
226.170685
30
2.180299
11
-17.208813
21
253.783752
31
-1.596331
12
28.691029
22
249.670898
32
-21.350451
13
28.691027
23
224.162659
33
-17.487638
0
3DFACE
8
0
70
0
10
-17.208813
20
253.783752
30
-1.596331
11
-11.680097
21
258.234894
31
1.837493
12
28.691029
22
253.669556
32
-17.130922
13
28.691029
23
249.670898
33
-21.350451
0
3DFACE
8
0
70
0
10
-25.278856
20
170.801636
30
37.500011
11
-31.607397
21
187.413269
31
33.390900
12
-12.502227
22
196.156128
32
1.486755
13
-28.490105
23
169.574829
33
25.480600
0
3DFACE
8
0
70
0
10
-28.490105
20
169.574829
30
25.480600
11
-12.502227
21
196.156128
31
1.486755
12
28.691011
22
194.530426
32
-9.127532
13
6.862231
23
175.038818
33
3.878043
0
3DFACE
8
0
70
0
10
-15.200788
20
141.154175
30
53.494438
11
-25.278856
21
170.801636
31
37.500011
12
-28.490105
22
169.574829
32
25.480600
13
-17.659826
23
151.091187
33
51.266796
0
3DFACE
8
0
70
0
10
8.330995
20
115.152649
30
85.246353
11
-15.200788
21
141.154175
31
53.494438
12
-17.659826
22
151.091187
32
51.266796
13
10.749940
23
115.844910
33
69.339668
0
3DFACE
8
0
70
0
10
10.749940
20
115.844910
30
69.339668
11
-17.659826
21
151.091187
31
51.266796
12
28.691029
22
136.247467
32
43.396519
13
28.691029
23
114.210785
33
65.043594
0
3DFACE
8
0
70
0
10
28.691029
20
102.635483
30
88.488289
11
10.749940
21
115.844910
31
69.339668
12
28.691029
22
114.210785
32
65.043594
13
28.691029
23
114.210785
33
65.043594
0
3DFACE
8
0
70
0
10
28.691029
20
102.635483
30
88.488289
11
8.330995
21
115.152649
31
85.246353
12
10.749940
22
115.844910
32
69.339668
13
10.749940
23
115.844910
33
69.339668
0
3DFACE
8
0
70
0
10
25.105974
20
225.327087
30
94.327049
11
28.691029
21
225.079681
31
97.531448
12
28.691029
22
237.497681
32
96.470764
13
25.105974
23
234.444366
33
93.482849
0
3DFACE
8
0
70
0
10
13.857457
20
223.323151
30
90.027290
11
13.890349
21
221.136108
31
92.223122
12
28.691029
22
225.079681
32
97.531448
13
25.105974
23
225.327087
33
94.327049
0
3DFACE
8
0
70
0
10
12.958100
20
242.816284
30
91.856819
11
25.105974
21
234.444366
31
93.482849
12
28.691029
22
237.497681
32
96.470764
13
13.216949
23
245.788818
33
94.319626
0
3DFACE
8
0
70
0
10
13.857457
20
223.323151
30
90.027290
11
4.767970
21
224.257690
31
84.935066
12
1.930499
22
222.416992
32
85.936409
13
13.890349
23
221.136108
33
92.223122
0
3DFACE
8
0
70
0
10
4.767970
20
224.257690
30
84.935066
11
1.020968
21
234.447571
31
82.041245
12
-2.999768
22
237.255859
32
82.356026
13
1.930499
23
222.416992
33
85.936409
0
3DFACE
8
0
70
0
10
12.958100
20
242.816284
30
91.856819
11
13.216949
21
245.788818
31
94.319626
12
-2.999768
22
237.255859
32
82.356026
13
1.020968
23
234.447571
33
82.041245
0
3DFACE
8
0
70
0
10
45.075703
20
242.121094
30
91.655769
11
44.568832
21
244.981995
31
94.333702
12
28.691029
22
237.497681
32
96.470764
13
32.729221
23
234.563629
33
93.663162
0
3DFACE
8
0
70
0
10
43.758690
20
222.710754
30
89.397079
11
32.729221
21
225.059021
31
94.705406
12
28.691029
22
225.079681
32
97.531448
13
43.491707
23
221.136108
33
92.223122
0
3DFACE
8
0
70
0
10
32.729221
20
225.059021
30
94.705406
11
32.729221
21
234.563629
31
93.663162
12
28.691029
22
237.497681
32
96.470764
13
28.691029
23
225.079681
33
97.531448
0
3DFACE
8
0
70
0
10
45.075703
20
242.121094
30
91.655769
11
56.995049
21
234.567017
31
79.537750
12
61.253864
22
237.255859
32
82.356026
13
44.568832
23
244.981995
33
94.333702
0
3DFACE
8
0
70
0
10
53.321014
20
223.706787
30
83.110359
11
56.323597
21
222.416992
31
85.936409
12
61.253864
22
237.255859
32
82.356026
13
56.995049
23
234.567017
33
79.537750
0
3DFACE
8
0
70
0
10
43.758690
20
222.710754
30
89.397079
11
43.491707
21
221.136108
31
92.223122
12
56.323597
22
222.416992
32
85.936409
13
53.321014
23
223.706787
33
83.110359
0
3DFACE
8
0
70
0
10
6.862231
20
175.038818
30
3.878043
11
46.993961
21
169.574829
31
25.480600
12
62.168655
22
158.462280
32
-4.389199
13
-1.853932
23
175.667419
33
2.126543
0
3DFACE
8
0
70
0
10
-1.853932
20
175.667419
30
2.126543
11
-69.399567
21
156.808350
31
-4.709726
12
-28.490105
22
169.574829
32
25.480600
13
6.862231
23
175.038818
33
3.878043
0
3DFACE
8
0
70
0
10
-69.399567
20
156.808350
30
-4.709726
11
-56.614574
21
136.405731
31
55.426003
12
-28.490105
22
169.574829
32
25.480600
13
-28.490105
23
169.574829
33
25.480600
0
3DFACE
8
0
70
0
10
-56.614574
20
136.405731
30
55.426003
11
-17.659826
21
151.091187
31
51.266796
12
-28.490105
22
169.574829
32
25.480600
13
-28.490105
23
169.574829
33
25.480600
0
3DFACE
8
0
70
0
10
52.935226
20
136.405731
30
55.425999
11
46.993961
21
169.574829
31
25.480600
12
44.527634
22
151.091187
32
51.266796
13
44.527634
23
151.091187
33
51.266796
0
3DFACE
8
0
70
0
10
62.168655
20
158.462280
30
-4.389199
11
46.993961
21
169.574829
31
25.480600
12
52.935226
22
136.405731
32
55.425999
13
52.935226
23
136.405731
33
55.425999
0
3DFACE
8
0
70
0
10
-1.823221
20
139.682312
30
62.260628
11
-17.659826
21
151.091187
31
51.266796
12
-56.614574
22
136.405731
32
55.426003
13
-56.614574
23
136.405731
33
55.426003
0
3DFACE
8
0
70
0
10
28.691029
20
136.247467
30
43.396519
11
-17.659826
21
151.091187
31
51.266796
12
-1.823221
22
139.682312
32
62.260628
13
-1.823221
23
139.682312
33
62.260628
0
3DFACE
8
0
70
0
10
28.691029
20
136.247467
30
43.396519
11
-1.823221
21
139.682312
31
62.260628
12
44.527634
22
151.091187
32
51.266796
13
44.527634
23
151.091187
33
51.266796
0
3DFACE
8
0
70
0
10
-1.823221
20
139.682312
30
62.260628
11
52.935226
21
136.405731
31
55.425999
12
44.527634
22
151.091187
32
51.266796
13
44.527634
23
151.091187
33
51.266796
0
3DFACE
8
0
70
0
10
28.691029
20
253.669556
30
-17.130922
11
28.663029
21
307.116394
31
9.497261
12
44.633217
22
310.512054
32
15.108290
13
69.062149
23
258.234894
33
1.837493
0
3DFACE
8
0
70
0
10
69.062149
20
258.234894
30
1.837493
11
44.633217
21
310.512054
31
15.108290
12
55.350883
22
315.552490
32
23.437061
13
88.650070
23
264.313995
33
22.576475
0
3DFACE
8
0
70
0
10
88.650070
20
264.313995
30
22.576475
11
55.350883
21
315.552490
31
23.437061
12
52.898521
22
320.708801
32
31.957346
13
82.380135
23
267.628448
33
45.544674
0
3DFACE
8
0
70
0
10
82.380135
20
267.628448
30
45.544674
11
52.898521
21
320.708801
31
31.957346
12
50.219898
22
327.101105
32
42.519997
13
73.339600
23
274.325958
33
72.991859
0
3DFACE
8
0
70
0
10
28.691031
20
276.300629
30
93.284790
11
48.479290
21
275.969391
31
85.857109
12
38.289539
22
330.204681
32
47.648327
13
28.663033
23
332.015900
33
50.641212
0
3DFACE
8
0
70
0
10
28.691029
20
253.669556
30
-17.130922
11
-11.680097
21
258.234894
31
1.837493
12
12.692842
22
310.512054
32
15.108288
13
28.663029
23
307.116394
33
9.497261
0
3DFACE
8
0
70
0
10
-11.680097
20
258.234894
30
1.837493
11
-31.268009
21
264.313995
31
22.576475
12
1.975181
22
315.552490
32
23.437057
13
12.692842
23
310.512054
33
15.108288
0
3DFACE
8
0
70
0
10
-31.268009
20
264.313995
30
22.576475
11
-24.998070
21
267.628448
31
45.544674
12
4.427538
22
320.708801
32
31.957342
13
1.975181
23
315.552490
33
23.437057
0
3DFACE
8
0
70
0
10
-24.998070
20
267.628448
30
45.544674
11
-15.957539
21
274.325958
31
72.991859
12
7.106166
22
327.101135
32
42.519993
13
4.427538
23
320.708801
33
31.957342
0
3DFACE
8
0
70
0
10
28.691031
20
276.300629
30
93.284790
11
28.663033
21
332.015900
31
50.641212
12
19.036524
22
330.204681
32
47.648327
13
8.902767
23
275.969391
33
85.857109
0
3DFACE
8
0
70
0
10
73.339600
20
274.325958
30
72.991859
11
50.219898
21
327.101105
31
42.519997
12
38.289539
22
330.204681
32
47.648327
13
48.479290
23
275.969391
33
85.857109
0
3DFACE
8
0
70
0
10
-15.957539
20
274.325958
30
72.991859
11
8.902767
21
275.969391
31
85.857109
12
19.036524
22
330.204681
32
47.648327
13
7.106166
23
327.101135
33
42.519993
0
3DFACE
8
0
70
0
10
28.621189
20
360.346619
30
-13.314938
11
42.230114
21
357.665588
31
-22.509857
12
28.621193
22
360.527588
32
-29.403681
13
28.621193
23
360.527588
33
-29.403681
0
3DFACE
8
0
70
0
10
42.230110
20
351.941681
30
-8.722325
11
42.230114
21
357.665588
31
-22.509857
12
28.621189
22
360.346619
32
-13.314938
13
28.621189
23
360.346619
33
-13.314938
0
3DFACE
8
0
70
0
10
28.621185
20
349.079742
30
-1.828562
11
42.230110
21
351.941681
31
-8.722325
12
28.621189
22
360.346619
32
-13.314938
13
28.621189
23
360.346619
33
-13.314938
0
3DFACE
8
0
70
0
10
28.621185
20
349.079742
30
-1.828562
11
28.621189
21
360.346619
31
-13.314938
12
15.012297
22
351.941711
32
-8.722330
13
15.012297
23
351.941711
33
-8.722330
0
3DFACE
8
0
70
0
10
15.012297
20
351.941711
30
-8.722330
11
28.621189
21
360.346619
31
-13.314938
12
15.012300
22
357.665588
32
-22.509861
13
15.012300
23
357.665588
33
-22.509861
0
3DFACE
8
0
70
0
10
28.621189
20
360.346619
30
-13.314938
11
28.621193
21
360.527588
31
-29.403681
12
15.012300
22
357.665588
32
-22.509861
13
15.012300
23
357.665588
33
-22.509861
0
3DFACE
8
0
70
0
10
42.230114
20
357.665588
30
-22.509857
11
47.867088
21
345.469238
31
-30.920891
12
28.621195
22
349.516663
32
-40.670158
13
28.621193
23
360.527588
33
-29.403681
0
3DFACE
8
0
70
0
10
47.867081
20
337.374390
30
-11.422301
11
47.867088
21
345.469238
31
-30.920891
12
42.230114
22
357.665588
32
-22.509857
13
42.230110
23
351.941681
33
-8.722325
0
3DFACE
8
0
70
0
10
28.621185
20
333.326996
30
-1.673066
11
47.867081
21
337.374390
31
-11.422301
12
42.230110
22
351.941681
32
-8.722325
13
28.621185
23
349.079742
33
-1.828562
0
3DFACE
8
0
70
0
10
28.621185
20
333.326996
30
-1.673066
11
28.621185
21
349.079742
31
-1.828562
12
15.012297
22
351.941711
32
-8.722330
13
9.375289
23
337.374420
33
-11.422306
0
3DFACE
8
0
70
0
10
9.375289
20
337.374420
30
-11.422306
11
15.012297
21
351.941711
31
-8.722330
12
15.012300
22
357.665588
32
-22.509861
13
9.375294
23
345.469269
33
-30.920895
0
3DFACE
8
0
70
0
10
15.012300
20
357.665588
30
-22.509861
11
28.621193
21
360.527588
31
-29.403681
12
28.621195
22
349.516663
32
-40.670158
13
9.375294
23
345.469269
33
-30.920895
0
3DFACE
8
0
70
0
10
42.230114
20
330.901947
30
-33.620811
11
28.621195
21
333.763916
31
-40.514637
12
28.621195
22
349.516663
32
-40.670158
13
47.867088
23
345.469238
33
-30.920891
0
3DFACE
8
0
70
0
10
47.867081
20
337.374390
30
-11.422301
11
42.230110
21
325.178040
31
-19.833281
12
42.230114
22
330.901947
32
-33.620811
13
47.867088
23
345.469238
33
-30.920891
0
3DFACE
8
0
70
0
10
28.621185
20
333.326996
30
-1.673066
11
28.621187
21
322.316071
31
-12.939517
12
42.230110
22
325.178040
32
-19.833281
13
47.867081
23
337.374390
33
-11.422301
0
3DFACE
8
0
70
0
10
28.621185
20
333.326996
30
-1.673066
11
9.375289
21
337.374420
31
-11.422306
12
15.012299
22
325.178040
32
-19.833284
13
28.621187
23
322.316071
33
-12.939517
0
3DFACE
8
0
70
0
10
9.375289
20
337.374420
30
-11.422306
11
9.375294
21
345.469269
31
-30.920895
12
15.012301
22
330.901947
32
-33.620815
13
15.012299
23
325.178040
33
-19.833284
0
3DFACE
8
0
70
0
10
15.012301
20
330.901947
30
-33.620815
11
9.375294
21
345.469269
31
-30.920895
12
28.621195
22
349.516663
32
-40.670158
13
28.621195
23
333.763916
33
-40.514637
0
3DFACE
8
0
70
0
10
28.621181
20
322.497040
30
-29.028206
11
28.621195
21
333.763916
31
-40.514637
12
42.230114
22
330.901947
32
-33.620811
13
42.230114
23
330.901947
33
-33.620811
0
3DFACE
8
0
70
0
10
42.230110
20
325.178040
30
-19.833281
11
28.621181
21
322.497040
31
-29.028206
12
42.230114
22
330.901947
32
-33.620811
13
42.230114
23
330.901947
33
-33.620811
0
3DFACE
8
0
70
0
10
28.621187
20
322.316071
30
-12.939517
11
28.621181
21
322.497040
31
-29.028206
12
42.230110
22
325.178040
32
-19.833281
13
42.230110
23
325.178040
33
-19.833281
0
3DFACE
8
0
70
0
10
28.621187
20
322.316071
30
-12.939517
11
15.012299
21
325.178040
31
-19.833284
12
28.621181
22
322.497040
32
-29.028206
13
28.621181
23
322.497040
33
-29.028206
0
3DFACE
8
0
70
0
10
15.012299
20
325.178040
30
-19.833284
11
15.012301
21
330.901947
31
-33.620815
12
28.621181
22
322.497040
32
-29.028206
13
28.621181
23
322.497040
33
-29.028206
0
3DFACE
8
0
70
0
10
28.621181
20
322.497040
30
-29.028206
11
15.012301
21
330.901947
31
-33.620815
12
28.621195
22
333.763916
32
-40.514637
13
28.621195
23
333.763916
33
-40.514637
0
3DFACE
8
0
70
0
10
54.784626
20
193.248383
30
85.995529
11
78.001297
21
200.355103
31
65.335167
12
66.281242
22
209.061707
32
89.112961
13
66.281242
23
209.061707
33
89.112961
0
3DFACE
8
0
70
0
10
78.001297
20
200.355103
30
65.335167
11
74.935226
21
209.878479
31
65.891945
12
66.281242
22
209.061707
32
89.112961
13
66.281242
23
209.061707
33
89.112961
0
3DFACE
8
0
70
0
10
40.157490
20
190.627991
30
91.898666
11
54.784626
21
193.248383
31
85.995529
12
51.649487
22
209.215088
32
92.147392
13
51.649487
23
209.215088
33
92.147392
0
3DFACE
8
0
70
0
10
54.784626
20
193.248383
30
85.995529
11
66.281242
21
209.061707
31
89.112961
12
51.649487
22
209.215088
32
92.147392
13
51.649487
23
209.215088
33
92.147392
0
3DFACE
8
0
70
0
10
66.281242
20
209.061707
30
89.112961
11
74.935226
21
209.878479
31
65.891945
12
56.323597
22
222.416992
32
85.936409
13
56.323597
23
222.416992
33
85.936409
0
3DFACE
8
0
70
0
10
74.935226
20
209.878479
30
65.891945
11
72.493446
21
222.977600
31
66.043121
12
56.323597
22
222.416992
32
85.936409
13
56.323597
23
222.416992
33
85.936409
0
3DFACE
8
0
70
0
10
51.649487
20
209.215088
30
92.147392
11
56.323597
21
222.416992
31
85.936409
12
43.491707
22
221.136108
32
92.223122
13
43.491707
23
221.136108
33
92.223122
0
3DFACE
8
0
70
0
10
66.281242
20
209.061707
30
89.112961
11
56.323597
21
222.416992
31
85.936409
12
51.649487
22
209.215088
32
92.147392
13
51.649487
23
209.215088
33
92.147392
0
3DFACE
8
0
70
0
10
56.323597
20
222.416992
30
85.936409
11
72.493446
21
222.977600
31
66.043121
12
61.253864
22
237.255859
32
82.356026
13
61.253864
23
237.255859
33
82.356026
0
3DFACE
8
0
70
0
10
72.493446
20
222.977600
30
66.043121
11
74.466202
21
232.679260
31
65.716461
12
61.253864
22
237.255859
32
82.356026
13
61.253864
23
237.255859
33
82.356026
0
3DFACE
8
0
70
0
10
-20.619238
20
200.355103
30
65.335167
11
-8.899186
21
209.061707
31
89.112961
12
-17.553164
22
209.878479
32
65.891945
13
-17.553164
23
209.878479
33
65.891945
0
3DFACE
8
0
70
0
10
2.597434
20
193.248383
30
85.995529
11
-8.899186
21
209.061707
31
89.112961
12
-20.619238
22
200.355103
32
65.335167
13
-20.619238
23
200.355103
33
65.335167
0
3DFACE
8
0
70
0
10
2.597434
20
193.248383
30
85.995529
11
5.732574
21
209.215088
31
92.147392
12
-8.899186
22
209.061707
32
89.112961
13
-8.899186
23
209.061707
33
89.112961
0
3DFACE
8
0
70
0
10
17.224567
20
190.627991
30
91.898666
11
5.732574
21
209.215088
31
92.147392
12
2.597434
22
193.248383
32
85.995529
13
2.597434
23
193.248383
33
85.995529
0
3DFACE
8
0
70
0
10
-17.553164
20
209.878479
30
65.891945
11
1.930499
21
222.416992
31
85.936409
12
-15.111394
22
222.977600
32
66.043121
13
-15.111394
23
222.977600
33
66.043121
0
3DFACE
8
0
70
0
10
-8.899186
20
209.061707
30
89.112961
11
1.930499
21
222.416992
31
85.936409
12
-17.553164
22
209.878479
32
65.891945
13
-17.553164
23
209.878479
33
65.891945
0
3DFACE
8
0
70
0
10
5.732574
20
209.215088
30
92.147392
11
13.890349
21
221.136108
31
92.223122
12
1.930499
22
222.416992
32
85.936409
13
1.930499
23
222.416992
33
85.936409
0
3DFACE
8
0
70
0
10
-8.899186
20
209.061707
30
89.112961
11
5.732574
21
209.215088
31
92.147392
12
1.930499
22
222.416992
32
85.936409
13
1.930499
23
222.416992
33
85.936409
0
3DFACE
8
0
70
0
10
-15.111394
20
222.977600
30
66.043121
11
-2.999768
21
237.255859
31
82.356026
12
-17.084146
22
232.679260
32
65.716461
13
-17.084146
23
232.679260
33
65.716461
0
3DFACE
8
0
70
0
10
1.930499
20
222.416992
30
85.936409
11
-2.999768
21
237.255859
31
82.356026
12
-15.111394
22
222.977600
32
66.043121
13
-15.111394
23
222.977600
33
66.043121
0
3DFACE
8
0
70
0
10
45.668579
20
-64.978004
30
33.426846
11
37.070427
21
-47.034248
31
18.615324
12
21.538298
22
-54.976074
32
-3.669377
13
21.538298
23
-54.976074
33
-3.669377
0
3DFACE
8
0
70
0
10
45.668579
20
-64.978004
30
33.426846
11
21.538298
21
-54.976074
31
-3.669377
12
30.826988
22
-72.627563
32
13.299823
13
30.826988
23
-72.627563
33
13.299823
0
3DFACE
8
0
70
0
10
45.668579
20
-64.978004
30
33.426846
11
73.937141
21
-50.666687
31
-4.146908
12
37.070427
22
-47.034248
32
18.615324
13
37.070427
23
-47.034248
33
18.615324
0
3DFACE
8
0
70
0
10
45.668579
20
-64.978004
30
33.426846
11
77.104996
21
-68.302498
31
13.395744
12
73.937141
22
-50.666687
32
-4.146908
13
73.937141
23
-50.666687
33
-4.146908
0
3DFACE
8
0
70
0
10
77.104996
20
-68.302498
30
13.395744
11
78.796059
21
-56.046318
31
-23.638697
12
73.937141
22
-50.666687
32
-4.146908
13
73.937141
23
-50.666687
33
-4.146908
0
3DFACE
8
0
70
0
10
77.104996
20
-68.302498
30
13.395744
11
80.981239
21
-73.432175
31
-4.219799
12
78.796059
22
-56.046318
32
-23.638697
13
78.796059
23
-56.046318
33
-23.638697
0
3DFACE
8
0
70
0
10
30.651310
20
-80.852348
30
-13.041083
11
21.538298
21
-54.976074
31
-3.669377
12
20.617491
22
-63.545784
32
-32.243809
13
20.617491
23
-63.545784
33
-32.243809
0
3DFACE
8
0
70
0
10
30.826988
20
-72.627563
30
13.299823
11
21.538298
21
-54.976074
31
-3.669377
12
30.651310
22
-80.852348
32
-13.041083
13
30.651310
23
-80.852348
33
-13.041083
0
3DFACE
8
0
70
0
10
67.343773
20
-78.620819
30
-16.808411
11
63.242729
21
-61.399185
31
-37.205345
12
78.796059
22
-56.046318
32
-23.638697
13
78.796059
23
-56.046318
33
-23.638697
0
3DFACE
8
0
70
0
10
80.981239
20
-73.432175
30
-4.219799
11
67.343773
21
-78.620819
31
-16.808411
12
78.796059
22
-56.046318
32
-23.638697
13
78.796059
23
-56.046318
33
-23.638697
0
3DFACE
8
0
70
0
10
30.651310
20
-80.852348
30
-13.041083
11
20.617491
21
-63.545784
31
-32.243809
12
63.242729
22
-61.399185
32
-37.205345
13
63.242729
23
-61.399185
33
-37.205345
0
3DFACE
8
0
70
0
10
67.343773
20
-78.620819
30
-16.808411
11
30.651310
21
-80.852348
31
-13.041083
12
63.242729
22
-61.399185
32
-37.205345
13
63.242729
23
-61.399185
33
-37.205345
0
3DFACE
8
0
70
0
10
-25.790556
20
-64.163704
30
-2.990176
11
-26.364874
21
-67.038406
31
-24.701088
12
-25.360619
22
-37.348824
32
-26.871098
13
-25.360619
23
-37.348824
33
-26.871098
0
3DFACE
8
0
70
0
10
-25.790556
20
-64.163704
30
-2.990176
11
-25.360619
21
-37.348824
31
-26.871098
12
-24.336020
22
-50.287849
32
-3.137660
13
-24.336020
23
-50.287849
33
-3.137660
0
3DFACE
8
0
70
0
10
-25.790556
20
-64.163704
30
-2.990176
11
-24.336020
21
-50.287849
31
-3.137660
12
-66.617081
22
-46.950790
32
4.394099
13
-66.617081
23
-46.950790
33
4.394099
0
3DFACE
8
0
70
0
10
-25.790556
20
-64.163704
30
-2.990176
11
-66.617081
21
-46.950790
31
4.394099
12
-62.240818
22
-62.567558
32
3.053520
13
-62.240818
23
-62.567558
33
3.053520
0
3DFACE
8
0
70
0
10
-62.240818
20
-62.567558
30
3.053520
11
-66.617081
21
-46.950790
31
4.394099
12
-81.936241
22
-39.088943
32
-5.251062
13
-81.936241
23
-39.088943
33
-5.251062
0
3DFACE
8
0
70
0
10
-62.240818
20
-62.567558
30
3.053520
11
-81.936241
21
-39.088943
31
-5.251062
12
-75.839363
22
-63.456680
32
-5.855473
13
-75.839363
23
-63.456680
33
-5.855473
0
3DFACE
8
0
70
0
10
-42.062046
20
-68.943977
30
-41.596584
11
-41.528042
21
-24.316559
31
-45.857510
12
-25.360619
22
-37.348824
32
-26.871098
13
-25.360619
23
-37.348824
33
-26.871098
0
3DFACE
8
0
70
0
10
-26.364874
20
-67.038406
30
-24.701088
11
-42.062046
21
-68.943977
31
-41.596584
12
-25.360619
22
-37.348824
32
-26.871098
13
-25.360619
23
-37.348824
33
-26.871098
0
3DFACE
8
0
70
0
10
-75.839363
20
-63.456680
30
-5.855473
11
-81.936241
21
-39.088943
31
-5.251062
12
-72.817291
22
-65.674736
32
-22.040646
13
-72.817291
23
-65.674736
33
-22.040646
0
3DFACE
8
0
70
0
10
-72.817291
20
-65.674736
30
-22.040646
11
-81.936241
21
-39.088943
31
-5.251062
12
-77.791901
22
-30.069450
32
-23.373804
13
-77.791901
23
-30.069450
33
-23.373804
0
3DFACE
8
0
70
0
10
-72.817291
20
-65.674736
30
-22.040646
11
-77.791901
21
-30.069450
31
-23.373804
12
-42.062046
22
-68.943977
32
-41.596584
13
-42.062046
23
-68.943977
33
-41.596584
0
3DFACE
8
0
70
0
10
-42.062046
20
-68.943977
30
-41.596584
11
-77.791901
21
-30.069450
31
-23.373804
12
-41.528042
22
-24.316559
32
-45.857510
13
-41.528042
23
-24.316559
33
-45.857510
0
3DFACE
8
0
70
0
10
40.718781
20
-91.708771
30
21.145638
11
45.668579
21
-64.978004
31
33.426846
12
30.826988
22
-72.627563
32
13.299823
13
30.826988
23
-72.627563
33
13.299823
0
3DFACE
8
0
70
0
10
29.064859
20
-123.569733
30
0.799257
11
40.718781
21
-91.708771
31
21.145638
12
30.826988
22
-72.627563
32
13.299823
13
30.826988
23
-72.627563
33
13.299823
0
3DFACE
8
0
70
0
10
71.625465
20
-99.772743
30
3.584298
11
77.104996
21
-68.302498
31
13.395744
12
40.718781
22
-91.708771
32
21.145638
13
40.718781
23
-91.708771
33
21.145638
0
3DFACE
8
0
70
0
10
40.718781
20
-91.708771
30
21.145638
11
77.104996
21
-68.302498
31
13.395744
12
45.668579
22
-64.978004
32
33.426846
13
45.668579
23
-64.978004
33
33.426846
0
3DFACE
8
0
70
0
10
76.852173
20
-124.071625
30
-12.312391
11
80.981239
21
-73.432175
31
-4.219799
12
71.625465
22
-99.772743
32
3.584298
13
71.625465
23
-99.772743
33
3.584298
0
3DFACE
8
0
70
0
10
71.625465
20
-99.772743
30
3.584298
11
80.981239
21
-73.432175
31
-4.219799
12
77.104996
22
-68.302498
32
13.395744
13
77.104996
23
-68.302498
33
13.395744
0
3DFACE
8
0
70
0
10
29.064859
20
-123.569733
30
0.799257
11
30.826988
21
-72.627563
31
13.299823
12
30.651310
22
-80.852348
32
-13.041083
13
30.651310
23
-80.852348
33
-13.041083
0
3DFACE
8
0
70
0
10
7.942008
20
-157.298187
30
-18.447975
11
29.064859
21
-123.569733
31
0.799257
12
30.651310
22
-80.852348
32
-13.041083
13
30.651310
23
-80.852348
33
-13.041083
0
3DFACE
8
0
70
0
10
78.792152
20
-156.524841
30
-36.159115
11
67.343773
21
-78.620819
31
-16.808411
12
76.852173
22
-124.071625
32
-12.312391
13
76.852173
23
-124.071625
33
-12.312391
0
3DFACE
8
0
70
0
10
76.852173
20
-124.071625
30
-12.312391
11
67.343773
21
-78.620819
31
-16.808411
12
80.981239
22
-73.432175
32
-4.219799
13
80.981239
23
-73.432175
33
-4.219799
0
3DFACE
8
0
70
0
10
7.942008
20
-157.298187
30
-18.447975
11
30.651310
21
-80.852348
31
-13.041083
12
78.792152
22
-156.524841
32
-36.159115
13
78.792152
23
-156.524841
33
-36.159115
0
3DFACE
8
0
70
0
10
78.792152
20
-156.524841
30
-36.159115
11
30.651310
21
-80.852348
31
-13.041083
12
67.343773
22
-78.620819
32
-16.808411
13
67.343773
23
-78.620819
33
-16.808411
0
3DFACE
8
0
70
0
10
-30.215437
20
-118.826950
30
-13.751668
11
-26.364874
21
-67.038406
31
-24.701088
12
-31.370756
22
-82.401192
32
-0.092129
13
-31.370756
23
-82.401192
33
-0.092129
0
3DFACE
8
0
70
0
10
-31.370756
20
-82.401192
30
-0.092129
11
-26.364874
21
-67.038406
31
-24.701088
12
-25.790556
22
-64.163704
32
-2.990176
13
-25.790556
23
-64.163704
33
-2.990176
0
3DFACE
8
0
70
0
10
-31.370756
20
-82.401192
30
-0.092129
11
-25.790556
21
-64.163704
31
-2.990176
12
-62.240818
22
-62.567558
32
3.053520
13
-62.240818
23
-62.567558
33
3.053520
0
3DFACE
8
0
70
0
10
-66.160332
20
-87.503815
30
3.760766
11
-31.370756
21
-82.401192
31
-0.092129
12
-62.240818
22
-62.567558
32
3.053520
13
-62.240818
23
-62.567558
33
3.053520
0
3DFACE
8
0
70
0
10
-66.160332
20
-87.503815
30
3.760766
11
-62.240818
21
-62.567558
31
3.053520
12
-75.839363
22
-63.456680
32
-5.855473
13
-75.839363
23
-63.456680
33
-5.855473
0
3DFACE
8
0
70
0
10
-77.433350
20
-112.333778
30
0.261134
11
-66.160332
21
-87.503815
31
3.760766
12
-75.839363
22
-63.456680
32
-5.855473
13
-75.839363
23
-63.456680
33
-5.855473
0
3DFACE
8
0
70
0
10
-20.367392
20
-158.695206
30
-30.858824
11
-42.062046
21
-68.943977
31
-41.596584
12
-30.215437
22
-118.826950
32
-13.751668
13
-30.215437
23
-118.826950
33
-13.751668
0
3DFACE
8
0
70
0
10
-30.215437
20
-118.826950
30
-13.751668
11
-42.062046
21
-68.943977
31
-41.596584
12
-26.364874
22
-67.038406
32
-24.701088
13
-26.364874
23
-67.038406
33
-24.701088
0
3DFACE
8
0
70
0
10
-77.433350
20
-112.333778
30
0.261134
11
-75.839363
21
-63.456680
31
-5.855473
12
-72.817291
22
-65.674736
32
-22.040646
13
-72.817291
23
-65.674736
33
-22.040646
0
3DFACE
8
0
70
0
10
-89.566711
20
-147.257889
30
-9.103868
11
-77.433350
21
-112.333778
31
0.261134
12
-72.817291
22
-65.674736
32
-22.040646
13
-72.817291
23
-65.674736
33
-22.040646
0
3DFACE
8
0
70
0
10
-89.566711
20
-147.257889
30
-9.103868
11
-72.817291
21
-65.674736
31
-22.040646
12
-42.062046
22
-68.943977
32
-41.596584
13
-42.062046
23
-68.943977
33
-41.596584
0
3DFACE
8
0
70
0
10
-20.367392
20
-158.695206
30
-30.858824
11
-89.566711
21
-147.257889
31
-9.103868
12
-42.062046
22
-68.943977
32
-41.596584
13
-42.062046
23
-68.943977
33
-41.596584
0
3DFACE
8
0
70
0
10
116.007721
20
8.377808
30
53.691605
11
1.945964
21
58.768417
31
111.709473
12
23.041651
22
38.646973
32
98.858757
13
23.041651
23
38.646973
33
98.858757
0
3DFACE
8
0
70
0
10
116.007721
20
8.377808
30
53.691605
11
103.412834
21
68.743744
31
79.861412
12
1.945964
22
58.768417
32
111.709473
13
1.945964
23
58.768417
33
111.709473
0
3DFACE
8
0
70
0
10
96.053246
20
2.931778
30
-99.337898
11
-4.173962
21
31.112976
31
-113.966423
12
-1.139208
22
62.976593
32
-106.541969
13
-1.139208
23
62.976593
33
-106.541969
0
3DFACE
8
0
70
0
10
96.053246
20
2.931778
30
-99.337898
11
-1.139208
21
62.976593
31
-106.541969
12
100.924133
22
60.744980
32
-74.172363
13
100.924133
23
60.744980
33
-74.172363
0
3DFACE
8
0
70
0
10
116.007721
20
8.377808
30
53.691605
11
126.501366
21
63.411270
31
-6.223229
12
103.412834
22
68.743744
32
79.861412
13
103.412834
23
68.743744
33
79.861412
0
3DFACE
8
0
70
0
10
116.007721
20
8.377808
30
53.691605
11
129.658417
21
-1.301788
31
-24.450413
12
126.501366
22
63.411270
32
-6.223229
13
126.501366
23
63.411270
33
-6.223229
0
3DFACE
8
0
70
0
10
129.658417
20
-1.301788
30
-24.450413
11
96.053246
21
2.931778
31
-99.337898
12
100.924133
22
60.744980
32
-74.172363
13
100.924133
23
60.744980
33
-74.172363
0
3DFACE
8
0
70
0
10
129.658417
20
-1.301788
30
-24.450413
11
100.924133
21
60.744980
31
-74.172363
12
126.501366
22
63.411270
32
-6.223229
13
126.501366
23
63.411270
33
-6.223229
0
3DFACE
8
0
70
0
10
-77.731705
20
66.687851
30
84.340851
11
23.041651
21
38.646973
31
98.858757
12
1.945964
22
58.768417
32
111.709473
13
1.945964
23
58.768417
33
111.709473
0
3DFACE
8
0
70
0
10
-77.731705
20
66.687851
30
84.340851
11
1.945964
21
58.768417
31
111.709473
12
-99.624451
22
76.098114
32
83.727051
13
-99.624451
23
76.098114
33
83.727051
0
3DFACE
8
0
70
0
10
-97.686180
20
61.241821
30
-68.688660
11
-1.139208
21
62.976593
31
-106.541969
12
-4.173962
22
31.112976
32
-113.966423
13
-4.173962
23
31.112976
33
-113.966423
0
3DFACE
8
0
70
0
10
-97.686180
20
61.241821
30
-68.688660
11
-102.113159
21
68.099350
31
-70.306717
12
-1.139208
22
62.976593
32
-106.541969
13
-1.139208
23
62.976593
33
-106.541969
0
3DFACE
8
0
70
0
10
-77.731705
20
66.687851
30
84.340851
11
-125.479652
21
72.538467
31
-1.425744
12
-110.797554
22
71.068604
32
13.589307
13
-110.797554
23
71.068604
33
13.589307
0
3DFACE
8
0
70
0
10
-77.731705
20
66.687851
30
84.340851
11
-99.624451
21
76.098114
31
83.727051
12
-125.479652
22
72.538467
32
-1.425744
13
-125.479652
23
72.538467
33
-1.425744
0
3DFACE
8
0
70
0
10
-110.797554
20
71.068604
30
13.589307
11
-125.479652
21
72.538467
31
-1.425744
12
-102.113159
22
68.099350
32
-70.306717
13
-102.113159
23
68.099350
33
-70.306717
0
3DFACE
8
0
70
0
10
-110.797554
20
71.068604
30
13.589307
11
-102.113159
21
68.099350
31
-70.306717
12
-97.686180
22
61.241821
32
-68.688660
13
-97.686180
23
61.241821
33
-68.688660
0
3DFACE
8
0
70
0
10
1.945964
20
58.768417
30
111.709473
11
52.935226
21
136.405731
31
55.425999
12
-1.823221
22
139.682312
32
62.260628
13
-1.823221
23
139.682312
33
62.260628
0
3DFACE
8
0
70
0
10
1.945964
20
58.768417
30
111.709473
11
103.412834
21
68.743744
31
79.861412
12
52.935226
22
136.405731
32
55.425999
13
52.935226
23
136.405731
33
55.425999
0
3DFACE
8
0
70
0
10
100.924133
20
60.744980
30
-74.172363
11
-1.139208
21
62.976593
31
-106.541969
12
53.064346
22
151.893738
32
-40.071373
13
53.064346
23
151.893738
33
-40.071373
0
3DFACE
8
0
70
0
10
-1.139208
20
62.976593
30
-106.541969
11
-1.857344
21
152.779846
31
-48.828026
12
53.064346
22
151.893738
32
-40.071373
13
53.064346
23
151.893738
33
-40.071373
0
3DFACE
8
0
70
0
10
103.412834
20
68.743744
30
79.861412
11
91.285049
21
106.635437
31
6.435526
12
64.902267
22
137.328583
32
37.672722
13
64.902267
23
137.328583
33
37.672722
0
3DFACE
8
0
70
0
10
103.412834
20
68.743744
30
79.861412
11
126.501366
21
63.411270
31
-6.223229
12
91.285049
22
106.635437
32
6.435526
13
91.285049
23
106.635437
33
6.435526
0
3DFACE
8
0
70
0
10
100.924133
20
60.744980
30
-74.172363
11
84.368851
21
127.624817
31
-30.485172
12
91.285049
22
106.635437
32
6.435526
13
91.285049
23
106.635437
33
6.435526
0
3DFACE
8
0
70
0
10
126.501366
20
63.411270
30
-6.223229
11
100.924133
21
60.744980
31
-74.172363
12
91.285049
22
106.635437
32
6.435526
13
91.285049
23
106.635437
33
6.435526
0
3DFACE
8
0
70
0
10
103.412834
20
68.743744
30
79.861412
11
64.902267
21
137.328583
31
37.672722
12
52.935226
22
136.405731
32
55.425999
13
52.935226
23
136.405731
33
55.425999
0
3DFACE
8
0
70
0
10
100.924133
20
60.744980
30
-74.172363
11
53.064346
21
151.893738
31
-40.071373
12
84.368851
22
127.624817
32
-30.485172
13
84.368851
23
127.624817
33
-30.485172
0
3DFACE
8
0
70
0
10
1.945964
20
58.768417
30
111.709473
11
-56.614574
21
136.405731
31
55.426003
12
-99.624451
22
76.098114
32
83.727051
13
-99.624451
23
76.098114
33
83.727051
0
3DFACE
8
0
70
0
10
1.945964
20
58.768417
30
111.709473
11
-1.823221
21
139.682312
31
62.260628
12
-56.614574
22
136.405731
32
55.426003
13
-56.614574
23
136.405731
33
55.426003
0
3DFACE
8
0
70
0
10
-102.113159
20
68.099350
30
-70.306717
11
-56.752666
21
151.893738
31
-40.071373
12
-1.139208
22
62.976593
32
-106.541969
13
-1.139208
23
62.976593
33
-106.541969
0
3DFACE
8
0
70
0
10
-1.139208
20
62.976593
30
-106.541969
11
-56.752666
21
151.893738
31
-40.071373
12
-1.857344
22
152.779846
32
-48.828026
13
-1.857344
23
152.779846
33
-48.828026
0
3DFACE
8
0
70
0
10
-99.624451
20
76.098114
30
83.727051
11
-63.653774
21
139.449799
31
21.653160
12
-85.529022
22
110.061035
32
7.662412
13
-85.529022
23
110.061035
33
7.662412
0
3DFACE
8
0
70
0
10
-99.624451
20
76.098114
30
83.727051
11
-85.529022
21
110.061035
31
7.662412
12
-125.479652
22
72.538467
32
-1.425744
13
-125.479652
23
72.538467
33
-1.425744
0
3DFACE
8
0
70
0
10
-125.479652
20
72.538467
30
-1.425744
11
-85.529022
21
110.061035
31
7.662412
12
-102.113159
22
68.099350
32
-70.306717
13
-102.113159
23
68.099350
33
-70.306717
0
3DFACE
8
0
70
0
10
-102.113159
20
68.099350
30
-70.306717
11
-85.529022
21
110.061035
31
7.662412
12
-88.368828
22
127.191193
32
-19.910240
13
-88.368828
23
127.191193
33
-19.910240
0
3DFACE
8
0
70
0
10
-99.624451
20
76.098114
30
83.727051
11
-56.614574
21
136.405731
31
55.426003
12
-63.653774
22
139.449799
32
21.653160
13
-63.653774
23
139.449799
33
21.653160
0
3DFACE
8
0
70
0
10
-102.113159
20
68.099350
30
-70.306717
11
-88.368828
21
127.191193
31
-19.910240
12
-56.752666
22
151.893738
32
-40.071373
13
-56.752666
23
151.893738
33
-40.071373
0
3DFACE
8
0
70
0
10
91.285049
20
106.635437
30
6.435526
11
82.363800
21
111.846588
31
84.612694
12
64.902267
22
137.328583
32
37.672722
13
64.902267
23
137.328583
33
37.672722
0
3DFACE
8
0
70
0
10
107.853943
20
74.407440
30
76.103577
11
82.363800
21
111.846588
31
84.612694
12
91.285049
22
106.635437
32
6.435526
13
91.285049
23
106.635437
33
6.435526
0
3DFACE
8
0
70
0
10
64.902267
20
137.328583
30
37.672722
11
130.733521
21
126.452271
31
80.190613
12
62.168655
22
158.462280
32
-4.389199
13
62.168655
23
158.462280
33
-4.389199
0
3DFACE
8
0
70
0
10
64.902267
20
137.328583
30
37.672722
11
82.363800
21
111.846588
31
84.612694
12
130.733521
22
126.452271
32
80.190613
13
130.733521
23
126.452271
33
80.190613
0
3DFACE
8
0
70
0
10
84.368851
20
127.624817
30
-30.485172
11
62.168655
21
158.462280
31
-4.389199
12
130.733521
22
126.452271
32
80.190613
13
130.733521
23
126.452271
33
80.190613
0
3DFACE
8
0
70
0
10
84.368851
20
127.624817
30
-30.485172
11
130.733521
21
126.452271
31
80.190613
12
148.432373
22
89.043243
32
72.719971
13
148.432373
23
89.043243
33
72.719971
0
3DFACE
8
0
70
0
10
91.285049
20
106.635437
30
6.435526
11
84.368851
21
127.624817
31
-30.485172
12
148.432373
22
89.043243
32
72.719971
13
148.432373
23
89.043243
33
72.719971
0
3DFACE
8
0
70
0
10
107.853943
20
74.407440
30
76.103577
11
91.285049
21
106.635437
31
6.435526
12
148.432373
22
89.043243
32
72.719971
13
148.432373
23
89.043243
33
72.719971
0
3DFACE
8
0
70
0
10
-85.529022
20
110.061035
30
7.662412
11
-63.653774
21
139.449799
31
21.653160
12
-4.156706
22
137.533936
32
57.804489
13
-4.156706
23
137.533936
33
57.804489
0
3DFACE
8
0
70
0
10
-20.637915
20
103.995087
30
79.520081
11
-85.529022
21
110.061035
31
7.662412
12
-4.156706
22
137.533936
32
57.804489
13
-4.156706
23
137.533936
33
57.804489
0
3DFACE
8
0
70
0
10
-63.653774
20
139.449799
30
21.653160
11
-69.399567
21
156.808350
31
-4.709726
12
-37.620422
22
158.118286
32
84.937363
13
-37.620422
23
158.118286
33
84.937363
0
3DFACE
8
0
70
0
10
-63.653774
20
139.449799
30
21.653160
11
-37.620422
21
158.118286
31
84.937363
12
-4.156706
22
137.533936
32
57.804489
13
-4.156706
23
137.533936
33
57.804489
0
3DFACE
8
0
70
0
10
-88.368828
20
127.191193
30
-19.910240
11
-37.620422
21
158.118286
31
84.937363
12
-69.399567
22
156.808350
32
-4.709726
13
-69.399567
23
156.808350
33
-4.709726
0
3DFACE
8
0
70
0
10
-88.368828
20
127.191193
30
-19.910240
11
-48.772285
21
123.606964
31
101.890907
12
-37.620422
22
158.118286
32
84.937363
13
-37.620422
23
158.118286
33
84.937363
0
3DFACE
8
0
70
0
10
-85.529022
20
110.061035
30
7.662412
11
-48.772285
21
123.606964
31
101.890907
12
-88.368828
22
127.191193
32
-19.910240
13
-88.368828
23
127.191193
33
-19.910240
0
3DFACE
8
0
70
0
10
-20.637915
20
103.995087
30
79.520081
11
-48.772285
21
123.606964
31
101.890907
12
-85.529022
22
110.061035
32
7.662412
13
-85.529022
23
110.061035
33
7.662412
0
3DFACE
8
0
70
0
10
-2.563889
20
103.094849
30
125.105049
11
-20.637915
21
103.995087
31
79.520081
12
-4.156706
22
137.533936
32
57.804489
13
-4.156706
23
137.533936
33
57.804489
0
3DFACE
8
0
70
0
10
-2.563889
20
103.094849
30
125.105049
11
-4.156706
21
137.533936
31
57.804489
12
18.515377
22
140.171021
32
101.793274
13
18.515377
23
140.171021
33
101.793274
0
3DFACE
8
0
70
0
10
18.515377
20
140.171021
30
101.793274
11
-4.156706
21
137.533936
31
57.804489
12
-37.620422
22
158.118286
32
84.937363
13
-37.620422
23
158.118286
33
84.937363
0
3DFACE
8
0
70
0
10
18.515377
20
140.171021
30
101.793274
11
-37.620422
21
158.118286
31
84.937363
12
-18.261509
22
158.570190
32
135.441971
13
-18.261509
23
158.570190
33
135.441971
0
3DFACE
8
0
70
0
10
-33.394814
20
121.317657
30
153.076996
11
-18.261509
21
158.570190
31
135.441971
12
-37.620422
22
158.118286
32
84.937363
13
-37.620422
23
158.118286
33
84.937363
0
3DFACE
8
0
70
0
10
-33.394814
20
121.317657
30
153.076996
11
-37.620422
21
158.118286
31
84.937363
12
-48.772285
22
123.606964
32
101.890907
13
-48.772285
23
123.606964
33
101.890907
0
3DFACE
8
0
70
0
10
-2.563889
20
103.094849
30
125.105049
11
-33.394814
21
121.317657
31
153.076996
12
-48.772285
22
123.606964
32
101.890907
13
-48.772285
23
123.606964
33
101.890907
0
3DFACE
8
0
70
0
10
-2.563889
20
103.094849
30
125.105049
11
-48.772285
21
123.606964
31
101.890907
12
-20.637915
22
103.995087
32
79.520081
13
-20.637915
23
103.995087
33
79.520081
0
3DFACE
8
0
70
0
10
118.288200
20
63.810547
30
121.461075
11
82.363800
21
111.846588
31
84.612694
12
107.853943
22
74.407440
32
76.103577
13
107.853943
23
74.407440
33
76.103577
0
3DFACE
8
0
70
0
10
118.288200
20
63.810547
30
121.461075
11
91.489929
21
104.357361
31
120.986832
12
82.363800
22
111.846588
32
84.612694
13
82.363800
23
111.846588
33
84.612694
0
3DFACE
8
0
70
0
10
91.489929
20
104.357361
30
120.986832
11
130.733521
21
126.452271
31
80.190613
12
82.363800
22
111.846588
32
84.612694
13
82.363800
23
111.846588
33
84.612694
0
3DFACE
8
0
70
0
10
91.489929
20
104.357361
30
120.986832
11
142.247910
21
116.381836
31
131.103210
12
130.733521
22
126.452271
32
80.190613
13
130.733521
23
126.452271
33
80.190613
0
3DFACE
8
0
70
0
10
160.974625
20
76.678574
30
130.254745
11
148.432373
21
89.043243
31
72.719971
12
130.733521
22
126.452271
32
80.190613
13
130.733521
23
126.452271
33
80.190613
0
3DFACE
8
0
70
0
10
160.974625
20
76.678574
30
130.254745
11
130.733521
21
126.452271
31
80.190613
12
142.247910
22
116.381836
32
131.103210
13
142.247910
23
116.381836
33
131.103210
0
3DFACE
8
0
70
0
10
118.288200
20
63.810547
30
121.461075
11
107.853943
21
74.407440
31
76.103577
12
148.432373
22
89.043243
32
72.719971
13
148.432373
23
89.043243
33
72.719971
0
3DFACE
8
0
70
0
10
118.288200
20
63.810547
30
121.461075
11
148.432373
21
89.043243
31
72.719971
12
160.974625
22
76.678574
32
130.254745
13
160.974625
23
76.678574
33
130.254745
0
3DFACE
8
0
70
0
10
24.139545
20
333.270691
30
-14.686816
11
28.611198
21
331.087860
31
-15.606826
12
28.663029
22
307.116394
32
9.497261
13
12.692842
23
310.512054
33
15.108288
0
3DFACE
8
0
70
0
10
33.082851
20
333.270691
30
-14.686815
11
44.633217
21
310.512054
31
15.108290
12
28.663029
22
307.116394
32
9.497261
13
28.611198
23
331.087860
33
-15.606826
0
3DFACE
8
0
70
0
10
36.083797
20
336.510773
30
-13.321230
11
55.350883
21
315.552490
31
23.437061
12
44.633217
22
310.512054
32
15.108290
13
33.082851
23
333.270691
33
-14.686815
0
3DFACE
8
0
70
0
10
35.397137
20
339.825378
30
-11.924225
11
52.898521
21
320.708801
31
31.957346
12
55.350883
22
315.552490
32
23.437061
13
36.083797
23
336.510773
33
-13.321230
0
3DFACE
8
0
70
0
10
34.647121
20
343.934509
30
-10.192348
11
50.219898
21
327.101105
31
42.519997
12
52.898521
22
320.708801
32
31.957346
13
35.397137
23
339.825378
33
-11.924225
0
3DFACE
8
0
70
0
10
31.306623
20
345.929535
30
-9.351486
11
38.289539
21
330.204681
31
47.648327
12
50.219898
22
327.101105
32
42.519997
13
34.647121
23
343.934509
33
-10.192348
0
3DFACE
8
0
70
0
10
28.611200
20
347.093842
30
-8.860758
11
28.663033
21
332.015900
31
50.641212
12
38.289539
22
330.204681
32
47.648327
13
31.306623
23
345.929535
33
-9.351486
0
3DFACE
8
0
70
0
10
28.611200
20
347.093842
30
-8.860758
11
25.915779
21
345.929535
31
-9.351487
12
19.036524
22
330.204681
32
47.648327
13
28.663033
23
332.015900
33
50.641212
0
3DFACE
8
0
70
0
10
25.915779
20
345.929535
30
-9.351487
11
22.575277
21
343.934509
31
-10.192350
12
7.106166
22
327.101135
32
42.519993
13
19.036524
23
330.204681
33
47.648327
0
3DFACE
8
0
70
0
10
22.575277
20
343.934509
30
-10.192350
11
21.825262
21
339.825378
31
-11.924227
12
4.427538
22
320.708801
32
31.957342
13
7.106166
23
327.101135
33
42.519993
0
3DFACE
8
0
70
0
10
21.825262
20
339.825378
30
-11.924227
11
21.138601
21
336.510773
31
-13.321232
12
1.975181
22
315.552490
32
23.437057
13
4.427538
23
320.708801
33
31.957342
0
3DFACE
8
0
70
0
10
21.138601
20
336.510773
30
-13.321232
11
24.139545
21
333.270691
31
-14.686816
12
12.692842
22
310.512054
32
15.108288
13
1.975181
23
315.552490
33
23.437057
0
ENDSEC
0
EOF
