0
SECTION
2
HEADER
999
DXF File Generated by LightWave 3D(TM)
0
ENDSEC
0
SECTION
2
TABLES
0
ENDSEC
0
SECTION
2
BLOCKS
0
ENDSEC
0
SECTION
2
ENTITIES
0
3DFACE
8
0
70
0
10
-1.757163
20
-26.203751
30
85.113449
11
10.951361
21
-33.870117
31
54.097485
12
54.629871
22
-33.216469
32
41.640221
13
62.015652
23
-26.648674
33
60.203876
0
3DFACE
8
0
70
0
10
62.015656
20
-33.409805
30
-64.448837
11
71.640297
21
-49.046112
31
-39.511524
12
37.121250
22
-58.223427
32
-70.751358
13
-1.757159
23
-35.753204
33
-90.946747
0
3DFACE
8
0
70
0
10
-1.757163
20
-32.081024
30
106.343376
11
-1.757163
21
-26.203751
31
85.113449
12
62.015652
22
-26.648674
32
60.203876
13
82.563828
23
-32.779404
33
75.631035
0
3DFACE
8
0
70
0
10
82.563828
20
-41.335823
30
-82.120895
11
62.015656
21
-33.409805
31
-64.448837
12
-1.757159
22
-35.753204
32
-90.946747
13
-1.757159
23
-43.974457
33
-112.931808
0
3DFACE
8
0
70
0
10
-1.757163
20
-27.733078
30
119.119690
11
87.676697
21
-28.680298
31
84.406723
12
101.605583
22
26.375031
32
87.204086
13
-1.757164
23
28.305023
33
121.966995
0
3DFACE
8
0
70
0
10
87.676704
20
-38.349060
30
-93.852959
11
-1.757158
21
-41.172653
31
-128.661270
12
-1.757566
22
14.871628
32
-125.812523
13
101.605591
23
16.706268
33
-91.055588
0
3DFACE
8
0
70
0
10
-1.757164
20
28.305023
30
121.966995
11
101.605583
21
26.375031
31
87.204086
12
95.725784
22
27.106766
32
78.673859
13
-1.757164
23
28.830383
33
109.438293
0
3DFACE
8
0
70
0
10
-1.757163
20
-27.733078
30
119.119690
11
-1.757163
21
-32.081024
31
106.343376
12
82.563828
22
-32.779404
32
75.631035
13
87.676697
23
-28.680298
33
84.406723
0
3DFACE
8
0
70
0
10
101.605591
20
16.706268
30
-91.055588
11
-1.757566
21
14.871628
31
-125.812523
12
-1.783790
22
17.163391
32
-109.782501
13
95.725792
23
18.550354
33
-79.078072
0
3DFACE
8
0
70
0
10
87.676704
20
-38.349060
30
-93.852959
11
82.563828
21
-41.335823
31
-82.120895
12
-1.757159
22
-43.974457
32
-112.931808
13
-1.757158
23
-41.172653
33
-128.661270
0
3DFACE
8
0
70
0
10
27.673773
20
-119.444244
30
102.617195
11
74.813721
21
-119.444244
31
102.617195
12
66.977409
22
-98.812729
32
87.801697
13
33.987896
23
-98.998032
33
87.801697
0
3DFACE
8
0
70
0
10
62.015652
20
-26.648674
30
60.203876
11
54.629871
21
-33.216469
31
41.640221
12
72.919144
22
-43.532806
32
5.106562
13
77.318726
23
-29.955231
33
-0.758141
0
3DFACE
8
0
70
0
10
82.563828
20
-32.779404
30
75.631035
11
62.015652
21
-26.648674
31
60.203876
12
77.318726
22
-29.955231
32
-0.758141
13
103.003952
23
-36.941986
33
-1.113140
0
3DFACE
8
0
70
0
10
101.605583
20
26.375031
30
87.204086
11
87.676697
21
-28.680298
31
84.406723
12
109.395035
22
-33.308861
32
-0.928540
13
126.581680
23
21.746475
33
1.868828
0
3DFACE
8
0
70
0
10
126.581680
20
21.746475
30
1.868828
11
119.231941
21
22.944183
31
1.929684
12
95.725784
22
27.106766
32
78.673859
13
101.605583
23
26.375031
33
87.204086
0
3DFACE
8
0
70
0
10
87.676697
20
-28.680298
30
84.406723
11
82.563828
21
-32.779404
31
75.631035
12
103.003952
22
-36.941986
32
-1.113140
13
109.395035
23
-33.308861
33
-0.928540
0
3DFACE
8
0
70
0
10
12.906889
20
-152.844193
30
102.617195
11
80.090286
21
-153.029510
31
102.617195
12
74.813721
22
-119.444244
32
102.617195
13
27.673773
23
-119.444244
33
102.617195
0
3DFACE
8
0
70
0
10
-1.814298
20
169.682526
30
6.283484
11
57.946964
21
148.291656
31
3.316956
12
51.681934
22
144.219849
32
-35.670307
13
-1.820645
23
146.970581
33
-45.562836
0
3DFACE
8
0
70
0
10
77.318726
20
-29.955231
30
-0.758141
11
72.919144
21
-43.532806
31
5.106562
12
71.640297
22
-49.046112
32
-39.511524
13
62.015656
23
-33.409805
33
-64.448837
0
3DFACE
8
0
70
0
10
103.003952
20
-36.941986
30
-1.113140
11
77.318726
21
-29.955231
31
-0.758141
12
62.015656
22
-33.409805
32
-64.448837
13
82.563828
23
-41.335823
33
-82.120895
0
3DFACE
8
0
70
0
10
109.395035
20
-33.308861
30
-0.928540
11
87.676704
21
-38.349060
31
-93.852959
12
101.605591
22
16.706268
32
-91.055588
13
126.581680
23
21.746475
33
1.868828
0
3DFACE
8
0
70
0
10
101.605591
20
16.706268
30
-91.055588
11
95.725792
21
18.550354
31
-79.078072
12
119.231941
22
22.944183
32
1.929684
13
126.581680
23
21.746475
33
1.868828
0
3DFACE
8
0
70
0
10
109.395035
20
-33.308861
30
-0.928540
11
103.003952
21
-36.941986
31
-1.113140
12
82.563828
22
-41.335823
32
-82.120895
13
87.676704
23
-38.349060
33
-93.852959
0
3DFACE
8
0
70
0
10
17.424665
20
-55.113556
30
18.043736
11
10.951361
21
-33.870117
31
54.097485
12
16.593727
22
-50.614014
32
-8.422449
13
17.015068
23
-62.307487
33
-10.204374
0
3DFACE
8
0
70
0
10
17.424665
20
-55.113556
30
18.043736
11
58.650230
21
-51.127945
31
20.472761
12
54.629871
22
-33.216469
32
41.640221
13
10.951361
23
-33.870117
33
54.097485
0
3DFACE
8
0
70
0
10
58.650230
20
-51.127945
30
20.472761
11
72.858131
21
-53.455978
31
6.706889
12
72.919144
22
-43.532806
32
5.106562
13
54.629871
23
-33.216469
33
41.640221
0
3DFACE
8
0
70
0
10
17.015068
20
-62.307487
30
-10.204374
11
16.593727
21
-50.614014
31
-8.422449
12
37.121250
22
-58.223427
32
-70.751358
13
31.490980
23
-67.449203
33
-35.156685
0
3DFACE
8
0
70
0
10
72.858131
20
-53.455978
30
6.706889
11
67.793335
21
-59.146118
31
-14.107515
12
71.640297
22
-49.046112
32
-39.511524
13
72.919144
23
-43.532806
33
5.106562
0
3DFACE
8
0
70
0
10
67.793335
20
-59.146118
30
-14.107515
11
31.490980
21
-67.449203
31
-35.156685
12
37.121250
22
-58.223427
32
-70.751358
13
71.640297
23
-49.046112
33
-39.511524
0
3DFACE
8
0
70
0
10
27.050720
20
-127.463249
30
-11.338812
11
27.673773
21
-127.827744
31
43.725594
12
33.987896
22
-108.736435
32
35.947453
13
26.650753
23
-99.888336
33
18.237461
0
3DFACE
8
0
70
0
10
26.650753
20
-99.888336
30
18.237461
11
33.987896
21
-108.736435
31
35.947453
12
66.977409
22
-112.334427
32
35.947453
13
61.275032
23
-102.451042
33
15.984209
0
3DFACE
8
0
70
0
10
74.010643
20
-122.872536
30
-0.211017
11
61.275032
21
-102.451042
31
15.984209
12
66.977409
22
-112.334427
32
35.947453
13
74.813721
23
-127.827744
33
43.725594
0
3DFACE
8
0
70
0
10
18.895451
20
-157.561691
30
-44.816471
11
16.610764
21
-150.617310
31
32.613968
12
27.673773
22
-127.827744
32
43.725594
13
27.050720
23
-127.463249
33
-11.338812
0
3DFACE
8
0
70
0
10
87.706421
20
-149.657394
30
-26.510845
11
74.010643
21
-122.872536
31
-0.211017
12
74.813721
22
-127.827744
32
43.725594
13
83.794151
23
-150.723206
33
36.317848
0
3DFACE
8
0
70
0
10
87.706421
20
-149.657394
30
-26.510845
11
83.794151
21
-150.723206
31
36.317848
12
16.610764
22
-150.617310
32
32.613968
13
18.895451
23
-157.561691
33
-44.816471
0
3DFACE
8
0
70
0
10
27.673773
20
-119.444244
30
102.617195
11
33.987896
21
-98.998032
31
87.801697
12
33.987896
22
-108.736435
32
35.947453
13
27.673773
23
-127.827744
33
43.725594
0
3DFACE
8
0
70
0
10
33.987896
20
-98.998032
30
87.801697
11
66.977409
21
-98.812729
31
87.801697
12
66.977409
22
-112.334427
32
35.947453
13
33.987896
23
-108.736435
33
35.947453
0
3DFACE
8
0
70
0
10
74.813721
20
-119.444244
30
102.617195
11
74.813721
21
-127.827744
31
43.725594
12
66.977409
22
-112.334427
32
35.947453
13
66.977409
23
-98.812729
33
87.801697
0
3DFACE
8
0
70
0
10
12.906889
20
-152.844193
30
102.617195
11
27.673773
21
-119.444244
31
102.617195
12
27.673773
22
-127.827744
32
43.725594
13
16.610764
23
-150.617310
33
32.613968
0
3DFACE
8
0
70
0
10
80.090286
20
-153.029510
30
102.617195
11
83.794151
21
-150.723206
31
36.317848
12
74.813721
22
-127.827744
32
43.725594
13
74.813721
23
-119.444244
33
102.617195
0
3DFACE
8
0
70
0
10
80.090286
20
-153.029510
30
102.617195
11
12.906889
21
-152.844193
31
102.617195
12
16.610764
22
-150.617310
32
32.613968
13
83.794151
23
-150.723206
33
36.317848
0
3DFACE
8
0
70
0
10
212.671310
20
24.023453
30
178.330795
11
229.100861
21
39.563171
31
172.340256
12
217.401413
22
42.346786
32
190.531708
13
198.244843
23
33.060791
33
187.517105
0
3DFACE
8
0
70
0
10
79.600594
20
131.066772
30
-31.498581
11
51.681934
21
144.219849
31
-35.670307
12
57.946964
22
148.291656
32
3.316956
13
57.946964
23
148.291656
33
3.316956
0
3DFACE
8
0
70
0
10
81.216515
20
117.057190
30
39.428734
11
57.946964
21
148.291656
31
3.316956
12
51.441730
22
127.858093
32
61.715469
13
51.441730
23
127.858093
33
61.715469
0
3DFACE
8
0
70
0
10
153.718582
20
117.999084
30
53.039085
11
201.791885
21
115.672943
31
46.259472
12
205.741394
22
90.706741
32
72.174278
13
157.142975
23
94.859024
33
80.561211
0
3DFACE
8
0
70
0
10
177.896210
20
155.188354
30
82.291519
11
153.718582
21
117.999084
31
53.039085
12
157.142975
22
94.859024
32
80.561211
13
179.776398
23
132.975342
33
110.757187
0
3DFACE
8
0
70
0
10
222.331467
20
124.577698
30
99.358681
11
220.049973
21
148.238770
31
72.166115
12
177.896210
22
155.188354
32
82.291519
13
179.776398
23
132.975342
33
110.757187
0
3DFACE
8
0
70
0
10
201.791885
20
115.672943
30
46.259472
11
220.049973
21
148.238770
31
72.166115
12
222.331467
22
124.577698
32
99.358681
13
205.741394
23
90.706741
33
72.174278
0
3DFACE
8
0
70
0
10
211.447678
20
83.339417
30
65.331497
11
215.610703
21
59.229584
31
89.186073
12
149.642731
22
69.042480
32
102.944023
13
146.297211
23
90.205811
33
77.681747
0
3DFACE
8
0
70
0
10
146.297211
20
90.205811
30
77.681747
11
149.642731
21
69.042480
31
102.944023
12
176.501770
22
122.498474
32
144.735947
13
175.116119
23
141.983246
33
118.892433
0
3DFACE
8
0
70
0
10
234.308243
20
107.640472
30
127.357796
11
232.346024
21
129.434448
31
102.494408
12
175.116119
22
141.983246
32
118.892433
13
176.501770
23
122.498474
33
144.735947
0
3DFACE
8
0
70
0
10
211.447678
20
83.339417
30
65.331497
11
232.346024
21
129.434448
31
102.494408
12
234.308243
22
107.640472
32
127.357796
13
215.610703
23
59.229584
33
89.186073
0
3DFACE
8
0
70
0
10
211.447678
20
83.339417
30
65.331497
11
146.297211
21
90.205811
31
77.681747
12
157.142975
22
94.859024
32
80.561211
13
205.741394
23
90.706741
33
72.174278
0
3DFACE
8
0
70
0
10
215.610703
20
59.229584
30
89.186073
11
209.461090
21
67.193436
31
96.581032
12
160.282959
22
73.640900
32
105.797333
13
149.642731
23
69.042480
33
102.944023
0
3DFACE
8
0
70
0
10
146.297211
20
90.205811
30
77.681747
11
175.116119
21
141.983246
31
118.892433
12
179.776398
22
132.975342
32
110.757187
13
157.142975
23
94.859024
33
80.561211
0
3DFACE
8
0
70
0
10
149.642731
20
69.042480
30
102.944023
11
160.282959
21
73.640900
31
105.797333
12
181.459244
22
113.094666
32
136.233948
13
176.501770
23
122.498474
33
144.735947
0
3DFACE
8
0
70
0
10
234.308243
20
107.640472
30
127.357796
11
176.501770
21
122.498474
31
144.735947
12
181.459244
22
113.094666
32
136.233948
13
224.423492
23
102.881805
33
124.292618
0
3DFACE
8
0
70
0
10
232.346024
20
129.434448
30
102.494408
11
222.331467
21
124.577698
31
99.358681
12
179.776398
22
132.975342
32
110.757187
13
175.116119
23
141.983246
33
118.892433
0
3DFACE
8
0
70
0
10
215.610703
20
59.229584
30
89.186073
11
234.308243
21
107.640472
31
127.357796
12
224.423492
22
102.881805
32
124.292618
13
209.461090
23
67.193436
33
96.581032
0
3DFACE
8
0
70
0
10
211.447678
20
83.339417
30
65.331497
11
205.741394
21
90.706741
31
72.174278
12
222.331467
22
124.577698
32
99.358681
13
232.346024
23
129.434448
33
102.494408
0
3DFACE
8
0
70
0
10
195.982452
20
81.631485
30
95.884514
11
173.082214
21
97.817291
31
112.834038
12
160.282959
22
73.640900
32
105.797333
13
209.461090
23
67.193436
33
96.581032
0
3DFACE
8
0
70
0
10
173.082214
20
97.817291
30
112.834038
11
203.265396
21
114.522980
31
120.041061
12
181.459244
22
113.094666
32
136.233948
13
160.282959
23
73.640900
33
105.797333
0
3DFACE
8
0
70
0
10
221.016907
20
97.846085
30
103.537552
11
224.423492
21
102.881805
31
124.292618
12
181.459244
22
113.094666
32
136.233948
13
203.265396
23
114.522980
33
120.041061
0
3DFACE
8
0
70
0
10
195.982452
20
81.631485
30
95.884514
11
209.461090
21
67.193436
31
96.581032
12
224.423492
22
102.881805
32
124.292618
13
221.016907
23
97.846085
33
103.537552
0
3DFACE
8
0
70
0
10
155.177094
20
57.401764
30
146.914230
11
156.056091
21
66.209488
31
153.417465
12
154.279358
22
74.749451
32
143.832977
13
153.286346
23
65.955521
33
137.335754
0
3DFACE
8
0
70
0
10
156.056091
20
66.209488
30
153.417465
11
157.750351
21
75.293304
31
160.043457
12
155.854172
22
83.820923
32
150.496414
13
154.279358
23
74.749451
33
143.832977
0
3DFACE
8
0
70
0
10
238.572708
20
76.678986
30
126.120506
11
221.016907
21
97.846085
31
103.537552
12
203.265396
22
114.522980
32
120.041061
13
211.933701
23
93.380936
33
144.310394
0
3DFACE
8
0
70
0
10
203.555557
20
60.423996
30
120.445740
11
195.982452
21
81.631485
31
95.884514
12
221.016907
22
97.846085
32
103.537552
13
238.572708
23
76.678986
33
126.120506
0
3DFACE
8
0
70
0
10
212.671310
20
24.023453
30
178.330795
11
198.244843
21
33.060791
31
187.517105
12
179.114960
22
67.998108
32
149.908646
13
203.555557
23
60.423996
33
120.445740
0
3DFACE
8
0
70
0
10
198.244843
20
33.060791
30
187.517105
11
217.401413
21
42.346786
31
190.531708
12
211.933701
22
93.380936
32
144.310394
13
179.114960
23
67.998108
33
149.908646
0
3DFACE
8
0
70
0
10
229.100861
20
39.563171
30
172.340256
11
238.572708
21
76.678986
31
126.120506
12
211.933701
22
93.380936
32
144.310394
13
217.401413
23
42.346786
33
190.531708
0
3DFACE
8
0
70
0
10
212.671310
20
24.023453
30
178.330795
11
203.555557
21
60.423996
31
120.445740
12
238.572708
22
76.678986
32
126.120506
13
229.100861
23
39.563171
33
172.340256
0
3DFACE
8
0
70
0
10
155.177094
20
57.401764
30
146.914230
11
153.286346
21
65.955521
31
137.335754
12
195.982452
22
81.631485
32
95.884514
13
203.555557
23
60.423996
33
120.445740
0
3DFACE
8
0
70
0
10
153.286346
20
65.955521
30
137.335754
11
154.279358
21
74.749451
31
143.832977
12
173.082214
22
97.817291
32
112.834038
13
195.982452
23
81.631485
33
95.884514
0
3DFACE
8
0
70
0
10
155.177094
20
57.401764
30
146.914230
11
203.555557
21
60.423996
31
120.445740
12
179.114960
22
67.998108
32
149.908646
13
156.056091
23
66.209488
33
153.417465
0
3DFACE
8
0
70
0
10
154.279358
20
74.749451
30
143.832977
11
155.854172
21
83.820923
31
150.496414
12
203.265396
22
114.522980
32
120.041061
13
173.082214
23
97.817291
33
112.834038
0
3DFACE
8
0
70
0
10
157.750351
20
75.293304
30
160.043457
11
211.933701
21
93.380936
31
144.310394
12
203.265396
22
114.522980
32
120.041061
13
155.854172
23
83.820923
33
150.496414
0
3DFACE
8
0
70
0
10
156.056091
20
66.209488
30
153.417465
11
179.114960
21
67.998108
31
149.908646
12
211.933701
22
93.380936
32
144.310394
13
157.750351
23
75.293304
33
160.043457
0
3DFACE
8
0
70
0
10
-1.757163
20
-26.203751
30
85.113449
11
-65.529968
21
-26.648666
31
60.203880
12
-84.616760
22
-36.116013
32
31.649246
13
-51.246716
23
-31.480461
33
64.520523
0
3DFACE
8
0
70
0
10
-65.529968
20
-33.409798
30
-64.448837
11
-1.757159
21
-35.753204
31
-90.946747
12
-21.278946
22
-54.461815
32
-58.690189
13
-65.137711
23
-51.053886
33
-48.437717
0
3DFACE
8
0
70
0
10
-1.757163
20
-32.081024
30
106.343376
11
-86.078156
21
-32.779404
31
75.631042
12
-65.529968
22
-26.648666
32
60.203880
13
-1.757163
23
-26.203751
33
85.113449
0
3DFACE
8
0
70
0
10
-86.078148
20
-41.335815
30
-82.120888
11
-1.757159
21
-43.974457
31
-112.931808
12
-1.757159
22
-35.753204
32
-90.946747
13
-65.529968
23
-33.409798
33
-64.448837
0
3DFACE
8
0
70
0
10
-1.757163
20
-27.733078
30
119.119690
11
-1.757164
21
28.305023
31
121.966995
12
-105.119919
22
26.375031
32
87.204094
13
-91.191017
23
-28.680298
33
84.406723
0
3DFACE
8
0
70
0
10
-91.191017
20
-38.349052
30
-93.852951
11
-105.119911
21
16.706284
31
-91.055580
12
-1.757566
22
14.871628
32
-125.812523
13
-1.757158
23
-41.172653
33
-128.661270
0
3DFACE
8
0
70
0
10
-1.757164
20
28.305023
30
121.966995
11
-1.757164
21
28.830383
31
109.438293
12
-99.240120
22
27.106766
32
78.673866
13
-105.119919
23
26.375031
33
87.204094
0
3DFACE
8
0
70
0
10
-1.757163
20
-27.733078
30
119.119690
11
-91.191017
21
-28.680298
31
84.406723
12
-86.078156
22
-32.779404
32
75.631042
13
-1.757163
23
-32.081024
33
106.343376
0
3DFACE
8
0
70
0
10
-105.119911
20
16.706284
30
-91.055580
11
-99.240112
21
18.550354
31
-79.078064
12
-1.783790
22
17.163391
32
-109.782501
13
-1.757566
23
14.871628
33
-125.812523
0
3DFACE
8
0
70
0
10
-91.191017
20
-38.349052
30
-93.852951
11
-1.757158
21
-41.172653
31
-128.661270
12
-1.757159
22
-43.974457
32
-112.931808
13
-86.078148
23
-41.335815
33
-82.120888
0
3DFACE
8
0
70
0
10
-31.473774
20
-119.444244
30
102.617195
11
-37.787899
21
-98.998032
31
87.801697
12
-70.777412
22
-98.812729
32
87.801697
13
-78.613716
23
-119.444244
33
102.617195
0
3DFACE
8
0
70
0
10
-65.529968
20
-26.648666
30
60.203880
11
-80.833046
21
-29.955231
31
-0.758139
12
-85.078720
22
-47.429848
32
-9.734318
13
-84.616760
23
-36.116013
33
31.649246
0
3DFACE
8
0
70
0
10
-86.078156
20
-32.779404
30
75.631042
11
-106.518280
21
-36.941986
31
-1.113135
12
-80.833046
22
-29.955231
32
-0.758139
13
-65.529968
23
-26.648666
33
60.203880
0
3DFACE
8
0
70
0
10
-105.119919
20
26.375031
30
87.204094
11
-130.096008
21
21.746475
31
1.868833
12
-112.909348
22
-33.308861
32
-0.928536
13
-91.191017
23
-28.680298
33
84.406723
0
3DFACE
8
0
70
0
10
-130.096008
20
21.746475
30
1.868833
11
-105.119919
21
26.375031
31
87.204094
12
-99.240120
22
27.106766
32
78.673866
13
-122.746246
23
22.944183
33
1.929689
0
3DFACE
8
0
70
0
10
-91.191017
20
-28.680298
30
84.406723
11
-112.909348
21
-33.308861
31
-0.928536
12
-106.518280
22
-36.941986
32
-1.113135
13
-86.078156
23
-32.779404
33
75.631042
0
3DFACE
8
0
70
0
10
-16.706890
20
-152.844193
30
102.617195
11
-31.473774
21
-119.444244
31
102.617195
12
-78.613716
22
-119.444244
32
102.617195
13
-83.890282
23
-153.029510
33
102.617195
0
3DFACE
8
0
70
0
10
-1.814298
20
169.682526
30
6.283484
11
-1.820645
21
146.970581
31
-45.562836
12
-55.274170
22
144.219849
32
-35.670303
13
-63.299820
23
153.185059
33
2.636666
0
3DFACE
8
0
70
0
10
-80.833046
20
-29.955231
30
-0.758139
11
-65.529968
21
-33.409798
31
-64.448837
12
-65.137711
22
-51.053886
32
-48.437717
13
-85.078720
23
-47.429848
33
-9.734318
0
3DFACE
8
0
70
0
10
-106.518280
20
-36.941986
30
-1.113135
11
-86.078148
21
-41.335815
31
-82.120888
12
-65.529968
22
-33.409798
32
-64.448837
13
-80.833046
23
-29.955231
33
-0.758139
0
3DFACE
8
0
70
0
10
-112.909348
20
-33.308861
30
-0.928536
11
-130.096008
21
21.746475
31
1.868833
12
-105.119911
22
16.706284
32
-91.055580
13
-91.191017
23
-38.349052
33
-93.852951
0
3DFACE
8
0
70
0
10
-105.119911
20
16.706284
30
-91.055580
11
-130.096008
21
21.746475
31
1.868833
12
-122.746246
22
22.944183
32
1.929689
13
-99.240112
23
18.550354
33
-79.078064
0
3DFACE
8
0
70
0
10
-112.909348
20
-33.308861
30
-0.928536
11
-91.191017
21
-38.349052
31
-93.852951
12
-86.078148
22
-41.335815
32
-82.120888
13
-106.518280
23
-36.941986
33
-1.113135
0
3DFACE
8
0
70
0
10
-47.266430
20
-51.248291
30
31.507542
11
-31.705013
21
-57.051086
31
8.844712
12
-29.451082
22
-46.545593
32
6.557928
13
-51.246716
23
-31.480461
33
64.520523
0
3DFACE
8
0
70
0
10
-47.266430
20
-51.248291
30
31.507542
11
-51.246716
21
-31.480461
31
64.520523
12
-84.616760
22
-36.116013
32
31.649246
13
-82.266182
23
-54.196518
33
7.310884
0
3DFACE
8
0
70
0
10
-82.266182
20
-54.196518
30
7.310884
11
-84.616760
21
-36.116013
31
31.649246
12
-85.078720
22
-47.429848
32
-9.734318
13
-86.456932
23
-58.230087
33
-12.878283
0
3DFACE
8
0
70
0
10
-31.705013
20
-57.051086
30
8.844712
11
-30.084909
21
-63.418602
31
-20.592159
12
-21.278946
22
-54.461815
32
-58.690189
13
-29.451082
23
-46.545593
33
6.557928
0
3DFACE
8
0
70
0
10
-86.456932
20
-58.230087
30
-12.878283
11
-85.078720
21
-47.429848
31
-9.734318
12
-65.137711
22
-51.053886
32
-48.437717
13
-71.098190
23
-62.107216
33
-26.553921
0
3DFACE
8
0
70
0
10
-71.098190
20
-62.107216
30
-26.553921
11
-65.137711
21
-51.053886
31
-48.437717
12
-21.278946
22
-54.461815
32
-58.690189
13
-30.084909
23
-63.418602
33
-20.592159
0
3DFACE
8
0
70
0
10
-33.314526
20
-124.286804
30
0.417171
11
-47.342640
21
-97.628731
31
26.202164
12
-37.787899
22
-108.736435
32
35.947453
13
-31.473774
23
-127.827744
33
43.725594
0
3DFACE
8
0
70
0
10
-47.342640
20
-97.628731
30
26.202164
11
-76.541367
21
-104.709267
31
6.627674
12
-70.777412
22
-112.334427
32
35.947453
13
-37.787899
23
-108.736435
33
35.947453
0
3DFACE
8
0
70
0
10
-79.489822
20
-126.269394
30
-13.783319
11
-78.613716
21
-127.827744
31
43.725594
12
-70.777412
22
-112.334427
32
35.947453
13
-76.541367
23
-104.709267
33
6.627674
0
3DFACE
8
0
70
0
10
-9.966776
20
-152.209641
30
-24.402647
11
-33.314526
21
-124.286804
31
0.417171
12
-31.473774
22
-127.827744
32
43.725594
13
-20.410763
23
-150.617310
33
32.613968
0
3DFACE
8
0
70
0
10
-78.557442
20
-154.000290
30
-43.470371
11
-87.594154
21
-150.723206
31
36.317848
12
-78.613716
22
-127.827744
32
43.725594
13
-79.489822
23
-126.269394
33
-13.783319
0
3DFACE
8
0
70
0
10
-78.557442
20
-154.000290
30
-43.470371
11
-9.966776
21
-152.209641
31
-24.402647
12
-20.410763
22
-150.617310
32
32.613968
13
-87.594154
23
-150.723206
33
36.317848
0
3DFACE
8
0
70
0
10
-31.473774
20
-119.444244
30
102.617195
11
-31.473774
21
-127.827744
31
43.725594
12
-37.787899
22
-108.736435
32
35.947453
13
-37.787899
23
-98.998032
33
87.801697
0
3DFACE
8
0
70
0
10
-37.787899
20
-98.998032
30
87.801697
11
-37.787899
21
-108.736435
31
35.947453
12
-70.777412
22
-112.334427
32
35.947453
13
-70.777412
23
-98.812729
33
87.801697
0
3DFACE
8
0
70
0
10
-78.613716
20
-119.444244
30
102.617195
11
-70.777412
21
-98.812729
31
87.801697
12
-70.777412
22
-112.334427
32
35.947453
13
-78.613716
23
-127.827744
33
43.725594
0
3DFACE
8
0
70
0
10
-16.706890
20
-152.844193
30
102.617195
11
-20.410763
21
-150.617310
31
32.613968
12
-31.473774
22
-127.827744
32
43.725594
13
-31.473774
23
-119.444244
33
102.617195
0
3DFACE
8
0
70
0
10
-83.890282
20
-153.029510
30
102.617195
11
-78.613716
21
-119.444244
31
102.617195
12
-78.613716
22
-127.827744
32
43.725594
13
-87.594154
23
-150.723206
33
36.317848
0
3DFACE
8
0
70
0
10
-83.890282
20
-153.029510
30
102.617195
11
-87.594154
21
-150.723206
31
36.317848
12
-20.410763
22
-150.617310
32
32.613968
13
-16.706890
23
-152.844193
33
102.617195
0
3DFACE
8
0
70
0
10
-211.700974
20
163.132263
30
210.332199
11
-196.811234
21
174.733429
31
206.102097
12
-215.683151
22
182.144348
32
198.945206
13
-228.037048
23
164.960663
33
193.686203
0
3DFACE
8
0
70
0
10
-76.303802
20
120.213226
30
-25.932917
11
-63.299820
21
153.185059
31
2.636666
12
-55.274170
22
144.219849
32
-35.670303
13
-55.274170
23
144.219849
33
-35.670303
0
3DFACE
8
0
70
0
10
-82.738983
20
137.351135
30
49.749531
11
-55.017273
21
127.858093
31
61.715473
12
-63.299820
22
153.185059
32
2.636666
13
-63.299820
23
153.185059
33
2.636666
0
3DFACE
8
0
70
0
10
-150.935654
20
120.488617
30
54.538528
11
-158.638962
21
136.792419
31
85.835541
12
-181.925537
22
96.306503
32
102.206718
13
-175.761078
23
81.559631
33
69.725693
0
3DFACE
8
0
70
0
10
-201.978668
20
125.017761
30
40.488598
11
-209.741302
21
143.107727
31
70.815842
12
-158.638962
22
136.792419
32
85.835541
13
-150.935654
23
120.488617
33
54.538528
0
3DFACE
8
0
70
0
10
-225.345779
20
104.663727
30
87.843475
11
-209.741302
21
143.107727
31
70.815842
12
-201.978668
22
125.017761
32
40.488598
13
-218.811996
23
87.796631
33
56.581665
0
3DFACE
8
0
70
0
10
-175.761078
20
81.559631
30
69.725693
11
-181.925537
21
96.306503
31
102.206718
12
-225.345779
22
104.663727
32
87.843475
13
-218.811996
23
87.796631
33
56.581665
0
3DFACE
8
0
70
0
10
-177.744415
20
87.228989
30
108.018761
11
-147.833313
21
142.320862
31
85.336792
12
-155.067963
22
157.144684
32
114.062660
13
-183.201080
23
100.397278
33
139.074783
0
3DFACE
8
0
70
0
10
-147.833313
20
142.320862
30
85.336792
11
-216.162491
21
152.401062
31
64.378052
12
-223.340057
22
169.071930
32
91.211395
13
-155.067963
23
157.144684
33
114.062660
0
3DFACE
8
0
70
0
10
-241.705460
20
115.416595
30
116.670525
11
-223.340057
21
169.071930
31
91.211395
12
-216.162491
22
152.401062
32
64.378052
13
-235.886322
23
99.910995
33
87.987267
0
3DFACE
8
0
70
0
10
-177.744415
20
87.228989
30
108.018761
11
-183.201080
21
100.397278
31
139.074783
12
-241.705460
22
115.416595
32
116.670525
13
-235.886322
23
99.910995
33
87.987267
0
3DFACE
8
0
70
0
10
-177.744415
20
87.228989
30
108.018761
11
-181.925537
21
96.306503
31
102.206718
12
-158.638962
22
136.792419
32
85.835541
13
-147.833313
23
142.320862
33
85.336792
0
3DFACE
8
0
70
0
10
-183.201080
20
100.397278
30
139.074783
11
-155.067963
21
157.144684
31
114.062660
12
-165.702393
22
151.742004
32
114.533066
13
-187.731293
23
110.195190
33
132.797531
0
3DFACE
8
0
70
0
10
-147.833313
20
142.320862
30
85.336792
11
-158.638962
21
136.792419
31
85.835541
12
-209.741302
22
143.107727
32
70.815842
13
-216.162491
23
152.401062
33
64.378052
0
3DFACE
8
0
70
0
10
-155.067963
20
157.144684
30
114.062660
11
-223.340057
21
169.071930
31
91.211395
12
-216.688873
22
159.298187
32
97.958778
13
-165.702393
23
151.742004
33
114.533066
0
3DFACE
8
0
70
0
10
-241.705460
20
115.416595
30
116.670525
11
-231.336853
21
120.129822
31
116.508720
12
-216.688873
22
159.298187
32
97.958778
13
-223.340057
23
169.071930
33
91.211395
0
3DFACE
8
0
70
0
10
-235.886322
20
99.910995
30
87.987267
11
-216.162491
21
152.401062
31
64.378052
12
-209.741302
22
143.107727
32
70.815842
13
-225.345779
23
104.663727
33
87.843475
0
3DFACE
8
0
70
0
10
-183.201080
20
100.397278
30
139.074783
11
-187.731293
21
110.195190
31
132.797531
12
-231.336853
22
120.129822
32
116.508720
13
-241.705460
23
115.416595
33
116.670525
0
3DFACE
8
0
70
0
10
-177.744415
20
87.228989
30
108.018761
11
-235.886322
21
99.910995
31
87.987267
12
-225.345779
22
104.663727
32
87.843475
13
-181.925537
23
96.306503
33
102.206718
0
3DFACE
8
0
70
0
10
-195.305817
20
112.797119
30
121.129379
11
-187.731293
21
110.195190
31
132.797531
12
-165.702393
22
151.742004
32
114.533066
13
-174.322495
23
135.834106
33
112.325294
0
3DFACE
8
0
70
0
10
-174.322495
20
135.834106
30
112.325294
11
-165.702393
21
151.742004
31
114.533066
12
-216.688873
22
159.298187
32
97.958778
13
-205.216034
23
146.898499
33
100.761505
0
3DFACE
8
0
70
0
10
-221.122147
20
124.400543
30
110.039772
11
-205.216034
21
146.898499
31
100.761505
12
-216.688873
22
159.298187
32
97.958778
13
-231.336853
23
120.129822
33
116.508720
0
3DFACE
8
0
70
0
10
-195.305817
20
112.797119
30
121.129379
11
-221.122147
21
124.400543
31
110.039772
12
-231.336853
22
120.129822
32
116.508720
13
-187.731293
23
110.195190
33
132.797531
0
3DFACE
8
0
70
0
10
-154.698334
20
146.744873
30
166.871323
11
-152.975555
21
141.655273
31
155.055374
12
-153.588959
22
151.310974
32
149.866531
13
-155.197342
23
156.407532
33
161.672806
0
3DFACE
8
0
70
0
10
-155.197342
20
156.407532
30
161.672806
11
-153.588959
21
151.310974
31
149.866531
12
-154.773071
22
161.257385
32
144.496231
13
-156.501862
23
166.329926
33
156.275146
0
3DFACE
8
0
70
0
10
-238.381607
20
139.341064
30
140.392807
11
-210.845596
21
161.878296
31
133.091766
12
-205.216034
22
146.898499
32
100.761505
13
-221.122147
23
124.400543
33
110.039772
0
3DFACE
8
0
70
0
10
-203.877243
20
125.952057
30
152.754486
11
-238.381607
21
139.341064
31
140.392807
12
-221.122147
22
124.400543
32
110.039772
13
-195.305817
23
112.797119
33
121.129379
0
3DFACE
8
0
70
0
10
-211.700974
20
163.132263
30
210.332199
11
-203.877243
21
125.952057
31
152.754486
12
-178.324829
22
154.878174
32
158.510178
13
-196.811234
23
174.733429
33
206.102097
0
3DFACE
8
0
70
0
10
-196.811234
20
174.733429
30
206.102097
11
-178.324829
21
154.878174
31
158.510178
12
-210.845596
22
161.878296
32
133.091766
13
-215.683151
23
182.144348
33
198.945206
0
3DFACE
8
0
70
0
10
-228.037048
20
164.960663
30
193.686203
11
-215.683151
21
182.144348
31
198.945206
12
-210.845596
22
161.878296
32
133.091766
13
-238.381607
23
139.341064
33
140.392807
0
3DFACE
8
0
70
0
10
-211.700974
20
163.132263
30
210.332199
11
-228.037048
21
164.960663
31
193.686203
12
-238.381607
22
139.341064
32
140.392807
13
-203.877243
23
125.952057
33
152.754486
0
3DFACE
8
0
70
0
10
-154.698334
20
146.744873
30
166.871323
11
-203.877243
21
125.952057
31
152.754486
12
-195.305817
22
112.797119
32
121.129379
13
-152.975555
23
141.655273
33
155.055374
0
3DFACE
8
0
70
0
10
-152.975555
20
141.655273
30
155.055374
11
-195.305817
21
112.797119
31
121.129379
12
-174.322495
22
135.834106
32
112.325294
13
-153.588959
23
151.310974
33
149.866531
0
3DFACE
8
0
70
0
10
-154.698334
20
146.744873
30
166.871323
11
-155.197342
21
156.407532
31
161.672806
12
-178.324829
22
154.878174
32
158.510178
13
-203.877243
23
125.952057
33
152.754486
0
3DFACE
8
0
70
0
10
-153.588959
20
151.310974
30
149.866531
11
-174.322495
21
135.834106
31
112.325294
12
-205.216034
22
146.898499
32
100.761505
13
-154.773071
23
161.257385
33
144.496231
0
3DFACE
8
0
70
0
10
-156.501862
20
166.329926
30
156.275146
11
-154.773071
21
161.257385
31
144.496231
12
-205.216034
22
146.898499
32
100.761505
13
-210.845596
23
161.878296
33
133.091766
0
3DFACE
8
0
70
0
10
-155.197342
20
156.407532
30
161.672806
11
-156.501862
21
166.329926
31
156.275146
12
-210.845596
22
161.878296
32
133.091766
13
-178.324829
23
154.878174
33
158.510178
0
3DFACE
8
0
70
0
10
16.593727
20
-50.614014
30
-8.422449
11
10.951361
21
-33.870117
31
54.097485
12
-1.757163
22
-26.203751
32
85.113449
13
-1.757161
23
-30.884689
33
-1.187463
0
3DFACE
8
0
70
0
10
16.593727
20
-50.614014
30
-8.422449
11
-1.757161
21
-30.884689
31
-1.187463
12
-1.757159
22
-35.753204
32
-90.946747
13
37.121250
23
-58.223427
33
-70.751358
0
3DFACE
8
0
70
0
10
-1.757159
20
-35.753204
30
-90.946747
11
-1.757161
21
-30.884689
31
-1.187463
12
-29.451082
22
-46.545593
32
6.557928
13
-21.278946
23
-54.461815
33
-58.690189
0
3DFACE
8
0
70
0
10
-1.757161
20
-30.884689
30
-1.187463
11
-1.757163
21
-26.203751
31
85.113449
12
-51.246716
22
-31.480461
32
64.520523
13
-29.451082
23
-46.545593
33
6.557928
0
3DFACE
8
0
70
0
10
-46.139568
20
183.134644
30
112.076180
11
-34.607693
21
183.512024
31
111.808624
12
-28.000513
22
201.386322
32
119.811630
13
-48.544437
23
201.745331
33
117.072624
0
3DFACE
8
0
70
0
10
-48.544437
20
201.745331
30
117.072624
11
-28.000513
21
201.386322
31
119.811630
12
-33.755466
22
209.914490
32
115.451942
13
-46.612980
23
213.444153
33
113.059761
0
3DFACE
8
0
70
0
10
-34.607693
20
183.512024
30
111.808624
11
-28.226994
21
179.840576
31
100.703590
12
-17.758120
22
198.427429
32
105.450966
13
-28.000513
23
201.386322
33
119.811630
0
3DFACE
8
0
70
0
10
-46.139568
20
183.134644
30
112.076180
11
-41.158493
21
177.217102
31
101.131531
12
-28.226994
22
179.840576
32
100.703590
13
-34.607693
23
183.512024
33
111.808624
0
3DFACE
8
0
70
0
10
-46.612980
20
213.444153
30
113.059761
11
-33.755466
21
209.914490
31
115.451942
12
-24.999393
22
210.346069
32
101.685745
13
-40.589970
23
214.434143
33
99.950348
0
3DFACE
8
0
70
0
10
-28.000513
20
201.386322
30
119.811630
11
-17.758120
21
198.427429
31
105.450966
12
-24.999393
22
210.346069
32
101.685745
13
-33.755466
23
209.914490
33
115.451942
0
3DFACE
8
0
70
0
10
-35.161163
20
223.808105
30
97.982399
11
-35.726391
21
214.335754
31
99.156731
12
-23.514868
22
211.842407
32
99.217033
13
-23.075825
23
231.307495
33
101.341591
0
3DFACE
8
0
70
0
10
-23.514868
20
211.842407
30
99.217033
11
-12.161275
21
212.665131
31
97.676903
12
-7.172363
22
223.422974
32
95.783234
13
-23.075825
23
231.307495
33
101.341591
0
3DFACE
8
0
70
0
10
-35.374367
20
162.334045
30
119.068451
11
-33.972279
21
181.003601
31
107.022369
12
-43.317337
22
179.665710
32
105.616829
13
-47.378860
23
162.149475
33
114.055206
0
3DFACE
8
0
70
0
10
18.743681
20
177.912476
30
94.077148
11
17.504667
21
188.833313
31
92.948898
12
-12.456619
22
182.297607
32
101.665276
13
-9.059462
23
159.653809
33
110.996658
0
3DFACE
8
0
70
0
10
-33.972279
20
181.003601
30
107.022369
11
-35.374367
21
162.334045
31
119.068451
12
-15.179008
22
164.286133
32
119.106247
13
-20.675165
23
181.262573
33
113.284554
0
3DFACE
8
0
70
0
10
14.567205
20
220.569641
30
90.900764
11
25.781759
21
223.210510
31
95.651947
12
-5.026733
22
228.662231
32
101.820183
13
-4.538432
23
225.316376
33
100.130730
0
3DFACE
8
0
70
0
10
-41.269726
20
227.663177
30
101.362640
11
-40.003349
21
225.700500
31
98.731560
12
-24.736450
22
233.167480
32
103.623039
13
-23.946085
23
235.422394
33
105.598007
0
3DFACE
8
0
70
0
10
-23.946085
20
235.422394
30
105.598007
11
-24.736450
21
233.167480
31
103.623039
12
-4.538432
22
225.316376
32
100.130730
13
-5.026733
23
228.662231
33
101.820183
0
3DFACE
8
0
70
0
10
-46.753036
20
135.507141
30
112.754974
11
-28.417917
21
143.674377
31
114.262627
12
-30.288382
22
152.766083
32
110.811134
13
-45.303959
23
149.950897
33
109.744316
0
3DFACE
8
0
70
0
10
-38.130127
20
91.787537
30
94.839676
11
-18.229719
21
104.210785
31
100.439407
12
-28.417917
22
143.674377
32
114.262627
13
-46.753036
23
135.507141
33
112.754974
0
3DFACE
8
0
70
0
10
18.743681
20
177.912476
30
94.077148
11
-9.059462
21
159.653809
31
110.996658
12
-5.806851
22
156.185425
32
102.663666
13
20.589825
23
166.745850
33
98.826447
0
3DFACE
8
0
70
0
10
-5.806851
20
156.185425
30
102.663666
11
17.049419
21
129.329132
31
81.401016
12
33.418095
22
158.525452
32
70.630547
13
20.589825
23
166.745850
33
98.826447
0
3DFACE
8
0
70
0
10
-18.229719
20
104.210785
30
100.439407
11
17.049419
21
129.329132
31
81.401016
12
-5.806851
22
156.185425
32
102.663666
13
-28.417917
23
143.674377
33
114.262627
0
3DFACE
8
0
70
0
10
-28.417917
20
143.674377
30
114.262627
11
-5.806851
21
156.185425
31
102.663666
12
-9.059462
22
159.653809
32
110.996658
13
-30.288382
23
152.766083
33
110.811134
0
3DFACE
8
0
70
0
10
-47.378860
20
162.149475
30
114.055206
11
-45.303959
21
149.950897
31
109.744316
12
-30.288382
22
152.766083
32
110.811134
13
-35.374367
23
162.334045
33
119.068451
0
3DFACE
8
0
70
0
10
-43.317337
20
179.665710
30
105.616829
11
-33.972279
21
181.003601
31
107.022369
12
-28.226994
22
179.840576
32
100.703590
13
-41.158493
23
177.217102
33
101.131531
0
3DFACE
8
0
70
0
10
-20.675165
20
181.262573
30
113.284554
11
-12.456619
21
182.297607
31
101.665276
12
-28.226994
22
179.840576
32
100.703590
13
-33.972279
23
181.003601
33
107.022369
0
POINT
8
0
70
0
10
11.933742
20
162.482300
30
111.663635
0
3DFACE
8
0
70
0
10
-35.374367
20
162.334045
30
119.068451
11
-30.288382
21
152.766083
31
110.811134
12
-9.059462
22
159.653809
32
110.996658
13
-15.179008
23
164.286133
33
119.106247
0
3DFACE
8
0
70
0
10
-15.179008
20
164.286133
30
119.106247
11
11.933742
21
162.482300
31
111.663635
12
-20.675165
22
181.262573
32
113.284554
13
-20.675165
23
181.262573
33
113.284554
0
3DFACE
8
0
70
0
10
-20.675165
20
181.262573
30
113.284554
11
11.933742
21
162.482300
31
111.663635
12
-12.456619
22
182.297607
32
101.665276
13
-12.456619
23
182.297607
33
101.665276
0
3DFACE
8
0
70
0
10
11.933742
20
162.482300
30
111.663635
11
-9.059462
21
159.653809
31
110.996658
12
-12.456619
22
182.297607
32
101.665276
13
-12.456619
23
182.297607
33
101.665276
0
3DFACE
8
0
70
0
10
-9.059462
20
159.653809
30
110.996658
11
11.933742
21
162.482300
31
111.663635
12
-15.179008
22
164.286133
32
119.106247
13
-15.179008
23
164.286133
33
119.106247
0
3DFACE
8
0
70
0
10
25.781759
20
223.210510
30
95.651947
11
14.567205
21
220.569641
31
90.900764
12
42.677017
22
217.031555
32
63.473129
13
46.218166
23
219.010376
33
63.737720
0
3DFACE
8
0
70
0
10
14.567205
20
220.569641
30
90.900764
11
12.504706
21
211.466766
31
90.637161
12
43.423542
22
209.655396
32
65.390923
13
42.677017
23
217.031555
33
63.473129
0
3DFACE
8
0
70
0
10
12.504706
20
211.466766
30
90.637161
11
14.614174
21
198.368408
31
91.884628
12
42.341148
22
196.526398
32
67.689980
13
43.423542
23
209.655396
33
65.390923
0
3DFACE
8
0
70
0
10
46.218166
20
219.010376
30
63.737720
11
42.677017
21
217.031555
31
63.473129
12
38.956181
22
214.469971
32
32.489296
13
41.745983
23
215.553711
33
32.656120
0
3DFACE
8
0
70
0
10
43.423542
20
209.655396
30
65.390923
11
41.981171
21
212.514038
31
31.536221
12
38.956181
22
214.469971
32
32.489296
13
42.677017
23
217.031555
33
63.473129
0
3DFACE
8
0
70
0
10
42.341148
20
196.526398
30
67.689980
11
40.011669
21
200.780579
31
29.299307
12
41.981171
22
212.514038
32
31.536221
13
43.423542
23
209.655396
33
65.390923
0
3DFACE
8
0
70
0
10
41.745983
20
215.553711
30
32.656120
11
38.956181
21
214.469971
31
32.489296
12
8.179764
22
214.070465
32
-1.375555
13
9.760861
23
214.723877
33
-4.660499
0
3DFACE
8
0
70
0
10
41.981171
20
212.514038
30
31.536221
11
8.211805
21
212.025146
31
-1.442129
12
8.179764
22
214.070465
32
-1.375555
13
38.956181
23
214.469971
33
32.489296
0
3DFACE
8
0
70
0
10
40.011669
20
200.780579
30
29.299307
11
7.413620
21
198.194336
31
0.216209
12
8.211805
22
212.025146
32
-1.442129
13
41.981171
23
212.514038
33
31.536221
0
3DFACE
8
0
70
0
10
33.418095
20
158.525452
30
70.630547
11
41.100082
21
175.017761
31
69.262337
12
18.743681
22
177.912476
32
94.077148
13
20.589825
23
166.745850
33
98.826447
0
3DFACE
8
0
70
0
10
14.614174
20
198.368408
30
91.884628
11
17.504667
21
188.833313
31
92.948898
12
42.341148
22
196.526398
32
67.689980
13
42.341148
23
196.526398
33
67.689980
0
3DFACE
8
0
70
0
10
18.743681
20
177.912476
30
94.077148
11
41.100082
21
175.017761
31
69.262337
12
42.341148
22
196.526398
32
67.689980
13
17.504667
23
188.833313
33
92.948898
0
3DFACE
8
0
70
0
10
41.100082
20
175.017761
30
69.262337
11
37.820869
21
182.879761
31
32.023174
12
40.011669
22
200.780579
32
29.299307
13
42.341148
23
196.526398
33
67.689980
0
3DFACE
8
0
70
0
10
37.820869
20
182.879761
30
32.023174
11
5.285491
21
180.962708
31
4.637693
12
7.413620
22
198.194336
32
0.216209
13
40.011669
23
200.780579
33
29.299307
0
3DFACE
8
0
70
0
10
-41.269726
20
227.663177
30
101.362640
11
-23.946085
21
235.422394
31
105.598007
12
-20.905949
22
257.719818
32
103.785103
13
-41.014297
23
256.607758
33
100.831947
0
3DFACE
8
0
70
0
10
-41.014297
20
256.607758
30
100.831947
11
-20.905949
21
257.719818
31
103.785103
12
-18.490595
22
260.266205
32
99.663040
13
-39.545177
23
260.153259
33
97.779648
0
3DFACE
8
0
70
0
10
-23.946085
20
235.422394
30
105.598007
11
-5.026733
21
228.662231
31
101.820183
12
8.714588
22
256.444275
32
103.327286
13
-20.905949
23
257.719818
33
103.785103
0
3DFACE
8
0
70
0
10
-20.905949
20
257.719818
30
103.785103
11
8.714588
21
256.444275
31
103.327286
12
9.522233
22
259.394043
32
98.784714
13
-18.490595
23
260.266205
33
99.663040
0
3DFACE
8
0
70
0
10
-5.026733
20
228.662231
30
101.820183
11
25.781759
21
223.210510
31
95.651947
12
36.696480
22
250.214417
32
82.306686
13
8.714588
23
256.444275
33
103.327286
0
3DFACE
8
0
70
0
10
8.714588
20
256.444275
30
103.327286
11
36.696480
21
250.214417
31
82.306686
12
29.724207
22
254.347687
32
77.657707
13
9.522233
23
259.394043
33
98.784714
0
3DFACE
8
0
70
0
10
25.781759
20
223.210510
30
95.651947
11
46.218166
21
219.010376
31
63.737720
12
51.996582
22
249.747925
32
60.953812
13
36.696480
23
250.214417
33
82.306686
0
3DFACE
8
0
70
0
10
36.696480
20
250.214417
30
82.306686
11
51.996582
21
249.747925
31
60.953812
12
45.403042
22
252.410858
32
59.539795
13
29.724207
23
254.347687
33
77.657707
0
3DFACE
8
0
70
0
10
46.218166
20
219.010376
30
63.737720
11
41.745983
21
215.553711
31
32.656120
12
43.472496
22
243.343018
32
31.133463
13
51.996582
23
249.747925
33
60.953812
0
3DFACE
8
0
70
0
10
51.996582
20
249.747925
30
60.953812
11
43.472496
21
243.343018
31
31.133463
12
36.888927
22
247.581177
32
32.063778
13
45.403042
23
252.410858
33
59.539795
0
3DFACE
8
0
70
0
10
41.745983
20
215.553711
30
32.656120
11
9.760861
21
214.723877
31
-4.660499
12
10.772462
22
240.417297
32
-6.762238
13
43.472496
23
243.343018
33
31.133463
0
3DFACE
8
0
70
0
10
43.472496
20
243.343018
30
31.133463
11
10.772462
21
240.417297
31
-6.762238
12
8.842173
22
244.156799
32
-2.751795
13
36.888927
23
247.581177
33
32.063778
0
3DFACE
8
0
70
0
10
33.418095
20
158.525452
30
70.630547
11
32.399494
21
161.250000
31
38.548214
12
37.820869
22
182.879761
32
32.023174
13
41.100082
23
175.017761
33
69.262337
0
3DFACE
8
0
70
0
10
32.399494
20
161.250000
30
38.548214
11
-0.298874
21
168.365967
31
9.851535
12
5.285491
22
180.962708
32
4.637693
13
37.820869
23
182.879761
33
32.023174
0
3DFACE
8
0
70
0
10
17.049419
20
129.329132
30
81.401016
11
18.652567
21
139.790771
31
66.983536
12
32.399494
22
161.250000
32
38.548214
13
33.418095
23
158.525452
33
70.630547
0
3DFACE
8
0
70
0
10
-18.229719
20
104.210785
30
100.439407
11
-13.505048
21
104.465271
31
85.045708
12
18.652567
22
139.790771
32
66.983536
13
17.049419
23
129.329132
33
81.401016
0
3DFACE
8
0
70
0
10
-13.505048
20
104.465271
30
85.045708
11
-27.828062
21
102.713593
31
73.435707
12
-18.180525
22
124.146545
32
53.391609
13
18.652567
23
139.790771
33
66.983536
0
3DFACE
8
0
70
0
10
-38.130127
20
91.787537
30
94.839676
11
-27.828062
21
102.713593
31
73.435707
12
-13.505048
22
104.465271
32
85.045708
13
-13.505048
23
104.465271
33
85.045708
0
3DFACE
8
0
70
0
10
-38.130127
20
91.787537
30
94.839676
11
-13.505048
21
104.465271
31
85.045708
12
-18.229719
22
104.210785
32
100.439407
13
-18.229719
23
104.210785
33
100.439407
0
3DFACE
8
0
70
0
10
-46.139568
20
183.134644
30
112.076180
11
-48.544437
21
201.745331
31
117.072624
12
-63.500843
22
201.386322
32
102.724770
13
-53.124252
23
183.512024
33
102.896317
0
3DFACE
8
0
70
0
10
-48.544437
20
201.745331
30
117.072624
11
-46.612980
21
213.444153
31
113.059761
12
-56.503399
22
209.914490
32
104.503014
13
-63.500843
23
201.386322
33
102.724770
0
3DFACE
8
0
70
0
10
-53.124252
20
183.512024
30
102.896317
11
-63.500843
21
201.386322
31
102.724770
12
-59.132019
22
198.427429
32
85.537064
13
-48.890934
23
179.840576
33
90.757713
0
3DFACE
8
0
70
0
10
-46.139568
20
183.134644
30
112.076180
11
-53.124252
21
183.512024
31
102.896317
12
-48.890934
22
179.840576
32
90.757713
13
-41.158493
23
177.217102
33
101.131531
0
3DFACE
8
0
70
0
10
-46.612980
20
213.444153
30
113.059761
11
-40.589970
21
214.434143
31
99.950348
12
-51.671997
22
210.346069
32
88.847801
13
-56.503399
23
209.914490
33
104.503014
0
3DFACE
8
0
70
0
10
-63.500843
20
201.386322
30
102.724770
11
-56.503399
21
209.914490
31
104.503014
12
-51.671997
22
210.346069
32
88.847801
13
-59.132019
23
198.427429
33
85.537064
0
3DFACE
8
0
70
0
10
-41.953419
20
223.683929
30
94.516785
11
-52.094582
21
232.007935
31
87.576233
12
-50.723587
22
212.471863
32
86.801506
13
-42.428165
23
214.593323
33
95.503136
0
3DFACE
8
0
70
0
10
-50.723587
20
212.471863
30
86.801506
11
-52.094582
21
232.007935
31
87.576233
12
-58.695141
22
223.372406
32
73.765503
13
-56.694981
23
213.265991
33
78.249626
0
3DFACE
8
0
70
0
10
-58.785686
20
162.334045
30
107.800217
11
-47.378860
21
162.149475
31
114.055206
12
-43.317337
22
179.665710
32
105.616829
13
-50.245487
23
181.003601
33
99.189827
0
3DFACE
8
0
70
0
10
-73.013092
20
177.912476
30
49.913185
11
-68.892746
21
159.653809
31
82.197968
12
-59.480415
22
182.297607
32
79.031998
13
-71.358368
23
188.833313
33
50.177738
0
3DFACE
8
0
70
0
10
-50.245487
20
181.003601
30
99.189827
11
-63.434803
21
181.262573
31
92.703674
12
-71.413460
22
164.286133
32
92.039726
13
-58.785686
23
162.334045
33
107.800217
0
3DFACE
8
0
70
0
10
-67.925163
20
220.569641
30
51.195900
11
-62.434814
21
225.316376
31
72.264297
12
-63.450615
22
228.662231
32
73.699852
13
-78.634377
23
223.210510
33
45.394836
0
3DFACE
8
0
70
0
10
-41.269726
20
227.663177
30
101.362640
11
-55.013355
21
236.229553
31
90.620193
12
-52.976746
22
233.974609
32
90.005898
13
-40.003349
23
225.700500
33
98.731560
0
3DFACE
8
0
70
0
10
-55.013355
20
236.229553
30
90.620193
11
-63.450615
21
228.662231
31
73.699852
12
-62.434814
22
225.316376
32
72.264297
13
-52.976746
23
233.974609
33
90.005898
0
3DFACE
8
0
70
0
10
-46.753036
20
135.507141
30
112.754974
11
-45.303959
21
149.950897
31
109.744316
12
-55.504753
22
152.766083
32
98.674103
13
-59.369167
23
143.674377
33
99.365311
0
3DFACE
8
0
70
0
10
-38.130127
20
91.787537
30
94.839676
11
-46.753036
21
135.507141
31
112.754974
12
-59.369167
22
143.674377
32
99.365311
13
-54.920948
23
104.210785
33
82.779350
0
3DFACE
8
0
70
0
10
-73.013092
20
177.912476
30
49.913185
11
-77.876656
21
166.745850
31
51.432999
12
-64.408981
22
156.185425
32
74.457550
13
-68.892746
23
159.653809
33
82.197968
0
3DFACE
8
0
70
0
10
-64.408981
20
156.185425
30
74.457550
11
-77.876656
21
166.745850
31
51.432999
12
-63.842125
22
158.525452
32
23.817686
13
-62.048912
23
129.329132
33
43.329762
0
3DFACE
8
0
70
0
10
-54.920948
20
104.210785
30
82.779350
11
-59.369167
21
143.674377
31
99.365311
12
-64.408981
22
156.185425
32
74.457550
13
-62.048912
23
129.329132
33
43.329762
0
3DFACE
8
0
70
0
10
-59.369167
20
143.674377
30
99.365311
11
-55.504753
21
152.766083
31
98.674103
12
-68.892746
22
159.653809
32
82.197968
13
-64.408981
23
156.185425
33
74.457550
0
3DFACE
8
0
70
0
10
-47.378860
20
162.149475
30
114.055206
11
-58.785686
21
162.334045
31
107.800217
12
-55.504753
22
152.766083
32
98.674103
13
-45.303959
23
149.950897
33
109.744316
0
3DFACE
8
0
70
0
10
-43.317337
20
179.665710
30
105.616829
11
-41.158493
21
177.217102
31
101.131531
12
-48.890934
22
179.840576
32
90.757713
13
-50.245487
23
181.003601
33
99.189827
0
3DFACE
8
0
70
0
10
-63.434803
20
181.262573
30
92.703674
11
-50.245487
21
181.003601
31
99.189827
12
-48.890934
22
179.840576
32
90.757713
13
-59.480415
23
182.297607
33
79.031998
0
POINT
8
0
70
0
10
-81.782433
20
162.482300
30
66.556587
0
3DFACE
8
0
70
0
10
-58.785686
20
162.334045
30
107.800217
11
-71.413460
21
164.286133
31
92.039726
12
-68.892746
22
159.653809
32
82.197968
13
-55.504753
23
152.766083
33
98.674103
0
3DFACE
8
0
70
0
10
-71.413460
20
164.286133
30
92.039726
11
-63.434803
21
181.262573
31
92.703674
12
-81.782433
22
162.482300
32
66.556587
13
-81.782433
23
162.482300
33
66.556587
0
3DFACE
8
0
70
0
10
-63.434803
20
181.262573
30
92.703674
11
-59.480415
21
182.297607
31
79.031998
12
-81.782433
22
162.482300
32
66.556587
13
-81.782433
23
162.482300
33
66.556587
0
3DFACE
8
0
70
0
10
-81.782433
20
162.482300
30
66.556587
11
-59.480415
21
182.297607
31
79.031998
12
-68.892746
22
159.653809
32
82.197968
13
-68.892746
23
159.653809
33
82.197968
0
3DFACE
8
0
70
0
10
-68.892746
20
159.653809
30
82.197968
11
-71.413460
21
164.286133
31
92.039726
12
-81.782433
22
162.482300
32
66.556587
13
-81.782433
23
162.482300
33
66.556587
0
3DFACE
8
0
70
0
10
-78.634377
20
223.210510
30
45.394836
11
-66.439819
21
219.010376
31
9.513678
12
-64.023987
22
217.031555
32
12.116275
13
-67.925163
23
220.569641
33
51.195900
0
3DFACE
8
0
70
0
10
-67.925163
20
220.569641
30
51.195900
11
-64.023987
21
217.031555
31
12.116275
12
-65.988579
22
209.655396
32
12.729166
13
-66.432526
23
211.466766
33
52.643444
0
3DFACE
8
0
70
0
10
-66.432526
20
211.466766
30
52.643444
11
-65.988579
21
209.655396
31
12.729166
12
-67.110229
22
196.526398
32
15.009326
13
-68.723427
23
198.368408
33
51.772949
0
3DFACE
8
0
70
0
10
-66.439819
20
219.010376
30
9.513678
11
-39.357567
21
215.553711
31
-6.380280
12
-37.486855
22
214.469971
32
-4.303928
13
-64.023987
23
217.031555
33
12.116275
0
3DFACE
8
0
70
0
10
-65.988579
20
209.655396
30
12.729166
11
-64.023987
21
217.031555
31
12.116275
12
-37.486855
22
214.469971
32
-4.303928
13
-38.629013
23
212.514038
33
-7.262715
0
3DFACE
8
0
70
0
10
-67.110229
20
196.526398
30
15.009326
11
-65.988579
21
209.655396
31
12.729166
12
-38.629013
22
212.514038
32
-7.262715
13
-35.652096
23
200.780579
33
-7.118843
0
3DFACE
8
0
70
0
10
-39.357567
20
215.553711
30
-6.380280
11
9.760861
21
214.723877
31
-4.660499
12
8.179764
22
214.070465
32
-1.375555
13
-37.486855
23
214.469971
33
-4.303928
0
3DFACE
8
0
70
0
10
-38.629013
20
212.514038
30
-7.262715
11
-37.486855
21
214.469971
31
-4.303928
12
8.179764
22
214.070465
32
-1.375555
13
8.211805
23
212.025146
33
-1.442129
0
3DFACE
8
0
70
0
10
-35.652096
20
200.780579
30
-7.118843
11
-38.629013
21
212.514038
31
-7.262715
12
8.211805
22
212.025146
32
-1.442129
13
7.413620
23
198.194336
33
0.216209
0
3DFACE
8
0
70
0
10
-63.842125
20
158.525452
30
23.817686
11
-77.876656
21
166.745850
31
51.432999
12
-73.013092
22
177.912476
32
49.913185
13
-67.564934
23
175.017761
33
16.960173
0
3DFACE
8
0
70
0
10
-68.723427
20
198.368408
30
51.772949
11
-67.110229
21
196.526398
31
15.009326
12
-71.358368
22
188.833313
32
50.177738
13
-71.358368
23
188.833313
33
50.177738
0
3DFACE
8
0
70
0
10
-73.013092
20
177.912476
30
49.913185
11
-71.358368
21
188.833313
31
50.177738
12
-67.110229
22
196.526398
32
15.009326
13
-67.564934
23
175.017761
33
16.960173
0
3DFACE
8
0
70
0
10
-67.564934
20
175.017761
30
16.960173
11
-67.110229
21
196.526398
31
15.009326
12
-35.652096
22
200.780579
32
-7.118843
13
-36.414326
23
182.879761
33
-3.707383
0
3DFACE
8
0
70
0
10
-36.414326
20
182.879761
30
-3.707383
11
-35.652096
21
200.780579
31
-7.118843
12
7.413620
22
198.194336
32
0.216209
13
5.285491
23
180.962708
33
4.637693
0
3DFACE
8
0
70
0
10
-41.269726
20
227.663177
30
101.362640
11
-41.014297
21
256.607758
31
100.831947
12
-55.866356
22
257.719818
32
86.958115
13
-55.013355
23
236.229553
33
90.620193
0
3DFACE
8
0
70
0
10
-41.014297
20
256.607758
30
100.831947
11
-39.545177
21
260.153259
31
97.779648
12
-54.151421
22
260.266205
32
82.498932
13
-55.866356
23
257.719818
33
86.958115
0
3DFACE
8
0
70
0
10
-55.013355
20
236.229553
30
90.620193
11
-55.866356
21
257.719818
31
86.958115
12
-73.986374
22
256.444275
32
63.522026
13
-63.450615
23
228.662231
33
73.699852
0
3DFACE
8
0
70
0
10
-55.866356
20
257.719818
30
86.958115
11
-54.151421
21
260.266205
31
82.498932
12
-70.939857
22
259.394043
32
60.057053
13
-73.986374
23
256.444275
33
63.522026
0
3DFACE
8
0
70
0
10
-63.450615
20
228.662231
30
73.699852
11
-73.986374
21
256.444275
31
63.522026
12
-75.012947
22
250.214417
32
28.539202
13
-78.634377
23
223.210510
33
45.394836
0
3DFACE
8
0
70
0
10
-73.986374
20
256.444275
30
63.522026
11
-70.939857
21
259.394043
31
60.057053
12
-67.030006
22
254.347687
32
31.088392
13
-75.012947
23
250.214417
33
28.539202
0
3DFACE
8
0
70
0
10
-78.634377
20
223.210510
30
45.394836
11
-75.012947
21
250.214417
31
28.539202
12
-67.868683
22
249.747925
32
3.260792
13
-66.439819
23
219.010376
33
9.513678
0
3DFACE
8
0
70
0
10
-75.012947
20
250.214417
30
28.539202
11
-67.030006
21
254.347687
31
31.088392
12
-62.650360
22
252.410858
32
7.532011
13
-67.868683
23
249.747925
33
3.260792
0
3DFACE
8
0
70
0
10
-66.439819
20
219.010376
30
9.513678
11
-67.868683
21
249.747925
31
3.260792
12
-39.244537
22
243.343018
32
-8.679534
13
-39.357567
23
215.553711
33
-6.380280
0
3DFACE
8
0
70
0
10
-67.868683
20
249.747925
30
3.260792
11
-62.650360
21
252.410858
31
7.532011
12
-35.864693
22
247.581177
32
-2.953673
13
-39.244537
23
243.343018
33
-8.679534
0
3DFACE
8
0
70
0
10
-39.357567
20
215.553711
30
-6.380280
11
-39.244537
21
243.343018
31
-8.679534
12
10.772462
22
240.417297
32
-6.762238
13
9.760861
23
214.723877
33
-4.660499
0
3DFACE
8
0
70
0
10
-39.244537
20
243.343018
30
-8.679534
11
-35.864693
21
247.581177
31
-2.953673
12
8.842173
22
244.156799
32
-2.751795
13
10.772462
23
240.417297
33
-6.762238
0
3DFACE
8
0
70
0
10
-63.842125
20
158.525452
30
23.817686
11
-67.564934
21
175.017761
31
16.960173
12
-36.414326
22
182.879761
32
-3.707383
13
-39.359715
23
161.250000
33
26.466305
0
3DFACE
8
0
70
0
10
-39.359715
20
161.250000
30
26.466305
11
-36.414326
21
182.879761
31
-3.707383
12
5.285491
22
180.962708
32
4.637693
13
-0.298874
23
168.365967
33
9.851535
0
3DFACE
8
0
70
0
10
-62.048912
20
129.329132
30
43.329762
11
-63.842125
21
158.525452
31
23.817686
12
-39.359715
22
161.250000
32
26.466305
13
-39.291676
23
139.790771
33
53.220264
0
3DFACE
8
0
70
0
10
-54.920948
20
104.210785
30
82.779350
11
-62.048912
21
129.329132
31
43.329762
12
-39.291676
22
139.790771
32
53.220264
13
-45.837048
23
104.465271
33
69.483818
0
3DFACE
8
0
70
0
10
-45.837048
20
104.465271
30
69.483818
11
-39.291676
21
139.790771
31
53.220264
12
-18.180525
22
124.146545
32
53.391609
13
-27.828062
23
102.713593
33
73.435707
0
3DFACE
8
0
70
0
10
-38.130127
20
91.787537
30
94.839676
11
-45.837048
21
104.465271
31
69.483818
12
-27.828062
22
102.713593
32
73.435707
13
-27.828062
23
102.713593
33
73.435707
0
3DFACE
8
0
70
0
10
-38.130127
20
91.787537
30
94.839676
11
-54.920948
21
104.210785
31
82.779350
12
-45.837048
22
104.465271
32
69.483818
13
-45.837048
23
104.465271
33
69.483818
0
3DFACE
8
0
70
0
10
-42.428165
20
214.593323
30
95.503136
11
-40.589970
21
214.434143
31
99.950348
12
-40.003349
22
225.700500
32
98.731560
13
-41.953419
23
223.683929
33
94.516785
0
3DFACE
8
0
70
0
10
-50.723587
20
212.471863
30
86.801506
11
-51.671997
21
210.346069
31
88.847801
12
-40.589970
22
214.434143
32
99.950348
13
-42.428165
23
214.593323
33
95.503136
0
3DFACE
8
0
70
0
10
-52.094582
20
232.007935
30
87.576233
11
-41.953419
21
223.683929
31
94.516785
12
-40.003349
22
225.700500
32
98.731560
13
-52.976746
23
233.974609
33
90.005898
0
3DFACE
8
0
70
0
10
-50.723587
20
212.471863
30
86.801506
11
-56.694981
21
213.265991
31
78.249626
12
-59.707783
22
211.453552
32
77.966576
13
-51.671997
23
210.346069
33
88.847801
0
3DFACE
8
0
70
0
10
-56.694981
20
213.265991
30
78.249626
11
-58.695141
21
223.372406
31
73.765503
12
-62.434814
22
225.316376
32
72.264297
13
-59.707783
23
211.453552
33
77.966576
0
3DFACE
8
0
70
0
10
-52.094582
20
232.007935
30
87.576233
11
-52.976746
21
233.974609
31
90.005898
12
-62.434814
22
225.316376
32
72.264297
13
-58.695141
23
223.372406
33
73.765503
0
3DFACE
8
0
70
0
10
-23.075825
20
231.307495
30
101.341591
11
-24.736450
21
233.167480
31
103.623039
12
-40.003349
22
225.700500
32
98.731560
13
-35.161163
23
223.808105
33
97.982399
0
3DFACE
8
0
70
0
10
-23.514868
20
211.842407
30
99.217033
11
-35.726391
21
214.335754
31
99.156731
12
-40.589970
22
214.434143
32
99.950348
13
-24.999393
23
210.346069
33
101.685745
0
3DFACE
8
0
70
0
10
-35.726391
20
214.335754
30
99.156731
11
-35.161163
21
223.808105
31
97.982399
12
-40.003349
22
225.700500
32
98.731560
13
-40.589970
23
214.434143
33
99.950348
0
3DFACE
8
0
70
0
10
-23.075825
20
231.307495
30
101.341591
11
-7.172363
21
223.422974
31
95.783234
12
-4.538432
22
225.316376
32
100.130730
13
-24.736450
23
233.167480
33
103.623039
0
3DFACE
8
0
70
0
10
-12.161275
20
212.665131
30
97.676903
11
-10.696329
21
211.453552
31
101.556549
12
-4.538432
22
225.316376
32
100.130730
13
-7.172363
23
223.422974
33
95.783234
0
3DFACE
8
0
70
0
10
-23.514868
20
211.842407
30
99.217033
11
-24.999393
21
210.346069
31
101.685745
12
-10.696329
22
211.453552
32
101.556549
13
-12.161275
23
212.665131
33
97.676903
0
3DFACE
8
0
70
0
10
-0.298874
20
168.365967
30
9.851535
11
32.399494
21
161.250000
31
38.548214
12
57.946964
22
148.291656
32
3.316956
13
-1.814298
23
169.682526
33
6.283484
0
3DFACE
8
0
70
0
10
-1.814298
20
169.682526
30
6.283484
11
-63.299820
21
153.185059
31
2.636666
12
-39.359715
22
161.250000
32
26.466305
13
-0.298874
23
168.365967
33
9.851535
0
3DFACE
8
0
70
0
10
-63.299820
20
153.185059
30
2.636666
11
-55.017273
21
127.858093
31
61.715473
12
-39.359715
22
161.250000
32
26.466305
13
-39.359715
23
161.250000
33
26.466305
0
3DFACE
8
0
70
0
10
-55.017273
20
127.858093
30
61.715473
11
-39.291676
21
139.790771
31
53.220264
12
-39.359715
22
161.250000
32
26.466305
13
-39.359715
23
161.250000
33
26.466305
0
3DFACE
8
0
70
0
10
51.441730
20
127.858093
30
61.715469
11
32.399494
21
161.250000
31
38.548214
12
18.652567
22
139.790771
32
66.983536
13
18.652567
23
139.790771
33
66.983536
0
3DFACE
8
0
70
0
10
57.946964
20
148.291656
30
3.316956
11
32.399494
21
161.250000
31
38.548214
12
51.441730
22
127.858093
32
61.715469
13
51.441730
23
127.858093
33
61.715469
0
3DFACE
8
0
70
0
10
-1.757164
20
128.754761
30
70.411819
11
-39.291676
21
139.790771
31
53.220264
12
-55.017273
22
127.858093
32
61.715473
13
-55.017273
23
127.858093
33
61.715473
0
3DFACE
8
0
70
0
10
-18.180525
20
124.146545
30
53.391609
11
-39.291676
21
139.790771
31
53.220264
12
-1.757164
22
128.754761
32
70.411819
13
-1.757164
23
128.754761
33
70.411819
0
3DFACE
8
0
70
0
10
-18.180525
20
124.146545
30
53.391609
11
-1.757164
21
128.754761
31
70.411819
12
18.652567
22
139.790771
32
66.983536
13
18.652567
23
139.790771
33
66.983536
0
3DFACE
8
0
70
0
10
-1.757164
20
128.754761
30
70.411819
11
51.441730
21
127.858093
31
61.715469
12
18.652567
22
139.790771
32
66.983536
13
18.652567
23
139.790771
33
66.983536
0
3DFACE
8
0
70
0
10
8.842173
20
244.156799
30
-2.751795
11
-6.391259
21
295.252380
31
28.833208
12
6.261361
22
298.620239
32
39.369240
13
36.888927
23
247.581177
33
32.063778
0
3DFACE
8
0
70
0
10
36.888927
20
247.581177
30
32.063778
11
6.261361
21
298.620239
31
39.369240
12
13.339589
22
303.619415
32
49.375740
13
45.403042
23
252.410858
33
59.539795
0
3DFACE
8
0
70
0
10
45.403042
20
252.410858
30
59.539795
11
13.339589
21
303.619415
31
49.375740
12
8.491523
22
308.733490
32
53.793682
13
29.724207
23
254.347687
33
77.657707
0
3DFACE
8
0
70
0
10
29.724207
20
254.347687
30
77.657707
11
8.491523
21
308.733490
31
53.793682
12
2.807155
22
315.073486
32
59.427452
13
9.522233
23
259.394043
33
98.784714
0
3DFACE
8
0
70
0
10
-39.545177
20
260.153259
30
97.779648
11
-18.490595
21
260.266205
31
99.663040
12
-9.530823
22
318.151642
32
57.552631
13
-19.131643
23
319.948029
33
55.303139
0
3DFACE
8
0
70
0
10
8.842173
20
244.156799
30
-2.751795
11
-35.864693
21
247.581177
31
-2.953673
12
-22.518835
22
298.620239
32
25.516880
13
-6.391259
23
295.252380
33
28.833208
0
3DFACE
8
0
70
0
10
-35.864693
20
247.581177
30
-2.953673
11
-62.650360
21
252.410858
31
7.532011
12
-34.755127
22
303.619415
32
26.226997
13
-22.518835
23
298.620239
33
25.516880
0
3DFACE
8
0
70
0
10
-62.650360
20
252.410858
30
7.532011
11
-67.030006
21
254.347687
31
31.088392
12
-35.183743
22
308.733521
32
32.772087
13
-34.755127
23
303.619415
33
26.226997
0
3DFACE
8
0
70
0
10
-67.030006
20
254.347687
30
31.088392
11
-70.939857
21
259.394043
31
60.057053
12
-36.040905
22
315.073486
32
40.729267
13
-35.183743
23
308.733521
33
32.772087
0
3DFACE
8
0
70
0
10
-39.545177
20
260.153259
30
97.779648
11
-19.131643
21
319.948029
31
55.303139
12
-26.878944
22
318.151642
32
49.202705
13
-54.151421
23
260.266205
33
82.498932
0
3DFACE
8
0
70
0
10
9.522233
20
259.394043
30
98.784714
11
2.807155
21
315.073486
31
59.427452
12
-9.530823
22
318.151642
32
57.552631
13
-18.490595
23
260.266205
33
99.663040
0
3DFACE
8
0
70
0
10
-70.939857
20
259.394043
30
60.057053
11
-54.151421
21
260.266205
31
82.498932
12
-26.878944
22
318.151642
32
49.202705
13
-36.040905
23
315.073486
33
40.729267
0
3DFACE
8
0
70
0
10
12.322762
20
324.136414
30
-10.144235
11
27.512947
21
317.342102
31
-10.324883
12
18.467644
22
316.512207
32
-22.911074
13
18.467644
23
316.512207
33
-22.911074
0
3DFACE
8
0
70
0
10
21.078695
20
319.001892
30
3.043160
11
27.512947
21
317.342102
31
-10.324883
12
12.322762
22
324.136414
32
-10.144235
13
12.322762
23
324.136414
33
-10.144235
0
3DFACE
8
0
70
0
10
5.599114
20
319.831787
30
3.825067
11
21.078695
21
319.001892
31
3.043160
12
12.322762
22
324.136414
32
-10.144235
13
12.322762
23
324.136414
33
-10.144235
0
3DFACE
8
0
70
0
10
5.599114
20
319.831787
30
3.825067
11
12.322762
21
324.136414
31
-10.144235
12
-3.446187
22
319.001892
32
-8.761056
13
-3.446187
23
319.001892
33
-8.761056
0
3DFACE
8
0
70
0
10
-3.446187
20
319.001892
30
-8.761056
11
12.322762
21
324.136414
31
-10.144235
12
2.988065
22
317.342102
32
-22.129099
13
2.988065
23
317.342102
33
-22.129099
0
3DFACE
8
0
70
0
10
12.322762
20
324.136414
30
-10.144235
11
18.467644
21
316.512207
31
-22.911074
12
2.988065
22
317.342102
32
-22.129099
13
2.988065
23
317.342102
33
-22.129099
0
3DFACE
8
0
70
0
10
27.512947
20
317.342102
30
-10.324883
11
33.226143
21
302.598969
31
-9.197270
12
20.434145
22
301.425323
32
-26.996752
13
18.467644
23
316.512207
33
-22.911074
0
3DFACE
8
0
70
0
10
24.126701
20
304.946289
30
9.708071
11
33.226143
21
302.598969
31
-9.197270
12
27.512947
22
317.342102
32
-10.324883
13
21.078695
23
319.001892
33
3.043160
0
3DFACE
8
0
70
0
10
2.235302
20
306.119934
30
10.813848
11
24.126701
21
304.946289
31
9.708071
12
21.078695
22
319.001892
32
3.043160
13
5.599114
23
319.831787
33
3.825067
0
3DFACE
8
0
70
0
10
2.235302
20
306.119934
30
10.813848
11
5.599114
21
319.831787
31
3.825067
12
-3.446187
22
319.001892
32
-8.761056
13
-10.556712
23
304.946320
33
-6.985609
0
3DFACE
8
0
70
0
10
-10.556712
20
304.946320
30
-6.985609
11
-3.446187
21
319.001892
31
-8.761056
12
2.988065
22
317.342102
32
-22.129099
13
-1.457271
23
302.598999
33
-25.890949
0
3DFACE
8
0
70
0
10
2.988065
20
317.342102
30
-22.129099
11
18.467644
21
316.512207
31
-22.911074
12
20.434145
22
301.425323
32
-26.996752
13
-1.457271
23
302.598999
33
-25.890949
0
3DFACE
8
0
70
0
10
26.115622
20
288.543396
30
-7.421753
11
17.070320
21
287.713470
31
-20.007944
12
20.434145
22
301.425323
32
-26.996752
13
33.226143
23
302.598969
33
-9.197270
0
3DFACE
8
0
70
0
10
24.126701
20
304.946289
30
9.708071
11
19.681370
21
290.203186
31
5.946290
12
26.115622
22
288.543396
32
-7.421753
13
33.226143
23
302.598969
33
-9.197270
0
3DFACE
8
0
70
0
10
2.235302
20
306.119934
30
10.813848
11
4.201790
21
291.033081
31
6.728198
12
19.681370
22
290.203186
32
5.946290
13
24.126701
23
304.946289
33
9.708071
0
3DFACE
8
0
70
0
10
2.235302
20
306.119934
30
10.813848
11
-10.556712
21
304.946320
31
-6.985609
12
-4.843511
22
290.203186
32
-5.857925
13
4.201790
23
291.033081
33
6.728198
0
3DFACE
8
0
70
0
10
-10.556712
20
304.946320
30
-6.985609
11
-1.457271
21
302.598999
31
-25.890949
12
1.590741
22
288.543396
32
-19.225967
13
-4.843511
23
290.203186
33
-5.857925
0
3DFACE
8
0
70
0
10
1.590741
20
288.543396
30
-19.225967
11
-1.457271
21
302.598999
31
-25.890949
12
20.434145
22
301.425323
32
-26.996752
13
17.070320
23
287.713470
33
-20.007944
0
3DFACE
8
0
70
0
10
10.346638
20
283.408875
30
-6.038590
11
17.070320
21
287.713470
31
-20.007944
12
26.115622
22
288.543396
32
-7.421753
13
26.115622
23
288.543396
33
-7.421753
0
3DFACE
8
0
70
0
10
19.681370
20
290.203186
30
5.946290
11
10.346638
21
283.408875
31
-6.038590
12
26.115622
22
288.543396
32
-7.421753
13
26.115622
23
288.543396
33
-7.421753
0
3DFACE
8
0
70
0
10
4.201790
20
291.033081
30
6.728198
11
10.346638
21
283.408875
31
-6.038590
12
19.681370
22
290.203186
32
5.946290
13
19.681370
23
290.203186
33
5.946290
0
3DFACE
8
0
70
0
10
4.201790
20
291.033081
30
6.728198
11
-4.843511
21
290.203186
31
-5.857925
12
10.346638
22
283.408875
32
-6.038590
13
10.346638
23
283.408875
33
-6.038590
0
3DFACE
8
0
70
0
10
-4.843511
20
290.203186
30
-5.857925
11
1.590741
21
288.543396
31
-19.225967
12
10.346638
22
283.408875
32
-6.038590
13
10.346638
23
283.408875
33
-6.038590
0
3DFACE
8
0
70
0
10
10.346638
20
283.408875
30
-6.038590
11
1.590741
21
288.543396
31
-19.225967
12
17.070320
22
287.713470
32
-20.007944
13
17.070320
23
287.713470
33
-20.007944
0
3DFACE
8
0
70
0
10
-12.456619
20
182.297607
30
101.665276
11
17.504667
21
188.833313
31
92.948898
12
-3.260337
22
198.190674
32
109.067307
13
-3.260337
23
198.190674
33
109.067307
0
3DFACE
8
0
70
0
10
17.504667
20
188.833313
30
92.948898
11
14.614174
21
198.368408
31
91.884628
12
-3.260337
22
198.190674
32
109.067307
13
-3.260337
23
198.190674
33
109.067307
0
3DFACE
8
0
70
0
10
-28.226994
20
179.840576
30
100.703590
11
-12.456619
21
182.297607
31
101.665276
12
-17.758120
22
198.427429
32
105.450966
13
-17.758120
23
198.427429
33
105.450966
0
3DFACE
8
0
70
0
10
-12.456619
20
182.297607
30
101.665276
11
-3.260337
21
198.190674
31
109.067307
12
-17.758120
22
198.427429
32
105.450966
13
-17.758120
23
198.427429
33
105.450966
0
3DFACE
8
0
70
0
10
-3.260337
20
198.190674
30
109.067307
11
14.614174
21
198.368408
31
91.884628
12
-10.696329
22
211.453552
32
101.556549
13
-10.696329
23
211.453552
33
101.556549
0
3DFACE
8
0
70
0
10
14.614174
20
198.368408
30
91.884628
11
12.504706
21
211.466766
31
90.637161
12
-10.696329
22
211.453552
32
101.556549
13
-10.696329
23
211.453552
33
101.556549
0
3DFACE
8
0
70
0
10
-17.758120
20
198.427429
30
105.450966
11
-10.696329
21
211.453552
31
101.556549
12
-24.999393
22
210.346069
32
101.685745
13
-24.999393
23
210.346069
33
101.685745
0
3DFACE
8
0
70
0
10
-3.260337
20
198.190674
30
109.067307
11
-10.696329
21
211.453552
31
101.556549
12
-17.758120
22
198.427429
32
105.450966
13
-17.758120
23
198.427429
33
105.450966
0
3DFACE
8
0
70
0
10
-10.696329
20
211.453552
30
101.556549
11
12.504706
21
211.466766
31
90.637161
12
-4.538432
22
225.316376
32
100.130730
13
-4.538432
23
225.316376
33
100.130730
0
3DFACE
8
0
70
0
10
12.504706
20
211.466766
30
90.637161
11
14.567205
21
220.569641
31
90.900764
12
-4.538432
22
225.316376
32
100.130730
13
-4.538432
23
225.316376
33
100.130730
0
3DFACE
8
0
70
0
10
-71.358368
20
188.833313
30
50.177738
11
-71.002426
21
198.190674
31
76.461983
12
-68.723427
22
198.368408
32
51.772949
13
-68.723427
23
198.368408
33
51.772949
0
3DFACE
8
0
70
0
10
-59.480415
20
182.297607
30
79.031998
11
-71.002426
21
198.190674
31
76.461983
12
-71.358368
22
188.833313
32
50.177738
13
-71.358368
23
188.833313
33
50.177738
0
3DFACE
8
0
70
0
10
-59.480415
20
182.297607
30
79.031998
11
-59.132019
21
198.427429
31
85.537064
12
-71.002426
22
198.190674
32
76.461983
13
-71.002426
23
198.190674
33
76.461983
0
3DFACE
8
0
70
0
10
-48.890934
20
179.840576
30
90.757713
11
-59.132019
21
198.427429
31
85.537064
12
-59.480415
22
182.297607
32
79.031998
13
-59.480415
23
182.297607
33
79.031998
0
3DFACE
8
0
70
0
10
-68.723427
20
198.368408
30
51.772949
11
-59.707783
21
211.453552
31
77.966576
12
-66.432526
22
211.466766
32
52.643444
13
-66.432526
23
211.466766
33
52.643444
0
3DFACE
8
0
70
0
10
-71.002426
20
198.190674
30
76.461983
11
-59.707783
21
211.453552
31
77.966576
12
-68.723427
22
198.368408
32
51.772949
13
-68.723427
23
198.368408
33
51.772949
0
3DFACE
8
0
70
0
10
-59.132019
20
198.427429
30
85.537064
11
-51.671997
21
210.346069
31
88.847801
12
-59.707783
22
211.453552
32
77.966576
13
-59.707783
23
211.453552
33
77.966576
0
3DFACE
8
0
70
0
10
-71.002426
20
198.190674
30
76.461983
11
-59.132019
21
198.427429
31
85.537064
12
-59.707783
22
211.453552
32
77.966576
13
-59.707783
23
211.453552
33
77.966576
0
3DFACE
8
0
70
0
10
-66.432526
20
211.466766
30
52.643444
11
-62.434814
21
225.316376
31
72.264297
12
-67.925163
22
220.569641
32
51.195900
13
-67.925163
23
220.569641
33
51.195900
0
3DFACE
8
0
70
0
10
-59.707783
20
211.453552
30
77.966576
11
-62.434814
21
225.316376
31
72.264297
12
-66.432526
22
211.466766
32
52.643444
13
-66.432526
23
211.466766
33
52.643444
0
3DFACE
8
0
70
0
10
18.591700
20
-76.595161
30
34.714420
11
17.424665
21
-55.113556
31
18.043736
12
17.015068
22
-62.307487
32
-10.204374
13
17.015068
23
-62.307487
33
-10.204374
0
3DFACE
8
0
70
0
10
18.591700
20
-76.595161
30
34.714420
11
17.015068
21
-62.307487
31
-10.204374
12
17.431627
22
-80.956924
32
8.536163
13
17.431627
23
-80.956924
33
8.536163
0
3DFACE
8
0
70
0
10
18.591700
20
-76.595161
30
34.714420
11
58.650230
21
-51.127945
31
20.472761
12
17.424665
22
-55.113556
32
18.043736
13
17.424665
23
-55.113556
33
18.043736
0
3DFACE
8
0
70
0
10
18.591700
20
-76.595161
30
34.714420
11
54.060310
21
-73.064041
31
36.235710
12
58.650230
22
-51.127945
32
20.472761
13
58.650230
23
-51.127945
33
20.472761
0
3DFACE
8
0
70
0
10
54.060310
20
-73.064041
30
36.235710
11
72.858131
21
-53.455978
31
6.706889
12
58.650230
22
-51.127945
32
20.472761
13
58.650230
23
-51.127945
33
20.472761
0
3DFACE
8
0
70
0
10
54.060310
20
-73.064041
30
36.235710
11
66.412621
21
-74.008186
31
23.388948
12
72.858131
22
-53.455978
32
6.706889
13
72.858131
23
-53.455978
33
6.706889
0
3DFACE
8
0
70
0
10
31.169071
20
-83.386131
30
-14.237695
11
17.015068
21
-62.307487
31
-10.204374
12
31.490980
22
-67.449203
32
-35.156685
13
31.490980
23
-67.449203
33
-35.156685
0
3DFACE
8
0
70
0
10
17.431627
20
-80.956924
30
8.536163
11
17.015068
21
-62.307487
31
-10.204374
12
31.169071
22
-83.386131
32
-14.237695
13
31.169071
23
-83.386131
33
-14.237695
0
3DFACE
8
0
70
0
10
62.235603
20
-77.478172
30
4.416835
11
67.793335
21
-59.146118
31
-14.107515
12
72.858131
22
-53.455978
32
6.706889
13
72.858131
23
-53.455978
33
6.706889
0
3DFACE
8
0
70
0
10
66.412621
20
-74.008186
30
23.388948
11
62.235603
21
-77.478172
31
4.416835
12
72.858131
22
-53.455978
32
6.706889
13
72.858131
23
-53.455978
33
6.706889
0
3DFACE
8
0
70
0
10
31.169071
20
-83.386131
30
-14.237695
11
31.490980
21
-67.449203
31
-35.156685
12
67.793335
22
-59.146118
32
-14.107515
13
67.793335
23
-59.146118
33
-14.107515
0
3DFACE
8
0
70
0
10
62.235603
20
-77.478172
30
4.416835
11
31.169071
21
-83.386131
31
-14.237695
12
67.793335
22
-59.146118
32
-14.107515
13
67.793335
23
-59.146118
33
-14.107515
0
3DFACE
8
0
70
0
10
-55.430405
20
-73.587296
30
44.968029
11
-40.534367
21
-76.551765
31
24.399235
12
-31.705013
22
-57.051086
32
8.844712
13
-31.705013
23
-57.051086
33
8.844712
0
3DFACE
8
0
70
0
10
-55.430405
20
-73.587296
30
44.968029
11
-31.705013
21
-57.051086
31
8.844712
12
-47.266430
22
-51.248291
32
31.507542
13
-47.266430
23
-51.248291
33
31.507542
0
3DFACE
8
0
70
0
10
-55.430405
20
-73.587296
30
44.968029
11
-47.266430
21
-51.248291
31
31.507542
12
-82.266182
22
-54.196518
32
7.310884
13
-82.266182
23
-54.196518
33
7.310884
0
3DFACE
8
0
70
0
10
-55.430405
20
-73.587296
30
44.968029
11
-82.266182
21
-54.196518
31
7.310884
12
-85.253090
22
-75.997284
32
23.682524
13
-85.253090
23
-75.997284
33
23.682524
0
3DFACE
8
0
70
0
10
-85.253090
20
-75.997284
30
23.682524
11
-82.266182
21
-54.196518
31
7.310884
12
-86.456932
22
-58.230087
32
-12.878283
13
-86.456932
23
-58.230087
33
-12.878283
0
3DFACE
8
0
70
0
10
-85.253090
20
-75.997284
30
23.682524
11
-86.456932
21
-58.230087
31
-12.878283
12
-88.512444
22
-78.394608
32
5.382951
13
-88.512444
23
-78.394608
33
5.382951
0
3DFACE
8
0
70
0
10
-39.637787
20
-80.206367
30
-2.859215
11
-30.084909
21
-63.418602
31
-20.592159
12
-31.705013
22
-57.051086
32
8.844712
13
-31.705013
23
-57.051086
33
8.844712
0
3DFACE
8
0
70
0
10
-40.534367
20
-76.551765
30
24.399235
11
-39.637787
21
-80.206367
31
-2.859215
12
-31.705013
22
-57.051086
32
8.844712
13
-31.705013
23
-57.051086
33
8.844712
0
3DFACE
8
0
70
0
10
-88.512444
20
-78.394608
30
5.382951
11
-86.456932
21
-58.230087
31
-12.878283
12
-74.987892
22
-80.299683
32
-7.405187
13
-74.987892
23
-80.299683
33
-7.405187
0
3DFACE
8
0
70
0
10
-74.987892
20
-80.299683
30
-7.405187
11
-86.456932
21
-58.230087
31
-12.878283
12
-71.098190
22
-62.107216
32
-26.553921
13
-71.098190
23
-62.107216
33
-26.553921
0
3DFACE
8
0
70
0
10
-74.987892
20
-80.299683
30
-7.405187
11
-71.098190
21
-62.107216
31
-26.553921
12
-39.637787
22
-80.206367
32
-2.859215
13
-39.637787
23
-80.206367
33
-2.859215
0
3DFACE
8
0
70
0
10
-39.637787
20
-80.206367
30
-2.859215
11
-71.098190
21
-62.107216
31
-26.553921
12
-30.084909
22
-63.418602
32
-20.592159
13
-30.084909
23
-63.418602
33
-20.592159
0
3DFACE
8
0
70
0
10
26.650753
20
-99.888336
30
18.237461
11
18.591700
21
-76.595161
31
34.714420
12
17.431627
22
-80.956924
32
8.536163
13
17.431627
23
-80.956924
33
8.536163
0
3DFACE
8
0
70
0
10
27.050720
20
-127.463249
30
-11.338812
11
26.650753
21
-99.888336
31
18.237461
12
17.431627
22
-80.956924
32
8.536163
13
17.431627
23
-80.956924
33
8.536163
0
3DFACE
8
0
70
0
10
61.275032
20
-102.451042
30
15.984209
11
54.060310
21
-73.064041
31
36.235710
12
26.650753
22
-99.888336
32
18.237461
13
26.650753
23
-99.888336
33
18.237461
0
3DFACE
8
0
70
0
10
26.650753
20
-99.888336
30
18.237461
11
54.060310
21
-73.064041
31
36.235710
12
18.591700
22
-76.595161
32
34.714420
13
18.591700
23
-76.595161
33
34.714420
0
3DFACE
8
0
70
0
10
74.010643
20
-122.872536
30
-0.211017
11
66.412621
21
-74.008186
31
23.388948
12
61.275032
22
-102.451042
32
15.984209
13
61.275032
23
-102.451042
33
15.984209
0
3DFACE
8
0
70
0
10
61.275032
20
-102.451042
30
15.984209
11
66.412621
21
-74.008186
31
23.388948
12
54.060310
22
-73.064041
32
36.235710
13
54.060310
23
-73.064041
33
36.235710
0
3DFACE
8
0
70
0
10
27.050720
20
-127.463249
30
-11.338812
11
17.431627
21
-80.956924
31
8.536163
12
31.169071
22
-83.386131
32
-14.237695
13
31.169071
23
-83.386131
33
-14.237695
0
3DFACE
8
0
70
0
10
18.895451
20
-157.561691
30
-44.816471
11
27.050720
21
-127.463249
31
-11.338812
12
31.169071
22
-83.386131
32
-14.237695
13
31.169071
23
-83.386131
33
-14.237695
0
3DFACE
8
0
70
0
10
87.706421
20
-149.657394
30
-26.510845
11
62.235603
21
-77.478172
31
4.416835
12
74.010643
22
-122.872536
32
-0.211017
13
74.010643
23
-122.872536
33
-0.211017
0
3DFACE
8
0
70
0
10
74.010643
20
-122.872536
30
-0.211017
11
62.235603
21
-77.478172
31
4.416835
12
66.412621
22
-74.008186
32
23.388948
13
66.412621
23
-74.008186
33
23.388948
0
3DFACE
8
0
70
0
10
18.895451
20
-157.561691
30
-44.816471
11
31.169071
21
-83.386131
31
-14.237695
12
87.706421
22
-149.657394
32
-26.510845
13
87.706421
23
-149.657394
33
-26.510845
0
3DFACE
8
0
70
0
10
87.706421
20
-149.657394
30
-26.510845
11
31.169071
21
-83.386131
31
-14.237695
12
62.235603
22
-77.478172
32
4.416835
13
62.235603
23
-77.478172
33
4.416835
0
3DFACE
8
0
70
0
10
-33.314526
20
-124.286804
30
0.417171
11
-40.534367
21
-76.551765
31
24.399235
12
-47.342640
22
-97.628731
32
26.202164
13
-47.342640
23
-97.628731
33
26.202164
0
3DFACE
8
0
70
0
10
-47.342640
20
-97.628731
30
26.202164
11
-40.534367
21
-76.551765
31
24.399235
12
-55.430405
22
-73.587296
32
44.968029
13
-55.430405
23
-73.587296
33
44.968029
0
3DFACE
8
0
70
0
10
-47.342640
20
-97.628731
30
26.202164
11
-55.430405
21
-73.587296
31
44.968029
12
-85.253090
22
-75.997284
32
23.682524
13
-85.253090
23
-75.997284
33
23.682524
0
3DFACE
8
0
70
0
10
-76.541367
20
-104.709267
30
6.627674
11
-47.342640
21
-97.628731
31
26.202164
12
-85.253090
22
-75.997284
32
23.682524
13
-85.253090
23
-75.997284
33
23.682524
0
3DFACE
8
0
70
0
10
-76.541367
20
-104.709267
30
6.627674
11
-85.253090
21
-75.997284
31
23.682524
12
-88.512444
22
-78.394608
32
5.382951
13
-88.512444
23
-78.394608
33
5.382951
0
3DFACE
8
0
70
0
10
-79.489822
20
-126.269394
30
-13.783319
11
-76.541367
21
-104.709267
31
6.627674
12
-88.512444
22
-78.394608
32
5.382951
13
-88.512444
23
-78.394608
33
5.382951
0
3DFACE
8
0
70
0
10
-9.966776
20
-152.209641
30
-24.402647
11
-39.637787
21
-80.206367
31
-2.859215
12
-33.314526
22
-124.286804
32
0.417171
13
-33.314526
23
-124.286804
33
0.417171
0
3DFACE
8
0
70
0
10
-33.314526
20
-124.286804
30
0.417171
11
-39.637787
21
-80.206367
31
-2.859215
12
-40.534367
22
-76.551765
32
24.399235
13
-40.534367
23
-76.551765
33
24.399235
0
3DFACE
8
0
70
0
10
-79.489822
20
-126.269394
30
-13.783319
11
-88.512444
21
-78.394608
31
5.382951
12
-74.987892
22
-80.299683
32
-7.405187
13
-74.987892
23
-80.299683
33
-7.405187
0
3DFACE
8
0
70
0
10
-78.557442
20
-154.000290
30
-43.470371
11
-79.489822
21
-126.269394
31
-13.783319
12
-74.987892
22
-80.299683
32
-7.405187
13
-74.987892
23
-80.299683
33
-7.405187
0
3DFACE
8
0
70
0
10
-78.557442
20
-154.000290
30
-43.470371
11
-74.987892
21
-80.299683
31
-7.405187
12
-39.637787
22
-80.206367
32
-2.859215
13
-39.637787
23
-80.206367
33
-2.859215
0
3DFACE
8
0
70
0
10
-9.966776
20
-152.209641
30
-24.402647
11
-78.557442
21
-154.000290
31
-43.470371
12
-39.637787
22
-80.206367
32
-2.859215
13
-39.637787
23
-80.206367
33
-2.859215
0
3DFACE
8
0
70
0
10
95.725784
20
27.106766
30
78.673859
11
-1.757164
21
46.675095
31
121.139061
12
-1.757164
22
28.830383
32
109.438293
13
-1.757164
23
28.830383
33
109.438293
0
3DFACE
8
0
70
0
10
95.725784
20
27.106766
30
78.673859
11
96.603249
21
60.600525
31
90.604652
12
-1.757164
22
46.675095
32
121.139061
13
-1.757164
23
46.675095
33
121.139061
0
3DFACE
8
0
70
0
10
95.725792
20
18.550354
30
-79.078072
11
-1.783790
21
17.163391
31
-109.782501
12
-1.757160
22
50.506195
32
-101.843452
13
-1.757160
23
50.506195
33
-101.843452
0
3DFACE
8
0
70
0
10
95.725792
20
18.550354
30
-79.078072
11
-1.757160
21
50.506195
31
-101.843452
12
96.603249
22
52.063339
32
-66.792725
13
96.603249
23
52.063339
33
-66.792725
0
3DFACE
8
0
70
0
10
95.725784
20
27.106766
30
78.673859
11
120.313789
21
55.855179
31
3.116294
12
96.603249
22
60.600525
32
90.604652
13
96.603249
23
60.600525
33
90.604652
0
3DFACE
8
0
70
0
10
95.725784
20
27.106766
30
78.673859
11
119.231941
21
22.944183
31
1.929684
12
120.313789
22
55.855179
32
3.116294
13
120.313789
23
55.855179
33
3.116294
0
3DFACE
8
0
70
0
10
119.231941
20
22.944183
30
1.929684
11
95.725792
21
18.550354
31
-79.078072
12
96.603249
22
52.063339
32
-66.792725
13
96.603249
23
52.063339
33
-66.792725
0
3DFACE
8
0
70
0
10
119.231941
20
22.944183
30
1.929684
11
96.603249
21
52.063339
31
-66.792725
12
120.313789
22
55.855179
32
3.116294
13
120.313789
23
55.855179
33
3.116294
0
3DFACE
8
0
70
0
10
-99.240120
20
27.106766
30
78.673866
11
-1.757164
21
28.830383
31
109.438293
12
-1.757164
22
46.675095
32
121.139061
13
-1.757164
23
46.675095
33
121.139061
0
3DFACE
8
0
70
0
10
-99.240120
20
27.106766
30
78.673866
11
-1.757164
21
46.675095
31
121.139061
12
-100.117569
22
60.600525
32
90.604652
13
-100.117569
23
60.600525
33
90.604652
0
3DFACE
8
0
70
0
10
-99.240112
20
18.550354
30
-79.078064
11
-1.757160
21
50.506195
31
-101.843452
12
-1.783790
22
17.163391
32
-109.782501
13
-1.783790
23
17.163391
33
-109.782501
0
3DFACE
8
0
70
0
10
-99.240112
20
18.550354
30
-79.078064
11
-100.117569
21
52.063339
31
-66.792717
12
-1.757160
22
50.506195
32
-101.843452
13
-1.757160
23
50.506195
33
-101.843452
0
3DFACE
8
0
70
0
10
-99.240120
20
27.106766
30
78.673866
11
-123.828117
21
55.855194
31
3.116299
12
-122.746246
22
22.944183
32
1.929689
13
-122.746246
23
22.944183
33
1.929689
0
3DFACE
8
0
70
0
10
-99.240120
20
27.106766
30
78.673866
11
-100.117569
21
60.600525
31
90.604652
12
-123.828117
22
55.855194
32
3.116299
13
-123.828117
23
55.855194
33
3.116299
0
3DFACE
8
0
70
0
10
-122.746246
20
22.944183
30
1.929689
11
-123.828117
21
55.855194
31
3.116299
12
-100.117569
22
52.063339
32
-66.792717
13
-100.117569
23
52.063339
33
-66.792717
0
3DFACE
8
0
70
0
10
-122.746246
20
22.944183
30
1.929689
11
-100.117569
21
52.063339
31
-66.792717
12
-99.240112
22
18.550354
32
-79.078064
13
-99.240112
23
18.550354
33
-79.078064
0
3DFACE
8
0
70
0
10
-1.757164
20
46.675095
30
121.139061
11
51.441730
21
127.858093
31
61.715469
12
-1.757164
22
128.754761
32
70.411819
13
-1.757164
23
128.754761
33
70.411819
0
3DFACE
8
0
70
0
10
-1.757164
20
46.675095
30
121.139061
11
96.603249
21
60.600525
31
90.604652
12
51.441730
22
127.858093
32
61.715469
13
51.441730
23
127.858093
33
61.715469
0
3DFACE
8
0
70
0
10
96.603249
20
52.063339
30
-66.792725
11
-1.757160
21
50.506195
31
-101.843452
12
51.681934
22
144.219849
32
-35.670307
13
51.681934
23
144.219849
33
-35.670307
0
3DFACE
8
0
70
0
10
-1.757160
20
50.506195
30
-101.843452
11
-1.820645
21
146.970581
31
-45.562836
12
51.681934
22
144.219849
32
-35.670307
13
51.681934
23
144.219849
33
-35.670307
0
3DFACE
8
0
70
0
10
96.603249
20
60.600525
30
90.604652
11
104.384010
21
108.272186
31
-2.798433
12
81.216515
22
117.057190
32
39.428734
13
81.216515
23
117.057190
33
39.428734
0
3DFACE
8
0
70
0
10
96.603249
20
60.600525
30
90.604652
11
120.313789
21
55.855179
31
3.116294
12
104.384010
22
108.272186
32
-2.798433
13
104.384010
23
108.272186
33
-2.798433
0
3DFACE
8
0
70
0
10
96.603249
20
52.063339
30
-66.792725
11
79.600594
21
131.066772
31
-31.498581
12
104.384010
22
108.272186
32
-2.798433
13
104.384010
23
108.272186
33
-2.798433
0
3DFACE
8
0
70
0
10
120.313789
20
55.855179
30
3.116294
11
96.603249
21
52.063339
31
-66.792725
12
104.384010
22
108.272186
32
-2.798433
13
104.384010
23
108.272186
33
-2.798433
0
3DFACE
8
0
70
0
10
96.603249
20
60.600525
30
90.604652
11
81.216515
21
117.057190
31
39.428734
12
51.441730
22
127.858093
32
61.715469
13
51.441730
23
127.858093
33
61.715469
0
3DFACE
8
0
70
0
10
96.603249
20
52.063339
30
-66.792725
11
51.681934
21
144.219849
31
-35.670307
12
79.600594
22
131.066772
32
-31.498581
13
79.600594
23
131.066772
33
-31.498581
0
3DFACE
8
0
70
0
10
-1.757164
20
46.675095
30
121.139061
11
-55.017273
21
127.858093
31
61.715473
12
-100.117569
22
60.600525
32
90.604652
13
-100.117569
23
60.600525
33
90.604652
0
3DFACE
8
0
70
0
10
-1.757164
20
46.675095
30
121.139061
11
-1.757164
21
128.754761
31
70.411819
12
-55.017273
22
127.858093
32
61.715473
13
-55.017273
23
127.858093
33
61.715473
0
3DFACE
8
0
70
0
10
-100.117569
20
52.063339
30
-66.792717
11
-55.274170
21
144.219849
31
-35.670303
12
-1.757160
22
50.506195
32
-101.843452
13
-1.757160
23
50.506195
33
-101.843452
0
3DFACE
8
0
70
0
10
-1.757160
20
50.506195
30
-101.843452
11
-55.274170
21
144.219849
31
-35.670303
12
-1.820645
22
146.970581
32
-45.562836
13
-1.820645
23
146.970581
33
-45.562836
0
3DFACE
8
0
70
0
10
-100.117569
20
60.600525
30
90.604652
11
-82.738983
21
137.351135
31
49.749531
12
-95.454735
22
101.790405
32
14.657833
13
-95.454735
23
101.790405
33
14.657833
0
3DFACE
8
0
70
0
10
-100.117569
20
60.600525
30
90.604652
11
-95.454735
21
101.790405
31
14.657833
12
-123.828117
22
55.855194
32
3.116299
13
-123.828117
23
55.855194
33
3.116299
0
3DFACE
8
0
70
0
10
-123.828117
20
55.855194
30
3.116299
11
-95.454735
21
101.790405
31
14.657833
12
-100.117569
22
52.063339
32
-66.792717
13
-100.117569
23
52.063339
33
-66.792717
0
3DFACE
8
0
70
0
10
-100.117569
20
52.063339
30
-66.792717
11
-95.454735
21
101.790405
31
14.657833
12
-76.303802
22
120.213226
32
-25.932917
13
-76.303802
23
120.213226
33
-25.932917
0
3DFACE
8
0
70
0
10
-100.117569
20
60.600525
30
90.604652
11
-55.017273
21
127.858093
31
61.715473
12
-82.738983
22
137.351135
32
49.749531
13
-82.738983
23
137.351135
33
49.749531
0
3DFACE
8
0
70
0
10
-100.117569
20
52.063339
30
-66.792717
11
-76.303802
21
120.213226
31
-25.932917
12
-55.274170
22
144.219849
32
-35.670303
13
-55.274170
23
144.219849
33
-35.670303
0
3DFACE
8
0
70
0
10
104.384010
20
108.272186
30
-2.798433
11
147.045593
21
125.251160
31
40.475014
12
81.216515
22
117.057190
32
39.428734
13
81.216515
23
117.057190
33
39.428734
0
3DFACE
8
0
70
0
10
182.623489
20
134.885681
30
9.235073
11
147.045593
21
125.251160
31
40.475014
12
104.384010
22
108.272186
32
-2.798433
13
104.384010
23
108.272186
33
-2.798433
0
3DFACE
8
0
70
0
10
81.216515
20
117.057190
30
39.428734
11
158.009888
21
177.115204
31
38.580257
12
57.946964
22
148.291656
32
3.316956
13
57.946964
23
148.291656
33
3.316956
0
3DFACE
8
0
70
0
10
81.216515
20
117.057190
30
39.428734
11
147.045593
21
125.251160
31
40.475014
12
158.009888
22
177.115204
32
38.580257
13
158.009888
23
177.115204
33
38.580257
0
3DFACE
8
0
70
0
10
79.600594
20
131.066772
30
-31.498581
11
57.946964
21
148.291656
31
3.316956
12
158.009888
22
177.115204
32
38.580257
13
158.009888
23
177.115204
33
38.580257
0
3DFACE
8
0
70
0
10
79.600594
20
131.066772
30
-31.498581
11
158.009888
21
177.115204
31
38.580257
12
190.248520
22
179.329834
32
9.241978
13
190.248520
23
179.329834
33
9.241978
0
3DFACE
8
0
70
0
10
104.384010
20
108.272186
30
-2.798433
11
79.600594
21
131.066772
31
-31.498581
12
190.248520
22
179.329834
32
9.241978
13
190.248520
23
179.329834
33
9.241978
0
3DFACE
8
0
70
0
10
182.623489
20
134.885681
30
9.235073
11
104.384010
21
108.272186
31
-2.798433
12
190.248520
22
179.329834
32
9.241978
13
190.248520
23
179.329834
33
9.241978
0
3DFACE
8
0
70
0
10
-95.454735
20
101.790405
30
14.657833
11
-82.738983
21
137.351135
31
49.749531
12
-146.839691
22
114.669830
32
41.667198
13
-146.839691
23
114.669830
33
41.667198
0
3DFACE
8
0
70
0
10
-152.955490
20
67.672256
30
32.382698
11
-95.454735
21
101.790405
31
14.657833
12
-146.839691
22
114.669830
32
41.667198
13
-146.839691
23
114.669830
33
41.667198
0
3DFACE
8
0
70
0
10
-82.738983
20
137.351135
30
49.749531
11
-63.299820
21
153.185059
31
2.636666
12
-175.877411
22
106.935699
32
-2.015765
13
-175.877411
23
106.935699
33
-2.015765
0
3DFACE
8
0
70
0
10
-82.738983
20
137.351135
30
49.749531
11
-175.877411
21
106.935699
31
-2.015765
12
-146.839691
22
114.669830
32
41.667198
13
-146.839691
23
114.669830
33
41.667198
0
3DFACE
8
0
70
0
10
-76.303802
20
120.213226
30
-25.932917
11
-175.877411
21
106.935699
31
-2.015765
12
-63.299820
22
153.185059
32
2.636666
13
-63.299820
23
153.185059
33
2.636666
0
3DFACE
8
0
70
0
10
-76.303802
20
120.213226
30
-25.932917
11
-177.800842
21
63.449768
31
-4.989046
12
-175.877411
22
106.935699
32
-2.015765
13
-175.877411
23
106.935699
33
-2.015765
0
3DFACE
8
0
70
0
10
-95.454735
20
101.790405
30
14.657833
11
-177.800842
21
63.449768
31
-4.989046
12
-76.303802
22
120.213226
32
-25.932917
13
-76.303802
23
120.213226
33
-25.932917
0
3DFACE
8
0
70
0
10
-152.955490
20
67.672256
30
32.382698
11
-177.800842
21
63.449768
31
-4.989046
12
-95.454735
22
101.790405
32
14.657833
13
-95.454735
23
101.790405
33
14.657833
0
3DFACE
8
0
70
0
10
-175.761078
20
81.559631
30
69.725693
11
-152.955490
21
67.672256
31
32.382698
12
-146.839691
22
114.669830
32
41.667198
13
-146.839691
23
114.669830
33
41.667198
0
3DFACE
8
0
70
0
10
-175.761078
20
81.559631
30
69.725693
11
-146.839691
21
114.669830
31
41.667198
12
-150.935654
22
120.488617
32
54.538528
13
-150.935654
23
120.488617
33
54.538528
0
3DFACE
8
0
70
0
10
-150.935654
20
120.488617
30
54.538528
11
-146.839691
21
114.669830
31
41.667198
12
-175.877411
22
106.935699
32
-2.015765
13
-175.877411
23
106.935699
33
-2.015765
0
3DFACE
8
0
70
0
10
-150.935654
20
120.488617
30
54.538528
11
-175.877411
21
106.935699
31
-2.015765
12
-201.978668
22
125.017761
32
40.488598
13
-201.978668
23
125.017761
33
40.488598
0
3DFACE
8
0
70
0
10
-218.811996
20
87.796631
30
56.581665
11
-201.978668
21
125.017761
31
40.488598
12
-175.877411
22
106.935699
32
-2.015765
13
-175.877411
23
106.935699
33
-2.015765
0
3DFACE
8
0
70
0
10
-218.811996
20
87.796631
30
56.581665
11
-175.877411
21
106.935699
31
-2.015765
12
-177.800842
22
63.449768
32
-4.989046
13
-177.800842
23
63.449768
33
-4.989046
0
3DFACE
8
0
70
0
10
-175.761078
20
81.559631
30
69.725693
11
-218.811996
21
87.796631
31
56.581665
12
-177.800842
22
63.449768
32
-4.989046
13
-177.800842
23
63.449768
33
-4.989046
0
3DFACE
8
0
70
0
10
-175.761078
20
81.559631
30
69.725693
11
-177.800842
21
63.449768
31
-4.989046
12
-152.955490
22
67.672256
32
32.382698
13
-152.955490
23
67.672256
33
32.382698
0
3DFACE
8
0
70
0
10
201.791885
20
115.672943
30
46.259472
11
147.045593
21
125.251160
31
40.475014
12
182.623489
22
134.885681
32
9.235073
13
182.623489
23
134.885681
33
9.235073
0
3DFACE
8
0
70
0
10
201.791885
20
115.672943
30
46.259472
11
153.718582
21
117.999084
31
53.039085
12
147.045593
22
125.251160
32
40.475014
13
147.045593
23
125.251160
33
40.475014
0
3DFACE
8
0
70
0
10
153.718582
20
117.999084
30
53.039085
11
158.009888
21
177.115204
31
38.580257
12
147.045593
22
125.251160
32
40.475014
13
147.045593
23
125.251160
33
40.475014
0
3DFACE
8
0
70
0
10
153.718582
20
117.999084
30
53.039085
11
177.896210
21
155.188354
31
82.291519
12
158.009888
22
177.115204
32
38.580257
13
158.009888
23
177.115204
33
38.580257
0
3DFACE
8
0
70
0
10
220.049973
20
148.238770
30
72.166115
11
190.248520
21
179.329834
31
9.241978
12
158.009888
22
177.115204
32
38.580257
13
158.009888
23
177.115204
33
38.580257
0
3DFACE
8
0
70
0
10
220.049973
20
148.238770
30
72.166115
11
158.009888
21
177.115204
31
38.580257
12
177.896210
22
155.188354
32
82.291519
13
177.896210
23
155.188354
33
82.291519
0
3DFACE
8
0
70
0
10
201.791885
20
115.672943
30
46.259472
11
182.623489
21
134.885681
31
9.235073
12
190.248520
22
179.329834
32
9.241978
13
190.248520
23
179.329834
33
9.241978
0
3DFACE
8
0
70
0
10
201.791885
20
115.672943
30
46.259472
11
190.248520
21
179.329834
31
9.241978
12
220.049973
22
148.238770
32
72.166115
13
220.049973
23
148.238770
33
72.166115
0
3DFACE
8
0
70
0
10
3.124976
20
299.775513
30
-1.368211
11
7.045481
21
297.420044
31
0.797004
12
-6.391259
22
295.252380
32
28.833208
13
-22.518835
23
298.620239
33
25.516880
0
3DFACE
8
0
70
0
10
11.183430
20
299.775513
30
2.510451
11
6.261361
21
298.620239
31
39.369240
12
-6.391259
22
295.252380
32
28.833208
13
7.045481
23
297.420044
33
0.797004
0
3DFACE
8
0
70
0
10
14.048865
20
303.271881
30
3.476613
11
13.339589
21
303.619415
31
49.375740
12
6.261361
22
298.620239
32
39.369240
13
11.183430
23
299.775513
33
2.510451
0
3DFACE
8
0
70
0
10
13.595244
20
306.848633
30
2.835789
11
8.491523
21
308.733490
31
53.793682
12
13.339589
22
303.619415
32
49.375740
13
14.048865
23
303.271881
33
3.476613
0
3DFACE
8
0
70
0
10
13.124115
20
311.282776
30
2.085266
11
2.807155
21
315.073486
31
59.427452
12
8.491523
22
308.733490
32
53.793682
13
13.595244
23
306.848633
33
2.835789
0
3DFACE
8
0
70
0
10
10.213493
20
313.435608
30
0.430057
11
-9.530823
21
318.151642
31
57.552631
12
2.807155
22
315.073486
32
59.427452
13
13.124115
23
311.282776
33
2.085266
0
3DFACE
8
0
70
0
10
7.842748
20
314.692017
30
-0.859417
11
-19.131643
21
319.948029
31
55.303139
12
-9.530823
22
318.151642
32
57.552631
13
10.213493
23
313.435608
33
0.430057
0
3DFACE
8
0
70
0
10
7.842748
20
314.692017
30
-0.859417
11
5.356019
21
313.435608
31
-1.907923
12
-26.878944
22
318.151642
32
49.202705
13
-19.131643
23
319.948029
33
55.303139
0
3DFACE
8
0
70
0
10
5.356019
20
313.435608
30
-1.907923
11
2.246659
21
311.282776
31
-3.150227
12
-36.040905
22
315.073486
32
40.729267
13
-26.878944
23
318.151642
33
49.202705
0
3DFACE
8
0
70
0
10
2.246659
20
311.282776
30
-3.150227
11
1.366171
21
306.848633
31
-3.050258
12
-35.183743
22
308.733521
32
32.772087
13
-36.040905
23
315.073486
33
40.729267
0
3DFACE
8
0
70
0
10
1.366171
20
306.848633
30
-3.050258
11
0.582347
21
303.271881
31
-3.005037
12
-34.755127
22
303.619415
32
26.226997
13
-35.183743
23
308.733521
33
32.772087
0
3DFACE
8
0
70
0
10
0.582347
20
303.271881
30
-3.005037
11
3.124976
21
299.775513
31
-1.368211
12
-22.518835
22
298.620239
32
25.516880
13
-34.755127
23
303.619415
33
26.226997
0
ENDSEC
0
EOF
