0
SECTION
2
HEADER
999
DXF File Generated by LightWave 3D(TM)
0
ENDSEC
0
SECTION
2
TABLES
0
ENDSEC
0
SECTION
2
BLOCKS
0
ENDSEC
0
SECTION
2
ENTITIES
0
3DFACE
8
0
70
0
10
4.511983
20
0.256149
30
93.396568
11
35.317539
21
-106.673302
31
47.713390
12
73.129379
22
-93.045120
32
25.285269
13
68.223083
23
-16.600830
33
68.273361
0
3DFACE
8
0
70
0
10
58.824295
20
-58.380234
30
-46.306545
11
61.896770
21
-42.333908
31
-25.856932
12
18.036596
22
-28.656036
32
-30.966923
13
-8.762918
23
-58.753326
33
-68.436729
0
3DFACE
8
0
70
0
10
5.243622
20
0.854263
30
114.960526
11
4.511983
21
0.256149
31
93.396568
12
68.223083
22
-16.600830
32
68.273361
13
89.622124
23
-20.902908
33
83.853310
0
3DFACE
8
0
70
0
10
77.727661
20
-73.776070
30
-61.151161
11
58.824295
21
-58.380234
31
-46.306545
12
-8.762918
22
-58.753326
32
-68.436729
13
-11.289680
23
-72.639427
33
-86.595695
0
3DFACE
8
0
70
0
10
6.658881
20
8.525528
30
125.638657
11
95.981323
21
-15.351547
31
90.706062
12
117.282104
22
34.453720
32
76.839256
13
13.783457
23
61.298111
33
111.960556
0
3DFACE
8
0
70
0
10
82.540581
20
-75.098213
30
-73.148987
11
-12.023750
21
-74.522346
31
-102.119873
12
-4.890631
22
-21.745682
32
-115.800575
13
103.841370
23
-25.292946
33
-87.015793
0
3DFACE
8
0
70
0
10
13.783457
20
61.298111
30
111.960556
11
117.282104
21
34.453720
31
76.839256
12
110.749672
22
33.564117
32
68.830963
13
12.987781
23
58.216187
33
100.092918
0
3DFACE
8
0
70
0
10
6.658881
20
8.525528
30
125.638657
11
5.243622
21
0.854263
31
114.960526
12
89.622124
22
-20.902908
32
83.853310
13
95.981323
23
-15.351547
33
90.706062
0
3DFACE
8
0
70
0
10
103.841370
20
-25.292946
30
-87.015793
11
-4.890631
21
-21.745682
31
-115.800575
12
-3.238732
22
-15.149231
32
-101.560997
13
98.855209
23
-19.309052
33
-76.173508
0
3DFACE
8
0
70
0
10
82.540581
20
-75.098213
30
-73.148987
11
77.727661
21
-73.776070
31
-61.151161
12
-11.289680
22
-72.639427
32
-86.595695
13
-12.023750
23
-74.522346
33
-102.119873
0
3DFACE
8
0
70
0
10
24.848269
20
-191.200974
30
67.009544
11
71.986420
21
-191.080536
31
66.616196
12
63.988285
22
-169.099792
32
53.989136
13
31.000347
23
-169.368454
33
54.246002
0
3DFACE
8
0
70
0
10
68.223083
20
-16.600830
30
68.273361
11
73.129379
21
-93.045120
31
25.285269
12
77.317200
22
-71.251129
32
-3.716499
13
79.338631
23
-39.276505
33
11.766627
0
3DFACE
8
0
70
0
10
89.622124
20
-20.902908
30
83.853310
11
68.223083
21
-16.600830
31
68.273361
12
79.338631
22
-39.276505
32
11.766627
13
104.822052
23
-49.621277
33
12.681664
0
3DFACE
8
0
70
0
10
117.282104
20
34.453720
30
76.839256
11
95.981323
21
-15.351547
31
90.706062
12
111.845848
22
-47.136726
32
11.598219
13
136.491455
23
2.190994
33
-2.368829
0
3DFACE
8
0
70
0
10
136.491455
20
2.190994
30
-2.368829
11
129.097565
21
4.396301
31
-2.435025
12
110.749672
22
33.564117
32
68.830963
13
117.282104
23
34.453720
33
76.839256
0
3DFACE
8
0
70
0
10
95.981323
20
-15.351547
30
90.706062
11
89.622124
21
-20.902908
31
83.853310
12
104.822052
22
-49.621277
32
12.681664
13
111.845848
23
-47.136726
33
11.598219
0
3DFACE
8
0
70
0
10
10.139175
20
-224.473434
30
63.815250
11
77.320328
21
-224.486191
31
63.236252
12
71.986420
22
-191.080536
32
66.616196
13
24.848269
23
-191.200974
33
67.009544
0
3DFACE
8
0
70
0
10
13.843957
20
163.842163
30
-21.191111
11
74.888885
21
141.647064
31
-24.637608
12
66.929749
22
124.061310
32
-62.014969
13
9.044233
23
134.274048
33
-65.244652
0
3DFACE
8
0
70
0
10
79.338631
20
-39.276505
30
11.766627
11
77.317200
21
-71.251129
31
-3.716499
12
61.896770
22
-42.333908
32
-25.856932
13
58.824295
23
-58.380234
33
-46.306545
0
3DFACE
8
0
70
0
10
104.822052
20
-49.621277
30
12.681664
11
79.338631
21
-39.276505
31
11.766627
12
58.824295
22
-58.380234
32
-46.306545
13
77.727661
23
-73.776070
33
-61.151161
0
3DFACE
8
0
70
0
10
111.845848
20
-47.136726
30
11.598219
11
82.540581
21
-75.098213
31
-73.148987
12
103.841370
22
-25.292946
32
-87.015793
13
136.491455
23
2.190994
33
-2.368829
0
3DFACE
8
0
70
0
10
103.841370
20
-25.292946
30
-87.015793
11
98.855209
21
-19.309052
31
-76.173508
12
129.097565
22
4.396301
32
-2.435025
13
136.491455
23
2.190994
33
-2.368829
0
3DFACE
8
0
70
0
10
111.845848
20
-47.136726
30
11.598219
11
104.822052
21
-49.621277
31
12.681664
12
77.727661
22
-73.776070
32
-61.151161
13
82.540581
23
-75.098213
33
-73.148987
0
3DFACE
8
0
70
0
10
28.155025
20
-104.952950
30
9.810616
11
35.317539
21
-106.673302
31
47.713390
12
18.489149
22
-71.215347
32
8.757687
13
16.469744
23
-82.419884
33
-2.654183
0
3DFACE
8
0
70
0
10
28.155025
20
-104.952950
30
9.810616
11
67.378319
21
-95.347923
31
-5.866143
12
73.129379
22
-93.045120
32
25.285269
13
35.317539
23
-106.673302
33
47.713390
0
3DFACE
8
0
70
0
10
67.378319
20
-95.347923
30
-5.866143
11
75.051872
21
-80.329742
31
-17.798792
12
77.317200
22
-71.251129
32
-3.716499
13
73.129379
23
-93.045120
33
25.285269
0
3DFACE
8
0
70
0
10
16.469744
20
-82.419884
30
-2.654183
11
18.489149
21
-71.215347
31
8.757687
12
18.036596
22
-28.656036
32
-30.966923
13
19.915014
23
-58.357903
33
-19.697906
0
3DFACE
8
0
70
0
10
75.051872
20
-80.329742
30
-17.798792
11
62.022316
21
-65.061142
31
-25.046671
12
61.896770
22
-42.333908
32
-25.856932
13
77.317200
23
-71.251129
33
-3.716499
0
3DFACE
8
0
70
0
10
62.022316
20
-65.061142
30
-25.046671
11
19.915014
21
-58.357903
31
-19.697906
12
18.036596
22
-28.656036
32
-30.966923
13
61.896770
23
-42.333908
33
-25.856932
0
3DFACE
8
0
70
0
10
24.071550
20
-166.262619
30
-28.096888
11
24.378984
21
-195.901428
31
9.331738
12
30.625231
22
-175.453583
32
7.429543
13
30.510536
23
-136.496078
33
-4.222586
0
3DFACE
8
0
70
0
10
30.510536
20
-136.496078
30
-4.222586
11
30.625231
21
-175.453583
31
7.429543
12
63.613506
22
-178.793564
32
6.107781
13
63.618965
23
-136.899689
33
-18.352261
0
3DFACE
8
0
70
0
10
72.748665
20
-157.444458
30
-35.389843
11
63.618965
21
-136.899689
31
-18.352261
12
63.613506
22
-178.793564
32
6.107781
13
71.517136
23
-195.781006
33
8.938394
0
3DFACE
8
0
70
0
10
8.326077
20
-199.466171
30
-52.152004
11
13.220001
21
-214.387146
31
-7.779098
12
24.378984
22
-195.901428
32
9.331738
13
24.071550
23
-166.262619
33
-28.096888
0
3DFACE
8
0
70
0
10
80.181396
20
-185.185974
30
-61.168491
11
72.748665
21
-157.444458
31
-35.389843
12
71.517136
22
-195.781006
32
8.938394
13
80.432999
23
-215.393539
33
-4.845582
0
3DFACE
8
0
70
0
10
80.181396
20
-185.185974
30
-61.168491
11
80.432999
21
-215.393539
31
-4.845582
12
13.220001
22
-214.387146
32
-7.779098
13
8.326077
23
-199.466171
33
-52.152004
0
3DFACE
8
0
70
0
10
24.848269
20
-191.200974
30
67.009544
11
31.000347
21
-169.368454
31
54.246002
12
30.625231
22
-175.453583
32
7.429543
13
24.378984
23
-195.901428
33
9.331738
0
3DFACE
8
0
70
0
10
31.000347
20
-169.368454
30
54.246002
11
63.988285
21
-169.099792
31
53.989136
12
63.613506
22
-178.793564
32
6.107781
13
30.625231
23
-175.453583
33
7.429543
0
3DFACE
8
0
70
0
10
71.986420
20
-191.080536
30
66.616196
11
71.517136
21
-195.781006
31
8.938394
12
63.613506
22
-178.793564
32
6.107781
13
63.988285
23
-169.099792
33
53.989136
0
3DFACE
8
0
70
0
10
10.139175
20
-224.473434
30
63.815250
11
24.848269
21
-191.200974
31
67.009544
12
24.378984
22
-195.901428
32
9.331738
13
13.220001
23
-214.387146
33
-7.779098
0
3DFACE
8
0
70
0
10
77.320328
20
-224.486191
30
63.236252
11
80.432999
21
-215.393539
31
-4.845582
12
71.517136
22
-195.781006
32
8.938394
13
71.986420
23
-191.080536
33
66.616196
0
3DFACE
8
0
70
0
10
77.320328
20
-224.486191
30
63.236252
11
10.139175
21
-224.473434
31
63.815250
12
13.220001
22
-214.387146
32
-7.779098
13
80.432999
23
-215.393539
33
-4.845582
0
3DFACE
8
0
70
0
10
-94.846466
20
95.201019
30
104.888390
11
-85.431320
21
111.132477
31
119.200729
12
-94.826454
22
117.287109
32
100.508301
13
-92.953590
23
101.044342
33
86.545616
0
3DFACE
8
0
70
0
10
96.147980
20
109.775085
30
-40.928741
11
66.929749
21
124.061310
31
-62.014969
12
74.888885
22
141.647064
32
-24.637608
13
74.888885
23
141.647064
33
-24.637608
0
3DFACE
8
0
70
0
10
77.862701
20
123.838562
30
17.052711
11
74.888885
21
141.647064
31
-24.637608
12
71.569992
22
128.709351
32
32.023769
13
71.569992
23
128.709351
33
32.023769
0
3DFACE
8
0
70
0
10
61.105904
20
119.886078
30
68.156784
11
65.766563
21
93.222717
31
108.527061
12
30.054274
22
87.764175
32
110.834419
13
25.233225
23
116.835449
33
71.072548
0
3DFACE
8
0
70
0
10
61.117504
20
151.565979
30
110.814583
11
61.105904
21
119.886078
31
68.156784
12
25.233225
22
116.835449
32
71.072548
13
25.043293
23
150.373718
33
112.930313
0
3DFACE
8
0
70
0
10
29.554346
20
119.320313
30
144.972717
11
65.502785
21
122.414490
31
143.352585
12
61.117504
22
151.565979
32
110.814583
13
25.043293
23
150.373718
33
112.930313
0
3DFACE
8
0
70
0
10
65.766563
20
93.222717
30
108.527061
11
65.502785
21
122.414490
31
143.352585
12
29.554346
22
119.320313
32
144.972717
13
30.054274
23
87.764175
33
110.834419
0
3DFACE
8
0
70
0
10
31.038671
20
76.263794
30
111.493858
11
-2.517448
21
70.201050
31
113.704140
12
-8.380544
22
113.929169
32
61.831001
13
24.496595
23
116.764374
33
58.947090
0
3DFACE
8
0
70
0
10
24.496595
20
116.764374
30
58.947090
11
-8.380544
21
113.929169
31
61.831001
12
-8.280943
22
162.828033
32
116.001183
13
24.057491
23
163.281860
33
114.134811
0
3DFACE
8
0
70
0
10
-2.768358
20
117.156433
30
157.811066
11
30.200476
21
120.044373
31
156.495331
12
24.057491
22
163.281860
32
114.134811
13
-8.280943
23
162.828033
33
116.001183
0
3DFACE
8
0
70
0
10
31.038671
20
76.263794
30
111.493858
11
30.200476
21
120.044373
31
156.495331
12
-2.768358
22
117.156433
32
157.811066
13
-2.517448
23
70.201050
33
113.704140
0
3DFACE
8
0
70
0
10
31.038671
20
76.263794
30
111.493858
11
24.496595
21
116.764374
31
58.947090
12
25.233225
22
116.835449
32
71.072548
13
30.054274
23
87.764175
33
110.834419
0
3DFACE
8
0
70
0
10
-2.517448
20
70.201050
30
113.704140
11
-3.579786
21
82.623322
31
113.007523
12
-7.659886
22
114.038177
32
73.746124
13
-8.380544
23
113.929169
33
61.831001
0
3DFACE
8
0
70
0
10
24.496595
20
116.764374
30
58.947090
11
24.057491
21
163.281860
31
114.134811
12
25.043293
22
150.373718
32
112.930313
13
25.233225
23
116.835449
33
71.072548
0
3DFACE
8
0
70
0
10
-8.380544
20
113.929169
30
61.831001
11
-7.659886
21
114.038177
31
73.746124
12
-7.243150
22
149.306610
32
114.823929
13
-8.280943
23
162.828033
33
116.001183
0
3DFACE
8
0
70
0
10
-2.768358
20
117.156433
30
157.811066
11
-8.280943
21
162.828033
31
116.001183
12
-7.243150
22
149.306610
32
114.823929
13
-3.408231
23
116.483063
33
146.458298
0
3DFACE
8
0
70
0
10
30.200476
20
120.044373
30
156.495331
11
29.554346
21
119.320313
31
144.972717
12
25.043293
22
150.373718
32
112.930313
13
24.057491
23
163.281860
33
114.134811
0
3DFACE
8
0
70
0
10
-2.517448
20
70.201050
30
113.704140
11
-2.768358
21
117.156433
31
157.811066
12
-3.408231
22
116.483063
32
146.458298
13
-3.579786
23
82.623322
33
113.007523
0
3DFACE
8
0
70
0
10
31.038671
20
76.263794
30
111.493858
11
30.054274
21
87.764175
31
110.834419
12
29.554346
22
119.320313
32
144.972717
13
30.200476
23
120.044373
33
156.495331
0
3DFACE
8
0
70
0
10
6.567739
20
95.856567
30
115.344147
11
8.815986
21
107.699005
31
84.874657
12
-7.659886
22
114.038177
32
73.746124
13
-3.579786
23
82.623322
33
113.007523
0
3DFACE
8
0
70
0
10
8.815986
20
107.699005
30
84.874657
11
5.175698
21
136.086121
31
105.440796
12
-7.243150
22
149.306610
32
114.823929
13
-7.659886
23
114.038177
33
73.746124
0
3DFACE
8
0
70
0
10
3.627301
20
122.056030
30
131.254745
11
-3.408231
21
116.483063
31
146.458298
12
-7.243150
22
149.306610
32
114.823929
13
5.175698
23
136.086121
33
105.440796
0
3DFACE
8
0
70
0
10
6.567739
20
95.856567
30
115.344147
11
-3.579786
21
82.623322
31
113.007523
12
-3.408231
22
116.483063
32
146.458298
13
3.627301
23
122.056030
33
131.254745
0
3DFACE
8
0
70
0
10
-36.353889
20
84.588898
30
61.613697
11
-36.476704
21
94.960297
31
57.999886
12
-23.657734
22
96.562408
32
59.028183
13
-23.502098
23
86.160339
33
62.536125
0
3DFACE
8
0
70
0
10
-36.476704
20
94.960297
30
57.999886
11
-36.744217
21
105.925873
31
55.004105
12
-23.930466
22
107.489166
32
55.912880
13
-23.657734
23
96.562408
33
59.028183
0
3DFACE
8
0
70
0
10
-30.636780
20
122.662079
30
140.838470
11
3.627301
21
122.056030
31
131.254745
12
5.175698
22
136.086121
32
105.440796
13
-28.079935
23
134.036926
33
106.435867
0
3DFACE
8
0
70
0
10
-26.668337
20
93.465118
30
115.256897
11
6.567739
21
95.856567
31
115.344147
12
3.627301
22
122.056030
32
131.254745
13
-30.636780
23
122.662079
33
140.838470
0
3DFACE
8
0
70
0
10
-94.846466
20
95.201019
30
104.888390
11
-92.953590
21
101.044342
31
86.545616
12
-38.683868
22
103.725220
32
79.575943
13
-26.668337
23
93.465118
33
115.256897
0
3DFACE
8
0
70
0
10
-92.953590
20
101.044342
30
86.545616
11
-94.826454
21
117.287109
31
100.508301
12
-28.079935
22
134.036926
32
106.435867
13
-38.683868
23
103.725220
33
79.575943
0
3DFACE
8
0
70
0
10
-85.431320
20
111.132477
30
119.200729
11
-30.636780
21
122.662079
31
140.838470
12
-28.079935
22
134.036926
32
106.435867
13
-94.826454
23
117.287109
33
100.508301
0
3DFACE
8
0
70
0
10
-94.846466
20
95.201019
30
104.888390
11
-26.668337
21
93.465118
31
115.256897
12
-30.636780
22
122.662079
32
140.838470
13
-85.431320
23
111.132477
33
119.200729
0
3DFACE
8
0
70
0
10
-36.353889
20
84.588898
30
61.613697
11
-23.502098
21
86.160339
31
62.536125
12
6.567739
22
95.856567
32
115.344147
13
-26.668337
23
93.465118
33
115.256897
0
3DFACE
8
0
70
0
10
-23.502098
20
86.160339
30
62.536125
11
-23.657734
21
96.562408
31
59.028183
12
8.815986
22
107.699005
32
84.874657
13
6.567739
23
95.856567
33
115.344147
0
3DFACE
8
0
70
0
10
-36.353889
20
84.588898
30
61.613697
11
-26.668337
21
93.465118
31
115.256897
12
-38.683868
22
103.725220
32
79.575943
13
-36.476704
23
94.960297
33
57.999886
0
3DFACE
8
0
70
0
10
-23.657734
20
96.562408
30
59.028183
11
-23.930466
21
107.489166
31
55.912880
12
5.175698
22
136.086121
32
105.440796
13
8.815986
23
107.699005
33
84.874657
0
3DFACE
8
0
70
0
10
-36.744217
20
105.925873
30
55.004105
11
-28.079935
21
134.036926
31
106.435867
12
5.175698
22
136.086121
32
105.440796
13
-23.930466
23
107.489166
33
55.912880
0
3DFACE
8
0
70
0
10
-36.476704
20
94.960297
30
57.999886
11
-38.683868
21
103.725220
31
79.575943
12
-28.079935
22
134.036926
32
106.435867
13
-36.744217
23
105.925873
33
55.004105
0
3DFACE
8
0
70
0
10
4.511983
20
0.256149
30
93.396568
11
-62.731377
21
2.095917
31
72.197914
12
-65.984848
22
16.613800
32
33.608181
13
-21.938189
23
24.885437
33
49.970779
0
3DFACE
8
0
70
0
10
-72.130165
20
-39.683495
30
-42.381996
11
-8.762918
21
-58.753326
31
-68.436729
12
-43.548027
22
-80.713852
32
-17.788158
13
-80.031242
23
-52.025734
33
-10.435133
0
3DFACE
8
0
70
0
10
5.243622
20
0.854263
30
114.960526
11
-83.527046
21
3.818085
31
89.042389
12
-62.731377
22
2.095917
32
72.197914
13
4.511983
23
0.256149
33
93.396568
0
3DFACE
8
0
70
0
10
-95.421509
20
-49.055069
30
-55.962086
11
-11.289680
21
-72.639427
31
-86.595695
12
-8.762918
22
-58.753326
32
-68.436729
13
-72.130165
23
-39.683495
33
-42.381996
0
3DFACE
8
0
70
0
10
6.658881
20
8.525528
30
125.638657
11
13.783457
21
61.298111
31
111.960556
12
-94.968422
22
64.757324
32
83.200157
13
-87.666885
23
10.868423
33
96.209785
0
3DFACE
8
0
70
0
10
-101.107628
20
-48.878235
30
-67.645264
11
-108.409164
21
5.010666
31
-80.654900
12
-4.890631
22
-21.745682
32
-115.800575
13
-12.023750
23
-74.522346
33
-102.119873
0
3DFACE
8
0
70
0
10
13.783457
20
61.298111
30
111.960556
11
12.987781
21
58.216187
31
100.092918
12
-89.426971
22
62.143906
32
74.830025
13
-94.968422
23
64.757324
33
83.200157
0
3DFACE
8
0
70
0
10
6.658881
20
8.525528
30
125.638657
11
-87.666885
21
10.868423
31
96.209785
12
-83.527046
22
3.818085
32
89.042389
13
5.243622
23
0.854263
33
114.960526
0
3DFACE
8
0
70
0
10
-108.409164
20
5.010666
30
-80.654900
11
-101.321434
21
9.270737
31
-70.174454
12
-3.238732
22
-15.149231
32
-101.560997
13
-4.890631
23
-21.745682
33
-115.800575
0
3DFACE
8
0
70
0
10
-101.107628
20
-48.878235
30
-67.645264
11
-12.023750
21
-74.522346
31
-102.119873
12
-11.289680
22
-72.639427
32
-86.595695
13
-95.421509
23
-49.055069
33
-55.962086
0
3DFACE
8
0
70
0
10
-50.321129
20
42.169159
30
168.794098
11
-56.735874
21
44.157730
31
143.648300
12
-89.725166
22
44.379150
32
143.647079
13
-97.460426
23
42.313934
33
168.994003
0
3DFACE
8
0
70
0
10
-62.731377
20
2.095917
30
72.197914
11
-83.039970
21
-16.093246
31
16.632923
12
-83.727486
22
-15.916977
32
13.818663
13
-65.984848
23
16.613800
33
33.608181
0
3DFACE
8
0
70
0
10
-83.527046
20
3.818085
30
89.042389
11
-110.299957
21
-18.907700
31
19.128616
12
-83.039970
22
-16.093246
32
16.632923
13
-62.731377
23
2.095917
33
72.197914
0
3DFACE
8
0
70
0
10
-94.968422
20
64.757324
30
83.200157
11
-127.046295
21
39.817032
31
5.529086
12
-116.399933
22
-14.549423
32
18.438477
13
-87.666885
23
10.868423
33
96.209785
0
3DFACE
8
0
70
0
10
-127.046295
20
39.817032
30
5.529086
11
-94.968422
21
64.757324
31
83.200157
12
-89.426971
22
62.143906
32
74.830025
13
-119.347832
23
39.867554
33
5.010591
0
3DFACE
8
0
70
0
10
-87.666885
20
10.868423
30
96.209785
11
-116.399933
21
-14.549423
31
18.438477
12
-110.299957
22
-18.907700
32
19.128616
13
-83.527046
23
3.818085
33
89.042389
0
3DFACE
8
0
70
0
10
-35.513062
20
20.476593
30
194.166733
11
-50.321129
21
42.169159
31
168.794098
12
-97.460426
22
42.313934
32
168.994003
13
-102.695305
23
20.562805
33
194.592758
0
3DFACE
8
0
70
0
10
13.843957
20
163.842163
30
-21.191111
11
9.044233
21
134.274048
31
-65.244652
12
-42.060211
22
135.216583
32
-59.673416
13
-51.965275
23
152.843658
33
-19.836584
0
3DFACE
8
0
70
0
10
-83.039970
20
-16.093246
30
16.632923
11
-72.130165
21
-39.683495
31
-42.381996
12
-80.031242
22
-52.025734
32
-10.435133
13
-83.727486
23
-15.916977
33
13.818663
0
3DFACE
8
0
70
0
10
-110.299957
20
-18.907700
30
19.128616
11
-95.421509
21
-49.055069
31
-55.962086
12
-72.130165
22
-39.683495
32
-42.381996
13
-83.039970
23
-16.093246
33
16.632923
0
3DFACE
8
0
70
0
10
-116.399933
20
-14.549423
30
18.438477
11
-127.046295
21
39.817032
31
5.529086
12
-108.409164
22
5.010666
32
-80.654900
13
-101.107628
23
-48.878235
33
-67.645264
0
3DFACE
8
0
70
0
10
-108.409164
20
5.010666
30
-80.654900
11
-127.046295
21
39.817032
31
5.529086
12
-119.347832
22
39.867554
32
5.010591
13
-101.321434
23
9.270737
33
-70.174454
0
3DFACE
8
0
70
0
10
-116.399933
20
-14.549423
30
18.438477
11
-101.107628
21
-48.878235
31
-67.645264
12
-95.421509
22
-49.055069
32
-55.962086
13
-110.299957
23
-18.907700
33
19.128616
0
3DFACE
8
0
70
0
10
-30.591763
20
-2.873337
30
38.581982
11
-28.473459
21
-31.654373
31
29.117462
12
-25.722103
22
-30.622894
32
20.308226
13
-21.938189
23
24.885437
33
49.970779
0
3DFACE
8
0
70
0
10
-30.591763
20
-2.873337
30
38.581982
11
-21.938189
21
24.885437
31
49.970779
12
-65.984848
22
16.613800
32
33.608181
13
-72.362274
23
-0.745880
33
28.344862
0
3DFACE
8
0
70
0
10
-72.362274
20
-0.745880
30
28.344862
11
-65.984848
21
16.613800
31
33.608181
12
-83.727486
22
-15.916977
32
13.818663
13
-85.876724
23
-14.892975
33
19.867216
0
3DFACE
8
0
70
0
10
-28.473459
20
-31.654373
30
29.117462
11
-41.583408
21
-57.202568
31
16.776381
12
-43.548027
22
-80.713852
32
-17.788158
13
-25.722103
23
-30.622894
33
20.308226
0
3DFACE
8
0
70
0
10
-85.876724
20
-14.892975
30
19.867216
11
-83.727486
21
-15.916977
31
13.818663
12
-80.031242
22
-52.025734
32
-10.435133
13
-79.506844
23
-36.059891
33
14.171220
0
3DFACE
8
0
70
0
10
-79.506844
20
-36.059891
30
14.171220
11
-80.031242
21
-52.025734
31
-10.435133
12
-43.548027
22
-80.713852
32
-17.788158
13
-41.583408
23
-57.202568
33
16.776381
0
3DFACE
8
0
70
0
10
-49.260086
20
-32.226929
30
97.681686
11
-45.456806
21
-5.839325
31
78.018112
12
-56.962364
22
3.514694
32
124.239914
13
-50.635612
23
-8.008087
33
141.087128
0
3DFACE
8
0
70
0
10
-45.456806
20
-5.839325
30
78.018112
11
-81.141853
21
-7.114487
31
74.922470
12
-89.950897
22
0.563354
32
126.233284
13
-56.962364
23
3.514694
33
124.239914
0
3DFACE
8
0
70
0
10
-96.374947
20
-21.059235
30
88.192627
11
-97.775429
21
-7.979141
31
141.127106
12
-89.950897
22
0.563354
32
126.233284
13
-81.141853
23
-7.114487
33
74.922470
0
3DFACE
8
0
70
0
10
-44.690971
20
-62.324440
30
120.275047
11
-49.260086
21
-32.226929
31
97.681686
12
-50.635612
22
-8.008087
32
141.087128
13
-39.578293
23
-32.906662
33
144.349289
0
3DFACE
8
0
70
0
10
-113.545296
20
-44.143631
30
105.592247
11
-106.757706
21
-30.929626
31
147.523178
12
-97.775429
22
-7.979141
32
141.127106
13
-96.374947
23
-21.059235
33
88.192627
0
3DFACE
8
0
70
0
10
-113.545296
20
-44.143631
30
105.592247
11
-44.690971
21
-62.324440
31
120.275047
12
-39.578293
22
-32.906662
32
144.349289
13
-106.757706
23
-30.929626
33
147.523178
0
3DFACE
8
0
70
0
10
-50.321129
20
42.169159
30
168.794098
11
-50.635612
21
-8.008087
31
141.087128
12
-56.962364
22
3.514694
32
124.239914
13
-56.735874
23
44.157730
33
143.648300
0
3DFACE
8
0
70
0
10
-56.735874
20
44.157730
30
143.648300
11
-56.962364
21
3.514694
31
124.239914
12
-89.950897
22
0.563354
32
126.233284
13
-89.725166
23
44.379150
33
143.647079
0
3DFACE
8
0
70
0
10
-97.460426
20
42.313934
30
168.994003
11
-89.725166
21
44.379150
31
143.647079
12
-89.950897
22
0.563354
32
126.233284
13
-97.775429
23
-7.979141
33
141.127106
0
3DFACE
8
0
70
0
10
-35.513062
20
20.476593
30
194.166733
11
-39.578293
21
-32.906662
31
144.349289
12
-50.635612
22
-8.008087
32
141.087128
13
-50.321129
23
42.169159
33
168.794098
0
3DFACE
8
0
70
0
10
-102.695305
20
20.562805
30
194.592758
11
-97.460426
21
42.313934
31
168.994003
12
-97.775429
22
-7.979141
32
141.127106
13
-106.757706
23
-30.929626
33
147.523178
0
3DFACE
8
0
70
0
10
-102.695305
20
20.562805
30
194.592758
11
-106.757706
21
-30.929626
31
147.523178
12
-39.578293
22
-32.906662
32
144.349289
13
-35.513062
23
20.476593
33
194.166733
0
3DFACE
8
0
70
0
10
82.656532
20
59.758942
30
120.427986
11
83.221512
21
65.572205
31
101.986961
12
82.316803
22
81.836914
32
116.020218
13
70.558998
23
75.219604
33
133.152664
0
3DFACE
8
0
70
0
10
-78.606453
20
121.166901
30
-41.979904
11
-51.965275
21
152.843658
31
-19.836584
12
-42.060211
22
135.216583
32
-59.673416
13
-42.060211
23
135.216583
33
-59.673416
0
3DFACE
8
0
70
0
10
-51.092300
20
138.524780
30
20.155008
11
-37.086304
21
140.761047
31
34.553482
12
-51.965275
22
152.843658
32
-19.836584
13
-51.965275
23
152.843658
33
-19.836584
0
3DFACE
8
0
70
0
10
-68.595589
20
94.525848
30
63.659386
11
-35.437717
21
96.386673
31
77.863289
12
-41.291386
22
52.280151
32
99.536736
13
-75.177429
23
52.293091
33
86.800056
0
3DFACE
8
0
70
0
10
-88.949066
20
103.373840
30
111.937248
11
-55.958496
21
107.259827
31
126.211983
12
-35.437717
22
96.386673
32
77.863289
13
-68.595589
23
94.525848
33
63.659386
0
3DFACE
8
0
70
0
10
-58.968559
20
64.903061
30
140.641998
11
-55.958496
21
107.259827
31
126.211983
12
-88.949066
22
103.373840
32
111.937248
13
-92.538979
23
62.490265
33
127.538742
0
3DFACE
8
0
70
0
10
-75.177429
20
52.293091
30
86.800056
11
-41.291386
21
52.280151
31
99.536736
12
-58.968559
22
64.903061
32
140.641998
13
-92.538979
23
62.490265
33
127.538742
0
3DFACE
8
0
70
0
10
-38.921970
20
41.704910
30
95.510178
11
-31.652176
21
101.853210
31
67.696625
12
-1.305265
22
103.429626
32
80.881516
13
-6.813083
23
40.852188
33
107.169823
0
3DFACE
8
0
70
0
10
-31.652176
20
101.853210
30
67.696625
11
-59.222538
21
118.242645
31
132.357407
12
-29.824781
22
122.280853
32
145.354645
13
-1.305265
23
103.429626
33
80.881516
0
3DFACE
8
0
70
0
10
-31.866655
20
62.539352
30
162.417252
11
-29.824781
21
122.280853
31
145.354645
12
-59.222538
22
118.242645
32
132.357407
13
-62.712894
23
60.294830
33
150.564529
0
3DFACE
8
0
70
0
10
-38.921970
20
41.704910
30
95.510178
11
-6.813083
21
40.852188
31
107.169823
12
-31.866655
22
62.539352
32
162.417252
13
-62.712894
23
60.294830
33
150.564529
0
3DFACE
8
0
70
0
10
-38.921970
20
41.704910
30
95.510178
11
-41.291386
21
52.280151
31
99.536736
12
-35.437717
22
96.386673
32
77.863289
13
-31.652176
23
101.853210
33
67.696625
0
3DFACE
8
0
70
0
10
-6.813083
20
40.852188
30
107.169823
11
-1.305265
21
103.429626
31
80.881516
12
-5.033916
22
98.092896
32
90.887398
13
-9.377312
23
52.267975
33
111.532257
0
3DFACE
8
0
70
0
10
-31.652176
20
101.853210
30
67.696625
11
-35.437717
21
96.386673
31
77.863289
12
-55.958496
22
107.259827
32
126.211983
13
-59.222538
23
118.242645
33
132.357407
0
3DFACE
8
0
70
0
10
-1.305265
20
103.429626
30
80.881516
11
-29.824781
21
122.280853
31
145.354645
12
-26.431911
22
110.737701
32
138.987900
13
-5.033916
23
98.092896
33
90.887398
0
3DFACE
8
0
70
0
10
-31.866655
20
62.539352
30
162.417252
11
-28.186483
21
67.115402
31
152.656891
12
-26.431911
22
110.737701
32
138.987900
13
-29.824781
23
122.280853
33
145.354645
0
3DFACE
8
0
70
0
10
-62.712894
20
60.294830
30
150.564529
11
-59.222538
21
118.242645
31
132.357407
12
-55.958496
22
107.259827
32
126.211983
13
-58.968559
23
64.903061
33
140.641998
0
3DFACE
8
0
70
0
10
-6.813083
20
40.852188
30
107.169823
11
-9.377312
21
52.267975
31
111.532257
12
-28.186483
22
67.115402
32
152.656891
13
-31.866655
23
62.539352
33
162.417252
0
3DFACE
8
0
70
0
10
-38.921970
20
41.704910
30
95.510178
11
-62.712894
21
60.294830
31
150.564529
12
-58.968559
22
64.903061
32
140.641998
13
-41.291386
23
52.280151
33
99.536736
0
3DFACE
8
0
70
0
10
-20.419531
20
57.817123
30
115.229797
11
-9.377312
21
52.267975
31
111.532257
12
-5.033916
22
98.092896
32
90.887398
13
-18.269976
23
75.438507
33
90.039528
0
3DFACE
8
0
70
0
10
-18.269976
20
75.438507
30
90.039528
11
-5.033916
21
98.092896
31
90.887398
12
-26.431911
22
110.737701
32
138.987900
13
-23.445486
23
96.715607
33
114.394936
0
3DFACE
8
0
70
0
10
-24.974106
20
78.135376
30
134.896301
11
-23.445486
21
96.715607
31
114.394936
12
-26.431911
22
110.737701
32
138.987900
13
-28.186483
23
67.115402
33
152.656891
0
3DFACE
8
0
70
0
10
-20.419531
20
57.817123
30
115.229797
11
-24.974106
21
78.135376
31
134.896301
12
-28.186483
22
67.115402
32
152.656891
13
-9.377312
23
52.267975
33
111.532257
0
3DFACE
8
0
70
0
10
31.661705
20
46.744659
30
69.077728
11
18.757450
21
47.751572
31
68.100235
12
18.972456
22
58.161591
32
64.619087
13
31.861126
23
57.122925
33
65.487144
0
3DFACE
8
0
70
0
10
31.861126
20
57.122925
30
65.487144
11
18.972456
21
58.161591
31
64.619087
12
19.222763
22
69.099640
32
61.541801
13
32.087070
23
68.099152
33
62.527195
0
3DFACE
8
0
70
0
10
12.733823
20
84.281738
30
146.482635
11
14.756917
21
95.643097
31
112.040070
12
-23.445486
22
96.715607
32
114.394936
13
-24.974106
23
78.135376
33
134.896301
0
3DFACE
8
0
70
0
10
13.836111
20
55.020630
30
120.691162
11
12.733823
21
84.281738
31
146.482635
12
-24.974106
22
78.135376
32
134.896301
13
-20.419531
23
57.817123
33
115.229797
0
3DFACE
8
0
70
0
10
82.656532
20
59.758942
30
120.427986
11
13.836111
21
55.020630
31
120.691162
12
30.496044
22
65.907440
32
87.124863
13
83.221512
23
65.572205
33
101.986961
0
3DFACE
8
0
70
0
10
83.221512
20
65.572205
30
101.986961
11
30.496044
21
65.907440
31
87.124863
12
14.756917
22
95.643097
32
112.040070
13
82.316803
23
81.836914
33
116.020218
0
3DFACE
8
0
70
0
10
70.558998
20
75.219604
30
133.152664
11
82.316803
21
81.836914
31
116.020218
12
14.756917
22
95.643097
32
112.040070
13
12.733823
23
84.281738
33
146.482635
0
3DFACE
8
0
70
0
10
82.656532
20
59.758942
30
120.427986
11
70.558998
21
75.219604
31
133.152664
12
12.733823
22
84.281738
32
146.482635
13
13.836111
23
55.020630
33
120.691162
0
3DFACE
8
0
70
0
10
31.661705
20
46.744659
30
69.077728
11
13.836111
21
55.020630
31
120.691162
12
-20.419531
22
57.817123
32
115.229797
13
18.757450
23
47.751572
33
68.100235
0
3DFACE
8
0
70
0
10
18.757450
20
47.751572
30
68.100235
11
-20.419531
21
57.817123
31
115.229797
12
-18.269976
22
75.438507
32
90.039528
13
18.972456
23
58.161591
33
64.619087
0
3DFACE
8
0
70
0
10
31.661705
20
46.744659
30
69.077728
11
31.861126
21
57.122925
31
65.487144
12
30.496044
22
65.907440
32
87.124863
13
13.836111
23
55.020630
33
120.691162
0
3DFACE
8
0
70
0
10
18.972456
20
58.161591
30
64.619087
11
-18.269976
21
75.438507
31
90.039528
12
-23.445486
22
96.715607
32
114.394936
13
19.222763
23
69.099640
33
61.541801
0
3DFACE
8
0
70
0
10
32.087070
20
68.099152
30
62.527195
11
19.222763
21
69.099640
31
61.541801
12
-23.445486
22
96.715607
32
114.394936
13
14.756917
23
95.643097
33
112.040070
0
3DFACE
8
0
70
0
10
31.861126
20
57.122925
30
65.487144
11
32.087070
21
68.099152
31
62.527195
12
14.756917
22
95.643097
32
112.040070
13
30.496044
23
65.907440
33
87.124863
0
3DFACE
8
0
70
0
10
18.489149
20
-71.215347
30
8.757687
11
35.317539
21
-106.673302
31
47.713390
12
4.511983
22
0.256149
32
93.396568
13
-1.995088
23
-28.669022
33
14.069377
0
3DFACE
8
0
70
0
10
18.489149
20
-71.215347
30
8.757687
11
-1.995088
21
-28.669022
31
14.069377
12
-8.762918
22
-58.753326
32
-68.436729
13
18.036596
23
-28.656036
33
-30.966923
0
3DFACE
8
0
70
0
10
-8.762918
20
-58.753326
30
-68.436729
11
-1.995088
21
-28.669022
31
14.069377
12
-25.722103
22
-30.622894
32
20.308226
13
-43.548027
23
-80.713852
33
-17.788158
0
3DFACE
8
0
70
0
10
-1.995088
20
-28.669022
30
14.069377
11
4.511983
21
0.256149
31
93.396568
12
-21.938189
22
24.885437
32
49.970779
13
-25.722103
23
-30.622894
33
20.308226
0
3DFACE
8
0
70
0
10
-4.341130
20
209.499695
30
71.670456
11
5.851912
21
206.620209
31
67.086922
12
18.407585
22
223.038116
32
67.066811
13
-0.915368
23
228.609680
33
72.093262
0
3DFACE
8
0
70
0
10
-0.915368
20
228.609680
30
72.093262
11
18.407585
21
223.038116
31
67.066811
12
13.044408
22
231.978210
32
63.046001
13
1.278638
23
238.480530
33
64.714340
0
3DFACE
8
0
70
0
10
5.851912
20
206.620209
30
67.086922
11
6.152710
21
199.533813
31
55.808304
12
20.895891
22
215.016205
32
51.276073
13
18.407585
23
223.038116
33
67.066811
0
3DFACE
8
0
70
0
10
-4.341130
20
209.499695
30
71.670456
11
-5.631899
21
200.701599
31
61.643429
12
6.152710
22
199.533813
32
55.808304
13
5.851912
23
206.620209
33
67.086922
0
3DFACE
8
0
70
0
10
1.278638
20
238.480530
30
64.714340
11
13.044408
21
231.978210
31
63.046001
12
15.093294
22
227.675415
32
47.436672
13
1.282148
23
235.571899
33
50.549129
0
3DFACE
8
0
70
0
10
18.407585
20
223.038116
30
67.066811
11
20.895891
21
215.016205
31
51.276073
12
15.093294
22
227.675415
32
47.436672
13
13.044408
23
231.978210
33
63.046001
0
3DFACE
8
0
70
0
10
7.010981
20
242.614075
30
44.319832
11
5.246292
21
234.000610
31
48.077187
12
15.647995
22
228.270447
32
44.294132
13
20.545963
23
246.924622
33
40.884121
0
3DFACE
8
0
70
0
10
15.647995
20
228.270447
30
44.294132
11
25.228987
21
225.650330
31
38.524151
12
30.855524
22
234.136414
32
32.157413
13
20.545963
23
246.924622
33
40.884121
0
3DFACE
8
0
70
0
10
4.301247
20
187.994934
30
79.435768
11
3.932705
21
203.274933
31
63.248981
12
-5.202862
22
204.362000
32
65.789719
13
-8.501641
23
190.310242
33
79.434776
0
3DFACE
8
0
70
0
10
44.693024
20
183.605652
30
33.118881
11
45.144516
21
194.097168
31
29.684145
12
21.012037
22
197.653564
32
50.210846
13
23.758436
23
176.832581
33
63.260742
0
3DFACE
8
0
70
0
10
3.932705
20
203.274933
30
63.248981
11
4.301247
21
187.994934
31
79.435768
12
22.605038
22
184.258362
32
71.519089
13
18.423223
23
200.879700
33
63.867832
0
3DFACE
8
0
70
0
10
48.014812
20
226.885101
30
19.846689
11
62.200115
21
235.585266
31
15.657166
12
39.658249
22
255.445251
32
26.351952
13
36.037663
23
239.104614
33
33.030819
0
3DFACE
8
0
70
0
10
8.129729
20
269.466614
30
37.492657
11
4.225606
21
249.936493
31
44.273899
12
21.180096
22
253.216187
32
40.627506
13
26.409136
23
270.332245
33
30.907352
0
3DFACE
8
0
70
0
10
26.409136
20
270.332245
30
30.907352
11
21.180096
21
253.216187
31
40.627506
12
36.037663
22
239.104614
32
33.030819
13
39.658249
23
255.445251
33
26.351952
0
3DFACE
8
0
70
0
10
-13.438991
20
164.705383
30
85.083687
11
4.986768
21
167.610291
31
77.520226
12
3.558936
22
176.159363
32
72.730118
13
-10.741220
23
177.474243
33
78.050613
0
3DFACE
8
0
70
0
10
-21.451660
20
117.963257
30
77.488579
11
0.878388
21
125.142914
31
71.872391
12
4.986768
22
167.610291
32
77.520226
13
-13.438991
23
164.705383
33
85.083687
0
3DFACE
8
0
70
0
10
44.693024
20
183.605652
30
33.118881
11
23.758436
21
176.832581
31
63.260742
12
22.488976
22
171.264893
32
55.551170
13
46.261265
23
173.315186
33
39.623016
0
3DFACE
8
0
70
0
10
22.488976
20
171.264893
30
55.551170
11
28.828638
21
135.986755
31
35.277264
12
44.236023
22
157.298767
32
11.936893
13
46.261265
23
173.315186
33
39.623016
0
3DFACE
8
0
70
0
10
0.878388
20
125.142914
30
71.872391
11
28.828638
21
135.986755
31
35.277264
12
22.488976
22
171.264893
32
55.551170
13
4.986768
23
167.610291
33
77.520226
0
3DFACE
8
0
70
0
10
4.986768
20
167.610291
30
77.520226
11
22.488976
21
171.264893
31
55.551170
12
23.758436
22
176.832581
32
63.260742
13
3.558936
23
176.159363
33
72.730118
0
3DFACE
8
0
70
0
10
-8.501641
20
190.310242
30
79.434776
11
-10.741220
21
177.474243
31
78.050613
12
3.558936
22
176.159363
32
72.730118
13
4.301247
23
187.994934
33
79.435768
0
3DFACE
8
0
70
0
10
-5.202862
20
204.362000
30
65.789719
11
3.932705
21
203.274933
31
63.248981
12
6.152710
22
199.533813
32
55.808304
13
-5.631899
23
200.701599
33
61.643429
0
3DFACE
8
0
70
0
10
18.423223
20
200.879700
30
63.867832
11
21.012037
21
197.653564
31
50.210846
12
6.152710
22
199.533813
32
55.808304
13
3.932705
23
203.274933
33
63.248981
0
POINT
8
0
70
0
10
43.198296
20
173.809143
30
55.379715
0
3DFACE
8
0
70
0
10
4.301247
20
187.994934
30
79.435768
11
3.558936
21
176.159363
31
72.730118
12
23.758436
22
176.832581
32
63.260742
13
22.605038
23
184.258362
33
71.519089
0
3DFACE
8
0
70
0
10
22.605038
20
184.258362
30
71.519089
11
43.198296
21
173.809143
31
55.379715
12
18.423223
22
200.879700
32
63.867832
13
18.423223
23
200.879700
33
63.867832
0
3DFACE
8
0
70
0
10
18.423223
20
200.879700
30
63.867832
11
43.198296
21
173.809143
31
55.379715
12
21.012037
22
197.653564
32
50.210846
13
21.012037
23
197.653564
33
50.210846
0
3DFACE
8
0
70
0
10
43.198296
20
173.809143
30
55.379715
11
23.758436
21
176.832581
31
63.260742
12
21.012037
22
197.653564
32
50.210846
13
21.012037
23
197.653564
33
50.210846
0
3DFACE
8
0
70
0
10
23.758436
20
176.832581
30
63.260742
11
43.198296
21
173.809143
31
55.379715
12
22.605038
22
184.258362
32
71.519089
13
22.605038
23
184.258362
33
71.519089
0
3DFACE
8
0
70
0
10
62.200115
20
235.585266
30
15.657166
11
48.014812
21
226.885101
31
19.846689
12
60.267029
22
208.967773
32
-12.640412
13
63.668945
23
209.376770
33
-11.997163
0
3DFACE
8
0
70
0
10
48.014812
20
226.885101
30
19.846689
11
43.932682
21
216.518494
31
23.484692
12
60.397705
22
202.050293
32
-9.924917
13
60.267029
23
208.967773
33
-12.640412
0
3DFACE
8
0
70
0
10
43.932682
20
216.518494
30
23.484692
11
43.899925
21
203.744934
31
27.280512
12
57.969437
22
190.306000
32
-4.008518
13
60.397705
23
202.050293
33
-9.924917
0
3DFACE
8
0
70
0
10
63.668945
20
209.376770
30
-11.997163
11
60.267029
21
208.967773
31
-12.640412
12
43.086014
22
200.836700
32
-37.230526
13
44.271851
23
194.452820
33
-31.973225
0
3DFACE
8
0
70
0
10
60.397705
20
202.050293
30
-9.924917
11
45.376476
21
199.529602
31
-40.328899
12
43.086014
22
200.836700
32
-37.230526
13
60.267029
23
208.967773
33
-12.640412
0
3DFACE
8
0
70
0
10
57.969437
20
190.306000
30
-4.008518
11
40.507671
21
188.598022
31
-38.498192
12
45.376476
22
199.529602
32
-40.328899
13
60.397705
23
202.050293
33
-9.924917
0
3DFACE
8
0
70
0
10
44.271851
20
194.452820
30
-31.973225
11
43.086014
21
200.836700
31
-37.230526
12
1.193125
22
202.274536
32
-55.424000
13
-1.297221
23
190.186401
33
-49.904305
0
3DFACE
8
0
70
0
10
45.376476
20
199.529602
30
-40.328899
11
1.409704
21
202.934998
31
-57.166546
12
1.193125
22
202.274536
32
-55.424000
13
43.086014
23
200.836700
33
-37.230526
0
3DFACE
8
0
70
0
10
40.507671
20
188.598022
30
-38.498192
11
-1.166631
21
190.341370
31
-51.740540
12
1.409704
22
202.934998
32
-57.166546
13
45.376476
23
199.529602
33
-40.328899
0
3DFACE
8
0
70
0
10
44.236023
20
157.298767
30
11.936893
11
53.538765
21
170.554016
31
3.532216
12
44.693024
22
183.605652
32
33.118881
13
46.261265
23
173.315186
33
39.623016
0
3DFACE
8
0
70
0
10
43.899925
20
203.744934
30
27.280512
11
45.144516
21
194.097168
31
29.684145
12
57.969437
22
190.306000
32
-4.008518
13
57.969437
23
190.306000
33
-4.008518
0
3DFACE
8
0
70
0
10
44.693024
20
183.605652
30
33.118881
11
53.538765
21
170.554016
31
3.532216
12
57.969437
22
190.306000
32
-4.008518
13
45.144516
23
194.097168
33
29.684145
0
3DFACE
8
0
70
0
10
53.538765
20
170.554016
30
3.532216
11
36.389027
21
172.714905
31
-30.534433
12
40.507671
22
188.598022
32
-38.498192
13
57.969437
23
190.306000
33
-4.008518
0
3DFACE
8
0
70
0
10
36.389027
20
172.714905
30
-30.534433
11
-4.389815
21
175.356354
31
-42.463299
12
-1.166631
22
190.341370
32
-51.740540
13
40.507671
23
188.598022
33
-38.498192
0
3DFACE
8
0
70
0
10
8.129729
20
269.466614
30
37.492657
11
26.409136
21
270.332245
31
30.907352
12
32.060135
22
285.867981
32
15.531697
13
13.171369
23
291.986847
33
20.012486
0
3DFACE
8
0
70
0
10
13.171369
20
291.986847
30
20.012486
11
32.060135
21
285.867981
31
15.531697
12
32.599091
22
285.015961
32
10.212574
13
13.587276
23
292.799652
33
15.194614
0
3DFACE
8
0
70
0
10
26.409136
20
270.332245
30
30.907352
11
39.658249
21
255.445251
31
26.351952
12
57.060612
22
272.380066
32
7.030832
13
32.060135
23
285.867981
33
15.531697
0
3DFACE
8
0
70
0
10
32.060135
20
285.867981
30
15.531697
11
57.060612
21
272.380066
31
7.030832
12
56.087036
22
272.322815
32
1.642203
13
32.599091
23
285.015961
33
10.212574
0
3DFACE
8
0
70
0
10
39.658249
20
255.445251
30
26.351952
11
62.200115
21
235.585266
31
15.657166
12
69.894478
22
246.364563
32
-13.515460
13
57.060612
23
272.380066
33
7.030832
0
3DFACE
8
0
70
0
10
57.060612
20
272.380066
30
7.030832
11
69.894478
21
246.364563
31
-13.515460
12
62.394279
22
250.417847
32
-17.340078
13
56.087036
23
272.322815
33
1.642203
0
3DFACE
8
0
70
0
10
62.200115
20
235.585266
30
15.657166
11
63.668945
21
209.376770
31
-11.997163
12
72.685715
22
230.006714
32
-33.884174
13
69.894478
23
246.364563
33
-13.515460
0
3DFACE
8
0
70
0
10
69.894478
20
246.364563
30
-13.515460
11
72.685715
21
230.006714
31
-33.884174
12
66.808823
22
234.203430
32
-34.528431
13
62.394279
23
250.417847
33
-17.340078
0
3DFACE
8
0
70
0
10
63.668945
20
209.376770
30
-11.997163
11
44.271851
21
194.452820
31
-31.973225
12
49.897419
22
215.002563
32
-49.962280
13
72.685715
23
230.006714
33
-33.884174
0
3DFACE
8
0
70
0
10
72.685715
20
230.006714
30
-33.884174
11
49.897419
21
215.002563
31
-49.962280
12
45.432945
22
221.498993
32
-49.773655
13
66.808823
23
234.203430
33
-34.528431
0
3DFACE
8
0
70
0
10
44.271851
20
194.452820
30
-31.973225
11
-1.297221
21
190.186401
31
-49.904305
12
3.068041
22
209.114929
32
-66.882133
13
49.897419
23
215.002563
33
-49.962280
0
3DFACE
8
0
70
0
10
49.897419
20
215.002563
30
-49.962280
11
3.068041
21
209.114929
31
-66.882133
12
3.994757
22
214.681305
32
-65.485641
13
45.432945
23
221.498993
33
-49.773655
0
3DFACE
8
0
70
0
10
44.236023
20
157.298767
30
11.936893
11
42.840260
21
157.517120
31
1.928638
12
36.389027
22
172.714905
32
-30.534433
13
53.538765
23
170.554016
33
3.532216
0
3DFACE
8
0
70
0
10
42.840260
20
157.517120
30
1.928638
11
4.216941
21
164.966003
31
-15.757116
12
-4.389815
22
175.356354
32
-42.463299
13
36.389027
23
172.714905
33
-30.534433
0
3DFACE
8
0
70
0
10
28.828638
20
135.986755
30
35.277264
11
36.097549
21
144.943787
31
24.607496
12
42.840260
22
157.517120
32
1.928638
13
44.236023
23
157.298767
33
11.936893
0
3DFACE
8
0
70
0
10
0.878388
20
125.142914
30
71.872391
11
-1.369964
21
121.518036
31
56.343117
12
36.097549
22
144.943787
32
24.607496
13
28.828638
23
135.986755
33
35.277264
0
3DFACE
8
0
70
0
10
-1.369964
20
121.518036
30
56.343117
11
-19.302513
21
121.895813
31
51.728973
12
-15.211035
22
136.179749
32
24.646868
13
36.097549
23
144.943787
33
24.607496
0
3DFACE
8
0
70
0
10
-21.451660
20
117.963257
30
77.488579
11
-19.302513
21
121.895813
31
51.728973
12
-1.369964
22
121.518036
32
56.343117
13
-1.369964
23
121.518036
33
56.343117
0
3DFACE
8
0
70
0
10
-21.451660
20
117.963257
30
77.488579
11
-1.369964
21
121.518036
31
56.343117
12
0.878388
22
125.142914
32
71.872391
13
0.878388
23
125.142914
33
71.872391
0
3DFACE
8
0
70
0
10
-4.341130
20
209.499695
30
71.670456
11
-0.915368
21
228.609680
31
72.093262
12
-20.305790
22
230.025940
32
64.903717
13
-14.340534
23
210.264984
33
65.958679
0
3DFACE
8
0
70
0
10
-0.915368
20
228.609680
30
72.093262
11
1.278638
21
238.480530
31
64.714340
12
-11.762385
22
236.455872
32
61.659931
13
-20.305790
23
230.025940
33
64.903717
0
3DFACE
8
0
70
0
10
-14.340534
20
210.264984
30
65.958679
11
-20.305790
21
230.025940
31
64.903717
12
-24.222654
22
223.160187
32
48.755089
13
-16.381472
23
203.601257
33
54.549213
0
3DFACE
8
0
70
0
10
-4.341130
20
209.499695
30
71.670456
11
-14.340534
21
210.264984
31
65.958679
12
-16.381472
22
203.601257
32
54.549213
13
-5.631899
23
200.701599
33
61.643429
0
3DFACE
8
0
70
0
10
1.278638
20
238.480530
30
64.714340
11
1.282148
21
235.571899
31
50.549129
12
-13.993380
22
232.925598
32
45.811466
13
-11.762385
23
236.455872
33
61.659931
0
3DFACE
8
0
70
0
10
-20.305790
20
230.025940
30
64.903717
11
-11.762385
21
236.455872
31
61.659931
12
-13.993380
22
232.925598
32
45.811466
13
-24.222654
23
223.160187
33
48.755089
0
3DFACE
8
0
70
0
10
-0.501863
20
243.800903
30
43.763695
11
-10.884136
21
253.333130
31
39.110836
12
-13.619639
22
234.335022
32
43.076550
13
-2.194635
23
235.492432
33
47.219315
0
3DFACE
8
0
70
0
10
-13.619639
20
234.335022
30
43.076550
11
-10.884136
21
253.333130
31
39.110836
12
-24.167505
22
244.692322
32
31.510509
13
-22.377569
23
235.318573
33
37.441467
0
3DFACE
8
0
70
0
10
-21.228973
20
192.603180
30
78.009270
11
-8.501641
21
190.310242
31
79.434776
12
-5.202862
22
204.362000
32
65.789719
13
-13.813351
23
206.478119
33
62.257427
0
3DFACE
8
0
70
0
10
-55.368427
20
201.666931
30
27.527985
11
-41.490204
21
188.610046
31
59.614998
12
-30.267763
22
206.909668
32
47.345604
13
-51.761284
23
211.588867
33
24.269569
0
3DFACE
8
0
70
0
10
-13.813351
20
206.478119
30
62.257427
11
-28.206480
21
209.296448
31
61.262417
12
-38.719055
22
195.327454
32
68.092628
13
-21.228973
23
192.603180
33
78.009270
0
3DFACE
8
0
70
0
10
-41.943733
20
243.122803
30
14.820289
11
-27.098778
21
250.500854
31
29.503094
12
-24.053432
22
266.945313
32
22.792078
13
-51.666466
23
256.138428
33
9.294910
0
3DFACE
8
0
70
0
10
8.129729
20
269.466614
30
37.492657
11
-7.340221
21
277.073975
31
28.521662
12
-9.478683
22
259.508118
32
38.620071
13
4.225606
23
249.936493
33
44.273899
0
3DFACE
8
0
70
0
10
-7.340221
20
277.073975
30
28.521662
11
-24.053432
21
266.945313
31
22.792078
12
-27.098778
22
250.500854
32
29.503094
13
-9.478683
23
259.508118
33
38.620071
0
3DFACE
8
0
70
0
10
-13.438991
20
164.705383
30
85.083687
11
-10.741220
21
177.474243
31
78.050613
12
-23.939707
22
181.122925
32
71.193642
13
-28.765800
23
173.702698
33
75.634315
0
3DFACE
8
0
70
0
10
-21.451660
20
117.963257
30
77.488579
11
-13.438991
21
164.705383
31
85.083687
12
-28.765800
22
173.702698
32
75.634315
13
-39.133671
23
132.365173
33
69.636734
0
3DFACE
8
0
70
0
10
-55.368427
20
201.666931
30
27.527985
11
-61.117165
21
192.697174
31
33.623287
12
-41.417084
22
182.800049
32
51.980446
13
-41.490204
23
188.610046
33
59.614998
0
3DFACE
8
0
70
0
10
-41.417084
20
182.800049
30
51.980446
11
-61.117165
21
192.697174
31
33.623287
12
-61.826977
22
176.443298
32
6.010664
13
-57.428684
23
151.556366
33
30.457670
0
3DFACE
8
0
70
0
10
-39.133671
20
132.365173
30
69.636734
11
-28.765800
21
173.702698
31
75.634315
12
-41.417084
22
182.800049
32
51.980446
13
-57.428684
23
151.556366
33
30.457670
0
3DFACE
8
0
70
0
10
-28.765800
20
173.702698
30
75.634315
11
-23.939707
21
181.122925
31
71.193642
12
-41.490204
22
188.610046
32
59.614998
13
-41.417084
23
182.800049
33
51.980446
0
3DFACE
8
0
70
0
10
-8.501641
20
190.310242
30
79.434776
11
-21.228973
21
192.603180
31
78.009270
12
-23.939707
22
181.122925
32
71.193642
13
-10.741220
23
177.474243
33
78.050613
0
3DFACE
8
0
70
0
10
-5.202862
20
204.362000
30
65.789719
11
-5.631899
21
200.701599
31
61.643429
12
-16.381472
22
203.601257
32
54.549213
13
-13.813351
23
206.478119
33
62.257427
0
3DFACE
8
0
70
0
10
-28.206480
20
209.296448
30
61.262417
11
-13.813351
21
206.478119
31
62.257427
12
-16.381472
22
203.601257
32
54.549213
13
-30.267763
23
206.909668
33
47.345604
0
POINT
8
0
70
0
10
-58.999889
20
192.256104
30
49.669430
0
3DFACE
8
0
70
0
10
-21.228973
20
192.603180
30
78.009270
11
-38.719055
21
195.327454
31
68.092628
12
-41.490204
22
188.610046
32
59.614998
13
-23.939707
23
181.122925
33
71.193642
0
3DFACE
8
0
70
0
10
-38.719055
20
195.327454
30
68.092628
11
-28.206480
21
209.296448
31
61.262417
12
-58.999889
22
192.256104
32
49.669430
13
-58.999889
23
192.256104
33
49.669430
0
3DFACE
8
0
70
0
10
-28.206480
20
209.296448
30
61.262417
11
-30.267763
21
206.909668
31
47.345604
12
-58.999889
22
192.256104
32
49.669430
13
-58.999889
23
192.256104
33
49.669430
0
3DFACE
8
0
70
0
10
-58.999889
20
192.256104
30
49.669430
11
-30.267763
21
206.909668
31
47.345604
12
-41.490204
22
188.610046
32
59.614998
13
-41.490204
23
188.610046
33
59.614998
0
3DFACE
8
0
70
0
10
-41.490204
20
188.610046
30
59.614998
11
-38.719055
21
195.327454
31
68.092628
12
-58.999889
22
192.256104
32
49.669430
13
-58.999889
23
192.256104
33
49.669430
0
3DFACE
8
0
70
0
10
-51.666466
20
256.138428
30
9.294910
11
-59.185429
21
231.552216
31
-18.861609
12
-56.091213
22
229.970642
32
-19.141886
13
-41.943733
23
243.122803
33
14.820289
0
3DFACE
8
0
70
0
10
-41.943733
20
243.122803
30
14.820289
11
-56.091213
21
229.970642
31
-19.141886
12
-58.917034
22
223.586792
32
-16.591583
13
-42.148956
23
232.056366
33
18.674911
0
3DFACE
8
0
70
0
10
-42.148956
20
232.056366
30
18.674911
11
-58.917034
21
223.586792
31
-16.591583
12
-61.388111
22
211.850250
32
-10.677576
13
-46.980347
23
220.148987
33
22.202610
0
3DFACE
8
0
70
0
10
-59.185429
20
231.552216
30
-18.861609
11
-44.172173
21
210.417114
31
-36.915005
12
-40.275688
22
215.883636
32
-41.888329
13
-56.091213
23
229.970642
33
-19.141886
0
3DFACE
8
0
70
0
10
-58.917034
20
223.586792
30
-16.591583
11
-56.091213
21
229.970642
31
-19.141886
12
-40.275688
22
215.883636
32
-41.888329
13
-42.529530
23
215.396820
33
-45.240612
0
3DFACE
8
0
70
0
10
-61.388111
20
211.850250
30
-10.677576
11
-58.917034
21
223.586792
31
-16.591583
12
-42.529530
22
215.396820
32
-45.240612
13
-42.004234
23
203.491577
33
-43.108513
0
3DFACE
8
0
70
0
10
-44.172173
20
210.417114
30
-36.915005
11
-1.297221
21
190.186401
31
-49.904305
12
1.193125
22
202.274536
32
-55.424000
13
-40.275688
23
215.883636
33
-41.888329
0
3DFACE
8
0
70
0
10
-42.529530
20
215.396820
30
-45.240612
11
-40.275688
21
215.883636
31
-41.888329
12
1.193125
22
202.274536
32
-55.424000
13
1.409704
23
202.934998
33
-57.166546
0
3DFACE
8
0
70
0
10
-42.004234
20
203.491577
30
-43.108513
11
-42.529530
21
215.396820
31
-45.240612
12
1.409704
22
202.934998
32
-57.166546
13
-1.166631
23
190.341370
33
-51.740540
0
3DFACE
8
0
70
0
10
-61.826977
20
176.443298
30
6.010664
11
-61.117165
21
192.697174
31
33.623287
12
-55.368427
22
201.666931
32
27.527985
13
-64.961250
23
191.943481
33
-3.088927
0
3DFACE
8
0
70
0
10
-46.980347
20
220.148987
30
22.202610
11
-61.388111
21
211.850250
31
-10.677576
12
-51.761284
22
211.588867
32
24.269569
13
-51.761284
23
211.588867
33
24.269569
0
3DFACE
8
0
70
0
10
-55.368427
20
201.666931
30
27.527985
11
-51.761284
21
211.588867
31
24.269569
12
-61.388111
22
211.850250
32
-10.677576
13
-64.961250
23
191.943481
33
-3.088927
0
3DFACE
8
0
70
0
10
-64.961250
20
191.943481
30
-3.088927
11
-61.388111
21
211.850250
31
-10.677576
12
-42.004234
22
203.491577
32
-43.108513
13
-44.565010
23
187.327271
33
-35.057709
0
3DFACE
8
0
70
0
10
-44.565010
20
187.327271
30
-35.057709
11
-42.004234
21
203.491577
31
-43.108513
12
-1.166631
22
190.341370
32
-51.740540
13
-4.389815
23
175.356354
33
-42.463299
0
3DFACE
8
0
70
0
10
8.129729
20
269.466614
30
37.492657
11
13.171369
21
291.986847
31
20.012486
12
-6.064449
22
292.749542
32
13.401500
13
-7.340221
23
277.073975
33
28.521662
0
3DFACE
8
0
70
0
10
13.171369
20
291.986847
30
20.012486
11
13.587276
21
292.799652
31
15.194614
12
-6.289307
22
292.035400
32
8.039699
13
-6.064449
23
292.749542
33
13.401500
0
3DFACE
8
0
70
0
10
-7.340221
20
277.073975
30
28.521662
11
-6.064449
21
292.749542
31
13.401500
12
-33.125401
22
288.658783
32
1.991719
13
-24.053432
23
266.945313
33
22.792078
0
3DFACE
8
0
70
0
10
-6.064449
20
292.749542
30
13.401500
11
-6.289307
21
292.035400
31
8.039699
12
-31.657476
22
288.160858
32
-3.260492
13
-33.125401
23
288.658783
33
1.991719
0
3DFACE
8
0
70
0
10
-24.053432
20
266.945313
30
22.792078
11
-33.125401
21
288.658783
31
1.991719
12
-51.925491
22
268.353302
32
-20.322107
13
-51.666466
23
256.138428
33
9.294910
0
3DFACE
8
0
70
0
10
-33.125401
20
288.658783
30
1.991719
11
-31.657476
21
288.160858
31
-3.260492
12
-43.116917
22
269.462830
32
-23.235481
13
-51.925491
23
268.353302
33
-20.322107
0
3DFACE
8
0
70
0
10
-51.666466
20
256.138428
30
9.294910
11
-51.925491
21
268.353302
31
-20.322107
12
-58.028255
22
253.600800
32
-41.187771
13
-59.185429
23
231.552216
33
-18.861609
0
3DFACE
8
0
70
0
10
-51.925491
20
268.353302
30
-20.322107
11
-43.116917
21
269.462830
31
-23.235481
12
-51.024220
22
255.472504
32
-41.112309
13
-58.028255
23
253.600800
33
-41.187771
0
3DFACE
8
0
70
0
10
-59.185429
20
231.552216
30
-18.861609
11
-58.028255
21
253.600800
31
-41.187771
12
-40.306126
22
231.284485
32
-55.002373
13
-44.172173
23
210.417114
33
-36.915005
0
3DFACE
8
0
70
0
10
-58.028255
20
253.600800
30
-41.187771
11
-51.024220
21
255.472504
31
-41.112309
12
-33.905422
22
235.819702
32
-54.206661
13
-40.306126
23
231.284485
33
-55.002373
0
3DFACE
8
0
70
0
10
-44.172173
20
210.417114
30
-36.915005
11
-40.306126
21
231.284485
31
-55.002373
12
3.068041
22
209.114929
32
-66.882133
13
-1.297221
23
190.186401
33
-49.904305
0
3DFACE
8
0
70
0
10
-40.306126
20
231.284485
30
-55.002373
11
-33.905422
21
235.819702
31
-54.206661
12
3.994757
22
214.681305
32
-65.485641
13
3.068041
23
209.114929
33
-66.882133
0
3DFACE
8
0
70
0
10
-61.826977
20
176.443298
30
6.010664
11
-64.961250
21
191.943481
31
-3.088927
12
-44.565010
22
187.327271
32
-35.057709
13
-31.879429
23
166.234802
33
1.191887
0
3DFACE
8
0
70
0
10
-31.879429
20
166.234802
30
1.191887
11
-44.565010
21
187.327271
31
-35.057709
12
-4.389815
22
175.356354
32
-42.463299
13
4.216941
23
164.966003
33
-15.757116
0
3DFACE
8
0
70
0
10
-57.428684
20
151.556366
30
30.457670
11
-61.826977
21
176.443298
31
6.010664
12
-31.879429
22
166.234802
32
1.191887
13
-25.219162
23
154.874634
33
23.768215
0
3DFACE
8
0
70
0
10
-39.133671
20
132.365173
30
69.636734
11
-57.428684
21
151.556366
31
30.457670
12
-25.219162
22
154.874634
32
23.768215
13
-36.628250
23
127.882233
33
54.373070
0
3DFACE
8
0
70
0
10
-36.628250
20
127.882233
30
54.373070
11
-25.219162
21
154.874634
31
23.768215
12
-15.211035
22
136.179749
32
24.646868
13
-19.302513
23
121.895813
33
51.728973
0
3DFACE
8
0
70
0
10
-21.451660
20
117.963257
30
77.488579
11
-36.628250
21
127.882233
31
54.373070
12
-19.302513
22
121.895813
32
51.728973
13
-19.302513
23
121.895813
33
51.728973
0
3DFACE
8
0
70
0
10
-21.451660
20
117.963257
30
77.488579
11
-39.133671
21
132.365173
31
69.636734
12
-36.628250
22
127.882233
32
54.373070
13
-36.628250
23
127.882233
33
54.373070
0
3DFACE
8
0
70
0
10
-2.194635
20
235.492432
30
47.219315
11
1.282148
21
235.571899
31
50.549129
12
4.225606
22
249.936493
32
44.273899
13
-0.501863
23
243.800903
33
43.763695
0
3DFACE
8
0
70
0
10
-13.619639
20
234.335022
30
43.076550
11
-13.993380
21
232.925598
31
45.811466
12
1.282148
22
235.571899
32
50.549129
13
-2.194635
23
235.492432
33
47.219315
0
3DFACE
8
0
70
0
10
-10.884136
20
253.333130
30
39.110836
11
-0.501863
21
243.800903
31
43.763695
12
4.225606
22
249.936493
32
44.273899
13
-9.478683
23
259.508118
33
38.620071
0
3DFACE
8
0
70
0
10
-13.619639
20
234.335022
30
43.076550
11
-22.377569
21
235.318573
31
37.441467
12
-25.507462
22
234.390137
32
38.777088
13
-13.993380
23
232.925598
33
45.811466
0
3DFACE
8
0
70
0
10
-22.377569
20
235.318573
30
37.441467
11
-24.167505
21
244.692322
31
31.510509
12
-27.098778
22
250.500854
32
29.503094
13
-25.507462
23
234.390137
33
38.777088
0
3DFACE
8
0
70
0
10
-10.884136
20
253.333130
30
39.110836
11
-9.478683
21
259.508118
31
38.620071
12
-27.098778
22
250.500854
32
29.503094
13
-24.167505
23
244.692322
33
31.510509
0
3DFACE
8
0
70
0
10
20.545963
20
246.924622
30
40.884121
11
21.180096
21
253.216187
31
40.627506
12
4.225606
22
249.936493
32
44.273899
13
7.010981
23
242.614075
33
44.319832
0
3DFACE
8
0
70
0
10
15.647995
20
228.270447
30
44.294132
11
5.246292
21
234.000610
31
48.077187
12
1.282148
22
235.571899
32
50.549129
13
15.093294
23
227.675415
33
47.436672
0
3DFACE
8
0
70
0
10
5.246292
20
234.000610
30
48.077187
11
7.010981
21
242.614075
31
44.319832
12
4.225606
22
249.936493
32
44.273899
13
1.282148
23
235.571899
33
50.549129
0
3DFACE
8
0
70
0
10
20.545963
20
246.924622
30
40.884121
11
30.855524
21
234.136414
31
32.157413
12
36.037663
22
239.104614
32
33.030819
13
21.180096
23
253.216187
33
40.627506
0
3DFACE
8
0
70
0
10
25.228987
20
225.650330
30
38.524151
11
27.939894
21
224.742798
31
41.763439
12
36.037663
22
239.104614
32
33.030819
13
30.855524
23
234.136414
33
32.157413
0
3DFACE
8
0
70
0
10
15.647995
20
228.270447
30
44.294132
11
15.093294
21
227.675415
31
47.436672
12
27.939894
22
224.742798
32
41.763439
13
25.228987
23
225.650330
33
38.524151
0
3DFACE
8
0
70
0
10
4.216941
20
164.966003
30
-15.757116
11
42.840260
21
157.517120
31
1.928638
12
74.888885
22
141.647064
32
-24.637608
13
13.843957
23
163.842163
33
-21.191111
0
3DFACE
8
0
70
0
10
13.843957
20
163.842163
30
-21.191111
11
-51.965275
21
152.843658
31
-19.836584
12
-31.879429
22
166.234802
32
1.191887
13
4.216941
23
164.966003
33
-15.757116
0
3DFACE
8
0
70
0
10
-51.965275
20
152.843658
30
-19.836584
11
-37.086304
21
140.761047
31
34.553482
12
-31.879429
22
166.234802
32
1.191887
13
-31.879429
23
166.234802
33
1.191887
0
3DFACE
8
0
70
0
10
-37.086304
20
140.761047
30
34.553482
11
-25.219162
21
154.874634
31
23.768215
12
-31.879429
22
166.234802
32
1.191887
13
-31.879429
23
166.234802
33
1.191887
0
3DFACE
8
0
70
0
10
71.569992
20
128.709351
30
32.023769
11
42.840260
21
157.517120
31
1.928638
12
36.097549
22
144.943787
32
24.607496
13
36.097549
23
144.943787
33
24.607496
0
3DFACE
8
0
70
0
10
74.888885
20
141.647064
30
-24.637608
11
42.840260
21
157.517120
31
1.928638
12
71.569992
22
128.709351
32
32.023769
13
71.569992
23
128.709351
33
32.023769
0
3DFACE
8
0
70
0
10
22.662350
20
139.753723
30
34.465511
11
-25.219162
21
154.874634
31
23.768215
12
-37.086304
22
140.761047
32
34.553482
13
-37.086304
23
140.761047
33
34.553482
0
3DFACE
8
0
70
0
10
-15.211035
20
136.179749
30
24.646868
11
-25.219162
21
154.874634
31
23.768215
12
22.662350
22
139.753723
32
34.465511
13
22.662350
23
139.753723
33
34.465511
0
3DFACE
8
0
70
0
10
-15.211035
20
136.179749
30
24.646868
11
22.662350
21
139.753723
31
34.465511
12
36.097549
22
144.943787
32
24.607496
13
36.097549
23
144.943787
33
24.607496
0
3DFACE
8
0
70
0
10
22.662350
20
139.753723
30
34.465511
11
71.569992
21
128.709351
31
32.023769
12
36.097549
22
144.943787
32
24.607496
13
36.097549
23
144.943787
33
24.607496
0
3DFACE
8
0
70
0
10
3.994757
20
214.681305
30
-65.485641
11
17.734985
21
285.583313
31
-82.859993
12
33.313129
22
284.110931
32
-75.542389
13
45.432945
23
221.498993
33
-49.773655
0
3DFACE
8
0
70
0
10
45.432945
20
221.498993
30
-49.773655
11
33.313129
21
284.110931
31
-75.542389
12
43.674690
22
284.228973
32
-65.393509
13
66.808823
23
234.203430
33
-34.528431
0
3DFACE
8
0
70
0
10
66.808823
20
234.203430
30
-34.528431
11
43.674690
21
284.228973
31
-65.393509
12
41.091301
22
286.729340
32
-55.747879
13
62.394279
23
250.417847
33
-17.340078
0
3DFACE
8
0
70
0
10
62.394279
20
250.417847
30
-17.340078
11
41.091301
21
286.729340
31
-55.747879
12
38.243958
22
289.764893
32
-43.770275
13
56.087036
23
272.322815
33
1.642203
0
3DFACE
8
0
70
0
10
13.587276
20
292.799652
30
15.194614
11
32.599091
21
285.015961
31
10.212574
12
26.416506
22
293.124023
32
-38.538578
13
16.896372
23
295.556915
33
-35.631630
0
3DFACE
8
0
70
0
10
3.994757
20
214.681305
30
-65.485641
11
-33.905422
21
235.819702
31
-54.206661
12
1.928107
22
289.775970
32
-77.296013
13
17.734985
23
285.583313
33
-82.859993
0
3DFACE
8
0
70
0
10
-33.905422
20
235.819702
30
-54.206661
11
-51.024220
21
255.472504
31
-41.112309
12
-8.772960
22
293.695892
32
-68.324005
13
1.928107
23
289.775970
33
-77.296013
0
3DFACE
8
0
70
0
10
-51.024220
20
255.472504
30
-41.112309
11
-43.116917
21
269.462830
31
-23.235481
12
-6.536907
22
295.326294
32
-58.409088
13
-8.772960
23
293.695892
33
-68.324005
0
3DFACE
8
0
70
0
10
-43.116917
20
269.462830
30
-23.235481
11
-31.657476
21
288.160858
31
-3.260492
12
-4.120146
22
297.411682
32
-46.137352
13
-6.536907
23
295.326294
33
-58.409088
0
3DFACE
8
0
70
0
10
13.587276
20
292.799652
30
15.194614
11
16.896372
21
295.556915
31
-35.631630
12
7.498247
22
296.538818
32
-39.595631
13
-6.289307
23
292.035400
33
8.039699
0
3DFACE
8
0
70
0
10
56.087036
20
272.322815
30
1.642203
11
38.243958
21
289.764893
31
-43.770275
12
26.416506
22
293.124023
32
-38.538578
13
32.599091
23
285.015961
33
10.212574
0
3DFACE
8
0
70
0
10
-31.657476
20
288.160858
30
-3.260492
11
-6.289307
21
292.035400
31
8.039699
12
7.498247
22
296.538818
32
-39.595631
13
-4.120146
23
297.411682
33
-46.137352
0
3DFACE
8
0
70
0
10
21.850168
20
327.846375
30
-20.742785
11
36.999439
21
334.525085
31
-22.425488
12
24.673063
22
343.674774
32
-20.131510
13
24.673063
23
343.674774
33
-20.131510
0
3DFACE
8
0
70
0
10
34.907600
20
321.053284
30
-28.507736
11
36.999439
21
334.525085
31
-22.425488
12
21.850168
22
327.846375
32
-20.742785
13
21.850168
23
327.846375
33
-20.742785
0
3DFACE
8
0
70
0
10
20.489378
20
316.731110
30
-32.296032
11
34.907600
21
321.053284
31
-28.507736
12
21.850168
22
327.846375
32
-20.742785
13
21.850168
23
327.846375
33
-20.742785
0
3DFACE
8
0
70
0
10
20.489378
20
316.731110
30
-32.296032
11
21.850168
21
327.846375
31
-20.742785
12
8.163027
22
325.880737
32
-30.002079
13
8.163027
23
325.880737
33
-30.002079
0
3DFACE
8
0
70
0
10
8.163027
20
325.880737
30
-30.002079
11
21.850168
21
327.846375
31
-20.742785
12
10.254866
22
339.352539
32
-23.919830
13
10.254866
23
339.352539
33
-23.919830
0
3DFACE
8
0
70
0
10
21.850168
20
327.846375
30
-20.742785
11
24.673063
21
343.674774
31
-20.131510
12
10.254866
22
339.352539
32
-23.919830
13
10.254866
23
339.352539
33
-23.919830
0
3DFACE
8
0
70
0
10
36.999439
20
334.525085
30
-22.425488
11
44.736549
21
342.004639
31
-34.064445
12
27.304441
22
354.944153
32
-30.820301
13
24.673063
23
343.674774
33
-20.131510
0
3DFACE
8
0
70
0
10
41.778229
20
322.952545
30
-42.666077
11
44.736549
21
342.004639
31
-34.064445
12
36.999439
22
334.525085
32
-22.425488
13
34.907600
23
321.053284
33
-28.507736
0
3DFACE
8
0
70
0
10
21.387817
20
316.840088
30
-48.023529
11
41.778229
21
322.952545
31
-42.666077
12
34.907600
22
321.053284
32
-28.507736
13
20.489378
23
316.731110
33
-32.296032
0
3DFACE
8
0
70
0
10
21.387817
20
316.840088
30
-48.023529
11
20.489378
21
316.731110
31
-32.296032
12
8.163027
22
325.880737
32
-30.002079
13
3.955701
23
329.779572
33
-44.779392
0
3DFACE
8
0
70
0
10
3.955701
20
329.779572
30
-44.779392
11
8.163027
21
325.880737
31
-30.002079
12
10.254866
22
339.352539
32
-23.919830
13
6.914020
23
348.831665
33
-36.177761
0
3DFACE
8
0
70
0
10
10.254866
20
339.352539
30
-23.919830
11
24.673063
21
343.674774
31
-20.131510
12
27.304441
22
354.944153
32
-30.820301
13
6.914020
23
348.831665
33
-36.177761
0
3DFACE
8
0
70
0
10
40.529251
20
345.903442
30
-48.841785
11
28.202877
21
355.053101
31
-46.547810
12
27.304441
22
354.944153
32
-30.820301
13
44.736549
23
342.004639
33
-34.064445
0
3DFACE
8
0
70
0
10
41.778229
20
322.952545
30
-42.666077
11
38.437412
21
332.431641
31
-54.924034
12
40.529251
22
345.903442
32
-48.841785
13
44.736549
23
342.004639
33
-34.064445
0
3DFACE
8
0
70
0
10
21.387817
20
316.840088
30
-48.023529
11
24.019192
21
328.109436
31
-58.712330
12
38.437412
22
332.431641
32
-54.924034
13
41.778229
23
322.952545
33
-42.666077
0
3DFACE
8
0
70
0
10
21.387817
20
316.840088
30
-48.023529
11
3.955701
21
329.779572
31
-44.779392
12
11.692840
22
337.259064
32
-56.418377
13
24.019192
23
328.109436
33
-58.712330
0
3DFACE
8
0
70
0
10
3.955701
20
329.779572
30
-44.779392
11
6.914020
21
348.831665
31
-36.177761
12
13.784679
22
350.730865
32
-50.336128
13
11.692840
23
337.259064
33
-56.418377
0
3DFACE
8
0
70
0
10
13.784679
20
350.730865
30
-50.336128
11
6.914020
21
348.831665
31
-36.177761
12
27.304441
22
354.944153
32
-30.820301
13
28.202877
23
355.053101
33
-46.547810
0
3DFACE
8
0
70
0
10
26.842072
20
343.937775
30
-58.101089
11
28.202877
21
355.053101
31
-46.547810
12
40.529251
22
345.903442
32
-48.841785
13
40.529251
23
345.903442
33
-48.841785
0
3DFACE
8
0
70
0
10
38.437412
20
332.431641
30
-54.924034
11
26.842072
21
343.937775
31
-58.101089
12
40.529251
22
345.903442
32
-48.841785
13
40.529251
23
345.903442
33
-48.841785
0
3DFACE
8
0
70
0
10
24.019192
20
328.109436
30
-58.712330
11
26.842072
21
343.937775
31
-58.101089
12
38.437412
22
332.431641
32
-54.924034
13
38.437412
23
332.431641
33
-54.924034
0
3DFACE
8
0
70
0
10
24.019192
20
328.109436
30
-58.712330
11
11.692840
21
337.259064
31
-56.418377
12
26.842072
22
343.937775
32
-58.101089
13
26.842072
23
343.937775
33
-58.101089
0
3DFACE
8
0
70
0
10
11.692840
20
337.259064
30
-56.418377
11
13.784679
21
350.730865
31
-50.336128
12
26.842072
22
343.937775
32
-58.101089
13
26.842072
23
343.937775
33
-58.101089
0
3DFACE
8
0
70
0
10
26.842072
20
343.937775
30
-58.101089
11
13.784679
21
350.730865
31
-50.336128
12
28.202877
22
355.053101
32
-46.547810
13
28.202877
23
355.053101
33
-46.547810
0
3DFACE
8
0
70
0
10
21.012037
20
197.653564
30
50.210846
11
45.144516
21
194.097168
31
29.684145
12
35.244774
22
211.379822
32
49.225235
13
35.244774
23
211.379822
33
49.225235
0
3DFACE
8
0
70
0
10
45.144516
20
194.097168
30
29.684145
11
43.899925
21
203.744934
31
27.280512
12
35.244774
22
211.379822
32
49.225235
13
35.244774
23
211.379822
33
49.225235
0
3DFACE
8
0
70
0
10
6.152710
20
199.533813
30
55.808304
11
21.012037
21
197.653564
31
50.210846
12
20.895891
22
215.016205
32
51.276073
13
20.895891
23
215.016205
33
51.276073
0
3DFACE
8
0
70
0
10
21.012037
20
197.653564
30
50.210846
11
35.244774
21
211.379822
31
49.225235
12
20.895891
22
215.016205
32
51.276073
13
20.895891
23
215.016205
33
51.276073
0
3DFACE
8
0
70
0
10
35.244774
20
211.379822
30
49.225235
11
43.899925
21
203.744934
31
27.280512
12
27.939894
22
224.742798
32
41.763439
13
27.939894
23
224.742798
33
41.763439
0
3DFACE
8
0
70
0
10
43.899925
20
203.744934
30
27.280512
11
43.932682
21
216.518494
31
23.484692
12
27.939894
22
224.742798
32
41.763439
13
27.939894
23
224.742798
33
41.763439
0
3DFACE
8
0
70
0
10
20.895891
20
215.016205
30
51.276073
11
27.939894
21
224.742798
31
41.763439
12
15.093294
22
227.675415
32
47.436672
13
15.093294
23
227.675415
33
47.436672
0
3DFACE
8
0
70
0
10
35.244774
20
211.379822
30
49.225235
11
27.939894
21
224.742798
31
41.763439
12
20.895891
22
215.016205
32
51.276073
13
20.895891
23
215.016205
33
51.276073
0
3DFACE
8
0
70
0
10
27.939894
20
224.742798
30
41.763439
11
43.932682
21
216.518494
31
23.484692
12
36.037663
22
239.104614
32
33.030819
13
36.037663
23
239.104614
33
33.030819
0
3DFACE
8
0
70
0
10
43.932682
20
216.518494
30
23.484692
11
48.014812
21
226.885101
31
19.846689
12
36.037663
22
239.104614
32
33.030819
13
36.037663
23
239.104614
33
33.030819
0
3DFACE
8
0
70
0
10
-51.761284
20
211.588867
30
24.269569
11
-38.628479
21
224.714050
31
45.097591
12
-46.980347
22
220.148987
32
22.202610
13
-46.980347
23
220.148987
33
22.202610
0
3DFACE
8
0
70
0
10
-30.267763
20
206.909668
30
47.345604
11
-38.628479
21
224.714050
31
45.097591
12
-51.761284
22
211.588867
32
24.269569
13
-51.761284
23
211.588867
33
24.269569
0
3DFACE
8
0
70
0
10
-30.267763
20
206.909668
30
47.345604
11
-24.222654
21
223.160187
31
48.755089
12
-38.628479
22
224.714050
32
45.097591
13
-38.628479
23
224.714050
33
45.097591
0
3DFACE
8
0
70
0
10
-16.381472
20
203.601257
30
54.549213
11
-24.222654
21
223.160187
31
48.755089
12
-30.267763
22
206.909668
32
47.345604
13
-30.267763
23
206.909668
33
47.345604
0
3DFACE
8
0
70
0
10
-46.980347
20
220.148987
30
22.202610
11
-25.507462
21
234.390137
31
38.777088
12
-42.148956
22
232.056366
32
18.674911
13
-42.148956
23
232.056366
33
18.674911
0
3DFACE
8
0
70
0
10
-38.628479
20
224.714050
30
45.097591
11
-25.507462
21
234.390137
31
38.777088
12
-46.980347
22
220.148987
32
22.202610
13
-46.980347
23
220.148987
33
22.202610
0
3DFACE
8
0
70
0
10
-24.222654
20
223.160187
30
48.755089
11
-13.993380
21
232.925598
31
45.811466
12
-25.507462
22
234.390137
32
38.777088
13
-25.507462
23
234.390137
33
38.777088
0
3DFACE
8
0
70
0
10
-38.628479
20
224.714050
30
45.097591
11
-24.222654
21
223.160187
31
48.755089
12
-25.507462
22
234.390137
32
38.777088
13
-25.507462
23
234.390137
33
38.777088
0
3DFACE
8
0
70
0
10
-42.148956
20
232.056366
30
18.674911
11
-27.098778
21
250.500854
31
29.503094
12
-41.943733
22
243.122803
32
14.820289
13
-41.943733
23
243.122803
33
14.820289
0
3DFACE
8
0
70
0
10
-25.507462
20
234.390137
30
38.777088
11
-27.098778
21
250.500854
31
29.503094
12
-42.148956
22
232.056366
32
18.674911
13
-42.148956
23
232.056366
33
18.674911
0
3DFACE
8
0
70
0
10
29.041908
20
-118.287132
30
4.025758
11
28.155025
21
-104.952950
31
9.810616
12
16.469744
22
-82.419884
32
-2.654183
13
16.469744
23
-82.419884
33
-2.654183
0
3DFACE
8
0
70
0
10
29.041908
20
-118.287132
30
4.025758
11
16.469744
21
-82.419884
31
-2.654183
12
17.665939
22
-112.008972
32
-12.463043
13
17.665939
23
-112.008972
33
-12.463043
0
3DFACE
8
0
70
0
10
29.041908
20
-118.287132
30
4.025758
11
67.378319
21
-95.347923
31
-5.866143
12
28.155025
22
-104.952950
32
9.810616
13
28.155025
23
-104.952950
33
9.810616
0
3DFACE
8
0
70
0
10
29.041908
20
-118.287132
30
4.025758
11
62.578747
21
-111.062630
31
-10.262160
12
67.378319
22
-95.347923
32
-5.866143
13
67.378319
23
-95.347923
33
-5.866143
0
3DFACE
8
0
70
0
10
62.578747
20
-111.062630
30
-10.262160
11
75.051872
21
-80.329742
31
-17.798792
12
67.378319
22
-95.347923
32
-5.866143
13
67.378319
23
-95.347923
33
-5.866143
0
3DFACE
8
0
70
0
10
62.578747
20
-111.062630
30
-10.262160
11
68.995895
21
-105.211533
31
-23.918814
12
75.051872
22
-80.329742
32
-17.798792
13
75.051872
23
-80.329742
33
-17.798792
0
3DFACE
8
0
70
0
10
21.464033
20
-103.385872
30
-33.158424
11
16.469744
21
-82.419884
31
-2.654183
12
19.915014
22
-58.357903
32
-19.697906
13
19.915014
23
-58.357903
33
-19.697906
0
3DFACE
8
0
70
0
10
17.665939
20
-112.008972
30
-12.463043
11
16.469744
21
-82.419884
31
-2.654183
12
21.464033
22
-103.385872
32
-33.158424
13
21.464033
23
-103.385872
33
-33.158424
0
3DFACE
8
0
70
0
10
57.653130
20
-101.376808
30
-34.431881
11
62.022316
21
-65.061142
31
-25.046671
12
75.051872
22
-80.329742
32
-17.798792
13
75.051872
23
-80.329742
33
-17.798792
0
3DFACE
8
0
70
0
10
68.995895
20
-105.211533
30
-23.918814
11
57.653130
21
-101.376808
31
-34.431881
12
75.051872
22
-80.329742
32
-17.798792
13
75.051872
23
-80.329742
33
-17.798792
0
3DFACE
8
0
70
0
10
21.464033
20
-103.385872
30
-33.158424
11
19.915014
21
-58.357903
31
-19.697906
12
62.022316
22
-65.061142
32
-25.046671
13
62.022316
23
-65.061142
33
-25.046671
0
3DFACE
8
0
70
0
10
57.653130
20
-101.376808
30
-34.431881
11
21.464033
21
-103.385872
31
-33.158424
12
62.022316
22
-65.061142
32
-25.046671
13
62.022316
23
-65.061142
33
-25.046671
0
3DFACE
8
0
70
0
10
-34.843994
20
3.938919
30
56.418301
11
-33.775642
21
-22.992722
31
54.481926
12
-28.473459
22
-31.654373
32
29.117462
13
-28.473459
23
-31.654373
33
29.117462
0
3DFACE
8
0
70
0
10
-34.843994
20
3.938919
30
56.418301
11
-28.473459
21
-31.654373
31
29.117462
12
-30.591763
22
-2.873337
32
38.581982
13
-30.591763
23
-2.873337
33
38.581982
0
3DFACE
8
0
70
0
10
-34.843994
20
3.938919
30
56.418301
11
-30.591763
21
-2.873337
31
38.581982
12
-72.362274
22
-0.745880
32
28.344862
13
-72.362274
23
-0.745880
33
28.344862
0
3DFACE
8
0
70
0
10
-34.843994
20
3.938919
30
56.418301
11
-72.362274
21
-0.745880
31
28.344862
12
-70.922035
22
5.162308
32
48.106606
13
-70.922035
23
5.162308
33
48.106606
0
3DFACE
8
0
70
0
10
-70.922035
20
5.162308
30
48.106606
11
-72.362274
21
-0.745880
31
28.344862
12
-85.876724
22
-14.892975
32
19.867216
13
-85.876724
23
-14.892975
33
19.867216
0
3DFACE
8
0
70
0
10
-70.922035
20
5.162308
30
48.106606
11
-85.876724
21
-14.892975
31
19.867216
12
-83.543747
22
-8.178894
32
44.081467
13
-83.543747
23
-8.178894
33
44.081467
0
3DFACE
8
0
70
0
10
-47.848953
20
-46.564331
30
49.288197
11
-41.583408
21
-57.202568
31
16.776381
12
-28.473459
22
-31.654373
32
29.117462
13
-28.473459
23
-31.654373
33
29.117462
0
3DFACE
8
0
70
0
10
-33.775642
20
-22.992722
30
54.481926
11
-47.848953
21
-46.564331
31
49.288197
12
-28.473459
22
-31.654373
32
29.117462
13
-28.473459
23
-31.654373
33
29.117462
0
3DFACE
8
0
70
0
10
-83.543747
20
-8.178894
30
44.081467
11
-85.876724
21
-14.892975
31
19.867216
12
-79.375259
22
-27.664810
32
43.472038
13
-79.375259
23
-27.664810
33
43.472038
0
3DFACE
8
0
70
0
10
-79.375259
20
-27.664810
30
43.472038
11
-85.876724
21
-14.892975
31
19.867216
12
-79.506844
22
-36.059891
32
14.171220
13
-79.506844
23
-36.059891
33
14.171220
0
3DFACE
8
0
70
0
10
-79.375259
20
-27.664810
30
43.472038
11
-79.506844
21
-36.059891
31
14.171220
12
-47.848953
22
-46.564331
32
49.288197
13
-47.848953
23
-46.564331
33
49.288197
0
3DFACE
8
0
70
0
10
-47.848953
20
-46.564331
30
49.288197
11
-79.506844
21
-36.059891
31
14.171220
12
-41.583408
22
-57.202568
32
16.776381
13
-41.583408
23
-57.202568
33
16.776381
0
3DFACE
8
0
70
0
10
30.510536
20
-136.496078
30
-4.222586
11
29.041908
21
-118.287132
31
4.025758
12
17.665939
22
-112.008972
32
-12.463043
13
17.665939
23
-112.008972
33
-12.463043
0
3DFACE
8
0
70
0
10
24.071550
20
-166.262619
30
-28.096888
11
30.510536
21
-136.496078
31
-4.222586
12
17.665939
22
-112.008972
32
-12.463043
13
17.665939
23
-112.008972
33
-12.463043
0
3DFACE
8
0
70
0
10
63.618965
20
-136.899689
30
-18.352261
11
62.578747
21
-111.062630
31
-10.262160
12
30.510536
22
-136.496078
32
-4.222586
13
30.510536
23
-136.496078
33
-4.222586
0
3DFACE
8
0
70
0
10
30.510536
20
-136.496078
30
-4.222586
11
62.578747
21
-111.062630
31
-10.262160
12
29.041908
22
-118.287132
32
4.025758
13
29.041908
23
-118.287132
33
4.025758
0
3DFACE
8
0
70
0
10
72.748665
20
-157.444458
30
-35.389843
11
68.995895
21
-105.211533
31
-23.918814
12
63.618965
22
-136.899689
32
-18.352261
13
63.618965
23
-136.899689
33
-18.352261
0
3DFACE
8
0
70
0
10
63.618965
20
-136.899689
30
-18.352261
11
68.995895
21
-105.211533
31
-23.918814
12
62.578747
22
-111.062630
32
-10.262160
13
62.578747
23
-111.062630
33
-10.262160
0
3DFACE
8
0
70
0
10
24.071550
20
-166.262619
30
-28.096888
11
17.665939
21
-112.008972
31
-12.463043
12
21.464033
22
-103.385872
32
-33.158424
13
21.464033
23
-103.385872
33
-33.158424
0
3DFACE
8
0
70
0
10
8.326077
20
-199.466171
30
-52.152004
11
24.071550
21
-166.262619
31
-28.096888
12
21.464033
22
-103.385872
32
-33.158424
13
21.464033
23
-103.385872
33
-33.158424
0
3DFACE
8
0
70
0
10
80.181396
20
-185.185974
30
-61.168491
11
57.653130
21
-101.376808
31
-34.431881
12
72.748665
22
-157.444458
32
-35.389843
13
72.748665
23
-157.444458
33
-35.389843
0
3DFACE
8
0
70
0
10
72.748665
20
-157.444458
30
-35.389843
11
57.653130
21
-101.376808
31
-34.431881
12
68.995895
22
-105.211533
32
-23.918814
13
68.995895
23
-105.211533
33
-23.918814
0
3DFACE
8
0
70
0
10
8.326077
20
-199.466171
30
-52.152004
11
21.464033
21
-103.385872
31
-33.158424
12
80.181396
22
-185.185974
32
-61.168491
13
80.181396
23
-185.185974
33
-61.168491
0
3DFACE
8
0
70
0
10
80.181396
20
-185.185974
30
-61.168491
11
21.464033
21
-103.385872
31
-33.158424
12
57.653130
22
-101.376808
32
-34.431881
13
57.653130
23
-101.376808
33
-34.431881
0
3DFACE
8
0
70
0
10
-49.260086
20
-32.226929
30
97.681686
11
-33.775642
21
-22.992722
31
54.481926
12
-45.456806
22
-5.839325
32
78.018112
13
-45.456806
23
-5.839325
33
78.018112
0
3DFACE
8
0
70
0
10
-45.456806
20
-5.839325
30
78.018112
11
-33.775642
21
-22.992722
31
54.481926
12
-34.843994
22
3.938919
32
56.418301
13
-34.843994
23
3.938919
33
56.418301
0
3DFACE
8
0
70
0
10
-45.456806
20
-5.839325
30
78.018112
11
-34.843994
21
3.938919
31
56.418301
12
-70.922035
22
5.162308
32
48.106606
13
-70.922035
23
5.162308
33
48.106606
0
3DFACE
8
0
70
0
10
-81.141853
20
-7.114487
30
74.922470
11
-45.456806
21
-5.839325
31
78.018112
12
-70.922035
22
5.162308
32
48.106606
13
-70.922035
23
5.162308
33
48.106606
0
3DFACE
8
0
70
0
10
-81.141853
20
-7.114487
30
74.922470
11
-70.922035
21
5.162308
31
48.106606
12
-83.543747
22
-8.178894
32
44.081467
13
-83.543747
23
-8.178894
33
44.081467
0
3DFACE
8
0
70
0
10
-96.374947
20
-21.059235
30
88.192627
11
-81.141853
21
-7.114487
31
74.922470
12
-83.543747
22
-8.178894
32
44.081467
13
-83.543747
23
-8.178894
33
44.081467
0
3DFACE
8
0
70
0
10
-44.690971
20
-62.324440
30
120.275047
11
-47.848953
21
-46.564331
31
49.288197
12
-49.260086
22
-32.226929
32
97.681686
13
-49.260086
23
-32.226929
33
97.681686
0
3DFACE
8
0
70
0
10
-49.260086
20
-32.226929
30
97.681686
11
-47.848953
21
-46.564331
31
49.288197
12
-33.775642
22
-22.992722
32
54.481926
13
-33.775642
23
-22.992722
33
54.481926
0
3DFACE
8
0
70
0
10
-96.374947
20
-21.059235
30
88.192627
11
-83.543747
21
-8.178894
31
44.081467
12
-79.375259
22
-27.664810
32
43.472038
13
-79.375259
23
-27.664810
33
43.472038
0
3DFACE
8
0
70
0
10
-113.545296
20
-44.143631
30
105.592247
11
-96.374947
21
-21.059235
31
88.192627
12
-79.375259
22
-27.664810
32
43.472038
13
-79.375259
23
-27.664810
33
43.472038
0
3DFACE
8
0
70
0
10
-113.545296
20
-44.143631
30
105.592247
11
-79.375259
21
-27.664810
31
43.472038
12
-47.848953
22
-46.564331
32
49.288197
13
-47.848953
23
-46.564331
33
49.288197
0
3DFACE
8
0
70
0
10
-44.690971
20
-62.324440
30
120.275047
11
-113.545296
21
-44.143631
31
105.592247
12
-47.848953
22
-46.564331
32
49.288197
13
-47.848953
23
-46.564331
33
49.288197
0
3DFACE
8
0
70
0
10
110.749672
20
33.564117
30
68.830963
11
15.998001
21
78.095963
31
105.829842
12
12.987781
22
58.216187
32
100.092918
13
12.987781
23
58.216187
33
100.092918
0
3DFACE
8
0
70
0
10
110.749672
20
33.564117
30
68.830963
11
116.611580
21
67.891418
31
70.192795
12
15.998001
22
78.095963
32
105.829842
13
15.998001
23
78.095963
33
105.829842
0
3DFACE
8
0
70
0
10
98.855209
20
-19.309052
30
-76.173508
11
-3.238732
21
-15.149231
31
-101.560997
12
1.154329
22
18.126740
32
-103.777931
13
1.154329
23
18.126740
33
-103.777931
0
3DFACE
8
0
70
0
10
98.855209
20
-19.309052
30
-76.173508
11
1.154329
21
18.126740
31
-103.777931
12
104.743851
22
15.137085
32
-74.485771
13
104.743851
23
15.137085
33
-74.485771
0
3DFACE
8
0
70
0
10
110.749672
20
33.564117
30
68.830963
11
134.359207
21
35.092560
31
-10.955460
12
116.611580
22
67.891418
32
70.192795
13
116.611580
23
67.891418
33
70.192795
0
3DFACE
8
0
70
0
10
110.749672
20
33.564117
30
68.830963
11
129.097565
21
4.396301
31
-2.435025
12
134.359207
22
35.092560
32
-10.955460
13
134.359207
23
35.092560
33
-10.955460
0
3DFACE
8
0
70
0
10
129.097565
20
4.396301
30
-2.435025
11
98.855209
21
-19.309052
31
-76.173508
12
104.743851
22
15.137085
32
-74.485771
13
104.743851
23
15.137085
33
-74.485771
0
3DFACE
8
0
70
0
10
129.097565
20
4.396301
30
-2.435025
11
104.743851
21
15.137085
31
-74.485771
12
134.359207
22
35.092560
32
-10.955460
13
134.359207
23
35.092560
33
-10.955460
0
3DFACE
8
0
70
0
10
-89.426971
20
62.143906
30
74.830025
11
12.987781
21
58.216187
31
100.092918
12
15.998001
22
78.095963
32
105.829842
13
15.998001
23
78.095963
33
105.829842
0
3DFACE
8
0
70
0
10
-89.426971
20
62.143906
30
74.830025
11
15.998001
21
78.095963
31
105.829842
12
-85.366882
22
96.728455
32
76.245850
13
-85.366882
23
96.728455
33
76.245850
0
3DFACE
8
0
70
0
10
-101.321434
20
9.270737
30
-70.174454
11
1.154329
21
18.126740
31
-103.777931
12
-3.238732
22
-15.149231
32
-101.560997
13
-3.238732
23
-15.149231
33
-101.560997
0
3DFACE
8
0
70
0
10
-101.321434
20
9.270737
30
-70.174454
11
-97.234612
21
43.974121
31
-68.432716
12
1.154329
22
18.126740
32
-103.777931
13
1.154329
23
18.126740
33
-103.777931
0
3DFACE
8
0
70
0
10
-89.426971
20
62.143906
30
74.830025
11
-116.307739
21
70.880981
31
-3.443266
12
-119.347832
22
39.867554
32
5.010591
13
-119.347832
23
39.867554
33
5.010591
0
3DFACE
8
0
70
0
10
-89.426971
20
62.143906
30
74.830025
11
-85.366882
21
96.728455
31
76.245850
12
-116.307739
22
70.880981
32
-3.443266
13
-116.307739
23
70.880981
33
-3.443266
0
3DFACE
8
0
70
0
10
-119.347832
20
39.867554
30
5.010591
11
-116.307739
21
70.880981
31
-3.443266
12
-97.234612
22
43.974121
32
-68.432716
13
-97.234612
23
43.974121
33
-68.432716
0
3DFACE
8
0
70
0
10
-119.347832
20
39.867554
30
5.010591
11
-97.234612
21
43.974121
31
-68.432716
12
-101.321434
22
9.270737
32
-70.174454
13
-101.321434
23
9.270737
33
-70.174454
0
3DFACE
8
0
70
0
10
15.998001
20
78.095963
30
105.829842
11
71.569992
21
128.709351
31
32.023769
12
22.662350
22
139.753723
32
34.465511
13
22.662350
23
139.753723
33
34.465511
0
3DFACE
8
0
70
0
10
15.998001
20
78.095963
30
105.829842
11
116.611580
21
67.891418
31
70.192795
12
71.569992
22
128.709351
32
32.023769
13
71.569992
23
128.709351
33
32.023769
0
3DFACE
8
0
70
0
10
104.743851
20
15.137085
30
-74.485771
11
1.154329
21
18.126740
31
-103.777931
12
66.929749
22
124.061310
32
-62.014969
13
66.929749
23
124.061310
33
-62.014969
0
3DFACE
8
0
70
0
10
1.154329
20
18.126740
30
-103.777931
11
9.044233
21
134.274048
31
-65.244652
12
66.929749
22
124.061310
32
-62.014969
13
66.929749
23
124.061310
33
-62.014969
0
3DFACE
8
0
70
0
10
116.611580
20
67.891418
30
70.192795
11
104.067047
21
89.708313
31
-3.941795
12
77.862701
22
123.838562
32
17.052711
13
77.862701
23
123.838562
33
17.052711
0
3DFACE
8
0
70
0
10
116.611580
20
67.891418
30
70.192795
11
134.359207
21
35.092560
31
-10.955460
12
104.067047
22
89.708313
32
-3.941795
13
104.067047
23
89.708313
33
-3.941795
0
3DFACE
8
0
70
0
10
104.743851
20
15.137085
30
-74.485771
11
96.147980
21
109.775085
31
-40.928741
12
104.067047
22
89.708313
32
-3.941795
13
104.067047
23
89.708313
33
-3.941795
0
3DFACE
8
0
70
0
10
134.359207
20
35.092560
30
-10.955460
11
104.743851
21
15.137085
31
-74.485771
12
104.067047
22
89.708313
32
-3.941795
13
104.067047
23
89.708313
33
-3.941795
0
3DFACE
8
0
70
0
10
116.611580
20
67.891418
30
70.192795
11
77.862701
21
123.838562
31
17.052711
12
71.569992
22
128.709351
32
32.023769
13
71.569992
23
128.709351
33
32.023769
0
3DFACE
8
0
70
0
10
104.743851
20
15.137085
30
-74.485771
11
66.929749
21
124.061310
31
-62.014969
12
96.147980
22
109.775085
32
-40.928741
13
96.147980
23
109.775085
33
-40.928741
0
3DFACE
8
0
70
0
10
15.998001
20
78.095963
30
105.829842
11
-37.086304
21
140.761047
31
34.553482
12
-85.366882
22
96.728455
32
76.245850
13
-85.366882
23
96.728455
33
76.245850
0
3DFACE
8
0
70
0
10
15.998001
20
78.095963
30
105.829842
11
22.662350
21
139.753723
31
34.465511
12
-37.086304
22
140.761047
32
34.553482
13
-37.086304
23
140.761047
33
34.553482
0
3DFACE
8
0
70
0
10
-97.234612
20
43.974121
30
-68.432716
11
-42.060211
21
135.216583
31
-59.673416
12
1.154329
22
18.126740
32
-103.777931
13
1.154329
23
18.126740
33
-103.777931
0
3DFACE
8
0
70
0
10
1.154329
20
18.126740
30
-103.777931
11
-42.060211
21
135.216583
31
-59.673416
12
9.044233
22
134.274048
32
-65.244652
13
9.044233
23
134.274048
33
-65.244652
0
3DFACE
8
0
70
0
10
-85.366882
20
96.728455
30
76.245850
11
-51.092300
21
138.524780
31
20.155008
12
-82.444252
22
104.582214
32
-6.932482
13
-82.444252
23
104.582214
33
-6.932482
0
3DFACE
8
0
70
0
10
-85.366882
20
96.728455
30
76.245850
11
-82.444252
21
104.582214
31
-6.932482
12
-116.307739
22
70.880981
32
-3.443266
13
-116.307739
23
70.880981
33
-3.443266
0
3DFACE
8
0
70
0
10
-116.307739
20
70.880981
30
-3.443266
11
-82.444252
21
104.582214
31
-6.932482
12
-97.234612
22
43.974121
32
-68.432716
13
-97.234612
23
43.974121
33
-68.432716
0
3DFACE
8
0
70
0
10
-97.234612
20
43.974121
30
-68.432716
11
-82.444252
21
104.582214
31
-6.932482
12
-78.606453
22
121.166901
32
-41.979904
13
-78.606453
23
121.166901
33
-41.979904
0
3DFACE
8
0
70
0
10
-85.366882
20
96.728455
30
76.245850
11
-37.086304
21
140.761047
31
34.553482
12
-51.092300
22
138.524780
32
20.155008
13
-51.092300
23
138.524780
33
20.155008
0
3DFACE
8
0
70
0
10
-97.234612
20
43.974121
30
-68.432716
11
-78.606453
21
121.166901
31
-41.979904
12
-42.060211
22
135.216583
32
-59.673416
13
-42.060211
23
135.216583
33
-59.673416
0
3DFACE
8
0
70
0
10
104.067047
20
89.708313
30
-3.941795
11
70.302887
21
121.707031
31
70.286903
12
77.862701
22
123.838562
32
17.052711
13
77.862701
23
123.838562
33
17.052711
0
3DFACE
8
0
70
0
10
105.982521
20
95.334747
30
88.164093
11
70.302887
21
121.707031
31
70.286903
12
104.067047
22
89.708313
32
-3.941795
13
104.067047
23
89.708313
33
-3.941795
0
3DFACE
8
0
70
0
10
77.862701
20
123.838562
30
17.052711
11
108.980171
21
152.263611
31
88.478142
12
74.888885
22
141.647064
32
-24.637608
13
74.888885
23
141.647064
33
-24.637608
0
3DFACE
8
0
70
0
10
77.862701
20
123.838562
30
17.052711
11
70.302887
21
121.707031
31
70.286903
12
108.980171
22
152.263611
32
88.478142
13
108.980171
23
152.263611
33
88.478142
0
3DFACE
8
0
70
0
10
96.147980
20
109.775085
30
-40.928741
11
74.888885
21
141.647064
31
-24.637608
12
108.980171
22
152.263611
32
88.478142
13
108.980171
23
152.263611
33
88.478142
0
3DFACE
8
0
70
0
10
96.147980
20
109.775085
30
-40.928741
11
108.980171
21
152.263611
31
88.478142
12
137.622223
22
123.211609
32
102.987457
13
137.622223
23
123.211609
33
102.987457
0
3DFACE
8
0
70
0
10
104.067047
20
89.708313
30
-3.941795
11
96.147980
21
109.775085
31
-40.928741
12
137.622223
22
123.211609
32
102.987457
13
137.622223
23
123.211609
33
102.987457
0
3DFACE
8
0
70
0
10
105.982521
20
95.334747
30
88.164093
11
104.067047
21
89.708313
31
-3.941795
12
137.622223
22
123.211609
32
102.987457
13
137.622223
23
123.211609
33
102.987457
0
3DFACE
8
0
70
0
10
-82.444252
20
104.582214
30
-6.932482
11
-51.092300
21
138.524780
31
20.155008
12
-80.926430
22
92.518570
32
63.485115
13
-80.926430
23
92.518570
33
63.485115
0
3DFACE
8
0
70
0
10
-110.328468
20
55.094635
30
57.587978
11
-82.444252
21
104.582214
31
-6.932482
12
-80.926430
22
92.518570
32
63.485115
13
-80.926430
23
92.518570
33
63.485115
0
3DFACE
8
0
70
0
10
-51.092300
20
138.524780
30
20.155008
11
-51.965275
21
152.843658
31
-19.836584
12
-130.143021
22
104.554413
32
77.865410
13
-130.143021
23
104.554413
33
77.865410
0
3DFACE
8
0
70
0
10
-51.092300
20
138.524780
30
20.155008
11
-130.143021
21
104.554413
31
77.865410
12
-80.926430
22
92.518570
32
63.485115
13
-80.926430
23
92.518570
33
63.485115
0
3DFACE
8
0
70
0
10
-78.606453
20
121.166901
30
-41.979904
11
-130.143021
21
104.554413
31
77.865410
12
-51.965275
22
152.843658
32
-19.836584
13
-51.965275
23
152.843658
33
-19.836584
0
3DFACE
8
0
70
0
10
-78.606453
20
121.166901
30
-41.979904
11
-151.434418
21
67.502228
31
70.363289
12
-130.143021
22
104.554413
32
77.865410
13
-130.143021
23
104.554413
33
77.865410
0
3DFACE
8
0
70
0
10
-82.444252
20
104.582214
30
-6.932482
11
-151.434418
21
67.502228
31
70.363289
12
-78.606453
22
121.166901
32
-41.979904
13
-78.606453
23
121.166901
33
-41.979904
0
3DFACE
8
0
70
0
10
-110.328468
20
55.094635
30
57.587978
11
-151.434418
21
67.502228
31
70.363289
12
-82.444252
22
104.582214
32
-6.932482
13
-82.444252
23
104.582214
33
-6.932482
0
3DFACE
8
0
70
0
10
-75.177429
20
52.293091
30
86.800056
11
-110.328468
21
55.094635
31
57.587978
12
-80.926430
22
92.518570
32
63.485115
13
-80.926430
23
92.518570
33
63.485115
0
3DFACE
8
0
70
0
10
-75.177429
20
52.293091
30
86.800056
11
-80.926430
21
92.518570
31
63.485115
12
-68.595589
22
94.525848
32
63.659386
13
-68.595589
23
94.525848
33
63.659386
0
3DFACE
8
0
70
0
10
-68.595589
20
94.525848
30
63.659386
11
-80.926430
21
92.518570
31
63.485115
12
-130.143021
22
104.554413
32
77.865410
13
-130.143021
23
104.554413
33
77.865410
0
3DFACE
8
0
70
0
10
-68.595589
20
94.525848
30
63.659386
11
-130.143021
21
104.554413
31
77.865410
12
-88.949066
22
103.373840
32
111.937248
13
-88.949066
23
103.373840
33
111.937248
0
3DFACE
8
0
70
0
10
-92.538979
20
62.490265
30
127.538742
11
-88.949066
21
103.373840
31
111.937248
12
-130.143021
22
104.554413
32
77.865410
13
-130.143021
23
104.554413
33
77.865410
0
3DFACE
8
0
70
0
10
-92.538979
20
62.490265
30
127.538742
11
-130.143021
21
104.554413
31
77.865410
12
-151.434418
22
67.502228
32
70.363289
13
-151.434418
23
67.502228
33
70.363289
0
3DFACE
8
0
70
0
10
-75.177429
20
52.293091
30
86.800056
11
-92.538979
21
62.490265
31
127.538742
12
-151.434418
22
67.502228
32
70.363289
13
-151.434418
23
67.502228
33
70.363289
0
3DFACE
8
0
70
0
10
-75.177429
20
52.293091
30
86.800056
11
-151.434418
21
67.502228
31
70.363289
12
-110.328468
22
55.094635
32
57.587978
13
-110.328468
23
55.094635
33
57.587978
0
3DFACE
8
0
70
0
10
65.766563
20
93.222717
30
108.527061
11
70.302887
21
121.707031
31
70.286903
12
105.982521
22
95.334747
32
88.164093
13
105.982521
23
95.334747
33
88.164093
0
3DFACE
8
0
70
0
10
65.766563
20
93.222717
30
108.527061
11
61.105904
21
119.886078
31
68.156784
12
70.302887
22
121.707031
32
70.286903
13
70.302887
23
121.707031
33
70.286903
0
3DFACE
8
0
70
0
10
61.105904
20
119.886078
30
68.156784
11
108.980171
21
152.263611
31
88.478142
12
70.302887
22
121.707031
32
70.286903
13
70.302887
23
121.707031
33
70.286903
0
3DFACE
8
0
70
0
10
61.105904
20
119.886078
30
68.156784
11
61.117504
21
151.565979
31
110.814583
12
108.980171
22
152.263611
32
88.478142
13
108.980171
23
152.263611
33
88.478142
0
3DFACE
8
0
70
0
10
65.502785
20
122.414490
30
143.352585
11
137.622223
21
123.211609
31
102.987457
12
108.980171
22
152.263611
32
88.478142
13
108.980171
23
152.263611
33
88.478142
0
3DFACE
8
0
70
0
10
65.502785
20
122.414490
30
143.352585
11
108.980171
21
152.263611
31
88.478142
12
61.117504
22
151.565979
32
110.814583
13
61.117504
23
151.565979
33
110.814583
0
3DFACE
8
0
70
0
10
65.766563
20
93.222717
30
108.527061
11
105.982521
21
95.334747
31
88.164093
12
137.622223
22
123.211609
32
102.987457
13
137.622223
23
123.211609
33
102.987457
0
3DFACE
8
0
70
0
10
65.766563
20
93.222717
30
108.527061
11
137.622223
21
123.211609
31
102.987457
12
65.502785
22
122.414490
32
143.352585
13
65.502785
23
122.414490
33
143.352585
0
3DFACE
8
0
70
0
10
19.279377
20
330.441498
30
-47.977474
11
23.963600
21
330.589996
31
-49.886082
12
17.734985
22
285.583313
32
-82.859993
13
1.928107
23
289.775970
33
-77.296013
0
3DFACE
8
0
70
0
10
28.067183
20
328.855286
30
-47.486458
11
33.313129
21
284.110931
31
-75.542389
12
17.734985
22
285.583313
32
-82.859993
13
23.963600
23
330.589996
33
-49.886082
0
3DFACE
8
0
70
0
10
30.585018
20
326.925385
30
-44.124195
11
43.674690
21
284.228973
31
-65.393509
12
33.313129
22
284.110931
32
-75.542389
13
28.067183
23
328.855286
33
-47.486458
0
3DFACE
8
0
70
0
10
29.469452
20
325.617401
30
-40.890881
11
41.091301
21
286.729340
31
-55.747879
12
43.674690
22
284.228973
32
-65.393509
13
30.585018
23
326.925385
33
-44.124195
0
3DFACE
8
0
70
0
10
28.185959
20
323.977905
30
-36.876965
11
38.243958
21
289.764893
31
-43.770275
12
41.091301
22
286.729340
32
-55.747879
13
29.469452
23
325.617401
33
-40.890881
0
3DFACE
8
0
70
0
10
24.638195
20
323.709808
30
-35.091564
11
26.416506
21
293.124023
31
-38.538578
12
38.243958
22
289.764893
32
-43.770275
13
28.185959
23
323.977905
33
-36.876965
0
3DFACE
8
0
70
0
10
21.834784
20
323.685638
30
-34.090557
11
16.896372
21
295.556915
31
-35.631630
12
26.416506
22
293.124023
32
-38.538578
13
24.638195
23
323.709808
33
-35.091564
0
3DFACE
8
0
70
0
10
21.834784
20
323.685638
30
-34.090557
11
19.341084
21
324.665924
31
-35.387539
12
7.498247
22
296.538818
32
-39.595631
13
16.896372
23
295.556915
33
-35.631630
0
3DFACE
8
0
70
0
10
19.341084
20
324.665924
30
-35.387539
11
16.324009
21
326.119019
31
-37.539745
12
-4.120146
22
297.411682
32
-46.137352
13
7.498247
23
296.538818
33
-39.595631
0
3DFACE
8
0
70
0
10
16.324009
20
326.119019
30
-37.539745
11
16.133553
21
328.024536
31
-41.636017
12
-6.536907
22
295.326294
32
-58.409088
13
-4.120146
23
297.411682
33
-46.137352
0
3DFACE
8
0
70
0
10
16.133553
20
328.024536
30
-41.636017
11
15.899676
21
329.576111
31
-44.944733
12
-8.772960
22
293.695892
32
-68.324005
13
-6.536907
23
295.326294
33
-58.409088
0
3DFACE
8
0
70
0
10
15.899676
20
329.576111
30
-44.944733
11
19.279377
21
330.441498
31
-47.977474
12
1.928107
22
289.775970
32
-77.296013
13
-8.772960
23
293.695892
33
-68.324005
0
ENDSEC
0
EOF
