0
SECTION
2
HEADER
999
DXF File Generated by LightWave 3D(TM)
0
ENDSEC
0
SECTION
2
TABLES
0
ENDSEC
0
SECTION
2
BLOCKS
0
ENDSEC
0
SECTION
2
ENTITIES
0
3DFACE
8
0
70
0
10
18.736019
20
-24.780502
30
80.699203
11
55.550282
21
-29.739563
31
56.775917
12
91.347603
22
-38.032715
32
25.837719
13
81.908699
23
-21.450790
33
49.513256
0
3DFACE
8
0
70
0
10
69.537277
20
-28.435883
30
-71.979820
11
73.888199
21
-46.623138
31
-54.512314
12
28.689661
22
-42.955612
32
-66.839516
13
1.262551
23
-34.646301
33
-90.898293
0
3DFACE
8
0
70
0
10
21.242617
20
-30.466400
30
101.370064
11
18.736019
21
-24.780502
31
80.699203
12
81.908699
22
-21.450790
32
49.513256
13
105.003876
23
-26.164886
33
62.301998
0
3DFACE
8
0
70
0
10
89.347450
20
-35.004745
30
-91.451302
11
69.537277
21
-28.435883
31
-71.979820
12
1.262551
22
-34.646301
32
-90.898293
13
-0.519814
23
-42.753807
33
-112.347023
0
3DFACE
8
0
70
0
10
22.302843
20
-26.175179
30
113.833420
11
110.935951
21
-21.821213
31
70.311996
12
122.441315
22
32.880692
32
71.692688
13
19.408421
23
28.649689
33
116.775040
0
3DFACE
8
0
70
0
10
93.244194
20
-31.810257
30
-103.429222
11
-2.288703
21
-40.059952
31
-127.666893
12
-5.173771
22
14.771362
32
-124.726929
13
104.749557
23
22.891647
33
-102.048538
0
3DFACE
8
0
70
0
10
19.408421
20
28.649689
30
116.775040
11
122.441315
21
32.880692
31
71.692688
12
115.469666
22
33.217102
32
64.019379
13
18.096483
23
29.126282
33
104.567497
0
3DFACE
8
0
70
0
10
22.302843
20
-26.175179
30
113.833420
11
21.242617
21
-30.466400
31
101.370064
12
105.003876
22
-26.164886
32
62.301998
13
110.935951
23
-21.821213
33
70.311996
0
3DFACE
8
0
70
0
10
104.749557
20
22.891647
30
-102.048538
11
-5.173771
21
14.771362
31
-124.726929
12
-3.336705
22
17.083572
32
-109.223343
13
99.813240
23
24.377228
33
-89.733925
0
3DFACE
8
0
70
0
10
93.244194
20
-31.810257
30
-103.429222
11
89.347450
21
-35.004745
31
-91.451302
12
-0.519814
22
-42.753807
32
-112.347023
13
-2.288703
23
-40.059952
33
-127.666893
0
3DFACE
8
0
70
0
10
27.673773
20
-119.444244
30
102.617195
11
74.813721
21
-119.444244
31
102.617195
12
66.977409
22
-98.812729
32
87.801697
13
33.987896
23
-98.998032
33
87.801697
0
3DFACE
8
0
70
0
10
81.908699
20
-21.450790
30
49.513256
11
91.347603
21
-38.032715
31
25.837719
12
92.755997
22
-47.545853
32
-15.295441
13
91.623055
23
-23.945633
33
-11.561777
0
3DFACE
8
0
70
0
10
105.003876
20
-26.164886
30
62.301998
11
81.908699
21
-21.450790
31
49.513256
12
91.623055
22
-23.945633
32
-11.561777
13
118.443901
23
-29.234856
33
-14.711806
0
3DFACE
8
0
70
0
10
122.441315
20
32.880692
30
71.692688
11
110.935951
21
-21.821213
31
70.311996
12
124.840096
22
-25.295639
32
-15.213634
13
139.701477
23
29.602371
33
-14.185961
0
3DFACE
8
0
70
0
10
139.701477
20
29.602371
30
-14.185961
11
132.068192
21
30.331696
31
-13.326665
12
115.469666
22
33.217102
32
64.019379
13
122.441315
23
32.880692
33
71.692688
0
3DFACE
8
0
70
0
10
110.935951
20
-21.821213
30
70.311996
11
105.003876
21
-26.164886
31
62.301998
12
118.443901
22
-29.234856
32
-14.711806
13
124.840096
23
-25.295639
33
-15.213634
0
3DFACE
8
0
70
0
10
12.906889
20
-152.844193
30
102.617195
11
80.090286
21
-153.029510
31
102.617195
12
74.813721
22
-119.444244
32
102.617195
13
27.673773
23
-119.444244
33
102.617195
0
3DFACE
8
0
70
0
10
-1.046900
20
175.561310
30
5.150574
11
61.432213
21
154.827393
31
0.054197
12
51.704720
22
149.856750
32
-40.421265
13
-3.320202
23
154.062683
33
-45.912178
0
3DFACE
8
0
70
0
10
91.623055
20
-23.945633
30
-11.561777
11
92.755997
21
-47.545853
31
-15.295441
12
73.888199
22
-46.623138
32
-54.512314
13
69.537277
23
-28.435883
33
-71.979820
0
3DFACE
8
0
70
0
10
118.443901
20
-29.234856
30
-14.711806
11
91.623055
21
-23.945633
31
-11.561777
12
69.537277
22
-28.435883
32
-71.979820
13
89.347450
23
-35.004745
33
-91.451302
0
3DFACE
8
0
70
0
10
124.840096
20
-25.295639
30
-15.213634
11
93.244194
21
-31.810257
31
-103.429222
12
104.749557
22
22.891647
32
-102.048538
13
139.701477
23
29.602371
33
-14.185961
0
3DFACE
8
0
70
0
10
104.749557
20
22.891647
30
-102.048538
11
99.813240
21
24.377228
31
-89.733925
12
132.068192
22
30.331696
32
-13.326665
13
139.701477
23
29.602371
33
-14.185961
0
3DFACE
8
0
70
0
10
124.840096
20
-25.295639
30
-15.213634
11
118.443901
21
-29.234856
31
-14.711806
12
89.347450
22
-35.004745
32
-91.451302
13
93.244194
23
-31.810257
33
-103.429222
0
3DFACE
8
0
70
0
10
46.916962
20
-46.569099
30
22.054232
11
55.550282
21
-29.739563
31
56.775917
12
34.414982
22
-38.930618
32
-1.890010
13
32.959820
23
-48.143387
33
-1.850229
0
3DFACE
8
0
70
0
10
46.916962
20
-46.569099
30
22.054232
11
84.839859
21
-55.759888
31
2.262090
12
91.347603
22
-38.032715
32
25.837719
13
55.550282
23
-29.739563
33
56.775917
0
3DFACE
8
0
70
0
10
84.839859
20
-55.759888
30
2.262090
11
90.883102
21
-59.789169
31
-17.028883
12
92.755997
22
-47.545853
32
-15.295441
13
91.347603
23
-38.032715
33
25.837719
0
3DFACE
8
0
70
0
10
32.959820
20
-48.143387
30
-1.850229
11
34.414982
21
-38.930618
31
-1.890010
12
28.689661
22
-42.955612
32
-66.839516
13
33.859489
23
-52.893494
33
-30.835712
0
3DFACE
8
0
70
0
10
90.883102
20
-59.789169
30
-17.028883
11
76.352501
21
-59.870743
31
-32.116375
12
73.888199
22
-46.623138
32
-54.512314
13
92.755997
23
-47.545853
33
-15.295441
0
3DFACE
8
0
70
0
10
76.352501
20
-59.870743
30
-32.116375
11
33.859489
21
-52.893494
31
-30.835712
12
28.689661
22
-42.955612
32
-66.839516
13
73.888199
23
-46.623138
33
-54.512314
0
3DFACE
8
0
70
0
10
28.542284
20
-120.749855
30
-0.626441
11
27.673773
21
-127.827744
31
43.725594
12
33.987896
22
-108.736435
32
35.947453
13
42.637177
23
-91.293274
33
21.349974
0
3DFACE
8
0
70
0
10
42.637177
20
-91.293274
30
21.349974
11
33.987896
21
-108.736435
31
35.947453
12
66.977409
22
-112.334427
32
35.947453
13
73.584686
23
-103.050163
33
5.566827
0
3DFACE
8
0
70
0
10
76.882011
20
-127.447128
30
-10.660262
11
73.584686
21
-103.050163
31
5.566827
12
66.977409
22
-112.334427
32
35.947453
13
74.813721
23
-127.827744
33
43.725594
0
3DFACE
8
0
70
0
10
4.730807
20
-150.789917
30
-22.167648
11
16.610764
21
-150.617310
31
32.613968
12
27.673773
22
-127.827744
32
43.725594
13
28.542284
23
-120.749855
33
-0.626441
0
3DFACE
8
0
70
0
10
76.465736
20
-159.261978
30
-35.273907
11
76.882011
21
-127.447128
31
-10.660262
12
74.813721
22
-127.827744
32
43.725594
13
83.794151
23
-150.723206
33
36.317848
0
3DFACE
8
0
70
0
10
76.465736
20
-159.261978
30
-35.273907
11
83.794151
21
-150.723206
31
36.317848
12
16.610764
22
-150.617310
32
32.613968
13
4.730807
23
-150.789917
33
-22.167648
0
3DFACE
8
0
70
0
10
27.673773
20
-119.444244
30
102.617195
11
33.987896
21
-98.998032
31
87.801697
12
33.987896
22
-108.736435
32
35.947453
13
27.673773
23
-127.827744
33
43.725594
0
3DFACE
8
0
70
0
10
33.987896
20
-98.998032
30
87.801697
11
66.977409
21
-98.812729
31
87.801697
12
66.977409
22
-112.334427
32
35.947453
13
33.987896
23
-108.736435
33
35.947453
0
3DFACE
8
0
70
0
10
74.813721
20
-119.444244
30
102.617195
11
74.813721
21
-127.827744
31
43.725594
12
66.977409
22
-112.334427
32
35.947453
13
66.977409
23
-98.812729
33
87.801697
0
3DFACE
8
0
70
0
10
12.906889
20
-152.844193
30
102.617195
11
27.673773
21
-119.444244
31
102.617195
12
27.673773
22
-127.827744
32
43.725594
13
16.610764
23
-150.617310
33
32.613968
0
3DFACE
8
0
70
0
10
80.090286
20
-153.029510
30
102.617195
11
83.794151
21
-150.723206
31
36.317848
12
74.813721
22
-127.827744
32
43.725594
13
74.813721
23
-119.444244
33
102.617195
0
3DFACE
8
0
70
0
10
80.090286
20
-153.029510
30
102.617195
11
12.906889
21
-152.844193
31
102.617195
12
16.610764
22
-150.617310
32
32.613968
13
83.794151
23
-150.723206
33
36.317848
0
3DFACE
8
0
70
0
10
242.408722
20
330.435486
30
146.150024
11
249.879089
21
334.372620
31
124.332764
12
238.835083
22
349.753845
32
135.149521
13
225.798721
23
339.894806
33
149.118927
0
3DFACE
8
0
70
0
10
82.117416
20
136.704285
30
-35.481617
11
51.704720
21
149.856750
31
-40.421265
12
61.432213
22
154.827393
32
0.054197
13
61.432213
23
154.827393
33
0.054197
0
3DFACE
8
0
70
0
10
90.355103
20
139.592010
30
41.064667
11
61.432213
21
154.827393
31
0.054197
12
59.987263
22
132.885132
32
54.601452
13
59.987263
23
132.885132
33
54.601452
0
3DFACE
8
0
70
0
10
152.883469
20
239.518127
30
47.122799
11
189.795792
21
250.414612
31
17.438414
12
207.928024
22
267.380676
32
43.779690
13
169.269165
23
258.249634
33
73.300964
0
3DFACE
8
0
70
0
10
142.831924
20
285.142853
30
21.811680
11
152.883469
21
239.518127
31
47.122799
12
169.269165
22
258.249634
32
73.300964
13
157.396072
23
304.416382
33
48.712658
0
3DFACE
8
0
70
0
10
194.799850
20
307.428589
30
24.151217
11
178.861755
21
289.559296
31
-2.888643
12
142.831924
22
285.142853
32
21.811680
13
157.396072
23
304.416382
33
48.712658
0
3DFACE
8
0
70
0
10
189.795792
20
250.414612
30
17.438414
11
178.861755
21
289.559296
31
-2.888643
12
194.799850
22
307.428589
32
24.151217
13
207.928024
23
267.380676
33
43.779690
0
3DFACE
8
0
70
0
10
217.599564
20
261.252808
30
42.175396
11
235.446014
21
276.730225
31
66.865654
12
179.938507
22
267.662262
32
105.258835
13
164.804230
23
250.372253
33
81.399445
0
3DFACE
8
0
70
0
10
164.804230
20
250.372253
30
81.399445
11
179.938507
21
267.662262
31
105.258835
12
159.788269
22
330.132935
32
73.369949
13
147.266083
23
312.551208
33
49.213341
0
3DFACE
8
0
70
0
10
213.097244
20
331.534912
30
41.424129
11
198.504730
21
315.288483
31
16.521776
12
147.266083
22
312.551208
32
49.213341
13
159.788269
23
330.132935
33
73.369949
0
3DFACE
8
0
70
0
10
217.599564
20
261.252808
30
42.175396
11
198.504730
21
315.288483
31
16.521776
12
213.097244
22
331.534912
32
41.424129
13
235.446014
23
276.730225
33
66.865654
0
3DFACE
8
0
70
0
10
217.599564
20
261.252808
30
42.175396
11
164.804230
21
250.372253
31
81.399445
12
169.269165
22
258.249634
32
73.300964
13
207.928024
23
267.380676
33
43.779690
0
3DFACE
8
0
70
0
10
235.446014
20
276.730225
30
66.865654
11
225.005066
21
283.359406
31
68.588058
12
184.293915
22
275.425323
32
97.304779
13
179.938507
23
267.662262
33
105.258835
0
3DFACE
8
0
70
0
10
164.804230
20
250.372253
30
81.399445
11
147.266083
21
312.551208
31
49.213341
12
157.396072
22
304.416382
32
48.712658
13
169.269165
23
258.249634
33
73.300964
0
3DFACE
8
0
70
0
10
179.938507
20
267.662262
30
105.258835
11
184.293915
21
275.425323
31
97.304779
12
170.431061
22
321.666229
32
72.789024
13
159.788269
23
330.132935
33
73.369949
0
3DFACE
8
0
70
0
10
213.097244
20
331.534912
30
41.424129
11
159.788269
21
330.132935
31
73.369949
12
170.431061
22
321.666229
32
72.789024
13
209.414169
23
323.813660
33
48.945156
0
3DFACE
8
0
70
0
10
198.504730
20
315.288483
30
16.521776
11
194.799850
21
307.428589
31
24.151217
12
157.396072
22
304.416382
32
48.712658
13
147.266083
23
312.551208
33
49.213341
0
3DFACE
8
0
70
0
10
235.446014
20
276.730225
30
66.865654
11
213.097244
21
331.534912
31
41.424129
12
209.414169
22
323.813660
32
48.945156
13
225.005066
23
283.359406
33
68.588058
0
3DFACE
8
0
70
0
10
217.599564
20
261.252808
30
42.175396
11
207.928024
21
267.380676
31
43.779690
12
194.799850
22
307.428589
32
24.151217
13
198.504730
23
315.288483
33
16.521776
0
3DFACE
8
0
70
0
10
198.681000
20
277.795654
30
70.575378
11
171.572571
21
295.689270
31
74.892792
12
184.293915
22
275.425323
32
97.304779
13
225.005066
23
283.359406
33
68.588058
0
3DFACE
8
0
70
0
10
171.572571
20
295.689270
30
74.892792
11
191.268478
21
314.278870
31
52.341873
12
170.431061
22
321.666229
32
72.789024
13
184.293915
23
275.425323
33
97.304779
0
3DFACE
8
0
70
0
10
214.017334
20
295.689270
30
50.755638
11
209.414169
21
323.813660
31
48.945156
12
170.431061
22
321.666229
32
72.789024
13
191.268478
23
314.278870
33
52.341873
0
3DFACE
8
0
70
0
10
198.681000
20
277.795654
30
70.575378
11
225.005066
21
283.359406
31
68.588058
12
209.414169
22
323.813660
32
48.945156
13
214.017334
23
295.689270
33
50.755638
0
3DFACE
8
0
70
0
10
174.965561
20
306.270508
30
129.591888
11
172.025604
21
315.885559
31
125.170616
12
166.260025
22
310.558868
32
114.858749
13
169.092224
23
300.935181
33
119.319260
0
3DFACE
8
0
70
0
10
172.025604
20
315.885559
30
125.170616
11
169.693741
21
325.865875
31
120.246605
12
163.828430
22
320.546844
32
110.010979
13
166.260025
23
310.558868
33
114.858749
0
3DFACE
8
0
70
0
10
240.006378
20
310.119293
30
70.315437
11
214.017334
21
295.689270
31
50.755638
12
191.268478
22
314.278870
32
52.341873
13
209.372894
23
328.688232
33
76.336166
0
3DFACE
8
0
70
0
10
215.847610
20
292.249176
30
95.208015
11
198.681000
21
277.795654
31
70.575378
12
214.017334
22
295.689270
32
50.755638
13
240.006378
23
310.119293
33
70.315437
0
3DFACE
8
0
70
0
10
242.408722
20
330.435486
30
146.150024
11
225.798721
21
339.894806
31
149.118927
12
191.680618
22
317.482239
32
112.586777
13
215.847610
23
292.249176
33
95.208015
0
3DFACE
8
0
70
0
10
225.798721
20
339.894806
30
149.118927
11
238.835083
21
349.753845
31
135.149521
12
209.372894
22
328.688232
32
76.336166
13
191.680618
23
317.482239
33
112.586777
0
3DFACE
8
0
70
0
10
249.879089
20
334.372620
30
124.332764
11
240.006378
21
310.119293
31
70.315437
12
209.372894
22
328.688232
32
76.336166
13
238.835083
23
349.753845
33
135.149521
0
3DFACE
8
0
70
0
10
242.408722
20
330.435486
30
146.150024
11
215.847610
21
292.249176
31
95.208015
12
240.006378
22
310.119293
32
70.315437
13
249.879089
23
334.372620
33
124.332764
0
3DFACE
8
0
70
0
10
174.965561
20
306.270508
30
129.591888
11
169.092224
21
300.935181
31
119.319260
12
198.681000
22
277.795654
32
70.575378
13
215.847610
23
292.249176
33
95.208015
0
3DFACE
8
0
70
0
10
169.092224
20
300.935181
30
119.319260
11
166.260025
21
310.558868
31
114.858749
12
171.572571
22
295.689270
32
74.892792
13
198.681000
23
277.795654
33
70.575378
0
3DFACE
8
0
70
0
10
174.965561
20
306.270508
30
129.591888
11
215.847610
21
292.249176
31
95.208015
12
191.680618
22
317.482239
32
112.586777
13
172.025604
23
315.885559
33
125.170616
0
3DFACE
8
0
70
0
10
166.260025
20
310.558868
30
114.858749
11
163.828430
21
320.546844
31
110.010979
12
191.268478
22
314.278870
32
52.341873
13
171.572571
23
295.689270
33
74.892792
0
3DFACE
8
0
70
0
10
169.693741
20
325.865875
30
120.246605
11
209.372894
21
328.688232
31
76.336166
12
191.268478
22
314.278870
32
52.341873
13
163.828430
23
320.546844
33
110.010979
0
3DFACE
8
0
70
0
10
172.025604
20
315.885559
30
125.170616
11
191.680618
21
317.482239
31
112.586777
12
209.372894
22
328.688232
32
76.336166
13
169.693741
23
325.865875
33
120.246605
0
3DFACE
8
0
70
0
10
18.736019
20
-24.780502
30
80.699203
11
-49.484093
21
-29.129089
31
63.334206
12
-51.571941
22
-36.961304
32
44.862282
13
-6.836338
23
-40.875168
33
58.637272
0
3DFACE
8
0
70
0
10
-61.855518
20
-36.114189
30
-58.158867
11
1.262551
21
-34.646301
31
-90.898293
12
-30.693665
22
-57.665802
32
-65.564751
13
-67.079201
23
-47.875221
33
-35.869030
0
3DFACE
8
0
70
0
10
21.242617
20
-30.466400
30
101.370064
11
-68.724861
21
-36.317207
31
80.576187
12
-49.484093
22
-29.129089
32
63.334206
13
18.736019
23
-24.780502
33
80.699203
0
3DFACE
8
0
70
0
10
-84.381287
20
-45.157074
30
-73.177116
11
-0.519814
21
-42.753807
31
-112.347023
12
1.262551
22
-34.646301
32
-90.898293
13
-61.855518
23
-36.114189
33
-58.158867
0
3DFACE
8
0
70
0
10
22.302843
20
-26.175179
30
113.833420
11
19.408421
21
28.649689
31
116.775040
12
-90.519661
22
20.435715
32
94.093636
13
-73.326965
23
-32.589127
33
89.694252
0
3DFACE
8
0
70
0
10
-91.018723
20
-42.578171
30
-84.046967
11
-108.211418
21
10.446671
31
-79.647591
12
-5.173771
22
14.771362
32
-124.726929
13
-2.288703
23
-40.059952
33
-127.666893
0
3DFACE
8
0
70
0
10
19.408421
20
28.649689
30
116.775040
11
18.096483
21
29.126282
31
104.567497
12
-85.377014
22
21.480057
32
85.146042
13
-90.519661
23
20.435715
33
94.093636
0
3DFACE
8
0
70
0
10
22.302843
20
-26.175179
30
113.833420
11
-73.326965
21
-32.589127
31
89.694252
12
-68.724861
22
-36.317207
32
80.576187
13
21.242617
23
-30.466400
33
101.370064
0
3DFACE
8
0
70
0
10
-108.211418
20
10.446671
30
-79.647591
11
-101.033432
21
12.640198
31
-68.607254
12
-3.336705
22
17.083572
32
-109.223343
13
-5.173771
23
14.771362
33
-124.726929
0
3DFACE
8
0
70
0
10
-91.018723
20
-42.578171
30
-84.046967
11
-2.288703
21
-40.059952
31
-127.666893
12
-0.519814
22
-42.753807
32
-112.347023
13
-84.381287
23
-45.157074
33
-73.177116
0
3DFACE
8
0
70
0
10
-31.473774
20
-119.444244
30
102.617195
11
-37.787899
21
-98.998032
31
87.801697
12
-70.777412
22
-98.812729
32
87.801697
13
-78.613716
23
-119.444244
33
102.617195
0
3DFACE
8
0
70
0
10
-49.484093
20
-29.129089
30
63.334206
11
-71.299057
21
-33.466438
31
5.575681
12
-69.738495
22
-44.324173
32
8.003610
13
-51.571941
23
-36.961304
33
44.862282
0
3DFACE
8
0
70
0
10
-68.724861
20
-36.317207
30
80.576187
11
-97.398170
21
-41.848190
31
7.992197
12
-71.299057
22
-33.466438
32
5.575681
13
-49.484093
23
-29.129089
33
63.334206
0
3DFACE
8
0
70
0
10
-90.519661
20
20.435715
30
94.093636
11
-124.718384
21
14.150269
31
13.627845
12
-104.169662
22
-38.678467
32
8.875453
13
-73.326965
23
-32.589127
33
89.694252
0
3DFACE
8
0
70
0
10
-124.718384
20
14.150269
30
13.627845
11
-90.519661
21
20.435715
31
94.093636
12
-85.377014
22
21.480057
32
85.146042
13
-117.208801
23
15.764511
33
12.894292
0
3DFACE
8
0
70
0
10
-73.326965
20
-32.589127
30
89.694252
11
-104.169662
21
-38.678467
31
8.875453
12
-97.398170
22
-41.848190
32
7.992197
13
-68.724861
23
-36.317207
33
80.576187
0
3DFACE
8
0
70
0
10
-16.706890
20
-152.844193
30
102.617195
11
-31.473774
21
-119.444244
31
102.617195
12
-78.613716
22
-119.444244
32
102.617195
13
-83.890282
23
-153.029510
33
102.617195
0
3DFACE
8
0
70
0
10
-1.046900
20
175.561310
30
5.150574
11
-3.320202
21
154.062683
31
-45.912178
12
-57.546768
22
145.275574
32
-32.175098
13
-61.544628
23
153.346252
33
4.807959
0
3DFACE
8
0
70
0
10
-71.299057
20
-33.466438
30
5.575681
11
-61.855518
21
-36.114189
31
-58.158867
12
-67.079201
22
-47.875221
32
-35.869030
13
-69.738495
23
-44.324173
33
8.003610
0
3DFACE
8
0
70
0
10
-97.398170
20
-41.848190
30
7.992197
11
-84.381287
21
-45.157074
31
-73.177116
12
-61.855518
22
-36.114189
32
-58.158867
13
-71.299057
23
-33.466438
33
5.575681
0
3DFACE
8
0
70
0
10
-104.169662
20
-38.678467
30
8.875453
11
-124.718384
21
14.150269
31
13.627845
12
-108.211418
22
10.446671
32
-79.647591
13
-91.018723
23
-42.578171
33
-84.046967
0
3DFACE
8
0
70
0
10
-108.211418
20
10.446671
30
-79.647591
11
-124.718384
21
14.150269
31
13.627845
12
-117.208801
22
15.764511
32
12.894292
13
-101.033432
23
12.640198
33
-68.607254
0
3DFACE
8
0
70
0
10
-104.169662
20
-38.678467
30
8.875453
11
-91.018723
21
-42.578171
31
-84.046967
12
-84.381287
22
-45.157074
32
-73.177116
13
-97.398170
23
-41.848190
33
7.992197
0
3DFACE
8
0
70
0
10
-15.524758
20
-60.833923
30
23.080837
11
-13.755272
21
-66.909096
31
-4.650128
12
-11.307228
22
-54.195435
32
-3.464034
13
-6.836338
23
-40.875168
33
58.637272
0
3DFACE
8
0
70
0
10
-15.524758
20
-60.833923
30
23.080837
11
-6.836338
21
-40.875168
31
58.637272
12
-51.571941
22
-36.961304
32
44.862282
13
-57.791245
23
-52.389008
33
22.934864
0
3DFACE
8
0
70
0
10
-57.791245
20
-52.389008
30
22.934864
11
-51.571941
21
-36.961304
31
44.862282
12
-69.738495
22
-44.324173
32
8.003610
13
-71.659653
23
-52.578430
33
8.535884
0
3DFACE
8
0
70
0
10
-13.755272
20
-66.909096
30
-4.650128
11
-27.362806
21
-69.421577
31
-30.057186
12
-30.693665
22
-57.665802
32
-65.564751
13
-11.307228
23
-54.195435
33
-3.464034
0
3DFACE
8
0
70
0
10
-71.659653
20
-52.578430
30
8.535884
11
-69.738495
21
-44.324173
31
8.003610
12
-67.079201
22
-47.875221
32
-35.869030
13
-65.485977
23
-57.970978
33
-11.604852
0
3DFACE
8
0
70
0
10
-65.485977
20
-57.970978
30
-11.604852
11
-67.079201
21
-47.875221
31
-35.869030
12
-30.693665
22
-57.665802
32
-65.564751
13
-27.362806
23
-69.421577
33
-30.057186
0
3DFACE
8
0
70
0
10
-30.140810
20
-128.990784
30
-9.491986
11
-29.323229
21
-103.081116
31
20.485004
12
-37.787899
22
-108.736435
32
35.947453
13
-31.473774
23
-127.827744
33
43.725594
0
3DFACE
8
0
70
0
10
-29.323229
20
-103.081116
30
20.485004
11
-64.893677
21
-102.492775
31
16.389042
12
-70.777412
22
-112.334427
32
35.947453
13
-37.787899
23
-108.736435
33
35.947453
0
3DFACE
8
0
70
0
10
-78.572884
20
-120.808800
30
-0.857994
11
-78.613716
21
-127.827744
31
43.725594
12
-70.777412
22
-112.334427
32
35.947453
13
-64.893677
23
-102.492775
33
16.389042
0
3DFACE
8
0
70
0
10
-22.156290
20
-157.976089
30
-42.938053
11
-30.140810
21
-128.990784
31
-9.491986
12
-31.473774
22
-127.827744
32
43.725594
13
-20.410763
23
-150.617310
33
32.613968
0
3DFACE
8
0
70
0
10
-93.148064
20
-144.906448
30
-28.284491
11
-87.594154
21
-150.723206
31
36.317848
12
-78.613716
22
-127.827744
32
43.725594
13
-78.572884
23
-120.808800
33
-0.857994
0
3DFACE
8
0
70
0
10
-93.148064
20
-144.906448
30
-28.284491
11
-22.156290
21
-157.976089
31
-42.938053
12
-20.410763
22
-150.617310
32
32.613968
13
-87.594154
23
-150.723206
33
36.317848
0
3DFACE
8
0
70
0
10
-31.473774
20
-119.444244
30
102.617195
11
-31.473774
21
-127.827744
31
43.725594
12
-37.787899
22
-108.736435
32
35.947453
13
-37.787899
23
-98.998032
33
87.801697
0
3DFACE
8
0
70
0
10
-37.787899
20
-98.998032
30
87.801697
11
-37.787899
21
-108.736435
31
35.947453
12
-70.777412
22
-112.334427
32
35.947453
13
-70.777412
23
-98.812729
33
87.801697
0
3DFACE
8
0
70
0
10
-78.613716
20
-119.444244
30
102.617195
11
-70.777412
21
-98.812729
31
87.801697
12
-70.777412
22
-112.334427
32
35.947453
13
-78.613716
23
-127.827744
33
43.725594
0
3DFACE
8
0
70
0
10
-16.706890
20
-152.844193
30
102.617195
11
-20.410763
21
-150.617310
31
32.613968
12
-31.473774
22
-127.827744
32
43.725594
13
-31.473774
23
-119.444244
33
102.617195
0
3DFACE
8
0
70
0
10
-83.890282
20
-153.029510
30
102.617195
11
-78.613716
21
-119.444244
31
102.617195
12
-78.613716
22
-127.827744
32
43.725594
13
-87.594154
23
-150.723206
33
36.317848
0
3DFACE
8
0
70
0
10
-83.890282
20
-153.029510
30
102.617195
11
-87.594154
21
-150.723206
31
36.317848
12
-20.410763
22
-150.617310
32
32.613968
13
-16.706890
23
-152.844193
33
102.617195
0
3DFACE
8
0
70
0
10
-70.693573
20
382.699524
30
96.838425
11
-67.994850
21
388.950378
31
78.732391
12
-86.641884
22
395.396912
32
87.277664
13
-93.562042
23
379.732483
33
100.779198
0
3DFACE
8
0
70
0
10
-87.932854
20
126.876221
30
-17.235722
11
-61.544628
21
153.346252
31
4.807959
12
-57.546768
22
145.275574
32
-32.175098
13
-57.546768
23
145.275574
33
-32.175098
0
3DFACE
8
0
70
0
10
-71.711670
20
149.404877
30
48.465771
11
-48.951572
21
127.935791
31
63.510258
12
-61.544628
22
153.346252
32
4.807959
13
-61.544628
23
153.346252
33
4.807959
0
3DFACE
8
0
70
0
10
-119.919449
20
236.023010
30
28.933796
11
-106.071999
21
263.813568
31
47.388908
12
-150.348068
22
273.970673
32
67.032066
13
-163.806793
23
247.407410
33
46.447029
0
3DFACE
8
0
70
0
10
-143.923599
20
270.542114
30
-3.555202
11
-128.709351
21
298.606781
31
13.419712
12
-106.071999
22
263.813568
32
47.388908
13
-119.919449
23
236.023010
33
28.933796
0
3DFACE
8
0
70
0
10
-167.239731
20
303.926544
30
35.746605
11
-128.709351
21
298.606781
31
13.419712
12
-143.923599
22
270.542114
32
-3.555202
13
-182.159576
23
276.839233
33
17.087378
0
3DFACE
8
0
70
0
10
-163.806793
20
247.407410
30
46.447029
11
-150.348068
21
273.970673
31
67.032066
12
-167.239731
22
303.926544
32
35.746605
13
-182.159576
23
276.839233
33
17.087378
0
3DFACE
8
0
70
0
10
-155.200363
20
269.999084
30
76.745193
11
-95.909874
21
257.358337
31
49.012360
12
-83.403503
22
282.937897
32
65.939835
13
-142.900620
23
294.689880
33
96.912910
0
3DFACE
8
0
70
0
10
-95.909874
20
257.358337
30
49.012360
11
-124.897141
21
304.095490
31
2.266950
12
-111.028336
22
329.429352
32
16.940561
13
-83.403503
23
282.937897
33
65.939835
0
3DFACE
8
0
70
0
10
-162.846924
20
335.035797
30
50.819042
11
-111.028336
21
329.429352
31
16.940561
12
-124.897141
22
304.095490
32
2.266950
13
-176.651291
23
310.307465
33
33.644520
0
3DFACE
8
0
70
0
10
-155.200363
20
269.999084
30
76.745193
11
-142.900620
21
294.689880
31
96.912910
12
-162.846924
22
335.035797
32
50.819042
13
-176.651291
23
310.307465
33
33.644520
0
3DFACE
8
0
70
0
10
-155.200363
20
269.999084
30
76.745193
11
-150.348068
21
273.970673
31
67.032066
12
-106.071999
22
263.813568
32
47.388908
13
-95.909874
23
257.358337
33
49.012360
0
3DFACE
8
0
70
0
10
-142.900620
20
294.689880
30
96.912910
11
-83.403503
21
282.937897
31
65.939835
12
-93.374733
22
289.295807
32
64.311195
13
-137.672546
23
298.988098
33
86.419159
0
3DFACE
8
0
70
0
10
-95.909874
20
257.358337
30
49.012360
11
-106.071999
21
263.813568
31
47.388908
12
-128.709351
22
298.606781
32
13.419712
13
-124.897141
23
304.095490
33
2.266950
0
3DFACE
8
0
70
0
10
-83.403503
20
282.937897
30
65.939835
11
-111.028336
21
329.429352
31
16.940561
12
-115.092628
22
323.724701
32
28.612318
13
-93.374733
23
289.295807
33
64.311195
0
3DFACE
8
0
70
0
10
-162.846924
20
335.035797
30
50.819042
11
-153.559143
21
328.763947
31
52.856049
12
-115.092628
22
323.724701
32
28.612318
13
-111.028336
23
329.429352
33
16.940561
0
3DFACE
8
0
70
0
10
-176.651291
20
310.307465
30
33.644520
11
-124.897141
21
304.095490
31
2.266950
12
-128.709351
22
298.606781
32
13.419712
13
-167.239731
23
303.926544
33
35.746605
0
3DFACE
8
0
70
0
10
-142.900620
20
294.689880
30
96.912910
11
-137.672546
21
298.988098
31
86.419159
12
-153.559143
22
328.763947
32
52.856049
13
-162.846924
23
335.035797
33
50.819042
0
3DFACE
8
0
70
0
10
-155.200363
20
269.999084
30
76.745193
11
-176.651291
21
310.307465
31
33.644520
12
-167.239731
22
303.926544
32
35.746605
13
-150.348068
23
273.970673
33
67.032066
0
3DFACE
8
0
70
0
10
-122.875893
20
297.438782
30
63.921700
11
-137.672546
21
298.988098
31
86.419159
12
-93.374733
22
289.295807
32
64.311195
13
-111.174950
23
303.157043
33
39.234505
0
3DFACE
8
0
70
0
10
-111.174950
20
303.157043
30
39.234505
11
-93.374733
21
289.295807
31
64.311195
12
-115.092628
22
323.724701
32
28.612318
13
-136.779602
23
318.944824
33
39.565163
0
3DFACE
8
0
70
0
10
-144.792496
20
311.840729
30
62.220718
11
-136.779602
21
318.944824
31
39.565163
12
-115.092628
22
323.724701
32
28.612318
13
-153.559143
23
328.763947
33
52.856049
0
3DFACE
8
0
70
0
10
-122.875893
20
297.438782
30
63.921700
11
-144.792496
21
311.840729
31
62.220718
12
-153.559143
22
328.763947
32
52.856049
13
-137.672546
23
298.988098
33
86.419159
0
3DFACE
8
0
70
0
10
-65.233658
20
340.804504
30
36.657955
11
-71.832855
21
330.962067
31
31.360180
12
-78.638565
22
337.448151
32
25.690430
13
-71.980011
23
347.275116
33
30.890924
0
3DFACE
8
0
70
0
10
-71.980011
20
347.275116
30
30.890924
11
-78.638565
21
337.448151
31
25.690430
12
-85.998978
22
344.203461
32
20.271637
13
-79.427002
23
354.015778
33
25.562189
0
3DFACE
8
0
70
0
10
-133.481689
20
335.744934
30
92.114479
11
-128.376663
21
348.492615
31
58.485630
12
-136.779602
22
318.944824
32
39.565163
13
-144.792496
23
311.840729
33
62.220718
0
3DFACE
8
0
70
0
10
-99.978424
20
323.792877
30
76.073647
11
-133.481689
21
335.744934
31
92.114479
12
-144.792496
22
311.840729
32
62.220718
13
-122.875893
23
297.438782
33
63.921700
0
3DFACE
8
0
70
0
10
-70.693573
20
382.699524
30
96.838425
11
-99.978424
21
323.792877
31
76.073647
12
-87.827667
22
348.110413
32
48.077427
13
-67.994850
23
388.950378
33
78.732391
0
3DFACE
8
0
70
0
10
-67.994850
20
388.950378
30
78.732391
11
-87.827667
21
348.110413
31
48.077427
12
-128.376663
22
348.492615
32
58.485630
13
-86.641884
23
395.396912
33
87.277664
0
3DFACE
8
0
70
0
10
-93.562042
20
379.732483
30
100.779198
11
-86.641884
21
395.396912
31
87.277664
12
-128.376663
22
348.492615
32
58.485630
13
-133.481689
23
335.744934
33
92.114479
0
3DFACE
8
0
70
0
10
-70.693573
20
382.699524
30
96.838425
11
-93.562042
21
379.732483
31
100.779198
12
-133.481689
22
335.744934
32
92.114479
13
-99.978424
23
323.792877
33
76.073647
0
3DFACE
8
0
70
0
10
-65.233658
20
340.804504
30
36.657955
11
-99.978424
21
323.792877
31
76.073647
12
-122.875893
22
297.438782
32
63.921700
13
-71.832855
23
330.962067
33
31.360180
0
3DFACE
8
0
70
0
10
-71.832855
20
330.962067
30
31.360180
11
-122.875893
21
297.438782
31
63.921700
12
-111.174950
22
303.157043
32
39.234505
13
-78.638565
23
337.448151
33
25.690430
0
3DFACE
8
0
70
0
10
-65.233658
20
340.804504
30
36.657955
11
-71.980011
21
347.275116
31
30.890924
12
-87.827667
22
348.110413
32
48.077427
13
-99.978424
23
323.792877
33
76.073647
0
3DFACE
8
0
70
0
10
-78.638565
20
337.448151
30
25.690430
11
-111.174950
21
303.157043
31
39.234505
12
-136.779602
22
318.944824
32
39.565163
13
-85.998978
23
344.203461
33
20.271637
0
3DFACE
8
0
70
0
10
-79.427002
20
354.015778
30
25.562189
11
-85.998978
21
344.203461
31
20.271637
12
-136.779602
22
318.944824
32
39.565163
13
-128.376663
23
348.492615
33
58.485630
0
3DFACE
8
0
70
0
10
-71.980011
20
347.275116
30
30.890924
11
-79.427002
21
354.015778
31
25.562189
12
-128.376663
22
348.492615
32
58.485630
13
-87.827667
23
348.110413
33
48.077427
0
3DFACE
8
0
70
0
10
34.414982
20
-38.930618
30
-1.890010
11
55.550282
21
-29.739563
31
56.775917
12
18.736019
22
-24.780502
32
80.699203
13
10.170901
23
-29.616508
33
-3.414188
0
3DFACE
8
0
70
0
10
34.414982
20
-38.930618
30
-1.890010
11
10.170901
21
-29.616508
31
-3.414188
12
1.262551
22
-34.646301
32
-90.898293
13
28.689661
23
-42.955612
33
-66.839516
0
3DFACE
8
0
70
0
10
1.262551
20
-34.646301
30
-90.898293
11
10.170901
21
-29.616508
31
-3.414188
12
-11.307228
22
-54.195435
32
-3.464034
13
-30.693665
23
-57.665802
33
-65.564751
0
3DFACE
8
0
70
0
10
10.170901
20
-29.616508
30
-3.414188
11
18.736019
21
-24.780502
31
80.699203
12
-6.836338
22
-40.875168
32
58.637272
13
-11.307228
23
-54.195435
33
-3.464034
0
3DFACE
8
0
70
0
10
-4.074712
20
180.787842
30
122.611298
11
6.142757
21
179.584412
31
117.381264
12
18.401293
22
195.507263
32
122.216965
13
-0.990353
23
198.979370
33
128.666168
0
3DFACE
8
0
70
0
10
-0.990353
20
198.979370
30
128.666168
11
18.401293
21
195.507263
31
122.216965
12
12.856182
22
205.133972
32
121.019630
13
0.985005
23
210.630005
33
124.536148
0
3DFACE
8
0
70
0
10
6.142757
20
179.584412
30
117.381264
11
6.508057
21
176.156372
31
104.511536
12
20.945433
22
192.560852
32
104.760262
13
18.401293
23
195.507263
33
122.216965
0
3DFACE
8
0
70
0
10
-4.074712
20
180.787842
30
122.611298
11
-5.263005
21
175.325012
31
110.431023
12
6.508057
22
176.156372
32
104.511536
13
6.142757
23
179.584412
33
117.381264
0
3DFACE
8
0
70
0
10
0.985005
20
210.630005
30
124.536148
11
12.856182
21
205.133972
31
121.019630
12
14.895205
22
205.677826
32
104.835999
13
0.962006
23
212.040039
33
110.144325
0
3DFACE
8
0
70
0
10
18.401293
20
195.507263
30
122.216965
11
20.945433
21
192.560852
31
104.760262
12
14.895205
22
205.677826
32
104.835999
13
12.856182
23
205.133972
33
121.019630
0
3DFACE
8
0
70
0
10
6.528749
20
220.715515
30
106.276039
11
4.939924
21
211.344635
31
107.318283
12
15.421656
22
207.185699
32
102.009956
13
19.964842
23
226.102753
33
104.268646
0
3DFACE
8
0
70
0
10
15.421656
20
207.185699
30
102.009956
11
25.015932
21
206.569244
31
95.723228
12
30.453705
22
216.662476
32
92.150620
13
19.964842
23
226.102753
33
104.268646
0
3DFACE
8
0
70
0
10
4.995450
20
158.115051
30
123.670197
11
4.262625
21
177.487915
31
112.725731
12
-4.876725
22
177.603271
32
115.474297
13
-7.846757
23
160.086060
33
124.353905
0
3DFACE
8
0
70
0
10
45.201454
20
168.375916
30
78.126740
11
45.445389
21
179.420471
31
77.948036
12
21.367409
22
176.294739
32
98.608398
13
24.559731
23
152.601746
33
104.917747
0
3DFACE
8
0
70
0
10
4.262625
20
177.487915
30
112.725731
11
4.995450
21
158.115051
31
123.670197
12
23.319098
22
157.230896
32
115.002632
13
18.797033
23
175.289612
33
112.608620
0
3DFACE
8
0
70
0
10
47.265808
20
211.304810
30
78.249641
11
59.704144
21
211.889679
31
77.739914
12
35.795940
22
220.942932
32
96.802124
13
34.956223
23
217.741364
33
94.976685
0
3DFACE
8
0
70
0
10
3.165375
20
225.035461
30
112.074959
11
2.850839
21
223.180359
31
109.102097
12
19.763138
22
227.945313
32
107.094673
13
21.679949
23
229.866455
33
108.592934
0
3DFACE
8
0
70
0
10
21.679949
20
229.866455
30
108.592934
11
19.763138
21
227.945313
31
107.094673
12
34.956223
22
217.741364
32
94.976685
13
35.795940
23
220.942932
33
96.802124
0
3DFACE
8
0
70
0
10
-12.292064
20
133.867676
30
122.178635
11
6.036238
21
139.224731
31
115.812424
12
4.428521
22
148.779419
32
113.764572
13
-9.863146
23
148.193420
33
119.235939
0
3DFACE
8
0
70
0
10
-19.506212
20
91.318726
30
101.101158
11
2.659754
21
100.256302
31
97.859222
12
6.036238
22
139.224731
32
115.812424
13
-12.292064
23
133.867676
33
122.178635
0
3DFACE
8
0
70
0
10
45.201454
20
168.375916
30
78.126740
11
24.559731
21
152.601746
31
104.917747
12
23.347614
22
149.539551
32
95.906563
13
46.990356
23
156.653870
33
81.297020
0
3DFACE
8
0
70
0
10
23.347614
20
149.539551
30
95.906563
11
30.206938
21
121.958313
31
66.107307
12
45.099174
22
149.503906
32
50.112881
13
46.990356
23
156.653870
33
81.297020
0
3DFACE
8
0
70
0
10
2.659754
20
100.256302
30
97.859222
11
30.206938
21
121.958313
31
66.107307
12
23.347614
22
149.539551
32
95.906563
13
6.036238
23
139.224731
33
115.812424
0
3DFACE
8
0
70
0
10
6.036238
20
139.224731
30
115.812424
11
23.347614
21
149.539551
31
95.906563
12
24.559731
22
152.601746
32
104.917747
13
4.428521
23
148.779419
33
113.764572
0
3DFACE
8
0
70
0
10
-7.846757
20
160.086060
30
124.353905
11
-9.863146
21
148.193420
31
119.235939
12
4.428521
22
148.779419
32
113.764572
13
4.995450
23
158.115051
33
123.670197
0
3DFACE
8
0
70
0
10
-4.876725
20
177.603271
30
115.474297
11
4.262625
21
177.487915
31
112.725731
12
6.508057
22
176.156372
32
104.511536
13
-5.263005
23
175.325012
33
110.431023
0
3DFACE
8
0
70
0
10
18.797033
20
175.289612
30
112.608620
11
21.367409
21
176.294739
31
98.608398
12
6.508057
22
176.156372
32
104.511536
13
4.262625
23
177.487915
33
112.725731
0
POINT
8
0
70
0
10
44.006638
20
152.409546
30
96.495125
0
3DFACE
8
0
70
0
10
4.995450
20
158.115051
30
123.670197
11
4.428521
21
148.779419
31
113.764572
12
24.559731
22
152.601746
32
104.917747
13
23.319098
23
157.230896
33
115.002632
0
3DFACE
8
0
70
0
10
23.319098
20
157.230896
30
115.002632
11
44.006638
21
152.409546
31
96.495125
12
18.797033
22
175.289612
32
112.608620
13
18.797033
23
175.289612
33
112.608620
0
3DFACE
8
0
70
0
10
18.797033
20
175.289612
30
112.608620
11
44.006638
21
152.409546
31
96.495125
12
21.367409
22
176.294739
32
98.608398
13
21.367409
23
176.294739
33
98.608398
0
3DFACE
8
0
70
0
10
44.006638
20
152.409546
30
96.495125
11
24.559731
21
152.601746
31
104.917747
12
21.367409
22
176.294739
32
98.608398
13
21.367409
23
176.294739
33
98.608398
0
3DFACE
8
0
70
0
10
24.559731
20
152.601746
30
104.917747
11
44.006638
21
152.409546
31
96.495125
12
23.319098
22
157.230896
32
115.002632
13
23.319098
23
157.230896
33
115.002632
0
3DFACE
8
0
70
0
10
59.704144
20
211.889679
30
77.739914
11
47.265808
21
211.304810
31
78.249641
12
60.088688
22
206.573059
32
41.261280
13
63.684338
23
208.005920
33
40.018829
0
3DFACE
8
0
70
0
10
47.265808
20
211.304810
30
78.249641
11
43.796703
21
202.645386
31
78.655991
12
60.332909
22
199.013916
32
42.462151
13
60.088688
23
206.573059
33
41.261280
0
3DFACE
8
0
70
0
10
43.796703
20
202.645386
30
78.655991
11
44.014420
21
189.322388
31
78.504814
12
58.148842
22
186.001953
32
44.641083
13
60.332909
23
199.013916
33
42.462151
0
3DFACE
8
0
70
0
10
63.684338
20
208.005920
30
40.018829
11
60.088688
21
206.573059
31
41.261280
12
43.227638
22
207.568542
32
14.896184
13
45.963345
23
208.233063
33
13.866787
0
3DFACE
8
0
70
0
10
60.332909
20
199.013916
30
42.462151
11
45.190598
21
205.313171
31
12.672510
12
43.227638
22
207.568542
32
14.896184
13
60.088688
23
206.573059
33
41.261280
0
3DFACE
8
0
70
0
10
58.148842
20
186.001953
30
44.641083
11
40.529121
21
194.239502
31
11.188781
12
45.190598
22
205.313171
32
12.672510
13
60.332909
23
199.013916
33
42.462151
0
3DFACE
8
0
70
0
10
45.963345
20
208.233063
30
13.866787
11
43.227638
21
207.568542
31
14.896184
12
1.418280
22
214.731140
32
-2.275020
13
1.544230
23
215.473999
33
-5.901319
0
3DFACE
8
0
70
0
10
45.190598
20
205.313171
30
12.672510
11
1.076846
21
212.717377
31
-2.405131
12
1.418280
22
214.731140
32
-2.275020
13
43.227638
23
207.568542
33
14.896184
0
3DFACE
8
0
70
0
10
40.529121
20
194.239502
30
11.188781
11
-1.242751
21
199.036438
31
-0.945824
12
1.076846
22
212.717377
32
-2.405131
13
45.190598
23
205.313171
33
12.672510
0
3DFACE
8
0
70
0
10
45.099174
20
149.503906
30
50.112881
11
54.115540
21
164.823914
31
46.003769
12
45.201454
22
168.375916
32
78.126740
13
46.990356
23
156.653870
33
81.297020
0
3DFACE
8
0
70
0
10
44.014420
20
189.322388
30
78.504814
11
45.445389
21
179.420471
31
77.948036
12
58.148842
22
186.001953
32
44.641083
13
58.148842
23
186.001953
33
44.641083
0
3DFACE
8
0
70
0
10
45.201454
20
168.375916
30
78.126740
11
54.115540
21
164.823914
31
46.003769
12
58.148842
22
186.001953
32
44.641083
13
45.445389
23
179.420471
33
77.948036
0
3DFACE
8
0
70
0
10
54.115540
20
164.823914
30
46.003769
11
36.740673
21
176.637451
31
14.099626
12
40.529121
22
194.239502
32
11.188781
13
58.148842
23
186.001953
33
44.641083
0
3DFACE
8
0
70
0
10
36.740673
20
176.637451
30
14.099626
11
-4.144719
21
181.920624
31
3.485335
12
-1.242751
22
199.036438
32
-0.945824
13
40.529121
23
194.239502
33
11.188781
0
3DFACE
8
0
70
0
10
3.165375
20
225.035461
30
112.074959
11
21.679949
21
229.866455
31
108.592934
12
27.345047
22
251.595398
32
106.255333
13
8.004731
23
253.577942
33
112.282356
0
3DFACE
8
0
70
0
10
8.004731
20
253.577942
30
112.282356
11
27.345047
21
251.595398
31
106.255333
12
28.175642
22
254.169159
32
101.565422
13
8.612763
23
257.164124
33
108.993706
0
3DFACE
8
0
70
0
10
21.679949
20
229.866455
30
108.592934
11
35.795940
21
220.942932
31
96.802124
12
53.311443
22
246.269409
32
92.966484
13
27.345047
23
251.595398
33
106.255333
0
3DFACE
8
0
70
0
10
27.345047
20
251.595398
30
106.255333
11
53.311443
21
246.269409
31
92.966484
12
52.599911
22
249.504761
32
88.605896
13
28.175642
23
254.169159
33
101.565422
0
3DFACE
8
0
70
0
10
35.795940
20
220.942932
30
96.802124
11
59.704144
21
211.889679
31
77.739914
12
68.283676
22
238.281494
32
61.730480
13
53.311443
23
246.269409
33
92.966484
0
3DFACE
8
0
70
0
10
53.311443
20
246.269409
30
92.966484
11
68.283676
21
238.281494
31
61.730480
12
60.797802
22
243.773926
32
60.679428
13
52.599911
23
249.504761
33
88.605896
0
3DFACE
8
0
70
0
10
59.704144
20
211.889679
30
77.739914
11
63.684338
21
208.005920
31
40.018829
12
72.786713
22
237.766937
32
35.851646
13
68.283676
23
238.281494
33
61.730480
0
3DFACE
8
0
70
0
10
68.283676
20
238.281494
30
61.730480
11
72.786713
21
237.766937
31
35.851646
12
66.762199
22
241.444092
32
37.509758
13
60.797802
23
243.773926
33
60.679428
0
3DFACE
8
0
70
0
10
63.684338
20
208.005920
30
40.018829
11
45.963345
21
208.233063
31
13.866787
12
51.499424
22
235.528809
32
12.511164
13
72.786713
23
237.766937
33
35.851646
0
3DFACE
8
0
70
0
10
72.786713
20
237.766937
30
35.851646
11
51.499424
21
235.528809
31
12.511164
12
46.739708
22
240.529785
32
16.319864
13
66.762199
23
241.444092
33
37.509758
0
3DFACE
8
0
70
0
10
45.963345
20
208.233063
30
13.866787
11
1.544230
21
215.473999
31
-5.901319
12
5.848332
22
240.859528
32
-7.526243
13
51.499424
23
235.528809
33
12.511164
0
3DFACE
8
0
70
0
10
51.499424
20
235.528809
30
12.511164
11
5.848332
21
240.859528
31
-7.526243
12
6.452744
22
244.424347
32
-2.974264
13
46.739708
23
240.529785
33
16.319864
0
3DFACE
8
0
70
0
10
45.099174
20
149.503906
30
50.112881
11
34.787201
21
164.132294
31
30.443941
12
36.740673
22
176.637451
32
14.099626
13
54.115540
23
164.823914
33
46.003769
0
3DFACE
8
0
70
0
10
34.787201
20
164.132294
30
30.443941
11
-2.869223
21
176.105682
31
8.915996
12
-4.144719
22
181.920624
32
3.485335
13
36.740673
23
176.637451
33
14.099626
0
3DFACE
8
0
70
0
10
30.206938
20
121.958313
30
66.107307
11
27.882294
21
136.886292
31
58.311569
12
34.787201
22
164.132294
32
30.443941
13
45.099174
23
149.503906
33
50.112881
0
3DFACE
8
0
70
0
10
2.659754
20
100.256302
30
97.859222
11
0.390569
21
101.343201
31
81.952538
12
27.882294
22
136.886292
32
58.311569
13
30.206938
23
121.958313
33
66.107307
0
3DFACE
8
0
70
0
10
0.390569
20
101.343201
30
81.952538
11
-17.571241
21
102.731155
31
77.656464
12
-13.887510
22
124.457764
32
56.009388
13
27.882294
23
136.886292
33
58.311569
0
3DFACE
8
0
70
0
10
-19.506212
20
91.318726
30
101.101158
11
-17.571241
21
102.731155
31
77.656464
12
0.390569
22
101.343201
32
81.952538
13
0.390569
23
101.343201
33
81.952538
0
3DFACE
8
0
70
0
10
-19.506212
20
91.318726
30
101.101158
11
0.390569
21
101.343201
31
81.952538
12
2.659754
22
100.256302
32
97.859222
13
2.659754
23
100.256302
33
97.859222
0
3DFACE
8
0
70
0
10
-4.074712
20
180.787842
30
122.611298
11
-0.990353
21
198.979370
31
128.666168
12
-20.442743
22
202.093231
32
122.216965
13
-14.117841
23
183.019562
33
117.381271
0
3DFACE
8
0
70
0
10
-0.990353
20
198.979370
30
128.666168
11
0.985005
21
210.630005
31
124.536148
12
-12.034337
22
209.354156
32
121.019630
13
-20.442743
23
202.093231
33
122.216965
0
3DFACE
8
0
70
0
10
-14.117841
20
183.019562
30
117.381271
11
-20.442743
21
202.093231
31
122.216965
12
-24.325392
22
200.236481
32
104.760262
13
-16.102180
23
179.989899
33
104.511536
0
3DFACE
8
0
70
0
10
-4.074712
20
180.787842
30
122.611298
11
-14.117841
21
183.019562
31
117.381271
12
-16.102180
22
179.989899
32
104.511536
13
-5.263005
23
175.325012
33
110.431023
0
3DFACE
8
0
70
0
10
0.985005
20
210.630005
30
124.536148
11
0.962006
21
212.040039
31
110.144325
12
-14.289638
22
210.626099
32
104.835999
13
-12.034337
23
209.354156
33
121.019630
0
3DFACE
8
0
70
0
10
-20.442743
20
202.093231
30
122.216965
11
-12.034337
21
209.354156
31
121.019630
12
-14.289638
22
210.626099
32
104.835999
13
-24.325392
23
200.236481
33
104.760262
0
3DFACE
8
0
70
0
10
-1.007169
20
221.872253
30
106.095726
11
-11.584635
21
232.157043
31
104.469696
12
-13.956473
22
212.787842
32
102.640167
13
-2.531244
23
212.883270
33
106.939926
0
3DFACE
8
0
70
0
10
-13.956473
20
212.787842
30
102.640167
11
-11.584635
21
232.157043
31
104.469696
12
-24.752747
22
225.901520
32
94.654121
13
-22.761841
23
215.228699
33
97.547935
0
3DFACE
8
0
70
0
10
-20.620937
20
162.458282
30
123.670197
11
-7.846757
21
160.086060
31
124.353905
12
-4.876725
22
177.603271
32
115.474297
13
-13.543325
23
180.506897
33
112.725731
0
3DFACE
8
0
70
0
10
-55.197708
20
185.398529
30
78.126740
11
-40.909130
21
163.701965
31
104.917747
12
-30.085466
22
185.018524
32
98.608398
13
-51.787479
23
195.906219
33
77.948036
0
3DFACE
8
0
70
0
10
-13.543325
20
180.506897
30
112.725731
11
-27.990049
21
183.222351
31
112.608620
12
-38.211967
22
167.663422
32
115.002632
13
-20.620937
23
162.458282
33
123.670197
0
3DFACE
8
0
70
0
10
-42.996353
20
226.608704
30
78.249641
11
-28.393309
21
228.482239
31
94.976685
12
-28.130777
22
231.781677
32
96.802116
13
-54.546745
23
231.260834
33
77.739914
0
3DFACE
8
0
70
0
10
3.165375
20
225.035461
30
112.074959
11
-12.189051
21
236.427887
31
108.592934
12
-11.012623
22
233.982300
32
107.094673
13
2.850839
23
223.180359
33
109.102097
0
3DFACE
8
0
70
0
10
-12.189051
20
236.427887
30
108.592934
11
-28.130777
21
231.781677
31
96.802116
12
-28.393309
22
228.482239
32
94.976685
13
-11.012623
23
233.982300
33
107.094673
0
3DFACE
8
0
70
0
10
-12.292064
20
133.867676
30
122.178635
11
-9.863146
21
148.193420
31
119.235939
12
-23.162931
22
153.457520
32
113.764572
13
-27.830248
23
144.966736
33
115.812424
0
3DFACE
8
0
70
0
10
-19.506212
20
91.318726
30
101.101158
11
-12.292064
21
133.867676
31
122.178635
12
-27.830248
22
144.966736
32
115.812424
13
-37.487350
23
107.063232
33
97.859222
0
3DFACE
8
0
70
0
10
-55.197708
20
185.398529
30
78.126740
11
-60.750484
21
174.921265
31
81.297020
12
-40.774132
22
160.411346
32
95.906563
13
-40.909130
23
163.701965
33
104.917747
0
3DFACE
8
0
70
0
10
-40.774132
20
160.411346
30
95.906563
11
-60.750484
21
174.921265
31
81.297020
12
-61.321793
22
167.547546
32
50.112881
13
-56.341511
23
136.632568
33
66.107307
0
3DFACE
8
0
70
0
10
-37.487350
20
107.063232
30
97.859222
11
-27.830248
21
144.966736
31
115.812424
12
-40.774132
22
160.411346
32
95.906563
13
-56.341511
23
136.632568
33
66.107307
0
3DFACE
8
0
70
0
10
-27.830248
20
144.966736
30
115.812424
11
-23.162931
21
153.457520
31
113.764572
12
-40.909130
22
163.701965
32
104.917747
13
-40.774132
23
160.411346
33
95.906563
0
3DFACE
8
0
70
0
10
-7.846757
20
160.086060
30
124.353905
11
-20.620937
21
162.458282
31
123.670197
12
-23.162931
22
153.457520
32
113.764572
13
-9.863146
23
148.193420
33
119.235939
0
3DFACE
8
0
70
0
10
-4.876725
20
177.603271
30
115.474297
11
-5.263005
21
175.325012
31
110.431023
12
-16.102180
22
179.989899
32
104.511536
13
-13.543325
23
180.506897
33
112.725731
0
3DFACE
8
0
70
0
10
-27.990049
20
183.222351
30
112.608620
11
-13.543325
21
180.506897
31
112.725731
12
-16.102180
22
179.989899
32
104.511536
13
-30.085466
23
185.018524
33
98.608398
0
POINT
8
0
70
0
10
-58.536472
20
169.795654
30
96.495125
0
3DFACE
8
0
70
0
10
-20.620937
20
162.458282
30
123.670197
11
-38.211967
21
167.663422
31
115.002632
12
-40.909130
22
163.701965
32
104.917747
13
-23.162931
23
153.457520
33
113.764572
0
3DFACE
8
0
70
0
10
-38.211967
20
167.663422
30
115.002632
11
-27.990049
21
183.222351
31
112.608620
12
-58.536472
22
169.795654
32
96.495125
13
-58.536472
23
169.795654
33
96.495125
0
3DFACE
8
0
70
0
10
-27.990049
20
183.222351
30
112.608620
11
-30.085466
21
185.018524
31
98.608398
12
-58.536472
22
169.795654
32
96.495125
13
-58.536472
23
169.795654
33
96.495125
0
3DFACE
8
0
70
0
10
-58.536472
20
169.795654
30
96.495125
11
-30.085466
21
185.018524
31
98.608398
12
-40.909130
22
163.701965
32
104.917747
13
-40.909130
23
163.701965
33
104.917747
0
3DFACE
8
0
70
0
10
-40.909130
20
163.701965
30
104.917747
11
-38.211967
21
167.663422
31
115.002632
12
-58.536472
22
169.795654
32
96.495125
13
-58.536472
23
169.795654
33
96.495125
0
3DFACE
8
0
70
0
10
-54.546745
20
231.260834
30
77.739914
11
-59.584679
21
228.906097
31
40.018829
12
-56.662273
22
226.368103
32
41.261280
13
-42.996353
23
226.608704
33
78.249641
0
3DFACE
8
0
70
0
10
-42.996353
20
226.608704
30
78.249641
11
-56.662273
21
226.368103
31
41.261280
12
-59.384529
22
219.311890
32
42.462151
13
-42.575470
23
217.289734
33
78.655991
0
3DFACE
8
0
70
0
10
-42.575470
20
217.289734
30
78.655991
11
-59.384529
21
219.311890
31
42.462151
12
-61.611549
22
206.307251
32
44.641083
13
-47.172585
23
204.783081
33
78.504814
0
3DFACE
8
0
70
0
10
-59.584679
20
228.906097
30
40.018829
11
-42.779190
21
223.279297
31
13.866787
12
-40.415417
22
221.750183
32
14.896184
13
-56.662273
23
226.368103
33
41.261280
0
3DFACE
8
0
70
0
10
-59.384529
20
219.311890
30
42.462151
11
-56.662273
21
226.368103
31
41.261280
12
-40.415417
22
221.750183
32
14.896184
13
-43.012100
23
220.267883
33
12.672510
0
3DFACE
8
0
70
0
10
-61.611549
20
206.307251
30
44.641083
11
-59.384529
21
219.311890
31
42.462151
12
-43.012100
22
220.267883
32
12.672510
13
-42.261269
23
208.276550
33
11.188781
0
3DFACE
8
0
70
0
10
-42.779190
20
223.279297
30
13.866787
11
1.544230
21
215.473999
31
-5.901319
12
1.418280
22
214.731140
32
-2.275020
13
-40.415417
23
221.750183
33
14.896184
0
3DFACE
8
0
70
0
10
-43.012100
20
220.267883
30
12.672510
11
-40.415417
21
221.750183
31
14.896184
12
1.418280
22
214.731140
32
-2.275020
13
1.076846
23
212.717377
33
-2.405131
0
3DFACE
8
0
70
0
10
-42.261269
20
208.276550
30
11.188781
11
-43.012100
21
220.267883
31
12.672510
12
1.076846
22
212.717377
32
-2.405131
13
-1.242751
23
199.036438
33
-0.945824
0
3DFACE
8
0
70
0
10
-61.321793
20
167.547546
30
50.112881
11
-60.750484
21
174.921265
31
81.297020
12
-55.197708
22
185.398529
32
78.126740
13
-64.784424
23
184.983337
33
46.003769
0
3DFACE
8
0
70
0
10
-47.172585
20
204.783081
30
78.504814
11
-61.611549
21
206.307251
31
44.641083
12
-51.787479
22
195.906219
32
77.948036
13
-51.787479
23
195.906219
33
77.948036
0
3DFACE
8
0
70
0
10
-55.197708
20
185.398529
30
78.126740
11
-51.787479
21
195.906219
31
77.948036
12
-61.611549
22
206.307251
32
44.641083
13
-64.784424
23
184.983337
33
46.003769
0
3DFACE
8
0
70
0
10
-64.784424
20
184.983337
30
46.003769
11
-61.611549
21
206.307251
31
44.641083
12
-42.261269
22
208.276550
32
11.188781
13
-44.486591
23
190.409485
33
14.099626
0
3DFACE
8
0
70
0
10
-44.486591
20
190.409485
30
14.099626
11
-42.261269
21
208.276550
31
11.188781
12
-1.242751
22
199.036438
32
-0.945824
13
-4.144719
23
181.920624
33
3.485335
0
3DFACE
8
0
70
0
10
3.165375
20
225.035461
30
112.074959
11
8.004731
21
253.577942
31
112.282356
12
-10.908211
22
258.081207
32
106.255333
13
-12.189051
23
236.427887
33
108.592934
0
3DFACE
8
0
70
0
10
8.004731
20
253.577942
30
112.282356
11
8.612763
21
257.164124
31
108.993706
12
-10.844007
22
260.784912
32
101.565422
13
-10.908211
23
258.081207
33
106.255333
0
3DFACE
8
0
70
0
10
-12.189051
20
236.427887
30
108.592934
11
-10.908211
21
258.081207
31
106.255333
12
-37.178959
22
261.612030
32
92.966484
13
-28.130777
23
231.781677
33
96.802116
0
3DFACE
8
0
70
0
10
-10.908211
20
258.081207
30
106.255333
11
-10.844007
21
260.784912
31
101.565422
12
-35.440750
22
264.432007
32
88.605896
13
-37.178959
23
261.612030
33
92.966484
0
3DFACE
8
0
70
0
10
-28.130777
20
231.781677
30
96.802116
11
-37.178959
21
261.612030
31
92.966484
12
-53.947445
22
259.005707
32
61.730480
13
-54.546745
23
231.260834
33
77.739914
0
3DFACE
8
0
70
0
10
-37.178959
20
261.612030
30
92.966484
11
-35.440750
21
264.432007
31
88.605896
12
-45.069504
22
261.723633
32
60.679428
13
-53.947445
23
259.005707
33
61.730480
0
3DFACE
8
0
70
0
10
-54.546745
20
231.260834
30
77.739914
11
-53.947445
21
259.005707
31
61.730480
12
-58.368427
22
260.004211
32
35.851646
13
-59.584679
23
228.906097
33
40.018829
0
3DFACE
8
0
70
0
10
-53.947445
20
259.005707
30
61.730480
11
-45.069504
21
261.723633
31
60.679428
12
-51.468540
22
261.490021
32
37.509758
13
-58.368427
23
260.004211
33
35.851646
0
3DFACE
8
0
70
0
10
-59.584679
20
228.906097
30
40.018829
11
-58.368427
21
260.004211
31
35.851646
12
-39.008564
22
250.874390
32
12.511165
13
-42.779190
23
223.279297
33
13.866787
0
3DFACE
8
0
70
0
10
-58.368427
20
260.004211
30
35.851646
11
-51.468540
21
261.490021
31
37.509758
12
-32.866432
22
254.026947
32
16.319864
13
-39.008564
23
250.874390
33
12.511165
0
3DFACE
8
0
70
0
10
-42.779190
20
223.279297
30
13.866787
11
-39.008564
21
250.874390
31
12.511165
12
5.848332
22
240.859528
32
-7.526243
13
1.544230
23
215.473999
33
-5.901319
0
3DFACE
8
0
70
0
10
-39.008564
20
250.874390
30
12.511165
11
-32.866432
21
254.026947
31
16.319864
12
6.452744
22
244.424347
32
-2.974264
13
5.848332
23
240.859528
33
-7.526243
0
3DFACE
8
0
70
0
10
-61.321793
20
167.547546
30
50.112881
11
-64.784424
21
184.983337
31
46.003769
12
-44.486591
22
190.409485
32
14.099626
13
-40.113415
23
167.238159
33
33.235725
0
3DFACE
8
0
70
0
10
-40.113415
20
167.238159
30
33.235725
11
-44.486591
21
190.409485
31
14.099626
12
-4.144719
22
181.920624
32
3.485335
13
-2.869223
23
176.105682
33
8.915996
0
3DFACE
8
0
70
0
10
-56.341511
20
136.632568
30
66.107307
11
-61.321793
21
167.547546
31
50.112881
12
-40.113415
22
167.238159
32
33.235725
13
-33.640526
23
140.424377
33
61.491863
0
3DFACE
8
0
70
0
10
-37.487350
20
107.063232
30
97.859222
11
-56.341511
21
136.632568
31
66.107307
12
-33.640526
22
140.424377
32
61.491863
13
-34.986717
23
107.341400
33
81.952538
0
3DFACE
8
0
70
0
10
-34.986717
20
107.341400
30
81.952538
11
-33.640526
21
140.424377
31
61.491863
12
-13.887510
22
124.457764
32
56.009388
13
-17.571241
23
102.731155
33
77.656464
0
3DFACE
8
0
70
0
10
-19.506212
20
91.318726
30
101.101158
11
-34.986717
21
107.341400
31
81.952538
12
-17.571241
22
102.731155
32
77.656464
13
-17.571241
23
102.731155
33
77.656464
0
3DFACE
8
0
70
0
10
-19.506212
20
91.318726
30
101.101158
11
-37.487350
21
107.063232
31
97.859222
12
-34.986717
22
107.341400
32
81.952538
13
-34.986717
23
107.341400
33
81.952538
0
3DFACE
8
0
70
0
10
-2.531244
20
212.883270
30
106.939926
11
0.962006
21
212.040039
31
110.144325
12
2.850839
22
223.180359
32
109.102097
13
-1.007169
23
221.872253
33
106.095726
0
3DFACE
8
0
70
0
10
-13.956473
20
212.787842
30
102.640167
11
-14.289638
21
210.626099
31
104.835999
12
0.962006
22
212.040039
32
110.144325
13
-2.531244
23
212.883270
33
106.939926
0
3DFACE
8
0
70
0
10
-11.584635
20
232.157043
30
104.469696
11
-1.007169
21
221.872253
31
106.095726
12
2.850839
22
223.180359
32
109.102097
13
-11.012623
23
233.982300
33
107.094673
0
3DFACE
8
0
70
0
10
-13.956473
20
212.787842
30
102.640167
11
-22.761841
21
215.228699
31
97.547935
12
-25.867085
22
213.888214
32
98.549278
13
-14.289638
23
210.626099
33
104.835999
0
3DFACE
8
0
70
0
10
-22.761841
20
215.228699
30
97.547935
11
-24.752747
21
225.901520
31
94.654121
12
-28.393309
22
228.482239
32
94.976685
13
-25.867085
23
213.888214
33
98.549278
0
3DFACE
8
0
70
0
10
-11.584635
20
232.157043
30
104.469696
11
-11.012623
21
233.982300
31
107.094673
12
-28.393309
22
228.482239
32
94.976685
13
-24.752747
23
225.901520
33
94.654121
0
3DFACE
8
0
70
0
10
19.964842
20
226.102753
30
104.268646
11
19.763138
21
227.945313
31
107.094673
12
2.850839
22
223.180359
32
109.102097
13
6.528749
23
220.715515
33
106.276039
0
3DFACE
8
0
70
0
10
15.421656
20
207.185699
30
102.009956
11
4.939924
21
211.344635
31
107.318283
12
0.962006
22
212.040039
32
110.144325
13
14.895205
23
205.677826
33
104.835999
0
3DFACE
8
0
70
0
10
4.939924
20
211.344635
30
107.318283
11
6.528749
21
220.715515
31
106.276039
12
2.850839
22
223.180359
32
109.102097
13
0.962006
23
212.040039
33
110.144325
0
3DFACE
8
0
70
0
10
19.964842
20
226.102753
30
104.268646
11
30.453705
21
216.662476
31
92.150620
12
34.956223
22
217.741364
32
94.976685
13
19.763138
23
227.945313
33
107.094673
0
3DFACE
8
0
70
0
10
25.015932
20
206.569244
30
95.723228
11
27.760660
21
204.795654
31
98.549278
12
34.956223
22
217.741364
32
94.976685
13
30.453705
23
216.662476
33
92.150620
0
3DFACE
8
0
70
0
10
15.421656
20
207.185699
30
102.009956
11
14.895205
21
205.677826
31
104.835999
12
27.760660
22
204.795654
32
98.549278
13
25.015932
23
206.569244
33
95.723228
0
3DFACE
8
0
70
0
10
-2.869223
20
176.105682
30
8.915996
11
34.787201
21
164.132294
31
30.443941
12
61.432213
22
154.827393
32
0.054197
13
-1.046900
23
175.561310
33
5.150574
0
3DFACE
8
0
70
0
10
-1.046900
20
175.561310
30
5.150574
11
-61.544628
21
153.346252
31
4.807959
12
-40.113415
22
167.238159
32
33.235725
13
-2.869223
23
176.105682
33
8.915996
0
3DFACE
8
0
70
0
10
-61.544628
20
153.346252
30
4.807959
11
-48.951572
21
127.935791
31
63.510258
12
-40.113415
22
167.238159
32
33.235725
13
-40.113415
23
167.238159
33
33.235725
0
3DFACE
8
0
70
0
10
-48.951572
20
127.935791
30
63.510258
11
-33.640526
21
140.424377
31
61.491863
12
-40.113415
22
167.238159
32
33.235725
13
-40.113415
23
167.238159
33
33.235725
0
3DFACE
8
0
70
0
10
59.987263
20
132.885132
30
54.601452
11
34.787201
21
164.132294
31
30.443941
12
27.882294
22
136.886292
32
58.311569
13
27.882294
23
136.886292
33
58.311569
0
3DFACE
8
0
70
0
10
61.432213
20
154.827393
30
0.054197
11
34.787201
21
164.132294
31
30.443941
12
59.987263
22
132.885132
32
54.601452
13
59.987263
23
132.885132
33
54.601452
0
3DFACE
8
0
70
0
10
8.422140
20
126.755829
30
66.834259
11
-33.640526
21
140.424377
31
61.491863
12
-48.951572
22
127.935791
32
63.510258
13
-48.951572
23
127.935791
33
63.510258
0
3DFACE
8
0
70
0
10
-13.887510
20
124.457764
30
56.009388
11
-33.640526
21
140.424377
31
61.491863
12
8.422140
22
126.755829
32
66.834259
13
8.422140
23
126.755829
33
66.834259
0
3DFACE
8
0
70
0
10
-13.887510
20
124.457764
30
56.009388
11
8.422140
21
126.755829
31
66.834259
12
27.882294
22
136.886292
32
58.311569
13
27.882294
23
136.886292
33
58.311569
0
3DFACE
8
0
70
0
10
8.422140
20
126.755829
30
66.834259
11
59.987263
21
132.885132
31
54.601452
12
27.882294
22
136.886292
32
58.311569
13
27.882294
23
136.886292
33
58.311569
0
3DFACE
8
0
70
0
10
6.452744
20
244.424347
30
-2.974264
11
8.999685
21
299.008636
31
29.301918
12
24.312052
22
293.325470
32
34.338223
13
46.739708
23
240.529785
33
16.319864
0
3DFACE
8
0
70
0
10
46.739708
20
240.529785
30
16.319864
11
24.312052
21
293.325470
31
34.338223
12
36.713627
22
290.794250
32
42.223419
13
66.762199
23
241.444092
33
37.509758
0
3DFACE
8
0
70
0
10
66.762199
20
241.444092
30
37.509758
11
36.713627
21
290.794250
31
42.223419
12
38.732018
22
294.304352
32
50.712959
13
60.797802
23
243.773926
33
60.679428
0
3DFACE
8
0
70
0
10
60.797802
20
243.773926
30
60.679428
11
38.732018
21
294.304352
31
50.712959
12
41.521751
22
298.491455
32
61.226097
13
52.599911
23
249.504761
33
88.605896
0
3DFACE
8
0
70
0
10
8.612763
20
257.164124
30
108.993706
11
28.175642
21
254.169159
31
101.565422
12
34.423702
22
305.356964
32
66.665558
13
28.162989
23
310.574799
33
69.924011
0
3DFACE
8
0
70
0
10
6.452744
20
244.424347
30
-2.974264
11
-32.866432
21
254.026947
31
16.319864
12
-1.085882
22
307.846466
32
35.345329
13
8.999685
23
299.008636
33
29.301918
0
3DFACE
8
0
70
0
10
-32.866432
20
254.026947
30
16.319864
11
-51.468540
21
261.490021
31
37.509758
12
-5.728975
22
315.060394
32
43.906399
13
-1.085882
23
307.846466
33
35.345329
0
3DFACE
8
0
70
0
10
-51.468540
20
261.490021
30
37.509758
11
-45.069504
21
261.723633
31
60.679428
12
0.189488
22
316.340668
32
52.241291
13
-5.728975
23
315.060394
33
43.906399
0
3DFACE
8
0
70
0
10
-45.069504
20
261.723633
30
60.679428
11
-35.440750
21
264.432007
31
88.605896
12
7.239130
22
318.092194
32
62.585510
13
0.189488
23
316.340668
33
52.241291
0
3DFACE
8
0
70
0
10
8.612763
20
257.164124
30
108.993706
11
28.162989
21
310.574799
31
69.924011
12
19.114338
22
314.109955
32
67.272621
13
-10.844007
23
260.784912
33
101.565422
0
3DFACE
8
0
70
0
10
52.599911
20
249.504761
30
88.605896
11
41.521751
21
298.491455
31
61.226097
12
34.423702
22
305.356964
32
66.665558
13
28.175642
23
254.169159
33
101.565422
0
3DFACE
8
0
70
0
10
-35.440750
20
264.432007
30
88.605896
11
-10.844007
21
260.784912
31
101.565422
12
19.114338
22
314.109955
32
67.272621
13
7.239130
23
318.092194
33
62.585510
0
3DFACE
8
0
70
0
10
50.554176
20
330.044403
30
5.363447
11
55.085297
21
317.613831
31
-4.730445
12
49.690975
22
330.895996
32
-10.680560
13
49.690975
23
330.895996
33
-10.680560
0
3DFACE
8
0
70
0
10
51.154087
20
313.855804
30
9.172142
11
55.085297
21
317.613831
31
-4.730445
12
50.554176
22
330.044403
32
5.363447
13
50.554176
23
330.044403
33
5.363447
0
3DFACE
8
0
70
0
10
41.828533
20
323.379944
30
17.124672
11
51.154087
21
313.855804
31
9.172142
12
50.554176
22
330.044403
32
5.363447
13
50.554176
23
330.044403
33
5.363447
0
3DFACE
8
0
70
0
10
41.828533
20
323.379944
30
17.124672
11
50.554176
21
330.044403
31
5.363447
12
36.434212
22
336.662048
32
11.174612
13
36.434212
23
336.662048
33
11.174612
0
3DFACE
8
0
70
0
10
36.434212
20
336.662048
30
11.174612
11
50.554176
21
330.044403
31
5.363447
12
40.365425
22
340.420074
32
-2.727975
13
40.365425
23
340.420074
33
-2.727975
0
3DFACE
8
0
70
0
10
50.554176
20
330.044403
30
5.363447
11
49.690975
21
330.895996
31
-10.680560
12
40.365425
22
340.420074
32
-2.727975
13
40.365425
23
340.420074
33
-2.727975
0
3DFACE
8
0
70
0
10
55.085297
20
317.613831
30
-4.730445
11
47.373299
21
306.652039
31
-13.194256
12
39.744572
22
325.435822
32
-21.608919
13
49.690975
23
330.895996
33
-10.680560
0
3DFACE
8
0
70
0
10
41.813705
20
301.337372
30
6.467047
11
47.373299
21
306.652039
31
-13.194256
12
55.085297
22
317.613831
32
-4.730445
13
51.154087
23
313.855804
33
9.172142
0
3DFACE
8
0
70
0
10
28.625406
20
314.806488
30
17.713602
11
41.813705
21
301.337372
31
6.467047
12
51.154087
22
313.855804
32
9.172142
13
41.828533
23
323.379944
33
17.124672
0
3DFACE
8
0
70
0
10
28.625406
20
314.806488
30
17.713602
11
41.828533
21
323.379944
31
17.124672
12
36.434212
22
336.662048
32
11.174612
13
20.996670
23
333.590271
33
9.298968
0
3DFACE
8
0
70
0
10
20.996670
20
333.590271
30
9.298968
11
36.434212
21
336.662048
31
11.174612
12
40.365425
22
340.420074
32
-2.727975
13
26.556263
23
338.904938
33
-10.362335
0
3DFACE
8
0
70
0
10
40.365425
20
340.420074
30
-2.727975
11
49.690975
21
330.895996
31
-10.680560
12
39.744572
22
325.435822
32
-21.608919
13
26.556263
23
338.904938
33
-10.362335
0
3DFACE
8
0
70
0
10
31.935757
20
303.580231
30
-15.069847
11
26.541433
21
316.862366
31
-21.019962
12
39.744572
22
325.435822
32
-21.608919
13
47.373299
23
306.652039
33
-13.194256
0
3DFACE
8
0
70
0
10
41.813705
20
301.337372
30
6.467047
11
28.004543
21
299.822205
31
-1.167260
12
31.935757
22
303.580231
32
-15.069847
13
47.373299
23
306.652039
33
-13.194256
0
3DFACE
8
0
70
0
10
28.625406
20
314.806488
30
17.713602
11
18.678993
21
309.346313
31
6.785270
12
28.004543
22
299.822205
32
-1.167260
13
41.813705
23
301.337372
33
6.467047
0
3DFACE
8
0
70
0
10
28.625406
20
314.806488
30
17.713602
11
20.996670
21
333.590271
31
9.298968
12
13.284672
22
322.628448
32
0.835210
13
18.678993
23
309.346313
33
6.785270
0
3DFACE
8
0
70
0
10
20.996670
20
333.590271
30
9.298968
11
26.556263
21
338.904938
31
-10.362335
12
17.215883
22
326.386475
32
-13.067377
13
13.284672
23
322.628448
33
0.835210
0
3DFACE
8
0
70
0
10
17.215883
20
326.386475
30
-13.067377
11
26.556263
21
338.904938
31
-10.362335
12
39.744572
22
325.435822
32
-21.608919
13
26.541433
23
316.862366
33
-21.019962
0
3DFACE
8
0
70
0
10
17.815763
20
310.197876
30
-9.258681
11
26.541433
21
316.862366
31
-21.019962
12
31.935757
22
303.580231
32
-15.069847
13
31.935757
23
303.580231
33
-15.069847
0
3DFACE
8
0
70
0
10
28.004543
20
299.822205
30
-1.167260
11
17.815763
21
310.197876
31
-9.258681
12
31.935757
22
303.580231
32
-15.069847
13
31.935757
23
303.580231
33
-15.069847
0
3DFACE
8
0
70
0
10
18.678993
20
309.346313
30
6.785270
11
17.815763
21
310.197876
31
-9.258681
12
28.004543
22
299.822205
32
-1.167260
13
28.004543
23
299.822205
33
-1.167260
0
3DFACE
8
0
70
0
10
18.678993
20
309.346313
30
6.785270
11
13.284672
21
322.628448
31
0.835210
12
17.815763
22
310.197876
32
-9.258681
13
17.815763
23
310.197876
33
-9.258681
0
3DFACE
8
0
70
0
10
13.284672
20
322.628448
30
0.835210
11
17.215883
21
326.386475
31
-13.067377
12
17.815763
22
310.197876
32
-9.258681
13
17.815763
23
310.197876
33
-9.258681
0
3DFACE
8
0
70
0
10
17.815763
20
310.197876
30
-9.258681
11
17.215883
21
326.386475
31
-13.067377
12
26.541433
22
316.862366
32
-21.019962
13
26.541433
23
316.862366
33
-21.019962
0
3DFACE
8
0
70
0
10
21.367409
20
176.294739
30
98.608398
11
45.445389
21
179.420471
31
77.948036
12
35.345676
22
189.963745
32
101.725830
13
35.345676
23
189.963745
33
101.725830
0
3DFACE
8
0
70
0
10
45.445389
20
179.420471
30
77.948036
11
44.014420
21
189.322388
31
78.504814
12
35.345676
22
189.963745
32
101.725830
13
35.345676
23
189.963745
33
101.725830
0
3DFACE
8
0
70
0
10
6.508057
20
176.156372
30
104.511536
11
21.367409
21
176.294739
31
98.608398
12
20.945433
22
192.560852
32
104.760262
13
20.945433
23
192.560852
33
104.760262
0
3DFACE
8
0
70
0
10
21.367409
20
176.294739
30
98.608398
11
35.345676
21
189.963745
31
101.725830
12
20.945433
22
192.560852
32
104.760262
13
20.945433
23
192.560852
33
104.760262
0
3DFACE
8
0
70
0
10
35.345676
20
189.963745
30
101.725830
11
44.014420
21
189.322388
31
78.504814
12
27.760660
22
204.795654
32
98.549278
13
27.760660
23
204.795654
33
98.549278
0
3DFACE
8
0
70
0
10
44.014420
20
189.322388
30
78.504814
11
43.796703
21
202.645386
31
78.655991
12
27.760660
22
204.795654
32
98.549278
13
27.760660
23
204.795654
33
98.549278
0
3DFACE
8
0
70
0
10
20.945433
20
192.560852
30
104.760262
11
27.760660
21
204.795654
31
98.549278
12
14.895205
22
205.677826
32
104.835999
13
14.895205
23
205.677826
33
104.835999
0
3DFACE
8
0
70
0
10
35.345676
20
189.963745
30
101.725830
11
27.760660
21
204.795654
31
98.549278
12
20.945433
22
192.560852
32
104.760262
13
20.945433
23
192.560852
33
104.760262
0
3DFACE
8
0
70
0
10
27.760660
20
204.795654
30
98.549278
11
43.796703
21
202.645386
31
78.655991
12
34.956223
22
217.741364
32
94.976685
13
34.956223
23
217.741364
33
94.976685
0
3DFACE
8
0
70
0
10
43.796703
20
202.645386
30
78.655991
11
47.265808
21
211.304810
31
78.249641
12
34.956223
22
217.741364
32
94.976685
13
34.956223
23
217.741364
33
94.976685
0
3DFACE
8
0
70
0
10
-51.787479
20
195.906219
30
77.948036
11
-38.776905
21
202.531189
31
101.725830
12
-47.172585
22
204.783081
32
78.504814
13
-47.172585
23
204.783081
33
78.504814
0
3DFACE
8
0
70
0
10
-30.085466
20
185.018524
30
98.608398
11
-38.776905
21
202.531189
31
101.725830
12
-51.787479
22
195.906219
32
77.948036
13
-51.787479
23
195.906219
33
77.948036
0
3DFACE
8
0
70
0
10
-30.085466
20
185.018524
30
98.608398
11
-24.325392
21
200.236481
31
104.760262
12
-38.776905
22
202.531189
32
101.725830
13
-38.776905
23
202.531189
33
101.725830
0
3DFACE
8
0
70
0
10
-16.102180
20
179.989899
30
104.511536
11
-24.325392
21
200.236481
31
104.760262
12
-30.085466
22
185.018524
32
98.608398
13
-30.085466
23
185.018524
33
98.608398
0
3DFACE
8
0
70
0
10
-47.172585
20
204.783081
30
78.504814
11
-25.867085
21
213.888214
31
98.549278
12
-42.575470
22
217.289734
32
78.655991
13
-42.575470
23
217.289734
33
78.655991
0
3DFACE
8
0
70
0
10
-38.776905
20
202.531189
30
101.725830
11
-25.867085
21
213.888214
31
98.549278
12
-47.172585
22
204.783081
32
78.504814
13
-47.172585
23
204.783081
33
78.504814
0
3DFACE
8
0
70
0
10
-24.325392
20
200.236481
30
104.760262
11
-14.289638
21
210.626099
31
104.835999
12
-25.867085
22
213.888214
32
98.549278
13
-25.867085
23
213.888214
33
98.549278
0
3DFACE
8
0
70
0
10
-38.776905
20
202.531189
30
101.725830
11
-24.325392
21
200.236481
31
104.760262
12
-25.867085
22
213.888214
32
98.549278
13
-25.867085
23
213.888214
33
98.549278
0
3DFACE
8
0
70
0
10
-42.575470
20
217.289734
30
78.655991
11
-28.393309
21
228.482239
31
94.976685
12
-42.996353
22
226.608704
32
78.249641
13
-42.996353
23
226.608704
33
78.249641
0
3DFACE
8
0
70
0
10
-25.867085
20
213.888214
30
98.549278
11
-28.393309
21
228.482239
31
94.976685
12
-42.575470
22
217.289734
32
78.655991
13
-42.575470
23
217.289734
33
78.655991
0
3DFACE
8
0
70
0
10
50.319775
20
-66.760399
30
34.761253
11
46.916962
21
-46.569099
31
22.054232
12
32.959820
22
-48.143387
32
-1.850229
13
32.959820
23
-48.143387
33
-1.850229
0
3DFACE
8
0
70
0
10
50.319775
20
-66.760399
30
34.761253
11
32.959820
21
-48.143387
31
-1.850229
12
36.688511
22
-69.866692
32
13.210614
13
36.688511
23
-69.866692
33
13.210614
0
3DFACE
8
0
70
0
10
50.319775
20
-66.760399
30
34.761253
11
84.839859
21
-55.759888
31
2.262090
12
46.916962
22
-46.569099
32
22.054232
13
46.916962
23
-46.569099
33
22.054232
0
3DFACE
8
0
70
0
10
50.319775
20
-66.760399
30
34.761253
11
82.673264
21
-74.890869
31
17.267075
12
84.839859
22
-55.759888
32
2.262090
13
84.839859
23
-55.759888
33
2.262090
0
3DFACE
8
0
70
0
10
82.673264
20
-74.890869
30
17.267075
11
90.883102
21
-59.789169
31
-17.028883
12
84.839859
22
-55.759888
32
2.262090
13
84.839859
23
-55.759888
33
2.262090
0
3DFACE
8
0
70
0
10
82.673264
20
-74.890869
30
17.267075
11
87.503876
21
-79.448807
31
-0.151303
12
90.883102
22
-59.789169
32
-17.028883
13
90.883102
23
-59.789169
33
-17.028883
0
3DFACE
8
0
70
0
10
37.977074
20
-76.031021
30
-13.346457
11
32.959820
21
-48.143387
31
-1.850229
12
33.859489
22
-52.893494
32
-30.835712
13
33.859489
23
-52.893494
33
-30.835712
0
3DFACE
8
0
70
0
10
36.688511
20
-69.866692
30
13.210614
11
32.959820
21
-48.143387
31
-1.850229
12
37.977074
22
-76.031021
32
-13.346457
13
37.977074
23
-76.031021
33
-13.346457
0
3DFACE
8
0
70
0
10
74.650505
20
-80.916779
30
-14.002937
11
76.352501
21
-59.870743
31
-32.116375
12
90.883102
22
-59.789169
32
-17.028883
13
90.883102
23
-59.789169
33
-17.028883
0
3DFACE
8
0
70
0
10
87.503876
20
-79.448807
30
-0.151303
11
74.650505
21
-80.916779
31
-14.002937
12
90.883102
22
-59.789169
32
-17.028883
13
90.883102
23
-59.789169
33
-17.028883
0
3DFACE
8
0
70
0
10
37.977074
20
-76.031021
30
-13.346457
11
33.859489
21
-52.893494
31
-30.835712
12
76.352501
22
-59.870743
32
-32.116375
13
76.352501
23
-59.870743
33
-32.116375
0
3DFACE
8
0
70
0
10
74.650505
20
-80.916779
30
-14.002937
11
37.977074
21
-76.031021
31
-13.346457
12
76.352501
22
-59.870743
32
-32.116375
13
76.352501
23
-59.870743
33
-32.116375
0
3DFACE
8
0
70
0
10
-19.905602
20
-82.412964
30
38.415691
11
-17.239830
21
-85.817734
31
12.858344
12
-13.755272
22
-66.909096
32
-4.650128
13
-13.755272
23
-66.909096
33
-4.650128
0
3DFACE
8
0
70
0
10
-19.905602
20
-82.412964
30
38.415691
11
-13.755272
21
-66.909096
31
-4.650128
12
-15.524758
22
-60.833923
32
23.080837
13
-15.524758
23
-60.833923
33
23.080837
0
3DFACE
8
0
70
0
10
-19.905602
20
-82.412964
30
38.415691
11
-15.524758
21
-60.833923
31
23.080837
12
-57.791245
22
-52.389008
32
22.934864
13
-57.791245
23
-52.389008
33
22.934864
0
3DFACE
8
0
70
0
10
-19.905602
20
-82.412964
30
38.415691
11
-57.791245
21
-52.389008
31
22.934864
12
-56.218903
22
-75.021156
32
37.741215
13
-56.218903
23
-75.021156
33
37.741215
0
3DFACE
8
0
70
0
10
-56.218903
20
-75.021156
30
37.741215
11
-57.791245
21
-52.389008
31
22.934864
12
-71.659653
22
-52.578430
32
8.535884
13
-71.659653
23
-52.578430
33
8.535884
0
3DFACE
8
0
70
0
10
-56.218903
20
-75.021156
30
37.741215
11
-71.659653
21
-52.578430
31
8.535884
12
-68.108681
22
-74.066185
32
24.410858
13
-68.108681
23
-74.066185
33
24.410858
0
3DFACE
8
0
70
0
10
-29.982790
20
-85.783028
30
-10.274991
11
-27.362806
21
-69.421577
31
-30.057186
12
-13.755272
22
-66.909096
32
-4.650128
13
-13.755272
23
-66.909096
33
-4.650128
0
3DFACE
8
0
70
0
10
-17.239830
20
-85.817734
30
12.858344
11
-29.982790
21
-85.783028
31
-10.274991
12
-13.755272
22
-66.909096
32
-4.650128
13
-13.755272
23
-66.909096
33
-4.650128
0
3DFACE
8
0
70
0
10
-68.108681
20
-74.066185
30
24.410858
11
-71.659653
21
-52.578430
31
8.535884
12
-62.769077
22
-77.211693
32
6.092267
13
-62.769077
23
-77.211693
33
6.092267
0
3DFACE
8
0
70
0
10
-62.769077
20
-77.211693
30
6.092267
11
-71.659653
21
-52.578430
31
8.535884
12
-65.485977
22
-57.970978
32
-11.604852
13
-65.485977
23
-57.970978
33
-11.604852
0
3DFACE
8
0
70
0
10
-62.769077
20
-77.211693
30
6.092267
11
-65.485977
21
-57.970978
31
-11.604852
12
-29.982790
22
-85.783028
32
-10.274991
13
-29.982790
23
-85.783028
33
-10.274991
0
3DFACE
8
0
70
0
10
-29.982790
20
-85.783028
30
-10.274991
11
-65.485977
21
-57.970978
31
-11.604852
12
-27.362806
22
-69.421577
32
-30.057186
13
-27.362806
23
-69.421577
33
-30.057186
0
3DFACE
8
0
70
0
10
42.637177
20
-91.293274
30
21.349974
11
50.319775
21
-66.760399
31
34.761253
12
36.688511
22
-69.866692
32
13.210614
13
36.688511
23
-69.866692
33
13.210614
0
3DFACE
8
0
70
0
10
28.542284
20
-120.749855
30
-0.626441
11
42.637177
21
-91.293274
31
21.349974
12
36.688511
22
-69.866692
32
13.210614
13
36.688511
23
-69.866692
33
13.210614
0
3DFACE
8
0
70
0
10
73.584686
20
-103.050163
30
5.566827
11
82.673264
21
-74.890869
31
17.267075
12
42.637177
22
-91.293274
32
21.349974
13
42.637177
23
-91.293274
33
21.349974
0
3DFACE
8
0
70
0
10
42.637177
20
-91.293274
30
21.349974
11
82.673264
21
-74.890869
31
17.267075
12
50.319775
22
-66.760399
32
34.761253
13
50.319775
23
-66.760399
33
34.761253
0
3DFACE
8
0
70
0
10
76.882011
20
-127.447128
30
-10.660262
11
87.503876
21
-79.448807
31
-0.151303
12
73.584686
22
-103.050163
32
5.566827
13
73.584686
23
-103.050163
33
5.566827
0
3DFACE
8
0
70
0
10
73.584686
20
-103.050163
30
5.566827
11
87.503876
21
-79.448807
31
-0.151303
12
82.673264
22
-74.890869
32
17.267075
13
82.673264
23
-74.890869
33
17.267075
0
3DFACE
8
0
70
0
10
28.542284
20
-120.749855
30
-0.626441
11
36.688511
21
-69.866692
31
13.210614
12
37.977074
22
-76.031021
32
-13.346457
13
37.977074
23
-76.031021
33
-13.346457
0
3DFACE
8
0
70
0
10
4.730807
20
-150.789917
30
-22.167648
11
28.542284
21
-120.749855
31
-0.626441
12
37.977074
22
-76.031021
32
-13.346457
13
37.977074
23
-76.031021
33
-13.346457
0
3DFACE
8
0
70
0
10
76.465736
20
-159.261978
30
-35.273907
11
74.650505
21
-80.916779
31
-14.002937
12
76.882011
22
-127.447128
32
-10.660262
13
76.882011
23
-127.447128
33
-10.660262
0
3DFACE
8
0
70
0
10
76.882011
20
-127.447128
30
-10.660262
11
74.650505
21
-80.916779
31
-14.002937
12
87.503876
22
-79.448807
32
-0.151303
13
87.503876
23
-79.448807
33
-0.151303
0
3DFACE
8
0
70
0
10
4.730807
20
-150.789917
30
-22.167648
11
37.977074
21
-76.031021
31
-13.346457
12
76.465736
22
-159.261978
32
-35.273907
13
76.465736
23
-159.261978
33
-35.273907
0
3DFACE
8
0
70
0
10
76.465736
20
-159.261978
30
-35.273907
11
37.977074
21
-76.031021
31
-13.346457
12
74.650505
22
-80.916779
32
-14.002937
13
74.650505
23
-80.916779
33
-14.002937
0
3DFACE
8
0
70
0
10
-30.140810
20
-128.990784
30
-9.491986
11
-17.239830
21
-85.817734
31
12.858344
12
-29.323229
22
-103.081116
32
20.485004
13
-29.323229
23
-103.081116
33
20.485004
0
3DFACE
8
0
70
0
10
-29.323229
20
-103.081116
30
20.485004
11
-17.239830
21
-85.817734
31
12.858344
12
-19.905602
22
-82.412964
32
38.415691
13
-19.905602
23
-82.412964
33
38.415691
0
3DFACE
8
0
70
0
10
-29.323229
20
-103.081116
30
20.485004
11
-19.905602
21
-82.412964
31
38.415691
12
-56.218903
22
-75.021156
32
37.741215
13
-56.218903
23
-75.021156
33
37.741215
0
3DFACE
8
0
70
0
10
-64.893677
20
-102.492775
30
16.389042
11
-29.323229
21
-103.081116
31
20.485004
12
-56.218903
22
-75.021156
32
37.741215
13
-56.218903
23
-75.021156
33
37.741215
0
3DFACE
8
0
70
0
10
-64.893677
20
-102.492775
30
16.389042
11
-56.218903
21
-75.021156
31
37.741215
12
-68.108681
22
-74.066185
32
24.410858
13
-68.108681
23
-74.066185
33
24.410858
0
3DFACE
8
0
70
0
10
-78.572884
20
-120.808800
30
-0.857994
11
-64.893677
21
-102.492775
31
16.389042
12
-68.108681
22
-74.066185
32
24.410858
13
-68.108681
23
-74.066185
33
24.410858
0
3DFACE
8
0
70
0
10
-22.156290
20
-157.976089
30
-42.938053
11
-29.982790
21
-85.783028
31
-10.274991
12
-30.140810
22
-128.990784
32
-9.491986
13
-30.140810
23
-128.990784
33
-9.491986
0
3DFACE
8
0
70
0
10
-30.140810
20
-128.990784
30
-9.491986
11
-29.982790
21
-85.783028
31
-10.274991
12
-17.239830
22
-85.817734
32
12.858344
13
-17.239830
23
-85.817734
33
12.858344
0
3DFACE
8
0
70
0
10
-78.572884
20
-120.808800
30
-0.857994
11
-68.108681
21
-74.066185
31
24.410858
12
-62.769077
22
-77.211693
32
6.092267
13
-62.769077
23
-77.211693
33
6.092267
0
3DFACE
8
0
70
0
10
-93.148064
20
-144.906448
30
-28.284491
11
-78.572884
21
-120.808800
31
-0.857994
12
-62.769077
22
-77.211693
32
6.092267
13
-62.769077
23
-77.211693
33
6.092267
0
3DFACE
8
0
70
0
10
-93.148064
20
-144.906448
30
-28.284491
11
-62.769077
21
-77.211693
31
6.092267
12
-29.982790
22
-85.783028
32
-10.274991
13
-29.982790
23
-85.783028
33
-10.274991
0
3DFACE
8
0
70
0
10
-22.156290
20
-157.976089
30
-42.938053
11
-93.148064
21
-144.906448
31
-28.284491
12
-29.982790
22
-85.783028
32
-10.274991
13
-29.982790
23
-85.783028
33
-10.274991
0
3DFACE
8
0
70
0
10
115.469666
20
33.217102
30
64.019379
11
18.279352
21
46.616791
31
116.022964
12
18.096483
22
29.126282
32
104.567497
13
18.096483
23
29.126282
33
104.567497
0
3DFACE
8
0
70
0
10
115.469666
20
33.217102
30
64.019379
11
115.690346
21
66.069000
31
75.650528
12
18.279352
22
46.616791
32
116.022964
13
18.279352
23
46.616791
33
116.022964
0
3DFACE
8
0
70
0
10
99.813240
20
24.377228
30
-89.733925
11
-3.336705
21
17.083572
31
-109.223343
12
-4.756394
22
49.700043
32
-101.260048
13
-4.756394
23
49.700043
33
-101.260048
0
3DFACE
8
0
70
0
10
99.813240
20
24.377228
30
-89.733925
11
-4.756394
21
49.700043
31
-101.260048
12
100.069107
22
57.249008
32
-77.757210
13
100.069107
23
57.249008
33
-77.757210
0
3DFACE
8
0
70
0
10
115.469666
20
33.217102
30
64.019379
11
131.433105
21
62.593842
31
-12.189505
12
115.690346
22
66.069000
32
75.650528
13
115.690346
23
66.069000
33
75.650528
0
3DFACE
8
0
70
0
10
115.469666
20
33.217102
30
64.019379
11
132.068192
21
30.331696
31
-13.326665
12
131.433105
22
62.593842
32
-12.189505
13
131.433105
23
62.593842
33
-12.189505
0
3DFACE
8
0
70
0
10
132.068192
20
30.331696
30
-13.326665
11
99.813240
21
24.377228
31
-89.733925
12
100.069107
22
57.249008
32
-77.757210
13
100.069107
23
57.249008
33
-77.757210
0
3DFACE
8
0
70
0
10
132.068192
20
30.331696
30
-13.326665
11
100.069107
21
57.249008
31
-77.757210
12
131.433105
22
62.593842
32
-12.189505
13
131.433105
23
62.593842
33
-12.189505
0
3DFACE
8
0
70
0
10
-85.377014
20
21.480057
30
85.146042
11
18.096483
21
29.126282
31
104.567497
12
18.279352
22
46.616791
32
116.022964
13
18.279352
23
46.616791
33
116.022964
0
3DFACE
8
0
70
0
10
-85.377014
20
21.480057
30
85.146042
11
18.279352
21
46.616791
31
116.022964
12
-86.964180
22
54.226318
32
96.967361
13
-86.964180
23
54.226318
33
96.967361
0
3DFACE
8
0
70
0
10
-101.033432
20
12.640198
30
-68.607254
11
-4.756394
21
49.700043
31
-101.260048
12
-3.336705
22
17.083572
32
-109.223343
13
-3.336705
23
17.083572
33
-109.223343
0
3DFACE
8
0
70
0
10
-101.033432
20
12.640198
30
-68.607254
11
-102.585419
21
45.406326
31
-56.440376
12
-4.756394
22
49.700043
32
-101.260048
13
-4.756394
23
49.700043
33
-101.260048
0
3DFACE
8
0
70
0
10
-85.377014
20
21.480057
30
85.146042
11
-120.072884
21
47.896393
31
14.265915
12
-117.208801
22
15.764511
32
12.894292
13
-117.208801
23
15.764511
33
12.894292
0
3DFACE
8
0
70
0
10
-85.377014
20
21.480057
30
85.146042
11
-86.964180
21
54.226318
31
96.967361
12
-120.072884
22
47.896393
32
14.265915
13
-120.072884
23
47.896393
33
14.265915
0
3DFACE
8
0
70
0
10
-117.208801
20
15.764511
30
12.894292
11
-120.072884
21
47.896393
31
14.265915
12
-102.585419
22
45.406326
32
-56.440376
13
-102.585419
23
45.406326
33
-56.440376
0
3DFACE
8
0
70
0
10
-117.208801
20
15.764511
30
12.894292
11
-102.585419
21
45.406326
31
-56.440376
12
-101.033432
22
12.640198
32
-68.607254
13
-101.033432
23
12.640198
33
-68.607254
0
3DFACE
8
0
70
0
10
18.279352
20
46.616791
30
116.022964
11
59.987263
21
132.885132
31
54.601452
12
8.422140
22
126.755829
32
66.834259
13
8.422140
23
126.755829
33
66.834259
0
3DFACE
8
0
70
0
10
18.279352
20
46.616791
30
116.022964
11
115.690346
21
66.069000
31
75.650528
12
59.987263
22
132.885132
32
54.601452
13
59.987263
23
132.885132
33
54.601452
0
3DFACE
8
0
70
0
10
100.069107
20
57.249008
30
-77.757210
11
-4.756394
21
49.700043
31
-101.260048
12
51.704720
22
149.856750
32
-40.421265
13
51.704720
23
149.856750
33
-40.421265
0
3DFACE
8
0
70
0
10
-4.756394
20
49.700043
30
-101.260048
11
-3.320202
21
154.062683
31
-45.912178
12
51.704720
22
149.856750
32
-40.421265
13
51.704720
23
149.856750
33
-40.421265
0
3DFACE
8
0
70
0
10
115.690346
20
66.069000
30
75.650528
11
111.792374
21
124.765228
31
-3.766420
12
90.355103
22
139.592010
32
41.064667
13
90.355103
23
139.592010
33
41.064667
0
3DFACE
8
0
70
0
10
115.690346
20
66.069000
30
75.650528
11
131.433105
21
62.593842
31
-12.189505
12
111.792374
22
124.765228
32
-3.766420
13
111.792374
23
124.765228
33
-3.766420
0
3DFACE
8
0
70
0
10
100.069107
20
57.249008
30
-77.757210
11
82.117416
21
136.704285
31
-35.481617
12
111.792374
22
124.765228
32
-3.766420
13
111.792374
23
124.765228
33
-3.766420
0
3DFACE
8
0
70
0
10
131.433105
20
62.593842
30
-12.189505
11
100.069107
21
57.249008
31
-77.757210
12
111.792374
22
124.765228
32
-3.766420
13
111.792374
23
124.765228
33
-3.766420
0
3DFACE
8
0
70
0
10
115.690346
20
66.069000
30
75.650528
11
90.355103
21
139.592010
31
41.064667
12
59.987263
22
132.885132
32
54.601452
13
59.987263
23
132.885132
33
54.601452
0
3DFACE
8
0
70
0
10
100.069107
20
57.249008
30
-77.757210
11
51.704720
21
149.856750
31
-40.421265
12
82.117416
22
136.704285
32
-35.481617
13
82.117416
23
136.704285
33
-35.481617
0
3DFACE
8
0
70
0
10
18.279352
20
46.616791
30
116.022964
11
-48.951572
21
127.935791
31
63.510258
12
-86.964180
22
54.226318
32
96.967361
13
-86.964180
23
54.226318
33
96.967361
0
3DFACE
8
0
70
0
10
18.279352
20
46.616791
30
116.022964
11
8.422140
21
126.755829
31
66.834259
12
-48.951572
22
127.935791
32
63.510258
13
-48.951572
23
127.935791
33
63.510258
0
3DFACE
8
0
70
0
10
-102.585419
20
45.406326
30
-56.440376
11
-57.546768
21
145.275574
31
-32.175098
12
-4.756394
22
49.700043
32
-101.260048
13
-4.756394
23
49.700043
33
-101.260048
0
3DFACE
8
0
70
0
10
-4.756394
20
49.700043
30
-101.260048
11
-57.546768
21
145.275574
31
-32.175098
12
-3.320202
22
154.062683
32
-45.912178
13
-3.320202
23
154.062683
33
-45.912178
0
3DFACE
8
0
70
0
10
-86.964180
20
54.226318
30
96.967361
11
-71.711670
21
149.404877
31
48.465771
12
-103.353317
22
120.708527
32
22.853872
13
-103.353317
23
120.708527
33
22.853872
0
3DFACE
8
0
70
0
10
-86.964180
20
54.226318
30
96.967361
11
-103.353317
21
120.708527
31
22.853872
12
-120.072884
22
47.896393
32
14.265915
13
-120.072884
23
47.896393
33
14.265915
0
3DFACE
8
0
70
0
10
-120.072884
20
47.896393
30
14.265915
11
-103.353317
21
120.708527
31
22.853872
12
-102.585419
22
45.406326
32
-56.440376
13
-102.585419
23
45.406326
33
-56.440376
0
3DFACE
8
0
70
0
10
-102.585419
20
45.406326
30
-56.440376
11
-103.353317
21
120.708527
31
22.853872
12
-87.932854
22
126.876221
32
-17.235722
13
-87.932854
23
126.876221
33
-17.235722
0
3DFACE
8
0
70
0
10
-86.964180
20
54.226318
30
96.967361
11
-48.951572
21
127.935791
31
63.510258
12
-71.711670
22
149.404877
32
48.465771
13
-71.711670
23
149.404877
33
48.465771
0
3DFACE
8
0
70
0
10
-102.585419
20
45.406326
30
-56.440376
11
-87.932854
21
126.876221
31
-17.235722
12
-57.546768
22
145.275574
32
-32.175098
13
-57.546768
23
145.275574
33
-32.175098
0
3DFACE
8
0
70
0
10
111.792374
20
124.765228
30
-3.766420
11
135.597244
21
213.609314
31
34.785797
12
90.355103
22
139.592010
32
41.064667
13
90.355103
23
139.592010
33
41.064667
0
3DFACE
8
0
70
0
10
164.708817
20
215.258575
30
-1.994285
11
135.597244
21
213.609314
31
34.785797
12
111.792374
22
124.765228
32
-3.766420
13
111.792374
23
124.765228
33
-3.766420
0
3DFACE
8
0
70
0
10
90.355103
20
139.592010
30
41.064667
11
116.288605
21
245.324951
31
-1.052540
12
61.432213
22
154.827393
32
0.054197
13
61.432213
23
154.827393
33
0.054197
0
3DFACE
8
0
70
0
10
90.355103
20
139.592010
30
41.064667
11
135.597244
21
213.609314
31
34.785797
12
116.288605
22
245.324951
32
-1.052540
13
116.288605
23
245.324951
33
-1.052540
0
3DFACE
8
0
70
0
10
82.117416
20
136.704285
30
-35.481617
11
61.432213
21
154.827393
31
0.054197
12
116.288605
22
245.324951
32
-1.052540
13
116.288605
23
245.324951
33
-1.052540
0
3DFACE
8
0
70
0
10
82.117416
20
136.704285
30
-35.481617
11
116.288605
21
245.324951
31
-1.052540
12
146.436386
22
242.660828
32
-31.115246
13
146.436386
23
242.660828
33
-31.115246
0
3DFACE
8
0
70
0
10
111.792374
20
124.765228
30
-3.766420
11
82.117416
21
136.704285
31
-35.481617
12
146.436386
22
242.660828
32
-31.115246
13
146.436386
23
242.660828
33
-31.115246
0
3DFACE
8
0
70
0
10
164.708817
20
215.258575
30
-1.994285
11
111.792374
21
124.765228
31
-3.766420
12
146.436386
22
242.660828
32
-31.115246
13
146.436386
23
242.660828
33
-31.115246
0
3DFACE
8
0
70
0
10
-103.353317
20
120.708527
30
22.853872
11
-71.711670
21
149.404877
31
48.465771
12
-123.602867
22
222.543152
32
21.182352
13
-123.602867
23
222.543152
33
21.182352
0
3DFACE
8
0
70
0
10
-168.464828
20
205.765869
30
27.538446
11
-103.353317
21
120.708527
31
22.853872
12
-123.602867
22
222.543152
32
21.182352
13
-123.602867
23
222.543152
33
21.182352
0
3DFACE
8
0
70
0
10
-71.711670
20
149.404877
30
48.465771
11
-61.544628
21
153.346252
31
4.807959
12
-151.083939
22
222.280731
32
-24.186438
13
-151.083939
23
222.280731
33
-24.186438
0
3DFACE
8
0
70
0
10
-71.711670
20
149.404877
30
48.465771
11
-151.083939
21
222.280731
31
-24.186438
12
-123.602867
22
222.543152
32
21.182352
13
-123.602867
23
222.543152
33
21.182352
0
3DFACE
8
0
70
0
10
-87.932854
20
126.876221
30
-17.235722
11
-151.083939
21
222.280731
31
-24.186438
12
-61.544628
22
153.346252
32
4.807959
13
-61.544628
23
153.346252
33
4.807959
0
3DFACE
8
0
70
0
10
-87.932854
20
126.876221
30
-17.235722
11
-189.915543
21
206.424072
31
-12.120143
12
-151.083939
22
222.280731
32
-24.186438
13
-151.083939
23
222.280731
33
-24.186438
0
3DFACE
8
0
70
0
10
-103.353317
20
120.708527
30
22.853872
11
-189.915543
21
206.424072
31
-12.120143
12
-87.932854
22
126.876221
32
-17.235722
13
-87.932854
23
126.876221
33
-17.235722
0
3DFACE
8
0
70
0
10
-168.464828
20
205.765869
30
27.538446
11
-189.915543
21
206.424072
31
-12.120143
12
-103.353317
22
120.708527
32
22.853872
13
-103.353317
23
120.708527
33
22.853872
0
3DFACE
8
0
70
0
10
-163.806793
20
247.407410
30
46.447029
11
-168.464828
21
205.765869
31
27.538446
12
-123.602867
22
222.543152
32
21.182352
13
-123.602867
23
222.543152
33
21.182352
0
3DFACE
8
0
70
0
10
-163.806793
20
247.407410
30
46.447029
11
-123.602867
21
222.543152
31
21.182352
12
-119.919449
22
236.023010
32
28.933796
13
-119.919449
23
236.023010
33
28.933796
0
3DFACE
8
0
70
0
10
-119.919449
20
236.023010
30
28.933796
11
-123.602867
21
222.543152
31
21.182352
12
-151.083939
22
222.280731
32
-24.186438
13
-151.083939
23
222.280731
33
-24.186438
0
3DFACE
8
0
70
0
10
-119.919449
20
236.023010
30
28.933796
11
-151.083939
21
222.280731
31
-24.186438
12
-143.923599
22
270.542114
32
-3.555202
13
-143.923599
23
270.542114
33
-3.555202
0
3DFACE
8
0
70
0
10
-182.159576
20
276.839233
30
17.087378
11
-143.923599
21
270.542114
31
-3.555202
12
-151.083939
22
222.280731
32
-24.186438
13
-151.083939
23
222.280731
33
-24.186438
0
3DFACE
8
0
70
0
10
-182.159576
20
276.839233
30
17.087378
11
-151.083939
21
222.280731
31
-24.186438
12
-189.915543
22
206.424072
32
-12.120143
13
-189.915543
23
206.424072
33
-12.120143
0
3DFACE
8
0
70
0
10
-163.806793
20
247.407410
30
46.447029
11
-182.159576
21
276.839233
31
17.087378
12
-189.915543
22
206.424072
32
-12.120143
13
-189.915543
23
206.424072
33
-12.120143
0
3DFACE
8
0
70
0
10
-163.806793
20
247.407410
30
46.447029
11
-189.915543
21
206.424072
31
-12.120143
12
-168.464828
22
205.765869
32
27.538446
13
-168.464828
23
205.765869
33
27.538446
0
3DFACE
8
0
70
0
10
189.795792
20
250.414612
30
17.438414
11
135.597244
21
213.609314
31
34.785797
12
164.708817
22
215.258575
32
-1.994285
13
164.708817
23
215.258575
33
-1.994285
0
3DFACE
8
0
70
0
10
189.795792
20
250.414612
30
17.438414
11
152.883469
21
239.518127
31
47.122799
12
135.597244
22
213.609314
32
34.785797
13
135.597244
23
213.609314
33
34.785797
0
3DFACE
8
0
70
0
10
152.883469
20
239.518127
30
47.122799
11
116.288605
21
245.324951
31
-1.052540
12
135.597244
22
213.609314
32
34.785797
13
135.597244
23
213.609314
33
34.785797
0
3DFACE
8
0
70
0
10
152.883469
20
239.518127
30
47.122799
11
142.831924
21
285.142853
31
21.811680
12
116.288605
22
245.324951
32
-1.052540
13
116.288605
23
245.324951
33
-1.052540
0
3DFACE
8
0
70
0
10
178.861755
20
289.559296
30
-2.888643
11
146.436386
21
242.660828
31
-31.115246
12
116.288605
22
245.324951
32
-1.052540
13
116.288605
23
245.324951
33
-1.052540
0
3DFACE
8
0
70
0
10
178.861755
20
289.559296
30
-2.888643
11
116.288605
21
245.324951
31
-1.052540
12
142.831924
22
285.142853
32
21.811680
13
142.831924
23
285.142853
33
21.811680
0
3DFACE
8
0
70
0
10
189.795792
20
250.414612
30
17.438414
11
164.708817
21
215.258575
31
-1.994285
12
146.436386
22
242.660828
32
-31.115246
13
146.436386
23
242.660828
33
-31.115246
0
3DFACE
8
0
70
0
10
189.795792
20
250.414612
30
17.438414
11
146.436386
21
242.660828
31
-31.115246
12
178.861755
22
289.559296
32
-2.888643
13
178.861755
23
289.559296
33
-2.888643
0
3DFACE
8
0
70
0
10
25.333405
20
319.140320
30
5.071346
11
25.862829
21
314.249542
31
3.885317
12
8.999685
22
299.008636
32
29.301918
13
-1.085882
23
307.846466
33
35.345329
0
3DFACE
8
0
70
0
10
30.170101
20
311.646576
30
4.413369
11
24.312052
21
293.325470
31
34.338223
12
8.999685
22
299.008636
32
29.301918
13
25.862829
23
314.249542
33
3.885317
0
3DFACE
8
0
70
0
10
34.596924
20
310.830048
30
5.464698
11
36.713627
21
290.794250
31
42.223419
12
24.312052
22
293.325470
32
34.338223
13
30.170101
23
311.646576
33
4.413369
0
3DFACE
8
0
70
0
10
37.093880
20
313.142456
30
6.816603
11
38.732018
21
294.304352
31
50.712959
12
36.713627
22
290.794250
32
42.223419
13
34.596924
23
310.830048
33
5.464698
0
3DFACE
8
0
70
0
10
40.244133
20
315.924316
30
8.485121
11
41.521751
21
298.491455
31
61.226097
12
38.732018
22
294.304352
32
50.712959
13
37.093880
23
313.142456
33
6.816603
0
3DFACE
8
0
70
0
10
40.163956
20
319.768890
30
9.514198
11
34.423702
21
305.356964
31
66.665558
12
41.521751
22
298.491455
32
61.226097
13
40.244133
23
315.924316
33
8.485121
0
3DFACE
8
0
70
0
10
39.713764
20
322.637573
30
10.169647
11
28.162989
21
310.574799
31
69.924011
12
34.423702
22
305.356964
32
66.665558
13
40.163956
23
319.768890
33
9.514198
0
3DFACE
8
0
70
0
10
39.713764
20
322.637573
30
10.169647
11
37.248493
21
324.285950
31
9.910813
12
19.114338
22
314.109955
32
67.272621
13
28.162989
23
310.574799
33
69.924011
0
3DFACE
8
0
70
0
10
37.248493
20
324.285950
30
9.910813
11
33.715466
21
326.039520
31
9.373271
12
7.239130
22
318.092194
32
62.585510
13
19.114338
23
314.109955
33
67.272621
0
3DFACE
8
0
70
0
10
33.715466
20
326.039520
30
9.373271
11
29.753973
21
324.514557
31
7.815114
12
0.189488
22
316.340668
32
52.241291
13
7.239130
23
318.092194
33
62.585510
0
3DFACE
8
0
70
0
10
29.753973
20
324.514557
30
7.815114
11
26.514297
21
323.352875
31
6.564247
12
-5.728975
22
315.060394
32
43.906399
13
0.189488
23
316.340668
33
52.241291
0
3DFACE
8
0
70
0
10
26.514297
20
323.352875
30
6.564247
11
25.333405
21
319.140320
31
5.071346
12
-1.085882
22
307.846466
32
35.345329
13
-5.728975
23
315.060394
33
43.906399
0
ENDSEC
0
EOF
