0
SECTION
2
HEADER
999
DXF File Generated by LightWave 3D(TM)
0
ENDSEC
0
SECTION
2
TABLES
0
ENDSEC
0
SECTION
2
BLOCKS
0
ENDSEC
0
SECTION
2
ENTITIES
0
3DFACE
8
0
70
0
10
-69.238991
20
31.492462
30
64.294838
11
4.326393
21
-32.172859
31
63.273766
12
35.789227
22
-16.742950
32
40.761620
13
-3.786980
23
23.144653
33
63.690575
0
3DFACE
8
0
70
0
10
34.539383
20
-22.998230
30
-42.865387
11
24.221262
21
-18.887283
31
-30.747253
12
-13.470479
22
-35.471817
32
-46.739891
13
-15.106623
23
-33.680016
33
-86.205399
0
3DFACE
8
0
70
0
10
-76.133598
20
31.769806
30
83.423164
11
-69.238991
21
31.492462
31
64.294838
12
-3.786980
22
23.144653
32
63.690575
13
9.711999
23
21.306458
33
84.556923
0
3DFACE
8
0
70
0
10
58.215218
20
-37.088814
30
-50.292995
11
34.539383
21
-22.998230
31
-42.865387
12
-15.106623
22
-33.680016
32
-86.205399
13
-8.714126
23
-49.399620
33
-104.018219
0
3DFACE
8
0
70
0
10
-79.870956
20
40.441544
30
93.834785
11
11.832705
21
28.454544
31
93.222000
12
26.452967
22
88.687210
32
92.500687
13
-77.827370
23
101.772614
33
88.473068
0
3DFACE
8
0
70
0
10
66.641335
20
-37.532104
30
-59.158405
11
-3.686952
21
-51.279915
31
-117.973976
12
-1.642279
22
10.067856
32
-123.340385
13
81.261604
23
22.700546
33
-59.879715
0
3DFACE
8
0
70
0
10
-77.827370
20
101.772614
30
88.473068
11
26.452967
21
88.687210
31
92.500687
12
23.813986
22
86.827515
32
83.123077
13
-73.912292
23
98.434479
33
77.595161
0
3DFACE
8
0
70
0
10
-79.870956
20
40.441544
30
93.834785
11
-76.133598
21
31.769806
31
83.423164
12
9.711999
22
21.306458
32
84.556923
13
11.832705
23
28.454544
33
93.222000
0
3DFACE
8
0
70
0
10
81.261604
20
22.700546
30
-59.879715
11
-1.642279
21
10.067856
31
-123.340385
12
-6.471300
22
17.878220
32
-110.017586
13
72.317200
23
28.432236
33
-51.726845
0
3DFACE
8
0
70
0
10
66.641335
20
-37.532104
30
-59.158405
11
58.215218
21
-37.088814
31
-50.292995
12
-8.714126
22
-49.399620
32
-104.018219
13
-3.686952
23
-51.279915
33
-117.973976
0
3DFACE
8
0
70
0
10
27.673773
20
-119.444244
30
102.617195
11
74.813721
21
-119.444244
31
102.617195
12
66.977409
22
-98.812729
32
87.801697
13
33.987896
23
-98.998032
33
87.801697
0
3DFACE
8
0
70
0
10
-3.786980
20
23.144653
30
63.690575
11
35.789227
21
-16.742950
31
40.761620
12
39.956127
22
-18.015411
32
4.568608
13
28.813545
23
0.553207
33
16.573778
0
3DFACE
8
0
70
0
10
9.711999
20
21.306458
30
84.556923
11
-3.786980
21
23.144653
31
63.690575
12
28.813545
22
0.553207
32
16.573778
13
51.816555
23
-7.135513
33
25.625912
0
3DFACE
8
0
70
0
10
26.452967
20
88.687210
30
92.500687
11
11.832705
21
28.454544
31
93.222000
12
57.736126
22
-3.169693
32
27.364338
13
75.306267
23
57.057648
33
27.706358
0
3DFACE
8
0
70
0
10
75.306267
20
57.057648
30
27.706358
11
68.694801
21
58.380524
31
25.192810
12
23.813986
22
86.827515
32
83.123077
13
26.452967
23
88.687210
33
92.500687
0
3DFACE
8
0
70
0
10
11.832705
20
28.454544
30
93.222000
11
9.711999
21
21.306458
31
84.556923
12
51.816555
22
-7.135513
32
25.625912
13
57.736126
23
-3.169693
33
27.364338
0
3DFACE
8
0
70
0
10
12.906889
20
-152.844193
30
102.617195
11
80.090286
21
-153.029510
31
102.617195
12
74.813721
22
-119.444244
32
102.617195
13
27.673773
23
-119.444244
33
102.617195
0
3DFACE
8
0
70
0
10
-21.926037
20
199.739685
30
-16.909838
11
37.053932
21
176.209167
31
-8.304408
12
32.441662
22
169.088989
32
-44.103920
13
-12.144471
23
164.724915
33
-61.196857
0
3DFACE
8
0
70
0
10
28.813545
20
0.553207
30
16.573778
11
39.956127
21
-18.015411
31
4.568608
12
24.221262
22
-18.887283
32
-30.747253
13
34.539383
23
-22.998230
33
-42.865387
0
3DFACE
8
0
70
0
10
51.816555
20
-7.135513
30
25.625912
11
28.813545
21
0.553207
31
16.573778
12
34.539383
22
-22.998230
32
-42.865387
13
58.215218
23
-37.088814
33
-50.292995
0
3DFACE
8
0
70
0
10
57.736126
20
-3.169693
30
27.364338
11
66.641335
21
-37.532104
31
-59.158405
12
81.261604
22
22.700546
32
-59.879715
13
75.306267
23
57.057648
33
27.706358
0
3DFACE
8
0
70
0
10
81.261604
20
22.700546
30
-59.879715
11
72.317200
21
28.432236
31
-51.726845
12
68.694801
22
58.380524
32
25.192810
13
75.306267
23
57.057648
33
27.706358
0
3DFACE
8
0
70
0
10
57.736126
20
-3.169693
30
27.364338
11
51.816555
21
-7.135513
31
25.625912
12
58.215218
22
-37.088814
32
-50.292995
13
66.641335
23
-37.532104
33
-59.158405
0
3DFACE
8
0
70
0
10
10.404240
20
-56.076500
30
29.009178
11
4.326393
21
-32.172859
31
63.273766
12
-9.855652
22
-41.075302
32
9.264586
13
-2.781110
23
-58.193222
33
7.272495
0
3DFACE
8
0
70
0
10
10.404240
20
-56.076500
30
29.009178
11
42.049503
21
-35.460403
31
13.366809
12
35.789227
22
-16.742950
32
40.761620
13
4.326393
23
-32.172859
33
63.273766
0
3DFACE
8
0
70
0
10
42.049503
20
-35.460403
30
13.366809
11
46.296284
21
-29.344513
31
-3.351060
12
39.956127
22
-18.015411
32
4.568608
13
35.789227
23
-16.742950
33
40.761620
0
3DFACE
8
0
70
0
10
-2.781110
20
-58.193222
30
7.272495
11
-9.855652
21
-41.075302
31
9.264586
12
-13.470479
22
-35.471817
32
-46.739891
13
-3.437139
23
-52.702148
33
-18.236143
0
3DFACE
8
0
70
0
10
46.296284
20
-29.344513
30
-3.351060
11
33.052601
21
-33.267075
31
-17.342642
12
24.221262
22
-18.887283
32
-30.747253
13
39.956127
23
-18.015411
33
4.568608
0
3DFACE
8
0
70
0
10
33.052601
20
-33.267075
30
-17.342642
11
-3.437139
21
-52.702148
31
-18.236143
12
-13.470479
22
-35.471817
32
-46.739891
13
24.221262
23
-18.887283
33
-30.747253
0
3DFACE
8
0
70
0
10
31.461142
20
-134.664734
30
-2.567105
11
27.673773
21
-127.827744
31
43.725594
12
33.987896
22
-108.736435
32
35.947453
13
29.423445
23
-97.221504
33
20.660828
0
3DFACE
8
0
70
0
10
29.423445
20
-97.221504
30
20.660828
11
33.987896
21
-108.736435
31
35.947453
12
66.977409
22
-112.334427
32
35.947453
13
59.215698
23
-90.510941
33
7.192688
0
3DFACE
8
0
70
0
10
72.694855
20
-112.620041
30
-9.219998
11
59.215698
21
-90.510941
31
7.192688
12
66.977409
22
-112.334427
32
35.947453
13
74.813721
23
-127.827744
33
43.725594
0
3DFACE
8
0
70
0
10
26.075199
20
-178.444977
30
-26.052523
11
16.610764
21
-150.617310
31
32.613968
12
27.673773
22
-127.827744
32
43.725594
13
31.461142
23
-134.664734
33
-2.567105
0
3DFACE
8
0
70
0
10
86.599380
20
-144.278168
30
-34.167767
11
72.694855
21
-112.620041
31
-9.219998
12
74.813721
22
-127.827744
32
43.725594
13
83.794151
23
-150.723206
33
36.317848
0
3DFACE
8
0
70
0
10
86.599380
20
-144.278168
30
-34.167767
11
83.794151
21
-150.723206
31
36.317848
12
16.610764
22
-150.617310
32
32.613968
13
26.075199
23
-178.444977
33
-26.052523
0
3DFACE
8
0
70
0
10
27.673773
20
-119.444244
30
102.617195
11
33.987896
21
-98.998032
31
87.801697
12
33.987896
22
-108.736435
32
35.947453
13
27.673773
23
-127.827744
33
43.725594
0
3DFACE
8
0
70
0
10
33.987896
20
-98.998032
30
87.801697
11
66.977409
21
-98.812729
31
87.801697
12
66.977409
22
-112.334427
32
35.947453
13
33.987896
23
-108.736435
33
35.947453
0
3DFACE
8
0
70
0
10
74.813721
20
-119.444244
30
102.617195
11
74.813721
21
-127.827744
31
43.725594
12
66.977409
22
-112.334427
32
35.947453
13
66.977409
23
-98.812729
33
87.801697
0
3DFACE
8
0
70
0
10
12.906889
20
-152.844193
30
102.617195
11
27.673773
21
-119.444244
31
102.617195
12
27.673773
22
-127.827744
32
43.725594
13
16.610764
23
-150.617310
33
32.613968
0
3DFACE
8
0
70
0
10
80.090286
20
-153.029510
30
102.617195
11
83.794151
21
-150.723206
31
36.317848
12
74.813721
22
-127.827744
32
43.725594
13
74.813721
23
-119.444244
33
102.617195
0
3DFACE
8
0
70
0
10
80.090286
20
-153.029510
30
102.617195
11
12.906889
21
-152.844193
31
102.617195
12
16.610764
22
-150.617310
32
32.613968
13
83.794151
23
-150.723206
33
36.317848
0
3DFACE
8
0
70
0
10
77.317657
20
169.647369
30
237.038300
11
98.157700
21
177.801239
31
230.218704
12
81.330101
22
191.411652
32
232.891373
13
63.271580
23
180.357239
33
229.152176
0
3DFACE
8
0
70
0
10
66.202904
20
139.002899
30
-28.611811
11
32.441662
21
169.088989
31
-44.103920
12
37.053932
22
176.209167
32
-8.304408
13
37.053932
23
176.209167
33
-8.304408
0
3DFACE
8
0
70
0
10
38.309536
20
166.483154
30
40.668968
11
37.053932
21
176.209167
31
-8.304408
12
6.350539
22
177.465088
32
43.901127
13
6.350539
23
177.465088
33
43.901127
0
3DFACE
8
0
70
0
10
112.967812
20
144.049652
30
64.454552
11
144.634781
21
129.936035
31
98.519569
12
119.430214
22
130.936523
32
124.485245
13
87.851074
23
147.525574
33
90.178551
0
3DFACE
8
0
70
0
10
138.133392
20
186.399963
30
84.365547
11
112.967812
21
144.049652
31
64.454552
12
87.851074
22
147.525574
32
90.178551
13
112.204758
23
191.428040
33
109.057068
0
3DFACE
8
0
70
0
10
138.710007
20
170.763550
30
138.752716
11
164.718414
21
167.695007
31
113.880310
12
138.133392
22
186.399963
32
84.365547
13
112.204758
23
191.428040
33
109.057068
0
3DFACE
8
0
70
0
10
144.634781
20
129.936035
30
98.519569
11
164.718414
21
167.695007
31
113.880310
12
138.710007
22
170.763550
32
138.752716
13
119.430214
23
130.936523
33
124.485245
0
3DFACE
8
0
70
0
10
121.481071
20
120.119995
30
128.015091
11
97.896797
21
120.190826
31
152.742233
12
56.579967
22
147.245087
32
105.855843
13
79.459549
23
144.034790
33
82.118103
0
3DFACE
8
0
70
0
10
79.459549
20
144.034790
30
82.118103
11
56.579967
21
147.245087
31
105.855843
12
87.940300
22
209.196655
32
128.306915
13
111.250275
23
204.117493
33
106.390915
0
3DFACE
8
0
70
0
10
122.634537
20
177.426086
30
168.942993
11
146.593353
21
174.708862
31
146.235992
12
111.250275
22
204.117493
32
106.390915
13
87.940300
23
209.196655
33
128.306915
0
3DFACE
8
0
70
0
10
121.481071
20
120.119995
30
128.015091
11
146.593353
21
174.708862
31
146.235992
12
122.634537
22
177.426086
32
168.942993
13
97.896797
23
120.190826
33
152.742233
0
3DFACE
8
0
70
0
10
121.481071
20
120.119995
30
128.015091
11
79.459549
21
144.034790
31
82.118103
12
87.851074
22
147.525574
32
90.178551
13
119.430214
23
130.936523
33
124.485245
0
3DFACE
8
0
70
0
10
97.896797
20
120.190826
30
152.742233
11
95.692413
21
131.878815
31
148.939896
12
64.820518
22
150.712769
32
113.765945
13
56.579967
23
147.245087
33
105.855843
0
3DFACE
8
0
70
0
10
79.459549
20
144.034790
30
82.118103
11
111.250275
21
204.117493
31
106.390915
12
112.204758
22
191.428040
32
109.057068
13
87.851074
23
147.525574
33
90.178551
0
3DFACE
8
0
70
0
10
56.579967
20
147.245087
30
105.855843
11
64.820518
21
150.712769
31
113.765945
12
88.998650
22
195.928101
32
131.156036
13
87.940300
23
209.196655
33
128.306915
0
3DFACE
8
0
70
0
10
122.634537
20
177.426086
30
168.942993
11
87.940300
21
209.196655
31
128.306915
12
88.998650
22
195.928101
32
131.156036
13
114.861862
23
173.577148
33
161.559235
0
3DFACE
8
0
70
0
10
146.593353
20
174.708862
30
146.235992
11
138.710007
21
170.763550
31
138.752716
12
112.204758
22
191.428040
32
109.057068
13
111.250275
23
204.117493
33
106.390915
0
3DFACE
8
0
70
0
10
97.896797
20
120.190826
30
152.742233
11
122.634537
21
177.426086
31
168.942993
12
114.861862
22
173.577148
32
161.559235
13
95.692413
23
131.878815
33
148.939896
0
3DFACE
8
0
70
0
10
121.481071
20
120.119995
30
128.015091
11
119.430214
21
130.936523
31
124.485245
12
138.710007
22
170.763550
32
138.752716
13
146.593353
23
174.708862
33
146.235992
0
3DFACE
8
0
70
0
10
110.167175
20
144.491028
30
143.857513
11
87.401047
21
164.453003
31
131.331177
12
64.820518
22
150.712769
32
113.765945
13
95.692413
23
131.878815
33
148.939896
0
3DFACE
8
0
70
0
10
87.401047
20
164.453003
30
131.331177
11
115.408821
21
185.052856
31
137.098007
12
88.998650
22
195.928101
32
131.156036
13
64.820518
23
150.712769
33
113.765945
0
3DFACE
8
0
70
0
10
133.335678
20
164.369995
30
147.889038
11
114.861862
21
173.577148
31
161.559235
12
88.998650
22
195.928101
32
131.156036
13
115.408821
23
185.052856
33
137.098007
0
3DFACE
8
0
70
0
10
110.167175
20
144.491028
30
143.857513
11
95.692413
21
131.878815
31
148.939896
12
114.861862
22
173.577148
32
161.559235
13
133.335678
23
164.369995
33
147.889038
0
3DFACE
8
0
70
0
10
47.714405
20
160.395813
30
170.369324
11
48.160515
21
171.132019
31
168.094299
12
52.595657
22
169.447144
32
156.034424
13
52.050240
23
158.708405
33
158.251480
0
3DFACE
8
0
70
0
10
48.160515
20
171.132019
30
168.094299
11
49.346813
21
182.255981
31
166.059509
12
53.658680
22
180.573730
32
153.974808
13
52.595657
23
169.447144
33
156.034424
0
3DFACE
8
0
70
0
10
134.396149
20
169.534576
30
183.080582
11
133.335678
21
164.369995
31
147.889038
12
115.408821
22
185.052856
32
137.098007
13
107.975235
23
190.225433
33
169.177795
0
3DFACE
8
0
70
0
10
101.635880
20
149.681335
30
175.648087
11
110.167175
21
144.491028
31
143.857513
12
133.335678
22
164.369995
32
147.889038
13
134.396149
23
169.534576
33
183.080582
0
3DFACE
8
0
70
0
10
77.317657
20
169.647369
30
237.038300
11
63.271580
21
180.357239
31
229.152176
12
70.329155
22
172.974304
32
175.331650
13
101.635880
23
149.681335
33
175.648087
0
3DFACE
8
0
70
0
10
63.271580
20
180.357239
30
229.152176
11
81.330101
21
191.411652
31
232.891373
12
107.975235
22
190.225433
32
169.177795
13
70.329155
23
172.974304
33
175.331650
0
3DFACE
8
0
70
0
10
98.157700
20
177.801239
30
230.218704
11
134.396149
21
169.534576
31
183.080582
12
107.975235
22
190.225433
32
169.177795
13
81.330101
23
191.411652
33
232.891373
0
3DFACE
8
0
70
0
10
77.317657
20
169.647369
30
237.038300
11
101.635880
21
149.681335
31
175.648087
12
134.396149
22
169.534576
32
183.080582
13
98.157700
23
177.801239
33
230.218704
0
3DFACE
8
0
70
0
10
47.714405
20
160.395813
30
170.369324
11
52.050240
21
158.708405
31
158.251480
12
110.167175
22
144.491028
32
143.857513
13
101.635880
23
149.681335
33
175.648087
0
3DFACE
8
0
70
0
10
52.050240
20
158.708405
30
158.251480
11
52.595657
21
169.447144
31
156.034424
12
87.401047
22
164.453003
32
131.331177
13
110.167175
23
144.491028
33
143.857513
0
3DFACE
8
0
70
0
10
47.714405
20
160.395813
30
170.369324
11
101.635880
21
149.681335
31
175.648087
12
70.329155
22
172.974304
32
175.331650
13
48.160515
23
171.132019
33
168.094299
0
3DFACE
8
0
70
0
10
52.595657
20
169.447144
30
156.034424
11
53.658680
21
180.573730
31
153.974808
12
115.408821
22
185.052856
32
137.098007
13
87.401047
23
164.453003
33
131.331177
0
3DFACE
8
0
70
0
10
49.346813
20
182.255981
30
166.059509
11
107.975235
21
190.225433
31
169.177795
12
115.408821
22
185.052856
32
137.098007
13
53.658680
23
180.573730
33
153.974808
0
3DFACE
8
0
70
0
10
48.160515
20
171.132019
30
168.094299
11
70.329155
21
172.974304
31
175.331650
12
107.975235
22
190.225433
32
169.177795
13
49.346813
23
182.255981
33
166.059509
0
3DFACE
8
0
70
0
10
-69.238991
20
31.492462
30
64.294838
11
-119.278687
21
23.353439
31
22.059765
12
-127.644043
22
-22.240387
32
-9.886907
13
-106.819191
23
-31.466530
33
26.183004
0
3DFACE
8
0
70
0
10
-80.952324
20
-22.789444
30
-84.496201
11
-15.106623
21
-33.680016
31
-86.205399
12
-43.029041
22
-27.910919
32
-66.258308
13
-86.180443
23
-19.929230
33
-69.973763
0
3DFACE
8
0
70
0
10
-76.133598
20
31.769806
30
83.423164
11
-142.992188
21
21.582520
31
29.512289
12
-119.278687
22
23.353439
32
22.059765
13
-69.238991
23
31.492462
33
64.294838
0
3DFACE
8
0
70
0
10
-94.488968
20
-36.812759
30
-105.337631
11
-8.714126
21
-49.399620
31
-104.018219
12
-15.106623
22
-33.680016
32
-86.205399
13
-80.952324
23
-22.789444
33
-84.496201
0
3DFACE
8
0
70
0
10
-79.870956
20
40.441544
30
93.834785
11
-77.827370
21
101.772614
31
88.473068
12
-160.735596
22
89.025604
32
25.025616
13
-150.130814
23
28.747345
33
34.839687
0
3DFACE
8
0
70
0
10
-95.322182
20
-37.239319
30
-117.540718
11
-105.926956
21
23.038956
31
-127.354790
12
-1.642279
22
10.067856
32
-123.340385
13
-3.686952
23
-51.279915
33
-117.973976
0
3DFACE
8
0
70
0
10
-77.827370
20
101.772614
30
88.473068
11
-73.912292
21
98.434479
31
77.595161
12
-152.726334
22
87.146652
32
19.486326
13
-160.735596
23
89.025604
33
25.025616
0
3DFACE
8
0
70
0
10
-79.870956
20
40.441544
30
93.834785
11
-150.130814
21
28.747345
31
34.839687
12
-142.992188
22
21.582520
32
29.512289
13
-76.133598
23
31.769806
33
83.423164
0
3DFACE
8
0
70
0
10
-105.926956
20
23.038956
30
-127.354790
11
-104.223122
21
28.751373
31
-115.363594
12
-6.471300
22
17.878220
32
-110.017586
13
-1.642279
23
10.067856
33
-123.340385
0
3DFACE
8
0
70
0
10
-95.322182
20
-37.239319
30
-117.540718
11
-3.686952
21
-51.279915
31
-117.973976
12
-8.714126
22
-49.399620
32
-104.018219
13
-94.488968
23
-36.812759
33
-105.337631
0
3DFACE
8
0
70
0
10
-67.563049
20
-119.444244
30
48.335136
11
-73.877174
21
-98.998032
31
33.519638
12
-106.866692
22
-98.812729
32
33.519638
13
-114.702995
23
-119.444244
33
48.335136
0
3DFACE
8
0
70
0
10
-119.278687
20
23.353439
30
22.059765
11
-114.391823
21
0.812088
31
-35.046860
12
-115.744080
22
-23.372650
32
-44.905422
13
-127.644043
23
-22.240387
33
-9.886907
0
3DFACE
8
0
70
0
10
-142.992188
20
21.582520
30
29.512289
11
-137.904419
21
-6.792526
31
-42.762012
12
-114.391823
22
0.812088
32
-35.046860
13
-119.278687
23
23.353439
33
22.059765
0
3DFACE
8
0
70
0
10
-160.735596
20
89.025604
30
25.025616
11
-157.113663
21
57.477814
31
-56.073074
12
-143.559006
22
-2.805786
32
-45.195671
13
-150.130814
23
28.747345
33
34.839687
0
3DFACE
8
0
70
0
10
-157.113663
20
57.477814
30
-56.073074
11
-160.735596
21
89.025604
31
25.025616
12
-152.726334
22
87.146652
32
19.486326
13
-150.414825
23
58.776627
33
-53.788719
0
3DFACE
8
0
70
0
10
-150.130814
20
28.747345
30
34.839687
11
-143.559006
21
-2.805786
31
-45.195671
12
-137.904419
22
-6.792526
32
-42.762012
13
-142.992188
23
21.582520
33
29.512289
0
3DFACE
8
0
70
0
10
-52.796165
20
-152.844193
30
48.335136
11
-67.563049
21
-119.444244
31
48.335136
12
-114.702995
22
-119.444244
32
48.335136
13
-119.979561
23
-153.029510
33
48.335136
0
3DFACE
8
0
70
0
10
-21.926037
20
199.739685
30
-16.909838
11
-12.144471
21
164.724915
31
-61.196857
12
-67.322571
22
169.213562
32
-68.942627
13
-78.003510
23
175.912598
33
-23.337431
0
3DFACE
8
0
70
0
10
-114.391823
20
0.812088
30
-35.046860
11
-80.952324
21
-22.789444
31
-84.496201
12
-86.180443
22
-19.929230
32
-69.973763
13
-115.744080
23
-23.372650
33
-44.905422
0
3DFACE
8
0
70
0
10
-137.904419
20
-6.792526
30
-42.762012
11
-94.488968
21
-36.812759
31
-105.337631
12
-80.952324
22
-22.789444
32
-84.496201
13
-114.391823
23
0.812088
33
-35.046860
0
3DFACE
8
0
70
0
10
-143.559006
20
-2.805786
30
-45.195671
11
-157.113663
21
57.477814
31
-56.073074
12
-105.926956
22
23.038956
32
-127.354790
13
-95.322182
23
-37.239319
33
-117.540718
0
3DFACE
8
0
70
0
10
-105.926956
20
23.038956
30
-127.354790
11
-157.113663
21
57.477814
31
-56.073074
12
-150.414825
22
58.776627
32
-53.788719
13
-104.223122
23
28.751373
33
-115.363594
0
3DFACE
8
0
70
0
10
-143.559006
20
-2.805786
30
-45.195671
11
-95.322182
21
-37.239319
31
-117.540718
12
-94.488968
22
-36.812759
32
-105.337631
13
-137.904419
23
-6.792526
33
-42.762012
0
3DFACE
8
0
70
0
10
-92.162392
20
-55.387650
30
-7.906476
11
-71.322815
21
-53.185135
31
-21.926649
12
-69.662224
22
-35.767387
32
-16.248169
13
-106.819191
23
-31.466530
33
26.183004
0
3DFACE
8
0
70
0
10
-92.162392
20
-55.387650
30
-7.906476
11
-106.819191
21
-31.466530
31
26.183004
12
-127.644043
22
-22.240387
32
-9.886907
13
-117.205109
23
-42.379982
33
-36.531708
0
3DFACE
8
0
70
0
10
-117.205109
20
-42.379982
30
-36.531708
11
-127.644043
21
-22.240387
31
-9.886907
12
-115.744080
22
-23.372650
32
-44.905422
13
-115.182190
23
-36.690598
33
-53.798210
0
3DFACE
8
0
70
0
10
-71.322815
20
-53.185135
30
-21.926649
11
-61.290119
21
-46.485703
31
-45.056801
12
-43.029041
22
-27.910919
32
-66.258308
13
-69.662224
23
-35.767387
33
-16.248169
0
3DFACE
8
0
70
0
10
-115.182190
20
-36.690598
30
-53.798210
11
-115.744080
21
-23.372650
31
-44.905422
12
-86.180443
22
-19.929230
32
-69.973763
13
-97.138130
23
-36.593719
33
-60.679417
0
3DFACE
8
0
70
0
10
-97.138130
20
-36.593719
30
-60.679417
11
-86.180443
21
-19.929230
31
-69.973763
12
-43.029041
22
-27.910919
32
-66.258308
13
-61.290119
23
-46.485703
33
-45.056801
0
3DFACE
8
0
70
0
10
-73.621056
20
-130.643753
30
-52.266197
11
-90.062988
21
-101.850311
31
-27.716877
12
-73.877174
22
-108.736435
32
-18.334606
13
-67.563049
23
-127.827744
33
-10.556466
0
3DFACE
8
0
70
0
10
-90.062988
20
-101.850311
30
-27.716877
11
-112.794426
21
-99.359398
31
-50.855721
12
-106.866692
22
-112.334427
32
-18.334608
13
-73.877174
23
-108.736435
33
-18.334606
0
3DFACE
8
0
70
0
10
-112.624695
20
-119.156166
30
-72.939125
11
-114.702995
21
-127.827744
31
-10.556466
12
-106.866692
22
-112.334427
32
-18.334608
13
-112.794426
23
-99.359398
33
-50.855721
0
3DFACE
8
0
70
0
10
-49.012146
20
-163.291580
30
-74.578323
11
-73.621056
21
-130.643753
31
-52.266197
12
-67.563049
22
-127.827744
32
-10.556466
13
-56.500042
23
-150.617310
33
-21.668093
0
3DFACE
8
0
70
0
10
-107.315956
20
-145.270737
30
-103.353195
11
-123.683434
21
-150.723206
31
-17.964212
12
-114.702995
22
-127.827744
32
-10.556466
13
-112.624695
23
-119.156166
33
-72.939125
0
3DFACE
8
0
70
0
10
-107.315956
20
-145.270737
30
-103.353195
11
-49.012146
21
-163.291580
31
-74.578323
12
-56.500042
22
-150.617310
32
-21.668093
13
-123.683434
23
-150.723206
33
-17.964212
0
3DFACE
8
0
70
0
10
-67.563049
20
-119.444244
30
48.335136
11
-67.563049
21
-127.827744
31
-10.556466
12
-73.877174
22
-108.736435
32
-18.334606
13
-73.877174
23
-98.998032
33
33.519638
0
3DFACE
8
0
70
0
10
-73.877174
20
-98.998032
30
33.519638
11
-73.877174
21
-108.736435
31
-18.334606
12
-106.866692
22
-112.334427
32
-18.334608
13
-106.866692
23
-98.812729
33
33.519638
0
3DFACE
8
0
70
0
10
-114.702995
20
-119.444244
30
48.335136
11
-106.866692
21
-98.812729
31
33.519638
12
-106.866692
22
-112.334427
32
-18.334608
13
-114.702995
23
-127.827744
33
-10.556466
0
3DFACE
8
0
70
0
10
-52.796165
20
-152.844193
30
48.335136
11
-56.500042
21
-150.617310
31
-21.668093
12
-67.563049
22
-127.827744
32
-10.556466
13
-67.563049
23
-119.444244
33
48.335136
0
3DFACE
8
0
70
0
10
-119.979561
20
-153.029510
30
48.335136
11
-114.702995
21
-119.444244
31
48.335136
12
-114.702995
22
-127.827744
32
-10.556466
13
-123.683434
23
-150.723206
33
-17.964212
0
3DFACE
8
0
70
0
10
-119.979561
20
-153.029510
30
48.335136
11
-123.683434
21
-150.723206
31
-17.964212
12
-56.500042
22
-150.617310
32
-21.668093
13
-52.796165
23
-152.844193
33
48.335136
0
3DFACE
8
0
70
0
10
-371.339996
20
162.199158
30
29.124226
11
-363.697906
21
175.449524
31
40.965271
12
-370.358337
22
183.608459
32
22.220604
13
-367.438263
23
168.368927
33
6.897882
0
3DFACE
8
0
70
0
10
-85.249657
20
142.952698
30
-56.601727
11
-78.003510
21
175.912598
31
-23.337431
12
-67.322571
22
169.213562
32
-68.942627
13
-67.322571
23
169.213562
33
-68.942627
0
3DFACE
8
0
70
0
10
-117.619865
20
165.186035
30
3.278241
11
-92.338669
21
177.599670
31
17.066456
12
-78.003510
22
175.912598
32
-23.337431
13
-78.003510
23
175.912598
33
-23.337431
0
3DFACE
8
0
70
0
10
-201.334686
20
146.235962
30
-3.633657
11
-234.299820
21
146.589355
31
11.125527
12
-254.308380
22
130.079468
32
-31.022673
13
-221.277283
23
132.211975
33
-45.681686
0
3DFACE
8
0
70
0
10
-214.599792
20
188.874329
30
-32.431435
11
-246.996201
21
190.782318
31
-16.491604
12
-234.299820
22
146.589355
32
11.125527
13
-201.334686
23
146.235962
33
-3.633657
0
3DFACE
8
0
70
0
10
-264.115051
20
170.157043
30
-52.448849
11
-246.996201
21
190.782318
31
-16.491604
12
-214.599792
22
188.874329
32
-32.431435
13
-231.672638
23
170.216858
33
-68.322624
0
3DFACE
8
0
70
0
10
-221.277283
20
132.211975
30
-45.681686
11
-254.308380
21
130.079468
31
-31.022673
12
-264.115051
22
170.157043
32
-52.448849
13
-231.672638
23
170.216858
33
-68.322624
0
3DFACE
8
0
70
0
10
-256.077454
20
119.228668
30
-34.599468
11
-229.363846
21
143.045532
31
21.644646
12
-259.681641
22
143.393372
32
34.985241
13
-287.321777
23
116.346008
33
-21.066605
0
3DFACE
8
0
70
0
10
-229.363846
20
143.045532
30
21.644646
11
-245.803665
21
203.518738
31
-14.167006
12
-274.707397
22
205.807281
32
0.282952
13
-259.681641
23
143.393372
33
34.985241
0
3DFACE
8
0
70
0
10
-298.405060
20
174.002625
30
-47.583885
11
-274.707397
21
205.807281
31
0.282952
12
-245.803665
22
203.518738
32
-14.167006
13
-268.719940
23
174.154877
33
-62.273537
0
3DFACE
8
0
70
0
10
-256.077454
20
119.228668
30
-34.599468
11
-287.321777
21
116.346008
31
-21.066605
12
-298.405060
22
174.002625
32
-47.583885
13
-268.719940
23
174.154877
33
-62.273537
0
3DFACE
8
0
70
0
10
-256.077454
20
119.228668
30
-34.599468
11
-254.308380
21
130.079468
31
-31.022673
12
-234.299820
22
146.589355
32
11.125527
13
-229.363846
23
143.045532
33
21.644646
0
3DFACE
8
0
70
0
10
-287.321777
20
116.346008
30
-21.066605
11
-259.681641
21
143.393372
31
34.985241
12
-264.526886
22
146.913300
32
24.658806
13
-285.417267
23
128.071075
33
-17.216734
0
3DFACE
8
0
70
0
10
-229.363846
20
143.045532
30
21.644646
11
-234.299820
21
146.589355
31
11.125527
12
-246.996201
22
190.782318
32
-16.491604
13
-245.803665
23
203.518738
33
-14.167006
0
3DFACE
8
0
70
0
10
-259.681641
20
143.393372
30
34.985241
11
-274.707397
21
205.807281
31
0.282952
12
-275.991058
22
192.489929
32
-2.225492
13
-264.526886
23
146.913300
33
24.658806
0
3DFACE
8
0
70
0
10
-298.405060
20
174.002625
30
-47.583885
11
-293.862793
21
170.102112
31
-37.893559
12
-275.991058
22
192.489929
32
-2.225492
13
-274.707397
23
205.807281
33
0.282952
0
3DFACE
8
0
70
0
10
-268.719940
20
174.154877
30
-62.273537
11
-245.803665
21
203.518738
31
-14.167006
12
-246.996201
22
190.782318
32
-16.491604
13
-264.115051
23
170.157043
33
-52.448849
0
3DFACE
8
0
70
0
10
-287.321777
20
116.346008
30
-21.066605
11
-285.417267
21
128.071075
31
-17.216734
12
-293.862793
22
170.102112
32
-37.893559
13
-298.405060
23
174.002625
33
-47.583885
0
3DFACE
8
0
70
0
10
-256.077454
20
119.228668
30
-34.599468
11
-268.719940
21
174.154877
31
-62.273537
12
-264.115051
22
170.157043
32
-52.448849
13
-254.308380
23
130.079468
33
-31.022673
0
3DFACE
8
0
70
0
10
-277.472137
20
142.778137
30
-13.421047
11
-285.417267
21
128.071075
31
-17.216734
12
-264.526886
22
146.913300
32
24.658806
13
-264.926147
23
162.475555
33
8.344550
0
3DFACE
8
0
70
0
10
-264.926147
20
162.475555
30
8.344550
11
-264.526886
21
146.913300
31
24.658806
12
-275.991058
22
192.489929
32
-2.225492
13
-274.646088
23
182.825348
33
-17.508030
0
3DFACE
8
0
70
0
10
-285.021820
20
162.425415
30
-34.760384
11
-274.646088
21
182.825348
31
-17.508030
12
-275.991058
22
192.489929
32
-2.225492
13
-293.862793
23
170.102112
33
-37.893559
0
3DFACE
8
0
70
0
10
-277.472137
20
142.778137
30
-13.421047
11
-285.021820
21
162.425415
31
-34.760384
12
-293.862793
22
170.102112
32
-37.893559
13
-285.417267
23
128.071075
33
-17.216734
0
3DFACE
8
0
70
0
10
-301.730988
20
164.569092
30
52.696728
11
-289.916870
21
163.757629
31
47.380970
12
-289.139771
22
174.523499
32
45.374641
13
-300.887695
23
175.351807
33
50.782944
0
3DFACE
8
0
70
0
10
-300.887695
20
175.351807
30
50.782944
11
-289.139771
21
174.523499
31
45.374641
12
-288.612305
22
185.587402
32
42.827919
13
-300.395081
23
186.394501
33
48.117233
0
3DFACE
8
0
70
0
10
-322.937469
20
161.070099
30
-32.724937
11
-309.551971
21
186.423767
31
-10.420603
12
-274.646088
22
182.825348
32
-17.508030
13
-285.021820
23
162.425415
33
-34.760384
0
3DFACE
8
0
70
0
10
-310.238770
20
146.541809
30
1.191135
11
-322.937469
21
161.070099
31
-32.724937
12
-285.021820
22
162.425415
32
-34.760384
13
-277.472137
23
142.778137
33
-13.421047
0
3DFACE
8
0
70
0
10
-371.339996
20
162.199158
30
29.124226
11
-310.238770
21
146.541809
31
1.191135
12
-310.187286
22
173.507996
32
29.397434
13
-363.697906
23
175.449524
33
40.965271
0
3DFACE
8
0
70
0
10
-363.697906
20
175.449524
30
40.965271
11
-310.187286
21
173.507996
31
29.397434
12
-309.551971
22
186.423767
32
-10.420603
13
-370.358337
23
183.608459
33
22.220604
0
3DFACE
8
0
70
0
10
-367.438263
20
168.368927
30
6.897882
11
-370.358337
21
183.608459
31
22.220604
12
-309.551971
22
186.423767
32
-10.420603
13
-322.937469
23
161.070099
33
-32.724937
0
3DFACE
8
0
70
0
10
-371.339996
20
162.199158
30
29.124226
11
-367.438263
21
168.368927
31
6.897882
12
-322.937469
22
161.070099
32
-32.724937
13
-310.238770
23
146.541809
33
1.191135
0
3DFACE
8
0
70
0
10
-301.730988
20
164.569092
30
52.696728
11
-310.238770
21
146.541809
31
1.191135
12
-277.472137
22
142.778137
32
-13.421047
13
-289.916870
23
163.757629
33
47.380970
0
3DFACE
8
0
70
0
10
-289.916870
20
163.757629
30
47.380970
11
-277.472137
21
142.778137
31
-13.421047
12
-264.926147
22
162.475555
32
8.344550
13
-289.139771
23
174.523499
33
45.374641
0
3DFACE
8
0
70
0
10
-301.730988
20
164.569092
30
52.696728
11
-300.887695
21
175.351807
31
50.782944
12
-310.187286
22
173.507996
32
29.397434
13
-310.238770
23
146.541809
33
1.191135
0
3DFACE
8
0
70
0
10
-289.139771
20
174.523499
30
45.374641
11
-264.926147
21
162.475555
31
8.344550
12
-274.646088
22
182.825348
32
-17.508030
13
-288.612305
23
185.587402
33
42.827919
0
3DFACE
8
0
70
0
10
-300.395081
20
186.394501
30
48.117233
11
-288.612305
21
185.587402
31
42.827919
12
-274.646088
22
182.825348
32
-17.508030
13
-309.551971
23
186.423767
33
-10.420603
0
3DFACE
8
0
70
0
10
-300.887695
20
175.351807
30
50.782944
11
-300.395081
21
186.394501
31
48.117233
12
-309.551971
22
186.423767
32
-10.420603
13
-310.187286
23
173.507996
33
29.397434
0
3DFACE
8
0
70
0
10
-9.855652
20
-41.075302
30
9.264586
11
4.326393
21
-32.172859
31
63.273766
12
-69.238991
22
31.492462
32
64.294838
13
-42.704472
23
-0.453690
33
-9.477129
0
3DFACE
8
0
70
0
10
-9.855652
20
-41.075302
30
9.264586
11
-42.704472
21
-0.453690
31
-9.477129
12
-15.106623
22
-33.680016
32
-86.205399
13
-13.470479
23
-35.471817
33
-46.739891
0
3DFACE
8
0
70
0
10
-15.106623
20
-33.680016
30
-86.205399
11
-42.704472
21
-0.453690
31
-9.477129
12
-69.662224
22
-35.767387
32
-16.248169
13
-43.029041
23
-27.910919
33
-66.258308
0
3DFACE
8
0
70
0
10
-42.704472
20
-0.453690
30
-9.477129
11
-69.238991
21
31.492462
31
64.294838
12
-106.819191
22
-31.466530
32
26.183004
13
-69.662224
23
-35.767387
33
-16.248169
0
3DFACE
8
0
70
0
10
-47.333157
20
231.402893
30
74.848473
11
-36.776840
21
228.218567
31
70.991264
12
-23.424036
22
243.354858
32
73.749405
13
-43.066353
23
249.763977
33
77.403191
0
3DFACE
8
0
70
0
10
-43.066353
20
249.763977
30
77.403191
11
-23.424036
21
243.354858
31
73.749405
12
-28.000738
22
252.729279
32
70.032089
13
-39.680950
23
259.763031
33
71.154053
0
3DFACE
8
0
70
0
10
-36.776840
20
228.218567
30
70.991264
11
-35.676174
21
222.097961
31
59.057533
12
-19.721540
22
236.494202
32
57.423473
13
-23.424036
23
243.354858
33
73.749405
0
3DFACE
8
0
70
0
10
-47.333157
20
231.402893
30
74.848473
11
-48.032467
21
223.634277
31
63.851017
12
-35.676174
22
222.097961
32
59.057533
13
-36.776840
23
228.218567
33
70.991264
0
3DFACE
8
0
70
0
10
-39.680950
20
259.763031
30
71.154053
11
-28.000738
21
252.729279
31
70.032089
12
-24.588034
22
249.511414
32
54.193630
13
-38.401485
23
257.942413
33
56.691498
0
3DFACE
8
0
70
0
10
-23.424036
20
243.354858
30
73.749405
11
-19.721540
21
236.494202
31
57.423473
12
-24.588034
22
249.511414
32
54.193630
13
-28.000738
23
252.729279
33
70.032089
0
3DFACE
8
0
70
0
10
-31.710943
20
264.856842
30
51.676868
11
-34.248077
21
256.313293
31
54.458450
12
-23.691689
22
250.278259
32
51.156124
13
-17.586771
23
268.367737
33
49.973652
0
3DFACE
8
0
70
0
10
-23.691689
20
250.278259
30
51.156124
11
-13.619973
21
247.474121
31
46.074413
12
-6.952711
22
255.813019
32
41.047539
13
-17.586771
23
268.367737
33
49.973652
0
3DFACE
8
0
70
0
10
-40.409187
20
209.284973
30
81.460754
11
-38.474052
21
225.365417
31
66.643517
12
-47.847385
22
226.875671
32
68.390366
13
-53.155117
23
212.428589
33
80.415298
0
3DFACE
8
0
70
0
10
4.540988
20
205.527985
30
38.631901
11
5.813376
21
215.970093
31
36.220345
12
-20.289572
22
219.637177
32
54.738281
13
-19.778231
23
198.215393
33
66.127464
0
3DFACE
8
0
70
0
10
-38.474052
20
225.365417
30
66.643517
11
-40.409187
21
209.284973
31
81.460754
12
-21.418991
22
204.942261
32
74.983482
13
-24.099161
23
221.982758
33
68.466736
0
3DFACE
8
0
70
0
10
10.538703
20
246.197632
30
30.177757
11
23.100180
21
245.557922
31
30.830029
12
-1.584910
22
260.440369
32
45.298885
13
-2.571463
23
257.067810
33
44.070679
0
3DFACE
8
0
70
0
10
-35.158203
20
270.532593
30
56.158371
11
-35.401325
21
268.142426
31
53.578499
12
-17.850237
22
270.758636
32
52.358654
13
-15.874981
23
272.747833
33
53.637077
0
3DFACE
8
0
70
0
10
-15.874981
20
272.747833
30
53.637077
11
-17.850237
21
270.758636
31
52.358654
12
-2.571463
22
257.067810
32
44.070679
13
-1.584910
23
260.440369
33
45.298885
0
3DFACE
8
0
70
0
10
-59.838634
20
187.405853
30
83.184349
11
-40.458736
21
189.503601
31
77.696259
12
-41.026485
22
198.279419
32
73.559448
13
-55.849998
23
200.170197
33
77.603294
0
3DFACE
8
0
70
0
10
-69.254745
20
142.940186
30
70.399384
11
-45.954720
21
148.795105
31
67.647942
12
-40.458736
22
189.503601
32
77.696259
13
-59.838634
23
187.405853
33
83.184349
0
3DFACE
8
0
70
0
10
4.540988
20
205.527985
30
38.631901
11
-19.778231
21
198.215393
31
66.127464
12
-20.539482
22
193.428314
32
57.756798
13
4.999975
23
194.922058
33
44.336132
0
3DFACE
8
0
70
0
10
-20.539482
20
193.428314
30
57.756798
11
-13.766271
21
160.052490
31
34.761337
12
4.990507
22
181.433167
32
14.898930
13
4.999975
23
194.922058
33
44.336132
0
3DFACE
8
0
70
0
10
-45.954720
20
148.795105
30
67.647942
11
-13.766271
21
160.052490
31
34.761337
12
-20.539482
22
193.428314
32
57.756798
13
-40.458736
23
189.503601
33
77.696259
0
3DFACE
8
0
70
0
10
-40.458736
20
189.503601
30
77.696259
11
-20.539482
21
193.428314
31
57.756798
12
-19.778231
22
198.215393
32
66.127464
13
-41.026485
23
198.279419
33
73.559448
0
3DFACE
8
0
70
0
10
-53.155117
20
212.428589
30
80.415298
11
-55.849998
21
200.170197
31
77.603294
12
-41.026485
22
198.279419
32
73.559448
13
-40.409187
23
209.284973
33
81.460754
0
3DFACE
8
0
70
0
10
-47.847385
20
226.875671
30
68.390366
11
-38.474052
21
225.365417
31
66.643517
12
-35.676174
22
222.097961
32
59.057533
13
-48.032467
23
223.634277
33
63.851017
0
3DFACE
8
0
70
0
10
-24.099161
20
221.982758
30
68.466736
11
-20.289572
21
219.637177
31
54.738281
12
-35.676174
22
222.097961
32
59.057533
13
-38.474052
23
225.365417
33
66.643517
0
POINT
8
0
70
0
10
0.381270
20
194.486694
30
59.864803
0
3DFACE
8
0
70
0
10
-40.409187
20
209.284973
30
81.460754
11
-41.026485
21
198.279419
31
73.559448
12
-19.778231
22
198.215393
32
66.127464
13
-21.418991
23
204.942261
33
74.983482
0
3DFACE
8
0
70
0
10
-21.418991
20
204.942261
30
74.983482
11
0.381270
21
194.486694
31
59.864803
12
-24.099161
22
221.982758
32
68.466736
13
-24.099161
23
221.982758
33
68.466736
0
3DFACE
8
0
70
0
10
-24.099161
20
221.982758
30
68.466736
11
0.381270
21
194.486694
31
59.864803
12
-20.289572
22
219.637177
32
54.738281
13
-20.289572
23
219.637177
33
54.738281
0
3DFACE
8
0
70
0
10
0.381270
20
194.486694
30
59.864803
11
-19.778231
21
198.215393
31
66.127464
12
-20.289572
22
219.637177
32
54.738281
13
-20.289572
23
219.637177
33
54.738281
0
3DFACE
8
0
70
0
10
-19.778231
20
198.215393
30
66.127464
11
0.381270
21
194.486694
31
59.864803
12
-21.418991
22
204.942261
32
74.983482
13
-21.418991
23
204.942261
33
74.983482
0
3DFACE
8
0
70
0
10
23.100180
20
245.557922
30
30.830029
11
10.538703
21
246.197632
31
30.177757
12
25.971327
22
232.450317
32
-3.962807
13
29.807798
23
233.226440
33
-5.111261
0
3DFACE
8
0
70
0
10
10.538703
20
246.197632
30
30.177757
11
6.234177
21
238.354736
31
31.994978
12
25.424650
22
225.504730
32
-1.208104
13
25.971327
23
232.450317
33
-3.962807
0
3DFACE
8
0
70
0
10
6.234177
20
238.354736
30
31.994978
11
5.242313
21
225.633240
31
34.595341
12
21.864214
22
213.800507
32
3.377051
13
25.424650
23
225.504730
33
-1.208104
0
3DFACE
8
0
70
0
10
29.807798
20
233.226440
30
-5.111261
11
25.971327
21
232.450317
31
-3.962807
12
11.312904
22
229.070862
32
-31.855095
13
14.199634
23
229.238098
33
-32.724567
0
3DFACE
8
0
70
0
10
25.424650
20
225.504730
30
-1.208104
11
13.254600
21
226.266296
31
-33.382069
12
11.312904
22
229.070862
32
-31.855095
13
25.971327
23
232.450317
33
-3.962807
0
3DFACE
8
0
70
0
10
21.864214
20
213.800507
30
3.377051
11
7.687590
21
215.816040
31
-33.053986
12
13.254600
22
226.266296
32
-33.382069
13
25.424650
23
225.504730
33
-1.208104
0
3DFACE
8
0
70
0
10
14.199634
20
229.238098
30
-32.724567
11
11.312904
21
229.070862
31
-31.855095
12
-28.533440
22
235.750824
32
-54.511631
13
-28.043451
23
235.649139
33
-58.221588
0
3DFACE
8
0
70
0
10
13.254600
20
226.266296
30
-33.382069
11
-29.049799
21
233.837006
31
-54.262543
12
-28.533440
22
235.750824
32
-54.511631
13
11.312904
23
229.070862
33
-31.855095
0
3DFACE
8
0
70
0
10
7.687590
20
215.816040
30
-33.053986
11
-32.748791
21
221.350220
31
-50.262943
12
-29.049799
22
233.837006
32
-54.262543
13
13.254600
23
226.266296
33
-33.382069
0
3DFACE
8
0
70
0
10
4.990507
20
181.433167
30
14.898930
11
15.767685
21
194.312561
31
8.640475
12
4.540988
22
205.527985
32
38.631901
13
4.999975
23
194.922058
33
44.336132
0
3DFACE
8
0
70
0
10
5.242313
20
225.633240
30
34.595341
11
5.813376
21
215.970093
31
36.220345
12
21.864214
22
213.800507
32
3.377051
13
21.864214
23
213.800507
33
3.377051
0
3DFACE
8
0
70
0
10
4.540988
20
205.527985
30
38.631901
11
15.767685
21
194.312561
31
8.640475
12
21.864214
22
213.800507
32
3.377051
13
5.813376
23
215.970093
33
36.220345
0
3DFACE
8
0
70
0
10
15.767685
20
194.312561
30
8.640475
11
2.038363
21
200.047607
31
-26.972937
12
7.687590
22
215.816040
32
-33.053986
13
21.864214
23
213.800507
33
3.377051
0
3DFACE
8
0
70
0
10
2.038363
20
200.047607
30
-26.972937
11
-37.588863
21
206.301147
31
-42.693584
12
-32.748791
22
221.350220
32
-50.262943
13
7.687590
23
215.816040
33
-33.053986
0
3DFACE
8
0
70
0
10
-35.158203
20
270.532593
30
56.158371
11
-15.874981
21
272.747833
31
53.637077
12
-8.012975
22
292.403137
32
47.468029
13
-27.706100
23
297.298492
33
51.016220
0
3DFACE
8
0
70
0
10
-27.706100
20
297.298492
30
51.016220
11
-8.012975
21
292.403137
31
47.468029
12
-6.562075
22
293.747345
32
42.408157
13
-26.499598
23
299.932861
33
47.106159
0
3DFACE
8
0
70
0
10
-15.874981
20
272.747833
30
53.637077
11
-1.584910
21
260.440369
31
45.298885
12
18.606295
22
282.154816
32
38.132084
13
-8.012975
23
292.403137
33
47.468029
0
3DFACE
8
0
70
0
10
-8.012975
20
292.403137
30
47.468029
11
18.606295
21
282.154816
31
38.132084
12
18.545462
22
284.334930
32
33.103146
13
-6.562075
23
293.747345
33
42.408157
0
3DFACE
8
0
70
0
10
-1.584910
20
260.440369
30
45.298885
11
23.100180
21
245.557922
31
30.830029
12
35.425442
22
266.388184
32
10.542461
13
18.606295
23
282.154816
33
38.132084
0
3DFACE
8
0
70
0
10
18.606295
20
282.154816
30
38.132084
11
35.425442
21
266.388184
31
10.542461
12
28.512367
22
272.032379
32
7.616621
13
18.545462
23
284.334930
33
33.103146
0
3DFACE
8
0
70
0
10
23.100180
20
245.557922
30
30.830029
11
29.807798
21
233.226440
31
-5.111261
12
42.000885
22
259.818054
32
-14.373847
13
35.425442
23
266.388184
33
10.542461
0
3DFACE
8
0
70
0
10
35.425442
20
266.388184
30
10.542461
11
42.000885
21
259.818054
31
-14.373847
12
36.165062
22
264.204193
32
-14.110762
13
28.512367
23
272.032379
33
7.616621
0
3DFACE
8
0
70
0
10
29.807798
20
233.226440
30
-5.111261
11
14.199634
21
229.238098
31
-32.724567
12
22.363049
22
254.414215
32
-39.079292
13
42.000885
23
259.818054
33
-14.373847
0
3DFACE
8
0
70
0
10
42.000885
20
259.818054
30
-14.373847
11
22.363049
21
254.414215
31
-39.079292
12
17.741020
22
260.421722
32
-36.839943
13
36.165062
23
264.204193
33
-14.110762
0
3DFACE
8
0
70
0
10
14.199634
20
229.238098
30
-32.724567
11
-28.043451
21
235.649139
31
-58.221588
12
-21.268097
22
259.056885
32
-64.576683
13
22.363049
23
254.414215
33
-39.079292
0
3DFACE
8
0
70
0
10
22.363049
20
254.414215
30
-39.079292
11
-21.268097
21
259.056885
31
-64.576683
12
-20.706306
22
263.394714
32
-60.762100
13
17.741020
23
260.421722
33
-36.839943
0
3DFACE
8
0
70
0
10
4.990507
20
181.433167
30
14.898930
11
2.090691
21
190.936401
31
8.443236
12
2.038363
22
200.047607
32
-26.972937
13
15.767685
23
194.312561
33
8.640475
0
3DFACE
8
0
70
0
10
2.090691
20
190.936401
30
8.443236
11
-23.493122
21
191.133606
31
-14.232535
12
-37.588863
22
206.301147
32
-42.693584
13
2.038363
23
200.047607
33
-26.972937
0
3DFACE
8
0
70
0
10
-13.766271
20
160.052490
30
34.761337
11
-25.817404
21
188.314697
31
28.518288
12
2.090691
22
190.936401
32
8.443236
13
4.990507
23
181.433167
33
14.898930
0
3DFACE
8
0
70
0
10
-45.954720
20
148.795105
30
67.647942
11
-46.832645
21
146.529968
31
51.529797
12
-25.817404
22
188.314697
32
28.518288
13
-13.766271
23
160.052490
33
34.761337
0
3DFACE
8
0
70
0
10
-46.832645
20
146.529968
30
51.529797
11
-64.357246
21
148.470642
31
45.175755
12
-56.907257
22
164.052002
32
19.790255
13
-25.817404
23
188.314697
33
28.518288
0
3DFACE
8
0
70
0
10
-69.254745
20
142.940186
30
70.399384
11
-64.357246
21
148.470642
31
45.175755
12
-46.832645
22
146.529968
32
51.529797
13
-46.832645
23
146.529968
33
51.529797
0
3DFACE
8
0
70
0
10
-69.254745
20
142.940186
30
70.399384
11
-46.832645
21
146.529968
31
51.529797
12
-45.954720
22
148.795105
32
67.647942
13
-45.954720
23
148.795105
33
67.647942
0
3DFACE
8
0
70
0
10
-47.333157
20
231.402893
30
74.848473
11
-43.066353
21
249.763977
31
77.403191
12
-61.751011
22
253.002502
32
68.423042
13
-56.767746
23
233.250641
33
68.213097
0
3DFACE
8
0
70
0
10
-43.066353
20
249.763977
30
77.403191
11
-39.680950
21
259.763031
31
71.154053
12
-52.559933
22
258.911285
32
66.619057
13
-61.751011
23
253.002502
33
68.423042
0
3DFACE
8
0
70
0
10
-56.767746
20
233.250641
30
68.213097
11
-61.751011
21
253.002502
31
68.423042
12
-64.389755
22
247.738037
32
51.215855
13
-57.985443
23
227.713623
33
55.957176
0
3DFACE
8
0
70
0
10
-47.333157
20
231.402893
30
74.848473
11
-56.767746
21
233.250641
31
68.213097
12
-57.985443
22
227.713623
32
55.957176
13
-48.032467
23
223.634277
33
63.851017
0
3DFACE
8
0
70
0
10
-39.680950
20
259.763031
30
71.154053
11
-38.401485
21
257.942413
31
56.691498
12
-53.384392
22
256.760010
32
50.191750
13
-52.559933
23
258.911285
33
66.619057
0
3DFACE
8
0
70
0
10
-61.751011
20
253.002502
30
68.423042
11
-52.559933
21
258.911285
31
66.619057
12
-53.384392
22
256.760010
32
50.191750
13
-64.389755
23
247.738037
33
51.215855
0
3DFACE
8
0
70
0
10
-39.142952
20
266.573853
30
50.490734
11
-48.667984
21
276.918304
31
45.701187
12
-52.673145
22
258.304016
32
47.621178
13
-41.564007
23
258.344299
33
53.005768
0
3DFACE
8
0
70
0
10
-52.673145
20
258.304016
30
47.621178
11
-48.667984
21
276.918304
31
45.701187
12
-61.639492
22
269.959625
32
35.967514
13
-60.859241
23
260.273071
33
41.205456
0
3DFACE
8
0
70
0
10
-65.684593
20
215.647278
30
77.948189
11
-53.155117
21
212.428589
31
80.415298
12
-47.847385
22
226.875671
32
68.390366
13
-56.042984
23
229.787842
33
64.201927
0
3DFACE
8
0
70
0
10
-94.521751
20
230.463959
30
24.864983
11
-84.375626
21
214.475800
31
57.150253
12
-71.057549
22
232.416443
32
47.682968
13
-90.125206
23
240.119629
33
22.887594
0
3DFACE
8
0
70
0
10
-56.042984
20
229.787842
30
64.201927
11
-70.263458
21
233.603210
31
62.051201
12
-82.131004
22
220.224609
32
66.546234
13
-65.684593
23
215.647278
33
77.948189
0
3DFACE
8
0
70
0
10
-78.521965
20
268.615906
30
17.800842
11
-65.077736
21
272.801819
31
35.384071
12
-64.660690
22
276.317749
32
36.533127
13
-89.629898
23
273.934235
33
15.163735
0
3DFACE
8
0
70
0
10
-35.158203
20
270.532593
30
56.158371
11
-49.218002
21
281.938599
31
48.825272
12
-48.141193
22
279.181152
32
47.970997
13
-35.401325
23
268.142426
33
53.578499
0
3DFACE
8
0
70
0
10
-49.218002
20
281.938599
30
48.825272
11
-64.660690
21
276.317749
31
36.533127
12
-65.077736
22
272.801819
32
35.384071
13
-48.141193
23
279.181152
33
47.970997
0
3DFACE
8
0
70
0
10
-59.838634
20
187.405853
30
83.184349
11
-55.849998
21
200.170197
31
77.603294
12
-68.250664
22
205.132263
32
69.776054
13
-73.874420
23
197.914948
33
73.052422
0
3DFACE
8
0
70
0
10
-69.254745
20
142.940186
30
70.399384
11
-59.838634
21
187.405853
31
83.184349
12
-73.874420
22
197.914948
32
73.052422
13
-85.567421
23
158.766388
33
62.142899
0
3DFACE
8
0
70
0
10
-94.521751
20
230.463959
30
24.864983
11
-101.306709
21
221.681488
31
29.562508
12
-83.807693
22
209.354126
32
48.964306
13
-84.375626
23
214.475800
33
57.150253
0
3DFACE
8
0
70
0
10
-83.807693
20
209.354126
30
48.964306
11
-101.306709
21
221.681488
31
29.562508
12
-100.013878
22
207.864746
32
0.306290
13
-99.162659
23
181.548401
33
22.893654
0
3DFACE
8
0
70
0
10
-85.567421
20
158.766388
30
62.142899
11
-73.874420
21
197.914948
31
73.052422
12
-83.807693
22
209.354126
32
48.964306
13
-99.162659
23
181.548401
33
22.893654
0
3DFACE
8
0
70
0
10
-73.874420
20
197.914948
30
73.052422
11
-68.250664
21
205.132263
31
69.776054
12
-84.375626
22
214.475800
32
57.150253
13
-83.807693
23
209.354126
33
48.964306
0
3DFACE
8
0
70
0
10
-53.155117
20
212.428589
30
80.415298
11
-65.684593
21
215.647278
31
77.948189
12
-68.250664
22
205.132263
32
69.776054
13
-55.849998
23
200.170197
33
77.603294
0
3DFACE
8
0
70
0
10
-47.847385
20
226.875671
30
68.390366
11
-48.032467
21
223.634277
31
63.851017
12
-57.985443
22
227.713623
32
55.957176
13
-56.042984
23
229.787842
33
64.201927
0
3DFACE
8
0
70
0
10
-70.263458
20
233.603210
30
62.051201
11
-56.042984
21
229.787842
31
64.201927
12
-57.985443
22
227.713623
32
55.957176
13
-71.057549
23
232.416443
33
47.682968
0
POINT
8
0
70
0
10
-100.796875
20
219.955139
30
45.803898
0
3DFACE
8
0
70
0
10
-65.684593
20
215.647278
30
77.948189
11
-82.131004
21
220.224609
31
66.546234
12
-84.375626
22
214.475800
32
57.150253
13
-68.250664
23
205.132263
33
69.776054
0
3DFACE
8
0
70
0
10
-82.131004
20
220.224609
30
66.546234
11
-70.263458
21
233.603210
31
62.051201
12
-100.796875
22
219.955139
32
45.803898
13
-100.796875
23
219.955139
33
45.803898
0
3DFACE
8
0
70
0
10
-70.263458
20
233.603210
30
62.051201
11
-71.057549
21
232.416443
31
47.682968
12
-100.796875
22
219.955139
32
45.803898
13
-100.796875
23
219.955139
33
45.803898
0
3DFACE
8
0
70
0
10
-100.796875
20
219.955139
30
45.803898
11
-71.057549
21
232.416443
31
47.682968
12
-84.375626
22
214.475800
32
57.150253
13
-84.375626
23
214.475800
33
57.150253
0
3DFACE
8
0
70
0
10
-84.375626
20
214.475800
30
57.150253
11
-82.131004
21
220.224609
31
66.546234
12
-100.796875
22
219.955139
32
45.803898
13
-100.796875
23
219.955139
33
45.803898
0
3DFACE
8
0
70
0
10
-89.629898
20
273.934235
30
15.163735
11
-91.820366
21
263.842560
31
-22.014137
12
-89.225540
22
261.447540
32
-19.971914
13
-78.521965
23
268.615906
33
17.800842
0
3DFACE
8
0
70
0
10
-78.521965
20
268.615906
30
17.800842
11
-89.225540
21
261.447540
31
-19.971914
12
-92.699211
22
255.238739
32
-17.623981
13
-78.988281
23
259.806854
33
20.151466
0
3DFACE
8
0
70
0
10
-78.988281
20
259.806854
30
20.151466
11
-92.699211
21
255.238739
31
-17.623981
12
-96.302025
22
243.545166
32
-13.044716
13
-84.730881
23
248.281189
33
22.091610
0
3DFACE
8
0
70
0
10
-91.820366
20
263.842560
30
-22.014137
11
-73.361633
21
251.278931
31
-44.893108
12
-71.216766
22
249.845154
32
-43.324387
13
-89.225540
23
261.447540
33
-19.971914
0
3DFACE
8
0
70
0
10
-92.699211
20
255.238739
30
-17.623981
11
-89.225540
21
261.447540
31
-19.971914
12
-71.216766
22
249.845154
32
-43.324387
13
-73.774017
23
248.173096
33
-45.476585
0
3DFACE
8
0
70
0
10
-96.302025
20
243.545166
30
-13.044716
11
-92.699211
21
255.238739
31
-17.623981
12
-73.774017
22
248.173096
32
-45.476585
13
-74.000763
23
236.378571
33
-44.406357
0
3DFACE
8
0
70
0
10
-73.361633
20
251.278931
30
-44.893108
11
-28.043451
21
235.649139
31
-58.221588
12
-28.533440
22
235.750824
32
-54.511631
13
-71.216766
23
249.845154
33
-43.324387
0
3DFACE
8
0
70
0
10
-73.774017
20
248.173096
30
-45.476585
11
-71.216766
21
249.845154
31
-43.324387
12
-28.533440
22
235.750824
32
-54.511631
13
-29.049799
23
233.837006
33
-54.262543
0
3DFACE
8
0
70
0
10
-74.000763
20
236.378571
30
-44.406357
11
-73.774017
21
248.173096
31
-45.476585
12
-29.049799
22
233.837006
32
-54.262543
13
-32.748791
23
221.350220
33
-50.262943
0
3DFACE
8
0
70
0
10
-100.013878
20
207.864746
30
0.306290
11
-101.306709
21
221.681488
31
29.562508
12
-94.521751
22
230.463959
32
24.864983
13
-101.549583
23
223.843567
33
-7.663307
0
3DFACE
8
0
70
0
10
-84.730881
20
248.281189
30
22.091610
11
-96.302025
21
243.545166
31
-13.044716
12
-90.125206
22
240.119629
32
22.887594
13
-90.125206
23
240.119629
33
22.887594
0
3DFACE
8
0
70
0
10
-94.521751
20
230.463959
30
24.864983
11
-90.125206
21
240.119629
31
22.887594
12
-96.302025
22
243.545166
32
-13.044716
13
-101.549583
23
223.843567
33
-7.663307
0
3DFACE
8
0
70
0
10
-101.549583
20
223.843567
30
-7.663307
11
-96.302025
21
243.545166
31
-13.044716
12
-74.000763
22
236.378571
32
-44.406357
13
-78.107674
23
220.221893
33
-38.110970
0
3DFACE
8
0
70
0
10
-78.107674
20
220.221893
30
-38.110970
11
-74.000763
21
236.378571
31
-44.406357
12
-32.748791
22
221.350220
32
-50.262943
13
-37.588863
23
206.301147
33
-42.693584
0
3DFACE
8
0
70
0
10
-35.158203
20
270.532593
30
56.158371
11
-27.706100
21
297.298492
31
51.016220
12
-45.757038
22
301.904022
32
42.222672
13
-49.218002
23
281.938599
33
48.825272
0
3DFACE
8
0
70
0
10
-27.706100
20
297.298492
30
51.016220
11
-26.499598
21
299.932861
31
47.106159
12
-45.062328
22
303.438599
32
37.057709
13
-45.757038
23
301.904022
33
42.222672
0
3DFACE
8
0
70
0
10
-49.218002
20
281.938599
30
48.825272
11
-45.757038
21
301.904022
31
42.222672
12
-70.679573
22
304.629761
32
25.723871
13
-64.660690
23
276.317749
33
36.533127
0
3DFACE
8
0
70
0
10
-45.757038
20
301.904022
30
42.222672
11
-45.062328
21
303.438599
31
37.057709
12
-68.323273
22
306.201416
32
21.030848
13
-70.679573
23
304.629761
33
25.723871
0
3DFACE
8
0
70
0
10
-64.660690
20
276.317749
30
36.533127
11
-70.679573
21
304.629761
31
25.723871
12
-85.178642
22
296.746521
32
-6.218097
13
-89.629898
23
273.934235
33
15.163735
0
3DFACE
8
0
70
0
10
-70.679573
20
304.629761
30
25.723871
11
-68.323273
21
306.201416
31
21.030848
12
-75.945724
22
298.326477
32
-6.900101
13
-85.178642
23
296.746521
33
-6.218097
0
3DFACE
8
0
70
0
10
-89.629898
20
273.934235
30
15.163735
11
-85.178642
21
296.746521
31
-6.218097
12
-87.408432
22
292.392822
32
-32.358082
13
-91.820366
23
263.842560
33
-22.014137
0
3DFACE
8
0
70
0
10
-85.178642
20
296.746521
30
-6.218097
11
-75.945724
21
298.326477
31
-6.900101
12
-80.491890
22
293.568970
32
-30.322779
13
-87.408432
23
292.392822
33
-32.358082
0
3DFACE
8
0
70
0
10
-91.820366
20
263.842560
30
-22.014137
11
-87.408432
21
292.392822
31
-32.358082
12
-66.940178
22
276.893524
32
-51.489914
13
-73.361633
23
251.278931
33
-44.893108
0
3DFACE
8
0
70
0
10
-87.408432
20
292.392822
30
-32.358082
11
-80.491890
21
293.568970
31
-30.322779
12
-60.805470
22
280.193390
32
-47.755684
13
-66.940178
23
276.893524
33
-51.489914
0
3DFACE
8
0
70
0
10
-73.361633
20
251.278931
30
-44.893108
11
-66.940178
21
276.893524
31
-51.489914
12
-21.268097
22
259.056885
32
-64.576683
13
-28.043451
23
235.649139
33
-58.221588
0
3DFACE
8
0
70
0
10
-66.940178
20
276.893524
30
-51.489914
11
-60.805470
21
280.193390
31
-47.755684
12
-20.706306
22
263.394714
32
-60.762100
13
-21.268097
23
259.056885
33
-64.576683
0
3DFACE
8
0
70
0
10
-100.013878
20
207.864746
30
0.306290
11
-101.549583
21
223.843567
31
-7.663307
12
-78.107674
22
220.221893
32
-38.110970
13
-69.232353
23
197.800293
33
-3.732247
0
3DFACE
8
0
70
0
10
-69.232353
20
197.800293
30
-3.732247
11
-78.107674
21
220.221893
31
-38.110970
12
-37.588863
22
206.301147
32
-42.693584
13
-23.493122
23
191.133606
33
-14.232535
0
3DFACE
8
0
70
0
10
-99.162659
20
181.548401
30
22.893654
11
-100.013878
21
207.864746
31
0.306290
12
-69.232353
22
197.800293
32
-3.732247
13
-83.264786
23
196.133789
33
14.648421
0
3DFACE
8
0
70
0
10
-85.567421
20
158.766388
30
62.142899
11
-99.162659
21
181.548401
31
22.893654
12
-83.264786
22
196.133789
32
14.648421
13
-81.739021
23
155.316589
33
46.678799
0
3DFACE
8
0
70
0
10
-81.739021
20
155.316589
30
46.678799
11
-83.264786
21
196.133789
31
14.648421
12
-56.907257
22
164.052002
32
19.790255
13
-64.357246
23
148.470642
33
45.175755
0
3DFACE
8
0
70
0
10
-69.254745
20
142.940186
30
70.399384
11
-81.739021
21
155.316589
31
46.678799
12
-64.357246
22
148.470642
32
45.175755
13
-64.357246
23
148.470642
33
45.175755
0
3DFACE
8
0
70
0
10
-69.254745
20
142.940186
30
70.399384
11
-85.567421
21
158.766388
31
62.142899
12
-81.739021
22
155.316589
32
46.678799
13
-81.739021
23
155.316589
33
46.678799
0
3DFACE
8
0
70
0
10
-41.564007
20
258.344299
30
53.005768
11
-38.401485
21
257.942413
31
56.691498
12
-35.401325
22
268.142426
32
53.578499
13
-39.142952
23
266.573853
33
50.490734
0
3DFACE
8
0
70
0
10
-52.673145
20
258.304016
30
47.621178
11
-53.384392
21
256.760010
31
50.191750
12
-38.401485
22
257.942413
32
56.691498
13
-41.564007
23
258.344299
33
53.005768
0
3DFACE
8
0
70
0
10
-48.667984
20
276.918304
30
45.701187
11
-39.142952
21
266.573853
31
50.490734
12
-35.401325
22
268.142426
32
53.578499
13
-48.141193
23
279.181152
33
47.970997
0
3DFACE
8
0
70
0
10
-52.673145
20
258.304016
30
47.621178
11
-60.859241
21
260.273071
31
41.205456
12
-64.176071
22
259.489044
32
42.147804
13
-53.384392
23
256.760010
33
50.191750
0
3DFACE
8
0
70
0
10
-60.859241
20
260.273071
30
41.205456
11
-61.639492
21
269.959625
31
35.967514
12
-65.077736
22
272.801819
32
35.384071
13
-64.176071
23
259.489044
33
42.147804
0
3DFACE
8
0
70
0
10
-48.667984
20
276.918304
30
45.701187
11
-48.141193
21
279.181152
31
47.970997
12
-65.077736
22
272.801819
32
35.384071
13
-61.639492
23
269.959625
33
35.967514
0
3DFACE
8
0
70
0
10
-17.586771
20
268.367737
30
49.973652
11
-17.850237
21
270.758636
31
52.358654
12
-35.401325
22
268.142426
32
53.578499
13
-31.710943
23
264.856842
33
51.676868
0
3DFACE
8
0
70
0
10
-23.691689
20
250.278259
30
51.156124
11
-34.248077
21
256.313293
31
54.458450
12
-38.401485
22
257.942413
32
56.691498
13
-24.588034
23
249.511414
33
54.193630
0
3DFACE
8
0
70
0
10
-34.248077
20
256.313293
30
54.458450
11
-31.710943
21
264.856842
31
51.676868
12
-35.401325
22
268.142426
32
53.578499
13
-38.401485
23
257.942413
33
56.691498
0
3DFACE
8
0
70
0
10
-17.586771
20
268.367737
30
49.973652
11
-6.952711
21
255.813019
31
41.047539
12
-2.571463
22
257.067810
32
44.070679
13
-17.850237
23
270.758636
33
52.358654
0
3DFACE
8
0
70
0
10
-13.619973
20
247.474121
30
46.074413
11
-11.262173
21
246.169617
31
49.501343
12
-2.571463
22
257.067810
32
44.070679
13
-6.952711
23
255.813019
33
41.047539
0
3DFACE
8
0
70
0
10
-23.691689
20
250.278259
30
51.156124
11
-24.588034
21
249.511414
31
54.193630
12
-11.262173
22
246.169617
32
49.501343
13
-13.619973
23
247.474121
33
46.074413
0
3DFACE
8
0
70
0
10
-23.493122
20
191.133606
30
-14.232535
11
2.090691
21
190.936401
31
8.443236
12
37.053932
22
176.209167
32
-8.304408
13
-21.926037
23
199.739685
33
-16.909838
0
3DFACE
8
0
70
0
10
-21.926037
20
199.739685
30
-16.909838
11
-78.003510
21
175.912598
31
-23.337431
12
-69.232353
22
197.800293
32
-3.732247
13
-23.493122
23
191.133606
33
-14.232535
0
3DFACE
8
0
70
0
10
-78.003510
20
175.912598
30
-23.337431
11
-92.338669
21
177.599670
31
17.066456
12
-69.232353
22
197.800293
32
-3.732247
13
-69.232353
23
197.800293
33
-3.732247
0
3DFACE
8
0
70
0
10
-92.338669
20
177.599670
30
17.066456
11
-83.264786
21
196.133789
31
14.648421
12
-69.232353
22
197.800293
32
-3.732247
13
-69.232353
23
197.800293
33
-3.732247
0
3DFACE
8
0
70
0
10
6.350539
20
177.465088
30
43.901127
11
2.090691
21
190.936401
31
8.443236
12
-25.817404
22
188.314697
32
28.518288
13
-25.817404
23
188.314697
33
28.518288
0
3DFACE
8
0
70
0
10
37.053932
20
176.209167
30
-8.304408
11
2.090691
21
190.936401
31
8.443236
12
6.350539
22
177.465088
32
43.901127
13
6.350539
23
177.465088
33
43.901127
0
3DFACE
8
0
70
0
10
-56.582989
20
194.051300
30
29.999910
11
-83.264786
21
196.133789
31
14.648421
12
-92.338669
22
177.599670
32
17.066456
13
-92.338669
23
177.599670
33
17.066456
0
3DFACE
8
0
70
0
10
-56.907257
20
164.052002
30
19.790255
11
-83.264786
21
196.133789
31
14.648421
12
-56.582989
22
194.051300
32
29.999910
13
-56.582989
23
194.051300
33
29.999910
0
3DFACE
8
0
70
0
10
-56.907257
20
164.052002
30
19.790255
11
-56.582989
21
194.051300
31
29.999910
12
-25.817404
22
188.314697
32
28.518288
13
-25.817404
23
188.314697
33
28.518288
0
3DFACE
8
0
70
0
10
-56.582989
20
194.051300
30
29.999910
11
6.350539
21
177.465088
31
43.901127
12
-25.817404
22
188.314697
32
28.518288
13
-25.817404
23
188.314697
33
28.518288
0
3DFACE
8
0
70
0
10
-20.706306
20
263.394714
30
-60.762100
11
-10.802660
21
317.920258
31
-33.476097
12
5.251207
22
317.839386
32
-28.107388
13
17.741020
23
260.421722
33
-36.839943
0
3DFACE
8
0
70
0
10
17.741020
20
260.421722
30
-36.839943
11
5.251207
21
317.839386
31
-28.107388
12
16.446297
22
320.899750
32
-21.894169
13
36.165062
23
264.204193
33
-14.110762
0
3DFACE
8
0
70
0
10
36.165062
20
264.204193
30
-14.110762
11
16.446297
21
320.899750
31
-21.894169
12
14.847183
22
327.315796
32
-17.351885
13
28.512367
23
272.032379
33
7.616621
0
3DFACE
8
0
70
0
10
28.512367
20
272.032379
30
7.616621
11
14.847183
21
327.315796
31
-17.351885
12
13.216505
22
335.181305
32
-11.671902
13
18.545462
23
284.334930
33
33.103146
0
3DFACE
8
0
70
0
10
-26.499598
20
299.932861
30
47.106159
11
-6.562075
21
293.747345
31
42.408157
12
2.084013
22
341.603058
32
-10.351255
13
-7.004415
23
346.003143
33
-9.940677
0
3DFACE
8
0
70
0
10
-20.706306
20
263.394714
30
-60.762100
11
-60.805470
21
280.193390
31
-47.755684
12
-25.820559
22
325.660736
32
-32.425488
13
-10.802660
23
317.920258
33
-33.476097
0
3DFACE
8
0
70
0
10
-60.805470
20
280.193390
30
-47.755684
11
-80.491890
21
293.568970
31
-30.322779
12
-35.477871
22
333.970062
32
-29.110168
13
-25.820559
23
325.660736
33
-32.425488
0
3DFACE
8
0
70
0
10
-80.491890
20
293.568970
30
-30.322779
11
-75.945724
21
298.326477
31
-6.900101
12
-32.305645
22
339.185089
32
-23.904802
13
-35.477871
23
333.970062
33
-29.110168
0
3DFACE
8
0
70
0
10
-75.945724
20
298.326477
30
-6.900101
11
-68.323273
21
306.201416
31
21.030848
12
-28.724762
22
345.738708
32
-17.500559
13
-32.305645
23
339.185089
33
-23.904802
0
3DFACE
8
0
70
0
10
-26.499598
20
299.932861
30
47.106159
11
-7.004415
21
346.003143
31
-9.940677
12
-16.645422
22
346.317627
32
-12.954121
13
-45.062328
23
303.438599
33
37.057709
0
3DFACE
8
0
70
0
10
18.545462
20
284.334930
30
33.103146
11
13.216505
21
335.181305
31
-11.671902
12
2.084013
22
341.603058
32
-10.351255
13
-6.562075
23
293.747345
33
42.408157
0
3DFACE
8
0
70
0
10
-68.323273
20
306.201416
30
21.030848
11
-45.062328
21
303.438599
31
37.057709
12
-16.645422
22
346.317627
32
-12.954121
13
-28.724762
23
345.738708
33
-17.500559
0
3DFACE
8
0
70
0
10
-0.504368
20
332.216156
30
-82.002525
11
11.432195
21
320.928223
31
-85.201630
12
-1.503449
22
321.573853
32
-94.089767
13
-1.503449
23
321.573853
33
-94.089767
0
3DFACE
8
0
70
0
10
10.825824
20
326.301849
30
-71.105125
11
11.432195
21
320.928223
31
-85.201630
12
-0.504368
22
332.216156
32
-82.002525
13
-0.504368
23
332.216156
33
-82.002525
0
3DFACE
8
0
70
0
10
-2.716194
20
332.321136
30
-65.896698
11
10.825824
21
326.301849
31
-71.105125
12
-0.504368
22
332.216156
32
-82.002525
13
-0.504368
23
332.216156
33
-82.002525
0
3DFACE
8
0
70
0
10
-2.716194
20
332.321136
30
-65.896698
11
-0.504368
21
332.216156
31
-82.002525
12
-15.651809
22
332.966797
32
-74.784775
13
-15.651809
23
332.966797
33
-74.784775
0
3DFACE
8
0
70
0
10
-15.651809
20
332.966797
30
-74.784775
11
-0.504368
21
332.216156
31
-82.002525
12
-15.045437
22
327.593140
32
-88.881279
13
-15.045437
23
327.593140
33
-88.881279
0
3DFACE
8
0
70
0
10
-0.504368
20
332.216156
30
-82.002525
11
-1.503449
21
321.573853
31
-94.089767
12
-15.045437
22
327.593140
32
-88.881279
13
-15.045437
23
327.593140
33
-88.881279
0
3DFACE
8
0
70
0
10
11.432195
20
320.928223
30
-85.201630
11
13.165549
21
305.715332
31
-82.508163
12
-5.128188
22
306.628418
32
-95.077812
13
-1.503449
23
321.573853
33
-94.089767
0
3DFACE
8
0
70
0
10
12.308007
20
313.314850
30
-62.572620
11
13.165549
21
305.715332
31
-82.508163
12
11.432195
22
320.928223
32
-85.201630
13
10.825824
23
326.301849
33
-71.105125
0
3DFACE
8
0
70
0
10
-6.843268
20
321.827393
30
-55.206814
11
12.308007
21
313.314850
31
-62.572620
12
10.825824
22
326.301849
32
-71.105125
13
-2.716194
23
332.321136
33
-65.896698
0
3DFACE
8
0
70
0
10
-6.843268
20
321.827393
30
-55.206814
11
-2.716194
21
332.321136
31
-65.896698
12
-15.651809
22
332.966797
32
-74.784775
13
-25.137009
23
322.740479
33
-67.776436
0
3DFACE
8
0
70
0
10
-25.137009
20
322.740479
30
-67.776436
11
-15.651809
21
332.966797
31
-74.784775
12
-15.045437
22
327.593140
32
-88.881279
13
-24.279467
23
315.140961
33
-87.711975
0
3DFACE
8
0
70
0
10
-15.045437
20
327.593140
30
-88.881279
11
-1.503449
21
321.573853
31
-94.089767
12
-5.128188
22
306.628418
32
-95.077812
13
-24.279467
23
315.140961
33
-87.711975
0
3DFACE
8
0
70
0
10
3.680379
20
295.489044
30
-75.499756
11
-9.255262
21
296.134644
31
-84.387894
12
-5.128188
22
306.628418
32
-95.077812
13
13.165549
23
305.715332
33
-82.508163
0
3DFACE
8
0
70
0
10
12.308007
20
313.314850
30
-62.572620
11
3.074007
21
300.862671
31
-61.403255
12
3.680379
22
295.489044
32
-75.499756
13
13.165549
23
305.715332
33
-82.508163
0
3DFACE
8
0
70
0
10
-6.843268
20
321.827393
30
-55.206814
11
-10.468008
21
306.881958
31
-56.194832
12
3.074007
22
300.862671
32
-61.403255
13
12.308007
23
313.314850
33
-62.572620
0
3DFACE
8
0
70
0
10
-6.843268
20
321.827393
30
-55.206814
11
-25.137009
21
322.740479
31
-67.776436
12
-23.403624
22
307.527618
32
-65.082909
13
-10.468008
23
306.881958
33
-56.194832
0
3DFACE
8
0
70
0
10
-25.137009
20
322.740479
30
-67.776436
11
-24.279467
21
315.140961
31
-87.711975
12
-22.797251
22
302.153961
32
-79.179413
13
-23.403624
23
307.527618
33
-65.082909
0
3DFACE
8
0
70
0
10
-22.797251
20
302.153961
30
-79.179413
11
-24.279467
21
315.140961
31
-87.711975
12
-5.128188
22
306.628418
32
-95.077812
13
-9.255262
23
296.134644
33
-84.387894
0
3DFACE
8
0
70
0
10
-11.467102
20
296.239685
30
-68.282005
11
-9.255262
21
296.134644
31
-84.387894
12
3.680379
22
295.489044
32
-75.499756
13
3.680379
23
295.489044
33
-75.499756
0
3DFACE
8
0
70
0
10
3.074007
20
300.862671
30
-61.403255
11
-11.467102
21
296.239685
31
-68.282005
12
3.680379
22
295.489044
32
-75.499756
13
3.680379
23
295.489044
33
-75.499756
0
3DFACE
8
0
70
0
10
-10.468008
20
306.881958
30
-56.194832
11
-11.467102
21
296.239685
31
-68.282005
12
3.074007
22
300.862671
32
-61.403255
13
3.074007
23
300.862671
33
-61.403255
0
3DFACE
8
0
70
0
10
-10.468008
20
306.881958
30
-56.194832
11
-23.403624
21
307.527618
31
-65.082909
12
-11.467102
22
296.239685
32
-68.282005
13
-11.467102
23
296.239685
33
-68.282005
0
3DFACE
8
0
70
0
10
-23.403624
20
307.527618
30
-65.082909
11
-22.797251
21
302.153961
31
-79.179413
12
-11.467102
22
296.239685
32
-68.282005
13
-11.467102
23
296.239685
33
-68.282005
0
3DFACE
8
0
70
0
10
-11.467102
20
296.239685
30
-68.282005
11
-22.797251
21
302.153961
31
-79.179413
12
-9.255262
22
296.134644
32
-84.387894
13
-9.255262
23
296.134644
33
-84.387894
0
3DFACE
8
0
70
0
10
-20.289572
20
219.637177
30
54.738281
11
5.813376
21
215.970093
31
36.220345
12
-5.279899
22
232.102722
32
56.441902
13
-5.279899
23
232.102722
33
56.441902
0
3DFACE
8
0
70
0
10
5.813376
20
215.970093
30
36.220345
11
5.242313
21
225.633240
31
34.595341
12
-5.279899
22
232.102722
32
56.441902
13
-5.279899
23
232.102722
33
56.441902
0
3DFACE
8
0
70
0
10
-35.676174
20
222.097961
30
59.057533
11
-20.289572
21
219.637177
31
54.738281
12
-19.721540
22
236.494202
32
57.423473
13
-19.721540
23
236.494202
33
57.423473
0
3DFACE
8
0
70
0
10
-20.289572
20
219.637177
30
54.738281
11
-5.279899
21
232.102722
31
56.441902
12
-19.721540
22
236.494202
32
57.423473
13
-19.721540
23
236.494202
33
57.423473
0
3DFACE
8
0
70
0
10
-5.279899
20
232.102722
30
56.441902
11
5.242313
21
225.633240
31
34.595341
12
-11.262173
22
246.169617
32
49.501343
13
-11.262173
23
246.169617
33
49.501343
0
3DFACE
8
0
70
0
10
5.242313
20
225.633240
30
34.595341
11
6.234177
21
238.354736
31
31.994978
12
-11.262173
22
246.169617
32
49.501343
13
-11.262173
23
246.169617
33
49.501343
0
3DFACE
8
0
70
0
10
-19.721540
20
236.494202
30
57.423473
11
-11.262173
21
246.169617
31
49.501343
12
-24.588034
22
249.511414
32
54.193630
13
-24.588034
23
249.511414
33
54.193630
0
3DFACE
8
0
70
0
10
-5.279899
20
232.102722
30
56.441902
11
-11.262173
21
246.169617
31
49.501343
12
-19.721540
22
236.494202
32
57.423473
13
-19.721540
23
236.494202
33
57.423473
0
3DFACE
8
0
70
0
10
-11.262173
20
246.169617
30
49.501343
11
6.234177
21
238.354736
31
31.994978
12
-2.571463
22
257.067810
32
44.070679
13
-2.571463
23
257.067810
33
44.070679
0
3DFACE
8
0
70
0
10
6.234177
20
238.354736
30
31.994978
11
10.538703
21
246.197632
31
30.177757
12
-2.571463
22
257.067810
32
44.070679
13
-2.571463
23
257.067810
33
44.070679
0
3DFACE
8
0
70
0
10
-90.125206
20
240.119629
30
22.887594
11
-78.415825
21
250.512421
31
46.278076
12
-84.730881
22
248.281189
32
22.091610
13
-84.730881
23
248.281189
33
22.091610
0
3DFACE
8
0
70
0
10
-71.057549
20
232.416443
30
47.682968
11
-78.415825
21
250.512421
31
46.278076
12
-90.125206
22
240.119629
32
22.887594
13
-90.125206
23
240.119629
33
22.887594
0
3DFACE
8
0
70
0
10
-71.057549
20
232.416443
30
47.682968
11
-64.389755
21
247.738037
31
51.215855
12
-78.415825
22
250.512421
32
46.278076
13
-78.415825
23
250.512421
33
46.278076
0
3DFACE
8
0
70
0
10
-57.985443
20
227.713623
30
55.957176
11
-64.389755
21
247.738037
31
51.215855
12
-71.057549
22
232.416443
32
47.682968
13
-71.057549
23
232.416443
33
47.682968
0
3DFACE
8
0
70
0
10
-84.730881
20
248.281189
30
22.091610
11
-64.176071
21
259.489044
31
42.147804
12
-78.988281
22
259.806854
32
20.151466
13
-78.988281
23
259.806854
33
20.151466
0
3DFACE
8
0
70
0
10
-78.415825
20
250.512421
30
46.278076
11
-64.176071
21
259.489044
31
42.147804
12
-84.730881
22
248.281189
32
22.091610
13
-84.730881
23
248.281189
33
22.091610
0
3DFACE
8
0
70
0
10
-64.389755
20
247.738037
30
51.215855
11
-53.384392
21
256.760010
31
50.191750
12
-64.176071
22
259.489044
32
42.147804
13
-64.176071
23
259.489044
33
42.147804
0
3DFACE
8
0
70
0
10
-78.415825
20
250.512421
30
46.278076
11
-64.389755
21
247.738037
31
51.215855
12
-64.176071
22
259.489044
32
42.147804
13
-64.176071
23
259.489044
33
42.147804
0
3DFACE
8
0
70
0
10
-78.988281
20
259.806854
30
20.151466
11
-65.077736
21
272.801819
31
35.384071
12
-78.521965
22
268.615906
32
17.800842
13
-78.521965
23
268.615906
33
17.800842
0
3DFACE
8
0
70
0
10
-64.176071
20
259.489044
30
42.147804
11
-65.077736
21
272.801819
31
35.384071
12
-78.988281
22
259.806854
32
20.151466
13
-78.988281
23
259.806854
33
20.151466
0
3DFACE
8
0
70
0
10
22.210979
20
-75.155434
30
34.067081
11
10.404240
21
-56.076500
31
29.009178
12
-2.781110
22
-58.193222
32
7.272495
13
-2.781110
23
-58.193222
33
7.272495
0
3DFACE
8
0
70
0
10
22.210979
20
-75.155434
30
34.067081
11
-2.781110
21
-58.193222
31
7.272495
12
11.924788
22
-83.514351
32
13.682162
13
11.924788
23
-83.514351
33
13.682162
0
3DFACE
8
0
70
0
10
22.210979
20
-75.155434
30
34.067081
11
42.049503
21
-35.460403
31
13.366809
12
10.404240
22
-56.076500
32
29.009178
13
10.404240
23
-56.076500
33
29.009178
0
3DFACE
8
0
70
0
10
22.210979
20
-75.155434
30
34.067081
11
49.438850
21
-58.081421
31
20.108580
12
42.049503
22
-35.460403
32
13.366809
13
42.049503
23
-35.460403
33
13.366809
0
3DFACE
8
0
70
0
10
49.438850
20
-58.081421
30
20.108580
11
46.296284
21
-29.344513
31
-3.351060
12
42.049503
22
-35.460403
32
13.366809
13
42.049503
23
-35.460403
33
13.366809
0
3DFACE
8
0
70
0
10
49.438850
20
-58.081421
30
20.108580
11
54.111107
21
-56.128700
31
4.577536
12
46.296284
22
-29.344513
32
-3.351060
13
46.296284
23
-29.344513
33
-3.351060
0
3DFACE
8
0
70
0
10
14.069266
20
-83.876251
30
-10.359754
11
-2.781110
21
-58.193222
31
7.272495
12
-3.437139
22
-52.702148
32
-18.236143
13
-3.437139
23
-52.702148
33
-18.236143
0
3DFACE
8
0
70
0
10
11.924788
20
-83.514351
30
13.682162
11
-2.781110
21
-58.193222
31
7.272495
12
14.069266
22
-83.876251
32
-10.359754
13
14.069266
23
-83.876251
33
-10.359754
0
3DFACE
8
0
70
0
10
44.146736
20
-63.749954
30
-8.768864
11
33.052601
21
-33.267075
31
-17.342642
12
46.296284
22
-29.344513
32
-3.351060
13
46.296284
23
-29.344513
33
-3.351060
0
3DFACE
8
0
70
0
10
54.111107
20
-56.128700
30
4.577536
11
44.146736
21
-63.749954
31
-8.768864
12
46.296284
22
-29.344513
32
-3.351060
13
46.296284
23
-29.344513
33
-3.351060
0
3DFACE
8
0
70
0
10
14.069266
20
-83.876251
30
-10.359754
11
-3.437139
21
-52.702148
31
-18.236143
12
33.052601
22
-33.267075
32
-17.342642
13
33.052601
23
-33.267075
33
-17.342642
0
3DFACE
8
0
70
0
10
44.146736
20
-63.749954
30
-8.768864
11
14.069266
21
-83.876251
31
-10.359754
12
33.052601
22
-33.267075
32
-17.342642
13
33.052601
23
-33.267075
33
-17.342642
0
3DFACE
8
0
70
0
10
-102.276772
20
-81.687515
30
-8.411566
11
-82.742027
21
-81.181610
31
-21.281433
12
-71.322815
22
-53.185135
32
-21.926649
13
-71.322815
23
-53.185135
33
-21.926649
0
3DFACE
8
0
70
0
10
-102.276772
20
-81.687515
30
-8.411566
11
-71.322815
21
-53.185135
31
-21.926649
12
-92.162392
22
-55.387650
32
-7.906476
13
-92.162392
23
-55.387650
33
-7.906476
0
3DFACE
8
0
70
0
10
-102.276772
20
-81.687515
30
-8.411566
11
-92.162392
21
-55.387650
31
-7.906476
12
-117.205109
22
-42.379982
32
-36.531708
13
-117.205109
23
-42.379982
33
-36.531708
0
3DFACE
8
0
70
0
10
-102.276772
20
-81.687515
30
-8.411566
11
-117.205109
21
-42.379982
31
-36.531708
12
-123.430321
22
-70.582909
32
-33.373531
13
-123.430321
23
-70.582909
33
-33.373531
0
3DFACE
8
0
70
0
10
-123.430321
20
-70.582909
30
-33.373531
11
-117.205109
21
-42.379982
31
-36.531708
12
-115.182190
22
-36.690598
32
-53.798210
13
-115.182190
23
-36.690598
33
-53.798210
0
3DFACE
8
0
70
0
10
-123.430321
20
-70.582909
30
-33.373531
11
-115.182190
21
-36.690598
31
-53.798210
12
-121.150589
22
-66.270668
32
-49.073540
13
-121.150589
23
-66.270668
33
-49.073540
0
3DFACE
8
0
70
0
10
-74.086510
20
-76.103531
30
-43.187263
11
-61.290119
21
-46.485703
31
-45.056801
12
-71.322815
22
-53.185135
32
-21.926649
13
-71.322815
23
-53.185135
33
-21.926649
0
3DFACE
8
0
70
0
10
-82.742027
20
-81.181610
30
-21.281433
11
-74.086510
21
-76.103531
31
-43.187263
12
-71.322815
22
-53.185135
32
-21.926649
13
-71.322815
23
-53.185135
33
-21.926649
0
3DFACE
8
0
70
0
10
-121.150589
20
-66.270668
30
-49.073540
11
-115.182190
21
-36.690598
31
-53.798210
12
-105.106651
22
-66.953316
32
-55.977737
13
-105.106651
23
-66.953316
33
-55.977737
0
3DFACE
8
0
70
0
10
-105.106651
20
-66.953316
30
-55.977737
11
-115.182190
21
-36.690598
31
-53.798210
12
-97.138130
22
-36.593719
32
-60.679417
13
-97.138130
23
-36.593719
33
-60.679417
0
3DFACE
8
0
70
0
10
-105.106651
20
-66.953316
30
-55.977737
11
-97.138130
21
-36.593719
31
-60.679417
12
-74.086510
22
-76.103531
32
-43.187263
13
-74.086510
23
-76.103531
33
-43.187263
0
3DFACE
8
0
70
0
10
-74.086510
20
-76.103531
30
-43.187263
11
-97.138130
21
-36.593719
31
-60.679417
12
-61.290119
22
-46.485703
32
-45.056801
13
-61.290119
23
-46.485703
33
-45.056801
0
3DFACE
8
0
70
0
10
29.423445
20
-97.221504
30
20.660828
11
22.210979
21
-75.155434
31
34.067081
12
11.924788
22
-83.514351
32
13.682162
13
11.924788
23
-83.514351
33
13.682162
0
3DFACE
8
0
70
0
10
31.461142
20
-134.664734
30
-2.567105
11
29.423445
21
-97.221504
31
20.660828
12
11.924788
22
-83.514351
32
13.682162
13
11.924788
23
-83.514351
33
13.682162
0
3DFACE
8
0
70
0
10
59.215698
20
-90.510941
30
7.192688
11
49.438850
21
-58.081421
31
20.108580
12
29.423445
22
-97.221504
32
20.660828
13
29.423445
23
-97.221504
33
20.660828
0
3DFACE
8
0
70
0
10
29.423445
20
-97.221504
30
20.660828
11
49.438850
21
-58.081421
31
20.108580
12
22.210979
22
-75.155434
32
34.067081
13
22.210979
23
-75.155434
33
34.067081
0
3DFACE
8
0
70
0
10
72.694855
20
-112.620041
30
-9.219998
11
54.111107
21
-56.128700
31
4.577536
12
59.215698
22
-90.510941
32
7.192688
13
59.215698
23
-90.510941
33
7.192688
0
3DFACE
8
0
70
0
10
59.215698
20
-90.510941
30
7.192688
11
54.111107
21
-56.128700
31
4.577536
12
49.438850
22
-58.081421
32
20.108580
13
49.438850
23
-58.081421
33
20.108580
0
3DFACE
8
0
70
0
10
31.461142
20
-134.664734
30
-2.567105
11
11.924788
21
-83.514351
31
13.682162
12
14.069266
22
-83.876251
32
-10.359754
13
14.069266
23
-83.876251
33
-10.359754
0
3DFACE
8
0
70
0
10
26.075199
20
-178.444977
30
-26.052523
11
31.461142
21
-134.664734
31
-2.567105
12
14.069266
22
-83.876251
32
-10.359754
13
14.069266
23
-83.876251
33
-10.359754
0
3DFACE
8
0
70
0
10
86.599380
20
-144.278168
30
-34.167767
11
44.146736
21
-63.749954
31
-8.768864
12
72.694855
22
-112.620041
32
-9.219998
13
72.694855
23
-112.620041
33
-9.219998
0
3DFACE
8
0
70
0
10
72.694855
20
-112.620041
30
-9.219998
11
44.146736
21
-63.749954
31
-8.768864
12
54.111107
22
-56.128700
32
4.577536
13
54.111107
23
-56.128700
33
4.577536
0
3DFACE
8
0
70
0
10
26.075199
20
-178.444977
30
-26.052523
11
14.069266
21
-83.876251
31
-10.359754
12
86.599380
22
-144.278168
32
-34.167767
13
86.599380
23
-144.278168
33
-34.167767
0
3DFACE
8
0
70
0
10
86.599380
20
-144.278168
30
-34.167767
11
14.069266
21
-83.876251
31
-10.359754
12
44.146736
22
-63.749954
32
-8.768864
13
44.146736
23
-63.749954
33
-8.768864
0
3DFACE
8
0
70
0
10
-73.621056
20
-130.643753
30
-52.266197
11
-82.742027
21
-81.181610
31
-21.281433
12
-90.062988
22
-101.850311
32
-27.716877
13
-90.062988
23
-101.850311
33
-27.716877
0
3DFACE
8
0
70
0
10
-90.062988
20
-101.850311
30
-27.716877
11
-82.742027
21
-81.181610
31
-21.281433
12
-102.276772
22
-81.687515
32
-8.411566
13
-102.276772
23
-81.687515
33
-8.411566
0
3DFACE
8
0
70
0
10
-90.062988
20
-101.850311
30
-27.716877
11
-102.276772
21
-81.687515
31
-8.411566
12
-123.430321
22
-70.582909
32
-33.373531
13
-123.430321
23
-70.582909
33
-33.373531
0
3DFACE
8
0
70
0
10
-112.794426
20
-99.359398
30
-50.855721
11
-90.062988
21
-101.850311
31
-27.716877
12
-123.430321
22
-70.582909
32
-33.373531
13
-123.430321
23
-70.582909
33
-33.373531
0
3DFACE
8
0
70
0
10
-112.794426
20
-99.359398
30
-50.855721
11
-123.430321
21
-70.582909
31
-33.373531
12
-121.150589
22
-66.270668
32
-49.073540
13
-121.150589
23
-66.270668
33
-49.073540
0
3DFACE
8
0
70
0
10
-112.624695
20
-119.156166
30
-72.939125
11
-112.794426
21
-99.359398
31
-50.855721
12
-121.150589
22
-66.270668
32
-49.073540
13
-121.150589
23
-66.270668
33
-49.073540
0
3DFACE
8
0
70
0
10
-49.012146
20
-163.291580
30
-74.578323
11
-74.086510
21
-76.103531
31
-43.187263
12
-73.621056
22
-130.643753
32
-52.266197
13
-73.621056
23
-130.643753
33
-52.266197
0
3DFACE
8
0
70
0
10
-73.621056
20
-130.643753
30
-52.266197
11
-74.086510
21
-76.103531
31
-43.187263
12
-82.742027
22
-81.181610
32
-21.281433
13
-82.742027
23
-81.181610
33
-21.281433
0
3DFACE
8
0
70
0
10
-112.624695
20
-119.156166
30
-72.939125
11
-121.150589
21
-66.270668
31
-49.073540
12
-105.106651
22
-66.953316
32
-55.977737
13
-105.106651
23
-66.953316
33
-55.977737
0
3DFACE
8
0
70
0
10
-107.315956
20
-145.270737
30
-103.353195
11
-112.624695
21
-119.156166
31
-72.939125
12
-105.106651
22
-66.953316
32
-55.977737
13
-105.106651
23
-66.953316
33
-55.977737
0
3DFACE
8
0
70
0
10
-107.315956
20
-145.270737
30
-103.353195
11
-105.106651
21
-66.953316
31
-55.977737
12
-74.086510
22
-76.103531
32
-43.187263
13
-74.086510
23
-76.103531
33
-43.187263
0
3DFACE
8
0
70
0
10
-49.012146
20
-163.291580
30
-74.578323
11
-107.315956
21
-145.270737
31
-103.353195
12
-74.086510
22
-76.103531
32
-43.187263
13
-74.086510
23
-76.103531
33
-43.187263
0
3DFACE
8
0
70
0
10
23.813986
20
86.827515
30
83.123077
11
-76.610924
21
121.328827
31
85.196472
12
-73.912292
22
98.434479
32
77.595161
13
-73.912292
23
98.434479
33
77.595161
0
3DFACE
8
0
70
0
10
23.813986
20
86.827515
30
83.123077
11
22.655931
21
126.671448
31
89.026146
12
-76.610924
22
121.328827
32
85.196472
13
-76.610924
23
121.328827
33
85.196472
0
3DFACE
8
0
70
0
10
72.317200
20
28.432236
30
-51.726845
11
-6.471300
21
17.878220
31
-110.017586
12
-7.219712
22
55.964676
32
-107.635612
13
-7.219712
23
55.964676
33
-107.635612
0
3DFACE
8
0
70
0
10
72.317200
20
28.432236
30
-51.726845
11
-7.219712
21
55.964676
31
-107.635612
12
71.050140
22
68.407410
32
-45.520691
13
71.050140
23
68.407410
33
-45.520691
0
3DFACE
8
0
70
0
10
23.813986
20
86.827515
30
83.123077
11
71.025291
21
94.246933
31
21.978224
12
22.655931
22
126.671448
32
89.026146
13
22.655931
23
126.671448
33
89.026146
0
3DFACE
8
0
70
0
10
23.813986
20
86.827515
30
83.123077
11
68.694801
21
58.380524
31
25.192810
12
71.025291
22
94.246933
32
21.978224
13
71.025291
23
94.246933
33
21.978224
0
3DFACE
8
0
70
0
10
68.694801
20
58.380524
30
25.192810
11
72.317200
21
28.432236
31
-51.726845
12
71.050140
22
68.407410
32
-45.520691
13
71.050140
23
68.407410
33
-45.520691
0
3DFACE
8
0
70
0
10
68.694801
20
58.380524
30
25.192810
11
71.050140
21
68.407410
31
-45.520691
12
71.025291
22
94.246933
32
21.978224
13
71.025291
23
94.246933
33
21.978224
0
3DFACE
8
0
70
0
10
-152.726334
20
87.146652
30
19.486326
11
-73.912292
21
98.434479
31
77.595161
12
-76.610924
22
121.328827
32
85.196472
13
-76.610924
23
121.328827
33
85.196472
0
3DFACE
8
0
70
0
10
-152.726334
20
87.146652
30
19.486326
11
-76.610924
21
121.328827
31
85.196472
12
-155.473450
22
126.993469
32
24.816591
13
-155.473450
23
126.993469
33
24.816591
0
3DFACE
8
0
70
0
10
-104.223122
20
28.751373
30
-115.363594
11
-7.219712
21
55.964676
31
-107.635612
12
-6.471300
22
17.878220
32
-110.017586
13
-6.471300
23
17.878220
33
-110.017586
0
3DFACE
8
0
70
0
10
-104.223122
20
28.751373
30
-115.363594
11
-107.079247
21
68.729431
31
-109.730240
12
-7.219712
22
55.964676
32
-107.635612
13
-7.219712
23
55.964676
33
-107.635612
0
3DFACE
8
0
70
0
10
-152.726334
20
87.146652
30
19.486326
11
-150.043579
21
94.646576
31
-57.709541
12
-150.414825
22
58.776627
32
-53.788719
13
-150.414825
23
58.776627
33
-53.788719
0
3DFACE
8
0
70
0
10
-152.726334
20
87.146652
30
19.486326
11
-155.473450
21
126.993469
31
24.816591
12
-150.043579
22
94.646576
32
-57.709541
13
-150.043579
23
94.646576
33
-57.709541
0
3DFACE
8
0
70
0
10
-150.414825
20
58.776627
30
-53.788719
11
-150.043579
21
94.646576
31
-57.709541
12
-107.079247
22
68.729431
32
-109.730240
13
-107.079247
23
68.729431
33
-109.730240
0
3DFACE
8
0
70
0
10
-150.414825
20
58.776627
30
-53.788719
11
-107.079247
21
68.729431
31
-109.730240
12
-104.223122
22
28.751373
32
-115.363594
13
-104.223122
23
28.751373
33
-115.363594
0
3DFACE
8
0
70
0
10
-76.610924
20
121.328827
30
85.196472
11
6.350539
21
177.465088
31
43.901127
12
-56.582989
22
194.051300
32
29.999910
13
-56.582989
23
194.051300
33
29.999910
0
3DFACE
8
0
70
0
10
-76.610924
20
121.328827
30
85.196472
11
22.655931
21
126.671448
31
89.026146
12
6.350539
22
177.465088
32
43.901127
13
6.350539
23
177.465088
33
43.901127
0
3DFACE
8
0
70
0
10
71.050140
20
68.407410
30
-45.520691
11
-7.219712
21
55.964676
31
-107.635612
12
32.441662
22
169.088989
32
-44.103920
13
32.441662
23
169.088989
33
-44.103920
0
3DFACE
8
0
70
0
10
-7.219712
20
55.964676
30
-107.635612
11
-12.144471
21
164.724915
31
-61.196857
12
32.441662
22
169.088989
32
-44.103920
13
32.441662
23
169.088989
33
-44.103920
0
3DFACE
8
0
70
0
10
22.655931
20
126.671448
30
89.026146
11
71.391838
21
129.343079
31
15.399881
12
38.309536
22
166.483154
32
40.668968
13
38.309536
23
166.483154
33
40.668968
0
3DFACE
8
0
70
0
10
22.655931
20
126.671448
30
89.026146
11
71.025291
21
94.246933
31
21.978224
12
71.391838
22
129.343079
32
15.399881
13
71.391838
23
129.343079
33
15.399881
0
3DFACE
8
0
70
0
10
71.050140
20
68.407410
30
-45.520691
11
66.202904
21
139.002899
31
-28.611811
12
71.391838
22
129.343079
32
15.399881
13
71.391838
23
129.343079
33
15.399881
0
3DFACE
8
0
70
0
10
71.025291
20
94.246933
30
21.978224
11
71.050140
21
68.407410
31
-45.520691
12
71.391838
22
129.343079
32
15.399881
13
71.391838
23
129.343079
33
15.399881
0
3DFACE
8
0
70
0
10
22.655931
20
126.671448
30
89.026146
11
38.309536
21
166.483154
31
40.668968
12
6.350539
22
177.465088
32
43.901127
13
6.350539
23
177.465088
33
43.901127
0
3DFACE
8
0
70
0
10
71.050140
20
68.407410
30
-45.520691
11
32.441662
21
169.088989
31
-44.103920
12
66.202904
22
139.002899
32
-28.611811
13
66.202904
23
139.002899
33
-28.611811
0
3DFACE
8
0
70
0
10
-76.610924
20
121.328827
30
85.196472
11
-92.338669
21
177.599670
31
17.066456
12
-155.473450
22
126.993469
32
24.816591
13
-155.473450
23
126.993469
33
24.816591
0
3DFACE
8
0
70
0
10
-76.610924
20
121.328827
30
85.196472
11
-56.582989
21
194.051300
31
29.999910
12
-92.338669
22
177.599670
32
17.066456
13
-92.338669
23
177.599670
33
17.066456
0
3DFACE
8
0
70
0
10
-107.079247
20
68.729431
30
-109.730240
11
-67.322571
21
169.213562
31
-68.942627
12
-7.219712
22
55.964676
32
-107.635612
13
-7.219712
23
55.964676
33
-107.635612
0
3DFACE
8
0
70
0
10
-7.219712
20
55.964676
30
-107.635612
11
-67.322571
21
169.213562
31
-68.942627
12
-12.144471
22
164.724915
32
-61.196857
13
-12.144471
23
164.724915
33
-61.196857
0
3DFACE
8
0
70
0
10
-155.473450
20
126.993469
30
24.816591
11
-117.619865
21
165.186035
31
3.278241
12
-121.746620
22
133.280121
32
-40.882923
13
-121.746620
23
133.280121
33
-40.882923
0
3DFACE
8
0
70
0
10
-155.473450
20
126.993469
30
24.816591
11
-121.746620
21
133.280121
31
-40.882923
12
-150.043579
22
94.646576
32
-57.709541
13
-150.043579
23
94.646576
33
-57.709541
0
3DFACE
8
0
70
0
10
-150.043579
20
94.646576
30
-57.709541
11
-121.746620
21
133.280121
31
-40.882923
12
-107.079247
22
68.729431
32
-109.730240
13
-107.079247
23
68.729431
33
-109.730240
0
3DFACE
8
0
70
0
10
-107.079247
20
68.729431
30
-109.730240
11
-121.746620
21
133.280121
31
-40.882923
12
-85.249657
22
142.952698
32
-56.601727
13
-85.249657
23
142.952698
33
-56.601727
0
3DFACE
8
0
70
0
10
-155.473450
20
126.993469
30
24.816591
11
-92.338669
21
177.599670
31
17.066456
12
-117.619865
22
165.186035
32
3.278241
13
-117.619865
23
165.186035
33
3.278241
0
3DFACE
8
0
70
0
10
-107.079247
20
68.729431
30
-109.730240
11
-85.249657
21
142.952698
31
-56.601727
12
-67.322571
22
169.213562
32
-68.942627
13
-67.322571
23
169.213562
33
-68.942627
0
3DFACE
8
0
70
0
10
71.391838
20
129.343079
30
15.399881
11
121.296082
21
145.087067
31
59.804005
12
38.309536
22
166.483154
32
40.668968
13
38.309536
23
166.483154
33
40.668968
0
3DFACE
8
0
70
0
10
161.848450
20
119.827423
30
58.069649
11
121.296082
21
145.087067
31
59.804005
12
71.391838
22
129.343079
32
15.399881
13
71.391838
23
129.343079
33
15.399881
0
3DFACE
8
0
70
0
10
38.309536
20
166.483154
30
40.668968
11
159.989105
21
173.199127
31
38.120583
12
37.053932
22
176.209167
32
-8.304408
13
37.053932
23
176.209167
33
-8.304408
0
3DFACE
8
0
70
0
10
38.309536
20
166.483154
30
40.668968
11
121.296082
21
145.087067
31
59.804005
12
159.989105
22
173.199127
32
38.120583
13
159.989105
23
173.199127
33
38.120583
0
3DFACE
8
0
70
0
10
66.202904
20
139.002899
30
-28.611811
11
37.053932
21
176.209167
31
-8.304408
12
159.989105
22
173.199127
32
38.120583
13
159.989105
23
173.199127
33
38.120583
0
3DFACE
8
0
70
0
10
66.202904
20
139.002899
30
-28.611811
11
159.989105
21
173.199127
31
38.120583
12
193.244537
22
145.526794
32
39.367264
13
193.244537
23
145.526794
33
39.367264
0
3DFACE
8
0
70
0
10
71.391838
20
129.343079
30
15.399881
11
66.202904
21
139.002899
31
-28.611811
12
193.244537
22
145.526794
32
39.367264
13
193.244537
23
145.526794
33
39.367264
0
3DFACE
8
0
70
0
10
161.848450
20
119.827423
30
58.069649
11
71.391838
21
129.343079
31
15.399881
12
193.244537
22
145.526794
32
39.367264
13
193.244537
23
145.526794
33
39.367264
0
3DFACE
8
0
70
0
10
-121.746620
20
133.280121
30
-40.882923
11
-117.619865
21
165.186035
31
3.278241
12
-171.093765
22
140.920532
32
-5.055824
13
-171.093765
23
140.920532
33
-5.055824
0
3DFACE
8
0
70
0
10
-174.934677
20
125.537354
30
-49.616199
11
-121.746620
21
133.280121
31
-40.882923
12
-171.093765
22
140.920532
32
-5.055824
13
-171.093765
23
140.920532
33
-5.055824
0
3DFACE
8
0
70
0
10
-117.619865
20
165.186035
30
3.278241
11
-78.003510
21
175.912598
31
-23.337431
12
-162.820618
22
180.066772
32
-38.239975
13
-162.820618
23
180.066772
33
-38.239975
0
3DFACE
8
0
70
0
10
-117.619865
20
165.186035
30
3.278241
11
-162.820618
21
180.066772
31
-38.239975
12
-171.093765
22
140.920532
32
-5.055824
13
-171.093765
23
140.920532
33
-5.055824
0
3DFACE
8
0
70
0
10
-85.249657
20
142.952698
30
-56.601727
11
-162.820618
21
180.066772
31
-38.239975
12
-78.003510
22
175.912598
32
-23.337431
13
-78.003510
23
175.912598
33
-23.337431
0
3DFACE
8
0
70
0
10
-85.249657
20
142.952698
30
-56.601727
11
-167.561218
21
160.279144
31
-76.025940
12
-162.820618
22
180.066772
32
-38.239975
13
-162.820618
23
180.066772
33
-38.239975
0
3DFACE
8
0
70
0
10
-121.746620
20
133.280121
30
-40.882923
11
-167.561218
21
160.279144
31
-76.025940
12
-85.249657
22
142.952698
32
-56.601727
13
-85.249657
23
142.952698
33
-56.601727
0
3DFACE
8
0
70
0
10
-174.934677
20
125.537354
30
-49.616199
11
-167.561218
21
160.279144
31
-76.025940
12
-121.746620
22
133.280121
32
-40.882923
13
-121.746620
23
133.280121
33
-40.882923
0
3DFACE
8
0
70
0
10
-221.277283
20
132.211975
30
-45.681686
11
-174.934677
21
125.537354
31
-49.616199
12
-171.093765
22
140.920532
32
-5.055824
13
-171.093765
23
140.920532
33
-5.055824
0
3DFACE
8
0
70
0
10
-221.277283
20
132.211975
30
-45.681686
11
-171.093765
21
140.920532
31
-5.055824
12
-201.334686
22
146.235962
32
-3.633657
13
-201.334686
23
146.235962
33
-3.633657
0
3DFACE
8
0
70
0
10
-201.334686
20
146.235962
30
-3.633657
11
-171.093765
21
140.920532
31
-5.055824
12
-162.820618
22
180.066772
32
-38.239975
13
-162.820618
23
180.066772
33
-38.239975
0
3DFACE
8
0
70
0
10
-201.334686
20
146.235962
30
-3.633657
11
-162.820618
21
180.066772
31
-38.239975
12
-214.599792
22
188.874329
32
-32.431435
13
-214.599792
23
188.874329
33
-32.431435
0
3DFACE
8
0
70
0
10
-231.672638
20
170.216858
30
-68.322624
11
-214.599792
21
188.874329
31
-32.431435
12
-162.820618
22
180.066772
32
-38.239975
13
-162.820618
23
180.066772
33
-38.239975
0
3DFACE
8
0
70
0
10
-231.672638
20
170.216858
30
-68.322624
11
-162.820618
21
180.066772
31
-38.239975
12
-167.561218
22
160.279144
32
-76.025940
13
-167.561218
23
160.279144
33
-76.025940
0
3DFACE
8
0
70
0
10
-221.277283
20
132.211975
30
-45.681686
11
-231.672638
21
170.216858
31
-68.322624
12
-167.561218
22
160.279144
32
-76.025940
13
-167.561218
23
160.279144
33
-76.025940
0
3DFACE
8
0
70
0
10
-221.277283
20
132.211975
30
-45.681686
11
-167.561218
21
160.279144
31
-76.025940
12
-174.934677
22
125.537354
32
-49.616199
13
-174.934677
23
125.537354
33
-49.616199
0
3DFACE
8
0
70
0
10
144.634781
20
129.936035
30
98.519569
11
121.296082
21
145.087067
31
59.804005
12
161.848450
22
119.827423
32
58.069649
13
161.848450
23
119.827423
33
58.069649
0
3DFACE
8
0
70
0
10
144.634781
20
129.936035
30
98.519569
11
112.967812
21
144.049652
31
64.454552
12
121.296082
22
145.087067
32
59.804005
13
121.296082
23
145.087067
33
59.804005
0
3DFACE
8
0
70
0
10
112.967812
20
144.049652
30
64.454552
11
159.989105
21
173.199127
31
38.120583
12
121.296082
22
145.087067
32
59.804005
13
121.296082
23
145.087067
33
59.804005
0
3DFACE
8
0
70
0
10
112.967812
20
144.049652
30
64.454552
11
138.133392
21
186.399963
31
84.365547
12
159.989105
22
173.199127
32
38.120583
13
159.989105
23
173.199127
33
38.120583
0
3DFACE
8
0
70
0
10
164.718414
20
167.695007
30
113.880310
11
193.244537
21
145.526794
31
39.367264
12
159.989105
22
173.199127
32
38.120583
13
159.989105
23
173.199127
33
38.120583
0
3DFACE
8
0
70
0
10
164.718414
20
167.695007
30
113.880310
11
159.989105
21
173.199127
31
38.120583
12
138.133392
22
186.399963
32
84.365547
13
138.133392
23
186.399963
33
84.365547
0
3DFACE
8
0
70
0
10
144.634781
20
129.936035
30
98.519569
11
161.848450
21
119.827423
31
58.069649
12
193.244537
22
145.526794
32
39.367264
13
193.244537
23
145.526794
33
39.367264
0
3DFACE
8
0
70
0
10
144.634781
20
129.936035
30
98.519569
11
193.244537
21
145.526794
31
39.367264
12
164.718414
22
167.695007
32
113.880310
13
164.718414
23
167.695007
33
113.880310
0
3DFACE
8
0
70
0
10
-12.064401
20
314.180176
30
-65.453667
11
-8.347484
21
311.001160
31
-64.068130
12
-10.802660
22
317.920258
32
-33.476097
13
-25.820559
23
325.660736
33
-32.425488
0
3DFACE
8
0
70
0
10
-3.364307
20
311.990204
30
-64.244591
11
5.251207
21
317.839386
31
-28.107388
12
-10.802660
22
317.920258
32
-33.476097
13
-8.347484
23
311.001160
33
-64.068130
0
3DFACE
8
0
70
0
10
0.494823
20
314.348785
30
-64.998215
11
16.446297
21
320.899750
31
-21.894169
12
5.251207
22
317.839386
32
-28.107388
13
-3.364307
23
311.990204
33
-64.244591
0
3DFACE
8
0
70
0
10
0.788236
20
317.681519
30
-66.277016
11
14.847183
21
327.315796
31
-17.351885
12
16.446297
22
320.899750
32
-21.894169
13
0.494823
23
314.348785
33
-64.998215
0
3DFACE
8
0
70
0
10
1.250472
20
321.788330
30
-67.848656
11
13.216505
21
335.181305
31
-11.671902
12
14.847183
22
327.315796
32
-17.351885
13
0.788236
23
317.681519
33
-66.277016
0
3DFACE
8
0
70
0
10
-1.420522
20
324.511078
30
-69.014084
11
2.084013
21
341.603058
31
-10.351255
12
13.216505
22
335.181305
32
-11.671902
13
1.250472
23
321.788330
33
-67.848656
0
3DFACE
8
0
70
0
10
-3.704936
20
326.282715
30
-69.795067
11
-7.004415
21
346.003143
31
-9.940677
12
2.084013
22
341.603058
32
-10.351255
13
-1.420522
23
324.511078
33
-69.014084
0
3DFACE
8
0
70
0
10
-3.704936
20
326.282715
30
-69.795067
11
-6.664764
21
325.831146
31
-69.742889
12
-16.645422
22
346.317627
32
-12.954121
13
-7.004415
23
346.003143
33
-9.940677
0
3DFACE
8
0
70
0
10
-6.664764
20
325.831146
30
-69.742889
11
-10.493083
21
324.744385
31
-69.480682
12
-28.724762
22
345.738708
32
-17.500559
13
-16.645422
23
346.317627
33
-12.954121
0
3DFACE
8
0
70
0
10
-10.493083
20
324.744385
30
-69.480682
11
-12.414556
21
321.004913
31
-68.111832
12
-32.305645
22
339.185089
32
-23.904802
13
-28.724762
23
345.738708
33
-17.500559
0
3DFACE
8
0
70
0
10
-12.414556
20
321.004913
30
-68.111832
11
-14.043943
21
318.008484
31
-67.018700
12
-35.477871
22
333.970062
32
-29.110168
13
-32.305645
23
339.185089
33
-23.904802
0
3DFACE
8
0
70
0
10
-14.043943
20
318.008484
30
-67.018700
11
-12.064401
21
314.180176
31
-65.453667
12
-25.820559
22
325.660736
32
-32.425488
13
-35.477871
23
333.970062
33
-29.110168
0
ENDSEC
0
EOF
