0
SECTION
2
HEADER
999
DXF File Generated by LightWave 3D(TM)
0
ENDSEC
0
SECTION
2
TABLES
0
ENDSEC
0
SECTION
2
BLOCKS
0
ENDSEC
0
SECTION
2
ENTITIES
0
3DFACE
8
0
70
0
10
-160.304398
20
-125.921043
30
-1.079878
11
-143.829865
21
-125.563087
31
-0.660487
12
-143.802612
22
-106.941460
32
-0.899073
13
-160.204559
23
-107.148529
33
-1.071671
0
3DFACE
8
0
70
0
10
-143.829865
20
-125.563087
30
-0.660487
11
-126.829338
21
-125.563362
31
-1.014077
12
-127.329636
22
-106.896904
32
-1.622781
13
-143.802612
23
-106.941460
33
-0.899073
0
3DFACE
8
0
70
0
10
-126.829338
20
-125.563362
30
-1.014077
11
-108.214012
21
-126.375816
31
-2.329542
12
-109.156776
22
-107.430244
32
-2.951586
13
-127.329636
23
-106.896904
33
-1.622781
0
3DFACE
8
0
70
0
10
-108.214012
20
-126.375816
30
-2.329542
11
-88.863617
21
-127.570023
31
-3.764030
12
-89.319214
22
-108.365997
32
-3.731558
13
-109.156776
23
-107.430244
33
-2.951586
0
3DFACE
8
0
70
0
10
-88.863617
20
-127.570023
30
-3.764030
11
-71.031586
21
-128.043396
31
-4.068779
12
-70.043694
22
-108.804359
32
-2.905516
13
-89.319214
23
-108.365997
33
-3.731558
0
3DFACE
8
0
70
0
10
-71.031586
20
-128.043396
30
-4.068779
11
-55.980091
21
-127.072571
31
-2.591391
12
-53.594063
22
-107.849968
32
-0.446987
13
-70.043694
23
-108.804359
33
-2.905516
0
3DFACE
8
0
70
0
10
-55.980091
20
-127.072571
30
-2.591391
11
-42.128376
21
-125.168610
31
0.190927
12
-39.595558
22
-105.613182
32
2.507563
13
-53.594063
23
-107.849968
33
-0.446987
0
3DFACE
8
0
70
0
10
-42.128376
20
-125.168610
30
0.190927
11
-26.135904
21
-123.760963
31
2.986228
12
-25.129843
22
-103.443527
32
4.383855
13
-39.595558
23
-105.613182
33
2.507563
0
3DFACE
8
0
70
0
10
-26.135904
20
-123.760963
30
2.986228
11
-6.124380
21
-123.854637
31
4.530354
12
-7.282416
22
-102.966835
32
4.146118
13
-25.129843
23
-103.443527
33
4.383855
0
3DFACE
8
0
70
0
10
-6.124380
20
-123.854637
30
4.530354
11
16.316519
21
-124.900688
31
4.298083
12
14.208533
22
-104.645447
32
1.833267
13
-7.282416
23
-102.966835
33
4.146118
0
3DFACE
8
0
70
0
10
16.316519
20
-124.900688
30
4.298083
11
37.295685
21
-125.051239
31
2.641210
12
36.524029
22
-107.156387
32
-1.608277
13
14.208533
23
-104.645447
33
1.833267
0
3DFACE
8
0
70
0
10
37.295685
20
-125.051239
30
2.641210
11
53.907997
21
-122.730042
31
0.396302
12
55.965225
22
-108.266937
32
-4.950018
13
36.524029
23
-107.156387
33
-1.608277
0
3DFACE
8
0
70
0
10
53.907997
20
-122.730042
30
0.396302
11
66.693321
21
-118.181458
31
-1.658689
12
70.893471
22
-106.583580
32
-7.298951
13
55.965225
23
-108.266937
33
-4.950018
0
3DFACE
8
0
70
0
10
66.693321
20
-118.181458
30
-1.658689
11
79.148407
21
-113.576019
31
-3.129703
12
82.966591
22
-102.737747
32
-8.370688
13
70.893471
23
-106.583580
33
-7.298951
0
3DFACE
8
0
70
0
10
79.148407
20
-113.576019
30
-3.129703
11
94.811234
21
-111.466751
31
-4.001446
12
95.751251
22
-98.995605
32
-8.377678
13
82.966591
23
-102.737747
33
-8.370688
0
3DFACE
8
0
70
0
10
94.811234
20
-111.466751
30
-4.001446
11
114.471222
21
-112.825562
31
-4.448599
12
111.980530
22
-97.576004
32
-7.730453
13
95.751251
23
-98.995605
33
-8.377678
0
3DFACE
8
0
70
0
10
114.471222
20
-112.825562
30
-4.448599
11
135.587540
21
-117.309555
31
-4.305309
12
131.934494
22
-99.869354
32
-6.193388
13
111.980530
23
-97.576004
33
-7.730453
0
3DFACE
8
0
70
0
10
135.587540
20
-117.309555
30
-4.305309
11
154.344604
21
-120.524750
31
-4.114916
12
152.075699
22
-102.845512
32
-4.859411
13
131.934494
23
-99.869354
33
-6.193388
0
3DFACE
8
0
70
0
10
154.344604
20
-120.524750
30
-4.114916
11
170.045563
21
-121.321693
31
-4.069182
12
170.085114
22
-104.486526
32
-3.933326
13
152.075699
23
-102.845512
33
-4.859411
0
3DFACE
8
0
70
0
10
170.045563
20
-121.321693
30
-4.069182
11
184.352081
21
-120.590294
31
-4.242619
12
185.773819
22
-104.278709
32
-3.553248
13
170.085114
23
-104.486526
33
-3.933326
0
3DFACE
8
0
70
0
10
184.352081
20
-120.590294
30
-4.242619
11
199.595901
21
-120.092438
31
-4.509423
12
200.688522
22
-103.155243
32
-3.727323
13
185.773819
23
-104.278709
33
-3.553248
0
3DFACE
8
0
70
0
10
199.595901
20
-120.092438
30
-4.509423
11
217.082977
21
-121.023796
31
-4.517210
12
216.717865
22
-102.501312
32
-4.179730
13
200.688522
23
-103.155243
33
-3.727323
0
3DFACE
8
0
70
0
10
-160.204559
20
-107.148529
30
-1.071671
11
-143.802612
21
-106.941460
31
-0.899073
12
-143.607513
22
-88.405228
32
-1.194013
13
-160.101257
23
-88.409813
33
-1.110145
0
3DFACE
8
0
70
0
10
-143.802612
20
-106.941460
30
-0.899073
11
-127.329636
21
-106.896904
31
-1.622781
12
-127.220688
22
-88.205788
32
-2.097617
13
-143.607513
23
-88.405228
33
-1.194013
0
3DFACE
8
0
70
0
10
-127.329636
20
-106.896904
30
-1.622781
11
-109.156776
21
-107.430244
31
-2.951586
12
-109.216141
22
-88.123886
32
-3.118778
13
-127.220688
23
-88.205788
33
-2.097617
0
3DFACE
8
0
70
0
10
-109.156776
20
-107.430244
30
-2.951586
11
-89.319214
21
-108.365997
31
-3.731558
12
-89.318642
22
-88.457512
32
-3.063747
13
-109.216141
23
-88.123886
33
-3.118778
0
3DFACE
8
0
70
0
10
-89.319214
20
-108.365997
30
-3.731558
11
-70.043694
21
-108.804359
31
-2.905516
12
-69.424583
22
-88.942787
32
-1.354753
13
-89.318642
23
-88.457512
33
-3.063747
0
3DFACE
8
0
70
0
10
-70.043694
20
-108.804359
30
-2.905516
11
-53.594063
21
-107.849968
31
-0.446987
12
-51.862598
22
-88.813301
32
1.339999
13
-69.424583
23
-88.942787
33
-1.354753
0
3DFACE
8
0
70
0
10
-53.594063
20
-107.849968
30
-0.446987
11
-39.595558
21
-105.613182
31
2.507563
12
-37.262897
22
-87.583107
32
3.476060
13
-51.862598
23
-88.813301
33
1.339999
0
3DFACE
8
0
70
0
10
-39.595558
20
-105.613182
30
2.507563
11
-25.129843
21
-103.443527
31
4.383855
12
-23.741898
22
-85.813675
32
3.646888
13
-37.262897
23
-87.583107
33
3.476060
0
3DFACE
8
0
70
0
10
-25.129843
20
-103.443527
30
4.383855
11
-7.282416
21
-102.966835
31
4.146118
12
-8.223674
22
-84.975342
32
1.437924
13
-23.741898
23
-85.813675
33
3.646888
0
3DFACE
8
0
70
0
10
-7.282416
20
-102.966835
30
4.146118
11
14.208533
21
-104.645447
31
1.833267
12
11.075456
22
-86.313225
32
-2.428737
13
-8.223674
23
-84.975342
33
1.437924
0
3DFACE
8
0
70
0
10
14.208533
20
-104.645447
30
1.833267
11
36.524029
21
-107.156387
31
-1.608277
12
33.103573
22
-89.634468
32
-6.613852
13
11.075456
23
-86.313225
33
-2.428737
0
3DFACE
8
0
70
0
10
36.524029
20
-107.156387
30
-1.608277
11
55.965225
21
-108.266937
31
-4.950018
12
54.679764
22
-93.144798
32
-9.892111
13
33.103573
23
-89.634468
33
-6.613852
0
3DFACE
8
0
70
0
10
55.965225
20
-108.266937
30
-4.950018
11
70.893471
21
-106.583580
31
-7.298951
12
72.861107
22
-94.615898
32
-11.642618
13
54.679764
23
-93.144798
33
-9.892111
0
3DFACE
8
0
70
0
10
70.893471
20
-106.583580
30
-7.298951
11
82.966591
21
-102.737747
31
-8.370688
12
87.081238
22
-93.012489
32
-11.917400
13
72.861107
23
-94.615898
33
-11.642618
0
3DFACE
8
0
70
0
10
82.966591
20
-102.737747
30
-8.370688
11
95.751251
21
-98.995605
31
-8.377678
12
99.438942
22
-89.284103
32
-11.184711
13
87.081238
23
-93.012489
33
-11.917400
0
3DFACE
8
0
70
0
10
95.751251
20
-98.995605
30
-8.377678
11
111.980530
21
-97.576004
31
-7.730453
12
113.066269
22
-85.692444
32
-9.976185
13
99.438942
23
-89.284103
33
-11.184711
0
3DFACE
8
0
70
0
10
111.980530
20
-97.576004
30
-7.730453
11
131.934494
21
-99.869354
31
-6.193388
12
130.374191
22
-84.625992
32
-7.831756
13
113.066269
23
-85.692444
33
-9.976185
0
3DFACE
8
0
70
0
10
131.934494
20
-99.869354
30
-6.193388
11
152.075699
21
-102.845512
31
-4.859411
12
149.857651
22
-85.733902
32
-5.980175
13
130.374191
23
-84.625992
33
-7.831756
0
3DFACE
8
0
70
0
10
152.075699
20
-102.845512
30
-4.859411
11
170.085114
21
-104.486526
31
-3.933326
12
169.036606
22
-87.320686
32
-4.473248
13
149.857651
23
-85.733902
33
-5.980175
0
3DFACE
8
0
70
0
10
170.085114
20
-104.486526
30
-3.933326
11
185.773819
21
-104.278709
31
-3.553248
12
186.356918
22
-88.001877
32
-3.431530
13
169.036606
23
-87.320686
33
-4.473248
0
3DFACE
8
0
70
0
10
185.773819
20
-104.278709
30
-3.553248
11
200.688522
21
-103.155243
31
-3.727323
12
202.025635
22
-87.552963
32
-3.048550
13
186.356918
23
-88.001877
33
-3.431530
0
3DFACE
8
0
70
0
10
200.688522
20
-103.155243
30
-3.727323
11
216.717865
21
-102.501312
31
-4.179730
12
217.560791
22
-86.736244
32
-3.339592
13
202.025635
23
-87.552963
33
-3.048550
0
3DFACE
8
0
70
0
10
-160.101257
20
-88.409813
30
-1.110145
11
-143.607513
21
-88.405228
31
-1.194013
12
-142.474823
22
-69.862556
32
-1.455851
13
-159.376663
23
-69.661873
33
-1.171266
0
3DFACE
8
0
70
0
10
-143.607513
20
-88.405228
30
-1.194013
11
-127.220688
21
-88.205788
31
-2.097617
12
-125.744949
22
-69.515266
32
-2.356670
13
-142.474823
23
-69.862556
33
-1.455851
0
3DFACE
8
0
70
0
10
-127.220688
20
-88.205788
30
-2.097617
11
-109.216141
21
-88.123886
31
-3.118778
12
-108.150909
22
-68.762146
32
-2.917278
13
-125.744949
23
-69.515266
33
-2.356670
0
3DFACE
8
0
70
0
10
-109.216141
20
-88.123886
30
-3.118778
11
-89.318642
21
-88.457512
31
-3.063747
12
-89.233986
22
-68.387436
32
-2.134280
13
-108.150909
23
-68.762146
33
-2.917278
0
3DFACE
8
0
70
0
10
-89.318642
20
-88.457512
30
-3.063747
11
-69.424583
21
-88.942787
31
-1.354753
12
-69.883583
22
-68.946686
32
-0.014731
13
-89.233986
23
-68.387436
33
-2.134280
0
3DFACE
8
0
70
0
10
-69.424583
20
-88.942787
30
-1.354753
11
-51.862598
21
-88.813301
31
1.339999
12
-51.835804
22
-70.039108
32
2.229827
13
-69.883583
23
-68.946686
33
-0.014731
0
3DFACE
8
0
70
0
10
-51.862598
20
-88.813301
30
1.339999
11
-37.262897
21
-87.583107
31
3.476060
12
-36.203289
22
-70.584671
32
3.004677
13
-51.835804
23
-70.039108
33
2.229827
0
3DFACE
8
0
70
0
10
-37.262897
20
-87.583107
30
3.476060
11
-23.741898
21
-85.813675
31
3.646888
12
-22.325245
22
-69.924225
32
1.436032
13
-36.203289
23
-70.584671
33
3.004677
0
3DFACE
8
0
70
0
10
-23.741898
20
-85.813675
30
3.646888
11
-8.223674
21
-84.975342
31
1.437924
12
-7.990359
22
-68.660110
32
-2.105659
13
-22.325245
23
-69.924225
33
1.436032
0
3DFACE
8
0
70
0
10
-8.223674
20
-84.975342
30
1.437924
11
11.075456
21
-86.313225
31
-2.428737
12
9.036086
22
-68.330513
32
-6.337285
13
-7.990359
23
-68.660110
33
-2.105659
0
3DFACE
8
0
70
0
10
11.075456
20
-86.313225
30
-2.428737
11
33.103573
21
-89.634468
31
-6.613852
12
29.320271
22
-70.102539
32
-9.859035
13
9.036086
23
-68.330513
33
-6.337285
0
3DFACE
8
0
70
0
10
33.103573
20
-89.634468
30
-6.613852
11
54.679764
21
-93.144798
31
-9.892111
12
51.219475
22
-73.620415
32
-11.825101
13
29.320271
23
-70.102539
33
-9.859035
0
3DFACE
8
0
70
0
10
54.679764
20
-93.144798
30
-9.892111
11
72.861107
21
-94.615898
31
-11.642618
12
71.943268
22
-77.048859
32
-12.158889
13
51.219475
23
-73.620415
33
-11.825101
0
3DFACE
8
0
70
0
10
72.861107
20
-94.615898
30
-11.642618
11
87.081238
21
-93.012489
31
-11.917400
12
89.454720
22
-78.325096
32
-11.353597
13
71.943268
23
-77.048859
33
-12.158889
0
3DFACE
8
0
70
0
10
87.081238
20
-93.012489
30
-11.917400
11
99.438942
21
-89.284103
31
-11.184711
12
103.802574
22
-76.632294
32
-10.099382
13
89.454720
23
-78.325096
33
-11.353597
0
3DFACE
8
0
70
0
10
99.438942
20
-89.284103
30
-11.184711
11
113.066269
21
-85.692444
31
-9.976185
12
116.985962
22
-72.964462
32
-8.957160
13
103.802574
23
-76.632294
33
-10.099382
0
3DFACE
8
0
70
0
10
113.066269
20
-85.692444
30
-9.976185
11
130.374191
21
-84.625992
31
-7.831756
12
131.809433
22
-69.374641
32
-7.401672
13
116.985962
23
-72.964462
33
-8.957160
0
3DFACE
8
0
70
0
10
130.374191
20
-84.625992
30
-7.831756
11
149.857651
21
-85.733902
31
-5.980175
12
149.221985
22
-67.898781
32
-6.189943
13
131.809433
23
-69.374641
33
-7.401672
0
3DFACE
8
0
70
0
10
149.857651
20
-85.733902
30
-5.980175
11
169.036606
21
-87.320686
31
-4.473248
12
167.831741
22
-68.136963
32
-5.047797
13
149.221985
23
-67.898781
33
-6.189943
0
3DFACE
8
0
70
0
10
169.036606
20
-87.320686
30
-4.473248
11
186.356918
21
-88.001877
31
-3.431530
12
185.798050
22
-68.920380
32
-3.908116
13
167.831741
23
-68.136963
33
-5.047797
0
3DFACE
8
0
70
0
10
186.356918
20
-88.001877
30
-3.431530
11
202.025635
21
-87.552963
31
-3.048550
12
202.265045
22
-69.403572
32
-3.036397
13
185.798050
23
-68.920380
33
-3.908116
0
3DFACE
8
0
70
0
10
202.025635
20
-87.552963
30
-3.048550
11
217.560791
21
-86.736244
31
-3.339592
12
217.918579
22
-69.559761
32
-2.790252
13
202.265045
23
-69.403572
33
-3.036397
0
3DFACE
8
0
70
0
10
-159.376663
20
-69.661873
30
-1.171266
11
-142.474823
21
-69.862556
31
-1.455851
12
-141.397400
22
-51.244331
32
-1.634071
13
-158.532913
23
-50.866879
33
-1.231558
0
3DFACE
8
0
70
0
10
-142.474823
20
-69.862556
30
-1.455851
11
-125.744949
21
-69.515266
31
-2.356670
12
-124.291107
22
-50.893749
32
-2.416399
13
-141.397400
23
-51.244331
33
-1.634071
0
3DFACE
8
0
70
0
10
-125.744949
20
-69.515266
30
-2.356670
11
-108.150909
21
-68.762146
31
-2.917278
12
-106.958557
22
-49.698196
32
-2.538565
13
-124.291107
23
-50.893749
33
-2.416399
0
3DFACE
8
0
70
0
10
-108.150909
20
-68.762146
30
-2.917278
11
-89.233986
21
-68.387436
31
-2.134280
12
-89.258911
22
-48.684456
32
-1.302833
13
-106.958557
23
-49.698196
33
-2.538565
0
3DFACE
8
0
70
0
10
-89.233986
20
-68.387436
30
-2.134280
11
-69.883583
21
-68.946686
31
-0.014731
12
-71.330605
22
-49.097916
32
0.780537
13
-89.258911
23
-48.684456
33
-1.302833
0
3DFACE
8
0
70
0
10
-69.883583
20
-68.946686
30
-0.014731
11
-51.835804
21
-70.039108
31
2.229827
12
-53.652275
22
-51.077187
32
2.228183
13
-71.330605
23
-49.097916
33
0.780537
0
3DFACE
8
0
70
0
10
-51.835804
20
-70.039108
30
2.229827
11
-36.203289
21
-70.584671
31
3.004677
12
-36.844002
22
-53.293301
32
1.695365
13
-53.652275
23
-51.077187
33
2.228183
0
3DFACE
8
0
70
0
10
-36.203289
20
-70.584671
30
3.004677
11
-22.325245
21
-69.924225
31
1.436032
12
-21.171452
22
-54.002602
32
-1.023680
13
-36.844002
23
-53.293301
33
1.695365
0
3DFACE
8
0
70
0
10
-22.325245
20
-69.924225
30
1.436032
11
-7.990359
21
-68.660110
31
-2.105659
12
-6.072852
22
-52.596737
32
-4.886644
13
-21.171452
23
-54.002602
33
-1.023680
0
3DFACE
8
0
70
0
10
-7.990359
20
-68.660110
30
-2.105659
11
9.036086
21
-68.330513
31
-6.337285
12
9.768808
22
-50.243790
32
-8.336405
13
-6.072852
23
-52.596737
33
-4.886644
0
3DFACE
8
0
70
0
10
9.036086
20
-68.330513
30
-6.337285
11
29.320271
21
-70.102539
31
-9.859035
12
27.622238
22
-49.028004
32
-10.210989
13
9.768808
23
-50.243790
33
-8.336405
0
3DFACE
8
0
70
0
10
29.320271
20
-70.102539
30
-9.859035
11
51.219475
21
-73.620415
31
-11.825101
12
47.677021
22
-50.310040
32
-10.216594
13
27.622238
23
-49.028004
33
-10.210989
0
3DFACE
8
0
70
0
10
51.219475
20
-73.620415
30
-11.825101
11
71.943268
21
-77.048859
31
-12.158889
12
68.661430
22
-53.658180
32
-8.835721
13
47.677021
23
-50.310040
33
-10.216594
0
3DFACE
8
0
70
0
10
71.943268
20
-77.048859
30
-12.158889
11
89.454720
21
-78.325096
31
-11.353597
12
88.571556
22
-57.145195
32
-6.918880
13
68.661430
23
-53.658180
33
-8.835721
0
3DFACE
8
0
70
0
10
89.454720
20
-78.325096
30
-11.353597
11
103.802574
21
-76.632294
31
-10.099382
12
105.995308
22
-58.698715
32
-5.279617
13
88.571556
23
-57.145195
33
-6.918880
0
3DFACE
8
0
70
0
10
103.802574
20
-76.632294
30
-10.099382
11
116.985962
21
-72.964462
31
-8.957160
12
121.084740
22
-57.476852
32
-4.473486
13
105.995308
23
-58.698715
33
-5.279617
0
3DFACE
8
0
70
0
10
116.985962
20
-72.964462
30
-8.957160
11
131.809433
21
-69.374641
31
-7.401672
12
135.306366
22
-53.855331
32
-4.288338
13
121.084740
23
-57.476852
33
-4.473486
0
3DFACE
8
0
70
0
10
131.809433
20
-69.374641
30
-7.401672
11
149.221985
21
-67.898781
31
-6.189943
12
150.958496
22
-50.641094
32
-4.614095
13
135.306366
23
-53.855331
33
-4.288338
0
3DFACE
8
0
70
0
10
149.221985
20
-67.898781
30
-6.189943
11
167.831741
21
-68.136963
31
-5.047797
12
168.062408
22
-48.795975
32
-4.794827
13
150.958496
23
-50.641094
33
-4.614095
0
3DFACE
8
0
70
0
10
167.831741
20
-68.136963
30
-5.047797
11
185.798050
21
-68.920380
31
-3.908116
12
185.405121
22
-48.196922
32
-4.416324
13
168.062408
23
-48.795975
33
-4.794827
0
3DFACE
8
0
70
0
10
185.798050
20
-68.920380
30
-3.908116
11
202.265045
21
-69.403572
31
-3.036397
12
201.810043
22
-48.318546
32
-3.586575
13
185.405121
23
-48.196922
33
-4.416324
0
3DFACE
8
0
70
0
10
202.265045
20
-69.403572
30
-3.036397
11
217.918579
21
-69.559761
31
-2.790252
12
217.297943
22
-48.890778
32
-2.852682
13
201.810043
23
-48.318546
33
-3.586575
0
3DFACE
8
0
70
0
10
-158.532913
20
-50.866879
30
-1.231558
11
-141.397400
21
-51.244331
31
-1.634071
12
-141.126007
22
-32.497097
32
-1.719210
13
-158.533142
23
-32.005802
33
-1.276844
0
3DFACE
8
0
70
0
10
-141.397400
20
-51.244331
30
-1.634071
11
-124.291107
21
-50.893749
31
-2.416399
12
-123.185822
22
-32.347809
32
-2.345166
13
-141.126007
23
-32.497097
33
-1.719210
0
3DFACE
8
0
70
0
10
-124.291107
20
-50.893749
30
-2.416399
11
-106.958557
21
-49.698196
31
-2.538565
12
-105.556511
22
-31.119362
32
-2.162367
13
-123.185822
23
-32.347809
33
-2.345166
0
3DFACE
8
0
70
0
10
-106.958557
20
-49.698196
30
-2.538565
11
-89.258911
21
-48.684456
31
-1.302833
12
-88.949326
22
-29.682240
32
-0.773688
13
-105.556511
23
-31.119362
33
-2.162367
0
3DFACE
8
0
70
0
10
-89.258911
20
-48.684456
30
-1.302833
11
-71.330605
21
-49.097916
31
0.780537
12
-73.009010
22
-29.584614
32
1.003341
13
-88.949326
23
-29.682240
33
-0.773688
0
3DFACE
8
0
70
0
10
-71.330605
20
-49.097916
30
0.780537
11
-53.652275
21
-51.077187
31
2.228183
12
-56.598461
22
-31.560120
32
1.684374
13
-73.009010
23
-29.584614
33
1.003341
0
3DFACE
8
0
70
0
10
-53.652275
20
-51.077187
30
2.228183
11
-36.844002
21
-53.293301
31
1.695365
12
-39.018867
22
-34.608753
32
0.317040
13
-56.598461
23
-31.560120
33
1.684374
0
3DFACE
8
0
70
0
10
-36.844002
20
-53.293301
30
1.695365
11
-21.171452
21
-54.002602
31
-1.023680
12
-20.802425
22
-36.584526
32
-2.747777
13
-39.018867
23
-34.608753
33
0.317040
0
3DFACE
8
0
70
0
10
-21.171452
20
-54.002602
30
-1.023680
11
-6.072852
21
-52.596737
31
-4.886644
12
-3.176922
22
-35.849266
32
-6.104760
13
-20.802425
23
-36.584526
33
-2.747777
0
3DFACE
8
0
70
0
10
-6.072852
20
-52.596737
30
-4.886644
11
9.768808
21
-50.243790
31
-8.336405
12
13.248227
22
-32.611897
32
-8.236677
13
-3.176922
23
-35.849266
33
-6.104760
0
3DFACE
8
0
70
0
10
9.768808
20
-50.243790
30
-8.336405
11
27.622238
21
-49.028004
31
-10.210989
12
29.199230
22
-28.869411
32
-8.360374
13
13.248227
23
-32.611897
33
-8.236677
0
3DFACE
8
0
70
0
10
27.622238
20
-49.028004
30
-10.210989
11
47.677021
21
-50.310040
31
-10.216594
12
46.118557
22
-27.028301
32
-6.651323
13
29.199230
23
-28.869411
33
-8.360374
0
3DFACE
8
0
70
0
10
47.677021
20
-50.310040
30
-10.216594
11
68.661430
21
-53.658180
31
-8.835721
12
64.812912
22
-28.292137
32
-3.918119
13
46.118557
23
-27.028301
33
-6.651323
0
3DFACE
8
0
70
0
10
68.661430
20
-53.658180
30
-8.835721
11
88.571556
21
-57.145195
31
-6.918880
12
84.710869
22
-31.974087
32
-1.143222
13
64.812912
23
-28.292137
33
-3.918119
0
3DFACE
8
0
70
0
10
88.571556
20
-57.145195
30
-6.918880
11
105.995308
21
-58.698715
31
-5.279617
12
104.290962
22
-36.043232
32
0.854969
13
84.710869
23
-31.974087
33
-1.143222
0
3DFACE
8
0
70
0
10
105.995308
20
-58.698715
30
-5.279617
11
121.084740
21
-57.476852
31
-4.473486
12
122.315041
22
-38.460423
32
1.505315
13
104.290962
23
-36.043232
33
0.854969
0
3DFACE
8
0
70
0
10
121.084740
20
-57.476852
30
-4.473486
11
135.306366
21
-53.855331
31
-4.288338
12
138.297989
22
-37.555130
32
0.376208
13
122.315041
23
-38.460423
33
1.505315
0
3DFACE
8
0
70
0
10
135.306366
20
-53.855331
30
-4.288338
11
150.958496
21
-50.641094
31
-4.614095
12
154.054443
22
-34.925434
32
-1.614328
13
138.297989
23
-37.555130
33
0.376208
0
3DFACE
8
0
70
0
10
150.958496
20
-50.641094
30
-4.614095
11
168.062408
21
-48.795975
31
-4.794827
12
170.352310
22
-31.954893
32
-3.531064
13
154.054443
23
-34.925434
33
-1.614328
0
3DFACE
8
0
70
0
10
168.062408
20
-48.795975
30
-4.794827
11
185.405121
21
-48.196922
31
-4.416324
12
186.779175
22
-29.475863
32
-4.549405
13
170.352310
23
-31.954893
33
-3.531064
0
3DFACE
8
0
70
0
10
185.405121
20
-48.196922
30
-4.416324
11
201.810043
21
-48.318546
31
-3.586575
12
202.400345
22
-27.816633
32
-4.389003
13
186.779175
23
-29.475863
33
-4.549405
0
3DFACE
8
0
70
0
10
201.810043
20
-48.318546
30
-3.586575
11
217.297943
21
-48.890778
31
-2.852682
12
217.016418
22
-27.163351
32
-3.512351
13
202.400345
23
-27.816633
33
-4.389003
0
3DFACE
8
0
70
0
10
-158.533142
20
-32.005802
30
-1.276844
11
-141.126007
21
-32.497097
31
-1.719210
12
-141.144241
22
-13.581106
32
-1.726235
13
-158.705215
23
-13.082844
33
-1.302335
0
3DFACE
8
0
70
0
10
-141.126007
20
-32.497097
30
-1.719210
11
-123.185822
21
-32.347809
31
-2.345166
12
-122.341713
22
-13.776215
32
-2.211832
13
-141.144241
23
-13.581106
33
-1.726235
0
3DFACE
8
0
70
0
10
-123.185822
20
-32.347809
30
-2.345166
11
-105.556511
21
-31.119362
31
-2.162367
12
-104.045761
22
-12.950476
32
-1.889245
13
-122.341713
23
-13.776215
33
-2.211832
0
3DFACE
8
0
70
0
10
-105.556511
20
-31.119362
30
-2.162367
11
-88.949326
21
-29.682240
31
-0.773688
12
-88.054642
22
-11.454750
32
-0.580455
13
-104.045761
23
-12.950476
33
-1.889245
0
3DFACE
8
0
70
0
10
-88.949326
20
-29.682240
30
-0.773688
11
-73.009010
21
-29.584614
31
1.003341
12
-74.028969
22
-10.629670
32
0.808098
13
-88.054642
23
-11.454750
33
-0.580455
0
3DFACE
8
0
70
0
10
-73.009010
20
-29.584614
30
1.003341
11
-56.598461
21
-31.560120
31
1.684374
12
-59.487198
22
-11.650408
32
0.982115
13
-74.028969
23
-10.629670
33
0.808098
0
3DFACE
8
0
70
0
10
-56.598461
20
-31.560120
30
1.684374
11
-39.018867
21
-34.608753
31
0.317040
12
-42.064716
22
-14.341840
32
-0.633381
13
-59.487198
23
-11.650408
33
0.982115
0
3DFACE
8
0
70
0
10
-39.018867
20
-34.608753
30
0.317040
11
-20.802425
21
-36.584526
31
-2.747777
12
-21.755154
22
-17.059418
32
-3.389806
13
-42.064716
23
-14.341840
33
-0.633381
0
3DFACE
8
0
70
0
10
-20.802425
20
-36.584526
30
-2.747777
11
-3.176922
21
-35.849266
31
-6.104760
12
-0.944592
22
-17.790600
32
-5.876205
13
-21.755154
23
-17.059418
33
-3.389806
0
3DFACE
8
0
70
0
10
-3.176922
20
-35.849266
30
-6.104760
11
13.248227
21
-32.611897
31
-8.236677
12
17.691515
22
-15.611857
32
-6.846465
13
-0.944592
23
-17.790600
33
-5.876205
0
3DFACE
8
0
70
0
10
13.248227
20
-32.611897
30
-8.236677
11
29.199230
21
-28.869411
31
-8.360374
12
33.377899
22
-11.399661
32
-5.859810
13
17.691515
23
-15.611857
33
-6.846465
0
3DFACE
8
0
70
0
10
29.199230
20
-28.869411
30
-8.360374
11
46.118557
21
-27.028301
31
-6.651323
12
47.631718
22
-7.325962
32
-3.304081
13
33.377899
23
-11.399661
33
-5.859810
0
3DFACE
8
0
70
0
10
46.118557
20
-27.028301
30
-6.651323
11
64.812912
21
-28.292137
31
-3.918119
12
62.802551
22
-5.542017
32
0.002564
13
47.631718
23
-7.325962
33
-3.304081
0
3DFACE
8
0
70
0
10
64.812912
20
-28.292137
30
-3.918119
11
84.710869
21
-31.974087
31
-1.143222
12
80.230209
22
-6.963164
32
3.211934
13
62.802551
23
-5.542017
33
0.002564
0
3DFACE
8
0
70
0
10
84.710869
20
-31.974087
30
-1.143222
11
104.290962
21
-36.043232
31
0.854969
12
99.542107
22
-10.918246
32
5.569177
13
80.230209
23
-6.963164
33
3.211934
0
3DFACE
8
0
70
0
10
104.290962
20
-36.043232
30
0.854969
11
122.315041
21
-38.460423
31
1.505315
12
119.372299
22
-15.618661
32
6.463151
13
99.542107
23
-10.918246
33
5.569177
0
3DFACE
8
0
70
0
10
122.315041
20
-38.460423
30
1.505315
11
138.297989
21
-37.555130
31
0.376208
12
138.144867
22
-18.498821
32
4.708992
13
119.372299
23
-15.618661
33
6.463151
0
3DFACE
8
0
70
0
10
138.297989
20
-37.555130
30
0.376208
11
154.054443
21
-34.925434
31
-1.614328
12
155.927948
22
-18.823912
32
1.607444
13
138.144867
23
-18.498821
33
4.708992
0
3DFACE
8
0
70
0
10
154.054443
20
-34.925434
30
-1.614328
11
170.352310
21
-31.954893
31
-3.531064
12
173.198730
22
-17.145500
32
-1.818252
13
155.927948
23
-18.823912
33
1.607444
0
3DFACE
8
0
70
0
10
170.352310
20
-31.954893
30
-3.531064
11
186.779175
21
-29.475863
31
-4.549405
12
189.793716
22
-14.326951
32
-4.380298
13
173.198730
23
-17.145500
33
-1.818252
0
3DFACE
8
0
70
0
10
186.779175
20
-29.475863
30
-4.549405
11
202.400345
21
-27.816633
31
-4.389003
12
204.993057
22
-11.226073
32
-5.279306
13
189.793716
23
-14.326951
33
-4.380298
0
3DFACE
8
0
70
0
10
202.400345
20
-27.816633
30
-4.389003
11
217.016418
21
-27.163351
31
-3.512351
12
218.605850
22
-8.659382
32
-4.638481
13
204.993057
23
-11.226073
33
-5.279306
0
3DFACE
8
0
70
0
10
-158.705215
20
-13.082844
30
-1.302335
11
-141.144241
21
-13.581106
31
-1.726235
12
-141.425400
22
5.508133
32
-1.679056
13
-158.894073
23
5.874629
33
-1.310033
0
3DFACE
8
0
70
0
10
-141.144241
20
-13.581106
30
-1.726235
11
-122.341713
21
-13.776215
31
-2.211832
12
-122.014252
22
4.982002
32
-2.061018
13
-141.425400
23
5.508133
33
-1.679056
0
3DFACE
8
0
70
0
10
-122.341713
20
-13.776215
30
-2.211832
11
-104.045761
21
-12.950476
31
-1.889245
12
-102.831017
22
5.107472
32
-1.736950
13
-122.014252
23
4.982002
33
-2.061018
0
3DFACE
8
0
70
0
10
-104.045761
20
-12.950476
30
-1.889245
11
-88.054642
21
-11.454750
31
-0.580455
12
-86.688881
22
6.201231
32
-0.647224
13
-102.831017
23
5.107472
33
-1.736950
0
3DFACE
8
0
70
0
10
-88.054642
20
-11.454750
30
-0.580455
11
-74.028969
21
-10.629670
31
0.808098
12
-73.818352
22
7.580789
32
0.384481
13
-86.688881
23
6.201231
33
-0.647224
0
3DFACE
8
0
70
0
10
-74.028969
20
-10.629670
30
0.808098
11
-59.487198
21
-11.650408
31
0.982115
12
-61.157875
22
8.011714
32
0.346825
13
-73.818352
23
7.580789
33
0.384481
0
3DFACE
8
0
70
0
10
-59.487198
20
-11.650408
30
0.982115
11
-42.064716
21
-14.341840
31
-0.633381
12
-44.940506
22
6.741307
32
-1.057456
13
-61.157875
23
8.011714
33
0.346825
0
3DFACE
8
0
70
0
10
-42.064716
20
-14.341840
30
-0.633381
11
-21.755154
21
-17.059418
31
-3.389806
12
-24.022665
22
4.239034
32
-3.147498
13
-44.940506
23
6.741307
33
-1.057456
0
3DFACE
8
0
70
0
10
-21.755154
20
-17.059418
30
-3.389806
11
-0.944592
21
-17.790600
31
-5.876205
12
-0.843347
22
2.030183
32
-4.780724
13
-24.022665
23
4.239034
33
-3.147498
0
3DFACE
8
0
70
0
10
-0.944592
20
-17.790600
30
-5.876205
11
17.691515
21
-15.611857
31
-6.846465
12
20.641317
22
1.738563
32
-5.092856
13
-0.843347
23
2.030183
33
-4.780724
0
3DFACE
8
0
70
0
10
17.691515
20
-15.611857
30
-6.846465
11
33.377899
21
-11.399661
31
-5.859810
12
37.973412
22
4.018960
32
-3.868504
13
20.641317
23
1.738563
33
-5.092856
0
3DFACE
8
0
70
0
10
33.377899
20
-11.399661
30
-5.859810
11
47.631718
21
-7.325962
31
-3.304081
12
51.638401
22
8.083710
32
-1.431377
13
37.973412
23
4.018960
33
-3.868504
0
3DFACE
8
0
70
0
10
47.631718
20
-7.325962
30
-3.304081
11
62.802551
21
-5.542017
31
0.002564
12
64.184349
22
12.094036
32
1.660887
13
51.638401
23
8.083710
33
-1.431377
0
3DFACE
8
0
70
0
10
62.802551
20
-5.542017
30
0.002564
11
80.230209
21
-6.963164
31
3.211934
12
78.223213
22
14.159698
32
4.846601
13
64.184349
23
12.094036
33
1.660887
0
3DFACE
8
0
70
0
10
80.230209
20
-6.963164
30
3.211934
11
99.542107
21
-10.918246
31
5.569177
12
94.941910
22
13.217232
32
7.496843
13
78.223213
23
14.159698
33
4.846601
0
3DFACE
8
0
70
0
10
99.542107
20
-10.918246
30
5.569177
11
119.372299
21
-15.618661
31
6.463151
12
113.972076
22
9.540063
32
8.922599
13
94.941910
23
13.217232
33
7.496843
0
3DFACE
8
0
70
0
10
119.372299
20
-15.618661
30
6.463151
11
138.144867
21
-18.498821
31
4.708992
12
134.297699
22
4.606736
32
7.315031
13
113.972076
23
9.540063
33
8.922599
0
3DFACE
8
0
70
0
10
138.144867
20
-18.498821
30
4.708992
11
155.927948
21
-18.823912
31
1.607444
12
154.418274
22
0.971875
32
3.866047
13
134.297699
23
4.606736
33
7.315031
0
3DFACE
8
0
70
0
10
155.927948
20
-18.823912
30
1.607444
11
173.198730
21
-17.145500
31
-1.818252
12
173.935196
22
-0.523872
32
-0.484381
13
154.418274
23
0.971875
33
3.866047
0
3DFACE
8
0
70
0
10
173.198730
20
-17.145500
30
-1.818252
11
189.793716
21
-14.326951
31
-4.380298
12
192.219345
22
0.163657
32
-4.297604
13
173.935196
23
-0.523872
33
-0.484381
0
3DFACE
8
0
70
0
10
189.793716
20
-14.326951
30
-4.380298
11
204.993057
21
-11.226073
31
-5.279306
12
208.285873
22
2.493369
32
-6.266550
13
192.219345
23
0.163657
33
-4.297604
0
3DFACE
8
0
70
0
10
204.993057
20
-11.226073
30
-5.279306
11
218.605850
21
-8.659382
31
-4.638481
12
221.770889
22
5.537456
32
-6.052214
13
208.285873
23
2.493369
33
-6.266550
0
3DFACE
8
0
70
0
10
-158.894073
20
5.874629
30
-1.310033
11
-141.425400
21
5.508133
31
-1.679056
12
-141.893326
22
24.713717
32
-1.601003
13
-159.042404
23
24.822865
33
-1.305672
0
3DFACE
8
0
70
0
10
-141.425400
20
5.508133
30
-1.679056
11
-122.014252
21
4.982002
31
-2.061018
12
-122.318115
22
24.041800
32
-1.911492
13
-141.893326
23
24.713717
33
-1.601003
0
3DFACE
8
0
70
0
10
-122.014252
20
4.982002
30
-2.061018
11
-102.831017
21
5.107472
31
-1.736950
12
-102.307961
22
23.434298
32
-1.670461
13
-122.318115
23
24.041800
33
-1.911492
0
3DFACE
8
0
70
0
10
-102.831017
20
5.107472
30
-1.736950
11
-86.688881
21
6.201231
31
-0.647224
12
-85.298477
22
23.730011
32
-0.859096
13
-102.307961
23
23.434298
33
-1.670461
0
3DFACE
8
0
70
0
10
-86.688881
20
6.201231
30
-0.647224
11
-73.818352
21
7.580789
31
0.384481
12
-72.426140
22
25.113922
32
-0.122987
13
-85.298477
23
23.730011
33
-0.859096
0
3DFACE
8
0
70
0
10
-73.818352
20
7.580789
30
0.384481
11
-61.157875
21
8.011714
31
0.346825
12
-60.970627
22
26.771282
32
-0.173419
13
-72.426140
23
25.113922
33
-0.122987
0
3DFACE
8
0
70
0
10
-61.157875
20
8.011714
30
0.346825
11
-44.940506
21
6.741307
31
-1.057456
12
-46.533833
22
27.398821
32
-1.132270
13
-60.970627
23
26.771282
33
-0.173419
0
3DFACE
8
0
70
0
10
-44.940506
20
6.741307
30
-1.057456
11
-24.022665
21
4.239034
31
-3.147498
12
-26.748917
22
26.185936
32
-2.454248
13
-46.533833
23
27.398821
33
-1.132270
0
3DFACE
8
0
70
0
10
-24.022665
20
4.239034
30
-3.147498
11
-0.843347
21
2.030183
31
-4.780724
12
-3.098056
22
23.513514
32
-3.393100
13
-26.748917
23
26.185936
33
-2.454248
0
3DFACE
8
0
70
0
10
-0.843347
20
2.030183
30
-4.780724
11
20.641317
21
1.738563
31
-5.092856
12
20.460297
22
20.847322
32
-3.479917
13
-3.098056
23
23.513514
33
-3.393100
0
3DFACE
8
0
70
0
10
20.641317
20
1.738563
30
-5.092856
11
37.973412
21
4.018960
31
-3.868504
12
40.449436
22
19.888157
32
-2.628470
13
20.460297
23
20.847322
33
-3.479917
0
3DFACE
8
0
70
0
10
37.973412
20
4.018960
30
-3.868504
11
51.638401
21
8.083710
31
-1.431377
12
55.903572
22
21.540558
32
-0.955085
13
40.449436
23
19.888157
33
-2.628470
0
3DFACE
8
0
70
0
10
51.638401
20
8.083710
30
-1.431377
11
64.184349
21
12.094036
31
1.660887
12
68.342247
22
25.355717
32
1.383069
13
55.903572
23
21.540558
33
-0.955085
0
3DFACE
8
0
70
0
10
64.184349
20
12.094036
30
1.660887
11
78.223213
21
14.159698
31
4.846601
12
80.300537
22
29.717278
32
4.136584
13
68.342247
23
25.355717
33
1.383069
0
3DFACE
8
0
70
0
10
78.223213
20
14.159698
30
4.846601
11
94.941910
21
13.217232
31
7.496843
12
93.848412
22
32.674706
32
6.852113
13
80.300537
23
29.717278
33
4.136584
0
3DFACE
8
0
70
0
10
94.941910
20
13.217232
30
7.496843
11
113.972076
21
9.540063
31
8.922599
12
109.926201
22
32.852203
32
8.748400
13
93.848412
23
32.674706
33
6.852113
0
3DFACE
8
0
70
0
10
113.972076
20
9.540063
30
8.922599
11
134.297699
21
4.606736
31
7.315031
12
129.201767
22
29.440407
32
7.688961
13
109.926201
23
32.852203
33
8.748400
0
3DFACE
8
0
70
0
10
134.297699
20
4.606736
30
7.315031
11
154.418274
21
0.971875
31
3.866047
12
149.998642
22
24.941965
32
4.434984
13
129.201767
23
29.440407
33
7.688961
0
3DFACE
8
0
70
0
10
154.418274
20
0.971875
30
3.866047
11
173.935196
21
-0.523872
31
-0.484381
12
171.302872
22
20.980616
32
-0.235223
13
149.998642
23
24.941965
33
4.434984
0
3DFACE
8
0
70
0
10
173.935196
20
-0.523872
30
-0.484381
11
192.219345
21
0.163657
31
-4.297604
12
191.765457
22
18.602470
32
-4.757995
13
171.302872
23
20.980616
33
-0.235223
0
3DFACE
8
0
70
0
10
192.219345
20
0.163657
30
-4.297604
11
208.285873
21
2.493369
31
-6.266550
12
209.725525
22
18.133316
32
-7.449917
13
191.765457
23
18.602470
33
-4.757995
0
3DFACE
8
0
70
0
10
208.285873
20
2.493369
30
-6.266550
11
221.770889
21
5.537456
31
-6.052214
12
224.298096
22
19.290789
32
-7.516487
13
209.725525
23
18.133316
33
-7.449917
0
3DFACE
8
0
70
0
10
-159.042404
20
24.822865
30
-1.305672
11
-141.893326
21
24.713717
31
-1.601003
12
-142.424484
22
43.916122
32
-1.511219
13
-159.191925
23
43.717468
33
-1.295875
0
3DFACE
8
0
70
0
10
-141.893326
20
24.713717
30
-1.601003
11
-122.318115
21
24.041800
31
-1.911492
12
-123.154465
22
43.374527
32
-1.766832
13
-142.424484
23
43.916122
33
-1.511219
0
3DFACE
8
0
70
0
10
-122.318115
20
24.041800
30
-1.911492
11
-102.307961
21
23.434298
31
-1.670461
12
-102.683052
22
42.294338
32
-1.637828
13
-123.154465
23
43.374527
33
-1.766832
0
3DFACE
8
0
70
0
10
-102.307961
20
23.434298
30
-1.670461
11
-85.298477
21
23.730011
31
-0.859096
12
-84.470810
22
41.668026
32
-1.108077
13
-102.683052
23
42.294338
33
-1.637828
0
3DFACE
8
0
70
0
10
-85.298477
20
23.730011
30
-0.859096
11
-72.426140
21
25.113922
31
-0.122987
12
-70.511543
22
42.417233
32
-0.623581
13
-84.470810
23
41.668026
33
-1.108077
0
3DFACE
8
0
70
0
10
-72.426140
20
25.113922
30
-0.122987
11
-60.970627
21
26.771282
31
-0.173419
12
-59.106274
22
44.478310
32
-0.624130
13
-70.511543
23
42.417233
33
-0.623581
0
3DFACE
8
0
70
0
10
-60.970627
20
26.771282
30
-0.173419
11
-46.533833
21
27.398821
31
-1.132270
12
-46.171200
22
46.642426
32
-1.116711
13
-59.106274
23
44.478310
33
-0.624130
0
3DFACE
8
0
70
0
10
-46.533833
20
27.398821
30
-1.132270
11
-26.748917
21
26.185936
31
-2.454248
12
-28.591526
22
47.316345
32
-1.730830
13
-46.171200
23
46.642426
33
-1.116711
0
3DFACE
8
0
70
0
10
-26.748917
20
26.185936
30
-2.454248
11
-3.098056
21
23.513514
31
-3.393100
12
-6.478220
22
45.638371
32
-2.102541
13
-28.591526
23
47.316345
33
-1.730830
0
3DFACE
8
0
70
0
10
-3.098056
20
23.513514
30
-3.393100
11
20.460297
21
20.847322
31
-3.479917
12
17.304520
22
42.140045
32
-2.113544
13
-6.478220
23
45.638371
33
-2.102541
0
3DFACE
8
0
70
0
10
20.460297
20
20.847322
30
-3.479917
11
40.449436
21
19.888157
31
-2.628470
12
39.374012
22
38.509247
32
-1.782297
13
17.304520
23
42.140045
33
-2.113544
0
3DFACE
8
0
70
0
10
40.449436
20
19.888157
30
-2.628470
11
55.903572
21
21.540558
31
-0.955085
12
57.785652
22
36.651196
32
-1.038311
13
39.374012
23
38.509247
33
-1.782297
0
3DFACE
8
0
70
0
10
55.903572
20
21.540558
30
-0.955085
11
68.342247
21
25.355717
31
1.383069
12
72.572922
22
37.650539
32
0.294715
13
57.785652
23
36.651196
33
-1.038311
0
3DFACE
8
0
70
0
10
68.342247
20
25.355717
30
1.383069
11
80.300537
21
29.717278
31
4.136584
12
85.106743
22
41.223015
32
2.276096
13
72.572922
23
37.650539
33
0.294715
0
3DFACE
8
0
70
0
10
80.300537
20
29.717278
30
4.136584
11
93.848412
21
32.674706
31
6.852113
12
97.166351
22
45.917545
32
4.610574
13
85.106743
23
41.223015
33
2.276096
0
3DFACE
8
0
70
0
10
93.848412
20
32.674706
30
6.852113
11
109.926201
21
32.852203
31
8.748400
12
110.325150
22
49.835159
32
6.502541
13
97.166351
23
45.917545
33
4.610574
0
3DFACE
8
0
70
0
10
109.926201
20
32.852203
30
8.748400
11
129.201767
21
29.440407
31
7.688961
12
126.704369
22
50.601273
32
5.857487
13
110.325150
23
49.835159
33
6.502541
0
3DFACE
8
0
70
0
10
129.201767
20
29.440407
30
7.688961
11
149.998642
21
24.941965
31
4.434984
12
145.923721
22
48.772312
32
2.936067
13
126.704369
23
50.601273
33
5.857487
0
3DFACE
8
0
70
0
10
149.998642
20
24.941965
30
4.434984
11
171.302872
21
20.980616
31
-0.235223
12
167.132568
22
45.482941
32
-1.615171
13
145.923721
23
48.772312
33
2.936067
0
3DFACE
8
0
70
0
10
171.302872
20
20.980616
30
-0.235223
11
191.765457
21
18.602470
31
-4.757995
12
188.625702
22
41.951904
32
-6.182270
13
167.132568
23
45.482941
33
-1.615171
0
3DFACE
8
0
70
0
10
191.765457
20
18.602470
30
-4.757995
11
209.725525
21
18.133316
31
-7.449917
12
208.128265
22
39.155460
32
-8.846894
13
188.625702
23
41.951904
33
-6.182270
0
3DFACE
8
0
70
0
10
209.725525
20
18.133316
30
-7.449917
11
224.298096
21
19.290789
31
-7.516487
12
224.181076
22
37.598965
32
-8.650934
13
208.128265
23
39.155460
33
-8.846894
0
3DFACE
8
0
70
0
10
-159.191925
20
43.717468
30
-1.295875
11
-142.424484
21
43.916122
31
-1.511219
12
-143.463364
22
62.975674
32
-1.424302
13
-160.018555
23
62.534557
33
-1.286118
0
3DFACE
8
0
70
0
10
-142.424484
20
43.916122
30
-1.511219
11
-123.154465
21
43.374527
31
-1.766832
12
-124.605820
22
62.787674
32
-1.627212
13
-143.463364
23
62.975674
33
-1.424302
0
3DFACE
8
0
70
0
10
-123.154465
20
43.374527
30
-1.766832
11
-102.683052
21
42.294338
31
-1.637828
12
-104.017281
22
61.675091
32
-1.595963
13
-124.605820
23
62.787674
33
-1.627212
0
3DFACE
8
0
70
0
10
-102.683052
20
42.294338
30
-1.637828
11
-84.470810
21
41.668026
31
-1.108077
12
-84.671333
22
60.384422
32
-1.312634
13
-104.017281
23
61.675091
33
-1.595963
0
3DFACE
8
0
70
0
10
-84.470810
20
41.668026
30
-1.108077
11
-70.511543
21
42.417233
31
-0.623581
12
-69.001205
22
60.162693
32
-1.055998
13
-84.671333
23
60.384422
33
-1.312634
0
3DFACE
8
0
70
0
10
-70.511543
20
42.417233
30
-0.623581
11
-59.106274
21
44.478310
31
-0.624130
12
-56.485687
22
61.681206
32
-1.049456
13
-69.001205
23
60.162693
33
-1.055998
0
3DFACE
8
0
70
0
10
-59.106274
20
44.478310
30
-0.624130
11
-46.171200
21
46.642426
31
-1.116711
12
-44.043999
22
64.352318
32
-1.206612
13
-56.485687
23
61.681206
33
-1.049456
0
3DFACE
8
0
70
0
10
-46.171200
20
46.642426
30
-1.116711
11
-28.591526
21
47.316345
31
-1.730830
12
-28.569424
22
66.593704
32
-1.273537
13
-44.043999
23
64.352318
33
-1.206612
0
3DFACE
8
0
70
0
10
-28.591526
20
47.316345
30
-1.730830
11
-6.478220
21
45.638371
31
-2.102541
12
-9.099866
22
66.818016
32
-1.155380
13
-28.569424
23
66.593704
33
-1.273537
0
3DFACE
8
0
70
0
10
-6.478220
20
45.638371
30
-2.102541
11
17.304520
21
42.140045
31
-2.113544
12
12.989840
22
64.425919
32
-1.005555
13
-9.099866
23
66.818016
33
-1.155380
0
3DFACE
8
0
70
0
10
17.304520
20
42.140045
30
-2.113544
11
39.374012
21
38.509247
31
-1.782297
12
35.320942
22
60.173679
32
-0.976939
13
12.989840
23
64.425919
33
-1.005555
0
3DFACE
8
0
70
0
10
39.374012
20
38.509247
30
-1.782297
11
57.785652
21
36.651196
31
-1.038311
12
55.920376
22
55.769230
32
-0.954115
13
35.320942
23
60.173679
33
-0.976939
0
3DFACE
8
0
70
0
10
57.785652
20
36.651196
30
-1.038311
11
72.572922
21
37.650539
31
0.294715
12
73.834732
22
53.019745
32
-0.586258
13
55.920376
23
55.769230
33
-0.954115
0
3DFACE
8
0
70
0
10
72.572922
20
37.650539
30
0.294715
11
85.106743
21
41.223015
31
2.276096
12
89.067139
22
53.019531
32
0.399449
13
73.834732
23
53.019745
33
-0.586258
0
3DFACE
8
0
70
0
10
85.106743
20
41.223015
30
2.276096
11
97.166351
21
45.917545
31
4.610574
12
102.316978
22
55.749489
32
1.858640
13
89.067139
23
53.019531
33
0.399449
0
3DFACE
8
0
70
0
10
97.166351
20
45.917545
30
4.610574
11
110.325150
21
49.835159
31
6.502541
12
114.794388
22
60.201920
32
3.058645
13
102.316978
23
55.749489
33
1.858640
0
3DFACE
8
0
70
0
10
110.325150
20
49.835159
30
6.502541
11
126.704369
21
50.601273
31
5.857487
12
128.765579
22
64.608261
32
2.342953
13
114.794388
23
60.201920
33
3.058645
0
3DFACE
8
0
70
0
10
126.704369
20
50.601273
30
5.857487
11
145.923721
21
48.772312
31
2.936067
12
145.527740
22
67.108368
32
-0.373492
13
128.765579
23
64.608261
33
2.342953
0
3DFACE
8
0
70
0
10
145.923721
20
48.772312
30
2.936067
11
167.132568
21
45.482941
31
-1.615171
12
164.948837
22
67.485580
32
-4.464067
13
145.527740
23
67.108368
33
-0.373492
0
3DFACE
8
0
70
0
10
167.132568
20
45.482941
30
-1.615171
11
188.625702
21
41.951904
31
-6.182270
12
185.554794
22
66.106064
32
-8.310751
13
164.948837
23
67.485580
33
-4.464067
0
3DFACE
8
0
70
0
10
188.625702
20
41.951904
30
-6.182270
11
208.128265
21
39.155460
31
-8.846894
12
205.023331
22
63.654602
32
-10.099689
13
185.554794
23
66.106064
33
-8.310751
0
3DFACE
8
0
70
0
10
208.128265
20
39.155460
30
-8.846894
11
224.181076
21
37.598965
31
-8.650934
12
221.719025
22
60.967022
32
-9.024819
13
205.023331
23
63.654602
33
-10.099689
0
3DFACE
8
0
70
0
10
-160.018555
20
62.534557
30
-1.286118
11
-143.463364
21
62.975674
31
-1.424302
12
-144.479340
22
81.807098
32
-1.350484
13
-160.652786
23
81.286469
33
-1.279879
0
3DFACE
8
0
70
0
10
-143.463364
20
62.975674
30
-1.424302
11
-124.605820
21
62.787674
31
-1.627212
12
-126.505089
22
82.016258
32
-1.495652
13
-144.479340
23
81.807098
33
-1.350484
0
3DFACE
8
0
70
0
10
-124.605820
20
62.787674
30
-1.627212
11
-104.017281
21
61.675091
31
-1.595963
12
-106.251740
22
81.267326
32
-1.522302
13
-126.505089
23
82.016258
33
-1.495652
0
3DFACE
8
0
70
0
10
-104.017281
20
61.675091
30
-1.595963
11
-84.671333
21
60.384422
31
-1.312634
12
-86.029861
22
79.841492
32
-1.422649
13
-106.251740
23
81.267326
33
-1.522302
0
3DFACE
8
0
70
0
10
-84.671333
20
60.384422
30
-1.312634
11
-69.001205
21
60.162693
31
-1.055998
12
-68.565041
22
78.837303
32
-1.367694
13
-86.029861
23
79.841492
33
-1.422649
0
3DFACE
8
0
70
0
10
-69.001205
20
60.162693
30
-1.055998
11
-56.485687
21
61.681206
31
-1.049456
12
-54.253883
22
79.302910
32
-1.436819
13
-68.565041
23
78.837303
33
-1.367694
0
3DFACE
8
0
70
0
10
-56.485687
20
61.681206
30
-1.049456
11
-44.043999
21
64.352318
31
-1.206612
12
-41.153412
22
81.375977
32
-1.464230
13
-54.253883
23
79.302910
33
-1.436819
0
3DFACE
8
0
70
0
10
-44.043999
20
64.352318
30
-1.206612
11
-28.569424
21
66.593704
31
-1.273537
12
-26.752907
22
84.096077
32
-1.224447
13
-41.153412
23
81.375977
33
-1.464230
0
3DFACE
8
0
70
0
10
-28.569424
20
66.593704
30
-1.273537
11
-9.099866
21
66.818016
31
-1.155380
12
-9.697785
22
85.951134
32
-0.736446
13
-26.752907
23
84.096077
33
-1.224447
0
3DFACE
8
0
70
0
10
-9.099866
20
66.818016
30
-1.155380
11
12.989840
21
64.425919
31
-1.005555
12
9.772697
22
85.708145
32
-0.306701
13
-9.697785
23
85.951134
33
-0.736446
0
3DFACE
8
0
70
0
10
12.989840
20
64.425919
30
-1.005555
11
35.320942
21
60.173679
31
-0.976939
12
30.506697
22
83.012199
32
-0.240733
13
9.772697
23
85.708145
33
-0.306701
0
3DFACE
8
0
70
0
10
35.320942
20
60.173679
30
-0.976939
11
55.920376
21
55.769230
31
-0.954115
12
51.253788
22
78.513649
32
-0.533583
13
30.506697
23
83.012199
33
-0.240733
0
3DFACE
8
0
70
0
10
55.920376
20
55.769230
30
-0.954115
11
73.834732
21
53.019745
31
-0.586258
12
71.018745
22
73.573586
32
-0.865396
13
51.253788
23
78.513649
33
-0.533583
0
3DFACE
8
0
70
0
10
73.834732
20
53.019745
30
-0.586258
11
89.067139
21
53.019531
31
0.399449
12
89.106590
22
69.739243
32
-0.908686
13
71.018745
23
73.573586
33
-0.865396
0
3DFACE
8
0
70
0
10
89.067139
20
53.019531
30
0.399449
11
102.316978
21
55.749489
31
1.858640
12
105.219391
22
68.210098
32
-0.695544
13
89.106590
23
69.739243
33
-0.908686
0
3DFACE
8
0
70
0
10
102.316978
20
55.749489
30
1.858640
11
114.794388
21
60.201920
31
3.058645
12
119.689499
22
69.485100
32
-0.801467
13
105.219391
23
68.210098
33
-0.695544
0
3DFACE
8
0
70
0
10
114.794388
20
60.201920
30
3.058645
11
128.765579
21
64.608261
31
2.342953
12
133.700592
22
74.128029
32
-2.102460
13
119.689499
23
69.485100
33
-0.801467
0
3DFACE
8
0
70
0
10
128.765579
20
64.608261
30
2.342953
11
145.527740
21
67.108368
31
-0.373492
12
149.265320
22
79.160049
32
-4.762304
13
133.700592
23
74.128029
33
-2.102460
0
3DFACE
8
0
70
0
10
145.527740
20
67.108368
30
-0.373492
11
164.948837
21
67.485580
31
-4.464067
12
166.823914
22
83.224640
32
-8.077272
13
149.265320
23
79.160049
33
-4.762304
0
3DFACE
8
0
70
0
10
164.948837
20
67.485580
30
-4.464067
11
185.554794
21
66.106064
31
-8.310751
12
185.438644
22
85.472885
32
-10.548389
13
166.823914
23
83.224640
33
-8.077272
0
3DFACE
8
0
70
0
10
185.554794
20
66.106064
30
-8.310751
11
205.023331
21
63.654602
31
-10.099689
12
203.324646
22
85.697144
32
-10.729864
13
185.438644
23
85.472885
33
-10.548389
0
3DFACE
8
0
70
0
10
205.023331
20
63.654602
30
-10.099689
11
221.719025
21
60.967022
31
-9.024819
12
219.310852
22
84.415955
32
-8.284557
13
203.324646
23
85.697144
33
-10.729864
0
3DFACE
8
0
70
0
10
-160.652786
20
81.286469
30
-1.279879
11
-144.479340
21
81.807098
31
-1.350484
12
-144.315826
22
100.440514
32
-1.297500
13
-160.504776
23
100.019051
33
-1.279493
0
3DFACE
8
0
70
0
10
-144.479340
20
81.807098
30
-1.350484
11
-126.505089
21
82.016258
31
-1.495652
12
-127.122536
22
100.886681
32
-1.381495
13
-144.315826
23
100.440514
33
-1.297500
0
3DFACE
8
0
70
0
10
-126.505089
20
82.016258
30
-1.495652
11
-106.251740
21
81.267326
31
-1.522302
12
-107.970581
22
100.638237
32
-1.418635
13
-127.122536
23
100.886681
33
-1.381495
0
3DFACE
8
0
70
0
10
-106.251740
20
81.267326
30
-1.522302
11
-86.029861
21
79.841492
31
-1.422649
12
-87.871414
22
99.571075
32
-1.422274
13
-107.970581
23
100.638237
33
-1.418635
0
3DFACE
8
0
70
0
10
-86.029861
20
79.841492
30
-1.422649
11
-68.565041
21
78.837303
31
-1.367694
12
-69.161316
22
98.357964
32
-1.516740
13
-87.871414
23
99.571075
33
-1.422274
0
3DFACE
8
0
70
0
10
-68.565041
20
78.837303
30
-1.367694
11
-54.253883
21
79.302910
31
-1.436819
12
-53.105927
22
97.961739
32
-1.716921
13
-69.161316
23
98.357964
33
-1.516740
0
3DFACE
8
0
70
0
10
-54.253883
20
79.302910
30
-1.436819
11
-41.153412
21
81.375977
31
-1.464230
12
-38.711979
22
98.923088
32
-1.812305
13
-53.105927
23
97.961739
33
-1.716921
0
3DFACE
8
0
70
0
10
-41.153412
20
81.375977
30
-1.464230
11
-26.752907
21
84.096077
31
-1.224447
12
-24.199135
22
101.004395
32
-1.544754
13
-38.711979
23
98.923088
33
-1.812305
0
3DFACE
8
0
70
0
10
-26.752907
20
84.096077
30
-1.224447
11
-9.697785
21
85.951134
31
-0.736446
12
-8.388241
22
103.335129
32
-0.907100
13
-24.199135
23
101.004395
33
-1.544754
0
3DFACE
8
0
70
0
10
-9.697785
20
85.951134
30
-0.736446
11
9.772697
21
85.708145
31
-0.306701
12
8.918265
22
104.832207
32
-0.223197
13
-8.388241
23
103.335129
33
-0.907100
0
3DFACE
8
0
70
0
10
9.772697
20
85.708145
30
-0.306701
11
30.506697
21
83.012199
31
-0.240733
12
27.358091
22
104.616417
32
0.092985
13
8.918265
23
104.832207
33
-0.223197
0
3DFACE
8
0
70
0
10
30.506697
20
83.012199
30
-0.240733
11
51.253788
21
78.513649
31
-0.533583
12
46.498928
22
102.304314
32
-0.145002
13
27.358091
23
104.616417
33
0.092985
0
3DFACE
8
0
70
0
10
51.253788
20
78.513649
30
-0.533583
11
71.018745
21
73.573586
31
-0.865396
12
65.938744
22
98.163071
32
-0.811147
13
46.498928
23
102.304314
33
-0.145002
0
3DFACE
8
0
70
0
10
71.018745
20
73.573586
30
-0.865396
11
89.106590
21
69.739243
31
-0.908686
12
85.186073
22
93.102859
32
-1.677460
13
65.938744
23
98.163071
33
-0.811147
0
3DFACE
8
0
70
0
10
89.106590
20
69.739243
30
-0.908686
11
105.219391
21
68.210098
31
-0.695544
12
103.703545
22
88.467361
32
-2.723268
13
85.186073
23
93.102859
33
-1.677460
0
3DFACE
8
0
70
0
10
105.219391
20
68.210098
30
-0.695544
11
119.689499
21
69.485100
31
-0.801467
12
121.220268
22
85.647552
32
-4.288994
13
103.703545
23
88.467361
33
-2.723268
0
3DFACE
8
0
70
0
10
119.689499
20
69.485100
30
-0.801467
11
133.700592
21
74.128029
31
-2.102460
12
137.634827
22
87.174522
32
-6.302417
13
121.220268
23
85.647552
33
-4.288994
0
3DFACE
8
0
70
0
10
133.700592
20
74.128029
30
-2.102460
11
149.265320
21
79.160049
31
-4.762304
12
154.218292
22
90.963799
32
-8.783713
13
137.634827
23
87.174522
33
-6.302417
0
3DFACE
8
0
70
0
10
149.265320
20
79.160049
30
-4.762304
11
166.823914
21
83.224640
31
-8.077272
12
171.311386
22
95.549240
32
-10.944477
13
154.218292
23
90.963799
33
-8.783713
0
3DFACE
8
0
70
0
10
166.823914
20
83.224640
30
-8.077272
11
185.438644
21
85.472885
31
-10.548389
12
188.338898
22
99.508163
32
-11.570280
13
171.311386
23
95.549240
33
-10.944477
0
3DFACE
8
0
70
0
10
185.438644
20
85.472885
30
-10.548389
11
203.324646
21
85.697144
31
-10.729864
12
204.310440
22
101.958321
32
-9.836219
13
188.338898
23
99.508163
33
-11.570280
0
3DFACE
8
0
70
0
10
203.324646
20
85.697144
30
-10.729864
11
219.310852
21
84.415955
31
-8.284557
12
218.961548
22
102.913681
32
-6.067088
13
204.310440
23
101.958321
33
-9.836219
0
3DFACE
8
0
70
0
10
-160.504776
20
100.019051
30
-1.279493
11
-144.315826
21
100.440514
31
-1.297500
12
-143.969986
22
119.020905
32
-1.268841
13
-160.338882
23
118.788551
33
-1.285031
0
3DFACE
8
0
70
0
10
-144.315826
20
100.440514
30
-1.297500
11
-127.122536
21
100.886681
31
-1.381495
12
-127.140488
22
119.454018
32
-1.296350
13
-143.969986
23
119.020905
33
-1.268841
0
3DFACE
8
0
70
0
10
-127.122536
20
100.886681
30
-1.381495
11
-107.970581
21
100.638237
31
-1.418635
12
-108.788086
22
119.528366
32
-1.307027
13
-127.140488
23
119.454018
33
-1.296350
0
3DFACE
8
0
70
0
10
-107.970581
20
100.638237
30
-1.418635
11
-87.871414
21
99.571075
31
-1.422274
12
-89.261131
22
118.968048
32
-1.332914
13
-108.788086
23
119.528366
33
-1.307027
0
3DFACE
8
0
70
0
10
-87.871414
20
99.571075
30
-1.422274
11
-69.161316
21
98.357964
31
-1.516740
12
-70.139824
22
118.066559
32
-1.492691
13
-89.261131
23
118.968048
33
-1.332914
0
3DFACE
8
0
70
0
10
-69.161316
20
98.357964
30
-1.516740
11
-53.105927
21
97.961739
31
-1.716921
12
-52.947449
22
117.445816
32
-1.806598
13
-70.139824
23
118.066559
33
-1.492691
0
3DFACE
8
0
70
0
10
-53.105927
20
97.961739
30
-1.716921
11
-38.711979
21
98.923088
31
-1.812305
12
-37.352501
22
117.605591
32
-2.075926
13
-52.947449
23
117.445816
33
-1.806598
0
3DFACE
8
0
70
0
10
-38.711979
20
98.923088
30
-1.812305
11
-24.199135
21
101.004395
31
-1.544754
12
-22.111183
22
118.669235
32
-2.009321
13
-37.352501
23
117.605591
33
-2.075926
0
3DFACE
8
0
70
0
10
-24.199135
20
101.004395
30
-1.544754
11
-8.388241
21
103.335129
31
-0.907100
12
-6.360552
22
120.407127
32
-1.500358
13
-22.111183
23
118.669235
33
-2.009321
0
3DFACE
8
0
70
0
10
-8.388241
20
103.335129
30
-0.907100
11
8.918265
21
104.832207
31
-0.223197
12
10.049014
22
122.361443
32
-0.772292
13
-6.360552
23
120.407127
33
-1.500358
0
3DFACE
8
0
70
0
10
8.918265
20
104.832207
30
-0.223197
11
27.358091
21
104.616417
31
0.092985
12
26.916843
22
123.928009
32
-0.243772
13
10.049014
23
122.361443
33
-0.772292
0
3DFACE
8
0
70
0
10
27.358091
20
104.616417
30
0.092985
11
46.498928
21
102.304314
31
-0.145002
12
44.162743
22
124.439896
32
-0.256273
13
26.916843
23
123.928009
33
-0.243772
0
3DFACE
8
0
70
0
10
46.498928
20
102.304314
30
-0.145002
11
65.938744
21
98.163071
31
-0.811147
12
61.926289
22
123.363197
32
-0.918742
13
44.162743
23
124.439896
33
-0.256273
0
3DFACE
8
0
70
0
10
65.938744
20
98.163071
30
-0.811147
11
85.186073
21
93.102859
31
-1.677460
12
80.341217
22
120.584045
32
-2.177941
13
61.926289
23
123.363197
33
-0.918742
0
3DFACE
8
0
70
0
10
85.186073
20
93.102859
30
-1.677460
11
103.703545
21
88.467361
31
-2.723268
12
99.344002
22
116.608574
32
-4.000871
13
80.341217
23
120.584045
33
-2.177941
0
3DFACE
8
0
70
0
10
103.703545
20
88.467361
30
-2.723268
11
121.220268
21
85.647552
31
-4.288994
12
118.731323
22
112.490173
32
-6.459198
13
99.344002
23
116.608574
33
-4.000871
0
3DFACE
8
0
70
0
10
121.220268
20
85.647552
30
-4.288994
11
137.634827
21
87.174522
31
-6.302417
12
137.891785
22
110.455086
32
-8.680449
13
118.731323
23
112.490173
33
-6.459198
0
3DFACE
8
0
70
0
10
137.634827
20
87.174522
30
-6.302417
11
154.218292
21
90.963799
31
-8.783713
12
156.607468
22
110.491493
32
-10.488631
13
137.891785
23
110.455086
33
-8.680449
0
3DFACE
8
0
70
0
10
154.218292
20
90.963799
30
-8.783713
11
171.311386
21
95.549240
31
-10.944477
12
174.575500
22
111.953522
32
-11.138139
13
156.607468
23
110.491493
33
-10.488631
0
3DFACE
8
0
70
0
10
171.311386
20
95.549240
30
-10.944477
11
188.338898
21
99.508163
31
-11.570280
12
191.235413
22
113.891396
32
-9.886594
13
174.575500
23
111.953522
33
-11.138139
0
3DFACE
8
0
70
0
10
188.338898
20
99.508163
30
-11.570280
11
204.310440
21
101.958321
31
-9.836219
12
206.257172
22
115.616501
32
-6.647185
13
191.235413
23
113.891396
33
-9.886594
0
3DFACE
8
0
70
0
10
204.310440
20
101.958321
30
-9.836219
11
218.961548
21
102.913681
31
-6.067088
12
220.245026
22
117.069626
32
-2.354146
13
206.257172
23
115.616501
33
-6.647185
0
3DFACE
8
0
70
0
10
-160.304398
20
-125.921043
30
-1.079878
11
-160.204559
21
-107.148529
31
-1.071671
12
-143.802612
22
-106.941460
32
-0.899073
13
-143.829865
23
-125.563087
33
-0.660487
0
3DFACE
8
0
70
0
10
-143.829865
20
-125.563087
30
-0.660487
11
-143.802612
21
-106.941460
31
-0.899073
12
-127.329636
22
-106.896904
32
-1.622781
13
-126.829338
23
-125.563362
33
-1.014077
0
3DFACE
8
0
70
0
10
-126.829338
20
-125.563362
30
-1.014077
11
-127.329636
21
-106.896904
31
-1.622781
12
-109.156776
22
-107.430244
32
-2.951586
13
-108.214012
23
-126.375816
33
-2.329542
0
3DFACE
8
0
70
0
10
-108.214012
20
-126.375816
30
-2.329542
11
-109.156776
21
-107.430244
31
-2.951586
12
-89.319214
22
-108.365997
32
-3.731558
13
-88.863617
23
-127.570023
33
-3.764030
0
3DFACE
8
0
70
0
10
-88.863617
20
-127.570023
30
-3.764030
11
-89.319214
21
-108.365997
31
-3.731558
12
-70.043694
22
-108.804359
32
-2.905516
13
-71.031586
23
-128.043396
33
-4.068779
0
3DFACE
8
0
70
0
10
-71.031586
20
-128.043396
30
-4.068779
11
-70.043694
21
-108.804359
31
-2.905516
12
-53.594063
22
-107.849968
32
-0.446987
13
-55.980091
23
-127.072571
33
-2.591391
0
3DFACE
8
0
70
0
10
-55.980091
20
-127.072571
30
-2.591391
11
-53.594063
21
-107.849968
31
-0.446987
12
-39.595558
22
-105.613182
32
2.507563
13
-42.128376
23
-125.168610
33
0.190927
0
3DFACE
8
0
70
0
10
-42.128376
20
-125.168610
30
0.190927
11
-39.595558
21
-105.613182
31
2.507563
12
-25.129843
22
-103.443527
32
4.383855
13
-26.135904
23
-123.760963
33
2.986228
0
3DFACE
8
0
70
0
10
-26.135904
20
-123.760963
30
2.986228
11
-25.129843
21
-103.443527
31
4.383855
12
-7.282416
22
-102.966835
32
4.146118
13
-6.124380
23
-123.854637
33
4.530354
0
3DFACE
8
0
70
0
10
-6.124380
20
-123.854637
30
4.530354
11
-7.282416
21
-102.966835
31
4.146118
12
14.208533
22
-104.645447
32
1.833267
13
16.316519
23
-124.900688
33
4.298083
0
3DFACE
8
0
70
0
10
16.316519
20
-124.900688
30
4.298083
11
14.208533
21
-104.645447
31
1.833267
12
36.524029
22
-107.156387
32
-1.608277
13
37.295685
23
-125.051239
33
2.641210
0
3DFACE
8
0
70
0
10
37.295685
20
-125.051239
30
2.641210
11
36.524029
21
-107.156387
31
-1.608277
12
55.965225
22
-108.266937
32
-4.950018
13
53.907997
23
-122.730042
33
0.396302
0
3DFACE
8
0
70
0
10
53.907997
20
-122.730042
30
0.396302
11
55.965225
21
-108.266937
31
-4.950018
12
70.893471
22
-106.583580
32
-7.298951
13
66.693321
23
-118.181458
33
-1.658689
0
3DFACE
8
0
70
0
10
66.693321
20
-118.181458
30
-1.658689
11
70.893471
21
-106.583580
31
-7.298951
12
82.966591
22
-102.737747
32
-8.370688
13
79.148407
23
-113.576019
33
-3.129703
0
3DFACE
8
0
70
0
10
79.148407
20
-113.576019
30
-3.129703
11
82.966591
21
-102.737747
31
-8.370688
12
95.751251
22
-98.995605
32
-8.377678
13
94.811234
23
-111.466751
33
-4.001446
0
3DFACE
8
0
70
0
10
94.811234
20
-111.466751
30
-4.001446
11
95.751251
21
-98.995605
31
-8.377678
12
111.980530
22
-97.576004
32
-7.730453
13
114.471222
23
-112.825562
33
-4.448599
0
3DFACE
8
0
70
0
10
114.471222
20
-112.825562
30
-4.448599
11
111.980530
21
-97.576004
31
-7.730453
12
131.934494
22
-99.869354
32
-6.193388
13
135.587540
23
-117.309555
33
-4.305309
0
3DFACE
8
0
70
0
10
135.587540
20
-117.309555
30
-4.305309
11
131.934494
21
-99.869354
31
-6.193388
12
152.075699
22
-102.845512
32
-4.859411
13
154.344604
23
-120.524750
33
-4.114916
0
3DFACE
8
0
70
0
10
154.344604
20
-120.524750
30
-4.114916
11
152.075699
21
-102.845512
31
-4.859411
12
170.085114
22
-104.486526
32
-3.933326
13
170.045563
23
-121.321693
33
-4.069182
0
3DFACE
8
0
70
0
10
170.045563
20
-121.321693
30
-4.069182
11
170.085114
21
-104.486526
31
-3.933326
12
185.773819
22
-104.278709
32
-3.553248
13
184.352081
23
-120.590294
33
-4.242619
0
3DFACE
8
0
70
0
10
184.352081
20
-120.590294
30
-4.242619
11
185.773819
21
-104.278709
31
-3.553248
12
200.688522
22
-103.155243
32
-3.727323
13
199.595901
23
-120.092438
33
-4.509423
0
3DFACE
8
0
70
0
10
199.595901
20
-120.092438
30
-4.509423
11
200.688522
21
-103.155243
31
-3.727323
12
216.717865
22
-102.501312
32
-4.179730
13
217.082977
23
-121.023796
33
-4.517210
0
3DFACE
8
0
70
0
10
-160.204559
20
-107.148529
30
-1.071671
11
-160.101257
21
-88.409813
31
-1.110145
12
-143.607513
22
-88.405228
32
-1.194013
13
-143.802612
23
-106.941460
33
-0.899073
0
3DFACE
8
0
70
0
10
-143.802612
20
-106.941460
30
-0.899073
11
-143.607513
21
-88.405228
31
-1.194013
12
-127.220688
22
-88.205788
32
-2.097617
13
-127.329636
23
-106.896904
33
-1.622781
0
3DFACE
8
0
70
0
10
-127.329636
20
-106.896904
30
-1.622781
11
-127.220688
21
-88.205788
31
-2.097617
12
-109.216141
22
-88.123886
32
-3.118778
13
-109.156776
23
-107.430244
33
-2.951586
0
3DFACE
8
0
70
0
10
-109.156776
20
-107.430244
30
-2.951586
11
-109.216141
21
-88.123886
31
-3.118778
12
-89.318642
22
-88.457512
32
-3.063747
13
-89.319214
23
-108.365997
33
-3.731558
0
3DFACE
8
0
70
0
10
-89.319214
20
-108.365997
30
-3.731558
11
-89.318642
21
-88.457512
31
-3.063747
12
-69.424583
22
-88.942787
32
-1.354753
13
-70.043694
23
-108.804359
33
-2.905516
0
3DFACE
8
0
70
0
10
-70.043694
20
-108.804359
30
-2.905516
11
-69.424583
21
-88.942787
31
-1.354753
12
-51.862598
22
-88.813301
32
1.339999
13
-53.594063
23
-107.849968
33
-0.446987
0
3DFACE
8
0
70
0
10
-53.594063
20
-107.849968
30
-0.446987
11
-51.862598
21
-88.813301
31
1.339999
12
-37.262897
22
-87.583107
32
3.476060
13
-39.595558
23
-105.613182
33
2.507563
0
3DFACE
8
0
70
0
10
-39.595558
20
-105.613182
30
2.507563
11
-37.262897
21
-87.583107
31
3.476060
12
-23.741898
22
-85.813675
32
3.646888
13
-25.129843
23
-103.443527
33
4.383855
0
3DFACE
8
0
70
0
10
-25.129843
20
-103.443527
30
4.383855
11
-23.741898
21
-85.813675
31
3.646888
12
-8.223674
22
-84.975342
32
1.437924
13
-7.282416
23
-102.966835
33
4.146118
0
3DFACE
8
0
70
0
10
-7.282416
20
-102.966835
30
4.146118
11
-8.223674
21
-84.975342
31
1.437924
12
11.075456
22
-86.313225
32
-2.428737
13
14.208533
23
-104.645447
33
1.833267
0
3DFACE
8
0
70
0
10
14.208533
20
-104.645447
30
1.833267
11
11.075456
21
-86.313225
31
-2.428737
12
33.103573
22
-89.634468
32
-6.613852
13
36.524029
23
-107.156387
33
-1.608277
0
3DFACE
8
0
70
0
10
36.524029
20
-107.156387
30
-1.608277
11
33.103573
21
-89.634468
31
-6.613852
12
54.679764
22
-93.144798
32
-9.892111
13
55.965225
23
-108.266937
33
-4.950018
0
3DFACE
8
0
70
0
10
55.965225
20
-108.266937
30
-4.950018
11
54.679764
21
-93.144798
31
-9.892111
12
72.861107
22
-94.615898
32
-11.642618
13
70.893471
23
-106.583580
33
-7.298951
0
3DFACE
8
0
70
0
10
70.893471
20
-106.583580
30
-7.298951
11
72.861107
21
-94.615898
31
-11.642618
12
87.081238
22
-93.012489
32
-11.917400
13
82.966591
23
-102.737747
33
-8.370688
0
3DFACE
8
0
70
0
10
82.966591
20
-102.737747
30
-8.370688
11
87.081238
21
-93.012489
31
-11.917400
12
99.438942
22
-89.284103
32
-11.184711
13
95.751251
23
-98.995605
33
-8.377678
0
3DFACE
8
0
70
0
10
95.751251
20
-98.995605
30
-8.377678
11
99.438942
21
-89.284103
31
-11.184711
12
113.066269
22
-85.692444
32
-9.976185
13
111.980530
23
-97.576004
33
-7.730453
0
3DFACE
8
0
70
0
10
111.980530
20
-97.576004
30
-7.730453
11
113.066269
21
-85.692444
31
-9.976185
12
130.374191
22
-84.625992
32
-7.831756
13
131.934494
23
-99.869354
33
-6.193388
0
3DFACE
8
0
70
0
10
131.934494
20
-99.869354
30
-6.193388
11
130.374191
21
-84.625992
31
-7.831756
12
149.857651
22
-85.733902
32
-5.980175
13
152.075699
23
-102.845512
33
-4.859411
0
3DFACE
8
0
70
0
10
152.075699
20
-102.845512
30
-4.859411
11
149.857651
21
-85.733902
31
-5.980175
12
169.036606
22
-87.320686
32
-4.473248
13
170.085114
23
-104.486526
33
-3.933326
0
3DFACE
8
0
70
0
10
170.085114
20
-104.486526
30
-3.933326
11
169.036606
21
-87.320686
31
-4.473248
12
186.356918
22
-88.001877
32
-3.431530
13
185.773819
23
-104.278709
33
-3.553248
0
3DFACE
8
0
70
0
10
185.773819
20
-104.278709
30
-3.553248
11
186.356918
21
-88.001877
31
-3.431530
12
202.025635
22
-87.552963
32
-3.048550
13
200.688522
23
-103.155243
33
-3.727323
0
3DFACE
8
0
70
0
10
200.688522
20
-103.155243
30
-3.727323
11
202.025635
21
-87.552963
31
-3.048550
12
217.560791
22
-86.736244
32
-3.339592
13
216.717865
23
-102.501312
33
-4.179730
0
3DFACE
8
0
70
0
10
-160.101257
20
-88.409813
30
-1.110145
11
-159.376663
21
-69.661873
31
-1.171266
12
-142.474823
22
-69.862556
32
-1.455851
13
-143.607513
23
-88.405228
33
-1.194013
0
3DFACE
8
0
70
0
10
-143.607513
20
-88.405228
30
-1.194013
11
-142.474823
21
-69.862556
31
-1.455851
12
-125.744949
22
-69.515266
32
-2.356670
13
-127.220688
23
-88.205788
33
-2.097617
0
3DFACE
8
0
70
0
10
-127.220688
20
-88.205788
30
-2.097617
11
-125.744949
21
-69.515266
31
-2.356670
12
-108.150909
22
-68.762146
32
-2.917278
13
-109.216141
23
-88.123886
33
-3.118778
0
3DFACE
8
0
70
0
10
-109.216141
20
-88.123886
30
-3.118778
11
-108.150909
21
-68.762146
31
-2.917278
12
-89.233986
22
-68.387436
32
-2.134280
13
-89.318642
23
-88.457512
33
-3.063747
0
3DFACE
8
0
70
0
10
-89.318642
20
-88.457512
30
-3.063747
11
-89.233986
21
-68.387436
31
-2.134280
12
-69.883583
22
-68.946686
32
-0.014731
13
-69.424583
23
-88.942787
33
-1.354753
0
3DFACE
8
0
70
0
10
-69.424583
20
-88.942787
30
-1.354753
11
-69.883583
21
-68.946686
31
-0.014731
12
-51.835804
22
-70.039108
32
2.229827
13
-51.862598
23
-88.813301
33
1.339999
0
3DFACE
8
0
70
0
10
-51.862598
20
-88.813301
30
1.339999
11
-51.835804
21
-70.039108
31
2.229827
12
-36.203289
22
-70.584671
32
3.004677
13
-37.262897
23
-87.583107
33
3.476060
0
3DFACE
8
0
70
0
10
-37.262897
20
-87.583107
30
3.476060
11
-36.203289
21
-70.584671
31
3.004677
12
-22.325245
22
-69.924225
32
1.436032
13
-23.741898
23
-85.813675
33
3.646888
0
3DFACE
8
0
70
0
10
-23.741898
20
-85.813675
30
3.646888
11
-22.325245
21
-69.924225
31
1.436032
12
-7.990359
22
-68.660110
32
-2.105659
13
-8.223674
23
-84.975342
33
1.437924
0
3DFACE
8
0
70
0
10
-8.223674
20
-84.975342
30
1.437924
11
-7.990359
21
-68.660110
31
-2.105659
12
9.036086
22
-68.330513
32
-6.337285
13
11.075456
23
-86.313225
33
-2.428737
0
3DFACE
8
0
70
0
10
11.075456
20
-86.313225
30
-2.428737
11
9.036086
21
-68.330513
31
-6.337285
12
29.320271
22
-70.102539
32
-9.859035
13
33.103573
23
-89.634468
33
-6.613852
0
3DFACE
8
0
70
0
10
33.103573
20
-89.634468
30
-6.613852
11
29.320271
21
-70.102539
31
-9.859035
12
51.219475
22
-73.620415
32
-11.825101
13
54.679764
23
-93.144798
33
-9.892111
0
3DFACE
8
0
70
0
10
54.679764
20
-93.144798
30
-9.892111
11
51.219475
21
-73.620415
31
-11.825101
12
71.943268
22
-77.048859
32
-12.158889
13
72.861107
23
-94.615898
33
-11.642618
0
3DFACE
8
0
70
0
10
72.861107
20
-94.615898
30
-11.642618
11
71.943268
21
-77.048859
31
-12.158889
12
89.454720
22
-78.325096
32
-11.353597
13
87.081238
23
-93.012489
33
-11.917400
0
3DFACE
8
0
70
0
10
87.081238
20
-93.012489
30
-11.917400
11
89.454720
21
-78.325096
31
-11.353597
12
103.802574
22
-76.632294
32
-10.099382
13
99.438942
23
-89.284103
33
-11.184711
0
3DFACE
8
0
70
0
10
99.438942
20
-89.284103
30
-11.184711
11
103.802574
21
-76.632294
31
-10.099382
12
116.985962
22
-72.964462
32
-8.957160
13
113.066269
23
-85.692444
33
-9.976185
0
3DFACE
8
0
70
0
10
113.066269
20
-85.692444
30
-9.976185
11
116.985962
21
-72.964462
31
-8.957160
12
131.809433
22
-69.374641
32
-7.401672
13
130.374191
23
-84.625992
33
-7.831756
0
3DFACE
8
0
70
0
10
130.374191
20
-84.625992
30
-7.831756
11
131.809433
21
-69.374641
31
-7.401672
12
149.221985
22
-67.898781
32
-6.189943
13
149.857651
23
-85.733902
33
-5.980175
0
3DFACE
8
0
70
0
10
149.857651
20
-85.733902
30
-5.980175
11
149.221985
21
-67.898781
31
-6.189943
12
167.831741
22
-68.136963
32
-5.047797
13
169.036606
23
-87.320686
33
-4.473248
0
3DFACE
8
0
70
0
10
169.036606
20
-87.320686
30
-4.473248
11
167.831741
21
-68.136963
31
-5.047797
12
185.798050
22
-68.920380
32
-3.908116
13
186.356918
23
-88.001877
33
-3.431530
0
3DFACE
8
0
70
0
10
186.356918
20
-88.001877
30
-3.431530
11
185.798050
21
-68.920380
31
-3.908116
12
202.265045
22
-69.403572
32
-3.036397
13
202.025635
23
-87.552963
33
-3.048550
0
3DFACE
8
0
70
0
10
202.025635
20
-87.552963
30
-3.048550
11
202.265045
21
-69.403572
31
-3.036397
12
217.918579
22
-69.559761
32
-2.790252
13
217.560791
23
-86.736244
33
-3.339592
0
3DFACE
8
0
70
0
10
-159.376663
20
-69.661873
30
-1.171266
11
-158.532913
21
-50.866879
31
-1.231558
12
-141.397400
22
-51.244331
32
-1.634071
13
-142.474823
23
-69.862556
33
-1.455851
0
3DFACE
8
0
70
0
10
-142.474823
20
-69.862556
30
-1.455851
11
-141.397400
21
-51.244331
31
-1.634071
12
-124.291107
22
-50.893749
32
-2.416399
13
-125.744949
23
-69.515266
33
-2.356670
0
3DFACE
8
0
70
0
10
-125.744949
20
-69.515266
30
-2.356670
11
-124.291107
21
-50.893749
31
-2.416399
12
-106.958557
22
-49.698196
32
-2.538565
13
-108.150909
23
-68.762146
33
-2.917278
0
3DFACE
8
0
70
0
10
-108.150909
20
-68.762146
30
-2.917278
11
-106.958557
21
-49.698196
31
-2.538565
12
-89.258911
22
-48.684456
32
-1.302833
13
-89.233986
23
-68.387436
33
-2.134280
0
3DFACE
8
0
70
0
10
-89.233986
20
-68.387436
30
-2.134280
11
-89.258911
21
-48.684456
31
-1.302833
12
-71.330605
22
-49.097916
32
0.780537
13
-69.883583
23
-68.946686
33
-0.014731
0
3DFACE
8
0
70
0
10
-69.883583
20
-68.946686
30
-0.014731
11
-71.330605
21
-49.097916
31
0.780537
12
-53.652275
22
-51.077187
32
2.228183
13
-51.835804
23
-70.039108
33
2.229827
0
3DFACE
8
0
70
0
10
-51.835804
20
-70.039108
30
2.229827
11
-53.652275
21
-51.077187
31
2.228183
12
-36.844002
22
-53.293301
32
1.695365
13
-36.203289
23
-70.584671
33
3.004677
0
3DFACE
8
0
70
0
10
-36.203289
20
-70.584671
30
3.004677
11
-36.844002
21
-53.293301
31
1.695365
12
-21.171452
22
-54.002602
32
-1.023680
13
-22.325245
23
-69.924225
33
1.436032
0
3DFACE
8
0
70
0
10
-22.325245
20
-69.924225
30
1.436032
11
-21.171452
21
-54.002602
31
-1.023680
12
-6.072852
22
-52.596737
32
-4.886644
13
-7.990359
23
-68.660110
33
-2.105659
0
3DFACE
8
0
70
0
10
-7.990359
20
-68.660110
30
-2.105659
11
-6.072852
21
-52.596737
31
-4.886644
12
9.768808
22
-50.243790
32
-8.336405
13
9.036086
23
-68.330513
33
-6.337285
0
3DFACE
8
0
70
0
10
9.036086
20
-68.330513
30
-6.337285
11
9.768808
21
-50.243790
31
-8.336405
12
27.622238
22
-49.028004
32
-10.210989
13
29.320271
23
-70.102539
33
-9.859035
0
3DFACE
8
0
70
0
10
29.320271
20
-70.102539
30
-9.859035
11
27.622238
21
-49.028004
31
-10.210989
12
47.677021
22
-50.310040
32
-10.216594
13
51.219475
23
-73.620415
33
-11.825101
0
3DFACE
8
0
70
0
10
51.219475
20
-73.620415
30
-11.825101
11
47.677021
21
-50.310040
31
-10.216594
12
68.661430
22
-53.658180
32
-8.835721
13
71.943268
23
-77.048859
33
-12.158889
0
3DFACE
8
0
70
0
10
71.943268
20
-77.048859
30
-12.158889
11
68.661430
21
-53.658180
31
-8.835721
12
88.571556
22
-57.145195
32
-6.918880
13
89.454720
23
-78.325096
33
-11.353597
0
3DFACE
8
0
70
0
10
89.454720
20
-78.325096
30
-11.353597
11
88.571556
21
-57.145195
31
-6.918880
12
105.995308
22
-58.698715
32
-5.279617
13
103.802574
23
-76.632294
33
-10.099382
0
3DFACE
8
0
70
0
10
103.802574
20
-76.632294
30
-10.099382
11
105.995308
21
-58.698715
31
-5.279617
12
121.084740
22
-57.476852
32
-4.473486
13
116.985962
23
-72.964462
33
-8.957160
0
3DFACE
8
0
70
0
10
116.985962
20
-72.964462
30
-8.957160
11
121.084740
21
-57.476852
31
-4.473486
12
135.306366
22
-53.855331
32
-4.288338
13
131.809433
23
-69.374641
33
-7.401672
0
3DFACE
8
0
70
0
10
131.809433
20
-69.374641
30
-7.401672
11
135.306366
21
-53.855331
31
-4.288338
12
150.958496
22
-50.641094
32
-4.614095
13
149.221985
23
-67.898781
33
-6.189943
0
3DFACE
8
0
70
0
10
149.221985
20
-67.898781
30
-6.189943
11
150.958496
21
-50.641094
31
-4.614095
12
168.062408
22
-48.795975
32
-4.794827
13
167.831741
23
-68.136963
33
-5.047797
0
3DFACE
8
0
70
0
10
167.831741
20
-68.136963
30
-5.047797
11
168.062408
21
-48.795975
31
-4.794827
12
185.405121
22
-48.196922
32
-4.416324
13
185.798050
23
-68.920380
33
-3.908116
0
3DFACE
8
0
70
0
10
185.798050
20
-68.920380
30
-3.908116
11
185.405121
21
-48.196922
31
-4.416324
12
201.810043
22
-48.318546
32
-3.586575
13
202.265045
23
-69.403572
33
-3.036397
0
3DFACE
8
0
70
0
10
202.265045
20
-69.403572
30
-3.036397
11
201.810043
21
-48.318546
31
-3.586575
12
217.297943
22
-48.890778
32
-2.852682
13
217.918579
23
-69.559761
33
-2.790252
0
3DFACE
8
0
70
0
10
-158.532913
20
-50.866879
30
-1.231558
11
-158.533142
21
-32.005802
31
-1.276844
12
-141.126007
22
-32.497097
32
-1.719210
13
-141.397400
23
-51.244331
33
-1.634071
0
3DFACE
8
0
70
0
10
-141.397400
20
-51.244331
30
-1.634071
11
-141.126007
21
-32.497097
31
-1.719210
12
-123.185822
22
-32.347809
32
-2.345166
13
-124.291107
23
-50.893749
33
-2.416399
0
3DFACE
8
0
70
0
10
-124.291107
20
-50.893749
30
-2.416399
11
-123.185822
21
-32.347809
31
-2.345166
12
-105.556511
22
-31.119362
32
-2.162367
13
-106.958557
23
-49.698196
33
-2.538565
0
3DFACE
8
0
70
0
10
-106.958557
20
-49.698196
30
-2.538565
11
-105.556511
21
-31.119362
31
-2.162367
12
-88.949326
22
-29.682240
32
-0.773688
13
-89.258911
23
-48.684456
33
-1.302833
0
3DFACE
8
0
70
0
10
-89.258911
20
-48.684456
30
-1.302833
11
-88.949326
21
-29.682240
31
-0.773688
12
-73.009010
22
-29.584614
32
1.003341
13
-71.330605
23
-49.097916
33
0.780537
0
3DFACE
8
0
70
0
10
-71.330605
20
-49.097916
30
0.780537
11
-73.009010
21
-29.584614
31
1.003341
12
-56.598461
22
-31.560120
32
1.684374
13
-53.652275
23
-51.077187
33
2.228183
0
3DFACE
8
0
70
0
10
-53.652275
20
-51.077187
30
2.228183
11
-56.598461
21
-31.560120
31
1.684374
12
-39.018867
22
-34.608753
32
0.317040
13
-36.844002
23
-53.293301
33
1.695365
0
3DFACE
8
0
70
0
10
-36.844002
20
-53.293301
30
1.695365
11
-39.018867
21
-34.608753
31
0.317040
12
-20.802425
22
-36.584526
32
-2.747777
13
-21.171452
23
-54.002602
33
-1.023680
0
3DFACE
8
0
70
0
10
-21.171452
20
-54.002602
30
-1.023680
11
-20.802425
21
-36.584526
31
-2.747777
12
-3.176922
22
-35.849266
32
-6.104760
13
-6.072852
23
-52.596737
33
-4.886644
0
3DFACE
8
0
70
0
10
-6.072852
20
-52.596737
30
-4.886644
11
-3.176922
21
-35.849266
31
-6.104760
12
13.248227
22
-32.611897
32
-8.236677
13
9.768808
23
-50.243790
33
-8.336405
0
3DFACE
8
0
70
0
10
9.768808
20
-50.243790
30
-8.336405
11
13.248227
21
-32.611897
31
-8.236677
12
29.199230
22
-28.869411
32
-8.360374
13
27.622238
23
-49.028004
33
-10.210989
0
3DFACE
8
0
70
0
10
27.622238
20
-49.028004
30
-10.210989
11
29.199230
21
-28.869411
31
-8.360374
12
46.118557
22
-27.028301
32
-6.651323
13
47.677021
23
-50.310040
33
-10.216594
0
3DFACE
8
0
70
0
10
47.677021
20
-50.310040
30
-10.216594
11
46.118557
21
-27.028301
31
-6.651323
12
64.812912
22
-28.292137
32
-3.918119
13
68.661430
23
-53.658180
33
-8.835721
0
3DFACE
8
0
70
0
10
68.661430
20
-53.658180
30
-8.835721
11
64.812912
21
-28.292137
31
-3.918119
12
84.710869
22
-31.974087
32
-1.143222
13
88.571556
23
-57.145195
33
-6.918880
0
3DFACE
8
0
70
0
10
88.571556
20
-57.145195
30
-6.918880
11
84.710869
21
-31.974087
31
-1.143222
12
104.290962
22
-36.043232
32
0.854969
13
105.995308
23
-58.698715
33
-5.279617
0
3DFACE
8
0
70
0
10
105.995308
20
-58.698715
30
-5.279617
11
104.290962
21
-36.043232
31
0.854969
12
122.315041
22
-38.460423
32
1.505315
13
121.084740
23
-57.476852
33
-4.473486
0
3DFACE
8
0
70
0
10
121.084740
20
-57.476852
30
-4.473486
11
122.315041
21
-38.460423
31
1.505315
12
138.297989
22
-37.555130
32
0.376208
13
135.306366
23
-53.855331
33
-4.288338
0
3DFACE
8
0
70
0
10
135.306366
20
-53.855331
30
-4.288338
11
138.297989
21
-37.555130
31
0.376208
12
154.054443
22
-34.925434
32
-1.614328
13
150.958496
23
-50.641094
33
-4.614095
0
3DFACE
8
0
70
0
10
150.958496
20
-50.641094
30
-4.614095
11
154.054443
21
-34.925434
31
-1.614328
12
170.352310
22
-31.954893
32
-3.531064
13
168.062408
23
-48.795975
33
-4.794827
0
3DFACE
8
0
70
0
10
168.062408
20
-48.795975
30
-4.794827
11
170.352310
21
-31.954893
31
-3.531064
12
186.779175
22
-29.475863
32
-4.549405
13
185.405121
23
-48.196922
33
-4.416324
0
3DFACE
8
0
70
0
10
185.405121
20
-48.196922
30
-4.416324
11
186.779175
21
-29.475863
31
-4.549405
12
202.400345
22
-27.816633
32
-4.389003
13
201.810043
23
-48.318546
33
-3.586575
0
3DFACE
8
0
70
0
10
201.810043
20
-48.318546
30
-3.586575
11
202.400345
21
-27.816633
31
-4.389003
12
217.016418
22
-27.163351
32
-3.512351
13
217.297943
23
-48.890778
33
-2.852682
0
3DFACE
8
0
70
0
10
-158.533142
20
-32.005802
30
-1.276844
11
-158.705215
21
-13.082844
31
-1.302335
12
-141.144241
22
-13.581106
32
-1.726235
13
-141.126007
23
-32.497097
33
-1.719210
0
3DFACE
8
0
70
0
10
-141.126007
20
-32.497097
30
-1.719210
11
-141.144241
21
-13.581106
31
-1.726235
12
-122.341713
22
-13.776215
32
-2.211832
13
-123.185822
23
-32.347809
33
-2.345166
0
3DFACE
8
0
70
0
10
-123.185822
20
-32.347809
30
-2.345166
11
-122.341713
21
-13.776215
31
-2.211832
12
-104.045761
22
-12.950476
32
-1.889245
13
-105.556511
23
-31.119362
33
-2.162367
0
3DFACE
8
0
70
0
10
-105.556511
20
-31.119362
30
-2.162367
11
-104.045761
21
-12.950476
31
-1.889245
12
-88.054642
22
-11.454750
32
-0.580455
13
-88.949326
23
-29.682240
33
-0.773688
0
3DFACE
8
0
70
0
10
-88.949326
20
-29.682240
30
-0.773688
11
-88.054642
21
-11.454750
31
-0.580455
12
-74.028969
22
-10.629670
32
0.808098
13
-73.009010
23
-29.584614
33
1.003341
0
3DFACE
8
0
70
0
10
-73.009010
20
-29.584614
30
1.003341
11
-74.028969
21
-10.629670
31
0.808098
12
-59.487198
22
-11.650408
32
0.982115
13
-56.598461
23
-31.560120
33
1.684374
0
3DFACE
8
0
70
0
10
-56.598461
20
-31.560120
30
1.684374
11
-59.487198
21
-11.650408
31
0.982115
12
-42.064716
22
-14.341840
32
-0.633381
13
-39.018867
23
-34.608753
33
0.317040
0
3DFACE
8
0
70
0
10
-39.018867
20
-34.608753
30
0.317040
11
-42.064716
21
-14.341840
31
-0.633381
12
-21.755154
22
-17.059418
32
-3.389806
13
-20.802425
23
-36.584526
33
-2.747777
0
3DFACE
8
0
70
0
10
-20.802425
20
-36.584526
30
-2.747777
11
-21.755154
21
-17.059418
31
-3.389806
12
-0.944592
22
-17.790600
32
-5.876205
13
-3.176922
23
-35.849266
33
-6.104760
0
3DFACE
8
0
70
0
10
-3.176922
20
-35.849266
30
-6.104760
11
-0.944592
21
-17.790600
31
-5.876205
12
17.691515
22
-15.611857
32
-6.846465
13
13.248227
23
-32.611897
33
-8.236677
0
3DFACE
8
0
70
0
10
13.248227
20
-32.611897
30
-8.236677
11
17.691515
21
-15.611857
31
-6.846465
12
33.377899
22
-11.399661
32
-5.859810
13
29.199230
23
-28.869411
33
-8.360374
0
3DFACE
8
0
70
0
10
29.199230
20
-28.869411
30
-8.360374
11
33.377899
21
-11.399661
31
-5.859810
12
47.631718
22
-7.325962
32
-3.304081
13
46.118557
23
-27.028301
33
-6.651323
0
3DFACE
8
0
70
0
10
46.118557
20
-27.028301
30
-6.651323
11
47.631718
21
-7.325962
31
-3.304081
12
62.802551
22
-5.542017
32
0.002564
13
64.812912
23
-28.292137
33
-3.918119
0
3DFACE
8
0
70
0
10
64.812912
20
-28.292137
30
-3.918119
11
62.802551
21
-5.542017
31
0.002564
12
80.230209
22
-6.963164
32
3.211934
13
84.710869
23
-31.974087
33
-1.143222
0
3DFACE
8
0
70
0
10
84.710869
20
-31.974087
30
-1.143222
11
80.230209
21
-6.963164
31
3.211934
12
99.542107
22
-10.918246
32
5.569177
13
104.290962
23
-36.043232
33
0.854969
0
3DFACE
8
0
70
0
10
104.290962
20
-36.043232
30
0.854969
11
99.542107
21
-10.918246
31
5.569177
12
119.372299
22
-15.618661
32
6.463151
13
122.315041
23
-38.460423
33
1.505315
0
3DFACE
8
0
70
0
10
122.315041
20
-38.460423
30
1.505315
11
119.372299
21
-15.618661
31
6.463151
12
138.144867
22
-18.498821
32
4.708992
13
138.297989
23
-37.555130
33
0.376208
0
3DFACE
8
0
70
0
10
138.297989
20
-37.555130
30
0.376208
11
138.144867
21
-18.498821
31
4.708992
12
155.927948
22
-18.823912
32
1.607444
13
154.054443
23
-34.925434
33
-1.614328
0
3DFACE
8
0
70
0
10
154.054443
20
-34.925434
30
-1.614328
11
155.927948
21
-18.823912
31
1.607444
12
173.198730
22
-17.145500
32
-1.818252
13
170.352310
23
-31.954893
33
-3.531064
0
3DFACE
8
0
70
0
10
170.352310
20
-31.954893
30
-3.531064
11
173.198730
21
-17.145500
31
-1.818252
12
189.793716
22
-14.326951
32
-4.380298
13
186.779175
23
-29.475863
33
-4.549405
0
3DFACE
8
0
70
0
10
186.779175
20
-29.475863
30
-4.549405
11
189.793716
21
-14.326951
31
-4.380298
12
204.993057
22
-11.226073
32
-5.279306
13
202.400345
23
-27.816633
33
-4.389003
0
3DFACE
8
0
70
0
10
202.400345
20
-27.816633
30
-4.389003
11
204.993057
21
-11.226073
31
-5.279306
12
218.605850
22
-8.659382
32
-4.638481
13
217.016418
23
-27.163351
33
-3.512351
0
3DFACE
8
0
70
0
10
-158.705215
20
-13.082844
30
-1.302335
11
-158.894073
21
5.874629
31
-1.310033
12
-141.425400
22
5.508133
32
-1.679056
13
-141.144241
23
-13.581106
33
-1.726235
0
3DFACE
8
0
70
0
10
-141.144241
20
-13.581106
30
-1.726235
11
-141.425400
21
5.508133
31
-1.679056
12
-122.014252
22
4.982002
32
-2.061018
13
-122.341713
23
-13.776215
33
-2.211832
0
3DFACE
8
0
70
0
10
-122.341713
20
-13.776215
30
-2.211832
11
-122.014252
21
4.982002
31
-2.061018
12
-102.831017
22
5.107472
32
-1.736950
13
-104.045761
23
-12.950476
33
-1.889245
0
3DFACE
8
0
70
0
10
-104.045761
20
-12.950476
30
-1.889245
11
-102.831017
21
5.107472
31
-1.736950
12
-86.688881
22
6.201231
32
-0.647224
13
-88.054642
23
-11.454750
33
-0.580455
0
3DFACE
8
0
70
0
10
-88.054642
20
-11.454750
30
-0.580455
11
-86.688881
21
6.201231
31
-0.647224
12
-73.818352
22
7.580789
32
0.384481
13
-74.028969
23
-10.629670
33
0.808098
0
3DFACE
8
0
70
0
10
-74.028969
20
-10.629670
30
0.808098
11
-73.818352
21
7.580789
31
0.384481
12
-61.157875
22
8.011714
32
0.346825
13
-59.487198
23
-11.650408
33
0.982115
0
3DFACE
8
0
70
0
10
-59.487198
20
-11.650408
30
0.982115
11
-61.157875
21
8.011714
31
0.346825
12
-44.940506
22
6.741307
32
-1.057456
13
-42.064716
23
-14.341840
33
-0.633381
0
3DFACE
8
0
70
0
10
-42.064716
20
-14.341840
30
-0.633381
11
-44.940506
21
6.741307
31
-1.057456
12
-24.022665
22
4.239034
32
-3.147498
13
-21.755154
23
-17.059418
33
-3.389806
0
3DFACE
8
0
70
0
10
-21.755154
20
-17.059418
30
-3.389806
11
-24.022665
21
4.239034
31
-3.147498
12
-0.843347
22
2.030183
32
-4.780724
13
-0.944592
23
-17.790600
33
-5.876205
0
3DFACE
8
0
70
0
10
-0.944592
20
-17.790600
30
-5.876205
11
-0.843347
21
2.030183
31
-4.780724
12
20.641317
22
1.738563
32
-5.092856
13
17.691515
23
-15.611857
33
-6.846465
0
3DFACE
8
0
70
0
10
17.691515
20
-15.611857
30
-6.846465
11
20.641317
21
1.738563
31
-5.092856
12
37.973412
22
4.018960
32
-3.868504
13
33.377899
23
-11.399661
33
-5.859810
0
3DFACE
8
0
70
0
10
33.377899
20
-11.399661
30
-5.859810
11
37.973412
21
4.018960
31
-3.868504
12
51.638401
22
8.083710
32
-1.431377
13
47.631718
23
-7.325962
33
-3.304081
0
3DFACE
8
0
70
0
10
47.631718
20
-7.325962
30
-3.304081
11
51.638401
21
8.083710
31
-1.431377
12
64.184349
22
12.094036
32
1.660887
13
62.802551
23
-5.542017
33
0.002564
0
3DFACE
8
0
70
0
10
62.802551
20
-5.542017
30
0.002564
11
64.184349
21
12.094036
31
1.660887
12
78.223213
22
14.159698
32
4.846601
13
80.230209
23
-6.963164
33
3.211934
0
3DFACE
8
0
70
0
10
80.230209
20
-6.963164
30
3.211934
11
78.223213
21
14.159698
31
4.846601
12
94.941910
22
13.217232
32
7.496843
13
99.542107
23
-10.918246
33
5.569177
0
3DFACE
8
0
70
0
10
99.542107
20
-10.918246
30
5.569177
11
94.941910
21
13.217232
31
7.496843
12
113.972076
22
9.540063
32
8.922599
13
119.372299
23
-15.618661
33
6.463151
0
3DFACE
8
0
70
0
10
119.372299
20
-15.618661
30
6.463151
11
113.972076
21
9.540063
31
8.922599
12
134.297699
22
4.606736
32
7.315031
13
138.144867
23
-18.498821
33
4.708992
0
3DFACE
8
0
70
0
10
138.144867
20
-18.498821
30
4.708992
11
134.297699
21
4.606736
31
7.315031
12
154.418274
22
0.971875
32
3.866047
13
155.927948
23
-18.823912
33
1.607444
0
3DFACE
8
0
70
0
10
155.927948
20
-18.823912
30
1.607444
11
154.418274
21
0.971875
31
3.866047
12
173.935196
22
-0.523872
32
-0.484381
13
173.198730
23
-17.145500
33
-1.818252
0
3DFACE
8
0
70
0
10
173.198730
20
-17.145500
30
-1.818252
11
173.935196
21
-0.523872
31
-0.484381
12
192.219345
22
0.163657
32
-4.297604
13
189.793716
23
-14.326951
33
-4.380298
0
3DFACE
8
0
70
0
10
189.793716
20
-14.326951
30
-4.380298
11
192.219345
21
0.163657
31
-4.297604
12
208.285873
22
2.493369
32
-6.266550
13
204.993057
23
-11.226073
33
-5.279306
0
3DFACE
8
0
70
0
10
204.993057
20
-11.226073
30
-5.279306
11
208.285873
21
2.493369
31
-6.266550
12
221.770889
22
5.537456
32
-6.052214
13
218.605850
23
-8.659382
33
-4.638481
0
3DFACE
8
0
70
0
10
-158.894073
20
5.874629
30
-1.310033
11
-159.042404
21
24.822865
31
-1.305672
12
-141.893326
22
24.713717
32
-1.601003
13
-141.425400
23
5.508133
33
-1.679056
0
3DFACE
8
0
70
0
10
-141.425400
20
5.508133
30
-1.679056
11
-141.893326
21
24.713717
31
-1.601003
12
-122.318115
22
24.041800
32
-1.911492
13
-122.014252
23
4.982002
33
-2.061018
0
3DFACE
8
0
70
0
10
-122.014252
20
4.982002
30
-2.061018
11
-122.318115
21
24.041800
31
-1.911492
12
-102.307961
22
23.434298
32
-1.670461
13
-102.831017
23
5.107472
33
-1.736950
0
3DFACE
8
0
70
0
10
-102.831017
20
5.107472
30
-1.736950
11
-102.307961
21
23.434298
31
-1.670461
12
-85.298477
22
23.730011
32
-0.859096
13
-86.688881
23
6.201231
33
-0.647224
0
3DFACE
8
0
70
0
10
-86.688881
20
6.201231
30
-0.647224
11
-85.298477
21
23.730011
31
-0.859096
12
-72.426140
22
25.113922
32
-0.122987
13
-73.818352
23
7.580789
33
0.384481
0
3DFACE
8
0
70
0
10
-73.818352
20
7.580789
30
0.384481
11
-72.426140
21
25.113922
31
-0.122987
12
-60.970627
22
26.771282
32
-0.173419
13
-61.157875
23
8.011714
33
0.346825
0
3DFACE
8
0
70
0
10
-61.157875
20
8.011714
30
0.346825
11
-60.970627
21
26.771282
31
-0.173419
12
-46.533833
22
27.398821
32
-1.132270
13
-44.940506
23
6.741307
33
-1.057456
0
3DFACE
8
0
70
0
10
-44.940506
20
6.741307
30
-1.057456
11
-46.533833
21
27.398821
31
-1.132270
12
-26.748917
22
26.185936
32
-2.454248
13
-24.022665
23
4.239034
33
-3.147498
0
3DFACE
8
0
70
0
10
-24.022665
20
4.239034
30
-3.147498
11
-26.748917
21
26.185936
31
-2.454248
12
-3.098056
22
23.513514
32
-3.393100
13
-0.843347
23
2.030183
33
-4.780724
0
3DFACE
8
0
70
0
10
-0.843347
20
2.030183
30
-4.780724
11
-3.098056
21
23.513514
31
-3.393100
12
20.460297
22
20.847322
32
-3.479917
13
20.641317
23
1.738563
33
-5.092856
0
3DFACE
8
0
70
0
10
20.641317
20
1.738563
30
-5.092856
11
20.460297
21
20.847322
31
-3.479917
12
40.449436
22
19.888157
32
-2.628470
13
37.973412
23
4.018960
33
-3.868504
0
3DFACE
8
0
70
0
10
37.973412
20
4.018960
30
-3.868504
11
40.449436
21
19.888157
31
-2.628470
12
55.903572
22
21.540558
32
-0.955085
13
51.638401
23
8.083710
33
-1.431377
0
3DFACE
8
0
70
0
10
51.638401
20
8.083710
30
-1.431377
11
55.903572
21
21.540558
31
-0.955085
12
68.342247
22
25.355717
32
1.383069
13
64.184349
23
12.094036
33
1.660887
0
3DFACE
8
0
70
0
10
64.184349
20
12.094036
30
1.660887
11
68.342247
21
25.355717
31
1.383069
12
80.300537
22
29.717278
32
4.136584
13
78.223213
23
14.159698
33
4.846601
0
3DFACE
8
0
70
0
10
78.223213
20
14.159698
30
4.846601
11
80.300537
21
29.717278
31
4.136584
12
93.848412
22
32.674706
32
6.852113
13
94.941910
23
13.217232
33
7.496843
0
3DFACE
8
0
70
0
10
94.941910
20
13.217232
30
7.496843
11
93.848412
21
32.674706
31
6.852113
12
109.926201
22
32.852203
32
8.748400
13
113.972076
23
9.540063
33
8.922599
0
3DFACE
8
0
70
0
10
113.972076
20
9.540063
30
8.922599
11
109.926201
21
32.852203
31
8.748400
12
129.201767
22
29.440407
32
7.688961
13
134.297699
23
4.606736
33
7.315031
0
3DFACE
8
0
70
0
10
134.297699
20
4.606736
30
7.315031
11
129.201767
21
29.440407
31
7.688961
12
149.998642
22
24.941965
32
4.434984
13
154.418274
23
0.971875
33
3.866047
0
3DFACE
8
0
70
0
10
154.418274
20
0.971875
30
3.866047
11
149.998642
21
24.941965
31
4.434984
12
171.302872
22
20.980616
32
-0.235223
13
173.935196
23
-0.523872
33
-0.484381
0
3DFACE
8
0
70
0
10
173.935196
20
-0.523872
30
-0.484381
11
171.302872
21
20.980616
31
-0.235223
12
191.765457
22
18.602470
32
-4.757995
13
192.219345
23
0.163657
33
-4.297604
0
3DFACE
8
0
70
0
10
192.219345
20
0.163657
30
-4.297604
11
191.765457
21
18.602470
31
-4.757995
12
209.725525
22
18.133316
32
-7.449917
13
208.285873
23
2.493369
33
-6.266550
0
3DFACE
8
0
70
0
10
208.285873
20
2.493369
30
-6.266550
11
209.725525
21
18.133316
31
-7.449917
12
224.298096
22
19.290789
32
-7.516487
13
221.770889
23
5.537456
33
-6.052214
0
3DFACE
8
0
70
0
10
-159.042404
20
24.822865
30
-1.305672
11
-159.191925
21
43.717468
31
-1.295875
12
-142.424484
22
43.916122
32
-1.511219
13
-141.893326
23
24.713717
33
-1.601003
0
3DFACE
8
0
70
0
10
-141.893326
20
24.713717
30
-1.601003
11
-142.424484
21
43.916122
31
-1.511219
12
-123.154465
22
43.374527
32
-1.766832
13
-122.318115
23
24.041800
33
-1.911492
0
3DFACE
8
0
70
0
10
-122.318115
20
24.041800
30
-1.911492
11
-123.154465
21
43.374527
31
-1.766832
12
-102.683052
22
42.294338
32
-1.637828
13
-102.307961
23
23.434298
33
-1.670461
0
3DFACE
8
0
70
0
10
-102.307961
20
23.434298
30
-1.670461
11
-102.683052
21
42.294338
31
-1.637828
12
-84.470810
22
41.668026
32
-1.108077
13
-85.298477
23
23.730011
33
-0.859096
0
3DFACE
8
0
70
0
10
-85.298477
20
23.730011
30
-0.859096
11
-84.470810
21
41.668026
31
-1.108077
12
-70.511543
22
42.417233
32
-0.623581
13
-72.426140
23
25.113922
33
-0.122987
0
3DFACE
8
0
70
0
10
-72.426140
20
25.113922
30
-0.122987
11
-70.511543
21
42.417233
31
-0.623581
12
-59.106274
22
44.478310
32
-0.624130
13
-60.970627
23
26.771282
33
-0.173419
0
3DFACE
8
0
70
0
10
-60.970627
20
26.771282
30
-0.173419
11
-59.106274
21
44.478310
31
-0.624130
12
-46.171200
22
46.642426
32
-1.116711
13
-46.533833
23
27.398821
33
-1.132270
0
3DFACE
8
0
70
0
10
-46.533833
20
27.398821
30
-1.132270
11
-46.171200
21
46.642426
31
-1.116711
12
-28.591526
22
47.316345
32
-1.730830
13
-26.748917
23
26.185936
33
-2.454248
0
3DFACE
8
0
70
0
10
-26.748917
20
26.185936
30
-2.454248
11
-28.591526
21
47.316345
31
-1.730830
12
-6.478220
22
45.638371
32
-2.102541
13
-3.098056
23
23.513514
33
-3.393100
0
3DFACE
8
0
70
0
10
-3.098056
20
23.513514
30
-3.393100
11
-6.478220
21
45.638371
31
-2.102541
12
17.304520
22
42.140045
32
-2.113544
13
20.460297
23
20.847322
33
-3.479917
0
3DFACE
8
0
70
0
10
20.460297
20
20.847322
30
-3.479917
11
17.304520
21
42.140045
31
-2.113544
12
39.374012
22
38.509247
32
-1.782297
13
40.449436
23
19.888157
33
-2.628470
0
3DFACE
8
0
70
0
10
40.449436
20
19.888157
30
-2.628470
11
39.374012
21
38.509247
31
-1.782297
12
57.785652
22
36.651196
32
-1.038311
13
55.903572
23
21.540558
33
-0.955085
0
3DFACE
8
0
70
0
10
55.903572
20
21.540558
30
-0.955085
11
57.785652
21
36.651196
31
-1.038311
12
72.572922
22
37.650539
32
0.294715
13
68.342247
23
25.355717
33
1.383069
0
3DFACE
8
0
70
0
10
68.342247
20
25.355717
30
1.383069
11
72.572922
21
37.650539
31
0.294715
12
85.106743
22
41.223015
32
2.276096
13
80.300537
23
29.717278
33
4.136584
0
3DFACE
8
0
70
0
10
80.300537
20
29.717278
30
4.136584
11
85.106743
21
41.223015
31
2.276096
12
97.166351
22
45.917545
32
4.610574
13
93.848412
23
32.674706
33
6.852113
0
3DFACE
8
0
70
0
10
93.848412
20
32.674706
30
6.852113
11
97.166351
21
45.917545
31
4.610574
12
110.325150
22
49.835159
32
6.502541
13
109.926201
23
32.852203
33
8.748400
0
3DFACE
8
0
70
0
10
109.926201
20
32.852203
30
8.748400
11
110.325150
21
49.835159
31
6.502541
12
126.704369
22
50.601273
32
5.857487
13
129.201767
23
29.440407
33
7.688961
0
3DFACE
8
0
70
0
10
129.201767
20
29.440407
30
7.688961
11
126.704369
21
50.601273
31
5.857487
12
145.923721
22
48.772312
32
2.936067
13
149.998642
23
24.941965
33
4.434984
0
3DFACE
8
0
70
0
10
149.998642
20
24.941965
30
4.434984
11
145.923721
21
48.772312
31
2.936067
12
167.132568
22
45.482941
32
-1.615171
13
171.302872
23
20.980616
33
-0.235223
0
3DFACE
8
0
70
0
10
171.302872
20
20.980616
30
-0.235223
11
167.132568
21
45.482941
31
-1.615171
12
188.625702
22
41.951904
32
-6.182270
13
191.765457
23
18.602470
33
-4.757995
0
3DFACE
8
0
70
0
10
191.765457
20
18.602470
30
-4.757995
11
188.625702
21
41.951904
31
-6.182270
12
208.128265
22
39.155460
32
-8.846894
13
209.725525
23
18.133316
33
-7.449917
0
3DFACE
8
0
70
0
10
209.725525
20
18.133316
30
-7.449917
11
208.128265
21
39.155460
31
-8.846894
12
224.181076
22
37.598965
32
-8.650934
13
224.298096
23
19.290789
33
-7.516487
0
3DFACE
8
0
70
0
10
-159.191925
20
43.717468
30
-1.295875
11
-160.018555
21
62.534557
31
-1.286118
12
-143.463364
22
62.975674
32
-1.424302
13
-142.424484
23
43.916122
33
-1.511219
0
3DFACE
8
0
70
0
10
-142.424484
20
43.916122
30
-1.511219
11
-143.463364
21
62.975674
31
-1.424302
12
-124.605820
22
62.787674
32
-1.627212
13
-123.154465
23
43.374527
33
-1.766832
0
3DFACE
8
0
70
0
10
-123.154465
20
43.374527
30
-1.766832
11
-124.605820
21
62.787674
31
-1.627212
12
-104.017281
22
61.675091
32
-1.595963
13
-102.683052
23
42.294338
33
-1.637828
0
3DFACE
8
0
70
0
10
-102.683052
20
42.294338
30
-1.637828
11
-104.017281
21
61.675091
31
-1.595963
12
-84.671333
22
60.384422
32
-1.312634
13
-84.470810
23
41.668026
33
-1.108077
0
3DFACE
8
0
70
0
10
-84.470810
20
41.668026
30
-1.108077
11
-84.671333
21
60.384422
31
-1.312634
12
-69.001205
22
60.162693
32
-1.055998
13
-70.511543
23
42.417233
33
-0.623581
0
3DFACE
8
0
70
0
10
-70.511543
20
42.417233
30
-0.623581
11
-69.001205
21
60.162693
31
-1.055998
12
-56.485687
22
61.681206
32
-1.049456
13
-59.106274
23
44.478310
33
-0.624130
0
3DFACE
8
0
70
0
10
-59.106274
20
44.478310
30
-0.624130
11
-56.485687
21
61.681206
31
-1.049456
12
-44.043999
22
64.352318
32
-1.206612
13
-46.171200
23
46.642426
33
-1.116711
0
3DFACE
8
0
70
0
10
-46.171200
20
46.642426
30
-1.116711
11
-44.043999
21
64.352318
31
-1.206612
12
-28.569424
22
66.593704
32
-1.273537
13
-28.591526
23
47.316345
33
-1.730830
0
3DFACE
8
0
70
0
10
-28.591526
20
47.316345
30
-1.730830
11
-28.569424
21
66.593704
31
-1.273537
12
-9.099866
22
66.818016
32
-1.155380
13
-6.478220
23
45.638371
33
-2.102541
0
3DFACE
8
0
70
0
10
-6.478220
20
45.638371
30
-2.102541
11
-9.099866
21
66.818016
31
-1.155380
12
12.989840
22
64.425919
32
-1.005555
13
17.304520
23
42.140045
33
-2.113544
0
3DFACE
8
0
70
0
10
17.304520
20
42.140045
30
-2.113544
11
12.989840
21
64.425919
31
-1.005555
12
35.320942
22
60.173679
32
-0.976939
13
39.374012
23
38.509247
33
-1.782297
0
3DFACE
8
0
70
0
10
39.374012
20
38.509247
30
-1.782297
11
35.320942
21
60.173679
31
-0.976939
12
55.920376
22
55.769230
32
-0.954115
13
57.785652
23
36.651196
33
-1.038311
0
3DFACE
8
0
70
0
10
57.785652
20
36.651196
30
-1.038311
11
55.920376
21
55.769230
31
-0.954115
12
73.834732
22
53.019745
32
-0.586258
13
72.572922
23
37.650539
33
0.294715
0
3DFACE
8
0
70
0
10
72.572922
20
37.650539
30
0.294715
11
73.834732
21
53.019745
31
-0.586258
12
89.067139
22
53.019531
32
0.399449
13
85.106743
23
41.223015
33
2.276096
0
3DFACE
8
0
70
0
10
85.106743
20
41.223015
30
2.276096
11
89.067139
21
53.019531
31
0.399449
12
102.316978
22
55.749489
32
1.858640
13
97.166351
23
45.917545
33
4.610574
0
3DFACE
8
0
70
0
10
97.166351
20
45.917545
30
4.610574
11
102.316978
21
55.749489
31
1.858640
12
114.794388
22
60.201920
32
3.058645
13
110.325150
23
49.835159
33
6.502541
0
3DFACE
8
0
70
0
10
110.325150
20
49.835159
30
6.502541
11
114.794388
21
60.201920
31
3.058645
12
128.765579
22
64.608261
32
2.342953
13
126.704369
23
50.601273
33
5.857487
0
3DFACE
8
0
70
0
10
126.704369
20
50.601273
30
5.857487
11
128.765579
21
64.608261
31
2.342953
12
145.527740
22
67.108368
32
-0.373492
13
145.923721
23
48.772312
33
2.936067
0
3DFACE
8
0
70
0
10
145.923721
20
48.772312
30
2.936067
11
145.527740
21
67.108368
31
-0.373492
12
164.948837
22
67.485580
32
-4.464067
13
167.132568
23
45.482941
33
-1.615171
0
3DFACE
8
0
70
0
10
167.132568
20
45.482941
30
-1.615171
11
164.948837
21
67.485580
31
-4.464067
12
185.554794
22
66.106064
32
-8.310751
13
188.625702
23
41.951904
33
-6.182270
0
3DFACE
8
0
70
0
10
188.625702
20
41.951904
30
-6.182270
11
185.554794
21
66.106064
31
-8.310751
12
205.023331
22
63.654602
32
-10.099689
13
208.128265
23
39.155460
33
-8.846894
0
3DFACE
8
0
70
0
10
208.128265
20
39.155460
30
-8.846894
11
205.023331
21
63.654602
31
-10.099689
12
221.719025
22
60.967022
32
-9.024819
13
224.181076
23
37.598965
33
-8.650934
0
3DFACE
8
0
70
0
10
-160.018555
20
62.534557
30
-1.286118
11
-160.652786
21
81.286469
31
-1.279879
12
-144.479340
22
81.807098
32
-1.350484
13
-143.463364
23
62.975674
33
-1.424302
0
3DFACE
8
0
70
0
10
-143.463364
20
62.975674
30
-1.424302
11
-144.479340
21
81.807098
31
-1.350484
12
-126.505089
22
82.016258
32
-1.495652
13
-124.605820
23
62.787674
33
-1.627212
0
3DFACE
8
0
70
0
10
-124.605820
20
62.787674
30
-1.627212
11
-126.505089
21
82.016258
31
-1.495652
12
-106.251740
22
81.267326
32
-1.522302
13
-104.017281
23
61.675091
33
-1.595963
0
3DFACE
8
0
70
0
10
-104.017281
20
61.675091
30
-1.595963
11
-106.251740
21
81.267326
31
-1.522302
12
-86.029861
22
79.841492
32
-1.422649
13
-84.671333
23
60.384422
33
-1.312634
0
3DFACE
8
0
70
0
10
-84.671333
20
60.384422
30
-1.312634
11
-86.029861
21
79.841492
31
-1.422649
12
-68.565041
22
78.837303
32
-1.367694
13
-69.001205
23
60.162693
33
-1.055998
0
3DFACE
8
0
70
0
10
-69.001205
20
60.162693
30
-1.055998
11
-68.565041
21
78.837303
31
-1.367694
12
-54.253883
22
79.302910
32
-1.436819
13
-56.485687
23
61.681206
33
-1.049456
0
3DFACE
8
0
70
0
10
-56.485687
20
61.681206
30
-1.049456
11
-54.253883
21
79.302910
31
-1.436819
12
-41.153412
22
81.375977
32
-1.464230
13
-44.043999
23
64.352318
33
-1.206612
0
3DFACE
8
0
70
0
10
-44.043999
20
64.352318
30
-1.206612
11
-41.153412
21
81.375977
31
-1.464230
12
-26.752907
22
84.096077
32
-1.224447
13
-28.569424
23
66.593704
33
-1.273537
0
3DFACE
8
0
70
0
10
-28.569424
20
66.593704
30
-1.273537
11
-26.752907
21
84.096077
31
-1.224447
12
-9.697785
22
85.951134
32
-0.736446
13
-9.099866
23
66.818016
33
-1.155380
0
3DFACE
8
0
70
0
10
-9.099866
20
66.818016
30
-1.155380
11
-9.697785
21
85.951134
31
-0.736446
12
9.772697
22
85.708145
32
-0.306701
13
12.989840
23
64.425919
33
-1.005555
0
3DFACE
8
0
70
0
10
12.989840
20
64.425919
30
-1.005555
11
9.772697
21
85.708145
31
-0.306701
12
30.506697
22
83.012199
32
-0.240733
13
35.320942
23
60.173679
33
-0.976939
0
3DFACE
8
0
70
0
10
35.320942
20
60.173679
30
-0.976939
11
30.506697
21
83.012199
31
-0.240733
12
51.253788
22
78.513649
32
-0.533583
13
55.920376
23
55.769230
33
-0.954115
0
3DFACE
8
0
70
0
10
55.920376
20
55.769230
30
-0.954115
11
51.253788
21
78.513649
31
-0.533583
12
71.018745
22
73.573586
32
-0.865396
13
73.834732
23
53.019745
33
-0.586258
0
3DFACE
8
0
70
0
10
73.834732
20
53.019745
30
-0.586258
11
71.018745
21
73.573586
31
-0.865396
12
89.106590
22
69.739243
32
-0.908686
13
89.067139
23
53.019531
33
0.399449
0
3DFACE
8
0
70
0
10
89.067139
20
53.019531
30
0.399449
11
89.106590
21
69.739243
31
-0.908686
12
105.219391
22
68.210098
32
-0.695544
13
102.316978
23
55.749489
33
1.858640
0
3DFACE
8
0
70
0
10
102.316978
20
55.749489
30
1.858640
11
105.219391
21
68.210098
31
-0.695544
12
119.689499
22
69.485100
32
-0.801467
13
114.794388
23
60.201920
33
3.058645
0
3DFACE
8
0
70
0
10
114.794388
20
60.201920
30
3.058645
11
119.689499
21
69.485100
31
-0.801467
12
133.700592
22
74.128029
32
-2.102460
13
128.765579
23
64.608261
33
2.342953
0
3DFACE
8
0
70
0
10
128.765579
20
64.608261
30
2.342953
11
133.700592
21
74.128029
31
-2.102460
12
149.265320
22
79.160049
32
-4.762304
13
145.527740
23
67.108368
33
-0.373492
0
3DFACE
8
0
70
0
10
145.527740
20
67.108368
30
-0.373492
11
149.265320
21
79.160049
31
-4.762304
12
166.823914
22
83.224640
32
-8.077272
13
164.948837
23
67.485580
33
-4.464067
0
3DFACE
8
0
70
0
10
164.948837
20
67.485580
30
-4.464067
11
166.823914
21
83.224640
31
-8.077272
12
185.438644
22
85.472885
32
-10.548389
13
185.554794
23
66.106064
33
-8.310751
0
3DFACE
8
0
70
0
10
185.554794
20
66.106064
30
-8.310751
11
185.438644
21
85.472885
31
-10.548389
12
203.324646
22
85.697144
32
-10.729864
13
205.023331
23
63.654602
33
-10.099689
0
3DFACE
8
0
70
0
10
205.023331
20
63.654602
30
-10.099689
11
203.324646
21
85.697144
31
-10.729864
12
219.310852
22
84.415955
32
-8.284557
13
221.719025
23
60.967022
33
-9.024819
0
3DFACE
8
0
70
0
10
-160.652786
20
81.286469
30
-1.279879
11
-160.504776
21
100.019051
31
-1.279493
12
-144.315826
22
100.440514
32
-1.297500
13
-144.479340
23
81.807098
33
-1.350484
0
3DFACE
8
0
70
0
10
-144.479340
20
81.807098
30
-1.350484
11
-144.315826
21
100.440514
31
-1.297500
12
-127.122536
22
100.886681
32
-1.381495
13
-126.505089
23
82.016258
33
-1.495652
0
3DFACE
8
0
70
0
10
-126.505089
20
82.016258
30
-1.495652
11
-127.122536
21
100.886681
31
-1.381495
12
-107.970581
22
100.638237
32
-1.418635
13
-106.251740
23
81.267326
33
-1.522302
0
3DFACE
8
0
70
0
10
-106.251740
20
81.267326
30
-1.522302
11
-107.970581
21
100.638237
31
-1.418635
12
-87.871414
22
99.571075
32
-1.422274
13
-86.029861
23
79.841492
33
-1.422649
0
3DFACE
8
0
70
0
10
-86.029861
20
79.841492
30
-1.422649
11
-87.871414
21
99.571075
31
-1.422274
12
-69.161316
22
98.357964
32
-1.516740
13
-68.565041
23
78.837303
33
-1.367694
0
3DFACE
8
0
70
0
10
-68.565041
20
78.837303
30
-1.367694
11
-69.161316
21
98.357964
31
-1.516740
12
-53.105927
22
97.961739
32
-1.716921
13
-54.253883
23
79.302910
33
-1.436819
0
3DFACE
8
0
70
0
10
-54.253883
20
79.302910
30
-1.436819
11
-53.105927
21
97.961739
31
-1.716921
12
-38.711979
22
98.923088
32
-1.812305
13
-41.153412
23
81.375977
33
-1.464230
0
3DFACE
8
0
70
0
10
-41.153412
20
81.375977
30
-1.464230
11
-38.711979
21
98.923088
31
-1.812305
12
-24.199135
22
101.004395
32
-1.544754
13
-26.752907
23
84.096077
33
-1.224447
0
3DFACE
8
0
70
0
10
-26.752907
20
84.096077
30
-1.224447
11
-24.199135
21
101.004395
31
-1.544754
12
-8.388241
22
103.335129
32
-0.907100
13
-9.697785
23
85.951134
33
-0.736446
0
3DFACE
8
0
70
0
10
-9.697785
20
85.951134
30
-0.736446
11
-8.388241
21
103.335129
31
-0.907100
12
8.918265
22
104.832207
32
-0.223197
13
9.772697
23
85.708145
33
-0.306701
0
3DFACE
8
0
70
0
10
9.772697
20
85.708145
30
-0.306701
11
8.918265
21
104.832207
31
-0.223197
12
27.358091
22
104.616417
32
0.092985
13
30.506697
23
83.012199
33
-0.240733
0
3DFACE
8
0
70
0
10
30.506697
20
83.012199
30
-0.240733
11
27.358091
21
104.616417
31
0.092985
12
46.498928
22
102.304314
32
-0.145002
13
51.253788
23
78.513649
33
-0.533583
0
3DFACE
8
0
70
0
10
51.253788
20
78.513649
30
-0.533583
11
46.498928
21
102.304314
31
-0.145002
12
65.938744
22
98.163071
32
-0.811147
13
71.018745
23
73.573586
33
-0.865396
0
3DFACE
8
0
70
0
10
71.018745
20
73.573586
30
-0.865396
11
65.938744
21
98.163071
31
-0.811147
12
85.186073
22
93.102859
32
-1.677460
13
89.106590
23
69.739243
33
-0.908686
0
3DFACE
8
0
70
0
10
89.106590
20
69.739243
30
-0.908686
11
85.186073
21
93.102859
31
-1.677460
12
103.703545
22
88.467361
32
-2.723268
13
105.219391
23
68.210098
33
-0.695544
0
3DFACE
8
0
70
0
10
105.219391
20
68.210098
30
-0.695544
11
103.703545
21
88.467361
31
-2.723268
12
121.220268
22
85.647552
32
-4.288994
13
119.689499
23
69.485100
33
-0.801467
0
3DFACE
8
0
70
0
10
119.689499
20
69.485100
30
-0.801467
11
121.220268
21
85.647552
31
-4.288994
12
137.634827
22
87.174522
32
-6.302417
13
133.700592
23
74.128029
33
-2.102460
0
3DFACE
8
0
70
0
10
133.700592
20
74.128029
30
-2.102460
11
137.634827
21
87.174522
31
-6.302417
12
154.218292
22
90.963799
32
-8.783713
13
149.265320
23
79.160049
33
-4.762304
0
3DFACE
8
0
70
0
10
149.265320
20
79.160049
30
-4.762304
11
154.218292
21
90.963799
31
-8.783713
12
171.311386
22
95.549240
32
-10.944477
13
166.823914
23
83.224640
33
-8.077272
0
3DFACE
8
0
70
0
10
166.823914
20
83.224640
30
-8.077272
11
171.311386
21
95.549240
31
-10.944477
12
188.338898
22
99.508163
32
-11.570280
13
185.438644
23
85.472885
33
-10.548389
0
3DFACE
8
0
70
0
10
185.438644
20
85.472885
30
-10.548389
11
188.338898
21
99.508163
31
-11.570280
12
204.310440
22
101.958321
32
-9.836219
13
203.324646
23
85.697144
33
-10.729864
0
3DFACE
8
0
70
0
10
203.324646
20
85.697144
30
-10.729864
11
204.310440
21
101.958321
31
-9.836219
12
218.961548
22
102.913681
32
-6.067088
13
219.310852
23
84.415955
33
-8.284557
0
3DFACE
8
0
70
0
10
-160.504776
20
100.019051
30
-1.279493
11
-160.338882
21
118.788551
31
-1.285031
12
-143.969986
22
119.020905
32
-1.268841
13
-144.315826
23
100.440514
33
-1.297500
0
3DFACE
8
0
70
0
10
-144.315826
20
100.440514
30
-1.297500
11
-143.969986
21
119.020905
31
-1.268841
12
-127.140488
22
119.454018
32
-1.296350
13
-127.122536
23
100.886681
33
-1.381495
0
3DFACE
8
0
70
0
10
-127.122536
20
100.886681
30
-1.381495
11
-127.140488
21
119.454018
31
-1.296350
12
-108.788086
22
119.528366
32
-1.307027
13
-107.970581
23
100.638237
33
-1.418635
0
3DFACE
8
0
70
0
10
-107.970581
20
100.638237
30
-1.418635
11
-108.788086
21
119.528366
31
-1.307027
12
-89.261131
22
118.968048
32
-1.332914
13
-87.871414
23
99.571075
33
-1.422274
0
3DFACE
8
0
70
0
10
-87.871414
20
99.571075
30
-1.422274
11
-89.261131
21
118.968048
31
-1.332914
12
-70.139824
22
118.066559
32
-1.492691
13
-69.161316
23
98.357964
33
-1.516740
0
3DFACE
8
0
70
0
10
-69.161316
20
98.357964
30
-1.516740
11
-70.139824
21
118.066559
31
-1.492691
12
-52.947449
22
117.445816
32
-1.806598
13
-53.105927
23
97.961739
33
-1.716921
0
3DFACE
8
0
70
0
10
-53.105927
20
97.961739
30
-1.716921
11
-52.947449
21
117.445816
31
-1.806598
12
-37.352501
22
117.605591
32
-2.075926
13
-38.711979
23
98.923088
33
-1.812305
0
3DFACE
8
0
70
0
10
-38.711979
20
98.923088
30
-1.812305
11
-37.352501
21
117.605591
31
-2.075926
12
-22.111183
22
118.669235
32
-2.009321
13
-24.199135
23
101.004395
33
-1.544754
0
3DFACE
8
0
70
0
10
-24.199135
20
101.004395
30
-1.544754
11
-22.111183
21
118.669235
31
-2.009321
12
-6.360552
22
120.407127
32
-1.500358
13
-8.388241
23
103.335129
33
-0.907100
0
3DFACE
8
0
70
0
10
-8.388241
20
103.335129
30
-0.907100
11
-6.360552
21
120.407127
31
-1.500358
12
10.049014
22
122.361443
32
-0.772292
13
8.918265
23
104.832207
33
-0.223197
0
3DFACE
8
0
70
0
10
8.918265
20
104.832207
30
-0.223197
11
10.049014
21
122.361443
31
-0.772292
12
26.916843
22
123.928009
32
-0.243772
13
27.358091
23
104.616417
33
0.092985
0
3DFACE
8
0
70
0
10
27.358091
20
104.616417
30
0.092985
11
26.916843
21
123.928009
31
-0.243772
12
44.162743
22
124.439896
32
-0.256273
13
46.498928
23
102.304314
33
-0.145002
0
3DFACE
8
0
70
0
10
46.498928
20
102.304314
30
-0.145002
11
44.162743
21
124.439896
31
-0.256273
12
61.926289
22
123.363197
32
-0.918742
13
65.938744
23
98.163071
33
-0.811147
0
3DFACE
8
0
70
0
10
65.938744
20
98.163071
30
-0.811147
11
61.926289
21
123.363197
31
-0.918742
12
80.341217
22
120.584045
32
-2.177941
13
85.186073
23
93.102859
33
-1.677460
0
3DFACE
8
0
70
0
10
85.186073
20
93.102859
30
-1.677460
11
80.341217
21
120.584045
31
-2.177941
12
99.344002
22
116.608574
32
-4.000871
13
103.703545
23
88.467361
33
-2.723268
0
3DFACE
8
0
70
0
10
103.703545
20
88.467361
30
-2.723268
11
99.344002
21
116.608574
31
-4.000871
12
118.731323
22
112.490173
32
-6.459198
13
121.220268
23
85.647552
33
-4.288994
0
3DFACE
8
0
70
0
10
121.220268
20
85.647552
30
-4.288994
11
118.731323
21
112.490173
31
-6.459198
12
137.891785
22
110.455086
32
-8.680449
13
137.634827
23
87.174522
33
-6.302417
0
3DFACE
8
0
70
0
10
137.634827
20
87.174522
30
-6.302417
11
137.891785
21
110.455086
31
-8.680449
12
156.607468
22
110.491493
32
-10.488631
13
154.218292
23
90.963799
33
-8.783713
0
3DFACE
8
0
70
0
10
154.218292
20
90.963799
30
-8.783713
11
156.607468
21
110.491493
31
-10.488631
12
174.575500
22
111.953522
32
-11.138139
13
171.311386
23
95.549240
33
-10.944477
0
3DFACE
8
0
70
0
10
171.311386
20
95.549240
30
-10.944477
11
174.575500
21
111.953522
31
-11.138139
12
191.235413
22
113.891396
32
-9.886594
13
188.338898
23
99.508163
33
-11.570280
0
3DFACE
8
0
70
0
10
188.338898
20
99.508163
30
-11.570280
11
191.235413
21
113.891396
31
-9.886594
12
206.257172
22
115.616501
32
-6.647185
13
204.310440
23
101.958321
33
-9.836219
0
3DFACE
8
0
70
0
10
204.310440
20
101.958321
30
-9.836219
11
206.257172
21
115.616501
31
-6.647185
12
220.245026
22
117.069626
32
-2.354146
13
218.961548
23
102.913681
33
-6.067088
0
ENDSEC
0
EOF
