0
SECTION
2
HEADER
999
DXF File Generated by LightWave 3D(TM)
0
ENDSEC
0
SECTION
2
TABLES
0
ENDSEC
0
SECTION
2
BLOCKS
0
ENDSEC
0
SECTION
2
ENTITIES
0
3DFACE
8
0
70
0
10
-160.492035
20
-125.949905
30
-1.307774
11
-143.009766
21
-126.203598
31
-1.862893
12
-143.370651
22
-107.253906
32
-2.020575
13
-160.581055
23
-107.138535
33
-1.415466
0
3DFACE
8
0
70
0
10
-143.009766
20
-126.203598
30
-1.862893
11
-124.629196
21
-126.822052
31
-2.603167
12
-124.884811
22
-107.649979
32
-2.397435
13
-143.370651
23
-107.253906
33
-2.020575
0
3DFACE
8
0
70
0
10
-124.629196
20
-126.822052
30
-2.603167
11
-106.878448
21
-127.055374
31
-2.507035
12
-106.290329
22
-107.859314
32
-1.669643
13
-124.884811
23
-107.649979
33
-2.397435
0
3DFACE
8
0
70
0
10
-106.878448
20
-127.055374
30
-2.507035
11
-90.955528
21
-126.238182
31
-1.087525
12
-89.263306
22
-107.264450
32
0.118881
13
-106.290329
23
-107.859314
33
-1.669643
0
3DFACE
8
0
70
0
10
-90.955528
20
-126.238182
30
-1.087525
11
-75.906113
21
-124.651955
31
1.042913
12
-74.044876
22
-105.887070
32
1.851703
13
-89.263306
23
-107.264450
33
0.118881
0
3DFACE
8
0
70
0
10
-75.906113
20
-124.651955
30
1.042913
11
-59.258640
21
-123.486946
31
2.544244
12
-58.772522
22
-104.712425
32
2.128650
13
-74.044876
23
-105.887070
33
1.851703
0
3DFACE
8
0
70
0
10
-59.258640
20
-123.486946
30
2.544244
11
-39.402069
21
-123.782417
31
2.301145
12
-40.946594
22
-105.020264
32
0.303827
13
-58.772522
23
-104.712425
33
2.128650
0
3DFACE
8
0
70
0
10
-39.402069
20
-123.782417
30
2.301145
11
-17.536909
21
-125.328979
31
0.173522
12
-20.136965
22
-107.186089
32
-3.044910
13
-40.946594
23
-105.020264
33
0.303827
0
3DFACE
8
0
70
0
10
-17.536909
20
-125.328979
30
0.173522
11
2.882478
21
-126.695763
31
-2.977680
12
1.175184
22
-110.086700
32
-6.499902
13
-20.136965
23
-107.186089
33
-3.044910
0
3DFACE
8
0
70
0
10
2.882478
20
-126.695763
30
-2.977680
11
19.127815
21
-126.525703
31
-5.901996
12
19.588224
22
-111.828529
32
-8.670506
13
1.175184
23
-110.086700
33
-6.499902
0
3DFACE
8
0
70
0
10
19.127815
20
-126.525703
30
-5.901996
11
31.787411
21
-124.966179
31
-7.688813
12
33.739960
22
-111.324921
32
-8.914236
13
19.588224
23
-111.828529
33
-8.670506
0
3DFACE
8
0
70
0
10
31.787411
20
-124.966179
30
-7.688813
11
44.470238
21
-123.840179
31
-8.127419
12
45.605282
22
-109.386421
32
-7.512979
13
33.739960
23
-111.324921
33
-8.914236
0
3DFACE
8
0
70
0
10
44.470238
20
-123.840179
30
-8.127419
11
60.858715
21
-125.231110
31
-7.572003
12
59.040485
22
-108.299652
32
-5.331219
13
45.605282
23
-109.386421
33
-7.512979
0
3DFACE
8
0
70
0
10
60.858715
20
-125.231110
30
-7.572003
11
81.719780
21
-129.595108
31
-6.536826
12
76.864700
22
-110.120415
32
-3.271825
13
59.040485
23
-108.299652
33
-5.331219
0
3DFACE
8
0
70
0
10
81.719780
20
-129.595108
30
-6.536826
11
104.368256
21
-135.004074
31
-5.350942
12
98.854721
22
-114.995659
32
-1.862207
13
76.864700
23
-110.120415
33
-3.271825
0
3DFACE
8
0
70
0
10
104.368256
20
-135.004074
30
-5.350942
11
124.850044
21
-138.218414
31
-4.065827
12
122.106697
22
-120.817673
32
-1.133388
13
98.854721
23
-114.995659
33
-1.862207
0
3DFACE
8
0
70
0
10
124.850044
20
-138.218414
30
-4.065827
11
140.159744
21
-135.624847
31
-2.443065
12
142.251450
22
-122.568008
32
-0.797881
13
122.106697
23
-120.817673
33
-1.133388
0
3DFACE
8
0
70
0
10
140.159744
20
-135.624847
30
-2.443065
11
152.759857
21
-129.662781
31
-0.961418
12
158.505432
22
-120.053436
32
-0.431834
13
142.251450
23
-122.568008
33
-0.797881
0
3DFACE
8
0
70
0
10
152.759857
20
-129.662781
30
-0.961418
11
165.562897
21
-123.247780
31
0.198935
12
172.386353
22
-114.473534
32
0.177878
13
158.505432
23
-120.053436
33
-0.431834
0
3DFACE
8
0
70
0
10
165.562897
20
-123.247780
30
0.198935
11
180.303879
21
-118.847763
31
0.756796
12
185.792465
22
-108.034813
32
0.902564
13
172.386353
23
-114.473534
33
0.177878
0
3DFACE
8
0
70
0
10
180.303879
20
-118.847763
30
0.756796
11
197.126999
21
-117.534958
31
0.461307
12
199.939270
22
-102.829170
32
1.350243
13
185.792465
23
-108.034813
33
0.902564
0
3DFACE
8
0
70
0
10
197.126999
20
-117.534958
30
0.461307
11
215.331604
21
-118.999992
31
-0.723469
12
215.279633
22
-100.116989
32
1.067833
13
199.939270
23
-102.829170
33
1.350243
0
3DFACE
8
0
70
0
10
-160.581055
20
-107.138535
30
-1.415466
11
-143.370651
21
-107.253906
31
-2.020575
12
-143.437195
22
-88.193802
32
-2.017159
13
-160.521896
23
-88.319527
33
-1.491328
0
3DFACE
8
0
70
0
10
-143.370651
20
-107.253906
30
-2.020575
11
-124.884811
21
-107.649979
31
-2.397435
12
-124.933456
22
-88.242912
32
-1.975610
13
-143.437195
23
-88.193802
33
-2.017159
0
3DFACE
8
0
70
0
10
-124.884811
20
-107.649979
30
-2.397435
11
-106.290329
21
-107.859314
31
-1.669643
12
-105.759491
22
-88.521805
32
-0.828909
13
-124.933456
23
-88.242912
33
-1.975610
0
3DFACE
8
0
70
0
10
-106.290329
20
-107.859314
30
-1.669643
11
-89.263306
21
-107.264450
31
0.118881
12
-87.904869
22
-88.625900
32
0.846460
13
-105.759491
23
-88.521805
33
-0.828909
0
3DFACE
8
0
70
0
10
-89.263306
20
-107.264450
30
0.118881
11
-74.044876
21
-105.887070
31
1.851703
12
-72.480598
22
-88.142303
32
1.691876
13
-87.904869
23
-88.625900
33
0.846460
0
3DFACE
8
0
70
0
10
-74.044876
20
-105.887070
30
1.851703
11
-58.772522
21
-104.712425
31
2.128650
12
-58.135731
22
-87.318542
32
0.633155
13
-72.480598
23
-88.142303
33
1.691876
0
3DFACE
8
0
70
0
10
-58.772522
20
-104.712425
30
2.128650
11
-40.946594
21
-105.020264
31
0.303827
12
-42.152390
22
-87.125450
32
-2.248657
13
-58.135731
23
-87.318542
33
0.633155
0
3DFACE
8
0
70
0
10
-40.946594
20
-105.020264
30
0.303827
11
-20.136965
21
-107.186089
31
-3.044910
12
-22.935747
22
-88.441238
32
-5.714865
13
-42.152390
23
-87.125450
33
-2.248657
0
3DFACE
8
0
70
0
10
-20.136965
20
-107.186089
30
-3.044910
11
1.175184
21
-110.086700
31
-6.499902
12
-1.579787
22
-91.037537
32
-8.146692
13
-22.935747
23
-88.441238
33
-5.714865
0
3DFACE
8
0
70
0
10
1.175184
20
-110.086700
30
-6.499902
11
19.588224
21
-111.828529
31
-8.670506
12
18.834370
22
-93.406029
32
-8.466434
13
-1.579787
23
-91.037537
33
-8.146692
0
3DFACE
8
0
70
0
10
19.588224
20
-111.828529
30
-8.670506
11
33.739960
21
-111.324921
31
-8.914236
12
35.642742
22
-93.790283
32
-6.605682
13
18.834370
23
-93.406029
33
-8.466434
0
3DFACE
8
0
70
0
10
33.739960
20
-111.324921
30
-8.914236
11
45.605282
21
-109.386421
31
-7.512979
12
48.729622
22
-91.673401
32
-3.361843
13
35.642742
23
-93.790283
33
-6.605682
0
3DFACE
8
0
70
0
10
45.605282
20
-109.386421
30
-7.512979
11
59.040485
21
-108.299652
31
-5.331219
12
60.693382
22
-88.463562
32
0.113636
13
48.729622
23
-91.673401
33
-3.361843
0
3DFACE
8
0
70
0
10
59.040485
20
-108.299652
30
-5.331219
11
76.864700
21
-110.120415
31
-3.271825
12
75.007401
22
-86.718544
32
2.835411
13
60.693382
23
-88.463562
33
0.113636
0
3DFACE
8
0
70
0
10
76.864700
20
-110.120415
30
-3.271825
11
98.854721
21
-114.995659
31
-1.862207
12
93.657219
22
-88.432167
32
4.280006
13
75.007401
23
-86.718544
33
2.835411
0
3DFACE
8
0
70
0
10
98.854721
20
-114.995659
30
-1.862207
11
122.106697
21
-120.817673
31
-1.133388
12
116.010918
22
-93.641373
32
4.420017
13
93.657219
23
-88.432167
33
4.280006
0
3DFACE
8
0
70
0
10
122.106697
20
-120.817673
30
-1.133388
11
142.251450
21
-122.568008
31
-0.797881
12
138.972824
22
-98.994576
32
3.091869
13
116.010918
23
-93.641373
33
4.420017
0
3DFACE
8
0
70
0
10
142.251450
20
-122.568008
30
-0.797881
11
158.505432
21
-120.053436
31
-0.431834
12
159.406174
22
-101.743126
32
1.694240
13
138.972824
23
-98.994576
33
3.091869
0
3DFACE
8
0
70
0
10
158.505432
20
-120.053436
30
-0.431834
11
172.386353
21
-114.473534
31
0.177878
12
176.816299
22
-100.785027
32
0.804332
13
159.406174
23
-101.743126
33
1.694240
0
3DFACE
8
0
70
0
10
172.386353
20
-114.473534
30
0.177878
11
185.792465
21
-108.034813
31
0.902564
12
191.924362
22
-96.651260
32
0.634448
13
176.816299
23
-100.785027
33
0.804332
0
3DFACE
8
0
70
0
10
185.792465
20
-108.034813
30
0.902564
11
199.939270
21
-102.829170
31
1.350243
12
205.751175
22
-90.934235
32
0.993359
13
191.924362
23
-96.651260
33
0.634448
0
3DFACE
8
0
70
0
10
199.939270
20
-102.829170
30
1.350243
11
215.279633
21
-100.116989
31
1.067833
12
219.210724
22
-85.519455
32
1.326889
13
205.751175
23
-90.934235
33
0.993359
0
3DFACE
8
0
70
0
10
-160.521896
20
-88.319527
30
-1.491328
11
-143.437195
21
-88.193802
31
-2.017159
12
-142.418121
22
-69.148933
32
-1.905349
13
-159.674103
23
-69.505516
33
-1.528836
0
3DFACE
8
0
70
0
10
-143.437195
20
-88.193802
30
-2.017159
11
-124.933456
21
-88.242912
31
-1.975610
12
-124.163345
22
-68.831902
32
-1.513676
13
-142.418121
23
-69.148933
33
-1.905349
0
3DFACE
8
0
70
0
10
-124.933456
20
-88.242912
30
-1.975610
11
-105.759491
21
-88.521805
31
-0.828909
12
-105.464531
22
-69.176323
32
-0.218920
13
-124.163345
23
-68.831902
33
-1.513676
0
3DFACE
8
0
70
0
10
-105.759491
20
-88.521805
30
-0.828909
11
-87.904869
21
-88.625900
31
0.846460
12
-87.711075
22
-70.100739
32
1.010718
13
-105.464531
23
-69.176323
33
-0.218920
0
3DFACE
8
0
70
0
10
-87.904869
20
-88.625900
30
0.846460
11
-72.480598
21
-88.142303
31
1.691876
12
-71.818230
22
-70.766624
32
0.862453
13
-87.711075
23
-70.100739
33
1.010718
0
3DFACE
8
0
70
0
10
-72.480598
20
-88.142303
30
1.691876
11
-58.135731
21
-87.318542
31
0.633155
12
-57.186081
22
-70.441277
32
-1.172128
13
-71.818230
23
-70.766624
33
0.862453
0
3DFACE
8
0
70
0
10
-58.135731
20
-87.318542
30
0.633155
11
-42.152390
21
-87.125450
31
-2.248657
12
-41.905788
22
-69.382294
32
-4.282688
13
-57.186081
23
-70.441277
33
-1.172128
0
3DFACE
8
0
70
0
10
-42.152390
20
-87.125450
30
-2.248657
11
-22.935747
21
-88.441238
31
-5.714865
12
-24.183510
22
-68.752449
32
-6.842326
13
-41.905788
23
-69.382294
33
-4.282688
0
3DFACE
8
0
70
0
10
-22.935747
20
-88.441238
30
-5.714865
11
-1.579787
21
-91.037537
31
-8.146692
12
-3.864551
22
-69.529312
32
-7.439397
13
-24.183510
23
-68.752449
33
-6.842326
0
3DFACE
8
0
70
0
10
-1.579787
20
-91.037537
30
-8.146692
11
18.834370
21
-93.406029
31
-8.466434
12
17.207560
22
-71.413284
32
-5.636413
13
-3.864551
23
-69.529312
33
-7.439397
0
3DFACE
8
0
70
0
10
18.834370
20
-93.406029
30
-8.466434
11
35.642742
21
-93.790283
31
-6.605682
12
36.362331
22
-72.820572
32
-2.025680
13
17.207560
23
-71.413284
33
-5.636413
0
3DFACE
8
0
70
0
10
35.642742
20
-93.790283
30
-6.605682
11
48.729622
21
-91.673401
31
-3.361843
12
51.975166
22
-72.090843
32
2.258616
13
36.362331
23
-72.820572
33
-2.025680
0
3DFACE
8
0
70
0
10
48.729622
20
-91.673401
30
-3.361843
11
60.693382
21
-88.463562
31
0.113636
12
64.661072
22
-68.940056
32
6.124820
13
51.975166
23
-72.090843
33
2.258616
0
3DFACE
8
0
70
0
10
60.693382
20
-88.463562
30
0.113636
11
75.007401
21
-86.718544
31
2.835411
12
76.934723
22
-64.951767
32
8.872207
13
64.661072
23
-68.940056
33
6.124820
0
3DFACE
8
0
70
0
10
75.007401
20
-86.718544
30
2.835411
11
93.657219
21
-88.432167
31
4.280006
12
91.610435
22
-62.701385
32
10.234031
13
76.934723
23
-64.951767
33
8.872207
0
3DFACE
8
0
70
0
10
93.657219
20
-88.432167
30
4.280006
11
116.010918
21
-93.641373
31
4.420017
12
110.162498
22
-64.181343
32
10.230579
13
91.610435
23
-62.701385
33
10.234031
0
3DFACE
8
0
70
0
10
116.010918
20
-93.641373
30
4.420017
11
138.972824
21
-98.994576
31
3.091869
12
132.374527
22
-69.575264
32
7.932425
13
110.162498
23
-64.181343
33
10.230579
0
3DFACE
8
0
70
0
10
138.972824
20
-98.994576
30
3.091869
11
159.406174
21
-101.743126
31
1.694240
12
154.870850
22
-75.559082
32
5.266381
13
132.374527
23
-69.575264
33
7.932425
0
3DFACE
8
0
70
0
10
159.406174
20
-101.743126
30
1.694240
11
176.816299
21
-100.785027
31
0.804332
12
175.871033
22
-79.653625
32
2.874145
13
154.870850
23
-75.559082
33
5.266381
0
3DFACE
8
0
70
0
10
176.816299
20
-100.785027
30
0.804332
11
191.924362
21
-96.651260
31
0.634448
12
194.572617
22
-80.459290
32
1.248898
13
175.871033
23
-79.653625
33
2.874145
0
3DFACE
8
0
70
0
10
191.924362
20
-96.651260
30
0.634448
11
205.751175
21
-90.934235
31
0.993359
12
210.812042
22
-77.931213
32
0.620006
13
194.572617
23
-80.459290
33
1.248898
0
3DFACE
8
0
70
0
10
205.751175
20
-90.934235
30
0.993359
11
219.210724
21
-85.519455
31
1.326889
12
224.879196
22
-73.193588
32
0.736844
13
210.812042
23
-77.931213
33
0.620006
0
3DFACE
8
0
70
0
10
-159.674103
20
-69.505516
30
-1.528836
11
-142.418121
21
-69.148933
31
-1.905349
12
-141.251816
22
-50.236977
32
-1.753961
13
-158.561188
23
-50.710033
33
-1.534289
0
3DFACE
8
0
70
0
10
-142.418121
20
-69.148933
30
-1.905349
11
-124.163345
21
-68.831902
31
-1.513676
12
-123.781326
22
-49.609962
32
-1.143474
13
-141.251816
23
-50.236977
33
-1.753961
0
3DFACE
8
0
70
0
10
-124.163345
20
-68.831902
30
-1.513676
11
-105.464531
21
-69.176323
31
-0.218920
12
-106.254433
22
-49.860523
32
0.083135
13
-123.781326
23
-49.609962
33
-1.143474
0
3DFACE
8
0
70
0
10
-105.464531
20
-69.176323
30
-0.218920
11
-87.711075
21
-70.100739
31
1.010718
12
-88.953369
22
-51.302158
32
0.767910
13
-106.254433
23
-49.860523
33
0.083135
0
3DFACE
8
0
70
0
10
-87.711075
20
-70.100739
30
1.010718
11
-71.818230
21
-70.766624
31
0.862453
12
-72.179024
22
-52.940720
32
-0.153941
13
-88.953369
23
-51.302158
33
0.767910
0
3DFACE
8
0
70
0
10
-71.818230
20
-70.766624
30
0.862453
11
-57.186081
21
-70.441277
31
-1.172128
12
-55.973770
22
-53.248917
32
-2.602252
13
-72.179024
23
-52.940720
33
-0.153941
0
3DFACE
8
0
70
0
10
-57.186081
20
-70.441277
30
-1.172128
11
-41.905788
21
-69.382294
31
-4.282688
12
-39.875633
22
-51.617832
32
-5.254262
13
-55.973770
23
-53.248917
33
-2.602252
0
3DFACE
8
0
70
0
10
-41.905788
20
-69.382294
30
-4.282688
11
-24.183510
21
-68.752449
31
-6.842326
12
-23.002403
22
-49.076572
32
-6.440531
13
-39.875633
23
-51.617832
33
-5.254262
0
3DFACE
8
0
70
0
10
-24.183510
20
-68.752449
30
-6.842326
11
-3.864551
21
-69.529312
31
-7.439397
12
-4.621902
22
-47.533623
32
-5.233939
13
-23.002403
23
-49.076572
33
-6.440531
0
3DFACE
8
0
70
0
10
-3.864551
20
-69.529312
30
-7.439397
11
17.207560
21
-71.413284
31
-5.636413
12
15.107456
22
-48.164974
32
-1.904930
13
-4.621902
23
-47.533623
33
-5.233939
0
3DFACE
8
0
70
0
10
17.207560
20
-71.413284
30
-5.636413
11
36.362331
21
-72.820572
31
-2.025680
12
34.889828
22
-50.348030
32
2.441950
13
15.107456
23
-48.164974
33
-1.904930
0
3DFACE
8
0
70
0
10
36.362331
20
-72.820572
30
-2.025680
11
51.975166
21
-72.090843
31
2.258616
12
52.944080
22
-52.053558
32
6.606542
13
34.889828
23
-50.348030
33
2.441950
0
3DFACE
8
0
70
0
10
51.975166
20
-72.090843
30
2.258616
11
64.661072
21
-68.940056
31
6.124820
12
68.209930
22
-51.376671
32
9.836845
13
52.944080
23
-52.053558
33
6.606542
0
3DFACE
8
0
70
0
10
64.661072
20
-68.940056
30
6.124820
11
76.934723
21
-64.951767
31
8.872207
12
81.215195
22
-47.990360
32
11.942597
13
68.209930
23
-51.376671
33
9.836845
0
3DFACE
8
0
70
0
10
76.934723
20
-64.951767
30
8.872207
11
91.610435
21
-62.701385
31
10.234031
12
93.858070
22
-43.477085
32
13.080677
13
81.215195
23
-47.990360
33
11.942597
0
3DFACE
8
0
70
0
10
91.610435
20
-62.701385
30
10.234031
11
110.162498
21
-64.181343
31
10.230579
12
108.336449
22
-40.448597
32
13.412430
13
93.858070
23
-43.477085
33
13.080677
0
3DFACE
8
0
70
0
10
110.162498
20
-64.181343
30
10.230579
11
132.374527
21
-69.575264
31
7.932425
12
126.959000
22
-42.114986
32
11.383941
13
108.336449
23
-40.448597
33
13.412430
0
3DFACE
8
0
70
0
10
132.374527
20
-69.575264
30
7.932425
11
154.870850
21
-75.559082
31
5.266381
12
148.154663
22
-46.992401
32
8.748029
13
126.959000
23
-42.114986
33
11.383941
0
3DFACE
8
0
70
0
10
154.870850
20
-75.559082
30
5.266381
11
175.871033
21
-79.653625
31
2.874145
12
170.369095
22
-53.000389
32
5.818086
13
148.154663
23
-46.992401
33
8.748029
0
3DFACE
8
0
70
0
10
175.871033
20
-79.653625
30
2.874145
11
194.572617
21
-80.459290
31
1.248898
12
192.069702
22
-57.857506
32
3.084004
13
170.369095
23
-53.000389
33
5.818086
0
3DFACE
8
0
70
0
10
194.572617
20
-80.459290
30
1.248898
11
210.812042
21
-77.931213
31
0.620006
12
211.859863
22
-59.916592
32
1.150262
13
192.069702
23
-57.857506
33
3.084004
0
3DFACE
8
0
70
0
10
210.812042
20
-77.931213
30
0.620006
11
224.879196
21
-73.193588
31
0.736844
12
228.723831
22
-58.729439
32
0.315425
13
211.859863
23
-59.916592
33
1.150262
0
3DFACE
8
0
70
0
10
-158.561188
20
-50.710033
30
-1.534289
11
-141.251816
21
-50.236977
31
-1.753961
12
-140.620239
22
-31.513914
32
-1.618462
13
-158.204041
23
-31.932894
33
-1.520167
0
3DFACE
8
0
70
0
10
-141.251816
20
-50.236977
30
-1.753961
11
-123.781326
21
-49.609962
31
-1.143474
12
-123.675262
22
-30.701965
32
-0.925276
13
-140.620239
23
-31.513914
33
-1.618462
0
3DFACE
8
0
70
0
10
-123.781326
20
-49.609962
30
-1.143474
11
-106.254433
21
-49.860523
31
0.083135
12
-107.423401
22
-30.634727
32
0.120279
13
-123.675262
23
-30.701965
33
-0.925276
0
3DFACE
8
0
70
0
10
-106.254433
20
-49.860523
30
0.083135
11
-88.953369
21
-51.302158
31
0.767910
12
-90.965118
22
-32.018795
32
0.355292
13
-107.423401
23
-30.634727
33
0.120279
0
3DFACE
8
0
70
0
10
-88.953369
20
-51.302158
30
0.767910
11
-72.179024
21
-52.940720
31
-0.153941
12
-73.429565
22
-34.129768
32
-0.968000
13
-90.965118
23
-32.018795
33
0.355292
0
3DFACE
8
0
70
0
10
-72.179024
20
-52.940720
30
-0.153941
11
-55.973770
21
-53.248917
31
-2.602252
12
-55.008984
22
-35.185558
32
-3.336761
13
-73.429565
23
-34.129768
33
-0.968000
0
3DFACE
8
0
70
0
10
-55.973770
20
-53.248917
30
-2.602252
11
-39.875633
21
-51.617832
31
-5.254262
12
-36.828163
22
-33.852829
32
-5.230492
13
-55.008984
23
-35.185558
33
-3.336761
0
3DFACE
8
0
70
0
10
-39.875633
20
-51.617832
30
-5.254262
11
-23.002403
21
-49.076572
31
-6.440531
12
-19.750271
22
-30.534288
32
-5.210330
13
-36.828163
23
-33.852829
33
-5.230492
0
3DFACE
8
0
70
0
10
-23.002403
20
-49.076572
30
-6.440531
11
-4.621902
21
-47.533623
31
-5.233939
12
-3.419016
22
-27.254576
32
-2.885636
13
-19.750271
23
-30.534288
33
-5.210330
0
3DFACE
8
0
70
0
10
-4.621902
20
-47.533623
30
-5.233939
11
15.107456
21
-48.164974
31
-1.904930
12
13.411386
22
-26.194996
32
0.957304
13
-3.419016
23
-27.254576
33
-2.885636
0
3DFACE
8
0
70
0
10
15.107456
20
-48.164974
30
-1.904930
11
34.889828
21
-50.348030
31
2.441950
12
31.581524
22
-28.057755
32
4.996436
13
13.411386
23
-26.194996
33
0.957304
0
3DFACE
8
0
70
0
10
34.889828
20
-50.348030
30
2.441950
11
52.944080
21
-52.053558
31
6.606542
12
50.572617
22
-31.511581
32
8.186146
13
31.581524
23
-28.057755
33
4.996436
0
3DFACE
8
0
70
0
10
52.944080
20
-52.053558
30
6.606542
11
68.209930
21
-51.376671
31
9.836845
12
68.799377
22
-34.073059
32
10.191723
13
50.572617
23
-31.511581
33
8.186146
0
3DFACE
8
0
70
0
10
68.209930
20
-51.376671
30
9.836845
11
81.215195
21
-47.990360
31
11.942597
12
84.893173
22
-33.734600
32
11.300783
13
68.799377
23
-34.073059
33
10.191723
0
3DFACE
8
0
70
0
10
81.215195
20
-47.990360
30
11.942597
11
93.858070
21
-43.477085
31
13.080677
12
98.740768
22
-30.176167
32
12.072604
13
84.893173
23
-33.734600
33
11.300783
0
3DFACE
8
0
70
0
10
93.858070
20
-43.477085
30
13.080677
11
108.336449
21
-40.448597
31
13.412430
12
111.589455
22
-24.968187
32
12.886609
13
98.740768
23
-30.176167
33
12.072604
0
3DFACE
8
0
70
0
10
108.336449
20
-40.448597
30
13.412430
11
126.959000
21
-42.114986
31
11.383941
12
126.338707
22
-21.917189
32
12.059329
13
111.589455
23
-24.968187
33
12.886609
0
3DFACE
8
0
70
0
10
126.959000
20
-42.114986
30
11.383941
11
148.154663
21
-46.992401
31
8.748029
12
143.926758
22
-22.372375
32
10.664328
13
126.338707
23
-21.917189
33
12.059329
0
3DFACE
8
0
70
0
10
148.154663
20
-46.992401
30
8.748029
11
170.369095
21
-53.000389
31
5.818086
12
164.271927
22
-26.026926
32
8.434060
13
143.926758
23
-22.372375
33
10.664328
0
3DFACE
8
0
70
0
10
170.369095
20
-53.000389
30
5.818086
11
192.069702
21
-57.857506
31
3.084004
12
186.411041
22
-31.287167
32
5.522243
13
164.271927
23
-26.026926
33
8.434060
0
3DFACE
8
0
70
0
10
192.069702
20
-57.857506
30
3.084004
11
211.859863
21
-59.916592
31
1.150262
12
208.570740
22
-36.039074
32
2.645791
13
186.411041
23
-31.287167
33
5.522243
0
3DFACE
8
0
70
0
10
211.859863
20
-59.916592
30
1.150262
11
228.723831
21
-58.729439
31
0.315425
12
228.604889
22
-38.596622
32
0.628755
13
208.570740
23
-36.039074
33
2.645791
0
3DFACE
8
0
70
0
10
-158.204041
20
-31.932894
30
-1.520167
11
-140.620239
21
-31.513914
31
-1.618462
12
-139.996353
22
-12.949430
32
-1.526065
13
-158.015854
23
-13.154057
33
-1.497427
0
3DFACE
8
0
70
0
10
-140.620239
20
-31.513914
30
-1.618462
11
-123.675262
21
-30.701965
31
-0.925276
12
-123.279930
22
-12.147017
32
-0.856452
13
-139.996353
23
-12.949430
33
-1.526065
0
3DFACE
8
0
70
0
10
-123.675262
20
-30.701965
30
-0.925276
11
-107.423401
21
-30.634727
31
0.120279
12
-108.212433
22
-11.638175
32
-0.014906
13
-123.279930
23
-12.147017
33
-0.856452
0
3DFACE
8
0
70
0
10
-107.423401
20
-30.634727
30
0.120279
11
-90.965118
21
-32.018795
31
0.355292
12
-92.968674
22
-12.387716
32
-0.043584
13
-108.212433
23
-11.638175
33
-0.014906
0
3DFACE
8
0
70
0
10
-90.965118
20
-32.018795
30
0.355292
11
-73.429565
21
-34.129768
31
-0.968000
12
-75.304779
22
-14.294187
32
-1.411954
13
-92.968674
23
-12.387716
33
-0.043584
0
3DFACE
8
0
70
0
10
-73.429565
20
-34.129768
30
-0.968000
11
-55.008984
21
-35.185558
31
-3.336761
12
-54.968643
22
-15.983103
32
-3.407748
13
-75.304779
23
-14.294187
33
-1.411954
0
3DFACE
8
0
70
0
10
-55.008984
20
-35.185558
30
-3.336761
11
-36.828163
21
-33.852829
31
-5.230492
12
-34.197758
22
-15.822126
32
-4.599677
13
-54.968643
23
-15.983103
33
-3.407748
0
3DFACE
8
0
70
0
10
-36.828163
20
-33.852829
30
-5.230492
11
-19.750271
21
-30.534288
31
-5.210330
12
-15.765402
22
-13.307621
32
-3.909957
13
-34.197758
23
-15.822126
33
-4.599677
0
3DFACE
8
0
70
0
10
-19.750271
20
-30.534288
30
-5.210330
11
-3.419016
21
-27.254576
31
-2.885636
12
-0.516982
22
-9.640874
32
-1.346668
13
-15.765402
23
-13.307621
33
-3.909957
0
3DFACE
8
0
70
0
10
-3.419016
20
-27.254576
30
-2.885636
11
13.411386
21
-26.194996
31
0.957304
12
13.280121
22
-7.011370
32
2.117778
13
-0.516982
23
-9.640874
33
-1.346668
0
3DFACE
8
0
70
0
10
13.411386
20
-26.194996
30
0.957304
11
31.581524
21
-28.057755
31
4.996436
12
28.334545
22
-7.137943
32
5.261172
13
13.280121
23
-7.011370
33
2.117778
0
3DFACE
8
0
70
0
10
31.581524
20
-28.057755
30
4.996436
11
50.572617
21
-31.511581
31
8.186146
12
46.099564
22
-10.122339
32
7.300711
13
28.334545
23
-7.137943
33
5.261172
0
3DFACE
8
0
70
0
10
50.572617
20
-31.511581
30
8.186146
11
68.799377
21
-34.073059
31
10.191723
12
65.819267
22
-14.337029
32
8.178729
13
46.099564
23
-10.122339
33
7.300711
0
3DFACE
8
0
70
0
10
68.799377
20
-34.073059
30
10.191723
11
84.893173
21
-33.734600
31
11.300783
12
85.330391
22
-17.346716
32
8.435356
13
65.819267
23
-14.337029
33
8.178729
0
3DFACE
8
0
70
0
10
84.893173
20
-33.734600
30
11.300783
11
98.740768
21
-30.176167
31
12.072604
12
102.678146
22
-17.284111
32
8.818824
13
85.330391
23
-17.346716
33
8.435356
0
3DFACE
8
0
70
0
10
98.740768
20
-30.176167
30
12.072604
11
111.589455
21
-24.968187
31
12.886609
12
117.264534
22
-13.766988
32
9.946072
13
102.678146
23
-17.284111
33
8.818824
0
3DFACE
8
0
70
0
10
111.589455
20
-24.968187
30
12.886609
11
126.338707
21
-21.917189
31
12.059329
12
130.469238
22
-8.629529
32
10.480702
13
117.264534
23
-13.766988
33
9.946072
0
3DFACE
8
0
70
0
10
126.338707
20
-21.917189
30
12.059329
11
143.926758
21
-22.372375
31
10.664328
12
144.740326
22
-4.896665
32
10.767011
13
130.469238
23
-8.629529
33
10.480702
0
3DFACE
8
0
70
0
10
143.926758
20
-22.372375
30
10.664328
11
164.271927
21
-26.026926
31
8.434060
12
161.651596
22
-4.064499
32
9.965881
13
144.740326
23
-4.896665
33
10.767011
0
3DFACE
8
0
70
0
10
164.271927
20
-26.026926
30
8.434060
11
186.411041
21
-31.287167
31
5.522243
12
181.684845
22
-6.168898
32
7.703729
13
161.651596
23
-4.064499
33
9.965881
0
3DFACE
8
0
70
0
10
186.411041
20
-31.287167
30
5.522243
11
208.570740
21
-36.039074
31
2.645791
12
203.779816
22
-9.974205
32
4.513397
13
181.684845
23
-6.168898
33
7.703729
0
3DFACE
8
0
70
0
10
208.570740
20
-36.039074
30
2.645791
11
228.604889
21
-38.596622
31
0.628755
12
225.495819
22
-13.717214
32
1.530292
13
203.779816
23
-9.974205
33
4.513397
0
3DFACE
8
0
70
0
10
-158.015854
20
-13.154057
30
-1.497427
11
-139.996353
21
-12.949430
31
-1.526065
12
-139.466721
22
5.562202
32
-1.478660
13
-157.938461
23
5.657785
33
-1.472435
0
3DFACE
8
0
70
0
10
-139.996353
20
-12.949430
30
-1.526065
11
-123.279930
21
-12.147017
31
-0.856452
12
-122.580338
22
6.121676
32
-0.900028
13
-139.466721
23
5.562202
33
-1.478660
0
3DFACE
8
0
70
0
10
-123.279930
20
-12.147017
30
-0.856452
11
-108.212433
21
-11.638175
31
-0.014906
12
-108.234337
22
6.973966
32
-0.237979
13
-122.580338
23
6.121676
33
-0.900028
0
3DFACE
8
0
70
0
10
-108.212433
20
-11.638175
30
-0.014906
11
-92.968674
21
-12.387716
31
-0.043584
12
-94.265816
22
7.173725
32
-0.350860
13
-108.234337
23
6.973966
33
-0.237979
0
3DFACE
8
0
70
0
10
-92.968674
20
-12.387716
30
-0.043584
11
-75.304779
21
-14.294187
31
-1.411954
12
-77.296440
22
6.125152
32
-1.515989
13
-94.265816
23
7.173725
33
-0.350860
0
3DFACE
8
0
70
0
10
-75.304779
20
-14.294187
30
-1.411954
11
-54.968643
21
-15.983103
31
-3.407748
12
-56.149895
22
4.295862
32
-3.031614
13
-77.296440
23
6.125152
33
-1.515989
0
3DFACE
8
0
70
0
10
-54.968643
20
-15.983103
30
-3.407748
11
-34.197758
21
-15.822126
31
-4.599677
12
-33.267071
22
3.025545
32
-3.741659
13
-56.149895
23
4.295862
33
-3.031614
0
3DFACE
8
0
70
0
10
-34.197758
20
-15.822126
30
-4.599677
11
-15.765402
21
-13.307621
31
-3.909957
12
-12.742615
22
3.553256
32
-2.936313
13
-33.267071
23
3.025545
33
-3.741659
0
3DFACE
8
0
70
0
10
-15.765402
20
-13.307621
30
-3.909957
11
-0.516982
21
-9.640874
31
-1.346668
12
3.067607
22
6.033027
32
-0.814119
13
-12.742615
23
3.553256
33
-2.936313
0
3DFACE
8
0
70
0
10
-0.516982
20
-9.640874
30
-1.346668
11
13.280121
21
-7.011370
31
2.117778
12
15.287031
22
9.284740
32
1.774650
13
3.067607
23
6.033027
33
-0.814119
0
3DFACE
8
0
70
0
10
13.280121
20
-7.011370
30
2.117778
11
28.334545
21
-7.137943
31
5.261172
12
27.361647
22
11.452346
32
3.932813
13
15.287031
23
9.284740
33
1.774650
0
3DFACE
8
0
70
0
10
28.334545
20
-7.137943
30
5.261172
11
46.099564
21
-10.122339
31
7.300711
12
42.378250
22
11.118877
32
5.164756
13
27.361647
23
11.452346
33
3.932813
0
3DFACE
8
0
70
0
10
46.099564
20
-10.122339
30
7.300711
11
65.819267
21
-14.337029
31
8.178729
12
61.134903
22
8.179543
32
5.496178
13
42.378250
23
11.118877
33
5.164756
0
3DFACE
8
0
70
0
10
65.819267
20
-14.337029
30
8.178729
11
85.330391
21
-17.346716
31
8.435356
12
82.110100
22
3.995784
32
5.415049
13
61.134903
23
8.179543
33
5.496178
0
3DFACE
8
0
70
0
10
85.330391
20
-17.346716
30
8.435356
11
102.678146
21
-17.284111
31
8.818824
12
102.753601
22
0.657221
32
5.628825
13
82.110100
23
3.995784
33
5.415049
0
3DFACE
8
0
70
0
10
102.678146
20
-17.284111
30
8.818824
11
117.264534
21
-13.766988
31
9.946072
12
120.940926
22
0.013555
32
6.890079
13
102.753601
23
0.657221
33
5.628825
0
3DFACE
8
0
70
0
10
117.264534
20
-13.766988
30
9.946072
11
130.469238
21
-8.629529
31
10.480702
12
135.713654
22
3.071708
32
8.368122
13
120.940926
23
0.013555
33
6.890079
0
3DFACE
8
0
70
0
10
130.469238
20
-8.629529
30
10.480702
11
144.740326
21
-4.896665
31
10.767011
12
149.136688
22
7.502342
32
9.984294
13
135.713654
23
3.071708
33
8.368122
0
3DFACE
8
0
70
0
10
144.740326
20
-4.896665
30
10.767011
11
161.651596
21
-4.064499
31
9.965881
12
163.557846
22
11.259567
32
10.537490
13
149.136688
23
7.502342
33
9.984294
0
3DFACE
8
0
70
0
10
161.651596
20
-4.064499
30
9.965881
11
181.684845
21
-6.168898
31
7.703729
12
180.809326
22
13.006292
32
9.155907
13
163.557846
23
11.259567
33
10.537490
0
3DFACE
8
0
70
0
10
181.684845
20
-6.168898
30
7.703729
11
203.779816
21
-9.974205
31
4.513397
12
201.091141
22
12.548594
32
6.035868
13
180.809326
23
13.006292
33
9.155907
0
3DFACE
8
0
70
0
10
203.779816
20
-9.974205
30
4.513397
11
225.495819
21
-13.717214
31
1.530292
12
222.510651
22
10.674004
32
2.404737
13
201.091141
23
12.548594
33
6.035868
0
3DFACE
8
0
70
0
10
-157.938461
20
5.657785
30
-1.472435
11
-139.466721
21
5.562202
31
-1.478660
12
-139.190460
22
24.160812
32
-1.463115
13
-157.995361
23
24.527130
33
-1.447607
0
3DFACE
8
0
70
0
10
-139.466721
20
5.562202
30
-1.478660
11
-122.580338
21
6.121676
31
-0.900028
12
-121.782555
22
24.284273
32
-1.009260
13
-139.190460
23
24.160812
33
-1.463115
0
3DFACE
8
0
70
0
10
-122.580338
20
6.121676
30
-0.900028
11
-108.234337
21
6.973966
31
-0.237979
12
-107.463333
22
25.167843
32
-0.493907
13
-121.782555
23
24.284273
33
-1.009260
0
3DFACE
8
0
70
0
10
-108.234337
20
6.973966
30
-0.237979
11
-94.265816
21
7.173725
31
-0.350860
12
-94.408295
22
26.217476
32
-0.574484
13
-107.463333
23
25.167843
33
-0.493907
0
3DFACE
8
0
70
0
10
-94.265816
20
7.173725
30
-0.350860
11
-77.296440
21
6.125152
31
-1.515989
12
-78.711784
22
26.402660
32
-1.414841
13
-94.408295
23
26.217476
33
-0.574484
0
3DFACE
8
0
70
0
10
-77.296440
20
6.125152
30
-1.515989
11
-56.149895
21
4.295862
31
-3.031614
12
-58.151173
22
25.169474
32
-2.451114
13
-78.711784
23
26.402660
33
-1.414841
0
3DFACE
8
0
70
0
10
-56.149895
20
4.295862
30
-3.031614
11
-33.267071
21
3.025545
31
-3.741659
12
-34.455402
22
23.045593
32
-2.875261
13
-58.151173
23
25.169474
33
-2.451114
0
3DFACE
8
0
70
0
10
-33.267071
20
3.025545
30
-3.741659
11
-12.742615
21
3.553256
31
-2.936313
12
-11.974844
22
21.413740
32
-2.292927
13
-34.455402
23
23.045593
33
-2.875261
0
3DFACE
8
0
70
0
10
-12.742615
20
3.553256
30
-2.936313
11
3.067607
21
6.033027
31
-0.814119
12
5.797549
22
21.598734
32
-0.934814
13
-11.974844
23
21.413740
33
-2.292927
0
3DFACE
8
0
70
0
10
3.067607
20
6.033027
30
-0.814119
11
15.287031
21
9.284740
31
1.774650
12
18.691084
22
23.922886
32
0.644669
13
5.797549
23
21.598734
33
-0.934814
0
3DFACE
8
0
70
0
10
15.287031
20
9.284740
30
1.774650
11
27.361647
21
11.452346
31
3.932813
12
29.541651
22
27.385429
32
1.970367
13
18.691084
23
23.922886
33
0.644669
0
3DFACE
8
0
70
0
10
27.361647
20
11.452346
30
3.932813
11
42.378250
21
11.118877
31
5.164756
12
41.918884
22
30.182747
32
2.817664
13
29.541651
23
27.385429
33
1.970367
0
3DFACE
8
0
70
0
10
42.378250
20
11.118877
30
5.164756
11
61.134903
21
8.179543
31
5.496178
12
57.967037
22
30.744194
32
3.204280
13
41.918884
23
30.182747
33
2.817664
0
3DFACE
8
0
70
0
10
61.134903
20
8.179543
30
5.496178
11
82.110100
21
3.995784
31
5.415049
12
77.602943
22
28.606037
32
3.364351
13
57.967037
23
30.744194
33
3.204280
0
3DFACE
8
0
70
0
10
82.110100
20
3.995784
30
5.415049
11
102.753601
21
0.657221
31
5.628825
12
99.057213
22
24.692120
32
3.818894
13
77.602943
23
28.606037
33
3.364351
0
3DFACE
8
0
70
0
10
102.753601
20
0.657221
30
5.628825
11
120.940926
21
0.013555
31
6.890079
12
119.926582
22
20.829409
32
5.280448
13
99.057213
23
24.692120
33
3.818894
0
3DFACE
8
0
70
0
10
120.940926
20
0.013555
30
6.890079
11
135.713654
21
3.071708
31
8.368122
12
137.794403
22
19.490940
32
7.229119
13
119.926582
23
20.829409
33
5.280448
0
3DFACE
8
0
70
0
10
135.713654
20
3.071708
30
8.368122
11
149.136688
21
7.502342
31
9.984294
12
152.953323
22
20.786703
32
9.498227
13
137.794403
23
19.490940
33
7.229119
0
3DFACE
8
0
70
0
10
149.136688
20
7.502342
30
9.984294
11
163.557846
21
11.259567
31
10.537490
12
167.330933
22
23.648033
32
10.770592
13
152.953323
23
20.786703
33
9.498227
0
3DFACE
8
0
70
0
10
163.557846
20
11.259567
30
10.537490
11
180.809326
21
13.006292
31
9.155907
12
183.244370
22
26.671591
32
9.866360
13
167.330933
23
23.648033
33
10.770592
0
3DFACE
8
0
70
0
10
180.809326
20
13.006292
30
9.155907
11
201.091141
21
12.548594
31
6.035868
12
201.846863
22
28.797773
32
6.711663
13
183.244370
23
26.671591
33
9.866360
0
3DFACE
8
0
70
0
10
201.091141
20
12.548594
30
6.035868
11
222.510651
21
10.674004
31
2.404737
12
222.050018
22
29.704094
32
2.594651
13
201.846863
23
28.797773
33
6.711663
0
3DFACE
8
0
70
0
10
-157.995361
20
24.527130
30
-1.447607
11
-139.190460
21
24.160812
31
-1.463115
12
-139.314026
22
42.957424
32
-1.461631
13
-158.260040
23
43.454094
33
-1.423169
0
3DFACE
8
0
70
0
10
-139.190460
20
24.160812
30
-1.463115
11
-121.782555
21
24.284273
31
-1.009260
12
-121.220764
22
42.590012
32
-1.141538
13
-139.314026
23
42.957424
33
-1.461631
0
3DFACE
8
0
70
0
10
-121.782555
20
24.284273
30
-1.009260
11
-107.463333
21
25.167843
31
-0.493907
12
-106.248680
22
43.127430
32
-0.751917
13
-121.220764
23
42.590012
33
-1.141538
0
3DFACE
8
0
70
0
10
-107.463333
20
25.167843
30
-0.493907
11
-94.408295
21
26.217476
31
-0.574484
12
-93.394592
22
44.553463
32
-0.759688
13
-106.248680
23
43.127430
33
-0.751917
0
3DFACE
8
0
70
0
10
-94.408295
20
26.217476
30
-0.574484
11
-78.711784
21
26.402660
31
-1.414841
12
-78.975105
22
45.867401
32
-1.260140
13
-93.394592
23
44.553463
33
-0.759688
0
3DFACE
8
0
70
0
10
-78.711784
20
26.402660
30
-1.414841
11
-58.151173
21
25.169474
31
-2.451114
12
-60.037849
22
45.810593
32
-1.861385
13
-78.975105
23
45.867401
33
-1.260140
0
3DFACE
8
0
70
0
10
-58.151173
20
25.169474
30
-2.451114
11
-34.455402
21
23.045593
31
-2.875261
12
-37.099655
22
43.917477
32
-2.085652
13
-60.037849
23
45.810593
33
-1.861385
0
3DFACE
8
0
70
0
10
-34.455402
20
23.045593
30
-2.875261
11
-11.974844
21
21.413740
31
-2.292927
12
-13.723707
22
41.032642
32
-1.793553
13
-37.099655
23
43.917477
33
-2.085652
0
3DFACE
8
0
70
0
10
-11.974844
20
21.413740
30
-2.292927
11
5.797549
21
21.598734
31
-0.934814
12
6.326408
22
38.878426
32
-1.194698
13
-13.723707
23
41.032642
33
-1.793553
0
3DFACE
8
0
70
0
10
5.797549
20
21.598734
30
-0.934814
11
18.691084
21
23.922886
31
0.644669
12
21.657001
22
38.982094
32
-0.538232
13
6.326408
23
38.878426
33
-1.194698
0
3DFACE
8
0
70
0
10
18.691084
20
23.922886
30
0.644669
11
29.541651
21
27.385429
31
1.970367
12
33.677258
22
41.702492
32
0.101980
13
21.657001
23
38.982094
33
-0.538232
0
3DFACE
8
0
70
0
10
29.541651
20
27.385429
30
1.970367
11
41.918884
21
30.182747
31
2.817664
12
45.201103
22
45.981449
32
0.764646
13
33.677258
23
41.702492
33
0.101980
0
3DFACE
8
0
70
0
10
41.918884
20
30.182747
30
2.817664
11
57.967037
21
30.744194
31
3.204280
12
58.716888
22
49.913773
32
1.459229
13
45.201103
23
45.981449
33
0.764646
0
3DFACE
8
0
70
0
10
57.967037
20
30.744194
30
3.204280
11
77.602943
21
28.606037
31
3.364351
12
75.370049
22
51.732613
32
2.209000
13
58.716888
23
49.913773
33
1.459229
0
3DFACE
8
0
70
0
10
77.602943
20
28.606037
30
3.364351
11
99.057213
21
24.692120
31
3.818894
12
94.802078
22
50.661366
32
3.274563
13
75.370049
23
51.732613
33
2.209000
0
3DFACE
8
0
70
0
10
99.057213
20
24.692120
30
3.818894
11
119.926582
21
20.829409
31
5.280448
12
115.496803
22
47.190826
32
5.204061
13
94.802078
23
50.661366
33
3.274563
0
3DFACE
8
0
70
0
10
119.926582
20
20.829409
30
5.280448
11
137.794403
21
19.490940
31
7.229119
12
135.326080
22
42.837940
32
7.405412
13
115.496803
23
47.190826
33
5.204061
0
3DFACE
8
0
70
0
10
137.794403
20
19.490940
30
7.229119
11
152.953323
21
20.786703
31
9.498227
12
152.893036
22
39.980629
32
9.747661
13
135.326080
23
42.837940
33
7.405412
0
3DFACE
8
0
70
0
10
152.953323
20
20.786703
30
9.498227
11
167.330933
21
23.648033
31
10.770592
12
169.085449
22
39.175213
32
10.959702
13
152.893036
23
39.980629
33
9.747661
0
3DFACE
8
0
70
0
10
167.330933
20
23.648033
30
10.770592
11
183.244370
21
26.671591
31
9.866360
12
185.773331
22
40.080036
32
9.832664
13
169.085449
23
39.175213
33
10.959702
0
3DFACE
8
0
70
0
10
183.244370
20
26.671591
30
9.866360
11
201.846863
21
28.797773
31
6.711663
12
204.207703
22
41.918770
32
6.326141
13
185.773331
23
40.080036
33
9.832664
0
3DFACE
8
0
70
0
10
201.846863
20
28.797773
30
6.711663
11
222.050018
21
29.704094
31
2.594651
12
223.720001
22
43.849598
32
1.789647
13
204.207703
23
41.918770
33
6.326141
0
3DFACE
8
0
70
0
10
-158.260040
20
43.454094
30
-1.423169
11
-139.314026
21
42.957424
31
-1.461631
12
-140.450912
22
61.973160
32
-1.458838
13
-159.370438
23
62.408154
33
-1.398671
0
3DFACE
8
0
70
0
10
-139.314026
20
42.957424
30
-1.461631
11
-121.220764
21
42.590012
31
-1.141538
12
-121.548904
22
61.249786
32
-1.263791
13
-140.450912
23
61.973160
33
-1.458838
0
3DFACE
8
0
70
0
10
-121.220764
20
42.590012
30
-1.141538
11
-106.248680
21
43.127430
31
-0.751917
12
-105.319740
22
61.210968
32
-0.991940
13
-121.548904
23
61.249786
33
-1.263791
0
3DFACE
8
0
70
0
10
-106.248680
20
43.127430
30
-0.751917
11
-93.394592
21
44.553463
31
-0.759688
12
-91.765335
22
62.406403
32
-0.946359
13
-105.319740
23
61.210968
33
-0.991940
0
3DFACE
8
0
70
0
10
-93.394592
20
44.553463
30
-0.759688
11
-78.975105
21
45.867401
31
-1.260140
12
-77.999397
22
64.273903
32
-1.167776
13
-91.765335
23
62.406403
33
-0.946359
0
3DFACE
8
0
70
0
10
-78.975105
20
45.867401
30
-1.260140
11
-60.037849
21
45.810593
31
-1.861385
12
-60.906918
22
65.424217
32
-1.400654
13
-77.999397
23
64.273903
33
-1.167776
0
3DFACE
8
0
70
0
10
-60.037849
20
45.810593
30
-1.861385
11
-37.099655
21
43.917477
31
-2.085652
12
-39.858826
22
64.670479
32
-1.419345
13
-60.906918
23
65.424217
33
-1.400654
0
3DFACE
8
0
70
0
10
-37.099655
20
43.917477
30
-2.085652
11
-13.723707
21
41.032642
31
-1.793553
12
-17.059813
22
61.970341
32
-1.281474
13
-39.858826
23
64.670479
33
-1.419345
0
3DFACE
8
0
70
0
10
-13.723707
20
41.032642
30
-1.793553
11
6.326408
21
38.878426
31
-1.194698
12
4.350442
22
58.576202
32
-1.205654
13
-17.059813
23
61.970341
33
-1.281474
0
3DFACE
8
0
70
0
10
6.326408
20
38.878426
30
-1.194698
11
21.657001
21
38.982094
31
-0.538232
12
22.442532
22
56.333519
32
-1.252821
13
4.350442
23
58.576202
33
-1.205654
0
3DFACE
8
0
70
0
10
21.657001
20
38.982094
30
-0.538232
11
33.677258
21
41.702492
31
0.101980
12
37.265915
22
56.646114
32
-1.210365
13
22.442532
23
56.333519
33
-1.252821
0
3DFACE
8
0
70
0
10
33.677258
20
41.702492
30
0.101980
11
45.201103
21
45.981449
31
0.764646
12
50.242908
22
59.742809
32
-0.797752
13
37.265915
23
56.646114
33
-1.210365
0
3DFACE
8
0
70
0
10
45.201103
20
45.981449
30
0.764646
11
58.716888
21
49.913773
31
1.459229
12
63.155758
22
64.593300
32
0.092931
13
50.242908
23
59.742809
33
-0.797752
0
3DFACE
8
0
70
0
10
58.716888
20
49.913773
30
1.459229
11
75.370049
21
51.732613
31
2.209000
12
77.420029
22
69.413086
32
1.424346
13
63.155758
23
64.593300
33
0.092931
0
3DFACE
8
0
70
0
10
75.370049
20
51.732613
30
2.209000
11
94.802078
21
50.661366
31
3.274563
12
93.691216
22
72.437180
32
3.260766
13
77.420029
23
69.413086
33
1.424346
0
3DFACE
8
0
70
0
10
94.802078
20
50.661366
30
3.274563
11
115.496803
21
47.190826
31
5.204061
12
111.683777
22
72.601936
32
5.883671
13
93.691216
23
72.437180
33
3.260766
0
3DFACE
8
0
70
0
10
115.496803
20
47.190826
30
5.204061
11
135.326080
21
42.837940
31
7.405412
12
130.762238
22
69.079788
32
8.314799
13
111.683777
23
72.601936
33
5.883671
0
3DFACE
8
0
70
0
10
135.326080
20
42.837940
30
7.405412
11
152.893036
21
39.980629
31
9.747661
12
149.193649
22
64.669014
32
10.382766
13
130.762238
23
69.079788
33
8.314799
0
3DFACE
8
0
70
0
10
152.893036
20
39.980629
30
9.747661
11
169.085449
21
39.175213
31
10.959702
12
167.110947
22
60.934162
32
10.947732
13
149.193649
23
64.669014
33
10.382766
0
3DFACE
8
0
70
0
10
169.085449
20
39.175213
30
10.959702
11
185.773331
21
40.080036
31
9.832664
12
185.551086
22
58.737362
32
9.051522
13
167.110947
23
60.934162
33
10.947732
0
3DFACE
8
0
70
0
10
185.773331
20
40.080036
30
9.832664
11
204.207703
21
41.918770
31
6.326141
12
205.156952
22
58.131104
32
4.886821
13
185.551086
23
58.737362
33
9.051522
0
3DFACE
8
0
70
0
10
204.207703
20
41.918770
30
6.326141
11
223.720001
21
43.849598
31
1.789647
12
225.040192
22
58.554222
32
-0.009794
13
205.156952
23
58.131104
33
4.886821
0
3DFACE
8
0
70
0
10
-159.370438
20
62.408154
30
-1.398671
11
-140.450912
21
61.973160
31
-1.458838
12
-142.034500
22
81.115944
32
-1.444877
13
-160.358490
23
81.339775
33
-1.373978
0
3DFACE
8
0
70
0
10
-140.450912
20
61.973160
30
-1.458838
11
-121.548904
21
61.249786
31
-1.263791
12
-123.013344
22
80.311874
32
-1.352963
13
-142.034500
23
81.115944
33
-1.444877
0
3DFACE
8
0
70
0
10
-121.548904
20
61.249786
30
-1.263791
11
-105.319740
21
61.210968
31
-0.991940
12
-105.496635
22
79.757317
32
-1.194169
13
-123.013344
23
80.311874
33
-1.352963
0
3DFACE
8
0
70
0
10
-105.319740
20
61.210968
30
-0.991940
11
-91.765335
21
62.406403
31
-0.946359
12
-90.424072
22
80.313591
32
-1.145429
13
-105.496635
23
79.757317
33
-1.194169
0
3DFACE
8
0
70
0
10
-91.765335
20
62.406403
30
-0.946359
11
-77.999397
21
64.273903
31
-1.167776
12
-76.306931
22
81.985573
32
-1.194662
13
-90.424072
23
80.313591
33
-1.145429
0
3DFACE
8
0
70
0
10
-77.999397
20
64.273903
30
-1.167776
11
-60.906918
21
65.424217
31
-1.400654
12
-60.453434
22
83.765572
32
-1.156112
13
-76.306931
23
81.985573
33
-1.194662
0
3DFACE
8
0
70
0
10
-60.906918
20
65.424217
30
-1.400654
11
-39.858826
21
64.670479
31
-1.419345
12
-41.520180
22
84.311989
32
-0.947823
13
-60.453434
23
83.765572
33
-1.156112
0
3DFACE
8
0
70
0
10
-39.858826
20
64.670479
30
-1.419345
11
-17.059813
21
61.970341
31
-1.281474
12
-20.395830
22
82.879707
32
-0.758034
13
-41.520180
23
84.311989
33
-0.947823
0
3DFACE
8
0
70
0
10
-17.059813
20
61.970341
30
-1.281474
11
4.350442
21
58.576202
31
-1.205654
12
0.874922
22
79.823151
32
-0.862395
13
-20.395830
23
82.879707
33
-0.758034
0
3DFACE
8
0
70
0
10
4.350442
20
58.576202
30
-1.205654
11
22.442532
21
56.333519
31
-1.252821
12
20.616722
22
76.416336
32
-1.287392
13
0.874922
23
79.823151
33
-0.862395
0
3DFACE
8
0
70
0
10
22.442532
20
56.333519
30
-1.252821
11
37.265915
21
56.646114
31
-1.210365
12
38.222828
22
74.210892
32
-1.703419
13
20.616722
23
76.416336
33
-1.287392
0
3DFACE
8
0
70
0
10
37.265915
20
56.646114
30
-1.210365
11
50.242908
21
59.742809
31
-0.797752
12
53.948666
22
74.336304
32
-1.655033
13
38.222828
23
74.210892
33
-1.703419
0
3DFACE
8
0
70
0
10
50.242908
20
59.742809
30
-0.797752
11
63.155758
21
64.593300
31
0.092931
12
68.452713
22
77.041580
32
-0.859411
13
53.948666
23
74.336304
33
-1.655033
0
3DFACE
8
0
70
0
10
63.155758
20
64.593300
30
0.092931
11
77.420029
21
69.413086
31
1.424346
12
82.511017
22
81.598770
32
0.730703
13
68.452713
23
77.041580
33
-0.859411
0
3DFACE
8
0
70
0
10
77.420029
20
69.413086
30
1.424346
11
93.691216
21
72.437180
31
3.260766
12
96.826447
22
86.565529
32
3.090552
13
82.511017
23
81.598770
33
0.730703
0
3DFACE
8
0
70
0
10
93.691216
20
72.437180
30
3.260766
11
111.683777
21
72.601936
31
5.883671
12
111.797752
22
90.317596
32
6.215634
13
96.826447
23
86.565529
33
3.090552
0
3DFACE
8
0
70
0
10
111.683777
20
72.601936
30
5.883671
11
130.762238
21
69.079788
31
8.314799
12
128.166809
22
90.542915
32
8.677981
13
111.797752
23
90.317596
33
6.215634
0
3DFACE
8
0
70
0
10
130.762238
20
69.079788
30
8.314799
11
149.193649
21
64.669014
31
10.382766
12
145.329132
22
88.436058
32
10.160806
13
128.166809
23
90.542915
33
8.677981
0
3DFACE
8
0
70
0
10
149.193649
20
64.669014
30
10.382766
11
167.110947
21
60.934162
31
10.947732
12
163.437622
22
85.297211
32
9.718444
13
145.329132
23
88.436058
33
10.160806
0
3DFACE
8
0
70
0
10
167.110947
20
60.934162
30
10.947732
11
185.551086
21
58.737362
31
9.051522
12
182.949478
22
82.293381
32
6.822182
13
163.437622
23
85.297211
33
9.718444
0
3DFACE
8
0
70
0
10
185.551086
20
58.737362
30
9.051522
11
205.156952
21
58.131104
31
4.886821
12
203.695007
22
80.004967
32
2.104713
13
182.949478
23
82.293381
33
6.822182
0
3DFACE
8
0
70
0
10
205.156952
20
58.131104
30
4.886821
11
225.040192
21
58.554222
31
-0.009794
12
224.229294
22
78.370552
32
-2.686425
13
203.695007
23
80.004967
33
2.104713
0
3DFACE
8
0
70
0
10
-160.358490
20
81.339775
30
-1.373978
11
-142.034500
21
81.115944
31
-1.444877
12
-142.672607
22
100.221100
32
-1.417544
13
-160.518890
23
100.206902
33
-1.350484
0
3DFACE
8
0
70
0
10
-142.034500
20
81.115944
30
-1.444877
11
-123.013344
21
80.311874
31
-1.352963
12
-123.917938
22
99.605347
32
-1.398098
13
-142.672607
23
100.221100
33
-1.417544
0
3DFACE
8
0
70
0
10
-123.013344
20
80.311874
30
-1.352963
11
-105.496635
21
79.757317
31
-1.194169
12
-105.990196
22
98.848091
32
-1.339031
13
-123.917938
23
99.605347
33
-1.398098
0
3DFACE
8
0
70
0
10
-105.496635
20
79.757317
30
-1.194169
11
-90.424072
21
80.313591
31
-1.145429
12
-89.754272
22
98.776848
32
-1.335961
13
-105.990196
23
98.848091
33
-1.339031
0
3DFACE
8
0
70
0
10
-90.424072
20
80.313591
30
-1.145429
11
-76.306931
21
81.985573
31
-1.194662
12
-74.658783
22
99.771080
32
-1.333879
13
-89.754272
23
98.776848
33
-1.335961
0
3DFACE
8
0
70
0
10
-76.306931
20
81.985573
30
-1.194662
11
-60.453434
21
83.765572
31
-1.156112
12
-59.130985
22
101.381088
32
-1.158258
13
-74.658783
23
99.771080
33
-1.333879
0
3DFACE
8
0
70
0
10
-60.453434
20
83.765572
30
-1.156112
11
-41.520180
21
84.311989
31
-0.947823
12
-41.726849
22
102.612389
32
-0.763710
13
-59.130985
23
101.381088
33
-1.158258
0
3DFACE
8
0
70
0
10
-41.520180
20
84.311989
30
-0.947823
11
-20.395830
21
82.879707
31
-0.758034
12
-22.471493
22
102.557541
32
-0.380749
13
-41.726849
23
102.612389
33
-0.763710
0
3DFACE
8
0
70
0
10
-20.395830
20
82.879707
30
-0.758034
11
0.874922
21
79.823151
31
-0.862395
12
-2.432831
22
100.884651
32
-0.346784
13
-22.471493
23
102.557541
33
-0.380749
0
3DFACE
8
0
70
0
10
0.874922
20
79.823151
30
-0.862395
11
20.616722
21
76.416336
31
-1.287392
12
17.339508
22
97.955490
32
-0.771732
13
-2.432831
23
100.884651
33
-0.346784
0
3DFACE
8
0
70
0
10
20.616722
20
76.416336
30
-1.287392
11
38.222828
21
74.210892
31
-1.703419
12
36.316071
22
94.650383
32
-1.379621
13
17.339508
23
97.955490
33
-0.771732
0
3DFACE
8
0
70
0
10
38.222828
20
74.210892
30
-1.703419
11
53.948666
21
74.336304
31
-1.655033
12
54.323746
22
92.058968
32
-1.671245
13
36.316071
23
94.650383
33
-1.379621
0
3DFACE
8
0
70
0
10
53.948666
20
74.336304
30
-1.655033
11
68.452713
21
77.041580
31
-0.859411
12
71.255463
22
91.122314
32
-1.222927
13
54.323746
23
92.058968
33
-1.671245
0
3DFACE
8
0
70
0
10
68.452713
20
77.041580
30
-0.859411
11
82.511017
21
81.598770
31
0.730703
12
87.029205
22
92.286629
32
0.148215
13
71.255463
23
91.122314
33
-1.222927
0
3DFACE
8
0
70
0
10
82.511017
20
81.598770
30
0.730703
11
96.826447
21
86.565529
31
3.090552
12
101.705910
22
95.295151
32
2.404418
13
87.029205
23
92.286629
33
0.148215
0
3DFACE
8
0
70
0
10
96.826447
20
86.565529
30
3.090552
11
111.797752
21
90.317596
31
6.215634
12
115.550255
22
99.268677
32
5.307327
13
101.705910
23
95.295151
33
2.404418
0
3DFACE
8
0
70
0
10
111.797752
20
90.317596
30
6.215634
11
128.166809
21
90.542915
31
8.677981
12
129.614151
22
102.768005
32
7.237437
13
115.550255
23
99.268677
33
5.307327
0
3DFACE
8
0
70
0
10
128.166809
20
90.542915
30
8.677981
11
145.329132
21
88.436058
31
10.160806
12
144.836182
22
104.713997
32
7.755223
13
129.614151
23
102.768005
33
7.237437
0
3DFACE
8
0
70
0
10
145.329132
20
88.436058
30
10.160806
11
163.437622
21
85.297211
31
9.718444
12
161.889069
22
105.291138
32
6.216221
13
144.836182
23
104.713997
33
7.755223
0
3DFACE
8
0
70
0
10
163.437622
20
85.297211
30
9.718444
11
182.949478
21
82.293381
31
6.822182
12
181.083572
22
104.914162
32
2.622904
13
161.889069
23
105.291138
33
6.216221
0
3DFACE
8
0
70
0
10
182.949478
20
82.293381
30
6.822182
11
203.695007
21
80.004967
31
2.104713
12
201.729034
22
103.816391
32
-1.962409
13
181.083572
23
104.914162
33
2.622904
0
3DFACE
8
0
70
0
10
203.695007
20
80.004967
30
2.104713
11
224.229294
21
78.370552
31
-2.686425
12
222.020004
22
102.010117
32
-5.757051
13
201.729034
23
103.816391
33
-1.962409
0
3DFACE
8
0
70
0
10
-160.518890
20
100.206902
30
-1.350484
11
-142.672607
21
100.221100
31
-1.417544
12
-143.060898
22
119.152657
32
-1.379522
13
-160.542160
23
119.004776
33
-1.329507
0
3DFACE
8
0
70
0
10
-142.672607
20
100.221100
30
-1.417544
11
-123.917938
21
99.605347
31
-1.398098
12
-124.608162
22
118.828033
32
-1.398664
13
-143.060898
23
119.152657
33
-1.379522
0
3DFACE
8
0
70
0
10
-123.917938
20
99.605347
30
-1.398098
11
-105.990196
21
98.848091
31
-1.339031
12
-106.459496
22
118.210686
32
-1.412780
13
-124.608162
23
118.828033
33
-1.398664
0
3DFACE
8
0
70
0
10
-105.990196
20
98.848091
30
-1.339031
11
-89.754272
21
98.776848
31
-1.335961
12
-89.514626
22
117.878281
32
-1.478416
13
-106.459496
23
118.210686
33
-1.412780
0
3DFACE
8
0
70
0
10
-89.754272
20
98.776848
30
-1.335961
11
-74.658783
21
99.771080
31
-1.333879
12
-73.548645
22
118.254532
32
-1.523174
13
-89.514626
23
117.878281
33
-1.478416
0
3DFACE
8
0
70
0
10
-74.658783
20
99.771080
30
-1.333879
11
-59.130985
21
101.381088
31
-1.158258
12
-57.776791
22
119.251335
32
-1.360651
13
-73.548645
23
118.254532
33
-1.523174
0
3DFACE
8
0
70
0
10
-59.130985
20
101.381088
30
-1.158258
11
-41.726849
21
102.612389
31
-0.763710
12
-41.057915
22
120.353127
32
-0.906787
13
-57.776791
23
119.251335
33
-1.360651
0
3DFACE
8
0
70
0
10
-41.726849
20
102.612389
30
-0.763710
11
-22.471493
21
102.557541
31
-0.380749
12
-23.081200
22
120.950951
32
-0.343269
13
-41.057915
23
120.353127
33
-0.906787
0
3DFACE
8
0
70
0
10
-22.471493
20
102.557541
30
-0.380749
11
-2.432831
21
100.884651
31
-0.346784
12
-4.402767
22
120.596924
32
-0.018966
13
-23.081200
23
120.950951
33
-0.343269
0
3DFACE
8
0
70
0
10
-2.432831
20
100.884651
30
-0.346784
11
17.339508
21
97.955490
31
-0.771732
12
14.386477
22
119.079758
32
-0.158898
13
-4.402767
23
120.596924
33
-0.018966
0
3DFACE
8
0
70
0
10
17.339508
20
97.955490
30
-0.771732
11
36.316071
21
94.650383
31
-1.379621
12
33.092003
22
116.441978
32
-0.654340
13
14.386477
23
119.079758
33
-0.158898
0
3DFACE
8
0
70
0
10
36.316071
20
94.650383
30
-1.379621
11
54.323746
21
92.058968
31
-1.671245
12
51.721840
22
113.031387
32
-1.115217
13
33.092003
23
116.441978
33
-0.654340
0
3DFACE
8
0
70
0
10
54.323746
20
92.058968
30
-1.671245
11
71.255463
21
91.122314
31
-1.222927
12
70.111580
22
109.515884
32
-1.109066
13
51.721840
23
113.031387
33
-1.115217
0
3DFACE
8
0
70
0
10
71.255463
20
91.122314
30
-1.222927
11
87.029205
21
92.286629
31
0.148215
12
87.816063
22
106.742012
32
-0.383546
13
70.111580
23
109.515884
33
-1.109066
0
3DFACE
8
0
70
0
10
87.029205
20
92.286629
30
0.148215
11
101.705910
21
95.295151
31
2.404418
12
104.325104
22
105.455208
32
1.028798
13
87.816063
23
106.742012
33
-0.383546
0
3DFACE
8
0
70
0
10
101.705910
20
95.295151
30
2.404418
11
115.550255
21
99.268677
31
5.307327
12
119.400833
22
106.055809
32
2.765689
13
104.325104
23
105.455208
33
1.028798
0
3DFACE
8
0
70
0
10
115.550255
20
99.268677
30
5.307327
11
129.614151
21
102.768005
31
7.237437
12
133.460815
22
109.659340
32
3.504965
13
119.400833
23
106.055809
33
2.765689
0
3DFACE
8
0
70
0
10
129.614151
20
102.768005
30
7.237437
11
144.836182
21
104.713997
31
7.755223
12
148.128265
22
113.951744
32
2.828914
13
133.460815
23
109.659340
33
3.504965
0
3DFACE
8
0
70
0
10
144.836182
20
104.713997
30
7.755223
11
161.889069
21
105.291138
31
6.216221
12
164.401062
22
118.150505
32
0.500269
13
148.128265
23
113.951744
33
2.828914
0
3DFACE
8
0
70
0
10
161.889069
20
105.291138
30
6.216221
11
181.083572
21
104.914162
31
2.622904
12
182.590622
22
121.572495
32
-2.993456
13
164.401062
23
118.150505
33
0.500269
0
3DFACE
8
0
70
0
10
181.083572
20
104.914162
30
2.622904
11
201.729034
21
103.816391
31
-1.962409
12
201.896744
22
123.558449
32
-6.388699
13
182.590622
23
121.572495
33
-2.993456
0
3DFACE
8
0
70
0
10
201.729034
20
103.816391
30
-1.962409
11
222.020004
21
102.010117
31
-5.757051
12
220.679184
22
123.716751
32
-8.203920
13
201.896744
23
123.558449
33
-6.388699
0
3DFACE
8
0
70
0
10
-160.492035
20
-125.949905
30
-1.307774
11
-160.581055
21
-107.138535
31
-1.415466
12
-143.370651
22
-107.253906
32
-2.020575
13
-143.009766
23
-126.203598
33
-1.862893
0
3DFACE
8
0
70
0
10
-143.009766
20
-126.203598
30
-1.862893
11
-143.370651
21
-107.253906
31
-2.020575
12
-124.884811
22
-107.649979
32
-2.397435
13
-124.629196
23
-126.822052
33
-2.603167
0
3DFACE
8
0
70
0
10
-124.629196
20
-126.822052
30
-2.603167
11
-124.884811
21
-107.649979
31
-2.397435
12
-106.290329
22
-107.859314
32
-1.669643
13
-106.878448
23
-127.055374
33
-2.507035
0
3DFACE
8
0
70
0
10
-106.878448
20
-127.055374
30
-2.507035
11
-106.290329
21
-107.859314
31
-1.669643
12
-89.263306
22
-107.264450
32
0.118881
13
-90.955528
23
-126.238182
33
-1.087525
0
3DFACE
8
0
70
0
10
-90.955528
20
-126.238182
30
-1.087525
11
-89.263306
21
-107.264450
31
0.118881
12
-74.044876
22
-105.887070
32
1.851703
13
-75.906113
23
-124.651955
33
1.042913
0
3DFACE
8
0
70
0
10
-75.906113
20
-124.651955
30
1.042913
11
-74.044876
21
-105.887070
31
1.851703
12
-58.772522
22
-104.712425
32
2.128650
13
-59.258640
23
-123.486946
33
2.544244
0
3DFACE
8
0
70
0
10
-59.258640
20
-123.486946
30
2.544244
11
-58.772522
21
-104.712425
31
2.128650
12
-40.946594
22
-105.020264
32
0.303827
13
-39.402069
23
-123.782417
33
2.301145
0
3DFACE
8
0
70
0
10
-39.402069
20
-123.782417
30
2.301145
11
-40.946594
21
-105.020264
31
0.303827
12
-20.136965
22
-107.186089
32
-3.044910
13
-17.536909
23
-125.328979
33
0.173522
0
3DFACE
8
0
70
0
10
-17.536909
20
-125.328979
30
0.173522
11
-20.136965
21
-107.186089
31
-3.044910
12
1.175184
22
-110.086700
32
-6.499902
13
2.882478
23
-126.695763
33
-2.977680
0
3DFACE
8
0
70
0
10
2.882478
20
-126.695763
30
-2.977680
11
1.175184
21
-110.086700
31
-6.499902
12
19.588224
22
-111.828529
32
-8.670506
13
19.127815
23
-126.525703
33
-5.901996
0
3DFACE
8
0
70
0
10
19.127815
20
-126.525703
30
-5.901996
11
19.588224
21
-111.828529
31
-8.670506
12
33.739960
22
-111.324921
32
-8.914236
13
31.787411
23
-124.966179
33
-7.688813
0
3DFACE
8
0
70
0
10
31.787411
20
-124.966179
30
-7.688813
11
33.739960
21
-111.324921
31
-8.914236
12
45.605282
22
-109.386421
32
-7.512979
13
44.470238
23
-123.840179
33
-8.127419
0
3DFACE
8
0
70
0
10
44.470238
20
-123.840179
30
-8.127419
11
45.605282
21
-109.386421
31
-7.512979
12
59.040485
22
-108.299652
32
-5.331219
13
60.858715
23
-125.231110
33
-7.572003
0
3DFACE
8
0
70
0
10
60.858715
20
-125.231110
30
-7.572003
11
59.040485
21
-108.299652
31
-5.331219
12
76.864700
22
-110.120415
32
-3.271825
13
81.719780
23
-129.595108
33
-6.536826
0
3DFACE
8
0
70
0
10
81.719780
20
-129.595108
30
-6.536826
11
76.864700
21
-110.120415
31
-3.271825
12
98.854721
22
-114.995659
32
-1.862207
13
104.368256
23
-135.004074
33
-5.350942
0
3DFACE
8
0
70
0
10
104.368256
20
-135.004074
30
-5.350942
11
98.854721
21
-114.995659
31
-1.862207
12
122.106697
22
-120.817673
32
-1.133388
13
124.850044
23
-138.218414
33
-4.065827
0
3DFACE
8
0
70
0
10
124.850044
20
-138.218414
30
-4.065827
11
122.106697
21
-120.817673
31
-1.133388
12
142.251450
22
-122.568008
32
-0.797881
13
140.159744
23
-135.624847
33
-2.443065
0
3DFACE
8
0
70
0
10
140.159744
20
-135.624847
30
-2.443065
11
142.251450
21
-122.568008
31
-0.797881
12
158.505432
22
-120.053436
32
-0.431834
13
152.759857
23
-129.662781
33
-0.961418
0
3DFACE
8
0
70
0
10
152.759857
20
-129.662781
30
-0.961418
11
158.505432
21
-120.053436
31
-0.431834
12
172.386353
22
-114.473534
32
0.177878
13
165.562897
23
-123.247780
33
0.198935
0
3DFACE
8
0
70
0
10
165.562897
20
-123.247780
30
0.198935
11
172.386353
21
-114.473534
31
0.177878
12
185.792465
22
-108.034813
32
0.902564
13
180.303879
23
-118.847763
33
0.756796
0
3DFACE
8
0
70
0
10
180.303879
20
-118.847763
30
0.756796
11
185.792465
21
-108.034813
31
0.902564
12
199.939270
22
-102.829170
32
1.350243
13
197.126999
23
-117.534958
33
0.461307
0
3DFACE
8
0
70
0
10
197.126999
20
-117.534958
30
0.461307
11
199.939270
21
-102.829170
31
1.350243
12
215.279633
22
-100.116989
32
1.067833
13
215.331604
23
-118.999992
33
-0.723469
0
3DFACE
8
0
70
0
10
-160.581055
20
-107.138535
30
-1.415466
11
-160.521896
21
-88.319527
31
-1.491328
12
-143.437195
22
-88.193802
32
-2.017159
13
-143.370651
23
-107.253906
33
-2.020575
0
3DFACE
8
0
70
0
10
-143.370651
20
-107.253906
30
-2.020575
11
-143.437195
21
-88.193802
31
-2.017159
12
-124.933456
22
-88.242912
32
-1.975610
13
-124.884811
23
-107.649979
33
-2.397435
0
3DFACE
8
0
70
0
10
-124.884811
20
-107.649979
30
-2.397435
11
-124.933456
21
-88.242912
31
-1.975610
12
-105.759491
22
-88.521805
32
-0.828909
13
-106.290329
23
-107.859314
33
-1.669643
0
3DFACE
8
0
70
0
10
-106.290329
20
-107.859314
30
-1.669643
11
-105.759491
21
-88.521805
31
-0.828909
12
-87.904869
22
-88.625900
32
0.846460
13
-89.263306
23
-107.264450
33
0.118881
0
3DFACE
8
0
70
0
10
-89.263306
20
-107.264450
30
0.118881
11
-87.904869
21
-88.625900
31
0.846460
12
-72.480598
22
-88.142303
32
1.691876
13
-74.044876
23
-105.887070
33
1.851703
0
3DFACE
8
0
70
0
10
-74.044876
20
-105.887070
30
1.851703
11
-72.480598
21
-88.142303
31
1.691876
12
-58.135731
22
-87.318542
32
0.633155
13
-58.772522
23
-104.712425
33
2.128650
0
3DFACE
8
0
70
0
10
-58.772522
20
-104.712425
30
2.128650
11
-58.135731
21
-87.318542
31
0.633155
12
-42.152390
22
-87.125450
32
-2.248657
13
-40.946594
23
-105.020264
33
0.303827
0
3DFACE
8
0
70
0
10
-40.946594
20
-105.020264
30
0.303827
11
-42.152390
21
-87.125450
31
-2.248657
12
-22.935747
22
-88.441238
32
-5.714865
13
-20.136965
23
-107.186089
33
-3.044910
0
3DFACE
8
0
70
0
10
-20.136965
20
-107.186089
30
-3.044910
11
-22.935747
21
-88.441238
31
-5.714865
12
-1.579787
22
-91.037537
32
-8.146692
13
1.175184
23
-110.086700
33
-6.499902
0
3DFACE
8
0
70
0
10
1.175184
20
-110.086700
30
-6.499902
11
-1.579787
21
-91.037537
31
-8.146692
12
18.834370
22
-93.406029
32
-8.466434
13
19.588224
23
-111.828529
33
-8.670506
0
3DFACE
8
0
70
0
10
19.588224
20
-111.828529
30
-8.670506
11
18.834370
21
-93.406029
31
-8.466434
12
35.642742
22
-93.790283
32
-6.605682
13
33.739960
23
-111.324921
33
-8.914236
0
3DFACE
8
0
70
0
10
33.739960
20
-111.324921
30
-8.914236
11
35.642742
21
-93.790283
31
-6.605682
12
48.729622
22
-91.673401
32
-3.361843
13
45.605282
23
-109.386421
33
-7.512979
0
3DFACE
8
0
70
0
10
45.605282
20
-109.386421
30
-7.512979
11
48.729622
21
-91.673401
31
-3.361843
12
60.693382
22
-88.463562
32
0.113636
13
59.040485
23
-108.299652
33
-5.331219
0
3DFACE
8
0
70
0
10
59.040485
20
-108.299652
30
-5.331219
11
60.693382
21
-88.463562
31
0.113636
12
75.007401
22
-86.718544
32
2.835411
13
76.864700
23
-110.120415
33
-3.271825
0
3DFACE
8
0
70
0
10
76.864700
20
-110.120415
30
-3.271825
11
75.007401
21
-86.718544
31
2.835411
12
93.657219
22
-88.432167
32
4.280006
13
98.854721
23
-114.995659
33
-1.862207
0
3DFACE
8
0
70
0
10
98.854721
20
-114.995659
30
-1.862207
11
93.657219
21
-88.432167
31
4.280006
12
116.010918
22
-93.641373
32
4.420017
13
122.106697
23
-120.817673
33
-1.133388
0
3DFACE
8
0
70
0
10
122.106697
20
-120.817673
30
-1.133388
11
116.010918
21
-93.641373
31
4.420017
12
138.972824
22
-98.994576
32
3.091869
13
142.251450
23
-122.568008
33
-0.797881
0
3DFACE
8
0
70
0
10
142.251450
20
-122.568008
30
-0.797881
11
138.972824
21
-98.994576
31
3.091869
12
159.406174
22
-101.743126
32
1.694240
13
158.505432
23
-120.053436
33
-0.431834
0
3DFACE
8
0
70
0
10
158.505432
20
-120.053436
30
-0.431834
11
159.406174
21
-101.743126
31
1.694240
12
176.816299
22
-100.785027
32
0.804332
13
172.386353
23
-114.473534
33
0.177878
0
3DFACE
8
0
70
0
10
172.386353
20
-114.473534
30
0.177878
11
176.816299
21
-100.785027
31
0.804332
12
191.924362
22
-96.651260
32
0.634448
13
185.792465
23
-108.034813
33
0.902564
0
3DFACE
8
0
70
0
10
185.792465
20
-108.034813
30
0.902564
11
191.924362
21
-96.651260
31
0.634448
12
205.751175
22
-90.934235
32
0.993359
13
199.939270
23
-102.829170
33
1.350243
0
3DFACE
8
0
70
0
10
199.939270
20
-102.829170
30
1.350243
11
205.751175
21
-90.934235
31
0.993359
12
219.210724
22
-85.519455
32
1.326889
13
215.279633
23
-100.116989
33
1.067833
0
3DFACE
8
0
70
0
10
-160.521896
20
-88.319527
30
-1.491328
11
-159.674103
21
-69.505516
31
-1.528836
12
-142.418121
22
-69.148933
32
-1.905349
13
-143.437195
23
-88.193802
33
-2.017159
0
3DFACE
8
0
70
0
10
-143.437195
20
-88.193802
30
-2.017159
11
-142.418121
21
-69.148933
31
-1.905349
12
-124.163345
22
-68.831902
32
-1.513676
13
-124.933456
23
-88.242912
33
-1.975610
0
3DFACE
8
0
70
0
10
-124.933456
20
-88.242912
30
-1.975610
11
-124.163345
21
-68.831902
31
-1.513676
12
-105.464531
22
-69.176323
32
-0.218920
13
-105.759491
23
-88.521805
33
-0.828909
0
3DFACE
8
0
70
0
10
-105.759491
20
-88.521805
30
-0.828909
11
-105.464531
21
-69.176323
31
-0.218920
12
-87.711075
22
-70.100739
32
1.010718
13
-87.904869
23
-88.625900
33
0.846460
0
3DFACE
8
0
70
0
10
-87.904869
20
-88.625900
30
0.846460
11
-87.711075
21
-70.100739
31
1.010718
12
-71.818230
22
-70.766624
32
0.862453
13
-72.480598
23
-88.142303
33
1.691876
0
3DFACE
8
0
70
0
10
-72.480598
20
-88.142303
30
1.691876
11
-71.818230
21
-70.766624
31
0.862453
12
-57.186081
22
-70.441277
32
-1.172128
13
-58.135731
23
-87.318542
33
0.633155
0
3DFACE
8
0
70
0
10
-58.135731
20
-87.318542
30
0.633155
11
-57.186081
21
-70.441277
31
-1.172128
12
-41.905788
22
-69.382294
32
-4.282688
13
-42.152390
23
-87.125450
33
-2.248657
0
3DFACE
8
0
70
0
10
-42.152390
20
-87.125450
30
-2.248657
11
-41.905788
21
-69.382294
31
-4.282688
12
-24.183510
22
-68.752449
32
-6.842326
13
-22.935747
23
-88.441238
33
-5.714865
0
3DFACE
8
0
70
0
10
-22.935747
20
-88.441238
30
-5.714865
11
-24.183510
21
-68.752449
31
-6.842326
12
-3.864551
22
-69.529312
32
-7.439397
13
-1.579787
23
-91.037537
33
-8.146692
0
3DFACE
8
0
70
0
10
-1.579787
20
-91.037537
30
-8.146692
11
-3.864551
21
-69.529312
31
-7.439397
12
17.207560
22
-71.413284
32
-5.636413
13
18.834370
23
-93.406029
33
-8.466434
0
3DFACE
8
0
70
0
10
18.834370
20
-93.406029
30
-8.466434
11
17.207560
21
-71.413284
31
-5.636413
12
36.362331
22
-72.820572
32
-2.025680
13
35.642742
23
-93.790283
33
-6.605682
0
3DFACE
8
0
70
0
10
35.642742
20
-93.790283
30
-6.605682
11
36.362331
21
-72.820572
31
-2.025680
12
51.975166
22
-72.090843
32
2.258616
13
48.729622
23
-91.673401
33
-3.361843
0
3DFACE
8
0
70
0
10
48.729622
20
-91.673401
30
-3.361843
11
51.975166
21
-72.090843
31
2.258616
12
64.661072
22
-68.940056
32
6.124820
13
60.693382
23
-88.463562
33
0.113636
0
3DFACE
8
0
70
0
10
60.693382
20
-88.463562
30
0.113636
11
64.661072
21
-68.940056
31
6.124820
12
76.934723
22
-64.951767
32
8.872207
13
75.007401
23
-86.718544
33
2.835411
0
3DFACE
8
0
70
0
10
75.007401
20
-86.718544
30
2.835411
11
76.934723
21
-64.951767
31
8.872207
12
91.610435
22
-62.701385
32
10.234031
13
93.657219
23
-88.432167
33
4.280006
0
3DFACE
8
0
70
0
10
93.657219
20
-88.432167
30
4.280006
11
91.610435
21
-62.701385
31
10.234031
12
110.162498
22
-64.181343
32
10.230579
13
116.010918
23
-93.641373
33
4.420017
0
3DFACE
8
0
70
0
10
116.010918
20
-93.641373
30
4.420017
11
110.162498
21
-64.181343
31
10.230579
12
132.374527
22
-69.575264
32
7.932425
13
138.972824
23
-98.994576
33
3.091869
0
3DFACE
8
0
70
0
10
138.972824
20
-98.994576
30
3.091869
11
132.374527
21
-69.575264
31
7.932425
12
154.870850
22
-75.559082
32
5.266381
13
159.406174
23
-101.743126
33
1.694240
0
3DFACE
8
0
70
0
10
159.406174
20
-101.743126
30
1.694240
11
154.870850
21
-75.559082
31
5.266381
12
175.871033
22
-79.653625
32
2.874145
13
176.816299
23
-100.785027
33
0.804332
0
3DFACE
8
0
70
0
10
176.816299
20
-100.785027
30
0.804332
11
175.871033
21
-79.653625
31
2.874145
12
194.572617
22
-80.459290
32
1.248898
13
191.924362
23
-96.651260
33
0.634448
0
3DFACE
8
0
70
0
10
191.924362
20
-96.651260
30
0.634448
11
194.572617
21
-80.459290
31
1.248898
12
210.812042
22
-77.931213
32
0.620006
13
205.751175
23
-90.934235
33
0.993359
0
3DFACE
8
0
70
0
10
205.751175
20
-90.934235
30
0.993359
11
210.812042
21
-77.931213
31
0.620006
12
224.879196
22
-73.193588
32
0.736844
13
219.210724
23
-85.519455
33
1.326889
0
3DFACE
8
0
70
0
10
-159.674103
20
-69.505516
30
-1.528836
11
-158.561188
21
-50.710033
31
-1.534289
12
-141.251816
22
-50.236977
32
-1.753961
13
-142.418121
23
-69.148933
33
-1.905349
0
3DFACE
8
0
70
0
10
-142.418121
20
-69.148933
30
-1.905349
11
-141.251816
21
-50.236977
31
-1.753961
12
-123.781326
22
-49.609962
32
-1.143474
13
-124.163345
23
-68.831902
33
-1.513676
0
3DFACE
8
0
70
0
10
-124.163345
20
-68.831902
30
-1.513676
11
-123.781326
21
-49.609962
31
-1.143474
12
-106.254433
22
-49.860523
32
0.083135
13
-105.464531
23
-69.176323
33
-0.218920
0
3DFACE
8
0
70
0
10
-105.464531
20
-69.176323
30
-0.218920
11
-106.254433
21
-49.860523
31
0.083135
12
-88.953369
22
-51.302158
32
0.767910
13
-87.711075
23
-70.100739
33
1.010718
0
3DFACE
8
0
70
0
10
-87.711075
20
-70.100739
30
1.010718
11
-88.953369
21
-51.302158
31
0.767910
12
-72.179024
22
-52.940720
32
-0.153941
13
-71.818230
23
-70.766624
33
0.862453
0
3DFACE
8
0
70
0
10
-71.818230
20
-70.766624
30
0.862453
11
-72.179024
21
-52.940720
31
-0.153941
12
-55.973770
22
-53.248917
32
-2.602252
13
-57.186081
23
-70.441277
33
-1.172128
0
3DFACE
8
0
70
0
10
-57.186081
20
-70.441277
30
-1.172128
11
-55.973770
21
-53.248917
31
-2.602252
12
-39.875633
22
-51.617832
32
-5.254262
13
-41.905788
23
-69.382294
33
-4.282688
0
3DFACE
8
0
70
0
10
-41.905788
20
-69.382294
30
-4.282688
11
-39.875633
21
-51.617832
31
-5.254262
12
-23.002403
22
-49.076572
32
-6.440531
13
-24.183510
23
-68.752449
33
-6.842326
0
3DFACE
8
0
70
0
10
-24.183510
20
-68.752449
30
-6.842326
11
-23.002403
21
-49.076572
31
-6.440531
12
-4.621902
22
-47.533623
32
-5.233939
13
-3.864551
23
-69.529312
33
-7.439397
0
3DFACE
8
0
70
0
10
-3.864551
20
-69.529312
30
-7.439397
11
-4.621902
21
-47.533623
31
-5.233939
12
15.107456
22
-48.164974
32
-1.904930
13
17.207560
23
-71.413284
33
-5.636413
0
3DFACE
8
0
70
0
10
17.207560
20
-71.413284
30
-5.636413
11
15.107456
21
-48.164974
31
-1.904930
12
34.889828
22
-50.348030
32
2.441950
13
36.362331
23
-72.820572
33
-2.025680
0
3DFACE
8
0
70
0
10
36.362331
20
-72.820572
30
-2.025680
11
34.889828
21
-50.348030
31
2.441950
12
52.944080
22
-52.053558
32
6.606542
13
51.975166
23
-72.090843
33
2.258616
0
3DFACE
8
0
70
0
10
51.975166
20
-72.090843
30
2.258616
11
52.944080
21
-52.053558
31
6.606542
12
68.209930
22
-51.376671
32
9.836845
13
64.661072
23
-68.940056
33
6.124820
0
3DFACE
8
0
70
0
10
64.661072
20
-68.940056
30
6.124820
11
68.209930
21
-51.376671
31
9.836845
12
81.215195
22
-47.990360
32
11.942597
13
76.934723
23
-64.951767
33
8.872207
0
3DFACE
8
0
70
0
10
76.934723
20
-64.951767
30
8.872207
11
81.215195
21
-47.990360
31
11.942597
12
93.858070
22
-43.477085
32
13.080677
13
91.610435
23
-62.701385
33
10.234031
0
3DFACE
8
0
70
0
10
91.610435
20
-62.701385
30
10.234031
11
93.858070
21
-43.477085
31
13.080677
12
108.336449
22
-40.448597
32
13.412430
13
110.162498
23
-64.181343
33
10.230579
0
3DFACE
8
0
70
0
10
110.162498
20
-64.181343
30
10.230579
11
108.336449
21
-40.448597
31
13.412430
12
126.959000
22
-42.114986
32
11.383941
13
132.374527
23
-69.575264
33
7.932425
0
3DFACE
8
0
70
0
10
132.374527
20
-69.575264
30
7.932425
11
126.959000
21
-42.114986
31
11.383941
12
148.154663
22
-46.992401
32
8.748029
13
154.870850
23
-75.559082
33
5.266381
0
3DFACE
8
0
70
0
10
154.870850
20
-75.559082
30
5.266381
11
148.154663
21
-46.992401
31
8.748029
12
170.369095
22
-53.000389
32
5.818086
13
175.871033
23
-79.653625
33
2.874145
0
3DFACE
8
0
70
0
10
175.871033
20
-79.653625
30
2.874145
11
170.369095
21
-53.000389
31
5.818086
12
192.069702
22
-57.857506
32
3.084004
13
194.572617
23
-80.459290
33
1.248898
0
3DFACE
8
0
70
0
10
194.572617
20
-80.459290
30
1.248898
11
192.069702
21
-57.857506
31
3.084004
12
211.859863
22
-59.916592
32
1.150262
13
210.812042
23
-77.931213
33
0.620006
0
3DFACE
8
0
70
0
10
210.812042
20
-77.931213
30
0.620006
11
211.859863
21
-59.916592
31
1.150262
12
228.723831
22
-58.729439
32
0.315425
13
224.879196
23
-73.193588
33
0.736844
0
3DFACE
8
0
70
0
10
-158.561188
20
-50.710033
30
-1.534289
11
-158.204041
21
-31.932894
31
-1.520167
12
-140.620239
22
-31.513914
32
-1.618462
13
-141.251816
23
-50.236977
33
-1.753961
0
3DFACE
8
0
70
0
10
-141.251816
20
-50.236977
30
-1.753961
11
-140.620239
21
-31.513914
31
-1.618462
12
-123.675262
22
-30.701965
32
-0.925276
13
-123.781326
23
-49.609962
33
-1.143474
0
3DFACE
8
0
70
0
10
-123.781326
20
-49.609962
30
-1.143474
11
-123.675262
21
-30.701965
31
-0.925276
12
-107.423401
22
-30.634727
32
0.120279
13
-106.254433
23
-49.860523
33
0.083135
0
3DFACE
8
0
70
0
10
-106.254433
20
-49.860523
30
0.083135
11
-107.423401
21
-30.634727
31
0.120279
12
-90.965118
22
-32.018795
32
0.355292
13
-88.953369
23
-51.302158
33
0.767910
0
3DFACE
8
0
70
0
10
-88.953369
20
-51.302158
30
0.767910
11
-90.965118
21
-32.018795
31
0.355292
12
-73.429565
22
-34.129768
32
-0.968000
13
-72.179024
23
-52.940720
33
-0.153941
0
3DFACE
8
0
70
0
10
-72.179024
20
-52.940720
30
-0.153941
11
-73.429565
21
-34.129768
31
-0.968000
12
-55.008984
22
-35.185558
32
-3.336761
13
-55.973770
23
-53.248917
33
-2.602252
0
3DFACE
8
0
70
0
10
-55.973770
20
-53.248917
30
-2.602252
11
-55.008984
21
-35.185558
31
-3.336761
12
-36.828163
22
-33.852829
32
-5.230492
13
-39.875633
23
-51.617832
33
-5.254262
0
3DFACE
8
0
70
0
10
-39.875633
20
-51.617832
30
-5.254262
11
-36.828163
21
-33.852829
31
-5.230492
12
-19.750271
22
-30.534288
32
-5.210330
13
-23.002403
23
-49.076572
33
-6.440531
0
3DFACE
8
0
70
0
10
-23.002403
20
-49.076572
30
-6.440531
11
-19.750271
21
-30.534288
31
-5.210330
12
-3.419016
22
-27.254576
32
-2.885636
13
-4.621902
23
-47.533623
33
-5.233939
0
3DFACE
8
0
70
0
10
-4.621902
20
-47.533623
30
-5.233939
11
-3.419016
21
-27.254576
31
-2.885636
12
13.411386
22
-26.194996
32
0.957304
13
15.107456
23
-48.164974
33
-1.904930
0
3DFACE
8
0
70
0
10
15.107456
20
-48.164974
30
-1.904930
11
13.411386
21
-26.194996
31
0.957304
12
31.581524
22
-28.057755
32
4.996436
13
34.889828
23
-50.348030
33
2.441950
0
3DFACE
8
0
70
0
10
34.889828
20
-50.348030
30
2.441950
11
31.581524
21
-28.057755
31
4.996436
12
50.572617
22
-31.511581
32
8.186146
13
52.944080
23
-52.053558
33
6.606542
0
3DFACE
8
0
70
0
10
52.944080
20
-52.053558
30
6.606542
11
50.572617
21
-31.511581
31
8.186146
12
68.799377
22
-34.073059
32
10.191723
13
68.209930
23
-51.376671
33
9.836845
0
3DFACE
8
0
70
0
10
68.209930
20
-51.376671
30
9.836845
11
68.799377
21
-34.073059
31
10.191723
12
84.893173
22
-33.734600
32
11.300783
13
81.215195
23
-47.990360
33
11.942597
0
3DFACE
8
0
70
0
10
81.215195
20
-47.990360
30
11.942597
11
84.893173
21
-33.734600
31
11.300783
12
98.740768
22
-30.176167
32
12.072604
13
93.858070
23
-43.477085
33
13.080677
0
3DFACE
8
0
70
0
10
93.858070
20
-43.477085
30
13.080677
11
98.740768
21
-30.176167
31
12.072604
12
111.589455
22
-24.968187
32
12.886609
13
108.336449
23
-40.448597
33
13.412430
0
3DFACE
8
0
70
0
10
108.336449
20
-40.448597
30
13.412430
11
111.589455
21
-24.968187
31
12.886609
12
126.338707
22
-21.917189
32
12.059329
13
126.959000
23
-42.114986
33
11.383941
0
3DFACE
8
0
70
0
10
126.959000
20
-42.114986
30
11.383941
11
126.338707
21
-21.917189
31
12.059329
12
143.926758
22
-22.372375
32
10.664328
13
148.154663
23
-46.992401
33
8.748029
0
3DFACE
8
0
70
0
10
148.154663
20
-46.992401
30
8.748029
11
143.926758
21
-22.372375
31
10.664328
12
164.271927
22
-26.026926
32
8.434060
13
170.369095
23
-53.000389
33
5.818086
0
3DFACE
8
0
70
0
10
170.369095
20
-53.000389
30
5.818086
11
164.271927
21
-26.026926
31
8.434060
12
186.411041
22
-31.287167
32
5.522243
13
192.069702
23
-57.857506
33
3.084004
0
3DFACE
8
0
70
0
10
192.069702
20
-57.857506
30
3.084004
11
186.411041
21
-31.287167
31
5.522243
12
208.570740
22
-36.039074
32
2.645791
13
211.859863
23
-59.916592
33
1.150262
0
3DFACE
8
0
70
0
10
211.859863
20
-59.916592
30
1.150262
11
208.570740
21
-36.039074
31
2.645791
12
228.604889
22
-38.596622
32
0.628755
13
228.723831
23
-58.729439
33
0.315425
0
3DFACE
8
0
70
0
10
-158.204041
20
-31.932894
30
-1.520167
11
-158.015854
21
-13.154057
31
-1.497427
12
-139.996353
22
-12.949430
32
-1.526065
13
-140.620239
23
-31.513914
33
-1.618462
0
3DFACE
8
0
70
0
10
-140.620239
20
-31.513914
30
-1.618462
11
-139.996353
21
-12.949430
31
-1.526065
12
-123.279930
22
-12.147017
32
-0.856452
13
-123.675262
23
-30.701965
33
-0.925276
0
3DFACE
8
0
70
0
10
-123.675262
20
-30.701965
30
-0.925276
11
-123.279930
21
-12.147017
31
-0.856452
12
-108.212433
22
-11.638175
32
-0.014906
13
-107.423401
23
-30.634727
33
0.120279
0
3DFACE
8
0
70
0
10
-107.423401
20
-30.634727
30
0.120279
11
-108.212433
21
-11.638175
31
-0.014906
12
-92.968674
22
-12.387716
32
-0.043584
13
-90.965118
23
-32.018795
33
0.355292
0
3DFACE
8
0
70
0
10
-90.965118
20
-32.018795
30
0.355292
11
-92.968674
21
-12.387716
31
-0.043584
12
-75.304779
22
-14.294187
32
-1.411954
13
-73.429565
23
-34.129768
33
-0.968000
0
3DFACE
8
0
70
0
10
-73.429565
20
-34.129768
30
-0.968000
11
-75.304779
21
-14.294187
31
-1.411954
12
-54.968643
22
-15.983103
32
-3.407748
13
-55.008984
23
-35.185558
33
-3.336761
0
3DFACE
8
0
70
0
10
-55.008984
20
-35.185558
30
-3.336761
11
-54.968643
21
-15.983103
31
-3.407748
12
-34.197758
22
-15.822126
32
-4.599677
13
-36.828163
23
-33.852829
33
-5.230492
0
3DFACE
8
0
70
0
10
-36.828163
20
-33.852829
30
-5.230492
11
-34.197758
21
-15.822126
31
-4.599677
12
-15.765402
22
-13.307621
32
-3.909957
13
-19.750271
23
-30.534288
33
-5.210330
0
3DFACE
8
0
70
0
10
-19.750271
20
-30.534288
30
-5.210330
11
-15.765402
21
-13.307621
31
-3.909957
12
-0.516982
22
-9.640874
32
-1.346668
13
-3.419016
23
-27.254576
33
-2.885636
0
3DFACE
8
0
70
0
10
-3.419016
20
-27.254576
30
-2.885636
11
-0.516982
21
-9.640874
31
-1.346668
12
13.280121
22
-7.011370
32
2.117778
13
13.411386
23
-26.194996
33
0.957304
0
3DFACE
8
0
70
0
10
13.411386
20
-26.194996
30
0.957304
11
13.280121
21
-7.011370
31
2.117778
12
28.334545
22
-7.137943
32
5.261172
13
31.581524
23
-28.057755
33
4.996436
0
3DFACE
8
0
70
0
10
31.581524
20
-28.057755
30
4.996436
11
28.334545
21
-7.137943
31
5.261172
12
46.099564
22
-10.122339
32
7.300711
13
50.572617
23
-31.511581
33
8.186146
0
3DFACE
8
0
70
0
10
50.572617
20
-31.511581
30
8.186146
11
46.099564
21
-10.122339
31
7.300711
12
65.819267
22
-14.337029
32
8.178729
13
68.799377
23
-34.073059
33
10.191723
0
3DFACE
8
0
70
0
10
68.799377
20
-34.073059
30
10.191723
11
65.819267
21
-14.337029
31
8.178729
12
85.330391
22
-17.346716
32
8.435356
13
84.893173
23
-33.734600
33
11.300783
0
3DFACE
8
0
70
0
10
84.893173
20
-33.734600
30
11.300783
11
85.330391
21
-17.346716
31
8.435356
12
102.678146
22
-17.284111
32
8.818824
13
98.740768
23
-30.176167
33
12.072604
0
3DFACE
8
0
70
0
10
98.740768
20
-30.176167
30
12.072604
11
102.678146
21
-17.284111
31
8.818824
12
117.264534
22
-13.766988
32
9.946072
13
111.589455
23
-24.968187
33
12.886609
0
3DFACE
8
0
70
0
10
111.589455
20
-24.968187
30
12.886609
11
117.264534
21
-13.766988
31
9.946072
12
130.469238
22
-8.629529
32
10.480702
13
126.338707
23
-21.917189
33
12.059329
0
3DFACE
8
0
70
0
10
126.338707
20
-21.917189
30
12.059329
11
130.469238
21
-8.629529
31
10.480702
12
144.740326
22
-4.896665
32
10.767011
13
143.926758
23
-22.372375
33
10.664328
0
3DFACE
8
0
70
0
10
143.926758
20
-22.372375
30
10.664328
11
144.740326
21
-4.896665
31
10.767011
12
161.651596
22
-4.064499
32
9.965881
13
164.271927
23
-26.026926
33
8.434060
0
3DFACE
8
0
70
0
10
164.271927
20
-26.026926
30
8.434060
11
161.651596
21
-4.064499
31
9.965881
12
181.684845
22
-6.168898
32
7.703729
13
186.411041
23
-31.287167
33
5.522243
0
3DFACE
8
0
70
0
10
186.411041
20
-31.287167
30
5.522243
11
181.684845
21
-6.168898
31
7.703729
12
203.779816
22
-9.974205
32
4.513397
13
208.570740
23
-36.039074
33
2.645791
0
3DFACE
8
0
70
0
10
208.570740
20
-36.039074
30
2.645791
11
203.779816
21
-9.974205
31
4.513397
12
225.495819
22
-13.717214
32
1.530292
13
228.604889
23
-38.596622
33
0.628755
0
3DFACE
8
0
70
0
10
-158.015854
20
-13.154057
30
-1.497427
11
-157.938461
21
5.657785
31
-1.472435
12
-139.466721
22
5.562202
32
-1.478660
13
-139.996353
23
-12.949430
33
-1.526065
0
3DFACE
8
0
70
0
10
-139.996353
20
-12.949430
30
-1.526065
11
-139.466721
21
5.562202
31
-1.478660
12
-122.580338
22
6.121676
32
-0.900028
13
-123.279930
23
-12.147017
33
-0.856452
0
3DFACE
8
0
70
0
10
-123.279930
20
-12.147017
30
-0.856452
11
-122.580338
21
6.121676
31
-0.900028
12
-108.234337
22
6.973966
32
-0.237979
13
-108.212433
23
-11.638175
33
-0.014906
0
3DFACE
8
0
70
0
10
-108.212433
20
-11.638175
30
-0.014906
11
-108.234337
21
6.973966
31
-0.237979
12
-94.265816
22
7.173725
32
-0.350860
13
-92.968674
23
-12.387716
33
-0.043584
0
3DFACE
8
0
70
0
10
-92.968674
20
-12.387716
30
-0.043584
11
-94.265816
21
7.173725
31
-0.350860
12
-77.296440
22
6.125152
32
-1.515989
13
-75.304779
23
-14.294187
33
-1.411954
0
3DFACE
8
0
70
0
10
-75.304779
20
-14.294187
30
-1.411954
11
-77.296440
21
6.125152
31
-1.515989
12
-56.149895
22
4.295862
32
-3.031614
13
-54.968643
23
-15.983103
33
-3.407748
0
3DFACE
8
0
70
0
10
-54.968643
20
-15.983103
30
-3.407748
11
-56.149895
21
4.295862
31
-3.031614
12
-33.267071
22
3.025545
32
-3.741659
13
-34.197758
23
-15.822126
33
-4.599677
0
3DFACE
8
0
70
0
10
-34.197758
20
-15.822126
30
-4.599677
11
-33.267071
21
3.025545
31
-3.741659
12
-12.742615
22
3.553256
32
-2.936313
13
-15.765402
23
-13.307621
33
-3.909957
0
3DFACE
8
0
70
0
10
-15.765402
20
-13.307621
30
-3.909957
11
-12.742615
21
3.553256
31
-2.936313
12
3.067607
22
6.033027
32
-0.814119
13
-0.516982
23
-9.640874
33
-1.346668
0
3DFACE
8
0
70
0
10
-0.516982
20
-9.640874
30
-1.346668
11
3.067607
21
6.033027
31
-0.814119
12
15.287031
22
9.284740
32
1.774650
13
13.280121
23
-7.011370
33
2.117778
0
3DFACE
8
0
70
0
10
13.280121
20
-7.011370
30
2.117778
11
15.287031
21
9.284740
31
1.774650
12
27.361647
22
11.452346
32
3.932813
13
28.334545
23
-7.137943
33
5.261172
0
3DFACE
8
0
70
0
10
28.334545
20
-7.137943
30
5.261172
11
27.361647
21
11.452346
31
3.932813
12
42.378250
22
11.118877
32
5.164756
13
46.099564
23
-10.122339
33
7.300711
0
3DFACE
8
0
70
0
10
46.099564
20
-10.122339
30
7.300711
11
42.378250
21
11.118877
31
5.164756
12
61.134903
22
8.179543
32
5.496178
13
65.819267
23
-14.337029
33
8.178729
0
3DFACE
8
0
70
0
10
65.819267
20
-14.337029
30
8.178729
11
61.134903
21
8.179543
31
5.496178
12
82.110100
22
3.995784
32
5.415049
13
85.330391
23
-17.346716
33
8.435356
0
3DFACE
8
0
70
0
10
85.330391
20
-17.346716
30
8.435356
11
82.110100
21
3.995784
31
5.415049
12
102.753601
22
0.657221
32
5.628825
13
102.678146
23
-17.284111
33
8.818824
0
3DFACE
8
0
70
0
10
102.678146
20
-17.284111
30
8.818824
11
102.753601
21
0.657221
31
5.628825
12
120.940926
22
0.013555
32
6.890079
13
117.264534
23
-13.766988
33
9.946072
0
3DFACE
8
0
70
0
10
117.264534
20
-13.766988
30
9.946072
11
120.940926
21
0.013555
31
6.890079
12
135.713654
22
3.071708
32
8.368122
13
130.469238
23
-8.629529
33
10.480702
0
3DFACE
8
0
70
0
10
130.469238
20
-8.629529
30
10.480702
11
135.713654
21
3.071708
31
8.368122
12
149.136688
22
7.502342
32
9.984294
13
144.740326
23
-4.896665
33
10.767011
0
3DFACE
8
0
70
0
10
144.740326
20
-4.896665
30
10.767011
11
149.136688
21
7.502342
31
9.984294
12
163.557846
22
11.259567
32
10.537490
13
161.651596
23
-4.064499
33
9.965881
0
3DFACE
8
0
70
0
10
161.651596
20
-4.064499
30
9.965881
11
163.557846
21
11.259567
31
10.537490
12
180.809326
22
13.006292
32
9.155907
13
181.684845
23
-6.168898
33
7.703729
0
3DFACE
8
0
70
0
10
181.684845
20
-6.168898
30
7.703729
11
180.809326
21
13.006292
31
9.155907
12
201.091141
22
12.548594
32
6.035868
13
203.779816
23
-9.974205
33
4.513397
0
3DFACE
8
0
70
0
10
203.779816
20
-9.974205
30
4.513397
11
201.091141
21
12.548594
31
6.035868
12
222.510651
22
10.674004
32
2.404737
13
225.495819
23
-13.717214
33
1.530292
0
3DFACE
8
0
70
0
10
-157.938461
20
5.657785
30
-1.472435
11
-157.995361
21
24.527130
31
-1.447607
12
-139.190460
22
24.160812
32
-1.463115
13
-139.466721
23
5.562202
33
-1.478660
0
3DFACE
8
0
70
0
10
-139.466721
20
5.562202
30
-1.478660
11
-139.190460
21
24.160812
31
-1.463115
12
-121.782555
22
24.284273
32
-1.009260
13
-122.580338
23
6.121676
33
-0.900028
0
3DFACE
8
0
70
0
10
-122.580338
20
6.121676
30
-0.900028
11
-121.782555
21
24.284273
31
-1.009260
12
-107.463333
22
25.167843
32
-0.493907
13
-108.234337
23
6.973966
33
-0.237979
0
3DFACE
8
0
70
0
10
-108.234337
20
6.973966
30
-0.237979
11
-107.463333
21
25.167843
31
-0.493907
12
-94.408295
22
26.217476
32
-0.574484
13
-94.265816
23
7.173725
33
-0.350860
0
3DFACE
8
0
70
0
10
-94.265816
20
7.173725
30
-0.350860
11
-94.408295
21
26.217476
31
-0.574484
12
-78.711784
22
26.402660
32
-1.414841
13
-77.296440
23
6.125152
33
-1.515989
0
3DFACE
8
0
70
0
10
-77.296440
20
6.125152
30
-1.515989
11
-78.711784
21
26.402660
31
-1.414841
12
-58.151173
22
25.169474
32
-2.451114
13
-56.149895
23
4.295862
33
-3.031614
0
3DFACE
8
0
70
0
10
-56.149895
20
4.295862
30
-3.031614
11
-58.151173
21
25.169474
31
-2.451114
12
-34.455402
22
23.045593
32
-2.875261
13
-33.267071
23
3.025545
33
-3.741659
0
3DFACE
8
0
70
0
10
-33.267071
20
3.025545
30
-3.741659
11
-34.455402
21
23.045593
31
-2.875261
12
-11.974844
22
21.413740
32
-2.292927
13
-12.742615
23
3.553256
33
-2.936313
0
3DFACE
8
0
70
0
10
-12.742615
20
3.553256
30
-2.936313
11
-11.974844
21
21.413740
31
-2.292927
12
5.797549
22
21.598734
32
-0.934814
13
3.067607
23
6.033027
33
-0.814119
0
3DFACE
8
0
70
0
10
3.067607
20
6.033027
30
-0.814119
11
5.797549
21
21.598734
31
-0.934814
12
18.691084
22
23.922886
32
0.644669
13
15.287031
23
9.284740
33
1.774650
0
3DFACE
8
0
70
0
10
15.287031
20
9.284740
30
1.774650
11
18.691084
21
23.922886
31
0.644669
12
29.541651
22
27.385429
32
1.970367
13
27.361647
23
11.452346
33
3.932813
0
3DFACE
8
0
70
0
10
27.361647
20
11.452346
30
3.932813
11
29.541651
21
27.385429
31
1.970367
12
41.918884
22
30.182747
32
2.817664
13
42.378250
23
11.118877
33
5.164756
0
3DFACE
8
0
70
0
10
42.378250
20
11.118877
30
5.164756
11
41.918884
21
30.182747
31
2.817664
12
57.967037
22
30.744194
32
3.204280
13
61.134903
23
8.179543
33
5.496178
0
3DFACE
8
0
70
0
10
61.134903
20
8.179543
30
5.496178
11
57.967037
21
30.744194
31
3.204280
12
77.602943
22
28.606037
32
3.364351
13
82.110100
23
3.995784
33
5.415049
0
3DFACE
8
0
70
0
10
82.110100
20
3.995784
30
5.415049
11
77.602943
21
28.606037
31
3.364351
12
99.057213
22
24.692120
32
3.818894
13
102.753601
23
0.657221
33
5.628825
0
3DFACE
8
0
70
0
10
102.753601
20
0.657221
30
5.628825
11
99.057213
21
24.692120
31
3.818894
12
119.926582
22
20.829409
32
5.280448
13
120.940926
23
0.013555
33
6.890079
0
3DFACE
8
0
70
0
10
120.940926
20
0.013555
30
6.890079
11
119.926582
21
20.829409
31
5.280448
12
137.794403
22
19.490940
32
7.229119
13
135.713654
23
3.071708
33
8.368122
0
3DFACE
8
0
70
0
10
135.713654
20
3.071708
30
8.368122
11
137.794403
21
19.490940
31
7.229119
12
152.953323
22
20.786703
32
9.498227
13
149.136688
23
7.502342
33
9.984294
0
3DFACE
8
0
70
0
10
149.136688
20
7.502342
30
9.984294
11
152.953323
21
20.786703
31
9.498227
12
167.330933
22
23.648033
32
10.770592
13
163.557846
23
11.259567
33
10.537490
0
3DFACE
8
0
70
0
10
163.557846
20
11.259567
30
10.537490
11
167.330933
21
23.648033
31
10.770592
12
183.244370
22
26.671591
32
9.866360
13
180.809326
23
13.006292
33
9.155907
0
3DFACE
8
0
70
0
10
180.809326
20
13.006292
30
9.155907
11
183.244370
21
26.671591
31
9.866360
12
201.846863
22
28.797773
32
6.711663
13
201.091141
23
12.548594
33
6.035868
0
3DFACE
8
0
70
0
10
201.091141
20
12.548594
30
6.035868
11
201.846863
21
28.797773
31
6.711663
12
222.050018
22
29.704094
32
2.594651
13
222.510651
23
10.674004
33
2.404737
0
3DFACE
8
0
70
0
10
-157.995361
20
24.527130
30
-1.447607
11
-158.260040
21
43.454094
31
-1.423169
12
-139.314026
22
42.957424
32
-1.461631
13
-139.190460
23
24.160812
33
-1.463115
0
3DFACE
8
0
70
0
10
-139.190460
20
24.160812
30
-1.463115
11
-139.314026
21
42.957424
31
-1.461631
12
-121.220764
22
42.590012
32
-1.141538
13
-121.782555
23
24.284273
33
-1.009260
0
3DFACE
8
0
70
0
10
-121.782555
20
24.284273
30
-1.009260
11
-121.220764
21
42.590012
31
-1.141538
12
-106.248680
22
43.127430
32
-0.751917
13
-107.463333
23
25.167843
33
-0.493907
0
3DFACE
8
0
70
0
10
-107.463333
20
25.167843
30
-0.493907
11
-106.248680
21
43.127430
31
-0.751917
12
-93.394592
22
44.553463
32
-0.759688
13
-94.408295
23
26.217476
33
-0.574484
0
3DFACE
8
0
70
0
10
-94.408295
20
26.217476
30
-0.574484
11
-93.394592
21
44.553463
31
-0.759688
12
-78.975105
22
45.867401
32
-1.260140
13
-78.711784
23
26.402660
33
-1.414841
0
3DFACE
8
0
70
0
10
-78.711784
20
26.402660
30
-1.414841
11
-78.975105
21
45.867401
31
-1.260140
12
-60.037849
22
45.810593
32
-1.861385
13
-58.151173
23
25.169474
33
-2.451114
0
3DFACE
8
0
70
0
10
-58.151173
20
25.169474
30
-2.451114
11
-60.037849
21
45.810593
31
-1.861385
12
-37.099655
22
43.917477
32
-2.085652
13
-34.455402
23
23.045593
33
-2.875261
0
3DFACE
8
0
70
0
10
-34.455402
20
23.045593
30
-2.875261
11
-37.099655
21
43.917477
31
-2.085652
12
-13.723707
22
41.032642
32
-1.793553
13
-11.974844
23
21.413740
33
-2.292927
0
3DFACE
8
0
70
0
10
-11.974844
20
21.413740
30
-2.292927
11
-13.723707
21
41.032642
31
-1.793553
12
6.326408
22
38.878426
32
-1.194698
13
5.797549
23
21.598734
33
-0.934814
0
3DFACE
8
0
70
0
10
5.797549
20
21.598734
30
-0.934814
11
6.326408
21
38.878426
31
-1.194698
12
21.657001
22
38.982094
32
-0.538232
13
18.691084
23
23.922886
33
0.644669
0
3DFACE
8
0
70
0
10
18.691084
20
23.922886
30
0.644669
11
21.657001
21
38.982094
31
-0.538232
12
33.677258
22
41.702492
32
0.101980
13
29.541651
23
27.385429
33
1.970367
0
3DFACE
8
0
70
0
10
29.541651
20
27.385429
30
1.970367
11
33.677258
21
41.702492
31
0.101980
12
45.201103
22
45.981449
32
0.764646
13
41.918884
23
30.182747
33
2.817664
0
3DFACE
8
0
70
0
10
41.918884
20
30.182747
30
2.817664
11
45.201103
21
45.981449
31
0.764646
12
58.716888
22
49.913773
32
1.459229
13
57.967037
23
30.744194
33
3.204280
0
3DFACE
8
0
70
0
10
57.967037
20
30.744194
30
3.204280
11
58.716888
21
49.913773
31
1.459229
12
75.370049
22
51.732613
32
2.209000
13
77.602943
23
28.606037
33
3.364351
0
3DFACE
8
0
70
0
10
77.602943
20
28.606037
30
3.364351
11
75.370049
21
51.732613
31
2.209000
12
94.802078
22
50.661366
32
3.274563
13
99.057213
23
24.692120
33
3.818894
0
3DFACE
8
0
70
0
10
99.057213
20
24.692120
30
3.818894
11
94.802078
21
50.661366
31
3.274563
12
115.496803
22
47.190826
32
5.204061
13
119.926582
23
20.829409
33
5.280448
0
3DFACE
8
0
70
0
10
119.926582
20
20.829409
30
5.280448
11
115.496803
21
47.190826
31
5.204061
12
135.326080
22
42.837940
32
7.405412
13
137.794403
23
19.490940
33
7.229119
0
3DFACE
8
0
70
0
10
137.794403
20
19.490940
30
7.229119
11
135.326080
21
42.837940
31
7.405412
12
152.893036
22
39.980629
32
9.747661
13
152.953323
23
20.786703
33
9.498227
0
3DFACE
8
0
70
0
10
152.953323
20
20.786703
30
9.498227
11
152.893036
21
39.980629
31
9.747661
12
169.085449
22
39.175213
32
10.959702
13
167.330933
23
23.648033
33
10.770592
0
3DFACE
8
0
70
0
10
167.330933
20
23.648033
30
10.770592
11
169.085449
21
39.175213
31
10.959702
12
185.773331
22
40.080036
32
9.832664
13
183.244370
23
26.671591
33
9.866360
0
3DFACE
8
0
70
0
10
183.244370
20
26.671591
30
9.866360
11
185.773331
21
40.080036
31
9.832664
12
204.207703
22
41.918770
32
6.326141
13
201.846863
23
28.797773
33
6.711663
0
3DFACE
8
0
70
0
10
201.846863
20
28.797773
30
6.711663
11
204.207703
21
41.918770
31
6.326141
12
223.720001
22
43.849598
32
1.789647
13
222.050018
23
29.704094
33
2.594651
0
3DFACE
8
0
70
0
10
-158.260040
20
43.454094
30
-1.423169
11
-159.370438
21
62.408154
31
-1.398671
12
-140.450912
22
61.973160
32
-1.458838
13
-139.314026
23
42.957424
33
-1.461631
0
3DFACE
8
0
70
0
10
-139.314026
20
42.957424
30
-1.461631
11
-140.450912
21
61.973160
31
-1.458838
12
-121.548904
22
61.249786
32
-1.263791
13
-121.220764
23
42.590012
33
-1.141538
0
3DFACE
8
0
70
0
10
-121.220764
20
42.590012
30
-1.141538
11
-121.548904
21
61.249786
31
-1.263791
12
-105.319740
22
61.210968
32
-0.991940
13
-106.248680
23
43.127430
33
-0.751917
0
3DFACE
8
0
70
0
10
-106.248680
20
43.127430
30
-0.751917
11
-105.319740
21
61.210968
31
-0.991940
12
-91.765335
22
62.406403
32
-0.946359
13
-93.394592
23
44.553463
33
-0.759688
0
3DFACE
8
0
70
0
10
-93.394592
20
44.553463
30
-0.759688
11
-91.765335
21
62.406403
31
-0.946359
12
-77.999397
22
64.273903
32
-1.167776
13
-78.975105
23
45.867401
33
-1.260140
0
3DFACE
8
0
70
0
10
-78.975105
20
45.867401
30
-1.260140
11
-77.999397
21
64.273903
31
-1.167776
12
-60.906918
22
65.424217
32
-1.400654
13
-60.037849
23
45.810593
33
-1.861385
0
3DFACE
8
0
70
0
10
-60.037849
20
45.810593
30
-1.861385
11
-60.906918
21
65.424217
31
-1.400654
12
-39.858826
22
64.670479
32
-1.419345
13
-37.099655
23
43.917477
33
-2.085652
0
3DFACE
8
0
70
0
10
-37.099655
20
43.917477
30
-2.085652
11
-39.858826
21
64.670479
31
-1.419345
12
-17.059813
22
61.970341
32
-1.281474
13
-13.723707
23
41.032642
33
-1.793553
0
3DFACE
8
0
70
0
10
-13.723707
20
41.032642
30
-1.793553
11
-17.059813
21
61.970341
31
-1.281474
12
4.350442
22
58.576202
32
-1.205654
13
6.326408
23
38.878426
33
-1.194698
0
3DFACE
8
0
70
0
10
6.326408
20
38.878426
30
-1.194698
11
4.350442
21
58.576202
31
-1.205654
12
22.442532
22
56.333519
32
-1.252821
13
21.657001
23
38.982094
33
-0.538232
0
3DFACE
8
0
70
0
10
21.657001
20
38.982094
30
-0.538232
11
22.442532
21
56.333519
31
-1.252821
12
37.265915
22
56.646114
32
-1.210365
13
33.677258
23
41.702492
33
0.101980
0
3DFACE
8
0
70
0
10
33.677258
20
41.702492
30
0.101980
11
37.265915
21
56.646114
31
-1.210365
12
50.242908
22
59.742809
32
-0.797752
13
45.201103
23
45.981449
33
0.764646
0
3DFACE
8
0
70
0
10
45.201103
20
45.981449
30
0.764646
11
50.242908
21
59.742809
31
-0.797752
12
63.155758
22
64.593300
32
0.092931
13
58.716888
23
49.913773
33
1.459229
0
3DFACE
8
0
70
0
10
58.716888
20
49.913773
30
1.459229
11
63.155758
21
64.593300
31
0.092931
12
77.420029
22
69.413086
32
1.424346
13
75.370049
23
51.732613
33
2.209000
0
3DFACE
8
0
70
0
10
75.370049
20
51.732613
30
2.209000
11
77.420029
21
69.413086
31
1.424346
12
93.691216
22
72.437180
32
3.260766
13
94.802078
23
50.661366
33
3.274563
0
3DFACE
8
0
70
0
10
94.802078
20
50.661366
30
3.274563
11
93.691216
21
72.437180
31
3.260766
12
111.683777
22
72.601936
32
5.883671
13
115.496803
23
47.190826
33
5.204061
0
3DFACE
8
0
70
0
10
115.496803
20
47.190826
30
5.204061
11
111.683777
21
72.601936
31
5.883671
12
130.762238
22
69.079788
32
8.314799
13
135.326080
23
42.837940
33
7.405412
0
3DFACE
8
0
70
0
10
135.326080
20
42.837940
30
7.405412
11
130.762238
21
69.079788
31
8.314799
12
149.193649
22
64.669014
32
10.382766
13
152.893036
23
39.980629
33
9.747661
0
3DFACE
8
0
70
0
10
152.893036
20
39.980629
30
9.747661
11
149.193649
21
64.669014
31
10.382766
12
167.110947
22
60.934162
32
10.947732
13
169.085449
23
39.175213
33
10.959702
0
3DFACE
8
0
70
0
10
169.085449
20
39.175213
30
10.959702
11
167.110947
21
60.934162
31
10.947732
12
185.551086
22
58.737362
32
9.051522
13
185.773331
23
40.080036
33
9.832664
0
3DFACE
8
0
70
0
10
185.773331
20
40.080036
30
9.832664
11
185.551086
21
58.737362
31
9.051522
12
205.156952
22
58.131104
32
4.886821
13
204.207703
23
41.918770
33
6.326141
0
3DFACE
8
0
70
0
10
204.207703
20
41.918770
30
6.326141
11
205.156952
21
58.131104
31
4.886821
12
225.040192
22
58.554222
32
-0.009794
13
223.720001
23
43.849598
33
1.789647
0
3DFACE
8
0
70
0
10
-159.370438
20
62.408154
30
-1.398671
11
-160.358490
21
81.339775
31
-1.373978
12
-142.034500
22
81.115944
32
-1.444877
13
-140.450912
23
61.973160
33
-1.458838
0
3DFACE
8
0
70
0
10
-140.450912
20
61.973160
30
-1.458838
11
-142.034500
21
81.115944
31
-1.444877
12
-123.013344
22
80.311874
32
-1.352963
13
-121.548904
23
61.249786
33
-1.263791
0
3DFACE
8
0
70
0
10
-121.548904
20
61.249786
30
-1.263791
11
-123.013344
21
80.311874
31
-1.352963
12
-105.496635
22
79.757317
32
-1.194169
13
-105.319740
23
61.210968
33
-0.991940
0
3DFACE
8
0
70
0
10
-105.319740
20
61.210968
30
-0.991940
11
-105.496635
21
79.757317
31
-1.194169
12
-90.424072
22
80.313591
32
-1.145429
13
-91.765335
23
62.406403
33
-0.946359
0
3DFACE
8
0
70
0
10
-91.765335
20
62.406403
30
-0.946359
11
-90.424072
21
80.313591
31
-1.145429
12
-76.306931
22
81.985573
32
-1.194662
13
-77.999397
23
64.273903
33
-1.167776
0
3DFACE
8
0
70
0
10
-77.999397
20
64.273903
30
-1.167776
11
-76.306931
21
81.985573
31
-1.194662
12
-60.453434
22
83.765572
32
-1.156112
13
-60.906918
23
65.424217
33
-1.400654
0
3DFACE
8
0
70
0
10
-60.906918
20
65.424217
30
-1.400654
11
-60.453434
21
83.765572
31
-1.156112
12
-41.520180
22
84.311989
32
-0.947823
13
-39.858826
23
64.670479
33
-1.419345
0
3DFACE
8
0
70
0
10
-39.858826
20
64.670479
30
-1.419345
11
-41.520180
21
84.311989
31
-0.947823
12
-20.395830
22
82.879707
32
-0.758034
13
-17.059813
23
61.970341
33
-1.281474
0
3DFACE
8
0
70
0
10
-17.059813
20
61.970341
30
-1.281474
11
-20.395830
21
82.879707
31
-0.758034
12
0.874922
22
79.823151
32
-0.862395
13
4.350442
23
58.576202
33
-1.205654
0
3DFACE
8
0
70
0
10
4.350442
20
58.576202
30
-1.205654
11
0.874922
21
79.823151
31
-0.862395
12
20.616722
22
76.416336
32
-1.287392
13
22.442532
23
56.333519
33
-1.252821
0
3DFACE
8
0
70
0
10
22.442532
20
56.333519
30
-1.252821
11
20.616722
21
76.416336
31
-1.287392
12
38.222828
22
74.210892
32
-1.703419
13
37.265915
23
56.646114
33
-1.210365
0
3DFACE
8
0
70
0
10
37.265915
20
56.646114
30
-1.210365
11
38.222828
21
74.210892
31
-1.703419
12
53.948666
22
74.336304
32
-1.655033
13
50.242908
23
59.742809
33
-0.797752
0
3DFACE
8
0
70
0
10
50.242908
20
59.742809
30
-0.797752
11
53.948666
21
74.336304
31
-1.655033
12
68.452713
22
77.041580
32
-0.859411
13
63.155758
23
64.593300
33
0.092931
0
3DFACE
8
0
70
0
10
63.155758
20
64.593300
30
0.092931
11
68.452713
21
77.041580
31
-0.859411
12
82.511017
22
81.598770
32
0.730703
13
77.420029
23
69.413086
33
1.424346
0
3DFACE
8
0
70
0
10
77.420029
20
69.413086
30
1.424346
11
82.511017
21
81.598770
31
0.730703
12
96.826447
22
86.565529
32
3.090552
13
93.691216
23
72.437180
33
3.260766
0
3DFACE
8
0
70
0
10
93.691216
20
72.437180
30
3.260766
11
96.826447
21
86.565529
31
3.090552
12
111.797752
22
90.317596
32
6.215634
13
111.683777
23
72.601936
33
5.883671
0
3DFACE
8
0
70
0
10
111.683777
20
72.601936
30
5.883671
11
111.797752
21
90.317596
31
6.215634
12
128.166809
22
90.542915
32
8.677981
13
130.762238
23
69.079788
33
8.314799
0
3DFACE
8
0
70
0
10
130.762238
20
69.079788
30
8.314799
11
128.166809
21
90.542915
31
8.677981
12
145.329132
22
88.436058
32
10.160806
13
149.193649
23
64.669014
33
10.382766
0
3DFACE
8
0
70
0
10
149.193649
20
64.669014
30
10.382766
11
145.329132
21
88.436058
31
10.160806
12
163.437622
22
85.297211
32
9.718444
13
167.110947
23
60.934162
33
10.947732
0
3DFACE
8
0
70
0
10
167.110947
20
60.934162
30
10.947732
11
163.437622
21
85.297211
31
9.718444
12
182.949478
22
82.293381
32
6.822182
13
185.551086
23
58.737362
33
9.051522
0
3DFACE
8
0
70
0
10
185.551086
20
58.737362
30
9.051522
11
182.949478
21
82.293381
31
6.822182
12
203.695007
22
80.004967
32
2.104713
13
205.156952
23
58.131104
33
4.886821
0
3DFACE
8
0
70
0
10
205.156952
20
58.131104
30
4.886821
11
203.695007
21
80.004967
31
2.104713
12
224.229294
22
78.370552
32
-2.686425
13
225.040192
23
58.554222
33
-0.009794
0
3DFACE
8
0
70
0
10
-160.358490
20
81.339775
30
-1.373978
11
-160.518890
21
100.206902
31
-1.350484
12
-142.672607
22
100.221100
32
-1.417544
13
-142.034500
23
81.115944
33
-1.444877
0
3DFACE
8
0
70
0
10
-142.034500
20
81.115944
30
-1.444877
11
-142.672607
21
100.221100
31
-1.417544
12
-123.917938
22
99.605347
32
-1.398098
13
-123.013344
23
80.311874
33
-1.352963
0
3DFACE
8
0
70
0
10
-123.013344
20
80.311874
30
-1.352963
11
-123.917938
21
99.605347
31
-1.398098
12
-105.990196
22
98.848091
32
-1.339031
13
-105.496635
23
79.757317
33
-1.194169
0
3DFACE
8
0
70
0
10
-105.496635
20
79.757317
30
-1.194169
11
-105.990196
21
98.848091
31
-1.339031
12
-89.754272
22
98.776848
32
-1.335961
13
-90.424072
23
80.313591
33
-1.145429
0
3DFACE
8
0
70
0
10
-90.424072
20
80.313591
30
-1.145429
11
-89.754272
21
98.776848
31
-1.335961
12
-74.658783
22
99.771080
32
-1.333879
13
-76.306931
23
81.985573
33
-1.194662
0
3DFACE
8
0
70
0
10
-76.306931
20
81.985573
30
-1.194662
11
-74.658783
21
99.771080
31
-1.333879
12
-59.130985
22
101.381088
32
-1.158258
13
-60.453434
23
83.765572
33
-1.156112
0
3DFACE
8
0
70
0
10
-60.453434
20
83.765572
30
-1.156112
11
-59.130985
21
101.381088
31
-1.158258
12
-41.726849
22
102.612389
32
-0.763710
13
-41.520180
23
84.311989
33
-0.947823
0
3DFACE
8
0
70
0
10
-41.520180
20
84.311989
30
-0.947823
11
-41.726849
21
102.612389
31
-0.763710
12
-22.471493
22
102.557541
32
-0.380749
13
-20.395830
23
82.879707
33
-0.758034
0
3DFACE
8
0
70
0
10
-20.395830
20
82.879707
30
-0.758034
11
-22.471493
21
102.557541
31
-0.380749
12
-2.432831
22
100.884651
32
-0.346784
13
0.874922
23
79.823151
33
-0.862395
0
3DFACE
8
0
70
0
10
0.874922
20
79.823151
30
-0.862395
11
-2.432831
21
100.884651
31
-0.346784
12
17.339508
22
97.955490
32
-0.771732
13
20.616722
23
76.416336
33
-1.287392
0
3DFACE
8
0
70
0
10
20.616722
20
76.416336
30
-1.287392
11
17.339508
21
97.955490
31
-0.771732
12
36.316071
22
94.650383
32
-1.379621
13
38.222828
23
74.210892
33
-1.703419
0
3DFACE
8
0
70
0
10
38.222828
20
74.210892
30
-1.703419
11
36.316071
21
94.650383
31
-1.379621
12
54.323746
22
92.058968
32
-1.671245
13
53.948666
23
74.336304
33
-1.655033
0
3DFACE
8
0
70
0
10
53.948666
20
74.336304
30
-1.655033
11
54.323746
21
92.058968
31
-1.671245
12
71.255463
22
91.122314
32
-1.222927
13
68.452713
23
77.041580
33
-0.859411
0
3DFACE
8
0
70
0
10
68.452713
20
77.041580
30
-0.859411
11
71.255463
21
91.122314
31
-1.222927
12
87.029205
22
92.286629
32
0.148215
13
82.511017
23
81.598770
33
0.730703
0
3DFACE
8
0
70
0
10
82.511017
20
81.598770
30
0.730703
11
87.029205
21
92.286629
31
0.148215
12
101.705910
22
95.295151
32
2.404418
13
96.826447
23
86.565529
33
3.090552
0
3DFACE
8
0
70
0
10
96.826447
20
86.565529
30
3.090552
11
101.705910
21
95.295151
31
2.404418
12
115.550255
22
99.268677
32
5.307327
13
111.797752
23
90.317596
33
6.215634
0
3DFACE
8
0
70
0
10
111.797752
20
90.317596
30
6.215634
11
115.550255
21
99.268677
31
5.307327
12
129.614151
22
102.768005
32
7.237437
13
128.166809
23
90.542915
33
8.677981
0
3DFACE
8
0
70
0
10
128.166809
20
90.542915
30
8.677981
11
129.614151
21
102.768005
31
7.237437
12
144.836182
22
104.713997
32
7.755223
13
145.329132
23
88.436058
33
10.160806
0
3DFACE
8
0
70
0
10
145.329132
20
88.436058
30
10.160806
11
144.836182
21
104.713997
31
7.755223
12
161.889069
22
105.291138
32
6.216221
13
163.437622
23
85.297211
33
9.718444
0
3DFACE
8
0
70
0
10
163.437622
20
85.297211
30
9.718444
11
161.889069
21
105.291138
31
6.216221
12
181.083572
22
104.914162
32
2.622904
13
182.949478
23
82.293381
33
6.822182
0
3DFACE
8
0
70
0
10
182.949478
20
82.293381
30
6.822182
11
181.083572
21
104.914162
31
2.622904
12
201.729034
22
103.816391
32
-1.962409
13
203.695007
23
80.004967
33
2.104713
0
3DFACE
8
0
70
0
10
203.695007
20
80.004967
30
2.104713
11
201.729034
21
103.816391
31
-1.962409
12
222.020004
22
102.010117
32
-5.757051
13
224.229294
23
78.370552
33
-2.686425
0
3DFACE
8
0
70
0
10
-160.518890
20
100.206902
30
-1.350484
11
-160.542160
21
119.004776
31
-1.329507
12
-143.060898
22
119.152657
32
-1.379522
13
-142.672607
23
100.221100
33
-1.417544
0
3DFACE
8
0
70
0
10
-142.672607
20
100.221100
30
-1.417544
11
-143.060898
21
119.152657
31
-1.379522
12
-124.608162
22
118.828033
32
-1.398664
13
-123.917938
23
99.605347
33
-1.398098
0
3DFACE
8
0
70
0
10
-123.917938
20
99.605347
30
-1.398098
11
-124.608162
21
118.828033
31
-1.398664
12
-106.459496
22
118.210686
32
-1.412780
13
-105.990196
23
98.848091
33
-1.339031
0
3DFACE
8
0
70
0
10
-105.990196
20
98.848091
30
-1.339031
11
-106.459496
21
118.210686
31
-1.412780
12
-89.514626
22
117.878281
32
-1.478416
13
-89.754272
23
98.776848
33
-1.335961
0
3DFACE
8
0
70
0
10
-89.754272
20
98.776848
30
-1.335961
11
-89.514626
21
117.878281
31
-1.478416
12
-73.548645
22
118.254532
32
-1.523174
13
-74.658783
23
99.771080
33
-1.333879
0
3DFACE
8
0
70
0
10
-74.658783
20
99.771080
30
-1.333879
11
-73.548645
21
118.254532
31
-1.523174
12
-57.776791
22
119.251335
32
-1.360651
13
-59.130985
23
101.381088
33
-1.158258
0
3DFACE
8
0
70
0
10
-59.130985
20
101.381088
30
-1.158258
11
-57.776791
21
119.251335
31
-1.360651
12
-41.057915
22
120.353127
32
-0.906787
13
-41.726849
23
102.612389
33
-0.763710
0
3DFACE
8
0
70
0
10
-41.726849
20
102.612389
30
-0.763710
11
-41.057915
21
120.353127
31
-0.906787
12
-23.081200
22
120.950951
32
-0.343269
13
-22.471493
23
102.557541
33
-0.380749
0
3DFACE
8
0
70
0
10
-22.471493
20
102.557541
30
-0.380749
11
-23.081200
21
120.950951
31
-0.343269
12
-4.402767
22
120.596924
32
-0.018966
13
-2.432831
23
100.884651
33
-0.346784
0
3DFACE
8
0
70
0
10
-2.432831
20
100.884651
30
-0.346784
11
-4.402767
21
120.596924
31
-0.018966
12
14.386477
22
119.079758
32
-0.158898
13
17.339508
23
97.955490
33
-0.771732
0
3DFACE
8
0
70
0
10
17.339508
20
97.955490
30
-0.771732
11
14.386477
21
119.079758
31
-0.158898
12
33.092003
22
116.441978
32
-0.654340
13
36.316071
23
94.650383
33
-1.379621
0
3DFACE
8
0
70
0
10
36.316071
20
94.650383
30
-1.379621
11
33.092003
21
116.441978
31
-0.654340
12
51.721840
22
113.031387
32
-1.115217
13
54.323746
23
92.058968
33
-1.671245
0
3DFACE
8
0
70
0
10
54.323746
20
92.058968
30
-1.671245
11
51.721840
21
113.031387
31
-1.115217
12
70.111580
22
109.515884
32
-1.109066
13
71.255463
23
91.122314
33
-1.222927
0
3DFACE
8
0
70
0
10
71.255463
20
91.122314
30
-1.222927
11
70.111580
21
109.515884
31
-1.109066
12
87.816063
22
106.742012
32
-0.383546
13
87.029205
23
92.286629
33
0.148215
0
3DFACE
8
0
70
0
10
87.029205
20
92.286629
30
0.148215
11
87.816063
21
106.742012
31
-0.383546
12
104.325104
22
105.455208
32
1.028798
13
101.705910
23
95.295151
33
2.404418
0
3DFACE
8
0
70
0
10
101.705910
20
95.295151
30
2.404418
11
104.325104
21
105.455208
31
1.028798
12
119.400833
22
106.055809
32
2.765689
13
115.550255
23
99.268677
33
5.307327
0
3DFACE
8
0
70
0
10
115.550255
20
99.268677
30
5.307327
11
119.400833
21
106.055809
31
2.765689
12
133.460815
22
109.659340
32
3.504965
13
129.614151
23
102.768005
33
7.237437
0
3DFACE
8
0
70
0
10
129.614151
20
102.768005
30
7.237437
11
133.460815
21
109.659340
31
3.504965
12
148.128265
22
113.951744
32
2.828914
13
144.836182
23
104.713997
33
7.755223
0
3DFACE
8
0
70
0
10
144.836182
20
104.713997
30
7.755223
11
148.128265
21
113.951744
31
2.828914
12
164.401062
22
118.150505
32
0.500269
13
161.889069
23
105.291138
33
6.216221
0
3DFACE
8
0
70
0
10
161.889069
20
105.291138
30
6.216221
11
164.401062
21
118.150505
31
0.500269
12
182.590622
22
121.572495
32
-2.993456
13
181.083572
23
104.914162
33
2.622904
0
3DFACE
8
0
70
0
10
181.083572
20
104.914162
30
2.622904
11
182.590622
21
121.572495
31
-2.993456
12
201.896744
22
123.558449
32
-6.388699
13
201.729034
23
103.816391
33
-1.962409
0
3DFACE
8
0
70
0
10
201.729034
20
103.816391
30
-1.962409
11
201.896744
21
123.558449
31
-6.388699
12
220.679184
22
123.716751
32
-8.203920
13
222.020004
23
102.010117
33
-5.757051
0
ENDSEC
0
EOF
