0
SECTION
2
HEADER
999
DXF File Generated by LightWave 3D(TM)
0
ENDSEC
0
SECTION
2
TABLES
0
ENDSEC
0
SECTION
2
BLOCKS
0
ENDSEC
0
SECTION
2
ENTITIES
0
3DFACE
8
0
70
0
10
-2086.277588
20
2072.958496
30
-1038.427002
11
-2565.947021
21
2550.710693
31
780.826233
12
-3284.535156
22
1357.793945
32
780.826233
13
-2670.272949
23
1103.476929
33
-1038.427002
0
3DFACE
8
0
70
0
10
-2565.947021
20
2550.710693
30
780.826233
11
-3201.770264
21
3183.992676
31
2545.563965
12
-4098.767090
22
1694.902588
32
2545.563965
13
-3284.535156
23
1357.793945
33
780.826233
0
3DFACE
8
0
70
0
10
-3201.770264
20
3183.992676
30
2545.563965
11
-3955.482666
21
3934.692627
31
4251.593262
12
-5063.967285
22
2094.514893
32
4251.593262
13
-4098.767090
23
1694.902588
33
2545.563965
0
3DFACE
8
0
70
0
10
-3955.482666
20
3934.692627
30
4251.593262
11
-4788.819336
21
4764.698242
31
5894.721191
12
-6131.133789
22
2536.343506
32
5894.721191
13
-5063.967285
23
2094.514893
33
4251.593262
0
3DFACE
8
0
70
0
10
-2670.272949
20
1103.476929
30
-1038.427002
11
-3284.535156
21
1357.793945
31
780.826233
12
-3524.064697
22
-81.933105
32
780.826233
13
-2864.938232
23
-66.586914
33
-1038.427002
0
3DFACE
8
0
70
0
10
-3284.535156
20
1357.793945
30
780.826233
11
-4098.767090
21
1694.902588
31
2545.563965
12
-4397.766113
22
-102.275177
32
2545.563965
13
-3524.064697
23
-81.933105
33
780.826233
0
3DFACE
8
0
70
0
10
-4098.767090
20
1694.902588
30
2545.563965
11
-5063.967285
21
2094.514893
31
4251.593262
12
-5433.462402
22
-126.388901
32
4251.593262
13
-4397.766113
23
-102.275177
33
2545.563965
0
3DFACE
8
0
70
0
10
-5063.967285
20
2094.514893
30
4251.593262
11
-6131.133789
21
2536.343506
31
5894.721191
12
-6578.572266
22
-153.050049
32
5894.721191
13
-5433.462402
23
-126.388901
33
4251.593262
0
3DFACE
8
0
70
0
10
-2864.938232
20
-66.586914
30
-1038.427002
11
-3524.064697
21
-81.933105
31
780.826233
12
-3284.535156
22
-1521.660156
32
780.826233
13
-2670.272949
23
-1236.650757
33
-1038.427002
0
3DFACE
8
0
70
0
10
-3524.064697
20
-81.933105
30
780.826233
11
-4397.766113
21
-102.275177
31
2545.563965
12
-4098.767090
22
-1899.452881
32
2545.563965
13
-3284.535156
23
-1521.660156
33
780.826233
0
3DFACE
8
0
70
0
10
-4397.766113
20
-102.275177
30
2545.563965
11
-5433.462402
21
-126.388901
31
4251.593262
12
-5063.967285
22
-2347.292725
32
4251.593262
13
-4098.767090
23
-1899.452881
33
2545.563965
0
3DFACE
8
0
70
0
10
-5433.462402
20
-126.388901
30
4251.593262
11
-6578.572266
21
-153.050049
31
5894.721191
12
-6131.133789
22
-2842.443604
32
5894.721191
13
-5063.967285
23
-2347.292725
33
4251.593262
0
3DFACE
8
0
70
0
10
-2670.272949
20
-1236.650757
30
-1038.427002
11
-3284.535156
21
-1521.660156
31
780.826233
12
-2565.947021
22
-2714.576904
32
780.826233
13
-2086.277588
23
-2206.132324
33
-1038.427002
0
3DFACE
8
0
70
0
10
-3284.535156
20
-1521.660156
30
780.826233
11
-4098.767090
21
-1899.452881
31
2545.563965
12
-3201.770264
22
-3388.543213
32
2545.563965
13
-2565.947021
23
-2714.576904
33
780.826233
0
3DFACE
8
0
70
0
10
-4098.767090
20
-1899.452881
30
2545.563965
11
-5063.967285
21
-2347.292725
31
4251.593262
12
-3955.482666
22
-4187.470215
32
4251.593262
13
-3201.770264
23
-3388.543213
33
2545.563965
0
3DFACE
8
0
70
0
10
-5063.967285
20
-2347.292725
30
4251.593262
11
-6131.133789
21
-2842.443604
31
5894.721191
12
-4788.819336
22
-5070.798340
32
5894.721191
13
-3955.482666
23
-4187.470215
33
4251.593262
0
3DFACE
8
0
70
0
10
-8450.976563
20
-8952.646484
30
11978.000000
11
-7509.587402
21
-7954.784180
31
10499.114258
12
-9615.334961
22
-4459.066406
32
10499.114258
13
-10820.873047
23
-5018.419434
33
11978.000000
0
3DFACE
8
0
70
0
10
-7509.587402
20
-7954.784180
30
10499.114258
11
-6578.538574
21
-6967.881836
31
9003.455078
12
-8423.039063
22
-3905.856689
32
9003.455078
13
-9615.334961
23
-4459.066406
33
10499.114258
0
3DFACE
8
0
70
0
10
-6578.538574
20
-6967.881836
30
9003.455078
11
-5668.168945
21
-6002.899902
31
7474.248535
12
-7257.224609
22
-3364.934570
32
7474.248535
13
-8423.039063
23
-3905.856689
33
9003.455078
0
3DFACE
8
0
70
0
10
-5668.168945
20
-6002.899902
30
7474.248535
11
-4788.819336
21
-5070.798340
31
5894.721191
12
-6131.133789
22
-2842.443604
32
5894.721191
13
-7257.224609
23
-3364.934570
33
7474.248535
0
3DFACE
8
0
70
0
10
-10820.873047
20
-5018.419434
30
11978.000000
11
-9615.334961
21
-4459.066406
31
10499.114258
12
-10317.250977
22
-240.096237
32
10499.114258
13
-11610.838867
23
-270.214264
33
11978.000000
0
3DFACE
8
0
70
0
10
-9615.334961
20
-4459.066406
30
10499.114258
11
-8423.039063
21
-3905.856689
31
9003.455078
12
-9037.872070
22
-210.308975
32
9003.455078
13
-10317.250977
23
-240.096237
33
10499.114258
0
3DFACE
8
0
70
0
10
-8423.039063
20
-3905.856689
30
9003.455078
11
-7257.224609
21
-3364.934570
31
7474.248535
12
-7786.910156
22
-181.183319
32
7474.248535
13
-9037.872070
23
-210.308975
33
9003.455078
0
3DFACE
8
0
70
0
10
-7257.224609
20
-3364.934570
30
7474.248535
11
-6131.133789
21
-2842.443604
31
5894.721191
12
-6578.572266
22
-153.050049
32
5894.721191
13
-7786.910156
23
-181.183319
33
7474.248535
0
3DFACE
8
0
70
0
10
-11610.838867
20
-270.214264
30
11978.000000
11
-10317.250977
21
-240.096237
31
10499.114258
12
-9615.334961
22
3978.873779
32
10499.114258
13
-10820.873047
23
4477.990723
33
11978.000000
0
3DFACE
8
0
70
0
10
-10317.250977
20
-240.096237
30
10499.114258
11
-9037.872070
21
-210.308975
31
9003.455078
12
-8423.039063
22
3485.238770
32
9003.455078
13
-9615.334961
23
3978.873779
33
10499.114258
0
3DFACE
8
0
70
0
10
-9037.872070
20
-210.308975
30
9003.455078
11
-7786.910156
21
-181.183319
31
7474.248535
12
-7257.224609
22
3002.567871
32
7474.248535
13
-8423.039063
23
3485.238770
33
9003.455078
0
3DFACE
8
0
70
0
10
-7786.910156
20
-181.183319
30
7474.248535
11
-6578.572266
21
-153.050049
31
5894.721191
12
-6131.133789
22
2536.343506
32
5894.721191
13
-7257.224609
23
3002.567871
33
7474.248535
0
3DFACE
8
0
70
0
10
-10820.873047
20
4477.990723
30
11978.000000
11
-9615.334961
21
3978.873779
31
10499.114258
12
-7509.587402
22
7474.591797
32
10499.114258
13
-8450.976563
23
8412.217773
33
11978.000000
0
3DFACE
8
0
70
0
10
-9615.334961
20
3978.873779
30
10499.114258
11
-8423.039063
21
3485.238770
31
9003.455078
12
-6578.538574
22
6547.264160
32
9003.455078
13
-7509.587402
23
7474.591797
33
10499.114258
0
3DFACE
8
0
70
0
10
-8423.039063
20
3485.238770
30
9003.455078
11
-7257.224609
21
3002.567871
31
7474.248535
12
-5668.168945
22
5640.533203
32
7474.248535
13
-6578.538574
23
6547.264160
33
9003.455078
0
3DFACE
8
0
70
0
10
-7257.224609
20
3002.567871
30
7474.248535
11
-6131.133789
21
2536.343506
31
5894.721191
12
-4788.819336
22
4764.698242
32
5894.721191
13
-5668.168945
23
5640.533203
33
7474.248535
0
3DFACE
8
0
70
0
10
-2086.277588
20
-2206.132324
30
-1038.427002
11
-2565.947021
21
-2714.576904
31
780.826233
12
-1408.221558
22
-3455.008057
32
780.826233
13
-1145.395996
23
-2807.879639
33
-1038.427002
0
3DFACE
8
0
70
0
10
-2565.947021
20
-2714.576904
30
780.826233
11
-3201.770264
21
-3388.543213
31
2545.563965
12
-1756.608643
22
-4312.806152
32
2545.563965
13
-1408.221558
23
-3455.008057
33
780.826233
0
3DFACE
8
0
70
0
10
-3201.770264
20
-3388.543213
30
2545.563965
11
-3955.482666
21
-4187.470215
31
4251.593262
12
-2169.590820
22
-5329.649414
32
4251.593262
13
-1756.608643
23
-4312.806152
33
2545.563965
0
3DFACE
8
0
70
0
10
-3955.482666
20
-4187.470215
30
4251.593262
11
-4788.819336
21
-5070.798340
31
5894.721191
12
-2626.201416
22
-6453.915039
32
5894.721191
13
-2169.590820
23
-5329.649414
33
4251.593262
0
3DFACE
8
0
70
0
10
-1145.395996
20
-2807.879639
30
-1038.427002
11
-1408.221558
21
-3455.008057
31
780.826233
12
-10.966694
22
-3701.818604
32
780.826233
13
-9.849167
23
-3008.461914
33
-1038.427002
0
3DFACE
8
0
70
0
10
-1408.221558
20
-3455.008057
30
780.826233
11
-1756.608643
21
-4312.806152
31
2545.563965
12
-12.448021
22
-4620.893555
32
2545.563965
13
-10.966694
23
-3701.818604
33
780.826233
0
3DFACE
8
0
70
0
10
-1756.608643
20
-4312.806152
30
2545.563965
11
-2169.590820
21
-5329.649414
31
4251.593262
12
-14.204006
22
-5710.375977
32
4251.593262
13
-12.448021
23
-4620.893555
33
2545.563965
0
3DFACE
8
0
70
0
10
-2169.590820
20
-5329.649414
30
4251.593262
11
-2626.201416
21
-6453.915039
31
5894.721191
12
-16.145508
22
-6914.954102
32
5894.721191
13
-14.204006
23
-5710.375977
33
4251.593262
0
3DFACE
8
0
70
0
10
-9.849167
20
-3008.461914
30
-1038.427002
11
-10.966694
21
-3701.818604
31
780.826233
12
1386.288208
22
-3455.008057
32
780.826233
13
1125.697632
23
-2807.879639
33
-1038.427002
0
3DFACE
8
0
70
0
10
-10.966694
20
-3701.818604
30
780.826233
11
-12.448021
21
-4620.893555
31
2545.563965
12
1731.712646
22
-4312.806152
32
2545.563965
13
1386.288208
23
-3455.008057
33
780.826233
0
3DFACE
8
0
70
0
10
-12.448021
20
-4620.893555
30
2545.563965
11
-14.204006
21
-5710.375977
31
4251.593262
12
2141.182861
22
-5329.649414
32
4251.593262
13
1731.712646
23
-4312.806152
33
2545.563965
0
3DFACE
8
0
70
0
10
-14.204006
20
-5710.375977
30
4251.593262
11
-16.145508
21
-6914.954102
31
5894.721191
12
2593.910400
22
-6453.915039
32
5894.721191
13
2141.182861
23
-5329.649414
33
4251.593262
0
3DFACE
8
0
70
0
10
1125.697632
20
-2807.879639
30
-1038.427002
11
1386.288208
21
-3455.008057
31
780.826233
12
2544.013672
22
-2714.576904
32
780.826233
13
2066.579346
23
-2206.132324
33
-1038.427002
0
3DFACE
8
0
70
0
10
1386.288208
20
-3455.008057
30
780.826233
11
1731.712646
21
-4312.806152
31
2545.563965
12
3176.874268
22
-3388.543213
32
2545.563965
13
2544.013672
23
-2714.576904
33
780.826233
0
3DFACE
8
0
70
0
10
1731.712646
20
-4312.806152
30
2545.563965
11
2141.182861
21
-5329.649414
31
4251.593262
12
3927.074707
22
-4187.470215
32
4251.593262
13
3176.874268
23
-3388.543213
33
2545.563965
0
3DFACE
8
0
70
0
10
2141.182861
20
-5329.649414
30
4251.593262
11
2593.910400
21
-6453.915039
31
5894.721191
12
4756.528320
22
-5070.798340
32
5894.721191
13
3927.074707
23
-4187.470215
33
4251.593262
0
3DFACE
8
0
70
0
10
8401.621094
20
-8952.646484
30
11978.000000
11
7464.618652
21
-7954.784180
31
10499.114258
12
4072.024902
22
-10124.540039
32
10499.114258
13
4583.454102
23
-11394.581055
33
11978.000000
0
3DFACE
8
0
70
0
10
7464.618652
20
-7954.784180
30
10499.114258
11
6537.907715
21
-6967.881836
31
9003.455078
12
3566.212891
22
-8868.449219
32
9003.455078
13
4072.024902
23
-10124.540039
33
10499.114258
0
3DFACE
8
0
70
0
10
6537.907715
20
-6967.881836
30
9003.455078
11
5631.780762
21
-6002.899902
31
7474.248535
12
3071.635742
22
-7640.257813
32
7474.248535
13
3566.212891
23
-8868.449219
33
9003.455078
0
3DFACE
8
0
70
0
10
5631.780762
20
-6002.899902
30
7474.248535
11
4756.528320
21
-5070.798340
31
5894.721191
12
2593.910400
22
-6453.915039
32
5894.721191
13
3071.635742
23
-7640.257813
33
7474.248535
0
3DFACE
8
0
70
0
10
4583.454102
20
-11394.581055
30
11978.000000
11
4072.024902
21
-10124.540039
31
10499.114258
12
-22.484468
22
-10847.792969
32
10499.114258
13
-24.677734
23
-12208.558594
33
11978.000000
0
3DFACE
8
0
70
0
10
4072.024902
20
-10124.540039
30
10499.114258
11
3566.212891
21
-8868.449219
31
9003.455078
12
-20.315273
22
-9501.972656
32
9003.455078
13
-22.484468
23
-10847.792969
33
10499.114258
0
3DFACE
8
0
70
0
10
3566.212891
20
-8868.449219
30
9003.455078
11
3071.635742
21
-7640.257813
31
7474.248535
12
-18.194252
22
-8186.043945
32
7474.248535
13
-20.315273
23
-9501.972656
33
9003.455078
0
3DFACE
8
0
70
0
10
3071.635742
20
-7640.257813
30
7474.248535
11
2593.910400
21
-6453.915039
31
5894.721191
12
-16.145508
22
-6914.954102
32
5894.721191
13
-18.194252
23
-8186.043945
33
7474.248535
0
3DFACE
8
0
70
0
10
-24.677734
20
-12208.558594
30
11978.000000
11
-22.484468
21
-10847.792969
31
10499.114258
12
-4116.993652
22
-10124.540039
32
10499.114258
13
-4632.809570
23
-11394.581055
33
11978.000000
0
3DFACE
8
0
70
0
10
-22.484468
20
-10847.792969
30
10499.114258
11
-20.315273
21
-9501.972656
31
9003.455078
12
-3606.843506
22
-8868.449219
32
9003.455078
13
-4116.993652
23
-10124.540039
33
10499.114258
0
3DFACE
8
0
70
0
10
-20.315273
20
-9501.972656
30
9003.455078
11
-18.194252
21
-8186.043945
31
7474.248535
12
-3108.024170
22
-7640.257813
32
7474.248535
13
-3606.843506
23
-8868.449219
33
9003.455078
0
3DFACE
8
0
70
0
10
-18.194252
20
-8186.043945
30
7474.248535
11
-16.145508
21
-6914.954102
31
5894.721191
12
-2626.201416
22
-6453.915039
32
5894.721191
13
-3108.024170
23
-7640.257813
33
7474.248535
0
3DFACE
8
0
70
0
10
-4632.809570
20
-11394.581055
30
11978.000000
11
-4116.993652
21
-10124.540039
31
10499.114258
12
-7509.587402
22
-7954.784180
32
10499.114258
13
-8450.976563
23
-8952.646484
33
11978.000000
0
3DFACE
8
0
70
0
10
-4116.993652
20
-10124.540039
30
10499.114258
11
-3606.843506
21
-8868.449219
31
9003.455078
12
-6578.538574
22
-6967.881836
32
9003.455078
13
-7509.587402
23
-7954.784180
33
10499.114258
0
3DFACE
8
0
70
0
10
-3606.843506
20
-8868.449219
30
9003.455078
11
-3108.024170
21
-7640.257813
31
7474.248535
12
-5668.168945
22
-6002.899902
32
7474.248535
13
-6578.538574
23
-6967.881836
33
9003.455078
0
3DFACE
8
0
70
0
10
-3108.024170
20
-7640.257813
30
7474.248535
11
-2626.201416
21
-6453.915039
31
5894.721191
12
-4788.819336
22
-5070.798340
32
5894.721191
13
-5668.168945
23
-6002.899902
33
7474.248535
0
3DFACE
8
0
70
0
10
2066.579346
20
2072.958496
30
-1038.427002
11
2544.013672
21
2550.710693
31
780.826233
12
1386.288208
22
3291.141846
32
780.826233
13
1125.697754
23
2674.705811
33
-1038.427002
0
3DFACE
8
0
70
0
10
2544.013672
20
2550.710693
30
780.826233
11
3176.874512
21
3183.992676
31
2545.563965
12
1731.712646
22
4108.255859
32
2545.563965
13
1386.288208
23
3291.141846
33
780.826233
0
3DFACE
8
0
70
0
10
3176.874512
20
3183.992676
30
2545.563965
11
3927.074707
21
3934.692627
31
4251.593262
12
2141.182861
22
5076.871582
32
4251.593262
13
1731.712646
23
4108.255859
33
2545.563965
0
3DFACE
8
0
70
0
10
3927.074707
20
3934.692627
30
4251.593262
11
4756.528320
21
4764.698242
31
5894.721191
12
2593.910400
22
6147.814941
32
5894.721191
13
2141.182861
23
5076.871582
33
4251.593262
0
3DFACE
8
0
70
0
10
1125.697754
20
2674.705811
30
-1038.427002
11
1386.288208
21
3291.141846
31
780.826233
12
-10.966644
22
3537.952393
32
780.826233
13
-9.849121
23
2875.288086
33
-1038.427002
0
3DFACE
8
0
70
0
10
1386.288208
20
3291.141846
30
780.826233
11
1731.712646
21
4108.255859
31
2545.563965
12
-12.447998
22
4416.343262
32
2545.563965
13
-10.966644
23
3537.952393
33
780.826233
0
3DFACE
8
0
70
0
10
1731.712646
20
4108.255859
30
2545.563965
11
2141.182861
21
5076.871582
31
4251.593262
12
-14.204033
22
5457.598145
32
4251.593262
13
-12.447998
23
4416.343262
33
2545.563965
0
3DFACE
8
0
70
0
10
2141.182861
20
5076.871582
30
4251.593262
11
2593.910400
21
6147.814941
31
5894.721191
12
-16.145599
22
6608.853516
32
5894.721191
13
-14.204033
23
5457.598145
33
4251.593262
0
3DFACE
8
0
70
0
10
-9.849121
20
2875.288086
30
-1038.427002
11
-10.966644
21
3537.952393
31
780.826233
12
-1408.221558
22
3291.141846
32
780.826233
13
-1145.395996
23
2674.705811
33
-1038.427002
0
3DFACE
8
0
70
0
10
-10.966644
20
3537.952393
30
780.826233
11
-12.447998
21
4416.343262
31
2545.563965
12
-1756.608643
22
4108.255859
32
2545.563965
13
-1408.221558
23
3291.141846
33
780.826233
0
3DFACE
8
0
70
0
10
-12.447998
20
4416.343262
30
2545.563965
11
-14.204033
21
5457.598145
31
4251.593262
12
-2169.590820
22
5076.871582
32
4251.593262
13
-1756.608643
23
4108.255859
33
2545.563965
0
3DFACE
8
0
70
0
10
-14.204033
20
5457.598145
30
4251.593262
11
-16.145599
21
6608.853516
31
5894.721191
12
-2626.201660
22
6147.814941
32
5894.721191
13
-2169.590820
23
5076.871582
33
4251.593262
0
3DFACE
8
0
70
0
10
-1145.395996
20
2674.705811
30
-1038.427002
11
-1408.221558
21
3291.141846
31
780.826233
12
-2565.947021
22
2550.710693
32
780.826233
13
-2086.277588
23
2072.958496
33
-1038.427002
0
3DFACE
8
0
70
0
10
-1408.221558
20
3291.141846
30
780.826233
11
-1756.608643
21
4108.255859
31
2545.563965
12
-3201.770264
22
3183.992676
32
2545.563965
13
-2565.947021
23
2550.710693
33
780.826233
0
3DFACE
8
0
70
0
10
-1756.608643
20
4108.255859
30
2545.563965
11
-2169.590820
21
5076.871582
31
4251.593262
12
-3955.482666
22
3934.692627
32
4251.593262
13
-3201.770264
23
3183.992676
33
2545.563965
0
3DFACE
8
0
70
0
10
-2169.590820
20
5076.871582
30
4251.593262
11
-2626.201660
21
6147.814941
31
5894.721191
12
-4788.819336
22
4764.698242
32
5894.721191
13
-3955.482666
23
3934.692627
33
4251.593262
0
3DFACE
8
0
70
0
10
-8450.976563
20
8412.217773
30
11978.000000
11
-7509.587402
21
7474.591797
31
10499.114258
12
-4116.993652
22
9644.347656
32
10499.114258
13
-4632.809570
23
10854.152344
33
11978.000000
0
3DFACE
8
0
70
0
10
-7509.587402
20
7474.591797
30
10499.114258
11
-6578.538574
21
6547.264160
31
9003.455078
12
-3606.843506
22
8447.832031
32
9003.455078
13
-4116.993652
23
9644.347656
33
10499.114258
0
3DFACE
8
0
70
0
10
-6578.538574
20
6547.264160
30
9003.455078
11
-5668.168945
21
5640.533203
31
7474.248535
12
-3108.024414
22
7277.891113
32
7474.248535
13
-3606.843506
23
8447.832031
33
9003.455078
0
3DFACE
8
0
70
0
10
-5668.168945
20
5640.533203
30
7474.248535
11
-4788.819336
21
4764.698242
31
5894.721191
12
-2626.201660
22
6147.814941
32
5894.721191
13
-3108.024414
23
7277.891113
33
7474.248535
0
3DFACE
8
0
70
0
10
-4632.809570
20
10854.152344
30
11978.000000
11
-4116.993652
21
9644.347656
31
10499.114258
12
-22.484497
22
10367.599609
32
10499.114258
13
-24.677734
23
11668.130859
33
11978.000000
0
3DFACE
8
0
70
0
10
-4116.993652
20
9644.347656
30
10499.114258
11
-3606.843506
21
8447.832031
31
9003.455078
12
-20.315353
22
9081.354492
32
9003.455078
13
-22.484497
23
10367.599609
33
10499.114258
0
3DFACE
8
0
70
0
10
-3606.843506
20
8447.832031
30
9003.455078
11
-3108.024414
21
7277.891113
31
7474.248535
12
-18.194366
22
7823.677246
32
7474.248535
13
-20.315353
23
9081.354492
33
9003.455078
0
3DFACE
8
0
70
0
10
-3108.024414
20
7277.891113
30
7474.248535
11
-2626.201660
21
6147.814941
31
5894.721191
12
-16.145599
22
6608.853516
32
5894.721191
13
-18.194366
23
7823.677246
33
7474.248535
0
3DFACE
8
0
70
0
10
-24.677734
20
11668.130859
30
11978.000000
11
-22.484497
21
10367.599609
31
10499.114258
12
4072.024902
22
9644.347656
32
10499.114258
13
4583.454102
23
10854.152344
33
11978.000000
0
3DFACE
8
0
70
0
10
-22.484497
20
10367.599609
30
10499.114258
11
-20.315353
21
9081.354492
31
9003.455078
12
3566.212891
22
8447.832031
32
9003.455078
13
4072.024902
23
9644.347656
33
10499.114258
0
3DFACE
8
0
70
0
10
-20.315353
20
9081.354492
30
9003.455078
11
-18.194366
21
7823.677246
31
7474.248535
12
3071.635742
22
7277.891113
32
7474.248535
13
3566.212891
23
8447.832031
33
9003.455078
0
3DFACE
8
0
70
0
10
-18.194366
20
7823.677246
30
7474.248535
11
-16.145599
21
6608.853516
31
5894.721191
12
2593.910400
22
6147.814941
32
5894.721191
13
3071.635742
23
7277.891113
33
7474.248535
0
3DFACE
8
0
70
0
10
4583.454102
20
10854.152344
30
11978.000000
11
4072.024902
21
9644.347656
31
10499.114258
12
7464.618652
22
7474.591797
32
10499.114258
13
8401.621094
23
8412.217773
33
11978.000000
0
3DFACE
8
0
70
0
10
4072.024902
20
9644.347656
30
10499.114258
11
3566.212891
21
8447.832031
31
9003.455078
12
6537.907715
22
6547.264160
32
9003.455078
13
7464.618652
23
7474.591797
33
10499.114258
0
3DFACE
8
0
70
0
10
3566.212891
20
8447.832031
30
9003.455078
11
3071.635742
21
7277.891113
31
7474.248535
12
5631.780762
22
5640.533203
32
7474.248535
13
6537.907715
23
6547.264160
33
9003.455078
0
3DFACE
8
0
70
0
10
3071.635742
20
7277.891113
30
7474.248535
11
2593.910400
21
6147.814941
31
5894.721191
12
4756.528320
22
4764.698242
32
5894.721191
13
5631.780762
23
5640.533203
33
7474.248535
0
3DFACE
8
0
70
0
10
2066.579346
20
-2206.132324
30
-1038.427002
11
2544.013672
21
-2714.576904
31
780.826233
12
3262.601807
22
-1521.660156
32
780.826233
13
2650.574707
23
-1236.650757
33
-1038.427002
0
3DFACE
8
0
70
0
10
2544.013672
20
-2714.576904
30
780.826233
11
3176.874268
21
-3388.543213
31
2545.563965
12
4073.871338
22
-1899.452881
32
2545.563965
13
3262.601807
23
-1521.660156
33
780.826233
0
3DFACE
8
0
70
0
10
3176.874268
20
-3388.543213
30
2545.563965
11
3927.074707
21
-4187.470215
31
4251.593262
12
5035.559570
22
-2347.292725
32
4251.593262
13
4073.871338
23
-1899.452881
33
2545.563965
0
3DFACE
8
0
70
0
10
3927.074707
20
-4187.470215
30
4251.593262
11
4756.528320
21
-5070.798340
31
5894.721191
12
6098.842773
22
-2842.443604
32
5894.721191
13
5035.559570
23
-2347.292725
33
4251.593262
0
3DFACE
8
0
70
0
10
2650.574707
20
-1236.650757
30
-1038.427002
11
3262.601807
21
-1521.660156
31
780.826233
12
3502.131348
22
-81.933105
32
780.826233
13
2845.239990
23
-66.586914
33
-1038.427002
0
3DFACE
8
0
70
0
10
3262.601807
20
-1521.660156
30
780.826233
11
4073.871338
21
-1899.452881
31
2545.563965
12
4372.870117
22
-102.275177
32
2545.563965
13
3502.131348
23
-81.933105
33
780.826233
0
3DFACE
8
0
70
0
10
4073.871338
20
-1899.452881
30
2545.563965
11
5035.559570
21
-2347.292725
31
4251.593262
12
5405.054199
22
-126.388901
32
4251.593262
13
4372.870117
23
-102.275177
33
2545.563965
0
3DFACE
8
0
70
0
10
5035.559570
20
-2347.292725
30
4251.593262
11
6098.842773
21
-2842.443604
31
5894.721191
12
6546.281250
22
-153.050049
32
5894.721191
13
5405.054199
23
-126.388901
33
4251.593262
0
3DFACE
8
0
70
0
10
2845.239990
20
-66.586914
30
-1038.427002
11
3502.131348
21
-81.933105
31
780.826233
12
3262.602051
22
1357.793945
32
780.826233
13
2650.574707
23
1103.476929
33
-1038.427002
0
3DFACE
8
0
70
0
10
3502.131348
20
-81.933105
30
780.826233
11
4372.870117
21
-102.275177
31
2545.563965
12
4073.871338
22
1694.902588
32
2545.563965
13
3262.602051
23
1357.793945
33
780.826233
0
3DFACE
8
0
70
0
10
4372.870117
20
-102.275177
30
2545.563965
11
5405.054199
21
-126.388901
31
4251.593262
12
5035.559570
22
2094.514893
32
4251.593262
13
4073.871338
23
1694.902588
33
2545.563965
0
3DFACE
8
0
70
0
10
5405.054199
20
-126.388901
30
4251.593262
11
6546.281250
21
-153.050049
31
5894.721191
12
6098.842773
22
2536.343506
32
5894.721191
13
5035.559570
23
2094.514893
33
4251.593262
0
3DFACE
8
0
70
0
10
2650.574707
20
1103.476929
30
-1038.427002
11
3262.602051
21
1357.793945
31
780.826233
12
2544.013672
22
2550.710693
32
780.826233
13
2066.579346
23
2072.958496
33
-1038.427002
0
3DFACE
8
0
70
0
10
3262.602051
20
1357.793945
30
780.826233
11
4073.871338
21
1694.902588
31
2545.563965
12
3176.874512
22
3183.992676
32
2545.563965
13
2544.013672
23
2550.710693
33
780.826233
0
3DFACE
8
0
70
0
10
4073.871338
20
1694.902588
30
2545.563965
11
5035.559570
21
2094.514893
31
4251.593262
12
3927.074707
22
3934.692627
32
4251.593262
13
3176.874512
23
3183.992676
33
2545.563965
0
3DFACE
8
0
70
0
10
5035.559570
20
2094.514893
30
4251.593262
11
6098.842773
21
2536.343506
31
5894.721191
12
4756.528320
22
4764.698242
32
5894.721191
13
3927.074707
23
3934.692627
33
4251.593262
0
3DFACE
8
0
70
0
10
8401.621094
20
8412.217773
30
11978.000000
11
7464.618652
21
7474.591797
31
10499.114258
12
9570.366211
22
3978.873779
32
10499.114258
13
10771.517578
23
4477.990723
33
11978.000000
0
3DFACE
8
0
70
0
10
7464.618652
20
7474.591797
30
10499.114258
11
6537.907715
21
6547.264160
31
9003.455078
12
8382.408203
22
3485.238770
32
9003.455078
13
9570.366211
23
3978.873779
33
10499.114258
0
3DFACE
8
0
70
0
10
6537.907715
20
6547.264160
30
9003.455078
11
5631.780762
21
5640.533203
31
7474.248535
12
7220.836426
22
3002.567871
32
7474.248535
13
8382.408203
23
3485.238770
33
9003.455078
0
3DFACE
8
0
70
0
10
5631.780762
20
5640.533203
30
7474.248535
11
4756.528320
21
4764.698242
31
5894.721191
12
6098.842773
22
2536.343506
32
5894.721191
13
7220.836426
23
3002.567871
33
7474.248535
0
3DFACE
8
0
70
0
10
10771.517578
20
4477.990723
30
11978.000000
11
9570.366211
21
3978.873779
31
10499.114258
12
10272.282227
22
-240.096237
32
10499.114258
13
11561.483398
23
-270.214264
33
11978.000000
0
3DFACE
8
0
70
0
10
9570.366211
20
3978.873779
30
10499.114258
11
8382.408203
21
3485.238770
31
9003.455078
12
8997.242188
22
-210.308975
32
9003.455078
13
10272.282227
23
-240.096237
33
10499.114258
0
3DFACE
8
0
70
0
10
8382.408203
20
3485.238770
30
9003.455078
11
7220.836426
21
3002.567871
31
7474.248535
12
7750.521484
22
-181.183319
32
7474.248535
13
8997.242188
23
-210.308975
33
9003.455078
0
3DFACE
8
0
70
0
10
7220.836426
20
3002.567871
30
7474.248535
11
6098.842773
21
2536.343506
31
5894.721191
12
6546.281250
22
-153.050049
32
5894.721191
13
7750.521484
23
-181.183319
33
7474.248535
0
3DFACE
8
0
70
0
10
11561.483398
20
-270.214264
30
11978.000000
11
10272.282227
21
-240.096237
31
10499.114258
12
9570.366211
22
-4459.066406
32
10499.114258
13
10771.517578
23
-5018.419434
33
11978.000000
0
3DFACE
8
0
70
0
10
10272.282227
20
-240.096237
30
10499.114258
11
8997.242188
21
-210.308975
31
9003.455078
12
8382.408203
22
-3905.856689
32
9003.455078
13
9570.366211
23
-4459.066406
33
10499.114258
0
3DFACE
8
0
70
0
10
8997.242188
20
-210.308975
30
9003.455078
11
7750.521484
21
-181.183319
31
7474.248535
12
7220.836426
22
-3364.934570
32
7474.248535
13
8382.408203
23
-3905.856689
33
9003.455078
0
3DFACE
8
0
70
0
10
7750.521484
20
-181.183319
30
7474.248535
11
6546.281250
21
-153.050049
31
5894.721191
12
6098.842773
22
-2842.443604
32
5894.721191
13
7220.836426
23
-3364.934570
33
7474.248535
0
3DFACE
8
0
70
0
10
10771.517578
20
-5018.419434
30
11978.000000
11
9570.366211
21
-4459.066406
31
10499.114258
12
7464.618652
22
-7954.784180
32
10499.114258
13
8401.621094
23
-8952.646484
33
11978.000000
0
3DFACE
8
0
70
0
10
9570.366211
20
-4459.066406
30
10499.114258
11
8382.408203
21
-3905.856689
31
9003.455078
12
6537.907715
22
-6967.881836
32
9003.455078
13
7464.618652
23
-7954.784180
33
10499.114258
0
3DFACE
8
0
70
0
10
8382.408203
20
-3905.856689
30
9003.455078
11
7220.836426
21
-3364.934570
31
7474.248535
12
5631.780762
22
-6002.899902
32
7474.248535
13
6537.907715
23
-6967.881836
33
9003.455078
0
3DFACE
8
0
70
0
10
7220.836426
20
-3364.934570
30
7474.248535
11
6098.842773
21
-2842.443604
31
5894.721191
12
4756.528320
22
-5070.798340
32
5894.721191
13
5631.780762
23
-6002.899902
33
7474.248535
0
3DFACE
8
0
70
0
10
-2086.277588
20
-2206.132324
30
-1038.427002
11
-1786.548584
21
-1888.422729
31
-2902.411133
12
-2286.441650
22
-1058.558228
32
-2902.411133
13
-2670.272949
23
-1236.650757
33
-1038.427002
0
3DFACE
8
0
70
0
10
-1786.548584
20
-1888.422729
30
-2902.411133
11
-1632.633789
21
-1725.274658
31
-4778.976074
12
-2089.339111
22
-967.105286
32
-4778.976074
13
-2286.441650
23
-1058.558228
33
-2902.411133
0
3DFACE
8
0
70
0
10
-1632.633789
20
-1725.274658
30
-4778.976074
11
-1575.928345
21
-1665.167480
31
-6630.380371
12
-2016.722534
22
-933.412109
32
-6630.380371
13
-2089.339111
23
-967.105286
33
-4778.976074
0
3DFACE
8
0
70
0
10
-1575.928345
20
-1665.167480
30
-6630.380371
11
-1567.827515
21
-1656.580688
31
-8418.882813
12
-2006.348633
22
-928.598816
32
-8418.882813
13
-2016.722534
23
-933.412109
33
-6630.380371
0
3DFACE
8
0
70
0
10
-2670.272949
20
-1236.650757
30
-1038.427002
11
-2286.441650
21
-1058.558228
31
-2902.411133
12
-2453.072754
22
-56.997604
32
-2902.411133
13
-2864.938232
23
-66.586914
33
-1038.427002
0
3DFACE
8
0
70
0
10
-2286.441650
20
-1058.558228
30
-2902.411133
11
-2089.339111
21
-967.105286
31
-4778.976074
12
-2241.574463
22
-52.073364
32
-4778.976074
13
-2453.072754
23
-56.997604
33
-2902.411133
0
3DFACE
8
0
70
0
10
-2089.339111
20
-967.105286
30
-4778.976074
11
-2016.722534
21
-933.412109
31
-6630.380371
12
-2163.653809
22
-50.259171
32
-6630.380371
13
-2241.574463
23
-52.073364
33
-4778.976074
0
3DFACE
8
0
70
0
10
-2016.722534
20
-933.412109
30
-6630.380371
11
-2006.348633
21
-928.598816
31
-8418.882813
12
-2152.522461
22
-50.000000
32
-8418.882813
13
-2163.653809
23
-50.259171
33
-6630.380371
0
3DFACE
8
0
70
0
10
-2864.938232
20
-66.586914
30
-1038.427002
11
-2453.072754
21
-56.997604
31
-2902.411133
12
-2286.441650
22
944.563049
32
-2902.411133
13
-2670.272949
23
1103.476929
33
-1038.427002
0
3DFACE
8
0
70
0
10
-2453.072754
20
-56.997604
30
-2902.411133
11
-2241.574463
21
-52.073364
31
-4778.976074
12
-2089.339111
22
862.958557
32
-4778.976074
13
-2286.441650
23
944.563049
33
-2902.411133
0
3DFACE
8
0
70
0
10
-2241.574463
20
-52.073364
30
-4778.976074
11
-2163.653809
21
-50.259171
31
-6630.380371
12
-2016.722534
22
832.893799
32
-6630.380371
13
-2089.339111
23
862.958557
33
-4778.976074
0
3DFACE
8
0
70
0
10
-2163.653809
20
-50.259171
30
-6630.380371
11
-2152.522461
21
-50.000000
31
-8418.882813
12
-2006.348633
22
828.598816
32
-8418.882813
13
-2016.722534
23
832.893799
33
-6630.380371
0
3DFACE
8
0
70
0
10
-2670.272949
20
1103.476929
30
-1038.427002
11
-2286.441650
21
944.563049
31
-2902.411133
12
-1786.548584
22
1774.427612
32
-2902.411133
13
-2086.277588
23
2072.958496
33
-1038.427002
0
3DFACE
8
0
70
0
10
-2286.441650
20
944.563049
30
-2902.411133
11
-2089.339111
21
862.958557
31
-4778.976074
12
-1632.633789
22
1621.127930
32
-4778.976074
13
-1786.548584
23
1774.427612
33
-2902.411133
0
3DFACE
8
0
70
0
10
-2089.339111
20
862.958557
30
-4778.976074
11
-2016.722534
21
832.893799
31
-6630.380371
12
-1575.928345
22
1564.649048
32
-6630.380371
13
-1632.633789
23
1621.127930
33
-4778.976074
0
3DFACE
8
0
70
0
10
-2016.722534
20
832.893799
30
-6630.380371
11
-2006.348633
21
828.598816
31
-8418.882813
12
-1567.827515
22
1556.580688
32
-8418.882813
13
-1575.928345
23
1564.649048
33
-6630.380371
0
3DFACE
8
0
70
0
10
2066.579346
20
-2206.132324
30
-1038.427002
11
1768.247070
21
-1888.422729
31
-2902.411133
12
962.863586
22
-2403.511230
32
-2902.411133
13
1125.697632
23
-2807.879639
33
-1038.427002
0
3DFACE
8
0
70
0
10
1768.247070
20
-1888.422729
30
-2902.411133
11
1615.049316
21
-1725.274658
31
-4778.976074
12
879.246094
22
-2195.862549
32
-4778.976074
13
962.863586
23
-2403.511230
33
-2902.411133
0
3DFACE
8
0
70
0
10
1615.049316
20
-1725.274658
30
-4778.976074
11
1558.608032
21
-1665.167480
31
-6630.380371
12
848.439697
22
-2119.360352
32
-6630.380371
13
879.246094
23
-2195.862549
33
-4778.976074
0
3DFACE
8
0
70
0
10
1558.608032
20
-1665.167480
30
-6630.380371
11
1550.545044
21
-1656.580688
31
-8418.882813
12
844.038757
22
-2108.431641
32
-8418.882813
13
848.439697
23
-2119.360352
33
-6630.380371
0
3DFACE
8
0
70
0
10
1125.697632
20
-2807.879639
30
-1038.427002
11
962.863586
21
-2403.511230
31
-2902.411133
12
-9.150831
22
-2575.207275
32
-2902.411133
13
-9.849167
23
-3008.461914
33
-1038.427002
0
3DFACE
8
0
70
0
10
962.863586
20
-2403.511230
30
-2902.411133
11
879.246094
21
-2195.862549
31
-4778.976074
12
-8.792227
22
-2352.725098
32
-4778.976074
13
-9.150831
23
-2575.207275
33
-2902.411133
0
3DFACE
8
0
70
0
10
879.246094
20
-2195.862549
30
-4778.976074
11
848.439697
21
-2119.360352
31
-6630.380371
12
-8.660110
22
-2270.758057
32
-6630.380371
13
-8.792227
23
-2352.725098
33
-4778.976074
0
3DFACE
8
0
70
0
10
848.439697
20
-2119.360352
30
-6630.380371
11
844.038757
21
-2108.431641
31
-8418.882813
12
-8.641235
22
-2259.048584
32
-8418.882813
13
-8.660110
23
-2270.758057
33
-6630.380371
0
3DFACE
8
0
70
0
10
-9.849167
20
-3008.461914
30
-1038.427002
11
-9.150831
21
-2575.207275
31
-2902.411133
12
-981.165283
22
-2403.511230
32
-2902.411133
13
-1145.395996
23
-2807.879639
33
-1038.427002
0
3DFACE
8
0
70
0
10
-9.150831
20
-2575.207275
30
-2902.411133
11
-8.792227
21
-2352.725098
31
-4778.976074
12
-896.830566
22
-2195.862549
32
-4778.976074
13
-981.165283
23
-2403.511230
33
-2902.411133
0
3DFACE
8
0
70
0
10
-8.792227
20
-2352.725098
30
-4778.976074
11
-8.660110
21
-2270.758057
31
-6630.380371
12
-865.759888
22
-2119.360352
32
-6630.380371
13
-896.830566
23
-2195.862549
33
-4778.976074
0
3DFACE
8
0
70
0
10
-8.660110
20
-2270.758057
30
-6630.380371
11
-8.641235
21
-2259.048584
31
-8418.882813
12
-861.321228
22
-2108.431641
32
-8418.882813
13
-865.759888
23
-2119.360352
33
-6630.380371
0
3DFACE
8
0
70
0
10
-1145.395996
20
-2807.879639
30
-1038.427002
11
-981.165283
21
-2403.511230
31
-2902.411133
12
-1786.548584
22
-1888.422729
32
-2902.411133
13
-2086.277588
23
-2206.132324
33
-1038.427002
0
3DFACE
8
0
70
0
10
-981.165283
20
-2403.511230
30
-2902.411133
11
-896.830566
21
-2195.862549
31
-4778.976074
12
-1632.633789
22
-1725.274658
32
-4778.976074
13
-1786.548584
23
-1888.422729
33
-2902.411133
0
3DFACE
8
0
70
0
10
-896.830566
20
-2195.862549
30
-4778.976074
11
-865.759888
21
-2119.360352
31
-6630.380371
12
-1575.928345
22
-1665.167480
32
-6630.380371
13
-1632.633789
23
-1725.274658
33
-4778.976074
0
3DFACE
8
0
70
0
10
-865.759888
20
-2119.360352
30
-6630.380371
11
-861.321228
21
-2108.431641
31
-8418.882813
12
-1567.827515
22
-1656.580688
32
-8418.882813
13
-1575.928345
23
-1665.167480
33
-6630.380371
0
3DFACE
8
0
70
0
10
-2086.277588
20
2072.958496
30
-1038.427002
11
-1786.548584
21
1774.427612
31
-2902.411133
12
-981.165222
22
2289.515869
32
-2902.411133
13
-1145.395996
23
2674.705811
33
-1038.427002
0
3DFACE
8
0
70
0
10
-1786.548584
20
1774.427612
30
-2902.411133
11
-1632.633789
21
1621.127930
31
-4778.976074
12
-896.830566
22
2091.715820
32
-4778.976074
13
-981.165222
23
2289.515869
33
-2902.411133
0
3DFACE
8
0
70
0
10
-1632.633789
20
1621.127930
30
-4778.976074
11
-1575.928345
21
1564.649048
31
-6630.380371
12
-865.759888
22
2018.842041
32
-6630.380371
13
-896.830566
23
2091.715820
33
-4778.976074
0
3DFACE
8
0
70
0
10
-1575.928345
20
1564.649048
30
-6630.380371
11
-1567.827515
21
1556.580688
31
-8418.882813
12
-861.321228
22
2008.431519
32
-8418.882813
13
-865.759888
23
2018.842041
33
-6630.380371
0
3DFACE
8
0
70
0
10
-1145.395996
20
2674.705811
30
-1038.427002
11
-981.165222
21
2289.515869
31
-2902.411133
12
-9.150812
22
2461.212158
32
-2902.411133
13
-9.849121
23
2875.288086
33
-1038.427002
0
3DFACE
8
0
70
0
10
-981.165222
20
2289.515869
30
-2902.411133
11
-896.830566
21
2091.715820
31
-4778.976074
12
-8.792221
22
2248.578369
32
-4778.976074
13
-9.150812
23
2461.212158
33
-2902.411133
0
3DFACE
8
0
70
0
10
-896.830566
20
2091.715820
30
-4778.976074
11
-865.759888
21
2018.842041
31
-6630.380371
12
-8.660109
22
2170.239746
32
-6630.380371
13
-8.792221
23
2248.578369
33
-4778.976074
0
3DFACE
8
0
70
0
10
-865.759888
20
2018.842041
30
-6630.380371
11
-861.321228
21
2008.431519
31
-8418.882813
12
-8.641235
22
2159.048584
32
-8418.882813
13
-8.660109
23
2170.239746
33
-6630.380371
0
3DFACE
8
0
70
0
10
-9.849121
20
2875.288086
30
-1038.427002
11
-9.150812
21
2461.212158
31
-2902.411133
12
962.863647
22
2289.515869
32
-2902.411133
13
1125.697754
23
2674.705811
33
-1038.427002
0
3DFACE
8
0
70
0
10
-9.150812
20
2461.212158
30
-2902.411133
11
-8.792221
21
2248.578369
31
-4778.976074
12
879.246155
22
2091.715820
32
-4778.976074
13
962.863647
23
2289.515869
33
-2902.411133
0
3DFACE
8
0
70
0
10
-8.792221
20
2248.578369
30
-4778.976074
11
-8.660109
21
2170.239746
31
-6630.380371
12
848.439697
22
2018.842041
32
-6630.380371
13
879.246155
23
2091.715820
33
-4778.976074
0
3DFACE
8
0
70
0
10
-8.660109
20
2170.239746
30
-6630.380371
11
-8.641235
21
2159.048584
31
-8418.882813
12
844.038757
22
2008.431519
32
-8418.882813
13
848.439697
23
2018.842041
33
-6630.380371
0
3DFACE
8
0
70
0
10
1125.697754
20
2674.705811
30
-1038.427002
11
962.863647
21
2289.515869
31
-2902.411133
12
1768.247070
22
1774.427612
32
-2902.411133
13
2066.579346
23
2072.958496
33
-1038.427002
0
3DFACE
8
0
70
0
10
962.863647
20
2289.515869
30
-2902.411133
11
879.246155
21
2091.715820
31
-4778.976074
12
1615.049316
22
1621.127930
32
-4778.976074
13
1768.247070
23
1774.427612
33
-2902.411133
0
3DFACE
8
0
70
0
10
879.246155
20
2091.715820
30
-4778.976074
11
848.439697
21
2018.842041
31
-6630.380371
12
1558.608032
22
1564.649048
32
-6630.380371
13
1615.049316
23
1621.127930
33
-4778.976074
0
3DFACE
8
0
70
0
10
848.439697
20
2018.842041
30
-6630.380371
11
844.038757
21
2008.431519
31
-8418.882813
12
1550.545044
22
1556.580688
32
-8418.882813
13
1558.608032
23
1564.649048
33
-6630.380371
0
3DFACE
8
0
70
0
10
2066.579346
20
-2206.132324
30
-1038.427002
11
2650.574707
21
-1236.650757
31
-1038.427002
12
2268.140137
22
-1058.558228
32
-2902.411133
13
1768.247070
23
-1888.422729
33
-2902.411133
0
3DFACE
8
0
70
0
10
2650.574707
20
-1236.650757
30
-1038.427002
11
2845.239990
21
-66.586914
31
-1038.427002
12
2434.771240
22
-56.997604
32
-2902.411133
13
2268.140137
23
-1058.558228
33
-2902.411133
0
3DFACE
8
0
70
0
10
2845.239990
20
-66.586914
30
-1038.427002
11
2650.574707
21
1103.476929
31
-1038.427002
12
2268.140137
22
944.563049
32
-2902.411133
13
2434.771240
23
-56.997604
33
-2902.411133
0
3DFACE
8
0
70
0
10
2650.574707
20
1103.476929
30
-1038.427002
11
2066.579346
21
2072.958496
31
-1038.427002
12
1768.247070
22
1774.427612
32
-2902.411133
13
2268.140137
23
944.563049
33
-2902.411133
0
3DFACE
8
0
70
0
10
1768.247070
20
-1888.422729
30
-2902.411133
11
2268.140137
21
-1058.558228
31
-2902.411133
12
2071.754639
22
-967.105286
32
-4778.976074
13
1615.049316
23
-1725.274658
33
-4778.976074
0
3DFACE
8
0
70
0
10
2268.140137
20
-1058.558228
30
-2902.411133
11
2434.771240
21
-56.997604
31
-2902.411133
12
2223.989990
22
-52.073364
32
-4778.976074
13
2071.754639
23
-967.105286
33
-4778.976074
0
3DFACE
8
0
70
0
10
2434.771240
20
-56.997604
30
-2902.411133
11
2268.140137
21
944.563049
31
-2902.411133
12
2071.754639
22
862.958557
32
-4778.976074
13
2223.989990
23
-52.073364
33
-4778.976074
0
3DFACE
8
0
70
0
10
2268.140137
20
944.563049
30
-2902.411133
11
1768.247070
21
1774.427612
31
-2902.411133
12
1615.049316
22
1621.127930
32
-4778.976074
13
2071.754639
23
862.958557
33
-4778.976074
0
3DFACE
8
0
70
0
10
1615.049316
20
-1725.274658
30
-4778.976074
11
2071.754639
21
-967.105286
31
-4778.976074
12
1999.402222
22
-933.412109
32
-6630.380371
13
1558.608032
23
-1665.167480
33
-6630.380371
0
3DFACE
8
0
70
0
10
2071.754639
20
-967.105286
30
-4778.976074
11
2223.989990
21
-52.073364
31
-4778.976074
12
2146.333740
22
-50.259171
32
-6630.380371
13
1999.402222
23
-933.412109
33
-6630.380371
0
3DFACE
8
0
70
0
10
2223.989990
20
-52.073364
30
-4778.976074
11
2071.754639
21
862.958557
31
-4778.976074
12
1999.402222
22
832.893799
32
-6630.380371
13
2146.333740
23
-50.259171
33
-6630.380371
0
3DFACE
8
0
70
0
10
2071.754639
20
862.958557
30
-4778.976074
11
1615.049316
21
1621.127930
31
-4778.976074
12
1558.608032
22
1564.649048
32
-6630.380371
13
1999.402222
23
832.893799
33
-6630.380371
0
3DFACE
8
0
70
0
10
1558.608032
20
-1665.167480
30
-6630.380371
11
1999.402222
21
-933.412109
31
-6630.380371
12
1989.066162
22
-928.598816
32
-8418.882813
13
1550.545044
23
-1656.580688
33
-8418.882813
0
3DFACE
8
0
70
0
10
1999.402222
20
-933.412109
30
-6630.380371
11
2146.333740
21
-50.259171
31
-6630.380371
12
2135.239990
22
-50.000000
32
-8418.882813
13
1989.066162
23
-928.598816
33
-8418.882813
0
3DFACE
8
0
70
0
10
2146.333740
20
-50.259171
30
-6630.380371
11
1999.402222
21
832.893799
31
-6630.380371
12
1989.066162
22
828.598816
32
-8418.882813
13
2135.239990
23
-50.000000
33
-8418.882813
0
3DFACE
8
0
70
0
10
1999.402222
20
832.893799
30
-6630.380371
11
1558.608032
21
1564.649048
31
-6630.380371
12
1550.545044
22
1556.580688
32
-8418.882813
13
1989.066162
23
828.598816
33
-8418.882813
0
3DFACE
8
0
70
0
10
-1567.827515
20
-1656.580688
30
-8418.882813
11
-1567.827515
21
-1656.580688
31
-10117.225586
12
-2006.348633
22
-928.598816
32
-10117.225586
13
-2006.348633
23
-928.598816
33
-8418.882813
0
3DFACE
8
0
70
0
10
-1567.827515
20
-1656.580688
30
-10117.225586
11
-1567.827515
21
-1656.580688
31
-11740.084961
12
-2006.348633
22
-928.598816
32
-11740.084961
13
-2006.348633
23
-928.598816
33
-10117.225586
0
3DFACE
8
0
70
0
10
-1567.827515
20
-1656.580688
30
-11740.084961
11
-1567.827515
21
-1656.580688
31
-13312.623047
12
-2006.348633
22
-928.598816
32
-13312.623047
13
-2006.348633
23
-928.598816
33
-11740.084961
0
3DFACE
8
0
70
0
10
-1567.827515
20
-1656.580688
30
-13312.623047
11
-1567.827515
21
-1656.580688
31
-14860.000000
12
-2006.348633
22
-928.598816
32
-14860.000000
13
-2006.348633
23
-928.598816
33
-13312.623047
0
3DFACE
8
0
70
0
10
-2006.348633
20
-928.598816
30
-8418.882813
11
-2006.348633
21
-928.598816
31
-10117.225586
12
-2152.522461
22
-50.000000
32
-10117.225586
13
-2152.522461
23
-50.000000
33
-8418.882813
0
3DFACE
8
0
70
0
10
-2006.348633
20
-928.598816
30
-10117.225586
11
-2006.348633
21
-928.598816
31
-11740.084961
12
-2152.522461
22
-50.000000
32
-11740.084961
13
-2152.522461
23
-50.000000
33
-10117.225586
0
3DFACE
8
0
70
0
10
-2006.348633
20
-928.598816
30
-11740.084961
11
-2006.348633
21
-928.598816
31
-13312.623047
12
-2152.522461
22
-50.000000
32
-13312.623047
13
-2152.522461
23
-50.000000
33
-11740.084961
0
3DFACE
8
0
70
0
10
-2006.348633
20
-928.598816
30
-13312.623047
11
-2006.348633
21
-928.598816
31
-14860.000000
12
-2152.522461
22
-50.000000
32
-14860.000000
13
-2152.522461
23
-50.000000
33
-13312.623047
0
3DFACE
8
0
70
0
10
-2152.522461
20
-50.000000
30
-8418.882813
11
-2152.522461
21
-50.000000
31
-10117.225586
12
-2006.348633
22
828.598816
32
-10117.225586
13
-2006.348633
23
828.598816
33
-8418.882813
0
3DFACE
8
0
70
0
10
-2152.522461
20
-50.000000
30
-10117.225586
11
-2152.522461
21
-50.000000
31
-11740.084961
12
-2006.348633
22
828.598816
32
-11740.084961
13
-2006.348633
23
828.598816
33
-10117.225586
0
3DFACE
8
0
70
0
10
-2152.522461
20
-50.000000
30
-11740.084961
11
-2152.522461
21
-50.000000
31
-13312.623047
12
-2006.348633
22
828.598816
32
-13312.623047
13
-2006.348633
23
828.598816
33
-11740.084961
0
3DFACE
8
0
70
0
10
-2152.522461
20
-50.000000
30
-13312.623047
11
-2152.522461
21
-50.000000
31
-14860.000000
12
-2006.348633
22
828.598816
32
-14860.000000
13
-2006.348633
23
828.598816
33
-13312.623047
0
3DFACE
8
0
70
0
10
-2006.348633
20
828.598816
30
-8418.882813
11
-2006.348633
21
828.598816
31
-10117.225586
12
-1567.827515
22
1556.580688
32
-10117.225586
13
-1567.827515
23
1556.580688
33
-8418.882813
0
3DFACE
8
0
70
0
10
-2006.348633
20
828.598816
30
-10117.225586
11
-2006.348633
21
828.598816
31
-11740.084961
12
-1567.827515
22
1556.580688
32
-11740.084961
13
-1567.827515
23
1556.580688
33
-10117.225586
0
3DFACE
8
0
70
0
10
-2006.348633
20
828.598816
30
-11740.084961
11
-2006.348633
21
828.598816
31
-13312.623047
12
-1567.827515
22
1556.580688
32
-13312.623047
13
-1567.827515
23
1556.580688
33
-11740.084961
0
3DFACE
8
0
70
0
10
-2006.348633
20
828.598816
30
-13312.623047
11
-2006.348633
21
828.598816
31
-14860.000000
12
-1567.827515
22
1556.580688
32
-14860.000000
13
-1567.827515
23
1556.580688
33
-13312.623047
0
3DFACE
8
0
70
0
10
1550.545044
20
-1656.580688
30
-8418.882813
11
1550.545044
21
-1656.580688
31
-10117.225586
12
844.038757
22
-2108.431641
32
-10117.225586
13
844.038757
23
-2108.431641
33
-8418.882813
0
3DFACE
8
0
70
0
10
1550.545044
20
-1656.580688
30
-10117.225586
11
1550.545044
21
-1656.580688
31
-11740.084961
12
844.038757
22
-2108.431641
32
-11740.084961
13
844.038757
23
-2108.431641
33
-10117.225586
0
3DFACE
8
0
70
0
10
1550.545044
20
-1656.580688
30
-11740.084961
11
1550.545044
21
-1656.580688
31
-13312.623047
12
844.038757
22
-2108.431641
32
-13312.623047
13
844.038757
23
-2108.431641
33
-11740.084961
0
3DFACE
8
0
70
0
10
1550.545044
20
-1656.580688
30
-13312.623047
11
1550.545044
21
-1656.580688
31
-14860.000000
12
844.038757
22
-2108.431641
32
-14860.000000
13
844.038757
23
-2108.431641
33
-13312.623047
0
3DFACE
8
0
70
0
10
844.038757
20
-2108.431641
30
-8418.882813
11
844.038757
21
-2108.431641
31
-10117.225586
12
-8.641235
22
-2259.048584
32
-10117.225586
13
-8.641235
23
-2259.048584
33
-8418.882813
0
3DFACE
8
0
70
0
10
844.038757
20
-2108.431641
30
-10117.225586
11
844.038757
21
-2108.431641
31
-11740.084961
12
-8.641235
22
-2259.048584
32
-11740.084961
13
-8.641235
23
-2259.048584
33
-10117.225586
0
3DFACE
8
0
70
0
10
844.038757
20
-2108.431641
30
-11740.084961
11
844.038757
21
-2108.431641
31
-13312.623047
12
-8.641235
22
-2259.048584
32
-13312.623047
13
-8.641235
23
-2259.048584
33
-11740.084961
0
3DFACE
8
0
70
0
10
844.038757
20
-2108.431641
30
-13312.623047
11
844.038757
21
-2108.431641
31
-14860.000000
12
-8.641235
22
-2259.048584
32
-14860.000000
13
-8.641235
23
-2259.048584
33
-13312.623047
0
3DFACE
8
0
70
0
10
-8.641235
20
-2259.048584
30
-8418.882813
11
-8.641235
21
-2259.048584
31
-10117.225586
12
-861.321228
22
-2108.431641
32
-10117.225586
13
-861.321228
23
-2108.431641
33
-8418.882813
0
3DFACE
8
0
70
0
10
-8.641235
20
-2259.048584
30
-10117.225586
11
-8.641235
21
-2259.048584
31
-11740.084961
12
-861.321228
22
-2108.431641
32
-11740.084961
13
-861.321228
23
-2108.431641
33
-10117.225586
0
3DFACE
8
0
70
0
10
-8.641235
20
-2259.048584
30
-11740.084961
11
-8.641235
21
-2259.048584
31
-13312.623047
12
-861.321228
22
-2108.431641
32
-13312.623047
13
-861.321228
23
-2108.431641
33
-11740.084961
0
3DFACE
8
0
70
0
10
-8.641235
20
-2259.048584
30
-13312.623047
11
-8.641235
21
-2259.048584
31
-14860.000000
12
-861.321228
22
-2108.431641
32
-14860.000000
13
-861.321228
23
-2108.431641
33
-13312.623047
0
3DFACE
8
0
70
0
10
-861.321228
20
-2108.431641
30
-8418.882813
11
-861.321228
21
-2108.431641
31
-10117.225586
12
-1567.827515
22
-1656.580688
32
-10117.225586
13
-1567.827515
23
-1656.580688
33
-8418.882813
0
3DFACE
8
0
70
0
10
-861.321228
20
-2108.431641
30
-10117.225586
11
-861.321228
21
-2108.431641
31
-11740.084961
12
-1567.827515
22
-1656.580688
32
-11740.084961
13
-1567.827515
23
-1656.580688
33
-10117.225586
0
3DFACE
8
0
70
0
10
-861.321228
20
-2108.431641
30
-11740.084961
11
-861.321228
21
-2108.431641
31
-13312.623047
12
-1567.827515
22
-1656.580688
32
-13312.623047
13
-1567.827515
23
-1656.580688
33
-11740.084961
0
3DFACE
8
0
70
0
10
-861.321228
20
-2108.431641
30
-13312.623047
11
-861.321228
21
-2108.431641
31
-14860.000000
12
-1567.827515
22
-1656.580688
32
-14860.000000
13
-1567.827515
23
-1656.580688
33
-13312.623047
0
3DFACE
8
0
70
0
10
-1567.827515
20
1556.580688
30
-8418.882813
11
-1567.827515
21
1556.580688
31
-10117.225586
12
-861.321228
22
2008.431519
32
-10117.225586
13
-861.321228
23
2008.431519
33
-8418.882813
0
3DFACE
8
0
70
0
10
-1567.827515
20
1556.580688
30
-10117.225586
11
-1567.827515
21
1556.580688
31
-11740.084961
12
-861.321228
22
2008.431519
32
-11740.084961
13
-861.321228
23
2008.431519
33
-10117.225586
0
3DFACE
8
0
70
0
10
-1567.827515
20
1556.580688
30
-11740.084961
11
-1567.827515
21
1556.580688
31
-13312.623047
12
-861.321228
22
2008.431519
32
-13312.623047
13
-861.321228
23
2008.431519
33
-11740.084961
0
3DFACE
8
0
70
0
10
-1567.827515
20
1556.580688
30
-13312.623047
11
-1567.827515
21
1556.580688
31
-14860.000000
12
-861.321228
22
2008.431519
32
-14860.000000
13
-861.321228
23
2008.431519
33
-13312.623047
0
3DFACE
8
0
70
0
10
-861.321228
20
2008.431519
30
-8418.882813
11
-861.321228
21
2008.431519
31
-10117.225586
12
-8.641235
22
2159.048584
32
-10117.225586
13
-8.641235
23
2159.048584
33
-8418.882813
0
3DFACE
8
0
70
0
10
-861.321228
20
2008.431519
30
-10117.225586
11
-861.321228
21
2008.431519
31
-11740.084961
12
-8.641235
22
2159.048584
32
-11740.084961
13
-8.641235
23
2159.048584
33
-10117.225586
0
3DFACE
8
0
70
0
10
-861.321228
20
2008.431519
30
-11740.084961
11
-861.321228
21
2008.431519
31
-13312.623047
12
-8.641235
22
2159.048584
32
-13312.623047
13
-8.641235
23
2159.048584
33
-11740.084961
0
3DFACE
8
0
70
0
10
-861.321228
20
2008.431519
30
-13312.623047
11
-861.321228
21
2008.431519
31
-14860.000000
12
-8.641235
22
2159.048584
32
-14860.000000
13
-8.641235
23
2159.048584
33
-13312.623047
0
3DFACE
8
0
70
0
10
-8.641235
20
2159.048584
30
-8418.882813
11
-8.641235
21
2159.048584
31
-10117.225586
12
844.038757
22
2008.431519
32
-10117.225586
13
844.038757
23
2008.431519
33
-8418.882813
0
3DFACE
8
0
70
0
10
-8.641235
20
2159.048584
30
-10117.225586
11
-8.641235
21
2159.048584
31
-11740.084961
12
844.038757
22
2008.431519
32
-11740.084961
13
844.038757
23
2008.431519
33
-10117.225586
0
3DFACE
8
0
70
0
10
-8.641235
20
2159.048584
30
-11740.084961
11
-8.641235
21
2159.048584
31
-13312.623047
12
844.038757
22
2008.431519
32
-13312.623047
13
844.038757
23
2008.431519
33
-11740.084961
0
3DFACE
8
0
70
0
10
-8.641235
20
2159.048584
30
-13312.623047
11
-8.641235
21
2159.048584
31
-14860.000000
12
844.038757
22
2008.431519
32
-14860.000000
13
844.038757
23
2008.431519
33
-13312.623047
0
3DFACE
8
0
70
0
10
844.038757
20
2008.431519
30
-8418.882813
11
844.038757
21
2008.431519
31
-10117.225586
12
1550.545044
22
1556.580688
32
-10117.225586
13
1550.545044
23
1556.580688
33
-8418.882813
0
3DFACE
8
0
70
0
10
844.038757
20
2008.431519
30
-10117.225586
11
844.038757
21
2008.431519
31
-11740.084961
12
1550.545044
22
1556.580688
32
-11740.084961
13
1550.545044
23
1556.580688
33
-10117.225586
0
3DFACE
8
0
70
0
10
844.038757
20
2008.431519
30
-11740.084961
11
844.038757
21
2008.431519
31
-13312.623047
12
1550.545044
22
1556.580688
32
-13312.623047
13
1550.545044
23
1556.580688
33
-11740.084961
0
3DFACE
8
0
70
0
10
844.038757
20
2008.431519
30
-13312.623047
11
844.038757
21
2008.431519
31
-14860.000000
12
1550.545044
22
1556.580688
32
-14860.000000
13
1550.545044
23
1556.580688
33
-13312.623047
0
3DFACE
8
0
70
0
10
1550.545044
20
1556.580688
30
-8418.882813
11
1550.545044
21
1556.580688
31
-10117.225586
12
1989.066162
22
828.598816
32
-10117.225586
13
1989.066162
23
828.598816
33
-8418.882813
0
3DFACE
8
0
70
0
10
1550.545044
20
1556.580688
30
-10117.225586
11
1550.545044
21
1556.580688
31
-11740.084961
12
1989.066162
22
828.598816
32
-11740.084961
13
1989.066162
23
828.598816
33
-10117.225586
0
3DFACE
8
0
70
0
10
1550.545044
20
1556.580688
30
-11740.084961
11
1550.545044
21
1556.580688
31
-13312.623047
12
1989.066162
22
828.598816
32
-13312.623047
13
1989.066162
23
828.598816
33
-11740.084961
0
3DFACE
8
0
70
0
10
1550.545044
20
1556.580688
30
-13312.623047
11
1550.545044
21
1556.580688
31
-14860.000000
12
1989.066162
22
828.598816
32
-14860.000000
13
1989.066162
23
828.598816
33
-13312.623047
0
3DFACE
8
0
70
0
10
1989.066162
20
828.598816
30
-8418.882813
11
1989.066162
21
828.598816
31
-10117.225586
12
2135.239990
22
-50.000000
32
-10117.225586
13
2135.239990
23
-50.000000
33
-8418.882813
0
3DFACE
8
0
70
0
10
1989.066162
20
828.598816
30
-10117.225586
11
1989.066162
21
828.598816
31
-11740.084961
12
2135.239990
22
-50.000000
32
-11740.084961
13
2135.239990
23
-50.000000
33
-10117.225586
0
3DFACE
8
0
70
0
10
1989.066162
20
828.598816
30
-11740.084961
11
1989.066162
21
828.598816
31
-13312.623047
12
2135.239990
22
-50.000000
32
-13312.623047
13
2135.239990
23
-50.000000
33
-11740.084961
0
3DFACE
8
0
70
0
10
1989.066162
20
828.598816
30
-13312.623047
11
1989.066162
21
828.598816
31
-14860.000000
12
2135.239990
22
-50.000000
32
-14860.000000
13
2135.239990
23
-50.000000
33
-13312.623047
0
3DFACE
8
0
70
0
10
2135.239990
20
-50.000000
30
-8418.882813
11
2135.239990
21
-50.000000
31
-10117.225586
12
1989.066162
22
-928.598816
32
-10117.225586
13
1989.066162
23
-928.598816
33
-8418.882813
0
3DFACE
8
0
70
0
10
2135.239990
20
-50.000000
30
-10117.225586
11
2135.239990
21
-50.000000
31
-11740.084961
12
1989.066162
22
-928.598816
32
-11740.084961
13
1989.066162
23
-928.598816
33
-10117.225586
0
3DFACE
8
0
70
0
10
2135.239990
20
-50.000000
30
-11740.084961
11
2135.239990
21
-50.000000
31
-13312.623047
12
1989.066162
22
-928.598816
32
-13312.623047
13
1989.066162
23
-928.598816
33
-11740.084961
0
3DFACE
8
0
70
0
10
2135.239990
20
-50.000000
30
-13312.623047
11
2135.239990
21
-50.000000
31
-14860.000000
12
1989.066162
22
-928.598816
32
-14860.000000
13
1989.066162
23
-928.598816
33
-13312.623047
0
3DFACE
8
0
70
0
10
1989.066162
20
-928.598816
30
-8418.882813
11
1989.066162
21
-928.598816
31
-10117.225586
12
1550.545044
22
-1656.580688
32
-10117.225586
13
1550.545044
23
-1656.580688
33
-8418.882813
0
3DFACE
8
0
70
0
10
1989.066162
20
-928.598816
30
-10117.225586
11
1989.066162
21
-928.598816
31
-11740.084961
12
1550.545044
22
-1656.580688
32
-11740.084961
13
1550.545044
23
-1656.580688
33
-10117.225586
0
3DFACE
8
0
70
0
10
1989.066162
20
-928.598816
30
-11740.084961
11
1989.066162
21
-928.598816
31
-13312.623047
12
1550.545044
22
-1656.580688
32
-13312.623047
13
1550.545044
23
-1656.580688
33
-11740.084961
0
3DFACE
8
0
70
0
10
1989.066162
20
-928.598816
30
-13312.623047
11
1989.066162
21
-928.598816
31
-14860.000000
12
1550.545044
22
-1656.580688
32
-14860.000000
13
1550.545044
23
-1656.580688
33
-13312.623047
0
ENDSEC
0
EOF
