# Wavefront OBJ exported by MilkShape 3D

mtllib tunnel2.mtl

v -120.000000 -20.000000 -10.000000
v -120.000000 -20.000000 10.000000
v -131.051590 -13.964169 10.000000
v -131.051590 -13.964169 -10.000000
v -120.000000 -20.000000 30.000000
v -131.051590 -13.964169 30.000000
v -120.000000 -20.000000 50.000000
v -131.051590 -13.964169 50.000000
v -120.000000 -20.000000 -30.000000
v -131.051590 -13.964169 -30.000000
v -120.000000 -20.000000 -50.000000
v -131.051590 -13.964169 -50.000000
v -149.595245 -6.472038 10.000000
v -149.595245 -6.472038 -10.000000
v -149.595245 -6.472038 30.000000
v -149.595245 -6.472038 50.000000
v -149.595245 -6.472038 -30.000000
v -149.595245 -6.472038 -50.000000
v -168.138916 1.020088 10.000000
v -168.138916 1.020088 -10.000000
v -168.138916 1.020088 30.000000
v -168.138916 1.020088 50.000000
v -168.138916 1.020088 -30.000000
v -168.138916 1.020088 -50.000000
v -186.682556 8.512196 10.000000
v -186.682556 8.512196 -10.000000
v -186.682556 8.512196 30.000000
v -186.682556 8.512196 50.000000
v -186.682556 8.512196 -30.000000
v -186.682556 8.512196 -50.000000
v -205.226257 16.004345 10.000000
v -205.226257 16.004345 -10.000000
v -205.226257 16.004345 30.000000
v -205.226257 16.004345 50.000000
v -205.226257 16.004345 -30.000000
v -205.226257 16.004345 -50.000000
v -223.769974 23.496483 10.000000
v -223.769974 23.496483 -10.000000
v -223.769974 23.496483 30.000000
v -223.769974 23.496483 50.000000
v -223.769974 23.496483 -30.000000
v -223.769974 23.496483 -50.000000
v -242.313705 30.988647 10.000000
v -242.313705 30.988647 -10.000000
v -242.313705 30.988647 30.000000
v -242.313705 30.988647 50.000000
v -242.313705 30.988647 -30.000000
v -242.313705 30.988647 -50.000000
v -260.857300 38.480759 10.000000
v -260.857300 38.480759 -10.000000
v -260.857300 38.480759 30.000000
v -260.857300 38.480759 50.000000
v -260.857300 38.480759 -30.000000
v -260.857300 38.480759 -50.000000
v -279.401001 45.972900 10.000000
v -279.401001 45.972900 -10.000000
v -279.401001 45.972900 30.000000
v -279.401001 45.972900 50.000000
v -279.401001 45.972900 -30.000000
v -279.401001 45.972900 -50.000000
v -297.944641 53.465004 10.000000
v -297.944641 53.465004 -10.000000
v -297.944641 53.465004 30.000000
v -297.944641 53.465004 50.000000
v -297.944641 53.465004 -30.000000
v -297.944641 53.465004 -50.000000
v -316.488464 60.957199 10.000000
v -316.488464 60.957199 -10.000000
v -316.488464 60.957199 30.000000
v -316.488464 60.957199 50.000000
v -316.488464 60.957199 -30.000000
v -316.488464 60.957199 -50.000000
v -335.032074 68.449303 10.000000
v -335.032074 68.449303 -10.000000
v -335.032074 68.449303 30.000000
v -335.032074 68.449303 50.000000
v -335.032074 68.449303 -30.000000
v -335.032074 68.449303 -50.000000
v -353.575775 75.941429 10.000000
v -353.575775 75.941429 -10.000000
v -353.575775 75.941429 30.000000
v -353.575775 75.941429 50.000000
v -353.575775 75.941429 -30.000000
v -353.575775 75.941429 -50.000000
v -372.001343 83.399818 10.000000
v -372.001343 83.399818 -10.000000
v -372.001343 83.399818 30.000000
v -372.001343 83.399818 50.000000
v -372.001343 83.399818 -30.000000
v -372.001343 83.399818 -50.000000
v -120.000000 -40.000000 10.000000
v -120.000000 -40.000000 -10.000000
v -138.543671 -32.507877 -10.000000
v -138.543671 -32.507877 10.000000
v -120.000000 -40.000000 30.000000
v -138.543671 -32.507877 30.000000
v -120.000000 -40.000000 50.000000
v -138.543671 -32.507877 50.000000
v -120.000000 -40.000000 -30.000000
v -138.543671 -32.507877 -30.000000
v -120.000000 -40.000000 -50.000000
v -138.543671 -32.507877 -50.000000
v -157.087357 -25.015734 -10.000000
v -157.087357 -25.015734 10.000000
v -157.087357 -25.015734 30.000000
v -157.087357 -25.015734 50.000000
v -157.087357 -25.015734 -30.000000
v -157.087357 -25.015734 -50.000000
v -175.631042 -17.523602 -10.000000
v -175.631042 -17.523602 10.000000
v -175.631042 -17.523602 30.000000
v -175.631042 -17.523602 50.000000
v -175.631042 -17.523602 -30.000000
v -175.631042 -17.523602 -50.000000
v -194.174774 -10.031448 -10.000000
v -194.174774 -10.031448 10.000000
v -194.174774 -10.031448 30.000000
v -194.174774 -10.031448 50.000000
v -194.174774 -10.031448 -30.000000
v -194.174774 -10.031448 -50.000000
v -212.718445 -2.539326 -10.000000
v -212.718445 -2.539326 10.000000
v -212.718445 -2.539326 30.000000
v -212.718445 -2.539326 50.000000
v -212.718445 -2.539326 -30.000000
v -212.718445 -2.539326 -50.000000
v -231.262085 4.952808 -10.000000
v -231.262085 4.952808 10.000000
v -231.262085 4.952808 30.000000
v -231.262085 4.952808 50.000000
v -231.262085 4.952808 -30.000000
v -231.262085 4.952808 -50.000000
v -249.805832 12.444954 -10.000000
v -249.805832 12.444954 10.000000
v -249.805832 12.444954 30.000000
v -249.805832 12.444954 50.000000
v -249.805832 12.444954 -30.000000
v -249.805832 12.444954 -50.000000
v -268.349548 19.937096 -10.000000
v -268.349548 19.937096 10.000000
v -268.349548 19.937096 30.000000
v -268.349548 19.937096 50.000000
v -268.349548 19.937096 -30.000000
v -268.349548 19.937096 -50.000000
v -286.893188 27.429214 -10.000000
v -286.893188 27.429214 10.000000
v -286.893188 27.429214 30.000000
v -286.893188 27.429214 50.000000
v -286.893188 27.429214 -30.000000
v -286.893188 27.429214 -50.000000
v -305.436890 34.921333 -10.000000
v -305.436890 34.921333 10.000000
v -305.436890 34.921333 30.000000
v -305.436890 34.921333 50.000000
v -305.436890 34.921333 -30.000000
v -305.436890 34.921333 -50.000000
v -323.980530 42.413467 -10.000000
v -323.980530 42.413467 10.000000
v -323.980530 42.413467 30.000000
v -323.980530 42.413467 50.000000
v -323.980530 42.413467 -30.000000
v -323.980530 42.413467 -50.000000
v -342.524170 49.905609 -10.000000
v -342.524170 49.905609 10.000000
v -342.524170 49.905609 30.000000
v -342.524170 49.905609 50.000000
v -342.524170 49.905609 -30.000000
v -342.524170 49.905609 -50.000000
v -361.067993 57.397789 -10.000000
v -361.067993 57.397789 10.000000
v -361.067993 57.397789 30.000000
v -361.067993 57.397789 50.000000
v -361.067993 57.397789 -30.000000
v -361.067993 57.397789 -50.000000
v -372.000397 62.049671 -10.000000
v -372.000397 62.049671 10.000000
v -372.000397 62.049671 30.000000
v -372.000397 62.049671 50.000000
v -372.000397 62.049671 -30.000000
v -372.000397 62.049671 -50.000000
v -120.000000 -20.000000 50.000000
v -131.051590 -13.964169 50.000000
v -120.000000 -40.000000 50.000000
v -138.543671 -32.507877 50.000000
v -120.000000 -40.000000 -50.000000
v -138.543671 -32.507877 -50.000000
v -120.000000 -20.000000 -50.000000
v -131.051590 -13.964169 -50.000000
v -149.595245 -6.472038 50.000000
v -157.087357 -25.015734 50.000000
v -157.087357 -25.015734 -50.000000
v -149.595245 -6.472038 -50.000000
v -168.138916 1.020088 50.000000
v -175.631042 -17.523602 50.000000
v -175.631042 -17.523602 -50.000000
v -168.138916 1.020088 -50.000000
v -186.682556 8.512196 50.000000
v -194.174774 -10.031448 50.000000
v -194.174774 -10.031448 -50.000000
v -186.682556 8.512196 -50.000000
v -205.226257 16.004345 50.000000
v -212.718445 -2.539326 50.000000
v -212.718445 -2.539326 -50.000000
v -205.226257 16.004345 -50.000000
v -223.769974 23.496483 50.000000
v -231.262085 4.952808 50.000000
v -231.262085 4.952808 -50.000000
v -223.769974 23.496483 -50.000000
v -242.313705 30.988647 50.000000
v -249.805832 12.444954 50.000000
v -249.805832 12.444954 -50.000000
v -242.313705 30.988647 -50.000000
v -260.857300 38.480759 50.000000
v -268.349548 19.937096 50.000000
v -268.349548 19.937096 -50.000000
v -260.857300 38.480759 -50.000000
v -279.401001 45.972900 50.000000
v -286.893188 27.429214 50.000000
v -286.893188 27.429214 -50.000000
v -279.401001 45.972900 -50.000000
v -297.944641 53.465004 50.000000
v -305.436890 34.921333 50.000000
v -305.436890 34.921333 -50.000000
v -297.944641 53.465004 -50.000000
v -316.488464 60.957199 50.000000
v -323.980530 42.413467 50.000000
v -323.980530 42.413467 -50.000000
v -316.488464 60.957199 -50.000000
v -335.032074 68.449303 50.000000
v -342.524170 49.905609 50.000000
v -342.524170 49.905609 -50.000000
v -335.032074 68.449303 -50.000000
v -353.575775 75.941429 50.000000
v -361.067993 57.397789 50.000000
v -361.067993 57.397789 -50.000000
v -353.575775 75.941429 -50.000000
v -372.001343 83.399818 50.000000
v -372.000397 62.049671 50.000000
v -372.000397 62.049671 -50.000000
v -372.001343 83.399818 -50.000000
# 240 vertices

vt 1.000000 1.000000
vt 1.000000 0.000000
vt 0.000000 0.000000
vt 0.000000 1.000000
vt 1.000000 0.768172
vt 0.000000 0.287762
vt 0.404024 1.000000
vt 1.000000 0.712238
vt 0.712239 0.000000
vt 0.287762 1.000000
vt 0.593379 0.000000
vt 0.000051 0.178905
# 12 texture coordinates

vn -0.479323 -0.877639 0.000000
vn -0.427683 -0.903929 0.000000
vn -0.445082 -0.895490 0.000000
vn -0.410124 -0.912030 0.000000
vn -0.374607 -0.927184 0.000000
vn 0.374606 0.927184 0.000000
vn 0.383089 0.923711 0.000000
vn 0.385910 0.922536 0.000000
vn 0.380265 0.924878 0.000000
vn 0.391541 0.920161 0.000000
vn 0.000000 0.000000 -1.000000
vn 0.000000 0.000000 1.000000
# 12 normals

g tunnel2
usemtl misc3
s 3
f 1/1/1 2/2/1 3/3/2
f 4/4/2 1/1/1 3/3/2
f 2/1/1 5/2/1 6/3/2
f 3/4/2 2/1/1 6/3/2
f 5/1/1 7/2/1 8/3/3
f 6/4/2 5/1/1 8/3/3
f 9/1/1 1/2/1 4/3/2
f 10/4/2 9/1/1 4/3/2
f 11/1/1 9/2/1 10/3/2
f 12/4/4 11/1/1 10/3/2
f 4/1/2 3/2/2 13/3/5
f 14/4/5 4/1/2 13/3/5
f 3/1/2 6/2/2 15/3/5
f 13/4/5 3/1/2 15/3/5
f 6/1/2 8/2/3 16/3/5
f 15/4/5 6/1/2 16/3/5
f 10/1/2 4/2/2 14/3/5
f 17/4/5 10/1/2 14/3/5
f 12/1/4 10/2/2 17/3/5
f 18/4/5 12/1/4 17/3/5
f 14/1/5 13/2/5 19/3/5
f 20/4/5 14/1/5 19/3/5
f 13/1/5 15/2/5 21/3/5
f 19/4/5 13/1/5 21/3/5
f 15/1/5 16/2/5 22/3/5
f 21/4/5 15/1/5 22/3/5
f 17/1/5 14/2/5 20/3/5
f 23/4/5 17/1/5 20/3/5
f 18/1/5 17/2/5 23/3/5
f 24/4/5 18/1/5 23/3/5
f 20/1/5 19/2/5 25/3/5
f 26/4/5 20/1/5 25/3/5
f 19/1/5 21/2/5 27/3/5
f 25/4/5 19/1/5 27/3/5
f 21/1/5 22/2/5 28/3/5
f 27/4/5 21/1/5 28/3/5
f 23/1/5 20/2/5 26/3/5
f 29/4/5 23/1/5 26/3/5
f 24/1/5 23/2/5 29/3/5
f 30/4/5 24/1/5 29/3/5
f 26/1/5 25/2/5 31/3/5
f 32/4/5 26/1/5 31/3/5
f 25/1/5 27/2/5 33/3/5
f 31/4/5 25/1/5 33/3/5
f 27/1/5 28/2/5 34/3/5
f 33/4/5 27/1/5 34/3/5
f 29/1/5 26/2/5 32/3/5
f 35/4/5 29/1/5 32/3/5
f 30/1/5 29/2/5 35/3/5
f 36/4/5 30/1/5 35/3/5
f 32/1/5 31/2/5 37/3/5
f 38/4/5 32/1/5 37/3/5
f 31/1/5 33/2/5 39/3/5
f 37/4/5 31/1/5 39/3/5
f 33/1/5 34/2/5 40/3/5
f 39/4/5 33/1/5 40/3/5
f 35/1/5 32/2/5 38/3/5
f 41/4/5 35/1/5 38/3/5
f 36/1/5 35/2/5 41/3/5
f 42/4/5 36/1/5 41/3/5
f 38/1/5 37/2/5 43/3/5
f 44/4/5 38/1/5 43/3/5
f 37/1/5 39/2/5 45/3/5
f 43/4/5 37/1/5 45/3/5
f 39/1/5 40/2/5 46/3/5
f 45/4/5 39/1/5 46/3/5
f 41/1/5 38/2/5 44/3/5
f 47/4/5 41/1/5 44/3/5
f 42/1/5 41/2/5 47/3/5
f 48/4/5 42/1/5 47/3/5
f 44/1/5 43/2/5 49/3/5
f 50/4/5 44/1/5 49/3/5
f 43/1/5 45/2/5 51/3/5
f 49/4/5 43/1/5 51/3/5
f 45/1/5 46/2/5 52/3/5
f 51/4/5 45/1/5 52/3/5
f 47/1/5 44/2/5 50/3/5
f 53/4/5 47/1/5 50/3/5
f 48/1/5 47/2/5 53/3/5
f 54/4/5 48/1/5 53/3/5
f 50/1/5 49/2/5 55/3/5
f 56/4/5 50/1/5 55/3/5
f 49/1/5 51/2/5 57/3/5
f 55/4/5 49/1/5 57/3/5
f 51/1/5 52/2/5 58/3/5
f 57/4/5 51/1/5 58/3/5
f 53/1/5 50/2/5 56/3/5
f 59/4/5 53/1/5 56/3/5
f 54/1/5 53/2/5 59/3/5
f 60/4/5 54/1/5 59/3/5
f 56/1/5 55/2/5 61/3/5
f 62/4/5 56/1/5 61/3/5
f 55/1/5 57/2/5 63/3/5
f 61/4/5 55/1/5 63/3/5
f 57/1/5 58/2/5 64/3/5
f 63/4/5 57/1/5 64/3/5
f 59/1/5 56/2/5 62/3/5
f 65/4/5 59/1/5 62/3/5
f 60/1/5 59/2/5 65/3/5
f 66/4/5 60/1/5 65/3/5
f 62/1/5 61/2/5 67/3/5
f 68/4/5 62/1/5 67/3/5
f 61/1/5 63/2/5 69/3/5
f 67/4/5 61/1/5 69/3/5
f 63/1/5 64/2/5 70/3/5
f 69/4/5 63/1/5 70/3/5
f 65/1/5 62/2/5 68/3/5
f 71/4/5 65/1/5 68/3/5
f 66/1/5 65/2/5 71/3/5
f 72/4/5 66/1/5 71/3/5
f 68/1/5 67/2/5 73/3/5
f 74/4/5 68/1/5 73/3/5
f 67/1/5 69/2/5 75/3/5
f 73/4/5 67/1/5 75/3/5
f 69/1/5 70/2/5 76/3/5
f 75/4/5 69/1/5 76/3/5
f 71/1/5 68/2/5 74/3/5
f 77/4/5 71/1/5 74/3/5
f 72/1/5 71/2/5 77/3/5
f 78/4/5 72/1/5 77/3/5
f 74/1/5 73/2/5 79/3/5
f 80/4/5 74/1/5 79/3/5
f 73/1/5 75/2/5 81/3/5
f 79/4/5 73/1/5 81/3/5
f 75/1/5 76/2/5 82/3/5
f 81/4/5 75/1/5 82/3/5
f 77/1/5 74/2/5 80/3/5
f 83/4/5 77/1/5 80/3/5
f 78/1/5 77/2/5 83/3/5
f 84/4/5 78/1/5 83/3/5
f 80/1/5 79/2/5 85/3/5
f 86/4/5 80/1/5 85/3/5
f 79/1/5 81/2/5 87/3/5
f 85/4/5 79/1/5 87/3/5
f 81/1/5 82/2/5 88/3/5
f 87/4/5 81/1/5 88/3/5
f 83/1/5 80/2/5 86/3/5
f 89/4/5 83/1/5 86/3/5
f 84/1/5 83/2/5 89/3/5
f 90/4/5 84/1/5 89/3/5
# 140 triangles in group

g tunnel2_floor
usemtl floor3
f 91/1/6 92/2/6 93/3/6
f 94/4/6 91/1/6 93/3/6
f 95/1/6 91/2/6 94/3/6
f 96/4/6 95/1/6 94/3/6
f 97/1/6 95/2/6 96/3/6
f 98/4/6 97/1/6 96/3/6
f 92/1/6 99/2/6 100/3/6
f 93/4/6 92/1/6 100/3/6
f 99/1/6 101/2/6 102/3/6
f 100/4/6 99/1/6 102/3/6
f 94/1/6 93/2/6 103/3/6
f 104/4/6 94/1/6 103/3/6
f 96/1/6 94/2/6 104/3/6
f 105/4/6 96/1/6 104/3/6
f 98/1/6 96/2/6 105/3/6
f 106/4/6 98/1/6 105/3/6
f 93/1/6 100/2/6 107/3/6
f 103/4/6 93/1/6 107/3/6
f 100/1/6 102/2/6 108/3/6
f 107/4/6 100/1/6 108/3/6
f 104/1/6 103/2/6 109/3/6
f 110/4/6 104/1/6 109/3/6
f 105/1/6 104/2/6 110/3/6
f 111/4/6 105/1/6 110/3/6
f 106/1/6 105/2/6 111/3/6
f 112/4/6 106/1/6 111/3/6
f 103/1/6 107/2/6 113/3/6
f 109/4/6 103/1/6 113/3/6
f 107/1/6 108/2/6 114/3/6
f 113/4/6 107/1/6 114/3/6
f 110/1/6 109/2/6 115/3/6
f 116/4/6 110/1/6 115/3/6
f 111/1/6 110/2/6 116/3/6
f 117/4/6 111/1/6 116/3/6
f 112/1/6 111/2/6 117/3/6
f 118/4/6 112/1/6 117/3/6
f 109/1/6 113/2/6 119/3/6
f 115/4/6 109/1/6 119/3/6
f 113/1/6 114/2/6 120/3/6
f 119/4/6 113/1/6 120/3/6
f 116/1/6 115/2/6 121/3/6
f 122/4/6 116/1/6 121/3/6
f 117/1/6 116/2/6 122/3/6
f 123/4/6 117/1/6 122/3/6
f 118/1/6 117/2/6 123/3/6
f 124/4/6 118/1/6 123/3/6
f 115/1/6 119/2/6 125/3/6
f 121/4/6 115/1/6 125/3/6
f 119/1/6 120/2/6 126/3/6
f 125/4/6 119/1/6 126/3/6
f 122/1/6 121/2/6 127/3/6
f 128/4/6 122/1/6 127/3/6
f 123/1/6 122/2/6 128/3/6
f 129/4/6 123/1/6 128/3/6
f 124/1/6 123/2/6 129/3/6
f 130/4/6 124/1/6 129/3/6
f 121/1/6 125/2/6 131/3/6
f 127/4/6 121/1/6 131/3/6
f 125/1/6 126/2/6 132/3/6
f 131/4/6 125/1/6 132/3/6
f 128/1/6 127/2/6 133/3/6
f 134/4/6 128/1/6 133/3/6
f 129/1/6 128/2/6 134/3/6
f 135/4/6 129/1/6 134/3/6
f 130/1/6 129/2/6 135/3/6
f 136/4/6 130/1/6 135/3/6
f 127/1/6 131/2/6 137/3/6
f 133/4/6 127/1/6 137/3/6
f 131/1/6 132/2/6 138/3/6
f 137/4/6 131/1/6 138/3/6
f 134/1/6 133/2/6 139/3/6
f 140/4/6 134/1/6 139/3/6
f 135/1/6 134/2/6 140/3/6
f 141/4/6 135/1/6 140/3/6
f 136/1/6 135/2/6 141/3/6
f 142/4/6 136/1/6 141/3/6
f 133/1/6 137/2/6 143/3/6
f 139/4/6 133/1/6 143/3/6
f 137/1/6 138/2/6 144/3/6
f 143/4/6 137/1/6 144/3/6
f 140/1/6 139/2/6 145/3/6
f 146/4/6 140/1/6 145/3/6
f 141/1/6 140/2/6 146/3/6
f 147/4/6 141/1/6 146/3/6
f 142/1/6 141/2/6 147/3/6
f 148/4/6 142/1/6 147/3/6
f 139/1/6 143/2/6 149/3/6
f 145/4/6 139/1/6 149/3/6
f 143/1/6 144/2/6 150/3/6
f 149/4/6 143/1/6 150/3/6
f 146/1/6 145/2/6 151/3/6
f 152/4/6 146/1/6 151/3/6
f 147/1/6 146/2/6 152/3/6
f 153/4/6 147/1/6 152/3/6
f 148/1/6 147/2/6 153/3/6
f 154/4/6 148/1/6 153/3/6
f 145/1/6 149/2/6 155/3/6
f 151/4/6 145/1/6 155/3/6
f 149/1/6 150/2/6 156/3/6
f 155/4/6 149/1/6 156/3/6
f 152/1/6 151/2/6 157/3/6
f 158/4/6 152/1/6 157/3/6
f 153/1/6 152/2/6 158/3/6
f 159/4/6 153/1/6 158/3/6
f 154/1/6 153/2/6 159/3/6
f 160/4/6 154/1/6 159/3/6
f 151/1/6 155/2/6 161/3/6
f 157/4/6 151/1/6 161/3/6
f 155/1/6 156/2/6 162/3/6
f 161/4/6 155/1/6 162/3/6
f 158/1/6 157/2/6 163/3/6
f 164/4/6 158/1/6 163/3/6
f 159/1/6 158/2/6 164/3/6
f 165/4/6 159/1/6 164/3/6
f 160/1/6 159/2/6 165/3/6
f 166/4/6 160/1/6 165/3/6
f 157/1/6 161/2/6 167/3/6
f 163/4/6 157/1/6 167/3/6
f 161/1/6 162/2/6 168/3/6
f 167/4/6 161/1/6 168/3/6
f 164/1/6 163/2/6 169/3/7
f 170/4/7 164/1/6 169/3/7
f 165/1/6 164/2/6 170/3/7
f 171/4/7 165/1/6 170/3/7
f 166/1/6 165/2/6 171/3/7
f 172/4/8 166/1/6 171/3/7
f 163/1/6 167/2/6 173/3/7
f 169/4/7 163/1/6 173/3/7
f 167/1/6 168/2/6 174/3/9
f 173/4/7 167/1/6 174/3/9
f 170/1/7 169/2/7 175/3/10
f 176/4/10 170/1/7 175/3/10
f 171/1/7 170/2/7 176/3/10
f 177/4/10 171/1/7 176/3/10
f 172/1/8 171/2/7 177/3/10
f 178/4/10 172/1/8 177/3/10
f 169/1/7 173/2/7 179/3/10
f 175/4/10 169/1/7 179/3/10
f 173/1/7 174/2/9 180/3/10
f 179/4/10 173/1/7 180/3/10
# 140 triangles in group

g tunnel2_wall
usemtl wall2
f 181/5/11 183/2/11 184/6/11
f 182/7/11 181/5/11 184/6/11
f 185/2/12 187/5/12 188/7/12
f 186/6/12 185/2/12 188/7/12
f 182/8/11 184/9/11 190/6/11
f 189/10/11 182/8/11 190/6/11
f 186/9/12 188/8/12 192/10/12
f 191/6/12 186/9/12 192/10/12
f 189/8/11 190/9/11 194/6/11
f 193/10/11 189/8/11 194/6/11
f 191/9/12 192/8/12 196/10/12
f 195/6/12 191/9/12 196/10/12
f 193/8/11 194/9/11 198/6/11
f 197/10/11 193/8/11 198/6/11
f 195/9/12 196/8/12 200/10/12
f 199/6/12 195/9/12 200/10/12
f 197/8/11 198/9/11 202/6/11
f 201/10/11 197/8/11 202/6/11
f 199/9/12 200/8/12 204/10/12
f 203/6/12 199/9/12 204/10/12
f 201/8/11 202/9/11 206/6/11
f 205/10/11 201/8/11 206/6/11
f 203/9/12 204/8/12 208/10/12
f 207/6/12 203/9/12 208/10/12
f 205/8/11 206/9/11 210/6/11
f 209/10/11 205/8/11 210/6/11
f 207/9/12 208/8/12 212/10/12
f 211/6/12 207/9/12 212/10/12
f 209/8/11 210/9/11 214/6/11
f 213/10/11 209/8/11 214/6/11
f 211/9/12 212/8/12 216/10/12
f 215/6/12 211/9/12 216/10/12
f 213/8/11 214/9/11 218/6/11
f 217/10/11 213/8/11 218/6/11
f 215/9/12 216/8/12 220/10/12
f 219/6/12 215/9/12 220/10/12
f 217/8/11 218/9/11 222/6/11
f 221/10/11 217/8/11 222/6/11
f 219/9/12 220/8/12 224/10/12
f 223/6/12 219/9/12 224/10/12
f 221/8/11 222/9/11 226/6/11
f 225/10/11 221/8/11 226/6/11
f 223/9/12 224/8/12 228/10/12
f 227/6/12 223/9/12 228/10/12
f 225/8/11 226/9/11 230/6/11
f 229/10/11 225/8/11 230/6/11
f 227/9/12 228/8/12 232/10/12
f 231/6/12 227/9/12 232/10/12
f 229/8/11 230/9/11 234/6/11
f 233/10/11 229/8/11 234/6/11
f 231/9/12 232/8/12 236/10/12
f 235/6/12 231/9/12 236/10/12
f 233/8/11 234/11/11 238/12/11
f 237/4/11 233/8/11 238/12/11
f 235/11/12 236/8/12 240/4/12
f 239/12/12 235/11/12 240/4/12
# 56 triangles in group

# 336 triangles total

