# Wavefront OBJ exported by MilkShape 3D

v 4.711108 -0.000536 -0.002040
v 4.711108 -0.000536 -3.002040
v 3.138843 -0.000536 -3.002040
v 3.138843 -0.000536 -0.002040
v 3.138843 -0.000536 -0.002040
v 3.138843 -0.000536 -3.002040
v 3.138843 10.021131 -3.002040
v 3.138843 10.021131 -0.002040
v 3.138843 10.021131 -0.002040
v 3.138843 10.021131 -3.002040
v 2.571064 9.479444 -0.002040
v 2.571064 9.479444 -3.002040
v 0.728107 8.396070 -0.002040
v 0.728107 8.396070 -3.002040
v -0.005688 8.125227 -0.002040
v -0.005688 8.125227 -3.002040
v -0.005688 8.125227 -0.002040
v -0.005688 8.125227 -3.002040
v -0.005688 9.645459 -3.002040
v -0.005688 9.645459 -0.002040
v -0.005688 9.645459 -0.002040
v -0.005688 9.645459 -3.002040
v 1.313282 10.265882 -0.002040
v 1.313282 10.265882 -3.002040
v 3.287311 12.030715 -0.002040
v 3.287311 12.030715 -3.002040
v 3.697924 12.860793 -0.002040
v 3.697924 12.860793 -3.002040
v 3.697924 12.860793 -0.002040
v 3.697924 12.860793 -3.002040
v 4.711108 12.860793 -3.002040
v 4.711108 12.860793 -0.002040
v 4.711108 12.860793 -0.002040
v 4.711108 12.860793 -3.002040
v 4.711108 -0.000536 -3.002040
v 4.711108 -0.000536 -0.002040
v 3.138843 -0.000536 -0.002040
v 4.711108 -0.000536 -0.002040
v 3.138843 10.021131 -0.002040
v 3.287311 12.030715 -0.002040
v 2.571064 9.479444 -0.002040
v 1.313282 10.265882 -0.002040
v 0.728107 8.396070 -0.002040
v -0.005688 9.645459 -0.002040
v -0.005688 8.125227 -0.002040
v 3.697924 12.860793 -0.002040
v 3.287311 12.030715 -0.002040
v 4.711108 -0.000536 -0.002040
v 4.711108 12.860793 -0.002040
# 49 vertices

vt 0.000000 1.000000
# 1 texture coordinates

vn 0.000000 -1.000000 0.000000
vn -1.000000 0.000000 0.000000
vn 0.690286 -0.723536 0.000000
vn 0.632843 -0.774280 0.000000
vn 0.571308 -0.820735 0.000000
vn 0.454866 -0.890560 0.000000
vn 0.401176 -0.916001 0.000000
vn 0.346266 -0.938136 0.000000
vn -0.425646 0.904890 0.000000
vn -0.510686 0.859767 0.000000
vn -0.591725 0.806140 0.000000
vn -0.755302 0.655377 0.000000
vn -0.833169 0.553019 0.000000
vn -0.896331 0.443386 0.000000
vn 0.000000 1.000000 0.000000
vn 1.000000 0.000000 0.000000
vn 0.000000 0.000000 1.000000
# 17 normals

g Text
s 1
f 1/1/1 3/1/1 2/1/1
f 1/1/1 4/1/1 3/1/1
f 5/1/2 7/1/2 6/1/2
f 5/1/2 8/1/2 7/1/2
f 9/1/3 12/1/4 10/1/3
f 9/1/3 11/1/5 12/1/4
f 11/1/5 14/1/6 12/1/4
f 11/1/5 13/1/7 14/1/6
f 13/1/7 16/1/8 14/1/6
f 13/1/7 15/1/8 16/1/8
f 17/1/2 19/1/2 18/1/2
f 17/1/2 20/1/2 19/1/2
f 21/1/9 24/1/10 22/1/9
f 21/1/9 23/1/11 24/1/10
f 23/1/11 26/1/12 24/1/10
f 23/1/11 25/1/13 26/1/12
f 25/1/13 28/1/14 26/1/12
f 25/1/13 27/1/14 28/1/14
f 29/1/15 31/1/15 30/1/15
f 29/1/15 32/1/15 31/1/15
f 33/1/16 35/1/16 34/1/16
f 33/1/16 36/1/16 35/1/16
f 37/1/17 38/1/17 39/1/17
f 39/1/17 38/1/17 40/1/17
f 39/1/17 40/1/17 41/1/17
f 41/1/17 40/1/17 42/1/17
f 41/1/17 42/1/17 43/1/17
f 43/1/17 42/1/17 44/1/17
f 43/1/17 44/1/17 45/1/17
f 46/1/17 47/1/17 48/1/17
f 46/1/17 48/1/17 49/1/17
# 31 triangles in group

# 31 triangles total

