# Wavefront OBJ exported by MilkShape 3D

v 0.017915 3.606145 0.001168
v 0.017915 3.606145 -2.998832
v 1.590181 3.811223 -2.998832
v 1.590181 3.811223 0.001168
v 1.590181 3.811223 0.001168
v 1.590181 3.811223 -2.998832
v 1.861024 2.472722 0.001168
v 1.861024 2.472722 -2.998832
v 3.158021 1.291692 0.001168
v 3.158021 1.291692 -2.998832
v 5.212465 1.291692 0.001168
v 5.212465 1.291692 -2.998832
v 6.736666 2.829778 0.001168
v 6.736666 2.829778 -2.998832
v 6.736666 5.049626 0.001168
v 6.736666 5.049626 -2.998832
v 5.321108 6.456792 0.001168
v 5.321108 6.456792 -2.998832
v 3.783327 6.456792 0.001168
v 3.783327 6.456792 -2.998832
v 3.119264 6.281926 0.001168
v 3.119264 6.281926 -2.998832
v 3.119264 6.281926 0.001168
v 3.119264 6.281926 -2.998832
v 3.293977 7.658879 -2.998832
v 3.293977 7.658879 0.001168
v 3.293977 7.658879 0.001168
v 3.293977 7.658879 -2.998832
v 3.451295 7.641332 0.001168
v 3.451295 7.641332 -2.998832
v 4.552523 7.641332 0.001168
v 4.552523 7.641332 -2.998832
v 6.160494 8.689153 0.001168
v 6.160494 8.689153 -2.998832
v 6.160494 10.644872 0.001168
v 6.160494 10.644872 -2.998832
v 4.989229 11.779973 0.001168
v 4.989229 11.779973 -2.998832
v 3.144899 11.779973 0.001168
v 3.144899 11.779973 -2.998832
v 1.921297 10.622746 0.001168
v 1.921297 10.622746 -2.998832
v 1.746431 9.465520 0.001168
v 1.746431 9.465520 -2.998832
v 1.746431 9.465520 0.001168
v 1.746431 9.465520 -2.998832
v 0.174165 9.748723 -2.998832
v 0.174165 9.748723 0.001168
v 0.174165 9.748723 0.001168
v 0.174165 9.748723 -2.998832
v 0.462709 11.330297 0.001168
v 0.462709 11.330297 -2.998832
v 2.508913 13.069036 0.001168
v 2.508913 13.069036 -2.998832
v 5.079714 13.069036 0.001168
v 5.079714 13.069036 -2.998832
v 6.845919 12.170293 0.001168
v 6.845919 12.170293 -2.998832
v 7.781586 10.617253 0.001168
v 7.781586 10.617253 -2.998832
v 7.781586 8.915898 0.001168
v 7.781586 8.915898 -2.998832
v 6.890017 7.554662 0.001168
v 6.890017 7.554662 -2.998832
v 6.015993 7.153356 0.001168
v 6.015993 7.153356 -2.998832
v 6.015993 7.153356 0.001168
v 6.015993 7.153356 -2.998832
v 7.152315 6.891362 0.001168
v 7.152315 6.891362 -2.998832
v 8.406584 5.240972 0.001168
v 8.406584 5.240972 -2.998832
v 8.406584 2.324407 0.001168
v 8.406584 2.324407 -2.998832
v 5.959841 -0.007136 0.001168
v 5.959841 -0.007136 -2.998832
v 2.403474 -0.007136 0.001168
v 2.403474 -0.007136 -2.998832
v 0.175233 2.005040 0.001168
v 0.175233 2.005040 -2.998832
v 0.017915 3.606145 0.001168
v 0.017915 3.606145 -2.998832
v 7.781586 8.915898 0.001168
v 7.781586 10.617253 0.001168
v 6.890017 7.554662 0.001168
v 6.845919 12.170293 0.001168
v 6.160494 10.644872 0.001168
v 5.079714 13.069036 0.001168
v 4.989229 11.779973 0.001168
v 3.144899 11.779973 0.001168
v 0.174165 9.748723 0.001168
v 1.746431 9.465520 0.001168
v 0.462709 11.330297 0.001168
v 1.921297 10.622746 0.001168
v 2.508913 13.069036 0.001168
v 3.144899 11.779973 0.001168
v 5.079714 13.069036 0.001168
v 6.160494 8.689153 0.001168
v 4.552523 7.641332 0.001168
v 5.321108 6.456792 0.001168
v 6.015993 7.153356 0.001168
v 6.890017 7.554662 0.001168
v 6.160494 10.644872 0.001168
v 3.783327 6.456792 0.001168
v 5.321108 6.456792 0.001168
v 4.552523 7.641332 0.001168
v 3.451295 7.641332 0.001168
v 3.293977 7.658879 0.001168
v 3.119264 6.281926 0.001168
v 5.212465 1.291692 0.001168
v 5.959841 -0.007136 0.001168
v 6.736666 2.829778 0.001168
v 8.406584 2.324407 0.001168
v 6.736666 5.049626 0.001168
v 7.152315 6.891362 0.001168
v 6.015993 7.153356 0.001168
v 1.590181 3.811223 0.001168
v 0.175233 2.005040 0.001168
v 1.861024 2.472722 0.001168
v 2.403474 -0.007136 0.001168
v 3.158021 1.291692 0.001168
v 5.959841 -0.007136 0.001168
v 5.212465 1.291692 0.001168
v 0.175233 2.005040 0.001168
v 1.590181 3.811223 0.001168
v 0.017915 3.606145 0.001168
v 7.152315 6.891362 0.001168
v 8.406584 2.324407 0.001168
v 8.406584 5.240972 0.001168
v 6.736666 5.049626 0.001168
v 6.015993 7.153356 0.001168
v 5.321108 6.456792 0.001168
# 132 vertices

vt 0.000000 1.000000
# 1 texture coordinates

vn -0.129339 0.991600 0.000000
vn 0.980136 0.198329 0.000000
vn 0.918211 0.396093 0.000000
vn 0.811222 0.584738 0.000000
vn 0.477348 0.878714 0.000000
vn 0.238674 0.971100 0.000000
vn -0.254077 0.967184 0.000000
vn -0.508154 0.861266 0.000000
vn -0.864437 0.502742 0.000000
vn -0.967891 0.251371 0.000000
vn -0.967306 -0.253611 0.000000
vn -0.861815 -0.507223 0.000000
vn -0.503674 -0.863894 0.000000
vn -0.251837 -0.967770 0.000000
vn 0.085511 -0.996337 0.000000
vn 0.171022 -0.985267 0.000000
vn 0.254646 -0.967034 0.000000
vn -0.992046 0.125875 0.000000
vn 0.110855 0.993837 0.000000
vn 0.074005 0.997258 0.000000
vn 0.037002 0.999315 0.000000
vn -0.188921 0.981992 0.000000
vn -0.377842 0.925870 0.000000
vn -0.780486 0.625173 0.000000
vn -0.949889 0.312586 0.000000
vn -0.966307 -0.257392 0.000000
vn -0.857320 -0.514783 0.000000
vn -0.496071 -0.868282 0.000000
vn -0.248035 -0.968751 0.000000
vn 0.244373 -0.969681 0.000000
vn 0.488747 -0.872426 0.000000
vn 0.827638 -0.561263 0.000000
vn 0.933289 -0.359127 0.000000
vn 0.988775 -0.149411 0.000000
vn -0.177271 -0.984162 0.000000
vn -0.983762 0.179478 0.000000
vn -0.919113 0.393995 0.000000
vn -0.800938 0.598747 0.000000
vn -0.456503 0.889722 0.000000
vn -0.228252 0.973602 0.000000
vn 0.154963 0.987920 0.000000
vn 0.309927 0.950760 0.000000
vn 0.608729 0.793378 0.000000
vn 0.747844 0.663874 0.000000
vn 0.934655 0.355556 0.000000
vn 0.984071 0.177778 0.000000
vn 0.981851 -0.189655 0.000000
vn 0.925270 -0.379310 0.000000
vn 0.721755 -0.692149 0.000000
vn 0.576988 -0.816752 0.000000
vn 0.417266 -0.908784 0.000000
vn 0.224668 0.974435 0.000000
vn 0.438332 0.898813 0.000000
vn 0.639461 0.768824 0.000000
vn 0.906131 0.422998 0.000000
vn 0.977378 0.211499 0.000000
vn 0.965638 -0.259890 0.000000
vn 0.854300 -0.519781 0.000000
vn 0.491013 -0.871152 0.000000
vn 0.245506 -0.969395 0.000000
vn -0.237419 -0.971407 0.000000
vn -0.474838 -0.880073 0.000000
vn -0.827929 -0.560833 0.000000
vn -0.943135 -0.332410 0.000000
vn -0.995208 -0.097785 0.000000
vn 0.000000 0.000000 1.000000
# 66 normals

g Text
s 1
f 1/1/1 3/1/1 2/1/1
f 1/1/1 4/1/1 3/1/1
f 5/1/2 8/1/3 6/1/2
f 5/1/2 7/1/4 8/1/3
f 7/1/4 10/1/5 8/1/3
f 7/1/4 9/1/6 10/1/5
f 9/1/6 12/1/7 10/1/5
f 9/1/6 11/1/8 12/1/7
f 11/1/8 14/1/9 12/1/7
f 11/1/8 13/1/10 14/1/9
f 13/1/10 16/1/11 14/1/9
f 13/1/10 15/1/12 16/1/11
f 15/1/12 18/1/13 16/1/11
f 15/1/12 17/1/14 18/1/13
f 17/1/14 20/1/15 18/1/13
f 17/1/14 19/1/16 20/1/15
f 19/1/16 22/1/17 20/1/15
f 19/1/16 21/1/17 22/1/17
f 23/1/18 25/1/18 24/1/18
f 23/1/18 26/1/18 25/1/18
f 27/1/19 30/1/20 28/1/19
f 27/1/19 29/1/21 30/1/20
f 29/1/21 32/1/22 30/1/20
f 29/1/21 31/1/23 32/1/22
f 31/1/23 34/1/24 32/1/22
f 31/1/23 33/1/25 34/1/24
f 33/1/25 36/1/26 34/1/24
f 33/1/25 35/1/27 36/1/26
f 35/1/27 38/1/28 36/1/26
f 35/1/27 37/1/29 38/1/28
f 37/1/29 40/1/30 38/1/28
f 37/1/29 39/1/31 40/1/30
f 39/1/31 42/1/32 40/1/30
f 39/1/31 41/1/33 42/1/32
f 41/1/33 44/1/34 42/1/32
f 41/1/33 43/1/34 44/1/34
f 45/1/35 47/1/35 46/1/35
f 45/1/35 48/1/35 47/1/35
f 49/1/36 52/1/37 50/1/36
f 49/1/36 51/1/38 52/1/37
f 51/1/38 54/1/39 52/1/37
f 51/1/38 53/1/40 54/1/39
f 53/1/40 56/1/41 54/1/39
f 53/1/40 55/1/42 56/1/41
f 55/1/42 58/1/43 56/1/41
f 55/1/42 57/1/44 58/1/43
f 57/1/44 60/1/45 58/1/43
f 57/1/44 59/1/46 60/1/45
f 59/1/46 62/1/47 60/1/45
f 59/1/46 61/1/48 62/1/47
f 61/1/48 64/1/49 62/1/47
f 61/1/48 63/1/50 64/1/49
f 63/1/50 66/1/51 64/1/49
f 63/1/50 65/1/51 66/1/51
f 67/1/52 70/1/53 68/1/52
f 67/1/52 69/1/54 70/1/53
f 69/1/54 72/1/55 70/1/53
f 69/1/54 71/1/56 72/1/55
f 71/1/56 74/1/57 72/1/55
f 71/1/56 73/1/58 74/1/57
f 73/1/58 76/1/59 74/1/57
f 73/1/58 75/1/60 76/1/59
f 75/1/60 78/1/61 76/1/59
f 75/1/60 77/1/62 78/1/61
f 77/1/62 80/1/63 78/1/61
f 77/1/62 79/1/64 80/1/63
f 79/1/64 82/1/65 80/1/63
f 79/1/64 81/1/65 82/1/65
f 83/1/66 84/1/66 85/1/66
f 85/1/66 84/1/66 86/1/66
f 85/1/66 86/1/66 87/1/66
f 87/1/66 86/1/66 88/1/66
f 87/1/66 88/1/66 89/1/66
f 89/1/66 88/1/66 90/1/66
f 91/1/66 92/1/66 93/1/66
f 93/1/66 92/1/66 94/1/66
f 93/1/66 94/1/66 95/1/66
f 95/1/66 94/1/66 96/1/66
f 95/1/66 96/1/66 97/1/66
f 98/1/66 99/1/66 100/1/66
f 98/1/66 100/1/66 101/1/66
f 98/1/66 101/1/66 102/1/66
f 98/1/66 102/1/66 103/1/66
f 104/1/66 105/1/66 106/1/66
f 104/1/66 106/1/66 107/1/66
f 104/1/66 107/1/66 108/1/66
f 104/1/66 108/1/66 109/1/66
f 110/1/66 111/1/66 112/1/66
f 112/1/66 111/1/66 113/1/66
f 112/1/66 113/1/66 114/1/66
f 114/1/66 113/1/66 115/1/66
f 114/1/66 115/1/66 116/1/66
f 117/1/66 118/1/66 119/1/66
f 119/1/66 118/1/66 120/1/66
f 119/1/66 120/1/66 121/1/66
f 121/1/66 120/1/66 122/1/66
f 121/1/66 122/1/66 123/1/66
f 124/1/66 125/1/66 126/1/66
f 127/1/66 128/1/66 129/1/66
f 130/1/66 131/1/66 132/1/66
# 100 triangles in group

# 100 triangles total

