# Wavefront OBJ exported by MilkShape 3D

v 5.579834 -0.007784 -0.008561
v 5.579834 -0.007784 -3.008561
v 5.579834 3.058623 -3.008561
v 5.579834 3.058623 -0.008561
v 5.579834 3.058623 -0.008561
v 5.579834 3.058623 -3.008561
v 0.023193 3.058623 -3.008561
v 0.023193 3.058623 -0.008561
v 0.023193 3.058623 -0.008561
v 0.023193 3.058623 -3.008561
v 0.023193 4.503935 -3.008561
v 0.023193 4.503935 -0.008561
v 0.023193 4.503935 -0.008561
v 0.023193 4.503935 -3.008561
v 5.863037 12.804716 -3.008561
v 5.863037 12.804716 -0.008561
v 5.863037 12.804716 -0.008561
v 5.863037 12.804716 -3.008561
v 7.152099 12.804716 -3.008561
v 7.152099 12.804716 -0.008561
v 7.152099 12.804716 -0.008561
v 7.152099 12.804716 -3.008561
v 7.152099 4.503935 -3.008561
v 7.152099 4.503935 -0.008561
v 7.152099 4.503935 -0.008561
v 7.152099 4.503935 -3.008561
v 8.880611 4.503935 -3.008561
v 8.880611 4.503935 -0.008561
v 8.880611 4.503935 -0.008561
v 8.880611 4.503935 -3.008561
v 8.880611 3.058623 -3.008561
v 8.880611 3.058623 -0.008561
v 8.880611 3.058623 -0.008561
v 8.880611 3.058623 -3.008561
v 7.152099 3.058623 -3.008561
v 7.152099 3.058623 -0.008561
v 7.152099 3.058623 -0.008561
v 7.152099 3.058623 -3.008561
v 7.152099 -0.007784 -3.008561
v 7.152099 -0.007784 -0.008561
v 7.152099 -0.007784 -0.008561
v 7.152099 -0.007784 -3.008561
v 5.579834 -0.007784 -3.008561
v 5.579834 -0.007784 -0.008561
v 5.579834 4.503935 -0.008561
v 5.579834 4.503935 -3.008561
v 5.579834 10.288849 -3.008561
v 5.579834 10.288849 -0.008561
v 5.579834 10.288849 -0.008561
v 5.579834 10.288849 -3.008561
v 1.569824 4.503935 -3.008561
v 1.569824 4.503935 -0.008561
v 1.569824 4.503935 -0.008561
v 1.569824 4.503935 -3.008561
v 5.579834 4.503935 -3.008561
v 5.579834 4.503935 -0.008561
v 0.023193 3.058623 -0.008561
v 5.579834 3.058623 -0.008561
v 0.023193 4.503935 -0.008561
v 1.569824 4.503935 -0.008561
v 5.863037 12.804716 -0.008561
v 5.579834 10.288849 -0.008561
v 7.152099 -0.007784 -0.008561
v 5.579834 4.503935 -0.008561
v 5.579834 3.058623 -0.008561
v 1.569824 4.503935 -0.008561
v 5.863037 12.804716 -0.008561
v 7.152099 -0.007784 -0.008561
v 7.152099 12.804716 -0.008561
v 7.152099 3.058623 -0.008561
v 7.152099 4.503935 -0.008561
v 8.880611 3.058623 -0.008561
v 8.880611 4.503935 -0.008561
v 7.152099 -0.007784 -0.008561
v 5.579834 3.058623 -0.008561
v 5.579834 -0.007784 -0.008561
v 7.152099 -0.007784 -3.008561
v 7.152099 12.804716 -3.008561
v 7.152099 3.058623 -3.008561
v 7.152099 4.503935 -3.008561
# 80 vertices

vt 0.000000 1.000000
# 1 texture coordinates

vn -1.000000 0.000000 0.000000
vn 0.000000 -1.000000 0.000000
vn -0.817873 0.575398 0.000000
vn 0.000000 1.000000 0.000000
vn 1.000000 0.000000 0.000000
vn 0.821855 -0.569697 0.000000
vn 0.000000 0.000000 1.000000
vn 0.000000 0.000000 0.000000
# 8 normals

g Text
s 1
f 1/1/1 3/1/1 2/1/1
f 1/1/1 4/1/1 3/1/1
f 5/1/2 7/1/2 6/1/2
f 5/1/2 8/1/2 7/1/2
f 9/1/1 11/1/1 10/1/1
f 9/1/1 12/1/1 11/1/1
f 13/1/3 15/1/3 14/1/3
f 13/1/3 16/1/3 15/1/3
f 17/1/4 19/1/4 18/1/4
f 17/1/4 20/1/4 19/1/4
f 21/1/5 23/1/5 22/1/5
f 21/1/5 24/1/5 23/1/5
f 25/1/4 27/1/4 26/1/4
f 25/1/4 28/1/4 27/1/4
f 29/1/5 31/1/5 30/1/5
f 29/1/5 32/1/5 31/1/5
f 33/1/2 35/1/2 34/1/2
f 33/1/2 36/1/2 35/1/2
f 37/1/5 39/1/5 38/1/5
f 37/1/5 40/1/5 39/1/5
f 41/1/2 43/1/2 42/1/2
f 41/1/2 44/1/2 43/1/2
f 45/1/1 47/1/1 46/1/1
f 45/1/1 48/1/1 47/1/1
f 49/1/6 51/1/6 50/1/6
f 49/1/6 52/1/6 51/1/6
f 53/1/4 55/1/4 54/1/4
f 53/1/4 56/1/4 55/1/4
f 57/1/7 58/1/7 59/1/7
f 59/1/7 58/1/7 60/1/7
f 59/1/7 60/1/7 61/1/7
f 61/1/7 60/1/7 62/1/7
f 61/1/7 62/1/7 63/1/7
f 63/1/7 62/1/7 64/1/7
f 63/1/7 64/1/7 65/1/7
f 65/1/7 64/1/7 66/1/7
f 67/1/7 68/1/7 69/1/7
f 69/1/7 68/1/7 70/1/7
f 69/1/7 70/1/7 71/1/7
f 71/1/7 70/1/7 72/1/7
f 71/1/7 72/1/7 73/1/7
f 74/1/7 75/1/7 76/1/7
f 78/1/8 79/1/8 77/1/8
f 78/1/8 80/1/8 79/1/8
# 44 triangles in group

# 44 triangles total

