# Wavefront OBJ exported by MilkShape 3D

v 0.010036 11.134859 -0.010751
v 0.010036 11.134859 -3.010751
v 0.010036 12.648531 -3.010751
v 0.010036 12.648531 -0.010751
v 0.010036 12.648531 -0.010751
v 0.010036 12.648531 -3.010751
v 8.301050 12.648531 -3.010751
v 8.301050 12.648531 -0.010751
v 8.301050 12.648531 -0.010751
v 8.301050 12.648531 -3.010751
v 8.301050 11.423555 -3.010751
v 8.301050 11.423555 -0.010751
v 8.301050 11.423555 -0.010751
v 8.301050 11.423555 -3.010751
v 7.078212 10.121217 -0.010751
v 7.078212 10.121217 -3.010751
v 4.676021 5.804353 -0.010751
v 4.676021 5.804353 -3.010751
v 3.549312 1.915803 -0.010751
v 3.549312 1.915803 -3.010751
v 3.418239 0.002045 -0.010751
v 3.418239 0.002045 -3.010751
v 3.418239 0.002045 -0.010751
v 3.418239 0.002045 -3.010751
v 1.797145 0.002045 -3.010751
v 1.797145 0.002045 -0.010751
v 1.797145 0.002045 -0.010751
v 1.797145 0.002045 -3.010751
v 1.823390 1.513734 -0.010751
v 1.823390 1.513734 -3.010751
v 2.959255 5.795655 -0.010751
v 2.959255 5.795655 -3.010751
v 5.082515 9.771638 -0.010751
v 5.082515 9.771638 -3.010751
v 6.279567 11.134859 -0.010751
v 6.279567 11.134859 -3.010751
v 6.279567 11.134859 -0.010751
v 6.279567 11.134859 -3.010751
v 0.010036 11.134859 -3.010751
v 0.010036 11.134859 -0.010751
v 7.078212 10.121217 -0.010751
v 8.301050 11.423555 -0.010751
v 8.301050 12.648531 -0.010751
v 6.279567 11.134859 -0.010751
v 5.082515 9.771638 -0.010751
v 4.676021 5.804353 -0.010751
v 0.010036 12.648531 -0.010751
v 0.010036 11.134859 -0.010751
v 6.279567 11.134859 -0.010751
v 8.301050 12.648531 -0.010751
v 4.676021 5.804353 -0.010751
v 5.082515 9.771638 -0.010751
v 3.549312 1.915803 -0.010751
v 2.959255 5.795655 -0.010751
v 3.418239 0.002045 -0.010751
v 1.823390 1.513734 -0.010751
v 1.797145 0.002045 -0.010751
# 57 vertices

vt 0.000000 1.000000
# 1 texture coordinates

vn -1.000000 0.000000 0.000000
vn 0.000000 1.000000 0.000000
vn 1.000000 0.000000 0.000000
vn 0.729007 -0.684506 0.000000
vn 0.782537 -0.622605 0.000000
vn 0.831134 -0.556073 0.000000
vn 0.907845 -0.419307 0.000000
vn 0.936900 -0.349596 0.000000
vn 0.977836 -0.209373 0.000000
vn 0.990289 -0.139025 0.000000
vn 0.997663 -0.068330 0.000000
vn 0.000000 -1.000000 0.000000
vn -0.999849 0.017359 0.000000
vn -0.995218 0.097674 0.000000
vn -0.984053 0.177876 0.000000
vn -0.944012 0.329911 0.000000
vn -0.915688 0.401891 0.000000
vn -0.843495 0.537137 0.000000
vn -0.799677 0.600431 0.000000
vn -0.751419 0.659825 0.000000
vn 0.000000 0.000000 1.000000
# 21 normals

g Text
s 1
f 1/1/1 3/1/1 2/1/1
f 1/1/1 4/1/1 3/1/1
f 5/1/2 7/1/2 6/1/2
f 5/1/2 8/1/2 7/1/2
f 9/1/3 11/1/3 10/1/3
f 9/1/3 12/1/3 11/1/3
f 13/1/4 16/1/5 14/1/4
f 13/1/4 15/1/6 16/1/5
f 15/1/6 18/1/7 16/1/5
f 15/1/6 17/1/8 18/1/7
f 17/1/8 20/1/9 18/1/7
f 17/1/8 19/1/10 20/1/9
f 19/1/10 22/1/11 20/1/9
f 19/1/10 21/1/11 22/1/11
f 23/1/12 25/1/12 24/1/12
f 23/1/12 26/1/12 25/1/12
f 27/1/13 30/1/14 28/1/13
f 27/1/13 29/1/15 30/1/14
f 29/1/15 32/1/16 30/1/14
f 29/1/15 31/1/17 32/1/16
f 31/1/17 34/1/18 32/1/16
f 31/1/17 33/1/19 34/1/18
f 33/1/19 36/1/20 34/1/18
f 33/1/19 35/1/20 36/1/20
f 37/1/12 39/1/12 38/1/12
f 37/1/12 40/1/12 39/1/12
f 41/1/21 42/1/21 43/1/21
f 41/1/21 43/1/21 44/1/21
f 41/1/21 44/1/21 45/1/21
f 41/1/21 45/1/21 46/1/21
f 47/1/21 48/1/21 49/1/21
f 47/1/21 49/1/21 50/1/21
f 51/1/21 52/1/21 53/1/21
f 53/1/21 52/1/21 54/1/21
f 53/1/21 54/1/21 55/1/21
f 55/1/21 54/1/21 56/1/21
f 55/1/21 56/1/21 57/1/21
# 37 triangles in group

# 37 triangles total

