# Wavefront OBJ exported by MilkShape 3D

v 2.448822 7.171003 -0.002491
v 2.448822 7.171003 -3.002491
v 1.464325 7.528822 -0.002491
v 1.464325 7.528822 -3.002491
v 0.515076 8.855116 -0.002491
v 0.515076 8.855116 -3.002491
v 0.515076 11.176437 -0.002491
v 0.515076 11.176437 -3.002491
v 2.522522 13.078751 -0.002491
v 2.522522 13.078751 -3.002491
v 5.865266 13.078751 -0.002491
v 5.865266 13.078751 -3.002491
v 7.907655 11.132797 -0.002491
v 7.907655 11.132797 -3.002491
v 7.907655 8.846418 -0.002491
v 7.907655 8.846418 -3.002491
v 6.971223 7.528822 -0.002491
v 6.971223 7.528822 -3.002491
v 6.017396 7.171003 -0.002491
v 6.017396 7.171003 -3.002491
v 6.017396 7.171003 -0.002491
v 6.017396 7.171003 -3.002491
v 7.199952 6.786330 -0.002491
v 7.199952 6.786330 -3.002491
v 8.434998 5.072920 -0.002491
v 8.434998 5.072920 -3.002491
v 8.434998 2.240584 -0.002491
v 8.434998 2.240584 -3.002491
v 6.111695 0.002577 -0.002491
v 6.111695 0.002577 -3.002491
v 2.320801 0.002577 -0.002491
v 2.320801 0.002577 -3.002491
v -0.002502 2.249281 -0.002491
v -0.002502 2.249281 -3.002491
v -0.002502 5.177901 -0.002491
v -0.002502 5.177901 -3.002491
v 1.271454 6.865065 -0.002491
v 1.271454 6.865065 -3.002491
v 2.448822 7.171003 -0.002491
v 2.448822 7.171003 -3.002491
v 2.136170 10.637955 -0.002491
v 2.136170 10.637955 -3.002491
v 2.136170 8.927748 -0.002491
v 2.136170 8.927748 -3.002491
v 3.294770 7.776014 -0.002491
v 3.294770 7.776014 -3.002491
v 5.136658 7.776014 -0.002491
v 5.136658 7.776014 -3.002491
v 6.286561 8.919050 -0.002491
v 6.286561 8.919050 -3.002491
v 6.286561 10.611710 -0.002491
v 6.286561 10.611710 -3.002491
v 5.101868 11.789688 -0.002491
v 5.101868 11.789688 -3.002491
v 3.312165 11.789688 -0.002491
v 3.312165 11.789688 -3.002491
v 2.136170 10.637955 -0.002491
v 2.136170 10.637955 -3.002491
v 1.618592 5.017531 -0.002491
v 1.618592 5.017531 -3.002491
v 1.618592 3.242018 -0.002491
v 1.618592 3.242018 -3.002491
v 2.248932 1.982558 -0.002491
v 2.248932 1.982558 -3.002491
v 3.507020 1.291640 -0.002491
v 3.507020 1.291640 -3.002491
v 5.356843 1.291640 -0.002491
v 5.356843 1.291640 -3.002491
v 6.813905 2.743513 -0.002491
v 6.813905 2.743513 -3.002491
v 6.813905 5.000136 -0.002491
v 6.813905 5.000136 -3.002491
v 5.313203 6.486952 -0.002491
v 5.313203 6.486952 -3.002491
v 3.066956 6.486952 -0.002491
v 3.066956 6.486952 -3.002491
v 1.618592 5.017531 -0.002491
v 1.618592 5.017531 -3.002491
v 3.312165 11.789688 -0.002491
v 5.101868 11.789688 -0.002491
v 5.865266 13.078751 -0.002491
v 6.286561 10.611710 -0.002491
v 7.907655 11.132797 -0.002491
v 6.971223 7.528822 -0.002491
v 7.907655 8.846418 -0.002491
v 3.066956 6.486952 -0.002491
v 3.294770 7.776014 -0.002491
v 2.448822 7.171003 -0.002491
v 2.136170 8.927748 -0.002491
v 1.464325 7.528822 -0.002491
v 2.136170 10.637955 -0.002491
v 2.522522 13.078751 -0.002491
v 3.312165 11.789688 -0.002491
v 5.865266 13.078751 -0.002491
v 0.515076 11.176437 -0.002491
v 0.515076 8.855116 -0.002491
v 1.464325 7.528822 -0.002491
v 2.522522 13.078751 -0.002491
v 6.286561 8.919050 -0.002491
v 5.136658 7.776014 -0.002491
v 5.313203 6.486952 -0.002491
v 6.017396 7.171003 -0.002491
v 6.971223 7.528822 -0.002491
v 6.286561 10.611710 -0.002491
v 3.294770 7.776014 -0.002491
v 3.066956 6.486952 -0.002491
v 5.313203 6.486952 -0.002491
v 5.136658 7.776014 -0.002491
v 5.356843 1.291640 -0.002491
v 6.111695 0.002577 -0.002491
v 6.813905 2.743513 -0.002491
v 8.434998 2.240584 -0.002491
v 6.813905 5.000136 -0.002491
v 7.199952 6.786330 -0.002491
v 6.017396 7.171003 -0.002491
v 3.507020 1.291640 -0.002491
v 2.248932 1.982558 -0.002491
v 2.320801 0.002577 -0.002491
v 6.111695 0.002577 -0.002491
v 5.356843 1.291640 -0.002491
v 1.618592 3.242018 -0.002491
v 1.618592 5.017531 -0.002491
v 1.271454 6.865065 -0.002491
v -0.002502 5.177901 -0.002491
v 2.320801 0.002577 -0.002491
v 2.248932 1.982558 -0.002491
v 2.448822 7.171003 -0.002491
v 1.271454 6.865065 -0.002491
v 1.618592 5.017531 -0.002491
v 3.066956 6.486952 -0.002491
v 2.320801 0.002577 -0.002491
v -0.002502 5.177901 -0.002491
v -0.002502 2.249281 -0.002491
v 7.199952 6.786330 -0.002491
v 8.434998 2.240584 -0.002491
v 8.434998 5.072920 -0.002491
v 6.813905 5.000136 -0.002491
v 6.017396 7.171003 -0.002491
v 5.313203 6.486952 -0.002491
# 139 vertices

vt 0.000000 1.000000
# 1 texture coordinates

vn -0.341591 -0.939849 0.000000
vn -0.519424 -0.854517 0.000000
vn -0.683125 -0.730301 0.000000
vn -0.914232 -0.405191 0.000000
vn -0.979262 -0.202596 0.000000
vn -0.965416 0.260713 0.000000
vn -0.853297 0.521426 0.000000
vn -0.489342 0.872092 0.000000
vn -0.244671 0.969606 0.000000
vn 0.245485 0.969400 0.000000
vn 0.490970 0.871176 0.000000
vn 0.854275 0.519822 0.000000
vn 0.965633 0.259911 0.000000
vn 0.979476 -0.201562 0.000000
vn 0.915146 -0.403123 0.000000
vn 0.687162 -0.726504 0.000000
vn 0.526293 -0.850303 0.000000
vn 0.351238 -0.936286 0.000000
vn 0.309335 0.950953 0.000000
vn 0.498490 0.866895 0.000000
vn 0.673458 0.739225 0.000000
vn 0.913301 0.407286 0.000000
vn 0.979045 0.203643 0.000000
vn 0.966068 -0.258288 0.000000
vn 0.856242 -0.516575 0.000000
vn 0.494260 -0.869314 0.000000
vn 0.247130 -0.968982 0.000000
vn -0.247711 -0.968834 0.000000
vn -0.495423 -0.868652 0.000000
vn -0.856935 -0.515425 0.000000
vn -0.966222 -0.257713 0.000000
vn -0.977586 0.210536 0.000000
vn -0.907028 0.421071 0.000000
vn -0.647750 0.761853 0.000000
vn -0.456134 0.889911 0.000000
vn -0.251497 0.967858 0.000000
vn 1.000000 0.000000 0.000000
vn 0.967306 0.253611 0.000000
vn 0.861815 0.507222 0.000000
vn 0.503675 0.863893 0.000000
vn 0.251838 0.967770 0.000000
vn -0.503661 0.863901 0.000000
vn -0.861807 0.507236 0.000000
vn -0.967304 0.253618 0.000000
vn -0.967316 -0.253572 0.000000
vn -0.861861 -0.507145 0.000000
vn -0.503753 -0.863848 0.000000
vn -0.251876 -0.967759 0.000000
vn 0.249610 -0.968346 0.000000
vn 0.499220 -0.866475 0.000000
vn 0.699699 -0.714438 0.000000
vn 0.988254 0.152821 0.000000
vn 0.952146 0.305642 0.000000
vn 0.788311 0.615277 0.000000
vn 0.644919 0.764251 0.000000
vn 0.330098 0.943947 0.000000
vn 0.165049 0.986285 0.000000
vn -0.861227 -0.508221 0.000000
vn -0.502674 -0.864476 0.000000
vn 0.254876 -0.966974 0.000000
vn 0.509751 -0.860322 0.000000
vn 0.712191 -0.701985 0.000000
vn 0.000000 0.000000 1.000000
# 63 normals

g Text
s 1
f 1/1/1 4/1/2 2/1/1
f 1/1/1 3/1/3 4/1/2
f 3/1/3 6/1/4 4/1/2
f 3/1/3 5/1/5 6/1/4
f 5/1/5 8/1/6 6/1/4
f 5/1/5 7/1/7 8/1/6
f 7/1/7 10/1/8 8/1/6
f 7/1/7 9/1/9 10/1/8
f 9/1/9 12/1/10 10/1/8
f 9/1/9 11/1/11 12/1/10
f 11/1/11 14/1/12 12/1/10
f 11/1/11 13/1/13 14/1/12
f 13/1/13 16/1/14 14/1/12
f 13/1/13 15/1/15 16/1/14
f 15/1/15 18/1/16 16/1/14
f 15/1/15 17/1/17 18/1/16
f 17/1/17 20/1/18 18/1/16
f 17/1/17 19/1/18 20/1/18
f 21/1/19 24/1/20 22/1/19
f 21/1/19 23/1/21 24/1/20
f 23/1/21 26/1/22 24/1/20
f 23/1/21 25/1/23 26/1/22
f 25/1/23 28/1/24 26/1/22
f 25/1/23 27/1/25 28/1/24
f 27/1/25 30/1/26 28/1/24
f 27/1/25 29/1/27 30/1/26
f 29/1/27 32/1/28 30/1/26
f 29/1/27 31/1/29 32/1/28
f 31/1/29 34/1/30 32/1/28
f 31/1/29 33/1/31 34/1/30
f 33/1/31 36/1/32 34/1/30
f 33/1/31 35/1/33 36/1/32
f 35/1/33 38/1/34 36/1/32
f 35/1/33 37/1/35 38/1/34
f 37/1/35 40/1/36 38/1/34
f 37/1/35 39/1/36 40/1/36
f 41/1/37 44/1/38 42/1/37
f 41/1/37 43/1/39 44/1/38
f 43/1/39 46/1/40 44/1/38
f 43/1/39 45/1/41 46/1/40
f 45/1/41 48/1/36 46/1/40
f 45/1/41 47/1/42 48/1/36
f 47/1/42 50/1/43 48/1/36
f 47/1/42 49/1/44 50/1/43
f 49/1/44 52/1/45 50/1/43
f 49/1/44 51/1/46 52/1/45
f 51/1/46 54/1/47 52/1/45
f 51/1/46 53/1/48 54/1/47
f 53/1/48 56/1/49 54/1/47
f 53/1/48 55/1/50 56/1/49
f 55/1/50 58/1/51 56/1/49
f 55/1/50 57/1/51 58/1/51
f 59/1/37 62/1/52 60/1/37
f 59/1/37 61/1/53 62/1/52
f 61/1/53 64/1/54 62/1/52
f 61/1/53 63/1/55 64/1/54
f 63/1/55 66/1/56 64/1/54
f 63/1/55 65/1/57 66/1/56
f 65/1/57 68/1/36 66/1/56
f 65/1/57 67/1/42 68/1/36
f 67/1/42 70/1/43 68/1/36
f 67/1/42 69/1/44 70/1/43
f 69/1/44 72/1/45 70/1/43
f 69/1/44 71/1/58 72/1/45
f 71/1/58 74/1/59 72/1/45
f 71/1/58 73/1/48 74/1/59
f 73/1/48 76/1/60 74/1/59
f 73/1/48 75/1/61 76/1/60
f 75/1/61 78/1/62 76/1/60
f 75/1/61 77/1/62 78/1/62
f 79/1/63 80/1/63 81/1/63
f 81/1/63 80/1/63 82/1/63
f 81/1/63 82/1/63 83/1/63
f 83/1/63 82/1/63 84/1/63
f 83/1/63 84/1/63 85/1/63
f 86/1/63 87/1/63 88/1/63
f 88/1/63 87/1/63 89/1/63
f 88/1/63 89/1/63 90/1/63
f 90/1/63 89/1/63 91/1/63
f 90/1/63 91/1/63 92/1/63
f 92/1/63 91/1/63 93/1/63
f 92/1/63 93/1/63 94/1/63
f 95/1/63 96/1/63 97/1/63
f 95/1/63 97/1/63 98/1/63
f 99/1/63 100/1/63 101/1/63
f 99/1/63 101/1/63 102/1/63
f 99/1/63 102/1/63 103/1/63
f 99/1/63 103/1/63 104/1/63
f 105/1/63 106/1/63 107/1/63
f 105/1/63 107/1/63 108/1/63
f 109/1/63 110/1/63 111/1/63
f 111/1/63 110/1/63 112/1/63
f 111/1/63 112/1/63 113/1/63
f 113/1/63 112/1/63 114/1/63
f 113/1/63 114/1/63 115/1/63
f 116/1/63 117/1/63 118/1/63
f 116/1/63 118/1/63 119/1/63
f 116/1/63 119/1/63 120/1/63
f 121/1/63 122/1/63 123/1/63
f 121/1/63 123/1/63 124/1/63
f 121/1/63 124/1/63 125/1/63
f 121/1/63 125/1/63 126/1/63
f 127/1/63 128/1/63 129/1/63
f 127/1/63 129/1/63 130/1/63
f 131/1/63 132/1/63 133/1/63
f 134/1/63 135/1/63 136/1/63
f 137/1/63 138/1/63 139/1/63
# 107 triangles in group

# 107 triangles total

