# Wavefront OBJ exported by MilkShape 3D

v 0.220827 3.183275 -0.002608
v 0.220827 3.183275 -3.002608
v 1.734499 3.319993 -3.002608
v 1.734499 3.319993 -0.002608
v 1.734499 3.319993 -0.002608
v 1.734499 3.319993 -3.002608
v 1.926607 2.251878 -0.002608
v 1.926607 2.251878 -3.002608
v 3.008913 1.288743 -0.002608
v 3.008913 1.288743 -3.002608
v 4.580110 1.288743 -0.002608
v 4.580110 1.288743 -3.002608
v 5.676148 1.953569 -0.002608
v 5.676148 1.953569 -3.002608
v 6.369508 3.064409 -0.002608
v 6.369508 3.064409 -3.002608
v 6.841004 4.953447 -0.002608
v 6.841004 4.953447 -3.002608
v 6.841004 6.037279 -0.002608
v 6.841004 6.037279 -3.002608
v 6.832154 6.247087 -0.002608
v 6.832154 6.247087 -3.002608
v 6.832154 6.247087 -0.002608
v 6.832154 6.247087 -3.002608
v 6.360658 5.495439 -0.002608
v 6.360658 5.495439 -3.002608
v 4.727815 4.560228 -0.002608
v 4.727815 4.560228 -3.002608
v 2.186922 4.560228 -0.002608
v 2.186922 4.560228 -3.002608
v -0.013548 6.865983 -0.002608
v -0.013548 6.865983 -3.002608
v -0.013548 10.700212 -0.002608
v -0.013548 10.700212 -3.002608
v 2.283052 13.075852 -0.002608
v 2.283052 13.075852 -3.002608
v 5.260804 13.075852 -0.002608
v 5.260804 13.075852 -3.002608
v 7.330354 11.730638 -0.002608
v 7.330354 11.730638 -3.002608
v 8.404419 9.241166 -0.002608
v 8.404419 9.241166 -3.002608
v 8.404419 4.428239 -0.002608
v 8.404419 4.428239 -3.002608
v 7.338899 1.519609 -0.002608
v 7.338899 1.519609 -3.002608
v 5.234101 -0.000319 -0.002608
v 5.234101 -0.000319 -3.002608
v 2.316927 -0.000319 -0.002608
v 2.316927 -0.000319 -3.002608
v 0.412935 1.670213 -0.002608
v 0.412935 1.670213 -3.002608
v 0.220827 3.183275 -0.002608
v 0.220827 3.183275 -3.002608
v 6.656373 7.476640 -0.002608
v 6.656373 7.476640 -3.002608
v 6.656373 10.186143 -0.002608
v 6.656373 10.186143 -3.002608
v 5.222505 11.777024 -0.002608
v 5.222505 11.777024 -3.002608
v 3.154787 11.777024 -0.002608
v 3.154787 11.777024 -3.002608
v 1.607545 10.063767 -0.002608
v 1.607545 10.063767 -3.002608
v 1.607545 7.476640 -0.002608
v 1.607545 7.476640 -3.002608
v 3.076357 5.946947 -0.002608
v 3.076357 5.946947 -3.002608
v 5.252412 5.946947 -0.002608
v 5.252412 5.946947 -3.002608
v 6.656373 7.476640 -0.002608
v 6.656373 7.476640 -3.002608
v 7.330354 11.730638 -0.002608
v 5.260804 13.075852 -0.002608
v 6.656373 10.186143 -0.002608
v 6.832154 6.247087 -0.002608
v 6.841004 6.037279 -0.002608
v 7.338899 1.519609 -0.002608
v 8.404419 9.241166 -0.002608
v 6.832154 6.247087 -0.002608
v 6.656373 7.476640 -0.002608
v 6.360658 5.495439 -0.002608
v 5.252412 5.946947 -0.002608
v 4.727815 4.560228 -0.002608
v 3.076357 5.946947 -0.002608
v 2.186922 4.560228 -0.002608
v 1.607545 7.476640 -0.002608
v -0.013548 10.700212 -0.002608
v 1.607545 10.063767 -0.002608
v 2.283052 13.075852 -0.002608
v 3.154787 11.777024 -0.002608
v 5.260804 13.075852 -0.002608
v 5.222505 11.777024 -0.002608
v 6.656373 10.186143 -0.002608
v 7.338899 1.519609 -0.002608
v 6.841004 6.037279 -0.002608
v 6.841004 4.953447 -0.002608
v 6.369508 3.064409 -0.002608
v 5.676148 1.953569 -0.002608
v 5.234101 -0.000319 -0.002608
v 5.676148 1.953569 -0.002608
v 4.580110 1.288743 -0.002608
v 5.234101 -0.000319 -0.002608
v 3.008913 1.288743 -0.002608
v 2.316927 -0.000319 -0.002608
v 1.926607 2.251878 -0.002608
v 1.734499 3.319993 -0.002608
v 1.734499 3.319993 -0.002608
v 0.220827 3.183275 -0.002608
v 0.412935 1.670213 -0.002608
v 2.316927 -0.000319 -0.002608
v 2.186922 4.560228 -0.002608
v -0.013548 10.700212 -0.002608
v -0.013548 6.865983 -0.002608
v 6.656373 7.476640 -0.002608
v 6.832154 6.247087 -0.002608
v 6.656373 10.186143 -0.002608
v 8.404419 9.241166 -0.002608
v 7.338899 1.519609 -0.002608
v 8.404419 4.428239 -0.002608
v 2.316927 -0.000319 -3.002608
v 1.926607 2.251878 -3.002608
v 1.734499 3.319993 -3.002608
# 123 vertices

vt 0.000000 1.000000
# 1 texture coordinates

vn -0.089956 0.995946 0.000000
vn 0.984208 0.177017 0.000000
vn 0.922590 0.385781 0.000000
vn 0.810674 0.585498 0.000000
vn 0.470420 0.882442 0.000000
vn 0.235210 0.971945 0.000000
vn -0.178728 0.983898 0.000000
vn -0.357457 0.933930 0.000000
vn -0.644067 0.764969 0.000000
vn -0.756683 0.653782 0.000000
vn -0.898735 0.438492 0.000000
vn -0.939823 0.341662 0.000000
vn -0.986705 0.162523 0.000000
vn -0.996693 0.081262 0.000000
vn -0.999901 -0.014051 0.000000
vn -0.999605 -0.028102 0.000000
vn -0.999112 -0.042144 0.000000
vn 0.847128 -0.531389 0.000000
vn 0.750336 -0.661056 0.000000
vn 0.630446 -0.776233 0.000000
vn 0.341525 -0.939873 0.000000
vn 0.170762 -0.985312 0.000000
vn -0.259670 -0.965697 0.000000
vn -0.519340 -0.854568 0.000000
vn -0.870900 -0.491460 0.000000
vn -0.969338 -0.245730 0.000000
vn -0.968846 0.247665 0.000000
vn -0.868705 0.495329 0.000000
vn -0.515518 0.856879 0.000000
vn -0.257759 0.966209 0.000000
vn 0.188559 0.982062 0.000000
vn 0.377118 0.926165 0.000000
vn 0.695781 0.718254 0.000000
vn 0.825085 0.565009 0.000000
vn 0.963131 0.269034 0.000000
vn 0.990911 0.134517 0.000000
vn 0.993220 -0.116246 0.000000
vn 0.972598 -0.232492 0.000000
vn 0.854320 -0.519747 0.000000
vn 0.731711 -0.681615 0.000000
vn 0.407824 -0.913061 0.000000
vn 0.203912 -0.978989 0.000000
vn -0.233077 -0.972458 0.000000
vn -0.466154 -0.884704 0.000000
vn -0.817304 -0.576207 0.000000
vn -0.934897 -0.354919 0.000000
vn -0.992036 -0.125955 0.000000
vn -1.000000 0.000000 0.000000
vn -0.971478 -0.237130 0.000000
vn -0.880384 -0.474261 0.000000
vn -0.536148 -0.844124 0.000000
vn -0.268074 -0.963398 0.000000
vn 0.267784 -0.963479 0.000000
vn 0.535567 -0.844492 0.000000
vn 0.880061 -0.474860 0.000000
vn 0.971405 -0.237430 0.000000
vn 0.969105 0.246649 0.000000
vn 0.869861 0.493297 0.000000
vn 0.517527 0.855667 0.000000
vn 0.258763 0.965941 0.000000
vn -0.265420 0.964133 0.000000
vn -0.530840 0.847472 0.000000
vn -0.736736 0.676180 0.000000
vn 0.000000 0.000000 1.000000
vn 0.000000 0.000000 -1.000000
# 65 normals

g Text
s 1
f 1/1/1 3/1/1 2/1/1
f 1/1/1 4/1/1 3/1/1
f 5/1/2 8/1/3 6/1/2
f 5/1/2 7/1/4 8/1/3
f 7/1/4 10/1/5 8/1/3
f 7/1/4 9/1/6 10/1/5
f 9/1/6 12/1/7 10/1/5
f 9/1/6 11/1/8 12/1/7
f 11/1/8 14/1/9 12/1/7
f 11/1/8 13/1/10 14/1/9
f 13/1/10 16/1/11 14/1/9
f 13/1/10 15/1/12 16/1/11
f 15/1/12 18/1/13 16/1/11
f 15/1/12 17/1/14 18/1/13
f 17/1/14 20/1/15 18/1/13
f 17/1/14 19/1/16 20/1/15
f 19/1/16 22/1/17 20/1/15
f 19/1/16 21/1/17 22/1/17
f 23/1/18 26/1/19 24/1/18
f 23/1/18 25/1/20 26/1/19
f 25/1/20 28/1/21 26/1/19
f 25/1/20 27/1/22 28/1/21
f 27/1/22 30/1/23 28/1/21
f 27/1/22 29/1/24 30/1/23
f 29/1/24 32/1/25 30/1/23
f 29/1/24 31/1/26 32/1/25
f 31/1/26 34/1/27 32/1/25
f 31/1/26 33/1/28 34/1/27
f 33/1/28 36/1/29 34/1/27
f 33/1/28 35/1/30 36/1/29
f 35/1/30 38/1/31 36/1/29
f 35/1/30 37/1/32 38/1/31
f 37/1/32 40/1/33 38/1/31
f 37/1/32 39/1/34 40/1/33
f 39/1/34 42/1/35 40/1/33
f 39/1/34 41/1/36 42/1/35
f 41/1/36 44/1/37 42/1/35
f 41/1/36 43/1/38 44/1/37
f 43/1/38 46/1/39 44/1/37
f 43/1/38 45/1/40 46/1/39
f 45/1/40 48/1/41 46/1/39
f 45/1/40 47/1/42 48/1/41
f 47/1/42 50/1/43 48/1/41
f 47/1/42 49/1/44 50/1/43
f 49/1/44 52/1/45 50/1/43
f 49/1/44 51/1/46 52/1/45
f 51/1/46 54/1/47 52/1/45
f 51/1/46 53/1/47 54/1/47
f 55/1/48 58/1/49 56/1/48
f 55/1/48 57/1/50 58/1/49
f 57/1/50 60/1/51 58/1/49
f 57/1/50 59/1/52 60/1/51
f 59/1/52 62/1/53 60/1/51
f 59/1/52 61/1/54 62/1/53
f 61/1/54 64/1/55 62/1/53
f 61/1/54 63/1/56 64/1/55
f 63/1/56 66/1/57 64/1/55
f 63/1/56 65/1/58 66/1/57
f 65/1/58 68/1/59 66/1/57
f 65/1/58 67/1/60 68/1/59
f 67/1/60 70/1/61 68/1/59
f 67/1/60 69/1/62 70/1/61
f 69/1/62 72/1/63 70/1/61
f 69/1/62 71/1/63 72/1/63
f 73/1/64 74/1/64 75/1/64
f 73/1/64 75/1/64 76/1/64
f 73/1/64 76/1/64 77/1/64
f 73/1/64 77/1/64 78/1/64
f 73/1/64 78/1/64 79/1/64
f 80/1/64 81/1/64 82/1/64
f 82/1/64 81/1/64 83/1/64
f 82/1/64 83/1/64 84/1/64
f 84/1/64 83/1/64 85/1/64
f 84/1/64 85/1/64 86/1/64
f 86/1/64 85/1/64 87/1/64
f 86/1/64 87/1/64 88/1/64
f 88/1/64 87/1/64 89/1/64
f 88/1/64 89/1/64 90/1/64
f 90/1/64 89/1/64 91/1/64
f 90/1/64 91/1/64 92/1/64
f 92/1/64 91/1/64 93/1/64
f 92/1/64 93/1/64 94/1/64
f 95/1/64 96/1/64 97/1/64
f 95/1/64 97/1/64 98/1/64
f 95/1/64 98/1/64 99/1/64
f 95/1/64 99/1/64 100/1/64
f 101/1/64 102/1/64 103/1/64
f 103/1/64 102/1/64 104/1/64
f 103/1/64 104/1/64 105/1/64
f 105/1/64 104/1/64 106/1/64
f 105/1/64 106/1/64 107/1/64
f 108/1/64 109/1/64 110/1/64
f 108/1/64 110/1/64 111/1/64
f 112/1/64 113/1/64 114/1/64
f 115/1/64 116/1/64 117/1/64
f 118/1/64 119/1/64 120/1/64
f 121/1/65 123/1/65 122/1/65
# 97 triangles in group

# 97 triangles total

