# Wavefront OBJ exported by MilkShape 3D

v 0.028028 -0.003835 -0.015204
v 0.028028 -0.003835 -3.015205
v 4.952039 12.808665 -3.015205
v 4.952039 12.808665 -0.015204
v 4.952039 12.808665 -0.015204
v 4.952039 12.808665 -3.015205
v 6.787366 12.808665 -3.015205
v 6.787366 12.808665 -0.015204
v 6.787366 12.808665 -0.015204
v 6.787366 12.808665 -3.015205
v 12.020063 -0.003835 -3.015205
v 12.020063 -0.003835 -0.015204
v 12.020063 -0.003835 -0.015204
v 12.020063 -0.003835 -3.015205
v 10.088606 -0.003835 -3.015205
v 10.088606 -0.003835 -0.015204
v 10.088606 -0.003835 -0.015204
v 10.088606 -0.003835 -3.015205
v 8.605299 3.873118 -3.015205
v 8.605299 3.873118 -0.015204
v 8.605299 3.873118 -0.015204
v 8.605299 3.873118 -3.015205
v 3.230848 3.873118 -3.015205
v 3.230848 3.873118 -0.015204
v 3.230848 3.873118 -0.015204
v 3.230848 3.873118 -3.015205
v 1.826887 -0.003835 -3.015205
v 1.826887 -0.003835 -0.015204
v 1.826887 -0.003835 -0.015204
v 1.826887 -0.003835 -3.015205
v 0.028028 -0.003835 -3.015205
v 0.028028 -0.003835 -0.015204
v 3.721418 5.250072 -0.015204
v 3.721418 5.250072 -3.015205
v 8.072615 5.250072 -3.015205
v 8.072615 5.250072 -0.015204
v 8.072615 5.250072 -0.015204
v 8.072615 5.250072 -3.015205
v 6.126660 10.427836 -0.015204
v 6.126660 10.427836 -3.015205
v 5.825910 11.461009 -0.015204
v 5.825910 11.461009 -3.015205
v 5.825910 11.461009 -0.015204
v 5.825910 11.461009 -3.015205
v 5.572766 10.231456 -0.015204
v 5.572766 10.231456 -3.015205
v 5.137433 9.012889 -0.015204
v 5.137433 9.012889 -3.015205
v 5.137433 9.012889 -0.015204
v 5.137433 9.012889 -3.015205
v 3.721418 5.250072 -3.015205
v 3.721418 5.250072 -0.015204
v 5.825910 11.461009 -0.015204
v 6.126660 10.427836 -0.015204
v 6.787366 12.808665 -0.015204
v 8.072615 5.250072 -0.015204
v 12.020063 -0.003835 -0.015204
v 8.605299 3.873118 -0.015204
v 10.088606 -0.003835 -0.015204
v 5.572766 10.231456 -0.015204
v 5.825910 11.461009 -0.015204
v 5.137433 9.012889 -0.015204
v 4.952039 12.808665 -0.015204
v 3.721418 5.250072 -0.015204
v 3.230848 3.873118 -0.015204
v 8.605299 3.873118 -0.015204
v 4.952039 12.808665 -0.015204
v 0.028028 -0.003835 -0.015204
v 1.826887 -0.003835 -0.015204
v 3.230848 3.873118 -0.015204
v 3.721418 5.250072 -0.015204
v 8.605299 3.873118 -0.015204
v 8.072615 5.250072 -0.015204
v 4.952039 12.808665 -0.015204
v 5.825910 11.461009 -0.015204
v 6.787366 12.808665 -0.015204
# 76 vertices

vt 0.000000 1.000000
# 1 texture coordinates

vn -0.933440 0.358733 0.000000
vn 0.000000 1.000000 0.000000
vn 0.925769 0.378089 0.000000
vn 0.000000 -1.000000 0.000000
vn -0.933976 -0.357336 0.000000
vn 0.940247 -0.340492 0.000000
vn -0.936074 -0.351804 0.000000
vn -0.944708 -0.327912 0.000000
vn -0.952738 -0.303793 0.000000
vn -0.960148 -0.279494 0.000000
vn 0.979457 -0.201653 0.000000
vn 0.968986 -0.247116 0.000000
vn 0.956376 -0.292138 0.000000
vn 0.941710 -0.336426 0.000000
vn 0.935923 -0.352205 0.000000
vn 0.000000 0.000000 1.000000
# 16 normals

g Text
s 1
f 1/1/1 3/1/1 2/1/1
f 1/1/1 4/1/1 3/1/1
f 5/1/2 7/1/2 6/1/2
f 5/1/2 8/1/2 7/1/2
f 9/1/3 11/1/3 10/1/3
f 9/1/3 12/1/3 11/1/3
f 13/1/4 15/1/4 14/1/4
f 13/1/4 16/1/4 15/1/4
f 17/1/5 19/1/5 18/1/5
f 17/1/5 20/1/5 19/1/5
f 21/1/4 23/1/4 22/1/4
f 21/1/4 24/1/4 23/1/4
f 25/1/6 27/1/6 26/1/6
f 25/1/6 28/1/6 27/1/6
f 29/1/4 31/1/4 30/1/4
f 29/1/4 32/1/4 31/1/4
f 33/1/2 35/1/2 34/1/2
f 33/1/2 36/1/2 35/1/2
f 37/1/7 40/1/8 38/1/7
f 37/1/7 39/1/9 40/1/8
f 39/1/9 42/1/10 40/1/8
f 39/1/9 41/1/10 42/1/10
f 43/1/11 46/1/12 44/1/11
f 43/1/11 45/1/13 46/1/12
f 45/1/13 48/1/14 46/1/12
f 45/1/13 47/1/14 48/1/14
f 49/1/15 51/1/15 50/1/15
f 49/1/15 52/1/15 51/1/15
f 53/1/16 54/1/16 55/1/16
f 55/1/16 54/1/16 56/1/16
f 55/1/16 56/1/16 57/1/16
f 57/1/16 56/1/16 58/1/16
f 57/1/16 58/1/16 59/1/16
f 60/1/16 61/1/16 62/1/16
f 62/1/16 61/1/16 63/1/16
f 62/1/16 63/1/16 64/1/16
f 64/1/16 63/1/16 65/1/16
f 64/1/16 65/1/16 66/1/16
f 67/1/16 68/1/16 69/1/16
f 67/1/16 69/1/16 70/1/16
f 71/1/16 72/1/16 73/1/16
f 74/1/16 75/1/16 76/1/16
# 42 triangles in group

# 42 triangles total

