# Wavefront OBJ exported by MilkShape 3D

v 1.005907 7.494012 -0.000000
v 1.005907 7.494012 -3.000000
v 1.005907 9.281122 -3.000000
v 1.005907 9.281122 -0.000000
v 1.005907 9.281122 -0.000000
v 1.005907 9.281122 -3.000000
v 2.793018 9.281122 -3.000000
v 2.793018 9.281122 -0.000000
v 2.793018 9.281122 -0.000000
v 2.793018 9.281122 -3.000000
v 2.793018 7.494012 -3.000000
v 2.793018 7.494012 -0.000000
v 2.793018 7.494012 -0.000000
v 2.793018 7.494012 -3.000000
v 1.005907 7.494012 -3.000000
v 1.005907 7.494012 -0.000000
v 1.005907 -0.005988 -0.000000
v 1.005907 -0.005988 -3.000000
v 1.005907 1.781121 -3.000000
v 1.005907 1.781121 -0.000000
v 1.005907 1.781121 -0.000000
v 1.005907 1.781121 -3.000000
v 2.793018 1.781121 -3.000000
v 2.793018 1.781121 -0.000000
v 2.793018 1.781121 -0.000000
v 2.793018 1.781121 -3.000000
v 2.793018 -0.005988 -3.000000
v 2.793018 -0.005988 -0.000000
v 2.793018 -0.005988 -0.000000
v 2.793018 -0.005988 -3.000000
v 1.005907 -0.005988 -3.000000
v 1.005907 -0.005988 -0.000000
v 1.005907 9.281122 -0.000000
v 1.005907 7.494012 -0.000000
v 2.793018 7.494012 -0.000000
v 2.793018 9.281122 -0.000000
v 1.005907 1.781121 -0.000000
v 1.005907 -0.005988 -0.000000
v 2.793018 -0.005988 -0.000000
v 2.793018 1.781121 -0.000000
# 40 vertices

vt 0.000000 1.000000
# 1 texture coordinates

vn -1.000000 0.000000 0.000000
vn 0.000000 1.000000 0.000000
vn 1.000000 0.000000 0.000000
vn 0.000000 -1.000000 0.000000
vn 0.000000 0.000000 1.000000
# 5 normals

g Text
s 1
f 1/1/1 3/1/1 2/1/1
f 1/1/1 4/1/1 3/1/1
f 5/1/2 7/1/2 6/1/2
f 5/1/2 8/1/2 7/1/2
f 9/1/3 11/1/3 10/1/3
f 9/1/3 12/1/3 11/1/3
f 13/1/4 15/1/4 14/1/4
f 13/1/4 16/1/4 15/1/4
f 17/1/1 19/1/1 18/1/1
f 17/1/1 20/1/1 19/1/1
f 21/1/2 23/1/2 22/1/2
f 21/1/2 24/1/2 23/1/2
f 25/1/3 27/1/3 26/1/3
f 25/1/3 28/1/3 27/1/3
f 29/1/4 31/1/4 30/1/4
f 29/1/4 32/1/4 31/1/4
f 33/1/5 34/1/5 35/1/5
f 33/1/5 35/1/5 36/1/5
f 37/1/5 38/1/5 39/1/5
f 37/1/5 39/1/5 40/1/5
# 20 triangles in group

# 20 triangles total

