# Wavefront OBJ exported by MilkShape 3D

v 1.005059 3.838323 0.000001
v 1.005059 3.838323 -2.999999
v 1.005059 5.420354 -2.999999
v 1.005059 5.420354 0.000001
v 1.005059 5.420354 0.000001
v 1.005059 5.420354 -2.999999
v 5.848805 5.420354 -2.999999
v 5.848805 5.420354 0.000001
v 5.848805 5.420354 0.000001
v 5.848805 5.420354 -2.999999
v 5.848805 3.838323 -2.999999
v 5.848805 3.838323 0.000001
v 5.848805 3.838323 0.000001
v 5.848805 3.838323 -2.999999
v 1.005059 3.838323 -2.999999
v 1.005059 3.838323 0.000001
v 1.005059 3.838323 0.000001
v 5.848805 3.838323 0.000001
v 5.848805 5.420354 0.000001
v 1.005059 5.420354 0.000001
# 20 vertices

vt 0.000000 1.000000
# 1 texture coordinates

vn -1.000000 0.000000 0.000000
vn 0.000000 1.000000 0.000000
vn 1.000000 0.000000 0.000000
vn 0.000000 -1.000000 0.000000
vn 0.000000 0.000000 1.000000
# 5 normals

g Text
s 1
f 1/1/1 3/1/1 2/1/1
f 1/1/1 4/1/1 3/1/1
f 5/1/2 7/1/2 6/1/2
f 5/1/2 8/1/2 7/1/2
f 9/1/3 11/1/3 10/1/3
f 9/1/3 12/1/3 11/1/3
f 13/1/4 15/1/4 14/1/4
f 13/1/4 16/1/4 15/1/4
f 17/1/5 18/1/5 19/1/5
f 17/1/5 19/1/5 20/1/5
# 10 triangles in group

# 10 triangles total

