# Wavefront OBJ exported by MilkShape 3D

v -0.000161 0.015004 -0.008497
v -0.000161 0.015004 -3.008497
v -0.000161 12.827503 -3.008497
v -0.000161 12.827503 -0.008497
v -0.000161 12.827503 -0.008497
v -0.000161 12.827503 -3.008497
v 1.699058 12.827503 -3.008497
v 1.699058 12.827503 -0.008497
v 1.699058 12.827503 -0.008497
v 1.699058 12.827503 -3.008497
v 1.699058 6.476490 -3.008497
v 1.699058 6.476490 -0.008497
v 1.699058 6.476490 -0.008497
v 1.699058 6.476490 -3.008497
v 8.061817 12.827503 -3.008497
v 8.061817 12.827503 -0.008497
v 8.061817 12.827503 -0.008497
v 8.061817 12.827503 -3.008497
v 10.361164 12.827503 -3.008497
v 10.361164 12.827503 -0.008497
v 10.361164 12.827503 -0.008497
v 10.361164 12.827503 -3.008497
v 4.986259 7.634175 -3.008497
v 4.986259 7.634175 -0.008497
v 4.986259 7.634175 -0.008497
v 4.986259 7.634175 -3.008497
v 10.595539 0.015004 -3.008497
v 10.595539 0.015004 -0.008497
v 10.595539 0.015004 -0.008497
v 10.595539 0.015004 -3.008497
v 8.357838 0.015004 -3.008497
v 8.357838 0.015004 -0.008497
v 8.357838 0.015004 -0.008497
v 8.357838 0.015004 -3.008497
v 3.798820 6.487019 -3.008497
v 3.798820 6.487019 -0.008497
v 3.798820 6.487019 -0.008497
v 3.798820 6.487019 -3.008497
v 1.699058 4.458363 -3.008497
v 1.699058 4.458363 -0.008497
v 1.699058 4.458363 -0.008497
v 1.699058 4.458363 -3.008497
v 1.699058 0.015004 -3.008497
v 1.699058 0.015004 -0.008497
v 1.699058 0.015004 -0.008497
v 1.699058 0.015004 -3.008497
v -0.000161 0.015004 -3.008497
v -0.000161 0.015004 -0.008497
v -0.000161 12.827503 -0.008497
v 1.699058 0.015004 -0.008497
v 1.699058 12.827503 -0.008497
v 1.699058 4.458363 -0.008497
v 1.699058 6.476490 -0.008497
v 3.798820 6.487019 -0.008497
v 8.061817 12.827503 -0.008497
v 4.986259 7.634175 -0.008497
v 10.361164 12.827503 -0.008497
v 4.986259 7.634175 -0.008497
v 3.798820 6.487019 -0.008497
v 8.357838 0.015004 -0.008497
v 10.595539 0.015004 -0.008497
v 1.699058 0.015004 -0.008497
v -0.000161 12.827503 -0.008497
v -0.000161 0.015004 -0.008497
v 1.699058 0.015004 -3.008497
v 1.699058 12.827503 -3.008497
v 1.699058 4.458363 -3.008497
v 1.699058 6.476490 -3.008497
# 68 vertices

vt 0.000000 1.000000
# 1 texture coordinates

vn -1.000000 0.000000 0.000000
vn 0.000000 1.000000 0.000000
vn 1.000000 0.000000 0.000000
vn -0.706453 0.707760 0.000000
vn 0.694855 -0.719150 0.000000
vn 0.805300 0.592867 0.000000
vn 0.000000 -1.000000 0.000000
vn -0.817531 -0.575885 0.000000
vn 0.000000 0.000000 1.000000
vn 0.000000 0.000000 0.000000
# 10 normals

g Text
s 1
f 1/1/1 3/1/1 2/1/1
f 1/1/1 4/1/1 3/1/1
f 5/1/2 7/1/2 6/1/2
f 5/1/2 8/1/2 7/1/2
f 9/1/3 11/1/3 10/1/3
f 9/1/3 12/1/3 11/1/3
f 13/1/4 15/1/4 14/1/4
f 13/1/4 16/1/4 15/1/4
f 17/1/2 19/1/2 18/1/2
f 17/1/2 20/1/2 19/1/2
f 21/1/5 23/1/5 22/1/5
f 21/1/5 24/1/5 23/1/5
f 25/1/6 27/1/6 26/1/6
f 25/1/6 28/1/6 27/1/6
f 29/1/7 31/1/7 30/1/7
f 29/1/7 32/1/7 31/1/7
f 33/1/8 35/1/8 34/1/8
f 33/1/8 36/1/8 35/1/8
f 37/1/5 39/1/5 38/1/5
f 37/1/5 40/1/5 39/1/5
f 41/1/3 43/1/3 42/1/3
f 41/1/3 44/1/3 43/1/3
f 45/1/7 47/1/7 46/1/7
f 45/1/7 48/1/7 47/1/7
f 49/1/9 50/1/9 51/1/9
f 51/1/9 50/1/9 52/1/9
f 51/1/9 52/1/9 53/1/9
f 53/1/9 52/1/9 54/1/9
f 53/1/9 54/1/9 55/1/9
f 55/1/9 54/1/9 56/1/9
f 55/1/9 56/1/9 57/1/9
f 58/1/9 59/1/9 60/1/9
f 58/1/9 60/1/9 61/1/9
f 62/1/9 63/1/9 64/1/9
f 66/1/10 67/1/10 65/1/10
f 66/1/10 68/1/10 67/1/10
# 36 triangles in group

# 36 triangles total

