# Wavefront OBJ exported by MilkShape 3D

v -0.012080 0.007042 -0.002155
v -0.012080 0.007042 -3.002156
v -0.012080 12.819542 -3.002156
v -0.012080 12.819542 -0.002155
v -0.012080 12.819542 -0.002155
v -0.012080 12.819542 -3.002156
v 1.687139 12.819542 -3.002156
v 1.687139 12.819542 -0.002155
v 1.687139 12.819542 -0.002155
v 1.687139 12.819542 -3.002156
v 1.687139 1.520713 -3.002156
v 1.687139 1.520713 -0.002155
v 1.687139 1.520713 -0.002155
v 1.687139 1.520713 -3.002156
v 7.995731 1.520713 -3.002156
v 7.995731 1.520713 -0.002155
v 7.995731 1.520713 -0.002155
v 7.995731 1.520713 -3.002156
v 7.995731 0.007042 -3.002156
v 7.995731 0.007042 -0.002155
v 7.995731 0.007042 -0.002155
v 7.995731 0.007042 -3.002156
v -0.012080 0.007042 -3.002156
v -0.012080 0.007042 -0.002155
v -0.012080 0.007042 -0.002155
v 7.995731 0.007042 -0.002155
v 7.995731 1.520713 -0.002155
v 1.687139 1.520713 -0.002155
v 1.687139 12.819542 -0.002155
v -0.012080 12.819542 -0.002155
# 30 vertices

vt 0.000000 1.000000
# 1 texture coordinates

vn -1.000000 0.000000 0.000000
vn 0.000000 1.000000 0.000000
vn 1.000000 0.000000 0.000000
vn 0.000000 -1.000000 0.000000
vn 0.000000 0.000000 1.000000
# 5 normals

g Text
s 1
f 1/1/1 3/1/1 2/1/1
f 1/1/1 4/1/1 3/1/1
f 5/1/2 7/1/2 6/1/2
f 5/1/2 8/1/2 7/1/2
f 9/1/3 11/1/3 10/1/3
f 9/1/3 12/1/3 11/1/3
f 13/1/2 15/1/2 14/1/2
f 13/1/2 16/1/2 15/1/2
f 17/1/3 19/1/3 18/1/3
f 17/1/3 20/1/3 19/1/3
f 21/1/4 23/1/4 22/1/4
f 21/1/4 24/1/4 23/1/4
f 25/1/5 26/1/5 27/1/5
f 25/1/5 27/1/5 28/1/5
f 25/1/5 28/1/5 29/1/5
f 25/1/5 29/1/5 30/1/5
# 16 triangles in group

# 16 triangles total

