# Wavefront OBJ exported by MilkShape 3D

v -0.000563 0.006521 -0.021974
v -0.000563 0.006521 -3.021974
v -0.000563 12.819021 -3.021974
v -0.000563 12.819021 -0.021974
v -0.000563 12.819021 -0.021974
v -0.000563 12.819021 -3.021974
v 2.548417 12.819021 -3.021974
v 2.548417 12.819021 -0.021974
v 2.548417 12.819021 -0.021974
v 2.548417 12.819021 -3.021974
v 6.003312 2.479208 -0.021974
v 6.003312 2.479208 -3.021974
v 6.195725 1.849783 -0.021974
v 6.195725 1.849783 -3.021974
v 6.195725 1.849783 -0.021974
v 6.195725 1.849783 -3.021974
v 6.414994 2.549093 -0.021974
v 6.414994 2.549093 -3.021974
v 6.414994 2.549093 -0.021974
v 6.414994 2.549093 -3.021974
v 9.957169 12.819021 -3.021974
v 9.957169 12.819021 -0.021974
v 9.957169 12.819021 -0.021974
v 9.957169 12.819021 -3.021974
v 12.235764 12.819021 -3.021974
v 12.235764 12.819021 -0.021974
v 12.235764 12.819021 -0.021974
v 12.235764 12.819021 -3.021974
v 12.235764 0.006521 -3.021974
v 12.235764 0.006521 -0.021974
v 12.235764 0.006521 -0.021974
v 12.235764 0.006521 -3.021974
v 10.604904 0.006521 -3.021974
v 10.604904 0.006521 -0.021974
v 10.604904 0.006521 -0.021974
v 10.604904 0.006521 -3.021974
v 10.604904 10.729177 -3.021974
v 10.604904 10.729177 -0.021974
v 10.604904 10.729177 -0.021974
v 10.604904 10.729177 -3.021974
v 6.866807 0.006521 -3.021974
v 6.866807 0.006521 -0.021974
v 6.866807 0.006521 -0.021974
v 6.866807 0.006521 -3.021974
v 5.339555 0.006521 -3.021974
v 5.339555 0.006521 -0.021974
v 5.339555 0.006521 -0.021974
v 5.339555 0.006521 -3.021974
v 1.630296 10.914724 -3.021974
v 1.630296 10.914724 -0.021974
v 1.630296 10.914724 -0.021974
v 1.630296 10.914724 -3.021974
v 1.630296 0.006521 -3.021974
v 1.630296 0.006521 -0.021974
v 1.630296 0.006521 -0.021974
v 1.630296 0.006521 -3.021974
v -0.000563 0.006521 -3.021974
v -0.000563 0.006521 -0.021974
v 12.235764 0.006521 -0.021974
v 12.235764 12.819021 -0.021974
v 10.604904 10.729177 -0.021974
v 9.957169 12.819021 -0.021974
v 6.866807 0.006521 -0.021974
v 6.414994 2.549093 -0.021974
v 6.195725 1.849783 -0.021974
v 5.339555 0.006521 -0.021974
v 6.866807 0.006521 -0.021974
v 6.195725 1.849783 -0.021974
v 6.003312 2.479208 -0.021974
v 2.548417 12.819021 -0.021974
v 1.630296 10.914724 -0.021974
v -0.000563 12.819021 -0.021974
v -0.000563 0.006521 -0.021974
v 1.630296 0.006521 -0.021974
v 1.630296 10.914724 -0.021974
v 2.548417 12.819021 -0.021974
v 12.235764 0.006521 -0.021974
v 10.604904 10.729177 -0.021974
v 10.604904 0.006521 -0.021974
# 79 vertices

vt 0.000000 1.000000
# 1 texture coordinates

vn -1.000000 0.000000 0.000000
vn 0.000000 1.000000 0.000000
vn 0.948455 0.316912 0.000000
vn 0.951145 0.308745 0.000000
vn 0.953765 0.300554 0.000000
vn 0.956314 0.292342 0.000000
vn -0.954194 0.299188 0.000000
vn -0.945350 0.326058 0.000000
vn 1.000000 0.000000 0.000000
vn 0.000000 -1.000000 0.000000
vn 0.944265 -0.329187 0.000000
vn -0.946760 -0.321939 0.000000
vn 0.000000 0.000000 1.000000
# 13 normals

g Text
s 1
f 1/1/1 3/1/1 2/1/1
f 1/1/1 4/1/1 3/1/1
f 5/1/2 7/1/2 6/1/2
f 5/1/2 8/1/2 7/1/2
f 9/1/3 12/1/4 10/1/3
f 9/1/3 11/1/5 12/1/4
f 11/1/5 14/1/6 12/1/4
f 11/1/5 13/1/6 14/1/6
f 15/1/7 18/1/7 16/1/7
f 15/1/7 17/1/7 18/1/7
f 19/1/8 21/1/8 20/1/8
f 19/1/8 22/1/8 21/1/8
f 23/1/2 25/1/2 24/1/2
f 23/1/2 26/1/2 25/1/2
f 27/1/9 29/1/9 28/1/9
f 27/1/9 30/1/9 29/1/9
f 31/1/10 33/1/10 32/1/10
f 31/1/10 34/1/10 33/1/10
f 35/1/1 37/1/1 36/1/1
f 35/1/1 38/1/1 37/1/1
f 39/1/11 41/1/11 40/1/11
f 39/1/11 42/1/11 41/1/11
f 43/1/10 45/1/10 44/1/10
f 43/1/10 46/1/10 45/1/10
f 47/1/12 49/1/12 48/1/12
f 47/1/12 50/1/12 49/1/12
f 51/1/9 53/1/9 52/1/9
f 51/1/9 54/1/9 53/1/9
f 55/1/10 57/1/10 56/1/10
f 55/1/10 58/1/10 57/1/10
f 59/1/13 60/1/13 61/1/13
f 61/1/13 60/1/13 62/1/13
f 61/1/13 62/1/13 63/1/13
f 63/1/13 62/1/13 64/1/13
f 63/1/13 64/1/13 65/1/13
f 66/1/13 67/1/13 68/1/13
f 66/1/13 68/1/13 69/1/13
f 66/1/13 69/1/13 70/1/13
f 66/1/13 70/1/13 71/1/13
f 72/1/13 73/1/13 74/1/13
f 72/1/13 74/1/13 75/1/13
f 72/1/13 75/1/13 76/1/13
f 77/1/13 78/1/13 79/1/13
# 43 triangles in group

# 43 triangles total

