# Wavefront OBJ exported by MilkShape 3D

v 0.029940 0.007378 0.015304
v 0.029940 0.007378 -2.984696
v 0.029940 12.819876 -2.984696
v 0.029940 12.819876 0.015304
v 0.029940 12.819876 0.015304
v 0.029940 12.819876 -2.984696
v 1.764864 12.819876 -2.984696
v 1.764864 12.819876 0.015304
v 1.764864 12.819876 0.015304
v 1.764864 12.819876 -2.984696
v 8.506500 2.757012 -2.984696
v 8.506500 2.757012 0.015304
v 8.506500 2.757012 0.015304
v 8.506500 2.757012 -2.984696
v 8.506500 12.819876 -2.984696
v 8.506500 12.819876 0.015304
v 8.506500 12.819876 0.015304
v 8.506500 12.819876 -2.984696
v 10.127594 12.819876 -2.984696
v 10.127594 12.819876 0.015304
v 10.127594 12.819876 0.015304
v 10.127594 12.819876 -2.984696
v 10.127594 0.007378 -2.984696
v 10.127594 0.007378 0.015304
v 10.127594 0.007378 0.015304
v 10.127594 0.007378 -2.984696
v 8.392670 0.007378 -2.984696
v 8.392670 0.007378 0.015304
v 8.392670 0.007378 0.015304
v 8.392670 0.007378 -2.984696
v 1.651033 10.070700 -2.984696
v 1.651033 10.070700 0.015304
v 1.651033 10.070700 0.015304
v 1.651033 10.070700 -2.984696
v 1.651033 0.007378 -2.984696
v 1.651033 0.007378 0.015304
v 1.651033 0.007378 0.015304
v 1.651033 0.007378 -2.984696
v 0.029940 0.007378 -2.984696
v 0.029940 0.007378 0.015304
v 0.029940 0.007378 0.015304
v 1.651033 0.007378 0.015304
v 0.029940 12.819876 0.015304
v 1.651033 10.070700 0.015304
v 1.764864 12.819876 0.015304
v 8.392670 0.007378 0.015304
v 8.506500 2.757012 0.015304
v 10.127594 0.007378 0.015304
v 8.506500 12.819876 0.015304
v 10.127594 12.819876 0.015304
# 50 vertices

vt 0.000000 1.000000
# 1 texture coordinates

vn -1.000000 0.000000 0.000000
vn 0.000000 1.000000 0.000000
vn 0.830788 0.556588 0.000000
vn 1.000000 0.000000 0.000000
vn 0.000000 -1.000000 0.000000
vn -0.830800 -0.556571 0.000000
vn 0.000000 0.000000 1.000000
# 7 normals

g Text
s 1
f 1/1/1 3/1/1 2/1/1
f 1/1/1 4/1/1 3/1/1
f 5/1/2 7/1/2 6/1/2
f 5/1/2 8/1/2 7/1/2
f 9/1/3 11/1/3 10/1/3
f 9/1/3 12/1/3 11/1/3
f 13/1/1 15/1/1 14/1/1
f 13/1/1 16/1/1 15/1/1
f 17/1/2 19/1/2 18/1/2
f 17/1/2 20/1/2 19/1/2
f 21/1/4 23/1/4 22/1/4
f 21/1/4 24/1/4 23/1/4
f 25/1/5 27/1/5 26/1/5
f 25/1/5 28/1/5 27/1/5
f 29/1/6 31/1/6 30/1/6
f 29/1/6 32/1/6 31/1/6
f 33/1/4 35/1/4 34/1/4
f 33/1/4 36/1/4 35/1/4
f 37/1/5 39/1/5 38/1/5
f 37/1/5 40/1/5 39/1/5
f 41/1/7 42/1/7 43/1/7
f 43/1/7 42/1/7 44/1/7
f 43/1/7 44/1/7 45/1/7
f 45/1/7 44/1/7 46/1/7
f 45/1/7 46/1/7 47/1/7
f 47/1/7 46/1/7 48/1/7
f 47/1/7 48/1/7 49/1/7
f 49/1/7 48/1/7 50/1/7
# 28 triangles in group

# 28 triangles total

