# Wavefront OBJ exported by MilkShape 3D

v -0.020814 4.767349 -0.018686
v -0.020814 4.767349 -3.018687
v -0.020814 9.641920 -0.018686
v -0.020814 9.641920 -3.018687
v 3.406005 13.249708 -0.018686
v 3.406005 13.249708 -3.018687
v 7.890410 13.249708 -0.018686
v 7.890410 13.249708 -3.018687
v 10.740143 11.555067 -0.018686
v 10.740143 11.555067 -3.018687
v 12.235046 8.523756 -0.018686
v 12.235046 8.523756 -3.018687
v 12.235046 4.653824 -0.018686
v 12.235046 4.653824 -3.018687
v 10.661560 1.578873 -0.018686
v 10.661560 1.578873 -3.018687
v 7.776732 -0.002243 -0.018686
v 7.776732 -0.002243 -3.018687
v 4.297576 -0.002243 -0.018686
v 4.297576 -0.002243 -3.018687
v 1.447844 1.744888 -0.018686
v 1.447844 1.744888 -3.018687
v -0.020814 4.767349 -0.018686
v -0.020814 4.767349 -3.018687
v 1.727233 9.322706 -0.018686
v 1.727233 9.322706 -3.018687
v 1.727233 4.116868 -0.018686
v 1.727233 4.116868 -3.018687
v 4.218841 1.452835 -0.018686
v 4.218841 1.452835 -3.018687
v 8.012938 1.452835 -0.018686
v 8.012938 1.452835 -3.018687
v 10.487000 4.143113 -0.018686
v 10.487000 4.143113 -3.018687
v 10.487000 8.178452 -0.018686
v 10.487000 8.178452 -3.018687
v 9.429108 10.510603 -0.018686
v 9.429108 10.510603 -3.018687
v 7.392211 11.794630 -0.018686
v 7.392211 11.794630 -3.018687
v 4.323668 11.794630 -0.018686
v 4.323668 11.794630 -3.018687
v 1.727233 9.322706 -0.018686
v 1.727233 9.322706 -3.018687
v 10.740143 11.555067 -0.018686
v 7.890410 13.249708 -0.018686
v 9.429108 10.510603 -0.018686
v 10.487000 8.178452 -0.018686
v 10.661560 1.578873 -0.018686
v 12.235046 4.653824 -0.018686
v 12.235046 8.523756 -0.018686
v -0.020814 4.767349 -0.018686
v 1.447844 1.744888 -0.018686
v -0.020814 9.641920 -0.018686
v 1.727233 9.322706 -0.018686
v 3.406005 13.249708 -0.018686
v 4.323668 11.794630 -0.018686
v 7.890410 13.249708 -0.018686
v 7.392211 11.794630 -0.018686
v 9.429108 10.510603 -0.018686
v 8.012938 1.452835 -0.018686
v 4.218841 1.452835 -0.018686
v 4.297576 -0.002243 -0.018686
v 1.727233 4.116868 -0.018686
v 1.447844 1.744888 -0.018686
v 1.727233 9.322706 -0.018686
v 4.297576 -0.002243 -0.018686
v 7.776732 -0.002243 -0.018686
v 8.012938 1.452835 -0.018686
v 10.661560 1.578873 -0.018686
v 10.487000 4.143113 -0.018686
v 10.487000 8.178452 -0.018686
# 72 vertices

vt 0.000000 1.000000
# 1 texture coordinates

vn -1.000000 0.000000 0.000000
vn -0.969518 0.245021 0.000000
vn -0.871699 0.490041 0.000000
vn -0.520737 0.853717 0.000000
vn -0.260369 0.965509 0.000000
vn 0.175956 0.984398 0.000000
vn 0.351911 0.936033 0.000000
vn 0.663967 0.747762 0.000000
vn 0.797426 0.603416 0.000000
vn 0.953351 0.301863 0.000000
vn 0.988544 0.150931 0.000000
vn 0.987806 -0.155691 0.000000
vn 0.950285 -0.311381 0.000000
vn 0.784385 -0.620274 0.000000
vn 0.642294 -0.766459 0.000000
vn 0.329557 -0.944136 0.000000
vn 0.164779 -0.986331 0.000000
vn -0.180232 -0.983624 0.000000
vn -0.360463 -0.932773 0.000000
vn -0.672183 -0.740385 0.000000
vn -0.802404 -0.596781 0.000000
vn -0.899437 -0.437050 0.000000
vn 1.000000 0.000000 0.000000
vn 0.970102 0.242699 0.000000
vn 0.874293 0.485399 0.000000
vn 0.525297 0.850919 0.000000
vn 0.262648 0.964892 0.000000
vn -0.265129 0.964213 0.000000
vn -0.530257 0.847837 0.000000
vn -0.877092 0.480323 0.000000
vn -0.970733 0.240162 0.000000
vn -0.990078 -0.140517 0.000000
vn -0.959698 -0.281033 0.000000
vn -0.815327 -0.579001 0.000000
vn -0.684641 -0.728880 0.000000
vn -0.368347 -0.929688 0.000000
vn -0.184174 -0.982894 0.000000
vn 0.245369 -0.969430 0.000000
vn 0.490738 -0.871307 0.000000
vn 0.689528 -0.724259 0.000000
vn 0.000000 0.000000 1.000000
# 41 normals

g Text
s 1
f 1/1/1 4/1/2 2/1/1
f 1/1/1 3/1/3 4/1/2
f 3/1/3 6/1/4 4/1/2
f 3/1/3 5/1/5 6/1/4
f 5/1/5 8/1/6 6/1/4
f 5/1/5 7/1/7 8/1/6
f 7/1/7 10/1/8 8/1/6
f 7/1/7 9/1/9 10/1/8
f 9/1/9 12/1/10 10/1/8
f 9/1/9 11/1/11 12/1/10
f 11/1/11 14/1/12 12/1/10
f 11/1/11 13/1/13 14/1/12
f 13/1/13 16/1/14 14/1/12
f 13/1/13 15/1/15 16/1/14
f 15/1/15 18/1/16 16/1/14
f 15/1/15 17/1/17 18/1/16
f 17/1/17 20/1/18 18/1/16
f 17/1/17 19/1/19 20/1/18
f 19/1/19 22/1/20 20/1/18
f 19/1/19 21/1/21 22/1/20
f 21/1/21 24/1/22 22/1/20
f 21/1/21 23/1/22 24/1/22
f 25/1/23 28/1/24 26/1/23
f 25/1/23 27/1/25 28/1/24
f 27/1/25 30/1/26 28/1/24
f 27/1/25 29/1/27 30/1/26
f 29/1/27 32/1/28 30/1/26
f 29/1/27 31/1/29 32/1/28
f 31/1/29 34/1/30 32/1/28
f 31/1/29 33/1/31 34/1/30
f 33/1/31 36/1/32 34/1/30
f 33/1/31 35/1/33 36/1/32
f 35/1/33 38/1/34 36/1/32
f 35/1/33 37/1/35 38/1/34
f 37/1/35 40/1/36 38/1/34
f 37/1/35 39/1/37 40/1/36
f 39/1/37 42/1/38 40/1/36
f 39/1/37 41/1/39 42/1/38
f 41/1/39 44/1/40 42/1/38
f 41/1/39 43/1/40 44/1/40
f 45/1/41 46/1/41 47/1/41
f 45/1/41 47/1/41 48/1/41
f 45/1/41 48/1/41 49/1/41
f 45/1/41 49/1/41 50/1/41
f 45/1/41 50/1/41 51/1/41
f 52/1/41 53/1/41 54/1/41
f 54/1/41 53/1/41 55/1/41
f 54/1/41 55/1/41 56/1/41
f 56/1/41 55/1/41 57/1/41
f 56/1/41 57/1/41 58/1/41
f 58/1/41 57/1/41 59/1/41
f 58/1/41 59/1/41 60/1/41
f 61/1/41 62/1/41 63/1/41
f 63/1/41 62/1/41 64/1/41
f 63/1/41 64/1/41 65/1/41
f 65/1/41 64/1/41 66/1/41
f 67/1/41 68/1/41 69/1/41
f 69/1/41 68/1/41 70/1/41
f 69/1/41 70/1/41 71/1/41
f 71/1/41 70/1/41 72/1/41
# 60 triangles in group

# 60 triangles total

