# Wavefront OBJ exported by MilkShape 3D

v -0.001232 0.001252 -0.016836
v -0.001232 0.001252 -3.016836
v -0.001232 12.813753 -3.016836
v -0.001232 12.813753 -0.016836
v -0.001232 12.813753 -0.016836
v -0.001232 12.813753 -3.016836
v 7.394549 12.813753 -0.016836
v 7.394549 12.813753 -3.016836
v 9.176929 12.123446 -0.016836
v 9.176929 12.123446 -3.016836
v 10.242910 10.375551 -0.016836
v 10.242910 10.375551 -3.016836
v 10.242910 7.954895 -0.016836
v 10.242910 7.954895 -3.016836
v 8.478077 6.084779 -0.016836
v 8.478077 6.084779 -3.016836
v 6.634509 5.831330 -0.016836
v 6.634509 5.831330 -3.016836
v 6.634509 5.831330 -0.016836
v 6.634509 5.831330 -3.016836
v 7.307422 5.507997 -0.016836
v 7.307422 5.507997 -3.016836
v 7.657001 5.193360 -0.016836
v 7.657001 5.193360 -3.016836
v 8.399799 4.511750 -0.016836
v 8.399799 4.511750 -3.016836
v 8.399799 4.511750 -0.016836
v 8.399799 4.511750 -3.016836
v 11.278219 0.001252 -3.016836
v 11.278219 0.001252 -0.016836
v 11.278219 0.001252 -0.016836
v 11.278219 0.001252 -3.016836
v 9.159534 0.001252 -3.016836
v 9.159534 0.001252 -0.016836
v 9.159534 0.001252 -0.016836
v 9.159534 0.001252 -3.016836
v 6.721789 3.820985 -0.016836
v 6.721789 3.820985 -3.016836
v 5.760792 5.044587 -0.016836
v 5.760792 5.044587 -3.016836
v 5.000599 5.536530 -0.016836
v 5.000599 5.536530 -3.016836
v 4.607380 5.633119 -0.016836
v 4.607380 5.633119 -3.016836
v 4.319141 5.694612 -0.016836
v 4.319141 5.694612 -3.016836
v 4.319141 5.694612 -0.016836
v 4.319141 5.694612 -3.016836
v 1.697987 5.694612 -3.016836
v 1.697987 5.694612 -0.016836
v 1.697987 5.694612 -0.016836
v 1.697987 5.694612 -3.016836
v 1.697987 0.001252 -3.016836
v 1.697987 0.001252 -0.016836
v 1.697987 0.001252 -0.016836
v 1.697987 0.001252 -3.016836
v -0.001232 0.001252 -3.016836
v -0.001232 0.001252 -0.016836
v 1.697987 7.159455 -0.016836
v 1.697987 7.159455 -3.016836
v 6.503436 7.159455 -0.016836
v 6.503436 7.159455 -3.016836
v 7.813556 7.640107 -0.016836
v 7.813556 7.640107 -3.016836
v 8.494862 8.697540 -0.016836
v 8.494862 8.697540 -3.016836
v 8.494862 10.226778 -0.016836
v 8.494862 10.226778 -3.016836
v 7.175891 11.397738 -0.016836
v 7.175891 11.397738 -3.016836
v 7.175891 11.397738 -0.016836
v 7.175891 11.397738 -3.016836
v 1.697987 11.397738 -3.016836
v 1.697987 11.397738 -0.016836
v 1.697987 11.397738 -0.016836
v 1.697987 11.397738 -3.016836
v 1.697987 7.159455 -3.016836
v 1.697987 7.159455 -0.016836
v 9.159534 0.001252 -0.016836
v 11.278219 0.001252 -0.016836
v 8.399799 4.511750 -0.016836
v 7.657001 5.193360 -0.016836
v 7.307422 5.507997 -0.016836
v 6.721789 3.820985 -0.016836
v 6.634509 5.831330 -0.016836
v 8.478077 6.084779 -0.016836
v 7.813556 7.640107 -0.016836
v 6.503436 7.159455 -0.016836
v 6.721789 3.820985 -0.016836
v 7.307422 5.507997 -0.016836
v 6.503436 7.159455 -0.016836
v 1.697987 7.159455 -0.016836
v 4.319141 5.694612 -0.016836
v 4.607380 5.633119 -0.016836
v 5.000599 5.536530 -0.016836
v 5.760792 5.044587 -0.016836
v 6.721789 3.820985 -0.016836
v 4.319141 5.694612 -0.016836
v 1.697987 7.159455 -0.016836
v 1.697987 5.694612 -0.016836
v 1.697987 11.397738 -0.016836
v 1.697987 0.001252 -0.016836
v -0.001232 12.813753 -0.016836
v -0.001232 0.001252 -0.016836
v 1.697987 11.397738 -0.016836
v 7.175891 11.397738 -0.016836
v 7.394549 12.813753 -0.016836
v 8.494862 10.226778 -0.016836
v 9.176929 12.123446 -0.016836
v 10.242910 7.954895 -0.016836
v 10.242910 10.375551 -0.016836
v 8.494862 8.697540 -0.016836
v 7.813556 7.640107 -0.016836
v 8.478077 6.084779 -0.016836
v 10.242910 7.954895 -0.016836
v 8.494862 10.226778 -0.016836
v -0.001232 12.813753 -0.016836
v 1.697987 11.397738 -0.016836
v 7.394549 12.813753 -0.016836
v 1.697987 7.159455 -3.016836
v 1.697987 5.694612 -3.016836
v 1.697987 11.397738 -3.016836
v 1.697987 0.001252 -3.016836
# 123 vertices

vt 0.000000 1.000000
# 1 texture coordinates

vn -1.000000 0.000000 0.000000
vn 0.000000 1.000000 0.000000
vn 0.122232 0.992501 0.000000
vn 0.244465 0.969658 0.000000
vn 0.551210 0.834366 0.000000
vn 0.723491 0.690334 0.000000
vn 0.933345 0.358980 0.000000
vn 0.983760 0.179490 0.000000
vn 0.969763 -0.244047 0.000000
vn 0.872791 -0.488094 0.000000
vn 0.558386 -0.829581 0.000000
vn 0.350904 -0.936411 0.000000
vn 0.136196 -0.990682 0.000000
vn 0.433096 0.901348 0.000000
vn 0.516372 0.856364 0.000000
vn 0.595715 0.803196 0.000000
vn 0.671365 0.741127 0.000000
vn 0.673740 0.738969 0.000000
vn 0.676108 0.736803 0.000000
vn 0.842975 0.537953 0.000000
vn 0.000000 -1.000000 0.000000
vn -0.842960 -0.537976 0.000000
vn -0.824997 -0.565137 0.000000
vn -0.806139 -0.591727 0.000000
vn -0.714043 -0.700102 0.000000
vn -0.631999 -0.774969 0.000000
vn -0.447219 -0.894424 0.000000
vn -0.344369 -0.938834 0.000000
vn -0.228601 -0.973520 0.000000
vn -0.218634 -0.975807 0.000000
vn -0.208645 -0.977991 0.000000
vn 1.000000 0.000000 0.000000
vn -0.116403 0.993202 0.000000
vn -0.232806 0.972523 0.000000
vn -0.534377 0.845246 0.000000
vn -0.707741 0.706472 0.000000
vn -0.927191 0.374588 0.000000
vn -0.982304 0.187294 0.000000
vn -0.962783 -0.270276 0.000000
vn -0.841311 -0.540552 0.000000
vn -0.663902 -0.747820 0.000000
vn 0.000000 0.000000 1.000000
vn 0.000000 0.000000 0.000000
# 43 normals

g Text
s 1
f 1/1/1 3/1/1 2/1/1
f 1/1/1 4/1/1 3/1/1
f 5/1/2 8/1/3 6/1/2
f 5/1/2 7/1/4 8/1/3
f 7/1/4 10/1/5 8/1/3
f 7/1/4 9/1/6 10/1/5
f 9/1/6 12/1/7 10/1/5
f 9/1/6 11/1/8 12/1/7
f 11/1/8 14/1/9 12/1/7
f 11/1/8 13/1/10 14/1/9
f 13/1/10 16/1/11 14/1/9
f 13/1/10 15/1/12 16/1/11
f 15/1/12 18/1/13 16/1/11
f 15/1/12 17/1/13 18/1/13
f 19/1/14 22/1/15 20/1/14
f 19/1/14 21/1/16 22/1/15
f 21/1/16 24/1/17 22/1/15
f 21/1/16 23/1/18 24/1/17
f 23/1/18 26/1/19 24/1/17
f 23/1/18 25/1/19 26/1/19
f 27/1/20 29/1/20 28/1/20
f 27/1/20 30/1/20 29/1/20
f 31/1/21 33/1/21 32/1/21
f 31/1/21 34/1/21 33/1/21
f 35/1/22 38/1/23 36/1/22
f 35/1/22 37/1/24 38/1/23
f 37/1/24 40/1/25 38/1/23
f 37/1/24 39/1/26 40/1/25
f 39/1/26 42/1/27 40/1/25
f 39/1/26 41/1/28 42/1/27
f 41/1/28 44/1/29 42/1/27
f 41/1/28 43/1/30 44/1/29
f 43/1/30 46/1/31 44/1/29
f 43/1/30 45/1/31 46/1/31
f 47/1/21 49/1/21 48/1/21
f 47/1/21 50/1/21 49/1/21
f 51/1/32 53/1/32 52/1/32
f 51/1/32 54/1/32 53/1/32
f 55/1/21 57/1/21 56/1/21
f 55/1/21 58/1/21 57/1/21
f 59/1/2 62/1/33 60/1/2
f 59/1/2 61/1/34 62/1/33
f 61/1/34 64/1/35 62/1/33
f 61/1/34 63/1/36 64/1/35
f 63/1/36 66/1/37 64/1/35
f 63/1/36 65/1/38 66/1/37
f 65/1/38 68/1/39 66/1/37
f 65/1/38 67/1/40 68/1/39
f 67/1/40 70/1/41 68/1/39
f 67/1/40 69/1/41 70/1/41
f 71/1/21 73/1/21 72/1/21
f 71/1/21 74/1/21 73/1/21
f 75/1/32 77/1/32 76/1/32
f 75/1/32 78/1/32 77/1/32
f 79/1/42 80/1/42 81/1/42
f 79/1/42 81/1/42 82/1/42
f 79/1/42 82/1/42 83/1/42
f 79/1/42 83/1/42 84/1/42
f 85/1/42 86/1/42 87/1/42
f 85/1/42 87/1/42 88/1/42
f 85/1/42 88/1/42 89/1/42
f 85/1/42 89/1/42 90/1/42
f 91/1/42 92/1/42 93/1/42
f 91/1/42 93/1/42 94/1/42
f 91/1/42 94/1/42 95/1/42
f 91/1/42 95/1/42 96/1/42
f 91/1/42 96/1/42 97/1/42
f 98/1/42 99/1/42 100/1/42
f 100/1/42 99/1/42 101/1/42
f 100/1/42 101/1/42 102/1/42
f 102/1/42 101/1/42 103/1/42
f 102/1/42 103/1/42 104/1/42
f 105/1/42 106/1/42 107/1/42
f 107/1/42 106/1/42 108/1/42
f 107/1/42 108/1/42 109/1/42
f 109/1/42 108/1/42 110/1/42
f 109/1/42 110/1/42 111/1/42
f 112/1/42 113/1/42 114/1/42
f 112/1/42 114/1/42 115/1/42
f 112/1/42 115/1/42 116/1/42
f 117/1/42 118/1/42 119/1/42
f 121/1/43 122/1/43 120/1/43
f 121/1/43 123/1/43 122/1/43
# 83 triangles in group

# 83 triangles total

