# Wavefront OBJ exported by MilkShape 3D

v 0.011433 4.351140 -0.013208
v 0.011433 4.351140 -3.013208
v 1.612995 4.487858 -3.013208
v 1.612995 4.487858 -0.013208
v 1.612995 4.487858 -0.013208
v 1.612995 4.487858 -3.013208
v 1.726673 3.524876 -0.013208
v 1.726673 3.524876 -3.013208
v 2.557820 2.290440 -0.013208
v 2.557820 2.290440 -3.013208
v 4.307546 1.528874 -0.013208
v 4.307546 1.528874 -3.013208
v 6.372212 1.528874 -0.013208
v 6.372212 1.528874 -3.013208
v 7.859487 2.106724 -0.013208
v 7.859487 2.106724 -3.013208
v 8.585653 3.113347 -0.013208
v 8.585653 3.113347 -3.013208
v 8.585653 4.311314 -0.013208
v 8.585653 4.311314 -3.013208
v 7.889699 5.211888 -0.013208
v 7.889699 5.211888 -3.013208
v 6.563863 5.719243 -0.013208
v 6.563863 5.719243 -3.013208
v 3.016499 6.567784 -0.013208
v 3.016499 6.567784 -3.013208
v 1.390370 7.424870 -0.013208
v 1.390370 7.424870 -3.013208
v 0.489948 8.850498 -0.013208
v 0.489948 8.850498 -3.013208
v 0.489948 10.704594 -0.013208
v 0.489948 10.704594 -3.013208
v 1.593617 12.392519 -0.013208
v 1.593617 12.392519 -3.013208
v 3.713215 13.267153 -0.013208
v 3.713215 13.267153 -3.013208
v 6.437215 13.267153 -0.013208
v 6.437215 13.267153 -3.013208
v 8.618155 12.349489 -0.013208
v 8.618155 12.349489 -3.013208
v 9.791861 10.566502 -0.013208
v 9.791861 10.566502 -3.013208
v 9.835653 9.439030 -0.013208
v 9.835653 9.439030 -3.013208
v 9.835653 9.439030 -0.013208
v 9.835653 9.439030 -3.013208
v 8.214560 9.312077 -3.013208
v 8.214560 9.312077 -0.013208
v 8.214560 9.312077 -0.013208
v 8.214560 9.312077 -3.013208
v 8.082876 10.529423 -0.013208
v 8.082876 10.529423 -3.013208
v 6.563863 11.773012 -0.013208
v 6.563863 11.773012 -3.013208
v 3.534535 11.773012 -0.013208
v 3.534535 11.773012 -3.013208
v 2.120808 10.644474 -0.013208
v 2.120808 10.644474 -3.013208
v 2.120808 9.157352 -0.013208
v 2.120808 9.157352 -3.013208
v 3.113087 8.265018 -0.013208
v 3.113087 8.265018 -3.013208
v 7.266225 7.328892 -0.013208
v 7.266225 7.328892 -3.013208
v 9.151602 6.463871 -0.013208
v 9.151602 6.463871 -3.013208
v 10.216513 4.882298 -0.013208
v 10.216513 4.882298 -3.013208
v 10.216513 2.828770 -0.013208
v 10.216513 2.828770 -3.013208
v 9.044790 1.020146 -0.013208
v 9.044790 1.020146 -3.013208
v 6.849813 0.015202 -0.013208
v 6.849813 0.015202 -3.013208
v 3.736714 0.015202 -0.013208
v 3.736714 0.015202 -3.013208
v 1.384419 1.029301 -0.013208
v 1.384419 1.029301 -3.013208
v 0.046375 3.066044 -0.013208
v 0.046375 3.066044 -3.013208
v 0.011433 4.351140 -0.013208
v 0.011433 4.351140 -3.013208
v 9.151602 6.463871 -0.013208
v 7.266225 7.328892 -0.013208
v 7.889699 5.211888 -0.013208
v 8.585653 4.311314 -0.013208
v 9.044790 1.020146 -0.013208
v 10.216513 2.828770 -0.013208
v 10.216513 4.882298 -0.013208
v 7.889699 5.211888 -0.013208
v 7.266225 7.328892 -0.013208
v 6.563863 5.719243 -0.013208
v 3.113087 8.265018 -0.013208
v 3.016499 6.567784 -0.013208
v 2.120808 9.157352 -0.013208
v 1.390370 7.424870 -0.013208
v 1.593617 12.392519 -0.013208
v 0.489948 10.704594 -0.013208
v 8.585653 4.311314 -0.013208
v 8.585653 3.113347 -0.013208
v 9.044790 1.020146 -0.013208
v 7.859487 2.106724 -0.013208
v 6.849813 0.015202 -0.013208
v 6.372212 1.528874 -0.013208
v 4.307546 1.528874 -0.013208
v 3.736714 0.015202 -0.013208
v 6.849813 0.015202 -0.013208
v 4.307546 1.528874 -0.013208
v 2.557820 2.290440 -0.013208
v 1.726673 3.524876 -0.013208
v 1.384419 1.029301 -0.013208
v 1.612995 4.487858 -0.013208
v 0.011433 4.351140 -0.013208
v 0.046375 3.066044 -0.013208
v 1.384419 1.029301 -0.013208
v 1.726673 3.524876 -0.013208
v 8.618155 12.349489 -0.013208
v 6.437215 13.267153 -0.013208
v 6.563863 11.773012 -0.013208
v 8.082876 10.529423 -0.013208
v 8.214560 9.312077 -0.013208
v 9.835653 9.439030 -0.013208
v 9.791861 10.566502 -0.013208
v 3.713215 13.267153 -0.013208
v 1.593617 12.392519 -0.013208
v 2.120808 10.644474 -0.013208
v 3.534535 11.773012 -0.013208
v 6.563863 11.773012 -0.013208
v 6.437215 13.267153 -0.013208
v 2.120808 10.644474 -0.013208
v 1.593617 12.392519 -0.013208
v 2.120808 9.157352 -0.013208
v 1.390370 7.424870 -0.013208
v 0.489948 10.704594 -0.013208
v 0.489948 8.850498 -0.013208
# 135 vertices

vt 0.000000 1.000000
# 1 texture coordinates

vn -0.085056 0.996376 0.000000
vn 0.993104 0.117234 0.000000
vn 0.962557 0.271079 0.000000
vn 0.906629 0.421928 0.000000
vn 0.711271 0.702918 0.000000
vn 0.562520 0.826784 0.000000
vn 0.271110 0.962548 0.000000
vn 0.135555 0.990770 0.000000
vn -0.122582 0.992458 0.000000
vn -0.245164 0.969482 0.000000
vn -0.531120 0.847296 0.000000
vn -0.686392 0.727232 0.000000
vn -0.913195 0.407522 0.000000
vn -0.979021 0.203761 0.000000
vn -0.976835 -0.213994 0.000000
vn -0.903784 -0.427988 0.000000
vn -0.668716 -0.743518 0.000000
vn -0.519156 -0.854679 0.000000
vn -0.316410 -0.948623 0.000000
vn -0.274746 -0.961517 0.000000
vn -0.312689 -0.949855 0.000000
vn -0.391111 -0.920344 0.000000
vn -0.611062 -0.791583 0.000000
vn -0.741388 -0.671077 0.000000
vn -0.929471 -0.368894 0.000000
vn -0.982842 -0.184447 0.000000
vn -0.981898 0.189411 0.000000
vn -0.925470 0.378821 0.000000
vn -0.713406 0.700751 0.000000
vn -0.555298 0.831652 0.000000
vn -0.258678 0.965963 0.000000
vn -0.129339 0.991600 0.000000
vn 0.131586 0.991305 0.000000
vn 0.263173 0.964749 0.000000
vn 0.558390 0.829579 0.000000
vn 0.713483 0.700673 0.000000
vn 0.919854 0.392260 0.000000
vn 0.976352 0.216189 0.000000
vn 0.999247 0.038812 0.000000
vn 0.078074 -0.996948 0.000000
vn -0.994200 -0.107545 0.000000
vn -0.935664 -0.352893 0.000000
vn -0.806930 -0.590647 0.000000
vn -0.445293 -0.895385 0.000000
vn -0.222646 -0.974899 0.000000
vn 0.218854 -0.975758 0.000000
vn 0.437707 -0.899118 0.000000
vn 0.821007 -0.570919 0.000000
vn 0.958391 -0.285459 0.000000
vn 0.963307 0.268403 0.000000
vn 0.843706 0.536805 0.000000
vn 0.534450 0.845200 0.000000
vn 0.380425 0.924812 0.000000
vn 0.286977 0.957937 0.000000
vn 0.353003 0.935622 0.000000
vn 0.573482 0.819218 0.000000
vn 0.715683 0.698426 0.000000
vn 0.921950 0.387309 0.000000
vn 0.981070 0.193655 0.000000
vn 0.982153 -0.188083 0.000000
vn 0.926552 -0.376166 0.000000
vn 0.723859 -0.689948 0.000000
vn 0.577698 -0.816251 0.000000
vn 0.283294 -0.959033 0.000000
vn 0.141647 -0.989917 0.000000
vn -0.134426 -0.990924 0.000000
vn -0.268852 -0.963182 0.000000
vn -0.563565 -0.826072 0.000000
vn -0.715884 -0.698220 0.000000
vn -0.921561 -0.388234 0.000000
vn -0.978090 -0.208183 0.000000
vn -0.999631 -0.027181 0.000000
vn 0.000000 0.000000 1.000000
# 73 normals

g Text
s 1
f 1/1/1 3/1/1 2/1/1
f 1/1/1 4/1/1 3/1/1
f 5/1/2 8/1/3 6/1/2
f 5/1/2 7/1/4 8/1/3
f 7/1/4 10/1/5 8/1/3
f 7/1/4 9/1/6 10/1/5
f 9/1/6 12/1/7 10/1/5
f 9/1/6 11/1/8 12/1/7
f 11/1/8 14/1/9 12/1/7
f 11/1/8 13/1/10 14/1/9
f 13/1/10 16/1/11 14/1/9
f 13/1/10 15/1/12 16/1/11
f 15/1/12 18/1/13 16/1/11
f 15/1/12 17/1/14 18/1/13
f 17/1/14 20/1/15 18/1/13
f 17/1/14 19/1/16 20/1/15
f 19/1/16 22/1/17 20/1/15
f 19/1/16 21/1/18 22/1/17
f 21/1/18 24/1/19 22/1/17
f 21/1/18 23/1/20 24/1/19
f 23/1/20 26/1/21 24/1/19
f 23/1/20 25/1/22 26/1/21
f 25/1/22 28/1/23 26/1/21
f 25/1/22 27/1/24 28/1/23
f 27/1/24 30/1/25 28/1/23
f 27/1/24 29/1/26 30/1/25
f 29/1/26 32/1/27 30/1/25
f 29/1/26 31/1/28 32/1/27
f 31/1/28 34/1/29 32/1/27
f 31/1/28 33/1/30 34/1/29
f 33/1/30 36/1/31 34/1/29
f 33/1/30 35/1/32 36/1/31
f 35/1/32 38/1/33 36/1/31
f 35/1/32 37/1/34 38/1/33
f 37/1/34 40/1/35 38/1/33
f 37/1/34 39/1/36 40/1/35
f 39/1/36 42/1/37 40/1/35
f 39/1/36 41/1/38 42/1/37
f 41/1/38 44/1/39 42/1/37
f 41/1/38 43/1/39 44/1/39
f 45/1/40 47/1/40 46/1/40
f 45/1/40 48/1/40 47/1/40
f 49/1/41 52/1/42 50/1/41
f 49/1/41 51/1/43 52/1/42
f 51/1/43 54/1/44 52/1/42
f 51/1/43 53/1/45 54/1/44
f 53/1/45 56/1/46 54/1/44
f 53/1/45 55/1/47 56/1/46
f 55/1/47 58/1/48 56/1/46
f 55/1/47 57/1/49 58/1/48
f 57/1/49 60/1/50 58/1/48
f 57/1/49 59/1/51 60/1/50
f 59/1/51 62/1/52 60/1/50
f 59/1/51 61/1/53 62/1/52
f 61/1/53 64/1/54 62/1/52
f 61/1/53 63/1/55 64/1/54
f 63/1/55 66/1/56 64/1/54
f 63/1/55 65/1/57 66/1/56
f 65/1/57 68/1/58 66/1/56
f 65/1/57 67/1/59 68/1/58
f 67/1/59 70/1/60 68/1/58
f 67/1/59 69/1/61 70/1/60
f 69/1/61 72/1/62 70/1/60
f 69/1/61 71/1/63 72/1/62
f 71/1/63 74/1/64 72/1/62
f 71/1/63 73/1/65 74/1/64
f 73/1/65 76/1/66 74/1/64
f 73/1/65 75/1/67 76/1/66
f 75/1/67 78/1/68 76/1/66
f 75/1/67 77/1/69 78/1/68
f 77/1/69 80/1/70 78/1/68
f 77/1/69 79/1/71 80/1/70
f 79/1/71 82/1/72 80/1/70
f 79/1/71 81/1/72 82/1/72
f 83/1/73 84/1/73 85/1/73
f 83/1/73 85/1/73 86/1/73
f 83/1/73 86/1/73 87/1/73
f 83/1/73 87/1/73 88/1/73
f 83/1/73 88/1/73 89/1/73
f 90/1/73 91/1/73 92/1/73
f 92/1/73 91/1/73 93/1/73
f 92/1/73 93/1/73 94/1/73
f 94/1/73 93/1/73 95/1/73
f 94/1/73 95/1/73 96/1/73
f 96/1/73 95/1/73 97/1/73
f 96/1/73 97/1/73 98/1/73
f 99/1/73 100/1/73 101/1/73
f 101/1/73 100/1/73 102/1/73
f 101/1/73 102/1/73 103/1/73
f 103/1/73 102/1/73 104/1/73
f 103/1/73 104/1/73 105/1/73
f 106/1/73 107/1/73 108/1/73
f 106/1/73 108/1/73 109/1/73
f 106/1/73 109/1/73 110/1/73
f 106/1/73 110/1/73 111/1/73
f 112/1/73 113/1/73 114/1/73
f 112/1/73 114/1/73 115/1/73
f 112/1/73 115/1/73 116/1/73
f 117/1/73 118/1/73 119/1/73
f 117/1/73 119/1/73 120/1/73
f 117/1/73 120/1/73 121/1/73
f 117/1/73 121/1/73 122/1/73
f 117/1/73 122/1/73 123/1/73
f 124/1/73 125/1/73 126/1/73
f 124/1/73 126/1/73 127/1/73
f 124/1/73 127/1/73 128/1/73
f 124/1/73 128/1/73 129/1/73
f 130/1/73 131/1/73 132/1/73
f 133/1/73 134/1/73 135/1/73
# 109 triangles in group

# 109 triangles total

