# Wavefront OBJ exported by MilkShape 3D

v 8.366959 13.044130 0.012706
v 8.366959 13.044130 -2.987294
v 10.066177 13.044130 -2.987294
v 10.066177 13.044130 0.012706
v 10.066177 13.044130 0.012706
v 10.066177 13.044130 -2.987294
v 10.066177 3.712618 0.012706
v 10.066177 3.712618 -2.987294
v 9.192154 1.441042 0.012706
v 9.192154 1.441042 -2.987294
v 6.910812 0.016786 0.012706
v 6.910812 0.016786 -2.987294
v 3.257095 0.016786 0.012706
v 3.257095 0.016786 -2.987294
v 0.967055 1.257478 0.012706
v 0.967055 1.257478 -2.987294
v -0.011949 3.607790 0.012706
v -0.011949 3.607790 -2.987294
v -0.011949 3.607790 0.012706
v -0.011949 3.607790 -2.987294
v -0.011949 13.044130 -2.987294
v -0.011949 13.044130 0.012706
v -0.011949 13.044130 0.012706
v -0.011949 13.044130 -2.987294
v 1.687270 13.044130 -2.987294
v 1.687270 13.044130 0.012706
v 1.687270 13.044130 0.012706
v 1.687270 13.044130 -2.987294
v 1.687270 3.986818 0.012706
v 1.687270 3.986818 -2.987294
v 2.307235 2.406008 0.012706
v 2.307235 2.406008 -2.987294
v 3.817855 1.549989 0.012706
v 3.817855 1.549989 -2.987294
v 6.777755 1.549989 0.012706
v 6.777755 1.549989 -2.987294
v 8.366959 3.244478 0.012706
v 8.366959 3.244478 -2.987294
v 8.366959 3.244478 0.012706
v 8.366959 3.244478 -2.987294
v 8.366959 13.044130 -2.987294
v 8.366959 13.044130 0.012706
v 8.366959 3.244478 0.012706
v 6.777755 1.549989 0.012706
v 6.910812 0.016786 0.012706
v 3.817855 1.549989 0.012706
v 3.257095 0.016786 0.012706
v 2.307235 2.406008 0.012706
v 0.967055 1.257478 0.012706
v 1.687270 3.986818 0.012706
v 1.687270 13.044130 0.012706
v -0.011949 13.044130 0.012706
v -0.011949 3.607790 0.012706
v 0.967055 1.257478 0.012706
v 1.687270 13.044130 0.012706
v 9.192154 1.441042 0.012706
v 10.066177 3.712618 0.012706
v 10.066177 13.044130 0.012706
v 8.366959 13.044130 0.012706
v 8.366959 3.244478 0.012706
v 6.910812 0.016786 0.012706
# 61 vertices

vt 0.000000 1.000000
# 1 texture coordinates

vn 0.000000 1.000000 0.000000
vn 1.000000 0.000000 0.000000
vn 0.992590 -0.121515 0.000000
vn 0.970019 -0.243030 0.000000
vn 0.837012 -0.547185 0.000000
vn 0.695987 -0.718055 0.000000
vn 0.365593 -0.930775 0.000000
vn 0.182797 -0.983151 0.000000
vn -0.163226 -0.986589 0.000000
vn -0.326453 -0.945213 0.000000
vn -0.658642 -0.752456 0.000000
vn -0.815508 -0.578746 0.000000
vn -0.923118 -0.384517 0.000000
vn -1.000000 0.000000 0.000000
vn 0.992330 0.123614 0.000000
vn 0.968958 0.247227 0.000000
vn 0.827110 0.562040 0.000000
vn 0.673291 0.739378 0.000000
vn 0.338601 0.940930 0.000000
vn 0.169300 0.985565 0.000000
vn -0.262241 0.965002 0.000000
vn -0.524482 0.851422 0.000000
vn -0.729404 0.684083 0.000000
vn 0.000000 0.000000 1.000000
# 24 normals

g Text
s 1
f 1/1/1 3/1/1 2/1/1
f 1/1/1 4/1/1 3/1/1
f 5/1/2 8/1/3 6/1/2
f 5/1/2 7/1/4 8/1/3
f 7/1/4 10/1/5 8/1/3
f 7/1/4 9/1/6 10/1/5
f 9/1/6 12/1/7 10/1/5
f 9/1/6 11/1/8 12/1/7
f 11/1/8 14/1/9 12/1/7
f 11/1/8 13/1/10 14/1/9
f 13/1/10 16/1/11 14/1/9
f 13/1/10 15/1/12 16/1/11
f 15/1/12 18/1/13 16/1/11
f 15/1/12 17/1/13 18/1/13
f 19/1/14 21/1/14 20/1/14
f 19/1/14 22/1/14 21/1/14
f 23/1/1 25/1/1 24/1/1
f 23/1/1 26/1/1 25/1/1
f 27/1/2 30/1/15 28/1/2
f 27/1/2 29/1/16 30/1/15
f 29/1/16 32/1/17 30/1/15
f 29/1/16 31/1/18 32/1/17
f 31/1/18 34/1/19 32/1/17
f 31/1/18 33/1/20 34/1/19
f 33/1/20 36/1/21 34/1/19
f 33/1/20 35/1/22 36/1/21
f 35/1/22 38/1/23 36/1/21
f 35/1/22 37/1/23 38/1/23
f 39/1/14 41/1/14 40/1/14
f 39/1/14 42/1/14 41/1/14
f 43/1/24 44/1/24 45/1/24
f 45/1/24 44/1/24 46/1/24
f 45/1/24 46/1/24 47/1/24
f 47/1/24 46/1/24 48/1/24
f 47/1/24 48/1/24 49/1/24
f 49/1/24 48/1/24 50/1/24
f 49/1/24 50/1/24 51/1/24
f 52/1/24 53/1/24 54/1/24
f 52/1/24 54/1/24 55/1/24
f 56/1/24 57/1/24 58/1/24
f 56/1/24 58/1/24 59/1/24
f 56/1/24 59/1/24 60/1/24
f 56/1/24 60/1/24 61/1/24
# 43 triangles in group

# 43 triangles total

