# Wavefront OBJ exported by MilkShape 3D

v 4.951234 0.015508 -0.014009
v 4.951234 0.015508 -3.014009
v 0.002657 12.828005 -3.014009
v 0.002657 12.828005 -0.014009
v 0.002657 12.828005 -0.014009
v 0.002657 12.828005 -3.014009
v 1.837831 12.828005 -3.014009
v 1.837831 12.828005 -0.014009
v 1.837831 12.828005 -0.014009
v 1.837831 12.828005 -3.014009
v 5.566163 2.405187 -0.014009
v 5.566163 2.405187 -3.014009
v 5.836854 1.426641 -0.014009
v 5.836854 1.426641 -3.014009
v 5.836854 1.426641 -0.014009
v 5.836854 1.426641 -3.014009
v 6.134248 2.475073 -0.014009
v 6.134248 2.475073 -3.014009
v 6.134248 2.475073 -0.014009
v 6.134248 2.475073 -3.014009
v 9.992128 12.828005 -3.014009
v 9.992128 12.828005 -0.014009
v 9.992128 12.828005 -0.014009
v 9.992128 12.828005 -3.014009
v 11.722628 12.828005 -3.014009
v 11.722628 12.828005 -0.014009
v 11.722628 12.828005 -0.014009
v 11.722628 12.828005 -3.014009
v 6.700196 0.015508 -3.014009
v 6.700196 0.015508 -0.014009
v 6.700196 0.015508 -0.014009
v 6.700196 0.015508 -3.014009
v 4.951234 0.015508 -3.014009
v 4.951234 0.015508 -0.014009
v 6.700196 0.015508 -0.014009
v 11.722628 12.828005 -0.014009
v 9.992128 12.828005 -0.014009
v 6.134248 2.475073 -0.014009
v 5.836854 1.426641 -0.014009
v 4.951234 0.015508 -0.014009
v 4.951234 0.015508 -0.014009
v 5.836854 1.426641 -0.014009
v 5.566163 2.405187 -0.014009
v 1.837831 12.828005 -0.014009
v 0.002657 12.828005 -0.014009
# 45 vertices

vt 0.000000 1.000000
# 1 texture coordinates

vn -0.932840 -0.360291 0.000000
vn 0.000000 1.000000 0.000000
vn 0.941573 0.336809 0.000000
vn 0.949555 0.313599 0.000000
vn 0.956970 0.290186 0.000000
vn 0.963804 0.266613 0.000000
vn -0.962045 0.272890 0.000000
vn -0.937055 0.349181 0.000000
vn 0.931024 -0.364957 0.000000
vn 0.000000 -1.000000 0.000000
vn 0.000000 0.000000 1.000000
# 11 normals

g Text
s 1
f 1/1/1 3/1/1 2/1/1
f 1/1/1 4/1/1 3/1/1
f 5/1/2 7/1/2 6/1/2
f 5/1/2 8/1/2 7/1/2
f 9/1/3 12/1/4 10/1/3
f 9/1/3 11/1/5 12/1/4
f 11/1/5 14/1/6 12/1/4
f 11/1/5 13/1/6 14/1/6
f 15/1/7 18/1/7 16/1/7
f 15/1/7 17/1/7 18/1/7
f 19/1/8 21/1/8 20/1/8
f 19/1/8 22/1/8 21/1/8
f 23/1/2 25/1/2 24/1/2
f 23/1/2 26/1/2 25/1/2
f 27/1/9 29/1/9 28/1/9
f 27/1/9 30/1/9 29/1/9
f 31/1/10 33/1/10 32/1/10
f 31/1/10 34/1/10 33/1/10
f 35/1/11 36/1/11 37/1/11
f 35/1/11 37/1/11 38/1/11
f 35/1/11 38/1/11 39/1/11
f 35/1/11 39/1/11 40/1/11
f 41/1/11 42/1/11 43/1/11
f 41/1/11 43/1/11 44/1/11
f 41/1/11 44/1/11 45/1/11
# 25 triangles in group

# 25 triangles total

