# Wavefront OBJ exported by MilkShape 3D

v 3.424499 0.002156 -0.008437
v 3.424499 0.002156 -3.008437
v 0.024535 12.814653 -3.008437
v 0.024535 12.814653 -0.008437
v 0.024535 12.814653 -0.008437
v 0.024535 12.814653 -3.008437
v 1.764037 12.814653 -3.008437
v 1.764037 12.814653 -0.008437
v 1.764037 12.814653 -0.008437
v 1.764037 12.814653 -3.008437
v 3.714721 4.415608 -3.008437
v 3.714721 4.415608 -0.008437
v 3.714721 4.415608 -0.008437
v 3.714721 4.415608 -3.008437
v 4.033172 3.096791 -0.008437
v 4.033172 3.096791 -3.008437
v 4.257934 1.793843 -0.008437
v 4.257934 1.793843 -3.008437
v 4.257934 1.793843 -0.008437
v 4.257934 1.793843 -3.008437
v 4.748656 3.847828 -0.008437
v 4.748656 3.847828 -3.008437
v 4.748656 3.847828 -0.008437
v 4.748656 3.847828 -3.008437
v 7.273070 12.814653 -3.008437
v 7.273070 12.814653 -0.008437
v 7.273070 12.814653 -0.008437
v 7.273070 12.814653 -3.008437
v 9.318510 12.814653 -3.008437
v 9.318510 12.814653 -0.008437
v 9.318510 12.814653 -0.008437
v 9.318510 12.814653 -3.008437
v 11.835754 3.915425 -0.008437
v 11.835754 3.915425 -3.008437
v 12.148560 1.793843 -0.008437
v 12.148560 1.793843 -3.008437
v 12.148560 1.793843 -0.008437
v 12.148560 1.793843 -3.008437
v 12.399872 3.007985 -0.008437
v 12.399872 3.007985 -3.008437
v 12.399872 3.007985 -0.008437
v 12.399872 3.007985 -3.008437
v 14.794739 12.814653 -3.008437
v 14.794739 12.814653 -0.008437
v 14.794739 12.814653 -0.008437
v 14.794739 12.814653 -3.008437
v 16.499146 12.814653 -3.008437
v 16.499146 12.814653 -0.008437
v 16.499146 12.814653 -0.008437
v 16.499146 12.814653 -3.008437
v 13.001221 0.002156 -3.008437
v 13.001221 0.002156 -0.008437
v 13.001221 0.002156 -0.008437
v 13.001221 0.002156 -3.008437
v 11.346710 0.002156 -3.008437
v 11.346710 0.002156 -0.008437
v 11.346710 0.002156 -0.008437
v 11.346710 0.002156 -3.008437
v 8.318144 10.990007 -0.008437
v 8.318144 10.990007 -3.008437
v 8.252073 11.267717 -0.008437
v 8.252073 11.267717 -3.008437
v 8.252073 11.267717 -0.008437
v 8.252073 11.267717 -3.008437
v 8.041807 10.388506 -0.008437
v 8.041807 10.388506 -3.008437
v 8.041807 10.388506 -0.008437
v 8.041807 10.388506 -3.008437
v 5.169646 0.002156 -3.008437
v 5.169646 0.002156 -0.008437
v 5.169646 0.002156 -0.008437
v 5.169646 0.002156 -3.008437
v 3.424499 0.002156 -3.008437
v 3.424499 0.002156 -0.008437
v 13.001221 0.002156 -0.008437
v 16.499146 12.814653 -0.008437
v 14.794739 12.814653 -0.008437
v 12.399872 3.007985 -0.008437
v 12.148560 1.793843 -0.008437
v 11.346710 0.002156 -0.008437
v 8.252073 11.267717 -0.008437
v 8.318144 10.990007 -0.008437
v 9.318510 12.814653 -0.008437
v 11.346710 0.002156 -0.008437
v 11.835754 3.915425 -0.008437
v 12.148560 1.793843 -0.008437
v 7.273070 12.814653 -0.008437
v 4.748656 3.847828 -0.008437
v 5.169646 0.002156 -0.008437
v 8.041807 10.388506 -0.008437
v 8.252073 11.267717 -0.008437
v 9.318510 12.814653 -0.008437
v 4.257934 1.793843 -0.008437
v 4.033172 3.096791 -0.008437
v 3.714721 4.415608 -0.008437
v 3.424499 0.002156 -0.008437
v 5.169646 0.002156 -0.008437
v 4.748656 3.847828 -0.008437
v 1.764037 12.814653 -0.008437
v 0.024535 12.814653 -0.008437
v 3.424499 0.002156 -0.008437
v 3.714721 4.415608 -0.008437
# 102 vertices

vt 0.000000 1.000000
# 1 texture coordinates

vn -0.966548 -0.256486 0.000000
vn 0.000000 1.000000 0.000000
vn 0.974074 0.226229 0.000000
vn 0.972063 0.234721 0.000000
vn 0.976998 0.213248 0.000000
vn 0.981461 0.191661 0.000000
vn 0.985445 0.169992 0.000000
vn -0.972627 0.232373 0.000000
vn -0.962581 0.270994 0.000000
vn 0.962246 0.272182 0.000000
vn 0.973072 0.230503 0.000000
vn 0.982108 0.188319 0.000000
vn 0.989305 0.145863 0.000000
vn -0.979243 0.202691 0.000000
vn -0.971452 0.237236 0.000000
vn 0.964695 -0.263370 0.000000
vn 0.000000 -1.000000 0.000000
vn -0.964050 -0.265720 0.000000
vn -0.967117 -0.254333 0.000000
vn -0.970049 -0.242908 0.000000
vn -0.972846 -0.231452 0.000000
vn 0.972574 -0.232594 0.000000
vn 0.963827 -0.266529 0.000000
vn 0.000000 0.000000 1.000000
# 24 normals

g Text
s 1
f 1/1/1 3/1/1 2/1/1
f 1/1/1 4/1/1 3/1/1
f 5/1/2 7/1/2 6/1/2
f 5/1/2 8/1/2 7/1/2
f 9/1/3 11/1/3 10/1/3
f 9/1/3 12/1/3 11/1/3
f 13/1/4 16/1/5 14/1/4
f 13/1/4 15/1/6 16/1/5
f 15/1/6 18/1/7 16/1/5
f 15/1/6 17/1/7 18/1/7
f 19/1/8 22/1/8 20/1/8
f 19/1/8 21/1/8 22/1/8
f 23/1/9 25/1/9 24/1/9
f 23/1/9 26/1/9 25/1/9
f 27/1/2 29/1/2 28/1/2
f 27/1/2 30/1/2 29/1/2
f 31/1/10 34/1/11 32/1/10
f 31/1/10 33/1/12 34/1/11
f 33/1/12 36/1/13 34/1/11
f 33/1/12 35/1/13 36/1/13
f 37/1/14 40/1/14 38/1/14
f 37/1/14 39/1/14 40/1/14
f 41/1/15 43/1/15 42/1/15
f 41/1/15 44/1/15 43/1/15
f 45/1/2 47/1/2 46/1/2
f 45/1/2 48/1/2 47/1/2
f 49/1/16 51/1/16 50/1/16
f 49/1/16 52/1/16 51/1/16
f 53/1/17 55/1/17 54/1/17
f 53/1/17 56/1/17 55/1/17
f 57/1/18 60/1/19 58/1/18
f 57/1/18 59/1/20 60/1/19
f 59/1/20 62/1/21 60/1/19
f 59/1/20 61/1/21 62/1/21
f 63/1/22 66/1/22 64/1/22
f 63/1/22 65/1/22 66/1/22
f 67/1/23 69/1/23 68/1/23
f 67/1/23 70/1/23 69/1/23
f 71/1/17 73/1/17 72/1/17
f 71/1/17 74/1/17 73/1/17
f 75/1/24 76/1/24 77/1/24
f 75/1/24 77/1/24 78/1/24
f 75/1/24 78/1/24 79/1/24
f 75/1/24 79/1/24 80/1/24
f 81/1/24 82/1/24 83/1/24
f 83/1/24 82/1/24 84/1/24
f 83/1/24 84/1/24 85/1/24
f 85/1/24 84/1/24 86/1/24
f 87/1/24 88/1/24 89/1/24
f 87/1/24 89/1/24 90/1/24
f 87/1/24 90/1/24 91/1/24
f 87/1/24 91/1/24 92/1/24
f 93/1/24 94/1/24 95/1/24
f 93/1/24 95/1/24 96/1/24
f 93/1/24 96/1/24 97/1/24
f 93/1/24 97/1/24 98/1/24
f 99/1/24 100/1/24 101/1/24
f 99/1/24 101/1/24 102/1/24
# 58 triangles in group

# 58 triangles total

