# Wavefront OBJ exported by MilkShape 3D

v 4.971313 0.008555 -0.007678
v 4.971313 0.008555 -3.007679
v 4.971313 5.435953 -3.007679
v 4.971313 5.435953 -0.007678
v 4.971313 5.435953 -0.007678
v 4.971313 5.435953 -3.007679
v 0.029906 12.821054 -3.007679
v 0.029906 12.821054 -0.007678
v 0.029906 12.821054 -0.007678
v 0.029906 12.821054 -3.007679
v 2.093047 12.821054 -3.007679
v 2.093047 12.821054 -0.007678
v 2.093047 12.821054 -0.007678
v 2.093047 12.821054 -3.007679
v 5.328216 7.879649 -0.007678
v 5.328216 7.879649 -3.007679
v 5.929107 6.788798 -0.007678
v 5.929107 6.788798 -3.007679
v 5.929107 6.788798 -0.007678
v 5.929107 6.788798 -3.007679
v 6.505889 7.793131 -0.007678
v 6.505889 7.793131 -3.007679
v 6.505889 7.793131 -0.007678
v 6.505889 7.793131 -3.007679
v 9.811705 12.821054 -3.007679
v 9.811705 12.821054 -0.007678
v 9.811705 12.821054 -0.007678
v 9.811705 12.821054 -3.007679
v 11.787718 12.821054 -3.007679
v 11.787718 12.821054 -0.007678
v 11.787718 12.821054 -0.007678
v 11.787718 12.821054 -3.007679
v 6.670531 5.435953 -3.007679
v 6.670531 5.435953 -0.007678
v 6.670531 5.435953 -0.007678
v 6.670531 5.435953 -3.007679
v 6.670531 0.008555 -3.007679
v 6.670531 0.008555 -0.007678
v 6.670531 0.008555 -0.007678
v 6.670531 0.008555 -3.007679
v 4.971313 0.008555 -3.007679
v 4.971313 0.008555 -0.007678
v 6.505889 7.793131 -0.007678
v 5.929107 6.788798 -0.007678
v 6.670531 0.008555 -0.007678
v 5.328216 7.879649 -0.007678
v 4.971313 5.435953 -0.007678
v 2.093047 12.821054 -0.007678
v 0.029906 12.821054 -0.007678
v 6.670531 5.435953 -0.007678
v 11.787718 12.821054 -0.007678
v 9.811705 12.821054 -0.007678
v 6.505889 7.793131 -0.007678
v 6.670531 0.008555 -0.007678
v 6.670531 0.008555 -0.007678
v 4.971313 5.435953 -0.007678
v 4.971313 0.008555 -0.007678
# 57 vertices

vt 0.000000 1.000000
# 1 texture coordinates

vn -1.000000 0.000000 0.000000
vn -0.831114 -0.556102 0.000000
vn 0.000000 1.000000 0.000000
vn 0.836640 0.547753 0.000000
vn 0.850276 0.526337 0.000000
vn 0.863372 0.504568 0.000000
vn 0.875903 0.482488 0.000000
vn -0.867171 0.498011 0.000000
vn -0.835572 0.549381 0.000000
vn 0.821962 -0.569543 0.000000
vn 1.000000 0.000000 0.000000
vn 0.000000 -1.000000 0.000000
vn 0.000000 0.000000 1.000000
# 13 normals

g Text
s 1
f 1/1/1 3/1/1 2/1/1
f 1/1/1 4/1/1 3/1/1
f 5/1/2 7/1/2 6/1/2
f 5/1/2 8/1/2 7/1/2
f 9/1/3 11/1/3 10/1/3
f 9/1/3 12/1/3 11/1/3
f 13/1/4 16/1/5 14/1/4
f 13/1/4 15/1/6 16/1/5
f 15/1/6 18/1/7 16/1/5
f 15/1/6 17/1/7 18/1/7
f 19/1/8 22/1/8 20/1/8
f 19/1/8 21/1/8 22/1/8
f 23/1/9 25/1/9 24/1/9
f 23/1/9 26/1/9 25/1/9
f 27/1/3 29/1/3 28/1/3
f 27/1/3 30/1/3 29/1/3
f 31/1/10 33/1/10 32/1/10
f 31/1/10 34/1/10 33/1/10
f 35/1/11 37/1/11 36/1/11
f 35/1/11 38/1/11 37/1/11
f 39/1/12 41/1/12 40/1/12
f 39/1/12 42/1/12 41/1/12
f 43/1/13 44/1/13 45/1/13
f 45/1/13 44/1/13 46/1/13
f 45/1/13 46/1/13 47/1/13
f 47/1/13 46/1/13 48/1/13
f 47/1/13 48/1/13 49/1/13
f 50/1/13 51/1/13 52/1/13
f 50/1/13 52/1/13 53/1/13
f 50/1/13 53/1/13 54/1/13
f 55/1/13 56/1/13 57/1/13
# 31 triangles in group

# 31 triangles total

