# Wavefront OBJ exported by MilkShape 3D

v 0.000073 0.017480 -0.010410
v 0.000073 0.017480 -3.010410
v 0.000073 1.592339 -3.010410
v 0.000073 1.592339 -0.010410
v 0.000073 1.592339 -0.010410
v 0.000073 1.592339 -3.010410
v 7.278058 10.665672 -0.010410
v 7.278058 10.665672 -3.010410
v 7.907786 11.316307 -0.010410
v 7.907786 11.316307 -3.010410
v 7.907786 11.316307 -0.010410
v 7.907786 11.316307 -3.010410
v 0.742260 11.316307 -3.010410
v 0.742260 11.316307 -0.010410
v 0.742260 11.316307 -0.010410
v 0.742260 11.316307 -3.010410
v 0.742260 12.829979 -3.010410
v 0.742260 12.829979 -0.010410
v 0.742260 12.829979 -0.010410
v 0.742260 12.829979 -3.010410
v 9.931712 12.829979 -3.010410
v 9.931712 12.829979 -0.010410
v 9.931712 12.829979 -0.010410
v 9.931712 12.829979 -3.010410
v 9.931712 11.316307 -3.010410
v 9.931712 11.316307 -0.010410
v 9.931712 11.316307 -0.010410
v 9.931712 11.316307 -3.010410
v 2.725750 2.436608 -3.010410
v 2.725750 2.436608 -0.010410
v 2.725750 2.436608 -0.010410
v 2.725750 2.436608 -3.010410
v 1.949230 1.531152 -3.010410
v 1.949230 1.531152 -0.010410
v 1.949230 1.531152 -0.010410
v 1.949230 1.531152 -3.010410
v 10.136790 1.531152 -3.010410
v 10.136790 1.531152 -0.010410
v 10.136790 1.531152 -0.010410
v 10.136790 1.531152 -3.010410
v 10.136790 0.017480 -3.010410
v 10.136790 0.017480 -0.010410
v 10.136790 0.017480 -0.010410
v 10.136790 0.017480 -3.010410
v 0.000073 0.017480 -3.010410
v 0.000073 0.017480 -0.010410
v 1.949230 1.531152 -0.010410
v 2.725750 2.436608 -0.010410
v 7.278058 10.665672 -0.010410
v 0.000073 1.592339 -0.010410
v 10.136790 0.017480 -0.010410
v 10.136790 1.531152 -0.010410
v 7.907786 11.316307 -0.010410
v 7.278058 10.665672 -0.010410
v 9.931712 11.316307 -0.010410
v 9.931712 12.829979 -0.010410
v 0.742260 12.829979 -0.010410
v 0.742260 11.316307 -0.010410
v 7.278058 10.665672 -0.010410
v 2.725750 2.436608 -0.010410
v 9.931712 11.316307 -0.010410
v 10.136790 0.017480 -0.010410
v 0.000073 1.592339 -0.010410
v 0.000073 0.017480 -0.010410
# 64 vertices

vt 0.000000 1.000000
# 1 texture coordinates

vn -1.000000 0.000000 0.000000
vn -0.780058 0.625707 0.000000
vn -0.760289 0.649585 0.000000
vn -0.739769 0.672861 0.000000
vn -0.718557 0.695468 0.000000
vn 0.000000 -1.000000 0.000000
vn 0.000000 1.000000 0.000000
vn 1.000000 0.000000 0.000000
vn 0.776490 -0.630129 0.000000
vn 0.759085 -0.650992 0.000000
vn 0.000000 0.000000 1.000000
# 11 normals

g Text
s 1
f 1/1/1 3/1/1 2/1/1
f 1/1/1 4/1/1 3/1/1
f 5/1/2 8/1/3 6/1/2
f 5/1/2 7/1/4 8/1/3
f 7/1/4 10/1/5 8/1/3
f 7/1/4 9/1/5 10/1/5
f 11/1/6 13/1/6 12/1/6
f 11/1/6 14/1/6 13/1/6
f 15/1/1 17/1/1 16/1/1
f 15/1/1 18/1/1 17/1/1
f 19/1/7 21/1/7 20/1/7
f 19/1/7 22/1/7 21/1/7
f 23/1/8 25/1/8 24/1/8
f 23/1/8 26/1/8 25/1/8
f 27/1/9 29/1/9 28/1/9
f 27/1/9 30/1/9 29/1/9
f 31/1/10 33/1/10 32/1/10
f 31/1/10 34/1/10 33/1/10
f 35/1/7 37/1/7 36/1/7
f 35/1/7 38/1/7 37/1/7
f 39/1/8 41/1/8 40/1/8
f 39/1/8 42/1/8 41/1/8
f 43/1/6 45/1/6 44/1/6
f 43/1/6 46/1/6 45/1/6
f 47/1/11 48/1/11 49/1/11
f 47/1/11 49/1/11 50/1/11
f 47/1/11 50/1/11 51/1/11
f 47/1/11 51/1/11 52/1/11
f 53/1/11 54/1/11 55/1/11
f 53/1/11 55/1/11 56/1/11
f 53/1/11 56/1/11 57/1/11
f 53/1/11 57/1/11 58/1/11
f 59/1/11 60/1/11 61/1/11
f 62/1/11 63/1/11 64/1/11
# 34 triangles in group

# 34 triangles total

