0
SECTION
2
HEADER
999
DXF File Generated by LightWave 3D(TM)
0
ENDSEC
0
SECTION
2
TABLES
0
ENDSEC
0
SECTION
2
BLOCKS
0
ENDSEC
0
SECTION
2
ENTITIES
0
3DFACE
8
0
70
0
10
-2.483208
20
-72.631790
30
126.492805
11
9.510323
21
-97.717369
31
71.085083
12
71.937241
22
-92.450623
32
62.476151
13
87.640396
23
-64.565529
33
98.060745
0
3DFACE
8
0
70
0
10
87.640388
20
-27.502716
30
-42.691891
11
102.134308
21
-37.215714
31
-11.730216
12
55.967350
22
-12.740585
32
-43.078556
13
-2.483215
23
-20.284058
33
-72.306999
0
3DFACE
8
0
70
0
10
-2.483207
20
-84.062859
30
152.832260
11
-2.483208
21
-72.631790
31
126.492805
12
87.640396
22
-64.565529
32
98.060745
13
116.679024
23
-74.226631
33
117.827309
0
3DFACE
8
0
70
0
10
116.679024
20
-27.322464
30
-60.299576
11
87.640388
21
-27.502716
31
-42.691891
12
-2.483215
22
-20.284058
32
-72.306999
13
-2.483216
23
-18.866074
33
-94.764107
0
3DFACE
8
0
70
0
10
-2.483207
20
-85.199844
30
166.027634
11
123.904533
21
-74.197319
31
126.516075
12
143.588806
22
-35.044830
32
111.181595
13
-2.483203
23
-45.348465
33
150.419434
0
3DFACE
8
0
70
0
10
123.904526
20
-21.195618
30
-74.767296
11
-2.483217
21
-11.527481
31
-113.756256
12
-2.481551
22
28.291733
32
-129.352905
13
143.588806
23
17.956879
33
-90.101768
0
3DFACE
8
0
70
0
10
-2.483203
20
-45.348465
30
150.419434
11
143.588806
21
-35.044830
31
111.181595
12
135.279495
22
-31.638702
32
101.147308
13
-2.483204
23
-40.745819
33
135.866699
0
3DFACE
8
0
70
0
10
-2.483207
20
-85.199844
30
166.027634
11
-2.483207
21
-84.062859
31
152.832260
12
116.679024
22
-74.226631
32
117.827309
13
123.904533
23
-74.197319
33
126.516075
0
3DFACE
8
0
70
0
10
143.588806
20
17.956879
30
-90.101768
11
-2.481551
21
28.291733
31
-129.352905
12
-2.374479
22
23.276489
32
-111.322395
13
135.279480
23
15.265457
33
-76.979576
0
3DFACE
8
0
70
0
10
123.904526
20
-21.195618
30
-74.767296
11
116.679024
21
-27.322464
31
-60.299576
12
-2.483216
22
-18.866074
32
-94.764107
13
-2.483217
23
-11.527481
33
-113.756256
0
3DFACE
8
0
70
0
10
27.673773
20
-119.444244
30
102.617195
11
74.813721
21
-119.444244
31
102.617195
12
66.977409
22
-98.812729
32
87.801697
13
33.987896
23
-98.998032
33
87.801697
0
3DFACE
8
0
70
0
10
87.640396
20
-64.565529
30
98.060745
11
71.937241
21
-92.450623
31
62.476151
12
100.337868
22
-69.265404
32
27.379168
13
109.266663
23
-46.439774
33
29.224985
0
3DFACE
8
0
70
0
10
116.679024
20
-74.226631
30
117.827309
11
87.640396
21
-64.565529
31
98.060745
12
109.266663
22
-46.439774
32
29.224985
13
145.564972
23
-51.408386
33
31.170994
0
3DFACE
8
0
70
0
10
143.588806
20
-35.044830
30
111.181595
11
123.904533
21
-74.197319
31
126.516075
12
154.596832
22
-48.824699
32
30.159067
13
178.884964
23
-9.672211
33
14.824594
0
3DFACE
8
0
70
0
10
178.884964
20
-9.672211
30
14.824594
11
168.498322
21
-8.820465
31
14.490994
12
135.279495
22
-31.638702
32
101.147308
13
143.588806
23
-35.044830
33
111.181595
0
3DFACE
8
0
70
0
10
123.904533
20
-74.197319
30
126.516075
11
116.679024
21
-74.226631
31
117.827309
12
145.564972
22
-51.408386
32
31.170994
13
154.596832
23
-48.824699
33
30.159067
0
3DFACE
8
0
70
0
10
12.906889
20
-152.844193
30
102.617195
11
80.090286
21
-153.029510
31
102.617195
12
74.813721
22
-119.444244
32
102.617195
13
27.673773
23
-119.444244
33
102.617195
0
3DFACE
8
0
70
0
10
-2.249918
20
124.089478
30
-16.433134
11
71.293900
21
112.832642
31
-16.602907
12
66.875900
22
105.274628
32
-60.858238
13
-2.224000
23
118.126221
33
-66.393799
0
3DFACE
8
0
70
0
10
109.266663
20
-46.439774
30
29.224985
11
100.337868
21
-69.265404
31
27.379168
12
102.134308
22
-37.215714
32
-11.730216
13
87.640388
23
-27.502716
33
-42.691891
0
3DFACE
8
0
70
0
10
145.564972
20
-51.408386
30
31.170994
11
109.266663
21
-46.439774
31
29.224985
12
87.640388
22
-27.502716
32
-42.691891
13
116.679024
23
-27.322464
33
-60.299576
0
3DFACE
8
0
70
0
10
154.596832
20
-48.824699
30
30.159067
11
123.904526
21
-21.195618
31
-74.767296
12
143.588806
22
17.956879
32
-90.101768
13
178.884964
23
-9.672211
33
14.824594
0
3DFACE
8
0
70
0
10
143.588806
20
17.956879
30
-90.101768
11
135.279480
21
15.265457
31
-76.979576
12
168.498322
22
-8.820465
32
14.490994
13
178.884964
23
-9.672211
33
14.824594
0
3DFACE
8
0
70
0
10
154.596832
20
-48.824699
30
30.159067
11
145.564972
21
-51.408386
31
31.170994
12
116.679024
22
-27.322464
32
-60.299576
13
123.904526
23
-21.195618
33
-74.767296
0
3DFACE
8
0
70
0
10
19.731447
20
-77.492615
30
20.542637
11
9.510323
21
-97.717369
31
71.085083
12
22.118103
22
-55.429680
32
11.000056
13
21.870173
23
-54.901443
33
-4.480677
0
3DFACE
8
0
70
0
10
19.731447
20
-77.492615
30
20.542637
11
77.685738
21
-82.228271
31
26.764076
12
71.937241
22
-92.450623
32
62.476151
13
9.510323
23
-97.717369
33
71.085083
0
3DFACE
8
0
70
0
10
77.685738
20
-82.228271
30
26.764076
11
99.063492
21
-72.196098
31
15.993211
12
100.337868
22
-69.265404
32
27.379168
13
71.937241
23
-92.450623
33
62.476151
0
3DFACE
8
0
70
0
10
21.870173
20
-54.901443
30
-4.480677
11
22.118103
21
-55.429680
31
11.000056
12
55.967350
22
-12.740585
32
-43.078556
13
44.702099
23
-35.952194
33
-25.118431
0
3DFACE
8
0
70
0
10
99.063492
20
-72.196098
30
15.993211
11
93.916664
21
-55.227005
31
-2.915613
12
102.134308
22
-37.215714
32
-11.730216
13
100.337868
23
-69.265404
33
27.379168
0
3DFACE
8
0
70
0
10
93.916664
20
-55.227005
30
-2.915613
11
44.702099
21
-35.952194
31
-25.118431
12
55.967350
22
-12.740585
32
-43.078556
13
102.134308
23
-37.215714
33
-11.730216
0
3DFACE
8
0
70
0
10
20.009071
20
-109.875443
30
-6.997313
11
27.673773
21
-127.827744
31
43.725594
12
33.987896
22
-108.736435
32
35.947453
13
25.487289
23
-93.294418
33
13.963548
0
3DFACE
8
0
70
0
10
25.487289
20
-93.294418
30
13.963548
11
33.987896
21
-108.736435
31
35.947453
12
66.977409
22
-112.334427
32
35.947453
13
69.758202
23
-101.398972
33
15.895651
0
3DFACE
8
0
70
0
10
81.668785
20
-116.990021
30
7.681084
11
69.758202
21
-101.398972
31
15.895651
12
66.977409
22
-112.334427
32
35.947453
13
74.813721
23
-127.827744
33
43.725594
0
3DFACE
8
0
70
0
10
2.932309
20
-126.159157
30
-31.986113
11
16.610764
21
-150.617310
31
32.613968
12
27.673773
22
-127.827744
32
43.725594
13
20.009071
23
-109.875443
33
-6.997313
0
3DFACE
8
0
70
0
10
93.520767
20
-136.006134
30
-8.792943
11
81.668785
21
-116.990021
31
7.681084
12
74.813721
22
-127.827744
32
43.725594
13
83.794151
23
-150.723206
33
36.317848
0
3DFACE
8
0
70
0
10
93.520767
20
-136.006134
30
-8.792943
11
83.794151
21
-150.723206
31
36.317848
12
16.610764
22
-150.617310
32
32.613968
13
2.932309
23
-126.159157
33
-31.986113
0
3DFACE
8
0
70
0
10
27.673773
20
-119.444244
30
102.617195
11
33.987896
21
-98.998032
31
87.801697
12
33.987896
22
-108.736435
32
35.947453
13
27.673773
23
-127.827744
33
43.725594
0
3DFACE
8
0
70
0
10
33.987896
20
-98.998032
30
87.801697
11
66.977409
21
-98.812729
31
87.801697
12
66.977409
22
-112.334427
32
35.947453
13
33.987896
23
-108.736435
33
35.947453
0
3DFACE
8
0
70
0
10
74.813721
20
-119.444244
30
102.617195
11
74.813721
21
-127.827744
31
43.725594
12
66.977409
22
-112.334427
32
35.947453
13
66.977409
23
-98.812729
33
87.801697
0
3DFACE
8
0
70
0
10
12.906889
20
-152.844193
30
102.617195
11
27.673773
21
-119.444244
31
102.617195
12
27.673773
22
-127.827744
32
43.725594
13
16.610764
23
-150.617310
33
32.613968
0
3DFACE
8
0
70
0
10
80.090286
20
-153.029510
30
102.617195
11
83.794151
21
-150.723206
31
36.317848
12
74.813721
22
-127.827744
32
43.725594
13
74.813721
23
-119.444244
33
102.617195
0
3DFACE
8
0
70
0
10
80.090286
20
-153.029510
30
102.617195
11
12.906889
21
-152.844193
31
102.617195
12
16.610764
22
-150.617310
32
32.613968
13
83.794151
23
-150.723206
33
36.317848
0
3DFACE
8
0
70
0
10
224.560699
20
163.794586
30
245.908493
11
237.966385
21
170.343811
31
227.889191
12
225.786606
22
185.012573
32
238.473816
13
208.653000
23
174.785492
33
246.482422
0
3DFACE
8
0
70
0
10
96.141495
20
95.960892
30
-41.664177
11
66.875900
21
105.274628
31
-60.858238
12
71.293900
22
112.832642
32
-16.602907
13
71.293900
23
112.832642
33
-16.602907
0
3DFACE
8
0
70
0
10
88.603920
20
86.234680
30
38.390610
11
71.293900
21
112.832642
31
-16.602907
12
67.856644
22
63.591476
32
50.032574
13
67.856644
23
63.591476
33
50.032574
0
3DFACE
8
0
70
0
10
145.563080
20
143.748291
30
95.754990
11
182.044922
21
111.714508
31
98.062973
12
186.293579
22
116.861206
32
133.643127
13
150.710922
23
151.136597
33
130.734558
0
3DFACE
8
0
70
0
10
191.554550
20
167.934448
30
84.659081
11
145.563080
21
143.748291
31
95.754990
12
150.710922
22
151.136597
32
130.734558
13
196.144775
23
177.247131
33
119.292160
0
3DFACE
8
0
70
0
10
223.871094
20
142.231689
30
123.360542
11
220.005905
21
134.687286
31
88.251694
12
191.554550
22
167.934448
32
84.659081
13
196.144775
23
177.247131
33
119.292160
0
3DFACE
8
0
70
0
10
182.044922
20
111.714508
30
98.062973
11
220.005905
21
134.687286
31
88.251694
12
223.871094
22
142.231689
32
123.360542
13
186.293579
23
116.861206
33
133.643127
0
3DFACE
8
0
70
0
10
185.513672
20
105.609344
30
136.182892
11
189.437134
21
109.557007
31
169.897537
12
143.671631
22
159.629700
32
163.931747
13
138.748749
23
152.924072
33
131.868347
0
3DFACE
8
0
70
0
10
138.748749
20
152.924072
30
131.868347
11
143.671631
21
159.629700
31
163.931747
12
203.094910
22
198.512177
32
147.122696
13
198.937210
23
189.578552
33
116.262230
0
3DFACE
8
0
70
0
10
238.690598
20
148.064209
30
154.354523
11
235.320175
21
141.169617
31
122.134651
12
198.937210
22
189.578552
32
116.262230
13
203.094910
23
198.512177
33
147.122696
0
3DFACE
8
0
70
0
10
185.513672
20
105.609344
30
136.182892
11
235.320175
21
141.169617
31
122.134651
12
238.690598
22
148.064209
32
154.354523
13
189.437134
23
109.557007
33
169.897537
0
3DFACE
8
0
70
0
10
185.513672
20
105.609344
30
136.182892
11
138.748749
21
152.924072
31
131.868347
12
150.710922
22
151.136597
32
130.734558
13
186.293579
23
116.861206
33
133.643127
0
3DFACE
8
0
70
0
10
189.437134
20
109.557007
30
169.897537
11
190.295029
21
121.708405
31
167.152740
12
155.431168
22
157.911163
32
162.808746
13
143.671631
23
159.629700
33
163.931747
0
3DFACE
8
0
70
0
10
138.748749
20
152.924072
30
131.868347
11
198.937210
21
189.578552
31
116.262230
12
196.144775
22
177.247131
32
119.292160
13
150.710922
23
151.136597
33
130.734558
0
3DFACE
8
0
70
0
10
143.671631
20
159.629700
30
163.931747
11
155.431168
21
157.911163
31
162.808746
12
200.253082
22
185.581909
32
150.288803
13
203.094910
23
198.512177
33
147.122696
0
3DFACE
8
0
70
0
10
238.690598
20
148.064209
30
154.354523
11
203.094910
21
198.512177
31
147.122696
12
200.253082
22
185.581909
32
150.288803
13
227.415237
23
149.149414
33
155.553284
0
3DFACE
8
0
70
0
10
235.320175
20
141.169617
30
122.134651
11
223.871094
21
142.231689
31
123.360542
12
196.144775
22
177.247131
32
119.292160
13
198.937210
23
189.578552
33
116.262230
0
3DFACE
8
0
70
0
10
189.437134
20
109.557007
30
169.897537
11
238.690598
21
148.064209
31
154.354523
12
227.415237
22
149.149414
32
155.553284
13
190.295029
23
121.708405
33
167.152740
0
3DFACE
8
0
70
0
10
185.513672
20
105.609344
30
136.182892
11
186.293579
21
116.861206
31
133.643127
12
223.871094
22
142.231689
32
123.360542
13
235.320175
23
141.169617
33
122.134651
0
3DFACE
8
0
70
0
10
198.507629
20
131.310852
30
152.845947
11
172.901321
21
151.734863
31
153.775299
12
155.431168
22
157.911163
32
162.808746
13
190.295029
23
121.708405
33
167.152740
0
3DFACE
8
0
70
0
10
172.901321
20
151.734863
30
153.775299
11
199.499130
21
171.038025
31
141.047729
12
200.253082
22
185.581909
32
150.288803
13
155.431168
23
157.911163
33
162.808746
0
3DFACE
8
0
70
0
10
220.126312
20
150.063446
30
141.480270
11
227.415237
21
149.149414
31
155.553284
12
200.253082
22
185.581909
32
150.288803
13
199.499130
23
171.038025
33
141.047729
0
3DFACE
8
0
70
0
10
198.507629
20
131.310852
30
152.845947
11
190.295029
21
121.708405
31
167.152740
12
227.415237
22
149.149414
32
155.553284
13
220.126312
23
150.063446
33
141.480270
0
3DFACE
8
0
70
0
10
162.277405
20
152.251648
30
208.568832
11
161.489044
21
162.790741
31
205.577652
12
158.287903
22
160.141907
32
193.302200
13
158.961578
23
149.602417
33
196.301987
0
3DFACE
8
0
70
0
10
161.489044
20
162.790741
30
205.577652
11
161.451416
21
173.689056
31
202.334961
12
158.134689
22
171.048309
32
190.108429
13
158.287903
23
160.141907
33
193.302200
0
3DFACE
8
0
70
0
10
241.006424
20
157.254150
30
169.382919
11
220.126312
21
150.063446
31
141.480270
12
199.499130
22
171.038025
32
141.047729
13
211.618179
23
178.527435
33
171.183487
0
3DFACE
8
0
70
0
10
209.558670
20
138.862305
30
183.361740
11
198.507629
21
131.310852
31
152.845947
12
220.126312
22
150.063446
32
141.480270
13
241.006424
23
157.254150
33
169.382919
0
3DFACE
8
0
70
0
10
224.560699
20
163.794586
30
245.908493
11
208.653000
21
174.785492
31
246.482422
12
183.876694
22
163.815063
32
198.872009
13
209.558670
23
138.862305
33
183.361740
0
3DFACE
8
0
70
0
10
208.653000
20
174.785492
30
246.482422
11
225.786606
21
185.012573
31
238.473816
12
211.618179
22
178.527435
32
171.183487
13
183.876694
23
163.815063
33
198.872009
0
3DFACE
8
0
70
0
10
237.966385
20
170.343811
30
227.889191
11
241.006424
21
157.254150
31
169.382919
12
211.618179
22
178.527435
32
171.183487
13
225.786606
23
185.012573
33
238.473816
0
3DFACE
8
0
70
0
10
224.560699
20
163.794586
30
245.908493
11
209.558670
21
138.862305
31
183.361740
12
241.006424
22
157.254150
32
169.382919
13
237.966385
23
170.343811
33
227.889191
0
3DFACE
8
0
70
0
10
162.277405
20
152.251648
30
208.568832
11
158.961578
21
149.602417
31
196.301987
12
198.507629
22
131.310852
32
152.845947
13
209.558670
23
138.862305
33
183.361740
0
3DFACE
8
0
70
0
10
158.961578
20
149.602417
30
196.301987
11
158.287903
21
160.141907
31
193.302200
12
172.901321
22
151.734863
32
153.775299
13
198.507629
23
131.310852
33
152.845947
0
3DFACE
8
0
70
0
10
162.277405
20
152.251648
30
208.568832
11
209.558670
21
138.862305
31
183.361740
12
183.876694
22
163.815063
32
198.872009
13
161.489044
23
162.790741
33
205.577652
0
3DFACE
8
0
70
0
10
158.287903
20
160.141907
30
193.302200
11
158.134689
21
171.048309
31
190.108429
12
199.499130
22
171.038025
32
141.047729
13
172.901321
23
151.734863
33
153.775299
0
3DFACE
8
0
70
0
10
161.451416
20
173.689056
30
202.334961
11
211.618179
21
178.527435
31
171.183487
12
199.499130
22
171.038025
32
141.047729
13
158.134689
23
171.048309
33
190.108429
0
3DFACE
8
0
70
0
10
161.489044
20
162.790741
30
205.577652
11
183.876694
21
163.815063
31
198.872009
12
211.618179
22
178.527435
32
171.183487
13
161.451416
23
173.689056
33
202.334961
0
3DFACE
8
0
70
0
10
-2.483208
20
-72.631790
30
126.492805
11
-92.606804
21
-64.565544
31
98.060738
12
-78.075577
22
-91.823502
32
64.409248
13
-15.974757
23
-97.162567
33
74.029907
0
3DFACE
8
0
70
0
10
-92.606812
20
-27.502724
30
-42.691895
11
-2.483215
21
-20.284058
31
-72.306999
12
-59.620724
22
-15.088196
32
-41.989681
13
-106.445450
23
-38.475159
33
-11.003481
0
3DFACE
8
0
70
0
10
-2.483207
20
-84.062859
30
152.832260
11
-121.645447
21
-74.226646
31
117.827301
12
-92.606804
22
-64.565544
32
98.060738
13
-2.483208
23
-72.631790
33
126.492805
0
3DFACE
8
0
70
0
10
-121.645454
20
-27.322479
30
-60.299580
11
-2.483216
21
-18.866074
31
-94.764107
12
-2.483215
22
-20.284058
32
-72.306999
13
-92.606812
23
-27.502724
33
-42.691895
0
3DFACE
8
0
70
0
10
-2.483207
20
-85.199844
30
166.027634
11
-2.483203
21
-45.348465
31
150.419434
12
-148.555222
22
-35.044846
32
111.181587
13
-128.870941
23
-74.197334
33
126.516068
0
3DFACE
8
0
70
0
10
-128.870941
20
-21.195633
30
-74.767303
11
-148.555222
21
17.956863
31
-90.101776
12
-2.481551
22
28.291733
32
-129.352905
13
-2.483217
23
-11.527481
33
-113.756256
0
3DFACE
8
0
70
0
10
-2.483203
20
-45.348465
30
150.419434
11
-2.483204
21
-40.745819
31
135.866699
12
-140.245895
22
-31.638718
32
101.147301
13
-148.555222
23
-35.044846
33
111.181587
0
3DFACE
8
0
70
0
10
-2.483207
20
-85.199844
30
166.027634
11
-128.870941
21
-74.197334
31
126.516068
12
-121.645447
22
-74.226646
32
117.827301
13
-2.483207
23
-84.062859
33
152.832260
0
3DFACE
8
0
70
0
10
-148.555222
20
17.956863
30
-90.101776
11
-140.245911
21
15.265442
31
-76.979584
12
-2.374479
22
23.276489
32
-111.322395
13
-2.481551
23
28.291733
33
-129.352905
0
3DFACE
8
0
70
0
10
-128.870941
20
-21.195633
30
-74.767303
11
-2.483217
21
-11.527481
31
-113.756256
12
-2.483216
22
-18.866074
32
-94.764107
13
-121.645454
23
-27.322479
33
-60.299580
0
3DFACE
8
0
70
0
10
-31.473774
20
-119.444244
30
102.617195
11
-37.787899
21
-98.998032
31
87.801697
12
-70.777412
22
-98.812729
32
87.801697
13
-78.613716
23
-119.444244
33
102.617195
0
3DFACE
8
0
70
0
10
-92.606804
20
-64.565544
30
98.060738
11
-114.233078
21
-46.439789
31
29.224979
12
-105.630798
22
-69.509338
32
28.750584
13
-78.075577
23
-91.823502
33
64.409248
0
3DFACE
8
0
70
0
10
-121.645447
20
-74.226646
30
117.827301
11
-150.531403
21
-51.408401
31
31.170986
12
-114.233078
22
-46.439789
32
29.224979
13
-92.606804
23
-64.565544
33
98.060738
0
3DFACE
8
0
70
0
10
-148.555222
20
-35.044846
30
111.181587
11
-183.851379
21
-9.672226
31
14.824582
12
-159.563248
22
-48.824722
32
30.159058
13
-128.870941
23
-74.197334
33
126.516068
0
3DFACE
8
0
70
0
10
-183.851379
20
-9.672226
30
14.824582
11
-148.555222
21
-35.044846
31
111.181587
12
-140.245895
22
-31.638718
32
101.147301
13
-173.464722
23
-8.820480
33
14.490984
0
3DFACE
8
0
70
0
10
-128.870941
20
-74.197334
30
126.516068
11
-159.563248
21
-48.824722
31
30.159058
12
-150.531403
22
-51.408401
32
31.170986
13
-121.645447
23
-74.226646
33
117.827301
0
3DFACE
8
0
70
0
10
-16.706890
20
-152.844193
30
102.617195
11
-31.473774
21
-119.444244
31
102.617195
12
-78.613716
22
-119.444244
32
102.617195
13
-83.890282
23
-153.029510
33
102.617195
0
3DFACE
8
0
70
0
10
-2.249918
20
124.089478
30
-16.433134
11
-2.224000
21
118.126221
31
-66.393799
12
-71.524193
22
105.274628
32
-60.858242
13
-75.047646
23
112.383026
33
-14.215126
0
3DFACE
8
0
70
0
10
-114.233078
20
-46.439789
30
29.224979
11
-92.606812
21
-27.502724
31
-42.691895
12
-106.445450
22
-38.475159
32
-11.003481
13
-105.630798
23
-69.509338
33
28.750584
0
3DFACE
8
0
70
0
10
-150.531403
20
-51.408401
30
31.170986
11
-121.645454
21
-27.322479
31
-60.299580
12
-92.606812
22
-27.502724
32
-42.691895
13
-114.233078
23
-46.439789
33
29.224979
0
3DFACE
8
0
70
0
10
-159.563248
20
-48.824722
30
30.159058
11
-183.851379
21
-9.672226
31
14.824582
12
-148.555222
22
17.956863
32
-90.101776
13
-128.870941
23
-21.195633
33
-74.767303
0
3DFACE
8
0
70
0
10
-148.555222
20
17.956863
30
-90.101776
11
-183.851379
21
-9.672226
31
14.824582
12
-173.464722
22
-8.820480
32
14.490984
13
-140.245911
23
15.265442
33
-76.979584
0
3DFACE
8
0
70
0
10
-159.563248
20
-48.824722
30
30.159058
11
-128.870941
21
-21.195633
31
-74.767303
12
-121.645454
22
-27.322479
32
-60.299580
13
-150.531403
23
-51.408401
33
31.170986
0
3DFACE
8
0
70
0
10
-24.368286
20
-78.499985
30
21.667780
11
-26.536051
21
-55.902443
31
-3.322797
12
-27.172121
22
-56.509506
32
13.361057
13
-15.974757
23
-97.162567
33
74.029907
0
3DFACE
8
0
70
0
10
-24.368286
20
-78.499985
30
21.667780
11
-15.974757
21
-97.162567
31
74.029907
12
-78.075577
22
-91.823502
32
64.409248
13
-82.315468
23
-83.261848
33
27.934618
0
3DFACE
8
0
70
0
10
-82.315468
20
-83.261848
30
27.934618
11
-78.075577
21
-91.823502
31
64.409248
12
-105.630798
22
-69.509338
32
28.750584
13
-103.705772
23
-73.235550
33
17.196573
0
3DFACE
8
0
70
0
10
-26.536051
20
-55.902443
30
-3.322797
11
-49.391972
21
-36.956810
31
-23.914267
12
-59.620724
22
-15.088196
32
-41.989681
13
-27.172121
23
-56.509506
33
13.361057
0
3DFACE
8
0
70
0
10
-103.705772
20
-73.235550
30
17.196573
11
-105.630798
21
-69.509338
31
28.750584
12
-106.445450
22
-38.475159
32
-11.003481
13
-98.580864
23
-56.258789
33
-1.693712
0
3DFACE
8
0
70
0
10
-98.580864
20
-56.258789
30
-1.693712
11
-106.445450
21
-38.475159
31
-11.003481
12
-59.620724
22
-15.088196
32
-41.989681
13
-49.391972
23
-36.956810
33
-23.914267
0
3DFACE
8
0
70
0
10
-24.529167
20
-110.384354
30
-5.936313
11
-30.017845
21
-93.767693
31
14.971462
12
-37.787899
22
-108.736435
32
35.947453
13
-31.473774
23
-127.827744
33
43.725594
0
3DFACE
8
0
70
0
10
-30.017845
20
-93.767693
30
14.971462
11
-74.279625
21
-101.895187
31
16.941299
12
-70.777412
22
-112.334427
32
35.947453
13
-37.787899
23
-108.736435
33
35.947453
0
3DFACE
8
0
70
0
10
-86.177467
20
-117.513397
30
8.774266
11
-78.613716
21
-127.827744
31
43.725594
12
-70.777412
22
-112.334427
32
35.947453
13
-74.279625
23
-101.895187
33
16.941299
0
3DFACE
8
0
70
0
10
-7.443412
20
-126.703323
30
-30.874624
11
-24.529167
21
-110.384354
31
-5.936313
12
-31.473774
22
-127.827744
32
43.725594
13
-20.410763
23
-150.617310
33
32.613968
0
3DFACE
8
0
70
0
10
-98.015312
20
-136.569138
30
-7.637025
11
-87.594154
21
-150.723206
31
36.317848
12
-78.613716
22
-127.827744
32
43.725594
13
-86.177467
23
-117.513397
33
8.774266
0
3DFACE
8
0
70
0
10
-98.015312
20
-136.569138
30
-7.637025
11
-7.443412
21
-126.703323
31
-30.874624
12
-20.410763
22
-150.617310
32
32.613968
13
-87.594154
23
-150.723206
33
36.317848
0
3DFACE
8
0
70
0
10
-31.473774
20
-119.444244
30
102.617195
11
-31.473774
21
-127.827744
31
43.725594
12
-37.787899
22
-108.736435
32
35.947453
13
-37.787899
23
-98.998032
33
87.801697
0
3DFACE
8
0
70
0
10
-37.787899
20
-98.998032
30
87.801697
11
-37.787899
21
-108.736435
31
35.947453
12
-70.777412
22
-112.334427
32
35.947453
13
-70.777412
23
-98.812729
33
87.801697
0
3DFACE
8
0
70
0
10
-78.613716
20
-119.444244
30
102.617195
11
-70.777412
21
-98.812729
31
87.801697
12
-70.777412
22
-112.334427
32
35.947453
13
-78.613716
23
-127.827744
33
43.725594
0
3DFACE
8
0
70
0
10
-16.706890
20
-152.844193
30
102.617195
11
-20.410763
21
-150.617310
31
32.613968
12
-31.473774
22
-127.827744
32
43.725594
13
-31.473774
23
-119.444244
33
102.617195
0
3DFACE
8
0
70
0
10
-83.890282
20
-153.029510
30
102.617195
11
-78.613716
21
-119.444244
31
102.617195
12
-78.613716
22
-127.827744
32
43.725594
13
-87.594154
23
-150.723206
33
36.317848
0
3DFACE
8
0
70
0
10
-83.890282
20
-153.029510
30
102.617195
11
-87.594154
21
-150.723206
31
36.317848
12
-20.410763
22
-150.617310
32
32.613968
13
-16.706890
23
-152.844193
33
102.617195
0
3DFACE
8
0
70
0
10
-154.815704
20
144.595581
30
232.629517
11
-140.477890
21
156.861786
31
228.368973
12
-159.738480
22
166.347290
32
229.529343
13
-174.666840
23
151.991150
33
222.702896
0
3DFACE
8
0
70
0
10
-98.522919
20
97.751968
30
-43.606434
11
-75.047646
21
112.383026
31
-14.215126
12
-71.524193
22
105.274628
32
-60.858242
13
-71.524193
23
105.274628
33
-60.858242
0
3DFACE
8
0
70
0
10
-100.920235
20
80.138794
30
38.749729
11
-72.573097
21
63.591476
31
50.032570
12
-75.047646
22
112.383026
32
-14.215126
13
-75.047646
23
112.383026
33
-14.215126
0
3DFACE
8
0
70
0
10
-141.248383
20
134.589478
30
57.510292
11
-133.627884
21
134.586609
31
92.817314
12
-176.315262
22
111.673950
32
102.926125
13
-184.161697
23
114.154694
33
67.673233
0
3DFACE
8
0
70
0
10
-177.629547
20
172.341980
30
66.139473
11
-168.959442
21
174.062775
31
101.198204
12
-133.627884
22
134.586609
32
92.817314
13
-141.248383
23
134.589478
33
57.510292
0
3DFACE
8
0
70
0
10
-204.501465
20
148.037170
30
109.613266
11
-168.959442
21
174.062775
31
101.198204
12
-177.629547
22
172.341980
32
66.139473
13
-213.364532
23
148.275818
33
74.600708
0
3DFACE
8
0
70
0
10
-184.161697
20
114.154694
30
67.673233
11
-176.315262
21
111.673950
31
102.926125
12
-204.501465
22
148.037170
32
109.613266
13
-213.364532
23
148.275818
33
74.600708
0
3DFACE
8
0
70
0
10
-178.673325
20
100.369385
30
103.482124
11
-121.948624
21
132.713440
31
90.049568
12
-115.169540
22
132.704468
32
122.473412
13
-171.457413
23
97.124557
33
136.724518
0
3DFACE
8
0
70
0
10
-121.948624
20
132.713440
30
90.049568
11
-168.187546
21
187.040222
31
101.018410
12
-160.309738
22
189.184326
32
132.368149
13
-115.169540
23
132.704468
33
122.473412
0
3DFACE
8
0
70
0
10
-207.218719
20
150.173767
30
144.287643
11
-160.309738
21
189.184326
31
132.368149
12
-168.187546
22
187.040222
32
101.018410
13
-215.501755
23
150.468170
33
112.220222
0
3DFACE
8
0
70
0
10
-178.673325
20
100.369385
30
103.482124
11
-171.457413
21
97.124557
31
136.724518
12
-207.218719
22
150.173767
32
144.287643
13
-215.501755
23
150.468170
33
112.220222
0
3DFACE
8
0
70
0
10
-178.673325
20
100.369385
30
103.482124
11
-176.315262
21
111.673950
31
102.926125
12
-133.627884
22
134.586609
32
92.817314
13
-121.948624
23
132.713440
33
90.049568
0
3DFACE
8
0
70
0
10
-171.457413
20
97.124557
30
136.724518
11
-115.169540
21
132.704468
31
122.473412
12
-126.640350
22
134.583984
32
125.191750
13
-168.925446
23
109.337616
33
136.127518
0
3DFACE
8
0
70
0
10
-121.948624
20
132.713440
30
90.049568
11
-133.627884
21
134.586609
31
92.817314
12
-168.959442
22
174.062775
32
101.198204
13
-168.187546
23
187.040222
33
101.018410
0
3DFACE
8
0
70
0
10
-115.169540
20
132.704468
30
122.473412
11
-160.309738
21
189.184326
31
132.368149
12
-161.199738
22
175.602844
32
132.575806
13
-126.640350
23
134.583984
33
125.191750
0
3DFACE
8
0
70
0
10
-207.218719
20
150.173767
30
144.287643
11
-196.374573
21
147.818298
31
141.717682
12
-161.199738
22
175.602844
32
132.575806
13
-160.309738
23
189.184326
33
132.368149
0
3DFACE
8
0
70
0
10
-215.501755
20
150.468170
30
112.220222
11
-168.187546
21
187.040222
31
101.018410
12
-168.959442
22
174.062775
32
101.198204
13
-204.501465
23
148.037170
33
109.613266
0
3DFACE
8
0
70
0
10
-171.457413
20
97.124557
30
136.724518
11
-168.925446
21
109.337616
31
136.127518
12
-196.374573
22
147.818298
32
141.717682
13
-207.218719
23
150.173767
33
144.287643
0
3DFACE
8
0
70
0
10
-178.673325
20
100.369385
30
103.482124
11
-215.501755
21
150.468170
31
112.220222
12
-204.501465
22
148.037170
32
109.613266
13
-176.315262
23
111.673950
33
102.926125
0
3DFACE
8
0
70
0
10
-169.345764
20
124.617676
30
130.632767
11
-168.925446
21
109.337616
31
136.127518
12
-126.640350
22
134.583984
32
125.191750
13
-144.697998
23
144.682251
33
123.816521
0
3DFACE
8
0
70
0
10
-144.697998
20
144.682251
30
123.816521
11
-126.640350
21
134.583984
31
125.191750
12
-161.199738
22
175.602844
32
132.575806
13
-172.630997
23
165.385773
33
126.763885
0
3DFACE
8
0
70
0
10
-192.280197
20
144.608612
30
132.598709
11
-172.630997
21
165.385773
31
126.763885
12
-161.199738
22
175.602844
32
132.575806
13
-196.374573
23
147.818298
33
141.717682
0
3DFACE
8
0
70
0
10
-169.345764
20
124.617676
30
130.632767
11
-192.280197
21
144.608612
31
132.598709
12
-196.374573
22
147.818298
32
141.717682
13
-168.925446
23
109.337616
33
136.127518
0
3DFACE
8
0
70
0
10
-113.028732
20
143.423767
30
172.138443
11
-114.958641
21
142.583069
31
159.329941
12
-115.950577
22
153.423096
32
157.900513
13
-113.912666
23
154.272949
33
170.670593
0
3DFACE
8
0
70
0
10
-113.912666
20
154.272949
30
170.670593
11
-115.950577
21
153.423096
31
157.900513
12
-117.509315
22
164.600952
32
156.559189
13
-115.596519
23
165.437988
33
169.330368
0
3DFACE
8
0
70
0
10
-201.029694
20
145.789246
30
169.129593
11
-174.271530
21
169.318542
31
162.070084
12
-172.630997
22
165.385773
32
126.763885
13
-192.280197
23
144.608612
33
132.598709
0
3DFACE
8
0
70
0
10
-165.987640
20
128.840607
30
166.404602
11
-201.029694
21
145.789246
31
169.129593
12
-192.280197
22
144.608612
32
132.598709
13
-169.345764
23
124.617676
33
130.632767
0
3DFACE
8
0
70
0
10
-154.815704
20
144.595581
30
232.629517
11
-165.987640
21
128.840607
31
166.404602
12
-137.098343
22
154.019745
32
173.766129
13
-140.477890
23
156.861786
33
228.368973
0
3DFACE
8
0
70
0
10
-140.477890
20
156.861786
30
228.368973
11
-137.098343
21
154.019745
31
173.766129
12
-174.271530
22
169.318542
32
162.070084
13
-159.738480
23
166.347290
33
229.529343
0
3DFACE
8
0
70
0
10
-174.666840
20
151.991150
30
222.702896
11
-159.738480
21
166.347290
31
229.529343
12
-174.271530
22
169.318542
32
162.070084
13
-201.029694
23
145.789246
33
169.129593
0
3DFACE
8
0
70
0
10
-154.815704
20
144.595581
30
232.629517
11
-174.666840
21
151.991150
31
222.702896
12
-201.029694
22
145.789246
32
169.129593
13
-165.987640
23
128.840607
33
166.404602
0
3DFACE
8
0
70
0
10
-113.028732
20
143.423767
30
172.138443
11
-165.987640
21
128.840607
31
166.404602
12
-169.345764
22
124.617676
32
130.632767
13
-114.958641
23
142.583069
33
159.329941
0
3DFACE
8
0
70
0
10
-114.958641
20
142.583069
30
159.329941
11
-169.345764
21
124.617676
31
130.632767
12
-144.697998
22
144.682251
32
123.816521
13
-115.950577
23
153.423096
33
157.900513
0
3DFACE
8
0
70
0
10
-113.028732
20
143.423767
30
172.138443
11
-113.912666
21
154.272949
31
170.670593
12
-137.098343
22
154.019745
32
173.766129
13
-165.987640
23
128.840607
33
166.404602
0
3DFACE
8
0
70
0
10
-115.950577
20
153.423096
30
157.900513
11
-144.697998
21
144.682251
31
123.816521
12
-172.630997
22
165.385773
32
126.763885
13
-117.509315
23
164.600952
33
156.559189
0
3DFACE
8
0
70
0
10
-115.596519
20
165.437988
30
169.330368
11
-117.509315
21
164.600952
31
156.559189
12
-172.630997
22
165.385773
32
126.763885
13
-174.271530
23
169.318542
33
162.070084
0
3DFACE
8
0
70
0
10
-113.912666
20
154.272949
30
170.670593
11
-115.596519
21
165.437988
31
169.330368
12
-174.271530
22
169.318542
32
162.070084
13
-137.098343
23
154.019745
33
173.766129
0
3DFACE
8
0
70
0
10
22.118103
20
-55.429680
30
11.000056
11
9.510323
21
-97.717369
31
71.085083
12
-2.483208
22
-72.631790
32
126.492805
13
-2.483211
23
-46.972061
33
29.045433
0
3DFACE
8
0
70
0
10
22.118103
20
-55.429680
30
11.000056
11
-2.483211
21
-46.972061
31
29.045433
12
-2.483215
22
-20.284058
32
-72.306999
13
55.967350
23
-12.740585
33
-43.078556
0
3DFACE
8
0
70
0
10
-2.483215
20
-20.284058
30
-72.306999
11
-2.483211
21
-46.972061
31
29.045433
12
-27.172121
22
-56.509506
32
13.361057
13
-59.620724
23
-15.088196
33
-41.989681
0
3DFACE
8
0
70
0
10
-2.483211
20
-46.972061
30
29.045433
11
-2.483208
21
-72.631790
31
126.492805
12
-15.974757
22
-97.162567
32
74.029907
13
-27.172121
23
-56.509506
33
13.361057
0
3DFACE
8
0
70
0
10
18.570913
20
129.439026
30
130.854340
11
28.788481
21
128.063873
31
123.204361
12
39.231327
22
143.463257
32
121.999794
13
18.901638
23
145.798096
33
132.648987
0
3DFACE
8
0
70
0
10
18.901638
20
145.798096
30
132.648987
11
39.231327
21
143.463257
31
121.999794
12
30.870445
22
149.693054
32
120.083656
13
17.575659
23
153.550842
33
125.453667
0
3DFACE
8
0
70
0
10
28.788481
20
128.063873
30
123.204361
11
27.488041
21
121.113586
31
110.417107
12
39.275173
22
135.602722
32
103.810272
13
39.231327
23
143.463257
33
121.999794
0
3DFACE
8
0
70
0
10
18.570913
20
129.439026
30
130.854340
11
16.200911
21
120.967285
31
119.580345
12
27.488041
22
121.113586
32
110.417107
13
28.788481
23
128.063873
33
123.204361
0
3DFACE
8
0
70
0
10
17.575659
20
153.550842
30
125.453667
11
30.870445
21
149.693054
31
120.083656
12
29.823795
22
144.867004
32
102.617485
13
14.466612
23
149.729065
33
110.169296
0
3DFACE
8
0
70
0
10
39.231327
20
143.463257
30
121.999794
11
39.275173
21
135.602722
31
103.810272
12
29.823795
22
144.867004
32
102.617485
13
30.870445
23
149.693054
33
120.083656
0
3DFACE
8
0
70
0
10
17.715736
20
155.762878
30
103.003128
11
18.344481
21
148.751648
31
106.414963
12
29.502289
22
145.125854
32
99.233398
13
30.502174
23
160.936829
33
96.571823
0
3DFACE
8
0
70
0
10
29.502289
20
145.125854
30
99.233398
11
38.715675
21
143.759003
31
90.509857
12
41.560963
22
150.959991
32
83.388481
13
30.502174
23
160.936829
33
96.571823
0
3DFACE
8
0
70
0
10
33.649220
20
113.650665
30
134.488647
11
26.356617
21
124.634613
31
119.238861
12
17.065197
22
124.473846
32
124.270332
13
19.571583
23
113.725586
33
137.871063
0
3DFACE
8
0
70
0
10
65.651398
20
111.205200
30
75.260109
11
63.366791
21
119.614807
31
72.723236
12
42.245071
22
121.136047
32
100.674286
13
52.265423
23
105.592957
33
111.400879
0
3DFACE
8
0
70
0
10
26.356617
20
124.634613
30
119.238861
11
33.649220
21
113.650665
31
134.488647
12
51.819992
22
112.400146
32
121.246735
13
42.407974
23
124.798004
33
116.088326
0
3DFACE
8
0
70
0
10
58.121014
20
144.518097
30
65.965355
11
71.186745
21
147.165955
31
62.160652
12
47.101883
22
157.944092
32
85.506332
13
46.667488
23
153.615112
33
84.946579
0
3DFACE
8
0
70
0
10
14.122510
20
162.488403
30
108.302040
11
13.736543
21
158.496857
31
106.207626
12
30.379496
22
163.614777
32
99.018661
13
32.145119
23
167.193390
33
98.966812
0
3DFACE
8
0
70
0
10
32.145119
20
167.193390
30
98.966812
11
30.379496
21
163.614777
31
99.018661
12
46.667488
22
153.615112
32
84.946579
13
47.101883
23
157.944092
33
85.506332
0
3DFACE
8
0
70
0
10
20.353006
20
92.376984
30
142.111404
11
37.551376
21
96.678696
31
129.971252
12
33.262554
22
103.074188
32
126.239746
13
19.132687
23
102.636383
33
135.489426
0
3DFACE
8
0
70
0
10
18.251448
20
51.761322
30
130.707458
11
39.347668
21
60.358887
31
120.159805
12
37.551376
22
96.678696
32
129.971252
13
20.353006
23
92.376984
33
142.111404
0
3DFACE
8
0
70
0
10
65.651398
20
111.205200
30
75.260109
11
52.265423
21
105.592957
31
111.400879
12
49.932529
22
100.030533
32
102.936760
13
70.842789
23
103.559006
33
80.567627
0
3DFACE
8
0
70
0
10
49.932529
20
100.030533
30
102.936760
11
57.832249
21
69.707275
31
75.963539
12
64.453880
22
87.241943
32
50.008980
13
70.842789
23
103.559006
33
80.567627
0
3DFACE
8
0
70
0
10
39.347668
20
60.358887
30
120.159805
11
57.832249
21
69.707275
31
75.963539
12
49.932529
22
100.030533
32
102.936760
13
37.551376
23
96.678696
33
129.971252
0
3DFACE
8
0
70
0
10
37.551376
20
96.678696
30
129.971252
11
49.932529
21
100.030533
31
102.936760
12
52.265423
22
105.592957
32
111.400879
13
33.262554
23
103.074188
33
126.239746
0
3DFACE
8
0
70
0
10
19.571583
20
113.725586
30
137.871063
11
19.132687
21
102.636383
31
135.489426
12
33.262554
22
103.074188
32
126.239746
13
33.649220
23
113.650665
33
134.488647
0
3DFACE
8
0
70
0
10
17.065197
20
124.473846
30
124.270332
11
26.356617
21
124.634613
31
119.238861
12
27.488041
22
121.113586
32
110.417107
13
16.200911
23
120.967285
33
119.580345
0
3DFACE
8
0
70
0
10
42.407974
20
124.798004
30
116.088326
11
42.245071
21
121.136047
31
100.674286
12
27.488041
22
121.113586
32
110.417107
13
26.356617
23
124.634613
33
119.238861
0
POINT
8
0
70
0
10
71.529465
20
105.099976
30
98.001297
0
3DFACE
8
0
70
0
10
33.649220
20
113.650665
30
134.488647
11
33.262554
21
103.074188
31
126.239746
12
52.265423
22
105.592957
32
111.400879
13
51.819992
23
112.400146
33
121.246735
0
3DFACE
8
0
70
0
10
51.819992
20
112.400146
30
121.246735
11
71.529465
21
105.099976
31
98.001297
12
42.407974
22
124.798004
32
116.088326
13
42.407974
23
124.798004
33
116.088326
0
3DFACE
8
0
70
0
10
42.407974
20
124.798004
30
116.088326
11
71.529465
21
105.099976
31
98.001297
12
42.245071
22
121.136047
32
100.674286
13
42.245071
23
121.136047
33
100.674286
0
3DFACE
8
0
70
0
10
71.529465
20
105.099976
30
98.001297
11
52.265423
21
105.592957
31
111.400879
12
42.245071
22
121.136047
32
100.674286
13
42.245071
23
121.136047
33
100.674286
0
3DFACE
8
0
70
0
10
52.265423
20
105.592957
30
111.400879
11
71.529465
21
105.099976
31
98.001297
12
51.819992
22
112.400146
32
121.246735
13
51.819992
23
112.400146
33
121.246735
0
3DFACE
8
0
70
0
10
71.186745
20
147.165955
30
62.160652
11
58.121014
21
144.518097
31
65.965355
12
65.850693
22
129.778442
32
25.419334
13
69.180397
23
130.859741
33
23.189430
0
3DFACE
8
0
70
0
10
58.121014
20
144.518097
30
65.965355
11
56.454491
21
137.387543
31
69.036186
12
68.048729
22
124.441742
32
28.108780
13
65.850693
23
129.778442
33
25.419334
0
3DFACE
8
0
70
0
10
56.454491
20
137.387543
30
69.036186
11
59.688572
21
127.184601
31
71.591492
12
69.085968
22
114.958069
32
33.603497
13
68.048729
23
124.441742
33
28.108780
0
3DFACE
8
0
70
0
10
69.180397
20
130.859741
30
23.189430
11
65.850693
21
129.778442
31
25.419334
12
42.506260
22
119.241455
32
1.846036
13
45.183964
23
119.139404
33
0.495758
0
3DFACE
8
0
70
0
10
68.048729
20
124.441742
30
28.108780
11
44.670216
21
117.158600
31
-0.610883
12
42.506260
22
119.241455
32
1.846036
13
65.850693
23
129.778442
33
25.419334
0
3DFACE
8
0
70
0
10
69.085968
20
114.958069
30
33.603497
11
41.908707
21
107.588898
31
1.258805
12
44.670216
22
117.158600
32
-0.610883
13
68.048729
23
124.441742
33
28.108780
0
3DFACE
8
0
70
0
10
45.183964
20
119.139404
30
0.495758
11
42.506260
21
119.241455
31
1.846036
12
-7.213694
22
113.359222
32
-7.477295
13
-7.817708
23
111.639252
33
-10.754941
0
3DFACE
8
0
70
0
10
44.670216
20
117.158600
30
-0.610883
11
-7.177865
21
111.971619
31
-7.282876
12
-7.213694
22
113.359222
32
-7.477295
13
42.506260
23
119.241455
33
1.846036
0
3DFACE
8
0
70
0
10
41.908707
20
107.588898
30
1.258805
11
-6.271898
21
101.714386
31
-2.366735
12
-7.177865
22
111.971619
32
-7.282876
13
44.670216
23
117.158600
33
-0.610883
0
3DFACE
8
0
70
0
10
64.453880
20
87.241943
30
50.008980
11
69.842041
21
98.717621
31
40.385780
12
65.651398
22
111.205200
32
75.260109
13
70.842789
23
103.559006
33
80.567627
0
3DFACE
8
0
70
0
10
59.688572
20
127.184601
30
71.591492
11
63.366791
21
119.614807
31
72.723236
12
69.085968
22
114.958069
32
33.603497
13
69.085968
23
114.958069
33
33.603497
0
3DFACE
8
0
70
0
10
65.651398
20
111.205200
30
75.260109
11
69.842041
21
98.717621
31
40.385780
12
69.085968
22
114.958069
32
33.603497
13
63.366791
23
119.614807
33
72.723236
0
3DFACE
8
0
70
0
10
69.842041
20
98.717621
30
40.385780
11
42.411224
21
94.639160
31
8.853515
12
41.908707
22
107.588898
32
1.258805
13
69.085968
23
114.958069
33
33.603497
0
3DFACE
8
0
70
0
10
42.411224
20
94.639160
30
8.853515
11
-4.638132
21
89.768265
31
6.498788
12
-6.271898
22
101.714386
32
-2.366735
13
41.908707
23
107.588898
33
1.258805
0
3DFACE
8
0
70
0
10
14.122510
20
162.488403
30
108.302040
11
32.145119
21
167.193390
31
98.966812
12
32.672482
22
183.378113
32
89.835106
13
12.653678
23
184.624207
33
100.331528
0
3DFACE
8
0
70
0
10
12.653678
20
184.624207
30
100.331528
11
32.672482
21
183.378113
31
89.835106
12
32.066143
22
183.689819
32
84.158180
13
11.838492
23
186.184387
33
95.907982
0
3DFACE
8
0
70
0
10
32.145119
20
167.193390
30
98.966812
11
47.101883
21
157.944092
31
85.506332
12
59.185337
22
177.789124
32
71.030014
13
32.672482
23
183.378113
33
89.835106
0
3DFACE
8
0
70
0
10
32.672482
20
183.378113
30
89.835106
11
59.185337
21
177.789124
31
71.030014
12
56.836018
22
178.522766
32
65.910522
13
32.066143
23
183.689819
33
84.158180
0
3DFACE
8
0
70
0
10
47.101883
20
157.944092
30
85.506332
11
71.186745
21
147.165955
31
62.160652
12
71.139832
22
162.188629
32
37.054333
13
59.185337
23
177.789124
33
71.030014
0
3DFACE
8
0
70
0
10
59.185337
20
177.789124
30
71.030014
11
71.139832
21
162.188629
31
37.054333
12
61.640366
22
164.974182
32
36.465816
13
56.836018
23
178.522766
33
65.910522
0
3DFACE
8
0
70
0
10
71.186745
20
147.165955
30
62.160652
11
69.180397
21
130.859741
31
23.189430
12
71.156670
22
152.842529
32
9.354837
13
71.139832
23
162.188629
33
37.054333
0
3DFACE
8
0
70
0
10
71.139832
20
162.188629
30
37.054333
11
71.156670
21
152.842529
31
9.354837
12
64.162163
22
155.448486
32
11.648395
13
61.640366
23
164.974182
33
36.465816
0
3DFACE
8
0
70
0
10
69.180397
20
130.859741
30
23.189430
11
45.183964
21
119.139404
31
0.495758
12
44.455627
22
139.851593
32
-8.954421
13
71.156670
23
152.842529
33
9.354837
0
3DFACE
8
0
70
0
10
71.156670
20
152.842529
30
9.354837
11
44.455627
21
139.851593
31
-8.954421
12
38.913857
22
144.405396
32
-5.076246
13
64.162163
23
155.448486
33
11.648395
0
3DFACE
8
0
70
0
10
45.183964
20
119.139404
30
0.495758
11
-7.817708
21
111.639252
31
-10.754941
12
-9.468324
22
130.660217
32
-19.711884
13
44.455627
23
139.851593
33
-8.954421
0
3DFACE
8
0
70
0
10
44.455627
20
139.851593
30
-8.954421
11
-9.468324
21
130.660217
31
-19.711884
12
-8.790668
22
135.092163
32
-16.034639
13
38.913857
23
144.405396
33
-5.076246
0
3DFACE
8
0
70
0
10
64.453880
20
87.241943
30
50.008980
11
43.052010
21
102.501877
31
22.094532
12
42.411224
22
94.639160
32
8.853515
13
69.842041
23
98.717621
33
40.385780
0
3DFACE
8
0
70
0
10
43.052010
20
102.501877
30
22.094532
11
-2.429802
21
121.132477
31
0.667776
12
-4.638132
22
89.768265
32
6.498788
13
42.411224
23
94.639160
33
8.853515
0
3DFACE
8
0
70
0
10
57.832249
20
69.707275
30
75.963539
11
40.901909
21
64.862274
31
57.186531
12
43.052010
22
102.501877
32
22.094532
13
64.453880
23
87.241943
33
50.008980
0
3DFACE
8
0
70
0
10
39.347668
20
60.358887
30
120.159805
11
33.614365
21
55.483856
31
103.902451
12
40.901909
22
64.862274
32
57.186531
13
57.832249
23
69.707275
33
75.963539
0
3DFACE
8
0
70
0
10
33.614365
20
55.483856
30
103.902451
11
13.227261
21
52.755905
31
103.444069
12
8.076540
22
62.469345
32
75.494057
13
40.901909
23
64.862274
33
57.186531
0
3DFACE
8
0
70
0
10
18.251448
20
51.761322
30
130.707458
11
13.227261
21
52.755905
31
103.444069
12
33.614365
22
55.483856
32
103.902451
13
33.614365
23
55.483856
33
103.902451
0
3DFACE
8
0
70
0
10
18.251448
20
51.761322
30
130.707458
11
33.614365
21
55.483856
31
103.902451
12
39.347668
22
60.358887
32
120.159805
13
39.347668
23
60.358887
33
120.159805
0
3DFACE
8
0
70
0
10
18.570913
20
129.439026
30
130.854340
11
18.901638
21
145.798096
31
132.648987
12
-3.888625
22
143.463257
32
129.946091
13
6.297614
23
128.063873
33
127.349052
0
3DFACE
8
0
70
0
10
18.901638
20
145.798096
30
132.648987
11
17.575659
21
153.550842
31
125.453667
12
3.240001
22
149.693054
32
125.175484
13
-3.888625
23
143.463257
33
129.946091
0
3DFACE
8
0
70
0
10
6.297614
20
128.063873
30
127.349052
11
-3.888625
21
143.463257
31
129.946091
12
-10.979024
22
135.602722
32
113.071281
13
2.388891
23
121.113586
33
115.042465
0
3DFACE
8
0
70
0
10
18.570913
20
129.439026
30
130.854340
11
6.297614
21
128.063873
31
127.349052
12
2.388891
22
121.113586
32
115.042465
13
16.200911
23
120.967285
33
119.580345
0
3DFACE
8
0
70
0
10
17.575659
20
153.550842
30
125.453667
11
14.466612
21
149.729065
31
110.169296
12
-2.573689
22
144.867004
32
108.587807
13
3.240001
23
149.693054
33
125.175484
0
3DFACE
8
0
70
0
10
-3.888625
20
143.463257
30
129.946091
11
3.240001
21
149.693054
31
125.175484
12
-2.573689
22
144.867004
32
108.587807
13
-10.979024
23
135.602722
33
113.071281
0
3DFACE
8
0
70
0
10
9.343153
20
155.609131
30
104.381950
11
-4.641976
21
161.543945
31
103.089050
12
-3.129987
22
145.814880
32
105.771072
13
9.916399
23
148.830688
33
107.492630
0
3DFACE
8
0
70
0
10
-3.129987
20
145.814880
30
105.771072
11
-4.641976
21
161.543945
31
103.089050
12
-19.214247
22
151.719116
32
97.315971
13
-14.098092
23
144.806702
33
102.069214
0
3DFACE
8
0
70
0
10
5.213004
20
113.650665
30
139.728958
11
19.571583
21
113.725586
31
137.871063
12
17.065197
22
124.473846
32
124.270332
13
6.590604
23
124.634613
33
122.881401
0
3DFACE
8
0
70
0
10
-45.799618
20
111.205200
30
95.798668
11
-20.410192
21
105.592957
31
124.793785
12
-14.871689
22
121.136047
32
111.199959
13
-44.569382
23
119.614807
33
92.614067
0
3DFACE
8
0
70
0
10
6.590604
20
124.634613
30
122.881401
11
-9.529387
21
124.798035
31
125.659515
12
-16.484358
22
112.400146
32
133.834091
13
5.213004
23
113.650665
33
139.728958
0
3DFACE
8
0
70
0
10
-42.077126
20
144.518097
30
84.430206
11
-23.655500
21
153.615112
31
97.905937
12
-23.861828
22
157.944092
32
98.583748
13
-55.640785
23
147.165985
33
85.532852
0
3DFACE
8
0
70
0
10
14.122510
20
162.488403
30
108.302040
11
-5.644051
21
167.808655
31
105.694695
12
-3.971409
22
164.238434
32
105.138321
13
13.736543
23
158.496857
33
106.207626
0
3DFACE
8
0
70
0
10
-5.644051
20
167.808655
30
105.694695
11
-23.861828
21
157.944092
31
98.583748
12
-23.655500
22
153.615112
32
97.905937
13
-3.971409
23
164.238434
33
105.138321
0
3DFACE
8
0
70
0
10
20.353006
20
92.376984
30
142.111404
11
19.132687
21
102.636383
31
135.489426
12
2.633858
22
103.074188
32
131.884109
13
-0.043100
23
96.678696
33
136.899292
0
3DFACE
8
0
70
0
10
18.251448
20
51.761322
30
130.707458
11
20.353006
21
92.376984
31
142.111404
12
-0.043100
22
96.678696
32
136.899292
13
-5.218793
23
60.358887
33
128.372665
0
3DFACE
8
0
70
0
10
-45.799618
20
111.205200
30
95.798668
11
-48.758064
21
103.559021
31
102.608070
12
-21.247679
22
100.030533
32
116.054085
13
-20.410192
23
105.592957
33
124.793785
0
3DFACE
8
0
70
0
10
-21.247679
20
100.030533
30
116.054085
11
-48.758064
21
103.559021
31
102.608070
12
-53.681816
22
87.241959
32
71.779419
13
-38.243374
23
69.707291
33
93.668678
0
3DFACE
8
0
70
0
10
-5.218793
20
60.358887
30
128.372665
11
-0.043100
21
96.678696
31
136.899292
12
-21.247679
22
100.030533
32
116.054085
13
-38.243374
23
69.707291
33
93.668678
0
3DFACE
8
0
70
0
10
-0.043100
20
96.678696
30
136.899292
11
2.633858
21
103.074188
31
131.884109
12
-20.410192
22
105.592957
32
124.793785
13
-21.247679
23
100.030533
33
116.054085
0
3DFACE
8
0
70
0
10
19.571583
20
113.725586
30
137.871063
11
5.213004
21
113.650665
31
139.728958
12
2.633858
22
103.074188
32
131.884109
13
19.132687
23
102.636383
33
135.489426
0
3DFACE
8
0
70
0
10
17.065197
20
124.473846
30
124.270332
11
16.200911
21
120.967285
31
119.580345
12
2.388891
22
121.113586
32
115.042465
13
6.590604
23
124.634613
33
122.881401
0
3DFACE
8
0
70
0
10
-9.529387
20
124.798035
30
125.659515
11
6.590604
21
124.634613
31
122.881401
12
2.388891
22
121.113586
32
115.042465
13
-14.871689
23
121.136047
33
111.199959
0
POINT
8
0
70
0
10
-42.301498
20
105.099976
30
118.978447
0
3DFACE
8
0
70
0
10
5.213004
20
113.650665
30
139.728958
11
-16.484358
21
112.400146
31
133.834091
12
-20.410192
22
105.592957
32
124.793785
13
2.633858
23
103.074188
33
131.884109
0
3DFACE
8
0
70
0
10
-16.484358
20
112.400146
30
133.834091
11
-9.529387
21
124.798035
31
125.659515
12
-42.301498
22
105.099976
32
118.978447
13
-42.301498
23
105.099976
33
118.978447
0
3DFACE
8
0
70
0
10
-9.529387
20
124.798035
30
125.659515
11
-14.871689
21
121.136047
31
111.199959
12
-42.301498
22
105.099976
32
118.978447
13
-42.301498
23
105.099976
33
118.978447
0
3DFACE
8
0
70
0
10
-42.301498
20
105.099976
30
118.978447
11
-14.871689
21
121.136047
31
111.199959
12
-20.410192
22
105.592957
32
124.793785
13
-20.410192
23
105.592957
33
124.793785
0
3DFACE
8
0
70
0
10
-20.410192
20
105.592957
30
124.793785
11
-16.484358
21
112.400146
31
133.834091
12
-42.301498
22
105.099976
32
118.978447
13
-42.301498
23
105.099976
33
118.978447
0
3DFACE
8
0
70
0
10
-55.640785
20
147.165985
30
85.532852
11
-67.657967
21
130.859741
31
48.406460
12
-63.752113
22
129.778442
32
49.302971
13
-42.077126
23
144.518097
33
84.430206
0
3DFACE
8
0
70
0
10
-42.077126
20
144.518097
30
84.430206
11
-63.752113
21
129.778442
31
49.302971
12
-64.847092
22
124.441742
32
52.599266
13
-39.425449
23
137.387543
33
86.705261
0
3DFACE
8
0
70
0
10
-39.425449
20
137.387543
30
86.705261
11
-64.847092
21
124.441742
31
52.599266
12
-63.857536
22
114.958069
32
58.102772
13
-41.536209
23
127.184601
33
90.245529
0
3DFACE
8
0
70
0
10
-67.657967
20
130.859741
30
48.406460
11
-53.327267
21
119.139404
31
18.649734
12
-50.344147
22
119.241455
32
18.956818
13
-63.752113
23
129.778442
33
49.302971
0
3DFACE
8
0
70
0
10
-64.847092
20
124.441742
30
52.599266
11
-63.752113
21
129.778442
31
49.302971
12
-50.344147
22
119.241455
32
18.956818
13
-53.241756
23
117.158600
33
17.432661
0
3DFACE
8
0
70
0
10
-63.857536
20
114.958069
30
58.102772
11
-64.847092
21
124.441742
31
52.599266
12
-53.241756
22
117.158600
32
17.432661
13
-49.995174
23
107.588898
33
18.195158
0
3DFACE
8
0
70
0
10
-53.327267
20
119.139404
30
18.649734
11
-7.817708
21
111.639252
31
-10.754941
12
-7.213694
22
113.359222
32
-7.477295
13
-50.344147
23
119.241455
33
18.956818
0
3DFACE
8
0
70
0
10
-53.241756
20
117.158600
30
17.432661
11
-50.344147
21
119.241455
31
18.956818
12
-7.213694
22
113.359222
32
-7.477295
13
-7.177865
23
111.971619
33
-7.282876
0
3DFACE
8
0
70
0
10
-49.995174
20
107.588898
30
18.195158
11
-53.241756
21
117.158600
31
17.432661
12
-7.177865
22
111.971619
32
-7.282876
13
-6.271898
23
101.714386
33
-2.366735
0
3DFACE
8
0
70
0
10
-53.681816
20
87.241959
30
71.779419
11
-48.758064
21
103.559021
31
102.608070
12
-45.799618
22
111.205200
32
95.798668
13
-62.146320
23
98.717636
33
64.709038
0
3DFACE
8
0
70
0
10
-41.536209
20
127.184601
30
90.245529
11
-63.857536
21
114.958069
31
58.102772
12
-44.569382
22
119.614807
32
92.614067
13
-44.569382
23
119.614807
33
92.614067
0
3DFACE
8
0
70
0
10
-45.799618
20
111.205200
30
95.798668
11
-44.569382
21
119.614807
31
92.614067
12
-63.857536
22
114.958069
32
58.102772
13
-62.146320
23
98.717636
33
64.709038
0
3DFACE
8
0
70
0
10
-62.146320
20
98.717636
30
64.709038
11
-63.857536
21
114.958069
31
58.102772
12
-49.995174
22
107.588898
32
18.195158
13
-47.757462
23
94.639191
33
25.470100
0
3DFACE
8
0
70
0
10
-47.757462
20
94.639191
30
25.470100
11
-49.995174
21
107.588898
31
18.195158
12
-6.271898
22
101.714386
32
-2.366735
13
-4.638132
23
89.768265
33
6.498788
0
3DFACE
8
0
70
0
10
14.122510
20
162.488403
30
108.302040
11
12.653678
21
184.624207
31
100.331528
12
-9.791662
22
183.378113
32
97.660538
13
-5.644051
23
167.808655
33
105.694695
0
3DFACE
8
0
70
0
10
12.653678
20
184.624207
30
100.331528
11
11.838492
21
186.184387
31
95.907982
12
-11.248755
22
183.689819
32
92.140396
13
-9.791662
23
183.378113
33
97.660538
0
3DFACE
8
0
70
0
10
-5.644051
20
167.808655
30
105.694695
11
-9.791662
21
183.378113
31
97.660538
12
-41.266167
22
177.789124
32
89.541550
13
-23.861828
23
157.944092
33
98.583748
0
3DFACE
8
0
70
0
10
-9.791662
20
183.378113
30
97.660538
11
-11.248755
21
183.689819
31
92.140396
12
-40.896076
22
178.522766
32
83.920914
13
-41.266167
23
177.789124
33
89.541550
0
3DFACE
8
0
70
0
10
-23.861828
20
157.944092
30
98.583748
11
-41.266167
21
177.789124
31
89.541550
12
-64.546387
22
162.188660
32
62.059040
13
-55.640785
23
147.165985
33
85.532852
0
3DFACE
8
0
70
0
10
-41.266167
20
177.789124
30
89.541550
11
-40.896076
21
178.522766
31
83.920914
12
-55.880718
22
164.974182
32
58.122993
13
-64.546387
23
162.188660
33
62.059040
0
3DFACE
8
0
70
0
10
-55.640785
20
147.165985
30
85.532852
11
-64.546387
21
162.188660
31
62.059040
12
-74.435913
22
152.842560
32
36.185123
13
-67.657967
23
130.859741
33
48.406460
0
3DFACE
8
0
70
0
10
-64.546387
20
162.188660
30
62.059040
11
-55.880718
21
164.974182
31
58.122993
12
-67.083305
22
155.448486
32
35.834747
13
-74.435913
23
152.842560
33
36.185123
0
3DFACE
8
0
70
0
10
-67.657967
20
130.859741
30
48.406460
11
-74.435913
21
152.842560
31
36.185123
12
-56.015400
22
139.851593
32
9.560715
13
-53.327267
23
119.139404
33
18.649734
0
3DFACE
8
0
70
0
10
-74.435913
20
152.842560
30
36.185123
11
-67.083305
21
155.448486
31
35.834747
12
-49.455254
22
144.405396
32
11.208709
13
-56.015400
23
139.851593
33
9.560715
0
3DFACE
8
0
70
0
10
-53.327267
20
119.139404
30
18.649734
11
-56.015400
21
139.851593
31
9.560715
12
-9.468324
22
130.660217
32
-19.711884
13
-7.817708
23
111.639252
33
-10.754941
0
3DFACE
8
0
70
0
10
-56.015400
20
139.851593
30
9.560715
11
-49.455254
21
144.405396
31
11.208709
12
-8.790668
22
135.092163
32
-16.034639
13
-9.468324
23
130.660217
33
-19.711884
0
3DFACE
8
0
70
0
10
-53.681816
20
87.241959
30
71.779419
11
-62.146320
21
98.717636
31
64.709038
12
-47.757462
22
94.639191
32
25.470100
13
-44.740475
23
102.501877
33
27.713253
0
3DFACE
8
0
70
0
10
-44.740475
20
102.501877
30
27.713253
11
-47.757462
21
94.639191
31
25.470100
12
-4.638132
22
89.768265
32
6.498788
13
-2.429802
23
121.132477
33
0.667776
0
3DFACE
8
0
70
0
10
-38.243374
20
69.707291
30
93.668678
11
-53.681816
21
87.241959
31
71.779419
12
-44.740475
22
102.501877
32
27.713253
13
-35.306854
23
64.862274
33
63.587173
0
3DFACE
8
0
70
0
10
-5.218793
20
60.358887
30
128.372665
11
-38.243374
21
69.707291
31
93.668678
12
-35.306854
22
64.862274
32
63.587173
13
-5.657223
23
55.483871
33
111.139549
0
3DFACE
8
0
70
0
10
-5.657223
20
55.483871
30
111.139549
11
-35.306854
21
64.862274
31
63.587173
12
8.076540
22
62.469345
32
75.494057
13
13.227261
23
52.755905
33
103.444069
0
3DFACE
8
0
70
0
10
18.251448
20
51.761322
30
130.707458
11
-5.657223
21
55.483871
31
111.139549
12
13.227261
22
52.755905
32
103.444069
13
13.227261
23
52.755905
33
103.444069
0
3DFACE
8
0
70
0
10
18.251448
20
51.761322
30
130.707458
11
-5.218793
21
60.358887
31
128.372665
12
-5.657223
22
55.483871
32
111.139549
13
-5.657223
23
55.483871
33
111.139549
0
3DFACE
8
0
70
0
10
9.916399
20
148.830688
30
107.492630
11
14.466612
21
149.729065
31
110.169296
12
13.736543
22
158.496857
32
106.207626
13
9.343153
23
155.609131
33
104.381950
0
3DFACE
8
0
70
0
10
-3.129987
20
145.814880
30
105.771072
11
-2.573689
21
144.867004
31
108.587807
12
14.466612
22
149.729065
32
110.169296
13
9.916399
23
148.830688
33
107.492630
0
3DFACE
8
0
70
0
10
-4.641976
20
161.543945
30
103.089050
11
9.343153
21
155.609131
31
104.381950
12
13.736543
22
158.496857
32
106.207626
13
-3.971409
23
164.238434
33
105.138321
0
3DFACE
8
0
70
0
10
-3.129987
20
145.814880
30
105.771072
11
-14.098092
21
144.806702
31
102.069214
12
-16.928291
22
143.720886
32
104.135384
13
-2.573689
23
144.867004
33
108.587807
0
3DFACE
8
0
70
0
10
-14.098092
20
144.806702
30
102.069214
11
-19.214247
21
151.719116
31
97.315971
12
-23.655500
22
153.615112
32
97.905937
13
-16.928291
23
143.720886
33
104.135384
0
3DFACE
8
0
70
0
10
-4.641976
20
161.543945
30
103.089050
11
-3.971409
21
164.238434
31
105.138321
12
-23.655500
22
153.615112
32
97.905937
13
-19.214247
23
151.719116
33
97.315971
0
3DFACE
8
0
70
0
10
30.502174
20
160.936829
30
96.571823
11
30.379496
21
163.614777
31
99.018661
12
13.736543
22
158.496857
32
106.207626
13
17.715736
23
155.762878
33
103.003128
0
3DFACE
8
0
70
0
10
29.502289
20
145.125854
30
99.233398
11
18.344481
21
148.751648
31
106.414963
12
14.466612
22
149.729065
32
110.169296
13
29.823795
23
144.867004
33
102.617485
0
3DFACE
8
0
70
0
10
18.344481
20
148.751648
30
106.414963
11
17.715736
21
155.762878
31
103.003128
12
13.736543
22
158.496857
32
106.207626
13
14.466612
23
149.729065
33
110.169296
0
3DFACE
8
0
70
0
10
30.502174
20
160.936829
30
96.571823
11
41.560963
21
150.959991
31
83.388481
12
46.667488
22
153.615112
32
84.946579
13
30.379496
23
163.614777
33
99.018661
0
3DFACE
8
0
70
0
10
38.715675
20
143.759003
30
90.509857
11
42.602745
21
143.720886
31
93.164810
12
46.667488
22
153.615112
32
84.946579
13
41.560963
23
150.959991
33
83.388481
0
3DFACE
8
0
70
0
10
29.502289
20
145.125854
30
99.233398
11
29.823795
21
144.867004
31
102.617485
12
42.602745
22
143.720886
32
93.164810
13
38.715675
23
143.759003
33
90.509857
0
3DFACE
8
0
70
0
10
-2.429802
20
121.132477
30
0.667776
11
43.052010
21
102.501877
31
22.094532
12
71.293900
22
112.832642
32
-16.602907
13
-2.249918
23
124.089478
33
-16.433134
0
3DFACE
8
0
70
0
10
-2.249918
20
124.089478
30
-16.433134
11
-75.047646
21
112.383026
31
-14.215126
12
-44.740475
22
102.501877
32
27.713253
13
-2.429802
23
121.132477
33
0.667776
0
3DFACE
8
0
70
0
10
-75.047646
20
112.383026
30
-14.215126
11
-72.573097
21
63.591476
31
50.032570
12
-44.740475
22
102.501877
32
27.713253
13
-44.740475
23
102.501877
33
27.713253
0
3DFACE
8
0
70
0
10
-72.573097
20
63.591476
30
50.032570
11
-35.306854
21
64.862274
31
63.587173
12
-44.740475
22
102.501877
32
27.713253
13
-44.740475
23
102.501877
33
27.713253
0
3DFACE
8
0
70
0
10
67.856644
20
63.591476
30
50.032574
11
43.052010
21
102.501877
31
22.094532
12
40.901909
22
64.862274
32
57.186531
13
40.901909
23
64.862274
33
57.186531
0
3DFACE
8
0
70
0
10
71.293900
20
112.832642
30
-16.602907
11
43.052010
21
102.501877
31
22.094532
12
67.856644
22
63.591476
32
50.032574
13
67.856644
23
63.591476
33
50.032574
0
3DFACE
8
0
70
0
10
-2.483198
20
45.170593
30
57.429176
11
-35.306854
21
64.862274
31
63.587173
12
-72.573097
22
63.591476
32
50.032570
13
-72.573097
23
63.591476
33
50.032570
0
3DFACE
8
0
70
0
10
8.076540
20
62.469345
30
75.494057
11
-35.306854
21
64.862274
31
63.587173
12
-2.483198
22
45.170593
32
57.429176
13
-2.483198
23
45.170593
33
57.429176
0
3DFACE
8
0
70
0
10
8.076540
20
62.469345
30
75.494057
11
-2.483198
21
45.170593
31
57.429176
12
40.901909
22
64.862274
32
57.186531
13
40.901909
23
64.862274
33
57.186531
0
3DFACE
8
0
70
0
10
-2.483198
20
45.170593
30
57.429176
11
67.856644
21
63.591476
31
50.032574
12
40.901909
22
64.862274
32
57.186531
13
40.901909
23
64.862274
33
57.186531
0
3DFACE
8
0
70
0
10
-8.790668
20
135.092163
30
-16.034639
11
-6.650315
21
187.138641
31
-4.248234
12
12.166138
22
190.827911
32
-0.210167
13
38.913857
23
144.405396
33
-5.076246
0
3DFACE
8
0
70
0
10
38.913857
20
144.405396
30
-5.076246
11
12.166138
21
190.827911
31
-0.210167
12
25.881865
22
196.304169
32
8.403289
13
64.162163
23
155.448486
33
11.648395
0
3DFACE
8
0
70
0
10
64.162163
20
155.448486
30
11.648395
11
25.881865
21
196.304169
31
8.403289
12
25.229183
22
201.906311
32
19.920780
13
61.640366
23
164.974182
33
36.465816
0
3DFACE
8
0
70
0
10
61.640366
20
164.974182
30
36.465816
11
25.229183
21
201.906311
31
19.920780
12
24.815792
22
208.851379
32
34.126160
13
56.836018
23
178.522766
33
65.910522
0
3DFACE
8
0
70
0
10
11.838492
20
186.184387
30
95.907982
11
32.066143
21
183.689819
31
84.158180
12
12.981151
22
212.223267
32
43.167027
13
3.158867
23
214.191101
33
48.980564
0
3DFACE
8
0
70
0
10
-8.790668
20
135.092163
30
-16.034639
11
-49.455254
21
144.405396
31
11.208709
12
-22.791304
22
190.827942
32
6.231906
13
-6.650315
23
187.138641
33
-4.248234
0
3DFACE
8
0
70
0
10
-49.455254
20
144.405396
30
11.208709
11
-67.083305
21
155.448486
31
35.834747
12
-32.535675
22
196.304199
32
19.168667
13
-22.791304
23
190.827942
33
6.231906
0
3DFACE
8
0
70
0
10
-67.083305
20
155.448486
30
35.834747
11
-55.880718
21
164.974182
31
58.122993
12
-27.820339
22
201.906342
32
29.696922
13
-32.535675
23
196.304199
33
19.168667
0
3DFACE
8
0
70
0
10
-55.880718
20
164.974182
30
58.122993
11
-40.896076
21
178.522766
31
83.920914
12
-22.370436
22
208.851379
32
42.821793
13
-27.820339
23
201.906342
33
29.696922
0
3DFACE
8
0
70
0
10
11.838492
20
186.184387
30
95.907982
11
3.158867
21
214.191101
31
48.980564
12
-8.090491
22
212.223267
32
47.050179
13
-11.248755
23
183.689819
33
92.140396
0
3DFACE
8
0
70
0
10
56.836018
20
178.522766
30
65.910522
11
24.815792
21
208.851379
31
34.126160
12
12.981151
22
212.223267
32
43.167027
13
32.066143
23
183.689819
33
84.158180
0
3DFACE
8
0
70
0
10
-40.896076
20
178.522766
30
83.920914
11
-11.248755
21
183.689819
31
92.140396
12
-8.090491
22
212.223267
32
47.050179
13
-22.370436
23
208.851379
33
42.821793
0
3DFACE
8
0
70
0
10
-5.487498
20
243.178711
30
2.318681
11
7.564261
21
243.500183
31
-10.425148
12
-8.245534
22
247.650940
32
-12.647614
13
-8.245534
23
247.650940
33
-12.647614
0
3DFACE
8
0
70
0
10
9.395010
20
235.198669
30
-0.490715
11
7.564261
21
243.500183
31
-10.425148
12
-5.487498
22
243.178711
32
2.318681
13
-5.487498
23
243.178711
33
2.318681
0
3DFACE
8
0
70
0
10
-4.584030
20
231.047913
30
7.221293
11
9.395010
21
235.198669
31
-0.490715
12
-5.487498
22
243.178711
32
2.318681
13
-5.487498
23
243.178711
33
2.318681
0
3DFACE
8
0
70
0
10
-4.584030
20
231.047913
30
7.221293
11
-5.487498
21
243.178711
31
2.318681
12
-20.393782
22
235.198669
32
4.998862
13
-20.393782
23
235.198669
33
4.998862
0
3DFACE
8
0
70
0
10
-20.393782
20
235.198669
30
4.998862
11
-5.487498
21
243.178711
31
2.318681
12
-22.224529
22
243.500183
32
-4.935571
13
-22.224529
23
243.500183
33
-4.935571
0
3DFACE
8
0
70
0
10
-5.487498
20
243.178711
30
2.318681
11
-8.245534
21
247.650940
31
-12.647614
12
-22.224529
22
243.500183
32
-4.935571
13
-22.224529
23
243.500183
33
-4.935571
0
3DFACE
8
0
70
0
10
7.564261
20
243.500183
30
-10.425148
11
11.115879
21
235.974792
31
-25.767488
12
-11.242507
22
241.844849
32
-28.910484
13
-8.245534
23
247.650940
33
-12.647614
0
3DFACE
8
0
70
0
10
13.704958
20
224.234680
30
-11.718024
11
11.115879
21
235.974792
31
-25.767488
12
7.564261
22
243.500183
32
-10.425148
13
9.395010
23
235.198669
33
-0.490715
0
3DFACE
8
0
70
0
10
-6.064360
20
218.364655
30
-0.811617
11
13.704958
21
224.234680
31
-11.718024
12
9.395010
22
235.198669
32
-0.490715
13
-4.584030
23
231.047913
33
7.221293
0
3DFACE
8
0
70
0
10
-6.064360
20
218.364655
30
-0.811617
11
-4.584030
21
231.047913
31
7.221293
12
-20.393782
22
235.198669
32
4.998862
13
-28.422745
23
224.234680
33
-3.954589
0
3DFACE
8
0
70
0
10
-28.422745
20
224.234680
30
-3.954589
11
-20.393782
21
235.198669
31
4.998862
12
-22.224529
22
243.500183
32
-4.935571
13
-31.011824
23
235.974823
33
-18.004053
0
3DFACE
8
0
70
0
10
-22.224529
20
243.500183
30
-4.935571
11
-8.245534
21
247.650940
31
-12.647614
12
-11.242507
22
241.844849
32
-28.910484
13
-31.011824
23
235.974823
33
-18.004053
0
3DFACE
8
0
70
0
10
3.086960
20
225.010803
30
-34.720909
11
-12.722833
21
229.161560
31
-36.943375
12
-11.242507
22
241.844849
32
-28.910484
13
11.115879
23
235.974792
33
-25.767488
0
3DFACE
8
0
70
0
10
13.704958
20
224.234680
30
-11.718024
11
4.917708
21
216.709290
31
-24.786476
12
3.086960
22
225.010803
32
-34.720909
13
11.115879
23
235.974792
33
-25.767488
0
3DFACE
8
0
70
0
10
-6.064360
20
218.364655
30
-0.811617
11
-9.061328
21
212.558533
31
-17.074469
12
4.917708
22
216.709290
32
-24.786476
13
13.704958
23
224.234680
33
-11.718024
0
3DFACE
8
0
70
0
10
-6.064360
20
218.364655
30
-0.811617
11
-28.422745
21
224.234680
31
-3.954589
12
-24.871080
22
216.709290
32
-19.296900
13
-9.061328
23
212.558533
33
-17.074469
0
3DFACE
8
0
70
0
10
-28.422745
20
224.234680
30
-3.954589
11
-31.011824
21
235.974823
31
-18.004053
12
-26.701830
22
225.010803
32
-29.231333
13
-24.871080
23
216.709290
33
-19.296900
0
3DFACE
8
0
70
0
10
-26.701830
20
225.010803
30
-29.231333
11
-31.011824
21
235.974823
31
-18.004053
12
-11.242507
22
241.844849
32
-28.910484
13
-12.722833
23
229.161560
33
-36.943375
0
3DFACE
8
0
70
0
10
-11.819367
20
217.030762
30
-32.040726
11
-12.722833
21
229.161560
31
-36.943375
12
3.086960
22
225.010803
32
-34.720909
13
3.086960
23
225.010803
33
-34.720909
0
3DFACE
8
0
70
0
10
4.917708
20
216.709290
30
-24.786476
11
-11.819367
21
217.030762
31
-32.040726
12
3.086960
22
225.010803
32
-34.720909
13
3.086960
23
225.010803
33
-34.720909
0
3DFACE
8
0
70
0
10
-9.061328
20
212.558533
30
-17.074469
11
-11.819367
21
217.030762
31
-32.040726
12
4.917708
22
216.709290
32
-24.786476
13
4.917708
23
216.709290
33
-24.786476
0
3DFACE
8
0
70
0
10
-9.061328
20
212.558533
30
-17.074469
11
-24.871080
21
216.709290
31
-19.296900
12
-11.819367
22
217.030762
32
-32.040726
13
-11.819367
23
217.030762
33
-32.040726
0
3DFACE
8
0
70
0
10
-24.871080
20
216.709290
30
-19.296900
11
-26.701830
21
225.010803
31
-29.231333
12
-11.819367
22
217.030762
32
-32.040726
13
-11.819367
23
217.030762
33
-32.040726
0
3DFACE
8
0
70
0
10
-11.819367
20
217.030762
30
-32.040726
11
-26.701830
21
225.010803
31
-29.231333
12
-12.722833
22
229.161560
32
-36.943375
13
-12.722833
23
229.161560
33
-36.943375
0
3DFACE
8
0
70
0
10
42.245071
20
121.136047
30
100.674286
11
63.366791
21
119.614807
31
72.723236
12
54.713234
22
134.451538
32
97.734627
13
54.713234
23
134.451538
33
97.734627
0
3DFACE
8
0
70
0
10
63.366791
20
119.614807
30
72.723236
11
59.688572
21
127.184601
31
71.591492
12
54.713234
22
134.451538
32
97.734627
13
54.713234
23
134.451538
33
97.734627
0
3DFACE
8
0
70
0
10
27.488041
20
121.113586
30
110.417107
11
42.245071
21
121.136047
31
100.674286
12
39.275173
22
135.602722
32
103.810272
13
39.275173
23
135.602722
33
103.810272
0
3DFACE
8
0
70
0
10
42.245071
20
121.136047
30
100.674286
11
54.713234
21
134.451538
31
97.734627
12
39.275173
22
135.602722
32
103.810272
13
39.275173
23
135.602722
33
103.810272
0
3DFACE
8
0
70
0
10
54.713234
20
134.451538
30
97.734627
11
59.688572
21
127.184601
31
71.591492
12
42.602745
22
143.720886
32
93.164810
13
42.602745
23
143.720886
33
93.164810
0
3DFACE
8
0
70
0
10
59.688572
20
127.184601
30
71.591492
11
56.454491
21
137.387543
31
69.036186
12
42.602745
22
143.720886
32
93.164810
13
42.602745
23
143.720886
33
93.164810
0
3DFACE
8
0
70
0
10
39.275173
20
135.602722
30
103.810272
11
42.602745
21
143.720886
31
93.164810
12
29.823795
22
144.867004
32
102.617485
13
29.823795
23
144.867004
33
102.617485
0
3DFACE
8
0
70
0
10
54.713234
20
134.451538
30
97.734627
11
42.602745
21
143.720886
31
93.164810
12
39.275173
22
135.602722
32
103.810272
13
39.275173
23
135.602722
33
103.810272
0
3DFACE
8
0
70
0
10
42.602745
20
143.720886
30
93.164810
11
56.454491
21
137.387543
31
69.036186
12
46.667488
22
153.615112
32
84.946579
13
46.667488
23
153.615112
33
84.946579
0
3DFACE
8
0
70
0
10
56.454491
20
137.387543
30
69.036186
11
58.121014
21
144.518097
31
65.965355
12
46.667488
22
153.615112
32
84.946579
13
46.667488
23
153.615112
33
84.946579
0
3DFACE
8
0
70
0
10
-44.569382
20
119.614807
30
92.614067
11
-27.568695
21
134.451538
31
112.897812
12
-41.536209
22
127.184601
32
90.245529
13
-41.536209
23
127.184601
33
90.245529
0
3DFACE
8
0
70
0
10
-14.871689
20
121.136047
30
111.199959
11
-27.568695
21
134.451538
31
112.897812
12
-44.569382
22
119.614807
32
92.614067
13
-44.569382
23
119.614807
33
92.614067
0
3DFACE
8
0
70
0
10
-14.871689
20
121.136047
30
111.199959
11
-10.979024
21
135.602722
31
113.071281
12
-27.568695
22
134.451538
32
112.897812
13
-27.568695
23
134.451538
33
112.897812
0
3DFACE
8
0
70
0
10
2.388891
20
121.113586
30
115.042465
11
-10.979024
21
135.602722
31
113.071281
12
-14.871689
22
121.136047
32
111.199959
13
-14.871689
23
121.136047
33
111.199959
0
3DFACE
8
0
70
0
10
-41.536209
20
127.184601
30
90.245529
11
-16.928291
21
143.720886
31
104.135384
12
-39.425449
22
137.387543
32
86.705261
13
-39.425449
23
137.387543
33
86.705261
0
3DFACE
8
0
70
0
10
-27.568695
20
134.451538
30
112.897812
11
-16.928291
21
143.720886
31
104.135384
12
-41.536209
22
127.184601
32
90.245529
13
-41.536209
23
127.184601
33
90.245529
0
3DFACE
8
0
70
0
10
-10.979024
20
135.602722
30
113.071281
11
-2.573689
21
144.867004
31
108.587807
12
-16.928291
22
143.720886
32
104.135384
13
-16.928291
23
143.720886
33
104.135384
0
3DFACE
8
0
70
0
10
-27.568695
20
134.451538
30
112.897812
11
-10.979024
21
135.602722
31
113.071281
12
-16.928291
22
143.720886
32
104.135384
13
-16.928291
23
143.720886
33
104.135384
0
3DFACE
8
0
70
0
10
-39.425449
20
137.387543
30
86.705261
11
-23.655500
21
153.615112
31
97.905937
12
-42.077126
22
144.518097
32
84.430206
13
-42.077126
23
144.518097
33
84.430206
0
3DFACE
8
0
70
0
10
-16.928291
20
143.720886
30
104.135384
11
-23.655500
21
153.615112
31
97.905937
12
-39.425449
22
137.387543
32
86.705261
13
-39.425449
23
137.387543
33
86.705261
0
3DFACE
8
0
70
0
10
19.813967
20
-85.470520
30
18.048174
11
19.731447
21
-77.492615
31
20.542637
12
21.870173
22
-54.901443
32
-4.480677
13
21.870173
23
-54.901443
33
-4.480677
0
3DFACE
8
0
70
0
10
19.813967
20
-85.470520
30
18.048174
11
21.870173
21
-54.901443
31
-4.480677
12
19.359152
22
-72.712349
32
-7.568500
13
19.359152
23
-72.712349
33
-7.568500
0
3DFACE
8
0
70
0
10
19.813967
20
-85.470520
30
18.048174
11
77.685738
21
-82.228271
31
26.764076
12
19.731447
22
-77.492615
32
20.542637
13
19.731447
23
-77.492615
33
20.542637
0
3DFACE
8
0
70
0
10
19.813967
20
-85.470520
30
18.048174
11
69.591133
21
-89.946152
31
22.653791
12
77.685738
22
-82.228271
32
26.764076
13
77.685738
23
-82.228271
33
26.764076
0
3DFACE
8
0
70
0
10
69.591133
20
-89.946152
30
22.653791
11
99.063492
21
-72.196098
31
15.993211
12
77.685738
22
-82.228271
32
26.764076
13
77.685738
23
-82.228271
33
26.764076
0
3DFACE
8
0
70
0
10
69.591133
20
-89.946152
30
22.653791
11
87.527191
21
-85.048195
31
11.220326
12
99.063492
22
-72.196098
32
15.993211
13
99.063492
23
-72.196098
33
15.993211
0
3DFACE
8
0
70
0
10
39.687546
20
-63.168854
30
-28.555412
11
21.870173
21
-54.901443
31
-4.480677
12
44.702099
22
-35.952194
32
-25.118431
13
44.702099
23
-35.952194
33
-25.118431
0
3DFACE
8
0
70
0
10
19.359152
20
-72.712349
30
-7.568500
11
21.870173
21
-54.901443
31
-4.480677
12
39.687546
22
-63.168854
32
-28.555412
13
39.687546
23
-63.168854
33
-28.555412
0
3DFACE
8
0
70
0
10
82.508957
20
-75.450073
30
-7.638542
11
93.916664
21
-55.227005
31
-2.915613
12
99.063492
22
-72.196098
32
15.993211
13
99.063492
23
-72.196098
33
15.993211
0
3DFACE
8
0
70
0
10
87.527191
20
-85.048195
30
11.220326
11
82.508957
21
-75.450073
31
-7.638542
12
99.063492
22
-72.196098
32
15.993211
13
99.063492
23
-72.196098
33
15.993211
0
3DFACE
8
0
70
0
10
39.687546
20
-63.168854
30
-28.555412
11
44.702099
21
-35.952194
31
-25.118431
12
93.916664
22
-55.227005
32
-2.915613
13
93.916664
23
-55.227005
33
-2.915613
0
3DFACE
8
0
70
0
10
82.508957
20
-75.450073
30
-7.638542
11
39.687546
21
-63.168854
31
-28.555412
12
93.916664
22
-55.227005
32
-2.915613
13
93.916664
23
-55.227005
33
-2.915613
0
3DFACE
8
0
70
0
10
-24.496832
20
-86.243896
30
19.193069
11
-24.061098
21
-73.500160
31
-6.398749
12
-26.536051
22
-55.902443
32
-3.322797
13
-26.536051
23
-55.902443
33
-3.322797
0
3DFACE
8
0
70
0
10
-24.496832
20
-86.243896
30
19.193069
11
-26.536051
21
-55.902443
31
-3.322797
12
-24.368286
22
-78.499985
32
21.667780
13
-24.368286
23
-78.499985
33
21.667780
0
3DFACE
8
0
70
0
10
-24.496832
20
-86.243896
30
19.193069
11
-24.368286
21
-78.499985
31
21.667780
12
-82.315468
22
-83.261848
32
27.934618
13
-82.315468
23
-83.261848
33
27.934618
0
3DFACE
8
0
70
0
10
-24.496832
20
-86.243896
30
19.193069
11
-82.315468
21
-83.261848
31
27.934618
12
-74.267647
22
-90.744118
32
23.837942
13
-74.267647
23
-90.744118
33
23.837942
0
3DFACE
8
0
70
0
10
-74.267647
20
-90.744118
30
23.837942
11
-82.315468
21
-83.261848
31
27.934618
12
-103.705772
22
-73.235550
32
17.196573
13
-103.705772
23
-73.235550
33
17.196573
0
3DFACE
8
0
70
0
10
-74.267647
20
-90.744118
30
23.837942
11
-103.705772
21
-73.235550
31
17.196573
12
-92.211151
22
-85.862526
32
12.431530
13
-92.211151
23
-85.862526
33
12.431530
0
3DFACE
8
0
70
0
10
-44.403900
20
-63.979813
30
-27.347086
11
-49.391972
21
-36.956810
31
-23.914267
12
-26.536051
22
-55.902443
32
-3.322797
13
-26.536051
23
-55.902443
33
-3.322797
0
3DFACE
8
0
70
0
10
-24.061098
20
-73.500160
30
-6.398749
11
-44.403900
21
-63.979813
31
-27.347086
12
-26.536051
22
-55.902443
32
-3.322797
13
-26.536051
23
-55.902443
33
-3.322797
0
3DFACE
8
0
70
0
10
-92.211151
20
-85.862526
30
12.431530
11
-103.705772
21
-73.235550
31
17.196573
12
-87.207237
22
-76.272461
32
-6.413160
13
-87.207237
23
-76.272461
33
-6.413160
0
3DFACE
8
0
70
0
10
-87.207237
20
-76.272461
30
-6.413160
11
-103.705772
21
-73.235550
31
17.196573
12
-98.580864
22
-56.258789
32
-1.693712
13
-98.580864
23
-56.258789
33
-1.693712
0
3DFACE
8
0
70
0
10
-87.207237
20
-76.272461
30
-6.413160
11
-98.580864
21
-56.258789
31
-1.693712
12
-44.403900
22
-63.979813
32
-27.347086
13
-44.403900
23
-63.979813
33
-27.347086
0
3DFACE
8
0
70
0
10
-44.403900
20
-63.979813
30
-27.347086
11
-98.580864
21
-56.258789
31
-1.693712
12
-49.391972
22
-36.956810
32
-23.914267
13
-49.391972
23
-36.956810
33
-23.914267
0
3DFACE
8
0
70
0
10
25.487289
20
-93.294418
30
13.963548
11
19.813967
21
-85.470520
31
18.048174
12
19.359152
22
-72.712349
32
-7.568500
13
19.359152
23
-72.712349
33
-7.568500
0
3DFACE
8
0
70
0
10
20.009071
20
-109.875443
30
-6.997313
11
25.487289
21
-93.294418
31
13.963548
12
19.359152
22
-72.712349
32
-7.568500
13
19.359152
23
-72.712349
33
-7.568500
0
3DFACE
8
0
70
0
10
69.758202
20
-101.398972
30
15.895651
11
69.591133
21
-89.946152
31
22.653791
12
25.487289
22
-93.294418
32
13.963548
13
25.487289
23
-93.294418
33
13.963548
0
3DFACE
8
0
70
0
10
25.487289
20
-93.294418
30
13.963548
11
69.591133
21
-89.946152
31
22.653791
12
19.813967
22
-85.470520
32
18.048174
13
19.813967
23
-85.470520
33
18.048174
0
3DFACE
8
0
70
0
10
81.668785
20
-116.990021
30
7.681084
11
87.527191
21
-85.048195
31
11.220326
12
69.758202
22
-101.398972
32
15.895651
13
69.758202
23
-101.398972
33
15.895651
0
3DFACE
8
0
70
0
10
69.758202
20
-101.398972
30
15.895651
11
87.527191
21
-85.048195
31
11.220326
12
69.591133
22
-89.946152
32
22.653791
13
69.591133
23
-89.946152
33
22.653791
0
3DFACE
8
0
70
0
10
20.009071
20
-109.875443
30
-6.997313
11
19.359152
21
-72.712349
31
-7.568500
12
39.687546
22
-63.168854
32
-28.555412
13
39.687546
23
-63.168854
33
-28.555412
0
3DFACE
8
0
70
0
10
2.932309
20
-126.159157
30
-31.986113
11
20.009071
21
-109.875443
31
-6.997313
12
39.687546
22
-63.168854
32
-28.555412
13
39.687546
23
-63.168854
33
-28.555412
0
3DFACE
8
0
70
0
10
93.520767
20
-136.006134
30
-8.792943
11
82.508957
21
-75.450073
31
-7.638542
12
81.668785
22
-116.990021
32
7.681084
13
81.668785
23
-116.990021
33
7.681084
0
3DFACE
8
0
70
0
10
81.668785
20
-116.990021
30
7.681084
11
82.508957
21
-75.450073
31
-7.638542
12
87.527191
22
-85.048195
32
11.220326
13
87.527191
23
-85.048195
33
11.220326
0
3DFACE
8
0
70
0
10
2.932309
20
-126.159157
30
-31.986113
11
39.687546
21
-63.168854
31
-28.555412
12
93.520767
22
-136.006134
32
-8.792943
13
93.520767
23
-136.006134
33
-8.792943
0
3DFACE
8
0
70
0
10
93.520767
20
-136.006134
30
-8.792943
11
39.687546
21
-63.168854
31
-28.555412
12
82.508957
22
-75.450073
32
-7.638542
13
82.508957
23
-75.450073
33
-7.638542
0
3DFACE
8
0
70
0
10
-24.529167
20
-110.384354
30
-5.936313
11
-24.061098
21
-73.500160
31
-6.398749
12
-30.017845
22
-93.767693
32
14.971462
13
-30.017845
23
-93.767693
33
14.971462
0
3DFACE
8
0
70
0
10
-30.017845
20
-93.767693
30
14.971462
11
-24.061098
21
-73.500160
31
-6.398749
12
-24.496832
22
-86.243896
32
19.193069
13
-24.496832
23
-86.243896
33
19.193069
0
3DFACE
8
0
70
0
10
-30.017845
20
-93.767693
30
14.971462
11
-24.496832
21
-86.243896
31
19.193069
12
-74.267647
22
-90.744118
32
23.837942
13
-74.267647
23
-90.744118
33
23.837942
0
3DFACE
8
0
70
0
10
-74.279625
20
-101.895187
30
16.941299
11
-30.017845
21
-93.767693
31
14.971462
12
-74.267647
22
-90.744118
32
23.837942
13
-74.267647
23
-90.744118
33
23.837942
0
3DFACE
8
0
70
0
10
-74.279625
20
-101.895187
30
16.941299
11
-74.267647
21
-90.744118
31
23.837942
12
-92.211151
22
-85.862526
32
12.431530
13
-92.211151
23
-85.862526
33
12.431530
0
3DFACE
8
0
70
0
10
-86.177467
20
-117.513397
30
8.774266
11
-74.279625
21
-101.895187
31
16.941299
12
-92.211151
22
-85.862526
32
12.431530
13
-92.211151
23
-85.862526
33
12.431530
0
3DFACE
8
0
70
0
10
-7.443412
20
-126.703323
30
-30.874624
11
-44.403900
21
-63.979813
31
-27.347086
12
-24.529167
22
-110.384354
32
-5.936313
13
-24.529167
23
-110.384354
33
-5.936313
0
3DFACE
8
0
70
0
10
-24.529167
20
-110.384354
30
-5.936313
11
-44.403900
21
-63.979813
31
-27.347086
12
-24.061098
22
-73.500160
32
-6.398749
13
-24.061098
23
-73.500160
33
-6.398749
0
3DFACE
8
0
70
0
10
-86.177467
20
-117.513397
30
8.774266
11
-92.211151
21
-85.862526
31
12.431530
12
-87.207237
22
-76.272461
32
-6.413160
13
-87.207237
23
-76.272461
33
-6.413160
0
3DFACE
8
0
70
0
10
-98.015312
20
-136.569138
30
-7.637025
11
-86.177467
21
-117.513397
31
8.774266
12
-87.207237
22
-76.272461
32
-6.413160
13
-87.207237
23
-76.272461
33
-6.413160
0
3DFACE
8
0
70
0
10
-98.015312
20
-136.569138
30
-7.637025
11
-87.207237
21
-76.272461
31
-6.413160
12
-44.403900
22
-63.979813
32
-27.347086
13
-44.403900
23
-63.979813
33
-27.347086
0
3DFACE
8
0
70
0
10
-7.443412
20
-126.703323
30
-30.874624
11
-98.015312
21
-136.569138
31
-7.637025
12
-44.403900
22
-63.979813
32
-27.347086
13
-44.403900
23
-63.979813
33
-27.347086
0
3DFACE
8
0
70
0
10
135.279495
20
-31.638702
30
101.147308
11
-2.483202
21
-31.691360
31
143.281845
12
-2.483204
22
-40.745819
32
135.866699
13
-2.483204
23
-40.745819
33
135.866699
0
3DFACE
8
0
70
0
10
135.279495
20
-31.638702
30
101.147308
11
136.519516
21
-11.265091
31
103.555336
12
-2.483202
22
-31.691360
32
143.281845
13
-2.483202
23
-31.691360
33
143.281845
0
3DFACE
8
0
70
0
10
135.279480
20
15.265457
30
-76.979576
11
-2.374479
21
23.276489
31
-111.322395
12
-2.483209
22
46.205750
32
-113.864861
13
-2.483209
23
46.205750
33
-113.864861
0
3DFACE
8
0
70
0
10
135.279480
20
15.265457
30
-76.979576
11
-2.483209
21
46.205750
31
-113.864861
12
136.519516
22
35.533646
32
-74.171188
13
136.519516
23
35.533646
33
-74.171188
0
3DFACE
8
0
70
0
10
135.279495
20
-31.638702
30
101.147308
11
170.027206
21
14.747696
31
4.767148
12
136.519516
22
-11.265091
32
103.555336
13
136.519516
23
-11.265091
33
103.555336
0
3DFACE
8
0
70
0
10
135.279495
20
-31.638702
30
101.147308
11
168.498322
21
-8.820465
31
14.490994
12
170.027206
22
14.747696
32
4.767148
13
170.027206
23
14.747696
33
4.767148
0
3DFACE
8
0
70
0
10
168.498322
20
-8.820465
30
14.490994
11
135.279480
21
15.265457
31
-76.979576
12
136.519516
22
35.533646
32
-74.171188
13
136.519516
23
35.533646
33
-74.171188
0
3DFACE
8
0
70
0
10
168.498322
20
-8.820465
30
14.490994
11
136.519516
21
35.533646
31
-74.171188
12
170.027206
22
14.747696
32
4.767148
13
170.027206
23
14.747696
33
4.767148
0
3DFACE
8
0
70
0
10
-140.245895
20
-31.638718
30
101.147301
11
-2.483204
21
-40.745819
31
135.866699
12
-2.483202
22
-31.691360
32
143.281845
13
-2.483202
23
-31.691360
33
143.281845
0
3DFACE
8
0
70
0
10
-140.245895
20
-31.638718
30
101.147301
11
-2.483202
21
-31.691360
31
143.281845
12
-141.485916
22
-11.265106
32
103.555321
13
-141.485916
23
-11.265106
33
103.555321
0
3DFACE
8
0
70
0
10
-140.245911
20
15.265442
30
-76.979584
11
-2.483209
21
46.205750
31
-113.864861
12
-2.374479
22
23.276489
32
-111.322395
13
-2.374479
23
23.276489
33
-111.322395
0
3DFACE
8
0
70
0
10
-140.245911
20
15.265442
30
-76.979584
11
-141.485916
21
35.533630
31
-74.171196
12
-2.483209
22
46.205750
32
-113.864861
13
-2.483209
23
46.205750
33
-113.864861
0
3DFACE
8
0
70
0
10
-140.245895
20
-31.638718
30
101.147301
11
-174.993622
21
14.747681
31
4.767137
12
-173.464722
22
-8.820480
32
14.490984
13
-173.464722
23
-8.820480
33
14.490984
0
3DFACE
8
0
70
0
10
-140.245895
20
-31.638718
30
101.147301
11
-141.485916
21
-11.265106
31
103.555321
12
-174.993622
22
14.747681
32
4.767137
13
-174.993622
23
14.747681
33
4.767137
0
3DFACE
8
0
70
0
10
-173.464722
20
-8.820480
30
14.490984
11
-174.993622
21
14.747681
31
4.767137
12
-141.485916
22
35.533630
32
-74.171196
13
-141.485916
23
35.533630
33
-74.171196
0
3DFACE
8
0
70
0
10
-173.464722
20
-8.820480
30
14.490984
11
-141.485916
21
35.533630
31
-74.171196
12
-140.245911
22
15.265442
32
-76.979584
13
-140.245911
23
15.265442
33
-76.979584
0
3DFACE
8
0
70
0
10
-2.483202
20
-31.691360
30
143.281845
11
67.856644
21
63.591476
31
50.032574
12
-2.483198
22
45.170593
32
57.429176
13
-2.483198
23
45.170593
33
57.429176
0
3DFACE
8
0
70
0
10
-2.483202
20
-31.691360
30
143.281845
11
136.519516
21
-11.265091
31
103.555336
12
67.856644
22
63.591476
32
50.032574
13
67.856644
23
63.591476
33
50.032574
0
3DFACE
8
0
70
0
10
136.519516
20
35.533646
30
-74.171188
11
-2.483209
21
46.205750
31
-113.864861
12
66.875900
22
105.274628
32
-60.858238
13
66.875900
23
105.274628
33
-60.858238
0
3DFACE
8
0
70
0
10
-2.483209
20
46.205750
30
-113.864861
11
-2.224000
21
118.126221
31
-66.393799
12
66.875900
22
105.274628
32
-60.858238
13
66.875900
23
105.274628
33
-60.858238
0
3DFACE
8
0
70
0
10
136.519516
20
-11.265091
30
103.555336
11
119.190147
21
69.335571
31
4.878599
12
88.603920
22
86.234680
32
38.390610
13
88.603920
23
86.234680
33
38.390610
0
3DFACE
8
0
70
0
10
136.519516
20
-11.265091
30
103.555336
11
170.027206
21
14.747696
31
4.767148
12
119.190147
22
69.335571
32
4.878599
13
119.190147
23
69.335571
33
4.878599
0
3DFACE
8
0
70
0
10
136.519516
20
35.533646
30
-74.171188
11
96.141495
21
95.960892
31
-41.664177
12
119.190147
22
69.335571
32
4.878599
13
119.190147
23
69.335571
33
4.878599
0
3DFACE
8
0
70
0
10
170.027206
20
14.747696
30
4.767148
11
136.519516
21
35.533646
31
-74.171188
12
119.190147
22
69.335571
32
4.878599
13
119.190147
23
69.335571
33
4.878599
0
3DFACE
8
0
70
0
10
136.519516
20
-11.265091
30
103.555336
11
88.603920
21
86.234680
31
38.390610
12
67.856644
22
63.591476
32
50.032574
13
67.856644
23
63.591476
33
50.032574
0
3DFACE
8
0
70
0
10
136.519516
20
35.533646
30
-74.171188
11
66.875900
21
105.274628
31
-60.858238
12
96.141495
22
95.960892
32
-41.664177
13
96.141495
23
95.960892
33
-41.664177
0
3DFACE
8
0
70
0
10
-2.483202
20
-31.691360
30
143.281845
11
-72.573097
21
63.591476
31
50.032570
12
-141.485916
22
-11.265106
32
103.555321
13
-141.485916
23
-11.265106
33
103.555321
0
3DFACE
8
0
70
0
10
-2.483202
20
-31.691360
30
143.281845
11
-2.483198
21
45.170593
31
57.429176
12
-72.573097
22
63.591476
32
50.032570
13
-72.573097
23
63.591476
33
50.032570
0
3DFACE
8
0
70
0
10
-141.485916
20
35.533630
30
-74.171196
11
-71.524193
21
105.274628
31
-60.858242
12
-2.483209
22
46.205750
32
-113.864861
13
-2.483209
23
46.205750
33
-113.864861
0
3DFACE
8
0
70
0
10
-2.483209
20
46.205750
30
-113.864861
11
-71.524193
21
105.274628
31
-60.858242
12
-2.224000
22
118.126221
32
-66.393799
13
-2.224000
23
118.126221
33
-66.393799
0
3DFACE
8
0
70
0
10
-141.485916
20
-11.265106
30
103.555321
11
-100.920235
21
80.138794
31
38.749729
12
-129.727051
22
67.341431
32
-0.227546
13
-129.727051
23
67.341431
33
-0.227546
0
3DFACE
8
0
70
0
10
-141.485916
20
-11.265106
30
103.555321
11
-129.727051
21
67.341431
31
-0.227546
12
-174.993622
22
14.747681
32
4.767137
13
-174.993622
23
14.747681
33
4.767137
0
3DFACE
8
0
70
0
10
-174.993622
20
14.747681
30
4.767137
11
-129.727051
21
67.341431
31
-0.227546
12
-141.485916
22
35.533630
32
-74.171196
13
-141.485916
23
35.533630
33
-74.171196
0
3DFACE
8
0
70
0
10
-141.485916
20
35.533630
30
-74.171196
11
-129.727051
21
67.341431
31
-0.227546
12
-98.522919
22
97.751968
32
-43.606434
13
-98.522919
23
97.751968
33
-43.606434
0
3DFACE
8
0
70
0
10
-141.485916
20
-11.265106
30
103.555321
11
-72.573097
21
63.591476
31
50.032570
12
-100.920235
22
80.138794
32
38.749729
13
-100.920235
23
80.138794
33
38.749729
0
3DFACE
8
0
70
0
10
-141.485916
20
35.533630
30
-74.171196
11
-98.522919
21
97.751968
31
-43.606434
12
-71.524193
22
105.274628
32
-60.858242
13
-71.524193
23
105.274628
33
-60.858242
0
3DFACE
8
0
70
0
10
119.190147
20
69.335571
30
4.878599
11
127.928986
21
138.582672
31
70.789452
12
88.603920
22
86.234680
32
38.390610
13
88.603920
23
86.234680
33
38.390610
0
3DFACE
8
0
70
0
10
157.806244
20
104.096222
30
58.334812
11
127.928986
21
138.582672
31
70.789452
12
119.190147
22
69.335571
32
4.878599
13
119.190147
23
69.335571
33
4.878599
0
3DFACE
8
0
70
0
10
88.603920
20
86.234680
30
38.390610
11
165.194962
21
157.528717
31
39.895679
12
71.293900
22
112.832642
32
-16.602907
13
71.293900
23
112.832642
33
-16.602907
0
3DFACE
8
0
70
0
10
88.603920
20
86.234680
30
38.390610
11
127.928986
21
138.582672
31
70.789452
12
165.194962
22
157.528717
32
39.895679
13
165.194962
23
157.528717
33
39.895679
0
3DFACE
8
0
70
0
10
96.141495
20
95.960892
30
-41.664177
11
71.293900
21
112.832642
31
-16.602907
12
165.194962
22
157.528717
32
39.895679
13
165.194962
23
157.528717
33
39.895679
0
3DFACE
8
0
70
0
10
96.141495
20
95.960892
30
-41.664177
11
165.194962
21
157.528717
31
39.895679
12
188.528992
22
122.338104
32
32.215355
13
188.528992
23
122.338104
33
32.215355
0
3DFACE
8
0
70
0
10
119.190147
20
69.335571
30
4.878599
11
96.141495
21
95.960892
31
-41.664177
12
188.528992
22
122.338104
32
32.215355
13
188.528992
23
122.338104
33
32.215355
0
3DFACE
8
0
70
0
10
157.806244
20
104.096222
30
58.334812
11
119.190147
21
69.335571
31
4.878599
12
188.528992
22
122.338104
32
32.215355
13
188.528992
23
122.338104
33
32.215355
0
3DFACE
8
0
70
0
10
-129.727051
20
67.341431
30
-0.227546
11
-100.920235
21
80.138794
31
38.749729
12
-145.639832
22
135.470093
32
45.336376
13
-145.639832
23
135.470093
33
45.336376
0
3DFACE
8
0
70
0
10
-179.795181
20
110.606903
30
22.196821
11
-129.727051
21
67.341431
31
-0.227546
12
-145.639832
22
135.470093
32
45.336376
13
-145.639832
23
135.470093
33
45.336376
0
3DFACE
8
0
70
0
10
-100.920235
20
80.138794
30
38.749729
11
-75.047646
21
112.383026
31
-14.215126
12
-173.961868
22
166.619720
32
13.323315
13
-173.961868
23
166.619720
33
13.323315
0
3DFACE
8
0
70
0
10
-100.920235
20
80.138794
30
38.749729
11
-173.961868
21
166.619720
31
13.323315
12
-145.639832
22
135.470093
32
45.336376
13
-145.639832
23
135.470093
33
45.336376
0
3DFACE
8
0
70
0
10
-98.522919
20
97.751968
30
-43.606434
11
-173.961868
21
166.619720
31
13.323315
12
-75.047646
22
112.383026
32
-14.215126
13
-75.047646
23
112.383026
33
-14.215126
0
3DFACE
8
0
70
0
10
-98.522919
20
97.751968
30
-43.606434
11
-202.539993
21
138.918152
31
-4.328713
12
-173.961868
22
166.619720
32
13.323315
13
-173.961868
23
166.619720
33
13.323315
0
3DFACE
8
0
70
0
10
-129.727051
20
67.341431
30
-0.227546
11
-202.539993
21
138.918152
31
-4.328713
12
-98.522919
22
97.751968
32
-43.606434
13
-98.522919
23
97.751968
33
-43.606434
0
3DFACE
8
0
70
0
10
-179.795181
20
110.606903
30
22.196821
11
-202.539993
21
138.918152
31
-4.328713
12
-129.727051
22
67.341431
32
-0.227546
13
-129.727051
23
67.341431
33
-0.227546
0
3DFACE
8
0
70
0
10
-184.161697
20
114.154694
30
67.673233
11
-179.795181
21
110.606903
31
22.196821
12
-145.639832
22
135.470093
32
45.336376
13
-145.639832
23
135.470093
33
45.336376
0
3DFACE
8
0
70
0
10
-184.161697
20
114.154694
30
67.673233
11
-145.639832
21
135.470093
31
45.336376
12
-141.248383
22
134.589478
32
57.510292
13
-141.248383
23
134.589478
33
57.510292
0
3DFACE
8
0
70
0
10
-141.248383
20
134.589478
30
57.510292
11
-145.639832
21
135.470093
31
45.336376
12
-173.961868
22
166.619720
32
13.323315
13
-173.961868
23
166.619720
33
13.323315
0
3DFACE
8
0
70
0
10
-141.248383
20
134.589478
30
57.510292
11
-173.961868
21
166.619720
31
13.323315
12
-177.629547
22
172.341980
32
66.139473
13
-177.629547
23
172.341980
33
66.139473
0
3DFACE
8
0
70
0
10
-213.364532
20
148.275818
30
74.600708
11
-177.629547
21
172.341980
31
66.139473
12
-173.961868
22
166.619720
32
13.323315
13
-173.961868
23
166.619720
33
13.323315
0
3DFACE
8
0
70
0
10
-213.364532
20
148.275818
30
74.600708
11
-173.961868
21
166.619720
31
13.323315
12
-202.539993
22
138.918152
32
-4.328713
13
-202.539993
23
138.918152
33
-4.328713
0
3DFACE
8
0
70
0
10
-184.161697
20
114.154694
30
67.673233
11
-213.364532
21
148.275818
31
74.600708
12
-202.539993
22
138.918152
32
-4.328713
13
-202.539993
23
138.918152
33
-4.328713
0
3DFACE
8
0
70
0
10
-184.161697
20
114.154694
30
67.673233
11
-202.539993
21
138.918152
31
-4.328713
12
-179.795181
22
110.606903
32
22.196821
13
-179.795181
23
110.606903
33
22.196821
0
3DFACE
8
0
70
0
10
182.044922
20
111.714508
30
98.062973
11
127.928986
21
138.582672
31
70.789452
12
157.806244
22
104.096222
32
58.334812
13
157.806244
23
104.096222
33
58.334812
0
3DFACE
8
0
70
0
10
182.044922
20
111.714508
30
98.062973
11
145.563080
21
143.748291
31
95.754990
12
127.928986
22
138.582672
32
70.789452
13
127.928986
23
138.582672
33
70.789452
0
3DFACE
8
0
70
0
10
145.563080
20
143.748291
30
95.754990
11
165.194962
21
157.528717
31
39.895679
12
127.928986
22
138.582672
32
70.789452
13
127.928986
23
138.582672
33
70.789452
0
3DFACE
8
0
70
0
10
145.563080
20
143.748291
30
95.754990
11
191.554550
21
167.934448
31
84.659081
12
165.194962
22
157.528717
32
39.895679
13
165.194962
23
157.528717
33
39.895679
0
3DFACE
8
0
70
0
10
220.005905
20
134.687286
30
88.251694
11
188.528992
21
122.338104
31
32.215355
12
165.194962
22
157.528717
32
39.895679
13
165.194962
23
157.528717
33
39.895679
0
3DFACE
8
0
70
0
10
220.005905
20
134.687286
30
88.251694
11
165.194962
21
157.528717
31
39.895679
12
191.554550
22
167.934448
32
84.659081
13
191.554550
23
167.934448
33
84.659081
0
3DFACE
8
0
70
0
10
182.044922
20
111.714508
30
98.062973
11
157.806244
21
104.096222
31
58.334812
12
188.528992
22
122.338104
32
32.215355
13
188.528992
23
122.338104
33
32.215355
0
3DFACE
8
0
70
0
10
182.044922
20
111.714508
30
98.062973
11
188.528992
21
122.338104
31
32.215355
12
220.005905
22
134.687286
32
88.251694
13
220.005905
23
134.687286
33
88.251694
0
3DFACE
8
0
70
0
10
-13.219629
20
221.819458
30
-12.118786
11
-8.693135
21
220.315186
31
-15.015143
12
-6.650315
22
187.138641
32
-4.248234
13
-22.791304
23
190.827942
33
6.231906
0
3DFACE
8
0
70
0
10
-3.431546
20
221.819458
30
-13.922566
11
12.166138
21
190.827911
31
-0.210167
12
-6.650315
22
187.138641
32
-4.248234
13
-8.693135
23
220.315186
33
-15.015143
0
3DFACE
8
0
70
0
10
0.398436
20
224.052338
30
-11.567353
11
25.881865
21
196.304169
31
8.403289
12
12.166138
22
190.827911
32
-0.210167
13
-3.431546
23
221.819458
33
-13.922566
0
3DFACE
8
0
70
0
10
0.205026
20
226.336548
30
-8.400298
11
25.229183
21
201.906311
31
19.920780
12
25.881865
22
196.304169
32
8.403289
13
0.398436
23
224.052338
33
-11.567353
0
3DFACE
8
0
70
0
10
0.076062
20
229.168335
30
-4.494500
11
24.815792
21
208.851379
31
34.126160
12
25.229183
22
201.906311
32
19.920780
13
0.205026
23
226.336548
33
-8.400298
0
3DFACE
8
0
70
0
10
-3.244053
20
230.543152
30
-1.997866
11
12.981151
21
212.223267
31
43.167027
12
24.815792
22
208.851379
32
34.126160
13
0.076062
23
229.168335
33
-4.494500
0
3DFACE
8
0
70
0
10
-5.998035
20
231.345520
30
-0.390387
11
3.158867
21
214.191101
31
48.980564
12
12.981151
22
212.223267
32
43.167027
13
-3.244053
23
230.543152
33
-1.997866
0
3DFACE
8
0
70
0
10
-5.998035
20
231.345520
30
-0.390387
11
-9.144113
21
230.543152
31
-0.910583
12
-8.090491
22
212.223267
32
47.050179
13
3.158867
23
214.191101
33
48.980564
0
3DFACE
8
0
70
0
10
-9.144113
20
230.543152
30
-0.910583
11
-13.136082
21
229.168335
31
-2.059723
12
-22.370436
22
208.851379
32
42.821793
13
-8.090491
23
212.223267
33
47.050179
0
3DFACE
8
0
70
0
10
-13.136082
20
229.168335
30
-2.059723
11
-14.648840
21
226.336548
31
-5.662979
12
-27.820339
22
201.906342
32
29.696922
13
-22.370436
23
208.851379
33
42.821793
0
3DFACE
8
0
70
0
10
-14.648840
20
226.336548
30
-5.662979
11
-15.958475
21
224.052368
31
-8.553048
12
-32.535675
22
196.304199
32
19.168667
13
-27.820339
23
201.906342
33
29.696922
0
3DFACE
8
0
70
0
10
-15.958475
20
224.052368
30
-8.553048
11
-13.219629
21
221.819458
31
-12.118786
12
-22.791304
22
190.827942
32
6.231906
13
-32.535675
23
196.304199
33
19.168667
0
ENDSEC
0
EOF
