0
SECTION
2
HEADER
999
DXF File Generated by LightWave 3D(TM)
0
ENDSEC
0
SECTION
2
TABLES
0
ENDSEC
0
SECTION
2
BLOCKS
0
ENDSEC
0
SECTION
2
ENTITIES
0
3DFACE
8
0
70
0
10
-2.352265
20
-63.235703
30
117.583130
11
12.887836
21
-97.013000
31
65.832848
12
71.619034
22
-90.499214
32
54.856197
13
83.018959
23
-56.856300
33
89.949501
0
3DFACE
8
0
70
0
10
83.018959
20
-28.461212
30
-47.110638
11
95.713799
21
-36.224831
31
-18.610119
12
49.956715
22
-13.513947
32
-47.192253
13
-2.352270
23
-23.130325
33
-76.001373
0
3DFACE
8
0
70
0
10
-2.352265
20
-73.541397
30
142.823990
11
-2.352265
21
-63.235703
31
117.583130
12
83.018959
22
-56.856300
32
89.949501
13
110.526337
23
-65.792465
33
108.793457
0
3DFACE
8
0
70
0
10
110.526329
20
-29.857582
30
-64.660454
11
83.018959
21
-28.461212
31
-47.110638
12
-2.352270
22
-23.130325
32
-76.001373
13
-2.352271
23
-23.591919
33
-98.276955
0
3DFACE
8
0
70
0
10
-2.352264
20
-73.607544
30
155.885162
11
117.370827
21
-64.972076
31
117.464394
12
136.017120
22
-22.884491
32
105.716125
13
-2.352261
23
-30.768661
33
143.927170
0
3DFACE
8
0
70
0
10
117.370819
20
-24.365669
30
-78.538528
11
-2.352272
21
-17.164627
31
-116.558907
12
-2.350980
22
25.649628
32
-128.507736
13
136.017120
23
17.721924
33
-90.286789
0
3DFACE
8
0
70
0
10
-2.352261
20
-30.768661
30
143.927170
11
136.017120
21
-22.884491
31
105.716125
12
128.145966
22
-20.011887
32
96.014336
13
-2.352262
23
-26.977066
33
129.826096
0
3DFACE
8
0
70
0
10
-2.352264
20
-73.607544
30
155.885162
11
-2.352265
21
-73.541397
31
142.823990
12
110.526337
22
-65.792465
32
108.793457
13
117.370827
23
-64.972076
33
117.464394
0
3DFACE
8
0
70
0
10
136.017120
20
17.721924
30
-90.286789
11
-2.350980
21
25.649628
31
-128.507736
12
-2.267948
22
22.073593
32
-110.952370
13
128.145966
23
15.922989
33
-77.439575
0
3DFACE
8
0
70
0
10
117.370819
20
-24.365669
30
-78.538528
11
110.526329
21
-29.857582
31
-64.660454
12
-2.352271
22
-23.591919
32
-98.276955
13
-2.352272
23
-17.164627
33
-116.558907
0
3DFACE
8
0
70
0
10
27.673773
20
-119.444244
30
102.617195
11
74.813721
21
-119.444244
31
102.617195
12
66.977409
22
-98.812729
32
87.801697
13
33.987896
23
-98.998032
33
87.801697
0
3DFACE
8
0
70
0
10
83.018959
20
-56.856300
30
89.949501
11
71.619034
21
-90.499214
31
54.856197
12
96.460632
22
-67.857056
32
19.527691
13
103.504837
23
-42.969543
33
22.919575
0
3DFACE
8
0
70
0
10
110.526337
20
-65.792465
30
108.793457
11
83.018959
21
-56.856300
31
89.949501
12
103.504837
22
-42.969543
32
22.919575
13
137.889069
23
-48.310631
33
24.410479
0
3DFACE
8
0
70
0
10
136.017120
20
-22.884491
30
105.716125
11
117.370827
21
-64.972076
31
117.464394
12
146.444672
22
-45.533249
32
23.635206
13
169.452042
23
-3.445663
33
11.886943
0
3DFACE
8
0
70
0
10
169.452042
20
-3.445663
30
11.886943
11
159.613113
21
-2.530060
31
11.631362
12
128.145966
22
-20.011887
32
96.014336
13
136.017120
23
-22.884491
33
105.716125
0
3DFACE
8
0
70
0
10
117.370827
20
-64.972076
30
117.464394
11
110.526337
21
-65.792465
31
108.793457
12
137.889069
22
-48.310631
32
24.410479
13
146.444672
23
-45.533249
33
23.635206
0
3DFACE
8
0
70
0
10
12.906889
20
-152.844193
30
102.617195
11
80.090286
21
-153.029510
31
102.617195
12
74.813721
22
-119.444244
32
102.617195
13
27.673773
23
-119.444244
33
102.617195
0
3DFACE
8
0
70
0
10
-2.171354
20
132.760986
30
-12.165238
11
68.631889
21
119.370483
31
-12.888762
12
64.135666
22
112.631042
32
-56.024242
13
-2.151255
23
123.555603
33
-62.366470
0
3DFACE
8
0
70
0
10
103.504837
20
-42.969543
30
22.919575
11
96.460632
21
-67.857056
31
19.527691
12
95.713799
22
-36.224831
32
-18.610119
13
83.018959
23
-28.461212
33
-47.110638
0
3DFACE
8
0
70
0
10
137.889069
20
-48.310631
30
24.410479
11
103.504837
21
-42.969543
31
22.919575
12
83.018959
22
-28.461212
32
-47.110638
13
110.526329
23
-29.857582
33
-64.660454
0
3DFACE
8
0
70
0
10
146.444672
20
-45.533249
30
23.635206
11
117.370819
21
-24.365669
31
-78.538528
12
136.017120
22
17.721924
32
-90.286789
13
169.452042
23
-3.445663
33
11.886943
0
3DFACE
8
0
70
0
10
136.017120
20
17.721924
30
-90.286789
11
128.145966
21
15.922989
31
-77.439575
12
159.613113
22
-2.530060
32
11.631362
13
169.452042
23
-3.445663
33
11.886943
0
3DFACE
8
0
70
0
10
146.444672
20
-45.533249
30
23.635206
11
137.889069
21
-48.310631
31
24.410479
12
110.526329
22
-29.857582
32
-64.660454
13
117.370819
23
-24.365669
33
-78.538528
0
3DFACE
8
0
70
0
10
20.604864
20
-80.265068
30
16.950737
11
12.887836
21
-97.013000
31
65.832848
12
21.198112
22
-56.190353
32
6.846529
13
20.614840
23
-57.943542
33
-7.370869
0
3DFACE
8
0
70
0
10
20.604864
20
-80.265068
30
16.950737
11
75.863449
21
-83.088463
31
19.998478
12
71.619034
22
-90.499214
32
54.856197
13
12.887836
23
-97.013000
33
65.832848
0
3DFACE
8
0
70
0
10
75.863449
20
-83.088463
30
19.998478
11
95.196892
21
-72.526932
31
8.480583
12
96.460632
22
-67.857056
32
19.527691
13
71.619034
23
-90.499214
33
54.856197
0
3DFACE
8
0
70
0
10
20.614840
20
-57.943542
30
-7.370869
11
21.198112
21
-56.190353
31
6.846529
12
49.956715
22
-13.513947
32
-47.192253
13
40.529388
23
-38.551987
33
-28.510290
0
3DFACE
8
0
70
0
10
95.196892
20
-72.526932
30
8.480583
11
88.814392
21
-55.974960
31
-9.551184
12
95.713799
22
-36.224831
32
-18.610119
13
96.460632
23
-67.857056
33
19.527691
0
3DFACE
8
0
70
0
10
88.814392
20
-55.974960
30
-9.551184
11
40.529388
21
-38.551987
31
-28.510290
12
49.956715
22
-13.513947
32
-47.192253
13
95.713799
23
-36.224831
33
-18.610119
0
3DFACE
8
0
70
0
10
20.722654
20
-118.436539
30
-9.379153
11
27.673773
21
-127.827744
31
43.725594
12
33.987896
22
-108.736435
32
35.947453
13
26.136129
23
-98.159714
33
11.132701
0
3DFACE
8
0
70
0
10
26.136129
20
-98.159714
30
11.132701
11
33.987896
21
-108.736435
31
35.947453
12
66.977409
22
-112.334427
32
35.947453
13
68.847252
23
-105.587189
33
10.974651
0
3DFACE
8
0
70
0
10
80.504280
20
-123.058746
30
2.172817
11
68.847252
21
-105.587189
31
10.974651
12
66.977409
22
-112.334427
32
35.947453
13
74.813721
23
-127.827744
33
43.725594
0
3DFACE
8
0
70
0
10
4.054821
20
-139.102646
30
-33.318611
11
16.610764
21
-150.617310
31
32.613968
12
27.673773
22
-127.827744
32
43.725594
13
20.722654
23
-118.436539
33
-9.379153
0
3DFACE
8
0
70
0
10
91.922607
20
-145.073990
30
-14.747251
11
80.504280
21
-123.058746
31
2.172817
12
74.813721
22
-127.827744
32
43.725594
13
83.794151
23
-150.723206
33
36.317848
0
3DFACE
8
0
70
0
10
91.922607
20
-145.073990
30
-14.747251
11
83.794151
21
-150.723206
31
36.317848
12
16.610764
22
-150.617310
32
32.613968
13
4.054821
23
-139.102646
33
-33.318611
0
3DFACE
8
0
70
0
10
27.673773
20
-119.444244
30
102.617195
11
33.987896
21
-98.998032
31
87.801697
12
33.987896
22
-108.736435
32
35.947453
13
27.673773
23
-127.827744
33
43.725594
0
3DFACE
8
0
70
0
10
33.987896
20
-98.998032
30
87.801697
11
66.977409
21
-98.812729
31
87.801697
12
66.977409
22
-112.334427
32
35.947453
13
33.987896
23
-108.736435
33
35.947453
0
3DFACE
8
0
70
0
10
74.813721
20
-119.444244
30
102.617195
11
74.813721
21
-127.827744
31
43.725594
12
66.977409
22
-112.334427
32
35.947453
13
66.977409
23
-98.812729
33
87.801697
0
3DFACE
8
0
70
0
10
12.906889
20
-152.844193
30
102.617195
11
27.673773
21
-119.444244
31
102.617195
12
27.673773
22
-127.827744
32
43.725594
13
16.610764
23
-150.617310
33
32.613968
0
3DFACE
8
0
70
0
10
80.090286
20
-153.029510
30
102.617195
11
83.794151
21
-150.723206
31
36.317848
12
74.813721
22
-127.827744
32
43.725594
13
74.813721
23
-119.444244
33
102.617195
0
3DFACE
8
0
70
0
10
80.090286
20
-153.029510
30
102.617195
11
12.906889
21
-152.844193
31
102.617195
12
16.610764
22
-150.617310
32
32.613968
13
83.794151
23
-150.723206
33
36.317848
0
3DFACE
8
0
70
0
10
249.201599
20
202.377747
30
223.824570
11
258.910889
21
206.684052
31
202.980255
12
248.248993
22
222.437927
32
213.643021
13
233.232986
23
213.100769
33
225.875290
0
3DFACE
8
0
70
0
10
93.603477
20
100.719803
30
-38.875645
11
64.135666
21
112.631042
31
-56.024242
12
68.631889
22
119.370483
32
-12.888762
13
68.631889
23
119.370483
33
-12.888762
0
3DFACE
8
0
70
0
10
87.051163
20
95.406342
30
40.697601
11
68.631889
21
119.370483
31
-12.888762
12
64.896210
22
75.992950
32
51.869530
13
64.896210
23
75.992950
33
51.869530
0
3DFACE
8
0
70
0
10
149.052414
20
157.011230
30
86.681870
11
189.895630
21
130.879395
31
90.054665
12
193.911835
22
138.917908
32
125.122307
13
153.617249
23
167.354431
33
120.986938
0
3DFACE
8
0
70
0
10
190.784714
20
186.882507
30
72.918762
11
149.052414
21
157.011230
31
86.681870
12
153.617249
22
167.354431
32
120.986938
13
194.508469
23
199.020905
33
106.771980
0
3DFACE
8
0
70
0
10
227.161758
20
168.781036
30
112.312164
11
223.886322
21
158.462860
31
77.855011
12
190.784714
22
186.882507
32
72.918762
13
194.508469
23
199.020905
33
106.771980
0
3DFACE
8
0
70
0
10
189.895630
20
130.879395
30
90.054665
11
223.886322
21
158.462860
31
77.855011
12
227.161758
22
168.781036
32
112.312164
13
193.911835
23
138.917908
33
125.122307
0
3DFACE
8
0
70
0
10
194.842468
20
127.864380
30
128.380539
11
198.683945
21
134.549316
31
161.670319
12
145.938187
22
176.888550
32
153.756912
13
141.542130
23
167.443604
33
122.312836
0
3DFACE
8
0
70
0
10
141.542130
20
167.443604
30
122.312836
11
145.938187
21
176.888550
31
153.756912
12
198.691818
22
222.855347
32
133.029602
13
195.400772
23
211.402222
33
102.905548
0
3DFACE
8
0
70
0
10
241.456329
20
178.741394
30
142.490295
11
238.620895
21
169.326782
31
110.862129
12
195.400772
22
211.402222
32
102.905548
13
198.691818
23
222.855347
33
133.029602
0
3DFACE
8
0
70
0
10
194.842468
20
127.864380
30
128.380539
11
238.620895
21
169.326782
31
110.862129
12
241.456329
22
178.741394
32
142.490295
13
198.683945
23
134.549316
33
161.670319
0
3DFACE
8
0
70
0
10
194.842468
20
127.864380
30
128.380539
11
141.542130
21
167.443604
31
122.312836
12
153.617249
22
167.354431
32
120.986938
13
193.911835
23
138.917908
33
125.122307
0
3DFACE
8
0
70
0
10
198.683945
20
134.549316
30
161.670319
11
197.694336
21
146.488708
31
158.149216
12
157.802917
22
176.838440
32
152.442673
13
145.938187
23
176.888550
33
153.756912
0
3DFACE
8
0
70
0
10
141.542130
20
167.443604
30
122.312836
11
195.400772
21
211.402222
31
102.905548
12
194.508469
22
199.020905
32
106.771980
13
153.617249
23
167.354431
33
120.986938
0
3DFACE
8
0
70
0
10
145.938187
20
176.888550
30
153.756912
11
157.802917
21
176.838440
31
152.442673
12
197.841263
22
209.884705
32
137.070648
13
198.691818
23
222.855347
33
133.029602
0
3DFACE
8
0
70
0
10
241.456329
20
178.741394
30
142.490295
11
198.691818
21
222.855347
31
133.029602
12
197.841263
22
209.884705
32
137.070648
13
230.165146
23
178.242126
33
143.907349
0
3DFACE
8
0
70
0
10
238.620895
20
169.326782
30
110.862129
11
227.161758
21
168.781036
31
112.312164
12
194.508469
22
199.020905
32
106.771980
13
195.400772
23
211.402222
33
102.905548
0
3DFACE
8
0
70
0
10
198.683945
20
134.549316
30
161.670319
11
241.456329
21
178.741394
31
142.490295
12
230.165146
22
178.242126
32
143.907349
13
197.694336
23
146.488708
33
158.149216
0
3DFACE
8
0
70
0
10
194.842468
20
127.864380
30
128.380539
11
193.911835
21
138.917908
31
125.122307
12
227.161758
22
168.781036
32
112.312164
13
238.620895
23
169.326782
33
110.862129
0
3DFACE
8
0
70
0
10
208.259918
20
157.433655
30
141.980820
11
182.449463
21
177.402649
31
144.938263
12
157.802917
22
176.838440
32
152.442673
13
197.694336
23
146.488708
33
158.149216
0
3DFACE
8
0
70
0
10
182.449463
20
177.402649
30
144.938263
11
205.572983
21
195.254395
31
125.223694
12
197.841263
22
209.884705
32
137.070648
13
157.802917
23
176.838440
33
152.442673
0
3DFACE
8
0
70
0
10
226.752563
20
174.843628
30
124.570473
11
230.165146
21
178.242126
31
143.907349
12
197.841263
22
209.884705
32
137.070648
13
205.572983
23
195.254395
33
125.223694
0
3DFACE
8
0
70
0
10
208.259918
20
157.433655
30
141.980820
11
197.694336
21
146.488708
31
158.149216
12
230.165146
22
178.242126
32
143.907349
13
226.752563
23
174.843628
33
124.570473
0
3DFACE
8
0
70
0
10
181.757797
20
185.021912
30
200.227814
11
180.036026
21
195.057404
31
196.108963
12
174.802917
22
190.753967
32
185.061554
13
176.413483
23
180.717407
33
189.209717
0
3DFACE
8
0
70
0
10
180.036026
20
195.057404
30
196.108963
11
178.993408
21
205.427155
31
191.562378
12
173.655075
22
201.136414
32
180.582687
13
174.802917
23
190.753967
33
185.061554
0
3DFACE
8
0
70
0
10
251.976791
20
185.994873
30
147.056717
11
226.752563
21
174.843628
31
124.570473
12
205.572983
22
195.254395
32
125.223694
13
222.570114
23
206.862762
33
151.443344
0
3DFACE
8
0
70
0
10
224.272369
20
169.137451
30
168.757416
11
208.259918
21
157.433655
31
141.980820
12
226.752563
22
174.843628
32
124.570473
13
251.976791
23
185.994873
33
147.056717
0
3DFACE
8
0
70
0
10
249.201599
20
202.377747
30
223.824570
11
233.232986
21
213.100769
31
225.875290
12
200.810867
22
195.528320
32
185.366257
13
224.272369
23
169.137451
33
168.757416
0
3DFACE
8
0
70
0
10
233.232986
20
213.100769
30
225.875290
11
248.248993
21
222.437927
31
213.643021
12
222.570114
22
206.862762
32
151.443344
13
200.810867
23
195.528320
33
185.366257
0
3DFACE
8
0
70
0
10
258.910889
20
206.684052
30
202.980255
11
251.976791
21
185.994873
31
147.056717
12
222.570114
22
206.862762
32
151.443344
13
248.248993
23
222.437927
33
213.643021
0
3DFACE
8
0
70
0
10
249.201599
20
202.377747
30
223.824570
11
224.272369
21
169.137451
31
168.757416
12
251.976791
22
185.994873
32
147.056717
13
258.910889
23
206.684052
33
202.980255
0
3DFACE
8
0
70
0
10
181.757797
20
185.021912
30
200.227814
11
176.413483
21
180.717407
31
189.209717
12
208.259918
22
157.433655
32
141.980820
13
224.272369
23
169.137451
33
168.757416
0
3DFACE
8
0
70
0
10
176.413483
20
180.717407
30
189.209717
11
174.802917
21
190.753967
31
185.061554
12
182.449463
22
177.402649
32
144.938263
13
208.259918
23
157.433655
33
141.980820
0
3DFACE
8
0
70
0
10
181.757797
20
185.021912
30
200.227814
11
224.272369
21
169.137451
31
168.757416
12
200.810867
22
195.528320
32
185.366257
13
180.036026
23
195.057404
33
196.108963
0
3DFACE
8
0
70
0
10
174.802917
20
190.753967
30
185.061554
11
173.655075
21
201.136414
31
180.582687
12
205.572983
22
195.254395
32
125.223694
13
182.449463
23
177.402649
33
144.938263
0
3DFACE
8
0
70
0
10
178.993408
20
205.427155
30
191.562378
11
222.570114
21
206.862762
31
151.443344
12
205.572983
22
195.254395
32
125.223694
13
173.655075
23
201.136414
33
180.582687
0
3DFACE
8
0
70
0
10
180.036026
20
195.057404
30
196.108963
11
200.810867
21
195.528320
31
185.366257
12
222.570114
22
206.862762
32
151.443344
13
178.993408
23
205.427155
33
191.562378
0
3DFACE
8
0
70
0
10
-2.352265
20
-63.235703
30
117.583130
11
-87.723488
21
-56.856308
31
89.949501
12
-77.280891
22
-89.545662
32
56.514030
13
-18.830528
23
-95.961311
33
68.312050
0
3DFACE
8
0
70
0
10
-87.723488
20
-28.461220
30
-47.110641
11
-2.352270
21
-23.130325
31
-76.001373
12
-53.675056
22
-15.799988
32
-46.388035
13
-99.929832
23
-37.440796
33
-18.041023
0
3DFACE
8
0
70
0
10
-2.352265
20
-73.541397
30
142.823990
11
-115.230873
21
-65.792473
31
108.793449
12
-87.723488
22
-56.856308
32
89.949501
13
-2.352265
23
-63.235703
33
117.583130
0
3DFACE
8
0
70
0
10
-115.230881
20
-29.857590
30
-64.660461
11
-2.352271
21
-23.591919
31
-98.276955
12
-2.352270
22
-23.130325
32
-76.001373
13
-87.723488
23
-28.461220
33
-47.110641
0
3DFACE
8
0
70
0
10
-2.352264
20
-73.607544
30
155.885162
11
-2.352261
21
-30.768661
31
143.927170
12
-140.721649
22
-22.884506
32
105.716118
13
-122.075348
23
-64.972092
33
117.464386
0
3DFACE
8
0
70
0
10
-122.075356
20
-24.365677
30
-78.538528
11
-140.721649
21
17.721909
31
-90.286797
12
-2.350980
22
25.649628
32
-128.507736
13
-2.352272
23
-17.164627
33
-116.558907
0
3DFACE
8
0
70
0
10
-2.352261
20
-30.768661
30
143.927170
11
-2.352262
21
-26.977066
31
129.826096
12
-132.850494
22
-20.011902
32
96.014328
13
-140.721649
23
-22.884506
33
105.716118
0
3DFACE
8
0
70
0
10
-2.352264
20
-73.607544
30
155.885162
11
-122.075348
21
-64.972092
31
117.464386
12
-115.230873
22
-65.792473
32
108.793449
13
-2.352265
23
-73.541397
33
142.823990
0
3DFACE
8
0
70
0
10
-140.721649
20
17.721909
30
-90.286797
11
-132.850494
21
15.922974
31
-77.439583
12
-2.267948
22
22.073593
32
-110.952370
13
-2.350980
23
25.649628
33
-128.507736
0
3DFACE
8
0
70
0
10
-122.075356
20
-24.365677
30
-78.538528
11
-2.352272
21
-17.164627
31
-116.558907
12
-2.352271
22
-23.591919
32
-98.276955
13
-115.230881
23
-29.857590
33
-64.660461
0
3DFACE
8
0
70
0
10
-31.473774
20
-119.444244
30
102.617195
11
-37.787899
21
-98.998032
31
87.801697
12
-70.777412
22
-98.812729
32
87.801697
13
-78.613716
23
-119.444244
33
102.617195
0
3DFACE
8
0
70
0
10
-87.723488
20
-56.856308
30
89.949501
11
-108.209366
21
-42.969551
31
22.919571
12
-101.452408
22
-67.919128
32
20.700085
13
-77.280891
23
-89.545662
33
56.514030
0
3DFACE
8
0
70
0
10
-115.230873
20
-65.792473
30
108.793449
11
-142.593613
21
-48.310638
31
24.410473
12
-108.209366
22
-42.969551
32
22.919571
13
-87.723488
23
-56.856308
33
89.949501
0
3DFACE
8
0
70
0
10
-140.721649
20
-22.884506
30
105.716118
11
-174.156570
21
-3.445679
31
11.886935
12
-151.149200
22
-45.533264
32
23.635201
13
-122.075348
23
-64.972092
33
117.464386
0
3DFACE
8
0
70
0
10
-174.156570
20
-3.445679
30
11.886935
11
-140.721649
21
-22.884506
31
105.716118
12
-132.850494
22
-20.011902
32
96.014328
13
-164.317627
23
-2.530075
33
11.631354
0
3DFACE
8
0
70
0
10
-122.075348
20
-64.972092
30
117.464386
11
-151.149200
21
-45.533264
31
23.635201
12
-142.593613
22
-48.310638
32
24.410473
13
-115.230873
23
-65.792473
33
108.793449
0
3DFACE
8
0
70
0
10
-16.706890
20
-152.844193
30
102.617195
11
-31.473774
21
-119.444244
31
102.617195
12
-78.613716
22
-119.444244
32
102.617195
13
-83.890282
23
-153.029510
33
102.617195
0
3DFACE
8
0
70
0
10
-2.171354
20
132.760986
30
-12.165238
11
-2.151255
21
123.555603
31
-62.366470
12
-68.593498
22
112.631042
32
-56.024242
13
-72.521820
23
119.205139
33
-11.276799
0
3DFACE
8
0
70
0
10
-108.209366
20
-42.969551
30
22.919571
11
-87.723488
21
-28.461220
31
-47.110641
12
-99.929832
22
-37.440796
32
-18.041023
13
-101.452408
23
-67.919128
33
20.700085
0
3DFACE
8
0
70
0
10
-142.593613
20
-48.310638
30
24.410473
11
-115.230881
21
-29.857590
31
-64.660461
12
-87.723488
22
-28.461220
32
-47.110641
13
-108.209366
23
-42.969551
33
22.919571
0
3DFACE
8
0
70
0
10
-151.149200
20
-45.533264
30
23.635201
11
-174.156570
21
-3.445679
31
11.886935
12
-140.721649
22
17.721909
32
-90.286797
13
-122.075356
23
-24.365677
33
-78.538528
0
3DFACE
8
0
70
0
10
-140.721649
20
17.721909
30
-90.286797
11
-174.156570
21
-3.445679
31
11.886935
12
-164.317627
22
-2.530075
32
11.631354
13
-132.850494
23
15.922974
33
-77.439583
0
3DFACE
8
0
70
0
10
-151.149200
20
-45.533264
30
23.635201
11
-122.075356
21
-24.365677
31
-78.538528
12
-115.230881
22
-29.857590
32
-64.660461
13
-142.593613
23
-48.310638
33
24.410473
0
3DFACE
8
0
70
0
10
-25.080566
20
-81.119492
30
17.785862
11
-25.118906
21
-58.781876
31
-6.499023
12
-26.033676
22
-56.952499
32
8.779906
13
-18.830528
23
-95.961311
33
68.312050
0
3DFACE
8
0
70
0
10
-25.080566
20
-81.119492
30
17.785862
11
-18.830528
21
-95.961311
31
68.312050
12
-77.280891
22
-89.545662
32
56.514030
13
-80.335548
23
-83.965858
33
20.877937
0
3DFACE
8
0
70
0
10
-80.335548
20
-83.965858
30
20.877937
11
-77.280891
21
-89.545662
31
56.514030
12
-101.452408
22
-67.919128
32
20.700085
13
-99.682419
23
-73.404045
33
9.394549
0
3DFACE
8
0
70
0
10
-25.118906
20
-58.781876
30
-6.499023
11
-45.058098
21
-39.383873
31
-27.588900
12
-53.675056
22
-15.799988
32
-46.388035
13
-26.033676
23
-56.952499
33
8.779906
0
3DFACE
8
0
70
0
10
-99.682419
20
-73.404045
30
9.394549
11
-101.452408
21
-67.919128
31
20.700085
12
-99.929832
22
-37.440796
32
-18.041023
13
-93.320946
23
-56.837708
33
-8.615658
0
3DFACE
8
0
70
0
10
-93.320946
20
-56.837708
30
-8.615658
11
-99.929832
21
-37.440796
31
-18.041023
12
-53.675056
22
-15.799988
32
-46.388035
13
-45.058098
23
-39.383873
33
-27.588900
0
3DFACE
8
0
70
0
10
-25.106327
20
-118.761894
30
-8.553623
11
-30.526176
21
-98.446640
31
11.900370
12
-37.787899
22
-108.736435
32
35.947453
13
-31.473774
23
-127.827744
33
43.725594
0
3DFACE
8
0
70
0
10
-30.526176
20
-98.446640
30
11.900370
11
-73.231285
21
-105.895706
31
11.780075
12
-70.777412
22
-112.334427
32
35.947453
13
-37.787899
23
-108.736435
33
35.947453
0
3DFACE
8
0
70
0
10
-84.879372
20
-123.394760
30
3.029112
11
-78.613716
21
-127.827744
31
43.725594
12
-70.777412
22
-112.334427
32
35.947453
13
-73.231285
23
-105.895706
33
11.780075
0
3DFACE
8
0
70
0
10
-8.433323
20
-139.466919
30
-32.437267
11
-25.106327
21
-118.761894
31
-8.553623
12
-31.473774
22
-127.827744
32
43.725594
13
-20.410763
23
-150.617310
33
32.613968
0
3DFACE
8
0
70
0
10
-96.288506
20
-145.451263
30
-13.823764
11
-87.594154
21
-150.723206
31
36.317848
12
-78.613716
22
-127.827744
32
43.725594
13
-84.879372
23
-123.394760
33
3.029112
0
3DFACE
8
0
70
0
10
-96.288506
20
-145.451263
30
-13.823764
11
-8.433323
21
-139.466919
31
-32.437267
12
-20.410763
22
-150.617310
32
32.613968
13
-87.594154
23
-150.723206
33
36.317848
0
3DFACE
8
0
70
0
10
-31.473774
20
-119.444244
30
102.617195
11
-31.473774
21
-127.827744
31
43.725594
12
-37.787899
22
-108.736435
32
35.947453
13
-37.787899
23
-98.998032
33
87.801697
0
3DFACE
8
0
70
0
10
-37.787899
20
-98.998032
30
87.801697
11
-37.787899
21
-108.736435
31
35.947453
12
-70.777412
22
-112.334427
32
35.947453
13
-70.777412
23
-98.812729
33
87.801697
0
3DFACE
8
0
70
0
10
-78.613716
20
-119.444244
30
102.617195
11
-70.777412
21
-98.812729
31
87.801697
12
-70.777412
22
-112.334427
32
35.947453
13
-78.613716
23
-127.827744
33
43.725594
0
3DFACE
8
0
70
0
10
-16.706890
20
-152.844193
30
102.617195
11
-20.410763
21
-150.617310
31
32.613968
12
-31.473774
22
-127.827744
32
43.725594
13
-31.473774
23
-119.444244
33
102.617195
0
3DFACE
8
0
70
0
10
-83.890282
20
-153.029510
30
102.617195
11
-78.613716
21
-119.444244
31
102.617195
12
-78.613716
22
-127.827744
32
43.725594
13
-87.594154
23
-150.723206
33
36.317848
0
3DFACE
8
0
70
0
10
-83.890282
20
-153.029510
30
102.617195
11
-87.594154
21
-150.723206
31
36.317848
12
-20.410763
22
-150.617310
32
32.613968
13
-16.706890
23
-152.844193
33
102.617195
0
3DFACE
8
0
70
0
10
-114.054184
20
173.646851
30
225.550171
11
-101.336929
21
186.145508
31
218.050842
12
-120.412506
22
195.026245
32
222.472031
13
-135.736053
23
179.835266
33
219.313156
0
3DFACE
8
0
70
0
10
-96.506416
20
101.547836
30
-39.897873
11
-72.521820
21
119.205139
31
-11.276799
12
-68.593498
22
112.631042
32
-56.024242
13
-68.593498
23
112.631042
33
-56.024242
0
3DFACE
8
0
70
0
10
-96.901535
20
92.658829
30
41.062820
11
-69.406898
21
75.992935
31
51.869526
12
-72.521820
22
119.205139
32
-11.276799
13
-72.521820
23
119.205139
33
-11.276799
0
3DFACE
8
0
70
0
10
-133.771988
20
146.679321
30
53.834404
11
-120.498993
21
149.787048
31
87.283295
12
-163.254623
22
134.098755
32
106.653961
13
-176.460129
23
133.466187
33
72.953789
0
3DFACE
8
0
70
0
10
-163.737000
20
189.685242
30
62.546120
11
-149.281586
21
194.320618
31
95.360756
12
-120.498993
22
149.787048
32
87.283295
13
-133.771988
23
146.679321
33
53.834404
0
3DFACE
8
0
70
0
10
-185.665802
20
174.419739
30
112.434868
11
-149.281586
21
194.320618
31
95.360756
12
-163.737000
22
189.685242
32
62.546120
13
-200.081299
23
171.743896
33
79.426933
0
3DFACE
8
0
70
0
10
-176.460129
20
133.466187
30
72.953789
11
-163.254623
21
134.098755
31
106.653961
12
-185.665802
22
174.419739
32
112.434868
13
-200.081299
23
171.743896
33
79.426933
0
3DFACE
8
0
70
0
10
-166.751129
20
123.351624
30
109.090546
11
-109.721352
21
146.065704
31
83.091805
12
-97.747665
22
148.942535
32
113.842682
13
-154.580429
23
123.081207
33
141.019470
0
3DFACE
8
0
70
0
10
-109.721352
20
146.065704
30
83.091805
11
-147.088470
21
206.969238
31
93.300308
12
-133.971512
22
211.693359
32
122.542259
13
-97.747665
23
148.942535
33
113.842682
0
3DFACE
8
0
70
0
10
-182.385010
20
180.935028
30
146.509048
11
-133.971512
21
211.693359
31
122.542259
12
-147.088470
22
206.969238
32
93.300308
13
-195.741531
23
178.580902
33
116.291885
0
3DFACE
8
0
70
0
10
-166.751129
20
123.351624
30
109.090546
11
-154.580429
21
123.081207
31
141.019470
12
-182.385010
22
180.935028
32
146.509048
13
-195.741531
23
178.580902
33
116.291885
0
3DFACE
8
0
70
0
10
-166.751129
20
123.351624
30
109.090546
11
-163.254623
21
134.098755
31
106.653961
12
-120.498993
22
149.787048
32
87.283295
13
-109.721352
23
146.065704
33
83.091805
0
3DFACE
8
0
70
0
10
-154.580429
20
123.081207
30
141.019470
11
-97.747665
21
148.942535
31
113.842682
12
-108.328461
22
152.636536
32
117.953934
13
-150.817612
23
134.694519
33
138.393005
0
3DFACE
8
0
70
0
10
-109.721352
20
146.065704
30
83.091805
11
-120.498993
21
149.787048
31
87.283295
12
-149.281586
22
194.320618
32
95.360756
13
-147.088470
23
206.969238
33
93.300308
0
3DFACE
8
0
70
0
10
-97.747665
20
148.942535
30
113.842682
11
-133.971512
21
211.693359
31
122.542259
12
-136.344025
22
198.469269
32
124.729912
13
-108.328461
23
152.636536
33
117.953934
0
3DFACE
8
0
70
0
10
-182.385010
20
180.935028
30
146.509048
11
-172.447662
21
176.873291
31
142.701172
12
-136.344025
22
198.469269
32
124.729912
13
-133.971512
23
211.693359
33
122.542259
0
3DFACE
8
0
70
0
10
-195.741531
20
178.580902
30
116.291885
11
-147.088470
21
206.969238
31
93.300308
12
-149.281586
22
194.320618
32
95.360756
13
-185.665802
23
174.419739
33
112.434868
0
3DFACE
8
0
70
0
10
-154.580429
20
123.081207
30
141.019470
11
-150.817612
21
134.694519
31
138.393005
12
-172.447662
22
176.873291
32
142.701172
13
-182.385010
23
180.935028
33
146.509048
0
3DFACE
8
0
70
0
10
-166.751129
20
123.351624
30
109.090546
11
-195.741531
21
178.580902
31
116.291885
12
-185.665802
22
174.419739
32
112.434868
13
-163.254623
23
134.098755
33
106.653961
0
3DFACE
8
0
70
0
10
-148.184860
20
148.292236
30
129.909714
11
-150.817612
21
134.694519
31
138.393005
12
-108.328461
22
152.636536
32
117.953934
13
-125.325516
23
166.999512
33
117.512810
0
3DFACE
8
0
70
0
10
-125.325516
20
166.999512
30
117.512810
11
-108.328461
21
152.636536
31
117.953934
12
-136.344025
22
198.469269
32
124.729912
13
-151.741119
23
188.168274
33
123.718216
0
3DFACE
8
0
70
0
10
-169.931091
20
168.582336
30
134.341782
11
-151.741119
21
188.168274
31
123.718216
12
-136.344025
22
198.469269
32
124.729912
13
-172.447662
23
176.873291
33
142.701172
0
3DFACE
8
0
70
0
10
-148.184860
20
148.292236
30
129.909714
11
-169.931091
21
168.582336
31
134.341782
12
-172.447662
22
176.873291
32
142.701172
13
-150.817612
23
134.694519
33
138.393005
0
3DFACE
8
0
70
0
10
-84.577873
20
170.681488
30
158.251953
11
-88.880295
21
169.099884
31
146.107956
12
-90.593857
22
179.809570
32
144.405350
13
-86.193260
23
181.401947
33
156.490433
0
3DFACE
8
0
70
0
10
-86.193260
20
181.401947
30
156.490433
11
-90.593857
21
179.809570
31
144.405350
12
-92.861000
22
190.842102
32
142.883072
13
-88.582336
23
192.417511
33
154.993942
0
3DFACE
8
0
70
0
10
-171.552307
20
169.924622
30
172.169373
11
-147.675735
21
193.933685
31
159.018784
12
-151.741119
22
188.168274
32
123.718216
13
-169.931091
23
168.582336
33
134.341782
0
3DFACE
8
0
70
0
10
-136.977417
20
154.043213
30
163.509903
11
-171.552307
21
169.924622
31
172.169373
12
-169.931091
22
168.582336
32
134.341782
13
-148.184860
23
148.292236
33
129.909714
0
3DFACE
8
0
70
0
10
-114.054184
20
173.646851
30
225.550171
11
-136.977417
21
154.043213
31
163.509903
12
-108.328072
22
180.533569
32
164.008270
13
-101.336929
23
186.145508
33
218.050842
0
3DFACE
8
0
70
0
10
-101.336929
20
186.145508
30
218.050842
11
-108.328072
21
180.533569
31
164.008270
12
-147.675735
22
193.933685
32
159.018784
13
-120.412506
23
195.026245
33
222.472031
0
3DFACE
8
0
70
0
10
-135.736053
20
179.835266
30
219.313156
11
-120.412506
21
195.026245
31
222.472031
12
-147.675735
22
193.933685
32
159.018784
13
-171.552307
23
169.924622
33
172.169373
0
3DFACE
8
0
70
0
10
-114.054184
20
173.646851
30
225.550171
11
-135.736053
21
179.835266
31
219.313156
12
-171.552307
22
169.924622
32
172.169373
13
-136.977417
23
154.043213
33
163.509903
0
3DFACE
8
0
70
0
10
-84.577873
20
170.681488
30
158.251953
11
-136.977417
21
154.043213
31
163.509903
12
-148.184860
22
148.292236
32
129.909714
13
-88.880295
23
169.099884
33
146.107956
0
3DFACE
8
0
70
0
10
-88.880295
20
169.099884
30
146.107956
11
-148.184860
21
148.292236
31
129.909714
12
-125.325516
22
166.999512
32
117.512810
13
-90.593857
23
179.809570
33
144.405350
0
3DFACE
8
0
70
0
10
-84.577873
20
170.681488
30
158.251953
11
-86.193260
21
181.401947
31
156.490433
12
-108.328072
22
180.533569
32
164.008270
13
-136.977417
23
154.043213
33
163.509903
0
3DFACE
8
0
70
0
10
-90.593857
20
179.809570
30
144.405350
11
-125.325516
21
166.999512
31
117.512810
12
-151.741119
22
188.168274
32
123.718216
13
-92.861000
23
190.842102
33
142.883072
0
3DFACE
8
0
70
0
10
-88.582336
20
192.417511
30
154.993942
11
-92.861000
21
190.842102
31
142.883072
12
-151.741119
22
188.168274
32
123.718216
13
-147.675735
23
193.933685
33
159.018784
0
3DFACE
8
0
70
0
10
-86.193260
20
181.401947
30
156.490433
11
-88.582336
21
192.417511
31
154.993942
12
-147.675735
22
193.933685
32
159.018784
13
-108.328072
23
180.533569
33
164.008270
0
3DFACE
8
0
70
0
10
21.198112
20
-56.190353
30
6.846529
11
12.887836
21
-97.013000
31
65.832848
12
-2.352265
22
-63.235703
32
117.583130
13
-2.352268
23
-43.576912
33
22.692184
0
3DFACE
8
0
70
0
10
21.198112
20
-56.190353
30
6.846529
11
-2.352268
21
-43.576912
31
22.692184
12
-2.352270
22
-23.130325
32
-76.001373
13
49.956715
23
-13.513947
33
-47.192253
0
3DFACE
8
0
70
0
10
-2.352270
20
-23.130325
30
-76.001373
11
-2.352268
21
-43.576912
31
22.692184
12
-26.033676
22
-56.952499
32
8.779906
13
-53.675056
23
-15.799988
33
-46.388035
0
3DFACE
8
0
70
0
10
-2.352268
20
-43.576912
30
22.692184
11
-2.352265
21
-63.235703
31
117.583130
12
-18.830528
22
-95.961311
32
68.312050
13
-26.033676
23
-56.952499
33
8.779906
0
3DFACE
8
0
70
0
10
25.126013
20
145.041748
30
126.249863
11
34.498013
21
143.757568
31
118.195595
12
44.378662
22
160.240601
32
115.872055
13
25.430302
23
162.516052
33
127.449524
0
3DFACE
8
0
70
0
10
25.430302
20
162.516052
30
127.449524
11
44.378662
21
160.240601
31
115.872055
12
36.123333
22
167.032227
32
114.319313
13
23.606558
23
171.071289
33
120.259384
0
3DFACE
8
0
70
0
10
34.498013
20
143.757568
30
118.195595
11
32.447674
21
136.736481
31
106.024727
12
43.274700
22
152.413513
32
98.375984
13
44.378662
23
160.240601
33
115.872055
0
3DFACE
8
0
70
0
10
25.126013
20
145.041748
30
126.249863
11
22.155769
21
136.346436
31
115.671341
12
32.447674
22
136.736481
32
106.024727
13
34.498013
23
143.757568
33
118.195595
0
3DFACE
8
0
70
0
10
23.606558
20
171.071289
30
120.259384
11
36.123333
21
167.032227
31
114.319313
12
33.989155
22
162.440613
32
97.498291
13
19.617130
23
167.496826
33
105.662712
0
3DFACE
8
0
70
0
10
44.378662
20
160.240601
30
115.872055
11
43.274700
21
152.413513
31
98.375984
12
33.989155
22
162.440613
32
97.498291
13
36.123333
23
167.032227
33
114.319313
0
3DFACE
8
0
70
0
10
22.228949
20
174.180786
30
98.272743
11
23.121176
21
166.549194
31
101.790359
12
33.451145
22
162.831482
32
94.207817
13
34.109657
23
179.860962
33
91.035553
0
3DFACE
8
0
70
0
10
33.451145
20
162.831482
30
94.207817
11
41.781578
21
161.597656
31
85.168106
12
43.996674
22
169.533691
32
77.809036
13
34.109657
23
179.860962
33
91.035553
0
3DFACE
8
0
70
0
10
40.063339
20
127.906891
30
129.372238
11
31.913088
21
140.227051
31
114.588539
12
23.274038
22
139.945435
32
120.080132
13
26.689157
23
127.961243
33
133.544281
0
3DFACE
8
0
70
0
10
67.053719
20
127.041656
30
69.672218
11
64.608704
21
136.153381
31
67.065781
12
46.053879
22
136.991821
32
95.601158
13
56.575474
23
119.917023
33
105.949936
0
3DFACE
8
0
70
0
10
31.913088
20
140.227051
30
114.588539
11
40.063339
21
127.906891
31
129.372238
12
56.744675
22
126.892212
32
115.363777
13
47.207329
23
140.408569
33
110.512466
0
3DFACE
8
0
70
0
10
58.886440
20
163.101807
30
59.989243
11
71.232605
21
165.986084
31
55.379604
12
49.432621
22
176.916626
32
79.304825
13
49.011368
23
172.297485
33
78.926117
0
3DFACE
8
0
70
0
10
19.055378
20
181.237244
30
103.447990
11
18.575958
21
177.029968
31
101.557877
12
34.132011
22
182.651642
32
93.343765
13
35.804665
23
186.478577
33
93.067398
0
3DFACE
8
0
70
0
10
35.804665
20
186.478577
30
93.067398
11
34.132011
21
182.651642
31
93.343765
12
49.011368
22
172.297485
32
78.926117
13
49.432621
23
176.916626
33
79.304825
0
3DFACE
8
0
70
0
10
27.902054
20
104.933136
30
138.326157
11
43.671715
21
109.839569
31
125.272919
12
39.227699
22
116.843872
32
121.690628
13
26.197912
23
116.155731
33
131.607544
0
3DFACE
8
0
70
0
10
25.447083
20
61.785141
30
128.647400
11
45.052662
21
71.220245
31
116.766609
12
43.671715
22
109.839569
32
125.272919
13
27.902054
23
104.933136
33
138.326157
0
3DFACE
8
0
70
0
10
67.053719
20
127.041656
30
69.672218
11
56.575474
21
119.917023
31
105.949936
12
53.804207
22
114.247498
32
98.016434
13
72.484833
23
118.639404
33
74.776863
0
3DFACE
8
0
70
0
10
53.804207
20
114.247498
30
98.016434
11
59.889004
21
82.584000
31
72.190903
12
64.413040
22
102.194016
32
45.885468
13
72.484833
23
118.639404
33
74.776863
0
3DFACE
8
0
70
0
10
45.052662
20
71.220245
30
116.766609
11
59.889004
21
82.584000
31
72.190903
12
53.804207
22
114.247498
32
98.016434
13
43.671715
23
109.839569
33
125.272919
0
3DFACE
8
0
70
0
10
43.671715
20
109.839569
30
125.272919
11
53.804207
21
114.247498
31
98.016434
12
56.575474
22
119.917023
32
105.949936
13
39.227699
23
116.843872
33
121.690628
0
3DFACE
8
0
70
0
10
26.689157
20
127.961243
30
133.544281
11
26.197912
21
116.155731
31
131.607544
12
39.227699
22
116.843872
32
121.690628
13
40.063339
23
127.906891
33
129.372238
0
3DFACE
8
0
70
0
10
23.274038
20
139.945435
30
120.080132
11
31.913088
21
140.227051
31
114.588539
12
32.447674
22
136.736481
32
106.024727
13
22.155769
23
136.346436
33
115.671341
0
3DFACE
8
0
70
0
10
47.207329
20
140.408569
30
110.512466
11
46.053879
21
136.991821
31
95.601158
12
32.447674
22
136.736481
32
106.024727
13
31.913088
23
140.227051
33
114.588539
0
POINT
8
0
70
0
10
74.296158
20
119.712952
30
91.695160
0
3DFACE
8
0
70
0
10
40.063339
20
127.906891
30
129.372238
11
39.227699
21
116.843872
31
121.690628
12
56.575474
22
119.917023
32
105.949936
13
56.744675
23
126.892212
33
115.363777
0
3DFACE
8
0
70
0
10
56.744675
20
126.892212
30
115.363777
11
74.296158
21
119.712952
31
91.695160
12
47.207329
22
140.408569
32
110.512466
13
47.207329
23
140.408569
33
110.512466
0
3DFACE
8
0
70
0
10
47.207329
20
140.408569
30
110.512466
11
74.296158
21
119.712952
31
91.695160
12
46.053879
22
136.991821
32
95.601158
13
46.053879
23
136.991821
33
95.601158
0
3DFACE
8
0
70
0
10
74.296158
20
119.712952
30
91.695160
11
56.575474
21
119.917023
31
105.949936
12
46.053879
22
136.991821
32
95.601158
13
46.053879
23
136.991821
33
95.601158
0
3DFACE
8
0
70
0
10
56.575474
20
119.917023
30
105.949936
11
74.296158
21
119.712952
31
91.695160
12
56.744675
22
126.892212
32
115.363777
13
56.744675
23
126.892212
33
115.363777
0
3DFACE
8
0
70
0
10
71.232605
20
165.986084
30
55.379604
11
58.886440
21
163.101807
31
59.989243
12
63.775043
22
148.590454
32
20.424822
13
66.834122
23
149.802734
33
18.007153
0
3DFACE
8
0
70
0
10
58.886440
20
163.101807
30
59.989243
11
57.539757
21
155.367493
31
63.320507
12
66.121307
22
142.768097
32
23.085779
13
63.775043
23
148.590454
33
20.424822
0
3DFACE
8
0
70
0
10
57.539757
20
155.367493
30
63.320507
11
60.917942
21
144.327087
31
65.944183
12
67.567154
22
132.415222
32
28.690651
13
66.121307
23
142.768097
33
23.085779
0
3DFACE
8
0
70
0
10
66.834122
20
149.802734
30
18.007153
11
63.775043
21
148.590454
31
20.424822
12
39.741997
22
138.213623
32
-0.785431
13
42.239552
23
138.132477
33
-2.265913
0
3DFACE
8
0
70
0
10
66.121307
20
142.768097
30
23.085779
11
41.685909
21
136.048798
31
-3.249536
12
39.741997
22
138.213623
32
-0.785431
13
63.775043
23
148.590454
33
20.424822
0
3DFACE
8
0
70
0
10
67.567154
20
132.415222
30
28.690651
11
39.221596
21
125.746124
31
-0.943137
12
41.685909
22
136.048798
32
-3.249536
13
66.121307
23
142.768097
33
23.085779
0
3DFACE
8
0
70
0
10
42.239552
20
138.132477
30
-2.265913
11
39.741997
21
138.213623
31
-0.785431
12
-8.858953
22
132.517151
32
-6.604658
13
-9.646481
23
130.785095
33
-9.709499
0
3DFACE
8
0
70
0
10
41.685909
20
136.048798
30
-3.249536
11
-8.799977
21
131.023132
31
-6.372142
12
-8.858953
22
132.517151
32
-6.604658
13
39.741997
23
138.213623
33
-0.785431
0
3DFACE
8
0
70
0
10
39.221596
20
125.746124
30
-0.943137
11
-7.513081
21
119.860962
31
-1.298557
12
-8.799977
22
131.023132
32
-6.372142
13
41.685909
23
136.048798
33
-3.249536
0
3DFACE
8
0
70
0
10
64.413040
20
102.194016
30
45.885468
11
68.882751
21
114.779053
31
35.788612
12
67.053719
22
127.041656
32
69.672218
13
72.484833
23
118.639404
33
74.776863
0
3DFACE
8
0
70
0
10
60.917942
20
144.327087
30
65.944183
11
64.608704
21
136.153381
31
67.065781
12
67.567154
22
132.415222
32
28.690651
13
67.567154
23
132.415222
33
28.690651
0
3DFACE
8
0
70
0
10
67.053719
20
127.041656
30
69.672218
11
68.882751
21
114.779053
31
35.788612
12
67.567154
22
132.415222
32
28.690651
13
64.608704
23
136.153381
33
67.065781
0
3DFACE
8
0
70
0
10
68.882751
20
114.779053
30
35.788612
11
40.319263
21
111.612091
31
6.856497
12
39.221596
22
125.746124
32
-0.943137
13
67.567154
23
132.415222
33
28.690651
0
3DFACE
8
0
70
0
10
40.319263
20
111.612091
30
6.856497
11
-5.246301
21
106.753967
31
7.638263
12
-7.513081
22
119.860962
32
-1.298557
13
39.221596
23
125.746124
33
-0.943137
0
3DFACE
8
0
70
0
10
19.055378
20
181.237244
30
103.447990
11
35.804665
21
186.478577
31
93.067398
12
35.572884
22
204.124573
32
83.599098
13
16.923628
23
205.236176
33
95.043533
0
3DFACE
8
0
70
0
10
16.923628
20
205.236176
30
95.043533
11
35.572884
21
204.124573
31
83.599098
12
34.606644
22
204.649353
32
78.087357
13
15.828818
23
207.059143
33
90.727226
0
3DFACE
8
0
70
0
10
35.804665
20
186.478577
30
93.067398
11
49.432621
21
176.916626
31
79.304825
12
59.977859
22
198.592072
32
63.785198
13
35.572884
23
204.124573
33
83.599098
0
3DFACE
8
0
70
0
10
35.572884
20
204.124573
30
83.599098
11
59.977859
21
198.592072
31
63.785198
12
57.361576
22
199.561279
32
58.911900
13
34.606644
23
204.649353
33
78.087357
0
3DFACE
8
0
70
0
10
49.432621
20
176.916626
30
79.304825
11
71.232605
21
165.986084
31
55.379604
12
69.392090
22
182.915985
32
30.397417
13
59.977859
23
198.592072
33
63.785198
0
3DFACE
8
0
70
0
10
59.977859
20
198.592072
30
63.785198
11
69.392090
21
182.915985
31
30.397417
12
60.153660
22
185.978882
32
30.322592
13
57.361576
23
199.561279
33
58.911900
0
3DFACE
8
0
70
0
10
71.232605
20
165.986084
30
55.379604
11
66.834122
21
149.802734
31
18.007153
12
67.641129
22
173.809814
32
3.671864
13
69.392090
23
182.915985
33
30.397417
0
3DFACE
8
0
70
0
10
69.392090
20
182.915985
30
30.397417
11
67.641129
21
173.809814
31
3.671864
12
61.015797
22
176.570068
32
6.259522
13
60.153660
23
185.978882
33
30.322592
0
3DFACE
8
0
70
0
10
66.834122
20
149.802734
30
18.007153
11
42.239552
21
138.132477
31
-2.265913
12
40.736317
22
160.649658
32
-12.113935
13
67.641129
23
173.809814
33
3.671864
0
3DFACE
8
0
70
0
10
67.641129
20
173.809814
30
3.671864
11
40.736317
21
160.649658
31
-12.113935
12
35.603771
22
165.436829
32
-8.133501
13
61.015797
23
176.570068
33
6.259522
0
3DFACE
8
0
70
0
10
42.239552
20
138.132477
30
-2.265913
11
-9.646481
21
130.785095
31
-9.709499
12
-11.993864
22
151.478760
32
-18.964092
13
40.736317
23
160.649658
33
-12.113935
0
3DFACE
8
0
70
0
10
40.736317
20
160.649658
30
-12.113935
11
-11.993864
21
151.478760
31
-18.964092
12
-11.130921
22
156.104218
32
-15.561929
13
35.603771
23
165.436829
33
-8.133501
0
3DFACE
8
0
70
0
10
64.413040
20
102.194016
30
45.885468
11
41.988388
21
113.832489
31
23.472528
12
40.319263
22
111.612091
32
6.856497
13
68.882751
23
114.779053
33
35.788612
0
3DFACE
8
0
70
0
10
41.988388
20
113.832489
30
23.472528
11
-2.399578
21
129.956787
31
3.083014
12
-5.246301
22
106.753967
32
7.638263
13
40.319263
23
111.612091
33
6.856497
0
3DFACE
8
0
70
0
10
59.889004
20
82.584000
30
72.190903
11
40.931767
21
79.813904
31
57.541393
12
41.988388
22
113.832489
32
23.472528
13
64.413040
23
102.194016
33
45.885468
0
3DFACE
8
0
70
0
10
45.052662
20
71.220245
30
116.766609
11
38.472134
21
66.564789
31
101.417664
12
40.931767
22
79.813904
32
57.541393
13
59.889004
23
82.584000
33
72.190903
0
3DFACE
8
0
70
0
10
38.472134
20
66.564789
30
101.417664
11
18.770473
21
63.779449
31
102.324776
12
11.854147
22
75.142975
32
75.057060
13
40.931767
23
79.813904
33
57.541393
0
3DFACE
8
0
70
0
10
25.447083
20
61.785141
30
128.647400
11
18.770473
21
63.779449
31
102.324776
12
38.472134
22
66.564789
32
101.417664
13
38.472134
23
66.564789
33
101.417664
0
3DFACE
8
0
70
0
10
25.447083
20
61.785141
30
128.647400
11
38.472134
21
66.564789
31
101.417664
12
45.052662
22
71.220245
32
116.766609
13
45.052662
23
71.220245
33
116.766609
0
3DFACE
8
0
70
0
10
25.126013
20
145.041748
30
126.249863
11
25.430302
21
162.516052
31
127.449524
12
3.254558
22
160.240601
32
126.302994
13
13.048157
23
143.757568
33
123.636253
0
3DFACE
8
0
70
0
10
25.430302
20
162.516052
30
127.449524
11
23.606558
21
171.071289
31
120.259384
12
9.771790
22
167.032227
32
121.003258
13
3.254558
23
160.240601
33
126.302994
0
3DFACE
8
0
70
0
10
13.048157
20
143.757568
30
123.636253
11
3.254558
21
160.240601
31
126.302994
12
-4.653431
22
152.413513
32
110.532722
13
8.510263
23
136.736481
33
112.096336
0
3DFACE
8
0
70
0
10
25.126013
20
145.041748
30
126.249863
11
13.048157
21
143.757568
31
123.636253
12
8.510263
22
136.736481
32
112.096336
13
22.155769
23
136.346436
33
115.671341
0
3DFACE
8
0
70
0
10
23.606558
20
171.071289
30
120.259384
11
19.617130
21
167.496826
31
105.662712
12
3.091218
22
162.440613
32
105.335403
13
9.771790
23
167.032227
33
121.003258
0
3DFACE
8
0
70
0
10
3.254558
20
160.240601
30
126.302994
11
9.771790
21
167.032227
31
121.003258
12
3.091218
22
162.440613
32
105.335403
13
-4.653431
23
152.413513
33
110.532722
0
3DFACE
8
0
70
0
10
14.234240
20
174.021362
30
100.142975
11
0.589905
21
180.510406
31
99.557152
12
2.358507
22
163.552765
32
102.590752
13
15.050889
23
166.649597
33
103.362633
0
3DFACE
8
0
70
0
10
2.358507
20
163.552765
30
102.590752
11
0.589905
21
180.510406
31
99.557152
12
-13.790146
22
170.257568
32
95.147720
13
-8.474662
23
162.660583
33
99.692390
0
3DFACE
8
0
70
0
10
12.943321
20
127.906891
30
136.251099
11
26.689157
21
127.961243
31
133.544281
12
23.274038
22
139.945435
32
120.080132
13
13.061963
23
140.227051
33
119.370041
0
3DFACE
8
0
70
0
10
-39.238674
20
127.041687
30
96.632782
11
-12.736279
21
119.917053
31
123.530533
12
-8.419178
22
136.991821
32
109.417992
13
-38.331539
23
136.153381
33
93.176086
0
3DFACE
8
0
70
0
10
13.061963
20
140.227051
30
119.370041
11
-2.326062
21
140.408569
31
123.076378
12
-8.398141
22
126.892212
32
131.886948
13
12.943321
23
127.906891
33
136.251099
0
3DFACE
8
0
70
0
10
-36.673931
20
163.101807
30
84.227676
11
-18.056652
21
172.297485
31
95.937607
12
-18.246469
22
176.916626
32
96.471298
13
-49.724583
23
165.986084
33
86.059822
0
3DFACE
8
0
70
0
10
19.055378
20
181.237244
30
103.447990
11
-0.256176
21
187.145874
31
101.958511
12
1.351917
22
183.327087
32
101.427650
13
18.575958
23
177.029968
33
101.557877
0
3DFACE
8
0
70
0
10
-0.256176
20
187.145874
30
101.958511
11
-18.246469
21
176.916626
31
96.471298
12
-18.056652
22
172.297485
32
95.937607
13
1.351917
23
183.327087
33
101.427650
0
3DFACE
8
0
70
0
10
27.902054
20
104.933136
30
138.326157
11
26.197912
21
116.155731
31
131.607544
12
10.016682
22
116.843872
32
129.099854
13
7.817333
23
109.839569
33
134.367218
0
3DFACE
8
0
70
0
10
25.447083
20
61.785141
30
128.647400
11
27.902054
21
104.933136
31
138.326157
12
7.817333
22
109.839569
32
134.367218
13
2.549001
23
71.220245
33
127.547455
0
3DFACE
8
0
70
0
10
-39.238674
20
127.041687
30
96.632782
11
-41.580185
21
118.639404
31
103.708916
12
-14.081358
22
114.247498
32
115.235283
13
-12.736279
23
119.917053
33
123.530533
0
3DFACE
8
0
70
0
10
-14.081358
20
114.247498
30
115.235283
11
-41.580185
21
118.639404
31
103.708916
12
-48.254631
22
102.194031
32
74.463089
13
-31.739666
23
82.584015
33
95.432083
0
3DFACE
8
0
70
0
10
2.549001
20
71.220245
30
127.547455
11
7.817333
21
109.839569
31
134.367218
12
-14.081358
22
114.247498
32
115.235283
13
-31.739666
23
82.584015
33
95.432083
0
3DFACE
8
0
70
0
10
7.817333
20
109.839569
30
134.367218
11
10.016682
21
116.843872
31
129.099854
12
-12.736279
22
119.917053
32
123.530533
13
-14.081358
23
114.247498
33
115.235283
0
3DFACE
8
0
70
0
10
26.689157
20
127.961243
30
133.544281
11
12.943321
21
127.906891
31
136.251099
12
10.016682
22
116.843872
32
129.099854
13
26.197912
23
116.155731
33
131.607544
0
3DFACE
8
0
70
0
10
23.274038
20
139.945435
30
120.080132
11
22.155769
21
136.346436
31
115.671341
12
8.510263
22
136.736481
32
112.096336
13
13.061963
23
140.227051
33
119.370041
0
3DFACE
8
0
70
0
10
-2.326062
20
140.408569
30
123.076378
11
13.061963
21
140.227051
31
119.370041
12
8.510263
22
136.736481
32
112.096336
13
-8.419178
23
136.991821
33
109.417992
0
POINT
8
0
70
0
10
-34.266029
20
119.712952
30
119.231445
0
3DFACE
8
0
70
0
10
12.943321
20
127.906891
30
136.251099
11
-8.398141
21
126.892212
31
131.886948
12
-12.736279
22
119.917053
32
123.530533
13
10.016682
23
116.843872
33
129.099854
0
3DFACE
8
0
70
0
10
-8.398141
20
126.892212
30
131.886948
11
-2.326062
21
140.408569
31
123.076378
12
-34.266029
22
119.712952
32
119.231445
13
-34.266029
23
119.712952
33
119.231445
0
3DFACE
8
0
70
0
10
-2.326062
20
140.408569
30
123.076378
11
-8.419178
21
136.991821
31
109.417992
12
-34.266029
22
119.712952
32
119.231445
13
-34.266029
23
119.712952
33
119.231445
0
3DFACE
8
0
70
0
10
-34.266029
20
119.712952
30
119.231445
11
-8.419178
21
136.991821
31
109.417992
12
-12.736279
22
119.917053
32
123.530533
13
-12.736279
23
119.917053
33
123.530533
0
3DFACE
8
0
70
0
10
-12.736279
20
119.917053
30
123.530533
11
-8.398141
21
126.892212
31
131.886948
12
-34.266029
22
119.712952
32
119.231445
13
-34.266029
23
119.712952
33
119.231445
0
3DFACE
8
0
70
0
10
-49.724583
20
165.986084
30
86.059822
11
-63.670544
21
149.802734
31
51.109043
12
-59.828968
22
148.590454
32
51.776394
13
-36.673931
23
163.101807
33
84.227676
0
3DFACE
8
0
70
0
10
-36.673931
20
163.101807
30
84.227676
11
-59.828968
21
148.590454
31
51.776394
12
-60.623306
22
142.768127
32
55.233948
13
-33.902290
23
155.367493
33
86.514351
0
3DFACE
8
0
70
0
10
-33.902290
20
155.367493
30
86.514351
11
-60.623306
21
142.768127
31
55.233948
12
-59.222931
22
132.415222
32
60.850357
13
-35.621555
23
144.327118
33
90.430969
0
3DFACE
8
0
70
0
10
-63.670544
20
149.802734
30
51.109043
11
-51.711990
21
138.132477
31
21.564451
12
-48.810741
22
138.213623
32
21.675550
13
-59.828968
23
148.590454
33
51.776394
0
3DFACE
8
0
70
0
10
-60.623306
20
142.768127
30
55.233948
11
-59.828968
21
148.590454
31
51.776394
12
-48.810741
22
138.213623
32
21.675550
13
-51.694111
23
136.048798
33
20.435863
0
3DFACE
8
0
70
0
10
-59.222931
20
132.415222
30
60.850357
11
-60.623306
21
142.768127
31
55.233948
12
-51.694111
22
136.048798
32
20.435863
13
-48.428425
23
125.746155
33
21.288876
0
3DFACE
8
0
70
0
10
-51.711990
20
138.132477
30
21.564451
11
-9.646481
21
130.785095
31
-9.709499
12
-8.858953
22
132.517151
32
-6.604658
13
-48.810741
23
138.213623
33
21.675550
0
3DFACE
8
0
70
0
10
-51.694111
20
136.048798
30
20.435863
11
-48.810741
21
138.213623
31
21.675550
12
-8.858953
22
132.517151
32
-6.604658
13
-8.799977
23
131.023132
33
-6.372142
0
3DFACE
8
0
70
0
10
-48.428425
20
125.746155
30
21.288876
11
-51.694111
21
136.048798
31
20.435863
12
-8.799977
22
131.023132
32
-6.372142
13
-7.513081
23
119.860962
33
-1.298557
0
3DFACE
8
0
70
0
10
-48.254631
20
102.194031
30
74.463089
11
-41.580185
21
118.639404
31
103.708916
12
-39.238674
22
127.041687
32
96.632782
13
-56.996403
23
114.779083
33
67.717262
0
3DFACE
8
0
70
0
10
-35.621555
20
144.327118
30
90.430969
11
-59.222931
21
132.415222
31
60.850357
12
-38.331539
22
136.153381
32
93.176086
13
-38.331539
23
136.153381
33
93.176086
0
3DFACE
8
0
70
0
10
-39.238674
20
127.041687
30
96.632782
11
-38.331539
21
136.153381
31
93.176086
12
-59.222931
22
132.415222
32
60.850357
13
-56.996403
23
114.779083
33
67.717262
0
3DFACE
8
0
70
0
10
-56.996403
20
114.779083
30
67.717262
11
-59.222931
21
132.415222
31
60.850357
12
-48.428425
22
125.746155
32
21.288876
13
-45.675880
23
111.612091
33
28.668756
0
3DFACE
8
0
70
0
10
-45.675880
20
111.612091
30
28.668756
11
-48.428425
21
125.746155
31
21.288876
12
-7.513081
22
119.860962
32
-1.298557
13
-5.246301
23
106.753967
33
7.638263
0
3DFACE
8
0
70
0
10
19.055378
20
181.237244
30
103.447990
11
16.923628
21
205.236176
31
95.043533
12
-4.925765
22
204.124573
32
93.871391
13
-0.256176
23
187.145874
33
101.958511
0
3DFACE
8
0
70
0
10
16.923628
20
205.236176
30
95.043533
11
15.828818
21
207.059143
31
90.727226
12
-6.703379
22
204.649353
32
88.565453
13
-4.925765
23
204.124573
33
93.871391
0
3DFACE
8
0
70
0
10
-0.256176
20
187.145874
30
101.958511
11
-4.925765
21
204.124573
31
93.871391
12
-35.824146
22
198.592072
32
88.084923
13
-18.246469
23
176.916626
33
96.471298
0
3DFACE
8
0
70
0
10
-4.925765
20
204.124573
30
93.871391
11
-6.703379
21
204.649353
31
88.565453
12
-35.846893
22
199.561279
32
82.553787
13
-35.824146
23
198.592072
33
88.084923
0
3DFACE
8
0
70
0
10
-18.246469
20
176.916626
30
96.471298
11
-35.824146
21
198.592072
31
88.084923
12
-60.013752
22
182.915985
32
63.220596
13
-49.724583
23
165.986084
33
86.059822
0
3DFACE
8
0
70
0
10
-35.824146
20
198.592072
30
88.084923
11
-35.846893
21
199.561279
31
82.553787
12
-51.927849
22
185.978882
32
58.751534
13
-60.013752
23
182.915985
33
63.220596
0
3DFACE
8
0
70
0
10
-49.724583
20
165.986084
30
86.059822
11
-60.013752
21
182.915985
31
63.220596
12
-71.212563
22
173.809814
32
38.891445
13
-63.670544
23
149.802734
33
51.109043
0
3DFACE
8
0
70
0
10
-60.013752
20
182.915985
30
63.220596
11
-51.927849
21
185.978882
31
58.751534
12
-64.154854
22
176.570068
32
38.008465
13
-71.212563
23
173.809814
33
38.891445
0
3DFACE
8
0
70
0
10
-63.670544
20
149.802734
30
51.109043
11
-71.212563
21
173.809814
31
38.891445
12
-55.084316
22
160.649658
32
12.190515
13
-51.711990
23
138.132477
33
21.564451
0
3DFACE
8
0
70
0
10
-71.212563
20
173.809814
30
38.891445
11
-64.154854
21
176.570068
31
38.008465
12
-48.675091
22
165.436829
32
13.243433
13
-55.084316
23
160.649658
33
12.190515
0
3DFACE
8
0
70
0
10
-51.711990
20
138.132477
30
21.564451
11
-55.084316
21
160.649658
31
12.190515
12
-11.993864
22
151.478760
32
-18.964092
13
-9.646481
23
130.785095
33
-9.709499
0
3DFACE
8
0
70
0
10
-55.084316
20
160.649658
30
12.190515
11
-48.675091
21
165.436829
31
13.243433
12
-11.130921
22
156.104218
32
-15.561929
13
-11.993864
23
151.478760
33
-18.964092
0
3DFACE
8
0
70
0
10
-48.254631
20
102.194031
30
74.463089
11
-56.996403
21
114.779083
31
67.717262
12
-45.675880
22
111.612091
32
28.668756
13
-42.472931
23
113.832489
33
30.848114
0
3DFACE
8
0
70
0
10
-42.472931
20
113.832489
30
30.848114
11
-45.675880
21
111.612091
31
28.668756
12
-5.246301
22
106.753967
32
7.638263
13
-2.399578
23
129.956787
33
3.083014
0
3DFACE
8
0
70
0
10
-31.739666
20
82.584015
30
95.432083
11
-48.254631
21
102.194031
31
74.463089
12
-42.472931
22
113.832489
32
30.848114
13
-31.482250
23
79.813904
33
65.943390
0
3DFACE
8
0
70
0
10
2.549001
20
71.220245
30
127.547455
11
-31.739666
21
82.584015
31
95.432083
12
-31.482250
22
79.813904
32
65.943390
13
1.018272
23
66.564789
33
110.917656
0
3DFACE
8
0
70
0
10
1.018272
20
66.564789
30
110.917656
11
-31.482250
21
79.813904
31
65.943390
12
11.854147
22
75.142975
32
75.057060
13
18.770473
23
63.779449
33
102.324776
0
3DFACE
8
0
70
0
10
25.447083
20
61.785141
30
128.647400
11
1.018272
21
66.564789
31
110.917656
12
18.770473
22
63.779449
32
102.324776
13
18.770473
23
63.779449
33
102.324776
0
3DFACE
8
0
70
0
10
25.447083
20
61.785141
30
128.647400
11
2.549001
21
71.220245
31
127.547455
12
1.018272
22
66.564789
32
110.917656
13
1.018272
23
66.564789
33
110.917656
0
3DFACE
8
0
70
0
10
15.050889
20
166.649597
30
103.362633
11
19.617130
21
167.496826
31
105.662712
12
18.575958
22
177.029968
32
101.557877
13
14.234240
23
174.021362
33
100.142975
0
3DFACE
8
0
70
0
10
2.358507
20
163.552765
30
102.590752
11
3.091218
21
162.440613
31
105.335403
12
19.617130
22
167.496826
32
105.662712
13
15.050889
23
166.649597
33
103.362633
0
3DFACE
8
0
70
0
10
0.589905
20
180.510406
30
99.557152
11
14.234240
21
174.021362
31
100.142975
12
18.575958
22
177.029968
32
101.557877
13
1.351917
23
183.327087
33
101.427650
0
3DFACE
8
0
70
0
10
2.358507
20
163.552765
30
102.590752
11
-8.474662
21
162.660583
31
99.692390
12
-11.062087
22
161.445801
32
101.919426
13
3.091218
23
162.440613
33
105.335403
0
3DFACE
8
0
70
0
10
-8.474662
20
162.660583
30
99.692390
11
-13.790146
21
170.257568
31
95.147720
12
-18.056652
22
172.297485
32
95.937607
13
-11.062087
23
161.445801
33
101.919426
0
3DFACE
8
0
70
0
10
0.589905
20
180.510406
30
99.557152
11
1.351917
21
183.327087
31
101.427650
12
-18.056652
22
172.297485
32
95.937607
13
-13.790146
23
170.257568
33
95.147720
0
3DFACE
8
0
70
0
10
34.109657
20
179.860962
30
91.035553
11
34.132011
21
182.651642
31
93.343765
12
18.575958
22
177.029968
32
101.557877
13
22.228949
23
174.180786
33
98.272743
0
3DFACE
8
0
70
0
10
33.451145
20
162.831482
30
94.207817
11
23.121176
21
166.549194
31
101.790359
12
19.617130
22
167.496826
32
105.662712
13
33.989155
23
162.440613
33
97.498291
0
3DFACE
8
0
70
0
10
23.121176
20
166.549194
30
101.790359
11
22.228949
21
174.180786
31
98.272743
12
18.575958
22
177.029968
32
101.557877
13
19.617130
23
167.496826
33
105.662712
0
3DFACE
8
0
70
0
10
34.109657
20
179.860962
30
91.035553
11
43.996674
21
169.533691
31
77.809036
12
49.011368
22
172.297485
32
78.926117
13
34.132011
23
182.651642
33
93.343765
0
3DFACE
8
0
70
0
10
41.781578
20
161.597656
30
85.168106
11
45.713497
21
161.445801
31
87.518570
12
49.011368
22
172.297485
32
78.926117
13
43.996674
23
169.533691
33
77.809036
0
3DFACE
8
0
70
0
10
33.451145
20
162.831482
30
94.207817
11
33.989155
21
162.440613
31
97.498291
12
45.713497
22
161.445801
32
87.518570
13
41.781578
23
161.597656
33
85.168106
0
3DFACE
8
0
70
0
10
-2.399578
20
129.956787
30
3.083014
11
41.988388
21
113.832489
31
23.472528
12
68.631889
22
119.370483
32
-12.888762
13
-2.171354
23
132.760986
33
-12.165238
0
3DFACE
8
0
70
0
10
-2.171354
20
132.760986
30
-12.165238
11
-72.521820
21
119.205139
31
-11.276799
12
-42.472931
22
113.832489
32
30.848114
13
-2.399578
23
129.956787
33
3.083014
0
3DFACE
8
0
70
0
10
-72.521820
20
119.205139
30
-11.276799
11
-69.406898
21
75.992935
31
51.869526
12
-42.472931
22
113.832489
32
30.848114
13
-42.472931
23
113.832489
33
30.848114
0
3DFACE
8
0
70
0
10
-69.406898
20
75.992935
30
51.869526
11
-31.482250
21
79.813904
31
65.943390
12
-42.472931
22
113.832489
32
30.848114
13
-42.472931
23
113.832489
33
30.848114
0
3DFACE
8
0
70
0
10
64.896210
20
75.992950
30
51.869530
11
41.988388
21
113.832489
31
23.472528
12
40.931767
22
79.813904
32
57.541393
13
40.931767
23
79.813904
33
57.541393
0
3DFACE
8
0
70
0
10
68.631889
20
119.370483
30
-12.888762
11
41.988388
21
113.832489
31
23.472528
12
64.896210
22
75.992950
32
51.869530
13
64.896210
23
75.992950
33
51.869530
0
3DFACE
8
0
70
0
10
-2.352258
20
61.319138
30
59.363785
11
-31.482250
21
79.813904
31
65.943390
12
-69.406898
22
75.992935
32
51.869526
13
-69.406898
23
75.992935
33
51.869526
0
3DFACE
8
0
70
0
10
11.854147
20
75.142975
30
75.057060
11
-31.482250
21
79.813904
31
65.943390
12
-2.352258
22
61.319138
32
59.363785
13
-2.352258
23
61.319138
33
59.363785
0
3DFACE
8
0
70
0
10
11.854147
20
75.142975
30
75.057060
11
-2.352258
21
61.319138
31
59.363785
12
40.931767
22
79.813904
32
57.541393
13
40.931767
23
79.813904
33
57.541393
0
3DFACE
8
0
70
0
10
-2.352258
20
61.319138
30
59.363785
11
64.896210
21
75.992950
31
51.869530
12
40.931767
22
79.813904
32
57.541393
13
40.931767
23
79.813904
33
57.541393
0
3DFACE
8
0
70
0
10
-11.130921
20
156.104218
30
-15.561929
11
-8.185081
21
210.218384
31
-3.825270
12
10.058475
22
214.392883
32
-1.848519
13
35.603771
23
165.436829
33
-8.133501
0
3DFACE
8
0
70
0
10
35.603771
20
165.436829
30
-8.133501
11
10.058475
21
214.392883
31
-1.848519
12
23.581753
22
220.589355
32
4.524270
13
61.015797
23
176.570068
33
6.259522
0
3DFACE
8
0
70
0
10
61.015797
20
176.570068
30
6.259522
11
23.581753
21
220.589355
31
4.524270
12
23.411852
22
226.928284
32
14.595680
13
60.153660
23
185.978882
33
30.322592
0
3DFACE
8
0
70
0
10
60.153660
20
185.978882
30
30.322592
11
23.411852
21
226.928284
31
14.595680
12
23.578650
22
234.786743
32
26.985540
13
57.361576
23
199.561279
33
58.911900
0
3DFACE
8
0
70
0
10
15.828818
20
207.059143
30
90.727226
11
34.606644
21
204.649353
31
78.087357
12
12.564186
22
238.602112
32
35.815315
13
3.355509
23
240.828735
33
41.673660
0
3DFACE
8
0
70
0
10
-11.130921
20
156.104218
30
-15.561929
11
-48.675091
21
165.436829
31
13.243433
12
-23.280928
22
214.392883
32
6.607861
13
-8.185081
23
210.218384
33
-3.825270
0
3DFACE
8
0
70
0
10
-48.675091
20
165.436829
30
13.243433
11
-64.154854
21
176.570068
31
38.008465
12
-32.131874
22
220.589355
32
18.655766
13
-23.280928
23
214.392883
33
6.607861
0
3DFACE
8
0
70
0
10
-64.154854
20
176.570068
30
38.008465
11
-51.927849
21
185.978882
31
58.751534
12
-27.182222
22
226.928284
32
27.428625
13
-32.131874
23
220.589355
33
18.655766
0
3DFACE
8
0
70
0
10
-51.927849
20
185.978882
30
58.751534
11
-35.846893
21
199.561279
31
82.553787
12
-21.423519
22
234.786743
32
38.400124
13
-27.182222
23
226.928284
33
27.428625
0
3DFACE
8
0
70
0
10
15.828818
20
207.059143
30
90.727226
11
3.355509
21
240.828735
31
41.673660
12
-7.532135
22
238.602112
32
40.912651
13
-6.703379
23
204.649353
33
88.565453
0
3DFACE
8
0
70
0
10
57.361576
20
199.561279
30
58.911900
11
23.578650
21
234.786743
31
26.985540
12
12.564186
22
238.602112
32
35.815315
13
34.606644
23
204.649353
33
78.087357
0
3DFACE
8
0
70
0
10
-35.846893
20
199.561279
30
82.553787
11
-6.703379
21
204.649353
31
88.565453
12
-7.532135
22
238.602112
32
40.912651
13
-21.423519
23
234.786743
33
38.400124
0
3DFACE
8
0
70
0
10
-11.366116
20
264.445099
30
-16.183271
11
0.349775
21
262.789795
31
-29.599705
12
-15.459561
22
265.921814
32
-32.321754
13
-15.459561
23
265.921814
33
-32.321754
0
3DFACE
8
0
70
0
10
3.558399
20
256.525787
30
-16.949646
11
0.349775
21
262.789795
31
-29.599705
12
-11.366116
22
264.445099
32
-16.183271
13
-11.366116
23
264.445099
33
-16.183271
0
3DFACE
8
0
70
0
10
-9.042299
20
253.393799
30
-7.021584
11
3.558399
21
256.525787
31
-16.949646
12
-11.366116
22
264.445099
32
-16.183271
13
-11.366116
23
264.445099
33
-16.183271
0
3DFACE
8
0
70
0
10
-9.042299
20
253.393799
30
-7.021584
11
-11.366116
21
264.445099
31
-16.183271
12
-24.851589
22
256.525787
32
-9.743589
13
-24.851589
23
256.525787
33
-9.743589
0
3DFACE
8
0
70
0
10
-24.851589
20
256.525787
30
-9.743589
11
-11.366116
21
264.445099
31
-16.183271
12
-28.060213
22
262.789795
32
-22.393648
13
-28.060213
23
262.789795
33
-22.393648
0
3DFACE
8
0
70
0
10
-11.366116
20
264.445099
30
-16.183271
11
-15.459561
21
265.921814
31
-32.321754
12
-28.060213
22
262.789795
32
-22.393648
13
-28.060213
23
262.789795
33
-22.393648
0
3DFACE
8
0
70
0
10
0.349775
20
262.789795
30
-29.599705
11
3.432997
21
252.529541
31
-42.133759
12
-18.924734
22
256.958862
32
-45.983261
13
-15.459561
23
265.921814
33
-32.321754
0
3DFACE
8
0
70
0
10
7.970694
20
243.670868
30
-24.243807
11
3.432997
21
252.529541
31
-42.133759
12
0.349775
22
262.789795
32
-29.599705
13
3.558399
23
256.525787
33
-16.949646
0
3DFACE
8
0
70
0
10
-9.849360
20
239.241577
30
-10.203432
11
7.970694
21
243.670868
31
-24.243807
12
3.558399
22
256.525787
32
-16.949646
13
-9.042299
23
253.393799
33
-7.021584
0
3DFACE
8
0
70
0
10
-9.849360
20
239.241577
30
-10.203432
11
-9.042299
21
253.393799
31
-7.021584
12
-24.851589
22
256.525787
32
-9.743589
13
-32.207088
23
243.670898
33
-14.052904
0
3DFACE
8
0
70
0
10
-32.207088
20
243.670898
30
-14.052904
11
-24.851589
21
256.525787
31
-9.743589
12
-28.060213
22
262.789795
32
-22.393648
13
-36.744785
23
252.529541
33
-31.942858
0
3DFACE
8
0
70
0
10
-28.060213
20
262.789795
30
-22.393648
11
-15.459561
21
265.921814
31
-32.321754
12
-18.924734
22
256.958862
32
-45.983261
13
-36.744785
23
252.529541
33
-31.942858
0
3DFACE
8
0
70
0
10
-3.922454
20
239.674591
30
-46.443035
11
-19.731787
21
242.806641
31
-49.165085
12
-18.924734
22
256.958862
32
-45.983261
13
3.432997
23
252.529541
33
-42.133759
0
3DFACE
8
0
70
0
10
7.970694
20
243.670868
30
-24.243807
11
-0.713829
21
233.410583
31
-33.792976
12
-3.922454
22
239.674591
32
-46.443035
13
3.432997
23
252.529541
33
-42.133759
0
3DFACE
8
0
70
0
10
-9.849360
20
239.241577
30
-10.203432
11
-13.314526
21
230.278595
31
-23.864914
12
-0.713829
22
233.410583
32
-33.792976
13
7.970694
23
243.670868
33
-24.243807
0
3DFACE
8
0
70
0
10
-9.849360
20
239.241577
30
-10.203432
11
-32.207088
21
243.670898
31
-14.052904
12
-29.123816
22
233.410583
32
-26.586920
13
-13.314526
23
230.278595
33
-23.864914
0
3DFACE
8
0
70
0
10
-32.207088
20
243.670898
30
-14.052904
11
-36.744785
21
252.529541
31
-31.942858
12
-32.332439
22
239.674622
32
-39.236977
13
-29.123816
23
233.410583
33
-26.586920
0
3DFACE
8
0
70
0
10
-32.332439
20
239.674622
30
-39.236977
11
-36.744785
21
252.529541
31
-31.942858
12
-18.924734
22
256.958862
32
-45.983261
13
-19.731787
23
242.806641
33
-49.165085
0
3DFACE
8
0
70
0
10
-17.407969
20
231.755280
30
-40.003345
11
-19.731787
21
242.806641
31
-49.165085
12
-3.922454
22
239.674591
32
-46.443035
13
-3.922454
23
239.674591
33
-46.443035
0
3DFACE
8
0
70
0
10
-0.713829
20
233.410583
30
-33.792976
11
-17.407969
21
231.755280
31
-40.003345
12
-3.922454
22
239.674591
32
-46.443035
13
-3.922454
23
239.674591
33
-46.443035
0
3DFACE
8
0
70
0
10
-13.314526
20
230.278595
30
-23.864914
11
-17.407969
21
231.755280
31
-40.003345
12
-0.713829
22
233.410583
32
-33.792976
13
-0.713829
23
233.410583
33
-33.792976
0
3DFACE
8
0
70
0
10
-13.314526
20
230.278595
30
-23.864914
11
-29.123816
21
233.410583
31
-26.586920
12
-17.407969
22
231.755280
32
-40.003345
13
-17.407969
23
231.755280
33
-40.003345
0
3DFACE
8
0
70
0
10
-29.123816
20
233.410583
30
-26.586920
11
-32.332439
21
239.674622
31
-39.236977
12
-17.407969
22
231.755280
32
-40.003345
13
-17.407969
23
231.755280
33
-40.003345
0
3DFACE
8
0
70
0
10
-17.407969
20
231.755280
30
-40.003345
11
-32.332439
21
239.674622
31
-39.236977
12
-19.731787
22
242.806641
32
-49.165085
13
-19.731787
23
242.806641
33
-49.165085
0
3DFACE
8
0
70
0
10
46.053879
20
136.991821
30
95.601158
11
64.608704
21
136.153381
31
67.065781
12
57.792583
22
151.285950
32
91.526466
13
57.792583
23
151.285950
33
91.526466
0
3DFACE
8
0
70
0
10
64.608704
20
136.153381
30
67.065781
11
60.917942
21
144.327087
31
65.944183
12
57.792583
22
151.285950
32
91.526466
13
57.792583
23
151.285950
33
91.526466
0
3DFACE
8
0
70
0
10
32.447674
20
136.736481
30
106.024727
11
46.053879
21
136.991821
31
95.601158
12
43.274700
22
152.413513
32
98.375984
13
43.274700
23
152.413513
33
98.375984
0
3DFACE
8
0
70
0
10
46.053879
20
136.991821
30
95.601158
11
57.792583
21
151.285950
31
91.526466
12
43.274700
22
152.413513
32
98.375984
13
43.274700
23
152.413513
33
98.375984
0
3DFACE
8
0
70
0
10
57.792583
20
151.285950
30
91.526466
11
60.917942
21
144.327087
31
65.944183
12
45.713497
22
161.445801
32
87.518570
13
45.713497
23
161.445801
33
87.518570
0
3DFACE
8
0
70
0
10
60.917942
20
144.327087
30
65.944183
11
57.539757
21
155.367493
31
63.320507
12
45.713497
22
161.445801
32
87.518570
13
45.713497
23
161.445801
33
87.518570
0
3DFACE
8
0
70
0
10
43.274700
20
152.413513
30
98.375984
11
45.713497
21
161.445801
31
87.518570
12
33.989155
22
162.440613
32
97.498291
13
33.989155
23
162.440613
33
97.498291
0
3DFACE
8
0
70
0
10
57.792583
20
151.285950
30
91.526466
11
45.713497
21
161.445801
31
87.518570
12
43.274700
22
152.413513
32
98.375984
13
43.274700
23
152.413513
33
98.375984
0
3DFACE
8
0
70
0
10
45.713497
20
161.445801
30
87.518570
11
57.539757
21
155.367493
31
63.320507
12
49.011368
22
172.297485
32
78.926117
13
49.011368
23
172.297485
33
78.926117
0
3DFACE
8
0
70
0
10
57.539757
20
155.367493
30
63.320507
11
58.886440
21
163.101807
31
59.989243
12
49.011368
22
172.297485
32
78.926117
13
49.011368
23
172.297485
33
78.926117
0
3DFACE
8
0
70
0
10
-38.331539
20
136.153381
30
93.176086
11
-20.680847
21
151.285950
31
111.430878
12
-35.621555
22
144.327118
32
90.430969
13
-35.621555
23
144.327118
33
90.430969
0
3DFACE
8
0
70
0
10
-8.419178
20
136.991821
30
109.417992
11
-20.680847
21
151.285950
31
111.430878
12
-38.331539
22
136.153381
32
93.176086
13
-38.331539
23
136.153381
33
93.176086
0
3DFACE
8
0
70
0
10
-8.419178
20
136.991821
30
109.417992
11
-4.653431
21
152.413513
31
110.532722
12
-20.680847
22
151.285950
32
111.430878
13
-20.680847
23
151.285950
33
111.430878
0
3DFACE
8
0
70
0
10
8.510263
20
136.736481
30
112.096336
11
-4.653431
21
152.413513
31
110.532722
12
-8.419178
22
136.991821
32
109.417992
13
-8.419178
23
136.991821
33
109.417992
0
3DFACE
8
0
70
0
10
-35.621555
20
144.327118
30
90.430969
11
-11.062087
21
161.445801
31
101.919426
12
-33.902290
22
155.367493
32
86.514351
13
-33.902290
23
155.367493
33
86.514351
0
3DFACE
8
0
70
0
10
-20.680847
20
151.285950
30
111.430878
11
-11.062087
21
161.445801
31
101.919426
12
-35.621555
22
144.327118
32
90.430969
13
-35.621555
23
144.327118
33
90.430969
0
3DFACE
8
0
70
0
10
-4.653431
20
152.413513
30
110.532722
11
3.091218
21
162.440613
31
105.335403
12
-11.062087
22
161.445801
32
101.919426
13
-11.062087
23
161.445801
33
101.919426
0
3DFACE
8
0
70
0
10
-20.680847
20
151.285950
30
111.430878
11
-4.653431
21
152.413513
31
110.532722
12
-11.062087
22
161.445801
32
101.919426
13
-11.062087
23
161.445801
33
101.919426
0
3DFACE
8
0
70
0
10
-33.902290
20
155.367493
30
86.514351
11
-18.056652
21
172.297485
31
95.937607
12
-36.673931
22
163.101807
32
84.227676
13
-36.673931
23
163.101807
33
84.227676
0
3DFACE
8
0
70
0
10
-11.062087
20
161.445801
30
101.919426
11
-18.056652
21
172.297485
31
95.937607
12
-33.902290
22
155.367493
32
86.514351
13
-33.902290
23
155.367493
33
86.514351
0
3DFACE
8
0
70
0
10
20.839211
20
-89.993538
30
14.798607
11
20.604864
21
-80.265068
31
16.950737
12
20.614840
22
-57.943542
32
-7.370869
13
20.614840
23
-57.943542
33
-7.370869
0
3DFACE
8
0
70
0
10
20.839211
20
-89.993538
30
14.798607
11
20.614840
21
-57.943542
31
-7.370869
12
18.788149
22
-78.898514
32
-9.930749
13
18.788149
23
-78.898514
33
-9.930749
0
3DFACE
8
0
70
0
10
20.839211
20
-89.993538
30
14.798607
11
75.863449
21
-83.088463
31
19.998478
12
20.604864
22
-80.265068
32
16.950737
13
20.604864
23
-80.265068
33
16.950737
0
3DFACE
8
0
70
0
10
20.839211
20
-89.993538
30
14.798607
11
68.287148
21
-92.972160
31
16.705721
12
75.863449
22
-83.088463
32
19.998478
13
75.863449
23
-83.088463
33
19.998478
0
3DFACE
8
0
70
0
10
68.287148
20
-92.972160
30
16.705721
11
95.196892
21
-72.526932
31
8.480583
12
75.863449
22
-83.088463
32
19.998478
13
75.863449
23
-83.088463
33
19.998478
0
3DFACE
8
0
70
0
10
68.287148
20
-92.972160
30
16.705721
11
84.555824
21
-88.379234
31
4.741554
12
95.196892
22
-72.526932
32
8.480583
13
95.196892
23
-72.526932
33
8.480583
0
3DFACE
8
0
70
0
10
36.718983
20
-70.218544
30
-31.248339
11
20.614840
21
-57.943542
31
-7.370869
12
40.529388
22
-38.551987
32
-28.510290
13
40.529388
23
-38.551987
33
-28.510290
0
3DFACE
8
0
70
0
10
18.788149
20
-78.898514
30
-9.930749
11
20.614840
21
-57.943542
31
-7.370869
12
36.718983
22
-70.218544
32
-31.248339
13
36.718983
23
-70.218544
33
-31.248339
0
3DFACE
8
0
70
0
10
78.609001
20
-80.118408
30
-13.224795
11
88.814392
21
-55.974960
31
-9.551184
12
95.196892
22
-72.526932
32
8.480583
13
95.196892
23
-72.526932
33
8.480583
0
3DFACE
8
0
70
0
10
84.555824
20
-88.379234
30
4.741554
11
78.609001
21
-80.118408
31
-13.224795
12
95.196892
22
-72.526932
32
8.480583
13
95.196892
23
-72.526932
33
8.480583
0
3DFACE
8
0
70
0
10
36.718983
20
-70.218544
30
-31.248339
11
40.529388
21
-38.551987
31
-28.510290
12
88.814392
22
-55.974960
32
-9.551184
13
88.814392
23
-55.974960
33
-9.551184
0
3DFACE
8
0
70
0
10
78.609001
20
-80.118408
30
-13.224795
11
36.718983
21
-70.218544
31
-31.248339
12
88.814392
22
-55.974960
32
-9.551184
13
88.814392
23
-55.974960
33
-9.551184
0
3DFACE
8
0
70
0
10
-25.350893
20
-90.572754
30
15.642012
11
-23.319170
21
-79.490997
31
-9.060315
12
-25.118906
22
-58.781876
32
-6.499023
13
-25.118906
23
-58.781876
33
-6.499023
0
3DFACE
8
0
70
0
10
-25.350893
20
-90.572754
30
15.642012
11
-25.118906
21
-58.781876
31
-6.499023
12
-25.080566
22
-81.119492
32
17.785862
13
-25.080566
23
-81.119492
33
17.785862
0
3DFACE
8
0
70
0
10
-25.350893
20
-90.572754
30
15.642012
11
-25.080566
21
-81.119492
31
17.785862
12
-80.335548
22
-83.965858
32
20.877937
13
-80.335548
23
-83.965858
33
20.877937
0
3DFACE
8
0
70
0
10
-25.350893
20
-90.572754
30
15.642012
11
-80.335548
21
-83.965858
31
20.877937
12
-72.795586
22
-93.573784
32
17.587385
13
-72.795586
23
-93.573784
33
17.587385
0
3DFACE
8
0
70
0
10
-72.795586
20
-93.573784
30
17.587385
11
-80.335548
21
-83.965858
31
20.877937
12
-99.682419
22
-73.404045
32
9.394549
13
-99.682419
23
-73.404045
33
9.394549
0
3DFACE
8
0
70
0
10
-72.795586
20
-93.573784
30
17.587385
11
-99.682419
21
-73.404045
31
9.394549
12
-89.072983
22
-88.995842
32
5.651020
13
-89.072983
23
-88.995842
33
5.651020
0
3DFACE
8
0
70
0
10
-41.265938
20
-70.832237
30
-30.337801
11
-45.058098
21
-39.383873
31
-27.588900
12
-25.118906
22
-58.781876
32
-6.499023
13
-25.118906
23
-58.781876
33
-6.499023
0
3DFACE
8
0
70
0
10
-23.319170
20
-79.490997
30
-9.060315
11
-41.265938
21
-70.832237
31
-30.337801
12
-25.118906
22
-58.781876
32
-6.499023
13
-25.118906
23
-58.781876
33
-6.499023
0
3DFACE
8
0
70
0
10
-89.072983
20
-88.995842
30
5.651020
11
-99.682419
21
-73.404045
31
9.394549
12
-83.140366
22
-80.742447
32
-12.299496
13
-83.140366
23
-80.742447
33
-12.299496
0
3DFACE
8
0
70
0
10
-83.140366
20
-80.742447
30
-12.299496
11
-99.682419
21
-73.404045
31
9.394549
12
-93.320946
22
-56.837708
32
-8.615658
13
-93.320946
23
-56.837708
33
-8.615658
0
3DFACE
8
0
70
0
10
-83.140366
20
-80.742447
30
-12.299496
11
-93.320946
21
-56.837708
31
-8.615658
12
-41.265938
22
-70.832237
32
-30.337801
13
-41.265938
23
-70.832237
33
-30.337801
0
3DFACE
8
0
70
0
10
-41.265938
20
-70.832237
30
-30.337801
11
-93.320946
21
-56.837708
31
-8.615658
12
-45.058098
22
-39.383873
32
-27.588900
13
-45.058098
23
-39.383873
33
-27.588900
0
3DFACE
8
0
70
0
10
26.136129
20
-98.159714
30
11.132701
11
20.839211
21
-89.993538
31
14.798607
12
18.788149
22
-78.898514
32
-9.930749
13
18.788149
23
-78.898514
33
-9.930749
0
3DFACE
8
0
70
0
10
20.722654
20
-118.436539
30
-9.379153
11
26.136129
21
-98.159714
31
11.132701
12
18.788149
22
-78.898514
32
-9.930749
13
18.788149
23
-78.898514
33
-9.930749
0
3DFACE
8
0
70
0
10
68.847252
20
-105.587189
30
10.974651
11
68.287148
21
-92.972160
31
16.705721
12
26.136129
22
-98.159714
32
11.132701
13
26.136129
23
-98.159714
33
11.132701
0
3DFACE
8
0
70
0
10
26.136129
20
-98.159714
30
11.132701
11
68.287148
21
-92.972160
31
16.705721
12
20.839211
22
-89.993538
32
14.798607
13
20.839211
23
-89.993538
33
14.798607
0
3DFACE
8
0
70
0
10
80.504280
20
-123.058746
30
2.172817
11
84.555824
21
-88.379234
31
4.741554
12
68.847252
22
-105.587189
32
10.974651
13
68.847252
23
-105.587189
33
10.974651
0
3DFACE
8
0
70
0
10
68.847252
20
-105.587189
30
10.974651
11
84.555824
21
-88.379234
31
4.741554
12
68.287148
22
-92.972160
32
16.705721
13
68.287148
23
-92.972160
33
16.705721
0
3DFACE
8
0
70
0
10
20.722654
20
-118.436539
30
-9.379153
11
18.788149
21
-78.898514
31
-9.930749
12
36.718983
22
-70.218544
32
-31.248339
13
36.718983
23
-70.218544
33
-31.248339
0
3DFACE
8
0
70
0
10
4.054821
20
-139.102646
30
-33.318611
11
20.722654
21
-118.436539
31
-9.379153
12
36.718983
22
-70.218544
32
-31.248339
13
36.718983
23
-70.218544
33
-31.248339
0
3DFACE
8
0
70
0
10
91.922607
20
-145.073990
30
-14.747251
11
78.609001
21
-80.118408
31
-13.224795
12
80.504280
22
-123.058746
32
2.172817
13
80.504280
23
-123.058746
33
2.172817
0
3DFACE
8
0
70
0
10
80.504280
20
-123.058746
30
2.172817
11
78.609001
21
-80.118408
31
-13.224795
12
84.555824
22
-88.379234
32
4.741554
13
84.555824
23
-88.379234
33
4.741554
0
3DFACE
8
0
70
0
10
4.054821
20
-139.102646
30
-33.318611
11
36.718983
21
-70.218544
31
-31.248339
12
91.922607
22
-145.073990
32
-14.747251
13
91.922607
23
-145.073990
33
-14.747251
0
3DFACE
8
0
70
0
10
91.922607
20
-145.073990
30
-14.747251
11
36.718983
21
-70.218544
31
-31.248339
12
78.609001
22
-80.118408
32
-13.224795
13
78.609001
23
-80.118408
33
-13.224795
0
3DFACE
8
0
70
0
10
-25.106327
20
-118.761894
30
-8.553623
11
-23.319170
21
-79.490997
31
-9.060315
12
-30.526176
22
-98.446640
32
11.900370
13
-30.526176
23
-98.446640
33
11.900370
0
3DFACE
8
0
70
0
10
-30.526176
20
-98.446640
30
11.900370
11
-23.319170
21
-79.490997
31
-9.060315
12
-25.350893
22
-90.572754
32
15.642012
13
-25.350893
23
-90.572754
33
15.642012
0
3DFACE
8
0
70
0
10
-30.526176
20
-98.446640
30
11.900370
11
-25.350893
21
-90.572754
31
15.642012
12
-72.795586
22
-93.573784
32
17.587385
13
-72.795586
23
-93.573784
33
17.587385
0
3DFACE
8
0
70
0
10
-73.231285
20
-105.895706
30
11.780075
11
-30.526176
21
-98.446640
31
11.900370
12
-72.795586
22
-93.573784
32
17.587385
13
-72.795586
23
-93.573784
33
17.587385
0
3DFACE
8
0
70
0
10
-73.231285
20
-105.895706
30
11.780075
11
-72.795586
21
-93.573784
31
17.587385
12
-89.072983
22
-88.995842
32
5.651020
13
-89.072983
23
-88.995842
33
5.651020
0
3DFACE
8
0
70
0
10
-84.879372
20
-123.394760
30
3.029112
11
-73.231285
21
-105.895706
31
11.780075
12
-89.072983
22
-88.995842
32
5.651020
13
-89.072983
23
-88.995842
33
5.651020
0
3DFACE
8
0
70
0
10
-8.433323
20
-139.466919
30
-32.437267
11
-41.265938
21
-70.832237
31
-30.337801
12
-25.106327
22
-118.761894
32
-8.553623
13
-25.106327
23
-118.761894
33
-8.553623
0
3DFACE
8
0
70
0
10
-25.106327
20
-118.761894
30
-8.553623
11
-41.265938
21
-70.832237
31
-30.337801
12
-23.319170
22
-79.490997
32
-9.060315
13
-23.319170
23
-79.490997
33
-9.060315
0
3DFACE
8
0
70
0
10
-84.879372
20
-123.394760
30
3.029112
11
-89.072983
21
-88.995842
31
5.651020
12
-83.140366
22
-80.742447
32
-12.299496
13
-83.140366
23
-80.742447
33
-12.299496
0
3DFACE
8
0
70
0
10
-96.288506
20
-145.451263
30
-13.823764
11
-84.879372
21
-123.394760
31
3.029112
12
-83.140366
22
-80.742447
32
-12.299496
13
-83.140366
23
-80.742447
33
-12.299496
0
3DFACE
8
0
70
0
10
-96.288506
20
-145.451263
30
-13.823764
11
-83.140366
21
-80.742447
31
-12.299496
12
-41.265938
22
-70.832237
32
-30.337801
13
-41.265938
23
-70.832237
33
-30.337801
0
3DFACE
8
0
70
0
10
-8.433323
20
-139.466919
30
-32.437267
11
-96.288506
21
-145.451263
31
-13.823764
12
-41.265938
22
-70.832237
32
-30.337801
13
-41.265938
23
-70.832237
33
-30.337801
0
3DFACE
8
0
70
0
10
128.145966
20
-20.011887
30
96.014336
11
-2.352260
21
-16.249939
31
138.044754
12
-2.352262
22
-26.977066
32
129.826096
13
-2.352262
23
-26.977066
33
129.826096
0
3DFACE
8
0
70
0
10
128.145966
20
-20.011887
30
96.014336
11
129.320602
21
2.830887
31
100.264008
12
-2.352260
22
-16.249939
32
138.044754
13
-2.352260
23
-16.249939
33
138.044754
0
3DFACE
8
0
70
0
10
128.145966
20
15.922989
30
-77.439575
11
-2.267948
21
22.073593
31
-110.952370
12
-2.352266
22
46.937012
32
-111.432457
13
-2.352266
23
46.937012
33
-111.432457
0
3DFACE
8
0
70
0
10
128.145966
20
15.922989
30
-77.439575
11
-2.352266
21
46.937012
31
-111.432457
12
129.320602
22
38.684998
32
-72.800049
13
129.320602
23
38.684998
33
-72.800049
0
3DFACE
8
0
70
0
10
128.145966
20
-20.011887
30
96.014336
11
161.061371
21
22.760178
31
4.067425
12
129.320602
22
2.830887
32
100.264008
13
129.320602
23
2.830887
33
100.264008
0
3DFACE
8
0
70
0
10
128.145966
20
-20.011887
30
96.014336
11
159.613113
21
-2.530060
31
11.631362
12
161.061371
22
22.760178
32
4.067425
13
161.061371
23
22.760178
33
4.067425
0
3DFACE
8
0
70
0
10
159.613113
20
-2.530060
30
11.631362
11
128.145966
21
15.922989
31
-77.439575
12
129.320602
22
38.684998
32
-72.800049
13
129.320602
23
38.684998
33
-72.800049
0
3DFACE
8
0
70
0
10
159.613113
20
-2.530060
30
11.631362
11
129.320602
21
38.684998
31
-72.800049
12
161.061371
22
22.760178
32
4.067425
13
161.061371
23
22.760178
33
4.067425
0
3DFACE
8
0
70
0
10
-132.850494
20
-20.011902
30
96.014328
11
-2.352262
21
-26.977066
31
129.826096
12
-2.352260
22
-16.249939
32
138.044754
13
-2.352260
23
-16.249939
33
138.044754
0
3DFACE
8
0
70
0
10
-132.850494
20
-20.011902
30
96.014328
11
-2.352260
21
-16.249939
31
138.044754
12
-134.025116
22
2.830887
32
100.264000
13
-134.025116
23
2.830887
33
100.264000
0
3DFACE
8
0
70
0
10
-132.850494
20
15.922974
30
-77.439583
11
-2.352266
21
46.937012
31
-111.432457
12
-2.267948
22
22.073593
32
-110.952370
13
-2.267948
23
22.073593
33
-110.952370
0
3DFACE
8
0
70
0
10
-132.850494
20
15.922974
30
-77.439583
11
-134.025131
21
38.684998
31
-72.800049
12
-2.352266
22
46.937012
32
-111.432457
13
-2.352266
23
46.937012
33
-111.432457
0
3DFACE
8
0
70
0
10
-132.850494
20
-20.011902
30
96.014328
11
-165.765900
21
22.760162
31
4.067417
12
-164.317627
22
-2.530075
32
11.631354
13
-164.317627
23
-2.530075
33
11.631354
0
3DFACE
8
0
70
0
10
-132.850494
20
-20.011902
30
96.014328
11
-134.025116
21
2.830887
31
100.264000
12
-165.765900
22
22.760162
32
4.067417
13
-165.765900
23
22.760162
33
4.067417
0
3DFACE
8
0
70
0
10
-164.317627
20
-2.530075
30
11.631354
11
-165.765900
21
22.760162
31
4.067417
12
-134.025131
22
38.684998
32
-72.800049
13
-134.025131
23
38.684998
33
-72.800049
0
3DFACE
8
0
70
0
10
-164.317627
20
-2.530075
30
11.631354
11
-134.025131
21
38.684998
31
-72.800049
12
-132.850494
22
15.922974
32
-77.439583
13
-132.850494
23
15.922974
33
-77.439583
0
3DFACE
8
0
70
0
10
-2.352260
20
-16.249939
30
138.044754
11
64.896210
21
75.992950
31
51.869530
12
-2.352258
22
61.319138
32
59.363785
13
-2.352258
23
61.319138
33
59.363785
0
3DFACE
8
0
70
0
10
-2.352260
20
-16.249939
30
138.044754
11
129.320602
21
2.830887
31
100.264008
12
64.896210
22
75.992950
32
51.869530
13
64.896210
23
75.992950
33
51.869530
0
3DFACE
8
0
70
0
10
129.320602
20
38.684998
30
-72.800049
11
-2.352266
21
46.937012
31
-111.432457
12
64.135666
22
112.631042
32
-56.024242
13
64.135666
23
112.631042
33
-56.024242
0
3DFACE
8
0
70
0
10
-2.352266
20
46.937012
30
-111.432457
11
-2.151255
21
123.555603
31
-62.366470
12
64.135666
22
112.631042
32
-56.024242
13
64.135666
23
112.631042
33
-56.024242
0
3DFACE
8
0
70
0
10
129.320602
20
2.830887
30
100.264008
11
117.288872
21
76.944183
31
6.415548
12
87.051163
22
95.406342
32
40.697601
13
87.051163
23
95.406342
33
40.697601
0
3DFACE
8
0
70
0
10
129.320602
20
2.830887
30
100.264008
11
161.061371
21
22.760178
31
4.067425
12
117.288872
22
76.944183
32
6.415548
13
117.288872
23
76.944183
33
6.415548
0
3DFACE
8
0
70
0
10
129.320602
20
38.684998
30
-72.800049
11
93.603477
21
100.719803
31
-38.875645
12
117.288872
22
76.944183
32
6.415548
13
117.288872
23
76.944183
33
6.415548
0
3DFACE
8
0
70
0
10
161.061371
20
22.760178
30
4.067425
11
129.320602
21
38.684998
31
-72.800049
12
117.288872
22
76.944183
32
6.415548
13
117.288872
23
76.944183
33
6.415548
0
3DFACE
8
0
70
0
10
129.320602
20
2.830887
30
100.264008
11
87.051163
21
95.406342
31
40.697601
12
64.896210
22
75.992950
32
51.869530
13
64.896210
23
75.992950
33
51.869530
0
3DFACE
8
0
70
0
10
129.320602
20
38.684998
30
-72.800049
11
64.135666
21
112.631042
31
-56.024242
12
93.603477
22
100.719803
32
-38.875645
13
93.603477
23
100.719803
33
-38.875645
0
3DFACE
8
0
70
0
10
-2.352260
20
-16.249939
30
138.044754
11
-69.406898
21
75.992935
31
51.869526
12
-134.025116
22
2.830887
32
100.264000
13
-134.025116
23
2.830887
33
100.264000
0
3DFACE
8
0
70
0
10
-2.352260
20
-16.249939
30
138.044754
11
-2.352258
21
61.319138
31
59.363785
12
-69.406898
22
75.992935
32
51.869526
13
-69.406898
23
75.992935
33
51.869526
0
3DFACE
8
0
70
0
10
-134.025131
20
38.684998
30
-72.800049
11
-68.593498
21
112.631042
31
-56.024242
12
-2.352266
22
46.937012
32
-111.432457
13
-2.352266
23
46.937012
33
-111.432457
0
3DFACE
8
0
70
0
10
-2.352266
20
46.937012
30
-111.432457
11
-68.593498
21
112.631042
31
-56.024242
12
-2.151255
22
123.555603
32
-62.366470
13
-2.151255
23
123.555603
33
-62.366470
0
3DFACE
8
0
70
0
10
-134.025116
20
2.830887
30
100.264000
11
-96.901535
21
92.658829
31
41.062820
12
-126.036507
22
76.182266
32
3.602429
13
-126.036507
23
76.182266
33
3.602429
0
3DFACE
8
0
70
0
10
-134.025116
20
2.830887
30
100.264000
11
-126.036507
21
76.182266
31
3.602429
12
-165.765900
22
22.760162
32
4.067417
13
-165.765900
23
22.760162
33
4.067417
0
3DFACE
8
0
70
0
10
-165.765900
20
22.760162
30
4.067417
11
-126.036507
21
76.182266
31
3.602429
12
-134.025131
22
38.684998
32
-72.800049
13
-134.025131
23
38.684998
33
-72.800049
0
3DFACE
8
0
70
0
10
-134.025131
20
38.684998
30
-72.800049
11
-126.036507
21
76.182266
31
3.602429
12
-96.506416
22
101.547836
32
-39.897873
13
-96.506416
23
101.547836
33
-39.897873
0
3DFACE
8
0
70
0
10
-134.025116
20
2.830887
30
100.264000
11
-69.406898
21
75.992935
31
51.869526
12
-96.901535
22
92.658829
32
41.062820
13
-96.901535
23
92.658829
33
41.062820
0
3DFACE
8
0
70
0
10
-134.025131
20
38.684998
30
-72.800049
11
-96.506416
21
101.547836
31
-39.897873
12
-68.593498
22
112.631042
32
-56.024242
13
-68.593498
23
112.631042
33
-56.024242
0
3DFACE
8
0
70
0
10
117.288872
20
76.944183
30
6.415548
11
133.060013
21
148.637238
31
64.605782
12
87.051163
22
95.406342
32
40.697601
13
87.051163
23
95.406342
33
40.697601
0
3DFACE
8
0
70
0
10
166.470566
20
117.285431
30
51.696674
11
133.060013
21
148.637238
31
64.605782
12
117.288872
22
76.944183
32
6.415548
13
117.288872
23
76.944183
33
6.415548
0
3DFACE
8
0
70
0
10
87.051163
20
95.406342
30
40.697601
11
165.617966
21
169.824768
31
29.589756
12
68.631889
22
119.370483
32
-12.888762
13
68.631889
23
119.370483
33
-12.888762
0
3DFACE
8
0
70
0
10
87.051163
20
95.406342
30
40.697601
11
133.060013
21
148.637238
31
64.605782
12
165.617966
22
169.824768
32
29.589756
13
165.617966
23
169.824768
33
29.589756
0
3DFACE
8
0
70
0
10
93.603477
20
100.719803
30
-38.875645
11
68.631889
21
119.370483
31
-12.888762
12
165.617966
22
169.824768
32
29.589756
13
165.617966
23
169.824768
33
29.589756
0
3DFACE
8
0
70
0
10
93.603477
20
100.719803
30
-38.875645
11
165.617966
21
169.824768
31
29.589756
12
192.926163
22
137.304626
32
22.028282
13
192.926163
23
137.304626
33
22.028282
0
3DFACE
8
0
70
0
10
117.288872
20
76.944183
30
6.415548
11
93.603477
21
100.719803
31
-38.875645
12
192.926163
22
137.304626
32
22.028282
13
192.926163
23
137.304626
33
22.028282
0
3DFACE
8
0
70
0
10
166.470566
20
117.285431
30
51.696674
11
117.288872
21
76.944183
31
6.415548
12
192.926163
22
137.304626
32
22.028282
13
192.926163
23
137.304626
33
22.028282
0
3DFACE
8
0
70
0
10
-126.036507
20
76.182266
30
3.602429
11
-96.901535
21
92.658829
31
41.062820
12
-142.503799
22
148.199097
32
44.968452
13
-142.503799
23
148.199097
33
44.968452
0
3DFACE
8
0
70
0
10
-180.467560
20
124.202148
30
28.290686
11
-126.036507
21
76.182266
31
3.602429
12
-142.503799
22
148.199097
32
44.968452
13
-142.503799
23
148.199097
33
44.968452
0
3DFACE
8
0
70
0
10
-96.901535
20
92.658829
30
41.062820
11
-72.521820
21
119.205139
31
-11.276799
12
-169.862061
22
177.420776
32
10.816926
13
-169.862061
23
177.420776
33
10.816926
0
3DFACE
8
0
70
0
10
-96.901535
20
92.658829
30
41.062820
11
-169.862061
21
177.420776
31
10.816926
12
-142.503799
22
148.199097
32
44.968452
13
-142.503799
23
148.199097
33
44.968452
0
3DFACE
8
0
70
0
10
-96.506416
20
101.547836
30
-39.897873
11
-169.862061
21
177.420776
31
10.816926
12
-72.521820
22
119.205139
32
-11.276799
13
-72.521820
23
119.205139
33
-11.276799
0
3DFACE
8
0
70
0
10
-96.506416
20
101.547836
30
-39.897873
11
-202.175995
21
150.796631
31
-0.429467
12
-169.862061
22
177.420776
32
10.816926
13
-169.862061
23
177.420776
33
10.816926
0
3DFACE
8
0
70
0
10
-126.036507
20
76.182266
30
3.602429
11
-202.175995
21
150.796631
31
-0.429467
12
-96.506416
22
101.547836
32
-39.897873
13
-96.506416
23
101.547836
33
-39.897873
0
3DFACE
8
0
70
0
10
-180.467560
20
124.202148
30
28.290686
11
-202.175995
21
150.796631
31
-0.429467
12
-126.036507
22
76.182266
32
3.602429
13
-126.036507
23
76.182266
33
3.602429
0
3DFACE
8
0
70
0
10
-176.460129
20
133.466187
30
72.953789
11
-180.467560
21
124.202148
31
28.290686
12
-142.503799
22
148.199097
32
44.968452
13
-142.503799
23
148.199097
33
44.968452
0
3DFACE
8
0
70
0
10
-176.460129
20
133.466187
30
72.953789
11
-142.503799
21
148.199097
31
44.968452
12
-133.771988
22
146.679321
32
53.834404
13
-133.771988
23
146.679321
33
53.834404
0
3DFACE
8
0
70
0
10
-133.771988
20
146.679321
30
53.834404
11
-142.503799
21
148.199097
31
44.968452
12
-169.862061
22
177.420776
32
10.816926
13
-169.862061
23
177.420776
33
10.816926
0
3DFACE
8
0
70
0
10
-133.771988
20
146.679321
30
53.834404
11
-169.862061
21
177.420776
31
10.816926
12
-163.737000
22
189.685242
32
62.546120
13
-163.737000
23
189.685242
33
62.546120
0
3DFACE
8
0
70
0
10
-200.081299
20
171.743896
30
79.426933
11
-163.737000
21
189.685242
31
62.546120
12
-169.862061
22
177.420776
32
10.816926
13
-169.862061
23
177.420776
33
10.816926
0
3DFACE
8
0
70
0
10
-200.081299
20
171.743896
30
79.426933
11
-169.862061
21
177.420776
31
10.816926
12
-202.175995
22
150.796631
32
-0.429467
13
-202.175995
23
150.796631
33
-0.429467
0
3DFACE
8
0
70
0
10
-176.460129
20
133.466187
30
72.953789
11
-200.081299
21
171.743896
31
79.426933
12
-202.175995
22
150.796631
32
-0.429467
13
-202.175995
23
150.796631
33
-0.429467
0
3DFACE
8
0
70
0
10
-176.460129
20
133.466187
30
72.953789
11
-202.175995
21
150.796631
31
-0.429467
12
-180.467560
22
124.202148
32
28.290686
13
-180.467560
23
124.202148
33
28.290686
0
3DFACE
8
0
70
0
10
189.895630
20
130.879395
30
90.054665
11
133.060013
21
148.637238
31
64.605782
12
166.470566
22
117.285431
32
51.696674
13
166.470566
23
117.285431
33
51.696674
0
3DFACE
8
0
70
0
10
189.895630
20
130.879395
30
90.054665
11
149.052414
21
157.011230
31
86.681870
12
133.060013
22
148.637238
32
64.605782
13
133.060013
23
148.637238
33
64.605782
0
3DFACE
8
0
70
0
10
149.052414
20
157.011230
30
86.681870
11
165.617966
21
169.824768
31
29.589756
12
133.060013
22
148.637238
32
64.605782
13
133.060013
23
148.637238
33
64.605782
0
3DFACE
8
0
70
0
10
149.052414
20
157.011230
30
86.681870
11
190.784714
21
186.882507
31
72.918762
12
165.617966
22
169.824768
32
29.589756
13
165.617966
23
169.824768
33
29.589756
0
3DFACE
8
0
70
0
10
223.886322
20
158.462860
30
77.855011
11
192.926163
21
137.304626
31
22.028282
12
165.617966
22
169.824768
32
29.589756
13
165.617966
23
169.824768
33
29.589756
0
3DFACE
8
0
70
0
10
223.886322
20
158.462860
30
77.855011
11
165.617966
21
169.824768
31
29.589756
12
190.784714
22
186.882507
32
72.918762
13
190.784714
23
186.882507
33
72.918762
0
3DFACE
8
0
70
0
10
189.895630
20
130.879395
30
90.054665
11
166.470566
21
117.285431
31
51.696674
12
192.926163
22
137.304626
32
22.028282
13
192.926163
23
137.304626
33
22.028282
0
3DFACE
8
0
70
0
10
189.895630
20
130.879395
30
90.054665
11
192.926163
21
137.304626
31
22.028282
12
223.886322
22
158.462860
32
77.855011
13
223.886322
23
158.462860
33
77.855011
0
3DFACE
8
0
70
0
10
-17.849276
20
240.254089
30
-22.113832
11
-13.533721
21
238.369934
31
-24.685337
12
-8.185081
22
210.218384
32
-3.825270
13
-23.280928
23
214.392883
33
6.607861
0
3DFACE
8
0
70
0
10
-8.514243
20
240.254089
30
-24.481617
11
10.058475
21
214.392883
31
-1.848519
12
-8.185081
22
210.218384
32
-3.825270
13
-13.533721
23
238.369934
33
-24.685337
0
3DFACE
8
0
70
0
10
-4.859423
20
243.050812
30
-23.216455
11
23.581753
21
220.589355
31
4.524270
12
10.058475
22
214.392883
32
-1.848519
13
-8.514243
23
240.254089
33
-24.481617
0
3DFACE
8
0
70
0
10
-5.041717
20
245.911865
30
-20.927603
11
23.411852
21
226.928284
31
14.595680
12
23.581753
22
220.589355
32
4.524270
13
-4.859423
23
243.050812
33
-23.216455
0
3DFACE
8
0
70
0
10
-5.162028
20
249.458679
30
-18.116901
11
23.578650
21
234.786743
31
26.985540
12
23.411852
22
226.928284
32
14.595680
13
-5.041717
23
245.911865
33
-20.927603
0
3DFACE
8
0
70
0
10
-8.327164
20
251.180725
30
-15.964249
11
12.564186
21
238.602112
31
35.815315
12
23.578650
22
234.786743
32
26.985540
13
-5.162028
23
249.458679
33
-18.116901
0
3DFACE
8
0
70
0
10
-10.952914
20
252.185699
30
-14.510476
11
3.355509
21
240.828735
31
41.673660
12
12.564186
22
238.602112
32
35.815315
13
-8.327164
23
251.180725
33
-15.964249
0
3DFACE
8
0
70
0
10
-10.952914
20
252.185699
30
-14.510476
11
-13.954134
21
251.180725
31
-14.536995
12
-7.532135
22
238.602112
32
40.912651
13
3.355509
23
240.828735
33
41.673660
0
3DFACE
8
0
70
0
10
-13.954134
20
251.180725
30
-14.536995
11
-17.762634
21
249.458679
31
-14.920818
12
-21.423519
22
234.786743
32
38.400124
13
-7.532135
23
238.602112
33
40.912651
0
3DFACE
8
0
70
0
10
-17.762634
20
249.458679
30
-14.920818
11
-19.208057
21
245.911865
31
-17.334379
12
-27.182222
22
226.928284
32
27.428625
13
-21.423519
23
234.786743
33
38.400124
0
3DFACE
8
0
70
0
10
-19.208057
20
245.911865
30
-17.334379
11
-20.459238
21
243.050812
31
-19.259638
12
-32.131874
22
220.589355
32
18.655766
13
-27.182222
23
226.928284
33
27.428625
0
3DFACE
8
0
70
0
10
-20.459238
20
243.050812
30
-19.259638
11
-17.849276
21
240.254089
31
-22.113832
12
-23.280928
22
214.392883
32
6.607861
13
-32.131874
23
220.589355
33
18.655766
0
ENDSEC
0
EOF
