0
SECTION
2
HEADER
999
DXF File Generated by LightWave 3D(TM)
0
ENDSEC
0
SECTION
2
TABLES
0
ENDSEC
0
SECTION
2
BLOCKS
0
ENDSEC
0
SECTION
2
ENTITIES
0
3DFACE
8
0
70
0
10
-160.427353
20
-125.993004
30
-1.386255
11
-142.745575
21
-126.325119
31
-1.994736
12
-143.060883
22
-107.322441
32
-2.051348
13
-160.535248
23
-107.157013
33
-1.480531
0
3DFACE
8
0
70
0
10
-142.745575
20
-126.325119
30
-1.994736
11
-124.468040
21
-126.851128
31
-2.509573
12
-124.515900
22
-107.673859
32
-2.136801
13
-143.060883
23
-107.322441
33
-2.051348
0
3DFACE
8
0
70
0
10
-124.468040
20
-126.851128
30
-2.509573
11
-107.227196
21
-126.785751
31
-2.000518
12
-106.377434
22
-107.678841
32
-1.086160
13
-124.515900
23
-107.673859
33
-2.136801
0
3DFACE
8
0
70
0
10
-107.227196
20
-126.785751
30
-2.000518
11
-91.701607
21
-125.703278
31
-0.327599
12
-89.988976
22
-106.869591
32
0.687854
13
-106.377434
23
-107.678841
33
-1.086160
0
3DFACE
8
0
70
0
10
-91.701607
20
-125.703278
30
-0.327599
11
-76.321381
21
-124.201836
31
1.581972
12
-74.886162
22
-105.557076
32
1.891914
13
-89.988976
23
-106.869591
33
0.687854
0
3DFACE
8
0
70
0
10
-76.321381
20
-124.201836
30
1.581972
11
-58.664291
21
-123.528656
31
2.376659
12
-58.889275
22
-104.869736
32
1.326896
13
-74.886162
23
-105.557076
33
1.891914
0
3DFACE
8
0
70
0
10
-58.664291
20
-123.528656
30
2.376659
11
-37.959240
21
-124.400948
31
1.263525
12
-40.014271
22
-105.860115
32
-1.187119
13
-58.889275
23
-104.869736
33
1.326896
0
3DFACE
8
0
70
0
10
-37.959240
20
-124.400948
30
1.263525
11
-16.308434
21
-126.175781
31
-1.456480
12
-18.802679
22
-108.409210
32
-4.647139
13
-40.014271
23
-105.860115
33
-1.187119
0
3DFACE
8
0
70
0
10
-16.308434
20
-126.175781
30
-1.456480
11
2.769141
21
-127.309212
31
-4.639977
12
1.716647
22
-111.033104
32
-7.510491
13
-18.802679
23
-108.409210
33
-4.647139
0
3DFACE
8
0
70
0
10
2.769141
20
-127.309212
30
-4.639977
11
17.488482
21
-126.824654
31
-7.052073
12
18.577715
22
-111.970047
32
-8.606097
13
1.716647
23
-111.033104
33
-7.510491
0
3DFACE
8
0
70
0
10
17.488482
20
-126.824654
30
-7.052073
11
29.623020
21
-125.447319
31
-8.031876
12
31.541746
22
-110.724464
32
-7.693876
13
18.577715
23
-111.970047
33
-8.606097
0
3DFACE
8
0
70
0
10
29.623020
20
-125.447319
30
-8.031876
11
43.189899
21
-125.239922
31
-7.671793
12
43.490868
22
-108.710846
32
-5.412315
13
31.541746
23
-110.724464
33
-7.693876
0
3DFACE
8
0
70
0
10
43.189899
20
-125.239922
30
-7.671793
11
61.147331
21
-127.895821
31
-6.526394
12
58.237503
22
-108.327759
32
-2.787605
13
43.490868
23
-108.710846
33
-5.412315
0
3DFACE
8
0
70
0
10
61.147331
20
-127.895821
30
-6.526394
11
83.014641
21
-133.098419
31
-5.161818
12
77.644135
22
-111.119698
32
-0.681069
13
58.237503
23
-108.327759
33
-2.787605
0
3DFACE
8
0
70
0
10
83.014641
20
-133.098419
30
-5.161818
11
105.360542
21
-138.377716
31
-3.862613
12
100.364494
22
-116.474792
32
0.528216
13
77.644135
23
-111.119698
33
-0.681069
0
3DFACE
8
0
70
0
10
105.360542
20
-138.377716
30
-3.862613
11
124.565277
21
-140.661652
31
-2.615327
12
123.040260
22
-121.878540
32
0.947901
13
100.364494
23
-116.474792
33
0.528216
0
3DFACE
8
0
70
0
10
124.565277
20
-140.661652
30
-2.615327
11
138.897598
21
-136.987823
31
-1.270812
12
141.863022
22
-122.610107
32
0.746086
13
123.040260
23
-121.878540
33
0.947901
0
3DFACE
8
0
70
0
10
138.897598
20
-136.987823
30
-1.270812
11
151.691513
21
-130.859116
31
-0.059917
12
157.314865
22
-119.490112
32
0.637971
13
141.863022
23
-122.610107
33
0.746086
0
3DFACE
8
0
70
0
10
151.691513
20
-130.859116
30
-0.059917
11
165.650208
21
-125.129768
31
0.925751
12
171.439453
22
-114.195694
32
0.870394
13
157.314865
23
-119.490112
33
0.637971
0
3DFACE
8
0
70
0
10
165.650208
20
-125.129768
30
0.925751
11
181.707794
21
-121.611954
31
1.469235
12
185.911377
22
-108.772934
32
1.376536
13
171.439453
23
-114.195694
33
0.870394
0
3DFACE
8
0
70
0
10
181.707794
20
-121.611954
30
1.469235
11
199.229553
21
-120.646049
31
1.315494
12
201.262497
22
-104.698753
32
1.824946
13
185.911377
23
-108.772934
33
1.376536
0
3DFACE
8
0
70
0
10
199.229553
20
-120.646049
30
1.315494
11
217.195816
21
-121.580574
31
0.319292
12
217.265152
22
-102.595314
32
1.740502
13
201.262497
23
-104.698753
33
1.824946
0
3DFACE
8
0
70
0
10
-160.535248
20
-107.157013
30
-1.480531
11
-143.060883
21
-107.322441
31
-2.051348
12
-143.143707
22
-88.198128
32
-1.952650
13
-160.492126
23
-88.303581
33
-1.532589
0
3DFACE
8
0
70
0
10
-143.060883
20
-107.322441
30
-2.051348
11
-124.515900
21
-107.673859
31
-2.136801
12
-124.493767
22
-88.304810
32
-1.623809
13
-143.143707
23
-88.198128
33
-1.952650
0
3DFACE
8
0
70
0
10
-124.515900
20
-107.673859
30
-2.136801
11
-106.377434
21
-107.678841
31
-1.086160
12
-105.683311
22
-88.569031
32
-0.316940
13
-124.493767
23
-88.304810
33
-1.623809
0
3DFACE
8
0
70
0
10
-106.377434
20
-107.678841
30
-1.086160
11
-89.988976
21
-106.869591
31
0.687854
12
-88.548027
22
-88.549927
32
1.089585
13
-105.683311
23
-88.569031
33
-0.316940
0
3DFACE
8
0
70
0
10
-89.988976
20
-106.869591
30
0.687854
11
-74.886162
21
-105.557076
31
1.891914
12
-73.548180
22
-87.981812
32
1.252521
13
-88.548027
23
-88.549927
33
1.089585
0
3DFACE
8
0
70
0
10
-74.886162
20
-105.557076
30
1.891914
11
-58.889275
21
-104.869736
31
1.326896
12
-58.798866
22
-87.324112
32
-0.524622
13
-73.548180
23
-87.981812
33
1.252521
0
3DFACE
8
0
70
0
10
-58.889275
20
-104.869736
30
1.326896
11
-40.014271
21
-105.860115
31
-1.187119
12
-41.743874
22
-87.560715
32
-3.671224
13
-58.798866
23
-87.324112
33
-0.524622
0
3DFACE
8
0
70
0
10
-40.014271
20
-105.860115
30
-1.187119
11
-18.802679
21
-108.409210
31
-4.647139
12
-21.608711
22
-89.256493
32
-6.676849
13
-41.743874
23
-87.560715
33
-3.671224
0
3DFACE
8
0
70
0
10
-18.802679
20
-108.409210
30
-4.647139
11
1.716647
21
-111.033104
31
-7.510491
12
-0.309331
22
-91.739449
32
-8.029780
13
-21.608711
23
-89.256493
33
-6.676849
0
3DFACE
8
0
70
0
10
1.716647
20
-111.033104
30
-7.510491
11
18.577715
21
-111.970047
31
-8.606097
12
18.959253
22
-93.321121
32
-7.047028
13
-0.309331
23
-91.739449
33
-8.029780
0
3DFACE
8
0
70
0
10
18.577715
20
-111.970047
30
-8.606097
11
31.541746
21
-110.724464
31
-7.693876
12
34.273323
22
-92.568359
32
-4.103855
13
18.959253
23
-93.321121
33
-7.047028
0
3DFACE
8
0
70
0
10
31.541746
20
-110.724464
30
-7.693876
11
43.490868
21
-108.710846
31
-5.412315
12
46.566139
22
-89.623405
32
-0.275677
13
34.273323
23
-92.568359
33
-4.103855
0
3DFACE
8
0
70
0
10
43.490868
20
-108.710846
30
-5.412315
11
58.237503
21
-108.327759
31
-2.787605
12
59.002625
22
-86.409042
32
3.255441
13
46.566139
23
-89.623405
33
-0.275677
0
3DFACE
8
0
70
0
10
58.237503
20
-108.327759
30
-2.787605
11
77.644135
21
-111.119698
31
-0.681069
12
74.724861
22
-85.438667
32
5.666957
13
59.002625
23
-86.409042
33
3.255441
0
3DFACE
8
0
70
0
10
77.644135
20
-111.119698
30
-0.681069
11
100.364494
21
-116.474792
31
0.528216
12
94.742622
22
-88.098885
32
6.666635
13
74.724861
23
-85.438667
33
5.666957
0
3DFACE
8
0
70
0
10
100.364494
20
-116.474792
30
0.528216
11
123.040260
21
-121.878540
31
0.947901
12
117.499886
22
-93.685471
32
6.404685
13
94.742622
23
-88.098885
33
6.666635
0
3DFACE
8
0
70
0
10
123.040260
20
-121.878540
30
0.947901
11
141.863022
21
-122.610107
31
0.746086
12
139.578522
22
-98.571663
32
4.592152
13
117.499886
23
-93.685471
33
6.404685
0
3DFACE
8
0
70
0
10
141.863022
20
-122.610107
30
0.746086
11
157.314865
21
-119.490112
31
0.637971
12
158.798248
22
-100.534355
32
2.817016
13
139.578522
23
-98.571663
33
4.592152
0
3DFACE
8
0
70
0
10
157.314865
20
-119.490112
30
0.637971
11
171.439453
21
-114.195694
31
0.870394
12
175.543579
22
-99.188324
32
1.585831
13
158.798248
23
-100.534355
33
2.817016
0
3DFACE
8
0
70
0
10
171.439453
20
-114.195694
30
0.870394
11
185.911377
21
-108.772934
31
1.376536
12
190.931946
22
-95.437202
32
1.116239
13
175.543579
23
-99.188324
33
1.585831
0
3DFACE
8
0
70
0
10
185.911377
20
-108.772934
30
1.376536
11
201.262497
21
-104.698753
31
1.824946
12
205.765121
22
-90.708961
32
1.308025
13
190.931946
23
-95.437202
33
1.116239
0
3DFACE
8
0
70
0
10
201.262497
20
-104.698753
30
1.824946
11
217.265152
21
-102.595314
31
1.740502
12
220.327881
22
-86.359940
32
1.694613
13
205.765121
23
-90.708961
33
1.308025
0
3DFACE
8
0
70
0
10
-160.492126
20
-88.303581
30
-1.532589
11
-143.143707
21
-88.198128
31
-1.952650
12
-142.217453
22
-69.088989
32
-1.772614
13
-159.657089
23
-69.457497
33
-1.544775
0
3DFACE
8
0
70
0
10
-143.143707
20
-88.198128
30
-1.952650
11
-124.493767
21
-88.304810
31
-1.623809
12
-123.832001
22
-68.932251
32
-1.146849
13
-142.217453
23
-69.088989
33
-1.772614
0
3DFACE
8
0
70
0
10
-124.493767
20
-88.304810
30
-1.623809
11
-105.683311
21
-88.569031
31
-0.316940
12
-105.359016
22
-69.470146
32
0.136477
13
-123.832001
23
-68.932251
33
-1.146849
0
3DFACE
8
0
70
0
10
-105.683311
20
-88.569031
30
-0.316940
11
-88.548027
21
-88.549927
31
1.089585
12
-88.158112
22
-70.378571
32
0.927738
13
-105.359016
23
-69.470146
33
0.136477
0
3DFACE
8
0
70
0
10
-88.548027
20
-88.549927
30
1.089585
11
-73.548180
21
-87.981812
31
1.252521
12
-72.716263
22
-70.763680
32
0.112551
13
-88.158112
23
-70.378571
33
0.927738
0
3DFACE
8
0
70
0
10
-73.548180
20
-87.981812
30
1.252521
11
-58.798866
21
-87.324112
31
-0.524622
12
-57.947403
22
-70.132393
32
-2.347882
13
-72.716263
23
-70.763680
33
0.112551
0
3DFACE
8
0
70
0
10
-58.798866
20
-87.324112
30
-0.524622
11
-41.743874
21
-87.560715
31
-3.671224
12
-41.855137
22
-69.054909
32
-5.246254
13
-57.947403
23
-70.132393
33
-2.347882
0
3DFACE
8
0
70
0
10
-41.743874
20
-87.560715
30
-3.671224
11
-21.608711
21
-89.256493
31
-6.676849
12
-23.120447
22
-68.734894
32
-6.915101
13
-41.855137
23
-69.054909
33
-5.246254
0
3DFACE
8
0
70
0
10
-21.608711
20
-89.256493
30
-6.676849
11
-0.309331
21
-91.739449
31
-8.029780
12
-2.325753
22
-69.808571
32
-6.274333
13
-23.120447
23
-68.734894
33
-6.915101
0
3DFACE
8
0
70
0
10
-0.309331
20
-91.739449
30
-8.029780
11
18.959253
21
-93.321121
31
-7.047028
12
18.237020
22
-71.520782
32
-3.368207
13
-2.325753
23
-69.808571
33
-6.274333
0
3DFACE
8
0
70
0
10
18.959253
20
-93.321121
30
-7.047028
11
34.273323
21
-92.568359
31
-4.103855
12
36.111954
22
-72.142860
32
0.846816
13
18.237020
23
-71.520782
33
-3.368207
0
3DFACE
8
0
70
0
10
34.273323
20
-92.568359
30
-4.103855
11
46.566139
21
-89.623405
31
-0.275677
12
50.447845
22
-70.375946
32
5.133204
13
36.111954
23
-72.142860
33
0.846816
0
3DFACE
8
0
70
0
10
46.566139
20
-89.623405
30
-0.275677
11
59.002625
21
-86.409042
31
3.255441
12
62.671745
22
-66.575569
32
8.536633
13
50.447845
23
-70.375946
33
5.133204
0
3DFACE
8
0
70
0
10
59.002625
20
-86.409042
30
3.255441
11
74.724861
21
-85.438667
31
5.666957
12
75.588722
22
-62.760777
32
10.619528
13
62.671745
23
-66.575569
33
8.536633
0
3DFACE
8
0
70
0
10
74.724861
20
-85.438667
30
5.666957
11
94.742622
21
-88.098885
31
6.666635
12
91.579857
22
-61.386173
32
11.380779
13
75.588722
23
-62.760777
33
10.619528
0
3DFACE
8
0
70
0
10
94.742622
20
-88.098885
30
6.666635
11
117.499886
21
-93.685471
31
6.404685
12
111.247566
22
-63.823093
32
11.020464
13
91.579857
23
-61.386173
33
11.380779
0
3DFACE
8
0
70
0
10
117.499886
20
-93.685471
30
6.404685
11
139.578522
21
-98.571663
31
4.592152
12
133.494522
22
-69.562096
32
8.575866
13
111.247566
23
-63.823093
33
11.020464
0
3DFACE
8
0
70
0
10
139.578522
20
-98.571663
30
4.592152
11
158.798248
21
-100.534355
31
2.817016
12
155.140244
22
-75.115677
32
5.930372
13
133.494522
23
-69.562096
33
8.575866
0
3DFACE
8
0
70
0
10
158.798248
20
-100.534355
30
2.817016
11
175.543579
21
-99.188324
31
1.585831
12
175.122696
22
-78.505882
32
3.539744
13
155.140244
23
-75.115677
33
5.930372
0
3DFACE
8
0
70
0
10
175.543579
20
-99.188324
30
1.585831
11
190.931946
21
-95.437202
31
1.116239
12
193.357056
22
-78.923401
32
1.800196
13
175.122696
23
-78.505882
33
3.539744
0
3DFACE
8
0
70
0
10
190.931946
20
-95.437202
30
1.116239
11
205.765121
21
-90.708961
31
1.308025
12
209.982758
22
-76.605133
32
0.992753
13
193.357056
23
-78.923401
33
1.800196
0
3DFACE
8
0
70
0
10
205.765121
20
-90.708961
30
1.308025
11
220.327881
21
-86.359940
31
1.694613
12
225.023819
22
-72.516563
32
1.019922
13
209.982758
23
-76.605133
33
0.992753
0
3DFACE
8
0
70
0
10
-159.657089
20
-69.457497
30
-1.544775
11
-142.217453
21
-69.088989
31
-1.772614
12
-141.196426
22
-50.117199
32
-1.585828
13
-158.548325
23
-50.642281
33
-1.529775
0
3DFACE
8
0
70
0
10
-142.217453
20
-69.088989
30
-1.772614
11
-123.832001
21
-68.932251
31
-1.146849
12
-123.715927
22
-49.697762
32
-0.812339
13
-141.196426
23
-50.117199
33
-1.585828
0
3DFACE
8
0
70
0
10
-123.832001
20
-68.932251
30
-1.146849
11
-105.359016
21
-69.470146
31
0.136477
12
-106.267464
22
-50.299423
32
0.270707
13
-123.715927
23
-49.697762
33
-0.812339
0
3DFACE
8
0
70
0
10
-105.359016
20
-69.470146
30
0.136477
11
-88.158112
21
-70.378571
31
0.927738
12
-89.131508
22
-51.855247
32
0.451588
13
-106.267464
23
-50.299423
33
0.270707
0
3DFACE
8
0
70
0
10
-88.158112
20
-70.378571
30
0.927738
11
-72.716263
21
-70.763680
31
0.112551
12
-72.518959
22
-53.114880
32
-1.009643
13
-89.131508
23
-51.855247
33
0.451588
0
3DFACE
8
0
70
0
10
-72.716263
20
-70.763680
30
0.112551
11
-57.947403
21
-70.132393
31
-2.347882
12
-56.311234
22
-52.734070
32
-3.562794
13
-72.518959
23
-53.114880
33
-1.009643
0
3DFACE
8
0
70
0
10
-57.947403
20
-70.132393
30
-2.347882
11
-41.855137
21
-69.054909
31
-5.246254
12
-39.913662
22
-50.626720
32
-5.645801
13
-56.311234
23
-52.734070
33
-3.562794
0
3DFACE
8
0
70
0
10
-41.855137
20
-69.054909
30
-5.246254
11
-23.120447
21
-68.734894
31
-6.915101
12
-22.488441
22
-48.235085
32
-5.771985
13
-39.913662
23
-50.626720
33
-5.645801
0
3DFACE
8
0
70
0
10
-23.120447
20
-68.734894
30
-6.915101
11
-2.325753
21
-69.808571
31
-6.274333
12
-3.594015
22
-47.380810
32
-3.491883
13
-22.488441
23
-48.235085
33
-5.771985
0
3DFACE
8
0
70
0
10
-2.325753
20
-69.808571
30
-6.274333
11
18.237020
21
-71.520782
31
-3.368207
12
16.208395
22
-48.684929
32
0.458293
13
-3.594015
23
-47.380810
33
-3.491883
0
3DFACE
8
0
70
0
10
18.237020
20
-71.520782
30
-3.368207
11
36.111954
21
-72.142860
31
0.846816
12
35.405045
22
-50.939091
32
4.762947
13
16.208395
23
-48.684929
33
0.458293
0
3DFACE
8
0
70
0
10
36.111954
20
-72.142860
30
0.846816
11
50.447845
21
-70.375946
31
5.133204
12
52.416958
22
-51.971542
32
8.309172
13
35.405045
23
-50.939091
33
4.762947
0
3DFACE
8
0
70
0
10
50.447845
20
-70.375946
30
5.133204
11
62.671745
21
-66.575569
31
8.536633
12
66.750732
22
-50.301701
32
10.614530
13
52.416958
23
-51.971542
33
8.309172
0
3DFACE
8
0
70
0
10
62.671745
20
-66.575569
30
8.536633
11
75.588722
21
-62.760777
31
10.619528
12
79.511208
22
-46.279919
32
11.791182
13
66.750732
23
-50.301701
33
10.614530
0
3DFACE
8
0
70
0
10
75.588722
20
-62.760777
30
10.619528
11
91.579857
21
-61.386173
31
11.380779
12
92.774429
22
-41.923264
32
12.239321
13
79.511208
23
-46.279919
33
11.791182
0
3DFACE
8
0
70
0
10
91.579857
20
-61.386173
30
11.380779
11
111.247566
21
-63.823093
31
11.020464
12
108.356476
22
-39.728138
32
12.275543
13
92.774429
23
-41.923264
33
12.239321
0
3DFACE
8
0
70
0
10
111.247566
20
-63.823093
30
11.020464
11
133.494522
21
-69.562096
31
8.575866
12
127.743271
22
-42.306080
32
10.506124
13
108.356476
23
-39.728138
33
12.275543
0
3DFACE
8
0
70
0
10
133.494522
20
-69.562096
30
8.575866
11
155.140244
21
-75.115677
31
5.930372
12
148.852448
22
-47.483845
32
8.385304
13
127.743271
23
-42.306080
33
10.506124
0
3DFACE
8
0
70
0
10
155.140244
20
-75.115677
30
5.930372
11
175.122696
21
-78.505882
31
3.539744
12
170.355682
22
-53.179272
32
5.966463
13
148.852448
23
-47.483845
33
8.385304
0
3DFACE
8
0
70
0
10
175.122696
20
-78.505882
30
3.539744
11
193.357056
21
-78.923401
31
1.800196
12
191.343384
22
-57.492435
32
3.530926
13
170.355682
23
-53.179272
33
5.966463
0
3DFACE
8
0
70
0
10
193.357056
20
-78.923401
30
1.800196
11
209.982758
21
-76.605133
31
0.992753
12
211.009842
22
-59.193642
32
1.627221
13
191.343384
23
-57.492435
33
3.530926
0
3DFACE
8
0
70
0
10
209.982758
20
-76.605133
30
0.992753
11
225.023819
21
-72.516563
31
1.019922
12
228.484085
22
-57.990677
32
0.685793
13
211.009842
23
-59.193642
33
1.627221
0
3DFACE
8
0
70
0
10
-158.548325
20
-50.642281
30
-1.529775
11
-141.196426
21
-50.117199
31
-1.585828
12
-140.709610
22
-31.348047
32
-1.442826
13
-158.179001
23
-31.864103
33
-1.502964
0
3DFACE
8
0
70
0
10
-141.196426
20
-50.117199
30
-1.585828
11
-123.715927
21
-49.697762
31
-0.812339
12
-123.960373
22
-30.705870
32
-0.649780
13
-140.709610
23
-31.348047
33
-1.442826
0
3DFACE
8
0
70
0
10
-123.715927
20
-49.697762
30
-0.812339
11
-106.267464
21
-50.299423
31
0.270707
12
-107.700417
22
-31.047831
32
0.180217
13
-123.960373
23
-30.705870
33
-0.649780
0
3DFACE
8
0
70
0
10
-106.267464
20
-50.299423
30
0.270707
11
-89.131508
21
-51.855247
31
0.451588
12
-90.932625
22
-32.692154
32
-0.071094
13
-107.700417
23
-31.047831
33
0.180217
0
3DFACE
8
0
70
0
10
-89.131508
20
-51.855247
30
0.451588
11
-72.518959
21
-53.114880
31
-1.009643
12
-73.031685
22
-34.519600
32
-1.774166
13
-90.932625
23
-32.692154
33
-0.071094
0
3DFACE
8
0
70
0
10
-72.518959
20
-53.114880
30
-1.009643
11
-56.311234
21
-52.734070
31
-3.562794
12
-54.530716
22
-34.775848
32
-4.010457
13
-73.031685
23
-34.519600
33
-1.774166
0
3DFACE
8
0
70
0
10
-56.311234
20
-52.734070
30
-3.562794
11
-39.913662
21
-50.626720
31
-5.645801
12
-36.613636
22
-32.651623
32
-5.177105
13
-54.530716
23
-34.775848
33
-4.010457
0
3DFACE
8
0
70
0
10
-39.913662
20
-50.626720
30
-5.645801
11
-22.488441
21
-48.235085
31
-5.771985
12
-19.841759
22
-29.186844
32
-4.164247
13
-36.613636
23
-32.651623
33
-5.177105
0
3DFACE
8
0
70
0
10
-22.488441
20
-48.235085
30
-5.771985
11
-3.594015
21
-47.380810
31
-3.491883
12
-3.512851
22
-26.636276
32
-1.096413
13
-19.841759
23
-29.186844
33
-4.164247
0
3DFACE
8
0
70
0
10
-3.594015
20
-47.380810
30
-3.491883
11
16.208395
21
-48.684929
31
0.458293
12
13.631235
22
-26.787842
32
2.864274
13
-3.512851
23
-26.636276
33
-1.096413
0
3DFACE
8
0
70
0
10
16.208395
20
-48.684929
30
0.458293
11
35.405045
21
-50.939091
31
4.762947
12
32.070881
22
-29.590475
32
6.338284
13
13.631235
23
-26.787842
33
2.864274
0
3DFACE
8
0
70
0
10
35.405045
20
-50.939091
30
4.762947
11
52.416958
21
-51.971542
31
8.309172
12
50.897797
22
-33.127716
32
8.495279
13
32.070881
23
-29.590475
33
6.338284
0
3DFACE
8
0
70
0
10
52.416958
20
-51.971542
30
8.309172
11
66.750732
21
-50.301701
31
10.614530
12
68.495293
22
-34.890659
32
9.318589
13
50.897797
23
-33.127716
33
8.495279
0
3DFACE
8
0
70
0
10
66.750732
20
-50.301701
30
10.614530
11
79.511208
21
-46.279919
31
11.791182
12
83.888321
22
-33.396606
32
9.370196
13
68.495293
23
-34.890659
33
9.318589
0
3DFACE
8
0
70
0
10
79.511208
20
-46.279919
30
11.791182
11
92.774429
21
-41.923264
31
12.239321
12
97.474831
22
-29.031675
32
9.393289
13
83.888321
23
-33.396606
33
9.370196
0
3DFACE
8
0
70
0
10
92.774429
20
-41.923264
30
12.239321
11
108.356476
21
-39.728138
31
12.275543
12
110.713699
22
-23.800039
32
9.890484
13
97.474831
23
-29.031675
33
9.393289
0
3DFACE
8
0
70
0
10
108.356476
20
-39.728138
30
12.275543
11
127.743271
21
-42.306080
31
10.506124
12
126.230942
22
-21.483793
32
9.568683
13
110.713699
23
-23.800039
33
9.890484
0
3DFACE
8
0
70
0
10
127.743271
20
-42.306080
30
10.506124
11
148.852448
21
-47.483845
31
8.385304
12
144.236160
22
-22.710873
32
9.043357
13
126.230942
23
-21.483793
33
9.568683
0
3DFACE
8
0
70
0
10
148.852448
20
-47.483845
30
8.385304
11
170.355682
21
-53.179272
31
5.966463
12
164.410690
22
-26.770508
32
7.783260
13
144.236160
23
-22.710873
33
9.043357
0
3DFACE
8
0
70
0
10
170.355682
20
-53.179272
30
5.966463
11
191.343384
21
-57.492435
31
3.530926
12
186.069061
22
-32.037155
32
5.650669
13
164.410690
23
-26.770508
33
7.783260
0
3DFACE
8
0
70
0
10
191.343384
20
-57.492435
30
3.530926
11
211.009842
21
-59.193642
31
1.627221
12
208.006210
22
-36.607372
32
3.162809
13
186.069061
23
-32.037155
33
5.650669
0
3DFACE
8
0
70
0
10
211.009842
20
-59.193642
30
1.627221
11
228.484085
21
-57.990677
31
0.685793
12
228.460938
22
-38.989067
32
1.168326
13
208.006210
23
-36.607372
33
3.162809
0
3DFACE
8
0
70
0
10
-158.179001
20
-31.864103
30
-1.502964
11
-140.709610
21
-31.348047
31
-1.442826
12
-140.171280
22
-12.768680
32
-1.361933
13
-157.957748
23
-13.104649
33
-1.475314
0
3DFACE
8
0
70
0
10
-140.709610
20
-31.348047
30
-1.442826
11
-123.960373
21
-30.705870
31
-0.649780
12
-123.897346
22
-12.022712
32
-0.634546
13
-140.171280
23
-12.768680
33
-1.361933
0
3DFACE
8
0
70
0
10
-123.960373
20
-30.705870
30
-0.649780
11
-107.700417
21
-31.047831
31
0.180217
12
-108.861542
22
-11.858165
32
-0.023498
13
-123.897346
23
-12.022712
33
-0.634546
0
3DFACE
8
0
70
0
10
-107.700417
20
-31.047831
30
0.180217
11
-90.932625
21
-32.692154
31
-0.071094
12
-92.926903
22
-12.981753
32
-0.473144
13
-108.861542
23
-11.858165
33
-0.023498
0
3DFACE
8
0
70
0
10
-90.932625
20
-32.692154
30
-0.071094
11
-73.031685
21
-34.519600
31
-1.774166
12
-74.294960
22
-14.871578
32
-2.088317
13
-92.926903
23
-12.981753
33
-0.473144
0
3DFACE
8
0
70
0
10
-73.031685
20
-34.519600
30
-1.774166
11
-54.530716
21
-34.775848
31
-4.010457
12
-53.557556
22
-15.976599
32
-3.842582
13
-74.294960
23
-14.871578
33
-2.088317
0
3DFACE
8
0
70
0
10
-54.530716
20
-34.775848
30
-4.010457
11
-36.613636
21
-32.651623
31
-5.177105
12
-33.386341
22
-14.965164
32
-4.331590
13
-53.557556
23
-15.976599
33
-3.842582
0
3DFACE
8
0
70
0
10
-36.613636
20
-32.651623
30
-5.177105
11
-19.841759
21
-29.186844
31
-4.164247
12
-16.142462
22
-11.943208
32
-2.849264
13
-33.386341
23
-14.965164
33
-4.331590
0
3DFACE
8
0
70
0
10
-19.841759
20
-29.186844
30
-4.164247
11
-3.512851
21
-26.636276
31
-1.096413
12
-1.769789
22
-8.586520
32
0.139072
13
-16.142462
23
-11.943208
33
-2.849264
0
3DFACE
8
0
70
0
10
-3.512851
20
-26.636276
30
-1.096413
11
13.631235
21
-26.787842
31
2.864274
12
12.074853
22
-7.057676
32
3.401335
13
-1.769789
23
-8.586520
33
0.139072
0
3DFACE
8
0
70
0
10
13.631235
20
-26.787842
30
2.864274
11
32.070881
21
-29.590475
31
6.338284
12
27.947515
22
-8.534109
32
5.754543
13
12.074853
23
-7.057676
33
3.401335
0
3DFACE
8
0
70
0
10
32.070881
20
-29.590475
30
6.338284
11
50.897797
21
-33.127716
31
8.495279
12
46.592369
22
-12.397468
32
6.658019
13
27.947515
23
-8.534109
33
5.754543
0
3DFACE
8
0
70
0
10
50.897797
20
-33.127716
30
8.495279
11
68.495293
21
-34.890659
31
9.318589
12
66.605774
22
-16.560507
32
6.332336
13
46.592369
23
-12.397468
33
6.658019
0
3DFACE
8
0
70
0
10
68.495293
20
-34.890659
30
9.318589
11
83.888321
21
-33.396606
31
9.370196
12
85.708702
22
-18.645020
32
5.521766
13
66.605774
23
-16.560507
33
6.332336
0
3DFACE
8
0
70
0
10
83.888321
20
-33.396606
30
9.370196
11
97.474831
21
-29.031675
31
9.393289
12
102.354706
22
-17.291672
32
5.097060
13
85.708702
23
-18.645020
33
5.521766
0
3DFACE
8
0
70
0
10
97.474831
20
-29.031675
30
9.393289
11
110.713699
21
-23.800039
31
9.890484
12
116.482803
22
-12.758219
32
5.779836
13
102.354706
23
-17.291672
33
5.097060
0
3DFACE
8
0
70
0
10
110.713699
20
-23.800039
30
9.890484
11
126.230942
21
-21.483793
31
9.568683
12
129.779144
22
-7.437947
32
6.818851
13
116.482803
23
-12.758219
33
5.779836
0
3DFACE
8
0
70
0
10
126.230942
20
-21.483793
30
9.568683
11
144.236160
21
-22.710873
31
9.043357
12
144.304108
22
-4.142700
32
8.084408
13
129.779144
23
-7.437947
33
6.818851
0
3DFACE
8
0
70
0
10
144.236160
20
-22.710873
30
9.043357
11
164.410690
21
-26.770508
31
7.783260
12
161.241409
22
-3.965930
32
8.530240
13
144.304108
23
-4.142700
33
8.084408
0
3DFACE
8
0
70
0
10
164.410690
20
-26.770508
30
7.783260
11
186.069061
21
-32.037155
31
5.650669
12
181.053955
22
-6.658015
32
7.452224
13
161.241409
23
-3.965930
33
8.530240
0
3DFACE
8
0
70
0
10
186.069061
20
-32.037155
30
5.650669
11
208.006210
21
-36.607372
31
3.162809
12
203.073471
22
-10.891685
32
5.041327
13
181.053955
23
-6.658015
33
7.452224
0
3DFACE
8
0
70
0
10
208.006210
20
-36.607372
30
3.162809
11
228.460938
21
-38.989067
31
1.168326
12
225.285477
22
-14.906626
32
2.298552
13
203.073471
23
-10.891685
33
5.041327
0
3DFACE
8
0
70
0
10
-157.957748
20
-13.104649
30
-1.475314
11
-140.171280
21
-12.768680
31
-1.361933
12
-139.629364
22
5.709425
32
-1.336937
13
-157.830368
23
5.671645
33
-1.451551
0
3DFACE
8
0
70
0
10
-140.171280
20
-12.768680
30
-1.361933
11
-123.897346
21
-12.022712
31
-0.634546
12
-123.408638
22
6.356293
32
-0.720616
13
-139.629364
23
5.709425
33
-1.336937
0
3DFACE
8
0
70
0
10
-123.897346
20
-12.022712
30
-0.634546
11
-108.861542
21
-11.858165
31
-0.023498
12
-109.274849
22
7.040526
32
-0.262739
13
-123.408638
23
6.356293
33
-0.720616
0
3DFACE
8
0
70
0
10
-108.861542
20
-11.858165
30
-0.023498
11
-92.926903
21
-12.981753
31
-0.473144
12
-94.474068
22
6.855068
32
-0.712834
13
-109.274849
23
7.040526
33
-0.262739
0
3DFACE
8
0
70
0
10
-92.926903
20
-12.981753
30
-0.473144
11
-74.294960
21
-14.871578
31
-2.088317
12
-76.057594
22
5.514853
32
-2.039171
13
-94.474068
23
6.855068
33
-0.712834
0
3DFACE
8
0
70
0
10
-74.294960
20
-14.871578
30
-2.088317
11
-53.557556
21
-15.976599
31
-3.842582
12
-54.019554
22
3.818749
32
-3.316204
13
-76.057594
23
5.514853
33
-2.039171
0
3DFACE
8
0
70
0
10
-53.557556
20
-15.976599
30
-3.842582
11
-33.386341
21
-14.965164
31
-4.331590
12
-31.660250
22
3.150933
32
-3.463924
13
-54.019554
23
3.818749
33
-3.316204
0
3DFACE
8
0
70
0
10
-33.386341
20
-14.965164
30
-4.331590
11
-16.142462
21
-11.943208
31
-2.849264
12
-12.834366
22
4.412868
32
-2.099759
13
-31.660250
23
3.150933
33
-3.463924
0
3DFACE
8
0
70
0
10
-16.142462
20
-11.943208
30
-2.849264
11
-1.769789
21
-8.586520
31
0.139072
12
1.246546
22
7.239987
32
0.236155
13
-12.834366
23
4.412868
33
-2.099759
0
3DFACE
8
0
70
0
10
-1.769789
20
-8.586520
30
0.139072
11
12.074853
21
-7.057676
31
3.401335
12
12.823574
22
10.100813
32
2.539712
13
1.246546
23
7.239987
33
0.236155
0
3DFACE
8
0
70
0
10
12.074853
20
-7.057676
30
3.401335
11
27.947515
21
-8.534109
31
5.754543
12
25.626669
22
11.203737
32
3.977736
13
12.823574
23
10.100813
33
2.539712
0
3DFACE
8
0
70
0
10
27.947515
20
-8.534109
30
5.754543
11
46.592369
21
-12.397468
31
6.658019
12
42.123867
22
9.599291
32
4.233755
13
25.626669
23
11.203737
33
3.977736
0
3DFACE
8
0
70
0
10
46.592369
20
-12.397468
30
6.658019
11
66.605774
21
-16.560507
31
6.332336
12
62.164028
22
5.796595
32
3.511631
13
42.123867
23
9.599291
33
4.233755
0
3DFACE
8
0
70
0
10
66.605774
20
-16.560507
30
6.332336
11
85.708702
21
-18.645020
31
5.521766
12
83.606560
22
1.581250
32
2.422267
13
62.164028
23
5.796595
33
3.511631
0
3DFACE
8
0
70
0
10
85.708702
20
-18.645020
30
5.521766
11
102.354706
21
-17.291672
31
5.097060
12
103.898048
22
-0.938192
32
1.757285
13
83.606560
23
1.581250
33
2.422267
0
3DFACE
8
0
70
0
10
102.354706
20
-17.291672
30
5.097060
11
116.482803
21
-12.758219
31
5.779836
12
121.349167
22
-0.276692
32
2.381166
13
103.898048
23
-0.938192
33
1.757285
0
3DFACE
8
0
70
0
10
116.482803
20
-12.758219
30
5.779836
11
129.779144
21
-7.437947
31
6.818851
12
135.474731
22
3.941912
32
4.175044
13
121.349167
23
-0.276692
33
2.381166
0
3DFACE
8
0
70
0
10
129.779144
20
-7.437947
30
6.818851
11
144.304108
21
-4.142700
31
8.084408
12
148.518799
22
8.906119
32
6.684735
13
135.474731
23
3.941912
33
4.175044
0
3DFACE
8
0
70
0
10
144.304108
20
-4.142700
30
8.084408
11
161.241409
21
-3.965930
31
8.530240
12
162.608078
22
12.602446
32
8.583094
13
148.518799
23
8.906119
33
6.684735
0
3DFACE
8
0
70
0
10
161.241409
20
-3.965930
30
8.530240
11
181.053955
21
-6.658015
31
7.452224
12
179.505539
22
13.878443
32
8.660376
13
162.608078
23
12.602446
33
8.583094
0
3DFACE
8
0
70
0
10
181.053955
20
-6.658015
30
7.452224
11
203.073471
21
-10.891685
31
5.041327
12
199.701508
22
12.739102
32
6.653032
13
179.505539
23
13.878443
33
8.660376
0
3DFACE
8
0
70
0
10
203.073471
20
-10.891685
30
5.041327
11
225.285477
21
-14.906626
31
2.298552
12
221.704453
22
10.148679
32
3.487847
13
199.701508
23
12.739102
33
6.653032
0
3DFACE
8
0
70
0
10
-157.830368
20
5.671645
30
-1.451551
11
-139.629364
21
5.709425
31
-1.336937
12
-139.243027
22
24.223711
32
-1.349080
13
-157.833939
23
24.499842
33
-1.431860
0
3DFACE
8
0
70
0
10
-139.629364
20
5.709425
30
-1.336937
11
-123.408638
21
6.356293
31
-0.720616
12
-122.631607
22
24.547052
32
-0.862121
13
-139.243027
23
24.223711
33
-1.349080
0
3DFACE
8
0
70
0
10
-123.408638
20
6.356293
30
-0.720616
11
-109.274849
21
7.040526
31
-0.262739
12
-108.789291
22
25.496048
32
-0.502055
13
-122.631607
23
24.547052
33
-0.862121
0
3DFACE
8
0
70
0
10
-109.274849
20
7.040526
30
-0.262739
11
-94.474068
21
6.855068
31
-0.712834
12
-95.047287
22
26.292831
32
-0.834230
13
-108.789291
23
25.496048
33
-0.502055
0
3DFACE
8
0
70
0
10
-94.474068
20
6.855068
30
-0.712834
11
-76.057594
21
5.514853
31
-2.039171
12
-77.714081
22
26.000694
32
-1.788263
13
-95.047287
23
26.292831
33
-0.834230
0
3DFACE
8
0
70
0
10
-76.057594
20
5.514853
30
-2.039171
11
-54.019554
21
3.818749
31
-3.316204
12
-55.782879
22
24.413160
32
-2.653391
13
-77.714081
23
26.000694
33
-1.788263
0
3DFACE
8
0
70
0
10
-54.019554
20
3.818749
30
-3.316204
11
-31.660250
21
3.150933
31
-3.463924
12
-32.153442
22
22.402576
32
-2.702646
13
-55.782879
23
24.413160
33
-2.653391
0
3DFACE
8
0
70
0
10
-31.660250
20
3.150933
30
-3.463924
11
-12.834366
21
4.412868
31
-2.099759
12
-11.295496
22
21.408489
32
-1.777786
13
-32.153442
23
22.402576
33
-2.702646
0
3DFACE
8
0
70
0
10
-12.834366
20
4.412868
30
-2.099759
11
1.246546
21
7.239987
31
0.236155
12
4.301265
22
22.434013
32
-0.317616
13
-11.295496
23
21.408489
33
-1.777786
0
3DFACE
8
0
70
0
10
1.246546
20
7.239987
30
0.236155
11
12.823574
21
10.100813
31
2.539712
12
15.777723
22
25.276936
32
1.053763
13
4.301265
23
22.434013
33
-0.317616
0
3DFACE
8
0
70
0
10
12.823574
20
10.100813
30
2.539712
11
25.626669
21
11.203737
31
3.977736
12
26.675207
22
28.532753
32
1.903571
13
15.777723
23
25.276936
33
1.053763
0
3DFACE
8
0
70
0
10
25.626669
20
11.203737
30
3.977736
11
42.123867
21
9.599291
31
4.233755
12
40.341553
22
30.373466
32
2.078682
13
26.675207
23
28.532753
33
1.903571
0
3DFACE
8
0
70
0
10
42.123867
20
9.599291
30
4.233755
11
62.164028
21
5.796595
31
3.511631
12
58.110691
22
29.615841
32
1.652252
13
40.341553
23
30.373466
33
2.078682
0
3DFACE
8
0
70
0
10
62.164028
20
5.796595
30
3.511631
11
83.606560
21
1.581250
31
2.422267
12
79.086998
22
26.390743
32
0.904635
13
58.110691
23
29.615841
33
1.652252
0
3DFACE
8
0
70
0
10
83.606560
20
1.581250
30
2.422267
11
103.898048
21
-0.938192
31
1.757285
12
101.094818
22
22.116501
32
0.425028
13
79.086998
23
26.390743
33
0.904635
0
3DFACE
8
0
70
0
10
103.898048
20
-0.938192
30
1.757285
11
121.349167
21
-0.276692
31
2.381166
12
121.785912
22
18.788048
32
1.067200
13
101.094818
23
22.116501
33
0.425028
0
3DFACE
8
0
70
0
10
121.349167
20
-0.276692
30
2.381166
11
135.474731
21
3.941912
31
4.175044
12
138.885315
22
18.772383
32
3.083415
13
121.785912
23
18.788048
33
1.067200
0
3DFACE
8
0
70
0
10
135.474731
20
3.941912
30
4.175044
11
148.518799
21
8.906119
31
6.684735
12
153.186218
22
21.350384
32
6.085043
13
138.885315
23
18.772383
33
3.083415
0
3DFACE
8
0
70
0
10
148.518799
20
8.906119
30
6.684735
11
162.608078
21
12.602446
31
8.583094
12
166.657837
22
25.085041
32
8.698367
13
153.186218
23
21.350384
33
6.085043
0
3DFACE
8
0
70
0
10
162.608078
20
12.602446
30
8.583094
11
179.505539
21
13.878443
31
8.660376
12
181.710785
22
28.435711
32
9.404690
13
166.657837
23
25.085041
33
8.698367
0
3DFACE
8
0
70
0
10
179.505539
20
13.878443
30
8.660376
11
199.701508
21
12.739102
31
6.653032
12
199.867294
22
30.383045
32
7.582060
13
181.710785
23
28.435711
33
9.404690
0
3DFACE
8
0
70
0
10
199.701508
20
12.739102
30
6.653032
11
221.704453
21
10.148679
31
3.487847
12
220.485809
22
30.759726
32
4.083349
13
199.867294
23
30.383045
33
7.582060
0
3DFACE
8
0
70
0
10
-157.833939
20
24.499842
30
-1.431860
11
-139.243027
21
24.223711
31
-1.349080
12
-139.199890
22
42.907417
32
-1.377032
13
-158.060593
23
43.394432
33
-1.414309
0
3DFACE
8
0
70
0
10
-139.243027
20
24.223711
30
-1.349080
11
-122.631607
21
24.547052
31
-0.862121
12
-121.896530
22
42.770847
32
-1.021696
13
-139.199890
23
42.907417
33
-1.377032
0
3DFACE
8
0
70
0
10
-122.631607
20
24.547052
30
-0.862121
11
-108.789291
21
25.496048
31
-0.502055
12
-107.644341
22
43.578941
32
-0.732216
13
-121.896530
23
42.770847
33
-1.021696
0
3DFACE
8
0
70
0
10
-108.789291
20
25.496048
30
-0.502055
11
-95.047287
21
26.292831
31
-0.834230
12
-94.460365
22
44.995438
32
-0.911015
13
-107.644341
23
43.578941
33
-0.732216
0
3DFACE
8
0
70
0
10
-95.047287
20
26.292831
30
-0.834230
11
-77.714081
21
26.000694
31
-1.788263
12
-78.563576
22
45.869629
32
-1.494220
13
-94.460365
23
44.995438
33
-0.911015
0
3DFACE
8
0
70
0
10
-77.714081
20
26.000694
30
-1.788263
11
-55.782879
21
24.413160
31
-2.653391
12
-57.995121
22
45.151558
32
-2.005554
13
-78.563576
23
45.869629
33
-1.494220
0
3DFACE
8
0
70
0
10
-55.782879
20
24.413160
30
-2.653391
11
-32.153442
21
22.402576
31
-2.702646
12
-34.521420
22
42.837929
32
-2.036363
13
-57.995121
23
45.151558
33
-2.005554
0
3DFACE
8
0
70
0
10
-32.153442
20
22.402576
30
-2.702646
11
-11.295496
21
21.408489
31
-1.777786
12
-12.185146
22
40.164711
32
-1.588610
13
-34.521420
23
42.837929
33
-2.036363
0
3DFACE
8
0
70
0
10
-11.295496
20
21.408489
30
-1.777786
11
4.301265
21
22.434013
31
-0.317616
12
5.848582
22
38.876949
32
-0.958899
13
-12.185146
23
40.164711
33
-1.588610
0
3DFACE
8
0
70
0
10
4.301265
20
22.434013
30
-0.317616
11
15.777723
21
25.276936
31
1.053763
12
19.324963
22
40.101379
32
-0.397329
13
5.848582
23
38.876949
33
-0.958899
0
3DFACE
8
0
70
0
10
15.777723
20
25.276936
30
1.053763
11
26.675207
21
28.532753
31
1.903571
12
30.540949
22
43.594463
32
0.038896
13
19.324963
23
40.101379
33
-0.397329
0
3DFACE
8
0
70
0
10
26.675207
20
28.532753
30
1.903571
11
40.341553
21
30.373466
31
2.078682
12
42.521229
22
47.837944
32
0.360728
13
30.540949
23
43.594463
33
0.038896
0
3DFACE
8
0
70
0
10
40.341553
20
30.373466
30
2.078682
11
58.110691
21
29.615841
31
1.652252
12
57.374847
22
50.860985
32
0.521163
13
42.521229
23
47.837944
33
0.360728
0
3DFACE
8
0
70
0
10
58.110691
20
29.615841
30
1.652252
11
79.086998
21
26.390743
31
0.904635
12
75.630692
22
51.251431
32
0.519189
13
57.374847
23
50.860985
33
0.521163
0
3DFACE
8
0
70
0
10
79.086998
20
26.390743
30
0.904635
11
101.094818
21
22.116501
31
0.425028
12
96.404198
22
48.819908
32
0.672172
13
75.630692
23
51.251431
33
0.519189
0
3DFACE
8
0
70
0
10
101.094818
20
22.116501
30
0.425028
11
121.785912
21
18.788048
31
1.067200
12
117.895302
22
44.600151
32
1.704135
13
96.404198
23
48.819908
33
0.672172
0
3DFACE
8
0
70
0
10
121.785912
20
18.788048
30
1.067200
11
138.885315
21
18.772383
31
3.083415
12
137.604233
22
40.653683
32
3.791552
13
117.895302
23
44.600151
33
1.704135
0
3DFACE
8
0
70
0
10
138.885315
20
18.772383
30
3.083415
11
153.186218
21
21.350384
31
6.085043
12
154.466064
22
38.822495
32
6.738337
13
137.604233
23
40.653683
33
3.791552
0
3DFACE
8
0
70
0
10
153.186218
20
21.350384
30
6.085043
11
166.657837
21
25.085041
31
8.698367
12
169.513062
22
39.209316
32
9.251317
13
154.466064
23
38.822495
33
6.738337
0
3DFACE
8
0
70
0
10
166.657837
20
25.085041
30
8.698367
11
181.710785
21
28.435711
31
9.404690
12
184.892883
22
41.118279
32
9.768510
13
169.513062
23
39.209316
33
9.251317
0
3DFACE
8
0
70
0
10
181.710785
20
28.435711
30
9.404690
11
199.867294
21
30.383045
31
7.582060
12
202.403595
22
43.584351
32
7.644800
13
184.892883
23
41.118279
33
9.768510
0
3DFACE
8
0
70
0
10
199.867294
20
30.383045
30
7.582060
11
220.485809
21
30.759726
31
4.083349
12
221.949631
22
45.732700
32
3.722311
13
202.403595
23
43.584351
33
7.644800
0
3DFACE
8
0
70
0
10
-158.060593
20
43.394432
30
-1.414309
11
-139.199890
21
42.907417
31
-1.377032
12
-140.178253
22
61.823906
32
-1.402980
13
-159.163162
23
62.337269
33
-1.396685
0
3DFACE
8
0
70
0
10
-139.199890
20
42.907417
30
-1.377032
11
-121.896530
21
42.770847
31
-1.021696
12
-121.925720
22
61.269581
32
-1.171203
13
-140.178253
23
61.823906
33
-1.402980
0
3DFACE
8
0
70
0
10
-121.896530
20
42.770847
30
-1.021696
11
-107.644341
21
43.578941
31
-0.732216
12
-106.537506
22
61.597912
32
-0.950248
13
-121.925720
23
61.269581
33
-1.171203
0
3DFACE
8
0
70
0
10
-107.644341
20
43.578941
30
-0.732216
11
-94.460365
21
44.995438
31
-0.911015
12
-93.063492
22
63.033962
32
-1.003743
13
-106.537506
23
61.597912
33
-0.950248
0
3DFACE
8
0
70
0
10
-94.460365
20
44.995438
30
-0.911015
11
-78.563576
21
45.869629
31
-1.494220
12
-78.246712
22
64.694389
32
-1.275693
13
-93.063492
23
63.033962
33
-1.003743
0
3DFACE
8
0
70
0
10
-78.563576
20
45.869629
30
-1.494220
11
-57.995121
21
45.151558
31
-2.005554
12
-59.594452
22
65.179359
32
-1.476064
13
-78.246712
23
64.694389
33
-1.275693
0
3DFACE
8
0
70
0
10
-57.995121
20
45.151558
30
-2.005554
11
-34.521420
21
42.837929
31
-2.036363
12
-37.562870
22
63.670246
32
-1.440945
13
-59.594452
23
65.179359
33
-1.476064
0
3DFACE
8
0
70
0
10
-34.521420
20
42.837929
30
-2.036363
11
-12.185146
21
40.164711
31
-1.588610
12
-15.030959
22
60.645325
32
-1.301701
13
-37.562870
23
63.670246
33
-1.440945
0
3DFACE
8
0
70
0
10
-12.185146
20
40.164711
30
-1.588610
11
5.848582
21
38.876949
31
-0.958899
12
5.020063
22
57.685654
32
-1.275159
13
-15.030959
23
60.645325
33
-1.301701
0
3DFACE
8
0
70
0
10
5.848582
20
38.876949
30
-0.958899
11
19.324963
21
40.101379
31
-0.397329
12
21.396400
22
56.555374
32
-1.363737
13
5.020063
23
57.685654
33
-1.275159
0
3DFACE
8
0
70
0
10
19.324963
20
40.101379
30
-0.397329
11
30.540949
21
43.594463
31
0.038896
12
34.913475
22
58.202953
32
-1.336889
13
21.396400
23
56.555374
33
-1.363737
0
3DFACE
8
0
70
0
10
30.540949
20
43.594463
30
0.038896
11
42.521229
21
47.837944
31
0.360728
12
47.422466
22
62.268250
32
-0.993310
13
34.913475
23
58.202953
33
-1.336889
0
3DFACE
8
0
70
0
10
42.521229
20
47.837944
30
0.360728
11
57.374847
21
50.860985
31
0.521163
12
60.749371
22
67.287743
32
-0.355117
13
47.422466
23
62.268250
33
-0.993310
0
3DFACE
8
0
70
0
10
57.374847
20
50.860985
30
0.521163
11
75.630692
21
51.251431
31
0.519189
12
76.097328
22
71.387840
32
0.457245
13
60.749371
23
67.287743
33
-0.355117
0
3DFACE
8
0
70
0
10
75.630692
20
51.251431
30
0.519189
11
96.404198
21
48.819908
31
0.672172
12
93.796654
22
73.073334
32
1.545346
13
76.097328
23
71.387840
33
0.457245
0
3DFACE
8
0
70
0
10
96.404198
20
48.819908
30
0.672172
11
117.895302
21
44.600151
31
1.704135
12
113.211235
22
71.766869
32
3.386686
13
93.796654
23
73.073334
33
1.545346
0
3DFACE
8
0
70
0
10
117.895302
20
44.600151
30
1.704135
11
137.604233
21
40.653683
31
3.791552
12
133.064178
22
67.339111
32
5.687339
13
113.211235
23
71.766869
33
3.386686
0
3DFACE
8
0
70
0
10
137.604233
20
40.653683
30
3.791552
11
154.466064
21
38.822495
31
6.738337
12
151.459854
22
62.774818
32
8.329152
13
133.064178
23
67.339111
33
5.687339
0
3DFACE
8
0
70
0
10
154.466064
20
38.822495
30
6.738337
11
169.513062
21
39.209316
31
9.251317
12
168.554321
22
59.475250
32
10.138899
13
151.459854
23
62.774818
33
8.329152
0
3DFACE
8
0
70
0
10
169.513062
20
39.209316
30
9.251317
11
184.892883
21
41.118279
31
9.768510
12
185.708572
22
58.054703
32
9.775681
13
168.554321
23
59.475250
33
10.138899
0
3DFACE
8
0
70
0
10
184.892883
20
41.118279
30
9.768510
11
202.403595
21
43.584351
31
7.644800
12
204.223877
22
58.335705
32
6.814428
13
185.708572
23
58.054703
33
9.775681
0
3DFACE
8
0
70
0
10
202.403595
20
43.584351
30
7.644800
11
221.949631
21
45.732700
31
3.722311
12
223.875717
22
59.570087
32
2.301079
13
204.223877
23
58.335705
33
6.814428
0
3DFACE
8
0
70
0
10
-159.163162
20
62.337269
30
-1.396685
11
-140.178253
21
61.823906
31
-1.402980
12
-141.668961
22
80.922768
32
-1.414984
13
-160.176788
23
81.282349
33
-1.377606
0
3DFACE
8
0
70
0
10
-140.178253
20
61.823906
30
-1.402980
11
-121.925720
21
61.269581
31
-1.171203
12
-123.078262
22
80.170738
32
-1.289714
13
-141.668961
23
80.922768
33
-1.414984
0
3DFACE
8
0
70
0
10
-121.925720
20
61.269581
30
-1.171203
11
-106.537506
21
61.597912
31
-0.950248
12
-106.362785
22
79.942047
32
-1.146282
13
-123.078262
23
80.170738
33
-1.289714
0
3DFACE
8
0
70
0
10
-106.537506
20
61.597912
30
-0.950248
11
-93.063492
21
63.033962
31
-1.003743
12
-91.675919
22
80.878006
32
-1.137719
13
-106.362785
23
79.942047
33
-1.146282
0
3DFACE
8
0
70
0
10
-93.063492
20
63.033962
30
-1.003743
11
-78.246712
21
64.694389
31
-1.275693
12
-77.016464
22
82.626167
32
-1.197843
13
-91.675919
23
80.878006
33
-1.137719
0
3DFACE
8
0
70
0
10
-78.246712
20
64.694389
30
-1.275693
11
-59.594452
21
65.179359
31
-1.476064
12
-59.951984
22
83.989044
32
-1.142582
13
-77.016464
23
82.626167
33
-1.197843
0
3DFACE
8
0
70
0
10
-59.594452
20
65.179359
30
-1.476064
11
-37.562870
21
63.670246
31
-1.440945
12
-39.918171
22
83.780708
32
-0.956064
13
-59.951984
23
83.989044
33
-1.142582
0
3DFACE
8
0
70
0
10
-37.562870
20
63.670246
30
-1.440945
11
-15.030959
21
60.645325
31
-1.301701
12
-18.458668
22
81.679085
32
-0.871977
13
-39.918171
23
83.780708
33
-0.956064
0
3DFACE
8
0
70
0
10
-15.030959
20
60.645325
30
-1.301701
11
5.020063
21
57.685654
31
-1.275159
12
2.258194
22
78.476555
32
-1.119030
13
-18.458668
23
81.679085
33
-0.871977
0
3DFACE
8
0
70
0
10
5.020063
20
57.685654
30
-1.275159
11
21.396400
21
56.555374
31
-1.363737
12
20.888704
22
75.657555
32
-1.620134
13
2.258194
23
78.476555
33
-1.119030
0
3DFACE
8
0
70
0
10
21.396400
20
56.555374
30
-1.363737
11
34.913475
21
58.202953
31
-1.336889
12
37.291821
22
74.657455
32
-1.995460
13
20.888704
23
75.657555
33
-1.620134
0
3DFACE
8
0
70
0
10
34.913475
20
58.202953
30
-1.336889
11
47.422466
21
62.268250
31
-0.993310
12
52.091236
22
76.225800
32
-1.859146
13
37.291821
23
74.657455
33
-1.995460
0
3DFACE
8
0
70
0
10
47.422466
20
62.268250
30
-0.993310
11
60.749371
21
67.287743
31
-0.355117
12
66.170441
22
80.132172
32
-1.074536
13
52.091236
23
76.225800
33
-1.859146
0
3DFACE
8
0
70
0
10
60.749371
20
67.287743
30
-0.355117
11
76.097328
21
71.387840
31
0.457245
12
80.415413
22
85.254601
32
0.292163
13
66.170441
23
80.132172
33
-1.074536
0
3DFACE
8
0
70
0
10
76.097328
20
71.387840
30
0.457245
11
93.796654
21
73.073334
31
1.545346
12
95.520821
22
89.976425
32
2.230317
13
80.415413
23
85.254601
33
0.292163
0
3DFACE
8
0
70
0
10
93.796654
20
73.073334
30
1.545346
11
113.211235
21
71.766869
31
3.386686
12
111.717926
22
92.753853
32
4.923088
13
95.520821
23
89.976425
33
2.230317
0
3DFACE
8
0
70
0
10
113.211235
20
71.766869
30
3.386686
11
133.064178
21
67.339111
31
5.687339
12
129.253143
22
91.436943
32
7.440405
13
111.717926
23
92.753853
33
4.923088
0
3DFACE
8
0
70
0
10
133.064178
20
67.339111
30
5.687339
11
151.459854
21
62.774818
31
8.329152
12
146.958344
22
88.009743
32
9.566008
13
129.253143
23
91.436943
33
7.440405
0
3DFACE
8
0
70
0
10
151.459854
20
62.774818
30
8.329152
11
168.554321
21
59.475250
31
10.138899
12
164.820572
22
84.019005
32
10.266811
13
146.958344
23
88.009743
33
9.566008
0
3DFACE
8
0
70
0
10
168.554321
20
59.475250
30
10.138899
11
185.708572
21
58.054703
31
9.775681
12
183.533417
22
80.733299
32
8.606019
13
164.820572
23
84.019005
33
10.266811
0
3DFACE
8
0
70
0
10
185.708572
20
58.054703
30
9.775681
11
204.223877
21
58.335705
31
6.814428
12
203.532440
22
78.713806
32
4.652079
13
183.533417
23
80.733299
33
8.606019
0
3DFACE
8
0
70
0
10
204.223877
20
58.335705
30
6.814428
11
223.875717
21
59.570087
31
2.301079
12
223.968918
22
77.740059
32
-0.217747
13
203.532440
23
78.713806
33
4.652079
0
3DFACE
8
0
70
0
10
-160.176788
20
81.282349
30
-1.377606
11
-141.668961
21
80.922768
31
-1.414984
12
-142.300522
22
100.053879
32
-1.408922
13
-160.384949
23
100.178741
33
-1.357728
0
3DFACE
8
0
70
0
10
-141.668961
20
80.922768
30
-1.414984
11
-123.078262
21
80.170738
31
-1.289714
12
-123.758606
22
99.385094
32
-1.365110
13
-142.300522
23
100.053879
33
-1.408922
0
3DFACE
8
0
70
0
10
-123.078262
20
80.170738
30
-1.289714
11
-106.362785
21
79.942047
31
-1.146282
12
-106.474648
22
98.821465
32
-1.302998
13
-123.758606
23
99.385094
33
-1.365110
0
3DFACE
8
0
70
0
10
-106.362785
20
79.942047
30
-1.146282
11
-91.675919
21
80.878006
31
-1.137719
12
-90.750900
22
99.106941
32
-1.299871
13
-106.474648
23
98.821465
33
-1.302998
0
3DFACE
8
0
70
0
10
-91.675919
20
80.878006
30
-1.137719
11
-77.016464
21
82.626167
31
-1.197843
12
-75.519615
22
100.346245
32
-1.268009
13
-90.750900
23
99.106941
33
-1.299871
0
3DFACE
8
0
70
0
10
-77.016464
20
82.626167
30
-1.197843
11
-59.951984
21
83.989044
31
-1.142582
12
-59.221642
22
101.844704
32
-1.053401
13
-75.519615
23
100.346245
33
-1.268009
0
3DFACE
8
0
70
0
10
-59.951984
20
83.989044
30
-1.142582
11
-39.918171
21
83.780708
31
-0.956064
12
-40.890156
22
102.580353
32
-0.686185
13
-59.221642
23
101.844704
33
-1.053401
0
3DFACE
8
0
70
0
10
-39.918171
20
83.780708
30
-0.956064
11
-18.458668
21
81.679085
31
-0.871977
12
-21.054384
22
101.857925
32
-0.446869
13
-40.890156
23
102.580353
33
-0.686185
0
3DFACE
8
0
70
0
10
-18.458668
20
81.679085
30
-0.871977
11
2.258194
21
78.476555
31
-1.119030
12
-0.981078
22
99.677773
32
-0.624965
13
-21.054384
23
101.857925
33
-0.446869
0
3DFACE
8
0
70
0
10
2.258194
20
78.476555
30
-1.119030
11
20.888704
21
75.657555
31
-1.620134
12
18.378553
22
96.699692
32
-1.208621
13
-0.981078
23
99.677773
33
-0.624965
0
3DFACE
8
0
70
0
10
20.888704
20
75.657555
30
-1.620134
11
37.291821
21
74.657455
31
-1.995460
12
36.692879
22
93.958305
32
-1.828453
13
18.378553
23
96.699692
33
-1.208621
0
3DFACE
8
0
70
0
10
37.291821
20
74.657455
30
-1.995460
11
52.091236
21
76.225800
31
-1.859146
12
53.955246
22
92.505173
32
-1.999195
13
36.692879
23
93.958305
33
-1.828453
0
3DFACE
8
0
70
0
10
52.091236
20
76.225800
30
-1.859146
11
66.170441
21
80.132172
31
-1.074536
12
70.205193
22
93.053978
32
-1.401388
13
53.955246
23
92.505173
33
-1.999195
0
3DFACE
8
0
70
0
10
66.170441
20
80.132172
30
-1.074536
11
80.415413
21
85.254601
31
0.292163
12
85.532661
22
95.688568
32
0.046459
13
70.205193
23
93.053978
33
-1.401388
0
3DFACE
8
0
70
0
10
80.415413
20
85.254601
30
0.292163
11
95.520821
21
89.976425
31
2.230317
12
100.164070
22
99.753937
32
2.305505
13
85.532661
23
95.688568
33
0.046459
0
3DFACE
8
0
70
0
10
95.520821
20
89.976425
30
2.230317
11
111.717926
21
92.753853
31
4.923088
12
114.412605
22
104.050232
32
5.283604
13
100.164070
23
99.753937
33
2.305505
0
3DFACE
8
0
70
0
10
111.717926
20
92.753853
30
4.923088
11
129.253143
21
91.436943
31
7.440405
12
129.206009
22
106.530800
32
7.579655
13
114.412605
23
104.050232
33
5.283604
0
3DFACE
8
0
70
0
10
129.253143
20
91.436943
30
7.440405
11
146.958344
21
88.009743
31
9.566008
12
144.929688
22
106.954941
32
8.826334
13
129.206009
23
106.530800
33
7.579655
0
3DFACE
8
0
70
0
10
146.958344
20
88.009743
30
9.566008
11
164.820572
21
84.019005
31
10.266811
12
162.045242
22
105.955994
32
8.219256
13
144.929688
23
106.954941
33
8.826334
0
3DFACE
8
0
70
0
10
164.820572
20
84.019005
30
10.266811
11
183.533417
21
80.733299
31
8.606019
12
181.003815
22
104.348984
32
5.365935
13
162.045242
23
105.955994
33
8.219256
0
3DFACE
8
0
70
0
10
183.533417
20
80.733299
30
8.606019
11
203.532440
21
78.713806
31
4.652079
12
201.539749
22
102.619080
32
0.902021
13
181.003815
23
104.348984
33
5.365935
0
3DFACE
8
0
70
0
10
203.532440
20
78.713806
30
4.652079
11
223.968918
21
77.740059
31
-0.217747
12
222.203110
22
100.772346
32
-3.550368
13
201.539749
23
102.619080
33
0.902021
0
3DFACE
8
0
70
0
10
-160.384949
20
100.178741
30
-1.357728
11
-142.300522
21
100.053879
31
-1.408922
12
-142.743500
22
119.054535
32
-1.385890
13
-160.458786
23
119.004227
33
-1.338084
0
3DFACE
8
0
70
0
10
-142.300522
20
100.053879
30
-1.408922
11
-123.758606
21
99.385094
31
-1.365110
12
-124.346878
22
118.637657
32
-1.393249
13
-142.743500
23
119.054535
33
-1.385890
0
3DFACE
8
0
70
0
10
-123.758606
20
99.385094
30
-1.365110
11
-106.474648
21
98.821465
31
-1.302998
12
-106.657997
22
118.088188
32
-1.401942
13
-124.346878
23
118.637657
33
-1.393249
0
3DFACE
8
0
70
0
10
-106.474648
20
98.821465
30
-1.302998
11
-90.750900
21
99.106941
31
-1.299871
12
-90.212784
22
117.986870
32
-1.449979
13
-106.657997
23
118.088188
33
-1.401942
0
3DFACE
8
0
70
0
10
-90.750900
20
99.106941
30
-1.299871
11
-75.519615
21
100.346245
31
-1.268009
12
-74.338524
22
118.599152
32
-1.436827
13
-90.212784
23
117.986870
33
-1.449979
0
3DFACE
8
0
70
0
10
-75.519615
20
100.346245
30
-1.268009
11
-59.221642
21
101.844704
31
-1.053401
12
-58.145760
22
119.648933
32
-1.196421
13
-74.338524
23
118.599152
33
-1.436827
0
3DFACE
8
0
70
0
10
-59.221642
20
101.844704
30
-1.053401
11
-40.890156
21
102.580353
31
-0.686185
12
-40.768822
22
120.534836
32
-0.722255
13
-58.145760
23
119.648933
33
-1.196421
0
3DFACE
8
0
70
0
10
-40.890156
20
102.580353
30
-0.686185
11
-21.054384
21
101.857925
31
-0.446869
12
-22.252958
22
120.698212
32
-0.264100
13
-40.768822
23
120.534836
33
-0.722255
0
3DFACE
8
0
70
0
10
-21.054384
20
101.857925
30
-0.446869
11
-0.981078
21
99.677773
31
-0.624965
12
-3.316050
22
119.832596
32
-0.153397
13
-22.252958
23
120.698212
33
-0.264100
0
3DFACE
8
0
70
0
10
-0.981078
20
99.677773
30
-0.624965
11
18.378553
21
96.699692
31
-1.208621
12
15.499022
22
117.907082
32
-0.508927
13
-3.316050
23
119.832596
33
-0.153397
0
3DFACE
8
0
70
0
10
18.378553
20
96.699692
30
-1.208621
11
36.692879
21
93.958305
31
-1.828453
12
34.093605
22
115.154266
32
-1.102089
13
15.499022
23
117.907082
33
-0.508927
0
3DFACE
8
0
70
0
10
36.692879
20
93.958305
30
-1.828453
11
53.955246
21
92.505173
31
-1.999195
12
52.500904
22
112.086723
32
-1.490066
13
34.093605
23
115.154266
33
-1.102089
0
3DFACE
8
0
70
0
10
53.955246
20
92.505173
30
-1.999195
11
70.205193
21
93.053978
31
-1.401388
12
70.535759
22
109.446106
32
-1.269571
13
52.500904
23
112.086723
33
-1.490066
0
3DFACE
8
0
70
0
10
70.205193
20
93.053978
30
-1.401388
11
85.532661
21
95.688568
31
0.046459
12
87.776093
22
107.989525
32
-0.243254
13
70.535759
23
109.446106
33
-1.269571
0
3DFACE
8
0
70
0
10
85.532661
20
95.688568
30
0.046459
11
100.164070
21
99.753937
31
2.305505
12
103.808502
22
108.186638
32
1.550478
13
87.776093
23
107.989525
33
-0.243254
0
3DFACE
8
0
70
0
10
100.164070
20
99.753937
30
2.305505
11
114.412605
21
104.050232
31
5.283604
12
118.496727
22
110.035690
32
3.826740
13
103.808502
23
108.186638
33
1.550478
0
3DFACE
8
0
70
0
10
114.412605
20
104.050232
30
5.283604
11
129.206009
21
106.530800
31
7.579655
12
132.394592
22
113.762299
32
5.177348
13
118.496727
23
110.035690
33
3.826740
0
3DFACE
8
0
70
0
10
129.206009
20
106.530800
30
7.579655
11
144.929688
21
106.954941
31
8.826334
12
146.953720
22
117.401817
32
5.189793
13
132.394592
23
113.762299
33
5.177348
0
3DFACE
8
0
70
0
10
144.929688
20
106.954941
30
8.826334
11
162.045242
21
105.955994
31
8.219256
12
163.121384
22
120.498466
32
3.419981
13
146.953720
23
117.401817
33
5.189793
0
3DFACE
8
0
70
0
10
162.045242
20
105.955994
30
8.219256
11
181.003815
21
104.348984
31
5.365935
12
181.344574
22
122.779739
32
0.041393
13
163.121384
23
120.498466
33
3.419981
0
3DFACE
8
0
70
0
10
181.003815
20
104.348984
30
5.365935
11
201.539749
21
102.619080
31
0.902021
12
201.049774
22
123.908615
32
-3.899270
13
181.344574
23
122.779739
33
0.041393
0
3DFACE
8
0
70
0
10
201.539749
20
102.619080
30
0.902021
11
222.203110
21
100.772346
31
-3.550368
12
220.645325
22
123.571396
32
-6.838017
13
201.049774
23
123.908615
33
-3.899270
0
3DFACE
8
0
70
0
10
-160.427353
20
-125.993004
30
-1.386255
11
-160.535248
21
-107.157013
31
-1.480531
12
-143.060883
22
-107.322441
32
-2.051348
13
-142.745575
23
-126.325119
33
-1.994736
0
3DFACE
8
0
70
0
10
-142.745575
20
-126.325119
30
-1.994736
11
-143.060883
21
-107.322441
31
-2.051348
12
-124.515900
22
-107.673859
32
-2.136801
13
-124.468040
23
-126.851128
33
-2.509573
0
3DFACE
8
0
70
0
10
-124.468040
20
-126.851128
30
-2.509573
11
-124.515900
21
-107.673859
31
-2.136801
12
-106.377434
22
-107.678841
32
-1.086160
13
-107.227196
23
-126.785751
33
-2.000518
0
3DFACE
8
0
70
0
10
-107.227196
20
-126.785751
30
-2.000518
11
-106.377434
21
-107.678841
31
-1.086160
12
-89.988976
22
-106.869591
32
0.687854
13
-91.701607
23
-125.703278
33
-0.327599
0
3DFACE
8
0
70
0
10
-91.701607
20
-125.703278
30
-0.327599
11
-89.988976
21
-106.869591
31
0.687854
12
-74.886162
22
-105.557076
32
1.891914
13
-76.321381
23
-124.201836
33
1.581972
0
3DFACE
8
0
70
0
10
-76.321381
20
-124.201836
30
1.581972
11
-74.886162
21
-105.557076
31
1.891914
12
-58.889275
22
-104.869736
32
1.326896
13
-58.664291
23
-123.528656
33
2.376659
0
3DFACE
8
0
70
0
10
-58.664291
20
-123.528656
30
2.376659
11
-58.889275
21
-104.869736
31
1.326896
12
-40.014271
22
-105.860115
32
-1.187119
13
-37.959240
23
-124.400948
33
1.263525
0
3DFACE
8
0
70
0
10
-37.959240
20
-124.400948
30
1.263525
11
-40.014271
21
-105.860115
31
-1.187119
12
-18.802679
22
-108.409210
32
-4.647139
13
-16.308434
23
-126.175781
33
-1.456480
0
3DFACE
8
0
70
0
10
-16.308434
20
-126.175781
30
-1.456480
11
-18.802679
21
-108.409210
31
-4.647139
12
1.716647
22
-111.033104
32
-7.510491
13
2.769141
23
-127.309212
33
-4.639977
0
3DFACE
8
0
70
0
10
2.769141
20
-127.309212
30
-4.639977
11
1.716647
21
-111.033104
31
-7.510491
12
18.577715
22
-111.970047
32
-8.606097
13
17.488482
23
-126.824654
33
-7.052073
0
3DFACE
8
0
70
0
10
17.488482
20
-126.824654
30
-7.052073
11
18.577715
21
-111.970047
31
-8.606097
12
31.541746
22
-110.724464
32
-7.693876
13
29.623020
23
-125.447319
33
-8.031876
0
3DFACE
8
0
70
0
10
29.623020
20
-125.447319
30
-8.031876
11
31.541746
21
-110.724464
31
-7.693876
12
43.490868
22
-108.710846
32
-5.412315
13
43.189899
23
-125.239922
33
-7.671793
0
3DFACE
8
0
70
0
10
43.189899
20
-125.239922
30
-7.671793
11
43.490868
21
-108.710846
31
-5.412315
12
58.237503
22
-108.327759
32
-2.787605
13
61.147331
23
-127.895821
33
-6.526394
0
3DFACE
8
0
70
0
10
61.147331
20
-127.895821
30
-6.526394
11
58.237503
21
-108.327759
31
-2.787605
12
77.644135
22
-111.119698
32
-0.681069
13
83.014641
23
-133.098419
33
-5.161818
0
3DFACE
8
0
70
0
10
83.014641
20
-133.098419
30
-5.161818
11
77.644135
21
-111.119698
31
-0.681069
12
100.364494
22
-116.474792
32
0.528216
13
105.360542
23
-138.377716
33
-3.862613
0
3DFACE
8
0
70
0
10
105.360542
20
-138.377716
30
-3.862613
11
100.364494
21
-116.474792
31
0.528216
12
123.040260
22
-121.878540
32
0.947901
13
124.565277
23
-140.661652
33
-2.615327
0
3DFACE
8
0
70
0
10
124.565277
20
-140.661652
30
-2.615327
11
123.040260
21
-121.878540
31
0.947901
12
141.863022
22
-122.610107
32
0.746086
13
138.897598
23
-136.987823
33
-1.270812
0
3DFACE
8
0
70
0
10
138.897598
20
-136.987823
30
-1.270812
11
141.863022
21
-122.610107
31
0.746086
12
157.314865
22
-119.490112
32
0.637971
13
151.691513
23
-130.859116
33
-0.059917
0
3DFACE
8
0
70
0
10
151.691513
20
-130.859116
30
-0.059917
11
157.314865
21
-119.490112
31
0.637971
12
171.439453
22
-114.195694
32
0.870394
13
165.650208
23
-125.129768
33
0.925751
0
3DFACE
8
0
70
0
10
165.650208
20
-125.129768
30
0.925751
11
171.439453
21
-114.195694
31
0.870394
12
185.911377
22
-108.772934
32
1.376536
13
181.707794
23
-121.611954
33
1.469235
0
3DFACE
8
0
70
0
10
181.707794
20
-121.611954
30
1.469235
11
185.911377
21
-108.772934
31
1.376536
12
201.262497
22
-104.698753
32
1.824946
13
199.229553
23
-120.646049
33
1.315494
0
3DFACE
8
0
70
0
10
199.229553
20
-120.646049
30
1.315494
11
201.262497
21
-104.698753
31
1.824946
12
217.265152
22
-102.595314
32
1.740502
13
217.195816
23
-121.580574
33
0.319292
0
3DFACE
8
0
70
0
10
-160.535248
20
-107.157013
30
-1.480531
11
-160.492126
21
-88.303581
31
-1.532589
12
-143.143707
22
-88.198128
32
-1.952650
13
-143.060883
23
-107.322441
33
-2.051348
0
3DFACE
8
0
70
0
10
-143.060883
20
-107.322441
30
-2.051348
11
-143.143707
21
-88.198128
31
-1.952650
12
-124.493767
22
-88.304810
32
-1.623809
13
-124.515900
23
-107.673859
33
-2.136801
0
3DFACE
8
0
70
0
10
-124.515900
20
-107.673859
30
-2.136801
11
-124.493767
21
-88.304810
31
-1.623809
12
-105.683311
22
-88.569031
32
-0.316940
13
-106.377434
23
-107.678841
33
-1.086160
0
3DFACE
8
0
70
0
10
-106.377434
20
-107.678841
30
-1.086160
11
-105.683311
21
-88.569031
31
-0.316940
12
-88.548027
22
-88.549927
32
1.089585
13
-89.988976
23
-106.869591
33
0.687854
0
3DFACE
8
0
70
0
10
-89.988976
20
-106.869591
30
0.687854
11
-88.548027
21
-88.549927
31
1.089585
12
-73.548180
22
-87.981812
32
1.252521
13
-74.886162
23
-105.557076
33
1.891914
0
3DFACE
8
0
70
0
10
-74.886162
20
-105.557076
30
1.891914
11
-73.548180
21
-87.981812
31
1.252521
12
-58.798866
22
-87.324112
32
-0.524622
13
-58.889275
23
-104.869736
33
1.326896
0
3DFACE
8
0
70
0
10
-58.889275
20
-104.869736
30
1.326896
11
-58.798866
21
-87.324112
31
-0.524622
12
-41.743874
22
-87.560715
32
-3.671224
13
-40.014271
23
-105.860115
33
-1.187119
0
3DFACE
8
0
70
0
10
-40.014271
20
-105.860115
30
-1.187119
11
-41.743874
21
-87.560715
31
-3.671224
12
-21.608711
22
-89.256493
32
-6.676849
13
-18.802679
23
-108.409210
33
-4.647139
0
3DFACE
8
0
70
0
10
-18.802679
20
-108.409210
30
-4.647139
11
-21.608711
21
-89.256493
31
-6.676849
12
-0.309331
22
-91.739449
32
-8.029780
13
1.716647
23
-111.033104
33
-7.510491
0
3DFACE
8
0
70
0
10
1.716647
20
-111.033104
30
-7.510491
11
-0.309331
21
-91.739449
31
-8.029780
12
18.959253
22
-93.321121
32
-7.047028
13
18.577715
23
-111.970047
33
-8.606097
0
3DFACE
8
0
70
0
10
18.577715
20
-111.970047
30
-8.606097
11
18.959253
21
-93.321121
31
-7.047028
12
34.273323
22
-92.568359
32
-4.103855
13
31.541746
23
-110.724464
33
-7.693876
0
3DFACE
8
0
70
0
10
31.541746
20
-110.724464
30
-7.693876
11
34.273323
21
-92.568359
31
-4.103855
12
46.566139
22
-89.623405
32
-0.275677
13
43.490868
23
-108.710846
33
-5.412315
0
3DFACE
8
0
70
0
10
43.490868
20
-108.710846
30
-5.412315
11
46.566139
21
-89.623405
31
-0.275677
12
59.002625
22
-86.409042
32
3.255441
13
58.237503
23
-108.327759
33
-2.787605
0
3DFACE
8
0
70
0
10
58.237503
20
-108.327759
30
-2.787605
11
59.002625
21
-86.409042
31
3.255441
12
74.724861
22
-85.438667
32
5.666957
13
77.644135
23
-111.119698
33
-0.681069
0
3DFACE
8
0
70
0
10
77.644135
20
-111.119698
30
-0.681069
11
74.724861
21
-85.438667
31
5.666957
12
94.742622
22
-88.098885
32
6.666635
13
100.364494
23
-116.474792
33
0.528216
0
3DFACE
8
0
70
0
10
100.364494
20
-116.474792
30
0.528216
11
94.742622
21
-88.098885
31
6.666635
12
117.499886
22
-93.685471
32
6.404685
13
123.040260
23
-121.878540
33
0.947901
0
3DFACE
8
0
70
0
10
123.040260
20
-121.878540
30
0.947901
11
117.499886
21
-93.685471
31
6.404685
12
139.578522
22
-98.571663
32
4.592152
13
141.863022
23
-122.610107
33
0.746086
0
3DFACE
8
0
70
0
10
141.863022
20
-122.610107
30
0.746086
11
139.578522
21
-98.571663
31
4.592152
12
158.798248
22
-100.534355
32
2.817016
13
157.314865
23
-119.490112
33
0.637971
0
3DFACE
8
0
70
0
10
157.314865
20
-119.490112
30
0.637971
11
158.798248
21
-100.534355
31
2.817016
12
175.543579
22
-99.188324
32
1.585831
13
171.439453
23
-114.195694
33
0.870394
0
3DFACE
8
0
70
0
10
171.439453
20
-114.195694
30
0.870394
11
175.543579
21
-99.188324
31
1.585831
12
190.931946
22
-95.437202
32
1.116239
13
185.911377
23
-108.772934
33
1.376536
0
3DFACE
8
0
70
0
10
185.911377
20
-108.772934
30
1.376536
11
190.931946
21
-95.437202
31
1.116239
12
205.765121
22
-90.708961
32
1.308025
13
201.262497
23
-104.698753
33
1.824946
0
3DFACE
8
0
70
0
10
201.262497
20
-104.698753
30
1.824946
11
205.765121
21
-90.708961
31
1.308025
12
220.327881
22
-86.359940
32
1.694613
13
217.265152
23
-102.595314
33
1.740502
0
3DFACE
8
0
70
0
10
-160.492126
20
-88.303581
30
-1.532589
11
-159.657089
21
-69.457497
31
-1.544775
12
-142.217453
22
-69.088989
32
-1.772614
13
-143.143707
23
-88.198128
33
-1.952650
0
3DFACE
8
0
70
0
10
-143.143707
20
-88.198128
30
-1.952650
11
-142.217453
21
-69.088989
31
-1.772614
12
-123.832001
22
-68.932251
32
-1.146849
13
-124.493767
23
-88.304810
33
-1.623809
0
3DFACE
8
0
70
0
10
-124.493767
20
-88.304810
30
-1.623809
11
-123.832001
21
-68.932251
31
-1.146849
12
-105.359016
22
-69.470146
32
0.136477
13
-105.683311
23
-88.569031
33
-0.316940
0
3DFACE
8
0
70
0
10
-105.683311
20
-88.569031
30
-0.316940
11
-105.359016
21
-69.470146
31
0.136477
12
-88.158112
22
-70.378571
32
0.927738
13
-88.548027
23
-88.549927
33
1.089585
0
3DFACE
8
0
70
0
10
-88.548027
20
-88.549927
30
1.089585
11
-88.158112
21
-70.378571
31
0.927738
12
-72.716263
22
-70.763680
32
0.112551
13
-73.548180
23
-87.981812
33
1.252521
0
3DFACE
8
0
70
0
10
-73.548180
20
-87.981812
30
1.252521
11
-72.716263
21
-70.763680
31
0.112551
12
-57.947403
22
-70.132393
32
-2.347882
13
-58.798866
23
-87.324112
33
-0.524622
0
3DFACE
8
0
70
0
10
-58.798866
20
-87.324112
30
-0.524622
11
-57.947403
21
-70.132393
31
-2.347882
12
-41.855137
22
-69.054909
32
-5.246254
13
-41.743874
23
-87.560715
33
-3.671224
0
3DFACE
8
0
70
0
10
-41.743874
20
-87.560715
30
-3.671224
11
-41.855137
21
-69.054909
31
-5.246254
12
-23.120447
22
-68.734894
32
-6.915101
13
-21.608711
23
-89.256493
33
-6.676849
0
3DFACE
8
0
70
0
10
-21.608711
20
-89.256493
30
-6.676849
11
-23.120447
21
-68.734894
31
-6.915101
12
-2.325753
22
-69.808571
32
-6.274333
13
-0.309331
23
-91.739449
33
-8.029780
0
3DFACE
8
0
70
0
10
-0.309331
20
-91.739449
30
-8.029780
11
-2.325753
21
-69.808571
31
-6.274333
12
18.237020
22
-71.520782
32
-3.368207
13
18.959253
23
-93.321121
33
-7.047028
0
3DFACE
8
0
70
0
10
18.959253
20
-93.321121
30
-7.047028
11
18.237020
21
-71.520782
31
-3.368207
12
36.111954
22
-72.142860
32
0.846816
13
34.273323
23
-92.568359
33
-4.103855
0
3DFACE
8
0
70
0
10
34.273323
20
-92.568359
30
-4.103855
11
36.111954
21
-72.142860
31
0.846816
12
50.447845
22
-70.375946
32
5.133204
13
46.566139
23
-89.623405
33
-0.275677
0
3DFACE
8
0
70
0
10
46.566139
20
-89.623405
30
-0.275677
11
50.447845
21
-70.375946
31
5.133204
12
62.671745
22
-66.575569
32
8.536633
13
59.002625
23
-86.409042
33
3.255441
0
3DFACE
8
0
70
0
10
59.002625
20
-86.409042
30
3.255441
11
62.671745
21
-66.575569
31
8.536633
12
75.588722
22
-62.760777
32
10.619528
13
74.724861
23
-85.438667
33
5.666957
0
3DFACE
8
0
70
0
10
74.724861
20
-85.438667
30
5.666957
11
75.588722
21
-62.760777
31
10.619528
12
91.579857
22
-61.386173
32
11.380779
13
94.742622
23
-88.098885
33
6.666635
0
3DFACE
8
0
70
0
10
94.742622
20
-88.098885
30
6.666635
11
91.579857
21
-61.386173
31
11.380779
12
111.247566
22
-63.823093
32
11.020464
13
117.499886
23
-93.685471
33
6.404685
0
3DFACE
8
0
70
0
10
117.499886
20
-93.685471
30
6.404685
11
111.247566
21
-63.823093
31
11.020464
12
133.494522
22
-69.562096
32
8.575866
13
139.578522
23
-98.571663
33
4.592152
0
3DFACE
8
0
70
0
10
139.578522
20
-98.571663
30
4.592152
11
133.494522
21
-69.562096
31
8.575866
12
155.140244
22
-75.115677
32
5.930372
13
158.798248
23
-100.534355
33
2.817016
0
3DFACE
8
0
70
0
10
158.798248
20
-100.534355
30
2.817016
11
155.140244
21
-75.115677
31
5.930372
12
175.122696
22
-78.505882
32
3.539744
13
175.543579
23
-99.188324
33
1.585831
0
3DFACE
8
0
70
0
10
175.543579
20
-99.188324
30
1.585831
11
175.122696
21
-78.505882
31
3.539744
12
193.357056
22
-78.923401
32
1.800196
13
190.931946
23
-95.437202
33
1.116239
0
3DFACE
8
0
70
0
10
190.931946
20
-95.437202
30
1.116239
11
193.357056
21
-78.923401
31
1.800196
12
209.982758
22
-76.605133
32
0.992753
13
205.765121
23
-90.708961
33
1.308025
0
3DFACE
8
0
70
0
10
205.765121
20
-90.708961
30
1.308025
11
209.982758
21
-76.605133
31
0.992753
12
225.023819
22
-72.516563
32
1.019922
13
220.327881
23
-86.359940
33
1.694613
0
3DFACE
8
0
70
0
10
-159.657089
20
-69.457497
30
-1.544775
11
-158.548325
21
-50.642281
31
-1.529775
12
-141.196426
22
-50.117199
32
-1.585828
13
-142.217453
23
-69.088989
33
-1.772614
0
3DFACE
8
0
70
0
10
-142.217453
20
-69.088989
30
-1.772614
11
-141.196426
21
-50.117199
31
-1.585828
12
-123.715927
22
-49.697762
32
-0.812339
13
-123.832001
23
-68.932251
33
-1.146849
0
3DFACE
8
0
70
0
10
-123.832001
20
-68.932251
30
-1.146849
11
-123.715927
21
-49.697762
31
-0.812339
12
-106.267464
22
-50.299423
32
0.270707
13
-105.359016
23
-69.470146
33
0.136477
0
3DFACE
8
0
70
0
10
-105.359016
20
-69.470146
30
0.136477
11
-106.267464
21
-50.299423
31
0.270707
12
-89.131508
22
-51.855247
32
0.451588
13
-88.158112
23
-70.378571
33
0.927738
0
3DFACE
8
0
70
0
10
-88.158112
20
-70.378571
30
0.927738
11
-89.131508
21
-51.855247
31
0.451588
12
-72.518959
22
-53.114880
32
-1.009643
13
-72.716263
23
-70.763680
33
0.112551
0
3DFACE
8
0
70
0
10
-72.716263
20
-70.763680
30
0.112551
11
-72.518959
21
-53.114880
31
-1.009643
12
-56.311234
22
-52.734070
32
-3.562794
13
-57.947403
23
-70.132393
33
-2.347882
0
3DFACE
8
0
70
0
10
-57.947403
20
-70.132393
30
-2.347882
11
-56.311234
21
-52.734070
31
-3.562794
12
-39.913662
22
-50.626720
32
-5.645801
13
-41.855137
23
-69.054909
33
-5.246254
0
3DFACE
8
0
70
0
10
-41.855137
20
-69.054909
30
-5.246254
11
-39.913662
21
-50.626720
31
-5.645801
12
-22.488441
22
-48.235085
32
-5.771985
13
-23.120447
23
-68.734894
33
-6.915101
0
3DFACE
8
0
70
0
10
-23.120447
20
-68.734894
30
-6.915101
11
-22.488441
21
-48.235085
31
-5.771985
12
-3.594015
22
-47.380810
32
-3.491883
13
-2.325753
23
-69.808571
33
-6.274333
0
3DFACE
8
0
70
0
10
-2.325753
20
-69.808571
30
-6.274333
11
-3.594015
21
-47.380810
31
-3.491883
12
16.208395
22
-48.684929
32
0.458293
13
18.237020
23
-71.520782
33
-3.368207
0
3DFACE
8
0
70
0
10
18.237020
20
-71.520782
30
-3.368207
11
16.208395
21
-48.684929
31
0.458293
12
35.405045
22
-50.939091
32
4.762947
13
36.111954
23
-72.142860
33
0.846816
0
3DFACE
8
0
70
0
10
36.111954
20
-72.142860
30
0.846816
11
35.405045
21
-50.939091
31
4.762947
12
52.416958
22
-51.971542
32
8.309172
13
50.447845
23
-70.375946
33
5.133204
0
3DFACE
8
0
70
0
10
50.447845
20
-70.375946
30
5.133204
11
52.416958
21
-51.971542
31
8.309172
12
66.750732
22
-50.301701
32
10.614530
13
62.671745
23
-66.575569
33
8.536633
0
3DFACE
8
0
70
0
10
62.671745
20
-66.575569
30
8.536633
11
66.750732
21
-50.301701
31
10.614530
12
79.511208
22
-46.279919
32
11.791182
13
75.588722
23
-62.760777
33
10.619528
0
3DFACE
8
0
70
0
10
75.588722
20
-62.760777
30
10.619528
11
79.511208
21
-46.279919
31
11.791182
12
92.774429
22
-41.923264
32
12.239321
13
91.579857
23
-61.386173
33
11.380779
0
3DFACE
8
0
70
0
10
91.579857
20
-61.386173
30
11.380779
11
92.774429
21
-41.923264
31
12.239321
12
108.356476
22
-39.728138
32
12.275543
13
111.247566
23
-63.823093
33
11.020464
0
3DFACE
8
0
70
0
10
111.247566
20
-63.823093
30
11.020464
11
108.356476
21
-39.728138
31
12.275543
12
127.743271
22
-42.306080
32
10.506124
13
133.494522
23
-69.562096
33
8.575866
0
3DFACE
8
0
70
0
10
133.494522
20
-69.562096
30
8.575866
11
127.743271
21
-42.306080
31
10.506124
12
148.852448
22
-47.483845
32
8.385304
13
155.140244
23
-75.115677
33
5.930372
0
3DFACE
8
0
70
0
10
155.140244
20
-75.115677
30
5.930372
11
148.852448
21
-47.483845
31
8.385304
12
170.355682
22
-53.179272
32
5.966463
13
175.122696
23
-78.505882
33
3.539744
0
3DFACE
8
0
70
0
10
175.122696
20
-78.505882
30
3.539744
11
170.355682
21
-53.179272
31
5.966463
12
191.343384
22
-57.492435
32
3.530926
13
193.357056
23
-78.923401
33
1.800196
0
3DFACE
8
0
70
0
10
193.357056
20
-78.923401
30
1.800196
11
191.343384
21
-57.492435
31
3.530926
12
211.009842
22
-59.193642
32
1.627221
13
209.982758
23
-76.605133
33
0.992753
0
3DFACE
8
0
70
0
10
209.982758
20
-76.605133
30
0.992753
11
211.009842
21
-59.193642
31
1.627221
12
228.484085
22
-57.990677
32
0.685793
13
225.023819
23
-72.516563
33
1.019922
0
3DFACE
8
0
70
0
10
-158.548325
20
-50.642281
30
-1.529775
11
-158.179001
21
-31.864103
31
-1.502964
12
-140.709610
22
-31.348047
32
-1.442826
13
-141.196426
23
-50.117199
33
-1.585828
0
3DFACE
8
0
70
0
10
-141.196426
20
-50.117199
30
-1.585828
11
-140.709610
21
-31.348047
31
-1.442826
12
-123.960373
22
-30.705870
32
-0.649780
13
-123.715927
23
-49.697762
33
-0.812339
0
3DFACE
8
0
70
0
10
-123.715927
20
-49.697762
30
-0.812339
11
-123.960373
21
-30.705870
31
-0.649780
12
-107.700417
22
-31.047831
32
0.180217
13
-106.267464
23
-50.299423
33
0.270707
0
3DFACE
8
0
70
0
10
-106.267464
20
-50.299423
30
0.270707
11
-107.700417
21
-31.047831
31
0.180217
12
-90.932625
22
-32.692154
32
-0.071094
13
-89.131508
23
-51.855247
33
0.451588
0
3DFACE
8
0
70
0
10
-89.131508
20
-51.855247
30
0.451588
11
-90.932625
21
-32.692154
31
-0.071094
12
-73.031685
22
-34.519600
32
-1.774166
13
-72.518959
23
-53.114880
33
-1.009643
0
3DFACE
8
0
70
0
10
-72.518959
20
-53.114880
30
-1.009643
11
-73.031685
21
-34.519600
31
-1.774166
12
-54.530716
22
-34.775848
32
-4.010457
13
-56.311234
23
-52.734070
33
-3.562794
0
3DFACE
8
0
70
0
10
-56.311234
20
-52.734070
30
-3.562794
11
-54.530716
21
-34.775848
31
-4.010457
12
-36.613636
22
-32.651623
32
-5.177105
13
-39.913662
23
-50.626720
33
-5.645801
0
3DFACE
8
0
70
0
10
-39.913662
20
-50.626720
30
-5.645801
11
-36.613636
21
-32.651623
31
-5.177105
12
-19.841759
22
-29.186844
32
-4.164247
13
-22.488441
23
-48.235085
33
-5.771985
0
3DFACE
8
0
70
0
10
-22.488441
20
-48.235085
30
-5.771985
11
-19.841759
21
-29.186844
31
-4.164247
12
-3.512851
22
-26.636276
32
-1.096413
13
-3.594015
23
-47.380810
33
-3.491883
0
3DFACE
8
0
70
0
10
-3.594015
20
-47.380810
30
-3.491883
11
-3.512851
21
-26.636276
31
-1.096413
12
13.631235
22
-26.787842
32
2.864274
13
16.208395
23
-48.684929
33
0.458293
0
3DFACE
8
0
70
0
10
16.208395
20
-48.684929
30
0.458293
11
13.631235
21
-26.787842
31
2.864274
12
32.070881
22
-29.590475
32
6.338284
13
35.405045
23
-50.939091
33
4.762947
0
3DFACE
8
0
70
0
10
35.405045
20
-50.939091
30
4.762947
11
32.070881
21
-29.590475
31
6.338284
12
50.897797
22
-33.127716
32
8.495279
13
52.416958
23
-51.971542
33
8.309172
0
3DFACE
8
0
70
0
10
52.416958
20
-51.971542
30
8.309172
11
50.897797
21
-33.127716
31
8.495279
12
68.495293
22
-34.890659
32
9.318589
13
66.750732
23
-50.301701
33
10.614530
0
3DFACE
8
0
70
0
10
66.750732
20
-50.301701
30
10.614530
11
68.495293
21
-34.890659
31
9.318589
12
83.888321
22
-33.396606
32
9.370196
13
79.511208
23
-46.279919
33
11.791182
0
3DFACE
8
0
70
0
10
79.511208
20
-46.279919
30
11.791182
11
83.888321
21
-33.396606
31
9.370196
12
97.474831
22
-29.031675
32
9.393289
13
92.774429
23
-41.923264
33
12.239321
0
3DFACE
8
0
70
0
10
92.774429
20
-41.923264
30
12.239321
11
97.474831
21
-29.031675
31
9.393289
12
110.713699
22
-23.800039
32
9.890484
13
108.356476
23
-39.728138
33
12.275543
0
3DFACE
8
0
70
0
10
108.356476
20
-39.728138
30
12.275543
11
110.713699
21
-23.800039
31
9.890484
12
126.230942
22
-21.483793
32
9.568683
13
127.743271
23
-42.306080
33
10.506124
0
3DFACE
8
0
70
0
10
127.743271
20
-42.306080
30
10.506124
11
126.230942
21
-21.483793
31
9.568683
12
144.236160
22
-22.710873
32
9.043357
13
148.852448
23
-47.483845
33
8.385304
0
3DFACE
8
0
70
0
10
148.852448
20
-47.483845
30
8.385304
11
144.236160
21
-22.710873
31
9.043357
12
164.410690
22
-26.770508
32
7.783260
13
170.355682
23
-53.179272
33
5.966463
0
3DFACE
8
0
70
0
10
170.355682
20
-53.179272
30
5.966463
11
164.410690
21
-26.770508
31
7.783260
12
186.069061
22
-32.037155
32
5.650669
13
191.343384
23
-57.492435
33
3.530926
0
3DFACE
8
0
70
0
10
191.343384
20
-57.492435
30
3.530926
11
186.069061
21
-32.037155
31
5.650669
12
208.006210
22
-36.607372
32
3.162809
13
211.009842
23
-59.193642
33
1.627221
0
3DFACE
8
0
70
0
10
211.009842
20
-59.193642
30
1.627221
11
208.006210
21
-36.607372
31
3.162809
12
228.460938
22
-38.989067
32
1.168326
13
228.484085
23
-57.990677
33
0.685793
0
3DFACE
8
0
70
0
10
-158.179001
20
-31.864103
30
-1.502964
11
-157.957748
21
-13.104649
31
-1.475314
12
-140.171280
22
-12.768680
32
-1.361933
13
-140.709610
23
-31.348047
33
-1.442826
0
3DFACE
8
0
70
0
10
-140.709610
20
-31.348047
30
-1.442826
11
-140.171280
21
-12.768680
31
-1.361933
12
-123.897346
22
-12.022712
32
-0.634546
13
-123.960373
23
-30.705870
33
-0.649780
0
3DFACE
8
0
70
0
10
-123.960373
20
-30.705870
30
-0.649780
11
-123.897346
21
-12.022712
31
-0.634546
12
-108.861542
22
-11.858165
32
-0.023498
13
-107.700417
23
-31.047831
33
0.180217
0
3DFACE
8
0
70
0
10
-107.700417
20
-31.047831
30
0.180217
11
-108.861542
21
-11.858165
31
-0.023498
12
-92.926903
22
-12.981753
32
-0.473144
13
-90.932625
23
-32.692154
33
-0.071094
0
3DFACE
8
0
70
0
10
-90.932625
20
-32.692154
30
-0.071094
11
-92.926903
21
-12.981753
31
-0.473144
12
-74.294960
22
-14.871578
32
-2.088317
13
-73.031685
23
-34.519600
33
-1.774166
0
3DFACE
8
0
70
0
10
-73.031685
20
-34.519600
30
-1.774166
11
-74.294960
21
-14.871578
31
-2.088317
12
-53.557556
22
-15.976599
32
-3.842582
13
-54.530716
23
-34.775848
33
-4.010457
0
3DFACE
8
0
70
0
10
-54.530716
20
-34.775848
30
-4.010457
11
-53.557556
21
-15.976599
31
-3.842582
12
-33.386341
22
-14.965164
32
-4.331590
13
-36.613636
23
-32.651623
33
-5.177105
0
3DFACE
8
0
70
0
10
-36.613636
20
-32.651623
30
-5.177105
11
-33.386341
21
-14.965164
31
-4.331590
12
-16.142462
22
-11.943208
32
-2.849264
13
-19.841759
23
-29.186844
33
-4.164247
0
3DFACE
8
0
70
0
10
-19.841759
20
-29.186844
30
-4.164247
11
-16.142462
21
-11.943208
31
-2.849264
12
-1.769789
22
-8.586520
32
0.139072
13
-3.512851
23
-26.636276
33
-1.096413
0
3DFACE
8
0
70
0
10
-3.512851
20
-26.636276
30
-1.096413
11
-1.769789
21
-8.586520
31
0.139072
12
12.074853
22
-7.057676
32
3.401335
13
13.631235
23
-26.787842
33
2.864274
0
3DFACE
8
0
70
0
10
13.631235
20
-26.787842
30
2.864274
11
12.074853
21
-7.057676
31
3.401335
12
27.947515
22
-8.534109
32
5.754543
13
32.070881
23
-29.590475
33
6.338284
0
3DFACE
8
0
70
0
10
32.070881
20
-29.590475
30
6.338284
11
27.947515
21
-8.534109
31
5.754543
12
46.592369
22
-12.397468
32
6.658019
13
50.897797
23
-33.127716
33
8.495279
0
3DFACE
8
0
70
0
10
50.897797
20
-33.127716
30
8.495279
11
46.592369
21
-12.397468
31
6.658019
12
66.605774
22
-16.560507
32
6.332336
13
68.495293
23
-34.890659
33
9.318589
0
3DFACE
8
0
70
0
10
68.495293
20
-34.890659
30
9.318589
11
66.605774
21
-16.560507
31
6.332336
12
85.708702
22
-18.645020
32
5.521766
13
83.888321
23
-33.396606
33
9.370196
0
3DFACE
8
0
70
0
10
83.888321
20
-33.396606
30
9.370196
11
85.708702
21
-18.645020
31
5.521766
12
102.354706
22
-17.291672
32
5.097060
13
97.474831
23
-29.031675
33
9.393289
0
3DFACE
8
0
70
0
10
97.474831
20
-29.031675
30
9.393289
11
102.354706
21
-17.291672
31
5.097060
12
116.482803
22
-12.758219
32
5.779836
13
110.713699
23
-23.800039
33
9.890484
0
3DFACE
8
0
70
0
10
110.713699
20
-23.800039
30
9.890484
11
116.482803
21
-12.758219
31
5.779836
12
129.779144
22
-7.437947
32
6.818851
13
126.230942
23
-21.483793
33
9.568683
0
3DFACE
8
0
70
0
10
126.230942
20
-21.483793
30
9.568683
11
129.779144
21
-7.437947
31
6.818851
12
144.304108
22
-4.142700
32
8.084408
13
144.236160
23
-22.710873
33
9.043357
0
3DFACE
8
0
70
0
10
144.236160
20
-22.710873
30
9.043357
11
144.304108
21
-4.142700
31
8.084408
12
161.241409
22
-3.965930
32
8.530240
13
164.410690
23
-26.770508
33
7.783260
0
3DFACE
8
0
70
0
10
164.410690
20
-26.770508
30
7.783260
11
161.241409
21
-3.965930
31
8.530240
12
181.053955
22
-6.658015
32
7.452224
13
186.069061
23
-32.037155
33
5.650669
0
3DFACE
8
0
70
0
10
186.069061
20
-32.037155
30
5.650669
11
181.053955
21
-6.658015
31
7.452224
12
203.073471
22
-10.891685
32
5.041327
13
208.006210
23
-36.607372
33
3.162809
0
3DFACE
8
0
70
0
10
208.006210
20
-36.607372
30
3.162809
11
203.073471
21
-10.891685
31
5.041327
12
225.285477
22
-14.906626
32
2.298552
13
228.460938
23
-38.989067
33
1.168326
0
3DFACE
8
0
70
0
10
-157.957748
20
-13.104649
30
-1.475314
11
-157.830368
21
5.671645
31
-1.451551
12
-139.629364
22
5.709425
32
-1.336937
13
-140.171280
23
-12.768680
33
-1.361933
0
3DFACE
8
0
70
0
10
-140.171280
20
-12.768680
30
-1.361933
11
-139.629364
21
5.709425
31
-1.336937
12
-123.408638
22
6.356293
32
-0.720616
13
-123.897346
23
-12.022712
33
-0.634546
0
3DFACE
8
0
70
0
10
-123.897346
20
-12.022712
30
-0.634546
11
-123.408638
21
6.356293
31
-0.720616
12
-109.274849
22
7.040526
32
-0.262739
13
-108.861542
23
-11.858165
33
-0.023498
0
3DFACE
8
0
70
0
10
-108.861542
20
-11.858165
30
-0.023498
11
-109.274849
21
7.040526
31
-0.262739
12
-94.474068
22
6.855068
32
-0.712834
13
-92.926903
23
-12.981753
33
-0.473144
0
3DFACE
8
0
70
0
10
-92.926903
20
-12.981753
30
-0.473144
11
-94.474068
21
6.855068
31
-0.712834
12
-76.057594
22
5.514853
32
-2.039171
13
-74.294960
23
-14.871578
33
-2.088317
0
3DFACE
8
0
70
0
10
-74.294960
20
-14.871578
30
-2.088317
11
-76.057594
21
5.514853
31
-2.039171
12
-54.019554
22
3.818749
32
-3.316204
13
-53.557556
23
-15.976599
33
-3.842582
0
3DFACE
8
0
70
0
10
-53.557556
20
-15.976599
30
-3.842582
11
-54.019554
21
3.818749
31
-3.316204
12
-31.660250
22
3.150933
32
-3.463924
13
-33.386341
23
-14.965164
33
-4.331590
0
3DFACE
8
0
70
0
10
-33.386341
20
-14.965164
30
-4.331590
11
-31.660250
21
3.150933
31
-3.463924
12
-12.834366
22
4.412868
32
-2.099759
13
-16.142462
23
-11.943208
33
-2.849264
0
3DFACE
8
0
70
0
10
-16.142462
20
-11.943208
30
-2.849264
11
-12.834366
21
4.412868
31
-2.099759
12
1.246546
22
7.239987
32
0.236155
13
-1.769789
23
-8.586520
33
0.139072
0
3DFACE
8
0
70
0
10
-1.769789
20
-8.586520
30
0.139072
11
1.246546
21
7.239987
31
0.236155
12
12.823574
22
10.100813
32
2.539712
13
12.074853
23
-7.057676
33
3.401335
0
3DFACE
8
0
70
0
10
12.074853
20
-7.057676
30
3.401335
11
12.823574
21
10.100813
31
2.539712
12
25.626669
22
11.203737
32
3.977736
13
27.947515
23
-8.534109
33
5.754543
0
3DFACE
8
0
70
0
10
27.947515
20
-8.534109
30
5.754543
11
25.626669
21
11.203737
31
3.977736
12
42.123867
22
9.599291
32
4.233755
13
46.592369
23
-12.397468
33
6.658019
0
3DFACE
8
0
70
0
10
46.592369
20
-12.397468
30
6.658019
11
42.123867
21
9.599291
31
4.233755
12
62.164028
22
5.796595
32
3.511631
13
66.605774
23
-16.560507
33
6.332336
0
3DFACE
8
0
70
0
10
66.605774
20
-16.560507
30
6.332336
11
62.164028
21
5.796595
31
3.511631
12
83.606560
22
1.581250
32
2.422267
13
85.708702
23
-18.645020
33
5.521766
0
3DFACE
8
0
70
0
10
85.708702
20
-18.645020
30
5.521766
11
83.606560
21
1.581250
31
2.422267
12
103.898048
22
-0.938192
32
1.757285
13
102.354706
23
-17.291672
33
5.097060
0
3DFACE
8
0
70
0
10
102.354706
20
-17.291672
30
5.097060
11
103.898048
21
-0.938192
31
1.757285
12
121.349167
22
-0.276692
32
2.381166
13
116.482803
23
-12.758219
33
5.779836
0
3DFACE
8
0
70
0
10
116.482803
20
-12.758219
30
5.779836
11
121.349167
21
-0.276692
31
2.381166
12
135.474731
22
3.941912
32
4.175044
13
129.779144
23
-7.437947
33
6.818851
0
3DFACE
8
0
70
0
10
129.779144
20
-7.437947
30
6.818851
11
135.474731
21
3.941912
31
4.175044
12
148.518799
22
8.906119
32
6.684735
13
144.304108
23
-4.142700
33
8.084408
0
3DFACE
8
0
70
0
10
144.304108
20
-4.142700
30
8.084408
11
148.518799
21
8.906119
31
6.684735
12
162.608078
22
12.602446
32
8.583094
13
161.241409
23
-3.965930
33
8.530240
0
3DFACE
8
0
70
0
10
161.241409
20
-3.965930
30
8.530240
11
162.608078
21
12.602446
31
8.583094
12
179.505539
22
13.878443
32
8.660376
13
181.053955
23
-6.658015
33
7.452224
0
3DFACE
8
0
70
0
10
181.053955
20
-6.658015
30
7.452224
11
179.505539
21
13.878443
31
8.660376
12
199.701508
22
12.739102
32
6.653032
13
203.073471
23
-10.891685
33
5.041327
0
3DFACE
8
0
70
0
10
203.073471
20
-10.891685
30
5.041327
11
199.701508
21
12.739102
31
6.653032
12
221.704453
22
10.148679
32
3.487847
13
225.285477
23
-14.906626
33
2.298552
0
3DFACE
8
0
70
0
10
-157.830368
20
5.671645
30
-1.451551
11
-157.833939
21
24.499842
31
-1.431860
12
-139.243027
22
24.223711
32
-1.349080
13
-139.629364
23
5.709425
33
-1.336937
0
3DFACE
8
0
70
0
10
-139.629364
20
5.709425
30
-1.336937
11
-139.243027
21
24.223711
31
-1.349080
12
-122.631607
22
24.547052
32
-0.862121
13
-123.408638
23
6.356293
33
-0.720616
0
3DFACE
8
0
70
0
10
-123.408638
20
6.356293
30
-0.720616
11
-122.631607
21
24.547052
31
-0.862121
12
-108.789291
22
25.496048
32
-0.502055
13
-109.274849
23
7.040526
33
-0.262739
0
3DFACE
8
0
70
0
10
-109.274849
20
7.040526
30
-0.262739
11
-108.789291
21
25.496048
31
-0.502055
12
-95.047287
22
26.292831
32
-0.834230
13
-94.474068
23
6.855068
33
-0.712834
0
3DFACE
8
0
70
0
10
-94.474068
20
6.855068
30
-0.712834
11
-95.047287
21
26.292831
31
-0.834230
12
-77.714081
22
26.000694
32
-1.788263
13
-76.057594
23
5.514853
33
-2.039171
0
3DFACE
8
0
70
0
10
-76.057594
20
5.514853
30
-2.039171
11
-77.714081
21
26.000694
31
-1.788263
12
-55.782879
22
24.413160
32
-2.653391
13
-54.019554
23
3.818749
33
-3.316204
0
3DFACE
8
0
70
0
10
-54.019554
20
3.818749
30
-3.316204
11
-55.782879
21
24.413160
31
-2.653391
12
-32.153442
22
22.402576
32
-2.702646
13
-31.660250
23
3.150933
33
-3.463924
0
3DFACE
8
0
70
0
10
-31.660250
20
3.150933
30
-3.463924
11
-32.153442
21
22.402576
31
-2.702646
12
-11.295496
22
21.408489
32
-1.777786
13
-12.834366
23
4.412868
33
-2.099759
0
3DFACE
8
0
70
0
10
-12.834366
20
4.412868
30
-2.099759
11
-11.295496
21
21.408489
31
-1.777786
12
4.301265
22
22.434013
32
-0.317616
13
1.246546
23
7.239987
33
0.236155
0
3DFACE
8
0
70
0
10
1.246546
20
7.239987
30
0.236155
11
4.301265
21
22.434013
31
-0.317616
12
15.777723
22
25.276936
32
1.053763
13
12.823574
23
10.100813
33
2.539712
0
3DFACE
8
0
70
0
10
12.823574
20
10.100813
30
2.539712
11
15.777723
21
25.276936
31
1.053763
12
26.675207
22
28.532753
32
1.903571
13
25.626669
23
11.203737
33
3.977736
0
3DFACE
8
0
70
0
10
25.626669
20
11.203737
30
3.977736
11
26.675207
21
28.532753
31
1.903571
12
40.341553
22
30.373466
32
2.078682
13
42.123867
23
9.599291
33
4.233755
0
3DFACE
8
0
70
0
10
42.123867
20
9.599291
30
4.233755
11
40.341553
21
30.373466
31
2.078682
12
58.110691
22
29.615841
32
1.652252
13
62.164028
23
5.796595
33
3.511631
0
3DFACE
8
0
70
0
10
62.164028
20
5.796595
30
3.511631
11
58.110691
21
29.615841
31
1.652252
12
79.086998
22
26.390743
32
0.904635
13
83.606560
23
1.581250
33
2.422267
0
3DFACE
8
0
70
0
10
83.606560
20
1.581250
30
2.422267
11
79.086998
21
26.390743
31
0.904635
12
101.094818
22
22.116501
32
0.425028
13
103.898048
23
-0.938192
33
1.757285
0
3DFACE
8
0
70
0
10
103.898048
20
-0.938192
30
1.757285
11
101.094818
21
22.116501
31
0.425028
12
121.785912
22
18.788048
32
1.067200
13
121.349167
23
-0.276692
33
2.381166
0
3DFACE
8
0
70
0
10
121.349167
20
-0.276692
30
2.381166
11
121.785912
21
18.788048
31
1.067200
12
138.885315
22
18.772383
32
3.083415
13
135.474731
23
3.941912
33
4.175044
0
3DFACE
8
0
70
0
10
135.474731
20
3.941912
30
4.175044
11
138.885315
21
18.772383
31
3.083415
12
153.186218
22
21.350384
32
6.085043
13
148.518799
23
8.906119
33
6.684735
0
3DFACE
8
0
70
0
10
148.518799
20
8.906119
30
6.684735
11
153.186218
21
21.350384
31
6.085043
12
166.657837
22
25.085041
32
8.698367
13
162.608078
23
12.602446
33
8.583094
0
3DFACE
8
0
70
0
10
162.608078
20
12.602446
30
8.583094
11
166.657837
21
25.085041
31
8.698367
12
181.710785
22
28.435711
32
9.404690
13
179.505539
23
13.878443
33
8.660376
0
3DFACE
8
0
70
0
10
179.505539
20
13.878443
30
8.660376
11
181.710785
21
28.435711
31
9.404690
12
199.867294
22
30.383045
32
7.582060
13
199.701508
23
12.739102
33
6.653032
0
3DFACE
8
0
70
0
10
199.701508
20
12.739102
30
6.653032
11
199.867294
21
30.383045
31
7.582060
12
220.485809
22
30.759726
32
4.083349
13
221.704453
23
10.148679
33
3.487847
0
3DFACE
8
0
70
0
10
-157.833939
20
24.499842
30
-1.431860
11
-158.060593
21
43.394432
31
-1.414309
12
-139.199890
22
42.907417
32
-1.377032
13
-139.243027
23
24.223711
33
-1.349080
0
3DFACE
8
0
70
0
10
-139.243027
20
24.223711
30
-1.349080
11
-139.199890
21
42.907417
31
-1.377032
12
-121.896530
22
42.770847
32
-1.021696
13
-122.631607
23
24.547052
33
-0.862121
0
3DFACE
8
0
70
0
10
-122.631607
20
24.547052
30
-0.862121
11
-121.896530
21
42.770847
31
-1.021696
12
-107.644341
22
43.578941
32
-0.732216
13
-108.789291
23
25.496048
33
-0.502055
0
3DFACE
8
0
70
0
10
-108.789291
20
25.496048
30
-0.502055
11
-107.644341
21
43.578941
31
-0.732216
12
-94.460365
22
44.995438
32
-0.911015
13
-95.047287
23
26.292831
33
-0.834230
0
3DFACE
8
0
70
0
10
-95.047287
20
26.292831
30
-0.834230
11
-94.460365
21
44.995438
31
-0.911015
12
-78.563576
22
45.869629
32
-1.494220
13
-77.714081
23
26.000694
33
-1.788263
0
3DFACE
8
0
70
0
10
-77.714081
20
26.000694
30
-1.788263
11
-78.563576
21
45.869629
31
-1.494220
12
-57.995121
22
45.151558
32
-2.005554
13
-55.782879
23
24.413160
33
-2.653391
0
3DFACE
8
0
70
0
10
-55.782879
20
24.413160
30
-2.653391
11
-57.995121
21
45.151558
31
-2.005554
12
-34.521420
22
42.837929
32
-2.036363
13
-32.153442
23
22.402576
33
-2.702646
0
3DFACE
8
0
70
0
10
-32.153442
20
22.402576
30
-2.702646
11
-34.521420
21
42.837929
31
-2.036363
12
-12.185146
22
40.164711
32
-1.588610
13
-11.295496
23
21.408489
33
-1.777786
0
3DFACE
8
0
70
0
10
-11.295496
20
21.408489
30
-1.777786
11
-12.185146
21
40.164711
31
-1.588610
12
5.848582
22
38.876949
32
-0.958899
13
4.301265
23
22.434013
33
-0.317616
0
3DFACE
8
0
70
0
10
4.301265
20
22.434013
30
-0.317616
11
5.848582
21
38.876949
31
-0.958899
12
19.324963
22
40.101379
32
-0.397329
13
15.777723
23
25.276936
33
1.053763
0
3DFACE
8
0
70
0
10
15.777723
20
25.276936
30
1.053763
11
19.324963
21
40.101379
31
-0.397329
12
30.540949
22
43.594463
32
0.038896
13
26.675207
23
28.532753
33
1.903571
0
3DFACE
8
0
70
0
10
26.675207
20
28.532753
30
1.903571
11
30.540949
21
43.594463
31
0.038896
12
42.521229
22
47.837944
32
0.360728
13
40.341553
23
30.373466
33
2.078682
0
3DFACE
8
0
70
0
10
40.341553
20
30.373466
30
2.078682
11
42.521229
21
47.837944
31
0.360728
12
57.374847
22
50.860985
32
0.521163
13
58.110691
23
29.615841
33
1.652252
0
3DFACE
8
0
70
0
10
58.110691
20
29.615841
30
1.652252
11
57.374847
21
50.860985
31
0.521163
12
75.630692
22
51.251431
32
0.519189
13
79.086998
23
26.390743
33
0.904635
0
3DFACE
8
0
70
0
10
79.086998
20
26.390743
30
0.904635
11
75.630692
21
51.251431
31
0.519189
12
96.404198
22
48.819908
32
0.672172
13
101.094818
23
22.116501
33
0.425028
0
3DFACE
8
0
70
0
10
101.094818
20
22.116501
30
0.425028
11
96.404198
21
48.819908
31
0.672172
12
117.895302
22
44.600151
32
1.704135
13
121.785912
23
18.788048
33
1.067200
0
3DFACE
8
0
70
0
10
121.785912
20
18.788048
30
1.067200
11
117.895302
21
44.600151
31
1.704135
12
137.604233
22
40.653683
32
3.791552
13
138.885315
23
18.772383
33
3.083415
0
3DFACE
8
0
70
0
10
138.885315
20
18.772383
30
3.083415
11
137.604233
21
40.653683
31
3.791552
12
154.466064
22
38.822495
32
6.738337
13
153.186218
23
21.350384
33
6.085043
0
3DFACE
8
0
70
0
10
153.186218
20
21.350384
30
6.085043
11
154.466064
21
38.822495
31
6.738337
12
169.513062
22
39.209316
32
9.251317
13
166.657837
23
25.085041
33
8.698367
0
3DFACE
8
0
70
0
10
166.657837
20
25.085041
30
8.698367
11
169.513062
21
39.209316
31
9.251317
12
184.892883
22
41.118279
32
9.768510
13
181.710785
23
28.435711
33
9.404690
0
3DFACE
8
0
70
0
10
181.710785
20
28.435711
30
9.404690
11
184.892883
21
41.118279
31
9.768510
12
202.403595
22
43.584351
32
7.644800
13
199.867294
23
30.383045
33
7.582060
0
3DFACE
8
0
70
0
10
199.867294
20
30.383045
30
7.582060
11
202.403595
21
43.584351
31
7.644800
12
221.949631
22
45.732700
32
3.722311
13
220.485809
23
30.759726
33
4.083349
0
3DFACE
8
0
70
0
10
-158.060593
20
43.394432
30
-1.414309
11
-159.163162
21
62.337269
31
-1.396685
12
-140.178253
22
61.823906
32
-1.402980
13
-139.199890
23
42.907417
33
-1.377032
0
3DFACE
8
0
70
0
10
-139.199890
20
42.907417
30
-1.377032
11
-140.178253
21
61.823906
31
-1.402980
12
-121.925720
22
61.269581
32
-1.171203
13
-121.896530
23
42.770847
33
-1.021696
0
3DFACE
8
0
70
0
10
-121.896530
20
42.770847
30
-1.021696
11
-121.925720
21
61.269581
31
-1.171203
12
-106.537506
22
61.597912
32
-0.950248
13
-107.644341
23
43.578941
33
-0.732216
0
3DFACE
8
0
70
0
10
-107.644341
20
43.578941
30
-0.732216
11
-106.537506
21
61.597912
31
-0.950248
12
-93.063492
22
63.033962
32
-1.003743
13
-94.460365
23
44.995438
33
-0.911015
0
3DFACE
8
0
70
0
10
-94.460365
20
44.995438
30
-0.911015
11
-93.063492
21
63.033962
31
-1.003743
12
-78.246712
22
64.694389
32
-1.275693
13
-78.563576
23
45.869629
33
-1.494220
0
3DFACE
8
0
70
0
10
-78.563576
20
45.869629
30
-1.494220
11
-78.246712
21
64.694389
31
-1.275693
12
-59.594452
22
65.179359
32
-1.476064
13
-57.995121
23
45.151558
33
-2.005554
0
3DFACE
8
0
70
0
10
-57.995121
20
45.151558
30
-2.005554
11
-59.594452
21
65.179359
31
-1.476064
12
-37.562870
22
63.670246
32
-1.440945
13
-34.521420
23
42.837929
33
-2.036363
0
3DFACE
8
0
70
0
10
-34.521420
20
42.837929
30
-2.036363
11
-37.562870
21
63.670246
31
-1.440945
12
-15.030959
22
60.645325
32
-1.301701
13
-12.185146
23
40.164711
33
-1.588610
0
3DFACE
8
0
70
0
10
-12.185146
20
40.164711
30
-1.588610
11
-15.030959
21
60.645325
31
-1.301701
12
5.020063
22
57.685654
32
-1.275159
13
5.848582
23
38.876949
33
-0.958899
0
3DFACE
8
0
70
0
10
5.848582
20
38.876949
30
-0.958899
11
5.020063
21
57.685654
31
-1.275159
12
21.396400
22
56.555374
32
-1.363737
13
19.324963
23
40.101379
33
-0.397329
0
3DFACE
8
0
70
0
10
19.324963
20
40.101379
30
-0.397329
11
21.396400
21
56.555374
31
-1.363737
12
34.913475
22
58.202953
32
-1.336889
13
30.540949
23
43.594463
33
0.038896
0
3DFACE
8
0
70
0
10
30.540949
20
43.594463
30
0.038896
11
34.913475
21
58.202953
31
-1.336889
12
47.422466
22
62.268250
32
-0.993310
13
42.521229
23
47.837944
33
0.360728
0
3DFACE
8
0
70
0
10
42.521229
20
47.837944
30
0.360728
11
47.422466
21
62.268250
31
-0.993310
12
60.749371
22
67.287743
32
-0.355117
13
57.374847
23
50.860985
33
0.521163
0
3DFACE
8
0
70
0
10
57.374847
20
50.860985
30
0.521163
11
60.749371
21
67.287743
31
-0.355117
12
76.097328
22
71.387840
32
0.457245
13
75.630692
23
51.251431
33
0.519189
0
3DFACE
8
0
70
0
10
75.630692
20
51.251431
30
0.519189
11
76.097328
21
71.387840
31
0.457245
12
93.796654
22
73.073334
32
1.545346
13
96.404198
23
48.819908
33
0.672172
0
3DFACE
8
0
70
0
10
96.404198
20
48.819908
30
0.672172
11
93.796654
21
73.073334
31
1.545346
12
113.211235
22
71.766869
32
3.386686
13
117.895302
23
44.600151
33
1.704135
0
3DFACE
8
0
70
0
10
117.895302
20
44.600151
30
1.704135
11
113.211235
21
71.766869
31
3.386686
12
133.064178
22
67.339111
32
5.687339
13
137.604233
23
40.653683
33
3.791552
0
3DFACE
8
0
70
0
10
137.604233
20
40.653683
30
3.791552
11
133.064178
21
67.339111
31
5.687339
12
151.459854
22
62.774818
32
8.329152
13
154.466064
23
38.822495
33
6.738337
0
3DFACE
8
0
70
0
10
154.466064
20
38.822495
30
6.738337
11
151.459854
21
62.774818
31
8.329152
12
168.554321
22
59.475250
32
10.138899
13
169.513062
23
39.209316
33
9.251317
0
3DFACE
8
0
70
0
10
169.513062
20
39.209316
30
9.251317
11
168.554321
21
59.475250
31
10.138899
12
185.708572
22
58.054703
32
9.775681
13
184.892883
23
41.118279
33
9.768510
0
3DFACE
8
0
70
0
10
184.892883
20
41.118279
30
9.768510
11
185.708572
21
58.054703
31
9.775681
12
204.223877
22
58.335705
32
6.814428
13
202.403595
23
43.584351
33
7.644800
0
3DFACE
8
0
70
0
10
202.403595
20
43.584351
30
7.644800
11
204.223877
21
58.335705
31
6.814428
12
223.875717
22
59.570087
32
2.301079
13
221.949631
23
45.732700
33
3.722311
0
3DFACE
8
0
70
0
10
-159.163162
20
62.337269
30
-1.396685
11
-160.176788
21
81.282349
31
-1.377606
12
-141.668961
22
80.922768
32
-1.414984
13
-140.178253
23
61.823906
33
-1.402980
0
3DFACE
8
0
70
0
10
-140.178253
20
61.823906
30
-1.402980
11
-141.668961
21
80.922768
31
-1.414984
12
-123.078262
22
80.170738
32
-1.289714
13
-121.925720
23
61.269581
33
-1.171203
0
3DFACE
8
0
70
0
10
-121.925720
20
61.269581
30
-1.171203
11
-123.078262
21
80.170738
31
-1.289714
12
-106.362785
22
79.942047
32
-1.146282
13
-106.537506
23
61.597912
33
-0.950248
0
3DFACE
8
0
70
0
10
-106.537506
20
61.597912
30
-0.950248
11
-106.362785
21
79.942047
31
-1.146282
12
-91.675919
22
80.878006
32
-1.137719
13
-93.063492
23
63.033962
33
-1.003743
0
3DFACE
8
0
70
0
10
-93.063492
20
63.033962
30
-1.003743
11
-91.675919
21
80.878006
31
-1.137719
12
-77.016464
22
82.626167
32
-1.197843
13
-78.246712
23
64.694389
33
-1.275693
0
3DFACE
8
0
70
0
10
-78.246712
20
64.694389
30
-1.275693
11
-77.016464
21
82.626167
31
-1.197843
12
-59.951984
22
83.989044
32
-1.142582
13
-59.594452
23
65.179359
33
-1.476064
0
3DFACE
8
0
70
0
10
-59.594452
20
65.179359
30
-1.476064
11
-59.951984
21
83.989044
31
-1.142582
12
-39.918171
22
83.780708
32
-0.956064
13
-37.562870
23
63.670246
33
-1.440945
0
3DFACE
8
0
70
0
10
-37.562870
20
63.670246
30
-1.440945
11
-39.918171
21
83.780708
31
-0.956064
12
-18.458668
22
81.679085
32
-0.871977
13
-15.030959
23
60.645325
33
-1.301701
0
3DFACE
8
0
70
0
10
-15.030959
20
60.645325
30
-1.301701
11
-18.458668
21
81.679085
31
-0.871977
12
2.258194
22
78.476555
32
-1.119030
13
5.020063
23
57.685654
33
-1.275159
0
3DFACE
8
0
70
0
10
5.020063
20
57.685654
30
-1.275159
11
2.258194
21
78.476555
31
-1.119030
12
20.888704
22
75.657555
32
-1.620134
13
21.396400
23
56.555374
33
-1.363737
0
3DFACE
8
0
70
0
10
21.396400
20
56.555374
30
-1.363737
11
20.888704
21
75.657555
31
-1.620134
12
37.291821
22
74.657455
32
-1.995460
13
34.913475
23
58.202953
33
-1.336889
0
3DFACE
8
0
70
0
10
34.913475
20
58.202953
30
-1.336889
11
37.291821
21
74.657455
31
-1.995460
12
52.091236
22
76.225800
32
-1.859146
13
47.422466
23
62.268250
33
-0.993310
0
3DFACE
8
0
70
0
10
47.422466
20
62.268250
30
-0.993310
11
52.091236
21
76.225800
31
-1.859146
12
66.170441
22
80.132172
32
-1.074536
13
60.749371
23
67.287743
33
-0.355117
0
3DFACE
8
0
70
0
10
60.749371
20
67.287743
30
-0.355117
11
66.170441
21
80.132172
31
-1.074536
12
80.415413
22
85.254601
32
0.292163
13
76.097328
23
71.387840
33
0.457245
0
3DFACE
8
0
70
0
10
76.097328
20
71.387840
30
0.457245
11
80.415413
21
85.254601
31
0.292163
12
95.520821
22
89.976425
32
2.230317
13
93.796654
23
73.073334
33
1.545346
0
3DFACE
8
0
70
0
10
93.796654
20
73.073334
30
1.545346
11
95.520821
21
89.976425
31
2.230317
12
111.717926
22
92.753853
32
4.923088
13
113.211235
23
71.766869
33
3.386686
0
3DFACE
8
0
70
0
10
113.211235
20
71.766869
30
3.386686
11
111.717926
21
92.753853
31
4.923088
12
129.253143
22
91.436943
32
7.440405
13
133.064178
23
67.339111
33
5.687339
0
3DFACE
8
0
70
0
10
133.064178
20
67.339111
30
5.687339
11
129.253143
21
91.436943
31
7.440405
12
146.958344
22
88.009743
32
9.566008
13
151.459854
23
62.774818
33
8.329152
0
3DFACE
8
0
70
0
10
151.459854
20
62.774818
30
8.329152
11
146.958344
21
88.009743
31
9.566008
12
164.820572
22
84.019005
32
10.266811
13
168.554321
23
59.475250
33
10.138899
0
3DFACE
8
0
70
0
10
168.554321
20
59.475250
30
10.138899
11
164.820572
21
84.019005
31
10.266811
12
183.533417
22
80.733299
32
8.606019
13
185.708572
23
58.054703
33
9.775681
0
3DFACE
8
0
70
0
10
185.708572
20
58.054703
30
9.775681
11
183.533417
21
80.733299
31
8.606019
12
203.532440
22
78.713806
32
4.652079
13
204.223877
23
58.335705
33
6.814428
0
3DFACE
8
0
70
0
10
204.223877
20
58.335705
30
6.814428
11
203.532440
21
78.713806
31
4.652079
12
223.968918
22
77.740059
32
-0.217747
13
223.875717
23
59.570087
33
2.301079
0
3DFACE
8
0
70
0
10
-160.176788
20
81.282349
30
-1.377606
11
-160.384949
21
100.178741
31
-1.357728
12
-142.300522
22
100.053879
32
-1.408922
13
-141.668961
23
80.922768
33
-1.414984
0
3DFACE
8
0
70
0
10
-141.668961
20
80.922768
30
-1.414984
11
-142.300522
21
100.053879
31
-1.408922
12
-123.758606
22
99.385094
32
-1.365110
13
-123.078262
23
80.170738
33
-1.289714
0
3DFACE
8
0
70
0
10
-123.078262
20
80.170738
30
-1.289714
11
-123.758606
21
99.385094
31
-1.365110
12
-106.474648
22
98.821465
32
-1.302998
13
-106.362785
23
79.942047
33
-1.146282
0
3DFACE
8
0
70
0
10
-106.362785
20
79.942047
30
-1.146282
11
-106.474648
21
98.821465
31
-1.302998
12
-90.750900
22
99.106941
32
-1.299871
13
-91.675919
23
80.878006
33
-1.137719
0
3DFACE
8
0
70
0
10
-91.675919
20
80.878006
30
-1.137719
11
-90.750900
21
99.106941
31
-1.299871
12
-75.519615
22
100.346245
32
-1.268009
13
-77.016464
23
82.626167
33
-1.197843
0
3DFACE
8
0
70
0
10
-77.016464
20
82.626167
30
-1.197843
11
-75.519615
21
100.346245
31
-1.268009
12
-59.221642
22
101.844704
32
-1.053401
13
-59.951984
23
83.989044
33
-1.142582
0
3DFACE
8
0
70
0
10
-59.951984
20
83.989044
30
-1.142582
11
-59.221642
21
101.844704
31
-1.053401
12
-40.890156
22
102.580353
32
-0.686185
13
-39.918171
23
83.780708
33
-0.956064
0
3DFACE
8
0
70
0
10
-39.918171
20
83.780708
30
-0.956064
11
-40.890156
21
102.580353
31
-0.686185
12
-21.054384
22
101.857925
32
-0.446869
13
-18.458668
23
81.679085
33
-0.871977
0
3DFACE
8
0
70
0
10
-18.458668
20
81.679085
30
-0.871977
11
-21.054384
21
101.857925
31
-0.446869
12
-0.981078
22
99.677773
32
-0.624965
13
2.258194
23
78.476555
33
-1.119030
0
3DFACE
8
0
70
0
10
2.258194
20
78.476555
30
-1.119030
11
-0.981078
21
99.677773
31
-0.624965
12
18.378553
22
96.699692
32
-1.208621
13
20.888704
23
75.657555
33
-1.620134
0
3DFACE
8
0
70
0
10
20.888704
20
75.657555
30
-1.620134
11
18.378553
21
96.699692
31
-1.208621
12
36.692879
22
93.958305
32
-1.828453
13
37.291821
23
74.657455
33
-1.995460
0
3DFACE
8
0
70
0
10
37.291821
20
74.657455
30
-1.995460
11
36.692879
21
93.958305
31
-1.828453
12
53.955246
22
92.505173
32
-1.999195
13
52.091236
23
76.225800
33
-1.859146
0
3DFACE
8
0
70
0
10
52.091236
20
76.225800
30
-1.859146
11
53.955246
21
92.505173
31
-1.999195
12
70.205193
22
93.053978
32
-1.401388
13
66.170441
23
80.132172
33
-1.074536
0
3DFACE
8
0
70
0
10
66.170441
20
80.132172
30
-1.074536
11
70.205193
21
93.053978
31
-1.401388
12
85.532661
22
95.688568
32
0.046459
13
80.415413
23
85.254601
33
0.292163
0
3DFACE
8
0
70
0
10
80.415413
20
85.254601
30
0.292163
11
85.532661
21
95.688568
31
0.046459
12
100.164070
22
99.753937
32
2.305505
13
95.520821
23
89.976425
33
2.230317
0
3DFACE
8
0
70
0
10
95.520821
20
89.976425
30
2.230317
11
100.164070
21
99.753937
31
2.305505
12
114.412605
22
104.050232
32
5.283604
13
111.717926
23
92.753853
33
4.923088
0
3DFACE
8
0
70
0
10
111.717926
20
92.753853
30
4.923088
11
114.412605
21
104.050232
31
5.283604
12
129.206009
22
106.530800
32
7.579655
13
129.253143
23
91.436943
33
7.440405
0
3DFACE
8
0
70
0
10
129.253143
20
91.436943
30
7.440405
11
129.206009
21
106.530800
31
7.579655
12
144.929688
22
106.954941
32
8.826334
13
146.958344
23
88.009743
33
9.566008
0
3DFACE
8
0
70
0
10
146.958344
20
88.009743
30
9.566008
11
144.929688
21
106.954941
31
8.826334
12
162.045242
22
105.955994
32
8.219256
13
164.820572
23
84.019005
33
10.266811
0
3DFACE
8
0
70
0
10
164.820572
20
84.019005
30
10.266811
11
162.045242
21
105.955994
31
8.219256
12
181.003815
22
104.348984
32
5.365935
13
183.533417
23
80.733299
33
8.606019
0
3DFACE
8
0
70
0
10
183.533417
20
80.733299
30
8.606019
11
181.003815
21
104.348984
31
5.365935
12
201.539749
22
102.619080
32
0.902021
13
203.532440
23
78.713806
33
4.652079
0
3DFACE
8
0
70
0
10
203.532440
20
78.713806
30
4.652079
11
201.539749
21
102.619080
31
0.902021
12
222.203110
22
100.772346
32
-3.550368
13
223.968918
23
77.740059
33
-0.217747
0
3DFACE
8
0
70
0
10
-160.384949
20
100.178741
30
-1.357728
11
-160.458786
21
119.004227
31
-1.338084
12
-142.743500
22
119.054535
32
-1.385890
13
-142.300522
23
100.053879
33
-1.408922
0
3DFACE
8
0
70
0
10
-142.300522
20
100.053879
30
-1.408922
11
-142.743500
21
119.054535
31
-1.385890
12
-124.346878
22
118.637657
32
-1.393249
13
-123.758606
23
99.385094
33
-1.365110
0
3DFACE
8
0
70
0
10
-123.758606
20
99.385094
30
-1.365110
11
-124.346878
21
118.637657
31
-1.393249
12
-106.657997
22
118.088188
32
-1.401942
13
-106.474648
23
98.821465
33
-1.302998
0
3DFACE
8
0
70
0
10
-106.474648
20
98.821465
30
-1.302998
11
-106.657997
21
118.088188
31
-1.401942
12
-90.212784
22
117.986870
32
-1.449979
13
-90.750900
23
99.106941
33
-1.299871
0
3DFACE
8
0
70
0
10
-90.750900
20
99.106941
30
-1.299871
11
-90.212784
21
117.986870
31
-1.449979
12
-74.338524
22
118.599152
32
-1.436827
13
-75.519615
23
100.346245
33
-1.268009
0
3DFACE
8
0
70
0
10
-75.519615
20
100.346245
30
-1.268009
11
-74.338524
21
118.599152
31
-1.436827
12
-58.145760
22
119.648933
32
-1.196421
13
-59.221642
23
101.844704
33
-1.053401
0
3DFACE
8
0
70
0
10
-59.221642
20
101.844704
30
-1.053401
11
-58.145760
21
119.648933
31
-1.196421
12
-40.768822
22
120.534836
32
-0.722255
13
-40.890156
23
102.580353
33
-0.686185
0
3DFACE
8
0
70
0
10
-40.890156
20
102.580353
30
-0.686185
11
-40.768822
21
120.534836
31
-0.722255
12
-22.252958
22
120.698212
32
-0.264100
13
-21.054384
23
101.857925
33
-0.446869
0
3DFACE
8
0
70
0
10
-21.054384
20
101.857925
30
-0.446869
11
-22.252958
21
120.698212
31
-0.264100
12
-3.316050
22
119.832596
32
-0.153397
13
-0.981078
23
99.677773
33
-0.624965
0
3DFACE
8
0
70
0
10
-0.981078
20
99.677773
30
-0.624965
11
-3.316050
21
119.832596
31
-0.153397
12
15.499022
22
117.907082
32
-0.508927
13
18.378553
23
96.699692
33
-1.208621
0
3DFACE
8
0
70
0
10
18.378553
20
96.699692
30
-1.208621
11
15.499022
21
117.907082
31
-0.508927
12
34.093605
22
115.154266
32
-1.102089
13
36.692879
23
93.958305
33
-1.828453
0
3DFACE
8
0
70
0
10
36.692879
20
93.958305
30
-1.828453
11
34.093605
21
115.154266
31
-1.102089
12
52.500904
22
112.086723
32
-1.490066
13
53.955246
23
92.505173
33
-1.999195
0
3DFACE
8
0
70
0
10
53.955246
20
92.505173
30
-1.999195
11
52.500904
21
112.086723
31
-1.490066
12
70.535759
22
109.446106
32
-1.269571
13
70.205193
23
93.053978
33
-1.401388
0
3DFACE
8
0
70
0
10
70.205193
20
93.053978
30
-1.401388
11
70.535759
21
109.446106
31
-1.269571
12
87.776093
22
107.989525
32
-0.243254
13
85.532661
23
95.688568
33
0.046459
0
3DFACE
8
0
70
0
10
85.532661
20
95.688568
30
0.046459
11
87.776093
21
107.989525
31
-0.243254
12
103.808502
22
108.186638
32
1.550478
13
100.164070
23
99.753937
33
2.305505
0
3DFACE
8
0
70
0
10
100.164070
20
99.753937
30
2.305505
11
103.808502
21
108.186638
31
1.550478
12
118.496727
22
110.035690
32
3.826740
13
114.412605
23
104.050232
33
5.283604
0
3DFACE
8
0
70
0
10
114.412605
20
104.050232
30
5.283604
11
118.496727
21
110.035690
31
3.826740
12
132.394592
22
113.762299
32
5.177348
13
129.206009
23
106.530800
33
7.579655
0
3DFACE
8
0
70
0
10
129.206009
20
106.530800
30
7.579655
11
132.394592
21
113.762299
31
5.177348
12
146.953720
22
117.401817
32
5.189793
13
144.929688
23
106.954941
33
8.826334
0
3DFACE
8
0
70
0
10
144.929688
20
106.954941
30
8.826334
11
146.953720
21
117.401817
31
5.189793
12
163.121384
22
120.498466
32
3.419981
13
162.045242
23
105.955994
33
8.219256
0
3DFACE
8
0
70
0
10
162.045242
20
105.955994
30
8.219256
11
163.121384
21
120.498466
31
3.419981
12
181.344574
22
122.779739
32
0.041393
13
181.003815
23
104.348984
33
5.365935
0
3DFACE
8
0
70
0
10
181.003815
20
104.348984
30
5.365935
11
181.344574
21
122.779739
31
0.041393
12
201.049774
22
123.908615
32
-3.899270
13
201.539749
23
102.619080
33
0.902021
0
3DFACE
8
0
70
0
10
201.539749
20
102.619080
30
0.902021
11
201.049774
21
123.908615
31
-3.899270
12
220.645325
22
123.571396
32
-6.838017
13
222.203110
23
100.772346
33
-3.550368
0
ENDSEC
0
EOF
