0
SECTION
2
HEADER
999
DXF File Generated by LightWave 3D(TM)
0
ENDSEC
0
SECTION
2
TABLES
0
ENDSEC
0
SECTION
2
BLOCKS
0
ENDSEC
0
SECTION
2
ENTITIES
0
3DFACE
8
0
70
0
10
-700.000000
20
-49.985458
30
600.000000
11
-600.000000
21
-49.985458
31
600.000000
12
-600.000000
22
-49.985458
32
500.000000
13
-700.000000
23
-49.985458
33
500.000000
0
3DFACE
8
0
70
0
10
-700.000000
20
-49.985458
30
500.000000
11
-600.000000
21
-49.985458
31
500.000000
12
-600.000000
22
-49.985458
32
400.000000
13
-700.000000
23
-49.985458
33
400.000000
0
3DFACE
8
0
70
0
10
-700.000000
20
-49.985458
30
400.000000
11
-600.000000
21
-49.985458
31
400.000000
12
-600.000000
22
-49.985458
32
300.000000
13
-700.000000
23
-49.985458
33
300.000000
0
3DFACE
8
0
70
0
10
-700.000000
20
-49.985458
30
300.000000
11
-600.000000
21
-49.985458
31
300.000000
12
-600.000000
22
-49.985458
32
199.999985
13
-700.000000
23
-49.985458
33
199.999985
0
3DFACE
8
0
70
0
10
-700.000000
20
-49.985458
30
199.999985
11
-600.000000
21
-49.985458
31
199.999985
12
-600.000000
22
-49.985458
32
100.000015
13
-700.000000
23
-49.985458
33
100.000015
0
3DFACE
8
0
70
0
10
-700.000000
20
-49.985458
30
100.000015
11
-600.000000
21
-49.985458
31
100.000015
12
-600.000000
22
-49.985458
32
0.000000
13
-700.000000
23
-49.985458
33
0.000000
0
3DFACE
8
0
70
0
10
-700.000000
20
-49.985458
30
0.000000
11
-600.000000
21
-49.985458
31
0.000000
12
-600.000000
22
-49.985458
32
-99.999977
13
-700.000000
23
-49.985458
33
-99.999977
0
3DFACE
8
0
70
0
10
-700.000000
20
-49.985458
30
-99.999977
11
-600.000000
21
-49.985458
31
-99.999977
12
-600.000000
22
-49.985458
32
-200.000031
13
-700.000000
23
-49.985458
33
-200.000031
0
3DFACE
8
0
70
0
10
-700.000000
20
-49.985458
30
-200.000031
11
-600.000000
21
-49.985458
31
-200.000031
12
-600.000000
22
-49.985458
32
-300.000000
13
-700.000000
23
-49.985458
33
-300.000000
0
3DFACE
8
0
70
0
10
-700.000000
20
-49.985458
30
-300.000000
11
-600.000000
21
-49.985458
31
-300.000000
12
-600.000000
22
-49.985458
32
-399.999969
13
-700.000000
23
-49.985458
33
-399.999969
0
3DFACE
8
0
70
0
10
-700.000000
20
-49.985458
30
-399.999969
11
-600.000000
21
-49.985458
31
-399.999969
12
-600.000000
22
-49.985458
32
-500.000031
13
-700.000000
23
-49.985458
33
-500.000031
0
3DFACE
8
0
70
0
10
-700.000000
20
-49.985458
30
-500.000031
11
-600.000000
21
-49.985458
31
-500.000031
12
-600.000000
22
-49.985458
32
-600.000000
13
-700.000000
23
-49.985458
33
-600.000000
0
3DFACE
8
0
70
0
10
-600.000000
20
-49.985458
30
600.000000
11
-500.000000
21
-49.985458
31
600.000000
12
-500.000000
22
-49.985458
32
500.000000
13
-600.000000
23
-49.985458
33
500.000000
0
3DFACE
8
0
70
0
10
-600.000000
20
-49.985458
30
500.000000
11
-500.000000
21
-49.985458
31
500.000000
12
-500.000000
22
-49.985458
32
400.000000
13
-600.000000
23
-49.985458
33
400.000000
0
3DFACE
8
0
70
0
10
-600.000000
20
-49.985458
30
400.000000
11
-500.000000
21
-49.985458
31
400.000000
12
-500.000000
22
-49.985458
32
300.000000
13
-600.000000
23
-49.985458
33
300.000000
0
3DFACE
8
0
70
0
10
-600.000000
20
-49.985458
30
300.000000
11
-500.000000
21
-49.985458
31
300.000000
12
-500.000000
22
-49.985458
32
199.999985
13
-600.000000
23
-49.985458
33
199.999985
0
3DFACE
8
0
70
0
10
-600.000000
20
-49.985458
30
199.999985
11
-500.000000
21
-49.985458
31
199.999985
12
-500.000000
22
-49.985458
32
100.000015
13
-600.000000
23
-49.985458
33
100.000015
0
3DFACE
8
0
70
0
10
-600.000000
20
-49.985458
30
100.000015
11
-500.000000
21
-49.985458
31
100.000015
12
-500.000000
22
-49.985458
32
0.000000
13
-600.000000
23
-49.985458
33
0.000000
0
3DFACE
8
0
70
0
10
-600.000000
20
-49.985458
30
0.000000
11
-500.000000
21
-49.985458
31
0.000000
12
-500.000000
22
-49.985458
32
-99.999977
13
-600.000000
23
-49.985458
33
-99.999977
0
3DFACE
8
0
70
0
10
-600.000000
20
-49.985458
30
-99.999977
11
-500.000000
21
-49.985458
31
-99.999977
12
-500.000000
22
-49.985458
32
-200.000031
13
-600.000000
23
-49.985458
33
-200.000031
0
3DFACE
8
0
70
0
10
-600.000000
20
-49.985458
30
-200.000031
11
-500.000000
21
-49.985458
31
-200.000031
12
-500.000000
22
-49.985458
32
-300.000000
13
-600.000000
23
-49.985458
33
-300.000000
0
3DFACE
8
0
70
0
10
-600.000000
20
-49.985458
30
-300.000000
11
-500.000000
21
-49.985458
31
-300.000000
12
-500.000000
22
-49.985458
32
-399.999969
13
-600.000000
23
-49.985458
33
-399.999969
0
3DFACE
8
0
70
0
10
-600.000000
20
-49.985458
30
-399.999969
11
-500.000000
21
-49.985458
31
-399.999969
12
-500.000000
22
-49.985458
32
-500.000031
13
-600.000000
23
-49.985458
33
-500.000031
0
3DFACE
8
0
70
0
10
-600.000000
20
-49.985458
30
-500.000031
11
-500.000000
21
-49.985458
31
-500.000031
12
-500.000000
22
-49.985458
32
-600.000000
13
-600.000000
23
-49.985458
33
-600.000000
0
3DFACE
8
0
70
0
10
-500.000000
20
-49.985458
30
600.000000
11
-400.000000
21
-49.985458
31
600.000000
12
-400.000000
22
-49.985458
32
500.000000
13
-500.000000
23
-49.985458
33
500.000000
0
3DFACE
8
0
70
0
10
-500.000000
20
-49.985458
30
500.000000
11
-400.000000
21
-49.985458
31
500.000000
12
-400.000000
22
-49.985458
32
400.000000
13
-500.000000
23
-49.985458
33
400.000000
0
3DFACE
8
0
70
0
10
-500.000000
20
-49.985458
30
400.000000
11
-400.000000
21
-49.985458
31
400.000000
12
-400.000000
22
-49.985458
32
300.000000
13
-500.000000
23
-49.985458
33
300.000000
0
3DFACE
8
0
70
0
10
-500.000000
20
-49.985458
30
300.000000
11
-400.000000
21
-49.985458
31
300.000000
12
-400.000000
22
-49.985458
32
199.999985
13
-500.000000
23
-49.985458
33
199.999985
0
3DFACE
8
0
70
0
10
-500.000000
20
-49.985458
30
199.999985
11
-400.000000
21
-49.985458
31
199.999985
12
-400.000000
22
-49.985458
32
100.000015
13
-500.000000
23
-49.985458
33
100.000015
0
3DFACE
8
0
70
0
10
-500.000000
20
-49.985458
30
100.000015
11
-400.000000
21
-49.985458
31
100.000015
12
-400.000000
22
-49.985458
32
0.000000
13
-500.000000
23
-49.985458
33
0.000000
0
3DFACE
8
0
70
0
10
-500.000000
20
-49.985458
30
0.000000
11
-400.000000
21
-49.985458
31
0.000000
12
-400.000000
22
-49.985458
32
-99.999977
13
-500.000000
23
-49.985458
33
-99.999977
0
3DFACE
8
0
70
0
10
-500.000000
20
-49.985458
30
-99.999977
11
-400.000000
21
-49.985458
31
-99.999977
12
-400.000000
22
-49.985458
32
-200.000031
13
-500.000000
23
-49.985458
33
-200.000031
0
3DFACE
8
0
70
0
10
-500.000000
20
-49.985458
30
-200.000031
11
-400.000000
21
-49.985458
31
-200.000031
12
-400.000000
22
-49.985458
32
-300.000000
13
-500.000000
23
-49.985458
33
-300.000000
0
3DFACE
8
0
70
0
10
-500.000000
20
-49.985458
30
-300.000000
11
-400.000000
21
-49.985458
31
-300.000000
12
-400.000000
22
-49.985458
32
-399.999969
13
-500.000000
23
-49.985458
33
-399.999969
0
3DFACE
8
0
70
0
10
-500.000000
20
-49.985458
30
-399.999969
11
-400.000000
21
-49.985458
31
-399.999969
12
-400.000000
22
-49.985458
32
-500.000031
13
-500.000000
23
-49.985458
33
-500.000031
0
3DFACE
8
0
70
0
10
-500.000000
20
-49.985458
30
-500.000031
11
-400.000000
21
-49.985458
31
-500.000031
12
-400.000000
22
-49.985458
32
-600.000000
13
-500.000000
23
-49.985458
33
-600.000000
0
3DFACE
8
0
70
0
10
-400.000000
20
-49.985458
30
600.000000
11
-300.000000
21
-49.985458
31
600.000000
12
-300.000000
22
-49.985458
32
500.000000
13
-400.000000
23
-49.985458
33
500.000000
0
3DFACE
8
0
70
0
10
-400.000000
20
-49.985458
30
500.000000
11
-300.000000
21
-49.985458
31
500.000000
12
-300.000000
22
-49.985458
32
400.000000
13
-400.000000
23
-49.985458
33
400.000000
0
3DFACE
8
0
70
0
10
-400.000000
20
-49.985458
30
400.000000
11
-300.000000
21
-49.985458
31
400.000000
12
-300.000000
22
-49.985458
32
300.000000
13
-400.000000
23
-49.985458
33
300.000000
0
3DFACE
8
0
70
0
10
-400.000000
20
-49.985458
30
300.000000
11
-300.000000
21
-49.985458
31
300.000000
12
-300.000000
22
-49.985458
32
199.999985
13
-400.000000
23
-49.985458
33
199.999985
0
3DFACE
8
0
70
0
10
-400.000000
20
-49.985458
30
199.999985
11
-300.000000
21
-49.985458
31
199.999985
12
-300.000000
22
-49.985458
32
100.000015
13
-400.000000
23
-49.985458
33
100.000015
0
3DFACE
8
0
70
0
10
-400.000000
20
-49.985458
30
100.000015
11
-300.000000
21
-49.985458
31
100.000015
12
-300.000000
22
-49.985458
32
0.000000
13
-400.000000
23
-49.985458
33
0.000000
0
3DFACE
8
0
70
0
10
-400.000000
20
-49.985458
30
0.000000
11
-300.000000
21
-49.985458
31
0.000000
12
-300.000000
22
-49.985458
32
-99.999977
13
-400.000000
23
-49.985458
33
-99.999977
0
3DFACE
8
0
70
0
10
-400.000000
20
-49.985458
30
-99.999977
11
-300.000000
21
-49.985458
31
-99.999977
12
-300.000000
22
-49.985458
32
-200.000031
13
-400.000000
23
-49.985458
33
-200.000031
0
3DFACE
8
0
70
0
10
-400.000000
20
-49.985458
30
-200.000031
11
-300.000000
21
-49.985458
31
-200.000031
12
-300.000000
22
-49.985458
32
-300.000000
13
-400.000000
23
-49.985458
33
-300.000000
0
3DFACE
8
0
70
0
10
-400.000000
20
-49.985458
30
-300.000000
11
-300.000000
21
-49.985458
31
-300.000000
12
-300.000000
22
-49.985458
32
-399.999969
13
-400.000000
23
-49.985458
33
-399.999969
0
3DFACE
8
0
70
0
10
-400.000000
20
-49.985458
30
-399.999969
11
-300.000000
21
-49.985458
31
-399.999969
12
-300.000000
22
-49.985458
32
-500.000031
13
-400.000000
23
-49.985458
33
-500.000031
0
3DFACE
8
0
70
0
10
-400.000000
20
-49.985458
30
-500.000031
11
-300.000000
21
-49.985458
31
-500.000031
12
-300.000000
22
-49.985458
32
-600.000000
13
-400.000000
23
-49.985458
33
-600.000000
0
3DFACE
8
0
70
0
10
-300.000000
20
-49.985458
30
600.000000
11
-199.999985
21
-49.985458
31
600.000000
12
-199.999985
22
-49.985458
32
500.000000
13
-300.000000
23
-49.985458
33
500.000000
0
3DFACE
8
0
70
0
10
-300.000000
20
-49.985458
30
500.000000
11
-199.999985
21
-49.985458
31
500.000000
12
-199.999985
22
-49.985458
32
400.000000
13
-300.000000
23
-49.985458
33
400.000000
0
3DFACE
8
0
70
0
10
-300.000000
20
-49.985458
30
400.000000
11
-199.999985
21
-49.985458
31
400.000000
12
-199.999985
22
-49.985458
32
300.000000
13
-300.000000
23
-49.985458
33
300.000000
0
3DFACE
8
0
70
0
10
-300.000000
20
-49.985458
30
300.000000
11
-199.999985
21
-49.985458
31
300.000000
12
-199.999985
22
-49.985458
32
199.999985
13
-300.000000
23
-49.985458
33
199.999985
0
3DFACE
8
0
70
0
10
-300.000000
20
-49.985458
30
199.999985
11
-199.999985
21
-49.985458
31
199.999985
12
-199.999985
22
-49.985458
32
100.000015
13
-300.000000
23
-49.985458
33
100.000015
0
3DFACE
8
0
70
0
10
-300.000000
20
-49.985458
30
100.000015
11
-199.999985
21
-49.985458
31
100.000015
12
-199.999985
22
-49.985458
32
0.000000
13
-300.000000
23
-49.985458
33
0.000000
0
3DFACE
8
0
70
0
10
-300.000000
20
-49.985458
30
0.000000
11
-199.999985
21
-49.985458
31
0.000000
12
-199.999985
22
-49.985458
32
-99.999977
13
-300.000000
23
-49.985458
33
-99.999977
0
3DFACE
8
0
70
0
10
-300.000000
20
-49.985458
30
-99.999977
11
-199.999985
21
-49.985458
31
-99.999977
12
-199.999985
22
-49.985458
32
-200.000031
13
-300.000000
23
-49.985458
33
-200.000031
0
3DFACE
8
0
70
0
10
-300.000000
20
-49.985458
30
-200.000031
11
-199.999985
21
-49.985458
31
-200.000031
12
-199.999985
22
-49.985458
32
-300.000000
13
-300.000000
23
-49.985458
33
-300.000000
0
3DFACE
8
0
70
0
10
-300.000000
20
-49.985458
30
-300.000000
11
-199.999985
21
-49.985458
31
-300.000000
12
-199.999985
22
-49.985458
32
-399.999969
13
-300.000000
23
-49.985458
33
-399.999969
0
3DFACE
8
0
70
0
10
-300.000000
20
-49.985458
30
-399.999969
11
-199.999985
21
-49.985458
31
-399.999969
12
-199.999985
22
-49.985458
32
-500.000031
13
-300.000000
23
-49.985458
33
-500.000031
0
3DFACE
8
0
70
0
10
-300.000000
20
-49.985458
30
-500.000031
11
-199.999985
21
-49.985458
31
-500.000031
12
-199.999985
22
-49.985458
32
-600.000000
13
-300.000000
23
-49.985458
33
-600.000000
0
3DFACE
8
0
70
0
10
-199.999985
20
-49.985458
30
600.000000
11
-99.999992
21
-49.985458
31
600.000000
12
-99.999992
22
-49.985458
32
500.000000
13
-199.999985
23
-49.985458
33
500.000000
0
3DFACE
8
0
70
0
10
-199.999985
20
-49.985458
30
500.000000
11
-99.999992
21
-49.985458
31
500.000000
12
-99.999992
22
-49.985458
32
400.000000
13
-199.999985
23
-49.985458
33
400.000000
0
3DFACE
8
0
70
0
10
-199.999985
20
-49.985458
30
400.000000
11
-99.999992
21
-49.985458
31
400.000000
12
-99.999992
22
-49.985458
32
300.000000
13
-199.999985
23
-49.985458
33
300.000000
0
3DFACE
8
0
70
0
10
-199.999985
20
-49.985458
30
300.000000
11
-99.999992
21
-49.985458
31
300.000000
12
-99.999992
22
-49.985458
32
199.999985
13
-199.999985
23
-49.985458
33
199.999985
0
3DFACE
8
0
70
0
10
-199.999985
20
-49.985458
30
199.999985
11
-99.999992
21
-49.985458
31
199.999985
12
-99.999992
22
-49.985458
32
100.000015
13
-199.999985
23
-49.985458
33
100.000015
0
3DFACE
8
0
70
0
10
-199.999985
20
-49.985458
30
100.000015
11
-99.999992
21
-49.985458
31
100.000015
12
-99.999992
22
-49.985458
32
0.000000
13
-199.999985
23
-49.985458
33
0.000000
0
3DFACE
8
0
70
0
10
-199.999985
20
-49.985458
30
0.000000
11
-99.999992
21
-49.985458
31
0.000000
12
-99.999992
22
-49.985458
32
-99.999977
13
-199.999985
23
-49.985458
33
-99.999977
0
3DFACE
8
0
70
0
10
-199.999985
20
-49.985458
30
-99.999977
11
-99.999992
21
-49.985458
31
-99.999977
12
-99.999992
22
-49.985458
32
-200.000031
13
-199.999985
23
-49.985458
33
-200.000031
0
3DFACE
8
0
70
0
10
-199.999985
20
-49.985458
30
-200.000031
11
-99.999992
21
-49.985458
31
-200.000031
12
-99.999992
22
-49.985458
32
-300.000000
13
-199.999985
23
-49.985458
33
-300.000000
0
3DFACE
8
0
70
0
10
-199.999985
20
-49.985458
30
-300.000000
11
-99.999992
21
-49.985458
31
-300.000000
12
-99.999992
22
-49.985458
32
-399.999969
13
-199.999985
23
-49.985458
33
-399.999969
0
3DFACE
8
0
70
0
10
-199.999985
20
-49.985458
30
-399.999969
11
-99.999992
21
-49.985458
31
-399.999969
12
-99.999992
22
-49.985458
32
-500.000031
13
-199.999985
23
-49.985458
33
-500.000031
0
3DFACE
8
0
70
0
10
-199.999985
20
-49.985458
30
-500.000031
11
-99.999992
21
-49.985458
31
-500.000031
12
-99.999992
22
-49.985458
32
-600.000000
13
-199.999985
23
-49.985458
33
-600.000000
0
3DFACE
8
0
70
0
10
-99.999992
20
-49.985458
30
600.000000
11
0.000000
21
-49.985458
31
600.000000
12
0.000000
22
-49.985458
32
500.000000
13
-99.999992
23
-49.985458
33
500.000000
0
3DFACE
8
0
70
0
10
-99.999992
20
-49.985458
30
500.000000
11
0.000000
21
-49.985458
31
500.000000
12
0.000000
22
-49.985458
32
400.000000
13
-99.999992
23
-49.985458
33
400.000000
0
3DFACE
8
0
70
0
10
-99.999992
20
-49.985458
30
400.000000
11
0.000000
21
-49.985458
31
400.000000
12
0.000000
22
-49.985458
32
300.000000
13
-99.999992
23
-49.985458
33
300.000000
0
3DFACE
8
0
70
0
10
-99.999992
20
-49.985458
30
300.000000
11
0.000000
21
-49.985458
31
300.000000
12
0.000000
22
-49.985458
32
199.999985
13
-99.999992
23
-49.985458
33
199.999985
0
3DFACE
8
0
70
0
10
-99.999992
20
-49.985458
30
199.999985
11
0.000000
21
-49.985458
31
199.999985
12
0.000000
22
-49.985458
32
100.000015
13
-99.999992
23
-49.985458
33
100.000015
0
3DFACE
8
0
70
0
10
-99.999992
20
-49.985458
30
100.000015
11
0.000000
21
-49.985458
31
100.000015
12
0.000000
22
-49.985458
32
0.000000
13
-99.999992
23
-49.985458
33
0.000000
0
3DFACE
8
0
70
0
10
-99.999992
20
-49.985458
30
0.000000
11
0.000000
21
-49.985458
31
0.000000
12
0.000000
22
-49.985458
32
-99.999977
13
-99.999992
23
-49.985458
33
-99.999977
0
3DFACE
8
0
70
0
10
-99.999992
20
-49.985458
30
-99.999977
11
0.000000
21
-49.985458
31
-99.999977
12
0.000000
22
-49.985458
32
-200.000031
13
-99.999992
23
-49.985458
33
-200.000031
0
3DFACE
8
0
70
0
10
-99.999992
20
-49.985458
30
-200.000031
11
0.000000
21
-49.985458
31
-200.000031
12
0.000000
22
-49.985458
32
-300.000000
13
-99.999992
23
-49.985458
33
-300.000000
0
3DFACE
8
0
70
0
10
-99.999992
20
-49.985458
30
-300.000000
11
0.000000
21
-49.985458
31
-300.000000
12
0.000000
22
-49.985458
32
-399.999969
13
-99.999992
23
-49.985458
33
-399.999969
0
3DFACE
8
0
70
0
10
-99.999992
20
-49.985458
30
-399.999969
11
0.000000
21
-49.985458
31
-399.999969
12
0.000000
22
-49.985458
32
-500.000031
13
-99.999992
23
-49.985458
33
-500.000031
0
3DFACE
8
0
70
0
10
-99.999992
20
-49.985458
30
-500.000031
11
0.000000
21
-49.985458
31
-500.000031
12
0.000000
22
-49.985458
32
-600.000000
13
-99.999992
23
-49.985458
33
-600.000000
0
3DFACE
8
0
70
0
10
0.000000
20
-49.985458
30
600.000000
11
100.000031
21
-49.985458
31
600.000000
12
100.000031
22
-49.985458
32
500.000000
13
0.000000
23
-49.985458
33
500.000000
0
3DFACE
8
0
70
0
10
0.000000
20
-49.985458
30
500.000000
11
100.000031
21
-49.985458
31
500.000000
12
100.000031
22
-49.985458
32
400.000000
13
0.000000
23
-49.985458
33
400.000000
0
3DFACE
8
0
70
0
10
0.000000
20
-49.985458
30
400.000000
11
100.000031
21
-49.985458
31
400.000000
12
100.000031
22
-49.985458
32
300.000000
13
0.000000
23
-49.985458
33
300.000000
0
3DFACE
8
0
70
0
10
0.000000
20
-49.985458
30
300.000000
11
100.000031
21
-49.985458
31
300.000000
12
100.000031
22
-49.985458
32
199.999985
13
0.000000
23
-49.985458
33
199.999985
0
3DFACE
8
0
70
0
10
0.000000
20
-49.985458
30
199.999985
11
100.000031
21
-49.985458
31
199.999985
12
100.000031
22
-49.985458
32
100.000015
13
0.000000
23
-49.985458
33
100.000015
0
3DFACE
8
0
70
0
10
0.000000
20
-49.985458
30
100.000015
11
100.000031
21
-49.985458
31
100.000015
12
100.000031
22
-49.985458
32
0.000000
13
0.000000
23
-49.985458
33
0.000000
0
3DFACE
8
0
70
0
10
0.000000
20
-49.985458
30
0.000000
11
100.000031
21
-49.985458
31
0.000000
12
100.000031
22
-49.985458
32
-99.999977
13
0.000000
23
-49.985458
33
-99.999977
0
3DFACE
8
0
70
0
10
0.000000
20
-49.985458
30
-99.999977
11
100.000031
21
-49.985458
31
-99.999977
12
100.000031
22
-49.985458
32
-200.000031
13
0.000000
23
-49.985458
33
-200.000031
0
3DFACE
8
0
70
0
10
0.000000
20
-49.985458
30
-200.000031
11
100.000031
21
-49.985458
31
-200.000031
12
100.000031
22
-49.985458
32
-300.000000
13
0.000000
23
-49.985458
33
-300.000000
0
3DFACE
8
0
70
0
10
0.000000
20
-49.985458
30
-300.000000
11
100.000031
21
-49.985458
31
-300.000000
12
100.000031
22
-49.985458
32
-399.999969
13
0.000000
23
-49.985458
33
-399.999969
0
3DFACE
8
0
70
0
10
0.000000
20
-49.985458
30
-399.999969
11
100.000031
21
-49.985458
31
-399.999969
12
100.000031
22
-49.985458
32
-500.000031
13
0.000000
23
-49.985458
33
-500.000031
0
3DFACE
8
0
70
0
10
0.000000
20
-49.985458
30
-500.000031
11
100.000031
21
-49.985458
31
-500.000031
12
100.000031
22
-49.985458
32
-600.000000
13
0.000000
23
-49.985458
33
-600.000000
0
3DFACE
8
0
70
0
10
100.000031
20
-49.985458
30
600.000000
11
200.000000
21
-49.985458
31
600.000000
12
200.000000
22
-49.985458
32
500.000000
13
100.000031
23
-49.985458
33
500.000000
0
3DFACE
8
0
70
0
10
100.000031
20
-49.985458
30
500.000000
11
200.000000
21
-49.985458
31
500.000000
12
200.000000
22
-49.985458
32
400.000000
13
100.000031
23
-49.985458
33
400.000000
0
3DFACE
8
0
70
0
10
100.000031
20
-49.985458
30
400.000000
11
200.000000
21
-49.985458
31
400.000000
12
200.000000
22
-49.985458
32
300.000000
13
100.000031
23
-49.985458
33
300.000000
0
3DFACE
8
0
70
0
10
100.000031
20
-49.985458
30
300.000000
11
200.000000
21
-49.985458
31
300.000000
12
200.000000
22
-49.985458
32
199.999985
13
100.000031
23
-49.985458
33
199.999985
0
3DFACE
8
0
70
0
10
100.000031
20
-49.985458
30
199.999985
11
200.000000
21
-49.985458
31
199.999985
12
200.000000
22
-49.985458
32
100.000015
13
100.000031
23
-49.985458
33
100.000015
0
3DFACE
8
0
70
0
10
100.000031
20
-49.985458
30
100.000015
11
200.000000
21
-49.985458
31
100.000015
12
200.000000
22
-49.985458
32
0.000000
13
100.000031
23
-49.985458
33
0.000000
0
3DFACE
8
0
70
0
10
100.000031
20
-49.985458
30
0.000000
11
200.000000
21
-49.985458
31
0.000000
12
200.000000
22
-49.985458
32
-99.999977
13
100.000031
23
-49.985458
33
-99.999977
0
3DFACE
8
0
70
0
10
100.000031
20
-49.985458
30
-99.999977
11
200.000000
21
-49.985458
31
-99.999977
12
200.000000
22
-49.985458
32
-200.000031
13
100.000031
23
-49.985458
33
-200.000031
0
3DFACE
8
0
70
0
10
100.000031
20
-49.985458
30
-200.000031
11
200.000000
21
-49.985458
31
-200.000031
12
200.000000
22
-49.985458
32
-300.000000
13
100.000031
23
-49.985458
33
-300.000000
0
3DFACE
8
0
70
0
10
100.000031
20
-49.985458
30
-300.000000
11
200.000000
21
-49.985458
31
-300.000000
12
200.000000
22
-49.985458
32
-399.999969
13
100.000031
23
-49.985458
33
-399.999969
0
3DFACE
8
0
70
0
10
100.000031
20
-49.985458
30
-399.999969
11
200.000000
21
-49.985458
31
-399.999969
12
200.000000
22
-49.985458
32
-500.000031
13
100.000031
23
-49.985458
33
-500.000031
0
3DFACE
8
0
70
0
10
100.000031
20
-49.985458
30
-500.000031
11
200.000000
21
-49.985458
31
-500.000031
12
200.000000
22
-49.985458
32
-600.000000
13
100.000031
23
-49.985458
33
-600.000000
0
3DFACE
8
0
70
0
10
200.000000
20
-49.985458
30
600.000000
11
300.000031
21
-49.985458
31
600.000000
12
300.000031
22
-49.985458
32
500.000000
13
200.000000
23
-49.985458
33
500.000000
0
3DFACE
8
0
70
0
10
200.000000
20
-49.985458
30
500.000000
11
300.000031
21
-49.985458
31
500.000000
12
300.000031
22
-49.985458
32
400.000000
13
200.000000
23
-49.985458
33
400.000000
0
3DFACE
8
0
70
0
10
200.000000
20
-49.985458
30
400.000000
11
300.000031
21
-49.985458
31
400.000000
12
300.000031
22
-49.985458
32
300.000000
13
200.000000
23
-49.985458
33
300.000000
0
3DFACE
8
0
70
0
10
200.000000
20
-49.985458
30
300.000000
11
300.000031
21
-49.985458
31
300.000000
12
300.000031
22
-49.985458
32
199.999985
13
200.000000
23
-49.985458
33
199.999985
0
3DFACE
8
0
70
0
10
200.000000
20
-49.985458
30
199.999985
11
300.000031
21
-49.985458
31
199.999985
12
300.000031
22
-49.985458
32
100.000015
13
200.000000
23
-49.985458
33
100.000015
0
3DFACE
8
0
70
0
10
200.000000
20
-49.985458
30
100.000015
11
300.000031
21
-49.985458
31
100.000015
12
300.000031
22
-49.985458
32
0.000000
13
200.000000
23
-49.985458
33
0.000000
0
3DFACE
8
0
70
0
10
200.000000
20
-49.985458
30
0.000000
11
300.000031
21
-49.985458
31
0.000000
12
300.000031
22
-49.985458
32
-99.999977
13
200.000000
23
-49.985458
33
-99.999977
0
3DFACE
8
0
70
0
10
200.000000
20
-49.985458
30
-99.999977
11
300.000031
21
-49.985458
31
-99.999977
12
300.000031
22
-49.985458
32
-200.000031
13
200.000000
23
-49.985458
33
-200.000031
0
3DFACE
8
0
70
0
10
200.000000
20
-49.985458
30
-200.000031
11
300.000031
21
-49.985458
31
-200.000031
12
300.000031
22
-49.985458
32
-300.000000
13
200.000000
23
-49.985458
33
-300.000000
0
3DFACE
8
0
70
0
10
200.000000
20
-49.985458
30
-300.000000
11
300.000031
21
-49.985458
31
-300.000000
12
300.000031
22
-49.985458
32
-399.999969
13
200.000000
23
-49.985458
33
-399.999969
0
3DFACE
8
0
70
0
10
200.000000
20
-49.985458
30
-399.999969
11
300.000031
21
-49.985458
31
-399.999969
12
300.000031
22
-49.985458
32
-500.000031
13
200.000000
23
-49.985458
33
-500.000031
0
3DFACE
8
0
70
0
10
200.000000
20
-49.985458
30
-500.000031
11
300.000031
21
-49.985458
31
-500.000031
12
300.000031
22
-49.985458
32
-600.000000
13
200.000000
23
-49.985458
33
-600.000000
0
3DFACE
8
0
70
0
10
300.000031
20
-49.985458
30
600.000000
11
399.999969
21
-49.985458
31
600.000000
12
399.999969
22
-49.985458
32
500.000000
13
300.000031
23
-49.985458
33
500.000000
0
3DFACE
8
0
70
0
10
300.000031
20
-49.985458
30
500.000000
11
399.999969
21
-49.985458
31
500.000000
12
399.999969
22
-49.985458
32
400.000000
13
300.000031
23
-49.985458
33
400.000000
0
3DFACE
8
0
70
0
10
300.000031
20
-49.985458
30
400.000000
11
399.999969
21
-49.985458
31
400.000000
12
399.999969
22
-49.985458
32
300.000000
13
300.000031
23
-49.985458
33
300.000000
0
3DFACE
8
0
70
0
10
300.000031
20
-49.985458
30
300.000000
11
399.999969
21
-49.985458
31
300.000000
12
399.999969
22
-49.985458
32
199.999985
13
300.000031
23
-49.985458
33
199.999985
0
3DFACE
8
0
70
0
10
300.000031
20
-49.985458
30
199.999985
11
399.999969
21
-49.985458
31
199.999985
12
399.999969
22
-49.985458
32
100.000015
13
300.000031
23
-49.985458
33
100.000015
0
3DFACE
8
0
70
0
10
300.000031
20
-49.985458
30
100.000015
11
399.999969
21
-49.985458
31
100.000015
12
399.999969
22
-49.985458
32
0.000000
13
300.000031
23
-49.985458
33
0.000000
0
3DFACE
8
0
70
0
10
300.000031
20
-49.985458
30
0.000000
11
399.999969
21
-49.985458
31
0.000000
12
399.999969
22
-49.985458
32
-99.999977
13
300.000031
23
-49.985458
33
-99.999977
0
3DFACE
8
0
70
0
10
300.000031
20
-49.985458
30
-99.999977
11
399.999969
21
-49.985458
31
-99.999977
12
399.999969
22
-49.985458
32
-200.000031
13
300.000031
23
-49.985458
33
-200.000031
0
3DFACE
8
0
70
0
10
300.000031
20
-49.985458
30
-200.000031
11
399.999969
21
-49.985458
31
-200.000031
12
399.999969
22
-49.985458
32
-300.000000
13
300.000031
23
-49.985458
33
-300.000000
0
3DFACE
8
0
70
0
10
300.000031
20
-49.985458
30
-300.000000
11
399.999969
21
-49.985458
31
-300.000000
12
399.999969
22
-49.985458
32
-399.999969
13
300.000031
23
-49.985458
33
-399.999969
0
3DFACE
8
0
70
0
10
300.000031
20
-49.985458
30
-399.999969
11
399.999969
21
-49.985458
31
-399.999969
12
399.999969
22
-49.985458
32
-500.000031
13
300.000031
23
-49.985458
33
-500.000031
0
3DFACE
8
0
70
0
10
300.000031
20
-49.985458
30
-500.000031
11
399.999969
21
-49.985458
31
-500.000031
12
399.999969
22
-49.985458
32
-600.000000
13
300.000031
23
-49.985458
33
-600.000000
0
3DFACE
8
0
70
0
10
399.999969
20
-49.985458
30
600.000000
11
500.000000
21
-49.985458
31
600.000000
12
500.000000
22
-49.985458
32
500.000000
13
399.999969
23
-49.985458
33
500.000000
0
3DFACE
8
0
70
0
10
399.999969
20
-49.985458
30
500.000000
11
500.000000
21
-49.985458
31
500.000000
12
500.000000
22
-49.985458
32
400.000000
13
399.999969
23
-49.985458
33
400.000000
0
3DFACE
8
0
70
0
10
399.999969
20
-49.985458
30
400.000000
11
500.000000
21
-49.985458
31
400.000000
12
500.000000
22
-49.985458
32
300.000000
13
399.999969
23
-49.985458
33
300.000000
0
3DFACE
8
0
70
0
10
399.999969
20
-49.985458
30
300.000000
11
500.000000
21
-49.985458
31
300.000000
12
500.000000
22
-49.985458
32
199.999985
13
399.999969
23
-49.985458
33
199.999985
0
3DFACE
8
0
70
0
10
399.999969
20
-49.985458
30
199.999985
11
500.000000
21
-49.985458
31
199.999985
12
500.000000
22
-49.985458
32
100.000015
13
399.999969
23
-49.985458
33
100.000015
0
3DFACE
8
0
70
0
10
399.999969
20
-49.985458
30
100.000015
11
500.000000
21
-49.985458
31
100.000015
12
500.000000
22
-49.985458
32
0.000000
13
399.999969
23
-49.985458
33
0.000000
0
3DFACE
8
0
70
0
10
399.999969
20
-49.985458
30
0.000000
11
500.000000
21
-49.985458
31
0.000000
12
500.000000
22
-49.985458
32
-99.999977
13
399.999969
23
-49.985458
33
-99.999977
0
3DFACE
8
0
70
0
10
399.999969
20
-49.985458
30
-99.999977
11
500.000000
21
-49.985458
31
-99.999977
12
500.000000
22
-49.985458
32
-200.000031
13
399.999969
23
-49.985458
33
-200.000031
0
3DFACE
8
0
70
0
10
399.999969
20
-49.985458
30
-200.000031
11
500.000000
21
-49.985458
31
-200.000031
12
500.000000
22
-49.985458
32
-300.000000
13
399.999969
23
-49.985458
33
-300.000000
0
3DFACE
8
0
70
0
10
399.999969
20
-49.985458
30
-300.000000
11
500.000000
21
-49.985458
31
-300.000000
12
500.000000
22
-49.985458
32
-399.999969
13
399.999969
23
-49.985458
33
-399.999969
0
3DFACE
8
0
70
0
10
399.999969
20
-49.985458
30
-399.999969
11
500.000000
21
-49.985458
31
-399.999969
12
500.000000
22
-49.985458
32
-500.000031
13
399.999969
23
-49.985458
33
-500.000031
0
3DFACE
8
0
70
0
10
399.999969
20
-49.985458
30
-500.000031
11
500.000000
21
-49.985458
31
-500.000031
12
500.000000
22
-49.985458
32
-600.000000
13
399.999969
23
-49.985458
33
-600.000000
0
3DFACE
8
0
70
0
10
500.000000
20
-49.985458
30
600.000000
11
599.999939
21
-49.985458
31
600.000000
12
599.999939
22
-49.985458
32
500.000000
13
500.000000
23
-49.985458
33
500.000000
0
3DFACE
8
0
70
0
10
500.000000
20
-49.985458
30
500.000000
11
599.999939
21
-49.985458
31
500.000000
12
599.999939
22
-49.985458
32
400.000000
13
500.000000
23
-49.985458
33
400.000000
0
3DFACE
8
0
70
0
10
500.000000
20
-49.985458
30
400.000000
11
599.999939
21
-49.985458
31
400.000000
12
599.999939
22
-49.985458
32
300.000000
13
500.000000
23
-49.985458
33
300.000000
0
3DFACE
8
0
70
0
10
500.000000
20
-49.985458
30
300.000000
11
599.999939
21
-49.985458
31
300.000000
12
599.999939
22
-49.985458
32
199.999985
13
500.000000
23
-49.985458
33
199.999985
0
3DFACE
8
0
70
0
10
500.000000
20
-49.985458
30
199.999985
11
599.999939
21
-49.985458
31
199.999985
12
599.999939
22
-49.985458
32
100.000015
13
500.000000
23
-49.985458
33
100.000015
0
3DFACE
8
0
70
0
10
500.000000
20
-49.985458
30
100.000015
11
599.999939
21
-49.985458
31
100.000015
12
599.999939
22
-49.985458
32
0.000000
13
500.000000
23
-49.985458
33
0.000000
0
3DFACE
8
0
70
0
10
500.000000
20
-49.985458
30
0.000000
11
599.999939
21
-49.985458
31
0.000000
12
599.999939
22
-49.985458
32
-99.999977
13
500.000000
23
-49.985458
33
-99.999977
0
3DFACE
8
0
70
0
10
500.000000
20
-49.985458
30
-99.999977
11
599.999939
21
-49.985458
31
-99.999977
12
599.999939
22
-49.985458
32
-200.000031
13
500.000000
23
-49.985458
33
-200.000031
0
3DFACE
8
0
70
0
10
500.000000
20
-49.985458
30
-200.000031
11
599.999939
21
-49.985458
31
-200.000031
12
599.999939
22
-49.985458
32
-300.000000
13
500.000000
23
-49.985458
33
-300.000000
0
3DFACE
8
0
70
0
10
500.000000
20
-49.985458
30
-300.000000
11
599.999939
21
-49.985458
31
-300.000000
12
599.999939
22
-49.985458
32
-399.999969
13
500.000000
23
-49.985458
33
-399.999969
0
3DFACE
8
0
70
0
10
500.000000
20
-49.985458
30
-399.999969
11
599.999939
21
-49.985458
31
-399.999969
12
599.999939
22
-49.985458
32
-500.000031
13
500.000000
23
-49.985458
33
-500.000031
0
3DFACE
8
0
70
0
10
500.000000
20
-49.985458
30
-500.000031
11
599.999939
21
-49.985458
31
-500.000031
12
599.999939
22
-49.985458
32
-600.000000
13
500.000000
23
-49.985458
33
-600.000000
0
3DFACE
8
0
70
0
10
599.999939
20
-49.985458
30
600.000000
11
700.000000
21
-49.985458
31
600.000000
12
700.000000
22
-49.985458
32
500.000000
13
599.999939
23
-49.985458
33
500.000000
0
3DFACE
8
0
70
0
10
599.999939
20
-49.985458
30
500.000000
11
700.000000
21
-49.985458
31
500.000000
12
700.000000
22
-49.985458
32
400.000000
13
599.999939
23
-49.985458
33
400.000000
0
3DFACE
8
0
70
0
10
599.999939
20
-49.985458
30
400.000000
11
700.000000
21
-49.985458
31
400.000000
12
700.000000
22
-49.985458
32
300.000000
13
599.999939
23
-49.985458
33
300.000000
0
3DFACE
8
0
70
0
10
599.999939
20
-49.985458
30
300.000000
11
700.000000
21
-49.985458
31
300.000000
12
700.000000
22
-49.985458
32
199.999985
13
599.999939
23
-49.985458
33
199.999985
0
3DFACE
8
0
70
0
10
599.999939
20
-49.985458
30
199.999985
11
700.000000
21
-49.985458
31
199.999985
12
700.000000
22
-49.985458
32
100.000015
13
599.999939
23
-49.985458
33
100.000015
0
3DFACE
8
0
70
0
10
599.999939
20
-49.985458
30
100.000015
11
700.000000
21
-49.985458
31
100.000015
12
700.000000
22
-49.985458
32
0.000000
13
599.999939
23
-49.985458
33
0.000000
0
3DFACE
8
0
70
0
10
599.999939
20
-49.985458
30
0.000000
11
700.000000
21
-49.985458
31
0.000000
12
700.000000
22
-49.985458
32
-99.999977
13
599.999939
23
-49.985458
33
-99.999977
0
3DFACE
8
0
70
0
10
599.999939
20
-49.985458
30
-99.999977
11
700.000000
21
-49.985458
31
-99.999977
12
700.000000
22
-49.985458
32
-200.000031
13
599.999939
23
-49.985458
33
-200.000031
0
3DFACE
8
0
70
0
10
599.999939
20
-49.985458
30
-200.000031
11
700.000000
21
-49.985458
31
-200.000031
12
700.000000
22
-49.985458
32
-300.000000
13
599.999939
23
-49.985458
33
-300.000000
0
3DFACE
8
0
70
0
10
599.999939
20
-49.985458
30
-300.000000
11
700.000000
21
-49.985458
31
-300.000000
12
700.000000
22
-49.985458
32
-399.999969
13
599.999939
23
-49.985458
33
-399.999969
0
3DFACE
8
0
70
0
10
599.999939
20
-49.985458
30
-399.999969
11
700.000000
21
-49.985458
31
-399.999969
12
700.000000
22
-49.985458
32
-500.000031
13
599.999939
23
-49.985458
33
-500.000031
0
3DFACE
8
0
70
0
10
599.999939
20
-49.985458
30
-500.000031
11
700.000000
21
-49.985458
31
-500.000031
12
700.000000
22
-49.985458
32
-600.000000
13
599.999939
23
-49.985458
33
-600.000000
0
3DFACE
8
0
70
0
10
-700.000000
20
-49.985458
30
600.000000
11
-700.000000
21
49.985458
31
600.000000
12
-600.000000
22
49.985458
32
600.000000
13
-600.000000
23
-49.985458
33
600.000000
0
3DFACE
8
0
70
0
10
-600.000000
20
-49.985458
30
600.000000
11
-600.000000
21
49.985458
31
600.000000
12
-500.000000
22
49.985458
32
600.000000
13
-500.000000
23
-49.985458
33
600.000000
0
3DFACE
8
0
70
0
10
-500.000000
20
-49.985458
30
600.000000
11
-500.000000
21
49.985458
31
600.000000
12
-400.000000
22
49.985458
32
600.000000
13
-400.000000
23
-49.985458
33
600.000000
0
3DFACE
8
0
70
0
10
-400.000000
20
-49.985458
30
600.000000
11
-400.000000
21
49.985458
31
600.000000
12
-300.000000
22
49.985458
32
600.000000
13
-300.000000
23
-49.985458
33
600.000000
0
3DFACE
8
0
70
0
10
-300.000000
20
-49.985458
30
600.000000
11
-300.000000
21
49.985458
31
600.000000
12
-199.999985
22
49.985458
32
600.000000
13
-199.999985
23
-49.985458
33
600.000000
0
3DFACE
8
0
70
0
10
-199.999985
20
-49.985458
30
600.000000
11
-199.999985
21
49.985458
31
600.000000
12
-99.999992
22
49.985458
32
600.000000
13
-99.999992
23
-49.985458
33
600.000000
0
3DFACE
8
0
70
0
10
-99.999992
20
-49.985458
30
600.000000
11
-99.999992
21
49.985458
31
600.000000
12
0.000000
22
49.985458
32
600.000000
13
0.000000
23
-49.985458
33
600.000000
0
3DFACE
8
0
70
0
10
0.000000
20
-49.985458
30
600.000000
11
0.000000
21
49.985458
31
600.000000
12
100.000031
22
49.985458
32
600.000000
13
100.000031
23
-49.985458
33
600.000000
0
3DFACE
8
0
70
0
10
100.000031
20
-49.985458
30
600.000000
11
100.000031
21
49.985458
31
600.000000
12
200.000000
22
49.985458
32
600.000000
13
200.000000
23
-49.985458
33
600.000000
0
3DFACE
8
0
70
0
10
200.000000
20
-49.985458
30
600.000000
11
200.000000
21
49.985458
31
600.000000
12
300.000031
22
49.985458
32
600.000000
13
300.000031
23
-49.985458
33
600.000000
0
3DFACE
8
0
70
0
10
300.000031
20
-49.985458
30
600.000000
11
300.000031
21
49.985458
31
600.000000
12
399.999969
22
49.985458
32
600.000000
13
399.999969
23
-49.985458
33
600.000000
0
3DFACE
8
0
70
0
10
399.999969
20
-49.985458
30
600.000000
11
399.999969
21
49.985458
31
600.000000
12
500.000000
22
49.985458
32
600.000000
13
500.000000
23
-49.985458
33
600.000000
0
3DFACE
8
0
70
0
10
500.000000
20
-49.985458
30
600.000000
11
500.000000
21
49.985458
31
600.000000
12
599.999939
22
49.985458
32
600.000000
13
599.999939
23
-49.985458
33
600.000000
0
3DFACE
8
0
70
0
10
599.999939
20
-49.985458
30
600.000000
11
599.999939
21
49.985458
31
600.000000
12
700.000000
22
49.985458
32
600.000000
13
700.000000
23
-49.985458
33
600.000000
0
3DFACE
8
0
70
0
10
700.000000
20
-49.985458
30
600.000000
11
700.000000
21
49.985458
31
600.000000
12
700.000000
22
49.985458
32
500.000000
13
700.000000
23
-49.985458
33
500.000000
0
3DFACE
8
0
70
0
10
700.000000
20
-49.985458
30
500.000000
11
700.000000
21
49.985458
31
500.000000
12
700.000000
22
49.985458
32
400.000000
13
700.000000
23
-49.985458
33
400.000000
0
3DFACE
8
0
70
0
10
700.000000
20
-49.985458
30
400.000000
11
700.000000
21
49.985458
31
400.000000
12
700.000000
22
49.985458
32
300.000000
13
700.000000
23
-49.985458
33
300.000000
0
3DFACE
8
0
70
0
10
700.000000
20
-49.985458
30
300.000000
11
700.000000
21
49.985458
31
300.000000
12
700.000000
22
49.985458
32
199.999985
13
700.000000
23
-49.985458
33
199.999985
0
3DFACE
8
0
70
0
10
700.000000
20
-49.985458
30
199.999985
11
700.000000
21
49.985458
31
199.999985
12
700.000000
22
49.985458
32
100.000015
13
700.000000
23
-49.985458
33
100.000015
0
3DFACE
8
0
70
0
10
700.000000
20
-49.985458
30
100.000015
11
700.000000
21
49.985458
31
100.000015
12
700.000000
22
49.985458
32
0.000000
13
700.000000
23
-49.985458
33
0.000000
0
3DFACE
8
0
70
0
10
700.000000
20
-49.985458
30
0.000000
11
700.000000
21
49.985458
31
0.000000
12
700.000000
22
49.985458
32
-99.999977
13
700.000000
23
-49.985458
33
-99.999977
0
3DFACE
8
0
70
0
10
700.000000
20
-49.985458
30
-99.999977
11
700.000000
21
49.985458
31
-99.999977
12
700.000000
22
49.985458
32
-200.000031
13
700.000000
23
-49.985458
33
-200.000031
0
3DFACE
8
0
70
0
10
700.000000
20
-49.985458
30
-200.000031
11
700.000000
21
49.985458
31
-200.000031
12
700.000000
22
49.985458
32
-300.000000
13
700.000000
23
-49.985458
33
-300.000000
0
3DFACE
8
0
70
0
10
700.000000
20
-49.985458
30
-300.000000
11
700.000000
21
49.985458
31
-300.000000
12
700.000000
22
49.985458
32
-399.999969
13
700.000000
23
-49.985458
33
-399.999969
0
3DFACE
8
0
70
0
10
700.000000
20
-49.985458
30
-399.999969
11
700.000000
21
49.985458
31
-399.999969
12
700.000000
22
49.985458
32
-500.000031
13
700.000000
23
-49.985458
33
-500.000031
0
3DFACE
8
0
70
0
10
700.000000
20
-49.985458
30
-500.000031
11
700.000000
21
49.985458
31
-500.000031
12
700.000000
22
49.985458
32
-600.000000
13
700.000000
23
-49.985458
33
-600.000000
0
3DFACE
8
0
70
0
10
599.999939
20
-49.985458
30
-600.000000
11
700.000000
21
-49.985458
31
-600.000000
12
700.000000
22
49.985458
32
-600.000000
13
599.999939
23
49.985458
33
-600.000000
0
3DFACE
8
0
70
0
10
500.000000
20
-49.985458
30
-600.000000
11
599.999939
21
-49.985458
31
-600.000000
12
599.999939
22
49.985458
32
-600.000000
13
500.000000
23
49.985458
33
-600.000000
0
3DFACE
8
0
70
0
10
399.999969
20
-49.985458
30
-600.000000
11
500.000000
21
-49.985458
31
-600.000000
12
500.000000
22
49.985458
32
-600.000000
13
399.999969
23
49.985458
33
-600.000000
0
3DFACE
8
0
70
0
10
300.000031
20
-49.985458
30
-600.000000
11
399.999969
21
-49.985458
31
-600.000000
12
399.999969
22
49.985458
32
-600.000000
13
300.000031
23
49.985458
33
-600.000000
0
3DFACE
8
0
70
0
10
200.000000
20
-49.985458
30
-600.000000
11
300.000031
21
-49.985458
31
-600.000000
12
300.000031
22
49.985458
32
-600.000000
13
200.000000
23
49.985458
33
-600.000000
0
3DFACE
8
0
70
0
10
100.000031
20
-49.985458
30
-600.000000
11
200.000000
21
-49.985458
31
-600.000000
12
200.000000
22
49.985458
32
-600.000000
13
100.000031
23
49.985458
33
-600.000000
0
3DFACE
8
0
70
0
10
0.000000
20
-49.985458
30
-600.000000
11
100.000031
21
-49.985458
31
-600.000000
12
100.000031
22
49.985458
32
-600.000000
13
0.000000
23
49.985458
33
-600.000000
0
3DFACE
8
0
70
0
10
-99.999992
20
-49.985458
30
-600.000000
11
0.000000
21
-49.985458
31
-600.000000
12
0.000000
22
49.985458
32
-600.000000
13
-99.999992
23
49.985458
33
-600.000000
0
3DFACE
8
0
70
0
10
-199.999985
20
-49.985458
30
-600.000000
11
-99.999992
21
-49.985458
31
-600.000000
12
-99.999992
22
49.985458
32
-600.000000
13
-199.999985
23
49.985458
33
-600.000000
0
3DFACE
8
0
70
0
10
-300.000000
20
-49.985458
30
-600.000000
11
-199.999985
21
-49.985458
31
-600.000000
12
-199.999985
22
49.985458
32
-600.000000
13
-300.000000
23
49.985458
33
-600.000000
0
3DFACE
8
0
70
0
10
-400.000000
20
-49.985458
30
-600.000000
11
-300.000000
21
-49.985458
31
-600.000000
12
-300.000000
22
49.985458
32
-600.000000
13
-400.000000
23
49.985458
33
-600.000000
0
3DFACE
8
0
70
0
10
-500.000000
20
-49.985458
30
-600.000000
11
-400.000000
21
-49.985458
31
-600.000000
12
-400.000000
22
49.985458
32
-600.000000
13
-500.000000
23
49.985458
33
-600.000000
0
3DFACE
8
0
70
0
10
-600.000000
20
-49.985458
30
-600.000000
11
-500.000000
21
-49.985458
31
-600.000000
12
-500.000000
22
49.985458
32
-600.000000
13
-600.000000
23
49.985458
33
-600.000000
0
3DFACE
8
0
70
0
10
-700.000000
20
-49.985458
30
-600.000000
11
-600.000000
21
-49.985458
31
-600.000000
12
-600.000000
22
49.985458
32
-600.000000
13
-700.000000
23
49.985458
33
-600.000000
0
3DFACE
8
0
70
0
10
-700.000000
20
-49.985458
30
-500.000031
11
-700.000000
21
-49.985458
31
-600.000000
12
-700.000000
22
49.985458
32
-600.000000
13
-700.000000
23
49.985458
33
-500.000031
0
3DFACE
8
0
70
0
10
-700.000000
20
-49.985458
30
-399.999969
11
-700.000000
21
-49.985458
31
-500.000031
12
-700.000000
22
49.985458
32
-500.000031
13
-700.000000
23
49.985458
33
-399.999969
0
3DFACE
8
0
70
0
10
-700.000000
20
-49.985458
30
-300.000000
11
-700.000000
21
-49.985458
31
-399.999969
12
-700.000000
22
49.985458
32
-399.999969
13
-700.000000
23
49.985458
33
-300.000000
0
3DFACE
8
0
70
0
10
-700.000000
20
-49.985458
30
-200.000031
11
-700.000000
21
-49.985458
31
-300.000000
12
-700.000000
22
49.985458
32
-300.000000
13
-700.000000
23
49.985458
33
-200.000031
0
3DFACE
8
0
70
0
10
-700.000000
20
-49.985458
30
-99.999977
11
-700.000000
21
-49.985458
31
-200.000031
12
-700.000000
22
49.985458
32
-200.000031
13
-700.000000
23
49.985458
33
-99.999977
0
3DFACE
8
0
70
0
10
-700.000000
20
-49.985458
30
0.000000
11
-700.000000
21
-49.985458
31
-99.999977
12
-700.000000
22
49.985458
32
-99.999977
13
-700.000000
23
49.985458
33
0.000000
0
3DFACE
8
0
70
0
10
-700.000000
20
-49.985458
30
100.000015
11
-700.000000
21
-49.985458
31
0.000000
12
-700.000000
22
49.985458
32
0.000000
13
-700.000000
23
49.985458
33
100.000015
0
3DFACE
8
0
70
0
10
-700.000000
20
-49.985458
30
199.999985
11
-700.000000
21
-49.985458
31
100.000015
12
-700.000000
22
49.985458
32
100.000015
13
-700.000000
23
49.985458
33
199.999985
0
3DFACE
8
0
70
0
10
-700.000000
20
-49.985458
30
300.000000
11
-700.000000
21
-49.985458
31
199.999985
12
-700.000000
22
49.985458
32
199.999985
13
-700.000000
23
49.985458
33
300.000000
0
3DFACE
8
0
70
0
10
-700.000000
20
-49.985458
30
400.000000
11
-700.000000
21
-49.985458
31
300.000000
12
-700.000000
22
49.985458
32
300.000000
13
-700.000000
23
49.985458
33
400.000000
0
3DFACE
8
0
70
0
10
-700.000000
20
-49.985458
30
500.000000
11
-700.000000
21
-49.985458
31
400.000000
12
-700.000000
22
49.985458
32
400.000000
13
-700.000000
23
49.985458
33
500.000000
0
3DFACE
8
0
70
0
10
-700.000000
20
-49.985458
30
600.000000
11
-700.000000
21
-49.985458
31
500.000000
12
-700.000000
22
49.985458
32
500.000000
13
-700.000000
23
49.985458
33
600.000000
0
3DFACE
8
0
70
0
10
-700.000000
20
49.985458
30
600.000000
11
-700.000000
21
49.985458
31
500.000000
12
-600.000000
22
49.985458
32
500.000000
13
-600.000000
23
49.985458
33
600.000000
0
3DFACE
8
0
70
0
10
-700.000000
20
49.985458
30
500.000000
11
-700.000000
21
49.985458
31
400.000000
12
-600.000000
22
49.985458
32
400.000000
13
-600.000000
23
49.985458
33
500.000000
0
3DFACE
8
0
70
0
10
-700.000000
20
49.985458
30
400.000000
11
-700.000000
21
49.985458
31
300.000000
12
-600.000000
22
49.985458
32
300.000000
13
-600.000000
23
49.985458
33
400.000000
0
3DFACE
8
0
70
0
10
-700.000000
20
49.985458
30
300.000000
11
-700.000000
21
49.985458
31
199.999985
12
-600.000000
22
49.985458
32
199.999985
13
-600.000000
23
49.985458
33
300.000000
0
3DFACE
8
0
70
0
10
-700.000000
20
49.985458
30
199.999985
11
-700.000000
21
49.985458
31
100.000015
12
-600.000000
22
49.985458
32
100.000015
13
-600.000000
23
49.985458
33
199.999985
0
3DFACE
8
0
70
0
10
-700.000000
20
49.985458
30
100.000015
11
-700.000000
21
49.985458
31
0.000000
12
-600.000000
22
49.985458
32
0.000000
13
-600.000000
23
49.985458
33
100.000015
0
3DFACE
8
0
70
0
10
-700.000000
20
49.985458
30
0.000000
11
-700.000000
21
49.985458
31
-99.999977
12
-600.000000
22
49.985458
32
-99.999977
13
-600.000000
23
49.985458
33
0.000000
0
3DFACE
8
0
70
0
10
-700.000000
20
49.985458
30
-99.999977
11
-700.000000
21
49.985458
31
-200.000031
12
-600.000000
22
49.985458
32
-200.000031
13
-600.000000
23
49.985458
33
-99.999977
0
3DFACE
8
0
70
0
10
-700.000000
20
49.985458
30
-200.000031
11
-700.000000
21
49.985458
31
-300.000000
12
-600.000000
22
49.985458
32
-300.000000
13
-600.000000
23
49.985458
33
-200.000031
0
3DFACE
8
0
70
0
10
-700.000000
20
49.985458
30
-300.000000
11
-700.000000
21
49.985458
31
-399.999969
12
-600.000000
22
49.985458
32
-399.999969
13
-600.000000
23
49.985458
33
-300.000000
0
3DFACE
8
0
70
0
10
-700.000000
20
49.985458
30
-399.999969
11
-700.000000
21
49.985458
31
-500.000031
12
-600.000000
22
49.985458
32
-500.000031
13
-600.000000
23
49.985458
33
-399.999969
0
3DFACE
8
0
70
0
10
-700.000000
20
49.985458
30
-500.000031
11
-700.000000
21
49.985458
31
-600.000000
12
-600.000000
22
49.985458
32
-600.000000
13
-600.000000
23
49.985458
33
-500.000031
0
3DFACE
8
0
70
0
10
-600.000000
20
49.985458
30
600.000000
11
-600.000000
21
49.985458
31
500.000000
12
-500.000000
22
49.985458
32
500.000000
13
-500.000000
23
49.985458
33
600.000000
0
3DFACE
8
0
70
0
10
-600.000000
20
49.985458
30
500.000000
11
-600.000000
21
49.985458
31
400.000000
12
-500.000000
22
49.985458
32
400.000000
13
-500.000000
23
49.985458
33
500.000000
0
3DFACE
8
0
70
0
10
-600.000000
20
49.985458
30
400.000000
11
-600.000000
21
49.985458
31
300.000000
12
-500.000000
22
49.985458
32
300.000000
13
-500.000000
23
49.985458
33
400.000000
0
3DFACE
8
0
70
0
10
-600.000000
20
49.985458
30
300.000000
11
-600.000000
21
49.985458
31
199.999985
12
-500.000000
22
49.985458
32
199.999985
13
-500.000000
23
49.985458
33
300.000000
0
3DFACE
8
0
70
0
10
-600.000000
20
49.985458
30
199.999985
11
-600.000000
21
49.985458
31
100.000015
12
-500.000000
22
49.985458
32
100.000015
13
-500.000000
23
49.985458
33
199.999985
0
3DFACE
8
0
70
0
10
-600.000000
20
49.985458
30
100.000015
11
-600.000000
21
49.985458
31
0.000000
12
-500.000000
22
49.985458
32
0.000000
13
-500.000000
23
49.985458
33
100.000015
0
3DFACE
8
0
70
0
10
-600.000000
20
49.985458
30
0.000000
11
-600.000000
21
49.985458
31
-99.999977
12
-500.000000
22
49.985458
32
-99.999977
13
-500.000000
23
49.985458
33
0.000000
0
3DFACE
8
0
70
0
10
-600.000000
20
49.985458
30
-99.999977
11
-600.000000
21
49.985458
31
-200.000031
12
-500.000000
22
49.985458
32
-200.000031
13
-500.000000
23
49.985458
33
-99.999977
0
3DFACE
8
0
70
0
10
-600.000000
20
49.985458
30
-200.000031
11
-600.000000
21
49.985458
31
-300.000000
12
-500.000000
22
49.985458
32
-300.000000
13
-500.000000
23
49.985458
33
-200.000031
0
3DFACE
8
0
70
0
10
-600.000000
20
49.985458
30
-300.000000
11
-600.000000
21
49.985458
31
-399.999969
12
-500.000000
22
49.985458
32
-399.999969
13
-500.000000
23
49.985458
33
-300.000000
0
3DFACE
8
0
70
0
10
-600.000000
20
49.985458
30
-399.999969
11
-600.000000
21
49.985458
31
-500.000031
12
-500.000000
22
49.985458
32
-500.000031
13
-500.000000
23
49.985458
33
-399.999969
0
3DFACE
8
0
70
0
10
-600.000000
20
49.985458
30
-500.000031
11
-600.000000
21
49.985458
31
-600.000000
12
-500.000000
22
49.985458
32
-600.000000
13
-500.000000
23
49.985458
33
-500.000031
0
3DFACE
8
0
70
0
10
-500.000000
20
49.985458
30
600.000000
11
-500.000000
21
49.985458
31
500.000000
12
-400.000000
22
49.985458
32
500.000000
13
-400.000000
23
49.985458
33
600.000000
0
3DFACE
8
0
70
0
10
-500.000000
20
49.985458
30
500.000000
11
-500.000000
21
49.985458
31
400.000000
12
-400.000000
22
49.985458
32
400.000000
13
-400.000000
23
49.985458
33
500.000000
0
3DFACE
8
0
70
0
10
-500.000000
20
49.985458
30
400.000000
11
-500.000000
21
49.985458
31
300.000000
12
-400.000000
22
49.985458
32
300.000000
13
-400.000000
23
49.985458
33
400.000000
0
3DFACE
8
0
70
0
10
-500.000000
20
49.985458
30
300.000000
11
-500.000000
21
49.985458
31
199.999985
12
-400.000000
22
49.985458
32
199.999985
13
-400.000000
23
49.985458
33
300.000000
0
3DFACE
8
0
70
0
10
-500.000000
20
49.985458
30
199.999985
11
-500.000000
21
49.985458
31
100.000015
12
-400.000000
22
49.985458
32
100.000015
13
-400.000000
23
49.985458
33
199.999985
0
3DFACE
8
0
70
0
10
-500.000000
20
49.985458
30
100.000015
11
-500.000000
21
49.985458
31
0.000000
12
-400.000000
22
49.985458
32
0.000000
13
-400.000000
23
49.985458
33
100.000015
0
3DFACE
8
0
70
0
10
-500.000000
20
49.985458
30
0.000000
11
-500.000000
21
49.985458
31
-99.999977
12
-400.000000
22
49.985458
32
-99.999977
13
-400.000000
23
49.985458
33
0.000000
0
3DFACE
8
0
70
0
10
-500.000000
20
49.985458
30
-99.999977
11
-500.000000
21
49.985458
31
-200.000031
12
-400.000000
22
49.985458
32
-200.000031
13
-400.000000
23
49.985458
33
-99.999977
0
3DFACE
8
0
70
0
10
-500.000000
20
49.985458
30
-200.000031
11
-500.000000
21
49.985458
31
-300.000000
12
-400.000000
22
49.985458
32
-300.000000
13
-400.000000
23
49.985458
33
-200.000031
0
3DFACE
8
0
70
0
10
-500.000000
20
49.985458
30
-300.000000
11
-500.000000
21
49.985458
31
-399.999969
12
-400.000000
22
49.985458
32
-399.999969
13
-400.000000
23
49.985458
33
-300.000000
0
3DFACE
8
0
70
0
10
-500.000000
20
49.985458
30
-399.999969
11
-500.000000
21
49.985458
31
-500.000031
12
-400.000000
22
49.985458
32
-500.000031
13
-400.000000
23
49.985458
33
-399.999969
0
3DFACE
8
0
70
0
10
-500.000000
20
49.985458
30
-500.000031
11
-500.000000
21
49.985458
31
-600.000000
12
-400.000000
22
49.985458
32
-600.000000
13
-400.000000
23
49.985458
33
-500.000031
0
3DFACE
8
0
70
0
10
-400.000000
20
49.985458
30
600.000000
11
-400.000000
21
49.985458
31
500.000000
12
-300.000000
22
49.985458
32
500.000000
13
-300.000000
23
49.985458
33
600.000000
0
3DFACE
8
0
70
0
10
-400.000000
20
49.985458
30
500.000000
11
-400.000000
21
49.985458
31
400.000000
12
-300.000000
22
49.985458
32
400.000000
13
-300.000000
23
49.985458
33
500.000000
0
3DFACE
8
0
70
0
10
-400.000000
20
49.985458
30
400.000000
11
-400.000000
21
49.985458
31
300.000000
12
-300.000000
22
49.985458
32
300.000000
13
-300.000000
23
49.985458
33
400.000000
0
3DFACE
8
0
70
0
10
-400.000000
20
49.985458
30
300.000000
11
-400.000000
21
49.985458
31
199.999985
12
-300.000000
22
49.985458
32
199.999985
13
-300.000000
23
49.985458
33
300.000000
0
3DFACE
8
0
70
0
10
-400.000000
20
49.985458
30
199.999985
11
-400.000000
21
49.985458
31
100.000015
12
-300.000000
22
49.985458
32
100.000015
13
-300.000000
23
49.985458
33
199.999985
0
3DFACE
8
0
70
0
10
-400.000000
20
49.985458
30
100.000015
11
-400.000000
21
49.985458
31
0.000000
12
-300.000000
22
49.985458
32
0.000000
13
-300.000000
23
49.985458
33
100.000015
0
3DFACE
8
0
70
0
10
-400.000000
20
49.985458
30
0.000000
11
-400.000000
21
49.985458
31
-99.999977
12
-300.000000
22
49.985458
32
-99.999977
13
-300.000000
23
49.985458
33
0.000000
0
3DFACE
8
0
70
0
10
-400.000000
20
49.985458
30
-99.999977
11
-400.000000
21
49.985458
31
-200.000031
12
-300.000000
22
49.985458
32
-200.000031
13
-300.000000
23
49.985458
33
-99.999977
0
3DFACE
8
0
70
0
10
-400.000000
20
49.985458
30
-200.000031
11
-400.000000
21
49.985458
31
-300.000000
12
-300.000000
22
49.985458
32
-300.000000
13
-300.000000
23
49.985458
33
-200.000031
0
3DFACE
8
0
70
0
10
-400.000000
20
49.985458
30
-300.000000
11
-400.000000
21
49.985458
31
-399.999969
12
-300.000000
22
49.985458
32
-399.999969
13
-300.000000
23
49.985458
33
-300.000000
0
3DFACE
8
0
70
0
10
-400.000000
20
49.985458
30
-399.999969
11
-400.000000
21
49.985458
31
-500.000031
12
-300.000000
22
49.985458
32
-500.000031
13
-300.000000
23
49.985458
33
-399.999969
0
3DFACE
8
0
70
0
10
-400.000000
20
49.985458
30
-500.000031
11
-400.000000
21
49.985458
31
-600.000000
12
-300.000000
22
49.985458
32
-600.000000
13
-300.000000
23
49.985458
33
-500.000031
0
3DFACE
8
0
70
0
10
-300.000000
20
49.985458
30
600.000000
11
-300.000000
21
49.985458
31
500.000000
12
-199.999985
22
49.985458
32
500.000000
13
-199.999985
23
49.985458
33
600.000000
0
3DFACE
8
0
70
0
10
-300.000000
20
49.985458
30
500.000000
11
-300.000000
21
49.985458
31
400.000000
12
-199.999985
22
49.985458
32
400.000000
13
-199.999985
23
49.985458
33
500.000000
0
3DFACE
8
0
70
0
10
-300.000000
20
49.985458
30
400.000000
11
-300.000000
21
49.985458
31
300.000000
12
-199.999985
22
49.985458
32
300.000000
13
-199.999985
23
49.985458
33
400.000000
0
3DFACE
8
0
70
0
10
-300.000000
20
49.985458
30
300.000000
11
-300.000000
21
49.985458
31
199.999985
12
-199.999985
22
49.985458
32
199.999985
13
-199.999985
23
49.985458
33
300.000000
0
3DFACE
8
0
70
0
10
-300.000000
20
49.985458
30
199.999985
11
-300.000000
21
49.985458
31
100.000015
12
-199.999985
22
49.985458
32
100.000015
13
-199.999985
23
49.985458
33
199.999985
0
3DFACE
8
0
70
0
10
-300.000000
20
49.985458
30
100.000015
11
-300.000000
21
49.985458
31
0.000000
12
-199.999985
22
49.985458
32
0.000000
13
-199.999985
23
49.985458
33
100.000015
0
3DFACE
8
0
70
0
10
-300.000000
20
49.985458
30
0.000000
11
-300.000000
21
49.985458
31
-99.999977
12
-199.999985
22
49.985458
32
-99.999977
13
-199.999985
23
49.985458
33
0.000000
0
3DFACE
8
0
70
0
10
-300.000000
20
49.985458
30
-99.999977
11
-300.000000
21
49.985458
31
-200.000031
12
-199.999985
22
49.985458
32
-200.000031
13
-199.999985
23
49.985458
33
-99.999977
0
3DFACE
8
0
70
0
10
-300.000000
20
49.985458
30
-200.000031
11
-300.000000
21
49.985458
31
-300.000000
12
-199.999985
22
49.985458
32
-300.000000
13
-199.999985
23
49.985458
33
-200.000031
0
3DFACE
8
0
70
0
10
-300.000000
20
49.985458
30
-300.000000
11
-300.000000
21
49.985458
31
-399.999969
12
-199.999985
22
49.985458
32
-399.999969
13
-199.999985
23
49.985458
33
-300.000000
0
3DFACE
8
0
70
0
10
-300.000000
20
49.985458
30
-399.999969
11
-300.000000
21
49.985458
31
-500.000031
12
-199.999985
22
49.985458
32
-500.000031
13
-199.999985
23
49.985458
33
-399.999969
0
3DFACE
8
0
70
0
10
-300.000000
20
49.985458
30
-500.000031
11
-300.000000
21
49.985458
31
-600.000000
12
-199.999985
22
49.985458
32
-600.000000
13
-199.999985
23
49.985458
33
-500.000031
0
3DFACE
8
0
70
0
10
-199.999985
20
49.985458
30
600.000000
11
-199.999985
21
49.985458
31
500.000000
12
-99.999992
22
49.985458
32
500.000000
13
-99.999992
23
49.985458
33
600.000000
0
3DFACE
8
0
70
0
10
-199.999985
20
49.985458
30
500.000000
11
-199.999985
21
49.985458
31
400.000000
12
-99.999992
22
49.985458
32
400.000000
13
-99.999992
23
49.985458
33
500.000000
0
3DFACE
8
0
70
0
10
-199.999985
20
49.985458
30
400.000000
11
-199.999985
21
49.985458
31
300.000000
12
-99.999992
22
49.985458
32
300.000000
13
-99.999992
23
49.985458
33
400.000000
0
3DFACE
8
0
70
0
10
-199.999985
20
49.985458
30
300.000000
11
-199.999985
21
49.985458
31
199.999985
12
-99.999992
22
49.985458
32
199.999985
13
-99.999992
23
49.985458
33
300.000000
0
3DFACE
8
0
70
0
10
-199.999985
20
49.985458
30
199.999985
11
-199.999985
21
49.985458
31
100.000015
12
-99.999992
22
49.985458
32
100.000015
13
-99.999992
23
49.985458
33
199.999985
0
3DFACE
8
0
70
0
10
-199.999985
20
49.985458
30
100.000015
11
-199.999985
21
49.985458
31
0.000000
12
-99.999992
22
49.985458
32
0.000000
13
-99.999992
23
49.985458
33
100.000015
0
3DFACE
8
0
70
0
10
-199.999985
20
49.985458
30
0.000000
11
-199.999985
21
49.985458
31
-99.999977
12
-99.999992
22
49.985458
32
-99.999977
13
-99.999992
23
49.985458
33
0.000000
0
3DFACE
8
0
70
0
10
-199.999985
20
49.985458
30
-99.999977
11
-199.999985
21
49.985458
31
-200.000031
12
-99.999992
22
49.985458
32
-200.000031
13
-99.999992
23
49.985458
33
-99.999977
0
3DFACE
8
0
70
0
10
-199.999985
20
49.985458
30
-200.000031
11
-199.999985
21
49.985458
31
-300.000000
12
-99.999992
22
49.985458
32
-300.000000
13
-99.999992
23
49.985458
33
-200.000031
0
3DFACE
8
0
70
0
10
-199.999985
20
49.985458
30
-300.000000
11
-199.999985
21
49.985458
31
-399.999969
12
-99.999992
22
49.985458
32
-399.999969
13
-99.999992
23
49.985458
33
-300.000000
0
3DFACE
8
0
70
0
10
-199.999985
20
49.985458
30
-399.999969
11
-199.999985
21
49.985458
31
-500.000031
12
-99.999992
22
49.985458
32
-500.000031
13
-99.999992
23
49.985458
33
-399.999969
0
3DFACE
8
0
70
0
10
-199.999985
20
49.985458
30
-500.000031
11
-199.999985
21
49.985458
31
-600.000000
12
-99.999992
22
49.985458
32
-600.000000
13
-99.999992
23
49.985458
33
-500.000031
0
3DFACE
8
0
70
0
10
-99.999992
20
49.985458
30
600.000000
11
-99.999992
21
49.985458
31
500.000000
12
0.000000
22
49.985458
32
500.000000
13
0.000000
23
49.985458
33
600.000000
0
3DFACE
8
0
70
0
10
-99.999992
20
49.985458
30
500.000000
11
-99.999992
21
49.985458
31
400.000000
12
0.000000
22
49.985458
32
400.000000
13
0.000000
23
49.985458
33
500.000000
0
3DFACE
8
0
70
0
10
-99.999992
20
49.985458
30
400.000000
11
-99.999992
21
49.985458
31
300.000000
12
0.000000
22
49.985458
32
300.000000
13
0.000000
23
49.985458
33
400.000000
0
3DFACE
8
0
70
0
10
-99.999992
20
49.985458
30
300.000000
11
-99.999992
21
49.985458
31
199.999985
12
0.000000
22
49.985458
32
199.999985
13
0.000000
23
49.985458
33
300.000000
0
3DFACE
8
0
70
0
10
-99.999992
20
49.985458
30
199.999985
11
-99.999992
21
49.985458
31
100.000015
12
0.000000
22
49.985458
32
100.000015
13
0.000000
23
49.985458
33
199.999985
0
3DFACE
8
0
70
0
10
-99.999992
20
49.985458
30
100.000015
11
-99.999992
21
49.985458
31
0.000000
12
0.000000
22
49.985458
32
0.000000
13
0.000000
23
49.985458
33
100.000015
0
3DFACE
8
0
70
0
10
-99.999992
20
49.985458
30
0.000000
11
-99.999992
21
49.985458
31
-99.999977
12
0.000000
22
49.985458
32
-99.999977
13
0.000000
23
49.985458
33
0.000000
0
3DFACE
8
0
70
0
10
-99.999992
20
49.985458
30
-99.999977
11
-99.999992
21
49.985458
31
-200.000031
12
0.000000
22
49.985458
32
-200.000031
13
0.000000
23
49.985458
33
-99.999977
0
3DFACE
8
0
70
0
10
-99.999992
20
49.985458
30
-200.000031
11
-99.999992
21
49.985458
31
-300.000000
12
0.000000
22
49.985458
32
-300.000000
13
0.000000
23
49.985458
33
-200.000031
0
3DFACE
8
0
70
0
10
-99.999992
20
49.985458
30
-300.000000
11
-99.999992
21
49.985458
31
-399.999969
12
0.000000
22
49.985458
32
-399.999969
13
0.000000
23
49.985458
33
-300.000000
0
3DFACE
8
0
70
0
10
-99.999992
20
49.985458
30
-399.999969
11
-99.999992
21
49.985458
31
-500.000031
12
0.000000
22
49.985458
32
-500.000031
13
0.000000
23
49.985458
33
-399.999969
0
3DFACE
8
0
70
0
10
-99.999992
20
49.985458
30
-500.000031
11
-99.999992
21
49.985458
31
-600.000000
12
0.000000
22
49.985458
32
-600.000000
13
0.000000
23
49.985458
33
-500.000031
0
3DFACE
8
0
70
0
10
0.000000
20
49.985458
30
600.000000
11
0.000000
21
49.985458
31
500.000000
12
100.000031
22
49.985458
32
500.000000
13
100.000031
23
49.985458
33
600.000000
0
3DFACE
8
0
70
0
10
0.000000
20
49.985458
30
500.000000
11
0.000000
21
49.985458
31
400.000000
12
100.000031
22
49.985458
32
400.000000
13
100.000031
23
49.985458
33
500.000000
0
3DFACE
8
0
70
0
10
0.000000
20
49.985458
30
400.000000
11
0.000000
21
49.985458
31
300.000000
12
100.000031
22
49.985458
32
300.000000
13
100.000031
23
49.985458
33
400.000000
0
3DFACE
8
0
70
0
10
0.000000
20
49.985458
30
300.000000
11
0.000000
21
49.985458
31
199.999985
12
100.000031
22
49.985458
32
199.999985
13
100.000031
23
49.985458
33
300.000000
0
3DFACE
8
0
70
0
10
0.000000
20
49.985458
30
199.999985
11
0.000000
21
49.985458
31
100.000015
12
100.000031
22
49.985458
32
100.000015
13
100.000031
23
49.985458
33
199.999985
0
3DFACE
8
0
70
0
10
0.000000
20
49.985458
30
100.000015
11
0.000000
21
49.985458
31
0.000000
12
100.000031
22
49.985458
32
0.000000
13
100.000031
23
49.985458
33
100.000015
0
3DFACE
8
0
70
0
10
0.000000
20
49.985458
30
0.000000
11
0.000000
21
49.985458
31
-99.999977
12
100.000031
22
49.985458
32
-99.999977
13
100.000031
23
49.985458
33
0.000000
0
3DFACE
8
0
70
0
10
0.000000
20
49.985458
30
-99.999977
11
0.000000
21
49.985458
31
-200.000031
12
100.000031
22
49.985458
32
-200.000031
13
100.000031
23
49.985458
33
-99.999977
0
3DFACE
8
0
70
0
10
0.000000
20
49.985458
30
-200.000031
11
0.000000
21
49.985458
31
-300.000000
12
100.000031
22
49.985458
32
-300.000000
13
100.000031
23
49.985458
33
-200.000031
0
3DFACE
8
0
70
0
10
0.000000
20
49.985458
30
-300.000000
11
0.000000
21
49.985458
31
-399.999969
12
100.000031
22
49.985458
32
-399.999969
13
100.000031
23
49.985458
33
-300.000000
0
3DFACE
8
0
70
0
10
0.000000
20
49.985458
30
-399.999969
11
0.000000
21
49.985458
31
-500.000031
12
100.000031
22
49.985458
32
-500.000031
13
100.000031
23
49.985458
33
-399.999969
0
3DFACE
8
0
70
0
10
0.000000
20
49.985458
30
-500.000031
11
0.000000
21
49.985458
31
-600.000000
12
100.000031
22
49.985458
32
-600.000000
13
100.000031
23
49.985458
33
-500.000031
0
3DFACE
8
0
70
0
10
100.000031
20
49.985458
30
600.000000
11
100.000031
21
49.985458
31
500.000000
12
200.000000
22
49.985458
32
500.000000
13
200.000000
23
49.985458
33
600.000000
0
3DFACE
8
0
70
0
10
100.000031
20
49.985458
30
500.000000
11
100.000031
21
49.985458
31
400.000000
12
200.000000
22
49.985458
32
400.000000
13
200.000000
23
49.985458
33
500.000000
0
3DFACE
8
0
70
0
10
100.000031
20
49.985458
30
400.000000
11
100.000031
21
49.985458
31
300.000000
12
200.000000
22
49.985458
32
300.000000
13
200.000000
23
49.985458
33
400.000000
0
3DFACE
8
0
70
0
10
100.000031
20
49.985458
30
300.000000
11
100.000031
21
49.985458
31
199.999985
12
200.000000
22
49.985458
32
199.999985
13
200.000000
23
49.985458
33
300.000000
0
3DFACE
8
0
70
0
10
100.000031
20
49.985458
30
199.999985
11
100.000031
21
49.985458
31
100.000015
12
200.000000
22
49.985458
32
100.000015
13
200.000000
23
49.985458
33
199.999985
0
3DFACE
8
0
70
0
10
100.000031
20
49.985458
30
100.000015
11
100.000031
21
49.985458
31
0.000000
12
200.000000
22
49.985458
32
0.000000
13
200.000000
23
49.985458
33
100.000015
0
3DFACE
8
0
70
0
10
100.000031
20
49.985458
30
0.000000
11
100.000031
21
49.985458
31
-99.999977
12
200.000000
22
49.985458
32
-99.999977
13
200.000000
23
49.985458
33
0.000000
0
3DFACE
8
0
70
0
10
100.000031
20
49.985458
30
-99.999977
11
100.000031
21
49.985458
31
-200.000031
12
200.000000
22
49.985458
32
-200.000031
13
200.000000
23
49.985458
33
-99.999977
0
3DFACE
8
0
70
0
10
100.000031
20
49.985458
30
-200.000031
11
100.000031
21
49.985458
31
-300.000000
12
200.000000
22
49.985458
32
-300.000000
13
200.000000
23
49.985458
33
-200.000031
0
3DFACE
8
0
70
0
10
100.000031
20
49.985458
30
-300.000000
11
100.000031
21
49.985458
31
-399.999969
12
200.000000
22
49.985458
32
-399.999969
13
200.000000
23
49.985458
33
-300.000000
0
3DFACE
8
0
70
0
10
100.000031
20
49.985458
30
-399.999969
11
100.000031
21
49.985458
31
-500.000031
12
200.000000
22
49.985458
32
-500.000031
13
200.000000
23
49.985458
33
-399.999969
0
3DFACE
8
0
70
0
10
100.000031
20
49.985458
30
-500.000031
11
100.000031
21
49.985458
31
-600.000000
12
200.000000
22
49.985458
32
-600.000000
13
200.000000
23
49.985458
33
-500.000031
0
3DFACE
8
0
70
0
10
200.000000
20
49.985458
30
600.000000
11
200.000000
21
49.985458
31
500.000000
12
300.000031
22
49.985458
32
500.000000
13
300.000031
23
49.985458
33
600.000000
0
3DFACE
8
0
70
0
10
200.000000
20
49.985458
30
500.000000
11
200.000000
21
49.985458
31
400.000000
12
300.000031
22
49.985458
32
400.000000
13
300.000031
23
49.985458
33
500.000000
0
3DFACE
8
0
70
0
10
200.000000
20
49.985458
30
400.000000
11
200.000000
21
49.985458
31
300.000000
12
300.000031
22
49.985458
32
300.000000
13
300.000031
23
49.985458
33
400.000000
0
3DFACE
8
0
70
0
10
200.000000
20
49.985458
30
300.000000
11
200.000000
21
49.985458
31
199.999985
12
300.000031
22
49.985458
32
199.999985
13
300.000031
23
49.985458
33
300.000000
0
3DFACE
8
0
70
0
10
200.000000
20
49.985458
30
199.999985
11
200.000000
21
49.985458
31
100.000015
12
300.000031
22
49.985458
32
100.000015
13
300.000031
23
49.985458
33
199.999985
0
3DFACE
8
0
70
0
10
200.000000
20
49.985458
30
100.000015
11
200.000000
21
49.985458
31
0.000000
12
300.000031
22
49.985458
32
0.000000
13
300.000031
23
49.985458
33
100.000015
0
3DFACE
8
0
70
0
10
200.000000
20
49.985458
30
0.000000
11
200.000000
21
49.985458
31
-99.999977
12
300.000031
22
49.985458
32
-99.999977
13
300.000031
23
49.985458
33
0.000000
0
3DFACE
8
0
70
0
10
200.000000
20
49.985458
30
-99.999977
11
200.000000
21
49.985458
31
-200.000031
12
300.000031
22
49.985458
32
-200.000031
13
300.000031
23
49.985458
33
-99.999977
0
3DFACE
8
0
70
0
10
200.000000
20
49.985458
30
-200.000031
11
200.000000
21
49.985458
31
-300.000000
12
300.000031
22
49.985458
32
-300.000000
13
300.000031
23
49.985458
33
-200.000031
0
3DFACE
8
0
70
0
10
200.000000
20
49.985458
30
-300.000000
11
200.000000
21
49.985458
31
-399.999969
12
300.000031
22
49.985458
32
-399.999969
13
300.000031
23
49.985458
33
-300.000000
0
3DFACE
8
0
70
0
10
200.000000
20
49.985458
30
-399.999969
11
200.000000
21
49.985458
31
-500.000031
12
300.000031
22
49.985458
32
-500.000031
13
300.000031
23
49.985458
33
-399.999969
0
3DFACE
8
0
70
0
10
200.000000
20
49.985458
30
-500.000031
11
200.000000
21
49.985458
31
-600.000000
12
300.000031
22
49.985458
32
-600.000000
13
300.000031
23
49.985458
33
-500.000031
0
3DFACE
8
0
70
0
10
300.000031
20
49.985458
30
600.000000
11
300.000031
21
49.985458
31
500.000000
12
399.999969
22
49.985458
32
500.000000
13
399.999969
23
49.985458
33
600.000000
0
3DFACE
8
0
70
0
10
300.000031
20
49.985458
30
500.000000
11
300.000031
21
49.985458
31
400.000000
12
399.999969
22
49.985458
32
400.000000
13
399.999969
23
49.985458
33
500.000000
0
3DFACE
8
0
70
0
10
300.000031
20
49.985458
30
400.000000
11
300.000031
21
49.985458
31
300.000000
12
399.999969
22
49.985458
32
300.000000
13
399.999969
23
49.985458
33
400.000000
0
3DFACE
8
0
70
0
10
300.000031
20
49.985458
30
300.000000
11
300.000031
21
49.985458
31
199.999985
12
399.999969
22
49.985458
32
199.999985
13
399.999969
23
49.985458
33
300.000000
0
3DFACE
8
0
70
0
10
300.000031
20
49.985458
30
199.999985
11
300.000031
21
49.985458
31
100.000015
12
399.999969
22
49.985458
32
100.000015
13
399.999969
23
49.985458
33
199.999985
0
3DFACE
8
0
70
0
10
300.000031
20
49.985458
30
100.000015
11
300.000031
21
49.985458
31
0.000000
12
399.999969
22
49.985458
32
0.000000
13
399.999969
23
49.985458
33
100.000015
0
3DFACE
8
0
70
0
10
300.000031
20
49.985458
30
0.000000
11
300.000031
21
49.985458
31
-99.999977
12
399.999969
22
49.985458
32
-99.999977
13
399.999969
23
49.985458
33
0.000000
0
3DFACE
8
0
70
0
10
300.000031
20
49.985458
30
-99.999977
11
300.000031
21
49.985458
31
-200.000031
12
399.999969
22
49.985458
32
-200.000031
13
399.999969
23
49.985458
33
-99.999977
0
3DFACE
8
0
70
0
10
300.000031
20
49.985458
30
-200.000031
11
300.000031
21
49.985458
31
-300.000000
12
399.999969
22
49.985458
32
-300.000000
13
399.999969
23
49.985458
33
-200.000031
0
3DFACE
8
0
70
0
10
300.000031
20
49.985458
30
-300.000000
11
300.000031
21
49.985458
31
-399.999969
12
399.999969
22
49.985458
32
-399.999969
13
399.999969
23
49.985458
33
-300.000000
0
3DFACE
8
0
70
0
10
300.000031
20
49.985458
30
-399.999969
11
300.000031
21
49.985458
31
-500.000031
12
399.999969
22
49.985458
32
-500.000031
13
399.999969
23
49.985458
33
-399.999969
0
3DFACE
8
0
70
0
10
300.000031
20
49.985458
30
-500.000031
11
300.000031
21
49.985458
31
-600.000000
12
399.999969
22
49.985458
32
-600.000000
13
399.999969
23
49.985458
33
-500.000031
0
3DFACE
8
0
70
0
10
399.999969
20
49.985458
30
600.000000
11
399.999969
21
49.985458
31
500.000000
12
500.000000
22
49.985458
32
500.000000
13
500.000000
23
49.985458
33
600.000000
0
3DFACE
8
0
70
0
10
399.999969
20
49.985458
30
500.000000
11
399.999969
21
49.985458
31
400.000000
12
500.000000
22
49.985458
32
400.000000
13
500.000000
23
49.985458
33
500.000000
0
3DFACE
8
0
70
0
10
399.999969
20
49.985458
30
400.000000
11
399.999969
21
49.985458
31
300.000000
12
500.000000
22
49.985458
32
300.000000
13
500.000000
23
49.985458
33
400.000000
0
3DFACE
8
0
70
0
10
399.999969
20
49.985458
30
300.000000
11
399.999969
21
49.985458
31
199.999985
12
500.000000
22
49.985458
32
199.999985
13
500.000000
23
49.985458
33
300.000000
0
3DFACE
8
0
70
0
10
399.999969
20
49.985458
30
199.999985
11
399.999969
21
49.985458
31
100.000015
12
500.000000
22
49.985458
32
100.000015
13
500.000000
23
49.985458
33
199.999985
0
3DFACE
8
0
70
0
10
399.999969
20
49.985458
30
100.000015
11
399.999969
21
49.985458
31
0.000000
12
500.000000
22
49.985458
32
0.000000
13
500.000000
23
49.985458
33
100.000015
0
3DFACE
8
0
70
0
10
399.999969
20
49.985458
30
0.000000
11
399.999969
21
49.985458
31
-99.999977
12
500.000000
22
49.985458
32
-99.999977
13
500.000000
23
49.985458
33
0.000000
0
3DFACE
8
0
70
0
10
399.999969
20
49.985458
30
-99.999977
11
399.999969
21
49.985458
31
-200.000031
12
500.000000
22
49.985458
32
-200.000031
13
500.000000
23
49.985458
33
-99.999977
0
3DFACE
8
0
70
0
10
399.999969
20
49.985458
30
-200.000031
11
399.999969
21
49.985458
31
-300.000000
12
500.000000
22
49.985458
32
-300.000000
13
500.000000
23
49.985458
33
-200.000031
0
3DFACE
8
0
70
0
10
399.999969
20
49.985458
30
-300.000000
11
399.999969
21
49.985458
31
-399.999969
12
500.000000
22
49.985458
32
-399.999969
13
500.000000
23
49.985458
33
-300.000000
0
3DFACE
8
0
70
0
10
399.999969
20
49.985458
30
-399.999969
11
399.999969
21
49.985458
31
-500.000031
12
500.000000
22
49.985458
32
-500.000031
13
500.000000
23
49.985458
33
-399.999969
0
3DFACE
8
0
70
0
10
399.999969
20
49.985458
30
-500.000031
11
399.999969
21
49.985458
31
-600.000000
12
500.000000
22
49.985458
32
-600.000000
13
500.000000
23
49.985458
33
-500.000031
0
3DFACE
8
0
70
0
10
500.000000
20
49.985458
30
600.000000
11
500.000000
21
49.985458
31
500.000000
12
599.999939
22
49.985458
32
500.000000
13
599.999939
23
49.985458
33
600.000000
0
3DFACE
8
0
70
0
10
500.000000
20
49.985458
30
500.000000
11
500.000000
21
49.985458
31
400.000000
12
599.999939
22
49.985458
32
400.000000
13
599.999939
23
49.985458
33
500.000000
0
3DFACE
8
0
70
0
10
500.000000
20
49.985458
30
400.000000
11
500.000000
21
49.985458
31
300.000000
12
599.999939
22
49.985458
32
300.000000
13
599.999939
23
49.985458
33
400.000000
0
3DFACE
8
0
70
0
10
500.000000
20
49.985458
30
300.000000
11
500.000000
21
49.985458
31
199.999985
12
599.999939
22
49.985458
32
199.999985
13
599.999939
23
49.985458
33
300.000000
0
3DFACE
8
0
70
0
10
500.000000
20
49.985458
30
199.999985
11
500.000000
21
49.985458
31
100.000015
12
599.999939
22
49.985458
32
100.000015
13
599.999939
23
49.985458
33
199.999985
0
3DFACE
8
0
70
0
10
500.000000
20
49.985458
30
100.000015
11
500.000000
21
49.985458
31
0.000000
12
599.999939
22
49.985458
32
0.000000
13
599.999939
23
49.985458
33
100.000015
0
3DFACE
8
0
70
0
10
500.000000
20
49.985458
30
0.000000
11
500.000000
21
49.985458
31
-99.999977
12
599.999939
22
49.985458
32
-99.999977
13
599.999939
23
49.985458
33
0.000000
0
3DFACE
8
0
70
0
10
500.000000
20
49.985458
30
-99.999977
11
500.000000
21
49.985458
31
-200.000031
12
599.999939
22
49.985458
32
-200.000031
13
599.999939
23
49.985458
33
-99.999977
0
3DFACE
8
0
70
0
10
500.000000
20
49.985458
30
-200.000031
11
500.000000
21
49.985458
31
-300.000000
12
599.999939
22
49.985458
32
-300.000000
13
599.999939
23
49.985458
33
-200.000031
0
3DFACE
8
0
70
0
10
500.000000
20
49.985458
30
-300.000000
11
500.000000
21
49.985458
31
-399.999969
12
599.999939
22
49.985458
32
-399.999969
13
599.999939
23
49.985458
33
-300.000000
0
3DFACE
8
0
70
0
10
500.000000
20
49.985458
30
-399.999969
11
500.000000
21
49.985458
31
-500.000031
12
599.999939
22
49.985458
32
-500.000031
13
599.999939
23
49.985458
33
-399.999969
0
3DFACE
8
0
70
0
10
500.000000
20
49.985458
30
-500.000031
11
500.000000
21
49.985458
31
-600.000000
12
599.999939
22
49.985458
32
-600.000000
13
599.999939
23
49.985458
33
-500.000031
0
3DFACE
8
0
70
0
10
599.999939
20
49.985458
30
600.000000
11
599.999939
21
49.985458
31
500.000000
12
700.000000
22
49.985458
32
500.000000
13
700.000000
23
49.985458
33
600.000000
0
3DFACE
8
0
70
0
10
599.999939
20
49.985458
30
500.000000
11
599.999939
21
49.985458
31
400.000000
12
700.000000
22
49.985458
32
400.000000
13
700.000000
23
49.985458
33
500.000000
0
3DFACE
8
0
70
0
10
599.999939
20
49.985458
30
400.000000
11
599.999939
21
49.985458
31
300.000000
12
700.000000
22
49.985458
32
300.000000
13
700.000000
23
49.985458
33
400.000000
0
3DFACE
8
0
70
0
10
599.999939
20
49.985458
30
300.000000
11
599.999939
21
49.985458
31
199.999985
12
700.000000
22
49.985458
32
199.999985
13
700.000000
23
49.985458
33
300.000000
0
3DFACE
8
0
70
0
10
599.999939
20
49.985458
30
199.999985
11
599.999939
21
49.985458
31
100.000015
12
700.000000
22
49.985458
32
100.000015
13
700.000000
23
49.985458
33
199.999985
0
3DFACE
8
0
70
0
10
599.999939
20
49.985458
30
100.000015
11
599.999939
21
49.985458
31
0.000000
12
700.000000
22
49.985458
32
0.000000
13
700.000000
23
49.985458
33
100.000015
0
3DFACE
8
0
70
0
10
599.999939
20
49.985458
30
0.000000
11
599.999939
21
49.985458
31
-99.999977
12
700.000000
22
49.985458
32
-99.999977
13
700.000000
23
49.985458
33
0.000000
0
3DFACE
8
0
70
0
10
599.999939
20
49.985458
30
-99.999977
11
599.999939
21
49.985458
31
-200.000031
12
700.000000
22
49.985458
32
-200.000031
13
700.000000
23
49.985458
33
-99.999977
0
3DFACE
8
0
70
0
10
599.999939
20
49.985458
30
-200.000031
11
599.999939
21
49.985458
31
-300.000000
12
700.000000
22
49.985458
32
-300.000000
13
700.000000
23
49.985458
33
-200.000031
0
3DFACE
8
0
70
0
10
599.999939
20
49.985458
30
-300.000000
11
599.999939
21
49.985458
31
-399.999969
12
700.000000
22
49.985458
32
-399.999969
13
700.000000
23
49.985458
33
-300.000000
0
3DFACE
8
0
70
0
10
599.999939
20
49.985458
30
-399.999969
11
599.999939
21
49.985458
31
-500.000031
12
700.000000
22
49.985458
32
-500.000031
13
700.000000
23
49.985458
33
-399.999969
0
3DFACE
8
0
70
0
10
599.999939
20
49.985458
30
-500.000031
11
599.999939
21
49.985458
31
-600.000000
12
700.000000
22
49.985458
32
-600.000000
13
700.000000
23
49.985458
33
-500.000031
0
ENDSEC
0
EOF
