0
SECTION
2
HEADER
999
DXF File Generated by LightWave 3D(TM)
0
ENDSEC
0
SECTION
2
TABLES
0
ENDSEC
0
SECTION
2
BLOCKS
0
ENDSEC
0
SECTION
2
ENTITIES
0
3DFACE
8
0
70
0
10
-160.059753
20
-126.149200
30
-1.569612
11
-142.158920
21
-126.443161
31
-1.830217
12
-142.067566
22
-107.417130
32
-1.528124
13
-160.134399
23
-107.236908
33
-1.543253
0
3DFACE
8
0
70
0
10
-142.158920
20
-126.443161
30
-1.830217
11
-125.090263
21
-126.241982
31
-1.217957
12
-124.446037
22
-107.335411
32
-0.644843
13
-142.067566
23
-107.417130
33
-1.528124
0
3DFACE
8
0
70
0
10
-125.090263
20
-126.241982
30
-1.217957
11
-109.395981
21
-125.312599
31
0.133272
12
-108.379532
22
-106.707657
32
0.514821
13
-124.446037
23
-107.335411
33
-0.644843
0
3DFACE
8
0
70
0
10
-109.395981
20
-125.312599
30
0.133272
11
-93.487671
21
-124.325859
31
1.176937
12
-92.931595
22
-105.921158
32
0.749673
13
-108.379532
23
-106.707657
33
0.514821
0
3DFACE
8
0
70
0
10
-93.487671
20
-124.325859
30
1.176937
11
-75.176300
21
-124.352074
31
0.796599
12
-75.953194
22
-105.915665
32
-0.689769
13
-92.931595
23
-105.921158
33
0.749673
0
3DFACE
8
0
70
0
10
-75.176300
20
-124.352074
30
0.796599
11
-54.390209
21
-125.763359
31
-1.256604
12
-56.371700
22
-107.309723
32
-3.373716
13
-75.953194
23
-105.915665
33
-0.689769
0
3DFACE
8
0
70
0
10
-54.390209
20
-125.763359
30
-1.256604
11
-33.744537
21
-127.680847
31
-4.114699
12
-35.496078
22
-109.570297
32
-5.896097
13
-56.371700
23
-107.309723
33
-3.373716
0
3DFACE
8
0
70
0
10
-33.744537
20
-127.680847
30
-4.114699
11
-16.339556
21
-128.667923
31
-6.372031
12
-16.330200
22
-111.156754
32
-6.789739
13
-35.496078
23
-109.570297
33
-5.896097
0
3DFACE
8
0
70
0
10
-16.339556
20
-128.667923
30
-6.372031
11
-2.878649
21
-128.131378
31
-6.977785
12
-0.988295
22
-110.723534
32
-5.425220
13
-16.330200
23
-111.156754
33
-6.789739
0
3DFACE
8
0
70
0
10
-2.878649
20
-128.131378
30
-6.977785
11
9.292778
21
-127.086685
31
-5.783360
12
11.423085
22
-108.395920
32
-2.291431
13
-0.988295
23
-110.723534
33
-5.425220
0
3DFACE
8
0
70
0
10
9.292778
20
-127.086685
30
-5.783360
11
24.118467
21
-127.426041
31
-3.451611
12
24.330799
22
-105.912743
32
1.413050
13
11.423085
23
-108.395920
33
-2.291431
0
3DFACE
8
0
70
0
10
24.118467
20
-127.426041
30
-3.451611
11
43.496632
21
-130.213638
31
-0.929775
12
40.984161
22
-105.355904
32
4.490425
13
24.330799
23
-105.912743
33
1.413050
0
3DFACE
8
0
70
0
10
43.496632
20
-130.213638
30
-0.929775
11
65.669029
21
-134.518188
31
1.076693
12
61.851341
22
-107.451012
32
6.279302
13
40.984161
23
-105.355904
33
4.490425
0
3DFACE
8
0
70
0
10
65.669029
20
-134.518188
30
1.076693
11
86.725220
21
-137.912399
31
2.317326
12
84.288422
22
-110.870705
32
6.769534
13
61.851341
23
-107.451012
33
6.279302
0
3DFACE
8
0
70
0
10
86.725220
20
-137.912399
30
2.317326
11
103.829781
21
-138.336716
31
2.884613
12
104.630234
22
-113.181641
32
6.358561
13
84.288422
23
-110.870705
33
6.769534
0
3DFACE
8
0
70
0
10
103.829781
20
-138.336716
30
2.884613
11
117.438866
21
-135.819382
31
2.981375
12
120.945808
22
-112.732445
32
5.491378
13
104.630234
23
-113.181641
33
6.358561
0
3DFACE
8
0
70
0
10
117.438866
20
-135.819382
30
2.981375
11
131.199295
21
-131.893860
31
2.356904
12
134.356644
22
-109.691132
32
3.827376
13
120.945808
23
-112.732445
33
5.491378
0
3DFACE
8
0
70
0
10
131.199295
20
-131.893860
30
2.356904
11
148.320526
21
-130.388275
31
1.737397
12
148.832672
22
-107.308983
32
2.375668
13
134.356644
23
-109.691132
33
3.827376
0
3DFACE
8
0
70
0
10
148.320526
20
-130.388275
30
1.737397
11
168.584991
21
-131.567154
31
1.379791
12
166.314957
22
-107.323006
32
1.277346
13
148.832672
23
-107.308983
33
2.375668
0
3DFACE
8
0
70
0
10
168.584991
20
-131.567154
30
1.379791
11
189.672501
21
-133.702774
31
1.443960
12
186.377487
22
-109.567535
32
0.708291
13
166.314957
23
-107.323006
33
1.277346
0
3DFACE
8
0
70
0
10
189.672501
20
-133.702774
30
1.443960
11
209.085663
21
-134.598068
31
1.875255
12
207.001526
22
-112.384949
32
0.801142
13
186.377487
23
-109.567535
33
0.708291
0
3DFACE
8
0
70
0
10
209.085663
20
-134.598068
30
1.875255
11
225.682358
21
-133.097168
31
2.313986
12
226.057678
22
-113.909737
32
1.412644
13
207.001526
23
-112.384949
33
0.801142
0
3DFACE
8
0
70
0
10
-160.134399
20
-107.236908
30
-1.543253
11
-142.067566
21
-107.417130
31
-1.528124
12
-142.064880
22
-88.337395
32
-1.219315
13
-160.130249
23
-88.291672
33
-1.478288
0
3DFACE
8
0
70
0
10
-142.067566
20
-107.417130
30
-1.528124
11
-124.446037
21
-107.335411
31
-0.644843
12
-124.049088
22
-88.531647
32
-0.283217
13
-142.064880
23
-88.337395
33
-1.219315
0
3DFACE
8
0
70
0
10
-124.446037
20
-107.335411
30
-0.644843
11
-108.379532
21
-106.707657
31
0.514821
12
-107.370819
22
-88.528992
32
0.416068
13
-124.049088
23
-88.531647
33
-0.283217
0
3DFACE
8
0
70
0
10
-108.379532
20
-106.707657
30
0.514821
11
-92.931595
21
-105.921158
31
0.749673
12
-91.942657
22
-88.148132
32
-0.189907
13
-107.370819
23
-88.528992
33
0.416068
0
3DFACE
8
0
70
0
10
-92.931595
20
-105.921158
30
0.749673
11
-75.953194
21
-105.915665
31
-0.689769
12
-76.067772
22
-87.799683
32
-2.266213
13
-91.942657
23
-88.148132
33
-0.189907
0
3DFACE
8
0
70
0
10
-75.953194
20
-105.915665
30
-0.689769
11
-56.371700
21
-107.309723
31
-3.373716
12
-57.841431
22
-88.208305
32
-4.760467
13
-76.067772
23
-87.799683
33
-2.266213
0
3DFACE
8
0
70
0
10
-56.371700
20
-107.309723
30
-3.373716
11
-35.496078
21
-109.570297
31
-5.896097
12
-37.286247
22
-89.570251
32
-6.075802
13
-57.841431
23
-88.208305
33
-4.760467
0
3DFACE
8
0
70
0
10
-35.496078
20
-109.570297
30
-5.896097
11
-16.330200
21
-111.156754
31
-6.789739
12
-16.751297
22
-91.011162
32
-5.137135
13
-37.286247
23
-89.570251
33
-6.075802
0
3DFACE
8
0
70
0
10
-16.330200
20
-111.156754
30
-6.789739
11
-0.988295
21
-110.723534
31
-5.425220
12
0.955206
22
-91.059204
32
-2.034522
13
-16.751297
23
-91.011162
33
-5.137135
0
3DFACE
8
0
70
0
10
-0.988295
20
-110.723534
30
-5.425220
11
11.423085
21
-108.395920
31
-2.291431
12
14.986428
22
-88.890984
32
2.126934
13
0.955206
23
-91.059204
33
-2.034522
0
3DFACE
8
0
70
0
10
11.423085
20
-108.395920
30
-2.291431
11
24.330799
21
-105.912743
31
1.413050
12
27.317047
22
-85.271446
32
5.925315
13
14.986428
23
-88.890984
33
2.126934
0
3DFACE
8
0
70
0
10
24.330799
20
-105.912743
30
1.413050
11
40.984161
21
-105.355904
31
4.490425
12
41.320007
22
-82.250053
32
8.336497
13
27.317047
23
-85.271446
33
5.925315
0
3DFACE
8
0
70
0
10
40.984161
20
-105.355904
30
4.490425
11
61.851341
21
-107.451012
31
6.279302
12
59.237396
22
-81.716499
32
9.077523
13
41.320007
23
-82.250053
33
8.336497
0
3DFACE
8
0
70
0
10
61.851341
20
-107.451012
30
6.279302
11
84.288422
21
-110.870705
31
6.769534
12
80.553314
22
-83.934570
32
8.516933
13
59.237396
23
-81.716499
33
9.077523
0
3DFACE
8
0
70
0
10
84.288422
20
-110.870705
30
6.769534
11
104.630234
21
-113.181641
31
6.358561
12
102.429428
22
-87.253433
32
7.321740
13
80.553314
23
-83.934570
33
8.516933
0
3DFACE
8
0
70
0
10
104.630234
20
-113.181641
30
6.358561
11
120.945808
21
-112.732445
31
5.491378
12
121.773705
22
-89.279091
32
6.063766
13
102.429428
23
-87.253433
33
7.321740
0
3DFACE
8
0
70
0
10
120.945808
20
-112.732445
30
5.491378
11
134.356644
21
-109.691132
31
3.827376
12
137.049881
22
-88.590767
32
4.310796
13
121.773705
23
-89.279091
33
6.063766
0
3DFACE
8
0
70
0
10
134.356644
20
-109.691132
30
3.827376
11
148.832672
21
-107.308983
31
2.375668
12
150.854568
22
-86.455734
32
2.895074
13
137.049881
23
-88.590767
33
4.310796
0
3DFACE
8
0
70
0
10
148.832672
20
-107.308983
30
2.375668
11
166.314957
21
-107.323006
31
1.277346
12
165.953491
22
-85.021194
32
1.677140
13
150.854568
23
-86.455734
33
2.895074
0
3DFACE
8
0
70
0
10
166.314957
20
-107.323006
30
1.277346
11
186.377487
21
-109.567535
31
0.708291
12
183.741623
22
-85.580978
32
0.704130
13
165.953491
23
-85.021194
33
1.677140
0
3DFACE
8
0
70
0
10
186.377487
20
-109.567535
30
0.708291
11
207.001526
21
-112.384949
31
0.801142
12
203.672913
22
-87.855873
32
0.239515
13
183.741623
23
-85.580978
33
0.704130
0
3DFACE
8
0
70
0
10
207.001526
20
-112.384949
30
0.801142
11
226.057678
21
-113.909737
31
1.412644
12
223.857117
22
-90.432388
32
0.478782
13
203.672913
23
-87.855873
33
0.239515
0
3DFACE
8
0
70
0
10
-160.130249
20
-88.291672
30
-1.478288
11
-142.064880
21
-88.337395
31
-1.219315
12
-141.445389
22
-69.260040
32
-0.981087
13
-159.417313
23
-69.355049
33
-1.402526
0
3DFACE
8
0
70
0
10
-142.064880
20
-88.337395
30
-1.219315
11
-124.049088
21
-88.531647
31
-0.283217
12
-123.415039
22
-69.728745
32
-0.161704
13
-141.445389
23
-69.260040
33
-0.981087
0
3DFACE
8
0
70
0
10
-124.049088
20
-88.531647
30
-0.283217
11
-107.370819
21
-88.528992
31
0.416068
12
-106.484810
22
-70.409775
32
0.005999
13
-123.415039
23
-69.728745
33
-0.161704
0
3DFACE
8
0
70
0
10
-107.370819
20
-88.528992
30
0.416068
11
-91.942657
21
-88.148132
31
-0.189907
12
-90.829109
22
-70.505020
32
-1.218433
13
-106.484810
23
-70.409775
33
0.005999
0
3DFACE
8
0
70
0
10
-91.942657
20
-88.148132
30
-0.189907
11
-76.067772
21
-87.799683
31
-2.266213
12
-75.202415
22
-69.702530
32
-3.400793
13
-90.829109
23
-70.505020
33
-1.218433
0
3DFACE
8
0
70
0
10
-76.067772
20
-87.799683
30
-2.266213
11
-57.841431
21
-88.208305
31
-4.760467
12
-57.915886
22
-68.661705
32
-5.101864
13
-75.202415
23
-69.702530
33
-3.400793
0
3DFACE
8
0
70
0
10
-57.841431
20
-88.208305
30
-4.760467
11
-37.286247
21
-89.570251
31
-6.075802
12
-38.364021
22
-68.435188
32
-4.908950
13
-57.915886
23
-68.661705
33
-5.101864
0
3DFACE
8
0
70
0
10
-37.286247
20
-89.570251
30
-6.075802
11
-16.751297
21
-91.011162
31
-5.137135
12
-17.785458
22
-69.340141
32
-2.433775
13
-38.364021
23
-68.435188
33
-4.908950
0
3DFACE
8
0
70
0
10
-16.751297
20
-91.011162
30
-5.137135
11
0.955206
21
-91.059204
31
-2.034522
12
1.466897
22
-70.427399
32
1.473661
13
-17.785458
23
-69.340141
33
-2.433775
0
3DFACE
8
0
70
0
10
0.955206
20
-91.059204
30
-2.034522
11
14.986428
21
-88.890984
31
2.126934
12
17.654224
22
-70.174438
32
5.324595
13
1.466897
23
-70.427399
33
1.473661
0
3DFACE
8
0
70
0
10
14.986428
20
-88.890984
30
2.126934
11
27.317047
21
-85.271446
31
5.925315
12
31.047409
22
-67.857620
32
7.850696
13
17.654224
23
-70.174438
33
5.324595
0
3DFACE
8
0
70
0
10
27.317047
20
-85.271446
30
5.925315
11
41.320007
21
-82.250053
31
8.336497
12
43.886620
22
-64.380066
32
8.541598
13
31.047409
23
-67.857620
33
7.850696
0
3DFACE
8
0
70
0
10
41.320007
20
-82.250053
30
8.336497
11
59.237396
21
-81.716499
31
9.077523
12
58.892132
22
-61.767960
32
7.667352
13
43.886620
23
-64.380066
33
8.541598
0
3DFACE
8
0
70
0
10
59.237396
20
-81.716499
30
9.077523
11
80.553314
21
-83.934570
31
8.516933
12
77.409309
22
-61.684418
32
5.965426
13
58.892132
23
-61.767960
33
7.667352
0
3DFACE
8
0
70
0
10
80.553314
20
-83.934570
30
8.516933
11
102.429428
21
-87.253433
31
7.321740
12
98.487022
22
-64.143715
32
4.255965
13
77.409309
23
-61.684418
33
5.965426
0
3DFACE
8
0
70
0
10
102.429428
20
-87.253433
30
7.321740
11
121.773705
21
-89.279091
31
6.063766
12
119.533691
22
-67.450523
32
3.124982
13
98.487022
23
-64.143715
33
4.255965
0
3DFACE
8
0
70
0
10
121.773705
20
-89.279091
30
6.063766
11
137.049881
21
-88.590767
31
4.310796
12
137.660568
22
-69.393608
32
2.315017
13
119.533691
23
-67.450523
33
3.124982
0
3DFACE
8
0
70
0
10
137.049881
20
-88.590767
30
4.310796
11
150.854568
21
-86.455734
31
2.895074
12
152.963638
22
-68.920509
32
1.987814
13
137.660568
23
-69.393608
33
2.315017
0
3DFACE
8
0
70
0
10
150.854568
20
-86.455734
30
2.895074
11
165.953491
21
-85.021194
31
1.677140
12
167.486053
22
-67.262337
32
1.641518
13
152.963638
23
-68.920509
33
1.987814
0
3DFACE
8
0
70
0
10
165.953491
20
-85.021194
30
1.677140
11
183.741623
21
-85.580978
31
0.704130
12
183.422577
22
-66.110313
32
1.037778
13
167.486053
23
-67.262337
33
1.641518
0
3DFACE
8
0
70
0
10
183.741623
20
-85.580978
30
0.704130
11
203.672913
21
-87.855873
31
0.239515
12
201.728699
22
-66.369774
32
0.379461
13
183.422577
23
-66.110313
33
1.037778
0
3DFACE
8
0
70
0
10
203.672913
20
-87.855873
30
0.239515
11
223.857117
21
-90.432388
31
0.478782
12
221.590393
22
-67.706024
32
0.121563
13
201.728699
23
-66.369774
33
0.379461
0
3DFACE
8
0
70
0
10
-159.417313
20
-69.355049
30
-1.402526
11
-141.445389
21
-69.260040
31
-0.981087
12
-141.058212
22
-50.217651
32
-0.842382
13
-158.480423
23
-50.460964
33
-1.337121
0
3DFACE
8
0
70
0
10
-141.445389
20
-69.260040
30
-0.981087
11
-123.415039
21
-69.728745
31
-0.161704
12
-123.747597
22
-50.790108
32
-0.218236
13
-141.058212
23
-50.217651
33
-0.842382
0
3DFACE
8
0
70
0
10
-123.415039
20
-69.728745
30
-0.161704
11
-106.484810
21
-70.409775
31
0.005999
12
-106.725754
22
-51.966084
32
-0.488651
13
-123.747597
23
-50.790108
33
-0.218236
0
3DFACE
8
0
70
0
10
-106.484810
20
-70.409775
30
0.005999
11
-90.829109
21
-70.505020
31
-1.218433
12
-90.022110
22
-52.564125
32
-2.011022
13
-106.725754
23
-51.966084
33
-0.488651
0
3DFACE
8
0
70
0
10
-90.829109
20
-70.505020
30
-1.218433
11
-75.202415
21
-69.702530
31
-3.400793
12
-73.393105
22
-51.597660
32
-3.902732
13
-90.022110
23
-52.564125
33
-2.011022
0
3DFACE
8
0
70
0
10
-75.202415
20
-69.702530
30
-3.400793
11
-57.915886
21
-68.661705
31
-5.101864
12
-56.326134
22
-49.417015
32
-4.629999
13
-73.393105
23
-51.597660
33
-3.902732
0
3DFACE
8
0
70
0
10
-57.915886
20
-68.661705
30
-5.101864
11
-38.364021
21
-68.435188
31
-4.908950
12
-38.318180
22
-47.617805
32
-3.209044
13
-56.326134
23
-49.417015
33
-4.629999
0
3DFACE
8
0
70
0
10
-38.364021
20
-68.435188
30
-4.908950
11
-17.785458
21
-69.340141
31
-2.433775
12
-19.371441
22
-47.700493
32
0.032591
13
-38.318180
23
-47.617805
33
-3.209044
0
3DFACE
8
0
70
0
10
-17.785458
20
-69.340141
30
-2.433775
11
1.466897
21
-70.427399
31
1.473661
12
-0.308147
22
-49.687256
32
3.695095
13
-19.371441
23
-47.700493
33
0.032591
0
3DFACE
8
0
70
0
10
1.466897
20
-70.427399
30
1.473661
11
17.654224
21
-70.174438
31
5.324595
12
17.545656
22
-51.968884
32
6.227980
13
-0.308147
23
-49.687256
33
3.695095
0
3DFACE
8
0
70
0
10
17.654224
20
-70.174438
30
5.324595
11
31.047409
21
-67.857620
31
7.850696
12
33.280991
22
-52.548485
32
6.776059
13
17.545656
23
-51.968884
33
6.227980
0
3DFACE
8
0
70
0
10
31.047409
20
-67.857620
30
7.850696
11
43.886620
21
-64.380066
31
8.541598
12
47.265934
22
-50.637318
32
5.437763
13
33.280991
23
-52.548485
33
6.776059
0
3DFACE
8
0
70
0
10
43.886620
20
-64.380066
30
8.541598
11
58.892132
21
-61.767960
31
7.667352
12
61.158806
22
-47.305889
32
2.967156
13
47.265934
23
-50.637318
33
5.437763
0
3DFACE
8
0
70
0
10
58.892132
20
-61.767960
30
7.667352
11
77.409309
21
-61.684418
31
5.965426
12
76.918724
22
-44.698544
32
0.308618
13
61.158806
23
-47.305889
33
2.967156
0
3DFACE
8
0
70
0
10
77.409309
20
-61.684418
30
5.965426
11
98.487022
21
-64.143715
31
4.255965
12
95.426575
22
-44.468075
32
-1.721360
13
76.918724
23
-44.698544
33
0.308618
0
3DFACE
8
0
70
0
10
98.487022
20
-64.143715
30
4.255965
11
119.533691
21
-67.450523
31
3.124982
12
115.787292
22
-46.656929
32
-2.596875
13
95.426575
23
-44.468075
33
-1.721360
0
3DFACE
8
0
70
0
10
119.533691
20
-67.450523
30
3.124982
11
137.660568
21
-69.393608
31
2.315017
12
135.701614
22
-49.841820
32
-2.050905
13
115.787292
23
-46.656929
33
-2.596875
0
3DFACE
8
0
70
0
10
137.660568
20
-69.393608
30
2.315017
11
152.963638
21
-68.920509
31
1.987814
12
153.267639
22
-51.558640
32
-0.773876
13
135.701614
23
-49.841820
33
-2.050905
0
3DFACE
8
0
70
0
10
152.963638
20
-68.920509
30
1.987814
11
167.486053
21
-67.262337
31
1.641518
12
168.971939
22
-51.472496
32
0.442273
13
153.267639
23
-51.558640
33
-0.773876
0
3DFACE
8
0
70
0
10
167.486053
20
-67.262337
30
1.641518
11
183.422577
21
-66.110313
31
1.037778
12
184.587753
22
-50.458080
32
0.998766
13
168.971939
23
-51.472496
33
0.442273
0
3DFACE
8
0
70
0
10
183.422577
20
-66.110313
30
1.037778
11
201.728699
21
-66.369774
31
0.379461
12
201.806046
22
-49.606869
32
0.808923
13
184.587753
23
-50.458080
33
0.998766
0
3DFACE
8
0
70
0
10
201.728699
20
-66.369774
30
0.379461
11
221.590393
21
-67.706024
31
0.121563
12
220.934464
22
-49.354942
32
0.344510
13
201.806046
23
-49.606869
33
0.808923
0
3DFACE
8
0
70
0
10
-158.480423
20
-50.460964
30
-1.337121
11
-141.058212
21
-50.217651
31
-0.842382
12
-141.359741
22
-31.249714
32
-0.796507
13
-158.268326
23
-31.630245
33
-1.293671
0
3DFACE
8
0
70
0
10
-141.058212
20
-50.217651
30
-0.842382
11
-123.747597
21
-50.790108
31
-0.218236
12
-124.821678
22
-31.670502
32
-0.363561
13
-141.359741
23
-31.249714
33
-0.796507
0
3DFACE
8
0
70
0
10
-123.747597
20
-50.790108
30
-0.218236
11
-106.725754
21
-51.966084
31
-0.488651
12
-107.735001
22
-32.984062
32
-0.895539
13
-124.821678
23
-31.670502
33
-0.363561
0
3DFACE
8
0
70
0
10
-106.725754
20
-51.966084
30
-0.488651
11
-90.022110
21
-52.564125
31
-2.011022
12
-89.640007
22
-34.045517
32
-2.432124
13
-107.735001
23
-32.984062
33
-0.895539
0
3DFACE
8
0
70
0
10
-90.022110
20
-52.564125
30
-2.011022
11
-73.393105
21
-51.597660
31
-3.902732
12
-71.193436
22
-33.462379
32
-3.870743
13
-89.640007
23
-34.045517
33
-2.432124
0
3DFACE
8
0
70
0
10
-73.393105
20
-51.597660
30
-3.902732
11
-56.326134
21
-49.417015
31
-4.629999
12
-53.529041
22
-31.042273
32
-3.817271
13
-71.193436
23
-33.462379
33
-3.870743
0
3DFACE
8
0
70
0
10
-56.326134
20
-49.417015
30
-4.629999
11
-38.318180
21
-47.617805
31
-3.209044
12
-37.016392
22
-28.269878
32
-1.764355
13
-53.529041
23
-31.042273
33
-3.817271
0
3DFACE
8
0
70
0
10
-38.318180
20
-47.617805
30
-3.209044
11
-19.371441
21
-47.700493
31
0.032591
12
-20.815334
22
-27.271255
32
1.451071
13
-37.016392
23
-28.269878
33
-1.764355
0
3DFACE
8
0
70
0
10
-19.371441
20
-47.700493
30
0.032591
11
-0.308147
21
-49.687256
31
3.695095
12
-3.749605
22
-29.112101
32
4.223376
13
-20.815334
23
-27.271255
33
1.451071
0
3DFACE
8
0
70
0
10
-0.308147
20
-49.687256
30
3.695095
11
17.545656
21
-51.968884
31
6.227980
12
14.418885
22
-32.865437
32
5.211274
13
-3.749605
23
-29.112101
33
4.223376
0
3DFACE
8
0
70
0
10
17.545656
20
-51.968884
30
6.227980
11
33.280991
21
-52.548485
31
6.776059
12
32.659912
22
-36.205643
32
4.018561
13
14.418885
23
-32.865437
33
5.211274
0
3DFACE
8
0
70
0
10
33.280991
20
-52.548485
30
6.776059
11
47.265934
21
-50.637318
31
5.437763
12
49.633808
22
-37.024426
32
1.179999
13
32.659912
23
-36.205643
33
4.018561
0
3DFACE
8
0
70
0
10
47.265934
20
-50.637318
30
5.437763
11
61.158806
21
-47.305889
31
2.967156
12
64.977173
22
-34.836525
32
-2.318775
13
49.633808
23
-37.024426
33
1.179999
0
3DFACE
8
0
70
0
10
61.158806
20
-47.305889
30
2.967156
11
76.918724
21
-44.698544
31
0.308618
12
79.753128
22
-31.025934
32
-5.547711
13
64.977173
23
-34.836525
33
-2.318775
0
3DFACE
8
0
70
0
10
76.918724
20
-44.698544
30
0.308618
11
95.426575
21
-44.468075
31
-1.721360
12
95.597824
22
-27.824434
32
-7.820381
13
79.753128
23
-31.025934
33
-5.547711
0
3DFACE
8
0
70
0
10
95.426575
20
-44.468075
30
-1.721360
11
115.787292
21
-46.656929
31
-2.596875
12
113.385628
22
-26.894485
32
-8.688148
13
95.597824
23
-27.824434
33
-7.820381
0
3DFACE
8
0
70
0
10
115.787292
20
-46.656929
30
-2.596875
11
135.701614
21
-49.841820
31
-2.050905
12
132.694305
22
-28.762257
32
-7.156695
13
113.385628
23
-26.894485
33
-8.688148
0
3DFACE
8
0
70
0
10
135.701614
20
-49.841820
30
-2.050905
11
153.267639
21
-51.558640
31
-0.773876
12
151.316605
22
-31.306389
32
-4.537459
13
132.694305
23
-28.762257
33
-7.156695
0
3DFACE
8
0
70
0
10
153.267639
20
-51.558640
30
-0.773876
11
168.971939
21
-51.472496
31
0.442273
12
168.473099
22
-33.170738
32
-1.725793
13
151.316605
23
-31.306389
33
-4.537459
0
3DFACE
8
0
70
0
10
168.971939
20
-51.472496
30
0.442273
11
184.587753
21
-50.458080
31
0.998766
12
184.909805
22
-34.000710
32
0.358548
13
168.473099
23
-33.170738
33
-1.725793
0
3DFACE
8
0
70
0
10
184.587753
20
-50.458080
30
0.998766
11
201.806046
21
-49.606869
31
0.808923
12
202.184326
22
-34.145649
32
1.180198
13
184.909805
23
-34.000710
33
0.358548
0
3DFACE
8
0
70
0
10
201.806046
20
-49.606869
30
0.808923
11
220.934464
21
-49.354942
31
0.344510
12
221.201752
22
-33.970741
32
0.944632
13
202.184326
23
-34.145649
33
1.180198
0
3DFACE
8
0
70
0
10
-158.268326
20
-31.630245
30
-1.293671
11
-141.359741
21
-31.249714
31
-0.796507
12
-141.534698
22
-12.407979
32
-0.819080
13
-158.122223
23
-12.865432
33
-1.274140
0
3DFACE
8
0
70
0
10
-141.359741
20
-31.249714
30
-0.796507
11
-124.821678
21
-31.670502
31
-0.363561
12
-125.832657
22
-12.463546
32
-0.526060
13
-141.534698
23
-12.407979
33
-0.819080
0
3DFACE
8
0
70
0
10
-124.821678
20
-31.670502
30
-0.363561
11
-107.735001
21
-32.984062
31
-0.895539
12
-109.062401
22
-13.497116
32
-1.138679
13
-125.832657
23
-12.463546
33
-0.526060
0
3DFACE
8
0
70
0
10
-107.735001
20
-32.984062
30
-0.895539
11
-89.640007
21
-34.045517
31
-2.432124
12
-89.925995
22
-14.826274
32
-2.505500
13
-109.062401
23
-13.497116
33
-1.138679
0
3DFACE
8
0
70
0
10
-89.640007
20
-34.045517
30
-2.432124
11
-71.193436
21
-33.462379
31
-3.870743
12
-69.509331
22
-15.074365
32
-3.520898
13
-89.925995
23
-14.826274
33
-2.505500
0
3DFACE
8
0
70
0
10
-71.193436
20
-33.462379
30
-3.870743
11
-53.529041
21
-31.042273
31
-3.817271
12
-50.503574
22
-13.452339
32
-3.055395
13
-69.509331
23
-15.074365
33
-3.520898
0
3DFACE
8
0
70
0
10
-53.529041
20
-31.042273
30
-3.817271
11
-37.016392
21
-28.269878
31
-1.764355
12
-34.668041
22
-10.674705
32
-0.969477
13
-50.503574
23
-13.452339
33
-3.055395
0
3DFACE
8
0
70
0
10
-37.016392
20
-28.269878
30
-1.764355
11
-20.815334
21
-27.271255
31
1.451071
12
-21.108324
22
-8.634305
32
1.704687
13
-34.668041
23
-10.674705
33
-0.969477
0
3DFACE
8
0
70
0
10
-20.815334
20
-27.271255
30
1.451071
11
-3.749605
21
-29.112101
31
4.223376
12
-7.040878
22
-9.056934
32
3.486139
13
-21.108324
23
-8.634305
33
1.704687
0
3DFACE
8
0
70
0
10
-3.749605
20
-29.112101
30
4.223376
11
14.418885
21
-32.865437
31
5.211274
12
9.784534
22
-12.202319
32
3.380528
13
-7.040878
23
-9.056934
33
3.486139
0
3DFACE
8
0
70
0
10
14.418885
20
-32.865437
30
5.211274
11
32.659912
21
-36.205643
31
4.018561
12
29.303207
22
-16.590858
32
1.321052
13
9.784534
23
-12.202319
33
3.380528
0
3DFACE
8
0
70
0
10
32.659912
20
-36.205643
30
4.018561
11
49.633808
21
-37.024426
31
1.179999
12
49.452251
22
-19.909786
32
-2.034163
13
29.303207
23
-16.590858
33
1.321052
0
3DFACE
8
0
70
0
10
49.633808
20
-37.024426
30
1.179999
11
64.977173
21
-34.836525
31
-2.318775
12
68.020729
22
-20.406944
32
-5.787121
13
49.452251
23
-19.909786
33
-2.034163
0
3DFACE
8
0
70
0
10
64.977173
20
-34.836525
30
-2.318775
11
79.753128
21
-31.025934
31
-5.547711
12
84.285233
22
-17.865004
32
-9.175301
13
68.020729
23
-20.406944
33
-5.787121
0
3DFACE
8
0
70
0
10
79.753128
20
-31.025934
30
-5.547711
11
95.597824
21
-27.824434
31
-7.820381
12
99.249313
22
-13.651517
32
-11.703235
13
84.285233
23
-17.865004
33
-9.175301
0
3DFACE
8
0
70
0
10
95.597824
20
-27.824434
30
-7.820381
11
113.385628
21
-26.894485
31
-8.688148
12
114.562859
22
-9.780082
32
-12.937568
13
99.249313
23
-13.651517
33
-11.703235
0
3DFACE
8
0
70
0
10
113.385628
20
-26.894485
30
-8.688148
11
132.694305
21
-28.762257
31
-7.156695
12
131.437103
22
-8.349468
32
-11.195348
13
114.562859
23
-9.780082
33
-12.937568
0
3DFACE
8
0
70
0
10
132.694305
20
-28.762257
30
-7.156695
11
151.316605
21
-31.306389
31
-4.537459
12
149.005234
22
-9.149110
32
-7.955790
13
131.437103
23
-8.349468
33
-11.195348
0
3DFACE
8
0
70
0
10
151.316605
20
-31.306389
30
-4.537459
11
168.473099
21
-33.170738
31
-1.725793
12
166.254242
22
-11.112948
32
-4.022157
13
149.005234
23
-9.149110
33
-7.955790
0
3DFACE
8
0
70
0
10
168.473099
20
-33.170738
30
-1.725793
11
184.909805
21
-34.000710
31
0.358548
12
183.199142
22
-13.323508
32
-0.523963
13
166.254242
23
-11.112948
33
-4.022157
0
3DFACE
8
0
70
0
10
184.909805
20
-34.000710
30
0.358548
11
202.184326
21
-34.145649
31
1.180198
12
200.940063
22
-15.293160
32
1.512301
13
183.199142
23
-13.323508
33
-0.523963
0
3DFACE
8
0
70
0
10
202.184326
20
-34.145649
30
1.180198
11
221.201752
21
-33.970741
31
0.944632
12
220.469238
22
-16.760618
32
1.822918
13
200.940063
23
-15.293160
33
1.512301
0
3DFACE
8
0
70
0
10
-158.122223
20
-12.865432
30
-1.274140
11
-141.534698
21
-12.407979
31
-0.819080
12
-141.410965
22
6.268705
32
-0.884089
13
-157.947891
23
5.852264
33
-1.274156
0
3DFACE
8
0
70
0
10
-141.534698
20
-12.407979
30
-0.819080
11
-125.832657
21
-12.463546
31
-0.526060
12
-126.404259
22
6.640129
32
-0.670476
13
-141.410965
23
6.268705
33
-0.884089
0
3DFACE
8
0
70
0
10
-125.832657
20
-12.463546
30
-0.526060
11
-109.062401
21
-13.497116
31
-1.138679
12
-110.332474
22
6.231276
32
-1.226329
13
-126.404259
23
6.640129
33
-0.670476
0
3DFACE
8
0
70
0
10
-109.062401
20
-13.497116
30
-1.138679
11
-89.925995
21
-14.826274
31
-2.505500
12
-90.940544
22
5.016324
32
-2.335452
13
-110.332474
23
6.231276
33
-1.226329
0
3DFACE
8
0
70
0
10
-89.925995
20
-14.826274
30
-2.505500
11
-69.509331
21
-15.074365
31
-3.520898
12
-69.083633
22
3.906474
32
-3.041673
13
-90.940544
23
5.016324
33
-2.335452
0
3DFACE
8
0
70
0
10
-69.509331
20
-15.074365
30
-3.520898
11
-50.503574
21
-13.452339
31
-3.055395
12
-48.363094
22
4.047743
32
-2.509619
13
-69.083633
23
3.906474
33
-3.041673
0
3DFACE
8
0
70
0
10
-50.503574
20
-13.452339
30
-3.055395
11
-34.668041
21
-10.674705
31
-0.969477
12
-31.946659
22
5.796280
32
-0.802357
13
-48.363094
23
4.047743
33
-2.509619
0
3DFACE
8
0
70
0
10
-34.668041
20
-10.674705
30
-0.969477
11
-21.108324
21
-8.634305
31
1.704687
12
-19.706280
22
8.255861
32
1.133576
13
-31.946659
23
5.796280
33
-0.802357
0
3DFACE
8
0
70
0
10
-21.108324
20
-8.634305
30
1.704687
11
-7.040878
21
-9.056934
31
3.486139
12
-8.312046
22
9.772656
32
2.161313
13
-19.706280
23
8.255861
33
1.133576
0
3DFACE
8
0
70
0
10
-7.040878
20
-9.056934
30
3.486139
11
9.784534
21
-12.202319
31
3.380528
12
6.030793
22
9.022736
32
1.648368
13
-8.312046
23
9.772656
33
2.161313
0
3DFACE
8
0
70
0
10
9.784534
20
-12.202319
30
3.380528
11
29.303207
21
-16.590858
31
1.321052
12
24.786932
22
5.920668
32
-0.340236
13
6.030793
23
9.022736
33
1.648368
0
3DFACE
8
0
70
0
10
29.303207
20
-16.590858
30
1.321052
11
49.452251
21
-19.909786
31
-2.034163
12
46.442909
22
1.754765
32
-3.303383
13
24.786932
23
5.920668
33
-0.340236
0
3DFACE
8
0
70
0
10
49.452251
20
-19.909786
30
-2.034163
11
68.020729
21
-20.406944
31
-5.787121
12
68.049698
22
-1.503458
32
-6.659015
13
46.442909
23
1.754765
33
-3.303383
0
3DFACE
8
0
70
0
10
68.020729
20
-20.406944
30
-5.787121
11
84.285233
21
-17.865004
31
-9.175301
12
87.367157
22
-2.242149
32
-9.908409
13
68.049698
23
-1.503458
33
-6.659015
0
3DFACE
8
0
70
0
10
84.285233
20
-17.865004
30
-9.175301
11
99.249313
21
-13.651517
31
-11.703235
12
103.983894
22
-0.094847
32
-12.692924
13
87.367157
23
-2.242149
33
-9.908409
0
3DFACE
8
0
70
0
10
99.249313
20
-13.651517
30
-11.703235
11
114.562859
21
-9.780082
31
-12.937568
12
118.968376
22
4.052101
32
-14.530452
13
103.983894
23
-0.094847
33
-12.692924
0
3DFACE
8
0
70
0
10
114.562859
20
-9.780082
30
-12.937568
11
131.437103
21
-8.349468
31
-11.195348
12
133.700104
22
8.317046
32
-13.249002
13
118.968376
23
4.052101
33
-14.530452
0
3DFACE
8
0
70
0
10
131.437103
20
-8.349468
30
-11.195348
11
149.005234
21
-9.149110
31
-7.955790
12
149.085999
22
10.770755
32
-10.076256
13
133.700104
23
8.317046
33
-13.249002
0
3DFACE
8
0
70
0
10
149.005234
20
-9.149110
30
-7.955790
11
166.254242
21
-11.112948
31
-4.022157
12
164.782394
22
11.194040
32
-5.610325
13
149.085999
23
10.770755
33
-10.076256
0
3DFACE
8
0
70
0
10
166.254242
20
-11.112948
30
-4.022157
11
183.199142
21
-13.323508
31
-0.523963
12
180.855423
22
9.971405
32
-1.084136
13
164.782394
23
11.194040
33
-5.610325
0
3DFACE
8
0
70
0
10
183.199142
20
-13.323508
30
-0.523963
11
200.940063
21
-15.293160
31
1.512301
12
198.276657
22
7.705442
32
2.034827
13
180.855423
23
9.971405
33
-1.084136
0
3DFACE
8
0
70
0
10
200.940063
20
-15.293160
30
1.512301
11
220.469238
21
-16.760618
31
1.822918
12
218.044571
22
5.080129
32
2.955623
13
198.276657
23
7.705442
33
2.034827
0
3DFACE
8
0
70
0
10
-157.947891
20
5.852264
30
-1.274156
11
-141.410965
21
6.268705
31
-0.884089
12
-141.012329
22
24.794771
32
-0.971232
13
-157.790314
23
24.560915
33
-1.286869
0
3DFACE
8
0
70
0
10
-141.410965
20
6.268705
30
-0.884089
11
-126.404259
21
6.640129
31
-0.670476
12
-126.345657
22
25.461153
32
-0.792222
13
-141.012329
23
24.794771
33
-0.971232
0
3DFACE
8
0
70
0
10
-126.404259
20
6.640129
30
-0.670476
11
-110.332474
21
6.231276
31
-1.226329
12
-111.134636
22
25.812811
32
-1.213120
13
-126.345657
23
25.461153
33
-0.792222
0
3DFACE
8
0
70
0
10
-110.332474
20
6.231276
30
-1.226329
11
-90.940544
21
5.016324
31
-2.335452
12
-92.357452
22
25.160810
32
-2.040079
13
-111.134636
23
25.812811
33
-1.213120
0
3DFACE
8
0
70
0
10
-90.940544
20
5.016324
30
-2.335452
11
-69.083633
21
3.906474
31
-3.041673
12
-70.088425
22
23.645475
32
-2.541052
13
-92.357452
23
25.160810
33
-2.040079
0
3DFACE
8
0
70
0
10
-69.083633
20
3.906474
30
-3.041673
11
-48.363094
21
4.047743
31
-2.509619
12
-47.910179
22
22.303463
32
-2.151358
13
-70.088425
23
23.645475
33
-2.541052
0
3DFACE
8
0
70
0
10
-48.363094
20
4.047743
30
-2.509619
11
-31.946659
21
5.796280
31
-0.802357
12
-29.885435
22
22.333698
32
-1.005365
13
-47.910179
23
22.303463
33
-2.151358
0
3DFACE
8
0
70
0
10
-31.946659
20
5.796280
30
-0.802357
11
-19.706280
21
8.255861
31
1.133576
12
-17.089437
22
24.139013
32
0.195230
13
-29.885435
23
22.333698
33
-1.005365
0
3DFACE
8
0
70
0
10
-19.706280
20
8.255861
30
1.133576
11
-8.312046
21
9.772656
31
2.161313
12
-6.828859
22
26.888046
32
0.740315
13
-17.089437
23
24.139013
33
0.195230
0
3DFACE
8
0
70
0
10
-8.312046
20
9.772656
30
2.161313
11
6.030793
21
9.022736
31
1.648368
12
5.113448
22
28.934187
32
0.316301
13
-6.828859
23
26.888046
33
0.740315
0
3DFACE
8
0
70
0
10
6.030793
20
9.022736
30
1.648368
11
24.786932
21
5.920668
31
-0.340236
12
21.468277
22
28.811403
32
-1.015956
13
5.113448
23
28.934187
33
0.316301
0
3DFACE
8
0
70
0
10
24.786932
20
5.920668
30
-0.340236
11
46.442909
21
1.754765
31
-3.303383
12
42.078857
22
26.155388
32
-3.060414
13
21.468277
23
28.811403
33
-1.015956
0
3DFACE
8
0
70
0
10
46.442909
20
1.754765
30
-3.303383
11
68.049698
21
-1.503458
31
-6.659015
12
64.669052
22
21.983521
32
-5.622434
13
42.078857
23
26.155388
33
-3.060414
0
3DFACE
8
0
70
0
10
68.049698
20
-1.503458
30
-6.659015
11
87.367157
21
-2.242149
31
-9.908409
12
86.594368
22
18.146770
32
-8.515098
13
64.669052
23
21.983521
33
-5.622434
0
3DFACE
8
0
70
0
10
87.367157
20
-2.242149
30
-9.908409
11
103.983894
21
-0.094847
31
-12.692924
12
106.263611
22
16.389332
32
-11.437568
13
86.594368
23
18.146770
33
-8.515098
0
3DFACE
8
0
70
0
10
103.983894
20
-0.094847
30
-12.692924
11
118.968376
21
4.052101
31
-14.530452
12
123.476883
22
17.533121
32
-13.830970
13
106.263611
23
16.389332
33
-11.437568
0
3DFACE
8
0
70
0
10
118.968376
20
4.052101
30
-14.530452
11
133.700104
21
8.317046
31
-13.249002
12
138.306183
22
21.627258
32
-13.278298
13
123.476883
23
17.533121
33
-13.830970
0
3DFACE
8
0
70
0
10
133.700104
20
8.317046
30
-13.249002
11
149.085999
21
10.770755
31
-10.076256
12
152.416687
22
26.006969
32
-10.523351
13
138.306183
23
21.627258
33
-13.278298
0
3DFACE
8
0
70
0
10
149.085999
20
10.770755
30
-10.076256
11
164.782394
21
11.194040
31
-5.610325
12
166.248428
22
29.310337
32
-5.958355
13
152.416687
23
26.006969
33
-10.523351
0
3DFACE
8
0
70
0
10
164.782394
20
11.194040
30
-5.610325
11
180.855423
21
9.971405
31
-1.084136
12
180.473343
22
30.858370
32
-0.879113
13
166.248428
23
29.310337
33
-5.958355
0
3DFACE
8
0
70
0
10
180.855423
20
9.971405
30
-1.084136
11
198.276657
21
7.705442
31
2.034827
12
196.470795
22
30.591988
32
2.907504
13
180.473343
23
30.858370
33
-0.879113
0
3DFACE
8
0
70
0
10
198.276657
20
7.705442
30
2.034827
11
218.044571
21
5.080129
31
2.955623
12
215.508453
22
28.989292
32
4.223999
13
196.470795
23
30.591988
33
2.907504
0
3DFACE
8
0
70
0
10
-157.790314
20
24.560915
30
-1.286869
11
-141.012329
21
24.794771
31
-0.971232
12
-140.535553
22
43.259632
32
-1.066329
13
-157.797928
23
43.307007
33
-1.305378
0
3DFACE
8
0
70
0
10
-141.012329
20
24.794771
30
-0.971232
11
-126.345657
21
25.461153
31
-0.792222
12
-125.721680
22
43.948452
32
-0.901594
13
-140.535553
23
43.259632
33
-1.066329
0
3DFACE
8
0
70
0
10
-126.345657
20
25.461153
30
-0.792222
11
-111.134636
21
25.812811
31
-1.213120
12
-111.185959
22
44.909431
32
-1.164010
13
-125.721680
23
43.948452
33
-0.901594
0
3DFACE
8
0
70
0
10
-111.134636
20
25.812811
30
-1.213120
11
-92.357452
21
25.160810
31
-2.040079
12
-93.589417
22
45.104313
32
-1.718808
13
-111.185959
23
44.909431
33
-1.164010
0
3DFACE
8
0
70
0
10
-92.357452
20
25.160810
30
-2.040079
11
-70.088425
21
23.645475
31
-2.541052
12
-72.033104
22
43.889256
32
-2.065993
13
-93.589417
23
45.104313
33
-1.718808
0
3DFACE
8
0
70
0
10
-70.088425
20
23.645475
30
-2.541052
11
-47.910179
21
22.303463
31
-2.151358
12
-49.265388
22
41.740250
32
-1.870378
13
-72.033104
23
43.889256
33
-2.065993
0
3DFACE
8
0
70
0
10
-47.910179
20
22.303463
30
-2.151358
11
-29.885435
21
22.333698
31
-1.005365
12
-29.411644
22
40.079437
32
-1.280005
13
-49.265388
23
41.740250
33
-1.870378
0
3DFACE
8
0
70
0
10
-29.885435
20
22.333698
30
-1.005365
11
-17.089437
21
24.139013
31
0.195230
12
-14.587162
22
40.306873
32
-0.730493
13
-29.411644
23
40.079437
33
-1.280005
0
3DFACE
8
0
70
0
10
-17.089437
20
24.139013
30
0.195230
11
-6.828859
21
26.888046
31
0.740315
12
-3.450783
22
42.768730
32
-0.536648
13
-14.587162
23
40.306873
33
-0.730493
0
3DFACE
8
0
70
0
10
-6.828859
20
26.888046
30
0.740315
11
5.113448
21
28.934187
31
0.316301
12
7.462446
22
46.411255
32
-0.740524
13
-3.450783
23
42.768730
33
-0.536648
0
3DFACE
8
0
70
0
10
5.113448
20
28.934187
30
0.316301
11
21.468277
21
28.811403
31
-1.015956
12
21.247084
22
49.341251
32
-1.300560
13
7.462446
23
46.411255
33
-0.740524
0
3DFACE
8
0
70
0
10
21.468277
20
28.811403
30
-1.015956
11
42.078857
21
26.155388
31
-3.060414
12
39.029358
22
49.903942
32
-2.298792
13
21.247084
23
49.341251
33
-1.300560
0
3DFACE
8
0
70
0
10
42.078857
20
26.155388
30
-3.060414
11
64.669052
21
21.983521
31
-5.622434
12
59.981655
22
47.589050
32
-3.912506
13
39.029358
23
49.903942
33
-2.298792
0
3DFACE
8
0
70
0
10
64.669052
20
21.983521
30
-5.622434
11
86.594368
21
18.146770
31
-8.515098
12
82.290062
22
43.261898
32
-6.219315
13
59.981655
23
47.589050
33
-3.912506
0
3DFACE
8
0
70
0
10
86.594368
20
18.146770
30
-8.515098
11
106.263611
21
16.389332
31
-11.437568
12
104.192940
22
38.699287
32
-8.994707
13
82.290062
23
43.261898
33
-6.219315
0
3DFACE
8
0
70
0
10
106.263611
20
16.389332
30
-11.437568
11
123.476883
21
17.533121
31
-13.830970
12
124.532875
22
35.734615
32
-11.584057
13
104.192940
23
38.699287
33
-8.994707
0
3DFACE
8
0
70
0
10
123.476883
20
17.533121
30
-13.830970
11
138.306183
21
21.627258
31
-13.278298
12
141.769867
22
36.369686
32
-11.594790
13
124.532875
23
35.734615
33
-11.584057
0
3DFACE
8
0
70
0
10
138.306183
20
21.627258
30
-13.278298
11
152.416687
21
26.006969
31
-10.523351
12
156.756485
22
39.246826
32
-9.258402
13
141.769867
23
36.369686
33
-11.594790
0
3DFACE
8
0
70
0
10
152.416687
20
26.006969
30
-10.523351
11
166.248428
21
29.310337
31
-5.958355
12
170.102066
22
42.983051
32
-4.850880
13
156.756485
23
39.246826
33
-9.258402
0
3DFACE
8
0
70
0
10
166.248428
20
29.310337
30
-5.958355
11
180.473343
21
30.858370
31
-0.879113
12
183.006332
22
46.361580
32
0.277201
13
170.102066
23
42.983051
33
-4.850880
0
3DFACE
8
0
70
0
10
180.473343
20
30.858370
30
-0.879113
11
196.470795
21
30.591988
31
2.907504
12
197.428482
22
48.671074
32
4.184858
13
183.006332
23
46.361580
33
0.277201
0
3DFACE
8
0
70
0
10
196.470795
20
30.591988
30
2.907504
11
215.508453
21
28.989292
31
4.223999
12
215.115189
22
49.681084
32
5.453589
13
197.428482
23
48.671074
33
4.184858
0
3DFACE
8
0
70
0
10
-157.797928
20
43.307007
30
-1.305378
11
-140.535553
21
43.259632
31
-1.066329
12
-140.821640
22
61.803329
32
-1.159042
13
-158.705597
23
62.125874
33
-1.323824
0
3DFACE
8
0
70
0
10
-140.535553
20
43.259632
30
-1.066329
11
-125.721680
21
43.948452
31
-0.901594
12
-125.199593
22
62.235695
32
-1.009411
13
-140.821640
23
61.803329
33
-1.159042
0
3DFACE
8
0
70
0
10
-125.721680
20
43.948452
30
-0.901594
11
-111.185959
21
44.909431
31
-1.164010
12
-110.670509
22
63.417442
32
-1.131310
13
-125.199593
23
62.235695
33
-1.009411
0
3DFACE
8
0
70
0
10
-111.185959
20
44.909431
30
-1.164010
11
-93.589417
21
45.104313
31
-1.718808
12
-94.179596
22
64.385048
32
-1.445080
13
-110.670509
23
63.417442
33
-1.131310
0
3DFACE
8
0
70
0
10
-93.589417
20
45.104313
30
-1.718808
11
-72.033104
21
43.889256
31
-2.065993
12
-74.050354
22
64.010323
32
-1.644056
13
-94.179596
23
64.385048
33
-1.445080
0
3DFACE
8
0
70
0
10
-72.033104
20
43.889256
30
-2.065993
11
-49.265388
21
41.740250
31
-1.870378
12
-51.781418
22
62.039165
32
-1.576006
13
-74.050354
23
64.010323
33
-1.644056
0
3DFACE
8
0
70
0
10
-49.265388
20
41.740250
30
-1.870378
11
-29.411644
21
40.079437
31
-1.280005
12
-30.767778
22
59.475266
32
-1.404915
13
-51.781418
23
62.039165
33
-1.576006
0
3DFACE
8
0
70
0
10
-29.411644
20
40.079437
30
-1.280005
11
-14.587162
21
40.306873
31
-0.730493
12
-13.530294
22
57.996952
32
-1.378248
13
-30.767778
23
59.475266
33
-1.404915
0
3DFACE
8
0
70
0
10
-14.587162
20
40.306873
30
-0.730493
11
-3.450783
21
42.768730
31
-0.536648
12
-0.049615
22
58.866119
32
-1.524929
13
-13.530294
23
57.996952
33
-1.378248
0
3DFACE
8
0
70
0
10
-3.450783
20
42.768730
30
-0.536648
11
7.462446
21
46.411255
31
-0.740524
12
11.750461
22
62.111134
32
-1.666010
13
-0.049615
23
58.866119
33
-1.524929
0
3DFACE
8
0
70
0
10
7.462446
20
46.411255
30
-0.740524
11
21.247084
21
49.341251
31
-1.300560
12
24.357275
22
66.480789
32
-1.709741
13
11.750461
23
62.111134
33
-1.666010
0
3DFACE
8
0
70
0
10
21.247084
20
49.341251
30
-1.300560
11
39.029358
21
49.903942
31
-2.298792
12
39.384308
22
70.105728
32
-1.867776
13
24.357275
23
66.480789
33
-1.709741
0
3DFACE
8
0
70
0
10
39.029358
20
49.903942
30
-2.298792
11
59.981655
21
47.589050
31
-3.912506
12
57.255600
22
71.420982
32
-2.543683
13
39.384308
23
70.105728
33
-1.867776
0
3DFACE
8
0
70
0
10
59.981655
20
47.589050
30
-3.912506
11
82.290062
21
43.261898
31
-6.219315
12
77.508064
22
69.855507
32
-4.012375
13
57.255600
23
71.420982
33
-2.543683
0
3DFACE
8
0
70
0
10
82.290062
20
43.261898
30
-6.219315
11
104.192940
21
38.699287
31
-8.994707
12
99.193016
22
66.002808
32
-6.143002
13
77.508064
23
69.855507
33
-4.012375
0
3DFACE
8
0
70
0
10
104.192940
20
38.699287
30
-8.994707
11
124.532875
21
35.734615
31
-11.584057
12
121.130882
22
61.268051
32
-8.256649
13
99.193016
23
66.002808
33
-6.143002
0
3DFACE
8
0
70
0
10
124.532875
20
35.734615
30
-11.584057
11
141.769867
21
36.369686
31
-11.594790
12
141.145157
22
57.779701
32
-8.293701
13
121.130882
23
61.268051
33
-8.256649
0
3DFACE
8
0
70
0
10
141.769867
20
36.369686
30
-11.594790
11
156.756485
21
39.246826
31
-9.258402
12
158.435089
22
56.584423
32
-6.109037
13
141.145157
23
57.779701
33
-8.293701
0
3DFACE
8
0
70
0
10
156.756485
20
39.246826
30
-9.258402
11
170.102066
21
42.983051
31
-4.850880
12
173.096451
22
57.401581
32
-1.991271
13
158.435089
23
56.584423
33
-6.109037
0
3DFACE
8
0
70
0
10
170.102066
20
42.983051
30
-4.850880
11
183.006332
21
46.361580
31
0.277201
12
186.342316
22
59.565514
32
2.669141
13
173.096451
23
57.401581
33
-1.991271
0
3DFACE
8
0
70
0
10
183.006332
20
46.361580
30
0.277201
11
197.428482
21
48.671074
31
4.184858
12
200.404617
22
62.341072
32
5.904299
13
186.342316
23
59.565514
33
2.669141
0
3DFACE
8
0
70
0
10
197.428482
20
48.671074
30
4.184858
11
215.115189
21
49.681084
31
5.453589
12
217.290497
22
65.035530
32
6.371167
13
200.404617
23
62.341072
33
5.904299
0
3DFACE
8
0
70
0
10
-158.705597
20
62.125874
30
-1.323824
11
-140.821640
21
61.803329
31
-1.159042
12
-141.612625
22
80.546532
32
-1.240669
13
-159.617752
23
81.021278
33
-1.337898
0
3DFACE
8
0
70
0
10
-140.821640
20
61.803329
30
-1.159042
11
-125.199593
21
62.235695
31
-1.009411
12
-125.351974
22
80.587456
32
-1.118315
13
-141.612625
23
80.546532
33
-1.240669
0
3DFACE
8
0
70
0
10
-125.199593
20
62.235695
30
-1.009411
11
-110.670509
21
63.417442
31
-1.131310
12
-110.271988
22
81.553581
32
-1.143423
13
-125.351974
23
80.587456
33
-1.118315
0
3DFACE
8
0
70
0
10
-110.670509
20
63.417442
30
-1.131310
11
-94.179596
21
64.385048
31
-1.445080
12
-94.162956
22
82.869446
32
-1.266635
13
-110.271988
23
81.553581
33
-1.143423
0
3DFACE
8
0
70
0
10
-94.179596
20
64.385048
30
-1.445080
11
-74.050354
21
64.010323
31
-1.644056
12
-75.398239
22
83.380104
32
-1.310369
13
-94.162956
23
82.869446
33
-1.266635
0
3DFACE
8
0
70
0
10
-74.050354
20
64.010323
30
-1.644056
11
-51.781418
21
62.039165
31
-1.576006
12
-54.366291
22
82.312218
32
-1.250174
13
-75.398239
23
83.380104
33
-1.310369
0
3DFACE
8
0
70
0
10
-51.781418
20
62.039165
30
-1.576006
11
-30.767778
21
59.475266
31
-1.404915
12
-33.281658
22
79.957077
32
-1.286870
13
-54.366291
23
82.312218
33
-1.250174
0
3DFACE
8
0
70
0
10
-30.767778
20
59.475266
30
-1.404915
11
-13.530294
21
57.996952
31
-1.378248
12
-14.354855
22
77.565147
32
-1.597890
13
-33.281658
23
79.957077
33
-1.286870
0
3DFACE
8
0
70
0
10
-13.530294
20
57.996952
30
-1.378248
11
-0.049615
21
58.866119
31
-1.524929
12
1.709888
22
76.609177
32
-2.075675
13
-14.354855
23
77.565147
33
-1.597890
0
3DFACE
8
0
70
0
10
-0.049615
20
58.866119
30
-1.524929
11
11.750461
21
62.111134
31
-1.666010
12
15.726993
22
77.971870
32
-2.389183
13
1.709888
23
76.609177
33
-2.075675
0
3DFACE
8
0
70
0
10
11.750461
20
62.111134
30
-1.666010
11
24.357275
21
66.480789
31
-1.709741
12
29.108883
22
81.523148
32
-2.323358
13
15.726993
23
77.971870
33
-2.389183
0
3DFACE
8
0
70
0
10
24.357275
20
66.480789
30
-1.709741
11
39.384308
21
70.105728
31
-1.867776
12
43.087959
22
86.212471
32
-2.031153
13
29.108883
23
81.523148
33
-2.323358
0
3DFACE
8
0
70
0
10
39.384308
20
70.105728
30
-1.867776
11
57.255600
21
71.420982
31
-2.543683
12
58.496643
22
90.527756
32
-1.940773
13
43.087959
23
86.212471
33
-2.031153
0
3DFACE
8
0
70
0
10
57.255600
20
71.420982
30
-2.543683
11
77.508064
21
69.855507
31
-4.012375
12
75.813637
22
93.078705
32
-2.411908
13
58.496643
23
90.527756
33
-1.940773
0
3DFACE
8
0
70
0
10
77.508064
20
69.855507
30
-4.012375
11
99.193016
21
66.002808
31
-6.143002
12
95.123756
22
93.072739
32
-3.402775
13
75.813637
23
93.078705
33
-2.411908
0
3DFACE
8
0
70
0
10
99.193016
20
66.002808
30
-6.143002
11
121.130882
21
61.268051
31
-8.256649
12
115.948036
22
90.513008
32
-4.306798
13
95.123756
23
93.072739
33
-3.402775
0
3DFACE
8
0
70
0
10
121.130882
20
61.268051
30
-8.256649
11
141.145157
21
57.779701
31
-8.293701
12
136.800720
22
85.557938
32
-3.738913
13
115.948036
23
90.513008
33
-4.306798
0
3DFACE
8
0
70
0
10
141.145157
20
57.779701
30
-8.293701
11
158.435089
21
56.584423
31
-6.109037
12
155.762054
22
80.951508
32
-1.423980
13
136.800720
23
85.557938
33
-3.738913
0
3DFACE
8
0
70
0
10
158.435089
20
56.584423
30
-6.109037
11
173.096451
21
57.401581
31
-1.991271
12
172.319580
22
77.697617
32
2.205320
13
155.762054
23
80.951508
33
-1.423980
0
3DFACE
8
0
70
0
10
173.096451
20
57.401581
30
-1.991271
11
186.342316
21
59.565514
31
2.669141
12
187.310577
22
76.309669
32
5.744664
13
172.319580
23
77.697617
33
2.205320
0
3DFACE
8
0
70
0
10
186.342316
20
59.565514
30
2.669141
11
200.404617
21
62.341072
31
5.904299
12
202.666855
22
76.817497
32
7.468345
13
187.310577
23
76.309669
33
5.744664
0
3DFACE
8
0
70
0
10
200.404617
20
62.341072
30
5.904299
11
217.290497
21
65.035530
31
6.371167
12
220.088745
22
78.697105
32
6.455377
13
202.666855
23
76.817497
33
7.468345
0
3DFACE
8
0
70
0
10
-159.617752
20
81.021278
30
-1.337898
11
-141.612625
21
80.546532
31
-1.240669
12
-141.755646
22
99.509743
32
-1.305128
13
-159.839615
23
99.957504
33
-1.345848
0
3DFACE
8
0
70
0
10
-141.612625
20
80.546532
30
-1.240669
11
-125.351974
21
80.587456
31
-1.118315
12
-124.967278
22
99.240562
32
-1.223232
13
-141.755646
23
99.509743
33
-1.305128
0
3DFACE
8
0
70
0
10
-125.351974
20
80.587456
30
-1.118315
11
-110.271988
21
81.553581
31
-1.143423
12
-109.559456
22
99.746819
32
-1.204385
13
-124.967278
23
99.240562
33
-1.223232
0
3DFACE
8
0
70
0
10
-110.271988
20
81.553581
30
-1.143423
11
-94.162956
21
82.869446
31
-1.266635
12
-93.662369
22
100.888741
32
-1.204897
13
-109.559456
23
99.746819
33
-1.204385
0
3DFACE
8
0
70
0
10
-94.162956
20
82.869446
30
-1.266635
11
-75.398239
21
83.380104
31
-1.310369
12
-75.802322
22
101.838211
32
-1.109262
13
-93.662369
23
100.888741
33
-1.204897
0
3DFACE
8
0
70
0
10
-75.398239
20
83.380104
30
-1.310369
11
-54.366291
21
82.312218
31
-1.250174
12
-56.111252
22
101.732574
32
-0.954977
13
-75.802322
23
101.838211
33
-1.109262
0
3DFACE
8
0
70
0
10
-54.366291
20
82.312218
30
-1.250174
11
-33.281658
21
79.957077
31
-1.286870
12
-35.796169
22
100.324677
32
-0.979868
13
-56.111252
23
101.732574
33
-0.954977
0
3DFACE
8
0
70
0
10
-33.281658
20
79.957077
30
-1.286870
11
-14.354855
21
77.565147
31
-1.597890
12
-16.367031
22
98.156487
32
-1.383202
13
-35.796169
23
100.324677
33
-0.979868
0
3DFACE
8
0
70
0
10
-14.354855
20
77.565147
30
-1.597890
11
1.709888
21
76.609177
31
-2.075675
12
1.407538
22
96.250359
32
-2.063712
13
-16.367031
23
98.156487
33
-1.383202
0
3DFACE
8
0
70
0
10
1.709888
20
76.609177
30
-2.075675
11
15.726993
21
77.971870
31
-2.389183
12
17.690195
22
95.628181
32
-2.644539
13
1.407538
23
96.250359
33
-2.063712
0
3DFACE
8
0
70
0
10
15.726993
20
77.971870
30
-2.389183
11
29.108883
21
81.523148
31
-2.323358
12
33.039059
22
96.928963
32
-2.779462
13
17.690195
23
95.628181
33
-2.644539
0
3DFACE
8
0
70
0
10
29.108883
20
81.523148
30
-2.323358
11
43.087959
21
86.212471
31
-2.031153
12
47.965637
22
100.202049
32
-2.434466
13
33.039059
23
96.928963
33
-2.779462
0
3DFACE
8
0
70
0
10
43.087959
20
86.212471
30
-2.031153
11
58.496643
21
90.527756
31
-1.940773
12
62.927391
22
104.860779
32
-1.879699
13
47.965637
23
100.202049
33
-2.434466
0
3DFACE
8
0
70
0
10
58.496643
20
90.527756
30
-1.940773
11
75.813637
21
93.078705
31
-2.411908
12
78.467850
22
109.803093
32
-1.414307
13
62.927391
23
104.860779
33
-1.879699
0
3DFACE
8
0
70
0
10
75.813637
20
93.078705
30
-2.411908
11
95.123756
21
93.072739
31
-3.402775
12
95.132149
22
113.699631
32
-1.047757
13
78.467850
23
109.803093
33
-1.414307
0
3DFACE
8
0
70
0
10
95.123756
20
93.072739
30
-3.402775
11
115.948036
21
90.513008
31
-4.306798
12
113.119194
22
115.373459
32
-0.344660
13
95.132149
23
113.699631
33
-1.047757
0
3DFACE
8
0
70
0
10
115.948036
20
90.513008
30
-4.306798
11
136.800720
21
85.557938
31
-3.738913
12
132.193710
22
112.630913
32
1.145254
13
113.119194
23
115.373459
33
-0.344660
0
3DFACE
8
0
70
0
10
136.800720
20
85.557938
30
-3.738913
11
155.762054
21
80.951508
31
-1.423980
12
150.714355
22
108.014343
32
3.586012
13
132.193710
23
112.630913
33
1.145254
0
3DFACE
8
0
70
0
10
155.762054
20
80.951508
30
-1.423980
11
172.319580
21
77.697617
31
2.205320
12
168.104309
22
103.005394
32
6.358033
13
150.714355
23
108.014343
33
3.586012
0
3DFACE
8
0
70
0
10
172.319580
20
77.697617
30
2.205320
11
187.310577
21
76.309669
31
5.744664
12
184.867340
22
98.965225
32
8.183584
13
168.104309
23
103.005394
33
6.358033
0
3DFACE
8
0
70
0
10
187.310577
20
76.309669
30
5.744664
11
202.666855
21
76.817497
31
7.468345
12
202.269058
22
96.745750
32
7.850227
13
184.867340
23
98.965225
33
8.183584
0
3DFACE
8
0
70
0
10
202.666855
20
76.817497
30
7.468345
11
220.088745
21
78.697105
31
6.455377
12
221.173981
22
96.329056
32
5.121039
13
202.269058
23
96.745750
33
7.850227
0
3DFACE
8
0
70
0
10
-159.839615
20
99.957504
30
-1.345848
11
-141.755646
21
99.509743
31
-1.305128
12
-141.994705
22
118.585030
32
-1.347613
13
-160.007156
23
118.877388
33
-1.346839
0
3DFACE
8
0
70
0
10
-141.755646
20
99.509743
30
-1.305128
11
-124.967278
21
99.240562
31
-1.223232
12
-124.759056
22
118.235054
32
-1.312537
13
-141.994705
23
118.585030
33
-1.347613
0
3DFACE
8
0
70
0
10
-124.967278
20
99.240562
30
-1.223232
11
-109.559456
21
99.746819
31
-1.204385
12
-108.796707
22
118.356682
32
-1.297500
13
-124.759056
23
118.235054
33
-1.312537
0
3DFACE
8
0
70
0
10
-109.559456
20
99.746819
30
-1.204385
11
-93.662369
21
100.888741
31
-1.204897
12
-92.866676
22
119.050743
32
-1.252037
13
-108.796707
23
118.356682
33
-1.297500
0
3DFACE
8
0
70
0
10
-93.662369
20
100.888741
30
-1.204897
11
-75.802322
21
101.838211
31
-1.109262
12
-75.540962
22
119.872917
32
-1.072946
13
-92.866676
23
119.050743
33
-1.252037
0
3DFACE
8
0
70
0
10
-75.802322
20
101.838211
30
-1.109262
11
-56.111252
21
101.732574
31
-0.954977
12
-56.841003
22
120.202553
32
-0.794880
13
-75.540962
23
119.872917
33
-1.072946
0
3DFACE
8
0
70
0
10
-56.111252
20
101.732574
30
-0.954977
11
-35.796169
21
100.324677
31
-0.979868
12
-37.472870
22
119.679436
32
-0.656279
13
-56.841003
23
120.202553
33
-0.794880
0
3DFACE
8
0
70
0
10
-35.796169
20
100.324677
30
-0.979868
11
-16.367031
21
98.156487
31
-1.383202
12
-18.371901
22
118.369003
32
-0.907209
13
-37.472870
23
119.679436
33
-0.656279
0
3DFACE
8
0
70
0
10
-16.367031
20
98.156487
30
-1.383202
11
1.407538
21
96.250359
31
-2.063712
12
-0.086473
22
116.657745
32
-1.546702
13
-18.371901
23
118.369003
33
-0.907209
0
3DFACE
8
0
70
0
10
1.407538
20
96.250359
30
-2.063712
11
17.690195
21
95.628181
31
-2.644539
12
17.460093
22
115.096130
32
-2.266439
13
-0.086473
23
116.657745
33
-1.546702
0
3DFACE
8
0
70
0
10
17.690195
20
95.628181
30
-2.644539
11
33.039059
21
96.928963
31
-2.779462
12
34.550133
22
114.306084
32
-2.661114
13
17.460093
23
115.096130
33
-2.266439
0
3DFACE
8
0
70
0
10
33.039059
20
96.928963
30
-2.779462
11
47.965637
21
100.202049
31
-2.434466
12
51.266949
22
114.876068
32
-2.498185
13
34.550133
23
114.306084
33
-2.661114
0
3DFACE
8
0
70
0
10
47.965637
20
100.202049
30
-2.434466
11
62.927391
21
104.860779
31
-1.879699
12
67.517487
22
117.150475
32
-1.803558
13
51.266949
23
114.876068
33
-2.498185
0
3DFACE
8
0
70
0
10
62.927391
20
104.860779
30
-1.879699
11
78.467850
21
109.803093
31
-1.414307
12
83.305855
22
120.973991
32
-0.715222
13
67.517487
23
117.150475
33
-1.803558
0
3DFACE
8
0
70
0
10
78.467850
20
109.803093
30
-1.414307
11
95.132149
21
113.699631
31
-1.047757
12
98.864517
22
125.572227
32
0.742695
13
83.305855
23
120.973991
33
-0.715222
0
3DFACE
8
0
70
0
10
95.132149
20
113.699631
30
-1.047757
11
113.119194
21
115.373459
31
-0.344660
12
114.484634
22
129.707489
32
2.763257
13
98.864517
23
125.572227
33
0.742695
0
3DFACE
8
0
70
0
10
113.119194
20
115.373459
30
-0.344660
11
132.193710
21
112.630913
31
1.145254
12
130.673233
22
130.676514
32
4.858686
13
114.484634
23
129.707489
33
2.763257
0
3DFACE
8
0
70
0
10
132.193710
20
112.630913
30
1.145254
11
150.714355
21
108.014343
31
3.586012
12
147.132080
22
129.243637
32
6.979656
13
130.673233
23
130.676514
33
4.858686
0
3DFACE
8
0
70
0
10
150.714355
20
108.014343
30
3.586012
11
168.104309
21
103.005394
31
6.358033
12
163.855560
22
126.342163
32
8.419279
13
147.132080
23
129.243637
33
6.979656
0
3DFACE
8
0
70
0
10
168.104309
20
103.005394
30
6.358033
11
184.867340
21
98.965225
31
8.183584
12
181.331665
22
123.192719
32
8.238532
13
163.855560
23
126.342163
33
8.419279
0
3DFACE
8
0
70
0
10
184.867340
20
98.965225
30
8.183584
11
202.269058
21
96.745750
31
7.850227
12
200.167160
22
120.733788
32
5.935852
13
181.331665
23
123.192719
33
8.238532
0
3DFACE
8
0
70
0
10
202.269058
20
96.745750
30
7.850227
11
221.173981
21
96.329056
31
5.121039
12
220.259186
22
119.155777
32
2.013004
13
200.167160
23
120.733788
33
5.935852
0
3DFACE
8
0
70
0
10
-160.059753
20
-126.149200
30
-1.569612
11
-160.134399
21
-107.236908
31
-1.543253
12
-142.067566
22
-107.417130
32
-1.528124
13
-142.158920
23
-126.443161
33
-1.830217
0
3DFACE
8
0
70
0
10
-142.158920
20
-126.443161
30
-1.830217
11
-142.067566
21
-107.417130
31
-1.528124
12
-124.446037
22
-107.335411
32
-0.644843
13
-125.090263
23
-126.241982
33
-1.217957
0
3DFACE
8
0
70
0
10
-125.090263
20
-126.241982
30
-1.217957
11
-124.446037
21
-107.335411
31
-0.644843
12
-108.379532
22
-106.707657
32
0.514821
13
-109.395981
23
-125.312599
33
0.133272
0
3DFACE
8
0
70
0
10
-109.395981
20
-125.312599
30
0.133272
11
-108.379532
21
-106.707657
31
0.514821
12
-92.931595
22
-105.921158
32
0.749673
13
-93.487671
23
-124.325859
33
1.176937
0
3DFACE
8
0
70
0
10
-93.487671
20
-124.325859
30
1.176937
11
-92.931595
21
-105.921158
31
0.749673
12
-75.953194
22
-105.915665
32
-0.689769
13
-75.176300
23
-124.352074
33
0.796599
0
3DFACE
8
0
70
0
10
-75.176300
20
-124.352074
30
0.796599
11
-75.953194
21
-105.915665
31
-0.689769
12
-56.371700
22
-107.309723
32
-3.373716
13
-54.390209
23
-125.763359
33
-1.256604
0
3DFACE
8
0
70
0
10
-54.390209
20
-125.763359
30
-1.256604
11
-56.371700
21
-107.309723
31
-3.373716
12
-35.496078
22
-109.570297
32
-5.896097
13
-33.744537
23
-127.680847
33
-4.114699
0
3DFACE
8
0
70
0
10
-33.744537
20
-127.680847
30
-4.114699
11
-35.496078
21
-109.570297
31
-5.896097
12
-16.330200
22
-111.156754
32
-6.789739
13
-16.339556
23
-128.667923
33
-6.372031
0
3DFACE
8
0
70
0
10
-16.339556
20
-128.667923
30
-6.372031
11
-16.330200
21
-111.156754
31
-6.789739
12
-0.988295
22
-110.723534
32
-5.425220
13
-2.878649
23
-128.131378
33
-6.977785
0
3DFACE
8
0
70
0
10
-2.878649
20
-128.131378
30
-6.977785
11
-0.988295
21
-110.723534
31
-5.425220
12
11.423085
22
-108.395920
32
-2.291431
13
9.292778
23
-127.086685
33
-5.783360
0
3DFACE
8
0
70
0
10
9.292778
20
-127.086685
30
-5.783360
11
11.423085
21
-108.395920
31
-2.291431
12
24.330799
22
-105.912743
32
1.413050
13
24.118467
23
-127.426041
33
-3.451611
0
3DFACE
8
0
70
0
10
24.118467
20
-127.426041
30
-3.451611
11
24.330799
21
-105.912743
31
1.413050
12
40.984161
22
-105.355904
32
4.490425
13
43.496632
23
-130.213638
33
-0.929775
0
3DFACE
8
0
70
0
10
43.496632
20
-130.213638
30
-0.929775
11
40.984161
21
-105.355904
31
4.490425
12
61.851341
22
-107.451012
32
6.279302
13
65.669029
23
-134.518188
33
1.076693
0
3DFACE
8
0
70
0
10
65.669029
20
-134.518188
30
1.076693
11
61.851341
21
-107.451012
31
6.279302
12
84.288422
22
-110.870705
32
6.769534
13
86.725220
23
-137.912399
33
2.317326
0
3DFACE
8
0
70
0
10
86.725220
20
-137.912399
30
2.317326
11
84.288422
21
-110.870705
31
6.769534
12
104.630234
22
-113.181641
32
6.358561
13
103.829781
23
-138.336716
33
2.884613
0
3DFACE
8
0
70
0
10
103.829781
20
-138.336716
30
2.884613
11
104.630234
21
-113.181641
31
6.358561
12
120.945808
22
-112.732445
32
5.491378
13
117.438866
23
-135.819382
33
2.981375
0
3DFACE
8
0
70
0
10
117.438866
20
-135.819382
30
2.981375
11
120.945808
21
-112.732445
31
5.491378
12
134.356644
22
-109.691132
32
3.827376
13
131.199295
23
-131.893860
33
2.356904
0
3DFACE
8
0
70
0
10
131.199295
20
-131.893860
30
2.356904
11
134.356644
21
-109.691132
31
3.827376
12
148.832672
22
-107.308983
32
2.375668
13
148.320526
23
-130.388275
33
1.737397
0
3DFACE
8
0
70
0
10
148.320526
20
-130.388275
30
1.737397
11
148.832672
21
-107.308983
31
2.375668
12
166.314957
22
-107.323006
32
1.277346
13
168.584991
23
-131.567154
33
1.379791
0
3DFACE
8
0
70
0
10
168.584991
20
-131.567154
30
1.379791
11
166.314957
21
-107.323006
31
1.277346
12
186.377487
22
-109.567535
32
0.708291
13
189.672501
23
-133.702774
33
1.443960
0
3DFACE
8
0
70
0
10
189.672501
20
-133.702774
30
1.443960
11
186.377487
21
-109.567535
31
0.708291
12
207.001526
22
-112.384949
32
0.801142
13
209.085663
23
-134.598068
33
1.875255
0
3DFACE
8
0
70
0
10
209.085663
20
-134.598068
30
1.875255
11
207.001526
21
-112.384949
31
0.801142
12
226.057678
22
-113.909737
32
1.412644
13
225.682358
23
-133.097168
33
2.313986
0
3DFACE
8
0
70
0
10
-160.134399
20
-107.236908
30
-1.543253
11
-160.130249
21
-88.291672
31
-1.478288
12
-142.064880
22
-88.337395
32
-1.219315
13
-142.067566
23
-107.417130
33
-1.528124
0
3DFACE
8
0
70
0
10
-142.067566
20
-107.417130
30
-1.528124
11
-142.064880
21
-88.337395
31
-1.219315
12
-124.049088
22
-88.531647
32
-0.283217
13
-124.446037
23
-107.335411
33
-0.644843
0
3DFACE
8
0
70
0
10
-124.446037
20
-107.335411
30
-0.644843
11
-124.049088
21
-88.531647
31
-0.283217
12
-107.370819
22
-88.528992
32
0.416068
13
-108.379532
23
-106.707657
33
0.514821
0
3DFACE
8
0
70
0
10
-108.379532
20
-106.707657
30
0.514821
11
-107.370819
21
-88.528992
31
0.416068
12
-91.942657
22
-88.148132
32
-0.189907
13
-92.931595
23
-105.921158
33
0.749673
0
3DFACE
8
0
70
0
10
-92.931595
20
-105.921158
30
0.749673
11
-91.942657
21
-88.148132
31
-0.189907
12
-76.067772
22
-87.799683
32
-2.266213
13
-75.953194
23
-105.915665
33
-0.689769
0
3DFACE
8
0
70
0
10
-75.953194
20
-105.915665
30
-0.689769
11
-76.067772
21
-87.799683
31
-2.266213
12
-57.841431
22
-88.208305
32
-4.760467
13
-56.371700
23
-107.309723
33
-3.373716
0
3DFACE
8
0
70
0
10
-56.371700
20
-107.309723
30
-3.373716
11
-57.841431
21
-88.208305
31
-4.760467
12
-37.286247
22
-89.570251
32
-6.075802
13
-35.496078
23
-109.570297
33
-5.896097
0
3DFACE
8
0
70
0
10
-35.496078
20
-109.570297
30
-5.896097
11
-37.286247
21
-89.570251
31
-6.075802
12
-16.751297
22
-91.011162
32
-5.137135
13
-16.330200
23
-111.156754
33
-6.789739
0
3DFACE
8
0
70
0
10
-16.330200
20
-111.156754
30
-6.789739
11
-16.751297
21
-91.011162
31
-5.137135
12
0.955206
22
-91.059204
32
-2.034522
13
-0.988295
23
-110.723534
33
-5.425220
0
3DFACE
8
0
70
0
10
-0.988295
20
-110.723534
30
-5.425220
11
0.955206
21
-91.059204
31
-2.034522
12
14.986428
22
-88.890984
32
2.126934
13
11.423085
23
-108.395920
33
-2.291431
0
3DFACE
8
0
70
0
10
11.423085
20
-108.395920
30
-2.291431
11
14.986428
21
-88.890984
31
2.126934
12
27.317047
22
-85.271446
32
5.925315
13
24.330799
23
-105.912743
33
1.413050
0
3DFACE
8
0
70
0
10
24.330799
20
-105.912743
30
1.413050
11
27.317047
21
-85.271446
31
5.925315
12
41.320007
22
-82.250053
32
8.336497
13
40.984161
23
-105.355904
33
4.490425
0
3DFACE
8
0
70
0
10
40.984161
20
-105.355904
30
4.490425
11
41.320007
21
-82.250053
31
8.336497
12
59.237396
22
-81.716499
32
9.077523
13
61.851341
23
-107.451012
33
6.279302
0
3DFACE
8
0
70
0
10
61.851341
20
-107.451012
30
6.279302
11
59.237396
21
-81.716499
31
9.077523
12
80.553314
22
-83.934570
32
8.516933
13
84.288422
23
-110.870705
33
6.769534
0
3DFACE
8
0
70
0
10
84.288422
20
-110.870705
30
6.769534
11
80.553314
21
-83.934570
31
8.516933
12
102.429428
22
-87.253433
32
7.321740
13
104.630234
23
-113.181641
33
6.358561
0
3DFACE
8
0
70
0
10
104.630234
20
-113.181641
30
6.358561
11
102.429428
21
-87.253433
31
7.321740
12
121.773705
22
-89.279091
32
6.063766
13
120.945808
23
-112.732445
33
5.491378
0
3DFACE
8
0
70
0
10
120.945808
20
-112.732445
30
5.491378
11
121.773705
21
-89.279091
31
6.063766
12
137.049881
22
-88.590767
32
4.310796
13
134.356644
23
-109.691132
33
3.827376
0
3DFACE
8
0
70
0
10
134.356644
20
-109.691132
30
3.827376
11
137.049881
21
-88.590767
31
4.310796
12
150.854568
22
-86.455734
32
2.895074
13
148.832672
23
-107.308983
33
2.375668
0
3DFACE
8
0
70
0
10
148.832672
20
-107.308983
30
2.375668
11
150.854568
21
-86.455734
31
2.895074
12
165.953491
22
-85.021194
32
1.677140
13
166.314957
23
-107.323006
33
1.277346
0
3DFACE
8
0
70
0
10
166.314957
20
-107.323006
30
1.277346
11
165.953491
21
-85.021194
31
1.677140
12
183.741623
22
-85.580978
32
0.704130
13
186.377487
23
-109.567535
33
0.708291
0
3DFACE
8
0
70
0
10
186.377487
20
-109.567535
30
0.708291
11
183.741623
21
-85.580978
31
0.704130
12
203.672913
22
-87.855873
32
0.239515
13
207.001526
23
-112.384949
33
0.801142
0
3DFACE
8
0
70
0
10
207.001526
20
-112.384949
30
0.801142
11
203.672913
21
-87.855873
31
0.239515
12
223.857117
22
-90.432388
32
0.478782
13
226.057678
23
-113.909737
33
1.412644
0
3DFACE
8
0
70
0
10
-160.130249
20
-88.291672
30
-1.478288
11
-159.417313
21
-69.355049
31
-1.402526
12
-141.445389
22
-69.260040
32
-0.981087
13
-142.064880
23
-88.337395
33
-1.219315
0
3DFACE
8
0
70
0
10
-142.064880
20
-88.337395
30
-1.219315
11
-141.445389
21
-69.260040
31
-0.981087
12
-123.415039
22
-69.728745
32
-0.161704
13
-124.049088
23
-88.531647
33
-0.283217
0
3DFACE
8
0
70
0
10
-124.049088
20
-88.531647
30
-0.283217
11
-123.415039
21
-69.728745
31
-0.161704
12
-106.484810
22
-70.409775
32
0.005999
13
-107.370819
23
-88.528992
33
0.416068
0
3DFACE
8
0
70
0
10
-107.370819
20
-88.528992
30
0.416068
11
-106.484810
21
-70.409775
31
0.005999
12
-90.829109
22
-70.505020
32
-1.218433
13
-91.942657
23
-88.148132
33
-0.189907
0
3DFACE
8
0
70
0
10
-91.942657
20
-88.148132
30
-0.189907
11
-90.829109
21
-70.505020
31
-1.218433
12
-75.202415
22
-69.702530
32
-3.400793
13
-76.067772
23
-87.799683
33
-2.266213
0
3DFACE
8
0
70
0
10
-76.067772
20
-87.799683
30
-2.266213
11
-75.202415
21
-69.702530
31
-3.400793
12
-57.915886
22
-68.661705
32
-5.101864
13
-57.841431
23
-88.208305
33
-4.760467
0
3DFACE
8
0
70
0
10
-57.841431
20
-88.208305
30
-4.760467
11
-57.915886
21
-68.661705
31
-5.101864
12
-38.364021
22
-68.435188
32
-4.908950
13
-37.286247
23
-89.570251
33
-6.075802
0
3DFACE
8
0
70
0
10
-37.286247
20
-89.570251
30
-6.075802
11
-38.364021
21
-68.435188
31
-4.908950
12
-17.785458
22
-69.340141
32
-2.433775
13
-16.751297
23
-91.011162
33
-5.137135
0
3DFACE
8
0
70
0
10
-16.751297
20
-91.011162
30
-5.137135
11
-17.785458
21
-69.340141
31
-2.433775
12
1.466897
22
-70.427399
32
1.473661
13
0.955206
23
-91.059204
33
-2.034522
0
3DFACE
8
0
70
0
10
0.955206
20
-91.059204
30
-2.034522
11
1.466897
21
-70.427399
31
1.473661
12
17.654224
22
-70.174438
32
5.324595
13
14.986428
23
-88.890984
33
2.126934
0
3DFACE
8
0
70
0
10
14.986428
20
-88.890984
30
2.126934
11
17.654224
21
-70.174438
31
5.324595
12
31.047409
22
-67.857620
32
7.850696
13
27.317047
23
-85.271446
33
5.925315
0
3DFACE
8
0
70
0
10
27.317047
20
-85.271446
30
5.925315
11
31.047409
21
-67.857620
31
7.850696
12
43.886620
22
-64.380066
32
8.541598
13
41.320007
23
-82.250053
33
8.336497
0
3DFACE
8
0
70
0
10
41.320007
20
-82.250053
30
8.336497
11
43.886620
21
-64.380066
31
8.541598
12
58.892132
22
-61.767960
32
7.667352
13
59.237396
23
-81.716499
33
9.077523
0
3DFACE
8
0
70
0
10
59.237396
20
-81.716499
30
9.077523
11
58.892132
21
-61.767960
31
7.667352
12
77.409309
22
-61.684418
32
5.965426
13
80.553314
23
-83.934570
33
8.516933
0
3DFACE
8
0
70
0
10
80.553314
20
-83.934570
30
8.516933
11
77.409309
21
-61.684418
31
5.965426
12
98.487022
22
-64.143715
32
4.255965
13
102.429428
23
-87.253433
33
7.321740
0
3DFACE
8
0
70
0
10
102.429428
20
-87.253433
30
7.321740
11
98.487022
21
-64.143715
31
4.255965
12
119.533691
22
-67.450523
32
3.124982
13
121.773705
23
-89.279091
33
6.063766
0
3DFACE
8
0
70
0
10
121.773705
20
-89.279091
30
6.063766
11
119.533691
21
-67.450523
31
3.124982
12
137.660568
22
-69.393608
32
2.315017
13
137.049881
23
-88.590767
33
4.310796
0
3DFACE
8
0
70
0
10
137.049881
20
-88.590767
30
4.310796
11
137.660568
21
-69.393608
31
2.315017
12
152.963638
22
-68.920509
32
1.987814
13
150.854568
23
-86.455734
33
2.895074
0
3DFACE
8
0
70
0
10
150.854568
20
-86.455734
30
2.895074
11
152.963638
21
-68.920509
31
1.987814
12
167.486053
22
-67.262337
32
1.641518
13
165.953491
23
-85.021194
33
1.677140
0
3DFACE
8
0
70
0
10
165.953491
20
-85.021194
30
1.677140
11
167.486053
21
-67.262337
31
1.641518
12
183.422577
22
-66.110313
32
1.037778
13
183.741623
23
-85.580978
33
0.704130
0
3DFACE
8
0
70
0
10
183.741623
20
-85.580978
30
0.704130
11
183.422577
21
-66.110313
31
1.037778
12
201.728699
22
-66.369774
32
0.379461
13
203.672913
23
-87.855873
33
0.239515
0
3DFACE
8
0
70
0
10
203.672913
20
-87.855873
30
0.239515
11
201.728699
21
-66.369774
31
0.379461
12
221.590393
22
-67.706024
32
0.121563
13
223.857117
23
-90.432388
33
0.478782
0
3DFACE
8
0
70
0
10
-159.417313
20
-69.355049
30
-1.402526
11
-158.480423
21
-50.460964
31
-1.337121
12
-141.058212
22
-50.217651
32
-0.842382
13
-141.445389
23
-69.260040
33
-0.981087
0
3DFACE
8
0
70
0
10
-141.445389
20
-69.260040
30
-0.981087
11
-141.058212
21
-50.217651
31
-0.842382
12
-123.747597
22
-50.790108
32
-0.218236
13
-123.415039
23
-69.728745
33
-0.161704
0
3DFACE
8
0
70
0
10
-123.415039
20
-69.728745
30
-0.161704
11
-123.747597
21
-50.790108
31
-0.218236
12
-106.725754
22
-51.966084
32
-0.488651
13
-106.484810
23
-70.409775
33
0.005999
0
3DFACE
8
0
70
0
10
-106.484810
20
-70.409775
30
0.005999
11
-106.725754
21
-51.966084
31
-0.488651
12
-90.022110
22
-52.564125
32
-2.011022
13
-90.829109
23
-70.505020
33
-1.218433
0
3DFACE
8
0
70
0
10
-90.829109
20
-70.505020
30
-1.218433
11
-90.022110
21
-52.564125
31
-2.011022
12
-73.393105
22
-51.597660
32
-3.902732
13
-75.202415
23
-69.702530
33
-3.400793
0
3DFACE
8
0
70
0
10
-75.202415
20
-69.702530
30
-3.400793
11
-73.393105
21
-51.597660
31
-3.902732
12
-56.326134
22
-49.417015
32
-4.629999
13
-57.915886
23
-68.661705
33
-5.101864
0
3DFACE
8
0
70
0
10
-57.915886
20
-68.661705
30
-5.101864
11
-56.326134
21
-49.417015
31
-4.629999
12
-38.318180
22
-47.617805
32
-3.209044
13
-38.364021
23
-68.435188
33
-4.908950
0
3DFACE
8
0
70
0
10
-38.364021
20
-68.435188
30
-4.908950
11
-38.318180
21
-47.617805
31
-3.209044
12
-19.371441
22
-47.700493
32
0.032591
13
-17.785458
23
-69.340141
33
-2.433775
0
3DFACE
8
0
70
0
10
-17.785458
20
-69.340141
30
-2.433775
11
-19.371441
21
-47.700493
31
0.032591
12
-0.308147
22
-49.687256
32
3.695095
13
1.466897
23
-70.427399
33
1.473661
0
3DFACE
8
0
70
0
10
1.466897
20
-70.427399
30
1.473661
11
-0.308147
21
-49.687256
31
3.695095
12
17.545656
22
-51.968884
32
6.227980
13
17.654224
23
-70.174438
33
5.324595
0
3DFACE
8
0
70
0
10
17.654224
20
-70.174438
30
5.324595
11
17.545656
21
-51.968884
31
6.227980
12
33.280991
22
-52.548485
32
6.776059
13
31.047409
23
-67.857620
33
7.850696
0
3DFACE
8
0
70
0
10
31.047409
20
-67.857620
30
7.850696
11
33.280991
21
-52.548485
31
6.776059
12
47.265934
22
-50.637318
32
5.437763
13
43.886620
23
-64.380066
33
8.541598
0
3DFACE
8
0
70
0
10
43.886620
20
-64.380066
30
8.541598
11
47.265934
21
-50.637318
31
5.437763
12
61.158806
22
-47.305889
32
2.967156
13
58.892132
23
-61.767960
33
7.667352
0
3DFACE
8
0
70
0
10
58.892132
20
-61.767960
30
7.667352
11
61.158806
21
-47.305889
31
2.967156
12
76.918724
22
-44.698544
32
0.308618
13
77.409309
23
-61.684418
33
5.965426
0
3DFACE
8
0
70
0
10
77.409309
20
-61.684418
30
5.965426
11
76.918724
21
-44.698544
31
0.308618
12
95.426575
22
-44.468075
32
-1.721360
13
98.487022
23
-64.143715
33
4.255965
0
3DFACE
8
0
70
0
10
98.487022
20
-64.143715
30
4.255965
11
95.426575
21
-44.468075
31
-1.721360
12
115.787292
22
-46.656929
32
-2.596875
13
119.533691
23
-67.450523
33
3.124982
0
3DFACE
8
0
70
0
10
119.533691
20
-67.450523
30
3.124982
11
115.787292
21
-46.656929
31
-2.596875
12
135.701614
22
-49.841820
32
-2.050905
13
137.660568
23
-69.393608
33
2.315017
0
3DFACE
8
0
70
0
10
137.660568
20
-69.393608
30
2.315017
11
135.701614
21
-49.841820
31
-2.050905
12
153.267639
22
-51.558640
32
-0.773876
13
152.963638
23
-68.920509
33
1.987814
0
3DFACE
8
0
70
0
10
152.963638
20
-68.920509
30
1.987814
11
153.267639
21
-51.558640
31
-0.773876
12
168.971939
22
-51.472496
32
0.442273
13
167.486053
23
-67.262337
33
1.641518
0
3DFACE
8
0
70
0
10
167.486053
20
-67.262337
30
1.641518
11
168.971939
21
-51.472496
31
0.442273
12
184.587753
22
-50.458080
32
0.998766
13
183.422577
23
-66.110313
33
1.037778
0
3DFACE
8
0
70
0
10
183.422577
20
-66.110313
30
1.037778
11
184.587753
21
-50.458080
31
0.998766
12
201.806046
22
-49.606869
32
0.808923
13
201.728699
23
-66.369774
33
0.379461
0
3DFACE
8
0
70
0
10
201.728699
20
-66.369774
30
0.379461
11
201.806046
21
-49.606869
31
0.808923
12
220.934464
22
-49.354942
32
0.344510
13
221.590393
23
-67.706024
33
0.121563
0
3DFACE
8
0
70
0
10
-158.480423
20
-50.460964
30
-1.337121
11
-158.268326
21
-31.630245
31
-1.293671
12
-141.359741
22
-31.249714
32
-0.796507
13
-141.058212
23
-50.217651
33
-0.842382
0
3DFACE
8
0
70
0
10
-141.058212
20
-50.217651
30
-0.842382
11
-141.359741
21
-31.249714
31
-0.796507
12
-124.821678
22
-31.670502
32
-0.363561
13
-123.747597
23
-50.790108
33
-0.218236
0
3DFACE
8
0
70
0
10
-123.747597
20
-50.790108
30
-0.218236
11
-124.821678
21
-31.670502
31
-0.363561
12
-107.735001
22
-32.984062
32
-0.895539
13
-106.725754
23
-51.966084
33
-0.488651
0
3DFACE
8
0
70
0
10
-106.725754
20
-51.966084
30
-0.488651
11
-107.735001
21
-32.984062
31
-0.895539
12
-89.640007
22
-34.045517
32
-2.432124
13
-90.022110
23
-52.564125
33
-2.011022
0
3DFACE
8
0
70
0
10
-90.022110
20
-52.564125
30
-2.011022
11
-89.640007
21
-34.045517
31
-2.432124
12
-71.193436
22
-33.462379
32
-3.870743
13
-73.393105
23
-51.597660
33
-3.902732
0
3DFACE
8
0
70
0
10
-73.393105
20
-51.597660
30
-3.902732
11
-71.193436
21
-33.462379
31
-3.870743
12
-53.529041
22
-31.042273
32
-3.817271
13
-56.326134
23
-49.417015
33
-4.629999
0
3DFACE
8
0
70
0
10
-56.326134
20
-49.417015
30
-4.629999
11
-53.529041
21
-31.042273
31
-3.817271
12
-37.016392
22
-28.269878
32
-1.764355
13
-38.318180
23
-47.617805
33
-3.209044
0
3DFACE
8
0
70
0
10
-38.318180
20
-47.617805
30
-3.209044
11
-37.016392
21
-28.269878
31
-1.764355
12
-20.815334
22
-27.271255
32
1.451071
13
-19.371441
23
-47.700493
33
0.032591
0
3DFACE
8
0
70
0
10
-19.371441
20
-47.700493
30
0.032591
11
-20.815334
21
-27.271255
31
1.451071
12
-3.749605
22
-29.112101
32
4.223376
13
-0.308147
23
-49.687256
33
3.695095
0
3DFACE
8
0
70
0
10
-0.308147
20
-49.687256
30
3.695095
11
-3.749605
21
-29.112101
31
4.223376
12
14.418885
22
-32.865437
32
5.211274
13
17.545656
23
-51.968884
33
6.227980
0
3DFACE
8
0
70
0
10
17.545656
20
-51.968884
30
6.227980
11
14.418885
21
-32.865437
31
5.211274
12
32.659912
22
-36.205643
32
4.018561
13
33.280991
23
-52.548485
33
6.776059
0
3DFACE
8
0
70
0
10
33.280991
20
-52.548485
30
6.776059
11
32.659912
21
-36.205643
31
4.018561
12
49.633808
22
-37.024426
32
1.179999
13
47.265934
23
-50.637318
33
5.437763
0
3DFACE
8
0
70
0
10
47.265934
20
-50.637318
30
5.437763
11
49.633808
21
-37.024426
31
1.179999
12
64.977173
22
-34.836525
32
-2.318775
13
61.158806
23
-47.305889
33
2.967156
0
3DFACE
8
0
70
0
10
61.158806
20
-47.305889
30
2.967156
11
64.977173
21
-34.836525
31
-2.318775
12
79.753128
22
-31.025934
32
-5.547711
13
76.918724
23
-44.698544
33
0.308618
0
3DFACE
8
0
70
0
10
76.918724
20
-44.698544
30
0.308618
11
79.753128
21
-31.025934
31
-5.547711
12
95.597824
22
-27.824434
32
-7.820381
13
95.426575
23
-44.468075
33
-1.721360
0
3DFACE
8
0
70
0
10
95.426575
20
-44.468075
30
-1.721360
11
95.597824
21
-27.824434
31
-7.820381
12
113.385628
22
-26.894485
32
-8.688148
13
115.787292
23
-46.656929
33
-2.596875
0
3DFACE
8
0
70
0
10
115.787292
20
-46.656929
30
-2.596875
11
113.385628
21
-26.894485
31
-8.688148
12
132.694305
22
-28.762257
32
-7.156695
13
135.701614
23
-49.841820
33
-2.050905
0
3DFACE
8
0
70
0
10
135.701614
20
-49.841820
30
-2.050905
11
132.694305
21
-28.762257
31
-7.156695
12
151.316605
22
-31.306389
32
-4.537459
13
153.267639
23
-51.558640
33
-0.773876
0
3DFACE
8
0
70
0
10
153.267639
20
-51.558640
30
-0.773876
11
151.316605
21
-31.306389
31
-4.537459
12
168.473099
22
-33.170738
32
-1.725793
13
168.971939
23
-51.472496
33
0.442273
0
3DFACE
8
0
70
0
10
168.971939
20
-51.472496
30
0.442273
11
168.473099
21
-33.170738
31
-1.725793
12
184.909805
22
-34.000710
32
0.358548
13
184.587753
23
-50.458080
33
0.998766
0
3DFACE
8
0
70
0
10
184.587753
20
-50.458080
30
0.998766
11
184.909805
21
-34.000710
31
0.358548
12
202.184326
22
-34.145649
32
1.180198
13
201.806046
23
-49.606869
33
0.808923
0
3DFACE
8
0
70
0
10
201.806046
20
-49.606869
30
0.808923
11
202.184326
21
-34.145649
31
1.180198
12
221.201752
22
-33.970741
32
0.944632
13
220.934464
23
-49.354942
33
0.344510
0
3DFACE
8
0
70
0
10
-158.268326
20
-31.630245
30
-1.293671
11
-158.122223
21
-12.865432
31
-1.274140
12
-141.534698
22
-12.407979
32
-0.819080
13
-141.359741
23
-31.249714
33
-0.796507
0
3DFACE
8
0
70
0
10
-141.359741
20
-31.249714
30
-0.796507
11
-141.534698
21
-12.407979
31
-0.819080
12
-125.832657
22
-12.463546
32
-0.526060
13
-124.821678
23
-31.670502
33
-0.363561
0
3DFACE
8
0
70
0
10
-124.821678
20
-31.670502
30
-0.363561
11
-125.832657
21
-12.463546
31
-0.526060
12
-109.062401
22
-13.497116
32
-1.138679
13
-107.735001
23
-32.984062
33
-0.895539
0
3DFACE
8
0
70
0
10
-107.735001
20
-32.984062
30
-0.895539
11
-109.062401
21
-13.497116
31
-1.138679
12
-89.925995
22
-14.826274
32
-2.505500
13
-89.640007
23
-34.045517
33
-2.432124
0
3DFACE
8
0
70
0
10
-89.640007
20
-34.045517
30
-2.432124
11
-89.925995
21
-14.826274
31
-2.505500
12
-69.509331
22
-15.074365
32
-3.520898
13
-71.193436
23
-33.462379
33
-3.870743
0
3DFACE
8
0
70
0
10
-71.193436
20
-33.462379
30
-3.870743
11
-69.509331
21
-15.074365
31
-3.520898
12
-50.503574
22
-13.452339
32
-3.055395
13
-53.529041
23
-31.042273
33
-3.817271
0
3DFACE
8
0
70
0
10
-53.529041
20
-31.042273
30
-3.817271
11
-50.503574
21
-13.452339
31
-3.055395
12
-34.668041
22
-10.674705
32
-0.969477
13
-37.016392
23
-28.269878
33
-1.764355
0
3DFACE
8
0
70
0
10
-37.016392
20
-28.269878
30
-1.764355
11
-34.668041
21
-10.674705
31
-0.969477
12
-21.108324
22
-8.634305
32
1.704687
13
-20.815334
23
-27.271255
33
1.451071
0
3DFACE
8
0
70
0
10
-20.815334
20
-27.271255
30
1.451071
11
-21.108324
21
-8.634305
31
1.704687
12
-7.040878
22
-9.056934
32
3.486139
13
-3.749605
23
-29.112101
33
4.223376
0
3DFACE
8
0
70
0
10
-3.749605
20
-29.112101
30
4.223376
11
-7.040878
21
-9.056934
31
3.486139
12
9.784534
22
-12.202319
32
3.380528
13
14.418885
23
-32.865437
33
5.211274
0
3DFACE
8
0
70
0
10
14.418885
20
-32.865437
30
5.211274
11
9.784534
21
-12.202319
31
3.380528
12
29.303207
22
-16.590858
32
1.321052
13
32.659912
23
-36.205643
33
4.018561
0
3DFACE
8
0
70
0
10
32.659912
20
-36.205643
30
4.018561
11
29.303207
21
-16.590858
31
1.321052
12
49.452251
22
-19.909786
32
-2.034163
13
49.633808
23
-37.024426
33
1.179999
0
3DFACE
8
0
70
0
10
49.633808
20
-37.024426
30
1.179999
11
49.452251
21
-19.909786
31
-2.034163
12
68.020729
22
-20.406944
32
-5.787121
13
64.977173
23
-34.836525
33
-2.318775
0
3DFACE
8
0
70
0
10
64.977173
20
-34.836525
30
-2.318775
11
68.020729
21
-20.406944
31
-5.787121
12
84.285233
22
-17.865004
32
-9.175301
13
79.753128
23
-31.025934
33
-5.547711
0
3DFACE
8
0
70
0
10
79.753128
20
-31.025934
30
-5.547711
11
84.285233
21
-17.865004
31
-9.175301
12
99.249313
22
-13.651517
32
-11.703235
13
95.597824
23
-27.824434
33
-7.820381
0
3DFACE
8
0
70
0
10
95.597824
20
-27.824434
30
-7.820381
11
99.249313
21
-13.651517
31
-11.703235
12
114.562859
22
-9.780082
32
-12.937568
13
113.385628
23
-26.894485
33
-8.688148
0
3DFACE
8
0
70
0
10
113.385628
20
-26.894485
30
-8.688148
11
114.562859
21
-9.780082
31
-12.937568
12
131.437103
22
-8.349468
32
-11.195348
13
132.694305
23
-28.762257
33
-7.156695
0
3DFACE
8
0
70
0
10
132.694305
20
-28.762257
30
-7.156695
11
131.437103
21
-8.349468
31
-11.195348
12
149.005234
22
-9.149110
32
-7.955790
13
151.316605
23
-31.306389
33
-4.537459
0
3DFACE
8
0
70
0
10
151.316605
20
-31.306389
30
-4.537459
11
149.005234
21
-9.149110
31
-7.955790
12
166.254242
22
-11.112948
32
-4.022157
13
168.473099
23
-33.170738
33
-1.725793
0
3DFACE
8
0
70
0
10
168.473099
20
-33.170738
30
-1.725793
11
166.254242
21
-11.112948
31
-4.022157
12
183.199142
22
-13.323508
32
-0.523963
13
184.909805
23
-34.000710
33
0.358548
0
3DFACE
8
0
70
0
10
184.909805
20
-34.000710
30
0.358548
11
183.199142
21
-13.323508
31
-0.523963
12
200.940063
22
-15.293160
32
1.512301
13
202.184326
23
-34.145649
33
1.180198
0
3DFACE
8
0
70
0
10
202.184326
20
-34.145649
30
1.180198
11
200.940063
21
-15.293160
31
1.512301
12
220.469238
22
-16.760618
32
1.822918
13
221.201752
23
-33.970741
33
0.944632
0
3DFACE
8
0
70
0
10
-158.122223
20
-12.865432
30
-1.274140
11
-157.947891
21
5.852264
31
-1.274156
12
-141.410965
22
6.268705
32
-0.884089
13
-141.534698
23
-12.407979
33
-0.819080
0
3DFACE
8
0
70
0
10
-141.534698
20
-12.407979
30
-0.819080
11
-141.410965
21
6.268705
31
-0.884089
12
-126.404259
22
6.640129
32
-0.670476
13
-125.832657
23
-12.463546
33
-0.526060
0
3DFACE
8
0
70
0
10
-125.832657
20
-12.463546
30
-0.526060
11
-126.404259
21
6.640129
31
-0.670476
12
-110.332474
22
6.231276
32
-1.226329
13
-109.062401
23
-13.497116
33
-1.138679
0
3DFACE
8
0
70
0
10
-109.062401
20
-13.497116
30
-1.138679
11
-110.332474
21
6.231276
31
-1.226329
12
-90.940544
22
5.016324
32
-2.335452
13
-89.925995
23
-14.826274
33
-2.505500
0
3DFACE
8
0
70
0
10
-89.925995
20
-14.826274
30
-2.505500
11
-90.940544
21
5.016324
31
-2.335452
12
-69.083633
22
3.906474
32
-3.041673
13
-69.509331
23
-15.074365
33
-3.520898
0
3DFACE
8
0
70
0
10
-69.509331
20
-15.074365
30
-3.520898
11
-69.083633
21
3.906474
31
-3.041673
12
-48.363094
22
4.047743
32
-2.509619
13
-50.503574
23
-13.452339
33
-3.055395
0
3DFACE
8
0
70
0
10
-50.503574
20
-13.452339
30
-3.055395
11
-48.363094
21
4.047743
31
-2.509619
12
-31.946659
22
5.796280
32
-0.802357
13
-34.668041
23
-10.674705
33
-0.969477
0
3DFACE
8
0
70
0
10
-34.668041
20
-10.674705
30
-0.969477
11
-31.946659
21
5.796280
31
-0.802357
12
-19.706280
22
8.255861
32
1.133576
13
-21.108324
23
-8.634305
33
1.704687
0
3DFACE
8
0
70
0
10
-21.108324
20
-8.634305
30
1.704687
11
-19.706280
21
8.255861
31
1.133576
12
-8.312046
22
9.772656
32
2.161313
13
-7.040878
23
-9.056934
33
3.486139
0
3DFACE
8
0
70
0
10
-7.040878
20
-9.056934
30
3.486139
11
-8.312046
21
9.772656
31
2.161313
12
6.030793
22
9.022736
32
1.648368
13
9.784534
23
-12.202319
33
3.380528
0
3DFACE
8
0
70
0
10
9.784534
20
-12.202319
30
3.380528
11
6.030793
21
9.022736
31
1.648368
12
24.786932
22
5.920668
32
-0.340236
13
29.303207
23
-16.590858
33
1.321052
0
3DFACE
8
0
70
0
10
29.303207
20
-16.590858
30
1.321052
11
24.786932
21
5.920668
31
-0.340236
12
46.442909
22
1.754765
32
-3.303383
13
49.452251
23
-19.909786
33
-2.034163
0
3DFACE
8
0
70
0
10
49.452251
20
-19.909786
30
-2.034163
11
46.442909
21
1.754765
31
-3.303383
12
68.049698
22
-1.503458
32
-6.659015
13
68.020729
23
-20.406944
33
-5.787121
0
3DFACE
8
0
70
0
10
68.020729
20
-20.406944
30
-5.787121
11
68.049698
21
-1.503458
31
-6.659015
12
87.367157
22
-2.242149
32
-9.908409
13
84.285233
23
-17.865004
33
-9.175301
0
3DFACE
8
0
70
0
10
84.285233
20
-17.865004
30
-9.175301
11
87.367157
21
-2.242149
31
-9.908409
12
103.983894
22
-0.094847
32
-12.692924
13
99.249313
23
-13.651517
33
-11.703235
0
3DFACE
8
0
70
0
10
99.249313
20
-13.651517
30
-11.703235
11
103.983894
21
-0.094847
31
-12.692924
12
118.968376
22
4.052101
32
-14.530452
13
114.562859
23
-9.780082
33
-12.937568
0
3DFACE
8
0
70
0
10
114.562859
20
-9.780082
30
-12.937568
11
118.968376
21
4.052101
31
-14.530452
12
133.700104
22
8.317046
32
-13.249002
13
131.437103
23
-8.349468
33
-11.195348
0
3DFACE
8
0
70
0
10
131.437103
20
-8.349468
30
-11.195348
11
133.700104
21
8.317046
31
-13.249002
12
149.085999
22
10.770755
32
-10.076256
13
149.005234
23
-9.149110
33
-7.955790
0
3DFACE
8
0
70
0
10
149.005234
20
-9.149110
30
-7.955790
11
149.085999
21
10.770755
31
-10.076256
12
164.782394
22
11.194040
32
-5.610325
13
166.254242
23
-11.112948
33
-4.022157
0
3DFACE
8
0
70
0
10
166.254242
20
-11.112948
30
-4.022157
11
164.782394
21
11.194040
31
-5.610325
12
180.855423
22
9.971405
32
-1.084136
13
183.199142
23
-13.323508
33
-0.523963
0
3DFACE
8
0
70
0
10
183.199142
20
-13.323508
30
-0.523963
11
180.855423
21
9.971405
31
-1.084136
12
198.276657
22
7.705442
32
2.034827
13
200.940063
23
-15.293160
33
1.512301
0
3DFACE
8
0
70
0
10
200.940063
20
-15.293160
30
1.512301
11
198.276657
21
7.705442
31
2.034827
12
218.044571
22
5.080129
32
2.955623
13
220.469238
23
-16.760618
33
1.822918
0
3DFACE
8
0
70
0
10
-157.947891
20
5.852264
30
-1.274156
11
-157.790314
21
24.560915
31
-1.286869
12
-141.012329
22
24.794771
32
-0.971232
13
-141.410965
23
6.268705
33
-0.884089
0
3DFACE
8
0
70
0
10
-141.410965
20
6.268705
30
-0.884089
11
-141.012329
21
24.794771
31
-0.971232
12
-126.345657
22
25.461153
32
-0.792222
13
-126.404259
23
6.640129
33
-0.670476
0
3DFACE
8
0
70
0
10
-126.404259
20
6.640129
30
-0.670476
11
-126.345657
21
25.461153
31
-0.792222
12
-111.134636
22
25.812811
32
-1.213120
13
-110.332474
23
6.231276
33
-1.226329
0
3DFACE
8
0
70
0
10
-110.332474
20
6.231276
30
-1.226329
11
-111.134636
21
25.812811
31
-1.213120
12
-92.357452
22
25.160810
32
-2.040079
13
-90.940544
23
5.016324
33
-2.335452
0
3DFACE
8
0
70
0
10
-90.940544
20
5.016324
30
-2.335452
11
-92.357452
21
25.160810
31
-2.040079
12
-70.088425
22
23.645475
32
-2.541052
13
-69.083633
23
3.906474
33
-3.041673
0
3DFACE
8
0
70
0
10
-69.083633
20
3.906474
30
-3.041673
11
-70.088425
21
23.645475
31
-2.541052
12
-47.910179
22
22.303463
32
-2.151358
13
-48.363094
23
4.047743
33
-2.509619
0
3DFACE
8
0
70
0
10
-48.363094
20
4.047743
30
-2.509619
11
-47.910179
21
22.303463
31
-2.151358
12
-29.885435
22
22.333698
32
-1.005365
13
-31.946659
23
5.796280
33
-0.802357
0
3DFACE
8
0
70
0
10
-31.946659
20
5.796280
30
-0.802357
11
-29.885435
21
22.333698
31
-1.005365
12
-17.089437
22
24.139013
32
0.195230
13
-19.706280
23
8.255861
33
1.133576
0
3DFACE
8
0
70
0
10
-19.706280
20
8.255861
30
1.133576
11
-17.089437
21
24.139013
31
0.195230
12
-6.828859
22
26.888046
32
0.740315
13
-8.312046
23
9.772656
33
2.161313
0
3DFACE
8
0
70
0
10
-8.312046
20
9.772656
30
2.161313
11
-6.828859
21
26.888046
31
0.740315
12
5.113448
22
28.934187
32
0.316301
13
6.030793
23
9.022736
33
1.648368
0
3DFACE
8
0
70
0
10
6.030793
20
9.022736
30
1.648368
11
5.113448
21
28.934187
31
0.316301
12
21.468277
22
28.811403
32
-1.015956
13
24.786932
23
5.920668
33
-0.340236
0
3DFACE
8
0
70
0
10
24.786932
20
5.920668
30
-0.340236
11
21.468277
21
28.811403
31
-1.015956
12
42.078857
22
26.155388
32
-3.060414
13
46.442909
23
1.754765
33
-3.303383
0
3DFACE
8
0
70
0
10
46.442909
20
1.754765
30
-3.303383
11
42.078857
21
26.155388
31
-3.060414
12
64.669052
22
21.983521
32
-5.622434
13
68.049698
23
-1.503458
33
-6.659015
0
3DFACE
8
0
70
0
10
68.049698
20
-1.503458
30
-6.659015
11
64.669052
21
21.983521
31
-5.622434
12
86.594368
22
18.146770
32
-8.515098
13
87.367157
23
-2.242149
33
-9.908409
0
3DFACE
8
0
70
0
10
87.367157
20
-2.242149
30
-9.908409
11
86.594368
21
18.146770
31
-8.515098
12
106.263611
22
16.389332
32
-11.437568
13
103.983894
23
-0.094847
33
-12.692924
0
3DFACE
8
0
70
0
10
103.983894
20
-0.094847
30
-12.692924
11
106.263611
21
16.389332
31
-11.437568
12
123.476883
22
17.533121
32
-13.830970
13
118.968376
23
4.052101
33
-14.530452
0
3DFACE
8
0
70
0
10
118.968376
20
4.052101
30
-14.530452
11
123.476883
21
17.533121
31
-13.830970
12
138.306183
22
21.627258
32
-13.278298
13
133.700104
23
8.317046
33
-13.249002
0
3DFACE
8
0
70
0
10
133.700104
20
8.317046
30
-13.249002
11
138.306183
21
21.627258
31
-13.278298
12
152.416687
22
26.006969
32
-10.523351
13
149.085999
23
10.770755
33
-10.076256
0
3DFACE
8
0
70
0
10
149.085999
20
10.770755
30
-10.076256
11
152.416687
21
26.006969
31
-10.523351
12
166.248428
22
29.310337
32
-5.958355
13
164.782394
23
11.194040
33
-5.610325
0
3DFACE
8
0
70
0
10
164.782394
20
11.194040
30
-5.610325
11
166.248428
21
29.310337
31
-5.958355
12
180.473343
22
30.858370
32
-0.879113
13
180.855423
23
9.971405
33
-1.084136
0
3DFACE
8
0
70
0
10
180.855423
20
9.971405
30
-1.084136
11
180.473343
21
30.858370
31
-0.879113
12
196.470795
22
30.591988
32
2.907504
13
198.276657
23
7.705442
33
2.034827
0
3DFACE
8
0
70
0
10
198.276657
20
7.705442
30
2.034827
11
196.470795
21
30.591988
31
2.907504
12
215.508453
22
28.989292
32
4.223999
13
218.044571
23
5.080129
33
2.955623
0
3DFACE
8
0
70
0
10
-157.790314
20
24.560915
30
-1.286869
11
-157.797928
21
43.307007
31
-1.305378
12
-140.535553
22
43.259632
32
-1.066329
13
-141.012329
23
24.794771
33
-0.971232
0
3DFACE
8
0
70
0
10
-141.012329
20
24.794771
30
-0.971232
11
-140.535553
21
43.259632
31
-1.066329
12
-125.721680
22
43.948452
32
-0.901594
13
-126.345657
23
25.461153
33
-0.792222
0
3DFACE
8
0
70
0
10
-126.345657
20
25.461153
30
-0.792222
11
-125.721680
21
43.948452
31
-0.901594
12
-111.185959
22
44.909431
32
-1.164010
13
-111.134636
23
25.812811
33
-1.213120
0
3DFACE
8
0
70
0
10
-111.134636
20
25.812811
30
-1.213120
11
-111.185959
21
44.909431
31
-1.164010
12
-93.589417
22
45.104313
32
-1.718808
13
-92.357452
23
25.160810
33
-2.040079
0
3DFACE
8
0
70
0
10
-92.357452
20
25.160810
30
-2.040079
11
-93.589417
21
45.104313
31
-1.718808
12
-72.033104
22
43.889256
32
-2.065993
13
-70.088425
23
23.645475
33
-2.541052
0
3DFACE
8
0
70
0
10
-70.088425
20
23.645475
30
-2.541052
11
-72.033104
21
43.889256
31
-2.065993
12
-49.265388
22
41.740250
32
-1.870378
13
-47.910179
23
22.303463
33
-2.151358
0
3DFACE
8
0
70
0
10
-47.910179
20
22.303463
30
-2.151358
11
-49.265388
21
41.740250
31
-1.870378
12
-29.411644
22
40.079437
32
-1.280005
13
-29.885435
23
22.333698
33
-1.005365
0
3DFACE
8
0
70
0
10
-29.885435
20
22.333698
30
-1.005365
11
-29.411644
21
40.079437
31
-1.280005
12
-14.587162
22
40.306873
32
-0.730493
13
-17.089437
23
24.139013
33
0.195230
0
3DFACE
8
0
70
0
10
-17.089437
20
24.139013
30
0.195230
11
-14.587162
21
40.306873
31
-0.730493
12
-3.450783
22
42.768730
32
-0.536648
13
-6.828859
23
26.888046
33
0.740315
0
3DFACE
8
0
70
0
10
-6.828859
20
26.888046
30
0.740315
11
-3.450783
21
42.768730
31
-0.536648
12
7.462446
22
46.411255
32
-0.740524
13
5.113448
23
28.934187
33
0.316301
0
3DFACE
8
0
70
0
10
5.113448
20
28.934187
30
0.316301
11
7.462446
21
46.411255
31
-0.740524
12
21.247084
22
49.341251
32
-1.300560
13
21.468277
23
28.811403
33
-1.015956
0
3DFACE
8
0
70
0
10
21.468277
20
28.811403
30
-1.015956
11
21.247084
21
49.341251
31
-1.300560
12
39.029358
22
49.903942
32
-2.298792
13
42.078857
23
26.155388
33
-3.060414
0
3DFACE
8
0
70
0
10
42.078857
20
26.155388
30
-3.060414
11
39.029358
21
49.903942
31
-2.298792
12
59.981655
22
47.589050
32
-3.912506
13
64.669052
23
21.983521
33
-5.622434
0
3DFACE
8
0
70
0
10
64.669052
20
21.983521
30
-5.622434
11
59.981655
21
47.589050
31
-3.912506
12
82.290062
22
43.261898
32
-6.219315
13
86.594368
23
18.146770
33
-8.515098
0
3DFACE
8
0
70
0
10
86.594368
20
18.146770
30
-8.515098
11
82.290062
21
43.261898
31
-6.219315
12
104.192940
22
38.699287
32
-8.994707
13
106.263611
23
16.389332
33
-11.437568
0
3DFACE
8
0
70
0
10
106.263611
20
16.389332
30
-11.437568
11
104.192940
21
38.699287
31
-8.994707
12
124.532875
22
35.734615
32
-11.584057
13
123.476883
23
17.533121
33
-13.830970
0
3DFACE
8
0
70
0
10
123.476883
20
17.533121
30
-13.830970
11
124.532875
21
35.734615
31
-11.584057
12
141.769867
22
36.369686
32
-11.594790
13
138.306183
23
21.627258
33
-13.278298
0
3DFACE
8
0
70
0
10
138.306183
20
21.627258
30
-13.278298
11
141.769867
21
36.369686
31
-11.594790
12
156.756485
22
39.246826
32
-9.258402
13
152.416687
23
26.006969
33
-10.523351
0
3DFACE
8
0
70
0
10
152.416687
20
26.006969
30
-10.523351
11
156.756485
21
39.246826
31
-9.258402
12
170.102066
22
42.983051
32
-4.850880
13
166.248428
23
29.310337
33
-5.958355
0
3DFACE
8
0
70
0
10
166.248428
20
29.310337
30
-5.958355
11
170.102066
21
42.983051
31
-4.850880
12
183.006332
22
46.361580
32
0.277201
13
180.473343
23
30.858370
33
-0.879113
0
3DFACE
8
0
70
0
10
180.473343
20
30.858370
30
-0.879113
11
183.006332
21
46.361580
31
0.277201
12
197.428482
22
48.671074
32
4.184858
13
196.470795
23
30.591988
33
2.907504
0
3DFACE
8
0
70
0
10
196.470795
20
30.591988
30
2.907504
11
197.428482
21
48.671074
31
4.184858
12
215.115189
22
49.681084
32
5.453589
13
215.508453
23
28.989292
33
4.223999
0
3DFACE
8
0
70
0
10
-157.797928
20
43.307007
30
-1.305378
11
-158.705597
21
62.125874
31
-1.323824
12
-140.821640
22
61.803329
32
-1.159042
13
-140.535553
23
43.259632
33
-1.066329
0
3DFACE
8
0
70
0
10
-140.535553
20
43.259632
30
-1.066329
11
-140.821640
21
61.803329
31
-1.159042
12
-125.199593
22
62.235695
32
-1.009411
13
-125.721680
23
43.948452
33
-0.901594
0
3DFACE
8
0
70
0
10
-125.721680
20
43.948452
30
-0.901594
11
-125.199593
21
62.235695
31
-1.009411
12
-110.670509
22
63.417442
32
-1.131310
13
-111.185959
23
44.909431
33
-1.164010
0
3DFACE
8
0
70
0
10
-111.185959
20
44.909431
30
-1.164010
11
-110.670509
21
63.417442
31
-1.131310
12
-94.179596
22
64.385048
32
-1.445080
13
-93.589417
23
45.104313
33
-1.718808
0
3DFACE
8
0
70
0
10
-93.589417
20
45.104313
30
-1.718808
11
-94.179596
21
64.385048
31
-1.445080
12
-74.050354
22
64.010323
32
-1.644056
13
-72.033104
23
43.889256
33
-2.065993
0
3DFACE
8
0
70
0
10
-72.033104
20
43.889256
30
-2.065993
11
-74.050354
21
64.010323
31
-1.644056
12
-51.781418
22
62.039165
32
-1.576006
13
-49.265388
23
41.740250
33
-1.870378
0
3DFACE
8
0
70
0
10
-49.265388
20
41.740250
30
-1.870378
11
-51.781418
21
62.039165
31
-1.576006
12
-30.767778
22
59.475266
32
-1.404915
13
-29.411644
23
40.079437
33
-1.280005
0
3DFACE
8
0
70
0
10
-29.411644
20
40.079437
30
-1.280005
11
-30.767778
21
59.475266
31
-1.404915
12
-13.530294
22
57.996952
32
-1.378248
13
-14.587162
23
40.306873
33
-0.730493
0
3DFACE
8
0
70
0
10
-14.587162
20
40.306873
30
-0.730493
11
-13.530294
21
57.996952
31
-1.378248
12
-0.049615
22
58.866119
32
-1.524929
13
-3.450783
23
42.768730
33
-0.536648
0
3DFACE
8
0
70
0
10
-3.450783
20
42.768730
30
-0.536648
11
-0.049615
21
58.866119
31
-1.524929
12
11.750461
22
62.111134
32
-1.666010
13
7.462446
23
46.411255
33
-0.740524
0
3DFACE
8
0
70
0
10
7.462446
20
46.411255
30
-0.740524
11
11.750461
21
62.111134
31
-1.666010
12
24.357275
22
66.480789
32
-1.709741
13
21.247084
23
49.341251
33
-1.300560
0
3DFACE
8
0
70
0
10
21.247084
20
49.341251
30
-1.300560
11
24.357275
21
66.480789
31
-1.709741
12
39.384308
22
70.105728
32
-1.867776
13
39.029358
23
49.903942
33
-2.298792
0
3DFACE
8
0
70
0
10
39.029358
20
49.903942
30
-2.298792
11
39.384308
21
70.105728
31
-1.867776
12
57.255600
22
71.420982
32
-2.543683
13
59.981655
23
47.589050
33
-3.912506
0
3DFACE
8
0
70
0
10
59.981655
20
47.589050
30
-3.912506
11
57.255600
21
71.420982
31
-2.543683
12
77.508064
22
69.855507
32
-4.012375
13
82.290062
23
43.261898
33
-6.219315
0
3DFACE
8
0
70
0
10
82.290062
20
43.261898
30
-6.219315
11
77.508064
21
69.855507
31
-4.012375
12
99.193016
22
66.002808
32
-6.143002
13
104.192940
23
38.699287
33
-8.994707
0
3DFACE
8
0
70
0
10
104.192940
20
38.699287
30
-8.994707
11
99.193016
21
66.002808
31
-6.143002
12
121.130882
22
61.268051
32
-8.256649
13
124.532875
23
35.734615
33
-11.584057
0
3DFACE
8
0
70
0
10
124.532875
20
35.734615
30
-11.584057
11
121.130882
21
61.268051
31
-8.256649
12
141.145157
22
57.779701
32
-8.293701
13
141.769867
23
36.369686
33
-11.594790
0
3DFACE
8
0
70
0
10
141.769867
20
36.369686
30
-11.594790
11
141.145157
21
57.779701
31
-8.293701
12
158.435089
22
56.584423
32
-6.109037
13
156.756485
23
39.246826
33
-9.258402
0
3DFACE
8
0
70
0
10
156.756485
20
39.246826
30
-9.258402
11
158.435089
21
56.584423
31
-6.109037
12
173.096451
22
57.401581
32
-1.991271
13
170.102066
23
42.983051
33
-4.850880
0
3DFACE
8
0
70
0
10
170.102066
20
42.983051
30
-4.850880
11
173.096451
21
57.401581
31
-1.991271
12
186.342316
22
59.565514
32
2.669141
13
183.006332
23
46.361580
33
0.277201
0
3DFACE
8
0
70
0
10
183.006332
20
46.361580
30
0.277201
11
186.342316
21
59.565514
31
2.669141
12
200.404617
22
62.341072
32
5.904299
13
197.428482
23
48.671074
33
4.184858
0
3DFACE
8
0
70
0
10
197.428482
20
48.671074
30
4.184858
11
200.404617
21
62.341072
31
5.904299
12
217.290497
22
65.035530
32
6.371167
13
215.115189
23
49.681084
33
5.453589
0
3DFACE
8
0
70
0
10
-158.705597
20
62.125874
30
-1.323824
11
-159.617752
21
81.021278
31
-1.337898
12
-141.612625
22
80.546532
32
-1.240669
13
-140.821640
23
61.803329
33
-1.159042
0
3DFACE
8
0
70
0
10
-140.821640
20
61.803329
30
-1.159042
11
-141.612625
21
80.546532
31
-1.240669
12
-125.351974
22
80.587456
32
-1.118315
13
-125.199593
23
62.235695
33
-1.009411
0
3DFACE
8
0
70
0
10
-125.199593
20
62.235695
30
-1.009411
11
-125.351974
21
80.587456
31
-1.118315
12
-110.271988
22
81.553581
32
-1.143423
13
-110.670509
23
63.417442
33
-1.131310
0
3DFACE
8
0
70
0
10
-110.670509
20
63.417442
30
-1.131310
11
-110.271988
21
81.553581
31
-1.143423
12
-94.162956
22
82.869446
32
-1.266635
13
-94.179596
23
64.385048
33
-1.445080
0
3DFACE
8
0
70
0
10
-94.179596
20
64.385048
30
-1.445080
11
-94.162956
21
82.869446
31
-1.266635
12
-75.398239
22
83.380104
32
-1.310369
13
-74.050354
23
64.010323
33
-1.644056
0
3DFACE
8
0
70
0
10
-74.050354
20
64.010323
30
-1.644056
11
-75.398239
21
83.380104
31
-1.310369
12
-54.366291
22
82.312218
32
-1.250174
13
-51.781418
23
62.039165
33
-1.576006
0
3DFACE
8
0
70
0
10
-51.781418
20
62.039165
30
-1.576006
11
-54.366291
21
82.312218
31
-1.250174
12
-33.281658
22
79.957077
32
-1.286870
13
-30.767778
23
59.475266
33
-1.404915
0
3DFACE
8
0
70
0
10
-30.767778
20
59.475266
30
-1.404915
11
-33.281658
21
79.957077
31
-1.286870
12
-14.354855
22
77.565147
32
-1.597890
13
-13.530294
23
57.996952
33
-1.378248
0
3DFACE
8
0
70
0
10
-13.530294
20
57.996952
30
-1.378248
11
-14.354855
21
77.565147
31
-1.597890
12
1.709888
22
76.609177
32
-2.075675
13
-0.049615
23
58.866119
33
-1.524929
0
3DFACE
8
0
70
0
10
-0.049615
20
58.866119
30
-1.524929
11
1.709888
21
76.609177
31
-2.075675
12
15.726993
22
77.971870
32
-2.389183
13
11.750461
23
62.111134
33
-1.666010
0
3DFACE
8
0
70
0
10
11.750461
20
62.111134
30
-1.666010
11
15.726993
21
77.971870
31
-2.389183
12
29.108883
22
81.523148
32
-2.323358
13
24.357275
23
66.480789
33
-1.709741
0
3DFACE
8
0
70
0
10
24.357275
20
66.480789
30
-1.709741
11
29.108883
21
81.523148
31
-2.323358
12
43.087959
22
86.212471
32
-2.031153
13
39.384308
23
70.105728
33
-1.867776
0
3DFACE
8
0
70
0
10
39.384308
20
70.105728
30
-1.867776
11
43.087959
21
86.212471
31
-2.031153
12
58.496643
22
90.527756
32
-1.940773
13
57.255600
23
71.420982
33
-2.543683
0
3DFACE
8
0
70
0
10
57.255600
20
71.420982
30
-2.543683
11
58.496643
21
90.527756
31
-1.940773
12
75.813637
22
93.078705
32
-2.411908
13
77.508064
23
69.855507
33
-4.012375
0
3DFACE
8
0
70
0
10
77.508064
20
69.855507
30
-4.012375
11
75.813637
21
93.078705
31
-2.411908
12
95.123756
22
93.072739
32
-3.402775
13
99.193016
23
66.002808
33
-6.143002
0
3DFACE
8
0
70
0
10
99.193016
20
66.002808
30
-6.143002
11
95.123756
21
93.072739
31
-3.402775
12
115.948036
22
90.513008
32
-4.306798
13
121.130882
23
61.268051
33
-8.256649
0
3DFACE
8
0
70
0
10
121.130882
20
61.268051
30
-8.256649
11
115.948036
21
90.513008
31
-4.306798
12
136.800720
22
85.557938
32
-3.738913
13
141.145157
23
57.779701
33
-8.293701
0
3DFACE
8
0
70
0
10
141.145157
20
57.779701
30
-8.293701
11
136.800720
21
85.557938
31
-3.738913
12
155.762054
22
80.951508
32
-1.423980
13
158.435089
23
56.584423
33
-6.109037
0
3DFACE
8
0
70
0
10
158.435089
20
56.584423
30
-6.109037
11
155.762054
21
80.951508
31
-1.423980
12
172.319580
22
77.697617
32
2.205320
13
173.096451
23
57.401581
33
-1.991271
0
3DFACE
8
0
70
0
10
173.096451
20
57.401581
30
-1.991271
11
172.319580
21
77.697617
31
2.205320
12
187.310577
22
76.309669
32
5.744664
13
186.342316
23
59.565514
33
2.669141
0
3DFACE
8
0
70
0
10
186.342316
20
59.565514
30
2.669141
11
187.310577
21
76.309669
31
5.744664
12
202.666855
22
76.817497
32
7.468345
13
200.404617
23
62.341072
33
5.904299
0
3DFACE
8
0
70
0
10
200.404617
20
62.341072
30
5.904299
11
202.666855
21
76.817497
31
7.468345
12
220.088745
22
78.697105
32
6.455377
13
217.290497
23
65.035530
33
6.371167
0
3DFACE
8
0
70
0
10
-159.617752
20
81.021278
30
-1.337898
11
-159.839615
21
99.957504
31
-1.345848
12
-141.755646
22
99.509743
32
-1.305128
13
-141.612625
23
80.546532
33
-1.240669
0
3DFACE
8
0
70
0
10
-141.612625
20
80.546532
30
-1.240669
11
-141.755646
21
99.509743
31
-1.305128
12
-124.967278
22
99.240562
32
-1.223232
13
-125.351974
23
80.587456
33
-1.118315
0
3DFACE
8
0
70
0
10
-125.351974
20
80.587456
30
-1.118315
11
-124.967278
21
99.240562
31
-1.223232
12
-109.559456
22
99.746819
32
-1.204385
13
-110.271988
23
81.553581
33
-1.143423
0
3DFACE
8
0
70
0
10
-110.271988
20
81.553581
30
-1.143423
11
-109.559456
21
99.746819
31
-1.204385
12
-93.662369
22
100.888741
32
-1.204897
13
-94.162956
23
82.869446
33
-1.266635
0
3DFACE
8
0
70
0
10
-94.162956
20
82.869446
30
-1.266635
11
-93.662369
21
100.888741
31
-1.204897
12
-75.802322
22
101.838211
32
-1.109262
13
-75.398239
23
83.380104
33
-1.310369
0
3DFACE
8
0
70
0
10
-75.398239
20
83.380104
30
-1.310369
11
-75.802322
21
101.838211
31
-1.109262
12
-56.111252
22
101.732574
32
-0.954977
13
-54.366291
23
82.312218
33
-1.250174
0
3DFACE
8
0
70
0
10
-54.366291
20
82.312218
30
-1.250174
11
-56.111252
21
101.732574
31
-0.954977
12
-35.796169
22
100.324677
32
-0.979868
13
-33.281658
23
79.957077
33
-1.286870
0
3DFACE
8
0
70
0
10
-33.281658
20
79.957077
30
-1.286870
11
-35.796169
21
100.324677
31
-0.979868
12
-16.367031
22
98.156487
32
-1.383202
13
-14.354855
23
77.565147
33
-1.597890
0
3DFACE
8
0
70
0
10
-14.354855
20
77.565147
30
-1.597890
11
-16.367031
21
98.156487
31
-1.383202
12
1.407538
22
96.250359
32
-2.063712
13
1.709888
23
76.609177
33
-2.075675
0
3DFACE
8
0
70
0
10
1.709888
20
76.609177
30
-2.075675
11
1.407538
21
96.250359
31
-2.063712
12
17.690195
22
95.628181
32
-2.644539
13
15.726993
23
77.971870
33
-2.389183
0
3DFACE
8
0
70
0
10
15.726993
20
77.971870
30
-2.389183
11
17.690195
21
95.628181
31
-2.644539
12
33.039059
22
96.928963
32
-2.779462
13
29.108883
23
81.523148
33
-2.323358
0
3DFACE
8
0
70
0
10
29.108883
20
81.523148
30
-2.323358
11
33.039059
21
96.928963
31
-2.779462
12
47.965637
22
100.202049
32
-2.434466
13
43.087959
23
86.212471
33
-2.031153
0
3DFACE
8
0
70
0
10
43.087959
20
86.212471
30
-2.031153
11
47.965637
21
100.202049
31
-2.434466
12
62.927391
22
104.860779
32
-1.879699
13
58.496643
23
90.527756
33
-1.940773
0
3DFACE
8
0
70
0
10
58.496643
20
90.527756
30
-1.940773
11
62.927391
21
104.860779
31
-1.879699
12
78.467850
22
109.803093
32
-1.414307
13
75.813637
23
93.078705
33
-2.411908
0
3DFACE
8
0
70
0
10
75.813637
20
93.078705
30
-2.411908
11
78.467850
21
109.803093
31
-1.414307
12
95.132149
22
113.699631
32
-1.047757
13
95.123756
23
93.072739
33
-3.402775
0
3DFACE
8
0
70
0
10
95.123756
20
93.072739
30
-3.402775
11
95.132149
21
113.699631
31
-1.047757
12
113.119194
22
115.373459
32
-0.344660
13
115.948036
23
90.513008
33
-4.306798
0
3DFACE
8
0
70
0
10
115.948036
20
90.513008
30
-4.306798
11
113.119194
21
115.373459
31
-0.344660
12
132.193710
22
112.630913
32
1.145254
13
136.800720
23
85.557938
33
-3.738913
0
3DFACE
8
0
70
0
10
136.800720
20
85.557938
30
-3.738913
11
132.193710
21
112.630913
31
1.145254
12
150.714355
22
108.014343
32
3.586012
13
155.762054
23
80.951508
33
-1.423980
0
3DFACE
8
0
70
0
10
155.762054
20
80.951508
30
-1.423980
11
150.714355
21
108.014343
31
3.586012
12
168.104309
22
103.005394
32
6.358033
13
172.319580
23
77.697617
33
2.205320
0
3DFACE
8
0
70
0
10
172.319580
20
77.697617
30
2.205320
11
168.104309
21
103.005394
31
6.358033
12
184.867340
22
98.965225
32
8.183584
13
187.310577
23
76.309669
33
5.744664
0
3DFACE
8
0
70
0
10
187.310577
20
76.309669
30
5.744664
11
184.867340
21
98.965225
31
8.183584
12
202.269058
22
96.745750
32
7.850227
13
202.666855
23
76.817497
33
7.468345
0
3DFACE
8
0
70
0
10
202.666855
20
76.817497
30
7.468345
11
202.269058
21
96.745750
31
7.850227
12
221.173981
22
96.329056
32
5.121039
13
220.088745
23
78.697105
33
6.455377
0
3DFACE
8
0
70
0
10
-159.839615
20
99.957504
30
-1.345848
11
-160.007156
21
118.877388
31
-1.346839
12
-141.994705
22
118.585030
32
-1.347613
13
-141.755646
23
99.509743
33
-1.305128
0
3DFACE
8
0
70
0
10
-141.755646
20
99.509743
30
-1.305128
11
-141.994705
21
118.585030
31
-1.347613
12
-124.759056
22
118.235054
32
-1.312537
13
-124.967278
23
99.240562
33
-1.223232
0
3DFACE
8
0
70
0
10
-124.967278
20
99.240562
30
-1.223232
11
-124.759056
21
118.235054
31
-1.312537
12
-108.796707
22
118.356682
32
-1.297500
13
-109.559456
23
99.746819
33
-1.204385
0
3DFACE
8
0
70
0
10
-109.559456
20
99.746819
30
-1.204385
11
-108.796707
21
118.356682
31
-1.297500
12
-92.866676
22
119.050743
32
-1.252037
13
-93.662369
23
100.888741
33
-1.204897
0
3DFACE
8
0
70
0
10
-93.662369
20
100.888741
30
-1.204897
11
-92.866676
21
119.050743
31
-1.252037
12
-75.540962
22
119.872917
32
-1.072946
13
-75.802322
23
101.838211
33
-1.109262
0
3DFACE
8
0
70
0
10
-75.802322
20
101.838211
30
-1.109262
11
-75.540962
21
119.872917
31
-1.072946
12
-56.841003
22
120.202553
32
-0.794880
13
-56.111252
23
101.732574
33
-0.954977
0
3DFACE
8
0
70
0
10
-56.111252
20
101.732574
30
-0.954977
11
-56.841003
21
120.202553
31
-0.794880
12
-37.472870
22
119.679436
32
-0.656279
13
-35.796169
23
100.324677
33
-0.979868
0
3DFACE
8
0
70
0
10
-35.796169
20
100.324677
30
-0.979868
11
-37.472870
21
119.679436
31
-0.656279
12
-18.371901
22
118.369003
32
-0.907209
13
-16.367031
23
98.156487
33
-1.383202
0
3DFACE
8
0
70
0
10
-16.367031
20
98.156487
30
-1.383202
11
-18.371901
21
118.369003
31
-0.907209
12
-0.086473
22
116.657745
32
-1.546702
13
1.407538
23
96.250359
33
-2.063712
0
3DFACE
8
0
70
0
10
1.407538
20
96.250359
30
-2.063712
11
-0.086473
21
116.657745
31
-1.546702
12
17.460093
22
115.096130
32
-2.266439
13
17.690195
23
95.628181
33
-2.644539
0
3DFACE
8
0
70
0
10
17.690195
20
95.628181
30
-2.644539
11
17.460093
21
115.096130
31
-2.266439
12
34.550133
22
114.306084
32
-2.661114
13
33.039059
23
96.928963
33
-2.779462
0
3DFACE
8
0
70
0
10
33.039059
20
96.928963
30
-2.779462
11
34.550133
21
114.306084
31
-2.661114
12
51.266949
22
114.876068
32
-2.498185
13
47.965637
23
100.202049
33
-2.434466
0
3DFACE
8
0
70
0
10
47.965637
20
100.202049
30
-2.434466
11
51.266949
21
114.876068
31
-2.498185
12
67.517487
22
117.150475
32
-1.803558
13
62.927391
23
104.860779
33
-1.879699
0
3DFACE
8
0
70
0
10
62.927391
20
104.860779
30
-1.879699
11
67.517487
21
117.150475
31
-1.803558
12
83.305855
22
120.973991
32
-0.715222
13
78.467850
23
109.803093
33
-1.414307
0
3DFACE
8
0
70
0
10
78.467850
20
109.803093
30
-1.414307
11
83.305855
21
120.973991
31
-0.715222
12
98.864517
22
125.572227
32
0.742695
13
95.132149
23
113.699631
33
-1.047757
0
3DFACE
8
0
70
0
10
95.132149
20
113.699631
30
-1.047757
11
98.864517
21
125.572227
31
0.742695
12
114.484634
22
129.707489
32
2.763257
13
113.119194
23
115.373459
33
-0.344660
0
3DFACE
8
0
70
0
10
113.119194
20
115.373459
30
-0.344660
11
114.484634
21
129.707489
31
2.763257
12
130.673233
22
130.676514
32
4.858686
13
132.193710
23
112.630913
33
1.145254
0
3DFACE
8
0
70
0
10
132.193710
20
112.630913
30
1.145254
11
130.673233
21
130.676514
31
4.858686
12
147.132080
22
129.243637
32
6.979656
13
150.714355
23
108.014343
33
3.586012
0
3DFACE
8
0
70
0
10
150.714355
20
108.014343
30
3.586012
11
147.132080
21
129.243637
31
6.979656
12
163.855560
22
126.342163
32
8.419279
13
168.104309
23
103.005394
33
6.358033
0
3DFACE
8
0
70
0
10
168.104309
20
103.005394
30
6.358033
11
163.855560
21
126.342163
31
8.419279
12
181.331665
22
123.192719
32
8.238532
13
184.867340
23
98.965225
33
8.183584
0
3DFACE
8
0
70
0
10
184.867340
20
98.965225
30
8.183584
11
181.331665
21
123.192719
31
8.238532
12
200.167160
22
120.733788
32
5.935852
13
202.269058
23
96.745750
33
7.850227
0
3DFACE
8
0
70
0
10
202.269058
20
96.745750
30
7.850227
11
200.167160
21
120.733788
31
5.935852
12
220.259186
22
119.155777
32
2.013004
13
221.173981
23
96.329056
33
5.121039
0
ENDSEC
0
EOF
